<svg xmlns="http://www.w3.org/2000/svg" width="1em" height="1em" viewBox="0 0 24 24" fill="currentColor">
  <path d="M 5 2 A 1 1 0 0 0 4 3 L 4 20 L 3 20 A 1 1 0 0 0 2 21 A 1 1 0 0 0 3 22 L 5 22 L 19 22 L 21 22 A 1 1 0 0 0 22 21 A 1 1 0 0 0 21 20 L 20 20 L 20 3 A 1 1 0 0 0 19 2 A 1 1 0 0 0 18 3 L 18 6 L 15 6 L 15 5 A 1 1 0 0 0 14 4 A 1 1 0 0 0 13 5 L 13 6 L 12 6 L 12 5 A 1 1 0 0 0 11 4 A 1 1 0 0 0 10 5 L 10 6 L 9 6 L 9 5 A 1 1 0 0 0 8 4 A 1 1 0 0 0 7 5 L 7 6 L 6 6 L 6 3 A 1 1 0 0 0 5 2 z M 6 8 L 7 8 L 7 9 A 1 1 0 0 0 8 10 A 1 1 0 0 0 9 9 L 9 8 L 10 8 L 10 9 A 1 1 0 0 0 11 10 A 1 1 0 0 0 12 9 L 12 8 L 13 8 L 13 9 A 1 1 0 0 0 14 10 A 1 1 0 0 0 15 9 L 15 8 L 18 8 L 18 14 L 17 14 L 17 13 A 1 1 0 0 0 16 12 A 1 1 0 0 0 15 13 L 15 14 L 12 14 L 12 13 A 1 1 0 0 0 11 12 A 1 1 0 0 0 10 13 L 10 14 L 9 14 L 9 13 A 1 1 0 0 0 8 12 A 1 1 0 0 0 7 13 L 7 14 L 6 14 L 6 8 z M 6 16 L 7 16 L 7 17 A 1 1 0 0 0 8 18 A 1 1 0 0 0 9 17 L 9 16 L 10 16 L 10 17 A 1 1 0 0 0 11 18 A 1 1 0 0 0 12 17 L 12 16 L 15 16 L 15 17 A 1 1 0 0 0 16 18 A 1 1 0 0 0 17 17 L 17 16 L 18 16 L 18 20 L 6 20 L 6 16 z " fill="currentColor"/>
</svg>
