<svg xmlns="http://www.w3.org/2000/svg" width="1em" height="1em" viewBox="0 0 24 24" fill="currentColor">
  <path d="M 5 7 C 4.2777779 7 3.5421194 7.2353472 2.9609375 7.7519531 C 2.3797556 8.268559 2 9.0833335 2 10 L 2 16 A 1 1 0 0 0 3 17 A 1 1 0 0 0 4 16 L 4 14 L 6 14 L 6 16 A 1 1 0 0 0 7 17 A 1 1 0 0 0 8 16 L 8 10 C 8 9.0833335 7.6202444 8.268559 7.0390625 7.7519531 C 6.4578806 7.2353472 5.7222221 7 5 7 z M 10 7 A 1 1 0 0 0 9 8 L 9 13 L 9 14 C 9 14.916666 9.3797556 15.731441 9.9609375 16.248047 C 10.542119 16.764653 11.277778 17 12 17 C 12.722222 17 13.45788 16.764653 14.039062 16.248047 C 14.620243 15.731441 15 14.916666 15 14 L 15 13 C 15 12.083334 14.620244 11.268559 14.039062 10.751953 C 13.45788 10.235347 12.722222 10 12 10 C 11.645765 10 11.340961 10.250332 11 10.369141 L 11 8 A 1 1 0 0 0 10 7 z M 5 9 C 5.2777779 9 5.5421194 9.0979864 5.7109375 9.2480469 C 5.8797556 9.3981073 6 9.5833337 6 10 L 6 12 L 4 12 L 4 10 C 4 9.5833337 4.1202444 9.3981073 4.2890625 9.2480469 C 4.4578806 9.0979864 4.7222221 9 5 9 z M 19.148438 10.007812 C 18.833604 9.9906874 18.519362 10.022059 18.222656 10.101562 C 17.035832 10.419574 16.000064 11.535664 16 13 L 16 14 C 16.000298 15.460254 17.03143 16.573746 18.214844 16.894531 C 19.398257 17.215317 20.852118 16.775824 21.589844 15.515625 A 1 1 0 0 0 21.230469 14.146484 A 1 1 0 0 0 19.863281 14.503906 C 19.570582 15.003901 19.160158 15.079201 18.738281 14.964844 C 18.316405 14.850486 18.000118 14.579368 18 14 L 18 13 C 18.000026 12.418231 18.316866 12.146646 18.740234 12.033203 C 19.163602 11.91976 19.574324 11.996183 19.865234 12.5 A 1 1 0 0 0 21.232422 12.865234 A 1 1 0 0 0 21.597656 11.5 C 21.048482 10.548914 20.092937 10.059188 19.148438 10.007812 z M 12 12 C 12.277778 12 12.542119 12.09799 12.710938 12.248047 C 12.879755 12.398107 13 12.583334 13 13 L 13 14 C 13 14.416666 12.879756 14.601893 12.710938 14.751953 C 12.542118 14.902014 12.277778 15 12 15 C 11.722222 15 11.45788 14.902014 11.289062 14.751953 C 11.120243 14.601893 11 14.416666 11 14 L 11 13 C 11 12.583334 11.120244 12.398107 11.289062 12.248047 C 11.45788 12.097986 11.722222 12 12 12 z " fill="currentColor"/>
</svg>
