<svg xmlns="http://www.w3.org/2000/svg" width="1em" height="1em" viewBox="0 0 24 24" fill="currentColor">
  <path d="M 6.3378906 5.34375 A 1 1 0 0 0 5.6308594 5.6367188 C 2.1242991 9.1430984 2.1242991 14.856902 5.6308594 18.363281 A 1 1 0 0 0 7.0449219 18.363281 A 1 1 0 0 0 7.0449219 16.949219 C 4.3027048 14.207143 4.3027048 9.792857 7.0449219 7.0507812 A 1 1 0 0 0 7.0449219 5.6367188 A 1 1 0 0 0 6.3378906 5.34375 z M 17.65625 5.34375 A 1 1 0 0 0 16.949219 5.6367188 A 1 1 0 0 0 16.949219 7.0507812 C 19.691436 9.7928571 19.691436 14.207143 16.949219 16.949219 A 1 1 0 0 0 16.949219 18.363281 A 1 1 0 0 0 18.363281 18.363281 C 21.869842 14.856902 21.869842 9.1430984 18.363281 5.6367188 A 1 1 0 0 0 17.65625 5.34375 z M 9.1679688 8.171875 A 1 1 0 0 0 8.4609375 8.4648438 C 6.5173941 10.408974 6.5173941 13.591026 8.4609375 15.535156 A 1 1 0 0 0 9.875 15.535156 A 1 1 0 0 0 9.875 14.121094 C 8.6954879 12.941225 8.6954879 11.058775 9.875 9.8789062 A 1 1 0 0 0 9.875 8.4648438 A 1 1 0 0 0 9.1679688 8.171875 z M 14.828125 8.171875 A 1 1 0 0 0 14.121094 8.4648438 A 1 1 0 0 0 14.121094 9.8789062 C 15.300606 11.058775 15.300606 12.941225 14.121094 14.121094 A 1 1 0 0 0 14.121094 15.535156 A 1 1 0 0 0 15.535156 15.535156 C 17.4787 13.591026 17.4787 10.408974 15.535156 8.4648438 A 1 1 0 0 0 14.828125 8.171875 z M 12 11 A 1 1 0 0 0 11 12 L 11 12.009766 A 1 1 0 0 0 12 13.009766 A 1 1 0 0 0 13 12.009766 L 13 12 A 1 1 0 0 0 12 11 z " fill="currentColor"/>
</svg>
