<svg xmlns="http://www.w3.org/2000/svg" width="1em" height="1em" viewBox="0 0 24 24" fill="currentColor">
  <path d="M 3 2 A 1 1 0 0 0 2.2929688 2.2929688 A 1 1 0 0 0 2.2929688 3.7070312 L 4.9648438 6.3789062 C 2.1397769 9.9076554 2.3622261 15.094817 5.6308594 18.363281 A 1 1 0 0 0 7.0449219 18.363281 A 1 1 0 0 0 7.0449219 16.949219 C 4.54185 14.446276 4.3241326 10.55064 6.390625 7.8046875 L 7.8261719 9.2402344 C 6.5463933 11.178816 6.758607 13.832312 8.4609375 15.535156 A 1 1 0 0 0 9.875 15.535156 A 1 1 0 0 0 9.875 14.121094 C 8.9431587 13.18897 8.7465991 11.817448 9.2871094 10.701172 L 20.292969 21.707031 A 1 1 0 0 0 21.707031 21.707031 A 1 1 0 0 0 21.707031 20.292969 L 3.7070312 2.2929688 A 1 1 0 0 0 3 2 z M 17.65625 5.34375 A 1 1 0 0 0 16.949219 5.6367188 A 1 1 0 0 0 16.949219 7.0507812 C 19.011614 9.1121742 19.581422 12.22547 18.380859 14.882812 A 1 1 0 0 0 18.880859 16.207031 A 1 1 0 0 0 20.203125 15.707031 C 21.743621 12.297275 21.009635 8.2798325 18.363281 5.6347656 A 1 1 0 0 0 17.65625 5.34375 z M 14.828125 8.171875 A 1 1 0 0 0 14.121094 8.4648438 A 1 1 0 0 0 14.121094 9.8789062 C 14.684013 10.441656 14.99983 11.204032 15 12 A 1 1 0 0 0 16 13 A 1 1 0 0 0 17 12 C 16.999717 10.67441 16.472632 9.4020359 15.535156 8.4648438 A 1 1 0 0 0 14.828125 8.171875 z " fill="currentColor"/>
</svg>
