<svg xmlns="http://www.w3.org/2000/svg" width="1em" height="1em" viewBox="0 0 24 24" fill="currentColor">
  <path d="M 5 4 C 3.3549904 4 2 5.3549904 2 7 L 2 17 C 2 18.64501 3.3549904 20 5 20 L 19 20 C 20.64501 20 22 18.64501 22 17 L 22 7 C 22 5.3549904 20.64501 4 19 4 L 5 4 z M 5 6 L 19 6 C 19.564129 6 20 6.4358706 20 7 L 20 17 C 20 17.564129 19.564129 18 19 18 L 5 18 C 4.4358706 18 4 17.564129 4 17 L 4 7 C 4 6.4358706 4.4358706 6 5 6 z M 9 8 C 8.2777779 8 7.5421194 8.2353472 6.9609375 8.7519531 C 6.3797556 9.268559 6 10.083334 6 11 L 6 15 A 1 1 0 0 0 7 16 A 1 1 0 0 0 8 15 L 8 14 L 10 14 L 10 15 A 1 1 0 0 0 11 16 A 1 1 0 0 0 12 15 L 12 11 C 12 10.083334 11.620244 9.268559 11.039062 8.7519531 C 10.45788 8.2353472 9.7222221 8 9 8 z M 17 8 A 1 1 0 0 0 16 9 L 16 11.142578 C 15.22669 10.98309 14.366266 11.098578 13.732422 11.732422 C 12.975009 12.489835 12.833897 13.598531 13.189453 14.457031 C 13.545009 15.315531 14.42879 16 15.5 16 L 17 16 A 1.0001 1.0001 0 0 0 18 15 L 18 13.5 L 18 9 A 1 1 0 0 0 17 8 z M 9 10 C 9.2777779 10 9.5421194 10.097986 9.7109375 10.248047 C 9.8797556 10.398107 10 10.583334 10 11 L 10 12 L 8 12 L 8 11 C 8 10.583334 8.1202444 10.398107 8.2890625 10.248047 C 8.4578806 10.097986 8.7222221 10 9 10 z M 15.453125 12.990234 C 15.531521 12.985864 15.610216 13.005436 15.691406 13.039062 C 15.876985 13.115922 16 13.23476 16 13.5 L 16 14 L 15.5 14 C 15.23476 14 15.115922 13.876985 15.039062 13.691406 C 14.962203 13.505828 14.959003 13.33397 15.146484 13.146484 C 15.251945 13.041024 15.35233 12.995854 15.453125 12.990234 z " fill="currentColor"/>
</svg>
