<svg xmlns="http://www.w3.org/2000/svg" width="1em" height="1em" viewBox="0 0 24 24" fill="currentColor">
  <path d="M 6 3 A 1 1 0 0 0 5 4 L 5 7.1582031 C 4.6265945 7.2806257 4.2716848 7.4757334 3.9609375 7.7519531 C 3.3797556 8.268559 3 9.0833335 3 10 C 3 10.916666 3.3797556 11.731441 3.9609375 12.248047 C 4.2716848 12.524267 4.6265945 12.719374 5 12.841797 L 5 20 A 1 1 0 0 0 6 21 A 1 1 0 0 0 7 20 L 7 12.841797 C 7.3734055 12.719374 7.7283152 12.524267 8.0390625 12.248047 C 8.6202444 11.731441 9 10.916666 9 10 C 9 9.0833335 8.6202444 8.268559 8.0390625 7.7519531 C 7.7283152 7.4757334 7.3734055 7.2806257 7 7.1582031 L 7 4 A 1 1 0 0 0 6 3 z M 12 3 A 1 1 0 0 0 11 4 L 11 13.171875 C 10.085178 13.499467 9.2988593 14.286812 9.0664062 15.371094 C 8.8014088 16.607179 9.3517978 17.783583 10.240234 18.427734 C 10.470136 18.594422 10.726836 18.728159 11 18.824219 L 11 20 A 1 1 0 0 0 12 21 A 1 1 0 0 0 13 20 L 13 18.828125 C 13.173059 18.766955 13.343679 18.688528 13.509766 18.591797 A 1 1 0 0 0 13.871094 17.224609 A 1 1 0 0 0 12.503906 16.863281 C 12.365681 16.943786 12.232451 16.98973 12.103516 17.005859 A 1 1 0 0 0 12 17 A 1 1 0 0 0 11.890625 17.005859 C 11.719182 16.985281 11.559731 16.914211 11.414062 16.808594 C 11.105721 16.585034 10.924335 16.253281 11.023438 15.791016 C 11.122537 15.328751 11.423988 15.098999 11.796875 15.021484 C 11.849625 15.01052 11.90272 15.001967 11.955078 14.998047 A 1 1 0 0 0 12 15 A 1 1 0 0 0 12.080078 14.996094 C 12.352439 15.007821 12.609307 15.131239 12.814453 15.417969 A 1 1 0 0 0 14.208984 15.648438 A 1 1 0 0 0 14.439453 14.253906 C 14.06203 13.726389 13.552162 13.367844 13 13.173828 L 13 4 A 1 1 0 0 0 12 3 z M 18 3 A 1 1 0 0 0 17 4 L 17 4.1582031 C 16.626594 4.2806257 16.271684 4.4757334 15.960938 4.7519531 C 15.379755 5.268559 15 6.0833335 15 7 C 15 7.9166665 15.379756 8.731441 15.960938 9.2480469 C 16.271684 9.5242666 16.626594 9.7193743 17 9.8417969 L 17 13.5 A 1 1 0 0 0 18 14.5 A 1 1 0 0 0 19 13.5 L 19 9.8417969 C 19.373406 9.7193743 19.728316 9.5242666 20.039062 9.2480469 C 20.620244 8.731441 21 7.9166665 21 7 C 21 6.0833335 20.620244 5.268559 20.039062 4.7519531 C 19.728316 4.4757334 19.373406 4.2806257 19 4.1582031 L 19 4 A 1 1 0 0 0 18 3 z M 18 6 C 18.277778 6 18.542119 6.097986 18.710938 6.2480469 C 18.879756 6.3981073 19 6.5833337 19 7 C 19 7.4166663 18.879756 7.6018927 18.710938 7.7519531 C 18.542121 7.9020125 18.277776 7.9999985 18 8 C 17.722222 8 17.457881 7.9020136 17.289062 7.7519531 C 17.120244 7.6018927 17 7.4166663 17 7 C 17 6.5833337 17.120244 6.3981073 17.289062 6.2480469 C 17.457881 6.0979864 17.722222 6 18 6 z M 6 9 C 6.2777779 9 6.5421194 9.0979864 6.7109375 9.2480469 C 6.8797556 9.3981073 7 9.5833337 7 10 C 7 10.416666 6.8797556 10.601893 6.7109375 10.751953 C 6.5421194 10.902014 6.2777779 11 6 11 C 5.7222221 11 5.4578806 10.902014 5.2890625 10.751953 C 5.1202444 10.601893 5 10.416666 5 10 C 5 9.5833337 5.1202444 9.3981073 5.2890625 9.2480469 C 5.4578806 9.0979864 5.7222221 9 6 9 z M 17 16 A 1 1 0 0 0 16 17 L 16 22 A 1 1 0 0 0 17 23 A 1 1 0 0 0 18 22 L 18 17 A 1 1 0 0 0 17 16 z M 21 16 A 1 1 0 0 0 20 17 L 20 22 A 1 1 0 0 0 21 23 A 1 1 0 0 0 22 22 L 22 17 A 1 1 0 0 0 21 16 z " fill="currentColor"/>
</svg>
