<svg xmlns="http://www.w3.org/2000/svg" width="1em" height="1em" viewBox="0 0 24 24" fill="currentColor">
  <path d="M 6 3 A 1 1 0 0 0 5 4 L 5 7.1582031 C 4.6265945 7.2806257 4.2716848 7.4757334 3.9609375 7.7519531 C 3.3797556 8.268559 3 9.0833335 3 10 C 3 10.916666 3.3797556 11.731441 3.9609375 12.248047 C 4.2716848 12.524267 4.6265945 12.719374 5 12.841797 L 5 20 A 1 1 0 0 0 6 21 A 1 1 0 0 0 7 20 L 7 12.841797 C 7.3734055 12.719374 7.7283152 12.524267 8.0390625 12.248047 C 8.6202444 11.731441 9 10.916666 9 10 C 9 9.0833335 8.6202444 8.268559 8.0390625 7.7519531 C 7.7283152 7.4757334 7.3734055 7.2806257 7 7.1582031 L 7 4 A 1 1 0 0 0 6 3 z M 12 3 A 1 1 0 0 0 11 4 L 11 13.191406 C 10.472413 13.36573 9.9858188 13.692315 9.6113281 14.185547 C 8.3660964 15.825608 9.2235981 18.166003 11 18.822266 L 11 20 A 1 1 0 0 0 12 21 A 1 1 0 0 0 13 20 L 13 18 A 1 1 0 0 0 12 17 C 11.109605 16.99968 10.666705 16.103608 11.205078 15.394531 C 11.376343 15.168964 11.591871 15.033828 11.814453 14.982422 A 1 1 0 0 0 12 15 A 1 1 0 0 0 12.208984 14.978516 C 12.545597 15.048237 12.844738 15.307432 12.962891 15.730469 A 1 1 0 0 0 14.195312 16.425781 A 1 1 0 0 0 14.890625 15.193359 C 14.612138 14.196252 13.870841 13.515937 13 13.214844 L 13 4 A 1 1 0 0 0 12 3 z M 18 3 A 1 1 0 0 0 17 4 L 17 4.1582031 C 16.626594 4.2806257 16.271684 4.4757334 15.960938 4.7519531 C 15.379755 5.268559 15 6.0833335 15 7 C 15 7.9166665 15.379756 8.731441 15.960938 9.2480469 C 16.271684 9.5242666 16.626594 9.7193743 17 9.8417969 L 17 12 A 1 1 0 0 0 18 13 A 1 1 0 0 0 19 12 L 19 9.8417969 C 19.373406 9.7193743 19.728316 9.5242666 20.039062 9.2480469 C 20.620244 8.731441 21 7.9166665 21 7 C 21 6.0833335 20.620244 5.268559 20.039062 4.7519531 C 19.728316 4.4757334 19.373406 4.2806257 19 4.1582031 L 19 4 A 1 1 0 0 0 18 3 z M 18 6 C 18.277778 6 18.542119 6.097986 18.710938 6.2480469 C 18.879756 6.3981073 19 6.5833337 19 7 C 19 7.4166663 18.879756 7.6018927 18.710938 7.7519531 C 18.542121 7.9020125 18.277776 7.9999985 18 8 C 17.722222 8 17.457881 7.9020136 17.289062 7.7519531 C 17.120244 7.6018927 17 7.4166663 17 7 C 17 6.5833337 17.120244 6.3981073 17.289062 6.2480469 C 17.457881 6.0979864 17.722222 6 18 6 z M 6 9 C 6.2777779 9 6.5421194 9.0979864 6.7109375 9.2480469 C 6.8797556 9.3981073 7 9.5833337 7 10 C 7 10.416666 6.8797556 10.601893 6.7109375 10.751953 C 6.5421194 10.902014 6.2777779 11 6 11 C 5.7222221 11 5.4578806 10.902014 5.2890625 10.751953 C 5.1202444 10.601893 5 10.416666 5 10 C 5 9.5833337 5.1202444 9.3981073 5.2890625 9.2480469 C 5.4578806 9.0979864 5.7222221 9 6 9 z M 19 15 A 1.0001 1.0001 0 0 0 18.794922 15.023438 A 1 1 0 0 0 18.742188 15.035156 A 1 1 0 0 0 18.617188 15.076172 A 1 1 0 0 0 18.611328 15.078125 A 1.0001 1.0001 0 0 0 18.5 15.134766 A 1 1 0 0 0 18.439453 15.175781 A 1.0001 1.0001 0 0 0 18.384766 15.212891 A 1 1 0 0 0 18.341797 15.25 A 1.0001 1.0001 0 0 0 18.292969 15.292969 A 1 1 0 0 0 18.283203 15.302734 L 15.292969 18.292969 A 1 1 0 0 0 15.292969 19.707031 A 1 1 0 0 0 16.707031 19.707031 L 18 18.414062 L 18 22 A 1 1 0 0 0 19 23 A 1 1 0 0 0 20 22 L 20 18.414062 L 21.292969 19.707031 A 1 1 0 0 0 22.707031 19.707031 A 1 1 0 0 0 22.707031 18.292969 L 19.716797 15.302734 A 1 1 0 0 0 19.658203 15.25 A 1.0001 1.0001 0 0 0 19.615234 15.212891 A 1 1 0 0 0 19.560547 15.175781 A 1.0001 1.0001 0 0 0 19.382812 15.076172 A 1 1 0 0 0 19.257812 15.035156 A 1.0001 1.0001 0 0 0 19.205078 15.023438 A 1.0001 1.0001 0 0 0 19 15 z " fill="currentColor"/>
</svg>
