<svg xmlns="http://www.w3.org/2000/svg" width="1em" height="1em" viewBox="0 0 24 24" fill="currentColor">
  <path d="M 6 3 A 1 1 0 0 0 5 4 L 5 7.1582031 C 4.6265945 7.2806257 4.2716848 7.4757334 3.9609375 7.7519531 C 3.3797556 8.268559 3 9.0833335 3 10 C 3 10.916666 3.3797556 11.731441 3.9609375 12.248047 C 4.2716848 12.524267 4.6265945 12.719374 5 12.841797 L 5 20 A 1 1 0 0 0 6 21 A 1 1 0 0 0 7 20 L 7 12.841797 C 7.3734055 12.719374 7.7283152 12.524267 8.0390625 12.248047 C 8.6202444 11.731441 9 10.916666 9 10 C 9 9.0833335 8.6202444 8.268559 8.0390625 7.7519531 C 7.7283152 7.4757334 7.3734055 7.2806257 7 7.1582031 L 7 4 A 1 1 0 0 0 6 3 z M 12 3 A 1 1 0 0 0 11 4 L 11 13.191406 C 10.167638 13.48623 9.4597143 14.135463 9.1542969 15.052734 C 8.6284182 16.632125 9.533932 18.291544 11 18.824219 L 11 20 A 1 1 0 0 0 12 21 A 1 1 0 0 0 13 20 L 13 18 A 1 1 0 0 0 12 17 C 11.288251 16.999881 10.825934 16.358887 11.050781 15.683594 C 11.185204 15.279877 11.508837 15.034079 11.869141 14.992188 A 1 1 0 0 0 12 15 A 1 1 0 0 0 12.109375 14.994141 C 12.276603 15.016928 12.445265 15.083661 12.599609 15.199219 A 1 1 0 0 0 14 14.998047 A 1 1 0 0 0 13.798828 13.597656 C 13.5483 13.410087 13.278728 13.269724 13 13.173828 L 13 4 A 1 1 0 0 0 12 3 z M 18 3 A 1 1 0 0 0 17 4 L 17 4.1582031 C 16.626594 4.2806257 16.271684 4.4757334 15.960938 4.7519531 C 15.379755 5.268559 15 6.0833335 15 7 C 15 7.9166665 15.379756 8.731441 15.960938 9.2480469 C 16.271684 9.5242666 16.626594 9.7193743 17 9.8417969 L 17 11.5 A 1 1 0 0 0 18 12.5 A 1 1 0 0 0 19 11.5 L 19 9.8417969 C 19.373406 9.7193743 19.728316 9.5242666 20.039062 9.2480469 C 20.620244 8.731441 21 7.9166665 21 7 C 21 6.0833335 20.620244 5.268559 20.039062 4.7519531 C 19.728316 4.4757334 19.373406 4.2806257 19 4.1582031 L 19 4 A 1 1 0 0 0 18 3 z M 18 6 C 18.277778 6 18.542119 6.097986 18.710938 6.2480469 C 18.879756 6.3981073 19 6.5833337 19 7 C 19 7.4166663 18.879756 7.6018927 18.710938 7.7519531 C 18.542121 7.9020125 18.277776 7.9999985 18 8 C 17.722222 8 17.457881 7.9020136 17.289062 7.7519531 C 17.120244 7.6018927 17 7.4166663 17 7 C 17 6.5833337 17.120244 6.3981073 17.289062 6.2480469 C 17.457881 6.0979864 17.722222 6 18 6 z M 6 9 C 6.2777779 9 6.5421194 9.0979864 6.7109375 9.2480469 C 6.8797556 9.3981073 7 9.5833337 7 10 C 7 10.416666 6.8797556 10.601893 6.7109375 10.751953 C 6.5421194 10.902014 6.2777779 11 6 11 C 5.7222221 11 5.4578806 10.902014 5.2890625 10.751953 C 5.1202444 10.601893 5 10.416666 5 10 C 5 9.5833337 5.1202444 9.3981073 5.2890625 9.2480469 C 5.4578806 9.0979864 5.7222221 9 6 9 z M 19.001953 14.5 A 1 1 0 0 0 18.001953 15.5 L 18.001953 16.15625 C 17.650707 16.271131 17.316482 16.450991 17.019531 16.701172 L 16.46875 16.384766 A 1 1 0 0 0 15.103516 16.75 A 1 1 0 0 0 15.470703 18.115234 L 16.048828 18.449219 C 16.018359 18.627489 16.001953 18.811393 16.001953 19 C 16.001953 19.188607 16.018359 19.372511 16.048828 19.550781 L 15.470703 19.884766 A 1 1 0 0 0 15.103516 21.25 A 1 1 0 0 0 16.46875 21.615234 L 17.019531 21.298828 C 17.316482 21.549009 17.650707 21.728869 18.001953 21.84375 L 18.001953 22.5 A 1 1 0 0 0 19.001953 23.5 A 1 1 0 0 0 20.001953 22.5 L 20.001953 21.841797 C 20.352392 21.726904 20.68578 21.548801 20.982422 21.298828 L 21.533203 21.615234 A 1 1 0 0 0 22.898438 21.25 A 1 1 0 0 0 22.533203 19.884766 L 21.955078 19.550781 C 21.985716 19.372405 22.001953 19.188728 22.001953 19 C 22.001953 18.811071 21.98578 18.625819 21.955078 18.447266 L 22.53125 18.115234 A 1 1 0 0 0 22.898438 16.75 A 1 1 0 0 0 22.291016 16.283203 A 1 1 0 0 0 21.53125 16.384766 L 20.982422 16.701172 C 20.685894 16.451401 20.352211 16.273037 20.001953 16.158203 L 20.001953 15.5 A 1 1 0 0 0 19.001953 14.5 z M 19.001953 18 C 19.279731 18 19.542119 18.09799 19.710938 18.248047 C 19.737354 18.271528 19.763265 18.29631 19.787109 18.322266 A 1 1 0 0 0 19.867188 18.5 A 1 1 0 0 0 19.958984 18.630859 C 19.986979 18.729861 20.001953 18.850435 20.001953 19 C 20.001953 19.149138 19.98683 19.268351 19.958984 19.367188 A 1 1 0 0 0 19.867188 19.5 A 1 1 0 0 0 19.787109 19.677734 C 19.763265 19.70369 19.737354 19.728472 19.710938 19.751953 C 19.542119 19.902014 19.279731 20 19.001953 20 C 18.724175 20 18.459834 19.902014 18.291016 19.751953 C 18.265546 19.729314 18.241762 19.706555 18.21875 19.681641 A 1 1 0 0 0 18.136719 19.5 A 1 1 0 0 0 18.044922 19.367188 C 18.017583 19.268557 18.001953 19.148605 18.001953 19 C 18.001953 18.85116 18.017501 18.731534 18.044922 18.632812 A 1 1 0 0 0 18.136719 18.5 A 1 1 0 0 0 18.21875 18.318359 C 18.241762 18.293445 18.265546 18.270686 18.291016 18.248047 C 18.459834 18.097986 18.724175 18 19.001953 18 z " fill="currentColor"/>
</svg>
