<svg xmlns="http://www.w3.org/2000/svg" width="1em" height="1em" viewBox="0 0 24 24" fill="currentColor">
  <path d="M 20.005859 2 A 1 1 0 0 0 19.875 2.0078125 L 11.869141 3.0078125 A 1 1 0 0 0 11.859375 3.0097656 L 3.875 4.0078125 A 1 1 0 0 0 3.0078125 5.125 A 1 1 0 0 0 4.125 5.9921875 L 11 5.1328125 L 11 7 L 6.8945312 7 A 1 1 0 0 0 6.578125 7.3164062 A 1 1 0 0 0 6.1308594 7.3535156 C 4.6461693 9.1043294 3.9863281 11.561556 3.9863281 14 C 3.9863281 16.438444 4.6461693 18.895671 6.1308594 20.646484 A 1.0001 1.0001 0 0 0 6.8945312 21 L 17 21 A 1.0001 1.0001 0 0 0 17.75 20.662109 C 19.293991 18.914195 19.98462 16.450573 20.011719 14.011719 C 20.038819 11.572865 19.406203 9.1201592 17.974609 7.3671875 A 1.0001 1.0001 0 0 0 17.199219 7 L 13 7 L 13 4.8828125 L 20.125 3.9921875 A 1 1 0 0 0 20.992188 2.875 A 1 1 0 0 0 20.005859 2 z M 7.4726562 9 L 11 9 L 11 13 L 6.0390625 13 C 6.1986633 11.46378 6.7167849 10.038956 7.4726562 9 z M 13 9 L 16.609375 9 C 17.333456 10.040084 17.832368 11.465168 17.972656 13 L 13 13 L 13 9 z M 6.0390625 15 L 12 15 L 17.947266 15 C 17.767741 16.537408 17.225974 17.961763 16.433594 19 L 7.4726562 19 C 6.7167849 17.961044 6.1986633 16.53622 6.0390625 15 z " fill="currentColor"/>
</svg>
