<svg xmlns="http://www.w3.org/2000/svg" width="1em" height="1em" viewBox="0 0 24 24" fill="currentColor">
  <path d="M 5.5 3 C 4.9027779 3 4.2921194 3.1936805 3.8046875 3.6269531 C 3.3172556 4.0602257 3 4.7500001 3 5.5 C 3 6.2499999 3.3172556 6.9397743 3.8046875 7.3730469 C 4.2109149 7.7341377 4.702875 7.929531 5.2011719 7.984375 L 5.9746094 10.560547 C 5.5339657 10.771268 5.1180582 11.042846 4.7421875 11.376953 C 3.6922556 12.310226 3 13.750001 3 15.5 C 3 17.249999 3.6922556 18.689774 4.7421875 19.623047 C 5.7921194 20.556319 7.1527779 21 8.5 21 C 9.8472221 21 11.207881 20.556319 12.257812 19.623047 C 12.741746 19.192883 13.150021 18.655451 13.449219 18.029297 L 16.017578 18.798828 C 16.089211 19.430711 16.382898 19.998122 16.804688 20.373047 C 17.292119 20.806319 17.902778 21 18.5 21 C 19.097222 21 19.707881 20.806319 20.195312 20.373047 C 20.682744 19.939774 21 19.25 21 18.5 C 21 17.75 20.682744 17.060226 20.195312 16.626953 C 19.707881 16.193681 19.097222 16 18.5 16 C 17.902778 16 17.292119 16.193681 16.804688 16.626953 C 16.71976 16.702445 16.640224 16.784973 16.566406 16.875 L 13.972656 16.097656 C 13.99086 15.902811 14 15.703548 14 15.5 C 14 14.265944 13.655138 13.186775 13.083984 12.330078 L 17.578125 7.8359375 C 17.876518 7.9469528 18.189693 8 18.5 8 C 19.097222 8 19.707881 7.8063195 20.195312 7.3730469 C 20.682744 6.9397743 21 6.2499999 21 5.5 C 21 4.7500001 20.682744 4.0602257 20.195312 3.6269531 C 19.707881 3.1936805 19.097222 3 18.5 3 C 17.902778 3 17.292119 3.1936805 16.804688 3.6269531 C 16.317256 4.0602257 16 4.7500001 16 5.5 C 16 5.8233709 16.059849 6.1346749 16.166016 6.4199219 L 11.664062 10.921875 C 10.719606 10.299063 9.6054495 10 8.5 10 C 8.3016626 10 8.1021823 10.009918 7.9042969 10.029297 L 7.9023438 10.029297 L 7.125 7.4335938 C 7.1489321 7.4139088 7.1719323 7.3938293 7.1953125 7.3730469 C 7.6827444 6.9397743 8 6.2499999 8 5.5 C 8 4.7500001 7.6827444 4.0602257 7.1953125 3.6269531 C 6.7078806 3.1936805 6.0972221 3 5.5 3 z M 5.5 5 C 5.6527779 5 5.7921194 5.0563197 5.8671875 5.1230469 C 5.9422556 5.189774 6 5.2500003 6 5.5 C 6 5.7499997 5.9422556 5.810226 5.8671875 5.8769531 C 5.8332052 5.9071596 5.7860776 5.9353494 5.7304688 5.9570312 A 1 1 0 0 0 5.6445312 5.9785156 A 1 1 0 0 0 5.6054688 5.9921875 C 5.571665 5.9978276 5.5359547 6 5.5 6 C 5.3472221 6 5.2078806 5.9436803 5.1328125 5.8769531 C 5.0577444 5.810226 5 5.7499997 5 5.5 C 5 5.2500003 5.0577444 5.189774 5.1328125 5.1230469 C 5.2078806 5.0563197 5.3472221 5 5.5 5 z M 18.5 5 C 18.652778 5 18.792119 5.05632 18.867188 5.1230469 C 18.942256 5.189774 19 5.2500003 19 5.5 C 19 5.7499997 18.942256 5.810226 18.867188 5.8769531 C 18.792119 5.9436803 18.652778 6 18.5 6 C 18.396934 6 18.299838 5.9746666 18.224609 5.9375 A 1 1 0 0 0 18.148438 5.8515625 A 1 1 0 0 0 18.037109 5.7558594 C 18.013599 5.7012774 18 5.6240894 18 5.5 C 18 5.2500003 18.057744 5.189774 18.132812 5.1230469 C 18.207881 5.0563197 18.347222 5 18.5 5 z M 8.5 12 C 9.3354452 12 10.159658 12.261725 10.783203 12.75 A 1 1 0 0 0 10.976562 13.023438 A 1 1 0 0 0 11.273438 13.228516 C 11.718161 13.767808 12 14.490121 12 15.5 C 12 15.800668 11.974637 16.075613 11.927734 16.328125 A 1 1 0 0 0 11.855469 16.505859 A 1 1 0 0 0 11.8125 16.783203 C 11.627373 17.350144 11.316509 17.783112 10.929688 18.126953 C 10.292118 18.69368 9.4027779 19 8.5 19 C 7.5972221 19 6.7078806 18.69368 6.0703125 18.126953 C 5.4327444 17.560226 5 16.749999 5 15.5 C 5 14.250001 5.4327444 13.439774 6.0703125 12.873047 C 6.4239861 12.55867 6.8543255 12.32401 7.3222656 12.177734 A 1 1 0 0 0 7.4941406 12.142578 A 1 1 0 0 0 7.6054688 12.101562 C 7.8958982 12.034547 8.1975974 12 8.5 12 z M 18.5 18 C 18.652778 18 18.792119 18.05632 18.867188 18.123047 C 18.942256 18.189774 19 18.25 19 18.5 C 19 18.75 18.94226 18.810226 18.867188 18.876953 C 18.792119 18.94368 18.652778 19 18.5 19 C 18.347222 19 18.207881 18.94368 18.132812 18.876953 C 18.057744 18.810226 18 18.75 18 18.5 C 18 18.467517 18.000092 18.438616 18.001953 18.412109 A 1 1 0 0 0 18.021484 18.355469 A 1 1 0 0 0 18.052734 18.214844 C 18.074762 18.176952 18.102429 18.150055 18.132812 18.123047 C 18.207881 18.05632 18.347222 18 18.5 18 z " fill="currentColor"/>
</svg>
