<svg xmlns="http://www.w3.org/2000/svg" width="1em" height="1em" viewBox="0 0 24 24" fill="currentColor">
  <path d="M 10 7 C 9.2777779 7 8.5421194 7.2353472 7.9609375 7.7519531 C 7.3797556 8.268559 7 9.0833335 7 10 L 7 16 A 1 1 0 0 0 8 17 A 1 1 0 0 0 9 16 L 9 14 L 11 14 L 11 16 A 1 1 0 0 0 12 17 A 1 1 0 0 0 13 16 L 13 10 C 13 9.0833335 12.620244 8.268559 12.039062 7.7519531 C 11.45788 7.2353472 10.722222 7 10 7 z M 16 7 A 1 1 0 0 0 15 8 L 15 16 A 1 1 0 0 0 16 17 A 1 1 0 0 0 17 16 L 17 8 A 1 1 0 0 0 16 7 z M 10 9 C 10.277778 9 10.542119 9.0979864 10.710938 9.2480469 C 10.879755 9.3981073 11 9.5833337 11 10 L 11 12 L 9 12 L 9 10 C 9 9.5833337 9.1202444 9.3981073 9.2890625 9.2480469 C 9.4578806 9.0979864 9.7222221 9 10 9 z " fill="currentColor"/>
</svg>
