<svg xmlns="http://www.w3.org/2000/svg" width="1em" height="1em" viewBox="0 0 24 24" fill="currentColor">
  <path d="M 3 2 A 1 1 0 0 0 2.2929688 2.2929688 A 1 1 0 0 0 2.2929688 3.7070312 L 3.2929688 4.7070312 C 3.1052535 5.0997314 3 5.5393625 3 6 L 3 18 C 3 19.64501 4.3549904 21 6 21 L 18 21 C 18.460272 21 18.899984 20.894551 19.292969 20.707031 L 20.292969 21.707031 A 1 1 0 0 0 21.707031 21.707031 A 1 1 0 0 0 21.707031 20.292969 L 20.205078 18.791016 A 1 1 0 0 0 20.125 18.701172 A 1 1 0 0 0 20.039062 18.625 L 5.2929688 3.8808594 L 3.7070312 2.2929688 A 1 1 0 0 0 3 2 z M 8 3 A 1 1 0 0 0 7 4 A 1 1 0 0 0 8 5 L 11 5 L 11 8 A 1 1 0 0 0 12 9 A 1 1 0 0 0 13 8 L 13 5 L 15 5 L 15 8.5859375 L 14.707031 8.2929688 A 1.0001 1.0001 0 0 0 13.292969 8.2929688 L 12.794922 8.7890625 A 1 1 0 0 0 12.794922 10.205078 A 1 1 0 0 0 13.914062 10.328125 L 15.292969 11.707031 A 1.0001 1.0001 0 0 0 17 11 L 17 5 L 18 5 C 18.564129 5 19 5.4358706 19 6 L 19 16 A 1 1 0 0 0 20 17 A 1 1 0 0 0 21 16 L 21 6 C 21 4.3549904 19.64501 3 18 3 L 8 3 z M 5 6.4140625 L 17.585938 19 L 6 19 C 5.4358706 19 5 18.564129 5 18 L 5 6.4140625 z " fill="currentColor"/>
</svg>
