<svg xmlns="http://www.w3.org/2000/svg" width="1em" height="1em" viewBox="0 0 24 24" fill="currentColor">
  <path d="M 12 2 C 9.5014048 2 7.4276404 2.6278888 5.8964844 3.7734375 C 4.3670405 4.9177052 3.418555 6.5801008 3.1503906 8.4472656 C 2.6455001 11.712934 3.4212976 15.048828 5.3164062 17.755859 C 6.2368236 19.099985 7.4256171 20.238594 8.8085938 21.099609 A 1.0001 1.0001 0 0 0 8.8222656 21.109375 C 10.790753 22.29094 13.213153 22.29094 15.181641 21.109375 A 1.0001 1.0001 0 0 0 15.195312 21.099609 C 16.577081 20.239346 17.765464 19.102359 18.685547 17.759766 L 18.685547 17.757812 C 20.573144 15.0491 21.350717 11.7171 20.855469 8.453125 L 20.855469 8.4511719 C 20.588182 6.5818092 19.638114 4.9165411 18.107422 3.7714844 C 16.576218 2.6260446 14.50243 2 12.003906 2 L 12 2 z M 12 4 L 12.003906 4 C 14.169383 4 15.79286 4.5372367 16.910156 5.3730469 C 18.027453 6.2088571 18.677874 7.3414958 18.876953 8.7363281 A 1.0001 1.0001 0 0 0 18.876953 8.7460938 C 19.298104 11.507386 18.642223 14.323786 17.044922 16.615234 A 1.0001 1.0001 0 0 0 17.041016 16.623047 C 16.278107 17.73828 15.290939 18.68139 14.144531 19.396484 C 12.785174 20.209038 11.218732 20.209038 9.859375 19.396484 C 8.7129674 18.681399 7.7257997 17.73828 6.9628906 16.623047 A 1.0001 1.0001 0 0 0 6.9570312 16.613281 C 5.3541421 14.326074 4.6989299 11.508033 5.1269531 8.7480469 A 1.0001 1.0001 0 0 0 5.1289062 8.7363281 C 5.3279714 7.3420402 5.9764061 6.2109513 7.09375 5.375 C 8.2110939 4.5390487 9.8345952 4 12 4 z M 8 10 A 1 1 0 0 0 7.2929688 10.292969 A 1 1 0 0 0 7.2929688 11.707031 L 9.2929688 13.707031 A 1 1 0 0 0 10.707031 13.707031 A 1 1 0 0 0 10.707031 12.292969 L 8.7070312 10.292969 A 1 1 0 0 0 8 10 z M 16 10 A 1 1 0 0 0 15.292969 10.292969 L 13.292969 12.292969 A 1 1 0 0 0 13.292969 13.707031 A 1 1 0 0 0 14.707031 13.707031 L 16.707031 11.707031 A 1 1 0 0 0 16.707031 10.292969 A 1 1 0 0 0 16 10 z M 11.019531 16 A 1 1 0 0 0 10.634766 16.068359 A 1 1 0 0 0 10.083984 16.599609 A 1 1 0 0 0 10.599609 17.916016 C 11.491842 18.305418 12.508158 18.305418 13.400391 17.916016 A 1 1 0 0 0 13.916016 16.599609 A 1 1 0 0 0 12.599609 16.083984 C 12.216589 16.251148 11.783411 16.251148 11.400391 16.083984 A 1 1 0 0 0 11.019531 16 z " fill="currentColor"/>
</svg>
