<svg xmlns="http://www.w3.org/2000/svg" width="1em" height="1em" viewBox="0 0 24 24" fill="currentColor">
  <path d="M 16 6 A 1 1 0 0 0 15 7 L 15 11.382812 L 13.552734 12.105469 A 1 1 0 0 0 13.105469 13.447266 A 1 1 0 0 0 14.447266 13.894531 L 15 13.617188 L 15 17 A 1 1 0 0 0 16 18 A 1 1 0 0 0 17 17 L 17 12.617188 L 18.447266 11.894531 A 1 1 0 0 0 18.894531 10.552734 A 1 1 0 0 0 17.552734 10.105469 L 17 10.382812 L 17 7 A 1 1 0 0 0 16 6 z M 7 9 A 1 1 0 0 0 6 10 A 1 1 0 0 0 7 11 L 9 11 C 9.5641294 11 10 11.435871 10 12 L 8 12 C 7.0833335 12 6.268559 12.379756 5.7519531 12.960938 C 5.2353472 13.542118 5 14.277778 5 15 C 5 15.722222 5.2353472 16.457881 5.7519531 17.039062 C 6.268559 17.620244 7.0833335 18 8 18 L 8.046875 18 C 8.015731 18.165734 8 18.33339 8 18.5 C 8 19.097222 8.1936805 19.707881 8.6269531 20.195312 C 9.0602257 20.682744 9.7500001 21 10.5 21 A 1 1 0 0 0 11.5 20 A 1 1 0 0 0 10.5 19 C 10.25 19 10.189774 18.942256 10.123047 18.867188 C 10.05632 18.792119 10 18.652778 10 18.5 C 10 18.347222 10.05632 18.207881 10.123047 18.132812 C 10.189774 18.057744 10.25 18 10.5 18 L 11 18 A 1.0001 1.0001 0 0 0 12 17 L 12 13 L 12 12 C 12 10.35499 10.64501 9 9 9 L 7 9 z M 8 14 L 10 14 L 10 16 L 8 16 C 7.5833337 16 7.3981073 15.879756 7.2480469 15.710938 C 7.0979864 15.542118 7 15.277778 7 15 C 7 14.722222 7.0979864 14.45788 7.2480469 14.289062 C 7.3981073 14.120243 7.5833337 14 8 14 z " fill="currentColor"/>
</svg>
