<svg xmlns="http://www.w3.org/2000/svg" width="1em" height="1em" viewBox="0 0 24 24" fill="currentColor">
  <path d="M 7 5 A 1 1 0 0 0 6 6 L 6 15.957031 C 6 16.438531 5.9946402 16.780412 5.9726562 16.947266 C 5.971509 16.955974 5.9697728 16.963248 5.96875 16.970703 C 5.9660107 16.971081 5.9638405 16.972258 5.9609375 16.972656 C 5.8042408 16.994168 5.4715 17 5 17 L 4 17 A 1 1 0 0 0 3 18 A 1 1 0 0 0 4 19 L 5 19 C 5.4715 19 5.8446191 19.006395 6.2324219 18.953125 C 6.6202247 18.899882 7.0878965 18.741208 7.421875 18.400391 C 7.7559919 18.059432 7.9038102 17.59813 7.9550781 17.208984 C 8.006346 16.819838 8 16.438531 8 15.957031 L 8 6 A 1 1 0 0 0 7 5 z M 10 5 A 1 1 0 0 0 9 6 L 9 10 A 1 1 0 0 0 10 11 A 1 1 0 0 0 11 10 L 11 6 A 1 1 0 0 0 10 5 z M 13 5 A 1 1 0 0 0 12 6 L 12 15.957031 C 12 16.438531 11.994596 16.780412 11.972656 16.947266 C 11.971509 16.955974 11.969773 16.963248 11.96875 16.970703 C 11.96601 16.971081 11.963841 16.972258 11.960938 16.972656 C 11.804238 16.994168 11.4715 17 11 17 L 10 17 A 1 1 0 0 0 9 18 A 1 1 0 0 0 10 19 L 11 19 C 11.4715 19 11.844619 19.006395 12.232422 18.953125 C 12.620225 18.899885 13.087897 18.741208 13.421875 18.400391 C 13.755992 18.059432 13.90381 17.59813 13.955078 17.208984 C 14.006346 16.819833 14 16.438531 14 15.957031 L 14 15 L 21 15 A 1.0001 1.0001 0 0 0 21.765625 13.357422 C 20.895237 12.320423 20.103312 11.520355 19.341797 10.949219 C 18.580282 10.378083 17.831382 10 17 10 A 1 1 0 0 0 16 11 A 1 1 0 0 0 17 12 C 17.156618 12 17.568806 12.121917 18.140625 12.550781 C 18.263367 12.642841 18.454549 12.882964 18.589844 13 L 14 13 L 14 6 A 1 1 0 0 0 13 5 z " fill="currentColor"/>
</svg>
