<svg xmlns="http://www.w3.org/2000/svg" width="1em" height="1em" viewBox="0 0 24 24" fill="currentColor">
  <path d="M 10.677734 3.0058594 C 9.6663451 3.0058594 8.6540456 3.3896923 7.8886719 4.15625 C 6.3588562 5.6890772 6.3588562 8.2015478 7.8886719 9.734375 L 9.2285156 11.148438 L 7.3710938 13.007812 C 5.5535188 14.828442 5.5535188 17.808277 7.3710938 19.628906 C 9.1887976 21.448546 12.168624 21.448546 13.986328 19.628906 A 1.0001 1.0001 0 0 0 13.998047 19.617188 L 15.642578 17.914062 L 18.273438 20.6875 A 1 1 0 0 0 19.6875 20.726562 A 1 1 0 0 0 19.726562 19.3125 L 17.035156 16.474609 L 19.71875 13.695312 A 1 1 0 0 0 19.695312 12.28125 A 1 1 0 0 0 18.28125 12.304688 L 15.65625 15.019531 L 12.017578 11.183594 L 13.464844 9.734375 C 14.994659 8.2015478 14.994659 5.6890772 13.464844 4.15625 C 12.69947 3.3896923 11.689124 3.0058594 10.677734 3.0058594 z M 10.677734 4.9941406 C 11.172591 4.9941406 11.667647 5.1865857 12.050781 5.5703125 C 12.818033 6.3390751 12.818033 7.553503 12.050781 8.3222656 L 10.642578 9.7324219 L 9.3222656 8.3398438 A 1.0001 1.0001 0 0 0 9.3046875 8.3222656 C 8.5374353 7.553503 8.5374353 6.3390751 9.3046875 5.5703125 C 9.6878217 5.1865857 10.182878 4.9941406 10.677734 4.9941406 z M 10.603516 12.599609 L 14.265625 16.460938 L 12.570312 18.214844 C 11.517031 19.269247 9.8384373 19.269247 8.7851562 18.214844 C 7.7303983 17.158313 7.7303983 15.478406 8.7851562 14.421875 L 10.603516 12.599609 z " fill="currentColor"/>
</svg>
