<svg xmlns="http://www.w3.org/2000/svg" width="1em" height="1em" viewBox="0 0 24 24" fill="currentColor">
  <path d="M 3 2 A 1 1 0 0 0 2.2929688 2.2929688 A 1 1 0 0 0 2.2929688 3.7070312 L 11 12.414062 L 11 19.9375 C 10.528552 19.863767 10.063873 19.743576 9.6132812 19.580078 C 7.2978989 18.739937 5.4270554 16.786882 5.0644531 13.998047 A 1 1 0 0 0 6 13 A 1 1 0 0 0 5 12 L 3 12 A 1 1 0 0 0 2 13 A 1 1 0 0 0 3 14 L 3.0527344 14 C 3.4382591 17.651668 5.9114515 20.363812 8.9296875 21.458984 C 9.8533945 21.794153 10.836786 21.960437 11.830078 21.984375 A 1 1 0 0 0 12 22 A 1 1 0 0 0 12.136719 21.990234 C 14.263396 21.969691 16.42028 21.218257 18.15625 19.570312 L 20.292969 21.707031 A 1 1 0 0 0 21.707031 21.707031 A 1 1 0 0 0 21.707031 20.292969 L 18.914062 17.5 A 1 1 0 0 0 18.779297 17.363281 A 1 1 0 0 0 18.767578 17.353516 L 12.716797 11.302734 A 1 1 0 0 0 12.697266 11.283203 L 3.7070312 2.2929688 A 1 1 0 0 0 3 2 z M 11.904297 2.0273438 C 10.277945 2.0813965 8.7009917 3.099095 8.171875 4.8339844 A 1 1 0 0 0 8.8378906 6.0820312 A 1 1 0 0 0 10.085938 5.4179688 C 10.539594 3.9305003 12.315936 3.4868253 13.414062 4.5878906 C 14.512189 5.688956 14.064847 7.4663355 12.576172 7.9160156 A 1 1 0 0 0 11.908203 9.1621094 A 1 1 0 0 0 13.154297 9.8300781 C 16.003605 8.9693953 16.931906 5.2832335 14.830078 3.1757812 C 14.304621 2.6489181 13.680284 2.3122796 13.025391 2.1464844 C 12.657013 2.0532246 12.279609 2.01487 11.904297 2.0273438 z M 19 12 A 1 1 0 0 0 18 13 A 1 1 0 0 0 18.929688 13.998047 C 18.868919 14.423269 18.768921 14.842227 18.630859 15.25 A 1 1 0 0 0 19.257812 16.517578 A 1 1 0 0 0 20.525391 15.890625 C 20.733414 15.276214 20.874036 14.642475 20.945312 14 L 21 14 A 1 1 0 0 0 22 13 A 1 1 0 0 0 21 12 L 19 12 z M 13 14.414062 L 16.742188 18.15625 C 15.627433 19.208572 14.327547 19.785644 13 19.962891 L 13 14.414062 z " fill="currentColor"/>
</svg>
