<svg xmlns="http://www.w3.org/2000/svg" width="1em" height="1em" viewBox="0 0 24 24" fill="currentColor">
  <path d="M 18 5 A 1 1 0 0 0 17 6 L 17 18 A 1 1 0 0 0 18 19 A 1 1 0 0 0 19 18 L 19 6 A 1 1 0 0 0 18 5 z M 14 8 A 1 1 0 0 0 13 9 L 13 18 A 1 1 0 0 0 14 19 A 1 1 0 0 0 15 18 L 15 9 A 1 1 0 0 0 14 8 z M 10 11 A 1 1 0 0 0 9 12 L 9 18 A 1 1 0 0 0 10 19 A 1 1 0 0 0 11 18 L 11 12 A 1 1 0 0 0 10 11 z M 6 14 A 1 1 0 0 0 5 15 L 5 18 A 1 1 0 0 0 6 19 A 1 1 0 0 0 7 18 L 7 15 A 1 1 0 0 0 6 14 z " fill="currentColor"/>
</svg>
