<svg xmlns="http://www.w3.org/2000/svg" width="1em" height="1em" viewBox="0 0 24 24" fill="currentColor">
  <path d="M 12 2 C 6.4889982 2 2 6.4889941 2 12 C 2 17.511006 6.4889982 22 12 22 C 17.511002 22 22 17.511006 22 12 C 22 6.4889941 17.511002 2 12 2 z M 12 4 C 13.161517 4 14.263401 4.2455385 15.257812 4.6875 L 8.9980469 9.2363281 L 7.7011719 5.2441406 C 8.9412853 4.4553673 10.416151 4 12 4 z M 17.095703 5.8242188 C 18.870983 7.289553 20 9.5092932 20 12 C 20 12.282745 19.98541 12.562859 19.957031 12.837891 L 13.701172 8.2910156 L 17.095703 5.8242188 z M 6.0527344 6.640625 L 8.4433594 14 L 4.25 14 C 4.086568 13.36112 4 12.691025 4 12 C 4 9.9350208 4.7758979 8.0573759 6.0527344 6.640625 z M 12 9.5273438 L 14.351562 11.234375 L 13.453125 14 L 10.546875 14 L 9.6484375 11.236328 L 12 9.5273438 z M 16.052734 12.470703 L 19.447266 14.9375 C 18.476444 17.407575 16.314019 19.271223 13.662109 19.828125 L 16.052734 12.470703 z M 5.0644531 16 L 12.802734 16 L 11.509766 19.984375 L 11.507812 19.984375 C 8.7445322 19.818314 6.3676685 18.261223 5.0644531 16 z " fill="currentColor"/>
</svg>
