<svg xmlns="http://www.w3.org/2000/svg" width="1em" height="1em" viewBox="0 0 24 24" fill="currentColor">
  <path d="M 11.914062 1.9667969 C 11.52066 1.9713441 11.123784 2.0004992 10.724609 2.0546875 C 9.6601435 2.1991897 8.5815412 2.5242012 7.5175781 3.0585938 A 1 1 0 0 0 7.0722656 4.4023438 A 1 1 0 0 0 8.4140625 4.8457031 C 10.844415 3.6250195 13.271106 3.7267801 15.287109 4.6660156 L 11.591797 7.3535156 A 1 1 0 0 0 11.421875 7.5117188 A 1 1 0 0 0 11.214844 7.7207031 A 1 1 0 0 0 11.435547 9.1171875 L 14.371094 11.25 A 1 1 0 0 0 15.054688 12.306641 A 1 1 0 0 0 15.771484 12.267578 L 19.447266 14.9375 L 19.447266 14.939453 C 19.35743 15.159588 19.257761 15.379154 19.146484 15.599609 A 1 1 0 0 0 19.589844 16.943359 A 1 1 0 0 0 20.933594 16.501953 C 23.079611 12.250354 21.892025 7.7452624 19.083984 4.9316406 C 17.241208 3.0852014 14.667877 1.9349661 11.914062 1.9667969 z M 3 2 A 1 1 0 0 0 2.2929688 2.2929688 A 1 1 0 0 0 2.2929688 3.7070312 L 4.2558594 5.6699219 C 1.0470756 9.5904552 1.2697664 15.406886 4.9238281 19.066406 C 8.5812163 22.729258 14.404634 22.956382 18.330078 19.744141 L 20.292969 21.707031 A 1 1 0 0 0 21.707031 21.707031 A 1 1 0 0 0 21.707031 20.292969 L 6.4335938 5.0195312 A 1 1 0 0 0 6.3496094 4.9238281 A 1 1 0 0 0 6.2519531 4.8378906 L 3.7070312 2.2929688 A 1 1 0 0 0 3 2 z M 17.099609 5.8222656 C 17.296501 5.9871054 17.486149 6.1615685 17.667969 6.34375 C 19.339369 8.0184736 20.307656 10.354446 19.996094 12.865234 L 13.701172 8.2929688 L 17.099609 5.8222656 z M 5.6796875 7.09375 L 6.4492188 7.8632812 L 8.4433594 14 L 4.2480469 14 C 3.6422648 11.655794 4.12011 9.0944324 5.6796875 7.09375 z M 9.75 11.164062 L 12.585938 14 L 10.546875 14 L 9.6484375 11.236328 L 9.75 11.164062 z M 5.0683594 16 L 12.804688 16 L 11.505859 19.992188 C 9.6262265 19.875655 7.7803713 19.095023 6.3398438 17.652344 C 5.8343457 17.146091 5.4104442 16.58993 5.0683594 16 z M 14.826172 16.240234 L 16.908203 18.322266 C 15.929607 19.085136 14.815882 19.58919 13.660156 19.833984 L 14.826172 16.240234 z " fill="currentColor"/>
</svg>
