<svg xmlns="http://www.w3.org/2000/svg" width="1em" height="1em" viewBox="0 0 24 24" fill="currentColor">
  <path d="M 3 2 A 1 1 0 0 0 2.2929688 2.2929688 A 1 1 0 0 0 2.2929688 3.7070312 L 5.6757812 7.0898438 C 5.1125788 7.214742 4.5724919 7.4722383 4.1171875 7.8769531 C 3.4422556 8.4768923 3 9.4166669 3 10.5 L 3 16 A 1 1 0 0 0 4 17 A 1 1 0 0 0 5 16 L 5 14 L 8 14 L 8 16 A 1 1 0 0 0 9 17 A 1 1 0 0 0 10 16 L 10 11.414062 L 11 12.414062 L 11 13 L 11 16 A 1 1 0 0 0 12 17 A 1 1 0 0 0 13 16 L 13 14.414062 L 20.292969 21.707031 A 1 1 0 0 0 21.707031 21.707031 A 1 1 0 0 0 21.707031 20.292969 L 13.716797 12.302734 A 1 1 0 0 0 13.697266 12.283203 L 12.716797 11.302734 A 1 1 0 0 0 12.697266 11.283203 L 3.7070312 2.2929688 A 1 1 0 0 0 3 2 z M 12 7 A 1 1 0 0 0 11 8 A 1 1 0 0 0 12 9 L 15 9 C 15.564129 9 16 9.4358706 16 10 L 16 11 C 16 11.283242 15.888073 11.525042 15.705078 11.707031 A 1 1 0 0 0 15.701172 13.123047 A 1 1 0 0 0 17.115234 13.126953 C 17.660234 12.584948 18 11.824758 18 11 L 18 10 C 18 8.3549904 16.64501 7 15 7 L 12 7 z M 20 7 A 1 1 0 0 0 19 8 L 19 16 A 1 1 0 0 0 20 17 A 1 1 0 0 0 21 16 L 21 8 A 1 1 0 0 0 20 7 z M 6.5 9 C 6.9027779 9 7.2921194 9.1396531 7.5546875 9.3730469 C 7.8172556 9.6064406 8 9.9166671 8 10.5 L 8 12 L 5 12 L 5 10.5 C 5 9.9166671 5.1827444 9.6064406 5.4453125 9.3730469 C 5.7078806 9.1396531 6.0972221 9 6.5 9 z " fill="currentColor"/>
</svg>
