<svg xmlns="http://www.w3.org/2000/svg" width="1em" height="1em" viewBox="0 0 24 24" fill="currentColor">
  <path d="M 11.5 2 C 10.652778 2 9.7921194 2.2770139 9.1171875 2.8769531 C 8.4422556 3.4768923 8 4.4166669 8 5.5 L 8 12 A 1 1 0 0 0 9 13 A 1 1 0 0 0 10 12 L 10 5.5 C 10 4.9166671 10.182744 4.6064406 10.445312 4.3730469 C 10.70788 4.1396531 11.097222 4 11.5 4 C 11.902778 4 12.292119 4.1396531 12.554688 4.3730469 C 12.817255 4.6064406 13 4.9166671 13 5.5 L 13 6 A 1 1 0 0 0 14 7 A 1 1 0 0 0 15 6 L 15 5.5 C 15 4.4166669 14.557744 3.4768923 13.882812 2.8769531 C 13.20788 2.2770139 12.347222 2 11.5 2 z M 12 8 A 1 1 0 0 0 11 9 A 1 1 0 0 0 12 10 L 18.5 10 C 19.083333 10 19.393559 10.182744 19.626953 10.445312 C 19.860347 10.70788 20 11.097222 20 11.5 C 20 11.902778 19.860347 12.292119 19.626953 12.554688 C 19.393559 12.817255 19.083333 13 18.5 13 L 18 13 A 1 1 0 0 0 17 14 A 1 1 0 0 0 18 15 L 18.5 15 C 19.583333 15 20.523108 14.557744 21.123047 13.882812 C 21.722986 13.20788 22 12.347222 22 11.5 C 22 10.652778 21.722986 9.7921194 21.123047 9.1171875 C 20.523108 8.4422556 19.583333 8 18.5 8 L 12 8 z M 5.5 9 C 4.4166669 9 3.4768923 9.4422551 2.8769531 10.117188 C 2.2770139 10.792118 2 11.652778 2 12.5 C 2 13.347222 2.2770139 14.20788 2.8769531 14.882812 C 3.4768923 15.557743 4.4166669 16 5.5 16 L 12 16 A 1 1 0 0 0 13 15 A 1 1 0 0 0 12 14 L 5.5 14 C 4.9166671 14 4.6064406 13.817256 4.3730469 13.554688 C 4.1396531 13.292118 4 12.902778 4 12.5 C 4 12.097222 4.1396531 11.70788 4.3730469 11.445312 C 4.6064406 11.182743 4.9166671 11 5.5 11 L 6 11 A 1 1 0 0 0 7 10 A 1 1 0 0 0 6 9 L 5.5 9 z M 15 11 A 1 1 0 0 0 14 12 L 14 18.5 C 14 19.083333 13.817256 19.393559 13.554688 19.626953 C 13.292118 19.860347 12.902778 20 12.5 20 C 12.097222 20 11.70788 19.860347 11.445312 19.626953 C 11.182743 19.393559 11 19.083333 11 18.5 L 11 18 A 1 1 0 0 0 10 17 A 1 1 0 0 0 9 18 L 9 18.5 C 9 19.583333 9.4422551 20.523108 10.117188 21.123047 C 10.792118 21.722986 11.652778 22 12.5 22 C 13.347222 22 14.20788 21.722986 14.882812 21.123047 C 15.557743 20.523108 16 19.583333 16 18.5 L 16 12 A 1 1 0 0 0 15 11 z " fill="currentColor"/>
</svg>
