<svg xmlns="http://www.w3.org/2000/svg" width="1em" height="1em" viewBox="0 0 24 24" fill="currentColor">
  <path d="M 3 2 A 1 1 0 0 0 2.2929688 2.2929688 A 1 1 0 0 0 2.2929688 3.7070312 L 3.0683594 4.4824219 C 3.0237889 4.6486048 3 4.8224395 3 5 L 3 9 C 3 10.092725 3.9072751 11 5 11 L 9 11 C 9.1762518 10.999965 9.350128 10.97656 9.5175781 10.931641 L 13.068359 14.482422 C 13.023789 14.648605 13 14.822439 13 15 L 13 19 C 13 20.092725 13.907275 21 15 21 L 19 21 C 19.176252 20.999965 19.350128 20.97656 19.517578 20.931641 L 20.292969 21.707031 A 1 1 0 0 0 21.707031 21.707031 A 1 1 0 0 0 21.707031 20.292969 L 20.478516 19.064453 A 1 1 0 0 0 20.414062 18.994141 A 1 1 0 0 0 20.349609 18.935547 L 15.005859 13.591797 A 1 1 0 0 0 15 13.585938 A 1 1 0 0 0 14.994141 13.580078 L 10.478516 9.0644531 A 1 1 0 0 0 10.414062 8.9941406 A 1 1 0 0 0 10.349609 8.9355469 L 5 3.5859375 A 1 1 0 0 0 4.9980469 3.5839844 L 3.7070312 2.2929688 A 1 1 0 0 0 3 2 z M 8 3 A 1 1 0 0 0 7 4 A 1 1 0 0 0 8 5 L 9 5 L 9 6 A 1 1 0 0 0 10 7 A 1 1 0 0 0 11 6 L 11 5 C 11 3.9072751 10.092725 3 9 3 L 8 3 z M 17 3 A 1 1 0 0 0 16 4 L 16 6 L 14 6 A 1 1 0 0 0 13 7 A 1 1 0 0 0 14 8 L 16 8 L 16 10 A 1 1 0 0 0 17 11 A 1 1 0 0 0 18 10 L 18 8 L 20 8 A 1 1 0 0 0 21 7 A 1 1 0 0 0 20 6 L 18 6 L 18 4 A 1 1 0 0 0 17 3 z M 5 6.4140625 L 7.5859375 9 L 5 9 L 5 6.4140625 z M 5 13 C 3.9072751 13 3 13.907275 3 15 L 3 19 C 3 20.092725 3.9072751 21 5 21 L 9 21 C 10.092725 21 11 20.092725 11 19 L 11 15 C 11 13.907275 10.092725 13 9 13 L 5 13 z M 18 13 A 1 1 0 0 0 17 14 A 1 1 0 0 0 18 15 L 19 15 L 19 16 A 1 1 0 0 0 20 17 A 1 1 0 0 0 21 16 L 21 15 C 21 13.907275 20.092725 13 19 13 L 18 13 z M 5 15 L 9 15 L 9 19 L 5 19 L 5 15 z M 15 16.414062 L 17.585938 19 L 15 19 L 15 16.414062 z " fill="currentColor"/>
</svg>
