<svg xmlns="http://www.w3.org/2000/svg" width="1em" height="1em" viewBox="0 0 24 24" fill="currentColor">
  <path d="M 3 2 A 1 1 0 0 0 2.2929688 2.2929688 A 1 1 0 0 0 2.2929688 3.7070312 L 4.0371094 5.4511719 C 4.0122359 5.6327455 3.999875 5.8161085 4 6 L 4 9.1269531 C 3.341091 9.2952673 2.7073064 9.6364436 2.171875 10.171875 C 0.94201277 11.401737 0.73292375 13.150711 1.3046875 14.53125 C 1.7513196 15.609656 2.7797775 16.343108 4 16.685547 L 4 19 A 1.0001 1.0001 0 0 0 5 20 L 6 20 L 6 21 A 1 1 0 0 0 7 22 A 1 1 0 0 0 8 21 L 8 20 L 16 20 L 16 21 A 1 1 0 0 0 17 22 A 1 1 0 0 0 18 21 L 18 20 L 18.585938 20 L 20.292969 21.707031 A 1 1 0 0 0 21.707031 21.707031 A 1 1 0 0 0 21.707031 20.292969 L 19.716797 18.302734 A 1 1 0 0 0 19.697266 18.283203 L 12.716797 11.302734 A 1 1 0 0 0 12.697266 11.283203 L 5.8574219 4.4453125 L 3.7070312 2.2929688 A 1 1 0 0 0 3 2 z M 8 2 C 7.618046 2 7.2419803 2.0520854 6.8828125 2.1582031 A 1 1 0 0 0 6.2070312 3.4003906 A 1 1 0 0 0 7.4492188 4.0761719 C 7.6180511 4.0262896 7.801954 4 8 4 L 16 4 C 17.116414 4 18 4.8835859 18 6 L 18 9.1582031 C 16.715032 9.4918778 15.589191 10.438312 15.166016 11.859375 A 1 1 0 0 0 15.837891 13.103516 A 1 1 0 0 0 17.082031 12.429688 C 17.339665 11.564531 18.04523 11.049324 18.808594 10.982422 A 1 1 0 0 0 19 11 A 1 1 0 0 0 19.177734 10.984375 C 19.613346 11.028797 20.046333 11.221291 20.408203 11.580078 C 21.513183 12.675644 21.073442 14.455256 19.585938 14.912109 A 1 1 0 0 0 18.923828 16.162109 A 1 1 0 0 0 20.173828 16.824219 C 23.020679 15.949874 23.93119 12.256923 21.816406 10.160156 C 21.28771 9.6359649 20.660063 9.3026286 20.003906 9.140625 C 20.002604 9.1403036 20.001302 9.1409451 20 9.140625 L 20 6 C 20 3.8027056 18.197294 2 16 2 L 8 2 z M 6 7.4140625 L 9.5859375 11 L 8.4648438 11 C 8.0154552 10.225767 7.3217133 9.6320655 6.53125 9.3046875 C 6.3593206 9.2334813 6.1816631 9.1734905 6 9.1269531 L 6 7.4140625 z M 4.8554688 10.990234 A 1 1 0 0 0 5 11 A 1 1 0 0 0 5.1191406 10.992188 C 5.3394432 11.010039 5.5569198 11.065906 5.765625 11.152344 C 6.4732426 11.44541 7 12.066535 7 13 L 7 15 A 1 1 0 0 0 8 16 A 1 1 0 0 0 9 15 L 9 13 L 11.585938 13 L 16.585938 18 L 6 18 L 6 16 A 1.0001 1.0001 0 0 0 5 15 C 4.0665347 15 3.4454103 14.473243 3.1523438 13.765625 C 2.859277 13.058007 2.9260028 12.245871 3.5859375 11.585938 C 3.9741461 11.197729 4.4141823 11.015407 4.8554688 10.990234 z " fill="currentColor"/>
</svg>
