<svg xmlns="http://www.w3.org/2000/svg" width="1em" height="1em" viewBox="0 0 24 24" fill="currentColor">
  <path d="M 12 3 A 1 1 0 0 0 11.617188 3.0761719 A 1 1 0 0 0 11.611328 3.078125 A 1 1 0 0 0 11.5 3.1347656 A 1 1 0 0 0 11.439453 3.1757812 A 1 1 0 0 0 11.384766 3.2128906 A 1 1 0 0 0 11.382812 3.2128906 A 1 1 0 0 0 11.380859 3.2148438 A 1 1 0 0 0 11.341797 3.25 A 1 1 0 0 0 11.292969 3.2929688 A 1 1 0 0 0 11.289062 3.296875 A 1 1 0 0 0 11.283203 3.3027344 L 7.2929688 7.2929688 A 1 1 0 0 0 7.2929688 8.7070312 A 1 1 0 0 0 8.7070312 8.7070312 L 11 6.4140625 L 11 14 A 1 1 0 0 0 12 15 A 1 1 0 0 0 13 14 L 13 6.4140625 L 15.292969 8.7070312 A 1 1 0 0 0 16.707031 8.7070312 A 1 1 0 0 0 16.707031 7.2929688 L 12.716797 3.3027344 A 1 1 0 0 0 12.707031 3.2929688 A 1 1 0 0 0 12.617188 3.2128906 A 1 1 0 0 0 12.615234 3.2128906 A 1 1 0 0 0 12.560547 3.1757812 A 1 1 0 0 0 12.537109 3.1601562 A 1 1 0 0 0 12.382812 3.0761719 A 1 1 0 0 0 12.371094 3.0722656 A 1 1 0 0 0 12.263672 3.0351562 A 1 1 0 0 0 12 3 z M 4 19 A 1 1 0 0 0 3 20 A 1 1 0 0 0 4 21 L 20 21 A 1 1 0 0 0 21 20 A 1 1 0 0 0 20 19 L 4 19 z " fill="currentColor"/>
</svg>
