<svg xmlns="http://www.w3.org/2000/svg" width="1em" height="1em" viewBox="0 0 24 24" fill="currentColor">
  <path d="M 3 2 A 1 1 0 0 0 2.2929688 2.2929688 A 1 1 0 0 0 2.2929688 3.7070312 L 6.5859375 8 L 5 8 A 1 1 0 0 0 4 9 A 1 1 0 0 0 5 10 L 9 10 A 1.0001 1.0001 0 0 0 9.3828125 9.9238281 A 1 1 0 0 0 9.7070312 9.7070312 A 1 1 0 0 0 9.7929688 9.609375 A 1.0001 1.0001 0 0 0 10 9 L 10 5 A 1 1 0 0 0 9 4 A 1 1 0 0 0 8 5 L 8 6.5859375 L 3.7070312 2.2929688 A 1 1 0 0 0 3 2 z M 21 2 A 1 1 0 0 0 20.292969 2.2929688 L 16 6.5859375 L 16 5 A 1 1 0 0 0 15 4 A 1 1 0 0 0 14 5 L 14 9 A 1 1 0 0 0 14.007812 9.1308594 A 1.0001 1.0001 0 0 0 14.076172 9.3828125 A 1 1 0 0 0 14.292969 9.7070312 A 1 1 0 0 0 14.617188 9.9238281 A 1.0001 1.0001 0 0 0 14.869141 9.9921875 A 1 1 0 0 0 15 10 L 19 10 A 1 1 0 0 0 20 9 A 1 1 0 0 0 19 8 L 17.414062 8 L 21.707031 3.7070312 A 1 1 0 0 0 21.707031 2.2929688 A 1 1 0 0 0 21 2 z M 5 14 A 1 1 0 0 0 4 15 A 1 1 0 0 0 5 16 L 6.5859375 16 L 2.2929688 20.292969 A 1 1 0 0 0 2.2929688 21.707031 A 1 1 0 0 0 3.7070312 21.707031 L 8 17.414062 L 8 19 A 1 1 0 0 0 9 20 A 1 1 0 0 0 10 19 L 10 15 A 1.0001 1.0001 0 0 0 9 14 L 5 14 z M 15 14 A 1.0001 1.0001 0 0 0 14.869141 14.007812 A 1 1 0 0 0 14.292969 14.292969 A 1 1 0 0 0 14.076172 14.617188 A 1.0001 1.0001 0 0 0 14.007812 14.869141 A 1 1 0 0 0 14 15 L 14 19 A 1 1 0 0 0 15 20 A 1 1 0 0 0 16 19 L 16 17.414062 L 20.292969 21.707031 A 1 1 0 0 0 21.707031 21.707031 A 1 1 0 0 0 21.707031 20.292969 L 17.414062 16 L 19 16 A 1 1 0 0 0 20 15 A 1 1 0 0 0 19 14 L 15 14 z " fill="currentColor"/>
</svg>
