<svg xmlns="http://www.w3.org/2000/svg" width="1em" height="1em" viewBox="0 0 24 24" fill="currentColor">
  <path d="M 7.8046875 3 C 7.5180365 3.0083742 7.2309597 3.037833 6.9453125 3.0878906 C 5.8027238 3.2881211 4.6877098 3.8279152 3.7578125 4.7578125 C 1.898018 6.617607 1.5969907 9.2202832 2.4570312 11.296875 C 3.2012003 13.093692 4.8683141 14.484792 7 14.845703 L 7 21 A 1 1 0 0 0 8 22 A 1 1 0 0 0 9 21 L 9 14 A 1.0001 1.0001 0 0 0 8 13 C 6.1755679 13 4.886031 11.93492 4.3046875 10.53125 C 3.723344 9.12758 3.882008 7.461742 5.171875 6.171875 C 6.461742 4.882008 8.12758 4.723344 9.53125 5.3046875 C 10.93492 5.886031 12 7.1755679 12 9 A 1.0001 1.0001 0 0 0 13 10 L 18.585938 10 L 16.292969 12.292969 A 1 1 0 0 0 16.292969 13.707031 A 1 1 0 0 0 17.707031 13.707031 L 21.697266 9.7167969 A 1 1 0 0 0 21.707031 9.7070312 A 1.0001 1.0001 0 0 0 21.785156 9.6191406 A 1 1 0 0 0 21.792969 9.609375 A 1.0001 1.0001 0 0 0 21.861328 9.5078125 A 1 1 0 0 0 21.865234 9.5 A 1.0001 1.0001 0 0 0 21.921875 9.3886719 A 1 1 0 0 0 21.923828 9.3828125 A 1 1 0 0 0 21.964844 9.2578125 A 1.0001 1.0001 0 0 0 21.976562 9.2050781 A 1.0001 1.0001 0 0 0 22 9 A 1.0001 1.0001 0 0 0 21.976562 8.7949219 A 1.0001 1.0001 0 0 0 21.964844 8.7421875 A 1 1 0 0 0 21.923828 8.6171875 A 1.0001 1.0001 0 0 0 21.921875 8.6113281 A 1 1 0 0 0 21.865234 8.5 A 1.0001 1.0001 0 0 0 21.861328 8.4921875 A 1 1 0 0 0 21.792969 8.390625 A 1.0001 1.0001 0 0 0 21.785156 8.3808594 A 1 1 0 0 0 21.707031 8.2929688 L 21.697266 8.2832031 L 17.707031 4.2929688 A 1 1 0 0 0 16.292969 4.2929688 A 1 1 0 0 0 16.292969 5.7070312 L 18.585938 8 L 13.845703 8 C 13.484792 5.8683141 12.093692 4.2012004 10.296875 3.4570312 C 9.5181531 3.134516 8.6646404 2.9748774 7.8046875 3 z " fill="currentColor"/>
</svg>
