<svg xmlns="http://www.w3.org/2000/svg" width="1em" height="1em" viewBox="0 0 24 24" fill="currentColor">
  <path d="M 4 3 A 1 1 0 0 0 3.2929688 3.2929688 A 1 1 0 0 0 3.2929688 4.7070312 L 17.585938 19 L 16 19 A 1 1 0 0 0 15 20 A 1 1 0 0 0 16 21 L 20 21 A 1.0001 1.0001 0 0 0 20.130859 20.992188 A 1.0001 1.0001 0 0 0 20.382812 20.923828 A 1 1 0 0 0 20.707031 20.707031 A 1 1 0 0 0 20.792969 20.609375 A 1.0001 1.0001 0 0 0 20.923828 20.382812 A 1.0001 1.0001 0 0 0 20.992188 20.130859 A 1.0001 1.0001 0 0 0 21 20 L 21 16 A 1 1 0 0 0 20 15 A 1 1 0 0 0 19 16 L 19 17.585938 L 4.7070312 3.2929688 A 1 1 0 0 0 4 3 z M 16 3 A 1 1 0 0 0 15 4 A 1 1 0 0 0 16 5 L 17.585938 5 L 14.292969 8.2929688 A 1 1 0 0 0 14.292969 9.7070312 A 1 1 0 0 0 15.707031 9.7070312 L 19 6.4140625 L 19 8 A 1 1 0 0 0 20 9 A 1 1 0 0 0 21 8 L 21 4 A 1.0001 1.0001 0 0 0 20.707031 3.2929688 A 1 1 0 0 0 20.382812 3.0761719 A 1.0001 1.0001 0 0 0 20 3 L 16 3 z M 9 14 A 1 1 0 0 0 8.2929688 14.292969 L 3.2929688 19.292969 A 1 1 0 0 0 3.2929688 20.707031 A 1 1 0 0 0 4.7070312 20.707031 L 9.7070312 15.707031 A 1 1 0 0 0 9.7070312 14.292969 A 1 1 0 0 0 9 14 z " fill="currentColor"/>
</svg>
