<svg xmlns="http://www.w3.org/2000/svg" width="1em" height="1em" viewBox="0 0 24 24" fill="currentColor">
  <path d="M 10.933594 3.4199219 C 10.837212 3.4234162 10.740603 3.4339717 10.644531 3.4511719 C 10.260245 3.5199725 9.88591 3.700118 9.5859375 4 L 3 10.585938 C 2.2276024 11.358567 2.2276024 12.641432 3 13.414062 L 9.5859375 20 C 10.185883 20.599764 11.081238 20.717051 11.765625 20.433594 C 12.450012 20.150137 12.999819 19.43426 13 18.585938 L 13 16 L 15 16 A 1.0001 1.0001 0 0 0 16 15 L 16 9 A 1.0001 1.0001 0 0 0 15 8 L 13 8 L 13 5.4140625 C 12.999819 4.5657401 12.450012 3.8498635 11.765625 3.5664062 C 11.50898 3.4601097 11.22274 3.4094388 10.933594 3.4199219 z M 11 5.4140625 L 11 9 A 1.0001 1.0001 0 0 0 12 10 L 14 10 L 14 14 L 12 14 A 1 1 0 0 0 11 15 L 11 18.585938 L 4.4140625 12 L 11 5.4140625 z M 18 8 A 1 1 0 0 0 17 9 L 17 15 A 1 1 0 0 0 18 16 A 1 1 0 0 0 19 15 L 19 9 A 1 1 0 0 0 18 8 z M 21 8 A 1 1 0 0 0 20 9 L 20 15 A 1 1 0 0 0 21 16 A 1 1 0 0 0 22 15 L 22 9 A 1 1 0 0 0 21 8 z " fill="currentColor"/>
</svg>
