<svg xmlns="http://www.w3.org/2000/svg" width="1em" height="1em" viewBox="0 0 24 24" fill="currentColor">
  <path d="M 12 2 C 11.277778 2 10.542119 2.2353472 9.9609375 2.7519531 C 9.3797556 3.268559 9 4.0833335 9 5 C 9 5.9166665 9.3797556 6.731441 9.9609375 7.2480469 C 10.542119 7.7646528 11.277778 8 12 8 C 12.722222 8 13.45788 7.7646528 14.039062 7.2480469 C 14.620243 6.731441 15 5.9166665 15 5 C 15 4.0833335 14.620244 3.268559 14.039062 2.7519531 C 13.45788 2.2353472 12.722222 2 12 2 z M 12 4 C 12.277778 4 12.542119 4.097986 12.710938 4.2480469 C 12.879755 4.3981073 13 4.5833337 13 5 C 13 5.4166663 12.879756 5.6018927 12.710938 5.7519531 C 12.542118 5.9020136 12.277778 6 12 6 C 11.722222 6 11.45788 5.9020136 11.289062 5.7519531 C 11.120243 5.6018927 11 5.4166663 11 5 C 11 4.5833337 11.120244 4.3981073 11.289062 4.2480469 C 11.45788 4.0979864 11.722222 4 12 4 z M 12 10 A 1 1 0 0 0 11 11 L 11 18.585938 L 9.7070312 17.292969 A 1 1 0 0 0 9 17 A 1 1 0 0 0 8.2929688 17.292969 A 1 1 0 0 0 8.2929688 18.707031 L 11.292969 21.707031 A 1.0001 1.0001 0 0 0 11.341797 21.75 A 1 1 0 0 0 11.384766 21.787109 A 1.0001 1.0001 0 0 0 11.439453 21.824219 A 1 1 0 0 0 11.492188 21.861328 A 1.0001 1.0001 0 0 0 11.5 21.865234 A 1 1 0 0 0 11.611328 21.921875 A 1.0001 1.0001 0 0 0 11.617188 21.923828 A 1 1 0 0 0 11.794922 21.976562 A 1.0001 1.0001 0 0 0 12.257812 21.964844 A 1 1 0 0 0 12.382812 21.923828 A 1.0001 1.0001 0 0 0 12.560547 21.824219 A 1 1 0 0 0 12.615234 21.787109 A 1.0001 1.0001 0 0 0 12.658203 21.75 A 1 1 0 0 0 12.716797 21.697266 L 15.707031 18.707031 A 1 1 0 0 0 15.707031 17.292969 A 1 1 0 0 0 14.292969 17.292969 L 13 18.585938 L 13 11 A 1 1 0 0 0 12 10 z " fill="currentColor"/>
</svg>
