<svg xmlns="http://www.w3.org/2000/svg" width="1em" height="1em" viewBox="0 0 24 24" fill="currentColor">
  <path d="M 6 3 A 1 1 0 0 0 5.2929688 3.2929688 L 2.2929688 6.2929688 A 1.0001 1.0001 0 0 0 2.25 6.3417969 A 1 1 0 0 0 2.2128906 6.3847656 A 1.0001 1.0001 0 0 0 2.1757812 6.4394531 A 1 1 0 0 0 2.1386719 6.4921875 A 1.0001 1.0001 0 0 0 2.1347656 6.5 A 1 1 0 0 0 2.078125 6.6113281 A 1.0001 1.0001 0 0 0 2.0761719 6.6171875 A 1 1 0 0 0 2.0234375 6.7949219 A 1.0001 1.0001 0 0 0 2.0351562 7.2578125 A 1 1 0 0 0 2.078125 7.3886719 A 1.0001 1.0001 0 0 0 2.1347656 7.5 A 1 1 0 0 0 2.1757812 7.5605469 A 1.0001 1.0001 0 0 0 2.2128906 7.6152344 A 1 1 0 0 0 2.25 7.6582031 A 1.0001 1.0001 0 0 0 2.2929688 7.7070312 A 1 1 0 0 0 2.3027344 7.7167969 L 5.2929688 10.707031 A 1 1 0 0 0 6.7070312 10.707031 A 1 1 0 0 0 6.7070312 9.2929688 L 5.4140625 8 L 10 8 A 1 1 0 0 0 11 7 A 1 1 0 0 0 10 6 L 5.4140625 6 L 6.7070312 4.7070312 A 1 1 0 0 0 6.7070312 3.2929688 A 1 1 0 0 0 6 3 z M 18 3 A 1 1 0 0 0 17.292969 3.2929688 A 1 1 0 0 0 17.292969 4.7070312 L 18.585938 6 L 14 6 A 1 1 0 0 0 13 7 A 1 1 0 0 0 14 8 L 18.585938 8 L 17.292969 9.2929688 A 1 1 0 0 0 17.292969 10.707031 A 1 1 0 0 0 18.707031 10.707031 L 21.697266 7.7167969 A 1 1 0 0 0 21.707031 7.7070312 A 1.0001 1.0001 0 0 0 21.785156 7.6191406 A 1 1 0 0 0 21.792969 7.609375 A 1.0001 1.0001 0 0 0 21.861328 7.5078125 A 1 1 0 0 0 21.865234 7.5 A 1.0001 1.0001 0 0 0 21.921875 7.3886719 A 1 1 0 0 0 21.923828 7.3828125 A 1 1 0 0 0 21.964844 7.2578125 A 1.0001 1.0001 0 0 0 21.976562 7.2050781 A 1.0001 1.0001 0 0 0 22 7 A 1.0001 1.0001 0 0 0 21.976562 6.7949219 A 1.0001 1.0001 0 0 0 21.964844 6.7421875 A 1 1 0 0 0 21.923828 6.6171875 A 1.0001 1.0001 0 0 0 21.921875 6.6113281 A 1 1 0 0 0 21.865234 6.5 A 1.0001 1.0001 0 0 0 21.861328 6.4921875 A 1 1 0 0 0 21.792969 6.390625 A 1.0001 1.0001 0 0 0 21.785156 6.3808594 A 1 1 0 0 0 21.707031 6.2929688 L 21.697266 6.2832031 L 18.707031 3.2929688 A 1 1 0 0 0 18 3 z M 6 13 C 4.3549904 13 3 14.35499 3 16 L 3 18 C 3 19.64501 4.3549904 21 6 21 L 18 21 C 19.64501 21 21 19.64501 21 18 L 21 16 C 21 14.35499 19.64501 13 18 13 L 6 13 z M 6 15 L 18 15 C 18.564129 15 19 15.435871 19 16 L 19 18 C 19 18.564129 18.564129 19 18 19 L 6 19 C 5.4358706 19 5 18.564129 5 18 L 5 16 C 5 15.435871 5.4358706 15 6 15 z " fill="currentColor"/>
</svg>
