<svg xmlns="http://www.w3.org/2000/svg" width="1em" height="1em" viewBox="0 0 24 24" fill="currentColor">
  <path d="M 16 3 C 14.75 3 13.685226 3.5047556 13.001953 4.2734375 C 12.318681 5.0421194 12 6.0277779 12 7 C 12 7.7091473 12.170427 8.4245661 12.527344 9.0585938 L 6 15.585938 L 6 13 A 1 1 0 0 0 5 12 A 1 1 0 0 0 4 13 L 4 18 A 1 1 0 0 0 4.0078125 18.130859 A 1.0001 1.0001 0 0 0 4.0761719 18.382812 A 1 1 0 0 0 4.2929688 18.707031 A 1 1 0 0 0 4.6171875 18.923828 A 1.0001 1.0001 0 0 0 4.8691406 18.992188 A 1 1 0 0 0 5 19 L 10 19 A 1 1 0 0 0 11 18 A 1 1 0 0 0 10 17 L 7.4140625 17 L 13.9375 10.476562 C 14.258789 10.657637 14.615547 10.797254 15 10.886719 L 15 20 A 1 1 0 0 0 16 21 A 1 1 0 0 0 17 20 L 17 10.886719 C 17.815163 10.697025 18.505662 10.280495 18.998047 9.7265625 C 19.681319 8.9578806 20 7.9722221 20 7 C 20 6.0277779 19.681319 5.0421194 18.998047 4.2734375 C 18.314774 3.5047556 17.25 3 16 3 z M 16 5 C 16.749999 5 17.185226 5.2452444 17.501953 5.6015625 C 17.81868 5.9578806 18 6.4722221 18 7 C 18 7.5277779 17.81868 8.0421194 17.501953 8.3984375 C 17.185226 8.7547556 16.749999 9 16 9 C 15.250001 9 14.814774 8.7547556 14.498047 8.3984375 C 14.18132 8.0421194 14 7.5277779 14 7 C 14 6.4722221 14.18132 5.9578806 14.498047 5.6015625 C 14.814774 5.2452444 15.250001 5 16 5 z " fill="currentColor"/>
</svg>
