<svg xmlns="http://www.w3.org/2000/svg" width="1em" height="1em" viewBox="0 0 24 24" fill="currentColor">
  <path d="M 18 3 A 1 1 0 0 0 17.292969 3.2929688 A 1 1 0 0 0 17.292969 4.7070312 L 18.585938 6 L 15.605469 6 C 13.647341 5.9999126 11.809507 6.9577055 10.6875 8.5625 L 10.177734 9.2929688 C 9.4288941 10.364027 8.2072679 10.999797 6.9003906 11 L 6.8964844 11 L 3 11 A 1 1 0 0 0 2 12 A 1 1 0 0 0 3 13 L 6.8964844 13 L 6.9003906 13 C 8.2052071 13.001376 9.4255492 13.637888 10.173828 14.707031 L 10.6875 15.439453 C 11.809553 17.042646 13.646674 17.999852 15.603516 18 L 18.585938 18 L 17.292969 19.292969 A 1 1 0 0 0 17.292969 20.707031 A 1 1 0 0 0 18.707031 20.707031 L 21.697266 17.716797 A 1 1 0 0 0 21.707031 17.707031 A 1.0001 1.0001 0 0 0 21.785156 17.619141 A 1 1 0 0 0 21.792969 17.609375 A 1.0001 1.0001 0 0 0 21.861328 17.507812 A 1 1 0 0 0 21.865234 17.5 A 1.0001 1.0001 0 0 0 21.921875 17.388672 A 1 1 0 0 0 21.923828 17.382812 A 1 1 0 0 0 21.964844 17.257812 A 1.0001 1.0001 0 0 0 21.976562 17.205078 A 1.0001 1.0001 0 0 0 22 17 A 1.0001 1.0001 0 0 0 21.976562 16.794922 A 1.0001 1.0001 0 0 0 21.964844 16.742188 A 1 1 0 0 0 21.923828 16.617188 A 1.0001 1.0001 0 0 0 21.921875 16.611328 A 1 1 0 0 0 21.865234 16.5 A 1.0001 1.0001 0 0 0 21.861328 16.492188 A 1 1 0 0 0 21.792969 16.390625 A 1.0001 1.0001 0 0 0 21.785156 16.380859 A 1 1 0 0 0 21.707031 16.292969 L 21.697266 16.283203 L 18.707031 13.292969 A 1 1 0 0 0 17.292969 13.292969 A 1 1 0 0 0 17.292969 14.707031 L 18.585938 16 L 15.603516 16 C 14.297218 15.999901 13.075203 15.363187 12.326172 14.292969 L 11.8125 13.560547 C 11.375962 12.936821 10.830837 12.411806 10.212891 12.001953 C 10.832501 11.591401 11.378975 11.063152 11.816406 10.4375 L 12.326172 9.7070312 C 13.075175 8.6357403 14.298308 7.9999417 15.605469 8 L 18.585938 8 L 17.292969 9.2929688 A 1 1 0 0 0 17.292969 10.707031 A 1 1 0 0 0 18.707031 10.707031 L 21.697266 7.7167969 A 1 1 0 0 0 21.707031 7.7070312 A 1.0001 1.0001 0 0 0 21.785156 7.6191406 A 1 1 0 0 0 21.792969 7.609375 A 1.0001 1.0001 0 0 0 21.861328 7.5078125 A 1 1 0 0 0 21.865234 7.5 A 1.0001 1.0001 0 0 0 21.921875 7.3886719 A 1 1 0 0 0 21.964844 7.2578125 A 1.0001 1.0001 0 0 0 21.964844 6.7421875 A 1 1 0 0 0 21.923828 6.6171875 A 1.0001 1.0001 0 0 0 21.921875 6.6113281 A 1 1 0 0 0 21.865234 6.5 A 1.0001 1.0001 0 0 0 21.861328 6.4921875 A 1 1 0 0 0 21.792969 6.390625 A 1.0001 1.0001 0 0 0 21.785156 6.3808594 A 1 1 0 0 0 21.707031 6.2929688 L 18.707031 3.2929688 A 1 1 0 0 0 18 3 z " fill="currentColor"/>
</svg>
