<svg xmlns="http://www.w3.org/2000/svg" width="1em" height="1em" viewBox="0 0 24 24" fill="currentColor">
  <path d="M 7 2 A 1 1 0 0 0 6 3 L 6 5 A 1 1 0 0 0 7 6 A 1 1 0 0 0 8 5 L 8 3 A 1 1 0 0 0 7 2 z M 17 2 A 1.0001 1.0001 0 0 0 16.794922 2.0234375 A 1 1 0 0 0 16.439453 2.1757812 A 1.0001 1.0001 0 0 0 16.384766 2.2128906 A 1 1 0 0 0 16.341797 2.25 A 1.0001 1.0001 0 0 0 16.292969 2.2929688 A 1 1 0 0 0 16.283203 2.3027344 L 13.292969 5.2929688 A 1 1 0 0 0 13.292969 6.7070312 A 1 1 0 0 0 14.707031 6.7070312 L 16 5.4140625 L 16 9 A 1 1 0 0 0 17 10 A 1 1 0 0 0 18 9 L 18 5.4140625 L 19.292969 6.7070312 A 1 1 0 0 0 20.707031 6.7070312 A 1 1 0 0 0 20.707031 5.2929688 L 17.716797 2.3027344 A 1 1 0 0 0 17.658203 2.25 A 1.0001 1.0001 0 0 0 17.615234 2.2128906 A 1 1 0 0 0 17.560547 2.1757812 A 1.0001 1.0001 0 0 0 17.5 2.1347656 A 1 1 0 0 0 17.388672 2.078125 A 1.0001 1.0001 0 0 0 17.382812 2.0761719 A 1 1 0 0 0 17.257812 2.0351562 A 1.0001 1.0001 0 0 0 17 2 z M 7 8 A 1 1 0 0 0 6 9 L 6 11 A 1 1 0 0 0 7 12 A 1 1 0 0 0 8 11 L 8 9 A 1 1 0 0 0 7 8 z M 17 12 A 1 1 0 0 0 16 13 L 16 15 A 1 1 0 0 0 17 16 A 1 1 0 0 0 18 15 L 18 13 A 1 1 0 0 0 17 12 z M 7 14 A 1 1 0 0 0 6 15 L 6 18.585938 L 4.7070312 17.292969 A 1 1 0 0 0 4 17 A 1 1 0 0 0 3.2929688 17.292969 A 1 1 0 0 0 3.2929688 18.707031 L 6.2929688 21.707031 A 1.0001 1.0001 0 0 0 6.3417969 21.75 A 1 1 0 0 0 6.3847656 21.787109 A 1.0001 1.0001 0 0 0 6.4394531 21.824219 A 1 1 0 0 0 6.4921875 21.861328 A 1.0001 1.0001 0 0 0 6.5 21.865234 A 1 1 0 0 0 6.6113281 21.921875 A 1.0001 1.0001 0 0 0 6.6171875 21.923828 A 1 1 0 0 0 6.7949219 21.976562 A 1.0001 1.0001 0 0 0 7.2578125 21.964844 A 1 1 0 0 0 7.3828125 21.923828 A 1.0001 1.0001 0 0 0 7.5605469 21.824219 A 1 1 0 0 0 7.6152344 21.787109 A 1.0001 1.0001 0 0 0 7.6582031 21.75 A 1 1 0 0 0 7.7167969 21.697266 L 10.707031 18.707031 A 1 1 0 0 0 10.707031 17.292969 A 1 1 0 0 0 9.2929688 17.292969 L 8 18.585938 L 8 15 A 1 1 0 0 0 7 14 z M 17 18 A 1 1 0 0 0 16 19 L 16 21 A 1 1 0 0 0 17 22 A 1 1 0 0 0 18 21 L 18 19 A 1 1 0 0 0 17 18 z " fill="currentColor"/>
</svg>
