<svg xmlns="http://www.w3.org/2000/svg" width="1em" height="1em" viewBox="0 0 24 24" fill="currentColor">
  <path d="M 7.7578125 4.9960938 C 7.5111228 4.9865564 7.2663604 5.0290331 7.0488281 5.1191406 C 6.4687422 5.3594273 5.9999484 5.9745824 6 6.6894531 L 6 18 A 1 1 0 0 0 7 19 A 1 1 0 0 0 8 18 L 8 7.4140625 L 15.585938 15 L 13 15 A 1 1 0 0 0 12 16 A 1 1 0 0 0 13 17 L 18 17 A 1 1 0 0 0 18.130859 16.992188 A 1.0001 1.0001 0 0 0 18.382812 16.923828 A 1 1 0 0 0 18.707031 16.707031 A 1 1 0 0 0 18.923828 16.382812 A 1.0001 1.0001 0 0 0 18.992188 16.130859 A 1 1 0 0 0 19 16 L 19 11 A 1 1 0 0 0 18 10 A 1 1 0 0 0 17 11 L 17 13.585938 L 8.9023438 5.4882812 C 8.6496116 5.2355234 8.3313927 5.0824259 8.0039062 5.0234375 C 7.9220346 5.0086904 7.8400424 4.9992729 7.7578125 4.9960938 z " fill="currentColor"/>
</svg>
