<svg xmlns="http://www.w3.org/2000/svg" width="1em" height="1em" viewBox="0 0 24 24" fill="currentColor">
  <path d="M 18 2 A 1 1 0 0 0 17 3 L 17 11.707031 A 1 1 0 0 0 18 12.707031 A 1 1 0 0 0 19 11.707031 L 19 3 A 1 1 0 0 0 18 2 z M 8 5 A 1 1 0 0 0 7.2929688 5.2929688 L 3.3027344 9.2832031 L 3.2929688 9.2929688 A 1.0001 1.0001 0 0 0 3.25 9.3417969 A 1 1 0 0 0 3.2128906 9.3847656 A 1.0001 1.0001 0 0 0 3.1757812 9.4394531 A 1 1 0 0 0 3.1386719 9.4921875 A 1.0001 1.0001 0 0 0 3.1347656 9.5 A 1 1 0 0 0 3.078125 9.6113281 A 1.0001 1.0001 0 0 0 3.0761719 9.6171875 A 1 1 0 0 0 3.0351562 9.7421875 A 1 1 0 0 0 3.0234375 9.7949219 A 1.0001 1.0001 0 0 0 3 10 A 1.0001 1.0001 0 0 0 3.0234375 10.205078 A 1.0001 1.0001 0 0 0 3.0351562 10.257812 A 1 1 0 0 0 3.0761719 10.382812 A 1 1 0 0 0 3.078125 10.388672 A 1.0001 1.0001 0 0 0 3.1347656 10.5 A 1 1 0 0 0 3.1757812 10.560547 A 1.0001 1.0001 0 0 0 3.2128906 10.615234 A 1 1 0 0 0 3.25 10.658203 A 1.0001 1.0001 0 0 0 3.2929688 10.707031 A 1 1 0 0 0 3.3027344 10.716797 L 7.2929688 14.707031 A 1 1 0 0 0 8.7070312 14.707031 A 1 1 0 0 0 8.7070312 13.292969 L 6.4140625 11 L 7 11 C 12.534534 11 17 15.465466 17 21 A 1 1 0 0 0 18 22 A 1 1 0 0 0 19 21 C 19 14.384534 13.615466 9 7 9 L 6.4140625 9 L 8.7070312 6.7070312 A 1 1 0 0 0 8.7070312 5.2929688 A 1 1 0 0 0 8 5 z " fill="currentColor"/>
</svg>
