<svg xmlns="http://www.w3.org/2000/svg" width="1em" height="1em" viewBox="0 0 24 24" fill="currentColor">
  <path d="M 9 2 A 1 1 0 0 0 8 3 A 1 1 0 0 0 9 4 L 15 4 A 1 1 0 0 0 16 3 A 1 1 0 0 0 15 2 L 9 2 z M 9 5 A 1 1 0 0 0 8 6 A 1 1 0 0 0 9 7 L 15 7 A 1 1 0 0 0 16 6 A 1 1 0 0 0 15 5 L 9 5 z M 9 8 A 1.0001 1.0001 0 0 0 8 9 L 8 11 L 5.4140625 11 C 4.5657401 11.000181 3.8498635 11.549988 3.5664062 12.234375 C 3.2829489 12.918762 3.400236 13.814116 4 14.414062 L 10.585938 21 C 11.358567 21.772398 12.641432 21.772398 13.414062 21 L 20 14.414062 C 20.599764 13.814117 20.717051 12.918762 20.433594 12.234375 C 20.150137 11.549988 19.43426 11.000181 18.585938 11 L 16 11 L 16 9 A 1.0001 1.0001 0 0 0 15 8 L 9 8 z M 10 10 L 14 10 L 14 12 A 1 1 0 0 0 15 13 L 18.585938 13 L 12 19.585938 L 5.4140625 13 L 9 13 A 1.0001 1.0001 0 0 0 10 12 L 10 10 z " fill="currentColor"/>
</svg>
