<svg xmlns="http://www.w3.org/2000/svg" width="1em" height="1em" viewBox="0 0 24 24" fill="currentColor">
  <path d="M 17.164062 3.0019531 C 16.446538 2.9807627 15.734149 3.1123961 15.085938 3.3808594 C 13.357371 4.0967615 12 5.8150815 12 8 L 12 11 L 6.4140625 11 L 8.7070312 8.7070312 A 1 1 0 0 0 8.7070312 7.2929688 A 1 1 0 0 0 8 7 A 1 1 0 0 0 7.2929688 7.2929688 L 3.3027344 11.283203 L 3.2929688 11.292969 A 1.0001 1.0001 0 0 0 3.25 11.341797 A 1 1 0 0 0 3.2128906 11.384766 A 1.0001 1.0001 0 0 0 3.1757812 11.439453 A 1 1 0 0 0 3.1386719 11.492188 A 1.0001 1.0001 0 0 0 3.1347656 11.5 A 1 1 0 0 0 3.078125 11.611328 A 1.0001 1.0001 0 0 0 3.0761719 11.617188 A 1 1 0 0 0 3.0351562 11.742188 A 1 1 0 0 0 3.0234375 11.794922 A 1.0001 1.0001 0 0 0 3 12 A 1.0001 1.0001 0 0 0 3.0234375 12.205078 A 1.0001 1.0001 0 0 0 3.0351562 12.257812 A 1 1 0 0 0 3.0761719 12.382812 A 1 1 0 0 0 3.078125 12.388672 A 1.0001 1.0001 0 0 0 3.1347656 12.5 A 1 1 0 0 0 3.1757812 12.560547 A 1.0001 1.0001 0 0 0 3.2128906 12.615234 A 1 1 0 0 0 3.25 12.658203 A 1.0001 1.0001 0 0 0 3.2929688 12.707031 A 1 1 0 0 0 3.3027344 12.716797 L 7.2929688 16.707031 A 1 1 0 0 0 8.7070312 16.707031 A 1 1 0 0 0 8.7070312 15.292969 L 6.4140625 13 L 12 13 L 12 21 A 1 1 0 0 0 13 22 A 1 1 0 0 0 14 21 L 14 13 L 17 13 C 19.184919 13 20.903238 11.642628 21.619141 9.9140625 C 22.335043 8.1854969 22.079985 6.0096721 20.535156 4.4648438 C 19.762742 3.6924296 18.833882 3.2416023 17.880859 3.0742188 C 17.642604 3.0323728 17.403237 3.0090166 17.164062 3.0019531 z M 17.09375 4.984375 C 17.235117 4.9866988 17.376702 4.9995895 17.517578 5.0234375 C 18.081083 5.1188295 18.633643 5.3914558 19.121094 5.8789062 C 20.095995 6.8538071 20.208689 8.0927937 19.771484 9.1484375 C 19.334279 10.204081 18.378949 11 17 11 L 14 11 L 14 8 C 14 6.6210513 14.795918 5.6657207 15.851562 5.2285156 C 16.247428 5.0645637 16.669648 4.9774037 17.09375 4.984375 z " fill="currentColor"/>
</svg>
