<svg xmlns="http://www.w3.org/2000/svg" width="1em" height="1em" viewBox="0 0 24 24" fill="currentColor">
  <path d="M 12 2 A 1 1 0 0 0 11 3 A 1 1 0 0 0 12 4 L 14.585938 4 L 8.7578125 9.828125 A 1.0001 1.0001 0 0 0 8.7558594 9.828125 C 7.6315651 10.952713 7.0003396 12.480114 7 14.070312 L 7 21 A 1 1 0 0 0 8 22 A 1 1 0 0 0 9 21 L 9 14.070312 C 9.0002266 13.009542 9.4218958 11.992363 10.171875 11.242188 L 16 5.4140625 L 16 8 A 1 1 0 0 0 17 9 A 1 1 0 0 0 18 8 L 18 3 A 1.0001 1.0001 0 0 0 17.992188 2.8691406 A 1.0001 1.0001 0 0 0 17.923828 2.6171875 A 1.0001 1.0001 0 0 0 17.707031 2.2929688 A 1 1 0 0 0 17.382812 2.0761719 A 1.0001 1.0001 0 0 0 17.130859 2.0078125 A 1.0001 1.0001 0 0 0 17 2 L 12 2 z " fill="currentColor"/>
</svg>
