<svg xmlns="http://www.w3.org/2000/svg" width="1em" height="1em" viewBox="0 0 24 24" fill="currentColor">
  <path d="M 18 2 A 1 1 0 0 0 17 3 L 17 9 A 1 1 0 0 0 18 10 A 1 1 0 0 0 19 9 L 19 3 A 1 1 0 0 0 18 2 z M 8 7 A 1 1 0 0 0 7.2929688 7.2929688 L 3.3027344 11.283203 L 3.2929688 11.292969 A 1.0001 1.0001 0 0 0 3.25 11.341797 A 1 1 0 0 0 3.2128906 11.384766 A 1.0001 1.0001 0 0 0 3.1757812 11.439453 A 1 1 0 0 0 3.1386719 11.492188 A 1.0001 1.0001 0 0 0 3.1347656 11.5 A 1 1 0 0 0 3.078125 11.611328 A 1.0001 1.0001 0 0 0 3.0761719 11.617188 A 1 1 0 0 0 3.0351562 11.742188 A 1 1 0 0 0 3.0234375 11.794922 A 1.0001 1.0001 0 0 0 3 12 A 1.0001 1.0001 0 0 0 3.0234375 12.205078 A 1.0001 1.0001 0 0 0 3.0351562 12.257812 A 1 1 0 0 0 3.0761719 12.382812 A 1 1 0 0 0 3.078125 12.388672 A 1.0001 1.0001 0 0 0 3.1347656 12.5 A 1 1 0 0 0 3.1757812 12.560547 A 1.0001 1.0001 0 0 0 3.2128906 12.615234 A 1 1 0 0 0 3.25 12.658203 A 1.0001 1.0001 0 0 0 3.2929688 12.707031 A 1 1 0 0 0 3.3027344 12.716797 L 7.2929688 16.707031 A 1 1 0 0 0 8.7070312 16.707031 A 1 1 0 0 0 8.7070312 15.292969 L 6.4140625 13 L 15 13 C 16.116414 13 17 13.883586 17 15 L 17 21 A 1 1 0 0 0 18 22 A 1 1 0 0 0 19 21 L 19 15 C 19 12.802706 17.197294 11 15 11 L 6.4140625 11 L 8.7070312 8.7070312 A 1 1 0 0 0 8.7070312 7.2929688 A 1 1 0 0 0 8 7 z " fill="currentColor"/>
</svg>
