<svg xmlns="http://www.w3.org/2000/svg" width="1em" height="1em" viewBox="0 0 24 24" fill="currentColor">
  <path d="M 9 2 A 1 1 0 0 0 8 3 A 1 1 0 0 0 9 4 L 11 4 L 11 18.585938 L 9.7070312 17.292969 A 1 1 0 0 0 9 17 A 1 1 0 0 0 8.2929688 17.292969 A 1 1 0 0 0 8.2929688 18.707031 L 11.292969 21.707031 A 1.0001 1.0001 0 0 0 11.341797 21.75 A 1 1 0 0 0 11.384766 21.787109 A 1.0001 1.0001 0 0 0 11.439453 21.824219 A 1 1 0 0 0 11.492188 21.861328 A 1.0001 1.0001 0 0 0 11.5 21.865234 A 1 1 0 0 0 11.611328 21.921875 A 1.0001 1.0001 0 0 0 11.617188 21.923828 A 1 1 0 0 0 11.794922 21.976562 A 1.0001 1.0001 0 0 0 12.257812 21.964844 A 1 1 0 0 0 12.382812 21.923828 A 1.0001 1.0001 0 0 0 12.560547 21.824219 A 1 1 0 0 0 12.615234 21.787109 A 1.0001 1.0001 0 0 0 12.658203 21.75 A 1 1 0 0 0 12.716797 21.697266 L 15.707031 18.707031 A 1 1 0 0 0 15.707031 17.292969 A 1 1 0 0 0 14.292969 17.292969 L 13 18.585938 L 13 4 L 15 4 A 1 1 0 0 0 16 3 A 1 1 0 0 0 15 2 L 12 2 L 9 2 z " fill="currentColor"/>
</svg>
