<svg xmlns="http://www.w3.org/2000/svg" width="1em" height="1em" viewBox="0 0 24 24" fill="currentColor">
  <path d="M 18 8 A 1 1 0 0 0 17.292969 8.2929688 A 1 1 0 0 0 17.292969 9.7070312 L 18.585938 11 L 8.4140625 11 L 6.2070312 8.7929688 A 1 1 0 0 0 5.5 8.5 A 1 1 0 0 0 4.7929688 8.7929688 L 2.2929688 11.292969 A 1.0001 1.0001 0 0 0 2.2929688 12.707031 L 4.7929688 15.207031 A 1.0001 1.0001 0 0 0 6.2070312 15.207031 L 8.4140625 13 L 18.585938 13 L 17.292969 14.292969 A 1 1 0 0 0 17.292969 15.707031 A 1 1 0 0 0 18.707031 15.707031 L 21.697266 12.716797 A 1 1 0 0 0 21.707031 12.707031 A 1.0001 1.0001 0 0 0 21.785156 12.619141 A 1 1 0 0 0 21.792969 12.609375 A 1.0001 1.0001 0 0 0 21.861328 12.507812 A 1 1 0 0 0 21.865234 12.5 A 1.0001 1.0001 0 0 0 21.921875 12.388672 A 1 1 0 0 0 21.964844 12.257812 A 1.0001 1.0001 0 0 0 21.964844 11.742188 A 1 1 0 0 0 21.923828 11.617188 A 1.0001 1.0001 0 0 0 21.921875 11.611328 A 1 1 0 0 0 21.865234 11.5 A 1.0001 1.0001 0 0 0 21.861328 11.492188 A 1 1 0 0 0 21.792969 11.390625 A 1.0001 1.0001 0 0 0 21.785156 11.380859 A 1 1 0 0 0 21.707031 11.292969 L 18.707031 8.2929688 A 1 1 0 0 0 18 8 z M 5.5 10.914062 L 6.5859375 12 L 5.5 13.085938 L 4.4140625 12 L 5.5 10.914062 z " fill="currentColor"/>
</svg>
