<svg xmlns="http://www.w3.org/2000/svg" width="1em" height="1em" viewBox="0 0 24 24" fill="currentColor">
  <path d="M 18 8 A 1 1 0 0 0 17.292969 8.2929688 A 1 1 0 0 0 17.292969 9.7070312 L 18.585938 11 L 11 11 A 1 1 0 0 0 10 12 A 1 1 0 0 0 11 13 L 18.585938 13 L 17.292969 14.292969 A 1 1 0 0 0 17.292969 15.707031 A 1 1 0 0 0 18.707031 15.707031 L 21.697266 12.716797 A 1 1 0 0 0 21.707031 12.707031 A 1.0001 1.0001 0 0 0 21.785156 12.619141 A 1 1 0 0 0 21.792969 12.609375 A 1.0001 1.0001 0 0 0 21.861328 12.507812 A 1 1 0 0 0 21.865234 12.5 A 1.0001 1.0001 0 0 0 21.921875 12.388672 A 1 1 0 0 0 21.964844 12.257812 A 1.0001 1.0001 0 0 0 21.964844 11.742188 A 1 1 0 0 0 21.923828 11.617188 A 1.0001 1.0001 0 0 0 21.921875 11.611328 A 1 1 0 0 0 21.865234 11.5 A 1.0001 1.0001 0 0 0 21.861328 11.492188 A 1 1 0 0 0 21.792969 11.390625 A 1.0001 1.0001 0 0 0 21.785156 11.380859 A 1 1 0 0 0 21.707031 11.292969 L 18.707031 8.2929688 A 1 1 0 0 0 18 8 z M 5 9 C 4.2777779 9 3.5421194 9.2353472 2.9609375 9.7519531 C 2.3797556 10.268559 2 11.083334 2 12 C 2 12.916666 2.3797556 13.731441 2.9609375 14.248047 C 3.5421194 14.764653 4.2777779 15 5 15 C 5.7222221 15 6.4578806 14.764653 7.0390625 14.248047 C 7.6202444 13.731441 8 12.916666 8 12 C 8 11.083334 7.6202444 10.268559 7.0390625 9.7519531 C 6.4578806 9.2353472 5.7222221 9 5 9 z M 5 11 C 5.2777779 11 5.5421194 11.09799 5.7109375 11.248047 C 5.8797556 11.398107 6 11.583334 6 12 C 6 12.416666 5.8797556 12.601893 5.7109375 12.751953 C 5.5421194 12.902014 5.2777779 13 5 13 C 4.7222221 13 4.4578806 12.902014 4.2890625 12.751953 C 4.1202444 12.601893 4 12.416666 4 12 C 4 11.583334 4.1202444 11.398107 4.2890625 11.248047 C 4.4578806 11.097986 4.7222221 11 5 11 z " fill="currentColor"/>
</svg>
