<svg xmlns="http://www.w3.org/2000/svg" width="1em" height="1em" viewBox="0 0 24 24" fill="currentColor">
  <path d="M 3 6 A 1 1 0 0 0 2 7 A 1 1 0 0 0 3 8 L 4.9472656 8 C 6.5351219 8 8.0211161 8.7735878 8.9316406 10.074219 C 9.482988 10.861879 10.185472 11.51373 10.984375 12 C 10.183536 12.486993 9.4795317 13.138385 8.9277344 13.927734 C 8.0189991 15.227685 6.535306 16.000023 4.9492188 16 L 3 16 A 1 1 0 0 0 2 17 A 1 1 0 0 0 3 18 L 4.9492188 18 C 7.1863016 18.000032 9.286642 16.90577 10.568359 15.072266 C 11.477095 13.772315 12.960788 12.999977 14.546875 13 L 14.550781 13 L 14.552734 13 L 18.585938 13 L 17.292969 14.292969 A 1 1 0 0 0 17.292969 15.707031 A 1 1 0 0 0 18.707031 15.707031 L 21.697266 12.716797 A 1 1 0 0 0 21.707031 12.707031 A 1.0001 1.0001 0 0 0 21.785156 12.619141 A 1 1 0 0 0 21.792969 12.609375 A 1.0001 1.0001 0 0 0 21.861328 12.507812 A 1 1 0 0 0 21.865234 12.5 A 1.0001 1.0001 0 0 0 21.921875 12.388672 A 1 1 0 0 0 21.923828 12.382812 A 1 1 0 0 0 21.964844 12.257812 A 1.0001 1.0001 0 0 0 21.976562 12.205078 A 1.0001 1.0001 0 0 0 22 12 A 1.0001 1.0001 0 0 0 21.976562 11.794922 A 1.0001 1.0001 0 0 0 21.964844 11.742188 A 1 1 0 0 0 21.923828 11.617188 A 1.0001 1.0001 0 0 0 21.921875 11.611328 A 1 1 0 0 0 21.865234 11.5 A 1.0001 1.0001 0 0 0 21.861328 11.492188 A 1 1 0 0 0 21.792969 11.390625 A 1.0001 1.0001 0 0 0 21.785156 11.380859 A 1 1 0 0 0 21.707031 11.292969 L 21.697266 11.283203 L 18.707031 8.2929688 A 1 1 0 0 0 17.292969 8.2929688 A 1 1 0 0 0 17.292969 9.7070312 L 18.585938 11 L 14.552734 11 C 12.965605 10.999881 11.478519 10.226046 10.568359 8.9257812 C 9.2848843 7.0924119 7.1854094 6 4.9472656 6 L 3 6 z " fill="currentColor"/>
</svg>
