<svg xmlns="http://www.w3.org/2000/svg" width="1em" height="1em" viewBox="0 0 24 24" fill="currentColor">
  <path d="M 16.195312 3 C 15.33536 2.9748774 14.481847 3.134516 13.703125 3.4570312 C 11.906308 4.2012004 10.515208 5.8683141 10.154297 8 L 5.4140625 8 L 7.7070312 5.7070312 A 1 1 0 0 0 7.7070312 4.2929688 A 1 1 0 0 0 7 4 A 1 1 0 0 0 6.2929688 4.2929688 L 2.3027344 8.2832031 L 2.2929688 8.2929688 A 1.0001 1.0001 0 0 0 2.25 8.3417969 A 1 1 0 0 0 2.2128906 8.3847656 A 1.0001 1.0001 0 0 0 2.1757812 8.4394531 A 1 1 0 0 0 2.1386719 8.4921875 A 1.0001 1.0001 0 0 0 2.1347656 8.5 A 1 1 0 0 0 2.078125 8.6113281 A 1.0001 1.0001 0 0 0 2.0761719 8.6171875 A 1 1 0 0 0 2.0351562 8.7421875 A 1 1 0 0 0 2.0234375 8.7949219 A 1.0001 1.0001 0 0 0 2 9 A 1.0001 1.0001 0 0 0 2.0234375 9.2050781 A 1.0001 1.0001 0 0 0 2.0351562 9.2578125 A 1 1 0 0 0 2.0761719 9.3828125 A 1 1 0 0 0 2.078125 9.3886719 A 1.0001 1.0001 0 0 0 2.1347656 9.5 A 1 1 0 0 0 2.1757812 9.5605469 A 1.0001 1.0001 0 0 0 2.2128906 9.6152344 A 1 1 0 0 0 2.25 9.6582031 A 1.0001 1.0001 0 0 0 2.2929688 9.7070312 A 1 1 0 0 0 2.3027344 9.7167969 L 6.2929688 13.707031 A 1 1 0 0 0 7.7070312 13.707031 A 1 1 0 0 0 7.7070312 12.292969 L 5.4140625 10 L 11 10 A 1.0001 1.0001 0 0 0 12 9 C 12 7.1755679 13.06508 5.886031 14.46875 5.3046875 C 15.87242 4.723344 17.538258 4.882008 18.828125 6.171875 C 20.117992 7.461742 20.276656 9.12758 19.695312 10.53125 C 19.113969 11.93492 17.824432 13 16 13 A 1.0001 1.0001 0 0 0 15 14 L 15 21 A 1 1 0 0 0 16 22 A 1 1 0 0 0 17 21 L 17 14.845703 C 19.131686 14.484792 20.7988 13.093692 21.542969 11.296875 C 22.403009 9.2202832 22.101983 6.617607 20.242188 4.7578125 C 19.31229 3.8279152 18.197276 3.2881211 17.054688 3.0878906 C 16.76904 3.037833 16.481963 3.0083742 16.195312 3 z " fill="currentColor"/>
</svg>
