<svg xmlns="http://www.w3.org/2000/svg" width="1em" height="1em" viewBox="0 0 24 24" fill="currentColor">
  <path d="M 11 5 A 1 1 0 0 0 10.292969 5.2929688 A 1 1 0 0 0 10.292969 6.7070312 L 12.585938 9 L 8 9 C 6.4166671 9 5.1018922 9.6297551 4.2519531 10.585938 C 3.402014 11.542118 3 12.777778 3 14 C 3 15.222222 3.402014 16.457881 4.2519531 17.414062 C 5.1018922 18.370244 6.4166671 19 8 19 L 9 19 A 1 1 0 0 0 10 18 A 1 1 0 0 0 9 17 L 8 17 C 6.9166674 17 6.2314405 16.629756 5.7480469 16.085938 C 5.2646532 15.542119 5 14.777778 5 14 C 5 13.222222 5.2646532 12.45788 5.7480469 11.914062 C 6.2314405 11.370243 6.9166674 11 8 11 L 12.585938 11 L 10.292969 13.292969 A 1 1 0 0 0 10.292969 14.707031 A 1 1 0 0 0 11.707031 14.707031 L 15.697266 10.716797 A 1 1 0 0 0 15.707031 10.707031 A 1.0001 1.0001 0 0 0 15.785156 10.619141 A 1 1 0 0 0 15.792969 10.609375 A 1.0001 1.0001 0 0 0 15.861328 10.507812 A 1 1 0 0 0 15.865234 10.5 A 1.0001 1.0001 0 0 0 15.921875 10.388672 A 1 1 0 0 0 15.923828 10.382812 A 1 1 0 0 0 15.964844 10.257812 A 1.0001 1.0001 0 0 0 15.976562 10.205078 A 1.0001 1.0001 0 0 0 16 10 A 1.0001 1.0001 0 0 0 15.976562 9.7949219 A 1.0001 1.0001 0 0 0 15.964844 9.7421875 A 1 1 0 0 0 15.923828 9.6171875 A 1.0001 1.0001 0 0 0 15.921875 9.6113281 A 1 1 0 0 0 15.865234 9.5 A 1.0001 1.0001 0 0 0 15.861328 9.4921875 A 1 1 0 0 0 15.792969 9.390625 A 1.0001 1.0001 0 0 0 15.785156 9.3808594 A 1 1 0 0 0 15.707031 9.2929688 L 15.697266 9.2832031 L 11.707031 5.2929688 A 1 1 0 0 0 11 5 z M 16 5 A 1 1 0 0 0 15.292969 5.2929688 A 1 1 0 0 0 15.292969 6.7070312 L 18.585938 10 L 15.292969 13.292969 A 1 1 0 0 0 15.292969 14.707031 A 1 1 0 0 0 16.707031 14.707031 L 20.707031 10.707031 A 1.0001 1.0001 0 0 0 20.707031 9.2929688 L 16.707031 5.2929688 A 1 1 0 0 0 16 5 z " fill="currentColor"/>
</svg>
