<svg xmlns="http://www.w3.org/2000/svg" width="1em" height="1em" viewBox="0 0 24 24" fill="currentColor">
  <path d="M 12 4 A 1 1 0 0 0 11 5 L 11 5.5 A 1 1 0 0 0 12 6.5 A 1 1 0 0 0 13 5.5 L 13 5 A 1 1 0 0 0 12 4 z M 12 7.5 A 1 1 0 0 0 11 8.5 L 11 10 A 1 1 0 0 0 12 11 A 1 1 0 0 0 13 10 L 13 8.5 A 1 1 0 0 0 12 7.5 z M 12 12 A 1 1 0 0 0 11 13 L 11 16.585938 L 8.7070312 14.292969 A 1 1 0 0 0 8 14 A 1 1 0 0 0 7.2929688 14.292969 A 1 1 0 0 0 7.2929688 15.707031 L 11.283203 19.697266 A 1 1 0 0 0 11.289062 19.703125 A 1 1 0 0 0 11.292969 19.707031 A 1 1 0 0 0 11.341797 19.75 A 1 1 0 0 0 11.384766 19.787109 A 1 1 0 0 0 11.439453 19.824219 A 1 1 0 0 0 11.462891 19.839844 A 1 1 0 0 0 11.492188 19.861328 A 1 1 0 0 0 11.5 19.865234 A 1 1 0 0 0 11.611328 19.921875 A 1 1 0 0 0 11.617188 19.923828 A 1 1 0 0 0 11.742188 19.964844 A 1 1 0 0 0 11.794922 19.976562 A 1 1 0 0 0 12.130859 19.992188 A 1 1 0 0 0 12.257812 19.964844 A 1 1 0 0 0 12.382812 19.923828 A 1 1 0 0 0 12.537109 19.839844 A 1 1 0 0 0 12.560547 19.824219 A 1 1 0 0 0 12.615234 19.787109 A 1 1 0 0 0 12.707031 19.707031 A 1 1 0 0 0 12.716797 19.697266 L 16.707031 15.707031 A 1 1 0 0 0 16.707031 14.292969 A 1 1 0 0 0 15.292969 14.292969 L 13 16.585938 L 13 13 A 1 1 0 0 0 12 12 z " fill="currentColor"/>
</svg>
