<svg xmlns="http://www.w3.org/2000/svg" width="1em" height="1em" viewBox="0 0 24 24" fill="currentColor">
  <path d="M 4 2 A 1.0001 1.0001 0 0 0 3 3 L 3 8 A 1 1 0 0 0 4 9 A 1 1 0 0 0 5 8 L 5 5.4140625 L 10.828125 11.242188 C 11.578104 11.992363 11.999773 13.009541 12 14.070312 L 12 21 A 1 1 0 0 0 13 22 A 1 1 0 0 0 14 21 L 14 14.070312 C 13.99966 12.480114 13.368432 10.952713 12.244141 9.828125 A 1.0001 1.0001 0 0 0 12.242188 9.828125 L 6.4140625 4 L 9 4 A 1 1 0 0 0 10 3 A 1 1 0 0 0 9 2 L 4 2 z M 20 4 A 1 1 0 0 0 19.292969 4.2929688 L 14.792969 8.7929688 A 1 1 0 0 0 14.792969 10.207031 A 1 1 0 0 0 16.207031 10.207031 L 20.707031 5.7070312 A 1 1 0 0 0 20.707031 4.2929688 A 1 1 0 0 0 20 4 z " fill="currentColor"/>
</svg>
