<svg xmlns="http://www.w3.org/2000/svg" width="1em" height="1em" viewBox="0 0 24 24" fill="currentColor">
  <path d="M 17.146484 3.9941406 C 17.048914 3.9897017 16.951366 3.9898042 16.855469 3.9960938 C 16.088287 4.0464098 15.408024 4.3966632 14.902344 4.9023438 C 14.396663 5.4080245 14.04641 6.088287 13.996094 6.8554688 C 13.96508 7.3283064 14.064969 7.8272963 14.292969 8.2929688 L 7 15.585938 L 7 14 A 1 1 0 0 0 6 13 A 1 1 0 0 0 5 14 L 5 18 A 1 1 0 0 0 5.0078125 18.130859 A 1.0001 1.0001 0 0 0 5.0761719 18.382812 A 1 1 0 0 0 5.2929688 18.707031 A 1 1 0 0 0 5.6171875 18.923828 A 1.0001 1.0001 0 0 0 5.8691406 18.992188 A 1 1 0 0 0 6 19 L 10 19 A 1 1 0 0 0 11 18 A 1 1 0 0 0 10 17 L 8.4140625 17 L 15.6875 9.7265625 C 16.157766 9.9723945 16.667036 10.083784 17.150391 10.058594 C 17.935711 10.017664 18.63079 9.6621787 19.146484 9.1464844 C 19.662179 8.6307901 20.017666 7.9357105 20.058594 7.1503906 C 20.099524 6.3650707 19.778144 5.5131059 19.109375 4.8671875 C 18.54061 4.3178563 17.829474 4.0252134 17.146484 3.9941406 z M 17.070312 5.9902344 C 17.265829 5.9927977 17.462804 6.0574869 17.71875 6.3046875 C 18.025846 6.6012904 18.07431 6.8183114 18.0625 7.0449219 C 18.05069 7.2715323 17.932063 7.5327804 17.732422 7.7324219 C 17.53278 7.9320633 17.271532 8.05069 17.044922 8.0625 C 16.818311 8.07431 16.60129 8.0258457 16.304688 7.71875 C 16.022172 7.4262403 15.977478 7.2105957 15.992188 6.9863281 C 16.006895 6.7620605 16.125091 6.5116277 16.318359 6.3183594 C 16.511628 6.1250911 16.762061 6.0068963 16.986328 5.9921875 C 17.014362 5.9903489 17.042382 5.9898682 17.070312 5.9902344 z " fill="currentColor"/>
</svg>
