<svg xmlns="http://www.w3.org/2000/svg" width="1em" height="1em" viewBox="0 0 24 24" fill="currentColor">
  <path d="M 7 4 A 1 1 0 0 0 6.7070312 4.2929688 A 1.0001 1.0001 0 0 0 6.2929688 4.2929688 L 2.2929688 8.2929688 A 1 1 0 0 0 2.2929688 9.7070312 A 1 1 0 0 0 3.7070312 9.7070312 L 6 7.4140625 L 6 19 A 1 1 0 0 0 7 20 A 1 1 0 0 0 8 19 L 8 7.4140625 L 10.292969 9.7070312 A 1 1 0 0 0 11.707031 9.7070312 A 1 1 0 0 0 11.707031 8.2929688 L 7.7070312 4.2929688 A 1.0001 1.0001 0 0 0 7.2929688 4.2929688 A 1 1 0 0 0 7 4 z M 17 4 A 1 1 0 0 0 16 5 L 16 16.585938 L 13.707031 14.292969 A 1 1 0 0 0 12.292969 14.292969 A 1 1 0 0 0 12.292969 15.707031 L 16.292969 19.707031 A 1.0001 1.0001 0 0 0 16.707031 19.707031 A 1 1 0 0 0 17 20 A 1 1 0 0 0 17.292969 19.707031 A 1.0001 1.0001 0 0 0 17.707031 19.707031 L 21.707031 15.707031 A 1 1 0 0 0 21.707031 14.292969 A 1 1 0 0 0 20.292969 14.292969 L 18 16.585938 L 18 5 A 1 1 0 0 0 17 4 z " fill="currentColor"/>
</svg>
