<svg xmlns="http://www.w3.org/2000/svg" width="1em" height="1em" viewBox="0 0 24 24" fill="currentColor">
  <path d="M 7.8359375 3.0019531 C 7.5967627 3.0090166 7.3573963 3.0323728 7.1191406 3.0742188 C 6.1661179 3.2416022 5.2372579 3.6924296 4.4648438 4.4648438 C 2.9200155 6.0096722 2.6649572 8.1854969 3.3808594 9.9140625 C 4.0967615 11.642628 5.8150815 13 8 13 L 11 13 L 11 21 A 1 1 0 0 0 12 22 A 1 1 0 0 0 13 21 L 13 13 L 18.585938 13 L 16.292969 15.292969 A 1 1 0 0 0 16.292969 16.707031 A 1 1 0 0 0 17.707031 16.707031 L 21.697266 12.716797 A 1 1 0 0 0 21.707031 12.707031 A 1.0001 1.0001 0 0 0 21.785156 12.619141 A 1 1 0 0 0 21.792969 12.609375 A 1.0001 1.0001 0 0 0 21.861328 12.507812 A 1 1 0 0 0 21.865234 12.5 A 1.0001 1.0001 0 0 0 21.921875 12.388672 A 1 1 0 0 0 21.923828 12.382812 A 1 1 0 0 0 21.964844 12.257812 A 1.0001 1.0001 0 0 0 21.976562 12.205078 A 1.0001 1.0001 0 0 0 22 12 A 1.0001 1.0001 0 0 0 21.976562 11.794922 A 1.0001 1.0001 0 0 0 21.964844 11.742188 A 1 1 0 0 0 21.923828 11.617188 A 1.0001 1.0001 0 0 0 21.921875 11.611328 A 1 1 0 0 0 21.865234 11.5 A 1.0001 1.0001 0 0 0 21.861328 11.492188 A 1 1 0 0 0 21.792969 11.390625 A 1.0001 1.0001 0 0 0 21.785156 11.380859 A 1 1 0 0 0 21.707031 11.292969 L 21.697266 11.283203 L 17.707031 7.2929688 A 1 1 0 0 0 16.292969 7.2929688 A 1 1 0 0 0 16.292969 8.7070312 L 18.585938 11 L 13 11 L 13 8 C 13 5.8150815 11.642628 4.0967615 9.9140625 3.3808594 C 9.2658504 3.1123961 8.5534618 2.9807627 7.8359375 3.0019531 z M 7.90625 4.984375 C 8.3303515 4.9774037 8.7525711 5.0645638 9.1484375 5.2285156 C 10.204081 5.6657207 11 6.6210513 11 8 L 11 11 L 8 11 C 6.6210513 11 5.6657207 10.204081 5.2285156 9.1484375 C 4.7913106 8.0927937 4.9040054 6.8538072 5.8789062 5.8789062 C 6.3663567 5.3914558 6.9189168 5.1188297 7.4824219 5.0234375 C 7.6232981 4.9995895 7.7648828 4.9866988 7.90625 4.984375 z " fill="currentColor"/>
</svg>
