<svg xmlns="http://www.w3.org/2000/svg" width="1em" height="1em" viewBox="0 0 24 24" fill="currentColor">
  <path d="M 3 2 A 1 1 0 0 0 2.2929688 2.2929688 A 1 1 0 0 0 2.2929688 3.7070312 L 2.6816406 4.0957031 C 2.2491805 4.6230215 1.9997144 5.2932797 2 6 L 2 18 C 2 19.64501 3.3549904 21 5 21 L 18.998047 21 C 19.179333 21.000227 19.359589 20.983567 19.537109 20.951172 L 20.292969 21.707031 A 1 1 0 0 0 21.707031 21.707031 A 1 1 0 0 0 21.707031 20.292969 L 20.605469 19.191406 A 1 1 0 0 0 20.457031 19.042969 L 16.716797 15.302734 A 1 1 0 0 0 16.697266 15.283203 L 12.716797 11.302734 A 1 1 0 0 0 12.697266 11.283203 L 8.7167969 7.3027344 A 1 1 0 0 0 8.6972656 7.2832031 L 3.7070312 2.2929688 A 1 1 0 0 0 3 2 z M 8 3 A 1 1 0 0 0 7 4 A 1 1 0 0 0 8 5 L 19 5 C 19.564129 5 20 5.4358706 20 6 L 20 17 A 1 1 0 0 0 21 18 A 1 1 0 0 0 22 17 L 22 6 C 22 4.3549904 20.64501 3 19 3 L 8 3 z M 4.1152344 5.5292969 L 6.1171875 7.53125 A 1 1 0 0 0 6 8 A 1 1 0 0 0 7 9 L 7.5859375 9 L 9.5859375 11 L 7 11 A 1 1 0 0 0 6 12 A 1 1 0 0 0 7 13 L 11.585938 13 L 13.585938 15 L 7 15 A 1 1 0 0 0 6 16 A 1 1 0 0 0 7 17 L 15.585938 17 L 17.585938 19 L 5 19 C 4.4358706 19 4 18.564129 4 18 L 4 6 C 3.9999322 5.8321402 4.0403307 5.6709491 4.1152344 5.5292969 z M 12 7 A 1 1 0 0 0 11 8 A 1 1 0 0 0 12 9 L 17 9 A 1 1 0 0 0 18 8 A 1 1 0 0 0 17 7 L 12 7 z M 16 11 A 1 1 0 0 0 15 12 A 1 1 0 0 0 16 13 L 17 13 A 1 1 0 0 0 18 12 A 1 1 0 0 0 17 11 L 16 11 z " fill="currentColor"/>
</svg>
