<svg xmlns="http://www.w3.org/2000/svg" width="1em" height="1em" viewBox="0 0 24 24" fill="currentColor">
  <path d="M 19 2 C 18.334123 2 17.65673 2.2006211 17.099609 2.6367188 L 5.6015625 8.8769531 A 1 1 0 0 0 5.4863281 8.9492188 C 3.4045774 10.164882 2 12.424811 2 15 C 2 18.854151 5.1458524 22 9 22 C 11.540984 22 13.773262 20.631925 15 18.595703 A 1 1 0 0 0 15.095703 18.453125 L 21.408203 6.84375 C 21.776184 6.348622 22 5.7048427 22 5 C 22 4.0833335 21.620244 3.268559 21.039062 2.7519531 C 20.457881 2.2353472 19.722222 2 19 2 z M 19 4 C 19.277778 4 19.542119 4.097986 19.710938 4.2480469 C 19.879756 4.3981073 20 4.5833337 20 5 C 20 5.1158669 19.991665 5.2145346 19.974609 5.2988281 A 1 1 0 0 0 19.958984 5.3242188 L 19.742188 5.7226562 C 19.732059 5.732331 19.721461 5.7425992 19.710938 5.7519531 C 19.542119 5.9020136 19.277778 6 19 6 C 18.722222 6 18.457881 5.9020136 18.289062 5.7519531 C 18.120244 5.6018927 18 5.4166663 18 5 C 18 4.6233795 18.100586 4.4344024 18.244141 4.2910156 L 18.720703 4.0332031 C 18.809969 4.0117618 18.904164 4 19 4 z M 16.037109 5.4902344 C 16.145372 6.2043555 16.485561 6.8254893 16.960938 7.2480469 C 17.414206 7.6509523 17.961901 7.882314 18.523438 7.9648438 L 15.734375 13.09375 C 15.073685 10.770865 13.239424 8.9317249 10.917969 8.2675781 L 16.037109 5.4902344 z M 9 10 C 11.773269 10 14 12.226729 14 15 C 14 17.773271 11.773269 20 9 20 C 6.2267307 20 4 17.773271 4 15 C 4 13.116418 5.0286783 11.487685 6.5566406 10.634766 L 6.7714844 10.517578 C 7.4415593 10.185612 8.1977983 10 9 10 z M 9 12 C 8.2777779 12 7.5421194 12.235347 6.9609375 12.751953 C 6.4524033 13.203983 6.0982116 13.884999 6.0175781 14.662109 C 6.0060591 14.773125 6 14.885417 6 15 C 6 15.916666 6.3797556 16.731441 6.9609375 17.248047 C 7.5421194 17.764653 8.2777779 18 9 18 C 9.7222221 18 10.457881 17.764653 11.039062 17.248047 C 11.620243 16.731441 12 15.916666 12 15 C 12 14.083334 11.620244 13.268559 11.039062 12.751953 C 10.45788 12.235347 9.7222221 12 9 12 z M 9 14 C 9.2777779 14 9.5421194 14.09799 9.7109375 14.248047 C 9.8797556 14.398107 10 14.583334 10 15 C 10 15.416666 9.8797556 15.601893 9.7109375 15.751953 C 9.5421194 15.902014 9.2777779 16 9 16 C 8.7222221 16 8.4578806 15.902014 8.2890625 15.751953 C 8.1202444 15.601893 8 15.416666 8 15 C 8 14.947917 8.0022417 14.89875 8.0058594 14.853516 C 8.031183 14.536877 8.1413467 14.379349 8.2890625 14.248047 C 8.4578806 14.097986 8.7222221 14 9 14 z " fill="currentColor"/>
</svg>
