<svg xmlns="http://www.w3.org/2000/svg" width="1em" height="1em" viewBox="0 0 24 24" fill="currentColor">
  <path d="M 3 2 A 1 1 0 0 0 2.2929688 2.2929688 A 1 1 0 0 0 2.2929688 3.7070312 L 3.6542969 5.0683594 C 3.4490981 5.5465607 3.3699377 6.0809781 3.3847656 6.6132812 C 3.4092326 7.4916164 3.6616552 8.4197101 4.0800781 9.3964844 C 4.4395477 10.235637 4.9257733 11.113647 5.5234375 12.001953 C 4.9258143 12.890361 4.4396144 13.766512 4.0800781 14.605469 C 3.6616495 15.581848 3.4092378 16.508635 3.3847656 17.386719 C 3.3602936 18.264802 3.5915532 19.149744 4.2207031 19.779297 A 1.0001 1.0001 0 0 0 4.2226562 19.779297 C 4.8523385 20.408576 5.7369716 20.64183 6.6152344 20.617188 C 7.4934972 20.592547 8.4197372 20.338401 9.3964844 19.919922 C 10.235683 19.560374 11.113391 19.076005 12.001953 18.478516 C 12.890185 19.076058 13.766683 19.560518 14.605469 19.919922 C 15.581839 20.338278 16.508647 20.590782 17.386719 20.615234 C 17.918833 20.630051 18.452842 20.550336 18.931641 20.345703 L 20.292969 21.707031 A 1 1 0 0 0 21.707031 21.707031 A 1 1 0 0 0 21.707031 20.292969 L 19.816406 18.402344 A 1 1 0 0 0 19.779297 18.363281 L 19.742188 18.328125 L 15.535156 14.121094 L 12.716797 11.302734 A 1 1 0 0 0 12.697266 11.283203 L 9.8789062 8.4648438 L 5.6367188 4.2226562 L 3.7070312 2.2929688 A 1 1 0 0 0 3 2 z M 17.349609 3.3808594 C 16.79334 3.4028826 16.21126 3.5213258 15.630859 3.7011719 C 14.485812 4.0559828 13.255755 4.6798895 12 5.5273438 C 11.11075 4.9294936 10.232827 4.4424026 9.3964844 4.0820312 A 1 1 0 0 0 8.6308594 4.0703125 A 1 1 0 0 0 8.0820312 4.6035156 A 1 1 0 0 0 8.6035156 5.9179688 C 9.1571743 6.1565346 9.757109 6.475081 10.380859 6.8652344 A 1 1 0 0 0 10.501953 7.90625 A 1 1 0 0 0 11.90625 8.0703125 C 11.936328 8.0465603 11.966031 8.0234668 11.996094 8 C 12.70707 8.5529898 13.425237 9.1826919 14.121094 9.8789062 C 14.820431 10.577886 15.450405 11.292682 16.001953 12 C 15.977326 12.031574 15.952675 12.064111 15.927734 12.095703 A 1 1 0 0 0 16.09375 13.5 A 1 1 0 0 0 17.138672 13.619141 C 17.526428 14.240012 17.842854 14.837716 18.080078 15.392578 A 1 1 0 0 0 19.392578 15.919922 A 1 1 0 0 0 19.919922 14.607422 C 19.560173 13.765975 19.074991 12.887612 18.476562 11.998047 C 19.322533 10.743738 19.944229 9.5150987 20.298828 8.3710938 C 20.778657 6.8230713 20.812181 5.2574934 19.777344 4.2226562 C 19.260017 3.7053295 18.610708 3.4534981 17.896484 3.3925781 C 17.717929 3.3773481 17.535032 3.3735183 17.349609 3.3808594 z M 17.363281 5.3886719 C 17.88048 5.3631958 18.20744 5.480877 18.363281 5.6367188 C 18.612444 5.8858816 18.762094 6.5745692 18.388672 7.7792969 C 18.161272 8.5129335 17.75619 9.3729511 17.195312 10.287109 C 16.689675 9.6743794 16.135061 9.0644417 15.535156 8.4648438 C 14.936803 7.8661823 14.325659 7.3107989 13.710938 6.8046875 C 14.626579 6.2431622 15.488327 5.8388714 16.222656 5.6113281 C 16.674256 5.471393 17.052962 5.4039575 17.363281 5.3886719 z M 5.4003906 6.8144531 L 7.7714844 9.1855469 C 7.4320532 9.5512915 7.1095075 9.9194808 6.8046875 10.289062 C 6.4429349 9.7014619 6.1453886 9.1357089 5.9199219 8.609375 C 5.6253378 7.9216923 5.4548843 7.3007213 5.4003906 6.8144531 z M 9.1875 10.601562 L 11.214844 12.628906 A 1 1 0 0 0 11.380859 12.794922 L 13.400391 14.814453 C 12.935906 15.241877 12.467241 15.637214 12.001953 16 C 11.293635 15.448228 10.576715 14.818903 9.8789062 14.121094 C 9.1810085 13.424268 8.5517903 12.709644 8 12.001953 C 8.3629137 11.536059 8.7598527 11.066812 9.1875 10.601562 z M 6.8046875 13.712891 C 7.3105701 14.325839 7.8654617 14.936626 8.4648438 15.535156 C 9.0644196 16.134732 9.6754584 16.689235 10.289062 17.195312 C 9.7014198 17.557098 9.1357611 17.854552 8.609375 18.080078 C 7.7938721 18.429474 7.0736436 18.602736 6.5585938 18.617188 C 6.043544 18.631638 5.7880367 18.516455 5.6367188 18.365234 C 5.4848688 18.213287 5.3684722 17.957901 5.3828125 17.443359 C 5.3971525 16.928818 5.5706005 16.209652 5.9199219 15.394531 C 6.1455661 14.868004 6.4425831 14.301244 6.8046875 13.712891 z M 14.816406 16.230469 L 17.183594 18.597656 C 16.698224 18.542859 16.080753 18.374112 15.394531 18.080078 C 14.868309 17.854601 14.302823 17.557176 13.714844 17.195312 C 14.083776 16.890952 14.451471 16.569371 14.816406 16.230469 z " fill="currentColor"/>
</svg>
