<svg xmlns="http://www.w3.org/2000/svg" width="1em" height="1em" viewBox="0 0 24 24" fill="currentColor">
  <path d="M 4 4 A 1 1 0 0 0 3 5 L 3 5.0097656 A 1 1 0 0 0 4 6.0097656 A 1 1 0 0 0 5 5.0097656 L 5 5 A 1 1 0 0 0 4 4 z M 4 8 A 1 1 0 0 0 3 9 L 3 9.0097656 A 1 1 0 0 0 4 10.009766 A 1 1 0 0 0 5 9.0097656 L 5 9 A 1 1 0 0 0 4 8 z M 4 12 A 1 1 0 0 0 3 13 L 3 13.009766 A 1 1 0 0 0 4 14.009766 A 1 1 0 0 0 5 13.009766 L 5 13 A 1 1 0 0 0 4 12 z M 17 13 A 1 1 0 0 0 16.292969 13.292969 A 1 1 0 0 0 16.292969 14.707031 L 17.585938 16 L 4 16 A 1 1 0 0 0 3 17 A 1 1 0 0 0 4 18 L 17.585938 18 L 16.292969 19.292969 A 1 1 0 0 0 16.292969 20.707031 A 1 1 0 0 0 17.707031 20.707031 L 20.697266 17.716797 A 1 1 0 0 0 20.707031 17.707031 A 1.0001 1.0001 0 0 0 20.785156 17.619141 A 1 1 0 0 0 20.792969 17.609375 A 1.0001 1.0001 0 0 0 20.861328 17.507812 A 1 1 0 0 0 20.865234 17.5 A 1.0001 1.0001 0 0 0 20.921875 17.388672 A 1 1 0 0 0 20.923828 17.382812 A 1 1 0 0 0 20.964844 17.257812 A 1.0001 1.0001 0 0 0 20.976562 17.205078 A 1.0001 1.0001 0 0 0 21 17 A 1.0001 1.0001 0 0 0 20.976562 16.794922 A 1.0001 1.0001 0 0 0 20.964844 16.742188 A 1 1 0 0 0 20.923828 16.617188 A 1.0001 1.0001 0 0 0 20.921875 16.611328 A 1 1 0 0 0 20.865234 16.5 A 1.0001 1.0001 0 0 0 20.861328 16.492188 A 1 1 0 0 0 20.792969 16.390625 A 1.0001 1.0001 0 0 0 20.785156 16.380859 A 1 1 0 0 0 20.707031 16.292969 L 20.697266 16.283203 L 17.707031 13.292969 A 1 1 0 0 0 17 13 z " fill="currentColor"/>
</svg>
