<svg xmlns="http://www.w3.org/2000/svg" width="1em" height="1em" viewBox="0 0 24 24" fill="currentColor">
  <path d="M 8 3 A 1 1 0 0 0 7.2929688 3.2929688 L 3.2929688 7.2929688 A 1 1 0 0 0 3.2929688 8.7070312 A 1 1 0 0 0 4.7070312 8.7070312 L 8.7070312 4.7070312 A 1 1 0 0 0 8.7070312 3.2929688 A 1 1 0 0 0 8 3 z M 14 3 A 1 1 0 0 0 13.292969 3.2929688 L 3.2929688 13.292969 A 1 1 0 0 0 3.2929688 14.707031 A 1 1 0 0 0 4.7070312 14.707031 L 14.707031 4.7070312 A 1 1 0 0 0 14.707031 3.2929688 A 1 1 0 0 0 14 3 z M 20 3 A 1 1 0 0 0 19.292969 3.2929688 L 3.2929688 19.292969 A 1 1 0 0 0 3.2929688 20.707031 A 1 1 0 0 0 4.7070312 20.707031 L 20.707031 4.7070312 A 1 1 0 0 0 20.707031 3.2929688 A 1 1 0 0 0 20 3 z M 20 9 A 1 1 0 0 0 19.292969 9.2929688 L 9.2929688 19.292969 A 1 1 0 0 0 9.2929688 20.707031 A 1 1 0 0 0 10.707031 20.707031 L 20.707031 10.707031 A 1 1 0 0 0 20.707031 9.2929688 A 1 1 0 0 0 20 9 z M 20 15 A 1 1 0 0 0 19.292969 15.292969 L 15.292969 19.292969 A 1 1 0 0 0 15.292969 20.707031 A 1 1 0 0 0 16.707031 20.707031 L 20.707031 16.707031 A 1 1 0 0 0 20.707031 15.292969 A 1 1 0 0 0 20 15 z " fill="currentColor"/>
</svg>
