<svg xmlns="http://www.w3.org/2000/svg" width="1em" height="1em" viewBox="0 0 24 24" fill="currentColor">
  <path d="M 12 1 C 8.1458524 1 5 4.1458495 5 8 C 5 10.665148 5.7098222 13.09389 6.9257812 14.917969 C 7.9406317 16.440361 9.3594586 17.568897 11 17.900391 L 11 18 C 11 18.564129 10.564129 19 10 19 L 7 19 C 5.3549904 19 4 20.35499 4 22 A 1 1 0 0 0 5 23 A 1 1 0 0 0 6 22 C 6 21.435871 6.4358706 21 7 21 L 10 21 C 11.64501 21 13 19.64501 13 18 L 13 17.900391 C 14.640542 17.568897 16.059369 16.440361 17.074219 14.917969 C 18.290178 13.09389 19 10.665148 19 8 C 19 4.1458495 15.854148 1 12 1 z M 12 3 C 14.773269 3 17 5.226729 17 8 C 17 10.304852 16.365697 12.375172 15.410156 13.808594 C 14.454615 15.242015 13.251649 16 12 16 C 10.748351 16 9.5453845 15.242015 8.5898438 13.808594 C 7.6343028 12.375172 7 10.304852 7 8 C 7 5.226729 9.2267307 3 12 3 z M 12 5 A 1 1 0 0 0 11 6 A 1 1 0 0 0 12 7 C 12.564129 7 13 7.4358706 13 8 A 1 1 0 0 0 14 9 A 1 1 0 0 0 15 8 C 15 6.3549904 13.64501 5 12 5 z " fill="currentColor"/>
</svg>
