<svg xmlns="http://www.w3.org/2000/svg" width="1em" height="1em" viewBox="0 0 24 24" fill="currentColor">
  <path d="M 11.904297 1.9667969 C 11.510821 1.9716825 11.11405 2.0001189 10.714844 2.0546875 C 9.650292 2.2002038 8.5715143 2.526914 7.5078125 3.0625 A 1 1 0 0 0 7.0644531 4.40625 A 1 1 0 0 0 8.40625 4.8496094 C 9.2774087 4.410971 10.148263 4.1422606 11 4.0214844 L 11 6.4902344 L 10.830078 6.6132812 L 9.2070312 7.7929688 L 3.7070312 2.2929688 A 1 1 0 0 0 2.2929688 2.2929688 A 1 1 0 0 0 2.2929688 3.7070312 L 4.2578125 5.671875 C 3.5467156 6.5399703 3.003564 7.5016699 2.6289062 8.5117188 A 1 1 0 0 0 2.5683594 8.6386719 A 1 1 0 0 0 2.5136719 8.8359375 C 1.3583856 12.315672 2.1617187 16.311241 4.9238281 19.074219 C 8.5832436 22.734784 14.406613 22.958514 18.330078 19.744141 L 20.292969 21.707031 A 1 1 0 0 0 21.707031 21.707031 A 1 1 0 0 0 21.707031 20.292969 L 16.349609 14.935547 L 17.140625 12.507812 L 17.560547 11.214844 L 19.876953 10.314453 C 20.240216 11.959648 20.065317 13.77698 19.148438 15.595703 A 1 1 0 0 0 19.591797 16.939453 A 1 1 0 0 0 20.933594 16.496094 C 23.07805 12.24235 21.888786 7.7378383 19.078125 4.9257812 C 17.233629 3.0803689 14.658631 1.9325973 11.904297 1.9667969 z M 13 4.0039062 C 14.788992 4.2283744 16.410833 5.0879459 17.662109 6.3398438 C 18.278332 6.9563718 18.798488 7.6637559 19.195312 8.4355469 L 16.902344 9.3261719 L 13 6.4902344 L 13 4.0039062 z M 5.6796875 7.09375 L 7.5703125 8.984375 L 7.0996094 9.3261719 L 4.828125 8.4433594 C 5.0627094 7.972817 5.34645 7.5206903 5.6796875 7.09375 z M 12 8.2363281 L 15.580078 10.837891 L 15.238281 11.888672 L 14.763672 13.349609 L 10.638672 9.2246094 L 12 8.2363281 z M 4.1679688 10.332031 L 6.4355469 11.212891 L 7.9042969 15.851562 L 6.3398438 17.660156 C 4.3455276 15.664596 3.6210699 12.891493 4.1679688 10.332031 z M 9.0019531 10.416016 L 13.585938 15 L 9.7324219 15 L 8.4160156 10.839844 L 9.0019531 10.416016 z M 9.5566406 17 L 14.53125 17 L 16.095703 18.876953 C 13.583348 20.382349 10.433471 20.388343 7.9179688 18.890625 L 9.5566406 17 z " fill="currentColor"/>
</svg>
