<svg xmlns="http://www.w3.org/2000/svg" width="1em" height="1em" viewBox="0 0 24 24" fill="currentColor">
  <path d="M 12.027344 0.99609375 C 10.277766 0.98238991 8.4846104 1.6200708 7.0566406 3.0449219 A 1 1 0 0 0 7.0546875 4.4589844 A 1 1 0 0 0 8.46875 4.4609375 C 10.074379 2.858815 12.16548 2.656643 13.916016 3.3828125 C 15.666551 4.108982 16.999896 5.7317712 17 8 C 17 9.7134501 16.654427 11.297485 16.080078 12.585938 A 1 1 0 0 0 16.585938 13.90625 A 1 1 0 0 0 17.90625 13.400391 C 18.605901 11.830843 19 9.9805499 19 8 C 18.999858 4.9260951 17.104647 2.5402851 14.681641 1.5351562 C 14.075889 1.283874 13.432003 1.1161376 12.773438 1.0410156 C 12.526475 1.0128449 12.277283 0.99805144 12.027344 0.99609375 z M 3 2 A 1 1 0 0 0 2.2929688 2.2929688 A 1 1 0 0 0 2.2929688 3.7070312 L 5.1484375 6.5625 C 5.0514086 7.027257 5 7.5081314 5 8 C 5 10.665148 5.7098222 13.09389 6.9257812 14.917969 C 7.9406317 16.440361 9.3594586 17.568897 11 17.900391 L 11 18 C 11 18.564129 10.564129 19 10 19 L 7 19 C 5.3549904 19 4 20.35499 4 22 A 1 1 0 0 0 5 23 A 1 1 0 0 0 6 22 C 6 21.435871 6.4358706 21 7 21 L 10 21 C 11.64501 21 13 19.64501 13 18 L 13 17.898438 C 13.859012 17.723938 14.6605 17.331962 15.369141 16.783203 L 20.292969 21.707031 A 1 1 0 0 0 21.707031 21.707031 A 1 1 0 0 0 21.707031 20.292969 L 3.7070312 2.2929688 A 1 1 0 0 0 3 2 z M 12 5 A 1 1 0 0 0 11 6 A 1 1 0 0 0 12 7 C 12.564129 7 13 7.4358706 13 8 A 1 1 0 0 0 14 9 A 1 1 0 0 0 15 8 C 15 6.3549904 13.64501 5 12 5 z M 7.0078125 8.421875 L 13.941406 15.355469 C 13.326304 15.783228 12.674715 15.999999 12 16 C 10.748351 16 9.5453845 15.242015 8.5898438 13.808594 C 7.6928797 12.463044 7.0797092 10.557023 7.0078125 8.421875 z " fill="currentColor"/>
</svg>
