<svg xmlns="http://www.w3.org/2000/svg" width="1em" height="1em" viewBox="0 0 24 24" fill="currentColor">
  <path d="M 3 2 A 1 1 0 0 0 2.2929688 2.2929688 A 1 1 0 0 0 2.2929688 3.7070312 L 5.4179688 6.8320312 C 3.2189653 9.3651985 1.997515 12.617569 2 15.994141 A 1 1 0 0 0 2 16 L 2 16.001953 C 2.0010858 19.302909 4.6988007 22 8 22 C 11.378823 22.003916 14.633181 20.782766 17.167969 18.582031 L 20.292969 21.707031 A 1 1 0 0 0 21.707031 21.707031 A 1 1 0 0 0 21.707031 20.292969 L 12.707031 11.292969 L 7.6054688 6.1914062 A 1 1 0 0 0 7.5214844 6.0957031 A 1 1 0 0 0 7.4238281 6.0097656 L 3.7070312 2.2929688 A 1 1 0 0 0 3 2 z M 16 2 A 1 1 0 0 0 15.859375 2.0097656 C 13.250993 2.0322892 10.69857 2.7766052 8.4960938 4.1777344 A 1 1 0 0 0 8.1894531 5.5585938 A 1 1 0 0 0 9.5703125 5.8652344 C 11.235095 4.8061649 13.131752 4.1792612 15.089844 4.0332031 C 15.523794 6.5108878 17.489117 8.4761907 19.966797 8.9101562 C 19.820418 10.870344 19.19165 12.769649 18.130859 14.435547 A 1 1 0 0 0 18.4375 15.816406 A 1 1 0 0 0 19.818359 15.509766 C 21.221601 13.306075 21.967731 10.751181 21.990234 8.140625 A 1 1 0 0 0 22 8 C 22 4.6988007 19.302909 2.0010858 16.001953 2 L 16 2 z M 17.171875 4.171875 C 18.444604 4.556954 19.443046 5.5553956 19.828125 6.828125 C 18.555396 6.443046 17.556954 5.4446044 17.171875 4.171875 z M 15 8 A 1 1 0 0 0 14.292969 8.2929688 L 13.292969 9.2929688 A 1 1 0 0 0 13.292969 10.707031 A 1 1 0 0 0 14.707031 10.707031 L 15.707031 9.7070312 A 1 1 0 0 0 15.707031 8.2929688 A 1 1 0 0 0 15 8 z M 6.8359375 8.25 L 9.6503906 11.064453 A 1 1 0 0 0 9.2929688 11.292969 A 1 1 0 0 0 9.2929688 12.707031 L 9.5859375 13 L 8.2929688 14.292969 A 1 1 0 0 0 8.2929688 15.707031 A 1 1 0 0 0 9.7070312 15.707031 L 11 14.414062 L 11.292969 14.707031 A 1 1 0 0 0 12.707031 14.707031 A 1 1 0 0 0 12.935547 14.349609 L 15.75 17.164062 C 13.824091 18.796673 11.429265 19.778318 8.9101562 19.966797 C 8.4761274 17.489313 6.510686 15.523877 4.0332031 15.089844 C 4.2217418 12.570819 5.2036492 10.175803 6.8359375 8.25 z M 4.171875 17.171875 C 5.4446044 17.556954 6.443046 18.555396 6.828125 19.828125 C 5.5553956 19.443046 4.556954 18.444604 4.171875 17.171875 z " fill="currentColor"/>
</svg>
