<svg xmlns="http://www.w3.org/2000/svg" width="1em" height="1em" viewBox="0 0 24 24" fill="currentColor">
  <path d="M 12 2 C 9.4907951 2 7.1996343 2.9367569 5.4414062 4.4707031 A 1 1 0 0 0 5.2558594 4.6328125 A 1 1 0 0 0 5.2363281 4.6582031 C 3.2528262 6.4872004 2 9.0978025 2 12 C 2 14.902198 3.2528262 17.5128 5.2363281 19.341797 A 1 1 0 0 0 5.2558594 19.367188 A 1 1 0 0 0 5.453125 19.537109 C 7.2099947 21.065607 9.4957869 22 12 22 C 14.504213 22 16.790005 21.065607 18.546875 19.537109 A 1 1 0 0 0 18.558594 19.529297 A 1 1 0 0 0 18.744141 19.367188 A 1 1 0 0 0 18.763672 19.341797 C 20.747174 17.5128 22 14.902198 22 12 C 22 9.0978025 20.747174 6.4872004 18.763672 4.6582031 A 1 1 0 0 0 18.744141 4.6328125 A 1 1 0 0 0 18.558594 4.4707031 A 1 1 0 0 0 18.546875 4.4628906 C 16.790005 2.9343931 14.504213 2 12 2 z M 12 4 C 13.674589 4 15.225403 4.5109546 16.507812 5.3847656 C 13.186984 9.1436411 13.186984 14.856359 16.507812 18.615234 C 15.225403 19.489045 13.674589 20 12 20 C 10.325412 20 8.7745962 19.489044 7.4921875 18.615234 C 10.813014 14.856358 10.813018 9.14364 7.4921875 5.3847656 C 8.7745973 4.5109535 10.32541 4 12 4 z M 5.9921875 6.7089844 C 8.6692824 9.7276555 8.6692823 14.272345 5.9921875 17.291016 C 4.7514235 15.882427 4 14.03213 4 12 C 4 9.9678699 4.7514235 8.1175734 5.9921875 6.7089844 z M 18.007812 6.7089844 C 19.248577 8.1175735 20 9.9678694 20 12 C 20 14.032128 19.248575 15.882427 18.007812 17.291016 C 15.330718 14.272346 15.33072 9.7276559 18.007812 6.7089844 z " fill="currentColor"/>
</svg>
