<svg xmlns="http://www.w3.org/2000/svg" width="1em" height="1em" viewBox="0 0 24 24" fill="currentColor">
  <path d="M 12 2 C 6.4889982 2 2 6.4889941 2 12 C 2 17.511006 6.4889982 22 12 22 C 17.511002 22 22 17.511006 22 12 C 22 6.4889941 17.511002 2 12 2 z M 12 4 C 16.430123 4 20 7.5698737 20 12 C 20 13.853345 19.375403 15.556323 18.324219 16.910156 L 7.0898438 5.6757812 C 8.4436772 4.6245974 10.146655 4 12 4 z M 5.6757812 7.0898438 L 16.910156 18.324219 C 15.556323 19.375403 13.853344 20 12 20 C 7.5698765 20 4 16.430126 4 12 C 4 10.146655 4.6245975 8.4436768 5.6757812 7.0898438 z " fill="currentColor"/>
</svg>
