<svg xmlns="http://www.w3.org/2000/svg" width="1em" height="1em" viewBox="0 0 24 24" fill="currentColor">
  <path d="M 3 2 A 1 1 0 0 0 2.2929688 2.2929688 A 1 1 0 0 0 2.2929688 3.7070312 L 5.0683594 6.4824219 C 5.0234506 6.6498661 5.0000312 6.8237249 5 7 L 4 7 C 2.9072751 7 2 7.9072751 2 9 L 2 11 A 1 1 0 0 0 1 12 A 1 1 0 0 0 2 13 L 2 15 C 2 16.092725 2.9072751 17 4 17 L 5 17 C 5 18.092725 5.9072751 19 7 19 L 8 19 C 9.0927249 19 10 18.092725 10 17 L 10 13 L 11.585938 13 L 14 15.414062 L 14 17 C 14 18.092725 14.907275 19 16 19 L 17 19 C 17.177596 19 17.351506 18.976305 17.517578 18.931641 L 20.292969 21.707031 A 1 1 0 0 0 21.707031 21.707031 A 1 1 0 0 0 21.707031 20.292969 L 15.716797 14.302734 A 1 1 0 0 0 15.697266 14.283203 L 12.716797 11.302734 A 1 1 0 0 0 12.697266 11.283203 L 9.7167969 8.3027344 A 1 1 0 0 0 9.6972656 8.2832031 L 7.0839844 5.6699219 A 1 1 0 0 0 7.0097656 5.5859375 A 1 1 0 0 0 6.9160156 5.5019531 L 3.7070312 2.2929688 A 1 1 0 0 0 3 2 z M 16 5 C 14.907275 5 14 5.9072751 14 7 L 14 11 A 1 1 0 0 0 15 12 A 1 1 0 0 0 16 11 L 16 7 L 17 7 L 17 14 A 1 1 0 0 0 18 15 A 1 1 0 0 0 19 14 L 19 9 L 20 9 L 20 15 A 1 1 0 0 0 19 16 A 1 1 0 0 0 20 17 C 21.092725 17 22 16.092725 22 15 L 22 13 A 1 1 0 0 0 23 12 A 1 1 0 0 0 22 11 L 22 9 C 22 7.9072751 21.092725 7 20 7 L 19 7 C 19 5.9072751 18.092725 5 17 5 L 16 5 z M 7 8.4140625 L 8 9.4140625 L 8 17 L 7 17 L 7 8.4140625 z M 4 9 L 5 9 L 5 15 L 4 15 L 4 9 z " fill="currentColor"/>
</svg>
