<svg xmlns="http://www.w3.org/2000/svg" width="1em" height="1em" viewBox="0 0 24 24" fill="currentColor">
  <path d="M 3 2 A 1 1 0 0 0 2.2929688 2.2929688 A 1 1 0 0 0 2.2929688 3.7070312 L 4.6230469 6.0371094 C 3.7065094 6.2169145 3 7.0360577 3 8 L 3 15 C 3 16.092725 3.9072751 17 5 17 L 6 17 L 6 19 L 5 19 A 1 1 0 0 0 4 20 A 1 1 0 0 0 5 21 L 9 21 A 1 1 0 0 0 10 20 A 1 1 0 0 0 9 19 L 8 19 L 8 17 L 15.585938 17 L 16 17.414062 L 16 19 L 15 19 A 1 1 0 0 0 14 20 A 1 1 0 0 0 15 21 L 19 21 A 1 1 0 0 0 19.46875 20.882812 L 20.292969 21.707031 A 1 1 0 0 0 21.707031 21.707031 A 1 1 0 0 0 21.707031 20.292969 L 17.716797 16.302734 A 1 1 0 0 0 17.697266 16.283203 L 16.716797 15.302734 A 1 1 0 0 0 16.697266 15.283203 L 15.458984 14.044922 A 1 1 0 0 0 15.457031 14.042969 L 9.5097656 8.0957031 A 1 1 0 0 0 9.4589844 8.0410156 A 1 1 0 0 0 9.4042969 7.9902344 L 7.7167969 6.3027344 A 1 1 0 0 0 7.6972656 6.2832031 L 3.7070312 2.2929688 A 1 1 0 0 0 3 2 z M 17 4 A 1 1 0 0 0 16 5 L 16 6 L 11 6 A 1 1 0 0 0 10 7 A 1 1 0 0 0 11 8 L 14.085938 8 L 13.037109 9.0488281 A 1 1 0 0 0 13.037109 10.462891 A 1 1 0 0 0 14.451172 10.462891 L 16.914062 8 L 19 8 L 19 9.0859375 L 16.033203 12.052734 A 1 1 0 0 0 16.033203 13.466797 A 1 1 0 0 0 17.447266 13.466797 L 19 11.914062 L 19 15 A 1 1 0 0 0 19.021484 16.412109 A 1 1 0 0 0 20.435547 16.392578 C 20.785918 16.032195 21 15.534198 21 15 L 21 8 C 21 6.9072751 20.092725 6 19 6 L 18 6 L 18 5 A 1 1 0 0 0 17 4 z M 5 8 L 6.5859375 8 L 7.3359375 8.75 L 5 11.085938 L 5 8 z M 8.75 10.164062 L 10.335938 11.75 L 7.0859375 15 L 5 15 L 5 13.914062 L 8.75 10.164062 z M 11.75 13.164062 L 13.335938 14.75 L 13.085938 15 L 9.9140625 15 L 11.75 13.164062 z " fill="currentColor"/>
</svg>
