<svg xmlns="http://www.w3.org/2000/svg" width="1em" height="1em" viewBox="0 0 24 24" fill="currentColor">
  <path d="M 8.9296875 3.0019531 A 1 1 0 0 0 8.0507812 3.6835938 L 6.9453125 7 L 5.0019531 7 C 3.1818741 6.9997825 1.7585042 8.6561476 2.0351562 10.455078 A 1.0001 1.0001 0 0 0 2.0390625 10.476562 L 3.2910156 17.607422 C 3.5900158 19.551691 5.2770092 20.999907 7.2441406 21 L 12.5 21 A 1 1 0 0 0 13.5 20 A 1 1 0 0 0 12.5 19 L 7.2441406 19 C 6.2498213 18.999953 5.4187147 18.287453 5.2675781 17.304688 A 1.0001 1.0001 0 0 0 5.2636719 17.283203 L 4.0136719 10.148438 C 3.920711 9.5262928 4.3700474 8.9999247 5 9 A 1.0001 1.0001 0 0 0 5.0019531 9 L 6.2792969 9 L 6.0507812 9.6835938 A 1 1 0 0 0 6.6835938 10.949219 A 1 1 0 0 0 7.9492188 10.316406 L 8.3886719 9 L 15.611328 9 L 16.050781 10.316406 A 1 1 0 0 0 17.316406 10.949219 A 1 1 0 0 0 17.949219 9.6835938 L 17.720703 9 L 19 9 C 19.631562 8.9999245 20.084279 9.5281199 19.988281 10.152344 L 19.513672 12.853516 A 1 1 0 0 0 20.326172 14.011719 A 1 1 0 0 0 21.484375 13.199219 L 21.962891 10.476562 A 1.0001 1.0001 0 0 0 21.964844 10.455078 C 22.241449 8.6561526 20.820079 6.9997825 19 7 L 17.054688 7 L 15.949219 3.6835938 A 1 1 0 0 0 14.683594 3.0507812 A 1 1 0 0 0 14.050781 4.3164062 L 14.945312 7 L 9.0546875 7 L 9.9492188 4.3164062 A 1 1 0 0 0 9.3164062 3.0507812 A 1 1 0 0 0 8.9296875 3.0019531 z M 11.900391 11.005859 C 11.756351 11.010668 11.612223 11.025359 11.46875 11.050781 C 10.894859 11.152471 10.336354 11.421458 9.8789062 11.878906 C 8.9640102 12.793802 8.8008903 14.115923 9.2285156 15.148438 C 9.656141 16.180951 10.706048 17 12 17 A 1 1 0 0 0 13 16 A 1 1 0 0 0 12 15 C 11.512018 15 11.2251 14.742404 11.076172 14.382812 C 10.927244 14.02322 10.948 13.637937 11.292969 13.292969 C 11.637937 12.948 12.023221 12.927244 12.382812 13.076172 C 12.742403 13.2251 13 13.512018 13 14 A 1 1 0 0 0 14 15 A 1 1 0 0 0 15 14 C 15 12.706048 14.180951 11.656141 13.148438 11.228516 C 12.761245 11.068156 12.332509 10.991435 11.900391 11.005859 z M 16.5 16 A 1 1 0 0 0 15.5 17 A 1 1 0 0 0 16.5 18 L 18.585938 18 L 15.292969 21.292969 A 1 1 0 0 0 15.292969 22.707031 A 1 1 0 0 0 16.707031 22.707031 L 20 19.414062 L 20 21.5 A 1 1 0 0 0 21 22.5 A 1 1 0 0 0 22 21.5 L 22 17 A 1 1 0 0 0 21.992188 16.869141 A 1.0001 1.0001 0 0 0 21.923828 16.617188 A 1 1 0 0 0 21.707031 16.292969 A 1 1 0 0 0 21.382812 16.076172 A 1.0001 1.0001 0 0 0 21.130859 16.007812 A 1.0001 1.0001 0 0 0 21 16 L 16.5 16 z " fill="currentColor"/>
</svg>
