<svg xmlns="http://www.w3.org/2000/svg" width="1em" height="1em" viewBox="0 0 24 24" fill="currentColor">
  <path d="M 8.9296875 3.0019531 A 1 1 0 0 0 8.0507812 3.6835938 L 6.9453125 7 L 5.0019531 7 C 3.1818741 6.9997825 1.7585042 8.6561476 2.0351562 10.455078 A 1.0001 1.0001 0 0 0 2.0390625 10.476562 L 3.2910156 17.607422 C 3.5900158 19.551691 5.2770092 20.999907 7.2441406 21 L 15 21 A 1 1 0 0 0 16 20 A 1 1 0 0 0 15 19 L 7.2441406 19 C 6.2498213 18.999953 5.4187147 18.287453 5.2675781 17.304688 A 1.0001 1.0001 0 0 0 5.2636719 17.283203 L 4.0136719 10.148438 C 3.920711 9.5262928 4.3700474 8.9999247 5 9 A 1.0001 1.0001 0 0 0 5.0019531 9 L 6.2792969 9 L 6.0507812 9.6835938 A 1 1 0 0 0 6.6835938 10.949219 A 1 1 0 0 0 7.9492188 10.316406 L 8.3886719 9 L 15.611328 9 L 16.050781 10.316406 A 1 1 0 0 0 17.316406 10.949219 A 1 1 0 0 0 17.949219 9.6835938 L 17.720703 9 L 19 9 C 19.631562 8.9999245 20.084279 9.5281199 19.988281 10.152344 L 19.830078 11.048828 A 1 1 0 0 0 20.642578 12.207031 A 1 1 0 0 0 21.800781 11.394531 L 21.962891 10.476562 A 1.0001 1.0001 0 0 0 21.964844 10.455078 C 22.241449 8.6561526 20.820079 6.9997825 19 7 L 17.054688 7 L 15.949219 3.6835938 A 1 1 0 0 0 14.683594 3.0507812 A 1 1 0 0 0 14.050781 4.3164062 L 14.945312 7 L 9.0546875 7 L 9.9492188 4.3164062 A 1 1 0 0 0 9.3164062 3.0507812 A 1 1 0 0 0 8.9296875 3.0019531 z M 12 11 C 11.083334 11 10.268559 11.379756 9.7519531 11.960938 C 9.2353472 12.542118 9 13.277778 9 14 C 9 14.722222 9.2353472 15.457881 9.7519531 16.039062 C 10.268559 16.620244 11.083334 17 12 17 C 12.916666 17 13.731441 16.620244 14.248047 16.039062 C 14.764653 15.457881 15 14.722222 15 14 C 15 13.277778 14.764653 12.542119 14.248047 11.960938 C 13.731441 11.379755 12.916666 11 12 11 z M 12 13 C 12.416666 13 12.601893 13.120244 12.751953 13.289062 C 12.902014 13.45788 13 13.722222 13 14 C 13 14.277778 12.90201 14.542119 12.751953 14.710938 C 12.601893 14.879755 12.416666 15 12 15 C 11.583334 15 11.398107 14.879756 11.248047 14.710938 C 11.097986 14.542118 11 14.277778 11 14 C 11 13.722222 11.097986 13.45788 11.248047 13.289062 C 11.398107 13.120243 11.583334 13 12 13 z M 18.916016 14.003906 C 18.751818 14.009427 18.588579 14.028365 18.427734 14.060547 C 17.784358 14.189275 17.18203 14.528141 16.736328 15.054688 A 1 1 0 0 0 16.853516 16.464844 A 1 1 0 0 0 18.263672 16.347656 C 18.561037 15.996354 19.047152 15.898544 19.457031 16.107422 C 19.987605 16.383365 20.073808 16.797707 19.96875 17.232422 C 19.863486 17.667988 19.596602 17.998082 18.996094 18 A 1 1 0 0 0 18 19.003906 A 1 1 0 0 0 19.003906 20 C 20.498615 19.9952 21.618946 18.916192 21.912109 17.703125 C 22.205273 16.490058 21.700614 15.016915 20.373047 14.330078 A 1.0001 1.0001 0 0 0 20.369141 14.328125 C 19.908652 14.092234 19.408609 13.987344 18.916016 14.003906 z M 19 21 A 1 1 0 0 0 18 22 L 18 22.009766 A 1 1 0 0 0 19 23.009766 A 1 1 0 0 0 20 22.009766 L 20 22 A 1 1 0 0 0 19 21 z " fill="currentColor"/>
</svg>
