<svg xmlns="http://www.w3.org/2000/svg" width="1em" height="1em" viewBox="0 0 24 24" fill="currentColor">
  <path d="M 9.046875 3.0019531 A 1.0001 1.0001 0 0 0 8.5273438 3.1191406 A 1.0001 1.0001 0 0 0 8 4 L 8 6.9199219 C 7.6215786 6.9033634 7.1937758 6.9432347 6.8652344 6.8242188 C 6.257379 6.6040197 5.6115096 6.1533843 4.8398438 4.9570312 A 1.0001 1.0001 0 0 0 3.2832031 4.8027344 C 0.83087609 7.3195358 1.1667141 10.462179 1.0019531 12.933594 A 1.0001 1.0001 0 0 0 2.3242188 13.945312 C 3.1590706 13.659012 3.8668838 13.786104 4.5195312 14.201172 C 5.1721787 14.61624 5.7422474 15.361508 6.0488281 16.308594 A 1.0001 1.0001 0 0 0 7 17 C 8.1741192 17 8.8671604 17.193988 9.4375 17.642578 C 10.00784 18.091168 10.53642 18.903869 11.060547 20.341797 A 1.0001 1.0001 0 0 0 12.939453 20.341797 C 13.46358 18.903869 13.99216 18.091168 14.5625 17.642578 C 15.13284 17.193988 15.825881 17 17 17 A 1 1 0 0 0 17.421875 16.578125 A 1 1 0 0 0 17.951172 16.308594 C 18.257753 15.361508 18.827821 14.61624 19.480469 14.201172 C 20.133116 13.786104 20.840929 13.659012 21.675781 13.945312 A 1.0001 1.0001 0 0 0 22.998047 12.933594 C 22.833286 10.462179 23.169124 7.3195358 20.716797 4.8027344 A 1.0001 1.0001 0 0 0 19.160156 4.9570312 C 18.38849 6.1533843 17.742621 6.6040197 17.134766 6.8242188 C 16.806224 6.9432347 16.378421 6.9033634 16 6.9199219 L 16 4 A 1.0001 1.0001 0 0 0 14.445312 3.1679688 L 12 4.7988281 L 9.5546875 3.1679688 A 1.0001 1.0001 0 0 0 9.046875 3.0019531 z M 10 5.8691406 L 11.445312 6.8320312 A 1.0001 1.0001 0 0 0 12.554688 6.8320312 L 14 5.8691406 L 14 8 C 13.999824 8.749504 13.754627 9.1853399 13.398438 9.5019531 C 13.042118 9.8186802 12.527778 10 12 10 C 11.472222 10 10.95788 9.8186802 10.601562 9.5019531 C 10.245372 9.1853399 10.000176 8.749504 10 8 L 10 5.8691406 z M 4.0800781 7.1289062 C 4.7594041 7.8689065 5.4597818 8.4428732 6.1835938 8.7050781 C 6.8673287 8.952765 7.5202338 9.0159529 8.1171875 9.0214844 C 8.3090813 9.8276534 8.7241917 10.509828 9.2734375 10.998047 C 10.042119 11.681319 11.027778 12 12 12 C 12.972222 12 13.95788 11.681319 14.726562 10.998047 C 15.275808 10.509828 15.690919 9.8276534 15.882812 9.0214844 C 16.479766 9.0159528 17.132672 8.9527649 17.816406 8.7050781 C 18.540218 8.4428732 19.240596 7.8689066 19.919922 7.1289062 C 20.755285 8.5008542 20.855505 10.129423 20.925781 11.910156 C 20.019642 11.894656 19.139811 12.048387 18.408203 12.513672 C 17.487163 13.099431 16.825405 14.026049 16.359375 15.078125 C 15.215604 15.159035 14.168433 15.407849 13.326172 16.070312 C 12.805229 16.48005 12.377499 17.009176 12 17.636719 C 11.622501 17.009176 11.194771 16.48005 10.673828 16.070312 C 9.8315668 15.407848 8.7843963 15.159034 7.640625 15.078125 C 7.1745948 14.026049 6.5128365 13.099431 5.5917969 12.513672 C 4.8601892 12.048387 3.9803582 11.894656 3.0742188 11.910156 C 3.1444953 10.129423 3.2447146 8.5008541 4.0800781 7.1289062 z " fill="currentColor"/>
</svg>
