<svg xmlns="http://www.w3.org/2000/svg" width="1em" height="1em" viewBox="0 0 24 24" fill="currentColor">
  <path d="M 6 6 C 4.3549904 6 3 7.3549904 3 9 L 3 15 C 3 16.64501 4.3549904 18 6 18 L 17 18 C 18.64501 18 20 16.64501 20 15 L 20 14.791016 C 20.551915 14.567729 21 14.123492 21 13.5 L 21 10.5 C 21 9.876508 20.551915 9.4322714 20 9.2089844 L 20 9 C 20 7.3549904 18.64501 6 17 6 L 6 6 z M 6 8 L 17 8 C 17.564129 8 18 8.4358706 18 9 L 18 9.5 C 18 10.123492 18.448085 10.567729 19 10.791016 L 19 13.208984 C 18.448085 13.432271 18 13.876508 18 14.5 L 18 15 C 18 15.564129 17.564129 16 17 16 L 6 16 C 5.4358706 16 5 15.564129 5 15 L 5 9 C 5 8.4358706 5.4358706 8 6 8 z M 7 9 A 1 1 0 0 0 6 10 L 6 14 A 1 1 0 0 0 7 15 A 1 1 0 0 0 8 14 L 8 10 A 1 1 0 0 0 7 9 z M 10 9 A 1 1 0 0 0 9 10 L 9 14 A 1 1 0 0 0 10 15 A 1 1 0 0 0 11 14 L 11 10 A 1 1 0 0 0 10 9 z M 13 9 A 1 1 0 0 0 12 10 L 12 14 A 1 1 0 0 0 13 15 A 1 1 0 0 0 14 14 L 14 10 A 1 1 0 0 0 13 9 z " fill="currentColor"/>
</svg>
