<svg xmlns="http://www.w3.org/2000/svg" width="1em" height="1em" viewBox="0 0 24 24" fill="currentColor">
  <path d="M 10.5 3 C 9.876508 3 9.4322714 3.448085 9.2089844 4 L 9 4 C 7.3549904 4 6 5.3549904 6 7 L 6 18 C 6 19.64501 7.3549904 21 9 21 L 15 21 C 16.64501 21 18 19.64501 18 18 L 18 7 C 18 5.3549904 16.64501 4 15 4 L 14.791016 4 C 14.567729 3.448085 14.123492 3 13.5 3 L 10.5 3 z M 10.791016 5 L 13.208984 5 C 13.432271 5.551915 13.876508 6 14.5 6 L 15 6 C 15.564129 6 16 6.4358706 16 7 L 16 18 C 16 18.564129 15.564129 19 15 19 L 9 19 C 8.4358706 19 8 18.564129 8 18 L 8 7 C 8 6.4358706 8.4358706 6 9 6 L 9.5 6 C 10.123492 6 10.567729 5.551915 10.791016 5 z M 10 7 A 1 1 0 0 0 9 8 A 1 1 0 0 0 10 9 L 14 9 A 1 1 0 0 0 15 8 A 1 1 0 0 0 14 7 L 10 7 z M 10 10 A 1 1 0 0 0 9 11 A 1 1 0 0 0 10 12 L 14 12 A 1 1 0 0 0 15 11 A 1 1 0 0 0 14 10 L 10 10 z M 10 13 A 1 1 0 0 0 9 14 A 1 1 0 0 0 10 15 L 14 15 A 1 1 0 0 0 15 14 A 1 1 0 0 0 14 13 L 10 13 z M 10 16 A 1 1 0 0 0 9 17 A 1 1 0 0 0 10 18 L 14 18 A 1 1 0 0 0 15 17 A 1 1 0 0 0 14 16 L 10 16 z " fill="currentColor"/>
</svg>
