<svg xmlns="http://www.w3.org/2000/svg" width="1em" height="1em" viewBox="0 0 24 24" fill="currentColor">
  <path d="M 14.902344 1.8984375 C 14.467698 1.8945012 14.029357 1.9324991 13.59375 2.015625 C 11.851322 2.3481286 10.173379 3.4459543 9.0195312 5.3613281 A 1 1 0 0 0 9.359375 6.734375 A 1 1 0 0 0 9.6757812 6.78125 A 1 1 0 0 0 9.7695312 7.1347656 L 13.634766 9.3652344 L 13.394531 9.7792969 A 1 1 0 0 0 13.759766 11.144531 A 1 1 0 0 0 15.126953 10.779297 L 15.365234 10.365234 L 19.695312 12.865234 A 1.0001 1.0001 0 0 0 21.058594 12.503906 C 22.186658 10.573235 22.345993 8.573399 21.802734 6.8847656 C 21.259475 5.1961322 20.062849 3.8282383 18.587891 2.953125 C 17.481671 2.29679 16.206281 1.9102464 14.902344 1.8984375 z M 3 2 A 1 1 0 0 0 2.2929688 2.2929688 A 1 1 0 0 0 2.2929688 3.7070312 L 11.554688 12.96875 L 11.177734 13.621094 C 9.3463694 13.855229 7.5999332 14.683044 6.2402344 16.042969 A 1 1 0 0 0 6.2402344 17.457031 A 1 1 0 0 0 7.6542969 17.457031 C 9.4698049 15.641221 12.171064 15.066531 14.5625 15.976562 L 17.5625 18.976562 C 17.425736 19.111312 17.300527 19.258548 17.1875 19.416016 C 16.917844 19.791699 16.483825 20.009685 16.021484 20 A 1.0001 1.0001 0 0 0 15.978516 20 C 15.516177 20.009685 15.082156 19.791699 14.8125 19.416016 C 14.164167 18.512762 13.110823 17.987973 12 18.003906 C 10.889177 17.987973 9.8358331 18.512762 9.1875 19.416016 C 8.9178437 19.791699 8.4838248 20.009685 8.0214844 20 A 1.0001 1.0001 0 0 0 7.9785156 20 C 7.5161754 20.009685 7.0821563 19.791699 6.8125 19.416016 C 6.1598038 18.506684 5.0975988 17.976558 3.9785156 18 A 1.0001 1.0001 0 0 0 3.9707031 18 C 3.478423 18.01406 2.9956676 18.136211 2.5546875 18.355469 A 1 1 0 0 0 2.1054688 19.695312 A 1 1 0 0 0 3.4453125 20.144531 C 3.6250588 20.055161 3.822858 20.008573 4.0234375 20.001953 C 4.4847371 19.993153 4.9183857 20.209056 5.1875 20.583984 C 5.8358331 21.487238 6.8891772 22.012027 8 21.996094 C 9.1108228 22.012024 10.164167 21.487238 10.8125 20.583984 C 11.082156 20.208301 11.516175 19.990315 11.978516 20 A 1.0001 1.0001 0 0 0 12.021484 20 C 12.483825 19.9903 12.917844 20.208301 13.1875 20.583984 C 13.835833 21.487238 14.889177 22.012027 16 21.996094 C 17.110823 22.012024 18.164167 21.487238 18.8125 20.583984 C 18.862061 20.514937 18.917939 20.451172 18.978516 20.392578 L 20.292969 21.707031 A 1 1 0 0 0 21.707031 21.707031 A 1 1 0 0 0 21.707031 20.292969 L 3.7070312 2.2929688 A 1 1 0 0 0 3 2 z M 14.572266 3.9082031 C 14.775448 3.897216 14.981175 3.8991898 15.185547 3.9140625 C 14.419321 4.6032588 13.643932 5.5356822 12.923828 6.6464844 L 11.330078 5.7265625 C 12.119613 4.7758687 13.004332 4.1645065 13.96875 3.9804688 C 14.16798 3.9424501 14.369084 3.9191902 14.572266 3.9082031 z M 17.447266 4.7617188 C 17.475466 4.9714725 17.464957 5.3540865 17.367188 5.8320312 C 17.211716 6.5920255 16.860755 7.5767433 16.339844 8.6191406 L 14.660156 7.6503906 C 15.302616 6.6785325 15.980074 5.8819013 16.560547 5.3671875 C 16.925858 5.0432608 17.251474 4.8421281 17.447266 4.7617188 z M 19.3125 6.3007812 C 19.564781 6.6725366 19.764399 7.0753388 19.900391 7.4980469 C 20.191451 8.4027611 20.08215 9.4378405 19.669922 10.542969 L 18.076172 9.6230469 C 18.677253 8.4459732 19.098261 7.3075961 19.3125 6.3007812 z " fill="currentColor"/>
</svg>
