<svg xmlns="http://www.w3.org/2000/svg" width="1em" height="1em" viewBox="0 0 24 24" fill="currentColor">
  <path d="M 12 2 C 11.277778 2 10.542119 2.2353472 9.9609375 2.7519531 C 9.5197437 3.1441252 9.2578925 3.7369317 9.1269531 4.3867188 C 6.7247564 5.7275141 5.1321002 8.1803506 5.0019531 10.953125 A 1.0001 1.0001 0 0 0 5 11 L 5 13.900391 C 4.8791902 14.837262 4.3306265 15.662969 3.5078125 16.128906 A 1.0001 1.0001 0 0 0 4 18 L 8 18 C 8 20.197294 9.8027056 22 12 22 A 1 1 0 0 0 13 21 A 1 1 0 0 0 12 20 C 10.883586 20 10 19.116414 10 18 L 12 18 A 1 1 0 0 0 13 17 A 1 1 0 0 0 12 16 L 9 16 L 6.296875 16 C 6.6324599 15.421467 6.9097052 14.802506 6.9921875 14.121094 A 1.0001 1.0001 0 0 0 7 14 L 7 11.041016 C 7.1063513 8.8253737 8.4221024 6.8526639 10.427734 5.9042969 A 1.0001 1.0001 0 0 0 11 5 C 11 4.5833337 11.120244 4.3981073 11.289062 4.2480469 C 11.45788 4.0979864 11.722222 4 12 4 C 12.277778 4 12.542119 4.0979864 12.710938 4.2480469 C 12.879755 4.3981073 13 4.5833337 13 5 A 1.0001 1.0001 0 0 0 13.572266 5.9042969 C 15.577898 6.8526639 16.893649 8.8253737 17 11.041016 L 17 11.5 A 1 1 0 0 0 18 12.5 A 1 1 0 0 0 19 11.5 L 19 11 A 1.0001 1.0001 0 0 0 18.998047 10.953125 C 18.867947 8.1803456 17.275244 5.7275141 14.873047 4.3867188 C 14.742108 3.7369317 14.480255 3.1441252 14.039062 2.7519531 C 13.45788 2.2353472 12.722222 2 12 2 z M 19.001953 14.5 A 1 1 0 0 0 18.001953 15.5 L 18.001953 16.15625 C 17.650707 16.271131 17.316482 16.450991 17.019531 16.701172 L 16.46875 16.384766 A 1 1 0 0 0 15.103516 16.75 A 1 1 0 0 0 15.470703 18.115234 L 16.048828 18.449219 C 16.018359 18.627489 16.001953 18.811393 16.001953 19 C 16.001953 19.188607 16.018359 19.372511 16.048828 19.550781 L 15.470703 19.884766 A 1 1 0 0 0 15.103516 21.25 A 1 1 0 0 0 16.46875 21.615234 L 17.019531 21.298828 C 17.316482 21.549009 17.650707 21.728869 18.001953 21.84375 L 18.001953 22.5 A 1 1 0 0 0 19.001953 23.5 A 1 1 0 0 0 20.001953 22.5 L 20.001953 21.841797 C 20.352392 21.726904 20.68578 21.548801 20.982422 21.298828 L 21.533203 21.615234 A 1 1 0 0 0 22.898438 21.25 A 1 1 0 0 0 22.533203 19.884766 L 21.955078 19.550781 C 21.985716 19.372405 22.001953 19.188728 22.001953 19 C 22.001953 18.811071 21.98578 18.625819 21.955078 18.447266 L 22.53125 18.115234 A 1 1 0 0 0 22.898438 16.75 A 1 1 0 0 0 22.291016 16.283203 A 1 1 0 0 0 21.53125 16.384766 L 20.982422 16.701172 C 20.685894 16.451401 20.352211 16.273037 20.001953 16.158203 L 20.001953 15.5 A 1 1 0 0 0 19.001953 14.5 z M 19.001953 18 C 19.279731 18 19.542119 18.09799 19.710938 18.248047 C 19.737354 18.271528 19.763265 18.29631 19.787109 18.322266 A 1 1 0 0 0 19.867188 18.5 A 1 1 0 0 0 19.958984 18.630859 C 19.986979 18.729861 20.001953 18.850435 20.001953 19 C 20.001953 19.149138 19.98683 19.268351 19.958984 19.367188 A 1 1 0 0 0 19.867188 19.5 A 1 1 0 0 0 19.787109 19.677734 C 19.763265 19.70369 19.737354 19.728472 19.710938 19.751953 C 19.542119 19.902014 19.279731 20 19.001953 20 C 18.724175 20 18.459834 19.902014 18.291016 19.751953 C 18.265546 19.729314 18.241762 19.706555 18.21875 19.681641 A 1 1 0 0 0 18.136719 19.5 A 1 1 0 0 0 18.044922 19.367188 C 18.017583 19.268557 18.001953 19.148605 18.001953 19 C 18.001953 18.85116 18.017501 18.731534 18.044922 18.632812 A 1 1 0 0 0 18.136719 18.5 A 1 1 0 0 0 18.21875 18.318359 C 18.241762 18.293445 18.265546 18.270686 18.291016 18.248047 C 18.459834 18.097986 18.724175 18 19.001953 18 z " fill="currentColor"/>
</svg>
