<svg xmlns="http://www.w3.org/2000/svg" width="1em" height="1em" viewBox="0 0 24 24" fill="currentColor">
  <path d="M 12 2 C 11.277778 2 10.542119 2.2353472 9.9609375 2.7519531 C 9.5197437 3.1441252 9.2578925 3.7369317 9.1269531 4.3867188 C 6.7247564 5.7275141 5.1321002 8.1803506 5.0019531 10.953125 A 1.0001 1.0001 0 0 0 5 11 L 5 13.900391 C 4.8791902 14.837262 4.3306265 15.662969 3.5078125 16.128906 A 1.0001 1.0001 0 0 0 4 18 L 8 18 C 7.9999515 20.465609 10.26283 22.365182 12.691406 21.939453 A 1 1 0 0 0 13.503906 20.783203 A 1 1 0 0 0 12.345703 19.970703 C 11.102191 20.18869 9.9999751 19.262474 10 18 L 12.5 18 A 1 1 0 0 0 13.5 17 A 1 1 0 0 0 12.5 16 L 6.296875 16 C 6.6324599 15.421467 6.9097052 14.802506 6.9921875 14.121094 A 1.0001 1.0001 0 0 0 7 14 L 7 11.041016 C 7.1063513 8.8253737 8.4221024 6.8526639 10.427734 5.9042969 A 1.0001 1.0001 0 0 0 11 5 C 11 4.5833337 11.120244 4.3981073 11.289062 4.2480469 C 11.45788 4.0979864 11.722222 4 12 4 C 12.277778 4 12.542119 4.0979864 12.710938 4.2480469 C 12.879755 4.3981073 13 4.5833337 13 5 A 1.0001 1.0001 0 0 0 13.572266 5.9042969 C 15.577898 6.8526639 16.893649 8.8253737 17 11.041016 L 17 12 A 1 1 0 0 0 18 13 A 1 1 0 0 0 19 12 L 19 11 A 1.0001 1.0001 0 0 0 18.998047 10.953125 C 18.867947 8.1803456 17.275244 5.7275141 14.873047 4.3867188 C 14.742108 3.7369317 14.480255 3.1441252 14.039062 2.7519531 C 13.45788 2.2353472 12.722222 2 12 2 z M 19 15 A 1 1 0 0 0 18 16 L 18 19.585938 L 16.707031 18.292969 A 1 1 0 0 0 15.292969 18.292969 A 1 1 0 0 0 15.292969 19.707031 L 18.283203 22.697266 L 18.292969 22.707031 A 1.0001 1.0001 0 0 0 18.341797 22.75 A 1 1 0 0 0 18.384766 22.787109 A 1.0001 1.0001 0 0 0 18.439453 22.824219 A 1 1 0 0 0 18.492188 22.861328 A 1.0001 1.0001 0 0 0 18.5 22.865234 A 1 1 0 0 0 18.611328 22.921875 A 1.0001 1.0001 0 0 0 18.617188 22.923828 A 1 1 0 0 0 18.742188 22.964844 A 1 1 0 0 0 18.794922 22.976562 A 1.0001 1.0001 0 0 0 19 23 A 1.0001 1.0001 0 0 0 19.205078 22.976562 A 1.0001 1.0001 0 0 0 19.257812 22.964844 A 1 1 0 0 0 19.382812 22.923828 A 1.0001 1.0001 0 0 0 19.560547 22.824219 A 1 1 0 0 0 19.615234 22.787109 A 1.0001 1.0001 0 0 0 19.658203 22.75 A 1 1 0 0 0 19.716797 22.697266 L 22.707031 19.707031 A 1 1 0 0 0 22.707031 18.292969 A 1 1 0 0 0 21.292969 18.292969 L 20 19.585938 L 20 16 A 1 1 0 0 0 19 15 z " fill="currentColor"/>
</svg>
