<svg xmlns="http://www.w3.org/2000/svg" width="1em" height="1em" viewBox="0 0 24 24" fill="currentColor">
  <path d="M 3 2 A 1 1 0 0 0 2.2929688 2.2929688 A 1 1 0 0 0 2.2929688 3.7070312 L 9.1699219 10.583984 L 8.375 11.21875 A 1.0001 1.0001 0 0 0 8.2929688 12.707031 L 11 15.414062 L 11 19 A 1 1 0 0 0 12 20 A 1 1 0 0 0 13 19 L 13 15 A 1.0001 1.0001 0 0 0 12.707031 14.292969 L 10.498047 12.083984 L 10.59375 12.007812 L 15.232422 16.646484 C 14.671428 18.181619 15.1503 19.810457 16.169922 20.830078 C 17.190412 21.850569 18.821138 22.328871 20.357422 21.765625 A 1 1 0 0 0 21.707031 21.707031 A 1 1 0 0 0 21.707031 20.292969 L 3.7070312 2.2929688 A 1 1 0 0 0 3 2 z M 17 3 C 16.527778 3 16.042119 3.1520138 15.648438 3.5019531 C 15.254755 3.8518924 15 4.4166667 15 5 C 15 5.5833333 15.254756 6.1481076 15.648438 6.4980469 C 16.042119 6.8479862 16.527778 7 17 7 C 17.472222 7 17.957881 6.8479862 18.351562 6.4980469 C 18.745244 6.1481076 19 5.5833333 19 5 C 19 4.4166667 18.745244 3.8518924 18.351562 3.5019531 C 17.957881 3.1520138 17.472222 3 17 3 z M 14.015625 7 A 1.0001 1.0001 0 0 0 13.375 7.21875 L 12.255859 8.1152344 A 1 1 0 0 0 12.099609 9.5214844 A 1 1 0 0 0 13.503906 9.6777344 L 13.773438 9.4628906 L 15.167969 11.554688 A 1.0001 1.0001 0 0 0 16 12 L 19 12 A 1 1 0 0 0 20 11 A 1 1 0 0 0 19 10 L 16.535156 10 L 14.832031 7.4453125 A 1.0001 1.0001 0 0 0 14.154297 7.0117188 A 1.0001 1.0001 0 0 0 14.015625 7 z M 5 14 C 4.0277779 14 3.0421194 14.318681 2.2734375 15.001953 C 1.5047556 15.685226 1 16.75 1 18 C 1 19.25 1.5047556 20.314774 2.2734375 20.998047 C 3.0421194 21.681319 4.0277779 22 5 22 C 5.9722221 22 6.9578806 21.681319 7.7265625 20.998047 C 8.4952444 20.314774 9 19.25 9 18 C 9 16.75 8.4952444 15.685226 7.7265625 15.001953 C 6.9578806 14.318681 5.9722221 14 5 14 z M 19 14 A 1 1 0 0 0 18 15 A 1 1 0 0 0 19 16 C 20.116414 16 21 16.883586 21 18 A 1 1 0 0 0 22 19 A 1 1 0 0 0 23 18 C 23 15.802706 21.197294 14 19 14 z M 5 16 C 5.5277779 16 6.0421194 16.18132 6.3984375 16.498047 C 6.7547556 16.814774 7 17.250001 7 18 C 7 18.749999 6.7547556 19.185226 6.3984375 19.501953 C 6.0421194 19.81868 5.5277779 20 5 20 C 4.4722221 20 3.9578806 19.81868 3.6015625 19.501953 C 3.2452444 19.185226 3 18.749999 3 18 C 3 17.250001 3.2452444 16.814774 3.6015625 16.498047 C 3.9578806 16.18132 4.4722221 16 5 16 z M 17.007812 18.421875 L 18.578125 19.992188 C 18.203173 19.905953 17.866387 19.698419 17.583984 19.416016 C 17.301581 19.133613 17.094047 18.796827 17.007812 18.421875 z " fill="currentColor"/>
</svg>
