<svg xmlns="http://www.w3.org/2000/svg" width="1em" height="1em" viewBox="0 0 24 24" fill="currentColor">
  <path d="M 14 1 C 13.277778 1 12.542119 1.2353472 11.960938 1.7519531 C 11.379755 2.268559 11 3.0833335 11 4 C 11 4.7310346 11.242169 5.3965599 11.634766 5.8984375 L 9.6542969 9.0664062 C 9.437836 9.0219876 9.2186574 9 9 9 C 8.2777779 9 7.5421194 9.2353472 6.9609375 9.7519531 C 6.3797556 10.268559 6 11.083334 6 12 C 6 12.730994 6.2422076 13.396569 6.6347656 13.898438 L 4.6542969 17.066406 C 4.4380133 17.022064 4.2184725 17 4 17 C 3.2777779 17 2.5421194 17.235347 1.9609375 17.751953 C 1.3797556 18.268559 1 19.083334 1 20 C 1 20.916666 1.3797556 21.731441 1.9609375 22.248047 C 2.5421194 22.764653 3.2777779 23 4 23 C 4.7222221 23 5.4578806 22.764653 6.0390625 22.248047 C 6.6202444 21.731441 7 20.916666 7 20 C 7 19.268922 6.7578723 18.603451 6.3652344 18.101562 L 8.3457031 14.933594 C 8.5620563 14.977966 8.7814549 15 9 15 C 9.2184215 15 9.4380622 14.977915 9.6542969 14.933594 L 11.634766 18.101562 C 11.242153 18.603444 11 19.268949 11 20 C 11 20.916666 11.379756 21.731441 11.960938 22.248047 C 12.542118 22.764653 13.277778 23 14 23 C 14.722222 23 15.457881 22.764653 16.039062 22.248047 C 16.620244 21.731441 17 20.916666 17 20 C 17 19.083334 16.620244 18.268559 16.039062 17.751953 C 15.457881 17.235347 14.722222 17 14 17 C 13.781449 17 13.562062 17.022031 13.345703 17.066406 L 11.365234 13.900391 C 11.758264 13.398405 12 12.731491 12 12 C 12 11.268713 11.75807 10.601547 11.365234 10.099609 L 13.34375 6.9335938 C 13.56042 6.9781026 13.781124 7 14 7 C 14.218523 7 14.437965 6.977957 14.654297 6.9335938 L 16.634766 10.101562 C 16.242263 10.603417 16 11.269063 16 12 C 16 12.916666 16.379756 13.731441 16.960938 14.248047 C 17.542119 14.764653 18.277778 15 19 15 C 19.722222 15 20.457881 14.764653 21.039062 14.248047 C 21.620244 13.731441 22 12.916666 22 12 C 22 11.083334 21.620244 10.268559 21.039062 9.7519531 C 20.457881 9.2353472 19.722222 9 19 9 C 18.782535 9 18.562974 9.0224775 18.347656 9.0664062 L 18.345703 9.0664062 L 16.365234 5.8984375 C 16.757717 5.3965884 17 4.7309147 17 4 C 17 3.0833335 16.620244 2.268559 16.039062 1.7519531 C 15.457881 1.2353472 14.722222 1 14 1 z M 14 3 C 14.277778 3 14.542119 3.097986 14.710938 3.2480469 C 14.879755 3.3981073 15 3.5833337 15 4 C 15 4.4166663 14.879756 4.6018927 14.710938 4.7519531 C 14.702328 4.7596062 14.69269 4.7680145 14.683594 4.7753906 A 1 1 0 0 0 14.533203 4.8515625 A 1 1 0 0 0 14.443359 4.9140625 C 14.309524 4.9686307 14.157397 5 14 5 C 13.843794 5 13.691704 4.9698234 13.558594 4.9160156 A 1 1 0 0 0 13.46875 4.8515625 A 1 1 0 0 0 13.3125 4.7714844 C 13.304603 4.765007 13.296587 4.7586415 13.289062 4.7519531 C 13.120243 4.6018927 13 4.4166663 13 4 C 13 3.5833337 13.120244 3.3981073 13.289062 3.2480469 C 13.45788 3.0979864 13.722222 3 14 3 z M 9 11 C 9.1540485 11 9.303764 11.02959 9.4355469 11.082031 A 1 1 0 0 0 9.53125 11.150391 A 1 1 0 0 0 9.6914062 11.230469 C 9.6980427 11.235979 9.7045685 11.242386 9.7109375 11.248047 C 9.8797556 11.398107 10 11.583334 10 12 C 10 12.416666 9.8797556 12.601893 9.7109375 12.751953 C 9.6970897 12.764262 9.6830567 12.775526 9.6679688 12.787109 A 1 1 0 0 0 9.5351562 12.857422 A 1 1 0 0 0 9.4667969 12.904297 C 9.3279623 12.964427 9.1659126 13 9 13 C 8.8439402 13 8.6916151 12.96973 8.5585938 12.916016 A 1 1 0 0 0 8.46875 12.851562 A 1 1 0 0 0 8.3125 12.771484 C 8.3045226 12.764946 8.2966604 12.758707 8.2890625 12.751953 C 8.1202444 12.601893 8 12.416666 8 12 C 8 11.583334 8.1202444 11.398107 8.2890625 11.248047 C 8.4578806 11.097986 8.7222221 11 9 11 z M 19 11 C 19.277778 11 19.542119 11.09799 19.710938 11.248047 C 19.879756 11.398107 20 11.583334 20 12 C 20 12.416666 19.879756 12.601893 19.710938 12.751953 C 19.542119 12.902014 19.277778 13 19 13 C 18.722222 13 18.457881 12.902014 18.289062 12.751953 C 18.120244 12.601893 18 12.416666 18 12 C 18 11.585044 18.119382 11.399735 18.287109 11.25 L 18.289062 11.248047 A 1 1 0 0 0 18.474609 11.158203 A 1 1 0 0 0 18.59375 11.072266 C 18.718364 11.026651 18.857098 11 19 11 z M 4 19 C 4.147706 19 4.2921559 19.027663 4.4199219 19.076172 A 1 1 0 0 0 4.5273438 19.154297 A 1 1 0 0 0 4.703125 19.242188 C 4.7054841 19.244233 4.7086144 19.245982 4.7109375 19.248047 C 4.8797556 19.398107 5 19.583334 5 20 C 5 20.416666 4.8797556 20.601893 4.7109375 20.751953 C 4.5421194 20.902014 4.2777779 21 4 21 C 3.7222221 21 3.4578806 20.902014 3.2890625 20.751953 C 3.1202444 20.601893 3 20.416666 3 20 C 3 19.583334 3.1202444 19.398107 3.2890625 19.248047 C 3.4578806 19.097986 3.7222221 19 4 19 z M 14 19 C 14.277778 19 14.542119 19.09799 14.710938 19.248047 C 14.879755 19.398107 15 19.583334 15 20 C 15 20.416666 14.879756 20.601893 14.710938 20.751953 C 14.542118 20.902014 14.277778 21 14 21 C 13.722222 21 13.45788 20.902014 13.289062 20.751953 C 13.120243 20.601893 13 20.416666 13 20 C 13 19.583334 13.120244 19.398107 13.289062 19.248047 C 13.293328 19.244255 13.298348 19.240052 13.302734 19.236328 A 1 1 0 0 0 13.470703 19.152344 A 1 1 0 0 0 13.572266 19.080078 C 13.701978 19.0297 13.849253 19 14 19 z " fill="currentColor"/>
</svg>
