<svg xmlns="http://www.w3.org/2000/svg" width="1em" height="1em" viewBox="0 0 24 24" fill="currentColor">
  <path d="M 12 3 C 11.277778 3 10.542119 3.2353472 9.9609375 3.7519531 C 9.3797556 4.268559 9 5.0833335 9 6 C 9 6.546875 9.134728 7.0575676 9.3671875 7.4902344 L 6.1210938 11.199219 C 5.7598463 11.063733 5.3779529 11 5 11 C 4.2777779 11 3.5421194 11.235347 2.9609375 11.751953 C 2.3797556 12.268559 2 13.083334 2 14 C 2 14.916666 2.3797556 15.731441 2.9609375 16.248047 C 3.5421194 16.764653 4.2777779 17 5 17 C 5.7222221 17 6.4578806 16.764653 7.0390625 16.248047 C 7.6202444 15.731441 8 14.916666 8 14 C 8 13.453125 7.8652721 12.942433 7.6328125 12.509766 L 10.878906 8.8007812 C 10.918944 8.8157975 10.959494 8.8285168 11 8.8417969 L 11 15.158203 C 10.626594 15.280626 10.271685 15.475733 9.9609375 15.751953 C 9.3797556 16.268559 9 17.083334 9 18 C 9 18.916666 9.3797556 19.731441 9.9609375 20.248047 C 10.542119 20.764653 11.277778 21 12 21 C 12.722222 21 13.45788 20.764653 14.039062 20.248047 C 14.620243 19.731441 15 18.916666 15 18 C 15 17.083334 14.620244 16.268559 14.039062 15.751953 C 13.728315 15.475733 13.373406 15.280626 13 15.158203 L 13 8.8417969 C 13.040561 8.8284988 13.081002 8.8158202 13.121094 8.8007812 L 16.367188 12.509766 C 16.13472 12.942438 16 13.453115 16 14 C 16 14.916666 16.379756 15.731441 16.960938 16.248047 C 17.542119 16.764653 18.277778 17 19 17 C 19.722222 17 20.457881 16.764653 21.039062 16.248047 C 21.620244 15.731441 22 14.916666 22 14 C 22 13.083334 21.620244 12.268559 21.039062 11.751953 C 20.457881 11.235347 19.722222 11 19 11 C 18.622055 11 18.240147 11.063739 17.878906 11.199219 L 14.632812 7.4902344 C 14.865222 7.0575997 15 6.5468115 15 6 C 15 5.0833335 14.620244 4.268559 14.039062 3.7519531 C 13.45788 3.2353472 12.722222 3 12 3 z M 12 5 C 12.277778 5 12.542119 5.097986 12.710938 5.2480469 C 12.879755 5.3981073 13 5.5833337 13 6 C 13 6.320301 12.929868 6.5046955 12.820312 6.640625 A 1 1 0 0 0 12.660156 6.7539062 A 1 1 0 0 0 12.554688 6.8613281 C 12.398267 6.9476953 12.202509 7 12 7 C 11.800347 7 11.608416 6.9494269 11.453125 6.8652344 A 1 1 0 0 0 11.341797 6.7519531 A 1 1 0 0 0 11.175781 6.6347656 C 11.068793 6.4993999 11 6.3158768 11 6 C 11 5.5833337 11.120244 5.3981073 11.289062 5.2480469 C 11.45788 5.0979864 11.722222 5 12 5 z M 5 13 C 5.199656 13 5.3915829 13.050571 5.546875 13.134766 A 1 1 0 0 0 5.6582031 13.248047 A 1 1 0 0 0 5.8242188 13.365234 C 5.9315289 13.500671 6 13.683566 6 14 C 6 14.416666 5.8797556 14.601893 5.7109375 14.751953 C 5.5421194 14.902014 5.2777779 15 5 15 C 4.7222221 15 4.4578806 14.902014 4.2890625 14.751953 C 4.1202444 14.601893 4 14.416666 4 14 C 4 13.583334 4.1202444 13.398107 4.2890625 13.248047 C 4.4578806 13.097986 4.7222221 13 5 13 z M 19 13 C 19.277778 13 19.542119 13.09799 19.710938 13.248047 C 19.879756 13.398107 20 13.583334 20 14 C 20 14.416666 19.879756 14.601893 19.710938 14.751953 C 19.542119 14.902014 19.277778 15 19 15 C 18.722222 15 18.457881 14.902014 18.289062 14.751953 C 18.120244 14.601893 18 14.416666 18 14 C 18 13.683569 18.068473 13.500671 18.175781 13.365234 A 1 1 0 0 0 18.341797 13.248047 A 1 1 0 0 0 18.453125 13.134766 C 18.608416 13.050573 18.800347 13 19 13 z M 12 17 C 12.277778 17 12.542119 17.09799 12.710938 17.248047 C 12.879755 17.398107 13 17.583334 13 18 C 13 18.416666 12.879756 18.601893 12.710938 18.751953 C 12.542118 18.902014 12.277778 19 12 19 C 11.722222 19 11.45788 18.902014 11.289062 18.751953 C 11.120243 18.601893 11 18.416666 11 18 C 11 17.583334 11.120244 17.398107 11.289062 17.248047 C 11.457879 17.097987 11.722224 17.000001 12 17 z " fill="currentColor"/>
</svg>
