<svg xmlns="http://www.w3.org/2000/svg" width="1em" height="1em" viewBox="0 0 24 24" fill="currentColor">
  <path d="M 11.990234 2.0019531 C 10.956831 2.0019531 9.9234267 2.5067525 9.3652344 3.515625 L 2.2753906 15.748047 A 1.0001 1.0001 0 0 0 2.2128906 15.873047 C 1.4477561 17.756751 2.8074196 19.893365 4.8378906 19.998047 A 1 1 0 0 0 4.9570312 19.957031 A 1 1 0 0 0 5 20 L 19 20 A 1.0001 1.0001 0 0 0 19.007812 20 C 21.092305 19.98538 22.549333 17.807403 21.767578 15.875 A 1.0001 1.0001 0 0 0 21.705078 15.748047 L 14.615234 3.515625 C 14.057042 2.5067525 13.023638 2.0019531 11.990234 2.0019531 z M 11.990234 3.9335938 C 12.326262 3.9335938 12.66229 4.1175753 12.865234 4.484375 A 1.0001 1.0001 0 0 0 12.875 4.5019531 L 19.910156 16.642578 C 20.17153 17.322085 19.725282 17.994857 18.992188 18 L 5 18 A 1 1 0 0 0 4.96875 18.03125 A 1 1 0 0 0 4.9414062 18.001953 C 4.2309718 17.965329 3.8138366 17.303691 4.0683594 16.644531 L 11.105469 4.5019531 A 1.0001 1.0001 0 0 0 11.115234 4.484375 C 11.318179 4.1175753 11.654206 3.9335936 11.990234 3.9335938 z M 10 11 C 9.0833335 11 8.268559 11.379756 7.7519531 11.960938 C 7.2353472 12.542118 7 13.277778 7 14 C 7 14.722222 7.2353472 15.457881 7.7519531 16.039062 C 8.268559 16.620244 9.0833335 17 10 17 L 11 17 A 1 1 0 0 0 12 16 A 1 1 0 0 0 11 15 L 10 15 C 9.5833337 15 9.3981073 14.879756 9.2480469 14.710938 C 9.0979864 14.542118 9 14.277778 9 14 C 9 13.722222 9.0979864 13.45788 9.2480469 13.289062 C 9.3981073 13.120243 9.5833337 13 10 13 L 11 13 A 1 1 0 0 0 12 12 A 1 1 0 0 0 11 11 L 10 11 z M 14 11 A 1 1 0 0 0 13 12 L 13 16 A 1.0001 1.0001 0 0 0 14 17 L 16 17 A 1 1 0 0 0 17 16 A 1 1 0 0 0 16 15 L 15 15 L 15 12 A 1 1 0 0 0 14 11 z " fill="currentColor"/>
</svg>
