<svg xmlns="http://www.w3.org/2000/svg" width="1em" height="1em" viewBox="0 0 24 24" fill="currentColor">
  <path d="M 12 2 A 1.0001 1.0001 0 0 0 11 3 L 6 3 C 4.9072751 3 4 3.9072751 4 5 L 4 9 C 4 10.092725 4.9072751 11 6 11 L 8.2558594 11 L 8.9101562 14.595703 C 7.7674184 15.302497 7 16.567101 7 18 L 7 20 C 7 21.092725 7.9072751 22 9 22 L 17 22 C 18.092725 22 19 21.092725 19 20 L 19 18 C 19 16.567086 18.232603 15.302492 17.089844 14.595703 L 18.769531 5.3574219 C 18.989322 4.1493735 18.030614 2.9998147 16.802734 3 L 15 3 A 1.0001 1.0001 0 0 0 14 2 L 12 2 z M 6 5 L 7.1640625 5 L 7.8925781 9 L 6 9 L 6 5 z M 9.1992188 5 L 16.802734 5 L 15.164062 14.003906 C 15.10956 14.001668 15.055019 14 15 14 L 11 14 C 10.945025 14 10.890396 14.001671 10.835938 14.003906 L 9.1992188 5 z M 11 16 L 15 16 C 16.116414 16 17 16.883586 17 18 L 17 20 L 9 20 L 9 18 C 9 16.883586 9.8835859 16 11 16 z M 13 17 A 1 1 0 0 0 12 18 L 12 18.009766 A 1 1 0 0 0 13 19.009766 A 1 1 0 0 0 14 18.009766 L 14 18 A 1 1 0 0 0 13 17 z " fill="currentColor"/>
</svg>
