<svg xmlns="http://www.w3.org/2000/svg" width="1em" height="1em" viewBox="0 0 24 24" fill="currentColor">
  <path d="M 10 2 C 9.5277779 2 9.0421194 2.1520138 8.6484375 2.5019531 C 8.2547556 2.8518924 8 3.4166667 8 4 C 8 4.5833333 8.2547556 5.1481076 8.6484375 5.4980469 C 9.0421194 5.8479862 9.5277779 6 10 6 C 10.472222 6 10.957881 5.8479862 11.351562 5.4980469 C 11.745243 5.1481076 12 4.5833333 12 4 C 12 3.4166667 11.745244 2.8518924 11.351562 2.5019531 C 10.95788 2.1520138 10.472222 2 10 2 z M 9.0332031 7 A 1 1 0 0 0 8.765625 7.0273438 A 1.0001 1.0001 0 0 0 8.7578125 7.0292969 L 4.7578125 8.0292969 A 1.0001 1.0001 0 0 0 4.1679688 8.4453125 L 2.1679688 11.445312 A 1 1 0 0 0 2.4453125 12.832031 A 1 1 0 0 0 3.8320312 12.554688 L 5.6171875 9.8769531 L 7.7636719 9.3398438 L 7.0136719 13.835938 A 1.0001 1.0001 0 0 0 7.2929688 14.707031 L 10.177734 17.591797 L 12.105469 21.447266 A 1 1 0 0 0 13.447266 21.894531 A 1 1 0 0 0 13.894531 20.552734 L 11.894531 16.552734 A 1.0001 1.0001 0 0 0 11.707031 16.292969 L 9.0703125 13.65625 L 9.7324219 9.6914062 L 14.445312 12.832031 A 1 1 0 0 0 15.832031 12.554688 A 1 1 0 0 0 15.554688 11.167969 L 9.5546875 7.1679688 A 1.0001 1.0001 0 0 0 9.5292969 7.1523438 A 1 1 0 0 0 9.4335938 7.0996094 A 1.0001 1.0001 0 0 0 9.4277344 7.0976562 A 1 1 0 0 0 9.3046875 7.046875 A 1.0001 1.0001 0 0 0 9.2910156 7.0429688 A 1 1 0 0 0 9.2558594 7.0351562 A 1.0001 1.0001 0 0 0 9.1640625 7.0136719 A 1 1 0 0 0 9.0332031 7 z M 16.429688 13.001953 A 1 1 0 0 0 16.052734 13.105469 A 1 1 0 0 0 15.605469 14.447266 L 19.105469 21.447266 A 1 1 0 0 0 20.447266 21.894531 A 1 1 0 0 0 20.894531 20.552734 L 17.394531 13.552734 A 1 1 0 0 0 16.429688 13.001953 z M 6.9882812 16 A 1 1 0 0 0 6.1992188 16.400391 L 3.1992188 20.400391 A 1 1 0 0 0 3.4003906 21.800781 A 1 1 0 0 0 4.8007812 21.599609 L 7.8007812 17.599609 A 1 1 0 0 0 7.5996094 16.199219 A 1 1 0 0 0 6.9882812 16 z " fill="currentColor"/>
</svg>
