<svg xmlns="http://www.w3.org/2000/svg" width="1em" height="1em" viewBox="0 0 24 24" fill="currentColor">
  <path d="M 3 2 A 1 1 0 0 0 2.2929688 2.2929688 A 1 1 0 0 0 2.2929688 3.7070312 L 9.0917969 10.505859 L 7.9472656 11.650391 C 5.9769025 10.53222 3.3400385 11.173731 2.3554688 13.365234 C 1.3095109 15.693378 2.7932498 18.28051 5.1894531 18.8125 C 5.7196944 21.210282 8.3097117 22.695851 10.638672 21.650391 C 12.829781 20.666811 13.47188 18.031246 12.355469 16.060547 L 13.5 14.914062 L 20.292969 21.707031 A 1 1 0 0 0 21.707031 21.707031 A 1 1 0 0 0 21.707031 20.292969 L 14.207031 12.794922 L 11.212891 9.8007812 L 3.7070312 2.2929688 A 1 1 0 0 0 3 2 z M 14.945312 2.0039062 C 14.456156 2.0069534 13.956552 2.1025194 13.46875 2.3046875 C 11.174812 3.2554174 10.491509 6.0082143 11.699219 8.0214844 A 1 1 0 0 0 11.792969 9.2089844 A 1 1 0 0 0 13.207031 9.2089844 L 13.587891 8.8300781 A 1.0001 1.0001 0 0 0 13.585938 7.4140625 C 12.552279 6.3816425 12.884747 4.7117013 14.234375 4.1523438 C 15.584003 3.5929863 17.000312 4.5390284 17 6 A 1.0001 1.0001 0 0 0 18 7 C 19.460527 6.9996882 20.406207 8.4161447 19.847656 9.765625 C 19.289105 11.115105 17.619017 11.44648 16.585938 10.414062 A 1.0001 1.0001 0 0 0 15.173828 10.414062 L 14.800781 10.787109 A 1 1 0 0 0 14.800781 12.201172 A 1 1 0 0 0 15.806641 12.201172 C 17.829778 13.562547 20.720306 12.889669 21.697266 10.529297 C 22.662555 8.1971213 21.137024 5.7188415 18.792969 5.2070312 C 18.423971 3.5158525 17.086478 2.2276717 15.429688 2.03125 C 15.269544 2.012264 15.108365 2.0028905 14.945312 2.0039062 z M 10.505859 11.919922 L 12.085938 13.5 L 10.414062 15.173828 A 1.0001 1.0001 0 0 0 10.414062 16.585938 C 11.426751 17.599466 11.125441 19.237475 9.8183594 19.824219 C 8.5128008 20.410279 7.0931992 19.548375 7.0058594 18.121094 L 7.0058594 18 A 1.0001 1.0001 0 0 0 6.0058594 17 L 5.8828125 17 C 4.4548872 16.91313 3.5929719 15.491487 4.1796875 14.185547 C 4.7670879 12.878082 6.4069411 12.577686 7.4199219 13.591797 A 1.0001 1.0001 0 0 0 8.8339844 13.591797 L 10.505859 11.919922 z " fill="currentColor"/>
</svg>
