<svg xmlns="http://www.w3.org/2000/svg" width="1em" height="1em" viewBox="0 0 24 24" fill="currentColor">
  <path d="M 3 2 A 1 1 0 0 0 2.2929688 2.2929688 A 1 1 0 0 0 2.2929688 3.7070312 L 5.1953125 6.609375 C 4.4708304 7.1593067 4 8.0295543 4 9 L 4 21 A 1.0001 1.0001 0 0 0 5.5136719 21.857422 L 10 19.166016 L 14.486328 21.857422 A 1.0001 1.0001 0 0 0 16 21 L 16 17.414062 L 20.292969 21.707031 A 1 1 0 0 0 21.707031 21.707031 A 1 1 0 0 0 21.707031 20.292969 L 15.716797 14.302734 A 1 1 0 0 0 15.697266 14.283203 L 7.7167969 6.3027344 A 1 1 0 0 0 7.6972656 6.2832031 L 3.7070312 2.2929688 A 1 1 0 0 0 3 2 z M 11 2 C 9.9289816 1.9991188 8.9339929 2.5723882 8.3984375 3.5 A 1 1 0 0 0 8.765625 4.8652344 A 1 1 0 0 0 10.130859 4.5 C 10.310563 4.1887441 10.63864 3.9994702 10.998047 4 A 1.0001 1.0001 0 0 0 11 4 L 17 4 C 17.564129 4 18 4.4358706 18 5 L 18 15 A 1 1 0 0 0 19 16 A 1 1 0 0 0 20 15 L 20 5 C 20 3.3549904 18.64501 2 17 2 L 11.001953 2 L 11 2 z M 11 6 A 1 1 0 0 0 10 7 A 1 1 0 0 0 11 8 L 13 8 C 13.564129 8 14 8.4358706 14 9 L 14 11 A 1 1 0 0 0 15 12 A 1 1 0 0 0 16 11 L 16 9 C 16 7.3549904 14.64501 6 13 6 L 11 6 z M 6.6464844 8.0605469 L 14 15.414062 L 14 19.234375 L 10.513672 17.142578 A 1.0001 1.0001 0 0 0 9.4863281 17.142578 L 6 19.234375 L 6 9 C 6 8.5609958 6.2635334 8.1992379 6.6464844 8.0605469 z " fill="currentColor"/>
</svg>
