<svg xmlns="http://www.w3.org/2000/svg" width="1em" height="1em" viewBox="0 0 24 24" fill="currentColor">
  <path d="M 3 2 A 1 1 0 0 0 2.2929688 2.2929688 A 1 1 0 0 0 2.2929688 3.7070312 L 4 5.4140625 L 4 19 C 4 20.092725 4.9072751 21 6 21 L 8 21 C 8.3625325 21 8.7046524 20.899932 9 20.726562 C 9.2953475 20.899932 9.6374677 21 10 21 L 12 21 C 13.092725 21 14 20.092725 14 19 L 14 15.414062 L 14.884766 16.298828 L 15.767578 19.503906 C 16.062934 20.576305 17.180474 21.199751 18.248047 20.941406 L 19.277344 20.691406 L 20.292969 21.707031 A 1 1 0 0 0 21.707031 21.707031 A 1 1 0 0 0 21.707031 20.292969 L 16.480469 15.068359 L 13.716797 12.302734 A 1 1 0 0 0 13.697266 12.283203 L 9.7167969 8.3027344 A 1 1 0 0 0 9.6972656 8.2832031 L 8.7167969 7.3027344 A 1 1 0 0 0 8.6972656 7.2832031 L 5.7167969 4.3027344 A 1 1 0 0 0 5.6972656 4.2832031 L 3.7070312 2.2929688 A 1 1 0 0 0 3 2 z M 8 3 A 1 1 0 0 0 7 4 A 1 1 0 0 0 8 5 A 1 1 0 0 0 9 6 A 1 1 0 0 0 10 5 L 12 5 L 12 9 A 1 1 0 0 0 13 10 A 1 1 0 0 0 13.146484 9.9902344 L 13.289062 10.509766 A 1 1 0 0 0 14.519531 11.208984 A 1 1 0 0 0 15.21875 9.9785156 L 15.154297 9.7421875 L 17.445312 9.1699219 L 18.849609 14.263672 A 1 1 0 0 0 18.236328 15.443359 A 1 1 0 0 0 19.376953 16.183594 L 19.541016 16.777344 A 1 1 0 0 0 20.771484 17.476562 A 1 1 0 0 0 21.46875 16.246094 L 18.232422 4.4960938 C 17.937415 3.4229832 16.819895 2.8025286 15.753906 3.0585938 A 1.0001 1.0001 0 0 0 15.751953 3.0585938 L 13.566406 3.5878906 A 1.0001 1.0001 0 0 0 13.507812 3.6035156 L 13.443359 3.6230469 C 13.077549 3.2401506 12.562945 3 12 3 L 10 3 C 9.6374677 3 9.2953475 3.1000683 9 3.2734375 C 8.7046524 3.1000682 8.3625325 3 8 3 z M 16.240234 4.9980469 C 16.264978 4.9959076 16.284873 5.00586 16.294922 5.0136719 C 16.295981 5.0146722 16.299911 5.0185364 16.300781 5.0195312 C 16.30147 5.0204915 16.304174 5.0244944 16.304688 5.0253906 L 16.304688 5.0273438 L 16.914062 7.2402344 L 14.621094 7.8125 L 14.001953 5.5644531 C 14.000793 5.5601295 14.000125 5.5553737 14 5.5527344 L 14 5.5507812 L 14 5.5488281 L 14.001953 5.5488281 L 14.001953 5.546875 L 14.003906 5.5449219 L 14.005859 5.5449219 L 14.007812 5.5429688 C 14.009495 5.5422241 14.011396 5.5418534 14.013672 5.5410156 L 14.068359 5.5253906 L 16.220703 5.0019531 C 16.227954 5.0002112 16.234048 4.9985817 16.240234 4.9980469 z M 6 9 L 7.5859375 9 L 8 9.4140625 L 8 19 L 6 19 L 6 9 z M 10 11.414062 L 12 13.414062 L 12 15 L 10 15 L 10 11.414062 z M 10 17 L 12 17 L 12 19 L 10 19 L 10 17 z " fill="currentColor"/>
</svg>
