<svg xmlns="http://www.w3.org/2000/svg" width="1em" height="1em" viewBox="0 0 24 24" fill="currentColor">
  <path d="M 6 3 C 4.9072751 3 4 3.9072751 4 5 L 4 19 C 4 20.092725 4.9072751 21 6 21 L 8 21 C 8.3625323 21 8.7046525 20.899932 9 20.726562 C 9.2953476 20.899932 9.6374675 21 10 21 L 12 21 C 13.092725 21 14 20.092725 14 19 L 14 13.085938 L 15.767578 19.503906 C 16.062585 20.577017 17.180105 21.197471 18.246094 20.941406 A 1.0001 1.0001 0 0 0 18.248047 20.941406 L 20.433594 20.412109 A 1.0001 1.0001 0 0 0 20.492188 20.396484 L 20.625 20.355469 A 1.0001 1.0001 0 0 0 20.675781 20.337891 C 21.646573 19.981084 22.194969 18.923515 21.929688 17.923828 A 1.0001 1.0001 0 0 0 21.927734 17.914062 L 18.232422 4.4960938 C 17.937415 3.4229832 16.819895 2.8025286 15.753906 3.0585938 A 1.0001 1.0001 0 0 0 15.751953 3.0585938 L 13.566406 3.5878906 A 1 1 0 0 0 13.554688 3.6074219 A 1 1 0 0 0 13.507812 3.6035156 L 13.443359 3.6230469 C 13.077549 3.2401515 12.562944 3 12 3 L 10 3 C 9.6374675 3 9.2953476 3.1000682 9 3.2734375 C 8.7046525 3.1000683 8.3625323 3 8 3 L 6 3 z M 16.240234 4.9980469 C 16.264978 4.9959076 16.284873 5.00586 16.294922 5.0136719 C 16.295981 5.0146722 16.299911 5.0185364 16.300781 5.0195312 C 16.30147 5.0204915 16.304174 5.0244944 16.304688 5.0253906 L 16.304688 5.0273438 L 16.914062 7.2402344 L 14.621094 7.8125 L 14.001953 5.5644531 C 14.000793 5.5601295 14.000125 5.5553737 14 5.5527344 L 14 5.5507812 L 14 5.5488281 L 14.001953 5.5488281 L 14.001953 5.546875 L 14.003906 5.5449219 L 14.005859 5.5449219 L 14.007812 5.5429688 C 14.009495 5.5422241 14.011396 5.5418534 14.013672 5.5410156 L 14.076172 5.5214844 L 16.220703 5.0019531 C 16.227954 5.0002112 16.234048 4.9985817 16.240234 4.9980469 z M 6 5 L 8 5 L 8 7 L 6 7 L 6 5 z M 10 5 L 12 5 L 12 15 L 10 15 L 10 5 z M 6 9 L 8 9 L 8 19 L 6 19 L 6 9 z M 17.445312 9.1699219 L 18.847656 14.257812 L 16.554688 14.830078 L 15.152344 9.7421875 L 17.445312 9.1699219 z M 19.378906 16.1875 L 19.998047 18.435547 C 19.999172 18.439742 19.999847 18.444665 20 18.447266 L 20 18.449219 L 20 18.451172 L 19.998047 18.451172 L 19.998047 18.453125 L 19.996094 18.455078 L 19.994141 18.455078 C 19.992066 18.456195 19.989658 18.457757 19.986328 18.458984 L 19.931641 18.474609 L 17.779297 18.998047 C 17.743041 19.006759 17.717639 18.996094 17.705078 18.986328 C 17.704019 18.985328 17.700089 18.981464 17.699219 18.980469 C 17.69853 18.979508 17.695826 18.975506 17.695312 18.974609 L 17.695312 18.972656 L 17.085938 16.759766 L 19.378906 16.1875 z M 10 17 L 12 17 L 12 19 L 10 19 L 10 17 z " fill="currentColor"/>
</svg>
