<svg xmlns="http://www.w3.org/2000/svg" width="1em" height="1em" viewBox="0 0 24 24" fill="currentColor">
  <path d="M 6 3 C 4.3549904 3 3 4.3549904 3 6 L 3 20 A 1 1 0 0 0 4 21 A 1 1 0 0 0 5 20 L 5 6 C 5 5.4358706 5.4358706 5 6 5 L 20 5 A 1 1 0 0 0 21 4 A 1 1 0 0 0 20 3 L 6 3 z M 20 7 A 1 1 0 0 0 19 8 L 19 8.0097656 A 1 1 0 0 0 20 9.0097656 A 1 1 0 0 0 21 8.0097656 L 21 8 A 1 1 0 0 0 20 7 z M 20 11 A 1 1 0 0 0 19 12 L 19 12.009766 A 1 1 0 0 0 20 13.009766 A 1 1 0 0 0 21 12.009766 L 21 12 A 1 1 0 0 0 20 11 z M 20 15 A 1 1 0 0 0 19 16 L 19 16.009766 A 1 1 0 0 0 20 17.009766 A 1 1 0 0 0 21 16.009766 L 21 16 A 1 1 0 0 0 20 15 z M 8 19 A 1 1 0 0 0 7 20 L 7 20.009766 A 1 1 0 0 0 8 21.009766 A 1 1 0 0 0 9 20.009766 L 9 20 A 1 1 0 0 0 8 19 z M 12 19 A 1 1 0 0 0 11 20 L 11 20.009766 A 1 1 0 0 0 12 21.009766 A 1 1 0 0 0 13 20.009766 L 13 20 A 1 1 0 0 0 12 19 z M 16 19 A 1 1 0 0 0 15 20 L 15 20.009766 A 1 1 0 0 0 16 21.009766 A 1 1 0 0 0 17 20.009766 L 17 20 A 1 1 0 0 0 16 19 z M 20 19 A 1 1 0 0 0 19 20 L 19 20.009766 A 1 1 0 0 0 20 21.009766 A 1 1 0 0 0 21 20.009766 L 21 20 A 1 1 0 0 0 20 19 z " fill="currentColor"/>
</svg>
