<svg xmlns="http://www.w3.org/2000/svg" width="1em" height="1em" viewBox="0 0 24 24" fill="currentColor">
  <path d="M 11 1 C 9.9072751 1 9 1.9072751 9 3 L 9 3.5 C 9.000166 4.1481884 8.9083732 4.7938476 8.7265625 5.4160156 A 1 1 0 0 0 9.40625 6.65625 A 1 1 0 0 0 10.638672 6 L 13.361328 6 C 13.636387 6.9314098 14.065013 7.8166336 14.634766 8.6171875 A 1.0001 1.0001 0 0 0 14.636719 8.6191406 L 14.685547 8.6875 C 15.540832 9.8889253 16.00009 11.326015 16 12.800781 L 16 13 A 1 1 0 0 0 17 14 A 1 1 0 0 0 18 13 L 18 12.800781 C 18.000115 10.910445 17.410747 9.0673151 16.314453 7.5273438 A 1.0001 1.0001 0 0 0 16.314453 7.5253906 L 16.265625 7.4570312 L 16.263672 7.4550781 C 15.442113 6.2996893 15 4.9172444 15 3.5 L 15 3 C 15 1.9072751 14.092725 1 13 1 L 11 1 z M 3 2 A 1 1 0 0 0 2.2929688 2.2929688 A 1 1 0 0 0 2.2929688 3.7070312 L 7.0839844 8.4980469 C 6.3750326 9.81699 6.0000796 11.294864 6 12.800781 L 6 19 C 6 20.64501 7.3549904 22 9 22 L 15 22 C 16.513439 22 17.781464 20.853161 17.974609 19.388672 L 20.292969 21.707031 A 1 1 0 0 0 21.707031 21.707031 A 1 1 0 0 0 21.707031 20.292969 L 17.716797 16.302734 A 1 1 0 0 0 17.697266 16.283203 L 15.644531 14.230469 A 1 1 0 0 0 15.494141 14.080078 L 9.1757812 7.7617188 A 1 1 0 0 0 8.9140625 7.5 L 3.7070312 2.2929688 A 1 1 0 0 0 3 2 z M 11 3 L 13 3 L 13 4 L 11 4 L 11 3.5039062 L 11 3.5 L 11 3 z M 8.5800781 9.9941406 L 10.640625 12.054688 C 10.430845 12.017831 10.216738 12.000797 10 12.003906 C 9.2780883 11.993554 8.5799196 12.211419 8.0019531 12.613281 C 8.025938 11.708149 8.2241237 10.819763 8.5800781 9.9941406 z M 9.9785156 14 A 1.0001 1.0001 0 0 0 10.021484 14 C 10.483825 13.9903 10.917844 14.208301 11.1875 14.583984 C 11.836595 15.488299 12.891639 16.01333 14.003906 15.996094 C 14.186144 15.998588 14.367212 15.986518 14.546875 15.960938 L 16 17.414062 L 16 19 C 16 19.564129 15.564129 20 15 20 L 9 20 C 8.4358706 20 8 19.564129 8 19 L 8 15.384766 C 8.3127163 15.166649 8.5880124 14.895949 8.8125 14.583984 C 9.0821563 14.208301 9.5161752 13.990315 9.9785156 14 z " fill="currentColor"/>
</svg>
