<svg xmlns="http://www.w3.org/2000/svg" width="1em" height="1em" viewBox="0 0 24 24" fill="currentColor">
  <path d="M 6 4 C 5.0833335 4 4.268559 4.3797556 3.7519531 4.9609375 C 3.2353472 5.5421194 3 6.2777779 3 7 C 3 7.7222221 3.2353472 8.4578806 3.7519531 9.0390625 C 4.268559 9.6202444 5.0833335 10 6 10 C 6.9166665 10 7.731441 9.6202444 8.2480469 9.0390625 C 8.7646528 8.4578806 9 7.7222221 9 7 C 9 6.2777779 8.7646528 5.5421194 8.2480469 4.9609375 C 7.731441 4.3797556 6.9166665 4 6 4 z M 6 6 C 6.4166663 6 6.6018927 6.1202444 6.7519531 6.2890625 C 6.9020136 6.4578806 7 6.7222221 7 7 C 7 7.2777779 6.9020136 7.5421194 6.7519531 7.7109375 C 6.6018927 7.8797556 6.4166663 8 6 8 C 5.5833337 8 5.3981073 7.8797556 5.2480469 7.7109375 C 5.0979864 7.5421194 5 7.2777779 5 7 C 5 6.7222221 5.0979864 6.4578806 5.2480469 6.2890625 C 5.3981073 6.1202444 5.5833337 6 6 6 z M 8.984375 11 A 1 1 0 0 0 8.4863281 11.142578 A 1 1 0 0 0 8.1425781 12.513672 C 9.5921374 14.929604 10.534407 17.288473 11.013672 20.164062 A 1.0001 1.0001 0 0 0 12.894531 20.447266 C 14.090866 18.054597 15.221184 16.888536 16.242188 16.402344 C 17.263192 15.916152 18.310085 15.991387 19.683594 16.449219 A 1 1 0 0 0 20.949219 15.816406 A 1 1 0 0 0 20.316406 14.550781 C 18.689915 14.008618 16.986809 13.833853 15.382812 14.597656 C 14.281757 15.121968 13.309568 16.201324 12.375 17.564453 C 11.785225 15.414747 11.005712 13.400146 9.8574219 11.486328 A 1 1 0 0 0 8.984375 11 z " fill="currentColor"/>
</svg>
