<svg xmlns="http://www.w3.org/2000/svg" width="1em" height="1em" viewBox="0 0 24 24" fill="currentColor">
  <path d="M 4 7 C 2.9072751 7 2 7.9072751 2 9 L 2 9.5 C 2 10.764 2.6752871 12.049566 3.5117188 13.433594 C 4.2247236 14.613389 5.06571 15.667347 6 16.417969 L 6 17 C 6 18.092725 6.9072751 19 8 19 L 16 19 C 17.092725 19 18 18.092725 18 17 L 18 16.412109 C 18.879072 15.689972 19.682182 14.66811 20.408203 13.490234 C 20.837528 12.79371 21.218763 12.078356 21.503906 11.410156 C 21.78905 10.741956 22 10.154667 22 9.5 L 22 9 C 22 7.9072751 21.092725 7 20 7 L 4 7 z M 4 9 L 20 9 L 20 9.5 C 20 9.595333 19.897201 10.078669 19.664062 10.625 C 19.430926 11.171331 19.090378 11.814353 18.705078 12.439453 C 17.934477 13.689654 16.869629 14.902981 16.470703 15.152344 A 1.0001 1.0001 0 0 0 16 16 L 16 17 L 8 17 L 8 16 A 1.0001 1.0001 0 0 0 7.5292969 15.152344 C 6.9872177 14.813665 5.9644747 13.627863 5.2226562 12.400391 C 4.4808379 11.172918 4 9.736 4 9.5 L 4 9 z " fill="currentColor"/>
</svg>
