<svg xmlns="http://www.w3.org/2000/svg" width="1em" height="1em" viewBox="0 0 24 24" fill="currentColor">
  <path d="M 5 3 C 3.9072751 3 3 3.9072751 3 5 L 3 10 C 3 11.092725 3.9072751 12 5 12 L 10 12 C 11.092725 12 12 11.092725 12 10 L 12 5 C 12 3.9072751 11.092725 3 10 3 L 5 3 z M 14.990234 3 A 1 1 0 0 0 13.990234 4 A 1 1 0 0 0 14.990234 5 L 15 5 A 1 1 0 0 0 16 4 A 1 1 0 0 0 15 3 L 14.990234 3 z M 19.990234 3 A 1 1 0 0 0 18.990234 4 A 1 1 0 0 0 19.990234 5 L 20 5 A 1 1 0 0 0 21 4 A 1 1 0 0 0 20 3 L 19.990234 3 z M 5 5 L 10 5 L 10 10 L 5 10 L 5 5 z M 19.990234 8 A 1 1 0 0 0 18.990234 9 A 1 1 0 0 0 19.990234 10 L 20 10 A 1 1 0 0 0 21 9 A 1 1 0 0 0 20 8 L 19.990234 8 z M 3.9902344 14 A 1 1 0 0 0 2.9902344 15 A 1 1 0 0 0 3.9902344 16 L 4 16 A 1 1 0 0 0 5 15 A 1 1 0 0 0 4 14 L 3.9902344 14 z M 19.990234 14 A 1 1 0 0 0 18.990234 15 A 1 1 0 0 0 19.990234 16 L 20 16 A 1 1 0 0 0 21 15 A 1 1 0 0 0 20 14 L 19.990234 14 z M 3.9902344 19 A 1 1 0 0 0 2.9902344 20 A 1 1 0 0 0 3.9902344 21 L 4 21 A 1 1 0 0 0 5 20 A 1 1 0 0 0 4 19 L 3.9902344 19 z M 8.9902344 19 A 1 1 0 0 0 7.9902344 20 A 1 1 0 0 0 8.9902344 21 L 9 21 A 1 1 0 0 0 10 20 A 1 1 0 0 0 9 19 L 8.9902344 19 z M 14.990234 19 A 1 1 0 0 0 13.990234 20 A 1 1 0 0 0 14.990234 21 L 15 21 A 1 1 0 0 0 16 20 A 1 1 0 0 0 15 19 L 14.990234 19 z M 19.990234 19 A 1 1 0 0 0 18.990234 20 A 1 1 0 0 0 19.990234 21 L 20 21 A 1 1 0 0 0 21 20 A 1 1 0 0 0 20 19 L 19.990234 19 z " fill="currentColor"/>
</svg>
