<svg xmlns="http://www.w3.org/2000/svg" width="1em" height="1em" viewBox="0 0 24 24" fill="currentColor">
  <path d="M 4 3 A 1 1 0 0 0 3 4 L 3 4.0097656 A 1 1 0 0 0 4 5.0097656 A 1 1 0 0 0 5 4.0097656 L 5 4 A 1 1 0 0 0 4 3 z M 9 3 A 1 1 0 0 0 8 4 L 8 4.0097656 A 1 1 0 0 0 9 5.0097656 A 1 1 0 0 0 10 4.0097656 L 10 4 A 1 1 0 0 0 9 3 z M 15 3 A 1 1 0 0 0 14 4 L 14 4.0097656 A 1 1 0 0 0 15 5.0097656 A 1 1 0 0 0 16 4.0097656 L 16 4 A 1 1 0 0 0 15 3 z M 20 3 A 1 1 0 0 0 19 4 L 19 4.0097656 A 1 1 0 0 0 20 5.0097656 A 1 1 0 0 0 21 4.0097656 L 21 4 A 1 1 0 0 0 20 3 z M 4 8 A 1 1 0 0 0 3 9 L 3 9.0097656 A 1 1 0 0 0 4 10.009766 A 1 1 0 0 0 5 9.0097656 L 5 9 A 1 1 0 0 0 4 8 z M 20 8 A 1 1 0 0 0 19 9 L 19 9.0097656 A 1 1 0 0 0 20 10.009766 A 1 1 0 0 0 21 9.0097656 L 21 9 A 1 1 0 0 0 20 8 z M 5 12 C 3.9072751 12 3 12.907275 3 14 L 3 19 C 3 20.092725 3.9072751 21 5 21 L 10 21 C 11.092725 21 12 20.092725 12 19 L 12 14 C 12 12.907275 11.092725 12 10 12 L 5 12 z M 5 14 L 10 14 L 10 19 L 5 19 L 5 14 z M 20 14 A 1 1 0 0 0 19 15 L 19 15.009766 A 1 1 0 0 0 20 16.009766 A 1 1 0 0 0 21 15.009766 L 21 15 A 1 1 0 0 0 20 14 z M 15 19 A 1 1 0 0 0 14 20 L 14 20.009766 A 1 1 0 0 0 15 21.009766 A 1 1 0 0 0 16 20.009766 L 16 20 A 1 1 0 0 0 15 19 z M 20 19 A 1 1 0 0 0 19 20 L 19 20.009766 A 1 1 0 0 0 20 21.009766 A 1 1 0 0 0 21 20.009766 L 21 20 A 1 1 0 0 0 20 19 z " fill="currentColor"/>
</svg>
