<svg xmlns="http://www.w3.org/2000/svg" width="1em" height="1em" viewBox="0 0 24 24" fill="currentColor">
  <path d="M 9 2 C 7.3549904 2 6 3.3549904 6 5 L 6 6 L 5 6 C 3.3549904 6 2 7.3549904 2 9 L 2 19 C 2 20.64501 3.3549904 22 5 22 L 15 22 C 16.64501 22 18 20.64501 18 19 L 18 18 L 19 18 C 20.64501 18 22 16.64501 22 15 L 22 5 C 22 3.3549904 20.64501 2 19 2 L 9 2 z M 9 4 L 19 4 C 19.564129 4 20 4.4358706 20 5 L 20 15 C 20 15.564129 19.564129 16 19 16 L 9 16 C 8.4358706 16 8 15.564129 8 15 L 8 5 C 8 4.4358706 8.4358706 4 9 4 z M 14 5 A 1.0001 1.0001 0 0 0 13.292969 5.2929688 L 11.292969 7.2929688 A 1 1 0 0 0 11.292969 8.7070312 A 1 1 0 0 0 12.707031 8.7070312 L 13 8.4140625 L 13 14 A 1 1 0 0 0 14 15 A 1 1 0 0 0 15 14 L 15 6 A 1.0001 1.0001 0 0 0 14.382812 5.0761719 A 1.0001 1.0001 0 0 0 14 5 z M 5 8 L 6 8 L 6 15 C 6 16.64501 7.3549904 18 9 18 L 16 18 L 16 19 C 16 19.564129 15.564129 20 15 20 L 5 20 C 4.4358706 20 4 19.564129 4 19 L 4 9 C 4 8.4358706 4.4358706 8 5 8 z " fill="currentColor"/>
</svg>
