<svg xmlns="http://www.w3.org/2000/svg" width="1em" height="1em" viewBox="0 0 24 24" fill="currentColor">
  <path d="M 3 2 A 1 1 0 0 0 2.2929688 2.2929688 A 1 1 0 0 0 2.2929688 3.7070312 L 3.2929688 4.7070312 C 3.1051714 5.0997355 3 5.5396901 3 6 L 3 18 C 3 19.64501 4.3549904 21 6 21 L 18 21 C 18.451445 20.999903 18.892936 20.898102 19.292969 20.707031 L 20.292969 21.707031 A 1 1 0 0 0 21.707031 21.707031 A 1 1 0 0 0 21.707031 20.292969 L 20.121094 18.707031 L 20.007812 18.59375 L 16.716797 15.302734 A 1 1 0 0 0 16.707031 15.292969 A 1 1 0 0 0 16.697266 15.283203 L 8.7167969 7.3027344 A 1 1 0 0 0 8.6972656 7.2832031 L 5.40625 3.9921875 L 3.7070312 2.2929688 A 1 1 0 0 0 3 2 z M 8 3 A 1 1 0 0 0 7 4 A 1 1 0 0 0 8 5 L 17.585938 5 L 15.585938 7 L 12 7 A 1 1 0 0 0 11 8 A 1 1 0 0 0 12 9 L 15 9 L 15 12 A 1 1 0 0 0 16 13 A 1 1 0 0 0 17 12 L 17 8.4140625 L 19 6.4140625 L 19 16 A 1 1 0 0 0 20 17 A 1 1 0 0 0 21 16 L 21 6 C 21 4.3549904 19.64501 3 18 3 L 8 3 z M 5 6.4140625 L 7 8.4140625 L 7 15.585938 L 5 17.585938 L 5 6.4140625 z M 9 10.414062 L 13.585938 15 L 9 15 L 9 10.414062 z M 8.4140625 17 L 15.585938 17 L 17.585938 19 L 6.4140625 19 L 8.4140625 17 z " fill="currentColor"/>
</svg>
