<svg xmlns="http://www.w3.org/2000/svg" width="1em" height="1em" viewBox="0 0 24 24" fill="currentColor">
  <path d="M 8.0351562 3 A 1 1 0 0 0 7.7753906 3.0253906 A 1 1 0 0 0 7.1523438 3.4707031 L 2.1523438 11.470703 A 1.0001 1.0001 0 0 0 2.1523438 12.529297 L 7.1523438 20.529297 A 1 1 0 0 0 8.5292969 20.847656 A 1 1 0 0 0 8.8476562 19.470703 L 4.1796875 12 L 8.8476562 4.5292969 A 1 1 0 0 0 8.5292969 3.1523438 A 1 1 0 0 0 8.0351562 3 z M 15.964844 3 A 1 1 0 0 0 15.470703 3.1523438 A 1 1 0 0 0 15.152344 4.5292969 L 19.820312 12 L 15.152344 19.470703 A 1 1 0 0 0 15.470703 20.847656 A 1 1 0 0 0 16.847656 20.529297 L 21.847656 12.529297 A 1.0001 1.0001 0 0 0 21.847656 11.470703 L 16.847656 3.4707031 A 1 1 0 0 0 16.224609 3.0253906 A 1 1 0 0 0 15.964844 3 z " fill="currentColor"/>
</svg>
