<svg xmlns="http://www.w3.org/2000/svg" width="1em" height="1em" viewBox="0 0 24 24" fill="currentColor">
  <path d="M 5 3 A 1.0001 1.0001 0 0 0 4 4 L 4 20 A 1.0001 1.0001 0 0 0 5 21 L 9 21 A 1 1 0 0 0 10 20 A 1 1 0 0 0 9 19 L 6 19 L 6 5 L 9 5 A 1 1 0 0 0 10 4 A 1 1 0 0 0 9 3 L 5 3 z M 9.9902344 15 A 1 1 0 0 0 8.9902344 16 A 1 1 0 0 0 9.9902344 17 L 10 17 A 1 1 0 0 0 11 16 A 1 1 0 0 0 10 15 L 9.9902344 15 z M 13.990234 15 A 1 1 0 0 0 12.990234 16 A 1 1 0 0 0 13.990234 17 L 14 17 A 1 1 0 0 0 15 16 A 1 1 0 0 0 14 15 L 13.990234 15 z M 17.990234 15 A 1 1 0 0 0 16.990234 16 A 1 1 0 0 0 17.990234 17 L 18 17 A 1 1 0 0 0 19 16 A 1 1 0 0 0 18 15 L 17.990234 15 z " fill="currentColor"/>
</svg>
