<svg xmlns="http://www.w3.org/2000/svg" width="1em" height="1em" viewBox="0 0 24 24" fill="currentColor">
  <path d="M 16.037109 2 A 1.0001 1.0001 0 0 0 15.757812 2.0292969 L 9.7578125 3.5292969 A 1 1 0 0 0 9.0957031 4.3007812 A 1 1 0 0 0 9.0078125 4.3671875 L 8.8808594 5.3144531 L 2.1894531 4.0175781 A 1.0001 1.0001 0 0 0 1.1386719 5.5078125 L 11.138672 22.507812 A 1.0001 1.0001 0 0 0 12.861328 22.507812 L 22.861328 5.5078125 A 1.0001 1.0001 0 0 0 21.791016 4.0214844 L 16.375 5.1816406 L 16.955078 3.2949219 A 1.0001 1.0001 0 0 0 16.037109 2 z M 14.523438 4.4003906 L 13.044922 9.2050781 A 1.0001 1.0001 0 0 0 14.041016 10.412109 L 13 12.232422 L 13 11 A 1.0001 1.0001 0 0 0 11.683594 10.050781 L 10.203125 10.544922 L 10.708984 6.75 L 10.710938 6.7460938 A 1 1 0 0 0 10.722656 6.6894531 A 1 1 0 0 0 10.740234 6.5214844 A 1 1 0 0 0 10.740234 6.515625 L 10.902344 5.3046875 L 14.523438 4.4003906 z M 3.9863281 6.4042969 L 8.6171875 7.3007812 L 8.0078125 11.867188 A 1.0001 1.0001 0 0 0 9.3164062 12.949219 L 11 12.388672 L 11 16 A 1.0001 1.0001 0 0 0 12.869141 16.496094 L 16.869141 9.4960938 A 1.0001 1.0001 0 0 0 15.757812 8.0292969 L 15.476562 8.0996094 L 15.699219 7.3730469 L 19.984375 6.4550781 L 12 20.027344 L 3.9863281 6.4042969 z " fill="currentColor"/>
</svg>
