<svg xmlns="http://www.w3.org/2000/svg" width="1em" height="1em" viewBox="0 0 24 24" fill="currentColor">
  <path d="M 12.033203 1.0019531 A 1 1 0 0 0 11.625 1.0742188 C 11.270757 1.1565392 10.946294 1.3648778 10.744141 1.703125 A 1.0001 1.0001 0 0 0 10.738281 1.7148438 L 3.2890625 14.546875 C 2.8826737 15.234539 2.9110882 16.100903 3.359375 16.761719 A 1 1 0 0 0 3.359375 16.763672 L 3.3613281 16.765625 L 6.9746094 22.076172 C 7.2372342 22.462676 7.6131575 22.740085 8.0351562 22.884766 A 1 1 0 0 0 8.328125 22.984375 A 1 1 0 0 0 8.5878906 22.996094 C 8.8145605 23.01079 9.0464564 22.988296 9.2734375 22.927734 L 19.431641 20.212891 C 20.675971 19.892161 21.344328 18.474927 20.800781 17.310547 A 1.0001 1.0001 0 0 0 20.794922 17.296875 L 13.289062 1.8144531 A 1.0001 1.0001 0 0 0 13.289062 1.8105469 C 13.110891 1.4462547 12.792124 1.2073704 12.433594 1.0996094 A 1 1 0 0 0 12.171875 1.015625 A 1 1 0 0 0 12.033203 1.0019531 z M 12.521484 4.8164062 L 18.988281 18.15625 C 19.004957 18.191971 19.005529 18.220777 18.994141 18.240234 C 18.98334 18.255617 18.963079 18.267287 18.931641 18.275391 A 1.0001 1.0001 0 0 0 18.923828 18.277344 L 9.7363281 20.734375 L 12.521484 4.8164062 z M 10.166016 6.6855469 L 7.8652344 19.832031 L 5.0136719 15.638672 C 4.9970579 15.614292 4.9967077 15.589853 5.0117188 15.564453 A 1.0001 1.0001 0 0 0 5.015625 15.556641 L 10.166016 6.6855469 z " fill="currentColor"/>
</svg>
