<svg xmlns="http://www.w3.org/2000/svg" width="1em" height="1em" viewBox="0 0 24 24" fill="currentColor">
  <path d="M 12.0625 1.0019531 C 11.972504 1.0006975 11.883638 1.0083726 11.800781 1.0253906 C 11.469354 1.0934626 11.238979 1.2537903 11.064453 1.4082031 C 10.715401 1.7170288 10.524485 2.0526386 10.351562 2.3789062 C 10.151765 2.7558776 10.127216 2.8845535 10.033203 3.1386719 C 8.8404719 3.2590099 7.7214513 3.7474426 6.9316406 4.609375 C 6.9238343 4.6170721 6.9161457 4.6252971 6.9082031 4.6328125 C 6.7383104 4.793567 6.5373982 4.9119155 6.3203125 4.9804688 A 1.0001 1.0001 0 0 0 6.28125 4.9941406 L 6.28125 4.9960938 C 6.2646758 5.0099174 5.8073108 5.2293387 5.6210938 5.4765625 C 5.4160721 5.7487514 5.2935922 6.0351413 5.1152344 6.5253906 C 4.7229603 7.5979178 5.0539205 8.6013816 5.3925781 9.2851562 C 5.5205182 9.5434766 5.5553845 9.5386164 5.6796875 9.7226562 C 4.9668617 10.391901 4.2463194 11.068358 3.8027344 11.945312 A 1.0001 1.0001 0 0 0 3.765625 12.025391 C 3.3773434 12.995604 3.2989428 14.042868 3.3183594 15.083984 C 2.6530027 15.731147 2 16.581382 2 17.75 C 2 18.347222 2.1506578 18.930317 2.3378906 19.478516 C 2.4315066 19.752615 2.5327466 20.001456 2.6699219 20.242188 C 2.7022819 20.298977 2.7603648 20.363357 2.8007812 20.421875 C 2.7769383 20.625007 2.7530727 20.875551 2.8554688 21.195312 C 2.9692407 21.550598 3.2693334 21.926879 3.6445312 22.130859 A 1.0001 1.0001 0 0 0 3.6484375 22.132812 C 4.1092625 22.381004 4.6544595 22.555381 5.265625 22.582031 C 5.7033721 22.601121 6.1869776 22.465984 6.6386719 22.216797 C 6.8391678 22.420467 7.0018888 22.684847 7.2441406 22.78125 C 7.6562384 22.945196 8.0998411 23.003678 8.5976562 23 A 1.0001 1.0001 0 0 0 8.6289062 23 C 10.169938 22.9412 11.706351 22.800259 13.232422 22.578125 A 1.0001 1.0001 0 0 0 13.25 22.574219 C 13.691363 22.501489 13.897217 22.344791 14.132812 22.1875 C 14.275412 22.0923 14.392035 21.96836 14.515625 21.857422 C 15.885947 21.428085 17.099596 20.975413 18.384766 20.150391 A 1 1 0 0 0 18.396484 20.095703 A 1 1 0 0 0 18.451172 20.103516 C 18.673939 19.933388 19.383865 19.58587 19.976562 19.351562 C 20.459972 19.160461 20.878186 19.018461 21.015625 18.972656 C 21.384732 18.877269 21.844716 18.658059 22.181641 18.179688 C 22.523041 17.694962 22.63691 16.996588 22.476562 16.28125 C 22.34406 15.690125 22.19809 15.149563 21.652344 14.767578 C 21.106598 14.385593 20.582977 14.468745 20.191406 14.503906 C 18.943237 14.616042 17.748578 15.069444 16.740234 15.8125 C 16.378701 16.03918 16.247913 16.07251 15.996094 16.199219 C 15.956094 15.711882 15.937764 15.245805 15.664062 14.476562 C 15.252106 13.309 14.724221 12.524797 14.316406 12.035156 C 14.265966 11.974596 14.249256 11.962206 14.203125 11.910156 C 14.898828 10.811886 15.399026 9.63966 15.685547 8.3945312 A 1.0001 1.0001 0 0 0 15.693359 8.3554688 C 15.994803 6.7543678 16.053625 4.8247476 15.439453 3.1542969 A 1.0001 1.0001 0 0 0 15.394531 3.0527344 C 15.276478 2.8166276 15.044822 2.6296866 14.857422 2.5507812 C 14.670022 2.4718762 14.527365 2.4648427 14.417969 2.4648438 C 14.199175 2.4648437 14.081351 2.5024624 13.96875 2.5371094 C 13.860704 2.5703544 13.782605 2.6150764 13.691406 2.6542969 C 13.514355 2.2858392 13.372233 1.9132907 13.126953 1.5273438 A 1.0001 1.0001 0 0 0 12.832031 1.2285156 C 12.618722 1.0883897 12.332487 1.00572 12.0625 1.0019531 z M 11.970703 3.6660156 C 12.079411 3.8994147 12.210208 4.0995697 12.326172 4.3808594 A 1.0001 1.0001 0 0 0 13.730469 4.8574219 C 13.890001 5.8567599 13.913696 6.9708513 13.730469 7.9589844 C 13.428656 9.2636712 12.968706 10.393988 12.205078 11.392578 A 1.0001 1.0001 0 0 0 12.138672 11.494141 C 11.996075 11.736859 11.976039 12.054588 12.017578 12.246094 C 12.059118 12.4376 12.123735 12.541449 12.171875 12.617188 C 12.268155 12.768664 12.331528 12.826935 12.392578 12.892578 C 12.514679 13.023865 12.634023 13.141985 12.779297 13.316406 C 13.069844 13.66525 13.449535 14.208132 13.779297 15.144531 A 1.0001 1.0001 0 0 0 13.779297 15.146484 C 14.091973 16.025258 14.129015 16.501227 14.119141 16.744141 C 14.114241 16.865597 14.101231 16.930895 14.082031 17.009766 C 14.062835 17.088589 14 17.1655 14 17.5 C 14 17.769917 14.15363 18.14232 14.390625 18.341797 C 14.62762 18.541274 14.860263 18.589321 15.033203 18.607422 C 15.379083 18.643622 15.599846 18.576942 15.859375 18.494141 C 16.378434 18.328531 16.995911 18.01766 17.830078 17.490234 A 1.0001 1.0001 0 0 0 17.896484 17.445312 C 18.616981 16.905307 19.472351 16.576661 20.369141 16.496094 C 20.403709 16.492989 20.433691 16.491683 20.460938 16.490234 C 20.479459 16.547577 20.50176 16.622046 20.523438 16.71875 C 20.568219 16.918539 20.561093 16.997829 20.552734 17.023438 C 20.552312 17.024472 20.551195 17.028491 20.550781 17.029297 L 20.548828 17.03125 L 20.546875 17.03125 L 20.544922 17.03125 L 20.544922 17.029297 L 20.546875 17.029297 L 20.546875 17.027344 C 20.548237 17.025409 20.548373 17.022445 20.548828 17.021484 L 20.546875 17.021484 C 20.541468 17.023737 20.528256 17.032922 20.511719 17.037109 A 1.0001 1.0001 0 0 0 20.449219 17.054688 C 20.449219 17.054688 19.897786 17.232245 19.240234 17.492188 C 18.610283 17.741221 17.906943 18.045078 17.322266 18.470703 A 1 1 0 0 0 17.304688 18.466797 C 16.128526 19.221841 15.10682 19.616312 13.708984 20.042969 A 1.0001 1.0001 0 0 0 13.236328 20.353516 C 13.22752 20.358246 13.119385 20.461333 13.023438 20.525391 C 12.959781 20.567891 12.884188 20.596013 12.867188 20.605469 L 12.865234 20.605469 L 12.865234 20.607422 C 11.440808 20.811978 10.008353 20.942561 8.5703125 20.998047 C 8.3632312 20.998263 8.2744177 20.970546 8.1699219 20.947266 C 8.1915069 20.811352 8.2132966 20.675457 8.2441406 20.521484 C 8.2884126 20.30048 8.3360896 20.085229 8.3710938 19.927734 C 8.3885958 19.848984 8.4028285 19.788039 8.4140625 19.734375 C 8.4196825 19.707545 8.4222326 19.695225 8.4316406 19.630859 C 8.4339906 19.614769 8.4382863 19.596354 8.4414062 19.552734 C 8.4429662 19.530924 8.4433694 19.451567 8.4433594 19.451172 C 8.4433539 19.450974 8.4336137 19.347801 8.4335938 19.347656 C 8.4335745 19.347512 8.3828455 19.13681 8.3828125 19.136719 C 8.3827794 19.136628 8.0605939 18.693396 8.0605469 18.693359 C 8.0604998 18.693322 7.1719362 18.515608 7.171875 18.515625 C 7.1718138 18.515642 6.7520285 18.755787 6.7519531 18.755859 C 6.7518777 18.755931 6.6250898 18.902217 6.625 18.902344 C 6.6248205 18.902598 6.560378 19.008053 6.546875 19.035156 C 6.533372 19.062256 6.5255302 19.07955 6.5195312 19.09375 A 1.0001 1.0001 0 0 0 6.5117188 19.109375 C 6.3871642 19.420365 5.900161 20.327787 5.7285156 20.503906 A 1.0001 1.0001 0 0 0 5.7246094 20.507812 C 5.6923984 20.541193 5.594647 20.594584 5.3515625 20.583984 C 5.1762928 20.576384 4.9850036 20.499124 4.8066406 20.431641 C 4.8185496 20.374511 4.8265057 20.354581 4.8398438 20.238281 C 4.8525059 20.127839 4.9073108 19.968125 4.7597656 19.625 C 4.7001105 19.486268 4.5500689 19.338763 4.3925781 19.216797 C 4.3551526 19.145768 4.2908949 19.008953 4.2304688 18.832031 C 4.0987015 18.44623 4 17.902778 4 17.75 C 4 17.422805 4.4209033 16.705923 4.8945312 16.291016 A 1.0001 1.0001 0 0 0 5.2304688 15.449219 C 5.1495461 14.552801 5.2898215 13.6524 5.6171875 12.814453 C 6.0679793 11.938518 6.7056024 11.171859 7.4980469 10.585938 A 1.0001 1.0001 0 0 0 7.6523438 9.1191406 C 7.6523438 9.1191406 7.3973893 8.8261629 7.1855469 8.3984375 C 6.9737045 7.9707121 6.8804616 7.5183634 6.9921875 7.2128906 A 1.0001 1.0001 0 0 0 6.9941406 7.2109375 C 7.1234096 6.8554527 7.2039747 6.7237079 7.2050781 6.7167969 C 7.6147616 6.5430378 8.0180044 6.3466896 8.3359375 6.0332031 A 1.0001 1.0001 0 0 0 8.3828125 5.984375 C 8.9699282 5.321988 9.8786572 4.9167003 10.650391 4.9941406 A 1.0001 1.0001 0 0 0 11.701172 4.3066406 C 11.701172 4.3066406 11.853801 3.9474406 11.970703 3.6660156 z M 7.0527344 6.8066406 C 7.0371912 6.8177175 7.0028864 6.8376635 6.9785156 6.8535156 C 7.0018084 6.8357907 7.0251889 6.8167085 7.0527344 6.8066406 z M 6.9511719 6.8730469 L 6.9511719 6.875 L 6.9511719 6.8769531 L 6.921875 6.8867188 C 6.9317749 6.8835091 6.9423421 6.8782482 6.9511719 6.8730469 z M 13.861328 12.492188 L 13.861328 12.494141 C 13.861382 12.494881 13.8632 12.49926 13.863281 12.5 L 13.863281 12.501953 L 13.861328 12.503906 L 13.861328 12.505859 L 13.8125 12.580078 C 13.829132 12.550805 13.841542 12.520208 13.861328 12.492188 z M 8.3613281 19.871094 C 8.3559281 19.883894 8.3489655 19.899631 8.3359375 19.925781 C 8.3229262 19.951898 8.2597491 20.056625 8.2597656 20.056641 C 8.2597889 20.056608 8.2390805 20.07924 8.2265625 20.09375 C 8.2510455 20.033724 8.3304517 19.931151 8.3613281 19.871094 z M 3.2070312 20.730469 C 3.3105915 20.812507 3.3993749 20.909668 3.5566406 20.957031 C 3.4858363 20.939033 3.4098177 20.9105 3.3320312 20.867188 C 3.2733283 20.834508 3.2568102 20.775697 3.2070312 20.730469 z " fill="currentColor"/>
</svg>
