<svg xmlns="http://www.w3.org/2000/svg" width="1em" height="1em" viewBox="0 0 24 24" fill="currentColor">
  <path d="M 4 4 A 1.0001 1.0001 0 0 0 3.0292969 4.7578125 L 2.5292969 6.7578125 A 1.0001 1.0001 0 0 0 3.5 8 L 6 8 C 7.0927249 8 8 7.0927249 8 6 C 8 4.9072751 7.0927249 4 6 4 L 4 4 z M 11 4 A 1.0001 1.0001 0 0 0 10.029297 4.7578125 L 9.5292969 6.7578125 A 1.0001 1.0001 0 0 0 10.5 8 L 13 8 C 14.092725 8 15 7.0927249 15 6 C 15 4.9072751 14.092725 4 13 4 L 11 4 z M 18 7 A 1.0001 1.0001 0 0 0 17.029297 7.7578125 L 16.529297 9.7578125 A 1.0001 1.0001 0 0 0 17.5 11 L 20 11 C 21.092725 11 22 10.092725 22 9 C 22 7.9072751 21.092725 7 20 7 L 18 7 z M 3 10 A 1.0001 1.0001 0 0 0 2.0292969 10.757812 L 1.5292969 12.757812 A 1.0001 1.0001 0 0 0 2.5 14 L 5 14 C 6.0927249 14 7 13.092725 7 12 C 7 10.907275 6.0927249 10 5 10 L 3 10 z M 10 10 A 1.0001 1.0001 0 0 0 9.0292969 10.757812 L 8.5292969 12.757812 A 1.0001 1.0001 0 0 0 9.5 14 L 12 14 C 13.092725 14 14 13.092725 14 12 C 14 10.907275 13.092725 10 12 10 L 10 10 z M 17 13 A 1.0001 1.0001 0 0 0 16.029297 13.757812 L 15.529297 15.757812 A 1.0001 1.0001 0 0 0 16.5 17 L 19 17 C 20.092725 17 21 16.092725 21 15 C 21 13.907275 20.092725 13 19 13 L 17 13 z M 9 16 A 1.0001 1.0001 0 0 0 8.0292969 16.757812 L 7.5292969 18.757812 A 1.0001 1.0001 0 0 0 8.5 20 L 11 20 C 12.092725 20 13 19.092725 13 18 C 13 16.907275 12.092725 16 11 16 L 9 16 z " fill="currentColor"/>
</svg>
