<svg xmlns="http://www.w3.org/2000/svg" width="1em" height="1em" viewBox="0 0 24 24" fill="currentColor">
  <path d="M 11.970703 1 C 10.658476 1 9.3895763 1.8165309 8.6972656 3.1835938 A 1 1 0 0 0 8.6972656 3.1855469 L 1.5683594 17.265625 C 0.55208404 19.272056 1.0585459 21.26547 2.3203125 22.259766 C 3.5820791 23.254061 5.5356753 23.283104 6.8476562 22.007812 A 1.0001 1.0001 0 0 0 6.8476562 22.005859 L 8.7070312 20.197266 C 10.206442 18.73985 11.219297 18.21216 12.035156 18.226562 C 12.851016 18.240962 13.866716 18.812229 15.339844 20.294922 L 16.669922 21.632812 C 18.142556 23.114759 20.215992 23.239871 21.574219 22.259766 C 22.932446 21.27966 23.460042 19.230491 22.445312 17.246094 L 15.25 3.1796875 C 14.552204 1.8141613 13.28293 1 11.970703 1 z M 11.970703 3 C 12.488976 3 13.052546 3.27537 13.46875 4.0898438 L 20.664062 18.158203 C 21.338334 19.476806 20.96332 20.233324 20.404297 20.636719 C 19.845274 21.040113 18.987257 21.12771 18.087891 20.222656 L 16.759766 18.884766 C 15.152893 17.267459 13.720406 16.25566 12.072266 16.226562 C 10.424125 16.197463 8.9570424 17.167088 7.3144531 18.763672 L 5.453125 20.574219 L 5.453125 20.572266 C 4.8341059 21.174021 4.087077 21.105908 3.5585938 20.689453 C 3.0301103 20.272998 2.6577909 19.541537 3.3535156 18.167969 L 10.482422 4.0859375 C 10.894111 3.2730003 11.45243 3 11.970703 3 z M 12 9 C 11.277778 9 10.542119 9.2353472 9.9609375 9.7519531 C 9.3797556 10.268559 9 11.083334 9 12 C 9 12.916666 9.3797556 13.731441 9.9609375 14.248047 C 10.542119 14.764653 11.277778 15 12 15 C 12.722222 15 13.45788 14.764653 14.039062 14.248047 C 14.620243 13.731441 15 12.916666 15 12 C 15 11.083334 14.620244 10.268559 14.039062 9.7519531 C 13.45788 9.2353472 12.722222 9 12 9 z M 12 11 C 12.277778 11 12.542119 11.09799 12.710938 11.248047 C 12.879755 11.398107 13 11.583334 13 12 C 13 12.416666 12.879756 12.601893 12.710938 12.751953 C 12.542118 12.902014 12.277778 13 12 13 C 11.722222 13 11.45788 12.902014 11.289062 12.751953 C 11.120243 12.601893 11 12.416666 11 12 C 11 11.583334 11.120244 11.398107 11.289062 11.248047 C 11.45788 11.097986 11.722222 11 12 11 z " fill="currentColor"/>
</svg>
