<svg xmlns="http://www.w3.org/2000/svg" width="1em" height="1em" viewBox="0 0 24 24" fill="currentColor">
  <path d="M 1.9882812 5.0019531 A 1 1 0 0 0 1.0722656 5.6289062 A 1 1 0 0 0 1.6289062 6.9277344 L 6.90625 9.0390625 L 6.3476562 14.324219 C 6.1421838 15.488089 6.4640895 16.687074 7.2304688 17.589844 C 8.0183853 18.51797 9.1874251 19.038138 10.404297 19 C 11.907931 18.95445 13.220594 18.229675 14.169922 17.164062 C 14.259222 17.300232 14.285938 17.466179 14.392578 17.591797 C 15.18046 18.519056 16.350215 19.038057 17.566406 19 C 20.081998 18.9238 22.21266 17.083686 22.652344 14.605469 A 1.0001 1.0001 0 0 0 22.664062 14.501953 L 22.998047 9.8691406 A 1 1 0 0 0 22.072266 8.7988281 A 1 1 0 0 0 21.001953 9.7246094 L 20.675781 14.265625 C 20.394777 15.817378 19.083309 16.952798 17.505859 17 A 1.0001 1.0001 0 0 0 17.503906 17 C 16.894691 17.01906 16.312635 16.761358 15.917969 16.296875 C 15.527591 15.837023 15.367363 15.227975 15.482422 14.638672 C 15.483188 14.634749 15.483585 14.630874 15.484375 14.626953 A 1 1 0 0 0 15.484375 14.621094 C 15.485159 14.61915 15.48545 14.617137 15.486328 14.615234 C 15.487396 14.612919 15.489524 14.607953 15.490234 14.605469 A 1.0001 1.0001 0 0 0 15.498047 14.539062 L 15.503906 14.494141 A 1.0001 1.0001 0 0 0 15.503906 14.488281 L 15.832031 11.539062 A 1 1 0 0 0 14.949219 10.435547 A 1 1 0 0 0 13.84375 11.318359 L 13.513672 14.283203 C 13.51307 14.286443 13.51233 14.289732 13.511719 14.292969 C 13.221292 15.83186 11.912677 16.953053 10.34375 17 A 1.0001 1.0001 0 0 0 10.341797 17 C 9.7322852 17.019104 9.1485916 16.759841 8.7539062 16.294922 C 8.36093 15.832009 8.202745 15.219908 8.3222656 14.626953 A 1.0001 1.0001 0 0 0 8.3359375 14.535156 L 8.9746094 8.4980469 A 1.0001 1.0001 0 0 0 8.3515625 7.4628906 L 2.3710938 5.0722656 A 1 1 0 0 0 1.9882812 5.0019531 z " fill="currentColor"/>
</svg>
