<svg xmlns="http://www.w3.org/2000/svg" width="1em" height="1em" viewBox="0 0 24 24" fill="currentColor">
  <path d="M 8 3 C 5.2504209 3 3 5.2504209 3 8 L 3 16 C 3 18.749579 5.2504209 21 8 21 L 16 21 C 18.749579 21 21 18.749579 21 16 L 21 8 C 21 5.2504209 18.749579 3 16 3 L 8 3 z M 8 5 L 16 5 C 17.668699 5 19 6.3313011 19 8 L 19 16 C 19 17.668699 17.668699 19 16 19 L 8 19 C 6.3313011 19 5 17.668699 5 16 L 5 8 C 5 6.3313011 6.3313011 5 8 5 z M 9 7 A 1 1 0 0 0 8 8 C 8 9.2499997 8.5047556 10.314774 9.2734375 10.998047 C 10.042119 11.681319 11.027778 12 12 12 C 12.972222 12 13.95788 11.681319 14.726562 10.998047 C 15.495243 10.314774 16 9.2499997 16 8 A 1 1 0 0 0 15 7 A 1 1 0 0 0 14 8 C 14 8.7499995 13.754756 9.1852261 13.398438 9.5019531 C 13.042118 9.8186802 12.527778 10 12 10 C 11.472222 10 10.95788 9.8186802 10.601562 9.5019531 C 10.245243 9.1852261 10 8.7499995 10 8 A 1 1 0 0 0 9 7 z " fill="currentColor"/>
</svg>
