<svg xmlns="http://www.w3.org/2000/svg" width="1em" height="1em" viewBox="0 0 24 24" fill="currentColor">
  <path d="M 12 1 C 10.787627 1 9.510113 1.8160308 9.1679688 3.2265625 A 1 1 0 0 0 9.1660156 3.2285156 C 9.013729 3.8588136 8.3561367 4.1309152 7.8027344 3.7929688 A 1.0001 1.0001 0 0 0 7.8007812 3.7929688 C 6.560782 3.0374025 5.0801323 3.3649937 4.2226562 4.2226562 C 3.3651802 5.0803188 3.0391716 6.5612062 3.7949219 7.8007812 C 4.1325985 8.3550216 3.8573127 9.0151226 3.2265625 9.1679688 C 1.8160308 9.510113 1 10.787627 1 12 C 1 13.212373 1.8160308 14.489887 3.2265625 14.832031 C 3.8566832 14.985227 4.1301467 15.645294 3.7929688 16.199219 C 3.0374025 17.439215 3.3649937 18.919868 4.2226562 19.777344 C 5.0803189 20.63482 6.5612062 20.960828 7.8007812 20.205078 C 8.3550216 19.867401 9.0151226 20.142688 9.1679688 20.773438 C 9.510113 22.183969 10.787627 23 12 23 C 13.212373 23 14.489887 22.183969 14.832031 20.773438 C 14.985227 20.143317 15.645294 19.869853 16.199219 20.207031 C 17.439215 20.962597 18.919868 20.635006 19.777344 19.777344 C 20.63482 18.919681 20.960828 17.438794 20.205078 16.199219 C 19.867401 15.644979 20.142688 14.984877 20.773438 14.832031 C 22.183969 14.489887 23 13.212373 23 12 C 23 10.787627 22.183969 9.510113 20.773438 9.1679688 C 20.143317 9.0147728 19.869853 8.3547055 20.207031 7.8007812 C 20.962597 6.5607852 20.635006 5.0801324 19.777344 4.2226562 C 18.919681 3.3651802 17.438794 3.0391716 16.199219 3.7949219 C 15.644979 4.1325985 14.984877 3.8573127 14.832031 3.2265625 C 14.489887 1.8160308 13.212373 1 12 1 z M 12 3 C 12.412127 3 12.757816 3.1597503 12.888672 3.6992188 C 13.347153 5.5912332 15.577721 6.5148567 17.240234 5.5019531 C 17.714659 5.2127034 18.071694 5.3451948 18.363281 5.6367188 C 18.654869 5.9282427 18.789434 6.2847617 18.5 6.7597656 A 1.0001 1.0001 0 0 0 18.498047 6.7617188 C 17.486551 8.4235087 18.410403 10.651737 20.300781 11.111328 C 20.84025 11.242184 21 11.587873 21 12 C 21 12.412127 20.84025 12.757816 20.300781 12.888672 C 19.210076 13.152976 18.441273 14.006193 18.179688 15 L 17 15 C 16.435871 15 16 14.564129 16 14 C 16 13.477938 15.863903 12.984288 15.625 12.554688 C 15.862192 12.410572 16.072205 12.236884 16.248047 12.039062 C 16.764653 11.45788 17 10.722222 17 10 C 17 9.2777779 16.764653 8.5421194 16.248047 7.9609375 C 15.731441 7.3797556 14.916666 7 14 7 L 9 7 L 5.6328125 7 C 5.5933684 6.9188097 5.5500132 6.8386482 5.5019531 6.7597656 C 5.2127034 6.2853407 5.3451948 5.9283062 5.6367188 5.6367188 C 5.9282427 5.3451313 6.2847617 5.2105661 6.7597656 5.5 C 8.4209587 6.5144415 10.650559 5.590302 11.109375 3.6992188 L 11.111328 3.6992188 L 11.111328 3.6972656 C 11.242521 3.1594656 11.588403 3 12 3 z M 5.8203125 9 L 7 9 L 7 12 L 7 15 L 5.8203125 15 C 5.5586997 14.006646 4.7891843 13.153666 3.6992188 12.888672 C 3.1597503 12.757816 3 12.412127 3 12 C 3 11.587873 3.1597503 11.242184 3.6992188 11.111328 C 4.7899239 10.847024 5.5587275 9.9938067 5.8203125 9 z M 9 9 L 14 9 C 14.416666 9 14.601893 9.1202444 14.751953 9.2890625 C 14.902014 9.4578806 15 9.7222221 15 10 C 15 10.277778 14.90201 10.542119 14.751953 10.710938 C 14.601893 10.879755 14.416666 11 14 11 L 9 11 L 9 9 z M 9 13 L 13 13 C 13.564129 13 14 13.435871 14 14 C 14 15.64501 15.35499 17 17 17 L 18.367188 17 C 18.406632 17.08119 18.449987 17.161352 18.498047 17.240234 C 18.787297 17.714659 18.654805 18.071694 18.363281 18.363281 C 18.071757 18.654869 17.715238 18.789434 17.240234 18.5 A 1.0001 1.0001 0 0 0 17.238281 18.498047 C 15.576541 17.486551 13.348263 18.410403 12.888672 20.300781 C 12.757816 20.84025 12.412127 21 12 21 C 11.587873 21 11.242184 20.84025 11.111328 20.300781 C 10.652847 18.408767 8.4222789 17.485143 6.7597656 18.498047 C 6.2853407 18.787297 5.9283062 18.654805 5.6367188 18.363281 C 5.3451313 18.071757 5.2105661 17.715238 5.5 17.240234 A 1.0001 1.0001 0 0 0 5.5019531 17.238281 C 5.549578 17.160044 5.5936669 17.080505 5.6328125 17 L 9 17 A 1 1 0 0 0 10 16 A 1 1 0 0 0 9 15 L 9 13 z " fill="currentColor"/>
</svg>
