<svg xmlns="http://www.w3.org/2000/svg" width="1em" height="1em" viewBox="0 0 24 24" fill="currentColor">
  <path d="M 16.486328 3.0488281 C 16.403048 3.0482561 16.319881 3.050243 16.236328 3.0566406 A 1.0001 1.0001 0 0 0 16.234375 3.0566406 L 4.8457031 3.9316406 C 3.8132153 4.0113789 3.0000322 4.8902189 3 5.9257812 L 3 16.667969 C 3 17.100567 3.1408318 17.52111 3.4003906 17.867188 L 5.8710938 21.160156 C 6.2803464 21.705681 6.9430515 22.00696 7.6230469 21.955078 L 19.154297 21.068359 C 20.186785 20.988621 20.999968 20.109781 21 19.074219 L 21 7.0703125 C 20.999995 7.0430778 20.99879 7.0154158 20.998047 6.9882812 C 20.99758 6.9712166 20.996851 6.954521 20.996094 6.9375 A 1 1 0 0 0 20.996094 6.9238281 A 1 1 0 0 0 20.992188 6.8984375 C 20.938178 5.9619404 20.449944 5.0978664 19.664062 4.5742188 L 18.128906 3.5507812 C 17.640823 3.2254322 17.069287 3.0528324 16.486328 3.0488281 z M 16.472656 5.046875 C 16.667049 5.0480553 16.856675 5.1062864 17.019531 5.2148438 L 18.380859 6.1230469 L 7.3828125 6.96875 L 6.2441406 5.8300781 L 16.388672 5.0507812 C 16.41655 5.0486466 16.444886 5.0467064 16.472656 5.046875 z M 5 7.4140625 L 6 8.4140625 L 6 18 L 5 16.667969 L 5 7.4140625 z M 19 8.078125 L 19 19.074219 L 8 19.919922 L 8 8.9257812 L 19 8.078125 z M 16 9.5 A 1 1 0 0 0 15 10.5 L 15 14.447266 L 12.332031 10.445312 A 1.0001 1.0001 0 0 0 11.5 10 L 11 10 A 1.0001 1.0001 0 0 0 10 11 L 10 17.5 A 1 1 0 0 0 11 18.5 A 1 1 0 0 0 12 17.5 L 12 13.552734 L 14.667969 17.554688 A 1.0001 1.0001 0 0 0 15.5 18 L 16 18 A 1.0001 1.0001 0 0 0 17 17 L 17 10.5 A 1 1 0 0 0 16 9.5 z " fill="currentColor"/>
</svg>
