<svg xmlns="http://www.w3.org/2000/svg" width="1em" height="1em" viewBox="0 0 24 24" fill="currentColor">
  <path d="M 6 2 A 1 1 0 0 0 5 3 L 5 8 A 1.0001 1.0001 0 0 0 6 9 L 11 9 A 1.0001 1.0001 0 0 0 12 8 L 12 3 A 1.0001 1.0001 0 0 0 11 2 L 6 2 z M 16.5 2 C 15.652778 2 14.792119 2.2770139 14.117188 2.8769531 C 13.442255 3.4768923 13 4.4166669 13 5.5 C 13 6.5833331 13.442256 7.5231077 14.117188 8.1230469 C 14.792118 8.7229861 15.652778 9 16.5 9 C 17.347222 9 18.207881 8.7229861 18.882812 8.1230469 C 19.557744 7.5231077 20 6.5833331 20 5.5 C 20 4.4166669 19.557744 3.4768923 18.882812 2.8769531 C 18.207881 2.2770139 17.347222 2 16.5 2 z M 7 4 L 10 4 L 10 7 L 7 7 L 7 4 z M 16.5 4 C 16.902778 4 17.292119 4.1396531 17.554688 4.3730469 C 17.817256 4.6064406 18 4.9166671 18 5.5 C 18 6.0833329 17.817256 6.3935594 17.554688 6.6269531 C 17.292119 6.8603469 16.902778 7 16.5 7 C 16.097222 7 15.707881 6.8603469 15.445312 6.6269531 C 15.182743 6.3935594 15 6.0833329 15 5.5 C 15 4.9166671 15.182744 4.6064406 15.445312 4.3730469 C 15.70788 4.1396531 16.097222 4 16.5 4 z M 10.976562 10 L 10.759766 10.005859 A 1.0001 1.0001 0 0 0 10.738281 10.005859 C 8.8633701 10.089739 7.3540898 10.889028 6.3867188 12.046875 C 5.4193479 13.204722 4.9763085 14.679787 5.0078125 16.130859 C 5.0393165 17.581932 5.5457886 19.035619 6.5625 20.150391 C 7.5792164 21.265121 9.1212617 21.997576 10.998047 22 A 1.0001 1.0001 0 0 0 12 21 L 12 11 A 1 1 0 0 0 11.994141 10.994141 A 1 1 0 0 0 12 10.976562 A 1 1 0 0 0 11.015625 10.015625 A 1 1 0 0 0 11 10 A 1 1 0 0 0 10.994141 10.005859 A 1 1 0 0 0 10.976562 10 z M 10 12.199219 L 10 19.810547 C 9.1881939 19.627788 8.5065944 19.313217 8.0410156 18.802734 C 7.3892886 18.088149 7.0297455 17.096167 7.0078125 16.085938 C 6.9858795 15.075708 7.301776 14.072275 7.921875 13.330078 C 8.3942316 12.764714 9.1130208 12.402816 10 12.199219 z " fill="currentColor"/>
</svg>
