<svg xmlns="http://www.w3.org/2000/svg" width="1em" height="1em" viewBox="0 0 24 24" fill="currentColor">
  <path d="M 13.380859 2 C 10.583891 2 8.4078081 3.0157401 7.0117188 4.6191406 C 5.6156295 6.2225412 5 8.3389082 5 10.490234 C 5 11.024484 4.8587598 11.324573 4.5898438 11.560547 C 4.3209278 11.796521 3.8333333 12 3 12 A 1.0001 1.0001 0 0 0 2.03125 13.25 C 2.5133277 15.120529 3.6537231 16.741461 5.2207031 17.828125 C 5.0795946 18.185232 5 18.581862 5 19 C 5 19.916666 5.3797556 20.731441 5.9609375 21.248047 C 6.5421194 21.764653 7.2777779 22 8 22 C 8.7222221 22 9.4578801 21.764653 10.039062 21.248047 C 10.434296 20.896727 10.735831 20.407175 10.888672 19.841797 C 11.63983 19.938092 12.396621 19.987894 13.154297 19.990234 C 13.317295 20.492794 13.600712 20.927846 13.960938 21.248047 C 14.542118 21.764653 15.277778 22 16 22 C 16.722222 22 17.457881 21.764653 18.039062 21.248047 C 18.620244 20.731441 19 19.916666 19 19 C 19 18.625479 18.936887 18.268524 18.822266 17.941406 C 20.839805 16.216163 22.012242 13.678897 22 10.998047 C 21.999053 6.0635181 18.506658 2 13.380859 2 z M 13.380859 4 C 17.494366 4 20 6.9554343 20 11 A 1.0001 1.0001 0 0 0 20 11.005859 C 20.010405 13.087328 19.105715 15.054682 17.546875 16.400391 C 17.06819 16.127869 16.530844 16 16 16 C 15.277778 16 14.542119 16.235347 13.960938 16.751953 C 13.605234 17.068133 13.324073 17.495673 13.160156 17.990234 C 12.359846 17.987894 11.562291 17.926482 10.771484 17.806641 C 10.603166 17.389772 10.349908 17.02826 10.039062 16.751953 C 9.4578801 16.235347 8.7222221 16 8 16 C 7.5190466 16 7.0311728 16.103874 6.5878906 16.326172 C 5.6563914 15.708867 4.9796279 14.80136 4.4921875 13.789062 C 5.0292104 13.63638 5.5163626 13.408054 5.9101562 13.0625 C 6.6412403 12.420974 7 11.465985 7 10.490234 C 7 8.7215613 7.5081204 7.0932401 8.5195312 5.9316406 C 9.5309419 4.7700412 11.047828 4 13.380859 4 z M 11 8 A 1 1 0 0 0 10 9 A 1 1 0 0 0 11 10 L 11.009766 10 A 1 1 0 0 0 12.009766 9 A 1 1 0 0 0 11.009766 8 L 11 8 z M 16 8 A 1 1 0 0 0 15 9 A 1 1 0 0 0 16 10 L 16.009766 10 A 1 1 0 0 0 17.009766 9 A 1 1 0 0 0 16.009766 8 L 16 8 z M 8 18 C 8.2777779 18 8.5421194 18.09799 8.7109375 18.248047 C 8.8797556 18.398107 9 18.583334 9 19 C 9 19.416666 8.8797556 19.601893 8.7109375 19.751953 C 8.5421194 19.902014 8.2777779 20 8 20 C 7.7222221 20 7.4578806 19.902014 7.2890625 19.751953 C 7.1202444 19.601893 7 19.416666 7 19 C 7 18.698331 7.0632489 18.518288 7.1621094 18.384766 A 1 1 0 0 0 7.4433594 18.138672 C 7.6000075 18.051852 7.7969004 18 8 18 z M 16 18 C 16.277778 18 16.542119 18.09799 16.710938 18.248047 C 16.879756 18.398107 17 18.583334 17 19 C 17 19.416666 16.879756 19.601893 16.710938 19.751953 C 16.542119 19.902014 16.277778 20 16 20 C 15.722222 20 15.45788 19.902014 15.289062 19.751953 C 15.120243 19.601893 15 19.416666 15 19 C 15 18.583334 15.120244 18.398107 15.289062 18.248047 C 15.45788 18.097986 15.722222 18 16 18 z " fill="currentColor"/>
</svg>
