<svg xmlns="http://www.w3.org/2000/svg" width="1em" height="1em" viewBox="0 0 24 24" fill="currentColor">
  <path d="M 12.304688 4.0019531 C 11.937212 3.9904201 11.568525 4.0065234 11.201172 4.0488281 C 9.1345437 4.2868233 7.1656897 5.4344034 5.8710938 7.4492188 C 2.9311114 7.9672762 0.76871961 10.592007 1.0195312 13.623047 C 1.2809429 16.806541 4.0745778 19.20005 7.2519531 18.984375 L 7.2832031 18.984375 L 17.978516 18.984375 L 18.003906 18.984375 C 20.597153 19.106665 22.83738 17.102659 22.992188 14.503906 L 22.990234 14.503906 C 23.132619 12.141505 21.472742 10.145346 19.230469 9.6445312 C 18.466827 6.6015914 16.078727 4.5976293 13.398438 4.1171875 C 13.038426 4.0526556 12.672163 4.0134862 12.304688 4.0019531 z M 12.240234 5.9980469 C 12.509698 6.008864 12.778114 6.0381123 13.044922 6.0859375 C 15.179382 6.4685394 17.059237 7.9958528 17.46875 10.605469 A 1 1 0 0 0 17.582031 10.6875 A 1.0001 1.0001 0 0 0 18.394531 11.449219 C 19.934412 11.542129 21.086917 12.844877 20.994141 14.384766 C 20.902411 15.924687 19.602387 17.078647 18.0625 16.986328 A 1.0001 1.0001 0 0 0 18.003906 16.984375 L 7.2519531 16.984375 A 1.0001 1.0001 0 0 0 7.1699219 16.988281 C 5.0354956 17.163047 3.1862781 15.593423 3.0117188 13.458984 A 1.0001 1.0001 0 0 0 3.0117188 13.457031 C 2.835074 11.322342 4.404323 9.4715311 6.5390625 9.2949219 A 1.0001 1.0001 0 0 0 7.328125 8.7871094 C 8.4572601 6.7703227 10.353987 5.9223273 12.240234 5.9980469 z " fill="currentColor"/>
</svg>
