<svg xmlns="http://www.w3.org/2000/svg" width="1em" height="1em" viewBox="0 0 24 24" fill="currentColor">
  <path d="M 4.9980469 3 C 3.905322 3 2.9980469 3.9072751 2.9980469 5 A 1.0001 1.0001 0 0 0 3 5 A 1.0001 1.0001 0 0 0 3 5.0019531 L 3 16 C 3 17.092725 3.9072751 18 5 18 L 6 18 L 6 21 A 1.0001 1.0001 0 0 0 7.7070312 21.707031 L 11.414062 18 L 16.583984 18 C 17.112261 18 17.623213 17.789891 17.998047 17.414062 L 18 17.412109 L 20.412109 15 A 1.0001 1.0001 0 0 0 20.414062 14.998047 C 20.785408 14.624715 20.998047 14.117602 20.998047 13.585938 L 20.998047 5 C 20.998047 3.9072751 20.090772 3 18.998047 3 L 4.9980469 3 z M 5 5 L 18.998047 5 L 18.998047 13.585938 L 18.996094 13.587891 L 16.583984 16 L 11 16 A 1.0001 1.0001 0 0 0 10.292969 16.292969 L 8 18.585938 L 8 17 A 1.0001 1.0001 0 0 0 7 16 L 5 16 L 5 5 z M 12 7 A 1 1 0 0 0 11 8 L 11 12 A 1 1 0 0 0 12 13 A 1 1 0 0 0 13 12 L 13 8 A 1 1 0 0 0 12 7 z M 16 7 A 1 1 0 0 0 15 8 L 15 12 A 1 1 0 0 0 16 13 A 1 1 0 0 0 17 12 L 17 8 A 1 1 0 0 0 16 7 z " fill="currentColor"/>
</svg>
