<svg xmlns="http://www.w3.org/2000/svg" width="1em" height="1em" viewBox="0 0 24 24" fill="currentColor">
  <path d="M 11.947266 1 C 11.463414 1 11.07852 1.1294957 10.595703 1.2871094 A 1.0001 1.0001 0 0 0 10.59375 1.2871094 C 7.3077916 2.3678261 5.0072323 3.9223622 3.7910156 4.8828125 C 3.3892473 5.1996298 3.0189449 5.5061233 2.7441406 5.9902344 C 2.462697 6.4849368 2.3906114 6.9681816 2.3144531 7.5273438 C 2.1117227 9.0079984 2.0063606 10.501637 2 11.996094 A 1.0001 1.0001 0 0 0 2 12 C 2 13.805146 2.1700158 15.421249 2.3144531 16.474609 C 2.3905151 17.032935 2.4630287 17.515646 2.7441406 18.009766 C 3.0182738 18.492694 3.388879 18.800052 3.7910156 19.117188 C 5.0070026 20.076396 7.3097575 21.632194 10.595703 22.712891 L 10.595703 22.710938 C 11.079489 22.870242 11.46507 23 11.947266 23 C 12.431117 23 12.813634 22.870318 13.296875 22.712891 A 1.0001 1.0001 0 0 0 13.300781 22.710938 C 16.585716 21.630229 18.887077 20.077814 20.103516 19.117188 C 20.505917 18.799871 20.87555 18.493399 21.150391 18.011719 A 1.0001 1.0001 0 0 0 21.150391 18.009766 C 21.432565 17.513779 21.503158 17.032029 21.580078 16.474609 C 21.724515 15.421249 21.894531 13.805146 21.894531 12 C 21.894531 10.194854 21.724515 8.5787513 21.580078 7.5253906 C 21.503158 6.9679713 21.432565 6.4862206 21.150391 5.9902344 C 20.875911 5.5077728 20.505482 5.1998155 20.103516 4.8828125 L 20.103516 4.8808594 A 1 1 0 0 0 20.097656 4.8789062 C 18.880652 3.9195312 16.581108 2.3666008 13.298828 1.2871094 C 12.814626 1.1280428 12.429461 1 11.947266 1 z M 11.947266 3 C 12.094698 3 12.193188 3.029617 12.673828 3.1875 C 15.681882 4.1768029 17.789221 5.6023797 18.865234 6.4511719 A 1 1 0 0 0 18.865234 6.453125 C 19.266833 6.7698084 19.298845 6.7794269 19.412109 6.9785156 C 19.517935 7.1645294 19.522529 7.2402474 19.599609 7.7988281 C 19.735132 8.7875149 19.894531 10.321922 19.894531 12 C 19.894531 13.678078 19.735132 15.212485 19.599609 16.201172 C 19.522699 16.758489 19.517239 16.834434 19.412109 17.019531 C 19.29895 17.217851 19.266833 17.230192 18.865234 17.546875 A 1.0001 1.0001 0 0 0 18.863281 17.546875 C 17.788052 18.395987 15.683316 19.821291 12.677734 20.810547 C 12.191022 20.969123 12.091414 21 11.947266 21 C 11.799461 21 11.702917 20.971241 11.220703 20.8125 C 8.2126489 19.823197 6.107263 18.39762 5.03125 17.548828 A 1.0001 1.0001 0 0 0 5.0292969 17.546875 C 4.627865 17.230372 4.5959863 17.218105 4.484375 17.021484 A 1.0001 1.0001 0 0 0 4.4824219 17.021484 C 4.3758624 16.834187 4.3707636 16.759963 4.2949219 16.203125 C 4.1594846 15.2154 4.0002958 13.680941 4 12.003906 L 4 12.001953 L 4 12 C 4.00615 10.594144 4.1041301 9.1897407 4.2949219 7.796875 C 4.3707639 7.2400373 4.3758659 7.1658132 4.4824219 6.9785156 A 1.0001 1.0001 0 0 0 4.484375 6.9785156 C 4.5955739 6.7827207 4.6270652 6.7703077 5.0292969 6.453125 A 1.0001 1.0001 0 0 0 5.03125 6.453125 C 6.1067045 5.6038374 8.2102874 4.1787005 11.216797 3.1894531 C 11.70198 3.0310668 11.803117 3 11.947266 3 z M 9 6 A 1.0001 1.0001 0 0 0 8.2929688 6.2929688 L 7.2929688 7.2929688 A 1 1 0 0 0 7 8 A 1 1 0 0 0 7.2929688 8.7070312 A 1 1 0 0 0 8 9 L 8 15 A 1 1 0 0 0 9 16 A 1 1 0 0 0 10 15 L 10 13 L 14 13 L 14 15 A 1.0001 1.0001 0 0 0 13.292969 16.707031 L 14.292969 17.707031 A 1.0001 1.0001 0 0 0 15.707031 17.707031 L 16.707031 16.707031 A 1 1 0 0 0 16.707031 16.292969 A 1 1 0 0 0 17 16 A 1 1 0 0 0 16.707031 15.707031 A 1 1 0 0 0 16.707031 15.292969 A 1 1 0 0 0 16.292969 15.292969 A 1 1 0 0 0 16 15 L 16 12 L 16 9 A 1 1 0 0 0 15 8 A 1 1 0 0 0 14 9 L 14 11 L 10 11 L 10 9 A 1.0001 1.0001 0 0 0 10.707031 7.2929688 L 9.7070312 6.2929688 A 1.0001 1.0001 0 0 0 9 6 z " fill="currentColor"/>
</svg>
