<svg xmlns="http://www.w3.org/2000/svg" width="1em" height="1em" viewBox="0 0 24 24" fill="currentColor">
  <path d="M 12 1.0058594 C 11.218645 1.0058594 10.438037 1.302225 9.8476562 1.8925781 L 1.8925781 9.8476562 C 0.71187194 11.028417 0.71187195 12.971583 1.8925781 14.152344 L 9.8476562 22.107422 C 11.028417 23.288128 12.971583 23.288128 14.152344 22.107422 L 22.107422 14.152344 C 23.288128 12.971583 23.288128 11.028417 22.107422 9.8476562 L 14.152344 1.8925781 A 1 1 0 0 0 13.443359 1.5996094 C 12.977051 1.3342402 12.523863 1.0058594 12 1.0058594 z M 12 2.9941406 C 12.265338 2.9941406 12.530047 3.098416 12.738281 3.3066406 L 20.693359 11.261719 C 21.109809 11.678187 21.109809 12.321813 20.693359 12.738281 L 12.738281 20.693359 C 12.321813 21.109809 11.678187 21.109809 11.261719 20.693359 L 3.3066406 12.738281 C 2.8901915 12.321813 2.8901915 11.678187 3.3066406 11.261719 L 8.578125 5.9921875 L 10.066406 7.4804688 C 10.022941 7.6481851 10 7.8234409 10 8 C 10 8.5833333 10.254756 9.1481076 10.648438 9.4980469 C 10.759134 9.5964438 10.877103 9.6799267 11 9.7480469 L 11 14.251953 C 10.877103 14.320073 10.759134 14.403556 10.648438 14.501953 C 10.254755 14.851892 10 15.416667 10 16 C 10 16.583333 10.254756 17.148108 10.648438 17.498047 C 11.042118 17.847986 11.527778 18 12 18 C 12.472222 18 12.95788 17.847986 13.351562 17.498047 C 13.745243 17.148108 14 16.583333 14 16 C 14 15.416667 13.745244 14.851892 13.351562 14.501953 C 13.240866 14.403556 13.122897 14.320073 13 14.251953 L 13 10.414062 L 14.066406 11.480469 C 14.022941 11.648185 14 11.823441 14 12 C 14 12.583333 14.254756 13.148108 14.648438 13.498047 C 15.042118 13.847986 15.527778 14 16 14 C 16.472222 14 16.957881 13.847986 17.351562 13.498047 C 17.745244 13.148108 18 12.583333 18 12 C 18 11.416667 17.745244 10.851892 17.351562 10.501953 C 16.957881 10.152014 16.472222 10 16 10 C 15.826128 10 15.650769 10.020944 15.478516 10.064453 L 13.933594 8.5195312 C 13.977059 8.3518149 14 8.1765591 14 8 C 14 7.4166667 13.745244 6.8518924 13.351562 6.5019531 C 12.95788 6.1520138 12.472222 6 12 6 C 11.826128 6 11.650769 6.0209439 11.478516 6.0644531 L 9.9921875 4.578125 L 11.261719 3.3066406 C 11.469953 3.098416 11.734662 2.9941406 12 2.9941406 z " fill="currentColor"/>
</svg>
