<svg xmlns="http://www.w3.org/2000/svg" width="1em" height="1em" viewBox="0 0 24 24" fill="currentColor">
  <path d="M 12 2 C 6.4889982 2 2 6.4889941 2 12 C 2 17.511006 6.4889982 22 12 22 C 17.511002 22 22 17.511006 22 12 C 22 6.4889941 17.511002 2 12 2 z M 12 4 C 16.430123 4 20 7.5698737 20 12 C 20 16.430126 16.430123 20 12 20 C 7.5698765 20 4 16.430126 4 12 C 4 7.5698737 7.5698765 4 12 4 z M 11.898438 6.5 C 11.330263 6.5121257 10.768727 6.6115459 10.238281 6.7910156 C 8.116497 7.5088944 6.385905 9.5601697 6.5078125 12.25 C 6.62972 14.93983 8.5387735 16.824652 10.716797 17.347656 C 12.133504 17.687848 13.711975 17.462803 15.007812 16.619141 A 1 1 0 0 0 16 17.5 A 1 1 0 0 0 17 16.5 L 17 14 A 1.0001 1.0001 0 0 0 16 13 L 13.5 13 A 1 1 0 0 0 12.5 14 A 1 1 0 0 0 13.5 15 L 13.873047 15 C 13.061282 15.522462 12.096298 15.623463 11.183594 15.404297 C 9.7658867 15.063866 8.5863304 13.976853 8.5039062 12.158203 C 8.421482 10.339554 9.4978063 9.1528246 10.878906 8.6855469 C 12.260006 8.2182692 13.836093 8.5075898 14.875 10.003906 A 1 1 0 0 0 16.267578 10.255859 A 1 1 0 0 0 16.517578 8.8632812 C 15.365467 7.2039186 13.602957 6.4636228 11.898438 6.5 z " fill="currentColor"/>
</svg>
