<svg xmlns="http://www.w3.org/2000/svg" width="1em" height="1em" viewBox="0 0 24 24" fill="currentColor">
  <path d="M 12.132812 1 C 10.873279 1 9.9193972 1.5152576 9.2285156 2.0683594 C 8.537634 2.6214611 8.0288586 3.1665855 7.2792969 3.5996094 C 6.529949 4.0310535 5.8026631 4.1985028 4.9785156 4.5195312 C 4.1537649 4.8407947 3.2298393 5.40969 2.5996094 6.5 C 1.9699542 7.5903785 1.938455 8.6744572 2.0722656 9.5488281 C 2.2060762 10.423199 2.4257813 11.135163 2.4257812 12 C 2.4257812 12.864837 2.2060762 13.576801 2.0722656 14.451172 C 1.938455 15.325543 1.9699542 16.409622 2.5996094 17.5 C 3.2299097 18.590432 4.1536906 19.159232 4.9785156 19.480469 C 5.8033406 19.801706 6.5319709 19.968374 7.28125 20.400391 C 8.0309808 20.832846 8.5378966 21.378494 9.2285156 21.931641 C 9.9191346 22.484787 10.873117 23 12.132812 23 C 13.392345 23 14.346228 22.484742 15.037109 21.931641 C 15.727563 21.378882 16.235577 20.833286 16.984375 20.400391 C 17.734304 19.968242 18.462359 19.801732 19.287109 19.480469 C 20.11186 19.159205 21.035786 18.59031 21.666016 17.5 C 22.295671 16.409622 22.32717 15.325543 22.193359 14.451172 C 22.059549 13.576801 21.839844 12.864837 21.839844 12 C 21.839844 11.135325 22.05744 10.423291 22.191406 9.5488281 C 22.325373 8.674365 22.294363 7.5904326 21.664062 6.5 C 21.034301 5.4094377 20.11186 4.8407948 19.287109 4.5195312 C 18.462359 4.1982678 17.735607 4.0316262 16.986328 3.5996094 C 16.237026 3.1671573 15.727905 2.6215342 15.037109 2.0683594 C 14.346313 1.5151846 13.392506 1 12.132812 1 z M 12.132812 3 C 12.924117 3 13.258155 3.2053311 13.787109 3.6289062 C 14.316063 4.0524814 14.95963 4.7394833 15.986328 5.3320312 C 17.013049 5.9240145 17.929048 6.1368259 18.560547 6.3828125 C 19.192046 6.6287991 19.538355 6.8155623 19.933594 7.5 C 20.329293 8.1845674 20.317377 8.5768069 20.214844 9.2460938 C 20.11231 9.9153806 19.839844 10.814675 19.839844 12 C 19.839844 13.185163 20.114357 14.084527 20.216797 14.753906 C 20.319236 15.423285 20.328939 15.815378 19.933594 16.5 C 19.537824 17.18469 19.193999 17.371201 18.5625 17.617188 C 17.931001 17.863174 17.013399 18.076117 15.986328 18.667969 C 14.95989 19.260945 14.315978 19.947696 13.787109 20.371094 C 13.258241 20.794492 12.924279 21 12.132812 21 C 11.341506 21 11.007397 20.794697 10.478516 20.371094 C 9.9496342 19.94749 9.3065661 19.260513 8.2792969 18.667969 C 7.252576 18.075986 6.3367531 17.8632 5.7050781 17.617188 C 5.0734031 17.371175 4.7277309 17.184568 4.3320312 16.5 C 3.9366864 15.815378 3.9483419 15.423285 4.0507812 14.753906 C 4.1532206 14.084527 4.4257813 13.185163 4.4257812 12 C 4.4257812 10.814837 4.1532206 9.9154727 4.0507812 9.2460938 C 3.9483419 8.5767146 3.9366864 8.1846215 4.3320312 7.5 C 4.7278014 6.81531 5.0735789 6.6287991 5.7050781 6.3828125 C 6.3365774 6.1368259 7.2522258 5.9238832 8.2792969 5.3320312 C 9.3057352 4.7390551 9.9496468 4.0523045 10.478516 3.6289062 C 11.007384 3.2055079 11.341344 3 12.132812 3 z " fill="currentColor"/>
</svg>
