<svg xmlns="http://www.w3.org/2000/svg" width="1em" height="1em" viewBox="0 0 24 24" fill="currentColor">
  <path d="M 11.951172 2.0117188 C 10.087886 2.076703 8.7226494 2.3954736 7.6484375 3.1855469 C 6.2157819 4.2392523 5.6301593 5.9208476 5.0742188 8.1640625 A 1.0001 1.0001 0 0 0 5.0722656 8.1660156 C 4.3520617 11.116744 3.748684 13.51952 3.3789062 15.445312 C 3.0091283 17.371105 2.8242801 18.80117 3.1542969 20.015625 C 3.3193053 20.622852 3.6741237 21.201702 4.2167969 21.556641 C 4.75947 21.911579 5.4040774 22.021774 6.0742188 21.998047 C 7.4145015 21.950597 9.0151885 21.422506 11.212891 20.527344 C 15.953681 18.593574 18.423344 17.243138 19.775391 15.488281 C 20.451414 14.610853 20.788038 13.635294 20.916016 12.634766 C 21.042289 11.64756 20.994369 10.623187 20.949219 9.4511719 A 1 1 0 0 0 20.953125 9.4472656 A 1 1 0 0 0 20.949219 9.4433594 C 20.948886 9.4347294 20.949551 9.4285709 20.949219 9.4199219 A 1 1 0 0 0 20.953125 9.4082031 C 20.894126 7.8603 20.868512 6.6895495 20.753906 5.7304688 C 20.6393 4.7713881 20.433662 3.9527557 19.859375 3.3125 C 19.285088 2.6722443 18.468487 2.392049 17.541016 2.25 C 16.614052 2.1080288 15.48923 2.0753975 13.990234 2.0234375 L 13.988281 2.0234375 C 13.24891 1.99684 12.572267 1.9900573 11.951172 2.0117188 z M 12.048828 4.015625 C 12.594341 3.9940761 13.214164 3.9961308 13.917969 4.0214844 A 1.0001 1.0001 0 0 0 13.919922 4.0214844 C 15.419694 4.0734764 16.515284 4.1177834 17.238281 4.2285156 C 17.961279 4.3392479 18.225006 4.4855682 18.371094 4.6484375 C 18.517182 4.8113068 18.672465 5.1727994 18.767578 5.96875 C 18.862428 6.7624959 18.895898 7.9205531 18.955078 9.4746094 A 1.0001 1.0001 0 0 0 18.951172 9.484375 C 18.996972 10.678863 19.027881 11.628451 18.931641 12.380859 C 18.835401 13.133268 18.642758 13.681757 18.191406 14.267578 C 17.288703 15.439221 15.110194 16.778551 10.458984 18.675781 C 8.3381305 19.539615 6.8205142 19.969064 6.0019531 19.998047 C 5.5926726 20.012538 5.3973229 19.939569 5.3105469 19.882812 C 5.2237708 19.826056 5.1584135 19.764132 5.0839844 19.490234 C 4.9351261 18.942439 4.9921216 17.653536 5.34375 15.822266 C 5.6951758 13.99205 6.2924305 11.599451 7.0136719 8.6445312 L 7.015625 8.640625 C 7.5451732 6.5052775 8.0273024 5.3901824 8.8339844 4.796875 C 9.4394927 4.351529 10.412289 4.0802716 12.048828 4.015625 z M 15.548828 6 C 13.098496 5.987975 11.017775 7.8751987 10.994141 10.275391 A 1.0001 1.0001 0 0 0 10.994141 10.285156 L 10.994141 12.705078 C 10.98248 13.956848 9.8924427 15.005178 8.4550781 15 A 1.0001 1.0001 0 0 0 8.4511719 15 L 8 15 A 1 1 0 0 0 7 16 A 1 1 0 0 0 8 17 L 8.4492188 17 C 10.897854 17.0088 12.971801 15.120851 12.994141 12.722656 A 1.0001 1.0001 0 0 0 12.994141 12.714844 L 12.994141 10.294922 C 13.006487 9.0410633 14.101941 7.991126 15.541016 8 A 1.0001 1.0001 0 0 0 15.548828 8 L 16 8 A 1 1 0 0 0 17 7 A 1 1 0 0 0 16 6 L 15.554688 6 L 15.548828 6 z " fill="currentColor"/>
</svg>
