<svg xmlns="http://www.w3.org/2000/svg" width="1em" height="1em" viewBox="0 0 24 24" fill="currentColor">
  <path d="M 3 5 A 1.0001 1.0001 0 0 0 2.7734375 5.1347656 A 1.0001 1.0001 0 0 0 2.3515625 5.3867188 A 1.0001 1.0001 0 0 0 2.1308594 5.7695312 A 1.0001 1.0001 0 0 0 2 6 L 2 18 A 1 1 0 0 0 2.0722656 18.072266 A 1 1 0 0 0 2.1679688 18.554688 A 1 1 0 0 0 2.6523438 18.652344 A 1 1 0 0 0 3 19 A 1 1 0 0 0 3.2324219 18.767578 A 1 1 0 0 0 3.5546875 18.832031 L 8.1074219 15.796875 L 11.158203 20.541016 A 1.0001 1.0001 0 0 0 12.841797 20.541016 L 16.597656 14.699219 L 20.513672 16.875 A 1.0001 1.0001 0 0 0 22 16 L 22 6 A 1.0001 1.0001 0 0 0 21.900391 5.8671875 A 1.0001 1.0001 0 0 0 21.564453 5.4199219 A 1.0001 1.0001 0 0 0 21.130859 5.0976562 A 1.0001 1.0001 0 0 0 21 5 L 3 5 z M 6.8613281 7 L 17.697266 7 L 12.771484 10.283203 L 6.8613281 7 z M 5.9960938 8.8085938 L 10.898438 11.533203 L 8.6914062 13.003906 L 5.9960938 8.8085938 z M 4 9.40625 L 7.0273438 14.113281 L 4 16.130859 L 4 9.40625 z M 20 9.40625 L 20 14.298828 L 17.681641 13.011719 L 20 9.40625 z M 17.566406 9.4902344 L 15.929688 12.037109 L 14.738281 11.376953 L 17.566406 9.4902344 z M 12.865234 12.625 L 14.84375 13.724609 L 12 18.150391 L 9.7734375 14.685547 L 12.865234 12.625 z " fill="currentColor"/>
</svg>
