<svg xmlns="http://www.w3.org/2000/svg" width="1em" height="1em" viewBox="0 0 24 24" fill="currentColor">
  <path d="M 8.0058594 2 C 6.8612243 2 5.7102201 2.4086954 4.96875 3.3320312 L 4.9667969 3.3339844 C 4.3163932 4.1358954 4.0058594 5.1660425 4.0058594 6.2753906 L 4.0058594 17.646484 C 4.0058594 18.795857 4.3019104 19.843356 4.953125 20.650391 L 4.9550781 20.652344 C 5.687894 21.566005 6.831873 22 8.0058594 22 C 9.3284654 22 10.54951 21.33197 11.246094 20.199219 C 11.63898 19.55979 11.994774 18.623116 12 17.519531 L 14.306641 20.714844 A 1.0001 1.0001 0 0 0 14.330078 20.748047 C 14.978971 21.575214 16.020487 22 17.117188 22 C 18.157576 22 19.148159 21.572154 19.873047 20.820312 C 20.60735 20.074746 21.011539 19.06582 20.998047 18.019531 C 20.996747 17.214101 20.743109 16.430374 20.255859 15.800781 L 17.220703 11.496094 L 19.632812 8.0429688 A 1.0001 1.0001 0 0 0 19.638672 8.0351562 C 20.061009 7.4160959 20.271484 6.6735788 20.271484 5.9121094 C 20.271484 4.871837 19.848988 3.8854896 19.111328 3.1503906 A 1.0001 1.0001 0 0 0 19.107422 3.1464844 C 18.366168 2.4155018 17.382913 2 16.351562 2 C 15.070921 2 13.900897 2.6839956 13.148438 3.7851562 A 1.0001 1.0001 0 0 0 13.132812 3.8105469 L 11.992188 5.59375 C 12.006339 5.3621521 12.055563 5.148302 11.978516 4.8164062 C 11.850955 4.2671467 11.56115 3.7480463 11.146484 3.2910156 C 10.312933 2.3682064 9.1204032 2 8.0058594 2 z M 8.0058594 4 C 8.6273156 4 9.3376609 4.2736217 9.6621094 4.6328125 A 1.0001 1.0001 0 0 0 9.6640625 4.6347656 C 9.8808293 4.8736785 9.9734247 5.0595556 10.019531 5.2324219 L 10.017578 5.2304688 L 10.015625 5.2304688 L 10.015625 5.2324219 L 10.013672 5.2324219 L 10.013672 5.234375 L 10.013672 5.2363281 C 9.9948742 5.2912686 10.005859 5.7557708 10.005859 6.3027344 L 10.005859 8.9941406 A 1 1 0 0 0 10 9 A 1 1 0 0 0 10.353516 9.3535156 A 1 1 0 0 0 10.460938 9.8417969 A 1 1 0 0 0 10.773438 9.7734375 A 1 1 0 0 0 11 10 L 11.005859 10 A 1.0001 1.0001 0 0 0 11.361328 9.6445312 A 1 1 0 0 0 11.841797 9.5390625 L 14.800781 4.9140625 C 15.27828 4.2152232 15.688205 4 16.351562 4 C 16.899255 4 17.283229 4.156955 17.701172 4.5683594 C 18.113888 4.9804123 18.271484 5.3573552 18.271484 5.9121094 C 18.271484 6.3258887 18.177294 6.6257502 17.986328 6.90625 L 17.986328 6.9082031 L 15.179688 10.927734 A 1.0001 1.0001 0 0 0 15.183594 12.076172 L 18.648438 16.988281 A 1.0001 1.0001 0 0 0 18.673828 17.023438 C 18.897299 17.312183 19 17.607062 19 18.025391 A 1.0001 1.0001 0 0 0 19 18.041016 C 19.008 18.557039 18.808125 19.052892 18.445312 19.419922 A 1.0001 1.0001 0 0 0 18.435547 19.429688 C 18.038909 19.842583 17.670409 20 17.117188 20 C 16.462797 20 16.167091 19.845551 15.90625 19.513672 L 15.904297 19.513672 L 11.816406 13.847656 A 1.0001 1.0001 0 0 0 10.005859 14.433594 L 10.005859 17.5 C 10.005859 18.137796 9.741252 18.826456 9.5410156 19.152344 C 9.1522242 19.783381 8.7601146 20 8.0058594 20 C 7.2927916 20 6.8169306 19.779171 6.5136719 19.400391 A 1.0001 1.0001 0 0 0 6.5117188 19.396484 C 6.1940105 19.004252 6.0058594 18.470517 6.0058594 17.646484 L 6.0058594 6.2753906 C 6.0058594 5.5176933 6.1870279 5.0035921 6.5214844 4.5917969 A 1.0001 1.0001 0 0 0 6.5253906 4.5859375 C 6.8081022 4.2319877 7.3272515 4 8.0058594 4 z " fill="currentColor"/>
</svg>
