<svg xmlns="http://www.w3.org/2000/svg" width="1em" height="1em" viewBox="0 0 24 24" fill="currentColor">
  <path d="M 5.5 3 C 3.5339761 3 2 4.6077906 2 6.5 C 2 8.3922094 3.5339761 10 5.5 10 L 6.1660156 10 L 2.5234375 15.648438 A 1.0001 1.0001 0 0 0 2.5117188 15.664062 C 1.8372517 16.757292 1.8307207 18.142495 2.4941406 19.242188 L 2.4960938 19.244141 C 3.1571128 20.341922 4.3629491 21 5.6523438 21 L 16.5 21 C 18.466024 21 20 19.392209 20 17.5 C 20 15.607791 18.466024 14 16.5 14 L 15.822266 14 L 21.84375 4.5371094 A 1.0001 1.0001 0 0 0 21 3 L 5.5 3 z M 5.5 5 L 19.177734 5 L 13.15625 14.462891 A 1.0001 1.0001 0 0 0 14 16 L 16.5 16 C 17.463976 16 18 16.594209 18 17.5 C 18 18.405791 17.463976 19 16.5 19 L 5.6523438 19 C 5.0426946 19 4.4942864 18.68759 4.2089844 18.212891 A 1.0001 1.0001 0 0 0 4.2070312 18.210938 C 3.9275454 17.749063 3.9313676 17.174325 4.2148438 16.714844 L 8.8398438 9.5410156 A 1.0001 1.0001 0 0 0 8 8 L 5.5 8 C 4.5360239 8 4 7.4057906 4 6.5 C 4 5.5942094 4.5360239 5 5.5 5 z " fill="currentColor"/>
</svg>
