<svg xmlns="http://www.w3.org/2000/svg" width="1em" height="1em" viewBox="0 0 24 24" fill="currentColor">
  <path d="M 12 2 C 8.3166667 2 5.7580197 2.4294803 4.09375 4.09375 C 2.4294803 5.7580197 2 8.3166667 2 12 C 2 15.683333 2.4294803 18.24198 4.09375 19.90625 C 5.7580197 21.57052 8.3166667 22 12 22 C 15.683333 22 18.24198 21.57052 19.90625 19.90625 C 21.57052 18.24198 22 15.683333 22 12 C 22 8.3166667 21.57052 5.7580197 19.90625 4.09375 C 18.24198 2.4294803 15.683333 2 12 2 z M 12 4 C 15.516667 4 17.456457 4.4720822 18.492188 5.5078125 C 19.527918 6.5435428 20 8.4833333 20 12 C 20 15.516667 19.527918 17.456457 18.492188 18.492188 C 17.456457 19.527918 15.516667 20 12 20 C 8.4833333 20 6.5435428 19.527918 5.5078125 18.492188 C 4.4720822 17.456457 4 15.516667 4 12 C 4 8.4833333 4.4720822 6.5435428 5.5078125 5.5078125 C 6.5435428 4.4720822 8.4833333 4 12 4 z M 8 7 A 1 1 0 0 0 7 8 A 1 1 0 0 0 8 9 L 15 9 L 15 16 A 1 1 0 0 0 16 17 A 1 1 0 0 0 17 16 L 17 8 A 1.0001 1.0001 0 0 0 16 7 L 8 7 z M 10.5 10 C 9.6527779 10 8.7921194 10.277014 8.1171875 10.876953 C 7.4422556 11.476892 7 12.416667 7 13.5 C 7 14.583333 7.4422556 15.523108 8.1171875 16.123047 C 8.7921194 16.722986 9.6527779 17 10.5 17 C 11.347222 17 12.207881 16.722986 12.882812 16.123047 C 13.557743 15.523108 14 14.583333 14 13.5 C 14 12.416667 13.557744 11.476892 12.882812 10.876953 C 12.20788 10.277014 11.347222 10 10.5 10 z M 10.5 12 C 10.902778 12 11.292119 12.139653 11.554688 12.373047 C 11.817255 12.606441 12 12.916667 12 13.5 C 12 14.083333 11.817256 14.393559 11.554688 14.626953 C 11.292118 14.860347 10.902778 15 10.5 15 C 10.097222 15 9.7078806 14.860347 9.4453125 14.626953 C 9.1827444 14.393559 9 14.083333 9 13.5 C 9 12.916667 9.1827444 12.606441 9.4453125 12.373047 C 9.7078806 12.139653 10.097222 12 10.5 12 z " fill="currentColor"/>
</svg>
