<svg xmlns="http://www.w3.org/2000/svg" width="1em" height="1em" viewBox="0 0 24 24" fill="currentColor">
  <path d="M 5.5351562 2 C 4.8267131 1.9932681 4.1697633 2.4951406 4.0195312 3.2109375 L 3.0332031 7.8242188 C 2.8599797 8.6376014 3.3970049 9.4621923 4.2109375 9.6328125 L 7.8730469 10.408203 L 6 19.175781 A 1.0001 1.0001 0 0 0 5.9980469 19.183594 C 5.83057 19.994204 6.364363 20.811447 7.1738281 20.984375 A 1.0001 1.0001 0 0 0 7.1757812 20.984375 L 11.818359 21.966797 C 12.629327 22.13857 13.451659 21.607316 13.626953 20.796875 A 1.0001 1.0001 0 0 0 13.626953 20.794922 L 15.503906 12.021484 L 19.162109 12.794922 C 19.975845 12.973327 20.804638 12.437244 20.978516 11.623047 L 20.978516 11.621094 L 21.966797 7.0058594 L 21.964844 7.0058594 C 22.140623 6.190683 21.600676 5.3671549 20.789062 5.1953125 L 20.787109 5.1953125 L 5.8398438 2.0351562 C 5.7378252 2.0125897 5.6363624 2.0009617 5.5351562 2 z M 5.8769531 4.0878906 L 19.910156 7.0546875 L 19.123047 10.742188 L 15.238281 9.9199219 A 1.0001 1.0001 0 0 0 15.228516 9.9179688 C 14.990572 9.8698988 14.653434 9.8514726 14.308594 10.042969 C 13.963753 10.234465 13.760766 10.609547 13.701172 10.880859 A 1.0001 1.0001 0 0 0 13.699219 10.886719 L 11.771484 19.912109 L 8.0546875 19.126953 L 9.9824219 10.105469 L 9.9824219 10.103516 C 10.036764 9.852692 10.036006 9.4679892 9.8183594 9.1367188 C 9.6002856 8.8047976 9.2528616 8.6553214 9.0039062 8.6035156 L 5.0898438 7.7753906 L 5.8769531 4.0878906 z " fill="currentColor"/>
</svg>
