<svg xmlns="http://www.w3.org/2000/svg" width="1em" height="1em" viewBox="0 0 24 24" fill="currentColor">
  <path d="M 12 2 A 1.0001 1.0001 0 0 0 11.292969 2.2929688 L 3.2929688 10.292969 A 1.0001 1.0001 0 0 0 3.2929688 11.707031 L 6.2929688 14.707031 A 1 1 0 0 0 7.7070312 14.707031 L 18.707031 3.7070312 A 1.0001 1.0001 0 0 0 18 2 L 12 2 z M 12.414062 4 L 15.585938 4 L 7 12.585938 L 5.4140625 11 L 12.414062 4 z M 14 10 A 1.0001 1.0001 0 0 0 13.292969 10.292969 L 8.2929688 15.292969 A 1.0001 1.0001 0 0 0 8.2929688 16.707031 L 13.292969 21.707031 A 1 1 0 0 0 14 22 L 19 22 A 1.0001 1.0001 0 0 0 19.707031 20.292969 L 15.414062 16 L 19.707031 11.707031 A 1.0001 1.0001 0 0 0 19 10 L 14 10 z M 14.414062 12 L 16.585938 12 L 13.292969 15.292969 A 1.0001 1.0001 0 0 0 13.292969 16.707031 L 16.585938 20 L 14.414062 20 L 10.414062 16 L 14.414062 12 z " fill="currentColor"/>
</svg>
