<svg xmlns="http://www.w3.org/2000/svg" width="1em" height="1em" viewBox="0 0 24 24" fill="currentColor">
  <path d="M 3 5 A 1.0001 1.0001 0 0 0 2.1679688 6.5546875 L 5.7988281 12 L 2.1679688 17.445312 A 1.0001 1.0001 0 0 0 3 19 L 8 19 A 1.0001 1.0001 0 0 0 8.8320312 18.554688 L 10.427734 16.162109 A 1 1 0 0 0 10.150391 14.775391 A 1 1 0 0 0 8.7636719 15.052734 L 7.4648438 17 L 4.8691406 17 L 7.8320312 12.554688 A 1.0001 1.0001 0 0 0 7.8320312 11.445312 L 4.8691406 7 L 7.4648438 7 L 15.167969 18.554688 A 1.0001 1.0001 0 0 0 16 19 L 21 19 A 1.0001 1.0001 0 0 0 21.832031 17.445312 L 18.201172 12 L 21.832031 6.5546875 A 1.0001 1.0001 0 0 0 21 5 L 16 5 A 1.0001 1.0001 0 0 0 15.167969 5.4453125 L 13.568359 7.84375 A 1 1 0 0 0 13.845703 9.2304688 A 1 1 0 0 0 15.232422 8.953125 L 16.535156 7 L 19.130859 7 L 16.167969 11.445312 A 1.0001 1.0001 0 0 0 16.167969 12.554688 L 19.130859 17 L 16.535156 17 L 8.8320312 5.4453125 A 1.0001 1.0001 0 0 0 8 5 L 3 5 z " fill="currentColor"/>
</svg>
