<svg xmlns="http://www.w3.org/2000/svg" width="1em" height="1em" viewBox="0 0 24 24" fill="currentColor">
  <path d="M 4.5 8.5 C 3.6527779 8.5 2.7921194 8.7770139 2.1171875 9.3769531 C 1.4422556 9.9768923 1 10.916667 1 12 C 1 13.083333 1.4422556 14.023108 2.1171875 14.623047 C 2.7921194 15.222986 3.6527779 15.5 4.5 15.5 C 5.3472221 15.5 6.2078806 15.222986 6.8828125 14.623047 C 7.5577444 14.023108 8 13.083333 8 12 C 8 10.916667 7.5577444 9.9768923 6.8828125 9.3769531 C 6.2078806 8.7770139 5.3472221 8.5 4.5 8.5 z M 13 9 C 12.277778 9 11.542119 9.2353472 10.960938 9.7519531 C 10.379755 10.268559 10 11.083334 10 12 C 10 12.916666 10.379756 13.731441 10.960938 14.248047 C 11.542118 14.764653 12.277778 15 13 15 C 13.722222 15 14.45788 14.764653 15.039062 14.248047 C 15.620243 13.731441 16 12.916666 16 12 C 16 11.083334 15.620244 10.268559 15.039062 9.7519531 C 14.45788 9.2353472 13.722222 9 13 9 z M 20.5 9.5 C 19.902778 9.5 19.292119 9.6936806 18.804688 10.126953 C 18.317256 10.560226 18 11.25 18 12 C 18 12.75 18.317256 13.439774 18.804688 13.873047 C 19.292119 14.306319 19.902778 14.5 20.5 14.5 C 21.097222 14.5 21.707881 14.306319 22.195312 13.873047 C 22.682744 13.439774 23 12.75 23 12 C 23 11.25 22.682744 10.560226 22.195312 10.126953 C 21.707881 9.6936806 21.097222 9.5 20.5 9.5 z M 4.5 10.5 C 4.9027779 10.5 5.2921194 10.639653 5.5546875 10.873047 C 5.8172556 11.106441 6 11.416667 6 12 C 6 12.583333 5.8172556 12.893559 5.5546875 13.126953 C 5.2921194 13.360347 4.9027779 13.5 4.5 13.5 C 4.0972221 13.5 3.7078806 13.360347 3.4453125 13.126953 C 3.1827444 12.893559 3 12.583333 3 12 C 3 11.416667 3.1827444 11.106441 3.4453125 10.873047 C 3.7078806 10.639653 4.0972221 10.5 4.5 10.5 z M 13 11 C 13.277778 11 13.542119 11.09799 13.710938 11.248047 C 13.879755 11.398107 14 11.583334 14 12 C 14 12.416666 13.879756 12.601893 13.710938 12.751953 C 13.542118 12.902014 13.277778 13 13 13 C 12.722222 13 12.45788 12.902014 12.289062 12.751953 C 12.120243 12.601893 12 12.416666 12 12 C 12 11.583334 12.120244 11.398107 12.289062 11.248047 C 12.45788 11.097986 12.722222 11 13 11 z M 20.5 11.5 C 20.652778 11.5 20.792119 11.55632 20.867188 11.623047 C 20.942256 11.689774 21 11.75 21 12 C 21 12.25 20.94226 12.310226 20.867188 12.376953 C 20.792119 12.44368 20.652778 12.5 20.5 12.5 C 20.347222 12.5 20.207881 12.44368 20.132812 12.376953 C 20.057744 12.310226 20 12.25 20 12 C 20 11.75 20.057744 11.689774 20.132812 11.623047 C 20.207881 11.55632 20.347222 11.5 20.5 11.5 z " fill="currentColor"/>
</svg>
