<svg xmlns="http://www.w3.org/2000/svg" width="1em" height="1em" viewBox="0 0 24 24" fill="currentColor">
  <path d="M 12 3 A 1.0001 1.0001 0 0 0 11.142578 3.4863281 L 2.1425781 18.486328 A 1 1 0 0 0 2.2167969 18.783203 A 1 1 0 0 0 2 19 A 1 1 0 0 0 2.3613281 19.361328 A 1 1 0 0 0 2.4863281 19.857422 A 1 1 0 0 0 2.921875 19.921875 A 1 1 0 0 0 3 20 L 21 20 A 1.0001 1.0001 0 0 0 21.857422 18.486328 L 12.857422 3.4863281 A 1.0001 1.0001 0 0 0 12 3 z M 12 5.9433594 L 19.234375 18 L 4.765625 18 L 12 5.9433594 z " fill="currentColor"/>
</svg>
