<svg xmlns="http://www.w3.org/2000/svg" width="1em" height="1em" viewBox="0 0 24 24" fill="currentColor">
  <path d="M 9.9394531 5.0273438 C 9.2598452 5.0338126 8.5826361 5.3589172 8.2011719 5.9980469 L 2.2910156 15.90625 C 1.5031719 17.22652 2.5074539 18.99819 4.0449219 19 A 1.0001 1.0001 0 0 0 4.046875 19 L 7.9609375 19 A 1 1 0 0 0 8.9609375 18 A 1 1 0 0 0 7.9609375 17 L 4.0488281 17 C 4.016847 16.999962 3.9944636 16.999442 3.984375 16.996094 L 3.9824219 16.994141 L 3.9804688 16.994141 L 3.9804688 16.992188 L 3.9785156 16.990234 L 3.9785156 16.988281 L 3.9785156 16.986328 L 3.9785156 16.984375 C 3.9786826 16.983525 3.9801875 16.979459 3.9804688 16.978516 C 3.984397 16.968102 3.9941559 16.952566 4.0078125 16.929688 A 1.0001 1.0001 0 0 0 4.0097656 16.929688 L 9.9179688 7.0234375 C 9.9300684 7.0031647 9.940193 6.9879312 9.9472656 6.9804688 L 9.9492188 6.9785156 L 9.9511719 6.9765625 L 9.953125 6.9765625 L 9.9550781 6.9765625 L 9.9550781 6.9746094 L 9.9570312 6.9746094 L 9.9589844 6.9746094 L 9.9609375 6.9765625 L 9.9628906 6.9765625 L 9.9648438 6.9785156 L 9.9667969 6.9804688 L 9.96875 6.9824219 C 9.9757325 6.9897104 9.9842344 7.0024213 9.9960938 7.0214844 L 11.296875 9.1113281 A 1 1 0 0 0 12.673828 9.4316406 A 1 1 0 0 0 12.996094 8.0546875 L 11.695312 5.9648438 C 11.30175 5.3330911 10.619061 5.0208749 9.9394531 5.0273438 z M 16 8.0332031 C 15.330865 8.0332031 14.662371 8.3551032 14.306641 8.9980469 L 10.271484 15.996094 C 9.5328697 17.276102 10.457638 19 11.957031 19 L 20.042969 19 C 21.542362 19 22.467368 17.27648 21.730469 15.996094 A 1.0001 1.0001 0 0 0 21.728516 15.996094 L 17.693359 8.9980469 C 17.337629 8.3551032 16.669135 8.0332031 16 8.0332031 z M 16 10.064453 L 19.996094 16.994141 C 19.997338 16.996302 19.998835 16.998223 20 17 L 12 17 C 12.001164 16.998222 12.002661 16.9963 12.003906 16.994141 L 16 10.064453 z " fill="currentColor"/>
</svg>
