<svg xmlns="http://www.w3.org/2000/svg" width="1em" height="1em" viewBox="0 0 24 24" fill="currentColor">
  <path d="M 8.5 3 C 5.4742785 3 3 5.4742785 3 8.5 L 3 18 C 3 19.64501 4.3549904 21 6 21 L 15.5 21 C 18.525721 21 21 18.525721 21 15.5 L 21 8.5 C 21 5.4742785 18.525721 3 15.5 3 L 8.5 3 z M 8.5 5 L 15.5 5 C 17.444841 5 19 6.5551587 19 8.5 L 19 15.5 C 19 17.444841 17.444841 19 15.5 19 L 6 19 C 5.4358706 19 5 18.564129 5 18 L 5 8.5 C 5 6.5551587 6.5551587 5 8.5 5 z M 9 7 C 7.9072751 7 7 7.9072751 7 9 L 7 12 L 7 16 A 1.0001 1.0001 0 0 0 8 17 L 11.5 17 C 12.416666 17 13.231441 16.620244 13.748047 16.039062 C 14.264653 15.457881 14.5 14.722222 14.5 14 C 14.5 13.277778 14.264653 12.542119 13.748047 11.960938 C 13.544602 11.732062 13.26429 11.565607 12.980469 11.410156 C 13.220905 10.953327 13.5 10.499411 13.5 10 C 13.5 9.2777779 13.264653 8.5421194 12.748047 7.9609375 C 12.231441 7.3797556 11.416666 7 10.5 7 L 9 7 z M 9 9 L 10.5 9 C 10.916666 9 11.101893 9.1202444 11.251953 9.2890625 C 11.402014 9.4578806 11.5 9.7222221 11.5 10 C 11.5 10.277778 11.40201 10.542119 11.251953 10.710938 C 11.101893 10.879755 10.916666 11 10.5 11 L 9 11 L 9 9 z M 9 13 L 10.5 13 L 11.5 13 C 11.916666 13 12.101893 13.120244 12.251953 13.289062 C 12.402014 13.45788 12.5 13.722222 12.5 14 C 12.5 14.277778 12.40201 14.542119 12.251953 14.710938 C 12.101893 14.879755 11.916666 15 11.5 15 L 9 15 L 9 13 z M 16 15 A 1 1 0 0 0 15 16 A 1 1 0 0 0 16 17 L 16.009766 17 A 1 1 0 0 0 17.009766 16 A 1 1 0 0 0 16.009766 15 L 16 15 z " fill="currentColor"/>
</svg>
