<svg xmlns="http://www.w3.org/2000/svg" width="1em" height="1em" viewBox="0 0 24 24" fill="currentColor">
  <path d="M 16.050781 3.0019531 A 1.0001 1.0001 0 0 0 15.207031 3.390625 L 9.8457031 10.359375 L 6.7929688 6.390625 A 1.0001 1.0001 0 0 0 5.5527344 6.1054688 L 3.5527344 7.1054688 A 1 1 0 0 0 3.3828125 7.6171875 A 1 1 0 0 0 3 8 L 3 16 A 1.0001 1.0001 0 0 0 3.5527344 16.894531 L 5.5527344 17.894531 A 1.0001 1.0001 0 0 0 6.7929688 17.609375 L 9.8457031 13.640625 L 15.207031 20.609375 A 1.0001 1.0001 0 0 0 16.447266 20.894531 L 20.447266 18.894531 A 1.0001 1.0001 0 0 0 21 18 L 21 6 A 1.0001 1.0001 0 0 0 20.447266 5.1054688 L 16.447266 3.1054688 A 1.0001 1.0001 0 0 0 16.050781 3.0019531 z M 16.291016 5.2636719 L 19 6.6171875 L 19 17.382812 L 16.291016 18.736328 L 11.109375 12 L 16.291016 5.2636719 z M 5.7089844 8.2636719 L 8.5839844 12 L 5.7089844 15.736328 L 5 15.382812 L 5 8.6171875 L 5.7089844 8.2636719 z " fill="currentColor"/>
</svg>
