<svg xmlns="http://www.w3.org/2000/svg" width="1em" height="1em" viewBox="0 0 24 24" fill="currentColor">
  <path d="M 12 6 A 1.0001 1.0001 0 0 0 11 7 L 11 17 A 1.0001 1.0001 0 0 0 12 18 L 18 18 C 20.096889 18 22 16.2605 22 14 C 22 12.824138 21.446148 11.811938 20.697266 11.119141 C 19.948383 10.426344 18.997729 10 18 10 L 17.705078 10 C 17.376114 8.9479138 16.896367 7.9862287 16.083984 7.2988281 C 15.060895 6.4331372 13.666667 6 12 6 z M 9 7 A 1 1 0 0 0 8 8 L 8 17 A 1 1 0 0 0 9 18 A 1 1 0 0 0 10 17 L 10 8 A 1 1 0 0 0 9 7 z M 13 8.1328125 C 13.748004 8.2578439 14.369314 8.4693473 14.791016 8.8261719 C 15.392926 9.3354809 15.799703 10.09617 16.019531 11.195312 A 1 1 0 0 0 16.548828 11.548828 A 1 1 0 0 0 17 12 L 18 12 C 18.382271 12 18.931773 12.210234 19.337891 12.585938 C 19.744008 12.961639 20 13.449862 20 14 C 20 15.0535 18.903111 16 18 16 L 13 16 L 13 8.1328125 z M 6 9 A 1 1 0 0 0 5 10 L 5 17 A 1 1 0 0 0 6 18 A 1 1 0 0 0 7 17 L 7 10 A 1 1 0 0 0 6 9 z M 3 13 A 1 1 0 0 0 2 14 L 2 16 A 1 1 0 0 0 3 17 A 1 1 0 0 0 4 16 L 4 14 A 1 1 0 0 0 3 13 z " fill="currentColor"/>
</svg>
