<svg xmlns="http://www.w3.org/2000/svg" width="1em" height="1em" viewBox="0 0 24 24" fill="currentColor">
  <path d="M 11.990234 3.0019531 C 10.956831 3.0019531 9.9234267 3.5067525 9.3652344 4.515625 L 7.5351562 7.6738281 A 1.0001 1.0001 0 0 0 7.984375 9.0859375 C 11.823798 10.842032 14.478055 14.590351 14.853516 19 L 12.849609 19 C 12.473623 15.348803 10.207899 12.131249 6.7558594 10.732422 A 1.0001 1.0001 0 0 0 5.5136719 11.158203 C 4.7138977 12.539813 4.0326011 13.716968 3.4726562 14.693359 A 1.0001 1.0001 0 0 0 4.0722656 16.154297 C 5.4474347 16.535033 6.2946994 17.67801 6.6640625 19 L 5 19 C 4.973075 19 4.9612461 18.999908 4.9394531 19 C 4.6163701 18.982335 4.3241048 18.812198 4.1503906 18.539062 A 1.0001 1.0001 0 0 0 4.1464844 18.535156 C 4.0471807 18.380591 3.9968851 18.201265 4 18.017578 A 1 1 0 0 0 3.0175781 17 A 1 1 0 0 0 2 17.982422 C 1.99022 18.559296 2.1517728 19.127471 2.4628906 19.613281 L 2.4628906 19.615234 L 2.4648438 19.615234 C 2.8684076 20.248442 3.5181482 20.621423 4.2285156 20.816406 C 4.2579656 20.839336 4.296854 20.869131 4.296875 20.869141 C 4.2969428 20.86918 4.419825 20.929648 4.4199219 20.929688 C 4.4201155 20.929768 4.5187709 20.965286 4.546875 20.972656 C 4.6733451 21.005833 4.7134506 21.01128 4.7265625 21.009766 L 4.7285156 21.007812 L 4.7304688 21.007812 L 4.7324219 21.005859 L 4.734375 21.005859 L 4.734375 21.003906 L 4.7363281 21.003906 L 4.7382812 21.003906 L 4.7402344 21.003906 C 4.7643134 21.005806 4.7821613 21.006912 4.8007812 21.007812 C 4.8380212 21.009712 4.8754082 21.010519 4.9140625 21.011719 C 4.9527175 21.012919 4.9897995 21.013172 5.0253906 21.013672 C 5.0431866 21.013889 5.0607722 21.013887 5.0820312 21.013672 C 5.0833599 21.013658 5.0850808 21.013562 5.0859375 21.013672 L 5.0878906 21.013672 L 5.0878906 21.015625 L 5.0898438 21.015625 L 5.0898438 21.017578 L 5.0917969 21.017578 L 5.09375 21.017578 L 5.0957031 21.017578 C 5.1061983 21.019288 5.1366522 21.018356 5.2421875 21.001953 C 5.2443075 21.001623 5.2489331 21.0006 5.2519531 21 L 8 21 A 1.0001 1.0001 0 0 0 9 20 C 8.999542 17.741791 7.6884929 15.773494 5.7460938 14.755859 C 6.0511858 14.226824 6.3822782 13.65376 6.7460938 13.025391 C 9.3165953 14.409129 10.999934 17.033222 11 20 A 1.0001 1.0001 0 0 0 12 21 L 16 21 L 19 21 A 1.0001 1.0001 0 0 0 19.007812 21 C 21.092305 20.98538 22.549333 18.807403 21.767578 16.875 A 1.0001 1.0001 0 0 0 21.705078 16.748047 L 14.615234 4.515625 C 14.057042 3.5067525 13.023638 3.0019531 11.990234 3.0019531 z M 11.990234 4.9335938 C 12.326262 4.9335938 12.66229 5.1175753 12.865234 5.484375 A 1.0001 1.0001 0 0 0 12.875 5.5019531 L 19.910156 17.642578 C 20.17153 18.322085 19.725282 18.994857 18.992188 19 L 16.851562 19 C 16.498883 14.181298 13.74876 10.092926 9.7402344 7.859375 L 11.105469 5.5019531 A 1.0001 1.0001 0 0 0 11.115234 5.484375 C 11.318179 5.1175753 11.654206 4.9335937 11.990234 4.9335938 z M 5.6953125 19.640625 C 5.7300605 19.705085 5.7773467 19.791028 5.7773438 19.791016 C 5.7773354 19.790977 5.6699 20.498085 5.6699219 20.498047 C 5.6699317 20.49803 5.605419 20.568797 5.5429688 20.638672 C 5.3832163 20.41819 5.0898438 20.013672 5.0898438 20.013672 C 5.0898438 20.013672 5.4467261 19.794298 5.6953125 19.640625 z " fill="currentColor"/>
</svg>
