<svg xmlns="http://www.w3.org/2000/svg" width="1em" height="1em" viewBox="0 0 24 24" fill="currentColor">
  <path d="M 6.5 5 C 4.0265633 5 2 7.0265633 2 9.5 L 2 14.5 C 2 16.973437 4.0265633 19 6.5 19 L 7 19 C 9.1972944 19 11 17.197294 11 15 A 1 1 0 0 0 10 14 A 1 1 0 0 0 9 15 C 9 16.116414 8.1164141 17 7 17 L 6.5 17 C 5.1074435 17 4 15.892557 4 14.5 L 4 9.5 C 4 8.1074435 5.1074435 7 6.5 7 L 7 7 C 8.1164141 7 9 7.8835859 9 9 A 1 1 0 0 0 10 10 A 1 1 0 0 0 11 9 C 11 6.8027056 9.1972944 5 7 5 L 6.5 5 z M 15.96875 6.0019531 A 1 1 0 0 0 15.005859 6.9003906 L 14.796875 9 L 14 9 A 1 1 0 0 0 13 10 A 1 1 0 0 0 14 11 L 14.595703 11 L 14.396484 13 L 13.5 13 A 1 1 0 0 0 12.5 14 A 1 1 0 0 0 13.5 15 L 14.195312 15 L 14.005859 16.900391 A 1 1 0 0 0 14.900391 17.994141 A 1 1 0 0 0 15.994141 17.099609 L 16.203125 15 L 18.195312 15 L 18.005859 16.900391 A 1 1 0 0 0 18.900391 17.994141 A 1 1 0 0 0 19.994141 17.099609 L 20.203125 15 L 21 15 A 1 1 0 0 0 22 14 A 1 1 0 0 0 21 13 L 20.404297 13 L 20.603516 11 L 21.5 11 A 1 1 0 0 0 22.5 10 A 1 1 0 0 0 21.5 9 L 20.804688 9 L 20.994141 7.0996094 A 1 1 0 0 0 20.099609 6.0058594 A 1 1 0 0 0 19.005859 6.9003906 L 18.796875 9 L 16.804688 9 L 16.994141 7.0996094 A 1 1 0 0 0 16.099609 6.0058594 A 1 1 0 0 0 15.96875 6.0019531 z M 16.603516 11 L 18.595703 11 L 18.396484 13 L 16.404297 13 L 16.603516 11 z " fill="currentColor"/>
</svg>
