<svg xmlns="http://www.w3.org/2000/svg" width="1em" height="1em" viewBox="0 0 24 24" fill="currentColor">
  <path d="M 11 3 A 1 1 0 0 0 10 4 L 10 6 L 8 6 A 1 1 0 0 0 7 7 L 7 9 L 5 9 A 1 1 0 0 0 4 10 L 4 12 L 3 12 A 1.0001 1.0001 0 0 0 2 13 C 2 15.806509 2.8832059 17.873939 4.2753906 19.181641 C 5.6675754 20.489342 7.4823028 21 9.1953125 21 C 13.401663 21.02152 17.382856 19.519667 19.65625 15.828125 C 20.33706 15.628982 20.92166 15.264012 21.394531 14.818359 C 21.98961 14.257534 22.471909 13.619926 22.824219 13.105469 A 1 1 0 0 0 22.804688 13 A 1 1 0 0 0 22.982422 12.728516 A 1 1 0 0 0 22.667969 12.263672 A 1 1 0 0 0 22.564453 11.714844 A 1 1 0 0 0 22.324219 11.759766 A 1 1 0 0 0 22.1875 11.558594 C 21.384151 11.40496 20.902389 11.195586 20.509766 10.869141 C 20.117142 10.542695 19.768902 10.046847 19.392578 9.1953125 A 1.0001 1.0001 0 0 0 18.574219 8.6054688 A 1.0001 1.0001 0 0 0 17.658203 9.0273438 C 17.200598 9.6813331 16.437487 10.687812 16.607422 12 L 16.5625 12 C 16.563129 11.996247 16.563738 11.969543 16.5625 11.960938 L 16.560547 11.960938 C 16.557847 11.969637 16.549192 11.98831 16.544922 12 L 15 12 L 15 10 L 15 7 L 15 4 A 1.0001 1.0001 0 0 0 14 3 L 11 3 z M 12 5 L 13 5 L 13 6 L 12 6 L 12 5 z M 9 8 L 10 8 L 10 9 L 9 9 L 9 8 z M 12 8 L 13 8 L 13 9 L 12 9 L 12 8 z M 6 11 L 7 11 L 7 12 L 6 12 L 6 11 z M 9 11 L 10 11 L 10 12 L 9 12 L 9 11 z M 12 11 L 13 11 L 13 12 L 12 12 L 12 11 z M 18.640625 11.558594 C 18.847864 11.819895 18.978928 12.197107 19.230469 12.40625 C 19.552652 12.674129 20.014669 12.737813 20.398438 12.910156 C 20.264218 13.063015 20.163569 13.231217 20.023438 13.363281 C 19.593516 13.768456 19.161366 13.986414 18.962891 14.003906 A 1.0001 1.0001 0 0 0 18.177734 14.511719 C 16.351602 17.778199 13.095993 19.020777 9.2011719 19 A 1.0001 1.0001 0 0 0 9.1953125 19 C 8.4757731 19 7.7664688 18.885422 7.1171875 18.636719 C 7.4705166 18.479969 7.8078149 18.267684 8.140625 18.009766 A 1 1 0 0 0 8.3203125 16.607422 A 1 1 0 0 0 6.9160156 16.429688 C 6.5237422 16.733689 6.3231376 16.831701 6.0332031 16.902344 C 5.814318 16.955675 5.5101104 16.983392 5.0585938 16.994141 C 4.6015811 16.254503 4.2953238 15.250428 4.1601562 14 L 17 14 C 17.595115 14 17.798085 13.704048 17.945312 13.535156 C 18.09254 13.366264 18.184532 13.208563 18.267578 13.046875 C 18.350628 12.885187 18.417802 12.722116 18.470703 12.550781 C 18.523603 12.379447 18.593099 12.242534 18.550781 11.882812 A 1.0001 1.0001 0 0 0 18.533203 11.787109 L 18.533203 11.785156 L 18.533203 11.783203 C 18.533046 11.744972 18.633583 11.606533 18.640625 11.558594 z M 16.583984 12.162109 L 16.585938 12.162109 C 16.586163 12.163253 16.585829 12.166873 16.585938 12.167969 C 16.586011 12.180619 16.580729 12.190784 16.580078 12.203125 L 16.572266 12.167969 L 16.574219 12.166016 C 16.576657 12.165056 16.581496 12.163094 16.583984 12.162109 z M 10 15 A 1 1 0 0 0 9 16 L 9 16.009766 A 1 1 0 0 0 10 17.009766 A 1 1 0 0 0 11 16.009766 L 11 16 A 1 1 0 0 0 10 15 z " fill="currentColor"/>
</svg>
