<svg xmlns="http://www.w3.org/2000/svg" width="1em" height="1em" viewBox="0 0 24 24" fill="currentColor">
  <path d="M 6.5019531 2 C 4.5706165 1.995933 3.2387505 3.4780789 3.0273438 5.0273438 C 2.8678337 6.1962903 3.3331383 7.4977509 4.3710938 8.2871094 C 2.4467702 11.451294 2.4464215 15.739972 5.2246094 18.919922 C 7.0010795 20.953293 9.3788706 21.922173 11.75 21.96875 A 1 1 0 0 0 12 22 A 1 1 0 0 0 12.265625 21.964844 C 16.010489 21.827955 19.628379 19.408573 20.708984 15.275391 A 1 1 0 0 0 19.994141 14.054688 A 1 1 0 0 0 18.775391 14.769531 C 17.995826 17.751271 15.613027 19.591855 13 19.966797 L 13 10 A 1.0001 1.0001 0 0 0 11.529297 9.1171875 L 4.9746094 12.613281 C 5.0508658 11.204282 5.555073 9.8413877 6.4121094 8.7226562 A 1 1 0 0 0 6.7402344 8.3261719 C 7.7535771 7.1886775 9.1634304 6.3622408 10.878906 6.0898438 L 10.880859 6.0898438 L 17.085938 8.9101562 A 1.0001 1.0001 0 0 0 17.5 9 C 18.583333 9 19.523108 8.5577444 20.123047 7.8828125 C 20.722986 7.2078806 21 6.3472221 21 5.5 C 21 4.6527779 20.722986 3.7921194 20.123047 3.1171875 C 19.523108 2.4422556 18.583333 2 17.5 2 A 1 1 0 0 0 16.5 3 A 1 1 0 0 0 17.5 4 C 18.083333 4 18.393559 4.1827444 18.626953 4.4453125 C 18.860347 4.7078806 19 5.0972221 19 5.5 C 19 5.9027779 18.860347 6.2921194 18.626953 6.5546875 C 18.417381 6.790456 18.090909 6.9224944 17.615234 6.9550781 L 11.539062 4.1914062 A 1 1 0 0 0 11.353516 4.109375 L 6.9140625 2.0898438 A 1.0001 1.0001 0 0 0 6.5019531 2 z M 6.3769531 4.0429688 L 8.1601562 4.8535156 C 7.1698833 5.3214294 6.3019295 5.9609511 5.5742188 6.7207031 C 5.0598759 6.3895976 4.931609 5.8553212 5.0078125 5.296875 C 5.0996987 4.6235 5.5083791 4.1019916 6.3769531 4.0429688 z M 11 11.667969 L 11 19.964844 C 10.663842 19.915852 10.329565 19.841931 10 19.742188 L 10 12.201172 L 11 11.667969 z M 15.990234 12 A 1 1 0 0 0 14.990234 13 A 1 1 0 0 0 15.990234 14 L 16 14 A 1 1 0 0 0 17 13 A 1 1 0 0 0 16 12 L 15.990234 12 z M 8 13.267578 L 8 18.759766 C 7.5488534 18.438652 7.1223717 18.054046 6.7304688 17.605469 C 5.9666272 16.731166 5.464304 15.759714 5.1972656 14.761719 L 8 13.267578 z " fill="currentColor"/>
</svg>
