<svg xmlns="http://www.w3.org/2000/svg" width="1em" height="1em" viewBox="0 0 24 24" fill="currentColor">
  <path d="M 2 3.9980469 A 1 1 0 0 0 1.1328125 4.5 A 1 1 0 0 0 1.5 5.8671875 C 3.1872178 6.8402629 4.6843446 7.9298194 5.9960938 9.0722656 C 5.7078578 14.228439 3.8867193 15.682971 2.1503906 18.470703 A 1.0001 1.0001 0 0 0 3.4453125 19.894531 C 6.3424288 18.450666 7.98237 16.702087 11.521484 15.734375 C 12.260018 17.037752 12.761793 18.246698 13.035156 19.259766 A 1.0001 1.0001 0 0 0 14.974609 19.224609 C 15.308175 17.774192 15.897171 16.350253 16.654297 15.025391 C 17.098659 15.008995 17.563688 15 18.050781 15 C 18.949926 15 19.527909 15.153723 19.798828 15.291016 C 19.910103 15.347406 19.964883 15.38543 19.990234 15.40625 C 19.976283 15.43449 19.94007 15.492895 19.845703 15.578125 C 19.672648 15.734428 19.332642 15.924477 18.855469 16.019531 A 1.0001 1.0001 0 0 0 18.806641 17.970703 C 18.973901 18.012513 19.19763 18.185279 19.349609 18.447266 C 19.482549 18.676431 19.496016 18.903519 19.494141 19.007812 C 19.275482 19.004413 18.616749 18.846405 17.595703 18.167969 A 1 1 0 0 0 16.210938 18.447266 A 1 1 0 0 0 16.490234 19.832031 C 17.707765 20.641022 18.64977 21.036179 19.556641 21.023438 C 20.463511 21.010697 21.291037 20.290774 21.464844 19.537109 C 21.63865 18.783445 21.444754 18.071998 21.080078 17.443359 C 21.030178 17.357339 20.941201 17.290301 20.882812 17.207031 C 20.969333 17.142971 21.108727 17.133651 21.1875 17.0625 C 21.689132 16.609428 22.058912 15.959578 21.992188 15.222656 C 21.925467 14.485735 21.388019 13.852941 20.703125 13.505859 C 20.018233 13.158777 19.157636 13 18.050781 13 C 18.032769 13 18.014053 12.999976 17.996094 13 C 19.330815 11.246273 20.92624 9.7903514 22.505859 8.8632812 A 1 1 0 0 0 22.863281 7.4941406 A 1 1 0 0 0 21.494141 7.1367188 C 19.252259 8.4524671 17.138573 10.556121 15.539062 13.085938 C 14.393578 13.169124 13.377191 13.310263 12.462891 13.494141 C 10.405921 10.257321 7.1621617 6.8216384 2.5 4.1328125 A 1 1 0 0 0 2 3.9980469 z M 14 5 C 13.277778 5 12.542119 5.2353472 11.960938 5.7519531 C 11.379755 6.268559 11 7.0833335 11 8 C 11 8.9166665 11.379756 9.7314409 11.960938 10.248047 C 12.542118 10.764653 13.277778 11 14 11 C 14.722222 11 15.457881 10.764653 16.039062 10.248047 C 16.620244 9.7314409 17 8.9166665 17 8 C 17 7.0833335 16.620244 6.268559 16.039062 5.7519531 C 15.457881 5.2353472 14.722222 5 14 5 z M 14 7 C 14.277778 7 14.542119 7.097986 14.710938 7.2480469 C 14.879755 7.3981073 15 7.5833337 15 8 C 15 8.4166663 14.879756 8.6018927 14.710938 8.7519531 C 14.542118 8.9020136 14.277778 9 14 9 C 13.722222 9 13.45788 8.9020136 13.289062 8.7519531 C 13.120243 8.6018927 13 8.4166663 13 8 C 13 7.5833337 13.120244 7.3981073 13.289062 7.2480469 C 13.45788 7.0979864 13.722222 7 14 7 z M 7.8300781 10.824219 C 8.8462956 11.886768 9.7155564 12.965762 10.441406 14.015625 C 8.6284731 14.595936 7.2655735 15.360436 5.9980469 16.134766 C 6.7924723 14.754726 7.4995612 13.147362 7.8300781 10.824219 z M 14.376953 15.195312 C 14.221481 15.522374 14.07464 15.853583 13.9375 16.189453 C 13.805142 15.901219 13.662393 15.608302 13.509766 15.3125 C 13.788042 15.268891 14.077187 15.23044 14.376953 15.195312 z M 20.007812 15.423828 L 20.009766 15.423828 L 20.009766 15.425781 L 20.007812 15.425781 L 20.007812 15.423828 z " fill="currentColor"/>
</svg>
