<svg xmlns="http://www.w3.org/2000/svg" width="1em" height="1em" viewBox="0 0 24 24" fill="currentColor">
  <path d="M 4.3378906 2.0136719 C 3.1297209 2.0459083 2.0002287 3.0260436 2 4.3496094 L 2 8.4042969 C 1.9995938 9.1365976 2.4031749 9.8150506 3.046875 10.164062 L 8 12.845703 L 8 17.925781 C 8.0004991 18.634943 8.3796816 19.294926 8.9921875 19.652344 L 12.466797 21.679688 C 13.991327 22.568601 15.999695 21.415145 16 19.650391 L 16 16.074219 L 21.007812 13.154297 C 21.62093 12.796523 22.00021 12.13565 22 11.425781 L 22 7.8496094 C 21.999771 6.5260436 20.870279 5.5459083 19.662109 5.5136719 C 19.259386 5.5029259 18.847929 5.5980839 18.466797 5.8203125 L 15 7.8417969 L 5.5332031 2.3203125 C 5.1520707 2.0980842 4.7406139 2.0029264 4.3378906 2.0136719 z M 4.28125 3.9824219 C 4.3554885 3.977251 4.43937 3.9986718 4.5253906 4.0488281 L 4.5253906 4.046875 L 8 6.0742188 L 8 10.570312 L 4 8.4042969 L 4 4.3496094 C 4.0000379 4.130544 4.1179252 3.9937978 4.28125 3.9824219 z M 10 7.2402344 L 14 9.5742188 L 14 13.820312 L 10 11.654297 L 10 7.2402344 z M 19.671875 7.4824219 C 19.858338 7.4697662 19.999959 7.610629 20 7.8496094 L 20 11.425781 L 16 13.759766 L 16 9.5742188 L 19.474609 7.546875 L 19.474609 7.5488281 C 19.543426 7.5087038 19.609721 7.4866404 19.671875 7.4824219 z M 10 13.929688 L 14 16.095703 L 14 19.650391 C 13.999945 19.969031 13.749875 20.111672 13.474609 19.951172 L 13.474609 19.953125 L 10 17.925781 L 10 13.929688 z " fill="currentColor"/>
</svg>
