<svg xmlns="http://www.w3.org/2000/svg" width="1em" height="1em" viewBox="0 0 24 24" fill="currentColor">
  <path d="M 9 3 A 1 1 0 0 0 8 4 C 8 6.73 7.908774 10.762224 8.3847656 14.199219 C 8.6227613 15.917716 8.9898947 17.492354 9.6679688 18.748047 C 9.6835336 18.776871 9.6987654 18.805443 9.7148438 18.833984 C 9.4280884 18.944781 9.1538677 19 8.8945312 19 C 8.1792317 19 7.5900671 18.615444 6.9570312 17.697266 C 6.3239955 16.779088 5.7678678 15.377363 5.3417969 13.78125 C 4.489655 10.589023 4.1225447 6.6300734 3.9980469 3.953125 A 1 1 0 0 0 2.953125 3.0019531 A 1 1 0 0 0 2.0019531 4.046875 C 2.1304553 6.8099266 2.487845 10.851055 3.4082031 14.298828 C 3.8683822 16.022715 4.4612701 17.600209 5.3105469 18.832031 C 6.1598237 20.063853 7.3873306 21 8.8945312 21 C 9.6812239 21 10.416284 20.772991 11.099609 20.394531 C 11.646947 20.771543 12.287017 21 13 21 C 14.516295 21 15.761456 20.054907 16.775391 18.857422 C 17.789325 17.659936 18.63813 16.133267 19.361328 14.568359 C 20.807724 11.438543 21.727972 8.1639677 21.966797 7.2539062 A 1 1 0 0 0 21.253906 6.0332031 A 1 1 0 0 0 20.033203 6.7460938 C 19.818028 7.5660323 18.902526 10.790832 17.544922 13.728516 C 16.86612 15.197358 16.071066 16.596704 15.25 17.566406 C 14.428934 18.536108 13.648705 19 13 19 C 12.959732 19 12.9213 18.998375 12.882812 18.996094 C 13.963042 17.899135 14.907137 16.484755 15.734375 14.964844 C 17.430135 11.849167 18.612153 8.3320632 18.986328 6.1699219 A 1 1 0 0 0 18.169922 5.0136719 A 1 1 0 0 0 17.013672 5.8300781 C 16.701847 7.6319368 15.553256 11.114489 13.978516 14.007812 C 13.191146 15.454474 12.293324 16.762464 11.390625 17.660156 C 11.382877 17.667862 11.374929 17.675956 11.367188 17.683594 C 10.919136 16.795365 10.578552 15.451986 10.367188 13.925781 C 9.9256783 10.737776 10 6.77 10 4 A 1 1 0 0 0 9 3 z " fill="currentColor"/>
</svg>
