<svg xmlns="http://www.w3.org/2000/svg" width="1em" height="1em" viewBox="0 0 24 24" fill="currentColor">
  <path d="M 15.228516 2.0058594 C 15.066027 1.9959174 14.900728 1.9962787 14.732422 2.0097656 C 14.059197 2.0637134 13.322797 2.3525967 12.796875 2.9648438 C 12.270953 3.5770907 12 4.4418986 12 5.484375 C 12 5.9680706 12.14523 6.356067 12.275391 6.7519531 C 11.432729 6.9644873 10.622591 7.2878265 9.9355469 7.8398438 C 8.7871357 8.7625538 8 10.222222 8 12 C 8 13.25 8.5047556 14.314774 9.2734375 14.998047 C 10.042119 15.68132 11.027778 16 12 16 C 12.972222 16 13.95788 15.68132 14.726562 14.998047 C 15.495243 14.314774 16 13.25 16 12 C 16 10.614252 15.680907 9.6044195 15.318359 8.7363281 C 16.011788 8.9364415 16.71434 9.2347979 17.316406 9.7109375 C 18.317992 10.503034 19 11.5756 19 13 C 19 14.666667 18.174666 16.136346 16.859375 17.232422 C 15.544084 18.328498 13.75 19 12 19 C 8.5 19 5 16.408646 5 12.492188 C 5 9.4466513 6.9573136 6.0385928 9.4179688 4.9082031 A 1 1 0 0 0 9.9082031 3.5820312 A 1 1 0 0 0 8.5820312 3.0917969 C 5.1826863 4.6534072 3 8.6457227 3 12.492188 C 3 17.591727 7.5 21 12 21 C 14.25 21 16.455916 20.171502 18.140625 18.767578 C 19.825334 17.363654 21 15.333333 21 13 C 21 10.9114 19.932008 9.228732 18.558594 8.1425781 C 17.31119 7.1560787 15.827018 6.6588294 14.427734 6.5644531 C 14.280917 6.2282374 14 5.8104704 14 5.484375 C 14 4.7748514 14.166547 4.4394405 14.3125 4.2695312 C 14.458453 4.099622 14.628303 4.0250835 14.892578 4.0039062 C 15.156853 3.9827293 15.493221 4.0517482 15.744141 4.1679688 C 15.940171 4.2587658 16.064531 4.3960805 16.091797 4.4140625 L 16.09375 4.4140625 L 16.095703 4.4140625 L 16.095703 4.4121094 C 16.095259 4.4092356 16.093161 4.4037896 16.089844 4.3964844 A 1 1 0 0 0 17.414062 4.8925781 A 1 1 0 0 0 17.910156 3.5703125 C 17.624769 2.9418896 17.12994 2.6063892 16.583984 2.3535156 C 16.174518 2.1638605 15.715981 2.0356854 15.228516 2.0058594 z M 13.164062 8.7578125 C 13.614504 9.61484 14 10.493379 14 12 C 14 12.75 13.754756 13.185226 13.398438 13.501953 C 13.042118 13.81868 12.527778 14 12 14 C 11.472222 14 10.95788 13.81868 10.601562 13.501953 C 10.245243 13.185226 10 12.75 10 12 C 10 10.777778 10.462864 9.9822274 11.189453 9.3984375 C 11.699919 8.9882955 12.451109 8.8901928 13.164062 8.7578125 z " fill="currentColor"/>
</svg>
