<svg xmlns="http://www.w3.org/2000/svg" width="1em" height="1em" viewBox="0 0 24 24" fill="currentColor">
  <path d="M 18.105469 2 C 16.954754 2 16 2.954754 16 4.1054688 L 16 19.894531 C 16 21.045246 16.954754 22 18.105469 22 L 19.894531 22 C 21.045246 22 22 21.045246 22 19.894531 L 22 4.1054688 C 22 2.954754 21.045246 2 19.894531 2 L 18.105469 2 z M 18.105469 4 L 19.894531 4 C 19.964366 4 20 4.0356342 20 4.1054688 L 20 19.894531 C 20 19.964366 19.964366 20 19.894531 20 L 18.105469 20 C 18.035634 20 18 19.964366 18 19.894531 L 18 4.1054688 C 18 4.0356342 18.035634 4 18.105469 4 z M 11.105469 8 C 9.9547538 8 9 8.9547538 9 10.105469 L 9 19.894531 C 9 21.045246 9.9547538 22 11.105469 22 L 12.894531 22 C 14.045246 22 15 21.045246 15 19.894531 L 15 10.105469 C 15 8.9547538 14.045246 8 12.894531 8 L 11.105469 8 z M 11.105469 10 L 12.894531 10 C 12.964366 10 13 10.035634 13 10.105469 L 13 19.894531 C 13 19.964366 12.964366 20 12.894531 20 L 11.105469 20 C 11.035634 20 11 19.964366 11 19.894531 L 11 10.105469 C 11 10.035634 11.035634 10 11.105469 10 z M 5 16 C 4.2777779 16 3.5421194 16.235347 2.9609375 16.751953 C 2.3797556 17.268559 2 18.083334 2 19 C 2 19.916666 2.3797556 20.731441 2.9609375 21.248047 C 3.5421194 21.764653 4.2777779 22 5 22 C 5.7222221 22 6.4578806 21.764653 7.0390625 21.248047 C 7.6202444 20.731441 8 19.916666 8 19 C 8 18.083334 7.6202444 17.268559 7.0390625 16.751953 C 6.4578806 16.235347 5.7222221 16 5 16 z M 5 18 C 5.2777779 18 5.5421194 18.09799 5.7109375 18.248047 C 5.8797556 18.398107 6 18.583334 6 19 C 6 19.416666 5.8797556 19.601893 5.7109375 19.751953 C 5.5421194 19.902014 5.2777779 20 5 20 C 4.7222221 20 4.4578806 19.902014 4.2890625 19.751953 C 4.1202444 19.601893 4 19.416666 4 19 C 4 18.583334 4.1202444 18.398107 4.2890625 18.248047 C 4.4578806 18.097986 4.7222221 18 5 18 z " fill="currentColor"/>
</svg>
