<svg xmlns="http://www.w3.org/2000/svg" width="1em" height="1em" viewBox="0 0 24 24" fill="currentColor">
  <path d="M 7.5507812 3.0039062 C 6.8930732 3.005733 6.2752431 3.3338306 5.9042969 3.8769531 L 2.3652344 9.0683594 C 1.8957157 9.7556776 1.9748093 10.635393 2.4355469 11.308594 A 1 1 0 0 0 2.5234375 11.550781 L 10.523438 20.339844 C 11.309276 21.202567 12.707026 21.203521 13.492188 20.339844 L 21.492188 11.550781 C 22.113854 10.867545 22.186656 9.8333887 21.666016 9.0703125 L 18.128906 3.8769531 C 17.75796 3.3338306 17.14013 3.005733 16.482422 3.0039062 A 1.0001 1.0001 0 0 0 16.480469 3.0039062 L 7.5546875 3.0039062 A 1.0001 1.0001 0 0 0 7.5507812 3.0039062 z M 7.5566406 5.0039062 L 16.476562 5.0039062 L 16.478516 5.0039062 L 20.013672 10.197266 L 20.015625 10.199219 L 20.015625 10.201172 L 20.013672 10.203125 L 12.013672 18.994141 L 12.011719 18.996094 C 12.011049 18.996961 12.008282 19.00121 12.007812 19.001953 L 12.005859 19 C 12.005389 18.999257 12.002623 18.995007 12.001953 18.994141 L 4.0214844 10.226562 A 1.0001 1.0001 0 0 0 4.0175781 10.205078 C 4.0161981 10.203553 4.014265 10.201884 4.0136719 10.201172 L 4.0136719 10.199219 L 4.015625 10.199219 L 4.015625 10.197266 L 4.0175781 10.195312 L 7.5566406 5.0039062 z " fill="currentColor"/>
</svg>
