<svg xmlns="http://www.w3.org/2000/svg" width="1em" height="1em" viewBox="0 0 24 24" fill="currentColor">
  <path d="M 12 2 C 9.3333333 2 7.012073 2.6881951 5.4023438 4.3710938 C 3.7926146 6.0539924 3 8.5961538 3 12 C 3 15.429487 3.9425144 17.981577 5.6054688 19.644531 C 7.2684231 21.307486 9.5648148 22 12 22 C 14.472222 22 16.462705 21.168742 17.832031 20.015625 C 19.201358 18.862508 20 17.416667 20 16 C 20 14.833333 19.692734 13.278671 18.457031 12.042969 C 17.835205 11.421142 17.001688 10.911237 15.927734 10.554688 C 15.833033 8.8886531 15.332573 7.6522451 14.544922 6.9433594 C 13.679001 6.164031 12.666667 6 12 6 C 10.778 6 9.636657 6.4492804 8.7929688 7.2929688 A 1 1 0 0 0 8.7929688 8.7070312 A 1 1 0 0 0 10.207031 8.7070312 C 10.697343 8.2167195 11.222 8 12 8 C 12.333333 8 12.820999 8.085969 13.205078 8.4316406 C 13.508324 8.704562 13.771596 9.3136976 13.892578 10.267578 C 13.257957 10.180264 12.758037 10 12 10 C 10.583333 10 9.5072352 10.376177 8.8320312 11.099609 C 8.1568272 11.823042 8 12.741667 8 13.5 C 8 14.472222 8.3409381 15.380001 8.9804688 16.019531 C 9.6199992 16.659062 10.527778 17 11.5 17 C 12.95 17 14.252975 16.474001 15.009766 15.380859 C 15.496659 14.677569 15.71874 13.770635 15.849609 12.763672 C 16.297857 12.983317 16.781864 13.195926 17.042969 13.457031 C 17.807266 14.221329 18 15.166667 18 16 C 18 16.583333 17.548642 17.637492 16.542969 18.484375 C 15.537295 19.331258 14.027778 20 12 20 C 9.9351852 20 8.231577 19.442514 7.0195312 18.230469 C 5.8074856 17.018423 5 15.070513 5 12 C 5 8.9038462 5.7073855 6.9460076 6.8476562 5.7539062 C 7.9879271 4.5618049 9.6666667 4 12 4 C 15.03297 4 16.878594 5.1890484 18.085938 7.90625 A 1 1 0 0 0 19.40625 8.4140625 A 1 1 0 0 0 19.914062 7.09375 C 18.455406 3.8109516 15.63303 2 12 2 z M 12 12 C 12.755387 12 13.186352 12.149613 13.757812 12.236328 C 13.646914 12.984889 13.593115 13.91498 13.365234 14.244141 C 12.997025 14.775999 12.55 15 11.5 15 C 10.972222 15 10.630001 14.840938 10.394531 14.605469 C 10.159062 14.369999 10 14.027778 10 13.5 C 10 13.008333 10.093173 12.676958 10.292969 12.462891 C 10.492765 12.248823 10.916667 12 12 12 z " fill="currentColor"/>
</svg>
