<svg xmlns="http://www.w3.org/2000/svg" width="1em" height="1em" viewBox="0 0 24 24" fill="currentColor">
  <path d="M 12 3 C 10 3 8.4856361 2.9950856 7.2636719 3.1308594 C 6.0417076 3.2666332 5.028671 3.5572665 4.2929688 4.2929688 C 3.5572665 5.028671 3.2666332 6.0417076 3.1308594 7.2636719 C 2.9950856 8.4856361 3 10 3 12 C 3 14 2.99509 15.514364 3.1308594 16.736328 C 3.2666332 17.958292 3.5572666 18.971329 4.2929688 19.707031 C 5.028671 20.442734 6.0417076 20.733367 7.2636719 20.869141 C 8.4856361 21.004914 10 21 12 21 C 14 21 15.514364 21.0049 16.736328 20.869141 C 17.958292 20.733367 18.971329 20.442734 19.707031 19.707031 C 20.442734 18.971329 20.733367 17.958292 20.869141 16.736328 C 21.004914 15.514364 21 14 21 12 C 21 10 21.004914 8.4856361 20.869141 7.2636719 C 20.733367 6.0417076 20.442734 5.028671 19.707031 4.2929688 C 18.971329 3.5572665 17.958292 3.2666332 16.736328 3.1308594 C 15.514364 2.9950856 14 3 12 3 z M 12 5 C 14 5 15.485636 5.00491 16.513672 5.1191406 C 17.541708 5.2333668 18.028671 5.4427336 18.292969 5.7070312 C 18.557266 5.971329 18.766633 6.4582924 18.880859 7.4863281 C 18.995086 8.5143639 19 10 19 12 C 19 14 18.9951 15.485636 18.880859 16.513672 C 18.766633 17.541708 18.557266 18.028671 18.292969 18.292969 C 18.028671 18.557266 17.541708 18.766633 16.513672 18.880859 C 15.485636 18.995086 14 19 12 19 C 10 19 8.5143639 18.995086 7.4863281 18.880859 C 6.4582924 18.766633 5.9713291 18.557266 5.7070312 18.292969 C 5.4427335 18.028671 5.2333668 17.541708 5.1191406 16.513672 C 5.0049144 15.485636 5 14 5 12 C 5 10 5.0049144 8.5143639 5.1191406 7.4863281 C 5.2333668 6.4582924 5.4427335 5.9713291 5.7070312 5.7070312 C 5.971329 5.4427335 6.4582924 5.2333668 7.4863281 5.1191406 C 8.5143639 5.0049144 10 5 12 5 z M 12 6 C 11.277778 6 10.542119 6.2353472 9.9609375 6.7519531 C 9.3797556 7.268559 9 8.0833335 9 9 C 9 9.9166665 9.3797556 10.731441 9.9609375 11.248047 C 10.542119 11.764653 11.277778 12 12 12 C 12.722222 12 13.45788 11.764653 14.039062 11.248047 C 14.620243 10.731441 15 9.9166665 15 9 C 15 8.0833335 14.620244 7.268559 14.039062 6.7519531 C 13.45788 6.2353472 12.722222 6 12 6 z M 12 8 C 12.277778 8 12.542119 8.097986 12.710938 8.2480469 C 12.879755 8.3981073 13 8.5833337 13 9 C 13 9.4166663 12.879756 9.6018927 12.710938 9.7519531 C 12.542118 9.9020136 12.277778 10 12 10 C 11.722222 10 11.45788 9.9020136 11.289062 9.7519531 C 11.120243 9.6018927 11 9.4166663 11 9 C 11 8.5833337 11.120244 8.3981073 11.289062 8.2480469 C 11.45788 8.0979864 11.722222 8 12 8 z M 9.4394531 12.001953 A 1 1 0 0 0 9.1835938 12.050781 A 1 1 0 0 0 8.6054688 12.552734 A 1 1 0 0 0 9.0527344 13.894531 C 9.4732714 14.104958 9.9296654 14.252638 10.40625 14.349609 L 8.7324219 16.359375 A 1 1 0 0 0 8.859375 17.767578 A 1 1 0 0 0 10.267578 17.640625 L 12 15.5625 L 13.732422 17.640625 A 1 1 0 0 0 15.140625 17.767578 A 1 1 0 0 0 15.267578 16.359375 L 13.59375 14.349609 C 14.070335 14.252638 14.526729 14.104958 14.947266 13.894531 A 1 1 0 0 0 15.394531 12.552734 A 1 1 0 0 0 14.052734 12.105469 C 13.595108 12.334453 12.795488 12.5 12 12.5 C 11.204512 12.5 10.404892 12.334453 9.9472656 12.105469 A 1 1 0 0 0 9.4394531 12.001953 z " fill="currentColor"/>
</svg>
