<svg xmlns="http://www.w3.org/2000/svg" width="1em" height="1em" viewBox="0 0 24 24" fill="currentColor">
  <path d="M 13.027344 6.0078125 C 10.516292 6.0149317 8.348622 7.1222466 7.3613281 9.1289062 C 6.406513 9.2752317 5.5577311 9.6481867 5.0019531 10.273438 C 4.5120017 10.824632 4.2708022 11.496086 4.1386719 12.185547 C 2.3786593 12.61448 0.99884455 14.105055 1 16 A 1.0001 1.0001 0 0 0 2 17 L 14.457031 17 L 14.544922 17 L 22 17 A 1.0001 1.0001 0 0 0 23 15.998047 C 22.996584 14.759829 22.737845 13.116802 21.851562 11.664062 C 21.061084 10.368358 19.578164 9.3933008 17.640625 9.1699219 C 17.320289 8.4393012 17.000405 7.6965569 16.355469 7.1191406 C 15.565546 6.4119167 14.437667 6.003814 13.027344 6.0078125 z M 13.033203 8.0078125 C 14.091879 8.0048125 14.612657 8.2433489 15.021484 8.609375 C 15.364543 8.9165175 15.646439 9.3825055 15.916016 9.9980469 L 15.082031 12 L 12 12 A 1 1 0 0 0 11 13 A 1 1 0 0 0 12 14 L 14.25 14 L 13.832031 15 L 3.4257812 15 C 3.7855394 14.449849 4.3071654 14.0202 5.0273438 14 A 1.0001 1.0001 0 0 0 6 13 C 6 12.472222 6.1813197 11.95788 6.4980469 11.601562 C 6.8147741 11.245243 7.25 11 8 11 A 1.0001 1.0001 0 0 0 8.9472656 10.322266 C 9.4540537 8.8310796 10.844639 8.0140174 13.033203 8.0078125 z M 17.650391 11.039062 C 18.911195 11.199626 19.61694 11.840283 20.144531 12.705078 C 20.567778 13.398838 20.76463 14.223907 20.876953 15 L 16 15 L 16.417969 14 L 18 14 A 1 1 0 0 0 19 13 A 1 1 0 0 0 18 12 L 17.25 12 L 17.650391 11.039062 z " fill="currentColor"/>
</svg>
