<svg xmlns="http://www.w3.org/2000/svg" width="1em" height="1em" viewBox="0 0 24 24" fill="currentColor">
  <path d="M 5 2 C 3.3549904 2 2 3.3549904 2 5 L 2 19 C 2 20.64501 3.3549904 22 5 22 L 19 22 C 20.64501 22 22 20.64501 22 19 L 22 5 C 22 3.3549904 20.64501 2 19 2 L 5 2 z M 5 4 L 19 4 C 19.564129 4 20 4.4358706 20 5 L 20 19 C 20 19.564129 19.564129 20 19 20 L 5 20 C 4.4358706 20 4 19.564129 4 19 L 4 5 C 4 4.4358706 4.4358706 4 5 4 z M 13 6 A 1 1 0 0 0 12 7 L 12 13 A 1 1 0 0 0 12.007812 13.130859 C 12.042416 13.993302 12.407902 14.75646 12.960938 15.248047 C 13.542118 15.764653 14.277778 16 15 16 C 15.722222 16 16.457881 15.764653 17.039062 15.248047 C 17.620244 14.731441 18 13.916666 18 13 C 18 12.083334 17.620244 11.268559 17.039062 10.751953 C 16.457881 10.235347 15.722222 10 15 10 C 14.663937 10 14.324964 10.051662 14 10.158203 L 14 7 A 1 1 0 0 0 13 6 z M 9.0996094 10.005859 C 8.6674902 9.991423 8.2387748 10.06814 7.8515625 10.228516 C 6.8189963 10.656183 6 11.706045 6 13 C 6 14.293955 6.8189963 15.343817 7.8515625 15.771484 C 8.8841287 16.199152 10.206202 16.036262 11.121094 15.121094 A 1 1 0 0 0 11.121094 13.707031 A 1 1 0 0 0 9.7070312 13.707031 C 9.361993 14.052174 8.9768015 14.072773 8.6171875 13.923828 C 8.2575735 13.774884 8 13.487909 8 13 C 8 12.512091 8.2575735 12.225116 8.6171875 12.076172 C 8.9768015 11.927227 9.3619929 11.947826 9.7070312 12.292969 A 1 1 0 0 0 11.121094 12.292969 A 1 1 0 0 0 11.121094 10.878906 C 10.663648 10.421322 10.105194 10.15252 9.53125 10.050781 C 9.3877639 10.025347 9.2436491 10.010671 9.0996094 10.005859 z M 15 12 C 15.277778 12 15.542119 12.09799 15.710938 12.248047 C 15.879755 12.398107 16 12.583334 16 13 C 16 13.416666 15.879756 13.601893 15.710938 13.751953 C 15.542118 13.902014 15.277778 14 15 14 C 14.722222 14 14.45788 13.902014 14.289062 13.751953 C 14.120244 13.601894 14.000001 13.416663 14 13 C 14 12.583334 14.120244 12.398107 14.289062 12.248047 C 14.45788 12.097986 14.722222 12 15 12 z " fill="currentColor"/>
</svg>
