<svg xmlns="http://www.w3.org/2000/svg" width="1em" height="1em" viewBox="0 0 24 24" fill="currentColor">
  <path d="M 12 2 C 9.879 2 8.2684561 1.9938509 6.9296875 2.1738281 C 5.5909189 2.3538054 4.4600702 2.762586 3.6113281 3.6113281 C 2.7626754 4.4599808 2.35381 5.5910214 2.1738281 6.9296875 C 1.9938463 8.2683536 2 9.8785 2 12 C 2 14.121 1.99385 15.731544 2.1738281 17.070312 C 2.3538054 18.409081 2.762586 19.53993 3.6113281 20.388672 C 4.4600702 21.237414 5.5909189 21.646195 6.9296875 21.826172 C 8.2684561 22.006149 9.879 22 12 22 C 14.121 22 15.731544 22.0061 17.070312 21.826172 C 18.409081 21.646195 19.53993 21.237414 20.388672 20.388672 C 21.237414 19.53993 21.646195 18.409081 21.826172 17.070312 C 22.006149 15.731544 22 14.121 22 12 C 22 9.879 22.006149 8.2684561 21.826172 6.9296875 C 21.646195 5.5909189 21.237414 4.4600702 20.388672 3.6113281 C 19.53993 2.762586 18.409081 2.3538054 17.070312 2.1738281 C 15.731544 1.9938509 14.121 2 12 2 z M 12 4 C 14.121 4 15.692457 4.00673 16.804688 4.15625 C 17.916919 4.3057727 18.505351 4.5561327 18.974609 5.0253906 C 19.443867 5.4946485 19.694227 6.0830811 19.84375 7.1953125 C 19.993273 8.3075439 20 9.879 20 12 C 20 14.121 19.9933 15.692457 19.84375 16.804688 C 19.694227 17.916919 19.443867 18.505351 18.974609 18.974609 C 18.505351 19.443867 17.916919 19.694227 16.804688 19.84375 C 15.692456 19.993273 14.121 20 12 20 C 9.879 20 8.3075439 19.993273 7.1953125 19.84375 C 6.0830811 19.694227 5.4946485 19.443867 5.0253906 18.974609 C 4.5561327 18.505351 4.3057727 17.916919 4.15625 16.804688 C 4.0067273 15.692456 4 14.121 4 12 C 4 9.8785 4.0067318 8.3073964 4.15625 7.1953125 C 4.3057682 6.0832286 4.5560433 5.4947379 5.0253906 5.0253906 C 5.4946485 4.5561327 6.0830811 4.3057727 7.1953125 4.15625 C 8.3075439 4.0067273 9.879 4 12 4 z M 5.9648438 7 A 1 1 0 0 0 5.4707031 7.1523438 A 1 1 0 0 0 5.1523438 8.5292969 L 7.3222656 12 L 5.1523438 15.470703 A 1 1 0 0 0 5.4707031 16.847656 A 1 1 0 0 0 6.8476562 16.529297 L 8.5 13.884766 L 10.152344 16.529297 A 1 1 0 0 0 11.529297 16.847656 A 1 1 0 0 0 11.847656 15.470703 L 9.6777344 12 L 11.847656 8.5292969 A 1 1 0 0 0 11.529297 7.1523438 A 1 1 0 0 0 10.775391 7.0253906 A 1 1 0 0 0 10.152344 7.4707031 L 8.5 10.115234 L 6.8476562 7.4707031 A 1 1 0 0 0 6.2246094 7.0253906 A 1 1 0 0 0 5.9648438 7 z M 18 7 A 1 1 0 0 0 17 8 L 17 10 L 16.5 10 C 14.578848 10 13 11.578848 13 13.5 A 1.0001 1.0001 0 0 0 13 13.501953 C 13.0023 15.421509 14.580443 16.996095 16.5 16.996094 C 16.956573 16.996094 17.383463 17.10983 18.023438 16.826172 C 18.343425 16.684343 18.668247 16.364525 18.818359 16.023438 C 18.968472 15.682303 19 15.353333 19 15 L 19 11 L 19 8 A 1 1 0 0 0 18 7 z M 16.5 12 L 17 12 L 17 14.996094 C 16.91909 14.993094 16.86922 14.996094 16.5 14.996094 C 15.660475 14.996094 15.001007 14.337571 15 13.498047 C 15.001036 12.658719 15.660389 12 16.5 12 z " fill="currentColor"/>
</svg>
