<svg xmlns="http://www.w3.org/2000/svg" width="1em" height="1em" viewBox="0 0 24 24" fill="currentColor">
  <path d="M 12 2 C 6.4889982 2 2 6.4889941 2 12 C 2 17.511006 6.4889982 22 12 22 C 17.511002 22 22 17.511006 22 12 C 22 6.4889941 17.511002 2 12 2 z M 12 4 C 16.430123 4 20 7.5698737 20 12 C 20 16.430126 16.430123 20 12 20 C 7.5698765 20 4 16.430126 4 12 C 4 7.5698737 7.5698765 4 12 4 z M 10.990234 7 A 1 1 0 0 0 10.859375 7.0097656 A 1 1 0 0 0 10.201172 7.3984375 A 1 1 0 0 0 10.398438 8.7988281 C 11.405865 9.555971 11.998743 10.741725 12 12.001953 C 11.99958 12.883468 11.721994 13.686248 11.248047 14.339844 A 1 1 0 0 0 11.158203 14.458984 C 10.940038 14.73716 10.685698 14.98594 10.400391 15.199219 A 1 1 0 0 0 10.199219 16.599609 A 1 1 0 0 0 11.599609 16.800781 C 11.917307 16.56329 12.210688 16.294827 12.474609 16 L 14 16 A 1 1 0 0 0 15 15 A 1 1 0 0 0 14 14 L 13.658203 14 C 13.879222 13.373522 14 12.699995 14 12 A 1.0001 1.0001 0 0 0 14 11.998047 C 13.999312 11.308717 13.880643 10.633994 13.65625 10 L 14 10 A 1 1 0 0 0 15 9 A 1 1 0 0 0 14 8 L 12.470703 8 C 12.210074 7.7084004 11.919939 7.440451 11.601562 7.2011719 A 1 1 0 0 0 10.990234 7 z M 10 11 A 1 1 0 0 0 9 12 A 1 1 0 0 0 10 13 L 10.009766 13 A 1 1 0 0 0 11.009766 12 A 1 1 0 0 0 10.009766 11 L 10 11 z " fill="currentColor"/>
</svg>
