<svg xmlns="http://www.w3.org/2000/svg" width="1em" height="1em" viewBox="0 0 24 24" fill="currentColor">
  <path d="M 7.5 4 A 1.0001 1.0001 0 0 0 6.9707031 4.1523438 L 2.4707031 6.9648438 A 1.0001 1.0001 0 0 0 2.4707031 8.6601562 L 5.6171875 10.626953 L 2.46875 12.601562 A 1.0001 1.0001 0 0 0 2.4707031 14.296875 L 6.5 16.806641 L 6.5 17.373047 A 1.0001 1.0001 0 0 0 6.9960938 18.238281 L 11.496094 20.865234 A 1.0001 1.0001 0 0 0 12.503906 20.865234 L 17.003906 18.238281 A 1.0001 1.0001 0 0 0 17.5 17.373047 L 17.5 16.806641 L 21.529297 14.298828 A 1.0001 1.0001 0 0 0 21.53125 12.601562 L 18.365234 10.615234 L 21.529297 8.6386719 A 1.0001 1.0001 0 0 0 21.527344 6.9414062 L 17.027344 4.1503906 A 1.0001 1.0001 0 0 0 15.970703 4.1523438 L 12 6.6347656 L 8.0292969 4.1523438 A 1.0001 1.0001 0 0 0 7.5 4 z M 16.501953 6.1777344 L 19.109375 7.7949219 L 16.498047 9.4257812 L 13.890625 7.8085938 L 16.501953 6.1777344 z M 7.5 6.1796875 L 10.113281 7.8125 L 7.5 9.4472656 L 4.8867188 7.8125 L 7.5 6.1796875 z M 12.001953 8.9902344 L 14.628906 10.619141 L 12 12.267578 L 9.3828125 10.626953 L 12.001953 8.9902344 z M 7.5 11.806641 L 10.113281 13.445312 L 7.5019531 15.072266 L 4.8867188 13.445312 L 7.5 11.806641 z M 16.5 11.806641 L 19.111328 13.445312 L 16.5 15.072266 L 13.888672 13.445312 L 16.5 11.806641 z M 12 14.628906 L 15.496094 16.802734 L 12 18.84375 L 8.5039062 16.802734 L 12 14.628906 z " fill="currentColor"/>
</svg>
