<svg xmlns="http://www.w3.org/2000/svg" width="1em" height="1em" viewBox="0 0 24 24" fill="currentColor">
  <path d="M 11.777344 2.0039062 C 9.391007 2.0803336 7.0091865 3.3834352 5.78125 5.7851562 C 3.2020583 7.1113288 1.9235394 9.7082911 2.0039062 12.224609 C 2.0801755 14.612634 3.3824352 16.996983 5.7871094 18.224609 C 7.1142948 20.799482 9.7103908 22.076393 12.224609 21.996094 C 14.610893 21.919879 16.994241 20.618113 18.222656 18.216797 C 20.799322 16.889715 22.076646 14.29247 21.996094 11.777344 C 21.919722 9.3927484 20.619068 7.0138778 18.220703 5.7851562 C 16.894638 3.2041691 14.294571 1.9232867 11.777344 2.0039062 z M 11.841797 4.0039062 C 12.976713 3.9675583 14.107255 4.2860518 15.033203 4.9921875 C 13.039812 4.9767623 11.196481 5.8352428 9.9121094 7.1933594 C 8.7223225 8.4514599 7.9889193 10.165282 7.9882812 11.992188 C 7.0219913 10.722894 6.6474921 9.0198939 7.328125 7.2265625 C 8.1316149 5.1095274 9.9499568 4.0644964 11.841797 4.0039062 z M 14.8125 6.9824219 C 15.441626 6.9652896 16.100691 7.0727937 16.773438 7.328125 C 18.890473 8.1316149 19.935504 9.9499568 19.996094 11.841797 C 20.032353 12.973953 19.714258 14.102652 19.011719 15.027344 C 19.024547 13.037414 18.168335 11.196613 16.8125 9.9140625 C 15.552905 8.7225505 13.835642 7.9874119 12.005859 7.9882812 C 12.79926 7.3838551 13.763956 7.0109756 14.8125 6.9824219 z M 4.9921875 8.9707031 C 4.9787243 10.962215 5.8364351 12.804646 7.1933594 14.087891 C 8.4521867 15.278365 10.166049 16.011928 11.994141 16.011719 C 10.724652 16.980834 9.0221591 17.357499 7.2265625 16.675781 C 5.1096662 15.872078 4.0643274 14.053922 4.0039062 12.162109 C 3.967673 11.02763 4.2866331 9.896478 4.9921875 8.9707031 z M 12.046875 9.9765625 C 12.621875 9.9768126 13.176316 10.081888 13.693359 10.273438 C 14.148916 11.481168 14.109372 12.662097 13.724609 13.697266 C 12.517744 14.150579 11.337326 14.112141 10.302734 13.726562 C 9.8500158 12.521494 9.8875699 11.342102 10.271484 10.308594 C 10.874452 10.081114 11.471875 9.9763124 12.046875 9.9765625 z M 16.011719 12.003906 C 16.981333 13.273487 17.357657 14.977425 16.675781 16.773438 C 15.872078 18.890335 14.053922 19.935673 12.162109 19.996094 C 11.030006 20.03225 9.9012552 19.714178 8.9765625 19.011719 C 10.964985 19.023394 12.804232 18.167442 14.085938 16.8125 C 15.278045 15.552275 16.01324 13.834626 16.011719 12.003906 z " fill="currentColor"/>
</svg>
