<svg xmlns="http://www.w3.org/2000/svg" width="1em" height="1em" viewBox="0 0 24 24" fill="currentColor">
  <path d="M 2 5 A 1.0001 1.0001 0 0 0 1 6 L 1 11 C 1 15.958718 5.0412819 20 10 20 L 14 20 A 1 1 0 0 0 14.089844 19.910156 A 1.0001 1.0001 0 0 0 15.029297 19.007812 L 15.029297 16.089844 C 16.139898 16.689828 16.99996 17.668766 17 19.003906 A 1.0001 1.0001 0 0 0 18 20.003906 L 22 20.003906 A 1.0001 1.0001 0 0 0 22.984375 18.826172 L 22.550781 16.435547 C 22.233901 14.692676 21.070263 13.366387 19.621094 12.427734 C 21.097442 11.280183 22.26542 9.7762544 22.638672 7.9101562 L 22.980469 6.1992188 A 1.0001 1.0001 0 0 0 22 5.0039062 L 18 5.0039062 A 1.0001 1.0001 0 0 0 17 6.0039062 C 16.99996 7.3505991 16.126744 8.3364537 15 8.9316406 L 15 6 A 1.0001 1.0001 0 0 0 14 5 L 10 5 A 1.0001 1.0001 0 0 0 9 6 L 9 13.587891 C 7.8874977 13.150853 7 12.276016 7 11 L 7 6 A 1.0001 1.0001 0 0 0 6 5 L 2 5 z M 3 7 L 5 7 L 5 11 C 5 13.749579 7.2504209 16 10 16 A 1.0001 1.0001 0 0 0 11 15 L 11 7 L 13 7 L 13 10.5 A 1.0001 1.0001 0 0 0 14 11.5 L 14.029297 11.5 A 1.0001 1.0001 0 0 0 14.154297 11.492188 C 16.566722 11.19118 18.374359 9.320281 18.814453 7.0039062 L 20.78125 7.0039062 L 20.677734 7.5195312 C 20.323019 9.2929546 19.170376 10.800617 17.552734 11.609375 A 1.0001 1.0001 0 0 0 17.683594 13.453125 C 19.188959 13.954653 20.298197 15.23185 20.582031 16.792969 L 20.800781 18.003906 L 18.814453 18.003906 C 18.374359 15.687532 16.566722 13.816632 14.154297 13.515625 A 1.0001 1.0001 0 0 0 13.029297 14.507812 L 13.029297 18 L 10 18 C 6.1221621 18 3 14.877838 3 11 L 3 7 z " fill="currentColor"/>
</svg>
