<svg xmlns="http://www.w3.org/2000/svg" width="1em" height="1em" viewBox="0 0 24 24" fill="currentColor">
  <path d="M 11.847656 2 C 6.2584847 2 1.9492189 6.5149095 1.9492188 12 C 1.9482705 13.221463 2.1759268 14.450477 2.6328125 15.632812 L 1.1132812 18.537109 A 1.0001 1.0001 0 0 0 2 20 L 5.7070312 20 C 7.442799 21.297193 9.5618361 22 11.847656 22 C 17.433879 22 22 17.521477 22 12 C 22 6.4800335 17.431459 2 11.847656 2 z M 11.847656 4 C 16.367854 4 20 7.5799665 20 12 C 20 16.422523 16.371433 20 11.847656 20 C 9.7854987 20 7.9647616 19.398715 6.5683594 18.232422 A 1.0001 1.0001 0 0 0 5.9277344 18 L 3.6523438 18 L 4.59375 16.197266 A 1.0001 1.0001 0 0 0 4.6152344 15.3125 C 4.1442958 14.298038 3.9483051 13.176723 3.9492188 12 C 3.9492188 7.5450905 7.3208282 4 11.847656 4 z M 10 8 A 1.0001 1.0001 0 0 0 9 9 L 9 15 A 1.0001 1.0001 0 0 0 10 16 L 11.484375 16 C 12.667269 16 13.773189 15.788323 14.644531 15.117188 C 15.515873 14.446051 16 13.320151 16 12.015625 L 16 11.980469 C 16 10.68476 15.515603 9.5628755 14.646484 8.890625 C 13.777366 8.2183745 12.670268 8 11.484375 8 L 10 8 z M 11 10 L 11.484375 10 C 12.410482 10 13.061494 10.193907 13.421875 10.472656 C 13.782256 10.751406 14 11.118182 14 11.980469 L 14 12.015625 C 14 12.891099 13.781986 13.257339 13.423828 13.533203 C 13.06567 13.809064 12.413481 14 11.484375 14 L 11 14 L 11 10 z " fill="currentColor"/>
</svg>
