<svg xmlns="http://www.w3.org/2000/svg" width="1em" height="1em" viewBox="0 0 24 24" fill="currentColor">
  <path d="M 5.5878906 2.078125 C 5.36568 2.083063 5.1367188 2.1347656 5.1367188 2.1347656 A 1.0001 1.0001 0 0 0 4.4882812 2.6894531 C 4.0058627 3.7631778 3.9839171 4.953445 4.2695312 6.0839844 C 3.497045 7.0652828 3.0012835 8.2382621 3 9.4980469 A 1.0001 1.0001 0 0 0 3 9.5 C 3 11.995652 3.7837101 13.777116 5.0449219 14.869141 C 5.9232916 15.62968 6.9648333 15.978686 8.0195312 16.212891 L 8.0195312 16.214844 L 8.0175781 16.216797 L 8.0175781 16.21875 C 8.0151052 16.222623 8.0102604 16.228544 8.0078125 16.232422 L 8.0058594 16.234375 L 8.0058594 16.236328 C 7.9136145 16.716001 7.9499268 17.150775 8 17.5625 L 8 18.113281 C 7.5423701 18.181326 7.0155796 18.300614 6.7578125 18.228516 C 6.3569672 18.116398 6.0775426 17.899623 5.7792969 17.556641 C 5.4810512 17.213658 5.2025465 16.753154 4.8535156 16.28125 C 4.5044847 15.809346 4.0438611 15.265313 3.28125 15.041016 A 1 1 0 0 0 2.0410156 15.71875 A 1 1 0 0 0 2.71875 16.958984 C 2.806139 16.984684 2.9826247 17.114482 3.2460938 17.470703 C 3.5095628 17.826924 3.8177769 18.349623 4.2695312 18.869141 C 4.7212856 19.388658 5.3570953 19.91329 6.21875 20.154297 C 6.7151706 20.293147 7.3920133 20.10211 8 20.037109 L 8 21 A 1 1 0 0 0 9 22 A 1 1 0 0 0 10 21 L 10 17.5 A 1.0001 1.0001 0 0 0 9.9921875 17.375 C 9.9460015 17.005532 9.9407328 16.758971 9.96875 16.613281 C 9.996767 16.467592 10.024882 16.38918 10.207031 16.207031 A 1.0001 1.0001 0 0 0 9.6074219 14.505859 C 8.3022971 14.366025 7.1442571 14.040397 6.3554688 13.357422 C 5.5666806 12.674447 5 11.604348 5 9.5 C 5.0014584 8.5651112 5.366231 7.6668127 6.0175781 6.9960938 A 1.0001 1.0001 0 0 0 6.2363281 5.9472656 C 6.0288464 5.3956874 6.1826724 4.8176875 6.2890625 4.2480469 C 6.7362359 4.368133 7.3504008 4.568887 8.3457031 5.2324219 A 1.0001 1.0001 0 0 0 9.1523438 5.3671875 C 11.019884 4.8808057 12.980116 4.8808057 14.847656 5.3671875 A 1.0001 1.0001 0 0 0 15.654297 5.2324219 C 16.649599 4.568887 17.263765 4.368133 17.710938 4.2480469 C 17.817328 4.8176875 17.971159 5.3956874 17.763672 5.9472656 A 1.0001 1.0001 0 0 0 17.982422 6.9960938 C 18.634228 7.6672799 18.999047 8.5663602 19 9.5019531 C 18.999562 11.604683 18.433014 12.674711 17.644531 13.357422 C 16.855743 14.040397 15.697703 14.366025 14.392578 14.505859 A 1.0001 1.0001 0 0 0 13.792969 16.207031 C 13.994759 16.408822 13.967903 16.391401 13.988281 16.513672 C 14.00866 16.635943 14 16.966667 14 17.5 L 14 21 A 1 1 0 0 0 15 22 A 1 1 0 0 0 16 21 L 16 17.5 C 16 17.044418 16.033157 16.678294 15.960938 16.216797 C 17.022361 15.983352 18.071268 15.634391 18.955078 14.869141 C 20.216288 13.777116 21 11.995652 21 9.5 A 1.0001 1.0001 0 0 0 21 9.4980469 C 20.998717 8.238259 20.502955 7.0652828 19.730469 6.0839844 C 20.016083 4.953445 19.994137 3.7631778 19.511719 2.6894531 A 1.0001 1.0001 0 0 0 18.863281 2.1347656 C 18.863281 2.1347656 18.63432 2.083063 18.412109 2.078125 C 18.189899 2.073185 17.897515 2.093526 17.537109 2.171875 C 16.913195 2.3075085 15.989522 2.7466577 14.947266 3.3808594 C 13.003382 2.9381628 10.996618 2.9381628 9.0527344 3.3808594 C 8.0104776 2.7466581 7.0868046 2.3075085 6.4628906 2.171875 C 6.1024846 2.0935259 5.8101013 2.073187 5.5878906 2.078125 z " fill="currentColor"/>
</svg>
