<svg xmlns="http://www.w3.org/2000/svg" width="1em" height="1em" viewBox="0 0 24 24" fill="currentColor">
  <path d="M 13 2 C 12.277778 2 11.542119 2.2353472 10.960938 2.7519531 C 10.844007 2.8558916 10.73589 2.971177 10.636719 3.0976562 L 5.9316406 7.6914062 A 1 1 0 0 0 5.9316406 7.6953125 A 1 1 0 0 0 5.9257812 7.6953125 C 4.7407219 8.8679438 4.693709 10.794699 5.8183594 12.025391 A 1.0001 1.0001 0 0 0 5.8203125 12.029297 C 6.9195387 13.219888 8.7944067 13.30893 10 12.251953 L 10 18.982422 C 10 19.899088 10.379756 20.71191 10.960938 21.228516 C 11.542118 21.745122 12.277778 21.982422 13 21.982422 C 13.722222 21.982422 14.45788 21.745122 15.039062 21.228516 C 15.620243 20.71191 16 19.899088 16 18.982422 L 16 5 C 16 4.0833335 15.620244 3.268559 15.039062 2.7519531 C 14.45788 2.2353472 13.722222 2 13 2 z M 13 4 C 13.051277 4 13.102499 4.0033764 13.152344 4.0097656 C 13.355791 4.0473944 13.549806 4.1516127 13.705078 4.3222656 A 1.0001 1.0001 0 0 0 13.708984 4.3261719 C 13.89336 4.5261116 13.98983 4.7804858 14 5.0371094 C 14.001199 5.0673685 14.001198 5.096709 14 5.1269531 C 13.989063 5.4029932 13.878385 5.6755762 13.669922 5.8789062 L 12 7.5097656 L 12 5 C 12 4.7381886 12.04783 4.5672024 12.125 4.4394531 L 12.28125 4.2871094 A 1.0001 1.0001 0 0 0 12.285156 4.2832031 C 12.388399 4.181326 12.50678 4.1065246 12.630859 4.0585938 C 12.745821 4.0209431 12.871029 4 13 4 z M 10 6.5136719 L 10 9.4628906 L 8.71875 10.712891 C 8.2960453 11.125692 7.6993572 11.108361 7.2949219 10.673828 C 6.8818457 10.220309 6.897737 9.5488609 7.3339844 9.1171875 L 10 6.5136719 z M 14 8.3496094 L 14 18.982422 C 14 19.399088 13.879756 19.584315 13.710938 19.734375 C 13.542119 19.884435 13.277778 19.982422 13 19.982422 C 12.722222 19.982422 12.45788 19.884432 12.289062 19.734375 C 12.120243 19.584315 12 19.399088 12 18.982422 L 12 10.302734 L 14 8.3496094 z " fill="currentColor"/>
</svg>
