<svg xmlns="http://www.w3.org/2000/svg" width="1em" height="1em" viewBox="0 0 24 24" fill="currentColor">
  <path d="M 13 8 A 1 1 0 0 0 12.292969 8.2929688 A 1 1 0 0 0 12.292969 9.7070312 L 13.585938 11 L 8 11 A 1 1 0 0 0 7 12 A 1 1 0 0 0 8 13 L 13.585938 13 L 12.292969 14.292969 A 1 1 0 0 0 12.292969 15.707031 A 1 1 0 0 0 13.707031 15.707031 L 16.697266 12.716797 A 1 1 0 0 0 16.707031 12.707031 A 1.0001 1.0001 0 0 0 16.785156 12.619141 A 1 1 0 0 0 16.792969 12.609375 A 1.0001 1.0001 0 0 0 16.861328 12.507812 A 1 1 0 0 0 16.865234 12.5 A 1.0001 1.0001 0 0 0 16.921875 12.388672 A 1 1 0 0 0 16.923828 12.382812 A 1 1 0 0 0 16.964844 12.257812 A 1.0001 1.0001 0 0 0 16.976562 12.205078 A 1.0001 1.0001 0 0 0 17 12 A 1.0001 1.0001 0 0 0 16.976562 11.794922 A 1.0001 1.0001 0 0 0 16.964844 11.742188 A 1 1 0 0 0 16.923828 11.617188 A 1.0001 1.0001 0 0 0 16.921875 11.611328 A 1 1 0 0 0 16.865234 11.5 A 1.0001 1.0001 0 0 0 16.861328 11.492188 A 1 1 0 0 0 16.792969 11.390625 A 1.0001 1.0001 0 0 0 16.785156 11.380859 A 1 1 0 0 0 16.707031 11.292969 L 16.697266 11.283203 L 13.707031 8.2929688 A 1 1 0 0 0 13 8 z M 3 10 A 1 1 0 0 0 2.2851562 10.3125 C 1.5741624 10.621214 1 11.197887 1 12.013672 A 1.0001 1.0001 0 0 0 1 12.025391 C 1.010996 12.871199 1.5664263 13.579332 2.2519531 13.855469 C 2.93748 14.131605 3.8296024 14.006247 4.4238281 13.404297 C 5.0180538 12.802346 5.1306703 11.910419 4.8457031 11.228516 C 4.5607359 10.546611 3.8458801 10.000071 3 10 z M 21 10 A 1 1 0 0 0 20.285156 10.3125 C 19.574163 10.621214 19 11.197887 19 12.013672 A 1.0001 1.0001 0 0 0 19 12.025391 C 19.011 12.871199 19.566426 13.579332 20.251953 13.855469 C 20.93748 14.131605 21.829602 14.006247 22.423828 13.404297 C 23.018054 12.802346 23.13067 11.910419 22.845703 11.228516 C 22.560736 10.546611 21.84588 10.000071 21 10 z " fill="currentColor"/>
</svg>
