<svg xmlns="http://www.w3.org/2000/svg" width="1em" height="1em" viewBox="0 0 24 24" fill="currentColor">
  <path d="M 7 2 C 6.4166667 2 5.9501036 2.2608339 5.6054688 2.6054688 C 5.2778176 2.9331199 5.0259854 3.3704297 5.0019531 3.9140625 L 3.0097656 17.859375 A 1.0001 1.0001 0 0 0 3 18 C 3 18.583333 3.2608338 19.049896 3.6054688 19.394531 C 3.9501035 19.739166 4.4166667 20 5 20 L 6.6328125 20 L 6.609375 20.158203 L 6.6191406 20.111328 C 6.4399139 21.027164 7.1863336 21.919319 8.1210938 21.900391 L 10.779297 21.900391 C 11.738329 21.919731 12.587646 21.238714 12.779297 20.298828 A 1.0001 1.0001 0 0 0 12.787109 20.263672 L 13.248047 17.5 L 15 17.5 C 18.033333 17.5 21 15.166667 21 12 C 21 9.8359657 20.097109 7.7583023 18.248047 6.53125 C 18.01427 5.4375122 17.615933 4.4254993 16.875 3.6738281 C 15.807105 2.5904561 14.265054 2 12.5 2 L 7 2 z M 7 4 L 12.5 4 C 13.834946 4 14.794067 4.4095439 15.451172 5.0761719 C 16.108277 5.7427998 16.5 6.7111111 16.5 8 C 16.5 8.9166667 16.010834 9.9501034 15.230469 10.730469 C 14.450104 11.510834 13.416667 12 12.5 12 L 10 12 C 9.4777778 12 8.9265174 12.220662 8.5800781 12.59375 C 8.2519862 12.947079 8.102522 13.363854 8.0273438 13.767578 L 8.0253906 13.779297 C 8.0244374 13.784512 8.0224127 13.789712 8.0214844 13.794922 L 7.0117188 18 L 5.0097656 18 L 5.0117188 17.988281 L 6.9902344 4.140625 A 1.0001 1.0001 0 0 0 7 4 z M 18.191406 9.3417969 C 18.679115 10.088467 19 10.951472 19 12 C 19 13.833333 16.966667 15.5 15 15.5 L 12.400391 15.5 A 1.0001 1.0001 0 0 0 11.414062 16.335938 L 10.820312 19.900391 A 1.0001 1.0001 0 0 0 10.800781 19.900391 L 8.6660156 19.900391 L 8.7597656 19.240234 A 1.0001 1.0001 0 0 0 8.7714844 19.232422 L 9.9726562 14.232422 A 1.0001 1.0001 0 0 0 9.9863281 14.164062 C 10.009334 14.026013 10.029066 14.010017 10.033203 14 L 12.5 14 C 14.083333 14 15.549896 13.239166 16.644531 12.144531 C 17.41358 11.375483 17.89999 10.389547 18.191406 9.3417969 z " fill="currentColor"/>
</svg>
