<svg xmlns="http://www.w3.org/2000/svg" width="1em" height="1em" viewBox="0 0 24 24" fill="currentColor">
  <path d="M 12.195312 2.015625 C 9.7674829 1.9689584 7.3224568 2.7998414 5.3789062 4.5175781 C 1.4918051 7.9530516 0.87788358 13.815144 3.9746094 17.976562 C 7.0714193 22.138096 12.865868 23.237706 17.273438 20.5 A 1.0001 1.0001 0 0 0 17.554688 19.0625 L 9.8085938 8.4121094 A 1.0001 1.0001 0 0 0 8 9 L 8 15 A 1 1 0 0 0 9 16 A 1 1 0 0 0 10 15 L 10 12.076172 L 15.181641 19.201172 C 11.813726 20.686517 7.8373312 19.814576 5.5800781 16.78125 C 3.0933752 13.439587 3.5806038 8.7753522 6.703125 6.015625 C 9.8256462 3.2558978 14.514632 3.3461139 17.525391 6.2246094 C 20.53625 9.1032013 20.839702 13.786486 18.222656 17.029297 A 1 1 0 0 0 18.371094 18.435547 A 1 1 0 0 0 19.777344 18.285156 C 23.035924 14.247414 22.657645 8.3620716 18.908203 4.7773438 C 17.033533 2.9850286 14.623141 2.0622916 12.195312 2.015625 z M 15 8 A 1 1 0 0 0 14 9 L 14 12 A 1 1 0 0 0 15 13 A 1 1 0 0 0 16 12 L 16 9 A 1 1 0 0 0 15 8 z " fill="currentColor"/>
</svg>
