<svg xmlns="http://www.w3.org/2000/svg" width="1em" height="1em" viewBox="0 0 24 24" fill="currentColor">
  <path d="M 12 1 C 5.9365932 1 1 5.9365932 1 12 C 1 18.063407 5.9365932 23 12 23 C 18.063407 23 23 18.063407 23 12 C 23 5.9367124 18.063288 1 12 1 z M 12 3 C 16.982407 3 21 7.0175926 21 12 C 21 16.982593 16.982593 21 12 21 C 7.0174068 21 3 16.982593 3 12 C 3 7.0174068 7.0174068 3 12 3 z M 16 5 C 14.818973 5 13.825532 5.8397986 13.189453 7.0273438 C 12.855637 7.6505713 12.58693 8.3926751 12.384766 9.2597656 C 12.380403 9.2559382 12.37548 9.251892 12.371094 9.2480469 C 11.878978 8.8166498 11.016667 8 9.5 8 C 8.7115908 8 8.0310428 8.3838888 7.6191406 8.8691406 C 7.2072384 9.3543924 7 9.9123 7 10.5 C 7 11.083333 7.4263152 11.648039 7.7832031 11.871094 C 8.1400911 12.094149 8.4326413 12.167123 8.6484375 12.248047 C 8.8642337 12.328967 8.9828291 12.405257 8.9960938 12.417969 L 8.9980469 12.417969 L 8.9980469 12.419922 L 9 12.419922 L 9 12.417969 L 9.0019531 12.417969 L 9.0019531 12.416016 L 9.0019531 12.414062 L 9.0019531 12.412109 L 9.0039062 12.410156 C 9.003212 12.41131 9.0003788 12.435077 9 12.490234 L 8.9980469 12.488281 L 8.9980469 12.486328 L 8.9960938 12.486328 L 8.9960938 12.488281 L 8.9941406 12.488281 L 8.9921875 12.490234 C 8.9551835 12.534354 8.7601342 13 8 13 C 7.3787143 13 7.1136809 12.855147 6.8242188 12.433594 A 1 1 0 0 0 5.4335938 12.175781 A 1 1 0 0 0 5.1757812 13.566406 C 5.8023193 14.478853 6.8712857 15 8 15 C 9.7572752 15 11 13.8578 11 12.5 C 11 11.902778 10.740642 11.319319 10.378906 10.972656 C 10.017171 10.625993 9.6357663 10.48353 9.3515625 10.376953 C 9.2078614 10.323065 9.1833635 10.310964 9.09375 10.275391 C 9.115093 10.229152 9.1116011 10.198603 9.1425781 10.162109 C 9.2346759 10.053611 9.3044092 10 9.5 10 C 10.483333 10 10.404101 10.18335 11.052734 10.751953 C 11.300327 10.968997 11.622224 11.202813 12.044922 11.408203 C 12.028705 11.578215 12.014592 11.750968 12.001953 11.927734 C 11.864021 13.856862 11.538422 15.257141 11.140625 16.052734 C 10.742828 16.848328 10.468046 17 10 17 C 9.9603521 17 9.9324196 16.999621 9.9121094 17 A 1 1 0 0 0 9.140625 16.009766 A 1 1 0 0 0 8.0097656 16.859375 C 7.9359906 17.377353 8.0346036 18.020931 8.4707031 18.457031 C 8.9068032 18.893131 9.4733307 19 10 19 C 11.245954 19 12.327483 18.151672 12.929688 16.947266 C 13.53189 15.742859 13.849979 14.143138 13.998047 12.072266 C 14.001058 12.030158 14.004562 11.988861 14.007812 11.947266 C 14.312801 11.98156 14.642557 12 15 12 C 15.499917 12 16.054527 11.859535 16.457031 11.457031 C 16.859535 11.054527 17 10.499917 17 10 A 1 1 0 0 0 16 9 A 1 1 0 0 0 15 10 C 14.728777 10 14.491581 9.9923666 14.28125 9.9785156 C 14.461479 9.1203009 14.698047 8.4488808 14.953125 7.9726562 C 15.381136 7.17357 15.734786 7.0209255 15.982422 7.015625 L 15.982422 7.0175781 L 15.984375 7.0175781 C 15.984938 7.0182791 15.985682 7.0205822 15.986328 7.0214844 L 15.988281 7.0234375 C 15.992217 7.0323988 15.997991 7.0577437 16.009766 7.140625 A 1 1 0 0 0 17.140625 7.9902344 A 1 1 0 0 0 17.990234 6.859375 C 17.922942 6.3869109 17.753635 5.9115612 17.384766 5.5429688 C 17.015897 5.1743764 16.479896 5 16 5 z " fill="currentColor"/>
</svg>
