<svg xmlns="http://www.w3.org/2000/svg" width="1em" height="1em" viewBox="0 0 24 24" fill="currentColor">
  <path d="M 7 2 C 4.2504209 2 2 4.2504209 2 7 L 2 17 C 2 19.749579 4.2504209 22 7 22 L 17 22 C 19.749579 22 22 19.749579 22 17 L 22 7 C 22 4.2504209 19.749579 2 17 2 L 7 2 z M 7 4 L 17 4 C 18.668699 4 20 5.3313011 20 7 L 20 17 C 20 18.668699 18.668699 20 17 20 L 7 20 C 5.3313011 20 4 18.668699 4 17 L 4 7 C 4 5.3313011 5.3313011 4 7 4 z M 8 8 A 1 1 0 0 0 7.2929688 8.2929688 A 1 1 0 0 0 7.2929688 9.7070312 L 9.5859375 12 L 7.2929688 14.292969 A 1 1 0 0 0 7.2929688 15.707031 A 1 1 0 0 0 8.7070312 15.707031 L 11.707031 12.707031 A 1.0001 1.0001 0 0 0 11.707031 11.292969 L 8.7070312 8.2929688 A 1 1 0 0 0 8 8 z M 13 14 A 1 1 0 0 0 12 15 A 1 1 0 0 0 13 16 L 16 16 A 1 1 0 0 0 17 15 A 1 1 0 0 0 16 14 L 13 14 z " fill="currentColor"/>
</svg>
