<svg xmlns="http://www.w3.org/2000/svg" width="1em" height="1em" viewBox="0 0 24 24" fill="currentColor">
  <path d="M 12 1.015625 C 11.276958 1.015625 10.553312 1.2110298 9.9140625 1.6015625 L 3.9140625 5.2695312 C 2.7260169 5.9953361 2.0000276 7.289432 2 8.6816406 L 2 15.316406 C 1.9995634 16.709087 2.7256137 18.004418 3.9140625 18.730469 A 1.0001 1.0001 0 0 0 3.9375 18.746094 L 5.5058594 19.644531 C 7.4641642 20.769136 9.9996002 19.303174 10 17.044922 L 10 9 A 1 1 0 0 0 9 8 A 1 1 0 0 0 8 9 L 8 17.044922 C 7.99852 17.860158 7.2094337 18.316446 6.5019531 17.910156 L 4.953125 17.021484 C 4.3599823 16.656812 3.9997816 16.012978 4 15.316406 L 4 8.6816406 C 4.0000138 7.9834013 4.3611865 7.3386248 4.9570312 6.9746094 L 10.957031 3.3085938 C 11.598862 2.9164842 12.401138 2.9164842 13.042969 3.3085938 L 19.042969 6.9746094 C 19.639018 7.3387498 20.000219 7.9851146 20 8.6835938 L 20 15.316406 C 19.999986 16.014646 19.638813 16.659422 19.042969 17.023438 L 13.042969 20.691406 C 12.401138 21.083516 11.598862 21.083516 10.957031 20.691406 A 1 1 0 0 0 9.5820312 21.023438 A 1 1 0 0 0 9.9140625 22.396484 C 11.192562 23.17755 12.807437 23.17755 14.085938 22.396484 L 20.085938 18.730469 C 21.273984 18.004664 21.999972 16.708615 22 15.316406 L 22 8.6835938 C 22.000437 7.2909126 21.274386 5.9955823 20.085938 5.2695312 L 14.085938 1.6015625 C 13.446687 1.2110298 12.723042 1.015625 12 1.015625 z M 13.5 8 C 12.75 8 12.060226 8.3172556 11.626953 8.8046875 C 11.193681 9.2921194 11 9.9027779 11 10.5 C 11 11.097222 11.193681 11.707881 11.626953 12.195312 C 12.060226 12.682743 12.75 13 13.5 13 L 15.5 13 C 15.75 13 15.810226 13.05774 15.876953 13.132812 C 15.94368 13.20788 16 13.347222 16 13.5 C 16 13.652778 15.94368 13.792119 15.876953 13.867188 C 15.810226 13.942255 15.75 14 15.5 14 L 12 14 A 1 1 0 0 0 11 15 A 1 1 0 0 0 12 16 L 15.5 16 C 16.25 16 16.939774 15.682744 17.373047 15.195312 C 17.806319 14.70788 18 14.097222 18 13.5 C 18 12.902778 17.806319 12.292119 17.373047 11.804688 C 16.939774 11.317255 16.25 11 15.5 11 L 13.5 11 C 13.25 11 13.189774 10.942256 13.123047 10.867188 C 13.05632 10.792118 13 10.652778 13 10.5 C 13 10.347222 13.05632 10.207881 13.123047 10.132812 C 13.189774 10.057743 13.25 10 13.5 10 L 17 10 A 1 1 0 0 0 18 9 A 1 1 0 0 0 17 8 L 13.5 8 z " fill="currentColor"/>
</svg>
