<svg xmlns="http://www.w3.org/2000/svg" width="1em" height="1em" viewBox="0 0 24 24" fill="currentColor">
  <path d="M 12.166016 2.0019531 C 8.0114159 1.925346 3.7400676 4.3523505 2.3632812 9.3417969 C 0.89470903 14.663873 3.7496043 19.171469 7.7519531 21.052734 C 11.754302 22.933999 17.044874 22.253666 20.205078 17.716797 A 1 1 0 0 0 20.363281 16.947266 A 1 1 0 0 0 20.339844 16.765625 A 1 1 0 0 0 19.134766 16.027344 C 16.3432 16.695036 14.050848 16.474683 12.507812 15.730469 C 10.964776 14.986255 10.120578 13.801246 10.003906 12.138672 C 9.9882827 11.915244 9.9916289 11.719357 10.009766 11.546875 C 10.011237 11.542219 10.012193 11.537859 10.013672 11.533203 A 1 1 0 0 0 10.060547 11.25 C 10.134201 10.952836 10.263468 10.739543 10.421875 10.570312 C 10.706263 10.266492 11.169424 10.05228 11.861328 10.003906 C 12.889297 9.9320712 13.350579 10.306806 13.566406 10.722656 C 13.782233 11.138507 13.764407 11.679493 13.310547 12.201172 A 1.0001 1.0001 0 0 0 13.623047 13.753906 C 14.819357 14.344103 16.637628 14.7118 18.378906 14.582031 C 19.249546 14.517151 20.108538 14.32879 20.832031 13.810547 C 21.524767 13.314335 21.998825 12.418128 21.974609 11.433594 A 1 1 0 0 0 21.974609 11.302734 C 21.588254 5.7872291 17.394886 2.4882639 12.994141 2.0507812 C 12.719094 2.0234386 12.442989 2.0070603 12.166016 2.0019531 z M 11.648438 4 C 12.030588 3.988909 12.414593 4.0030126 12.796875 4.0410156 C 16.37203 4.3964255 19.659056 6.8529989 19.980469 11.441406 C 20.012717 11.901717 19.92731 11.997823 19.667969 12.183594 C 19.408556 12.369413 18.879454 12.539525 18.230469 12.587891 C 17.263476 12.659951 16.295424 12.365077 15.457031 12.121094 C 15.678963 11.330158 15.71318 10.516353 15.341797 9.8007812 C 15.292567 9.7059253 15.239042 9.6145218 15.179688 9.5253906 A 1 1 0 0 0 15.142578 9.453125 C 14.362878 8.0545326 13.038671 7.2282186 11.630859 6.9023438 C 10.926954 6.7394064 10.19702 6.6878693 9.46875 6.7285156 C 8.7404805 6.769162 8.0137886 6.9020576 7.3125 7.1054688 C 6.4817315 7.346436 5.6853579 7.6874026 4.96875 8.1191406 C 6.3802734 5.3748023 8.973382 4.0776368 11.648438 4 z M 9.5039062 8.734375 C 9.3085084 8.870016 9.1271287 9.0255778 8.9609375 9.203125 C 8.5036615 9.691647 8.203621 10.322995 8.0722656 11.039062 C 7.2450828 13.727459 7.392279 16.379083 8.1933594 18.429688 C 8.3004692 18.703867 8.4198352 18.968708 8.5507812 19.220703 C 6.1120093 18.055798 4.2305313 15.823631 3.984375 12.900391 A 1 1 0 0 0 4.0195312 12.558594 C 3.9752001 11.925269 4.2914862 11.251365 4.9902344 10.591797 C 5.6889826 9.9322289 6.7407179 9.3526934 7.8691406 9.0253906 C 8.4086348 8.8689085 8.9633952 8.7702604 9.5039062 8.734375 z M 9.625 16.050781 C 10.179799 16.653247 10.86037 17.155871 11.638672 17.53125 C 13.099949 18.236032 14.885694 18.536321 16.896484 18.396484 C 15.691794 19.379095 14.333085 19.898245 12.957031 20.035156 A 1 1 0 0 0 12.558594 19.980469 C 12.091547 20.013239 11.672325 19.865762 11.232422 19.490234 C 10.792519 19.114707 10.365653 18.499137 10.054688 17.703125 C 9.8626911 17.211653 9.7148508 16.653777 9.625 16.050781 z " fill="currentColor"/>
</svg>
