<svg xmlns="http://www.w3.org/2000/svg" width="1em" height="1em" viewBox="0 0 24 24" fill="currentColor">
  <path d="M 10 2 A 1 1 0 0 0 9 3 L 9 6.7988281 L 5.9863281 5.125 A 1 1 0 0 0 4.625 5.5136719 A 1 1 0 0 0 5.0136719 6.875 L 9.5136719 9.375 A 1.0001 1.0001 0 0 0 11 8.5 L 11 3 A 1 1 0 0 0 10 2 z M 14 2 A 1 1 0 0 0 13 3 L 13 8.5 A 1.0001 1.0001 0 0 0 14.486328 9.375 L 18.986328 6.875 A 1 1 0 0 0 19.375 5.5136719 A 1 1 0 0 0 18.013672 5.125 L 15 6.7988281 L 15 3 A 1 1 0 0 0 14 2 z M 3.484375 8.4980469 A 1 1 0 0 0 2.625 9.0136719 A 1 1 0 0 0 3.0136719 10.375 L 5.9394531 12 L 3.0136719 13.625 A 1 1 0 0 0 2.625 14.986328 A 1 1 0 0 0 3.9863281 15.375 L 8.4863281 12.875 A 1.0001 1.0001 0 0 0 8.4863281 11.125 L 3.9863281 8.625 A 1 1 0 0 0 3.484375 8.4980469 z M 20.515625 8.4980469 A 1 1 0 0 0 20.013672 8.625 L 15.513672 11.125 A 1.0001 1.0001 0 0 0 15.513672 12.875 L 20.013672 15.375 A 1 1 0 0 0 21.375 14.986328 A 1 1 0 0 0 20.986328 13.625 L 18.060547 12 L 20.986328 10.375 A 1 1 0 0 0 21.375 9.0136719 A 1 1 0 0 0 20.515625 8.4980469 z M 12 10 A 1 1 0 0 0 11.292969 10.292969 L 10.292969 11.292969 A 1.0001 1.0001 0 0 0 10.292969 12.707031 L 11.292969 13.707031 A 1.0001 1.0001 0 0 0 12.707031 13.707031 L 13.707031 12.707031 A 1.0001 1.0001 0 0 0 13.707031 11.292969 L 12.707031 10.292969 A 1 1 0 0 0 12 10 z M 10.046875 14.5 A 1.0001 1.0001 0 0 0 9.5136719 14.625 L 5.0136719 17.125 A 1 1 0 0 0 4.625 18.486328 A 1 1 0 0 0 5.9863281 18.875 L 9 17.201172 L 9 21 A 1 1 0 0 0 10 22 A 1 1 0 0 0 11 21 L 11 15.5 A 1.0001 1.0001 0 0 0 10.046875 14.5 z M 13.953125 14.5 A 1.0001 1.0001 0 0 0 13 15.5 L 13 21 A 1 1 0 0 0 14 22 A 1 1 0 0 0 15 21 L 15 17.201172 L 18.013672 18.875 A 1 1 0 0 0 19.375 18.486328 A 1 1 0 0 0 18.986328 17.125 L 14.486328 14.625 A 1.0001 1.0001 0 0 0 13.953125 14.5 z " fill="currentColor"/>
</svg>
