<svg xmlns="http://www.w3.org/2000/svg" width="1em" height="1em" viewBox="0 0 24 24" fill="currentColor">
  <path d="M 12 1.9980469 A 1.0001 1.0001 0 0 0 11.513672 2.125 L 2.5136719 7.125 A 1.0001 1.0001 0 0 0 2.5136719 8.875 L 11.513672 13.875 A 1.0001 1.0001 0 0 0 12.486328 13.875 L 20 9.7011719 L 20 10.412109 L 12 14.855469 L 3.4863281 10.125 A 1.0001 1.0001 0 0 0 2 11 L 2 14 A 1.0001 1.0001 0 0 0 2.5136719 14.875 L 11.513672 19.875 A 1.0001 1.0001 0 0 0 12.486328 19.875 L 20 15.701172 L 20 16.412109 L 12 20.855469 L 3.4863281 16.125 A 1 1 0 0 0 2.125 16.513672 A 1 1 0 0 0 2.5136719 17.875 L 11.513672 22.875 A 1.0001 1.0001 0 0 0 12.486328 22.875 L 21.486328 17.875 A 1.0001 1.0001 0 0 0 22 17 L 22 14 A 1.0001 1.0001 0 0 0 20.513672 13.125 L 12 17.855469 L 4 13.412109 L 4 12.701172 L 11.513672 16.875 A 1.0001 1.0001 0 0 0 12.486328 16.875 L 21.486328 11.875 A 1.0001 1.0001 0 0 0 22 11 L 22 8 A 1.0001 1.0001 0 0 0 20.513672 7.125 L 12 11.855469 L 5.0605469 8 L 12 4.1445312 L 16.931641 6.8847656 A 1 1 0 0 0 18.292969 6.4960938 A 1 1 0 0 0 17.904297 5.1367188 L 12.486328 2.125 A 1.0001 1.0001 0 0 0 12 1.9980469 z " fill="currentColor"/>
</svg>
