<svg xmlns="http://www.w3.org/2000/svg" width="1em" height="1em" viewBox="0 0 24 24" fill="currentColor">
  <path d="M 13 2 C 9.5002434 2 6.7097417 4.6372375 6.203125 8 L 4 8 A 1.0001 1.0001 0 0 0 3 9 L 3 13 A 1.0001 1.0001 0 0 0 4 14 L 6 14 L 6 21 A 1.0001 1.0001 0 0 0 7 22 L 11 22 A 1.0001 1.0001 0 0 0 12 21 L 12 15 L 14 15 L 14 21 A 1.0001 1.0001 0 0 0 15 22 L 19 22 A 1.0001 1.0001 0 0 0 20 21 L 20 10 A 1.0001 1.0001 0 0 0 19 9 L 12 9 L 12 8.9667969 C 11.999922 8.413854 12.429557 7.9907234 12.982422 8 A 1.0001 1.0001 0 0 0 13 8 L 15 8 A 1.0001 1.0001 0 0 0 16 7 L 16 3 A 1 1 0 0 0 15 2 L 13 2 z M 13 4 L 14 4 L 14 6 L 13.017578 6 C 11.372027 5.972389 9.9997684 7.3210137 10 8.9667969 L 10 10 A 1.0001 1.0001 0 0 0 11 11 L 18 11 L 18 20 L 16 20 L 16 14 A 1.0001 1.0001 0 0 0 15 13 L 11 13 A 1.0001 1.0001 0 0 0 10 14 L 10 20 L 8 20 L 8 13 A 1.0001 1.0001 0 0 0 7 12 L 5 12 L 5 10 L 7 10 A 1.0001 1.0001 0 0 0 8 9 C 8 6.2267316 10.226732 4 13 4 z " fill="currentColor"/>
</svg>
