<svg xmlns="http://www.w3.org/2000/svg" width="1em" height="1em" viewBox="0 0 24 24" fill="currentColor">
  <path d="M 7.5 6 A 1.0001 1.0001 0 0 0 6.7929688 6.2929688 L 2.2929688 10.792969 A 1 1 0 0 0 2 11.5 A 1 1 0 0 0 2.2929688 12.207031 L 6.7929688 16.707031 A 1.0001 1.0001 0 0 0 7.5 17 L 16.5 17 A 1 1 0 0 0 16.638672 16.990234 A 1.0001 1.0001 0 0 0 16.761719 16.962891 A 1 1 0 0 0 16.773438 16.960938 A 1.0001 1.0001 0 0 0 16.814453 16.947266 A 1 1 0 0 0 16.896484 16.916016 A 1 1 0 0 0 16.904297 16.914062 A 1.0001 1.0001 0 0 0 16.933594 16.898438 A 1 1 0 0 0 17.015625 16.853516 A 1 1 0 0 0 17.025391 16.849609 A 1.0001 1.0001 0 0 0 17.050781 16.832031 A 1 1 0 0 0 17.125 16.779297 A 1.0001 1.0001 0 0 0 17.167969 16.742188 A 1 1 0 0 0 17.207031 16.707031 L 17.238281 16.673828 L 21.707031 12.207031 A 1.0001 1.0001 0 0 0 21.707031 10.792969 L 17.207031 6.2929688 A 1.0001 1.0001 0 0 0 15.792969 6.2929688 L 12 10.085938 L 8.2070312 6.2929688 A 1.0001 1.0001 0 0 0 7.5 6 z M 7.5 8.4140625 L 11.292969 12.207031 L 14.085938 15 L 7.9140625 15 L 4.4140625 11.5 L 7.5 8.4140625 z M 16.5 8.4140625 L 19.585938 11.5 L 16.5 14.585938 L 13.414062 11.5 L 16.5 8.4140625 z " fill="currentColor"/>
</svg>
