<svg xmlns="http://www.w3.org/2000/svg" width="1em" height="1em" viewBox="0 0 24 24" fill="currentColor">
  <path d="M 12 2 C 6.4889982 2 2 6.4889941 2 12 C 2 17.511006 6.4889982 22 12 22 C 17.511002 22 22 17.511006 22 12 C 22 6.4889941 17.511002 2 12 2 z M 12 4 C 16.430123 4 20 7.5698737 20 12 C 20 16.430126 16.430123 20 12 20 C 7.5698765 20 4 16.430126 4 12 C 4 7.5698737 7.5698765 4 12 4 z M 12.300781 5.8769531 C 12.074065 5.8672447 11.846085 5.8738281 11.617188 5.8964844 C 10.701598 5.9871095 9.7832899 6.3418664 8.9765625 6.9921875 C 8.3480917 7.4985184 7 8.8599352 7 11.365234 C 7 14.277801 8.883784 16.847428 11.634766 17.929688 A 1 1 0 0 0 12.929688 17.365234 A 1 1 0 0 0 12.365234 16.070312 C 10.322216 15.266572 9 13.416668 9 11.365234 C 9 9.4915209 9.7286199 8.9529717 10.230469 8.5488281 A 1.0001 1.0001 0 0 0 10.232422 8.5488281 C 11.26492 7.7164703 12.40397 7.6932926 13.345703 8.1660156 C 14.287436 8.6387386 15 9.6071429 15 11 C 15 11.431333 14.90072 11.590519 14.800781 11.699219 C 14.700841 11.807918 14.540676 11.893561 14.300781 11.935547 C 14.060886 11.977537 13.76051 11.96113 13.527344 11.90625 C 13.359755 11.866805 13.22345 11.780791 13.197266 11.773438 L 13.195312 11.773438 C 12.999094 11.560365 12.858044 11.332031 12.804688 11.132812 C 12.748548 10.923205 12.745251 10.745841 12.894531 10.447266 A 1 1 0 0 0 12.447266 9.1054688 A 1 1 0 0 0 11.105469 9.5527344 C 10.754756 10.254159 10.702936 11.015248 10.873047 11.650391 C 11.043158 12.285533 11.395197 12.79256 11.777344 13.191406 C 12.172163 13.603478 12.589495 13.740803 13.068359 13.853516 C 13.547224 13.966228 14.085754 14.004393 14.646484 13.90625 C 15.207215 13.80811 15.810096 13.556691 16.273438 13.052734 C 16.736781 12.548782 17 11.818667 17 11 C 17 8.8928571 15.836954 7.1794334 14.242188 6.3789062 C 13.644149 6.0787086 12.98093 5.9060783 12.300781 5.8769531 z " fill="currentColor"/>
</svg>
