<svg xmlns="http://www.w3.org/2000/svg" width="1em" height="1em" viewBox="0 0 24 24" fill="currentColor">
  <path d="M 11.859375 1.0039062 C 10.317687 1.0492682 8.7713561 1.705581 7.5625 2.984375 C 6.1809502 4.4458539 5.2399321 6.6744344 5.0039062 9.6699219 A 1 1 0 0 0 5.0136719 9.7988281 C 4.2646677 11.996792 3.2806331 13.842917 3.0371094 16.332031 A 1.0001 1.0001 0 0 0 3.0371094 16.333984 C 2.9765594 16.955385 2.9767159 17.420048 3.0917969 17.865234 C 3.1493379 18.087827 3.237407 18.315774 3.4199219 18.533203 C 3.6024367 18.750632 3.9070155 18.936499 4.2070312 18.984375 C 4.8070629 19.080125 5.1740604 18.80807 5.4335938 18.591797 C 5.6931272 18.375524 5.8837112 18.133105 6.0449219 17.869141 A 1.0001 1.0001 0 0 0 6.046875 17.867188 C 6.0515195 17.859546 6.0570043 17.851877 6.0625 17.84375 C 6.077267 18.05698 6.0983317 18.270045 6.1308594 18.484375 C 6.1954072 18.909678 6.3235708 19.354628 6.5429688 19.769531 L 5.9453125 20.167969 A 1.0001 1.0001 0 0 0 5.7929688 20.292969 C 5.6090433 20.476894 5.4449665 20.676244 5.3203125 20.943359 C 5.1956585 21.210475 5.1016217 21.593928 5.2382812 22.003906 C 5.3749405 22.413884 5.7336334 22.708105 6.0488281 22.837891 C 6.3640226 22.967677 6.6666667 23 7 23 L 17 23 C 17.333333 23 17.635977 22.96768 17.951172 22.837891 C 18.266367 22.708105 18.625059 22.413884 18.761719 22.003906 C 18.898378 21.593928 18.804338 21.210475 18.679688 20.943359 C 18.555035 20.676244 18.390957 20.476894 18.207031 20.292969 A 1.0001 1.0001 0 0 0 18.054688 20.167969 L 17.480469 19.785156 C 17.711545 19.380521 17.855917 18.943853 17.927734 18.515625 C 17.954861 18.353875 17.974038 18.193178 17.988281 18.03125 C 18.165861 18.353815 18.393844 18.633669 18.744141 18.824219 C 19.140063 19.039587 19.697962 19.031953 20.066406 18.841797 C 20.803247 18.461432 21.013812 17.81158 21 17.132812 A 1.0001 1.0001 0 0 0 21 17.130859 C 20.944434 14.529328 19.94219 12.446012 18.990234 9.7988281 A 1.0001 1.0001 0 0 0 18.994141 9.7265625 C 19.143917 4.6962646 16.023826 1.3165324 12.519531 1.0214844 C 12.300513 1.0030439 12.079616 0.99742597 11.859375 1.0039062 z M 11.914062 3 C 12.059994 2.9966874 12.205362 3.0013623 12.351562 3.0136719 C 14.55214 3.198952 16.755633 5.2678768 16.914062 9.0058594 C 13.771916 10.232963 10.31655 10.25516 7.1582031 9.0761719 C 7.4602135 6.8939611 8.1333807 5.2907082 9.015625 4.3574219 C 9.8853864 3.4373409 10.89254 3.0231881 11.914062 3 z M 10.25 5 C 9.7777779 5 9.2921194 5.1520138 8.8984375 5.5019531 C 8.5047556 5.8518924 8.25 6.4166667 8.25 7 C 8.25 7.5833333 8.5047556 8.1481076 8.8984375 8.4980469 C 9.2921194 8.8479862 9.7777779 9 10.25 9 C 10.722222 9 11.207881 8.8479862 11.601562 8.4980469 C 11.759093 8.3580194 11.89438 8.1845311 12 7.9882812 C 12.10562 8.1845311 12.240906 8.3580194 12.398438 8.4980469 C 12.792118 8.8479862 13.277778 9 13.75 9 C 14.222222 9 14.70788 8.8479862 15.101562 8.4980469 C 15.495243 8.1481076 15.75 7.5833333 15.75 7 C 15.75 6.4166667 15.495244 5.8518924 15.101562 5.5019531 C 14.70788 5.1520138 14.222222 5 13.75 5 C 13.277778 5 12.792119 5.1520138 12.398438 5.5019531 C 12.240906 5.6419806 12.10562 5.8154689 12 6.0117188 C 11.89438 5.8154689 11.759093 5.6419806 11.601562 5.5019531 C 11.20788 5.1520138 10.722222 5 10.25 5 z M 17.314453 11.052734 C 17.974293 12.906912 18.473489 14.358303 18.736328 15.810547 C 18.323407 15.476233 17.836494 15.216764 17.302734 15.046875 A 1 1 0 0 0 17.175781 15.015625 A 1 1 0 0 0 17.167969 15.015625 A 1 1 0 0 0 17.044922 15.001953 A 1 1 0 0 0 17.041016 15.001953 A 1 1 0 0 0 16.982422 15 A 1 1 0 0 0 16.943359 15.003906 A 1 1 0 0 0 16.878906 15.009766 A 1 1 0 0 0 16.826172 15.017578 A 1 1 0 0 0 16.746094 15.035156 A 1 1 0 0 0 16.703125 15.046875 A 1 1 0 0 0 16.628906 15.072266 A 1 1 0 0 0 16.568359 15.099609 A 1 1 0 0 0 16.517578 15.125 A 1 1 0 0 0 16.451172 15.166016 A 1 1 0 0 0 16.410156 15.193359 A 1 1 0 0 0 16.341797 15.25 A 1 1 0 0 0 16.308594 15.279297 A 1 1 0 0 0 16.259766 15.330078 A 1 1 0 0 0 16.21875 15.376953 A 1 1 0 0 0 16.167969 15.445312 A 1 1 0 0 0 16.148438 15.478516 A 1 1 0 0 0 16.111328 15.542969 A 1 1 0 0 0 16.080078 15.613281 A 1 1 0 0 0 16.0625 15.658203 A 1 1 0 0 0 16.046875 15.697266 A 1 1 0 0 0 16.039062 15.724609 A 1 1 0 0 0 16.021484 15.798828 A 1 1 0 0 0 16.013672 15.845703 A 1 1 0 0 0 16.003906 15.941406 A 1 1 0 0 0 16.001953 15.96875 A 1 1 0 0 0 16 16.017578 C 16.01579 16.950271 16.038428 17.686622 15.955078 18.183594 C 15.871728 18.680565 15.763114 18.915148 15.382812 19.212891 A 1 1 0 0 0 15.363281 19.230469 A 1 1 0 0 0 15.310547 19.277344 A 1 1 0 0 0 15.261719 19.326172 A 1 1 0 0 0 15.232422 19.361328 A 1 1 0 0 0 15.181641 19.427734 A 1 1 0 0 0 15.167969 19.445312 A 1 1 0 0 0 15.150391 19.476562 A 1 1 0 0 0 15.115234 19.537109 A 1 1 0 0 0 15.091797 19.585938 A 1 1 0 0 0 15.0625 19.654297 A 1 1 0 0 0 15.044922 19.712891 A 1 1 0 0 0 15.025391 19.785156 A 1 1 0 0 0 15.015625 19.839844 A 1 1 0 0 0 15.005859 19.902344 A 1 1 0 0 0 15.001953 19.976562 A 1 1 0 0 0 15.001953 20.035156 A 1 1 0 0 0 15.007812 20.103516 A 1 1 0 0 0 15.015625 20.171875 A 1 1 0 0 0 15.029297 20.232422 A 1 1 0 0 0 15.044922 20.291016 A 1 1 0 0 0 15.070312 20.361328 A 1 1 0 0 0 15.09375 20.419922 A 1 1 0 0 0 15.117188 20.466797 A 1 1 0 0 0 15.164062 20.544922 A 1 1 0 0 0 15.183594 20.574219 A 1 1 0 0 0 15.212891 20.617188 A 1 1 0 0 0 15.230469 20.638672 A 1 1 0 0 0 15.269531 20.681641 A 1 1 0 0 0 15.328125 20.738281 A 1 1 0 0 0 15.349609 20.757812 A 1 1 0 0 0 15.421875 20.814453 A 1 1 0 0 0 15.445312 20.832031 A 1 1 0 0 0 15.466797 20.845703 L 15.697266 21 L 8.3027344 21 L 8.5546875 20.832031 A 1 1 0 0 0 8.5761719 20.814453 A 1 1 0 0 0 8.6308594 20.773438 A 1 1 0 0 0 8.671875 20.738281 A 1 1 0 0 0 8.71875 20.691406 A 1 1 0 0 0 8.7714844 20.632812 A 1 1 0 0 0 8.7832031 20.621094 A 1 1 0 0 0 8.8027344 20.59375 A 1 1 0 0 0 8.84375 20.535156 A 1 1 0 0 0 8.8730469 20.482422 A 1 1 0 0 0 8.9082031 20.416016 A 1 1 0 0 0 8.9277344 20.371094 A 1 1 0 0 0 8.9609375 20.273438 A 1 1 0 0 0 8.9648438 20.253906 A 1 1 0 0 0 8.984375 20.160156 A 1 1 0 0 0 8.9902344 20.121094 A 1 1 0 0 0 8.9980469 20.037109 A 1 1 0 0 0 8.9980469 19.982422 A 1 1 0 0 0 8.9921875 19.884766 A 1 1 0 0 0 8.9882812 19.861328 A 1 1 0 0 0 8.9726562 19.775391 A 1 1 0 0 0 8.9589844 19.728516 A 1 1 0 0 0 8.9355469 19.652344 A 1 1 0 0 0 8.9121094 19.595703 A 1 1 0 0 0 8.8847656 19.537109 A 1 1 0 0 0 8.8554688 19.484375 A 1 1 0 0 0 8.8320312 19.445312 A 1 1 0 0 0 8.8027344 19.404297 A 1 1 0 0 0 8.7949219 19.394531 A 1 1 0 0 0 8.7363281 19.324219 A 1 1 0 0 0 8.6875 19.275391 A 1 1 0 0 0 8.6210938 19.216797 C 8.2932897 18.957298 8.1903449 18.717101 8.109375 18.183594 C 8.0284051 17.650087 8.0433702 16.878718 7.9980469 15.951172 A 1 1 0 0 0 7.9941406 15.917969 A 1 1 0 0 0 7.9824219 15.822266 A 1 1 0 0 0 7.9824219 15.818359 A 1 1 0 0 0 7.9101562 15.585938 A 1 1 0 0 0 7.9023438 15.572266 A 1 1 0 0 0 7.8476562 15.470703 A 1 1 0 0 0 7.8398438 15.458984 A 1 1 0 0 0 7.7714844 15.365234 A 1 1 0 0 0 7.7617188 15.353516 A 1 1 0 0 0 7.6816406 15.269531 A 1 1 0 0 0 7.6796875 15.267578 A 1 1 0 0 0 7.671875 15.259766 A 1 1 0 0 0 7.6503906 15.242188 A 1 1 0 0 0 7.4570312 15.111328 A 1 1 0 0 0 7.3515625 15.064453 A 1 1 0 0 0 7.3359375 15.058594 A 1 1 0 0 0 7.296875 15.046875 A 1 1 0 0 0 6.5859375 15.089844 C 5.9199331 15.392107 5.5391459 15.830793 5.0976562 16.240234 C 5.3248423 14.512496 5.9932693 13.013288 6.6796875 11.091797 C 9.225162 11.995978 11.945062 12.223633 14.578125 11.775391 L 14.925781 13.232422 A 1 1 0 0 0 16.128906 13.972656 A 1 1 0 0 0 16.871094 12.767578 L 16.525391 11.316406 C 16.79001 11.235688 17.053383 11.147748 17.314453 11.052734 z " fill="currentColor"/>
</svg>
