<svg xmlns="http://www.w3.org/2000/svg" width="1em" height="1em" viewBox="0 0 24 24" fill="currentColor">
  <path d="M 14 5 C 12.488302 5 11.255126 5.4874751 10.373047 6.2792969 C 9.490968 7.0711186 8.9606176 8.1004806 8.5644531 9.1464844 C 8.5608817 9.1553783 8.2340796 9.9728579 8.0546875 10.419922 C 8.0423342 10.314636 7.9994648 9.9495354 7.9980469 9.9375 C 7.8134039 7.01891 5.3885901 5.0195313 3 5.0195312 A 1.0001 1.0001 0 0 0 2.0117188 6.171875 L 4.0117188 19.152344 A 1.0001 1.0001 0 0 0 5.0039062 20 C 8.1228212 19.98523 10.498341 18.182231 11.427734 15.873047 A 1.0001 1.0001 0 0 0 11.447266 15.818359 C 11.447266 15.818359 11.537146 15.548532 11.550781 15.507812 C 11.777529 17.311818 12.007813 19.125 12.007812 19.125 A 1.0001 1.0001 0 0 0 13 20 C 16.151038 20 18.465283 18.109585 19.417969 15.894531 A 1.0001 1.0001 0 0 0 19.4375 15.845703 L 22.9375 6.3457031 A 1.0001 1.0001 0 0 0 22 5 C 20.383268 5 19.041745 5.6387242 18.074219 6.5371094 C 17.106693 7.4354946 16.479089 8.5661032 16.066406 9.640625 A 1 1 0 0 0 16.066406 9.6425781 C 16.066406 9.6425781 15.894092 10.096324 15.828125 10.269531 C 15.787564 10.054801 15.755745 9.880059 15.714844 9.6640625 C 15.345365 7.7128568 14.982422 5.8125 14.982422 5.8125 A 1.0001 1.0001 0 0 0 14 5 z M 13.195312 7.1210938 C 13.312914 7.7366807 13.470518 8.5592187 13.75 10.035156 C 13.934511 11.009553 14.121297 11.997108 14.263672 12.763672 C 14.334862 13.146954 14.393993 13.476298 14.4375 13.71875 C 14.48101 13.961202 14.513729 14.181757 14.505859 14.113281 A 1.0001 1.0001 0 0 0 16.453125 14.300781 C 16.459425 14.280821 16.873599 13.154036 17.232422 12.205078 C 17.590455 11.258206 17.930135 10.365275 17.931641 10.361328 L 17.933594 10.359375 L 17.933594 10.357422 C 18.267916 9.4874582 18.773214 8.6189082 19.435547 8.0039062 C 19.734264 7.7265853 20.07172 7.514046 20.439453 7.34375 L 17.580078 15.109375 C 17.008215 16.435802 15.725499 17.576153 13.867188 17.873047 C 13.785348 17.224182 13.683095 16.416669 13.498047 14.943359 C 13.373884 13.954807 13.248562 12.960806 13.154297 12.203125 C 13.107167 11.824285 13.067127 11.503104 13.039062 11.273438 C 13.025033 11.158603 13.013519 11.066756 13.005859 11.001953 C 13.002811 10.9763 12.999968 10.949795 12.998047 10.927734 C 12.994947 10.884871 12.994331 10.887032 12.996094 10.908203 A 1.0001 1.0001 0 0 0 11.042969 10.712891 C 11.060919 10.653051 10.934185 11.042214 10.791016 11.472656 C 10.647847 11.903099 10.462973 12.458033 10.279297 13.007812 C 9.9208531 14.080704 9.5871446 15.078642 9.5703125 15.128906 C 9.0276176 16.474916 7.6633353 17.457762 5.8203125 17.759766 L 4.25 7.5703125 C 5.1216375 8.0636475 5.9244656 8.8376804 6.0019531 10.0625 A 1.0001 1.0001 0 0 0 6.0078125 10.117188 C 6.0078125 10.117188 6.12883 11.149764 6.2519531 12.226562 C 6.3135151 12.764961 6.3747959 13.314623 6.421875 13.75 C 6.468709 14.183111 6.5018182 14.5921 6.5 14.535156 A 1.0001 1.0001 0 0 0 8.4335938 14.859375 C 8.5540289 14.54716 10.427734 9.8730469 10.427734 9.8730469 A 1.0001 1.0001 0 0 0 10.435547 9.8535156 C 10.773382 8.9615194 11.181313 8.2412564 11.708984 7.7675781 C 12.081391 7.4332771 12.580802 7.2361345 13.195312 7.1210938 z " fill="currentColor"/>
</svg>
