<svg xmlns="http://www.w3.org/2000/svg" width="1em" height="1em" viewBox="0 0 24 24" fill="currentColor">
  <path d="M 11.533203 2 C 10.309647 2 9.1966815 2.7197647 8.6757812 3.828125 A 1.0001 1.0001 0 0 0 8.6738281 3.8300781 L 6.5527344 8.359375 C 5.9647026 7.6827111 5.1068498 7.2845381 4.2148438 7.265625 C 3.8020507 7.256875 3.3830007 7.328431 2.9785156 7.4921875 A 1.0001 1.0001 0 0 0 2.9726562 7.4941406 C 1.3598322 8.1570482 0.58504674 10.028069 1.2265625 11.648438 A 1.0001 1.0001 0 0 0 1.2285156 11.648438 C 1.716075 12.875014 2.4994452 13.98597 3.46875 14.935547 L 2.7949219 16.373047 C 2.0771385 17.902984 2.6104228 19.798738 4.1328125 20.621094 A 1.0001 1.0001 0 0 0 4.1347656 20.623047 C 5.7231212 21.478092 7.7227932 20.794564 8.484375 19.171875 A 1.0001 1.0001 0 0 0 8.4863281 19.171875 L 9.0253906 18.021484 C 9.802434 18.208319 10.597909 18.310547 11.394531 18.310547 A 1.0001 1.0001 0 0 0 11.398438 18.310547 C 12.28441 18.307111 13.165171 18.194617 14.021484 17.976562 L 14.580078 19.167969 C 15.09584 20.280139 16.213261 20.995885 17.439453 20.998047 A 1.0001 1.0001 0 0 0 17.441406 20.998047 C 17.727843 20.998047 18.015085 20.957057 18.291016 20.878906 C 20.207273 20.339098 21.092028 18.136007 20.263672 16.365234 A 1.0001 1.0001 0 0 0 20.261719 16.363281 L 19.533203 14.808594 C 21.223769 13.132684 22.461658 10.968624 22.9375 8.5527344 C 23.274907 6.8384189 22.169211 5.1371418 20.460938 4.7929688 L 20.458984 4.7929688 C 19.633214 4.6264259 18.773553 4.7988487 18.076172 5.2714844 C 17.377858 5.743902 16.896632 6.476019 16.734375 7.3046875 C 16.67163 7.6220462 16.57859 7.9349306 16.457031 8.2382812 L 14.394531 3.8339844 C 13.880261 2.7209612 12.763192 2.0038667 11.537109 2 A 1.0001 1.0001 0 0 0 11.533203 2 z M 11.53125 4.0019531 C 11.983408 4.0044931 12.390338 4.2631778 12.580078 4.6738281 A 1.0001 1.0001 0 0 0 12.582031 4.6777344 L 15.146484 10.154297 L 15.615234 9.6855469 C 15.600348 9.7045179 15.585428 9.7233778 15.570312 9.7421875 A 1 1 0 0 0 15.443359 10.789062 L 15.46875 10.841797 L 17.382812 14.931641 A 1 1 0 0 0 17.445312 15.066406 A 1 1 0 0 0 17.447266 15.070312 L 18.451172 17.212891 C 18.782624 17.924329 18.434082 18.760951 17.748047 18.953125 A 1.0001 1.0001 0 0 0 17.746094 18.955078 C 17.641354 18.984738 17.54293 18.997877 17.443359 18.998047 C 16.989418 18.997246 16.582981 18.736299 16.392578 18.324219 A 1.0001 1.0001 0 0 0 16.390625 18.320312 L 15.466797 16.349609 L 13.587891 12.333984 L 13.585938 12.335938 A 1 1 0 0 0 12.695312 11.759766 A 1.0001 1.0001 0 0 0 12.6875 11.757812 L 13.318359 11.757812 L 12.664062 10.363281 C 12.456615 9.9204193 11.981541 9.6445312 11.537109 9.6445312 C 11.092678 9.6445312 10.618933 9.9186237 10.410156 10.359375 A 1.0001 1.0001 0 0 0 10.408203 10.363281 L 9.8300781 11.595703 C 9.0870911 11.304805 8.3634896 10.837604 7.8417969 10.322266 L 10.486328 4.6777344 C 10.685459 4.2566491 11.090875 4.0030532 11.53125 4.0019531 z M 19.837891 6.7304688 C 19.913446 6.7304639 19.989312 6.738702 20.064453 6.7539062 C 20.695137 6.8805821 21.109035 7.492945 20.976562 8.1660156 C 20.631921 9.9157916 19.78811 11.535397 18.621094 12.861328 L 17.507812 10.484375 C 18.077042 9.6511442 18.494981 8.7065469 18.695312 7.6914062 A 1.0001 1.0001 0 0 0 18.697266 7.6894531 C 18.758896 7.3746764 18.940338 7.1013488 19.197266 6.9277344 C 19.387653 6.7987035 19.611223 6.7304834 19.837891 6.7304688 z M 4.1894531 9.2597656 C 4.6435377 9.2651278 5.060934 9.5400709 5.2402344 9.9980469 A 1.0001 1.0001 0 0 0 5.2441406 10.009766 C 5.3913237 10.372314 5.5881608 10.710776 5.8203125 11.025391 A 1 1 0 0 0 5.8554688 11.078125 C 5.8583124 11.081876 5.8604265 11.0861 5.8632812 11.089844 L 5.8632812 11.091797 C 6.8634657 12.430106 8.4634863 13.414882 10.15625 13.779297 C 10.168557 13.781957 10.181043 13.78257 10.193359 13.785156 C 10.591148 13.868705 10.993593 13.916016 11.396484 13.916016 A 1.0001 1.0001 0 0 0 11.398438 13.916016 C 11.633167 13.915594 11.868508 13.902952 12.101562 13.876953 L 13.154297 16.125 C 12.576397 16.245585 11.986612 16.308007 11.394531 16.310547 C 10.550442 16.310547 9.6748424 16.160454 8.8222656 15.886719 A 1 1 0 0 0 8.7871094 15.876953 C 7.5210031 15.461205 6.3502942 14.802107 5.3378906 13.935547 C 5.335768 13.933728 5.3341519 13.931508 5.3320312 13.929688 A 1 1 0 0 0 5.3300781 13.929688 C 4.3128288 13.056091 3.5214172 12.006884 3.0859375 10.912109 L 3.0859375 10.910156 C 2.8394232 10.284533 3.1307517 9.5959524 3.7285156 9.3476562 L 3.7304688 9.3476562 C 3.8824587 9.2864248 4.0380916 9.2579782 4.1894531 9.2597656 z M 5.0644531 16.244141 C 5.7102596 16.687424 6.3981927 17.067301 7.1171875 17.378906 L 6.6738281 18.322266 C 6.3797223 18.948912 5.6871808 19.184747 5.0839844 18.861328 C 4.5403741 18.567684 4.3192522 17.832719 4.6054688 17.222656 L 5.0644531 16.244141 z " fill="currentColor"/>
</svg>
