<svg xmlns="http://www.w3.org/2000/svg" width="1em" height="1em" viewBox="0 0 24 24" fill="currentColor">
  <path d="M 13.195312 4.0136719 C 12.844286 4.0306704 12.486767 4.1062319 12.140625 4.25 C 10.316356 5.0062024 8.7528922 7.0898247 7.8164062 9.6308594 C 7.5045454 10.477054 7.4621433 11.432368 7.3652344 12.365234 C 6.1527912 12.351492 4.8744328 12.303982 3.1914062 11.976562 A 1 1 0 0 0 2.0175781 12.767578 A 1 1 0 0 0 2.8085938 13.939453 C 4.550898 14.278406 5.9212905 14.324771 7.25 14.345703 C 7.3971703 15.554721 7.7541913 16.752515 8.5390625 17.837891 C 9.7909411 19.570169 11.826173 20.294837 14.039062 19.867188 C 16.251952 19.439539 18.726194 18.053854 21.617188 15.787109 A 1 1 0 0 0 21.787109 14.382812 A 1 1 0 0 0 20.382812 14.212891 C 17.623808 16.376146 15.330766 17.581446 13.660156 17.904297 C 11.989546 18.227148 11.024278 17.861737 10.160156 16.666016 C 9.6363053 15.941597 9.3849359 15.128406 9.2539062 14.292969 C 10.338215 14.184422 11.403485 14.058344 12.191406 13.785156 C 14.24506 13.073114 15.37183 11.895831 15.890625 11.357422 C 17.295373 9.8995641 17.279345 7.7985344 16.533203 6.25 C 16.160132 5.4757328 15.595042 4.7970068 14.828125 4.3808594 C 14.444666 4.1727856 14.003671 4.0440118 13.542969 4.015625 C 13.427793 4.0085283 13.312321 4.0080057 13.195312 4.0136719 z M 13.308594 5.9941406 C 13.509164 5.9800056 13.682566 6.0342521 13.875 6.1386719 C 14.182895 6.3057432 14.510243 6.6560797 14.732422 7.1171875 C 15.17678 8.0394031 15.160471 9.2325608 14.449219 9.9707031 C 13.910013 10.530294 13.185502 11.324277 11.535156 11.896484 C 10.982737 12.088019 10.143472 12.166892 9.359375 12.267578 C 9.450337 11.613568 9.460555 10.953951 9.6933594 10.322266 C 10.476826 8.1962996 12.086519 6.4374539 12.90625 6.0976562 A 1.0001 1.0001 0 0 0 12.908203 6.0976562 C 13.058186 6.0353619 13.188252 6.0026217 13.308594 5.9941406 z " fill="currentColor"/>
</svg>
