<svg xmlns="http://www.w3.org/2000/svg" width="1em" height="1em" viewBox="0 0 24 24" fill="currentColor">
  <path d="M 8.9375 2.0019531 C 8.6159811 1.994646 8.2995643 2.0197624 7.9902344 2.0742188 C 6.1342549 2.4009566 4.557619 3.7908541 3.9960938 5.6875 A 1.0001 1.0001 0 0 0 3.9941406 5.6894531 C 2.78909 9.7736912 2.5946778 14.359647 3.8613281 18.488281 C 4.042057 19.093224 4.3412896 19.657136 4.7402344 20.146484 C 5.1434981 20.639107 5.6393231 21.05083 6.1972656 21.357422 C 7.3298365 21.978348 8.653659 22.156355 9.9101562 21.857422 C 11.971462 21.372073 13.952316 20.596453 15.794922 19.552734 A 1.0001 1.0001 0 0 0 15.796875 19.552734 C 16.710251 19.033761 17.583784 18.448851 18.412109 17.802734 C 19.235012 17.161009 20.008765 16.458731 20.728516 15.703125 C 21.194051 15.214925 21.564461 14.642567 21.818359 14.017578 C 22.327939 12.760201 22.324877 11.353093 21.810547 10.097656 L 21.8125 10.097656 C 21.557176 9.4720015 21.181624 8.9035145 20.714844 8.4160156 A 1 1 0 0 0 20.712891 8.4160156 A 1 1 0 0 0 20.710938 8.4101562 C 17.809079 5.4237131 14.021827 3.0551478 9.9121094 2.1230469 C 9.58564 2.048991 9.2590189 2.0092603 8.9375 2.0019531 z M 8.8847656 3.9980469 C 9.0779062 4.003029 9.2736725 4.0275715 9.4707031 4.0722656 C 13.120985 4.9001647 16.613342 7.0651312 19.275391 9.8046875 C 19.572206 10.115939 19.805031 10.471318 19.960938 10.853516 A 1.0001 1.0001 0 0 0 19.960938 10.855469 C 20.277484 11.628114 20.278466 12.491785 19.964844 13.265625 C 19.805371 13.658179 19.57375 14.017667 19.28125 14.324219 C 18.629295 15.008652 17.927032 15.64333 17.181641 16.224609 C 16.429959 16.810942 15.637457 17.343499 14.808594 17.814453 L 14.808594 17.8125 C 13.131077 18.762706 11.327794 19.470246 9.4511719 19.912109 A 1.0001 1.0001 0 0 0 9.4472656 19.912109 C 8.6720526 20.096854 7.857006 19.986631 7.1582031 19.603516 C 6.8253151 19.420189 6.5297978 19.174939 6.2890625 18.880859 C 6.0573145 18.596042 5.8824575 18.267856 5.7773438 17.916016 A 1.0001 1.0001 0 0 0 5.7753906 17.908203 C 4.6466403 14.234819 4.8078581 10.005089 5.9140625 6.2558594 L 5.9121094 6.2558594 C 6.3227439 4.8688629 7.5327813 3.9631719 8.8847656 3.9980469 z M 10.308594 8.015625 C 9.2817362 8.0799371 8.3432943 8.8585577 8.1835938 9.9414062 C 7.9827187 11.273352 7.9481645 12.62413 8.078125 13.964844 C 8.2087692 15.447877 9.8087412 16.405573 11.177734 15.820312 C 11.795077 15.565774 12.396386 15.273976 12.976562 14.943359 A 1.0001 1.0001 0 0 0 12.978516 14.941406 C 13.558528 14.609041 14.116273 14.240513 14.648438 13.835938 A 1.0001 1.0001 0 0 0 15.044922 13.039062 L 15.044922 13.033203 A 1 1 0 0 0 15.039062 13.027344 C 15.537996 12.089734 15.55145 10.928975 14.658203 10.234375 C 14.15161 9.8332964 13.620156 9.4631472 13.068359 9.1269531 L 13.066406 9.125 C 12.511232 8.7857707 11.936483 8.4795685 11.345703 8.2070312 A 1.0001 1.0001 0 0 0 11.339844 8.2050781 C 11.003689 8.0522586 10.65088 7.9941876 10.308594 8.015625 z M 10.378906 9.9882812 C 10.418249 9.9903642 10.462915 10.003207 10.511719 10.025391 C 11.031406 10.265318 11.537001 10.535457 12.025391 10.833984 C 12.510603 11.129496 12.976673 11.455673 13.421875 11.808594 A 1.0001 1.0001 0 0 0 13.429688 11.8125 C 13.618021 11.958951 13.612791 12.107149 13.441406 12.236328 A 1 1 0 0 0 13.439453 12.242188 C 12.976274 12.594287 12.489183 12.917761 11.984375 13.207031 C 11.47555 13.496861 10.949734 13.753738 10.408203 13.976562 A 1.0001 1.0001 0 0 0 10.392578 13.982422 C 10.220099 14.056722 10.086238 13.976221 10.070312 13.789062 A 1.0001 1.0001 0 0 0 10.068359 13.777344 C 9.9536165 12.598023 9.9852714 11.407947 10.162109 10.236328 A 1.0001 1.0001 0 0 0 10.162109 10.234375 C 10.186912 10.066223 10.260877 9.9820323 10.378906 9.9882812 z M 13.4375 12.246094 A 1 1 0 0 0 13.376953 12.701172 A 1 1 0 0 0 13.050781 13.027344 L 13.4375 12.246094 z " fill="currentColor"/>
</svg>
