<svg xmlns="http://www.w3.org/2000/svg" width="1em" height="1em" viewBox="0 0 24 24" fill="currentColor">
  <path d="M 12 2 C 6.4889982 2 2 6.4889941 2 12 C 2 17.511006 6.4889982 22 12 22 C 17.511002 22 22 17.511006 22 12 C 22 6.4889941 17.511002 2 12 2 z M 12 4 C 16.430123 4 20 7.5698737 20 12 C 20 16.430126 16.430123 20 12 20 C 7.5698765 20 4 16.430126 4 12 C 4 7.5698737 7.5698765 4 12 4 z M 11.896484 7.0234375 C 11.69436 7.0285235 11.492985 7.0455296 11.292969 7.0742188 C 9.6928376 7.3037325 8.1997584 8.2835993 7.4511719 9.921875 C 5.9539988 13.198426 8.3975518 17.000223 12 17 C 13.159786 17 14.15626 16.529807 14.787109 15.798828 C 14.862494 15.711478 14.933317 15.621063 15 15.529297 L 15 16 A 1 1 0 0 0 16 17 A 1 1 0 0 0 17 16 L 17 13 A 1.0001 1.0001 0 0 0 16 12 L 15.033203 12 L 14.964844 12 L 13.5 12 A 1 1 0 0 0 12.5 13 A 1 1 0 0 0 13.5 14 L 13.587891 14 C 13.488292 14.199296 13.383452 14.364711 13.273438 14.492188 C 12.981286 14.830707 12.702214 15 12 15 C 9.7770176 15.000138 8.3476203 12.775776 9.2714844 10.753906 C 10.195348 8.7320372 12.812636 8.3563973 14.267578 10.037109 A 1 1 0 0 0 15.677734 10.138672 A 1 1 0 0 0 15.779297 8.7265625 C 14.747758 7.534955 13.311352 6.9878353 11.896484 7.0234375 z " fill="currentColor"/>
</svg>
