<svg xmlns="http://www.w3.org/2000/svg" width="1em" height="1em" viewBox="0 0 24 24" fill="currentColor">
  <path d="M 8.0410156 2 C 6.970849 2.0000272 5.9784427 2.5732086 5.4433594 3.5 L 1.4023438 10.5 C 0.86724699 11.426815 0.86724699 12.573185 1.4023438 13.5 L 5.4433594 20.5 C 5.9784427 21.426791 6.970849 21.999973 8.0410156 22 L 15.957031 22 C 17.02773 22.000508 18.021291 21.427252 18.556641 20.5 L 22.597656 13.5 C 23.132753 12.573185 23.132753 11.426815 22.597656 10.5 L 18.556641 3.5 C 18.021557 2.5732086 17.029151 2.0000272 15.958984 2 A 1.0001 1.0001 0 0 0 15.957031 2 L 8.0410156 2 z M 8.0410156 4 L 15.957031 4 C 16.315891 4.0000091 16.644789 4.1892186 16.824219 4.5 L 20.865234 11.5 C 21.044669 11.810789 21.044669 12.189211 20.865234 12.5 L 16.824219 19.5 C 16.644698 19.810939 16.318026 20.00017 15.958984 20 A 1 1 0 0 0 15.957031 20 L 8.0410156 20 C 7.6821561 19.999991 7.3552111 19.810781 7.1757812 19.5 L 3.1347656 12.5 C 2.9553313 12.189211 2.9553313 11.810789 3.1347656 11.5 L 7.1757812 4.5 C 7.3552111 4.1892186 7.6821561 4.0000091 8.0410156 4 z M 9.0117188 7 A 1 1 0 0 0 8.4003906 7.1992188 A 1 1 0 0 0 8.1992188 8.5996094 L 10.75 12 L 8.1992188 15.400391 A 1 1 0 0 0 8.4003906 16.800781 A 1 1 0 0 0 9.8007812 16.599609 L 12 13.667969 L 14.199219 16.599609 A 1 1 0 0 0 15.599609 16.800781 A 1 1 0 0 0 15.800781 15.400391 L 13.25 12 L 15.800781 8.5996094 A 1 1 0 0 0 15.599609 7.1992188 A 1 1 0 0 0 14.859375 7.0097656 A 1 1 0 0 0 14.199219 7.4003906 L 12 10.332031 L 9.8007812 7.4003906 A 1 1 0 0 0 9.0117188 7 z " fill="currentColor"/>
</svg>
