<svg xmlns="http://www.w3.org/2000/svg" width="1em" height="1em" viewBox="0 0 24 24" fill="currentColor">
  <path d="M 12 1 A 1.0001 1.0001 0 0 0 11.382812 1.2128906 C 9.9149073 2.3655642 8.3454872 3.6015105 7.1113281 5.1933594 C 5.8771691 6.7852082 5 8.7697311 5 11.226562 C 5 13.047602 5.5641503 14.535774 6.6191406 15.990234 C 7.6284069 17.381658 9.0548222 18.812529 11 20.894531 L 11 22 A 1 1 0 0 0 12 23 A 1 1 0 0 0 13 22 L 13 20.894531 C 14.945178 18.81253 16.371593 17.381658 17.380859 15.990234 C 18.43585 14.535774 19 13.047602 19 11.226562 C 19 8.7697311 18.122831 6.7852082 16.888672 5.1933594 C 15.654513 3.6015105 14.085091 2.3655642 12.617188 1.2128906 A 1.0001 1.0001 0 0 0 12 1 z M 11 4.1640625 L 11 17.941406 C 9.8267799 16.697894 8.8280701 15.627565 8.2382812 14.814453 C 7.3402714 13.576414 7 12.678521 7 11.226562 C 7 9.2293929 7.6578152 7.75112 8.6914062 6.4179688 C 9.3222625 5.6042747 10.136871 4.8742263 11 4.1640625 z M 13 4.1640625 C 13.863129 4.8742263 14.677737 5.6042747 15.308594 6.4179688 C 16.342185 7.75112 17 9.2293929 17 11.226562 C 17 12.678522 16.659728 13.576414 15.761719 14.814453 C 15.17193 15.627565 14.17322 16.697894 13 17.941406 L 13 4.1640625 z " fill="currentColor"/>
</svg>
