<svg xmlns="http://www.w3.org/2000/svg" width="1em" height="1em" viewBox="0 0 24 24" fill="currentColor">
  <path d="M 2.9199219 5.0019531 A 1.0001 1.0001 0 0 0 2.65625 5.0605469 A 1.0001 1.0001 0 0 0 2 6 L 2 12 A 1.0001 1.0001 0 0 0 2.2402344 12.650391 L 8.2402344 19.650391 A 1 1 0 0 0 8.6855469 19.685547 A 1 1 0 0 0 9 20 L 14 20 A 1.0001 1.0001 0 0 0 14.763672 18.353516 L 3.7636719 5.3535156 A 1.0001 1.0001 0 0 0 2.9199219 5.0019531 z M 20.931641 5.0039062 A 1.0001 1.0001 0 0 0 20.224609 5.3691406 L 13.724609 13.369141 A 1 1 0 0 0 13.761719 13.738281 A 1 1 0 0 0 13.5 14 A 1 1 0 0 0 13.822266 14.322266 A 1 1 0 0 0 13.869141 14.775391 A 1 1 0 0 0 14.238281 14.738281 A 1 1 0 0 0 14.5 15 L 19 15 A 1.0001 1.0001 0 0 0 19.707031 14.707031 L 21.707031 12.707031 A 1.0001 1.0001 0 0 0 22 12 L 22 6 A 1.0001 1.0001 0 0 0 21.333984 5.0585938 A 1.0001 1.0001 0 0 0 20.931641 5.0039062 z M 4 8.7304688 L 11.84375 18 L 9.4609375 18 L 4 11.630859 L 4 8.7304688 z M 20 8.8164062 L 20 11.585938 L 18.585938 13 L 16.599609 13 L 20 8.8164062 z " fill="currentColor"/>
</svg>
