<svg xmlns="http://www.w3.org/2000/svg" width="1em" height="1em" viewBox="0 0 24 24" fill="currentColor">
  <path d="M 7.3515625 5 C 5.9827292 5 4.8374807 5.8102238 4.0625 6.9042969 C 3.2875193 7.9983699 2.7673167 9.4033216 2.3808594 10.978516 C 1.9984497 12.536944 1.8505884 14.327371 2.171875 15.886719 C 2.3325183 16.666393 2.6113275 17.404964 3.1328125 18.001953 C 3.6542975 18.598942 4.4656292 19 5.3515625 19 C 6.376845 19 7.1655344 18.420082 7.9570312 17.693359 C 8.7485282 16.966636 9.5373498 16.010133 10.3125 14.931641 C 10.93659 14.063532 11.498738 13.192415 12 12.318359 C 12.515489 13.220525 13.080803 14.09423 13.691406 14.935547 C 14.465419 16.012033 15.252673 16.967739 16.042969 17.693359 C 16.834466 18.420082 17.623155 19 18.648438 19 C 19.534371 19 20.345703 18.598942 20.867188 18.001953 C 21.388673 17.404964 21.667482 16.666393 21.828125 15.886719 C 22.149412 14.327371 22.00155 12.536944 21.619141 10.978516 C 21.232683 9.4033216 20.712481 7.9983699 19.9375 6.9042969 C 19.162519 5.8102238 18.017271 5 16.648438 5 C 15.634351 5 14.699141 5.5080151 13.818359 6.2988281 C 13.212469 6.8428291 12.612715 7.5373978 12 8.3867188 C 11.387283 7.5373985 10.787531 6.8428293 10.181641 6.2988281 C 9.3008587 5.5080151 8.3656494 5 7.3515625 5 z M 7.3515625 7 C 7.6704756 7 8.1772347 7.1869224 8.8457031 7.7871094 C 9.4091284 8.2929829 10.092433 9.2143481 10.792969 10.25 C 10.198559 11.416433 9.5341609 12.585967 8.6875 13.763672 C 7.9626502 14.77218 7.2344718 15.643176 6.6054688 16.220703 C 5.9764658 16.79823 5.44028 17 5.3515625 17 C 4.9874958 17 4.8365619 16.912089 4.6386719 16.685547 C 4.4407819 16.459005 4.2457161 16.039873 4.1308594 15.482422 C 3.901146 14.36752 4.0006753 12.76565 4.3222656 11.455078 C 4.6728083 10.026272 5.1545432 8.8239738 5.6953125 8.0605469 C 6.2360818 7.2971199 6.7203958 7 7.3515625 7 z M 16.648438 7 C 17.279605 7 17.763918 7.2971199 18.304688 8.0605469 C 18.845457 8.8239738 19.327192 10.026272 19.677734 11.455078 C 19.999325 12.76565 20.098854 14.36752 19.869141 15.482422 C 19.754284 16.039873 19.559218 16.459005 19.361328 16.685547 C 19.163438 16.912089 19.012505 17 18.648438 17 C 18.55972 17 18.023534 16.79823 17.394531 16.220703 C 16.765528 15.643176 16.03735 14.77218 15.3125 13.763672 A 1.0001 1.0001 0 0 0 15.308594 13.759766 C 14.505748 12.653571 13.830557 11.46565 13.207031 10.25 C 13.907567 9.2143481 14.590872 8.2929829 15.154297 7.7871094 C 15.822765 7.1869224 16.329524 7 16.648438 7 z " fill="currentColor"/>
</svg>
