<svg xmlns="http://www.w3.org/2000/svg" width="1em" height="1em" viewBox="0 0 24 24" fill="currentColor">
  <path d="M 17.935547 2.0625 C 16.963325 2.0625 15.977666 2.3831337 15.208984 3.0664062 C 14.440302 3.7496788 13.935547 4.8125003 13.935547 6.0625 C 13.935547 7.3124997 14.440302 8.3772744 15.208984 9.0605469 C 15.977666 9.7438194 16.963325 10.0625 17.935547 10.0625 C 18.907769 10.0625 19.893427 9.7438194 20.662109 9.0605469 C 21.430791 8.3772744 21.935547 7.3124997 21.935547 6.0625 C 21.935547 4.8125003 21.430791 3.7496787 20.662109 3.0664062 C 19.893427 2.3831336 18.907769 2.0625 17.935547 2.0625 z M 5.3808594 4.0097656 C 5.3807154 4.0097857 5.1798807 4.0585248 5.1796875 4.0585938 C 5.1793236 4.0587247 5.0663658 4.1090064 5.0253906 4.1308594 L 5.0234375 4.1328125 C 5.0225522 4.1331556 5.0185219 4.1344306 5.0175781 4.1347656 L 5.015625 4.1347656 C 4.982839 4.1538046 4.9624245 4.1677905 4.9453125 4.1796875 C 4.8768645 4.2272755 4.8576575 4.2482603 4.8339844 4.2695312 C 4.7866384 4.3120722 4.7517664 4.3459202 4.7128906 4.3886719 C 4.6351396 4.4741759 4.5487629 4.5819479 4.4589844 4.7207031 C 4.2794273 4.9982137 4.0864361 5.4024146 4.0214844 5.9179688 C 3.9091087 6.8099505 4.4049102 7.9315334 5.4921875 9.0097656 C 5.2231119 10.018697 5.3316802 10.981007 5.7402344 11.560547 C 6.0131222 11.947642 6.1376678 11.952639 6.3808594 12.125 C 6.3168064 12.48926 6.1504187 12.867917 6.2285156 13.191406 C 6.3695507 13.775594 6.6929449 14.218199 7.0175781 14.541016 C 7.2541497 14.776263 7.3051181 14.735634 7.5273438 14.876953 C 6.6386049 16.958035 5.7370813 18.886173 4.4765625 20.324219 A 1.0001 1.0001 0 0 0 5.1679688 21.982422 C 6.8043663 22.080932 7.8212428 21.624544 8.7304688 20.939453 C 12.39222 18.179621 13.994187 14.038247 14.826172 11.878906 C 15.151236 11.033739 14.998016 10.175986 14.675781 9.4453125 C 14.353551 8.7146347 13.848992 8.0650741 13.117188 7.6738281 C 11.828347 6.9834333 10.032171 6.1023103 8.5566406 5.3847656 C 7.818623 5.0258705 7.1602614 4.7077141 6.6953125 4.4804688 C 6.462838 4.3668461 6.2786606 4.2742244 6.1621094 4.2148438 C 6.1140484 4.1903576 6.075439 4.1708084 6.0585938 4.1621094 C 6.0645529 4.1658342 6.0737062 4.1720313 6.0878906 4.1816406 C 6.1089456 4.1959026 6.1341466 4.2035587 6.2304688 4.3007812 C 6.2544691 4.3250059 6.3220392 4.4079533 6.3222656 4.4082031 C 6.3221898 4.4081007 6.3487516 4.4558416 6.3691406 4.4941406 C 6.318629 4.4528021 5.818449 4.0449499 5.8183594 4.0449219 C 5.8182652 4.0448924 5.3810034 4.0097459 5.3808594 4.0097656 z M 17.935547 4.0625 C 18.463325 4.0625 18.977666 4.2438198 19.333984 4.5605469 C 19.690302 4.8772739 19.935547 5.3125005 19.935547 6.0625 C 19.935547 6.8124995 19.690302 7.2496792 19.333984 7.5664062 C 18.977666 7.8831333 18.463325 8.0625 17.935547 8.0625 C 17.407769 8.0625 16.893427 7.8831334 16.537109 7.5664062 C 16.180791 7.2496792 15.935547 6.8124995 15.935547 6.0625 C 15.935547 5.3125005 16.180791 4.8772739 16.537109 4.5605469 C 16.893427 4.2438198 17.407769 4.0625 17.935547 4.0625 z M 6.4082031 4.5683594 C 6.4331822 4.6152596 6.4608975 4.667924 6.4609375 4.6679688 C 6.4609169 4.6679109 6.461869 4.7638627 6.4628906 4.8183594 C 6.4351426 4.6949639 6.4177511 4.6107767 6.4082031 4.5683594 z M 4.5214844 4.9394531 A 1 1 0 0 0 4.5722656 5.0839844 C 4.5730176 5.1233594 4.5716461 5.1337326 4.5722656 5.1660156 C 4.5475289 5.0560461 4.5214876 4.9393994 4.5214844 4.9394531 z M 6.4707031 5.1582031 C 6.4707553 5.1609331 6.470653 5.1633956 6.4707031 5.1660156 A 1 1 0 0 0 6.46875 5.1601562 A 1 1 0 0 0 6.4707031 5.1582031 z M 6.4726562 5.2792969 C 6.4726849 5.2806969 6.4726545 5.3007873 6.4726562 5.3007812 C 6.4726783 5.3007108 6.3776972 5.4178921 6.2910156 5.5253906 A 1 1 0 0 0 6.3085938 5.4882812 A 1 1 0 0 0 6.4726562 5.2792969 z M 4.6367188 5.4511719 C 4.6484248 5.4731509 4.6488523 5.4748748 4.6601562 5.4960938 C 4.6592838 5.4953816 4.6445302 5.4824199 4.6445312 5.4824219 C 4.6445338 5.4824265 4.6374862 5.4546163 4.6367188 5.4511719 z M 6.0859375 5.78125 C 6.0804112 5.7881079 6.0714214 5.7992685 6.0625 5.8105469 A 1 1 0 0 0 6.0820312 5.7832031 A 1 1 0 0 0 6.0859375 5.78125 z M 6.046875 6.3886719 C 6.4996524 6.6092212 7.0367536 6.8680345 7.6816406 7.1816406 C 9.1518555 7.8966004 10.942761 8.7779998 12.173828 9.4375 C 12.366024 9.5402541 12.679188 9.8743766 12.845703 10.251953 C 13.012218 10.62953 13.01892 11.004324 12.958984 11.160156 C 12.134969 13.298815 10.635639 16.997629 7.5253906 19.341797 C 7.5142386 19.350197 7.510879 19.349192 7.5 19.357422 C 8.33364 17.942203 9.0608415 16.455741 9.7050781 14.916016 A 1.0001 1.0001 0 0 0 9.1484375 13.599609 C 9.1484375 13.599609 8.716468 13.410164 8.4277344 13.123047 C 8.2833676 12.979488 8.20034 12.838609 8.171875 12.720703 C 8.14341 12.602797 8.1295907 12.476771 8.28125 12.183594 A 1.0001 1.0001 0 0 0 7.8417969 10.832031 C 7.8417969 10.832031 7.5623151 10.673912 7.375 10.408203 C 7.1876849 10.142494 7.0246819 9.9382962 7.4199219 9.2089844 A 1.0001 1.0001 0 0 0 7.1640625 7.9511719 C 6.1826629 7.1671386 6.0565066 6.7102008 6.046875 6.3886719 z " fill="currentColor"/>
</svg>
