<svg xmlns="http://www.w3.org/2000/svg" width="1em" height="1em" viewBox="0 0 24 24" fill="currentColor">
  <path d="M 12 3 C 5.9232443 3 1.0010579 8.0651846 1 14.259766 C 0.995468 16.29763 1.5357618 18.30056 2.5664062 20.058594 A 1.0001 1.0001 0 0 0 2.6914062 20.224609 C 3.030447 20.596692 3.6311202 21 4.3457031 21 C 4.914253 21 5.4455957 20.736246 5.7714844 20.431641 C 6.0973731 20.127036 6.2777344 19.813344 6.4277344 19.574219 C 6.5777344 19.335094 6.696045 19.171271 6.7539062 19.117188 C 6.7719878 19.100288 6.7792375 19.090598 6.78125 19.085938 L 6.78125 19.083984 L 6.7832031 19.083984 L 6.7851562 19.083984 C 6.7894268 19.085463 6.7978414 19.087891 6.8144531 19.087891 C 6.8393719 19.087891 6.851843 19.085243 6.859375 19.085938 L 6.8613281 19.087891 L 6.8632812 19.087891 L 6.8652344 19.087891 L 6.8671875 19.089844 C 6.8684032 19.090671 6.8696825 19.092589 6.8710938 19.09375 C 6.879561 19.100716 6.8932153 19.113584 6.921875 19.138672 C 6.998301 19.205572 7.1316452 19.378158 7.2988281 19.617188 C 7.466011 19.856223 7.6670695 20.161328 8 20.453125 C 8.2496979 20.671973 8.6040499 20.869659 9.0058594 20.955078 C 9.1397959 20.983551 9.2797636 21 9.421875 21 C 9.4929437 21 9.5632366 20.99609 9.6328125 20.988281 C 9.7023884 20.980473 9.7704641 20.967871 9.8378906 20.953125 C 10.24245 20.864649 10.603196 20.660042 10.847656 20.431641 C 11.173603 20.127105 11.353811 19.813397 11.503906 19.574219 C 11.654002 19.335041 11.774118 19.171333 11.832031 19.117188 C 11.850128 19.100269 11.85732 19.090599 11.859375 19.085938 L 11.859375 19.083984 L 11.861328 19.083984 L 11.863281 19.083984 C 11.86753 19.085467 11.876066 19.087891 11.892578 19.087891 C 11.917497 19.087891 11.930312 19.085243 11.9375 19.085938 L 11.9375 19.087891 L 11.939453 19.087891 L 11.941406 19.087891 C 11.943533 19.088974 11.946511 19.091428 11.949219 19.09375 C 11.957343 19.100716 11.969386 19.113584 11.998047 19.138672 C 12.074477 19.205572 12.20977 19.378158 12.376953 19.617188 C 12.544136 19.856217 12.743241 20.161328 13.076172 20.453125 C 13.325867 20.671976 13.680222 20.869659 14.082031 20.955078 C 14.215968 20.983551 14.355935 21 14.498047 21 C 14.569116 21 14.639354 20.996088 14.708984 20.988281 C 14.778615 20.980474 14.848495 20.967868 14.916016 20.953125 C 15.321138 20.864666 15.681365 20.660094 15.925781 20.431641 C 16.25167 20.127036 16.432031 19.813344 16.582031 19.574219 C 16.732031 19.335094 16.850342 19.171271 16.908203 19.117188 C 16.926284 19.100288 16.933534 19.090598 16.935547 19.085938 L 16.935547 19.083984 L 16.9375 19.083984 L 16.939453 19.083984 C 16.943724 19.085463 16.952138 19.087891 16.96875 19.087891 C 16.993669 19.087891 17.006471 19.085236 17.013672 19.085938 L 17.013672 19.087891 L 17.015625 19.087891 L 17.017578 19.087891 C 17.019708 19.088976 17.022682 19.091427 17.025391 19.09375 C 17.033517 19.100718 17.045595 19.113607 17.074219 19.138672 C 17.150549 19.205512 17.285971 19.37811 17.453125 19.617188 C 17.620279 19.856265 17.819273 20.161272 18.152344 20.453125 C 18.402145 20.672019 18.757823 20.869672 19.160156 20.955078 C 19.294267 20.983547 19.434047 21 19.576172 21 C 20.25158 21 20.845895 20.622584 21.169922 20.257812 C 21.493949 19.893041 21.664272 19.550494 21.808594 19.337891 A 1 1 0 0 0 21.832031 19.228516 A 1 1 0 0 0 21.884766 19.208984 C 22.599619 17.713496 23 16.032336 23 14.261719 C 23 8.0681612 18.078429 3 12 3 z M 12 5 C 16.969571 5 21 9.1212758 21 14.261719 C 21 15.719798 20.668563 17.089129 20.087891 18.314453 C 19.909032 18.585879 19.757753 18.83521 19.673828 18.929688 C 19.64946 18.95712 19.636491 18.974593 19.628906 18.986328 C 19.621322 18.998064 19.618391 19.003928 19.617188 19.005859 L 19.615234 19.005859 L 19.613281 19.005859 L 19.611328 19.003906 C 19.610022 19.003411 19.607432 19.002463 19.605469 19.001953 C 19.599578 19.000425 19.590908 19 19.576172 19 C 19.551422 19 19.538471 19.002656 19.53125 19.001953 L 19.53125 19 L 19.529297 19 L 19.527344 19 C 19.526271 18.999457 19.524603 18.998875 19.523438 18.998047 C 19.51994 18.995563 19.515996 18.990295 19.509766 18.984375 C 19.501459 18.976482 19.48977 18.965926 19.470703 18.949219 C 19.394433 18.882389 19.259018 18.709876 19.091797 18.470703 C 18.924576 18.231529 18.725846 17.92466 18.392578 17.632812 C 18.059311 17.340965 17.5373 17.087891 16.96875 17.087891 C 16.4002 17.087891 15.868857 17.351645 15.542969 17.65625 C 15.21708 17.960855 15.036719 18.272594 14.886719 18.511719 C 14.736719 18.750844 14.616455 18.916621 14.558594 18.970703 C 14.551361 18.977463 14.546892 18.983783 14.542969 18.988281 C 14.537083 18.995028 14.534411 18.999157 14.533203 19.001953 L 14.53125 19.001953 L 14.53125 19.003906 L 14.529297 19.003906 L 14.527344 19.003906 C 14.523073 19.002428 14.514659 19 14.498047 19 C 14.473466 19 14.461963 19.002649 14.455078 19.001953 L 14.453125 19 L 14.451172 19 C 14.450154 18.999458 14.448379 18.998874 14.447266 18.998047 C 14.443925 18.995565 14.439714 18.99225 14.433594 18.986328 C 14.425433 18.978432 14.41361 18.965941 14.394531 18.949219 C 14.318211 18.882329 14.182942 18.709924 14.015625 18.470703 C 13.848308 18.231482 13.64973 17.924599 13.316406 17.632812 C 12.983082 17.341027 12.461128 17.087891 11.892578 17.087891 C 11.32408 17.087891 10.79254 17.351707 10.466797 17.65625 C 10.141054 17.960793 9.9605761 18.272647 9.8105469 18.511719 C 9.6605176 18.750791 9.5403809 18.916551 9.4824219 18.970703 C 9.4751774 18.977472 9.470727 18.983779 9.4667969 18.988281 C 9.4609017 18.995035 9.4582391 18.999157 9.4570312 19.001953 L 9.4550781 19.001953 L 9.4550781 19.003906 L 9.453125 19.003906 L 9.4511719 19.003906 C 9.4469089 19.002422 9.4384875 19 9.421875 19 C 9.3972922 19 9.385791 19.002649 9.3789062 19.001953 L 9.3769531 19 L 9.375 19 C 9.3739819 18.999458 9.3722073 18.998874 9.3710938 18.998047 C 9.3677532 18.995565 9.3635424 18.99225 9.3574219 18.986328 C 9.3492612 18.978432 9.3374392 18.965941 9.3183594 18.949219 C 9.2420399 18.882328 9.1067702 18.709924 8.9394531 18.470703 C 8.7721361 18.231482 8.5716053 17.924598 8.2382812 17.632812 C 7.904957 17.341027 7.383003 17.087891 6.8144531 17.087891 C 6.2459033 17.087891 5.7145606 17.351645 5.3886719 17.65625 C 5.0627832 17.960855 4.8824219 18.272594 4.7324219 18.511719 C 4.5824219 18.750844 4.4641113 18.916621 4.40625 18.970703 C 4.3990173 18.977463 4.3945487 18.983783 4.390625 18.988281 C 4.3886631 18.99053 4.3860847 18.992381 4.3847656 18.994141 C 4.3821275 18.99766 4.3816642 19.000089 4.3808594 19.001953 L 4.3789062 19.001953 L 4.3789062 19.003906 L 4.3769531 19.003906 L 4.375 19.003906 C 4.3707293 19.002428 4.3623157 19 4.3457031 19 C 4.298587 19 4.2673958 18.951085 4.2441406 18.929688 C 3.4356478 17.506601 2.9963568 15.901864 3 14.263672 A 1.0001 1.0001 0 0 0 3 14.261719 C 3 9.1192546 7.0314088 5 12 5 z M 11.5 6 C 8.4017203 6 6 8.7455193 6 11.769531 C 6 13.189981 6.3935975 14.537735 7.3457031 15.513672 C 8.2978088 16.489609 9.7325194 17 11.5 17 C 13.267481 17 14.702191 16.489609 15.654297 15.513672 C 16.606403 14.537735 17 13.189981 17 11.769531 C 17 8.7450054 14.598765 6 11.5 6 z M 11.5 8 C 13.373235 8 15 9.8260575 15 11.769531 C 15 12.832081 14.728801 13.598374 14.222656 14.117188 C 13.716512 14.636 12.899519 15 11.5 15 C 10.100481 15 9.283488 14.636001 8.7773438 14.117188 C 8.2711993 13.598373 8 12.832081 8 11.769531 C 8 11.428771 8.0497915 11.092036 8.1425781 10.767578 C 8.224173 10.974826 8.3427523 11.172461 8.5019531 11.351562 C 8.8518924 11.745243 9.4166667 12 10 12 C 10.583333 12 11.148108 11.745244 11.498047 11.351562 C 11.847986 10.95788 12 10.472222 12 10 C 12 9.5277779 11.847986 9.0421194 11.498047 8.6484375 C 11.289042 8.4133062 11.004054 8.2285245 10.683594 8.1171875 C 10.947458 8.0414877 11.220691 8 11.5 8 z " fill="currentColor"/>
</svg>
