<svg xmlns="http://www.w3.org/2000/svg" width="1em" height="1em" viewBox="0 0 24 24" fill="currentColor">
  <path d="M 12 2 C 6.4889982 2 2 6.4889941 2 12 C 2 17.511006 6.4889982 22 12 22 C 17.511002 22 22 17.511006 22 12 C 22 6.4889941 17.511002 2 12 2 z M 12 4 C 16.430123 4 20 7.5698737 20 12 C 20 16.430126 16.430123 20 12 20 C 7.5698765 20 4 16.430126 4 12 C 4 7.5698737 7.5698765 4 12 4 z M 9 7 C 8.5277779 7 8.0421194 7.1520138 7.6484375 7.5019531 C 7.2547556 7.8518924 7 8.4166667 7 9 C 7 9.5833333 7.2547556 10.148108 7.6484375 10.498047 C 8.0421194 10.847986 8.5277779 11 9 11 C 9.4722221 11 9.9578801 10.847986 10.351562 10.498047 C 10.745243 10.148108 11 9.5833333 11 9 C 11 8.4166667 10.745244 7.8518924 10.351562 7.5019531 C 9.9578801 7.1520138 9.4722221 7 9 7 z M 15 7 C 14.527778 7 14.042119 7.1520138 13.648438 7.5019531 C 13.254755 7.8518924 13 8.4166667 13 9 C 13 9.5833333 13.254756 10.148108 13.648438 10.498047 C 14.042118 10.847986 14.527778 11 15 11 C 15.472222 11 15.957881 10.847986 16.351562 10.498047 C 16.745244 10.148108 17 9.5833333 17 9 C 17 8.4166667 16.745244 7.8518924 16.351562 7.5019531 C 15.957881 7.1520138 15.472222 7 15 7 z M 9 13 C 8.5277779 13 8.0421194 13.152014 7.6484375 13.501953 C 7.2547556 13.851892 7 14.416667 7 15 C 7 15.583333 7.2547556 16.148108 7.6484375 16.498047 C 8.0421194 16.847986 8.5277779 17 9 17 C 9.4722221 17 9.9578801 16.847986 10.351562 16.498047 C 10.745243 16.148108 11 15.583333 11 15 C 11 14.416667 10.745244 13.851892 10.351562 13.501953 C 9.9578801 13.152014 9.4722221 13 9 13 z M 15 13 C 14.527778 13 14.042119 13.152014 13.648438 13.501953 C 13.254755 13.851892 13 14.416667 13 15 C 13 15.583333 13.254756 16.148108 13.648438 16.498047 C 14.042118 16.847986 14.527778 17 15 17 C 15.472222 17 15.957881 16.847986 16.351562 16.498047 C 16.745244 16.148108 17 15.583333 17 15 C 17 14.416667 16.745244 13.851892 16.351562 13.501953 C 15.957881 13.152014 15.472222 13 15 13 z " fill="currentColor"/>
</svg>
