<svg xmlns="http://www.w3.org/2000/svg" width="1em" height="1em" viewBox="0 0 24 24" fill="currentColor">
  <path d="M 12 1 C 11.527778 1 11.042119 1.1520138 10.648438 1.5019531 C 10.254755 1.8518924 10 2.4166667 10 3 C 10 3.0236197 10.001125 3.0467667 10.001953 3.0703125 L 4.9511719 6.2265625 C 4.6500126 6.070531 4.3221118 6 4 6 C 3.5277779 6 3.0421194 6.1520138 2.6484375 6.5019531 C 2.2547556 6.8518924 2 7.4166667 2 8 C 2 8.5833333 2.2547556 9.1481076 2.6484375 9.4980469 C 2.7591341 9.5964438 2.8771028 9.6799267 3 9.7480469 L 3 14.251953 C 2.8771028 14.320073 2.7591341 14.403556 2.6484375 14.501953 C 2.2547556 14.851892 2 15.416667 2 16 C 2 16.583333 2.2547556 17.148108 2.6484375 17.498047 C 3.0421194 17.847986 3.5277779 18 4 18 C 4.3221119 18 4.6500126 17.929469 4.9511719 17.773438 L 10.001953 20.929688 C 10.001125 20.953233 10 20.97638 10 21 C 10 21.583333 10.254756 22.148108 10.648438 22.498047 C 11.042118 22.847986 11.527778 23 12 23 C 12.472222 23 12.95788 22.847986 13.351562 22.498047 C 13.745243 22.148108 14 21.583333 14 21 C 14 20.97638 13.998875 20.953233 13.998047 20.929688 L 19.048828 17.773438 C 19.349988 17.929469 19.677888 18 20 18 C 20.472222 18 20.957881 17.847986 21.351562 17.498047 C 21.745244 17.148108 22 16.583333 22 16 C 22 15.416667 21.745244 14.851892 21.351562 14.501953 C 21.240866 14.403556 21.122897 14.320073 21 14.251953 L 21 9.7480469 C 21.122897 9.6799267 21.240866 9.5964438 21.351562 9.4980469 C 21.745244 9.1481076 22 8.5833333 22 8 C 22 7.4166667 21.745244 6.8518924 21.351562 6.5019531 C 20.957881 6.1520138 20.472222 6 20 6 C 19.677888 6 19.349988 6.0705311 19.048828 6.2265625 L 13.998047 3.0703125 C 13.998875 3.0467667 14 3.0236197 14 3 C 14 2.4166667 13.745244 1.8518924 13.351562 1.5019531 C 12.95788 1.1520138 12.472222 1 12 1 z M 9.8828125 5.5019531 L 5 13.314453 L 5 9.7480469 C 5.1228972 9.6799267 5.2408659 9.5964438 5.3515625 9.4980469 C 5.7452444 9.1481076 6 8.5833333 6 8 C 6 7.9762318 5.9988849 7.9533808 5.9980469 7.9296875 L 9.8828125 5.5019531 z M 14.119141 5.5039062 L 18.001953 7.9296875 L 18.001953 7.9316406 C 18.001197 7.9541494 18 7.9774242 18 8 C 18 8.5833333 18.254756 9.1481076 18.648438 9.4980469 C 18.759134 9.5964439 18.877103 9.6799267 19 9.7480469 L 19 13.314453 L 14.119141 5.5039062 z M 12 5.8847656 L 17.697266 15 L 6.3027344 15 L 12 5.8847656 z M 7.4882812 17 L 16.511719 17 L 12.951172 19.226562 C 12.650304 19.070917 12.321731 19 12 19 C 11.678269 19 11.349695 19.070917 11.048828 19.226562 L 7.4882812 17 z " fill="currentColor"/>
</svg>
