<svg xmlns="http://www.w3.org/2000/svg" width="1em" height="1em" viewBox="0 0 24 24" fill="currentColor">
  <path d="M 5 3 A 1 1 0 0 0 4 4 A 1 1 0 0 0 5 5 L 19 5 A 1 1 0 0 0 20 4 A 1 1 0 0 0 19 3 L 5 3 z M 8 7 C 6.3549904 7 5 8.3549904 5 10 L 5 12 C 5 13.64501 6.3549904 15 8 15 L 14.611328 15 L 13.279297 19 L 9.7207031 19 L 8.9492188 16.683594 A 1 1 0 0 0 7.6835938 16.050781 A 1 1 0 0 0 7.0507812 17.316406 L 7.6113281 19 L 4 19 A 1 1 0 0 0 3 20 A 1 1 0 0 0 4 21 L 8.9609375 21 L 9.0371094 21 L 20 21 A 1 1 0 0 0 21 20 A 1 1 0 0 0 20 19 L 15.388672 19 L 16.753906 14.902344 C 18.039472 14.564217 19 13.385112 19 12 L 19 10 C 19 8.3549904 17.64501 7 16 7 L 8 7 z M 8 9 L 16 9 C 16.564129 9 17 9.4358706 17 10 L 17 12 C 17 12.555057 16.578264 12.986285 16.027344 13 A 1 1 0 0 0 16 13 L 8 13 C 7.4358706 13 7 12.564129 7 12 L 7 10 C 7 9.4358706 7.4358706 9 8 9 z " fill="currentColor"/>
</svg>
