<svg xmlns="http://www.w3.org/2000/svg" width="1em" height="1em" viewBox="0 0 24 24" fill="currentColor">
  <path d="M 8.0371094 3 C 7.326415 3 6.7027427 3.37107 6.2597656 3.8378906 C 5.8167885 4.3047112 5.4871619 4.8816967 5.1972656 5.5429688 C 4.617473 6.8655129 4.2055914 8.5460433 3.8847656 10.341797 C 3.2431141 13.933304 3 17.941932 3 20 A 1 1 0 0 0 4 21 A 1 1 0 0 0 5 20 C 5 18.106068 5.2424171 14.113852 5.8535156 10.693359 C 6.1590649 8.9831133 6.5646208 7.4056591 7.0292969 6.3457031 C 7.2616349 5.8157252 7.5120904 5.4203825 7.7089844 5.2128906 C 7.9058784 5.0053987 7.9815537 5 8.0371094 5 C 8.3096433 5 8.6428283 5.2007225 9.0742188 5.9882812 C 9.505609 6.7758401 9.8971402 8.0165033 10.189453 9.4511719 C 10.774079 12.320509 11 15.974044 11 18.755859 A 1.0001 1.0001 0 0 0 13 18.755859 C 13 15.973691 13.224718 12.320372 13.808594 9.4511719 C 14.100532 8.0165717 14.492323 6.7756207 14.923828 5.9882812 C 15.355334 5.2009419 15.687892 5 15.962891 5 C 16.020071 5 16.095797 5.00737 16.292969 5.2148438 C 16.49014 5.4223181 16.740226 5.8158487 16.972656 6.3457031 C 17.437516 7.405412 17.843328 8.983187 18.148438 10.693359 C 18.758656 14.113705 19 18.105478 19 20 A 1 1 0 0 0 20 21 A 1 1 0 0 0 21 20 C 21 17.942522 20.757969 13.933451 20.117188 10.341797 C 19.796798 8.5459695 19.384953 6.8657598 18.804688 5.5429688 C 18.514556 4.8815732 18.185844 4.3027757 17.742188 3.8359375 C 17.298531 3.3690993 16.673714 3 15.962891 3 C 14.701889 3 13.769291 3.9337144 13.169922 5.0273438 C 12.638362 5.9972456 12.298656 7.2604191 12 8.5976562 C 11.701031 7.2602347 11.359374 5.997208 10.828125 5.0273438 C 10.229203 3.9339339 9.2975755 3 8.0371094 3 z " fill="currentColor"/>
</svg>
