<svg xmlns="http://www.w3.org/2000/svg" width="1em" height="1em" viewBox="0 0 24 24" fill="currentColor">
  <path d="M 12 2 C 6.4889982 2 2 6.4889941 2 12 C 2 17.511006 6.4889982 22 12 22 C 17.511002 22 22 17.511006 22 12 C 22 6.4889941 17.511002 2 12 2 z M 12 4 C 16.430123 4 20 7.5698737 20 12 C 20 16.430126 16.430123 20 12 20 C 7.9086439 20 4.5501342 16.955221 4.0605469 13 L 8 13 L 8 14 C 8 15.092725 8.9072751 16 10 16 L 14 16 C 15.092725 16 16 15.092725 16 14 L 16 10 C 16 8.9072751 15.092725 8 14 8 L 10 8 C 8.9072751 8 8 8.9072751 8 10 L 8 11 L 4.0605469 11 C 4.5501342 7.0447789 7.9086438 4 12 4 z M 10 10 L 14 10 L 14 14 L 10 14 L 10 12 L 10 10 z " fill="currentColor"/>
</svg>
