<svg xmlns="http://www.w3.org/2000/svg" width="1em" height="1em" viewBox="0 0 24 24" fill="currentColor">
  <path d="M 12 2 C 9.879 2 8.2684561 1.9938509 6.9296875 2.1738281 C 5.5909189 2.3538054 4.4600702 2.762586 3.6113281 3.6113281 C 2.7626754 4.4599808 2.35381 5.5910214 2.1738281 6.9296875 C 1.9938463 8.2683536 2 9.8785 2 12 C 2 14.121 1.99385 15.731544 2.1738281 17.070312 C 2.3538054 18.409081 2.762586 19.53993 3.6113281 20.388672 C 4.4600702 21.237414 5.5909189 21.646195 6.9296875 21.826172 C 8.2684561 22.006149 9.879 22 12 22 C 14.121 22 15.731544 22.0061 17.070312 21.826172 C 18.409081 21.646195 19.53993 21.237414 20.388672 20.388672 C 21.237414 19.53993 21.646195 18.409081 21.826172 17.070312 C 22.006149 15.731544 22 14.121 22 12 C 22 9.879 22.006149 8.2684561 21.826172 6.9296875 C 21.646195 5.5909189 21.237414 4.4600702 20.388672 3.6113281 C 19.53993 2.762586 18.409081 2.3538054 17.070312 2.1738281 C 15.731544 1.9938509 14.121 2 12 2 z M 12 4 C 14.121 4 15.692457 4.00673 16.804688 4.15625 C 17.916919 4.3057727 18.505351 4.5561327 18.974609 5.0253906 C 19.443867 5.4946485 19.694227 6.0830811 19.84375 7.1953125 C 19.993273 8.3075439 20 9.879 20 12 C 20 14.121 19.9933 15.692457 19.84375 16.804688 C 19.694227 17.916919 19.443867 18.505351 18.974609 18.974609 C 18.505351 19.443867 17.916919 19.694227 16.804688 19.84375 C 15.692456 19.993273 14.121 20 12 20 C 9.879 20 8.3075439 19.993273 7.1953125 19.84375 C 6.0830811 19.694227 5.4946485 19.443867 5.0253906 18.974609 C 4.5561327 18.505351 4.3057727 17.916919 4.15625 16.804688 C 4.0067273 15.692456 4 14.121 4 12 C 4 9.8785 4.0067318 8.3073964 4.15625 7.1953125 C 4.3057682 6.0832286 4.5560433 5.4947379 5.0253906 5.0253906 C 5.4946485 4.5561327 6.0830811 4.3057727 7.1953125 4.15625 C 8.3075439 4.0067273 9.879 4 12 4 z M 10.105469 7.2109375 C 9.6787369 7.2109375 9.2638617 7.4511344 9.0332031 7.6992188 C 8.8025445 7.9473031 8.6712807 8.2004323 8.546875 8.4785156 C 8.2980636 9.0346823 8.0935182 9.7198361 7.8144531 10.623047 L 7.1269531 12.841797 L 6.3085938 15.494141 A 1 1 0 0 0 6.9667969 16.744141 A 1 1 0 0 0 8.21875 16.083984 L 8.8203125 14.136719 L 11.390625 14.136719 L 11.992188 16.085938 A 1 1 0 0 0 13.242188 16.746094 A 1 1 0 0 0 13.902344 15.494141 L 13.082031 12.841797 L 12.396484 10.623047 C 12.116994 9.7200774 11.910921 9.0346823 11.662109 8.4785156 C 11.537704 8.2004323 11.408628 7.9474084 11.177734 7.6992188 C 10.94684 7.4510292 10.531843 7.2109375 10.105469 7.2109375 z M 15.789062 7.2109375 A 1 1 0 0 0 14.789062 8.2109375 L 14.789062 8.6835938 A 1 1 0 0 0 15.789062 9.6835938 A 1 1 0 0 0 16.789062 8.6835938 L 16.789062 8.2109375 A 1 1 0 0 0 15.789062 7.2109375 z M 15.789062 10.052734 A 1 1 0 0 0 14.789062 11.052734 L 14.789062 15.789062 A 1 1 0 0 0 15.789062 16.789062 A 1 1 0 0 0 16.789062 15.789062 L 16.789062 11.052734 A 1 1 0 0 0 15.789062 10.052734 z M 10.105469 10.087891 C 10.225762 10.438965 10.322101 10.684265 10.486328 11.214844 L 10.771484 12.136719 L 9.4394531 12.136719 L 9.7246094 11.214844 C 9.8884984 10.684407 9.9852545 10.438872 10.105469 10.087891 z " fill="currentColor"/>
</svg>
