<svg xmlns="http://www.w3.org/2000/svg" width="1em" height="1em" viewBox="0 0 24 24" fill="currentColor">
  <path d="M 7 2 A 1.0001 1.0001 0 0 0 6.4707031 2.1523438 L 2.4707031 4.6523438 A 1 1 0 0 0 2.4375 4.6757812 A 1.0001 1.0001 0 0 0 2.3828125 4.7148438 A 1 1 0 0 0 2.3300781 4.7617188 A 1.0001 1.0001 0 0 0 2.2890625 4.8007812 A 1 1 0 0 0 2.25 4.8417969 A 1.0001 1.0001 0 0 0 2.1894531 4.9179688 A 1 1 0 0 0 2.1875 4.9199219 A 1 1 0 0 0 2.1855469 4.9238281 A 1.0001 1.0001 0 0 0 2.125 5.0175781 A 1 1 0 0 0 2.1054688 5.0566406 A 1.0001 1.0001 0 0 0 2.0664062 5.1484375 A 1 1 0 0 0 2.0644531 5.1503906 A 1 1 0 0 0 2.0625 5.15625 A 1.0001 1.0001 0 0 0 2.0273438 5.2734375 A 1 1 0 0 0 2.0273438 5.2753906 A 1 1 0 0 0 2.0253906 5.2832031 A 1.0001 1.0001 0 0 0 2.0078125 5.3925781 A 1 1 0 0 0 2.0058594 5.4316406 A 1.0001 1.0001 0 0 0 2 5.5 L 2 17 A 1 1 0 0 0 2.3574219 17.357422 A 1 1 0 0 0 2.4707031 17.847656 L 10.470703 22.847656 A 1.0001 1.0001 0 0 0 10.486328 22.857422 A 1 1 0 0 0 10.572266 22.902344 A 1.0001 1.0001 0 0 0 10.613281 22.919922 A 1 1 0 0 0 10.691406 22.951172 A 1.0001 1.0001 0 0 0 10.732422 22.962891 A 1 1 0 0 0 10.8125 22.980469 A 1.0001 1.0001 0 0 0 10.871094 22.990234 A 1 1 0 0 0 10.919922 22.994141 A 1.0001 1.0001 0 0 0 10.992188 23 A 1 1 0 0 0 11 23 A 1.0001 1.0001 0 0 0 11.052734 22.996094 A 1 1 0 0 0 11.115234 22.994141 A 1.0001 1.0001 0 0 0 11.123047 22.992188 A 1 1 0 0 0 11.130859 22.992188 A 1.0001 1.0001 0 0 0 11.248047 22.96875 A 1 1 0 0 0 11.375 22.927734 A 1.0001 1.0001 0 0 0 11.496094 22.869141 L 18.496094 18.869141 A 1.0001 1.0001 0 0 0 19 18 L 19 14.433594 L 22.507812 12.361328 A 1.0001 1.0001 0 0 0 23 11.5 L 23 7.5 A 1.0001 1.0001 0 0 0 22.998047 7.4667969 A 1.0001 1.0001 0 0 0 22.998047 7.4648438 A 1 1 0 0 0 22.998047 7.4570312 A 1.0001 1.0001 0 0 0 22.988281 7.3476562 A 1 1 0 0 0 22.980469 7.3144531 A 1.0001 1.0001 0 0 0 22.955078 7.2109375 A 1.0001 1.0001 0 0 0 22.955078 7.2089844 A 1 1 0 0 0 22.951172 7.2011719 A 1.0001 1.0001 0 0 0 22.919922 7.109375 A 1 1 0 0 0 22.892578 7.0546875 A 1.0001 1.0001 0 0 0 22.855469 6.984375 A 1.0001 1.0001 0 0 0 22.847656 6.9707031 A 1 1 0 0 0 22.837891 6.9570312 A 1.0001 1.0001 0 0 0 22.78125 6.8769531 A 1.0001 1.0001 0 0 0 22.771484 6.8652344 A 1 1 0 0 0 22.751953 6.84375 A 1.0001 1.0001 0 0 0 22.703125 6.7929688 A 1 1 0 0 0 22.660156 6.7519531 A 1.0001 1.0001 0 0 0 22.59375 6.6992188 A 1.0001 1.0001 0 0 0 22.580078 6.6875 A 1 1 0 0 0 22.564453 6.6777344 A 1.0001 1.0001 0 0 0 22.529297 6.6523438 L 18.529297 4.1523438 A 1.0001 1.0001 0 0 0 17.470703 4.1523438 L 13.470703 6.6523438 A 1.0001 1.0001 0 0 0 13.449219 6.6679688 A 1 1 0 0 0 13.375 6.7207031 A 1.0001 1.0001 0 0 0 13.333984 6.7578125 A 1 1 0 0 0 13.275391 6.8125 A 1.0001 1.0001 0 0 0 13.246094 6.8457031 A 1 1 0 0 0 13.189453 6.9179688 A 1.0001 1.0001 0 0 0 13.166016 6.953125 A 1 1 0 0 0 13.117188 7.0351562 A 1.0001 1.0001 0 0 0 13.105469 7.0566406 A 1 1 0 0 0 13.021484 7.296875 A 1.0001 1.0001 0 0 0 13.021484 7.2988281 A 1.0001 1.0001 0 0 0 13.021484 7.3007812 A 1 1 0 0 0 13 7.5 L 13 10.917969 L 12 11.490234 L 12 5.5 A 1.0001 1.0001 0 0 0 11.998047 5.4648438 A 1 1 0 0 0 11.998047 5.4570312 A 1.0001 1.0001 0 0 0 11.988281 5.3476562 A 1 1 0 0 0 11.980469 5.3144531 A 1.0001 1.0001 0 0 0 11.955078 5.2089844 A 1 1 0 0 0 11.951172 5.2011719 A 1.0001 1.0001 0 0 0 11.919922 5.109375 A 1 1 0 0 0 11.892578 5.0546875 A 1.0001 1.0001 0 0 0 11.847656 4.9707031 A 1 1 0 0 0 11.835938 4.953125 A 1.0001 1.0001 0 0 0 11.789062 4.8867188 A 1 1 0 0 0 11.746094 4.8378906 A 1.0001 1.0001 0 0 0 11.695312 4.7832031 A 1 1 0 0 0 11.666016 4.7578125 A 1.0001 1.0001 0 0 0 11.619141 4.7167969 A 1 1 0 0 0 11.503906 4.6367188 L 7.5292969 2.1523438 A 1.0001 1.0001 0 0 0 7 2 z M 7 4.1796875 L 9.1132812 5.5 L 7 6.8222656 L 4.8867188 5.5 L 7 4.1796875 z M 18 6.1796875 L 20.113281 7.5 L 18 8.8222656 L 15.886719 7.5 L 18 6.1796875 z M 10 7.3027344 L 10 12.632812 L 8 13.775391 L 8 8.5527344 L 10 7.3027344 z M 4 7.3046875 L 6 8.5546875 L 6 15.5 A 1.0001 1.0001 0 0 0 6.0019531 15.537109 A 1 1 0 0 0 6.0078125 15.613281 A 1.0001 1.0001 0 0 0 6.0195312 15.691406 A 1 1 0 0 0 6.0292969 15.742188 A 1.0001 1.0001 0 0 0 6.0488281 15.804688 A 1 1 0 0 0 6.0703125 15.869141 A 1.0001 1.0001 0 0 0 6.0722656 15.871094 A 1 1 0 0 0 6.1132812 15.960938 A 1.0001 1.0001 0 0 0 6.1269531 15.986328 A 1 1 0 0 0 6.1308594 15.996094 A 1 1 0 0 0 6.1738281 16.060547 A 1.0001 1.0001 0 0 0 6.1972656 16.095703 A 1 1 0 0 0 6.3632812 16.269531 A 1.0001 1.0001 0 0 0 6.3691406 16.275391 A 1 1 0 0 0 6.46875 16.345703 A 1.0001 1.0001 0 0 0 6.4707031 16.347656 L 6.4804688 16.353516 A 1 1 0 0 0 6.5234375 16.380859 L 10 18.552734 L 10 20.197266 L 4 16.447266 L 4 7.3046875 z M 21 9.3027344 L 21 10.929688 L 19 12.111328 L 19 10.552734 L 21 9.3027344 z M 15 9.3046875 L 17 10.554688 L 17 12.197266 L 15 10.947266 L 15 9.3046875 z M 13.978516 12.664062 L 15.962891 13.90625 L 11.013672 16.830078 L 8.9492188 15.539062 L 13.978516 12.664062 z M 17 15.615234 L 17 17.419922 L 12 20.277344 L 12 18.570312 L 17 15.615234 z " fill="currentColor"/>
</svg>
