<svg xmlns="http://www.w3.org/2000/svg" width="1em" height="1em" viewBox="0 0 24 24" fill="currentColor">
  <path d="M 6 3 C 4.3549904 3 3 4.3549904 3 6 L 3 18 C 3 19.64501 4.3549904 21 6 21 L 12 21 A 1 1 0 0 0 13 20 A 1 1 0 0 0 12 19 L 6 19 C 5.4358706 19 5 18.564129 5 18 L 5 9 L 19 9 L 19 15 A 1 1 0 0 0 20 16 A 1 1 0 0 0 21 15 L 21 6 C 21 4.3549904 19.64501 3 18 3 L 6 3 z M 6 5 L 7 5 L 7 7 L 5 7 L 5 6 C 5 5.4358706 5.4358706 5 6 5 z M 9 5 L 18 5 C 18.564129 5 19 5.4358706 19 6 L 19 7 L 9 7 L 9 5 z M 16 18 A 1 1 0 0 0 15 19 A 1 1 0 0 0 16 20 L 22 20 A 1 1 0 0 0 23 19 A 1 1 0 0 0 22 18 L 16 18 z " fill="currentColor"/>
</svg>
