<svg xmlns="http://www.w3.org/2000/svg" width="1em" height="1em" viewBox="0 0 24 24" fill="currentColor">
  <path d="M 5 3 C 3.9072751 3 3 3.9072751 3 5 L 3 19 C 3 20.092725 3.9072751 21 5 21 L 19 21 C 20.092725 21 21 20.092725 21 19 L 21 5 C 21 3.9072751 20.092725 3 19 3 L 5 3 z M 5 5 L 7 5 L 7 7 L 5 7 L 5 5 z M 9 5 L 19 5 L 19 7 L 9 7 L 9 5 z M 5 9 L 19 9 L 19 19 L 5 19 L 5 9 z M 14 12 A 1 1 0 0 0 13.292969 12.292969 L 11 14.585938 L 10.207031 13.792969 A 1 1 0 0 0 8.7929688 13.792969 A 1 1 0 0 0 8.7929688 15.207031 L 10.292969 16.707031 A 1.0001 1.0001 0 0 0 11.707031 16.707031 L 14.707031 13.707031 A 1 1 0 0 0 14.707031 12.292969 A 1 1 0 0 0 14 12 z " fill="currentColor"/>
</svg>
