<svg xmlns="http://www.w3.org/2000/svg" width="1em" height="1em" viewBox="0 0 24 24" fill="currentColor">
  <path d="M 16.5 2 A 1 1 0 0 0 15.5 3 A 1 1 0 0 0 16.5 4 L 18.585938 4 L 15.292969 7.2929688 A 1 1 0 0 0 15.292969 8.7070312 A 1 1 0 0 0 16.707031 8.7070312 L 20 5.4140625 L 20 7.5 A 1 1 0 0 0 21 8.5 A 1 1 0 0 0 22 7.5 L 22 3 A 1 1 0 0 0 21.992188 2.8691406 A 1.0001 1.0001 0 0 0 21.923828 2.6171875 A 1 1 0 0 0 21.707031 2.2929688 A 1 1 0 0 0 21.382812 2.0761719 A 1.0001 1.0001 0 0 0 21.130859 2.0078125 A 1.0001 1.0001 0 0 0 21 2 L 16.5 2 z M 6 3 C 4.3549904 3 3 4.3549904 3 6 L 3 18 C 3 19.64501 4.3549904 21 6 21 L 18 21 C 19.64501 21 21 19.64501 21 18 L 21 11.5 A 1 1 0 0 0 20 10.5 A 1 1 0 0 0 19 11.5 L 19 18 C 19 18.564129 18.564129 19 18 19 L 6 19 C 5.4358706 19 5 18.564129 5 18 L 5 9 L 12 9 A 1 1 0 0 0 13 8 A 1 1 0 0 0 12 7 L 9 7 L 9 5 L 12.5 5 A 1 1 0 0 0 13.5 4 A 1 1 0 0 0 12.5 3 L 6 3 z M 6 5 L 7 5 L 7 7 L 5 7 L 5 6 C 5 5.4358706 5.4358706 5 6 5 z " fill="currentColor"/>
</svg>
