<svg xmlns="http://www.w3.org/2000/svg" width="1em" height="1em" viewBox="0 0 24 24" fill="currentColor">
  <path d="M 12.400391 2 C 10.587633 1.9992713 8.9372639 2.8599284 7.7421875 4.1992188 C 4.9546286 4.1244098 2.8109947 5.9034372 2.0839844 8.1367188 C 1.3827164 10.290923 2.0189075 12.865074 4.1210938 14.466797 C 3.7611804 16.087162 4.523766 17.702645 6 18.457031 L 6 21 A 1.0001 1.0001 0 0 0 7.5136719 21.857422 L 11.035156 19.744141 C 13.135001 20.312156 15.331817 19.538206 16.609375 17.777344 C 19.817129 17.818034 22.635278 15.500562 23.001953 12.248047 C 23.370144 8.9820857 21.12193 6.0800498 17.964844 5.421875 C 16.877241 3.3531461 14.764232 2.0014688 12.400391 2 z M 12.398438 4 L 12.400391 4 C 14.13829 4.00185 15.702899 5.0349582 16.386719 6.6328125 A 1.0001 1.0001 0 0 0 17.193359 7.2324219 C 19.583433 7.5018689 21.285072 9.6353184 21.015625 12.025391 C 20.746178 14.415462 18.61273 16.11515 16.222656 15.845703 A 1.0001 1.0001 0 0 0 15.240234 16.347656 C 14.434923 17.772132 12.720148 18.377121 11.199219 17.773438 A 1.0001 1.0001 0 0 0 10.316406 17.84375 L 8 19.234375 L 8 17.865234 A 1.0001 1.0001 0 0 0 7.2246094 16.892578 C 6.156154 16.645535 5.6211328 15.518055 6.1035156 14.533203 A 1.0001 1.0001 0 0 0 5.703125 13.226562 C 3.8471385 12.158853 3.4660959 10.347946 3.984375 8.7558594 C 4.5026541 7.1637729 5.8770055 5.9248019 8.0058594 6.1542969 A 1.0001 1.0001 0 0 0 8.9160156 5.7539062 C 9.7330443 4.6495367 11.024776 4.0000779 12.398438 4 z M 7 9 A 1 1 0 0 0 6 10 A 1 1 0 0 0 7 11 L 17 11 A 1 1 0 0 0 18 10 A 1 1 0 0 0 17 9 L 7 9 z M 9 13 A 1 1 0 0 0 8 14 A 1 1 0 0 0 9 15 L 14 15 A 1 1 0 0 0 15 14 A 1 1 0 0 0 14 13 L 9 13 z " fill="currentColor"/>
</svg>
