<svg xmlns="http://www.w3.org/2000/svg" width="1em" height="1em" viewBox="0 0 24 24" fill="currentColor">
  <path d="M 7 2 C 6.2045912 2 5.4412111 2.3166015 4.8789062 2.8789062 C 4.3166015 3.4412109 4 4.2045912 4 5 L 4 20 L 3 20 A 1 1 0 0 0 2 21 A 1 1 0 0 0 3 22 L 12 22 A 1 1 0 0 0 13 21 A 1 1 0 0 0 12 20 L 6 20 L 6 5 C 6 4.7354088 6.1052735 4.480664 6.2929688 4.2929688 C 6.480664 4.1052735 6.7354088 4 7 4 L 17 4 C 17.264591 4 17.519336 4.1052735 17.707031 4.2929688 C 17.894727 4.480664 18 4.7354088 18 5 L 18 12 A 1 1 0 0 0 19 13 A 1 1 0 0 0 20 12 L 20 5 C 20 4.2045912 19.683398 3.441211 19.121094 2.8789062 C 18.558789 2.3166014 17.795409 2 17 2 L 7 2 z M 9 7 A 1 1 0 0 0 8 8 A 1 1 0 0 0 9 9 L 10 9 A 1 1 0 0 0 11 8 A 1 1 0 0 0 10 7 L 9 7 z M 14 7 A 1 1 0 0 0 13 8 A 1 1 0 0 0 14 9 L 15 9 A 1 1 0 0 0 16 8 A 1 1 0 0 0 15 7 L 14 7 z M 9 11 A 1 1 0 0 0 8 12 A 1 1 0 0 0 9 13 L 10 13 A 1 1 0 0 0 11 12 A 1 1 0 0 0 10 11 L 9 11 z M 14 11 A 1 1 0 0 0 13 12 A 1 1 0 0 0 14 13 L 15 13 A 1 1 0 0 0 16 12 A 1 1 0 0 0 15 11 L 14 11 z M 9 15 A 1 1 0 0 0 8 16 A 1 1 0 0 0 9 17 L 10 17 A 1 1 0 0 0 11 16 A 1 1 0 0 0 10 15 L 9 15 z M 19 15 A 1 1 0 0 0 18 16 L 18 18 L 16 18 A 1 1 0 0 0 15 19 A 1 1 0 0 0 16 20 L 18 20 L 18 22 A 1 1 0 0 0 19 23 A 1 1 0 0 0 20 22 L 20 20 L 22 20 A 1 1 0 0 0 23 19 A 1 1 0 0 0 22 18 L 20 18 L 20 16 A 1 1 0 0 0 19 15 z " fill="currentColor"/>
</svg>
