<svg xmlns="http://www.w3.org/2000/svg" width="1em" height="1em" viewBox="0 0 24 24" fill="currentColor">
  <path d="M 7 2 A 1 1 0 0 0 6 3 L 6 3.9570312 A 1 1 0 0 0 6 4.0449219 L 6 8 L 5 8 A 1 1 0 0 0 4 9 A 1 1 0 0 0 5 10 L 6 10 L 6 17 L 6 20 L 3 20 A 1 1 0 0 0 2 21 A 1 1 0 0 0 3 22 L 21 22 A 1 1 0 0 0 22 21 A 1 1 0 0 0 21 20 L 17.033203 20 C 17.669184 18.513465 17.999799 16.907896 18 15.279297 C 18 13.390751 17.558638 11.601761 16.771484 10 L 17 10 A 1 1 0 0 0 18 9 A 1 1 0 0 0 17 8 L 15.539062 8 C 13.736515 5.6171138 11.074548 3.8700128 8 3.1738281 L 8 3 A 1 1 0 0 0 7 2 z M 8 5.234375 C 9.8862302 5.7396787 11.562214 6.7083361 12.886719 8 L 8 8 L 8 5.234375 z M 8 10 L 14.494141 10 C 15.452573 11.549843 16 13.354651 16 15.279297 C 15.999796 16.928886 15.592446 18.55065 14.816406 20 L 8 20 L 8 18 L 11 18 A 1 1 0 0 0 12 17 A 1 1 0 0 0 11 16 L 8 16 L 8 14 L 11 14 A 1 1 0 0 0 12 13 A 1 1 0 0 0 11 12 L 8 12 L 8 10 z " fill="currentColor"/>
</svg>
