<svg xmlns="http://www.w3.org/2000/svg" width="1em" height="1em" viewBox="0 0 24 24" fill="currentColor">
  <path d="M 7 2 C 6.2045912 2 5.4412111 2.3166015 4.8789062 2.8789062 C 4.3166015 3.4412109 4 4.2045912 4 5 L 4 20 L 3 20 A 1 1 0 0 0 2 21 A 1 1 0 0 0 3 22 L 12 22 A 1 1 0 0 0 13 21 A 1 1 0 0 0 12 20 L 6 20 L 6 5 C 6 4.7354088 6.1052735 4.480664 6.2929688 4.2929688 C 6.480664 4.1052735 6.7354088 4 7 4 L 17 4 C 17.264591 4 17.519336 4.1052735 17.707031 4.2929688 C 17.894727 4.480664 18 4.7354088 18 5 L 18 12 A 1 1 0 0 0 19 13 A 1 1 0 0 0 20 12 L 20 5 C 20 4.2045912 19.683398 3.441211 19.121094 2.8789062 C 18.558789 2.3166014 17.795409 2 17 2 L 7 2 z M 9 7 A 1 1 0 0 0 8 8 A 1 1 0 0 0 9 9 L 10 9 A 1 1 0 0 0 11 8 A 1 1 0 0 0 10 7 L 9 7 z M 14 7 A 1 1 0 0 0 13 8 A 1 1 0 0 0 14 9 L 15 9 A 1 1 0 0 0 16 8 A 1 1 0 0 0 15 7 L 14 7 z M 9 11 A 1 1 0 0 0 8 12 A 1 1 0 0 0 9 13 L 10 13 A 1 1 0 0 0 11 12 A 1 1 0 0 0 10 11 L 9 11 z M 14 11 A 1 1 0 0 0 13 12 A 1 1 0 0 0 14 13 L 15 13 A 1 1 0 0 0 16 12 A 1 1 0 0 0 15 11 L 14 11 z M 18 13.5 A 1 1 0 0 0 17 14.5 L 17 15.171875 C 16.654522 15.294132 16.33248 15.479806 16.050781 15.720703 L 15.46875 15.384766 A 1 1 0 0 0 14.103516 15.75 A 1 1 0 0 0 14.470703 17.115234 L 15.050781 17.451172 C 15.017166 17.631241 15 17.814287 15 18 C 15 18.185713 15.017166 18.368759 15.050781 18.548828 L 14.470703 18.884766 A 1 1 0 0 0 14.103516 20.25 A 1 1 0 0 0 15.46875 20.615234 L 16.050781 20.279297 C 16.33248 20.520194 16.654522 20.705868 17 20.828125 L 17 21.5 A 1 1 0 0 0 18 22.5 A 1 1 0 0 0 19 21.5 L 19 20.828125 C 19.3458 20.705754 19.669287 20.520522 19.951172 20.279297 L 20.533203 20.615234 A 1 1 0 0 0 21.898438 20.25 A 1 1 0 0 0 21.533203 18.884766 L 20.949219 18.548828 C 20.982641 18.369262 21 18.18517 21 18 C 21 17.814637 20.98271 17.630917 20.949219 17.451172 L 21.53125 17.115234 A 1 1 0 0 0 21.898438 15.75 A 1 1 0 0 0 21.291016 15.283203 A 1 1 0 0 0 20.53125 15.384766 L 19.949219 15.720703 C 19.667437 15.479659 19.345622 15.294183 19 15.171875 L 19 14.5 A 1 1 0 0 0 18 13.5 z M 9 15 A 1 1 0 0 0 8 16 A 1 1 0 0 0 9 17 L 10 17 A 1 1 0 0 0 11 16 A 1 1 0 0 0 10 15 L 9 15 z M 18 17 C 18.264591 17 18.519336 17.105273 18.707031 17.292969 C 18.894727 17.480664 19 17.735409 19 18 C 19 18.264591 18.894727 18.519336 18.707031 18.707031 C 18.519338 18.894726 18.264589 18.999998 18 19 C 17.735409 19 17.480664 18.894727 17.292969 18.707031 C 17.242045 18.656108 17.196536 18.600667 17.158203 18.541016 A 1 1 0 0 0 17.136719 18.5 A 1 1 0 0 0 17.111328 18.458984 C 17.038619 18.318239 17 18.160887 17 18 C 17 17.839113 17.038619 17.681761 17.111328 17.541016 A 1 1 0 0 0 17.136719 17.5 A 1 1 0 0 0 17.158203 17.458984 C 17.196536 17.399333 17.242045 17.343892 17.292969 17.292969 C 17.480664 17.105273 17.735409 17 18 17 z " fill="currentColor"/>
</svg>
