<svg xmlns="http://www.w3.org/2000/svg" width="1em" height="1em" viewBox="0 0 24 24" fill="currentColor">
  <path d="M 12 1 C 10.706048 1 9.656141 1.8190492 9.2285156 2.8515625 C 8.8008903 3.8840758 8.9640101 5.2061977 9.8789062 6.1210938 C 10.210229 6.4524169 10.594959 6.6843878 11 6.8261719 L 11 7.0761719 C 9.8712341 7.2482669 8.7826349 7.7160002 7.8984375 8.5019531 C 6.7547556 9.5185588 6 11.083334 6 13 L 6 15 L 5 15 L 5 11.912109 C 5.5775153 11.702166 6 11.14204 6 10.5 C 6 10.014972 5.88588 9.5373849 5.6699219 9.1054688 L 4.8945312 7.5527344 A 1.0001 1.0001 0 0 0 4 7 A 1.0001 1.0001 0 0 0 3.1054688 7.5527344 L 2.3300781 9.1054688 C 2.1134568 9.5382578 2.0002267 10.016026 2 10.5 C 2 11.14204 2.4224847 11.702166 3 11.912109 L 3 20 A 1 1 0 0 0 2 21 A 1 1 0 0 0 3 22 L 10 22 A 1.0001 1.0001 0 0 0 11 21 L 11 19 C 11 18.583334 11.120244 18.398107 11.289062 18.248047 C 11.45788 18.097986 11.722222 18 12 18 C 12.277778 18 12.542119 18.09799 12.710938 18.248047 C 12.879755 18.398107 13 18.583334 13 19 L 13 21 A 1.0001 1.0001 0 0 0 14 22 L 21 22 A 1 1 0 0 0 22 21 A 1 1 0 0 0 21 20 L 21 11.890625 C 21.295341 11.753932 21.528505 11.501995 21.703125 11.208984 A 1 1 0 0 0 22 10.5 C 22 10.014972 21.88588 9.5373849 21.669922 9.1054688 L 20.894531 7.5527344 A 1.0001 1.0001 0 0 0 20 7 A 1.0001 1.0001 0 0 0 19.105469 7.5527344 L 18.330078 9.1054688 C 18.113457 9.5382578 18.000227 10.016026 18 10.5 C 18 11.14204 18.422485 11.702166 19 11.912109 L 19 15 L 18 15 L 18 13 C 18 11.083334 17.245244 9.5185588 16.101562 8.5019531 C 15.217366 7.7160002 14.128766 7.2482669 13 7.0761719 L 13 6.828125 C 13.050079 6.8105533 13.099582 6.7917184 13.148438 6.7714844 C 14.18095 6.343859 15 5.2939517 15 4 A 1 1 0 0 0 14 3 A 1 1 0 0 0 13 4 C 13 4.4879819 12.742404 4.7748999 12.382812 4.9238281 C 12.286475 4.9637271 12.1886 4.9913367 12.089844 5.0039062 A 1 1 0 0 0 12 5 A 1 1 0 0 0 11.880859 5.0078125 C 11.679913 4.9871933 11.480676 4.8947388 11.292969 4.7070312 C 10.948 4.3620627 10.927244 3.9767789 11.076172 3.6171875 C 11.2251 3.2575961 11.512018 3 12 3 A 1 1 0 0 0 13 2 A 1 1 0 0 0 12 1 z M 12 9 C 13.027778 9 14.042119 9.3479866 14.773438 9.9980469 C 15.316845 10.481076 15.729855 11.121552 15.90625 12 L 8.09375 12 C 8.2701453 11.121552 8.6831549 10.481076 9.2265625 9.9980469 C 9.9578792 9.3479878 10.972224 9.0000013 12 9 z M 8 14 L 16 14 L 16 16 A 1.0001 1.0001 0 0 0 17 17 L 19 17 L 19 20 L 15 20 L 15 19 C 15 18.083334 14.620244 17.268559 14.039062 16.751953 C 13.45788 16.235347 12.722222 16 12 16 C 11.277778 16 10.542119 16.235347 9.9609375 16.751953 C 9.3797556 17.268559 9 18.083334 9 19 L 9 20 L 5 20 L 5 17 L 7 17 A 1.0001 1.0001 0 0 0 8 16 L 8 14 z " fill="currentColor"/>
</svg>
