<svg xmlns="http://www.w3.org/2000/svg" width="1em" height="1em" viewBox="0 0 24 24" fill="currentColor">
  <path d="M 12.056641 2.0019531 A 1.0001 1.0001 0 0 0 11 3 L 11 4 L 11 6.3457031 C 10.993881 6.3568205 10.986171 6.3699134 10.976562 6.3828125 C 10.892976 6.4950235 10.725819 6.6794755 10.5 6.8847656 C 10.048362 7.2953458 9.3689819 7.8011794 8.6015625 8.2734375 C 7.0667238 9.2179537 5.1111111 10 4 10 A 1 1 0 0 0 3 11 A 1 1 0 0 0 4 12 L 4.9296875 12 C 4.7680418 14.1533 4.5450034 15.92743 4.2695312 17.304688 C 3.9499889 18.90228 3.5231022 19.968654 3.1992188 20.400391 A 1.0001 1.0001 0 0 0 4 22 L 8 22 C 8.4583333 22 8.7470888 21.828445 9.015625 21.648438 C 9.2841612 21.468431 9.5301652 21.246101 9.7792969 20.978516 C 10.27756 20.443344 10.783563 19.726731 11.255859 18.849609 C 11.520022 18.359022 11.77284 17.817885 12 17.234375 C 12.22716 17.817885 12.479978 18.359022 12.744141 18.849609 C 13.216437 19.726731 13.72244 20.443344 14.220703 20.978516 C 14.469835 21.246101 14.715839 21.46843 14.984375 21.648438 C 15.252911 21.828446 15.541667 22 16 22 L 20 22 A 1.0001 1.0001 0 0 0 20.800781 20.400391 C 20.476898 19.968654 20.050011 18.90228 19.730469 17.304688 C 19.454996 15.92743 19.231958 14.1533 19.070312 12 L 20 12 A 1 1 0 0 0 21 11 A 1 1 0 0 0 20 10 C 18.888889 10 16.933276 9.2179537 15.398438 8.2734375 C 14.631017 7.8011794 13.951638 7.2953458 13.5 6.8847656 C 13.274181 6.6794755 13.107022 6.4950235 13.023438 6.3828125 C 13.013829 6.3699129 13.00612 6.3568209 13 6.3457031 L 13 5 L 14 5 A 1.0001 1.0001 0 0 0 14.447266 3.1054688 L 12.447266 2.1054688 A 1.0001 1.0001 0 0 0 12.056641 2.0019531 z M 12 8.2207031 C 12.050608 8.2688534 12.102697 8.3165495 12.15625 8.3652344 C 12.735862 8.8921542 13.493981 9.4488206 14.351562 9.9765625 C 14.364266 9.9843799 14.377886 9.9921925 14.390625 10 L 9.609375 10 C 9.6221142 9.9921925 9.6357342 9.9843799 9.6484375 9.9765625 C 10.506018 9.4488206 11.264138 8.8921542 11.84375 8.3652344 C 11.897303 8.3165495 11.949392 8.2688534 12 8.2207031 z M 6.9355469 12 L 11 12 C 11 14.3 10.299548 16.404634 9.4941406 17.900391 C 9.0914369 18.648269 8.6599398 19.244156 8.3144531 19.615234 C 8.1417098 19.800774 7.9892763 19.930008 7.9023438 19.988281 C 7.8956141 19.992792 7.8887065 19.996675 7.8828125 20 L 5.3867188 20 C 5.6765159 19.280931 6.0255192 18.719984 6.2304688 17.695312 C 6.5365255 16.165145 6.7695594 14.272901 6.9355469 12 z M 13 12 L 17.064453 12 C 17.230441 14.272901 17.463475 16.165145 17.769531 17.695312 C 17.974481 18.719984 18.323484 19.280931 18.613281 20 L 16.117188 20 C 16.111294 19.996675 16.104385 19.992793 16.097656 19.988281 C 16.010726 19.930011 15.85829 19.800774 15.685547 19.615234 C 15.340056 19.244157 14.908563 18.648269 14.505859 17.900391 C 13.700452 16.404634 13 14.3 13 12 z M 7.8652344 20.009766 C 7.8537242 20.014911 7.8436152 20.017093 7.8398438 20.017578 L 7.8398438 20.015625 L 7.8417969 20.015625 L 7.84375 20.013672 C 7.8479273 20.012262 7.8557447 20.011568 7.8652344 20.009766 z M 16.134766 20.009766 C 16.144254 20.011568 16.154026 20.014215 16.158203 20.015625 L 16.160156 20.015625 L 16.160156 20.017578 L 16.158203 20.017578 C 16.154432 20.017093 16.146275 20.014912 16.134766 20.009766 z " fill="currentColor"/>
</svg>
