<svg xmlns="http://www.w3.org/2000/svg" width="1em" height="1em" viewBox="0 0 24 24" fill="currentColor">
  <path d="M 12 1 C 10.872835 1 9.8825624 1.8297859 9.7617188 2.9570312 L 9.0507812 7.7441406 C 9.0164934 7.9715291 9 8.2008755 9 8.4277344 L 9 9.2675781 L 8.2675781 9.6855469 C 8.0654053 9.7994942 7.871209 9.9299179 7.6894531 10.074219 L 3.890625 12.957031 C 2.9744121 13.619263 2.7469425 14.894917 3.3125 15.867188 A 1.0001 1.0001 0 0 0 3.3125 15.869141 C 3.8814236 16.840687 5.0902051 17.272918 6.125 16.820312 L 9.7792969 15.474609 L 9.1328125 20 L 7 20 A 1 1 0 0 0 6 21 A 1 1 0 0 0 7 22 L 13.980469 22 L 14.019531 22 L 17 22 A 1 1 0 0 0 18 21 A 1 1 0 0 0 17 20 L 14.867188 20 L 14.220703 15.472656 L 17.876953 16.820312 C 18.912846 17.275879 20.119611 16.842052 20.689453 15.867188 A 1.0001 1.0001 0 0 0 20.691406 15.867188 C 21.257827 14.895181 21.029494 13.619263 20.113281 12.957031 L 16.306641 10.068359 C 16.127951 9.9289559 15.939129 9.8019465 15.744141 9.6894531 A 1.0001 1.0001 0 0 0 15.740234 9.6875 L 15 9.265625 L 15 8.4277344 C 15 8.2016024 14.983589 7.9720709 14.949219 7.7441406 L 14.949219 7.7402344 L 14.238281 2.9570312 C 14.117438 1.8297859 13.127165 1 12 1 z M 12 3 C 12.166835 3 12.242844 3.1031671 12.25 3.1699219 A 1.0001 1.0001 0 0 0 12.253906 3.2089844 L 12.970703 8.0371094 A 1.0001 1.0001 0 0 0 12.970703 8.0410156 C 12.976319 8.0780266 12.980344 8.1149255 12.984375 8.1523438 C 12.663933 8.0490839 12.330957 8 12 8 C 11.669032 8 11.336077 8.0490772 11.015625 8.1523438 C 11.019657 8.1150324 11.023662 8.0781881 11.029297 8.0410156 A 1.0001 1.0001 0 0 0 11.029297 8.0371094 L 11.746094 3.2089844 A 1.0001 1.0001 0 0 0 11.75 3.1699219 C 11.757156 3.1031671 11.833165 3 12 3 z M 12 10 C 12.136947 10 12.270046 10.024275 12.390625 10.066406 A 1 1 0 0 0 12.513672 10.148438 L 12.75 10.283203 C 12.898464 10.427767 13 10.61551 13 11 C 13 11.416666 12.879756 11.601893 12.710938 11.751953 C 12.707095 11.755369 12.70316 11.758357 12.699219 11.761719 A 1 1 0 0 0 12.503906 11.847656 L 12.308594 11.958984 C 12.21103 11.984993 12.106048 12 12 12 C 11.896322 12 11.792931 11.985851 11.697266 11.960938 L 11.5 11.847656 A 1 1 0 0 0 11.298828 11.759766 C 11.295634 11.75702 11.292191 11.754734 11.289062 11.751953 C 11.120244 11.601894 11.000001 11.416663 11 11 C 11 10.616866 11.104336 10.42756 11.251953 10.283203 L 11.488281 10.148438 A 1 1 0 0 0 11.613281 10.064453 C 11.732836 10.023169 11.864532 10 12 10 z M 14.953125 11.552734 C 14.995187 11.582181 15.036058 11.613237 15.076172 11.644531 A 1.0001 1.0001 0 0 0 15.085938 11.652344 L 18.921875 14.564453 A 1.0001 1.0001 0 0 0 18.941406 14.578125 C 18.998796 14.619605 19.042173 14.71894 18.962891 14.857422 C 18.882731 14.994553 18.741748 15.014715 18.681641 14.988281 A 1.0001 1.0001 0 0 0 18.625 14.964844 L 14.085938 13.291016 C 14.063952 13.282503 14.041336 13.27275 14.019531 13.263672 C 14.025823 13.258176 14.032806 13.253608 14.039062 13.248047 C 14.50017 12.838173 14.834667 12.239964 14.953125 11.552734 z M 9.046875 11.554688 C 9.1656096 12.241152 9.5002367 12.838535 9.9609375 13.248047 C 9.9675963 13.253966 9.9737696 13.25978 9.9804688 13.265625 C 9.9595641 13.274353 9.9390637 13.282865 9.9179688 13.291016 L 5.3769531 14.966797 A 1.0001 1.0001 0 0 0 5.3242188 14.988281 C 5.2575687 15.017431 5.1223146 14.996681 5.0410156 14.861328 L 5.0410156 14.859375 C 4.9608827 14.719234 5.0051092 14.619607 5.0625 14.578125 A 1.0001 1.0001 0 0 0 5.0800781 14.564453 L 8.9160156 11.654297 A 1.0001 1.0001 0 0 0 8.9335938 11.640625 C 8.970766 11.611112 9.0081864 11.582086 9.046875 11.554688 z M 12.001953 14.4375 L 12.056641 14.46875 L 12.847656 20 L 11.152344 20 L 11.943359 14.470703 L 12.001953 14.4375 z " fill="currentColor"/>
</svg>
