<svg xmlns="http://www.w3.org/2000/svg" width="1em" height="1em" viewBox="0 0 24 24" fill="currentColor">
  <path d="M 11.560547 2.1640625 A 1 1 0 0 0 11.445312 2.1679688 A 1 1 0 0 0 11.273438 2.4238281 A 1 1 0 0 0 11.167969 2.4453125 L 9.1679688 5.4453125 A 1.0001 1.0001 0 0 0 9.0078125 5.8671875 L 8.7226562 8 L 8 8 A 1 1 0 0 0 7 9 A 1 1 0 0 0 8 10 L 8.4570312 10 L 7.0078125 20.867188 A 1.0001 1.0001 0 0 0 8 22 L 16 22 A 1.0001 1.0001 0 0 0 16.992188 20.867188 L 15.542969 10 L 16 10 A 1 1 0 0 0 17 9 A 1 1 0 0 0 16 8 L 15.277344 8 L 14.992188 5.8671875 A 1.0001 1.0001 0 0 0 14.832031 5.4453125 L 12.832031 2.4453125 A 1 1 0 0 0 12.726562 2.4238281 A 1 1 0 0 0 12.554688 2.1679688 A 1 1 0 0 0 12 2.2792969 A 1 1 0 0 0 11.560547 2.1640625 z M 12 4.8027344 L 13.039062 6.3613281 L 13.257812 8 L 10.742188 8 L 10.960938 6.3613281 L 12 4.8027344 z M 3 6 A 1 1 0 0 0 2.2929688 6.2929688 A 1 1 0 0 0 2.2929688 7.7070312 L 3.5859375 9 L 2.2929688 10.292969 A 1 1 0 0 0 2.2929688 11.707031 A 1 1 0 0 0 3.7070312 11.707031 L 5.7070312 9.7070312 A 1.0001 1.0001 0 0 0 5.7070312 8.2929688 L 3.7070312 6.2929688 A 1 1 0 0 0 3 6 z M 21 6 A 1 1 0 0 0 20.292969 6.2929688 L 18.292969 8.2929688 A 1.0001 1.0001 0 0 0 18.292969 9.7070312 L 20.292969 11.707031 A 1 1 0 0 0 21.707031 11.707031 A 1 1 0 0 0 21.707031 10.292969 L 20.414062 9 L 21.707031 7.7070312 A 1 1 0 0 0 21.707031 6.2929688 A 1 1 0 0 0 21 6 z M 10.476562 10 L 13.523438 10 L 14.857422 20 L 9.1425781 20 L 10.476562 10 z " fill="currentColor"/>
</svg>
