<svg xmlns="http://www.w3.org/2000/svg" width="1em" height="1em" viewBox="0 0 24 24" fill="currentColor">
  <path d="M 12.943359 2.0019531 A 1.0001 1.0001 0 0 0 12.552734 2.1054688 L 4.5527344 6.1054688 A 1.0001 1.0001 0 0 0 4 7 L 4 20 L 3 20 A 1 1 0 0 0 2 21 A 1 1 0 0 0 3 22 L 21 22 A 1 1 0 0 0 22 21 A 1 1 0 0 0 21 20 L 20 20 L 20 11 A 1.0001 1.0001 0 0 0 19.554688 10.167969 L 14 6.4648438 L 14 3 A 1.0001 1.0001 0 0 0 12.943359 2.0019531 z M 12 4.6171875 L 12 20 L 6 20 L 6 7.6171875 L 12 4.6171875 z M 9 8 A 1 1 0 0 0 8 9 L 8 9.0097656 A 1 1 0 0 0 9 10.009766 A 1 1 0 0 0 10 9.0097656 L 10 9 A 1 1 0 0 0 9 8 z M 14 8.8691406 L 18 11.535156 L 18 20 L 14 20 L 14 8.8691406 z M 9 11 A 1 1 0 0 0 8 12 L 8 12.009766 A 1 1 0 0 0 9 13.009766 A 1 1 0 0 0 10 12.009766 L 10 12 A 1 1 0 0 0 9 11 z M 9 14 A 1 1 0 0 0 8 15 L 8 15.009766 A 1 1 0 0 0 9 16.009766 A 1 1 0 0 0 10 15.009766 L 10 15 A 1 1 0 0 0 9 14 z M 9 17 A 1 1 0 0 0 8 18 L 8 18.009766 A 1 1 0 0 0 9 19.009766 A 1 1 0 0 0 10 18.009766 L 10 18 A 1 1 0 0 0 9 17 z " fill="currentColor"/>
</svg>
