<svg xmlns="http://www.w3.org/2000/svg" width="1em" height="1em" viewBox="0 0 24 24" fill="currentColor">
  <path d="M 7 2 A 1.0001 1.0001 0 0 0 6 3 L 6 6 L 6 9.5898438 C 5.311382 9.7570356 4.7077026 9.9608334 4.1914062 10.255859 C 3.6054886 10.590669 3 11.166667 3 12 L 3 19 C 3 19.680035 3.4271176 20.167921 3.8515625 20.482422 C 4.2760074 20.796923 4.7799138 21.021758 5.375 21.220703 C 6.5651723 21.618593 8.1288886 21.886508 9.9394531 21.998047 A 1.0001 1.0001 0 0 0 11 21 L 11 19 L 13 19 L 13 21 A 1.0001 1.0001 0 0 0 14.064453 21.998047 C 15.847228 21.881271 17.410082 21.609309 18.603516 21.212891 C 19.200233 21.014682 19.705556 20.792567 20.132812 20.482422 C 20.560071 20.172277 21 19.692177 21 19 L 21 12 C 21 11.166667 20.394511 10.590669 19.808594 10.255859 C 19.222676 9.9210499 18.52422 9.7028647 17.716797 9.5234375 C 17.186137 9.4055131 16.608875 9.3094423 16 9.2324219 L 16 7 L 19 7 A 1.0001 1.0001 0 0 0 20 6 L 20 3 A 1.0001 1.0001 0 0 0 19 2 L 15 2 A 1.0001 1.0001 0 0 0 14 3 L 14 6 L 14 9.0546875 C 13.344178 9.0184069 12.67258 9 12 9 C 10.619928 9 9.2439847 9.0750624 8 9.2324219 L 8 7 L 11 7 A 1.0001 1.0001 0 0 0 12 6 L 12 3 A 1.0001 1.0001 0 0 0 11 2 L 7 2 z M 8 4 L 10 4 L 10 5 L 8 5 L 8 4 z M 16 4 L 18 4 L 18 5 L 16 5 L 16 4 z M 12 11 C 13.944444 11 15.898049 11.168751 17.283203 11.476562 C 17.97578 11.630467 18.527324 11.828951 18.816406 11.994141 C 18.819875 11.996123 18.822816 11.998063 18.826172 12 C 18.822816 12.001937 18.819875 12.003877 18.816406 12.005859 C 18.527324 12.171049 17.97578 12.369532 17.283203 12.523438 C 15.898049 12.831207 13.944444 13 12 13 C 10.055556 13 8.1019514 12.831249 6.7167969 12.523438 C 6.0242196 12.369531 5.4726761 12.171049 5.1835938 12.005859 C 5.1801364 12.003884 5.1771734 12.00193 5.1738281 12 C 5.1771734 11.99807 5.1801365 11.996116 5.1835938 11.994141 C 5.4726761 11.828951 6.0242196 11.630467 6.7167969 11.476562 C 8.1019514 11.16875 10.055556 11 12 11 z M 5 14.113281 C 5.3913072 14.256741 5.8192675 14.373465 6.2832031 14.476562 C 7.8980486 14.835417 9.9444445 15 12 15 C 14.055556 15 16.101951 14.835417 17.716797 14.476562 C 18.180733 14.373465 18.608693 14.256741 19 14.113281 L 19 18.832031 C 18.988981 18.840927 18.975455 18.851326 18.958984 18.863281 C 18.797961 18.980168 18.446564 19.157037 17.972656 19.314453 C 17.274767 19.54627 16.119311 19.685588 15 19.820312 L 15 18 A 1.0001 1.0001 0 0 0 14 17 L 10 17 A 1.0001 1.0001 0 0 0 9 18 L 9 19.824219 C 7.8669351 19.692103 6.6998397 19.555572 6.0078125 19.324219 C 5.5391487 19.167539 5.1982113 18.99003 5.0429688 18.875 C 5.0254049 18.861986 5.0112653 18.851048 5 18.841797 L 5 14.113281 z " fill="currentColor"/>
</svg>
