<svg xmlns="http://www.w3.org/2000/svg" width="1em" height="1em" viewBox="0 0 24 24" fill="currentColor">
  <path d="M 7 3 C 4.8027056 3 3 4.8027056 3 7 L 3 20 A 1 1 0 0 0 2 21 A 1 1 0 0 0 3 22 L 21 22 A 1 1 0 0 0 22 21 A 1 1 0 0 0 21 20 L 20 20 L 20 17.826172 C 21.160087 17.410315 22 16.295143 22 15 L 22 13 C 22 12.083334 21.620244 11.268559 21.039062 10.751953 C 20.457881 10.235347 19.722222 10 19 10 C 18.277778 10 17.542119 10.235347 16.960938 10.751953 C 16.379756 11.268559 16 12.083334 16 13 L 16 15 C 16 16.295143 16.839913 17.410315 18 17.826172 L 18 20 L 15 20 L 15 7 C 15 4.8027056 13.197294 3 11 3 L 7 3 z M 7 5 L 11 5 C 12.116414 5 13 5.8835859 13 7 L 13 20 L 10 20 L 10 17 A 1 1 0 0 0 9 16 A 1 1 0 0 0 8 17 L 8 20 L 5 20 L 5 7 C 5 5.8835859 5.8835859 5 7 5 z M 8 8 A 1 1 0 0 0 7 9 A 1 1 0 0 0 8 10 L 10 10 A 1 1 0 0 0 11 9 A 1 1 0 0 0 10 8 L 8 8 z M 8 12 A 1 1 0 0 0 7 13 A 1 1 0 0 0 8 14 L 10 14 A 1 1 0 0 0 11 13 A 1 1 0 0 0 10 12 L 8 12 z M 19 12 C 19.277778 12 19.542119 12.09799 19.710938 12.248047 C 19.879756 12.398107 20 12.583334 20 13 L 20 15 C 20 15.564127 19.564126 15.999997 19 16 C 18.435871 16 18 15.564129 18 15 L 18 13 C 18 12.583334 18.120244 12.398107 18.289062 12.248047 C 18.457881 12.097986 18.722222 12 19 12 z " fill="currentColor"/>
</svg>
