<svg xmlns="http://www.w3.org/2000/svg" width="1em" height="1em" viewBox="0 0 24 24" fill="currentColor">
  <path d="M 15.923828 2 C 15.197186 1.9998358 14.562555 2.5369402 14.443359 3.2539062 L 13.263672 10.330078 L 10.625 8.21875 A 1.0001 1.0001 0 0 0 9 9 L 9 10.917969 L 5.625 8.21875 A 1.0001 1.0001 0 0 0 4.5664062 8.0996094 A 1.0001 1.0001 0 0 0 4 9 L 4 20 L 3 20 A 1 1 0 0 0 2 21 A 1 1 0 0 0 3 22 L 21 22 A 1 1 0 0 0 22 21 A 1 1 0 0 0 21 20 L 20 20 L 20 13 A 1 1 0 0 0 19.988281 12.851562 L 18.552734 3.2773438 C 18.443811 2.5494786 17.804329 1.9992548 17.068359 2 L 15.925781 2 L 15.923828 2 z M 16.345703 4 L 16.638672 4 L 17.837891 12 L 15.351562 12 L 15.052734 11.761719 L 16.345703 4 z M 6 11.082031 L 9.375 13.78125 A 1.0001 1.0001 0 0 0 11 13 L 11 11.082031 L 14.375 13.78125 A 1.0001 1.0001 0 0 0 15 14 L 18 14 L 18 20 L 6 20 L 6 11.082031 z M 9 16 A 1 1 0 0 0 8 17 A 1 1 0 0 0 9 18 L 10 18 A 1 1 0 0 0 11 17 A 1 1 0 0 0 10 16 L 9 16 z M 14 16 A 1 1 0 0 0 13 17 A 1 1 0 0 0 14 18 L 15 18 A 1 1 0 0 0 16 17 A 1 1 0 0 0 15 16 L 14 16 z " fill="currentColor"/>
</svg>
