<svg xmlns="http://www.w3.org/2000/svg" width="1em" height="1em" viewBox="0 0 24 24" fill="currentColor">
  <path d="M 9 5 A 1.0001 1.0001 0 0 0 8 6 L 8 10 L 6 10 C 4.9072751 10 4 10.907275 4 12 L 4 14 C 3.2777779 14 2.5421194 14.235347 1.9609375 14.751953 C 1.3797556 15.268559 1 16.083334 1 17 C 1 17.916666 1.3797556 18.731441 1.9609375 19.248047 C 2.5421194 19.764653 3.2777779 20 4 20 L 14 20 C 14.722222 20 15.457881 19.764653 16.039062 19.248047 C 16.397026 18.929858 16.678328 18.498555 16.841797 18 L 18.173828 18 C 18.589685 19.160087 19.704857 20 21 20 L 22 20 A 1 1 0 0 0 23 19 A 1 1 0 0 0 22 18 L 21 18 C 20.435871 18 20 17.564129 20 17 L 20 13 A 1 1 0 0 0 19 12 A 1 1 0 0 0 18 13 L 18 16 L 16.841797 16 C 16.678328 15.501445 16.397026 15.070142 16.039062 14.751953 C 15.728316 14.475733 15.373406 14.280626 15 14.158203 L 15 9 C 15 6.8027056 13.197294 5 11 5 L 9 5 z M 10 7 L 11 7 C 12.116414 7 13 7.8835859 13 9 L 13 10 L 10 10 L 10 7 z M 6 12 L 13 12 L 13 14 L 6 14 L 6 12 z M 4 16 C 4.2777779 16 4.5421194 16.09799 4.7109375 16.248047 C 4.8797556 16.398107 5 16.583334 5 17 C 5 17.416666 4.8797556 17.601893 4.7109375 17.751953 C 4.5421194 17.902014 4.2777779 18 4 18 C 3.7222221 18 3.4578806 17.902014 3.2890625 17.751953 C 3.1202444 17.601893 3 17.416666 3 17 C 3 16.583334 3.1202444 16.398107 3.2890625 16.248047 C 3.4578793 16.097987 3.7222244 16.000001 4 16 z M 6.8417969 16 L 11.158203 16 C 11.056267 16.310889 11 16.647929 11 17 C 11 17.352071 11.056267 17.689111 11.158203 18 L 6.8417969 18 C 6.9437328 17.689111 7 17.352071 7 17 C 7 16.647929 6.9437328 16.310889 6.8417969 16 z M 14 16 C 14.277778 16 14.542119 16.09799 14.710938 16.248047 C 14.879755 16.398107 15 16.583334 15 17 C 15 17.416666 14.879756 17.601893 14.710938 17.751953 C 14.542118 17.902014 14.277778 18 14 18 C 13.722222 18 13.45788 17.902014 13.289062 17.751953 C 13.120243 17.601893 13 17.416666 13 17 C 13 16.583334 13.120244 16.398107 13.289062 16.248047 C 13.457879 16.097987 13.722224 16.000001 14 16 z " fill="currentColor"/>
</svg>
