<svg xmlns="http://www.w3.org/2000/svg" width="1em" height="1em" viewBox="0 0 24 24" fill="currentColor">
  <path d="M 3 2 A 1 1 0 0 0 2.2929688 2.2929688 A 1 1 0 0 0 2.2929688 3.7070312 L 6.5859375 8 L 6 8 C 3.8027056 8 2 9.8027056 2 12 L 2 20 A 1.0001 1.0001 0 0 0 3 21 L 19.585938 21 L 20.292969 21.707031 A 1 1 0 0 0 21.707031 21.707031 A 1 1 0 0 0 21.707031 20.292969 L 20.716797 19.302734 A 1 1 0 0 0 20.697266 19.283203 L 14.736328 13.322266 A 1 1 0 0 0 14.679688 13.265625 L 9.7167969 8.3027344 A 1 1 0 0 0 9.6972656 8.2832031 L 3.7070312 2.2929688 A 1 1 0 0 0 3 2 z M 12 3 A 1.0001 1.0001 0 0 0 11.253906 3.3339844 L 9.703125 5.0703125 A 1.0001 1.0001 0 0 0 9.6757812 5.1054688 C 9.5052 5.3146167 9.3644705 5.5424608 9.2578125 5.7832031 A 1 1 0 0 0 9.7675781 7.1015625 A 1 1 0 0 0 11.085938 6.59375 C 11.119067 6.518966 11.165738 6.4435256 11.224609 6.3710938 L 11.224609 6.3691406 L 12 5.5019531 L 12.71875 6.3046875 A 1.0001 1.0001 0 0 0 12.732422 6.3203125 C 13.220714 6.8446663 13.062733 7.622572 12.408203 7.9140625 A 1 1 0 0 0 11.902344 9.234375 A 1 1 0 0 0 12.234375 9.640625 A 1 1 0 0 0 13 10 L 18 10 C 19.116414 10 20 10.883586 20 12 L 20 14 A 1.0001 1.0001 0 0 0 19.978516 14 C 19.516175 14.0097 19.082156 13.791699 18.8125 13.416016 A 1 1 0 0 0 17.416016 13.1875 A 1 1 0 0 0 17.1875 14.583984 C 17.835834 15.487239 18.889173 16.012034 20 15.996094 L 20 17 A 1 1 0 0 0 21 18 A 1 1 0 0 0 22 17 L 22 12 C 22 9.8027056 20.197294 8 18 8 L 14.8125 8 C 15.163507 6.9930468 14.992725 5.8112383 14.197266 4.9570312 L 12.746094 3.3339844 A 1.0001 1.0001 0 0 0 12 3 z M 6 10 L 8.5859375 10 L 12.509766 13.923828 C 12.355357 13.977405 12.190006 14.00353 12.021484 14 A 1.0001 1.0001 0 0 0 11.978516 14 C 11.516177 14.009685 11.082156 13.791699 10.8125 13.416016 C 10.164167 12.512762 9.1108228 11.987973 8 12.003906 C 6.8891772 11.987973 5.8358331 12.512762 5.1875 13.416016 C 4.9178437 13.791699 4.4838248 14.009685 4.0214844 14 A 1.0001 1.0001 0 0 0 4 14 L 4 12 C 4 10.883586 4.8835859 10 6 10 z M 7.9785156 14 A 1.0001 1.0001 0 0 0 8.0214844 14 C 8.4838248 13.9903 8.9178437 14.208301 9.1875 14.583984 C 9.8358331 15.487238 10.889177 16.012027 12 15.996094 C 12.715765 16.006358 13.407363 15.791818 13.982422 15.396484 L 17.585938 19 L 4 19 L 4 15.996094 C 5.1108265 16.01203 6.1641659 15.487239 6.8125 14.583984 C 7.0821567 14.208301 7.5161752 13.990315 7.9785156 14 z " fill="currentColor"/>
</svg>
