<svg xmlns="http://www.w3.org/2000/svg" width="1em" height="1em" viewBox="0 0 24 24" fill="currentColor">
  <path d="M 7 2 A 1 1 0 0 0 6 3 L 6 4 L 5 4 C 3.3549904 4 2 5.3549904 2 7 L 2 11 L 2 19 C 2 20.64501 3.3549904 22 5 22 L 11.794922 22 A 1 1 0 0 0 12.794922 21 A 1 1 0 0 0 11.794922 20 L 5 20 C 4.4358706 20 4 19.564129 4 19 L 4 12 L 19 12 A 1 1 0 0 0 19.130859 11.992188 A 1 1 0 0 0 20 11 L 20 7 C 20 5.3549904 18.64501 4 17 4 L 16 4 L 16 3 A 1 1 0 0 0 15 2 A 1 1 0 0 0 14 3 L 14 4 L 8 4 L 8 3 A 1 1 0 0 0 7 2 z M 5 6 L 6 6 L 6 7 A 1 1 0 0 0 7 8 A 1 1 0 0 0 8 7 L 8 6 L 14 6 L 14 7 A 1 1 0 0 0 15 8 A 1 1 0 0 0 16 7 L 16 6 L 17 6 C 17.564129 6 18 6.4358706 18 7 L 18 10 L 4 10 L 4 7 C 4 6.4358706 4.4358706 6 5 6 z M 18 13 C 16.777778 13 15.542119 13.402014 14.585938 14.251953 C 13.629755 15.101892 13 16.416667 13 18 C 13 19.583333 13.629756 20.898108 14.585938 21.748047 C 15.542118 22.597986 16.777778 23 18 23 C 19.222222 23 20.457881 22.597986 21.414062 21.748047 C 22.370244 20.898108 23 19.583333 23 18 C 23 16.416667 22.370244 15.101892 21.414062 14.251953 C 20.457881 13.402014 19.222222 13 18 13 z M 17 15.150391 L 17 18 A 1.0001 1.0001 0 0 0 18 19 L 20.873047 19 C 20.720221 19.538459 20.439335 19.937823 20.085938 20.251953 C 19.542119 20.735347 18.777778 21 18 21 C 17.222222 21 16.457881 20.735347 15.914062 20.251953 C 15.370243 19.768559 15 19.083333 15 18 C 15 16.916667 15.370244 16.231441 15.914062 15.748047 C 16.218906 15.477075 16.593044 15.275806 17 15.150391 z M 19 15.150391 C 19.406956 15.275806 19.781094 15.477075 20.085938 15.748047 C 20.439335 16.062177 20.720221 16.461541 20.873047 17 L 19 17 L 19 15.150391 z " fill="currentColor"/>
</svg>
