<svg xmlns="http://www.w3.org/2000/svg" width="1em" height="1em" viewBox="0 0 24 24" fill="currentColor">
  <path d="M 8 2 A 1 1 0 0 0 7 3 L 7 4 L 6 4 C 4.3549904 4 3 5.3549904 3 7 L 3 19 C 3 20.64501 4.3549904 22 6 22 L 12.5 22 A 1 1 0 0 0 13.5 21 A 1 1 0 0 0 12.5 20 L 6 20 C 5.4358706 20 5 19.564129 5 19 L 5 12 L 16 12 A 1 1 0 0 0 17 11 A 1 1 0 0 0 16 10 L 5 10 L 5 7 C 5 6.4358706 5.4358706 6 6 6 L 7 6 L 7 7 A 1 1 0 0 0 8 8 A 1 1 0 0 0 9 7 L 9 6 L 15 6 L 15 7 A 1 1 0 0 0 16 8 A 1 1 0 0 0 17 7 L 17 6 L 18 6 C 18.564129 6 19 6.4358706 19 7 L 19 10 A 1 1 0 0 0 20 11 A 1 1 0 0 0 21 10 L 21 7 C 21 5.3549904 19.64501 4 18 4 L 17 4 L 17 3 A 1 1 0 0 0 16 2 A 1 1 0 0 0 15 3 L 15 4 L 9 4 L 9 3 A 1 1 0 0 0 8 2 z M 20 13 A 1 1 0 0 0 19.292969 13.292969 A 1 1 0 0 0 19.292969 14.707031 L 19.585938 15 L 19 15 A 1 1 0 0 0 18.863281 15.009766 C 16.166826 15.10249 14.291703 17.883121 15.263672 20.427734 C 16.252218 23.015748 19.601138 23.827478 21.666016 21.980469 A 1 1 0 0 0 21.746094 20.568359 A 1 1 0 0 0 20.333984 20.490234 C 19.264824 21.446586 17.642711 21.052918 17.130859 19.712891 C 16.619011 18.372878 17.565546 16.999986 19 17 L 19.585938 17 L 19.292969 17.292969 A 1 1 0 0 0 19.292969 18.707031 A 1 1 0 0 0 20.707031 18.707031 L 22.707031 16.707031 A 1 1 0 0 0 22.724609 16.685547 A 1.0001 1.0001 0 0 0 22.755859 16.652344 A 1 1 0 0 0 22.824219 16.564453 A 1.0001 1.0001 0 0 0 22.837891 16.542969 A 1 1 0 0 0 22.880859 16.466797 A 1.0001 1.0001 0 0 0 22.904297 16.421875 A 1 1 0 0 0 22.935547 16.34375 A 1.0001 1.0001 0 0 0 22.957031 16.285156 A 1 1 0 0 0 22.972656 16.21875 A 1.0001 1.0001 0 0 0 22.984375 16.167969 A 1 1 0 0 0 22.998047 16.046875 A 1.0001 1.0001 0 0 0 22.998047 16.035156 A 1 1 0 0 0 22.996094 15.943359 A 1.0001 1.0001 0 0 0 22.994141 15.894531 A 1 1 0 0 0 22.978516 15.804688 A 1.0001 1.0001 0 0 0 22.964844 15.742188 A 1 1 0 0 0 22.931641 15.638672 A 1.0001 1.0001 0 0 0 22.929688 15.632812 A 1 1 0 0 0 22.873047 15.513672 A 1.0001 1.0001 0 0 0 22.865234 15.5 A 1 1 0 0 0 22.845703 15.46875 A 1.0001 1.0001 0 0 0 22.792969 15.390625 A 1 1 0 0 0 22.707031 15.292969 L 20.707031 13.292969 A 1 1 0 0 0 20 13 z " fill="currentColor"/>
</svg>
