<svg xmlns="http://www.w3.org/2000/svg" width="1em" height="1em" viewBox="0 0 24 24" fill="currentColor">
  <path d="M 3 2 A 1 1 0 0 0 2.2929688 2.2929688 A 1 1 0 0 0 2.2929688 3.7070312 L 3.6816406 5.0957031 C 3.2493996 5.6231833 2.9996895 6.2931432 3 7 L 3 19 C 3 20.64501 4.3549904 22 6 22 L 18 22 C 18.706545 22.000173 19.376917 21.750679 19.904297 21.318359 L 20.292969 21.707031 A 1 1 0 0 0 21.707031 21.707031 A 1 1 0 0 0 21.707031 20.292969 L 11.716797 10.302734 A 1 1 0 0 0 11.697266 10.283203 L 3.7070312 2.2929688 A 1 1 0 0 0 3 2 z M 8 2 A 1 1 0 0 0 7 3 L 7 4 A 1 1 0 0 0 8 5 A 1 1 0 0 0 9 6 L 15 6 L 15 7 A 1 1 0 0 0 16 8 A 1 1 0 0 0 17 7 L 17 6 L 18 6 C 18.564129 6 19 6.4358706 19 7 L 19 10 L 15 10 A 1 1 0 0 0 14 11 A 1 1 0 0 0 15 12 L 19 12 L 19 16 A 1 1 0 0 0 20 17 A 1 1 0 0 0 21 16 L 21 7 C 21 5.3549904 19.64501 4 18 4 L 17 4 L 17 3 A 1 1 0 0 0 16 2 A 1 1 0 0 0 15 3 L 15 4 L 9 4 L 9 3 A 1 1 0 0 0 8 2 z M 5.1152344 6.5292969 L 8.5859375 10 L 5 10 L 5 7 C 4.9999262 6.8319743 5.0404173 6.6709377 5.1152344 6.5292969 z M 5 12 L 10.585938 12 L 18.470703 19.884766 C 18.329197 19.959689 18.168025 20.000041 18 20 L 6 20 C 5.4358706 20 5 19.564129 5 19 L 5 12 z " fill="currentColor"/>
</svg>
