<svg xmlns="http://www.w3.org/2000/svg" width="1em" height="1em" viewBox="0 0 24 24" fill="currentColor">
  <path d="M 8 2 A 1 1 0 0 0 7 3 L 7 4 L 6 4 C 4.3549904 4 3 5.3549904 3 7 L 3 19 C 3 20.64501 4.3549904 22 6 22 L 12 22 A 1 1 0 0 0 13 21 A 1 1 0 0 0 12 20 L 6 20 C 5.4358706 20 5 19.564129 5 19 L 5 12 L 19 12 L 19 13 A 1 1 0 0 0 20 14 A 1 1 0 0 0 21 13 L 21 7 C 21 5.3549904 19.64501 4 18 4 L 17 4 L 17 3 A 1 1 0 0 0 16 2 A 1 1 0 0 0 15 3 L 15 4 L 9 4 L 9 3 A 1 1 0 0 0 8 2 z M 6 6 L 7 6 L 7 7 A 1 1 0 0 0 8 8 A 1 1 0 0 0 9 7 L 9 6 L 15 6 L 15 7 A 1 1 0 0 0 16 8 A 1 1 0 0 0 17 7 L 17 6 L 18 6 C 18.564129 6 19 6.4358706 19 7 L 19 10 L 5 10 L 5 7 C 5 6.4358706 5.4358706 6 6 6 z M 16.5 16 A 1 1 0 0 0 15.5 17 A 1 1 0 0 0 16.5 18 L 18.585938 18 L 15.292969 21.292969 A 1 1 0 0 0 15.292969 22.707031 A 1 1 0 0 0 16.707031 22.707031 L 20 19.414062 L 20 21.5 A 1 1 0 0 0 21 22.5 A 1 1 0 0 0 22 21.5 L 22 17 A 1 1 0 0 0 21.992188 16.869141 A 1.0001 1.0001 0 0 0 21.923828 16.617188 A 1 1 0 0 0 21.707031 16.292969 A 1 1 0 0 0 21.382812 16.076172 A 1.0001 1.0001 0 0 0 21.130859 16.007812 A 1.0001 1.0001 0 0 0 21 16 L 16.5 16 z " fill="currentColor"/>
</svg>
