<svg xmlns="http://www.w3.org/2000/svg" width="1em" height="1em" viewBox="0 0 24 24" fill="currentColor">
  <path d="M 9 3 C 7.9072751 3 7 3.9072751 7 5 C 7 5.5641294 6.5641294 6 6 6 L 5 6 C 3.3549904 6 2 7.3549904 2 9 L 2 18 C 2 19.64501 3.3549904 21 5 21 L 12.5 21 A 1 1 0 0 0 13.5 20 A 1 1 0 0 0 12.5 19 L 5 19 C 4.4358706 19 4 18.564129 4 18 L 4 9 C 4 8.4358706 4.4358706 8 5 8 L 6 8 C 7.6450096 8 9 6.6450096 9 5 L 15 5 C 15 6.6450096 16.35499 8 18 8 L 19 8 C 19.564129 8 20 8.4358706 20 9 L 20 13 A 1 1 0 0 0 21 14 A 1 1 0 0 0 22 13 L 22 9 C 22 7.3549904 20.64501 6 19 6 L 18 6 C 17.435871 6 17 5.5641294 17 5 C 17 3.9072751 16.092725 3 15 3 L 9 3 z M 11.912109 9.0039062 C 11.708353 9.0079576 11.504065 9.027161 11.300781 9.0625 C 10.487648 9.2038561 9.6951305 9.5998802 9.0585938 10.291016 C 7.7855203 11.673286 7.7369469 13.579187 8.5136719 14.960938 C 9.2903968 16.342688 10.944237 17.291481 12.787109 16.921875 A 1 1 0 0 0 13.570312 15.746094 A 1 1 0 0 0 12.392578 14.960938 C 11.385929 15.162831 10.658968 14.694104 10.257812 13.980469 C 9.8566553 13.266833 9.834093 12.401319 10.529297 11.646484 C 11.224501 10.89165 12.08982 10.842387 12.833984 11.183594 C 13.578148 11.524801 14.104886 12.212595 13.986328 13.232422 A 1 1 0 0 0 14.865234 14.339844 A 1 1 0 0 0 15.972656 13.462891 C 16.1897 11.595893 15.108829 10.025884 13.667969 9.3652344 C 13.127646 9.1174907 12.523377 8.9917522 11.912109 9.0039062 z M 16.5 16 A 1 1 0 0 0 15.5 17 A 1 1 0 0 0 16.5 18 L 18.585938 18 L 15.292969 21.292969 A 1 1 0 0 0 15.292969 22.707031 A 1 1 0 0 0 16.707031 22.707031 L 20 19.414062 L 20 21.5 A 1 1 0 0 0 21 22.5 A 1 1 0 0 0 22 21.5 L 22 17 A 1 1 0 0 0 21.992188 16.869141 A 1.0001 1.0001 0 0 0 21.923828 16.617188 A 1 1 0 0 0 21.707031 16.292969 A 1 1 0 0 0 21.382812 16.076172 A 1.0001 1.0001 0 0 0 21.130859 16.007812 A 1.0001 1.0001 0 0 0 21 16 L 16.5 16 z " fill="currentColor"/>
</svg>
