<svg xmlns="http://www.w3.org/2000/svg" width="1em" height="1em" viewBox="0 0 24 24" fill="currentColor">
  <path d="M 9 3 C 7.9072751 3 7 3.9072751 7 5 C 7 5.5641294 6.5641294 6 6 6 L 5 6 C 3.3549904 6 2 7.3549904 2 9 L 2 18 C 2 19.64501 3.3549904 21 5 21 L 19 21 C 20.64501 21 22 19.64501 22 18 L 22 9 C 22 7.3549904 20.64501 6 19 6 L 18 6 C 17.435871 6 17 5.5641294 17 5 C 17 3.9072751 16.092725 3 15 3 L 9 3 z M 9 5 L 15 5 C 15 6.6450096 16.35499 8 18 8 L 19 8 C 19.564129 8 20 8.4358706 20 9 L 20 18 C 20 18.564129 19.564129 19 19 19 L 5 19 C 4.4358706 19 4 18.564129 4 18 L 4 9 C 4 8.4358706 4.4358706 8 5 8 L 6 8 C 7.6450096 8 9 6.6450096 9 5 z M 12.064453 9 C 11.756171 8.9956412 11.453329 9.0285617 11.160156 9.09375 C 10.257843 9.2943832 9.4501275 9.8067346 8.8769531 10.519531 A 1 1 0 0 0 8 10 A 1 1 0 0 0 7 11 L 7 13 A 1.0001 1.0001 0 0 0 8 14 L 9 14 L 10 14 A 1 1 0 0 0 11 13 A 1 1 0 0 0 10.240234 12.029297 C 10.655961 11.255753 11.556457 10.818878 12.5 11.0625 A 1 1 0 0 0 13.71875 10.345703 A 1 1 0 0 0 13 9.1269531 C 12.686459 9.0459971 12.372736 9.0043588 12.064453 9 z M 14 12 A 1 1 0 0 0 13 13 A 1 1 0 0 0 13.759766 13.970703 C 13.343352 14.744962 12.440685 15.181174 11.496094 14.935547 A 1 1 0 0 0 10.277344 15.652344 A 1 1 0 0 0 10.994141 16.871094 C 12.588052 17.285568 14.176035 16.657581 15.123047 15.480469 A 1 1 0 0 0 16 16 A 1 1 0 0 0 17 15 L 17 13 A 1.0001 1.0001 0 0 0 16 12 L 14 12 z " fill="currentColor"/>
</svg>
