<svg xmlns="http://www.w3.org/2000/svg" width="1em" height="1em" viewBox="0 0 24 24" fill="currentColor">
  <path d="M 9 3 C 7.9072751 3 7 3.9072751 7 5 C 7 5.5641294 6.5641294 6 6 6 L 5 6 C 3.3549904 6 2 7.3549904 2 9 L 2 18 C 2 19.64501 3.3549904 21 5 21 L 10 21 A 1 1 0 0 0 11 20 A 1 1 0 0 0 10 19 L 5 19 C 4.4358706 19 4 18.564129 4 18 L 4 9 C 4 8.4358706 4.4358706 8 5 8 L 6 8 C 7.6450096 8 9 6.6450096 9 5 L 15 5 C 15 6.6450096 16.35499 8 18 8 L 19 8 C 19.564129 8 20 8.4358706 20 9 L 20 11 A 1 1 0 0 0 21 12 A 1 1 0 0 0 22 11 L 22 9 C 22 7.3549904 20.64501 6 19 6 L 18 6 C 17.435871 6 17 5.5641294 17 5 C 17 3.9072751 16.092725 3 15 3 L 9 3 z M 12.65625 9.3730469 C 12.529041 9.3771044 12.402379 9.3899113 12.279297 9.4101562 C 11.294637 9.5721158 10.434617 10.116149 9.7539062 10.816406 C 9.073196 11.516664 8.5539467 12.390056 8.4199219 13.378906 C 8.285897 14.367756 8.6695428 15.512724 9.6230469 16.216797 A 1 1 0 0 0 11.021484 16.007812 A 1 1 0 0 0 10.8125 14.609375 C 10.393603 14.300059 10.34539 14.06865 10.402344 13.648438 C 10.459294 13.228224 10.75402 12.658875 11.189453 12.210938 C 11.624886 11.762999 12.185083 11.453591 12.603516 11.384766 C 13.021948 11.315936 13.25317 11.355646 13.574219 11.765625 A 1 1 0 0 0 14.978516 11.9375 A 1 1 0 0 0 15.148438 10.533203 C 14.509006 9.7166586 13.546712 9.3446442 12.65625 9.3730469 z M 16 14 C 15.277778 14 14.542119 14.235347 13.960938 14.751953 C 13.379755 15.268559 13 16.083334 13 17 L 13 21 A 1 1 0 0 0 14 22 A 1 1 0 0 0 15 21 L 15 20 L 17 20 L 17 21 A 1 1 0 0 0 18 22 A 1 1 0 0 0 19 21 L 19 17 C 19 16.083334 18.620244 15.268559 18.039062 14.751953 C 17.457881 14.235347 16.722222 14 16 14 z M 21 14 A 1 1 0 0 0 20 15 L 20 21 A 1 1 0 0 0 21 22 A 1 1 0 0 0 22 21 L 22 15 A 1 1 0 0 0 21 14 z M 16 16 C 16.277778 16 16.542119 16.09799 16.710938 16.248047 C 16.879756 16.398107 17 16.583334 17 17 L 17 18 L 15 18 L 15 17 C 15 16.583334 15.120244 16.398107 15.289062 16.248047 C 15.45788 16.097986 15.722222 16 16 16 z " fill="currentColor"/>
</svg>
