<svg xmlns="http://www.w3.org/2000/svg" width="1em" height="1em" viewBox="0 0 24 24" fill="currentColor">
  <path d="M 11.955078 2.0019531 A 1.0001 1.0001 0 0 0 11 3 L 11 9.0898438 L 8.6269531 6.0449219 C 7.9983135 5.2382508 7.022775 4.9330391 6.1113281 5.0664062 C 5.1998812 5.1997735 4.3535829 5.7716427 3.9824219 6.7246094 L 2.0683594 11.636719 A 1.0001 1.0001 0 0 0 3 13 L 9.0898438 13 L 6.0449219 15.373047 C 4.4315797 16.630326 4.818676 19.275256 6.7246094 20.017578 L 11.636719 21.931641 A 1.0001 1.0001 0 0 0 13 21 L 13 14.910156 L 13.255859 15.238281 A 1 1 0 0 0 14.658203 15.412109 A 1 1 0 0 0 14.832031 14.009766 L 14.046875 13 L 16 13 A 1 1 0 0 0 17 12 A 1 1 0 0 0 16 11 L 14.910156 11 L 17.955078 8.6269531 C 19.56842 7.3696739 19.181324 4.7247439 17.275391 3.9824219 L 12.363281 2.0683594 A 1.0001 1.0001 0 0 0 11.955078 2.0019531 z M 13 4.4628906 L 16.548828 5.8457031 C 17.101236 6.0608548 17.192214 6.6863764 16.724609 7.0507812 L 13 9.953125 L 13 4.4628906 z M 6.4785156 6.9746094 C 6.6815328 6.9734945 6.8913541 7.070814 7.0507812 7.2753906 L 9.953125 11 L 4.4628906 11 L 5.8457031 7.4511719 C 5.9532789 7.1749678 6.1639197 7.0139272 6.3925781 6.9804688 C 6.4211604 6.9762865 6.4495132 6.9747686 6.4785156 6.9746094 z M 18.5 14 C 17.683418 14 17 14.683418 17 15.5 A 1 1 0 0 0 18 16.5 A 1 1 0 0 0 18.5 16 L 19.5 16 C 19.75 16 19.810226 16.05774 19.876953 16.132812 C 19.94368 16.207881 20 16.347222 20 16.5 C 20 16.652778 19.94368 16.792119 19.876953 16.867188 C 19.810226 16.942256 19.75 17 19.5 17 L 19 17 A 1.0001 1.0001 0 0 0 19 19 L 19.5 19 C 19.75 19 19.810226 19.05774 19.876953 19.132812 C 19.94368 19.207881 20 19.347222 20 19.5 C 20 19.652778 19.94368 19.792119 19.876953 19.867188 C 19.810226 19.942256 19.75 20 19.5 20 L 18.5 20 A 1 1 0 0 0 18 19.5 A 1 1 0 0 0 17 20.5 C 17 21.316582 17.683418 22 18.5 22 L 19.5 22 C 20.25 22 20.939774 21.682744 21.373047 21.195312 C 21.806319 20.707881 22 20.097222 22 19.5 C 22 18.971586 21.780472 18.454845 21.445312 18 C 21.780472 17.545155 22 17.028414 22 16.5 C 22 15.902778 21.806319 15.292119 21.373047 14.804688 C 20.939774 14.317255 20.25 14 19.5 14 L 18.5 14 z M 11 14.046875 L 11 19.537109 L 7.4511719 18.154297 C 6.8987637 17.939145 6.807786 17.313624 7.2753906 16.949219 L 11 14.046875 z " fill="currentColor"/>
</svg>
