<svg xmlns="http://www.w3.org/2000/svg" width="1em" height="1em" viewBox="0 0 24 24" fill="currentColor">
  <path d="M 11.955078 2.0019531 A 1.0001 1.0001 0 0 0 11 3 L 11 9.0898438 L 8.6269531 6.0449219 C 7.9983135 5.2382508 7.022775 4.9330391 6.1113281 5.0664062 C 5.1998812 5.1997735 4.3535829 5.7716427 3.9824219 6.7246094 L 2.0683594 11.636719 A 1.0001 1.0001 0 0 0 3 13 L 9.0898438 13 L 6.0449219 15.373047 C 4.4315797 16.630326 4.818676 19.275256 6.7246094 20.017578 L 11.636719 21.931641 A 1.0001 1.0001 0 0 0 13 21 L 13 14.910156 L 13.255859 15.238281 A 1 1 0 0 0 14.658203 15.412109 A 1 1 0 0 0 14.832031 14.009766 L 14.046875 13 L 16 13 A 1 1 0 0 0 17 12 A 1 1 0 0 0 16 11 L 14.910156 11 L 17.955078 8.6269531 C 19.56842 7.3696739 19.181324 4.7247439 17.275391 3.9824219 L 12.363281 2.0683594 A 1.0001 1.0001 0 0 0 11.955078 2.0019531 z M 13 4.4628906 L 16.548828 5.8457031 C 17.101236 6.0608548 17.192214 6.6863764 16.724609 7.0507812 L 13 9.953125 L 13 4.4628906 z M 6.4785156 6.9746094 C 6.6815328 6.9734945 6.8913541 7.070814 7.0507812 7.2753906 L 9.953125 11 L 4.4628906 11 L 5.8457031 7.4511719 C 5.9532789 7.1749678 6.1639197 7.0139272 6.3925781 6.9804688 C 6.4211604 6.9762865 6.4495132 6.9747686 6.4785156 6.9746094 z M 19 14 C 18.277778 14 17.542119 14.235347 16.960938 14.751953 C 16.379756 15.268559 16 16.083334 16 17 L 16 19 L 16 21 A 1 1 0 0 0 17 22 A 1 1 0 0 0 18 21 L 18 20 L 20 20 L 20 21 A 1 1 0 0 0 21 22 A 1 1 0 0 0 22 21 L 22 19 L 22 17 C 22 16.083334 21.620244 15.268559 21.039062 14.751953 C 20.457881 14.235347 19.722222 14 19 14 z M 11 14.046875 L 11 19.537109 L 7.4511719 18.154297 C 6.8987637 17.939145 6.807786 17.313624 7.2753906 16.949219 L 11 14.046875 z M 19 16 C 19.277778 16 19.542119 16.09799 19.710938 16.248047 C 19.879756 16.398107 20 16.583334 20 17 L 20 18 L 18 18 L 18 17 C 18 16.583334 18.120244 16.398107 18.289062 16.248047 C 18.457881 16.097986 18.722222 16 19 16 z " fill="currentColor"/>
</svg>
