<svg xmlns="http://www.w3.org/2000/svg" width="1em" height="1em" viewBox="0 0 24 24" fill="currentColor">
  <path d="M 7 4 A 1.0001 1.0001 0 0 0 6.1054688 4.5527344 L 4.1054688 8.5527344 A 1 1 0 0 0 4.0898438 8.5898438 A 1.0001 1.0001 0 0 0 4.0664062 8.6464844 A 1 1 0 0 0 4.0527344 8.6835938 A 1.0001 1.0001 0 0 0 4.0253906 8.7773438 A 1 1 0 0 0 4.0253906 8.7832031 A 1.0001 1.0001 0 0 0 4.0058594 8.8964844 A 1 1 0 0 0 4.0058594 8.9179688 A 1.0001 1.0001 0 0 0 4 9 A 1 1 0 0 0 4 9.0175781 L 4 11.814453 C 3.3206094 12.196001 2.703618 12.724562 2.1953125 13.404297 A 1 1 0 0 0 2.3984375 14.804688 A 1 1 0 0 0 3.796875 14.601562 C 5.4111897 12.442811 8.5832858 12.442115 10.199219 14.599609 A 1.0001 1.0001 0 0 0 11 15 L 14 15 A 1.0001 1.0001 0 0 0 14.800781 14.599609 C 15.555762 13.591286 16.740353 12.99899 18 13 C 19.260071 12.9989 20.44619 13.590758 21.201172 14.599609 A 1 1 0 0 0 21.205078 14.603516 A 1 1 0 0 0 21.382812 14.785156 A 1 1 0 0 0 21.386719 14.787109 A 1 1 0 0 0 21.595703 14.914062 A 1 1 0 0 0 21.597656 14.914062 A 1 1 0 0 0 21.859375 14.990234 A 1 1 0 0 0 21.861328 14.990234 A 1 1 0 0 0 22 15 A 1 1 0 0 0 22.119141 14.992188 A 1 1 0 0 0 22.373047 14.927734 A 1 1 0 0 0 22.382812 14.923828 A 1 1 0 0 0 22.490234 14.871094 A 1 1 0 0 0 22.5 14.865234 A 1 1 0 0 0 22.599609 14.800781 A 1 1 0 0 0 22.609375 14.792969 A 1 1 0 0 0 22.699219 14.714844 A 1 1 0 0 0 22.707031 14.707031 A 1 1 0 0 0 22.785156 14.619141 A 1 1 0 0 0 22.792969 14.609375 A 1 1 0 0 0 22.859375 14.509766 A 1 1 0 0 0 22.865234 14.5 A 1 1 0 0 0 22.878906 14.470703 A 1 1 0 0 0 22.923828 14.382812 A 1 1 0 0 0 22.962891 14.271484 A 1 1 0 0 0 22.962891 14.269531 A 1 1 0 0 0 22.990234 14.142578 A 1 1 0 0 0 22.990234 14.140625 A 1 1 0 0 0 23 14.013672 A 1 1 0 0 0 23 14 L 23 11 C 23 9.3549904 21.64501 8 20 8 L 18 8 L 17.78125 8 L 17.347656 6.2734375 L 17.347656 6.2714844 C 17.014516 4.9419662 15.808256 4.0002075 14.4375 4 L 7 4 z M 2 6 A 1 1 0 0 0 1 7 L 1 11 A 1 1 0 0 0 2 12 A 1 1 0 0 0 3 11 L 3 7 A 1 1 0 0 0 2 6 z M 7.6171875 6 L 9 6 L 9 8 L 6.6171875 8 L 7.6171875 6 z M 11 6 L 14.4375 6 C 14.901469 6.0000702 15.295691 6.3076928 15.408203 6.7578125 L 15.71875 8 L 11 8 L 11 6 z M 6 10 L 10 10 L 17 10 L 18 10 L 20 10 C 20.564129 10 21 10.435871 21 11 L 21 11.802734 C 20.099649 11.282609 19.067288 10.999091 18 11 C 16.325605 10.9987 14.807557 11.787678 13.679688 13 L 11.314453 13 C 9.9027489 11.490299 7.8894916 10.856761 6 11.134766 L 6 10 z M 7 14 C 6.2777779 14 5.5421194 14.235347 4.9609375 14.751953 C 4.3797556 15.268559 4 16.083334 4 17 C 4 17.916666 4.3797556 18.731441 4.9609375 19.248047 C 5.5421194 19.764653 6.2777779 20 7 20 C 7.7222221 20 8.4578806 19.764653 9.0390625 19.248047 C 9.6202444 18.731441 10 17.916666 10 17 C 10 16.083334 9.6202444 15.268559 9.0390625 14.751953 C 8.4578806 14.235347 7.7222221 14 7 14 z M 18 14 C 17.277778 14 16.542119 14.235347 15.960938 14.751953 C 15.379755 15.268559 15 16.083334 15 17 C 15 17.916666 15.379756 18.731441 15.960938 19.248047 C 16.542119 19.764653 17.277778 20 18 20 C 18.722222 20 19.457881 19.764653 20.039062 19.248047 C 20.620244 18.731441 21 17.916666 21 17 C 21 16.083334 20.620244 15.268559 20.039062 14.751953 C 19.457881 14.235347 18.722222 14 18 14 z M 7 16 C 7.2777779 16 7.5421194 16.09799 7.7109375 16.248047 C 7.8797556 16.398107 8 16.583334 8 17 C 8 17.416666 7.8797556 17.601893 7.7109375 17.751953 C 7.5421194 17.902014 7.2777779 18 7 18 C 6.7222221 18 6.4578806 17.902014 6.2890625 17.751953 C 6.1202444 17.601893 6 17.416666 6 17 C 6 16.583334 6.1202444 16.398107 6.2890625 16.248047 C 6.4578806 16.097986 6.7222221 16 7 16 z M 18 16 C 18.277778 16 18.542119 16.09799 18.710938 16.248047 C 18.879756 16.398107 19 16.583334 19 17 C 19 17.416666 18.879756 17.601893 18.710938 17.751953 C 18.542119 17.902014 18.277778 18 18 18 C 17.722222 18 17.457881 17.902014 17.289062 17.751953 C 17.120244 17.601893 17 17.416666 17 17 C 17 16.583334 17.120244 16.398107 17.289062 16.248047 C 17.457881 16.097986 17.722222 16 18 16 z " fill="currentColor"/>
</svg>
