<svg xmlns="http://www.w3.org/2000/svg" width="1em" height="1em" viewBox="0 0 24 24" fill="currentColor">
  <path d="M 11 1 A 1.0001 1.0001 0 0 0 10 2 L 10 4 A 1.0001 1.0001 0 0 0 11 5 L 11 6.6523438 L 8.8359375 7.0136719 A 1 1 0 0 0 8.0136719 8.1640625 A 1 1 0 0 0 9.1640625 8.9863281 L 11 8.6796875 L 11 9.6523438 L 8.8359375 10.013672 A 1 1 0 0 0 8.0136719 11.164062 A 1 1 0 0 0 9.1640625 11.986328 L 11 11.679688 L 11 12.652344 L 8.8359375 13.013672 A 1 1 0 0 0 8.0136719 14.164062 A 1 1 0 0 0 9.1640625 14.986328 L 11 14.679688 L 11 15.113281 C 10.184837 15.302975 9.4943375 15.719505 9.0019531 16.273438 C 8.3186806 17.042119 8 18.027778 8 19 C 8 19.972222 8.3186806 20.957881 9.0019531 21.726562 C 9.6852256 22.495244 10.75 23 12 23 C 13.25 23 14.314774 22.495244 14.998047 21.726562 C 15.681319 20.957881 16 19.972222 16 19 C 16 18.027778 15.681319 17.042119 14.998047 16.273438 C 14.505662 15.719506 13.815163 15.302975 13 15.113281 L 13 14.347656 L 15.164062 13.986328 A 1 1 0 0 0 15.986328 12.835938 A 1 1 0 0 0 14.835938 12.013672 L 13 12.320312 L 13 11.347656 L 15.164062 10.986328 A 1 1 0 0 0 15.986328 9.8359375 A 1 1 0 0 0 14.835938 9.0136719 L 13 9.3203125 L 13 8.3476562 L 15.164062 7.9863281 A 1 1 0 0 0 15.986328 6.8359375 A 1 1 0 0 0 14.835938 6.0136719 L 13 6.3203125 L 13 5 A 1.0001 1.0001 0 0 0 14 4 L 14 2 A 1 1 0 0 0 13 1 L 11 1 z M 12 17 C 12.749999 17 13.185226 17.245244 13.501953 17.601562 C 13.81868 17.957881 14 18.472222 14 19 C 14 19.527778 13.81868 20.042119 13.501953 20.398438 C 13.185226 20.754756 12.749999 21 12 21 C 11.250001 21 10.814774 20.754756 10.498047 20.398438 C 10.18132 20.042119 10 19.527778 10 19 C 10 18.472222 10.18132 17.957881 10.498047 17.601562 C 10.814774 17.245244 11.250001 17 12 17 z " fill="currentColor"/>
</svg>
