<svg xmlns="http://www.w3.org/2000/svg" width="1em" height="1em" viewBox="0 0 24 24" fill="currentColor">
  <path d="M 11.955078 2.0019531 A 1.0001 1.0001 0 0 0 11 3 L 11 9.0898438 L 8.6269531 6.0449219 C 7.9983135 5.2382508 7.022775 4.9330391 6.1113281 5.0664062 C 5.1998812 5.1997735 4.3535829 5.7716427 3.9824219 6.7246094 L 2.0683594 11.636719 A 1.0001 1.0001 0 0 0 3 13 L 9.0898438 13 L 6.0449219 15.373047 C 4.4315797 16.630326 4.818676 19.275256 6.7246094 20.017578 L 11.636719 21.931641 A 1.0001 1.0001 0 0 0 13 21 L 13 14.851562 L 13.642578 15.654297 A 1 1 0 0 0 15.048828 15.810547 A 1 1 0 0 0 15.205078 14.40625 L 14.080078 13 L 18 13 A 1 1 0 0 0 19 12 A 1 1 0 0 0 18 11 L 14.910156 11 L 17.955078 8.6269531 C 19.56842 7.3696739 19.181324 4.7247439 17.275391 3.9824219 L 12.363281 2.0683594 A 1.0001 1.0001 0 0 0 11.955078 2.0019531 z M 13 4.4628906 L 16.548828 5.8457031 C 17.101236 6.0608548 17.192214 6.6863764 16.724609 7.0507812 L 13 9.953125 L 13 4.4628906 z M 6.4785156 6.9746094 C 6.6815328 6.9734945 6.8913541 7.070814 7.0507812 7.2753906 L 9.953125 11 L 4.4628906 11 L 5.8457031 7.4511719 C 5.9532789 7.1749678 6.1639197 7.0139272 6.3925781 6.9804688 C 6.4211604 6.9762865 6.4495132 6.9747686 6.4785156 6.9746094 z M 20 14 A 1.0001 1.0001 0 0 0 19.292969 14.292969 L 17.292969 16.292969 A 1 1 0 0 0 17.292969 17.707031 A 1 1 0 0 0 18.707031 17.707031 L 19 17.414062 L 19 21 A 1 1 0 0 0 20 22 A 1 1 0 0 0 21 21 L 21 15 A 1.0001 1.0001 0 0 0 20.382812 14.076172 A 1.0001 1.0001 0 0 0 20 14 z M 11 14.046875 L 11 19.537109 L 7.4511719 18.154297 C 6.8987637 17.939145 6.807786 17.313624 7.2753906 16.949219 L 11 14.046875 z " fill="currentColor"/>
</svg>
