<svg xmlns="http://www.w3.org/2000/svg" width="1em" height="1em" viewBox="0 0 24 24" fill="currentColor">
  <path d="M 10 5 A 1.0001 1.0001 0 0 0 9.2929688 5.2929688 L 3.2929688 11.292969 A 1.0001 1.0001 0 0 0 3.2929688 12.707031 L 9.2929688 18.707031 A 1 1 0 0 0 10 19 A 1 1 0 0 0 10.707031 18.707031 A 1 1 0 0 0 10.707031 18.292969 A 1 1 0 0 0 11 18 L 11 6 A 1.0001 1.0001 0 0 0 10.382812 5.0761719 A 1.0001 1.0001 0 0 0 10 5 z M 14 5 A 1.0001 1.0001 0 0 0 13.617188 5.0761719 A 1.0001 1.0001 0 0 0 13 6 L 13 18 A 1 1 0 0 0 13.292969 18.292969 A 1 1 0 0 0 13.292969 18.707031 A 1 1 0 0 0 14 19 A 1 1 0 0 0 14.707031 18.707031 L 20.707031 12.707031 A 1.0001 1.0001 0 0 0 20.707031 11.292969 L 14.707031 5.2929688 A 1.0001 1.0001 0 0 0 14 5 z M 9 8.4140625 L 9 15.585938 L 5.4140625 12 L 9 8.4140625 z M 15 8.4140625 L 18.585938 12 L 15 15.585938 L 15 8.4140625 z " fill="currentColor"/>
</svg>
