<svg xmlns="http://www.w3.org/2000/svg" width="1em" height="1em" viewBox="0 0 24 24" fill="currentColor">
  <path d="M 5 5 C 3.3549904 5 2 6.3549904 2 8 L 2 16 C 2 17.64501 3.3549904 19 5 19 L 11 19 A 1 1 0 0 0 12 18 A 1 1 0 0 0 11 17 L 5 17 C 4.4358706 17 4 16.564129 4 16 L 4 8 C 4 7.4358706 4.4358706 7 5 7 L 19 7 C 19.564129 7 20 7.4358706 20 8 L 20 11 A 1 1 0 0 0 21 12 A 1 1 0 0 0 22 11 L 22 8 C 22 6.3549904 20.64501 5 19 5 L 5 5 z M 12 8 C 11.027778 8 10.042119 8.3186806 9.2734375 9.0019531 C 8.5047556 9.6852256 8 10.75 8 12 C 8 13.25 8.5047556 14.314774 9.2734375 14.998047 C 10.042119 15.681319 11.027778 16 12 16 C 12.972222 16 13.95788 15.681319 14.726562 14.998047 C 15.495243 14.314774 16 13.25 16 12 C 16 10.75 15.495244 9.6852256 14.726562 9.0019531 C 13.95788 8.3186806 12.972222 8 12 8 z M 12 10 C 12.527778 10 13.042119 10.18132 13.398438 10.498047 C 13.754755 10.814774 14 11.250001 14 12 C 14 12.749999 13.754756 13.185226 13.398438 13.501953 C 13.042118 13.81868 12.527778 14 12 14 C 11.472222 14 10.95788 13.81868 10.601562 13.501953 C 10.245243 13.185226 10 12.749999 10 12 C 10 11.250001 10.245244 10.814774 10.601562 10.498047 C 10.95788 10.18132 11.472222 10 12 10 z M 6 11 A 1 1 0 0 0 5 12 A 1 1 0 0 0 6 13 L 6.0097656 13 A 1 1 0 0 0 7.0097656 12 A 1 1 0 0 0 6.0097656 11 L 6 11 z M 19.753906 13.962891 C 19.042537 14.000813 18.304213 14.314534 17.716797 14.900391 L 17.714844 14.900391 L 17.714844 14.902344 L 17.712891 14.902344 A 1 1 0 0 0 17.712891 14.904297 L 14.296875 18.289062 A 1.0001 1.0001 0 0 0 14 19 L 14 22 A 1.0001 1.0001 0 0 0 15 23 L 18 23 A 1.0001 1.0001 0 0 0 18.710938 22.703125 L 22.097656 19.287109 L 22.099609 19.283203 C 22.769159 18.61187 23.08417 17.743391 23.037109 16.943359 C 22.989969 16.142036 22.626041 15.430729 22.097656 14.902344 C 21.569271 14.373959 20.857964 14.010027 20.056641 13.962891 C 19.956637 13.957008 19.85553 13.957473 19.753906 13.962891 z M 19.845703 15.957031 C 19.876968 15.956345 19.908134 15.957142 19.939453 15.958984 C 20.190004 15.973724 20.469479 16.102291 20.683594 16.316406 C 20.897709 16.530521 21.026277 16.809995 21.041016 17.060547 C 21.055756 17.311098 21.001816 17.554824 20.683594 17.873047 A 1.0001 1.0001 0 0 0 20.679688 17.876953 L 17.583984 21 L 16 21 L 16 19.416016 L 19.123047 16.320312 A 1 1 0 0 0 19.123047 16.316406 A 1 1 0 0 0 19.126953 16.316406 C 19.405398 16.037961 19.626852 15.961833 19.845703 15.957031 z " fill="currentColor"/>
</svg>
