<svg xmlns="http://www.w3.org/2000/svg" width="1em" height="1em" viewBox="0 0 24 24" fill="currentColor">
  <path d="M 4 4 C 2.9072751 4 2 4.9072751 2 6 L 2 14 C 2 15.092725 2.9072751 16 4 16 L 6 16 L 6 18 C 6 19.092725 6.9072751 20 8 20 L 12 20 A 1 1 0 0 0 13 19 A 1 1 0 0 0 12 18 L 8 18 L 8 10 L 20 10 L 20 12.5 A 1 1 0 0 0 21 13.5 A 1 1 0 0 0 22 12.5 L 22 10 C 22 8.9072751 21.092725 8 20 8 L 18 8 L 18 6 C 18 4.9072751 17.092725 4 16 4 L 4 4 z M 4 6 L 16 6 L 16 8 L 8 8 C 6.9072751 8 6 8.9072751 6 10 L 6 14 L 4 14 L 4 6 z M 13.953125 11.025391 C 13.197503 11.027437 12.438496 11.305973 11.853516 11.90625 C 10.293567 13.506998 11.045205 16.295734 13.199219 16.892578 A 1 1 0 0 0 14.431641 16.195312 A 1 1 0 0 0 13.734375 14.964844 C 12.95752 14.749589 12.722566 13.880038 13.285156 13.302734 C 13.847746 12.72543 14.721796 12.937944 14.957031 13.708984 A 1 1 0 0 0 16.205078 14.373047 A 1 1 0 0 0 16.871094 13.125 C 16.544971 12.056055 15.679132 11.350718 14.701172 11.113281 C 14.456682 11.053922 14.204999 11.024708 13.953125 11.025391 z M 19 15 A 1 1 0 0 0 18.292969 15.292969 L 15.302734 18.283203 L 15.292969 18.292969 A 1.0001 1.0001 0 0 0 15.25 18.341797 A 1 1 0 0 0 15.212891 18.384766 A 1.0001 1.0001 0 0 0 15.175781 18.439453 A 1 1 0 0 0 15.076172 18.617188 A 1 1 0 0 0 15.035156 18.742188 A 1 1 0 0 0 15.023438 18.794922 A 1.0001 1.0001 0 0 0 15 19 A 1.0001 1.0001 0 0 0 15.023438 19.205078 A 1.0001 1.0001 0 0 0 15.035156 19.257812 A 1 1 0 0 0 15.076172 19.382812 A 1 1 0 0 0 15.175781 19.560547 A 1.0001 1.0001 0 0 0 15.212891 19.615234 A 1 1 0 0 0 15.25 19.658203 A 1.0001 1.0001 0 0 0 15.292969 19.707031 A 1 1 0 0 0 15.302734 19.716797 L 18.292969 22.707031 A 1 1 0 0 0 19.707031 22.707031 A 1 1 0 0 0 19.707031 21.292969 L 18.414062 20 L 22 20 A 1 1 0 0 0 23 19 A 1 1 0 0 0 22 18 L 18.414062 18 L 19.707031 16.707031 A 1 1 0 0 0 19.707031 15.292969 A 1 1 0 0 0 19 15 z " fill="currentColor"/>
</svg>
