<svg xmlns="http://www.w3.org/2000/svg" width="1em" height="1em" viewBox="0 0 24 24" fill="currentColor">
  <path d="M 20 2 A 1 1 0 0 0 19.695312 2.3046875 A 1 1 0 0 0 19.265625 2.3222656 L 16.5 5.3164062 C 15.164494 4.5329104 13.657511 4.0003607 12.001953 4 L 12 4 C 10.455803 3.9979752 8.9790091 4.4759419 7.640625 5.2265625 L 4.7070312 2.2929688 A 1.0001 1.0001 0 0 0 3 3 L 3 13 C 3 13.687049 3.0777565 14.356485 3.2246094 15 L 2 15 A 1 1 0 0 0 1 16 A 1 1 0 0 0 2 17 L 3.9394531 17 C 4.0106022 17.142633 4.0856837 17.283639 4.1640625 17.421875 L 2.2929688 19.292969 A 1 1 0 0 0 2.2929688 20.707031 A 1 1 0 0 0 3.7070312 20.707031 L 5.3535156 19.060547 C 7.0011373 20.865642 9.3720702 22 12 22 C 14.62793 22 16.998863 20.865642 18.646484 19.060547 L 20.292969 20.707031 A 1 1 0 0 0 21.707031 20.707031 A 1 1 0 0 0 21.707031 19.292969 L 19.835938 17.421875 C 19.914316 17.283639 19.989398 17.142633 20.060547 17 L 22 17 A 1 1 0 0 0 23 16 A 1 1 0 0 0 22 15 L 20.775391 15 C 20.922243 14.356485 21 13.687049 21 13 L 21 3 A 1 1 0 0 0 20.695312 2.6953125 A 1 1 0 0 0 20.677734 2.265625 A 1 1 0 0 0 20.28125 2.28125 A 1 1 0 0 0 20 2 z M 5 5.4140625 L 6.7246094 7.1386719 A 1.0001 1.0001 0 0 0 8.0039062 7.2519531 C 9.175496 6.4346871 10.569572 5.9978157 11.998047 6 A 1.0001 1.0001 0 0 0 12 6 C 13.552682 6 14.976479 6.5004281 16.136719 7.3515625 A 1.0001 1.0001 0 0 0 17.462891 7.2246094 L 19 5.5585938 L 19 13 C 19 13.695528 18.900115 14.366747 18.712891 15 L 17 15 A 1.0001 1.0001 0 0 0 16.292969 16.707031 L 17.238281 17.652344 C 15.95785 19.094056 14.088639 20 12 20 C 9.9113608 20 8.0421503 19.094056 6.7617188 17.652344 L 7.7070312 16.707031 A 1.0001 1.0001 0 0 0 7 15 L 5.2871094 15 C 5.0998847 14.366747 5 13.695528 5 13 L 5 5.4140625 z M 9 10 A 1 1 0 0 0 8 11 L 8 11.009766 A 1 1 0 0 0 9 12.009766 A 1 1 0 0 0 10 11.009766 L 10 11 A 1 1 0 0 0 9 10 z M 15 10 A 1 1 0 0 0 14 11 L 14 11.009766 A 1 1 0 0 0 15 12.009766 A 1 1 0 0 0 16 11.009766 L 16 11 A 1 1 0 0 0 15 10 z M 12 14 C 11.527778 14 11.042119 14.152014 10.648438 14.501953 C 10.254755 14.851892 10 15.416667 10 16 C 10 16.583333 10.254756 17.148108 10.648438 17.498047 C 11.042118 17.847986 11.527778 18 12 18 C 12.472222 18 12.95788 17.847986 13.351562 17.498047 C 13.745243 17.148108 14 16.583333 14 16 C 14 15.416667 13.745244 14.851892 13.351562 14.501953 C 12.95788 14.152014 12.472222 14 12 14 z " fill="currentColor"/>
</svg>
