<svg xmlns="http://www.w3.org/2000/svg" width="1em" height="1em" viewBox="0 0 24 24" fill="currentColor">
  <path d="M 3 2 A 1 1 0 0 0 2.2929688 2.2929688 A 1 1 0 0 0 2.2929688 3.7070312 L 10.068359 11.482422 L 3.5078125 18.042969 C 2.9905927 18.557978 2.8859195 19.3399 3.1308594 19.931641 C 3.3755782 20.522847 4.0014161 21.000345 4.7304688 21 L 19.585938 21 L 20.292969 21.707031 A 1 1 0 0 0 21.707031 21.707031 A 1 1 0 0 0 21.707031 20.292969 L 20.716797 19.302734 A 1 1 0 0 0 20.697266 19.283203 L 3.7070312 2.2929688 A 1 1 0 0 0 3 2 z M 19.208984 3.0078125 C 19.125082 3.0112428 19.040487 3.0200389 18.957031 3.0351562 C 18.62321 3.0956252 18.300473 3.2511557 18.042969 3.5097656 L 12.771484 8.7792969 A 1 1 0 0 0 12.771484 10.193359 A 1 1 0 0 0 14.185547 10.193359 L 19 5.3808594 L 19 16.001953 A 1 1 0 0 0 20 17.001953 A 1 1 0 0 0 21 16.001953 L 21 4.734375 L 21 4.7324219 C 21.000347 4.0033678 20.522848 3.3755785 19.931641 3.1308594 C 19.709737 3.0390069 19.460692 2.9975216 19.208984 3.0078125 z M 11.482422 12.896484 L 17.585938 19 L 5.3808594 19 L 11.482422 12.896484 z " fill="currentColor"/>
</svg>
