<svg xmlns="http://www.w3.org/2000/svg" width="1em" height="1em" viewBox="0 0 24 24" fill="currentColor">
  <path d="M 5 4 C 3.3549904 4 2 5.3549904 2 7 L 2 17 C 2 18.64501 3.3549904 20 5 20 L 8 20 A 1 1 0 0 0 9 19 A 1 1 0 0 0 8 18 L 5 18 C 4.4358706 18 4 17.564129 4 17 L 4 7 C 4 6.4358706 4.4358706 6 5 6 L 19 6 C 19.564129 6 20 6.4358706 20 7 L 20 18 A 1 1 0 0 0 19 19 A 1 1 0 0 0 20 20 C 21.092725 20 22 19.092725 22 18 L 22 7 C 22 5.3549904 20.64501 4 19 4 L 5 4 z M 14 10.998047 C 13.277653 10.998227 12.542083 11.235119 11.960938 11.751953 C 11.379791 12.268788 10.999771 13.083167 11 14 C 11.000223 14.892197 11.358974 15.686961 11.914062 16.205078 C 10.798427 16.644088 10 17.736893 10 19 A 1 1 0 0 0 11 20 A 1 1 0 0 0 12 19 C 12 18.435871 12.435871 18 13 18 L 15 18 C 15.564129 18 16 18.435871 16 19 A 1 1 0 0 0 17 20 A 1 1 0 0 0 18 19 C 18 17.736845 17.20164 16.644055 16.085938 16.205078 C 16.641995 15.686752 17.002176 14.891349 17.001953 13.998047 C 17.001724 13.081214 16.620468 12.268497 16.039062 11.751953 C 15.457658 11.235409 14.722347 10.997866 14 10.998047 z M 14 12.998047 C 14.277903 12.997977 14.541987 13.095997 14.710938 13.246094 C 14.879886 13.396195 15.001849 13.583167 15.001953 14 C 15.002057 14.416833 14.879812 14.601767 14.710938 14.751953 C 14.542063 14.902139 14.277903 14.999931 14 15 C 13.722097 15.000069 13.458011 14.902055 13.289062 14.751953 C 13.120112 14.601852 13.000104 14.416833 13 14 C 12.999896 13.583167 13.120187 13.39628 13.289062 13.246094 C 13.457936 13.095908 13.722097 12.998116 14 12.998047 z " fill="currentColor"/>
</svg>
