<svg xmlns="http://www.w3.org/2000/svg" width="1em" height="1em" viewBox="0 0 24 24" fill="currentColor">
  <path d="M 6 3 C 4.3549904 3 3 4.3549904 3 6 L 3 8 L 3 19 A 1 1 0 0 0 2 20 A 1 1 0 0 0 3 21 L 15 21 A 1 1 0 0 0 16 20 A 1 1 0 0 0 15 19 L 15 12 C 15.564129 12 16 12.435871 16 13 L 16 16 C 16 16.75 16.317256 17.439774 16.804688 17.873047 C 17.292119 18.306319 17.902778 18.5 18.5 18.5 C 19.097222 18.5 19.707881 18.306319 20.195312 17.873047 C 20.682744 17.439774 21 16.75 21 16 L 21 9 A 1.0001 1.0001 0 0 0 20.707031 8.2929688 L 17.707031 5.2929688 A 1 1 0 0 0 16.292969 5.2929688 A 1 1 0 0 0 16.292969 6.7070312 L 16.585938 7 L 16.292969 7.2929688 A 1 1 0 0 0 16.292969 8.7070312 A 1 1 0 0 0 17.707031 8.7070312 L 18 8.4140625 L 19 9.4140625 L 19 16 C 19 16.25 18.94226 16.310226 18.867188 16.376953 C 18.792119 16.44368 18.652778 16.5 18.5 16.5 C 18.347222 16.5 18.207881 16.44368 18.132812 16.376953 C 18.057744 16.310226 18 16.25 18 16 L 18 13 C 18 11.35499 16.64501 10 15 10 L 15 8 L 15 6 C 15 4.3549904 13.64501 3 12 3 L 6 3 z M 6 5 L 12 5 C 12.564129 5 13 5.4358706 13 6 L 13 7 L 5 7 L 5 6 C 5 5.4358706 5.4358706 5 6 5 z M 5 9 L 13 9 L 13 19 L 5 19 L 5 9 z M 9.015625 10.5 A 1 1 0 0 0 8.1425781 10.986328 L 6.6425781 13.486328 A 1.0001 1.0001 0 0 0 7.5 15 L 8.734375 15 L 8.1425781 15.986328 A 1 1 0 0 0 8.4863281 17.357422 A 1 1 0 0 0 9.8574219 17.013672 L 11.357422 14.513672 A 1.0001 1.0001 0 0 0 10.5 13 L 9.265625 13 L 9.8574219 12.013672 A 1 1 0 0 0 9.5136719 10.642578 A 1 1 0 0 0 9.015625 10.5 z " fill="currentColor"/>
</svg>
