<svg xmlns="http://www.w3.org/2000/svg" width="1em" height="1em" viewBox="0 0 24 24" fill="currentColor">
  <path d="M 14.5 2 C 13.152778 2 11.792119 2.4436807 10.742188 3.3769531 C 9.6922551 4.3102255 9 5.7500005 9 7.5 C 9 9.2499995 9.6922551 10.689774 10.742188 11.623047 C 11.792118 12.556319 13.152778 13 14.5 13 C 15.847222 13 17.207881 12.556319 18.257812 11.623047 C 19.307744 10.689774 20 9.2499995 20 7.5 C 20 5.7500005 19.307744 4.3102255 18.257812 3.3769531 C 17.207881 2.4436807 15.847222 2 14.5 2 z M 14.5 4 C 15.402778 4 16.29212 4.3063199 16.929688 4.8730469 C 17.567256 5.4397738 18 6.2500008 18 7.5 C 18 8.7499992 17.567256 9.5602263 16.929688 10.126953 C 16.292119 10.69368 15.402778 11 14.5 11 C 13.597222 11 12.70788 10.69368 12.070312 10.126953 C 11.432743 9.5602263 11 8.7499992 11 7.5 C 11 6.2500008 11.432744 5.4397738 12.070312 4.8730469 C 12.70788 4.3063199 13.597222 4 14.5 4 z M 6 12 C 5.0277779 12 4.0421194 12.318681 3.2734375 13.001953 C 2.5047556 13.685226 2 14.75 2 16 C 2 17.25 2.5047556 18.314774 3.2734375 18.998047 C 4.0421194 19.681319 5.0277779 20 6 20 C 6.9722221 20 7.9578806 19.681319 8.7265625 18.998047 C 9.4952444 18.314774 10 17.25 10 16 C 10 14.75 9.4952444 13.685226 8.7265625 13.001953 C 7.9578806 12.318681 6.9722221 12 6 12 z M 6 14 C 6.5277779 14 7.0421194 14.18132 7.3984375 14.498047 C 7.7547556 14.814774 8 15.250001 8 16 C 8 16.749999 7.7547556 17.185226 7.3984375 17.501953 C 7.0421194 17.81868 6.5277779 18 6 18 C 5.4722221 18 4.9578806 17.81868 4.6015625 17.501953 C 4.2452444 17.185226 4 16.749999 4 16 C 4 15.250001 4.2452444 14.814774 4.6015625 14.498047 C 4.9578806 14.18132 5.4722221 14 6 14 z M 16 16 C 15.277778 16 14.542119 16.235347 13.960938 16.751953 C 13.379755 17.268559 13 18.083334 13 19 C 13 19.916666 13.379756 20.731441 13.960938 21.248047 C 14.542118 21.764653 15.277778 22 16 22 C 16.722222 22 17.457881 21.764653 18.039062 21.248047 C 18.620244 20.731441 19 19.916666 19 19 C 19 18.083334 18.620244 17.268559 18.039062 16.751953 C 17.457881 16.235347 16.722222 16 16 16 z M 16 18 C 16.277778 18 16.542119 18.09799 16.710938 18.248047 C 16.879756 18.398107 17 18.583334 17 19 C 17 19.416666 16.879756 19.601893 16.710938 19.751953 C 16.542119 19.902014 16.277778 20 16 20 C 15.722222 20 15.45788 19.902014 15.289062 19.751953 C 15.120243 19.601893 15 19.416666 15 19 C 15 18.583334 15.120244 18.398107 15.289062 18.248047 C 15.45788 18.097986 15.722222 18 16 18 z " fill="currentColor"/>
</svg>
