<svg xmlns="http://www.w3.org/2000/svg" width="1em" height="1em" viewBox="0 0 24 24" fill="currentColor">
  <path d="M 18 2 C 17.027778 2 16.042119 2.3186806 15.273438 3.0019531 C 14.695656 3.5155363 14.267126 4.2441555 14.089844 5.1054688 L 7.8046875 5.8925781 C 7.6373707 5.4398549 7.3708316 5.0468589 7.0390625 4.7519531 C 6.4578806 4.2353472 5.7222221 4 5 4 C 4.2777779 4 3.5421194 4.2353472 2.9609375 4.7519531 C 2.3797556 5.268559 2 6.0833335 2 7 C 2 7.9166665 2.3797556 8.731441 2.9609375 9.2480469 C 3.5421194 9.7646528 4.2777779 10 5 10 C 5.4872769 10 5.979795 9.892427 6.4277344 9.6640625 L 13.089844 14.244141 C 13.050437 14.408366 13.022862 14.579137 13.009766 14.753906 L 9.4140625 15.832031 C 9.2221588 15.515591 8.9903771 15.236455 8.7265625 15.001953 C 7.9578806 14.318681 6.9722221 14 6 14 C 5.0277779 14 4.0421194 14.318681 3.2734375 15.001953 C 2.5047556 15.685226 2 16.75 2 18 C 2 19.25 2.5047556 20.314774 3.2734375 20.998047 C 4.0421194 21.681319 5.0277779 22 6 22 C 6.9722221 22 7.9578806 21.681319 8.7265625 20.998047 C 9.4952444 20.314774 10 19.25 10 18 C 10 17.9142 9.9968659 17.830085 9.9921875 17.746094 L 13.490234 16.697266 C 13.625156 16.905303 13.783278 17.090127 13.960938 17.248047 C 14.542118 17.764653 15.277778 18 16 18 C 16.722222 18 17.457881 17.764653 18.039062 17.248047 C 18.620244 16.731441 19 15.916666 19 15 C 19 14.083334 18.620244 13.268559 18.039062 12.751953 C 17.457881 12.235347 16.722222 12 16 12 C 15.367983 12 14.725615 12.181039 14.185547 12.572266 L 7.78125 8.1679688 C 7.8156175 8.0805861 7.8463568 7.9902994 7.8730469 7.8984375 L 14.140625 7.1152344 C 14.341656 7.8803161 14.745776 8.5290145 15.273438 8.9980469 C 16.042119 9.6813194 17.027778 10 18 10 C 18.972222 10 19.957881 9.6813194 20.726562 8.9980469 C 21.495244 8.3147744 22 7.2499997 22 6 C 22 4.7500003 21.495244 3.6852256 20.726562 3.0019531 C 19.957881 2.3186806 18.972222 2 18 2 z M 18 4 C 18.527778 4 19.042119 4.1813198 19.398438 4.4980469 C 19.754756 4.8147739 20 5.2500005 20 6 C 20 6.7499995 19.754756 7.1852261 19.398438 7.5019531 C 19.042119 7.8186802 18.527778 8 18 8 C 17.472222 8 16.957881 7.8186802 16.601562 7.5019531 C 16.246408 7.1862607 16.001595 6.7533147 16 6.0078125 C 15.999995 6.0053694 16 6.0024498 16 6 A 1 1 0 0 0 16 5.9921875 C 16.001587 5.2466603 16.246402 4.8137451 16.601562 4.4980469 C 16.957881 4.1813198 17.472222 4 18 4 z M 5 6 C 5.2777779 6 5.5421194 6.0979864 5.7109375 6.2480469 C 5.8788287 6.3972833 5.9986889 6.5803307 6 6.9921875 A 1 1 0 0 0 6 7 C 6 7.0022757 6.0000072 7.0035975 6 7.0058594 C 5.9986958 7.4177415 5.8788336 7.6027123 5.7109375 7.7519531 C 5.5421194 7.9020136 5.2777779 8 5 8 C 4.7222221 8 4.4578806 7.9020136 4.2890625 7.7519531 C 4.1202444 7.6018927 4 7.4166663 4 7 C 4 6.5833337 4.1202444 6.3981073 4.2890625 6.2480469 C 4.4578806 6.0979864 4.7222221 6 5 6 z M 16 14 C 16.277778 14 16.542119 14.09799 16.710938 14.248047 C 16.879756 14.398107 17 14.583334 17 15 C 17 15.416666 16.879756 15.601893 16.710938 15.751953 C 16.542119 15.902014 16.277778 16 16 16 C 15.722222 16 15.45788 15.902014 15.289062 15.751953 C 15.120243 15.601893 15 15.416666 15 15 C 15 14.768345 15.03759 14.608635 15.099609 14.486328 A 1 1 0 0 0 15.134766 14.4375 A 1 1 0 0 0 15.1875 14.351562 C 15.218612 14.314064 15.252739 14.280334 15.289062 14.248047 C 15.45788 14.097986 15.722222 14 16 14 z M 6 16 C 6.5277779 16 7.0421194 16.18132 7.3984375 16.498047 C 7.7547556 16.814774 8 17.250001 8 18 C 8 18.749999 7.7547556 19.185226 7.3984375 19.501953 C 7.0421194 19.81868 6.5277779 20 6 20 C 5.4722221 20 4.9578806 19.81868 4.6015625 19.501953 C 4.2452444 19.185226 4 18.749999 4 18 C 4 17.250001 4.2452444 16.814774 4.6015625 16.498047 C 4.9578806 16.18132 5.4722221 16 6 16 z " fill="currentColor"/>
</svg>
