<svg xmlns="http://www.w3.org/2000/svg" width="1em" height="1em" viewBox="0 0 24 24" fill="currentColor">
  <path d="M 15.945312 5.0019531 A 1.0001 1.0001 0 0 0 15.21875 5.375 L 11.724609 9.7441406 L 8.4472656 8.1054688 A 1.0001 1.0001 0 0 0 7.1679688 8.4453125 L 3.1679688 14.445312 A 1 1 0 0 0 3.2324219 14.767578 A 1 1 0 0 0 3 15 A 1 1 0 0 0 3.3476562 15.347656 A 1 1 0 0 0 3.4453125 15.832031 A 1 1 0 0 0 3.9277344 15.927734 A 1 1 0 0 0 4 16 L 20 16 A 1.0001 1.0001 0 0 0 21 15 L 21 10 A 1.0001 1.0001 0 0 0 20.707031 9.2929688 L 16.707031 5.2929688 A 1.0001 1.0001 0 0 0 15.945312 5.0019531 z M 16.083984 7.4980469 L 19 10.414062 L 19 14 L 5.8691406 14 L 8.3417969 10.289062 L 11.552734 11.894531 A 1.0001 1.0001 0 0 0 12.78125 11.625 L 16.083984 7.4980469 z M 4 18 A 1 1 0 0 0 3 19 A 1 1 0 0 0 4 20 L 20 20 A 1 1 0 0 0 21 19 A 1 1 0 0 0 20 18 L 4 18 z " fill="currentColor"/>
</svg>
