<svg xmlns="http://www.w3.org/2000/svg" width="1em" height="1em" viewBox="0 0 24 24" fill="currentColor">
  <path d="M 12 2 A 1 1 0 0 0 11 3 A 1 1 0 0 0 12 4 C 17.565365 4.0002138 21.406293 9.4553725 19.53125 14.695312 C 17.656207 19.935251 11.225855 21.714295 6.9238281 18.183594 A 1 1 0 0 0 5.5175781 18.322266 A 1 1 0 0 0 5.65625 19.730469 C 10.979647 24.099414 19.093853 21.853131 21.414062 15.369141 C 23.734272 8.8851499 18.886671 2.0002646 12 2 z M 12 6 A 1 1 0 0 0 11 7 A 1 1 0 0 0 12 8 C 13.824432 8 15.113968 9.06508 15.695312 10.46875 C 16.276655 11.87242 16.117992 13.538258 14.828125 14.828125 C 13.538258 16.117992 11.87242 16.276655 10.46875 15.695312 C 9.06508 15.113969 8 13.824432 8 12 A 1 1 0 0 0 7 11 A 1 1 0 0 0 6 12 C 6 14.630402 7.6265332 16.682928 9.703125 17.542969 C 11.779717 18.403009 14.382393 18.101983 16.242188 16.242188 C 18.101982 14.382393 18.403009 11.779717 17.542969 9.703125 C 16.682928 7.6265332 14.630402 6 12 6 z M 12 10 C 11.527778 10 11.042119 10.152014 10.648438 10.501953 C 10.254755 10.851892 10 11.416667 10 12 C 10 12.583333 10.254756 13.148108 10.648438 13.498047 C 11.042118 13.847986 11.527778 14 12 14 C 12.472222 14 12.95788 13.847986 13.351562 13.498047 C 13.745243 13.148108 14 12.583333 14 12 C 14 11.416667 13.745244 10.851892 13.351562 10.501953 C 12.95788 10.152014 12.472222 10 12 10 z " fill="currentColor"/>
</svg>
