<svg xmlns="http://www.w3.org/2000/svg" width="1em" height="1em" viewBox="0 0 24 24" fill="currentColor">
  <path d="M 16 3 C 14.907275 3 14 3.9072751 14 5 L 14 7 L 10 7 C 8.9072751 7 8 7.9072751 8 9 L 8 11 L 4 11 C 2.9072751 11 2 11.907275 2 13 L 2 19 C 2 20.092725 2.9072751 21 4 21 L 8 21 L 10 21 L 14 21 L 16 21 L 18 21 L 20 21 C 21.092725 21 22 20.092725 22 19 L 22 5 C 22 3.9072751 21.092725 3 20 3 L 16 3 z M 16 5 L 20 5 L 20 19 L 18 19 L 16 19 L 16 9 L 16 5 z M 10 9 L 14 9 L 14 19 L 10 19 L 10 13 L 10 9 z M 4 13 L 8 13 L 8 19 L 4 19 L 4 13 z " fill="currentColor"/>
</svg>
