<svg xmlns="http://www.w3.org/2000/svg" width="1em" height="1em" viewBox="0 0 24 24" fill="currentColor">
  <path d="M 12 2 A 1 1 0 0 0 11 3 L 11 5 L 9 5 A 1 1 0 0 0 8 6 A 1 1 0 0 0 9 7 L 11 7 L 11 8.90625 C 10.344647 8.4035269 9.5853012 8.092311 8.7714844 8.0429688 C 7.2247778 7.9491907 5.630763 8.6180981 4.6972656 10.09375 C 3.3961889 12.150463 4.0602167 14.693477 5.7636719 16.046875 C 5.2889625 16.421206 5.00033 16.999182 5 17.617188 L 5 20 A 1.0001 1.0001 0 0 0 6 21 L 18 21 A 1.0001 1.0001 0 0 0 19 20 L 19 17.617188 C 18.99967 16.999182 18.711038 16.421206 18.236328 16.046875 C 19.939783 14.693477 20.603811 12.150463 19.302734 10.09375 C 17.872495 7.8328587 14.96538 7.5529809 13 8.9511719 L 13 7 L 15 7 A 1 1 0 0 0 16 6 A 1 1 0 0 0 15 5 L 13 5 L 13 3 A 1 1 0 0 0 12 2 z M 8.6542969 9.9707031 C 9.5036905 10.022195 10.326416 10.514154 10.759766 11.427734 A 1.0001 1.0001 0 0 0 11.662109 12 L 12 12 L 12.337891 12 A 1.0001 1.0001 0 0 0 13.240234 11.427734 C 14.106933 9.6005731 16.530236 9.4550958 17.611328 11.164062 C 18.69242 12.873029 17.522297 14.999583 15.5 15 L 8.5 15 C 6.4777026 14.999583 5.3075799 12.873028 6.3886719 11.164062 C 6.9292179 10.309578 7.8049032 9.9192112 8.6542969 9.9707031 z M 8.2363281 17 L 15.763672 17 L 17 17.619141 L 17 19 L 7 19 L 7 17.619141 L 8.2363281 17 z " fill="currentColor"/>
</svg>
