<svg xmlns="http://www.w3.org/2000/svg" width="1em" height="1em" viewBox="0 0 24 24" fill="currentColor">
  <path d="M 12 2 C 9.8027056 2 8 3.8027056 8 6 C 8 6.6928216 8.1788551 7.3777975 8.5039062 8 L 8 8 A 1 1 0 0 0 7 9 A 1 1 0 0 0 8 10 L 9.2636719 10 L 8.140625 15.232422 L 6.3691406 15.824219 A 1 1 0 0 0 6.3671875 15.824219 A 1 1 0 0 0 6.3671875 15.822266 C 5.5537434 16.093244 4.9997935 16.86333 5 17.720703 L 5 19 C 5 20.092725 5.9072751 21 7 21 L 17 21 C 18.092725 21 19 20.092725 19 19 L 19 17.720703 A 1.0001 1.0001 0 0 0 19 17.71875 C 18.99935 16.862098 18.44557 16.092968 17.632812 15.822266 L 17.632812 15.824219 L 15.859375 15.232422 L 14.736328 10 L 16 10 A 1 1 0 0 0 17 9 A 1 1 0 0 0 16 8 L 15.496094 8 C 15.821145 7.3777975 16 6.6928216 16 6 C 16 3.8027056 14.197294 2 12 2 z M 12 4 C 13.116414 4 14 4.8835859 14 6 C 14 6.6566204 13.550417 7.6106192 13.166016 8 L 10.833984 8 C 10.449583 7.6106192 10 6.6566204 10 6 C 10 4.8835859 10.883586 4 12 4 z M 11.308594 10 L 12.691406 10 L 13.761719 15 L 10.238281 15 L 11.308594 10 z M 9.1621094 17 L 14.837891 17 L 17 17.720703 L 17 19 L 7 19 L 7 17.720703 L 9.1621094 17 z " fill="currentColor"/>
</svg>
