<svg xmlns="http://www.w3.org/2000/svg" width="1em" height="1em" viewBox="0 0 24 24" fill="currentColor">
  <path d="M 5.9667969 3 A 1 1 0 0 0 5.8359375 3.0136719 A 1 1 0 0 0 5.0136719 4.1640625 L 5.5136719 7.1640625 A 1.0001 1.0001 0 0 0 6.5 8 L 7.8828125 8 L 7.0664062 15.349609 L 6.1054688 15.830078 C 5.4298968 16.167662 5.0004033 16.861966 5 17.617188 L 5 20 A 1.0001 1.0001 0 0 0 6 21 L 18 21 A 1.0001 1.0001 0 0 0 19 20 L 19 17.617188 C 18.999597 16.861966 18.570103 16.167662 17.894531 15.830078 L 16.933594 15.349609 L 16.117188 8 L 17.5 8 A 1.0001 1.0001 0 0 0 18.486328 7.1640625 L 18.986328 4.1640625 A 1 1 0 0 0 18.164062 3.0136719 A 1 1 0 0 0 17.013672 3.8359375 L 16.652344 6 L 15 6 L 15 4 A 1 1 0 0 0 14 3 A 1 1 0 0 0 13 4 L 13 6 L 11 6 L 11 4 A 1 1 0 0 0 10 3 A 1 1 0 0 0 9 4 L 9 6 L 7.3476562 6 L 6.9863281 3.8359375 A 1 1 0 0 0 5.9667969 3 z M 9.8945312 8 L 14 8 L 14.105469 8 L 14.882812 15 L 9.1171875 15 L 9.8945312 8 z M 8.2363281 17 L 15.763672 17 L 17 17.619141 L 17 19 L 7 19 L 7 17.619141 L 8.2363281 17 z " fill="currentColor"/>
</svg>
