<svg xmlns="http://www.w3.org/2000/svg" width="1em" height="1em" viewBox="0 0 24 24" fill="currentColor">
  <path d="M 12 2 C 11.527778 2 11.042119 2.1520138 10.648438 2.5019531 C 10.254755 2.8518924 10 3.4166667 10 4 C 10 4.4620748 10.159744 4.9126777 10.421875 5.2539062 L 9.6347656 7.2207031 L 7.9335938 5.5195312 C 7.9770587 5.351815 8 5.176559 8 5 C 8 4.4166667 7.7452444 3.8518924 7.3515625 3.5019531 C 6.9578806 3.1520138 6.4722221 3 6 3 C 5.5277779 3 5.0421194 3.1520138 4.6484375 3.5019531 C 4.2547556 3.8518924 4 4.4166667 4 5 C 4 5.5833333 4.2547556 6.1481076 4.6484375 6.4980469 C 4.854424 6.6811459 5.0849243 6.8093217 5.3261719 6.890625 L 6.8808594 15.441406 L 6.1054688 15.830078 C 5.4298968 16.167662 5.0004033 16.861966 5 17.617188 L 5 20 A 1.0001 1.0001 0 0 0 6 21 L 18 21 A 1.0001 1.0001 0 0 0 19 20 L 19 17.617188 C 18.999597 16.861966 18.570103 16.167662 17.894531 15.830078 L 17.119141 15.441406 L 18.673828 6.890625 C 18.915076 6.8093217 19.145576 6.6811459 19.351562 6.4980469 C 19.745244 6.1481076 20 5.5833333 20 5 C 20 4.4166667 19.745244 3.8518924 19.351562 3.5019531 C 18.957881 3.1520138 18.472222 3 18 3 C 17.527778 3 17.042119 3.1520138 16.648438 3.5019531 C 16.254756 3.8518924 16 4.4166667 16 5 C 16 5.176559 16.022941 5.351815 16.066406 5.5195312 L 14.365234 7.2207031 L 13.578125 5.2539062 C 13.840255 4.9126776 14 4.4620751 14 4 C 14 3.4166667 13.745244 2.8518924 13.351562 2.5019531 C 12.95788 2.1520138 12.472222 2 12 2 z M 12 6.6914062 L 13.072266 9.3710938 A 1.0001 1.0001 0 0 0 14.707031 9.7070312 L 16.443359 7.9707031 L 15.164062 15 L 8.8359375 15 L 7.5566406 7.9707031 L 9.2929688 9.7070312 A 1.0001 1.0001 0 0 0 10.927734 9.3710938 L 12 6.6914062 z M 8.2363281 17 L 15.763672 17 L 17 17.619141 L 17 19 L 7 19 L 7 17.619141 L 8.2363281 17 z " fill="currentColor"/>
</svg>
