<svg xmlns="http://www.w3.org/2000/svg" width="1em" height="1em" viewBox="0 0 24 24" fill="currentColor">
  <path d="M 12 2 A 1 1 0 0 0 11.292969 2.2929688 L 7.2929688 6.2929688 A 1.0001 1.0001 0 0 0 7.5527344 7.8945312 L 8.3125 8.2734375 L 5.2929688 11.292969 A 1.0001 1.0001 0 0 0 5.6835938 12.949219 L 7.1484375 13.4375 L 4.2929688 16.292969 A 1.0001 1.0001 0 0 0 5 18 L 9 18 L 9 20 C 9 21.092725 9.9072751 22 11 22 L 13 22 C 14.092725 22 15 21.092725 15 20 L 15 18 L 19 18 A 1.0001 1.0001 0 0 0 19.707031 16.292969 L 16.851562 13.4375 L 18.316406 12.949219 A 1.0001 1.0001 0 0 0 18.707031 11.292969 L 15.6875 8.2734375 L 16.447266 7.8945312 A 1.0001 1.0001 0 0 0 16.707031 6.2929688 L 12.707031 2.2929688 A 1 1 0 0 0 12 2 z M 12 4.4140625 L 14.3125 6.7265625 L 13.552734 7.1054688 A 1.0001 1.0001 0 0 0 13.292969 8.7070312 L 16.148438 11.5625 L 14.683594 12.050781 A 1.0001 1.0001 0 0 0 14.292969 13.707031 L 16.585938 16 L 14 16 L 10 16 L 7.4140625 16 L 9.7070312 13.707031 A 1.0001 1.0001 0 0 0 9.3164062 12.050781 L 7.8515625 11.5625 L 10.707031 8.7070312 A 1.0001 1.0001 0 0 0 10.447266 7.1054688 L 9.6875 6.7265625 L 12 4.4140625 z M 11 18 L 13 18 L 13 20 L 11 20 L 11 18 z " fill="currentColor"/>
</svg>
