<svg xmlns="http://www.w3.org/2000/svg" width="1em" height="1em" viewBox="0 0 24 24" fill="currentColor">
  <path d="M 12 2 A 1 1 0 0 0 11 3 L 11 3.0097656 A 1 1 0 0 0 12 4.0097656 A 1 1 0 0 0 13 3.0097656 L 13 3 A 1 1 0 0 0 12 2 z M 7.5 3.2109375 A 1 1 0 0 0 6.5 4.2109375 L 6.5 4.2207031 A 1 1 0 0 0 7.5 5.2207031 A 1 1 0 0 0 8.5 4.2207031 L 8.5 4.2109375 A 1 1 0 0 0 7.5 3.2109375 z M 16.5 3.2109375 A 1 1 0 0 0 15.5 4.2109375 L 15.5 4.2207031 A 1 1 0 0 0 16.5 5.2207031 A 1 1 0 0 0 17.5 4.2207031 L 17.5 4.2109375 A 1 1 0 0 0 16.5 3.2109375 z M 4.2109375 6.5 A 1 1 0 0 0 3.2109375 7.5 L 3.2109375 7.5097656 A 1 1 0 0 0 4.2109375 8.5097656 A 1 1 0 0 0 5.2109375 7.5097656 L 5.2109375 7.5 A 1 1 0 0 0 4.2109375 6.5 z M 19.789062 6.5 A 1 1 0 0 0 18.789062 7.5 L 18.789062 7.5097656 A 1 1 0 0 0 19.789062 8.5097656 A 1 1 0 0 0 20.789062 7.5097656 L 20.789062 7.5 A 1 1 0 0 0 19.789062 6.5 z M 10 7 A 1.0001 1.0001 0 0 0 9 8 L 9 16 A 1 1 0 0 0 10 17 L 12 17 C 12.916666 17 13.731441 16.620244 14.248047 16.039062 C 14.764653 15.457881 15 14.722222 15 14 C 15 13.291529 14.758021 12.575838 14.261719 12 C 14.758021 11.424162 15 10.708471 15 10 C 15 9.2777779 14.764653 8.5421194 14.248047 7.9609375 C 13.731441 7.3797556 12.916666 7 12 7 L 10 7 z M 11 9 L 12 9 C 12.416666 9 12.601893 9.1202444 12.751953 9.2890625 C 12.902014 9.4578806 13 9.7222221 13 10 C 13 10.277778 12.90201 10.542119 12.751953 10.710938 C 12.601893 10.879755 12.416666 11 12 11 L 11 11 L 11 9 z M 3 11 A 1 1 0 0 0 2 12 L 2 12.009766 A 1 1 0 0 0 3 13.009766 A 1 1 0 0 0 4 12.009766 L 4 12 A 1 1 0 0 0 3 11 z M 21 11 A 1 1 0 0 0 20 12 L 20 12.009766 A 1 1 0 0 0 21 13.009766 A 1 1 0 0 0 22 12.009766 L 22 12 A 1 1 0 0 0 21 11 z M 11 13 L 12 13 C 12.416666 13 12.601893 13.120244 12.751953 13.289062 C 12.902014 13.45788 13 13.722222 13 14 C 13 14.277778 12.90201 14.542119 12.751953 14.710938 C 12.601893 14.879755 12.416666 15 12 15 L 11 15 L 11 13 z M 4.2109375 15.5 A 1 1 0 0 0 3.2109375 16.5 L 3.2109375 16.509766 A 1 1 0 0 0 4.2109375 17.509766 A 1 1 0 0 0 5.2109375 16.509766 L 5.2109375 16.5 A 1 1 0 0 0 4.2109375 15.5 z M 19.789062 15.5 A 1 1 0 0 0 18.789062 16.5 L 18.789062 16.509766 A 1 1 0 0 0 19.789062 17.509766 A 1 1 0 0 0 20.789062 16.509766 L 20.789062 16.5 A 1 1 0 0 0 19.789062 15.5 z M 7.5 18.789062 A 1 1 0 0 0 6.5 19.789062 L 6.5 19.800781 A 1 1 0 0 0 7.5 20.800781 A 1 1 0 0 0 8.5 19.800781 L 8.5 19.789062 A 1 1 0 0 0 7.5 18.789062 z M 16.5 18.789062 A 1 1 0 0 0 15.5 19.789062 L 15.5 19.800781 A 1 1 0 0 0 16.5 20.800781 A 1 1 0 0 0 17.5 19.800781 L 17.5 19.789062 A 1 1 0 0 0 16.5 18.789062 z M 12 20 A 1 1 0 0 0 11 21 L 11 21.009766 A 1 1 0 0 0 12 22.009766 A 1 1 0 0 0 13 21.009766 L 13 21 A 1 1 0 0 0 12 20 z " fill="currentColor"/>
</svg>
