<svg xmlns="http://www.w3.org/2000/svg" width="1em" height="1em" viewBox="0 0 24 24" fill="currentColor">
  <path d="M 12 2 C 6.4889982 2 2 6.4889941 2 12 C 2 17.511006 6.4889982 22 12 22 C 17.511002 22 22 17.511006 22 12 C 22 6.4889941 17.511002 2 12 2 z M 12 4 C 16.430123 4 20 7.5698737 20 12 C 20 16.430126 16.430123 20 12 20 C 7.5698765 20 4 16.430126 4 12 C 4 7.5698737 7.5698765 4 12 4 z M 9.0058594 7 A 1 1 0 0 0 8.875 7.0078125 A 1 1 0 0 0 8.0078125 8.125 L 9.0078125 16.125 A 1.0001 1.0001 0 0 0 10.927734 16.371094 L 12 13.691406 L 13.072266 16.371094 A 1.0001 1.0001 0 0 0 14.992188 16.125 L 15.992188 8.125 A 1 1 0 0 0 15.125 7.0078125 A 1 1 0 0 0 14.007812 7.875 L 13.488281 12.03125 L 12.927734 10.628906 A 1.0001 1.0001 0 0 0 11.072266 10.628906 L 10.511719 12.03125 L 9.9921875 7.875 A 1 1 0 0 0 9.0058594 7 z " fill="currentColor"/>
</svg>
