<svg xmlns="http://www.w3.org/2000/svg" width="1em" height="1em" viewBox="0 0 24 24" fill="currentColor">
  <path d="M 12 2 C 6.4889982 2 2 6.4889941 2 12 C 2 17.511006 6.4889982 22 12 22 C 17.511002 22 22 17.511006 22 12 C 22 6.4889941 17.511002 2 12 2 z M 12 4 C 16.430123 4 20 7.5698737 20 12 C 20 16.430126 16.430123 20 12 20 C 7.5698765 20 4 16.430126 4 12 C 4 7.5698737 7.5698765 4 12 4 z M 10 7 A 1.0001 1.0001 0 0 0 9 8 L 9 12 A 1.0001 1.0001 0 0 0 10 13 L 13 13 L 13 15 L 11 15 A 1 1 0 0 0 10 14 A 1 1 0 0 0 9 15 C 9 16.092725 9.9072751 17 11 17 L 13 17 C 14.092725 17 15 16.092725 15 15 L 15 13 C 15 11.907275 14.092725 11 13 11 L 11 11 L 11 9 L 14 9 A 1 1 0 0 0 15 8 A 1 1 0 0 0 14 7 L 10 7 z " fill="currentColor"/>
</svg>
