<svg xmlns="http://www.w3.org/2000/svg" width="1em" height="1em" viewBox="0 0 24 24" fill="currentColor">
  <path d="M 12 2 C 6.4889982 2 2 6.4889941 2 12 C 2 17.511006 6.4889982 22 12 22 C 17.511002 22 22 17.511006 22 12 C 22 6.4889941 17.511002 2 12 2 z M 12 4 C 16.430123 4 20 7.5698737 20 12 C 20 16.430126 16.430123 20 12 20 C 7.5698765 20 4 16.430126 4 12 C 4 7.5698737 7.5698765 4 12 4 z M 10 7 A 1 1 0 0 0 9 8 L 9 12 L 9 16 A 1 1 0 0 0 10 17 A 1 1 0 0 0 11 16 L 11 13.085938 L 13.152344 16.529297 A 1 1 0 0 0 14.529297 16.847656 A 1 1 0 0 0 14.847656 15.470703 L 12.679688 12 L 14.847656 8.5292969 A 1 1 0 0 0 14.529297 7.1523438 A 1 1 0 0 0 13.775391 7.0253906 A 1 1 0 0 0 13.152344 7.4707031 L 11 10.914062 L 11 8 A 1 1 0 0 0 10 7 z " fill="currentColor"/>
</svg>
