<svg xmlns="http://www.w3.org/2000/svg" width="1em" height="1em" viewBox="0 0 24 24" fill="currentColor">
  <path d="M 12 6 C 10.527778 6 9.0421194 6.4853474 7.8984375 7.5019531 C 6.9606929 8.3355035 6.2834537 9.5375845 6.0703125 11 L 2 11 A 1 1 0 0 0 1 12 A 1 1 0 0 0 2 13 L 6.0839844 13 C 6.5631287 15.829684 9.0386572 18 12 18 C 14.961343 18 17.436871 15.829684 17.916016 13 L 22 13 A 1 1 0 0 0 23 12 A 1 1 0 0 0 22 11 L 17.929688 11 C 17.716546 9.5375845 17.039307 8.3355035 16.101562 7.5019531 C 14.957881 6.4853474 13.472222 6 12 6 z M 12 8 C 12.730679 8 13.45399 8.1764559 14.074219 8.5117188 L 12 10.585938 L 9.9257812 8.5117188 C 10.54601 8.176456 11.269321 8 12 8 z M 8.4921875 9.90625 L 10.585938 12 L 8.5507812 14.035156 C 8.2007793 13.440004 8 12.745142 8 12 C 8 11.138411 8.1841236 10.455839 8.4921875 9.90625 z M 15.507812 9.90625 C 15.815876 10.455839 16 11.138411 16 12 C 16 12.745142 15.799221 13.440004 15.449219 14.035156 L 13.414062 12 L 15.507812 9.90625 z M 12 13.414062 L 14.035156 15.449219 C 13.440003 15.799221 12.745142 16 12 16 C 11.254858 16 10.559997 15.799221 9.9648438 15.449219 L 12 13.414062 z " fill="currentColor"/>
</svg>
