<svg xmlns="http://www.w3.org/2000/svg" width="1em" height="1em" viewBox="0 0 24 24" fill="currentColor">
  <path d="M 16.283203 4.9902344 C 14.787515 4.9373484 13.320336 5.3742139 12.115234 6.1777344 C 9.7050316 7.7847753 8.2403609 10.922788 9.3691406 14.25 A 1 1 0 0 0 10.638672 14.876953 A 1 1 0 0 0 11.263672 13.607422 C 10.418465 11.116075 11.47234 9.0101498 13.224609 7.8417969 C 14.976878 6.673444 17.32664 6.5118917 19.300781 8.2480469 C 21.274922 9.9842021 21.413427 12.33548 20.478516 14.222656 C 19.543604 16.109833 17.588679 17.422334 15.009766 16.902344 A 1 1 0 0 0 13.832031 17.685547 A 1 1 0 0 0 14.615234 18.863281 C 18.059392 19.557732 20.985536 17.70514 22.271484 15.109375 C 23.557432 12.51361 23.258257 9.0653423 20.621094 6.7460938 C 19.302512 5.5864695 17.778892 5.0431201 16.283203 4.9902344 z M 8.1171875 4.9921875 C 7.7051793 4.9816136 7.3029013 5.0080825 6.9140625 5.0664062 C 4.5810301 5.4163486 2.697344 6.9428248 1.7324219 8.8867188 C 0.44585895 11.478577 0.73949546 14.922265 3.3671875 17.244141 C 5.9948795 19.566016 9.4495166 19.433734 11.863281 17.837891 C 14.277046 16.242048 15.751449 13.115321 14.642578 9.7871094 A 1 1 0 0 0 13.376953 9.1542969 A 1 1 0 0 0 12.746094 10.419922 C 13.576233 12.911536 12.514471 15.009812 10.759766 16.169922 C 9.0050602 17.330032 6.6580881 17.483889 4.6914062 15.746094 C 2.7247244 14.008299 2.5881607 11.659562 3.5234375 9.7753906 C 4.4587143 7.891219 6.4114724 6.5805563 8.9863281 7.0976562 A 1 1 0 0 0 10.164062 6.3144531 A 1 1 0 0 0 9.3808594 5.1367188 C 8.9509341 5.0503782 8.5291957 5.0027614 8.1171875 4.9921875 z " fill="currentColor"/>
</svg>
