<svg xmlns="http://www.w3.org/2000/svg" width="1em" height="1em" viewBox="0 0 24 24" fill="currentColor">
  <path d="M 11.582031 2.0136719 C 10.968465 2.0397732 10.349534 2.1234104 9.7324219 2.2675781 C 4.7955267 3.4209198 1.4917048 8.1062344 2.0703125 13.142578 C 2.6489326 18.17903 6.9294441 21.996874 12 22 A 1.0001 1.0001 0 0 0 13 21 L 13 10.414062 L 15.292969 12.707031 A 1 1 0 0 0 16.707031 12.707031 A 1 1 0 0 0 16.707031 11.292969 L 12.716797 7.3027344 A 1 1 0 0 0 12.658203 7.25 A 1.0001 1.0001 0 0 0 12.615234 7.2128906 A 1 1 0 0 0 12.560547 7.1757812 A 1.0001 1.0001 0 0 0 12.382812 7.0761719 A 1 1 0 0 0 12.257812 7.0351562 A 1.0001 1.0001 0 0 0 12.205078 7.0234375 A 1.0001 1.0001 0 0 0 12 7 A 1.0001 1.0001 0 0 0 11.794922 7.0234375 A 1 1 0 0 0 11.742188 7.0351562 A 1 1 0 0 0 11.617188 7.0761719 A 1 1 0 0 0 11.611328 7.078125 A 1.0001 1.0001 0 0 0 11.5 7.1347656 A 1 1 0 0 0 11.439453 7.1757812 A 1.0001 1.0001 0 0 0 11.384766 7.2128906 A 1 1 0 0 0 11.341797 7.25 A 1.0001 1.0001 0 0 0 11.292969 7.2929688 A 1 1 0 0 0 11.283203 7.3027344 L 7.2929688 11.292969 A 1 1 0 0 0 7.2929688 12.707031 A 1 1 0 0 0 8.7070312 12.707031 L 11 10.414062 L 11 19.814453 C 7.4011579 19.346463 4.4829652 16.607895 4.0585938 12.914062 C 3.5940938 8.87094 6.2230171 5.1410137 10.1875 4.2148438 C 14.151983 3.2886739 18.16026 5.46839 19.535156 9.2988281 C 20.910089 13.12937 19.203266 17.363974 15.554688 19.169922 A 1 1 0 0 0 15.101562 20.509766 A 1 1 0 0 0 16.441406 20.962891 C 20.985751 18.713562 23.130655 13.394562 21.417969 8.6230469 C 20.133482 5.0444873 16.979941 2.6105792 13.400391 2.1035156 C 12.803799 2.019005 12.195598 1.9875705 11.582031 2.0136719 z " fill="currentColor"/>
</svg>
