<svg xmlns="http://www.w3.org/2000/svg" width="1em" height="1em" viewBox="0 0 24 24" fill="currentColor">
  <path d="M 12 6 A 1.0001 1.0001 0 0 0 11.042969 6.7128906 L 9 13.523438 L 6.9570312 6.7128906 A 1.0001 1.0001 0 0 0 5.0722656 6.6289062 L 3.3222656 11 L 2 11 A 1 1 0 0 0 1 12 A 1 1 0 0 0 2 13 L 4 13 A 1.0001 1.0001 0 0 0 4.9277344 12.371094 L 5.8652344 10.027344 L 8.0429688 17.287109 A 1.0001 1.0001 0 0 0 9.9570312 17.287109 L 12 10.476562 L 14.042969 17.287109 A 1.0001 1.0001 0 0 0 15.957031 17.287109 L 18 10.476562 L 18.542969 12.287109 A 1.0001 1.0001 0 0 0 19.5 13 L 22 13 A 1 1 0 0 0 23 12 A 1 1 0 0 0 22 11 L 20.244141 11 L 18.957031 6.7128906 A 1.0001 1.0001 0 0 0 17.042969 6.7128906 L 15 13.523438 L 12.957031 6.7128906 A 1.0001 1.0001 0 0 0 12 6 z " fill="currentColor"/>
</svg>
