<svg xmlns="http://www.w3.org/2000/svg" width="1em" height="1em" viewBox="0 0 24 24" fill="currentColor">
  <path d="M 15.021484 4 A 1 1 0 0 0 14.408203 4.1933594 L 7.4101562 9.3261719 C 6.967337 9.1044692 6.4803283 9 6 9 C 5.2777779 9 4.5421194 9.2353472 3.9609375 9.7519531 C 3.6029744 10.070142 3.3216719 10.501445 3.1582031 11 L 2 11 A 1 1 0 0 0 1 12 A 1 1 0 0 0 2 13 L 3.1582031 13 C 3.3216719 13.498555 3.6029744 13.929858 3.9609375 14.248047 C 4.5421194 14.764653 5.2777779 15 6 15 C 6.7222221 15 7.4578806 14.764653 8.0390625 14.248047 C 8.6202444 13.731441 9 12.916666 9 12 C 9 11.574066 8.9175761 11.170839 8.7714844 10.808594 L 15.591797 5.8066406 A 1 1 0 0 0 15.806641 4.4082031 A 1 1 0 0 0 15.021484 4 z M 18 9 C 17.277778 9 16.542119 9.2353472 15.960938 9.7519531 C 15.379755 10.268559 15 11.083334 15 12 C 15 12.916666 15.379756 13.731441 15.960938 14.248047 C 16.542119 14.764653 17.277778 15 18 15 C 18.722222 15 19.457881 14.764653 20.039062 14.248047 C 20.397026 13.929858 20.678328 13.498555 20.841797 13 L 22 13 A 1 1 0 0 0 23 12 A 1 1 0 0 0 22 11 L 20.841797 11 C 20.678328 10.501445 20.397026 10.070142 20.039062 9.7519531 C 19.457881 9.2353472 18.722222 9 18 9 z M 6 11 C 6.2777779 11 6.5421194 11.09799 6.7109375 11.248047 C 6.8797556 11.398107 7 11.583334 7 12 C 7 12.416666 6.8797556 12.601893 6.7109375 12.751953 C 6.5421194 12.902014 6.2777779 13 6 13 C 5.7222221 13 5.4578806 12.902014 5.2890625 12.751953 C 5.120245 12.601894 5.0000009 12.416663 5 12 C 5 11.583334 5.1202444 11.398107 5.2890625 11.248047 C 5.4578806 11.097986 5.7222221 11 6 11 z M 18 11 C 18.277778 11 18.542119 11.09799 18.710938 11.248047 C 18.879756 11.398107 19 11.583334 19 12 C 19 12.416666 18.879756 12.601893 18.710938 12.751953 C 18.542119 12.902014 18.277778 13 18 13 C 17.722222 13 17.457881 12.902014 17.289062 12.751953 C 17.120244 12.601893 17 12.416666 17 12 C 17 11.583334 17.120244 11.398107 17.289062 11.248047 C 17.457881 11.097986 17.722222 11 18 11 z " fill="currentColor"/>
</svg>
