<svg xmlns="http://www.w3.org/2000/svg" width="1em" height="1em" viewBox="0 0 24 24" fill="currentColor">
  <path d="M 12 2 A 1 1 0 0 0 11 3 L 11 12 L 6 12 A 1.0001 1.0001 0 0 0 5.1992188 13.599609 L 11.199219 21.599609 A 1 1 0 0 0 11.326172 21.673828 A 1 1 0 0 0 11.400391 21.800781 A 1 1 0 0 0 11.644531 21.863281 A 1 1 0 0 0 12 21.955078 A 1 1 0 0 0 12.355469 21.863281 A 1 1 0 0 0 12.599609 21.800781 A 1 1 0 0 0 12.673828 21.673828 A 1 1 0 0 0 12.800781 21.599609 L 18.800781 13.599609 A 1.0001 1.0001 0 0 0 18 12 L 13 12 L 13 3 A 1 1 0 0 0 12 2 z M 8 14 L 12 14 L 16 14 L 12 19.332031 L 8 14 z " fill="currentColor"/>
</svg>
