<svg xmlns="http://www.w3.org/2000/svg" width="1em" height="1em" viewBox="0 0 24 24" fill="currentColor">
  <path d="M 12 2 A 1 1 0 0 0 11 3 L 11 6 A 1 1 0 0 0 12 7 A 1 1 0 0 0 13 6 L 13 3 A 1 1 0 0 0 12 2 z M 5.5996094 4.5996094 A 1 1 0 0 0 4.8925781 4.8925781 A 1 1 0 0 0 4.8925781 6.3066406 L 7.09375 8.5078125 A 1 1 0 0 0 8.5078125 8.5078125 A 1 1 0 0 0 8.5078125 7.09375 L 6.3066406 4.8925781 A 1 1 0 0 0 5.5996094 4.5996094 z M 18.400391 4.5996094 A 1 1 0 0 0 17.693359 4.8925781 L 15.492188 7.09375 A 1 1 0 0 0 15.492188 8.5078125 A 1 1 0 0 0 16.90625 8.5078125 L 19.107422 6.3066406 A 1 1 0 0 0 19.107422 4.8925781 A 1 1 0 0 0 18.400391 4.5996094 z M 3 11 A 1 1 0 0 0 2 12 A 1 1 0 0 0 3 13 L 6 13 A 1 1 0 0 0 7 12 A 1 1 0 0 0 6 11 L 3 11 z M 11.683594 11.050781 A 1 1 0 0 0 11.472656 11.472656 A 1 1 0 0 0 11.050781 11.683594 A 1 1 0 0 0 11.208984 12 A 1 1 0 0 0 11.050781 12.316406 L 14.050781 21.316406 A 1.0001 1.0001 0 0 0 15.894531 21.447266 L 17.746094 17.746094 L 21.447266 15.894531 A 1.0001 1.0001 0 0 0 21.316406 14.050781 L 12.316406 11.050781 A 1 1 0 0 0 12 11.208984 A 1 1 0 0 0 11.683594 11.050781 z M 13.582031 13.582031 L 18.392578 15.185547 L 16.552734 16.105469 A 1.0001 1.0001 0 0 0 16.105469 16.552734 L 15.185547 18.392578 L 13.582031 13.582031 z M 7.8007812 15.199219 A 1 1 0 0 0 7.09375 15.492188 L 4.8925781 17.693359 A 1 1 0 0 0 4.8925781 19.107422 A 1 1 0 0 0 6.3066406 19.107422 L 8.5078125 16.90625 A 1 1 0 0 0 8.5078125 15.492188 A 1 1 0 0 0 7.8007812 15.199219 z " fill="currentColor"/>
</svg>
