<svg xmlns="http://www.w3.org/2000/svg" width="1em" height="1em" viewBox="0 0 24 24" fill="currentColor">
  <path d="M 3 2 A 1 1 0 0 0 2.2929688 2.2929688 A 1 1 0 0 0 2.2929688 3.7070312 L 4.2929688 5.7070312 C 4.1018448 6.107212 4.0000777 6.5489062 4 7 L 4 19 C 4 20.64501 5.3549904 22 7 22 L 17 22 C 17.970446 22 18.840693 21.52917 19.390625 20.804688 L 20.292969 21.707031 A 1 1 0 0 0 21.707031 21.707031 A 1 1 0 0 0 21.707031 20.292969 L 19.716797 18.302734 A 1 1 0 0 0 19.697266 18.283203 L 3.7070312 2.2929688 A 1 1 0 0 0 3 2 z M 11 2 C 9.3549904 2 8 3.3549904 8 5 A 1 1 0 0 0 9 6 A 1 1 0 0 0 10 5 C 10 4.4358706 10.435871 4 11 4 L 13 4 C 13.416666 4 13.601893 4.1202444 13.751953 4.2890625 C 13.902014 4.4578806 14 4.7222221 14 5 C 14 5.2777779 13.902014 5.5421194 13.751953 5.7109375 C 13.601893 5.8797556 13.416666 6 13 6 L 11 6 A 1 1 0 0 0 10 7 A 1 1 0 0 0 11 8 L 13 8 C 13.916666 8 14.731441 7.6202444 15.248047 7.0390625 C 15.524267 6.7283152 15.719374 6.3734055 15.841797 6 L 17 6 C 17.564129 6 18 6.4358706 18 7 L 18 15 A 1 1 0 0 0 19 16 A 1 1 0 0 0 20 15 L 20 7 C 20 5.3549904 18.64501 4 17 4 L 15.841797 4 C 15.719374 3.6265945 15.524267 3.2716848 15.248047 2.9609375 C 14.731441 2.3797556 13.916666 2 13 2 L 11 2 z M 6 7.4140625 L 17.939453 19.353516 C 17.800762 19.736467 17.439004 20 17 20 L 7 20 C 6.4358706 20 6 19.564129 6 19 L 6 7.4140625 z " fill="currentColor"/>
</svg>
