<svg xmlns="http://www.w3.org/2000/svg" width="1em" height="1em" viewBox="0 0 24 24" fill="currentColor">
  <path d="M 11 2 C 9.7048579 2 8.5896856 2.8399128 8.1738281 4 L 7 4 C 5.3549904 4 4 5.3549904 4 7 L 4 19 C 4 20.64501 5.3549904 22 7 22 L 10 22 A 1 1 0 0 0 11 21 A 1 1 0 0 0 10 20 L 7 20 C 6.4358706 20 6 19.564129 6 19 L 6 7 C 6 6.4358706 6.4358706 6 7 6 L 8.1738281 6 C 8.5896856 7.1600872 9.7048579 8 11 8 L 13 8 C 14.295142 8 15.410315 7.1600872 15.826172 6 L 17 6 C 17.564129 6 18 6.4358706 18 7 L 18 12 A 1 1 0 0 0 19 13 A 1 1 0 0 0 20 12 L 20 7 C 20 5.3549904 18.64501 4 17 4 L 15.826172 4 C 15.410315 2.8399128 14.295142 2 13 2 L 11 2 z M 11 4 L 13 4 C 13.564129 4 14 4.4358706 14 5 C 14 5.5641294 13.564129 6 13 6 L 11 6 C 10.435871 6 10 5.5641294 10 5 C 10 4.4358706 10.435871 4 11 4 z M 14 14 C 12.907275 14 12 14.907275 12 16 L 12 17 A 1 1 0 0 0 13 18 A 1 1 0 0 0 14 17 L 14 16 L 15 16 A 1 1 0 0 0 16 15 A 1 1 0 0 0 15 14 L 14 14 z M 18 14 A 1 1 0 0 0 17 15 A 1 1 0 0 0 18 16 L 19 16 L 19 17 A 1 1 0 0 0 20 18 A 1 1 0 0 0 21 17 L 21 16 C 21 14.907275 20.092725 14 19 14 L 18 14 z M 13 19 A 1 1 0 0 0 12 20 L 12 21 C 12 22.092725 12.907275 23 14 23 L 15 23 A 1 1 0 0 0 16 22 A 1 1 0 0 0 15 21 L 14 21 L 14 20 A 1 1 0 0 0 13 19 z M 20 19 A 1 1 0 0 0 19 20 L 19 21 L 18 21 A 1 1 0 0 0 17 22 A 1 1 0 0 0 18 23 L 19 23 C 20.092725 23 21 22.092725 21 21 L 21 20 A 1 1 0 0 0 20 19 z " fill="currentColor"/>
</svg>
