<svg xmlns="http://www.w3.org/2000/svg" width="1em" height="1em" viewBox="0 0 24 24" fill="currentColor">
  <path d="M 11 2 C 9.7048579 2 8.5896856 2.8399128 8.1738281 4 L 7 4 C 5.3549904 4 4 5.3549904 4 7 L 4 19 C 4 20.64501 5.3549904 22 7 22 L 17 22 C 18.64501 22 20 20.64501 20 19 L 20 7 C 20 5.3549904 18.64501 4 17 4 L 15.826172 4 C 15.410315 2.8399128 14.295142 2 13 2 L 11 2 z M 11 4 L 13 4 C 13.564129 4 14 4.4358706 14 5 C 14 5.5641294 13.564129 6 13 6 L 11 6 C 10.435871 6 10 5.5641294 10 5 C 10 4.4358706 10.435871 4 11 4 z M 7 6 L 8.1738281 6 C 8.5896856 7.1600872 9.7048579 8 11 8 L 13 8 C 14.295142 8 15.410315 7.1600872 15.826172 6 L 17 6 C 17.564129 6 18 6.4358706 18 7 L 18 19 C 18 19.564129 17.564129 20 17 20 L 7 20 C 6.4358706 20 6 19.564129 6 19 L 6 7 C 6 6.4358706 6.4358706 6 7 6 z M 9 11 A 1 1 0 0 0 8 12 A 1 1 0 0 0 9 13 L 9.0097656 13 A 1 1 0 0 0 10.009766 12 A 1 1 0 0 0 9.0097656 11 L 9 11 z M 13 11 A 1 1 0 0 0 12 12 A 1 1 0 0 0 13 13 L 15 13 A 1 1 0 0 0 16 12 A 1 1 0 0 0 15 11 L 13 11 z M 9 15 A 1 1 0 0 0 8 16 A 1 1 0 0 0 9 17 L 9.0097656 17 A 1 1 0 0 0 10.009766 16 A 1 1 0 0 0 9.0097656 15 L 9 15 z M 13 15 A 1 1 0 0 0 12 16 A 1 1 0 0 0 13 17 L 15 17 A 1 1 0 0 0 16 16 A 1 1 0 0 0 15 15 L 13 15 z " fill="currentColor"/>
</svg>
