<svg xmlns="http://www.w3.org/2000/svg" width="1em" height="1em" viewBox="0 0 24 24" fill="currentColor">
  <path d="M 12 2 C 6.4889982 2 2 6.4889941 2 12 C 1.9997996 16.233574 4.6729437 20.015602 8.6640625 21.427734 A 1 1 0 0 0 9.9414062 20.818359 A 1 1 0 0 0 9.3320312 19.542969 C 6.1330868 18.411123 3.9998394 15.393276 4 12 C 4 7.5698737 7.5698765 4 12 4 C 16.430123 4 20 7.5698737 20 12 A 1 1 0 0 0 21 13 A 1 1 0 0 0 22 12 C 22 6.4889941 17.511002 2 12 2 z M 12 6 A 1 1 0 0 0 11 7 L 11 12 A 1 1 0 0 0 12 13 A 1 1 0 0 0 13 12 L 13 7 A 1 1 0 0 0 12 6 z M 12 14 A 1 1 0 0 0 11 15 A 1 1 0 0 0 12 16 L 14 16 L 14 17 L 13 17 C 11.907275 17 11 17.907275 11 19 L 11 20 C 11 21.092725 11.907275 22 13 22 L 15 22 A 1 1 0 0 0 16 21 A 1 1 0 0 0 15 20 L 13 20 L 13 19 L 14 19 C 15.092725 19 16 18.092725 16 17 L 16 16 C 16 14.907275 15.092725 14 14 14 L 12 14 z M 18 14 A 1 1 0 0 0 17 15 L 17 17 C 17 18.092725 17.907275 19 19 19 L 20 19 L 20 21 A 1 1 0 0 0 21 22 A 1 1 0 0 0 22 21 L 22 15 A 1 1 0 0 0 21 14 A 1 1 0 0 0 20 15 L 20 17 L 19 17 L 19 15 A 1 1 0 0 0 18 14 z " fill="currentColor"/>
</svg>
