<svg xmlns="http://www.w3.org/2000/svg" width="1em" height="1em" viewBox="0 0 24 24" fill="currentColor">
  <path d="M 12 2 C 6.4889982 2 2 6.4889941 2 12 C 2 17.511006 6.4889982 22 12 22 C 17.511002 22 22 17.511006 22 12 C 22 6.4889941 17.511002 2 12 2 z M 12 4 C 16.430123 4 20 7.5698737 20 12 C 20 16.430126 16.430123 20 12 20 C 7.5698765 20 4 16.430126 4 12 C 4 7.5698737 7.5698765 4 12 4 z M 12 6 A 1 1 0 0 0 11 7 L 11 11.697266 L 9.1679688 14.445312 A 1 1 0 0 0 9.4453125 15.832031 A 1 1 0 0 0 10.832031 15.554688 L 12.828125 12.560547 A 1 1 0 0 0 12.832031 12.554688 A 1 1 0 0 0 12.839844 12.539062 A 1 1 0 0 0 12.896484 12.441406 A 1 1 0 0 0 12.945312 12.326172 A 1 1 0 0 0 12.947266 12.320312 A 1 1 0 0 0 12.951172 12.306641 A 1 1 0 0 0 12.978516 12.201172 A 1 1 0 0 0 12.980469 12.193359 A 1 1 0 0 0 12.984375 12.171875 A 1 1 0 0 0 12.994141 12.095703 A 1 1 0 0 0 12.998047 12.029297 A 1 1 0 0 0 13 12 L 13 7 A 1 1 0 0 0 12 6 z " fill="currentColor"/>
</svg>
