<svg xmlns="http://www.w3.org/2000/svg" width="1em" height="1em" viewBox="0 0 24 24" fill="currentColor">
  <path d="M 12.228516 1.9726562 C 10.145417 1.9153992 7.9794338 2.5241139 6.0214844 3.984375 C 2.1055854 6.9048973 1.2186334 11.591507 2.5957031 15.400391 C 3.9727728 19.209274 7.6534879 22.246619 12.533203 21.986328 A 1 1 0 0 0 13.478516 20.933594 A 1 1 0 0 0 12.425781 19.988281 C 8.4094328 20.202519 5.5897931 17.799825 4.4765625 14.720703 C 3.3633319 11.641581 3.9941029 7.9914127 7.2167969 5.5878906 C 10.439491 3.1843685 14.120065 3.6194202 16.753906 5.5644531 C 19.387748 7.5094861 20.885774 10.89704 19.535156 14.685547 A 1 1 0 0 0 20.140625 15.964844 A 1 1 0 0 0 21.417969 15.357422 C 23.058919 10.754526 21.199476 6.3630428 17.941406 3.9570312 C 16.312371 2.7540254 14.311614 2.0299134 12.228516 1.9726562 z M 12 6 A 1 1 0 0 0 11 7 L 11 12 A 1.0001 1.0001 0 0 0 11.292969 12.707031 L 14.292969 15.707031 A 1 1 0 0 0 15.707031 15.707031 A 1 1 0 0 0 15.707031 14.292969 L 13 11.585938 L 13 7 A 1 1 0 0 0 12 6 z M 16 18 A 1 1 0 0 0 15 19 A 1 1 0 0 0 16 20 L 22 20 A 1 1 0 0 0 23 19 A 1 1 0 0 0 22 18 L 16 18 z " fill="currentColor"/>
</svg>
