<svg xmlns="http://www.w3.org/2000/svg" width="1em" height="1em" viewBox="0 0 24 24" fill="currentColor">
  <path d="M 12 2 C 6.4889982 2 2 6.4889941 2 12 C 2 17.511006 6.4889982 22 12 22 C 17.511002 22 22 17.511006 22 12 C 22 6.4889941 17.511002 2 12 2 z M 12 4 C 16.430123 4 20 7.5698737 20 12 C 20 16.430126 16.430123 20 12 20 C 7.5698765 20 4 16.430126 4 12 C 4 7.5698737 7.5698765 4 12 4 z M 12 6 A 1 1 0 0 0 11 7 L 11 12 A 1 1 0 0 0 11.001953 12.033203 A 1 1 0 0 0 11.005859 12.089844 A 1 1 0 0 0 11.017578 12.183594 A 1 1 0 0 0 11.021484 12.203125 A 1 1 0 0 0 11.048828 12.302734 A 1 1 0 0 0 11.0625 12.34375 A 1 1 0 0 0 11.09375 12.417969 A 1 1 0 0 0 11.119141 12.46875 A 1 1 0 0 0 11.150391 12.523438 A 1 1 0 0 0 11.167969 12.554688 A 1 1 0 0 0 11.1875 12.580078 A 1 1 0 0 0 11.234375 12.640625 A 1 1 0 0 0 11.267578 12.677734 A 1 1 0 0 0 11.314453 12.724609 A 1 1 0 0 0 11.369141 12.773438 A 1 1 0 0 0 11.419922 12.8125 A 1 1 0 0 0 11.474609 12.847656 A 1 1 0 0 0 11.523438 12.876953 A 1 1 0 0 0 11.59375 12.912109 A 1 1 0 0 0 11.644531 12.933594 A 1 1 0 0 0 11.703125 12.955078 A 1 1 0 0 0 11.789062 12.976562 A 1 1 0 0 0 11.820312 12.982422 A 1 1 0 0 0 11.908203 12.994141 A 1 1 0 0 0 11.966797 12.998047 A 1 1 0 0 0 12 13 A 1 1 0 0 0 12.029297 12.998047 A 1 1 0 0 0 12.095703 12.994141 A 1 1 0 0 0 12.171875 12.984375 A 1 1 0 0 0 12.201172 12.978516 A 1 1 0 0 0 12.306641 12.951172 A 1 1 0 0 0 12.320312 12.947266 A 1 1 0 0 0 12.326172 12.945312 A 1 1 0 0 0 12.441406 12.896484 A 1 1 0 0 0 12.539062 12.839844 A 1 1 0 0 0 12.554688 12.832031 L 12.560547 12.828125 L 15.554688 10.832031 A 1 1 0 0 0 15.832031 9.4453125 A 1 1 0 0 0 14.445312 9.1679688 L 13 10.130859 L 13 7 A 1 1 0 0 0 12 6 z " fill="currentColor"/>
</svg>
