<svg xmlns="http://www.w3.org/2000/svg" width="1em" height="1em" viewBox="0 0 24 24" fill="currentColor">
  <path d="M 12.035156 1.9902344 C 9.5370737 1.9699035 6.9769638 2.8824112 4.9296875 4.9296875 C 1.8100283 8.0493467 1.3251245 12.357475 2.7617188 15.826172 C 4.1983128 19.294868 7.5876644 22 12 22 A 1 1 0 0 0 13 21 A 1 1 0 0 0 12 20 C 8.3936343 20 5.7672721 17.858275 4.609375 15.0625 C 3.4514779 12.266725 3.7940184 8.8934816 6.34375 6.34375 C 8.8934816 3.7940184 12.266725 3.4514779 15.0625 4.609375 C 17.858275 5.7672721 20 8.3936343 20 12 A 1 1 0 0 0 21 13 A 1 1 0 0 0 22 12 C 22 7.5876644 19.294868 4.1983128 15.826172 2.7617188 C 14.958998 2.4025701 14.04013 2.1625007 13.099609 2.0546875 C 12.746914 2.0142576 12.392025 1.9931388 12.035156 1.9902344 z M 12 6 A 1 1 0 0 0 11 7 L 11 12 A 1.0001 1.0001 0 0 0 11.292969 12.707031 L 12.292969 13.707031 A 1 1 0 0 0 13.707031 13.707031 A 1 1 0 0 0 13.707031 12.292969 L 13 11.585938 L 13 7 A 1 1 0 0 0 12 6 z M 16 15 A 1 1 0 0 0 15 16 L 15 22 A 1.0001 1.0001 0 0 0 16 23 L 22 23 A 1.0001 1.0001 0 0 0 23 22 L 23 16 A 1.0001 1.0001 0 0 0 22 15 L 16 15 z M 17 17 L 21 17 L 21 21 L 17 21 L 17 17 z " fill="currentColor"/>
</svg>
