<svg xmlns="http://www.w3.org/2000/svg" width="1em" height="1em" viewBox="0 0 24 24" fill="currentColor">
  <path d="M 12 2 C 6.4889982 2 2 6.4889941 2 12 C 2 17.511006 6.4889982 22 12 22 C 17.511002 22 22 17.511006 22 12 C 22 6.4889941 17.511002 2 12 2 z M 12 4 C 16.430123 4 20 7.5698737 20 12 C 20 16.430126 16.430123 20 12 20 C 7.5698765 20 4 16.430126 4 12 C 4 7.5698737 7.5698765 4 12 4 z M 12 6 A 1 1 0 0 0 11 7 L 11 12 A 1 1 0 0 0 11.001953 12.033203 A 1 1 0 0 0 11.005859 12.091797 A 1 1 0 0 0 11.017578 12.179688 A 1 1 0 0 0 11.023438 12.210938 A 1 1 0 0 0 11.044922 12.296875 A 1 1 0 0 0 11.066406 12.355469 A 1 1 0 0 0 11.087891 12.40625 A 1 1 0 0 0 11.123047 12.476562 A 1 1 0 0 0 11.152344 12.525391 A 1 1 0 0 0 11.1875 12.580078 A 1 1 0 0 0 11.226562 12.630859 A 1 1 0 0 0 11.275391 12.685547 A 1 1 0 0 0 11.322266 12.732422 A 1 1 0 0 0 11.359375 12.765625 A 1 1 0 0 0 11.419922 12.8125 A 1 1 0 0 0 11.445312 12.832031 A 1 1 0 0 0 11.476562 12.849609 A 1 1 0 0 0 11.53125 12.880859 A 1 1 0 0 0 11.582031 12.90625 A 1 1 0 0 0 11.65625 12.9375 A 1 1 0 0 0 11.697266 12.951172 A 1 1 0 0 0 11.796875 12.978516 A 1 1 0 0 0 11.816406 12.982422 A 1 1 0 0 0 11.910156 12.994141 A 1 1 0 0 0 11.966797 12.998047 A 1 1 0 0 0 12 13 A 1 1 0 0 0 12.027344 12.998047 A 1 1 0 0 0 12.105469 12.992188 A 1 1 0 0 0 12.171875 12.984375 A 1 1 0 0 0 12.230469 12.970703 A 1 1 0 0 0 12.302734 12.953125 A 1 1 0 0 0 12.363281 12.929688 A 1 1 0 0 0 12.429688 12.902344 A 1 1 0 0 0 12.5 12.863281 A 1 1 0 0 0 12.535156 12.84375 A 1 1 0 0 0 12.542969 12.837891 A 1 1 0 0 0 12.632812 12.771484 A 1 1 0 0 0 12.650391 12.759766 A 1 1 0 0 0 12.660156 12.751953 A 1 1 0 0 0 12.75 12.662109 A 1 1 0 0 0 12.751953 12.658203 A 1 1 0 0 0 12.804688 12.589844 A 1 1 0 0 0 12.832031 12.554688 L 12.835938 12.548828 L 14.832031 9.5546875 A 1 1 0 0 0 14.554688 8.1679688 A 1 1 0 0 0 13.167969 8.4453125 L 13 8.6972656 L 13 7 A 1 1 0 0 0 12 6 z " fill="currentColor"/>
</svg>
