<svg xmlns="http://www.w3.org/2000/svg" width="1em" height="1em" viewBox="0 0 24 24" fill="currentColor">
  <path d="M 12.150391 1.9882812 C 9.6185025 1.9386297 7.0125125 2.8481302 4.9296875 4.9335938 C 1.755859 8.1114431 1.3180605 12.498774 2.8359375 15.988281 C 4.3538145 19.477788 7.8623644 22.149849 12.351562 21.994141 A 1 1 0 0 0 13.316406 20.958984 A 1 1 0 0 0 12.283203 19.994141 C 8.6099298 20.121549 5.8938948 18.005246 4.6699219 15.191406 C 3.445949 12.377567 3.7488308 8.9458652 6.3457031 6.3457031 C 8.9425754 3.745541 12.372113 3.4397467 15.1875 4.6601562 C 18.002887 5.8805658 20.122757 8.5921932 20 12.265625 A 1 1 0 0 0 20.966797 13.298828 A 1 1 0 0 0 22 12.333984 C 22.150025 7.8445936 19.473848 4.3376766 15.982422 2.8242188 C 15.109565 2.4458543 14.180428 2.1898918 13.228516 2.0683594 C 12.871549 2.0227847 12.512089 1.9953743 12.150391 1.9882812 z M 12 6 A 1 1 0 0 0 11 7 L 11 12 A 1.0001 1.0001 0 0 0 11.292969 12.707031 L 13.292969 14.707031 A 1 1 0 0 0 14.707031 14.707031 A 1 1 0 0 0 14.707031 13.292969 L 13 11.585938 L 13 7 A 1 1 0 0 0 12 6 z M 19 15 C 18.027778 15 17.042119 15.318681 16.273438 16.001953 C 15.504756 16.685226 15 17.75 15 19 C 15 20.25 15.504756 21.314774 16.273438 21.998047 C 17.042119 22.681319 18.027778 23 19 23 C 19.972222 23 20.957881 22.681319 21.726562 21.998047 C 22.495244 21.314774 23 20.25 23 19 C 23 17.75 22.495244 16.685226 21.726562 16.001953 C 20.957881 15.318681 19.972222 15 19 15 z M 19 17 C 19.527778 17 20.042119 17.18132 20.398438 17.498047 C 20.754756 17.814774 21 18.250001 21 19 C 21 19.749999 20.754756 20.185226 20.398438 20.501953 C 20.042119 20.81868 19.527778 21 19 21 C 18.472222 21 17.957881 20.81868 17.601562 20.501953 C 17.245244 20.185226 17 19.749999 17 19 C 17 18.250001 17.245244 17.814774 17.601562 17.498047 C 17.957881 17.18132 18.472222 17 19 17 z " fill="currentColor"/>
</svg>
