<svg xmlns="http://www.w3.org/2000/svg" width="1em" height="1em" viewBox="0 0 24 24" fill="currentColor">
  <path d="M 12.527344 1.9960938 C 12.02291 1.9661665 11.513037 1.9747418 11.003906 2.0234375 C 8.9673829 2.2182203 6.9311459 3.0599613 5.1875 4.6835938 C 1.7002083 7.9308586 1.2551851 12.571048 2.9179688 16.183594 C 4.5807524 19.796139 8.3950939 22.475758 13.130859 21.9375 A 1 1 0 0 0 14.009766 20.830078 A 1 1 0 0 0 12.904297 19.949219 C 9.0136429 20.391423 6.0774891 18.263738 4.734375 15.345703 C 3.3912609 12.427668 3.6840935 8.8140421 6.5488281 6.1464844 C 9.4135628 3.4789266 13.040456 3.4427883 15.855469 4.9902344 C 18.670481 6.5376805 20.583298 9.6174961 19.865234 13.466797 A 1 1 0 0 0 20.664062 14.634766 A 1 1 0 0 0 21.830078 13.833984 C 22.704117 9.1485546 20.303362 5.1540291 16.818359 3.2382812 C 15.511484 2.5198757 14.040646 2.0858755 12.527344 1.9960938 z M 12 6 A 1 1 0 0 0 11 7 L 11 12 A 1.0001 1.0001 0 0 0 11.292969 12.707031 L 13.292969 14.707031 A 1 1 0 0 0 14.707031 14.707031 A 1 1 0 0 0 14.707031 13.292969 L 13 11.585938 L 13 7 A 1 1 0 0 0 12 6 z M 17.011719 15.001953 A 1.0001 1.0001 0 0 0 16.507812 15.130859 A 1.0001 1.0001 0 0 0 16 16 L 16 22 A 1 1 0 0 0 16.216797 22.216797 A 1 1 0 0 0 16.142578 22.513672 A 1 1 0 0 0 16.943359 22.943359 A 1 1 0 0 0 17 23 A 1 1 0 0 0 17.078125 22.921875 A 1 1 0 0 0 17.513672 22.857422 L 22.513672 19.857422 A 1.0001 1.0001 0 0 0 22.513672 18.142578 L 17.513672 15.142578 A 1.0001 1.0001 0 0 0 17.011719 15.001953 z M 18 17.765625 L 20.056641 19 L 18 20.234375 L 18 17.765625 z " fill="currentColor"/>
</svg>
