<svg xmlns="http://www.w3.org/2000/svg" width="1em" height="1em" viewBox="0 0 24 24" fill="currentColor">
  <path d="M 12 2 C 11.277778 2 10.542119 2.2353472 9.9609375 2.7519531 C 9.3797556 3.268559 9 4.0833335 9 5 C 9 5.9166665 9.3797556 6.731441 9.9609375 7.2480469 C 10.271685 7.5242666 10.626594 7.7193743 11 7.8417969 L 11 9.9042969 C 10.072878 9.7145029 9.1881217 9.2585569 8.4648438 8.5351562 A 1 1 0 0 0 7.7578125 8.2421875 A 1 1 0 0 0 7.0507812 8.5351562 A 1 1 0 0 0 7.0507812 9.9492188 C 8.1594696 11.058095 9.5531716 11.715181 11 11.921875 L 11 20 L 9 20 A 1 1 0 0 0 8 21 A 1 1 0 0 0 9 22 L 15 22 A 1 1 0 0 0 16 21 A 1 1 0 0 0 15 20 L 13 20 L 13 11.921875 C 14.446828 11.715181 15.84053 11.058095 16.949219 9.9492188 A 1 1 0 0 0 16.949219 8.5351562 A 1 1 0 0 0 15.535156 8.5351562 C 14.811878 9.2585569 13.927122 9.7145029 13 9.9042969 L 13 7.8417969 C 13.373406 7.7193743 13.728315 7.5242666 14.039062 7.2480469 C 14.620243 6.731441 15 5.9166665 15 5 C 15 4.0833335 14.620244 3.268559 14.039062 2.7519531 C 13.45788 2.2353472 12.722222 2 12 2 z M 12 4 C 12.277778 4 12.542119 4.097986 12.710938 4.2480469 C 12.879755 4.3981073 13 4.5833337 13 5 C 13 5.4166663 12.879756 5.6018927 12.710938 5.7519531 C 12.542118 5.9020136 12.277778 6 12 6 C 11.722222 6 11.45788 5.9020136 11.289062 5.7519531 C 11.120243 5.6018927 11 5.4166663 11 5 C 11 4.5833337 11.120244 4.3981073 11.289062 4.2480469 C 11.45788 4.0979864 11.722222 4 12 4 z " fill="currentColor"/>
</svg>
