<svg xmlns="http://www.w3.org/2000/svg" width="1em" height="1em" viewBox="0 0 24 24" fill="currentColor">
  <path d="M 11.712891 4.0078125 C 11.151522 4.0390745 10.589469 4.1378177 10.041016 4.3046875 C 8.1044381 4.8946177 6.7070022 6.3648913 6.0429688 8.15625 C 3.2456003 8.4665983 1 10.693837 1 13.517578 C 1 16.554967 3.5648746 18.999099 6.65625 19.003906 L 9.5 19.003906 A 1 1 0 0 0 10.5 18.003906 A 1 1 0 0 0 9.5 17.003906 L 6.6582031 17.003906 L 6.65625 17.003906 C 4.6045902 16.99969 3 15.431562 3 13.517578 C 3 11.604194 4.6044677 10.035156 6.65625 10.035156 A 1.0001 1.0001 0 0 0 7.6328125 9.2519531 C 7.9410522 7.8699727 9.0557772 6.6961798 10.623047 6.21875 C 12.189234 5.7422291 13.935903 6.0692565 15.150391 7.0429688 A 1.0001 1.0001 0 0 0 15.152344 7.0429688 C 16.139876 7.8328317 16.65625 8.9211492 16.65625 10.037109 A 1 1 0 0 0 17.65625 11.037109 A 1 1 0 0 0 18.65625 10.037109 C 18.65625 8.2959753 17.831439 6.6265114 16.402344 5.4824219 C 15.521541 4.776278 14.478548 4.314304 13.382812 4.1132812 C 12.834944 4.0127699 12.274259 3.9765505 11.712891 4.0078125 z M 17.800781 13.042969 C 17.298499 13.042969 16.794578 13.285127 16.552734 13.771484 A 1.0001 1.0001 0 0 0 16.552734 13.773438 L 15.699219 15.496094 L 13.796875 15.771484 C 12.714916 15.921349 12.238116 17.387297 13.023438 18.146484 L 14.400391 19.484375 L 14.074219 21.375 A 1.0001 1.0001 0 0 0 14.072266 21.386719 C 13.900355 22.455046 15.129997 23.341367 16.089844 22.841797 A 1.0001 1.0001 0 0 0 16.091797 22.839844 L 17.800781 21.945312 L 19.503906 22.837891 C 20.467028 23.348584 21.709159 22.447253 21.523438 21.373047 L 21.525391 21.375 L 21.199219 19.484375 L 22.578125 18.144531 A 1.0001 1.0001 0 0 0 22.580078 18.142578 C 23.357847 17.382769 22.884212 15.927618 21.808594 15.771484 L 21.806641 15.771484 L 19.900391 15.496094 L 19.046875 13.773438 A 1.0001 1.0001 0 0 0 19.046875 13.771484 C 18.805031 13.285127 18.303064 13.042969 17.800781 13.042969 z M 17.800781 15.761719 L 18.341797 16.853516 A 1.0001 1.0001 0 0 0 19.09375 17.400391 L 20.294922 17.574219 L 19.427734 18.416016 A 1.0001 1.0001 0 0 0 19.138672 19.302734 L 19.34375 20.496094 L 18.263672 19.931641 A 1 1 0 0 0 17.396484 19.951172 A 1 1 0 0 0 17.335938 19.931641 L 16.255859 20.498047 L 16.460938 19.302734 A 1.0001 1.0001 0 0 0 16.171875 18.416016 L 15.304688 17.574219 L 16.505859 17.400391 A 1.0001 1.0001 0 0 0 17.259766 16.853516 L 17.800781 15.761719 z " fill="currentColor"/>
</svg>
