<svg xmlns="http://www.w3.org/2000/svg" width="1em" height="1em" viewBox="0 0 24 24" fill="currentColor">
  <path d="M 11.712891 4.0078125 C 11.151522 4.0390745 10.589469 4.1378177 10.041016 4.3046875 C 8.1044381 4.8946177 6.7070022 6.3648913 6.0429688 8.15625 C 3.2456003 8.4665983 1 10.693837 1 13.517578 C 1 16.554967 3.5648746 18.999099 6.65625 19.003906 L 13 19.003906 A 1 1 0 0 0 14 18.003906 A 1 1 0 0 0 13 17.003906 L 6.6582031 17.003906 L 6.65625 17.003906 C 4.6045902 16.99969 3 15.431562 3 13.517578 C 3 11.604194 4.6044677 10.035156 6.65625 10.035156 A 1.0001 1.0001 0 0 0 7.6328125 9.2519531 C 7.9410522 7.8699727 9.0557772 6.6961798 10.623047 6.21875 C 12.189234 5.7422291 13.935903 6.0692565 15.150391 7.0429688 A 1.0001 1.0001 0 0 0 15.152344 7.0429688 C 16.367612 8.0148569 16.877897 9.4318959 16.570312 10.814453 A 1.0001 1.0001 0 0 0 17.546875 12.03125 L 18.535156 12.03125 C 19.534308 12.03125 20.38497 12.622338 20.775391 13.476562 A 1 1 0 0 0 22.099609 13.970703 A 1 1 0 0 0 22.59375 12.644531 C 21.888124 11.100755 20.328004 10.03125 18.535156 10.03125 L 18.435547 10.03125 C 18.423234 8.306113 17.822495 6.619217 16.402344 5.4824219 C 15.521588 4.776278 14.478548 4.3143041 13.382812 4.1132812 C 12.834944 4.0127699 12.274259 3.9765505 11.712891 4.0078125 z M 18.933594 15.001953 A 1 1 0 0 0 18.804688 15.019531 A 1 1 0 0 0 18.167969 15.445312 L 16.167969 18.445312 A 1.0001 1.0001 0 0 0 17 20 L 19.130859 20 L 18.167969 21.445312 A 1 1 0 0 0 18.445312 22.832031 A 1 1 0 0 0 19.832031 22.554688 L 21.832031 19.554688 A 1.0001 1.0001 0 0 0 21 18 L 18.869141 18 L 19.832031 16.554688 A 1 1 0 0 0 19.554688 15.167969 A 1 1 0 0 0 18.933594 15.001953 z " fill="currentColor"/>
</svg>
