<svg xmlns="http://www.w3.org/2000/svg" width="1em" height="1em" viewBox="0 0 24 24" fill="currentColor">
  <path d="M 11.712891 2.0078125 C 11.151522 2.0390745 10.589469 2.1378177 10.041016 2.3046875 C 8.1044381 2.8946177 6.7070022 4.3648913 6.0429688 6.15625 C 3.2456003 6.4665983 1 8.6938375 1 11.517578 C 1 14.554967 3.5648746 16.999099 6.65625 17.003906 L 8 17.003906 A 1 1 0 0 0 9 16.003906 A 1 1 0 0 0 8 15.003906 L 6.6582031 15.003906 L 6.65625 15.003906 C 4.6045902 14.99969 3 13.431562 3 11.517578 C 3 9.6041944 4.6044677 8.0351563 6.65625 8.0351562 A 1.0001 1.0001 0 0 0 7.6328125 7.2519531 C 7.9410522 5.8699727 9.0557772 4.6961798 10.623047 4.21875 C 12.189234 3.7422291 13.935903 4.0692565 15.150391 5.0429688 A 1.0001 1.0001 0 0 0 15.152344 5.0429688 C 16.367612 6.0148569 16.877897 7.4318958 16.570312 8.8144531 A 1.0001 1.0001 0 0 0 17.546875 10.03125 L 18.535156 10.03125 C 19.904508 10.03125 21 11.128442 21 12.517578 C 21 13.907993 19.905792 15.003906 18.535156 15.003906 L 16 15.003906 A 1 1 0 0 0 15 16.003906 A 1 1 0 0 0 16 17.003906 L 18.535156 17.003906 C 20.992521 17.003906 23 14.981163 23 12.517578 C 23 10.054714 20.991805 8.03125 18.535156 8.03125 L 18.435547 8.03125 C 18.423234 6.306113 17.822495 4.619217 16.402344 3.4824219 C 15.521588 2.776278 14.478548 2.3143039 13.382812 2.1132812 C 12.834944 2.0127698 12.274259 1.9765505 11.712891 2.0078125 z M 12 15 A 1 1 0 0 0 11 16 L 11 17.158203 C 10.626594 17.280626 10.271685 17.475733 9.9609375 17.751953 C 9.6029744 18.070142 9.3216719 18.501445 9.1582031 19 L 3 19 A 1 1 0 0 0 2 20 A 1 1 0 0 0 3 21 L 9.1582031 21 C 9.3216719 21.498555 9.6029744 21.929858 9.9609375 22.248047 C 10.542119 22.764653 11.277778 23 12 23 C 12.722222 23 13.45788 22.764653 14.039062 22.248047 C 14.397025 21.929858 14.678328 21.498555 14.841797 21 L 21 21 A 1 1 0 0 0 22 20 A 1 1 0 0 0 21 19 L 14.841797 19 C 14.678328 18.501445 14.397025 18.070142 14.039062 17.751953 C 13.728315 17.475733 13.373406 17.280626 13 17.158203 L 13 16 A 1 1 0 0 0 12 15 z M 12 19 C 12.277778 19 12.542119 19.09799 12.710938 19.248047 C 12.879755 19.398106 12.999999 19.583337 13 20 C 13 20.416666 12.879756 20.601893 12.710938 20.751953 C 12.542118 20.902014 12.277778 21 12 21 C 11.722222 21 11.45788 20.902014 11.289062 20.751953 C 11.120243 20.601893 11 20.416666 11 20 C 11 19.583334 11.120244 19.398107 11.289062 19.248047 C 11.457879 19.097987 11.722224 19.000001 12 19 z " fill="currentColor"/>
</svg>
