<svg xmlns="http://www.w3.org/2000/svg" width="1em" height="1em" viewBox="0 0 24 24" fill="currentColor">
  <path d="M 12 2 C 6.4889982 2 2 6.4889941 2 12 C 2 17.511006 6.4889982 22 12 22 C 17.511002 22 22 17.511006 22 12 C 22 6.4889941 17.511002 2 12 2 z M 12 4 C 16.430123 4 20 7.5698737 20 12 C 20 16.430126 16.430123 20 12 20 C 7.5698765 20 4 16.430126 4 12 C 4 7.5698737 7.5698765 4 12 4 z M 12 6 A 1 1 0 0 0 11 7 C 10.083334 7 9.268559 7.3797556 8.7519531 7.9609375 C 8.2353472 8.5421194 8 9.2777779 8 10 C 8 10.722222 8.2353472 11.457881 8.7519531 12.039062 C 9.268559 12.620243 10.083334 13 11 13 L 11 15 A 1.0001 1.0001 0 0 0 10.966797 15 C 10.595575 15.0125 10.251912 14.821791 10.066406 14.5 A 1 1 0 0 0 8.7011719 14.132812 A 1 1 0 0 0 8.3339844 15.5 C 8.8812101 16.449255 9.9062751 17.024688 11 17 A 1 1 0 0 0 12 18 A 1 1 0 0 0 13 17 C 13.916666 17 14.731441 16.620244 15.248047 16.039062 C 15.764653 15.457881 16 14.722222 16 14 C 16 13.277778 15.764653 12.542119 15.248047 11.960938 C 14.731441 11.379755 13.916666 11 13 11 L 13 9 A 1.0001 1.0001 0 0 0 13.033203 9 C 13.404425 8.987502 13.748088 9.1782092 13.933594 9.5 A 1 1 0 0 0 15.298828 9.8671875 A 1 1 0 0 0 15.666016 8.5 C 15.11879 7.5507447 14.093725 6.9753123 13 7 A 1 1 0 0 0 12 6 z M 11 9 L 11 11 C 10.583334 11 10.398107 10.879756 10.248047 10.710938 C 10.097986 10.542118 10 10.277778 10 10 C 10 9.7222221 10.097986 9.4578806 10.248047 9.2890625 C 10.398107 9.1202444 10.583334 9 11 9 z M 13 13 C 13.416666 13 13.601893 13.120244 13.751953 13.289062 C 13.902014 13.45788 14 13.722222 14 14 C 14 14.277778 13.90201 14.542119 13.751953 14.710938 C 13.601893 14.879755 13.416666 15 13 15 L 13 13 z " fill="currentColor"/>
</svg>
