<svg xmlns="http://www.w3.org/2000/svg" width="1em" height="1em" viewBox="0 0 24 24" fill="currentColor">
  <path d="M 11.902344 1.96875 C 11.508888 1.9737833 11.112084 2.001973 10.712891 2.0566406 C 9.6483749 2.202421 8.5694282 2.5286033 7.5058594 3.0644531 A 1 1 0 0 0 7.0625 4.4082031 A 1 1 0 0 0 8.4042969 4.8515625 C 11.899062 3.0908214 15.391193 4.0669747 17.662109 6.3378906 C 19.933025 8.6088065 20.90918 12.100938 19.148438 15.595703 A 1 1 0 0 0 19.591797 16.9375 A 1 1 0 0 0 20.935547 16.494141 C 23.078946 12.239865 21.887531 7.7351873 19.076172 4.9238281 C 17.231218 3.0788737 14.656533 1.9335166 11.902344 1.96875 z M 3 2 A 1 1 0 0 0 2.2929688 2.2929688 A 1 1 0 0 0 2.2929688 3.7070312 L 4.2519531 5.6660156 C 0.9958484 9.5850263 1.1974044 15.442052 4.875 19.121094 C 8.5535917 22.801131 14.413685 23.005339 18.333984 19.748047 L 20.292969 21.707031 A 1 1 0 0 0 21.707031 21.707031 A 1 1 0 0 0 21.707031 20.292969 L 15.570312 14.15625 A 1 1 0 0 0 15.490234 14.076172 L 12.716797 11.302734 A 1 1 0 0 0 12.697266 11.283203 L 9.9570312 8.5429688 A 1 1 0 0 0 9.8085938 8.3945312 L 6.3808594 4.9667969 A 1 1 0 0 0 6.3496094 4.9335938 A 1 1 0 0 0 6.3046875 4.890625 L 3.7070312 2.2929688 A 1 1 0 0 0 3 2 z M 12 5 A 1 1 0 0 0 11 6 L 11 8 A 1 1 0 0 0 12 9 L 13 9 A 1.0001 1.0001 0 0 0 13.033203 9 C 13.404425 8.987502 13.748088 9.1782092 13.933594 9.5 A 1 1 0 0 0 15.298828 9.8671875 A 1 1 0 0 0 15.666016 8.5 C 15.11879 7.5507449 14.093725 6.9753124 13 7 L 13 6 A 1 1 0 0 0 12 5 z M 5.671875 7.0859375 L 8.0488281 9.4628906 C 7.7409211 11.220526 9.111074 12.999907 11 13 L 11.585938 13 L 13.470703 14.884766 C 13.329318 14.959809 13.168001 15.000061 13 15 L 11 15 A 1.0001 1.0001 0 0 0 10.966797 15 C 10.595575 15.0125 10.251912 14.821791 10.066406 14.5 A 1 1 0 0 0 8.7011719 14.132812 A 1 1 0 0 0 8.3339844 15.5 C 8.88121 16.449255 9.9062753 17.024688 11 17 L 11 18 A 1 1 0 0 0 12 19 A 1 1 0 0 0 13 18 L 13 17 C 13.706896 17.000258 14.377087 16.750552 14.904297 16.318359 L 16.912109 18.326172 C 13.769511 20.824432 9.202535 20.621649 6.2890625 17.707031 C 3.3765901 14.793414 3.1749123 10.227457 5.671875 7.0859375 z " fill="currentColor"/>
</svg>
