<svg xmlns="http://www.w3.org/2000/svg" width="1em" height="1em" viewBox="0 0 24 24" fill="currentColor">
  <path d="M 12 2 C 6.4889982 2 2 6.4889941 2 12 C 2 17.511006 6.4889982 22 12 22 C 17.511002 22 22 17.511006 22 12 C 22 6.4889941 17.511002 2 12 2 z M 12 4 C 16.430123 4 20 7.5698737 20 12 C 20 16.430126 16.430123 20 12 20 C 7.5698765 20 4 16.430126 4 12 C 4 7.5698737 7.5698765 4 12 4 z M 8.9355469 7.0019531 A 1 1 0 0 0 8.4453125 7.1679688 A 1 1 0 0 0 8.1679688 8.5546875 L 9.7988281 11 L 9 11 A 1 1 0 0 0 8 12 A 1 1 0 0 0 9 13 L 11 13 L 11 14 L 9 14 A 1 1 0 0 0 8 15 A 1 1 0 0 0 9 16 L 11 16 L 11 17 A 1 1 0 0 0 12 18 A 1 1 0 0 0 13 17 L 13 16 L 15 16 A 1 1 0 0 0 16 15 A 1 1 0 0 0 15 14 L 13 14 L 13 13 L 15 13 A 1 1 0 0 0 16 12 A 1 1 0 0 0 15 11 L 14.201172 11 L 15.832031 8.5546875 A 1 1 0 0 0 15.554688 7.1679688 A 1 1 0 0 0 14.167969 7.4453125 L 12 10.697266 L 9.8320312 7.4453125 A 1 1 0 0 0 8.9355469 7.0019531 z " fill="currentColor"/>
</svg>
