<svg xmlns="http://www.w3.org/2000/svg" width="1em" height="1em" viewBox="0 0 24 24" fill="currentColor">
  <path d="M 12 2 C 6.4889982 2 2 6.4889941 2 12 C 2 17.511006 6.4889982 22 12 22 C 17.511002 22 22 17.511006 22 12 C 22 6.4889941 17.511002 2 12 2 z M 12 4 C 16.430123 4 20 7.5698737 20 12 C 20 16.430126 16.430123 20 12 20 C 7.5698765 20 4 16.430126 4 12 C 4 7.5698737 7.5698765 4 12 4 z M 12 6 C 9.9093144 6 8.2232708 7.47357 7.453125 9.5 L 7 9.5 A 1 1 0 0 0 6 10.5 A 1 1 0 0 0 7 11.5 L 7.0175781 11.5 C 7.0060877 11.665365 7 11.832148 7 12 C 7 12.167852 7.0060877 12.334635 7.0175781 12.5 L 7 12.5 A 1 1 0 0 0 6 13.5 A 1 1 0 0 0 7 14.5 L 7.453125 14.5 C 8.2232707 16.52643 9.9093144 18 12 18 C 13.175556 18 14.257379 17.504462 15.083984 16.728516 A 1 1 0 0 0 15.128906 15.316406 A 1 1 0 0 0 13.714844 15.271484 C 13.203451 15.751536 12.624444 16 12 16 C 11.106365 16 10.237018 15.433278 9.6660156 14.5 L 11 14.5 A 1 1 0 0 0 12 13.5 A 1 1 0 0 0 11 12.5 L 9.0234375 12.5 C 9.0083075 12.337115 9 12.170316 9 12 C 9 11.829684 9.0083075 11.662885 9.0234375 11.5 L 11 11.5 A 1 1 0 0 0 12 10.5 A 1 1 0 0 0 11 9.5 L 9.6660156 9.5 C 10.237018 8.5667217 11.106365 8 12 8 C 12.62575 8 13.205403 8.2484624 13.716797 8.7285156 A 1 1 0 0 0 15.130859 8.6835938 A 1 1 0 0 0 15.085938 7.2714844 C 14.259331 6.4955378 13.17625 6 12 6 z " fill="currentColor"/>
</svg>
