<svg xmlns="http://www.w3.org/2000/svg" width="1em" height="1em" viewBox="0 0 24 24" fill="currentColor">
  <path d="M 16.400391 3.0195312 C 15.892827 3.0195312 15.384872 3.2086877 15 3.5859375 A 1.0001 1.0001 0 0 0 14.992188 3.59375 L 12 6.5859375 L 11.707031 6.2929688 A 1 1 0 0 0 11 6 A 1 1 0 0 0 10.292969 6.2929688 A 1 1 0 0 0 10.292969 7.7070312 L 10.585938 8 L 3.2929688 15.292969 A 1 1 0 0 0 3.2929688 15.707031 A 1 1 0 0 0 3 16 L 3 20 A 1.0001 1.0001 0 0 0 4 21 L 8 21 A 1.0001 1.0001 0 0 0 8.7070312 20.707031 L 16 13.414062 L 16.292969 13.707031 A 1 1 0 0 0 17.707031 13.707031 A 1 1 0 0 0 17.707031 12.292969 L 17.414062 12 L 20.40625 9.0078125 A 1.0001 1.0001 0 0 0 20.414062 9 C 21.168563 8.2302565 21.168563 6.9689624 20.414062 6.1992188 A 1.0001 1.0001 0 0 0 20.40625 6.1933594 L 17.806641 3.59375 A 1.0001 1.0001 0 0 0 17.800781 3.5859375 C 17.415949 3.2086852 16.907955 3.0195312 16.400391 3.0195312 z M 16.398438 5.015625 L 18.986328 7.5996094 L 18.984375 7.6015625 L 16 10.585938 L 13.414062 8 L 16.398438 5.015625 z M 12 9.4140625 L 14.585938 12 L 7.5859375 19 L 5 19 L 5 16.414062 L 12 9.4140625 z " fill="currentColor"/>
</svg>
