<svg xmlns="http://www.w3.org/2000/svg" width="1em" height="1em" viewBox="0 0 24 24" fill="currentColor">
  <path d="M 3 2 A 1 1 0 0 0 2.2929688 2.2929688 A 1 1 0 0 0 2.2929688 3.7070312 L 4.2929688 5.7070312 C 3.9185815 6.496304 3.9188582 7.4002823 4.2304688 8.1503906 C 4.6587995 9.1814673 5.7076596 9.9997287 7 10 L 8 10 L 8 14 L 7 14 C 5.7060483 14 4.656141 14.819049 4.2285156 15.851562 C 3.8008903 16.884076 3.9640103 18.206198 4.8789062 19.121094 C 5.7938023 20.03599 7.1159242 20.19911 8.1484375 19.771484 C 9.1809508 19.343859 10 18.293952 10 17 L 10 16 L 14 16 L 14 17 C 14.000271 18.29234 14.818533 19.341201 15.849609 19.769531 C 16.599718 20.081142 17.503696 20.081419 18.292969 19.707031 L 20.292969 21.707031 A 1 1 0 0 0 21.707031 21.707031 A 1 1 0 0 0 21.707031 20.292969 L 15.716797 14.302734 A 1 1 0 0 0 15.697266 14.283203 L 9.7167969 8.3027344 A 1 1 0 0 0 9.6972656 8.2832031 L 3.7070312 2.2929688 A 1 1 0 0 0 3 2 z M 17.099609 4.0058594 C 16.667491 3.9914347 16.238754 4.0681562 15.851562 4.2285156 C 14.819048 4.656141 14 5.7060483 14 7 L 14 8 L 13 8 A 1 1 0 0 0 12 9 A 1 1 0 0 0 13 10 L 14 10 L 14 11 A 1 1 0 0 0 15 12 A 1 1 0 0 0 16 11 L 16 10 L 17 10 C 18.293952 10 19.343859 9.1809508 19.771484 8.1484375 C 20.19911 7.1159242 20.03599 5.7938023 19.121094 4.8789062 C 18.663646 4.4214582 18.105141 4.1524709 17.53125 4.0507812 C 17.387777 4.0253588 17.243649 4.0106676 17.099609 4.0058594 z M 17.029297 5.9882812 C 17.260284 5.9883223 17.491426 6.0773634 17.707031 6.2929688 C 18.052 6.6379373 18.072756 7.0232211 17.923828 7.3828125 C 17.7749 7.7424039 17.487982 8 17 8 L 16 8 L 16 7 C 16 6.5120181 16.257596 6.2251001 16.617188 6.0761719 C 16.752035 6.0203238 16.890705 5.9882566 17.029297 5.9882812 z M 6.2109375 7.625 L 6.4140625 7.828125 C 6.335272 7.7715614 6.2680216 7.7030416 6.2109375 7.625 z M 10 11.414062 L 12.585938 14 L 10 14 L 10 11.414062 z M 7 16 L 8 16 L 8 17 C 8 17.487982 7.7424039 17.7749 7.3828125 17.923828 C 7.0232211 18.072756 6.6379373 18.052 6.2929688 17.707031 C 5.9480002 17.362063 5.9272436 16.976779 6.0761719 16.617188 C 6.2251001 16.257596 6.5120181 16 7 16 z M 16.171875 17.585938 L 16.375 17.789062 C 16.296958 17.731978 16.228439 17.664728 16.171875 17.585938 z " fill="currentColor"/>
</svg>
