<svg xmlns="http://www.w3.org/2000/svg" width="1em" height="1em" viewBox="0 0 24 24" fill="currentColor">
  <path d="M 6.9003906 4.0058594 C 6.7563513 4.0106676 6.6122227 4.0253588 6.46875 4.0507812 C 5.8948592 4.1524709 5.3363543 4.4214583 4.8789062 4.8789062 C 3.9640102 5.7938023 3.8008903 7.1159242 4.2285156 8.1484375 C 4.656141 9.1809508 5.7060483 10 7 10 L 8 10 L 8 14 L 7 14 C 5.7060483 14 4.656141 14.819049 4.2285156 15.851562 C 3.8008903 16.884076 3.9640103 18.206198 4.8789062 19.121094 C 5.7938023 20.03599 7.1159242 20.19911 8.1484375 19.771484 C 9.1809508 19.343859 10 18.293952 10 17 L 10 16 L 14 16 L 14 17 C 14 18.293952 14.819049 19.343859 15.851562 19.771484 C 16.884076 20.19911 18.206198 20.03599 19.121094 19.121094 C 20.03599 18.206198 20.19911 16.884076 19.771484 15.851562 C 19.343859 14.819049 18.293952 14 17 14 L 16 14 L 16 10 L 17 10 C 18.293952 10 19.343859 9.1809508 19.771484 8.1484375 C 20.19911 7.1159242 20.03599 5.7938023 19.121094 4.8789062 C 18.206198 3.9640102 16.884076 3.8008903 15.851562 4.2285156 C 14.819048 4.656141 14 5.7060483 14 7 L 14 8 L 10 8 L 10 7 C 10 5.7060483 9.1809508 4.656141 8.1484375 4.2285156 C 7.761245 4.0681562 7.3325085 3.9914347 6.9003906 4.0058594 z M 6.9707031 5.9882812 C 7.109295 5.9882566 7.2479657 6.0203238 7.3828125 6.0761719 C 7.7424039 6.2251001 8 6.5120181 8 7 L 8 8 L 7 8 C 6.5120181 8 6.2251001 7.7424039 6.0761719 7.3828125 C 5.9272436 7.0232211 5.9480003 6.6379373 6.2929688 6.2929688 C 6.5085741 6.0773634 6.7397166 5.9883223 6.9707031 5.9882812 z M 17.029297 5.9882812 C 17.260284 5.9883223 17.491426 6.0773634 17.707031 6.2929688 C 18.052 6.6379373 18.072756 7.0232211 17.923828 7.3828125 C 17.7749 7.7424039 17.487982 8 17 8 L 16 8 L 16 7 C 16 6.5120181 16.257596 6.2251001 16.617188 6.0761719 C 16.752035 6.0203238 16.890705 5.9882566 17.029297 5.9882812 z M 10 10 L 14 10 L 14 14 L 10 14 L 10 10 z M 7 16 L 8 16 L 8 17 C 8 17.487982 7.7424039 17.7749 7.3828125 17.923828 C 7.0232211 18.072756 6.6379373 18.052 6.2929688 17.707031 C 5.9480002 17.362063 5.9272436 16.976779 6.0761719 16.617188 C 6.2251001 16.257596 6.5120181 16 7 16 z M 16 16 L 17 16 C 17.487982 16 17.7749 16.257596 17.923828 16.617188 C 18.072756 16.976779 18.052 17.362063 17.707031 17.707031 C 17.362063 18.052 16.976779 18.072756 16.617188 17.923828 C 16.257596 17.7749 16 17.487982 16 17 L 16 16 z " fill="currentColor"/>
</svg>
