<svg xmlns="http://www.w3.org/2000/svg" width="1em" height="1em" viewBox="0 0 24 24" fill="currentColor">
  <path d="M 12 2 C 6.4889982 2 2 6.4889941 2 12 C 2 17.511006 6.4889982 22 12 22 C 17.511002 22 22 17.511006 22 12 C 22 6.4889941 17.511002 2 12 2 z M 11 4.0605469 L 11 5 A 1 1 0 0 0 12 6 A 1 1 0 0 0 13 5 L 13 4.0605469 C 16.627724 4.5095959 19.490404 7.3722744 19.939453 11 L 19 11 A 1 1 0 0 0 18 12 A 1 1 0 0 0 19 13 L 19.939453 13 C 19.490404 16.627725 16.627724 19.490404 13 19.939453 L 13 19 A 1 1 0 0 0 12 18 A 1 1 0 0 0 11 19 L 11 19.939453 C 7.3722761 19.490404 4.509596 16.627725 4.0605469 13 L 5 13 A 1 1 0 0 0 6 12 A 1 1 0 0 0 5 11 L 4.0605469 11 C 4.509596 7.3722743 7.3722761 4.5095959 11 4.0605469 z M 15.955078 7 A 1.0001 1.0001 0 0 0 15.683594 7.0507812 L 9.6835938 9.0507812 A 1.0001 1.0001 0 0 0 9.0507812 9.6835938 L 7.0507812 15.683594 A 1 1 0 0 0 7.0898438 16.236328 A 1 1 0 0 0 7.0507812 16.316406 A 1 1 0 0 0 7.0996094 16.373047 A 1 1 0 0 0 7.3457031 16.654297 A 1 1 0 0 0 7.6269531 16.900391 A 1 1 0 0 0 7.6835938 16.949219 A 1 1 0 0 0 7.7636719 16.910156 A 1 1 0 0 0 8.3164062 16.949219 L 14.316406 14.949219 A 1.0001 1.0001 0 0 0 14.949219 14.316406 L 16.949219 8.3164062 A 1.0001 1.0001 0 0 0 15.955078 7 z M 14.417969 9.5820312 L 13.208984 13.208984 L 9.5820312 14.417969 L 10.791016 10.791016 L 14.417969 9.5820312 z " fill="currentColor"/>
</svg>
