<svg xmlns="http://www.w3.org/2000/svg" width="1em" height="1em" viewBox="0 0 24 24" fill="currentColor">
  <path d="M 11.902344 1.96875 C 11.508888 1.9737833 11.112084 2.001973 10.712891 2.0566406 C 9.6483749 2.202421 8.5694282 2.5286033 7.5058594 3.0644531 A 1 1 0 0 0 7.0625 4.4082031 A 1 1 0 0 0 8.4042969 4.8515625 C 9.2759986 4.4123796 10.147537 4.1444446 11 4.0234375 L 11 5 A 1 1 0 0 0 12 6 A 1 1 0 0 0 13 5 L 13 4.0039062 C 14.788889 4.2277823 16.41087 5.0866514 17.662109 6.3378906 C 18.913349 7.5891299 19.772218 9.2111104 19.996094 11 L 19 11 A 1 1 0 0 0 18 12 A 1 1 0 0 0 19 13 L 19.976562 13 C 19.855555 13.852463 19.587621 14.724001 19.148438 15.595703 A 1 1 0 0 0 19.591797 16.9375 A 1 1 0 0 0 20.935547 16.494141 C 23.078946 12.239865 21.887531 7.7351873 19.076172 4.9238281 C 17.231218 3.0788737 14.656533 1.9335166 11.902344 1.96875 z M 3 2 A 1 1 0 0 0 2.2929688 2.2929688 A 1 1 0 0 0 2.2929688 3.7070312 L 4.2519531 5.6660156 C 0.9958484 9.5850263 1.1974044 15.442052 4.875 19.121094 C 8.5535917 22.801131 14.413685 23.005339 18.333984 19.748047 L 20.292969 21.707031 A 1 1 0 0 0 21.707031 21.707031 A 1 1 0 0 0 21.707031 20.292969 L 14.736328 13.322266 A 1 1 0 0 0 14.677734 13.263672 L 10.736328 9.3222656 A 1 1 0 0 0 10.677734 9.2636719 L 6.3808594 4.9667969 A 1 1 0 0 0 6.3496094 4.9335938 A 1 1 0 0 0 6.3046875 4.890625 L 3.7070312 2.2929688 A 1 1 0 0 0 3 2 z M 15.955078 7 A 1.0001 1.0001 0 0 0 15.683594 7.0507812 L 12.683594 8.0507812 A 1 1 0 0 0 12.050781 9.3164062 A 1 1 0 0 0 13.316406 9.9492188 L 14.417969 9.5820312 L 14.050781 10.683594 A 1 1 0 0 0 14.683594 11.949219 A 1 1 0 0 0 15.949219 11.316406 L 16.949219 8.3164062 A 1.0001 1.0001 0 0 0 15.955078 7 z M 5.671875 7.0859375 L 8.8554688 10.269531 L 7.0507812 15.683594 A 1.0001 1.0001 0 0 0 8.3164062 16.949219 L 13.730469 15.144531 L 16.912109 18.326172 C 15.750759 19.249407 14.395107 19.803388 13 19.988281 L 13 19 A 1 1 0 0 0 12 18 A 1 1 0 0 0 11 19 L 11 20.001953 C 9.2806962 19.797014 7.6138992 19.032389 6.2890625 17.707031 C 4.9654625 16.382911 4.2009244 14.717685 3.9960938 13 L 5 13 A 1 1 0 0 0 6 12 A 1 1 0 0 0 5 11 L 4.0097656 11 C 4.1946304 9.6045638 4.7485986 8.2475453 5.671875 7.0859375 z M 10.4375 11.851562 L 12.148438 13.5625 L 9.5820312 14.417969 L 10.4375 11.851562 z " fill="currentColor"/>
</svg>
