<svg xmlns="http://www.w3.org/2000/svg" width="1em" height="1em" viewBox="0 0 24 24" fill="currentColor">
  <path d="M 12 1.0332031 C 11.315381 1.0332031 10.630528 1.361408 10.259766 2.015625 A 1.0001 1.0001 0 0 0 10.251953 2.03125 L 2.1210938 17.019531 A 1.0001 1.0001 0 0 0 2 17.496094 L 2 17.996094 C 2 18.815706 2.4933191 19.482144 3.0878906 19.951172 C 3.6824622 20.4202 4.4335036 20.772507 5.3203125 21.068359 C 7.0939304 21.660064 9.4248592 22 12 22 C 14.575141 22 16.90612 21.661866 18.679688 21.070312 C 19.566471 20.774536 20.317553 20.420005 20.912109 19.951172 C 21.506666 19.482339 22 18.817653 22 17.998047 L 22 17.498047 A 1.0001 1.0001 0 0 0 21.878906 17.021484 L 13.75 2.03125 A 1.0001 1.0001 0 0 0 13.740234 2.015625 C 13.369506 1.361408 12.684619 1.0332031 12 1.0332031 z M 12 3.0019531 L 20 17.751953 L 20 17.998047 C 20 18.007447 19.9902 18.13138 19.673828 18.380859 C 19.357447 18.630339 18.788841 18.924401 18.046875 19.171875 C 16.562943 19.666823 14.394859 20 12 20 C 9.6051408 20 7.4370071 19.66692 5.953125 19.171875 C 5.2111839 18.924353 4.6425378 18.630425 4.3261719 18.380859 C 4.0098059 18.131294 4 18.005981 4 17.996094 L 4 17.75 L 12 3.0019531 z " fill="currentColor"/>
</svg>
