<svg xmlns="http://www.w3.org/2000/svg" width="1em" height="1em" viewBox="0 0 24 24" fill="currentColor">
  <path d="M 3 2 A 1 1 0 0 0 2.2929688 2.2929688 A 1 1 0 0 0 2.2929688 3.7070312 L 3.1171875 4.53125 A 1 1 0 0 0 3 5 A 1 1 0 0 0 4 6 A 1 1 0 0 0 5 7 A 1 1 0 0 0 5.46875 6.8828125 L 7.5917969 9.0058594 A 1.0001 1.0001 0 0 0 7.3046875 9.015625 A 1.0001 1.0001 0 0 0 6.5722656 9.5839844 L 2.1855469 19.158203 L 2.1855469 19.160156 C 1.8134064 19.960113 2.0434715 20.875503 2.5839844 21.416016 C 3.1249222 21.956953 4.0433494 22.187835 4.84375 21.814453 L 14.416016 17.427734 A 1 1 0 0 0 14.453125 17.330078 A 1 1 0 0 0 14.707031 17.224609 A 1 1 0 0 0 14.707031 16.644531 A 1 1 0 0 0 14.878906 16.292969 L 17.117188 18.53125 A 1 1 0 0 0 17 19 A 1 1 0 0 0 18 20 A 1 1 0 0 0 19 21 A 1 1 0 0 0 19.46875 20.882812 L 20.292969 21.707031 A 1 1 0 0 0 21.707031 21.707031 A 1 1 0 0 0 21.707031 20.292969 L 19.716797 18.302734 A 1 1 0 0 0 19.697266 18.283203 L 5.7167969 4.3027344 A 1 1 0 0 0 5.6972656 4.2832031 L 3.7070312 2.2929688 A 1 1 0 0 0 3 2 z M 11.482422 3 A 1 1 0 0 0 10.529297 3.7578125 L 10.029297 5.7578125 A 1 1 0 0 0 10.757812 6.9707031 A 1 1 0 0 0 11.970703 6.2421875 L 12.470703 4.2421875 A 1 1 0 0 0 11.742188 3.0292969 A 1 1 0 0 0 11.482422 3 z M 19 3 A 1 1 0 0 0 18 4 A 1 1 0 0 0 17 5 A 1 1 0 0 0 18 6 A 1 1 0 0 0 19 7 A 1 1 0 0 0 20 6 A 1 1 0 0 0 21 5 A 1 1 0 0 0 20 4 A 1 1 0 0 0 19 3 z M 15 8 A 1 1 0 0 0 14.292969 8.2929688 L 13.292969 9.2929688 A 1 1 0 0 0 13.292969 10.707031 A 1 1 0 0 0 14.707031 10.707031 L 15.707031 9.7070312 A 1 1 0 0 0 15.707031 8.2929688 A 1 1 0 0 0 15 8 z M 20.017578 11.5 A 1 1 0 0 0 19.757812 11.529297 L 17.757812 12.029297 A 1 1 0 0 0 17.029297 13.242188 A 1 1 0 0 0 18.242188 13.970703 L 20.242188 13.470703 A 1 1 0 0 0 20.970703 12.257812 A 1 1 0 0 0 20.017578 11.5 z M 7.7910156 11.722656 L 12.277344 16.208984 L 4.0039062 20 A 1.0001 1.0001 0 0 0 3.9980469 20.001953 A 1.0001 1.0001 0 0 0 4.0019531 19.996094 L 7.7910156 11.722656 z " fill="currentColor"/>
</svg>
