<svg xmlns="http://www.w3.org/2000/svg" width="1em" height="1em" viewBox="0 0 24 24" fill="currentColor">
  <path d="M 3 2 A 1 1 0 0 0 2.2929688 2.2929688 A 1 1 0 0 0 2.2929688 3.7070312 L 3.2148438 4.6289062 A 1 1 0 0 0 3.3808594 4.7949219 L 7 8.4140625 L 7 19 C 7 20.092725 7.9072751 21 9 21 L 15 21 C 16.092725 21 17 20.092725 17 19 L 17 18.414062 L 19.214844 20.628906 A 1 1 0 0 0 19.380859 20.794922 L 20.292969 21.707031 A 1 1 0 0 0 21.707031 21.707031 A 1 1 0 0 0 21.707031 20.292969 L 20.716797 19.302734 A 1 1 0 0 0 20.697266 19.283203 L 16.716797 15.302734 A 1 1 0 0 0 16.697266 15.283203 L 8.7167969 7.3027344 A 1 1 0 0 0 8.6972656 7.2832031 L 4.7167969 3.3027344 A 1 1 0 0 0 4.6972656 3.2832031 L 3.7070312 2.2929688 A 1 1 0 0 0 3 2 z M 9 3 C 8.4738958 3.000101 7.9678101 3.2081727 7.59375 3.578125 A 1 1 0 0 0 7.5859375 4.9921875 A 1 1 0 0 0 9 5 L 15 5 L 15 12 A 1 1 0 0 0 16 13 A 1 1 0 0 0 17 12 L 17 5 C 17 3.9072751 16.092725 3 15 3 L 9 3 z M 20 3 A 1 1 0 0 0 19 4 L 19 4.0097656 A 1 1 0 0 0 20 5.0097656 A 1 1 0 0 0 21 4.0097656 L 21 4 A 1 1 0 0 0 20 3 z M 4 7 A 1 1 0 0 0 3 8 L 3 8.0097656 A 1 1 0 0 0 4 9.0097656 A 1 1 0 0 0 5 8.0097656 L 5 8 A 1 1 0 0 0 4 7 z M 20 7 A 1 1 0 0 0 19 8 L 19 8.0097656 A 1 1 0 0 0 20 9.0097656 A 1 1 0 0 0 21 8.0097656 L 21 8 A 1 1 0 0 0 20 7 z M 9 10.414062 L 15 16.414062 L 15 19 L 9 19 L 9 10.414062 z M 4 11 A 1 1 0 0 0 3 12 L 3 12.009766 A 1 1 0 0 0 4 13.009766 A 1 1 0 0 0 5 12.009766 L 5 12 A 1 1 0 0 0 4 11 z M 20 11 A 1 1 0 0 0 19 12 L 19 12.009766 A 1 1 0 0 0 20 13.009766 A 1 1 0 0 0 21 12.009766 L 21 12 A 1 1 0 0 0 20 11 z M 4 15 A 1 1 0 0 0 3 16 L 3 16.009766 A 1 1 0 0 0 4 17.009766 A 1 1 0 0 0 5 16.009766 L 5 16 A 1 1 0 0 0 4 15 z M 20 15 A 1 1 0 0 0 19 16 L 19 16.009766 A 1 1 0 0 0 20 17.009766 A 1 1 0 0 0 21 16.009766 L 21 16 A 1 1 0 0 0 20 15 z M 4 19 A 1 1 0 0 0 3 20 L 3 20.009766 A 1 1 0 0 0 4 21.009766 A 1 1 0 0 0 5 20.009766 L 5 20 A 1 1 0 0 0 4 19 z " fill="currentColor"/>
</svg>
