<svg xmlns="http://www.w3.org/2000/svg" width="1em" height="1em" viewBox="0 0 24 24" fill="currentColor">
  <path d="M 4 3 A 1 1 0 0 0 3 4 L 3 4.0097656 A 1 1 0 0 0 4 5.0097656 A 1 1 0 0 0 5 4.0097656 L 5 4 A 1 1 0 0 0 4 3 z M 9 3 C 7.9072751 3 7 3.9072751 7 5 L 7 19 C 7 20.092725 7.9072751 21 9 21 L 15 21 C 16.092725 21 17 20.092725 17 19 L 17 5 C 17 3.9072751 16.092725 3 15 3 L 9 3 z M 20 3 A 1 1 0 0 0 19 4 L 19 4.0097656 A 1 1 0 0 0 20 5.0097656 A 1 1 0 0 0 21 4.0097656 L 21 4 A 1 1 0 0 0 20 3 z M 9 5 L 15 5 L 15 19 L 9 19 L 9 5 z M 4 7 A 1 1 0 0 0 3 8 L 3 8.0097656 A 1 1 0 0 0 4 9.0097656 A 1 1 0 0 0 5 8.0097656 L 5 8 A 1 1 0 0 0 4 7 z M 20 7 A 1 1 0 0 0 19 8 L 19 8.0097656 A 1 1 0 0 0 20 9.0097656 A 1 1 0 0 0 21 8.0097656 L 21 8 A 1 1 0 0 0 20 7 z M 4 11 A 1 1 0 0 0 3 12 L 3 12.009766 A 1 1 0 0 0 4 13.009766 A 1 1 0 0 0 5 12.009766 L 5 12 A 1 1 0 0 0 4 11 z M 20 11 A 1 1 0 0 0 19 12 L 19 12.009766 A 1 1 0 0 0 20 13.009766 A 1 1 0 0 0 21 12.009766 L 21 12 A 1 1 0 0 0 20 11 z M 4 15 A 1 1 0 0 0 3 16 L 3 16.009766 A 1 1 0 0 0 4 17.009766 A 1 1 0 0 0 5 16.009766 L 5 16 A 1 1 0 0 0 4 15 z M 20 15 A 1 1 0 0 0 19 16 L 19 16.009766 A 1 1 0 0 0 20 17.009766 A 1 1 0 0 0 21 16.009766 L 21 16 A 1 1 0 0 0 20 15 z M 4 19 A 1 1 0 0 0 3 20 L 3 20.009766 A 1 1 0 0 0 4 21.009766 A 1 1 0 0 0 5 20.009766 L 5 20 A 1 1 0 0 0 4 19 z M 20 19 A 1 1 0 0 0 19 20 L 19 20.009766 A 1 1 0 0 0 20 21.009766 A 1 1 0 0 0 21 20.009766 L 21 20 A 1 1 0 0 0 20 19 z " fill="currentColor"/>
</svg>
