<svg xmlns="http://www.w3.org/2000/svg" width="1em" height="1em" viewBox="0 0 24 24" fill="currentColor">
  <path d="M 5 2 C 3.3549904 2 2 3.3549904 2 5 L 2 19 C 2 20.64501 3.3549904 22 5 22 L 19 22 C 20.64501 22 22 20.64501 22 19 L 22 5 C 22 3.3549904 20.64501 2 19 2 L 5 2 z M 5 4 L 18.75 4 C 14.461557 4 11 7.6128757 11 12 C 11 15.344876 8.4175565 18 5.25 18 L 4 18 L 4 5 C 4 4.4358706 4.4358706 4 5 4 z M 18.75 6 L 20 6 L 20 19 C 20 19.564129 19.564129 20 19 20 L 5.25 20 C 9.5384435 20 13 16.387124 13 12 C 13 8.6551243 15.582443 6 18.75 6 z " fill="currentColor"/>
</svg>
