<svg xmlns="http://www.w3.org/2000/svg" width="1em" height="1em" viewBox="0 0 24 24" fill="currentColor">
  <path d="M 11.902344 1.96875 C 11.508888 1.9737833 11.112084 2.001973 10.712891 2.0566406 C 9.6483749 2.202421 8.5694282 2.5286033 7.5058594 3.0644531 A 1 1 0 0 0 7.0625 4.4082031 A 1 1 0 0 0 8.4042969 4.8515625 C 11.899062 3.0908214 15.391193 4.0669747 17.662109 6.3378906 C 19.933025 8.6088065 20.90918 12.100938 19.148438 15.595703 A 1 1 0 0 0 19.591797 16.9375 A 1 1 0 0 0 20.935547 16.494141 C 23.078946 12.239865 21.887531 7.7351873 19.076172 4.9238281 C 17.231218 3.0788737 14.656533 1.9335166 11.902344 1.96875 z M 3 2 A 1 1 0 0 0 2.2929688 2.2929688 A 1 1 0 0 0 2.2929688 3.7070312 L 4.2519531 5.6660156 C 0.9958484 9.5850263 1.1974044 15.442052 4.875 19.121094 C 8.5535917 22.801131 14.413685 23.005339 18.333984 19.748047 L 20.292969 21.707031 A 1 1 0 0 0 21.707031 21.707031 A 1 1 0 0 0 21.707031 20.292969 L 14.880859 13.466797 A 1 1 0 0 0 14.830078 13.412109 A 1 1 0 0 0 14.775391 13.361328 L 6.3808594 4.9667969 A 1 1 0 0 0 6.3496094 4.9335938 A 1 1 0 0 0 6.3046875 4.890625 L 3.7070312 2.2929688 A 1 1 0 0 0 3 2 z M 5.671875 7.0859375 L 12.521484 13.935547 C 11.889806 14.108529 11.190621 13.964287 10.660156 13.498047 A 1 1 0 0 0 9.9355469 13.251953 A 1 1 0 0 0 9.2480469 13.589844 A 1 1 0 0 0 9.3398438 15.001953 C 10.663299 16.165177 12.568788 16.300805 14.029297 15.443359 L 16.912109 18.326172 C 13.769511 20.824432 9.202535 20.621649 6.2890625 17.707031 C 3.3765901 14.793414 3.1749123 10.227457 5.671875 7.0859375 z M 13.359375 8.3007812 A 1 1 0 0 0 12.972656 8.3554688 A 1 1 0 0 0 12.402344 8.8652344 A 1 1 0 0 0 12.869141 10.201172 C 13.279334 10.398944 13.60916 10.730291 13.806641 11.140625 A 1 1 0 0 0 15.142578 11.607422 A 1 1 0 0 0 15.609375 10.271484 C 15.215628 9.4533379 14.554195 8.7927667 13.736328 8.3984375 A 1 1 0 0 0 13.359375 8.3007812 z " fill="currentColor"/>
</svg>
