<svg xmlns="http://www.w3.org/2000/svg" width="1em" height="1em" viewBox="0 0 24 24" fill="currentColor">
  <path d="M 3 2 A 1 1 0 0 0 2.2929688 2.2929688 A 1 1 0 0 0 2.2929688 3.7070312 L 3.2929688 4.7070312 C 3.1050438 5.100393 3 5.54021 3 6 L 3 14 C 3 15.64501 4.3549904 17 6 17 L 7 17 L 7 18 C 7 19.64501 8.3549904 21 10 21 L 18 21 C 18.45164 21.00013 18.8927 20.897938 19.292969 20.707031 L 20.292969 21.707031 A 1 1 0 0 0 21.707031 21.707031 A 1 1 0 0 0 21.707031 20.292969 L 20.121094 18.708984 L 9.3671875 7.953125 A 1 1 0 0 0 9.2988281 7.8769531 A 1 1 0 0 0 9.21875 7.8046875 L 3.7070312 2.2929688 A 1 1 0 0 0 3 2 z M 8 3 A 1 1 0 0 0 7 4 A 1 1 0 0 0 8 5 L 14 5 C 14.564129 5 15 5.4358706 15 6 L 15 7 L 12 7 A 1 1 0 0 0 11 8 A 1 1 0 0 0 12 9 L 18 9 C 18.564129 9 19 9.4358706 19 10 L 19 16 A 1 1 0 0 0 20 17 A 1 1 0 0 0 21 16 L 21 10 C 21 8.3549904 19.64501 7 18 7 L 17 7 L 17 6 C 17 4.3549904 15.64501 3 14 3 L 8 3 z M 5 6.4140625 L 7.2929688 8.7070312 C 7.1051051 9.1000556 7 9.5402333 7 10 L 7 15 L 6 15 C 5.4358706 15 5 14.564129 5 14 L 5 6.4140625 z M 9 10.414062 L 17.585938 19 L 10 19 C 9.4358706 19 9 18.564129 9 18 L 9 10.414062 z " fill="currentColor"/>
</svg>
