<svg xmlns="http://www.w3.org/2000/svg" width="1em" height="1em" viewBox="0 0 24 24" fill="currentColor">
  <path d="M 5 3 A 1 1 0 0 0 4 4 A 1 1 0 0 0 5 5 L 11 5 C 12.116414 5 13 5.8835859 13 7 L 13 11.585938 L 10.707031 9.2929688 A 1 1 0 0 0 10 9 A 1 1 0 0 0 9.2929688 9.2929688 A 1 1 0 0 0 9.2929688 10.707031 L 13.283203 14.697266 L 13.292969 14.707031 A 1.0001 1.0001 0 0 0 13.341797 14.75 A 1 1 0 0 0 13.384766 14.787109 A 1.0001 1.0001 0 0 0 13.439453 14.824219 A 1 1 0 0 0 13.492188 14.861328 A 1.0001 1.0001 0 0 0 13.5 14.865234 A 1 1 0 0 0 13.611328 14.921875 A 1.0001 1.0001 0 0 0 13.617188 14.923828 A 1 1 0 0 0 13.742188 14.964844 A 1 1 0 0 0 13.794922 14.976562 A 1.0001 1.0001 0 0 0 14 15 A 1.0001 1.0001 0 0 0 14.205078 14.976562 A 1.0001 1.0001 0 0 0 14.257812 14.964844 A 1 1 0 0 0 14.382812 14.923828 A 1.0001 1.0001 0 0 0 14.560547 14.824219 A 1 1 0 0 0 14.615234 14.787109 A 1.0001 1.0001 0 0 0 14.658203 14.75 A 1 1 0 0 0 14.716797 14.697266 L 18.707031 10.707031 A 1 1 0 0 0 18.707031 9.2929688 A 1 1 0 0 0 17.292969 9.2929688 L 15 11.585938 L 15 7 C 15 4.8027056 13.197294 3 11 3 L 5 3 z M 10 14 A 1 1 0 0 0 9.2929688 14.292969 A 1 1 0 0 0 9.2929688 15.707031 L 13.292969 19.707031 A 1.0001 1.0001 0 0 0 14.707031 19.707031 L 18.707031 15.707031 A 1 1 0 0 0 18.707031 14.292969 A 1 1 0 0 0 17.292969 14.292969 L 14 17.585938 L 10.707031 14.292969 A 1 1 0 0 0 10 14 z " fill="currentColor"/>
</svg>
