<svg xmlns="http://www.w3.org/2000/svg" width="1em" height="1em" viewBox="0 0 24 24" fill="currentColor">
  <path d="M 12 5 C 9.8027056 5 8 6.8027056 8 9 L 8 16.585938 L 5.7070312 14.292969 A 1 1 0 0 0 4.2929688 14.292969 A 1 1 0 0 0 4.2929688 15.707031 L 8.2929688 19.707031 A 1 1 0 0 0 9.2480469 19.896484 A 1.0001 1.0001 0 0 0 9.4589844 19.810547 A 1 1 0 0 0 9.7070312 19.707031 L 13.707031 15.707031 A 1 1 0 0 0 13.707031 14.292969 A 1 1 0 0 0 12.292969 14.292969 L 10 16.585938 L 10 9 C 10 7.8835859 10.883586 7 12 7 L 18 7 A 1 1 0 0 0 19 6 A 1 1 0 0 0 18 5 L 12 5 z " fill="currentColor"/>
</svg>
