<svg xmlns="http://www.w3.org/2000/svg" width="1em" height="1em" viewBox="0 0 24 24" fill="currentColor">
  <path d="M 3 2 A 1 1 0 0 0 2.2929688 2.2929688 A 1 1 0 0 0 2.2929688 3.7070312 L 4.0683594 5.4824219 C 4.0237584 5.6484133 4 5.8222319 4 6 L 4 9 L 3 9 A 1 1 0 0 0 2 10 A 1 1 0 0 0 3 11 L 4 11 L 4 13 L 3 13 A 1 1 0 0 0 2 14 A 1 1 0 0 0 3 15 L 4 15 L 4 18 C 4 19.092725 4.9072751 20 6 20 L 9 20 L 9 21 A 1 1 0 0 0 10 22 A 1 1 0 0 0 11 21 L 11 20 L 13 20 L 13 21 A 1 1 0 0 0 14 22 A 1 1 0 0 0 15 21 L 15 20 L 18 20 C 18.17623 19.999963 18.35012 19.97657 18.517578 19.931641 L 20.292969 21.707031 A 1 1 0 0 0 21.707031 21.707031 A 1 1 0 0 0 21.707031 20.292969 L 19.451172 18.037109 A 1 1 0 0 0 19.414062 17.998047 A 1 1 0 0 0 19.376953 17.962891 L 15.716797 14.302734 A 1 1 0 0 0 15.697266 14.283203 L 9.7167969 8.3027344 A 1 1 0 0 0 9.6972656 8.2832031 L 3.7070312 2.2929688 A 1 1 0 0 0 3 2 z M 10 2 A 1 1 0 0 0 9 3 L 9 4 A 1 1 0 0 0 8 5 A 1 1 0 0 0 9 6 L 18 6 L 18 15 A 1 1 0 0 0 19 16 A 1 1 0 0 0 20 15 L 21 15 A 1 1 0 0 0 22 14 A 1 1 0 0 0 21 13 L 20 13 L 20 11 L 21 11 A 1 1 0 0 0 22 10 A 1 1 0 0 0 21 9 L 20 9 L 20 6 C 20 4.9072751 19.092725 4 18 4 L 15 4 L 15 3 A 1 1 0 0 0 14 2 A 1 1 0 0 0 13 3 L 13 4 L 11 4 L 11 3 A 1 1 0 0 0 10 2 z M 6 7.4140625 L 8 9.4140625 L 8 15 A 1.0001 1.0001 0 0 0 9 16 L 14.585938 16 L 16.585938 18 L 6 18 L 6 7.4140625 z M 13 8 A 1 1 0 0 0 12 9 A 1 1 0 0 0 13 10 L 14 10 L 14 11 A 1 1 0 0 0 15 12 A 1 1 0 0 0 16 11 L 16 9 A 1.0001 1.0001 0 0 0 15 8 L 13 8 z M 10 11.414062 L 12.585938 14 L 10 14 L 10 11.414062 z " fill="currentColor"/>
</svg>
