<svg xmlns="http://www.w3.org/2000/svg" width="1em" height="1em" viewBox="0 0 24 24" fill="currentColor">
  <path d="M 12 2 C 6.4889982 2 2 6.4889941 2 12 C 2 17.511006 6.4889982 22 12 22 C 17.511002 22 22 17.511006 22 12 C 22 6.4889941 17.511002 2 12 2 z M 12 4 C 16.430123 4 20 7.5698737 20 12 C 20 16.430126 16.430123 20 12 20 C 7.5698765 20 4 16.430126 4 12 C 4 7.5698737 7.5698765 4 12 4 z M 12.164062 7.0019531 C 11.446538 6.9807627 10.734149 7.1123961 10.085938 7.3808594 C 8.4639781 8.0526093 7.1692072 9.6073119 7.015625 11.601562 L 6.7070312 11.292969 A 1 1 0 0 0 6 11 A 1 1 0 0 0 5.2929688 11.292969 A 1 1 0 0 0 5.2929688 12.707031 L 7.2929688 14.707031 A 1.0001 1.0001 0 0 0 8.7070312 14.707031 L 10.707031 12.707031 A 1 1 0 0 0 10.707031 11.292969 A 1 1 0 0 0 9.2929688 11.292969 L 9.0292969 11.556641 C 9.1802816 10.414992 9.9128881 9.6172765 10.851562 9.2285156 C 11.907205 8.7913106 13.146193 8.9040053 14.121094 9.8789062 C 15.095995 10.853807 15.208689 12.092793 14.771484 13.148438 C 14.334279 14.20408 13.378949 15 12 15 A 1 1 0 0 0 11 16 A 1 1 0 0 0 12 17 C 14.184919 17 15.903238 15.642627 16.619141 13.914062 C 17.335043 12.185496 17.079985 10.009672 15.535156 8.4648438 C 14.762742 7.6924295 13.833882 7.2416024 12.880859 7.0742188 C 12.642604 7.0323729 12.403237 7.0090166 12.164062 7.0019531 z " fill="currentColor"/>
</svg>
