<svg xmlns="http://www.w3.org/2000/svg" width="1em" height="1em" viewBox="0 0 24 24" fill="currentColor">
  <path d="M 3 2 A 1 1 0 0 0 2.2929688 2.2929688 A 1 1 0 0 0 2.2929688 3.7070312 L 3.4804688 4.8945312 C 2.5760981 5.6300655 2 6.7520055 2 8 L 2 16 C 2 18.197294 3.8027056 20 6 20 L 17.998047 20 C 18.182486 20.000187 18.366572 19.987852 18.548828 19.962891 L 20.292969 21.707031 A 1 1 0 0 0 21.707031 21.707031 A 1 1 0 0 0 21.707031 20.292969 L 11.716797 10.302734 A 1 1 0 0 0 11.689453 10.277344 L 3.7070312 2.2929688 A 1 1 0 0 0 3 2 z M 9 4 A 1 1 0 0 0 8 5 A 1 1 0 0 0 9 6 L 18 6 C 19.116414 6 20 6.8835859 20 8 L 20 10 L 15 10 A 1 1 0 0 0 14 11 A 1 1 0 0 0 15 12 L 20 12 L 20 16 A 1.0001 1.0001 0 0 0 20 16.001953 C 20.000199 16.198431 19.970842 16.391983 19.914062 16.580078 A 1 1 0 0 0 20.583984 17.828125 A 1 1 0 0 0 21.830078 17.158203 C 21.943637 16.781974 22.000398 16.390995 22 15.998047 L 22 8 C 22 5.8027056 20.197294 4 18 4 L 9 4 z M 4.9082031 6.3222656 L 8.5859375 10 L 4 10 L 4 8 C 4 7.2910162 4.362346 6.6770671 4.9082031 6.3222656 z M 4 12 L 10.585938 12 L 12.585938 14 L 11 14 A 1 1 0 0 0 10 15 A 1 1 0 0 0 11 16 L 13 16 A 1 1 0 0 0 13.9375 15.351562 L 16.585938 18 L 6 18 C 4.8835859 18 4 17.116414 4 16 L 4 12 z M 7 14 A 1 1 0 0 0 6 15 A 1 1 0 0 0 7 16 L 7.0097656 16 A 1 1 0 0 0 8.0097656 15 A 1 1 0 0 0 7.0097656 14 L 7 14 z " fill="currentColor"/>
</svg>
