<svg xmlns="http://www.w3.org/2000/svg" width="1em" height="1em" viewBox="0 0 24 24" fill="currentColor">
  <path d="M 19.001953 1.9765625 C 18.228296 1.9491765 17.3971 2.259092 16.751953 2.8984375 L 14.011719 5.5917969 L 13.212891 4.7929688 A 1.0001 1.0001 0 0 0 11.792969 4.7988281 L 9.9609375 6.65625 A 1 1 0 0 0 9.9589844 6.6582031 A 1 1 0 0 0 9.7929688 6.7929688 A 1 1 0 0 0 9.6523438 6.9707031 L 3.5117188 13.199219 A 1.0001 1.0001 0 0 0 3.4980469 13.212891 L 3.3398438 13.378906 A 1.0001 1.0001 0 0 0 3.3183594 13.402344 C 2.2627815 14.59139 1.8472451 15.998125 1.9746094 17.285156 C 2.1019736 18.572187 2.732057 19.723497 3.6308594 20.574219 C 4.5296618 21.42494 5.7157287 21.992344 7.0078125 22.048828 C 8.2992842 22.105281 9.6776624 21.612309 10.806641 20.494141 C 10.947639 20.679302 11.104326 20.847725 11.273438 20.998047 C 12.042118 21.681319 13.027778 22 14 22 C 14.972222 22 15.957881 21.681319 16.726562 20.998047 C 17.495244 20.314774 18 19.25 18 18 C 18 16.75 17.495244 15.685226 16.726562 15.001953 C 16.66516 14.947373 16.603116 14.895654 16.539062 14.845703 L 17.068359 14.322266 A 1 1 0 0 0 17.070312 14.320312 A 1 1 0 0 0 17.207031 14.207031 A 1 1 0 0 0 17.314453 14.080078 L 19.208984 12.212891 A 1.0001 1.0001 0 0 0 19.212891 10.792969 L 18.414062 9.9941406 L 21.109375 7.2519531 A 1.0001 1.0001 0 0 0 21.132812 7.2265625 L 21.248047 7.1015625 A 1.0001 1.0001 0 0 0 21.279297 7.0664062 C 21.863385 6.3708389 22.102673 5.516827 22.011719 4.7480469 C 21.920765 3.9792668 21.537705 3.3100559 21.005859 2.8203125 C 20.474014 2.3305691 19.77561 2.0039486 19.001953 1.9765625 z M 18.841797 3.9765625 C 18.871936 3.9752448 18.90137 3.975491 18.931641 3.9765625 C 19.173804 3.9851325 19.442201 4.0975084 19.652344 4.2910156 C 19.862486 4.4845229 19.996921 4.7437381 20.025391 4.984375 C 20.053651 5.2232505 20.012511 5.4600064 19.75 5.7753906 L 19.671875 5.8613281 L 16.292969 9.2988281 A 1.0001 1.0001 0 0 0 16.298828 10.707031 L 17.085938 11.494141 L 16.492188 12.078125 L 11.927734 7.5136719 L 12.511719 6.9199219 L 13.298828 7.7070312 A 1.0001 1.0001 0 0 0 14.707031 7.7128906 L 18.15625 4.3222656 A 1.0001 1.0001 0 0 0 18.160156 4.3183594 C 18.418959 4.0618843 18.63082 3.9857861 18.841797 3.9765625 z M 10.523438 8.9375 L 15.070312 13.484375 L 14.517578 14.029297 L 14.515625 14.029297 C 14.344104 14.009105 14.171955 14 14 14 C 13.027778 14 12.042119 14.318681 11.273438 15.001953 C 10.504755 15.685226 10 16.75 10 18 C 10 18.154563 10.008458 18.30655 10.023438 18.455078 L 9.4003906 19.072266 C 8.6222782 19.843498 7.8485858 20.083779 7.09375 20.050781 C 6.3389142 20.017783 5.5854372 19.67162 5.0058594 19.123047 C 4.4262816 18.574473 4.03925 17.839775 3.9648438 17.087891 C 3.8905083 16.336723 4.086871 15.550873 4.8125 14.732422 L 4.8144531 14.730469 L 4.9433594 14.595703 L 10.523438 8.9375 z M 14 16 C 14.161789 16 14.321464 16.016073 14.476562 16.048828 A 1 1 0 0 0 14.693359 16.105469 C 14.960321 16.190131 15.202811 16.324158 15.398438 16.498047 C 15.754755 16.814774 16 17.250001 16 18 C 16 18.749999 15.754756 19.185226 15.398438 19.501953 C 15.042118 19.81868 14.527778 20 14 20 C 13.472222 20 12.95788 19.81868 12.601562 19.501953 C 12.383751 19.308344 12.207671 19.07114 12.103516 18.744141 A 1 1 0 0 0 12.027344 18.404297 C 12.009691 18.280539 12 18.146237 12 18 C 12 17.250001 12.245244 16.814774 12.601562 16.498047 C 12.95788 16.18132 13.472222 16 14 16 z " fill="currentColor"/>
</svg>
