<svg xmlns="http://www.w3.org/2000/svg" width="1em" height="1em" viewBox="0 0 24 24" fill="currentColor">
  <path d="M 11.560547 5.1640625 A 1 1 0 0 0 11.445312 5.1679688 A 1 1 0 0 0 11.273438 5.4238281 A 1 1 0 0 0 11.167969 5.4453125 L 7.7734375 10.537109 L 3.625 7.21875 A 1.0001 1.0001 0 0 0 2.0195312 8.1953125 L 4.0195312 18.195312 A 1.0001 1.0001 0 0 0 5 19 L 19 19 A 1.0001 1.0001 0 0 0 19.980469 18.195312 L 21.980469 8.1953125 A 1.0001 1.0001 0 0 0 20.375 7.21875 L 16.226562 10.537109 L 12.832031 5.4453125 A 1 1 0 0 0 12.726562 5.4238281 A 1 1 0 0 0 12.554688 5.1679688 A 1 1 0 0 0 12 5.2792969 A 1 1 0 0 0 11.560547 5.1640625 z M 12 7.8027344 L 15.167969 12.554688 A 1.0001 1.0001 0 0 0 16.625 12.78125 L 19.480469 10.496094 L 18.179688 17 L 5.8203125 17 L 4.5195312 10.496094 L 7.375 12.78125 A 1.0001 1.0001 0 0 0 8.8320312 12.554688 L 12 7.8027344 z " fill="currentColor"/>
</svg>
