<svg xmlns="http://www.w3.org/2000/svg" width="1em" height="1em" viewBox="0 0 24 24" fill="currentColor">
  <path d="M 12 2 C 7.8943605 2 4.7962438 4.5871249 3.5761719 7.8320312 C 2.5046634 10.681818 2.8566181 14.104945 5.0507812 16.728516 C 4.4094617 17.280598 4 18.096278 4 19 C 4 20.64501 5.3549904 22 7 22 L 17 22 C 17.916666 22 18.731441 21.620244 19.248047 21.039062 C 19.764653 20.457881 20 19.722222 20 19 C 20 18.277778 19.764653 17.542119 19.248047 16.960938 C 19.164821 16.867309 19.074444 16.779693 18.976562 16.697266 C 21.147271 14.077845 21.49105 10.670418 20.423828 7.8320312 C 19.203756 4.5871249 16.105639 2 12 2 z M 12 4 C 15.279415 4 17.594765 5.9873376 18.552734 8.5351562 C 19.472058 10.980191 19.112 13.861813 16.900391 16 L 7.0996094 16 C 4.8879998 13.861813 4.5279423 10.980191 5.4472656 8.5351562 C 6.4052353 5.9873376 8.7205846 4 12 4 z M 11 6 C 8.8027056 6 7 7.8027056 7 10 A 1 1 0 0 0 8 11 A 1 1 0 0 0 9 10 C 9 8.8835859 9.8835859 8 11 8 A 1 1 0 0 0 12 7 A 1 1 0 0 0 11 6 z M 7 18 L 17 18 C 17.033509 18 17.065086 18.000435 17.095703 18.001953 A 1 1 0 0 0 17.248047 18.017578 C 17.498358 18.056627 17.635557 18.158116 17.751953 18.289062 C 17.902014 18.457881 18 18.722222 18 19 C 18 19.277778 17.90201 19.542119 17.751953 19.710938 C 17.601893 19.879756 17.416666 20 17 20 L 7 20 C 6.4358706 20 6 19.564129 6 19 C 6 18.435871 6.4358706 18 7 18 z " fill="currentColor"/>
</svg>
