<svg xmlns="http://www.w3.org/2000/svg" width="1em" height="1em" viewBox="0 0 24 24" fill="currentColor">
  <path d="M 16 5.5 A 1.0001 1.0001 0 0 0 15.486328 5.6425781 L 10.515625 8.625 A 1 1 0 0 0 10.503906 8.6328125 L 10.486328 8.6425781 A 1.0001 1.0001 0 0 0 10.464844 8.65625 A 1 1 0 0 0 10.384766 8.7128906 A 1.0001 1.0001 0 0 0 10.345703 8.7460938 A 1 1 0 0 0 10.283203 8.8066406 A 1.0001 1.0001 0 0 0 10.248047 8.8457031 A 1 1 0 0 0 10.203125 8.8984375 A 1.0001 1.0001 0 0 0 10.167969 8.9492188 A 1 1 0 0 0 10.117188 9.0332031 A 1.0001 1.0001 0 0 0 10.111328 9.0449219 A 1 1 0 0 0 10.068359 9.1445312 A 1.0001 1.0001 0 0 0 10.048828 9.1992188 A 1 1 0 0 0 10.029297 9.265625 A 1.0001 1.0001 0 0 0 10.017578 9.3320312 A 1 1 0 0 0 10.005859 9.4121094 A 1.0001 1.0001 0 0 0 10.003906 9.4472656 A 1 1 0 0 0 10 9.5 L 10 15 A 1.0001 1.0001 0 0 0 10.486328 15.857422 L 15.486328 18.857422 A 1 1 0 0 0 15.542969 18.886719 A 1.0001 1.0001 0 0 0 15.582031 18.90625 A 1 1 0 0 0 15.673828 18.943359 A 1.0001 1.0001 0 0 0 15.710938 18.955078 A 1 1 0 0 0 15.787109 18.974609 A 1.0001 1.0001 0 0 0 15.898438 18.992188 A 1 1 0 0 0 15.984375 19 A 1.0001 1.0001 0 0 0 16.089844 18.994141 A 1 1 0 0 0 16.117188 18.992188 A 1 1 0 0 0 16.242188 18.96875 A 1.0001 1.0001 0 0 0 16.367188 18.929688 A 1 1 0 0 0 16.371094 18.927734 A 1.0001 1.0001 0 0 0 16.449219 18.890625 A 1 1 0 0 0 16.498047 18.865234 A 1.0001 1.0001 0 0 0 16.513672 18.857422 L 21.513672 15.857422 A 1.0001 1.0001 0 0 0 22 15 L 22 9.5507812 A 1 1 0 0 0 22 9.5 A 1.0001 1.0001 0 0 0 21.998047 9.4804688 A 1 1 0 0 0 21.994141 9.4101562 A 1.0001 1.0001 0 0 0 21.982422 9.3203125 A 1 1 0 0 0 21.980469 9.3105469 A 1.0001 1.0001 0 0 0 21.513672 8.6425781 L 16.513672 5.6425781 A 1.0001 1.0001 0 0 0 16 5.5 z M 16 7.6660156 L 19.076172 9.5117188 L 16.035156 11.355469 L 12.943359 9.5 L 16 7.6660156 z M 2 8 A 1 1 0 0 0 1 9 A 1 1 0 0 0 2 10 L 7 10 A 1 1 0 0 0 8 9 A 1 1 0 0 0 7 8 L 2 8 z M 4 11 A 1 1 0 0 0 3 12 A 1 1 0 0 0 4 13 L 7 13 A 1 1 0 0 0 8 12 A 1 1 0 0 0 7 11 L 4 11 z M 12 11.265625 L 15 13.066406 L 15 16.234375 L 12 14.433594 L 12 11.265625 z M 20 11.291016 L 20 14.433594 L 17 16.234375 L 17 13.107422 L 20 11.291016 z M 6 14 A 1 1 0 0 0 5 15 A 1 1 0 0 0 6 16 L 7 16 A 1 1 0 0 0 8 15 A 1 1 0 0 0 7 14 L 6 14 z " fill="currentColor"/>
</svg>
