<svg xmlns="http://www.w3.org/2000/svg" width="1em" height="1em" viewBox="0 0 24 24" fill="currentColor">
  <path d="M 12 1.9980469 A 1.0001 1.0001 0 0 0 11.517578 2.1230469 L 9.5175781 3.2246094 A 1 1 0 0 0 9.1230469 4.5820312 A 1 1 0 0 0 10.482422 4.9765625 L 12 4.140625 L 13.517578 4.9765625 A 1 1 0 0 0 14.876953 4.5820312 A 1 1 0 0 0 14.482422 3.2246094 L 12.482422 2.1230469 A 1.0001 1.0001 0 0 0 12 1.9980469 z M 6.0214844 5.3984375 A 1 1 0 0 0 5.5175781 5.5234375 L 3.546875 6.6074219 A 1 1 0 0 0 3.5234375 6.6191406 L 3.5175781 6.6230469 A 1.0001 1.0001 0 0 0 3.5097656 6.6269531 A 1 1 0 0 0 3.4179688 6.6875 A 1.0001 1.0001 0 0 0 3.3808594 6.7148438 A 1 1 0 0 0 3.3242188 6.7617188 A 1.0001 1.0001 0 0 0 3.2832031 6.8027344 A 1 1 0 0 0 3.2226562 6.8710938 A 1.0001 1.0001 0 0 0 3.2109375 6.8867188 A 1 1 0 0 0 3.1542969 6.96875 A 1.0001 1.0001 0 0 0 3.1328125 7.0039062 A 1 1 0 0 0 3.1230469 7.0175781 A 1 1 0 0 0 3.1015625 7.0605469 A 1.0001 1.0001 0 0 0 3.0722656 7.1230469 A 1 1 0 0 0 3.0488281 7.1972656 A 1.0001 1.0001 0 0 0 3.03125 7.2558594 A 1 1 0 0 0 3.0175781 7.3183594 A 1.0001 1.0001 0 0 0 3.0078125 7.3828125 A 1 1 0 0 0 3 7.484375 A 1 1 0 0 0 3 7.5488281 L 3 10 A 1 1 0 0 0 4 11 A 1 1 0 0 0 5 10 L 5 9.1914062 L 5.5175781 9.4765625 A 1 1 0 0 0 6.8769531 9.0820312 A 1 1 0 0 0 6.4824219 7.7246094 L 6.0742188 7.5 L 6.4824219 7.2753906 A 1 1 0 0 0 6.8769531 5.9179688 A 1 1 0 0 0 6.0214844 5.3984375 z M 17.978516 5.4003906 A 1 1 0 0 0 17.720703 5.4394531 A 1 1 0 0 0 17.123047 5.9179688 A 1 1 0 0 0 17.517578 7.2753906 L 17.925781 7.5 L 17.517578 7.7246094 A 1 1 0 0 0 17.123047 9.0820312 A 1 1 0 0 0 18.482422 9.4765625 L 19 9.1914062 L 19 10 A 1 1 0 0 0 20 11 A 1 1 0 0 0 21 10 L 21 7.5488281 A 1 1 0 0 0 20.992188 7.3828125 A 1.0001 1.0001 0 0 0 20.982422 7.3183594 A 1 1 0 0 0 20.96875 7.2558594 A 1.0001 1.0001 0 0 0 20.951172 7.1972656 A 1 1 0 0 0 20.927734 7.1230469 A 1.0001 1.0001 0 0 0 20.898438 7.0605469 A 1 1 0 0 0 20.876953 7.0175781 A 1 1 0 0 0 20.869141 7.0039062 A 1.0001 1.0001 0 0 0 20.835938 6.953125 A 1 1 0 0 0 20.785156 6.8808594 A 1.0001 1.0001 0 0 0 20.767578 6.8613281 A 1 1 0 0 0 20.708984 6.7929688 A 1.0001 1.0001 0 0 0 20.625 6.71875 A 1 1 0 0 0 20.617188 6.7128906 A 1.0001 1.0001 0 0 0 20.517578 6.6445312 A 1 1 0 0 0 20.509766 6.640625 A 1.0001 1.0001 0 0 0 20.482422 6.6230469 L 18.482422 5.5234375 A 1 1 0 0 0 17.978516 5.4003906 z M 9.9863281 9.8808594 A 1 1 0 0 0 9.1269531 10.390625 A 1 1 0 0 0 9.5117188 11.751953 L 11 12.585938 L 11 14.5 A 1 1 0 0 0 12 15.5 A 1 1 0 0 0 13 14.5 L 13 12.591797 L 14.482422 11.775391 A 1 1 0 0 0 14.876953 10.417969 A 1 1 0 0 0 13.517578 10.023438 L 12.003906 10.855469 L 10.488281 10.007812 A 1 1 0 0 0 9.9863281 9.8808594 z M 4 13 A 1 1 0 0 0 3 14 L 3 16.5 A 1.0001 1.0001 0 0 0 3.5175781 17.376953 L 5.5175781 18.476562 A 1 1 0 0 0 6.8769531 18.082031 A 1 1 0 0 0 6.4824219 16.724609 L 5 15.908203 L 5 14 A 1 1 0 0 0 4 13 z M 20 13 A 1 1 0 0 0 19 14 L 19 15.914062 L 17.511719 16.748047 A 1 1 0 0 0 17.126953 18.109375 A 1 1 0 0 0 18.488281 18.492188 L 20.488281 17.373047 A 1.0001 1.0001 0 0 0 21 16.5 L 21 14 A 1 1 0 0 0 20 13 z M 12 17.5 A 1 1 0 0 0 11 18.5 L 11 19.308594 L 10.482422 19.023438 A 1 1 0 0 0 9.1230469 19.417969 A 1 1 0 0 0 9.5175781 20.775391 L 11.517578 21.876953 A 1.0001 1.0001 0 0 0 11.601562 21.916016 A 1 1 0 0 0 11.621094 21.925781 A 1.0001 1.0001 0 0 0 11.681641 21.947266 A 1 1 0 0 0 11.869141 21.992188 A 1.0001 1.0001 0 0 0 11.875 21.992188 A 1 1 0 0 0 11.894531 21.994141 A 1.0001 1.0001 0 0 0 12.246094 21.96875 A 1 1 0 0 0 12.25 21.96875 A 1.0001 1.0001 0 0 0 12.318359 21.947266 A 1 1 0 0 0 12.378906 21.925781 A 1.0001 1.0001 0 0 0 12.482422 21.876953 L 14.482422 20.775391 A 1 1 0 0 0 14.876953 19.417969 A 1 1 0 0 0 13.517578 19.023438 L 13 19.308594 L 13 18.5 A 1 1 0 0 0 12 17.5 z " fill="currentColor"/>
</svg>
