<svg xmlns="http://www.w3.org/2000/svg" width="1em" height="1em" viewBox="0 0 24 24" fill="currentColor">
  <path d="M 10.5625 4 C 8.8968338 3.9995266 7.4330947 5.1418325 7.0292969 6.7578125 A 1 1 0 0 0 7.7578125 7.9707031 A 1 1 0 0 0 8.9707031 7.2421875 C 9.1544462 6.5068562 9.8045596 5.9997846 10.5625 6 L 13.9375 6 C 14.69544 5.9997846 15.345554 6.5068562 15.529297 7.2421875 C 15.704348 7.942426 15.390261 8.6566425 14.761719 9 L 6 9 A 1 1 0 0 0 5 10 A 1 1 0 0 0 6 11 L 10.761719 11 L 8.8320312 11.964844 C 8.3125723 12.224657 7.864383 12.5794 7.5 13 L 6 13 A 1 1 0 0 0 5 14 A 1 1 0 0 0 6 15 L 6.5195312 15 C 6.4099894 15.548216 6.4051051 16.123146 6.5195312 16.695312 C 6.9026344 18.610571 8.5975833 20.000257 10.550781 20 L 13.4375 20 C 15.103166 20.000473 16.566905 18.858168 16.970703 17.242188 A 1 1 0 0 0 16.242188 16.029297 A 1 1 0 0 0 15.029297 16.757812 C 14.845554 17.493144 14.19544 18.000215 13.4375 18 L 10.550781 18 C 9.5387759 18.000133 8.6789649 17.297035 8.4804688 16.304688 C 8.3904356 15.854493 8.4356106 15.404241 8.5917969 15 L 18 15 A 1 1 0 0 0 19 14 A 1 1 0 0 0 18 13 L 11.234375 13 L 15.236328 11 L 18 11 A 1 1 0 0 0 19 10 A 1 1 0 0 0 18 9 L 17.298828 9 C 17.588632 8.3080405 17.662307 7.5242613 17.470703 6.7578125 C 17.066905 5.1418325 15.603166 3.9995266 13.9375 4 L 10.5625 4 z " fill="currentColor"/>
</svg>
