<svg xmlns="http://www.w3.org/2000/svg" width="1em" height="1em" viewBox="0 0 24 24" fill="currentColor">
  <path d="M 10 3 C 6.1458524 3 3 6.1458495 3 10 A 1 1 0 0 0 4 11 A 1 1 0 0 0 5 10 C 5 7.226729 7.2267307 5 10 5 C 12.773269 5 15 7.226729 15 10 L 15 11 L 12 11 A 1 1 0 0 0 11 12 A 1 1 0 0 0 12 13 L 15 13 L 15 15 L 12 15 A 1 1 0 0 0 11 16 A 1 1 0 0 0 12 17 L 15 17 L 15 20 A 1 1 0 0 0 16 21 A 1 1 0 0 0 17 20 L 17 17 L 20 17 A 1 1 0 0 0 21 16 A 1 1 0 0 0 20 15 L 17 15 L 17 13 L 20 13 A 1 1 0 0 0 21 12 A 1 1 0 0 0 20 11 L 17 11 L 17 10 C 17 6.1458495 13.854148 3 10 3 z " fill="currentColor"/>
</svg>
