<svg xmlns="http://www.w3.org/2000/svg" width="1em" height="1em" viewBox="0 0 24 24" fill="currentColor">
  <path d="M 9 4 A 1 1 0 0 0 8 5 L 8 11 L 6 11 A 1 1 0 0 0 5 12 A 1 1 0 0 0 6 13 L 8 13 L 8 19 A 1 1 0 0 0 9 20 A 1 1 0 0 0 10 19 L 10 13.082031 C 12.845763 13.555056 15 16.015349 15 19 A 1 1 0 0 0 16 20 A 1 1 0 0 0 17 19 C 17 16.574547 15.876984 14.447375 14.148438 13 L 18 13 A 1 1 0 0 0 19 12 A 1 1 0 0 0 18 11 L 14.148438 11 C 15.876984 9.5526245 17 7.4254528 17 5 A 1 1 0 0 0 16 4 A 1 1 0 0 0 15 5 C 15 7.9846512 12.845763 10.444944 10 10.917969 L 10 5 A 1 1 0 0 0 9 4 z " fill="currentColor"/>
</svg>
