<svg xmlns="http://www.w3.org/2000/svg" width="1em" height="1em" viewBox="0 0 24 24" fill="currentColor">
  <path d="M 9.5097656 4 A 1 1 0 0 0 8.5097656 4.859375 L 7.6738281 10.716797 L 4.59375 12.085938 A 1 1 0 0 0 4.0859375 13.40625 A 1 1 0 0 0 5.40625 13.914062 L 7.3398438 13.054688 L 6.8359375 16.576172 C 6.5801445 18.365707 7.9989162 20.000112 9.8066406 20 L 18 20 A 1 1 0 0 0 19 19 A 1 1 0 0 0 18 18 L 9.8066406 18 C 9.1799402 18.000039 8.727728 17.47977 8.8164062 16.859375 L 9.4960938 12.095703 L 14.40625 9.9140625 A 1 1 0 0 0 14.914062 8.59375 A 1 1 0 0 0 13.59375 8.0859375 L 9.8300781 9.7578125 L 10.490234 5.140625 A 1 1 0 0 0 9.640625 4.0097656 A 1 1 0 0 0 9.5097656 4 z " fill="currentColor"/>
</svg>
