<svg xmlns="http://www.w3.org/2000/svg" width="1em" height="1em" viewBox="0 0 24 24" fill="currentColor">
  <path d="M 18.048828 7.0019531 A 1 1 0 0 0 17.429688 7.1757812 A 1 1 0 0 0 17.171875 8.5664062 L 19.824219 12.433594 C 20.31157 13.144366 19.861806 13.999786 19 14 L 17 14 A 1 1 0 0 0 16 15 A 1 1 0 0 0 17 16 L 19 16 C 21.35619 15.999415 22.807035 13.245998 21.474609 11.302734 L 18.820312 7.4335938 A 1 1 0 0 0 18.048828 7.0019531 z M 3 9 A 1 1 0 0 0 2 10 L 2 11 C 2 13.749579 4.2504209 16 7 16 L 9 16 C 10.64501 16 12 14.64501 12 13 L 12 10 A 1 1 0 0 0 11 9 A 1 1 0 0 0 10 10 L 10 13 C 10 13.564129 9.5641294 14 9 14 L 7 14 C 5.3313011 14 4 12.668699 4 11 L 4 10 A 1 1 0 0 0 3 9 z M 14 14 A 1 1 0 0 0 13 15 L 13 15.009766 A 1 1 0 0 0 14 16.009766 A 1 1 0 0 0 15 15.009766 L 15 15 A 1 1 0 0 0 14 14 z M 7 18 A 1 1 0 0 0 6 19 L 6 19.009766 A 1 1 0 0 0 7 20.009766 A 1 1 0 0 0 8 19.009766 L 8 19 A 1 1 0 0 0 7 18 z " fill="currentColor"/>
</svg>
