<svg xmlns="http://www.w3.org/2000/svg" width="1em" height="1em" viewBox="0 0 24 24" fill="currentColor">
  <path d="M 7.0332031 4 A 1 1 0 0 0 6.4179688 4.1855469 A 1 1 0 0 0 6.1855469 5.5820312 L 10.771484 12 L 8 12 A 1 1 0 0 0 7 13 A 1 1 0 0 0 8 14 L 11 14 L 11 16 L 8 16 A 1 1 0 0 0 7 17 A 1 1 0 0 0 8 18 L 11 18 L 11 19 A 1 1 0 0 0 12 20 A 1 1 0 0 0 13 19 L 13 18 L 16 18 A 1 1 0 0 0 17 17 A 1 1 0 0 0 16 16 L 13 16 L 13 14 L 16 14 A 1 1 0 0 0 17 13 A 1 1 0 0 0 16 12 L 13.230469 12 L 17.814453 5.5820312 A 1 1 0 0 0 17.582031 4.1855469 A 1 1 0 0 0 16.185547 4.4179688 L 12 10.277344 L 7.8144531 4.4179688 A 1 1 0 0 0 7.0332031 4 z " fill="currentColor"/>
</svg>
