<svg xmlns="http://www.w3.org/2000/svg" width="1em" height="1em" viewBox="0 0 24 24" fill="currentColor">
  <path d="M 6.9648438 3 A 1 1 0 0 0 6.4707031 3.1523438 A 1 1 0 0 0 6.1523438 4.5292969 L 10.197266 11 L 7 11 A 1 1 0 0 0 6 12 A 1 1 0 0 0 7 13 L 10.197266 13 L 8.9472656 15 L 7 15 A 1 1 0 0 0 6 16 A 1 1 0 0 0 7 17 L 7.6972656 17 L 6.1523438 19.470703 A 1 1 0 0 0 6.4707031 20.847656 A 1 1 0 0 0 7.8476562 20.529297 L 10.052734 17 L 13.947266 17 L 16.152344 20.529297 A 1 1 0 0 0 17.529297 20.847656 A 1 1 0 0 0 17.847656 19.470703 L 16.302734 17 L 17 17 A 1 1 0 0 0 18 16 A 1 1 0 0 0 17 15 L 15.052734 15 L 13.802734 13 L 17 13 A 1 1 0 0 0 18 12 A 1 1 0 0 0 17 11 L 13.802734 11 L 17.847656 4.5292969 A 1 1 0 0 0 17.529297 3.1523438 A 1 1 0 0 0 16.152344 3.4707031 L 12 10.115234 L 7.8476562 3.4707031 A 1 1 0 0 0 7.2246094 3.0253906 A 1 1 0 0 0 6.9648438 3 z M 12 13.884766 L 12.697266 15 L 11.302734 15 L 12 13.884766 z " fill="currentColor"/>
</svg>
