<svg xmlns="http://www.w3.org/2000/svg" width="1em" height="1em" viewBox="0 0 24 24" fill="currentColor">
  <path d="M 12 4 A 1 1 0 0 0 11 5 L 11 6.0761719 C 9.8712341 6.2482669 8.7826349 6.7160002 7.8984375 7.5019531 C 6.7547556 8.5185588 6 10.083334 6 12 L 6 19 A 1 1 0 0 0 7 20 A 1 1 0 0 0 8 19 L 8 12 C 8 10.583334 8.4952444 9.6481071 9.2265625 8.9980469 C 9.7173886 8.5617572 10.335701 8.2616018 11 8.1113281 L 11 19 A 1 1 0 0 0 12 20 A 1 1 0 0 0 13 19 L 13 8.1113281 C 13.664299 8.2616018 14.282611 8.5617572 14.773438 8.9980469 C 15.504755 9.6481071 16 10.583334 16 12 L 16 19 A 1 1 0 0 0 17 20 A 1 1 0 0 0 18 19 L 18 12 C 18 10.083334 17.245244 8.5185588 16.101562 7.5019531 C 15.217366 6.7160002 14.128766 6.2482669 13 6.0761719 L 13 5 A 1 1 0 0 0 12 4 z " fill="currentColor"/>
</svg>
