<svg xmlns="http://www.w3.org/2000/svg" width="1em" height="1em" viewBox="0 0 24 24" fill="currentColor">
  <path d="M 18 3 A 1 1 0 0 0 17 4 L 17 5 C 15.75 5 14.685226 5.5047556 14.001953 6.2734375 C 13.318681 7.0421194 13 8.0277779 13 9 C 13 9.9722221 13.318681 10.957881 14.001953 11.726562 C 14.685226 12.495243 15.75 13 17 13 L 18 13 C 18.749999 13 19.185226 13.245244 19.501953 13.601562 C 19.81868 13.95788 20 14.472222 20 15 C 20 15.527778 19.81868 16.04212 19.501953 16.398438 C 19.185226 16.754756 18.749999 17 18 17 L 14 17 A 1 1 0 0 0 13 18 A 1 1 0 0 0 14 19 L 16 19 L 16 20 A 1 1 0 0 0 17 21 A 1 1 0 0 0 18 20 L 18 19 C 19.25 19 20.314774 18.495244 20.998047 17.726562 C 21.681319 16.957881 22 15.972222 22 15 C 22 14.027778 21.681319 13.042119 20.998047 12.273438 C 20.314774 11.504755 19.25 11 18 11 L 17 11 C 16.250001 11 15.814774 10.754756 15.498047 10.398438 C 15.18132 10.042118 15 9.5277779 15 9 C 15 8.4722221 15.18132 7.9578806 15.498047 7.6015625 C 15.814774 7.2452444 16.250001 7 17 7 L 21 7 A 1 1 0 0 0 22 6 A 1 1 0 0 0 21 5 L 19 5 L 19 4 A 1 1 0 0 0 18 3 z M 3 5 A 1 1 0 0 0 2 6 L 2 18 A 1.0001 1.0001 0 0 0 3 19 L 7 19 C 8.2499997 19 9.3147744 18.495244 9.9980469 17.726562 C 10.681319 16.957881 11 15.972222 11 15 C 11 14.027778 10.681319 13.042119 9.9980469 12.273438 C 9.8970191 12.159781 9.7342379 12.101327 9.6171875 12 C 9.7342379 11.898673 9.8970191 11.840218 9.9980469 11.726562 C 10.681319 10.95788 11 9.9722221 11 9 C 11 8.0277779 10.681319 7.0421194 9.9980469 6.2734375 C 9.3147744 5.5047556 8.2499997 5 7 5 L 3 5 z M 4 7 L 7 7 C 7.7499995 7 8.1852261 7.2452444 8.5019531 7.6015625 C 8.8186802 7.9578806 9 8.4722221 9 9 C 9 9.5277779 8.8186802 10.042119 8.5019531 10.398438 C 8.1852261 10.754755 7.7499995 11 7 11 L 4 11 L 4 7 z M 4 13 L 7 13 C 7.7499995 13 8.1852261 13.245244 8.5019531 13.601562 C 8.8186802 13.95788 9 14.472222 9 15 C 9 15.527778 8.8186802 16.04212 8.5019531 16.398438 C 8.1852261 16.754756 7.7499995 17 7 17 L 4 17 L 4 13 z " fill="currentColor"/>
</svg>
