<svg xmlns="http://www.w3.org/2000/svg" width="1em" height="1em" viewBox="0 0 24 24" fill="currentColor">
  <path d="M 10 4 A 1 1 0 0 0 9 5 L 9 6.6660156 C 8.3061946 6.9972109 7.6464823 7.4550802 7.0507812 8.0507812 C 4.8760207 10.225542 4.5290242 13.255069 5.5332031 15.679688 C 5.8895467 16.540089 6.4201929 17.333885 7.09375 18 L 6 18 A 1 1 0 0 0 5 19 A 1 1 0 0 0 6 20 L 18 20 A 1 1 0 0 0 19 19 A 1 1 0 0 0 18 18 L 12 18 C 9.7300845 18 8.1063412 16.665759 7.3808594 14.914062 C 6.6553775 13.162365 6.8600106 11.069677 8.4648438 9.4648438 C 8.6379025 9.291785 8.8166344 9.1352241 9 8.9941406 L 9 12 A 1 1 0 0 0 10 13 A 1 1 0 0 0 11 12 L 11 8.0742188 C 11.667275 7.9402196 12.346266 7.9547632 13 8.0957031 L 13 12 A 1 1 0 0 0 14 13 A 1 1 0 0 0 15 12 L 15 8.9882812 C 16.188336 9.8529322 17 11.229562 17 13 A 1 1 0 0 0 18 14 A 1 1 0 0 0 19 13 C 19 10.060943 17.269211 7.7515111 15 6.6757812 L 15 5 A 1 1 0 0 0 14 4 A 1 1 0 0 0 13 5 L 13 6.0703125 C 12.923392 6.0590843 12.846556 6.0497478 12.769531 6.0410156 C 12.186119 5.9748751 11.591012 5.9813569 11 6.0644531 L 11 5 A 1 1 0 0 0 10 4 z " fill="currentColor"/>
</svg>
