<svg xmlns="http://www.w3.org/2000/svg" width="1em" height="1em" viewBox="0 0 24 24" fill="currentColor">
  <path d="M 6.0507812 6.0019531 A 1.0001 1.0001 0 0 0 5.6523438 6.0625 A 1.0001 1.0001 0 0 0 5 7 L 5 17 L 3 17 A 1 1 0 0 0 2 18 A 1 1 0 0 0 3 19 L 6 19 A 1.0001 1.0001 0 0 0 7 18 L 7 9.703125 L 11.240234 14.650391 A 1.0001 1.0001 0 0 0 12.759766 14.650391 L 17 9.703125 L 17 18 A 1.0001 1.0001 0 0 0 18 19 L 21 19 A 1 1 0 0 0 22 18 A 1 1 0 0 0 21 17 L 19 17 L 19 7 A 1.0001 1.0001 0 0 0 17.240234 6.3496094 L 12 12.462891 L 6.7597656 6.3496094 A 1.0001 1.0001 0 0 0 6.0507812 6.0019531 z " fill="currentColor"/>
</svg>
