<svg xmlns="http://www.w3.org/2000/svg" width="1em" height="1em" viewBox="0 0 24 24" fill="currentColor">
  <path d="M 12 2 C 9.6896721 2 7.5965143 2.3398183 5.9921875 2.9414062 C 5.1900241 3.2422001 4.5050111 3.6050888 3.9648438 4.0839844 C 3.4579765 4.533357 3.0577959 5.1457929 3.0097656 5.859375 A 1 1 0 0 0 3 6 L 3 12 L 3 18 C 3 18.738111 3.3894871 19.379471 3.890625 19.847656 C 4.3917629 20.315841 5.0266273 20.671404 5.7695312 20.970703 C 7.2553392 21.569301 9.1916962 21.928468 11.353516 21.990234 A 1 1 0 0 0 12.382812 21.019531 A 1 1 0 0 0 11.412109 19.992188 C 9.4439288 19.935954 7.688817 19.587886 6.515625 19.115234 C 5.929029 18.878908 5.4937215 18.60894 5.2558594 18.386719 C 5.0179973 18.164498 5 18.051389 5 18 L 5 14.617188 C 5.1357831 14.688678 5.2764965 14.756418 5.421875 14.822266 C 6.7237649 15.411943 8.4176843 15.792658 10.337891 15.9375 A 1 1 0 0 0 11.412109 15.015625 A 1 1 0 0 0 10.488281 13.943359 C 8.7494875 13.812201 7.238407 13.448573 6.2480469 13 C 5.7528668 12.775714 5.3939546 12.528935 5.203125 12.333984 C 5.0122954 12.139034 5 12.047237 5 12 L 5 8.6191406 C 5.3062714 8.7809179 5.6377967 8.9257048 5.9921875 9.0585938 C 7.5965143 9.6601817 9.6896721 10 12 10 C 14.310328 10 16.403487 9.6601817 18.007812 9.0585938 C 18.362204 8.9257048 18.693729 8.7809179 19 8.6191406 L 19 11 A 1 1 0 0 0 20 12 A 1 1 0 0 0 21 11 L 21 6 A 1 1 0 0 0 20.990234 5.859375 C 20.942204 5.1457929 20.542024 4.533357 20.035156 4.0839844 C 19.494989 3.6050888 18.809976 3.2422002 18.007812 2.9414062 C 16.403486 2.3398182 14.310328 2 12 2 z M 12 4 C 14.107672 4 16.013514 4.330291 17.304688 4.8144531 C 17.950274 5.0565342 18.437511 5.3411299 18.707031 5.5800781 C 18.976551 5.8190263 19 5.9460397 19 6 C 19 6.05396 18.97655 6.1809737 18.707031 6.4199219 C 18.437511 6.6588701 17.950274 6.9434658 17.304688 7.1855469 C 16.013514 7.669709 14.107672 8 12 8 C 9.8923279 8 7.9864857 7.669709 6.6953125 7.1855469 C 6.0497259 6.9434658 5.5624889 6.6588701 5.2929688 6.4199219 C 5.0234486 6.1809737 5 6.0539603 5 6 C 5 5.9460397 5.0234486 5.8190263 5.2929688 5.5800781 C 5.5624889 5.3411299 6.0497259 5.0565342 6.6953125 4.8144531 C 7.9864857 4.330291 9.8923279 4 12 4 z M 16.21875 14.005859 C 15.40068 14.004259 14.581697 14.308264 13.955078 14.916016 C 12.695184 16.137796 12.689598 18.19039 13.943359 19.417969 L 17.285156 22.699219 L 17.298828 22.712891 A 1 1 0 0 0 17.316406 22.712891 A 1 1 0 0 0 18.699219 22.714844 L 18.712891 22.701172 L 22.046875 19.433594 C 23.307044 18.210748 23.31088 16.15663 22.054688 14.929688 C 20.991215 13.889641 19.43405 13.924693 18.201172 14.652344 L 18.474609 14.921875 C 18.34441 14.79499 18.149104 14.830955 18.003906 14.730469 C 17.857315 14.831202 17.660749 14.794299 17.529297 14.921875 L 17.804688 14.650391 C 17.297704 14.349397 16.79292 14.006961 16.21875 14.005859 z M 16.214844 15.994141 C 16.525546 15.994737 16.835532 16.114506 17.080078 16.353516 L 17.298828 16.570312 A 1.0001 1.0001 0 0 0 18.703125 16.572266 L 18.925781 16.351562 L 18.921875 16.357422 C 19.412879 15.880905 20.167077 15.880931 20.65625 16.359375 A 1.0001 1.0001 0 0 0 20.65625 16.361328 C 21.125633 16.819786 21.125218 17.541119 20.654297 17.998047 A 1.0001 1.0001 0 0 0 20.650391 18.001953 L 18 20.599609 L 15.345703 17.990234 A 1.0001 1.0001 0 0 0 15.34375 17.988281 C 14.874515 17.52967 14.876639 16.808338 15.347656 16.351562 C 15.593117 16.113494 15.904141 15.993545 16.214844 15.994141 z " fill="currentColor"/>
</svg>
