<svg xmlns="http://www.w3.org/2000/svg" width="1em" height="1em" viewBox="0 0 24 24" fill="currentColor">
  <path d="M 3 2 A 1 1 0 0 0 2.2929688 2.2929688 A 1 1 0 0 0 2.2929688 3.7070312 L 7 8.4140625 L 7 15 C 7 16.092725 7.9072751 17 9 17 L 15.585938 17 L 20.292969 21.707031 A 1 1 0 0 0 21.707031 21.707031 A 1 1 0 0 0 21.707031 20.292969 L 16.716797 15.302734 A 1 1 0 0 0 16.697266 15.283203 L 8.7167969 7.3027344 A 1 1 0 0 0 8.6972656 7.2832031 L 3.7070312 2.2929688 A 1 1 0 0 0 3 2 z M 8 3 A 1 1 0 0 0 7 4 L 7 4.0097656 A 1 1 0 0 0 8 5.0097656 A 1 1 0 0 0 9 4.0097656 L 9 4 A 1 1 0 0 0 8 3 z M 12 3 A 1 1 0 0 0 11 4 L 11 4.0097656 A 1 1 0 0 0 12 5.0097656 A 1 1 0 0 0 13 4.0097656 L 13 4 A 1 1 0 0 0 12 3 z M 16 3 A 1 1 0 0 0 15 4 L 15 4.0097656 A 1 1 0 0 0 16 5.0097656 A 1 1 0 0 0 17 4.0097656 L 17 4 A 1 1 0 0 0 16 3 z M 20 3 A 1 1 0 0 0 19 4 L 19 4.0097656 A 1 1 0 0 0 20 5.0097656 A 1 1 0 0 0 21 4.0097656 L 21 4 A 1 1 0 0 0 20 3 z M 4 7 A 1 1 0 0 0 3 8 L 3 8.0097656 A 1 1 0 0 0 4 9.0097656 A 1 1 0 0 0 5 8.0097656 L 5 8 A 1 1 0 0 0 4 7 z M 12 7 A 1 1 0 0 0 11 8 A 1 1 0 0 0 12 9 L 15 9 L 15 12 A 1 1 0 0 0 16 13 A 1 1 0 0 0 17 12 L 17 9 C 17 7.9072751 16.092725 7 15 7 L 12 7 z M 20 7 A 1 1 0 0 0 19 8 L 19 8.0097656 A 1 1 0 0 0 20 9.0097656 A 1 1 0 0 0 21 8.0097656 L 21 8 A 1 1 0 0 0 20 7 z M 9 10.414062 L 13.585938 15 L 9 15 L 9 10.414062 z M 4 11 A 1 1 0 0 0 3 12 L 3 12.009766 A 1 1 0 0 0 4 13.009766 A 1 1 0 0 0 5 12.009766 L 5 12 A 1 1 0 0 0 4 11 z M 20 11 A 1 1 0 0 0 19 12 L 19 12.009766 A 1 1 0 0 0 20 13.009766 A 1 1 0 0 0 21 12.009766 L 21 12 A 1 1 0 0 0 20 11 z M 4 15 A 1 1 0 0 0 3 16 L 3 16.009766 A 1 1 0 0 0 4 17.009766 A 1 1 0 0 0 5 16.009766 L 5 16 A 1 1 0 0 0 4 15 z M 20 15 A 1 1 0 0 0 19 16 L 19 16.009766 A 1 1 0 0 0 20 17.009766 A 1 1 0 0 0 21 16.009766 L 21 16 A 1 1 0 0 0 20 15 z M 4 19 A 1 1 0 0 0 3 20 L 3 20.009766 A 1 1 0 0 0 4 21.009766 A 1 1 0 0 0 5 20.009766 L 5 20 A 1 1 0 0 0 4 19 z M 8 19 A 1 1 0 0 0 7 20 L 7 20.009766 A 1 1 0 0 0 8 21.009766 A 1 1 0 0 0 9 20.009766 L 9 20 A 1 1 0 0 0 8 19 z M 12 19 A 1 1 0 0 0 11 20 L 11 20.009766 A 1 1 0 0 0 12 21.009766 A 1 1 0 0 0 13 20.009766 L 13 20 A 1 1 0 0 0 12 19 z M 16 19 A 1 1 0 0 0 15 20 L 15 20.009766 A 1 1 0 0 0 16 21.009766 A 1 1 0 0 0 17 20.009766 L 17 20 A 1 1 0 0 0 16 19 z " fill="currentColor"/>
</svg>
