<svg xmlns="http://www.w3.org/2000/svg" width="1em" height="1em" viewBox="0 0 24 24" fill="currentColor">
  <path d="M 3 5 A 1 1 0 0 0 2 6 A 1 1 0 0 0 3 7 L 3 19 A 1 1 0 0 0 4 20 A 1 1 0 0 0 5 19 L 5 11 L 14 11 L 14 14 C 14 15.64501 15.35499 17 17 17 L 19 17 L 19 19 A 1 1 0 0 0 20 20 A 1 1 0 0 0 21 19 L 21 16 L 21 7 A 1 1 0 0 0 22 6 A 1 1 0 0 0 21 5 L 15 5 L 3 5 z M 5 7 L 14 7 L 14 9 L 5 9 L 5 7 z M 16 7 L 19 7 L 19 9 L 16 9 L 16 7 z M 16 11 L 19 11 L 19 15 L 17 15 C 16.435871 15 16 14.564129 16 14 L 16 11 z " fill="currentColor"/>
</svg>
