<svg xmlns="http://www.w3.org/2000/svg" width="1em" height="1em" viewBox="0 0 24 24" fill="currentColor">
  <path d="M 12 1.6953125 C 11.031763 1.6953125 10.063615 2.1548764 9.5078125 3.0722656 A 1 1 0 0 0 9.5078125 3.0761719 A 1 1 0 0 0 9.5058594 3.078125 L 1.3984375 16.611328 A 1.0001 1.0001 0 0 0 1.390625 16.625 C 0.29954689 18.514485 1.6991162 20.971581 3.8808594 20.996094 A 1.0001 1.0001 0 0 0 3.8925781 20.996094 L 11.912109 20.996094 A 1 1 0 0 0 12 21 A 1 1 0 0 0 12.087891 20.996094 L 20.107422 20.996094 A 1.0001 1.0001 0 0 0 20.119141 20.996094 C 22.299814 20.970944 23.69879 18.516171 22.609375 16.626953 A 1.0001 1.0001 0 0 0 22.601562 16.611328 L 14.494141 3.0761719 A 1.0001 1.0001 0 0 0 14.492188 3.0722656 C 13.936431 2.1548801 12.968237 1.6953125 12 1.6953125 z M 12.998047 4.4707031 L 20.876953 17.626953 C 21.24732 18.272231 20.840363 18.987504 20.095703 18.996094 L 13 18.996094 L 12.998047 4.4707031 z M 10.998047 4.4765625 L 11 18.996094 L 3.9042969 18.996094 C 3.1583886 18.987713 2.7500221 18.270989 3.1230469 17.625 L 10.998047 4.4765625 z " fill="currentColor"/>
</svg>
