<svg xmlns="http://www.w3.org/2000/svg" width="1em" height="1em" viewBox="0 0 24 24" fill="currentColor">
  <path d="M 4 3 C 2.9072751 3 2 3.9072751 2 5 L 2 15 C 2 16.092725 2.9072751 17 4 17 L 8 17 L 8 19 L 7 19 A 1 1 0 0 0 6 20 A 1 1 0 0 0 7 21 L 13 21 A 1 1 0 0 0 14 20 A 1 1 0 0 0 13 19 L 10 19 L 10 17 L 14.5 17 A 1 1 0 0 0 15.5 16 A 1 1 0 0 0 14.5 15 L 4 15 L 4 5 L 20 5 L 20 12.5 A 1 1 0 0 0 21 13.5 A 1 1 0 0 0 22 12.5 L 22 5 C 22 3.9072751 21.092725 3 20 3 L 4 3 z M 18.933594 15.001953 A 1 1 0 0 0 18.804688 15.019531 A 1 1 0 0 0 18.167969 15.445312 L 16.167969 18.445312 A 1.0001 1.0001 0 0 0 17 20 L 19.130859 20 L 18.167969 21.445312 A 1 1 0 0 0 18.445312 22.832031 A 1 1 0 0 0 19.832031 22.554688 L 21.832031 19.554688 A 1.0001 1.0001 0 0 0 21 18 L 18.869141 18 L 19.832031 16.554688 A 1 1 0 0 0 19.554688 15.167969 A 1 1 0 0 0 18.933594 15.001953 z " fill="currentColor"/>
</svg>
