<svg xmlns="http://www.w3.org/2000/svg" width="1em" height="1em" viewBox="0 0 24 24" fill="currentColor">
  <path d="M 5 2 C 3.3549904 2 2 3.3549904 2 5 L 2 19 C 2 20.64501 3.3549904 22 5 22 L 13 22 C 14.64501 22 16 20.64501 16 19 L 16 5 C 16 3.3549904 14.64501 2 13 2 L 5 2 z M 5 4 L 7 4 A 1 1 0 0 0 8 5 L 10 5 A 1 1 0 0 0 11 4 L 13 4 C 13.564129 4 14 4.4358706 14 5 L 14 19 C 14 19.564129 13.564129 20 13 20 L 5 20 C 4.4358706 20 4 19.564129 4 19 L 4 5 C 4 4.4358706 4.4358706 4 5 4 z M 20.933594 5.0019531 A 1 1 0 0 0 20.804688 5.0195312 A 1 1 0 0 0 20.167969 5.4453125 L 18.167969 8.4453125 A 1.0001 1.0001 0 0 0 18.167969 9.5546875 L 19.798828 12 L 18.167969 14.445312 A 1.0001 1.0001 0 0 0 18.167969 15.554688 L 20.167969 18.554688 A 1 1 0 0 0 21.554688 18.832031 A 1 1 0 0 0 21.832031 17.445312 L 20.201172 15 L 21.832031 12.554688 A 1.0001 1.0001 0 0 0 21.832031 11.445312 L 20.201172 9 L 21.832031 6.5546875 A 1 1 0 0 0 21.554688 5.1679688 A 1 1 0 0 0 20.933594 5.0019531 z M 9 16 A 1 1 0 0 0 8 17 L 8 17.009766 A 1 1 0 0 0 9 18.009766 A 1 1 0 0 0 10 17.009766 L 10 17 A 1 1 0 0 0 9 16 z " fill="currentColor"/>
</svg>
