<svg xmlns="http://www.w3.org/2000/svg" width="1em" height="1em" viewBox="0 0 24 24" fill="currentColor">
  <path d="M 12 2 C 7.5935677 2 4 5.5935644 4 10 C 4 12.421507 5.0859352 14.597337 6.7949219 16.066406 L 5.0507812 18.970703 A 1.0001 1.0001 0 0 0 5.0507812 18.972656 C 4.2779746 20.262308 5.2621116 21.998812 6.765625 22 L 17.234375 22 C 18.737888 21.9988 19.722025 20.262355 18.949219 18.972656 A 1.0001 1.0001 0 0 0 18.949219 18.970703 L 17.205078 16.066406 C 18.914054 14.597337 20 12.421498 20 10 C 20 5.5935644 16.406432 2 12 2 z M 12 4 C 15.325554 4 18 6.6744439 18 10 C 18 13.325556 15.325554 16 12 16 C 8.674446 16 6 13.325556 6 10 C 6 6.6744439 8.674446 4 12 4 z M 12 6 C 11.027778 6 10.042119 6.3186806 9.2734375 7.0019531 C 8.5047556 7.6852256 8 8.7500003 8 10 C 8 11.25 8.5047556 12.314774 9.2734375 12.998047 C 10.042119 13.681319 11.027778 14 12 14 C 12.972222 14 13.95788 13.681319 14.726562 12.998047 C 15.495243 12.314774 16 11.25 16 10 C 16 8.7500003 15.495244 7.6852256 14.726562 7.0019531 C 13.95788 6.3186806 12.972222 6 12 6 z M 12 8 C 12.527778 8 13.042119 8.1813198 13.398438 8.4980469 C 13.754755 8.8147739 14 9.2500005 14 10 C 14 10.749999 13.754756 11.185226 13.398438 11.501953 C 13.042118 11.81868 12.527778 12 12 12 C 11.472222 12 10.95788 11.81868 10.601562 11.501953 C 10.245243 11.185226 10 10.749999 10 10 C 10 9.2500005 10.245244 8.8147739 10.601562 8.4980469 C 10.95788 8.1813198 11.472222 8 12 8 z M 8.4628906 17.171875 C 9.5305288 17.7014 10.731177 18 12 18 C 13.26883 18 14.469467 17.701405 15.537109 17.171875 L 17.234375 20 L 6.7675781 20 L 6.765625 20 L 8.4628906 17.171875 z " fill="currentColor"/>
</svg>
