<svg xmlns="http://www.w3.org/2000/svg" width="1em" height="1em" viewBox="0 0 24 24" fill="currentColor">
  <path d="M 7 2 C 5.3549904 2 4 3.3549904 4 5 L 4 19 C 4 20.64501 5.3549904 22 7 22 L 17 22 C 18.64501 22 20 20.64501 20 19 L 20 5 C 20 3.3549904 18.64501 2 17 2 L 7 2 z M 7 4 L 17 4 C 17.564129 4 18 4.4358706 18 5 L 18 19 C 18 19.564129 17.564129 20 17 20 L 7 20 C 6.4358706 20 6 19.564129 6 19 L 6 5 C 6 4.4358706 6.4358706 4 7 4 z M 11.916016 8.0039062 C 11.751818 8.0094269 11.588579 8.0283647 11.427734 8.0605469 C 10.784358 8.1892754 10.18203 8.5281417 9.7363281 9.0546875 A 1 1 0 0 0 9.8535156 10.464844 A 1 1 0 0 0 11.263672 10.347656 C 11.561504 9.9958016 12.0487 9.897249 12.458984 10.107422 A 1.0001 1.0001 0 0 0 12.460938 10.109375 C 12.999094 10.383582 13.084065 10.797628 12.978516 11.234375 C 12.872966 11.671122 12.607892 12.001815 12.003906 12 A 1 1 0 0 0 11 12.996094 A 1 1 0 0 0 11.996094 14 C 13.497575 14.0045 14.627794 12.921944 14.921875 11.705078 C 15.215757 10.489037 14.704946 9.0104101 13.369141 8.328125 C 12.908652 8.0922346 12.408609 7.9873444 11.916016 8.0039062 z M 12 15 A 1 1 0 0 0 11 16 L 11 16.009766 A 1 1 0 0 0 12 17.009766 A 1 1 0 0 0 13 16.009766 L 13 16 A 1 1 0 0 0 12 15 z " fill="currentColor"/>
</svg>
