<svg xmlns="http://www.w3.org/2000/svg" width="1em" height="1em" viewBox="0 0 24 24" fill="currentColor">
  <path d="M 8 2 C 6.3549904 2 5 3.3549904 5 5 L 5 19 C 5 20.64501 6.3549904 22 8 22 L 12 22 A 1 1 0 0 0 13 21 A 1 1 0 0 0 12 20 L 8 20 C 7.4358706 20 7 19.564129 7 19 L 7 5 C 7 4.4358706 7.4358706 4 8 4 L 10 4 A 1 1 0 0 0 11 5 L 13 5 A 1 1 0 0 0 14 4 L 16 4 C 16.564129 4 17 4.4358706 17 5 L 17 13 A 1 1 0 0 0 18 14 A 1 1 0 0 0 19 13 L 19 5 C 19 3.3549904 17.64501 2 16 2 L 8 2 z M 12 16 A 1 1 0 0 0 11 17 L 11 17.009766 A 1 1 0 0 0 12 18.009766 A 1 1 0 0 0 13 17.009766 L 13 17 A 1 1 0 0 0 12 16 z M 16.5 16 A 1 1 0 0 0 15.5 17 A 1 1 0 0 0 16.5 18 L 18.585938 18 L 15.292969 21.292969 A 1 1 0 0 0 15.292969 22.707031 A 1 1 0 0 0 16.707031 22.707031 L 20 19.414062 L 20 21.5 A 1 1 0 0 0 21 22.5 A 1 1 0 0 0 22 21.5 L 22 17 A 1 1 0 0 0 21.992188 16.869141 A 1.0001 1.0001 0 0 0 21.923828 16.617188 A 1 1 0 0 0 21.707031 16.292969 A 1 1 0 0 0 21.382812 16.076172 A 1.0001 1.0001 0 0 0 21 16 L 16.5 16 z " fill="currentColor"/>
</svg>
