<svg xmlns="http://www.w3.org/2000/svg" width="1em" height="1em" viewBox="0 0 24 24" fill="currentColor">
  <path d="M 3 2 A 1 1 0 0 0 2.2929688 2.2929688 A 1 1 0 0 0 2.2929688 3.7070312 L 2.6503906 4.0644531 A 1.0001 1.0001 0 0 0 2 5 L 2 19 A 1.0001 1.0001 0 0 0 3 20 L 9 20 A 1.0001 1.0001 0 0 0 10 19 L 10 11.414062 L 11 12.414062 L 11 16 A 1.0001 1.0001 0 0 0 12 17 L 15.585938 17 L 16 17.414062 L 16 18 L 14 18 A 1 1 0 0 0 13 19 A 1 1 0 0 0 14 20 L 18.585938 20 L 20.292969 21.707031 A 1 1 0 0 0 21.707031 21.707031 A 1 1 0 0 0 21.707031 20.292969 L 19.716797 18.302734 A 1 1 0 0 0 19.697266 18.283203 L 17.716797 16.302734 A 1 1 0 0 0 17.697266 16.283203 L 16.716797 15.302734 A 1 1 0 0 0 16.697266 15.283203 L 12.716797 11.302734 A 1 1 0 0 0 12.697266 11.283203 L 9.7167969 8.3027344 A 1 1 0 0 0 9.6972656 8.2832031 L 5.7167969 4.3027344 A 1 1 0 0 0 5.6972656 4.2832031 L 3.7070312 2.2929688 A 1 1 0 0 0 3 2 z M 4 6 L 4.5859375 6 L 8 9.4140625 L 8 18 L 4 18 L 4 6 z M 13 8 A 1 1 0 0 0 12 9 A 1 1 0 0 0 13 10 L 21 10 L 21 15 L 20 15 A 1 1 0 0 0 19 16 A 1 1 0 0 0 20 17 L 22 17 A 1.0001 1.0001 0 0 0 23 16 L 23 9 A 1.0001 1.0001 0 0 0 22 8 L 13 8 z M 6 12 A 1 1 0 0 0 5 13 L 5 13.009766 A 1 1 0 0 0 6 14.009766 A 1 1 0 0 0 7 13.009766 L 7 13 A 1 1 0 0 0 6 12 z M 13 14.414062 L 13.585938 15 L 13 15 L 13 14.414062 z M 6 15 A 1 1 0 0 0 5 16 L 5 16.009766 A 1 1 0 0 0 6 17.009766 A 1 1 0 0 0 7 16.009766 L 7 16 A 1 1 0 0 0 6 15 z " fill="currentColor"/>
</svg>
