<svg xmlns="http://www.w3.org/2000/svg" width="1em" height="1em" viewBox="0 0 24 24" fill="currentColor">
  <path d="M 6 2 C 4.9072751 2 4 2.9072751 4 4 L 4 20 C 4 21.092725 4.9072751 22 6 22 L 18 22 C 19.092725 22 20 21.092725 20 20 L 20 7.5 A 1.0001 1.0001 0 0 0 19.707031 6.7929688 L 15.207031 2.2929688 A 1.0001 1.0001 0 0 0 14.5 2 L 6 2 z M 6 4 L 14.085938 4 L 18 7.9140625 L 18 20 L 6 20 L 6 4 z M 10 8 A 1 1 0 0 0 9 9 A 1 1 0 0 0 10 10 L 12.5 10 C 12.787987 10 13 10.212013 13 10.5 L 13 11.5 C 13 11.787987 12.787987 12 12.5 12 L 11 12 A 1.0001 1.0001 0 0 0 11 14 L 12.5 14 C 12.787987 14 13 14.212013 13 14.5 L 13 15.5 C 13 15.787987 12.787987 16 12.5 16 L 10 16 A 1 1 0 0 0 9 17 A 1 1 0 0 0 10 18 L 12.5 18 C 13.868867 18 15 16.868867 15 15.5 L 15 14.5 C 15 13.917793 14.713548 13.427459 14.373047 13 C 14.713548 12.572541 15 12.082207 15 11.5 L 15 10.5 C 15 9.1311328 13.868867 8 12.5 8 L 10 8 z " fill="currentColor"/>
</svg>
