<svg xmlns="http://www.w3.org/2000/svg" width="1em" height="1em" viewBox="0 0 24 24" fill="currentColor">
  <path d="M 5 3 C 3.3549904 3 2 4.3549904 2 6 L 2 18 C 2 19.64501 3.3549904 21 5 21 L 13.5 21 A 1 1 0 0 0 14.5 20 A 1 1 0 0 0 13.5 19 L 5 19 C 4.4358706 19 4 18.564129 4 18 L 4 6 C 4 5.4358706 4.4358706 5 5 5 L 19 5 C 19.564129 5 20 5.4358706 20 6 L 20 13 A 1 1 0 0 0 21 14 A 1 1 0 0 0 22 13 L 22 6 C 22 4.3549904 20.64501 3 19 3 L 5 3 z M 9 16 A 1 1 0 0 0 8 17 A 1 1 0 0 0 9 18 L 13 18 A 1 1 0 0 0 14 17 A 1 1 0 0 0 13 16 L 9 16 z M 17 16 A 1 1 0 0 0 16.292969 16.292969 A 1 1 0 0 0 16.292969 17.707031 L 18.085938 19.5 L 16.292969 21.292969 A 1 1 0 0 0 16.292969 22.707031 A 1 1 0 0 0 17.707031 22.707031 L 19.5 20.914062 L 21.292969 22.707031 A 1 1 0 0 0 22.707031 22.707031 A 1 1 0 0 0 22.707031 21.292969 L 20.914062 19.5 L 22.707031 17.707031 A 1 1 0 0 0 22.707031 16.292969 A 1 1 0 0 0 21.292969 16.292969 L 19.5 18.085938 L 17.707031 16.292969 A 1 1 0 0 0 17 16 z " fill="currentColor"/>
</svg>
