<svg xmlns="http://www.w3.org/2000/svg" width="1em" height="1em" viewBox="0 0 24 24" fill="currentColor">
  <path d="M 4 2 C 2.9072751 2 2 2.9072751 2 4 L 2 16 C 2 17.092725 2.9072751 18 4 18 L 8.8671875 18 L 8.6171875 20 L 8 20 A 1 1 0 0 0 7 21 A 1 1 0 0 0 8 22 L 12.5 22 A 1 1 0 0 0 13.5 21 A 1 1 0 0 0 12.5 20 L 10.632812 20 L 10.882812 18 L 12.5 18 A 1 1 0 0 0 13.5 17 A 1 1 0 0 0 12.5 16 L 4 16 L 4 14 L 16 14 A 1 1 0 0 0 17 13 A 1 1 0 0 0 16 12 L 4 12 L 4 4 L 20 4 L 20 12.5 A 1 1 0 0 0 21 13.5 A 1 1 0 0 0 22 12.5 L 22 4 C 22 2.9072751 21.092725 2 20 2 L 4 2 z M 19 15 A 1.0001 1.0001 0 0 0 18.794922 15.023438 A 1 1 0 0 0 18.742188 15.035156 A 1 1 0 0 0 18.617188 15.076172 A 1 1 0 0 0 18.611328 15.078125 A 1.0001 1.0001 0 0 0 18.5 15.134766 A 1 1 0 0 0 18.439453 15.175781 A 1.0001 1.0001 0 0 0 18.384766 15.212891 A 1 1 0 0 0 18.341797 15.25 A 1.0001 1.0001 0 0 0 18.292969 15.292969 A 1 1 0 0 0 18.283203 15.302734 L 15.292969 18.292969 A 1 1 0 0 0 15.292969 19.707031 A 1 1 0 0 0 16.707031 19.707031 L 18 18.414062 L 18 22 A 1 1 0 0 0 19 23 A 1 1 0 0 0 20 22 L 20 18.414062 L 21.292969 19.707031 A 1 1 0 0 0 22.707031 19.707031 A 1 1 0 0 0 22.707031 18.292969 L 19.716797 15.302734 A 1 1 0 0 0 19.658203 15.25 A 1.0001 1.0001 0 0 0 19.615234 15.212891 A 1 1 0 0 0 19.560547 15.175781 A 1.0001 1.0001 0 0 0 19.382812 15.076172 A 1 1 0 0 0 19.257812 15.035156 A 1.0001 1.0001 0 0 0 19.205078 15.023438 A 1.0001 1.0001 0 0 0 19 15 z " fill="currentColor"/>
</svg>
