<svg xmlns="http://www.w3.org/2000/svg" width="1em" height="1em" viewBox="0 0 24 24" fill="currentColor">
  <path d="M 6 2 C 4.3549904 2 3 3.3549904 3 5 L 3 19 C 3 20.64501 4.3549904 22 6 22 L 12.5 22 A 1 1 0 0 0 13.5 21 A 1 1 0 0 0 12.5 20 L 6 20 C 5.4358706 20 5 19.564129 5 19 L 5 5 C 5 4.4358706 5.4358706 4 6 4 L 18 4 C 18.564129 4 19 4.4358706 19 5 L 19 15 A 1 1 0 0 0 20 16 A 1 1 0 0 0 21 15 L 21 5 C 21 3.3549904 19.64501 2 18 2 L 6 2 z M 9 17 A 1 1 0 0 0 8 18 A 1 1 0 0 0 9 19 L 12 19 A 1 1 0 0 0 13 18 A 1 1 0 0 0 12 17 L 9 17 z M 16 18 A 1 1 0 0 0 15 19 A 1 1 0 0 0 16 20 L 22 20 A 1 1 0 0 0 23 19 A 1 1 0 0 0 22 18 L 16 18 z " fill="currentColor"/>
</svg>
