<svg xmlns="http://www.w3.org/2000/svg" width="1em" height="1em" viewBox="0 0 24 24" fill="currentColor">
  <path d="M 5 3 C 3.3549904 3 2 4.3549904 2 6 L 2 18 C 2 19.64501 3.3549904 21 5 21 L 13 21 A 1 1 0 0 0 14 20 A 1 1 0 0 0 13 19 L 5 19 C 4.4358706 19 4 18.564129 4 18 L 4 6 C 4 5.4358706 4.4358706 5 5 5 L 19 5 C 19.564129 5 20 5.4358706 20 6 L 20 12.5 A 1 1 0 0 0 21 13.5 A 1 1 0 0 0 22 12.5 L 22 6 C 22 4.3549904 20.64501 3 19 3 L 5 3 z M 18.933594 15.001953 A 1 1 0 0 0 18.804688 15.019531 A 1 1 0 0 0 18.167969 15.445312 L 16.167969 18.445312 A 1.0001 1.0001 0 0 0 17 20 L 19.130859 20 L 18.167969 21.445312 A 1 1 0 0 0 18.445312 22.832031 A 1 1 0 0 0 19.832031 22.554688 L 21.832031 19.554688 A 1.0001 1.0001 0 0 0 21 18 L 18.869141 18 L 19.832031 16.554688 A 1 1 0 0 0 19.554688 15.167969 A 1 1 0 0 0 18.933594 15.001953 z M 9 16 A 1 1 0 0 0 8 17 A 1 1 0 0 0 9 18 L 13.5 18 A 1 1 0 0 0 14.5 17 A 1 1 0 0 0 13.5 16 L 9 16 z " fill="currentColor"/>
</svg>
