<svg xmlns="http://www.w3.org/2000/svg" width="1em" height="1em" viewBox="0 0 24 24" fill="currentColor">
  <path d="M 9 2 A 1.0001 1.0001 0 0 0 8 3 L 8 5.1269531 C 6.2812389 5.5747695 5 7.1475739 5 9 L 5 15 C 5 16.852426 6.2812389 18.42523 8 18.873047 L 8 21 A 1.0001 1.0001 0 0 0 9 22 L 12 22 A 1 1 0 0 0 13 21 A 1 1 0 0 0 12 20 L 10 20 L 10 19 L 11 19 A 1 1 0 0 0 12 18 A 1 1 0 0 0 11 17 L 9 17 C 7.8835859 17 7 16.116414 7 15 L 7 9 C 7 7.8835859 7.8835859 7 9 7 L 15 7 C 16.116414 7 17 7.8835859 17 9 L 17 11 A 1 1 0 0 0 18 12 A 1 1 0 0 0 19 11 L 19 9 C 19 7.1475739 17.718761 5.5747696 16 5.1269531 L 16 3 A 1.0001 1.0001 0 0 0 15 2 L 9 2 z M 10 4 L 14 4 L 14 5 L 10 5 L 10 4 z M 18 14 C 17.027778 14 16.042119 14.318681 15.273438 15.001953 C 14.504755 15.685226 14 16.75 14 18 C 14 19.25 14.504756 20.314774 15.273438 20.998047 C 16.042119 21.681319 17.027778 22 18 22 C 18.709147 22 19.424566 21.829573 20.058594 21.472656 L 21.292969 22.707031 A 1 1 0 0 0 22.707031 22.707031 A 1 1 0 0 0 22.707031 21.292969 L 21.476562 20.0625 C 21.806482 19.477109 22 18.77405 22 18 C 22 16.75 21.495244 15.685226 20.726562 15.001953 C 19.957881 14.318681 18.972222 14 18 14 z M 18 16 C 18.527778 16 19.042119 16.18132 19.398438 16.498047 C 19.754756 16.814774 20 17.250001 20 18 C 20 18.749999 19.754756 19.185226 19.398438 19.501953 C 19.042119 19.81868 18.527778 20 18 20 C 17.472222 20 16.957881 19.81868 16.601562 19.501953 C 16.245244 19.185226 16 18.749999 16 18 C 16 17.250001 16.245244 16.814774 16.601562 16.498047 C 16.957881 16.18132 17.472222 16 18 16 z " fill="currentColor"/>
</svg>
