<svg xmlns="http://www.w3.org/2000/svg" width="1em" height="1em" viewBox="0 0 24 24" fill="currentColor">
  <path d="M 6 2 C 4.3549904 2 3 3.3549904 3 5 L 3 19 C 3 20.64501 4.3549904 22 6 22 L 11.5 22 A 1 1 0 0 0 12.5 21 A 1 1 0 0 0 11.5 20 L 6 20 C 5.4358706 20 5 19.564129 5 19 L 5 5 C 5 4.4358706 5.4358706 4 6 4 L 18 4 C 18.564129 4 19 4.4358706 19 5 L 19 13 A 1 1 0 0 0 20 14 A 1 1 0 0 0 21 13 L 21 5 C 21 3.3549904 19.64501 2 18 2 L 6 2 z M 21 16 A 1 1 0 0 0 20.292969 16.292969 L 17 19.585938 L 15.707031 18.292969 A 1 1 0 0 0 14.292969 18.292969 A 1 1 0 0 0 14.292969 19.707031 L 16.292969 21.707031 A 1.0001 1.0001 0 0 0 17.707031 21.707031 L 21.707031 17.707031 A 1 1 0 0 0 21.707031 16.292969 A 1 1 0 0 0 21 16 z M 9 17 A 1 1 0 0 0 8 18 A 1 1 0 0 0 9 19 L 11 19 A 1 1 0 0 0 12 18 A 1 1 0 0 0 11 17 L 9 17 z " fill="currentColor"/>
</svg>
