<svg xmlns="http://www.w3.org/2000/svg" width="1em" height="1em" viewBox="0 0 24 24" fill="currentColor">
  <path d="M 6 2 C 4.9072751 2 4 2.9072751 4 4 L 4 20 C 4 21.092725 4.9072751 22 6 22 L 12.5 22 A 1 1 0 0 0 13.5 21 A 1 1 0 0 0 12.5 20 L 6 20 L 6 4 L 18 4 L 18 12 A 1 1 0 0 0 19 13 A 1 1 0 0 0 20 12 L 20 4 C 20 2.9072751 19.092725 2 18 2 L 6 2 z M 12 15 C 11.527778 15 11.042119 15.152014 10.648438 15.501953 C 10.254755 15.851892 10 16.416667 10 17 C 10 17.583333 10.254756 18.148108 10.648438 18.498047 C 11.042118 18.847986 11.527778 19 12 19 C 12.472222 19 12.95788 18.847986 13.351562 18.498047 C 13.745243 18.148108 14 17.583333 14 17 C 14 16.416667 13.745244 15.851892 13.351562 15.501953 C 12.95788 15.152014 12.472222 15 12 15 z M 19 15 C 18.027778 15 17.042119 15.318681 16.273438 16.001953 C 15.504756 16.685226 15 17.75 15 19 C 15 20.25 15.504756 21.314774 16.273438 21.998047 C 17.042119 22.681319 18.027778 23 19 23 C 19.972222 23 20.957881 22.681319 21.726562 21.998047 C 22.495244 21.314774 23 20.25 23 19 C 23 17.75 22.495244 16.685226 21.726562 16.001953 C 20.957881 15.318681 19.972222 15 19 15 z M 19 17 C 19.178556 17 19.355509 17.020818 19.525391 17.060547 L 17.048828 19.537109 C 17.016537 19.378241 17 19.199858 17 19 C 17 18.250001 17.245244 17.814774 17.601562 17.498047 C 17.957881 17.18132 18.472222 17 19 17 z M 20.951172 18.462891 C 20.983463 18.621759 21 18.800142 21 19 C 21 19.749999 20.754756 20.185226 20.398438 20.501953 C 20.042119 20.81868 19.527778 21 19 21 C 18.821444 21 18.644491 20.979182 18.474609 20.939453 L 20.951172 18.462891 z " fill="currentColor"/>
</svg>
