<svg xmlns="http://www.w3.org/2000/svg" width="1em" height="1em" viewBox="0 0 24 24" fill="currentColor">
  <path d="M 9 2 A 1.0001 1.0001 0 0 0 8 3 L 8 5.1269531 C 6.2812389 5.5747695 5 7.1475739 5 9 L 5 15 C 5 16.852426 6.2812389 18.42523 8 18.873047 L 8 21 A 1.0001 1.0001 0 0 0 9 22 L 12.5 22 A 1 1 0 0 0 13.5 21 A 1 1 0 0 0 12.5 20 L 10 20 L 10 19 L 12 19 A 1 1 0 0 0 13 18 A 1 1 0 0 0 12 17 L 9 17 C 7.8835859 17 7 16.116414 7 15 L 7 9 C 7 7.8835859 7.8835859 7 9 7 L 15 7 C 16.116414 7 17 7.8835859 17 9 L 17 11 A 1 1 0 0 0 18 12 A 1 1 0 0 0 19 11 L 19 9 C 19 7.1475739 17.718761 5.5747696 16 5.1269531 L 16 3 A 1.0001 1.0001 0 0 0 15 2 L 9 2 z M 10 4 L 14 4 L 14 5 L 10 5 L 10 4 z M 19 14 C 17.26058 14 15.876507 15.088139 15.304688 16.46875 C 14.732867 17.849361 14.941629 19.598251 16.171875 20.828125 C 16.636336 21.293697 17.351167 21.924991 18.357422 22.767578 A 1.0001 1.0001 0 0 0 19.646484 22.763672 C 20.702942 21.86905 21.407467 21.24765 21.824219 20.830078 A 1 1 0 0 0 21.828125 20.828125 L 21.828125 20.826172 C 23.057189 19.596367 23.266927 17.848862 22.695312 16.46875 C 22.123498 15.088227 20.73942 14 19 14 z M 19 16 C 19.933374 16 20.554559 16.526716 20.847656 17.234375 C 21.140754 17.942034 21.074283 18.754042 20.414062 19.414062 A 1 1 0 0 0 20.412109 19.414062 C 20.201135 19.625621 19.566887 20.171813 19 20.664062 C 18.448807 20.187635 17.843263 19.670047 17.587891 19.414062 A 1.0001 1.0001 0 0 0 17.585938 19.414062 C 16.92581 18.754042 16.859246 17.942034 17.152344 17.234375 C 17.445441 16.526716 18.066626 16 19 16 z M 19 17 A 1 1 0 0 0 18 18 L 18 18.009766 A 1 1 0 0 0 19 19.009766 A 1 1 0 0 0 20 18.009766 L 20 18 A 1 1 0 0 0 19 17 z " fill="currentColor"/>
</svg>
