<svg xmlns="http://www.w3.org/2000/svg" width="1em" height="1em" viewBox="0 0 24 24" fill="currentColor">
  <path d="M 6 2 C 4.9072751 2 4 2.9072751 4 4 L 4 20 C 4 21.092725 4.9072751 22 6 22 L 12.5 22 A 1 1 0 0 0 13.5 21 A 1 1 0 0 0 12.5 20 L 6 20 L 6 4 L 18 4 L 18 12 A 1 1 0 0 0 19 13 A 1 1 0 0 0 20 12 L 20 4 C 20 2.9072751 19.092725 2 18 2 L 6 2 z M 19 15 A 1.0001 1.0001 0 0 0 18.794922 15.023438 A 1 1 0 0 0 18.742188 15.035156 A 1 1 0 0 0 18.617188 15.076172 A 1 1 0 0 0 18.611328 15.078125 A 1.0001 1.0001 0 0 0 18.5 15.134766 A 1 1 0 0 0 18.439453 15.175781 A 1.0001 1.0001 0 0 0 18.384766 15.212891 A 1 1 0 0 0 18.341797 15.25 A 1.0001 1.0001 0 0 0 18.292969 15.292969 A 1 1 0 0 0 18.283203 15.302734 L 15.292969 18.292969 A 1 1 0 0 0 15.292969 19.707031 A 1 1 0 0 0 16.707031 19.707031 L 18 18.414062 L 18 22 A 1 1 0 0 0 19 23 A 1 1 0 0 0 20 22 L 20 18.414062 L 21.292969 19.707031 A 1 1 0 0 0 22.707031 19.707031 A 1 1 0 0 0 22.707031 18.292969 L 19.716797 15.302734 A 1 1 0 0 0 19.658203 15.25 A 1.0001 1.0001 0 0 0 19.615234 15.212891 A 1 1 0 0 0 19.560547 15.175781 A 1.0001 1.0001 0 0 0 19.382812 15.076172 A 1 1 0 0 0 19.257812 15.035156 A 1.0001 1.0001 0 0 0 19.205078 15.023438 A 1.0001 1.0001 0 0 0 19 15 z M 12.511719 15.232422 C 12.326071 15.226388 12.148202 15.254572 12 15.302734 C 11.407194 15.495386 11.099929 15.87107 10.847656 16.267578 C 10.595384 16.664086 10.386227 17.100158 10.462891 17.71875 C 10.501221 18.028046 10.663782 18.408261 10.972656 18.660156 C 11.28153 18.912052 11.66314 18.999886 12 19 A 1 1 0 0 0 13 18 A 1 1 0 0 0 12.476562 17.464844 C 12.486107 17.439516 12.501616 17.392555 12.535156 17.339844 C 12.568682 17.287153 12.603883 17.253431 12.623047 17.234375 A 1 1 0 0 0 13.330078 17.482422 A 1 1 0 0 0 13.8125 16.152344 C 13.669665 15.847263 13.429348 15.538287 13.070312 15.365234 C 12.890794 15.278708 12.697367 15.238456 12.511719 15.232422 z M 12.130859 17.083984 A 1 1 0 0 0 12.548828 17.199219 C 12.477988 17.210979 12.38052 17.204418 12.273438 17.173828 C 12.346417 17.257898 12.392813 17.343051 12.412109 17.412109 A 1 1 0 0 0 12.130859 17.083984 z " fill="currentColor"/>
</svg>
