<svg xmlns="http://www.w3.org/2000/svg" width="1em" height="1em" viewBox="0 0 24 24" fill="currentColor">
  <path d="M 4 3 C 2.9072751 3 2 3.9072751 2 5 L 2 15 C 2 16.092725 2.9072751 17 4 17 L 8 17 L 8 19 L 7 19 A 1 1 0 0 0 6 20 A 1 1 0 0 0 7 21 L 11 21 A 1 1 0 0 0 12 20 A 1 1 0 0 0 11 19 L 10 19 L 10 17 L 12.5 17 A 1 1 0 0 0 13.5 16 A 1 1 0 0 0 12.5 15 L 4 15 L 4 5 L 20 5 L 20 13 A 1 1 0 0 0 21 14 A 1 1 0 0 0 22 13 L 22 5 C 22 3.9072751 21.092725 3 20 3 L 4 3 z M 17 16 A 1 1 0 0 0 16.292969 16.292969 L 14.292969 18.292969 A 1.0001 1.0001 0 0 0 14.292969 19.707031 L 16.292969 21.707031 A 1 1 0 0 0 17.707031 21.707031 A 1 1 0 0 0 17.707031 20.292969 L 16.414062 19 L 17.707031 17.707031 A 1 1 0 0 0 17.707031 16.292969 A 1 1 0 0 0 17 16 z M 20 16 A 1 1 0 0 0 19.292969 16.292969 A 1 1 0 0 0 19.292969 17.707031 L 20.585938 19 L 19.292969 20.292969 A 1 1 0 0 0 19.292969 21.707031 A 1 1 0 0 0 20.707031 21.707031 L 22.707031 19.707031 A 1.0001 1.0001 0 0 0 22.707031 18.292969 L 20.707031 16.292969 A 1 1 0 0 0 20 16 z " fill="currentColor"/>
</svg>
