<svg xmlns="http://www.w3.org/2000/svg" width="1em" height="1em" viewBox="0 0 24 24" fill="currentColor">
  <path d="M 6 1 A 1 1 0 0 0 5 2 A 1 1 0 0 0 6 3 L 18 3 C 18.564129 3 19 3.4358706 19 4 L 19 16 A 1 1 0 0 0 20 17 A 1 1 0 0 0 21 16 L 21 4 C 21 2.3549904 19.64501 1 18 1 L 6 1 z M 3 2 A 1 1 0 0 0 2.2929688 2.2929688 A 1 1 0 0 0 2.2929688 3.7070312 L 3 4.4140625 L 3 20 C 3 21.64501 4.3549904 23 6 23 L 18 23 C 18.973776 23 19.846869 22.525583 20.396484 21.796875 A 1 1 0 0 0 21.707031 21.707031 A 1 1 0 0 0 21.707031 20.292969 L 20.716797 19.302734 A 1 1 0 0 0 20.697266 19.283203 L 4.7167969 3.3027344 A 1 1 0 0 0 4.6972656 3.2832031 L 3.7070312 2.2929688 A 1 1 0 0 0 3 2 z M 5 6.4140625 L 18.939453 20.353516 C 18.800762 20.736467 18.439004 21 18 21 L 6 21 C 5.4358706 21 5 20.564129 5 20 L 5 6.4140625 z M 9 18 A 1 1 0 0 0 8 19 A 1 1 0 0 0 9 20 L 15 20 A 1 1 0 0 0 16 19 A 1 1 0 0 0 15 18 L 9 18 z " fill="currentColor"/>
</svg>
