<svg xmlns="http://www.w3.org/2000/svg" width="1em" height="1em" viewBox="0 0 24 24" fill="currentColor">
  <path d="M 3 2 A 1 1 0 0 0 2.2929688 2.2929688 A 1 1 0 0 0 2.2929688 3.7070312 L 4.3984375 5.8125 C 4.1490182 6.1461633 4 6.5577027 4 7 L 4 15 C 4 16.092725 4.9072751 17 6 17 L 15.585938 17 L 16.585938 18 L 3 18 A 1 1 0 0 0 2 19 A 1 1 0 0 0 3 20 L 18.585938 20 L 20.292969 21.707031 A 1 1 0 0 0 21.707031 21.707031 A 1 1 0 0 0 21.707031 20.292969 L 19.716797 18.302734 A 1 1 0 0 0 19.697266 18.283203 L 16.716797 15.302734 A 1 1 0 0 0 16.697266 15.283203 L 6.7167969 5.3027344 A 1 1 0 0 0 6.6972656 5.2832031 L 3.7070312 2.2929688 A 1 1 0 0 0 3 2 z M 10 5 A 1 1 0 0 0 9 6 A 1 1 0 0 0 10 7 L 18 7 L 18 15 A 1 1 0 0 0 19 16 A 1 1 0 0 0 20 15 L 20 7 C 20 5.9072751 19.092725 5 18 5 L 10 5 z M 6 7.4140625 L 13.585938 15 L 6 15 L 6 7.4140625 z " fill="currentColor"/>
</svg>
