<svg xmlns="http://www.w3.org/2000/svg" width="1em" height="1em" viewBox="0 0 24 24" fill="currentColor">
  <path d="M 18.5 5 C 17.652778 5 16.792119 5.2770139 16.117188 5.8769531 C 15.442256 6.4768923 15 7.4166669 15 8.5 C 15 9.5833331 15.442256 10.523108 16.117188 11.123047 C 16.792119 11.722986 17.652778 12 18.5 12 C 19.347222 12 20.207881 11.722986 20.882812 11.123047 C 21.557744 10.523108 22 9.5833331 22 8.5 C 22 7.4166669 21.557744 6.4768923 20.882812 5.8769531 C 20.207881 5.2770139 19.347222 5 18.5 5 z M 5 6 C 3.3549904 6 2 7.3549904 2 9 L 2 16 C 2 17.64501 3.3549904 19 5 19 L 18 19 C 19.64501 19 21 17.64501 21 16 L 21 14 A 1 1 0 0 0 20 13 A 1 1 0 0 0 19 14 L 19 16 C 19 16.564129 18.564129 17 18 17 L 5 17 C 4.4358706 17 4 16.564129 4 16 L 4 9 C 4 8.4358706 4.4358706 8 5 8 L 13 8 A 1 1 0 0 0 14 7 A 1 1 0 0 0 13 6 L 5 6 z M 18.5 7 C 18.902778 7 19.292119 7.1396531 19.554688 7.3730469 C 19.817256 7.6064406 20 7.9166671 20 8.5 C 20 9.0833329 19.817256 9.3935594 19.554688 9.6269531 C 19.292119 9.8603469 18.902778 10 18.5 10 C 18.097222 10 17.707881 9.8603469 17.445312 9.6269531 C 17.182744 9.3935594 17 9.0833329 17 8.5 C 17 7.9166671 17.182744 7.6064406 17.445312 7.3730469 C 17.707881 7.1396531 18.097222 7 18.5 7 z M 17 13 A 1 1 0 0 0 16 14 L 16 15 A 1 1 0 0 0 17 16 A 1 1 0 0 0 18 15 L 18 14 A 1 1 0 0 0 17 13 z " fill="currentColor"/>
</svg>
