<svg xmlns="http://www.w3.org/2000/svg" width="1em" height="1em" viewBox="0 0 24 24" fill="currentColor">
  <path d="M 6 3 C 4.3549904 3 3 4.3549904 3 6 L 3 18 C 3 19.64501 4.3549904 21 6 21 L 18 21 C 19.64501 21 21 19.64501 21 18 L 21 8 A 1.0001 1.0001 0 0 0 20.707031 7.2929688 L 16.707031 3.2929688 A 1.0001 1.0001 0 0 0 16 3 L 14 3 L 8 3 L 6 3 z M 6 5 L 7 5 L 7 8 A 1.0001 1.0001 0 0 0 8 9 L 14 9 A 1.0001 1.0001 0 0 0 15 8 L 15 5 L 15.585938 5 L 19 8.4140625 L 19 18 C 19 18.564129 18.564129 19 18 19 L 6 19 C 5.4358706 19 5 18.564129 5 18 L 5 6 C 5 5.4358706 5.4358706 5 6 5 z M 9 5 L 13 5 L 13 7 L 9 7 L 9 5 z M 12 11 C 11.277778 11 10.542119 11.235347 9.9609375 11.751953 C 9.3797556 12.268559 9 13.083334 9 14 C 9 14.916666 9.3797556 15.731441 9.9609375 16.248047 C 10.542119 16.764653 11.277778 17 12 17 C 12.722222 17 13.45788 16.764653 14.039062 16.248047 C 14.620243 15.731441 15 14.916666 15 14 C 15 13.083334 14.620244 12.268559 14.039062 11.751953 C 13.45788 11.235347 12.722222 11 12 11 z M 12 13 C 12.277778 13 12.542119 13.09799 12.710938 13.248047 C 12.879755 13.398107 13 13.583334 13 14 C 13 14.416666 12.879756 14.601893 12.710938 14.751953 C 12.542118 14.902014 12.277778 15 12 15 C 11.722222 15 11.45788 14.902014 11.289062 14.751953 C 11.120243 14.601893 11 14.416666 11 14 C 11 13.583334 11.120244 13.398107 11.289062 13.248047 C 11.45788 13.097986 11.722222 13 12 13 z " fill="currentColor"/>
</svg>
