<svg xmlns="http://www.w3.org/2000/svg" width="1em" height="1em" viewBox="0 0 24 24" fill="currentColor">
  <path d="M 6 2 C 4.9072751 2 4 2.9072751 4 4 L 4 20 C 4 21.092725 4.9072751 22 6 22 L 15 22 A 1 1 0 0 0 16 21 A 1 1 0 0 0 15 20 L 6 20 L 6 4 L 18 4 L 18 11 A 1 1 0 0 0 19 12 A 1 1 0 0 0 20 11 L 20 4 C 20 2.9072751 19.092725 2 18 2 L 6 2 z M 18.916016 14.003906 C 18.751818 14.009427 18.588579 14.028365 18.427734 14.060547 C 17.784358 14.189275 17.18203 14.528141 16.736328 15.054688 A 1 1 0 0 0 16.853516 16.464844 A 1 1 0 0 0 18.263672 16.347656 C 18.561037 15.996354 19.047152 15.898544 19.457031 16.107422 C 19.987605 16.383365 20.073808 16.797707 19.96875 17.232422 C 19.863486 17.667988 19.596602 17.998082 18.996094 18 A 1 1 0 0 0 18 19.003906 A 1 1 0 0 0 19.003906 20 C 20.498615 19.9952 21.618946 18.916192 21.912109 17.703125 C 22.205273 16.490058 21.700614 15.016915 20.373047 14.330078 A 1.0001 1.0001 0 0 0 20.369141 14.328125 C 19.908652 14.092234 19.408609 13.987344 18.916016 14.003906 z M 12 15 C 11.527778 15 11.042119 15.152014 10.648438 15.501953 C 10.254755 15.851892 10 16.416667 10 17 C 10 17.583333 10.254756 18.148108 10.648438 18.498047 C 11.042118 18.847986 11.527778 19 12 19 C 12.472222 19 12.95788 18.847986 13.351562 18.498047 C 13.745243 18.148108 14 17.583333 14 17 C 14 16.416667 13.745244 15.851892 13.351562 15.501953 C 12.95788 15.152014 12.472222 15 12 15 z M 19 21 A 1 1 0 0 0 18 22 L 18 22.009766 A 1 1 0 0 0 19 23.009766 A 1 1 0 0 0 20 22.009766 L 20 22 A 1 1 0 0 0 19 21 z " fill="currentColor"/>
</svg>
