<svg xmlns="http://www.w3.org/2000/svg" width="1em" height="1em" viewBox="0 0 24 24" fill="currentColor">
  <path d="M 10.828125 2 C 10.032925 2.0001698 9.2692378 2.3165296 8.7070312 2.8789062 L 4.8789062 6.7070312 C 4.3165297 7.2692379 4.0001698 8.0329246 4 8.828125 L 4 19 C 4 20.64501 5.3549904 22 7 22 L 17 22 C 18.64501 22 20 20.64501 20 19 L 20 5 C 20 3.3549904 18.64501 2 17 2 L 10.828125 2 z M 10.828125 4 L 17 4 C 17.564129 4 18 4.4358706 18 5 L 18 19 C 18 19.564129 17.564129 20 17 20 L 7 20 C 6.4358706 20 6 19.564129 6 19 L 6 8.828125 C 6.0000567 8.5625462 6.1051479 8.308858 6.2929688 8.1210938 L 10.121094 4.2929688 C 10.308858 4.1051478 10.562546 4.0000567 10.828125 4 z M 13 5 A 1 1 0 0 0 12 6 L 12 8 A 1 1 0 0 0 13 9 A 1 1 0 0 0 14 8 L 14 6 A 1 1 0 0 0 13 5 z M 16 5 A 1 1 0 0 0 15 6 L 15 8 A 1 1 0 0 0 16 9 A 1 1 0 0 0 17 8 L 17 6 A 1 1 0 0 0 16 5 z M 10 6 A 1 1 0 0 0 9 7 L 9 8 A 1 1 0 0 0 10 9 A 1 1 0 0 0 11 8 L 11 7 A 1 1 0 0 0 10 6 z " fill="currentColor"/>
</svg>
