<svg xmlns="http://www.w3.org/2000/svg" width="1em" height="1em" viewBox="0 0 24 24" fill="currentColor">
  <path d="M 4 3 C 2.9072751 3 2 3.9072751 2 5 L 2 15 C 2 16.092725 2.9072751 17 4 17 L 8 17 L 8 19 L 7 19 A 1 1 0 0 0 6 20 A 1 1 0 0 0 7 21 L 15 21 A 1 1 0 0 0 16 20 L 16 16 A 1 1 0 0 0 15 15 L 4 15 L 4 5 L 20 5 L 20 12 A 1 1 0 0 0 21 13 A 1 1 0 0 0 22 12 L 22 5 C 22 3.9072751 21.092725 3 20 3 L 4 3 z M 19 15 A 1 1 0 0 0 18 16 L 18 19 A 1 1 0 0 0 19 20 A 1 1 0 0 0 20 19 L 20 16 A 1 1 0 0 0 19 15 z M 10 17 L 14 17 L 14 19 L 10 19 L 10 17 z M 19 21 A 1 1 0 0 0 18 22 L 18 22.009766 A 1 1 0 0 0 19 23.009766 A 1 1 0 0 0 20 22.009766 L 20 22 A 1 1 0 0 0 19 21 z " fill="currentColor"/>
</svg>
