<svg xmlns="http://www.w3.org/2000/svg" width="1em" height="1em" viewBox="0 0 24 24" fill="currentColor">
  <path d="M 4 2 C 2.9072751 2 2 2.9072751 2 4 L 2 16 C 2 17.092725 2.9072751 18 4 18 L 8.8671875 18 L 8.6171875 20 L 8 20 A 1 1 0 0 0 7 21 A 1 1 0 0 0 8 22 L 12.5 22 A 1 1 0 0 0 13.5 21 A 1 1 0 0 0 12.5 20 L 10.632812 20 L 10.882812 18 L 12.5 18 A 1 1 0 0 0 13.5 17 A 1 1 0 0 0 12.5 16 L 4 16 L 4 14 L 16.5 14 A 1 1 0 0 0 17.5 13 A 1 1 0 0 0 16.5 12 L 4 12 L 4 4 L 20 4 L 20 12.5 A 1 1 0 0 0 21 13.5 A 1 1 0 0 0 22 12.5 L 22 4 C 22 2.9072751 21.092725 2 20 2 L 4 2 z M 19 15 A 1 1 0 0 0 18 16 L 18 18 L 16 18 A 1 1 0 0 0 15 19 A 1 1 0 0 0 16 20 L 18 20 L 18 22 A 1 1 0 0 0 19 23 A 1 1 0 0 0 20 22 L 20 20 L 22 20 A 1 1 0 0 0 23 19 A 1 1 0 0 0 22 18 L 20 18 L 20 16 A 1 1 0 0 0 19 15 z " fill="currentColor"/>
</svg>
