<svg xmlns="http://www.w3.org/2000/svg" width="1em" height="1em" viewBox="0 0 24 24" fill="currentColor">
  <path d="M 6 2 C 4.9072751 2 4 2.9072751 4 4 L 4 20 C 4 21.092725 4.9072751 22 6 22 L 18 22 C 19.092725 22 20 21.092725 20 20 L 20 7.5 A 1.0001 1.0001 0 0 0 19.707031 6.7929688 L 15.207031 2.2929688 A 1.0001 1.0001 0 0 0 14.5 2 L 6 2 z M 6 4 L 14.085938 4 L 18 7.9140625 L 18 20 L 6 20 L 6 4 z M 9 10 A 1 1 0 0 0 8 11 A 1 1 0 0 0 9 12 L 11 12 L 11 17 A 1 1 0 0 0 12 18 A 1 1 0 0 0 13 17 L 13 11 A 1.0001 1.0001 0 0 0 12 10 L 9 10 z M 15 10 A 1 1 0 0 0 14 11 L 14 11.009766 A 1 1 0 0 0 15 12.009766 A 1 1 0 0 0 16 11.009766 L 16 11 A 1 1 0 0 0 15 10 z M 9 13 A 1 1 0 0 0 8 14 L 8 14.009766 A 1 1 0 0 0 9 15.009766 A 1 1 0 0 0 10 14.009766 L 10 14 A 1 1 0 0 0 9 13 z M 15 13 A 1 1 0 0 0 14 14 L 14 14.009766 A 1 1 0 0 0 15 15.009766 A 1 1 0 0 0 16 14.009766 L 16 14 A 1 1 0 0 0 15 13 z M 9 16 A 1 1 0 0 0 8 17 L 8 17.009766 A 1 1 0 0 0 9 18.009766 A 1 1 0 0 0 10 17.009766 L 10 17 A 1 1 0 0 0 9 16 z M 15 16 A 1 1 0 0 0 14 17 L 14 17.009766 A 1 1 0 0 0 15 18.009766 A 1 1 0 0 0 16 17.009766 L 16 17 A 1 1 0 0 0 15 16 z " fill="currentColor"/>
</svg>
