<svg xmlns="http://www.w3.org/2000/svg" width="1em" height="1em" viewBox="0 0 24 24" fill="currentColor">
  <path d="M 18 2 C 17.120119 2 16.32245 2.3876562 15.771484 3 L 5 3 C 2.8027056 3 1 4.8027056 1 7 L 1 17 C 1 19.197294 2.8027056 21 5 21 L 15.771484 21 C 16.32245 21.612344 17.120119 22 18 22 L 20 22 C 21.64501 22 23 20.64501 23 19 L 23 5 C 23 3.3549904 21.64501 2 20 2 L 18 2 z M 18 4 L 20 4 C 20.564129 4 21 4.4358706 21 5 L 21 19 C 21 19.564129 20.564129 20 20 20 L 18 20 C 17.435871 20 17 19.564129 17 19 L 17 5 C 17 4.4358706 17.435871 4 18 4 z M 5 5 L 15 5 L 15 19 L 5 19 C 3.8835859 19 3 18.116414 3 17 L 3 7 C 3 5.8835859 3.8835859 5 5 5 z M 6 7 A 1.0001 1.0001 0 0 0 5 8 L 5 11 A 1.0001 1.0001 0 0 0 6 12 L 12 12 A 1.0001 1.0001 0 0 0 13 11 L 13 8 A 1 1 0 0 0 12 7 L 6 7 z M 7 9 L 11 9 L 11 10 L 7 10 L 7 9 z M 6 13 A 1 1 0 0 0 5 14 L 5 14.009766 A 1 1 0 0 0 6 15.009766 A 1 1 0 0 0 7 14.009766 L 7 14 A 1 1 0 0 0 6 13 z M 9 13 A 1 1 0 0 0 8 14 L 8 14.009766 A 1 1 0 0 0 9 15.009766 A 1 1 0 0 0 10 14.009766 L 10 14 A 1 1 0 0 0 9 13 z M 12 13 A 1 1 0 0 0 11 14 L 11 14.009766 A 1 1 0 0 0 12 15.009766 A 1 1 0 0 0 13 14.009766 L 13 14 A 1 1 0 0 0 12 13 z M 6 16 A 1 1 0 0 0 5 17 L 5 17.009766 A 1 1 0 0 0 6 18.009766 A 1 1 0 0 0 7 17.009766 L 7 17 A 1 1 0 0 0 6 16 z M 9 16 A 1 1 0 0 0 8 17 L 8 17.009766 A 1 1 0 0 0 9 18.009766 A 1 1 0 0 0 10 17.009766 L 10 17 A 1 1 0 0 0 9 16 z M 12 16 A 1 1 0 0 0 11 17 L 11 17.009766 A 1 1 0 0 0 12 18.009766 A 1 1 0 0 0 13 17.009766 L 13 17 A 1 1 0 0 0 12 16 z " fill="currentColor"/>
</svg>
