<svg xmlns="http://www.w3.org/2000/svg" width="1em" height="1em" viewBox="0 0 24 24" fill="currentColor">
  <path d="M 3 2 A 1 1 0 0 0 2.2929688 2.2929688 A 1 1 0 0 0 2.203125 3.6035156 C 1.4744173 4.153131 1 5.026224 1 6 L 1 18 C 1 19.64501 2.3549904 21 4 21 L 19.585938 21 L 20.292969 21.707031 A 1 1 0 0 0 21.707031 21.707031 A 1 1 0 0 0 21.707031 20.292969 L 20.716797 19.302734 A 1 1 0 0 0 20.697266 19.283203 L 4.7167969 3.3027344 A 1 1 0 0 0 4.6972656 3.2832031 L 3.7070312 2.2929688 A 1 1 0 0 0 3 2 z M 8 3 A 1 1 0 0 0 7 4 A 1 1 0 0 0 8 5 L 20 5 C 20.564129 5 21 5.4358706 21 6 L 21 18 A 1 1 0 0 0 22 19 A 1 1 0 0 0 23 18 L 23 6 C 23 4.3549904 21.64501 3 20 3 L 8 3 z M 3.6464844 5.0605469 L 14.585938 16 L 9 16 A 1 1 0 0 0 8 17 A 1 1 0 0 0 9 18 L 15 18 A 1 1 0 0 0 15.9375 17.351562 L 17.585938 19 L 4 19 C 3.4358706 19 3 18.564129 3 18 L 3 6 C 3 5.5609958 3.2635334 5.1992379 3.6464844 5.0605469 z " fill="currentColor"/>
</svg>
