<svg xmlns="http://www.w3.org/2000/svg" width="1em" height="1em" viewBox="0 0 24 24" fill="currentColor">
  <path d="M 3 2 A 1 1 0 0 0 2.2929688 2.2929688 A 1 1 0 0 0 2.2929688 3.7070312 L 3.3671875 4.78125 C 3.1657288 5.1026845 3.0380482 5.465374 3.0117188 5.859375 A 1 1 0 0 0 3.0097656 5.8652344 C 3.0068836 5.9102695 3 5.9541245 3 6 L 3 6.1425781 C 2.9998123 6.3509928 3.0319071 6.5574486 3.0957031 6.7558594 A 1.0001 1.0001 0 0 0 3.1054688 6.78125 L 4.9414062 12.001953 L 3.0917969 17.341797 A 1.0001 1.0001 0 0 0 3.0722656 17.404297 C 3.02464 17.57694 3.0001618 17.754502 3 17.933594 A 1.0001 1.0001 0 0 0 3 17.935547 L 3 18 C 3 18.77454 3.4246764 19.43712 3.9648438 19.916016 C 4.5050111 20.394911 5.1900241 20.7578 5.9921875 21.058594 C 7.5965143 21.660182 9.6896721 22 12 22 C 14.899317 22 17.435899 21.532959 19.136719 20.550781 L 20.292969 21.707031 A 1 1 0 0 0 21.707031 21.707031 A 1 1 0 0 0 21.707031 20.292969 L 20.003906 18.589844 A 1 1 0 0 0 19.931641 18.517578 L 3.7070312 2.2929688 A 1 1 0 0 0 3 2 z M 12 2 C 10.263695 2 8.6469021 2.1967196 7.2734375 2.5449219 A 1 1 0 0 0 6.5507812 3.7597656 A 1 1 0 0 0 7.765625 4.4824219 C 8.9481604 4.1826242 10.416305 4 12 4 C 14.107672 4 16.013514 4.330291 17.304688 4.8144531 C 17.950274 5.0565342 18.437511 5.3411299 18.707031 5.5800781 C 18.976551 5.8190263 19 5.9460397 19 6 C 19 6.049841 18.98422 6.1546006 18.763672 6.3671875 C 18.543125 6.5797744 18.135446 6.8437201 17.582031 7.0761719 C 16.475202 7.5410753 14.808258 7.8937665 12.921875 7.9785156 A 1 1 0 0 0 11.96875 9.0234375 A 1 1 0 0 0 13.011719 9.9765625 C 14.90282 9.8916013 16.607292 9.5799349 17.96875 9.0742188 L 17.056641 11.667969 A 1.0001 1.0001 0 0 0 17.050781 11.691406 A 1 1 0 0 0 17.023438 11.785156 A 1.0001 1.0001 0 0 0 17.017578 11.822266 A 1 1 0 0 0 17.003906 11.917969 A 1.0001 1.0001 0 0 0 17.001953 11.941406 C 17.002288 11.93065 17.000921 11.922333 17 11.917969 L 17 11.916016 L 16.998047 11.916016 L 16.998047 11.914062 L 16.996094 11.914062 L 16.994141 11.916016 L 16.992188 11.916016 C 16.967083 11.932362 16.881963 12.039153 16.611328 12.181641 A 1 1 0 0 0 16.191406 13.53125 A 1 1 0 0 0 17.542969 13.951172 C 17.563774 13.940218 17.584696 13.929267 17.605469 13.917969 L 18.105469 15.361328 A 1 1 0 0 0 19.378906 15.978516 A 1 1 0 0 0 19.996094 14.705078 L 19.058594 12.001953 L 20.894531 6.78125 A 1.0001 1.0001 0 0 0 20.904297 6.7558594 C 20.968104 6.557449 21.000188 6.3509928 21 6.1425781 L 21 6 A 1 1 0 0 0 20.990234 5.859375 C 20.942204 5.1457929 20.542024 4.533357 20.035156 4.0839844 C 19.494989 3.6050888 18.809976 3.2422002 18.007812 2.9414062 C 16.403486 2.3398182 14.310328 2 12 2 z M 6.03125 9.0742188 C 6.6974308 9.3218293 7.4435771 9.5189986 8.2558594 9.6699219 L 11.580078 12.994141 C 10.181025 12.958796 8.9304558 12.750223 8.0742188 12.464844 C 7.6037438 12.308037 7.2542988 12.123766 7.0898438 11.994141 C 7.03885 11.953947 7.0104678 11.926523 6.9960938 11.912109 A 1.0001 1.0001 0 0 0 6.9746094 11.779297 A 1 1 0 0 0 6.9433594 11.667969 L 6.9375 11.650391 A 1 1 0 0 0 6.9355469 11.646484 L 6.03125 9.0742188 z M 6.3945312 13.919922 C 6.7107606 14.093206 7.0595425 14.236008 7.4414062 14.363281 C 8.6719566 14.773417 10.252978 15 12 15 C 12.524189 15 13.035046 14.979675 13.525391 14.939453 L 17.623047 19.037109 C 16.34927 19.560123 14.285089 20 12 20 C 9.8923279 20 7.9864857 19.669709 6.6953125 19.185547 C 6.0497259 18.943466 5.5624889 18.65887 5.2929688 18.419922 C 5.0234486 18.180974 5 18.05396 5 18 L 5 17.941406 L 6.3945312 13.919922 z " fill="currentColor"/>
</svg>
