<svg xmlns="http://www.w3.org/2000/svg" width="1em" height="1em" viewBox="0 0 24 24" fill="currentColor">
  <path d="M 12 2.0214844 C 11.255885 2.0214844 10.512401 2.346695 10.029297 2.9960938 L 10.041016 2.9785156 L 4.6679688 9.8867188 C 4.1792043 10.511339 4 11.262417 4 12 C 4 12.737583 4.1798855 13.491135 4.6660156 14.117188 L 10.041016 21.027344 A 1 1 0 0 0 10.052734 21.029297 C 11.026207 22.302341 13.01091 22.299939 13.970703 21.009766 L 13.958984 21.027344 L 19.332031 14.119141 L 19.332031 14.117188 C 19.819865 13.492875 20 12.74087 20 12.003906 C 20 11.266324 19.820115 10.514724 19.333984 9.8886719 L 13.958984 2.9785156 L 13.970703 2.9960938 C 13.487598 2.3466951 12.744115 2.0214844 12 2.0214844 z M 12 3.9882812 C 12.133849 3.9882812 12.267697 4.0557161 12.367188 4.1894531 A 1.0001 1.0001 0 0 0 12.378906 4.2050781 L 17.753906 11.115234 C 17.875774 11.272182 18 11.631489 18 12.003906 C 18 12.376324 17.875096 12.734339 17.755859 12.886719 A 1.0001 1.0001 0 0 0 17.753906 12.888672 L 12.378906 19.798828 A 1.0001 1.0001 0 0 0 12.367188 19.816406 C 12.168207 20.08388 11.831793 20.08388 11.632812 19.816406 A 1 1 0 0 0 11.625 19.810547 A 1 1 0 0 0 11.621094 19.798828 L 6.2460938 12.890625 L 6.2460938 12.888672 C 6.1244642 12.731268 6 12.371659 6 12 C 6 11.627583 6.1249041 11.27152 6.2441406 11.119141 A 1.0001 1.0001 0 0 0 6.2460938 11.117188 L 11.621094 4.2050781 A 1.0001 1.0001 0 0 0 11.632812 4.1894531 C 11.732302 4.0557161 11.866151 3.9882812 12 3.9882812 z " fill="currentColor"/>
</svg>
