<svg xmlns="http://www.w3.org/2000/svg" width="1em" height="1em" viewBox="0 0 24 24" fill="currentColor">
  <path d="M 5 2 C 3.3549904 2 2 3.3549904 2 5 L 2 19 C 2 20.64501 3.3549904 22 5 22 L 19 22 C 20.64501 22 22 20.64501 22 19 L 22 5 C 22 3.3549904 20.64501 2 19 2 L 5 2 z M 5 4 L 19 4 C 19.564129 4 20 4.4358706 20 5 L 20 19 C 20 19.564129 19.564129 20 19 20 L 5 20 C 4.4358706 20 4 19.564129 4 19 L 4 5 C 4 4.4358706 4.4358706 4 5 4 z M 9.5 8 C 9.1527779 8 8.7921194 8.1103471 8.4921875 8.3769531 C 8.1922556 8.6435592 8 9.0833333 8 9.5 C 8 9.9166667 8.1922556 10.356441 8.4921875 10.623047 C 8.7921194 10.889653 9.1527779 11 9.5 11 C 9.8472221 11 10.207881 10.889653 10.507812 10.623047 C 10.807743 10.356441 11 9.9166667 11 9.5 C 11 9.0833333 10.807744 8.6435592 10.507812 8.3769531 C 10.20788 8.1103471 9.8472221 8 9.5 8 z M 14.5 13 C 14.152778 13 13.792119 13.110347 13.492188 13.376953 C 13.192255 13.643559 13 14.083333 13 14.5 C 13 14.916667 13.192256 15.356441 13.492188 15.623047 C 13.792118 15.889653 14.152778 16 14.5 16 C 14.847222 16 15.20788 15.889653 15.507812 15.623047 C 15.807743 15.356441 16 14.916667 16 14.5 C 16 14.083333 15.807744 13.643559 15.507812 13.376953 C 15.20788 13.110347 14.847222 13 14.5 13 z " fill="currentColor"/>
</svg>
