<svg xmlns="http://www.w3.org/2000/svg" width="1em" height="1em" viewBox="0 0 24 24" fill="currentColor">
  <path d="M 5 2 C 3.3549904 2 2 3.3549904 2 5 L 2 19 C 2 20.64501 3.3549904 22 5 22 L 19 22 C 20.64501 22 22 20.64501 22 19 L 22 5 C 22 3.3549904 20.64501 2 19 2 L 5 2 z M 5 4 L 19 4 C 19.564129 4 20 4.4358706 20 5 L 20 19 C 20 19.564129 19.564129 20 19 20 L 5 20 C 4.4358706 20 4 19.564129 4 19 L 4 5 C 4 4.4358706 4.4358706 4 5 4 z M 8.5 7 C 8.1527779 7 7.7921194 7.1103471 7.4921875 7.3769531 C 7.1922556 7.6435592 7 8.0833333 7 8.5 C 7 8.9166667 7.1922556 9.3564408 7.4921875 9.6230469 C 7.7921194 9.8896529 8.1527779 10 8.5 10 C 8.8472221 10 9.2078806 9.8896529 9.5078125 9.6230469 C 9.8077444 9.3564408 10 8.9166667 10 8.5 C 10 8.0833333 9.8077444 7.6435592 9.5078125 7.3769531 C 9.2078806 7.1103471 8.8472221 7 8.5 7 z M 15.5 7 C 15.152778 7 14.792119 7.1103471 14.492188 7.3769531 C 14.192255 7.6435592 14 8.0833333 14 8.5 C 14 8.9166667 14.192256 9.3564408 14.492188 9.6230469 C 14.792118 9.8896529 15.152778 10 15.5 10 C 15.847222 10 16.207881 9.8896529 16.507812 9.6230469 C 16.807744 9.3564408 17 8.9166667 17 8.5 C 17 8.0833333 16.807744 7.6435592 16.507812 7.3769531 C 16.207881 7.1103471 15.847222 7 15.5 7 z M 12 10.5 C 11.652778 10.5 11.292119 10.610347 10.992188 10.876953 C 10.692255 11.143559 10.5 11.583333 10.5 12 C 10.5 12.416667 10.692256 12.856441 10.992188 13.123047 C 11.292118 13.389653 11.652778 13.5 12 13.5 C 12.347222 13.5 12.70788 13.389653 13.007812 13.123047 C 13.307743 12.856441 13.5 12.416667 13.5 12 C 13.5 11.583333 13.307744 11.143559 13.007812 10.876953 C 12.70788 10.610347 12.347222 10.5 12 10.5 z M 8.5 14 C 8.1527779 14 7.7921194 14.110347 7.4921875 14.376953 C 7.1922556 14.643559 7 15.083333 7 15.5 C 7 15.916667 7.1922556 16.356441 7.4921875 16.623047 C 7.7921194 16.889653 8.1527779 17 8.5 17 C 8.8472221 17 9.2078806 16.889653 9.5078125 16.623047 C 9.8077444 16.356441 10 15.916667 10 15.5 C 10 15.083333 9.8077444 14.643559 9.5078125 14.376953 C 9.2078806 14.110347 8.8472221 14 8.5 14 z M 15.5 14 C 15.152778 14 14.792119 14.110347 14.492188 14.376953 C 14.192255 14.643559 14 15.083333 14 15.5 C 14 15.916667 14.192256 16.356441 14.492188 16.623047 C 14.792118 16.889653 15.152778 17 15.5 17 C 15.847222 17 16.207881 16.889653 16.507812 16.623047 C 16.807744 16.356441 17 15.916667 17 15.5 C 17 15.083333 16.807744 14.643559 16.507812 14.376953 C 16.207881 14.110347 15.847222 14 15.5 14 z " fill="currentColor"/>
</svg>
