<svg xmlns="http://www.w3.org/2000/svg" width="1em" height="1em" viewBox="0 0 24 24" fill="currentColor">
  <path d="M 11.908203 1.96875 C 11.515001 1.9735145 11.117695 2.0023145 10.71875 2.0566406 C 9.6548962 2.2015104 8.5768253 2.5262394 7.5136719 3.0605469 A 1 1 0 0 0 7.0683594 4.4042969 A 1 1 0 0 0 8.4101562 4.8476562 C 11.903333 3.0920958 15.391083 4.0702069 17.660156 6.3398438 C 19.92923 8.6094807 20.906818 12.097103 19.150391 15.589844 A 1 1 0 0 0 19.595703 16.933594 A 1 1 0 0 0 20.9375 16.490234 C 23.075786 12.238151 21.885329 7.7356363 19.076172 4.9257812 C 17.232662 3.0818139 14.660615 1.9353983 11.908203 1.96875 z M 3 2 A 1 1 0 0 0 2.2929688 2.2929688 A 1 1 0 0 0 2.2929688 3.7070312 L 4.2558594 5.6699219 C 1.7448797 8.7096109 1.4350661 12.629489 2.7636719 15.832031 C 4.2017534 19.29846 7.5904325 22.000042 12 22 C 14.401303 22 16.606039 21.156742 18.330078 19.744141 L 20.292969 21.707031 A 1 1 0 0 0 21.707031 21.707031 A 1 1 0 0 0 21.707031 20.292969 L 16.390625 14.976562 A 1 1 0 0 0 16.253906 14.808594 A 1 1 0 0 0 16.09375 14.679688 L 12.083984 10.669922 A 1 1 0 0 0 12.011719 10.587891 A 1 1 0 0 0 11.916016 10.501953 L 3.7070312 2.2929688 A 1 1 0 0 0 3 2 z M 12 6 C 11.619107 6 11.246778 6.03675 10.886719 6.1035156 A 1 1 0 0 0 10.085938 7.2675781 A 1 1 0 0 0 11.251953 8.0683594 C 11.495894 8.0231253 11.744893 8 12 8 A 1 1 0 0 0 13 7 A 1 1 0 0 0 12 6 z M 5.6757812 7.0898438 L 7.109375 8.5234375 C 6.4115557 9.5053659 6 10.708434 6 12 A 1 1 0 0 0 7 13 A 1 1 0 0 0 8 12 C 8 11.254284 8.2010778 10.561183 8.5527344 9.9667969 L 10.058594 11.472656 C 9.9986023 11.676199 9.972382 11.884982 9.9824219 12.085938 C 10.008708 12.61207 10.241276 13.067405 10.572266 13.404297 C 10.903256 13.741189 11.35332 13.980045 11.878906 14.015625 C 12.090685 14.029962 12.312225 14.00465 12.527344 13.941406 L 14.033203 15.447266 C 13.423638 15.807456 12.722797 16.000904 12.001953 16 A 1 1 0 0 0 11 16.998047 A 1 1 0 0 0 11.998047 18 C 13.252698 18.001567 14.467779 17.608602 15.476562 16.890625 L 16.908203 18.322266 C 15.555378 19.378393 13.863378 20 12 20 C 8.3961258 20.000034 5.7704264 17.860359 4.6113281 15.066406 C 3.5612226 12.535176 3.740011 9.5296822 5.6757812 7.0898438 z M 17 11 A 1 1 0 0 0 16 12 C 16 12.256304 15.975267 12.506554 15.929688 12.748047 A 1 1 0 0 0 16.726562 13.916016 A 1 1 0 0 0 17.896484 13.119141 C 17.964903 12.756633 18 12.381696 18 12 A 1 1 0 0 0 17 11 z " fill="currentColor"/>
</svg>
