<svg xmlns="http://www.w3.org/2000/svg" width="1em" height="1em" viewBox="0 0 24 24" fill="currentColor">
  <path d="M 11.914062 1.9667969 C 11.52066 1.9713441 11.123784 2.0004992 10.724609 2.0546875 C 9.6601435 2.1991897 8.5815412 2.5242012 7.5175781 3.0585938 A 1 1 0 0 0 7.0722656 4.4023438 A 1 1 0 0 0 8.4140625 4.8457031 C 11.910059 3.0897824 15.399752 4.0710246 17.667969 6.34375 C 19.936185 8.6164754 20.909344 12.107106 19.146484 15.599609 A 1 1 0 0 0 19.589844 16.943359 A 1 1 0 0 0 20.933594 16.501953 C 23.079611 12.250354 21.892025 7.7452624 19.083984 4.9316406 C 17.241208 3.0852014 14.667877 1.9349661 11.914062 1.9667969 z M 3 2 A 1 1 0 0 0 2.2929688 2.2929688 A 1 1 0 0 0 2.2929688 3.7070312 L 4.2558594 5.6699219 C 1.0470756 9.5904552 1.2697664 15.406886 4.9238281 19.066406 C 8.5812163 22.729258 14.404634 22.956382 18.330078 19.744141 L 20.292969 21.707031 A 1 1 0 0 0 21.707031 21.707031 A 1 1 0 0 0 21.707031 20.292969 L 14.876953 13.462891 A 1 1 0 0 0 14.865234 13.447266 A 1 1 0 0 0 14.800781 13.386719 L 12.707031 11.292969 L 9.8671875 8.453125 A 1 1 0 0 0 9.8652344 8.4472656 A 1 1 0 0 0 9.8007812 8.3867188 L 6.4335938 5.0195312 A 1 1 0 0 0 6.3496094 4.9238281 A 1 1 0 0 0 6.2519531 4.8378906 L 3.7070312 2.2929688 A 1 1 0 0 0 3 2 z M 5.6796875 7.09375 L 8.0058594 9.4199219 C 7.9918154 9.6470604 8.027338 9.8729995 8.109375 10.072266 C 8.3205038 10.585093 8.8752838 11.00122 9.5039062 10.998047 C 9.5299387 10.997985 9.5561428 10.997486 9.5820312 10.996094 L 10.585938 12 L 8.2929688 14.292969 A 1 1 0 0 0 8.2929688 15.707031 A 1 1 0 0 0 9.7070312 15.707031 L 12 13.414062 L 13.005859 14.419922 C 12.991815 14.647061 13.027338 14.873 13.109375 15.072266 C 13.320504 15.585093 13.875284 16.00122 14.503906 15.998047 C 14.529939 15.997985 14.556143 15.997486 14.582031 15.996094 L 16.908203 18.322266 C 13.763022 20.774109 9.2322257 20.549046 6.3398438 17.652344 C 3.4504641 14.758648 3.2311308 10.234847 5.6796875 7.09375 z M 15 8 A 1 1 0 0 0 14.292969 8.2929688 L 13.292969 9.2929688 A 1 1 0 0 0 13.292969 10.707031 A 1 1 0 0 0 14.707031 10.707031 L 15.707031 9.7070312 A 1 1 0 0 0 15.707031 8.2929688 A 1 1 0 0 0 15 8 z " fill="currentColor"/>
</svg>
