<svg xmlns="http://www.w3.org/2000/svg" width="1em" height="1em" viewBox="0 0 24 24" fill="currentColor">
  <path d="M 7.0449219 5.0058594 C 6.9228521 5.0054299 6.8016268 5.0129146 6.6816406 5.0273438 C 5.5072479 5.1685728 4.5515331 6.0465265 4.2070312 7.2070312 C 2.5714036 7.6909433 1.5334071 9.4717271 2.2265625 11.146484 C 2.8906609 12.751036 4.7528139 13.307807 6.2285156 12.642578 L 7.5859375 14 L 5 14 A 1.0001 1.0001 0 0 0 4.4003906 14.199219 C 2.7687406 15.423262 2 17.476401 2 20 A 1 1 0 0 0 3 21 L 21 21 A 1.0001 1.0001 0 0 0 21.994141 19.896484 C 21.831649 18.344924 21.870818 16.120296 19.646484 14.236328 A 1.0001 1.0001 0 0 0 19 14 L 16.414062 14 L 17.771484 12.642578 C 19.247186 13.307807 21.10934 12.751036 21.773438 11.146484 C 22.466593 9.4717271 21.428596 7.6909432 19.792969 7.2070312 C 19.448467 6.0465264 18.492752 5.1685727 17.318359 5.0273438 C 16.838415 4.9696267 16.337192 5.0272367 15.851562 5.2285156 C 14.248122 5.893093 13.690907 7.7553296 14.355469 9.2304688 L 12 11.585938 L 9.6445312 9.2304688 C 10.309093 7.7553295 9.7518771 5.893093 8.1484375 5.2285156 C 7.7842151 5.0775564 7.4111312 5.0071478 7.0449219 5.0058594 z M 6.9980469 6.9902344 C 7.1230802 6.994336 7.2532775 7.0224835 7.3828125 7.0761719 C 8.0736657 7.3625097 8.2359246 8.1782977 7.7070312 8.7070312 A 1.0001 1.0001 0 0 0 7.7070312 10.123047 L 10.585938 13 L 10 13.585938 L 7.1191406 10.707031 A 1.0001 1.0001 0 0 0 5.7050781 10.707031 C 5.1761622 11.236107 4.3603096 11.074047 4.0742188 10.382812 C 3.7881279 9.6915776 4.2518874 8.9994664 5 9 A 1.0001 1.0001 0 0 0 6 8 C 6.0001741 7.3923677 6.4562356 6.9724605 6.9980469 6.9902344 z M 17.001953 6.9902344 C 17.543765 6.9724605 17.999826 7.3923677 18 8 A 1.0001 1.0001 0 0 0 19 9 C 19.748113 8.9994664 20.211872 9.6915776 19.925781 10.382812 C 19.63969 11.074046 18.823838 11.236107 18.294922 10.707031 A 1.0001 1.0001 0 0 0 16.880859 10.707031 L 13.585938 14 L 12.414062 14 L 16.292969 10.123047 A 1.0001 1.0001 0 0 0 16.292969 8.7070312 C 15.764076 8.1782976 15.926334 7.3625097 16.617188 7.0761719 C 16.746723 7.0224835 16.87692 6.994336 17.001953 6.9902344 z M 5.4511719 16 L 10 16 L 14 16 L 18.515625 16 C 19.548334 16.97954 19.791082 17.926992 19.878906 19 L 4.1582031 19 C 4.317054 17.637867 4.7237083 16.627179 5.4511719 16 z " fill="currentColor"/>
</svg>
