<svg xmlns="http://www.w3.org/2000/svg" width="1em" height="1em" viewBox="0 0 24 24" fill="currentColor">
  <path d="M 5.1601562 3.0136719 A 1 1 0 0 0 5.0976562 3.0585938 A 1 1 0 0 0 4.0390625 3.7207031 L 2.0644531 10.537109 A 1.0001 1.0001 0 0 0 2.0507812 10.589844 C 1.8834985 11.312962 2.1438353 12.073785 2.71875 12.542969 C 3.1256901 12.876495 3.6318665 13.022102 4.1269531 12.990234 C 4.482342 15.321944 5.0454857 17.158144 5.9023438 18.529297 C 6.8626127 20.065929 8.3331667 21 10 21 L 14 21 C 15.666833 21 17.137387 20.065929 18.097656 18.529297 C 18.953964 17.159024 19.515668 15.325669 19.871094 12.996094 C 20.365492 13.026904 20.872507 12.877237 21.28125 12.541016 L 21.283203 12.541016 C 21.856594 12.071689 22.11629 11.312047 21.949219 10.589844 A 1.0001 1.0001 0 0 0 21.935547 10.537109 L 19.960938 3.7207031 A 1 1 0 0 0 18.902344 3.0585938 A 1 1 0 0 0 18.839844 3.0136719 L 12.839844 3.9824219 A 1.0001 1.0001 0 0 0 12.755859 4 L 11.244141 4 A 1.0001 1.0001 0 0 0 11.160156 3.9824219 L 5.1601562 3.0136719 z M 5.7148438 5.1269531 L 8.9902344 5.6582031 L 4.03125 10.976562 A 1.0001 1.0001 0 0 0 4.015625 10.994141 L 5.7148438 5.1269531 z M 18.285156 5.1269531 L 19.984375 10.992188 A 1.0001 1.0001 0 0 0 19.96875 10.976562 L 15.009766 5.6582031 L 18.285156 5.1269531 z M 11.40625 6 L 12.59375 6 L 18.017578 11.814453 L 18.017578 11.816406 A 1 1 0 0 0 18.007812 11.875 C 17.68449 14.460134 17.108575 16.340585 16.402344 17.470703 C 15.696113 18.600821 15.000167 19 14 19 L 13 19 L 13 18 A 1 1 0 0 0 12.978516 17.792969 C 13.151154 17.710594 13.313648 17.600414 13.457031 17.457031 C 13.859535 17.054527 14 16.499917 14 16 A 1.0001 1.0001 0 0 0 13 15 L 11 15 A 1 1 0 0 0 10 16 C 10 16.499917 10.140465 17.054527 10.542969 17.457031 C 10.686352 17.600414 10.848846 17.710594 11.021484 17.792969 A 1 1 0 0 0 11 18 L 11 19 L 10 19 C 8.9998333 19 8.3038874 18.600821 7.5976562 17.470703 C 6.8914252 16.340585 6.315511 14.460134 5.9921875 11.875 A 1 1 0 0 0 5.9824219 11.814453 L 11.40625 6 z M 10 10 A 1 1 0 0 0 9 11 L 9 11.009766 A 1 1 0 0 0 10 12.009766 A 1 1 0 0 0 11 11.009766 L 11 11 A 1 1 0 0 0 10 10 z M 14 10 A 1 1 0 0 0 13 11 L 13 11.009766 A 1 1 0 0 0 14 12.009766 A 1 1 0 0 0 15 11.009766 L 15 11 A 1 1 0 0 0 14 10 z " fill="currentColor"/>
</svg>
