<svg xmlns="http://www.w3.org/2000/svg" width="1em" height="1em" viewBox="0 0 24 24" fill="currentColor">
  <path d="M 7 2 C 5.3549904 2 4 3.3549904 4 5 L 4 20 L 3 20 A 1 1 0 0 0 2 21 A 1 1 0 0 0 3 22 L 21 22 A 1 1 0 0 0 22 21 A 1 1 0 0 0 21 20 L 18 20 L 18 13.5 A 1 1 0 0 0 17 12.5 A 1 1 0 0 0 16 13.5 L 16 20 L 6 20 L 6 5 C 6 4.4358706 6.4358706 4 7 4 L 13 4 A 1 1 0 0 0 14 3 A 1 1 0 0 0 13 2 L 7 2 z M 17 3 A 1 1 0 0 0 16.292969 3.2929688 L 13.292969 6.2929688 A 1.0001 1.0001 0 0 0 13.292969 6.7070312 A 1 1 0 0 0 13 7 A 1 1 0 0 0 13.292969 7.2929688 A 1.0001 1.0001 0 0 0 13.292969 7.7070312 L 16.292969 10.707031 A 1 1 0 0 0 17.707031 10.707031 A 1 1 0 0 0 17.707031 9.2929688 L 16.414062 8 L 21 8 A 1 1 0 0 0 22 7 A 1 1 0 0 0 21 6 L 16.414062 6 L 17.707031 4.7070312 A 1 1 0 0 0 17.707031 3.2929688 A 1 1 0 0 0 17 3 z M 13 11 A 1 1 0 0 0 12 12 L 12 12.009766 A 1 1 0 0 0 13 13.009766 A 1 1 0 0 0 14 12.009766 L 14 12 A 1 1 0 0 0 13 11 z " fill="currentColor"/>
</svg>
