<svg xmlns="http://www.w3.org/2000/svg" width="1em" height="1em" viewBox="0 0 24 24" fill="currentColor">
  <path d="M 8 2 C 6.3549904 2 5 3.3549904 5 5 L 5 20 L 3 20 A 1 1 0 0 0 2 21 A 1 1 0 0 0 3 22 L 6 22 L 18 22 L 21 22 A 1 1 0 0 0 22 21 A 1 1 0 0 0 21 20 L 19 20 L 19 5 C 19 3.3549904 17.64501 2 16 2 L 8 2 z M 8 4 L 16 4 C 16.564129 4 17 4.4358706 17 5 L 17 20 L 7 20 L 7 5 C 7 4.4358706 7.4358706 4 8 4 z M 14 11 A 1 1 0 0 0 13 12 L 13 12.009766 A 1 1 0 0 0 14 13.009766 A 1 1 0 0 0 15 12.009766 L 15 12 A 1 1 0 0 0 14 11 z " fill="currentColor"/>
</svg>
