<svg xmlns="http://www.w3.org/2000/svg" width="1em" height="1em" viewBox="0 0 24 24" fill="currentColor">
  <path d="M 3 2 A 1 1 0 0 0 2.2929688 2.2929688 A 1 1 0 0 0 2.2929688 3.7070312 L 6.6347656 8.0488281 L 5.1054688 10.318359 A 1.0001 1.0001 0 0 0 5.0761719 10.365234 C 3.1313529 13.620368 3.9015428 17.797246 6.8730469 20.201172 C 9.844029 22.604676 14.154491 22.604148 17.125 20.201172 C 17.430882 19.954505 17.717489 19.685428 17.982422 19.396484 L 20.292969 21.707031 A 1 1 0 0 0 21.707031 21.707031 A 1 1 0 0 0 21.707031 20.292969 L 3.7070312 2.2929688 A 1 1 0 0 0 3 2 z M 12.042969 2.0019531 C 11.58488 1.9941215 11.11949 2.115022 10.707031 2.3730469 C 10.426142 2.5493045 10.185372 2.7836471 10 3.0585938 L 8.7167969 4.9570312 A 1 1 0 0 0 8.9863281 6.3457031 A 1 1 0 0 0 10.375 6.0761719 L 11.65625 4.1757812 A 1.0001 1.0001 0 0 0 11.658203 4.1757812 C 11.687043 4.1329462 11.724063 4.0961192 11.767578 4.0683594 C 11.965689 3.9444256 12.229628 4.0056854 12.34375 4.1757812 L 17.210938 11.402344 C 17.828356 12.433467 18.095471 13.636694 17.96875 14.832031 A 1 1 0 0 0 18.857422 15.931641 A 1 1 0 0 0 19.957031 15.042969 C 20.129973 13.41164 19.767329 11.769108 18.921875 10.363281 A 1.0001 1.0001 0 0 0 18.892578 10.320312 L 14.003906 3.0605469 C 13.640967 2.519595 13.092064 2.1756625 12.496094 2.0527344 C 12.347101 2.0220024 12.195665 2.0045637 12.042969 2.0019531 z M 8.0761719 9.4902344 L 16.566406 17.980469 C 16.353435 18.220054 16.121454 18.442638 15.871094 18.644531 A 1.0001 1.0001 0 0 0 15.869141 18.646484 C 13.637693 20.452404 10.363422 20.452612 8.1308594 18.646484 C 5.9006095 16.842143 5.3511849 13.816122 6.7910156 11.398438 L 8.0761719 9.4902344 z " fill="currentColor"/>
</svg>
