<svg xmlns="http://www.w3.org/2000/svg" width="1em" height="1em" viewBox="0 0 24 24" fill="currentColor">
  <path d="M 12.042969 2.0019531 C 11.584902 1.9941595 11.11949 2.115022 10.707031 2.3730469 C 10.425742 2.5495558 10.183524 2.7831357 9.9980469 3.0585938 L 5.1054688 10.318359 A 1.0001 1.0001 0 0 0 5.0761719 10.363281 C 3.1315269 13.619271 3.9015428 17.797246 6.8730469 20.201172 C 9.3886496 22.236035 12.860684 22.547858 15.673828 21.136719 A 1 1 0 0 0 16.119141 19.794922 A 1 1 0 0 0 14.777344 19.349609 C 12.662488 20.410472 10.021257 20.175621 8.1308594 18.646484 C 5.8995575 16.841377 5.3485671 13.813899 6.7910156 11.394531 C 6.7917875 11.393231 6.7921987 11.391925 6.7929688 11.390625 L 11.658203 4.1757812 C 11.687043 4.1329462 11.724063 4.0961192 11.767578 4.0683594 C 11.965689 3.9444256 12.230072 4.0046644 12.34375 4.1738281 A 1.0001 1.0001 0 0 0 12.34375 4.1757812 L 17.234375 11.435547 A 1 1 0 0 0 18.623047 11.707031 A 1 1 0 0 0 18.892578 10.318359 L 14.003906 3.0585938 C 13.640745 2.5181753 13.091906 2.1753923 12.496094 2.0527344 C 12.347141 2.0220699 12.195658 2.004551 12.042969 2.0019531 z M 18.916016 14.003906 C 18.751818 14.009427 18.588579 14.028365 18.427734 14.060547 C 17.784358 14.189275 17.18203 14.528141 16.736328 15.054688 A 1 1 0 0 0 16.853516 16.464844 A 1 1 0 0 0 18.263672 16.347656 C 18.561037 15.996354 19.047152 15.898544 19.457031 16.107422 C 19.987605 16.383365 20.073808 16.797707 19.96875 17.232422 C 19.863486 17.667988 19.596602 17.998082 18.996094 18 A 1 1 0 0 0 18 19.003906 A 1 1 0 0 0 19.003906 20 C 20.498615 19.9952 21.618946 18.916192 21.912109 17.703125 C 22.205273 16.490058 21.700614 15.016915 20.373047 14.330078 A 1.0001 1.0001 0 0 0 20.369141 14.328125 C 19.908652 14.092234 19.408609 13.987344 18.916016 14.003906 z M 19 21 A 1 1 0 0 0 18 22 L 18 22.009766 A 1 1 0 0 0 19 23.009766 A 1 1 0 0 0 20 22.009766 L 20 22 A 1 1 0 0 0 19 21 z " fill="currentColor"/>
</svg>
