<svg xmlns="http://www.w3.org/2000/svg" width="1em" height="1em" viewBox="0 0 24 24" fill="currentColor">
  <path d="M 12.042969 2.0019531 C 11.584902 1.9941595 11.11949 2.115022 10.707031 2.3730469 C 10.425742 2.5495558 10.183524 2.7831357 9.9980469 3.0585938 L 5.1054688 10.318359 A 1.0001 1.0001 0 0 0 5.0761719 10.363281 C 3.1315269 13.619271 3.9015428 17.797246 6.8730469 20.201172 A 1.0001 1.0001 0 0 0 6.875 20.203125 C 8.6776799 21.650369 11.010486 22.267057 13.292969 21.900391 A 1 1 0 0 0 14.123047 20.753906 A 1 1 0 0 0 12.976562 19.925781 C 11.251309 20.202888 9.4914955 19.736505 8.1289062 18.642578 C 5.9004713 16.837143 5.3493069 13.812658 6.7910156 11.394531 C 6.7917875 11.393231 6.7921987 11.391925 6.7929688 11.390625 L 11.658203 4.1757812 C 11.687043 4.1329462 11.724063 4.0961192 11.767578 4.0683594 C 11.965689 3.9444256 12.230072 4.0046644 12.34375 4.1738281 A 1.0001 1.0001 0 0 0 12.34375 4.1757812 L 17.210938 11.400391 C 17.610453 12.068991 17.86709 12.814615 17.960938 13.587891 A 1 1 0 0 0 19.074219 14.458984 A 1 1 0 0 0 19.945312 13.345703 C 19.817206 12.290136 19.46903 11.275013 18.921875 10.363281 A 1.0001 1.0001 0 0 0 18.892578 10.318359 L 14.003906 3.0585938 C 13.640745 2.5181753 13.091906 2.1753923 12.496094 2.0527344 C 12.347141 2.0220699 12.195658 2.004551 12.042969 2.0019531 z M 17 16 A 1 1 0 0 0 16.292969 16.292969 A 1 1 0 0 0 16.292969 17.707031 L 18.085938 19.5 L 16.292969 21.292969 A 1 1 0 0 0 16.292969 22.707031 A 1 1 0 0 0 17.707031 22.707031 L 19.5 20.914062 L 21.292969 22.707031 A 1 1 0 0 0 22.707031 22.707031 A 1 1 0 0 0 22.707031 21.292969 L 20.914062 19.5 L 22.707031 17.707031 A 1 1 0 0 0 22.707031 16.292969 A 1 1 0 0 0 21.292969 16.292969 L 19.5 18.085938 L 17.707031 16.292969 A 1 1 0 0 0 17 16 z " fill="currentColor"/>
</svg>
