<svg xmlns="http://www.w3.org/2000/svg" width="1em" height="1em" viewBox="0 0 24 24" fill="currentColor">
  <path d="M 12.042969 2.0019531 C 11.584902 1.9941595 11.11949 2.115022 10.707031 2.3730469 C 10.425742 2.5495558 10.183524 2.7831357 9.9980469 3.0585938 L 5.1054688 10.318359 A 1.0001 1.0001 0 0 0 5.0761719 10.363281 C 3.1315269 13.619271 3.9015428 17.797246 6.8730469 20.201172 A 1.0001 1.0001 0 0 0 6.875 20.203125 C 8.4725307 21.488008 10.495601 22.123328 12.541016 21.984375 A 1 1 0 0 0 13.472656 20.919922 A 1 1 0 0 0 12.40625 19.990234 C 10.862604 20.095055 9.3368668 19.615602 8.1308594 18.646484 L 8.1289062 18.644531 C 5.8994725 16.83921 5.3490491 13.81309 6.7910156 11.394531 C 6.7917875 11.393231 6.7921987 11.391925 6.7929688 11.390625 L 11.658203 4.1757812 C 11.687043 4.1329462 11.724063 4.0961192 11.767578 4.0683594 C 11.965689 3.9444256 12.230072 4.0046644 12.34375 4.1738281 A 1.0001 1.0001 0 0 0 12.34375 4.1757812 L 17.214844 11.40625 C 17.392929 11.705739 17.543954 12.020549 17.664062 12.347656 A 1 1 0 0 0 18.947266 12.941406 A 1 1 0 0 0 19.541016 11.658203 C 19.375743 11.208098 19.168214 10.774652 18.921875 10.363281 A 1.0001 1.0001 0 0 0 18.892578 10.318359 L 14.003906 3.0585938 C 13.640745 2.5181753 13.091906 2.1753923 12.496094 2.0527344 C 12.347141 2.0220699 12.195658 2.004551 12.042969 2.0019531 z M 19 15 A 1 1 0 0 0 18 16 L 18 19.585938 L 16.707031 18.292969 A 1 1 0 0 0 15.292969 18.292969 A 1 1 0 0 0 15.292969 19.707031 L 18.283203 22.697266 L 18.292969 22.707031 A 1.0001 1.0001 0 0 0 18.341797 22.75 A 1 1 0 0 0 18.384766 22.787109 A 1.0001 1.0001 0 0 0 18.439453 22.824219 A 1 1 0 0 0 18.492188 22.861328 A 1.0001 1.0001 0 0 0 18.5 22.865234 A 1 1 0 0 0 18.611328 22.921875 A 1.0001 1.0001 0 0 0 18.617188 22.923828 A 1 1 0 0 0 18.742188 22.964844 A 1 1 0 0 0 18.794922 22.976562 A 1.0001 1.0001 0 0 0 19 23 A 1.0001 1.0001 0 0 0 19.205078 22.976562 A 1.0001 1.0001 0 0 0 19.257812 22.964844 A 1 1 0 0 0 19.382812 22.923828 A 1.0001 1.0001 0 0 0 19.560547 22.824219 A 1 1 0 0 0 19.615234 22.787109 A 1.0001 1.0001 0 0 0 19.658203 22.75 A 1 1 0 0 0 19.716797 22.697266 L 22.707031 19.707031 A 1 1 0 0 0 22.707031 18.292969 A 1 1 0 0 0 21.292969 18.292969 L 20 19.585938 L 20 16 A 1 1 0 0 0 19 15 z " fill="currentColor"/>
</svg>
