<svg xmlns="http://www.w3.org/2000/svg" width="1em" height="1em" viewBox="0 0 24 24" fill="currentColor">
  <path d="M 12.042969 2.0019531 C 11.584902 1.9941595 11.11949 2.115022 10.707031 2.3730469 C 10.425742 2.5495558 10.183524 2.7831357 9.9980469 3.0585938 L 5.1054688 10.318359 A 1.0001 1.0001 0 0 0 5.0761719 10.363281 C 3.1315269 13.619271 3.9015428 17.797246 6.8730469 20.201172 A 1.0001 1.0001 0 0 0 6.875 20.201172 C 8.2269925 21.290822 9.892116 21.919564 11.626953 21.994141 A 1 1 0 0 0 12.669922 21.037109 A 1 1 0 0 0 11.712891 19.996094 C 10.405492 19.939894 9.1500645 19.467183 8.1308594 18.646484 L 8.1289062 18.644531 C 5.8994725 16.83921 5.3490491 13.81309 6.7910156 11.394531 C 6.7917875 11.393231 6.7921987 11.391925 6.7929688 11.390625 L 11.658203 4.1757812 C 11.687043 4.1329462 11.724063 4.0961192 11.767578 4.0683594 C 11.965689 3.9444256 12.230072 4.0046644 12.34375 4.1738281 A 1.0001 1.0001 0 0 0 12.34375 4.1757812 L 17.234375 11.435547 A 1 1 0 0 0 18.623047 11.707031 A 1 1 0 0 0 18.892578 10.318359 L 14.003906 3.0585938 C 13.640745 2.5181753 13.091906 2.1753923 12.496094 2.0527344 C 12.347141 2.0220699 12.195658 2.004551 12.042969 2.0019531 z M 18 14 C 17.027778 14 16.042119 14.318681 15.273438 15.001953 C 14.504755 15.685226 14 16.75 14 18 C 14 19.25 14.504756 20.314774 15.273438 20.998047 C 16.042119 21.681319 17.027778 22 18 22 C 18.709147 22 19.424566 21.829573 20.058594 21.472656 L 21.292969 22.707031 A 1 1 0 0 0 22.707031 22.707031 A 1 1 0 0 0 22.707031 21.292969 L 21.476562 20.0625 C 21.806482 19.477109 22 18.77405 22 18 C 22 16.75 21.495244 15.685226 20.726562 15.001953 C 19.957881 14.318681 18.972222 14 18 14 z M 18 16 C 18.527778 16 19.042119 16.18132 19.398438 16.498047 C 19.754756 16.814774 20 17.250001 20 18 C 20 18.749999 19.754756 19.185226 19.398438 19.501953 C 19.042119 19.81868 18.527778 20 18 20 C 17.472222 20 16.957881 19.81868 16.601562 19.501953 C 16.245244 19.185226 16 18.749999 16 18 C 16 17.250001 16.245244 16.814774 16.601562 16.498047 C 16.957881 16.18132 17.472222 16 18 16 z " fill="currentColor"/>
</svg>
