<svg xmlns="http://www.w3.org/2000/svg" width="1em" height="1em" viewBox="0 0 24 24" fill="currentColor">
  <path d="M 5 1 C 4.2777779 1 3.5421194 1.2353472 2.9609375 1.7519531 C 2.3797556 2.268559 2 3.0833335 2 4 C 2 4.9166665 2.3797556 5.731441 2.9609375 6.2480469 C 3.5421194 6.7646528 4.2777779 7 5 7 C 5.7222221 7 6.4578806 6.7646528 7.0390625 6.2480469 C 7.3970256 5.9298576 7.6783281 5.4985548 7.8417969 5 L 9 5 A 1 1 0 0 0 10 4 A 1 1 0 0 0 9 3 L 7.8417969 3 C 7.6783281 2.5014452 7.3970256 2.0701424 7.0390625 1.7519531 C 6.4578806 1.2353472 5.7222221 1 5 1 z M 5 3 C 5.2777779 3 5.5421194 3.0979864 5.7109375 3.2480469 C 5.8797556 3.3981073 6 3.5833337 6 4 C 6 4.4166663 5.8797556 4.6018927 5.7109375 4.7519531 C 5.5421194 4.9020136 5.2777779 5 5 5 C 4.7222221 5 4.4578806 4.9020136 4.2890625 4.7519531 C 4.1202444 4.6018927 4 4.4166663 4 4 C 4 3.5833337 4.1202444 3.3981073 4.2890625 3.2480469 C 4.4578806 3.0979864 4.7222221 3 5 3 z M 12 3 A 1 1 0 0 0 11 4 A 1 1 0 0 0 12 5 L 14 5 A 1 1 0 0 0 15 4 A 1 1 0 0 0 14 3 L 12 3 z M 21 3 C 18.666667 3 16.759208 4.1970832 15.214844 5.8085938 C 13.670479 7.4201045 12.402344 9.4707032 11.152344 11.470703 C 9.9023435 13.470703 8.6704794 15.420104 7.3398438 16.808594 C 6.0092083 18.197083 4.6666667 19 3 19 A 1 1 0 0 0 2 20 A 1 1 0 0 0 3 21 C 5.3333333 21 7.2407917 19.802917 8.7851562 18.191406 C 10.329521 16.579896 11.597656 14.529297 12.847656 12.529297 C 14.097656 10.529297 15.329521 8.5798957 16.660156 7.1914062 C 17.990792 5.802917 19.333333 5 21 5 A 1 1 0 0 0 22 4 A 1 1 0 0 0 21 3 z M 19 17 C 18.277778 17 17.542119 17.235347 16.960938 17.751953 C 16.602975 18.070142 16.321672 18.501445 16.158203 19 L 15 19 A 1 1 0 0 0 14 20 A 1 1 0 0 0 15 21 L 16.158203 21 C 16.321672 21.498555 16.602975 21.929858 16.960938 22.248047 C 17.542119 22.764653 18.277778 23 19 23 C 19.722222 23 20.457881 22.764653 21.039062 22.248047 C 21.620244 21.731441 22 20.916666 22 20 C 22 19.083334 21.620244 18.268559 21.039062 17.751953 C 20.457881 17.235347 19.722222 17 19 17 z M 10 19 A 1 1 0 0 0 9 20 A 1 1 0 0 0 10 21 L 12 21 A 1 1 0 0 0 13 20 A 1 1 0 0 0 12 19 L 10 19 z M 19 19 C 19.277778 19 19.542119 19.09799 19.710938 19.248047 C 19.879756 19.398107 20 19.583334 20 20 C 20 20.416666 19.879756 20.601893 19.710938 20.751953 C 19.542119 20.902014 19.277778 21 19 21 C 18.722222 21 18.457881 20.902014 18.289062 20.751953 C 18.120244 20.601893 18 20.416666 18 20 C 18 19.583334 18.120244 19.398107 18.289062 19.248047 C 18.457881 19.097986 18.722222 19 19 19 z " fill="currentColor"/>
</svg>
