<svg xmlns="http://www.w3.org/2000/svg" width="1em" height="1em" viewBox="0 0 24 24" fill="currentColor">
  <path d="M 12 3 A 1 1 0 0 0 11 4 L 11 5 L 10 5 A 1 1 0 0 0 9 6 A 1 1 0 0 0 10 7 L 11 7 L 11 8 A 1 1 0 0 0 12 9 A 1 1 0 0 0 13 8 L 13 7 L 14 7 A 1 1 0 0 0 15 6 A 1 1 0 0 0 14 5 L 13 5 L 13 4 A 1 1 0 0 0 12 3 z M 4.0117188 7 A 1 1 0 0 0 3.4003906 7.1992188 A 1 1 0 0 0 3.1992188 8.5996094 L 5.3007812 11.400391 C 6.0556726 12.406912 7.2418478 13 8.5 13 L 11 13 L 11 13.585938 L 9.3085938 15.277344 C 8.8934115 15.088737 8.4440509 15 8 15 C 7.2777779 15 6.5421194 15.235347 5.9609375 15.751953 C 5.3797556 16.268559 5 17.083334 5 18 C 5 18.916666 5.3797556 19.731441 5.9609375 20.248047 C 6.5421194 20.764653 7.2777779 21 8 21 C 8.7222221 21 9.4578801 20.764653 10.039062 20.248047 C 10.620243 19.731441 11 18.916666 11 18 C 11 17.527982 10.899694 17.082593 10.722656 16.691406 L 12 15.414062 L 13.277344 16.691406 C 13.100306 17.082593 13 17.527982 13 18 C 13 18.916666 13.379756 19.731441 13.960938 20.248047 C 14.542118 20.764653 15.277778 21 16 21 C 16.722222 21 17.457881 20.764653 18.039062 20.248047 C 18.620244 19.731441 19 18.916666 19 18 C 19 17.083334 18.620244 16.268559 18.039062 15.751953 C 17.457881 15.235347 16.722222 15 16 15 C 15.555949 15 15.106588 15.088737 14.691406 15.277344 L 13 13.585938 L 13 13 L 20 13 A 1 1 0 0 0 21 12 A 1 1 0 0 0 20 11 L 8.5 11 C 7.8696084 11 7.2786256 10.703532 6.9003906 10.199219 L 4.8007812 7.4003906 A 1 1 0 0 0 4.0117188 7 z M 8 17 C 8.2777779 17 8.5421194 17.09799 8.7109375 17.248047 C 8.8797556 17.398107 9 17.583334 9 18 C 9 18.416666 8.8797556 18.601893 8.7109375 18.751953 C 8.5421194 18.902014 8.2777779 19 8 19 C 7.7222221 19 7.4578806 18.902014 7.2890625 18.751953 C 7.1202444 18.601893 7 18.416666 7 18 C 7 17.583334 7.1202444 17.398107 7.2890625 17.248047 C 7.4578806 17.097986 7.7222221 17 8 17 z M 16 17 C 16.277778 17 16.542119 17.09799 16.710938 17.248047 C 16.879756 17.398107 17 17.583334 17 18 C 17 18.416666 16.879756 18.601893 16.710938 18.751953 C 16.542119 18.902014 16.277778 19 16 19 C 15.722222 19 15.45788 18.902014 15.289062 18.751953 C 15.120243 18.601893 15 18.416666 15 18 C 15 17.583334 15.120244 17.398107 15.289062 17.248047 C 15.45788 17.097986 15.722222 17 16 17 z " fill="currentColor"/>
</svg>
