<svg xmlns="http://www.w3.org/2000/svg" width="1em" height="1em" viewBox="0 0 24 24" fill="currentColor">
  <path d="M 3 2 A 1 1 0 0 0 2.2929688 2.2929688 A 1 1 0 0 0 2.2929688 3.7070312 L 7.5859375 9 L 6 9 A 1.0001 1.0001 0 0 0 5 10 L 5 12 L 4 12 L 4 10 A 1 1 0 0 0 3 9 A 1 1 0 0 0 2 10 L 2 16 A 1 1 0 0 0 3 17 A 1 1 0 0 0 4 16 L 4 14 L 5 14 L 5 16 A 1.0001 1.0001 0 0 0 6 17 L 7.4648438 17 L 8.8710938 19.109375 C 9.2414941 19.664542 9.8677684 20.0001 10.535156 20 L 14 20 C 15.092725 20 16 19.092725 16 18 L 16 17.414062 L 20.292969 21.707031 A 1 1 0 0 0 21.707031 21.707031 A 1 1 0 0 0 21.707031 20.292969 L 16.716797 15.302734 A 1 1 0 0 0 16.697266 15.283203 L 3.7070312 2.2929688 A 1 1 0 0 0 3 2 z M 10 4 A 1 1 0 0 0 9 5 A 1 1 0 0 0 10 6 L 11 6 L 11 8 A 1 1 0 0 0 12 9 L 13.380859 9 L 14.830078 11.894531 C 15.167662 12.570103 15.861965 12.999597 16.617188 13 L 18 13 A 1.0001 1.0001 0 0 0 19 12 L 19 11 L 20 11 L 20 17 A 1 1 0 0 0 21 18 A 1 1 0 0 0 22 17 L 22 11 C 22 9.9072751 21.092725 9 20 9 L 18 9 A 1.0001 1.0001 0 0 0 17 10 L 17 11 L 16.619141 11 L 15.169922 8.1054688 C 14.832338 7.4298967 14.138034 7.0004033 13.382812 7 L 13 7 L 13 6 L 14 6 A 1 1 0 0 0 15 5 A 1 1 0 0 0 14 4 L 10 4 z M 9 10.414062 L 14.117188 15.53125 A 1.0001 1.0001 0 0 0 14 16 L 14 18 L 10.535156 18 L 8.8320312 15.445312 A 1.0001 1.0001 0 0 0 8 15 L 7 15 L 7 11 L 8 11 A 1.0001 1.0001 0 0 0 8.7070312 10.707031 L 9 10.414062 z " fill="currentColor"/>
</svg>
