<svg xmlns="http://www.w3.org/2000/svg" width="1em" height="1em" viewBox="0 0 24 24" fill="currentColor">
  <path d="M 3 9 A 1 1 0 0 0 2 10 A 1 1 0 0 0 3 11 L 10 11 A 1 1 0 0 0 11 10 A 1 1 0 0 0 10 9 L 3 9 z M 14 9 A 1 1 0 0 0 13 10 A 1 1 0 0 0 14 11 L 21 11 A 1 1 0 0 0 22 10 A 1 1 0 0 0 21 9 L 14 9 z M 3 13 A 1 1 0 0 0 2 14 A 1 1 0 0 0 3 15 L 10 15 A 1 1 0 0 0 11 14 A 1 1 0 0 0 10 13 L 3 13 z M 14 13 A 1 1 0 0 0 13 14 A 1 1 0 0 0 14 15 L 21 15 A 1 1 0 0 0 22 14 A 1 1 0 0 0 21 13 L 14 13 z " fill="currentColor"/>
</svg>
