<svg xmlns="http://www.w3.org/2000/svg" width="1em" height="1em" viewBox="0 0 24 24" fill="currentColor">
  <path d="M 14.994141 3.0058594 C 14.482098 3.0058594 13.971852 3.1964528 13.585938 3.5800781 A 1.0001 1.0001 0 0 0 13.582031 3.5820312 L 3.5820312 13.582031 A 1.0001 1.0001 0 0 0 3.5800781 13.585938 C 2.8128275 14.357767 2.8128275 15.632467 3.5800781 16.404297 L 7.7851562 20.699219 A 1.0001 1.0001 0 0 0 8.5 21 L 19 21 A 1 1 0 0 0 20 20 A 1 1 0 0 0 19 19 L 13.894531 19 L 21.410156 11.404297 L 21.410156 11.402344 C 22.17604 10.630374 22.176951 9.3573085 21.410156 8.5859375 A 1.0001 1.0001 0 0 0 21.40625 8.5820312 L 16.40625 3.5820312 A 1.0001 1.0001 0 0 0 16.404297 3.5800781 C 16.018423 3.1965004 15.506183 3.0058594 14.994141 3.0058594 z M 14.994141 5 L 14.996094 5 L 19.990234 9.9941406 L 19.988281 9.9960938 L 18.058594 11.945312 L 13.054688 6.9414062 L 14.994141 5 z M 11.640625 8.3554688 L 16.652344 13.367188 L 11.082031 19 L 8.9199219 19 L 5.0039062 15 A 1.0001 1.0001 0 0 0 5 14.996094 A 1.0001 1.0001 0 0 0 5 14.994141 L 11.640625 8.3554688 z " fill="currentColor"/>
</svg>
