<svg xmlns="http://www.w3.org/2000/svg" width="1em" height="1em" viewBox="0 0 24 24" fill="currentColor">
  <path d="M 3 2 A 1 1 0 0 0 2.2929688 2.2929688 A 1 1 0 0 0 2.2929688 3.7070312 L 5.5546875 6.96875 C 4.5896467 8.0374504 4 9.4539375 4 11 L 4 15.158203 C 3.6265945 15.280626 3.2716848 15.475733 2.9609375 15.751953 C 2.3797556 16.268559 2 17.083334 2 18 C 2 18.916666 2.3797556 19.731441 2.9609375 20.248047 C 3.5421194 20.764653 4.2777779 21 5 21 C 5.7222221 21 6.4578806 20.764653 7.0390625 20.248047 C 7.6202444 19.731441 8 18.916666 8 18 C 8 17.083334 7.6202444 16.268559 7.0390625 15.751953 C 6.7283152 15.475733 6.3734055 15.280626 6 15.158203 L 6 11 C 6 9.9969065 6.3652003 9.0871651 6.9707031 8.3847656 L 13.085938 14.5 L 10.292969 17.292969 A 1 1 0 0 0 10.207031 17.390625 A 1.0001 1.0001 0 0 0 10.154297 17.46875 A 1 1 0 0 0 10.130859 17.505859 A 1.0001 1.0001 0 0 0 10.113281 17.544922 A 1 1 0 0 0 10.070312 17.632812 A 1.0001 1.0001 0 0 0 10.056641 17.677734 A 1 1 0 0 0 10.033203 17.755859 A 1.0001 1.0001 0 0 0 10.021484 17.804688 A 1 1 0 0 0 10.005859 17.894531 A 1.0001 1.0001 0 0 0 10.003906 17.943359 A 1 1 0 0 0 10.001953 18.035156 A 1.0001 1.0001 0 0 0 10.003906 18.0625 A 1 1 0 0 0 10.015625 18.167969 A 1.0001 1.0001 0 0 0 10.027344 18.21875 A 1 1 0 0 0 10.042969 18.285156 A 1.0001 1.0001 0 0 0 10.064453 18.34375 A 1 1 0 0 0 10.095703 18.421875 A 1.0001 1.0001 0 0 0 10.119141 18.466797 A 1 1 0 0 0 10.162109 18.542969 A 1.0001 1.0001 0 0 0 10.185547 18.576172 A 1 1 0 0 0 10.244141 18.652344 A 1.0001 1.0001 0 0 0 10.275391 18.685547 A 1 1 0 0 0 10.292969 18.707031 L 13.292969 21.707031 A 1 1 0 0 0 14.707031 21.707031 A 1 1 0 0 0 14.707031 20.292969 L 13.414062 19 L 13.998047 19 C 15.002664 19.001615 15.98685 18.750421 16.861328 18.275391 L 20.292969 21.707031 A 1 1 0 0 0 21.707031 21.707031 A 1 1 0 0 0 21.707031 20.292969 L 17.835938 16.421875 A 1 1 0 0 0 17.810547 16.386719 A 1 1 0 0 0 17.582031 16.167969 L 3.7070312 2.2929688 A 1 1 0 0 0 3 2 z M 10 2 A 1 1 0 0 0 9.2929688 2.2929688 A 1 1 0 0 0 9.2929688 3.7070312 L 10.585938 5 L 10 5 A 1 1 0 0 0 9 6 A 1 1 0 0 0 10 7 L 10.632812 7 A 1 1 0 0 0 10.792969 8.2070312 A 1 1 0 0 0 12.208984 8.2070312 L 13.707031 6.7070312 A 1 1 0 0 0 13.724609 6.6855469 A 1.0001 1.0001 0 0 0 13.755859 6.6523438 A 1 1 0 0 0 13.824219 6.5644531 A 1.0001 1.0001 0 0 0 13.837891 6.5429688 A 1 1 0 0 0 13.880859 6.4667969 A 1.0001 1.0001 0 0 0 13.904297 6.421875 A 1 1 0 0 0 13.935547 6.34375 A 1.0001 1.0001 0 0 0 13.957031 6.2851562 A 1 1 0 0 0 13.972656 6.21875 A 1.0001 1.0001 0 0 0 13.984375 6.1679688 A 1 1 0 0 0 13.998047 6.046875 A 1.0001 1.0001 0 0 0 13.998047 6.0351562 A 1 1 0 0 0 13.996094 5.9433594 A 1.0001 1.0001 0 0 0 13.994141 5.8945312 A 1 1 0 0 0 13.978516 5.8046875 A 1.0001 1.0001 0 0 0 13.964844 5.7421875 A 1 1 0 0 0 13.931641 5.6386719 A 1.0001 1.0001 0 0 0 13.929688 5.6328125 A 1 1 0 0 0 13.873047 5.5136719 A 1.0001 1.0001 0 0 0 13.865234 5.5 A 1 1 0 0 0 13.845703 5.46875 A 1.0001 1.0001 0 0 0 13.792969 5.390625 A 1 1 0 0 0 13.707031 5.2929688 L 10.707031 2.2929688 A 1 1 0 0 0 10 2 z M 19 3 C 18.277778 3 17.542119 3.2353472 16.960938 3.7519531 C 16.379756 4.268559 16 5.0833335 16 6 C 16 6.9166665 16.379756 7.731441 16.960938 8.2480469 C 17.271685 8.5242666 17.626594 8.7193743 18 8.8417969 L 18 13 C 18 13.477277 17.91735 13.931871 17.765625 14.353516 A 1 1 0 0 0 18.367188 15.632812 A 1 1 0 0 0 19.646484 15.03125 C 19.874756 14.396894 20 13.710723 20 13 L 20 8.8417969 C 20.373406 8.7193743 20.728316 8.5242666 21.039062 8.2480469 C 21.620244 7.731441 22 6.9166665 22 6 C 22 5.0833335 21.620244 4.268559 21.039062 3.7519531 C 20.457881 3.2353472 19.722222 3 19 3 z M 19 5 C 19.277778 5 19.542119 5.097986 19.710938 5.2480469 C 19.879756 5.3981073 20 5.5833337 20 6 C 20 6.4166663 19.879756 6.6018927 19.710938 6.7519531 C 19.542119 6.9020136 19.277778 7 19 7 C 18.722222 7 18.457881 6.9020136 18.289062 6.7519531 C 18.120244 6.6018927 18 6.4166663 18 6 C 18 5.5833337 18.120244 5.3981073 18.289062 5.2480469 C 18.457881 5.0979864 18.722222 5 19 5 z M 14.5 15.914062 L 15.351562 16.765625 C 14.921245 16.920011 14.465407 17.000753 14.001953 17 A 1.0001 1.0001 0 0 0 14 17 L 13.414062 17 L 14.5 15.914062 z M 5 17 C 5.2777779 17 5.5421194 17.09799 5.7109375 17.248047 C 5.8797556 17.398107 6 17.583334 6 18 C 6 18.416666 5.8797556 18.601893 5.7109375 18.751953 C 5.5421194 18.902014 5.2777779 19 5 19 C 4.7222221 19 4.4578806 18.902014 4.2890625 18.751953 C 4.1202444 18.601893 4 18.416666 4 18 C 4 17.583334 4.1202444 17.398107 4.2890625 17.248047 C 4.4578806 17.097986 4.7222221 17 5 17 z " fill="currentColor"/>
</svg>
