<svg xmlns="http://www.w3.org/2000/svg" width="1em" height="1em" viewBox="0 0 24 24" fill="currentColor">
  <path d="M 3 2 A 1 1 0 0 0 2.2929688 2.2929688 A 1 1 0 0 0 2.2929688 3.7070312 C 2.1051397 4.1002178 2 4.5400598 2 5 L 2 19 C 2 20.64501 3.3549904 22 5 22 L 19 22 C 19.433233 22 19.906302 21.950014 20.357422 21.767578 A 1 1 0 0 0 21.707031 21.707031 A 1 1 0 0 0 21.707031 20.292969 L 21.208984 19.794922 L 16.716797 15.302734 A 1 1 0 0 0 16.697266 15.283203 L 8.7167969 7.3027344 A 1 1 0 0 0 8.6972656 7.2832031 L 3.7070312 2.2929688 A 1 1 0 0 0 3 2 z M 7 2 A 1 1 0 0 0 6 3 A 1 1 0 0 0 7 4 L 18.585938 4 L 13.304688 9.28125 A 1 1 0 0 0 13.304688 10.695312 A 1 1 0 0 0 14.71875 10.695312 L 20 5.4140625 L 20 17 A 1 1 0 0 0 21 18 A 1 1 0 0 0 22 17 L 22 5 C 22 3.3549904 20.64501 2 19 2 L 7 2 z M 4 5.4140625 L 5.6484375 7.0625 A 1 1 0 0 0 5 8 A 1 1 0 0 0 6 9 L 7 9 L 7 10 A 1 1 0 0 0 8 11 A 1 1 0 0 0 8.9375 10.351562 L 10.585938 12 L 4 18.585938 L 4 5.4140625 z M 12 13.414062 L 13.648438 15.0625 A 1 1 0 0 0 13 16 A 1 1 0 0 0 14 17 L 15.585938 17 L 18.585938 20 L 5.4140625 20 L 12 13.414062 z " fill="currentColor"/>
</svg>
