<svg xmlns="http://www.w3.org/2000/svg" width="1em" height="1em" viewBox="0 0 24 24" fill="currentColor">
  <path d="M 12 5 C 8.0296296 5 4.6560698 7.2971754 2.1425781 11.486328 A 1.0001 1.0001 0 0 0 2.1425781 12.513672 C 4.6560698 16.702825 8.0296296 19 12 19 C 12.377447 19.000397 12.755642 18.980433 13.130859 18.939453 A 1 1 0 0 0 14.015625 17.835938 A 1 1 0 0 0 12.914062 16.951172 C 12.611125 16.984256 12.306691 17.000378 12.001953 17 A 1.0001 1.0001 0 0 0 12 17 C 8.9383772 17 6.4302745 15.40581 4.2285156 12 C 6.4302745 8.5941897 8.9383772 7 12 7 C 15.071978 7 17.58787 8.6011927 19.794922 12.03125 C 19.721502 12.144797 19.650592 12.264843 19.576172 12.375 A 1 1 0 0 0 19.84375 13.763672 A 1 1 0 0 0 21.232422 13.494141 C 21.443941 13.181051 21.652799 12.854709 21.857422 12.513672 A 1.0001 1.0001 0 0 0 21.857422 11.486328 C 19.34393 7.2971754 15.97037 5 12 5 z M 12 9 C 11.277778 9 10.542119 9.2353472 9.9609375 9.7519531 C 9.3797556 10.268559 9 11.083334 9 12 C 9 12.916666 9.3797556 13.731441 9.9609375 14.248047 C 10.542119 14.764653 11.277778 15 12 15 C 12.722222 15 13.45788 14.764653 14.039062 14.248047 C 14.620243 13.731441 15 12.916666 15 12 C 15 11.083334 14.620244 10.268559 14.039062 9.7519531 C 13.45788 9.2353472 12.722222 9 12 9 z M 12 11 C 12.277778 11 12.542119 11.09799 12.710938 11.248047 C 12.879755 11.398107 13 11.583334 13 12 C 13 12.416666 12.879756 12.601893 12.710938 12.751953 C 12.542118 12.902014 12.277778 13 12 13 C 11.722222 13 11.45788 12.902014 11.289062 12.751953 C 11.120243 12.601893 11 12.416666 11 12 C 11 11.583334 11.120244 11.398107 11.289062 11.248047 C 11.45788 11.097986 11.722222 11 12 11 z M 17 16 A 1 1 0 0 0 16 17 L 16 22 A 1 1 0 0 0 17 23 A 1 1 0 0 0 18 22 L 18 17 A 1 1 0 0 0 17 16 z M 21 16 A 1 1 0 0 0 20 17 L 20 22 A 1 1 0 0 0 21 23 A 1 1 0 0 0 22 22 L 22 17 A 1 1 0 0 0 21 16 z " fill="currentColor"/>
</svg>
