<svg xmlns="http://www.w3.org/2000/svg" width="1em" height="1em" viewBox="0 0 24 24" fill="currentColor">
  <path d="M 12 5 C 8.0296296 5 4.6560698 7.2971754 2.1425781 11.486328 A 1.0001 1.0001 0 0 0 2.1425781 12.513672 C 4.6560698 16.702825 8.0296296 19 12 19 A 1 1 0 0 0 13 18 A 1 1 0 0 0 12 17 C 8.9383772 17 6.4302745 15.40581 4.2285156 12 C 6.4302745 8.5941897 8.9383772 7 12 7 C 15.22963 7 17.85607 8.7028246 20.142578 12.513672 A 1 1 0 0 0 21.513672 12.857422 A 1 1 0 0 0 21.857422 11.486328 C 19.34393 7.2971754 15.97037 5 12 5 z M 12 9 C 11.277778 9 10.542119 9.2353472 9.9609375 9.7519531 C 9.3797556 10.268559 9 11.083334 9 12 C 9 12.916666 9.3797556 13.731441 9.9609375 14.248047 C 10.542119 14.764653 11.277778 15 12 15 C 12.722222 15 13.45788 14.764653 14.039062 14.248047 C 14.620243 13.731441 15 12.916666 15 12 C 15 11.083334 14.620244 10.268559 14.039062 9.7519531 C 13.45788 9.2353472 12.722222 9 12 9 z M 12 11 C 12.277778 11 12.542119 11.09799 12.710938 11.248047 C 12.879755 11.398107 13 11.583334 13 12 C 13 12.416666 12.879756 12.601893 12.710938 12.751953 C 12.542118 12.902014 12.277778 13 12 13 C 11.722222 13 11.45788 12.902014 11.289062 12.751953 C 11.120243 12.601893 11 12.416666 11 12 C 11 11.583334 11.120244 11.398107 11.289062 11.248047 C 11.45788 11.097986 11.722222 11 12 11 z M 19 15 C 18.027778 15 17.042119 15.318681 16.273438 16.001953 C 15.504756 16.685226 15 17.75 15 19 C 15 20.25 15.504756 21.314774 16.273438 21.998047 C 17.042119 22.681319 18.027778 23 19 23 C 19.972222 23 20.957881 22.681319 21.726562 21.998047 C 22.495244 21.314774 23 20.25 23 19 C 23 17.75 22.495244 16.685226 21.726562 16.001953 C 20.957881 15.318681 19.972222 15 19 15 z M 19 17 C 19.178556 17 19.355509 17.020818 19.525391 17.060547 L 17.048828 19.537109 C 17.016537 19.378241 17 19.199858 17 19 C 17 18.250001 17.245244 17.814774 17.601562 17.498047 C 17.957881 17.18132 18.472222 17 19 17 z M 20.951172 18.462891 C 20.983463 18.621759 21 18.800142 21 19 C 21 19.749999 20.754756 20.185226 20.398438 20.501953 C 20.042119 20.81868 19.527778 21 19 21 C 18.821444 21 18.644491 20.979182 18.474609 20.939453 L 20.951172 18.462891 z " fill="currentColor"/>
</svg>
