<svg xmlns="http://www.w3.org/2000/svg" width="1em" height="1em" viewBox="0 0 24 24" fill="currentColor">
  <path d="M 12 5 A 1 1 0 0 0 11 6 A 1 1 0 0 0 12 7 L 12.009766 7 A 1 1 0 0 0 13.009766 6 A 1 1 0 0 0 12.009766 5 L 12 5 z M 8 6 A 1 1 0 0 0 7 7 A 1 1 0 0 0 8 8 L 8.0097656 8 A 1 1 0 0 0 9.0097656 7 A 1 1 0 0 0 8.0097656 6 L 8 6 z M 16 6 A 1 1 0 0 0 15 7 A 1 1 0 0 0 16 8 L 16.009766 8 A 1 1 0 0 0 17.009766 7 A 1 1 0 0 0 16.009766 6 L 16 6 z M 5 8 A 1 1 0 0 0 4 9 A 1 1 0 0 0 5 10 L 5.0097656 10 A 1 1 0 0 0 6.0097656 9 A 1 1 0 0 0 5.0097656 8 L 5 8 z M 19 8 A 1 1 0 0 0 18 9 A 1 1 0 0 0 19 10 L 19.009766 10 A 1 1 0 0 0 20.009766 9 A 1 1 0 0 0 19.009766 8 L 19 8 z M 12 9 C 11.277778 9 10.542119 9.2353472 9.9609375 9.7519531 C 9.3797556 10.268559 9 11.083334 9 12 C 9 12.916666 9.3797556 13.731441 9.9609375 14.248047 C 10.542119 14.764653 11.277778 15 12 15 C 12.722222 15 13.45788 14.764653 14.039062 14.248047 C 14.620243 13.731441 15 12.916666 15 12 C 15 11.083334 14.620244 10.268559 14.039062 9.7519531 C 13.45788 9.2353472 12.722222 9 12 9 z M 3 11 A 1 1 0 0 0 2 12 A 1 1 0 0 0 3 13 L 3.0097656 13 A 1 1 0 0 0 4.0097656 12 A 1 1 0 0 0 3.0097656 11 L 3 11 z M 12 11 C 12.277778 11 12.542119 11.09799 12.710938 11.248047 C 12.879755 11.398107 13 11.583334 13 12 C 13 12.416666 12.879756 12.601893 12.710938 12.751953 C 12.542118 12.902014 12.277778 13 12 13 C 11.722222 13 11.45788 12.902014 11.289062 12.751953 C 11.120243 12.601893 11 12.416666 11 12 C 11 11.583334 11.120244 11.398107 11.289062 11.248047 C 11.45788 11.097986 11.722222 11 12 11 z M 21 11 A 1 1 0 0 0 20 12 A 1 1 0 0 0 21 13 L 21.009766 13 A 1 1 0 0 0 22.009766 12 A 1 1 0 0 0 21.009766 11 L 21 11 z M 5 14 A 1 1 0 0 0 4 15 A 1 1 0 0 0 5 16 L 5.0097656 16 A 1 1 0 0 0 6.0097656 15 A 1 1 0 0 0 5.0097656 14 L 5 14 z M 19 14 A 1 1 0 0 0 18 15 A 1 1 0 0 0 19 16 L 19.009766 16 A 1 1 0 0 0 20.009766 15 A 1 1 0 0 0 19.009766 14 L 19 14 z M 8 16 A 1 1 0 0 0 7 17 A 1 1 0 0 0 8 18 L 8.0097656 18 A 1 1 0 0 0 9.0097656 17 A 1 1 0 0 0 8.0097656 16 L 8 16 z M 16 16 A 1 1 0 0 0 15 17 A 1 1 0 0 0 16 18 L 16.009766 18 A 1 1 0 0 0 17.009766 17 A 1 1 0 0 0 16.009766 16 L 16 16 z M 12 17 A 1 1 0 0 0 11 18 A 1 1 0 0 0 12 19 L 12.009766 19 A 1 1 0 0 0 13.009766 18 A 1 1 0 0 0 12.009766 17 L 12 17 z " fill="currentColor"/>
</svg>
