<svg xmlns="http://www.w3.org/2000/svg" width="1em" height="1em" viewBox="0 0 24 24" fill="currentColor">
  <path d="M 12 5 C 8.0296296 5 4.6560698 7.2971754 2.1425781 11.486328 A 1.0001 1.0001 0 0 0 2.1425781 12.513672 C 4.6560698 16.702825 8.0296296 19 12 19 C 12.406572 19.000446 12.813027 18.977358 13.216797 18.929688 A 1 1 0 0 0 14.09375 17.818359 A 1 1 0 0 0 12.982422 16.943359 C 12.656686 16.981814 12.329951 17.000422 12.001953 17 A 1.0001 1.0001 0 0 0 12 17 C 8.9383772 17 6.4302745 15.40581 4.2285156 12 C 6.4302745 8.5941897 8.9383772 7 12 7 C 15.22963 7 17.85607 8.7028246 20.142578 12.513672 A 1 1 0 0 0 21.513672 12.857422 A 1 1 0 0 0 21.857422 11.486328 C 19.34393 7.2971754 15.97037 5 12 5 z M 12 9 C 11.277778 9 10.542119 9.2353472 9.9609375 9.7519531 C 9.3797556 10.268559 9 11.083334 9 12 C 9 12.916666 9.3797556 13.731441 9.9609375 14.248047 C 10.542119 14.764653 11.277778 15 12 15 C 12.722222 15 13.45788 14.764653 14.039062 14.248047 C 14.620243 13.731441 15 12.916666 15 12 C 15 11.083334 14.620244 10.268559 14.039062 9.7519531 C 13.45788 9.2353472 12.722222 9 12 9 z M 12 11 C 12.277778 11 12.542119 11.09799 12.710938 11.248047 C 12.879755 11.398107 13 11.583334 13 12 C 13 12.416666 12.879756 12.601893 12.710938 12.751953 C 12.542118 12.902014 12.277778 13 12 13 C 11.722222 13 11.45788 12.902014 11.289062 12.751953 C 11.120243 12.601893 11 12.416666 11 12 C 11 11.583334 11.120244 11.398107 11.289062 11.248047 C 11.45788 11.097986 11.722222 11 12 11 z M 18.933594 15.001953 A 1 1 0 0 0 18.804688 15.019531 A 1 1 0 0 0 18.167969 15.445312 L 16.167969 18.445312 A 1.0001 1.0001 0 0 0 17 20 L 19.130859 20 L 18.167969 21.445312 A 1 1 0 0 0 18.445312 22.832031 A 1 1 0 0 0 19.832031 22.554688 L 21.832031 19.554688 A 1.0001 1.0001 0 0 0 21 18 L 18.869141 18 L 19.832031 16.554688 A 1 1 0 0 0 19.554688 15.167969 A 1 1 0 0 0 18.933594 15.001953 z " fill="currentColor"/>
</svg>
