<svg xmlns="http://www.w3.org/2000/svg" width="1em" height="1em" viewBox="0 0 24 24" fill="currentColor">
  <path d="M 12 5 C 8.0296296 5 4.6560698 7.2971754 2.1425781 11.486328 A 1.0001 1.0001 0 0 0 2.1425781 12.515625 C 4.4673541 16.38711 7.5069428 18.652099 11.105469 18.962891 A 1 1 0 0 0 12.1875 18.052734 A 1 1 0 0 0 11.277344 16.96875 C 8.5535982 16.73351 6.2559602 15.136563 4.2265625 12.001953 C 6.4286912 8.5944531 8.9376542 7 12 7 C 14.983847 7 17.436075 8.4517702 19.613281 11.681641 A 1 1 0 0 0 21 11.951172 A 1 1 0 0 0 21.271484 10.5625 C 18.844691 6.96237 15.668153 5 12 5 z M 12 9 C 11.277778 9 10.542119 9.2353472 9.9609375 9.7519531 C 9.3797556 10.268559 9 11.083334 9 12 C 9 12.916666 9.3797556 13.731441 9.9609375 14.248047 C 10.542119 14.764653 11.277778 15 12 15 C 12.722222 15 13.45788 14.764653 14.039062 14.248047 C 14.620243 13.731441 15 12.916666 15 12 C 15 11.083334 14.620244 10.268559 14.039062 9.7519531 C 13.45788 9.2353472 12.722222 9 12 9 z M 12 11 C 12.277778 11 12.542119 11.09799 12.710938 11.248047 C 12.879755 11.398107 13 11.583334 13 12 C 13 12.416666 12.879756 12.601893 12.710938 12.751953 C 12.542118 12.902014 12.277778 13 12 13 C 11.722222 13 11.45788 12.902014 11.289062 12.751953 C 11.120243 12.601893 11 12.416666 11 12 C 11 11.583334 11.120244 11.398107 11.289062 11.248047 C 11.45788 11.097986 11.722222 11 12 11 z M 19.753906 13.962891 C 19.042537 14.000813 18.304213 14.314534 17.716797 14.900391 L 17.714844 14.900391 L 17.714844 14.902344 L 17.712891 14.902344 A 1 1 0 0 0 17.712891 14.904297 L 14.296875 18.289062 A 1.0001 1.0001 0 0 0 14 19 L 14 22 A 1.0001 1.0001 0 0 0 15 23 L 18 23 A 1.0001 1.0001 0 0 0 18.710938 22.703125 L 22.097656 19.287109 L 22.099609 19.283203 C 22.769159 18.61187 23.08417 17.743391 23.037109 16.943359 C 22.989969 16.142036 22.626041 15.430729 22.097656 14.902344 C 21.569271 14.373959 20.857964 14.010027 20.056641 13.962891 C 19.956637 13.957008 19.85553 13.957473 19.753906 13.962891 z M 19.845703 15.957031 C 19.876968 15.956345 19.908134 15.957142 19.939453 15.958984 C 20.190005 15.973724 20.469479 16.102291 20.683594 16.316406 C 20.897709 16.530521 21.026277 16.809996 21.041016 17.060547 C 21.055756 17.311098 21.001816 17.554824 20.683594 17.873047 A 1.0001 1.0001 0 0 0 20.679688 17.876953 L 17.583984 21 L 16 21 L 16 19.416016 L 19.123047 16.320312 A 1 1 0 0 0 19.123047 16.316406 A 1 1 0 0 0 19.126953 16.316406 C 19.405398 16.037961 19.626852 15.961833 19.845703 15.957031 z " fill="currentColor"/>
</svg>
