<svg xmlns="http://www.w3.org/2000/svg" width="1em" height="1em" viewBox="0 0 24 24" fill="currentColor">
  <path d="M 3 2 A 1 1 0 0 0 2.2929688 2.2929688 A 1 1 0 0 0 2.2929688 3.7070312 L 4.4082031 5.8222656 L 2.0429688 13.712891 A 1 1 0 0 0 2.0410156 13.71875 A 1.0001 1.0001 0 0 0 2.015625 13.833984 A 1 1 0 0 0 2.0136719 13.845703 A 1.0001 1.0001 0 0 0 2 14 L 2 16.5 C 2 17.916666 2.5672556 19.106441 3.4296875 19.873047 C 4.2921194 20.639653 5.4027779 21 6.5 21 C 7.5972221 21 8.7078806 20.639653 9.5703125 19.873047 C 10.329222 19.19846 10.860178 18.196197 10.976562 17 L 13.027344 17 C 13.354447 19.95194 16.549583 21.775243 19.238281 20.652344 L 20.292969 21.707031 A 1 1 0 0 0 21.707031 21.707031 A 1 1 0 0 0 21.707031 20.292969 L 20.183594 18.769531 A 1 1 0 0 0 20.078125 18.664062 L 14.716797 13.302734 A 1 1 0 0 0 14.697266 13.283203 L 3.7070312 2.2929688 A 1 1 0 0 0 3 2 z M 16 3 A 1 1 0 0 0 15 4 A 1 1 0 0 0 16 5 L 17.255859 5 L 19.65625 13 L 18 13 A 1 1 0 0 0 17 14 A 1 1 0 0 0 18 15 L 20 15 L 20 16.5 C 20 16.614537 19.992496 16.726323 19.978516 16.832031 A 1 1 0 0 0 20.837891 17.955078 A 1 1 0 0 0 21.960938 17.09375 C 21.986933 16.897458 22 16.699463 22 16.5 L 22 14 A 1.0001 1.0001 0 0 0 21.986328 13.839844 A 1 1 0 0 0 21.984375 13.833984 A 1.0001 1.0001 0 0 0 21.957031 13.712891 L 18.957031 3.7128906 A 1.0001 1.0001 0 0 0 18 3 L 16 3 z M 6.015625 7.4296875 L 13 14.414062 L 13 15 L 11 15 L 11 14 A 1.0001 1.0001 0 0 0 10 13 L 4.34375 13 L 6.015625 7.4296875 z M 4 15 L 9 15 L 9 16.5 C 9 17.416666 8.6922556 17.976893 8.2421875 18.376953 C 7.7921194 18.777013 7.1527779 19 6.5 19 C 5.8472221 19 5.2078806 18.777013 4.7578125 18.376953 C 4.3077444 17.976893 4 17.416666 4 16.5 L 4 15 z M 15 16.414062 L 17.607422 19.021484 C 16.254682 19.105468 14.99974 18.057 15 16.5 L 15 16.414062 z " fill="currentColor"/>
</svg>
