<svg xmlns="http://www.w3.org/2000/svg" width="1em" height="1em" viewBox="0 0 24 24" fill="currentColor">
  <path d="M 6 3 C 4.3549904 3 3 4.3549904 3 6 L 3 8 A 1 1 0 0 0 4 9 A 1 1 0 0 0 5 8 L 5 6 C 5 5.4358706 5.4358706 5 6 5 L 8 5 A 1 1 0 0 0 9 4 A 1 1 0 0 0 8 3 L 6 3 z M 16 3 A 1 1 0 0 0 15 4 A 1 1 0 0 0 16 5 L 18 5 C 18.564129 5 19 5.4358706 19 6 L 19 8 A 1 1 0 0 0 20 9 A 1 1 0 0 0 21 8 L 21 6 C 21 4.3549904 19.64501 3 18 3 L 16 3 z M 9 9 A 1 1 0 0 0 8 10 A 1 1 0 0 0 9 11 L 9.0097656 11 A 1 1 0 0 0 10.009766 10 A 1 1 0 0 0 9.0097656 9 L 9 9 z M 15 9 A 1 1 0 0 0 14 10 A 1 1 0 0 0 15 11 L 15.009766 11 A 1 1 0 0 0 16.009766 10 A 1 1 0 0 0 15.009766 9 L 15 9 z M 12 13.005859 C 10.831772 13.005859 9.6629855 13.453679 8.7851562 14.349609 A 1 1 0 0 0 8.8007812 15.763672 A 1 1 0 0 0 10.214844 15.75 C 11.203947 14.740501 12.796053 14.740501 13.785156 15.75 A 1 1 0 0 0 15.199219 15.763672 A 1 1 0 0 0 15.214844 14.349609 C 14.337009 13.453681 13.168228 13.005859 12 13.005859 z M 4 15 A 1 1 0 0 0 3 16 L 3 18 C 3 19.64501 4.3549904 21 6 21 L 8 21 A 1 1 0 0 0 9 20 A 1 1 0 0 0 8 19 L 6 19 C 5.4358706 19 5 18.564129 5 18 L 5 16 A 1 1 0 0 0 4 15 z M 20 15 A 1 1 0 0 0 19 16 L 19 18 C 19 18.564129 18.564129 19 18 19 L 16 19 A 1 1 0 0 0 15 20 A 1 1 0 0 0 16 21 L 18 21 C 19.64501 21 21 19.64501 21 18 L 21 16 A 1 1 0 0 0 20 15 z " fill="currentColor"/>
</svg>
