<svg xmlns="http://www.w3.org/2000/svg" width="1em" height="1em" viewBox="0 0 24 24" fill="currentColor">
  <path d="M 12 4.0820312 C 11.722671 4.0820312 11.445342 4.1201636 11.175781 4.1972656 L 6.1757812 5.625 C 4.8931199 5.9918769 4.0005927 7.1737142 4 8.5078125 A 1.0001 1.0001 0 0 0 4 8.5097656 L 4 8.5761719 C 2.3260296 8.9063263 1 10.278941 1 12 C 1 13.721059 2.3260296 15.093674 4 15.423828 L 4 15.490234 C 3.9999256 16.82488 4.8925939 18.007972 6.1757812 18.375 L 11.175781 19.804688 C 11.714903 19.958892 12.285097 19.958892 12.824219 19.804688 L 17.824219 18.375 C 19.107406 18.007975 20.000074 16.82488 20 15.490234 L 20 15.423828 C 21.673562 15.093691 23 13.72141 23 12 C 23 10.27859 21.673562 8.9063089 20 8.5761719 L 20 8.5097656 C 20.000074 7.1751199 19.107406 5.9920276 17.824219 5.625 L 12.824219 4.1972656 C 12.554658 4.1201636 12.277329 4.0820312 12 4.0820312 z M 12 6.0800781 C 12.092746 6.0800781 12.185492 6.0934271 12.275391 6.1191406 L 17.275391 7.5488281 C 17.708933 7.6728334 18.000025 8.0588373 18 8.5097656 L 18 9.5 L 18 14.5 L 18 15.490234 C 18.000025 15.941163 17.708933 16.32912 17.275391 16.453125 L 12.275391 17.880859 C 12.095594 17.932289 11.904406 17.932289 11.724609 17.880859 L 6.7246094 16.453125 C 6.291067 16.32912 5.9999749 15.941163 6 15.490234 L 6 14.5 L 6 9.5 L 6 8.5097656 C 6.0002002 8.0590313 6.2912534 7.67278 6.7246094 7.5488281 L 11.724609 6.1191406 C 11.814508 6.0934271 11.907254 6.0800781 12 6.0800781 z M 9 9 A 1 1 0 0 0 8 10 A 1 1 0 0 0 9 11 L 15 11 A 1 1 0 0 0 16 10 A 1 1 0 0 0 15 9 L 9 9 z M 4 10.646484 L 4 13.353516 C 3.3858522 13.103646 3 12.567205 3 12 C 3 11.432795 3.3858522 10.896354 4 10.646484 z M 20 10.646484 C 20.613689 10.896567 21 11.433321 21 12 C 21 12.566679 20.613689 13.103433 20 13.353516 L 20 10.646484 z M 9 13 A 1 1 0 0 0 8 14 A 1 1 0 0 0 9 15 L 15 15 A 1 1 0 0 0 16 14 A 1 1 0 0 0 15 13 L 9 13 z " fill="currentColor"/>
</svg>
