<svg xmlns="http://www.w3.org/2000/svg" width="1em" height="1em" viewBox="0 0 24 24" fill="currentColor">
  <path d="M 3 2 A 1 1 0 0 0 2.2929688 2.2929688 A 1 1 0 0 0 2.2929688 3.7070312 L 5 6.4140625 L 5 11 L 4 11 A 1.0001 1.0001 0 0 0 3 12 L 3 16 A 1.0001 1.0001 0 0 0 4 17 L 5 17 L 5 20 A 1.0001 1.0001 0 0 0 6 21 L 10 21 A 1.0001 1.0001 0 0 0 11 20 L 11 17 L 13 17 L 13 20 A 1.0001 1.0001 0 0 0 14 21 L 18 21 A 1.0001 1.0001 0 0 0 18.935547 20.349609 L 20.292969 21.707031 A 1 1 0 0 0 21.707031 21.707031 A 1 1 0 0 0 21.707031 20.292969 L 18.716797 17.302734 A 1 1 0 0 0 18.697266 17.283203 L 16.716797 15.302734 A 1 1 0 0 0 16.697266 15.283203 L 12.716797 11.302734 A 1 1 0 0 0 12.697266 11.283203 L 10.716797 9.3027344 A 1 1 0 0 0 10.697266 9.2832031 L 6.7167969 5.3027344 A 1 1 0 0 0 6.6972656 5.2832031 L 3.7070312 2.2929688 A 1 1 0 0 0 3 2 z M 8 3 A 1 1 0 0 0 7.2929688 3.2929688 A 1 1 0 0 0 7.2929688 4.7070312 L 9.2929688 6.7070312 A 1 1 0 0 0 10.707031 6.7070312 A 1 1 0 0 0 10.707031 5.2929688 L 8.7070312 3.2929688 A 1 1 0 0 0 8 3 z M 16 3 A 1.0001 1.0001 0 0 0 15.292969 3.2929688 L 13.292969 5.2929688 A 1.0001 1.0001 0 0 0 13 6 L 13 10 A 1 1 0 0 0 14 11 A 1 1 0 0 0 15 10 L 15 6.4140625 L 16 5.4140625 L 17 6.4140625 L 17 11 L 16 11 A 1 1 0 0 0 15 12 A 1 1 0 0 0 16 13 L 19 13 L 19 16 A 1 1 0 0 0 20 17 A 1 1 0 0 0 21 16 L 21 12 A 1.0001 1.0001 0 0 0 20 11 L 19 11 L 19 6 A 1.0001 1.0001 0 0 0 18.707031 5.2929688 L 16.707031 3.2929688 A 1.0001 1.0001 0 0 0 16 3 z M 7 8.4140625 L 9 10.414062 L 9 11 L 7 11 L 7 8.4140625 z M 5 13 L 11.585938 13 L 13.585938 15 L 5 15 L 5 13 z M 7 17 L 9 17 L 9 19 L 7 19 L 7 17 z M 15 17 L 15.585938 17 L 17 18.414062 L 17 19 L 15 19 L 15 17 z " fill="currentColor"/>
</svg>
