<svg xmlns="http://www.w3.org/2000/svg" width="1em" height="1em" viewBox="0 0 24 24" fill="currentColor">
  <path d="M 7 2 C 5.3549904 2 4 3.3549904 4 5 L 4 11 A 1 1 0 0 0 5 12 A 1 1 0 0 0 6 11 L 6 5 C 6 4.4358706 6.4358706 4 7 4 L 13 4 L 13 7 C 13 8.0927249 13.907275 9 15 9 L 18 9 L 18 19 C 18 19.564129 17.564129 20 17 20 L 7.5 20 A 1 1 0 0 0 6.5 21 A 1 1 0 0 0 7.5 22 L 17 22 C 18.64501 22 20 20.64501 20 19 L 20 8 A 1.0001 1.0001 0 0 0 19.964844 7.7363281 A 1 1 0 0 0 19.927734 7.6289062 A 1.0001 1.0001 0 0 0 19.921875 7.6113281 A 1 1 0 0 0 19.865234 7.5 A 1.0001 1.0001 0 0 0 19.861328 7.4921875 A 1 1 0 0 0 19.792969 7.390625 A 1.0001 1.0001 0 0 0 19.785156 7.3808594 A 1 1 0 0 0 19.707031 7.2929688 L 19.697266 7.2832031 L 14.716797 2.3027344 A 1 1 0 0 0 14.658203 2.25 A 1.0001 1.0001 0 0 0 14.619141 2.2148438 A 1 1 0 0 0 14.560547 2.1757812 A 1.0001 1.0001 0 0 0 14.507812 2.1386719 A 1 1 0 0 0 14.5 2.1347656 A 1.0001 1.0001 0 0 0 14.388672 2.078125 A 1 1 0 0 0 14.382812 2.0761719 A 1.0001 1.0001 0 0 0 14.371094 2.0722656 A 1 1 0 0 0 14.263672 2.0351562 A 1.0001 1.0001 0 0 0 14 2 L 7 2 z M 15 5.4140625 L 16.585938 7 L 15 7 L 15 5.4140625 z M 9 10 A 1 1 0 0 0 8.2929688 10.292969 A 1 1 0 0 0 8.2929688 11.707031 L 9.5859375 13 L 7 13 C 4.8027056 13 3 14.802706 3 17 L 3 21 A 1 1 0 0 0 4 22 A 1 1 0 0 0 5 21 L 5 17 C 5 15.883586 5.8835859 15 7 15 L 9.5859375 15 L 8.2929688 16.292969 A 1 1 0 0 0 8.2929688 17.707031 A 1 1 0 0 0 9.7070312 17.707031 L 12.697266 14.716797 A 1 1 0 0 0 12.707031 14.707031 A 1.0001 1.0001 0 0 0 12.785156 14.619141 A 1 1 0 0 0 12.792969 14.609375 A 1.0001 1.0001 0 0 0 12.861328 14.507812 A 1 1 0 0 0 12.865234 14.5 A 1.0001 1.0001 0 0 0 12.921875 14.388672 A 1 1 0 0 0 12.964844 14.257812 A 1.0001 1.0001 0 0 0 12.964844 13.742188 A 1 1 0 0 0 12.923828 13.617188 A 1.0001 1.0001 0 0 0 12.921875 13.611328 A 1 1 0 0 0 12.865234 13.5 A 1.0001 1.0001 0 0 0 12.861328 13.492188 A 1 1 0 0 0 12.792969 13.390625 A 1.0001 1.0001 0 0 0 12.785156 13.380859 A 1 1 0 0 0 12.707031 13.292969 L 9.7070312 10.292969 A 1 1 0 0 0 9 10 z " fill="currentColor"/>
</svg>
