<svg xmlns="http://www.w3.org/2000/svg" width="1em" height="1em" viewBox="0 0 24 24" fill="currentColor">
  <path d="M 7 2 C 5.3549904 2 4 3.3549904 4 5 L 4 12 A 1 1 0 0 0 5 13 A 1 1 0 0 0 6 12 L 6 5 C 6 4.4358706 6.4358706 4 7 4 L 13 4 L 13 7 C 13 8.0927249 13.907275 9 15 9 L 18 9 L 18 12 A 1 1 0 0 0 19 13 A 1 1 0 0 0 20 12 L 20 8 A 1.0001 1.0001 0 0 0 19.964844 7.7363281 A 1 1 0 0 0 19.927734 7.6289062 A 1.0001 1.0001 0 0 0 19.921875 7.6113281 A 1 1 0 0 0 19.865234 7.5 A 1.0001 1.0001 0 0 0 19.861328 7.4921875 A 1 1 0 0 0 19.792969 7.390625 A 1.0001 1.0001 0 0 0 19.785156 7.3808594 A 1 1 0 0 0 19.707031 7.2929688 L 14.716797 2.3027344 A 1 1 0 0 0 14.658203 2.25 A 1.0001 1.0001 0 0 0 14.619141 2.2148438 A 1 1 0 0 0 14.560547 2.1757812 A 1.0001 1.0001 0 0 0 14.507812 2.1386719 A 1 1 0 0 0 14.5 2.1347656 A 1.0001 1.0001 0 0 0 14.388672 2.078125 A 1 1 0 0 0 14.382812 2.0761719 A 1.0001 1.0001 0 0 0 14.371094 2.0722656 A 1 1 0 0 0 14.263672 2.0351562 A 1.0001 1.0001 0 0 0 14 2 L 7 2 z M 15 5.4140625 L 16.585938 7 L 15 7 L 15 5.4140625 z M 11 14 A 1 1 0 0 0 10 15 L 10 21 A 1.0001 1.0001 0 0 0 11 22 L 14 22 A 1 1 0 0 0 15 21 A 1 1 0 0 0 14 20 L 12 20 L 12 15 A 1 1 0 0 0 11 14 z M 18 14 C 16.907275 14 16 14.907275 16 16 L 16 17 C 16 18.092725 16.907275 19 18 19 L 19 19 L 19 20 L 17.75 20 A 1 1 0 0 0 17 19.25 A 1 1 0 0 0 16 20.25 C 16 21.205063 16.794937 22 17.75 22 L 19 22 C 20.092725 22 21 21.092725 21 20 L 21 19 C 21 17.907275 20.092725 17 19 17 L 18 17 L 18 16 L 19.25 16 A 1 1 0 0 0 20 16.75 A 1 1 0 0 0 21 15.75 C 21 14.795346 20.204654 14 19.25 14 L 18 14 z M 3.9355469 14.001953 A 1 1 0 0 0 3.4453125 14.167969 A 1 1 0 0 0 3.1679688 15.554688 L 4.7988281 18 L 3.1679688 20.445312 A 1 1 0 0 0 3.4453125 21.832031 A 1 1 0 0 0 4.8320312 21.554688 L 6 19.802734 L 7.1679688 21.554688 A 1 1 0 0 0 8.5546875 21.832031 A 1 1 0 0 0 8.8320312 20.445312 L 7.2011719 18 L 8.8320312 15.554688 A 1 1 0 0 0 8.5546875 14.167969 A 1 1 0 0 0 7.1679688 14.445312 L 6 16.197266 L 4.8320312 14.445312 A 1 1 0 0 0 3.9355469 14.001953 z " fill="currentColor"/>
</svg>
