<svg xmlns="http://www.w3.org/2000/svg" width="1em" height="1em" viewBox="0 0 24 24" fill="currentColor">
  <path d="M 7 2 C 5.3549904 2 4 3.3549904 4 5 L 4 19 C 4 20.64501 5.3549904 22 7 22 L 9.5 22 A 1 1 0 0 0 10.5 21 A 1 1 0 0 0 9.5 20 L 7 20 C 6.4358706 20 6 19.564129 6 19 L 6 5 C 6 4.4358706 6.4358706 4 7 4 L 13 4 L 13 7 C 13 8.0927249 13.907275 9 15 9 L 18 9 L 18 14 A 1 1 0 0 0 19 15 A 1 1 0 0 0 20 14 L 20 8 A 1.0001 1.0001 0 0 0 19.964844 7.7363281 A 1 1 0 0 0 19.927734 7.6289062 A 1.0001 1.0001 0 0 0 19.921875 7.6113281 A 1 1 0 0 0 19.865234 7.5 A 1.0001 1.0001 0 0 0 19.861328 7.4921875 A 1 1 0 0 0 19.792969 7.390625 A 1.0001 1.0001 0 0 0 19.785156 7.3808594 A 1 1 0 0 0 19.707031 7.2929688 L 19.697266 7.2832031 L 14.716797 2.3027344 A 1 1 0 0 0 14.658203 2.25 A 1.0001 1.0001 0 0 0 14.619141 2.2148438 A 1 1 0 0 0 14.560547 2.1757812 A 1.0001 1.0001 0 0 0 14.507812 2.1386719 A 1 1 0 0 0 14.5 2.1347656 A 1.0001 1.0001 0 0 0 14.388672 2.078125 A 1 1 0 0 0 14.382812 2.0761719 A 1.0001 1.0001 0 0 0 14.371094 2.0722656 A 1 1 0 0 0 14.263672 2.0351562 A 1.0001 1.0001 0 0 0 14 2 L 7 2 z M 15 5.4140625 L 16.585938 7 L 15 7 L 15 5.4140625 z M 19.923828 16.003906 C 19.146392 16.003906 18.368985 16.288197 17.769531 16.859375 A 1 1 0 0 0 17.759766 16.867188 L 17 17.607422 L 16.236328 16.865234 A 1 1 0 0 0 16.148438 16.789062 C 15.560503 16.266364 14.816192 16.005859 14.072266 16.005859 C 13.29483 16.005859 12.517423 16.29015 11.917969 16.861328 C 10.705472 18.014014 10.705839 19.980552 11.916016 21.134766 C 13.02195 22.199221 14.701093 22.168939 15.900391 21.265625 C 15.912361 21.277345 15.993841 21.361618 15.994141 21.361328 C 15.999241 21.356428 16.000153 21.355216 16.001953 21.353516 L 16.003906 21.353516 L 16.003906 21.351562 C 16.007406 21.348263 16.027553 21.329659 16.033203 21.324219 C 16.067503 21.291049 16.129873 21.23003 16.230469 21.132812 L 16.373047 20.996094 C 16.390927 20.978814 16.418567 20.952166 16.429688 20.941406 C 16.446448 20.925236 16.455384 20.915569 16.458984 20.912109 L 16.460938 20.910156 L 16.462891 20.910156 L 16.462891 20.908203 L 16.464844 20.908203 L 16.464844 20.90625 L 16.466797 20.90625 L 16.466797 20.904297 L 16.46875 20.904297 L 16.46875 20.902344 L 17 20.390625 L 17.519531 20.892578 C 17.528831 20.901878 17.52913 20.902277 17.53125 20.904297 C 17.53385 20.906897 17.539949 20.911062 17.542969 20.914062 L 17.544922 20.916016 L 17.544922 20.917969 L 17.546875 20.919922 C 17.552675 20.925522 17.556876 20.92822 17.566406 20.9375 L 17.636719 21.007812 C 17.672819 21.042783 17.699199 21.068472 17.763672 21.130859 L 17.765625 21.130859 A 1.0001 1.0001 0 0 0 17.765625 21.132812 C 17.852765 21.216832 17.90207 21.260888 17.939453 21.296875 C 17.945453 21.302675 17.961857 21.319469 17.966797 21.324219 C 17.975697 21.332719 17.978765 21.336407 17.984375 21.341797 C 17.984995 21.342399 17.989734 21.347156 17.990234 21.347656 L 18 21.357422 C 18 21.357422 18.0822 21.275302 18.09375 21.263672 C 19.291679 22.167914 20.972486 22.198866 22.080078 21.132812 C 23.290301 19.9786 23.290669 18.012061 22.078125 16.859375 C 21.478671 16.288197 20.701264 16.003906 19.923828 16.003906 z M 14.070312 17.994141 C 14.34724 17.994141 14.625144 18.100391 14.845703 18.310547 A 1 1 0 0 0 14.927734 18.378906 L 15.5625 19 L 15.080078 19.466797 L 15.078125 19.464844 L 15.076172 19.466797 L 15.076172 19.46875 L 15.074219 19.46875 L 15.074219 19.470703 L 15.072266 19.472656 L 15.070312 19.474609 C 15.064412 19.480309 15.056426 19.487093 15.041016 19.501953 C 15.004846 19.536923 14.930229 19.60794 14.841797 19.693359 C 14.839997 19.695059 14.839691 19.695566 14.837891 19.697266 C 14.416927 20.100126 13.720291 20.100349 13.300781 19.695312 A 1.0001 1.0001 0 0 0 13.296875 19.689453 C 12.892507 19.305032 12.892507 18.694968 13.296875 18.310547 C 13.517434 18.100391 13.793385 17.994141 14.070312 17.994141 z M 19.925781 17.994141 C 20.202709 17.994141 20.47866 18.098438 20.699219 18.308594 C 21.103587 18.693015 21.103587 19.303079 20.699219 19.6875 A 1.0001 1.0001 0 0 0 20.695312 19.693359 C 20.276497 20.09768 19.570779 20.0945 19.15625 19.693359 L 19.154297 19.693359 L 19.154297 19.691406 C 19.055537 19.595836 18.992504 19.534461 18.958984 19.501953 C 18.946724 19.490063 18.94172 19.486532 18.9375 19.482422 L 18.933594 19.478516 C 18.933169 19.478102 18.929688 19.474609 18.929688 19.474609 L 18.925781 19.470703 C 18.921881 19.466903 18.928683 19.474108 18.908203 19.455078 C 18.893083 19.441038 18.861328 19.412109 18.861328 19.412109 L 18.435547 19 L 19.099609 18.353516 A 1 1 0 0 0 19.150391 18.308594 C 19.37095 18.098438 19.648854 17.994141 19.925781 17.994141 z " fill="currentColor"/>
</svg>
