<svg xmlns="http://www.w3.org/2000/svg" width="1em" height="1em" viewBox="0 0 24 24" fill="currentColor">
  <path d="M 7 2 C 5.3549904 2 4 3.3549904 4 5 L 4 12 A 1 1 0 0 0 5 13 A 1 1 0 0 0 6 12 L 6 5 C 6 4.4358706 6.4358706 4 7 4 L 13 4 L 13 7 C 13 8.0927249 13.907275 9 15 9 L 18 9 L 18 12 A 1 1 0 0 0 19 13 A 1 1 0 0 0 20 12 L 20 8 A 1.0001 1.0001 0 0 0 19.964844 7.7363281 A 1 1 0 0 0 19.927734 7.6289062 A 1.0001 1.0001 0 0 0 19.921875 7.6113281 A 1 1 0 0 0 19.865234 7.5 A 1.0001 1.0001 0 0 0 19.861328 7.4921875 A 1 1 0 0 0 19.792969 7.390625 A 1.0001 1.0001 0 0 0 19.785156 7.3808594 A 1 1 0 0 0 19.707031 7.2929688 L 14.716797 2.3027344 A 1 1 0 0 0 14.658203 2.25 A 1.0001 1.0001 0 0 0 14.619141 2.2148438 A 1 1 0 0 0 14.560547 2.1757812 A 1.0001 1.0001 0 0 0 14.507812 2.1386719 A 1 1 0 0 0 14.5 2.1347656 A 1.0001 1.0001 0 0 0 14.388672 2.078125 A 1 1 0 0 0 14.382812 2.0761719 A 1.0001 1.0001 0 0 0 14.371094 2.0722656 A 1 1 0 0 0 14.263672 2.0351562 A 1.0001 1.0001 0 0 0 14 2 L 7 2 z M 15 5.4140625 L 16.585938 7 L 15 7 L 15 5.4140625 z M 5 14 A 1 1 0 0 0 4 15 A 1 1 0 0 0 5 16 L 6.3828125 16 L 4.1054688 20.552734 A 1.0001 1.0001 0 0 0 5 22 L 8 22 A 1 1 0 0 0 9 21 A 1 1 0 0 0 8 20 L 6.6171875 20 L 8.8945312 15.447266 A 1.0001 1.0001 0 0 0 8 14 L 5 14 z M 12 14 A 1 1 0 0 0 11 15 L 11 21 A 1 1 0 0 0 12 22 A 1 1 0 0 0 13 21 L 13 15 A 1 1 0 0 0 12 14 z M 16 14 A 1.0001 1.0001 0 0 0 15 15 L 15 18 L 15 21 A 1 1 0 0 0 16 22 A 1 1 0 0 0 17 21 L 17 19 L 17.5 19 C 18.25 19 18.939774 18.682744 19.373047 18.195312 C 19.806319 17.707881 20 17.097222 20 16.5 C 20 15.902778 19.806319 15.292119 19.373047 14.804688 C 18.939774 14.317255 18.25 14 17.5 14 L 16 14 z M 17 16 L 17.5 16 C 17.75 16 17.810226 16.05774 17.876953 16.132812 C 17.94368 16.207881 18 16.347222 18 16.5 C 18 16.652778 17.94368 16.792119 17.876953 16.867188 C 17.810226 16.942256 17.75 17 17.5 17 L 17 17 L 17 16 z " fill="currentColor"/>
</svg>
