<svg xmlns="http://www.w3.org/2000/svg" width="1em" height="1em" viewBox="0 0 24 24" fill="currentColor">
  <path d="M 7 2 C 5.3549904 2 4 3.3549904 4 5 L 4 19 C 4 20.64501 5.3549904 22 7 22 L 17 22 C 18.64501 22 20 20.64501 20 19 L 20 8 A 1.0001 1.0001 0 0 0 19.964844 7.7363281 A 1 1 0 0 0 19.927734 7.6289062 A 1.0001 1.0001 0 0 0 19.921875 7.6113281 A 1 1 0 0 0 19.865234 7.5 A 1.0001 1.0001 0 0 0 19.861328 7.4921875 A 1 1 0 0 0 19.792969 7.390625 A 1.0001 1.0001 0 0 0 19.785156 7.3808594 A 1 1 0 0 0 19.707031 7.2929688 L 14.716797 2.3027344 A 1 1 0 0 0 14.658203 2.25 A 1.0001 1.0001 0 0 0 14.619141 2.2148438 A 1 1 0 0 0 14.560547 2.1757812 A 1.0001 1.0001 0 0 0 14.507812 2.1386719 A 1 1 0 0 0 14.5 2.1347656 A 1.0001 1.0001 0 0 0 14.388672 2.078125 A 1 1 0 0 0 14.382812 2.0761719 A 1.0001 1.0001 0 0 0 14.371094 2.0722656 A 1 1 0 0 0 14.263672 2.0351562 A 1.0001 1.0001 0 0 0 14 2 L 7 2 z M 7 4 L 13 4 L 13 7 C 13 8.0927249 13.907275 9 15 9 L 18 9 L 18 19 C 18 19.564129 17.564129 20 17 20 L 7 20 C 6.4358706 20 6 19.564129 6 19 L 6 5 C 6 4.4358706 6.4358706 4 7 4 z M 15 5.4140625 L 16.585938 7 L 15 7 L 15 5.4140625 z M 12.056641 10.001953 A 1.0001 1.0001 0 0 0 11 11 L 11 14 C 10.527778 14 10.042119 14.152014 9.6484375 14.501953 C 9.2547556 14.851892 9 15.416667 9 16 C 9 16.583333 9.2547556 17.148108 9.6484375 17.498047 C 10.042119 17.847986 10.527778 18 11 18 C 11.472222 18 11.95788 17.847986 12.351562 17.498047 C 12.715528 17.174521 12.957242 16.666538 12.992188 16.130859 A 1 1 0 0 0 13 16 L 13 12.617188 L 13.552734 12.894531 A 1 1 0 0 0 14.894531 12.447266 A 1 1 0 0 0 14.447266 11.105469 L 12.447266 10.105469 A 1.0001 1.0001 0 0 0 12.056641 10.001953 z " fill="currentColor"/>
</svg>
