<svg xmlns="http://www.w3.org/2000/svg" width="1em" height="1em" viewBox="0 0 24 24" fill="currentColor">
  <path d="M 7 2 C 5.3549904 2 4 3.3549904 4 5 L 4 19 C 4 20.64501 5.3549904 22 7 22 L 17 22 C 18.64501 22 20 20.64501 20 19 L 20 8 A 1.0001 1.0001 0 0 0 19.964844 7.7363281 A 1 1 0 0 0 19.927734 7.6289062 A 1.0001 1.0001 0 0 0 19.921875 7.6113281 A 1 1 0 0 0 19.865234 7.5 A 1.0001 1.0001 0 0 0 19.861328 7.4921875 A 1 1 0 0 0 19.792969 7.390625 A 1.0001 1.0001 0 0 0 19.785156 7.3808594 A 1 1 0 0 0 19.707031 7.2929688 L 14.716797 2.3027344 A 1 1 0 0 0 14.658203 2.25 A 1.0001 1.0001 0 0 0 14.619141 2.2148438 A 1 1 0 0 0 14.560547 2.1757812 A 1.0001 1.0001 0 0 0 14.507812 2.1386719 A 1 1 0 0 0 14.5 2.1347656 A 1.0001 1.0001 0 0 0 14.388672 2.078125 A 1 1 0 0 0 14.382812 2.0761719 A 1.0001 1.0001 0 0 0 14.371094 2.0722656 A 1 1 0 0 0 14.263672 2.0351562 A 1.0001 1.0001 0 0 0 14 2 L 7 2 z M 7 4 L 13 4 L 13 7 C 13 8.0927249 13.907275 9 15 9 L 18 9 L 18 19 C 18 19.564129 17.564129 20 17 20 L 7 20 C 6.4358706 20 6 19.564129 6 19 L 6 5 C 6 4.4358706 6.4358706 4 7 4 z M 15 5.4140625 L 16.585938 7 L 15 7 L 15 5.4140625 z M 13.882812 9.5644531 C 13.322311 9.5955106 12.739315 9.8466223 12.292969 10.292969 L 7.2929688 15.292969 A 1.0001 1.0001 0 0 0 7 16 L 7 18 A 1.0001 1.0001 0 0 0 8 19 L 10 19 A 1 1 0 0 0 10.707031 18.707031 L 15.707031 13.707031 C 16.217141 13.196921 16.47258 12.508459 16.435547 11.878906 C 16.398517 11.249354 16.114166 10.700104 15.707031 10.292969 C 15.299896 9.8858337 14.750646 9.6014858 14.121094 9.5644531 C 14.0424 9.559824 13.962884 9.5600163 13.882812 9.5644531 z M 13.947266 11.558594 C 13.966559 11.557309 13.984211 11.559388 14.003906 11.560547 C 14.082686 11.565147 14.200104 11.614167 14.292969 11.707031 C 14.385829 11.799891 14.434819 11.917313 14.439453 11.996094 C 14.444053 12.074874 14.449523 12.136412 14.292969 12.292969 L 9.5859375 17 L 9 17 L 9 16.414062 L 13.707031 11.707031 C 13.824449 11.589614 13.889384 11.562448 13.947266 11.558594 z " fill="currentColor"/>
</svg>
