<svg xmlns="http://www.w3.org/2000/svg" width="1em" height="1em" viewBox="0 0 24 24" fill="currentColor">
  <path d="M 6 2 C 4.3549904 2 3 3.3549904 3 5 L 3 19 C 3 20.64501 4.3549904 22 6 22 L 11 22 A 1 1 0 0 0 12 21 A 1 1 0 0 0 11 20 L 6 20 C 5.4358706 20 5 19.564129 5 19 L 5 5 C 5 4.4358706 5.4358706 4 6 4 L 12 4 L 12 6.9960938 C 11.996698 8.0916357 12.908364 9.0033015 14.003906 9 L 17 9 L 17 11.5 A 1 1 0 0 0 18 12.5 A 1 1 0 0 0 19 11.5 L 19 8 A 1.0001 1.0001 0 0 0 18.964844 7.7363281 A 1 1 0 0 0 18.927734 7.6289062 A 1.0001 1.0001 0 0 0 18.921875 7.6113281 A 1 1 0 0 0 18.865234 7.5 A 1.0001 1.0001 0 0 0 18.861328 7.4921875 A 1 1 0 0 0 18.792969 7.390625 A 1.0001 1.0001 0 0 0 18.785156 7.3808594 A 1 1 0 0 0 18.707031 7.2929688 L 13.716797 2.3027344 A 1 1 0 0 0 13.658203 2.25 A 1.0001 1.0001 0 0 0 13.619141 2.2148438 A 1 1 0 0 0 13.560547 2.1757812 A 1.0001 1.0001 0 0 0 13.507812 2.1386719 A 1 1 0 0 0 13.5 2.1347656 A 1.0001 1.0001 0 0 0 13.388672 2.078125 A 1 1 0 0 0 13.382812 2.0761719 A 1.0001 1.0001 0 0 0 13.371094 2.0722656 A 1 1 0 0 0 13.263672 2.0351562 A 1.0001 1.0001 0 0 0 13 2 L 6 2 z M 14 5.4140625 L 15.585938 7 L 14 7 L 14 5.4140625 z M 8 8 A 1 1 0 0 0 7 9 A 1 1 0 0 0 8 10 L 9 10 A 1 1 0 0 0 10 9 A 1 1 0 0 0 9 8 L 8 8 z M 8 11.994141 A 1 1 0 0 0 7 12.994141 A 1 1 0 0 0 8 13.994141 L 11 13.994141 A 1 1 0 0 0 12 12.994141 A 1 1 0 0 0 11 11.994141 L 8 11.994141 z M 17.5 13.494141 A 1.0001 1.0001 0 0 0 16.792969 13.787109 C 16.028671 14.551407 14.666667 14.994141 14 14.994141 A 1.0001 1.0001 0 0 0 13 15.994141 C 13 18.202474 13.696219 19.923083 14.574219 21.09375 C 15.013219 21.679083 15.494889 22.130056 15.976562 22.451172 C 16.458236 22.772287 16.916667 22.994141 17.5 22.994141 C 18.083333 22.994141 18.541764 22.772287 19.023438 22.451172 C 19.505112 22.130056 19.986781 21.679083 20.425781 21.09375 C 21.303781 19.923083 22 18.202474 22 15.994141 A 1 1 0 0 0 21 14.994141 C 20.333333 14.994141 18.971329 14.551407 18.207031 13.787109 A 1.0001 1.0001 0 0 0 17.5 13.494141 z M 17.5 15.666016 C 18.267708 16.23762 19.061123 16.597546 19.880859 16.767578 C 19.738002 18.117889 19.342098 19.204026 18.824219 19.894531 C 18.513219 20.309198 18.182389 20.608225 17.914062 20.787109 C 17.723958 20.913846 17.553558 20.965367 17.5 20.984375 C 17.446443 20.965367 17.276044 20.913845 17.085938 20.787109 C 16.817612 20.608225 16.486781 20.309198 16.175781 19.894531 C 15.657902 19.204026 15.261998 18.117889 15.119141 16.767578 C 15.938877 16.597546 16.732292 16.23762 17.5 15.666016 z M 8 15.996094 A 1 1 0 0 0 7 16.996094 A 1 1 0 0 0 8 17.996094 L 10 17.996094 A 1 1 0 0 0 11 16.996094 A 1 1 0 0 0 10 15.996094 L 8 15.996094 z " fill="currentColor"/>
</svg>
