<svg xmlns="http://www.w3.org/2000/svg" width="1em" height="1em" viewBox="0 0 24 24" fill="currentColor">
  <path d="M 7 2 C 5.3549904 2 4 3.3549904 4 5 L 4 12 A 1 1 0 0 0 5 13 A 1 1 0 0 0 6 12 L 6 5 C 6 4.4358706 6.4358706 4 7 4 L 13 4 L 13 7 C 13 8.0927249 13.907275 9 15 9 L 18 9 L 18 12 A 1 1 0 0 0 19 13 A 1 1 0 0 0 20 12 L 20 8 A 1.0001 1.0001 0 0 0 19.964844 7.7363281 A 1 1 0 0 0 19.927734 7.6289062 A 1.0001 1.0001 0 0 0 19.921875 7.6113281 A 1 1 0 0 0 19.865234 7.5 A 1.0001 1.0001 0 0 0 19.861328 7.4921875 A 1 1 0 0 0 19.792969 7.390625 A 1.0001 1.0001 0 0 0 19.785156 7.3808594 A 1 1 0 0 0 19.707031 7.2929688 L 14.716797 2.3027344 A 1 1 0 0 0 14.658203 2.25 A 1.0001 1.0001 0 0 0 14.619141 2.2148438 A 1 1 0 0 0 14.560547 2.1757812 A 1.0001 1.0001 0 0 0 14.507812 2.1386719 A 1 1 0 0 0 14.5 2.1347656 A 1.0001 1.0001 0 0 0 14.388672 2.078125 A 1 1 0 0 0 14.382812 2.0761719 A 1.0001 1.0001 0 0 0 14.371094 2.0722656 A 1 1 0 0 0 14.263672 2.0351562 A 1.0001 1.0001 0 0 0 14 2 L 7 2 z M 15 5.4140625 L 16.585938 7 L 15 7 L 15 5.4140625 z M 19 14 A 1 1 0 0 0 18 15 L 18 21 A 1.0001 1.0001 0 0 0 19 22 L 22 22 A 1 1 0 0 0 23 21 A 1 1 0 0 0 22 20 L 20 20 L 20 15 A 1 1 0 0 0 19 14 z M 3.9355469 14.001953 A 1 1 0 0 0 3.4453125 14.167969 A 1 1 0 0 0 3.1679688 15.554688 L 4.7988281 18 L 3.1679688 20.445312 A 1 1 0 0 0 3.4453125 21.832031 A 1 1 0 0 0 4.8320312 21.554688 L 6 19.802734 L 7.1679688 21.554688 A 1 1 0 0 0 8.5546875 21.832031 A 1 1 0 0 0 8.8320312 20.445312 L 7.2011719 18 L 8.8320312 15.554688 A 1 1 0 0 0 8.5546875 14.167969 A 1 1 0 0 0 7.1679688 14.445312 L 6 16.197266 L 4.8320312 14.445312 A 1 1 0 0 0 3.9355469 14.001953 z M 11.060547 14.001953 A 1.0001 1.0001 0 0 0 10.660156 14.060547 A 1.0001 1.0001 0 0 0 10 15 L 10 21 A 1 1 0 0 0 11 22 A 1 1 0 0 0 12 21 L 12 17.761719 L 12.732422 18.640625 A 1.0001 1.0001 0 0 0 14.267578 18.640625 L 15 17.761719 L 15 21 A 1 1 0 0 0 16 22 A 1 1 0 0 0 17 21 L 17 15 A 1.0001 1.0001 0 0 0 15.232422 14.359375 L 13.5 16.4375 L 11.767578 14.359375 A 1.0001 1.0001 0 0 0 11.060547 14.001953 z " fill="currentColor"/>
</svg>
