<svg xmlns="http://www.w3.org/2000/svg" width="1em" height="1em" viewBox="0 0 24 24" fill="currentColor">
  <path d="M 7 2 C 5.3549904 2 4 3.3549904 4 5 L 4 19 C 4 20.64501 5.3549904 22 7 22 L 17 22 C 18.64501 22 20 20.64501 20 19 L 20 8 A 1.0001 1.0001 0 0 0 19.964844 7.7363281 A 1 1 0 0 0 19.927734 7.6289062 A 1.0001 1.0001 0 0 0 19.921875 7.6113281 A 1 1 0 0 0 19.865234 7.5 A 1.0001 1.0001 0 0 0 19.861328 7.4921875 A 1 1 0 0 0 19.792969 7.390625 A 1.0001 1.0001 0 0 0 19.785156 7.3808594 A 1 1 0 0 0 19.707031 7.2929688 L 14.716797 2.3027344 A 1 1 0 0 0 14.658203 2.25 A 1.0001 1.0001 0 0 0 14.619141 2.2148438 A 1 1 0 0 0 14.560547 2.1757812 A 1.0001 1.0001 0 0 0 14.507812 2.1386719 A 1 1 0 0 0 14.5 2.1347656 A 1.0001 1.0001 0 0 0 14.388672 2.078125 A 1 1 0 0 0 14.382812 2.0761719 A 1.0001 1.0001 0 0 0 14.371094 2.0722656 A 1 1 0 0 0 14.263672 2.0351562 A 1.0001 1.0001 0 0 0 14 2 L 7 2 z M 7 4 L 13 4 L 13 7 C 13 8.0927249 13.907275 9 15 9 L 18 9 L 18 19 C 18 19.564129 17.564129 20 17 20 L 7 20 C 6.4358706 20 6 19.564129 6 19 L 6 5 C 6 4.4358706 6.4358706 4 7 4 z M 15 5.4140625 L 16.585938 7 L 15 7 L 15 5.4140625 z M 14.5 10 C 13.902778 10 13.292119 10.193681 12.804688 10.626953 C 12.547046 10.855968 12.336145 11.156645 12.195312 11.5 L 12 11.5 C 10.370411 11.5 8.9878069 12.635043 8.6054688 14.152344 C 8.3195594 14.25496 8.0465988 14.411921 7.8046875 14.626953 C 7.3172556 15.060226 7 15.75 7 16.5 C 7 17.25 7.3172556 17.939774 7.8046875 18.373047 C 8.2921194 18.806319 8.9027779 19 9.5 19 C 10.097222 19 10.707881 18.806319 11.195312 18.373047 C 11.682743 17.939774 12 17.25 12 16.5 C 12 15.75 11.682744 15.060226 11.195312 14.626953 C 11.035384 14.484795 10.86132 14.367586 10.679688 14.275391 C 10.931569 13.809415 11.423766 13.5 12 13.5 L 12.195312 13.5 C 12.336145 13.843355 12.547046 14.144032 12.804688 14.373047 C 13.292118 14.806319 13.902778 15 14.5 15 C 15.097222 15 15.707881 14.806319 16.195312 14.373047 C 16.682744 13.939774 17 13.25 17 12.5 C 17 11.75 16.682744 11.060226 16.195312 10.626953 C 15.707881 10.193681 15.097222 10 14.5 10 z M 14.5 12 C 14.652778 12 14.792119 12.05632 14.867188 12.123047 C 14.942255 12.189774 15 12.25 15 12.5 C 15 12.75 14.942259 12.810226 14.867188 12.876953 C 14.792118 12.94368 14.652778 13 14.5 13 C 14.347222 13 14.20788 12.94368 14.132812 12.876953 C 14.057743 12.810226 14 12.75 14 12.5 C 14 12.25 14.057744 12.189774 14.132812 12.123047 C 14.20788 12.05632 14.347222 12 14.5 12 z M 9.5 16 C 9.6527779 16 9.7921194 16.05632 9.8671875 16.123047 C 9.9422556 16.189774 10 16.25 10 16.5 C 10 16.75 9.9422556 16.810226 9.8671875 16.876953 C 9.7921194 16.94368 9.6527779 17 9.5 17 C 9.3472221 17 9.2078806 16.94368 9.1328125 16.876953 C 9.0577444 16.810226 9 16.75 9 16.5 C 9 16.25 9.0577444 16.189774 9.1328125 16.123047 C 9.2078806 16.05632 9.3472221 16 9.5 16 z " fill="currentColor"/>
</svg>
