<svg xmlns="http://www.w3.org/2000/svg" width="1em" height="1em" viewBox="0 0 24 24" fill="currentColor">
  <path d="M 4 3 A 1.0001 1.0001 0 0 0 3 4 L 3 6.2265625 C 3.0000797 6.9723767 3.2776571 7.6922381 3.7792969 8.2441406 L 8 12.886719 L 8 21 A 1.0001 1.0001 0 0 0 9.3164062 21.949219 L 11.357422 21.269531 A 1 1 0 0 0 11.990234 20.003906 A 1 1 0 0 0 10.726562 19.371094 L 10 19.613281 L 10 12.5 A 1.0001 1.0001 0 0 0 9.7402344 11.828125 L 5.2597656 6.8984375 C 5.0923002 6.7141926 5.0000266 6.4755421 5 6.2265625 L 5 5 L 19 5 L 19 6.171875 C 18.999943 6.4374538 18.894852 6.691142 18.707031 6.8789062 L 14.292969 11.292969 A 1 1 0 0 0 14.292969 12.707031 A 1 1 0 0 0 15.707031 12.707031 L 20.121094 8.2929688 C 20.68347 7.730762 20.99983 6.9670754 21 6.171875 L 21 4 A 1.0001 1.0001 0 0 0 20 3 L 4 3 z M 17.800781 13.042969 C 17.298499 13.042969 16.794578 13.285127 16.552734 13.771484 A 1.0001 1.0001 0 0 0 16.552734 13.773438 L 15.699219 15.496094 L 13.796875 15.771484 C 12.714916 15.921349 12.238116 17.387297 13.023438 18.146484 L 14.400391 19.484375 L 14.074219 21.375 A 1.0001 1.0001 0 0 0 14.072266 21.386719 C 13.900355 22.455046 15.129997 23.341367 16.089844 22.841797 A 1.0001 1.0001 0 0 0 16.091797 22.839844 L 17.800781 21.945312 L 19.503906 22.837891 C 20.467028 23.348584 21.709159 22.447253 21.523438 21.373047 L 21.525391 21.375 L 21.199219 19.484375 L 22.578125 18.144531 A 1.0001 1.0001 0 0 0 22.580078 18.142578 C 23.357847 17.382769 22.884212 15.927618 21.808594 15.771484 L 21.806641 15.771484 L 19.900391 15.496094 L 19.046875 13.773438 A 1.0001 1.0001 0 0 0 19.046875 13.771484 C 18.805031 13.285127 18.303064 13.042969 17.800781 13.042969 z M 17.800781 15.761719 L 18.341797 16.853516 A 1.0001 1.0001 0 0 0 19.09375 17.400391 L 20.294922 17.574219 L 19.427734 18.416016 A 1.0001 1.0001 0 0 0 19.138672 19.302734 L 19.34375 20.496094 L 18.263672 19.931641 A 1 1 0 0 0 17.396484 19.951172 A 1 1 0 0 0 17.335938 19.931641 L 16.255859 20.498047 L 16.460938 19.302734 A 1.0001 1.0001 0 0 0 16.171875 18.416016 L 15.304688 17.574219 L 16.505859 17.400391 A 1.0001 1.0001 0 0 0 17.259766 16.853516 L 17.800781 15.761719 z " fill="currentColor"/>
</svg>
