<svg xmlns="http://www.w3.org/2000/svg" width="1em" height="1em" viewBox="0 0 24 24" fill="currentColor">
  <path d="M 4 5 A 1 1 0 0 0 3 6 A 1 1 0 0 0 4 7 L 20 7 A 1 1 0 0 0 21 6 A 1 1 0 0 0 20 5 L 4 5 z M 6 11 A 1 1 0 0 0 5 12 A 1 1 0 0 0 6 13 L 18 13 A 1 1 0 0 0 19 12 A 1 1 0 0 0 18 11 L 6 11 z M 17 16 A 1 1 0 0 0 16 17 L 16 22 A 1 1 0 0 0 17 23 A 1 1 0 0 0 18 22 L 18 17 A 1 1 0 0 0 17 16 z M 21 16 A 1 1 0 0 0 20 17 L 20 22 A 1 1 0 0 0 21 23 A 1 1 0 0 0 22 22 L 22 17 A 1 1 0 0 0 21 16 z M 9 17 A 1 1 0 0 0 8 18 A 1 1 0 0 0 9 19 L 13 19 A 1 1 0 0 0 14 18 A 1 1 0 0 0 13 17 L 9 17 z " fill="currentColor"/>
</svg>
