<svg xmlns="http://www.w3.org/2000/svg" width="1em" height="1em" viewBox="0 0 24 24" fill="currentColor">
  <path d="M 4 5 A 1 1 0 0 0 3 6 A 1 1 0 0 0 4 7 L 20 7 A 1 1 0 0 0 21 6 A 1 1 0 0 0 20 5 L 4 5 z M 6 11 A 1 1 0 0 0 5 12 A 1 1 0 0 0 6 13 L 18 13 A 1 1 0 0 0 19 12 A 1 1 0 0 0 18 11 L 6 11 z M 17 16 A 1 1 0 0 0 16.292969 16.292969 A 1 1 0 0 0 16.292969 17.707031 L 18.085938 19.5 L 16.292969 21.292969 A 1 1 0 0 0 16.292969 22.707031 A 1 1 0 0 0 17.707031 22.707031 L 19.5 20.914062 L 21.292969 22.707031 A 1 1 0 0 0 22.707031 22.707031 A 1 1 0 0 0 22.707031 21.292969 L 20.914062 19.5 L 22.707031 17.707031 A 1 1 0 0 0 22.707031 16.292969 A 1 1 0 0 0 21.292969 16.292969 L 19.5 18.085938 L 17.707031 16.292969 A 1 1 0 0 0 17 16 z M 9 17 A 1 1 0 0 0 8 18 A 1 1 0 0 0 9 19 L 13 19 A 1 1 0 0 0 14 18 A 1 1 0 0 0 13 17 L 9 17 z " fill="currentColor"/>
</svg>
