<svg xmlns="http://www.w3.org/2000/svg" width="1em" height="1em" viewBox="0 0 24 24" fill="currentColor">
  <path d="M 4 5 A 1 1 0 0 0 3 6 A 1 1 0 0 0 4 7 L 20 7 A 1 1 0 0 0 21 6 A 1 1 0 0 0 20 5 L 4 5 z M 6 11 A 1 1 0 0 0 5 12 A 1 1 0 0 0 6 13 L 18 13 A 1 1 0 0 0 19 12 A 1 1 0 0 0 18 11 L 6 11 z M 19.001953 14.5 A 1 1 0 0 0 18.001953 15.5 L 18.001953 16.414062 C 17.706407 16.528899 17.387983 16.567966 17.140625 16.771484 L 16.46875 16.384766 A 1 1 0 0 0 15.103516 16.75 A 1 1 0 0 0 15.470703 18.115234 L 16.195312 18.533203 C 16.165405 18.70334 16.001953 18.82496 16.001953 19 C 16.001953 19.17504 16.165405 19.29666 16.195312 19.466797 L 15.470703 19.884766 A 1 1 0 0 0 15.103516 21.25 A 1 1 0 0 0 16.46875 21.615234 L 17.140625 21.228516 C 17.387983 21.432034 17.706407 21.471103 18.001953 21.585938 L 18.001953 22.5 A 1 1 0 0 0 19.001953 23.5 A 1 1 0 0 0 20.001953 22.5 L 20.001953 21.585938 C 20.297499 21.471103 20.615924 21.432034 20.863281 21.228516 L 21.533203 21.615234 A 1 1 0 0 0 22.898438 21.25 A 1 1 0 0 0 22.533203 19.884766 L 21.808594 19.466797 C 21.838502 19.29666 22.001953 19.17504 22.001953 19 C 22.001953 18.82496 21.838502 18.70334 21.808594 18.533203 L 22.53125 18.115234 A 1 1 0 0 0 22.898438 16.75 A 1 1 0 0 0 21.53125 16.384766 L 20.863281 16.771484 C 20.615924 16.567966 20.297499 16.528899 20.001953 16.414062 L 20.001953 15.5 A 1 1 0 0 0 19.001953 14.5 z M 9 17 A 1 1 0 0 0 8 18 A 1 1 0 0 0 9 19 L 12 19 A 1 1 0 0 0 13 18 A 1 1 0 0 0 12 17 L 9 17 z M 19.001953 18 C 19.266544 18 19.519336 18.105273 19.707031 18.292969 C 19.894727 18.480664 20.001953 18.735409 20.001953 19 C 20.001953 19.264591 19.894727 19.519336 19.707031 19.707031 C 19.519336 19.894727 19.266544 20 19.001953 20 C 18.737362 20 18.482617 19.894727 18.294922 19.707031 C 18.107227 19.519336 18.001953 19.264591 18.001953 19 C 18.001953 18.735409 18.107227 18.480664 18.294922 18.292969 C 18.482617 18.105273 18.737362 18 19.001953 18 z " fill="currentColor"/>
</svg>
