<svg xmlns="http://www.w3.org/2000/svg" width="1em" height="1em" viewBox="0 0 24 24" fill="currentColor">
  <path d="M 4 5 A 1 1 0 0 0 3 6 A 1 1 0 0 0 4 7 L 20 7 A 1 1 0 0 0 21 6 A 1 1 0 0 0 20 5 L 4 5 z M 6 11 A 1 1 0 0 0 5 12 A 1 1 0 0 0 6 13 L 16.5 13 A 1 1 0 0 0 17.5 12 A 1 1 0 0 0 16.5 11 L 6 11 z M 18.923828 14.001953 C 18.757334 14.006879 18.590653 14.025469 18.425781 14.058594 C 17.767697 14.190812 17.171374 14.541364 16.736328 15.054688 A 1 1 0 0 0 16.853516 16.464844 A 1 1 0 0 0 18.263672 16.347656 C 18.406626 16.17898 18.602397 16.063313 18.820312 16.019531 C 19.036827 15.976031 19.259971 16.006422 19.457031 16.107422 C 19.655096 16.210652 19.813648 16.37695 19.90625 16.580078 C 19.99922 16.784011 20.020348 17.012453 19.96875 17.230469 C 19.91531 17.449785 19.791361 17.646056 19.615234 17.785156 C 19.438572 17.92468 19.221303 17.999502 18.998047 18 A 1 1 0 0 0 18 19.001953 A 1 1 0 0 0 19.001953 20 C 19.674697 19.9985 20.328131 19.769993 20.855469 19.353516 C 21.383342 18.936615 21.753552 18.355762 21.912109 17.705078 A 1.0001 1.0001 0 0 0 21.914062 17.701172 C 22.071274 17.048373 22.005042 16.362807 21.726562 15.751953 C 21.447557 15.139941 20.969808 14.638954 20.373047 14.330078 A 1.0001 1.0001 0 0 0 20.371094 14.328125 C 19.921889 14.09788 19.423311 13.987174 18.923828 14.001953 z M 9 17 A 1 1 0 0 0 8 18 A 1 1 0 0 0 9 19 L 14 19 A 1 1 0 0 0 15 18 A 1 1 0 0 0 14 17 L 9 17 z M 19 21 A 1 1 0 0 0 18 22 L 18 22.009766 A 1 1 0 0 0 19 23.009766 A 1 1 0 0 0 20 22.009766 L 20 22 A 1 1 0 0 0 19 21 z " fill="currentColor"/>
</svg>
