<svg xmlns="http://www.w3.org/2000/svg" width="1em" height="1em" viewBox="0 0 24 24" fill="currentColor">
  <path d="M 12 2 C 10.527778 2 9.0421194 2.4853474 7.8984375 3.5019531 C 6.7547556 4.5185588 6 6.0833339 6 8 C 6 8.7758916 6.1491246 9.5191302 6.4199219 10.201172 C 4.1789518 10.790706 2.6357889 12.603786 2.1601562 14.623047 C 1.5796482 17.087547 2.5586805 19.987753 5.3203125 21.367188 C 7.7636435 22.587631 10.320105 21.976335 12 20.472656 C 14.840858 23.014466 19.573818 22.271522 21.367188 18.681641 C 23.095154 15.222682 21.070357 11.168652 17.576172 10.210938 C 17.849381 9.5262738 18 8.7795224 18 8 C 18 6.0833339 17.245244 4.5185588 16.101562 3.5019531 C 14.957881 2.4853474 13.472222 2 12 2 z M 12 4 C 13.027778 4 14.042119 4.3479866 14.773438 4.9980469 C 15.504755 5.6481071 16 6.5833342 16 8 C 16 8.8692745 15.726599 9.6705169 15.261719 10.324219 A 1 1 0 0 0 15.144531 10.482422 C 14.427336 11.392069 13.322269 11.979035 12.070312 12 A 1 1 0 0 0 11.925781 12 C 10.675741 11.977659 9.5717739 11.390941 8.8554688 10.482422 A 1 1 0 0 0 8.7382812 10.324219 C 8.2734005 9.6705168 8 8.8692748 8 8 C 8 6.5833342 8.4952444 5.6481071 9.2265625 4.9980469 C 9.9578806 4.3479866 10.972222 4 12 4 z M 7.5546875 12.019531 C 8.5398507 13.107532 9.9164695 13.834889 11.457031 13.974609 C 12.463197 15.615008 12.099966 17.328372 11.072266 18.560547 C 9.9653446 19.887704 8.1703779 20.555889 6.2128906 19.578125 C 4.2554034 18.600361 3.7111953 16.76418 4.1074219 15.082031 C 4.475991 13.5173 5.6321466 12.196329 7.5546875 12.019531 z M 16.443359 12.023438 C 19.197451 12.308688 20.858026 15.225067 19.578125 17.787109 C 18.33446 20.276617 15.153923 20.748548 13.248047 18.910156 C 14.080289 17.415032 14.301716 15.540658 13.587891 13.785156 C 14.701352 13.477908 15.687451 12.857272 16.443359 12.023438 z " fill="currentColor"/>
</svg>
