<svg xmlns="http://www.w3.org/2000/svg" width="1em" height="1em" viewBox="0 0 24 24" fill="currentColor">
  <path d="M 5 2 C 3.3549904 2 2 3.3549904 2 5 L 2 19 C 2 20.64501 3.3549904 22 5 22 L 6 22 A 1 1 0 0 0 7 21 A 1 1 0 0 0 6 20 L 5 20 C 4.4358706 20 4 19.564129 4 19 L 4 16 L 8 16 A 1 1 0 0 0 9 17 A 1 1 0 0 0 10 16 A 1 1 0 0 0 11 15 A 1 1 0 0 0 10 14 L 10 10 L 14 10 A 1 1 0 0 0 15 11 A 1 1 0 0 0 16 10 L 21 10 A 1 1 0 0 0 22 9 L 22 5 C 22 3.3549904 20.64501 2 19 2 L 15 2 L 5 2 z M 5 4 L 8 4 L 8 8 L 4 8 L 4 5 C 4 4.4358706 4.4358706 4 5 4 z M 10 4 L 14 4 L 14 8 L 10 8 L 10 4 z M 16 4 L 19 4 C 19.564129 4 20 4.4358706 20 5 L 20 8 L 16 8 L 16 4 z M 4 10 L 8 10 L 8 14 L 4 14 L 4 10 z M 17.976562 12 A 1.0001 1.0001 0 0 0 17 13 L 17 15 C 17 15.283083 16.9602 15.439421 16.931641 15.53125 L 16.929688 15.53125 C 16.892598 15.511442 16.602116 15.495631 16.013672 15.142578 A 1 1 0 0 0 15.482422 15.275391 A 1 1 0 0 0 14.945312 15.167969 C 14.945312 15.167969 13 16.333333 13 18.5 C 13 20.288444 13.84508 22.057847 15.560547 22.898438 A 1.0001 1.0001 0 0 0 17 22 L 17 21.75 C 17 21.638271 17.07647 21.458985 17.285156 21.285156 C 17.493847 21.111327 17.805627 21 18 21 C 18.194373 21 18.506153 21.111327 18.714844 21.285156 C 18.923534 21.458985 19 21.638271 19 21.75 L 19 22 A 1.0001 1.0001 0 0 0 20.439453 22.898438 C 22.274982 21.999015 23 19.924016 23 18 C 23 15.691591 21.769814 14.10808 20.603516 13.224609 C 19.437217 12.341138 18.255859 12.033203 18.255859 12.033203 A 1.0001 1.0001 0 0 0 17.976562 12 z M 19 14.615234 C 19.187258 14.722174 19.196379 14.668734 19.396484 14.820312 C 20.230186 15.451841 21 16.368409 21 18 C 21 18.8644 20.732606 19.593609 20.363281 20.191406 C 20.239759 20.042132 20.139563 19.86755 19.996094 19.748047 C 19.441534 19.286126 18.752627 19 18 19 C 17.247373 19 16.558466 19.286126 16.003906 19.748047 C 15.832764 19.8906 15.707519 20.092822 15.566406 20.277344 C 15.223675 19.795678 15 19.225938 15 18.5 C 15 17.950652 15.382925 17.498499 15.695312 17.1875 C 16.373469 17.509057 17.040913 17.709807 17.746094 17.427734 C 18.221231 17.23768 18.58755 16.816832 18.767578 16.384766 C 18.947606 15.952699 19 15.5 19 15 L 19 14.615234 z " fill="currentColor"/>
</svg>
