<svg xmlns="http://www.w3.org/2000/svg" width="1em" height="1em" viewBox="0 0 24 24" fill="currentColor">
  <path d="M 12 2 C 10.527778 2 9.0421194 2.4853474 7.8984375 3.5019531 C 6.9606929 4.3355035 6.2834537 5.5375844 6.0703125 7 L 6 7 A 1 1 0 0 0 5 8 A 1 1 0 0 0 6 9 L 6 11 C 4.9072751 11 4 11.907275 4 13 L 4 15 C 4 16.092725 4.9072751 17 6 17 L 6 20 L 5 20 A 1 1 0 0 0 4 21 A 1 1 0 0 0 5 22 L 19 22 A 1 1 0 0 0 20 21 A 1 1 0 0 0 19 20 L 18 20 L 18 17 C 19.092725 17 20 16.092725 20 15 L 20 13 C 20 11.907275 19.092725 11 18 11 L 18 9 A 1 1 0 0 0 19 8 A 1 1 0 0 0 18 7 L 17.929688 7 C 17.716546 5.5375844 17.039307 4.3355035 16.101562 3.5019531 C 14.957881 2.4853474 13.472222 2 12 2 z M 12 4 C 13.027778 4 14.042119 4.3479866 14.773438 4.9980469 C 15.316845 5.4810756 15.729855 6.1215525 15.90625 7 L 8.09375 7 C 8.2701453 6.1215525 8.6831549 5.4810756 9.2265625 4.9980469 C 9.9578806 4.3479866 10.972222 4 12 4 z M 8 9 L 16 9 L 16 12 A 1.0001 1.0001 0 0 0 17 13 L 18 13 L 18 15 L 17 15 A 1.0001 1.0001 0 0 0 16 16 L 16 20 L 8 20 L 8 16 A 1.0001 1.0001 0 0 0 7 15 L 6 15 L 6 13 L 7 13 A 1.0001 1.0001 0 0 0 8 12 L 8 9 z M 12 11 C 11.277778 11 10.542119 11.235347 9.9609375 11.751953 C 9.3797556 12.268559 9 13.083334 9 14 C 9 14.916666 9.3797556 15.731441 9.9609375 16.248047 C 10.542119 16.764653 11.277778 17 12 17 C 12.722222 17 13.45788 16.764653 14.039062 16.248047 C 14.620243 15.731441 15 14.916666 15 14 C 15 13.083334 14.620244 12.268559 14.039062 11.751953 C 13.45788 11.235347 12.722222 11 12 11 z M 12 13 C 12.277778 13 12.542119 13.09799 12.710938 13.248047 C 12.879755 13.398107 13 13.583334 13 14 C 13 14.416666 12.879756 14.601893 12.710938 14.751953 C 12.542118 14.902014 12.277778 15 12 15 C 11.722222 15 11.45788 14.902014 11.289062 14.751953 C 11.120243 14.601893 11 14.416666 11 14 C 11 13.583334 11.120244 13.398107 11.289062 13.248047 C 11.45788 13.097986 11.722222 13 12 13 z " fill="currentColor"/>
</svg>
