<svg xmlns="http://www.w3.org/2000/svg" width="1em" height="1em" viewBox="0 0 24 24" fill="currentColor">
  <path d="M 16.615234 6.4433594 A 1 1 0 0 0 16.447266 6.5273438 A 1 1 0 0 0 16.117188 6.6933594 A 1 1 0 0 0 15.931641 6.7871094 C 14.902484 7.9817663 14.256686 9.44967 14.0625 11 L 12 11 L 12 8 A 1 1 0 0 0 11 7 A 1 1 0 0 0 10 8 L 10 11 L 8 11 L 8 10 A 1 1 0 0 0 7 9 A 1 1 0 0 0 6 10 L 6 11 L 4.8164062 11 C 4.1003849 10.306281 3.4098213 9.5853418 2.7480469 8.8398438 A 1 1 0 0 0 2.0585938 8.5058594 A 1 1 0 0 0 1.3359375 8.7558594 A 1 1 0 0 0 1.2519531 10.167969 C 1.8182949 10.805961 2.4269881 11.403884 3.03125 12.005859 C 2.4261895 12.606606 1.8181773 13.204091 1.2519531 13.841797 A 1 1 0 0 0 1.3359375 15.253906 A 1 1 0 0 0 2.7480469 15.169922 C 3.4138942 14.420012 4.1079869 13.695931 4.8300781 13 L 6 13 L 6 14 A 1 1 0 0 0 7 15 A 1 1 0 0 0 8 14 L 8 13 L 10 13 L 10 16 A 1 1 0 0 0 11 17 A 1 1 0 0 0 12 16 L 12 13 L 14.0625 13 C 14.257391 14.555733 14.90786 16.027769 15.943359 17.224609 A 1.0001 1.0001 0 0 0 17.035156 17.511719 C 19.200439 16.737919 21.135953 15.06998 22.828125 12.566406 A 1.0001 1.0001 0 0 0 22.828125 11.445312 C 21.220427 9.069055 19.376651 7.5070452 17.341797 6.6875 A 1 1 0 0 0 17.341797 6.6816406 A 1 1 0 0 0 17.322266 6.6757812 C 17.217982 6.6340876 17.128806 6.5355132 17.023438 6.4980469 A 1 1 0 0 0 16.814453 6.5078125 A 1 1 0 0 0 16.615234 6.4433594 z M 17.035156 8.7890625 C 18.288718 9.3959164 19.510992 10.434859 20.685547 12.005859 C 19.513585 13.575117 18.29534 14.614869 17.044922 15.222656 C 16.41583 14.25601 15.998234 13.167044 16 12.001953 A 1 1 0 0 0 16 12 A 1 1 0 0 0 16 11.998047 C 15.9985 10.838537 16.411743 9.7528192 17.035156 8.7890625 z M 18 10 A 1 1 0 0 0 17 11 L 17 11.009766 A 1 1 0 0 0 18 12.009766 A 1 1 0 0 0 19 11.009766 L 19 11 A 1 1 0 0 0 18 10 z " fill="currentColor"/>
</svg>
