<svg xmlns="http://www.w3.org/2000/svg" width="1em" height="1em" viewBox="0 0 24 24" fill="currentColor">
  <path d="M 8.5 2.5761719 C 6.9812794 2.5761719 5.46334 3.1456207 4.3007812 4.2851562 A 1.0001 1.0001 0 0 0 4 5 L 4 14 L 4 21 A 1 1 0 0 0 5 22 A 1 1 0 0 0 6 21 L 6 14.447266 C 7.5658517 13.188083 9.8343665 13.277469 11.300781 14.714844 C 12.283877 15.680566 13.571029 16.277968 14.943359 16.404297 A 1 1 0 0 0 16.03125 15.5 A 1 1 0 0 0 15.126953 14.412109 C 14.212664 14.327949 13.35587 13.930832 12.701172 13.287109 A 1.0001 1.0001 0 0 0 12.699219 13.285156 C 10.876762 11.498792 8.2009239 11.163649 6 12.177734 L 6 5.5175781 C 7.5664466 4.2378195 9.8267657 4.2700192 11.300781 5.7148438 C 13.123285 7.5012552 15.799076 7.8363512 18 6.8222656 L 18 12 A 1 1 0 0 0 19 13 A 1 1 0 0 0 20 12 L 20 5 A 1.0001 1.0001 0 0 0 18.300781 4.2851562 C 16.737464 5.817514 14.262536 5.817514 12.699219 4.2851562 C 11.53666 3.1456207 10.018721 2.5761719 8.5 2.5761719 z M 19 15 A 1 1 0 0 0 18 16 L 18 19 A 1 1 0 0 0 19 20 A 1 1 0 0 0 20 19 L 20 16 A 1 1 0 0 0 19 15 z M 19 21 A 1 1 0 0 0 18 22 L 18 22.009766 A 1 1 0 0 0 19 23.009766 A 1 1 0 0 0 20 22.009766 L 20 22 A 1 1 0 0 0 19 21 z " fill="currentColor"/>
</svg>
