<svg xmlns="http://www.w3.org/2000/svg" width="1em" height="1em" viewBox="0 0 24 24" fill="currentColor">
  <path d="M 8.5 2.5761719 C 6.9812794 2.5761719 5.46334 3.1456207 4.3007812 4.2851562 A 1.0001 1.0001 0 0 0 4 5 L 4 14 L 4 21 A 1 1 0 0 0 5 22 A 1 1 0 0 0 6 21 L 6 14.447266 C 7.5658517 13.188083 9.8343665 13.277469 11.300781 14.714844 A 1 1 0 0 0 12.714844 14.699219 A 1 1 0 0 0 12.699219 13.285156 C 10.87672 11.49875 8.2009239 11.163649 6 12.177734 L 6 5.5175781 C 7.5664466 4.2378195 9.8267657 4.2700192 11.300781 5.7148438 C 13.123285 7.5012552 15.799076 7.8363512 18 6.8222656 L 18 11 A 1 1 0 0 0 19 12 A 1 1 0 0 0 20 11 L 20 5 A 1.0001 1.0001 0 0 0 18.300781 4.2851562 C 16.737464 5.817514 14.262536 5.817514 12.699219 4.2851562 C 11.53666 3.1456207 10.018721 2.5761719 8.5 2.5761719 z M 18 14 C 17.027778 14 16.042119 14.318681 15.273438 15.001953 C 14.504755 15.685226 14 16.75 14 18 C 14 19.25 14.504756 20.314774 15.273438 20.998047 C 16.042119 21.681319 17.027778 22 18 22 C 18.709147 22 19.424566 21.829573 20.058594 21.472656 L 21.292969 22.707031 A 1 1 0 0 0 22.707031 22.707031 A 1 1 0 0 0 22.707031 21.292969 L 21.476562 20.0625 C 21.806482 19.477109 22 18.77405 22 18 C 22 16.75 21.495244 15.685226 20.726562 15.001953 C 19.957881 14.318681 18.972222 14 18 14 z M 18 16 C 18.527778 16 19.042119 16.18132 19.398438 16.498047 C 19.754756 16.814774 20 17.250001 20 18 C 20 18.749999 19.754756 19.185226 19.398438 19.501953 C 19.042119 19.81868 18.527778 20 18 20 C 17.472222 20 16.957881 19.81868 16.601562 19.501953 C 16.245244 19.185226 16 18.749999 16 18 C 16 17.250001 16.245244 16.814774 16.601562 16.498047 C 16.957881 16.18132 17.472222 16 18 16 z " fill="currentColor"/>
</svg>
