<svg xmlns="http://www.w3.org/2000/svg" width="1em" height="1em" viewBox="0 0 24 24" fill="currentColor">
  <path d="M 8.5 2.5761719 C 6.9812794 2.5761719 5.46334 3.1456207 4.3007812 4.2851562 A 1.0001 1.0001 0 0 0 4 5 L 4 14 L 4 21 A 1 1 0 0 0 5 22 A 1 1 0 0 0 6 21 L 6 14.447266 C 7.5658517 13.188083 9.8343665 13.277469 11.300781 14.714844 C 11.595009 15.003399 11.916822 15.259869 12.263672 15.482422 A 1 1 0 0 0 13.646484 15.181641 A 1 1 0 0 0 13.34375 13.798828 C 13.112132 13.650213 12.895697 13.477847 12.699219 13.285156 C 10.876715 11.498745 8.2009239 11.163649 6 12.177734 L 6 5.5175781 C 7.5664466 4.2378195 9.8267657 4.2700192 11.300781 5.7148438 C 13.123285 7.5012552 15.799076 7.8363512 18 6.8222656 L 18 13 A 1 1 0 0 0 19 14 A 1 1 0 0 0 20 13 L 20 5 A 1.0001 1.0001 0 0 0 18.300781 4.2851562 C 16.737464 5.817514 14.262536 5.817514 12.699219 4.2851562 C 11.53666 3.1456207 10.018721 2.5761719 8.5 2.5761719 z M 16 15 A 1 1 0 0 0 15 16 L 15 16.009766 A 1 1 0 0 0 16 17.009766 A 1 1 0 0 0 17 16.009766 L 17 16 A 1 1 0 0 0 16 15 z M 21 15 A 1 1 0 0 0 20.292969 15.292969 L 15.292969 20.292969 A 1 1 0 0 0 15.292969 21.707031 A 1 1 0 0 0 16.707031 21.707031 L 21.707031 16.707031 A 1 1 0 0 0 21.707031 15.292969 A 1 1 0 0 0 21 15 z M 21 20 A 1 1 0 0 0 20 21 L 20 21.009766 A 1 1 0 0 0 21 22.009766 A 1 1 0 0 0 22 21.009766 L 22 21 A 1 1 0 0 0 21 20 z " fill="currentColor"/>
</svg>
