<svg xmlns="http://www.w3.org/2000/svg" width="1em" height="1em" viewBox="0 0 24 24" fill="currentColor">
  <path d="M 8.5 2.5761719 C 6.9812794 2.5761719 5.46334 3.1456207 4.3007812 4.2851562 A 1.0001 1.0001 0 0 0 4 5 L 4 14 L 4 21 A 1 1 0 0 0 5 22 A 1 1 0 0 0 6 21 L 6 14.447266 C 7.5658517 13.188083 9.8343665 13.277469 11.300781 14.714844 C 11.732837 15.138914 12.226919 15.49523 12.765625 15.771484 A 1 1 0 0 0 14.111328 15.337891 A 1 1 0 0 0 13.677734 13.992188 C 13.31811 13.807768 12.989475 13.570343 12.701172 13.287109 A 1.0001 1.0001 0 0 0 12.699219 13.285156 C 10.876762 11.498792 8.2009239 11.163649 6 12.177734 L 6 5.5175781 C 7.5664466 4.2378195 9.8267657 4.2700192 11.300781 5.7148438 C 13.123285 7.5012552 15.799076 7.8363512 18 6.8222656 L 18 10 A 1 1 0 0 0 19 11 A 1 1 0 0 0 20 10 L 20 5 A 1.0001 1.0001 0 0 0 18.300781 4.2851562 C 16.737464 5.817514 14.262536 5.817514 12.699219 4.2851562 C 11.53666 3.1456207 10.018721 2.5761719 8.5 2.5761719 z M 19 13 A 1 1 0 0 0 18 14 L 18 14.046875 C 17.449554 14.152476 16.9617 14.428098 16.626953 14.804688 C 16.193681 15.292118 16 15.902778 16 16.5 C 16 17.097222 16.193681 17.707881 16.626953 18.195312 C 17.060226 18.682744 17.75 19 18.5 19 L 19.5 19 C 19.75 19 19.810226 19.05774 19.876953 19.132812 C 19.94368 19.207881 20 19.347222 20 19.5 C 20 19.652778 19.94368 19.792119 19.876953 19.867188 C 19.810226 19.942256 19.75 20 19.5 20 L 19 20 L 17 20 A 1 1 0 0 0 16 21 A 1 1 0 0 0 17 22 L 18 22 A 1 1 0 0 0 19 23 A 1 1 0 0 0 20 22 L 20 21.953125 C 20.550446 21.847524 21.0383 21.571902 21.373047 21.195312 C 21.806319 20.707881 22 20.097222 22 19.5 C 22 18.902778 21.806319 18.292119 21.373047 17.804688 C 20.939774 17.317256 20.25 17 19.5 17 L 18.5 17 C 18.25 17 18.189774 16.942256 18.123047 16.867188 C 18.05632 16.792119 18 16.652778 18 16.5 C 18 16.347222 18.05632 16.207881 18.123047 16.132812 C 18.189774 16.057744 18.25 16 18.5 16 L 19 16 L 21 16 A 1 1 0 0 0 22 15 A 1 1 0 0 0 21 14 L 20 14 A 1 1 0 0 0 19 13 z " fill="currentColor"/>
</svg>
