<svg xmlns="http://www.w3.org/2000/svg" width="1em" height="1em" viewBox="0 0 24 24" fill="currentColor">
  <path d="M 11.789062 2.046875 A 1 1 0 0 0 11.683594 2.0507812 A 1 1 0 0 0 11.626953 2.0996094 A 1 1 0 0 0 11.552734 2.1054688 A 1 1 0 0 0 11.525391 2.1875 A 1 1 0 0 0 11.105469 2.5527344 L 8.2539062 8.2539062 L 2.5527344 11.105469 A 1.0001 1.0001 0 0 0 2.5527344 12.894531 L 8.2539062 15.746094 L 11.105469 21.447266 A 1.0001 1.0001 0 0 0 12.894531 21.447266 L 15.746094 15.746094 L 21.447266 12.894531 A 1.0001 1.0001 0 0 0 21.447266 11.105469 L 15.746094 8.2539062 L 12.894531 2.5527344 A 1 1 0 0 0 12.474609 2.1875 A 1 1 0 0 0 12.447266 2.1054688 A 1 1 0 0 0 12.373047 2.0996094 A 1 1 0 0 0 12 2.0742188 A 1 1 0 0 0 11.789062 2.046875 z M 12 5.2363281 L 14.105469 9.4472656 A 1.0001 1.0001 0 0 0 14.552734 9.8945312 L 18.763672 12 L 14.552734 14.105469 A 1.0001 1.0001 0 0 0 14.105469 14.552734 L 12 18.763672 L 9.8945312 14.552734 A 1.0001 1.0001 0 0 0 9.4472656 14.105469 L 5.2363281 12 L 9.4472656 9.8945312 A 1.0001 1.0001 0 0 0 9.8945312 9.4472656 L 12 5.2363281 z " fill="currentColor"/>
</svg>
