<svg xmlns="http://www.w3.org/2000/svg" width="1em" height="1em" viewBox="0 0 24 24" fill="currentColor">
  <path d="M 3 2 A 1 1 0 0 0 2.2929688 2.2929688 A 1 1 0 0 0 2.2929688 3.7070312 L 8.5234375 9.9375 C 6.7159327 10.968565 5.5825252 12.699462 5.1933594 14.578125 A 1 1 0 0 0 5.0996094 15 A 1 1 0 0 0 5.1054688 15.101562 C 4.7766692 17.590102 5.7325608 20.24518 8.1308594 21.833984 A 1.0001 1.0001 0 0 0 8.6835938 22 L 15.318359 22 A 1.0001 1.0001 0 0 0 15.871094 21.833984 C 16.782763 21.228846 17.534621 20.423265 18.072266 19.486328 L 20.292969 21.707031 A 1 1 0 0 0 21.707031 21.707031 A 1 1 0 0 0 21.707031 20.292969 L 18.486328 17.072266 A 1 1 0 0 0 18.412109 16.998047 L 15.716797 14.302734 A 1 1 0 0 0 15.697266 14.283203 L 3.7070312 2.2929688 A 1 1 0 0 0 3 2 z M 9 2 A 1 1 0 0 0 8 3 A 1 1 0 0 0 9 4 L 9 6 A 1 1 0 0 0 10 7 A 1 1 0 0 0 11 6 L 11 4 L 13 4 L 13 10 A 1 1 0 0 0 14 11 A 1 1 0 0 0 14.003906 10.996094 A 1 1 0 0 0 14.177734 11.498047 C 15.199938 11.992881 16.022715 12.820697 16.511719 13.845703 A 1 1 0 0 0 17.84375 14.318359 A 1 1 0 0 0 18.316406 12.984375 C 17.631994 11.549752 16.479524 10.389845 15.048828 9.6972656 A 1 1 0 0 0 15 9.7148438 L 15 4 A 1 1 0 0 0 16 3 A 1 1 0 0 0 15 2 L 9 2 z M 9.9980469 11.412109 L 12.585938 14 L 7.3808594 14 C 7.8498909 12.900907 8.7306356 11.953575 9.9980469 11.412109 z M 6.9863281 16 L 14.585938 16 L 16.582031 17.996094 C 16.225469 18.794581 15.651475 19.476869 14.941406 20 L 9.0917969 20 C 7.6889204 18.981496 7.0047705 17.485041 6.9863281 16 z " fill="currentColor"/>
</svg>
