<svg xmlns="http://www.w3.org/2000/svg" width="1em" height="1em" viewBox="0 0 24 24" fill="currentColor">
  <path d="M 3 2 A 1 1 0 0 0 2.2929688 2.2929688 A 1 1 0 0 0 2.2929688 3.7070312 L 8.5761719 9.9902344 L 5.0742188 19.621094 C 5.0736391 19.622401 5.0728415 19.623692 5.0722656 19.625 L 5.0605469 19.658203 C 4.6588936 20.627924 5.2701575 21.791261 6.3183594 21.984375 A 1.0001 1.0001 0 0 0 6.5 22 L 17.5 22 A 1.0001 1.0001 0 0 0 17.681641 21.984375 C 18.444338 21.843861 18.976042 21.188556 19.054688 20.46875 L 20.292969 21.707031 A 1 1 0 0 0 21.707031 21.707031 A 1 1 0 0 0 21.707031 20.292969 L 17.59375 16.181641 L 3.7070312 2.2929688 A 1 1 0 0 0 3 2 z M 9 2 A 1 1 0 0 0 8 3 A 1 1 0 0 0 9 4 L 9 6 A 1 1 0 0 0 10 7 A 1 1 0 0 0 11 6 L 11 4 L 13 4 L 13 8 A 1 1 0 0 0 12 9 A 1 1 0 0 0 13 10 L 13.298828 10 L 13.628906 10.90625 A 1 1 0 0 0 14.910156 11.503906 A 1 1 0 0 0 15.507812 10.222656 L 15 8.8242188 L 15 4 A 1 1 0 0 0 16 3 A 1 1 0 0 0 15 2 L 9 2 z M 10.136719 11.550781 L 15.994141 17.408203 L 16.935547 20 L 7.0644531 20 L 10.136719 11.550781 z " fill="currentColor"/>
</svg>
