<svg xmlns="http://www.w3.org/2000/svg" width="1em" height="1em" viewBox="0 0 24 24" fill="currentColor">
  <path d="M 5 3 C 3.3549904 3 2 4.3549904 2 6 L 2 17 C 2 18.64501 3.3549904 20 5 20 L 12 20 A 1 1 0 0 0 13 19 A 1 1 0 0 0 12 18 L 5 18 C 4.4358706 18 4 17.564129 4 17 L 4 6 C 4 5.4358706 4.4358706 5 5 5 L 8.5859375 5 L 11.292969 7.7070312 A 1.0001 1.0001 0 0 0 12 8 L 19 8 C 19.564129 8 20 8.4358706 20 9 L 20 12 A 1 1 0 0 0 21 13 A 1 1 0 0 0 22 12 L 22 9 C 22 7.3549904 20.64501 6 19 6 L 12.414062 6 L 9.7070312 3.2929688 A 1.0001 1.0001 0 0 0 9 3 L 5 3 z M 19 15 C 18.027778 15 17.042119 15.318681 16.273438 16.001953 C 15.504756 16.685226 15 17.75 15 19 C 15 20.25 15.504756 21.314774 16.273438 21.998047 C 17.042119 22.681319 18.027778 23 19 23 C 19.972222 23 20.957881 22.681319 21.726562 21.998047 C 22.495244 21.314774 23 20.25 23 19 C 23 17.75 22.495244 16.685226 21.726562 16.001953 C 20.957881 15.318681 19.972222 15 19 15 z M 19 17 C 19.178556 17 19.355509 17.020818 19.525391 17.060547 L 17.048828 19.537109 C 17.016537 19.378241 17 19.199858 17 19 C 17 18.250001 17.245244 17.814774 17.601562 17.498047 C 17.957881 17.18132 18.472222 17 19 17 z M 20.951172 18.462891 C 20.983463 18.621759 21 18.800142 21 19 C 21 19.749999 20.754756 20.185226 20.398438 20.501953 C 20.042119 20.81868 19.527778 21 19 21 C 18.821444 21 18.644491 20.979182 18.474609 20.939453 L 20.951172 18.462891 z " fill="currentColor"/>
</svg>
