<svg xmlns="http://www.w3.org/2000/svg" width="1em" height="1em" viewBox="0 0 24 24" fill="currentColor">
  <path d="M 5 3 C 3.3549904 3 2 4.3549904 2 6 L 2 17 C 2 18.64501 3.3549904 20 5 20 L 11 20 A 1 1 0 0 0 12 19 A 1 1 0 0 0 11 18 L 5 18 C 4.4358706 18 4 17.564129 4 17 L 4 6 C 4 5.4358706 4.4358706 5 5 5 L 8.5859375 5 L 11.292969 7.7070312 A 1.0001 1.0001 0 0 0 12 8 L 19 8 C 19.564129 8 20 8.4358706 20 9 L 20 13 A 1 1 0 0 0 21 14 A 1 1 0 0 0 22 13 L 22 9 C 22 7.3549904 20.64501 6 19 6 L 12.414062 6 L 9.7070312 3.2929688 A 1.0001 1.0001 0 0 0 9 3 L 5 3 z M 21 16 A 1 1 0 0 0 20.292969 16.292969 L 17 19.585938 L 15.707031 18.292969 A 1 1 0 0 0 14.292969 18.292969 A 1 1 0 0 0 14.292969 19.707031 L 16.292969 21.707031 A 1.0001 1.0001 0 0 0 17.707031 21.707031 L 21.707031 17.707031 A 1 1 0 0 0 21.707031 16.292969 A 1 1 0 0 0 21 16 z " fill="currentColor"/>
</svg>
