<svg xmlns="http://www.w3.org/2000/svg" width="1em" height="1em" viewBox="0 0 24 24" fill="currentColor">
  <path d="M 5 3 C 3.3549904 3 2 4.3549904 2 6 L 2 17 C 2 18.64501 3.3549904 20 5 20 L 11 20 A 1 1 0 0 0 12 19 A 1 1 0 0 0 11 18 L 5 18 C 4.4358706 18 4 17.564129 4 17 L 4 6 C 4 5.4358706 4.4358706 5 5 5 L 8.5859375 5 L 11.292969 7.7070312 A 1.0001 1.0001 0 0 0 12 8 L 19 8 C 19.564129 8 20 8.4358706 20 9 L 20 11.5 A 1 1 0 0 0 21 12.5 A 1 1 0 0 0 22 11.5 L 22 9 C 22 7.3549904 20.64501 6 19 6 L 12.414062 6 L 9.7070312 3.2929688 A 1.0001 1.0001 0 0 0 9 3 L 5 3 z M 18 14 C 17.027778 14 16.042119 14.318681 15.273438 15.001953 C 14.504755 15.685226 14 16.75 14 18 C 14 19.25 14.504756 20.314774 15.273438 20.998047 C 16.042119 21.681319 17.027778 22 18 22 C 18.709147 22 19.424566 21.829573 20.058594 21.472656 L 21.292969 22.707031 A 1 1 0 0 0 22.707031 22.707031 A 1 1 0 0 0 22.707031 21.292969 L 21.476562 20.0625 C 21.806482 19.477109 22 18.77405 22 18 C 22 16.75 21.495244 15.685226 20.726562 15.001953 C 19.957881 14.318681 18.972222 14 18 14 z M 18 16 C 18.527778 16 19.042119 16.18132 19.398438 16.498047 C 19.754756 16.814774 20 17.250001 20 18 C 20 18.749999 19.754756 19.185226 19.398438 19.501953 C 19.042119 19.81868 18.527778 20 18 20 C 17.472222 20 16.957881 19.81868 16.601562 19.501953 C 16.245244 19.185226 16 18.749999 16 18 C 16 17.250001 16.245244 16.814774 16.601562 16.498047 C 16.957881 16.18132 17.472222 16 18 16 z " fill="currentColor"/>
</svg>
