<svg xmlns="http://www.w3.org/2000/svg" width="1em" height="1em" viewBox="0 0 24 24" fill="currentColor">
  <path d="M 5 3 C 3.3549904 3 2 4.3549904 2 6 L 2 17 C 2 18.64501 3.3549904 20 5 20 L 12 20 L 19 20 C 20.64501 20 22 18.64501 22 17 L 22 9 C 22 7.3549904 20.64501 6 19 6 L 12.414062 6 L 9.7070312 3.2929688 A 1.0001 1.0001 0 0 0 9 3 L 5 3 z M 5 5 L 8.5859375 5 L 11.292969 7.7070312 A 1.0001 1.0001 0 0 0 12 8 L 19 8 C 19.564129 8 20 8.4358706 20 9 L 20 17 C 20 17.564129 19.564129 18 19 18 L 13 18 L 13 15.841797 C 13.373406 15.719374 13.728315 15.524267 14.039062 15.248047 C 14.620243 14.731441 15 13.916666 15 13 C 15 12.083334 14.620244 11.268559 14.039062 10.751953 C 13.45788 10.235347 12.722222 10 12 10 C 11.277778 10 10.542119 10.235347 9.9609375 10.751953 C 9.3797556 11.268559 9 12.083334 9 13 C 9 13.916666 9.3797556 14.731441 9.9609375 15.248047 C 10.271685 15.524267 10.626594 15.719374 11 15.841797 L 11 18 L 5 18 C 4.4358706 18 4 17.564129 4 17 L 4 6 C 4 5.4358706 4.4358706 5 5 5 z M 12 12 C 12.277778 12 12.542119 12.09799 12.710938 12.248047 C 12.879755 12.398107 13 12.583334 13 13 C 13 13.416666 12.879756 13.601893 12.710938 13.751953 C 12.542118 13.902014 12.277778 14 12 14 C 11.722222 14 11.45788 13.902014 11.289062 13.751953 C 11.120243 13.601893 11 13.416666 11 13 C 11 12.583334 11.120244 12.398107 11.289062 12.248047 C 11.45788 12.097986 11.722222 12 12 12 z " fill="currentColor"/>
</svg>
