<svg xmlns="http://www.w3.org/2000/svg" width="1em" height="1em" viewBox="0 0 24 24" fill="currentColor">
  <path d="M 5 3 C 3.3549904 3 2 4.3549904 2 6 L 2 17 C 2 18.64501 3.3549904 20 5 20 L 12 20 A 1 1 0 0 0 13 19 A 1 1 0 0 0 12 18 L 5 18 C 4.4358706 18 4 17.564129 4 17 L 4 6 C 4 5.4358706 4.4358706 5 5 5 L 8.5859375 5 L 11.292969 7.7070312 A 1.0001 1.0001 0 0 0 12 8 L 19 8 C 19.564129 8 20 8.4358706 20 9 L 20 12.5 A 1 1 0 0 0 21 13.5 A 1 1 0 0 0 22 12.5 L 22 9 C 22 7.3549904 20.64501 6 19 6 L 12.414062 6 L 9.7070312 3.2929688 A 1.0001 1.0001 0 0 0 9 3 L 5 3 z M 19 15 A 1 1 0 0 0 18 16 L 18 19.585938 L 16.707031 18.292969 A 1 1 0 0 0 15.292969 18.292969 A 1 1 0 0 0 15.292969 19.707031 L 18.283203 22.697266 L 18.292969 22.707031 A 1.0001 1.0001 0 0 0 18.341797 22.75 A 1 1 0 0 0 18.384766 22.787109 A 1.0001 1.0001 0 0 0 18.439453 22.824219 A 1 1 0 0 0 18.492188 22.861328 A 1.0001 1.0001 0 0 0 18.5 22.865234 A 1 1 0 0 0 18.611328 22.921875 A 1.0001 1.0001 0 0 0 18.617188 22.923828 A 1 1 0 0 0 18.742188 22.964844 A 1 1 0 0 0 18.794922 22.976562 A 1.0001 1.0001 0 0 0 19 23 A 1.0001 1.0001 0 0 0 19.205078 22.976562 A 1.0001 1.0001 0 0 0 19.257812 22.964844 A 1 1 0 0 0 19.382812 22.923828 A 1.0001 1.0001 0 0 0 19.560547 22.824219 A 1 1 0 0 0 19.615234 22.787109 A 1.0001 1.0001 0 0 0 19.658203 22.75 A 1 1 0 0 0 19.716797 22.697266 L 22.707031 19.707031 A 1 1 0 0 0 22.707031 18.292969 A 1 1 0 0 0 21.292969 18.292969 L 20 19.585938 L 20 16 A 1 1 0 0 0 19 15 z " fill="currentColor"/>
</svg>
