<svg xmlns="http://www.w3.org/2000/svg" width="1em" height="1em" viewBox="0 0 24 24" fill="currentColor">
  <path d="M 9 2 C 7.3549904 2 6 3.3549904 6 5 L 6 6 L 5 6 C 3.3549904 6 2 7.3549904 2 9 L 2 18 C 2 19.64501 3.3549904 21 5 21 L 15 21 C 16.64501 21 18 19.64501 18 18 L 18 17 L 19 17 C 20.64501 17 22 15.64501 22 14 L 22 7 C 22 5.3549904 20.64501 4 19 4 L 14.414062 4 L 12.707031 2.2929688 A 1.0001 1.0001 0 0 0 12 2 L 9 2 z M 9 4 L 11.585938 4 L 13.292969 5.7070312 A 1.0001 1.0001 0 0 0 14 6 L 19 6 C 19.564129 6 20 6.4358706 20 7 L 20 14 C 20 14.564129 19.564129 15 19 15 L 17 15 L 9 15 C 8.4358706 15 8 14.564129 8 14 L 8 7 L 8 5 C 8 4.4358706 8.4358706 4 9 4 z M 5 8 L 6 8 L 6 14 C 6 15.64501 7.3549904 17 9 17 L 16 17 L 16 18 C 16 18.564129 15.564129 19 15 19 L 5 19 C 4.4358706 19 4 18.564129 4 18 L 4 9 C 4 8.4358706 4.4358706 8 5 8 z " fill="currentColor"/>
</svg>
