<svg xmlns="http://www.w3.org/2000/svg" width="1em" height="1em" viewBox="0 0 24 24" fill="currentColor">
  <path d="M 6 2 A 1 1 0 0 0 5 3 A 1 1 0 0 0 6 4 C 7.1164141 4 8 4.8835859 8 6 L 8 18 C 8 19.116414 7.1164141 20 6 20 A 1 1 0 0 0 5 21 A 1 1 0 0 0 6 22 C 7.1904739 22 8.2651201 21.4711 9 20.636719 C 9.7348799 21.4711 10.809527 22 12 22 A 1 1 0 0 0 13 21 A 1 1 0 0 0 12 20 C 10.883586 20 10 19.116414 10 18 L 10 6 C 10 4.8835859 10.883586 4 12 4 A 1 1 0 0 0 13 3 A 1 1 0 0 0 12 2 C 10.809526 2 9.7348799 2.5288997 9 3.3632812 C 8.2651201 2.5289004 7.1904733 2 6 2 z M 4 6 C 2.9072751 6 2 6.9072751 2 8 L 2 16 C 2 17.092725 2.9072751 18 4 18 L 5 18 A 1 1 0 0 0 6 17 A 1 1 0 0 0 5 16 L 4 16 L 4 8 L 5 8 A 1 1 0 0 0 6 7 A 1 1 0 0 0 5 6 L 4 6 z M 13 6 A 1 1 0 0 0 12 7 A 1 1 0 0 0 13 8 L 20 8 L 20 16 L 13 16 A 1 1 0 0 0 12 17 A 1 1 0 0 0 13 18 L 20 18 C 21.092725 18 22 17.092725 22 16 L 22 8 C 22 6.9072751 21.092725 6 20 6 L 13 6 z M 13 11 A 1 1 0 0 0 12 12 A 1 1 0 0 0 13 13 L 13.009766 13 A 1 1 0 0 0 14.009766 12 A 1 1 0 0 0 13.009766 11 L 13 11 z M 17 11 A 1 1 0 0 0 16 12 A 1 1 0 0 0 17 13 L 17.009766 13 A 1 1 0 0 0 18.009766 12 A 1 1 0 0 0 17.009766 11 L 17 11 z " fill="currentColor"/>
</svg>
