<svg xmlns="http://www.w3.org/2000/svg" width="1em" height="1em" viewBox="0 0 24 24" fill="currentColor">
  <path d="M 3 2 A 1 1 0 0 0 2.2929688 2.2929688 A 1 1 0 0 0 2.2929688 3.7070312 L 4.5859375 6 L 4 6 A 1 1 0 0 0 3 7 A 1 1 0 0 0 4 8 L 6 8 L 6 16 L 4 16 A 1 1 0 0 0 3 17 A 1 1 0 0 0 4 18 L 6 18 L 6 20 A 1 1 0 0 0 7 21 A 1 1 0 0 0 8 20 L 8 18 L 16 18 L 16 20 A 1 1 0 0 0 17 21 A 1 1 0 0 0 18 20 L 18 19.414062 L 20.292969 21.707031 A 1 1 0 0 0 21.707031 21.707031 A 1 1 0 0 0 21.707031 20.292969 L 17.716797 16.302734 A 1 1 0 0 0 17.697266 16.283203 L 7.7167969 6.3027344 A 1 1 0 0 0 7.6972656 6.2832031 L 3.7070312 2.2929688 A 1 1 0 0 0 3 2 z M 17 3 A 1 1 0 0 0 16 4 L 16 6 L 11 6 A 1 1 0 0 0 10 7 A 1 1 0 0 0 11 8 L 16 8 L 16 13 A 1 1 0 0 0 17 14 A 1 1 0 0 0 18 13 L 18 8 L 20 8 A 1 1 0 0 0 21 7 A 1 1 0 0 0 20 6 L 18 6 L 18 4 A 1 1 0 0 0 17 3 z M 8 9.4140625 L 14.585938 16 L 8 16 L 8 9.4140625 z " fill="currentColor"/>
</svg>
