<svg xmlns="http://www.w3.org/2000/svg" width="1em" height="1em" viewBox="0 0 24 24" fill="currentColor">
  <path d="M 11.998047 1 C 11.587924 1 11.179322 1.087057 10.796875 1.2578125 A 1.0001 1.0001 0 0 0 10.794922 1.2578125 L 7.3125 2.8144531 A 1 1 0 0 0 6.8066406 4.1367188 A 1 1 0 0 0 8.1289062 4.640625 L 11.611328 3.0820312 L 11.611328 3.0839844 C 11.858297 2.973717 12.13975 2.973717 12.386719 3.0839844 L 12.386719 3.0820312 L 15.910156 4.6582031 L 12.394531 6.2304688 C 12.143992 6.3424479 11.857962 6.3424479 11.607422 6.2304688 A 1 1 0 0 0 10.287109 6.7363281 A 1 1 0 0 0 10.791016 8.0566406 C 10.863232 8.088918 10.935737 8.1183173 11.009766 8.1445312 A 1 1 0 0 0 12 9 A 1 1 0 0 0 12.990234 8.1445312 C 13.064965 8.1181309 13.138051 8.0892174 13.210938 8.0566406 L 17.525391 6.1269531 L 19.970703 15.908203 C 20.022733 16.116313 20.005864 16.323353 19.933594 16.509766 A 1 1 0 0 0 20.503906 17.804688 A 1 1 0 0 0 21.796875 17.234375 C 22.014603 16.672788 22.064129 16.039719 21.910156 15.423828 L 19.373047 5.265625 A 1.0001 1.0001 0 0 0 19.371094 5.2636719 C 19.148526 4.3791854 18.533265 3.6397518 17.697266 3.2675781 L 17.695312 3.265625 L 13.201172 1.2578125 C 12.818771 1.0870535 12.40817 1 11.998047 1 z M 3 2 A 1 1 0 0 0 2.2929688 2.2929688 A 1 1 0 0 0 2.2929688 3.7070312 L 4.4726562 5.8867188 L 2.0898438 15.421875 C 1.7447161 16.791758 2.4174411 18.229195 3.6894531 18.84375 A 1.0001 1.0001 0 0 0 3.6933594 18.845703 L 10.726562 22.210938 C 11.530354 22.596384 12.467498 22.595822 13.271484 22.210938 L 18.363281 19.777344 L 20.292969 21.707031 A 1 1 0 0 0 21.707031 21.707031 A 1 1 0 0 0 21.707031 20.292969 L 12.716797 11.302734 A 1 1 0 0 0 12.697266 11.283203 L 3.7070312 2.2929688 A 1 1 0 0 0 3 2 z M 6.1230469 7.5371094 L 11 12.414062 L 11 20.125 L 4.5585938 17.042969 C 4.1302413 16.836016 3.9130745 16.371467 4.0292969 15.910156 A 1.0001 1.0001 0 0 0 4.0292969 15.908203 L 6.1230469 7.5371094 z M 13 14.414062 L 16.863281 18.277344 L 13 20.125 L 13 14.414062 z " fill="currentColor"/>
</svg>
