<svg xmlns="http://www.w3.org/2000/svg" width="1em" height="1em" viewBox="0 0 24 24" fill="currentColor">
  <path d="M 2 3 A 1 1 0 0 0 1 4 A 1 1 0 0 0 2 5 L 3.3222656 5 A 1.0001 1.0001 0 0 0 3.3222656 5.0019531 L 5 9.1933594 L 5 19 C 5.0008312 19.9085 5.6354256 20.657092 6.3789062 20.900391 C 7.1223871 21.143689 8.0735729 20.915841 8.6113281 20.183594 A 1.0001 1.0001 0 0 0 8.6152344 20.177734 L 12.058594 15.433594 L 14.466797 15.685547 C 14.172972 16.202256 14 16.823573 14 17.5 C 14 18.583333 14.442256 19.523108 15.117188 20.123047 C 15.792118 20.722986 16.652778 21 17.5 21 C 18.347222 21 19.207881 20.722986 19.882812 20.123047 C 20.557744 19.523108 21 18.583333 21 17.5 C 21 16.416667 20.557744 15.476892 19.882812 14.876953 C 19.60518 14.630169 19.295373 14.437572 18.96875 14.296875 L 21.894531 8.4472656 A 1.0001 1.0001 0 0 0 21 7 L 6.2773438 7 L 5.1796875 4.2597656 L 5.1796875 4.2578125 C 4.877721 3.5013589 4.1388104 3.0008406 3.3242188 3 A 1.0001 1.0001 0 0 0 3.3222656 3 L 2 3 z M 7.078125 9 L 19.382812 9 L 16.916016 13.933594 L 10.503906 13.257812 C 9.3949235 13.141259 8.4472056 12.424061 8.0332031 11.388672 L 7.078125 9 z M 7 13.501953 C 7.7104155 14.342011 8.6869318 14.933833 9.78125 15.166016 L 7 18.998047 L 7 13.501953 z M 17.5 16 C 17.902778 16 18.292119 16.139653 18.554688 16.373047 C 18.817256 16.606441 19 16.916667 19 17.5 C 19 18.083333 18.817256 18.393559 18.554688 18.626953 C 18.292119 18.860347 17.902778 19 17.5 19 C 17.097222 19 16.707881 18.860347 16.445312 18.626953 C 16.182744 18.393559 16 18.083333 16 17.5 C 16 16.916667 16.182744 16.606441 16.445312 16.373047 C 16.707881 16.139653 17.097222 16 17.5 16 z " fill="currentColor"/>
</svg>
