<svg xmlns="http://www.w3.org/2000/svg" width="1em" height="1em" viewBox="0 0 24 24" fill="currentColor">
  <path d="M 11.919922 1.96875 C 11.526633 1.9730323 11.129559 2.0008053 10.730469 2.0546875 C 9.666227 2.1983733 8.5874374 2.5233339 7.5234375 3.0566406 A 1 1 0 0 0 7.0761719 4.3984375 A 1 1 0 0 0 8.4199219 4.84375 C 11.915944 3.0914453 15.401452 4.0745654 17.667969 6.3476562 C 19.934486 8.6207471 20.906954 12.11063 19.144531 15.601562 A 1 1 0 0 0 19.587891 16.945312 A 1 1 0 0 0 20.931641 16.501953 C 23.077185 12.25215 21.891907 7.749655 19.085938 4.9355469 C 17.24452 3.0887884 14.672941 1.938774 11.919922 1.96875 z M 3 2 A 1 1 0 0 0 2.2929688 2.2929688 A 1 1 0 0 0 2.2929688 3.7070312 L 4.2597656 5.6738281 C 1.050902 9.5970114 1.2750421 15.412911 4.9335938 19.070312 C 8.5911434 22.726713 14.407729 22.951458 18.330078 19.744141 L 20.292969 21.707031 A 1 1 0 0 0 21.707031 21.707031 A 1 1 0 0 0 21.707031 20.292969 L 19.136719 17.722656 A 1 1 0 0 0 19.074219 17.654297 A 1 1 0 0 0 19.007812 17.59375 L 9.2929688 7.8789062 A 1 1 0 0 0 9.1835938 7.7480469 A 1 1 0 0 0 9.0488281 7.6347656 L 6.3808594 4.9667969 A 1 1 0 0 0 6.3457031 4.9296875 L 6.3085938 4.8945312 L 3.7070312 2.2929688 A 1 1 0 0 0 3 2 z M 12 6 C 11.63059 6 11.267722 6.0326982 10.914062 6.0976562 A 1 1 0 0 0 10.111328 7.2617188 A 1 1 0 0 0 11.275391 8.0664062 C 11.50973 8.0233646 11.75141 8 12 8 A 1 1 0 0 0 13 7 A 1 1 0 0 0 12 6 z M 16 7 A 1 1 0 0 0 15.292969 7.2929688 L 13.292969 9.2929688 A 1 1 0 0 0 13.292969 10.707031 A 1 1 0 0 0 14.707031 10.707031 L 16.707031 8.7070312 A 1 1 0 0 0 16.707031 7.2929688 A 1 1 0 0 0 16 7 z M 5.6816406 7.0957031 L 7.109375 8.5234375 C 6.4113887 9.505579 6 10.708899 6 12 A 1 1 0 0 0 7 13 A 1 1 0 0 0 8 12 C 8 11.254355 8.2010102 10.561275 8.5527344 9.9667969 L 10.056641 11.470703 C 9.9925779 11.68537 9.9654006 11.905711 9.9785156 12.117188 C 10.011122 12.642957 10.247022 13.09485 10.582031 13.427734 C 10.91704 13.760618 11.370517 13.994176 11.896484 14.023438 C 12.104167 14.034991 12.320729 14.008241 12.53125 13.945312 L 16.90625 18.320312 C 13.763993 20.768808 9.2401731 20.547858 6.3476562 17.65625 C 3.4544717 14.763974 3.2324175 10.238855 5.6816406 7.0957031 z " fill="currentColor"/>
</svg>
