<svg xmlns="http://www.w3.org/2000/svg" width="1em" height="1em" viewBox="0 0 24 24" fill="currentColor">
  <path d="M 11.5 1.9199219 C 10.986158 1.9199219 10.472252 2.1138012 10.085938 2.5 L 7.7929688 4.7929688 A 1.0001 1.0001 0 0 0 7.7929688 5.7929688 L 5.7929688 7.7929688 A 1.0001 1.0001 0 0 0 4.7929688 7.7929688 L 2.5 10.085938 C 1.7276024 10.858567 1.7276024 12.141432 2.5 12.914062 L 6.0859375 16.5 C 6.8585684 17.272398 8.1414316 17.272398 8.9140625 16.5 L 10.501953 14.912109 L 16.701172 21.09375 C 17.906084 22.292235 19.882978 22.292235 21.087891 21.09375 C 22.294005 19.893498 22.293307 17.910007 21.087891 16.708984 L 14.912109 10.501953 L 16.5 8.9140625 C 17.272398 8.1414316 17.272398 6.8585684 16.5 6.0859375 L 12.914062 2.5 C 12.527746 2.1138012 12.013842 1.9199219 11.5 1.9199219 z M 11.5 3.9140625 L 15.085938 7.5 L 13.5 9.0859375 L 9.9140625 5.5 L 11.5 3.9140625 z M 9 7.4140625 L 11.585938 10 L 10 11.585938 L 7.4140625 9 L 9 7.4140625 z M 5.5 9.9140625 L 9.0859375 13.5 L 7.5 15.085938 L 3.9140625 11.5 L 5.5 9.9140625 z M 12.998047 11.416016 L 19.673828 18.123047 A 1.0001 1.0001 0 0 0 19.677734 18.126953 C 20.118318 18.565931 20.11762 19.238033 19.677734 19.675781 C 19.237143 20.114022 18.554598 20.114609 18.113281 19.677734 L 18.111328 19.675781 L 11.416016 12.998047 L 12.998047 11.416016 z M 3 20 A 1 1 0 0 0 2 21 A 1 1 0 0 0 3 22 L 10 22 A 1 1 0 0 0 11 21 A 1 1 0 0 0 10 20 L 3 20 z " fill="currentColor"/>
</svg>
