<svg xmlns="http://www.w3.org/2000/svg" width="1em" height="1em" viewBox="0 0 24 24" fill="currentColor">
  <path d="M 12 1.9980469 C 7.5935666 1.9980469 4 5.5916135 4 9.9980469 C 3.0833335 9.9980469 2.268559 10.377802 1.7519531 10.958984 C 1.2353472 11.540166 1 12.275825 1 12.998047 C 1 13.720269 1.2353472 14.45788 1.7519531 15.039062 C 2.268559 15.620243 3.0833335 15.998047 4 15.998047 L 4.1738281 15.998047 C 4.679122 19.379267 7.5068989 22.002457 11 22 L 21 22 A 1.0001 1.0001 0 0 0 21.832031 20.445312 L 20 17.697266 L 20 16 C 20.916666 16 21.731441 15.620244 22.248047 15.039062 C 22.764653 14.45788 23 13.722222 23 13 C 23 12.277778 22.764653 11.542119 22.248047 10.960938 C 21.731441 10.379755 20.916666 10 20 10 C 20 5.5942312 16.407477 2.0010838 12.001953 2 A 1.0001 1.0001 0 0 0 12 2 A 1.0001 1.0001 0 0 0 12 1.9980469 z M 11.998047 3.9980469 L 12 3.9980469 A 1 1 0 0 0 12 4 C 15.325553 4 18 6.6744469 18 10 L 18 11 A 1.0001 1.0001 0 0 0 19 12 L 20 12 C 20.416666 12 20.601893 12.120244 20.751953 12.289062 C 20.902014 12.45788 21 12.722222 21 13 C 21 13.277778 20.90201 13.542119 20.751953 13.710938 C 20.601893 13.879755 20.416666 14 20 14 L 19 14 A 1.0001 1.0001 0 0 0 18 15 L 18 18 A 1.0001 1.0001 0 0 0 18.167969 18.554688 L 19.130859 20 L 11 20 C 8.2996285 20.0019 6.1012633 17.885973 6 15.1875 L 6 14.998047 A 1.0001 1.0001 0 0 0 5 13.998047 L 4 13.998047 C 3.5833337 13.998047 3.3981073 13.877802 3.2480469 13.708984 C 3.0979864 13.540166 3 13.275825 3 12.998047 C 3 12.720269 3.0979864 12.45788 3.2480469 12.289062 C 3.3981073 12.120243 3.5833337 11.998047 4 11.998047 L 5 11.998047 A 1.0001 1.0001 0 0 0 6 10.998047 L 6 9.9980469 C 6 6.6731607 8.6734218 3.9991194 11.998047 3.9980469 z M 10 8 A 1 1 0 0 0 9 9 A 1 1 0 0 0 10 10 L 10.009766 10 A 1 1 0 0 0 11.009766 9 A 1 1 0 0 0 10.009766 8 L 10 8 z M 14 8 A 1 1 0 0 0 13 9 A 1 1 0 0 0 14 10 L 14.009766 10 A 1 1 0 0 0 15.009766 9 A 1 1 0 0 0 14.009766 8 L 14 8 z M 12 12 C 11.527778 12 11.042119 12.152014 10.648438 12.501953 C 10.254755 12.851892 10 13.416667 10 14 A 1 1 0 0 0 11 15 L 13 15 A 1.0001 1.0001 0 0 0 14 14 C 14 13.416667 13.745244 12.851892 13.351562 12.501953 C 12.95788 12.152014 12.472222 12 12 12 z " fill="currentColor"/>
</svg>
