<svg xmlns="http://www.w3.org/2000/svg" width="1em" height="1em" viewBox="0 0 24 24" fill="currentColor">
  <path d="M 6 7 C 4.3549904 7 3 8.3549904 3 10 L 3 14 C 3 15.64501 4.3549904 17 6 17 L 8 17 A 1.0001 1.0001 0 0 0 9 16 L 9 12 A 1.0001 1.0001 0 0 0 8 11 L 7 11 A 1 1 0 0 0 6 12 A 1 1 0 0 0 7 13 L 7 15 L 6 15 C 5.4358706 15 5 14.564129 5 14 L 5 10 C 5 9.4358706 5.4358706 9 6 9 L 8 9 A 1 1 0 0 0 9 8 A 1 1 0 0 0 8 7 L 6 7 z M 12 7 A 1 1 0 0 0 11 8 L 11 16 A 1 1 0 0 0 12 17 A 1 1 0 0 0 13 16 L 13 8 A 1 1 0 0 0 12 7 z M 16 7 A 1.0001 1.0001 0 0 0 15 8 L 15 12 L 15 16 A 1 1 0 0 0 16 17 A 1 1 0 0 0 17 16 L 17 13 L 19 13 A 1 1 0 0 0 20 12 A 1 1 0 0 0 19 11 L 17 11 L 17 9 L 20 9 A 1 1 0 0 0 21 8 A 1 1 0 0 0 20 7 L 16 7 z " fill="currentColor"/>
</svg>
