<svg xmlns="http://www.w3.org/2000/svg" width="1em" height="1em" viewBox="0 0 24 24" fill="currentColor">
  <path d="M 7 3 C 6.2777779 3 5.5421194 3.2353472 4.9609375 3.7519531 C 4.3797556 4.268559 4 5.0833335 4 6 C 4 6.9166665 4.3797556 7.731441 4.9609375 8.2480469 C 5.2716848 8.5242666 5.6265945 8.7193743 6 8.8417969 L 6 15.158203 C 5.6265945 15.280626 5.2716848 15.475733 4.9609375 15.751953 C 4.3797556 16.268559 4 17.083334 4 18 C 4 18.916666 4.3797556 19.731441 4.9609375 20.248047 C 5.5421194 20.764653 6.2777779 21 7 21 C 7.7222221 21 8.4578806 20.764653 9.0390625 20.248047 C 9.6202444 19.731441 10 18.916666 10 18 C 10 17.083334 9.6202444 16.268559 9.0390625 15.751953 C 8.7283152 15.475733 8.3734055 15.280626 8 15.158203 L 8 11.992188 C 8.8371738 12.623718 9.8769505 13 11 13 L 14.158203 13 C 14.321672 13.498555 14.602974 13.929858 14.960938 14.248047 C 15.542118 14.764653 16.277778 15 17 15 C 17.722222 15 18.457881 14.764653 19.039062 14.248047 C 19.620244 13.731441 20 12.916666 20 12 C 20 11.083334 19.620244 10.268559 19.039062 9.7519531 C 18.457881 9.2353472 17.722222 9 17 9 C 16.277778 9 15.542119 9.2353472 14.960938 9.7519531 C 14.602974 10.070142 14.321672 10.501445 14.158203 11 L 11 11 C 9.6106816 11 8.4553753 10.076748 8.1074219 8.8046875 C 8.4414528 8.6812216 8.7582259 8.4976793 9.0390625 8.2480469 C 9.6202444 7.731441 10 6.9166665 10 6 C 10 5.0833335 9.6202444 4.268559 9.0390625 3.7519531 C 8.4578806 3.2353472 7.7222221 3 7 3 z M 7 5 C 7.2777779 5 7.5421194 5.0979864 7.7109375 5.2480469 C 7.8797556 5.3981073 8 5.5833337 8 6 C 8 6.4166663 7.8797556 6.6018927 7.7109375 6.7519531 C 7.5421194 6.9020136 7.2777779 7 7 7 C 6.7222221 7 6.4578806 6.9020136 6.2890625 6.7519531 C 6.1202444 6.6018927 6 6.4166663 6 6 C 6 5.5833337 6.1202444 5.3981073 6.2890625 5.2480469 C 6.4578806 5.0979864 6.7222221 5 7 5 z M 17 11 C 17.277778 11 17.542119 11.09799 17.710938 11.248047 C 17.879756 11.398107 18 11.583334 18 12 C 18 12.416666 17.879756 12.601893 17.710938 12.751953 C 17.542119 12.902014 17.277778 13 17 13 C 16.722222 13 16.457881 12.902014 16.289062 12.751953 C 16.120244 12.601893 16 12.416666 16 12 C 16 11.583334 16.120244 11.398107 16.289062 11.248047 C 16.457881 11.097986 16.722222 11 17 11 z M 7 17 C 7.2777779 17 7.5421194 17.09799 7.7109375 17.248047 C 7.8797556 17.398107 8 17.583334 8 18 C 8 18.416666 7.8797556 18.601893 7.7109375 18.751953 C 7.5421194 18.902014 7.2777779 19 7 19 C 6.7222221 19 6.4578806 18.902014 6.2890625 18.751953 C 6.1202444 18.601893 6 18.416666 6 18 C 6 17.583334 6.1202444 17.398107 6.2890625 17.248047 C 6.4578806 17.097986 6.7222221 17 7 17 z " fill="currentColor"/>
</svg>
