<svg xmlns="http://www.w3.org/2000/svg" width="1em" height="1em" viewBox="0 0 24 24" fill="currentColor">
  <path d="M 12 2 C 7.3339008 1.9910502 3.2730695 5.228312 2.2421875 9.7792969 A 1 1 0 0 0 2.9980469 10.974609 A 1 1 0 0 0 4.1933594 10.220703 C 5.0201099 6.5708876 8.2557736 3.9920843 11.998047 4 A 1.0001 1.0001 0 0 0 12 4 C 15.740589 3.99791 18.973446 6.5755962 19.804688 10.222656 A 1 1 0 0 0 21.001953 10.974609 A 1 1 0 0 0 21.755859 9.7773438 C 20.719739 5.2313804 16.664325 1.9983089 12.001953 2 L 12 2 z M 12 9 C 11.277778 9 10.542119 9.2353472 9.9609375 9.7519531 C 9.3797556 10.268559 9 11.083334 9 12 C 9 12.916666 9.3797556 13.731441 9.9609375 14.248047 C 10.542119 14.764653 11.277778 15 12 15 C 12.722222 15 13.45788 14.764653 14.039062 14.248047 C 14.620243 13.731441 15 12.916666 15 12 C 15 11.083334 14.620244 10.268559 14.039062 9.7519531 C 13.45788 9.2353472 12.722222 9 12 9 z M 12 11 C 12.277778 11 12.542119 11.09799 12.710938 11.248047 C 12.879755 11.398107 13 11.583334 13 12 C 13 12.416666 12.879756 12.601893 12.710938 12.751953 C 12.542118 12.902014 12.277778 13 12 13 C 11.722222 13 11.45788 12.902014 11.289062 12.751953 C 11.120243 12.601893 11 12.416666 11 12 C 11 11.583334 11.120244 11.398107 11.289062 11.248047 C 11.45788 11.097986 11.722222 11 12 11 z M 3.2636719 13.001953 A 1 1 0 0 0 3.0039062 13.025391 A 1 1 0 0 0 2.2519531 14.222656 C 3.2712886 18.669049 7.2562732 22 12 22 C 16.744617 22 20.730813 18.669581 21.748047 14.222656 A 1 1 0 0 0 20.996094 13.025391 A 1 1 0 0 0 19.798828 13.777344 C 18.986062 17.330419 15.809383 20 12 20 C 8.1917268 20 5.0158364 17.330951 4.2011719 13.777344 A 1 1 0 0 0 3.2636719 13.001953 z " fill="currentColor"/>
</svg>
