<svg xmlns="http://www.w3.org/2000/svg" width="1em" height="1em" viewBox="0 0 24 24" fill="currentColor">
  <path d="M 6 3 C 4.3549904 3 3 4.3549904 3 6 L 3 18 C 3 19.64501 4.3549904 21 6 21 L 18 21 C 19.64501 21 21 19.64501 21 18 L 21 6 C 21 4.3549904 19.64501 3 18 3 L 6 3 z M 6 5 L 18 5 C 18.564129 5 19 5.4358706 19 6 L 19 18 C 19 18.564129 18.564129 19 18 19 L 6 19 C 5.4358706 19 5 18.564129 5 18 L 5 6 C 5 5.4358706 5.4358706 5 6 5 z M 10 7 A 1 1 0 0 0 9 8 L 9 9 L 8 9 A 1 1 0 0 0 7 10 A 1 1 0 0 0 8 11 L 9 11 L 9 13 L 8 13 A 1 1 0 0 0 7 14 A 1 1 0 0 0 8 15 L 9 15 L 9 16 A 1 1 0 0 0 10 17 A 1 1 0 0 0 11 16 L 11 15 L 13 15 L 13 16 A 1 1 0 0 0 14 17 A 1 1 0 0 0 15 16 L 15 15 L 16 15 A 1 1 0 0 0 17 14 A 1 1 0 0 0 16 13 L 15 13 L 15 11 L 16 11 A 1 1 0 0 0 17 10 A 1 1 0 0 0 16 9 L 15 9 L 15 8 A 1 1 0 0 0 14 7 A 1 1 0 0 0 13 8 L 13 9 L 11 9 L 11 8 A 1 1 0 0 0 10 7 z M 11 11 L 13 11 L 13 13 L 11 13 L 11 11 z " fill="currentColor"/>
</svg>
