<svg xmlns="http://www.w3.org/2000/svg" width="1em" height="1em" viewBox="0 0 24 24" fill="currentColor">
  <path d="M 5 7 C 4.5277779 7 4.0421194 7.1520138 3.6484375 7.5019531 C 3.2547556 7.8518924 3 8.4166667 3 9 C 3 9.5833333 3.2547556 10.148108 3.6484375 10.498047 C 4.0421194 10.847986 4.5277779 11 5 11 C 5.4722221 11 5.9578806 10.847986 6.3515625 10.498047 C 6.7452444 10.148108 7 9.5833333 7 9 C 7 8.4166667 6.7452444 7.8518924 6.3515625 7.5019531 C 5.9578806 7.1520138 5.4722221 7 5 7 z M 12 7 C 11.527778 7 11.042119 7.1520138 10.648438 7.5019531 C 10.254755 7.8518924 10 8.4166667 10 9 C 10 9.5833333 10.254756 10.148108 10.648438 10.498047 C 11.042118 10.847986 11.527778 11 12 11 C 12.472222 11 12.95788 10.847986 13.351562 10.498047 C 13.745243 10.148108 14 9.5833333 14 9 C 14 8.4166667 13.745244 7.8518924 13.351562 7.5019531 C 12.95788 7.1520138 12.472222 7 12 7 z M 19 7 C 18.527778 7 18.042119 7.1520138 17.648438 7.5019531 C 17.254756 7.8518924 17 8.4166667 17 9 C 17 9.5833333 17.254756 10.148108 17.648438 10.498047 C 18.042119 10.847986 18.527778 11 19 11 C 19.472222 11 19.957881 10.847986 20.351562 10.498047 C 20.745244 10.148108 21 9.5833333 21 9 C 21 8.4166667 20.745244 7.8518924 20.351562 7.5019531 C 19.957881 7.1520138 19.472222 7 19 7 z M 5 13 C 4.5277779 13 4.0421194 13.152014 3.6484375 13.501953 C 3.2547556 13.851892 3 14.416667 3 15 C 3 15.583333 3.2547556 16.148108 3.6484375 16.498047 C 4.0421194 16.847986 4.5277779 17 5 17 C 5.4722221 17 5.9578806 16.847986 6.3515625 16.498047 C 6.7452444 16.148108 7 15.583333 7 15 C 7 14.416667 6.7452444 13.851892 6.3515625 13.501953 C 5.9578806 13.152014 5.4722221 13 5 13 z M 12 13 C 11.527778 13 11.042119 13.152014 10.648438 13.501953 C 10.254755 13.851892 10 14.416667 10 15 C 10 15.583333 10.254756 16.148108 10.648438 16.498047 C 11.042118 16.847986 11.527778 17 12 17 C 12.472222 17 12.95788 16.847986 13.351562 16.498047 C 13.745243 16.148108 14 15.583333 14 15 C 14 14.416667 13.745244 13.851892 13.351562 13.501953 C 12.95788 13.152014 12.472222 13 12 13 z M 19 13 C 18.527778 13 18.042119 13.152014 17.648438 13.501953 C 17.254756 13.851892 17 14.416667 17 15 C 17 15.583333 17.254756 16.148108 17.648438 16.498047 C 18.042119 16.847986 18.527778 17 19 17 C 19.472222 17 19.957881 16.847986 20.351562 16.498047 C 20.745244 16.148108 21 15.583333 21 15 C 21 14.416667 20.745244 13.851892 20.351562 13.501953 C 19.957881 13.152014 19.472222 13 19 13 z " fill="currentColor"/>
</svg>
