<svg xmlns="http://www.w3.org/2000/svg" width="1em" height="1em" viewBox="0 0 24 24" fill="currentColor">
  <path d="M 3 5 A 1 1 0 0 0 2 6 A 1 1 0 0 0 3 7 L 3 17 A 1 1 0 0 0 2 18 A 1 1 0 0 0 3 19 L 5 19 A 1 1 0 0 0 6 18 A 1 1 0 0 0 5 17 L 5 13 L 11 13 L 11 17 A 1 1 0 0 0 10 18 A 1 1 0 0 0 11 19 L 13 19 A 1 1 0 0 0 14 18 A 1 1 0 0 0 13 17 L 13 7 A 1 1 0 0 0 14 6 A 1 1 0 0 0 13 5 L 12 5 L 11 5 A 1 1 0 0 0 10 6 A 1 1 0 0 0 11 7 L 11 11 L 5 11 L 5 7 A 1 1 0 0 0 6 6 A 1 1 0 0 0 5 5 L 3 5 z M 19 9 C 18.277778 9 17.542119 9.2353472 16.960938 9.7519531 C 16.379756 10.268559 16 11.083334 16 12 A 1 1 0 0 0 17 13 A 1 1 0 0 0 18 12 C 18 11.583334 18.120244 11.398107 18.289062 11.248047 C 18.457881 11.097986 18.722222 11 19 11 C 19.277778 11 19.542119 11.09799 19.710938 11.248047 C 19.879756 11.398107 20 11.583334 20 12 C 20 12.120461 19.720292 12.798939 19.378906 13.261719 L 19.378906 13.263672 L 16.207031 17.392578 A 1.0001 1.0001 0 0 0 17 19.001953 L 21 19.001953 A 1 1 0 0 0 22 18.001953 A 1 1 0 0 0 21 17.001953 L 19.029297 17.001953 L 20.976562 14.466797 A 1.0001 1.0001 0 0 0 20.988281 14.453125 C 21.44431 13.83594 22 13.061389 22 12 C 22 11.083334 21.620244 10.268559 21.039062 9.7519531 C 20.457881 9.2353472 19.722222 9 19 9 z " fill="currentColor"/>
</svg>
