<svg xmlns="http://www.w3.org/2000/svg" width="1em" height="1em" viewBox="0 0 24 24" fill="currentColor">
  <path d="M 12.414062 2.4199219 C 11.900219 2.4199219 11.386315 2.6138012 11 3 L 8.4140625 5.5859375 C 7.6416649 6.3585684 7.6416649 7.6414316 8.4140625 8.4140625 L 10.001953 10.001953 L 3.3261719 16.708984 C 2.1178729 17.909223 2.1178729 19.893511 3.3261719 21.09375 C 4.5310845 22.292235 6.507978 22.292235 7.7128906 21.09375 L 14.412109 14.412109 L 16 16 C 16.772631 16.772398 18.055494 16.772398 18.828125 16 L 21.414062 13.414062 C 22.18646 12.641431 22.18646 11.358567 21.414062 10.585938 L 13.828125 3 C 13.44181 2.6138012 12.927905 2.4199219 12.414062 2.4199219 z M 12.414062 4.4140625 L 20 12 L 17.414062 14.585938 L 15.123047 12.294922 A 1 1 0 0 0 15.117188 12.289062 L 12.126953 9.2988281 A 1 1 0 0 0 12.119141 9.2910156 L 9.828125 7 L 12.414062 4.4140625 z M 11.416016 11.416016 L 12.998047 12.998047 L 6.3007812 19.677734 C 5.8594644 20.114656 5.1769193 20.114069 4.7363281 19.675781 C 4.2982377 19.240613 4.2982377 18.562121 4.7363281 18.126953 A 1.0001 1.0001 0 0 0 4.7402344 18.123047 L 11.416016 11.416016 z " fill="currentColor"/>
</svg>
