<svg xmlns="http://www.w3.org/2000/svg" width="1em" height="1em" viewBox="0 0 24 24" fill="currentColor">
  <path d="M 11.599609 2.5253906 C 11.361614 2.5203122 11.125187 2.5487496 10.896484 2.609375 C 10.286611 2.7710427 9.7378592 3.1604138 9.3925781 3.7363281 C 8.7753961 4.7678523 8.875049 6.0754113 9.6113281 7 L 3.5 7 C 2.7500001 7 2.0602257 7.3172556 1.6269531 7.8046875 C 1.1936805 8.2921194 1 8.9027779 1 9.5 C 1 10.097222 1.1936805 10.707881 1.6269531 11.195312 C 2.0602257 11.682743 2.7500001 12 3.5 12 L 6.046875 12 C 6.015731 12.165734 6 12.33339 6 12.5 C 6 13.097222 6.1936805 13.70788 6.6269531 14.195312 C 6.7732571 14.359904 6.9492436 14.504879 7.1464844 14.625 C 7.0472971 14.909003 7 15.206234 7 15.5 C 7 16.097222 7.1936805 16.707881 7.6269531 17.195312 C 7.7732571 17.359905 7.9492435 17.504879 8.1464844 17.625 C 8.0472971 17.909003 8 18.206234 8 18.5 C 8 19.097222 8.1936805 19.707881 8.6269531 20.195312 C 9.0602257 20.682744 9.7500001 21 10.5 21 L 15 21 C 18.854149 21 22 17.854149 22 14 L 22 12.208984 L 22 12.207031 L 22 12 A 1.0001 1.0001 0 0 0 21.929688 11.931641 C 21.835911 9.6898592 20.733241 7.6017986 18.849609 6.3613281 A 1.0001 1.0001 0 0 0 18.847656 6.359375 L 18.546875 6.1621094 C 17.94604 5.7704786 16.104544 4.7220529 12.761719 2.8417969 C 12.395952 2.6360146 11.996269 2.5338546 11.599609 2.5253906 z M 11.498047 4.5175781 C 11.591484 4.512011 11.689208 4.5341539 11.78125 4.5859375 C 15.118424 6.4630148 17.096627 7.6055214 17.453125 7.8378906 L 17.75 8.03125 C 19.155801 8.9570439 20.000284 10.52377 20 12.207031 L 20 14 C 20 16.773268 17.773268 19 15 19 L 10.5 19 C 10.25 19 10.189774 18.942256 10.123047 18.867188 C 10.05632 18.792119 10 18.652778 10 18.5 C 10 18.347222 10.05632 18.207881 10.123047 18.132812 C 10.189774 18.057744 10.25 18 10.5 18 L 11 18 A 1 1 0 0 0 12 17 A 1 1 0 0 0 11 16 L 10.5 16 L 9.5 16 C 9.2500003 16 9.189774 15.942256 9.1230469 15.867188 C 9.0563197 15.792118 9 15.652778 9 15.5 C 9 15.347222 9.0563197 15.20788 9.1230469 15.132812 C 9.189774 15.057743 9.2500003 15 9.5 15 L 11 15 A 1 1 0 0 0 12 14 A 1 1 0 0 0 11 13 L 8.5 13 C 8.2500003 13 8.189774 12.942256 8.1230469 12.867188 C 8.0563197 12.792118 8 12.652778 8 12.5 C 8 12.347222 8.0563197 12.20788 8.1230469 12.132812 C 8.189774 12.057743 8.2500003 12 8.5 12 L 11 12 A 1 1 0 0 0 12 11 A 1 1 0 0 0 11 10 L 3.5 10 C 3.2500003 10 3.189774 9.9422556 3.1230469 9.8671875 C 3.0563197 9.7921194 3 9.6527779 3 9.5 C 3 9.3472221 3.0563197 9.2078806 3.1230469 9.1328125 C 3.189774 9.0577444 3.2500003 9 3.5 9 L 12 9 A 1 1 0 0 0 12.130859 8.9921875 A 1 1 0 0 0 12.382812 8.9238281 A 1 1 0 0 0 12.707031 8.7070312 A 1 1 0 0 0 12.792969 8.609375 A 1 1 0 0 0 12.923828 8.3828125 A 1 1 0 0 0 12.992188 8.1308594 A 1 1 0 0 0 13 8 A 1 1 0 0 0 12.976562 7.7949219 A 1 1 0 0 0 12.964844 7.7421875 A 1 1 0 0 0 12.923828 7.6171875 A 1 1 0 0 0 12.921875 7.6113281 A 1 1 0 0 0 12.865234 7.5 A 1 1 0 0 0 12.861328 7.4921875 A 1 1 0 0 0 12.792969 7.390625 A 1 1 0 0 0 12.785156 7.3808594 A 1 1 0 0 0 12.707031 7.2929688 L 12.697266 7.2832031 L 11.238281 5.8242188 C 10.953619 5.5385157 10.900348 5.1097637 11.107422 4.7636719 C 11.197929 4.6127088 11.342319 4.5268566 11.498047 4.5175781 z " fill="currentColor"/>
</svg>
