<svg xmlns="http://www.w3.org/2000/svg" width="1em" height="1em" viewBox="0 0 24 24" fill="currentColor">
  <path d="M 12.400391 2.5253906 C 12.003731 2.5338546 11.604048 2.6360146 11.238281 2.8417969 C 7.8954558 4.7220529 6.0539602 5.7704786 5.453125 6.1621094 L 5.1523438 6.359375 A 1.0001 1.0001 0 0 0 5.1503906 6.3613281 C 3.2667563 7.6018017 2.1640875 9.6898582 2.0703125 11.931641 A 1.0001 1.0001 0 0 0 2 12 L 2 12.207031 L 2 12.208984 L 2 14 C 2 17.854149 5.1458514 21 9 21 L 13.5 21 C 14.25 21 14.939774 20.682744 15.373047 20.195312 C 15.806319 19.707881 16 19.097222 16 18.5 C 16 18.206234 15.952703 17.909003 15.853516 17.625 C 16.050756 17.504879 16.226743 17.359905 16.373047 17.195312 C 16.806319 16.707881 17 16.097222 17 15.5 C 17 15.206234 16.952703 14.909003 16.853516 14.625 C 17.050756 14.504879 17.226743 14.359904 17.373047 14.195312 C 17.806319 13.70788 18 13.097222 18 12.5 C 18 12.33339 17.984269 12.165734 17.953125 12 L 20.5 12 C 21.25 12 21.939774 11.682744 22.373047 11.195312 C 22.806319 10.70788 23 10.097222 23 9.5 C 23 8.9027779 22.806319 8.2921194 22.373047 7.8046875 C 21.939774 7.3172556 21.25 7 20.5 7 L 14.388672 7 C 15.126347 6.0753493 15.225719 4.7677599 14.607422 3.7363281 C 14.262141 3.1604138 13.713389 2.7710427 13.103516 2.609375 C 12.874813 2.5487496 12.638386 2.5203122 12.400391 2.5253906 z M 12.455078 4.5175781 C 12.628328 4.5108665 12.79302 4.5976125 12.892578 4.7636719 C 13.099492 5.1088421 13.046176 5.539291 12.761719 5.8242188 L 11.302734 7.2832031 L 11.292969 7.2929688 A 1 1 0 0 0 11.25 7.3417969 A 1 1 0 0 0 11.212891 7.3847656 A 1 1 0 0 0 11.175781 7.4394531 A 1 1 0 0 0 11.138672 7.4921875 A 1 1 0 0 0 11.134766 7.5 A 1 1 0 0 0 11.078125 7.6113281 A 1 1 0 0 0 11.076172 7.6171875 A 1 1 0 0 0 11.035156 7.7421875 A 1 1 0 0 0 11.023438 7.7949219 A 1 1 0 0 0 11 8 A 1 1 0 0 0 11.007812 8.1308594 A 1 1 0 0 0 11.076172 8.3828125 A 1 1 0 0 0 11.617188 8.9238281 A 1 1 0 0 0 11.869141 8.9921875 A 1 1 0 0 0 12 9 L 20.5 9 C 20.75 9 20.810226 9.057744 20.876953 9.1328125 C 20.94368 9.2078806 21 9.3472221 21 9.5 C 21 9.6527779 20.94368 9.7921194 20.876953 9.8671875 C 20.810226 9.9422556 20.75 10 20.5 10 L 13 10 A 1 1 0 0 0 12 11 A 1 1 0 0 0 13 12 L 15.5 12 C 15.75 12 15.810226 12.05774 15.876953 12.132812 C 15.94368 12.20788 16 12.347222 16 12.5 C 16 12.652778 15.94368 12.792119 15.876953 12.867188 C 15.810226 12.942255 15.75 13 15.5 13 L 13 13 A 1 1 0 0 0 12 14 A 1 1 0 0 0 13 15 L 14.5 15 C 14.75 15 14.810226 15.05774 14.876953 15.132812 C 14.94368 15.20788 15 15.347222 15 15.5 C 15 15.652778 14.94368 15.792119 14.876953 15.867188 C 14.810226 15.942255 14.75 16 14.5 16 L 13.5 16 L 13 16 A 1 1 0 0 0 12 17 A 1 1 0 0 0 13 18 L 13.5 18 C 13.75 18 13.810226 18.05774 13.876953 18.132812 C 13.94368 18.207881 14 18.347222 14 18.5 C 14 18.652778 13.94368 18.792119 13.876953 18.867188 C 13.810226 18.942256 13.75 19 13.5 19 L 9 19 C 6.2267316 19 4 16.773268 4 14 L 4 12.207031 C 3.9997161 10.52377 4.8441993 8.9570439 6.25 8.03125 L 6.546875 7.8378906 C 6.9033731 7.6055214 8.8815757 6.4630148 12.21875 4.5859375 C 12.295452 4.5427845 12.376328 4.5206289 12.455078 4.5175781 z " fill="currentColor"/>
</svg>
