<svg xmlns="http://www.w3.org/2000/svg" width="1em" height="1em" viewBox="0 0 24 24" fill="currentColor">
  <path d="M 12 2 C 11.277778 2 10.542119 2.2353472 9.9609375 2.7519531 C 9.3797556 3.268559 9 4.0833335 9 5 A 1.0001 1.0001 0 0 0 9 5.0039062 C 9.0057031 6.3619439 9.3606568 7.7680717 10.248047 8.828125 L 3.5429688 12.554688 C 2.5916032 13.083019 1.9997135 14.08951 2 15.177734 L 2 16 C 2 17.64501 3.3549904 19 5 19 C 5 20.64501 6.3549904 22 8 22 L 16 22 C 17.64501 22 19 20.64501 19 19 C 20.64501 19 22 17.64501 22 16 L 22 15.177734 C 22.000287 14.08951 21.408397 13.083019 20.457031 12.554688 L 12.511719 8.1386719 A 1 1 0 0 0 12.486328 8.125 C 11.405695 7.5235137 11.006886 6.4523618 11 5 L 11 4.9980469 C 11.000544 4.5833648 11.120625 4.3977677 11.289062 4.2480469 C 11.45788 4.0979833 11.722222 4 12 4 C 12.277778 4 12.542119 4.0979864 12.710938 4.2480469 C 12.879755 4.3981073 13 4.5833337 13 5 A 1 1 0 0 0 14 6 A 1 1 0 0 0 15 5 C 15 4.0833335 14.620244 3.268559 14.039062 2.7519531 C 13.45788 2.2353472 12.722222 2 12 2 z M 12 10.144531 L 19.486328 14.302734 C 19.805473 14.479969 20.000096 14.810726 20 15.175781 A 1.0001 1.0001 0 0 0 20 15.177734 L 20 16 C 20 16.564129 19.564129 17 19 17 L 18.826172 17 C 18.410315 15.839913 17.295143 15 16 15 L 8 15 C 6.7048578 15 5.5896855 15.839913 5.1738281 17 L 5 17 C 4.4358706 17 4 16.564129 4 16 L 4 15.177734 A 1.0001 1.0001 0 0 0 4 15.175781 C 3.9999039 14.810726 4.1945268 14.479969 4.5136719 14.302734 L 12 10.144531 z M 8 17 L 16 17 C 16.564127 17 16.999997 17.435874 17 18 L 17 19 C 17 19.564129 16.564129 20 16 20 L 8 20 C 7.4358706 20 7 19.564129 7 19 L 7 18 C 7 17.435871 7.4358706 17 8 17 z " fill="currentColor"/>
</svg>
