<svg xmlns="http://www.w3.org/2000/svg" width="1em" height="1em" viewBox="0 0 24 24" fill="currentColor">
  <path d="M 10.982422 3 A 1 1 0 0 0 10.029297 3.7578125 L 8.96875 8 L 5 8 A 1 1 0 0 0 4 9 A 1 1 0 0 0 5 10 L 8.46875 10 L 7.46875 14 L 5 14 A 1 1 0 0 0 4 15 A 1 1 0 0 0 5 16 L 6.96875 16 L 6.0292969 19.757812 A 1 1 0 0 0 6.7578125 20.970703 A 1 1 0 0 0 7.9707031 20.242188 L 9.03125 16 L 12.96875 16 L 12.029297 19.757812 A 1 1 0 0 0 12.757812 20.970703 A 1 1 0 0 0 13.970703 20.242188 L 15.03125 16 L 19 16 A 1 1 0 0 0 20 15 A 1 1 0 0 0 19 14 L 15.53125 14 L 16.53125 10 L 19 10 A 1 1 0 0 0 20 9 A 1 1 0 0 0 19 8 L 17.03125 8 L 17.970703 4.2421875 A 1 1 0 0 0 17.242188 3.0292969 A 1 1 0 0 0 16.029297 3.7578125 L 14.96875 8 L 11.03125 8 L 11.970703 4.2421875 A 1 1 0 0 0 11.242188 3.0292969 A 1 1 0 0 0 10.982422 3 z M 10.53125 10 L 14.46875 10 L 13.46875 14 L 9.53125 14 L 10.53125 10 z " fill="currentColor"/>
</svg>
