<svg xmlns="http://www.w3.org/2000/svg" width="1em" height="1em" viewBox="0 0 24 24" fill="currentColor">
  <path d="M 3 2 A 1 1 0 0 0 2.2929688 2.2929688 A 1 1 0 0 0 2.2929688 3.7070312 L 6 7.4140625 L 6 18 L 5 18 A 1 1 0 0 0 4 19 A 1 1 0 0 0 5 20 L 9 20 A 1 1 0 0 0 10 19 A 1 1 0 0 0 9 18 L 8 18 L 8 13 L 11.585938 13 L 16 17.414062 L 16 18 L 15 18 A 1 1 0 0 0 14 19 A 1 1 0 0 0 15 20 L 18.585938 20 L 20.292969 21.707031 A 1 1 0 0 0 21.707031 21.707031 A 1 1 0 0 0 21.707031 20.292969 L 19.716797 18.302734 A 1 1 0 0 0 19.697266 18.283203 L 17.716797 16.302734 A 1 1 0 0 0 17.697266 16.283203 L 12.716797 11.302734 A 1 1 0 0 0 12.697266 11.283203 L 7.7167969 6.3027344 A 1 1 0 0 0 7.6972656 6.2832031 L 3.7070312 2.2929688 A 1 1 0 0 0 3 2 z M 15 4 A 1 1 0 0 0 14 5 A 1 1 0 0 0 15 6 L 16 6 L 16 11 A 1 1 0 0 0 15 12 A 1 1 0 0 0 16 13 A 1 1 0 0 0 17 14 A 1 1 0 0 0 18 13 L 18 6 L 19 6 A 1 1 0 0 0 20 5 A 1 1 0 0 0 19 4 L 15 4 z M 8 9.4140625 L 9.5859375 11 L 8 11 L 8 9.4140625 z " fill="currentColor"/>
</svg>
