<svg xmlns="http://www.w3.org/2000/svg" width="1em" height="1em" viewBox="0 0 24 24" fill="currentColor">
  <path d="M 5 4 A 1 1 0 0 0 4 5 A 1 1 0 0 0 5 6 L 6 6 L 6 18 L 5 18 A 1 1 0 0 0 4 19 A 1 1 0 0 0 5 20 L 9 20 A 1 1 0 0 0 10 19 A 1 1 0 0 0 9 18 L 8 18 L 8 13 L 16 13 L 16 18 L 15 18 A 1 1 0 0 0 14 19 A 1 1 0 0 0 15 20 L 19 20 A 1 1 0 0 0 20 19 A 1 1 0 0 0 19 18 L 18 18 L 18 6 L 19 6 A 1 1 0 0 0 20 5 A 1 1 0 0 0 19 4 L 15 4 A 1 1 0 0 0 14 5 A 1 1 0 0 0 15 6 L 16 6 L 16 11 L 8 11 L 8 6 L 9 6 A 1 1 0 0 0 10 5 A 1 1 0 0 0 9 4 L 7 4 L 5 4 z " fill="currentColor"/>
</svg>
