<svg xmlns="http://www.w3.org/2000/svg" width="1em" height="1em" viewBox="0 0 24 24" fill="currentColor">
  <path d="M 8.0195312 3 C 6.6076329 2.9911336 5.1843959 3.4739516 4.0371094 4.4785156 C 1.4147402 6.7746621 1.3065303 10.856347 3.8027344 13.289062 L 10.349609 19.773438 A 1 1 0 0 0 11.763672 19.765625 A 1 1 0 0 0 11.757812 18.351562 L 5.203125 11.863281 A 1.0001 1.0001 0 0 0 5.1972656 11.857422 C 3.5151439 10.218123 3.5883271 7.5297312 5.3554688 5.9824219 C 7.1226106 4.4351126 9.7944435 4.7196206 11.197266 6.6035156 A 1.0001 1.0001 0 0 0 12.798828 6.6074219 C 14.206214 4.7356774 16.871515 4.4585868 18.632812 6.0019531 C 20.392971 7.5443202 20.468153 10.220051 18.800781 11.861328 A 1 1 0 0 0 18.796875 11.861328 L 18.261719 12.390625 A 1 1 0 0 0 18.251953 13.804688 A 1 1 0 0 0 19.667969 13.8125 L 20.191406 13.294922 A 1 1 0 0 0 20.201172 13.291016 C 22.680706 10.855582 22.565142 6.7885822 19.951172 4.4980469 C 17.616025 2.451843 14.208596 2.6785134 12.003906 4.7070312 C 11.033959 3.8061875 9.8852091 3.1672174 8.6230469 3.0332031 C 8.4226449 3.0119248 8.221231 3.0012666 8.0195312 3 z M 17 16 A 1 1 0 0 0 16.292969 16.292969 L 14.292969 18.292969 A 1.0001 1.0001 0 0 0 14.292969 19.707031 L 16.292969 21.707031 A 1 1 0 0 0 17.707031 21.707031 A 1 1 0 0 0 17.707031 20.292969 L 16.414062 19 L 17.707031 17.707031 A 1 1 0 0 0 17.707031 16.292969 A 1 1 0 0 0 17 16 z M 20 16 A 1 1 0 0 0 19.292969 16.292969 A 1 1 0 0 0 19.292969 17.707031 L 20.585938 19 L 19.292969 20.292969 A 1 1 0 0 0 19.292969 21.707031 A 1 1 0 0 0 20.707031 21.707031 L 22.707031 19.707031 A 1.0001 1.0001 0 0 0 22.707031 18.292969 L 20.707031 16.292969 A 1 1 0 0 0 20 16 z " fill="currentColor"/>
</svg>
