<svg xmlns="http://www.w3.org/2000/svg" width="1em" height="1em" viewBox="0 0 24 24" fill="currentColor">
  <path d="M 16.005859 2.953125 C 15.817189 2.9485515 15.628215 2.9541316 15.4375 2.96875 C 14.217391 3.0622721 13.034782 3.7151968 11.996094 4.7011719 C 9.794201 2.6597676 6.3774499 2.4240094 4.0351562 4.4746094 C 1.4111548 6.7718352 1.3033076 10.856876 3.8027344 13.289062 L 11.296875 20.710938 A 1 1 0 0 0 12.710938 20.703125 A 1 1 0 0 0 12.703125 19.289062 L 5.203125 11.861328 A 1.0001 1.0001 0 0 0 5.1972656 11.855469 C 3.5129249 10.216482 3.5832848 7.5265838 5.3515625 5.9785156 C 7.1198402 4.4304474 9.7953404 4.7153119 11.197266 6.6015625 A 1.0001 1.0001 0 0 0 12.796875 6.6113281 C 13.654383 5.4836617 14.614233 5.0376718 15.589844 4.9628906 C 16.565455 4.8881096 17.582279 5.225542 18.400391 5.8476562 C 19.218502 6.4697705 19.817212 7.3601972 20.005859 8.3203125 C 20.194507 9.2804278 20.021569 10.325459 19.164062 11.453125 A 1 1 0 0 0 19.355469 12.855469 A 1 1 0 0 0 20.755859 12.664062 C 21.916017 11.138392 22.261816 9.4370351 21.966797 7.9355469 C 21.671778 6.4340586 20.783217 5.1469952 19.611328 4.2558594 C 18.585926 3.4761155 17.326553 2.9851392 16.005859 2.953125 z M 19 15 A 1 1 0 0 0 18 16 L 18 18 L 16 18 A 1 1 0 0 0 15 19 A 1 1 0 0 0 16 20 L 18 20 L 18 22 A 1 1 0 0 0 19 23 A 1 1 0 0 0 20 22 L 20 20 L 22 20 A 1 1 0 0 0 23 19 A 1 1 0 0 0 22 18 L 20 18 L 20 16 A 1 1 0 0 0 19 15 z " fill="currentColor"/>
</svg>
