<svg xmlns="http://www.w3.org/2000/svg" width="1em" height="1em" viewBox="0 0 24 24" fill="currentColor">
  <path d="M 4 3 C 2.9072751 3 2 3.9072751 2 5 L 2 15 C 2 16.092725 2.9072751 17 4 17 L 8 17 L 8 19 L 7 19 A 1 1 0 0 0 6 20 A 1 1 0 0 0 7 21 L 17 21 A 1 1 0 0 0 18 20 A 1 1 0 0 0 17 19 L 16 19 L 16 17 L 20 17 C 21.092725 17 22 16.092725 22 15 L 22 5 C 22 3.9072751 21.092725 3 20 3 L 4 3 z M 4 5 L 20 5 L 20 15 L 4 15 L 4 5 z M 13 6 A 1.0001 1.0001 0 0 0 12.050781 6.6835938 L 10.697266 10.744141 L 9.8320312 9.4453125 A 1.0001 1.0001 0 0 0 9 9 L 7 9 A 1 1 0 0 0 6 10 A 1 1 0 0 0 7 11 L 8.4648438 11 L 10.167969 13.554688 A 1.0001 1.0001 0 0 0 11.949219 13.316406 L 13 10.164062 L 13.050781 10.316406 A 1.0001 1.0001 0 0 0 14 11 L 17 11 A 1 1 0 0 0 18 10 A 1 1 0 0 0 17 9 L 14.720703 9 L 13.949219 6.6835938 A 1.0001 1.0001 0 0 0 13 6 z M 10 17 L 14 17 L 14 19 L 10 19 L 10 17 z " fill="currentColor"/>
</svg>
