<svg xmlns="http://www.w3.org/2000/svg" width="1em" height="1em" viewBox="0 0 24 24" fill="currentColor">
  <path d="M 8.0195312 2.9960938 C 6.6070728 2.986342 5.1831569 3.4695731 4.0351562 4.4746094 C 1.4111548 6.7718352 1.3033076 10.856876 3.8027344 13.289062 L 11.296875 20.710938 A 1.0001 1.0001 0 0 0 12.703125 20.710938 L 13.658203 19.765625 A 1 1 0 0 0 13.666016 18.351562 A 1 1 0 0 0 12.251953 18.34375 L 12 18.59375 L 5.203125 11.861328 A 1.0001 1.0001 0 0 0 5.1972656 11.855469 C 3.5129379 10.216494 3.5832848 7.5265838 5.3515625 5.9785156 C 7.1198402 4.4304474 9.7953404 4.7153119 11.197266 6.6015625 A 1.0001 1.0001 0 0 0 12.798828 6.6074219 C 14.206214 4.7356774 16.871515 4.4585868 18.632812 6.0019531 C 20.392971 7.5443202 20.468153 10.220051 18.800781 11.861328 A 1 1 0 0 0 18.796875 11.861328 L 18.328125 12.326172 A 1 1 0 0 0 18.322266 13.740234 A 1 1 0 0 0 19.736328 13.746094 L 20.1875 13.296875 A 1 1 0 0 0 20.201172 13.291016 C 22.680706 10.855582 22.565142 6.7885822 19.951172 4.4980469 C 17.615646 2.4515429 14.206586 2.6775444 12.001953 4.7070312 C 11.032431 3.8056343 9.8852218 3.1658912 8.6230469 3.03125 C 8.4225583 3.0098631 8.221311 2.9974869 8.0195312 2.9960938 z M 16.5 16 A 1 1 0 0 0 15.5 17 A 1 1 0 0 0 16.5 18 L 18.585938 18 L 15.292969 21.292969 A 1 1 0 0 0 15.292969 22.707031 A 1 1 0 0 0 16.707031 22.707031 L 20 19.414062 L 20 21.5 A 1 1 0 0 0 21 22.5 A 1 1 0 0 0 22 21.5 L 22 17 A 1 1 0 0 0 21.992188 16.869141 A 1.0001 1.0001 0 0 0 21.923828 16.617188 A 1 1 0 0 0 21.707031 16.292969 A 1 1 0 0 0 21.382812 16.076172 A 1.0001 1.0001 0 0 0 21.130859 16.007812 A 1.0001 1.0001 0 0 0 21 16 L 16.5 16 z " fill="currentColor"/>
</svg>
