<svg xmlns="http://www.w3.org/2000/svg" width="1em" height="1em" viewBox="0 0 24 24" fill="currentColor">
  <path d="M 8.0195312 2.9960938 C 6.6070728 2.986342 5.1831569 3.4695731 4.0351562 4.4746094 C 1.4111548 6.7718352 1.3033076 10.856876 3.8027344 13.289062 L 11.296875 20.710938 A 1.0001 1.0001 0 0 0 12.703125 20.710938 L 20.191406 13.294922 A 1 1 0 0 0 20.201172 13.291016 C 22.680706 10.855582 22.565142 6.7885822 19.951172 4.4980469 C 17.61561 2.4514959 14.206586 2.6775444 12.001953 4.7070312 C 11.032431 3.8056343 9.8852218 3.1658912 8.6230469 3.03125 C 8.4225583 3.0098631 8.221311 2.9974869 8.0195312 2.9960938 z M 8.0117188 4.9804688 C 8.1457613 4.9811854 8.278981 4.9877518 8.4121094 5.0019531 C 9.2108979 5.087163 9.9829436 5.4147899 10.615234 5.9707031 L 8 8.5859375 C 7.2276024 9.3585684 7.2276024 10.641431 8 11.414062 L 8.5429688 11.957031 C 9.6155579 13.02962 11.384442 13.02962 12.457031 11.957031 L 13.457031 10.957031 C 14.317528 10.096545 15.682472 10.096545 16.542969 10.957031 L 18.119141 12.533203 L 17.027344 13.613281 L 15.707031 12.292969 A 1 1 0 0 0 15 12 A 1 1 0 0 0 14.292969 12.292969 A 1 1 0 0 0 14.292969 13.707031 L 15.607422 15.021484 L 14.515625 16.101562 L 13.207031 14.792969 A 1 1 0 0 0 12.5 14.5 A 1 1 0 0 0 11.792969 14.792969 A 1 1 0 0 0 11.792969 16.207031 L 13.09375 17.507812 L 12 18.591797 L 5.203125 11.861328 A 1.0001 1.0001 0 0 0 5.1972656 11.855469 C 3.5129379 10.216494 3.5832848 7.5265838 5.3515625 5.9785156 C 6.125184 5.3012358 7.0734209 4.9754521 8.0117188 4.9804688 z M 15.982422 5.0019531 C 16.918014 4.999191 17.862245 5.3267304 18.632812 6.0019531 C 20.121115 7.3061022 20.405089 9.4209106 19.449219 11.035156 L 17.957031 9.5429688 C 16.332238 7.9181953 13.667762 7.9181953 12.042969 9.5429688 L 11.042969 10.542969 C 10.735558 10.85038 10.264442 10.85038 9.9570312 10.542969 L 9.4140625 10 L 12.640625 6.7734375 A 1.0001 1.0001 0 0 0 12.798828 6.6074219 C 13.590483 5.5545656 14.779518 5.0055044 15.982422 5.0019531 z " fill="currentColor"/>
</svg>
