<svg xmlns="http://www.w3.org/2000/svg" width="1em" height="1em" viewBox="0 0 24 24" fill="currentColor">
  <path d="M 15.984375 2.9257812 C 15.795652 2.9225359 15.606632 2.9293472 15.416016 2.9453125 C 14.198377 3.047297 13.02298 3.7068199 11.992188 4.6972656 C 9.7900663 2.6594862 6.3760038 2.4252753 4.0351562 4.4746094 C 1.4111548 6.7718352 1.3033076 10.856876 3.8027344 13.289062 L 11.296875 20.710938 A 1.0001 1.0001 0 0 0 12.707031 20.707031 L 13.707031 19.707031 A 1 1 0 0 0 13.707031 18.292969 A 1 1 0 0 0 12.292969 18.292969 L 11.996094 18.589844 L 5.203125 11.861328 A 1.0001 1.0001 0 0 0 5.1972656 11.855469 C 3.5129379 10.216488 3.5832848 7.5265838 5.3515625 5.9785156 C 7.1198402 4.4304474 9.7953404 4.7153119 11.197266 6.6015625 A 1.0001 1.0001 0 0 0 12.800781 6.6054688 C 13.650365 5.4716954 14.6069 5.0191731 15.582031 4.9375 C 16.557163 4.855827 17.577849 5.186368 18.400391 5.8027344 C 19.222932 6.4191008 19.826048 7.304841 20.021484 8.2636719 C 20.21692 9.2225028 20.052704 10.270527 19.203125 11.404297 A 1 1 0 0 0 19.404297 12.802734 A 1 1 0 0 0 20.802734 12.603516 C 21.95215 11.06962 22.286096 9.3646737 21.980469 7.8652344 C 21.674842 6.365795 20.777818 5.0860086 19.599609 4.203125 C 18.568677 3.4306018 17.305436 2.9484986 15.984375 2.9257812 z M 18.933594 15.001953 A 1 1 0 0 0 18.804688 15.019531 A 1 1 0 0 0 18.167969 15.445312 L 16.167969 18.445312 A 1.0001 1.0001 0 0 0 17 20 L 19.130859 20 L 18.167969 21.445312 A 1 1 0 0 0 18.445312 22.832031 A 1 1 0 0 0 19.832031 22.554688 L 21.832031 19.554688 A 1.0001 1.0001 0 0 0 21 18 L 18.869141 18 L 19.832031 16.554688 A 1 1 0 0 0 19.554688 15.167969 A 1 1 0 0 0 18.933594 15.001953 z " fill="currentColor"/>
</svg>
