<svg xmlns="http://www.w3.org/2000/svg" width="1em" height="1em" viewBox="0 0 24 24" fill="currentColor">
  <path d="M 8.0195312 2.9960938 C 6.6070728 2.986342 5.1831569 3.4695731 4.0351562 4.4746094 C 1.4111548 6.7718352 1.3033076 10.856876 3.8027344 13.289062 L 9.0253906 18.462891 A 1 1 0 0 0 10.439453 18.457031 A 1 1 0 0 0 10.433594 17.042969 L 5.203125 11.861328 A 1.0001 1.0001 0 0 0 5.1972656 11.855469 C 3.5129379 10.216494 3.5832848 7.5265838 5.3515625 5.9785156 C 7.1198402 4.4304474 9.7953404 4.7153119 11.197266 6.6015625 A 1.0001 1.0001 0 0 0 12.798828 6.6074219 C 14.300822 4.6097687 16.395678 4.6050485 18.025391 5.5644531 C 19.655103 6.5238577 20.668212 8.3579413 19.650391 10.640625 A 1 1 0 0 0 20.15625 11.960938 A 1 1 0 0 0 21.476562 11.455078 C 22.883881 8.2988617 21.404396 5.2311551 19.041016 3.8398438 C 16.939688 2.6028012 14.065878 2.7311748 11.984375 4.6914062 C 11.017676 3.7998182 9.87768 3.1650867 8.6230469 3.03125 C 8.4225583 3.0098631 8.221311 2.9974869 8.0195312 2.9960938 z M 17.800781 13.042969 C 17.298499 13.042969 16.794578 13.285127 16.552734 13.771484 A 1.0001 1.0001 0 0 0 16.552734 13.773438 L 15.699219 15.496094 L 13.796875 15.771484 C 12.714916 15.921349 12.238116 17.387297 13.023438 18.146484 L 14.400391 19.484375 L 14.074219 21.375 A 1.0001 1.0001 0 0 0 14.072266 21.386719 C 13.900355 22.455046 15.129997 23.341367 16.089844 22.841797 A 1.0001 1.0001 0 0 0 16.091797 22.839844 L 17.800781 21.945312 L 19.503906 22.837891 C 20.467028 23.348584 21.709159 22.447253 21.523438 21.373047 L 21.525391 21.375 L 21.199219 19.484375 L 22.578125 18.144531 A 1.0001 1.0001 0 0 0 22.580078 18.142578 C 23.357847 17.382769 22.884212 15.927618 21.808594 15.771484 L 21.806641 15.771484 L 19.900391 15.496094 L 19.046875 13.773438 A 1.0001 1.0001 0 0 0 19.046875 13.771484 C 18.805031 13.285127 18.303064 13.042969 17.800781 13.042969 z M 17.800781 15.761719 L 18.341797 16.853516 A 1.0001 1.0001 0 0 0 19.09375 17.400391 L 20.294922 17.574219 L 19.427734 18.416016 A 1.0001 1.0001 0 0 0 19.138672 19.302734 L 19.34375 20.496094 L 18.263672 19.931641 A 1 1 0 0 0 17.396484 19.951172 A 1 1 0 0 0 17.335938 19.931641 L 16.255859 20.498047 L 16.460938 19.302734 A 1.0001 1.0001 0 0 0 16.171875 18.416016 L 15.304688 17.574219 L 16.505859 17.400391 A 1.0001 1.0001 0 0 0 17.259766 16.853516 L 17.800781 15.761719 z " fill="currentColor"/>
</svg>
