<svg xmlns="http://www.w3.org/2000/svg" width="1em" height="1em" viewBox="0 0 24 24" fill="currentColor">
  <path d="M 15.884766 2.9414062 C 15.699103 2.9414978 15.513359 2.9501478 15.326172 2.96875 C 14.136266 3.087 12.994256 3.7364356 11.990234 4.6972656 C 9.7880539 2.6604507 6.3756189 2.4256123 4.0351562 4.4746094 C 1.4111548 6.7718352 1.3033076 10.856876 3.8027344 13.289062 L 11.296875 20.710938 A 1.0001 1.0001 0 0 0 12.705078 20.710938 L 14.005859 19.419922 L 15.271484 20.703125 A 1.0001 1.0001 0 0 0 15.285156 20.708984 A 1 1 0 0 0 15.310547 20.71875 A 1.0001 1.0001 0 0 0 15.982422 21 L 15.990234 21 A 1 1 0 0 0 15.992188 21 A 1 1 0 0 0 16.699219 20.705078 L 20.896484 16.482422 A 1.0001 1.0001 0 0 0 20.898438 16.478516 C 22.177574 15.182625 22.332664 13.174698 21.365234 11.705078 C 22.080844 10.338294 22.227919 8.9097344 21.921875 7.6464844 C 21.567544 6.1839217 20.64944 4.952854 19.46875 4.1152344 C 18.435646 3.3823171 17.184407 2.9407652 15.884766 2.9414062 z M 15.884766 4.9414062 C 16.73212 4.9428016 17.593609 5.2360894 18.3125 5.7460938 C 19.13409 6.328956 19.751286 7.1792554 19.978516 8.1171875 C 20.146425 8.8102639 20.125855 9.5575856 19.794922 10.361328 C 18.572253 9.819472 17.108584 9.9932143 16 10.830078 C 15.335576 10.324513 14.566053 10.009245 13.765625 10.007812 C 12.796899 10.006113 11.828212 10.371908 11.097656 11.109375 C 9.6384231 12.582484 9.6339247 14.984616 11.087891 16.462891 A 1.0001 1.0001 0 0 0 11.089844 16.464844 L 12.599609 17.996094 L 12 18.591797 L 5.203125 11.861328 A 1.0001 1.0001 0 0 0 5.1972656 11.855469 C 3.5129379 10.216494 3.5832848 7.5265838 5.3515625 5.9785156 C 7.1198402 4.4304474 9.7953404 4.7153119 11.197266 6.6015625 A 1.0001 1.0001 0 0 0 12.798828 6.6074219 C 13.624204 5.5085732 14.563102 5.0544202 15.523438 4.9589844 C 15.643479 4.9470549 15.763715 4.9412069 15.884766 4.9414062 z M 13.761719 11.994141 C 14.210201 11.994944 14.660138 12.169985 15.005859 12.521484 A 1.0001 1.0001 0 0 0 15.005859 12.523438 L 15.285156 12.806641 A 1.0001 1.0001 0 0 0 16.707031 12.808594 L 16.986328 12.527344 A 1.0001 1.0001 0 0 0 16.988281 12.525391 C 17.682236 11.824871 18.783168 11.826303 19.474609 12.529297 A 1.0001 1.0001 0 0 0 19.474609 12.53125 C 20.17838 13.244238 20.17838 14.36123 19.474609 15.074219 L 19.478516 15.072266 L 15.988281 18.582031 L 14.800781 17.378906 A 1 1 0 0 0 14.796875 17.375 A 1 1 0 0 0 14.726562 17.294922 A 1 1 0 0 0 14.652344 17.228516 A 1 1 0 0 0 14.648438 17.224609 L 12.513672 15.060547 C 11.811164 14.346311 11.812548 13.229318 12.517578 12.517578 C 12.864555 12.167318 13.313236 11.993338 13.761719 11.994141 z " fill="currentColor"/>
</svg>
