<svg xmlns="http://www.w3.org/2000/svg" width="1em" height="1em" viewBox="0 0 24 24" fill="currentColor">
  <path d="M 8.0195312 2.9960938 C 6.6070728 2.986342 5.1831569 3.4695731 4.0351562 4.4746094 C 1.4111548 6.7718352 1.3033076 10.856876 3.8027344 13.289062 L 11.296875 20.710938 A 1.0001 1.0001 0 0 0 12.707031 20.707031 L 13.707031 19.707031 A 1 1 0 0 0 13.707031 18.292969 A 1 1 0 0 0 12.292969 18.292969 L 11.996094 18.589844 L 5.203125 11.861328 A 1.0001 1.0001 0 0 0 5.1972656 11.855469 C 3.5129379 10.216488 3.5832848 7.5265838 5.3515625 5.9785156 C 7.1198402 4.4304474 9.7953404 4.7153119 11.197266 6.6015625 A 1.0001 1.0001 0 0 0 12.798828 6.6074219 C 14.198018 4.7460389 16.193803 4.6275085 17.802734 5.4414062 C 19.411666 6.2553041 20.498614 7.9321047 19.828125 10.162109 A 1 1 0 0 0 20.496094 11.408203 A 1 1 0 0 0 21.742188 10.738281 C 22.679582 7.6205688 21.051777 4.8433564 18.705078 3.65625 C 16.632243 2.6076809 13.939846 2.8476018 11.980469 4.6875 C 11.014439 3.7982037 9.8759122 3.1648981 8.6230469 3.03125 C 8.4225583 3.0098631 8.221311 2.9974869 8.0195312 2.9960938 z M 19 12.5 A 1 1 0 0 0 18 13.5 L 18 14 L 17 14 L 16 14 A 1 1 0 0 0 15 15 A 1 1 0 0 0 16 16 L 16 18 L 16 20 A 1 1 0 0 0 15 21 A 1 1 0 0 0 16 22 L 17 22 L 18 22 L 18 22.5 A 1 1 0 0 0 19 23.5 A 1 1 0 0 0 20 22.5 L 20 21.785156 C 20.515779 21.668759 21.055437 21.552625 21.373047 21.195312 C 21.806319 20.707881 22 20.097222 22 19.5 C 22 18.971586 21.780472 18.454845 21.445312 18 C 21.780472 17.545155 22 17.028414 22 16.5 C 22 15.902778 21.806319 15.292119 21.373047 14.804688 C 21.055437 14.447375 20.515779 14.331241 20 14.214844 L 20 13.5 A 1 1 0 0 0 19 12.5 z M 18 16 L 19 16 L 19.5 16 C 19.75 16 19.810226 16.05774 19.876953 16.132812 C 19.94368 16.207881 20 16.347222 20 16.5 C 20 16.652778 19.94368 16.792119 19.876953 16.867188 C 19.810226 16.942256 19.75 17 19.5 17 L 19 17 L 18 17 L 18 16 z M 18 19 L 19 19 L 19.5 19 C 19.75 19 19.810226 19.05774 19.876953 19.132812 C 19.94368 19.207881 20 19.347222 20 19.5 C 20 19.652778 19.94368 19.792119 19.876953 19.867188 C 19.810226 19.942256 19.75 20 19.5 20 L 19 20 L 18 20 L 18 19 z " fill="currentColor"/>
</svg>
