<svg xmlns="http://www.w3.org/2000/svg" width="1em" height="1em" viewBox="0 0 24 24" fill="currentColor">
  <path d="M 12 2 C 8.3166667 2 5.7580197 2.4294803 4.09375 4.09375 C 2.4294803 5.7580197 2 8.3166667 2 12 C 2 15.683333 2.4294803 18.24198 4.09375 19.90625 C 5.7580197 21.57052 8.3166667 22 12 22 C 15.683333 22 18.24198 21.57052 19.90625 19.90625 C 21.57052 18.24198 22 15.683333 22 12 C 22 8.3166667 21.57052 5.7580197 19.90625 4.09375 C 18.24198 2.4294803 15.683333 2 12 2 z M 12 4 C 15.516667 4 17.456457 4.4720822 18.492188 5.5078125 C 19.527918 6.5435428 20 8.4833333 20 12 C 20 15.516667 19.527918 17.456457 18.492188 18.492188 C 17.456457 19.527918 15.516667 20 12 20 C 8.4833333 20 6.5435428 19.527918 5.5078125 18.492188 C 4.4720822 17.456457 4 15.516667 4 12 C 4 8.4833333 4.4720822 6.5435428 5.5078125 5.5078125 C 6.5435428 4.4720822 8.4833333 4 12 4 z M 11.916016 8.0039062 C 11.751818 8.0094269 11.588579 8.0283647 11.427734 8.0605469 C 10.784358 8.1892754 10.18203 8.5281417 9.7363281 9.0546875 A 1 1 0 0 0 9.8535156 10.464844 A 1 1 0 0 0 11.263672 10.347656 C 11.561504 9.9958016 12.0487 9.897249 12.458984 10.107422 A 1.0001 1.0001 0 0 0 12.460938 10.109375 C 12.999094 10.383582 13.084065 10.797628 12.978516 11.234375 C 12.872966 11.671122 12.607892 12.001815 12.003906 12 A 1 1 0 0 0 11 12.996094 A 1 1 0 0 0 11.996094 14 C 13.497575 14.0045 14.627794 12.921944 14.921875 11.705078 C 15.215757 10.489037 14.704946 9.0104101 13.369141 8.328125 C 12.908652 8.0922346 12.408609 7.9873444 11.916016 8.0039062 z M 12 15 A 1 1 0 0 0 11 16 L 11 16.009766 A 1 1 0 0 0 12 17.009766 A 1 1 0 0 0 13 16.009766 L 13 16 A 1 1 0 0 0 12 15 z " fill="currentColor"/>
</svg>
