<svg xmlns="http://www.w3.org/2000/svg" width="1em" height="1em" viewBox="0 0 24 24" fill="currentColor">
  <path d="M 3 2 A 1 1 0 0 0 2.2929688 2.2929688 A 1 1 0 0 0 2.2929688 3.7070312 L 4.7285156 6.1425781 C 4.2458912 6.3346097 3.8117082 6.5530221 3.4296875 6.8027344 C 2.6597 7.3060456 2.000005 8.0304138 2 9 C 1.999436 16.484975 9.9996475 21.238453 16.511719 17.925781 L 20.292969 21.707031 A 1 1 0 0 0 21.707031 21.707031 A 1 1 0 0 0 21.707031 20.292969 L 12.716797 11.302734 A 1 1 0 0 0 12.697266 11.283203 L 3.7070312 2.2929688 A 1 1 0 0 0 3 2 z M 12 5 C 11.313831 5 10.643368 5.0243956 9.9960938 5.0722656 A 1 1 0 0 0 9.0722656 6.1445312 A 1 1 0 0 0 10.144531 7.0664062 C 10.741257 7.0222754 11.362169 7 12 7 C 14.394926 7 16.562879 7.3334976 18.046875 7.828125 C 18.788873 8.0754387 19.357466 8.3678856 19.673828 8.6171875 C 19.987751 8.8645671 19.999832 8.9893984 20 9 L 20 9.0019531 C 20.000285 9.0138575 19.997407 9.0628005 19.873047 9.1992188 C 19.738339 9.347038 19.467827 9.5551859 19.076172 9.7539062 C 18.292862 10.151347 17.053248 10.518891 15.570312 10.744141 A 1 1 0 0 0 14.730469 11.882812 A 1 1 0 0 0 15.871094 12.720703 C 17.275413 12.507394 18.507864 12.189268 19.511719 11.755859 C 19.186804 12.640644 18.705418 13.467964 18.082031 14.195312 A 1 1 0 0 0 18.191406 15.605469 A 1 1 0 0 0 19.601562 15.498047 C 21.152108 13.688917 22.002975 11.380678 22 8.9980469 C 21.99994 8.9535541 21.993139 8.9107613 21.990234 8.8671875 A 1 1 0 0 0 21.990234 8.8632812 C 21.938376 8.1071838 21.472775 7.4886944 20.912109 7.046875 C 20.317534 6.5783332 19.566439 6.2252488 18.679688 5.9296875 C 16.906184 5.3385649 14.575074 5 12 5 z M 6.3027344 7.7167969 L 9.4570312 10.871094 C 8.0935918 10.730477 6.887967 10.483465 5.953125 10.171875 C 5.2111269 9.9245613 4.6425339 9.6321144 4.3261719 9.3828125 C 4.0098099 9.1335106 4 9.008899 4 9 A 1 1 0 0 0 4 8.9980469 L 4 8.9960938 C 4.0065821 8.9644419 4.0738972 8.7704096 4.5234375 8.4765625 C 4.9166071 8.2195627 5.5327645 7.9471387 6.3027344 7.7167969 z M 4.4648438 11.746094 C 4.7339605 11.862051 5.0190655 11.969904 5.3203125 12.070312 C 6.9975688 12.629354 9.1726223 12.96158 11.582031 12.996094 L 15.007812 16.421875 C 10.727505 18.198883 5.9484472 15.928415 4.4648438 11.746094 z " fill="currentColor"/>
</svg>
