<svg xmlns="http://www.w3.org/2000/svg" width="1em" height="1em" viewBox="0 0 24 24" fill="currentColor">
  <path d="M 12 5 C 9.675926 5 7.3618861 5.2480265 5.5292969 5.7910156 C 4.6130023 6.0625102 3.8123192 6.4016447 3.1679688 6.8925781 C 2.5597298 7.3559981 2.0639725 8.0439799 2.0097656 8.8554688 A 1 1 0 0 0 2 9 C 2 14.511006 6.4889982 19 12 19 C 17.511002 19 22 14.511006 22 9 A 1 1 0 0 0 21.990234 8.8554688 C 21.936031 8.0439758 21.440273 7.3559999 20.832031 6.8925781 C 20.187681 6.4016447 19.386998 6.0625102 18.470703 5.7910156 C 16.638114 5.2480265 14.324074 5 12 5 z M 12 7 C 14.175926 7 16.361886 7.251974 17.904297 7.7089844 C 18.675502 7.9374896 19.281069 8.2233557 19.621094 8.4824219 C 19.961118 8.7414881 20 8.8750004 20 9 C 20 9.0164522 19.998145 9.0323998 19.998047 9.0488281 C 19.985436 9.161256 19.917038 9.2920968 19.621094 9.5175781 C 19.281069 9.7766443 18.675502 10.06251 17.904297 10.291016 C 16.361886 10.748026 14.175926 11 12 11 C 9.824074 11 7.6381139 10.748026 6.0957031 10.291016 C 5.3244977 10.06251 4.7189308 9.7766443 4.3789062 9.5175781 C 4.0829621 9.2920969 4.0145636 9.161256 4.0019531 9.0488281 C 4.0000749 9.0320826 4 9.0162044 4 9 C 4 8.8750004 4.0388817 8.7414881 4.3789062 8.4824219 C 4.7189308 8.2233557 5.3244977 7.9374896 6.0957031 7.7089844 C 7.6381139 7.251974 9.824074 7 12 7 z M 4.5234375 11.859375 C 4.8400969 11.989032 5.1759089 12.104277 5.5292969 12.208984 C 7.3618861 12.751974 9.675926 13 12 13 C 14.324074 13 16.638114 12.751974 18.470703 12.208984 C 18.824091 12.104277 19.159903 11.989032 19.476562 11.859375 C 18.329666 14.870011 15.421601 17 12 17 C 8.5783983 17 5.6703334 14.870011 4.5234375 11.859375 z " fill="currentColor"/>
</svg>
