<svg xmlns="http://www.w3.org/2000/svg" width="1em" height="1em" viewBox="0 0 24 24" fill="currentColor">
  <path d="M 12 5 C 9.675926 5 7.3618861 5.2480265 5.5292969 5.7910156 C 4.6130023 6.0625102 3.8123192 6.4016447 3.1679688 6.8925781 C 2.5597298 7.3559981 2.0639725 8.0439799 2.0097656 8.8554688 A 1 1 0 0 0 2 9 C 2 14.511003 6.4889971 19 12 19 A 1 1 0 0 0 13 18 A 1 1 0 0 0 12 17 C 8.5783995 17 5.670334 14.87001 4.5234375 11.859375 C 4.8400967 11.989032 5.1759092 12.104277 5.5292969 12.208984 C 7.3618861 12.751974 9.675926 13 12 13 C 14.324074 13 16.638114 12.751974 18.470703 12.208984 C 18.822451 12.104763 19.157286 11.990246 19.472656 11.861328 C 19.469457 11.869687 19.466119 11.878369 19.462891 11.886719 A 1 1 0 0 0 20.035156 13.181641 A 1 1 0 0 0 21.328125 12.609375 C 21.773009 11.458615 22.001215 10.231799 22 8.9980469 A 1 1 0 0 0 21.990234 8.8671875 C 21.939892 8.0508385 21.443055 7.3581193 20.832031 6.8925781 C 20.187681 6.4016447 19.386998 6.0625102 18.470703 5.7910156 C 16.638114 5.2480265 14.324074 5 12 5 z M 12 7 C 14.175926 7 16.361886 7.251974 17.904297 7.7089844 C 18.675502 7.9374896 19.281069 8.2233557 19.621094 8.4824219 C 19.960033 8.7406612 19.99975 8.8733909 20 8.9980469 A 1 1 0 0 0 20 9 L 20 9.0019531 C 20.000019 9.0176411 19.998121 9.0350985 19.998047 9.0507812 C 19.985105 9.1629507 19.916037 9.2928594 19.621094 9.5175781 C 19.281069 9.7766443 18.675502 10.06251 17.904297 10.291016 C 16.361886 10.748026 14.175926 11 12 11 C 9.824074 11 7.6381139 10.748026 6.0957031 10.291016 C 5.3244977 10.06251 4.7189308 9.7766443 4.3789062 9.5175781 C 4.0829621 9.2920969 4.0145636 9.1593028 4.0019531 9.046875 C 4.0002258 9.0307555 4 9.0156249 4 9 C 4 8.8750004 4.0388817 8.7414881 4.3789062 8.4824219 C 4.7189308 8.2233557 5.3244977 7.9374896 6.0957031 7.7089844 C 7.6381139 7.251974 9.824074 7 12 7 z M 19 15 A 1 1 0 0 0 18 16 L 18 18 L 16 18 A 1 1 0 0 0 15 19 A 1 1 0 0 0 16 20 L 18 20 L 18 22 A 1 1 0 0 0 19 23 A 1 1 0 0 0 20 22 L 20 20 L 22 20 A 1 1 0 0 0 23 19 A 1 1 0 0 0 22 18 L 20 18 L 20 16 A 1 1 0 0 0 19 15 z " fill="currentColor"/>
</svg>
