<svg xmlns="http://www.w3.org/2000/svg" width="1em" height="1em" viewBox="0 0 24 24" fill="currentColor">
  <path d="M 12.033203 1 C 11.479213 1 10.925633 1.1384646 10.425781 1.4140625 A 1.0001 1.0001 0 0 0 10.400391 1.4277344 L 3.6757812 5.3945312 C 2.6460762 5.9605089 2 7.0427371 2 8.2167969 L 2 15.501953 A 1.0001 1.0001 0 0 0 2 15.505859 C 2.0038494 16.658657 2.6258698 17.722587 3.6230469 18.294922 L 3.6289062 18.298828 C 3.6301736 18.299552 3.6315439 18.300059 3.6328125 18.300781 L 10.373047 22.564453 A 1.0001 1.0001 0 0 0 10.427734 22.597656 C 11.406393 23.134666 12.593607 23.134666 13.572266 22.597656 A 1.0001 1.0001 0 0 0 13.626953 22.564453 L 20.351562 18.310547 C 21.365872 17.740166 22 16.665543 22 15.501953 L 22 8.2246094 C 22.007 7.0954104 21.402135 6.0607642 20.443359 5.4726562 A 1.0001 1.0001 0 0 0 20.416016 5.4082031 L 13.666016 1.4277344 A 1.0001 1.0001 0 0 0 13.640625 1.4140625 C 13.14077 1.1384646 12.587194 1 12.033203 1 z M 12.033203 3.0019531 C 12.253532 3.0019531 12.473862 3.0561651 12.673828 3.1660156 L 19.353516 7.1035156 A 1 1 0 0 0 19.380859 7.1386719 C 19.767665 7.3586239 20.002764 7.7658565 20 8.2109375 A 1.0001 1.0001 0 0 0 20 8.21875 L 20 15.501953 C 20 15.945893 19.759043 16.354541 19.359375 16.574219 A 1.0001 1.0001 0 0 0 19.306641 16.605469 L 12.605469 20.84375 C 12.226729 21.049186 11.773271 21.049186 11.394531 20.84375 L 4.6933594 16.605469 A 1.0001 1.0001 0 0 0 4.6386719 16.572266 C 4.2445514 16.356203 4.0014994 15.947502 4 15.498047 L 4 8.2167969 C 4 7.7728566 4.24033 7.3665067 4.640625 7.1464844 A 1.0001 1.0001 0 0 0 4.6660156 7.1308594 L 11.390625 3.1660156 L 11.392578 3.1660156 C 11.592545 3.0561651 11.812874 3.0019531 12.033203 3.0019531 z M 12 7.5 A 1 1 0 0 0 11 8.5 L 11 10.130859 L 9.5546875 9.1679688 A 1 1 0 0 0 8.1679688 9.4453125 A 1 1 0 0 0 8.4453125 10.832031 L 10.197266 12 L 8.4453125 13.167969 A 1 1 0 0 0 8.1679688 14.554688 A 1 1 0 0 0 9.5546875 14.832031 L 11 13.869141 L 11 15.5 A 1 1 0 0 0 12 16.5 A 1 1 0 0 0 13 15.5 L 13 13.869141 L 14.445312 14.832031 A 1 1 0 0 0 15.832031 14.554688 A 1 1 0 0 0 15.554688 13.167969 L 13.802734 12 L 15.554688 10.832031 A 1 1 0 0 0 15.832031 9.4453125 A 1 1 0 0 0 14.445312 9.1679688 L 13 10.130859 L 13 8.5 A 1 1 0 0 0 12 7.5 z " fill="currentColor"/>
</svg>
