<svg xmlns="http://www.w3.org/2000/svg" width="1em" height="1em" viewBox="0 0 24 24" fill="currentColor">
  <path d="M 12.033203 1 C 11.479213 1 10.925633 1.1384646 10.425781 1.4140625 A 1.0001 1.0001 0 0 0 10.400391 1.4277344 L 3.6757812 5.3945312 C 2.6460762 5.9605089 2 7.0427371 2 8.2167969 L 2 15.501953 A 1.0001 1.0001 0 0 0 2 15.503906 C 2.00236 16.679062 2.6465154 17.76458 3.6777344 18.328125 L 10.373047 22.564453 A 1.0001 1.0001 0 0 0 10.425781 22.595703 C 11.4045 23.133054 12.5955 23.133054 13.574219 22.595703 A 1.0001 1.0001 0 0 0 13.626953 22.564453 L 20.351562 18.310547 C 21.365877 17.740112 22 16.665537 22 15.501953 L 22 8.2246094 C 22.0071 7.0951803 21.401867 6.0607265 20.443359 5.4726562 A 1.0001 1.0001 0 0 0 20.416016 5.4082031 L 13.666016 1.4277344 A 1.0001 1.0001 0 0 0 13.640625 1.4140625 C 13.14077 1.1384646 12.587194 1 12.033203 1 z M 12.033203 3.0019531 C 12.253532 3.0019531 12.473862 3.0561651 12.673828 3.1660156 L 19.375 7.1152344 A 1 1 0 0 0 19.380859 7.1386719 C 19.767582 7.3586321 20.002781 7.76601 20 8.2109375 A 1.0001 1.0001 0 0 0 20 8.21875 L 20 15.501953 C 20 15.945893 19.759043 16.354541 19.359375 16.574219 A 1.0001 1.0001 0 0 0 19.306641 16.605469 L 12.605469 20.84375 C 12.226883 21.04922 11.773117 21.04922 11.394531 20.84375 L 4.6933594 16.605469 A 1.0001 1.0001 0 0 0 4.6367188 16.572266 C 4.2433998 16.35732 4.0015513 15.950063 4 15.501953 L 4 8.2167969 C 4 7.7728566 4.24033 7.3665067 4.640625 7.1464844 A 1.0001 1.0001 0 0 0 4.6660156 7.1308594 L 11.390625 3.1660156 L 11.392578 3.1660156 C 11.592545 3.0561651 11.812874 3.0019531 12.033203 3.0019531 z M 12 7 C 10.35499 7 9 8.3549904 9 10 L 9 14 C 9 14.916666 9.3797556 15.731441 9.9609375 16.248047 C 10.542119 16.764653 11.277778 17 12 17 C 12.444135 17 12.893346 16.911336 13.308594 16.722656 A 1 1 0 0 0 14.707031 16.707031 A 1 1 0 0 0 14.722656 15.308594 C 14.899759 14.917352 15 14.472111 15 14 L 15 10 C 15 8.3549904 13.64501 7 12 7 z M 12 9 C 12.564129 9 13 9.4358706 13 10 L 13 14 A 1 1 0 0 0 12.292969 14.292969 A 1 1 0 0 0 12 15 C 11.722222 15 11.45788 14.902014 11.289062 14.751953 C 11.120243 14.601893 11 14.416666 11 14 L 11 10 C 11 9.4358706 11.435871 9 12 9 z " fill="currentColor"/>
</svg>
