<svg xmlns="http://www.w3.org/2000/svg" width="1em" height="1em" viewBox="0 0 24 24" fill="currentColor">
  <path d="M 12.033203 1 C 11.479213 1 10.925633 1.1384646 10.425781 1.4140625 A 1.0001 1.0001 0 0 0 10.400391 1.4277344 L 3.6757812 5.3945312 C 2.6460762 5.9605089 2 7.0427371 2 8.2167969 L 2 15.501953 A 1.0001 1.0001 0 0 0 2 15.503906 C 2.00236 16.679062 2.6465154 17.76458 3.6777344 18.328125 L 10.373047 22.564453 A 1.0001 1.0001 0 0 0 10.425781 22.595703 C 11.4045 23.133054 12.5955 23.133054 13.574219 22.595703 A 1.0001 1.0001 0 0 0 13.626953 22.564453 L 20.351562 18.310547 C 21.365877 17.740112 22 16.665537 22 15.501953 L 22 8.2246094 C 22.007 7.0954104 21.402135 6.0607642 20.443359 5.4726562 A 1.0001 1.0001 0 0 0 20.416016 5.4082031 L 13.666016 1.4277344 A 1.0001 1.0001 0 0 0 13.640625 1.4140625 C 13.14077 1.1384646 12.587194 1 12.033203 1 z M 12.033203 3.0019531 C 12.253532 3.0019531 12.473862 3.0561651 12.673828 3.1660156 L 19.353516 7.1035156 A 1 1 0 0 0 19.380859 7.1386719 C 19.767665 7.3586239 20.002764 7.7658565 20 8.2109375 A 1.0001 1.0001 0 0 0 20 8.21875 L 20 15.501953 C 20 15.945893 19.759043 16.354541 19.359375 16.574219 A 1.0001 1.0001 0 0 0 19.306641 16.605469 L 12.605469 20.84375 C 12.226883 21.04922 11.773117 21.04922 11.394531 20.84375 L 4.6933594 16.605469 A 1.0001 1.0001 0 0 0 4.6367188 16.572266 C 4.2433998 16.35732 4.0015513 15.950063 4 15.501953 L 4 8.2167969 C 4 7.7728566 4.24033 7.3665067 4.640625 7.1464844 A 1.0001 1.0001 0 0 0 4.6660156 7.1308594 L 11.390625 3.1660156 L 11.392578 3.1660156 C 11.592545 3.0561651 11.812874 3.0019531 12.033203 3.0019531 z M 9 11 A 1 1 0 0 0 8 12 A 1 1 0 0 0 9 13 L 15 13 A 1 1 0 0 0 16 12 A 1 1 0 0 0 15 11 L 9 11 z " fill="currentColor"/>
</svg>
