<svg xmlns="http://www.w3.org/2000/svg" width="1em" height="1em" viewBox="0 0 24 24" fill="currentColor">
  <path d="M 3 2 A 1 1 0 0 0 2.2929688 2.2929688 A 1 1 0 0 0 2.2929688 3.7070312 L 7 8.4140625 L 7 10.382812 L 3.5527344 12.105469 A 1.0001 1.0001 0 0 0 3 13 L 3 18 A 1 1 0 0 0 3.3828125 18.382812 A 1 1 0 0 0 3.5527344 18.894531 L 7.5527344 20.894531 A 1.0001 1.0001 0 0 0 8.4472656 20.894531 L 12 19.117188 L 15.552734 20.894531 A 1.0001 1.0001 0 0 0 16.447266 20.894531 L 18.46875 19.882812 L 20.292969 21.707031 A 1 1 0 0 0 21.707031 21.707031 A 1 1 0 0 0 21.707031 20.292969 L 8.7167969 7.3027344 A 1 1 0 0 0 8.6972656 7.2832031 L 3.7070312 2.2929688 A 1 1 0 0 0 3 2 z M 11.933594 3.0019531 A 1.0001 1.0001 0 0 0 11.552734 3.1054688 L 8.8847656 4.4394531 A 1 1 0 0 0 8.4375 5.78125 A 1 1 0 0 0 9.7792969 6.2285156 L 12 5.1171875 L 15 6.6171875 L 15 10.382812 L 14.896484 10.433594 A 1 1 0 0 0 14.451172 11.775391 A 1 1 0 0 0 15.792969 12.222656 L 16 12.119141 L 19 13.617188 L 19 16 A 1 1 0 0 0 20 17 A 1 1 0 0 0 21 16 L 21 13 A 1.0001 1.0001 0 0 0 20.447266 12.105469 L 17 10.382812 L 17 6 A 1.0001 1.0001 0 0 0 16.447266 5.1054688 L 12.447266 3.1054688 A 1.0001 1.0001 0 0 0 11.933594 3.0019531 z M 8 12.117188 L 11 13.617188 L 11 17.382812 L 8 18.882812 L 5 17.382812 L 5 13.617188 L 8 12.117188 z M 13 14.414062 L 16.978516 18.392578 L 16 18.882812 L 13 17.382812 L 13 14.414062 z " fill="currentColor"/>
</svg>
