<svg xmlns="http://www.w3.org/2000/svg" width="1em" height="1em" viewBox="0 0 24 24" fill="currentColor">
  <path d="M 8.3671875 2 C 7.7523095 2 7.1503503 2.1881388 6.6445312 2.5449219 L 3.2792969 4.9082031 A 1.0001 1.0001 0 0 0 3.2773438 4.9082031 C 2.4758349 5.4711738 1.9987954 6.3916317 2 7.3710938 L 2 16.630859 C 2 17.609523 2.4766918 18.531176 3.2792969 19.09375 L 6.6464844 21.457031 C 6.9148348 21.645039 7.2106287 21.787503 7.5214844 21.878906 A 1 1 0 0 0 8 22 A 1 1 0 0 0 8.1347656 21.990234 C 8.2119543 21.99626 8.2893703 21.999977 8.3671875 22 L 12.5 22 A 1 1 0 0 0 13.5 21 A 1 1 0 0 0 12.5 20 L 9 20 L 9 11 L 15 11 L 15 13.5 A 1 1 0 0 0 16 14.5 A 1 1 0 0 0 17 13.5 L 17 10.779297 C 17.206873 10.695318 17.404791 10.588177 17.589844 10.458984 L 20 8.7714844 L 20 12.5 A 1 1 0 0 0 21 13.5 A 1 1 0 0 0 22 12.5 L 22 7.3691406 C 22 6.3909796 21.521878 5.4703771 20.720703 4.9082031 L 17.355469 2.5449219 C 16.851534 2.1912084 16.250447 2.0006201 15.634766 2 A 1.0001 1.0001 0 0 0 15.632812 2 L 8.3671875 2 z M 8.3671875 4 L 15.632812 4 C 15.838185 4.0002069 16.03698 4.063652 16.205078 4.1816406 L 19.572266 6.5449219 C 19.592392 6.5590291 19.611977 6.5744552 19.630859 6.5898438 L 16.445312 8.8183594 C 16.276607 8.9361386 16.074892 8.9999249 15.869141 9 L 8.1308594 9 C 7.9257374 9 7.7261209 8.9379803 7.5585938 8.8203125 A 1.0001 1.0001 0 0 0 7.5566406 8.8183594 L 4.3710938 6.5878906 C 4.3896744 6.5727647 4.40794 6.5588253 4.4277344 6.5449219 L 7.7949219 4.1816406 A 1.0001 1.0001 0 0 0 7.796875 4.1796875 C 7.9630591 4.0624675 8.1620655 4 8.3671875 4 z M 4 8.7695312 L 6.4101562 10.457031 C 6.5951171 10.586944 6.7931011 10.695062 7 10.779297 L 7 19.261719 L 4.4277344 17.457031 C 4.1603394 17.269605 4 16.962195 4 16.630859 L 4 8.7695312 z M 19 15 A 1 1 0 0 0 18 16 L 18 18 L 16 18 A 1 1 0 0 0 15 19 A 1 1 0 0 0 16 20 L 18 20 L 18 22 A 1 1 0 0 0 19 23 A 1 1 0 0 0 20 22 L 20 20 L 22 20 A 1 1 0 0 0 23 19 A 1 1 0 0 0 22 18 L 20 18 L 20 16 A 1 1 0 0 0 19 15 z " fill="currentColor"/>
</svg>
