<svg xmlns="http://www.w3.org/2000/svg" width="1em" height="1em" viewBox="0 0 24 24" fill="currentColor">
  <path d="M 3 2 A 1 1 0 0 0 2.2929688 2.2929688 A 1 1 0 0 0 2.2929688 3.7070312 L 11 12.414062 L 11 12.527344 L 6.3769531 16.310547 C 5.942957 16.099917 5.468531 16 5 16 C 4.2777779 16 3.5421194 16.235347 2.9609375 16.751953 C 2.3797556 17.268559 2 18.083334 2 19 C 2 19.916666 2.3797556 20.731441 2.9609375 21.248047 C 3.5421194 21.764653 4.2777779 22 5 22 C 5.7222221 22 6.4578806 21.764653 7.0390625 21.248047 C 7.6202444 20.731441 8 19.916666 8 19 C 8 18.557246 7.9110011 18.138721 7.7539062 17.765625 L 12 14.292969 L 16.255859 17.773438 C 16.049983 18.216751 15.959423 18.687835 15.986328 19.136719 C 16.032348 19.904588 16.379584 20.587107 16.882812 21.095703 C 17.386042 21.604299 18.06274 21.957552 18.830078 22.011719 C 19.31175 22.045722 19.822346 21.945451 20.296875 21.710938 A 1 1 0 0 0 21.707031 21.707031 A 1 1 0 0 0 21.707031 20.292969 L 18.283203 16.871094 L 18.228516 16.816406 L 12.716797 11.302734 A 1 1 0 0 0 12.697266 11.283203 L 3.7070312 2.2929688 A 1 1 0 0 0 3 2 z M 12 2 C 11.277778 2 10.542119 2.2353472 9.9609375 2.7519531 C 9.3797556 3.268559 9 4.0833335 9 5 C 9 5.9166665 9.3797556 6.731441 9.9609375 7.2480469 C 10.271685 7.5242666 10.626594 7.7193743 11 7.8417969 L 11 8 A 1 1 0 0 0 12 9 A 1 1 0 0 0 13 8 L 13 7.8417969 C 13.373406 7.7193743 13.728315 7.5242666 14.039062 7.2480469 C 14.620243 6.731441 15 5.9166665 15 5 C 15 4.0833335 14.620244 3.268559 14.039062 2.7519531 C 13.45788 2.2353472 12.722222 2 12 2 z M 12 4 C 12.277778 4 12.542119 4.097986 12.710938 4.2480469 C 12.879755 4.3981073 13 4.5833337 13 5 C 13 5.4166663 12.879756 5.6018927 12.710938 5.7519531 C 12.542118 5.9020136 12.277778 6 12 6 C 11.722222 6 11.45788 5.9020136 11.289062 5.7519531 C 11.120243 5.6018927 11 5.4166663 11 5 C 11 4.5833337 11.120244 4.3981073 11.289062 4.2480469 C 11.45788 4.0979864 11.722222 4 12 4 z M 5 18 C 5.2777779 18 5.5421194 18.09799 5.7109375 18.248047 C 5.8797556 18.398107 6 18.583334 6 19 C 6 19.416666 5.8797556 19.601893 5.7109375 19.751953 C 5.5421194 19.902014 5.2777779 20 5 20 C 4.7222221 20 4.4578806 19.902014 4.2890625 19.751953 C 4.1202444 19.601893 4 19.416666 4 19 C 4 18.583334 4.1202444 18.398107 4.2890625 18.248047 C 4.4578806 18.097986 4.7222221 18 5 18 z " fill="currentColor"/>
</svg>
