<svg xmlns="http://www.w3.org/2000/svg" width="1em" height="1em" viewBox="0 0 24 24" fill="currentColor">
  <path d="M 11.888672 1.9121094 C 6.8113816 1.9698094 2.5693435 5.8459698 2.0546875 10.898438 A 1 1 0 0 0 2.9492188 11.994141 A 1 1 0 0 0 4.0449219 11.101562 C 4.4581389 7.0449386 7.8360185 3.9584317 11.912109 3.9121094 C 15.988089 3.8657883 19.431714 6.873631 19.9375 10.919922 C 20.443286 14.966213 17.844778 18.729078 13.882812 19.6875 C 10.445432 20.519022 7.0629765 18.916948 5.2851562 16 L 8.0507812 16 A 1 1 0 0 0 9.0507812 15 A 1 1 0 0 0 8.0507812 14 L 3.0507812 14 A 1.0001 1.0001 0 0 0 2.0507812 15 L 2.0507812 20 A 1 1 0 0 0 3.0507812 21 A 1 1 0 0 0 4.0507812 20 L 4.0507812 17.771484 C 6.3866802 20.932798 10.365504 22.595582 14.353516 21.630859 C 19.288677 20.437016 22.551707 15.710531 21.921875 10.671875 C 21.292043 5.6332189 16.965851 1.8544103 11.888672 1.9121094 z M 12 7 A 1 1 0 0 0 11 8 L 11 12 A 1.0001 1.0001 0 0 0 11.292969 12.707031 L 13.292969 14.707031 A 1 1 0 0 0 14.707031 14.707031 A 1 1 0 0 0 14.707031 13.292969 L 13 11.585938 L 13 8 A 1 1 0 0 0 12 7 z " fill="currentColor"/>
</svg>
