<svg xmlns="http://www.w3.org/2000/svg" width="1em" height="1em" viewBox="0 0 24 24" fill="currentColor">
  <path d="M 12 2 A 1.0001 1.0001 0 0 0 11.292969 2.2929688 L 2.2929688 11.292969 A 1.0001 1.0001 0 0 0 3 13 L 4 13 L 4 19 C 4 20.64501 5.3549904 22 7 22 L 11 22 A 1 1 0 0 0 12 21 A 1 1 0 0 0 11 20 L 10 20 L 10 15 C 10 14.435871 10.435871 14 11 14 L 12.5 14 A 1 1 0 0 0 13.5 13 A 1 1 0 0 0 12.5 12 L 11 12 C 9.3549904 12 8 13.35499 8 15 L 8 20 L 7 20 C 6.4358706 20 6 19.564129 6 19 L 6 12 A 1.0001 1.0001 0 0 0 5.2070312 11.207031 L 12 4.4140625 L 18.550781 10.964844 A 1 1 0 0 0 19.964844 10.964844 A 1 1 0 0 0 19.964844 9.5507812 L 12.707031 2.2929688 A 1.0001 1.0001 0 0 0 12 2 z M 17.800781 13.042969 C 17.298499 13.042969 16.794578 13.285127 16.552734 13.771484 A 1.0001 1.0001 0 0 0 16.552734 13.773438 L 15.699219 15.496094 L 13.796875 15.771484 C 12.714916 15.921349 12.238116 17.387297 13.023438 18.146484 L 14.400391 19.484375 L 14.074219 21.375 A 1.0001 1.0001 0 0 0 14.072266 21.386719 C 13.900355 22.455046 15.129997 23.341367 16.089844 22.841797 A 1.0001 1.0001 0 0 0 16.091797 22.839844 L 17.800781 21.945312 L 19.503906 22.837891 C 20.467028 23.348584 21.709159 22.447253 21.523438 21.373047 L 21.525391 21.375 L 21.199219 19.484375 L 22.578125 18.144531 A 1.0001 1.0001 0 0 0 22.580078 18.142578 C 23.357847 17.382769 22.884212 15.927618 21.808594 15.771484 L 21.806641 15.771484 L 19.900391 15.496094 L 19.046875 13.773438 A 1.0001 1.0001 0 0 0 19.046875 13.771484 C 18.805031 13.285127 18.303064 13.042969 17.800781 13.042969 z M 17.800781 15.761719 L 18.341797 16.853516 A 1.0001 1.0001 0 0 0 19.09375 17.400391 L 20.294922 17.574219 L 19.427734 18.416016 A 1.0001 1.0001 0 0 0 19.138672 19.302734 L 19.34375 20.496094 L 18.263672 19.931641 A 1 1 0 0 0 17.396484 19.951172 A 1 1 0 0 0 17.335938 19.931641 L 16.255859 20.498047 L 16.460938 19.302734 A 1.0001 1.0001 0 0 0 16.171875 18.416016 L 15.304688 17.574219 L 16.505859 17.400391 A 1.0001 1.0001 0 0 0 17.259766 16.853516 L 17.800781 15.761719 z " fill="currentColor"/>
</svg>
