<svg xmlns="http://www.w3.org/2000/svg" width="1em" height="1em" viewBox="0 0 24 24" fill="currentColor">
  <path d="M 12 2 A 1.0001 1.0001 0 0 0 11.292969 2.2929688 L 2.2929688 11.292969 A 1.0001 1.0001 0 0 0 3 13 L 4 13 L 4 19 C 4 20.64501 5.3549904 22 7 22 L 15 22 A 1 1 0 0 0 16 21 A 1 1 0 0 0 15 20 L 10 20 L 10 15 C 10 14.435871 10.435871 14 11 14 L 13 14 C 13.411907 13.999972 13.774711 14.246478 13.927734 14.628906 A 1 1 0 0 0 15.228516 15.185547 A 1 1 0 0 0 15.785156 13.884766 C 15.330575 12.748701 14.223637 11.999918 13 12 L 11 12 C 9.3549904 12 8 13.35499 8 15 L 8 20 L 7 20 C 6.4358706 20 6 19.564129 6 19 L 6 12 A 1.0001 1.0001 0 0 0 5.2070312 11.207031 L 12 4.4140625 L 20.292969 12.707031 A 1 1 0 0 0 21.707031 12.707031 A 1 1 0 0 0 21.707031 11.292969 L 12.707031 2.2929688 A 1.0001 1.0001 0 0 0 12 2 z M 19 15 A 1 1 0 0 0 18 16 L 18 19 A 1 1 0 0 0 19 20 A 1 1 0 0 0 20 19 L 20 16 A 1 1 0 0 0 19 15 z M 19 21 A 1 1 0 0 0 18 22 L 18 22.009766 A 1 1 0 0 0 19 23.009766 A 1 1 0 0 0 20 22.009766 L 20 22 A 1 1 0 0 0 19 21 z " fill="currentColor"/>
</svg>
