<svg xmlns="http://www.w3.org/2000/svg" width="1em" height="1em" viewBox="0 0 24 24" fill="currentColor">
  <path d="M 12 2 A 1.0001 1.0001 0 0 0 11.292969 2.2929688 L 2.2929688 11.292969 A 1.0001 1.0001 0 0 0 3 13 L 4 13 L 4 19 C 4 20.64501 5.3549904 22 7 22 L 12.5 22 A 1 1 0 0 0 13.5 21 A 1 1 0 0 0 12.5 20 L 10 20 L 10 15 C 10 14.435871 10.435871 14 11 14 L 13 14 C 13.564129 14 14 14.435871 14 15 A 1 1 0 0 0 15 16 A 1 1 0 0 0 16 15 C 16 13.35499 14.64501 12 13 12 L 11 12 C 9.3549904 12 8 13.35499 8 15 L 8 20 L 7 20 C 6.4358706 20 6 19.564129 6 19 L 6 12 A 1.0001 1.0001 0 0 0 5.2070312 11.207031 L 12 4.4140625 L 18.792969 11.207031 A 1 1 0 0 0 18 12 A 1 1 0 0 0 19 13 L 21 13 A 1.0001 1.0001 0 0 0 21.707031 11.292969 L 12.707031 2.2929688 A 1.0001 1.0001 0 0 0 12 2 z M 19 15 A 1 1 0 0 0 18 16 L 18 18 L 16 18 A 1 1 0 0 0 15 19 A 1 1 0 0 0 16 20 L 18 20 L 18 22 A 1 1 0 0 0 19 23 A 1 1 0 0 0 20 22 L 20 20 L 22 20 A 1 1 0 0 0 23 19 A 1 1 0 0 0 22 18 L 20 18 L 20 16 A 1 1 0 0 0 19 15 z " fill="currentColor"/>
</svg>
