<svg xmlns="http://www.w3.org/2000/svg" width="1em" height="1em" viewBox="0 0 24 24" fill="currentColor">
  <path d="M 12 1.9980469 A 1.0001 1.0001 0 0 0 11.292969 2.2910156 L 8.7890625 4.7949219 A 1 1 0 0 0 8.7890625 6.2109375 A 1 1 0 0 0 10.205078 6.2109375 L 12 4.4140625 L 18.648438 11.0625 A 1 1 0 0 0 18 12 L 18 15 A 1 1 0 0 0 19 16 A 1 1 0 0 0 20 15 L 20 12.998047 L 21.001953 12.998047 A 1.0001 1.0001 0 0 0 21.708984 11.291016 L 12.708984 2.2910156 A 1.0001 1.0001 0 0 0 12 1.9980469 z M 3 2 A 1 1 0 0 0 2.2929688 2.2929688 A 1 1 0 0 0 2.2929688 3.7070312 L 6.0859375 7.5 L 2.2929688 11.292969 A 1.0001 1.0001 0 0 0 3 13 L 4 13 L 4 19 C 4 20.64501 5.3549904 22 7 22 L 17 22 C 17.970446 22 18.840693 21.52917 19.390625 20.804688 L 20.292969 21.707031 A 1 1 0 0 0 21.707031 21.707031 A 1 1 0 0 0 21.707031 20.292969 L 19.716797 18.302734 A 1 1 0 0 0 19.697266 18.283203 L 15.716797 14.302734 A 1 1 0 0 0 15.697266 14.283203 L 13.716797 12.302734 A 1 1 0 0 0 13.697266 12.283203 L 3.7070312 2.2929688 A 1 1 0 0 0 3 2 z M 7.5 8.9140625 L 10.611328 12.025391 C 9.1468397 12.218536 8 13.486561 8 15 L 8 20 L 7 20 C 6.4358706 20 6 19.564129 6 19 L 6 12 A 1 1 0 0 0 5.3515625 11.064453 L 7.5 8.9140625 z M 11 14 L 12.585938 14 L 14 15.414062 L 14 20 L 10 20 L 10 15 C 10 14.435871 10.435871 14 11 14 z M 16 17.414062 L 17.939453 19.353516 C 17.800762 19.736467 17.439004 20 17 20 L 16 20 L 16 17.414062 z " fill="currentColor"/>
</svg>
