<svg xmlns="http://www.w3.org/2000/svg" width="1em" height="1em" viewBox="0 0 24 24" fill="currentColor">
  <path d="M 12.5 2 C 8.9219948 2 6 4.9219921 6 8.5 C 6 9.8688672 7.1311328 11 8.5 11 C 9.8688672 11 11 9.8688672 11 8.5 C 11 7.9166671 11.182744 7.6064406 11.445312 7.3730469 C 11.70788 7.1396531 12.097222 7 12.5 7 C 12.902778 7 13.292119 7.1396531 13.554688 7.3730469 C 13.817255 7.6064406 14 7.9166671 14 8.5 C 14 8.9502422 13.912428 9.1724626 13.738281 9.4121094 C 13.564135 9.6517561 13.251846 9.9136008 12.773438 10.212891 L 8.3496094 12.976562 C 6.963981 13.842283 6 15.277005 6 17 L 6 19 C 6 20.64501 7.3549904 22 9 22 L 16 22 C 17.64501 22 19 20.64501 19 19 L 19 8.5 C 19 4.9219921 16.078005 2 12.5 2 z M 12.5 4 C 14.997127 4 17 6.0028716 17 8.5 L 17 19 C 17 19.564129 16.564129 20 16 20 L 9 20 C 8.4358706 20 8 19.564129 8 19 L 8 17 C 8 15.962995 8.4557846 15.270106 9.4101562 14.673828 L 13.833984 11.908203 C 14.410575 11.547493 14.947318 11.15029 15.357422 10.585938 C 15.767526 10.021584 16 9.2937578 16 8.5 C 16 7.4166669 15.557744 6.4768923 14.882812 5.8769531 C 14.20788 5.2770139 13.347222 5 12.5 5 C 11.652778 5 10.792119 5.2770139 10.117188 5.8769531 C 9.4422551 6.4768923 9 7.4166669 9 8.5 C 9 8.787987 8.787987 9 8.5 9 C 8.212013 9 8 8.787987 8 8.5 C 8 6.0028716 10.002873 4 12.5 4 z " fill="currentColor"/>
</svg>
