<svg xmlns="http://www.w3.org/2000/svg" width="1em" height="1em" viewBox="0 0 24 24" fill="currentColor">
  <path d="M 3 2 A 1 1 0 0 0 2.2929688 2.2929688 A 1 1 0 0 0 2.2929688 3.7070312 L 5.0234375 6.4375 C 5.1710319 8.7941036 6.4853474 10.844485 8.4023438 12 C 6.3668918 13.226917 5 15.459595 5 18 L 5 20 C 5 21.092725 5.9072751 22 7 22 L 17 22 C 17.963943 22 18.783086 21.293491 18.962891 20.376953 L 20.292969 21.707031 A 1 1 0 0 0 21.707031 21.707031 A 1 1 0 0 0 21.707031 20.292969 L 18.716797 17.302734 A 1 1 0 0 0 18.697266 17.283203 L 12.716797 11.302734 A 1 1 0 0 0 12.697266 11.283203 L 6.7167969 5.3027344 A 1 1 0 0 0 6.6972656 5.2832031 L 3.7070312 2.2929688 A 1 1 0 0 0 3 2 z M 7 2 A 1 1 0 0 0 6 3 A 1 1 0 0 0 7 4 L 17 4 L 17 6 C 17.000321 7.7431292 16.094572 9.3582458 14.607422 10.267578 A 1 1 0 0 0 14.277344 11.642578 A 1 1 0 0 0 15.652344 11.972656 C 17.731441 10.701371 19.000448 8.4369679 19 6 L 19 4 C 19 2.9072751 18.092725 2 17 2 L 7 2 z M 11.601562 13.015625 L 17 18.414062 L 17 20 L 7 20 L 7 18 C 7 15.360945 9.0165907 13.216976 11.601562 13.015625 z " fill="currentColor"/>
</svg>
