<svg xmlns="http://www.w3.org/2000/svg" width="1em" height="1em" viewBox="0 0 24 24" fill="currentColor">
  <path d="M 5 7 C 4.2777779 7 3.5421194 7.2353472 2.9609375 7.7519531 C 2.3797556 8.268559 2 9.0833335 2 10 L 2 14 C 2 14.916666 2.3797556 15.731441 2.9609375 16.248047 C 3.5421194 16.764653 4.2777779 17 5 17 C 5.7222221 17 6.4578806 16.764653 7.0390625 16.248047 C 7.6202444 15.731441 8 14.916666 8 14 A 1 1 0 0 0 7 13 A 1 1 0 0 0 6 14 C 6 14.416666 5.8797556 14.601893 5.7109375 14.751953 C 5.5421194 14.902014 5.2777779 15 5 15 C 4.7222221 15 4.4578806 14.902014 4.2890625 14.751953 C 4.1202444 14.601893 4 14.416666 4 14 L 4 10 C 4 9.5833337 4.1202444 9.3981073 4.2890625 9.2480469 C 4.4578806 9.0979864 4.7222221 9 5 9 C 5.2777779 9 5.5421194 9.0979864 5.7109375 9.2480469 C 5.8797556 9.3981073 6 9.5833337 6 10 A 1 1 0 0 0 7 11 A 1 1 0 0 0 8 10 C 8 9.0833335 7.6202444 8.268559 7.0390625 7.7519531 C 6.4578806 7.2353472 5.7222221 7 5 7 z M 12 7 C 10.35499 7 9 8.3549904 9 10 L 9 14 C 9 14.916666 9.3797556 15.731441 9.9609375 16.248047 C 10.542119 16.764653 11.277778 17 12 17 C 12.722222 17 13.45788 16.764653 14.039062 16.248047 C 14.620243 15.731441 15 14.916666 15 14 L 15 10 C 15 8.3549904 13.64501 7 12 7 z M 16.980469 7 A 1.0001 1.0001 0 0 0 16 8 L 16 16 A 1 1 0 0 0 17 17 A 1 1 0 0 0 18 16 L 18 12.236328 L 20.105469 16.447266 A 1.0001 1.0001 0 0 0 22 16 L 22 8 A 1 1 0 0 0 21 7 A 1 1 0 0 0 20 8 L 20 11.763672 L 17.894531 7.5527344 A 1.0001 1.0001 0 0 0 16.980469 7 z M 12 9 C 12.564129 9 13 9.4358706 13 10 L 13 14 C 13 14.416666 12.879756 14.601893 12.710938 14.751953 C 12.542118 14.902014 12.277778 15 12 15 C 11.722222 15 11.45788 14.902014 11.289062 14.751953 C 11.120243 14.601893 11 14.416666 11 14 L 11 10 C 11 9.4358706 11.435871 9 12 9 z " fill="currentColor"/>
</svg>
