<svg xmlns="http://www.w3.org/2000/svg" width="1em" height="1em" viewBox="0 0 24 24" fill="currentColor">
  <path d="M 3 7 A 1 1 0 0 0 2 8 L 2 16 A 1.0001 1.0001 0 0 0 3 17 L 5 17 C 6.6450096 17 8 15.64501 8 14 L 8 10 C 8 8.3549904 6.6450096 7 5 7 L 3 7 z M 10 7 A 1.0001 1.0001 0 0 0 9 8 L 9 16 A 1.0001 1.0001 0 0 0 10 17 L 14 17 A 1 1 0 0 0 15 16 A 1 1 0 0 0 14 15 L 11 15 L 11 13 L 12.5 13 A 1 1 0 0 0 13.5 12 A 1 1 0 0 0 12.5 11 L 11 11 L 11 9 L 14 9 A 1 1 0 0 0 15 8 A 1 1 0 0 0 14 7 L 10 7 z M 17 7 A 1 1 0 0 0 16 8 L 16 16 A 1.0001 1.0001 0 0 0 17 17 L 21 17 A 1 1 0 0 0 22 16 A 1 1 0 0 0 21 15 L 18 15 L 18 8 A 1 1 0 0 0 17 7 z M 4 9 L 5 9 C 5.5641294 9 6 9.4358706 6 10 L 6 14 C 6 14.564129 5.5641294 15 5 15 L 4 15 L 4 9 z " fill="currentColor"/>
</svg>
