<svg xmlns="http://www.w3.org/2000/svg" width="1em" height="1em" viewBox="0 0 24 24" fill="currentColor">
  <path d="M 3 2 A 1 1 0 0 0 2.2929688 2.2929688 A 1 1 0 0 0 2.2929688 3.7070312 L 5.5859375 7 L 3 7 A 1 1 0 0 0 2 8 A 1 1 0 0 0 3 9 L 4 9 L 4 16 A 1 1 0 0 0 5 17 A 1 1 0 0 0 6 16 L 6 9 L 7 9 A 1 1 0 0 0 7.46875 8.8828125 L 9 10.414062 L 9 12 L 9 16 A 1 1 0 0 0 10 17 A 1 1 0 0 0 11 16 L 11 13.667969 L 13.199219 16.599609 A 1 1 0 0 0 14.599609 16.800781 A 1 1 0 0 0 14.9375 16.351562 L 20.292969 21.707031 A 1 1 0 0 0 21.707031 21.707031 A 1 1 0 0 0 21.707031 20.292969 L 12.716797 11.302734 A 1 1 0 0 0 12.697266 11.283203 L 10.716797 9.3027344 A 1 1 0 0 0 10.697266 9.2832031 L 3.7070312 2.2929688 A 1 1 0 0 0 3 2 z M 12 7 A 1 1 0 0 0 11 8 A 1 1 0 0 0 12 9 C 12.564129 9 13 9.4358706 13 10 A 1 1 0 0 0 14 11 A 1 1 0 0 0 15 10 C 15 8.3549904 13.64501 7 12 7 z M 19 7 C 18.277778 7 17.542119 7.2353472 16.960938 7.7519531 C 16.379756 8.268559 16 9.0833335 16 10 L 16 13 A 1 1 0 0 0 17 14 L 20 14 L 20 16 A 1 1 0 0 0 21 17 A 1 1 0 0 0 22 16 L 22 10 C 22 9.0833335 21.620244 8.268559 21.039062 7.7519531 C 20.457881 7.2353472 19.722222 7 19 7 z M 19 9 C 19.277778 9 19.542119 9.0979864 19.710938 9.2480469 C 19.879756 9.3981073 20 9.5833337 20 10 L 20 12 L 18 12 L 18 10 C 18 9.5833337 18.120244 9.3981073 18.289062 9.2480469 C 18.457881 9.0979864 18.722222 9 19 9 z " fill="currentColor"/>
</svg>
