<svg xmlns="http://www.w3.org/2000/svg" width="1em" height="1em" viewBox="0 0 24 24" fill="currentColor">
  <path d="M 3 7 A 1.0001 1.0001 0 0 0 2 8 L 2 12 L 2 16 A 1 1 0 0 0 3 17 A 1 1 0 0 0 4 16 L 4 13 L 5 13 C 5.9166665 13 6.731441 12.620244 7.2480469 12.039062 C 7.7646528 11.45788 8 10.722222 8 10 C 8 9.2777779 7.7646528 8.5421194 7.2480469 7.9609375 C 6.731441 7.3797556 5.9166665 7 5 7 L 3 7 z M 12 7 C 10.35499 7 9 8.3549904 9 10 L 9 14 C 9 14.916666 9.3797556 15.731441 9.9609375 16.248047 C 10.542119 16.764653 11.277778 17 12 17 C 12.722222 17 13.45788 16.764653 14.039062 16.248047 C 14.620243 15.731441 15 14.916666 15 14 L 15 10 C 15 8.3549904 13.64501 7 12 7 z M 18 7 C 16.907275 7 16 7.9072751 16 9 L 16 11 C 16 12.092725 16.907275 13 18 13 L 20 13 L 20 15 L 18 15 A 1 1 0 0 0 17 14 A 1 1 0 0 0 16 15 C 16 16.092725 16.907275 17 18 17 L 20 17 C 21.092725 17 22 16.092725 22 15 L 22 13 C 22 11.907275 21.092725 11 20 11 L 18 11 L 18 9 L 20 9 A 1 1 0 0 0 21 10 A 1 1 0 0 0 22 9 C 22 7.9072751 21.092725 7 20 7 L 18 7 z M 4 9 L 5 9 C 5.4166663 9 5.6018927 9.1202444 5.7519531 9.2890625 C 5.9020136 9.4578806 6 9.7222221 6 10 C 6 10.277778 5.9020136 10.542119 5.7519531 10.710938 C 5.6018927 10.879755 5.4166663 11 5 11 L 4 11 L 4 9 z M 12 9 C 12.564129 9 13 9.4358706 13 10 L 13 14 C 13 14.416666 12.879756 14.601893 12.710938 14.751953 C 12.542118 14.902014 12.277778 15 12 15 C 11.722222 15 11.45788 14.902014 11.289062 14.751953 C 11.120243 14.601893 11 14.416666 11 14 L 11 10 C 11 9.4358706 11.435871 9 12 9 z " fill="currentColor"/>
</svg>
