<svg xmlns="http://www.w3.org/2000/svg" width="1em" height="1em" viewBox="0 0 24 24" fill="currentColor">
  <path d="M 3 7 A 1.0001 1.0001 0 0 0 2 8 L 2 12 L 2 16 A 1 1 0 0 0 3 17 A 1 1 0 0 0 4 16 L 4 13 L 5 13 C 5.9166665 13 6.731441 12.620244 7.2480469 12.039062 C 7.7646528 11.45788 8 10.722222 8 10 C 8 9.2777779 7.7646528 8.5421194 7.2480469 7.9609375 C 6.731441 7.3797556 5.9166665 7 5 7 L 3 7 z M 12 7 C 11.277778 7 10.542119 7.2353472 9.9609375 7.7519531 C 9.3797556 8.268559 9 9.0833335 9 10 L 9 16 A 1 1 0 0 0 10 17 A 1 1 0 0 0 11 16 L 11 14 L 13 14 L 13 16 A 1 1 0 0 0 14 17 A 1 1 0 0 0 15 16 L 15 10 C 15 9.0833335 14.620244 8.268559 14.039062 7.7519531 C 13.45788 7.2353472 12.722222 7 12 7 z M 17 7 A 1 1 0 0 0 16 8 A 1 1 0 0 0 17 9 L 18 9 L 18 16 A 1 1 0 0 0 19 17 A 1 1 0 0 0 20 16 L 20 9 L 21 9 A 1 1 0 0 0 22 8 A 1 1 0 0 0 21 7 L 19 7 L 17 7 z M 4 9 L 5 9 C 5.4166663 9 5.6018927 9.1202444 5.7519531 9.2890625 C 5.9020136 9.4578806 6 9.7222221 6 10 C 6 10.277778 5.9020136 10.542119 5.7519531 10.710938 C 5.6018927 10.879755 5.4166663 11 5 11 L 4 11 L 4 9 z M 12 9 C 12.277778 9 12.542119 9.0979864 12.710938 9.2480469 C 12.879755 9.3981073 13 9.5833337 13 10 L 13 12 L 11 12 L 11 10 C 11 9.5833337 11.120244 9.3981073 11.289062 9.2480469 C 11.45788 9.0979864 11.722222 9 12 9 z " fill="currentColor"/>
</svg>
