<svg xmlns="http://www.w3.org/2000/svg" width="1em" height="1em" viewBox="0 0 24 24" fill="currentColor">
  <path d="M 9.9609375 2 A 1.0001 1.0001 0 0 0 9.4453125 2.1679688 L 6.4453125 4.1679688 A 1.0001 1.0001 0 0 0 6.0722656 4.6289062 L 4.3242188 9 L 3 9 A 1 1 0 0 0 2 10 A 1 1 0 0 0 3 11 L 4.2792969 11 L 6.0507812 16.316406 A 1.0001 1.0001 0 0 0 6.6835938 16.949219 L 9.3320312 17.832031 L 12.142578 22.513672 A 1.0001 1.0001 0 0 0 13.599609 22.800781 L 17.599609 19.800781 A 1.0001 1.0001 0 0 0 17.976562 19.216797 L 19.802734 11 L 21 11 A 1 1 0 0 0 22 10 A 1 1 0 0 0 21 9 L 19.535156 9 L 17.832031 6.4453125 A 1.0001 1.0001 0 0 0 17.242188 6.0292969 L 13.511719 5.0976562 L 10.707031 2.2929688 A 1.0001 1.0001 0 0 0 9.9609375 2 z M 9.8730469 4.2871094 L 12.292969 6.7070312 A 1.0001 1.0001 0 0 0 12.757812 6.9707031 L 16.382812 7.8769531 L 17.130859 9 L 6.4765625 9 L 7.8125 5.6601562 L 9.8730469 4.2871094 z M 6.3867188 11 L 17.753906 11 L 16.103516 18.421875 L 13.287109 20.535156 L 10.857422 16.486328 A 1.0001 1.0001 0 0 0 10.316406 16.050781 L 7.7910156 15.208984 L 6.3867188 11 z " fill="currentColor"/>
</svg>
