<svg xmlns="http://www.w3.org/2000/svg" width="1em" height="1em" viewBox="0 0 24 24" fill="currentColor">
  <path d="M 12 1.0019531 C 11.485068 1.0019531 10.970902 1.132371 10.509766 1.3964844 L 3.5097656 5.4042969 C 3.0834347 5.6484758 2.7313241 5.9900192 2.4746094 6.390625 A 1 1 0 0 0 2.3886719 6.5351562 A 1 1 0 0 0 2.3886719 6.5371094 C 2.1397779 6.9787293 2.0001312 7.4823012 2 8.0058594 A 1.0001 1.0001 0 0 0 2 8.0078125 L 2 15.992188 A 1.0001 1.0001 0 0 0 2 15.994141 C 2.000269 17.067751 2.5781395 18.062119 3.5097656 18.595703 L 10.509766 22.603516 C 10.962396 22.862757 11.465662 22.995219 11.970703 23 C 11.989683 23.00018 12.010317 23.00018 12.029297 23 C 12.534338 22.995219 13.037604 22.862757 13.490234 22.603516 L 20.490234 18.595703 C 21.42186 18.062075 21.999731 17.067751 22 15.994141 A 1.0001 1.0001 0 0 0 22 15.992188 L 22 8.0078125 A 1 1 0 0 0 22 8.0058594 C 21.999869 7.4823018 21.86022 6.9767754 21.611328 6.5351562 A 1 1 0 0 0 21.525391 6.390625 C 21.268676 5.990021 20.916564 5.6484748 20.490234 5.4042969 L 13.490234 1.3964844 C 13.029098 1.132371 12.514932 1.0019531 12 1.0019531 z M 12.007812 3.5410156 C 13.091354 5.2707269 14.006042 6.7573481 14.75 8 L 9.2832031 8 L 12.007812 3.5410156 z M 9.0566406 4.5332031 L 7.1191406 7.7070312 L 5.1640625 6.7636719 L 9.0566406 4.5332031 z M 15.001953 4.5683594 L 18.835938 6.7636719 L 16.896484 7.6992188 C 16.364652 6.7980918 15.733429 5.7547347 15.001953 4.5683594 z M 4 8.421875 L 6.1171875 9.4433594 L 4 13.300781 L 4 8.421875 z M 20 8.421875 L 20 13.242188 C 19.18107 11.732261 18.480382 10.465068 17.898438 9.4355469 L 20 8.421875 z M 9.2089844 10 L 14.791016 10 L 12 14.960938 L 9.2089844 10 z M 16.503906 11.03125 C 17.23806 12.344259 18.143602 14.002 19.216797 16 L 13.708984 16 L 16.503906 11.03125 z M 7.5117188 11.058594 L 10.291016 16 L 4.8007812 16 L 7.5117188 11.058594 z M 6.4960938 18 L 11 18 L 11 20.580078 L 6.4960938 18 z M 13 18 L 17.503906 18 L 13 20.580078 L 13 18 z " fill="currentColor"/>
</svg>
