<svg xmlns="http://www.w3.org/2000/svg" width="1em" height="1em" viewBox="0 0 24 24" fill="currentColor">
  <path d="M 13 5 A 1 1 0 0 0 12 6 A 1 1 0 0 0 13 7 L 20 7 A 1 1 0 0 0 21 6 A 1 1 0 0 0 20 5 L 13 5 z M 8 7 A 1 1 0 0 0 7.2929688 7.2929688 L 3.2929688 11.292969 A 1.0001 1.0001 0 0 0 3.2929688 12.707031 L 7.2929688 16.707031 A 1 1 0 0 0 8.7070312 16.707031 A 1 1 0 0 0 8.7070312 15.292969 L 5.4140625 12 L 8.7070312 8.7070312 A 1 1 0 0 0 8.7070312 7.2929688 A 1 1 0 0 0 8 7 z M 11 11 A 1 1 0 0 0 10 12 A 1 1 0 0 0 11 13 L 20 13 A 1 1 0 0 0 21 12 A 1 1 0 0 0 20 11 L 11 11 z M 13 17 A 1 1 0 0 0 12 18 A 1 1 0 0 0 13 19 L 20 19 A 1 1 0 0 0 21 18 A 1 1 0 0 0 20 17 L 13 17 z " fill="currentColor"/>
</svg>
