<svg xmlns="http://www.w3.org/2000/svg" width="1em" height="1em" viewBox="0 0 24 24" fill="currentColor">
  <path d="M 3 2 A 1 1 0 0 0 2.2929688 2.2929688 A 1 1 0 0 0 2.2929688 3.7070312 L 5.7519531 7.1660156 C 3.6519254 7.72356 1.9982145 9.6326955 1.9980469 12 C 1.9979672 14.185091 3.3571511 15.903222 5.0859375 16.619141 C 6.8096884 17.332974 8.9755955 17.076382 10.519531 15.542969 C 11.122833 14.99261 11.534424 14.282544 12 13.615234 C 12.466398 14.283721 12.877828 14.995774 13.482422 15.546875 C 13.993964 16.054138 14.606488 16.447545 15.28125 16.695312 L 20.292969 21.707031 A 1 1 0 0 0 21.707031 21.707031 A 1 1 0 0 0 21.707031 20.292969 L 3.7070312 2.2929688 A 1 1 0 0 0 3 2 z M 16.982422 6.8964844 C 15.787034 6.9042622 14.526016 7.4056365 13.46875 8.4628906 L 13.464844 8.4648438 C 13.289954 8.6248333 13.119274 8.789979 12.955078 8.9609375 A 1 1 0 0 0 12.984375 10.375 A 1 1 0 0 0 14.398438 10.345703 C 14.541903 10.196326 14.690313 10.05124 14.84375 9.9121094 A 1.0001 1.0001 0 0 0 14.878906 9.8789062 C 15.72569 9.0308398 16.513944 8.8275362 17.265625 8.9121094 C 18.017306 8.9966824 18.763746 9.4319778 19.298828 10.068359 C 19.833911 10.704741 20.133608 11.51449 20.087891 12.269531 C 20.042171 13.024573 19.7074 13.764491 18.726562 14.453125 A 1 1 0 0 0 18.482422 15.845703 A 1 1 0 0 0 19.875 16.089844 C 21.275314 15.106701 22.004466 13.736175 22.085938 12.390625 C 22.167406 11.045075 21.658605 9.7666305 20.830078 8.78125 C 20.001551 7.7958695 18.829796 7.074545 17.490234 6.9238281 C 17.322944 6.9050059 17.153192 6.8953733 16.982422 6.8964844 z M 6.9628906 8.9941406 C 7.1913778 8.9937484 7.4254262 9.0199953 7.6601562 9.0742188 L 10.755859 12.169922 C 10.315027 12.879487 9.7767966 13.525129 9.15625 14.087891 A 1.0001 1.0001 0 0 0 9.1210938 14.121094 C 8.1461987 15.096384 6.9073898 15.20872 5.8515625 14.771484 C 4.795735 14.334252 3.9979966 13.378989 3.9980469 12 C 3.9981688 10.277985 5.3634804 8.9968865 6.9628906 8.9941406 z " fill="currentColor"/>
</svg>
