<svg xmlns="http://www.w3.org/2000/svg" width="1em" height="1em" viewBox="0 0 24 24" fill="currentColor">
  <path d="M 7.1621094 7.0019531 C 6.4451346 6.9807435 5.7341836 7.1123694 5.0859375 7.3808594 C 3.3572812 8.0968326 2 9.8151139 2 12 C 2 14.184886 3.3572812 15.903167 5.0859375 16.619141 C 6.8095586 17.333028 8.9755196 17.0763 10.519531 15.542969 C 11.122833 14.99261 11.534424 14.282544 12 13.615234 C 12.465576 14.282544 12.877167 14.99261 13.480469 15.542969 C 15.024481 17.0763 17.190442 17.333028 18.914062 16.619141 C 20.642719 15.903167 22 14.184886 22 12 C 22 9.8151139 20.642719 8.0968326 18.914062 7.3808594 C 17.190441 6.6669716 15.024481 6.9237 13.480469 8.4570312 C 12.877167 9.0073894 12.465576 9.7174556 12 10.384766 C 11.542954 9.729683 11.136808 9.0347763 10.546875 8.4921875 A 1 1 0 0 0 10.535156 8.4648438 L 10.533203 8.4628906 L 10.53125 8.4628906 L 10.529297 8.4609375 L 10.527344 8.4609375 L 10.525391 8.4609375 L 10.523438 8.4589844 L 10.521484 8.4589844 L 10.519531 8.4570312 L 10.517578 8.4550781 C 10.512307 8.4490404 10.505254 8.4376677 10.5 8.4316406 A 1 1 0 0 0 10.474609 8.4335938 C 9.7128024 7.6927977 8.810344 7.2378747 7.8789062 7.0742188 C 7.6406321 7.0323534 7.401101 7.009023 7.1621094 7.0019531 z M 7.0917969 8.984375 C 7.2329789 8.9867023 7.3747469 8.9995802 7.515625 9.0234375 C 8.0791374 9.1188665 8.6335921 9.3912574 9.1210938 9.8789062 A 1 1 0 0 0 9.15625 9.8925781 A 1 1 0 0 0 9.15625 9.9121094 C 9.8115504 10.506388 10.305877 11.243135 10.759766 12 C 10.305877 12.756865 9.8115502 13.493612 9.15625 14.087891 A 1.0001 1.0001 0 0 0 9.1210938 14.121094 C 8.1460903 15.096395 6.9072666 15.208735 5.8515625 14.771484 C 4.7958584 14.334234 4 13.37884 4 12 C 4 10.62116 4.7958584 9.6657662 5.8515625 9.2285156 C 6.2474515 9.0645467 6.6682507 8.9773932 7.0917969 8.984375 z M 16.908203 8.984375 C 17.331749 8.9773933 17.752548 9.0645468 18.148438 9.2285156 C 19.204142 9.6657662 20 10.62116 20 12 C 20 13.37884 19.204142 14.334234 18.148438 14.771484 C 17.092734 15.208735 15.85391 15.096392 14.878906 14.121094 A 1.0001 1.0001 0 0 0 14.84375 14.087891 C 14.188454 13.493609 13.694123 12.756865 13.240234 12 C 13.694123 11.243135 14.18845 10.506388 14.84375 9.9121094 A 1.0001 1.0001 0 0 0 14.878906 9.8789062 C 15.366408 9.3912574 15.920863 9.1188665 16.484375 9.0234375 C 16.625253 8.9995803 16.767021 8.9867022 16.908203 8.984375 z " fill="currentColor"/>
</svg>
