<svg xmlns="http://www.w3.org/2000/svg" width="1em" height="1em" viewBox="0 0 24 24" fill="currentColor">
  <path d="M 3 2 A 1 1 0 0 0 2.2929688 2.2929688 A 1 1 0 0 0 2.2929688 3.7070312 L 7.1210938 8.5351562 C 4.0980902 9.703034 1.9995465 12.639482 2 16 A 1.0001 1.0001 0 0 0 3 17 L 15.585938 17 L 20.292969 21.707031 A 1 1 0 0 0 21.707031 21.707031 A 1 1 0 0 0 21.707031 20.292969 L 16.716797 15.302734 A 1 1 0 0 0 16.697266 15.283203 L 3.7070312 2.2929688 A 1 1 0 0 0 3 2 z M 9 3 A 1 1 0 0 0 8 4 A 1 1 0 0 0 9 5 L 16.458984 5 C 17.443522 5.0000704 18.269848 5.7007223 18.431641 6.671875 L 18.652344 8 L 13 8 A 1 1 0 0 0 12 9 A 1 1 0 0 0 13 10 L 18.986328 10 L 19.007812 10.134766 L 19.818359 15 A 1 1 0 0 0 18.998047 16.152344 A 1 1 0 0 0 20.150391 16.972656 C 21.226778 16.792028 21.969782 15.748574 21.791016 14.671875 L 20.980469 9.8066406 L 20.404297 6.3417969 C 20.084096 4.4198008 18.40747 3.0001394 16.458984 3 L 9 3 z M 8.7226562 10.136719 L 13.585938 15 L 4.1835938 15 C 4.5954895 12.613771 6.3295869 10.660646 8.7226562 10.136719 z M 12 18 A 1 1 0 0 0 11 19 L 11 21 A 1 1 0 0 0 12 22 A 1 1 0 0 0 13 21 L 13 19 A 1 1 0 0 0 12 18 z M 7.9394531 18.001953 A 1 1 0 0 0 7.6835938 18.050781 A 1 1 0 0 0 7.1054688 18.552734 L 6.1054688 20.552734 A 1 1 0 0 0 6.5527344 21.894531 A 1 1 0 0 0 7.8945312 21.447266 L 8.8945312 19.447266 A 1 1 0 0 0 8.4472656 18.105469 A 1 1 0 0 0 7.9394531 18.001953 z M 15.929688 18.001953 A 1 1 0 0 0 15.552734 18.105469 A 1 1 0 0 0 15.105469 19.447266 L 16.105469 21.447266 A 1 1 0 0 0 17.447266 21.894531 A 1 1 0 0 0 17.894531 20.552734 L 16.894531 18.552734 A 1 1 0 0 0 16.316406 18.050781 A 1 1 0 0 0 15.929688 18.001953 z " fill="currentColor"/>
</svg>
