<svg xmlns="http://www.w3.org/2000/svg" width="1em" height="1em" viewBox="0 0 24 24" fill="currentColor">
  <path d="M 12 5 C 11.083333 5 10.561694 5.5579067 9.9902344 6.2246094 C 9.5880376 6.6938389 9.1697313 7.2864875 8.71875 8.0136719 C 7.8957949 7.3680545 6.979359 7 6 7 C 5.0333333 7 4.1586587 7.1924047 3.4453125 7.6679688 C 2.7319663 8.143533 2.2435195 8.9009218 2.0292969 9.7578125 A 1.0001 1.0001 0 0 0 2.8964844 10.994141 C 4.0417848 11.114372 4.4915075 11.60487 4.9472656 12.548828 C 5.2774112 13.23262 5.5106281 14.14202 5.75 15.117188 C 4.7417082 15.439951 4 16.392074 4 17.5 C 4 18.868867 5.1311328 20 6.5 20 L 17.5 20 C 18.868867 20 20 18.868867 20 17.5 C 20 16.392074 19.258292 15.439951 18.25 15.117188 C 18.489372 14.14202 18.722589 13.23262 19.052734 12.548828 C 19.508493 11.60487 19.958215 11.114372 21.103516 10.994141 A 1.0001 1.0001 0 0 0 21.970703 9.7578125 C 21.75648 8.9009218 21.268035 8.143533 20.554688 7.6679688 C 19.841341 7.1924046 18.966667 7 18 7 C 17.020641 7 16.104205 7.3680546 15.28125 8.0136719 C 14.830269 7.2864876 14.411962 6.6938389 14.009766 6.2246094 C 13.438306 5.5579067 12.916667 5 12 5 z M 12 7.0820312 C 12.102137 7.1525184 12.28245 7.2829771 12.490234 7.5253906 C 12.857236 7.953559 13.32367 8.6274212 13.857422 9.5253906 C 13.181028 10.455757 12.56814 11.614401 12 13.009766 C 11.43186 11.614401 10.818972 10.455757 10.142578 9.5253906 C 10.67633 8.6274212 11.142764 7.953559 11.509766 7.5253906 C 11.717548 7.2829771 11.897863 7.1525184 12 7.0820312 z M 6 9 C 6.7857143 9 7.5612186 9.4156098 8.4492188 10.599609 C 9.1823422 11.577107 9.9205995 13.050779 10.613281 15 L 7.7851562 15 C 7.525962 13.910441 7.2609452 12.741993 6.7480469 11.679688 C 6.2993681 10.750391 5.455777 10.028919 4.421875 9.5390625 C 4.4764823 9.4880937 4.4894866 9.3754984 4.5546875 9.3320312 C 4.8413413 9.1409286 5.3 9 6 9 z M 18 9 C 18.7 9 19.158659 9.1409286 19.445312 9.3320312 C 19.510513 9.3754982 19.523522 9.4880937 19.578125 9.5390625 C 18.544223 10.028919 17.700632 10.750391 17.251953 11.679688 C 16.739055 12.741993 16.474038 13.910441 16.214844 15 L 13.386719 15 C 14.0794 13.050779 14.817658 11.577107 15.550781 10.599609 C 16.438781 9.4156098 17.214286 9 18 9 z M 6.5 17 L 17.5 17 C 17.787987 17 18 17.212013 18 17.5 C 18 17.787987 17.787987 18 17.5 18 L 6.5 18 C 6.212013 18 6 17.787987 6 17.5 C 6 17.212013 6.212013 17 6.5 17 z " fill="currentColor"/>
</svg>
