<svg xmlns="http://www.w3.org/2000/svg" width="1em" height="1em" viewBox="0 0 24 24" fill="currentColor">
  <path d="M 18 2 C 16.35499 2 15 3.3549904 15 5 L 15 8 C 15 9.2951422 15.839913 10.410314 17 10.826172 L 17 16 C 17 16.749999 16.754756 17.185226 16.398438 17.501953 C 16.042119 17.81868 15.527778 18 15 18 C 14.472222 18 13.95788 17.81868 13.601562 17.501953 C 13.245243 17.185226 13 16.749999 13 16 L 13 8 C 13 6.7500003 12.495244 5.6852256 11.726562 5.0019531 C 10.95788 4.3186806 9.9722221 4 9 4 C 8.0277779 4 7.0421194 4.3186806 6.2734375 5.0019531 C 5.5047556 5.6852256 5 6.7500003 5 8 L 5 13.173828 C 3.8399128 13.589685 3 14.704858 3 16 L 3 19 C 3 20.64501 4.3549904 22 6 22 C 7.6450096 22 9 20.64501 9 19 L 9 16 C 9 14.704858 8.1600872 13.589685 7 13.173828 L 7 8 C 7 7.2500005 7.2452444 6.8147739 7.6015625 6.4980469 C 7.9578806 6.1813198 8.4722221 6 9 6 C 9.5277779 6 10.042119 6.1813198 10.398438 6.4980469 C 10.754755 6.8147739 11 7.2500005 11 8 L 11 16 C 11 17.25 11.504756 18.314774 12.273438 18.998047 C 13.042118 19.681319 14.027778 20 15 20 C 15.972222 20 16.957881 19.681319 17.726562 18.998047 C 18.495244 18.314774 19 17.25 19 16 L 19 10.826172 C 20.160087 10.410314 21 9.2951422 21 8 L 21 5 C 21 3.3549904 19.64501 2 18 2 z M 18 4 C 18.564129 4 19 4.4358706 19 5 L 19 8 C 19 8.5641294 18.564129 9 18 9 C 17.435871 9 17 8.5641294 17 8 L 17 5 C 17 4.4358706 17.435871 4 18 4 z M 6 15 C 6.5641294 15 7 15.435871 7 16 L 7 19 C 7 19.564129 6.5641294 20 6 20 C 5.4358706 20 5 19.564129 5 19 L 5 16 C 5 15.435871 5.4358706 15 6 15 z " fill="currentColor"/>
</svg>
