<svg xmlns="http://www.w3.org/2000/svg" width="1em" height="1em" viewBox="0 0 24 24" fill="currentColor">
  <path d="M 14.966797 3.0019531 A 1 1 0 0 0 14.064453 3.6484375 L 8.0644531 19.648438 A 1 1 0 0 0 8.6484375 20.935547 A 1 1 0 0 0 9.9355469 20.351562 L 15.935547 4.3515625 A 1 1 0 0 0 15.351562 3.0644531 A 1 1 0 0 0 14.966797 3.0019531 z M 18.5 8 C 17.652778 8 16.792119 8.2770139 16.117188 8.8769531 C 15.442256 9.4768923 15 10.416667 15 11.5 L 15 13 L 15 15 A 1 1 0 0 0 16 16 A 1 1 0 0 0 17 15 L 17 14 L 20 14 L 20 15 A 1 1 0 0 0 21 16 A 1 1 0 0 0 22 15 L 22 13 L 22 11.5 C 22 10.416667 21.557744 9.4768923 20.882812 8.8769531 C 20.207881 8.2770139 19.347222 8 18.5 8 z M 2.9296875 8.0019531 A 1 1 0 0 0 2.5527344 8.1054688 A 1 1 0 0 0 2.1054688 9.4472656 L 5.1054688 15.447266 A 1.0001 1.0001 0 0 0 6.8945312 15.447266 L 9.8945312 9.4472656 A 1 1 0 0 0 9.4472656 8.1054688 A 1 1 0 0 0 8.6835938 8.0507812 A 1 1 0 0 0 8.1054688 8.5527344 L 6 12.763672 L 3.8945312 8.5527344 A 1 1 0 0 0 2.9296875 8.0019531 z M 18.5 10 C 18.902778 10 19.292119 10.139653 19.554688 10.373047 C 19.817256 10.606441 20 10.916667 20 11.5 L 20 12 L 17 12 L 17 11.5 C 17 10.916667 17.182744 10.606441 17.445312 10.373047 C 17.707881 10.139653 18.097222 10 18.5 10 z " fill="currentColor"/>
</svg>
