<svg xmlns="http://www.w3.org/2000/svg" width="1em" height="1em" viewBox="0 0 24 24" fill="currentColor">
  <path d="M 12 1 A 1 1 0 0 0 11 2 L 11 4 A 1 1 0 0 0 12 5 A 1 1 0 0 0 13 4 L 13 2 A 1 1 0 0 0 12 1 z M 12 6 C 11.361077 6 10.771981 6.3197853 10.394531 6.8066406 L 7.4863281 10.554688 A 1.0001 1.0001 0 0 0 7.4746094 10.570312 C 6.8433323 11.415174 6.8433323 12.584824 7.4746094 13.429688 A 1.0001 1.0001 0 0 0 7.4863281 13.445312 L 10.394531 17.193359 C 10.772654 17.682141 11.362008 18 12 18 C 12.638923 18 13.228019 17.680215 13.605469 17.193359 L 16.513672 13.445312 A 1.0001 1.0001 0 0 0 16.525391 13.429688 C 17.156668 12.584824 17.156668 11.415175 16.525391 10.570312 A 1.0001 1.0001 0 0 0 16.513672 10.554688 L 13.607422 6.8085938 C 13.229367 6.3185904 12.638923 6 12 6 z M 12 8.0039062 C 12.005151 8.0086836 12.012779 8.0174377 12.023438 8.03125 A 1.0001 1.0001 0 0 0 12.025391 8.0332031 L 14.923828 11.769531 C 15.026386 11.909781 15.026386 12.090219 14.923828 12.230469 L 12.025391 15.966797 C 12.013818 15.981705 12.005454 15.991029 12 15.996094 C 11.994849 15.991317 11.987225 15.982569 11.976562 15.96875 A 1.0001 1.0001 0 0 0 11.974609 15.966797 L 9.0761719 12.230469 C 8.9736142 12.090219 8.9736142 11.909781 9.0761719 11.769531 L 11.974609 8.0332031 C 11.986161 8.018304 11.994553 8.0089715 12 8.0039062 z M 12 19 A 1 1 0 0 0 11 20 L 11 22 A 1 1 0 0 0 12 23 A 1 1 0 0 0 13 22 L 13 20 A 1 1 0 0 0 12 19 z " fill="currentColor"/>
</svg>
