<svg xmlns="http://www.w3.org/2000/svg" width="1em" height="1em" viewBox="0 0 24 24" fill="currentColor">
  <path d="M 11.851562 1.9726562 C 11.075303 2.0184564 10.389513 2.372025 9.8789062 2.8828125 C 9.3682992 3.3936 9.0142757 4.0811477 8.96875 4.8574219 C 8.9232243 5.6336961 9.2305983 6.4769214 9.8789062 7.125 L 10.019531 7.265625 L 2.4570312 12.160156 A 1.0001 1.0001 0 0 0 2.2480469 13.658203 L 7.796875 20 L 5 20 A 1 1 0 0 0 4 21 A 1 1 0 0 0 5 22 L 14 22 A 1 1 0 0 0 15 21 A 1 1 0 0 0 14 20 L 10.453125 20 L 4.5136719 13.212891 L 10.402344 9.4023438 C 10.236753 11.309855 10.867389 13.281452 12.292969 14.707031 A 1 1 0 0 0 13.707031 14.707031 L 15.226562 13.1875 C 16.602607 14.333901 18.672502 14.265931 19.966797 12.984375 A 1.0001 1.0001 0 0 0 19.96875 12.982422 C 21.263992 11.695456 21.335494 9.6176971 20.166016 8.2480469 L 21.707031 6.7070312 A 1.0001 1.0001 0 0 0 21.673828 5.2617188 C 20.388873 4.0875177 18.675372 3.4635019 16.966797 3.4492188 C 16.289686 3.4435584 15.613096 3.5351544 14.964844 3.7246094 L 14.962891 3.7246094 L 14.121094 2.8828125 A 1.0001 1.0001 0 0 0 14.121094 2.8808594 C 13.472786 2.2327776 12.62782 1.9268562 11.851562 1.9726562 z M 12.054688 3.9667969 C 12.25115 3.9708775 12.449176 4.0391105 12.707031 4.296875 L 13.056641 4.6464844 C 12.788242 4.8384551 12.532604 5.0533333 12.292969 5.2929688 C 12.052596 5.5333415 11.83576 5.7901339 11.640625 6.0585938 L 11.292969 5.7109375 C 10.998277 5.4163499 10.951619 5.2001058 10.964844 4.9746094 C 10.978068 4.7491129 11.096576 4.4933375 11.292969 4.296875 C 11.489362 4.1004125 11.745211 3.9820543 11.970703 3.96875 C 11.99889 3.967087 12.026621 3.9662139 12.054688 3.9667969 z M 16.980469 5.5058594 C 17.839087 5.5161334 18.655791 5.793334 19.396484 6.1894531 L 13.152344 12.433594 C 12.079924 10.654531 12.211734 8.2023284 13.707031 6.7070312 C 14.5326 5.8814622 15.750544 5.4911425 16.980469 5.5058594 z M 18.740234 9.6738281 C 19.14207 10.255285 19.087486 11.037093 18.560547 11.5625 L 18.558594 11.5625 L 18.558594 11.564453 C 18.03199 12.084089 17.251126 12.143669 16.660156 11.753906 L 18.740234 9.6738281 z " fill="currentColor"/>
</svg>
