<svg xmlns="http://www.w3.org/2000/svg" width="1em" height="1em" viewBox="0 0 24 24" fill="currentColor">
  <path d="M 3 2 A 1 1 0 0 0 2.2929688 2.2929688 A 1 1 0 0 0 2.2929688 3.7070312 L 5.6113281 7.0253906 C 4.1468398 7.2185366 3 8.4865617 3 10 L 3 18 C 3 19.64501 4.3549904 21 6 21 L 14 21 C 15.513439 21 16.781464 19.853161 16.974609 18.388672 L 20.292969 21.707031 A 1 1 0 0 0 21.707031 21.707031 A 1 1 0 0 0 21.707031 20.292969 L 16.716797 15.302734 A 1 1 0 0 0 16.697266 15.283203 L 8.7167969 7.3027344 A 1 1 0 0 0 8.6972656 7.2832031 L 3.7070312 2.2929688 A 1 1 0 0 0 3 2 z M 10 3 C 9.1809091 3 8.4279526 3.3343453 7.8867188 3.8710938 A 1 1 0 0 0 7.8808594 5.2851562 A 1 1 0 0 0 9.2949219 5.2910156 C 9.4776888 5.1097634 9.7190909 5 10 5 L 18 5 C 18.564129 5 19 5.4358706 19 6 L 19 14 C 19 14.283818 18.886524 14.530037 18.703125 14.710938 A 1 1 0 0 0 18.693359 16.125 A 1 1 0 0 0 20.107422 16.134766 C 20.658057 15.591632 21 14.828182 21 14 L 21 6 C 21 4.3549904 19.64501 3 18 3 L 10 3 z M 6 9 L 7 9 L 7 14 C 7 15.64501 8.3549904 17 10 17 L 15 17 L 15 18 C 15 18.564129 14.564129 19 14 19 L 6 19 C 5.4358706 19 5 18.564129 5 18 L 5 10 C 5 9.4358706 5.4358706 9 6 9 z M 9 10.414062 L 13.585938 15 L 10 15 C 9.4358706 15 9 14.564129 9 14 L 9 10.414062 z " fill="currentColor"/>
</svg>
