<svg xmlns="http://www.w3.org/2000/svg" width="1em" height="1em" viewBox="0 0 24 24" fill="currentColor">
  <path d="M 6 3 C 4.3549904 3 3 4.3549904 3 6 L 3 14 C 2.99896 15.071231 3.5722863 16.063994 4.5 16.599609 A 1 1 0 0 0 5.8652344 16.234375 A 1 1 0 0 0 5.5 14.867188 C 5.1889024 14.687575 4.99965 14.359224 5 14 L 5 6 C 5 5.4358706 5.4358706 5 6 5 L 14 5 C 14.564129 5 15 5.4358706 15 6 L 15 14 C 15 14.564129 14.564129 15 14 15 L 11 15 A 1 1 0 0 0 10 16 A 1 1 0 0 0 11 17 L 14 17 C 15.64501 17 17 15.64501 17 14 L 17 6 C 17 4.3549904 15.64501 3 14 3 L 6 3 z M 10 7 C 8.3549904 7 7 8.3549904 7 10 L 7 18 C 7 19.64501 8.3549904 21 10 21 L 18 21 C 19.64501 21 21 19.64501 21 18 L 21 10 C 20.999973 8.9298334 20.426791 7.9374271 19.5 7.4023438 A 1 1 0 0 0 18.134766 7.7675781 A 1 1 0 0 0 18.5 9.1347656 C 18.810781 9.3141954 18.999991 9.6411405 19 10 L 19 18 C 19 18.564129 18.564129 19 18 19 L 10 19 C 9.4358706 19 9 18.564129 9 18 L 9 10 C 9 9.4358706 9.4358706 9 10 9 L 13 9 A 1 1 0 0 0 14 8 A 1 1 0 0 0 13 7 L 10 7 z " fill="currentColor"/>
</svg>
