<svg xmlns="http://www.w3.org/2000/svg" width="1em" height="1em" viewBox="0 0 24 24" fill="currentColor">
  <path d="M 11 3 C 9.3549904 3 8 4.3549904 8 6 L 8 14 C 8 15.64501 9.3549904 17 11 17 L 13 17 C 14.64501 17 16 15.64501 16 14 L 16 6 C 16 4.3549904 14.64501 3 13 3 L 11 3 z M 11 5 L 13 5 C 13.564129 5 14 5.4358706 14 6 L 14 14 C 14 14.564129 13.564129 15 13 15 L 11 15 C 10.435871 15 10 14.564129 10 14 L 10 6 C 10 5.4358706 10.435871 5 11 5 z M 4 19 A 1 1 0 0 0 3 20 A 1 1 0 0 0 4 21 L 20 21 A 1 1 0 0 0 21 20 A 1 1 0 0 0 20 19 L 4 19 z " fill="currentColor"/>
</svg>
