<svg xmlns="http://www.w3.org/2000/svg" width="1em" height="1em" viewBox="0 0 24 24" fill="currentColor">
  <path d="M 11 5 C 9.3549904 5 8 6.3549904 8 8 L 8 11 L 4 11 A 1 1 0 0 0 3 12 A 1 1 0 0 0 4 13 L 8 13 L 8 16 C 8 17.64501 9.3549904 19 11 19 L 13 19 C 14.64501 19 16 17.64501 16 16 L 16 13 L 20 13 A 1 1 0 0 0 21 12 A 1 1 0 0 0 20 11 L 16 11 L 16 8 C 16 6.3549904 14.64501 5 13 5 L 11 5 z M 11 7 L 13 7 C 13.564129 7 14 7.4358706 14 8 L 14 12 L 14 16 C 14 16.564129 13.564129 17 13 17 L 11 17 C 10.435871 17 10 16.564129 10 16 L 10 12 L 10 8 C 10 7.4358706 10.435871 7 11 7 z " fill="currentColor"/>
</svg>
