<svg xmlns="http://www.w3.org/2000/svg" width="1em" height="1em" viewBox="0 0 24 24" fill="currentColor">
  <path d="M 4 3 A 1 1 0 0 0 3 4 A 1 1 0 0 0 4 5 L 20 5 A 1 1 0 0 0 21 4 A 1 1 0 0 0 20 3 L 4 3 z M 8 8 C 6.3549904 8 5 9.3549904 5 11 L 5 13 C 5 14.64501 6.3549904 16 8 16 L 16 16 C 17.64501 16 19 14.64501 19 13 L 19 11 C 19 9.3549904 17.64501 8 16 8 L 8 8 z M 8 10 L 16 10 C 16.564129 10 17 10.435871 17 11 L 17 13 C 17 13.564129 16.564129 14 16 14 L 8 14 C 7.4358706 14 7 13.564129 7 13 L 7 11 C 7 10.435871 7.4358706 10 8 10 z M 4 19 A 1 1 0 0 0 3 20 A 1 1 0 0 0 4 21 L 20 21 A 1 1 0 0 0 21 20 A 1 1 0 0 0 20 19 L 4 19 z " fill="currentColor"/>
</svg>
