<svg xmlns="http://www.w3.org/2000/svg" width="1em" height="1em" viewBox="0 0 24 24" fill="currentColor">
  <path d="M 6 3 C 4.3549904 3 3 4.3549904 3 6 L 3 18 C 3 19.64501 4.3549904 21 6 21 L 18 21 C 19.64501 21 21 19.64501 21 18 L 21 6 C 21 4.3549904 19.64501 3 18 3 L 6 3 z M 6 5 L 8 5 L 8 19 L 6 19 C 5.4358706 19 5 18.564129 5 18 L 5 6 C 5 5.4358706 5.4358706 5 6 5 z M 10 5 L 18 5 C 18.564129 5 19 5.4358706 19 6 L 19 18 C 19 18.564129 18.564129 19 18 19 L 10 19 L 10 5 z M 14 9 A 1 1 0 0 0 13.292969 9.2929688 A 1 1 0 0 0 13.292969 10.707031 L 14.585938 12 L 13.292969 13.292969 A 1 1 0 0 0 13.292969 14.707031 A 1 1 0 0 0 14.707031 14.707031 L 16.707031 12.707031 A 1.0001 1.0001 0 0 0 16.707031 11.292969 L 14.707031 9.2929688 A 1 1 0 0 0 14 9 z " fill="currentColor"/>
</svg>
