<svg xmlns="http://www.w3.org/2000/svg" width="1em" height="1em" viewBox="0 0 24 24" fill="currentColor">
  <path d="M 17.535156 2.3925781 A 1 1 0 0 0 16.828125 2.6855469 L 9.7578125 9.7578125 L 2.6855469 16.828125 A 1.0001 1.0001 0 0 0 2.6855469 18.244141 C 6.9736314 22.531127 13.954104 22.531127 18.242188 18.244141 A 1.0001 1.0001 0 0 0 18.244141 18.242188 C 22.531127 13.954104 22.531127 6.9736314 18.244141 2.6855469 A 1 1 0 0 0 18.242188 2.6855469 A 1 1 0 0 0 17.535156 2.3925781 z M 17.392578 4.9492188 C 20.198418 8.4872187 20.100161 13.555251 16.828125 16.828125 C 13.555251 20.100161 8.4872188 20.198418 4.9492188 17.392578 L 5.9140625 16.427734 C 8.850105 18.668819 13.086481 18.448383 15.767578 15.767578 C 18.448677 13.086771 18.668664 8.8503491 16.427734 5.9140625 L 17.392578 4.9492188 z M 14.998047 7.34375 C 15.448059 7.9939051 15.74088 8.7185829 15.878906 9.4648438 L 12.878906 9.4648438 L 14.998047 7.34375 z M 12.878906 11.464844 L 15.878906 11.464844 C 15.740768 12.210454 15.447721 12.9344 14.998047 13.583984 L 12.878906 11.464844 z M 9.4648438 12.878906 L 9.4648438 15.878906 C 8.7185428 15.74092 7.9939019 15.448114 7.34375 14.998047 L 9.4648438 12.878906 z M 11.464844 12.878906 L 13.583984 14.998047 C 12.934397 15.447666 12.210414 15.740728 11.464844 15.878906 L 11.464844 12.878906 z " fill="currentColor"/>
</svg>
