<svg xmlns="http://www.w3.org/2000/svg" width="1em" height="1em" viewBox="0 0 24 24" fill="currentColor">
  <path d="M 12 7 C 10.35499 7 9 8.3549904 9 10 L 9 14 C 9 14.916666 9.3797556 15.731441 9.9609375 16.248047 C 10.542119 16.764653 11.277778 17 12 17 C 12.444135 17 12.893346 16.911336 13.308594 16.722656 A 1 1 0 0 0 14.707031 16.707031 A 1 1 0 0 0 14.722656 15.308594 C 14.899759 14.917352 15 14.472111 15 14 L 15 10 C 15 8.3549904 13.64501 7 12 7 z M 12 9 C 12.564129 9 13 9.4358706 13 10 L 13 14 A 1 1 0 0 0 12.292969 14.292969 A 1 1 0 0 0 12 15 C 11.722222 15 11.45788 14.902014 11.289062 14.751953 C 11.120243 14.601893 11 14.416666 11 14 L 11 10 C 11 9.4358706 11.435871 9 12 9 z " fill="currentColor"/>
</svg>
