<svg xmlns="http://www.w3.org/2000/svg" width="1em" height="1em" viewBox="0 0 24 24" fill="currentColor">
  <path d="M 4.0175781 3 A 1 1 0 0 0 3.7578125 3.0292969 A 1 1 0 0 0 3.0292969 4.2421875 L 7.0292969 20.242188 A 1.0001 1.0001 0 0 0 8.9609375 20.275391 L 12 9.6386719 L 15.039062 20.275391 A 1.0001 1.0001 0 0 0 16.970703 20.242188 L 20.970703 4.2421875 A 1 1 0 0 0 20.242188 3.0292969 A 1 1 0 0 0 19.029297 3.7578125 L 15.935547 16.134766 L 12.960938 5.7246094 A 1.0001 1.0001 0 0 0 11.039062 5.7246094 L 8.0644531 16.134766 L 4.9707031 3.7578125 A 1 1 0 0 0 4.0175781 3 z " fill="currentColor"/>
</svg>
