<svg xmlns="http://www.w3.org/2000/svg" width="1em" height="1em" viewBox="0 0 24 24" fill="currentColor">
  <path d="M 12 7 C 11.277778 7 10.542119 7.2353472 9.9609375 7.7519531 C 9.3797556 8.268559 9 9.0833335 9 10 L 9 13 L 9 16 A 1 1 0 0 0 10 17 A 1 1 0 0 0 11 16 L 11 14 L 13 14 L 13 16 A 1 1 0 0 0 14 17 A 1 1 0 0 0 15 16 L 15 13 L 15 10 C 15 9.0833335 14.620244 8.268559 14.039062 7.7519531 C 13.45788 7.2353472 12.722222 7 12 7 z M 12 9 C 12.277778 9 12.542119 9.0979864 12.710938 9.2480469 C 12.879755 9.3981073 13 9.5833337 13 10 L 13 12 L 11 12 L 11 10 C 11 9.5833337 11.120244 9.3981073 11.289062 9.2480469 C 11.45788 9.0979864 11.722222 9 12 9 z " fill="currentColor"/>
</svg>
