<svg xmlns="http://www.w3.org/2000/svg" width="1em" height="1em" viewBox="0 0 24 24" fill="currentColor">
  <path d="M 3 2 A 1 1 0 0 0 2.2929688 2.2929688 A 1 1 0 0 0 2.2929688 3.7070312 L 4.0371094 5.4511719 C 4.01218 5.6326706 3.9998669 5.8160384 4 6 L 4 16 L 3 16 A 1.0001 1.0001 0 0 0 2 17 L 2 18 C 2 20.197294 3.8027056 22 6 22 L 15 22 C 15.722222 22 16.457881 21.764653 17.039062 21.248047 C 17.536183 20.806162 17.885788 20.145982 17.976562 19.390625 L 20.292969 21.707031 A 1 1 0 0 0 21.707031 21.707031 A 1 1 0 0 0 21.707031 20.292969 L 17.716797 16.302734 A 1 1 0 0 0 17.697266 16.283203 L 11.716797 10.302734 A 1 1 0 0 0 11.697266 10.283203 L 3.7070312 2.2929688 A 1 1 0 0 0 3 2 z M 8 2 C 7.6105189 1.9997104 7.2227387 2.056275 6.8496094 2.1679688 A 1 1 0 0 0 6.1777344 3.4121094 A 1 1 0 0 0 7.421875 4.0839844 C 7.6087538 4.0280434 7.8029751 3.9997602 7.9980469 4 A 1.0001 1.0001 0 0 0 8 4 L 16.314453 4 C 16.18966 4.3269891 16 4.6219256 16 5 L 16 7 L 16 13 A 1 1 0 0 0 17 14 A 1 1 0 0 0 18 13 L 18 8 L 19 8 C 20.293952 8 21.343859 7.1809508 21.771484 6.1484375 C 22.19911 5.1159242 22.03599 3.7938023 21.121094 2.8789062 C 20.545532 2.3033443 19.821978 2.1182545 19.097656 2.0976562 A 1 1 0 0 0 19 2 L 8.0019531 2 L 8 2 z M 19.029297 3.9882812 C 19.260284 3.9883223 19.491426 4.0773634 19.707031 4.2929688 C 20.052 4.6379373 20.072756 5.0232211 19.923828 5.3828125 C 19.7749 5.7424039 19.487982 6 19 6 L 18 6 L 18 5 C 18 4.5120181 18.257596 4.2251001 18.617188 4.0761719 C 18.752035 4.0203238 18.890705 3.9882566 19.029297 3.9882812 z M 11 6 A 1 1 0 0 0 10 7 A 1 1 0 0 0 11 8 L 13 8 A 1 1 0 0 0 14 7 A 1 1 0 0 0 13 6 L 11 6 z M 6 7.4140625 L 8.6484375 10.0625 A 1 1 0 0 0 8 11 A 1 1 0 0 0 9 12 L 10.585938 12 L 16 17.414062 L 16 19 C 16 19.416666 15.879756 19.601893 15.710938 19.751953 C 15.542118 19.902014 15.277778 20 15 20 C 14.722222 20 14.45788 19.902014 14.289062 19.751953 C 14.120243 19.601893 14 19.416666 14 19 L 14 17 A 1.0001 1.0001 0 0 0 13 16 L 6 16 L 6 7.4140625 z M 4 18 L 5 18 L 12 18 L 12 19 C 12 19.359887 12.09886 19.683521 12.205078 20 L 6 20 C 4.8835859 20 4 19.116414 4 18 z " fill="currentColor"/>
</svg>
