<svg xmlns="http://www.w3.org/2000/svg" width="1em" height="1em" viewBox="0 0 24 24" fill="currentColor">
  <path d="M 18 3 C 17.277778 3 16.542119 3.2353472 15.960938 3.7519531 C 15.379755 4.268559 15 5.0833335 15 6 C 15 6.4720186 15.100306 6.9174076 15.277344 7.3085938 L 7.3085938 15.277344 C 6.8934116 15.088737 6.4440509 15 6 15 C 5.2777779 15 4.5421194 15.235347 3.9609375 15.751953 C 3.3797556 16.268559 3 17.083334 3 18 C 3 18.916666 3.3797556 19.731441 3.9609375 20.248047 C 4.5421194 20.764653 5.2777779 21 6 21 C 6.7222221 21 7.4578806 20.764653 8.0390625 20.248047 C 8.6202444 19.731441 9 18.916666 9 18 C 9 17.527982 8.8996943 17.082593 8.7226562 16.691406 L 16.691406 8.7226562 C 17.106588 8.9112629 17.555949 9 18 9 C 18.722222 9 19.457881 8.7646528 20.039062 8.2480469 C 20.620244 7.731441 21 6.9166665 21 6 C 21 5.0833335 20.620244 4.268559 20.039062 3.7519531 C 19.457881 3.2353472 18.722222 3 18 3 z M 18 5 C 18.277778 5 18.542119 5.097986 18.710938 5.2480469 C 18.879756 5.3981073 19 5.5833337 19 6 C 19 6.4166663 18.879756 6.6018927 18.710938 6.7519531 C 18.542119 6.9020136 18.277778 7 18 7 C 17.722222 7 17.457881 6.9020136 17.289062 6.7519531 C 17.120244 6.6018927 17 6.4166663 17 6 C 17 5.5833337 17.120244 5.3981073 17.289062 5.2480469 C 17.457881 5.0979864 17.722222 5 18 5 z M 6 17 C 6.2777779 17 6.5421194 17.09799 6.7109375 17.248047 C 6.8797556 17.398107 7 17.583334 7 18 C 7 18.416666 6.8797556 18.601893 6.7109375 18.751953 C 6.5421194 18.902014 6.2777779 19 6 19 C 5.7222221 19 5.4578806 18.902014 5.2890625 18.751953 C 5.1202444 18.601893 5 18.416666 5 18 C 5 17.583334 5.1202444 17.398107 5.2890625 17.248047 C 5.4578806 17.097986 5.7222221 17 6 17 z " fill="currentColor"/>
</svg>
