<svg xmlns="http://www.w3.org/2000/svg" width="1em" height="1em" viewBox="0 0 24 24" fill="currentColor">
  <path d="M 4 3 C 2.9072751 3 2 3.9072751 2 5 L 2 9 C 2 10.092725 2.9072751 11 4 11 L 8 11 C 9.0927249 11 10 10.092725 10 9 L 10 5 C 10 3.9072751 9.0927249 3 8 3 L 4 3 z M 13 4 A 1 1 0 0 0 12 5 A 1 1 0 0 0 13 6 L 21 6 A 1 1 0 0 0 22 5 A 1 1 0 0 0 21 4 L 13 4 z M 4 5 L 8 5 L 8 9 L 4 9 L 4 5 z M 13 8 A 1 1 0 0 0 12 9 A 1 1 0 0 0 13 10 L 18 10 A 1 1 0 0 0 19 9 A 1 1 0 0 0 18 8 L 13 8 z M 4 13 C 2.9072751 13 2 13.907275 2 15 L 2 19 C 2 20.092725 2.9072751 21 4 21 L 8 21 C 9.0927249 21 10 20.092725 10 19 L 10 15 C 10 13.907275 9.0927249 13 8 13 L 4 13 z M 13 14 A 1 1 0 0 0 12 15 A 1 1 0 0 0 13 16 L 21 16 A 1 1 0 0 0 22 15 A 1 1 0 0 0 21 14 L 13 14 z M 4 15 L 8 15 L 8 19 L 4 19 L 4 15 z M 13 18 A 1 1 0 0 0 12 19 A 1 1 0 0 0 13 20 L 18 20 A 1 1 0 0 0 19 19 A 1 1 0 0 0 18 18 L 13 18 z " fill="currentColor"/>
</svg>
