<svg xmlns="http://www.w3.org/2000/svg" width="1em" height="1em" viewBox="0 0 24 24" fill="currentColor">
  <path d="M 21.052734 2 A 1.0001 1.0001 0 0 0 20.660156 2.0585938 L 2.6601562 8.5585938 A 1.0001 1.0001 0 0 0 2.5839844 8.5917969 C 1.444475 9.1139857 1.444475 10.886014 2.5839844 11.408203 L 2.5527344 11.394531 L 9.2539062 14.746094 L 11.105469 18.447266 A 1 1 0 0 0 12.447266 18.894531 A 1 1 0 0 0 12.894531 17.552734 L 10.894531 13.552734 A 1.0001 1.0001 0 0 0 10.447266 13.105469 L 4.3730469 10.068359 L 19.333984 4.6660156 L 16.753906 11.810547 A 1 1 0 0 0 17.355469 13.091797 A 1 1 0 0 0 18.634766 12.490234 L 21.941406 3.3398438 A 1.0001 1.0001 0 0 0 21.052734 2 z M 19 15 C 18.027778 15 17.042119 15.318681 16.273438 16.001953 C 15.504756 16.685226 15 17.75 15 19 C 15 20.25 15.504756 21.314774 16.273438 21.998047 C 17.042119 22.681319 18.027778 23 19 23 C 19.972222 23 20.957881 22.681319 21.726562 21.998047 C 22.495244 21.314774 23 20.25 23 19 C 23 17.75 22.495244 16.685226 21.726562 16.001953 C 20.957881 15.318681 19.972222 15 19 15 z M 19 17 C 19.178556 17 19.355509 17.020818 19.525391 17.060547 L 17.048828 19.537109 C 17.016537 19.378241 17 19.199858 17 19 C 17 18.250001 17.245244 17.814774 17.601562 17.498047 C 17.957881 17.18132 18.472222 17 19 17 z M 20.951172 18.462891 C 20.983463 18.621759 21 18.800142 21 19 C 21 19.749999 20.754756 20.185226 20.398438 20.501953 C 20.042119 20.81868 19.527778 21 19 21 C 18.821444 21 18.644491 20.979182 18.474609 20.939453 L 20.951172 18.462891 z " fill="currentColor"/>
</svg>
