<svg xmlns="http://www.w3.org/2000/svg" width="1em" height="1em" viewBox="0 0 24 24" fill="currentColor">
  <path d="M 21.052734 2 A 1.0001 1.0001 0 0 0 20.660156 2.0585938 L 2.6601562 8.5585938 A 1.0001 1.0001 0 0 0 2.5839844 8.5917969 C 1.444475 9.1139857 1.444475 10.886014 2.5839844 11.408203 L 2.5527344 11.394531 L 9.2539062 14.746094 L 12.001953 20.238281 A 1 1 0 0 0 13.34375 20.685547 A 1 1 0 0 0 13.791016 19.345703 L 10.894531 13.552734 A 1.0001 1.0001 0 0 0 10.447266 13.105469 L 4.3730469 10.068359 L 19.333984 4.6660156 L 16.572266 12.316406 A 1 1 0 0 0 17.173828 13.597656 A 1 1 0 0 0 18.453125 12.996094 L 21.941406 3.3398438 A 1.0001 1.0001 0 0 0 21.052734 2 z M 16.5 15.5 A 1 1 0 0 0 15.792969 15.792969 A 1 1 0 0 0 15.792969 17.207031 L 17.585938 19 L 15.792969 20.792969 A 1 1 0 0 0 15.792969 22.207031 A 1 1 0 0 0 17.207031 22.207031 L 19 20.414062 L 20.792969 22.207031 A 1 1 0 0 0 22.207031 22.207031 A 1 1 0 0 0 22.207031 20.792969 L 20.414062 19 L 22.207031 17.207031 A 1 1 0 0 0 22.207031 15.792969 A 1 1 0 0 0 20.792969 15.792969 L 19 17.585938 L 17.207031 15.792969 A 1 1 0 0 0 16.5 15.5 z " fill="currentColor"/>
</svg>
