<svg xmlns="http://www.w3.org/2000/svg" width="1em" height="1em" viewBox="0 0 24 24" fill="currentColor">
  <path d="M 20.773438 2.0507812 A 1 1 0 0 0 20.660156 2.0585938 L 2.6601562 8.5585938 A 1.0001 1.0001 0 0 0 2.5839844 8.5917969 C 1.444475 9.1139857 1.444475 10.886014 2.5839844 11.408203 L 2.5527344 11.394531 L 9.2539062 14.746094 L 12.605469 21.447266 L 12.591797 21.416016 C 13.113986 22.555525 14.886014 22.555525 15.408203 21.416016 A 1.0001 1.0001 0 0 0 15.441406 21.339844 L 21.941406 3.3398438 A 1 1 0 0 0 21.925781 3 A 1 1 0 0 0 21.941406 2.6601562 A 1 1 0 0 0 21.90625 2.6230469 A 1 1 0 0 0 21.654297 2.3457031 A 1 1 0 0 0 21.376953 2.09375 A 1 1 0 0 0 21.339844 2.0585938 A 1 1 0 0 0 21 2.0742188 A 1 1 0 0 0 20.773438 2.0507812 z M 19.333984 4.6660156 L 13.931641 19.626953 L 10.894531 13.552734 A 1.0001 1.0001 0 0 0 10.447266 13.105469 L 4.3730469 10.068359 L 19.333984 4.6660156 z " fill="currentColor"/>
</svg>
