<svg xmlns="http://www.w3.org/2000/svg" width="1em" height="1em" viewBox="0 0 24 24" fill="currentColor">
  <path d="M 21.052734 2 A 1.0001 1.0001 0 0 0 20.660156 2.0585938 L 2.6601562 8.5585938 A 1.0001 1.0001 0 0 0 2.5839844 8.5917969 C 1.444475 9.1139857 1.444475 10.886014 2.5839844 11.408203 L 2.5527344 11.394531 L 9.2539062 14.746094 L 12.125 20.486328 A 1 1 0 0 0 13.466797 20.933594 A 1 1 0 0 0 13.914062 19.59375 L 10.894531 13.552734 A 1.0001 1.0001 0 0 0 10.447266 13.105469 L 4.3730469 10.068359 L 19.333984 4.6660156 L 16.425781 12.722656 A 1 1 0 0 0 17.025391 14.001953 A 1 1 0 0 0 18.306641 13.402344 L 21.941406 3.3398438 A 1.0001 1.0001 0 0 0 21.052734 2 z M 17 16 A 1 1 0 0 0 16 17 L 16 22 A 1 1 0 0 0 17 23 A 1 1 0 0 0 18 22 L 18 17 A 1 1 0 0 0 17 16 z M 21 16 A 1 1 0 0 0 20 17 L 20 22 A 1 1 0 0 0 21 23 A 1 1 0 0 0 22 22 L 22 17 A 1 1 0 0 0 21 16 z " fill="currentColor"/>
</svg>
