<svg xmlns="http://www.w3.org/2000/svg" width="1em" height="1em" viewBox="0 0 24 24" fill="currentColor">
  <path d="M 12 2 C 8.3166667 2 5.7580197 2.4294803 4.09375 4.09375 C 2.4294803 5.7580197 2 8.3166667 2 12 C 2 15.683333 2.4294803 18.24198 4.09375 19.90625 C 5.7580197 21.57052 8.3166667 22 12 22 C 15.683333 22 18.24198 21.57052 19.90625 19.90625 C 21.57052 18.24198 22 15.683333 22 12 C 22 8.3166667 21.57052 5.7580197 19.90625 4.09375 C 18.24198 2.4294803 15.683333 2 12 2 z M 12 4 C 15.516667 4 17.456457 4.4720822 18.492188 5.5078125 C 19.527918 6.5435428 20 8.4833333 20 12 C 20 15.516667 19.527918 17.456457 18.492188 18.492188 C 17.456457 19.527918 15.516667 20 12 20 C 8.4833333 20 6.5435428 19.527918 5.5078125 18.492188 C 4.4720822 17.456457 4 15.516667 4 12 C 4 8.4833333 4.4720822 6.5435428 5.5078125 5.5078125 C 6.5435428 4.4720822 8.4833333 4 12 4 z M 12 6 C 11.277778 6 10.542119 6.2353472 9.9609375 6.7519531 C 9.3797556 7.268559 9 8.0833335 9 9 L 9 10 C 7.9072751 10 7 10.907275 7 12 L 7 15 C 7 16.092725 7.9072751 17 9 17 L 15 17 C 16.092725 17 17 16.092725 17 15 L 17 12 C 17 10.907275 16.092725 10 15 10 L 15 9 C 15 8.0833335 14.620244 7.268559 14.039062 6.7519531 C 13.45788 6.2353472 12.722222 6 12 6 z M 12 8 C 12.277778 8 12.542119 8.0979864 12.710938 8.2480469 C 12.879755 8.3981073 13 8.5833337 13 9 L 13 10 L 11 10 L 11 9 C 11 8.5833337 11.120244 8.3981073 11.289062 8.2480469 C 11.45788 8.0979864 11.722222 8 12 8 z M 9 12 L 10 12 L 14 12 L 15 12 L 15 15 L 9 15 L 9 12 z " fill="currentColor"/>
</svg>
