<svg xmlns="http://www.w3.org/2000/svg" width="1em" height="1em" viewBox="0 0 24 24" fill="currentColor">
  <path d="M 6 3 C 4.3549904 3 3 4.3549904 3 6 L 3 18 C 3 19.64501 4.3549904 21 6 21 L 18 21 C 19.64501 21 21 19.64501 21 18 L 21 6 C 21 4.3549904 19.64501 3 18 3 L 6 3 z M 6 5 L 18 5 C 18.564129 5 19 5.4358706 19 6 L 19 18 C 19 18.564129 18.564129 19 18 19 L 6 19 C 5.4358706 19 5 18.564129 5 18 L 5 6 C 5 5.4358706 5.4358706 5 6 5 z M 12 6 C 11.277778 6 10.542119 6.2353472 9.9609375 6.7519531 C 9.3797556 7.268559 9 8.0833335 9 9 L 9 10 C 7.9072751 10 7 10.907275 7 12 L 7 15 C 7 16.092725 7.9072751 17 9 17 L 15 17 C 16.092725 17 17 16.092725 17 15 L 17 12 C 17 10.907275 16.092725 10 15 10 L 15 9 C 15 8.0833335 14.620244 7.268559 14.039062 6.7519531 C 13.45788 6.2353472 12.722222 6 12 6 z M 12 8 C 12.277778 8 12.542119 8.0979864 12.710938 8.2480469 C 12.879755 8.3981073 13 8.5833337 13 9 L 13 10 L 11 10 L 11 9 C 11 8.5833337 11.120244 8.3981073 11.289062 8.2480469 C 11.45788 8.0979864 11.722222 8 12 8 z M 9 12 L 15 12 L 15 15 L 9 15 L 9 12 z " fill="currentColor"/>
</svg>
