<svg xmlns="http://www.w3.org/2000/svg" width="1em" height="1em" viewBox="0 0 24 24" fill="currentColor">
  <path d="M 12 2 C 10.777778 2 9.5421194 2.402014 8.5859375 3.2519531 C 7.6297556 4.1018922 7 5.4166671 7 7 L 7 10 C 5.3549904 10 4 11.35499 4 13 L 4 19 C 4 20.64501 5.3549904 22 7 22 L 12 22 A 1 1 0 0 0 13 21 A 1 1 0 0 0 12 20 L 7 20 C 6.4358706 20 6 19.564129 6 19 L 6 13 C 6 12.435871 6.4358706 12 7 12 L 17 12 C 17.287404 12 17.534877 12.116251 17.716797 12.304688 A 1 1 0 0 0 19.130859 12.330078 A 1 1 0 0 0 19.15625 10.916016 C 18.612171 10.352451 17.840596 10 17 10 L 17 7 C 17 5.4166671 16.370244 4.1018922 15.414062 3.2519531 C 14.45788 2.402014 13.222222 2 12 2 z M 12 4 C 12.777778 4 13.542119 4.2646532 14.085938 4.7480469 C 14.629755 5.2314405 15 5.9166674 15 7 L 15 10 L 9 10 L 9 7 C 9 5.9166674 9.3702444 5.2314405 9.9140625 4.7480469 C 10.457881 4.2646532 11.222222 4 12 4 z M 12 14 C 11.527778 14 11.042119 14.152014 10.648438 14.501953 C 10.254755 14.851892 10 15.416667 10 16 C 10 16.583333 10.254756 17.148108 10.648438 17.498047 C 11.042118 17.847986 11.527778 18 12 18 C 12.472222 18 12.95788 17.847986 13.351562 17.498047 C 13.745243 17.148108 14 16.583333 14 16 C 14 15.416667 13.745244 14.851892 13.351562 14.501953 C 12.95788 14.152014 12.472222 14 12 14 z M 19.001953 14.5 A 1 1 0 0 0 18.001953 15.5 L 18.001953 16.15625 C 17.650707 16.271131 17.316482 16.450991 17.019531 16.701172 L 16.46875 16.384766 A 1 1 0 0 0 15.103516 16.75 A 1 1 0 0 0 15.470703 18.115234 L 16.048828 18.449219 C 16.018359 18.627489 16.001953 18.811393 16.001953 19 C 16.001953 19.188607 16.018359 19.372511 16.048828 19.550781 L 15.470703 19.884766 A 1 1 0 0 0 15.103516 21.25 A 1 1 0 0 0 16.46875 21.615234 L 17.019531 21.298828 C 17.316482 21.549009 17.650707 21.728869 18.001953 21.84375 L 18.001953 22.5 A 1 1 0 0 0 19.001953 23.5 A 1 1 0 0 0 20.001953 22.5 L 20.001953 21.841797 C 20.352392 21.726904 20.68578 21.548801 20.982422 21.298828 L 21.533203 21.615234 A 1 1 0 0 0 22.898438 21.25 A 1 1 0 0 0 22.533203 19.884766 L 21.955078 19.550781 C 21.985716 19.372405 22.001953 19.188728 22.001953 19 C 22.001953 18.811071 21.98578 18.625819 21.955078 18.447266 L 22.53125 18.115234 A 1 1 0 0 0 22.898438 16.75 A 1 1 0 0 0 22.291016 16.283203 A 1 1 0 0 0 21.53125 16.384766 L 20.982422 16.701172 C 20.685894 16.451401 20.352211 16.273037 20.001953 16.158203 L 20.001953 15.5 A 1 1 0 0 0 19.001953 14.5 z M 19.001953 18 C 19.279731 18 19.542119 18.09799 19.710938 18.248047 C 19.737354 18.271528 19.763265 18.29631 19.787109 18.322266 A 1 1 0 0 0 19.867188 18.5 A 1 1 0 0 0 19.958984 18.630859 C 19.986979 18.729861 20.001953 18.850435 20.001953 19 C 20.001953 19.149138 19.98683 19.268351 19.958984 19.367188 A 1 1 0 0 0 19.867188 19.5 A 1 1 0 0 0 19.787109 19.677734 C 19.763265 19.70369 19.737354 19.728472 19.710938 19.751953 C 19.542119 19.902014 19.279731 20 19.001953 20 C 18.724175 20 18.459834 19.902014 18.291016 19.751953 C 18.265546 19.729314 18.241762 19.706555 18.21875 19.681641 A 1 1 0 0 0 18.136719 19.5 A 1 1 0 0 0 18.044922 19.367188 C 18.017583 19.268557 18.001953 19.148605 18.001953 19 C 18.001953 18.85116 18.017501 18.731534 18.044922 18.632812 A 1 1 0 0 0 18.136719 18.5 A 1 1 0 0 0 18.21875 18.318359 C 18.241762 18.293445 18.265546 18.270686 18.291016 18.248047 C 18.459834 18.097986 18.724175 18 19.001953 18 z " fill="currentColor"/>
</svg>
