<svg xmlns="http://www.w3.org/2000/svg" width="1em" height="1em" viewBox="0 0 24 24" fill="currentColor">
  <path d="M 6 3 C 4.3549904 3 3 4.3549904 3 6 L 3 18 C 3 19.64501 4.3549904 21 6 21 L 13 21 C 14.64501 21 16 19.64501 16 18 L 16 16 A 1 1 0 0 0 15 15 A 1 1 0 0 0 14 16 L 14 18 C 14 18.564129 13.564129 19 13 19 L 6 19 C 5.4358706 19 5 18.564129 5 18 L 5 6 C 5 5.4358706 5.4358706 5 6 5 L 13 5 C 13.564129 5 14 5.4358706 14 6 L 14 8 A 1 1 0 0 0 15 9 A 1 1 0 0 0 16 8 L 16 6 C 16 4.3549904 14.64501 3 13 3 L 6 3 z M 11 8 A 1 1 0 0 0 10.292969 8.2929688 L 7.2929688 11.292969 A 1 1 0 0 0 7.2070312 11.390625 A 1.0001 1.0001 0 0 0 7.1542969 11.46875 A 1 1 0 0 0 7.1308594 11.505859 A 1.0001 1.0001 0 0 0 7.1132812 11.544922 A 1 1 0 0 0 7.0703125 11.632812 A 1.0001 1.0001 0 0 0 7.0566406 11.677734 A 1 1 0 0 0 7.0332031 11.755859 A 1.0001 1.0001 0 0 0 7.0214844 11.804688 A 1 1 0 0 0 7.0058594 11.894531 A 1.0001 1.0001 0 0 0 7.0039062 11.943359 A 1 1 0 0 0 7.0019531 12.035156 A 1.0001 1.0001 0 0 0 7.0039062 12.0625 A 1 1 0 0 0 7.015625 12.167969 A 1.0001 1.0001 0 0 0 7.0273438 12.21875 A 1 1 0 0 0 7.0429688 12.285156 A 1.0001 1.0001 0 0 0 7.0644531 12.34375 A 1 1 0 0 0 7.0957031 12.421875 A 1.0001 1.0001 0 0 0 7.1191406 12.466797 A 1 1 0 0 0 7.1621094 12.542969 A 1.0001 1.0001 0 0 0 7.1855469 12.576172 A 1 1 0 0 0 7.2441406 12.652344 A 1.0001 1.0001 0 0 0 7.2753906 12.685547 A 1 1 0 0 0 7.2929688 12.707031 L 10.292969 15.707031 A 1 1 0 0 0 11.707031 15.707031 A 1 1 0 0 0 11.707031 14.292969 L 10.414062 13 L 21 13 A 1 1 0 0 0 22 12 A 1 1 0 0 0 21 11 L 10.414062 11 L 11.707031 9.7070312 A 1 1 0 0 0 11.707031 8.2929688 A 1 1 0 0 0 11 8 z " fill="currentColor"/>
</svg>
