<svg xmlns="http://www.w3.org/2000/svg" width="1em" height="1em" viewBox="0 0 24 24" fill="currentColor">
  <path d="M 6.1933594 4.0195312 A 1 1 0 0 0 6.1054688 4.078125 A 1 1 0 0 0 5.6386719 4.0683594 A 1 1 0 0 0 5.0820312 4.765625 A 1 1 0 0 0 5.0195312 4.8066406 A 1 1 0 0 0 5.078125 4.8945312 A 1 1 0 0 0 5.0683594 5.3613281 C 5.409989 6.2441551 5.6843091 7.1232129 5.890625 8 L 2 8 A 1 1 0 0 0 1 9 A 1 1 0 0 0 2 10 L 6.2441406 10 C 6.4017399 11.334217 6.4017405 12.665783 6.2441406 14 L 2 14 A 1 1 0 0 0 1 15 A 1 1 0 0 0 2 16 L 5.890625 16 C 5.6843093 16.876785 5.4099881 17.755847 5.0683594 18.638672 A 1.0001 1.0001 0 0 0 6.1308594 19.992188 C 10.517363 19.41648 13.43549 17.273991 14.523438 14.640625 C 14.983748 14.885857 15.495595 15 16 15 C 16.722222 15 17.457881 14.764653 18.039062 14.248047 C 18.397026 13.929858 18.678328 13.498555 18.841797 13 L 22 13 A 1 1 0 0 0 23 12 A 1 1 0 0 0 22 11 L 18.841797 11 C 18.678328 10.501445 18.397026 10.070142 18.039062 9.7519531 C 17.457881 9.2353472 16.722222 9 16 9 C 15.430935 9 14.853217 9.1462511 14.349609 9.4609375 C 13.172988 7.0061966 10.433397 4.9432422 6.4082031 4.0917969 A 1 1 0 0 0 6.3925781 4.0859375 C 6.3185716 4.070364 6.2682406 4.034273 6.1933594 4.0195312 z M 7.4765625 6.5214844 C 11.223546 7.7606355 13 10.099143 13 12.261719 C 13 14.442048 11.235312 16.63835 7.4394531 17.605469 C 7.6601261 16.853021 7.8059535 16.098479 7.9375 15.34375 A 1 1 0 0 0 7.9941406 15.082031 C 8.3217432 13.042177 8.3213123 10.997 7.9980469 8.9570312 A 1 1 0 0 0 7.9238281 8.6171875 C 7.8005601 7.9179312 7.6763706 7.2188112 7.4765625 6.5214844 z M 16 11 C 16.277778 11 16.542119 11.09799 16.710938 11.248047 C 16.879756 11.398107 17 11.583334 17 12 C 17 12.416666 16.879756 12.601893 16.710938 12.751953 C 16.542119 12.902014 16.277778 13 16 13 C 15.722222 13 15.45788 12.902014 15.289062 12.751953 C 15.120243 12.601893 15 12.416666 15 12 C 15 11.583334 15.120244 11.398107 15.289062 11.248047 C 15.45788 11.097986 15.722222 11 16 11 z " fill="currentColor"/>
</svg>
