<svg xmlns="http://www.w3.org/2000/svg" width="1em" height="1em" viewBox="0 0 24 24" fill="currentColor">
  <path d="M 7 4 A 1 1 0 0 0 6.9550781 4.0449219 A 1 1 0 0 0 6.1816406 4.4257812 A 1 1 0 0 0 6.0703125 4.9296875 A 1 1 0 0 0 6 5 L 6 8 L 2 8 A 1 1 0 0 0 1 9 A 1 1 0 0 0 2 10 L 6 10 L 6 14 L 2 14 A 1 1 0 0 0 1 15 A 1 1 0 0 0 2 16 L 6 16 L 6 19 A 1.0001 1.0001 0 0 0 7.5742188 19.818359 L 17.314453 13 L 22 13 A 1 1 0 0 0 23 12 A 1 1 0 0 0 22 11 L 17.314453 11 L 7.5742188 4.1816406 A 1 1 0 0 0 7.0703125 4.0703125 A 1 1 0 0 0 7 4 z M 8 6.9199219 L 15.255859 12 L 8 17.080078 L 8 15 L 8 9 L 8 6.9199219 z " fill="currentColor"/>
</svg>
