<svg xmlns="http://www.w3.org/2000/svg" width="1em" height="1em" viewBox="0 0 24 24" fill="currentColor">
  <path d="M 7 4 A 1.0001 1.0001 0 0 0 6 5 L 6 8 L 2 8 A 1 1 0 0 0 1 9 A 1 1 0 0 0 2 10 L 6 10 L 6 14 L 2 14 A 1 1 0 0 0 1 15 A 1 1 0 0 0 2 16 L 6 16 L 6 19 A 1.0001 1.0001 0 0 0 7 20 L 9 20 C 12.194444 20 14.510305 19.039473 15.974609 17.501953 C 17.188503 16.227366 17.781838 14.618487 17.949219 13 L 22 13 A 1 1 0 0 0 23 12 A 1 1 0 0 0 22 11 L 17.949219 11 C 17.781838 9.3815132 17.188503 7.7726342 15.974609 6.4980469 C 14.510305 4.9605274 12.194444 4 9 4 L 7 4 z M 8 6 L 9 6 C 11.805556 6 13.489695 6.7894726 14.525391 7.8769531 C 15.561084 8.9644316 15.999998 10.440479 16 12 C 16 13.559524 15.561086 15.035566 14.525391 16.123047 C 13.489695 17.210527 11.805556 18 9 18 L 8 18 L 8 15 L 8 9 L 8 6 z " fill="currentColor"/>
</svg>
