<svg xmlns="http://www.w3.org/2000/svg" width="1em" height="1em" viewBox="0 0 24 24" fill="currentColor">
  <path d="M 5.0292969 4.0019531 A 1 1 0 0 0 4.6445312 4.0664062 A 1 1 0 0 0 4.0664062 5.3554688 C 4.4034121 6.2400618 4.6736367 7.1211024 4.8769531 8 L 2 8 A 1 1 0 0 0 1 9 A 1 1 0 0 0 2 10 L 5.2246094 10 C 5.3795 11.334162 5.3795 12.665838 5.2246094 14 L 2 14 A 1 1 0 0 0 1 15 A 1 1 0 0 0 2 16 L 4.8769531 16 C 4.6736367 16.878897 4.4034121 17.759938 4.0664062 18.644531 A 1 1 0 0 0 4.6445312 19.933594 A 1 1 0 0 0 5.9335938 19.355469 C 7.7905371 14.481254 7.7905371 9.5187464 5.9335938 4.6445312 A 1 1 0 0 0 5.0292969 4.0019531 z M 8.1933594 4.0195312 A 1 1 0 0 0 7.9296875 4.1972656 A 1 1 0 0 0 7.6386719 4.0683594 A 1 1 0 0 0 7.0820312 4.765625 A 1 1 0 0 0 7.0195312 4.8066406 A 1 1 0 0 0 7.078125 4.8945312 A 1 1 0 0 0 7.0683594 5.3613281 C 8.7933991 9.8191136 8.7933991 14.180886 7.0683594 18.638672 A 1.0001 1.0001 0 0 0 8.1308594 19.992188 C 12.517363 19.416477 15.43549 17.273991 16.523438 14.640625 C 16.983748 14.885857 17.495595 15 18 15 C 18.722222 15 19.457881 14.764653 20.039062 14.248047 C 20.397026 13.929858 20.678328 13.498555 20.841797 13 L 22 13 A 1 1 0 0 0 23 12 A 1 1 0 0 0 22 11 L 20.841797 11 C 20.678328 10.501445 20.397026 10.070142 20.039062 9.7519531 C 19.457881 9.2353472 18.722222 9 18 9 C 17.43283 9 16.857888 9.1445114 16.355469 9.4570312 C 15.163409 6.9464497 12.351305 4.8381013 8.1933594 4.0195312 z M 9.4765625 6.5214844 C 13.223546 7.7606355 15 10.099143 15 12.261719 C 15 14.442048 13.235312 16.63835 9.4394531 17.605469 C 10.519564 13.922521 10.532115 10.205344 9.4765625 6.5214844 z M 18 11 C 18.277778 11 18.542119 11.09799 18.710938 11.248047 C 18.879756 11.398107 19 11.583334 19 12 C 19 12.416666 18.879756 12.601893 18.710938 12.751953 C 18.542119 12.902014 18.277778 13 18 13 C 17.722222 13 17.457881 12.902014 17.289062 12.751953 C 17.120244 12.601893 17 12.416666 17 12 C 17 11.583334 17.120244 11.398107 17.289062 11.248047 C 17.457881 11.097986 17.722222 11 18 11 z " fill="currentColor"/>
</svg>
