<svg xmlns="http://www.w3.org/2000/svg" width="1em" height="1em" viewBox="0 0 24 24" fill="currentColor">
  <path d="M 11 3 C 9.3549904 3 8 4.3549904 8 6 L 8 8 A 1 1 0 0 0 9 9 A 1 1 0 0 0 10 8 L 10 6 C 10 5.4358706 10.435871 5 11 5 L 18 5 C 18.564129 5 19 5.4358706 19 6 L 19 18 C 19 18.564129 18.564129 19 18 19 L 11 19 C 10.435871 19 10 18.564129 10 18 L 10 16 A 1 1 0 0 0 9 15 A 1 1 0 0 0 8 16 L 8 18 C 8 19.64501 9.3549904 21 11 21 L 18 21 C 19.64501 21 21 19.64501 21 18 L 21 6 C 21 4.3549904 19.64501 3 18 3 L 11 3 z M 13 8 A 1 1 0 0 0 12.292969 8.2929688 A 1 1 0 0 0 12.292969 9.7070312 L 13.585938 11 L 3 11 A 1 1 0 0 0 2 12 A 1 1 0 0 0 3 13 L 13.585938 13 L 12.292969 14.292969 A 1 1 0 0 0 12.292969 15.707031 A 1 1 0 0 0 13.707031 15.707031 L 16.707031 12.707031 A 1 1 0 0 0 16.724609 12.685547 A 1.0001 1.0001 0 0 0 16.755859 12.652344 A 1 1 0 0 0 16.814453 12.576172 A 1 1 0 0 0 16.824219 12.564453 A 1.0001 1.0001 0 0 0 16.837891 12.542969 A 1 1 0 0 0 16.880859 12.466797 A 1.0001 1.0001 0 0 0 16.904297 12.421875 A 1 1 0 0 0 16.935547 12.34375 A 1.0001 1.0001 0 0 0 16.957031 12.285156 A 1 1 0 0 0 16.972656 12.21875 A 1.0001 1.0001 0 0 0 16.984375 12.167969 A 1 1 0 0 0 16.996094 12.0625 A 1 1 0 0 0 16.998047 12.046875 A 1.0001 1.0001 0 0 0 16.998047 12.035156 A 1 1 0 0 0 16.996094 11.943359 A 1.0001 1.0001 0 0 0 16.994141 11.894531 A 1 1 0 0 0 16.978516 11.804688 A 1.0001 1.0001 0 0 0 16.966797 11.755859 A 1.0001 1.0001 0 0 0 16.964844 11.742188 A 1 1 0 0 0 16.931641 11.638672 A 1.0001 1.0001 0 0 0 16.929688 11.632812 A 1 1 0 0 0 16.886719 11.544922 A 1 1 0 0 0 16.873047 11.513672 A 1.0001 1.0001 0 0 0 16.865234 11.5 A 1 1 0 0 0 16.845703 11.46875 A 1.0001 1.0001 0 0 0 16.792969 11.390625 A 1 1 0 0 0 16.707031 11.292969 L 13.707031 8.2929688 A 1 1 0 0 0 13 8 z " fill="currentColor"/>
</svg>
