<svg xmlns="http://www.w3.org/2000/svg" width="1em" height="1em" viewBox="0 0 24 24" fill="currentColor">
  <path d="M 5 3 C 3.3549904 3 2 4.3549904 2 6 L 2 18 C 2 19.64501 3.3549904 21 5 21 L 12 21 C 13.64501 21 15 19.64501 15 18 L 15 16 A 1 1 0 0 0 14 15 A 1 1 0 0 0 13 16 L 13 18 C 13 18.564129 12.564129 19 12 19 L 5 19 C 4.4358706 19 4 18.564129 4 18 L 4 6 C 4 5.4358706 4.4358706 5 5 5 L 12 5 C 12.564129 5 13 5.4358706 13 6 L 13 8 A 1 1 0 0 0 14 9 A 1 1 0 0 0 15 8 L 15 6 C 15 4.3549904 13.64501 3 12 3 L 5 3 z M 18 8 A 1 1 0 0 0 17.292969 8.2929688 A 1 1 0 0 0 17.292969 9.7070312 L 18.585938 11 L 9 11 A 1 1 0 0 0 8 12 A 1 1 0 0 0 9 13 L 18.585938 13 L 17.292969 14.292969 A 1 1 0 0 0 17.292969 15.707031 A 1 1 0 0 0 18.707031 15.707031 L 21.707031 12.707031 A 1 1 0 0 0 21.724609 12.685547 A 1.0001 1.0001 0 0 0 21.755859 12.652344 A 1 1 0 0 0 21.814453 12.576172 A 1 1 0 0 0 21.824219 12.564453 A 1.0001 1.0001 0 0 0 21.837891 12.542969 A 1 1 0 0 0 21.880859 12.466797 A 1.0001 1.0001 0 0 0 21.904297 12.421875 A 1 1 0 0 0 21.935547 12.34375 A 1.0001 1.0001 0 0 0 21.957031 12.285156 A 1 1 0 0 0 21.972656 12.21875 A 1.0001 1.0001 0 0 0 21.984375 12.167969 A 1 1 0 0 0 21.996094 12.0625 A 1 1 0 0 0 21.998047 12.046875 A 1.0001 1.0001 0 0 0 21.998047 12.035156 A 1 1 0 0 0 21.996094 11.943359 A 1.0001 1.0001 0 0 0 21.994141 11.894531 A 1 1 0 0 0 21.978516 11.804688 A 1.0001 1.0001 0 0 0 21.966797 11.755859 A 1.0001 1.0001 0 0 0 21.964844 11.742188 A 1 1 0 0 0 21.931641 11.638672 A 1.0001 1.0001 0 0 0 21.929688 11.632812 A 1 1 0 0 0 21.886719 11.544922 A 1 1 0 0 0 21.873047 11.513672 A 1.0001 1.0001 0 0 0 21.865234 11.5 A 1 1 0 0 0 21.845703 11.46875 A 1.0001 1.0001 0 0 0 21.792969 11.390625 A 1 1 0 0 0 21.707031 11.292969 L 18.707031 8.2929688 A 1 1 0 0 0 18 8 z " fill="currentColor"/>
</svg>
