<svg xmlns="http://www.w3.org/2000/svg" width="1em" height="1em" viewBox="0 0 24 24" fill="currentColor">
  <path d="M 3 2 A 1 1 0 0 0 2.2929688 2.2929688 A 1 1 0 0 0 2.2929688 3.7070312 L 6.2265625 7.640625 C 6.7956477 9.6364281 8.3624503 11.202431 10.357422 11.771484 L 11 12.414062 L 11 16.109375 C 9.7276301 14.808746 7.9549303 14 6 14 A 1 1 0 0 0 5 15 C 4.9991292 18.686544 7.5946589 21.214933 10.527344 21.845703 C 10.9568 21.938072 11.397516 21.974857 11.839844 21.986328 A 1 1 0 0 0 12 22 A 1 1 0 0 0 12.150391 21.988281 C 14.229955 21.952127 16.331522 21.028183 17.6875 19.101562 L 20.292969 21.707031 A 1 1 0 0 0 21.707031 21.707031 A 1 1 0 0 0 21.707031 20.292969 L 18.226562 16.8125 A 1 1 0 0 0 18.123047 16.708984 L 16.214844 14.802734 L 13 11.585938 L 13 11 A 1 1 0 0 0 12 10 A 1 1 0 0 0 11.53125 10.117188 L 3.7070312 2.2929688 A 1 1 0 0 0 3 2 z M 12 2 A 1.0001 1.0001 0 0 0 11.292969 2.2929688 L 9.8730469 3.7128906 L 7.5546875 2.1679688 A 1 1 0 0 0 6.8046875 2.0195312 A 1 1 0 0 0 6.1679688 2.4453125 A 1 1 0 0 0 6.4453125 3.8320312 L 9.4453125 5.8320312 A 1.0001 1.0001 0 0 0 10.707031 5.7070312 L 12 4.4140625 L 13.292969 5.7070312 A 1.0001 1.0001 0 0 0 14.554688 5.8320312 L 16 4.8691406 L 16 6 C 16.000138 7.4651371 15.201975 8.809625 13.916016 9.5117188 A 1 1 0 0 0 13.517578 10.869141 A 1 1 0 0 0 14.875 11.267578 C 16.800004 10.216586 18.000207 8.1932225 18 6 L 18 3 A 1.0001 1.0001 0 0 0 16.445312 2.1679688 L 14.126953 3.7128906 L 12.707031 2.2929688 A 1.0001 1.0001 0 0 0 12 2 z M 13 14.414062 L 13.90625 15.320312 C 13.580496 15.555285 13.277827 15.817703 13 16.101562 L 13 14.414062 z M 7.1054688 16.121094 C 8.9786515 16.5399 10.446179 18.001063 10.873047 19.871094 C 9.0719396 19.458507 7.5170079 18.195634 7.1054688 16.121094 z M 15.345703 16.759766 L 16.246094 17.660156 C 15.474081 18.956978 14.340981 19.673199 13.117188 19.917969 C 13.404646 18.614555 14.20433 17.473459 15.345703 16.759766 z " fill="currentColor"/>
</svg>
