<svg xmlns="http://www.w3.org/2000/svg" width="1em" height="1em" viewBox="0 0 24 24" fill="currentColor">
  <path d="M 3 2 A 1 1 0 0 0 2.2929688 2.2929688 A 1 1 0 0 0 2.2929688 3.7070312 L 3.0488281 4.4628906 C 3.0171841 4.6379675 3 4.8171855 3 5 L 3 13 C 2.9997646 17.144477 5.6294425 20.254111 8.9082031 21.453125 C 11.904233 22.548747 15.515803 22.076142 18.15625 19.570312 L 20.292969 21.707031 A 1 1 0 0 0 21.707031 21.707031 A 1 1 0 0 0 21.707031 20.292969 L 9.7167969 8.3027344 A 1 1 0 0 0 9.6972656 8.2832031 L 8.7167969 7.3027344 A 1 1 0 0 0 8.6972656 7.2832031 L 4.9804688 3.5664062 A 1 1 0 0 0 4.78125 3.3671875 L 3.7070312 2.2929688 A 1 1 0 0 0 3 2 z M 7 2 A 1 1 0 0 0 6 3 A 1 1 0 0 0 7 4 C 7.5641294 4 8 4.4358706 8 5 A 1 1 0 0 0 9 6 A 1 1 0 0 0 10 5 C 10 3.3549904 8.6450096 2 7 2 z M 17 2 C 15.35499 2 14 3.3549904 14 5 L 14 11 A 1 1 0 0 0 15 12 A 1 1 0 0 0 16 11 L 16 9 L 19 9 L 19 13 A 1.0001 1.0001 0 0 0 19 13.001953 C 19.000841 13.768707 18.875365 14.529795 18.628906 15.255859 A 1 1 0 0 0 19.253906 16.523438 A 1 1 0 0 0 20.523438 15.898438 C 20.84041 14.964593 21.001082 13.984175 21 12.998047 L 21 5 C 21 3.3549904 19.64501 2 18 2 L 17 2 z M 17 4 L 18 4 C 18.564129 4 19 4.4358706 19 5 L 19 7 L 16 7 L 16 5 C 16 4.4358706 16.435871 4 17 4 z M 5 6.4140625 L 5.5859375 7 L 5 7 L 5 6.4140625 z M 5 9 L 7.5859375 9 L 8 9.4140625 L 8 13 C 7.999426 14.948436 9.3398109 16.40244 10.90625 16.847656 C 12.130176 17.195523 13.561382 16.947246 14.617188 16.03125 L 16.744141 18.158203 C 14.662465 20.121678 11.936034 20.430057 9.5957031 19.574219 C 7.0204691 18.632478 4.9998118 16.312789 5 13 L 5 9 z M 10 11.414062 L 13.207031 14.621094 C 12.689139 15.035242 12.055392 15.095006 11.453125 14.923828 C 10.640573 14.692883 9.9996836 14.074029 10 13 L 10 11.414062 z " fill="currentColor"/>
</svg>
