<svg xmlns="http://www.w3.org/2000/svg" width="1em" height="1em" viewBox="0 0 24 24" fill="currentColor">
  <path d="M 3 6 A 1 1 0 0 0 2 7 A 1 1 0 0 0 3 8 L 6 8 A 1 1 0 0 0 7 7 A 1 1 0 0 0 6 6 L 3 6 z M 11.009766 6 C 9.4771344 6.0000576 8.1778874 7.1761467 8.0253906 8.7011719 L 7.4257812 14.701172 C 7.2507797 16.451253 8.6513471 17.999934 10.410156 18 L 18.390625 18 C 19.923256 17.999942 21.222503 16.823853 21.375 15.298828 L 21.974609 9.2988281 C 22.149611 7.5487468 20.749044 6.0000661 18.990234 6 L 11.009766 6 z M 11.605469 8 L 18.8125 8 L 16.347656 10.242188 C 15.521525 10.993208 14.27244 10.933614 13.521484 10.107422 L 11.605469 8 z M 9.9863281 9.1914062 L 12.042969 11.453125 C 13.520973 13.079208 16.067396 13.200791 17.693359 11.722656 L 19.925781 9.6933594 L 19.384766 15.099609 C 19.332794 15.619341 18.912948 15.99998 18.390625 16 L 10.410156 16 C 9.802544 15.999977 9.3536051 15.504988 9.4140625 14.900391 L 9.9863281 9.1914062 z M 3 10 A 1 1 0 0 0 2 11 A 1 1 0 0 0 3 12 L 5 12 A 1 1 0 0 0 6 11 A 1 1 0 0 0 5 10 L 3 10 z " fill="currentColor"/>
</svg>
