<svg xmlns="http://www.w3.org/2000/svg" width="1em" height="1em" viewBox="0 0 24 24" fill="currentColor">
  <path d="M 5 4 C 3.3820083 4 2.0474019 5.311583 2.0039062 6.9199219 A 1 1 0 0 0 2.0019531 6.9609375 C 2.0017797 6.97408 2 6.9868197 2 7 L 2 17 C 2 18.64501 3.3549904 20 5 20 L 10.5 20 A 1 1 0 0 0 11.5 19 A 1 1 0 0 0 10.5 18 L 5 18 C 4.4358706 18 4 17.564129 4 17 L 4 8.8691406 L 11.445312 13.832031 A 1.0001 1.0001 0 0 0 12.554688 13.832031 L 15.537109 11.84375 L 20 8.8691406 L 20 11 A 1 1 0 0 0 21 12 A 1 1 0 0 0 22 11 L 22 7 C 22 6.9868197 21.99822 6.97408 21.998047 6.9609375 A 1 1 0 0 0 21.996094 6.9199219 C 21.952598 5.311583 20.617992 4 19 4 L 5 4 z M 5 6 L 19 6 C 19.395668 6 19.727281 6.2144078 19.890625 6.5371094 L 14.427734 10.179688 L 12 11.798828 L 4.109375 6.5371094 C 4.2727129 6.21439 4.6043188 6 5 6 z M 16.21875 14.005859 C 15.40068 14.004259 14.581697 14.308264 13.955078 14.916016 C 12.695184 16.137796 12.689598 18.19039 13.943359 19.417969 L 17.285156 22.699219 L 17.298828 22.712891 A 1 1 0 0 0 17.316406 22.712891 A 1 1 0 0 0 18.699219 22.714844 L 18.712891 22.701172 L 22.046875 19.433594 C 23.307044 18.210748 23.31088 16.15663 22.054688 14.929688 C 20.991215 13.889641 19.43405 13.924693 18.201172 14.652344 L 18.474609 14.921875 C 18.34441 14.79499 18.149104 14.830955 18.003906 14.730469 C 17.857315 14.831202 17.660749 14.794299 17.529297 14.921875 L 17.804688 14.650391 C 17.297704 14.349397 16.79292 14.006961 16.21875 14.005859 z M 16.214844 15.994141 C 16.525546 15.994737 16.835532 16.114506 17.080078 16.353516 L 17.298828 16.570312 A 1.0001 1.0001 0 0 0 18.703125 16.572266 L 18.925781 16.351562 L 18.921875 16.357422 C 19.412879 15.880905 20.167077 15.880931 20.65625 16.359375 A 1.0001 1.0001 0 0 0 20.65625 16.361328 C 21.125633 16.819786 21.125218 17.541119 20.654297 17.998047 A 1.0001 1.0001 0 0 0 20.650391 18.001953 L 18 20.599609 L 15.345703 17.990234 A 1.0001 1.0001 0 0 0 15.34375 17.988281 C 14.874515 17.52967 14.876639 16.808338 15.347656 16.351562 C 15.593117 16.113494 15.904141 15.993545 16.214844 15.994141 z " fill="currentColor"/>
</svg>
