<svg xmlns="http://www.w3.org/2000/svg" width="1em" height="1em" viewBox="0 0 24 24" fill="currentColor">
  <path d="M 5 4 C 3.3820083 4 2.0474019 5.311583 2.0039062 6.9199219 A 1 1 0 0 0 2.0019531 6.9609375 C 2.0017797 6.97408 2 6.9868197 2 7 L 2 17 C 2 18.64501 3.3549904 20 5 20 L 12 20 A 1 1 0 0 0 13 19 A 1 1 0 0 0 12 18 L 5 18 C 4.4358706 18 4 17.564129 4 17 L 4 8.8691406 L 11.445312 13.832031 A 1.0001 1.0001 0 0 0 12.554688 13.832031 L 20 8.8691406 L 20 15 A 1 1 0 0 0 21 16 A 1 1 0 0 0 22 15 L 22 7 C 22 6.9868197 21.99822 6.97408 21.998047 6.9609375 A 1 1 0 0 0 21.996094 6.9199219 C 21.952598 5.311583 20.617992 4 19 4 L 5 4 z M 5 6 L 19 6 C 19.395681 6 19.727287 6.2143901 19.890625 6.5371094 L 12 11.798828 L 4.109375 6.5371094 C 4.2727129 6.21439 4.6043188 6 5 6 z M 16 18 A 1 1 0 0 0 15 19 A 1 1 0 0 0 16 20 L 22 20 A 1 1 0 0 0 23 19 A 1 1 0 0 0 22 18 L 16 18 z " fill="currentColor"/>
</svg>
