<svg xmlns="http://www.w3.org/2000/svg" width="1em" height="1em" viewBox="0 0 24 24" fill="currentColor">
  <path d="M 12 1 C 11.277778 1 10.542119 1.2353472 9.9609375 1.7519531 C 9.3797556 2.268559 9 3.0833335 9 4 C 9 4.9166665 9.3797556 5.731441 9.9609375 6.2480469 C 10.542119 6.7646528 11.277778 7 12 7 C 12.722222 7 13.45788 6.7646528 14.039062 6.2480469 C 14.620243 5.731441 15 4.9166665 15 4 C 15 3.0833335 14.620244 2.268559 14.039062 1.7519531 C 13.45788 1.2353472 12.722222 1 12 1 z M 12 3 C 12.277778 3 12.542119 3.097986 12.710938 3.2480469 C 12.879755 3.3981073 13 3.5833337 13 4 C 13 4.4166663 12.879756 4.6018927 12.710938 4.7519531 C 12.542118 4.9020136 12.277778 5 12 5 C 11.722222 5 11.45788 4.9020136 11.289062 4.7519531 C 11.120243 4.6018927 11 4.4166663 11 4 C 11 3.5833337 11.120244 3.3981073 11.289062 3.2480469 C 11.45788 3.0979864 11.722222 3 12 3 z M 9 8 C 7.3334166 8 5.7439083 8.842029 4.2929688 10.292969 A 1 1 0 0 0 4.2929688 11.707031 A 1 1 0 0 0 5.7070312 11.707031 C 6.5852789 10.828784 7.3931307 10.329119 8.1503906 10.119141 L 9 16.072266 L 9 21 A 1 1 0 0 0 10 22 A 1 1 0 0 0 11 21 L 11 17 L 13 17 L 13 21 A 1 1 0 0 0 14 22 A 1 1 0 0 0 15 21 L 15 16.072266 L 15.849609 10.119141 C 16.60687 10.329119 17.41472 10.828784 18.292969 11.707031 A 1 1 0 0 0 19.707031 11.707031 A 1 1 0 0 0 19.707031 10.292969 C 18.294905 8.8808416 16.748805 8.0514937 15.130859 8.0078125 C 15.087086 8.006648 15.043882 8.0000012 15 8 L 9 8 z M 10.152344 10 L 13.847656 10 L 13.132812 15 L 10.867188 15 L 10.152344 10 z " fill="currentColor"/>
</svg>
