<svg xmlns="http://www.w3.org/2000/svg" width="1em" height="1em" viewBox="0 0 24 24" fill="currentColor">
  <path d="M 9 3 A 1 1 0 0 0 8.9667969 3.0019531 A 1.0001 1.0001 0 0 0 8.90625 3.0058594 A 1 1 0 0 0 8.8242188 3.0175781 A 1.0001 1.0001 0 0 0 8.7851562 3.0234375 A 1 1 0 0 0 8.6894531 3.0507812 A 1.0001 1.0001 0 0 0 8.6601562 3.0605469 A 1 1 0 0 0 8.5859375 3.0917969 A 1.0001 1.0001 0 0 0 8.5527344 3.1054688 L 2.5527344 6.1054688 A 1.0001 1.0001 0 0 0 2 7 L 2 20 A 1.0001 1.0001 0 0 0 3.4472656 20.894531 L 9 18.117188 L 14.552734 20.894531 A 1 1 0 0 0 15.894531 20.447266 A 1 1 0 0 0 15.447266 19.105469 L 10 16.382812 L 10 5.6171875 L 14 7.6171875 L 14 12.5 A 1 1 0 0 0 15 13.5 A 1 1 0 0 0 16 12.5 L 16 7.6171875 L 20 5.6171875 L 20 11.5 A 1 1 0 0 0 21 12.5 A 1 1 0 0 0 22 11.5 L 22 4 A 1.0001 1.0001 0 0 0 20.552734 3.1054688 L 15 5.8828125 L 9.4472656 3.1054688 A 1.0001 1.0001 0 0 0 9.4140625 3.0917969 A 1 1 0 0 0 9.2148438 3.0234375 A 1.0001 1.0001 0 0 0 9.1757812 3.0175781 A 1 1 0 0 0 9.09375 3.0058594 A 1.0001 1.0001 0 0 0 9.0332031 3.0019531 A 1 1 0 0 0 9 3 z M 8 5.6171875 L 8 16.382812 L 4 18.382812 L 4 7.6171875 L 8 5.6171875 z M 18.916016 14.003906 C 18.751818 14.009427 18.588579 14.028365 18.427734 14.060547 C 17.784358 14.189275 17.18203 14.528141 16.736328 15.054688 A 1 1 0 0 0 16.853516 16.464844 A 1 1 0 0 0 18.263672 16.347656 C 18.561037 15.996354 19.047152 15.898544 19.457031 16.107422 C 19.987605 16.383365 20.073808 16.797707 19.96875 17.232422 C 19.863486 17.667988 19.596602 17.998082 18.996094 18 A 1 1 0 0 0 18 19.003906 A 1 1 0 0 0 19.003906 20 C 20.498615 19.9952 21.618946 18.916192 21.912109 17.703125 C 22.205273 16.490058 21.700614 15.016915 20.373047 14.330078 A 1.0001 1.0001 0 0 0 20.369141 14.328125 C 19.908652 14.092234 19.408609 13.987344 18.916016 14.003906 z M 19 21 A 1 1 0 0 0 18 22 L 18 22.009766 A 1 1 0 0 0 19 23.009766 A 1 1 0 0 0 20 22.009766 L 20 22 A 1 1 0 0 0 19 21 z " fill="currentColor"/>
</svg>
