<svg xmlns="http://www.w3.org/2000/svg" width="1em" height="1em" viewBox="0 0 24 24" fill="currentColor">
  <path d="M 9 3 A 1 1 0 0 0 8.9667969 3.0019531 A 1.0001 1.0001 0 0 0 8.90625 3.0058594 A 1 1 0 0 0 8.8242188 3.0175781 A 1.0001 1.0001 0 0 0 8.7851562 3.0234375 A 1 1 0 0 0 8.6894531 3.0507812 A 1.0001 1.0001 0 0 0 8.6601562 3.0605469 A 1 1 0 0 0 8.5859375 3.0917969 A 1.0001 1.0001 0 0 0 8.5527344 3.1054688 L 2.5527344 6.1054688 A 1.0001 1.0001 0 0 0 2 7 L 2 20 A 1.0001 1.0001 0 0 0 3.4472656 20.894531 L 9 18.117188 L 10.552734 18.894531 A 1 1 0 0 0 11.894531 18.447266 A 1 1 0 0 0 11.447266 17.105469 L 10 16.382812 L 10 5.6171875 L 14 7.6171875 L 14 15 A 1 1 0 0 0 15 16 A 1 1 0 0 0 16 15 L 16 7.6171875 L 20 5.6171875 L 20 13 A 1 1 0 0 0 21 14 A 1 1 0 0 0 22 13 L 22 4 A 1.0001 1.0001 0 0 0 20.552734 3.1054688 L 15 5.8828125 L 9.4472656 3.1054688 A 1.0001 1.0001 0 0 0 9.4140625 3.0917969 A 1 1 0 0 0 9.2148438 3.0234375 A 1.0001 1.0001 0 0 0 9.1757812 3.0175781 A 1 1 0 0 0 9.09375 3.0058594 A 1.0001 1.0001 0 0 0 9.0332031 3.0019531 A 1 1 0 0 0 9 3 z M 8 5.6171875 L 8 16.382812 L 4 18.382812 L 4 7.6171875 L 8 5.6171875 z M 21 16 A 1 1 0 0 0 20.292969 16.292969 L 17 19.585938 L 15.707031 18.292969 A 1 1 0 0 0 14.292969 18.292969 A 1 1 0 0 0 14.292969 19.707031 L 16.292969 21.707031 A 1.0001 1.0001 0 0 0 17.707031 21.707031 L 21.707031 17.707031 A 1 1 0 0 0 21.707031 16.292969 A 1 1 0 0 0 21 16 z " fill="currentColor"/>
</svg>
