<svg xmlns="http://www.w3.org/2000/svg" width="1em" height="1em" viewBox="0 0 24 24" fill="currentColor">
  <path d="M 12 2 C 6.4889982 2 2 6.4889941 2 12 C 2 17.511006 6.4889982 22 12 22 C 17.511002 22 22 17.511006 22 12 C 22 6.4889941 17.511002 2 12 2 z M 12 4 C 16.430123 4 20 7.5698737 20 12 C 20 16.430126 16.430123 20 12 20 C 7.5698765 20 4 16.430126 4 12 C 4 7.5698737 7.5698765 4 12 4 z M 8.9667969 8 A 1 1 0 0 0 8.8359375 8.0136719 A 1 1 0 0 0 8.0136719 9.1640625 L 9.0136719 15.164062 A 1.0001 1.0001 0 0 0 10.882812 15.470703 L 12 13.375 L 13.117188 15.470703 A 1.0001 1.0001 0 0 0 14.986328 15.164062 L 15.986328 9.1640625 A 1 1 0 0 0 15.164062 8.0136719 A 1 1 0 0 0 14.013672 8.8359375 L 13.498047 11.931641 L 12.882812 10.779297 A 1.0001 1.0001 0 0 0 11.117188 10.779297 L 10.501953 11.931641 L 9.9863281 8.8359375 A 1 1 0 0 0 8.9667969 8 z " fill="currentColor"/>
</svg>
