<svg xmlns="http://www.w3.org/2000/svg" width="1em" height="1em" viewBox="0 0 24 24" fill="currentColor">
  <path d="M 11.777344 2.0019531 C 10.679736 2.0262077 9.5598962 2.2561177 8.4667969 2.7226562 C 2.6369336 5.2108614 1.1545543 12.881155 5.6367188 17.363281 L 9.8808594 21.607422 C 10.534913 22.261165 11.455439 22.577616 12.373047 22.462891 A 1 1 0 0 0 13.242188 21.345703 A 1 1 0 0 0 12.125 20.478516 C 11.818721 20.516806 11.513594 20.411086 11.294922 20.193359 L 11.292969 20.193359 L 7.0507812 15.949219 C 3.5215588 12.420026 4.6615698 6.5216911 9.2519531 4.5625 C 13.842336 2.6033089 18.891287 5.8596985 18.998047 10.849609 A 1 1 0 0 0 20.019531 11.828125 A 1 1 0 0 0 20.998047 10.806641 C 20.896357 6.0536946 17.177576 2.4836404 12.865234 2.0449219 C 12.505873 2.008362 12.143213 1.9938683 11.777344 2.0019531 z M 11.869141 7.0039062 C 11.677625 7.0098421 11.485786 7.0288658 11.294922 7.0625 C 10.531465 7.1970366 9.7868061 7.5569439 9.171875 8.171875 C 7.9420128 9.4017372 7.7329238 11.150711 8.3046875 12.53125 C 8.8764512 13.911789 10.260565 15 12 15 A 1 1 0 0 0 13 14 A 1 1 0 0 0 12 13 C 11.066535 13 10.44541 12.473243 10.152344 11.765625 C 9.8592769 11.058007 9.9260023 10.245872 10.585938 9.5859375 C 11.245871 8.9260028 12.058007 8.859277 12.765625 9.1523438 C 13.473243 9.4454103 14 10.066535 14 11 A 1 1 0 0 0 15 12 A 1 1 0 0 0 16 11 C 16 9.2605649 14.911789 7.8764512 13.53125 7.3046875 C 13.013547 7.0902761 12.443687 6.9860987 11.869141 7.0039062 z M 18.5 13.5 A 1.0001 1.0001 0 0 0 17.792969 13.792969 C 17.028671 14.557266 15.666667 15 15 15 A 1.0001 1.0001 0 0 0 14 16 C 14 18.208333 14.696219 19.928943 15.574219 21.099609 C 16.013219 21.684943 16.494889 22.135916 16.976562 22.457031 C 17.458237 22.778147 17.916667 23 18.5 23 C 19.083333 23 19.541764 22.778147 20.023438 22.457031 C 20.505112 22.135916 20.986781 21.684943 21.425781 21.099609 C 22.303781 19.928943 23 18.208333 23 16 A 1 1 0 0 0 22 15 C 21.333333 15 19.971329 14.557266 19.207031 13.792969 A 1.0001 1.0001 0 0 0 18.5 13.5 z M 18.5 15.671875 C 19.267708 16.243479 20.061123 16.603405 20.880859 16.773438 C 20.738002 18.123749 20.342098 19.209885 19.824219 19.900391 C 19.513219 20.315057 19.182389 20.614084 18.914062 20.792969 C 18.723958 20.919705 18.553558 20.971227 18.5 20.990234 C 18.446443 20.971226 18.276044 20.919704 18.085938 20.792969 C 17.817612 20.614084 17.486781 20.315057 17.175781 19.900391 C 16.657902 19.209885 16.261998 18.123749 16.119141 16.773438 C 16.938877 16.603406 17.732292 16.243479 18.5 15.671875 z " fill="currentColor"/>
</svg>
