<svg xmlns="http://www.w3.org/2000/svg" width="1em" height="1em" viewBox="0 0 24 24" fill="currentColor">
  <path d="M 9 3 A 1 1 0 0 0 8.9667969 3.0019531 A 1.0001 1.0001 0 0 0 8.90625 3.0058594 A 1 1 0 0 0 8.8242188 3.0175781 A 1.0001 1.0001 0 0 0 8.7851562 3.0234375 A 1 1 0 0 0 8.6894531 3.0507812 A 1.0001 1.0001 0 0 0 8.6601562 3.0605469 A 1 1 0 0 0 8.5859375 3.0917969 A 1.0001 1.0001 0 0 0 8.5527344 3.1054688 L 2.5527344 6.1054688 A 1.0001 1.0001 0 0 0 2 7 L 2 20 A 1.0001 1.0001 0 0 0 3.4472656 20.894531 L 9 18.117188 L 11.552734 19.394531 A 1 1 0 0 0 12.894531 18.947266 A 1 1 0 0 0 12.447266 17.605469 L 10 16.382812 L 10 5.6171875 L 14 7.6171875 L 14 14.5 A 1 1 0 0 0 15 15.5 A 1 1 0 0 0 16 14.5 L 16 7.6171875 L 20 5.6171875 L 20 12.5 A 1 1 0 0 0 21 13.5 A 1 1 0 0 0 22 12.5 L 22 4 A 1.0001 1.0001 0 0 0 20.552734 3.1054688 L 15 5.8828125 L 9.4472656 3.1054688 A 1.0001 1.0001 0 0 0 9.4140625 3.0917969 A 1 1 0 0 0 9.2148438 3.0234375 A 1.0001 1.0001 0 0 0 9.1757812 3.0175781 A 1 1 0 0 0 9.09375 3.0058594 A 1.0001 1.0001 0 0 0 9.0332031 3.0019531 A 1 1 0 0 0 9 3 z M 8 5.6171875 L 8 16.382812 L 4 18.382812 L 4 7.6171875 L 8 5.6171875 z M 19 15 A 1.0001 1.0001 0 0 0 18.794922 15.023438 A 1 1 0 0 0 18.742188 15.035156 A 1 1 0 0 0 18.617188 15.076172 A 1 1 0 0 0 18.611328 15.078125 A 1.0001 1.0001 0 0 0 18.5 15.134766 A 1 1 0 0 0 18.439453 15.175781 A 1.0001 1.0001 0 0 0 18.384766 15.212891 A 1 1 0 0 0 18.341797 15.25 A 1.0001 1.0001 0 0 0 18.292969 15.292969 A 1 1 0 0 0 18.283203 15.302734 L 15.292969 18.292969 A 1 1 0 0 0 15.292969 19.707031 A 1 1 0 0 0 16.707031 19.707031 L 18 18.414062 L 18 22 A 1 1 0 0 0 19 23 A 1 1 0 0 0 20 22 L 20 18.414062 L 21.292969 19.707031 A 1 1 0 0 0 22.707031 19.707031 A 1 1 0 0 0 22.707031 18.292969 L 19.716797 15.302734 A 1 1 0 0 0 19.658203 15.25 A 1.0001 1.0001 0 0 0 19.615234 15.212891 A 1 1 0 0 0 19.560547 15.175781 A 1.0001 1.0001 0 0 0 19.382812 15.076172 A 1 1 0 0 0 19.257812 15.035156 A 1.0001 1.0001 0 0 0 19.205078 15.023438 A 1.0001 1.0001 0 0 0 19 15 z " fill="currentColor"/>
</svg>
