<svg xmlns="http://www.w3.org/2000/svg" width="1em" height="1em" viewBox="0 0 24 24" fill="currentColor">
  <path d="M 9 3 A 1 1 0 0 0 8.9667969 3.0019531 A 1.0001 1.0001 0 0 0 8.90625 3.0058594 A 1 1 0 0 0 8.8242188 3.0175781 A 1.0001 1.0001 0 0 0 8.7851562 3.0234375 A 1 1 0 0 0 8.6894531 3.0507812 A 1.0001 1.0001 0 0 0 8.6601562 3.0605469 A 1 1 0 0 0 8.5859375 3.0917969 A 1.0001 1.0001 0 0 0 8.5527344 3.1054688 L 2.5527344 6.1054688 A 1.0001 1.0001 0 0 0 2 7 L 2 20 A 1.0001 1.0001 0 0 0 3.4472656 20.894531 L 9 18.117188 L 11.552734 19.394531 A 1 1 0 0 0 12.894531 18.947266 A 1 1 0 0 0 12.447266 17.605469 L 10 16.382812 L 10 5.6171875 L 14 7.6171875 L 14 12.5 A 1 1 0 0 0 15 13.5 A 1 1 0 0 0 16 12.5 L 16 7.6171875 L 20 5.6171875 L 20 11.5 A 1 1 0 0 0 21 12.5 A 1 1 0 0 0 22 11.5 L 22 4 A 1.0001 1.0001 0 0 0 20.552734 3.1054688 L 15 5.8828125 L 9.4472656 3.1054688 A 1.0001 1.0001 0 0 0 9.4140625 3.0917969 A 1 1 0 0 0 9.2148438 3.0234375 A 1.0001 1.0001 0 0 0 9.1757812 3.0175781 A 1 1 0 0 0 9.09375 3.0058594 A 1.0001 1.0001 0 0 0 9.0332031 3.0019531 A 1 1 0 0 0 9 3 z M 8 5.6171875 L 8 16.382812 L 4 18.382812 L 4 7.6171875 L 8 5.6171875 z M 19 14 C 17.26058 14 15.876507 15.088139 15.304688 16.46875 C 14.732867 17.849361 14.941629 19.598251 16.171875 20.828125 C 16.636336 21.293697 17.351167 21.924991 18.357422 22.767578 A 1.0001 1.0001 0 0 0 19.646484 22.763672 C 20.702942 21.86905 21.407467 21.24765 21.824219 20.830078 A 1 1 0 0 0 21.828125 20.828125 L 21.828125 20.826172 C 23.057189 19.596367 23.266927 17.848862 22.695312 16.46875 C 22.123498 15.088227 20.73942 14 19 14 z M 19 16 C 19.933374 16 20.554559 16.526716 20.847656 17.234375 C 21.140754 17.942034 21.074283 18.754042 20.414062 19.414062 A 1 1 0 0 0 20.412109 19.414062 C 20.201135 19.625621 19.566887 20.171813 19 20.664062 C 18.448807 20.187635 17.843263 19.670047 17.587891 19.414062 A 1.0001 1.0001 0 0 0 17.585938 19.414062 C 16.92581 18.754042 16.859246 17.942034 17.152344 17.234375 C 17.445441 16.526716 18.066626 16 19 16 z M 19 17 A 1 1 0 0 0 18 18 L 18 18.009766 A 1 1 0 0 0 19 19.009766 A 1 1 0 0 0 20 18.009766 L 20 18 A 1 1 0 0 0 19 17 z " fill="currentColor"/>
</svg>
