<svg xmlns="http://www.w3.org/2000/svg" width="1em" height="1em" viewBox="0 0 24 24" fill="currentColor">
  <path d="M 12.441406 2.0078125 C 12.108942 1.9905084 11.773885 1.9923715 11.435547 2.0136719 C 10.662203 2.0623585 9.87706 2.2151329 9.09375 2.4824219 C 2.8272701 4.6207337 0.95491779 12.681055 5.6367188 17.363281 L 9.8808594 21.607422 C 11.043834 22.769223 12.958119 22.769223 14.121094 21.607422 L 15.710938 20.017578 A 1 1 0 0 0 15.712891 18.603516 A 1 1 0 0 0 14.298828 18.603516 L 12.707031 20.193359 C 12.308703 20.591286 11.693758 20.590354 11.294922 20.193359 L 11.292969 20.193359 L 7.0507812 15.949219 C 3.3577001 12.255802 4.7971479 6.0617301 9.7402344 4.375 C 14.683321 2.6882699 19.608382 6.7120453 18.943359 11.892578 A 1 1 0 0 0 19.808594 13.011719 A 1 1 0 0 0 20.927734 12.146484 C 21.61931 6.7591015 17.428366 2.2673734 12.441406 2.0078125 z M 12 7 C 11.027778 7 10.042119 7.3186806 9.2734375 8.0019531 C 8.5047556 8.6852256 8 9.7500003 8 11 C 8 12.25 8.5047556 13.314774 9.2734375 13.998047 C 10.042119 14.681319 11.027778 15 12 15 C 12.972222 15 13.95788 14.681319 14.726562 13.998047 C 15.495243 13.314774 16 12.25 16 11 C 16 9.7500003 15.495244 8.6852256 14.726562 8.0019531 C 13.95788 7.3186806 12.972222 7 12 7 z M 12 9 C 12.527778 9 13.042119 9.1813198 13.398438 9.4980469 C 13.754755 9.8147739 14 10.250001 14 11 C 14 11.749999 13.754756 12.185226 13.398438 12.501953 C 13.042118 12.81868 12.527778 13 12 13 C 11.472222 13 10.95788 12.81868 10.601562 12.501953 C 10.245243 12.185226 10 11.749999 10 11 C 10 10.250001 10.245244 9.8147739 10.601562 9.4980469 C 10.95788 9.1813198 11.472222 9 12 9 z M 19 15 A 1 1 0 0 0 18 16 L 18 19 A 1 1 0 0 0 19 20 A 1 1 0 0 0 20 19 L 20 16 A 1 1 0 0 0 19 15 z M 19 21 A 1 1 0 0 0 18 22 L 18 22.009766 A 1 1 0 0 0 19 23.009766 A 1 1 0 0 0 20 22.009766 L 20 22 A 1 1 0 0 0 19 21 z " fill="currentColor"/>
</svg>
