<svg xmlns="http://www.w3.org/2000/svg" width="1em" height="1em" viewBox="0 0 24 24" fill="currentColor">
  <path d="M 5 4 C 3.3549904 4 2 5.3549904 2 7 L 2 17 C 2 18.64501 3.3549904 20 5 20 L 19 20 C 20.64501 20 22 18.64501 22 17 L 22 7 C 22 5.3549904 20.64501 4 19 4 L 5 4 z M 5 6 L 19 6 C 19.564129 6 20 6.4358706 20 7 L 20 17 C 20 17.564129 19.564129 18 19 18 L 5 18 C 4.4358706 18 4 17.564129 4 17 L 4 7 C 4 6.4358706 4.4358706 6 5 6 z M 7 8 A 1.0001 1.0001 0 0 0 6.6171875 8.0761719 A 1.0001 1.0001 0 0 0 6 9 L 6 15 A 1 1 0 0 0 7 16 A 1 1 0 0 0 8 15 L 8 11.414062 L 8.2929688 11.707031 A 1.0001 1.0001 0 0 0 9.7070312 11.707031 L 10 11.414062 L 10 15 A 1 1 0 0 0 11 16 A 1 1 0 0 0 12 15 L 12 9 A 1.0001 1.0001 0 0 0 10.292969 8.2929688 L 9 9.5859375 L 7.7070312 8.2929688 A 1.0001 1.0001 0 0 0 7 8 z M 16 8 A 1 1 0 0 0 15 9 L 15 12.585938 L 14.707031 12.292969 A 1 1 0 0 0 13.292969 12.292969 A 1 1 0 0 0 13.292969 13.707031 L 15.292969 15.707031 A 1.0001 1.0001 0 0 0 15.707031 15.707031 A 1 1 0 0 0 16 16 A 1 1 0 0 0 16.292969 15.707031 A 1.0001 1.0001 0 0 0 16.707031 15.707031 L 18.707031 13.707031 A 1 1 0 0 0 18.707031 12.292969 A 1 1 0 0 0 17.292969 12.292969 L 17 12.585938 L 17 9 A 1 1 0 0 0 16 8 z " fill="currentColor"/>
</svg>
