<svg xmlns="http://www.w3.org/2000/svg" width="1em" height="1em" viewBox="0 0 24 24" fill="currentColor">
  <path d="M 7 2 C 6.2777779 2 5.5421194 2.2353472 4.9609375 2.7519531 C 4.3797556 3.268559 4 4.0833335 4 5 C 4 5.3637283 4.0595277 5.7118688 4.1679688 6.03125 C 3.3453419 7.4328371 2.8698956 9.2243641 2.5351562 10.765625 C 2.1623195 12.4823 2.0058594 13.888672 2.0058594 13.888672 A 1 1 0 0 0 2.8886719 14.994141 A 1 1 0 0 0 3.9941406 14.111328 C 3.9941406 14.111328 4.140821 12.798279 4.4902344 11.189453 C 4.7454896 10.014166 5.1307349 8.6808508 5.5820312 7.6699219 C 6.0269937 7.8943913 6.5167726 8 7 8 C 7.5122919 8 8.0321613 7.8821195 8.4980469 7.6289062 C 9.3060023 8.8746623 10.22202 10.678416 11.126953 12.488281 C 12.131141 14.496658 13.119405 16.510407 14.167969 17.96875 C 14.059574 18.288072 14 18.636354 14 19 C 14 19.916666 14.379756 20.731441 14.960938 21.248047 C 15.542118 21.764653 16.277778 22 17 22 C 17.722222 22 18.457881 21.764653 19.039062 21.248047 C 19.620244 20.731441 20 19.916666 20 19 C 20 18.69817 19.958791 18.407495 19.882812 18.134766 C 20.238193 17.506916 20.502266 16.704458 20.800781 15.638672 C 21.190183 14.248395 21.580934 12.434041 21.984375 10.175781 A 1 1 0 0 0 21.175781 9.015625 A 1 1 0 0 0 20.015625 9.8242188 C 19.619066 12.043959 19.236098 13.808433 18.875 15.097656 C 18.738612 15.584602 18.598123 16.007873 18.466797 16.355469 C 18.009046 16.11382 17.50082 16 17 16 C 16.487859 16 15.969686 16.118034 15.503906 16.371094 C 14.708657 15.144329 13.804882 13.375389 12.914062 11.59375 C 11.896923 9.559471 10.893814 7.5090663 9.8320312 6.03125 C 9.9404684 5.7118738 10 5.3637214 10 5 C 10 4.0833335 9.6202444 3.268559 9.0390625 2.7519531 C 8.4578806 2.2353472 7.7222221 2 7 2 z M 7 4 C 7.2777779 4 7.5421194 4.0979864 7.7109375 4.2480469 C 7.8797556 4.3981073 8 4.5833337 8 5 C 8 5.4166663 7.8797556 5.6018927 7.7109375 5.7519531 C 7.5421194 5.9020136 7.2777779 6 7 6 C 6.7222221 6 6.4578806 5.9020136 6.2890625 5.7519531 C 6.1202444 5.6018927 6 5.4166663 6 5 C 6 4.5833337 6.1202444 4.3981073 6.2890625 4.2480469 C 6.4578806 4.0979864 6.7222221 4 7 4 z M 17 18 C 17.277778 18 17.542119 18.09799 17.710938 18.248047 C 17.73893 18.272929 17.766021 18.298461 17.791016 18.326172 A 1 1 0 0 0 17.964844 18.658203 C 17.988035 18.751797 18 18.863806 18 19 C 18 19.416666 17.879756 19.601893 17.710938 19.751953 C 17.542119 19.902014 17.277778 20 17 20 C 16.722222 20 16.457881 19.902014 16.289062 19.751953 C 16.120244 19.601893 16 19.416666 16 19 C 16 18.835984 16.017889 18.70778 16.050781 18.603516 A 1 1 0 0 0 16.289062 18.248047 C 16.457898 18.098176 16.72243 18 17 18 z " fill="currentColor"/>
</svg>
