<svg xmlns="http://www.w3.org/2000/svg" width="1em" height="1em" viewBox="0 0 24 24" fill="currentColor">
  <path d="M 5 7 C 4.2777779 7 3.5421194 7.2353472 2.9609375 7.7519531 C 2.3797556 8.268559 2 9.0833335 2 10 L 2 14 C 2 14.916666 2.3797556 15.731441 2.9609375 16.248047 C 3.5421194 16.764653 4.2777779 17 5 17 C 5.7222221 17 6.4578806 16.764653 7.0390625 16.248047 C 7.6202444 15.731441 8 14.916666 8 14 A 1 1 0 0 0 7 13 A 1 1 0 0 0 6 14 C 6 14.416666 5.8797556 14.601893 5.7109375 14.751953 C 5.5421194 14.902014 5.2777779 15 5 15 C 4.7222221 15 4.4578806 14.902014 4.2890625 14.751953 C 4.1202444 14.601893 4 14.416666 4 14 L 4 10 C 4 9.5833337 4.1202444 9.3981073 4.2890625 9.2480469 C 4.4578806 9.0979864 4.7222221 9 5 9 C 5.2777779 9 5.5421194 9.0979864 5.7109375 9.2480469 C 5.8797556 9.3981073 6 9.5833337 6 10 A 1 1 0 0 0 7 11 A 1 1 0 0 0 8 10 C 8 9.0833335 7.6202444 8.268559 7.0390625 7.7519531 C 6.4578806 7.2353472 5.7222221 7 5 7 z M 10 7 A 1 1 0 0 0 9 8 A 1 1 0 0 0 10 9 L 11 9 L 11 16 A 1 1 0 0 0 12 17 A 1 1 0 0 0 13 16 L 13 9 L 14 9 A 1 1 0 0 0 15 8 A 1 1 0 0 0 14 7 L 10 7 z M 19 7 C 17.35499 7 16 8.3549904 16 10 L 16 14 C 16 15.64501 17.35499 17 19 17 L 21 17 A 1.0001 1.0001 0 0 0 22 16 L 22 12 A 1.0001 1.0001 0 0 0 21 11 L 20 11 A 1 1 0 0 0 19 12 A 1 1 0 0 0 20 13 L 20 15 L 19 15 C 18.435871 15 18 14.564129 18 14 L 18 10 C 18 9.4358706 18.435871 9 19 9 L 21 9 A 1 1 0 0 0 22 8 A 1 1 0 0 0 21 7 L 19 7 z " fill="currentColor"/>
</svg>
