<svg xmlns="http://www.w3.org/2000/svg" width="1em" height="1em" viewBox="0 0 24 24" fill="currentColor">
  <path d="M 12 4 A 1.0001 1.0001 0 0 0 11.039062 4.7246094 L 7.7441406 16.253906 L 5.8945312 12.552734 A 1.0001 1.0001 0 0 0 5 12 L 3 12 A 1 1 0 0 0 2 13 A 1 1 0 0 0 3 14 L 4.3828125 14 L 7.1054688 19.447266 A 1.0001 1.0001 0 0 0 8.9609375 19.275391 L 12.753906 6 L 19 6 A 1 1 0 0 0 20 5 A 1 1 0 0 0 19 4 L 12 4 z M 14 12 A 1 1 0 0 0 13.292969 12.292969 A 1 1 0 0 0 13.292969 13.707031 L 15.585938 16 L 13.292969 18.292969 A 1 1 0 0 0 13.292969 19.707031 A 1 1 0 0 0 14.707031 19.707031 L 17 17.414062 L 19.292969 19.707031 A 1 1 0 0 0 20.707031 19.707031 A 1 1 0 0 0 20.707031 18.292969 L 18.414062 16 L 20.707031 13.707031 A 1 1 0 0 0 20.707031 12.292969 A 1 1 0 0 0 19.292969 12.292969 L 17 14.585938 L 14.707031 12.292969 A 1 1 0 0 0 14 12 z " fill="currentColor"/>
</svg>
