<svg xmlns="http://www.w3.org/2000/svg" width="1em" height="1em" viewBox="0 0 24 24" fill="currentColor">
  <path d="M 6 7 C 5.0833335 7 4.268559 7.3797556 3.7519531 7.9609375 C 3.2353472 8.5421194 3 9.2777779 3 10 C 3 10.722222 3.2353472 11.457881 3.7519531 12.039062 C 4.268559 12.620243 5.0833335 13 6 13 C 6.4166663 13 6.6018927 13.120244 6.7519531 13.289062 C 6.9020136 13.45788 7 13.722222 7 14 C 7 14.277778 6.9020136 14.542119 6.7519531 14.710938 C 6.6018927 14.879755 6.4166663 15 6 15 C 5.617389 15 4.9278969 14.607535 4.8671875 14.501953 A 1 1 0 0 0 3.5019531 14.132812 A 1 1 0 0 0 3.1328125 15.498047 C 3.7621031 16.592465 4.898611 17 6 17 C 6.9166665 17 7.731441 16.620244 8.2480469 16.039062 C 8.7646528 15.457881 9 14.722222 9 14 C 9 13.277778 8.7646528 12.542119 8.2480469 11.960938 C 7.731441 11.379755 6.9166665 11 6 11 C 5.5833337 11 5.3981073 10.879756 5.2480469 10.710938 C 5.0979864 10.542118 5 10.277778 5 10 C 5 9.7222221 5.0979864 9.4578806 5.2480469 9.2890625 C 5.3981073 9.1202444 5.5833337 9 6 9 C 6.3938999 9 7.068763 9.38475 7.1308594 9.4941406 A 1 1 0 0 0 8.4941406 9.8691406 A 1 1 0 0 0 8.8691406 8.5058594 C 8.243237 7.40325 7.0981001 7 6 7 z M 12 7 A 1 1 0 0 0 11 8 L 11 16 A 1 1 0 0 0 12 17 A 1 1 0 0 0 13 16 L 13 8 A 1 1 0 0 0 12 7 z M 15.980469 7 A 1.0001 1.0001 0 0 0 15 8 L 15 16 A 1 1 0 0 0 16 17 A 1 1 0 0 0 17 16 L 17 12.236328 L 19.105469 16.447266 A 1.0001 1.0001 0 0 0 21 16 L 21 8 A 1 1 0 0 0 20 7 A 1 1 0 0 0 19 8 L 19 11.763672 L 16.894531 7.5527344 A 1.0001 1.0001 0 0 0 15.980469 7 z " fill="currentColor"/>
</svg>
