<svg xmlns="http://www.w3.org/2000/svg" width="1em" height="1em" viewBox="0 0 24 24" fill="currentColor">
  <path d="M 7 3 C 5.75 3 4.8558538 3.9029565 4.2558594 4.8847656 C 3.6558649 5.8665747 3.2384134 7.0577275 2.9121094 8.2324219 C 2.2595014 10.581811 2.0058594 12.888672 2.0058594 12.888672 A 1 1 0 0 0 2.8886719 13.994141 A 1 1 0 0 0 3.9941406 13.111328 C 3.9941406 13.111328 4.2404986 10.918189 4.8378906 8.7675781 C 5.1365866 7.6922725 5.5316351 6.6334253 5.9628906 5.9277344 C 6.3941462 5.2220435 6.75 5 7 5 L 7.0019531 5 C 7.0195462 5.0046372 7.13241 5.0339848 7.328125 5.1933594 C 7.5517993 5.3755013 7.8472847 5.7012822 8.1601562 6.1328125 C 8.7858993 6.9958731 9.4888533 8.2666265 10.201172 9.6542969 C 11.495785 12.176337 12.789618 15.057876 14.167969 16.970703 C 14.05968 17.289889 14 17.636542 14 18 C 14 18.916666 14.379756 19.731441 14.960938 20.248047 C 15.542118 20.764653 16.277778 21 17 21 C 17.722222 21 18.457881 20.764653 19.039062 20.248047 C 19.620244 19.731441 20 18.916666 20 18 C 20 17.69817 19.958791 17.407495 19.882812 17.134766 C 20.238193 16.506916 20.502266 15.704458 20.800781 14.638672 C 21.190183 13.248395 21.580934 11.434041 21.984375 9.1757812 A 1 1 0 0 0 21.175781 8.015625 A 1 1 0 0 0 20.015625 8.8242188 C 19.619066 11.043959 19.236098 12.808433 18.875 14.097656 C 18.738612 14.584602 18.598123 15.007873 18.466797 15.355469 C 18.009046 15.11382 17.50082 15 17 15 C 16.488169 15 15.969468 15.11835 15.503906 15.371094 C 14.438837 13.721854 13.189204 11.094976 11.980469 8.7402344 C 11.252412 7.3219048 10.529023 5.9930488 9.7792969 4.9589844 C 9.4044341 4.4419522 9.0263999 3.996483 8.5917969 3.6425781 C 8.1571939 3.2886732 7.6314046 3 7 3 z M 17 17 C 17.277778 17 17.542119 17.09799 17.710938 17.248047 C 17.73893 17.272929 17.766021 17.298461 17.791016 17.326172 A 1 1 0 0 0 17.964844 17.658203 C 17.988035 17.751797 18 17.863806 18 18 C 18 18.416666 17.879756 18.601893 17.710938 18.751953 C 17.542119 18.902014 17.277778 19 17 19 C 16.722222 19 16.457881 18.902014 16.289062 18.751953 C 16.120244 18.601893 16 18.416666 16 18 C 16 17.837265 16.018367 17.709289 16.050781 17.605469 A 1 1 0 0 0 16.289062 17.248047 L 16.291016 17.246094 C 16.459924 17.097108 16.723398 17 17 17 z " fill="currentColor"/>
</svg>
