<svg xmlns="http://www.w3.org/2000/svg" width="1em" height="1em" viewBox="0 0 24 24" fill="currentColor">
  <path d="M 12 2 C 6.4889982 2 2 6.4889941 2 12 C 2 17.511006 6.4889982 22 12 22 C 17.511002 22 22 17.511006 22 12 C 22 6.4889941 17.511002 2 12 2 z M 12 4 C 16.430123 4 20 7.5698737 20 12 C 20 16.430126 16.430123 20 12 20 C 7.5698765 20 4 16.430126 4 12 C 4 7.5698737 7.5698765 4 12 4 z M 12 7 A 1 1 0 0 0 11 8 L 11 10.275391 L 8.9960938 9.1308594 A 1 1 0 0 0 8.2363281 9.0351562 A 1 1 0 0 0 7.6308594 9.5039062 A 1 1 0 0 0 8.0039062 10.869141 L 9.9824219 12 L 8.0039062 13.130859 A 1 1 0 0 0 7.6308594 14.496094 A 1 1 0 0 0 8.9960938 14.869141 L 11 13.724609 L 11 16 A 1 1 0 0 0 12 17 A 1 1 0 0 0 13 16 L 13 13.724609 L 15.003906 14.869141 A 1 1 0 0 0 16.369141 14.496094 A 1 1 0 0 0 15.996094 13.130859 L 14.017578 12 L 15.996094 10.869141 A 1 1 0 0 0 16.369141 9.5039062 A 1 1 0 0 0 15.763672 9.0351562 A 1 1 0 0 0 15.003906 9.1308594 L 13 10.275391 L 13 8 A 1 1 0 0 0 12 7 z " fill="currentColor"/>
</svg>
