<svg xmlns="http://www.w3.org/2000/svg" width="1em" height="1em" viewBox="0 0 24 24" fill="currentColor">
  <path d="M 11 2 C 9.9072751 2 9 2.9072751 9 4 L 9 6.1269531 C 7.2812389 6.5747695 6 8.1475739 6 10 L 6 20 C 6 21.092725 6.9072751 22 8 22 L 16 22 C 17.092725 22 18 21.092725 18 20 L 18 10 C 18 8.1475739 16.718761 6.5747696 15 6.1269531 L 15 4 C 15 2.9072751 14.092725 2 13 2 L 11 2 z M 11 4 L 13 4 L 13 6 L 11 6 L 11 4 z M 10 8 L 14 8 C 15.116414 8 16 8.8835859 16 10 L 16 20 L 8 20 L 8 10 C 8 8.883588 8.8835889 8.0000034 10 8 z M 12 11 A 1 1 0 0 0 11 12 L 11 13 L 10 13 A 1 1 0 0 0 9 14 A 1 1 0 0 0 10 15 L 11 15 L 11 16 A 1 1 0 0 0 12 17 A 1 1 0 0 0 13 16 L 13 15 L 14 15 A 1 1 0 0 0 15 14 A 1 1 0 0 0 14 13 L 13 13 L 13 12 A 1 1 0 0 0 12 11 z " fill="currentColor"/>
</svg>
