<svg xmlns="http://www.w3.org/2000/svg" width="1em" height="1em" viewBox="0 0 24 24" fill="currentColor">
  <path d="M 12 2 A 1.0001 1.0001 0 0 0 11.292969 2.2929688 L 8.2929688 5.2929688 A 1 1 0 0 0 8.2929688 6.7070312 A 1 1 0 0 0 9.7070312 6.7070312 L 12 4.4140625 L 14.292969 6.7070312 A 1 1 0 0 0 15.707031 6.7070312 A 1 1 0 0 0 15.707031 5.2929688 L 12.707031 2.2929688 A 1.0001 1.0001 0 0 0 12 2 z M 4 9 A 1 1 0 0 0 3 10 A 1 1 0 0 0 4 11 L 20 11 A 1 1 0 0 0 21 10 A 1 1 0 0 0 20 9 L 4 9 z M 4 13 A 1 1 0 0 0 3 14 A 1 1 0 0 0 4 15 L 20 15 A 1 1 0 0 0 21 14 A 1 1 0 0 0 20 13 L 4 13 z M 9 17 A 1 1 0 0 0 8.2929688 17.292969 A 1 1 0 0 0 8.2929688 18.707031 L 11.292969 21.707031 A 1.0001 1.0001 0 0 0 12.707031 21.707031 L 15.707031 18.707031 A 1 1 0 0 0 15.707031 17.292969 A 1 1 0 0 0 14.292969 17.292969 L 12 19.585938 L 9.7070312 17.292969 A 1 1 0 0 0 9 17 z " fill="currentColor"/>
</svg>
