<svg xmlns="http://www.w3.org/2000/svg" width="1em" height="1em" viewBox="0 0 24 24" fill="currentColor">
  <path d="M 6 3 C 3.8027056 3 2 4.8027056 2 7 L 2 15 C 2 17.197294 3.8027056 19 6 19 L 7 19 L 7 21 A 1.0001 1.0001 0 0 0 8.5136719 21.857422 L 12.511719 19.458984 A 1 1 0 0 0 12.855469 18.085938 A 1 1 0 0 0 11.484375 17.744141 L 9 19.234375 L 9 18 A 1.0001 1.0001 0 0 0 8 17 L 6 17 C 4.8835859 17 4 16.116414 4 15 L 4 7 C 4 5.8835859 4.8835859 5 6 5 L 18 5 C 19.116414 5 20 5.8835859 20 7 L 20 12.5 A 1 1 0 0 0 21 13.5 A 1 1 0 0 0 22 12.5 L 22 7 C 22 4.8027056 20.197294 3 18 3 L 6 3 z M 8 8 A 1 1 0 0 0 7 9 A 1 1 0 0 0 8 10 L 16 10 A 1 1 0 0 0 17 9 A 1 1 0 0 0 16 8 L 8 8 z M 8 12 A 1 1 0 0 0 7 13 A 1 1 0 0 0 8 14 L 14 14 A 1 1 0 0 0 15 13 A 1 1 0 0 0 14 12 L 8 12 z M 19 15 A 1 1 0 0 0 18 16 L 18 19.585938 L 16.707031 18.292969 A 1 1 0 0 0 15.292969 18.292969 A 1 1 0 0 0 15.292969 19.707031 L 18.283203 22.697266 L 18.292969 22.707031 A 1.0001 1.0001 0 0 0 18.341797 22.75 A 1 1 0 0 0 18.384766 22.787109 A 1.0001 1.0001 0 0 0 18.439453 22.824219 A 1 1 0 0 0 18.492188 22.861328 A 1.0001 1.0001 0 0 0 18.5 22.865234 A 1 1 0 0 0 18.611328 22.921875 A 1.0001 1.0001 0 0 0 18.617188 22.923828 A 1 1 0 0 0 18.742188 22.964844 A 1 1 0 0 0 18.794922 22.976562 A 1.0001 1.0001 0 0 0 19 23 A 1.0001 1.0001 0 0 0 19.205078 22.976562 A 1.0001 1.0001 0 0 0 19.257812 22.964844 A 1 1 0 0 0 19.382812 22.923828 A 1.0001 1.0001 0 0 0 19.560547 22.824219 A 1 1 0 0 0 19.615234 22.787109 A 1.0001 1.0001 0 0 0 19.658203 22.75 A 1 1 0 0 0 19.716797 22.697266 L 22.707031 19.707031 A 1 1 0 0 0 22.707031 18.292969 A 1 1 0 0 0 21.292969 18.292969 L 20 19.585938 L 20 16 A 1 1 0 0 0 19 15 z " fill="currentColor"/>
</svg>
