<svg xmlns="http://www.w3.org/2000/svg" width="1em" height="1em" viewBox="0 0 24 24" fill="currentColor">
  <path d="M 7 4 C 4.8027056 4 3 5.8027056 3 8 L 3 21 A 1 1 0 0 0 3.2929688 21.292969 A 1 1 0 0 0 3.2929688 21.707031 A 1 1 0 0 0 4 22 A 1 1 0 0 0 4.7070312 21.707031 L 8.4140625 18 L 17 18 C 19.197294 18 21 16.197294 21 14 L 21 8 C 21 5.8027056 19.197294 4 17 4 L 7 4 z M 7 6 L 17 6 C 18.116414 6 19 6.8835859 19 8 L 19 14 C 19 15.116414 18.116414 16 17 16 L 8 16 A 1.0001 1.0001 0 0 0 7.2929688 16.292969 L 5 18.585938 L 5 8 C 5 6.8835859 5.8835859 6 7 6 z M 12 7 C 11.277778 7 10.542119 7.2353472 9.9609375 7.7519531 C 9.3797556 8.268559 9 9.0833335 9 10 L 9 12 L 9 14 A 1 1 0 0 0 10 15 A 1 1 0 0 0 11 14 L 11 13 L 13 13 L 13 14 A 1 1 0 0 0 14 15 A 1 1 0 0 0 15 14 L 15 12 L 15 10 C 15 9.0833335 14.620244 8.268559 14.039062 7.7519531 C 13.45788 7.2353472 12.722222 7 12 7 z M 12 9 C 12.277778 9 12.542119 9.0979864 12.710938 9.2480469 C 12.879755 9.3981073 13 9.5833337 13 10 L 13 11 L 11 11 L 11 10 C 11 9.5833337 11.120244 9.3981073 11.289062 9.2480469 C 11.45788 9.0979864 11.722222 9 12 9 z " fill="currentColor"/>
</svg>
