<svg xmlns="http://www.w3.org/2000/svg" width="1em" height="1em" viewBox="0 0 24 24" fill="currentColor">
  <path d="M 12.466797 2.9765625 C 10.141397 2.8822684 7.7800438 3.5214996 5.8222656 4.9101562 C 2.0813307 7.564671 1.054753 12.31833 3.2421875 16.111328 L 2.0507812 19.683594 A 1.0001 1.0001 0 0 0 3.2089844 20.978516 L 7.6777344 20.027344 C 8.5425655 20.40364 9.4349973 20.71856 10.369141 20.857422 A 1 1 0 0 0 11.505859 20.015625 A 1 1 0 0 0 10.664062 18.878906 C 9.7866596 18.748479 8.9351172 18.48614 8.1367188 18.099609 A 1.0001 1.0001 0 0 0 7.4921875 18.021484 L 4.5019531 18.658203 L 5.2480469 16.416016 A 1.0001 1.0001 0 0 0 5.1289062 15.539062 C 3.0954516 12.531754 3.8420064 8.7666385 6.9785156 6.5410156 C 10.114959 4.3163289 14.71184 4.5073175 17.595703 6.9667969 C 19.07181 8.2258294 19.864446 9.8440456 19.996094 11.496094 A 1 1 0 0 0 21.072266 12.412109 A 1 1 0 0 0 21.988281 11.335938 C 21.813929 9.147985 20.750424 7.02828 18.894531 5.4453125 C 17.081463 3.8990522 14.792197 3.0708566 12.466797 2.9765625 z M 17.800781 13.042969 C 17.298499 13.042969 16.794578 13.285127 16.552734 13.771484 A 1.0001 1.0001 0 0 0 16.552734 13.773438 L 15.699219 15.496094 L 13.796875 15.771484 C 12.714916 15.921349 12.238116 17.387297 13.023438 18.146484 L 14.400391 19.484375 L 14.074219 21.375 A 1.0001 1.0001 0 0 0 14.072266 21.386719 C 13.900355 22.455046 15.129997 23.341367 16.089844 22.841797 A 1.0001 1.0001 0 0 0 16.091797 22.839844 L 17.800781 21.945312 L 19.503906 22.837891 C 20.467028 23.348584 21.709159 22.447253 21.523438 21.373047 L 21.525391 21.375 L 21.199219 19.484375 L 22.578125 18.144531 A 1.0001 1.0001 0 0 0 22.580078 18.142578 C 23.357847 17.382769 22.884212 15.927618 21.808594 15.771484 L 21.806641 15.771484 L 19.900391 15.496094 L 19.046875 13.773438 A 1.0001 1.0001 0 0 0 19.046875 13.771484 C 18.805031 13.285127 18.303064 13.042969 17.800781 13.042969 z M 17.800781 15.761719 L 18.341797 16.853516 A 1.0001 1.0001 0 0 0 19.09375 17.400391 L 20.294922 17.574219 L 19.427734 18.416016 A 1.0001 1.0001 0 0 0 19.138672 19.302734 L 19.34375 20.496094 L 18.263672 19.931641 A 1 1 0 0 0 17.396484 19.951172 A 1 1 0 0 0 17.335938 19.931641 L 16.255859 20.498047 L 16.460938 19.302734 A 1.0001 1.0001 0 0 0 16.171875 18.416016 L 15.304688 17.574219 L 16.505859 17.400391 A 1.0001 1.0001 0 0 0 17.259766 16.853516 L 17.800781 15.761719 z " fill="currentColor"/>
</svg>
