<svg xmlns="http://www.w3.org/2000/svg" width="1em" height="1em" viewBox="0 0 24 24" fill="currentColor">
  <path d="M 12.466797 2.9765625 C 10.141397 2.8822684 7.7800438 3.5214996 5.8222656 4.9101562 C 2.0813307 7.564671 1.054753 12.31833 3.2421875 16.111328 L 2.0507812 19.683594 A 1.0001 1.0001 0 0 0 3.2089844 20.978516 L 7.7167969 20.019531 C 10.170667 21.076585 12.886558 21.240098 15.320312 20.474609 A 1 1 0 0 0 15.974609 19.220703 A 1 1 0 0 0 14.720703 18.566406 C 12.619763 19.227215 10.213798 19.107709 8.1367188 18.099609 A 1.0001 1.0001 0 0 0 7.4921875 18.021484 L 4.5019531 18.658203 L 5.2480469 16.416016 A 1.0001 1.0001 0 0 0 5.1289062 15.539062 C 3.0954516 12.531754 3.8420064 8.7666385 6.9785156 6.5410156 C 10.114959 4.3163289 14.71184 4.5073175 17.595703 6.9667969 C 19.332021 8.4470963 20.124935 10.422079 20.001953 12.369141 A 1 1 0 0 0 20.9375 13.431641 A 1 1 0 0 0 21.998047 12.496094 C 22.161065 9.9151556 21.078213 7.307013 18.894531 5.4453125 C 17.081463 3.8990522 14.792197 3.0708566 12.466797 2.9765625 z M 19 15 A 1 1 0 0 0 18 16 L 18 19 A 1 1 0 0 0 19 20 A 1 1 0 0 0 20 19 L 20 16 A 1 1 0 0 0 19 15 z M 19 21 A 1 1 0 0 0 18 22 L 18 22.009766 A 1 1 0 0 0 19 23.009766 A 1 1 0 0 0 20 22.009766 L 20 22 A 1 1 0 0 0 19 21 z " fill="currentColor"/>
</svg>
