<svg xmlns="http://www.w3.org/2000/svg" width="1em" height="1em" viewBox="0 0 24 24" fill="currentColor">
  <path d="M 12.466797 2.9765625 C 10.141397 2.8822684 7.7800438 3.5214996 5.8222656 4.9101562 C 2.0813307 7.564671 1.054753 12.31833 3.2421875 16.111328 L 2.0507812 19.683594 A 1.0001 1.0001 0 0 0 3.2089844 20.978516 L 7.6464844 20.033203 C 9.0243542 20.635552 10.501107 20.983284 12.007812 20.980469 A 1 1 0 0 0 13.005859 19.978516 A 1 1 0 0 0 12.003906 18.980469 C 10.664022 18.982969 9.341598 18.681719 8.1347656 18.099609 A 1.0001 1.0001 0 0 0 7.4921875 18.021484 L 4.5019531 18.658203 L 5.2480469 16.416016 A 1.0001 1.0001 0 0 0 5.1289062 15.539062 C 3.0954516 12.531754 3.8420064 8.7666385 6.9785156 6.5410156 C 10.114959 4.3163289 14.71184 4.5073175 17.595703 6.9667969 C 19.361582 8.473066 20.152391 10.489995 19.994141 12.470703 A 1 1 0 0 0 20.912109 13.546875 A 1 1 0 0 0 21.988281 12.628906 C 22.198031 10.003614 21.114652 7.3390434 18.894531 5.4453125 C 17.081463 3.8990522 14.792197 3.0708566 12.466797 2.9765625 z M 19 15 A 1 1 0 0 0 18 16 L 18 19.585938 L 16.707031 18.292969 A 1 1 0 0 0 15.292969 18.292969 A 1 1 0 0 0 15.292969 19.707031 L 18.283203 22.697266 L 18.292969 22.707031 A 1.0001 1.0001 0 0 0 18.341797 22.75 A 1 1 0 0 0 18.384766 22.787109 A 1.0001 1.0001 0 0 0 18.439453 22.824219 A 1 1 0 0 0 18.492188 22.861328 A 1.0001 1.0001 0 0 0 18.5 22.865234 A 1 1 0 0 0 18.611328 22.921875 A 1.0001 1.0001 0 0 0 18.617188 22.923828 A 1 1 0 0 0 18.742188 22.964844 A 1 1 0 0 0 18.794922 22.976562 A 1.0001 1.0001 0 0 0 19 23 A 1.0001 1.0001 0 0 0 19.205078 22.976562 A 1.0001 1.0001 0 0 0 19.257812 22.964844 A 1 1 0 0 0 19.382812 22.923828 A 1.0001 1.0001 0 0 0 19.560547 22.824219 A 1 1 0 0 0 19.615234 22.787109 A 1.0001 1.0001 0 0 0 19.658203 22.75 A 1 1 0 0 0 19.716797 22.697266 L 22.707031 19.707031 A 1 1 0 0 0 22.707031 18.292969 A 1 1 0 0 0 21.292969 18.292969 L 20 19.585938 L 20 16 A 1 1 0 0 0 19 15 z " fill="currentColor"/>
</svg>
