<svg xmlns="http://www.w3.org/2000/svg" width="1em" height="1em" viewBox="0 0 24 24" fill="currentColor">
  <path d="M 6 3 C 3.8027056 3 2 4.8027056 2 7 L 2 15 C 2 17.197294 3.8027056 19 6 19 L 8.5859375 19 L 11.292969 21.707031 A 1.0001 1.0001 0 0 0 12.707031 21.707031 L 15.207031 19.207031 A 1 1 0 0 0 15.207031 17.792969 A 1 1 0 0 0 13.792969 17.792969 L 12 19.585938 L 9.7070312 17.292969 A 1.0001 1.0001 0 0 0 9 17 L 6 17 C 4.8835859 17 4 16.116414 4 15 L 4 7 C 4 5.8835859 4.8835859 5 6 5 L 18 5 C 19.116414 5 20 5.8835859 20 7 L 20 11.5 A 1 1 0 0 0 21 12.5 A 1 1 0 0 0 22 11.5 L 22 7 C 22 4.8027056 20.197294 3 18 3 L 6 3 z M 8 8 A 1 1 0 0 0 7 9 A 1 1 0 0 0 8 10 L 16 10 A 1 1 0 0 0 17 9 A 1 1 0 0 0 16 8 L 8 8 z M 8 12 A 1 1 0 0 0 7 13 A 1 1 0 0 0 8 14 L 14 14 A 1 1 0 0 0 15 13 A 1 1 0 0 0 14 12 L 8 12 z M 18.916016 14.003906 C 18.751818 14.009427 18.588579 14.028365 18.427734 14.060547 C 17.784358 14.189275 17.18203 14.528141 16.736328 15.054688 A 1 1 0 0 0 16.853516 16.464844 A 1 1 0 0 0 18.263672 16.347656 C 18.561037 15.996354 19.047152 15.898544 19.457031 16.107422 C 19.987605 16.383365 20.073808 16.797707 19.96875 17.232422 C 19.863486 17.667988 19.596602 17.998082 18.996094 18 A 1 1 0 0 0 18 19.003906 A 1 1 0 0 0 19.003906 20 C 20.498615 19.9952 21.618946 18.916192 21.912109 17.703125 C 22.205273 16.490058 21.700614 15.016915 20.373047 14.330078 A 1.0001 1.0001 0 0 0 20.369141 14.328125 C 19.908652 14.092234 19.408609 13.987344 18.916016 14.003906 z M 19 21 A 1 1 0 0 0 18 22 L 18 22.009766 A 1 1 0 0 0 19 23.009766 A 1 1 0 0 0 20 22.009766 L 20 22 A 1 1 0 0 0 19 21 z " fill="currentColor"/>
</svg>
