<svg xmlns="http://www.w3.org/2000/svg" width="1em" height="1em" viewBox="0 0 24 24" fill="currentColor">
  <path d="M 12.466797 2.9765625 C 10.141397 2.8822684 7.7800438 3.5214996 5.8222656 4.9101562 C 2.0813307 7.564671 1.054753 12.31833 3.2421875 16.111328 L 2.0507812 19.683594 A 1.0001 1.0001 0 0 0 3.2089844 20.978516 L 7.6542969 20.033203 C 9.1425077 20.681756 10.745223 21.029312 12.371094 20.972656 A 1 1 0 0 0 13.335938 19.939453 A 1 1 0 0 0 12.302734 18.974609 C 10.862889 19.024779 9.4327383 18.72486 8.1347656 18.099609 A 1.0001 1.0001 0 0 0 7.4921875 18.021484 L 4.5019531 18.658203 L 5.2480469 16.416016 A 1.0001 1.0001 0 0 0 5.1289062 15.539062 C 3.0954516 12.531754 3.8420064 8.7666385 6.9785156 6.5410156 C 10.114959 4.3163289 14.71184 4.5073175 17.595703 6.9667969 C 19.039748 8.198222 19.82976 9.7737273 19.986328 11.386719 A 1 1 0 0 0 21.078125 12.287109 A 1 1 0 0 0 21.976562 11.195312 C 21.76913 9.0583032 20.710486 6.9938874 18.894531 5.4453125 C 17.081463 3.8990522 14.792197 3.0708566 12.466797 2.9765625 z M 19 14 C 17.26058 14 15.876507 15.088139 15.304688 16.46875 C 14.732867 17.849361 14.941629 19.598251 16.171875 20.828125 C 16.636336 21.293697 17.351167 21.924991 18.357422 22.767578 A 1.0001 1.0001 0 0 0 19.646484 22.763672 C 20.702942 21.86905 21.407467 21.24765 21.824219 20.830078 A 1 1 0 0 0 21.828125 20.828125 L 21.828125 20.826172 C 23.057189 19.596367 23.266927 17.848862 22.695312 16.46875 C 22.123498 15.088227 20.73942 14 19 14 z M 19 16 C 19.933374 16 20.554559 16.526716 20.847656 17.234375 C 21.140754 17.942034 21.074283 18.754042 20.414062 19.414062 A 1 1 0 0 0 20.412109 19.414062 C 20.201135 19.625621 19.566887 20.171813 19 20.664062 C 18.448807 20.187635 17.843263 19.670047 17.587891 19.414062 A 1.0001 1.0001 0 0 0 17.585938 19.414062 C 16.92581 18.754042 16.859246 17.942034 17.152344 17.234375 C 17.445441 16.526716 18.066626 16 19 16 z M 19 17 A 1 1 0 0 0 18 18 L 18 18.009766 A 1 1 0 0 0 19 19.009766 A 1 1 0 0 0 20 18.009766 L 20 18 A 1 1 0 0 0 19 17 z " fill="currentColor"/>
</svg>
