<svg xmlns="http://www.w3.org/2000/svg" width="1em" height="1em" viewBox="0 0 24 24" fill="currentColor">
  <path d="M 17 4 A 1 1 0 0 0 16 5 A 1 1 0 0 0 17 6 L 18.5 6 C 18.75 6 18.810226 6.057744 18.876953 6.1328125 C 18.94368 6.2078806 19 6.3472221 19 6.5 C 19 6.6527779 18.94368 6.7921194 18.876953 6.8671875 C 18.810226 6.9422556 18.75 7 18.5 7 L 18 7 A 1.0001 1.0001 0 0 0 18 9 L 18.5 9 C 18.75 9 18.810226 9.057744 18.876953 9.1328125 C 18.94368 9.2078806 19 9.3472221 19 9.5 C 19 9.6527779 18.94368 9.7921194 18.876953 9.8671875 C 18.810226 9.9422556 18.75 10 18.5 10 L 17 10 A 1 1 0 0 0 16 11 A 1 1 0 0 0 17 12 L 18.5 12 C 19.25 12 19.939774 11.682744 20.373047 11.195312 C 20.806319 10.70788 21 10.097222 21 9.5 C 21 8.9715864 20.780472 8.4548454 20.445312 8 C 20.780472 7.5451546 21 7.0284136 21 6.5 C 21 5.9027779 20.806319 5.2921194 20.373047 4.8046875 C 19.939774 4.3172556 19.25 4 18.5 4 L 17 4 z M 4 11 A 1 1 0 0 0 3 12 L 3 18 A 1 1 0 0 0 4 19 A 1 1 0 0 0 5 18 L 5 14 C 5 13.435871 5.4358706 13 6 13 L 6.5 13 C 7.3402718 13 8 13.659728 8 14.5 L 8 15.5 L 8 18 A 1 1 0 0 0 9 19 A 1 1 0 0 0 10 18 L 10 15.5 L 10 14.5 C 10 13.916667 10.182744 13.606441 10.445312 13.373047 C 10.70788 13.139653 11.097222 13 11.5 13 C 11.902778 13 12.292119 13.139653 12.554688 13.373047 C 12.817255 13.606441 13 13.916667 13 14.5 L 13 18 A 1 1 0 0 0 14 19 A 1 1 0 0 0 15 18 L 15 14.5 C 15 13.416667 14.557744 12.476892 13.882812 11.876953 C 13.20788 11.277014 12.347222 11 11.5 11 C 10.652778 11 9.7921194 11.277014 9.1171875 11.876953 C 9.0646643 11.92364 9.0144501 11.972727 8.9648438 12.023438 C 8.330521 11.392372 7.4573078 11 6.5 11 L 6 11 C 5.5393279 11 5.1007789 11.105784 4.7089844 11.294922 A 1 1 0 0 0 4 11 z " fill="currentColor"/>
</svg>
