<svg xmlns="http://www.w3.org/2000/svg" width="1em" height="1em" viewBox="0 0 24 24" fill="currentColor">
  <path d="M 8.9882812 2.0390625 C 8.8250168 2.036364 8.6609735 2.0441534 8.4960938 2.0644531 C 7.9819 2.1277599 7.4732049 2.2962234 7 2.5722656 C 5.2669253 3.5523798 4.6686511 5.5845179 5.3417969 7.3867188 C 3.4402836 7.7112304 2 9.2516814 2 11.21875 C 2 13.423169 3.7717963 15.181641 6.0195312 15.181641 A 1 1 0 0 0 7.0195312 14.181641 A 1 1 0 0 0 6.0195312 13.181641 C 4.6932662 13.181641 4 12.472331 4 11.21875 C 4 9.9651693 4.6939616 9.2539062 6.0214844 9.2539062 C 6.3904844 9.2539062 6.6489472 9.2712373 6.7050781 9.2851562 A 1.0001 1.0001 0 0 0 7.6523438 7.6074219 C 7.6240539 7.579132 7.5148931 7.4049179 7.3105469 7.0625 A 1.0001 1.0001 0 0 0 7.3105469 7.0605469 C 6.6255314 5.9178639 6.8756596 4.9342311 7.9902344 4.3085938 A 1.0001 1.0001 0 0 0 8.0039062 4.3007812 C 9.0647016 3.6803675 10.035567 3.9004924 10.613281 5.0566406 A 1.0001 1.0001 0 0 0 10.648438 5.1230469 C 10.813138 5.3981437 10.919969 5.612375 11.042969 5.859375 A 1.0001 1.0001 0 0 0 12.832031 5.8613281 C 12.956998 5.6124015 13.063814 5.3981437 13.228516 5.1230469 C 13.922298 3.9649935 14.856794 3.7301888 16.001953 4.3691406 C 17.045468 4.9834008 17.312891 6.007841 16.675781 7.1484375 C 16.487907 7.4607611 16.373425 7.6441529 16.347656 7.6699219 A 1.0001 1.0001 0 0 0 17.251953 9.3574219 C 17.458557 9.3158329 17.610469 9.3144531 17.980469 9.3144531 C 19.306734 9.3144531 20 10.024441 20 11.279297 C 20 12.532878 19.290384 13.242188 18.041016 13.242188 C 17.671016 13.242188 17.413267 13.225927 17.351562 13.210938 A 1.0001 1.0001 0 0 0 16.410156 14.892578 C 16.436306 14.918588 16.547471 15.095959 16.751953 15.4375 C 17.434985 16.580509 17.185146 17.564361 16.072266 18.189453 C 14.93313 18.828138 13.929394 18.578605 13.304688 17.460938 A 1 1 0 0 0 11.943359 17.076172 A 1 1 0 0 0 11.558594 18.4375 C 12.659887 20.407832 15.107917 21.022909 17.050781 19.933594 C 18.79288 18.955077 19.393209 16.915076 18.716797 15.107422 C 20.578115 14.779194 22 13.242959 22 11.279297 C 22 9.3070756 20.554022 7.7647025 18.646484 7.4453125 C 19.282426 5.6405454 18.698412 3.6246597 17.003906 2.6347656 A 1.0001 1.0001 0 0 0 16.990234 2.6269531 C 15.257143 1.6541262 13.203007 2.1186229 11.955078 3.6015625 C 11.214645 2.628699 10.131132 2.057952 8.9882812 2.0390625 z M 11.972656 11 A 1 1 0 0 0 11.121094 11.523438 C 9.111278 15.23768 7.682098 17.489109 3.53125 20.158203 A 1 1 0 0 0 3.2324219 21.541016 A 1 1 0 0 0 4.6132812 21.841797 C 9.0344334 18.998891 10.834722 16.25432 12.878906 12.476562 A 1 1 0 0 0 12.476562 11.121094 A 1 1 0 0 0 11.972656 11 z " fill="currentColor"/>
</svg>
