<svg xmlns="http://www.w3.org/2000/svg" width="1em" height="1em" viewBox="0 0 24 24" fill="currentColor">
  <path d="M 4 5 C 2.9072751 5 2 5.9072751 2 7 L 2 17 C 2 18.092725 2.9072751 19 4 19 L 20 19 C 21.092725 19 22 18.092725 22 17 L 22 7 C 22 5.9072751 21.092725 5 20 5 L 4 5 z M 4 7 L 14 7 L 14 17 L 4 17 L 4 7 z M 16 7 L 20 7 L 20 17 L 16 17 L 16 7 z M 18 8 A 1 1 0 0 0 17 9 A 1 1 0 0 0 18 10 L 18.009766 10 A 1 1 0 0 0 19.009766 9 A 1 1 0 0 0 18.009766 8 L 18 8 z M 7.75 9 C 7.0785556 9 6.5093188 9.2917764 5.9453125 9.6679688 A 1 1 0 0 0 5.6679688 11.054688 A 1 1 0 0 0 7.0546875 11.332031 C 7.4906812 11.041223 7.6714444 11 7.75 11 C 7.828556 11 8.0093188 11.04122 8.4453125 11.332031 A 1.0001 1.0001 0 0 0 8.6152344 11.423828 C 8.9588388 11.566962 9.4179222 11.848236 10.078125 11.962891 C 10.738328 12.077545 11.647358 11.831379 12.244141 11.167969 A 1 1 0 0 0 12.167969 9.7558594 A 1 1 0 0 0 10.755859 9.8320312 C 10.51964 10.094618 10.595172 10.022283 10.421875 9.9921875 C 10.25865 9.963841 9.9168377 9.8005425 9.46875 9.6113281 C 8.9325765 9.2628182 8.3874295 9 7.75 9 z M 18 11 A 1 1 0 0 0 17 12 A 1 1 0 0 0 18 13 L 18.009766 13 A 1 1 0 0 0 19.009766 12 A 1 1 0 0 0 18.009766 11 L 18 11 z M 7.75 12 C 7.0785556 12 6.5093188 12.291777 5.9453125 12.667969 A 1 1 0 0 0 5.6679688 14.054688 A 1 1 0 0 0 7.0546875 14.332031 C 7.4906812 14.041223 7.6714444 14 7.75 14 C 7.828556 14 8.0093188 14.04122 8.4453125 14.332031 A 1.0001 1.0001 0 0 0 8.6152344 14.423828 C 8.9588388 14.566962 9.4179222 14.848236 10.078125 14.962891 C 10.738328 15.077545 11.647358 14.831379 12.244141 14.167969 A 1 1 0 0 0 12.167969 12.755859 A 1 1 0 0 0 10.755859 12.832031 C 10.519642 13.094621 10.595172 13.022283 10.421875 12.992188 C 10.258649 12.963837 9.9168435 12.800544 9.46875 12.611328 C 8.9325784 12.262819 8.387425 12 7.75 12 z M 18 14 A 1 1 0 0 0 17 15 A 1 1 0 0 0 18 16 L 18.009766 16 A 1 1 0 0 0 19.009766 15 A 1 1 0 0 0 18.009766 14 L 18 14 z " fill="currentColor"/>
</svg>
