<svg xmlns="http://www.w3.org/2000/svg" width="1em" height="1em" viewBox="0 0 24 24" fill="currentColor">
  <path d="M 3 2 A 1 1 0 0 0 2.2929688 2.2929688 A 1 1 0 0 0 2.2929688 3.7070312 L 3.6230469 5.0371094 C 2.7065095 5.2169145 2 6.0360577 2 7 L 2 17 C 2 18.092725 2.9072751 19 4 19 L 17.585938 19 L 20.292969 21.707031 A 1 1 0 0 0 21.707031 21.707031 A 1 1 0 0 0 21.707031 20.292969 L 18.716797 17.302734 A 1 1 0 0 0 18.697266 17.283203 L 15.716797 14.302734 A 1 1 0 0 0 15.697266 14.283203 L 6.7167969 5.3027344 A 1 1 0 0 0 6.6972656 5.2832031 L 3.7070312 2.2929688 A 1 1 0 0 0 3 2 z M 10 5 A 1 1 0 0 0 9 6 A 1 1 0 0 0 10 7 L 14 7 L 14 11 A 1 1 0 0 0 15 12 A 1 1 0 0 0 16 11 L 16 7 L 20 7 L 20 17 A 1 1 0 0 0 21 18 A 1 1 0 0 0 22 17 L 22 7 C 22 5.9072751 21.092725 5 20 5 L 10 5 z M 4 7 L 5.5859375 7 L 7.5917969 9.0058594 C 6.9882787 9.0474415 6.4643773 9.3217524 5.9453125 9.6679688 A 1 1 0 0 0 5.6679688 11.054688 A 1 1 0 0 0 7.0546875 11.332031 C 7.4906812 11.041223 7.6714444 11 7.75 11 C 7.828556 11 8.0093188 11.04122 8.4453125 11.332031 A 1.0001 1.0001 0 0 0 8.6152344 11.423828 C 8.8775839 11.53314 9.2135875 11.7132 9.6445312 11.853516 C 9.9095841 11.939817 10.233689 12.007802 10.582031 11.996094 L 11.150391 12.564453 A 1 1 0 0 0 10.755859 12.832031 C 10.519642 13.094621 10.595172 13.022283 10.421875 12.992188 C 10.258649 12.963837 9.9168435 12.800544 9.46875 12.611328 C 8.9325784 12.262819 8.387425 12 7.75 12 C 7.0785556 12 6.5093188 12.291777 5.9453125 12.667969 A 1 1 0 0 0 5.6679688 14.054688 A 1 1 0 0 0 7.0546875 14.332031 C 7.4906812 14.041223 7.6714444 14 7.75 14 C 7.828556 14 8.0093188 14.04122 8.4453125 14.332031 A 1.0001 1.0001 0 0 0 8.6152344 14.423828 C 8.9588388 14.566962 9.4179222 14.848236 10.078125 14.962891 C 10.738328 15.077545 11.647358 14.831379 12.244141 14.167969 A 1 1 0 0 0 12.435547 13.849609 L 14 15.414062 L 14 17 L 4 17 L 4 7 z M 18 8 A 1 1 0 0 0 17 9 A 1 1 0 0 0 18 10 L 18.009766 10 A 1 1 0 0 0 19.009766 9 A 1 1 0 0 0 18.009766 8 L 18 8 z M 18 11 A 1 1 0 0 0 17 12 A 1 1 0 0 0 18 13 L 18.009766 13 A 1 1 0 0 0 19.009766 12 A 1 1 0 0 0 18.009766 11 L 18 11 z " fill="currentColor"/>
</svg>
