<svg xmlns="http://www.w3.org/2000/svg" width="1em" height="1em" viewBox="0 0 24 24" fill="currentColor">
  <path d="M 3 2 A 1 1 0 0 0 2.2929688 2.2929688 A 1 1 0 0 0 2.2929688 3.7070312 L 7.5859375 9 L 3 9 A 1 1 0 0 0 2 10 A 1 1 0 0 0 3 11 L 9.5859375 11 L 13.117188 14.53125 A 1 1 0 0 0 13 15 A 1 1 0 0 0 14 16 L 14.585938 16 L 17.585938 19 L 16 19 A 1 1 0 0 0 15 20 A 1 1 0 0 0 16 21 L 19 21 A 1 1 0 0 0 19.46875 20.882812 L 20.292969 21.707031 A 1 1 0 0 0 21.707031 21.707031 A 1 1 0 0 0 21.707031 20.292969 L 15.716797 14.302734 A 1 1 0 0 0 15.697266 14.283203 L 10.716797 9.3027344 A 1 1 0 0 0 10.697266 9.2832031 L 3.7070312 2.2929688 A 1 1 0 0 0 3 2 z M 12 4 A 1 1 0 0 0 11 5 A 1 1 0 0 0 12 6 L 21 6 A 1 1 0 0 0 22 5 A 1 1 0 0 0 21 4 L 12 4 z M 18 9 A 1 1 0 0 0 17 10 A 1 1 0 0 0 18 11 L 19 11 A 1 1 0 0 0 20 10 A 1 1 0 0 0 19 9 L 18 9 z M 5 14 A 1 1 0 0 0 4 15 A 1 1 0 0 0 5 16 L 10 16 A 1 1 0 0 0 11 15 A 1 1 0 0 0 10 14 L 5 14 z M 19 14 A 1 1 0 0 0 18 15 A 1 1 0 0 0 19 16 L 21 16 A 1 1 0 0 0 22 15 A 1 1 0 0 0 21 14 L 19 14 z M 3 19 A 1 1 0 0 0 2 20 A 1 1 0 0 0 3 21 L 12 21 A 1 1 0 0 0 13 20 A 1 1 0 0 0 12 19 L 3 19 z " fill="currentColor"/>
</svg>
