<svg xmlns="http://www.w3.org/2000/svg" width="1em" height="1em" viewBox="0 0 24 24" fill="currentColor">
  <path d="M 5 4 A 1 1 0 0 0 4 5 A 1 1 0 0 0 5 6 L 8 6 A 1 1 0 0 0 9 5 A 1 1 0 0 0 8 4 L 5 4 z M 12 4 A 1 1 0 0 0 11 5 A 1 1 0 0 0 12 6 L 21 6 A 1 1 0 0 0 22 5 A 1 1 0 0 0 21 4 L 12 4 z M 3 9 A 1 1 0 0 0 2 10 A 1 1 0 0 0 3 11 L 14 11 A 1 1 0 0 0 15 10 A 1 1 0 0 0 14 9 L 3 9 z M 18 9 A 1 1 0 0 0 17 10 A 1 1 0 0 0 18 11 L 19 11 A 1 1 0 0 0 20 10 A 1 1 0 0 0 19 9 L 18 9 z M 5 14 A 1 1 0 0 0 4 15 A 1 1 0 0 0 5 16 L 10 16 A 1 1 0 0 0 11 15 A 1 1 0 0 0 10 14 L 5 14 z M 14 14 A 1 1 0 0 0 13 15 A 1 1 0 0 0 14 16 L 21 16 A 1 1 0 0 0 22 15 A 1 1 0 0 0 21 14 L 14 14 z M 3 19 A 1 1 0 0 0 2 20 A 1 1 0 0 0 3 21 L 12 21 A 1 1 0 0 0 13 20 A 1 1 0 0 0 12 19 L 3 19 z M 16 19 A 1 1 0 0 0 15 20 A 1 1 0 0 0 16 21 L 19 21 A 1 1 0 0 0 20 20 A 1 1 0 0 0 19 19 L 16 19 z " fill="currentColor"/>
</svg>
