<svg xmlns="http://www.w3.org/2000/svg" width="1em" height="1em" viewBox="0 0 24 24" fill="currentColor">
  <path d="M 9.5 2 C 8.1311328 2 7 3.1311328 7 4.5 C 7 5.7752943 7.5394315 6.9327263 8.4003906 7.7539062 C 5.2260946 9.1467072 3 12.320284 3 16 L 3 17 C 3 19.749579 5.2504209 22 8 22 L 16 22 C 18.749579 22 21 19.749579 21 17 L 21 16 C 21 12.320284 18.773905 9.1467072 15.599609 7.7539062 C 16.460568 6.9327263 17 5.7752943 17 4.5 C 17 3.1311328 15.868867 2 14.5 2 L 9.5 2 z M 9.5 4 L 14.5 4 C 14.787987 4 15 4.212013 15 4.5 C 15 5.8925565 13.892557 7 12.5 7 L 12 7 L 11.5 7 C 10.107443 7 9 5.8925565 9 4.5 C 9 4.212013 9.212013 4 9.5 4 z M 12 9 C 15.877839 9 19 12.122159 19 16 L 19 17 C 19 18.668699 17.668699 20 16 20 L 8 20 C 6.3313011 20 5 18.668699 5 17 L 5 16 C 5 12.122159 8.1221613 9 12 9 z " fill="currentColor"/>
</svg>
