<svg xmlns="http://www.w3.org/2000/svg" width="1em" height="1em" viewBox="0 0 24 24" fill="currentColor">
  <path d="M 8 2 A 1.0001 1.0001 0 0 0 7.4863281 2.1425781 L 2.4863281 5.1425781 A 1.0001 1.0001 0 0 0 2 6 L 2 21 A 1 1 0 0 0 3 22 A 1 1 0 0 0 4 21 L 4 15 L 7 15 L 7 21 A 1 1 0 0 0 8 22 A 1 1 0 0 0 9 21 L 9 15 L 12 15 L 12 21 A 1 1 0 0 0 13 22 A 1 1 0 0 0 14 21 L 14 14.095703 C 14.620775 14.235279 14.993454 14.520013 15.318359 14.900391 C 15.788613 15.450932 16.113083 16.316944 16.419922 17.298828 C 16.726761 18.280712 17.005612 19.364342 17.660156 20.316406 C 18.3147 21.26847 19.483333 22 21 22 A 1 1 0 0 0 22 21 A 1 1 0 0 0 21 20 C 20.016667 20 19.6853 19.73153 19.308594 19.183594 C 18.931888 18.635658 18.648239 17.719288 18.330078 16.701172 C 18.011917 15.683056 17.648887 14.549068 16.837891 13.599609 C 16.192123 12.84359 15.233349 12.277474 14 12.078125 L 14 6 A 1.0001 1.0001 0 0 0 13.513672 5.1425781 L 8.5136719 2.1425781 A 1.0001 1.0001 0 0 0 8 2 z M 8 4.1660156 L 12 6.5664062 L 12 13 L 4 13 L 4 6.5664062 L 8 4.1660156 z M 8 7 C 7.2777779 7 6.5421194 7.2353472 5.9609375 7.7519531 C 5.3797556 8.268559 5 9.0833335 5 10 A 1 1 0 0 0 6 11 A 1 1 0 0 0 7 10 C 7 9.5833337 7.1202444 9.3981073 7.2890625 9.2480469 C 7.4578806 9.0979864 7.7222221 9 8 9 C 8.2777779 9 8.5421194 9.0979864 8.7109375 9.2480469 C 8.8797556 9.3981073 9 9.5833337 9 10 A 1 1 0 0 0 10 11 A 1 1 0 0 0 11 10 C 11 9.0833335 10.620244 8.268559 10.039062 7.7519531 C 9.4578801 7.2353472 8.7222221 7 8 7 z " fill="currentColor"/>
</svg>
