<svg xmlns="http://www.w3.org/2000/svg" width="1em" height="1em" viewBox="0 0 24 24" fill="currentColor">
  <path d="M 11.912109 1.96875 C 11.518966 1.9734129 11.121572 2.0024056 10.722656 2.0566406 C 9.6588816 2.2012674 8.5787759 2.5265724 7.515625 3.0605469 A 1 1 0 0 0 7.0722656 4.4023438 A 1 1 0 0 0 8.4140625 4.8476562 C 11.907199 3.0932058 15.39354 4.0721009 17.662109 6.3417969 C 19.930679 8.6114928 20.908529 12.097579 19.152344 15.589844 A 1 1 0 0 0 19.595703 16.933594 A 1 1 0 0 0 20.9375 16.490234 C 23.075509 12.238692 21.886669 7.7376738 19.078125 4.9277344 C 17.235018 3.0837116 14.664116 1.9361097 11.912109 1.96875 z M 3 2 A 1 1 0 0 0 2.2929688 2.2929688 A 1 1 0 0 0 2.2929688 3.7070312 L 4.2558594 5.6699219 C 1.0441172 9.5938686 1.2711789 15.416057 4.9316406 19.074219 C 8.5901048 22.730384 14.406267 22.951234 18.328125 19.742188 L 20.292969 21.707031 A 1 1 0 0 0 21.707031 21.707031 A 1 1 0 0 0 21.707031 20.292969 L 19.123047 17.708984 A 1 1 0 0 0 19.072266 17.654297 A 1 1 0 0 0 19.017578 17.603516 L 3.7070312 2.2929688 A 1 1 0 0 0 3 2 z M 5.6796875 7.09375 L 8.1171875 9.53125 A 1 1 0 0 0 8 10 A 1 1 0 0 0 9 11 L 9.0097656 11 A 1 1 0 0 0 9.4726562 10.886719 L 13.285156 14.699219 C 12.316122 15.286558 11.050121 15.153283 10.214844 14.300781 A 1 1 0 0 0 8.8007812 14.285156 A 1 1 0 0 0 8.7851562 15.699219 C 10.384716 17.331762 12.949517 17.477005 14.720703 16.134766 L 16.90625 18.320312 C 13.764332 20.770236 9.2390149 20.549697 6.3457031 17.658203 C 3.4510564 14.765376 3.2282668 10.237418 5.6796875 7.09375 z M 15 9 A 1 1 0 0 0 14 10 A 1 1 0 0 0 15 11 L 15.009766 11 A 1 1 0 0 0 16.009766 10 A 1 1 0 0 0 15.009766 9 L 15 9 z " fill="currentColor"/>
</svg>
