<svg xmlns="http://www.w3.org/2000/svg" width="1em" height="1em" viewBox="0 0 24 24" fill="currentColor">
  <path d="M 12.027344 1.9902344 C 9.5280994 1.9711389 6.9682313 2.8853179 4.921875 4.9355469 C 1.8036178 8.0597052 1.3255285 12.371882 2.7675781 15.839844 C 4.2096277 19.307805 7.6050091 22.008339 12.019531 22 A 1 1 0 0 0 13.017578 20.998047 A 1 1 0 0 0 12.015625 20 C 8.4073623 20.006816 5.7755899 17.867483 4.6132812 15.072266 C 3.4509726 12.277049 3.789228 8.9030952 6.3378906 6.3496094 C 8.8865532 3.7961235 12.261184 3.4504002 15.058594 4.6074219 C 17.856003 5.7644436 19.999994 8.3917308 20 12 A 1 1 0 0 0 21 13 A 1 1 0 0 0 22 12 C 21.999992 7.5854696 19.292947 4.1952559 15.822266 2.7597656 C 14.954595 2.4008931 14.034689 2.1620035 13.09375 2.0546875 C 12.740898 2.014444 12.384379 1.9929623 12.027344 1.9902344 z M 9 9 A 1 1 0 0 0 8 10 A 1 1 0 0 0 9 11 L 9.0097656 11 A 1 1 0 0 0 10.009766 10 A 1 1 0 0 0 9.0097656 9 L 9 9 z M 15 9 A 1 1 0 0 0 14 10 A 1 1 0 0 0 15 11 L 15.009766 11 A 1 1 0 0 0 16.009766 10 A 1 1 0 0 0 15.009766 9 L 15 9 z M 18.001953 13.5 A 1 1 0 0 0 17.001953 14.5 L 17.001953 15.15625 C 16.650707 15.271131 16.316482 15.45099 16.019531 15.701172 L 15.46875 15.384766 A 1 1 0 0 0 14.103516 15.75 A 1 1 0 0 0 14.470703 17.115234 L 15.048828 17.449219 C 15.018359 17.627489 15.001953 17.811393 15.001953 18 C 15.001953 18.188607 15.018359 18.372511 15.048828 18.550781 L 14.470703 18.884766 A 1 1 0 0 0 14.103516 20.25 A 1 1 0 0 0 15.46875 20.615234 L 16.019531 20.298828 C 16.316482 20.54901 16.650707 20.728869 17.001953 20.84375 L 17.001953 21.5 A 1 1 0 0 0 18.001953 22.5 A 1 1 0 0 0 19.001953 21.5 L 19.001953 20.841797 C 19.352392 20.726904 19.68578 20.548801 19.982422 20.298828 L 20.533203 20.615234 A 1 1 0 0 0 21.898438 20.25 A 1 1 0 0 0 21.533203 18.884766 L 20.955078 18.550781 C 20.985716 18.372405 21.001953 18.188728 21.001953 18 C 21.001953 17.811071 20.98578 17.625819 20.955078 17.447266 L 21.53125 17.115234 A 1 1 0 0 0 21.898438 15.75 A 1 1 0 0 0 21.291016 15.283203 A 1 1 0 0 0 20.53125 15.384766 L 19.982422 15.701172 C 19.685894 15.451401 19.352211 15.273037 19.001953 15.158203 L 19.001953 14.5 A 1 1 0 0 0 18.001953 13.5 z M 9.4863281 14 A 1 1 0 0 0 8.7832031 14.302734 A 1 1 0 0 0 8.8027344 15.716797 C 9.6538069 16.544588 10.804681 17 12 17 A 1 1 0 0 0 13 16 A 1 1 0 0 0 12 15 C 11.315319 15 10.662193 14.735412 10.197266 14.283203 A 1 1 0 0 0 9.4863281 14 z M 18.001953 17 C 18.279731 17 18.542119 17.09799 18.710938 17.248047 C 18.737354 17.271528 18.763265 17.29631 18.787109 17.322266 A 1 1 0 0 0 18.867188 17.5 A 1 1 0 0 0 18.958984 17.630859 C 18.986979 17.729861 19.001953 17.850435 19.001953 18 C 19.001953 18.149138 18.98683 18.268351 18.958984 18.367188 A 1 1 0 0 0 18.867188 18.5 A 1 1 0 0 0 18.787109 18.677734 C 18.763265 18.70369 18.737354 18.728472 18.710938 18.751953 C 18.542119 18.902014 18.279731 19 18.001953 19 C 17.724175 19 17.459834 18.902014 17.291016 18.751953 C 17.265546 18.729314 17.241762 18.706555 17.21875 18.681641 A 1 1 0 0 0 17.136719 18.5 A 1 1 0 0 0 17.044922 18.367188 C 17.017501 18.268466 17.001953 18.14884 17.001953 18 C 17.001953 17.85116 17.017501 17.731534 17.044922 17.632812 A 1 1 0 0 0 17.136719 17.5 A 1 1 0 0 0 17.21875 17.318359 C 17.241762 17.293445 17.265546 17.270686 17.291016 17.248047 C 17.459834 17.097986 17.724175 17 18.001953 17 z " fill="currentColor"/>
</svg>
