<svg xmlns="http://www.w3.org/2000/svg" width="1em" height="1em" viewBox="0 0 24 24" fill="currentColor">
  <path d="M 12.246094 1.9921875 C 9.689932 1.9155717 7.0484348 2.8144354 4.9355469 4.9238281 C 1.715908 8.1381409 1.3041102 12.583347 2.875 16.089844 C 4.4458898 19.596341 8.0355861 22.245842 12.578125 21.982422 A 1 1 0 0 0 13.519531 20.927734 A 1 1 0 0 0 12.462891 19.986328 C 8.7428806 20.20205 5.9663789 18.100004 4.6992188 15.271484 C 3.4320587 12.442965 3.7111298 8.9720088 6.3476562 6.3398438 C 8.9841827 3.7076788 12.456785 3.4332368 15.283203 4.7050781 C 18.109621 5.9769194 20.208208 8.7569146 19.986328 12.476562 A 1 1 0 0 0 20.923828 13.535156 A 1 1 0 0 0 21.982422 12.595703 C 22.253362 8.0536067 19.607407 4.4575525 16.103516 2.8808594 C 15.227543 2.4866861 14.293778 2.2175287 13.333984 2.0839844 C 12.974062 2.0339052 12.61126 2.0031326 12.246094 1.9921875 z M 9 9 A 1 1 0 0 0 8 10 A 1 1 0 0 0 9 11 L 9.0097656 11 A 1 1 0 0 0 10.009766 10 A 1 1 0 0 0 9.0097656 9 L 9 9 z M 15 9 A 1 1 0 0 0 14 10 A 1 1 0 0 0 15 11 L 15.009766 11 A 1 1 0 0 0 16.009766 10 A 1 1 0 0 0 15.009766 9 L 15 9 z M 9.4863281 14 A 1 1 0 0 0 8.7832031 14.302734 A 1 1 0 0 0 8.8027344 15.716797 C 9.6538069 16.544588 10.804681 17 12 17 C 13.195319 17 14.346193 16.544588 15.197266 15.716797 A 1 1 0 0 0 15.216797 14.302734 A 1 1 0 0 0 13.802734 14.283203 C 13.337808 14.735411 12.684681 15 12 15 C 11.315319 15 10.662193 14.735412 10.197266 14.283203 A 1 1 0 0 0 9.4863281 14 z M 19 15 A 1.0001 1.0001 0 0 0 18.794922 15.023438 A 1 1 0 0 0 18.611328 15.078125 A 1.0001 1.0001 0 0 0 18.5 15.134766 A 1 1 0 0 0 18.439453 15.175781 A 1.0001 1.0001 0 0 0 18.384766 15.212891 A 1 1 0 0 0 18.341797 15.25 A 1.0001 1.0001 0 0 0 18.292969 15.292969 A 1 1 0 0 0 18.283203 15.302734 L 15.292969 18.292969 A 1 1 0 0 0 15.292969 19.707031 A 1 1 0 0 0 16.707031 19.707031 L 18 18.414062 L 18 22 A 1 1 0 0 0 19 23 A 1 1 0 0 0 20 22 L 20 18.414062 L 21.292969 19.707031 A 1 1 0 0 0 22.707031 19.707031 A 1 1 0 0 0 22.707031 18.292969 L 19.716797 15.302734 A 1 1 0 0 0 19.658203 15.25 A 1.0001 1.0001 0 0 0 19.615234 15.212891 A 1 1 0 0 0 19.560547 15.175781 A 1.0001 1.0001 0 0 0 19.382812 15.076172 A 1 1 0 0 0 19.257812 15.035156 A 1.0001 1.0001 0 0 0 19 15 z " fill="currentColor"/>
</svg>
