<svg xmlns="http://www.w3.org/2000/svg" width="1em" height="1em" viewBox="0 0 24 24" fill="currentColor">
  <path d="M 12.236328 1.9921875 C 9.67973 1.9182969 7.0384719 2.8194044 4.9277344 4.9316406 C 1.7113724 8.1502864 1.3050775 12.596744 2.8808594 16.101562 C 4.4566413 19.606382 8.0508653 22.252692 12.59375 21.982422 A 1 1 0 0 0 13.533203 20.923828 A 1 1 0 0 0 12.476562 19.986328 C 8.7562293 20.207662 5.9761901 18.108429 4.7050781 15.28125 C 3.4339661 12.454071 3.7079258 8.9814444 6.3417969 6.3457031 C 8.975668 3.7099618 12.449264 3.4320669 15.277344 4.7011719 C 18.105424 5.9702768 20.205021 8.7482611 19.986328 12.46875 A 1 1 0 0 0 20.925781 13.525391 A 1 1 0 0 0 21.982422 12.585938 C 22.249467 8.0428616 19.601639 4.4502469 16.095703 2.8769531 C 15.219219 2.4836297 14.284272 2.2145769 13.324219 2.0820312 C 12.964199 2.0323266 12.601556 2.0027433 12.236328 1.9921875 z M 9 9 A 1 1 0 0 0 8 10 A 1 1 0 0 0 9 11 L 9.0097656 11 A 1 1 0 0 0 10.009766 10 A 1 1 0 0 0 9.0097656 9 L 9 9 z M 15 9 A 1 1 0 0 0 14 10 A 1 1 0 0 0 15 11 L 15.009766 11 A 1 1 0 0 0 16.009766 10 A 1 1 0 0 0 15.009766 9 L 15 9 z M 9.4863281 14 A 1 1 0 0 0 8.7832031 14.302734 A 1 1 0 0 0 8.8027344 15.716797 C 9.6538069 16.544588 10.804681 17 12 17 C 13.195319 17 14.346193 16.544588 15.197266 15.716797 A 1 1 0 0 0 15.216797 14.302734 A 1 1 0 0 0 13.802734 14.283203 C 13.337808 14.735411 12.684681 15 12 15 C 11.315319 15 10.662193 14.735412 10.197266 14.283203 A 1 1 0 0 0 9.4863281 14 z M 19 15 A 1 1 0 0 0 18 16 L 18 18 L 16 18 A 1 1 0 0 0 15 19 A 1 1 0 0 0 16 20 L 18 20 L 18 22 A 1 1 0 0 0 19 23 A 1 1 0 0 0 20 22 L 20 20 L 22 20 A 1 1 0 0 0 23 19 A 1 1 0 0 0 22 18 L 20 18 L 20 16 A 1 1 0 0 0 19 15 z " fill="currentColor"/>
</svg>
