<svg xmlns="http://www.w3.org/2000/svg" width="1em" height="1em" viewBox="0 0 24 24" fill="currentColor">
  <path d="M 12 2 C 6.4889941 2 2 6.4889982 2 12 C 2 17.511002 6.4889941 22 12 22 C 17.511006 22 22 17.511002 22 12 C 22 6.4889982 17.511006 2 12 2 z M 12 4 C 16.430126 4 20 7.5698765 20 12 C 20 16.430123 16.430126 20 12 20 C 7.5698737 20 4 16.430123 4 12 C 4 7.5698765 7.5698737 4 12 4 z M 8.5 8.25 C 7.6083333 8.25 6.5939827 8.5757065 6.1054688 9.5527344 A 1 1 0 0 0 6.5527344 10.894531 A 1 1 0 0 0 7.8945312 10.447266 L 7.8945312 10.445312 L 7.8964844 10.445312 C 7.9210879 10.414203 8.1528646 10.25 8.5 10.25 C 8.8471354 10.25 9.0808652 10.414203 9.1054688 10.445312 L 9.1054688 10.447266 A 1 1 0 0 0 10.447266 10.894531 A 1 1 0 0 0 10.894531 9.5527344 C 10.406017 8.5757065 9.3916667 8.25 8.5 8.25 z M 15.5 8.25 C 14.608333 8.25 13.593983 8.5757065 13.105469 9.5527344 A 1 1 0 0 0 13.552734 10.894531 A 1 1 0 0 0 14.894531 10.447266 L 14.894531 10.445312 L 14.896484 10.445312 C 14.921088 10.414203 15.152865 10.25 15.5 10.25 C 15.847135 10.25 16.080865 10.414203 16.105469 10.445312 L 16.105469 10.447266 A 1 1 0 0 0 17.447266 10.894531 A 1 1 0 0 0 17.894531 9.5527344 C 17.406017 8.5757065 16.391667 8.25 15.5 8.25 z M 9.5097656 14 A 1 1 0 0 0 8.8007812 14.285156 A 1 1 0 0 0 8.7851562 15.699219 C 10.540815 17.49108 13.459185 17.49108 15.214844 15.699219 A 1 1 0 0 0 15.199219 14.285156 A 1 1 0 0 0 13.785156 14.300781 C 12.796053 15.31028 11.203947 15.31028 10.214844 14.300781 A 1 1 0 0 0 9.5097656 14 z " fill="currentColor"/>
</svg>
