<svg xmlns="http://www.w3.org/2000/svg" width="1em" height="1em" viewBox="0 0 24 24" fill="currentColor">
  <path d="M 12.035156 1.9902344 C 9.5370737 1.9699035 6.9769638 2.8824112 4.9296875 4.9296875 C 1.8100283 8.0493467 1.3251245 12.357475 2.7617188 15.826172 C 4.1983128 19.294868 7.5876644 22 12 22 A 1 1 0 0 0 13 21 A 1 1 0 0 0 12 20 C 8.3936343 20 5.7672721 17.858275 4.609375 15.0625 C 3.4514779 12.266725 3.7940184 8.8934816 6.34375 6.34375 C 8.8934816 3.7940184 12.266725 3.4514779 15.0625 4.609375 C 17.858275 5.7672721 20 8.3936343 20 12 A 1 1 0 0 0 21 13 A 1 1 0 0 0 22 12 C 22 7.5876644 19.294868 4.1983128 15.826172 2.7617188 C 14.958998 2.4025701 14.04013 2.1625007 13.099609 2.0546875 C 12.746914 2.0142576 12.392025 1.9931388 12.035156 1.9902344 z M 9 9 A 1 1 0 0 0 8 10 A 1 1 0 0 0 9 11 L 9.0097656 11 A 1 1 0 0 0 10.009766 10 A 1 1 0 0 0 9.0097656 9 L 9 9 z M 15 9 A 1 1 0 0 0 14 10 A 1 1 0 0 0 15 11 L 15.009766 11 A 1 1 0 0 0 16.009766 10 A 1 1 0 0 0 15.009766 9 L 15 9 z M 9.5097656 14 A 1 1 0 0 0 8.8007812 14.285156 A 1 1 0 0 0 8.7851562 15.699219 C 9.6489694 16.581411 10.827376 17 12 17 A 1 1 0 0 0 13 16 A 1 1 0 0 0 12 15 C 11.292624 15 10.66703 14.762589 10.214844 14.300781 A 1 1 0 0 0 9.5097656 14 z M 18 14 C 17.027778 14 16.042119 14.318681 15.273438 15.001953 C 14.504755 15.685226 14 16.75 14 18 C 14 19.25 14.504756 20.314774 15.273438 20.998047 C 16.042119 21.681319 17.027778 22 18 22 C 18.709147 22 19.424566 21.829573 20.058594 21.472656 L 21.292969 22.707031 A 1 1 0 0 0 22.707031 22.707031 A 1 1 0 0 0 22.707031 21.292969 L 21.476562 20.0625 C 21.806482 19.477109 22 18.77405 22 18 C 22 16.75 21.495244 15.685226 20.726562 15.001953 C 19.957881 14.318681 18.972222 14 18 14 z M 18 16 C 18.527778 16 19.042119 16.18132 19.398438 16.498047 C 19.754756 16.814774 20 17.250001 20 18 C 20 18.749999 19.754756 19.185226 19.398438 19.501953 C 19.042119 19.81868 18.527778 20 18 20 C 17.472222 20 16.957881 19.81868 16.601562 19.501953 C 16.245244 19.185226 16 18.749999 16 18 C 16 17.250001 16.245244 16.814774 16.601562 16.498047 C 16.957881 16.18132 17.472222 16 18 16 z " fill="currentColor"/>
</svg>
