<svg xmlns="http://www.w3.org/2000/svg" width="1em" height="1em" viewBox="0 0 24 24" fill="currentColor">
  <path d="M 13 5 A 1 1 0 0 0 12 6 A 1 1 0 0 0 13 7 L 14.382812 7 L 15.382812 9 L 11.5 9 L 6 9 A 1 1 0 0 0 5 10 A 1 1 0 0 0 6 11 L 9.0859375 11 L 7.3671875 12.71875 C 6.6628591 12.230001 5.8264384 12 5 12 C 4.0277779 12 3.0421194 12.318681 2.2734375 13.001953 C 1.5047556 13.685226 1 14.75 1 16 C 1 17.25 1.5047556 18.314774 2.2734375 18.998047 C 3.0421194 19.681319 4.0277779 20 5 20 C 5.9722221 20 6.9578806 19.681319 7.7265625 18.998047 C 8.4952444 18.314774 9 17.25 9 16 C 9 15.650783 8.9602593 15.316023 8.8867188 15 L 12.5 15 A 1.0001 1.0001 0 0 0 13.207031 14.707031 L 16.558594 11.355469 L 17.101562 12.441406 C 16.807071 12.589535 16.528553 12.775184 16.273438 13.001953 C 15.504756 13.685226 15 14.75 15 16 C 15 17.25 15.504756 18.314774 16.273438 18.998047 C 17.042119 19.681319 18.027778 20 19 20 C 19.972222 20 20.957881 19.681319 21.726562 18.998047 C 22.495244 18.314774 23 17.25 23 16 C 23 14.75 22.495244 13.685226 21.726562 13.001953 C 20.98922 12.346537 20.05241 12.026951 19.119141 12.001953 L 17.394531 8.5527344 L 15.894531 5.5527344 A 1.0001 1.0001 0 0 0 15 5 L 13 5 z M 11.914062 11 L 14.085938 11 L 12.085938 13 L 9.9140625 13 L 11.914062 11 z M 5 14 C 5.5277779 14 6.0421194 14.18132 6.3984375 14.498047 C 6.7547556 14.814774 7 15.250001 7 16 C 7 16.749999 6.7547556 17.185226 6.3984375 17.501953 C 6.0421194 17.81868 5.5277779 18 5 18 C 4.4722221 18 3.9578806 17.81868 3.6015625 17.501953 C 3.2452444 17.185226 3 16.749999 3 16 C 3 15.250001 3.2452444 14.814774 3.6015625 14.498047 C 3.9578806 14.18132 4.4722221 14 5 14 z M 19 14 C 19.527778 14 20.042119 14.18132 20.398438 14.498047 C 20.754756 14.814774 21 15.250001 21 16 C 21 16.749999 20.754756 17.185226 20.398438 17.501953 C 20.042119 17.81868 19.527778 18 19 18 C 18.472222 18 17.957881 17.81868 17.601562 17.501953 C 17.245244 17.185226 17 16.749999 17 16 C 17 15.250001 17.245244 14.814774 17.601562 14.498047 C 17.957881 14.18132 18.472222 14 19 14 z " fill="currentColor"/>
</svg>
