<svg xmlns="http://www.w3.org/2000/svg" width="1em" height="1em" viewBox="0 0 24 24" fill="currentColor">
  <path d="M 8.9921875 8 C 8.9723414 8.0032878 8.9542683 8.0172176 8.9335938 8.0175781 A 1 1 0 0 0 8.9160156 8.0039062 A 1 1 0 0 0 8.8964844 8.0273438 C 7.5401915 8.0644326 6.28676 8.7660639 5.5820312 9.9257812 C 4.8499694 10.971696 4.118676 11.056641 3.2753906 11.056641 L 3.0117188 11.056641 L 2.2714844 11.013672 A 1.0001 1.0001 0 0 0 2.2148438 11.011719 L 2.0019531 11.011719 A 1.0001 1.0001 0 0 0 1.1074219 12.458984 C 2.2810101 14.806161 4.958748 15.932696 8.5800781 16.011719 A 1.0001 1.0001 0 0 0 8.6015625 16.011719 L 9.0019531 16.011719 L 9.1660156 16.011719 A 1.0001 1.0001 0 0 0 9.1933594 16.011719 C 10.349058 15.979981 11.334633 15.521473 12 14.830078 C 12.665367 15.521473 13.650942 15.979937 14.806641 16.011719 A 1.0001 1.0001 0 0 0 14.833984 16.011719 L 14.998047 16.011719 L 15.398438 16.011719 A 1.0001 1.0001 0 0 0 15.419922 16.011719 C 19.041252 15.932699 21.71899 14.806161 22.892578 12.458984 A 1.0001 1.0001 0 0 0 21.998047 11.011719 L 21.785156 11.011719 A 1.0001 1.0001 0 0 0 21.728516 11.013672 L 20.988281 11.056641 L 20.724609 11.056641 C 19.889005 11.056641 19.16289 10.97419 18.4375 9.9550781 C 17.736232 8.7777888 16.471244 8.0647446 15.103516 8.0273438 A 1 1 0 0 0 15.083984 8.0039062 A 1 1 0 0 0 15.066406 8.0175781 C 15.042778 8.0171654 15.023688 7.9999927 15 8 A 1 1 0 0 0 14.980469 8.0195312 C 13.75566 7.9993102 12.694872 8.4612655 12 9.1972656 C 11.305128 8.4612656 10.24434 7.9993101 9.0195312 8.0195312 A 1 1 0 0 0 9 8 C 8.997039 7.9999991 8.9950227 7.9995303 8.9921875 8 z M 9.4023438 8.3964844 L 9.53125 8.5117188 A 1 1 0 0 0 9.4804688 8.4804688 A 1 1 0 0 0 9.4023438 8.3964844 z M 14.597656 8.3964844 A 1 1 0 0 0 14.519531 8.4804688 A 1 1 0 0 0 14.46875 8.5117188 L 14.597656 8.3964844 z M 9.0117188 9.9960938 A 1.0001 1.0001 0 0 0 9.0292969 10.011719 C 9.7793908 9.9910907 10.222231 10.224582 10.548828 10.572266 C 10.737299 10.772905 10.881497 11.027827 10.972656 11.308594 C 10.940165 11.505567 10.921475 11.703818 10.916016 11.902344 C 10.9084 12.179306 10.927297 12.45715 10.972656 12.732422 C 10.894456 12.970234 10.77654 13.188915 10.625 13.369141 C 10.318005 13.734249 9.8887658 13.991091 9.1386719 14.011719 L 9.0019531 14.011719 L 8.6230469 14.011719 C 6.5619214 13.966742 5.2813702 13.50083 4.3066406 12.855469 C 5.3004489 12.670486 6.3828797 12.271238 7.2207031 11.074219 A 1.0001 1.0001 0 0 0 7.2675781 11 C 7.6257565 10.379617 8.2836433 9.9997794 9 10 A 1 1 0 0 0 9.0117188 9.9960938 z M 14.988281 9.9960938 A 1 1 0 0 0 15 10 C 15.716357 9.9997794 16.374244 10.379617 16.732422 11 A 1.0001 1.0001 0 0 0 16.779297 11.074219 C 17.61712 12.271238 18.699551 12.670486 19.693359 12.855469 C 18.71863 13.50083 17.438079 13.966742 15.376953 14.011719 L 14.998047 14.011719 L 14.861328 14.011719 C 14.111234 13.991089 13.681995 13.734249 13.375 13.369141 C 13.223463 13.188918 13.105544 12.970229 13.027344 12.732422 C 13.072705 12.457145 13.091601 12.179311 13.083984 11.902344 C 13.078525 11.703815 13.059836 11.50557 13.027344 11.308594 C 13.118502 11.027831 13.262703 10.772903 13.451172 10.572266 C 13.777769 10.224582 14.220609 9.991091 14.970703 10.011719 A 1.0001 1.0001 0 0 0 14.988281 9.9960938 z " fill="currentColor"/>
</svg>
