<svg xmlns="http://www.w3.org/2000/svg" width="1em" height="1em" viewBox="0 0 24 24" fill="currentColor">
  <path d="M 9 7 A 1.0001 1.0001 0 0 0 8.2929688 7.2929688 L 6.2929688 9.2929688 A 1 1 0 0 0 6.2929688 10.707031 A 1 1 0 0 0 7.7070312 10.707031 L 8 10.414062 L 8 16 A 1 1 0 0 0 9 17 A 1 1 0 0 0 10 16 L 10 8 A 1.0001 1.0001 0 0 0 9.3828125 7.0761719 A 1.0001 1.0001 0 0 0 9 7 z M 13 11 A 1 1 0 0 0 12.292969 11.292969 A 1 1 0 0 0 12.292969 12.707031 L 13.585938 14 L 12.292969 15.292969 A 1 1 0 0 0 12.292969 16.707031 A 1 1 0 0 0 13.707031 16.707031 L 15 15.414062 L 16.292969 16.707031 A 1 1 0 0 0 17.707031 16.707031 A 1 1 0 0 0 17.707031 15.292969 L 16.414062 14 L 17.707031 12.707031 A 1 1 0 0 0 17.707031 11.292969 A 1 1 0 0 0 16.292969 11.292969 L 15 12.585938 L 13.707031 11.292969 A 1 1 0 0 0 13 11 z " fill="currentColor"/>
</svg>
