<svg xmlns="http://www.w3.org/2000/svg" width="1em" height="1em" viewBox="0 0 24 24" fill="currentColor">
  <path d="M 8 7 C 7.2777779 7 6.5421194 7.2353472 5.9609375 7.7519531 C 5.3797556 8.268559 5 9.0833335 5 10 A 1 1 0 0 0 6 11 A 1 1 0 0 0 7 10 C 7 9.5833337 7.1202444 9.3981073 7.2890625 9.2480469 C 7.4578806 9.0979864 7.7222221 9 8 9 C 8.2777779 9 8.5421194 9.0979864 8.7109375 9.2480469 C 8.8797556 9.3981073 9 9.5833337 9 10 C 9 10.120461 8.720292 10.798939 8.3789062 11.261719 L 8.3789062 11.263672 L 5.2070312 15.392578 A 1.0001 1.0001 0 0 0 6 17.001953 L 10 17.001953 A 1 1 0 0 0 11 16.001953 A 1 1 0 0 0 10 15.001953 L 8.0292969 15.001953 L 9.9765625 12.466797 A 1.0001 1.0001 0 0 0 9.9882812 12.453125 C 10.444311 11.83594 11 11.061389 11 10 C 11 9.0833335 10.620244 8.268559 10.039062 7.7519531 C 9.4578801 7.2353472 8.7222221 7 8 7 z M 14 11 A 1 1 0 0 0 13.292969 11.292969 A 1 1 0 0 0 13.292969 12.707031 L 14.585938 14 L 13.292969 15.292969 A 1 1 0 0 0 13.292969 16.707031 A 1 1 0 0 0 14.707031 16.707031 L 16 15.414062 L 17.292969 16.707031 A 1 1 0 0 0 18.707031 16.707031 A 1 1 0 0 0 18.707031 15.292969 L 17.414062 14 L 18.707031 12.707031 A 1 1 0 0 0 18.707031 11.292969 A 1 1 0 0 0 17.292969 11.292969 L 16 12.585938 L 14.707031 11.292969 A 1 1 0 0 0 14 11 z " fill="currentColor"/>
</svg>
