<svg xmlns="http://www.w3.org/2000/svg" width="1em" height="1em" viewBox="0 0 24 24" fill="currentColor">
  <path d="M 12 2 C 7.0348444 2 3 6.0918592 3 11.099609 C 3 12.137106 3.8628942 13 4.9003906 13 L 9 13 L 9 19 C 9 19.916666 9.3797556 20.731441 9.9609375 21.248047 C 10.542119 21.764653 11.277778 22 12 22 C 12.722222 22 13.45788 21.764653 14.039062 21.248047 C 14.620243 20.731441 15 19.916666 15 19 L 15 13 L 19.099609 13 C 20.137106 13 21 12.137106 21 11.099609 C 21 6.0918592 16.965156 2 12 2 z M 12 4 C 15.836077 4 18.924953 7.1092263 18.980469 11 L 14 11 L 10 11 L 5.0195312 11 C 5.0750468 7.1092263 8.163923 4 12 4 z M 11 13 L 13 13 L 13 19 C 13 19.416666 12.879756 19.601893 12.710938 19.751953 C 12.542118 19.902014 12.277778 20 12 20 C 11.722222 20 11.45788 19.902014 11.289062 19.751953 C 11.120243 19.601893 11 19.416666 11 19 L 11 13 z " fill="currentColor"/>
</svg>
