<svg xmlns="http://www.w3.org/2000/svg" width="1em" height="1em" viewBox="0 0 24 24" fill="currentColor">
  <path d="M 3 2 A 1 1 0 0 0 2.2929688 2.2929688 A 1 1 0 0 0 2.2929688 3.7070312 L 8 9.4140625 L 8 13.494141 C 7.3808367 13.159629 6.6870632 13 6 13 C 5.0277779 13 4.0421194 13.318681 3.2734375 14.001953 C 2.5047556 14.685226 2 15.75 2 17 C 2 18.25 2.5047556 19.314774 3.2734375 19.998047 C 4.0421194 20.681319 5.0277779 21 6 21 C 6.9722221 21 7.9578806 20.681319 8.7265625 19.998047 C 9.4952444 19.314774 10 18.25 10 17 L 10 11.414062 L 12.972656 14.386719 C 11.660556 15.921426 11.663098 18.324359 13.179688 19.833984 C 14.691657 21.339012 17.084125 21.33466 18.613281 20.027344 L 20.292969 21.707031 A 1 1 0 0 0 21.707031 21.707031 A 1 1 0 0 0 21.707031 20.292969 L 9.7167969 8.3027344 A 1 1 0 0 0 9.6972656 8.2832031 L 3.7070312 2.2929688 A 1 1 0 0 0 3 2 z M 9 3 A 1.0001 1.0001 0 0 0 8 4 L 8 5 A 1 1 0 0 0 9 6 A 1 1 0 0 0 10 5 L 18 5 L 18 7 L 12 7 A 1 1 0 0 0 11 8 A 1 1 0 0 0 12 9 L 18 9 L 18 15 A 1 1 0 0 0 19 16 A 1 1 0 0 0 20 15 L 20 4 A 1.0001 1.0001 0 0 0 19 3 L 9 3 z M 6 15 C 6.5277779 15 7.0421194 15.18132 7.3984375 15.498047 C 7.7547556 15.814774 8 16.250001 8 17 C 8 17.749999 7.7547556 18.185226 7.3984375 18.501953 C 7.0421194 18.81868 6.5277779 19 6 19 C 5.4722221 19 4.9578806 18.81868 4.6015625 18.501953 C 4.2452444 18.185226 4 17.749999 4 17 C 4 16.250001 4.2452444 15.814774 4.6015625 15.498047 C 4.9578806 15.18132 5.4722221 15 6 15 z M 14.388672 15.802734 L 17.195312 18.609375 C 16.430805 19.190609 15.331615 19.154382 14.589844 18.416016 C 13.845854 17.675442 13.805348 16.570271 14.388672 15.802734 z " fill="currentColor"/>
</svg>
