<svg xmlns="http://www.w3.org/2000/svg" width="1em" height="1em" viewBox="0 0 24 24" fill="currentColor">
  <path d="M 9 3 A 1.0001 1.0001 0 0 0 8 4 L 8 13.494141 C 7.3808367 13.159629 6.6870632 13 6 13 C 5.0277779 13 4.0421194 13.318681 3.2734375 14.001953 C 2.5047556 14.685226 2 15.75 2 17 C 2 18.25 2.5047556 19.314774 3.2734375 19.998047 C 4.0421194 20.681319 5.0277779 21 6 21 C 6.9722221 21 7.9578806 20.681319 8.7265625 19.998047 C 9.4952444 19.314774 10 18.25 10 17 L 10 9 L 18 9 L 18 12 A 1 1 0 0 0 19 13 A 1 1 0 0 0 20 12 L 20 4 A 1.0001 1.0001 0 0 0 19 3 L 9 3 z M 10 5 L 18 5 L 18 7 L 10 7 L 10 5 z M 6 15 C 6.5277779 15 7.0421194 15.18132 7.3984375 15.498047 C 7.7547556 15.814774 8 16.250001 8 17 C 8 17.749999 7.7547556 18.185226 7.3984375 18.501953 C 7.0421194 18.81868 6.5277779 19 6 19 C 5.4722221 19 4.9578806 18.81868 4.6015625 18.501953 C 4.2452444 18.185226 4 17.749999 4 17 C 4 16.250001 4.2452444 15.814774 4.6015625 15.498047 C 4.9578806 15.18132 5.4722221 15 6 15 z M 19 15 C 18.027778 15 17.042119 15.318681 16.273438 16.001953 C 15.504756 16.685226 15 17.75 15 19 C 15 20.25 15.504756 21.314774 16.273438 21.998047 C 17.042119 22.681319 18.027778 23 19 23 C 19.972222 23 20.957881 22.681319 21.726562 21.998047 C 22.495244 21.314774 23 20.25 23 19 C 23 17.75 22.495244 16.685226 21.726562 16.001953 C 20.957881 15.318681 19.972222 15 19 15 z M 19 17 C 19.178556 17 19.355509 17.020818 19.525391 17.060547 L 17.048828 19.537109 C 17.016537 19.378241 17 19.199858 17 19 C 17 18.250001 17.245244 17.814774 17.601562 17.498047 C 17.957881 17.18132 18.472222 17 19 17 z M 20.951172 18.462891 C 20.983463 18.621759 21 18.800142 21 19 C 21 19.749999 20.754756 20.185226 20.398438 20.501953 C 20.042119 20.81868 19.527778 21 19 21 C 18.821444 21 18.644491 20.979182 18.474609 20.939453 L 20.951172 18.462891 z " fill="currentColor"/>
</svg>
