<svg xmlns="http://www.w3.org/2000/svg" width="1em" height="1em" viewBox="0 0 24 24" fill="currentColor">
  <path d="M 12 2 A 1.0001 1.0001 0 0 0 11.091797 2.5820312 L 3.1210938 19.855469 A 1.0001 1.0001 0 0 0 3.0859375 19.945312 C 2.8874898 20.512307 3.0389705 21.139809 3.4667969 21.558594 C 3.8989439 21.982663 4.5420867 22.114325 5.1015625 21.894531 L 12 19.556641 L 12.951172 19.878906 A 1 1 0 0 0 14.21875 19.251953 A 1 1 0 0 0 13.59375 17.984375 L 12.320312 17.552734 A 1.0001 1.0001 0 0 0 11.679688 17.552734 L 5.4042969 19.679688 L 12 5.3867188 L 15.521484 13.021484 A 1 1 0 0 0 16.849609 13.511719 A 1 1 0 0 0 17.337891 12.183594 L 12.908203 2.5820312 A 1.0001 1.0001 0 0 0 12 2 z M 16 15 A 1 1 0 0 0 15 16 L 15 16.009766 A 1 1 0 0 0 16 17.009766 A 1 1 0 0 0 17 16.009766 L 17 16 A 1 1 0 0 0 16 15 z M 21 15 A 1 1 0 0 0 20.292969 15.292969 L 15.292969 20.292969 A 1 1 0 0 0 15.292969 21.707031 A 1 1 0 0 0 16.707031 21.707031 L 21.707031 16.707031 A 1 1 0 0 0 21.707031 15.292969 A 1 1 0 0 0 21 15 z M 21 20 A 1 1 0 0 0 20 21 L 20 21.009766 A 1 1 0 0 0 21 22.009766 A 1 1 0 0 0 22 21.009766 L 22 21 A 1 1 0 0 0 21 20 z " fill="currentColor"/>
</svg>
