<svg xmlns="http://www.w3.org/2000/svg" width="1em" height="1em" viewBox="0 0 24 24" fill="currentColor">
  <path d="M 11 2 C 9.9072751 2 9 2.9072751 9 4 L 9 5 C 9 6.0927249 9.9072751 7 11 7 L 13 7 L 13 8 L 10.75 8 A 1 1 0 0 0 10 7.25 A 1 1 0 0 0 9 8.25 C 9 9.2050628 9.7949372 10 10.75 10 L 13 10 C 14.092725 10 15 9.0927249 15 8 L 15 7 C 15 5.9072751 14.092725 5 13 5 L 11 5 L 11 4 L 13.25 4 A 1 1 0 0 0 14 4.75 A 1 1 0 0 0 15 3.75 C 15 2.7953463 14.204654 2 13.25 2 L 11 2 z M 12 12 A 1.0001 1.0001 0 0 0 11.105469 12.552734 L 7.1054688 20.552734 A 1.0001 1.0001 0 0 0 8.4472656 21.894531 L 12 20.117188 L 15.552734 21.894531 A 1 1 0 0 0 15.626953 21.900391 A 1 1 0 0 0 16 21.925781 A 1 1 0 0 0 16.373047 21.900391 A 1 1 0 0 0 16.447266 21.894531 A 1 1 0 0 0 16.474609 21.8125 A 1 1 0 0 0 16.894531 21.447266 A 1 1 0 0 0 16.746094 21 A 1 1 0 0 0 16.894531 20.552734 L 12.894531 12.552734 A 1.0001 1.0001 0 0 0 12 12 z M 12 15.236328 L 13.763672 18.763672 L 12.447266 18.105469 A 1.0001 1.0001 0 0 0 11.552734 18.105469 L 10.236328 18.763672 L 12 15.236328 z " fill="currentColor"/>
</svg>
