<svg xmlns="http://www.w3.org/2000/svg" width="1em" height="1em" viewBox="0 0 24 24" fill="currentColor">
  <path d="M 12 2 A 1 1 0 0 0 11 3 L 11 5 A 1 1 0 0 0 12 6 A 1 1 0 0 0 13 5 L 13 3 A 1 1 0 0 0 12 2 z M 12 8 A 1.0001 1.0001 0 0 0 11.095703 8.5722656 L 6.1132812 19.130859 A 1.0001 1.0001 0 0 0 6.0761719 19.222656 C 5.9009525 19.715992 6.0340249 20.27274 6.4140625 20.632812 C 6.774369 20.973985 7.3001819 21.086111 7.7675781 20.927734 L 7.7851562 20.921875 L 12 19.550781 L 16.230469 20.927734 A 1 1 0 0 0 17.117188 20.724609 C 17.271513 20.662979 17.459641 20.750552 17.583984 20.632812 C 17.964022 20.27274 18.099048 19.715992 17.923828 19.222656 A 1.0001 1.0001 0 0 0 17.884766 19.130859 L 12.904297 8.5742188 A 1.0001 1.0001 0 0 0 12 8 z M 12 11.34375 L 15.402344 18.554688 L 12.308594 17.548828 A 1.0001 1.0001 0 0 0 11.691406 17.548828 L 8.5957031 18.554688 L 12 11.34375 z " fill="currentColor"/>
</svg>
