<svg xmlns="http://www.w3.org/2000/svg" width="1em" height="1em" viewBox="0 0 24 24" fill="currentColor">
  <path d="M 5 3 C 3.9072751 3 3 3.9072751 3 5 L 3 6 A 1 1 0 0 0 4 7 A 1 1 0 0 0 5 6 L 5 5 L 6 5 A 1 1 0 0 0 7 4 A 1 1 0 0 0 6 3 L 5 3 z M 11 3 A 1 1 0 0 0 10 4 A 1 1 0 0 0 11 5 L 13 5 A 1 1 0 0 0 14 4 A 1 1 0 0 0 13 3 L 11 3 z M 18 3 A 1 1 0 0 0 17 4 A 1 1 0 0 0 18 5 L 19 5 L 19 6 A 1 1 0 0 0 20 7 A 1 1 0 0 0 21 6 L 21 5 C 21 3.9072751 20.092725 3 19 3 L 18 3 z M 12 8 A 1 1 0 0 0 11 9 L 11 11 L 9 11 A 1 1 0 0 0 8 12 A 1 1 0 0 0 9 13 L 11 13 L 11 15 A 1 1 0 0 0 12 16 A 1 1 0 0 0 13 15 L 13 13 L 15 13 A 1 1 0 0 0 16 12 A 1 1 0 0 0 15 11 L 13 11 L 13 9 A 1 1 0 0 0 12 8 z M 4 10 A 1 1 0 0 0 3 11 L 3 13 A 1 1 0 0 0 4 14 A 1 1 0 0 0 5 13 L 5 11 A 1 1 0 0 0 4 10 z M 20 10 A 1 1 0 0 0 19 11 L 19 13 A 1 1 0 0 0 20 14 A 1 1 0 0 0 21 13 L 21 11 A 1 1 0 0 0 20 10 z M 4 17 A 1 1 0 0 0 3 18 L 3 19 C 3 20.092725 3.9072751 21 5 21 L 6 21 A 1 1 0 0 0 7 20 A 1 1 0 0 0 6 19 L 5 19 L 5 18 A 1 1 0 0 0 4 17 z M 20 17 A 1 1 0 0 0 19 18 L 19 19 L 18 19 A 1 1 0 0 0 17 20 A 1 1 0 0 0 18 21 L 19 21 C 20.092725 21 21 20.092725 21 19 L 21 18 A 1 1 0 0 0 20 17 z M 11 19 A 1 1 0 0 0 10 20 A 1 1 0 0 0 11 21 L 13 21 A 1 1 0 0 0 14 20 A 1 1 0 0 0 13 19 L 11 19 z " fill="currentColor"/>
</svg>
