<svg xmlns="http://www.w3.org/2000/svg" width="1em" height="1em" viewBox="0 0 24 24" fill="currentColor">
  <path d="M 12 2 A 1 1 0 0 0 11 3 L 11 9.5859375 L 8.2070312 6.7929688 A 1 1 0 0 0 7.5 6.5 A 1 1 0 0 0 6.7929688 6.7929688 A 1 1 0 0 0 6.7929688 8.2070312 L 9.5859375 11 L 3 11 A 1 1 0 0 0 2 12 A 1 1 0 0 0 3 13 L 9.5859375 13 L 6.7929688 15.792969 A 1 1 0 0 0 6.7929688 17.207031 A 1 1 0 0 0 8.2070312 17.207031 L 11 14.414062 L 11 21 A 1 1 0 0 0 12 22 A 1 1 0 0 0 13 21 L 13 14.414062 L 15.792969 17.207031 A 1 1 0 0 0 17.207031 17.207031 A 1 1 0 0 0 17.207031 15.792969 L 14.414062 13 L 21 13 A 1 1 0 0 0 22 12 A 1 1 0 0 0 21 11 L 14.414062 11 L 17.207031 8.2070312 A 1 1 0 0 0 17.207031 6.7929688 A 1 1 0 0 0 15.792969 6.7929688 L 13 9.5859375 L 13 3 A 1 1 0 0 0 12 2 z " fill="currentColor"/>
</svg>
