<svg xmlns="http://www.w3.org/2000/svg" width="1em" height="1em" viewBox="0 0 24 24" fill="currentColor">
  <path d="M 4 7 A 1 1 0 0 0 3 8 A 1 1 0 0 0 4 9 L 4 16 A 1 1 0 0 0 5 17 A 1 1 0 0 0 6 16 L 6 8 A 1.0001 1.0001 0 0 0 5 7 L 4 7 z M 11 7 C 10.277778 7 9.5421194 7.2353472 8.9609375 7.7519531 C 8.3797556 8.268559 8 9.0833335 8 10 L 8 14 C 8 14.916666 8.3797556 15.731441 8.9609375 16.248047 C 9.5421194 16.764653 10.277778 17 11 17 C 11.722222 17 12.45788 16.764653 13.039062 16.248047 C 13.620243 15.731441 14 14.916666 14 14 L 14 10 C 14 9.0833335 13.620244 8.268559 13.039062 7.7519531 C 12.45788 7.2353472 11.722222 7 11 7 z M 18 7 C 17.277778 7 16.542119 7.2353472 15.960938 7.7519531 C 15.379755 8.268559 15 9.0833335 15 10 L 15 14 C 15 14.916666 15.379756 15.731441 15.960938 16.248047 C 16.542119 16.764653 17.277778 17 18 17 C 18.722222 17 19.457881 16.764653 20.039062 16.248047 C 20.620244 15.731441 21 14.916666 21 14 L 21 10 C 21 9.0833335 20.620244 8.268559 20.039062 7.7519531 C 19.457881 7.2353472 18.722222 7 18 7 z M 11 9 C 11.277778 9 11.542119 9.097986 11.710938 9.2480469 C 11.879755 9.3981073 12 9.5833337 12 10 L 12 14 C 12 14.416666 11.879756 14.601893 11.710938 14.751953 C 11.542118 14.902014 11.277778 15 11 15 C 10.722222 15 10.45788 14.902014 10.289062 14.751953 C 10.120243 14.601893 10 14.416666 10 14 L 10 10 C 10 9.5833337 10.120244 9.3981073 10.289062 9.2480469 C 10.45788 9.0979864 10.722222 9 11 9 z M 18 9 C 18.277778 9 18.542119 9.097986 18.710938 9.2480469 C 18.879756 9.3981073 19 9.5833337 19 10 L 19 14 C 19 14.416666 18.879756 14.601893 18.710938 14.751953 C 18.542119 14.902014 18.277778 15 18 15 C 17.722222 15 17.457881 14.902014 17.289062 14.751953 C 17.120244 14.601893 17 14.416666 17 14 L 17 10 C 17 9.5833337 17.120244 9.3981073 17.289062 9.2480469 C 17.457881 9.0979864 17.722222 9 18 9 z " fill="currentColor"/>
</svg>
