<svg xmlns="http://www.w3.org/2000/svg" width="1em" height="1em" viewBox="0 0 24 24" fill="currentColor">
  <path d="M 7 7 C 5.9072751 7 5 7.9072751 5 9 L 5 11 C 5 11.387405 5.2220597 11.69138 5.4179688 12 C 5.2220597 12.30862 5 12.612595 5 13 L 5 15 C 5 16.092725 5.9072751 17 7 17 L 9 17 C 10.092725 17 11 16.092725 11 15 L 11 13 C 11 12.612595 10.77794 12.30862 10.582031 12 C 10.77794 11.69138 11 11.387405 11 11 L 11 9 C 11 7.9072751 10.092725 7 9 7 L 7 7 z M 14 7 A 1 1 0 0 0 13 8 L 13 11 C 13 12.092725 13.907275 13 15 13 L 17 13 L 17 16 A 1 1 0 0 0 18 17 A 1 1 0 0 0 19 16 L 19 8 A 1 1 0 0 0 18 7 A 1 1 0 0 0 17 8 L 17 11 L 15 11 L 15 8 A 1 1 0 0 0 14 7 z M 7 9 L 9 9 L 9 11 L 8 11 L 7 11 L 7 9 z M 7 13 L 8 13 L 9 13 L 9 15 L 7 15 L 7 13 z " fill="currentColor"/>
</svg>
