<svg xmlns="http://www.w3.org/2000/svg" width="1em" height="1em" viewBox="0 0 24 24" fill="currentColor">
  <path d="M 15.035156 4 A 1.0001 1.0001 0 0 0 14.191406 4.4121094 L 6.1914062 15.412109 A 1.0001 1.0001 0 0 0 7 17 L 14 17 L 14 20 A 1 1 0 0 0 15 21 A 1 1 0 0 0 16 20 L 16 17 L 17 17 A 1 1 0 0 0 18 16 A 1 1 0 0 0 17 15 L 16 15 L 16 5 A 1.0001 1.0001 0 0 0 15.308594 4.0488281 A 1.0001 1.0001 0 0 0 15.035156 4 z M 14 8.0742188 L 14 15 L 8.9628906 15 L 14 8.0742188 z " fill="currentColor"/>
</svg>
