<svg xmlns="http://www.w3.org/2000/svg" width="1em" height="1em" viewBox="0 0 24 24" fill="currentColor">
  <path d="M 10 7 A 1 1 0 0 0 9 8 A 1 1 0 0 0 10 9 L 12.5 9 C 12.787987 9 13 9.212013 13 9.5 L 13 10.5 C 13 10.787987 12.787987 11 12.5 11 L 11 11 A 1.0001 1.0001 0 0 0 11 13 L 12.5 13 C 12.787987 13 13 13.212013 13 13.5 L 13 14.5 C 13 14.787987 12.787987 15 12.5 15 L 10 15 A 1 1 0 0 0 9 16 A 1 1 0 0 0 10 17 L 12.5 17 C 13.868867 17 15 15.868867 15 14.5 L 15 13.5 C 15 12.917793 14.713548 12.427459 14.373047 12 C 14.713548 11.572541 15 11.082207 15 10.5 L 15 9.5 C 15 8.1311328 13.868867 7 12.5 7 L 10 7 z " fill="currentColor"/>
</svg>
