<svg xmlns="http://www.w3.org/2000/svg" width="1em" height="1em" viewBox="0 0 24 24" fill="currentColor">
  <path d="M 6 7 A 1 1 0 0 0 5 8 A 1 1 0 0 0 6 9 L 8.5 9 C 8.787987 9 9 9.212013 9 9.5 L 9 10.5 C 9 10.787987 8.787987 11 8.5 11 L 7 11 A 1.0001 1.0001 0 0 0 7 13 L 8.5 13 C 8.787987 13 9 13.212013 9 13.5 L 9 14.5 C 9 14.787987 8.787987 15 8.5 15 L 6 15 A 1 1 0 0 0 5 16 A 1 1 0 0 0 6 17 L 8.5 17 C 9.8688672 17 11 15.868867 11 14.5 L 11 13.5 C 11 12.917793 10.713548 12.427459 10.373047 12 C 10.713548 11.572541 11 11.082207 11 10.5 L 11 9.5 C 11 8.1311328 9.8688672 7 8.5 7 L 6 7 z M 15 7 C 13.907275 7 13 7.9072751 13 9 L 13 11 C 13 12.092725 13.907275 13 15 13 L 17 13 L 17 15 L 15 15 A 1 1 0 0 0 14 14 A 1 1 0 0 0 13 15 C 13 16.092725 13.907275 17 15 17 L 17 17 C 18.092725 17 19 16.092725 19 15 L 19 12 L 19 9 C 19 7.9072751 18.092725 7 17 7 L 15 7 z M 15 9 L 17 9 L 17 11 L 15 11 L 15 9 z " fill="currentColor"/>
</svg>
