<svg xmlns="http://www.w3.org/2000/svg" width="1em" height="1em" viewBox="0 0 24 24" fill="currentColor">
  <path d="M 11.398438 1.1289062 C 11.196791 1.131985 10.998078 1.1632144 10.804688 1.2460938 L 5.2304688 3.6347656 A 1.0001 1.0001 0 0 0 5.2285156 3.6347656 C 4.5131554 3.942622 3.9418939 4.5128768 3.6347656 5.2285156 L 1.2460938 10.804688 C 0.91898583 11.567962 0.91898583 12.432037 1.2460938 13.195312 L 3.6347656 18.769531 C 3.9418873 19.485689 4.5121801 20.058437 5.2285156 20.365234 L 10.802734 22.753906 C 11.566412 23.082049 12.433588 23.082049 13.197266 22.753906 L 18.769531 20.365234 A 1.0001 1.0001 0 0 0 18.771484 20.365234 C 19.486842 20.057378 20.058106 19.487123 20.365234 18.771484 L 22.753906 13.197266 L 22.753906 13.195312 C 23.080979 12.432714 23.080979 11.567286 22.753906 10.804688 L 22.753906 10.802734 L 20.365234 5.2304688 A 1.0001 1.0001 0 0 0 20.365234 5.2285156 C 20.057378 4.5131554 19.487123 3.9418939 18.771484 3.6347656 L 13.195312 1.2460938 A 1 1 0 0 0 12.429688 1.2363281 A 1 1 0 0 0 12.419922 1.2460938 C 12.078726 1.1975669 11.734515 1.123775 11.398438 1.1289062 z M 12 3 C 12.138849 3 12.277698 3.0280553 12.408203 3.0839844 L 17.982422 5.4726562 C 18.226783 5.577528 18.423153 5.7728884 18.529297 6.0195312 L 20.916016 11.591797 A 1.0001 1.0001 0 0 0 20.916016 11.59375 C 21.027873 11.854072 21.027873 12.145928 20.916016 12.40625 A 1.0001 1.0001 0 0 0 20.916016 12.408203 L 18.527344 17.982422 C 18.422472 18.226783 18.227112 18.423153 17.980469 18.529297 L 12.408203 20.916016 A 1.0001 1.0001 0 0 0 12.40625 20.916016 C 12.145928 21.027873 11.854072 21.027873 11.59375 20.916016 A 1.0001 1.0001 0 0 0 11.591797 20.916016 L 6.0175781 18.527344 C 5.7725811 18.422414 5.5775855 18.227419 5.4726562 17.982422 L 3.0839844 12.408203 C 2.9721263 12.147193 2.9721263 11.852807 3.0839844 11.591797 L 5.4726562 6.0175781 C 5.5771534 5.7740896 5.7721853 5.5790551 6.0175781 5.4726562 L 6.0195312 5.4707031 L 11.591797 3.0839844 C 11.722302 3.0280553 11.861151 3 12 3 z M 9 11 A 1 1 0 0 0 8 12 A 1 1 0 0 0 9 13 L 15 13 A 1 1 0 0 0 16 12 A 1 1 0 0 0 15 11 L 9 11 z " fill="currentColor"/>
</svg>
