<svg xmlns="http://www.w3.org/2000/svg" width="1em" height="1em" viewBox="0 0 24 24" fill="currentColor">
  <path d="M 12 1.0058594 C 11.436838 1.0058594 10.87271 1.213905 10.443359 1.6308594 A 1.0001 1.0001 0 0 0 10.429688 1.6445312 L 8.0546875 4.0488281 A 1 1 0 0 0 8.0625 5.4628906 A 1 1 0 0 0 9.4765625 5.453125 L 11 3.9121094 L 11 8 A 1 1 0 0 0 12 9 A 1 1 0 0 0 13 8 L 13 3.9121094 L 20.546875 11.546875 L 17.210938 12.539062 A 1 1 0 0 0 16.539062 13.783203 A 1 1 0 0 0 17.783203 14.457031 L 18.888672 14.126953 L 18.509766 14.511719 A 1 1 0 0 0 18.517578 15.925781 A 1 1 0 0 0 19.931641 15.917969 L 22.416016 13.40625 L 22.402344 13.417969 C 22.746583 13.081314 22.939451 12.643716 22.982422 12.193359 C 22.992055 12.139655 22.998662 12.083577 23 12.025391 A 1 1 0 0 0 22.986328 11.832031 C 22.948258 11.372865 22.752976 10.924938 22.402344 10.582031 L 22.416016 10.59375 L 13.570312 1.6445312 A 1.0001 1.0001 0 0 0 13.556641 1.6308594 C 13.1273 1.2138442 12.563162 1.0058594 12 1.0058594 z M 3 2 A 1 1 0 0 0 2.2929688 2.2929688 A 1 1 0 0 0 2.2929688 3.7070312 L 5.3613281 6.7753906 L 1.5839844 10.59375 L 1.5976562 10.582031 C 1.2450801 10.926839 1.0502102 11.378008 1.0136719 11.839844 A 1 1 0 0 0 1.0019531 12.046875 C 1.0040476 12.091906 1.0088816 12.135893 1.015625 12.177734 C 1.0554872 12.633727 1.2493309 13.077318 1.5976562 13.417969 L 1.5839844 13.40625 L 10.429688 22.355469 A 1.0001 1.0001 0 0 0 10.445312 22.371094 C 11.304602 23.203291 12.696368 23.202385 13.554688 22.369141 A 1.0001 1.0001 0 0 0 13.570312 22.355469 L 17.234375 18.648438 L 20.292969 21.707031 A 1 1 0 0 0 21.707031 21.707031 A 1 1 0 0 0 21.707031 20.292969 L 12.716797 11.302734 A 1 1 0 0 0 12.697266 11.283203 L 7.515625 6.1015625 A 1 1 0 0 0 7.4746094 6.0585938 A 1 1 0 0 0 7.4394531 6.0253906 L 3.7070312 2.2929688 A 1 1 0 0 0 3 2 z M 6.7753906 8.1894531 L 11 12.414062 L 11 13.792969 L 3.4550781 11.546875 L 6.7753906 8.1894531 z M 5.1074219 14.125 L 10.806641 15.820312 C 10.871254 15.843258 10.935698 15.863554 11 15.882812 L 11 20.087891 L 5.1074219 14.125 z M 14.128906 15.542969 L 15.820312 17.234375 L 13 20.085938 L 13 15.882812 C 13.064302 15.863554 13.128747 15.843258 13.193359 15.820312 L 14.128906 15.542969 z " fill="currentColor"/>
</svg>
