<svg xmlns="http://www.w3.org/2000/svg" width="1em" height="1em" viewBox="0 0 24 24" fill="currentColor">
  <path d="M 11 2 A 1 1 0 0 0 10.931641 2.0683594 A 1 1 0 0 0 10.105469 2.5527344 A 1 1 0 0 0 10.191406 2.8085938 A 1 1 0 0 0 10 3 C 10 4.1166667 9.8181546 4.547379 9.5996094 5.0019531 C 9.3836511 5.4511462 9.0166322 6.0755382 9.0078125 6.9765625 C 8.9925496 7.334212 9.0433517 7.6791856 9.1503906 8 L 8 8 A 1 1 0 0 0 7 9 A 1 1 0 0 0 8 10 L 8.1953125 10 C 9.0009408 13.875212 9 16.905699 9 21 A 1.0001 1.0001 0 0 0 10 22 L 14 22 A 1.0001 1.0001 0 0 0 15 21 C 15 16.905699 14.999048 13.875212 15.804688 10 L 16 10 A 1 1 0 0 0 17 9 A 1 1 0 0 0 16 8 L 14.857422 8 C 14.961904 7.6782824 15.009879 7.3325576 14.990234 6.9746094 C 14.978115 5.1006959 13.696597 3.2301342 11.447266 2.1054688 A 1 1 0 0 0 11.080078 2.0800781 A 1 1 0 0 0 11 2 z M 11.628906 4.7714844 C 12.466367 5.5208666 13 6.3316372 13 7 A 1.0001 1.0001 0 0 0 13.001953 7.0722656 C 13.037477 7.5635347 12.701554 7.954064 12.236328 8 L 12.019531 8 L 11.998047 8 L 11.808594 8 C 11.325254 7.9592032 10.970702 7.5594378 10.998047 7.0546875 A 1.0001 1.0001 0 0 0 11 7 C 11 6.5787562 11.118936 6.4545665 11.400391 5.8691406 C 11.50805 5.6452083 11.530523 5.0968317 11.628906 4.7714844 z M 10.234375 10 L 13.765625 10 C 13.074036 13.544671 13.027331 16.522143 13.021484 20 L 10.978516 20 C 10.972669 16.522143 10.925964 13.544671 10.234375 10 z " fill="currentColor"/>
</svg>
