<svg xmlns="http://www.w3.org/2000/svg" width="1em" height="1em" viewBox="0 0 24 24" fill="currentColor">
  <path d="M 11.966797 2 A 1 1 0 0 0 11.585938 2.0898438 A 1 1 0 0 0 11.089844 3.4140625 C 12.896676 7.3886597 16.453938 9.3513219 21.076172 8.9960938 A 1 1 0 0 0 21.996094 7.9238281 A 1 1 0 0 0 20.923828 7.0039062 C 16.880062 7.314678 14.437324 5.94534 12.910156 2.5859375 A 1 1 0 0 0 12.351562 2.0644531 A 1 1 0 0 0 11.966797 2 z M 17 2 A 1 1 0 0 0 16.292969 2.2929688 A 1 1 0 0 0 16.292969 3.7070312 L 18.292969 5.7070312 A 1 1 0 0 0 19.707031 5.7070312 A 1 1 0 0 0 19.707031 4.2929688 L 17.707031 2.2929688 A 1 1 0 0 0 17 2 z M 7 4 C 5.0647202 4 3.344392 4.9829862 2.5078125 6.5234375 A 1 1 0 0 0 2.9101562 7.8789062 A 1 1 0 0 0 4.265625 7.4765625 C 4.7150455 6.6490138 5.7472798 6 7 6 C 8.7373002 6 10 7.1843478 10 8.5 C 10 9.8156522 8.7373002 11 7 11 A 1 1 0 0 0 6 12 A 1 1 0 0 0 7 13 C 7.6927514 13 8.3473153 13.280358 8.8671875 13.759766 A 1 1 0 0 0 8.9160156 13.8125 C 8.9647975 13.862231 9.0137105 13.911366 9.0644531 13.958984 C 9.6345882 14.585731 10 15.476203 10 16.5 C 10 18.504785 8.6021569 20 7 20 C 5.3978431 20 4 18.504785 4 16.5 A 1.0001 1.0001 0 0 0 4 16.496094 C 3.9982 15.941984 4.113625 15.395373 4.3378906 14.888672 A 1 1 0 0 0 3.828125 13.568359 A 1 1 0 0 0 2.5078125 14.078125 C 2.1703605 14.840556 1.9978409 15.66626 2 16.5 L 2 16.501953 L 2 16.503906 C 2.0019543 19.467312 4.1834194 22 7 22 C 9.8178431 22 12 19.465215 12 16.5 C 12 16.052397 11.949596 15.614109 11.855469 15.193359 C 11.924535 15.196921 11.994662 15.199219 12.064453 15.199219 C 13.603826 15.199219 14.952815 14.33348 15.816406 13.078125 L 15.826172 13.064453 C 16.319298 12.374129 16.964445 12 17.5 12 C 18.080399 12 18.659889 12.32798 19.15625 13.037109 C 19.652611 13.746239 20 14.808683 20 16 C 20 17.191317 19.652611 18.253761 19.15625 18.962891 C 18.659889 19.67202 18.080399 20 17.5 20 C 16.99287 20 16.497323 19.753099 16.037109 19.210938 C 15.576896 18.668778 15.200273 17.840143 15.060547 16.867188 A 1 1 0 0 0 13.929688 16.019531 A 1 1 0 0 0 13.082031 17.152344 C 13.269305 18.456388 13.761683 19.62227 14.511719 20.505859 C 15.261755 21.389449 16.31713 22 17.5 22 C 18.852601 22 20.024533 21.209995 20.794922 20.109375 C 21.56531 19.008755 22 17.569683 22 16 C 22 14.430317 21.56531 12.991245 20.794922 11.890625 C 20.024533 10.790005 18.852601 10 17.5 10 C 16.119167 10 14.95325 10.833152 14.183594 11.921875 A 1.0001 1.0001 0 0 0 14.173828 11.935547 C 13.603005 12.770685 12.871406 13.199219 12.064453 13.199219 C 11.438656 13.199219 10.855321 12.933636 10.34375 12.412109 A 1 1 0 0 0 10.296875 12.367188 C 10.200213 12.273379 10.101269 12.185166 9.9980469 12.099609 C 11.201249 11.289439 12 9.9978424 12 8.5 C 12 5.9496522 9.6826998 4 7 4 z " fill="currentColor"/>
</svg>
