<svg xmlns="http://www.w3.org/2000/svg" width="1em" height="1em" viewBox="0 0 24 24" fill="currentColor">
  <path d="M 14.740234 1.6875 C 13.552536 1.7476106 12.322648 2.2632894 11.292969 3.2929688 L 4.7929688 9.7929688 C 3.1161927 11.469745 2.4232535 13.470708 2.5332031 15.339844 C 2.6431527 17.208979 3.510834 18.924896 4.7929688 20.207031 C 6.0751035 21.489166 7.7910205 22.356847 9.6601562 22.466797 C 11.529292 22.576746 13.530255 21.883807 15.207031 20.207031 L 21.707031 13.707031 A 1 1 0 0 0 21.707031 12.292969 A 1 1 0 0 0 20.292969 12.292969 L 13.792969 18.792969 C 12.469746 20.116191 11.095707 20.548254 9.7773438 20.470703 C 8.45898 20.393152 7.1748965 19.760834 6.2070312 18.792969 C 5.239166 17.825104 4.606848 16.54102 4.5292969 15.222656 C 4.4517458 13.904293 4.8838087 12.530254 6.2070312 11.207031 L 12.707031 4.7070312 C 13.530254 3.8838085 14.341792 3.6392459 15.128906 3.6855469 C 15.91602 3.7318479 16.700104 4.114166 17.292969 4.7070312 C 17.885834 5.2998965 18.268152 6.0839801 18.314453 6.8710938 C 18.360753 7.6582076 18.116192 8.469746 17.292969 9.2929688 L 10.792969 15.792969 C 10.469746 16.116192 10.220708 16.173254 9.9648438 16.158203 C 9.7089798 16.143152 9.4248964 16.010834 9.2070312 15.792969 C 8.989166 15.575104 8.8568477 15.29102 8.8417969 15.035156 C 8.826746 14.779292 8.8838082 14.530254 9.2070312 14.207031 L 15.707031 7.7070312 A 1 1 0 0 0 15.707031 6.2929688 A 1 1 0 0 0 14.292969 6.2929688 L 7.7929688 12.792969 C 7.1161923 13.469745 6.7982538 14.345708 6.8457031 15.152344 C 6.8931521 15.95898 7.260834 16.674896 7.7929688 17.207031 C 8.3251036 17.739166 9.0410202 18.106848 9.8476562 18.154297 C 10.654292 18.201747 11.530255 17.883808 12.207031 17.207031 L 18.707031 10.707031 C 19.883808 9.5302551 20.389246 8.091792 20.310547 6.7539062 C 20.231847 5.4160205 19.614166 4.2001035 18.707031 3.2929688 C 17.799896 2.3858339 16.58398 1.7681526 15.246094 1.6894531 C 15.078858 1.6796157 14.909906 1.6789128 14.740234 1.6875 z " fill="currentColor"/>
</svg>
