<svg xmlns="http://www.w3.org/2000/svg" width="1em" height="1em" viewBox="0 0 24 24" fill="currentColor">
  <path d="M 5 2 C 3.3549904 2 2 3.3549904 2 5 L 2 19 C 2 20.64501 3.3549904 22 5 22 L 19 22 C 20.64501 22 22 20.64501 22 19 L 22 5 C 22 3.3549904 20.64501 2 19 2 L 5 2 z M 5 4 L 19 4 C 19.564129 4 20 4.4358706 20 5 L 20 19 C 20 19.564129 19.564129 20 19 20 L 5 20 C 4.4358706 20 4 19.564129 4 19 L 4 5 C 4 4.4358706 4.4358706 4 5 4 z M 10 7 A 1.0001 1.0001 0 0 0 9 8 L 9 12 L 9 16 A 1 1 0 0 0 10 17 A 1 1 0 0 0 11 16 L 11 13 L 12.667969 13 C 13.441313 13 14.069923 12.525975 14.441406 11.96875 C 14.81289 11.411525 15 10.73259 15 10 C 15 9.2674095 14.81289 8.588475 14.441406 8.03125 C 14.069923 7.474025 13.441313 7 12.667969 7 L 10 7 z M 11 9 L 12.65625 9 C 12.665879 9.0059371 12.705864 9.0333648 12.777344 9.140625 C 12.88836 9.30715 13 9.6275905 13 10 C 13 10.37241 12.88836 10.69285 12.777344 10.859375 C 12.705837 10.966635 12.665871 10.994063 12.65625 11 L 11 11 L 11 9 z " fill="currentColor"/>
</svg>
