<svg xmlns="http://www.w3.org/2000/svg" width="1em" height="1em" viewBox="0 0 24 24" fill="currentColor">
  <path d="M 9 3 C 7.3549904 3 6 4.3549904 6 6 L 6 14 A 1 1 0 0 0 7 15 A 1 1 0 0 0 8 14 L 8 6 C 8 5.4358706 8.4358706 5 9 5 L 10 5 A 1 1 0 0 0 11 6 L 13 6 A 1 1 0 0 0 14 5 L 15 5 C 15.564129 5 16 5.4358706 16 6 L 16 14 A 1 1 0 0 0 17 15 A 1 1 0 0 0 18 14 L 18 6 C 18 4.3549904 16.64501 3 15 3 L 9 3 z M 5 16 A 1 1 0 0 0 4 17 L 4 17.382812 L 3.4472656 17.105469 A 1 1 0 0 0 2.6835938 17.050781 A 1 1 0 0 0 2.1054688 17.552734 A 1 1 0 0 0 2.5527344 18.894531 L 2.7636719 19 L 2.5527344 19.105469 A 1 1 0 0 0 2.1054688 20.447266 A 1 1 0 0 0 3.4472656 20.894531 L 4 20.617188 L 4 21 A 1 1 0 0 0 5 22 A 1 1 0 0 0 6 21 L 6 20.617188 L 6.5527344 20.894531 A 1 1 0 0 0 7.8945312 20.447266 A 1 1 0 0 0 7.4472656 19.105469 L 7.2363281 19 L 7.4472656 18.894531 A 1 1 0 0 0 7.8945312 17.552734 A 1 1 0 0 0 7.3164062 17.050781 A 1 1 0 0 0 6.5527344 17.105469 L 6 17.382812 L 6 17 A 1 1 0 0 0 5 16 z M 12 16 A 1 1 0 0 0 11.869141 16.007812 A 1 1 0 0 0 11 17 L 11 17.009766 L 11 17.382812 L 10.447266 17.105469 A 1 1 0 0 0 9.6835938 17.050781 A 1 1 0 0 0 9.1054688 17.552734 A 1 1 0 0 0 9.5527344 18.894531 L 9.7636719 19 L 9.5527344 19.105469 A 1 1 0 0 0 9.1054688 20.447266 A 1 1 0 0 0 10.447266 20.894531 L 11 20.617188 L 11 21 A 1 1 0 0 0 12 22 A 1 1 0 0 0 13 21 L 13 20.617188 L 13.552734 20.894531 A 1 1 0 0 0 14.894531 20.447266 A 1 1 0 0 0 14.447266 19.105469 L 14.236328 19 L 14.447266 18.894531 A 1 1 0 0 0 14.894531 17.552734 A 1 1 0 0 0 14.316406 17.050781 A 1 1 0 0 0 13.552734 17.105469 L 13 17.382812 L 13 17.009766 L 13 17 A 1 1 0 0 0 12 16 z M 19 16 A 1 1 0 0 0 18 17 L 18 17.382812 L 17.447266 17.105469 A 1 1 0 0 0 16.105469 17.552734 A 1 1 0 0 0 16.552734 18.894531 L 16.763672 19 L 16.552734 19.105469 A 1 1 0 0 0 16.105469 20.447266 A 1 1 0 0 0 17.447266 20.894531 L 18 20.617188 L 18 21 A 1 1 0 0 0 19 22 A 1 1 0 0 0 20 21 L 20 20.617188 L 20.552734 20.894531 A 1 1 0 0 0 21.894531 20.447266 A 1 1 0 0 0 21.447266 19.105469 L 21.236328 19 L 21.447266 18.894531 A 1 1 0 0 0 21.894531 17.552734 A 1 1 0 0 0 21.316406 17.050781 A 1 1 0 0 0 20.552734 17.105469 L 20 17.382812 L 20 17 A 1 1 0 0 0 19 16 z " fill="currentColor"/>
</svg>
