<svg xmlns="http://www.w3.org/2000/svg" width="1em" height="1em" viewBox="0 0 24 24" fill="currentColor">
  <path d="M 12 2 C 6.4889982 2 2 6.4889941 2 12 C 2 17.511006 6.4889982 22 12 22 C 17.511002 22 22 17.511006 22 12 C 22 6.4889941 17.511002 2 12 2 z M 11 4.0605469 L 11 11.585938 L 5.6757812 16.910156 C 4.6245975 15.556323 4 13.853345 4 12 C 4 7.9086414 7.044781 4.5501341 11 4.0605469 z M 13 4.0605469 C 16.955219 4.5501341 20 7.9086415 20 12 C 20 13.853345 19.375403 15.556323 18.324219 16.910156 L 13 11.585938 L 13 4.0605469 z M 11 14.414062 L 11 19.939453 C 9.5358194 19.758213 8.1962139 19.18326 7.0898438 18.324219 L 11 14.414062 z M 13 14.414062 L 16.910156 18.324219 C 15.803786 19.18326 14.46418 19.758213 13 19.939453 L 13 14.414062 z " fill="currentColor"/>
</svg>
