<svg xmlns="http://www.w3.org/2000/svg" width="1em" height="1em" viewBox="0 0 24 24" fill="currentColor">
  <path d="M 16.3125 3.625 C 15.4384 3.6705841 14.530981 4.054956 13.792969 4.7929688 L 3.2929688 15.292969 A 1.0001 1.0001 0 0 0 3 16 L 3 20 A 1 1 0 0 0 4 21 L 8 21 A 1.0001 1.0001 0 0 0 8.7070312 20.707031 L 19.207031 10.207031 C 20.050474 9.3635883 20.430913 8.3001256 20.373047 7.3164062 C 20.315181 6.332687 19.864166 5.4501035 19.207031 4.7929688 C 18.549896 4.135834 17.667313 3.6848192 16.683594 3.6269531 C 16.560629 3.6197199 16.437371 3.618488 16.3125 3.625 z M 16.404297 5.6210938 C 16.458625 5.619305 16.512288 5.6198634 16.566406 5.6230469 C 16.999353 5.6485139 17.450104 5.8641661 17.792969 6.2070312 C 18.135834 6.5498965 18.351486 7.0006467 18.376953 7.4335938 C 18.402423 7.866541 18.282863 8.303079 17.792969 8.7929688 L 17.5 9.0859375 L 14.914062 6.5 L 15.207031 6.2070312 C 15.635685 5.7783779 16.024002 5.6336151 16.404297 5.6210938 z M 13.5 7.9140625 L 16.085938 10.5 L 7.5859375 19 L 5 19 L 5 16.414062 L 13.5 7.9140625 z M 19 15 A 1 1 0 0 0 18 16 L 18 18 L 16 18 A 1 1 0 0 0 15 19 A 1 1 0 0 0 16 20 L 18 20 L 18 22 A 1 1 0 0 0 19 23 A 1 1 0 0 0 20 22 L 20 20 L 22 20 A 1 1 0 0 0 23 19 A 1 1 0 0 0 22 18 L 20 18 L 20 16 A 1 1 0 0 0 19 15 z " fill="currentColor"/>
</svg>
