<svg xmlns="http://www.w3.org/2000/svg" width="1em" height="1em" viewBox="0 0 24 24" fill="currentColor">
  <path d="M 16.3125 3.625 C 15.4384 3.6705841 14.530981 4.054956 13.792969 4.7929688 L 3.2929688 15.292969 A 1.0001 1.0001 0 0 0 3 16 L 3 20 A 1 1 0 0 0 4 21 L 8 21 A 1.0001 1.0001 0 0 0 8.7070312 20.707031 L 19.207031 10.207031 C 20.050474 9.3635883 20.430913 8.3001256 20.373047 7.3164062 C 20.315181 6.332687 19.864166 5.4501035 19.207031 4.7929688 C 18.549896 4.135834 17.667313 3.6848192 16.683594 3.6269531 C 16.560629 3.6197199 16.437371 3.618488 16.3125 3.625 z M 16.404297 5.6210938 C 16.458625 5.619305 16.512288 5.6198634 16.566406 5.6230469 C 16.999353 5.6485139 17.450104 5.8641661 17.792969 6.2070312 C 18.135834 6.5498965 18.351486 7.0006467 18.376953 7.4335938 C 18.402423 7.866541 18.282863 8.303079 17.792969 8.7929688 L 17.5 9.0859375 L 14.914062 6.5 L 15.207031 6.2070312 C 15.635685 5.7783779 16.024002 5.6336151 16.404297 5.6210938 z M 13.5 7.9140625 L 16.085938 10.5 L 7.5859375 19 L 5 19 L 5 16.414062 L 13.5 7.9140625 z M 19 15 C 18.027778 15 17.042119 15.318681 16.273438 16.001953 C 15.504756 16.685226 15 17.75 15 19 C 15 20.25 15.504756 21.314774 16.273438 21.998047 C 17.042119 22.681319 18.027778 23 19 23 C 19.972222 23 20.957881 22.681319 21.726562 21.998047 C 22.495244 21.314774 23 20.25 23 19 C 23 17.75 22.495244 16.685226 21.726562 16.001953 C 20.957881 15.318681 19.972222 15 19 15 z M 19 17 C 19.178556 17 19.355509 17.020818 19.525391 17.060547 L 17.048828 19.537109 C 17.016537 19.378241 17 19.199858 17 19 C 17 18.250001 17.245244 17.814774 17.601562 17.498047 C 17.957881 17.18132 18.472222 17 19 17 z M 20.951172 18.462891 C 20.983463 18.621759 21 18.800142 21 19 C 21 19.749999 20.754756 20.185226 20.398438 20.501953 C 20.042119 20.81868 19.527778 21 19 21 C 18.821444 21 18.644491 20.979182 18.474609 20.939453 L 20.951172 18.462891 z " fill="currentColor"/>
</svg>
