<svg xmlns="http://www.w3.org/2000/svg" width="1em" height="1em" viewBox="0 0 24 24" fill="currentColor">
  <path d="M 16.3125 3.625 C 15.4384 3.6705841 14.530981 4.054956 13.792969 4.7929688 L 3.2929688 15.292969 A 1.0001 1.0001 0 0 0 3 16 L 3 20 A 1 1 0 0 0 4 21 L 8 21 A 1.0001 1.0001 0 0 0 8.7070312 20.707031 L 19.207031 10.207031 C 20.050474 9.3635883 20.430913 8.3001256 20.373047 7.3164062 C 20.315181 6.332687 19.864166 5.4501035 19.207031 4.7929688 C 18.549896 4.135834 17.667313 3.6848192 16.683594 3.6269531 C 16.560629 3.6197199 16.437371 3.618488 16.3125 3.625 z M 16.404297 5.6210938 C 16.458625 5.619305 16.512288 5.6198634 16.566406 5.6230469 C 16.999353 5.6485139 17.450104 5.8641661 17.792969 6.2070312 C 18.135834 6.5498965 18.351486 7.0006467 18.376953 7.4335938 C 18.402423 7.866541 18.282863 8.303079 17.792969 8.7929688 L 17.5 9.0859375 L 14.914062 6.5 L 15.207031 6.2070312 C 15.635685 5.7783779 16.024002 5.6336151 16.404297 5.6210938 z M 13.5 7.9140625 L 16.085938 10.5 L 7.5859375 19 L 5 19 L 5 16.414062 L 13.5 7.9140625 z M 19.001953 14.5 A 1 1 0 0 0 18.001953 15.5 L 18.001953 16.15625 C 17.650707 16.271131 17.316482 16.450991 17.019531 16.701172 L 16.46875 16.384766 A 1 1 0 0 0 15.103516 16.75 A 1 1 0 0 0 15.470703 18.115234 L 16.048828 18.449219 C 16.018359 18.627489 16.001953 18.811393 16.001953 19 C 16.001953 19.188607 16.018359 19.372511 16.048828 19.550781 L 15.470703 19.884766 A 1 1 0 0 0 15.103516 21.25 A 1 1 0 0 0 16.46875 21.615234 L 17.019531 21.298828 C 17.316482 21.549009 17.650707 21.728869 18.001953 21.84375 L 18.001953 22.5 A 1 1 0 0 0 19.001953 23.5 A 1 1 0 0 0 20.001953 22.5 L 20.001953 21.841797 C 20.352392 21.726904 20.68578 21.548801 20.982422 21.298828 L 21.533203 21.615234 A 1 1 0 0 0 22.898438 21.25 A 1 1 0 0 0 22.533203 19.884766 L 21.955078 19.550781 C 21.985716 19.372405 22.001953 19.188728 22.001953 19 C 22.001953 18.811071 21.98578 18.625819 21.955078 18.447266 L 22.53125 18.115234 A 1 1 0 0 0 22.898438 16.75 A 1 1 0 0 0 22.291016 16.283203 A 1 1 0 0 0 21.53125 16.384766 L 20.982422 16.701172 C 20.685894 16.451401 20.352211 16.273037 20.001953 16.158203 L 20.001953 15.5 A 1 1 0 0 0 19.001953 14.5 z M 19.001953 18 C 19.279731 18 19.542119 18.09799 19.710938 18.248047 C 19.737354 18.271528 19.763265 18.29631 19.787109 18.322266 A 1 1 0 0 0 19.867188 18.5 A 1 1 0 0 0 19.958984 18.630859 C 19.986979 18.729861 20.001953 18.850435 20.001953 19 C 20.001953 19.149138 19.98683 19.268351 19.958984 19.367188 A 1 1 0 0 0 19.867188 19.5 A 1 1 0 0 0 19.787109 19.677734 C 19.763265 19.70369 19.737354 19.728472 19.710938 19.751953 C 19.542119 19.902014 19.279731 20 19.001953 20 C 18.724175 20 18.459834 19.902014 18.291016 19.751953 C 18.265546 19.729314 18.241762 19.706555 18.21875 19.681641 A 1 1 0 0 0 18.136719 19.5 A 1 1 0 0 0 18.044922 19.367188 C 18.017583 19.268557 18.001953 19.148605 18.001953 19 C 18.001953 18.85116 18.017501 18.731534 18.044922 18.632812 A 1 1 0 0 0 18.136719 18.5 A 1 1 0 0 0 18.21875 18.318359 C 18.241762 18.293445 18.265546 18.270686 18.291016 18.248047 C 18.459834 18.097986 18.724175 18 19.001953 18 z " fill="currentColor"/>
</svg>
