<svg xmlns="http://www.w3.org/2000/svg" width="1em" height="1em" viewBox="0 0 24 24" fill="currentColor">
  <path d="M 10 2 A 1 1 0 0 0 9 3 L 9 3.9726562 A 1 1 0 0 0 9 4.0273438 L 9 11.972656 A 1 1 0 0 0 9 12.027344 L 9 20 L 8 20 A 1 1 0 0 0 7 21 A 1 1 0 0 0 8 22 L 12 22 A 1 1 0 0 0 13 21 A 1 1 0 0 0 12 20 L 11 20 L 11 12.650391 L 19.40625 8.9140625 A 1.0001 1.0001 0 0 0 19.40625 7.0859375 L 11 3.3496094 L 11 3 A 1 1 0 0 0 10 2 z M 11 5.5390625 L 16.537109 8 L 11 10.460938 L 11 5.5390625 z " fill="currentColor"/>
</svg>
