<svg xmlns="http://www.w3.org/2000/svg" width="1em" height="1em" viewBox="0 0 24 24" fill="currentColor">
  <path d="M 12 0.79101562 C 11.384711 0.79101562 10.77039 0.98111034 10.25 1.359375 L 7.5449219 3.3242188 A 1 1 0 0 0 7.3242188 4.7207031 A 1 1 0 0 0 8.7207031 4.9414062 L 11.425781 2.9765625 C 11.771834 2.725021 12.228166 2.725021 12.574219 2.9765625 L 20.595703 8.8046875 C 20.942443 9.0564987 21.083412 9.4917377 20.951172 9.8984375 L 19.064453 15.707031 A 1 1 0 0 0 19.707031 16.966797 A 1 1 0 0 0 20.966797 16.324219 L 22.853516 10.517578 C 23.251276 9.2942781 22.812744 7.9436888 21.771484 7.1875 L 13.75 1.359375 C 13.22961 0.98111034 12.615289 0.79101563 12 0.79101562 z M 3 2 A 1 1 0 0 0 2.2929688 2.2929688 A 1 1 0 0 0 2.2929688 3.7070312 L 4.28125 5.6953125 L 2.2285156 7.1875 C 1.1873715 7.943436 0.74878692 9.2939537 1.1464844 10.517578 L 4.2089844 19.947266 C 4.6062849 21.170552 5.7548284 22.005686 7.0410156 22.005859 A 1.0001 1.0001 0 0 0 7.0429688 22.005859 L 16.957031 22.005859 A 1.0001 1.0001 0 0 0 16.958984 22.005859 C 17.925872 22.005729 18.814594 21.533321 19.365234 20.779297 L 20.292969 21.707031 A 1 1 0 0 0 21.707031 21.707031 A 1 1 0 0 0 21.707031 20.292969 L 3.7070312 2.2929688 A 1 1 0 0 0 3 2 z M 5.7128906 7.1269531 L 17.894531 19.308594 L 17.888672 19.328125 A 1.0001 1.0001 0 0 0 17.888672 19.330078 C 17.756574 19.736807 17.384673 20.005802 16.957031 20.005859 L 7.0429688 20.005859 C 6.6153267 20.005755 6.2434259 19.736807 6.1113281 19.330078 A 1.0001 1.0001 0 0 0 6.1113281 19.328125 L 3.0488281 9.8984375 C 2.9165963 9.4915904 3.0581281 9.0560313 3.4042969 8.8046875 L 5.7128906 7.1269531 z " fill="currentColor"/>
</svg>
