<svg xmlns="http://www.w3.org/2000/svg" width="1em" height="1em" viewBox="0 0 24 24" fill="currentColor">
  <path d="M 15 2 A 1 1 0 0 0 14 3 A 1 1 0 0 0 15 4 C 17.773268 4 20 6.2267316 20 9 A 1 1 0 0 0 21 10 A 1 1 0 0 0 22 9 C 22 5.1458514 18.854149 2 15 2 z M 5 3 C 3.3549904 3 2 4.3549904 2 6 A 1.0001 1.0001 0 0 0 2.0019531 6.0605469 C 2.5226928 14.629454 9.370546 21.47731 17.939453 21.998047 A 1.0001 1.0001 0 0 0 18 22 C 19.64501 22 21 20.64501 21 19 L 21 15 A 1.0001 1.0001 0 0 0 20.371094 14.072266 L 15.371094 12.072266 A 1.0001 1.0001 0 0 0 14.142578 12.486328 L 13.193359 14.066406 C 11.85726 13.245063 10.754937 12.14274 9.9335938 10.806641 L 11.513672 9.8574219 A 1.0001 1.0001 0 0 0 11.927734 8.6289062 L 9.9277344 3.6289062 A 1.0001 1.0001 0 0 0 9 3 L 5 3 z M 5 5 L 8.3222656 5 L 9.7558594 8.5800781 L 7.9863281 9.6425781 A 1.0001 1.0001 0 0 0 7.6035156 10.941406 C 8.7717651 13.31021 10.68979 15.228235 13.058594 16.396484 A 1.0001 1.0001 0 0 0 14.357422 16.013672 L 15.419922 14.244141 L 19 15.677734 L 19 19 C 19 19.558663 18.569845 19.985805 18.013672 19.994141 C 10.476688 19.512155 4.4878453 13.523312 4.0058594 5.9863281 C 4.0141953 5.4301546 4.4413365 5 5 5 z M 15 6 A 1 1 0 0 0 14 7 A 1 1 0 0 0 15 8 C 15.564129 8 16 8.4358706 16 9 A 1 1 0 0 0 17 10 A 1 1 0 0 0 18 9 C 18 7.3549904 16.64501 6 15 6 z " fill="currentColor"/>
</svg>
