<svg xmlns="http://www.w3.org/2000/svg" width="1em" height="1em" viewBox="0 0 24 24" fill="currentColor">
  <path d="M 13.433594 1.0019531 A 1 1 0 0 0 13.304688 1.0195312 A 1 1 0 0 0 12.519531 2.1953125 L 13.019531 4.6953125 A 1 1 0 0 0 14.195312 5.4804688 A 1 1 0 0 0 14.980469 4.3046875 L 14.480469 1.8046875 A 1 1 0 0 0 13.433594 1.0019531 z M 5 3 C 3.3549904 3 2 4.3549904 2 6 A 1.0001 1.0001 0 0 0 2.0019531 6.0605469 C 2.5221071 14.629236 9.3707636 21.477896 17.939453 21.998047 A 1.0001 1.0001 0 0 0 18 22 C 19.64501 22 21 20.64501 21 19 L 21 15 A 1.0001 1.0001 0 0 0 20.371094 14.072266 L 15.371094 12.072266 A 1.0001 1.0001 0 0 0 14.142578 12.486328 L 13.193359 14.066406 C 11.85726 13.245063 10.754937 12.14274 9.9335938 10.806641 L 11.513672 9.8574219 A 1.0001 1.0001 0 0 0 11.927734 8.6289062 L 9.9277344 3.6289062 A 1.0001 1.0001 0 0 0 9 3 L 5 3 z M 20 3 A 1 1 0 0 0 19.292969 3.2929688 L 17.292969 5.2929688 A 1 1 0 0 0 17.292969 6.7070312 A 1 1 0 0 0 18.707031 6.7070312 L 20.707031 4.7070312 A 1 1 0 0 0 20.707031 3.2929688 A 1 1 0 0 0 20 3 z M 5 5 L 8.3222656 5 L 9.7558594 8.5800781 L 7.9863281 9.6425781 A 1.0001 1.0001 0 0 0 7.6035156 10.941406 C 8.7717651 13.31021 10.68979 15.228235 13.058594 16.396484 A 1.0001 1.0001 0 0 0 14.357422 16.013672 L 15.419922 14.244141 L 19 15.677734 L 19 19 C 19 19.558663 18.569845 19.985805 18.013672 19.994141 C 10.477164 19.512682 4.4873183 13.522836 4.0058594 5.9863281 C 4.0141953 5.4301546 4.4413365 5 5 5 z M 19.435547 9.0019531 A 1 1 0 0 0 18.519531 9.8046875 A 1 1 0 0 0 19.304688 10.980469 L 21.804688 11.480469 A 1 1 0 0 0 22.980469 10.695312 A 1 1 0 0 0 22.195312 9.5195312 L 19.695312 9.0195312 A 1 1 0 0 0 19.435547 9.0019531 z " fill="currentColor"/>
</svg>
