<svg xmlns="http://www.w3.org/2000/svg" width="1em" height="1em" viewBox="0 0 24 24" fill="currentColor">
  <path d="M 6 2 C 3.8027056 2 2 3.8027056 2 6 L 2 18 C 2 20.197294 3.8027056 22 6 22 L 12.5 22 A 1 1 0 0 0 13.5 21 A 1 1 0 0 0 12.5 20 L 6 20 C 4.8835859 20 4 19.116414 4 18 L 4 16.414062 L 8.6933594 11.720703 C 9.0094217 11.416561 9.269323 11.330078 9.5 11.330078 C 9.730677 11.330078 9.9905779 11.416558 10.306641 11.720703 L 12.792969 14.207031 A 1 1 0 0 0 14.207031 14.207031 A 1 1 0 0 0 14.207031 12.792969 L 11.707031 10.292969 A 1.0001 1.0001 0 0 0 11.693359 10.279297 C 11.08142 9.6904367 10.305323 9.3300781 9.5 9.3300781 C 8.694677 9.3300781 7.9185783 9.6904387 7.3066406 10.279297 A 1.0001 1.0001 0 0 0 7.2929688 10.292969 L 4 13.585938 L 4 6 C 4 4.8835859 4.8835859 4 6 4 L 18 4 C 19.116414 4 20 4.8835859 20 6 L 20 11.5 A 1 1 0 0 0 21 12.5 A 1 1 0 0 0 22 11.5 L 22 6 C 22 3.8027056 20.197294 2 18 2 L 6 2 z M 15 7 A 1 1 0 0 0 14 8 A 1 1 0 0 0 15 9 L 15.009766 9 A 1 1 0 0 0 16.009766 8 A 1 1 0 0 0 15.009766 7 L 15 7 z M 19 14 C 17.26058 14 15.876507 15.088139 15.304688 16.46875 C 14.732867 17.849361 14.941629 19.598251 16.171875 20.828125 C 16.636336 21.293697 17.351167 21.924991 18.357422 22.767578 A 1.0001 1.0001 0 0 0 19.646484 22.763672 C 20.702942 21.86905 21.407467 21.24765 21.824219 20.830078 A 1 1 0 0 0 21.828125 20.828125 L 21.828125 20.826172 C 23.057189 19.596367 23.266927 17.848862 22.695312 16.46875 C 22.123498 15.088227 20.73942 14 19 14 z M 19 16 C 19.933374 16 20.554559 16.526716 20.847656 17.234375 C 21.140754 17.942034 21.074283 18.754042 20.414062 19.414062 A 1 1 0 0 0 20.412109 19.414062 C 20.201135 19.625621 19.566887 20.171813 19 20.664062 C 18.448807 20.187635 17.843263 19.670047 17.587891 19.414062 A 1.0001 1.0001 0 0 0 17.585938 19.414062 C 16.92581 18.754042 16.859246 17.942034 17.152344 17.234375 C 17.445441 16.526716 18.066626 16 19 16 z M 19 17 A 1 1 0 0 0 18 18 L 18 18.009766 A 1 1 0 0 0 19 19.009766 A 1 1 0 0 0 20 18.009766 L 20 18 A 1 1 0 0 0 19 17 z " fill="currentColor"/>
</svg>
