<svg xmlns="http://www.w3.org/2000/svg" width="1em" height="1em" viewBox="0 0 24 24" fill="currentColor">
  <path d="M 6 2 C 3.8027056 2 2 3.8027056 2 6 L 2 16 L 2 18 C 2 20.197294 3.8027056 22 6 22 L 11.5 22 A 1 1 0 0 0 12.5 21 A 1 1 0 0 0 11.5 20 L 6 20 C 4.8835859 20 4 19.116414 4 18 L 4 16.414062 L 8.6933594 11.720703 C 9.0094217 11.416561 9.269323 11.330078 9.5 11.330078 C 9.730677 11.330078 9.9905779 11.416558 10.306641 11.720703 L 12.292969 13.707031 A 1 1 0 0 0 13.707031 13.707031 A 1 1 0 0 0 13.707031 12.292969 L 11.707031 10.292969 A 1.0001 1.0001 0 0 0 11.693359 10.279297 C 11.08142 9.6904367 10.305323 9.3300781 9.5 9.3300781 C 8.694677 9.3300781 7.9185783 9.6904387 7.3066406 10.279297 A 1.0001 1.0001 0 0 0 7.2929688 10.292969 L 4 13.585938 L 4 6 C 4 4.8835859 4.8835859 4 6 4 L 18 4 C 19.116414 4 20 4.8835859 20 6 L 20 11.5 A 1 1 0 0 0 21 12.5 A 1 1 0 0 0 22 11.5 L 22 6 C 22 3.8027056 20.197294 2 18 2 L 6 2 z M 15 7 A 1 1 0 0 0 14 8 A 1 1 0 0 0 15 9 L 15.009766 9 A 1 1 0 0 0 16.009766 8 A 1 1 0 0 0 15.009766 7 L 15 7 z M 18 14 C 17.027778 14 16.042119 14.318681 15.273438 15.001953 C 14.504755 15.685226 14 16.75 14 18 C 14 19.25 14.504756 20.314774 15.273438 20.998047 C 16.042119 21.681319 17.027778 22 18 22 C 18.709147 22 19.424566 21.829573 20.058594 21.472656 L 21.292969 22.707031 A 1 1 0 0 0 22.707031 22.707031 A 1 1 0 0 0 22.707031 21.292969 L 21.476562 20.0625 C 21.806482 19.477109 22 18.77405 22 18 C 22 16.75 21.495244 15.685226 20.726562 15.001953 C 19.957881 14.318681 18.972222 14 18 14 z M 18 16 C 18.527778 16 19.042119 16.18132 19.398438 16.498047 C 19.754756 16.814774 20 17.250001 20 18 C 20 18.749999 19.754756 19.185226 19.398438 19.501953 C 19.042119 19.81868 18.527778 20 18 20 C 17.472222 20 16.957881 19.81868 16.601562 19.501953 C 16.245244 19.185226 16 18.749999 16 18 C 16 17.250001 16.245244 16.814774 16.601562 16.498047 C 16.957881 16.18132 17.472222 16 18 16 z " fill="currentColor"/>
</svg>
