<svg xmlns="http://www.w3.org/2000/svg" width="1em" height="1em" viewBox="0 0 24 24" fill="currentColor">
  <path d="M 12 2 C 8.3166667 2 5.7580197 2.4294803 4.09375 4.09375 C 2.4294803 5.7580197 2 8.3166667 2 12 C 2 15.683333 2.4294803 18.24198 4.09375 19.90625 C 5.7580197 21.57052 8.3166667 22 12 22 C 15.683333 22 18.24198 21.57052 19.90625 19.90625 C 21.57052 18.24198 22 15.683333 22 12 C 22 8.3166667 21.57052 5.7580197 19.90625 4.09375 C 18.24198 2.4294803 15.683333 2 12 2 z M 12 4 C 15.516667 4 17.456457 4.4720822 18.492188 5.5078125 C 19.527918 6.5435428 20 8.4833333 20 12 C 20 12.555177 19.988735 13.071558 19.964844 13.550781 L 18.707031 12.292969 A 1.0001 1.0001 0 0 0 18.693359 12.279297 C 18.081418 11.690439 17.305323 11.330078 16.5 11.330078 C 15.694677 11.330078 14.918578 11.690439 14.306641 12.279297 A 1.0001 1.0001 0 0 0 14.292969 12.292969 L 14 12.585938 L 11.707031 10.292969 A 1.0001 1.0001 0 0 0 11.693359 10.279297 C 11.08142 9.6904367 10.305323 9.3300781 9.5 9.3300781 C 8.694677 9.3300781 7.9185783 9.6904387 7.3066406 10.279297 A 1.0001 1.0001 0 0 0 7.2929688 10.292969 L 4.0351562 13.550781 C 4.0112645 13.071558 4 12.555178 4 12 C 4 8.4833333 4.4720822 6.5435428 5.5078125 5.5078125 C 6.5435428 4.4720822 8.4833333 4 12 4 z M 15 7 A 1 1 0 0 0 14 8 A 1 1 0 0 0 15 9 L 15.009766 9 A 1 1 0 0 0 16.009766 8 A 1 1 0 0 0 15.009766 7 L 15 7 z M 9.5 11.330078 C 9.730677 11.330078 9.9905779 11.416558 10.306641 11.720703 L 13.292969 14.707031 L 15.292969 16.707031 A 1 1 0 0 0 16.707031 16.707031 A 1 1 0 0 0 16.707031 15.292969 L 15.414062 14 L 15.693359 13.720703 C 16.009422 13.416561 16.269323 13.330078 16.5 13.330078 C 16.730677 13.330078 16.990578 13.416558 17.306641 13.720703 L 19.658203 16.072266 C 19.411352 17.181607 19.026939 17.957436 18.492188 18.492188 C 17.456457 19.527918 15.516667 20 12 20 C 8.4833333 20 6.5435428 19.527918 5.5078125 18.492188 C 4.9730613 17.957436 4.5886478 17.181606 4.3417969 16.072266 L 8.6933594 11.720703 C 9.0094217 11.416561 9.269323 11.330078 9.5 11.330078 z " fill="currentColor"/>
</svg>
