<svg xmlns="http://www.w3.org/2000/svg" width="1em" height="1em" viewBox="0 0 24 24" fill="currentColor">
  <path d="M 3 2 A 1 1 0 0 0 2.2929688 2.2929688 A 1 1 0 0 0 2.2929688 3.7070312 L 2.5546875 3.96875 C 2.2030547 4.5658038 2 5.2618516 2 6 L 2 18 C 2 20.197294 3.8027056 22 6 22 L 17.998047 22 C 18.719266 22.001072 19.420442 21.80566 20.03125 21.445312 L 20.292969 21.707031 A 1 1 0 0 0 21.707031 21.707031 A 1 1 0 0 0 21.707031 20.292969 L 21.005859 19.591797 A 1 1 0 0 0 20.841797 19.382812 A 1 1 0 0 0 20.650391 19.236328 L 16.707031 15.292969 L 11.707031 10.292969 A 1.0001 1.0001 0 0 0 11.693359 10.279297 L 4.7949219 3.3808594 A 1 1 0 0 0 4.6269531 3.1503906 A 1 1 0 0 0 4.3769531 2.9628906 L 3.7070312 2.2929688 A 1 1 0 0 0 3 2 z M 7 2 A 1 1 0 0 0 6 3 A 1 1 0 0 0 7 4 L 18 4 C 19.116414 4 20 4.8835859 20 6 L 20 13.585938 L 18.707031 12.292969 A 1.0001 1.0001 0 0 0 18.693359 12.279297 C 18.014109 11.625106 17.125139 11.258181 16.236328 11.341797 A 1 1 0 0 0 15.333984 12.431641 A 1 1 0 0 0 16.423828 13.333984 C 16.683017 13.309604 16.955891 13.382894 17.306641 13.720703 L 20 16.414062 L 20 17 A 1 1 0 0 0 21 18 A 1 1 0 0 0 22 17 L 22 6 C 22 3.8027056 20.197294 2 18 2 L 7 2 z M 4.0664062 5.4804688 L 8.2207031 9.6347656 C 7.8909105 9.7952216 7.5821842 10.014146 7.3066406 10.279297 A 1.0001 1.0001 0 0 0 7.2929688 10.292969 L 4 13.585938 L 4 6 C 4 5.8194908 4.0225998 5.645097 4.0664062 5.4804688 z M 15 7 A 1 1 0 0 0 14 8 A 1 1 0 0 0 15 9 L 15.009766 9 A 1 1 0 0 0 16.009766 8 A 1 1 0 0 0 15.009766 7 L 15 7 z M 9.5 11.330078 C 9.7306752 11.330078 9.9905812 11.416564 10.306641 11.720703 L 15.292969 16.707031 L 18.519531 19.933594 C 18.352638 19.978198 18.17816 20.000258 18.001953 20 A 1.0001 1.0001 0 0 0 18 20 L 6 20 C 4.8835859 20 4 19.116414 4 18 L 4 16.414062 L 8.6933594 11.720703 C 9.0094217 11.416561 9.269323 11.330078 9.5 11.330078 z " fill="currentColor"/>
</svg>
