<svg xmlns="http://www.w3.org/2000/svg" width="1em" height="1em" viewBox="0 0 24 24" fill="currentColor">
  <path d="M 5 4 C 3.3549904 4 2 5.3549904 2 7 L 2 17 C 2 18.64501 3.3549904 20 5 20 L 7 20 A 1 1 0 0 0 8 19 A 1 1 0 0 0 7 18 L 5 18 C 4.4358706 18 4 17.564129 4 17 L 4 7 C 4 6.4358706 4.4358706 6 5 6 L 7 6 A 1 1 0 0 0 8 5 A 1 1 0 0 0 7 4 L 5 4 z M 17 4 A 1 1 0 0 0 16 5 A 1 1 0 0 0 17 6 L 19 6 C 19.564129 6 20 6.4358706 20 7 L 20 17 C 20 17.564129 19.564129 18 19 18 L 17 18 A 1 1 0 0 0 16 19 A 1 1 0 0 0 17 20 L 19 20 C 20.64501 20 22 18.64501 22 17 L 22 7 C 22 5.3549904 20.64501 4 19 4 L 17 4 z M 12 7 C 10.777778 7 9.5421194 7.402014 8.5859375 8.2519531 C 7.6297556 9.1018922 7 10.416667 7 12 C 7 13.583333 7.6297556 14.898108 8.5859375 15.748047 C 9.5421194 16.597986 10.777778 17 12 17 C 13.222222 17 14.45788 16.597986 15.414062 15.748047 C 16.370244 14.898108 17 13.583333 17 12 C 17 10.416667 16.370244 9.1018922 15.414062 8.2519531 C 14.45788 7.402014 13.222222 7 12 7 z M 12 9 C 12.777778 9 13.542119 9.2646532 14.085938 9.7480469 C 14.629755 10.231441 15 10.916667 15 12 C 15 13.083333 14.629756 13.768559 14.085938 14.251953 C 13.542118 14.735347 12.777778 15 12 15 C 11.222222 15 10.457881 14.735347 9.9140625 14.251953 C 9.3702444 13.768559 9 13.083333 9 12 C 9 10.916667 9.3702444 10.231441 9.9140625 9.7480469 C 10.457881 9.2646532 11.222222 9 12 9 z " fill="currentColor"/>
</svg>
