<svg xmlns="http://www.w3.org/2000/svg" width="1em" height="1em" viewBox="0 0 24 24" fill="currentColor">
  <path d="M 6 2 C 3.8027056 2 2 3.8027056 2 6 L 2 16 L 2 18 C 2 20.197294 3.8027056 22 6 22 L 13 22 A 1 1 0 0 0 14 21 A 1 1 0 0 0 13 20 L 6 20 C 4.8835859 20 4 19.116414 4 18 L 4 16.414062 L 8.6933594 11.720703 C 9.0094217 11.416561 9.269323 11.330078 9.5 11.330078 C 9.730677 11.330078 9.9905779 11.416558 10.306641 11.720703 L 12.792969 14.207031 A 1 1 0 0 0 14.207031 14.207031 A 1 1 0 0 0 14.207031 12.792969 L 11.707031 10.292969 A 1.0001 1.0001 0 0 0 11.693359 10.279297 C 11.08142 9.6904367 10.305323 9.3300781 9.5 9.3300781 C 8.694677 9.3300781 7.9185783 9.6904387 7.3066406 10.279297 A 1.0001 1.0001 0 0 0 7.2929688 10.292969 L 4 13.585938 L 4 6 C 4 4.8835859 4.8835859 4 6 4 L 18 4 C 19.116414 4 20 4.8835859 20 6 L 20 11 A 1 1 0 0 0 21 12 A 1 1 0 0 0 22 11 L 22 6 C 22 3.8027056 20.197294 2 18 2 L 6 2 z M 15 7 A 1 1 0 0 0 14 8 A 1 1 0 0 0 15 9 L 15.009766 9 A 1 1 0 0 0 16.009766 8 A 1 1 0 0 0 15.009766 7 L 15 7 z M 19 12.5 A 1 1 0 0 0 18 13.5 L 18 14 L 17 14 L 16 14 A 1 1 0 0 0 15 15 A 1 1 0 0 0 16 16 L 16 18 L 16 20 A 1 1 0 0 0 15 21 A 1 1 0 0 0 16 22 L 17 22 L 18 22 L 18 22.5 A 1 1 0 0 0 19 23.5 A 1 1 0 0 0 20 22.5 L 20 21.785156 C 20.515779 21.668759 21.055437 21.552625 21.373047 21.195312 C 21.806319 20.707881 22 20.097222 22 19.5 C 22 18.971586 21.780472 18.454845 21.445312 18 C 21.780472 17.545155 22 17.028414 22 16.5 C 22 15.902778 21.806319 15.292119 21.373047 14.804688 C 21.055437 14.447375 20.515779 14.331241 20 14.214844 L 20 13.5 A 1 1 0 0 0 19 12.5 z M 18 16 L 19 16 L 19.5 16 C 19.75 16 19.810226 16.05774 19.876953 16.132812 C 19.94368 16.207881 20 16.347222 20 16.5 C 20 16.652778 19.94368 16.792119 19.876953 16.867188 C 19.810226 16.942256 19.75 17 19.5 17 L 19 17 L 18 17 L 18 16 z M 18 19 L 19 19 L 19.5 19 C 19.75 19 19.810226 19.05774 19.876953 19.132812 C 19.94368 19.207881 20 19.347222 20 19.5 C 20 19.652778 19.94368 19.792119 19.876953 19.867188 C 19.810226 19.942256 19.75 20 19.5 20 L 19 20 L 18 20 L 18 19 z " fill="currentColor"/>
</svg>
