<svg xmlns="http://www.w3.org/2000/svg" width="1em" height="1em" viewBox="0 0 24 24" fill="currentColor">
  <path d="M 3 2 A 1 1 0 0 0 2.2929688 2.2929688 A 1 1 0 0 0 2.2929688 3.7070312 L 7.0859375 8.5 L 3.7871094 11.798828 A 1.0001 1.0001 0 0 0 3.78125 11.804688 C 2.463592 13.149237 1.9114018 14.768079 2.0058594 16.273438 C 2.1003174 17.778797 2.7964995 19.151968 3.8222656 20.177734 C 4.8480318 21.203501 6.2212028 21.899683 7.7265625 21.994141 C 9.2319222 22.088601 10.850761 21.536408 12.195312 20.21875 A 1.0001 1.0001 0 0 0 12.201172 20.212891 L 15.5 16.914062 L 20.292969 21.707031 A 1 1 0 0 0 21.707031 21.707031 A 1 1 0 0 0 21.707031 20.292969 L 16.207031 14.792969 L 9.2070312 7.7929688 L 3.7070312 2.2929688 A 1 1 0 0 0 3 2 z M 15.695312 2.0117188 C 14.3586 2.0721469 12.971403 2.6380649 11.794922 3.7910156 A 1.0001 1.0001 0 0 0 11.787109 3.7988281 L 9.7871094 5.7988281 A 1 1 0 0 0 9.7871094 7.2128906 A 1 1 0 0 0 11.201172 7.2128906 L 13.195312 5.21875 C 14.183976 4.2498601 15.179508 3.9515336 16.138672 4.0117188 C 17.097836 4.0719037 18.039386 4.5354797 18.751953 5.2480469 C 19.46452 5.9606141 19.928096 6.9021639 19.988281 7.8613281 C 20.048471 8.8204924 19.75014 9.8160228 18.78125 10.804688 L 16.787109 12.798828 A 1 1 0 0 0 16.787109 14.212891 A 1 1 0 0 0 18.201172 14.212891 L 20.201172 12.212891 A 1.0001 1.0001 0 0 0 20.208984 12.205078 C 21.526654 10.860515 22.078833 9.2416878 21.984375 7.7363281 C 21.889917 6.2309684 21.191782 4.8597505 20.166016 3.8339844 C 19.140249 2.8082182 17.769032 2.1100826 16.263672 2.015625 C 16.075502 2.0038178 15.886271 2.0030862 15.695312 2.0117188 z M 8.5 9.9140625 L 14.085938 15.5 L 10.794922 18.791016 C 9.8062172 19.759907 8.8107268 20.058232 7.8515625 19.998047 C 6.8923982 19.937862 5.9488953 19.476239 5.2363281 18.763672 C 4.5237609 18.051105 4.0621383 17.107602 4.0019531 16.148438 C 3.941768 15.189273 4.2400945 14.193742 5.2089844 13.205078 L 8.5 9.9140625 z " fill="currentColor"/>
</svg>
