<svg xmlns="http://www.w3.org/2000/svg" width="1em" height="1em" viewBox="0 0 24 24" fill="currentColor">
  <path d="M 18.996094 1.9785156 C 18.222437 1.9511296 17.39124 2.2610452 16.746094 2.9003906 L 14.796875 4.8144531 C 13.013781 4.0358542 11.060374 3.8697034 9.2421875 4.3027344 A 1 1 0 0 0 8.8613281 4.4023438 C 7.5295362 4.7852732 6.2846262 5.4966162 5.25 6.53125 L 4.53125 7.25 C 1.4338453 10.34637 1.3658459 14.629442 3.1855469 17.732422 C 4.9509305 20.742778 8.5516441 22.744603 12.613281 21.773438 C 13.061297 21.925854 13.532592 22 14 22 C 14.972222 22 15.957881 21.681319 16.726562 20.998047 C 17.459852 20.346234 17.95224 19.347653 17.996094 18.171875 C 18.758843 17.254618 19.298139 16.210424 19.611328 15.109375 A 1 1 0 0 0 19.695312 14.792969 C 20.140677 12.961127 19.973112 10.991915 19.189453 9.1992188 L 21.103516 7.2519531 A 1.0001 1.0001 0 0 0 21.126953 7.2285156 L 21.242188 7.1015625 A 1.0001 1.0001 0 0 0 21.273438 7.0683594 C 21.857526 6.3727913 22.096813 5.5187801 22.005859 4.75 C 21.914905 3.9812199 21.531846 3.312009 21 2.8222656 C 20.468154 2.3325223 19.769751 2.0059018 18.996094 1.9785156 z M 18.835938 3.9765625 C 18.866077 3.9751914 18.895511 3.975491 18.925781 3.9765625 C 19.167945 3.9851325 19.436342 4.0994615 19.646484 4.2929688 C 19.856627 4.4864761 19.991062 4.7437381 20.019531 4.984375 C 20.048001 5.2250119 20.008021 5.46236 19.740234 5.78125 L 19.666016 5.8613281 L 17.332031 8.2363281 A 1.0001 1.0001 0 0 0 17.169922 9.421875 C 17.720146 10.416352 17.993557 11.504845 18.001953 12.587891 L 11.412109 5.9980469 C 12.493637 6.006203 13.581679 6.2786811 14.578125 6.8300781 A 1.0001 1.0001 0 0 0 15.763672 6.6679688 L 18.150391 4.3242188 A 1.0001 1.0001 0 0 0 18.154297 4.3203125 C 18.413099 4.0638374 18.624961 3.98616 18.835938 3.9765625 z M 9.0136719 6.4277344 L 17.574219 14.988281 C 17.490919 15.208647 17.39429 15.424908 17.287109 15.636719 C 17.122586 15.399988 16.934463 15.186753 16.726562 15.001953 C 15.957881 14.318681 14.972222 14 14 14 C 13.027778 14 12.042119 14.318681 11.273438 15.001953 C 10.504755 15.685226 10 16.75 10 18 C 10 18.760708 10.186263 19.451977 10.505859 20.03125 C 8.0348211 20.040548 6.0466437 18.655327 4.9121094 16.720703 C 3.4938142 14.302207 3.4747813 11.135722 5.9453125 8.6660156 L 6.6660156 7.9453125 C 7.3494064 7.2619167 8.1525252 6.7536622 9.0136719 6.4277344 z M 14 16 C 14.527778 16 15.042119 16.18132 15.398438 16.498047 C 15.721995 16.785654 15.954221 17.170791 15.994141 17.800781 A 1 1 0 0 0 15.998047 17.896484 C 15.99911 17.930262 16 17.96486 16 18 C 16 18.749999 15.754756 19.185226 15.398438 19.501953 C 15.042118 19.81868 14.527778 20 14 20 C 13.750826 20 13.505312 19.958812 13.277344 19.882812 A 1 1 0 0 0 12.939453 19.736328 C 12.816632 19.66944 12.702364 19.591554 12.601562 19.501953 C 12.245243 19.185226 12 18.749999 12 18 C 12 17.250001 12.245244 16.814774 12.601562 16.498047 C 12.95788 16.18132 13.472222 16 14 16 z " fill="currentColor"/>
</svg>
