<svg xmlns="http://www.w3.org/2000/svg" width="1em" height="1em" viewBox="0 0 24 24" fill="currentColor">
  <path d="M 3 2 A 1 1 0 0 0 2.2929688 2.2929688 A 1 1 0 0 0 2.2929688 3.7070312 L 7.3769531 8.7910156 L 6.6484375 9.0644531 A 1.0001 1.0001 0 0 0 6.2929688 9.2929688 L 4.7929688 10.792969 A 1.0001 1.0001 0 0 0 4.7929688 12.207031 L 7.5859375 15 L 3.7929688 18.792969 A 1 1 0 0 0 3.7929688 20.207031 A 1 1 0 0 0 5.2070312 20.207031 L 9 16.414062 L 11.792969 19.207031 A 1.0001 1.0001 0 0 0 13.207031 19.207031 L 14.707031 17.707031 A 1.0001 1.0001 0 0 0 14.935547 17.351562 L 15.208984 16.623047 L 20.292969 21.707031 A 1 1 0 0 0 21.707031 21.707031 A 1 1 0 0 0 21.707031 20.292969 L 15.595703 14.181641 A 1 1 0 0 0 15.451172 14.037109 L 3.7070312 2.2929688 A 1 1 0 0 0 3 2 z M 14.5 3 A 1 1 0 0 0 13.792969 3.2929688 A 1 1 0 0 0 13.617188 4.46875 L 11.042969 7.0410156 A 1 1 0 0 0 11.042969 8.4570312 A 1 1 0 0 0 12.458984 8.4570312 L 15 5.9140625 L 18.085938 9 L 15.542969 11.544922 A 1 1 0 0 0 15.542969 12.958984 A 1 1 0 0 0 16.957031 12.957031 L 19.53125 10.382812 A 1 1 0 0 0 20.707031 10.207031 A 1 1 0 0 0 20.707031 8.7929688 L 20.212891 8.2988281 A 1 1 0 0 0 20.207031 8.2929688 A 1 1 0 0 0 20.201172 8.2871094 L 15.707031 3.7929688 L 15.207031 3.2929688 A 1 1 0 0 0 14.5 3 z M 8.9296875 10.34375 L 13.65625 15.070312 L 13.140625 16.445312 L 12.5 17.085938 L 6.9140625 11.5 L 7.5546875 10.859375 L 8.9296875 10.34375 z " fill="currentColor"/>
</svg>
