<svg xmlns="http://www.w3.org/2000/svg" width="1em" height="1em" viewBox="0 0 24 24" fill="currentColor">
  <path d="M 12 2 A 1.0001 1.0001 0 0 0 11.111328 2.5429688 L 2.6113281 19.058594 A 1.0001 1.0001 0 0 0 3.0546875 20.412109 C 5.7403021 21.749647 8.8021833 22.49969 11.998047 22.5 L 12 22.5 C 15.102207 22.5042 18.163384 21.790853 20.943359 20.414062 A 1.0001 1.0001 0 0 0 21.388672 19.058594 L 12.888672 2.5429688 A 1.0001 1.0001 0 0 0 12 2 z M 12 5.1835938 L 17.324219 15.529297 C 15.694509 16.171144 13.954985 16.502344 12.197266 16.5 A 1.0001 1.0001 0 0 0 12.193359 16.5 C 10.317991 16.502715 8.4652272 16.126396 6.7441406 15.398438 L 12 5.1835938 z M 13 10 A 1 1 0 0 0 12 11 L 12 11.009766 A 1 1 0 0 0 13 12.009766 A 1 1 0 0 0 14 11.009766 L 14 11 A 1 1 0 0 0 13 10 z M 11 12.990234 A 1 1 0 0 0 10 13.990234 L 10 14 A 1 1 0 0 0 11 15 A 1 1 0 0 0 12 14 L 12 13.990234 A 1 1 0 0 0 11 12.990234 z M 5.8261719 17.181641 C 7.8332694 18.053145 10.002163 18.50313 12.197266 18.5 C 14.27309 18.502248 16.326038 18.098883 18.242188 17.316406 L 19.091797 18.966797 C 16.844338 19.924743 14.452172 20.503559 12.001953 20.5 A 1 1 0 0 0 12 20.5 C 9.4765213 20.5 7.088856 19.902883 4.90625 18.96875 L 5.8261719 17.181641 z " fill="currentColor"/>
</svg>
