<svg xmlns="http://www.w3.org/2000/svg" width="1em" height="1em" viewBox="0 0 24 24" fill="currentColor">
  <path d="M 3 2 A 1.0001 1.0001 0 0 0 2 3 L 2 5 C 2 8.8541486 5.1458514 12 9 12 L 11 12 L 11 14 L 7 14 A 1 1 0 0 0 6 15 L 6 19 C 6 20.64501 7.3549904 22 9 22 L 15 22 C 16.64501 22 18 20.64501 18 19 L 18 15 A 1.0001 1.0001 0 0 0 17 14 L 13 14 L 13 13 L 15 13 C 18.854149 13 22 9.8541486 22 6 L 22 5 A 1.0001 1.0001 0 0 0 21 4 L 18 4 C 15.814446 4 13.855861 5.0111465 12.570312 6.5898438 C 11.584107 3.915989 9.0081959 2 6 2 L 3 2 z M 4 4 L 6 4 C 8.7732684 4 11 6.2267316 11 9 L 11 10 L 9 10 C 6.2267316 10 4 7.7732684 4 5 L 4 4 z M 18 6 L 20 6 C 20 8.7732684 17.773268 11 15 11 L 13 11 C 13 8.2267316 15.226732 6 18 6 z M 8 16 L 12 16 L 16 16 L 16 19 C 16 19.564129 15.564129 20 15 20 L 9 20 C 8.4358706 20 8 19.564129 8 19 L 8 16 z " fill="currentColor"/>
</svg>
