<svg xmlns="http://www.w3.org/2000/svg" width="1em" height="1em" viewBox="0 0 24 24" fill="currentColor">
  <path d="M 3 2 A 1 1 0 0 0 2.8691406 2.0078125 A 1 1 0 0 0 2.6171875 2.0761719 A 1 1 0 0 0 2.0761719 2.6171875 A 1 1 0 0 0 2.0078125 2.8691406 A 1 1 0 0 0 2 3 L 2 5 C 2 8.8541486 5.1458514 12 9 12 L 10.585938 12 L 11 12.414062 L 11 14 L 7 14 A 1.0001 1.0001 0 0 0 6 15 L 6 19 C 6 20.64501 7.3549904 22 9 22 L 15 22 C 16.513439 22 17.781464 20.853161 17.974609 19.388672 L 20.292969 21.707031 A 1 1 0 0 0 21.707031 21.707031 A 1 1 0 0 0 21.707031 20.292969 L 17.716797 16.302734 A 1 1 0 0 0 17.697266 16.283203 L 15.716797 14.302734 A 1 1 0 0 0 15.697266 14.283203 L 12.716797 11.302734 A 1 1 0 0 0 12.697266 11.283203 L 11.716797 10.302734 A 1 1 0 0 0 11.697266 10.283203 L 3.7167969 2.3027344 A 1 1 0 0 0 3.6582031 2.25 A 1 1 0 0 0 3.6191406 2.2148438 A 1 1 0 0 0 3.5605469 2.1757812 A 1 1 0 0 0 3.5078125 2.1386719 A 1 1 0 0 0 3.5 2.1347656 A 1 1 0 0 0 3.3886719 2.078125 A 1 1 0 0 0 3.3828125 2.0761719 A 1 1 0 0 0 3.2578125 2.0351562 A 1 1 0 0 0 3.2050781 2.0234375 A 1 1 0 0 0 3 2 z M 7.1660156 2.1035156 A 1 1 0 0 0 6.1269531 2.9160156 A 1 1 0 0 0 6.9257812 4.0839844 C 8.9590524 4.4667766 10.540006 6.0553076 10.916016 8.0898438 A 1 1 0 0 0 11.585938 8.8574219 A 1 1 0 0 0 12.119141 9.4394531 A 1 1 0 0 0 13.441406 8.9394531 C 14.251969 7.1468031 16.032614 5.999378 18 6 L 20 6 C 20.000322 8.4588789 18.229736 10.540897 15.802734 10.935547 A 1 1 0 0 0 14.976562 12.083984 A 1 1 0 0 0 16.123047 12.910156 C 19.504357 12.360328 22.000448 9.425722 22 6 L 22 5 A 1.0001 1.0001 0 0 0 21 4 L 18 4 C 15.864685 3.999325 13.878939 4.9715378 12.568359 6.5800781 C 11.727855 4.2976258 9.7396036 2.5793868 7.2949219 2.1191406 A 1 1 0 0 0 7.1660156 2.1035156 z M 4.0214844 5.4355469 L 8.5644531 9.9785156 C 6.1411234 9.7717411 4.2282589 7.8588766 4.0214844 5.4355469 z M 8 16 L 14.585938 16 L 16 17.414062 L 16 19 C 16 19.564129 15.564129 20 15 20 L 9 20 C 8.4358706 20 8 19.564129 8 19 L 8 16 z " fill="currentColor"/>
</svg>
