<svg xmlns="http://www.w3.org/2000/svg" width="1em" height="1em" viewBox="0 0 24 24" fill="currentColor">
  <path d="M 7 2 C 5.3549904 2 4 3.3549904 4 5 L 4 19 C 4 20.64501 5.3549904 22 7 22 L 17 22 C 18.64501 22 20 20.64501 20 19 L 20 5 C 20 3.3549904 18.64501 2 17 2 L 7 2 z M 7 4 L 17 4 C 17.564129 4 18 4.4358706 18 5 L 18 19 C 18 19.564129 17.564129 20 17 20 L 7 20 C 6.4358706 20 6 19.564129 6 19 L 6 5 C 6 4.4358706 6.4358706 4 7 4 z M 8 5 A 1 1 0 0 0 7 6 A 1 1 0 0 0 8 7 L 8.0097656 7 A 1 1 0 0 0 9.0097656 6 A 1 1 0 0 0 8.0097656 5 L 8 5 z M 10 8 A 1 1 0 0 0 9 9 A 1 1 0 0 0 10 10 L 12.611328 10 L 11.050781 14.683594 A 1 1 0 0 0 11.683594 15.949219 A 1 1 0 0 0 12.949219 15.316406 L 14.949219 9.3164062 A 1.0001 1.0001 0 0 0 14 8 L 10 8 z M 16 17 A 1 1 0 0 0 15 18 A 1 1 0 0 0 16 19 L 16.009766 19 A 1 1 0 0 0 17.009766 18 A 1 1 0 0 0 16.009766 17 L 16 17 z " fill="currentColor"/>
</svg>
