<svg xmlns="http://www.w3.org/2000/svg" width="1em" height="1em" viewBox="0 0 24 24" fill="currentColor">
  <path d="M 12 2 C 6.4889971 2 2 6.4889971 2 12 C 2 17.511003 6.4889971 22 12 22 C 17.511003 22 22 17.511003 22 12 C 22 6.4889971 17.511003 2 12 2 z M 12 4 C 16.430123 4 20 7.5698774 20 12 C 20 16.430123 16.430123 20 12 20 C 7.5698774 20 4 16.430123 4 12 C 4 7.5698774 7.5698774 4 12 4 z M 12 6.5 C 10.652778 6.5 9.2921194 6.9436807 8.2421875 7.8769531 C 7.1922556 8.8102255 6.5 10.250001 6.5 12 C 6.5 13.749999 7.1922556 15.189774 8.2421875 16.123047 C 9.2921194 17.056319 10.652778 17.5 12 17.5 C 13.347222 17.5 14.70788 17.056319 15.757812 16.123047 C 16.807744 15.189774 17.5 13.749999 17.5 12 C 17.5 10.250001 16.807744 8.8102255 15.757812 7.8769531 C 14.70788 6.9436807 13.347222 6.5 12 6.5 z M 12 8.5 C 12.902778 8.5 13.792119 8.8063199 14.429688 9.3730469 C 15.067255 9.9397738 15.5 10.750001 15.5 12 C 15.5 13.249999 15.067256 14.060226 14.429688 14.626953 C 13.792118 15.19368 12.902778 15.5 12 15.5 C 11.097222 15.5 10.207881 15.19368 9.5703125 14.626953 C 8.9327444 14.060226 8.5 13.249999 8.5 12 C 8.5 10.750001 8.9327444 9.9397738 9.5703125 9.3730469 C 10.207881 8.8063199 11.097222 8.5 12 8.5 z " fill="currentColor"/>
</svg>
