<svg xmlns="http://www.w3.org/2000/svg" width="1em" height="1em" viewBox="0 0 24 24" fill="currentColor">
  <path d="M 7 2 C 5.3549904 2 4 3.3549904 4 5 L 4 19 C 4 20.64501 5.3549904 22 7 22 L 17 22 C 18.64501 22 20 20.64501 20 19 L 20 5 C 20 3.3549904 18.64501 2 17 2 L 7 2 z M 7 4 L 17 4 C 17.564129 4 18 4.4358706 18 5 L 18 19 C 18 19.564129 17.564129 20 17 20 L 7 20 C 6.4358706 20 6 19.564129 6 19 L 6 5 C 6 4.4358706 6.4358706 4 7 4 z M 8 5 A 1 1 0 0 0 7 6 A 1 1 0 0 0 8 7 L 8.0097656 7 A 1 1 0 0 0 9.0097656 6 A 1 1 0 0 0 8.0097656 5 L 8 5 z M 12 8 C 11.277778 8 10.542119 8.2353472 9.9609375 8.7519531 C 9.3797556 9.268559 9 10.083334 9 11 L 9 13 L 9 15 A 1 1 0 0 0 10 16 A 1 1 0 0 0 11 15 L 11 14 L 13 14 L 13 15 A 1 1 0 0 0 14 16 A 1 1 0 0 0 15 15 L 15 13 L 15 11 C 15 10.083334 14.620244 9.268559 14.039062 8.7519531 C 13.45788 8.2353472 12.722222 8 12 8 z M 12 10 C 12.277778 10 12.542119 10.09799 12.710938 10.248047 C 12.879755 10.398107 13 10.583334 13 11 L 13 12 L 11 12 L 11 11 C 11 10.583334 11.120244 10.398107 11.289062 10.248047 C 11.45788 10.097986 11.722222 10 12 10 z M 16 17 A 1 1 0 0 0 15 18 A 1 1 0 0 0 16 19 L 16.009766 19 A 1 1 0 0 0 17.009766 18 A 1 1 0 0 0 16.009766 17 L 16 17 z " fill="currentColor"/>
</svg>
