<svg xmlns="http://www.w3.org/2000/svg" width="1em" height="1em" viewBox="0 0 24 24" fill="currentColor">
  <path d="M 7 3 A 1 1 0 0 0 6.9453125 3.0546875 A 1 1 0 0 0 6.1484375 3.4765625 A 1 1 0 0 0 6.2207031 3.7792969 A 1 1 0 0 0 6 4 L 6 20 A 1.0001 1.0001 0 0 0 7.5234375 20.851562 L 20.523438 12.851562 A 1.0001 1.0001 0 0 0 20.523438 11.148438 L 7.5234375 3.1484375 A 1 1 0 0 0 7.0761719 3.0761719 A 1 1 0 0 0 7 3 z M 8 5.7890625 L 18.09375 12 L 8 18.210938 L 8 5.7890625 z " fill="currentColor"/>
</svg>
