<svg xmlns="http://www.w3.org/2000/svg" width="1em" height="1em" viewBox="0 0 24 24" fill="currentColor">
  <path d="M 4 4 A 1 1 0 0 0 3.6347656 4.3652344 A 1 1 0 0 0 3.1367188 4.4960938 A 1 1 0 0 0 3.2128906 4.7871094 A 1 1 0 0 0 3 5 L 3 19 A 1.0001 1.0001 0 0 0 4.5039062 19.863281 L 16.503906 12.863281 A 1.0001 1.0001 0 0 0 16.503906 11.136719 L 4.5039062 4.1367188 A 1 1 0 0 0 4.2128906 4.2128906 A 1 1 0 0 0 4 4 z M 20 4 A 1 1 0 0 0 19 5 L 19 19 A 1 1 0 0 0 20 20 A 1 1 0 0 0 21 19 L 21 5 A 1 1 0 0 0 20 4 z M 5 6.7402344 L 14.015625 12 L 5 17.259766 L 5 6.7402344 z " fill="currentColor"/>
</svg>
