<svg xmlns="http://www.w3.org/2000/svg" width="1em" height="1em" viewBox="0 0 24 24" fill="currentColor">
  <path d="M 9.5 3 C 9.0833333 3 8.6435592 3.1922556 8.3769531 3.4921875 C 8.1103471 3.7921194 8 4.1527779 8 4.5 C 8 4.8472221 8.1103471 5.2078806 8.3769531 5.5078125 C 8.6435592 5.8077444 9.0833333 6 9.5 6 A 1 1 0 0 0 10.214844 5.6855469 C 10.347805 5.6091339 10.526243 5.6167169 10.623047 5.5078125 C 10.889653 5.2078806 11 4.8472221 11 4.5 C 11 4.1527779 10.889653 3.7921194 10.623047 3.4921875 C 10.356441 3.1922556 9.9166667 3 9.5 3 z M 16 5 C 15.527778 5 15.042119 5.1520138 14.648438 5.5019531 C 14.254755 5.8518924 14 6.4166667 14 7 C 14 7.5833333 14.254756 8.1481076 14.648438 8.4980469 C 15.042118 8.8479862 15.527778 9 16 9 C 16.472222 9 16.957881 8.8479862 17.351562 8.4980469 C 17.745244 8.1481076 18 7.5833333 18 7 C 18 6.4166667 17.745244 5.8518924 17.351562 5.5019531 C 16.957881 5.1520138 16.472222 5 16 5 z M 6.9296875 5.0019531 A 1 1 0 0 0 6.5527344 5.1054688 A 1 1 0 0 0 6.1054688 6.4472656 L 8.1054688 10.447266 A 1.0001 1.0001 0 0 0 8.9003906 10.994141 L 12.523438 11.357422 L 11.085938 14.59375 A 1.0001 1.0001 0 0 0 11.335938 15.748047 L 14.794922 18.822266 L 12.503906 20.130859 A 1 1 0 0 0 12.130859 21.496094 A 1 1 0 0 0 13.496094 21.869141 L 16.996094 19.869141 A 1.0001 1.0001 0 0 0 17.164062 18.251953 L 13.210938 14.738281 L 14.445312 11.958984 L 17.333984 13.763672 L 19.732422 16.640625 A 1 1 0 0 0 21.140625 16.767578 A 1 1 0 0 0 21.267578 15.359375 L 18.767578 12.359375 A 1.0001 1.0001 0 0 0 18.529297 12.152344 L 14.566406 9.6757812 A 1 1 0 0 0 14.529297 9.6523438 A 1.0001 1.0001 0 0 0 14.525391 9.6503906 A 1 1 0 0 0 14.40625 9.5859375 A 1 1 0 0 0 14.212891 9.5234375 A 1.0001 1.0001 0 0 0 14.208984 9.5234375 A 1 1 0 0 0 14.099609 9.5058594 L 14.050781 9.5 A 1 1 0 0 0 14.042969 9.5 L 9.6484375 9.0605469 L 7.8945312 5.5527344 A 1 1 0 0 0 7.3164062 5.0507812 A 1 1 0 0 0 6.9296875 5.0019531 z M 10.490234 16 A 1 1 0 0 0 10.359375 16.009766 A 1 1 0 0 0 9.6992188 16.400391 L 8.4296875 18.09375 L 3.8046875 19.019531 A 1 1 0 0 0 3.0195312 20.195312 A 1 1 0 0 0 4.1953125 20.980469 L 9.1953125 19.980469 A 1.0001 1.0001 0 0 0 9.8007812 19.599609 L 11.300781 17.599609 A 1 1 0 0 0 11.099609 16.199219 A 1 1 0 0 0 10.490234 16 z " fill="currentColor"/>
</svg>
