<svg xmlns="http://www.w3.org/2000/svg" width="1em" height="1em" viewBox="0 0 24 24" fill="currentColor">
  <path d="M 7 2 C 5.3549904 2 4 3.3549904 4 5 L 4 19 C 4 20.64501 5.3549904 22 7 22 L 17 22 C 18.64501 22 20 20.64501 20 19 L 20 5 C 20 3.3549904 18.64501 2 17 2 L 7 2 z M 7 4 L 17 4 C 17.564129 4 18 4.4358706 18 5 L 18 19 C 18 19.564129 17.564129 20 17 20 L 7 20 C 6.4358706 20 6 19.564129 6 19 L 6 5 C 6 4.4358706 6.4358706 4 7 4 z M 8 5 A 1 1 0 0 0 7 6 A 1 1 0 0 0 8 7 L 8.0097656 7 A 1 1 0 0 0 9.0097656 6 A 1 1 0 0 0 8.0097656 5 L 8 5 z M 10 8 A 1 1 0 0 0 9 9 A 1 1 0 0 0 10 10 L 12.5 10 C 12.75 10 12.810226 10.057739 12.876953 10.132812 C 12.94368 10.20788 13 10.347222 13 10.5 C 13 10.652778 12.94368 10.792119 12.876953 10.867188 C 12.810226 10.942255 12.75 11 12.5 11 L 11 11 A 1.0001 1.0001 0 0 0 11 13 L 12.5 13 C 12.75 13 12.810226 13.05774 12.876953 13.132812 C 12.94368 13.20788 13 13.347222 13 13.5 C 13 13.652778 12.94368 13.792119 12.876953 13.867188 C 12.810226 13.942255 12.75 14 12.5 14 L 10 14 A 1 1 0 0 0 9 15 A 1 1 0 0 0 10 16 L 12.5 16 C 13.25 16 13.939774 15.682744 14.373047 15.195312 C 14.806319 14.70788 15 14.097222 15 13.5 C 15 12.971586 14.780471 12.454845 14.445312 12 C 14.780471 11.545155 15 11.028414 15 10.5 C 15 9.9027779 14.806319 9.2921194 14.373047 8.8046875 C 13.939774 8.3172556 13.25 8 12.5 8 L 10 8 z M 16 17 A 1 1 0 0 0 15 18 A 1 1 0 0 0 16 19 L 16.009766 19 A 1 1 0 0 0 17.009766 18 A 1 1 0 0 0 16.009766 17 L 16 17 z " fill="currentColor"/>
</svg>
