<svg xmlns="http://www.w3.org/2000/svg" width="1em" height="1em" viewBox="0 0 24 24" fill="currentColor">
  <path d="M 7 2 C 5.3549904 2 4 3.3549904 4 5 L 4 19 C 4 20.64501 5.3549904 22 7 22 L 17 22 C 18.64501 22 20 20.64501 20 19 L 20 5 C 20 3.3549904 18.64501 2 17 2 L 7 2 z M 7 4 L 17 4 C 17.564129 4 18 4.4358706 18 5 L 18 19 C 18 19.564129 17.564129 20 17 20 L 7 20 C 6.4358706 20 6 19.564129 6 19 L 6 5 C 6 4.4358706 6.4358706 4 7 4 z M 8 5 A 1 1 0 0 0 7 6 A 1 1 0 0 0 8 7 L 8.0097656 7 A 1 1 0 0 0 9.0097656 6 A 1 1 0 0 0 8.0097656 5 L 8 5 z M 9 8 A 1 1 0 0 0 8 9 L 8 15 A 1 1 0 0 0 9 16 A 1 1 0 0 0 10 15 L 10 9 A 1 1 0 0 0 9 8 z M 13.5 8 C 12.725694 8 12.056697 8.4291541 11.638672 8.9863281 C 11.220647 9.5435022 11 10.244785 11 11 L 11 13 C 11 13.755215 11.220647 14.456498 11.638672 15.013672 C 12.056697 15.570846 12.725694 16 13.5 16 C 14.274306 16 14.943303 15.570846 15.361328 15.013672 C 15.779353 14.456498 16 13.755215 16 13 L 16 11 C 16 10.244785 15.779353 9.5435022 15.361328 8.9863281 C 14.943303 8.4291541 14.274306 8 13.5 8 z M 13.5 10 C 13.55369 10 13.634791 10.01897 13.759766 10.185547 C 13.884741 10.352123 14 10.650215 14 11 L 14 13 C 14 13.349785 13.884741 13.647877 13.759766 13.814453 C 13.634791 13.981029 13.553694 14 13.5 14 C 13.446306 14 13.365209 13.981029 13.240234 13.814453 C 13.115259 13.647877 13 13.349785 13 13 L 13 11 C 13 10.650215 13.115259 10.352123 13.240234 10.185547 C 13.365209 10.018971 13.446306 10 13.5 10 z M 16 17 A 1 1 0 0 0 15 18 A 1 1 0 0 0 16 19 L 16.009766 19 A 1 1 0 0 0 17.009766 18 A 1 1 0 0 0 16.009766 17 L 16 17 z " fill="currentColor"/>
</svg>
