<svg xmlns="http://www.w3.org/2000/svg" width="1em" height="1em" viewBox="0 0 24 24" fill="currentColor">
  <path d="M 12 2 C 6.4889971 2 2 6.4889971 2 12 C 2 17.511003 6.4889971 22 12 22 C 17.511003 22 22 17.511003 22 12 C 22 6.4889971 17.511003 2 12 2 z M 12 4 C 16.430123 4 20 7.5698774 20 12 C 20 16.430123 16.430123 20 12 20 C 7.5698774 20 4 16.430123 4 12 C 4 7.5698774 7.5698774 4 12 4 z M 12 6 A 1.0001 1.0001 0 0 0 11.128906 6.5097656 L 6.6289062 14.509766 A 1 1 0 0 0 6.5800781 14.919922 A 1 1 0 0 0 6.5 15 A 1 1 0 0 0 6.5625 15.0625 A 1 1 0 0 0 7.0097656 15.871094 A 1 1 0 0 0 7.4199219 15.919922 A 1 1 0 0 0 7.5 16 L 16.5 16 A 1.0001 1.0001 0 0 0 17.371094 14.509766 L 12.871094 6.5097656 A 1.0001 1.0001 0 0 0 12 6 z M 12 9.0390625 L 14.791016 14 L 9.2089844 14 L 12 9.0390625 z " fill="currentColor"/>
</svg>
