<svg xmlns="http://www.w3.org/2000/svg" width="1em" height="1em" viewBox="0 0 24 24" fill="currentColor">
  <path d="M 7 4 C 5.9072751 4 5 4.9072751 5 6 L 5 18 C 5 19.092725 5.9072751 20 7 20 L 9 20 C 10.092725 20 11 19.092725 11 18 L 11 6 C 11 4.9072751 10.092725 4 9 4 L 7 4 z M 15 4 C 13.907275 4 13 4.9072751 13 6 L 13 18 C 13 19.092725 13.907275 20 15 20 L 17 20 C 18.092725 20 19 19.092725 19 18 L 19 6 C 19 4.9072751 18.092725 4 17 4 L 15 4 z M 7 6 L 9 6 L 9 18 L 7 18 L 7 6 z M 15 6 L 17 6 L 17 18 L 15 18 L 15 6 z " fill="currentColor"/>
</svg>
