<svg xmlns="http://www.w3.org/2000/svg" width="1em" height="1em" viewBox="0 0 24 24" fill="currentColor">
  <path d="M 15 3 A 1 1 0 0 0 14.292969 3.2929688 L 11.392578 6.1933594 L 10.492188 5.2929688 A 1 1 0 0 0 9.7851562 5 A 1 1 0 0 0 9.078125 5.2929688 L 7.0371094 7.3339844 C 5.4320716 8.8772564 4.7539699 10.748406 4.84375 12.5 C 4.9158507 13.906674 5.4535215 15.219317 6.2832031 16.302734 L 3.2929688 19.292969 A 1 1 0 0 0 3.2929688 20.707031 A 1 1 0 0 0 4.7070312 20.707031 L 7.6972656 17.716797 C 8.7806831 18.546478 10.093325 19.084149 11.5 19.15625 C 13.251594 19.24603 15.122744 18.567928 16.666016 16.962891 L 18.707031 14.921875 A 1.0001 1.0001 0 0 0 18.707031 13.507812 L 17.806641 12.607422 L 20.707031 9.7070312 A 1 1 0 0 0 20.707031 8.2929688 A 1 1 0 0 0 19.292969 8.2929688 L 16.392578 11.193359 L 12.806641 7.6074219 L 15.707031 4.7070312 A 1 1 0 0 0 15.707031 3.2929688 A 1 1 0 0 0 15 3 z M 9.7851562 7.4140625 L 16.585938 14.214844 L 15.238281 15.5625 A 1.0001 1.0001 0 0 0 15.224609 15.576172 C 14.030087 16.818502 12.795373 17.221246 11.603516 17.160156 C 10.411656 17.099068 9.2398551 16.525011 8.3574219 15.642578 C 7.4749887 14.760145 6.9009339 13.588342 6.8398438 12.396484 C 6.7787537 11.204627 7.1814976 9.9699133 8.4238281 8.7753906 A 1.0001 1.0001 0 0 0 8.4375 8.7617188 L 9.7851562 7.4140625 z " fill="currentColor"/>
</svg>
