<svg xmlns="http://www.w3.org/2000/svg" width="1em" height="1em" viewBox="0 0 24 24" fill="currentColor">
  <path d="M 7 3 A 1 1 0 0 0 6 4 L 6 6 L 4 6 A 1 1 0 0 0 3 7 A 1 1 0 0 0 4 8 L 6 8 L 6 10 A 1 1 0 0 0 7 11 A 1 1 0 0 0 8 10 L 8 8 L 10 8 A 1 1 0 0 0 11 7 A 1 1 0 0 0 10 6 L 8 6 L 8 4 A 1 1 0 0 0 7 3 z M 19 4 A 1 1 0 0 0 18.292969 4.2929688 L 4.2929688 18.292969 A 1 1 0 0 0 4.2929688 19.707031 A 1 1 0 0 0 5.7070312 19.707031 L 19.707031 5.7070312 A 1 1 0 0 0 19.707031 4.2929688 A 1 1 0 0 0 19 4 z M 14 17 A 1 1 0 0 0 13 18 A 1 1 0 0 0 14 19 L 20 19 A 1 1 0 0 0 21 18 A 1 1 0 0 0 20 17 L 14 17 z " fill="currentColor"/>
</svg>
