<svg xmlns="http://www.w3.org/2000/svg" width="1em" height="1em" viewBox="0 0 24 24" fill="currentColor">
  <path d="M 4.0136719 3 A 1.0001 1.0001 0 0 0 3.0390625 4.2773438 L 6.9277344 17.78125 C 7.1384685 18.727975 7.942876 19.367605 8.7734375 19.482422 C 9.5751826 19.593255 10.485203 19.225411 10.960938 18.431641 L 10.972656 18.414062 C 10.973855 18.412017 10.975369 18.410254 10.976562 18.408203 L 12.394531 16.308594 A 1 1 0 0 0 13.716797 16.271484 A 1 1 0 0 0 13.716797 14.857422 L 12.929688 14.070312 A 1.0001 1.0001 0 0 0 11.392578 14.21875 L 9.3027344 17.310547 A 1.0001 1.0001 0 0 0 9.2519531 17.396484 C 9.1847828 17.521276 9.140174 17.512628 9.0488281 17.5 C 8.9574822 17.487372 8.9116525 17.484042 8.8808594 17.345703 A 1.0001 1.0001 0 0 0 8.8652344 17.287109 L 5.4609375 5.4609375 L 17.306641 8.8652344 A 1.0001 1.0001 0 0 0 17.365234 8.8808594 C 17.503638 8.9115794 17.506861 8.9574674 17.519531 9.0488281 C 17.532201 9.1401881 17.540831 9.1847268 17.416016 9.2519531 A 1.0001 1.0001 0 0 0 17.333984 9.3027344 L 14.220703 11.392578 A 1 1 0 0 0 13.947266 12.779297 A 1 1 0 0 0 15.335938 13.052734 L 18.433594 10.972656 C 19.23984 10.499715 19.613991 9.5812676 19.501953 8.7734375 C 19.386756 7.9428277 18.745824 7.1379281 17.798828 6.9277344 L 4.2753906 3.0390625 A 1.0001 1.0001 0 0 0 4.0136719 3 z M 19 13 A 1 1 0 0 0 18 14 L 18 14.046875 C 17.449554 14.152476 16.9617 14.428098 16.626953 14.804688 C 16.193681 15.292118 16 15.902778 16 16.5 C 16 17.097222 16.193681 17.707881 16.626953 18.195312 C 17.060226 18.682744 17.75 19 18.5 19 L 19.5 19 C 19.75 19 19.810226 19.05774 19.876953 19.132812 C 19.94368 19.207881 20 19.347222 20 19.5 C 20 19.652778 19.94368 19.792119 19.876953 19.867188 C 19.810226 19.942256 19.75 20 19.5 20 L 19 20 L 17 20 A 1 1 0 0 0 16 21 A 1 1 0 0 0 17 22 L 18 22 A 1 1 0 0 0 19 23 A 1 1 0 0 0 20 22 L 20 21.953125 C 20.550446 21.847524 21.0383 21.571902 21.373047 21.195312 C 21.806319 20.707881 22 20.097222 22 19.5 C 22 18.902778 21.806319 18.292119 21.373047 17.804688 C 20.939774 17.317256 20.25 17 19.5 17 L 18.5 17 C 18.25 17 18.189774 16.942256 18.123047 16.867188 C 18.05632 16.792119 18 16.652778 18 16.5 C 18 16.347222 18.05632 16.207881 18.123047 16.132812 C 18.189774 16.057744 18.25 16 18.5 16 L 19 16 L 21 16 A 1 1 0 0 0 22 15 A 1 1 0 0 0 21 14 L 20 14 A 1 1 0 0 0 19 13 z " fill="currentColor"/>
</svg>
