<svg xmlns="http://www.w3.org/2000/svg" width="1em" height="1em" viewBox="0 0 24 24" fill="currentColor">
  <path d="M 4.0136719 3 A 1.0001 1.0001 0 0 0 3.0390625 4.2773438 L 6.9277344 17.78125 C 7.1384685 18.727975 7.942876 19.367605 8.7734375 19.482422 C 9.5751267 19.593248 10.485176 19.225296 10.960938 18.431641 L 10.972656 18.414062 C 10.973855 18.412017 10.975369 18.410254 10.976562 18.408203 L 12.431641 16.255859 A 1 1 0 0 0 13.599609 16.154297 A 1 1 0 0 0 13.599609 14.740234 L 12.929688 14.070312 A 1.0001 1.0001 0 0 0 11.392578 14.21875 L 9.3027344 17.310547 A 1.0001 1.0001 0 0 0 9.2519531 17.396484 C 9.1847828 17.521276 9.140174 17.512628 9.0488281 17.5 C 8.9574822 17.487372 8.9116525 17.484042 8.8808594 17.345703 A 1.0001 1.0001 0 0 0 8.8652344 17.287109 L 5.4609375 5.4609375 L 17.306641 8.8652344 A 1.0001 1.0001 0 0 0 17.365234 8.8808594 C 17.503638 8.9115794 17.506861 8.9574674 17.519531 9.0488281 C 17.532201 9.1401881 17.540831 9.1847268 17.416016 9.2519531 A 1.0001 1.0001 0 0 0 17.333984 9.3027344 L 14.220703 11.392578 A 1.0001 1.0001 0 0 0 14.070312 12.929688 L 15.052734 13.910156 A 1 1 0 0 0 16.466797 13.910156 A 1 1 0 0 0 16.466797 12.496094 L 16.345703 12.375 L 18.433594 10.972656 C 19.239834 10.499713 19.61399 9.5812649 19.501953 8.7734375 C 19.386756 7.9428277 18.745824 7.1379281 17.798828 6.9277344 L 4.2753906 3.0390625 A 1.0001 1.0001 0 0 0 4.0136719 3 z M 17 16 A 1 1 0 0 0 16.292969 16.292969 L 14.292969 18.292969 A 1.0001 1.0001 0 0 0 14.292969 19.707031 L 16.292969 21.707031 A 1 1 0 0 0 17.707031 21.707031 A 1 1 0 0 0 17.707031 20.292969 L 16.414062 19 L 17.707031 17.707031 A 1 1 0 0 0 17.707031 16.292969 A 1 1 0 0 0 17 16 z M 20 16 A 1 1 0 0 0 19.292969 16.292969 A 1 1 0 0 0 19.292969 17.707031 L 20.585938 19 L 19.292969 20.292969 A 1 1 0 0 0 19.292969 21.707031 A 1 1 0 0 0 20.707031 21.707031 L 22.707031 19.707031 A 1.0001 1.0001 0 0 0 22.707031 18.292969 L 20.707031 16.292969 A 1 1 0 0 0 20 16 z " fill="currentColor"/>
</svg>
