<svg xmlns="http://www.w3.org/2000/svg" width="1em" height="1em" viewBox="0 0 24 24" fill="currentColor">
  <path d="M 4.0136719 3 A 1.0001 1.0001 0 0 0 3.0390625 4.2773438 L 6.9277344 17.78125 C 7.1384685 18.727975 7.942876 19.367605 8.7734375 19.482422 C 9.5751681 19.593253 10.485196 19.225381 10.960938 18.431641 L 10.972656 18.414062 C 10.973855 18.412017 10.975369 18.410254 10.976562 18.408203 L 12.416016 16.277344 A 1 1 0 0 0 13.642578 16.199219 A 1 1 0 0 0 13.642578 14.785156 L 12.929688 14.070312 A 1.0001 1.0001 0 0 0 11.392578 14.21875 L 9.3027344 17.310547 A 1.0001 1.0001 0 0 0 9.2519531 17.396484 C 9.1847828 17.521281 9.140174 17.512628 9.0488281 17.5 C 8.9574822 17.487372 8.9116525 17.484042 8.8808594 17.345703 A 1.0001 1.0001 0 0 0 8.8652344 17.287109 L 5.4609375 5.4609375 L 17.306641 8.8652344 A 1.0001 1.0001 0 0 0 17.365234 8.8808594 C 17.503638 8.9115794 17.506861 8.9574674 17.519531 9.0488281 C 17.532201 9.1401881 17.540831 9.1847268 17.416016 9.2519531 A 1.0001 1.0001 0 0 0 17.333984 9.3027344 L 14.220703 11.392578 A 1.0001 1.0001 0 0 0 14.070312 12.929688 L 14.818359 13.677734 A 1 1 0 0 0 16.232422 13.677734 A 1 1 0 0 0 16.292969 12.410156 L 18.433594 10.972656 C 19.239845 10.499716 19.613991 9.5812712 19.501953 8.7734375 C 19.386756 7.9428277 18.745824 7.1379281 17.798828 6.9277344 L 4.2753906 3.0390625 A 1.0001 1.0001 0 0 0 4.0136719 3 z M 19 15 C 18.027778 15 17.042119 15.318681 16.273438 16.001953 C 15.504756 16.685226 15 17.75 15 19 C 15 20.25 15.504756 21.314774 16.273438 21.998047 C 17.042119 22.681319 18.027778 23 19 23 C 19.972222 23 20.957881 22.681319 21.726562 21.998047 C 22.495244 21.314774 23 20.25 23 19 C 23 17.75 22.495244 16.685226 21.726562 16.001953 C 20.957881 15.318681 19.972222 15 19 15 z M 19 17 C 19.178556 17 19.355509 17.020818 19.525391 17.060547 L 17.048828 19.537109 C 17.016537 19.378241 17 19.199858 17 19 C 17 18.250001 17.245244 17.814774 17.601562 17.498047 C 17.957881 17.18132 18.472222 17 19 17 z M 20.951172 18.462891 C 20.983463 18.621759 21 18.800142 21 19 C 21 19.749999 20.754756 20.185226 20.398438 20.501953 C 20.042119 20.81868 19.527778 21 19 21 C 18.821444 21 18.644491 20.979182 18.474609 20.939453 L 20.951172 18.462891 z " fill="currentColor"/>
</svg>
