<svg xmlns="http://www.w3.org/2000/svg" width="1em" height="1em" viewBox="0 0 24 24" fill="currentColor">
  <path d="M 4.0136719 3 A 1.0001 1.0001 0 0 0 3.0390625 4.2773438 L 6.9277344 17.78125 C 7.1384685 18.727975 7.942876 19.367605 8.7734375 19.482422 C 9.5751462 19.59325 10.485186 19.225336 10.960938 18.431641 L 10.972656 18.414062 C 10.973855 18.412017 10.975369 18.410254 10.976562 18.408203 L 12.373047 16.341797 L 12.792969 16.763672 A 1 1 0 0 0 14.207031 16.763672 A 1 1 0 0 0 14.207031 15.349609 L 12.929688 14.070312 A 1.0001 1.0001 0 0 0 11.392578 14.21875 L 9.3027344 17.310547 A 1.0001 1.0001 0 0 0 9.2519531 17.396484 C 9.1847828 17.521276 9.140174 17.512628 9.0488281 17.5 C 8.9574822 17.487372 8.9116525 17.484042 8.8808594 17.345703 A 1.0001 1.0001 0 0 0 8.8652344 17.287109 L 5.4609375 5.4609375 L 17.306641 8.8652344 A 1.0001 1.0001 0 0 0 17.365234 8.8808594 C 17.503638 8.9115794 17.506861 8.9574674 17.519531 9.0488281 C 17.532201 9.1401881 17.540831 9.1847268 17.416016 9.2519531 A 1.0001 1.0001 0 0 0 17.333984 9.3027344 L 14.220703 11.392578 A 1.0001 1.0001 0 0 0 14.070312 12.929688 L 14.355469 13.212891 A 1 1 0 0 0 15.769531 13.212891 A 1 1 0 0 0 16.029297 12.587891 L 18.433594 10.972656 C 19.239811 10.499707 19.613989 9.5812536 19.501953 8.7734375 C 19.386756 7.9428277 18.745824 7.1379281 17.798828 6.9277344 L 4.2753906 3.0390625 A 1.0001 1.0001 0 0 0 4.0136719 3 z M 18.916016 14.003906 C 18.751818 14.009427 18.588579 14.028365 18.427734 14.060547 C 17.784358 14.189275 17.18203 14.528141 16.736328 15.054688 A 1 1 0 0 0 16.853516 16.464844 A 1 1 0 0 0 18.263672 16.347656 C 18.561037 15.996354 19.047152 15.898544 19.457031 16.107422 C 19.987605 16.383365 20.073808 16.797707 19.96875 17.232422 C 19.863486 17.667988 19.596602 17.998082 18.996094 18 A 1 1 0 0 0 18 19.003906 A 1 1 0 0 0 19.003906 20 C 20.498615 19.9952 21.618946 18.916192 21.912109 17.703125 C 22.205273 16.490058 21.700614 15.016915 20.373047 14.330078 A 1.0001 1.0001 0 0 0 20.369141 14.328125 C 19.908652 14.092234 19.408609 13.987344 18.916016 14.003906 z M 19 21 A 1 1 0 0 0 18 22 L 18 22.009766 A 1 1 0 0 0 19 23.009766 A 1 1 0 0 0 20 22.009766 L 20 22 A 1 1 0 0 0 19 21 z " fill="currentColor"/>
</svg>
