<svg xmlns="http://www.w3.org/2000/svg" width="1em" height="1em" viewBox="0 0 24 24" fill="currentColor">
  <path d="M 4.0136719 3 A 1.0001 1.0001 0 0 0 3.0390625 4.2773438 L 6.9277344 17.78125 C 7.1384685 18.727975 7.942876 19.367605 8.7734375 19.482422 C 9.5751929 19.593257 10.485209 19.225432 10.960938 18.431641 L 10.972656 18.414062 C 10.973855 18.412017 10.975369 18.410254 10.976562 18.408203 L 12.519531 16.123047 A 1 1 0 0 0 13.310547 15.865234 A 1 1 0 0 0 13.310547 14.451172 L 12.929688 14.070312 A 1.0001 1.0001 0 0 0 11.392578 14.21875 L 9.3027344 17.310547 A 1.0001 1.0001 0 0 0 9.2519531 17.396484 C 9.1847828 17.521276 9.140174 17.512628 9.0488281 17.5 C 8.9574822 17.487372 8.9116525 17.484042 8.8808594 17.345703 A 1.0001 1.0001 0 0 0 8.8652344 17.287109 L 5.4609375 5.4609375 L 17.306641 8.8652344 A 1.0001 1.0001 0 0 0 17.365234 8.8808594 C 17.503638 8.9115794 17.506861 8.9574674 17.519531 9.0488281 C 17.532201 9.1401881 17.540831 9.1847268 17.416016 9.2519531 A 1.0001 1.0001 0 0 0 17.333984 9.3027344 L 14.220703 11.392578 A 1 1 0 0 0 13.947266 12.779297 A 1 1 0 0 0 15.335938 13.052734 L 18.433594 10.972656 C 19.23984 10.499715 19.613991 9.5812676 19.501953 8.7734375 C 19.386756 7.9428277 18.745824 7.1379281 17.798828 6.9277344 L 4.2753906 3.0390625 A 1.0001 1.0001 0 0 0 4.0136719 3 z M 19 14 C 17.26058 14 15.876507 15.088139 15.304688 16.46875 C 14.732867 17.849361 14.941629 19.598251 16.171875 20.828125 C 16.636336 21.293697 17.351167 21.924991 18.357422 22.767578 A 1.0001 1.0001 0 0 0 19.646484 22.763672 C 20.702942 21.86905 21.407467 21.24765 21.824219 20.830078 A 1 1 0 0 0 21.828125 20.828125 L 21.828125 20.826172 C 23.057189 19.596367 23.266927 17.848862 22.695312 16.46875 C 22.123498 15.088227 20.73942 14 19 14 z M 19 16 C 19.933374 16 20.554559 16.526716 20.847656 17.234375 C 21.140754 17.942034 21.074283 18.754042 20.414062 19.414062 A 1 1 0 0 0 20.412109 19.414062 C 20.201135 19.625621 19.566887 20.171813 19 20.664062 C 18.448807 20.187635 17.843263 19.670047 17.587891 19.414062 A 1.0001 1.0001 0 0 0 17.585938 19.414062 C 16.92581 18.754042 16.859246 17.942034 17.152344 17.234375 C 17.445441 16.526716 18.066626 16 19 16 z M 19 17 A 1 1 0 0 0 18 18 L 18 18.009766 A 1 1 0 0 0 19 19.009766 A 1 1 0 0 0 20 18.009766 L 20 18 A 1 1 0 0 0 19 17 z " fill="currentColor"/>
</svg>
