<svg xmlns="http://www.w3.org/2000/svg" width="1em" height="1em" viewBox="0 0 24 24" fill="currentColor">
  <path d="M 4.0136719 3 A 1.0001 1.0001 0 0 0 3.0390625 4.2773438 L 6.9277344 17.78125 C 7.1384685 18.727975 7.942876 19.367605 8.7734375 19.482422 C 9.603999 19.597239 10.552045 19.199751 11.011719 18.345703 A 1 1 0 0 0 10.605469 16.990234 A 1 1 0 0 0 9.2519531 17.396484 C 9.1847841 17.521281 9.140174 17.512628 9.0488281 17.5 C 8.9574822 17.487372 8.9116525 17.484042 8.8808594 17.345703 A 1.0001 1.0001 0 0 0 8.8652344 17.287109 L 5.4609375 5.4609375 L 17.306641 8.8652344 A 1.0001 1.0001 0 0 0 17.365234 8.8808594 C 17.503638 8.9115794 17.506861 8.9574674 17.519531 9.0488281 C 17.532201 9.1401881 17.540831 9.1847268 17.416016 9.2519531 A 1.0001 1.0001 0 0 0 17.333984 9.3007812 L 16.013672 10.1875 A 1 1 0 0 0 15.740234 11.576172 A 1 1 0 0 0 17.128906 11.847656 L 18.433594 10.972656 C 19.239979 10.499749 19.614 9.581335 19.501953 8.7734375 C 19.386756 7.9428277 18.745824 7.1379281 17.798828 6.9277344 L 4.2753906 3.0390625 A 1.0001 1.0001 0 0 0 4.0136719 3 z M 16.21875 14.005859 C 15.40068 14.004259 14.581697 14.308264 13.955078 14.916016 C 12.695184 16.137796 12.689598 18.19039 13.943359 19.417969 L 17.285156 22.699219 L 17.298828 22.712891 A 1 1 0 0 0 17.316406 22.712891 A 1 1 0 0 0 18.699219 22.714844 L 18.712891 22.701172 L 22.046875 19.433594 C 23.307044 18.210748 23.31088 16.15663 22.054688 14.929688 C 20.991215 13.889641 19.43405 13.924693 18.201172 14.652344 L 18.474609 14.921875 C 18.34441 14.79499 18.149104 14.830955 18.003906 14.730469 C 17.857315 14.831202 17.660749 14.794299 17.529297 14.921875 L 17.804688 14.650391 C 17.297704 14.349397 16.79292 14.006961 16.21875 14.005859 z M 16.214844 15.994141 C 16.525546 15.994737 16.835532 16.114506 17.080078 16.353516 L 17.298828 16.570312 A 1.0001 1.0001 0 0 0 18.703125 16.572266 L 18.925781 16.351562 L 18.921875 16.357422 C 19.412879 15.880905 20.167077 15.880931 20.65625 16.359375 A 1.0001 1.0001 0 0 0 20.65625 16.361328 C 21.125633 16.819786 21.125218 17.541119 20.654297 17.998047 A 1.0001 1.0001 0 0 0 20.650391 18.001953 L 18 20.599609 L 15.345703 17.990234 A 1.0001 1.0001 0 0 0 15.34375 17.988281 C 14.874515 17.52967 14.876639 16.808338 15.347656 16.351562 C 15.593117 16.113494 15.904141 15.993545 16.214844 15.994141 z " fill="currentColor"/>
</svg>
