<svg xmlns="http://www.w3.org/2000/svg" width="1em" height="1em" viewBox="0 0 24 24" fill="currentColor">
  <path d="M 11 3 A 1 1 0 0 0 10.912109 3.0878906 A 1.0001 1.0001 0 0 0 10 3.9941406 L 10 4 A 1 1 0 0 0 10.376953 4.3769531 L 10.105469 4.4414062 C 10.486212 5.2028923 10.454794 5.9026345 10.263672 6.3613281 C 10.07255 6.8200219 9.8055556 6.9941406 9.5 6.9941406 L 9.3359375 6.9941406 A 1.0001 1.0001 0 0 0 9.2695312 6.9980469 C 7.2236808 7.133199 5.8675 9.0271919 6.1308594 10.972656 C 5.1962098 11.717783 4.647477 12.765951 4.6328125 13.96875 C 3.33072 15.010645 2.7595105 16.591761 3.1308594 18.005859 C 3.550272 19.602985 5.0146447 20.990334 7 20.990234 L 17 20.990234 L 17.175781 20.990234 A 1.0001 1.0001 0 0 0 17.234375 20.988281 C 19.161335 20.874848 20.531491 19.473894 20.896484 17.898438 C 21.21919 16.505512 20.637658 14.976696 19.369141 13.964844 C 19.351881 12.765987 18.802555 11.721856 17.871094 10.978516 C 18.104397 9.2569509 17.04735 7.6606163 15.371094 7.203125 C 15.232234 6.1054023 14.894397 5.1102043 14.240234 4.390625 C 13.424496 3.4933549 12.25 3 11 3 z M 12.369141 5.5722656 C 12.479738 5.6561416 12.66345 5.6284286 12.759766 5.734375 C 13.194023 6.2120579 13.5 6.95 13.5 8 A 1.0001 1.0001 0 0 0 14.5 9 L 14.601562 9 C 15.614215 9.069497 16.251468 10.031142 15.916016 10.990234 A 1.0001 1.0001 0 0 0 16.40625 12.210938 C 17.164559 12.596502 17.594632 13.41038 17.484375 14.253906 A 1.0001 1.0001 0 0 0 17.982422 15.253906 C 18.906605 15.775861 19.13638 16.630974 18.947266 17.447266 C 18.758588 18.261672 18.177958 18.925225 17.123047 18.990234 L 17 18.990234 L 7 18.990234 C 5.8999905 18.99029 5.2844906 18.328513 5.0664062 17.498047 C 4.8483219 16.667581 5.0594662 15.788463 6.0175781 15.248047 A 1.0001 1.0001 0 0 0 6.5175781 14.248047 C 6.4076218 13.404754 6.8356998 12.592509 7.59375 12.207031 A 1.0001 1.0001 0 0 0 8.0839844 10.984375 C 7.748588 10.025528 8.3860607 9.0640146 9.3984375 8.9941406 L 9.5 8.9941406 C 10.694444 8.9941406 11.67745 8.1702126 12.111328 7.1289062 C 12.308014 6.6568601 12.374962 6.1212591 12.369141 5.5722656 z M 10 11 A 1 1 0 0 0 9 12 A 1 1 0 0 0 10 13 L 10.009766 13 A 1 1 0 0 0 11.009766 12 A 1 1 0 0 0 10.009766 11 L 10 11 z M 14 11 A 1 1 0 0 0 13 12 A 1 1 0 0 0 14 13 L 14.009766 13 A 1 1 0 0 0 15.009766 12 A 1 1 0 0 0 14.009766 11 L 14 11 z M 9.9550781 15 A 1 1 0 0 0 9.1796875 15.427734 A 1 1 0 0 0 9.4277344 16.820312 C 10.970388 17.894479 13.029612 17.894479 14.572266 16.820312 A 1 1 0 0 0 14.820312 15.427734 A 1 1 0 0 0 13.427734 15.179688 C 12.566409 15.779438 11.433591 15.779437 10.572266 15.179688 A 1 1 0 0 0 9.9550781 15 z " fill="currentColor"/>
</svg>
