<svg xmlns="http://www.w3.org/2000/svg" width="1em" height="1em" viewBox="0 0 24 24" fill="currentColor">
  <path d="M 9 2 C 7.3549904 2 6 3.3549904 6 5 L 6 8 L 5 8 C 3.3549904 8 2 9.3549904 2 11 L 2 15 C 2 16.64501 3.3549904 18 5 18 L 6 18 L 6 19 C 6 20.64501 7.3549904 22 9 22 L 15 22 C 16.64501 22 18 20.64501 18 19 L 18 18 L 19 18 C 20.64501 18 22 16.64501 22 15 L 22 11 C 22 9.3549904 20.64501 8 19 8 L 18 8 L 18 5 C 18 3.3549904 16.64501 2 15 2 L 9 2 z M 9 4 L 15 4 C 15.564129 4 16 4.4358706 16 5 L 16 8 L 8 8 L 8 5 C 8 4.4358706 8.4358706 4 9 4 z M 5 10 L 19 10 C 19.564129 10 20 10.435871 20 11 L 20 15 C 20 15.564129 19.564129 16 19 16 L 18 16 L 18 15 C 18 13.35499 16.64501 12 15 12 L 9 12 C 7.3549904 12 6 13.35499 6 15 L 6 16 L 5 16 C 4.4358706 16 4 15.564129 4 15 L 4 11 C 4 10.435871 4.4358706 10 5 10 z M 9 14 L 15 14 C 15.564129 14 16 14.435871 16 15 L 16 17 L 16 19 C 16 19.564129 15.564129 20 15 20 L 9 20 C 8.4358706 20 8 19.564129 8 19 L 8 17 L 8 15 C 8 14.435871 8.4358706 14 9 14 z " fill="currentColor"/>
</svg>
