<svg xmlns="http://www.w3.org/2000/svg" width="1em" height="1em" viewBox="0 0 24 24" fill="currentColor">
  <path d="M 3 2 A 1 1 0 0 0 2.2929688 2.2929688 A 1 1 0 0 0 2.2929688 3.7070312 L 3 4.4140625 L 3 15.169922 C 3 16.270695 3.5197718 17.310239 4.4003906 17.970703 L 10.380859 22.455078 C 10.817896 22.782855 11.332812 22.960052 11.853516 22.988281 A 1 1 0 0 0 12 23 A 1 1 0 0 0 12.146484 22.988281 C 12.667188 22.960052 13.182104 22.782855 13.619141 22.455078 L 17.859375 19.273438 L 20.292969 21.707031 A 1 1 0 0 0 21.707031 21.707031 A 1 1 0 0 0 21.707031 20.292969 L 18.728516 17.314453 A 1 1 0 0 0 18.595703 17.181641 L 12.716797 11.302734 A 1 1 0 0 0 12.697266 11.283203 L 4.7167969 3.3027344 A 1 1 0 0 0 4.6972656 3.2832031 L 3.7070312 2.2929688 A 1 1 0 0 0 3 2 z M 7 2 A 1 1 0 0 0 6 3 A 1 1 0 0 0 7 4 L 17.175781 4 L 12.429688 7.6972656 C 12.384477 7.7325496 12.335628 7.7619153 12.283203 7.7851562 A 1 1 0 0 0 11.773438 9.1054688 A 1 1 0 0 0 13.09375 9.6132812 C 13.295957 9.5236399 13.485792 9.4095279 13.660156 9.2734375 L 13.660156 9.2753906 L 19 5.1132812 L 19 15.169922 C 19 15.321255 18.978167 15.466951 18.935547 15.605469 A 1 1 0 0 0 19.597656 16.855469 A 1 1 0 0 0 20.847656 16.193359 C 20.949032 15.863877 21 15.518589 21 15.169922 L 21 4 C 21 2.9072751 20.092725 2 19 2 L 7 2 z M 5 6.4140625 L 11 12.414062 L 11 20.419922 L 5.5996094 16.369141 C 5.221199 16.085333 5 15.642935 5 15.169922 L 5 6.4140625 z M 13 14.414062 L 16.431641 17.845703 L 13 20.419922 L 13 14.414062 z " fill="currentColor"/>
</svg>
