<svg xmlns="http://www.w3.org/2000/svg" width="1em" height="1em" viewBox="0 0 24 24" fill="currentColor">
  <path d="M 10.039062 2.2246094 A 1 1 0 0 0 9.7792969 2.2480469 C 8.5479203 2.5278733 7.3799853 3.0398311 6.3398438 3.7558594 A 1 1 0 0 0 6.0839844 5.1464844 A 1 1 0 0 0 7.4746094 5.4023438 C 8.3057764 4.8301725 9.2367222 4.4208722 10.220703 4.1972656 A 1 1 0 0 0 10.974609 3.0019531 A 1 1 0 0 0 10.039062 2.2246094 z M 13.962891 2.2246094 A 1 1 0 0 0 13.025391 3 A 1 1 0 0 0 13.777344 4.1972656 C 18.003024 5.1623619 19.998047 8.5476386 19.998047 12 C 19.998047 15.452361 18.003024 18.837638 13.777344 19.802734 A 1 1 0 0 0 13.025391 21 A 1 1 0 0 0 14.222656 21.751953 C 19.328222 20.585901 21.998047 16.259064 21.998047 12 C 21.998047 7.7409355 19.328222 3.4140988 14.222656 2.2480469 A 1 1 0 0 0 13.962891 2.2246094 z M 4.1757812 6.5195312 A 1 1 0 0 0 3.3183594 7.0351562 L 3.1484375 7.3398438 A 1.0001 1.0001 0 0 0 3.1386719 7.3613281 C 2.6586384 8.2780588 2.3163997 9.2787258 2.1386719 10.333984 A 1 1 0 0 0 2.9570312 11.486328 A 1 1 0 0 0 4.109375 10.666016 C 4.2516472 9.8212742 4.5261898 9.0223318 4.9101562 8.2890625 L 5.0683594 8.0039062 A 1 1 0 0 0 4.6777344 6.6445312 A 1 1 0 0 0 4.1757812 6.5195312 z M 11.933594 8.0019531 A 1 1 0 0 0 11.167969 8.4453125 L 9.1679688 11.445312 A 1.0001 1.0001 0 0 0 10 13 L 12.130859 13 L 11.167969 14.445312 A 1 1 0 0 0 11.445312 15.832031 A 1 1 0 0 0 12.832031 15.554688 L 14.832031 12.554688 A 1.0001 1.0001 0 0 0 14 11 L 11.869141 11 L 12.832031 9.5546875 A 1 1 0 0 0 12.554688 8.1679688 A 1 1 0 0 0 11.933594 8.0019531 z M 3.3320312 13.501953 A 1 1 0 0 0 3.0742188 13.541016 A 1 1 0 0 0 2.390625 14.779297 C 2.6876422 15.806703 3.149492 16.77919 3.7558594 17.660156 A 1 1 0 0 0 5.1464844 17.916016 A 1 1 0 0 0 5.4023438 16.525391 C 4.9177202 15.821301 4.5498834 15.043784 4.3125 14.222656 A 1 1 0 0 0 3.3320312 13.501953 z M 7.5175781 18.808594 A 1 1 0 0 0 7.2597656 18.841797 A 1 1 0 0 0 6.6523438 19.308594 A 1 1 0 0 0 7.0214844 20.675781 C 7.8816796 21.170494 8.8115701 21.53245 9.7792969 21.751953 A 1 1 0 0 0 10.974609 20.998047 A 1 1 0 0 0 10.220703 19.802734 C 9.4476454 19.627387 8.7047355 19.336602 8.0175781 18.941406 A 1 1 0 0 0 7.5175781 18.808594 z " fill="currentColor"/>
</svg>
