<svg xmlns="http://www.w3.org/2000/svg" width="1em" height="1em" viewBox="0 0 24 24" fill="currentColor">
  <path d="M 6.984375 2 A 1 1 0 0 0 6.28125 2.3046875 A 1 1 0 0 0 6.3046875 3.71875 L 9.4257812 6.7402344 C 9.905424 7.2438594 10.024607 7.6947324 9.9941406 8.140625 C 9.963674 8.5865176 9.741124 9.0440323 9.3925781 9.3925781 C 9.0440323 9.741124 8.5865176 9.963674 8.140625 9.9941406 C 7.6947324 10.024607 7.2438594 9.905424 6.7402344 9.4257812 L 3.71875 6.3046875 A 1 1 0 0 0 2.3046875 6.28125 A 1 1 0 0 0 2.28125 7.6953125 L 5.3320312 10.845703 A 1.0001 1.0001 0 0 0 5.359375 10.875 C 6.2220195 11.696566 7.291683 12.055629 8.2773438 11.988281 C 8.9093216 11.945098 9.50097 11.744615 10.017578 11.431641 L 15.273438 16.6875 C 15.10187 17.030144 14.992636 17.409646 14.96875 17.814453 C 14.92353 18.580794 15.228442 19.415712 15.867188 20.054688 L 16.947266 21.132812 C 17.58601 21.771788 18.419189 22.076191 19.185547 22.03125 C 19.951904 21.98631 20.629024 21.636419 21.132812 21.132812 C 21.636602 20.629206 21.986032 19.951888 22.03125 19.185547 C 22.07647 18.419206 21.77351 17.586241 21.134766 16.947266 A 1.0001 1.0001 0 0 0 21.132812 16.947266 L 20.054688 15.867188 C 19.415944 15.228212 18.582764 14.925762 17.816406 14.970703 C 17.411567 14.994443 17.030651 15.102305 16.6875 15.273438 L 11.431641 10.017578 C 11.744614 9.5009707 11.9451 8.9093203 11.988281 8.2773438 C 12.055629 7.2916799 11.696566 6.2220195 10.875 5.359375 A 1.0001 1.0001 0 0 0 10.845703 5.3320312 L 7.6953125 2.28125 A 1 1 0 0 0 6.984375 2 z M 18.013672 16.964844 C 18.20103 16.968595 18.389967 17.033115 18.638672 17.28125 L 18.640625 17.28125 A 1 1 0 0 0 18.640625 17.283203 L 19.720703 18.361328 C 20.005958 18.646686 20.047876 18.852784 20.035156 19.068359 C 20.022436 19.283935 19.908212 19.529356 19.71875 19.71875 C 19.529288 19.908144 19.283939 20.022514 19.068359 20.035156 C 18.85278 20.047796 18.646583 20.004106 18.361328 19.71875 L 17.28125 18.640625 L 17.28125 18.638672 C 16.997768 18.354336 16.954106 18.148672 16.966797 17.933594 C 16.979517 17.718019 17.091788 17.470644 17.28125 17.28125 C 17.470712 17.091856 17.718014 16.979439 17.933594 16.966797 C 17.960479 16.965221 17.986906 16.964308 18.013672 16.964844 z " fill="currentColor"/>
</svg>
