<svg xmlns="http://www.w3.org/2000/svg" width="1em" height="1em" viewBox="0 0 24 24" fill="currentColor">
  <path d="M 3 2 A 1 1 0 0 0 2.2929688 2.2929688 A 1 1 0 0 0 2.2929688 3.7070312 L 8.484375 9.8984375 C 8.5790091 10.139329 8.681391 10.380309 8.7890625 10.621094 C 8.4743145 11.052003 8.2519948 11.538087 8.1289062 12.046875 C 6.5212326 12.223834 5.0459349 12.6125 3.7109375 13.212891 C 2.7396055 13.615252 1.9063891 14.403064 1.6308594 15.484375 C 1.3538576 16.571463 1.6261694 17.809747 2.3867188 19.126953 C 3.1472326 20.444091 4.0824469 21.29788 5.1621094 21.601562 C 6.2358009 21.903567 7.3338468 21.576062 8.1679688 20.9375 C 9.4657173 20.001732 10.629208 18.794121 11.652344 17.324219 A 1 1 0 0 0 11.804688 16.980469 C 11.934574 16.986244 12.06563 16.987061 12.195312 16.980469 A 1 1 0 0 0 12.347656 17.322266 C 13.368255 18.790034 14.529061 19.996507 15.824219 20.931641 C 16.478089 21.434849 17.280142 21.755892 18.132812 21.714844 C 18.693536 21.687847 19.250223 21.502769 19.765625 21.179688 L 20.292969 21.707031 A 1 1 0 0 0 21.707031 21.707031 A 1 1 0 0 0 21.707031 20.292969 L 11.251953 9.8378906 A 1 1 0 0 0 11.041016 9.6269531 L 10.070312 8.6582031 L 3.7070312 2.2929688 A 1 1 0 0 0 3 2 z M 12 2 C 9.8208247 2 8.2204593 2.9049796 7.703125 4.3535156 A 1 1 0 0 0 8.3085938 5.6308594 A 1 1 0 0 0 9.5859375 5.0253906 C 9.7786032 4.4859267 10.299175 4 12 4 C 13.187087 4 13.824716 4.2952669 14.134766 4.5976562 C 14.444816 4.9000458 14.557219 5.2684427 14.478516 5.8515625 A 1.0001 1.0001 0 0 0 14.474609 5.8867188 C 14.346594 7.1649724 13.98249 8.4862315 13.361328 9.859375 A 1 1 0 0 0 13.859375 11.183594 A 1 1 0 0 0 15.183594 10.683594 C 15.879723 9.1447269 16.305426 7.6155176 16.458984 6.1035156 C 16.595521 5.0610918 16.330205 3.9452298 15.53125 3.1660156 C 14.7283 2.382905 13.520913 2 12 2 z M 10.388672 11.802734 L 13.197266 14.611328 C 12.428958 15.1952 11.322353 15.153243 10.582031 14.40625 C 9.8464269 13.664017 9.8097389 12.565585 10.388672 11.802734 z M 17.191406 12.277344 A 1 1 0 0 0 16.267578 13.070312 A 1 1 0 0 0 17.042969 14.253906 C 17.924356 14.438188 18.736781 14.700851 19.486328 15.039062 A 1.0001 1.0001 0 0 0 19.517578 15.052734 C 19.955714 15.232492 20.210991 15.468411 20.349609 15.753906 C 20.488227 16.039401 20.546919 16.432392 20.355469 17.068359 A 1 1 0 0 0 21.025391 18.314453 A 1 1 0 0 0 22.271484 17.644531 C 22.571994 16.646498 22.53432 15.675614 22.148438 14.880859 C 21.764689 14.090498 21.071582 13.533052 20.289062 13.208984 C 19.403807 12.811219 18.456906 12.507155 17.451172 12.296875 A 1 1 0 0 0 17.191406 12.277344 z M 8.1503906 14.058594 C 8.3216797 14.699003 8.6559392 15.305693 9.1601562 15.814453 C 9.3790795 16.035349 9.6178186 16.223339 9.8691406 16.380859 C 8.9915118 17.601988 8.0290996 18.57765 6.9882812 19.326172 A 1.0001 1.0001 0 0 0 6.9609375 19.345703 C 6.4957042 19.705089 6.1202125 19.793098 5.703125 19.675781 C 5.2860375 19.558464 4.7106736 19.152862 4.1171875 18.125 C 3.5237404 17.097206 3.4613612 16.398428 3.5683594 15.978516 C 3.6753576 15.558603 3.9384254 15.275408 4.4824219 15.052734 A 1.0001 1.0001 0 0 0 4.515625 15.039062 C 5.5909227 14.553702 6.7983355 14.224269 8.1503906 14.058594 z M 14.611328 16.025391 L 18.269531 19.683594 C 18.188183 19.703857 18.110764 19.71511 18.035156 19.71875 C 17.728251 19.73353 17.401713 19.62774 17.037109 19.345703 A 1.0001 1.0001 0 0 0 17.009766 19.324219 C 15.968421 18.575319 15.007792 17.598724 14.130859 16.376953 C 14.298786 16.272718 14.458802 16.155754 14.611328 16.025391 z " fill="currentColor"/>
</svg>
