<svg xmlns="http://www.w3.org/2000/svg" width="1em" height="1em" viewBox="0 0 24 24" fill="currentColor">
  <path d="M 15.003906 5 A 1 1 0 0 0 14.136719 5.4960938 L 7.1367188 17.496094 A 1 1 0 0 0 7.4960938 18.863281 A 1 1 0 0 0 8.8632812 18.503906 L 15.863281 6.5039062 A 1 1 0 0 0 15.503906 5.1367188 A 1 1 0 0 0 15.003906 5 z M 20.005859 5 A 1 1 0 0 0 19.746094 5.0332031 A 1 1 0 0 0 19.136719 5.4960938 L 12.136719 17.496094 A 1 1 0 0 0 12.496094 18.863281 A 1 1 0 0 0 13.863281 18.503906 L 20.863281 6.5039062 A 1 1 0 0 0 20.503906 5.1367188 A 1 1 0 0 0 20.005859 5 z M 5 9.015625 A 1 1 0 0 0 4 10.015625 L 4 10.029297 A 1 1 0 0 0 5 11.029297 A 1 1 0 0 0 6 10.029297 L 6 10.015625 A 1 1 0 0 0 5 9.015625 z M 5 13 A 1 1 0 0 0 4 14 L 4 14.015625 A 1 1 0 0 0 5 15.015625 A 1 1 0 0 0 6 14.015625 L 6 14 A 1 1 0 0 0 5 13 z " fill="currentColor"/>
</svg>
