<svg xmlns="http://www.w3.org/2000/svg" width="1em" height="1em" viewBox="0 0 24 24" fill="currentColor">
  <path d="M 12 1 A 1 1 0 0 0 11.720703 1.0390625 C 11.17859 1.1111853 10.663654 1.396559 10.333984 1.8925781 A 1.0001 1.0001 0 0 0 10.316406 1.9199219 L 8.515625 4.8378906 A 1 1 0 0 0 8.8417969 6.2148438 A 1 1 0 0 0 10.21875 5.8886719 L 11 4.6210938 L 11 8 A 1 1 0 0 0 12 9 A 1 1 0 0 0 13 8 L 13 4.6210938 L 20.519531 16.806641 A 1.0001 1.0001 0 0 0 20.537109 16.835938 L 20.537109 16.837891 L 20.539062 16.837891 L 20.539062 16.839844 A 1 1 0 0 0 20.851562 18.21875 A 1 1 0 0 0 22.230469 17.90625 C 22.650056 17.240738 22.638447 16.383841 22.203125 15.728516 L 22.222656 15.755859 L 13.681641 1.9199219 A 1.0001 1.0001 0 0 0 13.664062 1.8925781 C 13.335774 1.3987053 12.82316 1.1146533 12.283203 1.0410156 A 1 1 0 0 0 12 1 z M 3 2 A 1 1 0 0 0 2.2929688 2.2929688 A 1 1 0 0 0 2.2929688 3.7070312 L 6.5722656 7.9863281 L 1.7753906 15.755859 L 1.7929688 15.730469 C 1.1398421 16.717789 1.5053047 18.094305 2.5625 18.626953 A 1.0001 1.0001 0 0 0 2.5644531 18.628906 L 10.65625 22.681641 C 11.500606 23.105451 12.497441 23.105451 13.341797 22.681641 L 18.623047 20.037109 L 20.292969 21.707031 A 1 1 0 0 0 21.707031 21.707031 A 1 1 0 0 0 21.707031 20.292969 L 12.716797 11.302734 A 1 1 0 0 0 12.697266 11.283203 L 3.7070312 2.2929688 A 1 1 0 0 0 3 2 z M 8.0253906 9.4394531 L 11 12.414062 L 11 20.617188 L 3.4628906 16.841797 L 3.4628906 16.839844 L 3.4609375 16.839844 L 3.4589844 16.839844 L 3.4570312 16.839844 C 3.4577204 16.838669 3.4588412 16.837159 3.4609375 16.833984 A 1.0001 1.0001 0 0 0 3.4785156 16.806641 L 8.0253906 9.4394531 z M 13 14.414062 L 17.132812 18.546875 L 13 20.617188 L 13 14.414062 z " fill="currentColor"/>
</svg>
