<svg xmlns="http://www.w3.org/2000/svg" width="1em" height="1em" viewBox="0 0 24 24" fill="currentColor">
  <path d="M 11.5 4 C 9.103769 4 7 5.7126323 7 8 A 1 1 0 0 0 8 9 A 1 1 0 0 0 9 8 C 9 6.9736592 10.030238 6 11.5 6 L 12.5 6 C 13.969762 6 15 6.9736592 15 8 A 1.0001 1.0001 0 0 0 15.001953 8.0566406 C 15.052633 8.9502918 14.512372 9.7597139 13.667969 10.056641 A 1.0001 1.0001 0 0 0 13.576172 10.09375 C 11.825657 10.914464 10.910284 12.933841 11 15.042969 A 1 1 0 0 0 12.042969 16 A 1 1 0 0 0 13 14.957031 C 12.939278 13.529626 13.634898 12.301963 14.392578 11.921875 C 16.027378 11.317633 17.080858 9.7085796 16.992188 7.9648438 C 16.969151 5.6964431 14.883006 4 12.5 4 L 11.5 4 z M 12 18 A 1 1 0 0 0 11 19 L 11 19.009766 A 1 1 0 0 0 12 20.009766 A 1 1 0 0 0 13 19.009766 L 13 19 A 1 1 0 0 0 12 18 z " fill="currentColor"/>
</svg>
