<svg xmlns="http://www.w3.org/2000/svg" width="1em" height="1em" viewBox="0 0 24 24" fill="currentColor">
  <path d="M 6 5 C 4.9072751 5 4 5.9072751 4 7 L 4 10 C 4 11.092725 4.9072751 12 6 12 L 9 12 L 9 13 C 9 14.166896 8.7228225 14.994933 8.21875 15.625 C 7.7146775 16.255067 6.9392432 16.733828 5.7578125 17.029297 A 1 1 0 0 0 5.0292969 18.242188 A 1 1 0 0 0 6.2421875 18.970703 C 7.7277568 18.599172 8.9520725 17.911433 9.78125 16.875 C 10.610427 15.838567 11 14.500104 11 13 L 11 11 L 11 7 C 11 5.9072751 10.092725 5 9 5 L 6 5 z M 15 5 C 13.907275 5 13 5.9072751 13 7 L 13 10 C 13 11.092725 13.907275 12 15 12 L 18 12 L 18 13 C 18 14.166896 17.722823 14.994933 17.21875 15.625 C 16.714677 16.255067 15.939243 16.733828 14.757812 17.029297 A 1 1 0 0 0 14.029297 18.242188 A 1 1 0 0 0 15.242188 18.970703 C 16.727757 18.599172 17.952073 17.911433 18.78125 16.875 C 19.610427 15.838567 20 14.500104 20 13 L 20 11 L 20 7 C 20 5.9072751 19.092725 5 18 5 L 15 5 z M 6 7 L 9 7 L 9 10 L 6 10 L 6 7 z M 15 7 L 18 7 L 18 10 L 15 10 L 15 7 z " fill="currentColor"/>
</svg>
