<svg xmlns="http://www.w3.org/2000/svg" width="1em" height="1em" viewBox="0 0 24 24" fill="currentColor">
  <path d="M 3.96875 5 A 1 1 0 0 0 3.1875 5.4160156 C 1.626465 7.5871776 1.626465 10.412822 3.1875 12.583984 A 1 1 0 0 0 4.5839844 12.8125 A 1 1 0 0 0 4.8125 11.416016 C 3.707535 9.8791772 3.707535 8.1208224 4.8125 6.5839844 A 1 1 0 0 0 4.5839844 5.1875 A 1 1 0 0 0 3.96875 5 z M 7.96875 5 A 1 1 0 0 0 7.1875 5.4160156 C 5.626465 7.5871776 5.626465 10.412822 7.1875 12.583984 A 1 1 0 0 0 8.5839844 12.8125 A 1 1 0 0 0 8.8125 11.416016 C 7.707535 9.8791772 7.707535 8.1208224 8.8125 6.5839844 A 1 1 0 0 0 8.5839844 5.1875 A 1 1 0 0 0 7.96875 5 z M 16.03125 11 A 1 1 0 0 0 15.416016 11.1875 A 1 1 0 0 0 15.1875 12.583984 C 16.292465 14.120822 16.292465 15.879178 15.1875 17.416016 A 1 1 0 0 0 15.416016 18.8125 A 1 1 0 0 0 16.8125 18.583984 C 18.373535 16.412822 18.373535 13.587178 16.8125 11.416016 A 1 1 0 0 0 16.03125 11 z M 20.03125 11 A 1 1 0 0 0 19.416016 11.1875 A 1 1 0 0 0 19.1875 12.583984 C 20.292465 14.120822 20.292465 15.879178 19.1875 17.416016 A 1 1 0 0 0 19.416016 18.8125 A 1 1 0 0 0 20.8125 18.583984 C 22.373535 16.412822 22.373535 13.587178 20.8125 11.416016 A 1 1 0 0 0 20.162109 11.013672 A 1 1 0 0 0 20.03125 11 z " fill="currentColor"/>
</svg>
