<svg xmlns="http://www.w3.org/2000/svg" width="1em" height="1em" viewBox="0 0 24 24" fill="currentColor">
  <path d="M 12 2.0039062 C 10.273156 2.0039062 8.5463112 2.4509868 7 3.34375 A 1.0001 1.0001 0 0 0 6.6347656 4.7109375 L 9.6347656 9.9003906 A 1.0001 1.0001 0 0 0 11 10.265625 C 11.620191 9.9075578 12.379809 9.9075578 13 10.265625 A 1 1 0 0 0 14.365234 9.9003906 L 17.365234 4.7109375 A 1.0001 1.0001 0 0 0 17 3.34375 C 15.453689 2.4509868 13.726844 2.0039063 12 2.0039062 z M 12 4.0039062 C 13.050555 4.0039062 14.08058 4.2775887 15.068359 4.6914062 L 13.001953 8.265625 C 12.328057 8.0865416 11.671943 8.0865416 10.998047 8.265625 L 8.9316406 4.6914062 C 9.9194202 4.2775887 10.949445 4.0039062 12 4.0039062 z M 3 11 A 1.0001 1.0001 0 0 0 2 12 C 2.00168 15.569378 3.9088278 18.871561 7 20.65625 A 1.0001 1.0001 0 0 0 8.3652344 20.291016 L 11.365234 15.099609 A 1 1 0 0 0 11 13.734375 C 10.379408 13.376076 9.9995406 12.716597 10 12 A 1.0001 1.0001 0 0 0 9 11 L 3 11 z M 15 11 A 1.0001 1.0001 0 0 0 14 12 C 14.000459 12.716597 13.620592 13.376076 13 13.734375 A 1 1 0 0 0 12.634766 15.099609 L 15.634766 20.291016 A 1.0001 1.0001 0 0 0 17 20.65625 C 20.091172 18.871561 21.998323 15.569378 22 12 A 1.0001 1.0001 0 0 0 21 11 L 15 11 z M 4.1328125 13 L 8.2675781 13 C 8.4492707 13.672542 8.776211 14.240519 9.2675781 14.734375 L 7.2011719 18.310547 C 5.4977164 17.014593 4.4050694 15.122932 4.1328125 13 z M 15.732422 13 L 19.867188 13 C 19.594932 15.122932 18.502284 17.014593 16.798828 18.310547 L 14.732422 14.734375 C 15.223789 14.240519 15.550729 13.672542 15.732422 13 z " fill="currentColor"/>
</svg>
