<svg xmlns="http://www.w3.org/2000/svg" width="1em" height="1em" viewBox="0 0 24 24" fill="currentColor">
  <path d="M 14.011719 2.0019531 A 1 1 0 0 0 13.628906 2.0722656 L 4.2578125 5.8203125 C 3.5013153 6.122542 3.0005156 6.8611461 3 7.6757812 A 1.0001 1.0001 0 0 0 3 7.6777344 L 3 19 C 3 20.092725 3.9072751 21 5 21 L 19 21 C 20.092725 21 21 20.092725 21 19 L 21 8 C 21 6.9072751 20.092725 6 19 6 L 9.1933594 6 L 14.371094 3.9277344 A 1 1 0 0 0 14.927734 2.6289062 A 1 1 0 0 0 14.011719 2.0019531 z M 5 8 L 19 8 L 19 11 L 8 11 L 8 10 A 1 1 0 0 0 7 9 A 1 1 0 0 0 6 10 L 6 11 L 5 11 L 5 8 z M 5 13 L 19 13 L 19 19 L 5 19 L 5 13 z M 13 15 A 1 1 0 0 0 12 16 L 12 16.009766 A 1 1 0 0 0 13 17.009766 A 1 1 0 0 0 14 16.009766 L 14 16 A 1 1 0 0 0 13 15 z M 17 15 A 1 1 0 0 0 16 16 L 16 16.009766 A 1 1 0 0 0 17 17.009766 A 1 1 0 0 0 18 16.009766 L 18 16 A 1 1 0 0 0 17 15 z " fill="currentColor"/>
</svg>
