<svg xmlns="http://www.w3.org/2000/svg" width="1em" height="1em" viewBox="0 0 24 24" fill="currentColor">
  <path d="M 7 2 C 5.3549904 2 4 3.3549904 4 5 L 4 21 A 1 1 0 0 0 4.0722656 21.072266 A 1 1 0 0 0 4.1679688 21.554688 A 1 1 0 0 0 4.6523438 21.652344 A 1 1 0 0 0 5 22 A 1 1 0 0 0 5.2324219 21.767578 A 1 1 0 0 0 5.5546875 21.832031 L 7.8730469 20.287109 L 9.2929688 21.707031 A 1.0001 1.0001 0 0 0 10.707031 21.707031 L 12 20.414062 L 13.292969 21.707031 A 1.0001 1.0001 0 0 0 14.707031 21.707031 L 16.126953 20.287109 L 18.445312 21.832031 A 1.0001 1.0001 0 0 0 20 21 L 20 5 C 20 3.3549904 18.64501 2 17 2 L 7 2 z M 7 4 L 17 4 C 17.564129 4 18 4.4358706 18 5 L 18 19.130859 L 16.554688 18.167969 A 1.0001 1.0001 0 0 0 15.292969 18.292969 L 14 19.585938 L 12.707031 18.292969 A 1.0001 1.0001 0 0 0 11.292969 18.292969 L 10 19.585938 L 8.7070312 18.292969 A 1.0001 1.0001 0 0 0 7.4453125 18.167969 L 6 19.130859 L 6 5 C 6 4.4358706 6.4358706 4 7 4 z M 9 6 A 1.0001 1.0001 0 0 0 9 8 L 10 8 C 10.749999 8 11.185226 8.2452444 11.501953 8.6015625 C 11.606296 8.7189478 11.696222 8.8534835 11.769531 9 L 9 9 A 1 1 0 0 0 8 10 A 1 1 0 0 0 9 11 L 11.769531 11 C 11.696222 11.146517 11.606296 11.281052 11.501953 11.398438 C 11.185226 11.754755 10.749999 12 10 12 L 9 12 A 1.0001 1.0001 0 0 0 8.2929688 13.707031 L 11.292969 16.707031 A 1 1 0 0 0 12.707031 16.707031 A 1 1 0 0 0 12.707031 15.292969 L 11.175781 13.761719 C 11.897372 13.552794 12.549527 13.231147 12.998047 12.726562 C 13.445969 12.22265 13.737277 11.625492 13.884766 11 L 15 11 A 1 1 0 0 0 16 10 A 1 1 0 0 0 15 9 L 13.849609 9 C 13.748944 8.6561604 13.603139 8.3216158 13.425781 8 L 15 8 A 1 1 0 0 0 16 7 A 1 1 0 0 0 15 6 L 10 6 L 9 6 z " fill="currentColor"/>
</svg>
