<svg xmlns="http://www.w3.org/2000/svg" width="1em" height="1em" viewBox="0 0 24 24" fill="currentColor">
  <path d="M 3 2 A 1 1 0 0 0 2.2929688 2.2929688 A 1 1 0 0 0 2.2929688 3.7070312 L 3.1171875 4.53125 A 1 1 0 0 0 3 5 L 3 9 A 1.0001 1.0001 0 0 0 4 10 L 8 10 A 1 1 0 0 0 8.46875 9.8828125 L 16.210938 17.625 C 11.969077 20.783883 5.7524115 18.347759 4.9902344 12.863281 A 1 1 0 0 0 3.8632812 12.009766 A 1 1 0 0 0 3.0097656 13.136719 C 3.9822173 20.13429 12.275786 23.279127 17.636719 19.050781 L 20.292969 21.707031 A 1 1 0 0 0 21.707031 21.707031 A 1 1 0 0 0 21.707031 20.292969 L 7.0351562 5.6210938 A 1 1 0 0 0 7.0175781 5.6035156 L 3.7070312 2.2929688 A 1 1 0 0 0 3 2 z M 11.46875 3.0292969 C 10.420346 3.0858691 9.3596418 3.3277587 8.328125 3.7792969 A 1 1 0 0 0 7.8125 5.0957031 A 1 1 0 0 0 9.1308594 5.6113281 C 13.465615 3.7138238 18.358277 6.4499079 19.009766 11.136719 A 1 1 0 0 0 20.136719 11.990234 A 1 1 0 0 0 20.990234 10.863281 C 20.370111 6.4021087 16.652891 3.2926379 12.511719 3.0332031 C 12.166621 3.0115836 11.818218 3.0104395 11.46875 3.0292969 z M 5 6.4140625 L 5.0449219 6.4589844 C 5.030402 6.4788381 5.0154069 6.4983411 5 6.5175781 L 5 6.4140625 z M 6.453125 7.8671875 L 6.5859375 8 L 6.3632812 8 C 6.394856 7.9568895 6.4242765 7.9121467 6.453125 7.8671875 z M 19 14 A 1 1 0 0 0 18 15 A 1 1 0 0 0 19 16 A 1 1 0 0 0 20 17 A 1 1 0 0 0 21 16 L 21 15 A 1.0001 1.0001 0 0 0 20 14 L 19 14 z " fill="currentColor"/>
</svg>
