<svg xmlns="http://www.w3.org/2000/svg" width="1em" height="1em" viewBox="0 0 24 24" fill="currentColor">
  <path d="M 5 4 C 3.3549904 4 2 5.3549904 2 7 L 2 17 C 2 18.64501 3.3549904 20 5 20 L 19 20 C 20.64501 20 22 18.64501 22 17 L 22 7 C 22 5.3549904 20.64501 4 19 4 L 5 4 z M 5 6 L 19 6 C 19.564129 6 20 6.4358706 20 7 L 20 17 C 20 17.564129 19.564129 18 19 18 L 5 18 C 4.4358706 18 4 17.564129 4 17 L 4 7 C 4 6.4358706 4.4358706 6 5 6 z M 7 9 A 1 1 0 0 0 6 10 A 1 1 0 0 0 7 11 L 7 14 A 1 1 0 0 0 8 15 A 1 1 0 0 0 9 14 L 9 10 A 1.0001 1.0001 0 0 0 8 9 L 7 9 z M 13.957031 9 A 1.0001 1.0001 0 0 0 13 10 L 13 14 A 1 1 0 0 0 14 15 A 1 1 0 0 0 15 14 L 15 13 L 16.199219 14.599609 A 1.0001 1.0001 0 0 0 18 14 L 18 10 A 1 1 0 0 0 17 9 A 1 1 0 0 0 16 10 L 16 11 L 14.800781 9.4003906 A 1.0001 1.0001 0 0 0 13.957031 9 z M 11 9.5 A 1 1 0 0 0 10 10.5 L 10 10.509766 A 1 1 0 0 0 11 11.509766 A 1 1 0 0 0 12 10.509766 L 12 10.5 A 1 1 0 0 0 11 9.5 z M 11 12.5 A 1 1 0 0 0 10 13.5 L 10 13.509766 A 1 1 0 0 0 11 14.509766 A 1 1 0 0 0 12 13.509766 L 12 13.5 A 1 1 0 0 0 11 12.5 z " fill="currentColor"/>
</svg>
