<svg xmlns="http://www.w3.org/2000/svg" width="1em" height="1em" viewBox="0 0 24 24" fill="currentColor">
  <path d="M 17 2 A 1 1 0 0 0 16.292969 2.2929688 A 1 1 0 0 0 16.292969 3.7070312 L 17.585938 5 L 7 5 C 4.8027056 5 3 6.8027056 3 9 L 3 12 A 1 1 0 0 0 4 13 A 1 1 0 0 0 5 12 L 5 9 C 5 7.8835859 5.8835859 7 7 7 L 17.585938 7 L 16.292969 8.2929688 A 1 1 0 0 0 16.292969 9.7070312 A 1 1 0 0 0 17.707031 9.7070312 L 20.707031 6.7070312 A 1.0001 1.0001 0 0 0 20.707031 6.2929688 A 1 1 0 0 0 21 6 A 1 1 0 0 0 20.707031 5.7070312 A 1.0001 1.0001 0 0 0 20.707031 5.2929688 L 17.707031 2.2929688 A 1 1 0 0 0 17 2 z M 20 11 A 1 1 0 0 0 19 12 L 19 15 C 19 16.116414 18.116414 17 17 17 L 6.4140625 17 L 7.7070312 15.707031 A 1 1 0 0 0 7.7070312 14.292969 A 1 1 0 0 0 6.2929688 14.292969 L 3.2929688 17.292969 A 1.0001 1.0001 0 0 0 3.2929688 17.707031 A 1 1 0 0 0 3 18 A 1 1 0 0 0 3.2929688 18.292969 A 1.0001 1.0001 0 0 0 3.2929688 18.707031 L 6.2929688 21.707031 A 1 1 0 0 0 7.7070312 21.707031 A 1 1 0 0 0 7.7070312 20.292969 L 6.4140625 19 L 17 19 C 19.197294 19 21 17.197294 21 15 L 21 12 A 1 1 0 0 0 20 11 z " fill="currentColor"/>
</svg>
