<svg xmlns="http://www.w3.org/2000/svg" width="1em" height="1em" viewBox="0 0 24 24" fill="currentColor">
  <path d="M 4 2 C 2.9072751 2 2 2.9072751 2 4 L 2 8 C 2 9.0927249 2.9072751 10 4 10 L 8 10 C 9.0927249 10 10 9.0927249 10 8 L 10 4 C 10 2.9072751 9.0927249 2 8 2 L 4 2 z M 16 2 A 1 1 0 0 0 15.292969 2.2929688 L 12.292969 5.2929688 A 1 1 0 0 0 12.189453 5.5410156 A 1.0001 1.0001 0 0 0 12.103516 5.7519531 A 1 1 0 0 0 12.292969 6.7070312 L 15.292969 9.7070312 A 1 1 0 0 0 16.707031 9.7070312 A 1 1 0 0 0 16.707031 8.2929688 L 15.414062 7 L 19 7 C 19.564129 7 20 7.4358706 20 8 L 20 11 A 1 1 0 0 0 21 12 A 1 1 0 0 0 22 11 L 22 8 C 22 6.3549904 20.64501 5 19 5 L 15.414062 5 L 16.707031 3.7070312 A 1 1 0 0 0 16.707031 2.2929688 A 1 1 0 0 0 16 2 z M 4 4 L 8 4 L 8 8 L 4 8 L 4 4 z M 3 12 A 1 1 0 0 0 2 13 L 2 16 C 2 17.64501 3.3549904 19 5 19 L 8.5859375 19 L 7.2929688 20.292969 A 1 1 0 0 0 7.2929688 21.707031 A 1 1 0 0 0 8.7070312 21.707031 L 11.707031 18.707031 A 1 1 0 0 0 11.707031 18.527344 A 1.0001 1.0001 0 0 0 11.707031 17.292969 L 8.7070312 14.292969 A 1 1 0 0 0 7.2929688 14.292969 A 1 1 0 0 0 7.2929688 15.707031 L 8.5859375 17 L 5 17 C 4.4358706 17 4 16.564129 4 16 L 4 13 A 1 1 0 0 0 3 12 z M 16 14 C 14.907275 14 14 14.907275 14 16 L 14 20 C 14 21.092725 14.907275 22 16 22 L 20 22 C 21.092725 22 22 21.092725 22 20 L 22 16 C 22 14.907275 21.092725 14 20 14 L 16 14 z M 16 16 L 20 16 L 20 20 L 16 20 L 16 16 z " fill="currentColor"/>
</svg>
