<svg xmlns="http://www.w3.org/2000/svg" width="1em" height="1em" viewBox="0 0 24 24" fill="currentColor">
  <path d="M 6 1.5019531 C 5.2045912 1.5019531 4.441211 1.8185546 3.8789062 2.3808594 C 3.3166014 2.9431641 3 3.7065443 3 4.5019531 C 3 5.2973619 3.3166015 6.0607421 3.8789062 6.6230469 C 3.9013221 6.6454627 3.9242214 6.6678227 3.9472656 6.6894531 C 3.5498808 6.8385208 3.184598 7.0712613 2.8789062 7.3769531 C 2.3166014 7.9392579 2 8.7026381 2 9.4980469 A 1 1 0 0 0 3 10.498047 A 1 1 0 0 0 4 9.4980469 C 4 9.2334557 4.1052735 8.980664 4.2929688 8.7929688 C 4.480664 8.6052734 4.7354088 8.4980469 5 8.4980469 L 7 8.4980469 C 7.2645912 8.4980469 7.519336 8.6052735 7.7070312 8.7929688 C 7.8947265 8.980664 8 9.2334557 8 9.4980469 A 1 1 0 0 0 9 10.498047 A 1 1 0 0 0 10 9.4980469 C 10 8.7026381 9.6833984 7.9392579 9.1210938 7.3769531 C 8.8154019 7.0712613 8.4501192 6.8385208 8.0527344 6.6894531 C 8.0757786 6.6678227 8.0986779 6.6454627 8.1210938 6.6230469 C 8.6833984 6.0607421 9 5.2973619 9 4.5019531 C 9 3.7065443 8.6833984 2.9431641 8.1210938 2.3808594 C 7.5587889 1.8185546 6.7954088 1.5019531 6 1.5019531 z M 16 2 A 1 1 0 0 0 15.292969 2.2929688 L 12.292969 5.2929688 A 1 1 0 0 0 12 6 A 1 1 0 0 0 12.292969 6.7070312 L 15.292969 9.7070312 A 1 1 0 0 0 16.707031 9.7070312 A 1 1 0 0 0 16.707031 8.2929688 L 15.414062 7 L 19 7 C 19.264591 7 19.519336 7.1052735 19.707031 7.2929688 C 19.894727 7.480664 20 7.7354088 20 8 L 20 11 A 1 1 0 0 0 21 12 A 1 1 0 0 0 22 11 L 22 8 C 22 7.2045912 21.683398 6.4412111 21.121094 5.8789062 C 20.558789 5.3166015 19.795409 5 19 5 L 15.414062 5 L 16.707031 3.7070312 A 1 1 0 0 0 16.707031 2.2929688 A 1 1 0 0 0 16 2 z M 6 3.5019531 C 6.2645912 3.5019531 6.519336 3.6072266 6.7070312 3.7949219 C 6.8947265 3.9826171 7 4.2373619 7 4.5019531 C 7 4.7665443 6.8947266 5.0212891 6.7070312 5.2089844 C 6.519336 5.3966796 6.2645912 5.5019531 6 5.5019531 C 5.7354088 5.5019531 5.4806641 5.3966796 5.2929688 5.2089844 C 5.1052735 5.0212891 5 4.7665443 5 4.5019531 C 5 4.2373619 5.1052735 3.9826171 5.2929688 3.7949219 C 5.480664 3.6072266 5.7354088 3.5019531 6 3.5019531 z M 3 12.013672 A 1 1 0 0 0 2 13.013672 L 2 16.013672 C 2 16.809081 2.3166015 17.572461 2.8789062 18.134766 C 3.4412109 18.69707 4.2045912 19.013672 5 19.013672 L 8.5859375 19.013672 L 7.2929688 20.306641 A 1 1 0 0 0 7.2929688 21.720703 A 1 1 0 0 0 8.7070312 21.720703 L 11.707031 18.720703 A 1 1 0 0 0 11.707031 18.306641 A 1 1 0 0 0 12 18.013672 A 1 1 0 0 0 11.707031 17.720703 A 1 1 0 0 0 11.707031 17.306641 L 8.7070312 14.306641 A 1 1 0 0 0 7.2929688 14.306641 A 1 1 0 0 0 7.2929688 15.720703 L 8.5859375 17.013672 L 5 17.013672 C 4.7354088 17.013672 4.480664 16.908398 4.2929688 16.720703 C 4.1052735 16.533008 4 16.278263 4 16.013672 L 4 13.013672 A 1 1 0 0 0 3 12.013672 z M 18 13.501953 C 17.204591 13.501953 16.441211 13.818555 15.878906 14.380859 C 15.316602 14.943164 15 15.706544 15 16.501953 C 15 17.297362 15.316602 18.060742 15.878906 18.623047 C 15.901322 18.645463 15.924221 18.667823 15.947266 18.689453 C 15.549881 18.838521 15.184598 19.071261 14.878906 19.376953 C 14.316602 19.939258 14 20.702638 14 21.498047 A 1 1 0 0 0 15 22.498047 A 1 1 0 0 0 16 21.498047 C 16 21.233456 16.105273 20.980664 16.292969 20.792969 C 16.480664 20.605273 16.735409 20.498047 17 20.498047 L 19 20.498047 C 19.264591 20.498047 19.519336 20.605273 19.707031 20.792969 C 19.894727 20.980664 20 21.233456 20 21.498047 A 1 1 0 0 0 21 22.498047 A 1 1 0 0 0 22 21.498047 C 22 20.702638 21.683398 19.939258 21.121094 19.376953 C 20.815402 19.071261 20.450119 18.838521 20.052734 18.689453 C 20.075779 18.667823 20.098678 18.645463 20.121094 18.623047 C 20.683398 18.060742 21 17.297362 21 16.501953 C 21 15.706544 20.683398 14.943164 20.121094 14.380859 C 19.558789 13.818555 18.795409 13.501953 18 13.501953 z M 18 15.501953 C 18.264591 15.501953 18.519336 15.607227 18.707031 15.794922 C 18.894727 15.982617 19 16.237362 19 16.501953 C 19 16.766544 18.894727 17.021289 18.707031 17.208984 C 18.519336 17.39668 18.264591 17.501953 18 17.501953 C 17.735409 17.501953 17.480664 17.39668 17.292969 17.208984 C 17.105273 17.021289 17 16.766544 17 16.501953 C 17 16.237362 17.105273 15.982617 17.292969 15.794922 C 17.480664 15.607227 17.735409 15.501953 18 15.501953 z " fill="currentColor"/>
</svg>
