<svg xmlns="http://www.w3.org/2000/svg" width="1em" height="1em" viewBox="0 0 24 24" fill="currentColor">
  <path d="M 3 2 A 1 1 0 0 0 2.2929688 2.2929688 A 1 1 0 0 0 2.2929688 3.7070312 L 6.2109375 7.625 L 3.0390625 18.724609 A 1 1 0 0 0 3.7246094 19.960938 A 1 1 0 0 0 4.9609375 19.275391 L 7.828125 9.2421875 L 11 12.414062 L 11 13 A 1 1 0 0 0 12 14 A 1 1 0 0 0 12.46875 13.882812 L 20.292969 21.707031 A 1 1 0 0 0 21.707031 21.707031 A 1 1 0 0 0 21.707031 20.292969 L 12.716797 11.302734 A 1 1 0 0 0 12.697266 11.283203 L 3.7070312 2.2929688 A 1 1 0 0 0 3 2 z M 15.982422 4 A 1 1 0 0 0 15.724609 4.0390625 A 1 1 0 0 0 15.039062 5.2753906 L 17.84375 15.097656 A 1 1 0 0 0 19.080078 15.785156 A 1 1 0 0 0 19.767578 14.548828 L 16.960938 4.7246094 A 1 1 0 0 0 15.982422 4 z M 12 5 A 1 1 0 0 0 11 6 L 11 8 A 1 1 0 0 0 12 9 A 1 1 0 0 0 13 8 L 13 6 A 1 1 0 0 0 12 5 z M 12 15 A 1 1 0 0 0 11 16 L 11 18 A 1 1 0 0 0 12 19 A 1 1 0 0 0 13 18 L 13 16 A 1 1 0 0 0 12 15 z " fill="currentColor"/>
</svg>
