<svg xmlns="http://www.w3.org/2000/svg" width="1em" height="1em" viewBox="0 0 24 24" fill="currentColor">
  <path d="M 12.009766 2.0175781 C 11.185874 2.0175781 10.361543 2.3302682 9.7402344 2.9550781 L 9.0429688 3.6523438 C 8.8182159 3.8748567 8.5155643 3.9998191 8.1992188 4 L 7.1992188 4 C 5.4437522 4 4 5.4437522 4 7.1992188 L 4 8.1992188 C 3.9998186 8.5164485 3.8740749 8.8199771 3.6503906 9.0449219 L 2.953125 9.7421875 C 1.7055012 10.985005 1.7061269 13.037342 2.9550781 14.279297 L 3.6523438 14.976562 C 3.8748598 15.201314 3.9998191 15.503966 4 15.820312 L 4 16.820312 C 4 18.575779 5.4437523 20.019531 7.1992188 20.019531 L 8.1992188 20.019531 C 8.5164485 20.019713 8.8199771 20.145456 9.0449219 20.369141 L 9.7421875 21.066406 C 10.985005 22.31403 13.037342 22.313454 14.279297 21.064453 L 14.976562 20.367188 C 15.201315 20.144675 15.503967 20.019712 15.820312 20.019531 L 16.820312 20.019531 C 18.575779 20.019531 20.019531 18.575779 20.019531 16.820312 L 20.019531 15.820312 C 20.019712 15.503967 20.144675 15.201315 20.367188 14.976562 L 20.369141 14.974609 L 21.064453 14.279297 L 21.066406 14.277344 C 22.313365 13.035189 22.313365 10.984342 21.066406 9.7421875 L 21.064453 9.7402344 L 20.369141 9.0449219 L 20.367188 9.0429688 C 20.144675 8.8183497 20.019712 8.5155643 20.019531 8.1992188 L 20.019531 7.1992188 C 20.019531 5.4437522 18.575779 4 16.820312 4 L 15.820312 4 C 15.503966 3.9998191 15.201315 3.8748567 14.976562 3.6523438 L 14.279297 2.9550781 C 13.657988 2.3302682 12.833657 2.0175781 12.009766 2.0175781 z M 12.009766 4.0039062 C 12.315803 4.0039062 12.622494 4.1250544 12.861328 4.3652344 A 1.0001 1.0001 0 0 0 12.863281 4.3671875 L 13.5625 5.0664062 A 1.0001 1.0001 0 0 0 13.564453 5.0683594 C 14.163281 5.6638818 14.975744 5.9995171 15.820312 6 L 16.820312 6 C 17.494899 6 18.019531 6.5246324 18.019531 7.1992188 L 18.019531 8.1992188 A 1.0001 1.0001 0 0 0 18.019531 8.2011719 C 18.020014 9.0457395 18.355653 9.8562031 18.951172 10.455078 A 1.0001 1.0001 0 0 0 18.953125 10.457031 L 19.652344 11.15625 A 1.0001 1.0001 0 0 0 19.654297 11.158203 C 20.134657 11.635871 20.134657 12.38366 19.654297 12.861328 A 1.0001 1.0001 0 0 0 19.652344 12.863281 L 18.953125 13.5625 A 1.0001 1.0001 0 0 0 18.951172 13.564453 C 18.355653 14.163328 18.020014 14.975744 18.019531 15.820312 L 18.019531 16.820312 C 18.019531 17.494899 17.4949 18.019531 16.820312 18.019531 L 15.820312 18.019531 C 14.975744 18.020014 14.163328 18.355653 13.564453 18.951172 A 1.0001 1.0001 0 0 0 13.5625 18.953125 L 12.863281 19.652344 A 1.0001 1.0001 0 0 0 12.861328 19.654297 C 12.38366 20.134657 11.635871 20.134657 11.158203 19.654297 A 1.0001 1.0001 0 0 0 11.15625 19.652344 L 10.457031 18.953125 A 1.0001 1.0001 0 0 0 10.455078 18.951172 C 9.8564381 18.355606 9.0457395 18.020014 8.2011719 18.019531 A 1.0001 1.0001 0 0 0 8.1992188 18.019531 L 7.1992188 18.019531 C 6.5246324 18.019531 6 17.494899 6 16.820312 L 6 15.820312 C 5.9995171 14.975744 5.6638786 14.163328 5.0683594 13.564453 A 1.0001 1.0001 0 0 0 5.0664062 13.5625 L 4.3671875 12.863281 A 1.0001 1.0001 0 0 0 4.3652344 12.861328 C 3.8848744 12.38366 3.8848744 11.635871 4.3652344 11.158203 A 1.0001 1.0001 0 0 0 4.3671875 11.15625 L 5.0664062 10.457031 A 1.0001 1.0001 0 0 0 5.0683594 10.455078 C 5.6638818 9.8563441 5.9995171 9.0457395 6 8.2011719 A 1.0001 1.0001 0 0 0 6 8.1992188 L 6 7.1992188 C 6 6.5246324 6.5246324 6 7.1992188 6 L 8.1992188 6 A 1.0001 1.0001 0 0 0 8.2011719 6 C 9.0457426 5.9995171 9.8562031 5.6638786 10.455078 5.0683594 A 1.0001 1.0001 0 0 0 10.457031 5.0664062 L 11.15625 4.3671875 A 1.0001 1.0001 0 0 0 11.158203 4.3652344 C 11.397037 4.1250544 11.703728 4.0039063 12.009766 4.0039062 z M 9.5 8 C 9.1527779 8 8.7921194 8.1103471 8.4921875 8.3769531 C 8.1922556 8.6435592 8 9.0833333 8 9.5 C 8 9.9166667 8.1922556 10.356441 8.4921875 10.623047 C 8.7921194 10.889653 9.1527779 11 9.5 11 C 9.8472221 11 10.207881 10.889653 10.507812 10.623047 C 10.807743 10.356441 11 9.9166667 11 9.5 C 11 9.0833333 10.807744 8.6435592 10.507812 8.3769531 C 10.20788 8.1103471 9.8472221 8 9.5 8 z M 15 8 A 1 1 0 0 0 14.292969 8.2929688 L 8.2929688 14.292969 A 1 1 0 0 0 8.2929688 15.707031 A 1 1 0 0 0 9.7070312 15.707031 L 15.707031 9.7070312 A 1 1 0 0 0 15.707031 8.2929688 A 1 1 0 0 0 15 8 z M 14.5 13 C 14.152778 13 13.792119 13.110347 13.492188 13.376953 C 13.192255 13.643559 13 14.083333 13 14.5 C 13 14.916667 13.192256 15.356441 13.492188 15.623047 C 13.792118 15.889653 14.152778 16 14.5 16 C 14.847222 16 15.20788 15.889653 15.507812 15.623047 C 15.807743 15.356441 16 14.916667 16 14.5 C 16 14.083333 15.807744 13.643559 15.507812 13.376953 C 15.20788 13.110347 14.847222 13 14.5 13 z " fill="currentColor"/>
</svg>
