<svg xmlns="http://www.w3.org/2000/svg" width="1em" height="1em" viewBox="0 0 24 24" fill="currentColor">
  <path d="M 11.990234 3.0390625 C 7.8987134 3.0554305 3.7320964 5.8014324 3.0917969 10.923828 C 2.531132 15.409147 5.3998245 19.629907 9.7773438 20.755859 C 13.258687 21.651304 16.783219 20.31426 18.949219 17.640625 L 18.949219 20 A 1 1 0 0 0 19.949219 21 A 1 1 0 0 0 20.949219 20 L 20.949219 15 A 1.0001 1.0001 0 0 0 19.949219 14 L 14.949219 14 A 1 1 0 0 0 13.949219 15 A 1 1 0 0 0 14.949219 16 L 17.660156 16 C 16.019085 18.337504 13.151689 19.558179 10.275391 18.818359 C 6.8576589 17.939276 4.6382966 14.674877 5.0761719 11.171875 C 5.5985394 6.9929349 8.7526534 5.0520456 11.998047 5.0390625 C 15.24344 5.0260795 18.409608 6.9396511 18.958984 11.130859 A 1 1 0 0 0 20.080078 11.992188 A 1 1 0 0 0 20.941406 10.869141 C 20.268769 5.7375665 16.081756 3.0226945 11.990234 3.0390625 z " fill="currentColor"/>
</svg>
