<svg xmlns="http://www.w3.org/2000/svg" width="1em" height="1em" viewBox="0 0 24 24" fill="currentColor">
  <path d="M 12 2 A 1 1 0 0 0 11 3 A 1 1 0 0 0 12 4 C 15.325553 4 18 6.6744469 18 10 L 18 11.585938 L 16.707031 10.292969 A 1 1 0 0 0 15.292969 10.292969 A 1 1 0 0 0 15.292969 11.707031 L 18.292969 14.707031 A 1 1 0 0 0 18.390625 14.792969 A 1.0001 1.0001 0 0 0 18.46875 14.845703 A 1 1 0 0 0 18.505859 14.869141 A 1.0001 1.0001 0 0 0 18.544922 14.886719 A 1 1 0 0 0 18.632812 14.929688 A 1.0001 1.0001 0 0 0 18.677734 14.943359 A 1 1 0 0 0 18.755859 14.966797 A 1.0001 1.0001 0 0 0 18.804688 14.978516 A 1 1 0 0 0 18.894531 14.994141 A 1.0001 1.0001 0 0 0 18.943359 14.996094 A 1 1 0 0 0 19.035156 14.998047 A 1.0001 1.0001 0 0 0 19.046875 14.998047 A 1 1 0 0 0 19.167969 14.984375 A 1.0001 1.0001 0 0 0 19.21875 14.972656 A 1 1 0 0 0 19.285156 14.957031 A 1.0001 1.0001 0 0 0 19.34375 14.935547 A 1 1 0 0 0 19.421875 14.904297 A 1.0001 1.0001 0 0 0 19.466797 14.880859 A 1 1 0 0 0 19.564453 14.824219 A 1.0001 1.0001 0 0 0 19.576172 14.814453 A 1 1 0 0 0 19.652344 14.755859 A 1.0001 1.0001 0 0 0 19.685547 14.724609 A 1 1 0 0 0 19.707031 14.707031 L 22.707031 11.707031 A 1 1 0 0 0 22.707031 10.292969 A 1 1 0 0 0 21.292969 10.292969 L 20 11.585938 L 20 10 C 20 5.5935666 16.406433 2 12 2 z M 8 8.5 A 1.0001 1.0001 0 0 0 7.4863281 8.6425781 L 2.515625 11.625 A 1 1 0 0 0 2.5039062 11.632812 L 2.4863281 11.642578 A 1.0001 1.0001 0 0 0 2.4648438 11.65625 A 1 1 0 0 0 2.3847656 11.712891 A 1.0001 1.0001 0 0 0 2.3457031 11.746094 A 1 1 0 0 0 2.2832031 11.806641 A 1.0001 1.0001 0 0 0 2.2480469 11.845703 A 1 1 0 0 0 2.203125 11.898438 A 1.0001 1.0001 0 0 0 2.1679688 11.949219 A 1 1 0 0 0 2.1171875 12.033203 A 1.0001 1.0001 0 0 0 2.1113281 12.044922 A 1 1 0 0 0 2.0683594 12.144531 A 1.0001 1.0001 0 0 0 2.0488281 12.199219 A 1 1 0 0 0 2.0292969 12.265625 A 1.0001 1.0001 0 0 0 2.0175781 12.332031 A 1 1 0 0 0 2.0058594 12.412109 A 1.0001 1.0001 0 0 0 2.0039062 12.447266 A 1 1 0 0 0 2 12.5 L 2 18 A 1.0001 1.0001 0 0 0 2.4863281 18.857422 L 7.4863281 21.857422 A 1 1 0 0 0 7.5429688 21.886719 A 1.0001 1.0001 0 0 0 7.5820312 21.90625 A 1 1 0 0 0 7.6738281 21.943359 A 1.0001 1.0001 0 0 0 7.7109375 21.955078 A 1 1 0 0 0 7.7871094 21.974609 A 1.0001 1.0001 0 0 0 7.8984375 21.992188 A 1 1 0 0 0 7.984375 22 A 1.0001 1.0001 0 0 0 8.0898438 21.994141 A 1 1 0 0 0 8.1171875 21.992188 A 1 1 0 0 0 8.2421875 21.96875 A 1.0001 1.0001 0 0 0 8.3671875 21.929688 A 1 1 0 0 0 8.3710938 21.927734 A 1.0001 1.0001 0 0 0 8.4492188 21.890625 A 1 1 0 0 0 8.4980469 21.865234 A 1.0001 1.0001 0 0 0 8.5136719 21.857422 L 13.513672 18.857422 A 1.0001 1.0001 0 0 0 14 18 L 14 12.550781 A 1 1 0 0 0 14 12.5 A 1.0001 1.0001 0 0 0 13.998047 12.480469 A 1 1 0 0 0 13.994141 12.410156 A 1.0001 1.0001 0 0 0 13.984375 12.328125 A 1.0001 1.0001 0 0 0 13.982422 12.320312 A 1 1 0 0 0 13.980469 12.310547 A 1.0001 1.0001 0 0 0 13.953125 12.207031 A 1.0001 1.0001 0 0 0 13.513672 11.642578 L 8.5136719 8.6425781 A 1.0001 1.0001 0 0 0 8 8.5 z M 8 10.666016 L 11.076172 12.511719 L 8.0351562 14.355469 L 4.9433594 12.5 L 8 10.666016 z M 4 14.265625 L 7 16.066406 L 7 19.234375 L 4 17.433594 L 4 14.265625 z M 12 14.291016 L 12 17.433594 L 9 19.234375 L 9 16.107422 L 12 14.291016 z " fill="currentColor"/>
</svg>
