<svg xmlns="http://www.w3.org/2000/svg" width="1em" height="1em" viewBox="0 0 24 24" fill="currentColor">
  <path d="M 3 2 A 1.0001 1.0001 0 0 0 2 3 L 2 8 A 1 1 0 0 0 3 9 A 1 1 0 0 0 4 8 L 4 4 L 8 4 A 1 1 0 0 0 9 3 A 1 1 0 0 0 8 2 L 3 2 z M 16 2 A 1 1 0 0 0 15 3 A 1 1 0 0 0 16 4 L 18.585938 4 L 12.757812 9.828125 A 1.0001 1.0001 0 0 0 12.755859 9.828125 C 11.631614 10.952713 11.00034 12.480114 11 14.070312 L 11 21 A 1 1 0 0 0 12 22 A 1 1 0 0 0 13 21 L 13 14.070312 C 13.000227 13.009542 13.421896 11.992363 14.171875 11.242188 L 20 5.4140625 L 20 8 A 1 1 0 0 0 21 9 A 1 1 0 0 0 22 8 L 22 3 A 1.0001 1.0001 0 0 0 21.707031 2.2929688 A 1 1 0 0 0 21.382812 2.0761719 A 1.0001 1.0001 0 0 0 21 2 L 16 2 z M 6 5 A 1 1 0 0 0 5 6 L 5 6.0097656 A 1 1 0 0 0 6 7.0097656 A 1 1 0 0 0 7 6.0097656 L 7 6 A 1 1 0 0 0 6 5 z M 8 7.0097656 A 1 1 0 0 0 7 8.0097656 L 7 8.0195312 A 1 1 0 0 0 8 9.0195312 A 1 1 0 0 0 9 8.0195312 L 9 8.0097656 A 1 1 0 0 0 8 7.0097656 z M 10 9 A 1 1 0 0 0 9 10 L 9 10.009766 A 1 1 0 0 0 10 11.009766 A 1 1 0 0 0 11 10.009766 L 11 10 A 1 1 0 0 0 10 9 z " fill="currentColor"/>
</svg>
