<svg xmlns="http://www.w3.org/2000/svg" width="1em" height="1em" viewBox="0 0 24 24" fill="currentColor">
  <path d="M 3 2 A 1.0001 1.0001 0 0 0 2 3 L 2 8 A 1 1 0 0 0 3 9 A 1 1 0 0 0 4 8 L 4 5.4140625 L 9.828125 11.242188 C 10.578104 11.992363 10.999773 13.009541 11 14.070312 L 11 21 A 1 1 0 0 0 12 22 A 1 1 0 0 0 13 21 L 13 14.070312 C 12.99966 12.480114 12.368432 10.952713 11.244141 9.828125 A 1.0001 1.0001 0 0 0 11.242188 9.828125 L 5.4140625 4 L 8 4 A 1 1 0 0 0 9 3 A 1 1 0 0 0 8 2 L 3 2 z M 16 2 A 1 1 0 0 0 15 3 A 1 1 0 0 0 16 4 L 20 4 L 20 8 A 1 1 0 0 0 21 9 A 1 1 0 0 0 22 8 L 22 3 A 1.0001 1.0001 0 0 0 21 2 L 16 2 z M 18 5 A 1 1 0 0 0 17 6 L 17 6.0097656 A 1 1 0 0 0 18 7.0097656 A 1 1 0 0 0 19 6.0097656 L 19 6 A 1 1 0 0 0 18 5 z M 16 7.0097656 A 1 1 0 0 0 15 8.0097656 L 15 8.0195312 A 1 1 0 0 0 16 9.0195312 A 1 1 0 0 0 17 8.0195312 L 17 8.0097656 A 1 1 0 0 0 16 7.0097656 z M 14 9 A 1 1 0 0 0 13 10 L 13 10.009766 A 1 1 0 0 0 14 11.009766 A 1 1 0 0 0 15 10.009766 L 15 10 A 1 1 0 0 0 14 9 z " fill="currentColor"/>
</svg>
