<svg xmlns="http://www.w3.org/2000/svg" width="1em" height="1em" viewBox="0 0 24 24" fill="currentColor">
  <path d="M 3 2 A 1 1 0 0 0 2.2929688 2.2929688 A 1 1 0 0 0 2.2929688 3.7070312 L 4.6894531 6.1035156 C 3.876125 7.3883928 3.8128468 8.944612 4.34375 10.224609 C 4.9880555 11.778018 6.539273 12.999583 8.5 13 L 11.585938 13 L 16.583984 17.998047 C 16.555933 17.998963 16.528321 18 16.5 18 L 12 18 A 1 1 0 0 0 11 19 A 1 1 0 0 0 12 20 L 16.5 20 C 17.113043 20 17.702139 19.876503 18.238281 19.652344 L 20.292969 21.707031 A 1 1 0 0 0 21.707031 21.707031 A 1 1 0 0 0 21.707031 20.292969 L 19.158203 17.744141 A 1 1 0 0 0 19.107422 17.693359 L 12.746094 11.332031 A 1 1 0 0 0 12.669922 11.255859 L 3.7070312 2.2929688 A 1 1 0 0 0 3 2 z M 18 2 C 17.277778 2 16.542119 2.2353472 15.960938 2.7519531 C 15.379755 3.268559 15 4.0833335 15 5 C 15 5.9166665 15.379756 6.731441 15.960938 7.2480469 C 16.542119 7.7646528 17.277778 8 18 8 C 18.722222 8 19.457881 7.7646528 20.039062 7.2480469 C 20.620244 6.731441 21 5.9166665 21 5 C 21 4.0833335 20.620244 3.268559 20.039062 2.7519531 C 19.457881 2.2353472 18.722222 2 18 2 z M 8.5 4 A 1 1 0 0 0 7.5 5 A 1 1 0 0 0 8.5 6 L 12 6 A 1 1 0 0 0 13 5 A 1 1 0 0 0 12 4 L 8.5 4 z M 18 4 C 18.277778 4 18.542119 4.097986 18.710938 4.2480469 C 18.879756 4.3981073 19 4.5833337 19 5 C 19 5.4166663 18.879756 5.6018927 18.710938 5.7519531 C 18.542119 5.9020136 18.277778 6 18 6 C 17.722222 6 17.457881 5.9020136 17.289062 5.7519531 C 17.120244 5.6018927 17 5.4166663 17 5 C 17 4.5833337 17.120244 4.3981073 17.289062 4.2480469 C 17.457881 4.0979864 17.722222 4 18 4 z M 6.1601562 7.5742188 L 9.5859375 11 L 8.5 11 C 7.3448767 10.999754 6.5568084 10.338009 6.1914062 9.4570312 C 5.9433535 8.8589806 5.9042816 8.1948023 6.1601562 7.5742188 z M 16.001953 11 A 1 1 0 0 0 15.001953 12 A 1 1 0 0 0 16.001953 13 L 16.5 13 C 18.030329 12.999988 19.181831 14.315268 18.978516 15.832031 A 1 1 0 0 0 19.835938 16.957031 A 1 1 0 0 0 20.960938 16.097656 C 21.320342 13.416452 19.205185 10.999979 16.5 11 L 16.001953 11 z M 6 16 C 5.2777779 16 4.5421194 16.235347 3.9609375 16.751953 C 3.3797556 17.268559 3 18.083334 3 19 C 3 19.916666 3.3797556 20.731441 3.9609375 21.248047 C 4.5421194 21.764653 5.2777779 22 6 22 C 6.7222221 22 7.4578806 21.764653 8.0390625 21.248047 C 8.6202444 20.731441 9 19.916666 9 19 C 9 18.083334 8.6202444 17.268559 8.0390625 16.751953 C 7.4578806 16.235347 6.7222221 16 6 16 z M 6 18 C 6.2777779 18 6.5421194 18.09799 6.7109375 18.248047 C 6.8797556 18.398107 7 18.583334 7 19 C 7 19.416666 6.8797556 19.601893 6.7109375 19.751953 C 6.5421194 19.902014 6.2777779 20 6 20 C 5.7222221 20 5.4578806 19.902014 5.2890625 19.751953 C 5.1202444 19.601893 5 19.416666 5 19 C 5 18.583334 5.1202444 18.398107 5.2890625 18.248047 C 5.4578806 18.097986 5.7222221 18 6 18 z " fill="currentColor"/>
</svg>
