<svg xmlns="http://www.w3.org/2000/svg" width="1em" height="1em" viewBox="0 0 24 24" fill="currentColor">
  <path d="M 4 3 A 1 1 0 0 0 3 4 A 1 1 0 0 0 4 5 C 12.296116 5 19 11.703884 19 20 A 1 1 0 0 0 20 21 A 1 1 0 0 0 21 20 C 21 10.623004 13.376996 3 4 3 z M 4 10 A 1 1 0 0 0 3 11 A 1 1 0 0 0 4 12 C 8.4301226 12 12 15.569877 12 20 A 1 1 0 0 0 13 21 A 1 1 0 0 0 14 20 C 14 14.488997 9.5110029 10 4 10 z M 5 17 C 4.5277779 17 4.0421194 17.152014 3.6484375 17.501953 C 3.2547556 17.851892 3 18.416667 3 19 C 3 19.583333 3.2547556 20.148108 3.6484375 20.498047 C 4.0421194 20.847986 4.5277779 21 5 21 C 5.4722221 21 5.9578806 20.847986 6.3515625 20.498047 C 6.7452444 20.148108 7 19.583333 7 19 C 7 18.416667 6.7452444 17.851892 6.3515625 17.501953 C 5.9578806 17.152014 5.4722221 17 5 17 z " fill="currentColor"/>
</svg>
