<svg xmlns="http://www.w3.org/2000/svg" width="1em" height="1em" viewBox="0 0 24 24" fill="currentColor">
  <path d="M 3 2 A 1 1 0 0 0 2.2929688 2.2929688 A 1 1 0 0 0 2.2929688 3.7070312 L 8.5859375 10 L 2.2929688 16.292969 A 1.0001 1.0001 0 0 0 2.2929688 17.707031 L 6.2929688 21.707031 A 1.0001 1.0001 0 0 0 7.7070312 21.707031 L 14 15.414062 L 20.292969 21.707031 A 1 1 0 0 0 21.707031 21.707031 A 1 1 0 0 0 21.707031 20.292969 L 14.707031 13.292969 L 10.707031 9.2929688 L 3.7070312 2.2929688 A 1 1 0 0 0 3 2 z M 17 2 A 1.0001 1.0001 0 0 0 16.292969 2.2929688 L 11.322266 7.2636719 A 1 1 0 0 0 11.322266 8.6777344 A 1 1 0 0 0 12.736328 8.6777344 L 14.5 6.9140625 L 15.292969 7.7070312 A 1 1 0 0 0 16.707031 7.7070312 A 1 1 0 0 0 16.707031 6.2929688 L 15.914062 5.5 L 17 4.4140625 L 19.585938 7 L 15.292969 11.292969 A 1 1 0 0 0 15.292969 12.707031 A 1 1 0 0 0 16.707031 12.707031 L 21.707031 7.7070312 A 1.0001 1.0001 0 0 0 21.707031 6.2929688 L 17.707031 2.2929688 A 1.0001 1.0001 0 0 0 17 2 z M 10 11.414062 L 12.585938 14 L 7 19.585938 L 4.4140625 17 L 5.5 15.914062 L 6.2929688 16.707031 A 1 1 0 0 0 7.7070312 16.707031 A 1 1 0 0 0 7.7070312 15.292969 L 6.9140625 14.5 L 8.5 12.914062 L 9.2929688 13.707031 A 1 1 0 0 0 10.707031 13.707031 A 1 1 0 0 0 10.707031 12.292969 L 9.9140625 11.5 L 10 11.414062 z " fill="currentColor"/>
</svg>
