<svg xmlns="http://www.w3.org/2000/svg" width="1em" height="1em" viewBox="0 0 24 24" fill="currentColor">
  <path d="M 13 2 C 12.527778 2 12.042119 2.1520138 11.648438 2.5019531 C 11.254755 2.8518924 11 3.4166667 11 4 C 11 4.5833333 11.254756 5.1481076 11.648438 5.4980469 C 12.042118 5.8479862 12.527778 6 13 6 C 13.472222 6 13.95788 5.8479862 14.351562 5.4980469 C 14.745243 5.1481076 15 4.5833333 15 4 C 15 3.4166667 14.745244 2.8518924 14.351562 2.5019531 C 13.95788 2.1520138 13.472222 2 13 2 z M 12.039062 7 A 1 1 0 0 0 11.966797 7.0019531 A 1.0001 1.0001 0 0 0 11.931641 7.0039062 A 1 1 0 0 0 11.853516 7.0136719 A 1.0001 1.0001 0 0 0 11.804688 7.0195312 L 11.789062 7.0234375 L 6.8046875 8.0195312 A 1.0001 1.0001 0 0 0 6 9 L 6 12 A 1 1 0 0 0 7 13 A 1 1 0 0 0 8 12 L 8 9.8203125 L 10.775391 9.265625 L 10.013672 13.835938 A 1.0001 1.0001 0 0 0 10.400391 14.800781 L 14 17.5 L 14 21 A 1 1 0 0 0 15 22 A 1 1 0 0 0 16 21 L 16 17 A 1.0001 1.0001 0 0 0 15.599609 16.199219 L 12.085938 13.564453 L 12.666016 10.080078 L 14.292969 11.707031 A 1.0001 1.0001 0 0 0 14.683594 11.949219 L 17.683594 12.949219 A 1 1 0 0 0 18.949219 12.316406 A 1 1 0 0 0 18.316406 11.050781 L 15.541016 10.125 L 12.707031 7.2929688 A 1.0001 1.0001 0 0 0 12.658203 7.25 A 1.0001 1.0001 0 0 0 12.634766 7.2285156 A 1 1 0 0 0 12.625 7.2207031 A 1.0001 1.0001 0 0 0 12.554688 7.171875 A 1 1 0 0 0 12.511719 7.1425781 A 1.0001 1.0001 0 0 0 12.447266 7.1074219 A 1 1 0 0 0 12.380859 7.0761719 A 1.0001 1.0001 0 0 0 12.333984 7.0585938 A 1 1 0 0 0 12.248047 7.0332031 A 1.0001 1.0001 0 0 0 12.199219 7.0214844 A 1 1 0 0 0 12.164062 7.0136719 A 1 1 0 0 0 12.105469 7.0078125 A 1 1 0 0 0 12.083984 7.0039062 A 1.0001 1.0001 0 0 0 12.074219 7.0039062 A 1 1 0 0 0 12.039062 7 z M 9.6894531 15.501953 A 1 1 0 0 0 9.4335938 15.550781 A 1 1 0 0 0 8.8554688 16.052734 L 8.4472656 16.869141 L 4.1953125 16.019531 A 1 1 0 0 0 3.0195312 16.804688 A 1 1 0 0 0 3.8046875 17.980469 L 8.8046875 18.980469 A 1.0001 1.0001 0 0 0 9.8945312 18.447266 L 10.644531 16.947266 A 1 1 0 0 0 10.197266 15.605469 A 1 1 0 0 0 9.6894531 15.501953 z " fill="currentColor"/>
</svg>
