<svg xmlns="http://www.w3.org/2000/svg" width="1em" height="1em" viewBox="0 0 24 24" fill="currentColor">
  <path d="M 5 2 C 4.2777779 2 3.5421194 2.2353472 2.9609375 2.7519531 C 2.3797556 3.268559 2 4.0833335 2 5 C 2 5.9166665 2.3797556 6.731441 2.9609375 7.2480469 C 3.2716848 7.5242666 3.6265945 7.7193743 4 7.8417969 L 4 16.5 C 4 17.916666 4.5672556 19.106441 5.4296875 19.873047 C 6.2921194 20.639653 7.4027779 21 8.5 21 C 9.5972221 21 10.707881 20.639653 11.570312 19.873047 C 12.432743 19.106441 13 17.916666 13 16.5 L 13 7.5 C 13 6.5833339 13.307744 6.0231072 13.757812 5.6230469 C 14.20788 5.2229865 14.847222 5 15.5 5 C 16.152778 5 16.792119 5.2229865 17.242188 5.6230469 C 17.692256 6.0231072 18 6.5833339 18 7.5 L 18 18.585938 L 16.707031 17.292969 A 1 1 0 0 0 15.292969 17.292969 A 1 1 0 0 0 15.292969 18.707031 L 18.283203 21.697266 L 18.292969 21.707031 A 1.0001 1.0001 0 0 0 18.341797 21.75 A 1 1 0 0 0 18.384766 21.787109 A 1.0001 1.0001 0 0 0 18.439453 21.824219 A 1 1 0 0 0 18.492188 21.861328 A 1.0001 1.0001 0 0 0 18.5 21.865234 A 1 1 0 0 0 18.611328 21.921875 A 1.0001 1.0001 0 0 0 18.617188 21.923828 A 1 1 0 0 0 18.742188 21.964844 A 1 1 0 0 0 18.794922 21.976562 A 1.0001 1.0001 0 0 0 19 22 A 1.0001 1.0001 0 0 0 19.205078 21.976562 A 1.0001 1.0001 0 0 0 19.257812 21.964844 A 1 1 0 0 0 19.382812 21.923828 A 1.0001 1.0001 0 0 0 19.560547 21.824219 A 1 1 0 0 0 19.615234 21.787109 A 1.0001 1.0001 0 0 0 19.658203 21.75 A 1 1 0 0 0 19.716797 21.697266 L 22.707031 18.707031 A 1 1 0 0 0 22.707031 17.292969 A 1 1 0 0 0 21.292969 17.292969 L 20 18.585938 L 20 7.5 C 20 6.0833337 19.432744 4.8935589 18.570312 4.1269531 C 17.707881 3.3603473 16.597222 3 15.5 3 C 14.402778 3 13.292119 3.3603473 12.429688 4.1269531 C 11.567255 4.8935589 11 6.0833337 11 7.5 L 11 16.5 C 11 17.416666 10.692256 17.976893 10.242188 18.376953 C 9.7921189 18.777013 9.1527779 19 8.5 19 C 7.8472221 19 7.2078806 18.777013 6.7578125 18.376953 C 6.3077444 17.976893 6 17.416666 6 16.5 L 6 7.8417969 C 6.3734055 7.7193743 6.7283152 7.5242666 7.0390625 7.2480469 C 7.6202444 6.731441 8 5.9166665 8 5 C 8 4.0833335 7.6202444 3.268559 7.0390625 2.7519531 C 6.4578806 2.2353472 5.7222221 2 5 2 z M 5 4 C 5.2777779 4 5.5421194 4.0979864 5.7109375 4.2480469 C 5.8797556 4.3981073 6 4.5833337 6 5 C 6 5.4166663 5.8797556 5.6018927 5.7109375 5.7519531 C 5.5421194 5.9020136 5.2777779 6 5 6 C 4.7222221 6 4.4578806 5.9020136 4.2890625 5.7519531 C 4.1202444 5.6018927 4 5.4166663 4 5 C 4 4.5833337 4.1202444 4.3981073 4.2890625 4.2480469 C 4.4578806 4.0979864 4.7222221 4 5 4 z " fill="currentColor"/>
</svg>
