<svg xmlns="http://www.w3.org/2000/svg" width="1em" height="1em" viewBox="0 0 24 24" fill="currentColor">
  <path d="M 9.0195312 3 A 1.0001 1.0001 0 0 0 8.625 3.0722656 A 1.0001 1.0001 0 0 0 8.0292969 3.7578125 L 7.2167969 7.0078125 C 7.0661601 7.002071 6.9123967 7 6.7558594 7 L 5 7 A 1.0001 1.0001 0 0 0 4 8 L 4 9 A 1.0001 1.0001 0 0 0 4 9.0429688 C 4.0138643 9.3630258 4.0388001 9.6822095 4.0761719 10 L 4 10 C 2.9072751 10 2 10.907275 2 12 L 2 12.5 C 2 13.764 2.6752871 15.049566 3.5117188 16.433594 C 4.2247236 17.613389 5.06571 18.667347 6 19.417969 L 6 20 C 6 21.092725 6.9072751 22 8 22 L 16 22 C 17.092725 22 18 21.092725 18 20 L 18 19.412109 C 18.879072 18.689972 19.682182 17.66811 20.408203 16.490234 C 20.837528 15.79371 21.218763 15.078356 21.503906 14.410156 C 21.78905 13.741956 22 13.154667 22 12.5 L 22 12 C 22 10.907275 21.092725 10 20 10 L 19.771484 10 C 19.907413 9.1721559 19.950136 8.2928558 19.998047 7.3359375 A 1.0001 1.0001 0 0 0 20 7.2851562 L 20 6 A 1.0001 1.0001 0 0 0 19 5 L 16.744141 5 C 15.421159 5 14.265851 5.1722584 13.279297 5.4960938 L 9.5292969 3.1523438 A 1.0001 1.0001 0 0 0 9.0195312 3 z M 9.6367188 5.5761719 L 11.220703 6.5664062 C 11.043925 6.7046373 10.878241 6.8511461 10.722656 7.0058594 C 10.648301 7.0015694 10.574282 7 10.5 7 C 10.070149 7 9.6373194 7.0720892 9.2265625 7.2207031 L 9.6367188 5.5761719 z M 16.744141 7 L 18 7 L 18 7.2519531 C 17.944841 8.3494537 17.880611 9.2643615 17.732422 10 L 13.96875 10 C 13.855837 9.1293107 13.451534 8.3824841 12.882812 7.8769531 C 12.874139 7.8692436 12.866156 7.8611186 12.857422 7.8535156 C 13.713345 7.3301081 14.946391 7 16.744141 7 z M 6.0058594 9 L 6.7558594 9 C 6.9460477 9 7.1287279 9.0057138 7.3027344 9.015625 C 7.1709786 9.3186723 7.0767683 9.649001 7.03125 10 L 6.0957031 10 C 6.051592 9.6682821 6.0216506 9.3345356 6.0058594 9 z M 10.5 9 C 10.59428 9 10.687943 9.0067697 10.779297 9.0214844 A 1 1 0 0 0 10.990234 9.0703125 C 11.206385 9.1336066 11.401993 9.237319 11.554688 9.3730469 C 11.729643 9.528563 11.869734 9.7181921 11.943359 10 L 9.0566406 10 C 9.1302664 9.7181921 9.2703567 9.528563 9.4453125 9.3730469 C 9.4711985 9.3500371 9.499102 9.3277842 9.5273438 9.3066406 A 1 1 0 0 0 9.8808594 9.1132812 C 10.071671 9.0400176 10.283971 9 10.5 9 z M 4 12 L 5.1289062 12 A 1 1 0 0 0 5.3828125 12 L 8 12 L 13 12 L 20 12 L 20 12.5 C 20 12.59533 19.897201 13.078669 19.664062 13.625 C 19.430926 14.171331 19.090378 14.814353 18.705078 15.439453 C 17.934477 16.689654 16.869629 17.902981 16.470703 18.152344 A 1.0001 1.0001 0 0 0 16 19 L 16 20 L 8 20 L 8 19 A 1.0001 1.0001 0 0 0 7.5292969 18.152344 C 6.9872177 17.813665 5.9644747 16.627863 5.2226562 15.400391 C 4.4808379 14.172918 4 12.736 4 12.5 L 4 12 z " fill="currentColor"/>
</svg>
