<svg xmlns="http://www.w3.org/2000/svg" width="1em" height="1em" viewBox="0 0 24 24" fill="currentColor">
  <path d="M 12 2 A 1 1 0 0 0 11 3 L 11 4.1523438 L 5.8359375 5.0136719 A 1 1 0 0 0 5.6171875 5.078125 A 1.0001 1.0001 0 0 0 5.5859375 5.0898438 A 1 1 0 0 0 5.5742188 5.0957031 A 1.0001 1.0001 0 0 0 5.46875 5.1523438 A 1 1 0 0 0 5.3652344 5.2285156 A 1.0001 1.0001 0 0 0 5.2871094 5.3027344 A 1 1 0 0 0 5.2675781 5.3203125 A 1.0001 1.0001 0 0 0 5.2265625 5.3691406 A 1 1 0 0 0 5.1796875 5.4316406 A 1.0001 1.0001 0 0 0 5.1640625 5.4550781 A 1 1 0 0 0 5.1113281 5.5449219 A 1.0001 1.0001 0 0 0 5.1054688 5.5527344 L 2.1054688 11.552734 A 1.0001 1.0001 0 0 0 2 12 C 2 13.25 2.5047556 14.314774 3.2734375 14.998047 C 4.0421194 15.681319 5.0277779 16 6 16 C 6.9722221 16 7.9578806 15.681319 8.7265625 14.998047 C 9.4197759 14.381857 9.8444001 13.428606 9.9316406 12.335938 A 1 1 0 0 0 9.9453125 12.267578 C 9.9513694 12.172177 10 12.097768 10 12 A 1 1 0 0 0 9.9199219 11.919922 A 1 1 0 0 0 9.8945312 11.552734 L 7.5 6.7636719 L 11 6.1796875 L 11 19 L 7 19 A 1 1 0 0 0 6 20 A 1 1 0 0 0 7 21 L 17 21 A 1 1 0 0 0 18 20 A 1 1 0 0 0 17 19 L 13 19 L 13 6.1796875 L 16.5 6.7636719 L 14.105469 11.552734 A 1.0001 1.0001 0 0 0 14 12 C 14 13.25 14.504756 14.314774 15.273438 14.998047 C 16.042119 15.681319 17.027778 16 18 16 C 18.972222 16 19.957881 15.681319 20.726562 14.998047 C 21.419777 14.381857 21.8444 13.428606 21.931641 12.335938 A 1 1 0 0 0 21.945312 12.267578 C 21.951371 12.172177 22 12.097768 22 12 A 1 1 0 0 0 21.919922 11.919922 A 1 1 0 0 0 21.894531 11.552734 L 18.894531 5.5527344 A 1 1 0 0 0 18.888672 5.5449219 A 1 1 0 0 0 18.835938 5.4550781 A 1 1 0 0 0 18.824219 5.4355469 A 1.0001 1.0001 0 0 0 18.820312 5.4316406 A 1 1 0 0 0 18.773438 5.3691406 A 1 1 0 0 0 18.740234 5.328125 A 1.0001 1.0001 0 0 0 18.730469 5.3183594 A 1 1 0 0 0 18.640625 5.2324219 A 1.0001 1.0001 0 0 0 18.634766 5.2285156 A 1 1 0 0 0 18.53125 5.1523438 A 1.0001 1.0001 0 0 0 18.529297 5.1523438 A 1 1 0 0 0 18.425781 5.0957031 A 1.0001 1.0001 0 0 0 18.414062 5.0898438 A 1 1 0 0 0 18.410156 5.0878906 A 1.0001 1.0001 0 0 0 18.382812 5.078125 A 1 1 0 0 0 18.28125 5.0410156 A 1 1 0 0 0 18.164062 5.0136719 L 18.148438 5.0117188 L 13 4.1523438 L 13 3 A 1 1 0 0 0 12 2 z M 6 8.2363281 L 7.9472656 12.130859 C 7.909112 12.766804 7.7236846 13.212845 7.3984375 13.501953 C 7.0421194 13.81868 6.5277779 14 6 14 C 5.4722221 14 4.9578806 13.81868 4.6015625 13.501953 C 4.2763154 13.212845 4.090888 12.766804 4.0527344 12.130859 L 6 8.2363281 z M 18 8.2363281 L 19.947266 12.130859 C 19.909116 12.766804 19.723686 13.212845 19.398438 13.501953 C 19.04212 13.81868 18.527778 14 18 14 C 17.472222 14 16.957881 13.81868 16.601562 13.501953 C 16.276315 13.212845 16.090888 12.766804 16.052734 12.130859 L 18 8.2363281 z " fill="currentColor"/>
</svg>
