<svg xmlns="http://www.w3.org/2000/svg" width="1em" height="1em" viewBox="0 0 24 24" fill="currentColor">
  <path d="M 5 1 A 1 1 0 0 0 4 2 L 4 6 A 1.0001 1.0001 0 0 0 5 7 L 6.5 7 L 6.5 9 L 5 9 A 1 1 0 0 0 4 10 L 4 14 A 1.0001 1.0001 0 0 0 5 15 L 6.5 15 L 6.5 17 L 5 17 A 1 1 0 0 0 4 18 L 4 22 A 1.0001 1.0001 0 0 0 5 23 L 10 23 A 1.0001 1.0001 0 0 0 11 22 L 11 18 A 1.0001 1.0001 0 0 0 10 17 L 8.5 17 L 8.5 15 L 10 15 A 1.0001 1.0001 0 0 0 11 14 L 11 13 L 14 13 L 14 14 A 1.0001 1.0001 0 0 0 15 15 L 20 15 A 1.0001 1.0001 0 0 0 21 14 L 21 10 A 1.0001 1.0001 0 0 0 20 9 L 15 9 A 1 1 0 0 0 14 10 L 14 11 L 11 11 L 11 10 A 1.0001 1.0001 0 0 0 10 9 L 8.5 9 L 8.5 7 L 10 7 A 1.0001 1.0001 0 0 0 11 6 L 11 2 A 1.0001 1.0001 0 0 0 10 1 L 5 1 z M 6 3 L 9 3 L 9 5 L 6 5 L 6 3 z M 6 11 L 9 11 L 9 13 L 7.5 13 L 6 13 L 6 11 z M 16 11 L 19 11 L 19 13 L 16 13 L 16 11 z M 6 19 L 7.5 19 L 9 19 L 9 21 L 6 21 L 6 19 z " fill="currentColor"/>
</svg>
