<svg xmlns="http://www.w3.org/2000/svg" width="1em" height="1em" viewBox="0 0 24 24" fill="currentColor">
  <path d="M 4 3 C 2.9072751 3 2 3.9072751 2 5 L 2 15 C 2 16.092725 2.9072751 17 4 17 L 8 17 L 8 19 L 7 19 A 1 1 0 0 0 6 20 A 1 1 0 0 0 7 21 L 17 21 A 1 1 0 0 0 18 20 A 1 1 0 0 0 17 19 L 16 19 L 16 17 L 20 17 C 21.092725 17 22 16.092725 22 15 L 22 12 A 1 1 0 0 0 21 11 A 1 1 0 0 0 20 12 L 20 15 L 4 15 L 4 5 L 13 5 A 1 1 0 0 0 14 4 A 1 1 0 0 0 13 3 L 4 3 z M 17 3 A 1 1 0 0 0 16.292969 3.2929688 A 1 1 0 0 0 16.292969 4.7070312 L 17.585938 6 L 16.292969 7.2929688 A 1 1 0 0 0 16.292969 8.7070312 A 1 1 0 0 0 17.707031 8.7070312 L 19 7.4140625 L 20.292969 8.7070312 A 1 1 0 0 0 21.707031 8.7070312 A 1 1 0 0 0 21.707031 7.2929688 L 20.414062 6 L 21.707031 4.7070312 A 1 1 0 0 0 21.707031 3.2929688 A 1 1 0 0 0 20.292969 3.2929688 L 19 4.5859375 L 17.707031 3.2929688 A 1 1 0 0 0 17 3 z M 10 17 L 14 17 L 14 19 L 10 19 L 10 17 z " fill="currentColor"/>
</svg>
