<svg xmlns="http://www.w3.org/2000/svg" width="1em" height="1em" viewBox="0 0 24 24" fill="currentColor">
  <path d="M 9 3 C 7.3549904 3 6 4.3549904 6 6 L 6 13 C 4.7500003 13 3.6852256 13.504756 3.0019531 14.273438 C 2.3186806 15.042118 2 16.027778 2 17 C 2 17.972222 2.3186806 18.957881 3.0019531 19.726562 C 3.6852256 20.495244 4.7500003 21 6 21 L 17 21 L 18 21 C 20.197294 21 22 19.197294 22 17 L 22 6 C 22 4.3549904 20.64501 3 19 3 L 9 3 z M 9 5 L 19 5 C 19.564129 5 20 5.4358706 20 6 L 20 17 C 20 18.116414 19.116414 19 18 19 L 17 19 C 16.250001 19 15.814774 18.754756 15.498047 18.398438 C 15.18132 18.042119 15 17.527778 15 17 C 15 16.472222 15.18132 15.957881 15.498047 15.601562 C 15.814774 15.245243 16.250001 15 17 15 A 1.0001 1.0001 0 0 0 17 13 L 8 13 L 8 6 C 8 5.4358706 8.4358706 5 9 5 z M 6 15 L 7 15 L 13.574219 15 C 13.2287 15.626554 13 16.302176 13 17 C 13 17.697824 13.2287 18.373446 13.574219 19 L 6 19 C 5.2500005 19 4.8147739 18.754756 4.4980469 18.398438 C 4.1813198 18.042119 4 17.527778 4 17 C 4 16.472222 4.1813198 15.957881 4.4980469 15.601562 C 4.8147739 15.245243 5.2500005 15 6 15 z " fill="currentColor"/>
</svg>
