<svg xmlns="http://www.w3.org/2000/svg" width="1em" height="1em" viewBox="0 0 24 24" fill="currentColor">
  <path d="M 3 2 A 1 1 0 0 0 2.2929688 2.2929688 A 1 1 0 0 0 2.2929688 3.7070312 L 4.5859375 6 L 3.9960938 6 C 2.9033689 6 1.9960938 6.9072751 1.9960938 8 L 1.9960938 12.5 C 1.9960939 14.421152 3.5749418 16 5.4960938 16 L 5.9960938 16 C 7.6411035 16 8.9960936 14.64501 8.9960938 13 C 8.9960938 12.583334 9.1182913 12.398107 9.2871094 12.248047 C 9.4559275 12.097986 9.7183159 12 9.9960938 12 C 10.273872 12 10.538213 12.09799 10.707031 12.248047 C 10.875849 12.398107 10.996094 12.583334 10.996094 13 C 10.996094 14.64501 12.351084 16 13.996094 16 L 14.496094 16 C 14.525748 16 14.554513 15.998812 14.583984 15.998047 L 16.480469 17.894531 C 16.16081 17.965394 15.832271 18.000567 15.501953 18 A 1.0001 1.0001 0 0 0 15.5 18 L 12 18 C 11.435871 18 11 17.564129 11 17 A 1 1 0 0 0 10 16 A 1 1 0 0 0 9 17 C 9 18.64501 10.35499 20 12 20 L 15.498047 20 C 16.381951 20.001539 17.253357 19.821115 18.060547 19.474609 L 20.292969 21.707031 A 1 1 0 0 0 21.707031 21.707031 A 1 1 0 0 0 21.707031 20.292969 L 19.048828 17.634766 A 1 1 0 0 0 18.886719 17.472656 L 15.710938 14.296875 A 1 1 0 0 0 15.621094 14.207031 L 3.7070312 2.2929688 A 1 1 0 0 0 3 2 z M 21.003906 3 A 1 1 0 0 0 20.003906 4 L 20.003906 13.5 C 20.003906 14.325381 19.784608 15.091745 19.400391 15.753906 A 1 1 0 0 0 19.763672 17.121094 A 1 1 0 0 0 21.130859 16.757812 C 21.686642 15.799975 22.003906 14.682619 22.003906 13.5 L 22.003906 4 A 1 1 0 0 0 21.003906 3 z M 11 6 A 1 1 0 0 0 10 7 A 1 1 0 0 0 11 8 L 16 8 L 16 12.5 C 16 12.59339 15.990699 12.684782 15.974609 12.775391 A 1 1 0 0 0 16.785156 13.933594 A 1 1 0 0 0 17.945312 13.125 C 17.981177 12.923609 18 12.714606 18 12.5 L 18 8 C 18 6.9072751 17.092725 6 16 6 L 11 6 z M 3.9960938 8 L 6.5859375 8 L 8.8105469 10.224609 C 8.5051745 10.347173 8.2159359 10.521816 7.9570312 10.751953 C 7.3758493 11.268559 6.9960938 12.083334 6.9960938 13 C 6.9960938 13.564129 6.5602231 14 5.9960938 14 L 5.4960938 14 C 4.655822 14 3.9960937 13.340272 3.9960938 12.5 L 3.9960938 8 z " fill="currentColor"/>
</svg>
