<svg xmlns="http://www.w3.org/2000/svg" width="1em" height="1em" viewBox="0 0 24 24" fill="currentColor">
  <path d="M 2 1 A 1 1 0 0 0 1.2929688 1.2929688 A 1 1 0 0 0 1.2929688 2.7070312 L 4.140625 5.5546875 L 5.5644531 9.3515625 A 1.0001 1.0001 0 0 0 6.0039062 9.8691406 L 9.5039062 11.869141 A 1.0001 1.0001 0 0 0 9.6835938 11.949219 L 15.162109 13.775391 L 16.029297 17.242188 A 1.0001 1.0001 0 0 0 16.232422 17.640625 L 18.732422 20.640625 A 1 1 0 0 0 20.140625 20.767578 A 1 1 0 0 0 20.267578 19.359375 L 17.914062 16.535156 L 16.970703 12.757812 A 1.0001 1.0001 0 0 0 16.316406 12.050781 L 10.410156 10.082031 L 7.3105469 8.3105469 L 5.9355469 4.6484375 A 1.0001 1.0001 0 0 0 5.7070312 4.2929688 L 2.7070312 1.2929688 A 1 1 0 0 0 2 1 z M 10.929688 7.0019531 A 1 1 0 0 0 10.050781 7.6835938 A 1 1 0 0 0 10.683594 8.9492188 L 15.183594 10.449219 A 1 1 0 0 0 16.449219 9.8164062 A 1 1 0 0 0 15.816406 8.5507812 L 11.316406 7.0507812 A 1 1 0 0 0 10.929688 7.0019531 z M 20 10 C 19.527778 10 19.042119 10.152014 18.648438 10.501953 C 18.254756 10.851892 18 11.416667 18 12 C 18 12.583333 18.254756 13.148108 18.648438 13.498047 C 19.042119 13.847986 19.527778 14 20 14 C 20.472222 14 20.957881 13.847986 21.351562 13.498047 C 21.745244 13.148108 22 12.583333 22 12 C 22 11.416667 21.745244 10.851892 21.351562 10.501953 C 20.957881 10.152014 20.472222 10 20 10 z " fill="currentColor"/>
</svg>
