<svg xmlns="http://www.w3.org/2000/svg" width="1em" height="1em" viewBox="0 0 24 24" fill="currentColor">
  <path d="M 21 3 A 1 1 0 0 0 20 4 L 20 13.5 C 20 15.997126 17.997126 18 15.5 18 L 12 18 C 11.435871 18 11 17.564129 11 17 A 1 1 0 0 0 10 16 A 1 1 0 0 0 9 17 C 9 18.64501 10.35499 20 12 20 L 15.5 20 C 19.078006 20 22 17.078006 22 13.5 L 22 4 A 1 1 0 0 0 21 3 z M 4 6 C 2.9072751 6 2 6.9072751 2 8 L 2 12.5 C 2 14.421152 3.578848 16 5.5 16 L 6 16 C 7.6450096 16 9 14.64501 9 13 C 9 12.583334 9.1202444 12.398107 9.2890625 12.248047 C 9.4578806 12.097986 9.7222221 12 10 12 C 10.277778 12 10.542119 12.09799 10.710938 12.248047 C 10.879755 12.398107 11 12.583334 11 13 C 11 14.64501 12.35499 16 14 16 L 14.5 16 C 16.421152 16 18 14.421152 18 12.5 L 18 8 C 18 6.9072751 17.092725 6 16 6 L 4 6 z M 4 8 L 16 8 L 16 12.5 C 16 13.340272 15.340272 14 14.5 14 L 14 14 C 13.435871 14 13 13.564129 13 13 C 13 12.083334 12.620244 11.268559 12.039062 10.751953 C 11.45788 10.235347 10.722222 10 10 10 C 9.2777779 10 8.5421194 10.235347 7.9609375 10.751953 C 7.3797556 11.268559 7 12.083334 7 13 C 7 13.564129 6.5641294 14 6 14 L 5.5 14 C 4.6597282 14 4 13.340272 4 12.5 L 4 8 z " fill="currentColor"/>
</svg>
