<svg xmlns="http://www.w3.org/2000/svg" width="1em" height="1em" viewBox="0 0 24 24" fill="currentColor">
  <path d="M 4 7 C 2.9072751 7 2 7.9072751 2 9 L 2 11 C 2 12.092725 2.9072751 13 4 13 L 6 13 L 6 15 L 3 15 A 1 1 0 0 0 2 16 A 1 1 0 0 0 3 17 L 6 17 C 7.0927249 17 8 16.092725 8 15 L 8 13 C 8 11.907275 7.0927249 11 6 11 L 4 11 L 4 9 L 7 9 A 1 1 0 0 0 8 8 A 1 1 0 0 0 7 7 L 4 7 z M 10 7 A 1 1 0 0 0 9 8 L 9 16 A 1.0001 1.0001 0 0 0 10 17 L 12 17 C 13.64501 17 15 15.64501 15 14 L 15 10 C 15 8.3549904 13.64501 7 12 7 L 10 7 z M 17 7 A 1 1 0 0 0 16 8 L 16 16 A 1 1 0 0 0 17 17 A 1 1 0 0 0 18 16 L 18 13.667969 L 20.199219 16.599609 A 1 1 0 0 0 21.599609 16.800781 A 1 1 0 0 0 21.800781 15.400391 L 19.25 12 L 21.800781 8.5996094 A 1 1 0 0 0 21.599609 7.1992188 A 1 1 0 0 0 20.859375 7.0097656 A 1 1 0 0 0 20.199219 7.4003906 L 18 10.332031 L 18 8 A 1 1 0 0 0 17 7 z M 11 9 L 12 9 C 12.564129 9 13 9.4358706 13 10 L 13 14 C 13 14.564129 12.564129 15 12 15 L 11 15 L 11 9 z " fill="currentColor"/>
</svg>
