<svg xmlns="http://www.w3.org/2000/svg" width="1em" height="1em" viewBox="0 0 24 24" fill="currentColor">
  <path d="M 4 7 C 2.9072751 7 2 7.9072751 2 9 L 2 11 C 2 12.092725 2.9072751 13 4 13 L 6 13 L 6 15 L 3 15 A 1 1 0 0 0 2 16 A 1 1 0 0 0 3 17 L 6 17 C 7.0927249 17 8 16.092725 8 15 L 8 13 C 8 11.907275 7.0927249 11 6 11 L 4 11 L 4 9 L 7 9 A 1 1 0 0 0 8 8 A 1 1 0 0 0 7 7 L 4 7 z M 10 7 A 1.0001 1.0001 0 0 0 9 8 L 9 16 A 1.0001 1.0001 0 0 0 10 17 L 14 17 A 1 1 0 0 0 15 16 A 1 1 0 0 0 14 15 L 11 15 L 11 13 L 13 13 A 1 1 0 0 0 14 12 A 1 1 0 0 0 13 11 L 11 11 L 11 9 L 14 9 A 1 1 0 0 0 15 8 A 1 1 0 0 0 14 7 L 10 7 z M 18 7 C 16.907275 7 16 7.9072751 16 9 L 16 15 C 16 16.092725 16.907275 17 18 17 L 20 17 C 21.092725 17 22 16.092725 22 15 L 22 9 C 22 7.9072751 21.092725 7 20 7 L 18 7 z M 18 9 L 20 9 L 20 15 L 18 15 L 18 9 z " fill="currentColor"/>
</svg>
