<svg xmlns="http://www.w3.org/2000/svg" width="1em" height="1em" viewBox="0 0 24 24" fill="currentColor">
  <path d="M 12.029297 2.0019531 C 11.516236 2.0019531 11.004652 2.1306841 10.542969 2.3886719 A 1.0001 1.0001 0 0 0 10.517578 2.4023438 L 4.5449219 5.96875 C 3.5919989 6.4976522 3 7.5068973 3 8.5957031 L 3 15 A 1.0001 1.0001 0 0 0 4.3515625 15.935547 L 12.351562 12.935547 L 19 10.441406 L 19 15.152344 A 1.0001 1.0001 0 0 0 19 15.154297 C 19.000726 15.520193 18.804357 15.853791 18.484375 16.03125 A 1.0001 1.0001 0 0 0 18.429688 16.0625 L 12.482422 19.873047 C 12.17991 20.040005 11.81789 20.040681 11.515625 19.873047 L 8.5 18.134766 A 1 1 0 0 0 7.1347656 18.5 A 1 1 0 0 0 7.5 19.865234 L 10.53125 21.613281 A 1.0001 1.0001 0 0 0 10.544922 21.623047 C 11.448799 22.124332 12.551201 22.124332 13.455078 21.623047 A 1.0001 1.0001 0 0 0 13.509766 21.589844 L 19.5 17.753906 L 19.507812 17.75 C 20.431189 17.213557 21.002125 16.221134 21 15.150391 L 21 9 A 1.0001 1.0001 0 0 0 19.648438 8.0644531 L 11.648438 11.064453 L 5 13.558594 L 5 8.5957031 C 5 8.228509 5.1965479 7.8938947 5.515625 7.7167969 A 1.0001 1.0001 0 0 0 5.5429688 7.7011719 L 11.517578 4.1347656 C 11.837102 3.9562158 12.223444 3.9562158 12.542969 4.1347656 L 15.494141 5.8632812 A 1 1 0 0 0 16.863281 5.5058594 A 1 1 0 0 0 16.505859 4.1367188 L 13.535156 2.3984375 A 1.0001 1.0001 0 0 0 13.517578 2.3886719 C 13.055897 2.1306885 12.542358 2.0019531 12.029297 2.0019531 z " fill="currentColor"/>
</svg>
