<svg xmlns="http://www.w3.org/2000/svg" width="1em" height="1em" viewBox="0 0 24 24" fill="currentColor">
  <path d="M 12 2 C 10.868635 2 9.6720948 2.7688271 9.3535156 4.0820312 C 9.2294598 4.5878965 8.7214563 4.7997393 8.2734375 4.5273438 C 7.1190615 3.8245501 5.7296783 4.1295032 4.9296875 4.9296875 C 4.1296967 5.7298718 3.8262988 7.1175206 4.5292969 8.2714844 A 1.0001 1.0001 0 0 0 4.5292969 8.2734375 C 4.7995199 8.7166374 4.5865138 9.2312812 4.0820312 9.3535156 C 2.7688271 9.6720948 2 10.868635 2 12 C 2 13.130865 2.7679366 14.32727 4.0800781 14.646484 C 4.5839871 14.769026 4.7971161 15.283659 4.5273438 15.726562 C 3.8245501 16.880938 4.1295032 18.270323 4.9296875 19.070312 C 5.7298718 19.870303 7.1175206 20.173701 8.2714844 19.470703 A 1.0001 1.0001 0 0 0 8.2734375 19.470703 C 8.7166343 19.20048 9.2312812 19.413483 9.3535156 19.917969 C 9.5891136 20.950151 10.419394 21.750532 11.460938 21.947266 A 1 1 0 0 0 12.628906 21.150391 A 1 1 0 0 0 11.832031 19.982422 C 11.565599 19.932092 11.359066 19.733555 11.300781 19.46875 A 1.0001 1.0001 0 0 0 11.296875 19.447266 C 10.869133 17.681904 8.7837043 16.819378 7.2324219 17.763672 C 6.8433857 18.000674 6.5778157 17.890259 6.34375 17.65625 C 6.1096843 17.422241 5.9991218 17.157202 6.2363281 16.767578 C 7.1808629 15.21687 6.3170359 13.132173 4.5527344 12.703125 C 4.1099385 12.595704 4 12.330635 4 12 C 4 11.669365 4.1099385 11.404296 4.5527344 11.296875 C 6.3180904 10.869135 7.1806224 8.7837043 6.2363281 7.2324219 L 6.2363281 7.2304688 C 6.0013372 6.8428046 6.1102477 6.5773087 6.34375 6.34375 C 6.5777592 6.1096843 6.8427978 5.9991218 7.2324219 6.2363281 A 1.0001 1.0001 0 0 0 7.234375 6.2363281 C 8.7858435 7.179621 10.868192 6.3156161 11.296875 4.5527344 C 11.404299 4.1099385 11.669365 4 12 4 C 12.330635 4 12.595704 4.1099385 12.703125 4.5527344 C 13.130865 6.3180904 15.216296 7.1806224 16.767578 6.2363281 C 17.156614 5.9993262 17.422184 6.1097408 17.65625 6.34375 C 17.890316 6.5777592 18.000878 6.8427978 17.763672 7.2324219 C 16.819137 8.7831301 17.682962 10.867827 19.447266 11.296875 C 19.814478 11.386155 19.92901 11.571335 19.984375 11.833984 A 1 1 0 0 0 21.167969 12.607422 A 1 1 0 0 0 21.941406 11.421875 C 21.746771 10.498525 21.00871 9.6182347 19.919922 9.3535156 C 19.416013 9.2309736 19.202884 8.7163413 19.472656 8.2734375 C 20.17545 7.1190615 19.870497 5.7296783 19.070312 4.9296875 C 18.270128 4.1296967 16.882479 3.8262988 15.728516 4.5292969 A 1.0001 1.0001 0 0 0 15.726562 4.5292969 C 15.283412 4.7995199 14.768719 4.5865138 14.646484 4.0820312 C 14.327905 2.7688271 13.131365 2 12 2 z M 11.992188 8.0332031 C 11.719225 8.0288824 11.444338 8.0513686 11.173828 8.1035156 C 10.452469 8.2425745 9.7554815 8.5882685 9.171875 9.171875 C 6.8374489 11.506301 8.3093876 15.642192 11.59375 15.978516 A 1 1 0 0 0 12.689453 15.085938 A 1 1 0 0 0 11.796875 13.988281 C 10.05223 13.809627 9.3459604 11.825913 10.585938 10.585938 C 11.825914 9.3459604 13.81158 10.050276 13.990234 11.794922 A 1 1 0 0 0 15.085938 12.689453 A 1 1 0 0 0 15.980469 11.591797 C 15.759756 9.4364339 13.902922 8.0634484 11.992188 8.0332031 z M 18 14 C 17.027778 14 16.042119 14.318681 15.273438 15.001953 C 14.504755 15.685226 14 16.75 14 18 C 14 19.25 14.504756 20.314774 15.273438 20.998047 C 16.042119 21.681319 17.027778 22 18 22 C 18.709147 22 19.424566 21.829573 20.058594 21.472656 L 21.292969 22.707031 A 1 1 0 0 0 22.707031 22.707031 A 1 1 0 0 0 22.707031 21.292969 L 21.476562 20.0625 C 21.806482 19.477109 22 18.77405 22 18 C 22 16.75 21.495244 15.685226 20.726562 15.001953 C 19.957881 14.318681 18.972222 14 18 14 z M 18 16 C 18.527778 16 19.042119 16.18132 19.398438 16.498047 C 19.754756 16.814774 20 17.250001 20 18 C 20 18.749999 19.754756 19.185226 19.398438 19.501953 C 19.042119 19.81868 18.527778 20 18 20 C 17.472222 20 16.957881 19.81868 16.601562 19.501953 C 16.245244 19.185226 16 18.749999 16 18 C 16 17.250001 16.245244 16.814774 16.601562 16.498047 C 16.957881 16.18132 17.472222 16 18 16 z " fill="currentColor"/>
</svg>
