<svg xmlns="http://www.w3.org/2000/svg" width="1em" height="1em" viewBox="0 0 24 24" fill="currentColor">
  <path d="M 12 2 C 10.876462 2 9.695586 2.7639291 9.3671875 4.0605469 A 1 1 0 0 0 9.3535156 4.0800781 L 9.3535156 4.0820312 C 9.2294599 4.5878999 8.7214563 4.7997392 8.2734375 4.5273438 C 7.1190615 3.8245501 5.7296783 4.1295032 4.9296875 4.9296875 C 4.1296967 5.7298718 3.8262988 7.1175206 4.5292969 8.2714844 A 1.0001 1.0001 0 0 0 4.5292969 8.2734375 C 4.7995199 8.7166374 4.5865138 9.2312812 4.0820312 9.3535156 C 2.7688271 9.6720948 2 10.868635 2 12 C 2 13.130865 2.7679366 14.32727 4.0800781 14.646484 C 4.5839871 14.769026 4.7971161 15.283659 4.5273438 15.726562 C 3.8245501 16.880938 4.1295032 18.270323 4.9296875 19.070312 C 5.7298718 19.870303 7.1175206 20.173701 8.2714844 19.470703 A 1.0001 1.0001 0 0 0 8.2734375 19.470703 C 8.7166374 19.20048 9.2312812 19.413486 9.3535156 19.917969 C 9.6720948 21.231173 10.868635 22 12 22 C 13.130865 22 14.32727 21.232063 14.646484 19.919922 L 14.646484 19.917969 C 14.769779 19.415296 15.284163 19.203191 15.726562 19.472656 C 16.880938 20.17545 18.270323 19.870497 19.070312 19.070312 C 19.870303 18.270128 20.173701 16.882479 19.470703 15.728516 A 1.0001 1.0001 0 0 0 19.470703 15.726562 C 19.20048 15.283459 19.413486 14.768719 19.917969 14.646484 C 21.231173 14.327905 22 13.131365 22 12 C 22 10.869135 21.232063 9.6727301 19.919922 9.3535156 L 19.917969 9.3535156 C 19.415343 9.2302212 19.203191 8.7158365 19.472656 8.2734375 C 20.17545 7.1190615 19.870497 5.7296783 19.070312 4.9296875 C 18.270128 4.1296967 16.882479 3.8262988 15.728516 4.5292969 A 1.0001 1.0001 0 0 0 15.726562 4.5292969 C 15.283412 4.7995199 14.768719 4.5865138 14.646484 4.0820312 C 14.327905 2.7688271 13.131365 2 12 2 z M 12 4 C 12.330635 4 12.595704 4.1099385 12.703125 4.5527344 C 13.130865 6.3180904 15.216296 7.1806224 16.767578 6.2363281 C 17.156614 5.9993262 17.422184 6.1097408 17.65625 6.34375 C 17.890316 6.5777592 18.000878 6.8427978 17.763672 7.2324219 C 16.819137 8.7831301 17.682962 10.867827 19.447266 11.296875 C 19.890061 11.404296 20 11.669365 20 12 C 20 12.330635 19.890061 12.595704 19.447266 12.703125 C 17.681271 13.131019 16.817728 15.218074 17.763672 16.769531 C 17.998663 17.157192 17.889752 17.422691 17.65625 17.65625 C 17.422241 17.890316 17.157202 18.000878 16.767578 17.763672 C 15.21687 16.819137 13.132173 17.682962 12.703125 19.447266 C 12.595704 19.890061 12.330635 20 12 20 C 11.669365 20 11.404296 19.890061 11.296875 19.447266 C 10.869135 17.68191 8.7837043 16.819378 7.2324219 17.763672 C 6.8433857 18.000674 6.5778157 17.890259 6.34375 17.65625 C 6.1096843 17.422241 5.9991218 17.157202 6.2363281 16.767578 C 7.1808629 15.21687 6.3170359 13.132173 4.5527344 12.703125 C 4.1099385 12.595704 4 12.330635 4 12 C 4 11.669365 4.1099385 11.404296 4.5527344 11.296875 C 6.3180904 10.869135 7.1806224 8.7837043 6.2363281 7.2324219 L 6.2363281 7.2304688 C 6.0013372 6.8428046 6.1102477 6.5773087 6.34375 6.34375 C 6.5777592 6.1096843 6.8427978 5.9991218 7.2324219 6.2363281 A 1.0001 1.0001 0 0 0 7.234375 6.2363281 C 8.7858435 7.179621 10.868192 6.3156161 11.296875 4.5527344 C 11.404299 4.1099385 11.669365 4 12 4 z M 12 8 C 11.027778 8 10.042119 8.3186806 9.2734375 9.0019531 C 8.5047556 9.6852256 8 10.75 8 12 C 8 13.25 8.5047556 14.314774 9.2734375 14.998047 C 10.042119 15.681319 11.027778 16 12 16 C 12.972222 16 13.95788 15.681319 14.726562 14.998047 C 15.495243 14.314774 16 13.25 16 12 C 16 10.75 15.495244 9.6852256 14.726562 9.0019531 C 13.95788 8.3186806 12.972222 8 12 8 z M 12 10 C 12.527778 10 13.042119 10.18132 13.398438 10.498047 C 13.754755 10.814774 14 11.250001 14 12 C 14 12.749999 13.754756 13.185226 13.398438 13.501953 C 13.042118 13.81868 12.527778 14 12 14 C 11.472222 14 10.95788 13.81868 10.601562 13.501953 C 10.245243 13.185226 10 12.749999 10 12 C 10 11.250001 10.245244 10.814774 10.601562 10.498047 C 10.95788 10.18132 11.472222 10 12 10 z " fill="currentColor"/>
</svg>
