<svg xmlns="http://www.w3.org/2000/svg" width="1em" height="1em" viewBox="0 0 24 24" fill="currentColor">
  <path d="M 12 2 C 10.868635 2 9.6720948 2.7688271 9.3535156 4.0820312 C 9.2294598 4.5878965 8.7214563 4.7997393 8.2734375 4.5273438 C 7.1190615 3.8245501 5.7296783 4.1295032 4.9296875 4.9296875 C 4.1296967 5.7298718 3.8262988 7.1175206 4.5292969 8.2714844 A 1.0001 1.0001 0 0 0 4.5292969 8.2734375 C 4.7995199 8.7166374 4.5865138 9.2312812 4.0820312 9.3535156 C 2.7688271 9.6720948 2 10.868635 2 12 C 2 13.130865 2.7679366 14.32727 4.0800781 14.646484 C 4.5839871 14.769026 4.7971161 15.283659 4.5273438 15.726562 C 3.8245501 16.880938 4.1295032 18.270323 4.9296875 19.070312 C 5.7298718 19.870303 7.1175206 20.173701 8.2714844 19.470703 A 1.0001 1.0001 0 0 0 8.2734375 19.470703 C 8.7166374 19.20048 9.2312812 19.413486 9.3535156 19.917969 C 9.6722325 21.233237 10.871178 22.001547 12.003906 22 A 1 1 0 0 0 13.003906 20.998047 A 1 1 0 0 0 12.001953 20 C 11.670682 20.000453 11.404158 19.889997 11.296875 19.447266 C 10.869135 17.68191 8.7837043 16.819378 7.2324219 17.763672 C 6.8433857 18.000674 6.5778157 17.890259 6.34375 17.65625 C 6.1096843 17.422241 5.9991218 17.157202 6.2363281 16.767578 C 7.1808629 15.21687 6.3170359 13.132173 4.5527344 12.703125 C 4.1099385 12.595704 4 12.330635 4 12 C 4 11.669365 4.1099385 11.404296 4.5527344 11.296875 C 6.3180904 10.869135 7.1806224 8.7837043 6.2363281 7.2324219 L 6.2363281 7.2304688 C 6.0013372 6.8428046 6.1102477 6.5773087 6.34375 6.34375 C 6.5777592 6.1096843 6.8427978 5.9991218 7.2324219 6.2363281 A 1.0001 1.0001 0 0 0 7.234375 6.2363281 C 8.7858435 7.179621 10.868192 6.3156161 11.296875 4.5527344 C 11.404299 4.1099385 11.669365 4 12 4 C 12.330635 4 12.595704 4.1099385 12.703125 4.5527344 C 13.130865 6.3180904 15.216296 7.1806224 16.767578 6.2363281 C 17.156614 5.9993262 17.422184 6.1097408 17.65625 6.34375 C 17.890316 6.5777592 18.000878 6.8427978 17.763672 7.2324219 C 16.819137 8.7831301 17.682962 10.867827 19.447266 11.296875 C 19.894435 11.405387 20.005121 11.676191 20.001953 12.009766 A 1 1 0 0 0 20.992188 13.019531 A 1 1 0 0 0 22 12.029297 C 22.01083 10.889371 21.243685 9.6756438 19.919922 9.3535156 L 19.917969 9.3535156 C 19.415343 9.2302212 19.203191 8.7158365 19.472656 8.2734375 C 20.17545 7.1190615 19.870497 5.7296783 19.070312 4.9296875 C 18.270128 4.1296967 16.882479 3.8262988 15.728516 4.5292969 A 1.0001 1.0001 0 0 0 15.726562 4.5292969 C 15.283412 4.7995199 14.768719 4.5865138 14.646484 4.0820312 C 14.327905 2.7688271 13.131365 2 12 2 z M 12 8 C 11.027778 8 10.042119 8.3186806 9.2734375 9.0019531 C 8.5047556 9.6852256 8 10.75 8 12 C 8 13.25 8.5047556 14.314774 9.2734375 14.998047 C 10.042119 15.681319 11.027778 16 12 16 C 12.972222 16 13.95788 15.681319 14.726562 14.998047 C 15.495243 14.314774 16 13.25 16 12 C 16 10.75 15.495244 9.6852256 14.726562 9.0019531 C 13.95788 8.3186806 12.972222 8 12 8 z M 12 10 C 12.527778 10 13.042119 10.18132 13.398438 10.498047 C 13.754755 10.814774 14 11.250001 14 12 C 14 12.749999 13.754756 13.185226 13.398438 13.501953 C 13.042118 13.81868 12.527778 14 12 14 C 11.472222 14 10.95788 13.81868 10.601562 13.501953 C 10.245243 13.185226 10 12.749999 10 12 C 10 11.250001 10.245244 10.814774 10.601562 10.498047 C 10.95788 10.18132 11.472222 10 12 10 z M 19.001953 14.5 A 1 1 0 0 0 18.001953 15.5 L 18.001953 16.15625 C 17.650707 16.271131 17.316482 16.450991 17.019531 16.701172 L 16.46875 16.384766 A 1 1 0 0 0 15.103516 16.75 A 1 1 0 0 0 15.470703 18.115234 L 16.048828 18.449219 C 16.018359 18.627489 16.001953 18.811393 16.001953 19 C 16.001953 19.188607 16.018359 19.372511 16.048828 19.550781 L 15.470703 19.884766 A 1 1 0 0 0 15.103516 21.25 A 1 1 0 0 0 16.46875 21.615234 L 17.019531 21.298828 C 17.316482 21.549009 17.650707 21.728869 18.001953 21.84375 L 18.001953 22.5 A 1 1 0 0 0 19.001953 23.5 A 1 1 0 0 0 20.001953 22.5 L 20.001953 21.841797 C 20.352392 21.726904 20.68578 21.548801 20.982422 21.298828 L 21.533203 21.615234 A 1 1 0 0 0 22.898438 21.25 A 1 1 0 0 0 22.533203 19.884766 L 21.955078 19.550781 C 21.985716 19.372405 22.001953 19.188728 22.001953 19 C 22.001953 18.811071 21.98578 18.625819 21.955078 18.447266 L 22.53125 18.115234 A 1 1 0 0 0 22.898438 16.75 A 1 1 0 0 0 22.291016 16.283203 A 1 1 0 0 0 21.53125 16.384766 L 20.982422 16.701172 C 20.685894 16.451401 20.352211 16.273037 20.001953 16.158203 L 20.001953 15.5 A 1 1 0 0 0 19.001953 14.5 z M 19.001953 18 C 19.279731 18 19.542119 18.09799 19.710938 18.248047 C 19.737354 18.271528 19.763265 18.29631 19.787109 18.322266 A 1 1 0 0 0 19.867188 18.5 A 1 1 0 0 0 19.958984 18.630859 C 19.986979 18.729861 20.001953 18.850435 20.001953 19 C 20.001953 19.149138 19.98683 19.268351 19.958984 19.367188 A 1 1 0 0 0 19.867188 19.5 A 1 1 0 0 0 19.787109 19.677734 C 19.763265 19.70369 19.737354 19.728472 19.710938 19.751953 C 19.542119 19.902014 19.279731 20 19.001953 20 C 18.724175 20 18.459834 19.902014 18.291016 19.751953 C 18.265546 19.729314 18.241762 19.706555 18.21875 19.681641 A 1 1 0 0 0 18.136719 19.5 A 1 1 0 0 0 18.044922 19.367188 C 18.017583 19.268557 18.001953 19.148605 18.001953 19 C 18.001953 18.85116 18.017501 18.731534 18.044922 18.632812 A 1 1 0 0 0 18.136719 18.5 A 1 1 0 0 0 18.21875 18.318359 C 18.241762 18.293445 18.265546 18.270686 18.291016 18.248047 C 18.459834 18.097986 18.724175 18 19.001953 18 z " fill="currentColor"/>
</svg>
