<svg xmlns="http://www.w3.org/2000/svg" width="1em" height="1em" viewBox="0 0 24 24" fill="currentColor">
  <path d="M 3 2 A 1 1 0 0 0 2.2929688 2.2929688 A 1 1 0 0 0 2.2929688 3.7070312 L 4.3613281 5.7753906 C 4.0373317 6.5330551 4.0343049 7.4617346 4.5292969 8.2734375 C 4.7995199 8.7166343 4.5865138 9.2312812 4.0820312 9.3535156 C 2.7688271 9.6720948 2 10.868635 2 12 C 2 13.130865 2.7679366 14.32727 4.0800781 14.646484 C 4.5839871 14.769026 4.7971161 15.283659 4.5273438 15.726562 C 3.8245501 16.880938 4.1295032 18.270323 4.9296875 19.070312 C 5.7298718 19.870303 7.1175206 20.173701 8.2714844 19.470703 A 1.0001 1.0001 0 0 0 8.2734375 19.470703 C 8.7166374 19.20048 9.2312812 19.413486 9.3535156 19.917969 C 9.6720948 21.231173 10.868635 22 12 22 C 13.130865 22 14.32727 21.232063 14.646484 19.919922 L 14.646484 19.917969 C 14.769779 19.415296 15.284163 19.203191 15.726562 19.472656 C 16.538326 19.96641 17.46654 19.962617 18.224609 19.638672 L 20.292969 21.707031 A 1 1 0 0 0 21.707031 21.707031 A 1 1 0 0 0 21.707031 20.292969 L 19.175781 17.761719 A 1 1 0 0 0 19.074219 17.644531 A 1 1 0 0 0 18.964844 17.550781 L 10.708984 9.2949219 A 1 1 0 0 0 10.599609 9.1640625 A 1 1 0 0 0 10.464844 9.0507812 L 6.4335938 5.0195312 A 1 1 0 0 0 6.3515625 4.9257812 A 1 1 0 0 0 6.2539062 4.8398438 L 3.7070312 2.2929688 A 1 1 0 0 0 3 2 z M 12 2 C 10.868635 2 9.6720948 2.7688271 9.3535156 4.0820312 C 9.2984098 4.3091204 9.164086 4.4590935 8.9882812 4.5507812 A 1 1 0 0 0 8.5644531 5.9003906 A 1 1 0 0 0 9.9140625 6.3242188 C 10.574258 5.9799065 11.103981 5.3476452 11.296875 4.5527344 C 11.404296 4.1099385 11.669365 4 12 4 C 12.330635 4 12.595704 4.1099385 12.703125 4.5527344 C 13.130865 6.3180904 15.216296 7.1806224 16.767578 6.2363281 C 17.156614 5.9993262 17.422184 6.1097408 17.65625 6.34375 C 17.890316 6.5777592 18.000878 6.8427978 17.763672 7.2324219 C 16.819137 8.7831301 17.682962 10.867827 19.447266 11.296875 C 19.890061 11.404296 20 11.669365 20 12 C 20 12.330635 19.890061 12.595704 19.447266 12.703125 C 18.68063 12.889263 18.035552 13.397988 17.673828 14.089844 A 1 1 0 0 0 18.095703 15.439453 A 1 1 0 0 0 19.445312 15.015625 C 19.541593 14.83148 19.712605 14.696346 19.917969 14.646484 C 21.231173 14.327905 22 13.131365 22 12 C 22 10.869135 21.232063 9.6727301 19.919922 9.3535156 L 19.917969 9.3535156 C 19.415343 9.2302212 19.203191 8.7158365 19.472656 8.2734375 C 20.17545 7.1190615 19.870497 5.7296783 19.070312 4.9296875 C 18.270128 4.1296967 16.882479 3.8262988 15.728516 4.5292969 A 1.0001 1.0001 0 0 0 15.726562 4.5292969 C 15.283412 4.7995199 14.768719 4.5865138 14.646484 4.0820312 C 14.327905 2.7688271 13.131365 2 12 2 z M 6.5429688 7.9570312 L 8.5449219 9.9589844 C 8.1066951 10.663485 7.9128745 11.439386 7.953125 12.173828 C 8.009408 13.200818 8.4773554 14.126143 9.1621094 14.816406 C 9.8468633 15.506669 10.768416 15.982364 11.794922 16.046875 C 12.539062 16.09364 13.325858 15.900021 14.041016 15.455078 L 16.044922 17.458984 C 14.631669 17.097752 13.068098 17.946448 12.703125 19.447266 C 12.595739 19.890121 12.330635 20 12 20 C 11.669365 20 11.404296 19.890061 11.296875 19.447266 C 10.869135 17.68191 8.7837043 16.819378 7.2324219 17.763672 C 6.8433857 18.000674 6.5778157 17.890259 6.34375 17.65625 C 6.1096843 17.422241 5.9991218 17.157202 6.2363281 16.767578 C 7.1808629 15.21687 6.3170359 13.132173 4.5527344 12.703125 C 4.1099385 12.595704 4 12.330635 4 12 C 4 11.669365 4.1099385 11.404296 4.5527344 11.296875 C 6.0540119 10.933121 6.9032865 9.370508 6.5429688 7.9570312 z M 13.339844 8.2910156 A 1 1 0 0 0 12.384766 8.859375 A 1 1 0 0 0 12.857422 10.193359 C 13.272173 10.391086 13.60579 10.724481 13.804688 11.138672 A 1 1 0 0 0 15.140625 11.607422 A 1 1 0 0 0 15.609375 10.271484 C 15.213007 9.4460725 14.545278 8.7807546 13.71875 8.3867188 A 1 1 0 0 0 13.339844 8.2910156 z M 10.027344 11.441406 L 12.560547 13.974609 C 12.343291 14.045555 12.130927 14.064042 11.919922 14.050781 C 11.444053 14.020875 10.953777 13.78294 10.582031 13.408203 C 10.210285 13.033466 9.9772638 12.540546 9.9511719 12.064453 C 9.9399034 11.858841 9.959231 11.652467 10.027344 11.441406 z " fill="currentColor"/>
</svg>
