<svg xmlns="http://www.w3.org/2000/svg" width="1em" height="1em" viewBox="0 0 24 24" fill="currentColor">
  <path d="M 12 2 C 10.868635 2 9.6720948 2.7688271 9.3535156 4.0820312 C 9.2294598 4.5878965 8.7214563 4.7997393 8.2734375 4.5273438 C 7.1190615 3.8245501 5.7296783 4.1295032 4.9296875 4.9296875 C 4.1296967 5.7298718 3.8262988 7.1175206 4.5292969 8.2714844 A 1.0001 1.0001 0 0 0 4.5292969 8.2734375 C 4.7995199 8.7166374 4.5865138 9.2312812 4.0820312 9.3535156 C 2.7688271 9.6720948 2 10.868635 2 12 C 2 13.130865 2.7679366 14.32727 4.0800781 14.646484 C 4.5839871 14.769026 4.7971161 15.283659 4.5273438 15.726562 C 3.8245501 16.880938 4.1295032 18.270323 4.9296875 19.070312 C 5.7298718 19.870303 7.1175206 20.173701 8.2714844 19.470703 A 1.0001 1.0001 0 0 0 8.2734375 19.470703 C 8.7166343 19.20048 9.2312812 19.413483 9.3535156 19.917969 C 9.7574141 21.582928 11.517021 22.321595 12.900391 21.851562 A 1 1 0 0 0 13.525391 20.583984 A 1 1 0 0 0 12.255859 19.958984 C 11.879229 20.086953 11.432977 20.008304 11.296875 19.447266 C 10.869138 17.68191 8.7837043 16.819378 7.2324219 17.763672 C 6.8433857 18.000674 6.5778157 17.890259 6.34375 17.65625 C 6.1096843 17.422241 5.9991218 17.157202 6.2363281 16.767578 C 7.1808629 15.21687 6.3170359 13.132173 4.5527344 12.703125 C 4.1099385 12.595704 4 12.330635 4 12 C 4 11.669365 4.1099385 11.404296 4.5527344 11.296875 C 6.3180904 10.869135 7.1806224 8.7837043 6.2363281 7.2324219 L 6.2363281 7.2304688 C 6.0013372 6.8428046 6.1102477 6.5773087 6.34375 6.34375 C 6.5777592 6.1096843 6.8427978 5.9991218 7.2324219 6.2363281 A 1.0001 1.0001 0 0 0 7.234375 6.2363281 C 8.7858435 7.179621 10.868192 6.3156161 11.296875 4.5527344 C 11.404299 4.1099385 11.669365 4 12 4 C 12.330635 4 12.595704 4.1099385 12.703125 4.5527344 C 13.130865 6.3180904 15.216296 7.1806224 16.767578 6.2363281 C 17.156614 5.9993262 17.422184 6.1097408 17.65625 6.34375 C 17.890316 6.5777592 18.000878 6.8427978 17.763672 7.2324219 C 16.819137 8.7831301 17.682962 10.867827 19.447266 11.296875 C 19.736524 11.367925 19.849935 11.49494 19.933594 11.677734 A 1 1 0 0 0 21.259766 12.171875 A 1 1 0 0 0 21.751953 10.845703 C 21.435821 10.154954 20.777058 9.5625732 19.919922 9.3535156 C 19.416013 9.2309736 19.202884 8.7163413 19.472656 8.2734375 C 20.17545 7.1190615 19.870497 5.7296783 19.070312 4.9296875 C 18.270128 4.1296967 16.882479 3.8262988 15.728516 4.5292969 A 1.0001 1.0001 0 0 0 15.726562 4.5292969 C 15.283412 4.7995199 14.768719 4.5865138 14.646484 4.0820312 C 14.327905 2.7688271 13.131365 2 12 2 z M 11.800781 8.0058594 C 11.597555 8.0155331 11.393357 8.041083 11.191406 8.0820312 C 10.383603 8.245824 9.6029705 8.6642045 8.9863281 9.3710938 C 7.7530434 10.784872 7.754062 12.68884 8.5644531 14.048828 C 9.3748443 15.408816 11.048283 16.314593 12.878906 15.902344 A 1 1 0 0 0 13.634766 14.707031 A 1 1 0 0 0 12.439453 13.951172 C 11.439907 14.176266 10.701671 13.725705 10.283203 13.023438 C 9.864735 12.321169 9.8209379 11.457274 10.494141 10.685547 C 11.167343 9.91382 12.030631 9.8408885 12.783203 10.160156 C 13.535775 10.479424 14.081471 11.149073 13.994141 12.169922 A 1 1 0 0 0 14.904297 13.251953 A 1 1 0 0 0 15.986328 12.341797 C 16.14627 10.472158 15.019904 8.9366428 13.5625 8.3183594 C 13.015973 8.0865031 12.410459 7.9768382 11.800781 8.0058594 z M 19 14 C 17.26058 14 15.876507 15.088139 15.304688 16.46875 C 14.732867 17.849361 14.941629 19.598251 16.171875 20.828125 C 16.636336 21.293697 17.351167 21.924991 18.357422 22.767578 A 1.0001 1.0001 0 0 0 19.646484 22.763672 C 20.702942 21.86905 21.407467 21.24765 21.824219 20.830078 A 1 1 0 0 0 21.828125 20.828125 L 21.828125 20.826172 C 23.057189 19.596367 23.266927 17.848862 22.695312 16.46875 C 22.123498 15.088227 20.73942 14 19 14 z M 19 16 C 19.933374 16 20.554559 16.526716 20.847656 17.234375 C 21.140754 17.942034 21.074283 18.754042 20.414062 19.414062 A 1 1 0 0 0 20.412109 19.414062 C 20.201135 19.625621 19.566887 20.171813 19 20.664062 C 18.448807 20.187635 17.843263 19.670047 17.587891 19.414062 A 1.0001 1.0001 0 0 0 17.585938 19.414062 C 16.92581 18.754042 16.859246 17.942034 17.152344 17.234375 C 17.445441 16.526716 18.066626 16 19 16 z M 19 17 A 1 1 0 0 0 18 18 L 18 18.009766 A 1 1 0 0 0 19 19.009766 A 1 1 0 0 0 20 18.009766 L 20 18 A 1 1 0 0 0 19 17 z " fill="currentColor"/>
</svg>
