<svg xmlns="http://www.w3.org/2000/svg" width="1em" height="1em" viewBox="0 0 24 24" fill="currentColor">
  <path d="M 12.033203 1 C 11.479213 1 10.925633 1.1384646 10.425781 1.4140625 A 1.0001 1.0001 0 0 0 10.400391 1.4277344 L 3.6757812 5.3945312 C 2.6460762 5.9605089 2 7.0427371 2 8.2167969 L 2 15.501953 A 1.0001 1.0001 0 0 0 2 15.503906 C 2.00236 16.679062 2.6465154 17.76458 3.6777344 18.328125 L 10.373047 22.564453 A 1.0001 1.0001 0 0 0 10.425781 22.595703 C 11.4045 23.133054 12.5955 23.133054 13.574219 22.595703 A 1.0001 1.0001 0 0 0 13.626953 22.564453 L 20.351562 18.310547 C 21.365877 17.740112 22 16.665537 22 15.501953 L 22 8.2246094 C 22.0071 7.0951803 21.401867 6.0607265 20.443359 5.4726562 A 1.0001 1.0001 0 0 0 20.416016 5.4082031 L 13.666016 1.4277344 A 1.0001 1.0001 0 0 0 13.640625 1.4140625 C 13.14077 1.1384646 12.587194 1 12.033203 1 z M 12.033203 3.0019531 C 12.253532 3.0019531 12.473862 3.0561651 12.673828 3.1660156 L 19.375 7.1152344 A 1 1 0 0 0 19.380859 7.1386719 C 19.767582 7.3586321 20.002781 7.76601 20 8.2109375 A 1.0001 1.0001 0 0 0 20 8.21875 L 20 15.501953 C 20 15.945893 19.759043 16.354541 19.359375 16.574219 A 1.0001 1.0001 0 0 0 19.306641 16.605469 L 12.605469 20.84375 C 12.226883 21.04922 11.773117 21.04922 11.394531 20.84375 L 4.6933594 16.605469 A 1.0001 1.0001 0 0 0 4.6367188 16.572266 C 4.2433998 16.35732 4.0015513 15.950063 4 15.501953 L 4 8.2167969 C 4 7.7728566 4.24033 7.3665067 4.640625 7.1464844 A 1.0001 1.0001 0 0 0 4.6660156 7.1308594 L 11.390625 3.1660156 L 11.392578 3.1660156 C 11.592545 3.0561651 11.812874 3.0019531 12.033203 3.0019531 z M 12 8 C 11.027778 8 10.042119 8.3186806 9.2734375 9.0019531 C 8.5047556 9.6852256 8 10.75 8 12 C 8 13.25 8.5047556 14.314774 9.2734375 14.998047 C 10.042119 15.681319 11.027778 16 12 16 C 12.972222 16 13.95788 15.681319 14.726562 14.998047 C 15.495243 14.314774 16 13.25 16 12 C 16 10.75 15.495244 9.6852256 14.726562 9.0019531 C 13.95788 8.3186806 12.972222 8 12 8 z M 12 10 C 12.527778 10 13.042119 10.18132 13.398438 10.498047 C 13.754755 10.814774 14 11.250001 14 12 C 14 12.749999 13.754756 13.185226 13.398438 13.501953 C 13.042118 13.81868 12.527778 14 12 14 C 11.472222 14 10.95788 13.81868 10.601562 13.501953 C 10.245243 13.185226 10 12.749999 10 12 C 10 11.250001 10.245244 10.814774 10.601562 10.498047 C 10.95788 10.18132 11.472222 10 12 10 z " fill="currentColor"/>
</svg>
