<svg xmlns="http://www.w3.org/2000/svg" width="1em" height="1em" viewBox="0 0 24 24" fill="currentColor">
  <path d="M 5 2 C 4.2777779 2 3.5421194 2.2353472 2.9609375 2.7519531 C 2.3797556 3.268559 2 4.0833335 2 5 C 2 5.9166665 2.3797556 6.731441 2.9609375 7.2480469 C 3.2716848 7.5242666 3.6265945 7.7193743 4 7.8417969 L 4 16.158203 C 3.6265945 16.280626 3.2716848 16.475733 2.9609375 16.751953 C 2.3797556 17.268559 2 18.083334 2 19 C 2 19.916666 2.3797556 20.731441 2.9609375 21.248047 C 3.5421194 21.764653 4.2777779 22 5 22 C 5.7222221 22 6.4578806 21.764653 7.0390625 21.248047 C 7.6202444 20.731441 8 19.916666 8 19 C 8 18.083334 7.6202444 17.268559 7.0390625 16.751953 C 6.7283152 16.475733 6.3734055 16.280626 6 16.158203 L 6 7.8417969 C 6.3734055 7.7193743 6.7283152 7.5242666 7.0390625 7.2480469 C 7.3970256 6.9298576 7.6783281 6.4985548 7.8417969 6 L 16.158203 6 C 16.321672 6.4985548 16.602975 6.9298576 16.960938 7.2480469 C 17.271685 7.5242666 17.626594 7.7193743 18 7.8417969 L 18 16.158203 C 17.626594 16.280626 17.271685 16.475733 16.960938 16.751953 C 16.379756 17.268559 16 18.083334 16 19 C 16 19.916666 16.379756 20.731441 16.960938 21.248047 C 17.542119 21.764653 18.277778 22 19 22 C 19.722222 22 20.457881 21.764653 21.039062 21.248047 C 21.620244 20.731441 22 19.916666 22 19 C 22 18.083334 21.620244 17.268559 21.039062 16.751953 C 20.728316 16.475733 20.373406 16.280626 20 16.158203 L 20 7.8417969 C 20.373406 7.7193743 20.728316 7.5242666 21.039062 7.2480469 C 21.620244 6.731441 22 5.9166665 22 5 C 22 4.0833335 21.620244 3.268559 21.039062 2.7519531 C 20.457881 2.2353472 19.722222 2 19 2 C 18.277778 2 17.542119 2.2353472 16.960938 2.7519531 C 16.602975 3.0701424 16.321672 3.5014452 16.158203 4 L 7.8417969 4 C 7.6783281 3.5014452 7.3970256 3.0701424 7.0390625 2.7519531 C 6.4578806 2.2353472 5.7222221 2 5 2 z M 5 4 C 5.2777779 4 5.5421194 4.0979864 5.7109375 4.2480469 C 5.8797556 4.3981073 6 4.5833337 6 5 C 6 5.4166663 5.8797556 5.6018927 5.7109375 5.7519531 C 5.5421194 5.9020136 5.2777779 6 5 6 C 4.7222221 6 4.4578806 5.9020136 4.2890625 5.7519531 C 4.1202444 5.6018927 4 5.4166663 4 5 C 4 4.5833337 4.1202444 4.3981073 4.2890625 4.2480469 C 4.4578806 4.0979864 4.7222221 4 5 4 z M 19 4 C 19.277778 4 19.542119 4.097986 19.710938 4.2480469 C 19.879756 4.3981073 20 4.5833337 20 5 C 20 5.4166663 19.879756 5.6018927 19.710938 5.7519531 C 19.542119 5.9020136 19.277778 6 19 6 C 18.722222 6 18.457881 5.9020136 18.289062 5.7519531 C 18.120244 5.6018927 18 5.4166663 18 5 C 18 4.5833337 18.120244 4.3981073 18.289062 4.2480469 C 18.457881 4.0979864 18.722222 4 19 4 z M 5 18 C 5.2777779 18 5.5421194 18.09799 5.7109375 18.248047 C 5.8797556 18.398107 6 18.583334 6 19 C 6 19.416666 5.8797556 19.601893 5.7109375 19.751953 C 5.5421194 19.902014 5.2777779 20 5 20 C 4.7222221 20 4.4578806 19.902014 4.2890625 19.751953 C 4.1202444 19.601893 4 19.416666 4 19 C 4 18.583334 4.1202444 18.398107 4.2890625 18.248047 C 4.4578806 18.097986 4.7222221 18 5 18 z M 19 18 C 19.277778 18 19.542119 18.09799 19.710938 18.248047 C 19.879756 18.398107 20 18.583334 20 19 C 20 19.416666 19.879756 19.601893 19.710938 19.751953 C 19.542119 19.902014 19.277778 20 19 20 C 18.722222 20 18.457881 19.902014 18.289062 19.751953 C 18.120244 19.601893 18 19.416666 18 19 C 18 18.583334 18.120244 18.398107 18.289062 18.248047 C 18.45788 18.097987 18.722224 18.000001 19 18 z " fill="currentColor"/>
</svg>
