<svg xmlns="http://www.w3.org/2000/svg" width="1em" height="1em" viewBox="0 0 24 24" fill="currentColor">
  <path d="M 6 3 C 3.8027056 3 2 4.8027056 2 7 L 2 15 C 2 17.197294 3.8027056 19 6 19 A 1 1 0 0 0 7 18 A 1 1 0 0 0 6 17 C 4.8835859 17 4 16.116414 4 15 L 4 7 C 4 5.8835859 4.8835859 5 6 5 L 18 5 C 19.116414 5 20 5.8835859 20 7 L 20 15 C 20 16.116414 19.116414 17 18 17 A 1 1 0 0 0 17 18 A 1 1 0 0 0 18 19 C 20.197294 19 22 17.197294 22 15 L 22 7 C 22 4.8027056 20.197294 3 18 3 L 6 3 z M 12 14 A 1.0001 1.0001 0 0 0 11.142578 14.486328 L 8.1425781 19.486328 A 1 1 0 0 0 8.2167969 19.783203 A 1 1 0 0 0 8 20 A 1 1 0 0 0 8.3613281 20.361328 A 1 1 0 0 0 8.4863281 20.857422 A 1 1 0 0 0 8.921875 20.921875 A 1 1 0 0 0 9 21 L 15 21 A 1.0001 1.0001 0 0 0 15.857422 19.486328 L 12.857422 14.486328 A 1.0001 1.0001 0 0 0 12 14 z M 12 16.943359 L 13.234375 19 L 10.765625 19 L 12 16.943359 z " fill="currentColor"/>
</svg>
