<svg xmlns="http://www.w3.org/2000/svg" width="1em" height="1em" viewBox="0 0 24 24" fill="currentColor">
  <path d="M 11.933594 2.0039062 A 1.0001 1.0001 0 0 0 11.337891 2.2519531 C 9.196451 4.1465446 6.4011704 5.1326548 3.5449219 5.0019531 A 1.0001 1.0001 0 0 0 2.5410156 5.71875 C 0.47365259 12.751434 4.6525911 20.12833 11.748047 21.96875 A 1.0001 1.0001 0 0 0 12.25 21.96875 C 12.417721 21.92547 12.586466 21.87821 12.755859 21.826172 A 1 1 0 0 0 13.417969 20.576172 A 1 1 0 0 0 12.167969 19.914062 C 12.136059 19.923862 12.102532 19.931926 12.070312 19.941406 C 6.3613862 18.346122 3.0548105 12.579997 4.4101562 6.8574219 C 7.17974 6.7752475 9.8156706 5.8489085 12 4.1386719 C 14.195349 5.8575364 16.846349 6.7896574 19.630859 6.8632812 C 20.039827 8.5939884 20.084468 10.392901 19.640625 12.121094 A 1 1 0 0 0 20.361328 13.337891 A 1 1 0 0 0 21.578125 12.619141 C 22.160857 10.350199 22.119742 7.9662177 21.458984 5.71875 A 1.0001 1.0001 0 0 0 20.455078 5.0019531 C 17.59883 5.1326548 14.803549 4.1465446 12.662109 2.2519531 A 1.0001 1.0001 0 0 0 11.933594 2.0039062 z M 19 15 A 1 1 0 0 0 18 16 L 18 18 L 16 18 A 1 1 0 0 0 15 19 A 1 1 0 0 0 16 20 L 18 20 L 18 22 A 1 1 0 0 0 19 23 A 1 1 0 0 0 20 22 L 20 20 L 22 20 A 1 1 0 0 0 23 19 A 1 1 0 0 0 22 18 L 20 18 L 20 16 A 1 1 0 0 0 19 15 z " fill="currentColor"/>
</svg>
