<svg xmlns="http://www.w3.org/2000/svg" width="1em" height="1em" viewBox="0 0 24 24" fill="currentColor">
  <path d="M 12 2 A 1 1 0 0 0 11.943359 2.0039062 A 1 1 0 0 0 11.939453 2.0019531 A 1 1 0 0 0 11.933594 2.0039062 A 1 1 0 0 0 11.337891 2.2519531 C 9.196451 4.1465446 6.4011704 5.1326548 3.5449219 5.0019531 A 1.0001 1.0001 0 0 0 2.5410156 5.71875 C 0.47600338 12.743437 4.6438512 20.110041 11.724609 21.960938 A 1 1 0 0 0 11.740234 21.966797 C 11.742859 21.967479 11.745421 21.968069 11.748047 21.96875 A 1.0001 1.0001 0 0 0 11.791016 21.976562 A 1 1 0 0 0 11.869141 21.992188 A 1.0001 1.0001 0 0 0 11.873047 21.992188 A 1 1 0 0 0 11.886719 21.994141 A 1.0001 1.0001 0 0 0 12.208984 21.976562 A 1 1 0 0 0 12.259766 21.966797 C 19.350438 20.122963 23.525582 12.748832 21.458984 5.71875 A 1.0001 1.0001 0 0 0 20.455078 5.0019531 C 17.613158 5.1319992 14.832522 4.1572632 12.695312 2.28125 A 1 1 0 0 0 12.662109 2.2519531 A 1 1 0 0 0 12.660156 2.2519531 A 1 1 0 0 0 12 2 z M 11 4.8476562 L 11 11 L 4.2207031 11 C 4.0270028 9.6580812 4.0787262 8.2567943 4.4101562 6.8574219 C 6.7692373 6.7874272 9.0313487 6.1053435 11 4.8476562 z M 13 4.8476562 C 14.968651 6.1053434 17.230763 6.7874272 19.589844 6.8574219 C 19.921274 8.2567943 19.972997 9.6580812 19.779297 11 L 13 11 L 13 4.8476562 z M 4.7050781 13 L 11 13 L 11 19.568359 C 7.9495811 18.370566 5.7143431 15.928523 4.7050781 13 z M 13 13 L 19.294922 13 C 18.285657 15.928523 16.050419 18.370566 13 19.568359 L 13 13 z " fill="currentColor"/>
</svg>
