<svg xmlns="http://www.w3.org/2000/svg" width="1em" height="1em" viewBox="0 0 24 24" fill="currentColor">
  <path d="M 11.933594 2.0039062 A 1.0001 1.0001 0 0 0 11.337891 2.2519531 C 9.196451 4.1465446 6.4011704 5.1326548 3.5449219 5.0019531 A 1.0001 1.0001 0 0 0 2.5410156 5.71875 C 0.47365259 12.751434 4.6525911 20.12833 11.748047 21.96875 A 1.0001 1.0001 0 0 0 12.253906 21.966797 C 12.412068 21.925397 12.570313 21.881917 12.730469 21.833984 A 1 1 0 0 0 13.402344 20.589844 A 1 1 0 0 0 12.158203 19.917969 C 12.129593 19.926569 12.099193 19.934979 12.070312 19.943359 C 6.3608606 18.348462 3.0547423 12.580285 4.4101562 6.8574219 C 7.17974 6.7752475 9.8156706 5.8489085 12 4.1386719 C 14.195349 5.8575364 16.846349 6.7896574 19.630859 6.8632812 C 20.037843 8.5855634 20.086124 10.374922 19.648438 12.095703 A 1 1 0 0 0 20.371094 13.3125 A 1 1 0 0 0 21.585938 12.589844 C 22.160871 10.329475 22.116887 7.9563788 21.458984 5.71875 A 1.0001 1.0001 0 0 0 20.455078 5.0019531 C 17.59883 5.1326548 14.803549 4.1465446 12.662109 2.2519531 A 1.0001 1.0001 0 0 0 11.933594 2.0039062 z M 19 15 A 1 1 0 0 0 18 16 L 18 19.585938 L 16.707031 18.292969 A 1 1 0 0 0 15.292969 18.292969 A 1 1 0 0 0 15.292969 19.707031 L 18.283203 22.697266 L 18.292969 22.707031 A 1.0001 1.0001 0 0 0 18.341797 22.75 A 1 1 0 0 0 18.384766 22.787109 A 1.0001 1.0001 0 0 0 18.439453 22.824219 A 1 1 0 0 0 18.492188 22.861328 A 1.0001 1.0001 0 0 0 18.5 22.865234 A 1 1 0 0 0 18.611328 22.921875 A 1.0001 1.0001 0 0 0 18.617188 22.923828 A 1 1 0 0 0 18.742188 22.964844 A 1 1 0 0 0 18.794922 22.976562 A 1.0001 1.0001 0 0 0 19 23 A 1.0001 1.0001 0 0 0 19.205078 22.976562 A 1.0001 1.0001 0 0 0 19.257812 22.964844 A 1 1 0 0 0 19.382812 22.923828 A 1.0001 1.0001 0 0 0 19.560547 22.824219 A 1 1 0 0 0 19.615234 22.787109 A 1.0001 1.0001 0 0 0 19.658203 22.75 A 1 1 0 0 0 19.716797 22.697266 L 22.707031 19.707031 A 1 1 0 0 0 22.707031 18.292969 A 1 1 0 0 0 21.292969 18.292969 L 20 19.585938 L 20 16 A 1 1 0 0 0 19 15 z " fill="currentColor"/>
</svg>
