<svg xmlns="http://www.w3.org/2000/svg" width="1em" height="1em" viewBox="0 0 24 24" fill="currentColor">
  <path d="M 3 2 A 1 1 0 0 0 2.2929688 2.2929688 A 1 1 0 0 0 2.2929688 3.7070312 L 4.6503906 6.0644531 A 1.0001 1.0001 0 0 0 4 7 L 4 12 L 3 12 A 1.0001 1.0001 0 0 0 2.0195312 13.195312 L 3.0195312 18.195312 A 1 1 0 0 0 4.1953125 18.980469 A 1 1 0 0 0 4.9804688 17.804688 L 4.21875 14 L 12.585938 14 L 16.640625 18.054688 C 16.430845 18.017831 16.216738 18.000797 16 18.003906 C 14.889177 17.987973 13.835833 18.512762 13.1875 19.416016 C 12.917844 19.791699 12.483825 20.009685 12.021484 20 A 1.0001 1.0001 0 0 0 11.978516 20 C 11.516177 20.009685 11.082156 19.791699 10.8125 19.416016 C 10.164167 18.512762 9.1108228 17.987973 8 18.003906 C 6.8891772 17.987973 5.8358331 18.512762 5.1875 19.416016 C 4.9178437 19.791699 4.4838248 20.009685 4.0214844 20 A 1.0001 1.0001 0 0 0 3.9785156 20 C 3.5161754 20.009685 3.0821563 19.791699 2.8125 19.416016 A 1 1 0 0 0 1.4160156 19.1875 A 1 1 0 0 0 1.1875 20.583984 C 1.8358331 21.487238 2.8891772 22.012027 4 21.996094 C 5.1108228 22.012027 6.1641669 21.487238 6.8125 20.583984 C 7.0821563 20.208301 7.5161752 19.990315 7.9785156 20 A 1.0001 1.0001 0 0 0 8.0214844 20 C 8.4838248 19.9903 8.9178437 20.208301 9.1875 20.583984 C 9.8358331 21.487238 10.889177 22.012027 12 21.996094 C 13.110823 22.012024 14.164167 21.487238 14.8125 20.583984 C 15.082156 20.208301 15.516175 19.990315 15.978516 20 A 1.0001 1.0001 0 0 0 16.021484 20 C 16.483825 19.9903 16.917844 20.208301 17.1875 20.583984 C 17.835833 21.487238 18.889177 22.012027 20 21.996094 C 20.224034 21.999307 20.445602 21.980851 20.662109 21.941406 A 1 1 0 0 0 21.707031 21.707031 A 1 1 0 0 0 21.888672 21.458984 C 22.244848 21.231313 22.559224 20.936847 22.8125 20.583984 A 1 1 0 0 0 22.583984 19.1875 A 1 1 0 0 0 21.1875 19.416016 C 21.137631 19.485493 21.081736 19.549174 21.021484 19.607422 L 13.716797 12.302734 A 1 1 0 0 0 13.697266 12.283203 L 7.7167969 6.3027344 A 1 1 0 0 0 7.6972656 6.2832031 L 3.7070312 2.2929688 A 1 1 0 0 0 3 2 z M 11 6 A 1 1 0 0 0 10 7 A 1 1 0 0 0 11 8 L 12.464844 8 L 16.167969 13.554688 A 1 1 0 0 0 16.248047 13.658203 A 1 1 0 0 0 16.296875 13.707031 A 1 1 0 0 0 16.347656 13.757812 A 1 1 0 0 0 16.349609 13.759766 A 1 1 0 0 0 16.367188 13.771484 A 1 1 0 0 0 16.457031 13.837891 A 1 1 0 0 0 16.5 13.863281 A 1 1 0 0 0 16.570312 13.902344 A 1 1 0 0 0 16.636719 13.929688 A 1 1 0 0 0 16.697266 13.953125 A 1 1 0 0 0 16.769531 13.970703 A 1 1 0 0 0 16.828125 13.984375 A 1 1 0 0 0 16.894531 13.992188 A 1 1 0 0 0 16.972656 13.998047 A 1 1 0 0 0 17 14 L 19.382812 14 L 18.771484 15.220703 A 1 1 0 0 0 19.21875 16.5625 A 1 1 0 0 0 20.560547 16.115234 L 21.894531 13.447266 A 1.0001 1.0001 0 0 0 21 12 L 17.535156 12 L 13.832031 6.4453125 A 1.0001 1.0001 0 0 0 13 6 L 11 6 z M 6 8 L 6.5859375 8 L 10.585938 12 L 6 12 L 6 8 z " fill="currentColor"/>
</svg>
