<svg xmlns="http://www.w3.org/2000/svg" width="1em" height="1em" viewBox="0 0 24 24" fill="currentColor">
  <path d="M 4 2 A 1 1 0 0 0 3 3 A 1 1 0 0 0 4 4 L 5 4 L 5 4.9667969 A 1 1 0 0 0 5 5.0332031 L 5 16.158203 C 4.6265945 16.280626 4.2716848 16.475733 3.9609375 16.751953 C 3.3797556 17.268559 3 18.083334 3 19 C 3 19.916666 3.3797556 20.731441 3.9609375 21.248047 C 4.5421194 21.764653 5.2777779 22 6 22 C 6.7222221 22 7.4578806 21.764653 8.0390625 21.248047 C 8.6202444 20.731441 9 19.916666 9 19 C 9 18.647929 8.9437328 18.310889 8.8417969 18 L 10 18 A 1 1 0 0 0 11 17 A 1 1 0 0 0 10 16 L 7 16 L 7 14 L 11.5 14 A 1 1 0 0 0 12.5 13 A 1 1 0 0 0 11.5 12 L 7 12 L 7 6.0742188 L 18.857422 6.921875 L 18.292969 10.875 A 1 1 0 0 0 19.140625 12.005859 A 1 1 0 0 0 20.273438 11.158203 L 20.990234 6.140625 A 1.0001 1.0001 0 0 0 20.070312 5.0019531 L 7 4.0683594 L 7 3 A 1.0001 1.0001 0 0 0 6 2 L 4 2 z M 16.21875 14.005859 C 15.40068 14.004259 14.581697 14.308264 13.955078 14.916016 C 12.695184 16.137796 12.689598 18.19039 13.943359 19.417969 L 17.285156 22.699219 L 17.298828 22.712891 A 1 1 0 0 0 17.316406 22.712891 A 1 1 0 0 0 18.699219 22.714844 L 18.712891 22.701172 L 22.046875 19.433594 C 23.307044 18.210748 23.31088 16.15663 22.054688 14.929688 C 20.991215 13.889641 19.43405 13.924693 18.201172 14.652344 L 18.474609 14.921875 C 18.34441 14.79499 18.149104 14.830955 18.003906 14.730469 C 17.857315 14.831202 17.660749 14.794299 17.529297 14.921875 L 17.804688 14.650391 C 17.297704 14.349397 16.79292 14.006961 16.21875 14.005859 z M 16.214844 15.994141 C 16.525546 15.994737 16.835532 16.114506 17.080078 16.353516 L 17.298828 16.570312 A 1.0001 1.0001 0 0 0 18.703125 16.572266 L 18.925781 16.351562 L 18.921875 16.357422 C 19.412879 15.880905 20.167077 15.880931 20.65625 16.359375 A 1.0001 1.0001 0 0 0 20.65625 16.361328 C 21.125633 16.819786 21.125218 17.541119 20.654297 17.998047 A 1.0001 1.0001 0 0 0 20.650391 18.001953 L 18 20.599609 L 15.345703 17.990234 A 1.0001 1.0001 0 0 0 15.34375 17.988281 C 14.874515 17.52967 14.876639 16.808338 15.347656 16.351562 C 15.593117 16.113494 15.904141 15.993545 16.214844 15.994141 z M 6 18 C 6.2777779 18 6.5421194 18.09799 6.7109375 18.248047 C 6.8797556 18.398107 7 18.583334 7 19 C 7 19.416666 6.8797556 19.601893 6.7109375 19.751953 C 6.5421194 19.902014 6.2777779 20 6 20 C 5.7222221 20 5.4578806 19.902014 5.2890625 19.751953 C 5.1202444 19.601893 5 19.416666 5 19 C 5 18.583334 5.1202444 18.398107 5.2890625 18.248047 C 5.4578806 18.097986 5.7222221 18 6 18 z " fill="currentColor"/>
</svg>
