<svg xmlns="http://www.w3.org/2000/svg" width="1em" height="1em" viewBox="0 0 24 24" fill="currentColor">
  <path d="M 12 2 C 11.027778 2 10.042119 2.3186806 9.2734375 3.0019531 C 8.5047556 3.6852256 8 4.7500003 8 6 L 8 7 L 6.3320312 7 L 6.3300781 7 C 4.5109551 7.0009932 3.0886834 8.6568049 3.3652344 10.455078 A 1.0001 1.0001 0 0 0 3.3652344 10.457031 L 4.6210938 18.607422 C 4.9200978 20.551649 6.6070872 21.999907 8.5742188 22 L 13 22 A 1 1 0 0 0 14 21 A 1 1 0 0 0 13 20 L 8.5742188 20 C 7.5798993 19.999953 6.7487929 19.287453 6.5976562 18.304688 L 5.3417969 10.152344 C 5.2457994 9.5281199 5.6985161 8.9999245 6.3300781 9 L 8 9 L 8 11 A 1 1 0 0 0 9 12 A 1 1 0 0 0 10 11 L 10 9 L 14 9 L 14 11 A 1 1 0 0 0 15 12 A 1 1 0 0 0 16 11 L 16 9 L 17.669922 9 C 18.301484 8.9999245 18.754201 9.5281199 18.658203 10.152344 L 18.152344 13.439453 A 1 1 0 0 0 18.988281 14.580078 A 1 1 0 0 0 20.128906 13.742188 L 20.634766 10.457031 A 1.0001 1.0001 0 0 0 20.634766 10.455078 C 20.911418 8.6561946 19.490001 6.9997825 17.669922 7 L 16 7 L 16 6 C 16 4.7500003 15.495244 3.6852256 14.726562 3.0019531 C 13.95788 2.3186806 12.972222 2 12 2 z M 12 4 C 12.527778 4 13.042119 4.1813198 13.398438 4.4980469 C 13.754755 4.8147739 14 5.2500005 14 6 L 14 7 L 10 7 L 10 6 C 10 5.2500005 10.245244 4.8147739 10.601562 4.4980469 C 10.95788 4.1813198 11.472222 4 12 4 z M 17 16 A 1 1 0 0 0 16.292969 16.292969 A 1 1 0 0 0 16.292969 17.707031 L 18.085938 19.5 L 16.292969 21.292969 A 1 1 0 0 0 16.292969 22.707031 A 1 1 0 0 0 17.707031 22.707031 L 19.5 20.914062 L 21.292969 22.707031 A 1 1 0 0 0 22.707031 22.707031 A 1 1 0 0 0 22.707031 21.292969 L 20.914062 19.5 L 22.707031 17.707031 A 1 1 0 0 0 22.707031 16.292969 A 1 1 0 0 0 21.292969 16.292969 L 19.5 18.085938 L 17.707031 16.292969 A 1 1 0 0 0 17 16 z " fill="currentColor"/>
</svg>
