<svg xmlns="http://www.w3.org/2000/svg" width="1em" height="1em" viewBox="0 0 24 24" fill="currentColor">
  <path d="M 4 7 A 1 1 0 0 0 3 8 L 3 16 A 1.0001 1.0001 0 0 0 4 17 L 8 17 A 1 1 0 0 0 9 16 A 1 1 0 0 0 8 15 L 5 15 L 5 8 A 1 1 0 0 0 4 7 z M 10 7 A 1 1 0 0 0 9 8 A 1 1 0 0 0 10 9 L 11 9 L 11 16 A 1 1 0 0 0 12 17 A 1 1 0 0 0 13 16 L 13 9 L 14 9 A 1 1 0 0 0 15 8 A 1 1 0 0 0 14 7 L 12 7 L 10 7 z M 17 7 A 1.0001 1.0001 0 0 0 16 8 L 16 16 A 1.0001 1.0001 0 0 0 17 17 L 21 17 A 1 1 0 0 0 22 16 A 1 1 0 0 0 21 15 L 18 15 L 18 13 L 19.5 13 A 1 1 0 0 0 20.5 12 A 1 1 0 0 0 19.5 11 L 18 11 L 18 9 L 21 9 A 1 1 0 0 0 22 8 A 1 1 0 0 0 21 7 L 17 7 z " fill="currentColor"/>
</svg>
