<svg xmlns="http://www.w3.org/2000/svg" width="1em" height="1em" viewBox="0 0 24 24" fill="currentColor">
  <path d="M 7 7 A 1 1 0 0 0 6 8 L 6 16 A 1 1 0 0 0 7 17 A 1 1 0 0 0 8 16 L 8 13 L 10 13 L 10 16 A 1 1 0 0 0 11 17 A 1 1 0 0 0 12 16 L 12 8 A 1 1 0 0 0 11 7 A 1 1 0 0 0 10 8 L 10 11 L 8 11 L 8 8 A 1 1 0 0 0 7 7 z M 16 9 A 1 1 0 0 0 15 10 L 15 11 L 14 11 A 1 1 0 0 0 13 12 A 1 1 0 0 0 14 13 L 15 13 L 15 14 A 1 1 0 0 0 16 15 A 1 1 0 0 0 17 14 L 17 13 L 18 13 A 1 1 0 0 0 19 12 A 1 1 0 0 0 18 11 L 17 11 L 17 10 A 1 1 0 0 0 16 9 z " fill="currentColor"/>
</svg>
