<svg xmlns="http://www.w3.org/2000/svg" width="1em" height="1em" viewBox="0 0 24 24" fill="currentColor">
  <path d="M 3 7 A 1 1 0 0 0 2 8 L 2 11 C 2 12.092725 2.9072751 13 4 13 L 6 13 L 6 16 A 1 1 0 0 0 7 17 A 1 1 0 0 0 8 16 L 8 8 A 1 1 0 0 0 7 7 A 1 1 0 0 0 6 8 L 6 11 L 4 11 L 4 8 A 1 1 0 0 0 3 7 z M 12 7 C 10.35499 7 9 8.3549904 9 10 L 9 14 C 9 15.64501 10.35499 17 12 17 L 14 17 A 1.0001 1.0001 0 0 0 15 16 L 15 12 A 1.0001 1.0001 0 0 0 14 11 L 13 11 A 1 1 0 0 0 12 12 A 1 1 0 0 0 13 13 L 13 15 L 12 15 C 11.435871 15 11 14.564129 11 14 L 11 10 C 11 9.4358706 11.435871 9 12 9 L 14 9 A 1 1 0 0 0 15 8 A 1 1 0 0 0 14 7 L 12 7 z M 19 9 A 1 1 0 0 0 18 10 L 18 11 L 17 11 A 1 1 0 0 0 16 12 A 1 1 0 0 0 17 13 L 18 13 L 18 14 A 1 1 0 0 0 19 15 A 1 1 0 0 0 20 14 L 20 13 L 21 13 A 1 1 0 0 0 22 12 A 1 1 0 0 0 21 11 L 20 11 L 20 10 A 1 1 0 0 0 19 9 z " fill="currentColor"/>
</svg>
