<svg xmlns="http://www.w3.org/2000/svg" width="1em" height="1em" viewBox="0 0 24 24" fill="currentColor">
  <path d="M 7.7539062 4 C 6.8660162 4.0003944 6.0762011 4.5955617 5.8320312 5.4492188 A 1.0001 1.0001 0 0 0 5.8320312 5.4511719 L 2.4023438 17.449219 C 2.0439858 18.702095 3.023053 20.000724 4.3261719 20 L 19.673828 20 C 20.976245 20.000724 21.954381 18.703421 21.597656 17.451172 L 18.167969 5.4511719 A 1.0001 1.0001 0 0 0 18.167969 5.4492188 C 17.923799 4.5955585 17.133984 4.0003944 16.246094 4 L 7.7539062 4 z M 7.7539062 6 L 16.246094 6 L 19.673828 18 L 4.3261719 18 L 7.7539062 6 z " fill="currentColor"/>
</svg>
