<svg xmlns="http://www.w3.org/2000/svg" width="1em" height="1em" viewBox="0 0 24 24" fill="currentColor">
  <path d="M 3 2 A 1 1 0 0 0 2.2929688 2.2929688 A 1 1 0 0 0 2.2929688 3.7070312 L 5.6054688 7.0195312 L 4.4453125 7.9199219 C 3.5525961 8.6141533 3.0307161 9.6855221 3.03125 10.816406 L 3.03125 18.015625 C 3.03125 19.660635 4.3862404 21.015625 6.03125 21.015625 L 18.03125 21.015625 C 18.487607 21.015625 18.922465 20.911188 19.3125 20.726562 L 20.292969 21.707031 A 1 1 0 0 0 21.707031 21.707031 A 1 1 0 0 0 21.707031 20.292969 L 20.314453 18.900391 A 1 1 0 0 0 20.160156 18.705078 A 1 1 0 0 0 19.974609 18.560547 L 3.7070312 2.2929688 A 1 1 0 0 0 3 2 z M 12.029297 3.0019531 C 11.23377 3.0019531 10.439271 3.2600066 9.7792969 3.7734375 L 8.75 4.5722656 A 1 1 0 0 0 8.5742188 5.9765625 A 1 1 0 0 0 9.9785156 6.1523438 L 11.005859 5.3515625 A 1.0001 1.0001 0 0 0 11.007812 5.3515625 C 11.613487 4.880373 12.447058 4.880373 13.052734 5.3515625 L 18.386719 9.5 C 18.793394 9.8159553 19.029297 10.29927 19.029297 10.814453 L 19.029297 16 A 1 1 0 0 0 20.029297 17 A 1 1 0 0 0 21.029297 16 L 21.029297 10.814453 C 21.029297 9.6836363 20.506606 8.6139666 19.613281 7.9199219 L 14.28125 3.7734375 C 13.621276 3.2600066 12.824824 3.0019531 12.029297 3.0019531 z M 7.0292969 8.4433594 L 13.443359 14.857422 C 11.741437 15.143525 9.7562662 14.891962 8.5175781 14.144531 A 1 1 0 0 0 7.1445312 14.482422 A 1 1 0 0 0 7.4824219 15.855469 C 9.6569703 17.167603 12.643629 17.362848 15.097656 16.511719 L 17.601562 19.015625 L 6.03125 19.015625 C 5.4671206 19.015625 5.03125 18.579754 5.03125 18.015625 L 5.03125 10.814453 C 5.0310409 10.299532 5.2673509 9.8161018 5.6738281 9.5 L 7.0292969 8.4433594 z " fill="currentColor"/>
</svg>
