<svg xmlns="http://www.w3.org/2000/svg" width="1em" height="1em" viewBox="0 0 24 24" fill="currentColor">
  <path d="M 3 2 A 1 1 0 0 0 2.2929688 2.2929688 A 1 1 0 0 0 2.2929688 3.7070312 L 10.585938 12 L 8 12 L 4 12 C 2.9072751 12 2 12.907275 2 14 L 2 16 C 2 17.092725 2.9072751 18 4 18 L 8 18 L 16.585938 18 L 20.292969 21.707031 A 1 1 0 0 0 21.707031 21.707031 A 1 1 0 0 0 21.707031 20.292969 L 17.716797 16.302734 A 1 1 0 0 0 17.697266 16.283203 L 13.716797 12.302734 A 1 1 0 0 0 13.697266 12.283203 L 3.7070312 2.2929688 A 1 1 0 0 0 3 2 z M 16 4 A 1 1 0 0 0 15 5 L 15 5.5 C 15 7.1450096 16.35499 8.5 18 8.5 C 18.564129 8.5 19 8.9358706 19 9.5 L 19 10 A 1 1 0 0 0 20 11 A 1 1 0 0 0 21 10 L 21 9.5 C 21 7.8549904 19.64501 6.5 18 6.5 C 17.435871 6.5 17 6.0641294 17 5.5 L 17 5 A 1 1 0 0 0 16 4 z M 17 12 A 1 1 0 0 0 16 13 A 1 1 0 0 0 17 14 L 20 14 L 20 16 A 1 1 0 0 0 19.984375 17.414062 A 1 1 0 0 0 21.398438 17.429688 C 21.768331 17.067791 22 16.55381 22 16 L 22 14 C 22 12.907275 21.092725 12 20 12 L 17 12 z M 4 14 L 7 14 L 7 16 L 4 16 L 4 14 z M 9 14 L 12.585938 14 L 14.585938 16 L 9 16 L 9 14 z " fill="currentColor"/>
</svg>
