<svg xmlns="http://www.w3.org/2000/svg" width="1em" height="1em" viewBox="0 0 24 24" fill="currentColor">
  <path d="M 5 2 A 1.0001 1.0001 0 0 0 4 3 L 4 9 L 4 12.140625 C 3.9990023 12.962693 4.3362274 13.74959 4.9316406 14.316406 L 7.1152344 16.394531 A 1 1 0 0 0 7.1953125 16.482422 A 1 1 0 0 0 7.3085938 16.578125 L 11.667969 20.726562 A 1.0001 1.0001 0 0 0 11.699219 20.753906 C 12.859684 21.769201 14.227777 22.163811 15.476562 22.029297 C 16.725348 21.894783 17.837525 21.274201 18.654297 20.394531 C 19.471068 19.514862 20.00911 18.358833 20.050781 17.103516 C 20.092069 15.85972 19.606668 14.535745 18.529297 13.458984 L 18.525391 13.455078 L 14 8.6054688 L 14 3 A 1 1 0 0 0 13 2 L 5 2 z M 6 4 L 12 4 L 12 9 A 1.0001 1.0001 0 0 0 12.269531 9.6816406 L 17.066406 14.824219 A 1.0001 1.0001 0 0 0 17.095703 14.853516 C 17.841614 15.588327 18.07653 16.320275 18.052734 17.037109 C 18.028934 17.753944 17.706896 18.475913 17.189453 19.033203 C 16.67201 19.590493 15.976776 19.964203 15.263672 20.041016 C 14.552439 20.117626 13.807227 19.938879 13.021484 19.253906 L 9.2460938 15.662109 C 9.732725 14.887044 10 13.97005 10 13 C 10 10.592611 8.2748612 8.5682413 6 8.1015625 L 6 4 z M 6 10.167969 C 7.1703459 10.575792 8 11.682689 8 13 C 8 13.461345 7.9150471 13.872399 7.7519531 14.238281 L 6.3105469 12.867188 C 6.11164 12.677834 5.9996667 12.417202 6 12.142578 A 1.0001 1.0001 0 0 0 6 12.140625 L 6 10.167969 z " fill="currentColor"/>
</svg>
