<svg xmlns="http://www.w3.org/2000/svg" width="1em" height="1em" viewBox="0 0 24 24" fill="currentColor">
  <path d="M 5.0234375 4.28125 C 3.9545964 4.2768915 3.0000294 5.1615453 3 6.2792969 L 3 17.720703 C 3.0000336 18.998134 4.2471871 19.970572 5.4863281 19.660156 L 11.486328 18.160156 C 12.371208 17.938486 12.999976 17.132926 13 16.220703 L 13 7.7792969 C 12.999976 6.8670743 12.371208 6.0615139 11.486328 5.8398438 L 5.4863281 4.3398438 C 5.3314355 4.3010418 5.1761291 4.2818726 5.0234375 4.28125 z M 20.015625 6 A 1 1 0 0 0 19.142578 6.4863281 L 16.142578 11.486328 A 1.0001 1.0001 0 0 0 17 13 L 19.234375 13 L 17.142578 16.486328 A 1 1 0 0 0 17.486328 17.857422 A 1 1 0 0 0 18.857422 17.513672 L 21.857422 12.513672 A 1.0001 1.0001 0 0 0 21 11 L 18.765625 11 L 20.857422 7.5136719 A 1 1 0 0 0 20.513672 6.1425781 A 1 1 0 0 0 20.015625 6 z M 5 6.2792969 L 7 6.7792969 L 7 11 L 5 11 L 5 6.2792969 z M 9 7.2792969 L 11 7.7792969 L 11 11 L 9 11 L 9 7.2792969 z M 5 13 L 7 13 L 7 17.220703 L 5 17.720703 L 5 13 z M 9 13 L 11 13 L 11 16.220703 L 9 16.720703 L 9 13 z " fill="currentColor"/>
</svg>
