<svg xmlns="http://www.w3.org/2000/svg" width="1em" height="1em" viewBox="0 0 24 24" fill="currentColor">
  <path d="M 15 3 C 13.907275 3 13 3.9072751 13 5 L 13 9 C 13 10.092725 13.907275 11 15 11 L 19 11 C 20.092725 11 21 10.092725 21 9 L 21 5 C 21 3.9072751 20.092725 3 19 3 L 15 3 z M 7 5 A 1 1 0 0 0 6 6 L 6 15.585938 L 4.7070312 14.292969 A 1 1 0 0 0 4 14 A 1 1 0 0 0 3.2929688 14.292969 A 1 1 0 0 0 3.2929688 15.707031 L 6.2929688 18.707031 A 1.0001 1.0001 0 0 0 6.3417969 18.75 A 1 1 0 0 0 6.3847656 18.787109 A 1.0001 1.0001 0 0 0 6.4394531 18.824219 A 1 1 0 0 0 6.4921875 18.861328 A 1.0001 1.0001 0 0 0 6.5 18.865234 A 1 1 0 0 0 6.6113281 18.921875 A 1.0001 1.0001 0 0 0 6.6171875 18.923828 A 1 1 0 0 0 6.7949219 18.976562 A 1.0001 1.0001 0 0 0 7.2578125 18.964844 A 1 1 0 0 0 7.3828125 18.923828 A 1.0001 1.0001 0 0 0 7.5605469 18.824219 A 1 1 0 0 0 7.6152344 18.787109 A 1.0001 1.0001 0 0 0 7.6582031 18.75 A 1 1 0 0 0 7.7167969 18.697266 L 10.707031 15.707031 A 1 1 0 0 0 10.707031 14.292969 A 1 1 0 0 0 9.2929688 14.292969 L 8 15.585938 L 8 6 A 1 1 0 0 0 7 5 z M 15 5 L 19 5 L 19 9 L 15 9 L 15 5 z M 16.746094 13.033203 A 1 1 0 0 0 16.634766 13.117188 A 1 1 0 0 0 16.496094 13.136719 A 1 1 0 0 0 16.466797 13.244141 A 1 1 0 0 0 16.136719 13.496094 L 12.636719 19.496094 A 1.0001 1.0001 0 0 0 13.5 21 L 20.5 21 A 1.0001 1.0001 0 0 0 21.363281 19.496094 L 17.863281 13.496094 A 1 1 0 0 0 17.533203 13.244141 A 1 1 0 0 0 17.503906 13.136719 A 1 1 0 0 0 17.365234 13.117188 A 1 1 0 0 0 17 13.068359 A 1 1 0 0 0 16.746094 13.033203 z M 17 15.984375 L 18.759766 19 L 15.240234 19 L 17 15.984375 z " fill="currentColor"/>
</svg>
