<svg xmlns="http://www.w3.org/2000/svg" width="1em" height="1em" viewBox="0 0 24 24" fill="currentColor">
  <path d="M 4 5 A 1 1 0 0 0 3 6 A 1 1 0 0 0 4 7 L 13 7 A 1 1 0 0 0 14 6 A 1 1 0 0 0 13 5 L 4 5 z M 18 5 A 1 1 0 0 0 17 6 L 17 15.585938 L 15.707031 14.292969 A 1 1 0 0 0 15 14 A 1 1 0 0 0 14.292969 14.292969 A 1 1 0 0 0 14.292969 15.707031 L 17.283203 18.697266 L 17.292969 18.707031 A 1.0001 1.0001 0 0 0 17.341797 18.75 A 1 1 0 0 0 17.384766 18.787109 A 1.0001 1.0001 0 0 0 17.439453 18.824219 A 1 1 0 0 0 17.617188 18.923828 A 1 1 0 0 0 17.742188 18.964844 A 1 1 0 0 0 17.794922 18.976562 A 1.0001 1.0001 0 0 0 18 19 A 1.0001 1.0001 0 0 0 18.205078 18.976562 A 1.0001 1.0001 0 0 0 18.257812 18.964844 A 1 1 0 0 0 18.382812 18.923828 A 1 1 0 0 0 18.388672 18.921875 A 1.0001 1.0001 0 0 0 18.5 18.865234 A 1 1 0 0 0 18.507812 18.861328 A 1.0001 1.0001 0 0 0 18.560547 18.824219 A 1 1 0 0 0 18.615234 18.787109 A 1.0001 1.0001 0 0 0 18.658203 18.75 A 1 1 0 0 0 18.716797 18.697266 L 21.707031 15.707031 A 1 1 0 0 0 21.707031 14.292969 A 1 1 0 0 0 20.292969 14.292969 L 19 15.585938 L 19 6 A 1 1 0 0 0 18 5 z M 4 11 A 1 1 0 0 0 3 12 A 1 1 0 0 0 4 13 L 11 13 A 1 1 0 0 0 12 12 A 1 1 0 0 0 11 11 L 4 11 z M 4 17 A 1 1 0 0 0 3 18 A 1 1 0 0 0 4 19 L 11 19 A 1 1 0 0 0 12 18 A 1 1 0 0 0 11 17 L 4 17 z " fill="currentColor"/>
</svg>
