<svg xmlns="http://www.w3.org/2000/svg" width="1em" height="1em" viewBox="0 0 24 24" fill="currentColor">
  <path d="M 5.5 4 C 4.6834175 4 4 4.6834175 4 5.5 L 4 9.5 C 4 10.316582 4.6834175 11 5.5 11 L 9.5 11 C 10.316582 11 11 10.316582 11 9.5 L 11 5.5 C 11 4.6834175 10.316582 4 9.5 4 L 5.5 4 z M 17 5 A 1 1 0 0 0 16 6 L 16 15.585938 L 14.707031 14.292969 A 1 1 0 0 0 14 14 A 1 1 0 0 0 13.292969 14.292969 A 1 1 0 0 0 13.292969 15.707031 L 16.283203 18.697266 L 16.292969 18.707031 A 1.0001 1.0001 0 0 0 16.341797 18.75 A 1 1 0 0 0 16.384766 18.787109 A 1.0001 1.0001 0 0 0 16.439453 18.824219 A 1 1 0 0 0 16.492188 18.861328 A 1.0001 1.0001 0 0 0 16.5 18.865234 A 1 1 0 0 0 16.611328 18.921875 A 1.0001 1.0001 0 0 0 16.617188 18.923828 A 1 1 0 0 0 16.742188 18.964844 A 1 1 0 0 0 16.794922 18.976562 A 1.0001 1.0001 0 0 0 17 19 A 1.0001 1.0001 0 0 0 17.205078 18.976562 A 1.0001 1.0001 0 0 0 17.257812 18.964844 A 1 1 0 0 0 17.382812 18.923828 A 1.0001 1.0001 0 0 0 17.560547 18.824219 A 1 1 0 0 0 17.615234 18.787109 A 1.0001 1.0001 0 0 0 17.658203 18.75 A 1 1 0 0 0 17.716797 18.697266 L 20.707031 15.707031 A 1 1 0 0 0 20.707031 14.292969 A 1 1 0 0 0 19.292969 14.292969 L 18 15.585938 L 18 6 A 1 1 0 0 0 17 5 z M 6 6 L 9 6 L 9 9 L 6 9 L 6 6 z M 5.5 13 C 4.6834175 13 4 13.683418 4 14.5 L 4 18.5 C 4 19.316582 4.6834175 20 5.5 20 L 9.5 20 C 10.316582 20 11 19.316582 11 18.5 L 11 14.5 C 11 13.683418 10.316582 13 9.5 13 L 5.5 13 z M 6 15 L 9 15 L 9 18 L 6 18 L 6 15 z " fill="currentColor"/>
</svg>
