<svg xmlns="http://www.w3.org/2000/svg" width="1em" height="1em" viewBox="0 0 24 24" fill="currentColor">
  <path d="M 6 7 C 5.2777779 7 4.5421194 7.2353472 3.9609375 7.7519531 C 3.3797556 8.268559 3 9.0833335 3 10 L 3 14 C 3 14.916666 3.3797556 15.731441 3.9609375 16.248047 C 4.5421194 16.764653 5.2777779 17 6 17 C 6.7222221 17 7.4578806 16.764653 8.0390625 16.248047 C 8.6202444 15.731441 9 14.916666 9 14 L 9 10 C 9 9.0833335 8.6202444 8.268559 8.0390625 7.7519531 C 7.4578806 7.2353472 6.7222221 7 6 7 z M 17 7 C 15.907275 7 15 7.9072751 15 9 L 15 11 C 15 12.092725 15.907275 13 17 13 L 19 13 L 19 15 L 17 15 A 1 1 0 0 0 16 14 A 1 1 0 0 0 15 15 C 15 16.092725 15.907275 17 17 17 L 19 17 C 20.092725 17 21 16.092725 21 15 L 21 12 L 21 9 C 21 7.9072751 20.092725 7 19 7 L 17 7 z M 6 9 C 6.2777779 9 6.5421194 9.0979864 6.7109375 9.2480469 C 6.8797556 9.3981073 7 9.5833337 7 10 L 7 14 C 7 14.416666 6.8797556 14.601893 6.7109375 14.751953 C 6.5421194 14.902014 6.2777779 15 6 15 C 5.7222221 15 5.4578806 14.902014 5.2890625 14.751953 C 5.1202444 14.601893 5 14.416666 5 14 L 5 10 C 5 9.5833337 5.1202444 9.3981073 5.2890625 9.2480469 C 5.4578806 9.0979864 5.7222221 9 6 9 z M 17 9 L 19 9 L 19 11 L 17 11 L 17 9 z M 11 11 A 1 1 0 0 0 10 12 A 1 1 0 0 0 11 13 L 13 13 A 1 1 0 0 0 14 12 A 1 1 0 0 0 13 11 L 11 11 z " fill="currentColor"/>
</svg>
