<svg xmlns="http://www.w3.org/2000/svg" width="1em" height="1em" viewBox="0 0 24 24" fill="currentColor">
  <path d="M 4 5 A 1 1 0 0 0 3 6 A 1 1 0 0 0 4 7 L 11 7 A 1 1 0 0 0 12 6 A 1 1 0 0 0 11 5 L 4 5 z M 18 5 A 1.0001 1.0001 0 0 0 17.794922 5.0234375 A 1 1 0 0 0 17.742188 5.0351562 A 1 1 0 0 0 17.617188 5.0761719 A 1 1 0 0 0 17.439453 5.1757812 A 1.0001 1.0001 0 0 0 17.384766 5.2128906 A 1 1 0 0 0 17.341797 5.25 A 1.0001 1.0001 0 0 0 17.292969 5.2929688 A 1 1 0 0 0 17.283203 5.3027344 L 14.292969 8.2929688 A 1 1 0 0 0 14.292969 9.7070312 A 1 1 0 0 0 15.707031 9.7070312 L 17 8.4140625 L 17 18 A 1 1 0 0 0 18 19 A 1 1 0 0 0 19 18 L 19 8.4140625 L 20.292969 9.7070312 A 1 1 0 0 0 21.707031 9.7070312 A 1 1 0 0 0 21.707031 8.2929688 L 18.716797 5.3027344 A 1 1 0 0 0 18.658203 5.25 A 1.0001 1.0001 0 0 0 18.615234 5.2128906 A 1 1 0 0 0 18.560547 5.1757812 A 1.0001 1.0001 0 0 0 18.5 5.1347656 A 1 1 0 0 0 18.388672 5.078125 A 1.0001 1.0001 0 0 0 18.382812 5.0761719 A 1 1 0 0 0 18.257812 5.0351562 A 1.0001 1.0001 0 0 0 18.205078 5.0234375 A 1.0001 1.0001 0 0 0 18 5 z M 4 11 A 1 1 0 0 0 3 12 A 1 1 0 0 0 4 13 L 11 13 A 1 1 0 0 0 12 12 A 1 1 0 0 0 11 11 L 4 11 z M 4 17 A 1 1 0 0 0 3 18 A 1 1 0 0 0 4 19 L 13 19 A 1 1 0 0 0 14 18 A 1 1 0 0 0 13 17 L 4 17 z " fill="currentColor"/>
</svg>
