<svg xmlns="http://www.w3.org/2000/svg" width="1em" height="1em" viewBox="0 0 24 24" fill="currentColor">
  <path d="M 4 3 A 1 1 0 0 0 3 4 A 1 1 0 0 0 4 5 L 6 5 C 6.5641294 5 7 5.4358706 7 6 L 7 18 C 7 18.564129 6.5641294 19 6 19 L 4 19 A 1 1 0 0 0 3 20 A 1 1 0 0 0 4 21 L 6 21 C 7.6450096 21 9 19.64501 9 18 L 9 6 C 9 4.3549904 7.6450096 3 6 3 L 4 3 z M 18 3 C 16.35499 3 15 4.3549904 15 6 L 15 18 C 15 19.64501 16.35499 21 18 21 L 20 21 A 1 1 0 0 0 21 20 A 1 1 0 0 0 20 19 L 18 19 C 17.435871 19 17 18.564129 17 18 L 17 6 C 17 5.4358706 17.435871 5 18 5 L 20 5 A 1 1 0 0 0 21 4 A 1 1 0 0 0 20 3 L 18 3 z M 12 7 A 1 1 0 0 0 11 8 L 11 16 A 1 1 0 0 0 12 17 A 1 1 0 0 0 13 16 L 13 8 A 1 1 0 0 0 12 7 z " fill="currentColor"/>
</svg>
