<svg xmlns="http://www.w3.org/2000/svg" width="1em" height="1em" viewBox="0 0 24 24" fill="currentColor">
  <path d="M 11.597656 2.2148438 A 1 1 0 0 0 11.326172 2.2597656 C 9.6821982 3.7571893 8.0417798 5.2591532 6.4042969 6.7636719 A 1.0001 1.0001 0 0 0 6.3886719 6.7792969 C 5.7786035 7.3651827 5.1924227 7.9748933 4.6308594 8.6074219 A 1.0001 1.0001 0 0 0 4.6269531 8.609375 C 2.5845584 10.930113 2.4551702 14.383161 4.3164062 16.851562 A 1.0001 1.0001 0 0 0 4.3164062 16.853516 C 5.3847539 18.266222 7.1328933 18.826865 8.7675781 18.533203 L 8.0507812 20.683594 A 1.0001 1.0001 0 0 0 9 22 L 15 22 A 1.0001 1.0001 0 0 0 15.949219 20.683594 L 15.244141 18.568359 C 16.876314 18.864767 18.618239 18.26195 19.683594 16.853516 A 1.0001 1.0001 0 0 0 19.683594 16.851562 C 21.54483 14.383207 21.415445 10.93011 19.373047 8.609375 A 1.0001 1.0001 0 0 0 19.371094 8.6074219 C 18.826565 7.9924416 18.241427 7.383758 17.613281 6.7792969 A 1.0001 1.0001 0 0 0 17.59375 6.7617188 L 12.675781 2.2617188 A 1 1 0 0 0 12.001953 2.2910156 A 1 1 0 0 0 11.597656 2.2148438 z M 12 4.3554688 L 16.244141 8.2382812 C 16.828906 8.801889 17.370931 9.3665653 17.873047 9.9335938 C 19.294177 11.550348 19.383238 13.927187 18.087891 15.646484 C 17.217111 16.797684 15.716155 17.044073 14.603516 16.203125 A 1.0001 1.0001 0 0 0 13 17 L 13 18 A 1.0001 1.0001 0 0 0 13.050781 18.316406 L 13.611328 20 L 10.388672 20 L 10.949219 18.316406 A 1.0001 1.0001 0 0 0 11 18 L 11 17 A 1.0001 1.0001 0 0 0 9.4296875 16.179688 C 8.3268009 16.945979 6.7320518 16.730718 5.9121094 15.646484 C 4.6173188 13.927926 4.7056237 11.552259 6.125 9.9355469 L 6.1289062 9.9316406 C 6.6492359 9.345774 7.1930573 8.7795 7.7578125 8.2363281 L 7.7636719 8.2324219 L 7.765625 8.2304688 C 7.7672281 8.2284907 7.7718344 8.222681 7.7734375 8.2207031 C 9.1794084 6.9289342 10.589232 5.6420054 12 4.3554688 z " fill="currentColor"/>
</svg>
