<svg xmlns="http://www.w3.org/2000/svg" width="1em" height="1em" viewBox="0 0 24 24" fill="currentColor">
  <path d="M 18 3.0136719 A 1.0001 1.0001 0 0 0 17 4 C 17 4.5641294 16.564129 5 16 5 A 1 1 0 0 0 15 6 A 1 1 0 0 0 16 7 C 16.564129 7 17 7.4358706 17 8 A 1.0001 1.0001 0 0 0 19 8 C 19 7.4358706 19.435871 7 20 7 A 1.0001 1.0001 0 0 0 20 5 C 19.435871 5 19 4.5641294 19 4 A 1.0001 1.0001 0 0 0 18 3.0136719 z M 9 5.0136719 A 1.0001 1.0001 0 0 0 8 6 C 8 8.7732684 5.7732684 11 3 11 A 1.0001 1.0001 0 0 0 3 13 C 5.7732684 13 8 15.226732 8 18 A 1 1 0 0 0 9 19 A 1 1 0 0 0 10 18 C 10 15.226732 12.226732 13 15 13 A 1.0001 1.0001 0 0 0 15 11 C 12.226732 11 10 8.7732684 10 6 A 1.0001 1.0001 0 0 0 9 5.0136719 z M 9 9.3808594 C 9.6267683 10.483139 10.516861 11.373232 11.619141 12 C 10.516861 12.626768 9.6267683 13.516861 9 14.619141 C 8.3732317 13.516861 7.4831392 12.626768 6.3808594 12 C 7.4831392 11.373232 8.3732317 10.483139 9 9.3808594 z M 18 15.013672 A 1.0001 1.0001 0 0 0 17 16 C 17 16.564129 16.564129 17 16 17 A 1 1 0 0 0 15 18 A 1 1 0 0 0 16 19 C 16.564129 19 17 19.435871 17 20 A 1.0001 1.0001 0 0 0 19 20 C 19 19.435871 19.435871 19 20 19 A 1.0001 1.0001 0 0 0 20 17 C 19.435871 17 19 16.564129 19 16 A 1.0001 1.0001 0 0 0 18 15.013672 z " fill="currentColor"/>
</svg>
