<svg xmlns="http://www.w3.org/2000/svg" width="1em" height="1em" viewBox="0 0 24 24" fill="currentColor">
  <path d="M 11.910156 1.9667969 C 11.51734 1.9713867 11.12125 2.0005535 10.722656 2.0546875 C 9.6597401 2.1990447 8.5818228 2.5256081 7.5195312 3.0585938 A 1 1 0 0 0 7.0742188 4.4003906 A 1 1 0 0 0 8.4160156 4.8457031 C 11.906074 3.0946291 15.390097 4.0712866 17.658203 6.3378906 C 19.069979 7.7487321 19.982991 9.630922 20.048828 11.693359 A 1 1 0 0 0 20 12 C 20 12.01023 19.98542 12.147675 19.638672 12.410156 C 19.291926 12.672638 18.676433 12.975738 17.880859 13.226562 A 1 1 0 0 0 17.228516 14.480469 A 1 1 0 0 0 18.482422 15.132812 C 18.851178 15.016553 19.198505 14.890453 19.521484 14.751953 C 19.416584 15.027394 19.294562 15.303952 19.15625 15.580078 A 1 1 0 0 0 19.603516 16.921875 A 1 1 0 0 0 20.945312 16.474609 C 23.074441 12.224032 21.880326 7.7300297 19.072266 4.9238281 C 17.229475 3.0822584 14.659873 1.9346679 11.910156 1.9667969 z M 3 2 A 1 1 0 0 0 2.2929688 2.2929688 A 1 1 0 0 0 2.2929688 3.7070312 L 4.2558594 5.6699219 C 2.775627 7.4775827 2.0251838 9.6882637 2.0039062 11.904297 A 1 1 0 0 0 2 12 C 2 12.048413 2.0024977 12.097206 2.0058594 12.144531 C 2.0412286 14.661721 3.0168325 17.166928 4.9335938 19.080078 C 8.5936995 22.733289 14.410259 22.953695 18.330078 19.744141 L 20.292969 21.707031 A 1 1 0 0 0 21.707031 21.707031 A 1 1 0 0 0 21.707031 20.292969 L 19.144531 17.730469 A 1 1 0 0 0 19.074219 17.652344 A 1 1 0 0 0 18.998047 17.583984 L 3.7070312 2.2929688 A 1 1 0 0 0 3 2 z M 5.6796875 7.09375 L 12.580078 13.994141 C 12.388609 13.998381 12.194816 14 12 14 C 9.6050738 14 7.4371211 13.666502 5.953125 13.171875 C 5.2111269 12.924561 4.6425339 12.632113 4.3261719 12.382812 C 4.0098099 12.13351 4 12.008899 4 12 A 1 1 0 0 0 3.9921875 11.876953 C 4.0187489 10.185527 4.5817896 8.5010172 5.6796875 7.09375 z M 4.4785156 14.753906 C 4.7432764 14.867409 5.0246072 14.971751 5.3203125 15.070312 C 7.0938164 15.661435 9.4249262 16 12 16 C 12.855854 16 13.684072 15.960499 14.474609 15.888672 L 16.90625 18.320312 C 13.765619 20.771182 9.2405229 20.553397 6.3457031 17.664062 C 5.4906737 16.810609 4.8677598 15.815111 4.4785156 14.753906 z " fill="currentColor"/>
</svg>
