<svg xmlns="http://www.w3.org/2000/svg" width="1em" height="1em" viewBox="0 0 24 24" fill="currentColor">
  <path d="M 8 3 C 5.8027056 3 4 4.8027056 4 7 L 4 10 L 3 10 A 1 1 0 0 0 2 11 A 1 1 0 0 0 3 12 L 21 12 A 1 1 0 0 0 22 11 A 1 1 0 0 0 21 10 L 20 10 L 20 7 C 20 4.8027056 18.197294 3 16 3 L 8 3 z M 8 5 L 16 5 C 17.116414 5 18 5.8835859 18 7 L 18 10 L 6 10 L 6 7 C 6 5.8835859 6.8835859 5 8 5 z M 7 13 C 6.0277779 13 5.0421194 13.318681 4.2734375 14.001953 C 3.5047556 14.685226 3 15.75 3 17 C 3 18.25 3.5047556 19.314774 4.2734375 19.998047 C 5.0421194 20.681319 6.0277779 21 7 21 C 7.9722221 21 8.9578806 20.681319 9.7265625 19.998047 C 10.280495 19.505662 10.697025 18.815163 10.886719 18 L 13.113281 18 C 13.302975 18.815163 13.719505 19.505662 14.273438 19.998047 C 15.042118 20.681319 16.027778 21 17 21 C 17.972222 21 18.957881 20.681319 19.726562 19.998047 C 20.495244 19.314774 21 18.25 21 17 C 21 15.75 20.495244 14.685226 19.726562 14.001953 C 18.957881 13.318681 17.972222 13 17 13 C 16.027778 13 15.042119 13.318681 14.273438 14.001953 C 13.719505 14.494338 13.302975 15.184837 13.113281 16 L 10.886719 16 C 10.697025 15.184837 10.280495 14.494338 9.7265625 14.001953 C 8.9578806 13.318681 7.9722221 13 7 13 z M 7 15 C 7.5277779 15 8.0421194 15.18132 8.3984375 15.498047 C 8.7547556 15.814774 9 16.250001 9 17 C 9 17.749999 8.7547556 18.185226 8.3984375 18.501953 C 8.0421194 18.81868 7.5277779 19 7 19 C 6.4722221 19 5.9578806 18.81868 5.6015625 18.501953 C 5.2452444 18.185226 5 17.749999 5 17 C 5 16.250001 5.2452444 15.814774 5.6015625 15.498047 C 5.9578806 15.18132 6.4722221 15 7 15 z M 17 15 C 17.527778 15 18.042119 15.18132 18.398438 15.498047 C 18.754756 15.814774 19 16.250001 19 17 C 19 17.749999 18.754756 18.185226 18.398438 18.501953 C 18.042119 18.81868 17.527778 19 17 19 C 16.472222 19 15.957881 18.81868 15.601562 18.501953 C 15.245245 18.185227 15.000002 17.749994 15 17 C 15 16.250001 15.245244 15.814774 15.601562 15.498047 C 15.95788 15.18132 16.472222 15 17 15 z " fill="currentColor"/>
</svg>
