<svg xmlns="http://www.w3.org/2000/svg" width="1em" height="1em" viewBox="0 0 24 24" fill="currentColor">
  <path d="M 12 2 C 8.3166667 2 5.7580197 2.4294803 4.09375 4.09375 C 2.4294803 5.7580197 2 8.3166667 2 12 C 2 15.683333 2.4294803 18.24198 4.09375 19.90625 C 5.7580197 21.57052 8.3166667 22 12 22 C 12.184 22 12.371016 22.00044 12.5625 21.996094 A 1 1 0 0 0 13.539062 20.972656 A 1 1 0 0 0 12.517578 19.996094 C 12.357062 19.999736 12.184 20 12 20 C 8.4833333 20 6.5435428 19.527918 5.5078125 18.492188 C 4.4720822 17.456457 4 15.516667 4 12 C 4 8.4833333 4.4720822 6.5435428 5.5078125 5.5078125 C 6.5435428 4.4720822 8.4833333 4 12 4 C 15.516667 4 17.456457 4.4720822 18.492188 5.5078125 C 19.527918 6.5435428 20 8.4833333 20 12 C 20 12.181396 19.998994 12.35702 19.996094 12.527344 A 1 1 0 0 0 20.978516 13.542969 A 1 1 0 0 0 21.996094 12.560547 C 21.999217 12.37487 22 12.188604 22 12 C 22 8.3166667 21.57052 5.7580197 19.90625 4.09375 C 18.24198 2.4294803 15.683333 2 12 2 z M 19 15 A 1 1 0 0 0 18 16 L 18 18 L 16 18 A 1 1 0 0 0 15 19 A 1 1 0 0 0 16 20 L 18 20 L 18 22 A 1 1 0 0 0 19 23 A 1 1 0 0 0 20 22 L 20 20 L 22 20 A 1 1 0 0 0 23 19 A 1 1 0 0 0 22 18 L 20 18 L 20 16 A 1 1 0 0 0 19 15 z " fill="currentColor"/>
</svg>
