<svg xmlns="http://www.w3.org/2000/svg" width="1em" height="1em" viewBox="0 0 24 24" fill="currentColor">
  <path d="M 5 2 C 3.3549904 2 2 3.3549904 2 5 L 2 19 C 2 20.64501 3.3549904 22 5 22 L 19 22 C 20.64501 22 22 20.64501 22 19 L 22 5 C 22 3.3549904 20.64501 2 19 2 L 5 2 z M 5 4 L 19 4 C 19.564129 4 20 4.4358706 20 5 L 20 19 C 20 19.564129 19.564129 20 19 20 L 5 20 C 4.4358706 20 4 19.564129 4 19 L 4 5 C 4 4.4358706 4.4358706 4 5 4 z M 10 7 A 1.0001 1.0001 0 0 0 9 8 L 9 12 L 9 16 A 1 1 0 0 0 10 17 A 1 1 0 0 0 11 16 L 11 13 L 12 13 C 12.916666 13 13.731441 12.620244 14.248047 12.039062 C 14.764653 11.45788 15 10.722222 15 10 C 15 9.2777779 14.764653 8.5421194 14.248047 7.9609375 C 13.731441 7.3797556 12.916666 7 12 7 L 10 7 z M 11 9 L 12 9 C 12.416666 9 12.601893 9.1202444 12.751953 9.2890625 C 12.902014 9.4578806 13 9.7222221 13 10 C 13 10.277778 12.90201 10.542119 12.751953 10.710938 C 12.601893 10.879755 12.416666 11 12 11 L 11 11 L 11 9 z " fill="currentColor"/>
</svg>
