<svg xmlns="http://www.w3.org/2000/svg" width="1em" height="1em" viewBox="0 0 24 24" fill="currentColor">
  <path d="M 12 2 C 8.3166667 2 5.7580197 2.4294803 4.09375 4.09375 C 2.4294803 5.7580197 2 8.3166667 2 12 C 2 15.683333 2.4294803 18.24198 4.09375 19.90625 C 5.7580197 21.57052 8.3166667 22 12 22 C 15.683333 22 18.24198 21.57052 19.90625 19.90625 C 21.57052 18.24198 22 15.683333 22 12 C 22 8.3166667 21.57052 5.7580197 19.90625 4.09375 C 18.24198 2.4294803 15.683333 2 12 2 z M 12 4 C 15.516667 4 17.456457 4.4720822 18.492188 5.5078125 C 19.527918 6.5435428 20 8.4833333 20 12 C 20 15.516667 19.527918 17.456457 18.492188 18.492188 C 17.456457 19.527918 15.516667 20 12 20 C 8.4833333 20 6.5435428 19.527918 5.5078125 18.492188 C 4.4720822 17.456457 4 15.516667 4 12 C 4 8.4833333 4.4720822 6.5435428 5.5078125 5.5078125 C 6.5435428 4.4720822 8.4833333 4 12 4 z M 10 7 A 1.0001 1.0001 0 0 0 9 8 L 9 16 A 1 1 0 0 0 10 17 L 12 17 C 12.916666 17 13.731441 16.620244 14.248047 16.039062 C 14.764653 15.457881 15 14.722222 15 14 C 15 13.291529 14.758021 12.575838 14.261719 12 C 14.758021 11.424162 15 10.708471 15 10 C 15 9.2777779 14.764653 8.5421194 14.248047 7.9609375 C 13.731441 7.3797556 12.916666 7 12 7 L 10 7 z M 11 9 L 12 9 C 12.416666 9 12.601893 9.1202444 12.751953 9.2890625 C 12.902014 9.4578806 13 9.7222221 13 10 C 13 10.277778 12.90201 10.542119 12.751953 10.710938 C 12.601893 10.879755 12.416666 11 12 11 L 11 11 L 11 9 z M 11 13 L 12 13 C 12.416666 13 12.601893 13.120244 12.751953 13.289062 C 12.902014 13.45788 13 13.722222 13 14 C 13 14.277778 12.90201 14.542119 12.751953 14.710938 C 12.601893 14.879755 12.416666 15 12 15 L 11 15 L 11 13 z " fill="currentColor"/>
</svg>
