<svg xmlns="http://www.w3.org/2000/svg" width="1em" height="1em" viewBox="0 0 24 24" fill="currentColor">
  <path d="M 12 2 C 8.3166667 2 5.7580197 2.4294803 4.09375 4.09375 C 2.4294803 5.7580197 2 8.3166667 2 12 C 2 15.683333 2.4294803 18.24198 4.09375 19.90625 C 5.7580197 21.57052 8.3166667 22 12 22 C 15.683333 22 18.24198 21.57052 19.90625 19.90625 C 21.57052 18.24198 22 15.683333 22 12 C 22 8.3166667 21.57052 5.7580197 19.90625 4.09375 C 18.24198 2.4294803 15.683333 2 12 2 z M 12 4 C 15.516667 4 17.456457 4.4720822 18.492188 5.5078125 C 19.527918 6.5435428 20 8.4833333 20 12 C 20 15.516667 19.527918 17.456457 18.492188 18.492188 C 17.456457 19.527918 15.516667 20 12 20 C 8.4833333 20 6.5435428 19.527918 5.5078125 18.492188 C 4.4720822 17.456457 4 15.516667 4 12 C 4 8.4833333 4.4720822 6.5435428 5.5078125 5.5078125 C 6.5435428 4.4720822 8.4833333 4 12 4 z M 12 7 C 10.35499 7 9 8.3549904 9 10 L 9 14 C 9 14.916666 9.3797556 15.731441 9.9609375 16.248047 C 10.542119 16.764653 11.277778 17 12 17 C 12.444135 17 12.893346 16.911336 13.308594 16.722656 A 1 1 0 0 0 14.707031 16.707031 A 1 1 0 0 0 14.722656 15.308594 C 14.899759 14.917352 15 14.472111 15 14 L 15 10 C 15 8.3549904 13.64501 7 12 7 z M 12 9 C 12.564129 9 13 9.4358706 13 10 L 13 14 A 1 1 0 0 0 12.292969 14.292969 A 1 1 0 0 0 12 15 C 11.722222 15 11.45788 14.902014 11.289062 14.751953 C 11.120243 14.601893 11 14.416666 11 14 L 11 10 C 11 9.4358706 11.435871 9 12 9 z " fill="currentColor"/>
</svg>
