<svg xmlns="http://www.w3.org/2000/svg" width="1em" height="1em" viewBox="0 0 24 24" fill="currentColor">
  <path d="M 5 2 C 3.3549904 2 2 3.3549904 2 5 L 2 19 C 2 20.64501 3.3549904 22 5 22 L 19 22 C 20.64501 22 22 20.64501 22 19 L 22 5 C 22 3.3549904 20.64501 2 19 2 L 5 2 z M 5 4 L 11 4 L 11 8 L 11 20 L 5 20 C 4.4358706 20 4 19.564129 4 19 L 4 5 C 4 4.4358706 4.4358706 4 5 4 z M 13 4 L 14.585938 4 L 13 5.5859375 L 13 4 z M 17 4 L 19 4 C 19.417383 4 19.76364 4.2391832 19.916016 4.5917969 A 1 1 0 0 0 18.792969 4.7929688 L 13 10.585938 L 13 8.4140625 L 16.707031 4.7070312 A 1 1 0 0 0 17 4 z M 20 6.4140625 L 20 9 A 1 1 0 0 0 19.292969 9.2929688 L 13 15.585938 L 13 13.414062 L 20 6.4140625 z M 20 11.414062 L 20 14 A 1 1 0 0 0 19.292969 14.292969 L 14.292969 19.292969 A 1 1 0 0 0 14 20 L 13 20 L 13 18.414062 L 20 11.414062 z M 20 16.414062 L 20 19 C 20 19.564129 19.564129 20 19 20 L 16.414062 20 L 20 16.414062 z " fill="currentColor"/>
</svg>
