<svg xmlns="http://www.w3.org/2000/svg" width="1em" height="1em" viewBox="0 0 24 24" fill="currentColor">
  <path d="M 5 2 C 3.3549904 2 2 3.3549904 2 5 L 2 19 C 2 20.64501 3.3549904 22 5 22 L 19 22 C 20.64501 22 22 20.64501 22 19 L 22 5 C 22 3.3549904 20.64501 2 19 2 L 5 2 z M 5 4 L 19 4 C 19.564129 4 20 4.4358706 20 5 L 20 19 C 20 19.564129 19.564129 20 19 20 L 5 20 C 4.4358706 20 4 19.564129 4 19 L 4 5 C 4 4.4358706 4.4358706 4 5 4 z M 12 7.5 A 1 1 0 0 0 11 8.5 L 11 10.130859 L 9.5546875 9.1679688 A 1 1 0 0 0 8.1679688 9.4453125 A 1 1 0 0 0 8.4453125 10.832031 L 10.197266 12 L 8.4453125 13.167969 A 1 1 0 0 0 8.1679688 14.554688 A 1 1 0 0 0 9.5546875 14.832031 L 11 13.869141 L 11 15.5 A 1 1 0 0 0 12 16.5 A 1 1 0 0 0 13 15.5 L 13 13.869141 L 14.445312 14.832031 A 1 1 0 0 0 15.832031 14.554688 A 1 1 0 0 0 15.554688 13.167969 L 13.802734 12 L 15.554688 10.832031 A 1 1 0 0 0 15.832031 9.4453125 A 1 1 0 0 0 14.445312 9.1679688 L 13 10.130859 L 13 8.5 A 1 1 0 0 0 12 7.5 z " fill="currentColor"/>
</svg>
