<svg xmlns="http://www.w3.org/2000/svg" width="1em" height="1em" viewBox="0 0 24 24" fill="currentColor">
  <path d="M 12 2 C 8.3166667 2 5.7580197 2.4294803 4.09375 4.09375 C 2.4294803 5.7580197 2 8.3166667 2 12 C 2 15.683333 2.4294803 18.24198 4.09375 19.90625 C 5.7580197 21.57052 8.3166667 22 12 22 C 15.683333 22 18.24198 21.57052 19.90625 19.90625 C 21.57052 18.24198 22 15.683333 22 12 C 22 8.3166667 21.57052 5.7580197 19.90625 4.09375 C 18.24198 2.4294803 15.683333 2 12 2 z M 12 4 C 15.516667 4 17.456457 4.4720822 18.492188 5.5078125 C 19.527918 6.5435428 20 8.4833333 20 12 C 20 15.516667 19.527918 17.456457 18.492188 18.492188 C 17.456457 19.527918 15.516667 20 12 20 C 8.4833333 20 6.5435428 19.527918 5.5078125 18.492188 C 4.4720822 17.456457 4 15.516667 4 12 C 4 8.4833333 4.4720822 6.5435428 5.5078125 5.5078125 C 6.5435428 4.4720822 8.4833333 4 12 4 z M 10 7 A 1 1 0 0 0 9 8 A 1 1 0 0 0 10 9 L 13 9 L 13 11 L 11 11 C 9.9072751 11 9 11.907275 9 13 L 9 15 C 9 16.092725 9.9072751 17 11 17 L 14 17 A 1 1 0 0 0 15 16 A 1 1 0 0 0 14 15 L 11 15 L 11 13 L 13 13 C 14.092725 13 15 12.092725 15 11 L 15 9 C 15 7.9072751 14.092725 7 13 7 L 10 7 z " fill="currentColor"/>
</svg>
