<svg xmlns="http://www.w3.org/2000/svg" width="1em" height="1em" viewBox="0 0 24 24" fill="currentColor">
  <path d="M 5 2 C 3.3549904 2 2 3.3549904 2 5 L 2 19 C 2 20.64501 3.3549904 22 5 22 L 19 22 C 20.64501 22 22 20.64501 22 19 L 22 5 C 22 3.3549904 20.64501 2 19 2 L 5 2 z M 5 4 L 19 4 C 19.564129 4 20 4.4358706 20 5 L 20 19 C 20 19.564129 19.564129 20 19 20 L 5 20 C 4.4358706 20 4 19.564129 4 19 L 4 5 C 4 4.4358706 4.4358706 4 5 4 z M 12 7 A 1.0001 1.0001 0 0 0 11.292969 7.2929688 L 9.2929688 9.2929688 A 1 1 0 0 0 9.2929688 10.707031 A 1 1 0 0 0 10.707031 10.707031 L 11 10.414062 L 11 16 A 1 1 0 0 0 12 17 A 1 1 0 0 0 13 16 L 13 8 A 1.0001 1.0001 0 0 0 12.382812 7.0761719 A 1.0001 1.0001 0 0 0 12 7 z " fill="currentColor"/>
</svg>
