<svg xmlns="http://www.w3.org/2000/svg" width="1em" height="1em" viewBox="0 0 24 24" fill="currentColor">
  <path d="M 12 2 C 8.3166667 2 5.7580197 2.4294803 4.09375 4.09375 C 2.4294803 5.7580197 2 8.3166667 2 12 C 2 15.683333 2.4294803 18.24198 4.09375 19.90625 C 5.7580197 21.57052 8.3166667 22 12 22 C 15.683333 22 18.24198 21.57052 19.90625 19.90625 C 21.57052 18.24198 22 15.683333 22 12 C 22 8.3166667 21.57052 5.7580197 19.90625 4.09375 C 18.24198 2.4294803 15.683333 2 12 2 z M 12 4 C 15.516667 4 17.456457 4.4720822 18.492188 5.5078125 C 19.527918 6.5435428 20 8.4833333 20 12 C 20 15.516667 19.527918 17.456457 18.492188 18.492188 C 17.456457 19.527918 15.516667 20 12 20 C 8.4833333 20 6.5435428 19.527918 5.5078125 18.492188 C 4.4720822 17.456457 4 15.516667 4 12 C 4 8.4833333 4.4720822 6.5435428 5.5078125 5.5078125 C 6.5435428 4.4720822 8.4833333 4 12 4 z M 12 7 A 1 1 0 0 0 11.292969 7.2929688 A 1 1 0 0 0 11.292969 8.7070312 L 13.585938 11 L 8 11 A 1 1 0 0 0 7 12 A 1 1 0 0 0 8 13 L 13.585938 13 L 11.292969 15.292969 A 1 1 0 0 0 11.292969 16.707031 A 1 1 0 0 0 12.707031 16.707031 L 16.697266 12.716797 A 1 1 0 0 0 16.707031 12.707031 A 1.0001 1.0001 0 0 0 16.785156 12.619141 A 1 1 0 0 0 16.792969 12.609375 A 1.0001 1.0001 0 0 0 16.861328 12.507812 A 1 1 0 0 0 16.865234 12.5 A 1.0001 1.0001 0 0 0 16.921875 12.388672 A 1 1 0 0 0 16.964844 12.257812 A 1.0001 1.0001 0 0 0 16.964844 11.742188 A 1 1 0 0 0 16.923828 11.617188 A 1.0001 1.0001 0 0 0 16.921875 11.611328 A 1 1 0 0 0 16.865234 11.5 A 1.0001 1.0001 0 0 0 16.861328 11.492188 A 1 1 0 0 0 16.792969 11.390625 A 1.0001 1.0001 0 0 0 16.785156 11.380859 A 1 1 0 0 0 16.707031 11.292969 L 12.707031 7.2929688 A 1 1 0 0 0 12 7 z " fill="currentColor"/>
</svg>
