<svg xmlns="http://www.w3.org/2000/svg" width="1em" height="1em" viewBox="0 0 24 24" fill="currentColor">
  <path d="M 5 2 C 3.3549904 2 2 3.3549904 2 5 L 2 19 C 2 20.64501 3.3549904 22 5 22 L 19 22 C 20.64501 22 22 20.64501 22 19 L 22 5 C 22 3.3549904 20.64501 2 19 2 L 5 2 z M 5 4 L 19 4 C 19.564129 4 20 4.4358706 20 5 L 20 19 C 20 19.564129 19.564129 20 19 20 L 5 20 C 4.4358706 20 4 19.564129 4 19 L 4 5 C 4 4.4358706 4.4358706 4 5 4 z M 8 8 A 1.0001 1.0001 0 0 0 7 9 L 7 12 L 7 15 A 1 1 0 0 0 8 16 A 1 1 0 0 0 9 15 L 9 13 L 10 13 A 1 1 0 0 0 11 12 A 1 1 0 0 0 10 11 L 9 11 L 9 10 L 10 10 A 1 1 0 0 0 11 9 A 1 1 0 0 0 10 8 L 8 8 z M 13 8 A 1 1 0 0 0 12 9 L 12 11 C 12 12.092725 12.907275 13 14 13 L 15 13 L 15 15 A 1 1 0 0 0 16 16 A 1 1 0 0 0 17 15 L 17 9 A 1 1 0 0 0 16 8 A 1 1 0 0 0 15 9 L 15 11 L 14 11 L 14 9 A 1 1 0 0 0 13 8 z " fill="currentColor"/>
</svg>
