<svg xmlns="http://www.w3.org/2000/svg" width="1em" height="1em" viewBox="0 0 24 24" fill="currentColor">
  <path d="M 12 1 A 1 1 0 0 0 11 2 L 11 3 L 6 3 C 4.3549904 3 3 4.3549904 3 6 L 3 18 C 3 19.64501 4.3549904 21 6 21 L 11 21 L 11 22 A 1 1 0 0 0 12 23 A 1 1 0 0 0 13 22 L 13 21 L 14 21 A 1 1 0 0 0 15 20 A 1 1 0 0 0 14 19 L 13 19 L 13 5 L 14 5 A 1 1 0 0 0 15 4 A 1 1 0 0 0 14 3 L 13 3 L 13 2 A 1 1 0 0 0 12 1 z M 18 3 A 1 1 0 0 0 17 4 A 1 1 0 0 0 18 5 C 18.564129 5 19 5.4358706 19 6 A 1 1 0 0 0 20 7 A 1 1 0 0 0 21 6 C 21 4.3549904 19.64501 3 18 3 z M 6 5 L 11 5 L 11 19 L 6 19 C 5.4358706 19 5 18.564129 5 18 L 5 6 C 5 5.4358706 5.4358706 5 6 5 z M 20 9 A 1 1 0 0 0 19 10 L 19 14 A 1 1 0 0 0 20 15 A 1 1 0 0 0 21 14 L 21 10 A 1 1 0 0 0 20 9 z M 20 17 A 1 1 0 0 0 19 18 C 19 18.564129 18.564129 19 18 19 A 1 1 0 0 0 17 20 A 1 1 0 0 0 18 21 C 19.64501 21 21 19.64501 21 18 A 1 1 0 0 0 20 17 z " fill="currentColor"/>
</svg>
