<svg xmlns="http://www.w3.org/2000/svg" width="1em" height="1em" viewBox="0 0 24 24" fill="currentColor">
  <path d="M 11.933594 3.0019531 A 1.0001 1.0001 0 0 0 11.552734 3.1054688 L 3.5527344 7.1054688 A 1 1 0 0 0 3.5253906 7.1875 A 1 1 0 0 0 3.1054688 7.5527344 A 1 1 0 0 0 3.1210938 8.3984375 A 1 1 0 0 0 3.1054688 8.4472656 A 1 1 0 0 0 3.3457031 8.6542969 A 1 1 0 0 0 3.5527344 8.8945312 L 5.7636719 10 L 3.5527344 11.105469 A 1.0001 1.0001 0 0 0 3.5527344 12.894531 L 5.7636719 14 L 3.5527344 15.105469 A 1.0001 1.0001 0 0 0 3.5527344 16.894531 L 11.552734 20.894531 A 1.0001 1.0001 0 0 0 12.447266 20.894531 L 20.447266 16.894531 A 1.0001 1.0001 0 0 0 20.447266 15.105469 L 18.236328 14 L 20.447266 12.894531 A 1.0001 1.0001 0 0 0 20.447266 11.105469 L 18.236328 10 L 20.447266 8.8945312 A 1.0001 1.0001 0 0 0 20.447266 7.1054688 L 12.447266 3.1054688 A 1.0001 1.0001 0 0 0 11.933594 3.0019531 z M 12 5.1171875 L 17.763672 8 L 15.578125 9.09375 A 1 1 0 0 0 15.527344 9.1191406 L 12 10.882812 L 8.4804688 9.1230469 A 1 1 0 0 0 8.4375 9.1015625 L 8.4121094 9.0878906 A 1 1 0 0 0 8.4082031 9.0859375 L 6.2363281 8 L 12 5.1171875 z M 8 11.117188 L 11.552734 12.894531 A 1.0001 1.0001 0 0 0 12.447266 12.894531 L 16 11.117188 L 17.763672 12 L 15.552734 13.105469 L 12 14.882812 L 8.4472656 13.105469 L 6.2363281 12 L 8 11.117188 z " fill="currentColor"/>
</svg>
