<svg xmlns="http://www.w3.org/2000/svg" width="1em" height="1em" viewBox="0 0 24 24" fill="currentColor">
  <path d="M 12 2.0429688 C 11.497718 2.0429688 10.99575 2.2851273 10.753906 2.7714844 A 1.0001 1.0001 0 0 0 10.751953 2.7734375 L 9.9003906 4.4960938 L 7.9980469 4.7714844 C 6.9160878 4.9213486 6.4373351 6.3872971 7.2226562 7.1464844 L 8.5996094 8.484375 L 8.2753906 10.375 A 1.0001 1.0001 0 0 0 8.2734375 10.386719 C 8.1015268 11.455046 9.3292156 12.341367 10.289062 11.841797 A 1.0001 1.0001 0 0 0 10.292969 11.839844 L 12 10.947266 L 13.703125 11.837891 C 14.665652 12.348269 15.908453 11.448329 15.724609 10.375 L 15.724609 10.373047 L 15.400391 8.484375 L 16.779297 7.1445312 A 1.0001 1.0001 0 0 0 16.78125 7.1425781 C 17.559365 6.382382 17.084585 4.9263834 16.007812 4.7714844 L 14.099609 4.4960938 L 13.248047 2.7734375 A 1.0001 1.0001 0 0 0 13.246094 2.7714844 C 13.004297 2.2851242 12.502282 2.0429688 12 2.0429688 z M 12 4.7617188 L 12.541016 5.8535156 A 1.0001 1.0001 0 0 0 13.292969 6.4003906 L 14.494141 6.5742188 L 13.628906 7.4160156 A 1.0001 1.0001 0 0 0 13.339844 8.3027344 L 13.544922 9.4960938 L 12.464844 8.9316406 A 1 1 0 0 0 12.371094 8.9238281 A 1 1 0 0 0 12 8.890625 A 1 1 0 0 0 11.628906 8.9238281 A 1 1 0 0 0 11.535156 8.9316406 L 10.455078 9.4960938 L 10.660156 8.3027344 A 1.0001 1.0001 0 0 0 10.371094 7.4160156 L 9.5058594 6.5742188 L 10.707031 6.4003906 A 1.0001 1.0001 0 0 0 11.458984 5.8535156 L 12 4.7617188 z M 6.1992188 12.042969 C 5.6969364 12.042969 5.1949685 12.285127 4.953125 12.771484 A 1.0001 1.0001 0 0 0 4.953125 12.773438 L 4.0996094 14.496094 L 2.1972656 14.771484 C 1.1153066 14.921349 0.63850698 16.387297 1.4238281 17.146484 L 2.8007812 18.484375 L 2.4746094 20.375 A 1.0001 1.0001 0 0 0 2.4726562 20.386719 C 2.3007455 21.455046 3.530388 22.341367 4.4902344 21.841797 A 1.0001 1.0001 0 0 0 4.4921875 21.839844 L 6.1992188 20.945312 L 7.9042969 21.837891 C 8.8668228 22.348314 10.107669 21.448328 9.9238281 20.375 L 9.9238281 20.373047 L 9.5996094 18.484375 L 10.978516 17.144531 A 1.0001 1.0001 0 0 0 10.980469 17.142578 C 11.758238 16.382769 11.284603 14.927618 10.208984 14.771484 L 10.207031 14.771484 L 8.3007812 14.496094 L 7.4472656 12.773438 A 1.0001 1.0001 0 0 0 7.4472656 12.771484 C 7.2054221 12.285173 6.7015011 12.042969 6.1992188 12.042969 z M 17.800781 12.042969 C 17.298499 12.042969 16.794578 12.285127 16.552734 12.771484 A 1.0001 1.0001 0 0 0 16.552734 12.773438 L 15.699219 14.496094 L 13.796875 14.771484 C 12.714916 14.921349 12.238116 16.387297 13.023438 17.146484 L 14.400391 18.484375 L 14.074219 20.375 A 1.0001 1.0001 0 0 0 14.072266 20.386719 C 13.900355 21.455046 15.129997 22.341367 16.089844 21.841797 A 1.0001 1.0001 0 0 0 16.091797 21.839844 L 17.800781 20.945312 L 19.503906 21.837891 C 20.467028 22.348584 21.709159 21.447253 21.523438 20.373047 L 21.525391 20.375 L 21.199219 18.484375 L 22.578125 17.144531 A 1.0001 1.0001 0 0 0 22.580078 17.142578 C 23.357847 16.382769 22.884212 14.927618 21.808594 14.771484 L 21.806641 14.771484 L 19.900391 14.496094 L 19.046875 12.773438 A 1.0001 1.0001 0 0 0 19.046875 12.771484 C 18.805031 12.285127 18.303064 12.042969 17.800781 12.042969 z M 6.1992188 14.761719 L 6.7402344 15.853516 A 1.0001 1.0001 0 0 0 7.4941406 16.400391 L 8.6953125 16.574219 L 7.828125 17.416016 A 1.0001 1.0001 0 0 0 7.5390625 18.302734 L 7.7441406 19.496094 L 6.6640625 18.931641 A 1 1 0 0 0 5.796875 18.951172 A 1 1 0 0 0 5.7363281 18.931641 L 4.65625 19.498047 L 4.8613281 18.302734 A 1.0001 1.0001 0 0 0 4.5722656 17.416016 L 3.7050781 16.574219 L 4.90625 16.400391 A 1.0001 1.0001 0 0 0 5.6582031 15.853516 L 6.1992188 14.761719 z M 17.800781 14.761719 L 18.341797 15.853516 A 1.0001 1.0001 0 0 0 19.09375 16.400391 L 20.294922 16.574219 L 19.427734 17.416016 A 1.0001 1.0001 0 0 0 19.138672 18.302734 L 19.34375 19.496094 L 18.263672 18.931641 A 1 1 0 0 0 17.396484 18.951172 A 1 1 0 0 0 17.335938 18.931641 L 16.255859 19.498047 L 16.460938 18.302734 A 1.0001 1.0001 0 0 0 16.171875 17.416016 L 15.304688 16.574219 L 16.505859 16.400391 A 1.0001 1.0001 0 0 0 17.259766 15.853516 L 17.800781 14.761719 z " fill="currentColor"/>
</svg>
