<svg xmlns="http://www.w3.org/2000/svg" width="1em" height="1em" viewBox="0 0 24 24" fill="currentColor">
  <path d="M 12 3 C 8.1458524 3 5 6.1458495 5 10 L 5 12 A 1 1 0 0 0 6 13 A 1 1 0 0 0 7 12 L 7 10 C 7 7.226729 9.2267307 5 12 5 C 14.627643 5 16.765237 6.999489 16.982422 9.5683594 L 15.707031 8.2929688 A 1 1 0 0 0 15 8 A 1 1 0 0 0 14.292969 8.2929688 A 1 1 0 0 0 14.292969 9.7070312 L 17.283203 12.697266 L 17.292969 12.707031 A 1.0001 1.0001 0 0 0 17.341797 12.75 A 1 1 0 0 0 17.384766 12.787109 A 1.0001 1.0001 0 0 0 17.439453 12.824219 A 1 1 0 0 0 17.617188 12.923828 A 1 1 0 0 0 17.742188 12.964844 A 1 1 0 0 0 17.794922 12.976562 A 1.0001 1.0001 0 0 0 18 13 A 1.0001 1.0001 0 0 0 18.205078 12.976562 A 1.0001 1.0001 0 0 0 18.257812 12.964844 A 1 1 0 0 0 18.382812 12.923828 A 1 1 0 0 0 18.388672 12.921875 A 1.0001 1.0001 0 0 0 18.5 12.865234 A 1 1 0 0 0 18.507812 12.861328 A 1.0001 1.0001 0 0 0 18.560547 12.824219 A 1 1 0 0 0 18.615234 12.787109 A 1.0001 1.0001 0 0 0 18.658203 12.75 A 1 1 0 0 0 18.716797 12.697266 L 21.707031 9.7070312 A 1 1 0 0 0 21.707031 8.2929688 A 1 1 0 0 0 20.292969 8.2929688 L 18.988281 9.5976562 C 18.778364 5.9294057 15.719052 3 12 3 z M 6 15 C 5.2777779 15 4.5421194 15.235347 3.9609375 15.751953 C 3.3797556 16.268559 3 17.083334 3 18 C 3 18.916666 3.3797556 19.731441 3.9609375 20.248047 C 4.5421194 20.764653 5.2777779 21 6 21 C 6.7222221 21 7.4578806 20.764653 8.0390625 20.248047 C 8.6202444 19.731441 9 18.916666 9 18 C 9 17.083334 8.6202444 16.268559 8.0390625 15.751953 C 7.4578806 15.235347 6.7222221 15 6 15 z M 18 15 C 17.277778 15 16.542119 15.235347 15.960938 15.751953 C 15.379755 16.268559 15 17.083334 15 18 C 15 18.916666 15.379756 19.731441 15.960938 20.248047 C 16.542119 20.764653 17.277778 21 18 21 C 18.722222 21 19.457881 20.764653 20.039062 20.248047 C 20.620244 19.731441 21 18.916666 21 18 C 21 17.083334 20.620244 16.268559 20.039062 15.751953 C 19.457881 15.235347 18.722222 15 18 15 z M 6 17 C 6.2777779 17 6.5421194 17.09799 6.7109375 17.248047 C 6.8797556 17.398107 7 17.583334 7 18 C 7 18.416666 6.8797556 18.601893 6.7109375 18.751953 C 6.5421194 18.902014 6.2777779 19 6 19 C 5.7222221 19 5.4578806 18.902014 5.2890625 18.751953 C 5.1202444 18.601893 5 18.416666 5 18 C 5 17.583334 5.1202444 17.398107 5.2890625 17.248047 C 5.4578806 17.097986 5.7222221 17 6 17 z M 18 17 C 18.277778 17 18.542119 17.09799 18.710938 17.248047 C 18.879756 17.398107 19 17.583334 19 18 C 19 18.416666 18.879756 18.601893 18.710938 18.751953 C 18.542119 18.902014 18.277778 19 18 19 C 17.722222 19 17.457881 18.902014 17.289062 18.751953 C 17.120244 18.601893 17 18.416666 17 18 C 17 17.583334 17.120244 17.398107 17.289062 17.248047 C 17.457881 17.097986 17.722222 17 18 17 z " fill="currentColor"/>
</svg>
