<svg xmlns="http://www.w3.org/2000/svg" width="1em" height="1em" viewBox="0 0 24 24" fill="currentColor">
  <path d="M 11.904297 1.96875 C 11.510885 1.9736009 11.114016 2.0021303 10.714844 2.0566406 C 9.6503831 2.2020015 8.5714676 2.5291129 7.5078125 3.0644531 A 1 1 0 0 0 7.0644531 4.4082031 A 1 1 0 0 0 8.40625 4.8515625 C 11.901267 3.092512 15.392074 4.0704465 17.662109 6.3417969 C 18.502572 7.1827464 19.165772 8.1911932 19.578125 9.3046875 L 15.257812 10.583984 A 1 1 0 0 0 14.583984 11.826172 A 1 1 0 0 0 15.826172 12.501953 L 20.021484 11.257812 C 20.146461 12.642201 19.891224 14.120083 19.146484 15.597656 A 1 1 0 0 0 19.589844 16.941406 A 1 1 0 0 0 20.933594 16.498047 C 23.077418 12.244667 21.886452 7.7396427 19.076172 4.9277344 C 17.231926 3.0824196 14.658177 1.9347934 11.904297 1.96875 z M 3 2 A 1 1 0 0 0 2.2929688 2.2929688 A 1 1 0 0 0 2.2929688 3.7070312 L 4.2578125 5.671875 C 1.0501987 9.5970469 1.2785586 15.416544 4.9394531 19.072266 C 6.8482681 20.978383 9.3442469 21.94988 11.851562 21.988281 A 1 1 0 0 0 12 22 A 1 1 0 0 0 12.148438 21.988281 C 14.346767 21.957459 16.5362 21.210152 18.330078 19.744141 L 20.292969 21.707031 A 1 1 0 0 0 21.707031 21.707031 A 1 1 0 0 0 21.707031 20.292969 L 19.189453 17.775391 A 1 1 0 0 0 19.080078 17.646484 A 1 1 0 0 0 18.955078 17.541016 L 14.226562 12.8125 A 1 1 0 0 0 14.128906 12.699219 A 1 1 0 0 0 14.015625 12.601562 L 11.408203 9.9941406 A 1 1 0 0 0 11.302734 9.8691406 A 1 1 0 0 0 11.175781 9.7617188 L 6.3789062 4.9648438 A 1 1 0 0 0 6.34375 4.9277344 A 1 1 0 0 0 6.3066406 4.8925781 L 3.7070312 2.2929688 A 1 1 0 0 0 3 2 z M 5.6796875 7.09375 L 9.2851562 10.699219 C 9.2785387 10.712406 9.2720347 10.726992 9.265625 10.740234 L 4.4609375 9.3164062 C 4.7403791 8.5309386 5.1463031 7.7791521 5.6796875 7.09375 z M 4.03125 11.275391 L 9.0859375 12.771484 C 9.2350355 13.287155 9.5206355 13.744857 9.8867188 14.111328 C 10.198713 14.423654 10.576301 14.677589 11 14.837891 L 11 19.9375 C 9.3036068 19.722653 7.6619837 18.962874 6.3535156 17.65625 C 4.6004395 15.905606 3.8257912 13.555821 4.03125 11.275391 z M 13.298828 14.712891 L 16.90625 18.320312 C 15.742548 19.226158 14.389448 19.765581 13 19.939453 L 13 14.84375 C 13.100934 14.806107 13.200441 14.762113 13.298828 14.712891 z " fill="currentColor"/>
</svg>
