<svg xmlns="http://www.w3.org/2000/svg" width="1em" height="1em" viewBox="0 0 24 24" fill="currentColor">
  <path d="M 12 2 A 1 1 0 0 0 11.617188 2.0761719 A 1 1 0 0 0 11.611328 2.078125 A 1 1 0 0 0 11.5 2.1347656 A 1 1 0 0 0 11.439453 2.1757812 A 1 1 0 0 0 11.384766 2.2128906 A 1 1 0 0 0 11.382812 2.2128906 A 1 1 0 0 0 11.380859 2.2148438 A 1 1 0 0 0 11.341797 2.25 A 1 1 0 0 0 11.292969 2.2929688 A 1 1 0 0 0 11.289062 2.296875 A 1 1 0 0 0 11.283203 2.3027344 L 7.2929688 6.2929688 A 1 1 0 0 0 7.2929688 7.7070312 A 1 1 0 0 0 8.7070312 7.7070312 L 11 5.4140625 L 11 15 A 1 1 0 0 0 12 16 A 1 1 0 0 0 13 15 L 13 5.4140625 L 15.292969 7.7070312 A 1 1 0 0 0 16.707031 7.7070312 A 1 1 0 0 0 16.707031 6.2929688 L 12.716797 2.3027344 A 1 1 0 0 0 12.707031 2.2929688 A 1 1 0 0 0 12.617188 2.2128906 A 1 1 0 0 0 12.615234 2.2128906 A 1 1 0 0 0 12.560547 2.1757812 A 1 1 0 0 0 12.537109 2.1601562 A 1 1 0 0 0 12.382812 2.0761719 A 1 1 0 0 0 12.371094 2.0722656 A 1 1 0 0 0 12.263672 2.0351562 A 1 1 0 0 0 12 2 z M 12 18 C 11.527778 18 11.042119 18.152014 10.648438 18.501953 C 10.254755 18.851892 10 19.416667 10 20 C 10 20.583333 10.254756 21.148108 10.648438 21.498047 C 11.042118 21.847986 11.527778 22 12 22 C 12.472222 22 12.95788 21.847986 13.351562 21.498047 C 13.745243 21.148108 14 20.583333 14 20 C 14 19.416667 13.745244 18.851892 13.351562 18.501953 C 12.95788 18.152014 12.472222 18 12 18 z " fill="currentColor"/>
</svg>
