<svg xmlns="http://www.w3.org/2000/svg" width="1em" height="1em" viewBox="0 0 24 24" fill="currentColor">
  <path d="M 10 2 A 1 1 0 0 0 9 3 A 1 1 0 0 0 10 4 L 14 4 A 1 1 0 0 0 15 3 A 1 1 0 0 0 14 2 L 10 2 z M 12 5 C 7.5935677 5 4 8.5935644 4 13 C 4 17.406436 7.5935677 21 12 21 C 16.406432 21 20 17.406436 20 13 C 20 11.155846 19.371423 9.4532188 18.316406 8.0976562 L 18.707031 7.7070312 A 1 1 0 0 0 18.707031 6.2929688 A 1 1 0 0 0 17.292969 6.2929688 L 16.902344 6.6835938 C 15.546781 5.6285766 13.844153 5 12 5 z M 12 7 C 15.325554 7 18 9.6744439 18 13 C 18 16.325556 15.325554 19 12 19 C 8.674446 19 6 16.325556 6 13 C 6 9.6744439 8.674446 7 12 7 z M 14.5 9.5 A 1 1 0 0 0 13.792969 9.7929688 L 11.292969 12.292969 A 1 1 0 0 0 11.292969 13.707031 A 1 1 0 0 0 12.707031 13.707031 L 15.207031 11.207031 A 1 1 0 0 0 15.207031 9.7929688 A 1 1 0 0 0 14.5 9.5 z " fill="currentColor"/>
</svg>
