<svg xmlns="http://www.w3.org/2000/svg" width="1em" height="1em" viewBox="0 0 24 24" fill="currentColor">
  <path d="M 6 4 C 3.8027056 4 2 5.8027056 2 8 L 2 16 C 2 18.197294 3.8027056 20 6 20 L 11.5 20 A 1 1 0 0 0 12.5 19 A 1 1 0 0 0 11.5 18 L 6 18 C 4.8835859 18 4 17.116414 4 16 L 4 8 C 4 6.8835859 4.8835859 6 6 6 L 18 6 C 19.116414 6 20 6.8835859 20 8 L 20 12 A 1 1 0 0 0 21 13 A 1 1 0 0 0 22 12 L 22 8 C 22 5.8027056 20.197294 4 18 4 L 6 4 z M 10 11 A 1 1 0 0 0 9 12 A 1 1 0 0 0 10 13 L 11 13 A 1 1 0 0 0 12 12 A 1 1 0 0 0 11 11 L 10 11 z M 14 11 A 1 1 0 0 0 13 12 A 1 1 0 0 0 14 13 L 17 13 A 1 1 0 0 0 18 12 A 1 1 0 0 0 17 11 L 14 11 z M 7 14 A 1 1 0 0 0 6 15 A 1 1 0 0 0 7 16 L 12 16 A 1 1 0 0 0 13 15 A 1 1 0 0 0 12 14 L 7 14 z M 19 14.5 A 1.0001 1.0001 0 0 0 18.027344 15.265625 C 17.696408 16.633665 16.633665 17.696408 15.265625 18.027344 A 1.0001 1.0001 0 0 0 15.265625 19.972656 C 16.633665 20.303592 17.696408 21.366335 18.027344 22.734375 A 1 1 0 0 0 18.486328 23.013672 A 1 1 0 0 0 18.765625 23.472656 A 1 1 0 0 0 19 23.330078 A 1 1 0 0 0 19.234375 23.472656 A 1 1 0 0 0 19.513672 23.013672 A 1 1 0 0 0 19.972656 22.734375 C 20.303592 21.366335 21.366335 20.303592 22.734375 19.972656 A 1.0001 1.0001 0 0 0 22.734375 18.027344 C 21.366335 17.696408 20.303592 16.633665 19.972656 15.265625 A 1.0001 1.0001 0 0 0 19 14.5 z M 19 17.466797 C 19.419514 18.093969 19.906031 18.580486 20.533203 19 C 19.906031 19.419514 19.419514 19.906031 19 20.533203 C 18.580486 19.906031 18.093969 19.419514 17.466797 19 C 18.093969 18.580486 18.580486 18.093969 19 17.466797 z " fill="currentColor"/>
</svg>
