<svg xmlns="http://www.w3.org/2000/svg" width="1em" height="1em" viewBox="0 0 24 24" fill="currentColor">
  <path d="M 6 4 C 3.8027056 4 2 5.8027056 2 8 L 2 16 C 2 18.197294 3.8027056 20 6 20 L 11.5 20 A 1 1 0 0 0 12.5 19 A 1 1 0 0 0 11.5 18 L 6 18 C 4.8835859 18 4 17.116414 4 16 L 4 8 C 4 6.8835859 4.8835859 6 6 6 L 18 6 C 19.116414 6 20 6.8835859 20 8 L 20 11 A 1 1 0 0 0 21 12 A 1 1 0 0 0 22 11 L 22 8 C 22 5.8027056 20.197294 4 18 4 L 6 4 z M 10 11 A 1 1 0 0 0 9 12 A 1 1 0 0 0 10 13 L 11 13 A 1 1 0 0 0 12 12 A 1 1 0 0 0 11 11 L 10 11 z M 14 11 A 1 1 0 0 0 13 12 A 1 1 0 0 0 14 13 L 17 13 A 1 1 0 0 0 18 12 A 1 1 0 0 0 17 11 L 14 11 z M 19.753906 13.962891 C 19.042537 14.000813 18.304213 14.314534 17.716797 14.900391 L 17.714844 14.900391 L 17.714844 14.902344 L 17.712891 14.902344 A 1 1 0 0 0 17.712891 14.904297 L 14.296875 18.289062 A 1.0001 1.0001 0 0 0 14 19 L 14 22 A 1.0001 1.0001 0 0 0 15 23 L 18 23 A 1.0001 1.0001 0 0 0 18.710938 22.703125 L 22.097656 19.287109 L 22.099609 19.283203 C 22.769159 18.61187 23.08417 17.743391 23.037109 16.943359 C 22.989969 16.142036 22.626041 15.430729 22.097656 14.902344 C 21.569271 14.373959 20.857964 14.010027 20.056641 13.962891 C 19.956637 13.957008 19.85553 13.957473 19.753906 13.962891 z M 7 14 A 1 1 0 0 0 6 15 A 1 1 0 0 0 7 16 L 12 16 A 1 1 0 0 0 13 15 A 1 1 0 0 0 12 14 L 7 14 z M 19.845703 15.957031 C 19.876968 15.956345 19.908134 15.957142 19.939453 15.958984 C 20.190005 15.973724 20.469479 16.102291 20.683594 16.316406 C 20.897709 16.530521 21.026277 16.809996 21.041016 17.060547 C 21.055756 17.311098 21.001816 17.554824 20.683594 17.873047 A 1.0001 1.0001 0 0 0 20.679688 17.876953 L 17.583984 21 L 16 21 L 16 19.416016 L 19.123047 16.320312 A 1 1 0 0 0 19.123047 16.316406 A 1 1 0 0 0 19.126953 16.316406 C 19.405398 16.037961 19.626852 15.961833 19.845703 15.957031 z " fill="currentColor"/>
</svg>
