<svg xmlns="http://www.w3.org/2000/svg" width="1em" height="1em" viewBox="0 0 24 24" fill="currentColor">
  <path d="M 3 2 A 1 1 0 0 0 2.2929688 2.2929688 A 1 1 0 0 0 2.2929688 3.7070312 L 3.4804688 4.8945312 C 2.5761102 5.6299411 2 6.7518116 2 8 L 2 16 C 2 18.197294 3.8027056 20 6 20 L 17.998047 20 C 18.182393 20.000227 18.366605 19.987956 18.548828 19.962891 L 20.292969 21.707031 A 1 1 0 0 0 21.707031 21.707031 A 1 1 0 0 0 21.707031 20.292969 L 12.716797 11.302734 A 1 1 0 0 0 12.697266 11.283203 L 3.7070312 2.2929688 A 1 1 0 0 0 3 2 z M 9 4 A 1 1 0 0 0 8 5 A 1 1 0 0 0 9 6 L 18 6 C 19.116414 6 20 6.8835859 20 8 L 20 16 C 20.000029 16.197438 19.971553 16.393149 19.914062 16.582031 A 1 1 0 0 0 20.578125 17.830078 A 1 1 0 0 0 21.826172 17.166016 C 21.941154 16.788259 22.000058 16.394868 22 16 L 22 8 C 22 5.8027056 20.197294 4 18 4 L 9 4 z M 4.9082031 6.3222656 L 9.6484375 11.0625 A 1 1 0 0 0 9 12 A 1 1 0 0 0 10 13 L 11.585938 13 L 16.585938 18 L 6 18 C 4.8835859 18 4 17.116414 4 16 L 4 8 C 4 7.2915607 4.3625337 6.6768531 4.9082031 6.3222656 z M 16 11 A 1 1 0 0 0 15 12 A 1 1 0 0 0 16 13 L 17 13 A 1 1 0 0 0 18 12 A 1 1 0 0 0 17 11 L 16 11 z M 7 14 A 1 1 0 0 0 6 15 A 1 1 0 0 0 7 16 L 12 16 A 1 1 0 0 0 13 15 A 1 1 0 0 0 12 14 L 7 14 z " fill="currentColor"/>
</svg>
