<svg xmlns="http://www.w3.org/2000/svg" width="1em" height="1em" viewBox="0 0 24 24" fill="currentColor">
  <path d="M 12 2 A 1 1 0 0 0 11 3 L 11 4 A 1 1 0 0 0 12 5 A 1 1 0 0 0 13 4 L 13 3 A 1 1 0 0 0 12 2 z M 5.5996094 4.5996094 A 1 1 0 0 0 4.8925781 4.8925781 A 1 1 0 0 0 4.8925781 6.3066406 L 5.59375 7.0078125 A 1 1 0 0 0 7.0078125 7.0078125 A 1 1 0 0 0 7.0078125 5.59375 L 6.3066406 4.8925781 A 1 1 0 0 0 5.5996094 4.5996094 z M 18.400391 4.5996094 A 1 1 0 0 0 17.693359 4.8925781 L 16.992188 5.59375 A 1 1 0 0 0 16.992188 7.0078125 A 1 1 0 0 0 18.40625 7.0078125 L 19.107422 6.3066406 A 1 1 0 0 0 19.107422 4.8925781 A 1 1 0 0 0 18.400391 4.5996094 z M 12 7 C 10.777778 7 9.5421194 7.402014 8.5859375 8.2519531 C 7.6297556 9.1018922 7 10.416667 7 12 C 7 13.583333 7.6297556 14.898108 8.5859375 15.748047 C 9.5421194 16.597986 10.777778 17 12 17 C 13.222222 17 14.45788 16.597986 15.414062 15.748047 C 16.370244 14.898108 17 13.583333 17 12 C 17 10.416667 16.370244 9.1018922 15.414062 8.2519531 C 14.45788 7.402014 13.222222 7 12 7 z M 12 9 C 12.777778 9 13.542119 9.2646532 14.085938 9.7480469 C 14.629755 10.231441 15 10.916667 15 12 C 15 13.083333 14.629756 13.768559 14.085938 14.251953 C 13.542118 14.735347 12.777778 15 12 15 C 11.222222 15 10.457881 14.735347 9.9140625 14.251953 C 9.3702444 13.768559 9 13.083333 9 12 C 9 10.916667 9.3702444 10.231441 9.9140625 9.7480469 C 10.457881 9.2646532 11.222222 9 12 9 z M 3 11 A 1 1 0 0 0 2 12 A 1 1 0 0 0 3 13 L 4 13 A 1 1 0 0 0 5 12 A 1 1 0 0 0 4 11 L 3 11 z M 20 11 A 1 1 0 0 0 19 12 A 1 1 0 0 0 20 13 L 21 13 A 1 1 0 0 0 22 12 A 1 1 0 0 0 21 11 L 20 11 z M 6.3007812 16.699219 A 1 1 0 0 0 5.59375 16.992188 L 4.8925781 17.693359 A 1 1 0 0 0 4.8925781 19.107422 A 1 1 0 0 0 6.3066406 19.107422 L 7.0078125 18.40625 A 1 1 0 0 0 7.0078125 16.992188 A 1 1 0 0 0 6.3007812 16.699219 z M 17.699219 16.699219 A 1 1 0 0 0 16.992188 16.992188 A 1 1 0 0 0 16.992188 18.40625 L 17.693359 19.107422 A 1 1 0 0 0 19.107422 19.107422 A 1 1 0 0 0 19.107422 17.693359 L 18.40625 16.992188 A 1 1 0 0 0 17.699219 16.699219 z M 12 19 A 1 1 0 0 0 11 20 L 11 21 A 1 1 0 0 0 12 22 A 1 1 0 0 0 13 21 L 13 20 A 1 1 0 0 0 12 19 z " fill="currentColor"/>
</svg>
