<svg xmlns="http://www.w3.org/2000/svg" width="1em" height="1em" viewBox="0 0 24 24" fill="currentColor">
  <path d="M 12 2 A 1 1 0 0 0 11 3 L 11 6.5859375 L 9.7070312 5.2929688 A 1 1 0 0 0 8.2929688 5.2929688 A 1 1 0 0 0 8.2929688 6.7070312 L 11.292969 9.7070312 A 1 1 0 0 0 11.541016 9.8105469 A 1.0001 1.0001 0 0 0 11.751953 9.8964844 A 1 1 0 0 0 12.707031 9.7070312 L 15.707031 6.7070312 A 1 1 0 0 0 15.707031 5.2929688 A 1 1 0 0 0 14.292969 5.2929688 L 13 6.5859375 L 13 3 A 1 1 0 0 0 12 2 z M 5.5996094 9.5996094 A 1 1 0 0 0 4.8925781 9.8925781 A 1 1 0 0 0 4.8925781 11.306641 L 5.59375 12.007812 A 1 1 0 0 0 7.0078125 12.007812 A 1 1 0 0 0 7.0078125 10.59375 L 6.3066406 9.8925781 A 1 1 0 0 0 5.5996094 9.5996094 z M 18.400391 9.5996094 A 1 1 0 0 0 17.693359 9.8925781 L 16.992188 10.59375 A 1 1 0 0 0 16.992188 12.007812 A 1 1 0 0 0 18.40625 12.007812 L 19.107422 11.306641 A 1 1 0 0 0 19.107422 9.8925781 A 1 1 0 0 0 18.400391 9.5996094 z M 12 12 C 10.777778 12 9.5421194 12.402014 8.5859375 13.251953 C 7.6297556 14.101892 7 15.416667 7 17 A 1 1 0 0 0 8 18 A 1 1 0 0 0 9 17 C 9 15.916667 9.3702444 15.231441 9.9140625 14.748047 C 10.457881 14.264653 11.222222 14 12 14 C 12.777778 14 13.542119 14.264653 14.085938 14.748047 C 14.629755 15.231441 15 15.916667 15 17 A 1 1 0 0 0 16 18 A 1 1 0 0 0 17 17 C 17 15.416667 16.370244 14.101892 15.414062 13.251953 C 14.45788 12.402014 13.222222 12 12 12 z M 3 16 A 1 1 0 0 0 2 17 A 1 1 0 0 0 3 18 L 4 18 A 1 1 0 0 0 5 17 A 1 1 0 0 0 4 16 L 3 16 z M 20 16 A 1 1 0 0 0 19 17 A 1 1 0 0 0 20 18 L 21 18 A 1 1 0 0 0 22 17 A 1 1 0 0 0 21 16 L 20 16 z M 3 20 A 1 1 0 0 0 2 21 A 1 1 0 0 0 3 22 L 21 22 A 1 1 0 0 0 22 21 A 1 1 0 0 0 21 20 L 3 20 z " fill="currentColor"/>
</svg>
