<svg xmlns="http://www.w3.org/2000/svg" width="1em" height="1em" viewBox="0 0 24 24" fill="currentColor">
  <path d="M 4 7 C 2.9072751 7 2 7.9072751 2 9 L 2 11 C 2 12.092725 2.9072751 13 4 13 L 6 13 L 6 15 L 3 15 A 1 1 0 0 0 2 16 A 1 1 0 0 0 3 17 L 6 17 C 7.0927249 17 8 16.092725 8 15 L 8 13 C 8 11.907275 7.0927249 11 6 11 L 4 11 L 4 9 L 7 9 A 1 1 0 0 0 8 8 A 1 1 0 0 0 7 7 L 4 7 z M 19 7 C 17.35499 7 16 8.3549904 16 10 L 16 14 C 16 15.64501 17.35499 17 19 17 L 21 17 A 1.0001 1.0001 0 0 0 22 16 L 22 12 A 1.0001 1.0001 0 0 0 21 11 L 20 11 A 1 1 0 0 0 19 12 A 1 1 0 0 0 20 13 L 20 15 L 19 15 C 18.435871 15 18 14.564129 18 14 L 18 10 C 18 9.4358706 18.435871 9 19 9 L 21 9 A 1 1 0 0 0 22 8 A 1 1 0 0 0 21 7 L 19 7 z M 9.9453125 7.0019531 A 1 1 0 0 0 9.8164062 7.0175781 A 1 1 0 0 0 9.0175781 8.1835938 L 10.517578 16.183594 A 1.0001 1.0001 0 0 0 11.5 17 L 12.5 17 A 1.0001 1.0001 0 0 0 13.482422 16.183594 L 14.982422 8.1835938 A 1 1 0 0 0 14.183594 7.0175781 A 1 1 0 0 0 13.017578 7.8164062 L 12 13.240234 L 10.982422 7.8164062 A 1 1 0 0 0 9.9453125 7.0019531 z " fill="currentColor"/>
</svg>
