<svg xmlns="http://www.w3.org/2000/svg" width="1em" height="1em" viewBox="0 0 24 24" fill="currentColor">
  <path d="M 16 7 C 15.527778 7 15.042119 7.1520138 14.648438 7.5019531 C 14.254755 7.8518924 14 8.4166667 14 9 C 14 9.5833333 14.254756 10.148108 14.648438 10.498047 C 15.042118 10.847986 15.527778 11 16 11 C 16.472222 11 16.957881 10.847986 17.351562 10.498047 C 17.745244 10.148108 18 9.5833333 18 9 C 18 8.4166667 17.745244 7.8518924 17.351562 7.5019531 C 16.957881 7.1520138 16.472222 7 16 7 z M 9.9277344 8.0019531 A 1.0001 1.0001 0 0 0 9.5527344 8.1054688 L 5.5527344 10.105469 A 1 1 0 0 0 5.1054688 11.447266 A 1 1 0 0 0 6.4472656 11.894531 L 9.8535156 10.191406 L 12.138672 12.150391 L 11.199219 13.400391 A 1 1 0 0 0 11.400391 14.800781 A 1 1 0 0 0 12.800781 14.599609 L 14.300781 12.599609 A 1.0001 1.0001 0 0 0 14.150391 11.240234 L 10.650391 8.2402344 A 1.0001 1.0001 0 0 0 9.9277344 8.0019531 z M 8 14.003906 C 6.8891772 13.987976 5.8358331 14.512762 5.1875 15.416016 C 4.9183857 15.790944 4.4847371 16.006802 4.0234375 15.998047 C 3.822858 15.991447 3.6250588 15.944837 3.4453125 15.855469 A 1 1 0 0 0 2.1054688 16.304688 A 1 1 0 0 0 2.5546875 17.644531 C 2.9956676 17.863789 3.478423 17.985943 3.9707031 18 A 1.0001 1.0001 0 0 0 3.9785156 18 C 5.0976013 18.023442 6.1598038 17.493316 6.8125 16.583984 C 7.0821563 16.208301 7.5161752 15.990315 7.9785156 16 A 1.0001 1.0001 0 0 0 8.0214844 16 C 8.4838248 15.9903 8.9178437 16.208301 9.1875 16.583984 C 9.8358331 17.487238 10.889177 18.012027 12 17.996094 C 13.110823 18.012024 14.164167 17.487238 14.8125 16.583984 C 15.082156 16.208301 15.516175 15.990315 15.978516 16 A 1.0001 1.0001 0 0 0 16.021484 16 C 16.483825 15.9903 16.917844 16.208301 17.1875 16.583984 C 17.840196 17.493316 18.902401 18.023442 20.021484 18 A 1.0001 1.0001 0 0 0 20.029297 18 C 20.521577 17.98594 21.004332 17.863789 21.445312 17.644531 A 1 1 0 0 0 21.894531 16.304688 A 1 1 0 0 0 20.554688 15.855469 C 20.374941 15.944839 20.177142 15.991427 19.976562 15.998047 C 19.515263 16.006847 19.081614 15.790944 18.8125 15.416016 C 18.164178 14.512762 17.110823 13.987973 16 14.003906 C 14.889177 13.987973 13.835833 14.512762 13.1875 15.416016 C 12.917844 15.791699 12.483825 16.009685 12.021484 16 A 1.0001 1.0001 0 0 0 11.978516 16 C 11.516177 16.009685 11.082156 15.791699 10.8125 15.416016 C 10.164167 14.512762 9.1108228 13.987973 8 14.003906 z " fill="currentColor"/>
</svg>
