<svg xmlns="http://www.w3.org/2000/svg" width="1em" height="1em" viewBox="0 0 24 24" fill="currentColor">
  <path d="M 12 3 C 10.416667 3 9.1018922 3.6297556 8.2519531 4.5859375 C 7.402014 5.5421194 7 6.7777779 7 8 C 7 9.2222221 7.402014 10.457881 8.2519531 11.414062 C 8.9156675 12.160741 9.8628382 12.707982 11 12.912109 L 11 17.585938 L 9.7070312 16.292969 A 1 1 0 0 0 9 16 A 1 1 0 0 0 8.2929688 16.292969 A 1 1 0 0 0 8.2929688 17.707031 L 11.283203 20.697266 L 11.292969 20.707031 A 1.0001 1.0001 0 0 0 11.341797 20.75 A 1 1 0 0 0 11.384766 20.787109 A 1.0001 1.0001 0 0 0 11.439453 20.824219 A 1 1 0 0 0 11.492188 20.861328 A 1.0001 1.0001 0 0 0 11.5 20.865234 A 1 1 0 0 0 11.611328 20.921875 A 1.0001 1.0001 0 0 0 11.617188 20.923828 A 1 1 0 0 0 11.742188 20.964844 A 1 1 0 0 0 11.794922 20.976562 A 1.0001 1.0001 0 0 0 12 21 A 1.0001 1.0001 0 0 0 12.205078 20.976562 A 1.0001 1.0001 0 0 0 12.257812 20.964844 A 1 1 0 0 0 12.382812 20.923828 A 1.0001 1.0001 0 0 0 12.560547 20.824219 A 1 1 0 0 0 12.615234 20.787109 A 1.0001 1.0001 0 0 0 12.658203 20.75 A 1 1 0 0 0 12.716797 20.697266 L 15.707031 17.707031 A 1 1 0 0 0 15.707031 16.292969 A 1 1 0 0 0 14.292969 16.292969 L 13 17.585938 L 13 12.912109 C 14.137162 12.707982 15.084333 12.160741 15.748047 11.414062 C 16.597986 10.45788 17 9.2222221 17 8 C 17 6.7777779 16.597986 5.5421194 15.748047 4.5859375 C 14.898108 3.6297556 13.583333 3 12 3 z M 12 5 C 13.083333 5 13.768559 5.3702444 14.251953 5.9140625 C 14.735347 6.4578806 15 7.2222221 15 8 C 15 8.7777779 14.735347 9.5421189 14.251953 10.085938 C 13.768559 10.629755 13.083333 11 12 11 C 10.916667 11 10.231441 10.629756 9.7480469 10.085938 C 9.2646532 9.5421189 9 8.7777779 9 8 C 9 7.2222221 9.2646532 6.4578806 9.7480469 5.9140625 C 10.231441 5.3702444 10.916667 5 12 5 z " fill="currentColor"/>
</svg>
