<svg xmlns="http://www.w3.org/2000/svg" width="1em" height="1em" viewBox="0 0 24 24" fill="currentColor">
  <path d="M 15 3 A 1.0001 1.0001 0 0 0 14.210938 3.3867188 L 7.90625 11.492188 L 7.2070312 10.792969 A 1 1 0 0 0 6.5 10.5 A 1 1 0 0 0 5.7929688 10.792969 A 1 1 0 0 0 5.7929688 12.207031 L 6.5859375 13 L 3.2929688 16.292969 A 1.0001 1.0001 0 0 0 3.2929688 17.707031 L 6.2929688 20.707031 A 1.0001 1.0001 0 0 0 7.7070312 20.707031 L 11 17.414062 L 11.792969 18.207031 A 1 1 0 0 0 13.207031 18.207031 A 1 1 0 0 0 13.207031 16.792969 L 12.507812 16.09375 L 20.613281 9.7890625 A 1.0001 1.0001 0 0 0 21 9 L 21 4 A 1 1 0 0 0 20 3 L 15 3 z M 15.488281 5 L 19 5 L 19 8.5117188 L 11.083984 14.669922 L 9.3300781 12.916016 L 15.488281 5 z M 8 14.414062 L 9.5859375 16 L 7 18.585938 L 5.4140625 17 L 8 14.414062 z " fill="currentColor"/>
</svg>
