<svg xmlns="http://www.w3.org/2000/svg" width="1em" height="1em" viewBox="0 0 24 24" fill="currentColor">
  <path d="M 5 2 C 3.3549904 2 2 3.3549904 2 5 L 2 19 C 2 20.64501 3.3549904 22 5 22 L 12 22 A 1 1 0 0 0 13 21 A 1 1 0 0 0 12 20 L 11 20 L 11 11 L 20 11 L 20 13 A 1 1 0 0 0 21 14 A 1 1 0 0 0 22 13 L 22 5 C 22 3.3549904 20.64501 2 19 2 L 5 2 z M 5 4 L 9 4 L 9 9 L 4 9 L 4 5 C 4 4.4358706 4.4358706 4 5 4 z M 11 4 L 19 4 C 19.564129 4 20 4.4358706 20 5 L 20 9 L 11 9 L 11 4 z M 4 11 L 9 11 L 9 20 L 5 20 C 4.4358706 20 4 19.564129 4 19 L 4 11 z M 19 15 A 1.0001 1.0001 0 0 0 18.794922 15.023438 A 1 1 0 0 0 18.742188 15.035156 A 1 1 0 0 0 18.617188 15.076172 A 1 1 0 0 0 18.611328 15.078125 A 1.0001 1.0001 0 0 0 18.5 15.134766 A 1 1 0 0 0 18.439453 15.175781 A 1.0001 1.0001 0 0 0 18.384766 15.212891 A 1 1 0 0 0 18.341797 15.25 A 1.0001 1.0001 0 0 0 18.292969 15.292969 A 1 1 0 0 0 18.283203 15.302734 L 15.292969 18.292969 A 1 1 0 0 0 15.292969 19.707031 A 1 1 0 0 0 16.707031 19.707031 L 18 18.414062 L 18 22 A 1 1 0 0 0 19 23 A 1 1 0 0 0 20 22 L 20 18.414062 L 21.292969 19.707031 A 1 1 0 0 0 22.707031 19.707031 A 1 1 0 0 0 22.707031 18.292969 L 19.716797 15.302734 A 1 1 0 0 0 19.658203 15.25 A 1.0001 1.0001 0 0 0 19.615234 15.212891 A 1 1 0 0 0 19.560547 15.175781 A 1.0001 1.0001 0 0 0 19.382812 15.076172 A 1 1 0 0 0 19.257812 15.035156 A 1.0001 1.0001 0 0 0 19.205078 15.023438 A 1.0001 1.0001 0 0 0 19 15 z " fill="currentColor"/>
</svg>
