<svg xmlns="http://www.w3.org/2000/svg" width="1em" height="1em" viewBox="0 0 24 24" fill="currentColor">
  <path d="M 3 2 A 1 1 0 0 0 2.2929688 2.2929688 A 1 1 0 0 0 2.2929688 3.7070312 L 2.5546875 3.96875 C 2.1942355 4.5796081 1.9991499 5.2807336 2 6.0019531 L 2 11.171875 C 2.0001698 11.967075 2.3165296 12.730762 2.8789062 13.292969 L 10.589844 21.003906 C 11.913118 22.326983 14.086882 22.326983 15.410156 21.003906 L 17.5 18.914062 L 20.292969 21.707031 A 1 1 0 0 0 21.707031 21.707031 A 1 1 0 0 0 21.707031 20.292969 L 18.207031 16.792969 L 7.8789062 6.4648438 A 1 1 0 0 0 7.8671875 6.4492188 A 1 1 0 0 0 7.7988281 6.3847656 L 4.6601562 3.2460938 A 1 1 0 0 0 4.5917969 3.1699219 A 1 1 0 0 0 4.5117188 3.0976562 L 3.7070312 2.2929688 A 1 1 0 0 0 3 2 z M 7 2 A 1 1 0 0 0 6 3 A 1 1 0 0 0 7 4 L 11.173828 4 C 11.437679 4.0006797 11.689931 4.1068489 11.876953 4.2929688 L 19.587891 12.001953 C 20.147618 12.561107 20.147618 13.438893 19.587891 13.998047 L 18.798828 14.787109 A 1 1 0 0 0 18.798828 16.201172 A 1 1 0 0 0 20.212891 16.201172 L 21.001953 15.412109 C 22.326882 14.088537 22.326882 11.911463 21.001953 10.587891 L 13.292969 2.8769531 A 1.0001 1.0001 0 0 0 13.291016 2.8769531 C 12.729344 2.3158588 11.967777 2.0005666 11.173828 2 L 7 2 z M 4.0683594 5.4824219 L 6.0058594 7.4199219 C 5.992156 7.6462025 6.0278594 7.8715166 6.109375 8.0703125 C 6.3200029 8.5839805 6.87448 9.0012599 7.5039062 8.9980469 C 7.5299275 8.997972 7.5561607 8.9975016 7.5820312 8.9960938 L 16.085938 17.5 L 13.996094 19.587891 C 13.437099 20.146801 12.562901 20.146801 12.003906 19.587891 L 4.2929688 11.878906 C 4.1051478 11.691142 4.0000567 11.437454 4 11.171875 L 4 6 A 1.0001 1.0001 0 0 0 4 5.9980469 C 3.9997925 5.8220185 4.0236992 5.6493581 4.0683594 5.4824219 z " fill="currentColor"/>
</svg>
