<svg xmlns="http://www.w3.org/2000/svg" width="1em" height="1em" viewBox="0 0 24 24" fill="currentColor">
  <path d="M 3 2 A 1 1 0 0 0 2.2929688 2.2929688 A 1 1 0 0 0 2.2929688 3.7070312 L 6.640625 8.0546875 L 3.5410156 9.9160156 A 1.0001 1.0001 0 0 0 3.5390625 9.9179688 C 2.07468 10.799471 1.5647186 12.71911 2.4355469 14.189453 L 2.5976562 14.466797 A 1.0001 1.0001 0 0 0 2.5996094 14.46875 C 3.369819 15.772182 4.9812113 16.327686 6.40625 15.810547 L 11 14.146484 L 11 15.53125 L 5.359375 20.232422 A 1 1 0 0 0 5.2324219 21.640625 A 1 1 0 0 0 6.640625 21.767578 L 11 18.134766 L 11 21 A 1 1 0 0 0 12 22 A 1 1 0 0 0 13 21 L 13 18.134766 L 17.359375 21.767578 A 1 1 0 0 0 18.767578 21.640625 A 1 1 0 0 0 18.640625 20.232422 L 13 15.53125 L 13 14.414062 L 20.292969 21.707031 A 1 1 0 0 0 21.707031 21.707031 A 1 1 0 0 0 21.707031 20.292969 L 3.7070312 2.2929688 A 1 1 0 0 0 3 2 z M 17.308594 2.0039062 C 16.979601 2.002762 16.647063 2.0790261 16.339844 2.2402344 A 1.0001 1.0001 0 0 0 16.308594 2.2558594 L 16.251953 2.2890625 A 1.0001 1.0001 0 0 0 16.234375 2.2988281 L 10.21875 5.9101562 A 1 1 0 0 0 9.875 7.28125 A 1 1 0 0 0 11.248047 7.625 L 13.542969 6.2480469 L 15.75 10.294922 L 15.087891 10.535156 A 1 1 0 0 0 14.488281 11.816406 A 1 1 0 0 0 15.769531 12.414062 L 20.632812 10.650391 C 21.795787 10.248597 22.33705 8.8548021 21.75 7.7734375 A 1.0001 1.0001 0 0 0 21.746094 7.7636719 L 19.125 3.0585938 A 1.0001 1.0001 0 0 0 19.119141 3.0449219 C 18.842118 2.5638938 18.393018 2.233713 17.890625 2.0878906 C 17.702228 2.0332072 17.50599 2.0045928 17.308594 2.0039062 z M 17.314453 3.9960938 C 17.342965 3.9946057 17.365452 4.0113877 17.384766 4.0449219 L 17.378906 4.03125 L 19.992188 8.7265625 C 19.996182 8.7339235 20.001782 8.7405023 20.003906 8.7441406 C 20.004292 8.7448844 20.003678 8.7474423 20.003906 8.7480469 L 20.003906 8.75 L 20.003906 8.7519531 L 20.001953 8.7519531 L 20 8.7539062 L 19.998047 8.7539062 C 19.994215 8.7552315 19.988386 8.7570306 19.980469 8.7597656 A 1.0001 1.0001 0 0 0 19.966797 8.765625 L 17.650391 9.6054688 L 15.257812 5.21875 L 17.253906 4.0195312 L 17.269531 4.0097656 L 17.271484 4.0097656 C 17.286928 4.0019472 17.301493 3.9967701 17.314453 3.9960938 z M 8.0996094 9.5136719 L 10.708984 12.123047 L 5.7246094 13.929688 C 5.187648 14.124548 4.5901029 13.90774 4.3203125 13.451172 L 4.15625 13.171875 A 1.0001 1.0001 0 0 0 4.15625 13.169922 C 3.8330783 12.624312 3.9946919 11.97736 4.5703125 11.630859 L 8.0996094 9.5136719 z " fill="currentColor"/>
</svg>
