<svg xmlns="http://www.w3.org/2000/svg" width="1em" height="1em" viewBox="0 0 24 24" fill="currentColor">
  <path d="M 10 2 C 9.2777779 2 8.5421194 2.2353472 7.9609375 2.7519531 C 7.3797556 3.268559 7 4.0833335 7 5 L 7 13.050781 C 5.286663 14.359956 4.6853319 16.450671 5.1699219 18.257812 C 5.7040197 20.249581 7.5130199 21.962891 10 21.962891 C 12.48698 21.962891 14.29598 20.249581 14.830078 18.257812 C 15.314668 16.450672 14.713337 14.359956 13 13.050781 L 13 5 C 13 4.0833335 12.620244 3.268559 12.039062 2.7519531 C 11.45788 2.2353472 10.722222 2 10 2 z M 10 4 C 10.277778 4 10.542119 4.097986 10.710938 4.2480469 C 10.879755 4.3981073 11 4.5833337 11 5 L 11 8 L 9 8 L 9 5 C 9 4.5833337 9.1202444 4.3981073 9.2890625 4.2480469 C 9.4578806 4.0979864 9.7222221 4 10 4 z M 16 8 A 1 1 0 0 0 15 9 A 1 1 0 0 0 16 10 L 22 10 A 1 1 0 0 0 23 9 A 1 1 0 0 0 22 8 L 16 8 z M 9 10 L 11 10 L 11 13.5 A 1.0001 1.0001 0 0 0 11.5 14.365234 C 12.890522 15.168053 13.227792 16.511995 12.898438 17.740234 C 12.569081 18.968474 11.604367 19.962891 10 19.962891 C 8.3956327 19.962891 7.4309182 18.968474 7.1015625 17.740234 C 6.7722068 16.511995 7.1094776 15.168053 8.5 14.365234 A 1 1 0 0 0 8.9394531 13.560547 A 1 1 0 0 0 9 13.5 L 9 10 z " fill="currentColor"/>
</svg>
