<svg xmlns="http://www.w3.org/2000/svg" width="1em" height="1em" viewBox="0 0 24 24" fill="currentColor">
  <path d="M 5 3 C 3.3549904 3 2 4.3549904 2 6 L 2 18 C 2 19.64501 3.3549904 21 5 21 L 19 21 C 20.64501 21 22 19.64501 22 18 L 22 6 C 22 4.3549904 20.64501 3 19 3 L 5 3 z M 5 5 L 19 5 C 19.564129 5 20 5.4358706 20 6 L 20 18 C 20 18.564129 19.564129 19 19 19 L 5 19 C 4.4358706 19 4 18.564129 4 18 L 4 6 C 4 5.4358706 4.4358706 5 5 5 z M 8 8 A 1 1 0 0 0 7.2929688 8.2929688 A 1 1 0 0 0 7.2929688 9.7070312 L 9.5859375 12 L 7.2929688 14.292969 A 1 1 0 0 0 7.2929688 15.707031 A 1 1 0 0 0 8.7070312 15.707031 L 11.707031 12.707031 A 1.0001 1.0001 0 0 0 11.707031 11.292969 L 8.7070312 8.2929688 A 1 1 0 0 0 8 8 z M 13 14 A 1 1 0 0 0 12 15 A 1 1 0 0 0 13 16 L 16 16 A 1 1 0 0 0 17 15 A 1 1 0 0 0 16 14 L 13 14 z " fill="currentColor"/>
</svg>
