<svg xmlns="http://www.w3.org/2000/svg" width="1em" height="1em" viewBox="0 0 24 24" fill="currentColor">
  <path d="M 5 3 C 3.9072751 3 3 3.9072751 3 5 L 3 9 C 3 10.092725 3.9072751 11 5 11 L 9 11 C 10.092725 11 11 10.092725 11 9 L 11 5 C 11 3.9072751 10.092725 3 9 3 L 5 3 z M 5 5 L 9 5 L 9 9 L 5 9 L 5 5 z M 4 14 A 1 1 0 0 0 3 15 A 1 1 0 0 0 4 16 L 20 16 A 1 1 0 0 0 21 15 A 1 1 0 0 0 20 14 L 4 14 z M 4 19 A 1 1 0 0 0 3 20 A 1 1 0 0 0 4 21 L 16 21 A 1 1 0 0 0 17 20 A 1 1 0 0 0 16 19 L 4 19 z " fill="currentColor"/>
</svg>
