<svg xmlns="http://www.w3.org/2000/svg" width="1em" height="1em" viewBox="0 0 24 24" fill="currentColor">
  <path d="M 3 4 A 1.0001 1.0001 0 0 0 2 5 L 2 7 A 1 1 0 0 0 3 8 A 1 1 0 0 0 4 7 L 4 6 L 9 6 L 9 18 L 8 18 A 1 1 0 0 0 7 19 A 1 1 0 0 0 8 20 L 12 20 A 1 1 0 0 0 13 19 A 1 1 0 0 0 12 18 L 11 18 L 11 6 L 15 6 L 15 7 A 1 1 0 0 0 16 8 A 1 1 0 0 0 17 7 L 17 5 A 1.0001 1.0001 0 0 0 16 4 L 3 4 z M 15 11 A 1.0001 1.0001 0 0 0 14 12 L 14 13 A 1 1 0 0 0 15 14 A 1 1 0 0 0 16 13 L 17 13 L 17 18 A 1 1 0 0 0 16 19 A 1 1 0 0 0 17 20 L 18 20 L 19 20 A 1 1 0 0 0 20 19 A 1 1 0 0 0 19 18 L 19 13 L 20 13 A 1 1 0 0 0 21 14 A 1 1 0 0 0 22 13 L 22 12 A 1.0001 1.0001 0 0 0 21 11 L 15 11 z " fill="currentColor"/>
</svg>
