<svg xmlns="http://www.w3.org/2000/svg" width="1em" height="1em" viewBox="0 0 24 24" fill="currentColor">
  <path d="M 12 4 C 11.027778 4 10.042119 4.3186806 9.2734375 5.0019531 C 8.5047556 5.6852256 8 6.7500003 8 8 L 8 15 A 1 1 0 0 0 9 16 A 1 1 0 0 0 10 15 L 10 12 L 14 12 L 14 15 A 1 1 0 0 0 15 16 A 1 1 0 0 0 16 15 L 16 8 C 16 6.7500003 15.495244 5.6852256 14.726562 5.0019531 C 13.95788 4.3186806 12.972222 4 12 4 z M 12 6 C 12.527778 6 13.042119 6.1813198 13.398438 6.4980469 C 13.754755 6.8147739 14 7.2500005 14 8 L 14 10 L 10 10 L 10 8 C 10 7.2500005 10.245244 6.8147739 10.601562 6.4980469 C 10.95788 6.1813198 11.472222 6 12 6 z M 5 18 A 1 1 0 0 0 4 19 A 1 1 0 0 0 5 20 L 19 20 A 1 1 0 0 0 20 19 A 1 1 0 0 0 19 18 L 5 18 z " fill="currentColor"/>
</svg>
