<svg xmlns="http://www.w3.org/2000/svg" width="1em" height="1em" viewBox="0 0 24 24" fill="currentColor">
  <path d="M 7 3 C 6.0277779 3 5.0421194 3.3186806 4.2734375 4.0019531 C 3.5047556 4.6852256 3 5.7500003 3 7 L 3 12 A 1 1 0 0 0 4 13 A 1 1 0 0 0 5 12 L 5 10 L 9 10 L 9 12 A 1 1 0 0 0 10 13 A 1 1 0 0 0 11 12 L 11 7 C 11 5.7500003 10.495244 4.6852256 9.7265625 4.0019531 C 8.9578806 3.3186806 7.9722221 3 7 3 z M 7 5 C 7.5277779 5 8.0421194 5.1813198 8.3984375 5.4980469 C 8.7547556 5.8147739 9 6.2500005 9 7 L 9 8 L 5 8 L 5 7 C 5 6.2500005 5.2452444 5.8147739 5.6015625 5.4980469 C 5.9578806 5.1813198 6.4722221 5 7 5 z M 17 5 C 16.027778 5 15.042119 5.3186806 14.273438 6.0019531 C 13.504755 6.6852256 13 7.7500003 13 9 C 13 10.25 13.504756 11.314774 14.273438 11.998047 C 15.042118 12.681319 16.027778 13 17 13 C 17.726383 13 18.460182 12.822197 19.105469 12.447266 A 1 1 0 0 0 20 13 A 1 1 0 0 0 21 12 L 21 6 A 1 1 0 0 0 20 5 A 1 1 0 0 0 19.105469 5.5527344 C 18.460182 5.1778026 17.726383 5 17 5 z M 17 7 C 17.527778 7 18.042119 7.1813198 18.398438 7.4980469 C 18.754756 7.8147739 19 8.2500005 19 9 C 19 9.7499995 18.754756 10.185226 18.398438 10.501953 C 18.042119 10.81868 17.527778 11 17 11 C 16.472222 11 15.957881 10.81868 15.601562 10.501953 C 15.245243 10.185226 15 9.7499995 15 9 C 15 8.2500005 15.245244 7.8147739 15.601562 7.4980469 C 15.95788 7.1813198 16.472222 7 17 7 z M 4 15 A 1 1 0 0 0 3 16 A 1 1 0 0 0 4 17 L 16 17 A 1 1 0 0 0 17 16 A 1 1 0 0 0 16 15 L 4 15 z M 21 16 A 1 1 0 0 0 20.292969 16.292969 L 16 20.585938 L 14.707031 19.292969 A 1 1 0 0 0 13.292969 19.292969 A 1 1 0 0 0 13.292969 20.707031 L 15.292969 22.707031 A 1.0001 1.0001 0 0 0 16.707031 22.707031 L 21.707031 17.707031 A 1 1 0 0 0 21.707031 16.292969 A 1 1 0 0 0 21 16 z M 4 19 A 1 1 0 0 0 3 20 A 1 1 0 0 0 4 21 L 10 21 A 1 1 0 0 0 11 20 A 1 1 0 0 0 10 19 L 4 19 z " fill="currentColor"/>
</svg>
