<svg xmlns="http://www.w3.org/2000/svg" width="1em" height="1em" viewBox="0 0 24 24" fill="currentColor">
  <path d="M 6 3 C 4.3549904 3 3 4.3549904 3 6 L 3 16 A 1.0001 1.0001 0 0 0 4.8320312 16.554688 L 8.3964844 11.207031 C 10.771316 12.157015 13.228684 12.157015 15.603516 11.207031 L 19.167969 16.554688 A 1 1 0 0 0 19.951172 16.951172 A 1 1 0 0 0 20 17 A 1 1 0 0 0 20.072266 16.927734 A 1 1 0 0 0 20.554688 16.832031 A 1 1 0 0 0 20.652344 16.347656 A 1 1 0 0 0 21 16 L 21 6 C 21 4.3549904 19.64501 3 18 3 L 6 3 z M 6 5 L 18 5 C 18.564129 5 19 5.4358706 19 6 L 19 12.697266 L 16.832031 9.4453125 A 1.0001 1.0001 0 0 0 15.552734 9.1054688 C 13.124123 10.319319 10.875877 10.319319 8.4472656 9.1054688 A 1.0001 1.0001 0 0 0 7.1679688 9.4453125 L 5 12.697266 L 5 6 C 5 5.4358706 5.4358706 5 6 5 z M 4 19 A 1 1 0 0 0 3 20 A 1 1 0 0 0 4 21 L 20 21 A 1 1 0 0 0 21 20 A 1 1 0 0 0 20 19 L 4 19 z " fill="currentColor"/>
</svg>
