<svg xmlns="http://www.w3.org/2000/svg" width="1em" height="1em" viewBox="0 0 24 24" fill="currentColor">
  <path d="M 17 3.1777344 C 16.018053 3.1777344 15.036288 3.5494251 14.292969 4.2929688 L 6.2929688 12.292969 A 1.0001 1.0001 0 0 0 6 13 L 6 16.585938 L 3.2929688 19.292969 A 1 1 0 0 0 3.2929688 20.707031 A 1 1 0 0 0 4.7070312 20.707031 L 7.4140625 18 L 11 18 A 1.0001 1.0001 0 0 0 11.707031 17.707031 L 19.707031 9.7070312 C 21.194119 8.2203928 21.194119 5.7796073 19.707031 4.2929688 C 18.963712 3.549425 17.981947 3.1777344 17 3.1777344 z M 17 5.1660156 C 17.465817 5.1660156 17.931816 5.3457697 18.292969 5.7070312 C 19.015492 6.4293363 19.015492 7.5706636 18.292969 8.2929688 L 10.585938 16 L 8 16 L 8 13.414062 L 8.5 12.914062 L 9.2929688 13.707031 A 1 1 0 0 0 10.707031 13.707031 A 1 1 0 0 0 10.707031 12.292969 L 9.9140625 11.5 L 11.5 9.9140625 L 12.292969 10.707031 A 1 1 0 0 0 13.707031 10.707031 A 1 1 0 0 0 13.707031 9.2929688 L 12.914062 8.5 L 14.5 6.9140625 L 15.292969 7.7070312 A 1 1 0 0 0 16.707031 7.7070312 A 1 1 0 0 0 16.707031 6.2929688 L 15.929688 5.515625 C 16.249995 5.2820108 16.625234 5.1660156 17 5.1660156 z " fill="currentColor"/>
</svg>
