<svg xmlns="http://www.w3.org/2000/svg" width="1em" height="1em" viewBox="0 0 24 24" fill="currentColor">
  <path d="M 12 2 A 1 1 0 0 0 11 3 L 11 11 L 3 11 A 1 1 0 0 0 2 12 A 1 1 0 0 0 3 13 L 11 13 L 11 21 A 1 1 0 0 0 12 22 A 1 1 0 0 0 13 21 L 13 13 L 21 13 A 1 1 0 0 0 22 12 A 1 1 0 0 0 21 11 L 13 11 L 13 3 A 1 1 0 0 0 12 2 z M 6 3 C 5.2777779 3 4.5421194 3.2353472 3.9609375 3.7519531 C 3.3797556 4.268559 3 5.0833335 3 6 C 3 6.9166665 3.3797556 7.731441 3.9609375 8.2480469 C 4.5421194 8.7646528 5.2777779 9 6 9 C 6.7222221 9 7.4578806 8.7646528 8.0390625 8.2480469 C 8.6202444 7.731441 9 6.9166665 9 6 C 9 5.0833335 8.6202444 4.268559 8.0390625 3.7519531 C 7.4578806 3.2353472 6.7222221 3 6 3 z M 16 3 A 1 1 0 0 0 15.292969 3.2929688 A 1 1 0 0 0 15.292969 4.7070312 L 16.585938 6 L 15.292969 7.2929688 A 1 1 0 0 0 15.292969 8.7070312 A 1 1 0 0 0 16.707031 8.7070312 L 18 7.4140625 L 19.292969 8.7070312 A 1 1 0 0 0 20.707031 8.7070312 A 1 1 0 0 0 20.707031 7.2929688 L 19.414062 6 L 20.707031 4.7070312 A 1 1 0 0 0 20.707031 3.2929688 A 1 1 0 0 0 19.292969 3.2929688 L 18 4.5859375 L 16.707031 3.2929688 A 1 1 0 0 0 16 3 z M 6 5 C 6.2777779 5 6.5421194 5.0979864 6.7109375 5.2480469 C 6.8797556 5.3981073 7 5.5833337 7 6 C 7 6.4166663 6.8797556 6.6018927 6.7109375 6.7519531 C 6.5421194 6.9020136 6.2777779 7 6 7 C 5.7222221 7 5.4578806 6.9020136 5.2890625 6.7519531 C 5.1202444 6.6018927 5 6.4166663 5 6 C 5 5.5833337 5.1202444 5.3981073 5.2890625 5.2480469 C 5.4578806 5.0979864 5.7222221 5 6 5 z M 4 15 A 1 1 0 0 0 3.2929688 15.292969 A 1 1 0 0 0 3.2929688 16.707031 L 4.5859375 18 L 3.2929688 19.292969 A 1 1 0 0 0 3.2929688 20.707031 A 1 1 0 0 0 4.7070312 20.707031 L 6 19.414062 L 7.2929688 20.707031 A 1 1 0 0 0 8.7070312 20.707031 A 1 1 0 0 0 8.7070312 19.292969 L 7.4140625 18 L 8.7070312 16.707031 A 1 1 0 0 0 8.7070312 15.292969 A 1 1 0 0 0 8 15 A 1 1 0 0 0 7.2929688 15.292969 L 6 16.585938 L 4.7070312 15.292969 A 1 1 0 0 0 4 15 z M 18 15 C 17.277778 15 16.542119 15.235347 15.960938 15.751953 C 15.379755 16.268559 15 17.083334 15 18 C 15 18.916666 15.379756 19.731441 15.960938 20.248047 C 16.542119 20.764653 17.277778 21 18 21 C 18.722222 21 19.457881 20.764653 20.039062 20.248047 C 20.620244 19.731441 21 18.916666 21 18 C 21 17.083334 20.620244 16.268559 20.039062 15.751953 C 19.457881 15.235347 18.722222 15 18 15 z M 18 17 C 18.277778 17 18.542119 17.09799 18.710938 17.248047 C 18.879756 17.398107 19 17.583334 19 18 C 19 18.416666 18.879756 18.601893 18.710938 18.751953 C 18.542119 18.902014 18.277778 19 18 19 C 17.722222 19 17.457881 18.902014 17.289062 18.751953 C 17.120244 18.601893 17 18.416666 17 18 C 17 17.583334 17.120244 17.398107 17.289062 17.248047 C 17.457881 17.097986 17.722222 17 18 17 z " fill="currentColor"/>
</svg>
