<svg xmlns="http://www.w3.org/2000/svg" width="1em" height="1em" viewBox="0 0 24 24" fill="currentColor">
  <path d="M 3 2 A 1 1 0 0 0 2.2929688 2.2929688 A 1 1 0 0 0 2.2929688 3.7070312 L 3.1953125 4.609375 C 2.4708304 5.1593067 2 6.0295544 2 7 L 2 10 A 1.0001 1.0001 0 0 0 3 11 C 3.4166663 11 3.6018927 11.120244 3.7519531 11.289062 C 3.9020136 11.45788 4 11.722222 4 12 C 4 12.277778 3.9020136 12.542119 3.7519531 12.710938 C 3.6018927 12.879755 3.4166663 13 3 13 A 1.0001 1.0001 0 0 0 2 14 L 2 17 C 2 18.64501 3.3549904 20 5 20 L 18.585938 20 L 20.292969 21.707031 A 1 1 0 0 0 21.707031 21.707031 A 1 1 0 0 0 21.707031 20.292969 L 19.716797 18.302734 A 1 1 0 0 0 19.697266 18.283203 L 5.7167969 4.3027344 A 1 1 0 0 0 5.6972656 4.2832031 L 3.7070312 2.2929688 A 1 1 0 0 0 3 2 z M 9 4 A 1 1 0 0 0 8 5 A 1 1 0 0 0 9 6 L 14 6 L 14 7 A 1 1 0 0 0 15 8 A 1 1 0 0 0 16 7 L 16 6 L 19 6 C 19.564129 6 20 6.4358706 20 7 L 20 9.2050781 C 19.510377 9.3694128 19.065738 9.6079298 18.751953 9.9609375 C 18.235347 10.542119 18 11.277778 18 12 C 18 12.722222 18.235347 13.45788 18.751953 14.039062 C 19.065738 14.392069 19.510377 14.630587 20 14.794922 L 20 17 A 1 1 0 0 0 21 18 A 1 1 0 0 0 22 17 L 22 14 A 1.0001 1.0001 0 0 0 21 13 C 20.583334 13 20.398107 12.879756 20.248047 12.710938 C 20.097986 12.542118 20 12.277778 20 12 C 20 11.722222 20.097986 11.45788 20.248047 11.289062 C 20.398107 11.120243 20.583334 11 21 11 A 1.0001 1.0001 0 0 0 22 10 L 22 7 C 22 5.3549904 20.64501 4 19 4 L 9 4 z M 4.6464844 6.0605469 L 14.648438 16.0625 A 1 1 0 0 0 14 17 L 14 18 L 5 18 C 4.4358706 18 4 17.564129 4 17 L 4 14.794922 C 4.4896235 14.630587 4.9342624 14.392069 5.2480469 14.039062 C 5.7646528 13.45788 6 12.722222 6 12 C 6 11.277778 5.7646528 10.542119 5.2480469 9.9609375 C 4.9342624 9.6079298 4.4896235 9.3694128 4 9.2050781 L 4 7 C 4 6.5609958 4.2635334 6.1992379 4.6464844 6.0605469 z M 16 17.414062 L 16.585938 18 L 16 18 L 16 17.414062 z " fill="currentColor"/>
</svg>
