<svg xmlns="http://www.w3.org/2000/svg" width="1em" height="1em" viewBox="0 0 24 24" fill="currentColor">
  <path d="M 10.443359 2 C 9.0796725 2.000512 8.0916581 3.4242485 8.5703125 4.7011719 L 9.4589844 7.0703125 L 7.0253906 17.779297 A 1.0001 1.0001 0 0 0 7.2929688 18.707031 L 11.292969 22.707031 A 1 1 0 0 0 12.707031 22.707031 L 16.707031 18.707031 A 1.0001 1.0001 0 0 0 16.974609 17.779297 L 15.316406 10.484375 L 17.759766 13.171875 A 1 1 0 0 0 19.171875 13.240234 A 1 1 0 0 0 19.240234 11.828125 L 14.650391 6.7792969 L 15.429688 4.7011719 C 15.908341 3.4242485 14.920328 2.000512 13.556641 2 L 10.443359 2 z M 10.443359 4 L 13.556641 4 L 12.806641 6 L 11.193359 6 L 10.443359 4 z M 11.296875 8 L 12.703125 8 L 14.902344 17.683594 L 12 20.585938 L 9.0976562 17.683594 L 11.296875 8 z " fill="currentColor"/>
</svg>
