<svg xmlns="http://www.w3.org/2000/svg" width="1em" height="1em" viewBox="0 0 24 24" fill="currentColor">
  <path d="M 3 2 A 1 1 0 0 0 2.2929688 2.2929688 A 1 1 0 0 0 2.2929688 3.7070312 L 16.904297 18.318359 C 15.508818 19.402427 13.786037 20.000509 12 20 A 1 1 0 0 0 11 21 A 1 1 0 0 0 12 22 C 14.316554 22.00066 16.550482 21.196 18.328125 19.742188 L 20.292969 21.707031 A 1 1 0 0 0 21.707031 21.707031 A 1 1 0 0 0 21.707031 20.292969 L 3.7070312 2.2929688 A 1 1 0 0 0 3 2 z M 12 2 A 1 1 0 0 0 11 3 A 1 1 0 0 0 12 4 C 17.991005 4.0002023 21.834983 10.225204 19.152344 15.582031 A 1 1 0 0 0 19.599609 16.923828 A 1 1 0 0 0 20.941406 16.478516 C 24.252529 9.8667005 19.394568 2.0002497 12 2 z M 4.1992188 6.5 A 1 1 0 0 0 3.1992188 7.5 L 3.1992188 7.5097656 A 1 1 0 0 0 4.1992188 8.5097656 A 1 1 0 0 0 5.1992188 7.5097656 L 5.1992188 7.5 A 1 1 0 0 0 4.1992188 6.5 z M 3 11 A 1 1 0 0 0 2 12 L 2 12.009766 A 1 1 0 0 0 3 13.009766 A 1 1 0 0 0 4 12.009766 L 4 12 A 1 1 0 0 0 3 11 z M 4.1992188 15.5 A 1 1 0 0 0 3.1992188 16.5 L 3.1992188 16.509766 A 1 1 0 0 0 4.1992188 17.509766 A 1 1 0 0 0 5.1992188 16.509766 L 5.1992188 16.5 A 1 1 0 0 0 4.1992188 15.5 z M 7.5 18.800781 A 1 1 0 0 0 6.5 19.800781 L 6.5 19.810547 A 1 1 0 0 0 7.5 20.810547 A 1 1 0 0 0 8.5 19.810547 L 8.5 19.800781 A 1 1 0 0 0 7.5 18.800781 z " fill="currentColor"/>
</svg>
