<svg xmlns="http://www.w3.org/2000/svg" width="1em" height="1em" viewBox="0 0 24 24" fill="currentColor">
  <path d="M 7 2 C 5.9072751 2 5 2.9072751 5 4 L 5 12 C 5 13.092725 5.9072751 14 7 14 L 9.5859375 14 L 11.292969 15.707031 A 1 1 0 0 0 12.707031 15.707031 L 14.414062 14 L 17 14 C 18.092725 14 19 13.092725 19 12 L 19 4 C 19 2.9072751 18.092725 2 17 2 L 7 2 z M 7 4 L 17 4 L 17 12 L 14 12 A 1.0001 1.0001 0 0 0 13.292969 12.292969 L 12 13.585938 L 10.707031 12.292969 A 1.0001 1.0001 0 0 0 10 12 L 7 12 L 7 4 z M 10 7 A 1 1 0 0 0 9 8 A 1 1 0 0 0 10 9 L 14 9 A 1 1 0 0 0 15 8 A 1 1 0 0 0 14 7 L 10 7 z M 12 17 C 11.277778 17 10.542119 17.235347 9.9609375 17.751953 C 9.6029744 18.070142 9.3216719 18.501445 9.1582031 19 L 4 19 A 1 1 0 0 0 3 20 A 1 1 0 0 0 4 21 L 9.1582031 21 C 9.3216719 21.498555 9.6029744 21.929858 9.9609375 22.248047 C 10.542119 22.764653 11.277778 23 12 23 C 12.722222 23 13.45788 22.764653 14.039062 22.248047 C 14.397025 21.929858 14.678328 21.498555 14.841797 21 L 20 21 A 1 1 0 0 0 21 20 A 1 1 0 0 0 20 19 L 14.841797 19 C 14.678328 18.501445 14.397025 18.070142 14.039062 17.751953 C 13.45788 17.235347 12.722222 17 12 17 z M 12 19 C 12.277778 19 12.542119 19.09799 12.710938 19.248047 C 12.879755 19.398106 12.999999 19.583337 13 20 C 13 20.416666 12.879756 20.601893 12.710938 20.751953 C 12.542118 20.902014 12.277778 21 12 21 C 11.722222 21 11.45788 20.902014 11.289062 20.751953 C 11.120243 20.601893 11 20.416666 11 20 C 11 19.583334 11.120244 19.398107 11.289062 19.248047 C 11.45788 19.097986 11.722222 19 12 19 z " fill="currentColor"/>
</svg>
