<svg xmlns="http://www.w3.org/2000/svg" width="1em" height="1em" viewBox="0 0 24 24" fill="currentColor">
  <path d="M 12 2 A 1 1 0 0 0 11 3 A 1 1 0 0 0 12 4 C 16.430126 4 20 7.5698765 20 12 C 20 16.430123 16.430126 20 12 20 A 1 1 0 0 0 11 21 A 1 1 0 0 0 12 22 C 17.511006 22 22 17.511002 22 12 C 22 6.4889982 17.511006 2 12 2 z M 7.5 3.1992188 A 1 1 0 0 0 6.5 4.1992188 L 6.5 4.2109375 A 1 1 0 0 0 7.5 5.2109375 A 1 1 0 0 0 8.5 4.2109375 L 8.5 4.1992188 A 1 1 0 0 0 7.5 3.1992188 z M 4.1992188 6.5 A 1 1 0 0 0 3.1992188 7.5 L 3.1992188 7.5097656 A 1 1 0 0 0 4.1992188 8.5097656 A 1 1 0 0 0 5.1992188 7.5097656 L 5.1992188 7.5 A 1 1 0 0 0 4.1992188 6.5 z M 8 8 A 1 1 0 0 0 7 9 A 1 1 0 0 0 8 10 L 9.5 10 C 9.7499997 10 9.810226 10.057739 9.8769531 10.132812 C 9.9436803 10.20788 10 10.347222 10 10.5 C 10 10.652778 9.9436803 10.792119 9.8769531 10.867188 C 9.810226 10.942255 9.7499997 11 9.5 11 L 9 11 A 1.0001 1.0001 0 0 0 9 13 L 9.5 13 C 9.7499997 13 9.810226 13.05774 9.8769531 13.132812 C 9.9436803 13.20788 10 13.347222 10 13.5 C 10 13.652778 9.9436803 13.792119 9.8769531 13.867188 C 9.810226 13.942255 9.7499997 14 9.5 14 L 8 14 A 1 1 0 0 0 7 15 A 1 1 0 0 0 8 16 L 9.5 16 C 10.25 16 10.939774 15.682744 11.373047 15.195312 C 11.806319 14.70788 12 14.097222 12 13.5 C 12 12.971586 11.780471 12.454845 11.445312 12 C 11.780471 11.545155 12 11.028414 12 10.5 C 12 9.9027779 11.806319 9.2921194 11.373047 8.8046875 C 10.939774 8.3172556 10.25 8 9.5 8 L 8 8 z M 15.5 8 C 14.902778 8 14.292119 8.1936805 13.804688 8.6269531 C 13.317255 9.0602257 13 9.7500001 13 10.5 L 13 13.5 C 13 14.25 13.317256 14.939774 13.804688 15.373047 C 14.292118 15.806319 14.902778 16 15.5 16 C 16.097222 16 16.707881 15.806319 17.195312 15.373047 C 17.682744 14.939774 18 14.25 18 13.5 L 18 10.5 C 18 9.7500001 17.682744 9.0602257 17.195312 8.6269531 C 16.707881 8.1936805 16.097222 8 15.5 8 z M 15.5 10 C 15.652778 10 15.792119 10.05632 15.867188 10.123047 C 15.942255 10.189774 16 10.25 16 10.5 L 16 13.5 C 16 13.75 15.942259 13.810226 15.867188 13.876953 C 15.792118 13.94368 15.652778 14 15.5 14 C 15.347222 14 15.20788 13.94368 15.132812 13.876953 C 15.057743 13.810226 15 13.75 15 13.5 L 15 10.5 C 15 10.25 15.05774 10.189774 15.132812 10.123047 C 15.20788 10.05632 15.347222 10 15.5 10 z M 3 11 A 1 1 0 0 0 2 12 L 2 12.009766 A 1 1 0 0 0 3 13.009766 A 1 1 0 0 0 4 12.009766 L 4 12 A 1 1 0 0 0 3 11 z M 4.1992188 15.5 A 1 1 0 0 0 3.1992188 16.5 L 3.1992188 16.509766 A 1 1 0 0 0 4.1992188 17.509766 A 1 1 0 0 0 5.1992188 16.509766 L 5.1992188 16.5 A 1 1 0 0 0 4.1992188 15.5 z M 7.5 18.800781 A 1 1 0 0 0 6.5 19.800781 L 6.5 19.810547 A 1 1 0 0 0 7.5 20.810547 A 1 1 0 0 0 8.5 19.810547 L 8.5 19.800781 A 1 1 0 0 0 7.5 18.800781 z " fill="currentColor"/>
</svg>
