<svg xmlns="http://www.w3.org/2000/svg" width="1em" height="1em" viewBox="0 0 24 24" fill="currentColor">
  <path d="M 12 2 A 1 1 0 0 0 11 3 A 1 1 0 0 0 12 4 C 15.606366 4 18.232728 6.1417253 19.390625 8.9375 C 20.548522 11.733275 20.205982 15.106518 17.65625 17.65625 C 15.106518 20.205982 11.733275 20.548522 8.9375 19.390625 C 6.1417253 18.232728 4 15.606366 4 12 A 1 1 0 0 0 3 11 A 1 1 0 0 0 2 12 C 2 16.412336 4.7051316 19.801687 8.1738281 21.238281 C 11.642525 22.674875 15.950653 22.189972 19.070312 19.070312 C 22.189972 15.950653 22.674875 11.642525 21.238281 8.1738281 C 19.801687 4.7051316 16.412336 2 12 2 z M 7.5 3.1992188 A 1 1 0 0 0 6.5 4.1992188 L 6.5 4.2109375 A 1 1 0 0 0 7.5 5.2109375 A 1 1 0 0 0 8.5 4.2109375 L 8.5 4.1992188 A 1 1 0 0 0 7.5 3.1992188 z M 4.1992188 6.5 A 1 1 0 0 0 3.1992188 7.5 L 3.1992188 7.5097656 A 1 1 0 0 0 4.1992188 8.5097656 A 1 1 0 0 0 5.1992188 7.5097656 L 5.1992188 7.5 A 1 1 0 0 0 4.1992188 6.5 z M 7 8 A 1 1 0 0 0 6 9 L 6 11 C 6 12.092725 6.9072751 13 8 13 L 9 13 L 9 15 A 1 1 0 0 0 10 16 A 1 1 0 0 0 11 15 L 11 9 A 1 1 0 0 0 10 8 A 1 1 0 0 0 9 9 L 9 11 L 8 11 L 8 9 A 1 1 0 0 0 7 8 z M 13 8 A 1.0001 1.0001 0 0 0 12 9 L 12 12 A 1.0001 1.0001 0 0 0 13 13 L 15 13 L 15 14 L 13 14 A 1 1 0 0 0 12 15 A 1 1 0 0 0 13 16 L 15 16 C 16.092725 16 17 15.092725 17 14 L 17 13 C 17 11.907275 16.092725 11 15 11 L 14 11 L 14 10 L 16 10 A 1 1 0 0 0 17 9 A 1 1 0 0 0 16 8 L 13 8 z " fill="currentColor"/>
</svg>
