<svg xmlns="http://www.w3.org/2000/svg" width="1em" height="1em" viewBox="0 0 24 24" fill="currentColor">
  <path d="M 1.4980469 7 A 1 1 0 0 0 0.49804688 8 A 1 1 0 0 0 1.4980469 9 L 1.9980469 9 L 1.9980469 16 A 1 1 0 0 0 2.9980469 17 A 1 1 0 0 0 3.9980469 16 L 3.9980469 9 L 4.4980469 9 A 1 1 0 0 0 5.4980469 8 A 1 1 0 0 0 4.4980469 7 L 1.4980469 7 z M 8.5 7 C 7.1311328 7 6 8.1311328 6 9.5 L 6 14.5 C 6 15.25 6.3172556 15.939774 6.8046875 16.373047 C 7.2921194 16.806319 7.9027779 17 8.5 17 C 9.0972221 17 9.7078801 16.806319 10.195312 16.373047 C 10.682743 15.939774 11 15.25 11 14.5 L 11 9.5 C 11 8.1311328 9.8688672 7 8.5 7 z M 20 7 A 1 1 0 0 0 19 8 L 19 16 A 1.0001 1.0001 0 0 0 20 17 L 22.5 17 A 1 1 0 0 0 23.5 16 A 1 1 0 0 0 22.5 15 L 21 15 L 21 8 A 1 1 0 0 0 20 7 z M 12.947266 7.0019531 A 1.0001 1.0001 0 0 0 12.810547 7.0175781 A 1.0001 1.0001 0 0 0 12 8 L 12 16 A 1 1 0 0 0 13 17 A 1 1 0 0 0 14 16 L 14 13.191406 L 14.072266 13.371094 A 1.0001 1.0001 0 0 0 15.927734 13.371094 L 16 13.191406 L 16 16 A 1 1 0 0 0 17 17 A 1 1 0 0 0 18 16 L 18 8 A 1.0001 1.0001 0 0 0 16.072266 7.6289062 L 15 10.308594 L 13.927734 7.6289062 A 1.0001 1.0001 0 0 0 12.947266 7.0019531 z M 8.5 9 C 8.787987 9 9 9.212013 9 9.5 L 9 14.5 C 9 14.75 8.9422556 14.810226 8.8671875 14.876953 C 8.7921194 14.94368 8.6527779 15 8.5 15 C 8.3472221 15 8.2078806 14.94368 8.1328125 14.876953 C 8.0577444 14.810226 8 14.75 8 14.5 L 8 9.5 C 8 9.212013 8.212013 9 8.5 9 z " fill="currentColor"/>
</svg>
