<svg xmlns="http://www.w3.org/2000/svg" width="1em" height="1em" viewBox="0 0 24 24" fill="currentColor">
  <path d="M 7 2 A 1.0001 1.0001 0 0 0 6.2929688 2.2929688 L 2.2929688 6.2929688 A 1.0001 1.0001 0 0 0 2.2929688 7.7070312 L 6.5859375 12 L 2.2929688 16.292969 A 1.0001 1.0001 0 0 0 2 17 L 2 21 A 1 1 0 0 0 3 22 L 7 22 A 1.0001 1.0001 0 0 0 7.7070312 21.707031 L 12 17.414062 L 13.792969 19.207031 L 16.292969 21.707031 A 1.0001 1.0001 0 0 0 17.707031 21.707031 L 21.707031 17.707031 A 1.0001 1.0001 0 0 0 21.707031 16.292969 L 17.414062 12 L 20.707031 8.7070312 C 21.550474 7.863588 21.930913 6.8001255 21.873047 5.8164062 C 21.815181 4.832687 21.364166 3.9501035 20.707031 3.2929688 C 20.049896 2.6358339 19.167313 2.1848192 18.183594 2.1269531 C 17.199875 2.0690871 16.136412 2.4495256 15.292969 3.2929688 L 12 6.5859375 L 7.7070312 2.2929688 A 1.0001 1.0001 0 0 0 7 2 z M 17.904297 4.1210938 C 17.958625 4.119305 18.012288 4.1198634 18.066406 4.1230469 C 18.499353 4.1485139 18.950104 4.364166 19.292969 4.7070312 C 19.635834 5.0498965 19.851486 5.5006467 19.876953 5.9335938 C 19.902423 6.366541 19.782863 6.8030792 19.292969 7.2929688 L 18.5 8.0859375 L 15.914062 5.5 L 16.707031 4.7070312 C 17.135685 4.2783779 17.524002 4.1336151 17.904297 4.1210938 z M 7 4.4140625 L 10.585938 8 L 8 10.585938 L 6.9140625 9.5 L 7.7070312 8.7070312 A 1 1 0 0 0 7.7070312 7.2929688 A 1 1 0 0 0 7 7 A 1 1 0 0 0 6.2929688 7.2929688 L 5.5 8.0859375 L 4.4140625 7 L 7 4.4140625 z M 14.5 6.9140625 L 17.085938 9.5 L 6.5859375 20 L 4 20 L 4 17.414062 L 14.5 6.9140625 z M 16 13.414062 L 19.585938 17 L 17 19.585938 L 15.914062 18.5 L 16.707031 17.707031 A 1 1 0 0 0 16.707031 16.292969 A 1 1 0 0 0 15.292969 16.292969 L 14.5 17.085938 L 13.414062 16 L 16 13.414062 z " fill="currentColor"/>
</svg>
