<svg xmlns="http://www.w3.org/2000/svg" width="1em" height="1em" viewBox="0 0 24 24" fill="currentColor">
  <path d="M 8 2 C 7.2777779 2 6.5421194 2.2353472 5.9609375 2.7519531 C 5.3797556 3.268559 5 4.0833335 5 5 C 5 5.9166665 5.3797556 6.731441 5.9609375 7.2480469 C 6.5421194 7.7646528 7.2777779 8 8 8 C 8.1481735 8 8.297458 7.9909121 8.4453125 7.9707031 L 9.7636719 9.9472656 C 9.4994902 10.23805 9.2902498 10.597278 9.1582031 11 L 6.8417969 11 C 6.6783281 10.501445 6.3970256 10.070142 6.0390625 9.7519531 C 5.4578806 9.2353472 4.7222221 9 4 9 C 3.2777779 9 2.5421194 9.2353472 1.9609375 9.7519531 C 1.3797556 10.268559 1 11.083334 1 12 C 1 12.916666 1.3797556 13.731441 1.9609375 14.248047 C 2.5421194 14.764653 3.2777779 15 4 15 C 4.7222221 15 5.4578806 14.764653 6.0390625 14.248047 C 6.3970256 13.929858 6.6783281 13.498555 6.8417969 13 L 9.1582031 13 C 9.2902498 13.402722 9.4994901 13.76195 9.7636719 14.052734 L 8.4453125 16.029297 C 8.297458 16.009088 8.1481734 16 8 16 C 7.2777779 16 6.5421194 16.235347 5.9609375 16.751953 C 5.3797556 17.268559 5 18.083334 5 19 C 5 19.916666 5.3797556 20.731441 5.9609375 21.248047 C 6.5421194 21.764653 7.2777779 22 8 22 C 8.7222221 22 9.4578801 21.764653 10.039062 21.248047 C 10.620243 20.731441 11 19.916666 11 19 C 11 18.191861 10.70445 17.462527 10.236328 16.947266 L 11.554688 14.970703 C 11.702542 14.990912 11.851827 15 12 15 C 12.148173 15 12.297458 14.990912 12.445312 14.970703 L 13.763672 16.947266 C 13.29555 17.462527 13 18.191861 13 19 C 13 19.916666 13.379756 20.731441 13.960938 21.248047 C 14.542118 21.764653 15.277778 22 16 22 C 16.722222 22 17.457881 21.764653 18.039062 21.248047 C 18.620244 20.731441 19 19.916666 19 19 C 19 18.083334 18.620244 17.268559 18.039062 16.751953 C 17.457881 16.235347 16.722222 16 16 16 C 15.851827 16 15.702542 16.009088 15.554688 16.029297 L 14.236328 14.052734 C 14.50051 13.76195 14.70975 13.402722 14.841797 13 L 17.158203 13 C 17.321672 13.498555 17.602975 13.929858 17.960938 14.248047 C 18.542119 14.764653 19.277778 15 20 15 C 20.722222 15 21.457881 14.764653 22.039062 14.248047 C 22.620244 13.731441 23 12.916666 23 12 C 23 11.083334 22.620244 10.268559 22.039062 9.7519531 C 21.457881 9.2353472 20.722222 9 20 9 C 19.277778 9 18.542119 9.2353472 17.960938 9.7519531 C 17.602975 10.070142 17.321672 10.501445 17.158203 11 L 14.841797 11 C 14.70975 10.597278 14.50051 10.23805 14.236328 9.9472656 L 15.554688 7.9707031 C 15.702542 7.9909121 15.851827 8 16 8 C 16.722222 8 17.457881 7.7646528 18.039062 7.2480469 C 18.620244 6.731441 19 5.9166665 19 5 C 19 4.0833335 18.620244 3.268559 18.039062 2.7519531 C 17.457881 2.2353472 16.722222 2 16 2 C 15.277778 2 14.542119 2.2353472 13.960938 2.7519531 C 13.379755 3.268559 13 4.0833335 13 5 C 13 5.8081393 13.29555 6.5374732 13.763672 7.0527344 L 12.445312 9.0292969 C 12.297458 9.0090879 12.148173 9 12 9 C 11.851827 9 11.702542 9.0090879 11.554688 9.0292969 L 10.236328 7.0527344 C 10.70445 6.5374731 11 5.8081394 11 5 C 11 4.0833335 10.620244 3.268559 10.039062 2.7519531 C 9.4578801 2.2353472 8.7222221 2 8 2 z M 8 4 C 8.2777779 4 8.5421194 4.0979864 8.7109375 4.2480469 C 8.8797556 4.3981073 9 4.5833337 9 5 C 9 5.4166663 8.8797556 5.6018927 8.7109375 5.7519531 C 8.5421194 5.9020136 8.2777779 6 8 6 C 7.7222221 6 7.4578806 5.9020136 7.2890625 5.7519531 C 7.1202444 5.6018927 7 5.4166663 7 5 C 7 4.5833337 7.1202444 4.3981073 7.2890625 4.2480469 C 7.4578806 4.0979864 7.7222221 4 8 4 z M 16 4 C 16.277778 4 16.542119 4.097986 16.710938 4.2480469 C 16.879756 4.3981073 17 4.5833337 17 5 C 17 5.4166663 16.879756 5.6018927 16.710938 5.7519531 C 16.542119 5.9020136 16.277778 6 16 6 C 15.722222 6 15.45788 5.9020136 15.289062 5.7519531 C 15.120243 5.6018927 15 5.4166663 15 5 C 15 4.5833337 15.120244 4.3981073 15.289062 4.2480469 C 15.45788 4.0979864 15.722222 4 16 4 z M 4 11 C 4.2777779 11 4.5421194 11.09799 4.7109375 11.248047 C 4.8797556 11.398107 5 11.583334 5 12 C 5 12.416666 4.8797556 12.601893 4.7109375 12.751953 C 4.5421194 12.902014 4.2777779 13 4 13 C 3.7222221 13 3.4578806 12.902014 3.2890625 12.751953 C 3.1202444 12.601893 3 12.416666 3 12 C 3 11.583334 3.1202444 11.398107 3.2890625 11.248047 C 3.4578806 11.097986 3.7222221 11 4 11 z M 12 11 C 12.277778 11 12.542119 11.09799 12.710938 11.248047 C 12.879755 11.398107 13 11.583334 13 12 C 13 12.416666 12.879756 12.601893 12.710938 12.751953 C 12.542118 12.902014 12.277778 13 12 13 C 11.722222 13 11.45788 12.902014 11.289062 12.751953 C 11.120243 12.601893 11 12.416666 11 12 C 11 11.583334 11.120244 11.398107 11.289062 11.248047 C 11.45788 11.097986 11.722222 11 12 11 z M 20 11 C 20.277778 11 20.542119 11.09799 20.710938 11.248047 C 20.879756 11.398107 21 11.583334 21 12 C 21 12.416666 20.879756 12.601893 20.710938 12.751953 C 20.542119 12.902014 20.277778 13 20 13 C 19.722222 13 19.457881 12.902014 19.289062 12.751953 C 19.120244 12.601893 19 12.416666 19 12 C 19 11.583334 19.120244 11.398107 19.289062 11.248047 C 19.457881 11.097986 19.722222 11 20 11 z M 8 18 C 8.2777779 18 8.5421194 18.09799 8.7109375 18.248047 C 8.8797556 18.398107 9 18.583334 9 19 C 9 19.416666 8.8797556 19.601893 8.7109375 19.751953 C 8.5421194 19.902014 8.2777779 20 8 20 C 7.7222221 20 7.4578806 19.902014 7.2890625 19.751953 C 7.1202444 19.601893 7 19.416666 7 19 C 7 18.583334 7.1202444 18.398107 7.2890625 18.248047 C 7.4578806 18.097986 7.7222221 18 8 18 z M 16 18 C 16.277778 18 16.542119 18.09799 16.710938 18.248047 C 16.879756 18.398107 17 18.583334 17 19 C 17 19.416666 16.879756 19.601893 16.710938 19.751953 C 16.542119 19.902014 16.277778 20 16 20 C 15.722222 20 15.45788 19.902014 15.289062 19.751953 C 15.120243 19.601893 15 19.416666 15 19 C 15 18.583334 15.120244 18.398107 15.289062 18.248047 C 15.45788 18.097986 15.722222 18 16 18 z " fill="currentColor"/>
</svg>
