<svg xmlns="http://www.w3.org/2000/svg" width="1em" height="1em" viewBox="0 0 24 24" fill="currentColor">
  <path d="M 12 1 C 11.277778 1 10.542119 1.2353472 9.9609375 1.7519531 C 9.3797556 2.268559 9 3.0833335 9 4 C 9 4.4720186 9.1003057 4.9174076 9.2773438 5.3085938 L 5.3085938 9.2773438 C 4.8934117 9.0887371 4.4440508 9 4 9 C 3.2777779 9 2.5421194 9.2353472 1.9609375 9.7519531 C 1.3797556 10.268559 1 11.083334 1 12 C 1 12.916666 1.3797556 13.731441 1.9609375 14.248047 C 2.5421194 14.764653 3.2777779 15 4 15 C 4.4440509 15 4.8934116 14.911263 5.3085938 14.722656 L 9.2773438 18.691406 C 9.1003056 19.082593 9 19.527982 9 20 C 9 20.916666 9.3797556 21.731441 9.9609375 22.248047 C 10.542119 22.764653 11.277778 23 12 23 C 12.722222 23 13.45788 22.764653 14.039062 22.248047 C 14.620243 21.731441 15 20.916666 15 20 C 15 19.527982 14.899694 19.082593 14.722656 18.691406 L 18.691406 14.722656 C 19.106589 14.911263 19.555949 15 20 15 C 20.722222 15 21.457881 14.764653 22.039062 14.248047 C 22.620244 13.731441 23 12.916666 23 12 C 23 11.083334 22.620244 10.268559 22.039062 9.7519531 C 21.457881 9.2353472 20.722222 9 20 9 C 19.555949 9 19.106588 9.0887371 18.691406 9.2773438 L 14.722656 5.3085938 C 14.899694 4.9174075 15 4.4720186 15 4 C 15 3.0833335 14.620244 2.268559 14.039062 1.7519531 C 13.45788 1.2353472 12.722222 1 12 1 z M 12 3 C 12.277778 3 12.542119 3.097986 12.710938 3.2480469 C 12.879755 3.3981073 13 3.5833337 13 4 C 13 4.4166663 12.879756 4.6018927 12.710938 4.7519531 C 12.542118 4.9020136 12.277778 5 12 5 C 11.722222 5 11.45788 4.9020136 11.289062 4.7519531 C 11.120243 4.6018927 11 4.4166663 11 4 C 11 3.5833337 11.120244 3.3981073 11.289062 3.2480469 C 11.45788 3.0979864 11.722222 3 12 3 z M 10.691406 6.7226562 C 11.106588 6.9112629 11.555949 7 12 7 C 12.444051 7 12.893412 6.9112629 13.308594 6.7226562 L 17.277344 10.691406 C 17.100306 11.082593 17 11.527982 17 12 C 17 12.472018 17.100306 12.917407 17.277344 13.308594 L 13.308594 17.277344 C 12.893411 17.088737 12.444051 17 12 17 C 11.555949 17 11.106588 17.088737 10.691406 17.277344 L 6.7226562 13.308594 C 6.8996944 12.917407 7 12.472018 7 12 C 7 11.527982 6.8996944 11.082593 6.7226562 10.691406 L 10.691406 6.7226562 z M 4 11 C 4.2777779 11 4.5421194 11.09799 4.7109375 11.248047 C 4.8797556 11.398107 5 11.583334 5 12 C 5 12.416666 4.8797556 12.601893 4.7109375 12.751953 C 4.5421194 12.902014 4.2777779 13 4 13 C 3.7222221 13 3.4578806 12.902014 3.2890625 12.751953 C 3.1202444 12.601893 3 12.416666 3 12 C 3 11.583334 3.1202444 11.398107 3.2890625 11.248047 C 3.4578806 11.097986 3.7222221 11 4 11 z M 20 11 C 20.277778 11 20.542119 11.09799 20.710938 11.248047 C 20.879756 11.398107 21 11.583334 21 12 C 21 12.416666 20.879756 12.601893 20.710938 12.751953 C 20.542119 12.902014 20.277778 13 20 13 C 19.722222 13 19.457881 12.902014 19.289062 12.751953 C 19.120244 12.601893 19 12.416666 19 12 C 19 11.583334 19.120244 11.398107 19.289062 11.248047 C 19.457881 11.097986 19.722222 11 20 11 z M 12 19 C 12.277778 19 12.542119 19.09799 12.710938 19.248047 C 12.879755 19.398107 13 19.583334 13 20 C 13 20.416666 12.879756 20.601893 12.710938 20.751953 C 12.542118 20.902014 12.277778 21 12 21 C 11.722222 21 11.45788 20.902014 11.289062 20.751953 C 11.120243 20.601893 11 20.416666 11 20 C 11 19.583334 11.120244 19.398107 11.289062 19.248047 C 11.45788 19.097986 11.722222 19 12 19 z " fill="currentColor"/>
</svg>
