<svg xmlns="http://www.w3.org/2000/svg" width="1em" height="1em" viewBox="0 0 24 24" fill="currentColor">
  <path d="M 12 3 C 11.277778 3 10.542119 3.2353472 9.9609375 3.7519531 C 9.3797556 4.268559 9 5.0833335 9 6 C 9 6.8168409 9.302384 7.5522171 9.7792969 8.0683594 L 5.4296875 15.027344 C 5.2870185 15.008556 5.1429178 15 5 15 C 4.2777779 15 3.5421194 15.235347 2.9609375 15.751953 C 2.3797556 16.268559 2 17.083334 2 18 C 2 18.916666 2.3797556 19.731441 2.9609375 20.248047 C 3.5421194 20.764653 4.2777779 21 5 21 C 5.7222221 21 6.4578806 20.764653 7.0390625 20.248047 C 7.3970256 19.929858 7.6783281 19.498555 7.8417969 19 L 16.158203 19 C 16.321672 19.498555 16.602975 19.929858 16.960938 20.248047 C 17.542119 20.764653 18.277778 21 19 21 C 19.722222 21 20.457881 20.764653 21.039062 20.248047 C 21.620244 19.731441 22 18.916666 22 18 C 22 17.083334 21.620244 16.268559 21.039062 15.751953 C 20.457881 15.235347 19.722222 15 19 15 C 18.857082 15 18.712982 15.008556 18.570312 15.027344 L 14.220703 8.0683594 C 14.697616 7.5522171 15 6.816841 15 6 C 15 5.0833335 14.620244 4.268559 14.039062 3.7519531 C 13.45788 3.2353472 12.722222 3 12 3 z M 12 5 C 12.277778 5 12.542119 5.097986 12.710938 5.2480469 C 12.879755 5.3981073 13 5.5833337 13 6 C 13 6.4166663 12.879756 6.6018927 12.710938 6.7519531 C 12.542118 6.9020136 12.277778 7 12 7 C 11.722222 7 11.45788 6.9020136 11.289062 6.7519531 C 11.120243 6.6018927 11 6.4166663 11 6 C 11 5.5833337 11.120244 5.3981073 11.289062 5.2480469 C 11.45788 5.0979864 11.722222 5 12 5 z M 11.570312 8.9726562 C 11.712982 8.991444 11.857082 9 12 9 C 12.142918 9 12.287018 8.991444 12.429688 8.9726562 L 16.779297 15.931641 C 16.507941 16.225318 16.292769 16.589594 16.158203 17 L 7.8417969 17 C 7.7072309 16.589594 7.4920592 16.225318 7.2207031 15.931641 L 11.570312 8.9726562 z M 5 17 C 5.2777779 17 5.5421194 17.09799 5.7109375 17.248047 C 5.879755 17.398106 5.9999991 17.583337 6 18 C 6 18.416666 5.8797556 18.601893 5.7109375 18.751953 C 5.5421194 18.902014 5.2777779 19 5 19 C 4.7222221 19 4.4578806 18.902014 4.2890625 18.751953 C 4.1202444 18.601893 4 18.416666 4 18 C 4 17.583334 4.1202444 17.398107 4.2890625 17.248047 C 4.4578806 17.097986 4.7222221 17 5 17 z M 19 17 C 19.277778 17 19.542119 17.09799 19.710938 17.248047 C 19.879756 17.398107 20 17.583334 20 18 C 20 18.416666 19.879756 18.601893 19.710938 18.751953 C 19.542119 18.902014 19.277778 19 19 19 C 18.722222 19 18.457881 18.902014 18.289062 18.751953 C 18.120244 18.601893 18 18.416666 18 18 C 18 17.583334 18.120244 17.398107 18.289062 17.248047 C 18.457881 17.097986 18.722222 17 19 17 z " fill="currentColor"/>
</svg>
