<svg xmlns="http://www.w3.org/2000/svg" width="1em" height="1em" viewBox="0 0 24 24" fill="currentColor">
  <path d="M 3.9824219 3 A 1 1 0 0 0 3.0292969 3.7578125 A 1 1 0 0 0 3.7578125 4.9707031 C 4.1717191 5.0741604 4.5857899 5.1699688 5 5.2578125 L 5 7 L 4 7 A 1 1 0 0 0 3 8 A 1 1 0 0 0 4 9 L 5 9 L 5 20 A 1 1 0 0 0 6 21 A 1 1 0 0 0 7 20 L 7 9 L 17 9 L 17 20 A 1 1 0 0 0 18 21 A 1 1 0 0 0 19 20 L 19 9 L 20 9 A 1 1 0 0 0 21 8 A 1 1 0 0 0 20 7 L 19 7 L 19 5.2578125 C 19.41421 5.1699688 19.828281 5.0741604 20.242188 4.9707031 A 1 1 0 0 0 20.970703 3.7578125 A 1 1 0 0 0 19.757812 3.0292969 C 14.576998 4.3242579 9.4230033 4.3242579 4.2421875 3.0292969 A 1 1 0 0 0 3.9824219 3 z M 7 5.6210938 C 8.3325795 5.8227066 9.666187 5.9440649 11 5.984375 L 11 7 L 7 7 L 7 5.6210938 z M 17 5.6210938 L 17 7 L 13 7 L 13 5.984375 C 14.333813 5.9440648 15.66742 5.8227066 17 5.6210938 z " fill="currentColor"/>
</svg>
