<svg xmlns="http://www.w3.org/2000/svg" width="1em" height="1em" viewBox="0 0 24 24" fill="currentColor">
  <path d="M 6 2 C 3.8027056 2 2 3.8027056 2 6 C 2 8.1972944 3.8027056 10 6 10 L 11 10 L 11 14.585938 L 9.7070312 13.292969 A 1 1 0 0 0 9 13 A 1 1 0 0 0 8.2929688 13.292969 A 1 1 0 0 0 8.2929688 14.707031 L 11.283203 17.697266 L 11.292969 17.707031 A 1.0001 1.0001 0 0 0 11.341797 17.75 A 1 1 0 0 0 11.384766 17.787109 A 1.0001 1.0001 0 0 0 11.439453 17.824219 A 1 1 0 0 0 11.492188 17.861328 A 1.0001 1.0001 0 0 0 11.5 17.865234 A 1 1 0 0 0 11.611328 17.921875 A 1.0001 1.0001 0 0 0 11.617188 17.923828 A 1 1 0 0 0 11.742188 17.964844 A 1 1 0 0 0 11.794922 17.976562 A 1.0001 1.0001 0 0 0 12 18 A 1.0001 1.0001 0 0 0 12.205078 17.976562 A 1.0001 1.0001 0 0 0 12.257812 17.964844 A 1 1 0 0 0 12.382812 17.923828 A 1.0001 1.0001 0 0 0 12.560547 17.824219 A 1 1 0 0 0 12.615234 17.787109 A 1.0001 1.0001 0 0 0 12.658203 17.75 A 1 1 0 0 0 12.716797 17.697266 L 15.707031 14.707031 A 1 1 0 0 0 15.707031 13.292969 A 1 1 0 0 0 14.292969 13.292969 L 13 14.585938 L 13 10 L 18 10 C 20.197294 10 22 8.1972944 22 6 C 22 3.8027056 20.197294 2 18 2 L 6 2 z M 6 4 L 18 4 C 19.116414 4 20 4.8835859 20 6 C 20 7.1164141 19.116414 8 18 8 L 6 8 C 4.8835859 8 4 7.1164141 4 6 C 4 4.8835859 4.8835859 4 6 4 z M 3 17 A 1 1 0 0 0 2 18 C 2 20.197294 3.8027056 22 6 22 L 18 22 C 20.197294 22 22 20.197294 22 18 A 1 1 0 0 0 21 17 A 1 1 0 0 0 20 18 C 20 19.116414 19.116414 20 18 20 L 6 20 C 4.8835859 20 4 19.116414 4 18 A 1 1 0 0 0 3 17 z " fill="currentColor"/>
</svg>
