<svg xmlns="http://www.w3.org/2000/svg" width="1em" height="1em" viewBox="0 0 24 24" fill="currentColor">
  <path d="M 5 2 C 4.2777779 2 3.5421194 2.2353472 2.9609375 2.7519531 C 2.3797556 3.268559 2 4.0833335 2 5 C 2 5.9166665 2.3797556 6.731441 2.9609375 7.2480469 C 3.5421194 7.7646528 4.2777779 8 5 8 C 5.3360632 8 5.6750357 7.9483378 6 7.8417969 L 6 13 C 6 15.197294 7.8027056 17 10 17 L 11 17 A 1 1 0 0 0 12 16 A 1 1 0 0 0 11 15 L 10 15 C 8.8835859 15 8 14.116414 8 13 L 8 6 L 14.158203 6 C 14.321672 6.4985548 14.602974 6.9298576 14.960938 7.2480469 C 15.542118 7.7646528 16.277778 8 17 8 C 17.722222 8 18.457881 7.7646528 19.039062 7.2480469 C 19.620244 6.731441 20 5.9166665 20 5 C 20 4.0833335 19.620244 3.268559 19.039062 2.7519531 C 18.457881 2.2353472 17.722222 2 17 2 C 16.277778 2 15.542119 2.2353472 14.960938 2.7519531 C 14.602974 3.0701424 14.321672 3.5014452 14.158203 4 L 7.8417969 4 C 7.6783281 3.5014452 7.3970256 3.0701424 7.0390625 2.7519531 C 6.4578806 2.2353472 5.7222221 2 5 2 z M 5 4 C 5.2777779 4 5.5421194 4.0979864 5.7109375 4.2480469 C 5.8797556 4.3981073 6 4.5833337 6 5 C 6 5.4166663 5.8797556 5.6018927 5.7109375 5.7519531 C 5.5421194 5.9020136 5.2777779 6 5 6 C 4.7222221 6 4.4578806 5.9020136 4.2890625 5.7519531 C 4.1202444 5.6018927 4 5.4166663 4 5 C 4 4.5833337 4.1202444 4.3981073 4.2890625 4.2480469 C 4.4578806 4.0979864 4.7222221 4 5 4 z M 17 4 C 17.277778 4 17.542119 4.097986 17.710938 4.2480469 C 17.879756 4.3981073 18 4.5833337 18 5 C 18 5.4166663 17.879756 5.6018927 17.710938 5.7519531 C 17.542119 5.9020136 17.277778 6 17 6 C 16.722222 6 16.457881 5.9020136 16.289062 5.7519531 C 16.120245 5.6018933 16.000001 5.4166629 16 5 C 16 4.5833337 16.120244 4.3981073 16.289062 4.2480469 C 16.457881 4.0979864 16.722222 4 17 4 z M 16 10 A 1 1 0 0 0 15 11 A 1 1 0 0 0 14 12 A 1 1 0 0 0 15 13 L 15 19 A 1 1 0 0 0 14 20 A 1 1 0 0 0 15 21 A 1.0001 1.0001 0 0 0 17 21 L 18 21 A 1 1 0 0 0 19 22 A 1 1 0 0 0 20 21 L 20 20.849609 C 21.167634 20.449255 22 19.302176 22 18 C 22 17.230859 21.673626 16.538752 21.195312 16 C 21.673626 15.461248 22 14.769141 22 14 C 22 12.697824 21.167634 11.550745 20 11.150391 L 20 11 A 1 1 0 0 0 19 10 A 1 1 0 0 0 18 11 L 17 11 A 1 1 0 0 0 16 10 z M 17 13 L 19.089844 13 C 19.579283 13 20 13.410837 20 14 C 20 14.589163 19.579283 15 19.089844 15 L 17 15 L 17 13 z M 17 17 L 19.089844 17 C 19.579283 17 20 17.410837 20 18 C 20 18.589163 19.579283 19 19.089844 19 L 17 19 L 17 17 z " fill="currentColor"/>
</svg>
