<svg xmlns="http://www.w3.org/2000/svg" width="1em" height="1em" viewBox="0 0 24 24" fill="currentColor">
  <path d="M 9.4570312 3.0019531 A 1 1 0 0 0 8.7636719 3.3242188 L 3.2636719 9.3242188 A 1.0001 1.0001 0 0 0 4 11 L 20 11 A 1 1 0 0 0 21 10 A 1 1 0 0 0 20 9 L 6.2734375 9 L 10.236328 4.6757812 A 1 1 0 0 0 10.175781 3.2636719 A 1 1 0 0 0 9.4570312 3.0019531 z M 4 13 A 1 1 0 0 0 3 14 A 1 1 0 0 0 4 15 L 17.726562 15 L 13.763672 19.324219 A 1 1 0 0 0 13.824219 20.736328 A 1 1 0 0 0 15.236328 20.675781 L 20.736328 14.675781 A 1.0001 1.0001 0 0 0 20 13 L 4 13 z " fill="currentColor"/>
</svg>
