<svg xmlns="http://www.w3.org/2000/svg" width="1em" height="1em" viewBox="0 0 24 24" fill="currentColor">
  <path d="M 6 2 C 5.0277779 2 4.0421194 2.3186806 3.2734375 3.0019531 C 2.5047556 3.6852256 2 4.7500003 2 6 L 2 18 C 2 19.25 2.5047556 20.314774 3.2734375 20.998047 C 4.0421194 21.681319 5.0277779 22 6 22 C 6.9722221 22 7.9578806 21.681319 8.7265625 20.998047 C 9.4952444 20.314774 10 19.25 10 18 L 10 13 L 14.585938 13 L 13.292969 14.292969 A 1 1 0 0 0 13.292969 15.707031 A 1 1 0 0 0 14.707031 15.707031 L 17.697266 12.716797 A 1 1 0 0 0 17.707031 12.707031 A 1.0001 1.0001 0 0 0 17.785156 12.619141 A 1 1 0 0 0 17.792969 12.609375 A 1.0001 1.0001 0 0 0 17.861328 12.507812 A 1 1 0 0 0 17.865234 12.5 A 1.0001 1.0001 0 0 0 17.921875 12.388672 A 1 1 0 0 0 17.923828 12.382812 A 1 1 0 0 0 17.964844 12.257812 A 1.0001 1.0001 0 0 0 17.976562 12.205078 A 1.0001 1.0001 0 0 0 18 12 A 1.0001 1.0001 0 0 0 17.976562 11.794922 A 1.0001 1.0001 0 0 0 17.964844 11.742188 A 1 1 0 0 0 17.923828 11.617188 A 1.0001 1.0001 0 0 0 17.921875 11.611328 A 1 1 0 0 0 17.865234 11.5 A 1.0001 1.0001 0 0 0 17.861328 11.492188 A 1 1 0 0 0 17.792969 11.390625 A 1.0001 1.0001 0 0 0 17.785156 11.380859 A 1 1 0 0 0 17.707031 11.292969 L 17.697266 11.283203 L 14.707031 8.2929688 A 1 1 0 0 0 14 8 A 1 1 0 0 0 13.292969 8.2929688 A 1 1 0 0 0 13.292969 9.7070312 L 14.585938 11 L 10 11 L 10 6 C 10 4.7500003 9.4952444 3.6852256 8.7265625 3.0019531 C 7.9578806 2.3186806 6.9722221 2 6 2 z M 18 2 A 1 1 0 0 0 17 3 A 1 1 0 0 0 18 4 C 19.116414 4 20 4.8835859 20 6 L 20 18 C 20 19.116414 19.116414 20 18 20 A 1 1 0 0 0 17 21 A 1 1 0 0 0 18 22 C 20.197294 22 22 20.197294 22 18 L 22 6 C 22 3.8027056 20.197294 2 18 2 z M 6 4 C 6.5277779 4 7.0421194 4.1813198 7.3984375 4.4980469 C 7.7547556 4.8147739 8 5.2500005 8 6 L 8 18 C 8 18.749999 7.7547556 19.185226 7.3984375 19.501953 C 7.0421194 19.81868 6.5277779 20 6 20 C 5.4722221 20 4.9578806 19.81868 4.6015625 19.501953 C 4.2452444 19.185226 4 18.749999 4 18 L 4 6 C 4 5.2500005 4.2452444 4.8147739 4.6015625 4.4980469 C 4.9578806 4.1813198 5.4722221 4 6 4 z " fill="currentColor"/>
</svg>
