<svg xmlns="http://www.w3.org/2000/svg" width="1em" height="1em" viewBox="0 0 24 24" fill="currentColor">
  <path d="M 11.933594 2.0019531 A 1.0001 1.0001 0 0 0 11.552734 2.1054688 L 3.5527344 6.1054688 A 1.0001 1.0001 0 0 0 3 7 L 3 10 A 1 1 0 0 0 4 11 A 1 1 0 0 0 5 10 L 5 7.6171875 L 12 4.1171875 L 19 7.6171875 L 19 20 L 5 20 L 5 18 A 1 1 0 0 0 4 17 A 1 1 0 0 0 3 18 L 3 21 A 1.0001 1.0001 0 0 0 4 22 L 20 22 A 1.0001 1.0001 0 0 0 21 21 L 21 7 A 1.0001 1.0001 0 0 0 20.447266 6.1054688 L 12.447266 2.1054688 A 1.0001 1.0001 0 0 0 11.933594 2.0019531 z M 10 10 A 1 1 0 0 0 9.2929688 10.292969 A 1 1 0 0 0 9.2929688 11.707031 L 10.585938 13 L 4 13 A 1 1 0 0 0 3 14 A 1 1 0 0 0 4 15 L 10.585938 15 L 9.2929688 16.292969 A 1 1 0 0 0 9.2929688 17.707031 A 1 1 0 0 0 10.707031 17.707031 L 13.697266 14.716797 A 1 1 0 0 0 13.707031 14.707031 A 1.0001 1.0001 0 0 0 13.785156 14.619141 A 1 1 0 0 0 13.792969 14.609375 A 1.0001 1.0001 0 0 0 13.861328 14.507812 A 1 1 0 0 0 13.865234 14.5 A 1.0001 1.0001 0 0 0 13.921875 14.388672 A 1 1 0 0 0 13.923828 14.382812 A 1 1 0 0 0 13.964844 14.257812 A 1.0001 1.0001 0 0 0 13.976562 14.205078 A 1.0001 1.0001 0 0 0 14 14 A 1.0001 1.0001 0 0 0 13.976562 13.794922 A 1.0001 1.0001 0 0 0 13.964844 13.742188 A 1 1 0 0 0 13.923828 13.617188 A 1.0001 1.0001 0 0 0 13.921875 13.611328 A 1 1 0 0 0 13.865234 13.5 A 1.0001 1.0001 0 0 0 13.861328 13.492188 A 1 1 0 0 0 13.792969 13.390625 A 1.0001 1.0001 0 0 0 13.785156 13.380859 A 1 1 0 0 0 13.707031 13.292969 L 13.697266 13.283203 L 10.707031 10.292969 A 1 1 0 0 0 10 10 z " fill="currentColor"/>
</svg>
