<svg xmlns="http://www.w3.org/2000/svg" width="1em" height="1em" viewBox="0 0 24 24" fill="currentColor">
  <path d="M 10 2 C 8.9072751 2 8 2.9072751 8 4 L 8 6 L 4 6 A 1 1 0 0 0 3 7 A 1 1 0 0 0 4 8 L 4.0800781 8 L 5 19.037109 C 5.0198832 20.665598 6.3671855 22 8 22 L 16 22 C 17.632789 22 18.980076 20.665563 19 19.037109 L 19.919922 8 L 20 8 A 1 1 0 0 0 21 7 A 1 1 0 0 0 20 6 L 16 6 L 16 4 C 16 2.9072751 15.092725 2 14 2 L 10 2 z M 10 4 L 14 4 L 14 6 L 10 6 L 10 4 z M 6.0859375 8 L 17.914062 8 L 17.003906 18.916016 A 1.0001 1.0001 0 0 0 17 19 C 17 19.564129 16.564129 20 16 20 L 8 20 C 7.4358706 20 7 19.564129 7 19 A 1.0001 1.0001 0 0 0 6.9960938 18.916016 L 6.0859375 8 z M 10 11 A 1 1 0 0 0 9.2929688 11.292969 A 1 1 0 0 0 9.2929688 12.707031 L 10.585938 14 L 9.2929688 15.292969 A 1 1 0 0 0 9.2929688 16.707031 A 1 1 0 0 0 10.707031 16.707031 L 12 15.414062 L 13.292969 16.707031 A 1 1 0 0 0 14.707031 16.707031 A 1 1 0 0 0 14.707031 15.292969 L 13.414062 14 L 14.707031 12.707031 A 1 1 0 0 0 14.707031 11.292969 A 1 1 0 0 0 13.292969 11.292969 L 12 12.585938 L 10.707031 11.292969 A 1 1 0 0 0 10 11 z " fill="currentColor"/>
</svg>
