<svg xmlns="http://www.w3.org/2000/svg" width="1em" height="1em" viewBox="0 0 24 24" fill="currentColor">
  <path d="M 5.9902344 2.0019531 C 5.0697697 2.0101915 4.1791336 2.3364979 3.4941406 2.8867188 C 2.2968712 3.8484257 1.7078806 5.5674143 2.2675781 7.2441406 C 0.8029037 8.7166626 0.705483 11.045134 2.1035156 12.617188 C 1.8966559 14.819057 3.4899244 16.864801 5.765625 16.998047 A 1 1 0 0 0 5.7792969 16.994141 A 1 1 0 0 0 5.7949219 17 L 5.9707031 17.003906 A 1.0001 1.0001 0 0 0 6 17.005859 L 7 17.005859 L 7 21 A 1 1 0 0 0 8 22 A 1 1 0 0 0 9 21 L 9 17.005859 L 10 17.005859 C 12.369173 17.006345 14.102545 14.907795 13.892578 12.623047 C 15.295188 11.051055 15.196735 8.7180958 13.730469 7.2441406 C 14.289022 5.5680558 13.700528 3.8500669 12.503906 2.8886719 C 11.310736 1.9300498 9.5137714 1.7239765 8 2.6210938 C 7.3547676 2.2381264 6.6739145 1.995834 5.9902344 2.0019531 z M 5.9667969 3.9550781 C 6.4086309 3.9422581 6.8758184 4.1055638 7.3339844 4.515625 A 1.0001 1.0001 0 0 0 8.6660156 4.515625 C 9.5822093 3.6971094 10.530898 3.8679519 11.251953 4.4472656 C 11.973008 5.0265789 12.344093 5.9153065 11.742188 6.9863281 A 1.0001 1.0001 0 0 0 12.076172 8.3203125 C 13.240476 9.0642062 13.340846 10.656653 12.279297 11.541016 A 1.0001 1.0001 0 0 0 11.945312 12.541016 C 12.250056 13.820672 11.315444 15.006129 10 15.005859 L 9 15.005859 L 9 12.414062 L 10.707031 10.707031 A 1 1 0 0 0 10.707031 9.2929688 A 1 1 0 0 0 10 9 A 1 1 0 0 0 9.2929688 9.2929688 L 9 9.5859375 L 9 8 A 1 1 0 0 0 8 7 A 1 1 0 0 0 7 8 L 7 10.585938 L 6.7070312 10.292969 A 1 1 0 0 0 6 10 A 1 1 0 0 0 5.2929688 10.292969 A 1 1 0 0 0 5.2929688 11.707031 L 7 13.414062 L 7 15.005859 L 6.0136719 15.005859 L 5.8828125 15.001953 L 5.8808594 15.001953 C 4.620038 14.927001 3.7619484 13.77002 4.0546875 12.541016 A 1.0001 1.0001 0 0 0 3.7207031 11.541016 C 2.6590127 10.656874 2.7597175 9.0644493 3.9238281 8.3203125 A 1.0001 1.0001 0 0 0 4.2558594 6.9863281 C 3.6526403 5.9146977 4.0245177 5.0249187 4.7460938 4.4453125 C 5.1068818 4.1555094 5.5249623 3.967898 5.9667969 3.9550781 z M 16 4 A 1 1 0 0 0 15.292969 4.2929688 A 1 1 0 0 0 15.292969 5.7070312 L 17.3125 7.7265625 L 16.552734 8.1054688 A 1.0001 1.0001 0 0 0 16.292969 9.7070312 L 19.148438 12.5625 L 17.683594 13.050781 A 1.0001 1.0001 0 0 0 17.292969 14.707031 L 19.585938 17 L 13 17 A 1 1 0 0 0 12 18 A 1 1 0 0 0 13 19 L 14 19 L 14 21 A 1 1 0 0 0 15 22 A 1 1 0 0 0 16 21 L 16 19 L 22 19 A 1.0001 1.0001 0 0 0 22.707031 17.292969 L 19.851562 14.4375 L 21.316406 13.949219 A 1.0001 1.0001 0 0 0 21.707031 12.292969 L 18.6875 9.2734375 L 19.447266 8.8945312 A 1.0001 1.0001 0 0 0 19.707031 7.2929688 L 16.707031 4.2929688 A 1 1 0 0 0 16 4 z " fill="currentColor"/>
</svg>
