<svg xmlns="http://www.w3.org/2000/svg" width="1em" height="1em" viewBox="0 0 24 24" fill="currentColor">
  <path d="M 3 5 A 1 1 0 0 0 2 6 A 1 1 0 0 0 3 7 L 7.4785156 7 L 14.181641 16.574219 A 1.0001 1.0001 0 0 0 15 17 L 18.585938 17 L 17.292969 18.292969 A 1 1 0 0 0 17.292969 19.707031 A 1 1 0 0 0 18.707031 19.707031 L 21.697266 16.716797 A 1 1 0 0 0 21.707031 16.707031 A 1.0001 1.0001 0 0 0 21.785156 16.619141 A 1 1 0 0 0 21.792969 16.609375 A 1.0001 1.0001 0 0 0 21.861328 16.507812 A 1 1 0 0 0 21.865234 16.5 A 1.0001 1.0001 0 0 0 21.921875 16.388672 A 1 1 0 0 0 21.923828 16.382812 A 1 1 0 0 0 21.964844 16.257812 A 1.0001 1.0001 0 0 0 21.976562 16.205078 A 1.0001 1.0001 0 0 0 22 16 A 1.0001 1.0001 0 0 0 21.976562 15.794922 A 1.0001 1.0001 0 0 0 21.964844 15.742188 A 1 1 0 0 0 21.923828 15.617188 A 1.0001 1.0001 0 0 0 21.921875 15.611328 A 1 1 0 0 0 21.865234 15.5 A 1.0001 1.0001 0 0 0 21.861328 15.492188 A 1 1 0 0 0 21.792969 15.390625 A 1.0001 1.0001 0 0 0 21.785156 15.380859 A 1 1 0 0 0 21.707031 15.292969 L 21.697266 15.283203 L 18.707031 12.292969 A 1 1 0 0 0 17.292969 12.292969 A 1 1 0 0 0 17.292969 13.707031 L 18.585938 15 L 15.521484 15 L 8.8183594 5.4257812 A 1.0001 1.0001 0 0 0 8 5 L 3 5 z " fill="currentColor"/>
</svg>
