<svg xmlns="http://www.w3.org/2000/svg" width="1em" height="1em" viewBox="0 0 24 24" fill="currentColor">
  <path d="M 18 4 A 1 1 0 0 0 17.292969 4.2929688 A 1 1 0 0 0 17.292969 5.7070312 L 18.585938 7 L 17.603516 7 C 15.646674 7.0001479 13.809553 7.9573542 12.6875 9.5605469 L 8.6738281 15.292969 C 7.9247968 16.363187 6.7027824 16.999901 5.3964844 17 L 3 17 A 1 1 0 0 0 2 18 A 1 1 0 0 0 3 19 L 5.3964844 19 C 7.3533262 18.999852 9.1904469 18.042646 10.3125 16.439453 L 14.326172 10.707031 C 15.075203 9.6368135 16.297218 9.0000987 17.603516 9 L 18.585938 9 L 17.292969 10.292969 A 1 1 0 0 0 17.292969 11.707031 A 1 1 0 0 0 18.707031 11.707031 L 21.697266 8.7167969 A 1 1 0 0 0 21.707031 8.7070312 A 1.0001 1.0001 0 0 0 21.785156 8.6191406 A 1 1 0 0 0 21.792969 8.609375 A 1.0001 1.0001 0 0 0 21.861328 8.5078125 A 1 1 0 0 0 21.865234 8.5 A 1.0001 1.0001 0 0 0 21.921875 8.3886719 A 1 1 0 0 0 21.923828 8.3828125 A 1 1 0 0 0 21.964844 8.2578125 A 1.0001 1.0001 0 0 0 21.976562 8.2050781 A 1.0001 1.0001 0 0 0 22 8 A 1.0001 1.0001 0 0 0 21.976562 7.7949219 A 1.0001 1.0001 0 0 0 21.964844 7.7421875 A 1 1 0 0 0 21.923828 7.6171875 A 1.0001 1.0001 0 0 0 21.921875 7.6113281 A 1 1 0 0 0 21.865234 7.5 A 1.0001 1.0001 0 0 0 21.861328 7.4921875 A 1 1 0 0 0 21.792969 7.390625 A 1.0001 1.0001 0 0 0 21.785156 7.3808594 A 1 1 0 0 0 21.707031 7.2929688 L 21.697266 7.2832031 L 18.707031 4.2929688 A 1 1 0 0 0 18 4 z " fill="currentColor"/>
</svg>
