<svg xmlns="http://www.w3.org/2000/svg" width="1em" height="1em" viewBox="0 0 24 24" fill="currentColor">
  <path d="M 11.736328 2.0351562 A 1 1 0 0 0 11.634766 2.1152344 A 1 1 0 0 0 11.503906 2.1308594 A 1 1 0 0 0 11.341797 2.3417969 A 1 1 0 0 0 11.130859 2.5039062 L 7.1308594 9.5039062 A 1.0001 1.0001 0 0 0 8 11 L 16 11 A 1.0001 1.0001 0 0 0 16.869141 9.5039062 L 12.869141 2.5039062 A 1 1 0 0 0 12.658203 2.3417969 A 1 1 0 0 0 12.496094 2.1308594 A 1 1 0 0 0 12.365234 2.1152344 A 1 1 0 0 0 12 2.0683594 A 1 1 0 0 0 11.736328 2.0351562 z M 12 5.0175781 L 14.275391 9 L 9.7246094 9 L 12 5.0175781 z M 5 13 C 3.9072751 13 3 13.907275 3 15 L 3 19 C 3 20.092725 3.9072751 21 5 21 L 9 21 C 10.092725 21 11 20.092725 11 19 L 11 15 C 11 13.907275 10.092725 13 9 13 L 5 13 z M 17 13 C 16.027778 13 15.042119 13.318681 14.273438 14.001953 C 13.504755 14.685226 13 15.75 13 17 C 13 18.25 13.504756 19.314774 14.273438 19.998047 C 15.042118 20.681319 16.027778 21 17 21 C 17.972222 21 18.957881 20.681319 19.726562 19.998047 C 20.495244 19.314774 21 18.25 21 17 C 21 15.75 20.495244 14.685226 19.726562 14.001953 C 18.957881 13.318681 17.972222 13 17 13 z M 5 15 L 9 15 L 9 19 L 5 19 L 5 15 z M 17 15 C 17.527778 15 18.042119 15.18132 18.398438 15.498047 C 18.754756 15.814774 19 16.250001 19 17 C 19 17.749999 18.754756 18.185226 18.398438 18.501953 C 18.042119 18.81868 17.527778 19 17 19 C 16.472222 19 15.957881 18.81868 15.601562 18.501953 C 15.245243 18.185226 15 17.749999 15 17 C 15 16.250001 15.245244 15.814774 15.601562 15.498047 C 15.95788 15.18132 16.472222 15 17 15 z " fill="currentColor"/>
</svg>
