<svg xmlns="http://www.w3.org/2000/svg" width="1em" height="1em" viewBox="0 0 24 24" fill="currentColor">
  <path d="M 5.0761719 2.0039062 C 4.798791 1.9977669 4.5268534 2.0332713 4.2675781 2.1035156 C 2.7119266 2.5249817 1.5852443 4.2186504 2.1523438 5.9199219 L 4.8339844 13.964844 C 5.5210165 16.025085 8.2298657 16.664501 9.765625 15.128906 L 11.740234 13.154297 L 15.273438 16.6875 C 15.10187 17.030144 14.992636 17.409646 14.96875 17.814453 C 14.92353 18.580794 15.228442 19.415712 15.867188 20.054688 L 16.947266 21.132812 C 17.58601 21.771788 18.419189 22.076191 19.185547 22.03125 C 19.951904 21.98631 20.629024 21.636419 21.132812 21.132812 C 21.636602 20.629206 21.986032 19.951888 22.03125 19.185547 C 22.07647 18.419206 21.77351 17.586241 21.134766 16.947266 A 1.0001 1.0001 0 0 0 21.132812 16.947266 L 20.054688 15.867188 C 19.415944 15.228212 18.582764 14.925762 17.816406 14.970703 C 17.411567 14.994443 17.030651 15.102305 16.6875 15.273438 L 13.154297 11.740234 L 15.125 9.7675781 L 15.126953 9.765625 A 1 1 0 0 0 15.128906 9.765625 C 16.662789 8.229835 16.023745 5.5234365 13.964844 4.8359375 L 5.9199219 2.1542969 A 1.0001 1.0001 0 0 0 5.9199219 2.1523438 C 5.6363766 2.0578256 5.3535527 2.0100456 5.0761719 2.0039062 z M 4.9863281 3.9902344 C 5.0835114 3.9961404 5.1840738 4.0164355 5.2871094 4.0507812 L 13.332031 6.7324219 C 14.060724 6.9757436 14.2558 7.8080121 13.712891 8.3515625 L 11.738281 10.324219 L 10.707031 9.2929688 A 1 1 0 0 0 10 9 A 1 1 0 0 0 9.2929688 9.2929688 A 1 1 0 0 0 9.2929688 10.707031 L 10.324219 11.738281 L 8.3515625 13.712891 C 7.8079548 14.25644 6.9756084 14.061288 6.7324219 13.332031 L 4.0488281 5.2871094 C 3.8084081 4.5658606 4.3060451 3.948892 4.9863281 3.9902344 z M 18.013672 16.964844 C 18.20103 16.968595 18.389967 17.033115 18.638672 17.28125 L 18.640625 17.28125 A 1 1 0 0 0 18.640625 17.283203 L 19.720703 18.361328 C 20.005958 18.646686 20.047876 18.852784 20.035156 19.068359 C 20.022436 19.283935 19.908212 19.529356 19.71875 19.71875 C 19.529288 19.908144 19.283939 20.022514 19.068359 20.035156 C 18.85278 20.047796 18.646583 20.004106 18.361328 19.71875 L 17.28125 18.640625 L 17.28125 18.638672 C 16.997768 18.354336 16.954106 18.148672 16.966797 17.933594 C 16.979517 17.718019 17.091788 17.470644 17.28125 17.28125 C 17.470712 17.091856 17.718014 16.979439 17.933594 16.966797 C 17.960479 16.965221 17.986906 16.964308 18.013672 16.964844 z " fill="currentColor"/>
</svg>
