<svg xmlns="http://www.w3.org/2000/svg" width="1em" height="1em" viewBox="0 0 24 24" fill="currentColor">
  <path d="M 11 3 A 1.0001 1.0001 0 0 0 10.064453 3.6484375 L 4.3085938 19 L 4 19 A 1 1 0 0 0 3 20 A 1 1 0 0 0 4 21 L 7 21 A 1 1 0 0 0 8 20 A 1 1 0 0 0 7 19 L 6.4433594 19 L 7.5683594 16 L 13.220703 16 L 14.492188 19 L 14 19 A 1 1 0 0 0 13 20 A 1 1 0 0 0 14 21 L 20.019531 21 L 21 21 A 1 1 0 0 0 22 20 A 1 1 0 0 0 21 19 L 20.654297 19 L 13.916016 3.5996094 A 1.0001 1.0001 0 0 0 13 3 L 11 3 z M 11.693359 5 L 12.345703 5 L 18.470703 19 L 16.662109 19 L 11.244141 6.1992188 L 11.693359 5 z M 10.222656 8.9199219 L 12.375 14 L 8.3183594 14 L 10.222656 8.9199219 z " fill="currentColor"/>
</svg>
