<svg xmlns="http://www.w3.org/2000/svg" width="1em" height="1em" viewBox="0 0 24 24" fill="currentColor">
  <path d="M 3 2 A 1 1 0 0 0 2.2929688 2.2929688 A 1 1 0 0 0 2.2929688 3.7070312 L 7.9296875 9.34375 L 4.3085938 19 L 4 19 A 1 1 0 0 0 3 20 A 1 1 0 0 0 4 21 L 7 21 A 1 1 0 0 0 8 20 A 1 1 0 0 0 7 19 L 6.4414062 19 L 7.5664062 16 L 13.197266 16 L 14.482422 19 L 14 19 A 1 1 0 0 0 13 20 A 1 1 0 0 0 14 21 L 19.585938 21 L 20.292969 21.707031 A 1 1 0 0 0 21.707031 21.707031 A 1 1 0 0 0 21.707031 20.292969 L 20.716797 19.302734 A 1 1 0 0 0 20.697266 19.283203 L 13.744141 12.330078 A 1 1 0 0 0 13.669922 12.255859 L 3.7070312 2.2929688 A 1 1 0 0 0 3 2 z M 11 3 A 1.0001 1.0001 0 0 0 10.064453 3.6484375 L 9.2441406 5.8320312 A 1 1 0 0 0 9.8300781 7.1191406 A 1 1 0 0 0 11.117188 6.5351562 L 11.693359 5 L 12.345703 5 L 15.988281 13.324219 A 1 1 0 0 0 17.304688 13.839844 A 1 1 0 0 0 17.820312 12.523438 L 13.916016 3.5996094 A 1.0001 1.0001 0 0 0 13 3 L 11 3 z M 9.4804688 10.894531 L 12.154297 13.568359 L 12.339844 14 L 8.3164062 14 L 9.4804688 10.894531 z M 15.966797 17.380859 L 17.585938 19 L 16.660156 19 L 15.966797 17.380859 z " fill="currentColor"/>
</svg>
