<svg xmlns="http://www.w3.org/2000/svg" width="1em" height="1em" viewBox="0 0 24 24" fill="currentColor">
  <path d="M 12 2 A 1.0001 1.0001 0 0 0 11.21875 2.375 L 9.21875 4.875 A 1 1 0 0 0 9.0527344 5.4472656 A 1 1 0 0 0 9 5.5 A 1 1 0 0 0 9.0292969 5.5292969 A 1 1 0 0 0 9.375 6.28125 A 1 1 0 0 0 9.7402344 6.2402344 A 1 1 0 0 0 10 6.5 L 11 6.5 L 11 14.234375 L 8 12.433594 L 8 10.748047 C 8.1228972 10.679927 8.2408659 10.596444 8.3515625 10.498047 C 8.7452444 10.148108 9 9.5833333 9 9 C 9 8.4166667 8.7452444 7.8518924 8.3515625 7.5019531 C 7.9578806 7.1520138 7.4722221 7 7 7 C 6.5277779 7 6.0421194 7.1520138 5.6484375 7.5019531 C 5.2547556 7.8518924 5 8.4166667 5 9 C 5 9.5833333 5.2547556 10.148108 5.6484375 10.498047 C 5.7591341 10.596444 5.8771028 10.679927 6 10.748047 L 6 13 A 1.0001 1.0001 0 0 0 6.4863281 13.857422 L 10.595703 16.322266 C 10.370757 16.434323 10.157134 16.577556 9.9609375 16.751953 C 9.3797556 17.268559 9 18.083334 9 19 C 9 19.916666 9.3797556 20.731441 9.9609375 21.248047 C 10.542119 21.764653 11.277778 22 12 22 C 12.722222 22 13.45788 21.764653 14.039062 21.248047 C 14.620243 20.731441 15 19.916666 15 19 C 15 18.083334 14.620244 17.268559 14.039062 16.751953 C 13.728315 16.475733 13.373406 16.280626 13 16.158203 L 13 15.175781 L 17.371094 13.427734 A 1.0001 1.0001 0 0 0 18 12.5 L 18 11 A 1.0001 1.0001 0 0 0 19 10 L 19 8 A 1.0001 1.0001 0 0 0 18 7 L 16 7 A 1.0001 1.0001 0 0 0 15 8 L 15 10 A 1 1 0 0 0 16 11 L 16 11.822266 L 13 13.023438 L 13 6.5 L 14 6.5 A 1.0001 1.0001 0 0 0 14.78125 4.875 L 12.78125 2.375 A 1.0001 1.0001 0 0 0 12 2 z M 12 18 C 12.277778 18 12.542119 18.09799 12.710938 18.248047 C 12.879755 18.398107 13 18.583334 13 19 C 13 19.416666 12.879756 19.601893 12.710938 19.751953 C 12.542118 19.902014 12.277778 20 12 20 C 11.722222 20 11.45788 19.902014 11.289062 19.751953 C 11.120243 19.601893 11 19.416666 11 19 C 11 18.583334 11.120244 18.398107 11.289062 18.248047 C 11.457879 18.097987 11.722224 18.000001 12 18 z " fill="currentColor"/>
</svg>
