<svg xmlns="http://www.w3.org/2000/svg" width="1em" height="1em" viewBox="0 0 24 24" fill="currentColor">
  <path d="M 12 2 C 10.777778 2 9.5421194 2.402014 8.5859375 3.2519531 C 7.6297556 4.1018922 7 5.4166671 7 7 C 7 8.5833329 7.6297556 9.8981077 8.5859375 10.748047 C 9.5421194 11.597986 10.777778 12 12 12 C 13.222222 12 14.45788 11.597986 15.414062 10.748047 C 16.370244 9.8981077 17 8.5833329 17 7 C 17 5.4166671 16.370244 4.1018922 15.414062 3.2519531 C 14.45788 2.402014 13.222222 2 12 2 z M 12 4 C 12.777778 4 13.542119 4.2646532 14.085938 4.7480469 C 14.629755 5.2314405 15 5.9166674 15 7 C 15 8.0833326 14.629756 8.7685595 14.085938 9.2519531 C 13.542118 9.7353468 12.777778 10 12 10 C 11.222222 10 10.457881 9.7353468 9.9140625 9.2519531 C 9.3702444 8.7685595 9 8.0833326 9 7 C 9 5.9166674 9.3702444 5.2314405 9.9140625 4.7480469 C 10.457881 4.2646532 11.222222 4 12 4 z M 10 14 C 7.2504209 14 5 16.250421 5 19 L 5 21 A 1 1 0 0 0 6 22 A 1 1 0 0 0 7 21 L 7 19 C 7 17.331301 8.3313011 16 10 16 L 13.5 16 A 1 1 0 0 0 14.5 15 A 1 1 0 0 0 13.5 14 L 10 14 z M 18.916016 14.003906 C 18.751818 14.009427 18.588579 14.028365 18.427734 14.060547 C 17.784358 14.189275 17.18203 14.528141 16.736328 15.054688 A 1 1 0 0 0 16.853516 16.464844 A 1 1 0 0 0 18.263672 16.347656 C 18.561037 15.996354 19.047152 15.898544 19.457031 16.107422 C 19.987605 16.383365 20.073808 16.797707 19.96875 17.232422 C 19.863486 17.667988 19.596602 17.998082 18.996094 18 A 1 1 0 0 0 18 19.003906 A 1 1 0 0 0 19.003906 20 C 20.498615 19.9952 21.618946 18.916192 21.912109 17.703125 C 22.205273 16.490058 21.700614 15.016915 20.373047 14.330078 A 1.0001 1.0001 0 0 0 20.369141 14.328125 C 19.908652 14.092234 19.408609 13.987344 18.916016 14.003906 z M 19 21 A 1 1 0 0 0 18 22 L 18 22.009766 A 1 1 0 0 0 19 23.009766 A 1 1 0 0 0 20 22.009766 L 20 22 A 1 1 0 0 0 19 21 z " fill="currentColor"/>
</svg>
