<svg xmlns="http://www.w3.org/2000/svg" width="1em" height="1em" viewBox="0 0 24 24" fill="currentColor">
  <path d="M 5 2 C 3.3549904 2 2 3.3549904 2 5 L 2 19 C 2 20.64501 3.3549904 22 5 22 L 6 22 L 18 22 L 19 22 C 20.64501 22 22 20.64501 22 19 L 22 5 C 22 3.3549904 20.64501 2 19 2 L 5 2 z M 5 4 L 19 4 C 19.564129 4 20 4.4358706 20 5 L 20 19 C 20 19.564129 19.564129 20 19 20 C 19 17.250421 16.749579 15 14 15 L 10 15 C 7.2504209 15 5 17.250421 5 20 C 4.4358706 20 4 19.564129 4 19 L 4 5 C 4 4.4358706 4.4358706 4 5 4 z M 12 6 C 11.027778 6 10.042119 6.3186806 9.2734375 7.0019531 C 8.5047556 7.6852256 8 8.7500003 8 10 C 8 11.25 8.5047556 12.314774 9.2734375 12.998047 C 10.042119 13.681319 11.027778 14 12 14 C 12.972222 14 13.95788 13.681319 14.726562 12.998047 C 15.495243 12.314774 16 11.25 16 10 C 16 8.7500003 15.495244 7.6852256 14.726562 7.0019531 C 13.95788 6.3186806 12.972222 6 12 6 z M 12 8 C 12.527778 8 13.042119 8.1813198 13.398438 8.4980469 C 13.754755 8.8147739 14 9.2500005 14 10 C 14 10.749999 13.754756 11.185226 13.398438 11.501953 C 13.042118 11.81868 12.527778 12 12 12 C 11.472222 12 10.95788 11.81868 10.601562 11.501953 C 10.245243 11.185226 10 10.749999 10 10 C 10 9.2500005 10.245244 8.8147739 10.601562 8.4980469 C 10.95788 8.1813198 11.472222 8 12 8 z M 10 17 L 14 17 C 15.668699 17 17 18.331301 17 20 L 7 20 C 7 18.331301 8.3313011 17 10 17 z " fill="currentColor"/>
</svg>
