<svg xmlns="http://www.w3.org/2000/svg" width="1em" height="1em" viewBox="0 0 24 24" fill="currentColor">
  <path d="M 12.033203 1 C 11.479213 1 10.925633 1.1384646 10.425781 1.4140625 A 1.0001 1.0001 0 0 0 10.400391 1.4277344 L 3.6757812 5.3945312 C 2.6460762 5.9605089 2 7.0427371 2 8.2167969 L 2 15.501953 A 1.0001 1.0001 0 0 0 2 15.503906 C 2.00236 16.679062 2.6465154 17.76458 3.6777344 18.328125 L 5.6054688 19.548828 A 1 1 0 0 0 5.7246094 19.623047 L 10.373047 22.564453 A 1.0001 1.0001 0 0 0 10.425781 22.595703 C 11.4045 23.133054 12.5955 23.133054 13.574219 22.595703 A 1.0001 1.0001 0 0 0 13.626953 22.564453 L 20.351562 18.310547 C 21.365877 17.740112 22 16.665537 22 15.501953 L 22 8.2246094 C 22.007 7.0954104 21.402135 6.0607642 20.443359 5.4726562 A 1.0001 1.0001 0 0 0 20.416016 5.4082031 L 13.666016 1.4277344 A 1.0001 1.0001 0 0 0 13.640625 1.4140625 C 13.14077 1.1384646 12.587194 1 12.033203 1 z M 12.033203 3.0019531 C 12.253532 3.0019531 12.473862 3.0561651 12.673828 3.1660156 L 19.353516 7.1035156 A 1 1 0 0 0 19.380859 7.1386719 C 19.767665 7.3586239 20.002764 7.7658565 20 8.2109375 A 1.0001 1.0001 0 0 0 20 8.21875 L 20 15.501953 C 20 15.945893 19.759043 16.354541 19.359375 16.574219 A 1.0001 1.0001 0 0 0 19.306641 16.605469 L 18.208984 17.298828 C 17.303534 15.890709 15.727147 14.999438 14 15 L 10 15 C 8.2726082 14.999435 6.6960716 15.890508 5.7910156 17.298828 L 4.6933594 16.605469 A 1.0001 1.0001 0 0 0 4.6367188 16.572266 C 4.2433998 16.35732 4.0015513 15.950063 4 15.501953 L 4 8.2167969 C 4 7.7728566 4.24033 7.3665067 4.640625 7.1464844 A 1.0001 1.0001 0 0 0 4.6660156 7.1308594 L 11.390625 3.1660156 L 11.392578 3.1660156 C 11.592545 3.0561651 11.812874 3.0019531 12.033203 3.0019531 z M 12 6 C 10.75 6 9.6852256 6.5047556 9.0019531 7.2734375 C 8.3186806 8.0421194 8 9.0277779 8 10 C 8 10.972222 8.3186806 11.957881 9.0019531 12.726562 C 9.6852256 13.495243 10.75 14 12 14 C 13.25 14 14.314774 13.495244 14.998047 12.726562 C 15.681319 11.95788 16 10.972222 16 10 C 16 9.0277779 15.681319 8.0421194 14.998047 7.2734375 C 14.314774 6.5047556 13.25 6 12 6 z M 12 8 C 12.749999 8 13.185226 8.2452444 13.501953 8.6015625 C 13.81868 8.9578806 14 9.4722221 14 10 C 14 10.527778 13.81868 11.042119 13.501953 11.398438 C 13.185226 11.754755 12.749999 12 12 12 C 11.250001 12 10.814774 11.754756 10.498047 11.398438 C 10.18132 11.042118 10 10.527778 10 10 C 10 9.4722221 10.18132 8.9578806 10.498047 8.6015625 C 10.814774 8.2452444 11.250001 8 12 8 z M 10 17 L 14 17 C 15.037031 16.999663 15.975905 17.526448 16.519531 18.367188 L 12.605469 20.84375 C 12.226883 21.04922 11.773117 21.04922 11.394531 20.84375 L 7.4804688 18.369141 C 8.0238261 17.528234 8.9627055 16.999661 10 17 z " fill="currentColor"/>
</svg>
