<svg xmlns="http://www.w3.org/2000/svg" width="1em" height="1em" viewBox="0 0 24 24" fill="currentColor">
  <path d="M 7 2 C 6.2777779 2 5.5421194 2.2353472 4.9609375 2.7519531 C 4.3797556 3.268559 4 4.0833335 4 5 C 4 5.9166665 4.3797556 6.731441 4.9609375 7.2480469 C 5.5421194 7.7646528 6.2777779 8 7 8 C 7.7222221 8 8.4578806 7.7646528 9.0390625 7.2480469 C 9.6202444 6.731441 10 5.9166665 10 5 C 10 4.0833335 9.6202444 3.268559 9.0390625 2.7519531 C 8.4578806 2.2353472 7.7222221 2 7 2 z M 17 2 C 16.277778 2 15.542119 2.2353472 14.960938 2.7519531 C 14.379755 3.268559 14 4.0833335 14 5 C 14 5.9166665 14.379756 6.731441 14.960938 7.2480469 C 15.542118 7.7646528 16.277778 8 17 8 C 17.722222 8 18.457881 7.7646528 19.039062 7.2480469 C 19.620244 6.731441 20 5.9166665 20 5 C 20 4.0833335 19.620244 3.268559 19.039062 2.7519531 C 18.457881 2.2353472 17.722222 2 17 2 z M 7 4 C 7.2777779 4 7.5421194 4.0979864 7.7109375 4.2480469 C 7.8797556 4.3981073 8 4.5833337 8 5 C 8 5.4166663 7.8797556 5.6018927 7.7109375 5.7519531 C 7.5421194 5.9020136 7.2777779 6 7 6 C 6.7222221 6 6.4578806 5.9020136 6.2890625 5.7519531 C 6.1202444 5.6018927 6 5.4166663 6 5 C 6 4.5833337 6.1202444 4.3981073 6.2890625 4.2480469 C 6.4578806 4.0979864 6.7222221 4 7 4 z M 17 4 C 17.277778 4 17.542119 4.097986 17.710938 4.2480469 C 17.879756 4.3981073 18 4.5833337 18 5 C 18 5.4166663 17.879756 5.6018927 17.710938 5.7519531 C 17.542119 5.9020136 17.277778 6 17 6 C 16.722222 6 16.457881 5.9020136 16.289062 5.7519531 C 16.120244 5.6018927 16 5.4166663 16 5 C 16 4.5833337 16.120244 4.3981073 16.289062 4.2480469 C 16.457881 4.0979864 16.722222 4 17 4 z M 5 9 C 3.3549904 9 2 10.35499 2 12 L 2 13 A 1 1 0 0 0 3 14 A 1 1 0 0 0 4 13 L 4 12 C 4 11.435871 4.4358706 11 5 11 L 7 11 A 1 1 0 0 0 8 10 A 1 1 0 0 0 7 9 L 5 9 z M 17 9 A 1 1 0 0 0 16 10 A 1 1 0 0 0 17 11 L 19 11 C 19.564129 11 20 11.435871 20 12 L 20 13 A 1 1 0 0 0 21 14 A 1 1 0 0 0 22 13 L 22 12 C 22 10.35499 20.64501 9 19 9 L 17 9 z M 12 10 C 11.277778 10 10.542119 10.235347 9.9609375 10.751953 C 9.3797556 11.268559 9 12.083334 9 13 C 9 13.916666 9.3797556 14.731441 9.9609375 15.248047 C 10.542119 15.764653 11.277778 16 12 16 C 12.722222 16 13.45788 15.764653 14.039062 15.248047 C 14.620243 14.731441 15 13.916666 15 13 C 15 12.083334 14.620244 11.268559 14.039062 10.751953 C 13.45788 10.235347 12.722222 10 12 10 z M 12 12 C 12.277778 12 12.542119 12.09799 12.710938 12.248047 C 12.879755 12.398107 13 12.583334 13 13 C 13 13.416666 12.879756 13.601893 12.710938 13.751953 C 12.542118 13.902014 12.277778 14 12 14 C 11.722222 14 11.45788 13.902014 11.289062 13.751953 C 11.120243 13.601893 11 13.416666 11 13 C 11 12.583334 11.120244 12.398107 11.289062 12.248047 C 11.45788 12.097986 11.722222 12 12 12 z M 10 17 C 8.3549904 17 7 18.35499 7 20 L 7 21 A 1 1 0 0 0 8 22 A 1 1 0 0 0 9 21 L 9 20 C 9 19.435871 9.4358706 19 10 19 L 14 19 C 14.564129 19 15 19.435871 15 20 L 15 21 A 1 1 0 0 0 16 22 A 1 1 0 0 0 17 21 L 17 20 C 17 18.35499 15.64501 17 14 17 L 10 17 z " fill="currentColor"/>
</svg>
