<svg xmlns="http://www.w3.org/2000/svg" width="1em" height="1em" viewBox="0 0 24 24" fill="currentColor">
  <path d="M 17 2 A 1 1 0 0 0 16.292969 2.2929688 A 1 1 0 0 0 16.292969 3.7070312 L 17.585938 5 L 14.5 8.0859375 L 12.207031 5.7929688 A 1 1 0 0 0 11.5 5.5 A 1 1 0 0 0 10.792969 5.7929688 A 1 1 0 0 0 10.792969 7.2070312 L 11.085938 7.5 L 5.2929688 13.292969 A 1.0001 1.0001 0 0 0 5 14 L 5 17.585938 L 2.2929688 20.292969 A 1 1 0 0 0 2.2929688 21.707031 A 1 1 0 0 0 3.7070312 21.707031 L 6.4140625 19 L 10 19 A 1.0001 1.0001 0 0 0 10.707031 18.707031 L 16.5 12.914062 L 16.792969 13.207031 A 1 1 0 0 0 18.207031 13.207031 A 1 1 0 0 0 18.207031 11.792969 L 15.914062 9.5 L 19 6.4140625 L 20.292969 7.7070312 A 1 1 0 0 0 21.707031 7.7070312 A 1 1 0 0 0 21.707031 6.2929688 L 17.707031 2.2929688 A 1 1 0 0 0 17 2 z M 12.5 8.9140625 L 15.085938 11.5 L 9.5859375 17 L 7 17 L 7 14.414062 L 7.5 13.914062 L 8.2929688 14.707031 A 1 1 0 0 0 9.7070312 14.707031 A 1 1 0 0 0 9.7070312 13.292969 L 8.9140625 12.5 L 10.5 10.914062 L 11.292969 11.707031 A 1 1 0 0 0 12.707031 11.707031 A 1 1 0 0 0 12.707031 10.292969 L 11.914062 9.5 L 12.5 8.9140625 z " fill="currentColor"/>
</svg>
