<svg xmlns="http://www.w3.org/2000/svg" width="1em" height="1em" viewBox="0 0 24 24" fill="currentColor">
  <path d="M 3 2 A 1 1 0 0 0 2.2929688 2.2929688 A 1 1 0 0 0 2.2929688 3.7070312 L 6.9824219 8.3964844 C 6.3780685 8.9141637 6 9.6816371 6 10.519531 L 6 19 C 6 20.64501 7.3549904 22 9 22 L 15 22 C 16.513439 22 17.781464 20.853161 17.974609 19.388672 L 20.292969 21.707031 A 1 1 0 0 0 21.707031 21.707031 A 1 1 0 0 0 21.707031 20.292969 L 17.716797 16.302734 A 1 1 0 0 0 17.697266 16.283203 L 12.716797 11.302734 A 1 1 0 0 0 12.697266 11.283203 L 3.7070312 2.2929688 A 1 1 0 0 0 3 2 z M 10 2 C 8.9072751 2 8 2.9072751 8 4 L 8 5 A 1 1 0 0 0 9 6 A 1 1 0 0 0 10 7 L 13 7 C 13.009919 8.3508519 14.001687 9.5140277 15.335938 9.7363281 C 15.726356 9.8012478 16 10.124477 16 10.519531 L 16 11 A 1 1 0 0 0 15 12 A 1 1 0 0 0 16 13 A 1 1 0 0 0 17 14 A 1 1 0 0 0 18 13 L 18 10.519531 C 18 9.1605854 17.005643 7.9867522 15.664062 7.7636719 C 15.274037 7.6986896 15.000131 7.3758696 15 6.9804688 L 15 6.7265625 C 15.594872 6.3773718 16 5.7301924 16 5 L 16 4 C 16 2.9072751 15.092725 2 14 2 L 10 2 z M 10 4 L 14 4 L 14 5 L 10 5 L 10 4 z M 8.4082031 9.8222656 L 9.5859375 11 L 8 11 L 8 10.519531 C 8 10.217784 8.1588127 9.9571056 8.4082031 9.8222656 z M 8 13 L 11.585938 13 L 12.585938 14 L 11 14 A 1 1 0 0 0 10 15 A 1 1 0 0 0 11 16 L 13 16 A 1 1 0 0 0 13.9375 15.351562 L 15.585938 17 L 8 17 L 8 13 z M 8 19 L 16 19 C 16 19.564129 15.564129 20 15 20 L 9 20 C 8.4358706 20 8 19.564129 8 19 z " fill="currentColor"/>
</svg>
