<svg xmlns="http://www.w3.org/2000/svg" width="1em" height="1em" viewBox="0 0 24 24" fill="currentColor">
  <path d="M 12 2 C 6.4889982 2 2 6.4889941 2 12 C 2 17.511006 6.4889982 22 12 22 C 17.511002 22 22 17.511006 22 12 C 22 6.4889941 17.511002 2 12 2 z M 12 4 C 16.430123 4 20 7.5698737 20 12 C 20 16.430126 16.430123 20 12 20 C 7.5698765 20 4 16.430126 4 12 C 4 7.5698737 7.5698765 4 12 4 z M 12 6 C 11.277778 6 10.542119 6.2353472 9.9609375 6.7519531 C 9.3797556 7.268559 9 8.0833335 9 9 C 9 9.9166665 9.3797556 10.731441 9.9609375 11.248047 C 10.542119 11.764653 11.277778 12 12 12 C 12.722222 12 13.45788 11.764653 14.039062 11.248047 C 14.620243 10.731441 15 9.9166665 15 9 C 15 8.0833335 14.620244 7.268559 14.039062 6.7519531 C 13.45788 6.2353472 12.722222 6 12 6 z M 12 8 C 12.277778 8 12.542119 8.097986 12.710938 8.2480469 C 12.879755 8.3981073 13 8.5833337 13 9 C 13 9.4166663 12.879756 9.6018927 12.710938 9.7519531 C 12.542118 9.9020136 12.277778 10 12 10 C 11.722222 10 11.45788 9.9020136 11.289062 9.7519531 C 11.120243 9.6018927 11 9.4166663 11 9 C 11 8.5833337 11.120244 8.3981073 11.289062 8.2480469 C 11.45788 8.0979864 11.722222 8 12 8 z M 12 15 A 1 1 0 0 0 11 16 A 1 1 0 0 0 12 17 L 12.009766 17 A 1 1 0 0 0 13.009766 16 A 1 1 0 0 0 12.009766 15 L 12 15 z " fill="currentColor"/>
</svg>
