<svg xmlns="http://www.w3.org/2000/svg" width="1em" height="1em" viewBox="0 0 24 24" fill="currentColor">
  <path d="M 3 2 A 1 1 0 0 0 2.2929688 2.2929688 A 1 1 0 0 0 2.0878906 3.4121094 C 2.0302518 3.5992539 2 3.79654 2 4 L 2 6 C 2 7.0927249 2.9072751 8 4 8 L 4 16 C 2.9072751 16 2 16.907275 2 18 L 2 20 C 2 21.092725 2.9072751 22 4 22 L 6 22 C 7.0927249 22 8 21.092725 8 20 L 16 20 C 16 21.092725 16.907275 22 18 22 L 20 22 C 20.201104 21.999812 20.398887 21.97028 20.587891 21.912109 A 1 1 0 0 0 21.707031 21.707031 A 1 1 0 0 0 21.707031 20.292969 L 21.548828 20.134766 A 1 1 0 0 0 21.412109 19.972656 A 1 1 0 0 0 21.279297 19.865234 L 18.128906 16.714844 A 1 1 0 0 0 18.023438 16.585938 A 1 1 0 0 0 17.871094 16.457031 L 4.0371094 2.6230469 A 1 1 0 0 0 4 2.5839844 L 3.9628906 2.5488281 L 3.7070312 2.2929688 A 1 1 0 0 0 3 2 z M 18 2 C 16.907275 2 16 2.9072751 16 4 L 9 4 A 1 1 0 0 0 8 5 A 1 1 0 0 0 9 6 L 16 6 C 16 7.0927249 16.907275 8 18 8 L 18 15 A 1 1 0 0 0 19 16 A 1 1 0 0 0 20 15 L 20 8 C 21.092725 8 22 7.0927249 22 6 L 22 4 C 22 2.9072751 21.092725 2 20 2 L 18 2 z M 18 4 L 20 4 L 20 6 L 18 6 L 18 4 z M 4 5.4140625 L 4.5859375 6 L 4 6 L 4 5.4140625 z M 6.5175781 7.9316406 L 16.068359 17.482422 C 16.023535 17.64829 16 17.822356 16 18 L 8 18 C 8 16.907275 7.0927249 16 6 16 L 6 8 C 6.1762306 7.9999597 6.3500343 7.9765304 6.5175781 7.9316406 z M 4 18 L 6 18 L 6 20 L 4 20 L 4 18 z M 18 19.414062 L 18.585938 20 L 18 20 L 18 19.414062 z " fill="currentColor"/>
</svg>
