<svg xmlns="http://www.w3.org/2000/svg" width="1em" height="1em" viewBox="0 0 24 24" fill="currentColor">
  <path d="M 4 2 C 2.9072751 2 2 2.9072751 2 4 L 2 6 C 2 7.0927249 2.9072751 8 4 8 L 4 16 C 2.9072751 16 2 16.907275 2 18 L 2 20 C 2 21.092725 2.9072751 22 4 22 L 6 22 C 7.0927249 22 8 21.092725 8 20 L 16 20 C 16 21.092725 16.907275 22 18 22 L 20 22 C 21.092725 22 22 21.092725 22 20 L 22 18 C 22 16.907275 21.092725 16 20 16 L 20 8 C 21.092725 8 22 7.0927249 22 6 L 22 4 C 22 2.9072751 21.092725 2 20 2 L 18 2 C 16.907275 2 16 2.9072751 16 4 L 8 4 C 8 2.9072751 7.0927249 2 6 2 L 4 2 z M 4 4 L 6 4 L 6 6 L 4 6 L 4 4 z M 18 4 L 20 4 L 20 6 L 18 6 L 18 4 z M 8 6 L 16 6 C 16 7.0927249 16.907275 8 18 8 L 18 16 C 16.907275 16 16 16.907275 16 18 L 8 18 C 8 16.907275 7.0927249 16 6 16 L 6 8 C 7.0927249 8 8 7.0927249 8 6 z M 4 18 L 6 18 L 6 19 L 6 20 L 4 20 L 4 18 z M 18 18 L 20 18 L 20 20 L 18 20 L 18 19 L 18 18 z " fill="currentColor"/>
</svg>
