<svg xmlns="http://www.w3.org/2000/svg" width="1em" height="1em" viewBox="0 0 24 24" fill="currentColor">
  <path d="M 12 4 C 10.35499 4 9 5.3549904 9 7 L 9 17 C 9 18.64501 10.35499 20 12 20 L 18 20 C 19.64501 20 21 18.64501 21 17 L 21 7 C 21 5.3549904 19.64501 4 18 4 L 12 4 z M 7 6 A 1 1 0 0 0 6 7 L 6 17 A 1 1 0 0 0 7 18 A 1 1 0 0 0 8 17 L 8 7 A 1 1 0 0 0 7 6 z M 12 6 L 18 6 C 18.564129 6 19 6.4358706 19 7 L 19 17 C 19 17.564129 18.564129 18 18 18 L 12 18 C 11.435871 18 11 17.564129 11 17 L 11 7 C 11 6.4358706 11.435871 6 12 6 z M 4 7 A 1 1 0 0 0 3 8 L 3 16 A 1 1 0 0 0 4 17 A 1 1 0 0 0 5 16 L 5 8 A 1 1 0 0 0 4 7 z " fill="currentColor"/>
</svg>
