<svg xmlns="http://www.w3.org/2000/svg" width="1em" height="1em" viewBox="0 0 24 24" fill="currentColor">
  <path d="M 5 2 C 3.3549904 2 2 3.3549904 2 5 L 2 6 A 1 1 0 0 0 3 7 A 1 1 0 0 0 4 6 L 4 5 C 4 4.4358706 4.4358706 4 5 4 L 19 4 C 19.564129 4 20 4.4358706 20 5 L 20 6 A 1 1 0 0 0 21 7 A 1 1 0 0 0 22 6 L 22 5 C 22 3.3549904 20.64501 2 19 2 L 5 2 z M 6 8 A 1 1 0 0 0 5.2929688 8.2929688 L 2.2929688 11.292969 A 1 1 0 0 0 2.2070312 11.390625 A 1.0001 1.0001 0 0 0 2.1542969 11.46875 A 1 1 0 0 0 2.1308594 11.505859 A 1.0001 1.0001 0 0 0 2.1132812 11.544922 A 1 1 0 0 0 2.0703125 11.632812 A 1.0001 1.0001 0 0 0 2.0566406 11.677734 A 1 1 0 0 0 2.0332031 11.755859 A 1.0001 1.0001 0 0 0 2.0214844 11.804688 A 1 1 0 0 0 2.0058594 11.894531 A 1.0001 1.0001 0 0 0 2.0039062 11.943359 A 1 1 0 0 0 2.0019531 12.035156 A 1.0001 1.0001 0 0 0 2.0039062 12.0625 A 1 1 0 0 0 2.015625 12.167969 A 1.0001 1.0001 0 0 0 2.0273438 12.21875 A 1 1 0 0 0 2.0429688 12.285156 A 1.0001 1.0001 0 0 0 2.0644531 12.34375 A 1 1 0 0 0 2.0957031 12.421875 A 1.0001 1.0001 0 0 0 2.1191406 12.466797 A 1 1 0 0 0 2.1621094 12.542969 A 1.0001 1.0001 0 0 0 2.1855469 12.576172 A 1 1 0 0 0 2.2441406 12.652344 A 1.0001 1.0001 0 0 0 2.2753906 12.685547 A 1 1 0 0 0 2.2929688 12.707031 L 5.2929688 15.707031 A 1 1 0 0 0 6.7070312 15.707031 A 1 1 0 0 0 6.7070312 14.292969 L 5.4140625 13 L 10 13 A 1 1 0 0 0 11 12 A 1 1 0 0 0 10 11 L 5.4140625 11 L 6.7070312 9.7070312 A 1 1 0 0 0 6.7070312 8.2929688 A 1 1 0 0 0 6 8 z M 18 8 A 1 1 0 0 0 17.292969 8.2929688 A 1 1 0 0 0 17.292969 9.7070312 L 18.585938 11 L 14 11 A 1 1 0 0 0 13 12 A 1 1 0 0 0 14 13 L 18.585938 13 L 17.292969 14.292969 A 1 1 0 0 0 17.292969 15.707031 A 1 1 0 0 0 18.707031 15.707031 L 21.707031 12.707031 A 1 1 0 0 0 21.724609 12.685547 A 1.0001 1.0001 0 0 0 21.755859 12.652344 A 1 1 0 0 0 21.824219 12.564453 A 1.0001 1.0001 0 0 0 21.837891 12.542969 A 1 1 0 0 0 21.880859 12.466797 A 1.0001 1.0001 0 0 0 21.904297 12.421875 A 1 1 0 0 0 21.935547 12.34375 A 1.0001 1.0001 0 0 0 21.957031 12.285156 A 1 1 0 0 0 21.972656 12.21875 A 1.0001 1.0001 0 0 0 21.984375 12.167969 A 1 1 0 0 0 21.998047 12.046875 A 1.0001 1.0001 0 0 0 21.998047 12.035156 A 1 1 0 0 0 21.996094 11.943359 A 1.0001 1.0001 0 0 0 21.994141 11.894531 A 1 1 0 0 0 21.978516 11.804688 A 1.0001 1.0001 0 0 0 21.964844 11.742188 A 1 1 0 0 0 21.931641 11.638672 A 1.0001 1.0001 0 0 0 21.929688 11.632812 A 1 1 0 0 0 21.873047 11.513672 A 1.0001 1.0001 0 0 0 21.865234 11.5 A 1 1 0 0 0 21.845703 11.46875 A 1.0001 1.0001 0 0 0 21.792969 11.390625 A 1 1 0 0 0 21.707031 11.292969 L 18.707031 8.2929688 A 1 1 0 0 0 18 8 z M 3 17 A 1 1 0 0 0 2 18 L 2 19 C 2 20.64501 3.3549904 22 5 22 L 19 22 C 20.64501 22 22 20.64501 22 19 L 22 18 A 1 1 0 0 0 21 17 A 1 1 0 0 0 20 18 L 20 19 C 20 19.564129 19.564129 20 19 20 L 5 20 C 4.4358706 20 4 19.564129 4 19 L 4 18 A 1 1 0 0 0 3 17 z " fill="currentColor"/>
</svg>
