<svg xmlns="http://www.w3.org/2000/svg" width="1em" height="1em" viewBox="0 0 24 24" fill="currentColor">
  <path d="M 11.896484 1.9667969 C 11.503077 1.9720325 11.106193 2.0017416 10.707031 2.0566406 C 9.6426003 2.203038 8.5632586 2.5299396 7.5 3.0664062 A 1 1 0 0 0 7.0566406 4.4101562 A 1 1 0 0 0 8.4003906 4.8535156 C 9.2733787 4.4130499 10.146248 4.1444931 11 4.0234375 L 11 7 A 1 1 0 0 0 12 8 A 1 1 0 0 0 13 7 L 13 4.0058594 C 14.786902 4.230023 16.40735 5.0865323 17.658203 6.3359375 C 18.911348 7.5876318 19.770078 9.2100683 19.994141 11 L 18 11 A 1 1 0 0 0 17 12 A 1 1 0 0 0 18 13 L 19.976562 13 C 19.855695 13.850382 19.588063 14.719888 19.150391 15.589844 A 1 1 0 0 0 19.59375 16.933594 A 1 1 0 0 0 20.9375 16.490234 C 23.078439 12.234717 21.8833 7.7296534 19.070312 4.9199219 C 17.22429 3.0760355 14.650336 1.9301472 11.896484 1.9667969 z M 3 2 A 1 1 0 0 0 2.2929688 2.2929688 A 1 1 0 0 0 2.2929688 3.7070312 L 4.2519531 5.6660156 C 1.0039532 9.5810686 1.2044283 15.428701 4.8730469 19.107422 C 8.5479739 22.792468 14.409708 23.002728 18.333984 19.748047 L 20.292969 21.707031 A 1 1 0 0 0 21.707031 21.707031 A 1 1 0 0 0 21.707031 20.292969 L 12.716797 11.302734 A 1 1 0 0 0 12.697266 11.283203 L 6.4804688 5.0664062 A 1 1 0 0 0 6.3632812 4.921875 A 1 1 0 0 0 6.2050781 4.7910156 L 3.7070312 2.2929688 A 1 1 0 0 0 3 2 z M 5.6738281 7.0878906 L 11.214844 12.628906 A 1 1 0 0 0 11.380859 12.794922 L 16.912109 18.326172 C 15.750212 19.247705 14.394737 19.800742 13 19.984375 L 13 18 A 1 1 0 0 0 12 17 A 1 1 0 0 0 11 18 L 11 19.996094 C 9.2799326 19.78964 7.6129645 19.02286 6.2890625 17.695312 C 4.9707995 16.373419 4.2095181 14.712885 4.0039062 13 L 7 13 A 1 1 0 0 0 8 12 A 1 1 0 0 0 7 11 L 4.015625 11 C 4.1992719 9.6049477 4.7525021 8.2495252 5.6738281 7.0878906 z " fill="currentColor"/>
</svg>
