<svg xmlns="http://www.w3.org/2000/svg" width="1em" height="1em" viewBox="0 0 24 24" fill="currentColor">
  <path d="M 12 2.0136719 A 1.0001 1.0001 0 0 0 11 3 C 11 3.5641294 10.564129 4 10 4 A 1 1 0 0 0 9 5 A 1 1 0 0 0 10 6 C 10.564129 6 11 6.4358706 11 7 A 1.0001 1.0001 0 0 0 13 7 C 13 6.4358706 13.435871 6 14 6 A 1.0001 1.0001 0 0 0 14 4 C 13.435871 4 13 3.5641294 13 3 A 1.0001 1.0001 0 0 0 12 2.0136719 z M 3 4 A 1 1 0 0 0 2 5 A 1 1 0 0 0 3 6 L 7 6 A 1 1 0 0 0 8 5 A 1 1 0 0 0 7 4 L 3 4 z M 17 4 A 1 1 0 0 0 16 5 A 1 1 0 0 0 17 6 L 21 6 A 1 1 0 0 0 22 5 A 1 1 0 0 0 21 4 L 17 4 z M 16 8 A 1.0001 1.0001 0 0 0 15 9 L 15 13 L 15 15 A 1 1 0 0 0 16 16 A 1 1 0 0 0 17 15 L 17 14 L 18 14 C 18.916666 14 19.731441 13.620244 20.248047 13.039062 C 20.764653 12.45788 21 11.722222 21 11 C 21 10.277778 20.764653 9.5421194 20.248047 8.9609375 C 19.731441 8.3797556 18.916666 8 18 8 L 16 8 z M 3.9394531 8.0019531 A 1 1 0 0 0 3.6835938 8.0507812 A 1 1 0 0 0 3.0507812 9.3164062 L 5.0507812 15.316406 A 1.0001 1.0001 0 0 0 6 16 L 7 16 A 1.0001 1.0001 0 0 0 7.9492188 15.316406 L 9.9492188 9.3164062 A 1 1 0 0 0 9.3164062 8.0507812 A 1 1 0 0 0 8.0507812 8.6835938 L 6.5 13.337891 L 4.9492188 8.6835938 A 1 1 0 0 0 3.9394531 8.0019531 z M 12 9 A 1 1 0 0 0 11 10 L 11 15 A 1 1 0 0 0 12 16 A 1 1 0 0 0 13 15 L 13 10 A 1 1 0 0 0 12 9 z M 17 10 L 18 10 C 18.416666 10 18.601893 10.120244 18.751953 10.289062 C 18.902014 10.45788 19 10.722222 19 11 C 19 11.277778 18.90201 11.542119 18.751953 11.710938 C 18.601893 11.879755 18.416666 12 18 12 L 17 12 L 17 10 z M 3 18 A 1 1 0 0 0 2 19 A 1 1 0 0 0 3 20 L 21 20 A 1 1 0 0 0 22 19 A 1 1 0 0 0 21 18 L 3 18 z " fill="currentColor"/>
</svg>
