<svg xmlns="http://www.w3.org/2000/svg" width="1em" height="1em" viewBox="0 0 24 24" fill="currentColor">
  <path d="M 12 3 A 1 1 0 0 0 11 4 L 11 8 A 1 1 0 0 0 12 9 A 1 1 0 0 0 13 8 L 13 4 A 1 1 0 0 0 12 3 z M 7 4 C 6.2777779 4 5.5421194 4.2353472 4.9609375 4.7519531 C 4.3797556 5.268559 4 6.0833335 4 7 A 1 1 0 0 0 5 8 A 1 1 0 0 0 6 7 C 6 6.5833337 6.1202444 6.3981073 6.2890625 6.2480469 C 6.4578806 6.0979864 6.7222221 6 7 6 C 7.2777779 6 7.5421194 6.0979864 7.7109375 6.2480469 C 7.8797556 6.3981073 8 6.5833337 8 7 L 8 8 A 1 1 0 0 0 9 9 A 1 1 0 0 0 10 8 L 10 7 C 10 6.0833335 9.6202444 5.268559 9.0390625 4.7519531 C 8.4578806 4.2353472 7.7222221 4 7 4 z M 17 4 C 16.277778 4 15.542119 4.2353472 14.960938 4.7519531 C 14.379755 5.268559 14 6.0833335 14 7 L 14 8 A 1 1 0 0 0 15 9 A 1 1 0 0 0 16 8 L 16 7 C 16 6.5833337 16.120244 6.3981073 16.289062 6.2480469 C 16.457881 6.0979864 16.722222 6 17 6 C 17.277778 6 17.542119 6.0979864 17.710938 6.2480469 C 17.879756 6.3981073 18 6.5833337 18 7 A 1 1 0 0 0 19 8 A 1 1 0 0 0 20 7 C 20 6.0833335 19.620244 5.268559 19.039062 4.7519531 C 18.457881 4.2353472 17.722222 4 17 4 z M 9.3007812 10 C 8.1174923 9.9998498 7.0390091 10.699874 6.5585938 11.78125 L 5.2773438 14.666016 A 1 1 0 0 0 5.2578125 14.708984 L 3.0859375 19.59375 A 1 1 0 0 0 3.59375 20.914062 A 1 1 0 0 0 4.9140625 20.40625 L 6.8671875 16.013672 C 7.0649717 16.048067 7.223748 16.135287 7.2753906 16.189453 A 1.0001 1.0001 0 0 0 7.2792969 16.191406 C 7.8231083 16.758245 8.566918 17.001315 9.3339844 16.994141 C 10.100373 17.000841 10.84314 16.758117 11.386719 16.193359 A 1.0001 1.0001 0 0 0 11.390625 16.189453 C 11.457614 16.11914 11.702653 15.995222 11.982422 16 A 1.0001 1.0001 0 0 0 12.017578 16 C 12.297347 15.9952 12.542391 16.119196 12.609375 16.189453 A 1.0001 1.0001 0 0 0 12.613281 16.193359 C 13.15686 16.758117 13.899627 17.000882 14.666016 16.994141 C 15.433082 17.001341 16.176892 16.758245 16.720703 16.191406 A 1.0001 1.0001 0 0 0 16.724609 16.189453 C 16.776417 16.135108 16.934122 16.047841 17.132812 16.013672 L 19.085938 20.40625 A 1 1 0 0 0 20.40625 20.914062 A 1 1 0 0 0 20.914062 19.59375 L 17.441406 11.78125 C 16.960991 10.699874 15.882508 9.9998498 14.699219 10 L 9.3007812 10 z M 9.3007812 12 L 14.699219 12 C 15.097089 11.99995 15.451746 12.230147 15.613281 12.59375 L 16.308594 14.15625 C 15.925605 14.286852 15.572837 14.501812 15.279297 14.808594 L 15.277344 14.808594 L 15.275391 14.810547 C 15.206401 14.880637 14.959874 15.003722 14.679688 15 A 1.0001 1.0001 0 0 0 14.654297 15 C 14.372176 15.0037 14.121488 14.878073 14.052734 14.806641 C 13.510436 14.240192 12.766041 13.9929 12 14.001953 C 11.233959 13.9929 10.489704 14.240239 9.9472656 14.806641 C 9.878512 14.878073 9.6278241 15.003747 9.3457031 15 A 1.0001 1.0001 0 0 0 9.3203125 15 C 9.0401257 15.0037 8.7935942 14.880637 8.7246094 14.810547 L 8.7207031 14.808594 C 8.4271764 14.501849 8.0743778 14.286847 7.6914062 14.15625 L 8.3867188 12.59375 C 8.5482539 12.230147 8.9029114 11.99995 9.3007812 12 z " fill="currentColor"/>
</svg>
