<svg xmlns="http://www.w3.org/2000/svg" width="1em" height="1em" viewBox="0 0 24 24" fill="currentColor">
  <path d="M 3 2 A 1 1 0 0 0 2.2929688 2.2929688 A 1 1 0 0 0 2.2929688 3.7070312 L 3.2929688 4.7070312 C 3.1054282 5.0990214 3 5.5389811 3 6 L 3 18 A 1 1 0 0 0 3.0078125 18.130859 C 3.042416 18.993302 3.4079021 19.75646 3.9609375 20.248047 C 4.5421194 20.764653 5.2777779 21 6 21 L 18 21 C 18.451755 21.000134 18.893025 20.898181 19.292969 20.707031 L 20.292969 21.707031 A 1 1 0 0 0 21.707031 21.707031 A 1 1 0 0 0 21.707031 20.292969 L 20.210938 18.796875 A 1 1 0 0 0 20.125 18.699219 A 1 1 0 0 0 20.03125 18.617188 L 8.7167969 7.3027344 A 1 1 0 0 0 8.6972656 7.2832031 L 3.7070312 2.2929688 A 1 1 0 0 0 3 2 z M 10 5 A 1 1 0 0 0 9 6 A 1 1 0 0 0 10 7 L 18 7 C 18.564129 7 19 7.4358706 19 8 L 19 16 A 1 1 0 0 0 20 17 A 1 1 0 0 0 21 16 L 21 8 C 21 6.3549904 19.64501 5 18 5 L 10 5 z M 5 6.4140625 L 7 8.4140625 L 7 15.158203 C 6.6750357 15.051662 6.3360632 15 6 15 C 5.6639368 15 5.3249643 15.051662 5 15.158203 L 5 6.4140625 z M 9 10.414062 L 17.585938 19 L 8.8417969 19 C 8.9437328 18.689111 9 18.352071 9 18 L 9 10.414062 z M 6 17 C 6.2777779 17 6.5421194 17.09799 6.7109375 17.248047 C 6.8797556 17.398107 7 17.583334 7 18 C 7 18.416666 6.8797556 18.601893 6.7109375 18.751953 C 6.5421194 18.902014 6.2777779 19 6 19 C 5.7222221 19 5.4578806 18.902014 5.2890625 18.751953 C 5.1202444 18.601893 5 18.416666 5 18 C 5 17.583334 5.1202444 17.398107 5.2890625 17.248047 C 5.4578806 17.097986 5.7222221 17 6 17 z " fill="currentColor"/>
</svg>
