<svg xmlns="http://www.w3.org/2000/svg" width="1em" height="1em" viewBox="0 0 24 24" fill="currentColor">
  <path d="M 2.9667969 5 A 1 1 0 0 0 2.8359375 5.0136719 A 1 1 0 0 0 2.0136719 6.1640625 L 2.4863281 9 L 2.4863281 9.0039062 A 1 1 0 0 0 2.5273438 9.2421875 A 1 1 0 0 0 2.5292969 9.2539062 L 3.734375 16.494141 C 3.9744919 17.933933 5.2336824 19.000179 6.6933594 19 L 17.306641 19 C 18.766318 19.000179 20.025508 17.933933 20.265625 16.494141 L 21.986328 6.1640625 A 1 1 0 0 0 21.164062 5.0136719 A 1 1 0 0 0 20.013672 5.8359375 L 19.65625 7.9863281 C 19.161839 7.9400514 18.730626 7.7902997 18.572266 7.6796875 C 18.036601 7.3067763 17.410072 7.1227925 16.736328 7.0410156 A 1.0001 1.0001 0 0 0 16.669922 7.0351562 L 16.238281 7.0117188 L 15.8125 6.4179688 A 1.0001 1.0001 0 0 0 15.806641 6.4101562 C 15.469719 5.9493348 15.037869 5.6578206 14.5625 5.4179688 C 14.087131 5.1781169 13.580639 5 13 5 L 9.8828125 5 C 8.8822481 5.0002824 8.0225075 5.7591108 7.8984375 6.7519531 L 7.8671875 7 L 7.5 7 C 6.5888949 7 5.8902585 7.3596664 5.4296875 7.6796875 A 1.0001 1.0001 0 0 0 5.4277344 7.6796875 C 5.2693709 7.7902996 4.8381617 7.9400514 4.34375 7.9863281 L 3.9863281 5.8359375 A 1 1 0 0 0 2.9667969 5 z M 9.8828125 7 L 13 7 C 13.08836 7 13.397228 7.069477 13.662109 7.203125 C 13.92699 7.3367731 14.160322 7.5446628 14.193359 7.5898438 L 15.949219 10.039062 A 1.0001 1.0001 0 0 0 15.955078 10.046875 C 16.038078 10.160057 16.030046 10.217995 15.916016 10.326172 C 15.717301 10.493691 15.447406 10.496665 15.25 10.326172 L 14.703125 9.7871094 A 1 1 0 0 0 14.005859 9.5058594 A 1 1 0 0 0 14 9.5 A 1 1 0 0 0 13.998047 9.5019531 A 1 1 0 0 0 13.287109 9.796875 A 1 1 0 0 0 13.005859 10.494141 A 1 1 0 0 0 13 10.5 L 13 10.507812 L 13 12.837891 C 12.999473 13.740352 12.172688 14.335769 11.316406 14.050781 C 10.018303 13.618285 9.2149288 12.344003 9.3847656 10.986328 L 9.8828125 7 z M 7.5 9 L 7.6171875 9 L 7.4003906 10.738281 C 7.1137157 13.02996 8.4924679 15.219189 10.683594 15.949219 C 12.778605 16.646481 14.998711 15.045887 15 12.837891 L 15 12.232422 C 15.782892 12.4301 16.607761 12.390309 17.246094 11.830078 A 1.0001 1.0001 0 0 0 17.259766 11.818359 C 17.876842 11.257029 18.113123 10.383557 17.914062 9.6015625 C 18.346922 9.8058216 18.823502 9.9212669 19.324219 9.9707031 L 18.292969 16.164062 C 18.211424 16.653021 17.802351 17.000061 17.306641 17 L 6.6933594 17 C 6.1976487 17.000061 5.7885756 16.653021 5.7070312 16.164062 L 4.6757812 9.9707031 C 5.3716777 9.9016794 6.0195095 9.704561 6.5703125 9.3203125 C 6.9617415 9.0483336 6.9651051 9 7.5 9 z " fill="currentColor"/>
</svg>
