<svg xmlns="http://www.w3.org/2000/svg" width="1em" height="1em" viewBox="0 0 24 24" fill="currentColor">
  <path d="M 6 2 C 3.8027056 2 2 3.8027056 2 6 L 2 18 C 2 20.197294 3.8027056 22 6 22 L 18 22 C 20.197294 22 22 20.197294 22 18 L 22 6 C 22 3.8027056 20.197294 2 18 2 L 6 2 z M 6 4 L 18 4 C 19.116414 4 20 4.8835859 20 6 L 20 18 C 20 19.116414 19.116414 20 18 20 L 6 20 C 4.8835859 20 4 19.116414 4 18 L 4 6 C 4 4.8835859 4.8835859 4 6 4 z M 8 6 A 1 1 0 0 0 7 7 L 7 17 A 1 1 0 0 0 8 18 A 1 1 0 0 0 9 17 L 9 7 A 1 1 0 0 0 8 6 z M 12 6 A 1 1 0 0 0 11 7 L 11 17 A 1 1 0 0 0 12 18 A 1 1 0 0 0 13 17 L 13 7 A 1 1 0 0 0 12 6 z M 16 6 A 1 1 0 0 0 15 7 L 15 17 A 1 1 0 0 0 16 18 A 1 1 0 0 0 17 17 L 17 7 A 1 1 0 0 0 16 6 z " fill="currentColor"/>
</svg>
