<svg xmlns="http://www.w3.org/2000/svg" width="1em" height="1em" viewBox="0 0 24 24" fill="currentColor">
  <path d="M 20.015625 6 A 1 1 0 0 0 19.142578 6.4863281 L 16.142578 11.486328 A 1.0001 1.0001 0 0 0 17 13 L 19.234375 13 L 17.142578 16.486328 A 1 1 0 0 0 17.486328 17.857422 A 1 1 0 0 0 18.857422 17.513672 L 21.857422 12.513672 A 1.0001 1.0001 0 0 0 21 11 L 18.765625 11 L 20.857422 7.5136719 A 1 1 0 0 0 20.513672 6.1425781 A 1 1 0 0 0 20.015625 6 z M 5.5 6.0039062 C 4.2555147 5.9871402 3.0585437 6.4359792 2.2558594 7.3320312 A 1 1 0 0 0 2.3320312 8.7441406 A 1 1 0 0 0 3.7441406 8.6679688 C 4.0894848 8.2824544 4.7575339 7.9875272 5.4824219 8 A 1.0001 1.0001 0 0 0 5.5175781 8 C 6.2424663 7.9875272 6.9105151 8.2824541 7.2558594 8.6679688 C 8.0585437 9.5640208 9.2555147 10.01286 10.5 9.9960938 C 11.744485 10.01286 12.941456 9.5640209 13.744141 8.6679688 A 1 1 0 0 0 13.667969 7.2558594 A 1 1 0 0 0 12.255859 7.3320312 C 11.910513 7.7175456 11.242466 8.0124728 10.517578 8 A 1.0001 1.0001 0 0 0 10.482422 8 C 9.7575378 8.0124728 9.0894849 7.7175459 8.7441406 7.3320312 C 7.9414563 6.4359791 6.7444853 5.9871402 5.5 6.0039062 z M 5.5 10.003906 C 4.2555147 9.9871405 3.0585437 10.435979 2.2558594 11.332031 A 1 1 0 0 0 2.3320312 12.744141 A 1 1 0 0 0 3.7441406 12.667969 C 4.0894848 12.282452 4.7575339 11.987527 5.4824219 12 A 1.0001 1.0001 0 0 0 5.5175781 12 C 6.2424661 11.98753 6.9105151 12.282454 7.2558594 12.667969 C 8.0585437 13.564021 9.2555147 14.01286 10.5 13.996094 C 11.744485 14.012864 12.941456 13.564021 13.744141 12.667969 A 1 1 0 0 0 13.667969 11.255859 A 1 1 0 0 0 12.255859 11.332031 C 11.910514 11.717548 11.242466 12.012473 10.517578 12 A 1.0001 1.0001 0 0 0 10.482422 12 C 9.7575378 12.012473 9.0894849 11.717546 8.7441406 11.332031 C 7.9414563 10.435979 6.7444853 9.9871405 5.5 10.003906 z M 5.5 14.003906 C 4.2555147 13.98714 3.0585437 14.435979 2.2558594 15.332031 A 1 1 0 0 0 2.3320312 16.744141 A 1 1 0 0 0 3.7441406 16.667969 C 4.0894848 16.282452 4.7575339 15.987527 5.4824219 16 A 1.0001 1.0001 0 0 0 5.5175781 16 C 6.2424661 15.98753 6.9105151 16.282454 7.2558594 16.667969 C 8.0585437 17.564021 9.2555147 18.01286 10.5 17.996094 C 11.744485 18.012864 12.941456 17.564021 13.744141 16.667969 A 1 1 0 0 0 13.667969 15.255859 A 1 1 0 0 0 12.255859 15.332031 C 11.910514 15.717548 11.242466 16.012473 10.517578 16 A 1.0001 1.0001 0 0 0 10.482422 16 C 9.7575378 16.012473 9.0894849 15.717546 8.7441406 15.332031 C 7.9414563 14.435979 6.7444853 13.98714 5.5 14.003906 z " fill="currentColor"/>
</svg>
