<svg xmlns="http://www.w3.org/2000/svg" width="1em" height="1em" viewBox="0 0 24 24" fill="currentColor">
  <path d="M 12.013672 1.5136719 A 1.0001 1.0001 0 0 0 11.306641 1.8066406 L 9.5761719 3.5371094 C 9.0298846 4.0833966 8.5963307 4.7336121 8.3007812 5.4492188 C 8.0044175 6.1648287 7.8527647 6.9313131 7.8515625 7.703125 C 7.8515625 8.1484179 7.9026852 8.5918384 8.0019531 9.0234375 L 6.1875 8.5371094 A 1 1 0 0 0 5.4296875 8.6386719 A 1 1 0 0 0 4.9648438 9.2441406 A 1 1 0 0 0 4.9648438 9.2460938 L 4.5332031 10.849609 C 3.6814477 14.030533 5.5842102 17.325612 8.7636719 18.179688 C 9.513755 18.381315 10.263579 18.582855 11.013672 18.783203 L 11.013672 21.513672 A 1 1 0 0 0 12.013672 22.513672 A 1 1 0 0 0 13.013672 21.513672 L 13.013672 18.783203 C 13.763329 18.582933 14.513674 18.381292 15.263672 18.179688 C 18.444013 17.325696 20.345896 14.030533 19.494141 10.849609 L 19.064453 9.2460938 L 19.064453 9.2441406 A 1 1 0 0 0 17.84375 8.5390625 A 1 1 0 0 0 17.839844 8.5371094 L 16.027344 9.0214844 C 16.126662 8.5896066 16.177734 8.1480123 16.177734 7.703125 C 16.177734 6.9294874 16.025175 6.1643371 15.728516 5.4492188 C 15.432378 4.7341481 14.998899 4.0848362 14.451172 3.5371094 L 12.720703 1.8066406 A 1.0001 1.0001 0 0 0 12.013672 1.5136719 z M 12.013672 3.9277344 L 13.037109 4.9511719 C 13.399383 5.3134451 13.684997 5.7419084 13.880859 6.2148438 C 14.0762 6.6857254 14.177734 7.1907626 14.177734 7.703125 C 14.177734 8.2148423 14.076009 8.7214806 13.880859 9.1933594 C 13.685206 9.6649955 13.398178 10.095962 13.037109 10.457031 A 1 1 0 0 0 12.998047 10.498047 C 12.623874 10.832563 12.293038 11.212649 12.013672 11.628906 C 11.732371 11.209858 11.400728 10.826377 11.023438 10.490234 A 1 1 0 0 0 10.990234 10.457031 C 10.629165 10.095962 10.344299 9.6682479 10.148438 9.1953125 C 9.9524342 8.7220373 9.8515625 8.2144506 9.8515625 7.703125 C 9.8526103 7.1915973 9.9530473 6.6866383 10.148438 6.2148438 A 1.0001 1.0001 0 0 0 10.148438 6.2128906 C 10.342868 5.7414968 10.629165 5.3122408 10.990234 4.9511719 L 12.013672 3.9277344 z M 6.6386719 10.728516 L 8.078125 11.113281 C 9.7072118 11.550314 10.877872 12.961577 11.013672 14.642578 L 11.013672 16.710938 C 10.436959 16.556508 9.8603072 16.403176 9.2832031 16.248047 C 7.1466648 15.674123 5.8945523 13.504264 6.4667969 11.367188 L 6.6386719 10.728516 z M 17.390625 10.728516 L 17.5625 11.367188 C 18.134745 13.504264 16.881799 15.674038 14.744141 16.248047 C 14.167211 16.403129 13.590461 16.556511 13.013672 16.710938 L 13.013672 14.648438 C 13.146793 12.964365 14.316783 11.550998 15.949219 11.113281 L 17.390625 10.728516 z " fill="currentColor"/>
</svg>
