<svg xmlns="http://www.w3.org/2000/svg" width="1em" height="1em" viewBox="0 0 24 24" fill="currentColor">
  <path d="M 3 2 A 1 1 0 0 0 2.2929688 2.2929688 A 1 1 0 0 0 2.2929688 3.7070312 L 5 6.4140625 L 5 10.734375 C 4.6088062 10.943923 4.2385042 11.199672 3.8984375 11.501953 C 2.7547556 12.518559 2 14.083334 2 16 C 2 19.301865 4.6981372 22 8 22 C 11.301863 22 14 19.301865 14 16 C 14 15.791688 13.991971 15.588419 13.974609 15.388672 L 16.283203 17.697266 C 16.04446 18.167546 15.93776 18.673712 15.966797 19.154297 C 16.013697 19.93049 16.36935 20.617069 16.880859 21.126953 C 17.392369 21.636838 18.07913 21.988775 18.855469 22.033203 C 19.332919 22.060528 19.835604 21.953833 20.302734 21.716797 A 1 1 0 0 0 21.707031 21.707031 A 1 1 0 0 0 21.707031 20.292969 L 21.158203 19.744141 A 1 1 0 0 0 21.121094 19.705078 A 1 1 0 0 0 21.085938 19.671875 L 14.716797 13.302734 A 1 1 0 0 0 14.697266 13.283203 L 8.7167969 7.3027344 A 1 1 0 0 0 8.6972656 7.2832031 L 6.7167969 5.3027344 A 1 1 0 0 0 6.6972656 5.2832031 L 3.7070312 2.2929688 A 1 1 0 0 0 3 2 z M 12 7 A 1 1 0 0 0 11 8 A 1 1 0 0 0 12 9 L 14 9 L 14 11 A 1 1 0 0 0 15 12 A 1 1 0 0 0 16 11 L 16 9 L 17 9 A 1 1 0 0 0 18 8 A 1 1 0 0 0 17 7 L 12 7 z M 7 9 L 7.5859375 9 L 8.6132812 10.027344 C 8.4089127 10.008435 8.2048053 10 8 10 C 7.6659747 10 7.3312577 10.025667 7 10.076172 L 7 9 z M 8 12 C 9.0277779 12 10.042119 12.347987 10.773438 12.998047 C 11.107615 13.295093 11.392654 13.651075 11.603516 14.085938 A 1 1 0 0 0 11.808594 14.611328 C 11.931705 15.01442 12 15.474385 12 16 C 12 18.220986 10.220985 20 8 20 C 5.7790155 20 4 18.220986 4 16 C 4 14.583334 4.4952444 13.648107 5.2265625 12.998047 C 5.9578806 12.347987 6.9722221 12 8 12 z M 18.236328 19.650391 L 18.351562 19.765625 C 18.331627 19.748242 18.311896 19.729805 18.292969 19.710938 C 18.273084 19.691116 18.254609 19.671345 18.236328 19.650391 z " fill="currentColor"/>
</svg>
