<svg xmlns="http://www.w3.org/2000/svg" width="1em" height="1em" viewBox="0 0 24 24" fill="currentColor">
  <path d="M 3 2 A 1 1 0 0 0 2.2929688 2.2929688 A 1 1 0 0 0 2.2929688 3.7070312 L 4.9179688 6.3320312 C 4.3220916 7.4576903 4.0054098 8.7142751 4 9.9960938 A 1.0001 1.0001 0 0 0 4 10 L 4 20 C 4 21.092725 4.9072751 22 6 22 L 18 22 C 18.694076 22 19.312418 21.633044 19.671875 21.085938 L 20.292969 21.707031 A 1 1 0 0 0 21.707031 21.707031 A 1 1 0 0 0 21.707031 20.292969 L 19.716797 18.302734 A 1 1 0 0 0 19.697266 18.283203 L 13.716797 12.302734 A 1 1 0 0 0 13.697266 12.283203 L 12.716797 11.302734 A 1 1 0 0 0 12.697266 11.283203 L 3.7070312 2.2929688 A 1 1 0 0 0 3 2 z M 11.990234 2 A 1 1 0 0 0 11.855469 2.0097656 C 10.353835 2.0393629 8.8907232 2.4899868 7.640625 3.3261719 A 1 1 0 0 0 7.3652344 4.7148438 A 1 1 0 0 0 8.7519531 4.9882812 C 9.4333408 4.5325042 10.199645 4.2276896 11 4.0878906 L 11 8 A 1 1 0 0 0 12 9 A 1 1 0 0 0 13 8 L 13 4.0878906 C 15.829616 4.5880473 18 7.1591208 18 10 L 18 12 L 17 12 A 1 1 0 0 0 16 13 A 1 1 0 0 0 17 14 L 18 14 L 18 15 A 1 1 0 0 0 19 16 A 1 1 0 0 0 20 15 L 20 10 C 20 5.7543297 16.499647 2.0808038 12.130859 2.0078125 A 1 1 0 0 0 12 2 A 1.0001 1.0001 0 0 0 11.998047 2 C 11.995435 2.0000038 11.992846 1.9999936 11.990234 2 z M 6.421875 7.8359375 L 10.585938 12 L 6 12 L 6 10.003906 L 6 10 C 6.0036362 9.2550591 6.1476598 8.5207198 6.421875 7.8359375 z M 6 14 L 11 14 L 11 20 L 6 20 L 6 14 z M 13 14.414062 L 18 19.414062 L 18 20 L 13 20 L 13 14.414062 z " fill="currentColor"/>
</svg>
