<svg xmlns="http://www.w3.org/2000/svg" width="1em" height="1em" viewBox="0 0 24 24" fill="currentColor">
  <path d="M 6 3 C 4.3549904 3 3 4.3549904 3 6 L 3 12 A 1 1 0 0 0 4 13 A 1 1 0 0 0 5 12 L 5 6 C 5 5.4358706 5.4358706 5 6 5 L 18 5 C 18.564129 5 19 5.4358706 19 6 L 19 18 C 19 18.564129 18.564129 19 18 19 L 12 19 A 1 1 0 0 0 11 20 A 1 1 0 0 0 12 21 L 18 21 C 19.64501 21 21 19.64501 21 18 L 21 6 C 21 4.3549904 19.64501 3 18 3 L 6 3 z M 12 7 A 1 1 0 0 0 11 8 A 1 1 0 0 0 12 9 L 13.585938 9 L 10.292969 12.292969 A 1 1 0 0 0 10.292969 13.707031 A 1 1 0 0 0 11.707031 13.707031 L 15 10.414062 L 15 12 A 1 1 0 0 0 16 13 A 1 1 0 0 0 17 12 L 17 8 A 1.0001 1.0001 0 0 0 16.992188 7.8691406 A 1.0001 1.0001 0 0 0 16.923828 7.6171875 A 1.0001 1.0001 0 0 0 16.707031 7.2929688 A 1 1 0 0 0 16.382812 7.0761719 A 1.0001 1.0001 0 0 0 16.130859 7.0078125 A 1.0001 1.0001 0 0 0 16 7 L 12 7 z M 4 15 C 2.9072751 15 2 15.907275 2 17 L 2 20 C 2 21.092725 2.9072751 22 4 22 L 7 22 C 8.0927249 22 9 21.092725 9 20 L 9 17 C 9 15.907275 8.0927249 15 7 15 L 4 15 z M 4 17 L 7 17 L 7 20 L 4 20 L 4 17 z " fill="currentColor"/>
</svg>
