<svg xmlns="http://www.w3.org/2000/svg" width="1em" height="1em" viewBox="0 0 24 24" fill="currentColor">
  <path d="M 11.501953 2 A 1 1 0 0 0 11.279297 2.0253906 C 6.1032979 2.3967507 2 6.7315668 2 12 C 2 17.268434 6.1032976 21.60325 11.279297 21.974609 A 1 1 0 0 0 11.613281 21.992188 C 11.741454 21.997088 11.870657 22 12 22 C 12.129343 22 12.258546 21.997088 12.386719 21.992188 A 1 1 0 0 0 12.720703 21.974609 C 17.896703 21.60325 22 17.268434 22 12 C 22 6.7315667 17.896702 2.3967507 12.720703 2.0253906 A 1 1 0 0 0 12.386719 2.0078125 C 12.258547 2.0029119 12.129343 2 12 2 C 11.870657 2 11.741453 2.0029119 11.613281 2.0078125 A 1 1 0 0 0 11.501953 2 z M 12 4.1132812 C 12.701167 5.3503895 13.22575 6.6579685 13.572266 8 L 10.427734 8 C 10.77425 6.6579676 11.298833 5.3503902 12 4.1132812 z M 9.6269531 4.3554688 C 9.0748957 5.53196 8.6566344 6.7542874 8.3730469 8 L 5.0644531 8 C 6.06024 6.2721994 7.6838516 4.9548683 9.6269531 4.3554688 z M 14.373047 4.3554688 C 16.316148 4.9548683 17.93976 6.2721995 18.935547 8 L 15.626953 8 C 15.343366 6.7542875 14.925104 5.53196 14.373047 4.3554688 z M 4.25 10 L 8.0351562 10 C 7.8868442 11.329029 7.8868442 12.670971 8.0351562 14 L 4.25 14 C 4.086568 13.36112 4 12.691025 4 12 C 4 11.308975 4.086568 10.63888 4.25 10 z M 10.046875 10 L 13.953125 10 C 14.120316 11.327914 14.120316 12.672086 13.953125 14 L 10.046875 14 C 9.8796836 12.672086 9.8796836 11.327914 10.046875 10 z M 15.964844 10 L 19.75 10 C 19.913432 10.63888 20 11.308975 20 12 C 20 12.691025 19.913432 13.36112 19.75 14 L 15.964844 14 C 16.113156 12.670971 16.113156 11.329029 15.964844 10 z M 5.0644531 16 L 8.3730469 16 C 8.6566344 17.245713 9.0748957 18.46804 9.6269531 19.644531 C 7.6838517 19.045132 6.06024 17.7278 5.0644531 16 z M 10.427734 16 L 13.572266 16 C 13.22575 17.342032 12.701167 18.649611 12 19.886719 C 11.298833 18.64961 10.77425 17.342032 10.427734 16 z M 15.626953 16 L 18.935547 16 C 17.93976 17.7278 16.316148 19.045132 14.373047 19.644531 C 14.925104 18.46804 15.343366 17.245713 15.626953 16 z " fill="currentColor"/>
</svg>
