<svg xmlns="http://www.w3.org/2000/svg" width="1em" height="1em" viewBox="0 0 24 24" fill="currentColor">
  <path d="M 12.505859 2 A 1 1 0 0 0 12.398438 2.0058594 C 12.123895 1.9938955 11.847663 1.9936236 11.572266 2.0039062 A 1 1 0 0 0 11.330078 2.015625 C 8.356571 2.1977554 5.4088059 3.6914837 3.5292969 6.6875 C 0.99478948 10.727611 1.7644175 15.329068 4.3066406 18.390625 C 6.8488637 21.452182 11.230141 23.052966 15.667969 21.302734 A 1 1 0 0 0 16.232422 20.005859 A 1 1 0 0 0 14.935547 19.443359 C 14.747674 19.517455 14.561366 19.584746 14.375 19.644531 C 14.586159 19.194818 14.777834 18.735814 14.951172 18.269531 A 1 1 0 0 0 14.363281 16.984375 A 1 1 0 0 0 13.076172 17.572266 C 12.77915 18.37126 12.419633 19.145598 12 19.886719 C 11.298862 18.649641 10.774241 17.341995 10.427734 16 L 13.5 16 A 1 1 0 0 0 14.5 15 A 1 1 0 0 0 13.5 14 L 10.046875 14 C 9.8796836 12.672086 9.8796836 11.327914 10.046875 10 L 13.953125 10 C 14.056507 10.821687 14.09593 11.653548 14.070312 12.488281 A 1 1 0 0 0 15.039062 13.517578 A 1 1 0 0 0 16.070312 12.548828 C 16.096534 11.694433 16.061074 10.842771 15.966797 10 L 19.761719 10 C 19.86877 10.445304 19.94185 10.913595 19.978516 11.404297 A 1 1 0 0 0 21.048828 12.328125 A 1 1 0 0 0 21.972656 11.255859 C 21.617196 6.498626 18.267078 3.2514546 14.404297 2.2949219 C 13.852528 2.1582885 13.288225 2.0681665 12.71875 2.0253906 A 1 1 0 0 0 12.505859 2 z M 12 4.1132812 C 12.694564 5.3389286 13.221037 6.6464224 13.570312 8 L 10.427734 8 C 10.774254 6.657952 11.29882 5.350403 12 4.1132812 z M 9.6503906 4.3046875 C 9.0864258 5.4968267 8.6607304 6.7362948 8.3730469 8 L 5.0722656 8 C 5.1210385 7.9165237 5.1724255 7.8331833 5.2246094 7.75 C 6.370844 5.9228539 7.945575 4.8084851 9.6503906 4.3046875 z M 14.376953 4.3613281 C 16.280284 4.9436858 17.963396 6.1799342 18.982422 8 L 15.628906 8 C 15.343343 6.7481606 14.924063 5.5279702 14.376953 4.3613281 z M 4.2226562 10 L 8.0351562 10 C 7.8868442 11.329029 7.8868442 12.670971 8.0351562 14 L 4.2148438 14 C 3.8724124 12.736115 3.8447236 11.372305 4.2226562 10 z M 18.916016 14.003906 C 18.751818 14.009427 18.588579 14.028365 18.427734 14.060547 C 17.784358 14.189275 17.18203 14.528141 16.736328 15.054688 A 1 1 0 0 0 16.853516 16.464844 A 1 1 0 0 0 18.263672 16.347656 C 18.561037 15.996354 19.047152 15.898544 19.457031 16.107422 C 19.987605 16.383365 20.073808 16.797707 19.96875 17.232422 C 19.863486 17.667988 19.596602 17.998082 18.996094 18 A 1 1 0 0 0 18 19.003906 A 1 1 0 0 0 19.003906 20 C 20.498615 19.9952 21.618946 18.916192 21.912109 17.703125 C 22.205273 16.490058 21.700614 15.016915 20.373047 14.330078 A 1.0001 1.0001 0 0 0 20.369141 14.328125 C 19.908652 14.092234 19.408609 13.987344 18.916016 14.003906 z M 5.0625 16 L 8.3730469 16 C 8.6612536 17.266003 9.0888032 18.507038 9.6542969 19.701172 C 8.1527461 19.232884 6.8416965 18.310786 5.8457031 17.111328 C 5.5552534 16.761544 5.2930258 16.389832 5.0625 16 z M 19 21 A 1 1 0 0 0 18 22 L 18 22.009766 A 1 1 0 0 0 19 23.009766 A 1 1 0 0 0 20 22.009766 L 20 22 A 1 1 0 0 0 19 21 z " fill="currentColor"/>
</svg>
