<svg xmlns="http://www.w3.org/2000/svg" width="1em" height="1em" viewBox="0 0 24 24" fill="currentColor">
  <path d="M 11.484375 1.9980469 C 9.1653225 2.1057763 6.8272965 3.0292991 4.921875 4.9394531 C 1.710558 8.1587462 1.3050837 12.60085 2.8808594 16.103516 C 4.3055527 19.270352 7.3789391 21.735024 11.310547 21.980469 A 1 1 0 0 0 11.59375 21.994141 C 11.920469 22.005572 12.252213 22.002363 12.589844 21.982422 A 1 1 0 0 0 13.529297 20.925781 A 1 1 0 0 0 12.472656 19.986328 C 12.335712 19.994416 12.200774 20.000073 12.066406 20.001953 C 11.33219 18.73104 10.784985 17.383607 10.427734 16 L 14.5 16 A 1 1 0 0 0 14.642578 15.990234 A 1 1 0 0 0 15.751953 15.189453 C 16.086737 13.455692 16.161124 11.714007 15.978516 10 L 19.775391 10 C 19.960217 10.760879 20.037619 11.581016 19.988281 12.453125 A 1 1 0 0 0 20.929688 13.507812 A 1 1 0 0 0 21.984375 12.566406 C 22.241247 8.0258614 19.586642 4.4381755 16.080078 2.8710938 C 15.203437 2.4793232 14.268337 2.2112048 13.308594 2.0800781 C 13.089008 2.0500769 12.868223 2.0272395 12.646484 2.0117188 A 1 1 0 0 0 12.474609 2.0019531 C 12.145387 1.9845376 11.815668 1.982657 11.484375 1.9980469 z M 12 4.1132812 C 12.717801 5.3703023 13.249701 6.6701959 13.595703 8 L 10.427734 8 C 10.77436 6.6575443 11.2985 5.3507361 12 4.1132812 z M 9.6464844 4.3125 C 9.0844482 5.5021179 8.6600696 6.7391976 8.3730469 8 L 5.0488281 8 C 5.3907036 7.4255781 5.8184435 6.8722998 6.3378906 6.3515625 C 7.3453088 5.3416421 8.4757816 4.6768645 9.6464844 4.3125 z M 14.380859 4.359375 C 14.68119 4.4552887 14.977065 4.5683083 15.265625 4.6972656 C 16.801101 5.3834691 18.122309 6.5144957 18.976562 8 L 15.646484 8 C 15.363796 6.7592668 14.940921 5.5409 14.380859 4.359375 z M 4.2128906 10 L 8.0351562 10 C 7.8868442 11.329029 7.8868442 12.670971 8.0351562 14 L 4.2480469 14 C 3.9015774 12.70682 3.8677466 11.33333 4.2128906 10 z M 10.046875 10 L 13.974609 10 C 14.132414 11.317415 14.114263 12.655285 13.923828 14 L 10.046875 14 C 9.8796836 12.672086 9.8796836 11.327914 10.046875 10 z M 19 15 A 1 1 0 0 0 18 16 L 18 19.585938 L 16.707031 18.292969 A 1 1 0 0 0 15.292969 18.292969 A 1 1 0 0 0 15.292969 19.707031 L 18.283203 22.697266 L 18.292969 22.707031 A 1.0001 1.0001 0 0 0 18.341797 22.75 A 1 1 0 0 0 18.384766 22.787109 A 1.0001 1.0001 0 0 0 18.439453 22.824219 A 1 1 0 0 0 18.492188 22.861328 A 1.0001 1.0001 0 0 0 18.5 22.865234 A 1 1 0 0 0 18.611328 22.921875 A 1.0001 1.0001 0 0 0 18.617188 22.923828 A 1 1 0 0 0 18.742188 22.964844 A 1 1 0 0 0 18.794922 22.976562 A 1.0001 1.0001 0 0 0 19 23 A 1.0001 1.0001 0 0 0 19.205078 22.976562 A 1.0001 1.0001 0 0 0 19.257812 22.964844 A 1 1 0 0 0 19.382812 22.923828 A 1.0001 1.0001 0 0 0 19.560547 22.824219 A 1 1 0 0 0 19.615234 22.787109 A 1.0001 1.0001 0 0 0 19.658203 22.75 A 1 1 0 0 0 19.716797 22.697266 L 22.707031 19.707031 A 1 1 0 0 0 22.707031 18.292969 A 1 1 0 0 0 21.292969 18.292969 L 20 19.585938 L 20 16 A 1 1 0 0 0 19 15 z M 5.0683594 16 L 8.3730469 16 C 8.659372 17.257738 9.0825749 18.49078 9.6425781 19.677734 C 7.6205163 19.08303 6.0457804 17.719001 5.0683594 16 z " fill="currentColor"/>
</svg>
