<svg xmlns="http://www.w3.org/2000/svg" width="1em" height="1em" viewBox="0 0 24 24" fill="currentColor">
  <path d="M 11.501953 2 A 1 1 0 0 0 11.275391 2.0253906 L 11.273438 2.0253906 C 8.2120158 2.2469146 5.4022107 3.8701396 3.6835938 6.4453125 A 1 1 0 0 0 3.9609375 7.8320312 A 1 1 0 0 0 5.3476562 7.5546875 C 6.378527 6.0100326 7.8975103 4.8955685 9.625 4.359375 C 9.2689711 5.1183935 8.9658707 5.9018611 8.71875 6.7050781 A 1 1 0 0 0 9.3808594 7.9550781 A 1 1 0 0 0 10.628906 7.2949219 C 10.969602 6.1875559 11.429437 5.1203782 12 4.1132812 C 12.57111 5.1203123 13.031859 6.1874921 13.373047 7.2949219 A 1 1 0 0 0 14.623047 7.9550781 A 1 1 0 0 0 15.283203 6.7050781 C 15.035245 5.9002511 14.732263 5.115855 14.375 4.3554688 C 16.108965 4.8898283 17.632818 6.0054092 18.667969 7.5546875 A 1 1 0 0 0 20.054688 7.8320312 A 1 1 0 0 0 20.332031 6.4453125 C 18.609106 3.8667269 15.791495 2.2436123 12.724609 2.0253906 L 12.722656 2.0253906 A 1 1 0 0 0 12.384766 2.0058594 C 12.256602 2.0011308 12.128863 1.9997866 12 2 L 11.998047 2 C 11.870718 1.9999472 11.743827 2.0030376 11.617188 2.0078125 A 1 1 0 0 0 11.501953 2 z M 2.0175781 9 A 1 1 0 0 0 1.7578125 9.0292969 A 1 1 0 0 0 1.0292969 10.242188 L 2.0292969 14.242188 A 1.0001 1.0001 0 0 0 3.9355469 14.351562 L 4.5 12.845703 L 5.0644531 14.351562 A 1.0001 1.0001 0 0 0 6.9707031 14.242188 L 7.9707031 10.242188 A 1 1 0 0 0 7.2421875 9.0292969 A 1 1 0 0 0 6.0292969 9.7578125 L 5.8085938 10.642578 L 5.4355469 9.6484375 A 1.0001 1.0001 0 0 0 4.5 9 A 1.0001 1.0001 0 0 0 3.5644531 9.6484375 L 3.1914062 10.642578 L 2.9707031 9.7578125 A 1 1 0 0 0 2.0175781 9 z M 9.5175781 9 A 1 1 0 0 0 9.2578125 9.0292969 A 1 1 0 0 0 8.5292969 10.242188 L 9.5292969 14.242188 A 1.0001 1.0001 0 0 0 11.435547 14.351562 L 12 12.845703 L 12.564453 14.351562 A 1.0001 1.0001 0 0 0 14.470703 14.242188 L 15.470703 10.242188 A 1 1 0 0 0 14.742188 9.0292969 A 1 1 0 0 0 13.529297 9.7578125 L 13.308594 10.642578 L 12.935547 9.6484375 A 1.0001 1.0001 0 0 0 12 9 A 1.0001 1.0001 0 0 0 11.064453 9.6484375 L 10.691406 10.642578 L 10.470703 9.7578125 A 1 1 0 0 0 9.5175781 9 z M 17.017578 9 A 1 1 0 0 0 16.757812 9.0292969 A 1 1 0 0 0 16.029297 10.242188 L 17.029297 14.242188 A 1.0001 1.0001 0 0 0 18.935547 14.351562 L 19.5 12.845703 L 20.064453 14.351562 A 1.0001 1.0001 0 0 0 21.970703 14.242188 L 22.970703 10.242188 A 1 1 0 0 0 22.242188 9.0292969 A 1 1 0 0 0 21.029297 9.7578125 L 20.808594 10.642578 L 20.435547 9.6484375 A 1.0001 1.0001 0 0 0 19.5 9 A 1.0001 1.0001 0 0 0 18.564453 9.6484375 L 18.191406 10.642578 L 17.970703 9.7578125 A 1 1 0 0 0 17.017578 9 z M 4.4511719 16.001953 A 1 1 0 0 0 3.9609375 16.167969 A 1 1 0 0 0 3.6835938 17.554688 C 5.4035414 20.131855 8.2151161 21.755085 11.279297 21.974609 A 1 1 0 0 0 11.613281 21.992188 C 11.742007 21.997097 11.870561 22.000079 12 22 C 12.130347 22.000214 12.260994 21.997029 12.390625 21.992188 A 1 1 0 0 0 12.714844 21.974609 C 15.786031 21.75949 18.607072 20.136382 20.332031 17.554688 A 1 1 0 0 0 20.054688 16.167969 A 1 1 0 0 0 18.667969 16.445312 C 17.632829 17.994575 16.108943 19.110165 14.375 19.644531 C 14.73226 18.88415 15.035246 18.099743 15.283203 17.294922 A 1 1 0 0 0 14.623047 16.044922 A 1 1 0 0 0 13.373047 16.705078 C 13.031859 17.812508 12.57111 18.879688 12 19.886719 C 11.429437 18.879622 10.969602 17.812444 10.628906 16.705078 A 1 1 0 0 0 9.3808594 16.044922 A 1 1 0 0 0 8.71875 17.294922 C 8.9658707 18.098139 9.2689711 18.881607 9.625 19.640625 C 7.8975103 19.104431 6.378527 17.989968 5.3476562 16.445312 A 1 1 0 0 0 4.4511719 16.001953 z " fill="currentColor"/>
</svg>
