<svg xmlns="http://www.w3.org/2000/svg" width="1em" height="1em" viewBox="0 0 24 24" fill="currentColor">
  <path d="M 11.423828 2 C 8.9656021 2.127015 6.4958642 3.1675176 4.5664062 5.3125 C 1.4412214 8.7867747 1.3465159 13.36422 3.2285156 16.802734 C 4.7924503 19.660127 7.754939 21.784205 11.357422 21.986328 A 1 1 0 0 0 11.568359 21.994141 C 12.235711 22.017488 12.92185 21.983512 13.626953 21.867188 A 1 1 0 0 0 14.451172 20.716797 A 1 1 0 0 0 13.302734 19.892578 C 12.882165 19.961961 12.47095 20.00048 12.070312 20.009766 C 11.333702 18.736444 10.785754 17.386587 10.427734 16 L 14.5 16 A 1 1 0 0 0 14.642578 15.990234 A 1 1 0 0 0 15.751953 15.189453 C 16.086698 13.455476 16.161072 11.713845 15.978516 10 L 19.777344 10 C 19.960985 10.762521 20.037092 11.585702 19.986328 12.462891 A 1 1 0 0 0 20.927734 13.517578 A 1 1 0 0 0 21.982422 12.578125 C 22.252459 7.9119515 19.467483 4.2802242 15.849609 2.7714844 C 14.945141 2.3942994 13.983296 2.1468017 13 2.0429688 C 12.883074 2.0306217 12.765899 2.0200009 12.648438 2.0117188 A 1 1 0 0 0 12.474609 2.0019531 C 12.125469 1.983385 11.775003 1.981855 11.423828 2 z M 12 4.1132812 C 12.717869 5.3703783 13.249701 6.6702168 13.595703 8 L 10.427734 8 C 10.77436 6.6575424 11.298498 5.3507377 12 4.1132812 z M 9.6503906 4.3027344 C 9.0861311 5.4952584 8.6608313 6.7358517 8.3730469 8 L 5.0527344 8 C 5.3293149 7.5370351 5.6614504 7.0853819 6.0527344 6.6503906 C 7.1208576 5.4629558 8.3581529 4.6999897 9.6503906 4.3027344 z M 14.382812 4.3613281 C 14.618762 4.4365353 14.851013 4.5216618 15.080078 4.6171875 C 16.696812 5.2914043 18.09583 6.4502771 18.984375 8 L 15.646484 8 C 15.363911 6.7597297 14.942577 5.5424357 14.382812 4.3613281 z M 4.2070312 10 L 8.0351562 10 C 7.8868442 11.329029 7.8868442 12.670971 8.0351562 14 L 4.2382812 14 C 3.8890207 12.713372 3.8533525 11.342058 4.2070312 10 z M 10.046875 10 L 13.974609 10 C 14.132361 11.317272 14.114278 12.655093 13.923828 14 L 10.046875 14 C 9.8796836 12.672086 9.8796836 11.327914 10.046875 10 z M 18.933594 15.001953 A 1 1 0 0 0 18.804688 15.019531 A 1 1 0 0 0 18.167969 15.445312 L 16.167969 18.445312 A 1.0001 1.0001 0 0 0 17 20 L 19.130859 20 L 18.167969 21.445312 A 1 1 0 0 0 18.445312 22.832031 A 1 1 0 0 0 19.832031 22.554688 L 21.832031 19.554688 A 1.0001 1.0001 0 0 0 21 18 L 18.869141 18 L 19.832031 16.554688 A 1 1 0 0 0 19.554688 15.167969 A 1 1 0 0 0 18.933594 15.001953 z M 5.0703125 16 L 8.3730469 16 C 8.6605553 17.262936 9.0869371 18.501888 9.6503906 19.693359 C 7.655202 19.101109 6.0658676 17.731598 5.0703125 16 z " fill="currentColor"/>
</svg>
