<svg xmlns="http://www.w3.org/2000/svg" width="1em" height="1em" viewBox="0 0 24 24" fill="currentColor">
  <path d="M 18 2 C 16.356252 2 15 3.3562525 15 5 L 15 7 L 15 17 A 1.0001 1.0001 0 0 0 15.292969 17.707031 L 15.585938 18 L 15.5 18 C 14.899853 18 14.419444 17.820443 13.908203 17.373047 C 13.396962 16.925651 12.880321 16.17958 12.419922 15.105469 A 1.0001 1.0001 0 0 0 10.605469 15.052734 C 10.302533 15.659516 9.8207308 16.46666 9.1679688 17.445312 C 8.974861 17.734974 8.8227679 17.849765 8.7851562 17.869141 C 8.7828055 17.870352 8.7808177 17.873954 8.7792969 17.875 L 8.7773438 17.875 C 8.7726177 17.87223 8.7660962 17.867352 8.7539062 17.863281 C 8.6352153 17.823763 8.0917157 17.303245 7.5292969 16.630859 C 8.4798806 15.488898 9 14.286028 9 13 C 9 11.388889 8.7713008 10.357238 8.0820312 9.6679688 C 7.3927615 8.978699 6.5 9 6 9 C 4.2766667 9 2.9618936 10.73715 3 13.017578 C 3.021931 14.302534 3.5894816 15.295844 4.1875 15.996094 C 4.3566838 16.1942 4.4515049 16.281417 4.6152344 16.449219 C 3.9708685 17.007641 3.4731282 17.550439 2.4863281 18.142578 A 1 1 0 0 0 2.1425781 19.513672 A 1 1 0 0 0 3.5136719 19.857422 C 4.5568662 19.231443 5.1848714 18.556705 5.9511719 17.898438 C 6.6310126 18.779685 7.2456952 19.469919 8.1210938 19.761719 C 8.6131623 19.925742 9.2212054 19.892734 9.6992188 19.646484 C 10.177232 19.400235 10.525139 19.015027 10.832031 18.554688 C 11.148516 18.080199 11.31163 17.751377 11.558594 17.34375 C 11.898248 17.860076 12.169344 18.507257 12.591797 18.876953 C 13.413806 19.596307 14.433147 20 15.5 20 L 18 20 A 1.0001 1.0001 0 0 0 18.257812 19.964844 A 1 1 0 0 0 18.382812 19.923828 A 1.0001 1.0001 0 0 0 18.388672 19.921875 A 1 1 0 0 0 18.5 19.865234 A 1.0001 1.0001 0 0 0 18.507812 19.861328 A 1 1 0 0 0 18.615234 19.787109 A 1.0001 1.0001 0 0 0 18.619141 19.785156 A 1 1 0 0 0 18.716797 19.697266 L 20.707031 17.707031 A 1 1 0 0 0 20.707031 17.292969 A 1 1 0 0 0 21 17 L 21 7 L 21 5 C 21 3.3562525 19.643748 2 18 2 z M 18 4 C 18.598252 4 19 4.4017475 19 5 L 19 6 L 17 6 L 17 5 C 17 4.4017475 17.401748 4 18 4 z M 17 8 L 19 8 L 19 16.585938 L 18 17.585938 L 17 16.585938 L 17 8 z M 6 11 C 6.5 11 6.6072385 11.021301 6.6679688 11.082031 C 6.7286991 11.142763 7 11.611111 7 13 C 7 13.632005 6.6264877 14.348605 6.0761719 15.091797 C 5.9588406 14.973888 5.8072498 14.814617 5.7070312 14.697266 C 5.2743754 14.190647 5.0126508 13.7464 5 12.984375 A 1.0001 1.0001 0 0 0 5 12.982422 C 4.9741064 11.432897 5.7233333 11 6 11 z " fill="currentColor"/>
</svg>
