<svg xmlns="http://www.w3.org/2000/svg" width="1em" height="1em" viewBox="0 0 24 24" fill="currentColor">
  <path d="M 3 2 A 1 1 0 0 0 2.2929688 2.2929688 A 1 1 0 0 0 2.2929688 3.7070312 L 8.5859375 10 L 6 10 A 1 1 0 0 0 5 11 A 1 1 0 0 0 6 12 L 9 12 C 9.4166663 12 9.6018927 12.120244 9.7519531 12.289062 C 9.9020136 12.45788 10 12.722222 10 13 C 10 13.277778 9.9020136 13.542119 9.7519531 13.710938 C 9.6018927 13.879755 9.4166663 14 9 14 L 5 14 C 4.0833335 14 3.268559 14.379756 2.7519531 14.960938 C 2.2353472 15.542118 2 16.277778 2 17 C 2 17.722222 2.2353472 18.457881 2.7519531 19.039062 C 3.268559 19.620244 4.0833335 20 5 20 L 18 20 A 1.0001 1.0001 0 0 0 18.054688 19.996094 A 1 1 0 0 0 18.105469 19.994141 A 1.0001 1.0001 0 0 0 18.121094 19.992188 A 1 1 0 0 0 18.353516 19.935547 A 1.0001 1.0001 0 0 0 18.357422 19.933594 A 1 1 0 0 0 18.46875 19.882812 L 20.292969 21.707031 A 1 1 0 0 0 21.707031 21.707031 A 1 1 0 0 0 21.707031 20.292969 L 19.207031 17.792969 L 16.716797 15.302734 A 1 1 0 0 0 16.697266 15.283203 L 3.7070312 2.2929688 A 1 1 0 0 0 3 2 z M 18 2 C 16.356252 2 15 3.3562525 15 5 L 15 12 A 1 1 0 0 0 16 13 A 1 1 0 0 0 17 12 L 17 8 L 19 8 L 19 16 A 1 1 0 0 0 20 17 A 1 1 0 0 0 21 16 L 21 5 C 21 3.3562525 19.643748 2 18 2 z M 18 4 C 18.598252 4 19 4.4017475 19 5 L 19 6 L 17 6 L 17 5 C 17 4.4017475 17.401748 4 18 4 z M 11.976562 13.390625 L 15 16.414062 L 15 17 A 1.0001 1.0001 0 0 0 15.292969 17.707031 L 15.585938 18 L 5 18 C 4.5833337 18 4.3981073 17.879756 4.2480469 17.710938 C 4.0979864 17.542119 4 17.277778 4 17 C 4 16.722222 4.0979864 16.457881 4.2480469 16.289062 C 4.3981073 16.120244 4.5833337 16 5 16 L 9 16 C 9.9166665 16 10.731441 15.620244 11.248047 15.039062 C 11.671538 14.562635 11.905792 13.982169 11.976562 13.390625 z " fill="currentColor"/>
</svg>
