<svg xmlns="http://www.w3.org/2000/svg" width="1em" height="1em" viewBox="0 0 24 24" fill="currentColor">
  <path d="M 20.966797 2 A 1 1 0 0 0 20.117188 2.5292969 L 18.111328 6.2910156 L 15.859375 2.4902344 A 1 1 0 0 0 14.490234 2.140625 A 1 1 0 0 0 14.140625 3.5097656 L 17.011719 8.3535156 L 15.318359 11.529297 A 1 1 0 0 0 15.728516 12.882812 A 1 1 0 0 0 17.082031 12.470703 L 21.882812 3.4707031 A 1 1 0 0 0 21.470703 2.1171875 A 1 1 0 0 0 20.966797 2 z M 5 11 A 1 1 0 0 0 4.2929688 11.292969 A 1 1 0 0 0 4.2929688 12.707031 L 6.5859375 15 L 4.2929688 17.292969 A 1 1 0 0 0 4.2929688 18.707031 A 1 1 0 0 0 5.7070312 18.707031 L 8 16.414062 L 10.292969 18.707031 A 1 1 0 0 0 11.707031 18.707031 A 1 1 0 0 0 11.707031 17.292969 L 9.4140625 15 L 11.707031 12.707031 A 1 1 0 0 0 11.707031 11.292969 A 1 1 0 0 0 11 11 A 1 1 0 0 0 10.292969 11.292969 L 8 13.585938 L 5.7070312 11.292969 A 1 1 0 0 0 5 11 z " fill="currentColor"/>
</svg>
