<svg xmlns="http://www.w3.org/2000/svg" width="1em" height="1em" viewBox="0 0 24 24" fill="currentColor">
  <path d="M 12 2 C 6.4889971 2 2 6.4889971 2 12 C 2 17.511003 6.4889971 22 12 22 C 17.511003 22 22 17.511003 22 12 C 22 6.4889971 17.511003 2 12 2 z M 12 4 C 16.430123 4 20 7.5698774 20 12 C 20 16.430123 16.430123 20 12 20 C 7.5698774 20 4 16.430123 4 12 C 4 7.5698774 7.5698774 4 12 4 z M 10 7 A 1.0001 1.0001 0 0 0 9 8 L 9 12 L 9 16 A 1.0001 1.0001 0 0 0 10 17 L 13 17 C 13.916666 17 14.731441 16.620244 15.248047 16.039062 C 15.764653 15.457881 16 14.722222 16 14 C 16 13.293864 15.774122 12.574883 15.28125 12 C 15.774122 11.425116 16 10.706136 16 10 C 16 9.2777779 15.764653 8.5421194 15.248047 7.9609375 C 14.731441 7.3797556 13.916666 7 13 7 L 10 7 z M 11 9 L 13 9 C 13.416666 9 13.601893 9.1202444 13.751953 9.2890625 C 13.902014 9.4578806 14 9.7222221 14 10 C 14 10.277778 13.90201 10.542119 13.751953 10.710938 C 13.601894 10.879755 13.416663 10.999999 13 11 L 11 11 L 11 9 z M 11 13 L 13 13 C 13.416666 13 13.601893 13.120244 13.751953 13.289062 C 13.902014 13.45788 14 13.722222 14 14 C 14 14.277778 13.90201 14.542119 13.751953 14.710938 C 13.601893 14.879755 13.416666 15 13 15 L 11 15 L 11 13 z " fill="currentColor"/>
</svg>
