<svg xmlns="http://www.w3.org/2000/svg" width="1em" height="1em" viewBox="0 0 24 24" fill="currentColor">
  <path d="M 14 7 A 1 1 0 0 0 13 8 L 13 16 A 1.0001 1.0001 0 0 0 14 17 L 16 17 C 17.64501 17 19 15.64501 19 14 L 19 10 C 19 8.3549904 17.64501 7 16 7 L 14 7 z M 5.9296875 7.0019531 A 1 1 0 0 0 5.5527344 7.1054688 A 1 1 0 0 0 5.1054688 8.4472656 L 6.8828125 12 L 5.1054688 15.552734 A 1 1 0 0 0 5.5527344 16.894531 A 1 1 0 0 0 6.8945312 16.447266 L 8 14.236328 L 9.1054688 16.447266 A 1 1 0 0 0 10.447266 16.894531 A 1 1 0 0 0 10.894531 15.552734 L 9.1171875 12 L 10.894531 8.4472656 A 1 1 0 0 0 10.447266 7.1054688 A 1 1 0 0 0 9.6835938 7.0507812 A 1 1 0 0 0 9.1054688 7.5527344 L 8 9.7636719 L 6.8945312 7.5527344 A 1 1 0 0 0 6.3164062 7.0507812 A 1 1 0 0 0 5.9296875 7.0019531 z M 15 9 L 16 9 C 16.564129 9 17 9.4358706 17 10 L 17 14 C 17 14.564129 16.564129 15 16 15 L 15 15 L 15 9 z " fill="currentColor"/>
</svg>
