<svg xmlns="http://www.w3.org/2000/svg" width="1em" height="1em" viewBox="0 0 24 24" fill="currentColor">
  <path d="M 2.9296875 7.0019531 A 1 1 0 0 0 2.5527344 7.1054688 A 1 1 0 0 0 2.1054688 8.4472656 L 3.8828125 12 L 2.1054688 15.552734 A 1 1 0 0 0 2.5527344 16.894531 A 1 1 0 0 0 3.8945312 16.447266 L 5 14.236328 L 6.1054688 16.447266 A 1 1 0 0 0 7.4472656 16.894531 A 1 1 0 0 0 7.8945312 15.552734 L 6.1171875 12 L 7.8945312 8.4472656 A 1 1 0 0 0 7.4472656 7.1054688 A 1 1 0 0 0 6.6835938 7.0507812 A 1 1 0 0 0 6.1054688 7.5527344 L 5 9.7636719 L 3.8945312 7.5527344 A 1 1 0 0 0 2.9296875 7.0019531 z M 9.9296875 7.0019531 A 1 1 0 0 0 9.5527344 7.1054688 A 1 1 0 0 0 9.1054688 8.4472656 L 10.882812 12 L 9.1054688 15.552734 A 1 1 0 0 0 9.5527344 16.894531 A 1 1 0 0 0 10.894531 16.447266 L 12 14.236328 L 13.105469 16.447266 A 1 1 0 0 0 14.447266 16.894531 A 1 1 0 0 0 14.894531 15.552734 L 13.117188 12 L 14.894531 8.4472656 A 1 1 0 0 0 14.447266 7.1054688 A 1 1 0 0 0 13.683594 7.0507812 A 1 1 0 0 0 13.105469 7.5527344 L 12 9.7636719 L 10.894531 7.5527344 A 1 1 0 0 0 10.316406 7.0507812 A 1 1 0 0 0 9.9296875 7.0019531 z M 16.929688 7.0019531 A 1 1 0 0 0 16.552734 7.1054688 A 1 1 0 0 0 16.105469 8.4472656 L 17.882812 12 L 16.105469 15.552734 A 1 1 0 0 0 16.552734 16.894531 A 1 1 0 0 0 17.894531 16.447266 L 19 14.236328 L 20.105469 16.447266 A 1 1 0 0 0 21.447266 16.894531 A 1 1 0 0 0 21.894531 15.552734 L 20.117188 12 L 21.894531 8.4472656 A 1 1 0 0 0 21.447266 7.1054688 A 1 1 0 0 0 20.105469 7.5527344 L 19 9.7636719 L 17.894531 7.5527344 A 1 1 0 0 0 16.929688 7.0019531 z " fill="currentColor"/>
</svg>
