<svg xmlns="http://www.w3.org/2000/svg" width="1em" height="1em" viewBox="0 0 24 24" fill="currentColor">
  <path d="M 3 2 A 1 1 0 0 0 2.2929688 2.2929688 A 1 1 0 0 0 2.2929688 3.7070312 L 3.1171875 4.53125 A 1.0001 1.0001 0 0 0 3 5 L 3 7.8632812 C 2.4377302 8.316102 1.8787704 8.7717675 1.3378906 9.25 A 1.0001 1.0001 0 0 0 1.3378906 10.75 C 1.8787704 11.228232 2.4377302 11.683898 3 12.136719 L 3 15 A 1.0001 1.0001 0 0 0 4.6386719 15.769531 L 6.265625 14.416016 C 7.2014985 14.999651 8.113044 15.497859 9 15.896484 L 9 20 A 1.0001 1.0001 0 0 0 10 21 L 16 21 A 1.0001 1.0001 0 0 0 17 20 L 17 18.414062 L 20.292969 21.707031 A 1 1 0 0 0 21.707031 21.707031 A 1 1 0 0 0 21.707031 20.292969 L 16.716797 15.302734 A 1 1 0 0 0 16.697266 15.283203 L 3.7070312 2.2929688 A 1 1 0 0 0 3 2 z M 13.5 3 C 11.977413 3 10.369099 3.4141842 8.671875 4.1933594 A 1 1 0 0 0 8.1796875 5.5195312 A 1 1 0 0 0 9.5058594 6.0117188 C 11.010636 5.3208939 12.342587 5 13.5 5 C 15.65626 5 17.591122 5.6266561 18.933594 6.5742188 C 20.276065 7.5217814 21 8.7258204 21 10 C 21 11.475714 20.015335 12.876358 18.255859 13.849609 A 1 1 0 0 0 17.863281 15.208984 A 1 1 0 0 0 19.222656 15.599609 C 21.433181 14.376861 23 12.362286 23 10 C 23 7.9601796 21.819966 6.1633905 20.085938 4.9394531 C 18.351909 3.7155158 16.03774 3 13.5 3 z M 5 7.1347656 L 5.4941406 7.546875 A 1.0001 1.0001 0 0 0 6.34375 7.7578125 L 13.585938 15 C 13.557438 15.00022 13.528572 15 13.5 15 C 11.659828 15 9.3715461 14.176436 6.6894531 12.390625 A 1.0001 1.0001 0 0 0 5.4960938 12.455078 L 5 12.867188 L 5 11.669922 A 1.0001 1.0001 0 0 0 4.6191406 10.884766 C 4.2580124 10.600163 3.9127626 10.295491 3.5605469 10 C 3.9127626 9.7045095 4.2580124 9.3998375 4.6191406 9.1152344 A 1.0001 1.0001 0 0 0 5 8.3300781 L 5 7.1347656 z M 11 16.632812 C 11.858787 16.873022 12.69221 17 13.5 17 C 14.009903 17 14.511058 16.97088 15 16.914062 L 15 19 L 11 19 L 11 16.632812 z " fill="currentColor"/>
</svg>
