<svg xmlns="http://www.w3.org/2000/svg" width="1em" height="1em" viewBox="0 0 24 24" fill="currentColor">
  <path d="M 21 2 A 1 1 0 0 0 20.292969 2.2929688 L 17.613281 4.9726562 C 16.072669 3.7390982 14.12031 3 12 3 C 7.0412829 3 3 7.0412792 3 12 C 3 14.12031 3.7390985 16.07267 4.9726562 17.613281 L 2.2929688 20.292969 A 1 1 0 0 0 2.2929688 21.707031 A 1 1 0 0 0 3.7070312 21.707031 L 6.3867188 19.027344 C 7.9273305 20.260902 9.8796905 21 12 21 C 16.958717 21 21 16.958721 21 12 C 21 9.8796896 20.260902 7.92733 19.027344 6.3867188 L 21.707031 3.7070312 A 1 1 0 0 0 21.707031 2.2929688 A 1 1 0 0 0 21 2 z M 12 5 C 13.57678 5 15.029456 5.5153639 16.197266 6.3886719 L 6.3886719 16.197266 C 5.515364 15.029456 5 13.57678 5 12 C 5 8.1221588 8.1221613 5 12 5 z M 17.611328 7.8027344 C 18.484636 8.9705436 19 10.42322 19 12 C 19 15.877841 15.877839 19 12 19 C 10.42322 19 8.9705439 18.484636 7.8027344 17.611328 L 17.611328 7.8027344 z " fill="currentColor"/>
</svg>
