<svg xmlns="http://www.w3.org/2000/svg" width="1em" height="1em" viewBox="0 0 24 24" fill="currentColor">
  <path d="M 6 2 A 1 1 0 0 0 5 3 C 5 5.5404057 6.3668922 7.7730837 8.4023438 9 C 6.3668922 10.226916 5 12.459594 5 15 C 5 18.854151 8.1458524 22 12 22 C 15.854148 22 19 18.854151 19 15 C 19 12.459594 17.633108 10.226916 15.597656 9 C 17.633108 7.7730837 19 5.5404057 19 3 A 1 1 0 0 0 18 2 A 1 1 0 0 0 17 3 C 17 5.773271 14.773269 8 12 8 C 9.2267307 8 7 5.773271 7 3 A 1 1 0 0 0 6 2 z M 12 10 C 14.773269 10 17 12.226729 17 15 C 17 17.773271 14.773269 20 12 20 C 9.2267307 20 7 17.773271 7 15 C 7 12.226729 9.2267307 10 12 10 z " fill="currentColor"/>
</svg>
