<svg xmlns="http://www.w3.org/2000/svg" width="1em" height="1em" viewBox="0 0 24 24" fill="currentColor">
  <path d="M 3 3 A 1 1 0 0 0 2 4 A 1 1 0 0 0 3 5 C 3.5641294 5 4 5.4358706 4 6 L 4 15 A 1 1 0 0 0 5 16 A 1 1 0 0 0 6 15 L 6 6 C 6 5.5833337 6.1202444 5.3981073 6.2890625 5.2480469 C 6.4578806 5.0979864 6.7222221 5 7 5 C 7.2777779 5 7.5421194 5.0979864 7.7109375 5.2480469 C 7.8797556 5.3981073 8 5.5833337 8 6 L 8 15 A 1 1 0 0 0 9 16 A 1 1 0 0 0 10 15 L 10 6 C 10 5.5833337 10.120244 5.3981073 10.289062 5.2480469 C 10.45788 5.0979864 10.722222 5 11 5 C 11.277778 5 11.542119 5.0979864 11.710938 5.2480469 C 11.879755 5.3981073 12 5.5833337 12 6 L 12 16 C 12 18.197294 13.802706 20 16 20 L 18.585938 20 L 17.292969 21.292969 A 1 1 0 0 0 17.292969 22.707031 A 1 1 0 0 0 18.707031 22.707031 L 21.707031 19.707031 A 1 1 0 0 0 21.707031 19.527344 A 1.0001 1.0001 0 0 0 21.707031 18.292969 L 18.707031 15.292969 A 1 1 0 0 0 17.292969 15.292969 A 1 1 0 0 0 17.292969 16.707031 L 18.585938 18 L 16 18 C 14.883586 18 14 17.116414 14 16 L 14 6 C 14 5.0833335 13.620244 4.268559 13.039062 3.7519531 C 12.45788 3.2353472 11.722222 3 11 3 C 10.293864 3 9.5748838 3.2258784 9 3.71875 C 8.4251162 3.2258784 7.7061359 3 7 3 C 6.2811326 3 5.5486571 3.2325341 4.96875 3.7441406 C 4.440142 3.2813217 3.7503935 3 3 3 z " fill="currentColor"/>
</svg>
