<svg xmlns="http://www.w3.org/2000/svg" width="1em" height="1em" viewBox="0 0 24 24" fill="currentColor">
  <path d="M 6 3 C 4.3549904 3 3 4.3549904 3 6 L 3 8 A 1 1 0 0 0 4 9 A 1 1 0 0 0 5 8 L 5 6 C 5 5.4358706 5.4358706 5 6 5 L 8 5 A 1 1 0 0 0 9 4 A 1 1 0 0 0 8 3 L 6 3 z M 16 3 A 1 1 0 0 0 15 4 A 1 1 0 0 0 16 5 L 18 5 C 18.564129 5 19 5.4358706 19 6 L 19 8 A 1 1 0 0 0 20 9 A 1 1 0 0 0 21 8 L 21 6 C 21 4.3549904 19.64501 3 18 3 L 16 3 z M 11 7 C 10.027778 7 9.0421194 7.3186806 8.2734375 8.0019531 C 7.5047556 8.6852256 7 9.7500003 7 11 C 7 12.25 7.5047556 13.314774 8.2734375 13.998047 C 9.0421194 14.681319 10.027778 15 11 15 C 11.709147 15 12.424566 14.829573 13.058594 14.472656 L 15.292969 16.707031 A 1 1 0 0 0 16.707031 16.707031 A 1 1 0 0 0 16.707031 15.292969 L 14.476562 13.0625 C 14.806482 12.477109 15 11.77405 15 11 C 15 9.7500003 14.495244 8.6852256 13.726562 8.0019531 C 12.95788 7.3186806 11.972222 7 11 7 z M 11 9 C 11.527778 9 12.042119 9.1813198 12.398438 9.4980469 C 12.754755 9.8147739 13 10.250001 13 11 C 13 11.749999 12.754756 12.185226 12.398438 12.501953 C 12.042118 12.81868 11.527778 13 11 13 C 10.472222 13 9.9578806 12.81868 9.6015625 12.501953 C 9.2452444 12.185226 9 11.749999 9 11 C 9 10.250001 9.2452444 9.8147739 9.6015625 9.4980469 C 9.9578806 9.1813198 10.472222 9 11 9 z M 4 15 A 1 1 0 0 0 3 16 L 3 18 C 3 19.64501 4.3549904 21 6 21 L 8 21 A 1 1 0 0 0 9 20 A 1 1 0 0 0 8 19 L 6 19 C 5.4358706 19 5 18.564129 5 18 L 5 16 A 1 1 0 0 0 4 15 z M 20 15 A 1 1 0 0 0 19 16 L 19 18 C 19 18.564129 18.564129 19 18 19 L 16 19 A 1 1 0 0 0 15 20 A 1 1 0 0 0 16 21 L 18 21 C 19.64501 21 21 19.64501 21 18 L 21 16 A 1 1 0 0 0 20 15 z " fill="currentColor"/>
</svg>
