<svg xmlns="http://www.w3.org/2000/svg" width="1em" height="1em" viewBox="0 0 24 24" fill="currentColor">
  <path d="M 10 2 C 5.5935677 2 2 5.5935644 2 10 C 2 14.406436 5.5935677 18 10 18 C 11.844154 18 13.546781 17.371423 14.902344 16.316406 L 20.292969 21.707031 A 1 1 0 0 0 21.707031 21.707031 A 1 1 0 0 0 21.707031 20.292969 L 16.316406 14.902344 C 17.371423 13.546781 18 11.844155 18 10 C 18 5.5935644 14.406432 2 10 2 z M 10 4 C 13.325554 4 16 6.6744439 16 10 C 16 13.325556 13.325554 16 10 16 C 6.674446 16 4 13.325556 4 10 C 4 6.6744439 6.674446 4 10 4 z M 10 6 A 1 1 0 0 0 9 7 L 9 9 L 7 9 A 1 1 0 0 0 6 10 A 1 1 0 0 0 7 11 L 9 11 L 9 13 A 1 1 0 0 0 10 14 A 1 1 0 0 0 11 13 L 11 11 L 13 11 A 1 1 0 0 0 14 10 A 1 1 0 0 0 13 9 L 11 9 L 11 7 A 1 1 0 0 0 10 6 z " fill="currentColor"/>
</svg>
