<svg xmlns="http://www.w3.org/2000/svg" width="1em" height="1em" viewBox="0 0 24 24" fill="currentColor">
  <path d="M 10.349609 2.0039062 C 9.619162 1.9731775 8.8739582 2.043277 8.1328125 2.2226562 C 5.3601923 2.8878097 3.1472869 4.9824572 2.3320312 7.7148438 A 1 1 0 0 0 3.0058594 8.9589844 A 1 1 0 0 0 4.25 8.2851562 C 4.862422 6.232581 6.5185107 4.6650353 8.6015625 4.1660156 A 1.0001 1.0001 0 0 0 8.6035156 4.1660156 C 11.241829 3.5274659 13.918711 4.721272 15.232422 7 L 13 7 A 1 1 0 0 0 12 8 A 1 1 0 0 0 13 9 L 17 9 A 1.0001 1.0001 0 0 0 18 8 L 18 4 A 1 1 0 0 0 17 3 A 1 1 0 0 0 16 4 L 16 4.6738281 C 14.723939 3.2501541 12.97039 2.3225523 11.074219 2.0683594 C 10.834601 2.0362373 10.593092 2.0141492 10.349609 2.0039062 z M 3 11 A 1.0001 1.0001 0 0 0 2 12 L 2 16 A 1 1 0 0 0 3 17 A 1 1 0 0 0 4 16 L 4 15.318359 C 5.9200901 17.460784 8.9211903 18.480409 11.863281 17.769531 C 12.985455 17.500587 14.015248 16.997075 14.898438 16.3125 L 20.292969 21.707031 A 1 1 0 0 0 21.707031 21.707031 A 1 1 0 0 0 21.707031 20.292969 L 16.314453 14.900391 C 16.912484 14.131716 17.373855 13.249106 17.662109 12.287109 A 1 1 0 0 0 16.992188 11.042969 A 1 1 0 0 0 15.748047 11.712891 C 15.134006 13.762141 13.478793 15.327586 11.398438 15.826172 A 1.0001 1.0001 0 0 0 11.396484 15.826172 C 8.761529 16.463544 6.0888118 15.273272 4.7734375 13 L 7 13 A 1 1 0 0 0 8 12 A 1 1 0 0 0 7 11 L 3 11 z " fill="currentColor"/>
</svg>
