<svg xmlns="http://www.w3.org/2000/svg" width="1em" height="1em" viewBox="0 0 24 24" fill="currentColor">
  <path d="M 5 2 C 3.3549904 2 2 3.3549904 2 5 L 2 6 A 1 1 0 0 0 3 7 A 1 1 0 0 0 4 6 L 4 5 C 4 4.4358706 4.4358706 4 5 4 L 6 4 A 1 1 0 0 0 7 3 A 1 1 0 0 0 6 2 L 5 2 z M 10 2 A 1 1 0 0 0 9 3 A 1 1 0 0 0 10 4 L 11 4 A 1 1 0 0 0 12 3 A 1 1 0 0 0 11 2 L 10 2 z M 15 2 A 1 1 0 0 0 14 3 A 1 1 0 0 0 15 4 L 16 4 C 16.564129 4 17 4.4358706 17 5 L 17 6 A 1 1 0 0 0 18 7 A 1 1 0 0 0 19 6 L 19 5 C 19 3.3549904 17.64501 2 16 2 L 15 2 z M 3 9 A 1 1 0 0 0 2 10 L 2 11 A 1 1 0 0 0 3 12 A 1 1 0 0 0 4 11 L 4 10 A 1 1 0 0 0 3 9 z M 15 9 C 13.527778 9 12.042119 9.4853475 10.898438 10.501953 C 9.7547551 11.518559 9 13.083334 9 15 C 9 18.301865 11.698137 21 15 21 C 16.291709 21 17.491133 20.587182 18.472656 19.886719 L 21.292969 22.707031 A 1 1 0 0 0 22.707031 22.707031 A 1 1 0 0 0 22.707031 21.292969 L 19.886719 18.472656 C 20.587182 17.491133 21 16.29171 21 15 C 21 13.083334 20.245244 11.518559 19.101562 10.501953 C 17.957881 9.4853475 16.472222 9 15 9 z M 15 11 C 16.027778 11 17.042119 11.347987 17.773438 11.998047 C 18.504756 12.648107 19 13.583334 19 15 C 19 17.220986 17.220985 19 15 19 C 12.779015 19 11 17.220986 11 15 C 11 13.583334 11.495244 12.648107 12.226562 11.998047 C 12.95788 11.347987 13.972222 11 15 11 z M 15 12 A 1 1 0 0 0 14 13 L 14 14 L 13 14 A 1 1 0 0 0 12 15 A 1 1 0 0 0 13 16 L 14 16 L 14 17 A 1 1 0 0 0 15 18 A 1 1 0 0 0 16 17 L 16 16 L 17 16 A 1 1 0 0 0 18 15 A 1 1 0 0 0 17 14 L 16 14 L 16 13 A 1 1 0 0 0 15 12 z M 3 14 A 1 1 0 0 0 2 15 L 2 16 C 2 17.64501 3.3549904 19 5 19 L 6 19 A 1 1 0 0 0 7 18 A 1 1 0 0 0 6 17 L 5 17 C 4.4358706 17 4 16.564129 4 16 L 4 15 A 1 1 0 0 0 3 14 z " fill="currentColor"/>
</svg>
