<svg width="24" height="24" viewBox="0 0 24 24" fill="none" xmlns="http://www.w3.org/2000/svg">
<path d="M12 1C18.0753 1 23 5.9247 23 12C23 18.0753 18.0753 23 12 23C5.9247 23 1 18.0753 1 12C1 5.9247 5.9247 1 12 1ZM12 4.3C9.95783 4.3 7.99931 5.11125 6.55528 6.55528C5.11125 7.99931 4.3 9.95783 4.3 12C4.3 12.2917 4.41589 12.5715 4.62218 12.7778C4.82847 12.9841 5.10826 13.1 5.4 13.1C5.69174 13.1 5.97153 12.9841 6.17782 12.7778C6.38411 12.5715 6.5 12.2917 6.5 12C6.5 10.5413 7.07946 9.14236 8.11091 8.11091C9.14236 7.07946 10.5413 6.5 12 6.5C12.2917 6.5 12.5715 6.38411 12.7778 6.17782C12.9841 5.97153 13.1 5.69174 13.1 5.4C13.1 5.10826 12.9841 4.82847 12.7778 4.62218C12.5715 4.41589 12.2917 4.3 12 4.3Z" fill="black"/>
</svg>
