<svg width="24" height="24" viewBox="0 0 24 24" fill="none" xmlns="http://www.w3.org/2000/svg">
<path fill-rule="evenodd" clip-rule="evenodd" d="M12.0004 3.74677C15.3056 3.74677 17.957 6.37943 17.957 9.59258C17.957 10.159 18.4161 10.6181 18.9825 10.6181C19.5488 10.6181 20.008 10.159 20.008 9.59258C20.008 5.21588 16.4074 1.69574 12.0004 1.69574C7.59337 1.69574 3.99268 5.21588 3.99268 9.59258C3.99268 10.159 4.45182 10.6181 5.0182 10.6181C5.58458 10.6181 6.04371 10.159 6.04371 9.59258C6.04371 6.37943 8.69506 3.74677 12.0004 3.74677Z" fill="#7CCE24"/>
<path d="M3.61101 14.8308L3.2788 12.2153C3.14666 11.1749 3.08058 10.6548 3.37662 10.3188C3.67264 9.98278 4.19698 9.98278 5.24566 9.98278H18.6989C19.7475 9.98278 20.2719 9.98278 20.568 10.3188C20.864 10.6548 20.7979 11.1749 20.6657 12.2153L20.3335 14.8308C19.9143 18.1317 19.7047 19.7821 18.581 20.7722C17.4573 21.7622 15.7936 21.7622 12.4661 21.7622H11.4785C8.15104 21.7622 6.48733 21.7622 5.36363 20.7722C4.23991 19.7821 4.03028 18.1317 3.61101 14.8308Z" fill="#1C2D09"/>
<path fill-rule="evenodd" clip-rule="evenodd" d="M18.7466 9.23928C18.7307 9.23928 18.7146 9.23928 18.6987 9.23928H5.19745C4.71443 9.23922 4.27662 9.23918 3.92526 9.28851C3.54135 9.34239 3.13303 9.47026 2.81848 9.82729C2.50392 10.1843 2.42854 10.6055 2.42344 10.9931C2.41878 11.3479 2.474 11.7822 2.53491 12.2614L2.8797 14.9759C3.08379 16.5827 3.24592 17.8594 3.50304 18.8542C3.76817 19.88 4.15575 20.6991 4.87186 21.3301C5.58798 21.9609 6.44951 22.2422 7.50053 22.376C8.5198 22.5057 9.80664 22.5057 11.4264 22.5057H12.5177C14.1374 22.5057 15.4243 22.5057 16.4436 22.376C17.4946 22.2422 18.3561 21.9609 19.0722 21.3301C19.7883 20.6991 20.1758 19.88 20.441 18.8542C20.6981 17.8594 20.8603 16.5827 21.0643 14.9759L21.4031 12.309C21.4051 12.293 21.4071 12.2772 21.4092 12.2614C21.4701 11.7822 21.5253 11.3479 21.5207 10.9931C21.5155 10.6055 21.4401 10.1843 21.1255 9.82729C20.8111 9.47026 20.4027 9.34239 20.0188 9.28851C19.6674 9.23918 19.2297 9.23922 18.7466 9.23928ZM20.0097 10.8105C20.0077 10.8093 20.004 10.8074 19.9983 10.8048C19.9746 10.7944 19.9208 10.7763 19.812 10.7611C19.5766 10.728 19.2454 10.7263 18.6987 10.7263H5.2454C4.69871 10.7263 4.3674 10.728 4.13199 10.7611C4.02326 10.7763 3.96949 10.7944 3.94575 10.8048C3.93995 10.8074 3.93636 10.8093 3.93443 10.8105C3.93355 10.8125 3.93209 10.8163 3.93029 10.8224C3.92289 10.8473 3.91176 10.9029 3.91031 11.0127C3.90719 11.2504 3.94723 11.5793 4.0161 12.1216L4.34832 14.7371C4.3503 14.7527 4.35228 14.7683 4.35424 14.7838C4.56327 16.4291 4.71419 17.5979 4.94273 18.4821C5.16816 19.3543 5.44726 19.8552 5.85485 20.2144C6.26246 20.5735 6.79463 20.7871 7.68826 20.9009C8.60278 21.0173 9.79494 21.0188 11.4782 21.0188H12.4658C14.1491 21.0188 15.3413 21.0173 16.2558 20.9009C17.1494 20.7871 17.6816 20.5735 18.0891 20.2144C18.4969 19.8552 18.7758 19.3543 19.0013 18.4821C19.232 17.5894 19.3836 16.407 19.5957 14.7371L19.9279 12.1216C19.9968 11.5793 20.0369 11.2504 20.0338 11.0127C20.0323 10.9029 20.0212 10.8473 20.0138 10.8224C20.012 10.8163 20.0105 10.8125 20.0097 10.8105Z" fill="#1C2D09"/>
<path fill-rule="evenodd" clip-rule="evenodd" d="M22.9998 9.64113C22.9998 9.07474 22.5407 8.6156 21.9742 8.6156H2.02527C1.4589 8.6156 0.999756 9.07474 0.999756 9.64113C0.999756 10.2075 1.4589 10.6666 2.02527 10.6666H21.9742C22.5407 10.6666 22.9998 10.2075 22.9998 9.64113Z" fill="#1C2D09"/>
</svg>
