<svg xmlns="http://www.w3.org/2000/svg" width="1em" height="1em" viewBox="0 0 24 24" fill="currentColor">
  <path d="M 7 5 C 6.2326167 4.9999976 5.4163402 5.4884598 5.1171875 6.3242188 L 1.0585938 17.662109 A 1 1 0 0 0 1.6621094 18.941406 A 1 1 0 0 0 2.9414062 18.337891 L 4.1367188 15 L 9.8632812 15 L 11.058594 18.337891 A 1 1 0 0 0 12.337891 18.941406 A 1 1 0 0 0 12.941406 17.662109 L 8.8828125 6.3242188 C 8.5836624 5.4884576 7.7673833 5.0000024 7 5 z M 18 6 C 17.103995 6.0000085 16.749699 6.4490033 16.267578 6.875 C 15.785457 7.3009967 15.300151 7.8248431 14.849609 8.34375 C 13.948526 9.3815637 13.195312 10.40625 13.195312 10.40625 A 1 1 0 0 0 13.40625 11.804688 A 1 1 0 0 0 14.804688 11.59375 C 14.804688 11.59375 15.523958 10.618434 16.359375 9.65625 C 16.569981 9.4136871 16.788292 9.172356 17 8.9511719 L 17 17 A 1 1 0 0 0 18 18 A 1 1 0 0 0 19 17 L 19 8.9511719 C 19.21171 9.1723576 19.430023 9.4136867 19.640625 9.65625 C 20.476026 10.618431 21.195313 11.59375 21.195312 11.59375 A 1 1 0 0 0 22.59375 11.804688 A 1 1 0 0 0 22.804688 10.40625 C 22.804688 10.40625 22.051465 9.3815712 21.150391 8.34375 C 20.699854 7.8248394 20.214554 7.3010006 19.732422 6.875 C 19.25029 6.4489994 18.895982 5.9999915 18 6 z M 7 7 L 9.1484375 13 L 4.8515625 13 L 7 7 z " fill="currentColor"/>
</svg>
