<svg xmlns="http://www.w3.org/2000/svg" width="1em" height="1em" viewBox="0 0 24 24" fill="currentColor">
  <path d="M 7 5 C 6.2326167 4.9999976 5.4163402 5.4884598 5.1171875 6.3242188 L 1.0585938 17.662109 A 1 1 0 0 0 1.6621094 18.941406 A 1 1 0 0 0 2.9414062 18.337891 L 4.1367188 15 L 9.8632812 15 L 11.058594 18.337891 A 1 1 0 0 0 12.337891 18.941406 A 1 1 0 0 0 12.941406 17.662109 L 8.8828125 6.3242188 C 8.5836624 5.4884576 7.7673833 5.0000024 7 5 z M 18 6 A 1 1 0 0 0 17 7 L 17 15.048828 C 16.788292 14.827644 16.56998 14.586313 16.359375 14.34375 C 15.523958 13.381565 14.804688 12.40625 14.804688 12.40625 A 1 1 0 0 0 14.150391 12.011719 A 1 1 0 0 0 13.40625 12.195312 A 1 1 0 0 0 13.195312 13.59375 C 13.195312 13.59375 13.948526 14.618435 14.849609 15.65625 C 15.300151 16.175158 15.785456 16.699003 16.267578 17.125 C 16.7497 17.550997 17.103989 18 18 18 C 18.895976 18 19.25029 17.551001 19.732422 17.125 C 20.214553 16.698999 20.699854 16.17516 21.150391 15.65625 C 22.051465 14.61843 22.804688 13.59375 22.804688 13.59375 A 1 1 0 0 0 22.59375 12.195312 A 1 1 0 0 0 21.195312 12.40625 C 21.195312 12.40625 20.476026 13.38157 19.640625 14.34375 C 19.430022 14.586313 19.21171 14.827642 19 15.048828 L 19 7 A 1 1 0 0 0 18 6 z M 7 7 L 9.1484375 13 L 4.8515625 13 L 7 7 z " fill="currentColor"/>
</svg>
