<svg xmlns="http://www.w3.org/2000/svg" width="1em" height="1em" viewBox="0 0 24 24" fill="currentColor">
  <path d="M 12 2 C 9.87868 2 8.2683853 1.9938448 6.9296875 2.1738281 C 5.5909897 2.3538114 4.4600166 2.7626397 3.6113281 3.6113281 C 2.7626397 4.4600166 2.3538114 5.5909897 2.1738281 6.9296875 C 1.9938448 8.2683853 2 9.87868 2 12 C 2 14.1213 1.99385 15.731605 2.1738281 17.070312 C 2.3538111 18.409022 2.7626282 19.539985 3.6113281 20.388672 C 4.460018 21.237349 5.5909914 21.646192 6.9296875 21.826172 C 8.2683836 22.006152 9.87868 22 12 22 C 14.1213 22 15.731605 22.0062 17.070312 21.826172 C 18.409021 21.646192 19.539983 21.23736 20.388672 20.388672 C 21.23736 19.539983 21.646192 18.40902 21.826172 17.070312 C 22.006152 15.731605 22 14.1213 22 12 C 22 9.87868 22.006152 8.2683836 21.826172 6.9296875 C 21.646192 5.5909914 21.237349 4.460018 20.388672 3.6113281 C 19.539985 2.7626282 18.409021 2.3538111 17.070312 2.1738281 C 15.731604 1.9938452 14.1213 2 12 2 z M 12 4 C 14.1213 4 15.692546 4.00673 16.804688 4.15625 C 17.916829 4.305772 18.505296 4.5560705 18.974609 5.0253906 C 19.443932 5.4947208 19.69423 6.0831836 19.84375 7.1953125 C 19.99327 8.3074414 20 9.87868 20 12 C 20 14.1213 19.9933 15.692545 19.84375 16.804688 C 19.69423 17.91683 19.443921 18.505298 18.974609 18.974609 C 18.505298 19.443921 17.91683 19.69423 16.804688 19.84375 C 15.692545 19.99327 14.1213 20 12 20 C 9.87868 20 8.3074414 19.99327 7.1953125 19.84375 C 6.0831836 19.69423 5.4947208 19.443932 5.0253906 18.974609 C 4.5560705 18.505296 4.305772 17.916829 4.15625 16.804688 C 4.006728 15.692546 4 14.1213 4 12 C 4 9.87868 4.0067283 8.3074397 4.15625 7.1953125 C 4.3057717 6.0831853 4.5560591 5.4947222 5.0253906 5.0253906 C 5.4947222 4.5560591 6.0831853 4.3057717 7.1953125 4.15625 C 8.3074397 4.0067283 9.87868 4 12 4 z M 10.552734 7.0019531 A 1.0001 1.0001 0 0 0 9.6054688 7.5527344 L 7.8828125 11 L 6 11 A 1 1 0 0 0 5 12 A 1 1 0 0 0 6 13 L 8.5 13 A 1.0001 1.0001 0 0 0 9.3945312 12.447266 L 10.369141 10.498047 L 12.564453 16.351562 A 1.0001 1.0001 0 0 0 14.394531 16.447266 L 16.117188 13 L 18 13 A 1 1 0 0 0 19 12 A 1 1 0 0 0 18 11 L 15.5 11 A 1.0001 1.0001 0 0 0 14.605469 11.552734 L 13.630859 13.501953 L 11.435547 7.6484375 A 1.0001 1.0001 0 0 0 10.552734 7.0019531 z " fill="currentColor"/>
</svg>
