<svg xmlns="http://www.w3.org/2000/svg" width="1em" height="1em" viewBox="0 0 24 24" fill="currentColor">
  <path d="M 12.001953 3.0078125 C 10.632998 3.00692 9.5019531 4.1388975 9.5019531 5.5078125 L 9.5019531 9.5097656 L 5.4980469 9.5097656 C 4.1297504 9.5097656 3 10.639476 3 12.007812 C 3 13.376148 4.1297504 14.505859 5.4980469 14.505859 L 9.5019531 14.505859 L 9.5019531 18.509766 C 9.5019531 19.878069 10.63365 21.009766 12.001953 21.009766 C 13.370257 21.009766 14.5 19.878069 14.5 18.509766 L 14.5 14.505859 L 18.501953 14.505859 C 19.869634 14.505859 21.000962 13.377377 21.001953 12.009766 C 21.002779 10.640836 19.870844 9.5097656 18.501953 9.5097656 L 14.5 9.5097656 L 14.5 5.5078125 C 14.5 4.1401278 13.369668 3.008705 12.001953 3.0078125 z M 12.001953 5.0078125 C 12.289238 5.008 12.5 5.2204772 12.5 5.5078125 L 12.5 10.509766 A 1.0001 1.0001 0 0 0 13.5 11.509766 L 18.501953 11.509766 C 18.789462 11.509766 19.002127 11.720141 19.001953 12.007812 C 19.001745 12.2952 18.789272 12.505859 18.501953 12.505859 L 13.5 12.505859 A 1.0001 1.0001 0 0 0 12.5 13.505859 L 12.5 18.509766 C 12.5 18.797262 12.28945 19.009766 12.001953 19.009766 C 11.714457 19.009766 11.501953 18.797262 11.501953 18.509766 L 11.501953 13.505859 A 1.0001 1.0001 0 0 0 10.501953 12.505859 L 5.4980469 12.505859 C 5.2105834 12.505859 5 12.295276 5 12.007812 C 5 11.720347 5.2105834 11.509766 5.4980469 11.509766 L 10.501953 11.509766 A 1.0001 1.0001 0 0 0 11.501953 10.509766 L 11.501953 5.5078125 C 11.501953 5.2201875 11.714309 5.007625 12.001953 5.0078125 z " fill="currentColor"/>
</svg>
