<svg xmlns="http://www.w3.org/2000/svg" width="1em" height="1em" viewBox="0 0 24 24" fill="currentColor">
  <path d="M 12 1 A 1 1 0 0 0 11 2 A 1 1 0 0 0 12 3 C 16.982356 3 21 7.0176176 21 12 C 21 16.982459 16.982362 21 12 21 C 7.0175835 21 3 16.982465 3 12 A 1 1 0 0 0 2 11 A 1 1 0 0 0 1 12 C 1 18.063335 5.9367165 23 12 23 C 18.063238 23 23 18.063341 23 12 C 23 5.9367224 18.063244 1 12 1 z M 8.8554688 1.4882812 A 1 1 0 0 0 8.5996094 1.5351562 C 7.4888992 1.8957903 6.4567263 2.4293905 5.5332031 3.1015625 A 1 1 0 0 0 5.3125 4.4980469 A 1 1 0 0 0 6.7109375 4.71875 C 7.4670544 4.168422 8.3114601 3.732086 9.21875 3.4375 A 1 1 0 0 0 9.859375 2.1777344 A 1 1 0 0 0 8.8554688 1.4882812 z M 3.8847656 5.1230469 A 1 1 0 0 0 3.7539062 5.1347656 A 1 1 0 0 0 3.1015625 5.5332031 C 2.429257 6.4569043 1.8957989 7.4906395 1.5351562 8.6015625 A 1 1 0 0 0 2.1777344 9.8613281 A 1 1 0 0 0 3.4375 9.21875 C 3.7320973 8.311273 4.1683155 7.4671963 4.71875 6.7109375 A 1 1 0 0 0 4.4980469 5.3125 A 1 1 0 0 0 3.8847656 5.1230469 z M 12 7 A 1 1 0 0 0 11 8 L 11 11 L 8 11 A 1 1 0 0 0 7 12 A 1 1 0 0 0 8 13 L 11 13 L 11 16 A 1 1 0 0 0 12 17 A 1 1 0 0 0 13 16 L 13 13 L 16 13 A 1 1 0 0 0 17 12 A 1 1 0 0 0 16 11 L 13 11 L 13 8 A 1 1 0 0 0 12 7 z " fill="currentColor"/>
</svg>
