<svg xmlns="http://www.w3.org/2000/svg" width="1em" height="1em" viewBox="0 0 24 24" fill="currentColor">
  <path d="M 10.109375 0.984375 C 9.6209748 1.0013756 9.1238811 1.084884 8.6367188 1.2382812 C 6.6880692 1.8518704 5 3.8510034 5 7.1132812 C 5 10.460145 4.5483776 11.698631 4.109375 12.5625 A 1.0001 1.0001 0 0 0 4.6523438 13.953125 C 5.5030079 14.267587 6.501753 14.454078 7.5 14.630859 L 7.5 15.255859 L 4.4960938 16.160156 A 1.0001 1.0001 0 0 0 4.4921875 16.162109 C 2.7696836 16.689257 1.4817899 18.07484 1.0546875 19.765625 C 0.90433552 20.360921 1.1060865 20.991009 1.4746094 21.386719 C 1.8431365 21.782381 2.3558344 22 2.90625 22 L 13.09375 22 A 1 1 0 0 0 14.09375 21 A 1 1 0 0 0 13.09375 20 L 3.1328125 20 C 3.4518561 19.110103 4.1225581 18.366059 5.0761719 18.074219 L 8.7871094 16.957031 A 1.0001 1.0001 0 0 0 9.5 16 L 9.5 13.845703 A 1.0001 1.0001 0 0 0 8.625 12.853516 C 7.7566636 12.743485 7.0262546 12.516113 6.2851562 12.300781 C 6.6699164 11.188538 7 9.7404863 7 7.1132812 C 7 4.4721091 8.0619306 3.5168927 9.2382812 3.1464844 C 10.414632 2.776076 11.812345 3.2680415 12.205078 3.7832031 A 1.0001 1.0001 0 0 0 13.162109 4.1640625 C 13.78078 4.0626563 14.116789 4.1340151 14.292969 4.2207031 C 14.469148 4.3073911 14.575947 4.4194223 14.699219 4.7226562 C 14.945762 5.3291241 15 6.6198431 15 8.0957031 C 15 9.9226133 15.344472 11.267264 15.701172 12.302734 C 14.963464 12.516308 14.238381 12.744115 13.375 12.853516 A 1.0001 1.0001 0 0 0 12.5 13.845703 L 12.5 16 A 1 1 0 0 0 13.5 17 A 1 1 0 0 0 14.5 16 L 14.5 14.630859 C 15.49825 14.454078 16.496991 14.267584 17.347656 13.953125 A 1.0001 1.0001 0 0 0 17.890625 12.5625 C 17.6671 12.122627 17 10.268827 17 8.0957031 C 17 6.6198431 17.054238 5.2071993 16.550781 3.96875 C 16.299053 3.3495253 15.843352 2.7542553 15.175781 2.4257812 C 14.629788 2.1571283 13.956132 2.1749049 13.263672 2.2324219 C 12.756676 1.7636342 12.225788 1.3053141 11.53125 1.1308594 C 11.077482 1.0168814 10.597775 0.96737438 10.109375 0.984375 z M 18.5 14 A 1 1 0 0 0 17.5 15 L 17.5 17.5 L 15 17.5 A 1 1 0 0 0 14 18.5 A 1 1 0 0 0 15 19.5 L 17.5 19.5 L 17.5 22 A 1 1 0 0 0 18.5 23 A 1 1 0 0 0 19.5 22 L 19.5 19.5 L 22 19.5 A 1 1 0 0 0 23 18.5 A 1 1 0 0 0 22 17.5 L 19.5 17.5 L 19.5 15 A 1 1 0 0 0 18.5 14 z " fill="currentColor"/>
</svg>
