<svg xmlns="http://www.w3.org/2000/svg" width="1em" height="1em" viewBox="0 0 24 24" fill="currentColor">
  <path d="M 9.5 3 C 7.0265633 3 5 5.0265633 5 7.5 C 5 9.9734367 7.0265633 12 9.5 12 C 11.973437 12 14 9.9734367 14 7.5 C 14 5.0265633 11.973437 3 9.5 3 z M 14.527344 3.1445312 A 1 1 0 0 0 13.541016 3.859375 A 1 1 0 0 0 14.214844 5.1035156 C 15.244186 5.4098762 16 6.3577964 16 7.5 C 16 8.6422036 15.244185 9.5901101 14.214844 9.8964844 A 1 1 0 0 0 13.541016 11.140625 A 1 1 0 0 0 14.785156 11.8125 C 16.647215 11.258274 18 9.5288164 18 7.5 C 18 5.4711836 16.647214 3.7397463 14.785156 3.1855469 A 1 1 0 0 0 14.527344 3.1445312 z M 9.5 5 C 10.892557 5 12 6.1074435 12 7.5 C 12 8.8925565 10.892557 10 9.5 10 C 8.1074435 10 7 8.8925565 7 7.5 C 7 6.1074435 8.1074435 5 9.5 5 z M 9.5 13 C 7.5848404 13 5.7954231 13.391116 4.2753906 14.083984 C 2.7170031 14.794379 2 16.428277 2 17.970703 L 2 20 A 1 1 0 0 0 3 21 A 1 1 0 0 0 4 20 L 4 17.970703 C 4 17.028529 4.4010832 16.224502 5.1035156 15.904297 C 6.3411231 15.340165 7.8593996 15 9.5 15 C 10.648667 15 11.736711 15.166933 12.710938 15.460938 A 1 1 0 0 0 13.957031 14.791016 A 1 1 0 0 0 13.289062 13.544922 C 12.120688 13.192327 10.840933 13 9.5 13 z M 18 13 A 1 1 0 0 0 17 14 L 17 16 L 15 16 A 1 1 0 0 0 14 17 A 1 1 0 0 0 15 18 L 17 18 L 17 20 A 1 1 0 0 0 18 21 A 1 1 0 0 0 19 20 L 19 18 L 21 18 A 1 1 0 0 0 22 17 A 1 1 0 0 0 21 16 L 19 16 L 19 14 A 1 1 0 0 0 18 13 z " fill="currentColor"/>
</svg>
