<svg xmlns="http://www.w3.org/2000/svg" width="1em" height="1em" viewBox="0 0 24 24" fill="currentColor">
  <path d="M 12 1.5 C 9.76083 1.5 8.061073 1.4944581 6.6542969 1.6835938 C 5.2475207 1.8727295 4.0688969 2.2982969 3.1835938 3.1835938 C 2.2982969 4.0688968 1.8727295 5.2475207 1.6835938 6.6542969 C 1.494458 8.061073 1.5 9.76083 1.5 12 C 1.5 14.23915 1.4944601 15.93892 1.6835938 17.345703 C 1.8727292 18.752486 2.2983047 19.931079 3.1835938 20.816406 C 4.0688995 21.70168 5.2475238 22.127276 6.6542969 22.316406 C 8.0610699 22.505536 9.76083 22.5 12 22.5 C 14.23915 22.5 15.938923 22.5055 17.345703 22.316406 C 18.752483 22.127277 19.931076 21.701673 20.816406 20.816406 C 21.701673 19.931076 22.127277 18.752483 22.316406 17.345703 C 22.505536 15.938923 22.5 14.23915 22.5 12 C 22.5 9.76083 22.5055 8.0610699 22.316406 6.6542969 C 22.127276 5.2475238 21.70168 4.0688995 20.816406 3.1835938 C 19.931079 2.2983046 18.752486 1.8727291 17.345703 1.6835938 C 15.93892 1.4944584 14.23915 1.5 12 1.5 z M 12 3.5 C 14.23915 3.5 15.897908 3.50539 17.078125 3.6640625 C 18.258342 3.8227371 18.896371 4.0917053 19.402344 4.5976562 C 19.90827 5.1036005 20.177267 5.7416656 20.335938 6.921875 C 20.494609 8.1020844 20.5 9.76083 20.5 12 C 20.5 14.23915 20.4946 15.897905 20.335938 17.078125 C 20.177267 18.258345 19.908277 18.896374 19.402344 19.402344 C 18.896374 19.908277 18.258345 20.177267 17.078125 20.335938 C 15.897905 20.494609 14.23915 20.5 12 20.5 C 9.76083 20.5 8.1020844 20.494608 6.921875 20.335938 C 5.7416656 20.177267 5.1036004 19.90827 4.5976562 19.402344 C 4.0917053 18.896371 3.8227371 18.258342 3.6640625 17.078125 C 3.5053879 15.897908 3.5 14.23915 3.5 12 C 3.5 9.76083 3.5053882 8.1020814 3.6640625 6.921875 C 3.8227368 5.7416686 4.091713 5.1036031 4.5976562 4.5976562 C 5.1036031 4.0917131 5.7416686 3.8227368 6.921875 3.6640625 C 8.1020814 3.5053882 9.76083 3.5 12 3.5 z M 6.0117188 7 A 1 1 0 0 0 5.4003906 7.1992188 A 1 1 0 0 0 5.1992188 8.5996094 L 7.75 12 L 5.1992188 15.400391 A 1 1 0 0 0 5.4003906 16.800781 A 1 1 0 0 0 6.8007812 16.599609 L 9 13.667969 L 11.199219 16.599609 A 1 1 0 0 0 12.599609 16.800781 A 1 1 0 0 0 12.800781 15.400391 L 10.25 12 L 12.800781 8.5996094 A 1 1 0 0 0 12.599609 7.1992188 A 1 1 0 0 0 11.859375 7.0097656 A 1 1 0 0 0 11.199219 7.4003906 L 9 10.332031 L 6.8007812 7.4003906 A 1 1 0 0 0 6.0117188 7 z M 18 7 A 1 1 0 0 0 17 8 L 17 10 L 16.5 10 C 14.57885 10 13 11.57885 13 13.5 C 13 15.42115 14.57885 17 16.5 17 C 16.956709 17 17.385069 17.111063 18.025391 16.826172 C 18.345551 16.683727 18.670592 16.364582 18.820312 16.023438 C 18.970035 15.682293 19 15.353799 19 15 L 19 11 L 19 8 A 1 1 0 0 0 18 7 z M 16.5 12 L 17 12 L 17 15 C 16.91945 14.997 16.869125 15 16.5 15 C 15.65975 15 15 14.34025 15 13.5 C 15 12.65975 15.65975 12 16.5 12 z " fill="currentColor"/>
</svg>
