<svg xmlns="http://www.w3.org/2000/svg" width="1em" height="1em" viewBox="0 0 24 24" fill="currentColor">
  <path d="M 13.933594 3.9941406 C 13.483859 3.9971802 13.004633 4.0386049 12.519531 4.171875 C 12.033115 4.3054895 11.630905 4.5296268 11.287109 4.7910156 L 9.9902344 4.2519531 C 9.292573 3.9621962 8.54069 3.9416518 7.84375 4.1445312 C 7.14681 4.3474107 6.5054622 4.7744068 6.0234375 5.375 C 5.6713993 5.8136245 5.2619732 6 4.8652344 6 L 2 6 A 1 1 0 0 0 1 7 A 1 1 0 0 0 2 8 L 4.8652344 8 C 5.9219155 8 6.9063295 7.4688486 7.5820312 6.6269531 C 8.0857419 5.9993396 8.6487789 5.8612632 9.2226562 6.0996094 L 9.7832031 6.3320312 L 8.6953125 7.5566406 C 7.7481172 8.6229749 7.7481621 10.226605 8.6953125 11.292969 C 9.5150843 12.215777 10.959739 12.385464 11.951172 11.642578 C 12.466667 11.255777 12.871522 10.91929 13.011719 10.841797 C 13.059759 10.889717 13.119949 10.943753 13.232422 11.095703 L 15.552734 14.228516 C 15.671032 14.388316 15.782475 14.539873 15.888672 14.683594 L 14.720703 15.8125 C 13.918353 16.58815 13.327897 17.152543 12.876953 17.496094 C 12.426009 17.839644 12.162388 17.951032 11.867188 17.986328 C 11.833288 17.990328 11.800951 17.993794 11.769531 17.996094 C 11.472697 18.017474 11.187285 17.957234 10.673828 17.705078 C 10.160374 17.452885 9.4655662 17.010795 8.5214844 16.402344 C 7.5566947 15.780518 7.0001471 15.406493 6.2792969 15.1875 A 1.0001 1.0001 0 0 0 6.2773438 15.1875 C 6.2458468 15.178 6.2135335 15.167733 6.1796875 15.158203 C 5.4543053 14.953775 4.7805837 14.966797 3.6210938 14.966797 L 2 14.966797 A 1 1 0 0 0 1 15.966797 A 1 1 0 0 0 2 16.966797 L 3.6210938 16.966797 C 4.7805836 16.966797 5.2656776 16.979417 5.6367188 17.083984 C 5.6556087 17.089284 5.6764796 17.095292 5.6972656 17.101562 C 6.0659554 17.21357 6.4727897 17.46221 7.4375 18.083984 C 8.3815781 18.692433 9.1031928 19.162209 9.7910156 19.5 C 10.478838 19.837791 11.180243 20.044906 11.912109 19.992188 C 11.977079 19.987488 12.041537 19.979966 12.103516 19.972656 A 1.0001 1.0001 0 0 0 12.105469 19.972656 C 12.833969 19.885556 13.482538 19.548612 14.089844 19.085938 C 14.697149 18.623264 15.308978 18.02565 16.111328 17.25 L 17.201172 16.197266 C 17.375912 16.340068 17.561687 16.464647 17.769531 16.574219 C 18.636125 17.031219 19.496697 17 20.841797 17 L 22 17 A 1 1 0 0 0 23 16 A 1 1 0 0 0 22 15 L 20.841797 15 C 19.496697 15 19.013732 14.968489 18.703125 14.804688 A 1.0001 1.0001 0 0 0 18.701172 14.804688 C 18.390751 14.641013 18.021284 14.202298 17.160156 13.039062 L 14.839844 9.9042969 C 14.663936 9.6666459 14.450148 9.3654984 14.0625 9.1035156 C 13.674852 8.8415328 13.027455 8.6998154 12.474609 8.8789062 C 11.554686 9.1768867 11.061115 9.8109896 10.751953 10.042969 C 10.543432 10.199499 10.391013 10.189539 10.191406 9.9648438 C 9.9569769 9.7009076 9.9570219 9.1486314 10.191406 8.8847656 L 11.638672 7.2558594 C 12.202014 6.6216675 12.587244 6.2264028 13.048828 6.0996094 C 13.521225 5.9698296 14.293974 5.9989243 15.046875 6.0449219 C 15.455562 6.0698929 15.855344 6.2485158 16.189453 6.5859375 C 17.00895 7.413473 18.054353 8.234375 19.482422 8.234375 L 22 8.234375 A 1 1 0 0 0 23 7.234375 A 1 1 0 0 0 22 6.234375 L 19.482422 6.234375 C 18.778891 6.234375 18.321031 5.896352 17.611328 5.1796875 C 16.955037 4.5168885 16.089835 4.1050366 15.169922 4.0488281 C 14.803572 4.0264467 14.383329 3.9911011 13.933594 3.9941406 z " fill="currentColor"/>
</svg>
