<svg xmlns="http://www.w3.org/2000/svg" width="1em" height="1em" viewBox="0 0 24 24" fill="currentColor">
  <path d="M 4.5 1 A 1 1 0 0 0 3.5 2 A 1 1 0 0 0 4.5 3 L 4.5 8 L 4.5 18 C 4.5 20.749549 6.7504084 23 9.5 23 C 12.249561 23 14.5 20.749561 14.5 18 A 1 1 0 0 0 13.5 17 A 1 1 0 0 0 12.5 18 C 12.5 19.668639 11.168639 21 9.5 21 C 7.8313116 21 6.5 19.668651 6.5 18 L 6.5 9 L 12.5 9 L 12.5 10 A 1 1 0 0 0 13.5 11 A 1 1 0 0 0 14.5 10 L 14.5 8 L 14.5 3 A 1 1 0 0 0 15.5 2 A 1 1 0 0 0 14.5 1 L 4.5 1 z M 6.5 3 L 12.5 3 L 12.5 7 L 6.5 7 L 6.5 3 z M 16 9.5 A 1.0001 1.0001 0 0 0 15.0625 10.152344 L 14.804688 10.849609 C 14.466487 11.763609 14.323224 12.063495 14.193359 12.193359 C 14.063495 12.323224 13.763609 12.466487 12.849609 12.804688 L 12.152344 13.0625 A 1.0001 1.0001 0 0 0 12.152344 14.9375 L 12.849609 15.195312 C 13.763609 15.533513 14.063495 15.676776 14.193359 15.806641 C 14.323224 15.936505 14.466487 16.236391 14.804688 17.150391 L 15.0625 17.847656 A 1.0001 1.0001 0 0 0 16.9375 17.847656 L 17.195312 17.150391 C 17.533513 16.236391 17.676776 15.936505 17.806641 15.806641 C 17.936505 15.676776 18.236391 15.533513 19.150391 15.195312 L 19.847656 14.9375 A 1.0001 1.0001 0 0 0 19.847656 13.0625 L 19.150391 12.804688 C 18.236391 12.466487 17.936505 12.323224 17.806641 12.193359 C 17.676776 12.063495 17.533513 11.763609 17.195312 10.849609 L 16.9375 10.152344 A 1.0001 1.0001 0 0 0 16 9.5 z M 16 12.855469 C 16.128718 13.082849 16.19457 13.41332 16.390625 13.609375 C 16.58668 13.80543 16.917151 13.871282 17.144531 14 C 16.917151 14.128718 16.58668 14.19457 16.390625 14.390625 C 16.19457 14.58668 16.128718 14.917151 16 15.144531 C 15.871282 14.917151 15.80543 14.58668 15.609375 14.390625 C 15.41332 14.19457 15.082849 14.128718 14.855469 14 C 15.082849 13.871282 15.41332 13.80543 15.609375 13.609375 C 15.80543 13.41332 15.871282 13.082849 16 12.855469 z " fill="currentColor"/>
</svg>
