<svg xmlns="http://www.w3.org/2000/svg" width="1em" height="1em" viewBox="0 0 24 24" fill="currentColor">
  <path d="M 12 1 C 8.8684736 1 6.3291478 3.2692509 5.7226562 6.2304688 C 3.042314 6.8309969 1 9.1479339 1 12 C 1 14.451575 2.4784891 16.573189 4.5996094 17.5 A 1 1 0 0 0 5.9160156 16.984375 A 1 1 0 0 0 5.4003906 15.667969 C 3.9897109 15.05158 3 13.649025 3 12 C 3 9.9091194 4.5837845 8.2108928 6.6152344 8.0175781 C 6.7416443 8.005549 6.8698799 8 7 8 C 7.9054828 8 8.7311349 8.2960135 9.4003906 8.7988281 A 1 1 0 0 0 10.800781 8.6015625 A 1 1 0 0 0 10.601562 7.2011719 C 9.8047362 6.6025133 8.8255538 6.2719643 7.7910156 6.1308594 C 8.3767134 4.32872 9.9929908 3 12 3 C 14.497167 3 16.5 5.002862 16.5 7.5 C 16.5 7.6385015 16.494602 7.7750207 16.482422 7.9101562 C 16.398622 8.83946 16.034407 9.6830869 15.472656 10.363281 A 1 1 0 0 0 15.605469 11.771484 A 1 1 0 0 0 17.013672 11.636719 C 17.600125 10.926613 17.969331 10.060209 18.212891 9.1425781 C 19.798647 9.4779484 21 10.808659 21 12.5 C 21 14.033229 20.022388 15.321418 18.666016 15.800781 A 1 1 0 0 0 18.056641 17.076172 A 1 1 0 0 0 19.333984 17.6875 C 21.473212 16.931463 23 14.885371 23 12.5 C 23 9.8061045 21.003111 7.6520547 18.4375 7.1894531 C 18.265486 3.7625773 15.468065 1 12 1 z M 8 16 A 1 1 0 0 0 7 17 L 7 18.585938 L 5.9863281 19.599609 C 5.898239 19.585532 5.8415836 19.5 5.75 19.5 C 4.7953234 19.5 4 20.295336 4 21.25 C 4 22.204664 4.7953234 23 5.75 23 C 6.7046766 23 7.5 22.204664 7.5 21.25 C 7.5 21.15842 7.4144676 21.10176 7.4003906 21.013672 L 8.7070312 19.707031 A 1.0001 1.0001 0 0 0 9 19 L 9 17 A 1 1 0 0 0 8 16 z M 12 16 A 1 1 0 0 0 11 17 L 11 19.919922 C 10.571686 20.241229 10.25 20.682632 10.25 21.25 C 10.25 22.20468 11.04532 23 12 23 C 12.95468 23 13.75 22.20468 13.75 21.25 C 13.75 20.682632 13.428314 20.241229 13 19.919922 L 13 17 A 1 1 0 0 0 12 16 z M 16 16 A 1 1 0 0 0 15 17 L 15 19 A 1.0001 1.0001 0 0 0 15.292969 19.707031 L 16.599609 21.013672 C 16.585532 21.101761 16.5 21.158416 16.5 21.25 C 16.5 22.20468 17.29532 23 18.25 23 C 19.20468 23 20 22.20468 20 21.25 C 20 20.29532 19.20468 19.5 18.25 19.5 C 18.15842 19.5 18.101761 19.585529 18.013672 19.599609 L 17 18.585938 L 17 17 A 1 1 0 0 0 16 16 z " fill="currentColor"/>
</svg>
