<svg xmlns="http://www.w3.org/2000/svg" width="1em" height="1em" viewBox="0 0 24 24" fill="currentColor">
  <path d="M 10.013672 1 C 8.1247568 1 6.6886349 0.99462482 5.484375 1.15625 C 4.2801151 1.3178752 3.2434557 1.687595 2.4667969 2.4628906 C 1.6901457 3.2381918 1.3182352 4.2738349 1.15625 5.4765625 C 0.99426484 6.6792901 1 8.11438 1 10 C 1 11.8856 0.994265 13.320703 1.15625 14.523438 C 1.3181531 15.725563 1.6909182 16.760009 2.4667969 17.535156 C 3.2434533 18.310469 4.2801124 18.68212 5.484375 18.84375 C 6.6886376 19.00538 8.1247568 19 10.013672 19 L 11 19 L 11 21 L 8 21 A 1 1 0 0 0 7 22 A 1 1 0 0 0 8 23 L 16 23 A 1 1 0 0 0 17 22 A 1 1 0 0 0 16 21 L 13 21 L 13 19 L 14.021484 19 C 15.910434 19 17.346518 19.0054 18.550781 18.84375 C 19.755045 18.68212 20.791717 18.310475 21.568359 17.535156 C 22.638917 16.465656 22.919127 14.98478 23 13.041016 A 1 1 0 0 0 22.041016 12 A 1 1 0 0 0 21 12.958984 C 20.9251 14.759071 20.701916 15.574489 20.154297 16.121094 C 19.757339 16.517375 19.263218 16.732011 18.285156 16.863281 C 17.307095 16.994551 15.910434 17 14.021484 17 L 10.013672 17 C 8.1247568 17 6.7280624 16.994552 5.75 16.863281 C 4.7719376 16.732011 4.2778329 16.517381 3.8808594 16.121094 C 3.483919 15.72487 3.2700919 15.23165 3.1386719 14.255859 C 3.0072519 13.280069 3 11.8856 3 10 C 3 8.11438 3.007252 6.719923 3.1386719 5.7441406 C 3.2700917 4.7683583 3.4838906 4.275185 3.8808594 3.8789062 C 4.2778305 3.4826318 4.7719349 3.267986 5.75 3.1367188 C 6.7280651 3.0054513 8.1247568 3 10.013672 3 A 1 1 0 0 0 11.013672 2 A 1 1 0 0 0 10.013672 1 z M 15.5 1 A 1 1 0 0 0 14.5 2 L 14.5 3.0957031 C 14.182479 3.1743891 13.846442 3.325441 13.585938 3.5859375 C 13.325433 3.8464409 13.174387 4.1824769 13.095703 4.5 L 12 4.5 A 1 1 0 0 0 11 5.5 A 1 1 0 0 0 12 6.5 L 13 6.5 L 13 7.5 L 12 7.5 A 1 1 0 0 0 11 8.5 A 1 1 0 0 0 12 9.5 L 13.095703 9.5 C 13.174387 9.8175231 13.325433 10.153558 13.585938 10.414062 C 13.846443 10.674559 14.182479 10.825611 14.5 10.904297 L 14.5 12 A 1 1 0 0 0 15.5 13 A 1 1 0 0 0 16.5 12 L 16.5 11 L 17.5 11 L 17.5 12 A 1 1 0 0 0 18.5 13 A 1 1 0 0 0 19.5 12 L 19.5 10.904297 C 19.817521 10.825611 20.153558 10.674559 20.414062 10.414062 C 20.674567 10.153557 20.825613 9.8175232 20.904297 9.5 L 22 9.5 A 1 1 0 0 0 23 8.5 A 1 1 0 0 0 22 7.5 L 21 7.5 L 21 6.5 L 22 6.5 A 1 1 0 0 0 23 5.5 A 1 1 0 0 0 22 4.5 L 20.904297 4.5 C 20.825613 4.1824769 20.674567 3.846441 20.414062 3.5859375 C 20.153558 3.325441 19.817521 3.174389 19.5 3.0957031 L 19.5 2 A 1 1 0 0 0 18.5 1 A 1 1 0 0 0 17.5 2 L 17.5 3 L 16.5 3 L 16.5 2 A 1 1 0 0 0 15.5 1 z M 16 5 L 18 5 C 18.4714 5 18.805815 5.0059597 18.964844 5.0273438 C 18.96719 5.0276592 18.970413 5.02704 18.972656 5.0273438 C 18.97296 5.0295867 18.972341 5.0328099 18.972656 5.0351562 C 18.994037 5.1941825 19 5.528595 19 6 L 19 8 C 19 8.471405 18.993996 8.8058174 18.972656 8.9648438 C 18.972341 8.9671901 18.97296 8.9704134 18.972656 8.9726562 C 18.970412 8.9729601 18.967191 8.9723406 18.964844 8.9726562 C 18.805815 8.9940368 18.4714 9 18 9 L 16 9 C 15.5286 9 15.194185 8.9940368 15.035156 8.9726562 C 15.032809 8.9723406 15.029588 8.9729601 15.027344 8.9726562 C 15.02704 8.9704135 15.027659 8.9671899 15.027344 8.9648438 C 15.005967 8.8058173 15 8.471405 15 8 L 15 6 C 15 5.528595 15.006004 5.1941825 15.027344 5.0351562 C 15.027659 5.0328103 15.02704 5.0295863 15.027344 5.0273438 C 15.029589 5.0270397 15.032807 5.0276596 15.035156 5.0273438 C 15.194181 5.0059628 15.5286 5 16 5 z M 11 14 A 1 1 0 0 0 10 15 A 1 1 0 0 0 11 16 L 13 16 A 1 1 0 0 0 14 15 A 1 1 0 0 0 13 14 L 11 14 z " fill="currentColor"/>
</svg>
