<svg xmlns="http://www.w3.org/2000/svg" width="1em" height="1em" viewBox="0 0 24 24" fill="currentColor">
  <path d="M 10 1 C 8.11438 1 6.6810556 0.99457301 5.4785156 1.15625 C 4.2759756 1.317927 3.240311 1.689383 2.4648438 2.4648438 C 1.689383 3.240311 1.317927 4.2759756 1.15625 5.4785156 C 0.99457301 6.6810556 1 8.11438 1 10 L 1 13 C 1 14.8856 0.994573 16.318937 1.15625 17.521484 C 1.3179268 18.724031 1.6893545 19.759713 2.4648438 20.535156 C 3.2403087 21.310634 4.2759729 21.682068 5.4785156 21.84375 C 6.6810584 22.005432 8.11438 22 10 22 L 11 22 A 1 1 0 0 0 12 21 A 1 1 0 0 0 11 20 L 10 20 C 8.11438 20 6.7201079 19.9945 5.7441406 19.863281 C 4.7681734 19.732063 4.2750213 19.517216 3.8789062 19.121094 C 3.4828254 18.725037 3.2679343 18.231837 3.1367188 17.255859 C 3.005503 16.279881 3 14.8856 3 13 L 3 10 C 3 8.11438 3.0055032 6.7201106 3.1367188 5.7441406 C 3.2679342 4.7681706 3.4827969 4.2750188 3.8789062 3.8789062 C 4.2750189 3.482797 4.7681706 3.2679342 5.7441406 3.1367188 C 6.7201106 3.0055032 8.11438 3 10 3 L 12 3 C 13.8856 3 15.279881 3.0054999 16.255859 3.1367188 C 17.231837 3.2679343 17.725037 3.4828254 18.121094 3.8789062 C 18.517216 4.2750212 18.732063 4.7681734 18.863281 5.7441406 C 18.9945 6.7201079 19 8.11438 19 10 L 19 10.5 A 1 1 0 0 0 20 11.5 A 1 1 0 0 0 21 10.5 L 21 10 C 21 8.11438 21.005432 6.6810584 20.84375 5.4785156 C 20.682068 4.2759729 20.310634 3.2403086 19.535156 2.4648438 C 18.759713 1.6893545 17.724031 1.3179268 16.521484 1.15625 C 15.318937 0.99457318 13.8856 1 12 1 L 10 1 z M 7 6 A 1 1 0 0 0 6 7 A 1 1 0 0 0 7 8 L 15 8 A 1 1 0 0 0 16 7 A 1 1 0 0 0 15 6 L 7 6 z M 7 10.5 A 1 1 0 0 0 6 11.5 A 1 1 0 0 0 7 12.5 L 15 12.5 A 1 1 0 0 0 16 11.5 A 1 1 0 0 0 15 10.5 L 7 10.5 z M 18 13 C 17.388178 13 16.732538 13.388309 16.476562 14.037109 L 16.439453 14.130859 C 16.022529 15.187968 15.187968 16.022529 14.130859 16.439453 L 14.037109 16.476562 C 13.38831 16.732538 13 17.388178 13 18 C 13 18.611822 13.388309 19.267463 14.037109 19.523438 L 14.130859 19.560547 C 15.187968 19.977471 16.022529 20.812032 16.439453 21.869141 L 16.476562 21.962891 C 16.732538 22.611691 17.388178 23 18 23 C 18.611822 23 19.267463 22.611691 19.523438 21.962891 L 19.560547 21.869141 C 19.977471 20.812032 20.812032 19.977471 21.869141 19.560547 L 21.962891 19.523438 C 22.611691 19.267462 23 18.611822 23 18 C 23 17.388178 22.611691 16.732539 21.962891 16.476562 L 21.869141 16.439453 C 20.812032 16.022529 19.977471 15.187968 19.560547 14.130859 L 19.523438 14.037109 C 19.267462 13.38831 18.611822 13 18 13 z M 7 15 A 1 1 0 0 0 6 16 A 1 1 0 0 0 7 17 L 11 17 A 1 1 0 0 0 12 16 A 1 1 0 0 0 11 15 L 7 15 z M 18 15.322266 C 18.58767 16.487485 19.512515 17.41233 20.677734 18 C 19.512515 18.58767 18.58767 19.512515 18 20.677734 C 17.41233 19.512515 16.487485 18.58767 15.322266 18 C 16.487485 17.41233 17.41233 16.487485 18 15.322266 z " fill="currentColor"/>
</svg>
