<svg xmlns="http://www.w3.org/2000/svg" width="1em" height="1em" viewBox="0 0 24 24" fill="currentColor">
  <path d="M 3 1.0019531 A 1 1 0 0 0 2 2.0019531 C 2 2.3226247 2.042055 3.011787 2.4628906 3.6289062 C 2.8837263 4.2460255 3.5621309 4.8231032 4.7714844 5.5898438 A 1.0001 1.0001 0 0 0 4.8085938 5.6132812 L 5.6425781 6.0917969 C 4.5289528 6.8049232 3.2719336 7.5565448 2.8046875 8.0976562 C 2.4577328 8.4994597 2.2427641 8.8764513 2.125 9.2226562 C 2.0072359 9.568861 2 9.9019432 2 10.001953 C 2 10.101953 2.00723 10.433098 2.125 10.779297 C 2.2427653 11.125496 2.4577336 11.502497 2.8046875 11.904297 C 3.2873791 12.463291 4.5576572 13.232349 5.7363281 13.976562 C 4.5765683 14.674117 3.3265019 15.389589 2.8320312 15.917969 C 2.1191164 16.679772 2 17.601586 2 18.001953 A 1 1 0 0 0 3 19.001953 A 1 1 0 0 0 4 18.001953 C 4 17.60232 3.8809404 17.723353 4.2910156 17.285156 C 4.7010908 16.84696 5.7585047 16.061051 7.9628906 14.882812 C 10.26864 13.650393 11.481977 12.709866 12.175781 11.90625 C 12.522683 11.504442 12.739692 11.125523 12.857422 10.779297 C 12.975152 10.433071 12.980469 10.102028 12.980469 10.001953 C 12.980469 9.9018957 12.975169 9.5688927 12.857422 9.2226562 C 12.739708 8.8764196 12.52268 8.4995316 12.175781 8.0976562 C 11.693232 7.5386317 10.424282 6.769423 9.2460938 6.0253906 C 10.405793 5.3278211 11.65604 4.6124477 12.150391 4.0839844 C 12.863133 3.3220597 12.980469 2.4019531 12.980469 2.0019531 A 1 1 0 0 0 11.980469 1.0019531 A 1 1 0 0 0 10.980469 2.0019531 C 10.980469 2.4019531 11.099251 2.2806747 10.689453 2.71875 C 10.328963 3.1041159 9.1633307 3.8762838 7.4609375 4.8300781 L 5.84375 3.9003906 C 4.7458635 3.2043211 4.2714937 2.7310939 4.1152344 2.5019531 C 3.9589751 2.2728124 4 2.3220316 4 2.0019531 A 1 1 0 0 0 3 1.0019531 z M 7.4902344 7.2089844 C 9.1399358 8.1548321 10.288985 8.9720393 10.662109 9.4042969 C 10.876368 9.6525114 10.940315 9.800784 10.962891 9.8671875 C 10.985461 9.9335905 10.980469 9.9018956 10.980469 10.001953 C 10.980469 10.102028 10.985471 10.070373 10.962891 10.136719 C 10.940331 10.203059 10.876361 10.349489 10.662109 10.597656 C 10.28899 11.029831 9.1399584 11.847143 7.4902344 12.792969 C 5.8413305 11.847461 4.6914574 11.029733 4.3183594 10.597656 C 4.1040383 10.349456 4.0401316 10.201067 4.0175781 10.134766 C 3.9950246 10.068464 4 10.101953 4 10.001953 C 4 9.9019432 3.9950235 9.9334939 4.0175781 9.8671875 C 4.0401327 9.8008811 4.1040391 9.6524983 4.3183594 9.4042969 C 4.691456 8.9722187 5.8413307 8.1544921 7.4902344 7.2089844 z M 14.412109 11 A 1 1 0 0 0 13.412109 12 L 13.412109 13.216797 C 12.789236 13.427198 12.359155 13.86513 12.177734 14.5 L 10.925781 14.5 A 1 1 0 0 0 9.9257812 15.5 A 1 1 0 0 0 10.925781 16.5 L 11.976562 16.5 L 11.976562 17.474609 L 10.925781 17.474609 A 1 1 0 0 0 9.9257812 18.474609 A 1 1 0 0 0 10.925781 19.474609 L 12.1875 19.474609 C 12.37515 20.09687 12.798109 20.525125 13.412109 20.732422 L 13.412109 21.998047 A 1 1 0 0 0 14.412109 22.998047 A 1 1 0 0 0 15.412109 21.998047 L 15.412109 20.96875 L 16.4375 20.96875 L 16.4375 21.998047 A 1 1 0 0 0 17.4375 22.998047 A 1 1 0 0 0 18.4375 21.998047 L 18.4375 20.763672 C 19.088466 20.573861 19.540715 20.123247 19.736328 19.474609 L 21 19.474609 A 1 1 0 0 0 22 18.474609 A 1 1 0 0 0 21 17.474609 L 19.947266 17.474609 L 19.947266 16.5 L 21 16.5 A 1 1 0 0 0 22 15.5 A 1 1 0 0 0 21 14.5 L 19.746094 14.5 C 19.555848 13.834281 19.091841 13.369066 18.425781 13.179688 L 18.425781 12 A 1 1 0 0 0 17.425781 11 A 1 1 0 0 0 16.425781 12 L 16.425781 12.980469 L 15.412109 12.980469 L 15.412109 12 A 1 1 0 0 0 14.412109 11 z M 13.976562 14.980469 L 14.412109 14.980469 L 17.425781 14.980469 L 17.947266 14.980469 L 17.947266 15.5 L 17.947266 18.474609 L 17.947266 18.96875 L 13.976562 18.96875 L 13.976562 18.474609 L 13.976562 15.5 L 13.976562 14.980469 z " fill="currentColor"/>
</svg>
