<svg xmlns="http://www.w3.org/2000/svg" width="1em" height="1em" viewBox="0 0 24 24" fill="currentColor">
  <path d="M 12 2 C 11.580323 2 11.088024 2.358677 10.994141 2.8222656 C 10.769369 3.9182411 9.9165144 4.7700955 8.8203125 4.9941406 C 8.358151 5.088703 8 5.5801534 8 6 C 8 6.4198466 8.358151 6.911297 8.8203125 7.0058594 C 9.9165144 7.2299045 10.769369 8.0817589 10.994141 9.1777344 C 11.088024 9.641323 11.580323 10 12 10 C 12.419677 10 12.911976 9.641323 13.005859 9.1777344 C 13.230511 8.0823466 14.082406 7.2304545 15.177734 7.0058594 C 15.639102 6.9116568 16 6.4207017 16 6 C 16 5.5792983 15.639102 5.0883432 15.177734 4.9941406 C 14.082406 4.7695455 13.230511 3.9176534 13.005859 2.8222656 C 12.911976 2.358677 12.419677 2 12 2 z M 12 4.9902344 C 12.294057 5.3936922 12.606311 5.7059407 13.009766 6 C 12.606311 6.2940593 12.294057 6.6063078 12 7.0097656 C 11.705942 6.6063076 11.393692 6.2940594 10.990234 6 C 11.393692 5.7059406 11.705942 5.3936924 12 4.9902344 z M 5.9726562 6.0019531 A 1 1 0 0 0 5.8417969 6.0136719 C 4.8512154 6.1749369 3.9722186 6.5148308 3.28125 7.1523438 C 2.5240097 7.850997 2.1078133 8.7941004 1.8613281 9.9042969 C 1.6148429 11.014493 1.4977756 12.342391 1.3378906 14.087891 L 1.0117188 17.65625 A 1.0001 1.0001 0 0 0 1.0097656 17.677734 C 0.84644218 19.992673 2.6849768 22 4.9980469 22 L 5.7460938 22 C 7.383292 22 8.8577327 20.985871 9.4609375 19.458984 L 10.203125 17.580078 C 10.350783 17.206249 10.441629 17.029929 10.472656 16.960938 C 10.546463 16.957588 10.73701 16.939453 11.128906 16.939453 L 12.871094 16.939453 C 13.263068 16.939453 13.453578 16.957597 13.527344 16.960938 C 13.558365 17.02992 13.649214 17.206228 13.796875 17.580078 L 14.539062 19.458984 C 15.142247 20.985888 16.616735 22 18.253906 22 L 19.001953 22 C 21.315057 22 23.153553 19.992646 22.990234 17.677734 A 1.0001 1.0001 0 0 0 22.988281 17.65625 L 22.664062 14.095703 C 22.505312 12.348949 22.390432 11.017274 22.144531 9.90625 C 21.898631 8.7952261 21.482007 7.8516438 20.724609 7.1523438 C 20.033278 6.5139565 19.15371 6.1750318 18.162109 6.0136719 A 1 1 0 0 0 17.015625 6.8398438 A 1 1 0 0 0 17.841797 7.9863281 C 18.603196 8.1102282 19.015072 8.2960941 19.369141 8.6230469 C 19.757143 8.9812869 19.992182 9.4397125 20.191406 10.339844 C 20.390631 11.239975 20.513125 12.528645 20.671875 14.275391 L 20.994141 17.818359 C 21.078822 19.018648 20.16965 20 19.001953 20 L 18.253906 20 C 17.438678 20 16.708005 19.503306 16.400391 18.724609 L 15.658203 16.845703 C 15.414679 16.229142 15.258924 15.690033 14.673828 15.289062 C 14.088683 14.887984 13.526994 14.939453 12.871094 14.939453 L 11.128906 14.939453 C 10.473006 14.939453 9.9113349 14.887892 9.3261719 15.289062 C 8.740935 15.69002 8.5853154 16.229182 8.3417969 16.845703 L 7.5996094 18.724609 C 7.2919742 19.503323 6.5613756 20 5.7460938 20 L 4.9980469 20 C 3.8304169 20 2.9211797 19.018625 3.0058594 17.818359 L 3.3300781 14.271484 C 3.4899631 12.525984 3.6147658 11.237304 3.8144531 10.337891 C 4.0141404 9.4384767 4.248799 8.9790004 4.6367188 8.6210938 C 4.9906903 8.2945066 5.4016908 8.1101231 6.1621094 7.9863281 A 1 1 0 0 0 6.9882812 6.8398438 A 1 1 0 0 0 5.9726562 6.0019531 z M 7.25 10.5 C 6.5716244 10.5 6 11.071567 6 11.75 C 6 12.428433 6.5716244 13 7.25 13 C 7.9283756 13 8.5 12.428433 8.5 11.75 C 8.5 11.071567 7.9283756 10.5 7.25 10.5 z M 16.75 10.5 C 16.071712 10.5 15.5 11.071712 15.5 11.75 C 15.5 12.428288 16.071712 13 16.75 13 C 17.428288 13 18 12.428288 18 11.75 C 18 11.071712 17.428288 10.5 16.75 10.5 z " fill="currentColor"/>
</svg>
