<svg xmlns="http://www.w3.org/2000/svg" width="1em" height="1em" viewBox="0 0 24 24" fill="currentColor">
  <path d="M 18 1 A 1.0001 1.0001 0 0 0 17.0625 1.6523438 L 16.767578 2.4492188 C 16.381088 3.4937615 16.214589 3.8596299 16.037109 4.0371094 C 15.859605 4.2146136 15.493799 4.3810653 14.449219 4.7675781 L 13.652344 5.0625 A 1.0001 1.0001 0 0 0 13.652344 6.9375 L 14.449219 7.2324219 C 15.493799 7.6189347 15.859605 7.7853864 16.037109 7.9628906 C 16.214589 8.1403701 16.381088 8.5062384 16.767578 9.5507812 L 17.0625 10.347656 A 1.0001 1.0001 0 0 0 18.9375 10.347656 L 19.232422 9.5507812 C 19.618912 8.5062384 19.785411 8.1403701 19.962891 7.9628906 C 20.140395 7.7853864 20.506201 7.6189347 21.550781 7.2324219 L 22.347656 6.9375 A 1.0001 1.0001 0 0 0 22.347656 5.0625 L 21.550781 4.7675781 C 20.506201 4.3810653 20.140395 4.2146136 19.962891 4.0371094 C 19.785411 3.8596299 19.618912 3.4937615 19.232422 2.4492188 L 18.9375 1.6523438 A 1.0001 1.0001 0 0 0 18 1 z M 18 4.3886719 C 18.166581 4.724473 18.279579 5.1819226 18.548828 5.4511719 C 18.818066 5.7204098 19.275541 5.8334241 19.611328 6 C 19.275541 6.1665759 18.818066 6.2795902 18.548828 6.5488281 C 18.279579 6.8180774 18.166581 7.275527 18 7.6113281 C 17.833419 7.275527 17.720421 6.8180774 17.451172 6.5488281 C 17.181934 6.2795902 16.724459 6.1665759 16.388672 6 C 16.724459 5.8334241 17.181934 5.7204098 17.451172 5.4511719 C 17.720421 5.1819226 17.833419 4.724473 18 4.3886719 z M 10 5 C 8.11438 5 6.6810556 4.994573 5.4785156 5.15625 C 4.2759756 5.317927 3.240311 5.6893831 2.4648438 6.4648438 C 1.6893789 7.2403151 1.3179268 8.2759716 1.15625 9.4785156 C 0.99457321 10.68106 1 12.1144 1 14 C 1 15.8856 0.994573 17.318937 1.15625 18.521484 C 1.3179268 19.724031 1.6893545 20.759713 2.4648438 21.535156 C 3.2403087 22.310634 4.2759729 22.682068 5.4785156 22.84375 C 6.6810584 23.005432 8.11438 23 10 23 L 14 23 C 15.8856 23 17.318935 23.0054 18.521484 22.84375 C 19.724034 22.682069 20.759716 22.310663 21.535156 21.535156 C 22.310663 20.759716 22.682069 19.724034 22.84375 18.521484 C 23.005431 17.318935 23 15.8856 23 14 C 23 12.8302 23.001204 11.833335 22.964844 10.958984 A 1 1 0 0 0 21.923828 10 A 1 1 0 0 0 20.966797 11.041016 C 21.000448 11.850465 21 12.8302 21 14 C 21 15.8856 20.9945 17.279884 20.863281 18.255859 C 20.732063 19.231835 20.517187 19.725034 20.121094 20.121094 C 19.725034 20.517187 19.231835 20.732063 18.255859 20.863281 C 17.279884 20.9945 15.8856 21 14 21 L 10 21 C 8.11438 21 6.7201079 20.9945 5.7441406 20.863281 C 4.7681734 20.732063 4.2750213 20.517216 3.8789062 20.121094 C 3.4828254 19.725037 3.2679343 19.231837 3.1367188 18.255859 C 3.005503 17.279881 3 15.8856 3 14 C 3 12.1144 3.005503 10.720117 3.1367188 9.7441406 C 3.2679344 8.7681646 3.4828009 8.2750149 3.8789062 7.8789062 C 4.2750189 7.482797 4.7681706 7.2679344 5.7441406 7.1367188 C 6.7201106 7.0055032 8.11438 7 10 7 A 1 1 0 0 0 11 6 A 1 1 0 0 0 10 5 z " fill="currentColor"/>
</svg>
