<svg xmlns="http://www.w3.org/2000/svg" width="1em" height="1em" viewBox="0 0 24 24" fill="currentColor">
  <path d="M 18.5 1 A 1.0001 1.0001 0 0 0 17.5625 1.6523438 L 17.304688 2.3496094 C 16.966487 3.2636005 16.823186 3.5635446 16.693359 3.6933594 C 16.563494 3.8232173 16.263612 3.9664764 15.349609 4.3046875 L 14.652344 4.5625 A 1.0001 1.0001 0 0 0 14.652344 6.4375 L 15.349609 6.6953125 C 16.263606 7.0335214 16.563486 7.176779 16.693359 7.3066406 C 16.823186 7.4364554 16.966487 7.7363995 17.304688 8.6503906 L 17.5625 9.3476562 A 1.0001 1.0001 0 0 0 19.4375 9.3476562 L 19.695312 8.6503906 C 20.033514 7.7363995 20.176814 7.4364554 20.306641 7.3066406 C 20.436514 7.176779 20.736394 7.0335214 21.650391 6.6953125 L 22.347656 6.4375 A 1.0001 1.0001 0 0 0 22.347656 4.5625 L 21.650391 4.3046875 C 20.736388 3.9664764 20.436506 3.8232173 20.306641 3.6933594 C 20.176814 3.5635446 20.033513 3.2636005 19.695312 2.3496094 L 19.4375 1.6523438 A 1.0001 1.0001 0 0 0 18.5 1 z M 11.5 2 C 9.26083 2 7.561073 1.994458 6.1542969 2.1835938 C 4.7475207 2.3727295 3.5688968 2.7982969 2.6835938 3.6835938 C 1.7982969 4.5688968 1.3727296 5.7475207 1.1835938 7.1542969 C 0.99445808 8.561073 1 10.26083 1 12.5 C 1 14.73915 0.99445805 16.43892 1.1835938 17.845703 C 1.3727292 19.252486 1.7983047 20.431079 2.6835938 21.316406 C 2.9802354 21.613037 3.3098681 21.858738 3.6699219 22.060547 A 1 1 0 0 0 3.8574219 22.267578 A 1 1 0 0 0 4.6601562 22.488281 C 5.1231784 22.63939 5.6225647 22.744919 6.1542969 22.816406 C 7.5610699 23.005536 9.26083 23 11.5 23 C 13.73915 23 15.438923 23.0055 16.845703 22.816406 C 18.252483 22.627277 19.431076 22.201673 20.316406 21.316406 C 21.201673 20.431076 21.627277 19.252483 21.816406 17.845703 C 21.938923 16.934404 21.921985 15.606987 21.935547 14.382812 A 1 1 0 0 0 21.957031 13.765625 C 21.959067 13.292697 22 13.030124 22 12.5 C 22 11.9693 22.000411 11.467704 21.998047 10.994141 A 1 1 0 0 0 20.992188 10 A 1 1 0 0 0 19.998047 11.005859 C 20.00013 11.431542 20.000032 11.882606 20 12.361328 C 18.601292 11.734518 17.244493 11.494349 15.955078 11.552734 C 14.197451 11.632324 12.565764 12.267008 11.123047 13.234375 C 8.5069551 14.98851 6.3394699 17.701473 4.34375 20.121094 C 4.257563 20.053654 4.1759877 19.980672 4.0976562 19.902344 C 3.5917053 19.396371 3.3227371 18.758342 3.1640625 17.578125 C 3.0053879 16.397908 3 14.73915 3 12.5 C 3 10.26083 3.0053882 8.6020814 3.1640625 7.421875 C 3.3227368 6.2416686 3.591713 5.6036031 4.0976562 5.0976562 C 4.6036031 4.5917131 5.2416686 4.3227368 6.421875 4.1640625 C 7.6020814 4.0053882 9.26083 4 11.5 4 C 12.0307 4 12.527519 3.9996633 12.994141 4.0019531 A 1 1 0 0 0 14 3.0078125 A 1 1 0 0 0 13.005859 2.0019531 C 12.532281 1.999626 12.0307 2 11.5 2 z M 18.5 4.3554688 C 18.628722 4.582849 18.694556 4.9133234 18.890625 5.109375 C 19.08668 5.3054182 19.417155 5.3712886 19.644531 5.5 C 19.417158 5.6287099 19.086677 5.6945905 18.890625 5.890625 C 18.694556 6.0866766 18.628722 6.4171511 18.5 6.6445312 C 18.371278 6.4171511 18.305444 6.0866766 18.109375 5.890625 C 17.913323 5.6945905 17.582842 5.6287099 17.355469 5.5 C 17.582845 5.3712886 17.91332 5.3054182 18.109375 5.109375 C 18.305444 4.9133234 18.371278 4.582849 18.5 4.3554688 z M 7 5.5 C 5.6311328 5.5 4.5 6.6311328 4.5 8 C 4.5 9.3688672 5.6311328 10.5 7 10.5 C 8.3688672 10.5 9.5 9.3688672 9.5 8 C 9.5 6.6311328 8.3688672 5.5 7 5.5 z M 7 7.5 C 7.287987 7.5 7.5 7.712013 7.5 8 C 7.5 8.287987 7.287987 8.5 7 8.5 C 6.712013 8.5 6.5 8.287987 6.5 8 C 6.5 7.712013 6.712013 7.5 7 7.5 z M 16.308594 13.455078 C 17.431169 13.458764 18.635888 13.803031 19.992188 14.597656 C 19.978377 15.817618 19.940337 16.801549 19.835938 17.578125 C 19.677267 18.758345 19.408277 19.396374 18.902344 19.902344 C 18.396374 20.408277 17.758345 20.677267 16.578125 20.835938 C 15.397905 20.994609 13.73915 21 11.5 21 C 9.26083 21 7.6020844 20.994608 6.421875 20.835938 C 6.4011156 20.833147 6.3798012 20.830985 6.359375 20.828125 C 8.2312589 18.571495 10.175772 16.276171 12.236328 14.894531 C 13.557595 14.008598 14.865283 13.450339 16.308594 13.455078 z " fill="currentColor"/>
</svg>
