<svg xmlns="http://www.w3.org/2000/svg" width="1em" height="1em" viewBox="0 0 24 24" fill="currentColor">
  <path d="M 15.4375 1.0019531 A 1 1 0 0 0 14.4375 2.0019531 L 14.4375 3.2167969 C 13.815796 3.428329 13.387036 3.8673923 13.207031 4.5019531 L 11.962891 4.5019531 A 1 1 0 0 0 10.962891 5.5019531 A 1 1 0 0 0 11.962891 6.5019531 L 13.007812 6.5019531 L 13.007812 7.4746094 L 11.962891 7.4746094 A 1 1 0 0 0 10.962891 8.4746094 A 1 1 0 0 0 11.962891 9.4746094 L 13.21875 9.4746094 C 13.405461 10.09519 13.825827 10.52219 14.4375 10.730469 L 14.4375 12 A 1 1 0 0 0 15.4375 13 A 1 1 0 0 0 16.4375 12 L 16.4375 10.96875 L 17.451172 10.96875 L 17.451172 12 A 1 1 0 0 0 18.451172 13 A 1 1 0 0 0 19.451172 12 L 19.451172 10.761719 C 20.099889 10.570867 20.549482 10.121605 20.744141 9.4746094 L 22 9.4746094 A 1 1 0 0 0 23 8.4746094 A 1 1 0 0 0 22 7.4746094 L 20.955078 7.4746094 L 20.955078 6.5019531 L 22 6.5019531 A 1 1 0 0 0 23 5.5019531 A 1 1 0 0 0 22 4.5019531 L 20.755859 4.5019531 C 20.567158 3.8367348 20.104106 3.3723354 19.439453 3.1816406 L 19.439453 2.0019531 A 1 1 0 0 0 18.439453 1.0019531 A 1 1 0 0 0 17.439453 2.0019531 L 17.439453 2.9804688 L 16.4375 2.9804688 L 16.4375 2.0019531 A 1 1 0 0 0 15.4375 1.0019531 z M 5.984375 1.9980469 A 1.0001 1.0001 0 0 0 5.8867188 2.0039062 C 5.1357218 2.0783639 4.4032037 2.2916988 3.8671875 2.8320312 C 3.3864698 3.3165955 3.1621664 3.9695308 3.0742188 4.6289062 C 2.9862709 5.2882817 2.9921875 6.0180287 2.9921875 6.9648438 L 2.9921875 14.794922 L 2.6113281 15.539062 C 2.6104497 15.540662 2.610245 15.541369 2.609375 15.542969 L 2.6015625 15.558594 C 1.8735861 16.908297 1.3918552 17.952586 1.1542969 18.886719 C 0.91531114 19.826464 0.95943141 20.740938 1.3671875 21.484375 C 1.8196027 22.309154 2.721314 22.717028 3.6523438 22.863281 C 4.5833734 23.009534 5.6861006 22.998047 7.1347656 22.998047 L 16.789062 22.998047 C 18.237713 22.998047 19.342413 23.009537 20.273438 22.863281 C 21.204463 22.717028 22.106229 22.309198 22.558594 21.484375 C 22.966447 20.74091 23.010497 19.826469 22.771484 18.886719 C 22.532472 17.946968 22.047864 16.900624 21.3125 15.539062 L 20.765625 14.523438 A 1.0001 1.0001 0 0 0 19.884766 13.998047 L 4.9921875 13.998047 L 4.9921875 6.9648438 C 4.9921875 6.0180288 4.9986876 5.3270852 5.0566406 4.8925781 C 5.1145955 4.458071 5.1842171 4.34395 5.2871094 4.2402344 C 5.4001147 4.126319 5.5478125 4.0518811 6.0722656 3.9980469 L 10.966797 3.9980469 A 1 1 0 0 0 11.966797 2.9980469 A 1 1 0 0 0 10.966797 1.9980469 L 5.984375 1.9980469 z M 15.007812 4.9804688 L 15.4375 4.9804688 L 18.439453 4.9804688 L 18.955078 4.9804688 L 18.955078 5.5019531 L 18.955078 8.4746094 L 18.955078 8.96875 L 15.007812 8.96875 L 15.007812 8.4746094 L 15.007812 5.5019531 L 15.007812 4.9804688 z M 4.6230469 15.998047 L 19.289062 15.998047 L 19.552734 16.490234 C 20.25487 17.790272 20.669244 18.738857 20.832031 19.378906 C 20.994819 20.018956 20.943331 20.26875 20.804688 20.521484 C 20.710748 20.692762 20.617116 20.783947 19.962891 20.886719 C 19.308665 20.98949 18.237713 20.998047 16.789062 20.998047 L 7.1347656 20.998047 C 5.6861006 20.998047 4.6171258 20.989447 3.9628906 20.886719 C 3.3086554 20.783947 3.2131154 20.692806 3.1191406 20.521484 C 2.9805067 20.268722 2.9290251 20.018961 3.0917969 19.378906 C 3.2545687 18.738851 3.6689736 17.790262 4.3710938 16.490234 A 1.0001 1.0001 0 0 0 4.3828125 16.470703 L 4.6230469 15.998047 z " fill="currentColor"/>
</svg>
