<svg xmlns="http://www.w3.org/2000/svg" width="1em" height="1em" viewBox="0 0 24 24" fill="currentColor">
  <path d="M 11.996094 2 C 10.618973 2 9.5316948 2.7186809 8.5078125 3.8574219 A 1.0001 1.0001 0 0 0 8.4394531 3.9414062 C 5.4610438 8.0766409 3.9481726 11.224793 2.8359375 13.798828 C 2.2397296 15.178626 1.9219786 16.55307 2.015625 17.839844 C 2.109271 19.126617 2.680017 20.359876 3.7792969 21.123047 C 4.9360004 21.926084 6.5363141 22.155776 8.1933594 21.917969 C 9.5432621 21.72424 10.879767 21.055645 12 20.039062 C 13.120233 21.055646 14.456738 21.72424 15.806641 21.917969 C 17.463686 22.155776 19.064005 21.926069 20.220703 21.123047 C 21.319975 20.359872 21.890733 19.126613 21.984375 17.839844 C 22.078015 16.553074 21.760254 15.178623 21.164062 13.798828 C 20.051849 11.224774 18.538868 8.0766319 15.560547 3.9414062 A 1.0001 1.0001 0 0 0 15.492188 3.8574219 C 14.468279 2.7186867 13.381027 2 12.003906 2 A 1 1 0 0 0 12 2.0039062 A 1 1 0 0 0 11.996094 2 z M 12 3.9960938 A 1 1 0 0 0 12.003906 4 C 12.81077 4 13.108483 4.2077775 13.96875 5.1601562 C 16.827843 9.1389207 18.246554 12.08866 19.328125 14.591797 C 19.831335 15.756402 20.051393 16.854907 19.990234 17.695312 C 19.929074 18.535719 19.651807 19.083543 19.080078 19.480469 C 18.565776 19.837525 17.340199 20.116942 16.089844 19.9375 C 15.092173 19.794321 14.158177 19.321571 13.386719 18.646484 C 13.942485 17.996073 14.516301 17.360188 14.953125 16.705078 C 15.562157 15.791705 16 14.737892 16 13.5 C 16 10.974301 14.154795 9 12.003906 9 C 9.8530176 9 8 10.972139 8 13.5 C 8 14.737892 8.4378428 15.791705 9.046875 16.705078 C 9.483699 17.360188 10.057515 17.996073 10.613281 18.646484 C 9.8418237 19.321571 8.9078271 19.794321 7.9101562 19.9375 C 6.6598016 20.116942 5.4342384 19.837531 4.9199219 19.480469 C 4.3481818 19.08354 4.0709268 18.535714 4.0097656 17.695312 C 3.9486045 16.854912 4.1686529 15.756399 4.671875 14.591797 C 5.7534839 12.08864 7.1720864 9.138912 10.03125 5.1601562 C 10.891485 4.2077836 11.18923 4 11.996094 4 A 1 1 0 0 0 12 3.9960938 z M 12.003906 11 C 12.853017 11 14 11.954699 14 13.5 C 14 14.297608 13.766104 14.880276 13.289062 15.595703 C 12.99027 16.043804 12.465315 16.638223 12 17.1875 C 11.534685 16.638223 11.009729 16.043804 10.710938 15.595703 C 10.233894 14.880276 10 14.297608 10 13.5 C 10 11.956861 11.154795 11 12.003906 11 z " fill="currentColor"/>
</svg>
