<svg xmlns="http://www.w3.org/2000/svg" width="1em" height="1em" viewBox="0 0 24 24" fill="currentColor">
  <path d="M 4 2 A 1 1 0 0 0 3 3 L 3 4 A 1 1 0 0 0 4 5 A 1 1 0 0 0 5 4 L 5 3 A 1 1 0 0 0 4 2 z M 12 2 A 1.0001 1.0001 0 0 0 11.283203 2.3027344 C 9.4397275 4.2001221 7.2837722 8.3771421 6.8710938 13.111328 C 6.8334913 13.542758 6.783093 13.781281 6.7695312 13.875 C 6.6894365 13.911626 6.506859 14.001658 6.1601562 14.132812 L 6.1289062 14.144531 C 5.802822 12.586057 5.2516786 11.390295 4.6367188 10.767578 A 1.0001 1.0001 0 0 0 3.2128906 10.767578 C 2.4921511 11.497444 1.6126859 12.88144 1.1972656 14.6875 C 0.78184542 16.49356 0.96386978 18.770937 2.6835938 20.621094 A 1.0001 1.0001 0 0 0 3.8222656 20.855469 L 7.5585938 19.197266 C 7.5716997 19.234856 7.580263 19.273016 7.59375 19.310547 C 7.7495147 19.743932 7.8734931 20.105154 8.0722656 20.470703 C 8.2710382 20.836252 8.5722982 21.19083 8.9453125 21.453125 C 9.3458129 21.734732 9.8196902 21.886413 10.273438 21.945312 C 10.727184 22.004212 11.180303 22 11.751953 22 L 12.248047 22 C 12.819697 22 13.272815 22.004203 13.726562 21.945312 C 14.180309 21.886412 14.654182 21.734724 15.054688 21.453125 C 15.427663 21.190831 15.728965 20.83625 15.927734 20.470703 C 16.126504 20.105156 16.250498 19.743951 16.40625 19.310547 C 16.41973 19.273027 16.428296 19.234857 16.441406 19.197266 L 20.177734 20.855469 A 1.0001 1.0001 0 0 0 21.316406 20.621094 C 23.036095 18.770936 23.218148 16.493559 22.802734 14.6875 C 22.38732 12.881441 21.507891 11.497459 20.787109 10.767578 A 1.0001 1.0001 0 0 0 19.363281 10.767578 C 18.748273 11.390303 18.197154 12.586044 17.871094 14.144531 L 17.839844 14.132812 C 17.493201 14.001675 17.310596 13.911652 17.230469 13.875 C 17.216873 13.781224 17.166456 13.542639 17.128906 13.111328 C 16.716203 8.3771506 14.560274 4.2001236 12.716797 2.3027344 A 1.0001 1.0001 0 0 0 12 2 z M 20 2 A 1 1 0 0 0 19 3 L 19 4 A 1 1 0 0 0 20 5 A 1 1 0 0 0 21 4 L 21 3 A 1 1 0 0 0 20 2 z M 12 4.8671875 C 13.276516 6.662308 14.828156 9.7455505 15.136719 13.285156 C 15.198519 13.994548 15.164649 14.516344 15.603516 15.095703 C 16.019244 15.644828 16.52433 15.773713 17.132812 16.003906 L 17.5625 16.166016 C 17.562375 16.189596 17.560547 16.210635 17.560547 16.234375 A 1 1 0 0 0 18.560547 17.234375 A 1 1 0 0 0 19.560547 16.234375 C 19.560547 15.992954 19.567851 15.765643 19.582031 15.548828 C 19.648411 14.528998 19.856904 13.793055 20.099609 13.244141 C 20.397418 13.777098 20.69307 14.439163 20.853516 15.136719 C 21.122659 16.30685 20.947916 17.507204 20.167969 18.662109 L 16.21875 16.910156 A 1.0001 1.0001 0 0 0 14.841797 17.582031 C 14.753907 17.936143 14.64783 18.286665 14.523438 18.632812 C 14.367688 19.066208 14.25828 19.356722 14.171875 19.515625 C 14.085475 19.674528 14.048921 19.716653 13.904297 19.818359 C 13.787102 19.900759 13.718005 19.93079 13.470703 19.962891 C 13.223401 19.994992 12.819697 20 12.248047 20 L 11.751953 20 C 11.180303 20 10.776595 19.995001 10.529297 19.962891 C 10.281999 19.930791 10.212883 19.900751 10.095703 19.818359 C 9.9510675 19.716656 9.9145299 19.674526 9.828125 19.515625 C 9.7417201 19.356724 9.6323378 19.066228 9.4765625 18.632812 C 9.3522004 18.286753 9.2461389 17.936271 9.1582031 17.582031 A 1.0001 1.0001 0 0 0 7.78125 16.910156 L 3.8320312 18.662109 C 3.0520642 17.507206 2.8773372 16.306849 3.1464844 15.136719 C 3.3069322 14.439164 3.6025806 13.7771 3.9003906 13.244141 C 4.1430992 13.793065 4.35156 14.52899 4.4179688 15.548828 C 4.4320898 15.765674 4.4394531 15.992904 4.4394531 16.234375 A 1 1 0 0 0 5.4394531 17.234375 A 1 1 0 0 0 6.4394531 16.234375 C 6.4394531 16.210635 6.43762 16.189596 6.4375 16.166016 L 6.8671875 16.003906 C 7.4757131 15.773708 7.9807736 15.644647 8.3964844 15.095703 C 8.8352031 14.516378 8.8014516 13.994553 8.8632812 13.285156 C 9.1718278 9.7455543 10.723482 6.6623085 12 4.8671875 z M 4 6 A 1 1 0 0 0 3 7 L 3 8 A 1 1 0 0 0 4 9 A 1 1 0 0 0 5 8 L 5 7 A 1 1 0 0 0 4 6 z M 20 6 A 1 1 0 0 0 19 7 L 19 8 A 1 1 0 0 0 20 9 A 1 1 0 0 0 21 8 L 21 7 A 1 1 0 0 0 20 6 z M 12 9 A 1 1 0 0 0 11 10 L 11 11 A 1 1 0 0 0 12 12 A 1 1 0 0 0 13 11 L 13 10 A 1 1 0 0 0 12 9 z " fill="currentColor"/>
</svg>
