<svg xmlns="http://www.w3.org/2000/svg" width="1em" height="1em" viewBox="0 0 24 24" fill="currentColor">
  <path d="M 12 1 C 11.670702 1 11.341404 1.0671639 11.033203 1.203125 C 10.200021 1.5706406 9.5398515 2.2263663 9.0117188 2.9648438 C 8.4835858 3.7033211 8.0884856 4.5205914 7.9960938 5.390625 C 7.907495 6.224938 8.0934906 6.9317085 8.1484375 7.4863281 C 8.2033844 8.0409477 8.1661463 8.3122373 7.9960938 8.5175781 C 7.9540261 8.5683751 7.7761308 8.7022851 7.21875 9.0410156 A 1.0001 1.0001 0 0 0 7.21875 9.0429688 L 3.8964844 11.064453 C 3.3031633 11.425611 2.79373 11.863354 2.4589844 12.449219 C 2.1242388 13.035084 2.0001935 13.71105 2 14.439453 C 1.9998636 14.925125 2.1147037 15.521759 2.625 15.904297 C 3.1352963 16.286834 3.6954447 16.231097 4.125 16.132812 L 8.8613281 15.050781 L 8.9941406 16.228516 C 9.0889686 17.058399 9.0859834 17.308235 9.0527344 17.400391 C 8.9176263 17.774899 8.0068232 18.522789 7.21875 19.289062 C 6.8215646 19.675207 6.6170525 20.109151 6.4785156 20.640625 C 6.3399788 21.172099 6.2632778 21.906038 6.8222656 22.529297 C 7.2212282 22.974317 7.8947235 23.034955 8.2460938 22.960938 C 8.5974639 22.886917 8.8196087 22.765047 8.8984375 22.734375 L 11.6875 21.650391 C 11.859691 21.583405 11.956532 21.552062 12 21.537109 C 12.043501 21.552062 12.140321 21.583405 12.3125 21.650391 L 15.101562 22.734375 C 15.180402 22.765055 15.40253 22.886922 15.753906 22.960938 C 16.105283 23.034958 16.778746 22.974327 17.177734 22.529297 C 17.736669 21.906023 17.660026 21.172103 17.521484 20.640625 C 17.382943 20.109147 17.176577 19.675226 16.779297 19.289062 C 15.991494 18.523151 15.082364 17.774815 14.947266 17.400391 C 14.914016 17.308231 14.909106 17.058411 15.003906 16.228516 L 15.138672 15.050781 L 19.875 16.132812 C 20.304422 16.231043 20.864803 16.286615 21.375 15.904297 C 21.88515 15.521978 22 14.925016 22 14.439453 C 22 13.710883 21.875789 13.035238 21.541016 12.449219 C 21.206242 11.863199 20.696977 11.425632 20.103516 11.064453 L 16.78125 9.0429688 A 1.0001 1.0001 0 0 0 16.779297 9.0410156 C 16.221948 8.7022847 16.043864 8.5682064 16.001953 8.5175781 C 15.831892 8.312234 15.794667 8.0409499 15.849609 7.4863281 C 15.904552 6.9317063 16.092543 6.2249581 16.003906 5.390625 C 15.911521 4.520587 15.516413 3.703322 14.988281 2.9648438 C 14.460149 2.2263654 13.799979 1.5706406 12.966797 1.203125 C 12.658596 1.0671639 12.329298 1 12 1 z M 12 3 C 12.055178 3 12.110357 3.0112341 12.160156 3.0332031 C 12.490274 3.1788175 12.98951 3.6089996 13.361328 4.1289062 C 13.733146 4.6488131 13.977557 5.2614505 14.013672 5.6015625 C 14.049232 5.9363194 13.931832 6.5576418 13.859375 7.2890625 C 13.786965 8.0200196 13.801595 8.9932606 14.462891 9.7929688 C 14.80558 10.20694 15.184784 10.413221 15.742188 10.751953 L 19.0625 12.771484 C 19.485639 13.029006 19.685061 13.232001 19.804688 13.441406 C 19.883087 13.578645 19.899827 13.853293 19.931641 14.095703 L 14.496094 12.851562 A 1.0001 1.0001 0 0 0 13.279297 13.712891 L 13.017578 16.001953 C 12.922778 16.831858 12.823507 17.412234 13.064453 18.080078 C 13.561171 19.456723 14.77654 20.156305 15.337891 20.681641 L 13.037109 19.787109 C 12.703565 19.657353 12.421857 19.523438 12 19.523438 C 11.578184 19.523438 11.296435 19.657353 10.962891 19.787109 L 8.6621094 20.681641 C 9.2234743 20.15631 10.436923 19.456805 10.933594 18.080078 C 11.174545 17.412234 11.077252 16.831869 10.982422 16.001953 L 10.720703 13.712891 A 1.0001 1.0001 0 0 0 9.5039062 12.851562 L 4.0683594 14.095703 C 4.1002165 13.85332 4.1169157 13.578615 4.1953125 13.441406 C 4.3149344 13.232046 4.5144011 13.03098 4.9375 12.773438 L 8.2578125 10.75 L 8.2578125 10.751953 C 8.8151917 10.413177 9.194417 10.208725 9.5371094 9.7949219 C 10.199627 8.9949227 10.211135 8.0204854 10.138672 7.2890625 C 10.066209 6.5576396 9.9488238 5.9363395 9.984375 5.6015625 C 10.020493 5.2614461 10.266852 4.648814 10.638672 4.1289062 C 11.010491 3.6089986 11.509726 3.1788175 11.839844 3.0332031 C 11.889644 3.0112341 11.944822 3 12 3 z " fill="currentColor"/>
</svg>
