<svg xmlns="http://www.w3.org/2000/svg" width="1em" height="1em" viewBox="0 0 24 24" fill="currentColor">
  <path d="M 2 1 A 1 1 0 0 0 1.2929688 1.2929688 A 1 1 0 0 0 1.2929688 2.7070312 L 6.9609375 8.375 C 6.9387574 8.4630112 6.9032443 8.5432261 6.9003906 8.5644531 L 6.9003906 8.5664062 C 6.8145208 8.6378633 6.6137549 8.775786 6.1777344 9.0429688 A 1.0001 1.0001 0 0 0 6.1757812 9.0449219 L 2.8828125 11.066406 C 2.2935517 11.428074 1.7868295 11.865722 1.4550781 12.451172 C 1.1233268 13.036622 1.0001933 13.711936 1 14.439453 C 0.99987108 14.923907 1.1103391 15.517755 1.6191406 15.902344 C 2.1279422 16.286932 2.6911729 16.231549 3.1191406 16.132812 L 7.8046875 15.052734 L 7.9375 16.226562 C 8.03155 17.056462 8.0276616 17.308675 7.9941406 17.402344 C 7.8591575 17.77963 6.9578944 18.526156 6.1757812 19.292969 C 5.7809371 19.680035 5.5785045 20.112249 5.4414062 20.642578 C 5.3043081 21.172908 5.2259196 21.901063 5.78125 22.525391 C 6.1776536 22.971239 6.8538547 23.03554 7.2050781 22.960938 C 7.5563016 22.886337 7.7781655 22.764704 7.8554688 22.734375 L 10.621094 21.648438 C 10.786612 21.583522 10.881605 21.552129 10.925781 21.537109 C 10.96998 21.55213 11.065012 21.583524 11.230469 21.648438 L 13.996094 22.734375 C 14.073404 22.764715 14.293309 22.886333 14.644531 22.960938 C 14.995754 23.035547 15.673927 22.971307 16.070312 22.525391 C 16.62564 21.90108 16.547242 21.172915 16.410156 20.642578 C 16.273071 20.112242 16.07065 19.680048 15.675781 19.292969 C 14.893667 18.526132 13.992406 17.779622 13.857422 17.402344 C 13.823942 17.308784 13.820053 17.056538 13.914062 16.226562 L 14.005859 15.419922 L 21.292969 22.707031 A 1 1 0 0 0 22.707031 22.707031 A 1 1 0 0 0 22.707031 21.292969 L 8.7167969 7.3027344 A 1 1 0 0 0 8.6972656 7.2832031 L 2.7070312 1.2929688 A 1 1 0 0 0 2 1 z M 11 1 C 10.670702 1 10.341404 1.0671639 10.033203 1.203125 C 9.0150659 1.6522248 8.2022989 2.519945 7.6347656 3.4980469 A 1 1 0 0 0 7.9980469 4.8652344 A 1 1 0 0 0 9.3652344 4.5019531 C 9.7416811 3.853175 10.422341 3.2173633 10.839844 3.0332031 C 10.939444 2.9892651 11.060557 2.9892651 11.160156 3.0332031 C 11.490274 3.1788175 11.98951 3.6089996 12.361328 4.1289062 C 12.733146 4.6488131 12.977557 5.2614505 13.013672 5.6015625 C 13.049232 5.9363194 12.931832 6.5576418 12.859375 7.2890625 C 12.786965 8.0200196 12.801595 8.9932606 13.462891 9.7929688 C 13.80558 10.20694 14.184783 10.413221 14.742188 10.751953 L 18.0625 12.771484 C 18.485639 13.029006 18.685061 13.232001 18.804688 13.441406 C 18.922788 13.648139 18.998098 13.920788 19 14.421875 L 18.998047 14.419922 L 18.998047 14.417969 L 18.996094 14.417969 L 18.994141 14.417969 C 18.993694 14.418567 18.992697 14.422916 18.992188 14.423828 C 18.979571 14.450468 18.9508 14.548057 18.898438 14.632812 C 18.822277 14.756092 18.755859 14.832031 18.755859 14.832031 A 1 1 0 0 0 18.832031 16.244141 A 1 1 0 0 0 20.244141 16.167969 C 20.244141 16.167969 20.427878 15.964715 20.601562 15.683594 C 20.77525 15.402471 21 15.022036 21 14.439453 C 21 13.710883 20.875789 13.035238 20.541016 12.449219 C 20.206242 11.863199 19.696977 11.425632 19.103516 11.064453 L 15.78125 9.0429688 A 1.0001 1.0001 0 0 0 15.779297 9.0410156 C 15.221948 8.7022847 15.043864 8.5682064 15.001953 8.5175781 C 14.831892 8.312234 14.794667 8.0409499 14.849609 7.4863281 C 14.904552 6.9317063 15.092543 6.2249581 15.003906 5.390625 C 14.911521 4.520587 14.516413 3.703322 13.988281 2.9648438 C 13.460149 2.2263654 12.799979 1.5706406 11.966797 1.203125 C 11.658596 1.0671639 11.329298 1 11 1 z M 8.4394531 9.8535156 L 12.201172 13.615234 A 1 1 0 0 0 12.185547 13.712891 L 11.925781 16.001953 C 11.831791 16.831779 11.734145 17.409729 11.972656 18.076172 C 12.46241 19.445022 13.659658 20.147524 14.21875 20.671875 L 11.960938 19.787109 C 11.630123 19.657365 11.348229 19.523438 10.925781 19.523438 C 10.503333 19.523438 10.221438 19.657365 9.890625 19.787109 L 7.6328125 20.671875 C 8.1919416 20.147501 9.3872178 19.445014 9.8769531 18.076172 C 10.115412 17.409841 10.017878 16.831854 9.9238281 16.001953 L 9.6660156 13.712891 A 1.0001 1.0001 0 0 0 8.4472656 12.851562 L 3.0683594 14.091797 C 3.1001904 13.850089 3.1177002 13.574464 3.1953125 13.4375 C 3.3141836 13.227725 3.5089551 13.028517 3.9277344 12.771484 L 7.2226562 10.748047 L 7.2226562 10.75 C 7.7469673 10.428716 8.1129239 10.226855 8.4394531 9.8535156 z " fill="currentColor"/>
</svg>
