<svg xmlns="http://www.w3.org/2000/svg" width="1em" height="1em" viewBox="0 0 24 24" fill="currentColor">
  <path d="M 12 2 C 9.87868 2 8.2683853 1.9938448 6.9296875 2.1738281 C 5.5909897 2.3538114 4.4600166 2.7626397 3.6113281 3.6113281 C 2.7626397 4.4600166 2.3538114 5.5909897 2.1738281 6.9296875 C 1.9938448 8.2683853 2 9.87868 2 12 C 2 14.1213 1.99385 15.731605 2.1738281 17.070312 C 2.3538111 18.409022 2.7626282 19.539985 3.6113281 20.388672 C 4.460018 21.237349 5.5909914 21.646192 6.9296875 21.826172 C 8.2683836 22.006152 9.87868 22 12 22 C 14.1213 22 15.731605 22.0062 17.070312 21.826172 C 18.409021 21.646192 19.539983 21.23736 20.388672 20.388672 C 21.23736 19.539983 21.646192 18.40902 21.826172 17.070312 C 22.006152 15.731605 22 14.1213 22 12 C 22 9.87868 22.006152 8.2683836 21.826172 6.9296875 C 21.646192 5.5909914 21.237349 4.460018 20.388672 3.6113281 C 19.539985 2.7626282 18.409021 2.3538111 17.070312 2.1738281 C 15.731604 1.9938452 14.1213 2 12 2 z M 12 4 C 14.1213 4 15.692546 4.00673 16.804688 4.15625 C 17.916829 4.305772 18.505296 4.5560705 18.974609 5.0253906 C 19.238076 5.288861 19.431787 5.589875 19.578125 6 L 4.421875 6 C 4.568211 5.5898757 4.7619198 5.2888615 5.0253906 5.0253906 C 5.4947222 4.5560591 6.0831853 4.3057717 7.1953125 4.15625 C 8.3074397 4.0067283 9.87868 4 12 4 z M 4.0761719 8 L 6.0019531 8 C 6.0081278 8.4917404 6.027579 8.9231005 6.0820312 9.328125 C 6.1704862 9.9860379 6.3963241 10.638528 6.8789062 11.121094 C 7.3614739 11.603678 8.0139596 11.829512 8.671875 11.917969 C 9.3297906 12.006425 10.05719 12 11 12 L 13 12 C 13.9428 12 14.670212 12.006399 15.328125 11.917969 C 15.986038 11.829509 16.638521 11.603666 17.121094 11.121094 C 17.603683 10.638529 17.829512 9.9860397 17.917969 9.328125 C 17.972424 8.9230995 17.991873 8.4917398 17.998047 8 L 19.923828 8 C 19.996377 9.0280204 20 10.347006 20 12 C 20 14.1213 19.9933 15.692545 19.84375 16.804688 C 19.69423 17.91683 19.443921 18.505298 18.974609 18.974609 C 18.505298 19.443921 17.91683 19.69423 16.804688 19.84375 C 15.692545 19.99327 14.1213 20 12 20 C 9.87868 20 8.3074414 19.99327 7.1953125 19.84375 C 6.0831836 19.69423 5.4947208 19.443932 5.0253906 18.974609 C 4.5560705 18.505296 4.305772 17.916829 4.15625 16.804688 C 4.006728 15.692546 4 14.1213 4 12 C 4 10.347007 4.0036224 9.02802 4.0761719 8 z M 8.03125 8 L 15.96875 8 C 15.96005 8.3575178 15.965347 8.8385406 15.935547 9.0605469 C 15.877557 9.4918847 15.810242 9.6038253 15.707031 9.7070312 C 15.603801 9.8102588 15.491884 9.8775534 15.060547 9.9355469 C 14.62921 9.9935403 13.9428 10 13 10 L 11 10 C 10.05719 10 9.3707927 9.9935403 8.9394531 9.9355469 C 8.5081136 9.8775534 8.3961812 9.8102472 8.2929688 9.7070312 C 8.189761 9.603827 8.1224457 9.4918865 8.0644531 9.0605469 C 8.0346048 8.8385396 8.0399034 8.3575181 8.03125 8 z M 12 12.75 C 11.321712 12.75 10.75 13.321712 10.75 14 C 10.75 14.678288 11.321712 15.25 12 15.25 C 12.678288 15.25 13.25 14.678288 13.25 14 C 13.25 13.321712 12.678288 12.75 12 12.75 z " fill="currentColor"/>
</svg>
