<svg xmlns="http://www.w3.org/2000/svg" width="1em" height="1em" viewBox="0 0 24 24" fill="currentColor">
  <path d="M 6.7011719 2.0488281 C 6.0841689 2.0545874 5.4736667 2.2223593 4.9160156 2.5449219 C 4.5419228 2.7613035 4.1065312 3.1253048 4.015625 3.7324219 C 3.9247188 4.3395389 4.2312604 4.8221371 4.5410156 5.15625 A 1.0001 1.0001 0 0 0 4.546875 5.1601562 L 8.6425781 9.5175781 L 7.7382812 10.177734 C 7.0541469 10.677616 6.8306014 10.801219 6.7226562 10.820312 C 6.3065181 10.893952 5.1805876 10.473556 4.1074219 10.173828 C 3.5726765 10.02447 3.0873781 10.061815 2.5527344 10.207031 C 2.0180907 10.352251 1.3381855 10.647147 1.0722656 11.449219 C 0.88237358 12.021968 1.1729705 12.642801 1.4160156 12.910156 C 1.6590608 13.177512 1.8791799 13.309345 1.9472656 13.363281 L 4.3242188 15.246094 A 1.0001 1.0001 0 0 0 4.3261719 15.246094 C 4.4699023 15.359905 4.5484784 15.429987 4.5859375 15.462891 C 4.5957408 15.510719 4.6185483 15.613774 4.6464844 15.792969 L 5.109375 18.767578 C 5.122401 18.851108 5.128268 19.107342 5.2421875 19.451172 C 5.3561073 19.795002 5.7539653 20.345495 6.3378906 20.466797 C 7.1571156 20.636941 7.7574213 20.206642 8.1542969 19.820312 C 8.5511725 19.433984 8.8299064 19.039569 8.96875 18.498047 C 9.2437392 17.425427 9.4362657 16.258942 9.7011719 15.949219 C 9.7674939 15.871659 9.9906516 15.740964 10.771484 15.40625 L 11.849609 14.945312 L 13.654297 20.765625 C 13.784539 21.185756 14.045151 21.684673 14.607422 21.904297 C 15.169693 22.123921 15.690511 21.932307 16.052734 21.724609 C 17.123912 21.110343 17.791501 20.003404 17.820312 18.732422 L 17.939453 13.443359 C 17.955853 12.719166 17.963013 12.440332 18.189453 12.224609 A 1 1 0 0 0 18.191406 12.222656 C 18.704919 12.005272 20.012651 11.425843 20.841797 10.830078 C 22.080313 9.9401359 22.489436 8.6367502 22.775391 7.5214844 C 22.918487 6.9633074 23.044947 6.5977881 22.988281 6.0800781 C 22.914024 5.4044514 22.555628 4.7935377 22.005859 4.3964844 C 21.585057 4.0926939 21.204888 4.0183608 20.642578 3.8613281 C 20.082281 3.704842 19.468552 3.5516462 18.820312 3.5136719 C 18.172075 3.4756979 17.490027 3.5531529 16.791016 3.859375 C 15.707645 4.3339517 14.315605 5.3700376 14.083984 5.5449219 C 13.903802 5.4672035 13.684014 5.3504897 13.429688 5.2109375 L 8.5253906 2.5175781 C 7.9422594 2.1975626 7.3181748 2.0430689 6.7011719 2.0488281 z M 6.7890625 4.0039062 C 6.9964718 4.0078557 7.2271555 4.0874513 7.5625 4.2714844 L 12.28125 6.8613281 L 10.271484 8.328125 L 6.3105469 4.1171875 C 6.4801691 4.0438029 6.6277441 4.0008344 6.7890625 4.0039062 z M 18.449219 5.4960938 C 18.545687 5.4930991 18.644175 5.4965105 18.744141 5.5039062 C 19.144002 5.5334892 19.578765 5.6419587 20.105469 5.7890625 C 20.667759 5.9460898 20.848986 6.0284086 20.833984 6.0175781 C 20.927815 6.0853448 20.988267 6.1901187 21 6.296875 A 1.0001 1.0001 0 0 0 21 6.2988281 C 20.9972 6.2731851 20.9812 6.4663678 20.837891 7.0253906 C 20.569646 8.0715848 20.355865 8.7164005 19.675781 9.2050781 C 19.110162 9.6114953 17.1875 10.474609 17.1875 10.474609 A 1.0001 1.0001 0 0 0 17.183594 10.476562 L 12.136719 12.646484 L 9.984375 13.568359 C 9.2036081 13.903045 8.6465382 14.106747 8.1816406 14.650391 C 7.2024268 15.795268 7.2206008 17.263373 7.03125 18.001953 L 7.0292969 18.003906 C 7.025575 18.009212 7.0177334 18.021829 7.0175781 18.021484 L 6.6230469 15.484375 C 6.5671564 15.1259 6.5399196 14.8159 6.3242188 14.447266 C 6.108518 14.078631 5.8529979 13.906622 5.5664062 13.679688 L 3.5742188 12.101562 C 4.3233737 12.312323 5.5906341 13.052859 7.0703125 12.791016 C 7.7730874 12.666709 8.233783 12.290934 8.9179688 11.791016 L 10.804688 10.414062 L 15.232422 7.1855469 A 1.0001 1.0001 0 0 0 15.236328 7.1835938 C 15.236328 7.1835938 16.95237 5.9723666 17.59375 5.6914062 C 17.882942 5.5647176 18.159813 5.5050778 18.449219 5.4960938 z M 15.943359 13.185547 C 15.941558 13.259401 15.940963 13.329784 15.939453 13.396484 L 15.820312 18.6875 C 15.806783 19.28431 15.690257 19.498402 15.423828 19.710938 L 13.697266 14.150391 L 15.943359 13.185547 z " fill="currentColor"/>
</svg>
