<svg xmlns="http://www.w3.org/2000/svg" width="1em" height="1em" viewBox="0 0 24 24" fill="currentColor">
  <path d="M 5.5664062 2 C 4.3615106 1.9879563 3.2279687 2.3206444 2.3730469 3.0390625 C 1.5181251 3.7574806 1 4.8720559 1 6.1289062 L 1 8.0566406 C 1 10.147285 2.5375769 11.686009 4.4609375 12.089844 C 5.086197 12.221106 5.7157878 12.209344 6.3339844 12.121094 L 6.3339844 19.416016 C 6.3339844 19.960316 6.2836444 20.366897 6.5390625 20.884766 C 6.8123581 21.43899 7.3749401 21.798396 7.828125 21.912109 C 8.2813099 22.025822 8.6493512 22 8.9160156 22 C 9.1826747 22 9.5507202 22.025819 10.003906 21.912109 C 10.457093 21.798399 11.019667 21.439002 11.292969 20.884766 C 11.548294 20.366933 11.5 19.960316 11.5 19.416016 L 11.5 7.5058594 C 11.5 5.8075855 10.644898 4.3911262 9.5058594 3.4589844 C 8.3668205 2.5268426 6.9472425 2.0137961 5.5664062 2 z M 18.433594 2 C 17.052763 2.0138022 15.63317 2.5268418 14.494141 3.4589844 C 13.355111 4.3911269 12.5 5.8075929 12.5 7.5058594 L 12.5 19.416016 C 12.5 19.960316 12.45171 20.366934 12.707031 20.884766 C 12.980335 21.439007 13.542911 21.798399 13.996094 21.912109 C 14.449276 22.02582 14.817347 22 15.083984 22 C 15.350675 22 15.718689 22.025829 16.171875 21.912109 C 16.625061 21.798392 17.187654 21.438966 17.460938 20.884766 C 17.716572 20.36681 17.666016 19.960316 17.666016 19.416016 L 17.666016 12.121094 C 18.284185 12.209354 18.913782 12.221118 19.539062 12.089844 C 21.462457 11.686008 23 10.147285 23 8.0566406 L 23 6.1289062 C 23 4.8583281 22.448393 3.746275 21.587891 3.0351562 C 20.727389 2.3240373 19.60387 1.9883093 18.433594 2 z M 5.5449219 4 C 6.4190957 4.0087339 7.4708058 4.3781443 8.2402344 5.0078125 C 9.009663 5.6374807 9.5 6.4612633 9.5 7.5058594 L 9.5 19.416016 C 9.5 19.761152 9.4824945 19.926539 9.4824219 19.976562 C 9.3927947 19.991726 9.1903898 20 8.9160156 20 C 8.6424597 20 8.4415084 19.991655 8.3515625 19.976562 C 8.3514786 19.926478 8.3339844 19.761035 8.3339844 19.416016 L 8.3339844 11.105469 C 8.3339844 11.008579 8.3327481 10.912637 8.3300781 10.818359 C 8.3114812 10.160709 8.2370409 9.4722106 7.9355469 8.8183594 C 7.6340528 8.1645082 6.89391 7.5 6 7.5 A 1 1 0 0 0 5 8.5 A 1 1 0 0 0 6 9.5 C 6.0331531 9.5 6.0481817 9.4912376 6.0546875 9.4882812 L 6.0566406 9.4882812 L 6.0585938 9.4882812 L 6.0585938 9.4902344 L 6.0605469 9.4902344 L 6.0605469 9.4921875 C 6.0639194 9.5022404 6.0665353 9.5402114 6.1191406 9.6542969 C 6.1489481 9.7189404 6.1535526 9.8995486 6.1796875 10 C 5.7412307 10.079912 5.3063392 10.223774 4.8730469 10.132812 C 3.6034674 9.866247 3 9.2882764 3 8.0566406 L 3 6.1289062 C 3 5.3788666 3.2447706 4.9193744 3.6601562 4.5703125 C 4.0755419 4.2212506 4.7199275 3.9917537 5.5449219 4 z M 18.455078 4 C 19.227802 3.99228 19.882905 4.2195407 20.314453 4.5761719 C 20.746005 4.932803 21 5.3945345 21 6.1289062 L 21 8.0566406 C 21 9.2882764 20.396558 9.8662466 19.126953 10.132812 C 18.694218 10.223662 18.258373 10.081613 17.820312 10.001953 C 17.846563 9.9007777 17.850889 9.7192978 17.880859 9.6542969 C 17.933465 9.5402061 17.936081 9.5002859 17.939453 9.4902344 L 17.941406 9.4902344 L 17.941406 9.4882812 L 17.943359 9.4882812 L 17.945312 9.4882812 L 17.947266 9.4902344 C 17.953771 9.4931919 17.966847 9.5 18 9.5 A 1 1 0 0 0 19 8.5 A 1 1 0 0 0 18 7.5 C 17.10609 7.5 16.365939 8.1645134 16.064453 8.8183594 C 15.762967 9.4722053 15.688556 10.160733 15.669922 10.818359 C 15.667322 10.912069 15.666016 11.008501 15.666016 11.105469 L 15.666016 19.416016 C 15.666016 19.760954 15.64853 19.926436 15.648438 19.976562 C 15.558487 19.991652 15.357533 20 15.083984 20 C 14.809626 20 14.607205 19.991726 14.517578 19.976562 C 14.517506 19.926541 14.5 19.761155 14.5 19.416016 L 14.5 7.5058594 C 14.5 6.4612658 14.990345 5.63748 15.759766 5.0078125 C 16.529186 4.378145 17.580909 4.0087378 18.455078 4 z " fill="currentColor"/>
</svg>
