<svg xmlns="http://www.w3.org/2000/svg" width="1em" height="1em" viewBox="0 0 24 24" fill="currentColor">
  <path d="M 7.6699219 3.0039062 C 6.1436859 2.9506216 4.256274 3.3748577 2.4863281 4.8339844 A 1.0001 1.0001 0 0 0 2.4042969 4.9082031 C 2.3143018 5.001031 1.9223988 5.3386786 1.5800781 5.7695312 C 1.4089178 5.9849577 1.2366579 6.2338307 1.1171875 6.5625 C 0.99771708 6.8911693 0.94166971 7.3390647 1.1015625 7.7714844 C 1.2869233 8.2727605 1.6834008 8.7248232 2.0859375 8.9277344 C 2.4884742 9.1306456 2.7795935 9.1603881 3.0332031 9.234375 C 3.7138609 9.4329438 6.7411462 10.25846 7.25 10.392578 C 7.4921462 10.4564 7.6173116 10.492828 7.6347656 10.5 L 7.6367188 10.5 L 7.6386719 10.5 L 7.6386719 10.498047 C 7.6395717 10.499223 7.6470924 10.508304 7.6855469 10.542969 C 7.6744514 10.532967 7.664005 10.524629 7.6582031 10.521484 L 7.65625 10.521484 L 7.6542969 10.521484 L 7.6523438 10.521484 L 7.6503906 10.521484 L 7.6503906 10.523438 L 7.6503906 10.525391 C 7.6497968 10.565399 7.8190505 10.846727 8.0507812 11.332031 A 1.0001 1.0001 0 0 0 8.1015625 11.423828 C 8.1534985 11.508358 8.2905229 11.773784 8.4101562 12.019531 C 8.5297895 12.265278 8.6234676 12.472713 8.7304688 12.664062 C 8.8151067 12.815744 8.9801754 13.192467 9.34375 13.556641 C 9.6306893 13.843963 9.9000503 14.00561 10.177734 14.144531 C 10.436615 14.274187 10.570884 14.298843 10.808594 14.369141 C 11.046303 14.439441 11.326068 14.515507 11.613281 14.591797 C 12.187707 14.744377 12.795117 14.895392 13.068359 14.966797 A 1.0001 1.0001 0 0 0 13.322266 15 C 14.115797 15 14.810474 14.478625 14.822266 13.59375 C 14.832266 13.345671 14.804647 13.24931 14.779297 13.113281 C 14.750957 12.961196 14.715227 12.796825 14.677734 12.628906 C 14.655324 12.528552 14.647 12.477979 14.625 12.378906 C 14.737963 12.408406 14.750386 12.412461 14.916016 12.457031 C 15.250388 12.546991 15.681119 12.663733 16.119141 12.78125 C 16.557162 12.898767 17.003434 13.018535 17.369141 13.113281 C 17.734847 13.208031 17.965344 13.270933 18.189453 13.310547 C 18.593916 13.382037 19.660885 13.678473 20.681641 13.011719 A 1.0001 1.0001 0 0 0 20.726562 12.980469 C 21.254814 12.592463 21.550746 12.079007 21.716797 11.71875 A 1.0001 1.0001 0 0 0 21.730469 11.691406 C 21.990531 11.078486 22.214474 10.272151 22.417969 9.5078125 C 22.621464 8.743474 22.800076 8.0097901 22.867188 7.7792969 A 1.0001 1.0001 0 0 0 22.894531 7.6640625 C 22.931801 7.4400086 23.064398 7.055778 22.888672 6.4824219 C 22.733391 5.8776252 22.234611 5.4248859 21.691406 5.1816406 A 1.0001 1.0001 0 0 0 21.572266 5.1367188 C 21.560656 5.1332287 21.104049 4.9873237 20.666016 4.8730469 C 20.446999 4.8159089 20.221988 4.763956 19.996094 4.7285156 C 19.883147 4.7107956 19.770671 4.6949564 19.632812 4.6933594 C 19.510728 4.6919494 19.336777 4.7006895 19.072266 4.8242188 C 18.983266 4.8595238 18.851354 4.8795367 18.755859 4.9296875 C 18.565577 5.0296195 18.358195 5.1649701 18.154297 5.3691406 C 17.90642 5.6174316 17.709869 5.8851017 17.488281 6.1445312 C 17.287468 6.3796394 17.043175 6.5920556 17.027344 6.6132812 L 17.027344 6.6152344 C 16.953197 6.6599046 16.916877 6.6913739 16.902344 6.7109375 C 16.888821 6.6989556 16.86142 6.6840718 16.808594 6.6679688 A 1.0001 1.0001 0 0 0 16.777344 6.6601562 C 16.792775 6.6613958 16.604383 6.5956011 16.410156 6.5097656 C 16.1968 6.4154764 15.928304 6.2902293 15.652344 6.1582031 C 15.100423 5.8941508 14.517319 5.6033575 14.212891 5.453125 C 13.968239 5.3323676 13.222765 4.968154 12.490234 4.6132812 C 11.803447 4.2805686 11.215926 3.9918809 10.898438 3.8535156 C 10.272837 3.5000905 9.1497369 3.0555701 7.6699219 3.0039062 z M 7.171875 5.0039062 C 7.3177165 4.9980734 7.4598125 4.9990256 7.5996094 5.0039062 C 8.7228634 5.0431222 9.6616179 5.4463921 9.9472656 5.6132812 A 1.0001 1.0001 0 0 0 10.064453 5.671875 C 10.086503 5.681145 10.888817 6.0592521 11.617188 6.4121094 C 12.345557 6.7649666 13.098577 7.1327912 13.328125 7.2460938 C 13.622796 7.3915112 14.216432 7.6889305 14.789062 7.9628906 C 15.075377 8.0998707 15.356799 8.231675 15.601562 8.3398438 C 15.834834 8.4429346 15.994965 8.5166016 16.234375 8.5820312 C 17.115886 8.844639 18.019582 8.3539633 18.046875 8.3378906 A 1.0001 1.0001 0 0 0 18.046875 8.3359375 C 18.508765 8.0637856 18.748951 7.7464297 19.007812 7.4433594 C 19.266675 7.1402891 19.51869 6.832959 19.570312 6.78125 C 19.590312 6.761223 19.641622 6.724936 19.681641 6.703125 L 19.683594 6.703125 L 19.685547 6.703125 C 19.794284 6.720185 19.976698 6.760732 20.160156 6.8085938 C 20.476487 6.8911197 20.765412 6.9811719 20.927734 7.03125 C 20.936629 7.0353385 20.945512 7.0394324 20.953125 7.0429688 C 20.950274 7.0951894 20.946328 7.1744009 20.931641 7.2773438 C 20.824715 7.6560109 20.672421 8.2932121 20.486328 8.9921875 C 20.292881 9.718784 20.060449 10.494586 19.896484 10.886719 C 19.775856 11.148986 19.745616 11.201811 19.566406 11.337891 C 19.427617 11.416011 18.972166 11.416694 18.537109 11.339844 C 18.549069 11.341944 18.224143 11.267754 17.869141 11.175781 C 17.514138 11.083811 17.074238 10.966467 16.638672 10.849609 C 16.203106 10.732751 15.771959 10.615899 15.435547 10.525391 C 15.099135 10.434881 14.934723 10.388123 14.761719 10.349609 C 14.867271 10.373079 14.727979 10.336262 14.607422 10.294922 C 14.486866 10.253582 14.332996 10.200612 14.158203 10.154297 C 13.983411 10.107977 13.804469 10.055906 13.511719 10.066406 C 13.365344 10.071706 13.172102 10.085706 12.927734 10.226562 C 12.683367 10.367422 12.434953 10.709992 12.384766 11.011719 C 12.305686 11.486182 12.403176 11.583768 12.441406 11.75 C 12.479636 11.916232 12.516798 12.065815 12.523438 12.107422 C 12.557277 12.319216 12.616018 12.562212 12.669922 12.798828 C 12.468785 12.747058 12.335165 12.713508 12.126953 12.658203 C 11.849454 12.584493 11.583059 12.512124 11.376953 12.451172 C 11.222374 12.405459 11.068366 12.342835 11.046875 12.337891 L 11.044922 12.337891 C 10.958512 12.288288 10.771449 12.156232 10.759766 12.144531 C 10.674616 12.059241 10.623027 11.953064 10.474609 11.6875 C 10.465109 11.67055 10.334791 11.402959 10.208984 11.144531 C 10.091847 10.90375 9.9673615 10.657058 9.8320312 10.429688 C 9.5913327 9.9109775 9.5267602 9.510357 9.0234375 9.0566406 C 8.8507568 8.9009727 8.6204396 8.7432186 8.3945312 8.6503906 C 8.1686227 8.5575627 7.9918795 8.5201623 7.7597656 8.4589844 C 7.3200994 8.3431022 4.1591391 7.4799643 3.5917969 7.3144531 C 3.2607287 7.2178688 3.1030665 7.176544 3.0507812 7.1601562 C 3.0756553 7.1160249 3.0883763 7.0843496 3.1445312 7.0136719 C 3.3060935 6.8103258 3.5517011 6.593259 3.7773438 6.3671875 C 4.9878071 5.3755477 6.1509847 5.0447363 7.171875 5.0039062 z M 19.632812 6.6953125 C 19.638315 6.695869 19.647611 6.6984829 19.667969 6.7011719 C 19.64751 6.7039856 19.649598 6.7045574 19.585938 6.7109375 A 1.0001 1.0001 0 0 0 19.632812 6.6953125 z M 21.001953 7.0664062 L 21.003906 7.0664062 A 1.0001 1.0001 0 0 0 21.015625 7.1015625 C 21.010883 7.0888996 21.005938 7.0771558 21.001953 7.0664062 z M 6.0117188 19 A 1 1 0 0 0 5.0117188 20 A 1 1 0 0 0 6.0117188 21 L 22 21 A 1 1 0 0 0 23 20 A 1 1 0 0 0 22 19 L 6.0117188 19 z " fill="currentColor"/>
</svg>
