<svg xmlns="http://www.w3.org/2000/svg" width="1em" height="1em" viewBox="0 0 24 24" fill="currentColor">
  <path d="M 18.978516 2.0019531 C 17.809553 1.9855691 16.433213 2.0364621 15.238281 3.0019531 C 14.696617 3.439631 14.362921 3.9458238 14.068359 4.34375 C 13.773797 4.7416762 13.528588 5.0222475 13.300781 5.1601562 C 13.022758 5.3284886 12.733091 5.261003 12.015625 5.0859375 L 6.7714844 3.8066406 C 5.5171327 3.5005829 4.2652843 3.8558095 3.3808594 4.7402344 C 3.0824134 5.0386727 2.7576432 5.4971764 2.8261719 6.1015625 C 2.8947005 6.7059486 3.3127821 7.0858588 3.6894531 7.3222656 L 8.8964844 10.589844 L 8.1269531 11.560547 C 7.5953131 12.229347 7.4096528 12.409447 7.3125 12.455078 C 6.9325903 12.633559 5.7297318 12.513727 4.609375 12.498047 C 4.0496401 12.490147 3.5885463 12.653389 3.1074219 12.935547 C 2.6262974 13.217704 2.0478372 13.688159 2.0019531 14.53125 C 1.9692281 15.1325 2.4048626 15.655202 2.7089844 15.853516 C 3.0131062 16.051829 3.2610938 16.124654 3.3417969 16.160156 L 6.1425781 17.392578 C 6.3184188 17.469926 6.4137923 17.520896 6.4570312 17.542969 C 6.4791001 17.586203 6.53006 17.681564 6.6074219 17.857422 L 7.8398438 20.658203 C 7.8753167 20.738833 7.9481852 20.986858 8.1464844 21.291016 C 8.3447836 21.595173 8.8674754 22.030815 9.46875 21.998047 C 10.31191 21.952207 10.782303 21.371765 11.064453 20.890625 C 11.346603 20.409485 11.509843 19.950361 11.501953 19.390625 C 11.486263 18.270318 11.366451 17.067377 11.544922 16.6875 C 11.590552 16.59034 11.770629 16.404766 12.439453 15.873047 L 13.410156 15.103516 L 16.677734 20.310547 C 16.914129 20.68725 17.294006 21.105347 17.898438 21.173828 C 18.502869 21.242308 18.961313 20.917593 19.259766 20.619141 C 20.144135 19.734771 20.499493 18.482933 20.193359 17.228516 L 18.914062 11.984375 C 18.738968 11.266995 18.671509 10.977271 18.839844 10.699219 C 18.977756 10.471414 19.258314 10.226217 19.65625 9.9316406 C 20.054186 9.6370642 20.560385 9.3034042 20.998047 8.7617188 C 21.963496 7.5668061 22.014442 6.1904777 21.998047 5.0214844 C 21.989747 4.4351713 22.014987 4.0455491 21.826172 3.5585938 C 21.579389 2.9221566 21.077916 2.4206547 20.441406 2.1738281 C 19.95447 1.9849954 19.564927 2.0101733 18.978516 2.0019531 z M 18.951172 4.0019531 C 19.537561 4.0101731 19.733333 4.0454755 19.716797 4.0390625 C 19.826687 4.0816755 19.918321 4.1732992 19.960938 4.2832031 C 19.954538 4.2666481 19.989747 4.4624012 19.998047 5.0488281 C 20.013457 6.1472148 19.972957 6.8460189 19.441406 7.5039062 C 19.248768 7.7423309 18.898461 8.0046752 18.466797 8.3242188 C 18.035133 8.6437622 17.512294 9.030777 17.128906 9.6640625 C 16.501243 10.700811 16.803799 11.775164 16.970703 12.458984 L 18.251953 17.703125 C 18.399712 18.308583 18.336393 18.552875 18.119141 18.84375 L 14.509766 13.09375 A 1.0001 1.0001 0 0 0 13.041016 12.841797 L 11.195312 14.308594 C 10.526535 14.840275 10.040144 15.186849 9.734375 15.837891 C 9.0896446 17.210214 9.4910391 18.638475 9.5019531 19.417969 C 9.5019222 19.415769 9.4926875 19.446756 9.4921875 19.447266 L 8.4375 17.050781 C 8.2889957 16.713253 8.183346 16.421609 7.8808594 16.119141 C 7.5788396 15.817139 7.2861317 15.710626 6.9492188 15.5625 L 6.9472656 15.5625 L 4.5527344 14.507812 C 4.5532441 14.507314 4.5842263 14.498147 4.5820312 14.498047 C 5.3615945 14.508957 6.789779 14.910344 8.1621094 14.265625 C 8.8131166 13.959856 9.1597661 13.473487 9.6914062 12.804688 L 11.158203 10.958984 A 1.0001 1.0001 0 0 0 10.90625 9.4902344 L 5.15625 5.8808594 C 5.447151 5.6635914 5.6914276 5.6003197 6.296875 5.7480469 L 11.542969 7.0292969 C 12.226702 7.1961314 13.299161 7.4988215 14.335938 6.8710938 C 14.969231 6.4877126 15.356243 5.9648695 15.675781 5.5332031 C 15.995319 5.1015368 16.257658 4.751256 16.496094 4.5585938 C 17.153962 4.0270444 17.852734 3.9865574 18.951172 4.0019531 z " fill="currentColor"/>
</svg>
