<svg xmlns="http://www.w3.org/2000/svg" width="1em" height="1em" viewBox="0 0 24 24" fill="currentColor">
  <path d="M 16.880859 3.0117188 C 15.884556 2.9750735 14.78894 3.1400891 13.640625 3.6191406 A 1.0001 1.0001 0 0 0 13.615234 3.6289062 C 13.267075 3.785578 11.859305 4.4686563 10.40625 5.1699219 C 9.6797226 5.5205547 8.9600225 5.8667414 8.40625 6.1328125 C 7.8524765 6.3988793 7.3314039 6.6395847 7.4414062 6.59375 C 7.2397782 6.6777589 7.1299204 6.6944579 7.0820312 6.6953125 L 7.0820312 6.6933594 L 7.0839844 6.6933594 L 7.0839844 6.6914062 L 7.0839844 6.6894531 L 7.0820312 6.6875 L 7.0820312 6.6855469 L 7.0800781 6.6835938 C 7.0529852 6.6531254 6.8980691 6.5738519 6.8828125 6.5585938 A 1.0001 1.0001 0 0 0 6.7304688 6.4335938 C 6.8051184 6.4833602 6.8379662 6.5057663 6.84375 6.5078125 L 6.84375 6.5058594 C 6.8353468 6.4951008 6.7332912 6.4136222 6.6640625 6.3320312 C 6.553296 6.2014853 6.406047 6.0211886 6.2441406 5.8339844 C 6.0822343 5.6467801 5.9074735 5.4523656 5.7089844 5.2714844 C 5.5249018 5.1037317 5.3293095 4.9184034 4.8886719 4.8164062 C 4.413992 4.6811276 4.0195172 4.7187535 3.7070312 4.796875 C 3.6136053 4.8202315 3.2947587 4.8967922 2.9707031 4.9863281 C 2.8086753 5.0310961 2.6445065 5.0790202 2.4921875 5.1289062 C 2.3398685 5.1787923 2.2469597 5.1890789 2.0019531 5.3398438 C 1.5761584 5.6018713 1.2418236 6.0449681 1.1132812 6.3632812 C 0.96595929 6.7117352 0.99626714 6.8974709 1.0097656 7.0664062 C 1.0242036 7.247095 1.0547299 7.4151741 1.0917969 7.5976562 C 1.1659319 7.9626206 1.2722375 8.3735118 1.3828125 8.7949219 C 1.5151219 9.2991581 1.6595691 9.8233722 1.78125 10.253906 C 1.9003974 10.675476 1.9728236 10.940097 2.0585938 11.171875 C 2.3947698 12.146928 2.8750785 12.711882 3.2363281 12.974609 A 1.0001 1.0001 0 0 0 3.3105469 13.023438 C 3.814451 13.325779 4.3857205 13.441406 4.8496094 13.441406 C 5.1608204 13.441406 5.3832696 13.396036 5.8632812 13.298828 C 6.3327576 13.203758 6.9769012 13.047888 7.7871094 12.8125 L 7.8300781 12.800781 C 8.2544929 12.696816 8.8194503 12.54791 9.3730469 12.392578 C 9.3071119 12.711081 9.2538829 12.98934 9.2246094 13.091797 C 9.1070522 13.503247 9.1705164 13.991813 9.3964844 14.337891 C 9.618472 14.677872 9.9434784 14.872874 10.292969 14.955078 C 10.546092 15.017908 10.692314 15.003594 10.818359 14.990234 C 10.954699 14.975774 11.07257 14.951541 11.1875 14.925781 C 11.41736 14.874261 11.621502 14.813666 11.765625 14.765625 C 11.741095 14.773825 12.111325 14.672625 12.46875 14.580078 C 12.826175 14.487528 13.230632 14.380633 13.578125 14.259766 A 1.0001 1.0001 0 0 0 13.591797 14.255859 C 14.454321 13.942215 14.993549 13.340888 15.279297 12.662109 C 15.458019 12.351237 15.662185 11.915217 15.892578 11.449219 C 16.016605 11.198359 16.138546 10.95455 16.236328 10.763672 C 16.317428 10.605352 16.370007 10.517856 16.367188 10.515625 C 17.04101 10.328723 18.203451 10.013124 19.248047 9.7304688 C 20.310381 9.4430136 21.132837 9.224602 21.386719 9.1484375 C 21.562858 9.0955955 22.605554 8.762047 22.90625 7.7851562 A 1.0001 1.0001 0 0 0 22.919922 7.734375 C 23.004303 7.3968578 23.034908 6.9334425 22.886719 6.5410156 C 22.741002 6.155137 22.536943 5.9208687 22.300781 5.6269531 C 21.888866 5.0810805 21.010627 4.2475607 19.521484 3.6074219 C 18.773194 3.2857537 17.877163 3.0483638 16.880859 3.0117188 z M 16.820312 4.9960938 C 17.539165 5.0241358 18.175087 5.2057306 18.732422 5.4453125 C 19.847091 5.9244762 20.670204 6.7816264 20.710938 6.8359375 A 1.0001 1.0001 0 0 0 20.730469 6.8613281 C 20.904736 7.0786939 20.960555 7.1706711 20.976562 7.1933594 C 20.947917 7.1961443 20.897129 7.2070332 20.8125 7.2324219 C 20.8164 7.2312619 19.789229 7.5132363 18.726562 7.8007812 C 17.663898 8.0883262 16.465565 8.4139706 15.783203 8.6035156 A 1.0001 1.0001 0 0 0 15.740234 8.6152344 C 15.450962 8.7094124 15.227726 8.8559594 15.074219 8.984375 C 14.920711 9.1127906 14.727233 9.325773 14.867188 9.1855469 A 1.0001 1.0001 0 0 0 14.755859 9.3183594 C 14.610776 9.5256303 14.564562 9.6416561 14.457031 9.8515625 C 14.349501 10.061469 14.224332 10.312186 14.099609 10.564453 C 13.850164 11.068987 13.560276 11.639774 13.523438 11.701172 A 1.0001 1.0001 0 0 0 13.447266 11.855469 C 13.413466 11.942689 13.11258 12.299561 12.910156 12.375 C 12.681681 12.45379 12.307061 12.556933 11.96875 12.644531 C 11.703268 12.713271 11.517315 12.760526 11.322266 12.816406 C 11.380446 12.53011 11.464926 12.1831 11.486328 12.054688 C 11.481411 12.084191 11.479041 12.100067 11.478516 12.105469 C 11.481707 12.095795 11.495849 12.034603 11.511719 11.978516 C 11.537109 11.888766 11.571126 11.768403 11.597656 11.617188 C 11.624186 11.46597 11.6656 11.292468 11.59375 10.980469 C 11.55782 10.824469 11.479343 10.615434 11.292969 10.425781 C 11.223851 10.355448 11.141324 10.295702 11.052734 10.246094 C 10.827079 10.088927 10.602468 10.079822 10.492188 10.076172 C 10.335066 10.070972 10.259486 10.089536 10.1875 10.103516 C 10.043527 10.131486 9.9394624 10.165072 9.8164062 10.201172 C 9.5702936 10.273362 9.2746957 10.363501 8.9296875 10.441406 A 1.0001 1.0001 0 0 0 8.8789062 10.453125 C 8.3127883 10.612501 7.7158346 10.77147 7.3144531 10.869141 A 1.0001 1.0001 0 0 0 7.2695312 10.880859 C 6.4810199 11.111347 5.8798471 11.255801 5.4648438 11.339844 C 5.1276537 11.408126 4.8540139 11.432715 4.8261719 11.439453 L 4.8261719 11.441406 C 4.5966685 11.440099 4.5623797 11.420933 4.3945312 11.322266 C 4.2278528 11.205952 4.1979521 11.254466 3.9453125 10.517578 A 1.0001 1.0001 0 0 0 3.9375 10.490234 C 3.9442987 10.508365 3.8227772 10.127383 3.7050781 9.7109375 C 3.5873791 9.2944919 3.4471599 8.7779731 3.3183594 8.2871094 C 3.2086844 7.8691294 3.1069612 7.475792 3.0507812 7.1992188 C 3.0377732 7.1351809 3.0360653 7.1090377 3.0292969 7.0644531 C 3.0541045 7.0532316 3.0846886 7.039301 3.1152344 7.0292969 C 3.2176028 6.9957699 3.3596841 6.9558639 3.5039062 6.9160156 C 3.7923506 6.8363186 4.0867852 6.7629717 4.1933594 6.7363281 C 4.2338461 6.7262063 4.3016358 6.7299009 4.3339844 6.7285156 C 4.3432865 6.7348459 4.3538423 6.7413984 4.3632812 6.75 C 4.4554171 6.8339625 4.5923751 6.9829074 4.7304688 7.1425781 C 4.8685624 7.3022489 5.0088131 7.4719522 5.1386719 7.625 C 5.2411781 7.7458109 5.3421537 7.8551879 5.5195312 7.9980469 C 5.7090777 8.1903554 6.0806676 8.6144021 6.8847656 8.6875 C 7.3992154 8.7342682 7.8397971 8.593276 8.2089844 8.4394531 C 8.4564817 8.3363285 8.7170509 8.2028739 9.2734375 7.9355469 C 9.8298241 7.6682198 10.548787 7.3213728 11.275391 6.9707031 C 12.717737 6.2746054 14.240669 5.5427033 14.412109 5.4648438 C 15.300463 5.0945698 16.102022 4.9680737 16.820312 4.9960938 z M 4.2675781 6.6972656 L 4.2695312 6.6972656 C 4.2757404 6.6980049 4.2935112 6.7032831 4.3144531 6.7148438 C 4.2909657 6.7082622 4.2755072 6.7022433 4.2695312 6.6992188 L 4.2675781 6.6992188 L 4.2675781 6.6972656 z M 4.3339844 6.7148438 A 1.0001 1.0001 0 0 0 4.4589844 6.7460938 C 4.4160501 6.7382474 4.3804815 6.7310045 4.3535156 6.7246094 L 4.3535156 6.7226562 L 4.3515625 6.7226562 L 4.3496094 6.7207031 C 4.3466529 6.7190681 4.3414962 6.7173471 4.3339844 6.7148438 z M 3.0273438 7.0546875 L 3.0292969 7.0546875 L 3.0292969 7.0566406 L 3.0273438 7.0566406 L 3.0273438 7.0546875 z M 2 19 A 1 1 0 0 0 1 20 A 1 1 0 0 0 2 21 L 18 21 A 1 1 0 0 0 19 20 A 1 1 0 0 0 18 19 L 2 19 z " fill="currentColor"/>
</svg>
