<svg xmlns="http://www.w3.org/2000/svg" width="1em" height="1em" viewBox="0 0 24 24" fill="currentColor">
  <path d="M 7 1 A 1 1 0 0 0 6 2 L 6 3 L 2.8085938 3 C 1.8213451 3 1 3.8213452 1 4.8085938 C 1 5.0893979 1.0658201 5.3660152 1.1914062 5.6171875 L 1.7773438 6.7890625 C 2.1807852 7.5959455 2.4352428 8.2078813 3.1132812 8.6269531 C 3.4052726 8.8074097 3.6939231 8.9023858 4 8.9511719 L 4 14.013672 C 3.3666629 14.050571 2.8433665 14.165464 2.3339844 14.505859 C 2.0063879 14.724727 1.7247339 15.006393 1.5058594 15.333984 C 0.93058863 16.194859 1 17.0955 1 18.5 C 1 19.9045 0.93058868 20.805141 1.5058594 21.666016 C 1.7247339 21.993607 2.0063879 22.275273 2.3339844 22.494141 C 3.1948898 23.069443 4.09554 23 5.5 23 L 18.5 23 C 19.9045 23 20.805137 23.06948 21.666016 22.494141 C 21.993651 22.275267 22.275267 21.993651 22.494141 21.666016 C 23.069482 20.805137 23 19.9045 23 18.5 C 23 17.0955 23.069482 16.194863 22.494141 15.333984 C 22.275267 15.006349 21.993651 14.724733 21.666016 14.505859 C 21.449304 14.361027 21.229154 14.256143 21 14.181641 C 21.005976 12.955334 21.024925 12.128196 20.494141 11.333984 C 20.275267 11.006349 19.993651 10.724733 19.666016 10.505859 C 18.805137 9.9305187 17.9045 10 16.5 10 C 15.0955 10 14.194863 9.9305184 13.333984 10.505859 C 13.006349 10.724733 12.724733 11.006349 12.505859 11.333984 C 12.001843 12.08814 11.992572 12.872807 11.998047 14 L 10 14 L 10 8.9511719 C 10.306077 8.90239 10.594727 8.8074349 10.886719 8.6269531 C 11.564808 8.2078843 11.81917 7.5959159 12.222656 6.7890625 L 12.808594 5.6191406 L 12.808594 5.6171875 C 12.933817 5.3662031 13 5.0885451 13 4.8085938 C 13 3.8213602 12.178657 3 11.191406 3 L 8 3 L 8 2 A 1 1 0 0 0 7 1 z M 3.1191406 5 L 7 5 L 10.880859 5 L 10.435547 5.8945312 C 10.032034 6.7014379 9.8828478 6.89679 9.8359375 6.9257812 C 9.7891488 6.9547016 9.5485944 7 8.6464844 7 L 5.3535156 7 C 4.4514056 7 4.2109522 6.9547601 4.1640625 6.9257812 C 4.117161 6.8967931 3.9678916 6.7014083 3.5644531 5.8945312 L 3.1191406 5 z M 6 9 L 8 9 L 8 14 L 6 14 L 6 9 z M 16.5 12 C 17.9045 12 18.406766 12.06911 18.554688 12.167969 C 18.663853 12.240899 18.759105 12.336148 18.832031 12.445312 C 18.918077 12.574062 18.981077 12.971131 18.996094 13.998047 C 18.837616 13.99882 18.67288 14 18.5 14 L 14.003906 14 C 14.018875 12.971728 14.081872 12.574138 14.167969 12.445312 C 14.240899 12.336147 14.336148 12.240895 14.445312 12.167969 C 14.593234 12.06911 15.0955 12 16.5 12 z M 5.5 16 L 18.5 16 C 19.9045 16 20.406766 16.06911 20.554688 16.167969 C 20.663853 16.240899 20.759105 16.336149 20.832031 16.445312 C 20.93089 16.593235 21 17.0955 21 18.5 C 21 19.9045 20.93089 20.406766 20.832031 20.554688 C 20.759101 20.663853 20.663853 20.759105 20.554688 20.832031 C 20.406766 20.93089 19.9045 21 18.5 21 L 5.5 21 C 4.09554 21 3.593307 20.930929 3.4453125 20.832031 C 3.336149 20.759099 3.2409341 20.663896 3.1679688 20.554688 C 3.0691194 20.406764 3 19.9045 3 18.5 C 3 17.0955 3.0691195 16.593237 3.1679688 16.445312 C 3.2409341 16.336104 3.336149 16.240901 3.4453125 16.167969 C 3.593307 16.069071 4.09554 16 5.5 16 z M 6 17.5 A 1 1 0 0 0 5 18.5 L 5 18.509766 A 1 1 0 0 0 6 19.509766 A 1 1 0 0 0 7 18.509766 L 7 18.5 A 1 1 0 0 0 6 17.5 z M 10 17.5 A 1 1 0 0 0 9 18.5 L 9 18.509766 A 1 1 0 0 0 10 19.509766 A 1 1 0 0 0 11 18.509766 L 11 18.5 A 1 1 0 0 0 10 17.5 z M 14 17.5 A 1 1 0 0 0 13 18.5 L 13 18.509766 A 1 1 0 0 0 14 19.509766 A 1 1 0 0 0 15 18.509766 L 15 18.5 A 1 1 0 0 0 14 17.5 z M 18 17.5 A 1 1 0 0 0 17 18.5 L 17 18.509766 A 1 1 0 0 0 18 19.509766 A 1 1 0 0 0 19 18.509766 L 19 18.5 A 1 1 0 0 0 18 17.5 z " fill="currentColor"/>
</svg>
