<svg xmlns="http://www.w3.org/2000/svg" width="1em" height="1em" viewBox="0 0 24 24" fill="currentColor">
  <path d="M 12 1 C 11.157604 1 10.569982 1.3525808 9.3710938 1.8847656 C 8.5270643 2.2594355 7.4693882 2.6703517 6.2753906 3.0097656 C 4.4479906 3.5292256 3.3527055 3.6923761 2.6054688 4.6816406 C 2.2552986 5.1452095 2.1166429 5.6972333 2.0566406 6.2636719 C 1.9966384 6.8301105 2 7.46125 2 8.28125 L 2 11.183594 C 2 14.2962 3.4156178 16.79958 5.1132812 18.638672 C 6.8109449 20.477764 8.7973511 21.702552 10.126953 22.404297 C 10.734073 22.724707 11.289017 23 12 23 C 12.710983 23 13.265967 22.724686 13.873047 22.404297 C 15.202683 21.70255 17.189041 20.477764 18.886719 18.638672 C 20.584396 16.79958 22 14.296201 22 11.183594 L 22 8.28125 C 22 7.46125 22.003399 6.8301062 21.943359 6.2636719 C 21.883359 5.6972376 21.744685 5.1452104 21.394531 4.6816406 C 20.647301 3.6923608 19.552009 3.5292256 17.724609 3.0097656 C 16.530546 2.6703669 15.472914 2.2594387 14.628906 1.8847656 C 13.429998 1.3525724 12.842395 1 12 1 z M 12 3 C 12.0054 3 12.617514 3.1807039 13.816406 3.7128906 C 14.730998 4.1188976 15.874598 4.5631925 17.177734 4.9335938 C 19.005134 5.4530538 19.737858 5.8079517 19.798828 5.8886719 C 19.852778 5.9600919 19.914052 6.0872912 19.955078 6.4746094 C 19.996104 6.8619276 20 7.46125 20 8.28125 L 20 11.183594 C 20 13.696187 18.884491 15.692567 17.417969 17.28125 C 15.951446 18.869933 14.141017 20.000612 12.939453 20.634766 C 12.332333 20.955176 12.279817 21 12 21 C 11.720183 21 11.667627 20.955155 11.060547 20.634766 C 9.8590089 20.000611 8.0485427 18.869933 6.5820312 17.28125 C 5.1155199 15.692567 4 13.696188 4 11.183594 L 4 8.28125 C 4 7.46125 4.0038899 6.8619233 4.0449219 6.4746094 C 4.0859499 6.0872955 4.1472219 5.960093 4.2011719 5.8886719 C 4.262155 5.8079364 4.9948656 5.4530537 6.8222656 4.9335938 C 8.1252881 4.5631877 9.2689629 4.1189007 10.183594 3.7128906 C 11.382505 3.1806955 11.994396 3 12 3 z M 10.460938 5.5019531 A 1 1 0 0 0 9.4609375 6.5019531 L 9.4609375 7.71875 C 8.8416551 7.9311603 8.4155852 8.3693014 8.2363281 9.0019531 L 7 9.0019531 A 1 1 0 0 0 6 10.001953 A 1 1 0 0 0 7 11.001953 L 8.0371094 11.001953 L 8.0371094 11.974609 L 7 11.974609 A 1 1 0 0 0 6 12.974609 A 1 1 0 0 0 7 13.974609 L 8.2480469 13.974609 C 8.4338848 14.593752 8.851272 15.021356 9.4609375 15.230469 L 9.4609375 16.5 A 1 1 0 0 0 10.460938 17.5 A 1 1 0 0 0 11.460938 16.5 L 11.460938 15.46875 L 12.464844 15.46875 L 12.464844 16.5 A 1 1 0 0 0 13.464844 17.5 A 1 1 0 0 0 14.464844 16.5 L 14.464844 15.261719 C 15.111647 15.069984 15.558169 14.620183 15.751953 13.974609 L 17 13.974609 A 1 1 0 0 0 18 12.974609 A 1 1 0 0 0 17 11.974609 L 15.962891 11.974609 L 15.962891 11.001953 L 17 11.001953 A 1 1 0 0 0 18 10.001953 A 1 1 0 0 0 17 9.0019531 L 15.763672 9.0019531 C 15.575716 8.3386479 15.11544 7.8752617 14.453125 7.6835938 L 14.453125 6.5019531 A 1 1 0 0 0 13.453125 5.5019531 A 1 1 0 0 0 12.453125 6.5019531 L 12.453125 7.4804688 L 11.460938 7.4804688 L 11.460938 6.5019531 A 1 1 0 0 0 10.460938 5.5019531 z M 10.037109 9.4804688 L 10.460938 9.4804688 L 13.453125 9.4804688 L 13.962891 9.4804688 L 13.962891 10.001953 L 13.962891 12.974609 L 13.962891 13.46875 L 10.037109 13.46875 L 10.037109 12.974609 L 10.037109 10.001953 L 10.037109 9.4804688 z " fill="currentColor"/>
</svg>
