<svg xmlns="http://www.w3.org/2000/svg" width="1em" height="1em" viewBox="0 0 24 24" fill="currentColor">
  <path d="M 4.75 1 C 3.7953395 1 3 1.7953395 3 2.75 C 3 3.7046605 3.7953395 4.5 4.75 4.5 C 4.841582 4.5 4.89824 4.4144676 4.9863281 4.4003906 L 6 5.4140625 L 6 8 A 1 1 0 0 0 7 9 A 1 1 0 0 0 8 8 L 8 5 A 1.0001 1.0001 0 0 0 7.7070312 4.2929688 L 6.4003906 2.9863281 C 6.4144679 2.89824 6.5 2.8415821 6.5 2.75 C 6.5 1.7953395 5.7046605 1 4.75 1 z M 12 1 C 11.045336 1 10.25 1.7953234 10.25 2.75 C 10.25 3.3173657 10.571684 3.7587703 11 4.0800781 L 11 7 A 1 1 0 0 0 12 8 A 1 1 0 0 0 13 7 L 13 4.0800781 C 13.428316 3.7587703 13.75 3.3173657 13.75 2.75 C 13.75 1.7953234 12.954664 1 12 1 z M 19.25 1 C 18.295336 1 17.5 1.7953234 17.5 2.75 C 17.5 2.841584 17.585529 2.898239 17.599609 2.9863281 L 16.292969 4.2929688 A 1.0001 1.0001 0 0 0 16 5 L 16 8 A 1 1 0 0 0 17 9 A 1 1 0 0 0 18 8 L 18 5.4140625 L 19.013672 4.4003906 C 19.10176 4.4144677 19.158418 4.5 19.25 4.5 C 20.204664 4.5 21 3.7046766 21 2.75 C 21 1.7953234 20.204664 1 19.25 1 z M 12 9 C 5.3333333 9 1.1679687 15.445312 1.1679688 15.445312 A 1.0001 1.0001 0 0 0 1.1679688 16.554688 C 1.1679688 16.554688 5.3333333 23 12 23 C 18.666667 23 22.832031 16.554688 22.832031 16.554688 A 1.0001 1.0001 0 0 0 22.832031 15.445312 C 22.832031 15.445312 18.666667 9 12 9 z M 12 11 C 16.800963 11 19.984173 15.101403 20.652344 16 C 19.984173 16.898597 16.800963 21 12 21 C 7.1990368 21 4.0158274 16.898597 3.3476562 16 C 4.0158274 15.101403 7.1990368 11 12 11 z M 12 12 C 9.8026932 12 8 13.802693 8 16 C 8 18.197307 9.8026932 20 12 20 C 14.197307 20 16 18.197307 16 16 C 16 13.802693 14.197307 12 12 12 z M 12 14 C 13.116493 14 14 14.883507 14 16 C 14 17.116493 13.116493 18 12 18 C 10.883507 18 10 17.116493 10 16 C 10 14.883507 10.883507 14 12 14 z " fill="currentColor"/>
</svg>
