<svg xmlns="http://www.w3.org/2000/svg" width="1em" height="1em" viewBox="0 0 24 24" fill="currentColor">
  <path d="M 10 1 C 8.11438 1 6.6810556 0.99457301 5.4785156 1.15625 C 4.2759756 1.317927 3.240311 1.689383 2.4648438 2.4648438 C 1.689383 3.240311 1.317927 4.2759756 1.15625 5.4785156 C 0.99457301 6.6810556 1 8.11438 1 10 C 1 11.8856 0.994573 13.318937 1.15625 14.521484 C 1.3179268 15.724031 1.6893545 16.759713 2.4648438 17.535156 C 3.1571011 18.227425 4.0570753 18.598643 5.0976562 18.785156 C 5.2823434 19.882321 5.650838 20.809095 6.3691406 21.527344 C 7.1483389 22.306575 8.1889436 22.68113 9.3984375 22.84375 C 10.607931 23.00637 12.051569 23 13.949219 23 C 15.846869 23 17.290498 23.0064 18.5 22.84375 C 19.709502 22.681131 20.74816 22.306593 21.527344 21.527344 C 22.306593 20.74816 22.681131 19.709502 22.84375 18.5 C 23.006369 17.290498 23 15.846869 23 13.949219 C 23 12.051569 23.00637 10.607931 22.84375 9.3984375 C 22.68113 8.1889436 22.306575 7.1483389 21.527344 6.3691406 C 20.809095 5.650838 19.882321 5.2823434 18.785156 5.0976562 C 18.598643 4.0570753 18.227425 3.1571011 17.535156 2.4648438 C 16.759713 1.6893545 15.724031 1.3179268 14.521484 1.15625 C 13.318937 0.99457318 11.8856 1 10 1 z M 10 3 C 11.8856 3 13.279881 3.0054999 14.255859 3.1367188 C 15.231837 3.2679343 15.725037 3.4828254 16.121094 3.8789062 C 16.517216 4.2750212 16.732063 4.7681734 16.863281 5.7441406 C 16.9945 6.7201079 17 8.11438 17 10 C 17 11.8856 16.9945 13.279884 16.863281 14.255859 C 16.732063 15.231835 16.517187 15.725034 16.121094 16.121094 C 15.9494 16.292802 15.759152 16.431424 15.519531 16.542969 C 14.741752 14.83457 13.427535 13.338089 11.724609 12.208984 C 9.4798461 10.72069 6.7029202 9.9505504 3.859375 10.001953 C 3.5725918 10.001608 3.2859804 10.009864 3 10.025391 L 3 10 C 3 8.11438 3.0055032 6.7201106 3.1367188 5.7441406 C 3.2679342 4.7681706 3.4827969 4.2750188 3.8789062 3.8789062 C 4.2750189 3.482797 4.7681706 3.2679342 5.7441406 3.1367188 C 6.7201106 3.0055032 8.11438 3 10 3 z M 13 5.75 C 12.321567 5.75 11.75 6.3216244 11.75 7 C 11.75 7.6783756 12.321567 8.25 13 8.25 C 13.678433 8.25 14.25 7.6783756 14.25 7 C 14.25 6.3216244 13.678433 5.75 13 5.75 z M 18.972656 7.1738281 C 19.490816 7.3074525 19.83034 7.50024 20.113281 7.7832031 C 20.51315 8.1830548 20.729173 8.683102 20.861328 9.6660156 C 20.993483 10.648929 21 12.051569 21 13.949219 C 21 15.846869 20.9935 17.249499 20.861328 18.232422 C 20.729173 19.215345 20.513132 19.713465 20.113281 20.113281 C 19.713465 20.513132 19.215345 20.729173 18.232422 20.861328 C 17.249499 20.993484 15.846869 21 13.949219 21 C 12.051569 21 10.648929 20.993483 9.6660156 20.861328 C 8.683102 20.729173 8.1830548 20.51315 7.7832031 20.113281 C 7.50024 19.83034 7.3074525 19.490816 7.1738281 18.972656 C 7.996216 19.001148 8.9243788 19 10 19 C 11.860613 19 13.279969 19.004779 14.472656 18.849609 A 1 1 0 0 0 15.283203 18.958984 A 1 1 0 0 0 15.833984 18.550781 C 16.48476 18.334315 17.059007 18.011347 17.535156 17.535156 C 18.310663 16.759716 18.682069 15.724034 18.84375 14.521484 C 19.005431 13.318935 19 11.8856 19 10 C 19 8.9243788 19.001148 7.996216 18.972656 7.1738281 z M 3.8691406 12.001953 A 1.0001 1.0001 0 0 0 3.890625 12.001953 C 6.3488941 11.956533 8.744541 12.632127 10.619141 13.875 C 11.885828 14.714862 12.85656 15.770201 13.484375 16.9375 C 12.586114 16.996943 11.435697 17 10 17 C 8.11438 17 6.7201079 16.9945 5.7441406 16.863281 C 4.7681734 16.732063 4.2750213 16.517216 3.8789062 16.121094 C 3.4828254 15.725037 3.2679343 15.231837 3.1367188 14.255859 C 3.057879 13.669452 3.023913 12.931612 3.0097656 12.027344 C 3.2952145 12.009646 3.5821396 12.001358 3.8691406 12.001953 z " fill="currentColor"/>
</svg>
