<svg xmlns="http://www.w3.org/2000/svg" width="1em" height="1em" viewBox="0 0 24 24" fill="currentColor">
  <path d="M 12 2 C 10.777595 2 9.7576655 2.7450305 8.8945312 3.8066406 C 8.0313969 4.8682508 7.1785255 6.3263658 6.0410156 8.2441406 L 4.1152344 11.488281 C 2.9310434 13.484733 2.0278482 14.991564 1.4921875 16.300781 C 0.95652683 17.609999 0.78843 18.89579 1.40625 19.986328 C 2.0240491 21.076903 3.2151346 21.592872 4.6113281 21.800781 C 6.0075212 22.008691 7.7609518 22 10.076172 22 L 13.923828 22 C 16.239028 22 17.992484 22.0087 19.388672 21.800781 C 20.784859 21.592872 21.975946 21.076898 22.59375 19.986328 C 23.211577 18.89579 23.043466 17.609997 22.507812 16.300781 C 21.972162 14.991566 21.068915 13.48473 19.884766 11.488281 L 17.958984 8.2441406 L 17.958984 8.2421875 C 16.822015 6.3252937 15.96833 4.8679188 15.105469 3.8066406 C 14.242339 2.7450319 13.222404 2 12 2 z M 12 4 C 12.464496 4 12.856639 4.2121956 13.552734 5.0683594 C 14.248829 5.9245232 15.102734 7.345897 16.240234 9.2636719 L 18.164062 12.507812 C 19.348213 14.504264 20.221025 15.992881 20.65625 17.056641 C 21.091475 18.1204 21.088889 18.584539 20.853516 19 A 1.0001 1.0001 0 0 0 20.853516 19.001953 C 20.61812 19.417436 20.226062 19.65365 19.09375 19.822266 C 17.961438 19.990881 16.239028 20 13.923828 20 L 10.076172 20 C 7.7609518 20 6.038569 19.990881 4.90625 19.822266 C 3.773931 19.65365 3.3818753 19.417479 3.1464844 19.001953 C 2.9111139 18.586491 2.9085182 18.120398 3.34375 17.056641 C 3.7789818 15.992883 4.6517484 14.504261 5.8359375 12.507812 L 7.7597656 9.2636719 C 8.8972757 7.3458967 9.7511646 5.9245267 10.447266 5.0683594 C 11.143366 4.212192 11.535505 4 12 4 z M 12 8 C 11.321567 8 10.75 8.5716244 10.75 9.25 C 10.75 9.9283756 11.321567 10.5 12 10.5 C 12.678433 10.5 13.25 9.9283756 13.25 9.25 C 13.25 8.5716244 12.678433 8 12 8 z M 12 12 A 1 1 0 0 0 11 13 L 11 17 A 1 1 0 0 0 12 18 A 1 1 0 0 0 13 17 L 13 13 A 1 1 0 0 0 12 12 z " fill="currentColor"/>
</svg>
