<svg xmlns="http://www.w3.org/2000/svg" width="1em" height="1em" viewBox="0 0 24 24" fill="currentColor">
  <path d="M 21 1 A 1 1 0 0 0 20 2 L 20 22 A 1 1 0 0 0 21 23 A 1 1 0 0 0 22 22 L 22 2 A 1 1 0 0 0 21 1 z M 14.5 4 C 14.0353 4 13.757692 3.9902412 13.414062 4.0585938 C 12.226788 4.2947466 11.292784 5.2267932 11.056641 6.4140625 C 10.98836 6.7576018 11 7.03534 11 7.5 L 11 16.496094 C 11 16.960794 10.988361 17.238505 11.056641 17.582031 C 11.29278 18.769314 12.22678 19.703313 13.414062 19.939453 C 13.757589 20.007733 14.0353 19.996094 14.5 19.996094 C 14.9647 19.996094 15.24241 20.007733 15.585938 19.939453 C 16.77322 19.703313 17.70722 18.769314 17.943359 17.582031 C 18.011639 17.238505 18 16.960794 18 16.496094 L 18 7.5 C 18 7.03534 18.01164 6.7576018 17.943359 6.4140625 C 17.707216 5.2267932 16.77321 4.2947466 15.585938 4.0585938 C 15.242306 3.9902412 14.9647 4 14.5 4 z M 14.5 6 C 14.9647 6 15.152543 6.0110243 15.195312 6.0195312 C 15.594838 6.0989983 15.901012 6.4051968 15.980469 6.8046875 C 15.988988 6.8475484 16 7.03534 16 7.5 L 16 16.496094 C 16 16.960794 15.988989 17.148533 15.980469 17.191406 C 15.901009 17.590923 15.59483 17.899055 15.195312 17.978516 C 15.152442 17.987016 14.9647 17.996094 14.5 17.996094 C 14.0353 17.996094 13.84756 17.986996 13.804688 17.978516 C 13.405169 17.899056 13.098992 17.590923 13.019531 17.191406 C 13.011009 17.148533 13 16.960794 13 16.496094 L 13 7.5 C 13 7.03534 13.011011 6.8475482 13.019531 6.8046875 C 13.098991 6.4051968 13.405161 6.0989984 13.804688 6.0195312 C 13.847458 6.0110238 14.0353 6 14.5 6 z M 5.5 7 C 5.03534 7 4.7577059 6.9902386 4.4140625 7.0585938 C 3.2268023 7.2947499 2.2947498 8.2268023 2.0585938 9.4140625 C 1.9902436 9.75768 2 10.0353 2 10.5 L 2 13.496094 C 2 13.960794 1.9902398 14.238401 2.0585938 14.582031 C 2.2947466 15.769305 3.2267932 16.70331 4.4140625 16.939453 C 4.7576018 17.007733 5.03534 16.996094 5.5 16.996094 C 5.96466 16.996094 6.2423982 17.007733 6.5859375 16.939453 C 7.7732066 16.70331 8.7052533 15.769305 8.9414062 14.582031 C 9.0097587 14.238401 9 13.960794 9 13.496094 L 9 10.5 C 9 10.0353 9.0097562 9.75768 8.9414062 9.4140625 C 8.7052501 8.2268023 7.7731977 7.2947499 6.5859375 7.0585938 C 6.2422941 6.9902386 5.96466 7 5.5 7 z M 5.5 9 C 5.96466 9 6.1525559 9.0110262 6.1953125 9.0195312 C 6.5948123 9.0989952 6.901005 9.4051877 6.9804688 9.8046875 C 6.9889787 9.8474703 7 10.0353 7 10.5 L 7 13.496094 C 7 13.960794 6.9889757 14.148637 6.9804688 14.191406 C 6.9010017 14.590932 6.5948032 14.899059 6.1953125 14.978516 C 6.1524515 14.987016 5.96466 14.996094 5.5 14.996094 C 5.03534 14.996094 4.8475482 14.986996 4.8046875 14.978516 C 4.4051965 14.899059 4.0989984 14.590932 4.0195312 14.191406 C 4.0110238 14.148637 4 13.960794 4 13.496094 L 4 10.5 C 4 10.0353 4.0110213 9.84747 4.0195312 9.8046875 C 4.0989951 9.4051877 4.4051877 9.098995 4.8046875 9.0195312 C 4.8474441 9.0110263 5.03534 9 5.5 9 z " fill="currentColor"/>
</svg>
