<svg xmlns="http://www.w3.org/2000/svg" width="1em" height="1em" viewBox="0 0 24 24" fill="currentColor">
  <path d="M 10.5 4 C 10.0353 4 9.75768 3.9902437 9.4140625 4.0585938 C 8.2268023 4.2947499 7.2947499 5.2268023 7.0585938 6.4140625 C 7.0528119 6.4431296 7.047686 6.4717244 7.0429688 6.5 L 2 6.5 A 1 1 0 0 0 1 7.5 A 1 1 0 0 0 2 8.5 L 7.0429688 8.5 C 7.047686 8.5282756 7.0528119 8.5568704 7.0585938 8.5859375 C 7.2947499 9.7731977 8.2268023 10.70525 9.4140625 10.941406 C 9.75768 11.009756 10.0353 11 10.5 11 L 13.496094 11 C 13.960794 11 14.238401 11.009796 14.582031 10.941406 C 15.769305 10.705249 16.70331 9.7732068 16.939453 8.5859375 C 16.94523 8.5568717 16.95039 8.5282768 16.955078 8.5 L 22 8.5 A 1 1 0 0 0 23 7.5 A 1 1 0 0 0 22 6.5 L 16.955078 6.5 C 16.95039 6.4717232 16.94523 6.4431283 16.939453 6.4140625 C 16.703309 5.2267932 15.769305 4.2947466 14.582031 4.0585938 C 14.238401 3.9902412 13.960794 4 13.496094 4 L 10.5 4 z M 10.5 6 L 13.496094 6 C 13.960794 6 14.148637 6.0110243 14.191406 6.0195312 C 14.590932 6.0989983 14.899059 6.4051968 14.978516 6.8046875 C 14.987016 6.8475485 14.996094 7.03534 14.996094 7.5 C 14.996094 7.96466 14.986996 8.1524518 14.978516 8.1953125 C 14.899056 8.5948032 14.590932 8.9010016 14.191406 8.9804688 C 14.148637 8.9889763 13.960794 9 13.496094 9 L 10.5 9 C 10.0353 9 9.84747 8.9889786 9.8046875 8.9804688 C 9.4051877 8.9010048 9.098995 8.5948123 9.0195312 8.1953125 C 9.0110264 8.1525561 9.0000001 7.9646561 9 7.5 C 9 7.03535 9.0110276 6.8474376 9.0195312 6.8046875 C 9.098995 6.4051877 9.4051877 6.0989951 9.8046875 6.0195312 C 9.84747 6.0110214 10.0353 6 10.5 6 z M 7.5 13 C 7.03534 13 6.7576018 12.98836 6.4140625 13.056641 C 5.2267932 13.292784 4.2947466 14.226788 4.0585938 15.414062 C 4.0528119 15.44313 4.0476859 15.471725 4.0429688 15.5 L 2 15.5 A 1 1 0 0 0 1 16.5 A 1 1 0 0 0 2 17.5 L 4.0429688 17.5 C 4.047686 17.528275 4.0528118 17.55687 4.0585938 17.585938 C 4.2947466 18.773211 5.2267932 19.707216 6.4140625 19.943359 C 6.7576015 20.01164 7.03534 20 7.5 20 L 16.496094 20 C 16.960794 20 17.238505 20.011639 17.582031 19.943359 C 18.769314 19.70722 19.703313 18.773221 19.939453 17.585938 C 19.94523 17.556871 19.95039 17.528277 19.955078 17.5 L 22 17.5 A 1 1 0 0 0 23 16.5 A 1 1 0 0 0 22 15.5 L 19.955078 15.5 C 19.95039 15.471724 19.94523 15.443128 19.939453 15.414062 C 19.703313 14.226779 18.769314 13.29278 17.582031 13.056641 C 17.238505 12.988362 16.960794 13 16.496094 13 L 7.5 13 z M 7.5 15 L 16.496094 15 C 16.960794 15 17.148533 15.011011 17.191406 15.019531 C 17.590923 15.098991 17.899055 15.405169 17.978516 15.804688 C 17.987016 15.847558 17.996094 16.0353 17.996094 16.5 C 17.996094 16.9647 17.986996 17.152439 17.978516 17.195312 C 17.899056 17.594831 17.590923 17.901008 17.191406 17.980469 C 17.148533 17.988991 16.960794 18 16.496094 18 L 7.5 18 C 7.03534 18 6.8475482 17.988988 6.8046875 17.980469 C 6.4051968 17.901012 6.0989984 17.594839 6.0195312 17.195312 C 6.0110238 17.152544 6 16.9647 6 16.5 C 6 16.0353 6.0110243 15.847456 6.0195312 15.804688 C 6.0989983 15.40516 6.4051968 15.098988 6.8046875 15.019531 C 6.8475484 15.011012 7.03534 15 7.5 15 z " fill="currentColor"/>
</svg>
