<svg xmlns="http://www.w3.org/2000/svg" width="1em" height="1em" viewBox="0 0 24 24" fill="currentColor">
  <path d="M 12 1 C 5.9367104 1 1 5.9367104 1 12 C 1 18.063244 5.9367044 23 12 23 C 18.06325 23 23 18.06325 23 12 C 23 5.9367044 18.063244 1 12 1 z M 12 3 C 16.982356 3 21 7.0175956 21 12 C 21 16.98235 16.98235 21 12 21 C 7.0175956 21 3 16.982356 3 12 C 3 7.0175896 7.0175896 3 12 3 z M 10.683594 7 C 9.0771395 7.0220293 7.8412626 7.8020321 7.1074219 8.7480469 C 6.3832012 9.6816601 6.0780047 10.725938 6.0273438 11.597656 C 5.917376 12.646626 6.1802407 13.81177 6.8476562 14.84375 C 7.5198779 15.883162 8.6673622 16.771019 10.193359 16.972656 A 1.0001 1.0001 0 0 0 10.226562 16.976562 C 11.846404 17.134068 13.047602 16.287662 13.865234 15.330078 C 13.935154 15.485341 13.942604 15.622267 14.035156 15.787109 A 1.0001 1.0001 0 0 0 14.054688 15.818359 C 14.650149 16.791654 15.765768 17.182701 16.748047 16.923828 A 1.0001 1.0001 0 0 0 16.873047 16.882812 C 17.307346 16.705076 17.655286 16.344003 17.818359 15.992188 C 17.981432 15.64037 18 15.326552 18 15.105469 A 1 1 0 0 0 17 14.105469 A 1 1 0 0 0 16.154297 14.951172 C 16.034164 14.952272 15.874896 14.936982 15.771484 14.779297 C 15.464386 14.224428 15.375196 13.468085 15.25 12.779297 C 15.31405 12.588867 15.517506 12.254346 15.558594 12.119141 A 1.0001 1.0001 0 0 0 15.572266 12.072266 C 15.994616 10.386143 16.126364 8.94876 15.994141 7.8769531 A 1 1 0 0 0 14.878906 7.0078125 A 1 1 0 0 0 14.007812 8.1230469 C 14.024442 8.2578205 13.927887 8.6486973 13.929688 8.8339844 C 13.31206 7.9022556 12.230825 7.129121 10.783203 7.0039062 A 1.0001 1.0001 0 0 0 10.683594 7 z M 10.662109 9.0117188 C 11.521847 9.1001538 11.920179 9.416223 12.267578 9.9433594 C 12.623769 10.483837 12.848724 11.285805 13.007812 12.09375 A 1.0001 1.0001 0 0 0 13.013672 12.125 C 13.063022 12.339003 13.083842 12.486163 13.121094 12.679688 C 12.945094 13.098544 12.864227 13.464033 12.585938 13.849609 C 12.039233 14.60708 11.449914 15.074472 10.435547 14.982422 C 9.5230034 14.855161 8.9324295 14.387189 8.5253906 13.757812 C 8.1148521 13.123023 7.954709 12.310347 8.0117188 11.792969 A 1.0001 1.0001 0 0 0 8.0175781 11.734375 C 8.0398641 11.292818 8.2553007 10.529817 8.6875 9.9726562 C 9.1111184 9.4265577 9.680847 9.040445 10.662109 9.0117188 z " fill="currentColor"/>
</svg>
