<svg xmlns="http://www.w3.org/2000/svg" width="1em" height="1em" viewBox="0 0 24 24" fill="currentColor">
  <path d="M 17.417969 3 A 1 1 0 0 0 17.287109 3.0058594 A 1 1 0 0 0 16.400391 4.1074219 C 16.509528 5.1179538 16.346158 7.1406598 16.013672 9.2695312 C 15.703147 8.1172085 15.275976 6.9078811 14.484375 5.7011719 A 1.0001 1.0001 0 0 0 14.427734 5.6230469 C 12.821567 3.6237278 10.745312 2.8258518 8.8359375 3.0332031 C 6.9265633 3.2405545 5.2339416 4.3524437 4.0664062 5.8632812 C 1.7835398 8.8174019 1.3497403 12.891544 2.9765625 16.396484 C 3.6298101 17.803868 4.7085821 19.118709 6.1328125 19.994141 C 7.5570429 20.869572 9.3651883 21.275657 11.261719 20.765625 C 12.739466 20.368191 14.260282 19.134396 15.552734 16.986328 C 15.768041 17.79441 16.035353 18.572159 16.4375 19.240234 A 1.0001 1.0001 0 0 0 16.451172 19.261719 C 17.042443 20.189579 17.876626 20.708216 18.636719 20.898438 C 19.396812 21.08866 20.034071 21.02077 20.560547 20.794922 A 1.0001 1.0001 0 0 0 20.613281 20.769531 C 20.881984 20.635033 21.270992 20.375661 21.554688 19.9375 C 21.838383 19.499339 22 18.91737 22 18.220703 A 1 1 0 0 0 21 17.220703 A 1 1 0 0 0 20 18.220703 C 20 18.624036 19.9207 18.780974 19.875 18.851562 C 19.83838 18.908123 19.80059 18.927212 19.75 18.955078 C 19.73055 18.959278 19.426433 19.034914 19.123047 18.958984 C 18.811714 18.881074 18.476708 18.705981 18.146484 18.193359 C 17.703432 17.450412 17.335447 16.043837 17.083984 14.642578 C 17.038064 14.386686 17.001404 14.213744 16.960938 13.962891 C 17.007767 13.830528 17.06794 13.740156 17.113281 13.603516 C 18.359487 10.120311 18.61496 5.9878423 18.388672 3.8925781 A 1 1 0 0 0 17.417969 3 z M 9.5214844 4.9980469 C 10.618884 5.0091468 11.73889 5.5004209 12.837891 6.8515625 C 13.805362 8.3482615 14.25003 9.9803336 14.458984 11.328125 A 1.0001 1.0001 0 0 0 14.484375 11.445312 C 14.599085 11.853625 14.749486 12.86297 14.890625 13.736328 C 13.581761 17.115095 11.862599 18.532654 10.742188 18.833984 C 9.3921381 19.197052 8.2153546 18.927609 7.1796875 18.291016 C 6.1440204 17.654422 5.286558 16.622304 4.7910156 15.554688 C 3.4704778 12.709627 3.8356039 9.4318168 5.6484375 7.0859375 C 6.5287521 5.9467751 7.7967211 5.157883 9.0527344 5.0214844 C 9.2084586 5.0045733 9.364713 4.9964612 9.5214844 4.9980469 z M 16.408203 10.904297 L 16.425781 10.980469 C 16.419755 10.958822 16.413221 10.937069 16.410156 10.917969 C 16.409502 10.913869 16.408903 10.908367 16.408203 10.904297 z " fill="currentColor"/>
</svg>
