<svg xmlns="http://www.w3.org/2000/svg" width="1em" height="1em" viewBox="0 0 24 24" fill="currentColor">
  <path d="M 12 1.5 C 9.5348485 1.5 7.9279795 2.5504749 7.0683594 3.625 C 6.2087393 4.6995251 6.0136719 5.8300781 6.0136719 5.8300781 A 1.0001 1.0001 0 0 0 6.6289062 6.9277344 L 9.1289062 7.9277344 A 1.0001 1.0001 0 0 0 10.470703 7.2421875 C 10.470703 7.2421875 10.553783 6.9289427 10.800781 6.5996094 C 11.047781 6.270276 11.333333 6 12 6 C 12.411365 6 12.55015 6.1301263 12.759766 6.5683594 C 12.882587 6.8251364 12.867588 7.2561791 12.904297 7.640625 C 10.22213 7.8128472 8.2828487 8.4382723 7.1503906 9.4375 C 5.8486427 10.586101 5.5 12.027778 5.5 13 C 5.5 13.972222 5.7938374 15.147223 6.5820312 16.171875 C 7.3702252 17.196527 8.7222222 18 10.5 18 C 12.35677 18 13.527443 17.228859 14.320312 16.53125 L 14.667969 17.054688 A 1.0001 1.0001 0 0 0 16.125 17.28125 L 18.625 15.28125 A 1.0001 1.0001 0 0 0 18.640625 13.732422 C 18.64062 13.732422 18 13.095288 18 12.5 L 18 9.0410156 C 18.028686 8.7116958 18.130657 7.1034615 17.574219 5.4335938 C 17.262162 4.4969916 16.727406 3.5068224 15.810547 2.7460938 C 14.893687 1.985365 13.608153 1.5 12 1.5 z M 12 3.5 C 13.225897 3.5 13.981178 3.8271349 14.533203 4.2851562 C 15.085228 4.7431776 15.448344 5.3780086 15.677734 6.0664062 C 16.136514 7.4432018 16.005859 8.8984375 16.005859 8.8984375 A 1.0001 1.0001 0 0 0 16 9 L 16 12.5 C 16 13.2815 16.308724 13.864119 16.611328 14.330078 L 15.726562 15.037109 L 15.332031 14.445312 A 1.0001 1.0001 0 0 0 13.699219 14.400391 C 13.699219 14.400389 12.466667 16 10.5 16 C 9.2777778 16 8.6297748 15.553473 8.1679688 14.953125 C 7.7061626 14.352777 7.5 13.527778 7.5 13 C 7.5 12.472222 7.6513573 11.663899 8.4746094 10.9375 C 9.2978615 10.211101 10.903846 9.5 14 9.5 A 1.0001 1.0001 0 0 0 14.994141 8.6015625 C 15.092801 7.6324211 14.996438 6.6082076 14.564453 5.7050781 C 14.132469 4.8019487 13.188635 4 12 4 C 10.666667 4 9.7022188 4.729724 9.1992188 5.4003906 C 9.0747025 5.5664121 9.1191162 5.5789928 9.0332031 5.7363281 L 8.3398438 5.4589844 C 8.4367151 5.228948 8.3871013 5.1796976 8.6308594 4.875 C 9.1712393 4.1995251 10.065152 3.5 12 3.5 z M 13.5 9.8554688 C 11.149255 9.8554688 9.599619 10.922906 9.140625 12.287109 C 8.911128 12.969211 8.9540383 13.710973 9.3203125 14.322266 C 9.6865867 14.933559 10.419547 15.355469 11.201172 15.355469 C 12.374129 15.355469 13.225294 14.537214 13.730469 13.673828 C 14.235644 12.810442 14.5 11.809802 14.5 10.855469 A 1.0001 1.0001 0 0 0 13.5 9.8554688 z M 12.146484 12.140625 C 12.079554 12.317343 12.090284 12.514478 12.003906 12.662109 C 11.704556 13.173723 11.407315 13.355469 11.201172 13.355469 C 11.118099 13.355469 11.081333 13.349361 11.064453 13.339844 C 11.063526 13.339205 11.059408 13.336622 11.058594 13.335938 L 11.056641 13.333984 C 11.049034 13.324658 11.047211 13.311782 11.037109 13.294922 C 11.010169 13.249962 10.970306 13.116727 11.035156 12.923828 C 11.117566 12.678892 11.517147 12.374339 12.146484 12.140625 z M 20.765625 16.003906 C 20.487063 15.993697 20.218639 16.005943 19.964844 16.035156 C 18.658589 16.185519 17.910795 16.686747 17.667969 16.851562 C 17.667131 16.851927 17.630859 16.861328 17.630859 16.861328 L 17.634766 16.867188 C 17.603846 16.888448 17.408203 16.984375 17.408203 16.984375 A 1.0001 1.0001 0 0 0 18.357422 18.722656 C 10.50997 22.301381 2.5820312 16.6875 2.5820312 16.6875 A 1.0001 1.0001 0 0 0 1.3339844 18.246094 C 1.3631894 18.272224 1.392657 18.282754 1.421875 18.308594 L 1.4179688 18.3125 C 1.4179688 18.3125 1.4804809 18.350172 1.4824219 18.351562 C 5.9002662 22.227638 10.453096 22.826928 13.826172 22.357422 C 17.074662 21.905258 19.191496 20.573419 19.398438 20.441406 C 19.409627 20.436106 19.420461 20.435007 19.431641 20.429688 L 19.429688 20.425781 C 19.436187 20.421581 19.548828 20.363281 19.548828 20.363281 A 1.0001 1.0001 0 0 0 19.332031 18.583984 C 19.633649 18.560456 19.977711 18.551356 20.318359 18.580078 C 20.182389 19.565153 19.789062 20.476562 19.789062 20.476562 A 1.0001 1.0001 0 0 0 21.427734 21.619141 C 21.427734 21.619141 21.485444 21.527664 21.490234 21.521484 L 21.494141 21.523438 C 21.494141 21.523438 21.505589 21.498467 21.505859 21.498047 C 21.575159 21.408387 21.887634 21.014333 22.248047 20.355469 C 22.646581 19.626917 23.09889 18.693707 22.984375 17.597656 C 22.906245 16.850639 22.335987 16.257405 21.630859 16.109375 C 21.332889 16.046776 21.044187 16.014115 20.765625 16.003906 z " fill="currentColor"/>
</svg>
