<svg xmlns="http://www.w3.org/2000/svg" width="1em" height="1em" viewBox="0 0 24 24" fill="currentColor">
  <path d="M 8 1 A 1.0001 1.0001 0 0 0 7.1054688 1.5527344 C 7.1054688 1.5527344 5.5315084 4.6070216 5.5 7.9023438 L 5.0253906 10.273438 A 1.0001 1.0001 0 0 0 5.0195312 10.300781 L 5.0195312 10.304688 A 1.0001 1.0001 0 0 0 5.0195312 10.308594 A 1.0001 1.0001 0 0 0 5.0039062 10.421875 A 1.0001 1.0001 0 0 0 5.0019531 10.458984 A 1.0001 1.0001 0 0 0 5 10.5 L 5 18 C 5 18.362533 5.1000671 18.704653 5.2734375 19 C 5.1000672 19.295347 5 19.637467 5 20 L 5 22 A 1.0001 1.0001 0 0 0 6 23 L 10 23 A 1.0001 1.0001 0 0 0 11 22 L 11 20 C 11 19.637467 10.899933 19.295347 10.726562 19 C 10.899933 18.704653 11 18.362533 11 18 L 11 10.5 A 1.0001 1.0001 0 0 0 10.998047 10.458984 A 1.0001 1.0001 0 0 0 10.996094 10.421875 A 1.0001 1.0001 0 0 0 10.980469 10.300781 L 10.5 7.9003906 C 10.468491 4.6050689 8.8945312 1.5527344 8.8945312 1.5527344 A 1.0001 1.0001 0 0 0 8 1 z M 16 1 A 1.0001 1.0001 0 0 0 15.105469 1.5527344 C 15.105469 1.5527344 13.531509 4.607022 13.5 7.9023438 L 13.025391 10.273438 A 1.0001 1.0001 0 0 0 13.019531 10.300781 L 13.019531 10.304688 A 1.0001 1.0001 0 0 0 13.019531 10.308594 A 1.0001 1.0001 0 0 0 13.003906 10.421875 A 1.0001 1.0001 0 0 0 13.001953 10.458984 A 1.0001 1.0001 0 0 0 13 10.5 L 13 18 C 13 18.36253 13.100063 18.704651 13.273438 19 C 13.100063 19.295349 13 19.63747 13 20 L 13 22 A 1.0001 1.0001 0 0 0 14 23 L 18 23 A 1.0001 1.0001 0 0 0 19 22 L 19 20 C 19 19.63747 18.899937 19.295349 18.726562 19 C 18.899937 18.704651 19 18.36253 19 18 L 19 10.5 A 1.0001 1.0001 0 0 0 18.998047 10.458984 A 1.0001 1.0001 0 0 0 18.996094 10.421875 A 1.0001 1.0001 0 0 0 18.980469 10.308594 A 1.0001 1.0001 0 0 0 18.980469 10.304688 A 1.0001 1.0001 0 0 0 18.976562 10.28125 L 18.5 7.9023438 L 18.5 7.9003906 C 18.468491 4.6050689 16.894531 1.5527344 16.894531 1.5527344 A 1.0001 1.0001 0 0 0 16 1 z M 8 5.2910156 C 8.1450879 5.8394689 8.2419956 6.3959922 8.3144531 7 L 7.6855469 7 C 7.7580044 6.3959922 7.8549121 5.8394689 8 5.2910156 z M 16 5.2910156 C 16.145088 5.8394689 16.241996 6.3959922 16.314453 7 L 15.685547 7 C 15.758004 6.3959922 15.854912 5.8394689 16 5.2910156 z M 7.3203125 9 L 8.6796875 9 L 8.7792969 9.5 L 7.2207031 9.5 L 7.3203125 9 z M 15.320312 9 L 16.679688 9 L 16.779297 9.5 L 15.220703 9.5 L 15.320312 9 z M 7 11.5 L 9 11.5 L 9 18 L 7 18 L 7 11.5 z M 15 11.5 L 17 11.5 L 17 18 L 15 18 L 15 11.5 z M 7 20 L 9 20 L 9 21 L 7 21 L 7 20 z M 15 20 L 17 20 L 17 21 L 15 21 L 15 20 z " fill="currentColor"/>
</svg>
