<svg xmlns="http://www.w3.org/2000/svg" width="1em" height="1em" viewBox="0 0 24 24" fill="currentColor">
  <path d="M 8.5 1 C 7.4072695 1 6.5 1.9072695 6.5 3 L 6.3789062 3 C 5.0767369 3 4 4.0767369 4 5.3789062 C 4 5.5175014 4.0130038 5.656411 4.0371094 5.7929688 L 5.484375 14 C 5.1946644 14.568272 5 15.224875 5 16 C 5 16.929633 5.2238792 17.852073 5.5195312 18.734375 C 5.7936103 19.552322 6.0029886 20.192135 6.2851562 20.767578 C 6.567324 21.343021 6.9586999 21.862211 7.4921875 22.246094 C 8.0501994 22.647618 8.705853 22.840063 9.40625 22.921875 C 10.106647 23.003687 10.885668 23 11.898438 23 L 12.101562 23 C 13.114313 23 13.89335 23.003705 14.59375 22.921875 C 15.29415 22.840065 15.949786 22.647609 16.507812 22.246094 C 17.041269 21.862209 17.432677 21.34301 17.714844 20.767578 C 17.997011 20.192146 18.20637 19.552322 18.480469 18.734375 C 18.776158 17.852031 19 16.929589 19 16 C 19 15.224848 18.805352 14.568286 18.515625 14 L 19.962891 5.7929688 A 1.0001 1.0001 0 0 0 19.964844 5.7910156 C 19.988614 5.6556439 20 5.5181652 20 5.3789062 C 20 4.0767369 18.923281 3 17.621094 3 L 17.5 3 C 17.5 1.9072936 16.592731 1 15.5 1 L 8.5 1 z M 8.5390625 3 L 15.460938 3 C 15.434564 3.0676981 15.390105 3.1752297 15.318359 3.3007812 C 15.148952 3.5972438 14.885275 4.0157869 14.613281 4.5371094 C 14.537246 4.6828447 14.460166 4.8371201 14.384766 5 L 9.6152344 5 C 9.5398336 4.8371201 9.4627545 4.6828447 9.3867188 4.5371094 C 9.1147244 4.0157869 8.8510479 3.5972439 8.6816406 3.3007812 C 8.6098967 3.1752294 8.5654365 3.067698 8.5390625 3 z M 6.3789062 5 L 7.3574219 5 C 7.4423636 5.1472159 7.5286343 5.3006506 7.6132812 5.4628906 C 8.0692929 6.3369131 8.5 7.4404762 8.5 9 C 8.5 10.349393 7.9371995 11.020181 7.140625 11.876953 L 6.0058594 5.4453125 C 6.0020249 5.4235902 6 5.4010111 6 5.3789062 C 6 5.1575956 6.1575956 5 6.3789062 5 z M 16.642578 5 L 17.621094 5 C 17.842507 5 18 5.1575956 18 5.3789062 C 18 5.4003473 17.998241 5.4224015 17.994141 5.4453125 L 16.859375 11.876953 C 16.062818 11.020199 15.5 10.349373 15.5 9 C 15.5 7.4404762 15.930707 6.3369131 16.386719 5.4628906 C 16.471366 5.3006506 16.557636 5.1472159 16.642578 5 z M 10.289062 7 L 13.710938 7 C 13.580909 7.6019939 13.5 8.268239 13.5 9 C 13.5 11.083333 14.629405 12.415434 15.519531 13.369141 C 16.409658 14.322848 17 14.888889 17 16 C 17 16.591611 16.839695 17.334605 16.583984 18.097656 C 16.309883 18.915609 16.106152 19.502951 15.917969 19.886719 C 15.729786 20.270487 15.591387 20.442032 15.339844 20.623047 C 15.112771 20.786432 14.869978 20.876133 14.361328 20.935547 C 13.852678 20.994961 13.114312 21 12.101562 21 L 11.898438 21 C 10.885666 21 10.147315 20.994997 9.6386719 20.935547 C 9.1300288 20.876131 8.8872043 20.786422 8.6601562 20.623047 C 8.4085938 20.44203 8.270206 20.270476 8.0820312 19.886719 C 7.8938564 19.502962 7.6900966 18.915609 7.4160156 18.097656 C 7.1603077 17.334558 7 16.591567 7 16 C 7 14.888889 7.590342 14.322848 8.4804688 13.369141 C 9.3705953 12.415434 10.5 11.083333 10.5 9 C 10.5 8.268239 10.419091 7.6019939 10.289062 7 z " fill="currentColor"/>
</svg>
