<svg xmlns="http://www.w3.org/2000/svg" width="1em" height="1em" viewBox="0 0 24 24" fill="currentColor">
  <path d="M 17.9375 3 A 1 1 0 0 0 17.226562 3.2851562 L 4.3261719 15.869141 C 3.5814391 16.595648 3.0096661 17.14302 2.5898438 17.6875 C 2.3799325 17.95974 2.1973702 18.235888 2.0859375 18.587891 C 1.9745048 18.939893 1.9711673 19.397345 2.1308594 19.773438 C 2.2905425 20.149525 2.6177673 20.461176 2.9433594 20.628906 C 3.2689515 20.796637 3.5907891 20.866774 3.9335938 20.914062 C 4.6192028 21.008641 5.4194562 21 6.4726562 21 L 11 21 L 21 21 A 1 1 0 0 0 22 20 A 1 1 0 0 0 21 19 L 11.947266 19 C 11.722998 16.86002 10.784754 14.973499 9.359375 13.751953 L 18.623047 4.7148438 A 1 1 0 0 0 18.640625 3.3007812 A 1 1 0 0 0 17.9375 3 z M 7.9179688 15.160156 C 8.9175755 15.96186 9.7017651 17.343836 9.9316406 19 L 6.4726562 19 C 5.4194563 19 4.6401471 18.991401 4.2070312 18.931641 C 4.1814393 18.928141 4.1889146 18.925775 4.1660156 18.921875 L 4.1679688 18.919922 L 4.1679688 18.917969 L 4.1699219 18.916016 L 4.1699219 18.914062 L 4.1699219 18.912109 L 4.171875 18.910156 L 4.1738281 18.908203 C 4.4332057 18.571809 4.9779392 18.027274 5.7226562 17.300781 L 7.9179688 15.160156 z " fill="currentColor"/>
</svg>
