<svg xmlns="http://www.w3.org/2000/svg" width="1em" height="1em" viewBox="0 0 24 24" fill="currentColor">
  <path d="M 12 1.5 C 9.885135 1.5 8.2800075 1.494122 6.9453125 1.65625 C 5.6106175 1.818378 4.4935702 2.1773202 3.6035156 2.9375 C 3.3644918 3.1416387 3.1416387 3.3644918 2.9375 3.6035156 C 2.1773202 4.4935702 1.818378 5.6106175 1.65625 6.9453125 C 1.494122 8.2800075 1.5 9.885135 1.5 12 C 1.5 14.11485 1.49412 15.719994 1.65625 17.054688 C 1.8183781 18.389381 2.1773099 19.506443 2.9375 20.396484 C 3.1416562 20.635553 3.3644751 20.858359 3.6035156 21.0625 C 4.4935689 21.822698 5.6106151 22.181618 6.9453125 22.34375 C 8.2800099 22.505882 9.885135 22.5 12 22.5 C 14.11485 22.5 15.719991 22.5059 17.054688 22.34375 C 18.389384 22.181618 19.506444 21.822708 20.396484 21.0625 C 20.635569 20.858342 20.858342 20.635569 21.0625 20.396484 C 21.822708 19.506444 22.181618 18.389384 22.34375 17.054688 C 22.505882 15.719991 22.5 14.11485 22.5 12 C 22.5 9.885135 22.505882 8.2800099 22.34375 6.9453125 C 22.181618 5.6106151 21.822698 4.4935689 21.0625 3.6035156 C 20.858359 3.3644751 20.635553 3.1416562 20.396484 2.9375 C 19.506443 2.1773099 18.389381 1.8183781 17.054688 1.65625 C 15.719994 1.4941219 14.11485 1.5 12 1.5 z M 12 3.5 C 14.11485 3.5 15.681669 3.50521 16.8125 3.6425781 C 17.943331 3.7799426 18.585097 4.0212045 19.097656 4.4589844 C 19.256988 4.5950482 19.404957 4.7430243 19.541016 4.9023438 C 19.978818 5.4149304 20.220054 6.0566699 20.357422 7.1875 C 20.494789 8.3183301 20.5 9.885135 20.5 12 C 20.5 14.11485 20.4948 15.681671 20.357422 16.8125 C 20.220054 17.943329 19.978808 18.585096 19.541016 19.097656 C 19.404974 19.256971 19.256971 19.404974 19.097656 19.541016 C 18.585096 19.978808 17.943329 20.220054 16.8125 20.357422 C 15.681671 20.494789 14.11485 20.5 12 20.5 C 9.885135 20.5 8.3183301 20.494789 7.1875 20.357422 C 6.0566699 20.220054 5.4149305 19.978818 4.9023438 19.541016 C 4.7430243 19.404957 4.5950482 19.256988 4.4589844 19.097656 C 4.0212045 18.585097 3.7799426 17.943331 3.6425781 16.8125 C 3.5052137 15.681669 3.5 14.11485 3.5 12 C 3.5 9.885135 3.5052137 8.3183325 3.6425781 7.1875 C 3.7799426 6.0566675 4.0211942 5.4149292 4.4589844 4.9023438 C 4.5950657 4.7430077 4.7430076 4.5950657 4.9023438 4.4589844 C 5.4149293 4.0211942 6.0566675 3.7799426 7.1875 3.6425781 C 8.3183325 3.5052137 9.885135 3.5 12 3.5 z M 15.935547 5.5019531 A 1.0001 1.0001 0 0 0 15.800781 5.5195312 L 9.3007812 6.8378906 A 1.0001 1.0001 0 0 0 8.5 7.8183594 L 8.5 8.6582031 L 8.5 9.5 L 8.5 15.191406 L 7.09375 15.724609 C 6.438871 15.972601 6 16.606471 6 17.306641 C 6 18.469392 7.2404574 19.311095 8.3203125 18.878906 L 9.2421875 18.509766 C 9.9988977 18.20701 10.5 17.467131 10.5 16.652344 L 10.5 10.320312 L 15 9.4199219 L 15 13.691406 L 13.59375 14.224609 C 12.938573 14.472462 12.5 15.106517 12.5 15.806641 C 12.5 16.969406 13.740456 17.809133 14.820312 17.376953 L 15.742188 17.007812 C 16.498486 16.704974 17 15.965259 17 15.150391 L 17 8.2011719 L 17 7.3515625 L 17 6.5 A 1.0001 1.0001 0 0 0 15.935547 5.5019531 z " fill="currentColor"/>
</svg>
