<svg xmlns="http://www.w3.org/2000/svg" width="1em" height="1em" viewBox="0 0 24 24" fill="currentColor">
  <path d="M 14.017578 1 A 1 1 0 0 0 13.757812 1.0292969 C 12.183243 1.4229389 11.529175 2.3992032 11.261719 3.3085938 C 10.013892 3.6720762 9 4.6419232 9 6 C 9 7.6449915 10.354975 9 12 9 C 13.645025 9 15 7.6449915 15 6 C 15 4.8557354 14.241883 4.0422814 13.289062 3.5371094 C 13.461902 3.332683 13.703095 3.105476 14.242188 2.9707031 A 1 1 0 0 0 14.970703 1.7578125 A 1 1 0 0 0 14.017578 1 z M 12 5 C 12.564175 5 13 5.4358515 13 6 C 13 6.5641485 12.564175 7 12 7 C 11.435825 7 11 6.5641485 11 6 C 11 5.4358515 11.435825 5 12 5 z M 7.5449219 6.0019531 A 1 1 0 0 0 7.0390625 6.1132812 C 4.8805783 7.2361249 3.3055798 9.1298855 2.5449219 11.365234 C 2.0900143 11.570301 1.7063155 11.876025 1.4863281 12.242188 C 1.1597567 12.785754 1 13.389733 1 14.009766 C 1 15.241786 1.7371882 16.186425 2.6640625 16.65625 L 3.1835938 18.212891 C 3.5135973 19.202887 3.7631863 19.965389 4.0664062 20.617188 C 4.3696262 21.268988 4.7609604 21.838224 5.3242188 22.244141 C 5.8874258 22.650098 6.5513863 22.840328 7.265625 22.921875 C 7.9798637 23.003422 8.7806336 23 9.8242188 23 L 14.175781 23 C 15.219381 23 16.020125 23.003405 16.734375 22.921875 C 17.448625 22.840325 18.112559 22.650088 18.675781 22.244141 C 19.239001 21.838215 19.630392 21.26898 19.933594 20.617188 C 20.236796 19.965395 20.486408 19.202886 20.816406 18.212891 L 21.335938 16.65625 C 22.262813 16.186426 23 15.24179 23 14.009766 C 23 13.389733 22.840233 12.78575 22.513672 12.242188 C 22.293691 11.876029 21.909979 11.570305 21.455078 11.365234 C 20.694407 9.1298729 19.119385 7.2361219 16.960938 6.1132812 A 1 1 0 0 0 15.613281 6.5390625 A 1 1 0 0 0 16.039062 7.8867188 C 17.922853 8.8666809 19.291839 10.49804 19.791016 12.392578 A 1.0001 1.0001 0 0 0 20.703125 13.134766 C 20.710418 13.144899 20.744899 13.178467 20.800781 13.271484 C 20.909769 13.452896 21 13.783698 21 14.009766 C 21 14.684743 20.615389 14.914847 20.091797 14.978516 C 19.568205 15.042186 19.128944 14.899206 18.96875 14.269531 A 1.0001 1.0001 0 0 0 17.03125 14.269531 C 16.896468 14.79934 16.497093 15 16 15 C 15.502907 15 15.103532 14.79934 14.96875 14.269531 A 1.0001 1.0001 0 0 0 13.03125 14.269531 C 12.896468 14.79934 12.497093 15 12 15 C 11.502907 15 11.103532 14.79934 10.96875 14.269531 A 1.0001 1.0001 0 0 0 9.03125 14.269531 C 8.896456 14.799354 8.4970826 15 8 15 C 7.5029174 15 7.103544 14.799354 6.96875 14.269531 A 1.0001 1.0001 0 0 0 5.03125 14.269531 C 4.8710454 14.899217 4.4317896 15.042184 3.9082031 14.978516 C 3.3846167 14.914847 3 14.684747 3 14.009766 C 3 13.783698 3.0902299 13.452892 3.1992188 13.271484 C 3.2551043 13.178465 3.2895913 13.144898 3.296875 13.134766 A 1.0001 1.0001 0 0 0 4.2089844 12.392578 C 4.7081663 10.49802 6.0771262 8.8666775 7.9609375 7.8867188 A 1 1 0 0 0 8.3867188 6.5390625 A 1 1 0 0 0 7.5449219 6.0019531 z M 9.4394531 9.5019531 A 1 1 0 0 0 9.1835938 9.5507812 A 1 1 0 0 0 8.6054688 10.052734 L 8.1054688 11.052734 A 1 1 0 0 0 8.5527344 12.394531 A 1 1 0 0 0 9.8945312 11.947266 L 10.394531 10.947266 A 1 1 0 0 0 9.9472656 9.6054688 A 1 1 0 0 0 9.4394531 9.5019531 z M 14.429688 9.5019531 A 1 1 0 0 0 14.052734 9.6054688 A 1 1 0 0 0 13.605469 10.947266 L 14.105469 11.947266 A 1 1 0 0 0 15.447266 12.394531 A 1 1 0 0 0 15.894531 11.052734 L 15.394531 10.052734 A 1 1 0 0 0 14.816406 9.5507812 A 1 1 0 0 0 14.429688 9.5019531 z M 5.96875 16.115234 C 6.5547577 16.643053 7.2579377 17 8 17 C 8.7251208 17 9.4189836 16.664737 10 16.160156 C 10.581018 16.66474 11.274877 17 12 17 C 12.725123 17 13.418982 16.66474 14 16.160156 C 14.581018 16.66474 15.274877 17 16 17 C 16.742065 17 17.445241 16.643055 18.03125 16.115234 C 18.380858 16.41858 18.767442 16.663469 19.173828 16.814453 L 18.917969 17.582031 C 18.587967 18.572036 18.342339 19.29363 18.119141 19.773438 C 17.895943 20.253245 17.730193 20.462772 17.507812 20.623047 C 17.285335 20.7834 17.033589 20.875519 16.507812 20.935547 C 15.982038 20.99558 15.219381 21 14.175781 21 L 9.8242188 21 C 8.7806337 21 8.0179463 20.995597 7.4921875 20.935547 C 6.9664287 20.875517 6.7146405 20.78339 6.4921875 20.623047 C 6.2697758 20.462764 6.1021114 20.253239 5.8789062 19.773438 C 5.6557012 19.293637 5.4120377 18.572035 5.0820312 17.582031 L 4.8261719 16.814453 C 5.2325584 16.663469 5.6191404 16.418579 5.96875 16.115234 z " fill="currentColor"/>
</svg>
