<svg xmlns="http://www.w3.org/2000/svg" width="1em" height="1em" viewBox="0 0 24 24" fill="currentColor">
  <path d="M 10.0625 2 C 8.09507 2 6.8818249 1.9476603 5.7890625 2.6875 C 4.6963029 3.4273378 4.2931802 4.57368 3.5625 6.4003906 L 1.5 11.556641 C 1.286072 12.091361 1.1503812 12.416607 1.0722656 12.822266 C 0.9941542 13.227903 1 13.58025 1 14.15625 L 1 15 C 1 16.4142 0.99407502 17.495558 1.1191406 18.425781 C 1.2442065 19.356004 1.5428648 20.199101 2.171875 20.828125 C 2.8008908 21.457155 3.6439898 21.75579 4.5742188 21.880859 C 5.5044479 22.005928 6.585785 22 8 22 L 16 22 C 17.4142 22 18.495556 22.0059 19.425781 21.880859 C 20.356006 21.75579 21.199103 21.457147 21.828125 20.828125 C 22.457147 20.199103 22.75579 19.356006 22.880859 18.425781 C 23.005928 17.495556 23 16.4142 23 15 L 23 14.15625 C 23 13.58025 23.005804 13.227841 22.927734 12.822266 A 1.0001 1.0001 0 0 0 22.927734 12.820312 C 22.84958 12.415148 22.713936 12.09153 22.5 11.556641 L 20.4375 6.4003906 C 19.706794 4.5736654 19.30362 3.4273342 18.210938 2.6875 C 17.118151 1.9476928 15.9049 2 13.9375 2 L 10.0625 2 z M 10.0625 4 L 13.9375 4 C 15.9049 4 16.65883 4.051957 17.089844 4.34375 C 17.520761 4.6355158 17.849384 5.3158833 18.580078 7.1425781 L 20.523438 12 L 18.414062 12 C 17.837263 12 17.456047 11.9869 17.005859 12.115234 C 16.784535 12.178324 16.57075 12.2666 16.369141 12.378906 C 15.960072 12.606464 15.700869 12.885069 15.292969 13.292969 C 14.885069 13.700869 14.737735 13.828805 14.658203 13.873047 A 1.0001 1.0001 0 0 0 14.658203 13.875 C 14.591613 13.91209 14.519388 13.939817 14.445312 13.960938 C 14.358099 13.98575 14.162737 14 13.585938 14 L 10.414062 14 C 9.837232 14 9.6421038 13.98585 9.5546875 13.960938 C 9.4806146 13.939816 9.4085548 13.910218 9.3417969 13.873047 C 9.2622428 13.828778 9.1148895 13.700837 8.7070312 13.292969 C 8.2991094 12.885037 8.0397453 12.606437 7.6308594 12.378906 C 7.4292973 12.266677 7.2153677 12.178314 6.9941406 12.115234 C 6.5440169 11.986948 6.1627775 12 5.5859375 12 L 3.4765625 12 L 5.4199219 7.1425781 C 6.1506019 5.3158687 6.4792159 4.6355122 6.9101562 4.34375 C 7.3410939 4.0519897 8.09507 4 10.0625 4 z M 3 14 L 5.5859375 14 C 6.1627775 14 6.3578962 14.014153 6.4453125 14.039062 C 6.5193855 14.060182 6.5914452 14.089783 6.6582031 14.126953 C 6.7377571 14.171223 6.8851105 14.299163 7.2929688 14.707031 C 7.7008906 15.114963 7.9602547 15.393563 8.3691406 15.621094 C 8.5707027 15.733323 8.7846323 15.821686 9.0058594 15.884766 C 9.4559831 16.013055 9.837232 16 10.414062 16 L 13.585938 16 C 14.162736 16 14.543953 16.0131 14.994141 15.884766 C 15.215465 15.821676 15.42925 15.7334 15.630859 15.621094 C 16.039928 15.393536 16.299131 15.114931 16.707031 14.707031 C 17.114931 14.299131 17.262265 14.171195 17.341797 14.126953 A 1.0001 1.0001 0 0 0 17.341797 14.125 C 17.408387 14.08791 17.480612 14.060183 17.554688 14.039062 C 17.6419 14.01425 17.837263 14 18.414062 14 L 21 14 C 21.00011 14.049017 21 14.101017 21 14.15625 L 21 15 C 21 16.4142 20.993 17.454553 20.898438 18.158203 C 20.803828 18.861853 20.66374 19.164385 20.414062 19.414062 C 20.164386 19.66374 19.861853 19.803832 19.158203 19.898438 C 18.454553 19.993043 17.4142 20 16 20 L 8 20 C 6.585785 20 5.5454503 19.993043 4.8417969 19.898438 C 4.1381434 19.803832 3.8356017 19.663732 3.5859375 19.414062 C 3.3362677 19.164388 3.1961666 18.861855 3.1015625 18.158203 C 3.0069584 17.454551 3 16.4142 3 15 L 3 14.15625 C 3 14.101018 2.9998901 14.049018 3 14 z " fill="currentColor"/>
</svg>
