<svg xmlns="http://www.w3.org/2000/svg" width="1em" height="1em" viewBox="0 0 24 24" fill="currentColor">
  <path d="M 1.953125 2 A 1.0001 1.0001 0 0 0 1.0839844 3.4042969 L 5.0839844 12.476562 A 1 1 0 0 0 6.4042969 12.988281 A 1 1 0 0 0 6.9160156 11.669922 L 3.9511719 4.9414062 C 4.894269 5.1203565 6.0028913 5.1622269 7.3378906 4.859375 C 9.1235438 4.4542855 10.771349 3.9681018 11.96875 4.1347656 C 13.067496 4.287698 13.954986 4.7916226 14.773438 6.8125 L 7.5859375 14 L 5 14 A 1.0001 1.0001 0 0 0 4.2929688 14.292969 L 1.2929688 17.292969 A 1.0001 1.0001 0 0 0 2 19 L 4 19 L 4 21 A 1.0001 1.0001 0 0 0 5.7070312 21.707031 L 8.7070312 18.707031 A 1.0001 1.0001 0 0 0 9 18 L 9 15.414062 L 16.1875 8.2265625 C 18.208409 9.0450176 18.712305 9.9324992 18.865234 11.03125 C 19.031894 12.228654 18.545687 13.876453 18.140625 15.662109 C 17.83756 16.997968 17.879309 18.107333 18.058594 19.050781 L 11.404297 16.115234 A 1 1 0 0 0 10.085938 16.625 A 1 1 0 0 0 10.595703 17.943359 L 19.595703 21.914062 A 1.0001 1.0001 0 0 0 20.707031 20.292969 C 20.510457 20.096395 19.535098 18.559302 20.091797 16.105469 C 20.469135 14.442026 21.106668 12.630818 20.845703 10.755859 C 20.632634 9.2250247 19.578054 7.8214693 17.617188 6.796875 L 19 5.4140625 L 19 6 A 1 1 0 0 0 20 7 A 1 1 0 0 0 21 6 L 21 4 C 21 3.7643 21.006178 3.5677676 20.972656 3.3183594 C 20.9703 3.3008254 20.968035 3.2822872 20.964844 3.2636719 A 1 1 0 0 0 20.707031 2.2929688 A 1 1 0 0 0 19.736328 2.0351562 C 19.717715 2.031964 19.699173 2.0297009 19.681641 2.0273438 C 19.4322 1.9938079 19.2357 2 19 2 L 17 2 A 1 1 0 0 0 16 3 A 1 1 0 0 0 17 4 L 17.585938 4 L 16.203125 5.3828125 C 15.178533 3.4219674 13.77497 2.36737 12.244141 2.1542969 C 10.369186 1.8933257 8.5579981 2.5308326 6.8945312 2.9082031 C 4.4407127 3.4648653 2.9035352 2.4894727 2.7070312 2.2929688 A 1.0001 1.0001 0 0 0 1.953125 2 z M 5.4140625 16 L 7 16 L 7 17.585938 L 6 18.585938 L 6 18 A 1.0001 1.0001 0 0 0 5 17 L 4.4140625 17 L 5.4140625 16 z " fill="currentColor"/>
</svg>
