<svg xmlns="http://www.w3.org/2000/svg" width="1em" height="1em" viewBox="0 0 24 24" fill="currentColor">
  <path d="M 7 2.0019531 C 6.528595 2.0019531 6.1572169 1.9952935 5.7851562 2.0390625 C 5.4130956 2.0828319 4.981304 2.2006837 4.6347656 2.5039062 C 4.28823 2.8071263 4.1051711 3.2719778 4.0488281 3.6386719 C 3.9924851 4.005366 4 4.3394731 4 4.7519531 C 4 5.1644281 3.9924853 5.4965882 4.0488281 5.8632812 C 4.105171 6.2299743 4.2882402 6.6948238 4.6347656 6.9980469 C 4.981304 7.3012694 5.4130956 7.4191216 5.7851562 7.4628906 C 6.1572169 7.5066596 6.528595 7.5019531 7 7.5019531 L 7.9960938 7.5019531 C 7.9945037 8.0290634 7.9888042 8.4573091 7.9570312 8.6640625 C 7.9372399 8.7928697 7.9271735 8.8368444 7.9199219 8.8515625 L 7.9199219 8.8535156 L 7.9179688 8.8554688 L 7.9160156 8.8554688 L 7.9160156 8.8574219 L 7.9140625 8.8574219 C 7.9124146 8.8582168 7.9101435 8.8585707 7.9082031 8.859375 L 7.90625 8.8613281 L 7.9042969 8.8613281 L 7.9023438 8.8632812 C 7.8827595 8.8804187 7.8380149 8.922664 7.5292969 8.9589844 C 7.2205788 8.9953048 6.707105 9.0019531 6 9.0019531 L 5 9.0019531 A 1 1 0 0 0 4 10.001953 A 1 1 0 0 0 5 11.001953 L 6 11.001953 C 6.707105 11.001953 7.2534944 11.005153 7.7617188 10.945312 C 8.2699433 10.885519 8.7989943 10.736453 9.21875 10.369141 C 9.6385113 10.001852 9.858944 9.4545819 9.9335938 8.96875 C 10.008244 8.4829181 10 7.9956681 10 7.3769531 L 10 6.5019531 L 10 4.7519531 C 10 4.3394731 10.007517 4.00537 9.9511719 3.6386719 C 9.8948263 3.2719737 9.711777 2.8071222 9.3652344 2.5039062 C 9.0187002 2.2006873 8.586903 2.0828318 8.2148438 2.0390625 C 7.8427844 1.9952932 7.471405 2.0019531 7 2.0019531 z M 16.5 3 A 1 1 0 0 0 15.5 4 L 15.5 17.759766 C 15.237928 17.422057 14.970365 17.063575 14.716797 16.802734 A 1 1 0 0 0 13.302734 16.783203 A 1 1 0 0 0 13.283203 18.197266 C 13.380063 18.296906 13.896616 18.982182 14.408203 19.585938 C 14.663996 19.887816 14.932538 20.184324 15.234375 20.441406 C 15.536211 20.698488 15.850252 21 16.5 21 C 17.149705 21 17.463767 20.698493 17.765625 20.441406 C 18.067483 20.18432 18.335998 19.887822 18.591797 19.585938 C 19.103395 18.982169 19.619904 18.296957 19.716797 18.197266 A 1 1 0 0 0 19.697266 16.783203 A 1 1 0 0 0 18.283203 16.802734 C 18.029717 17.063544 17.762057 17.422067 17.5 17.759766 L 17.5 4 A 1 1 0 0 0 16.5 3 z M 7 4.0019531 C 7.469528 4.0019531 7.8033843 4.0052936 7.9765625 4.0253906 C 7.9901413 4.1557348 8 4.381309 8 4.7519531 L 8 5.5019531 L 7 5.5019531 C 6.5304718 5.5019531 6.1966192 5.4966635 6.0234375 5.4765625 C 6.0098662 5.3461762 6 5.1224916 6 4.7519531 C 6 4.381309 6.0098587 4.1557375 6.0234375 4.0253906 C 6.1966193 4.0052926 6.530472 4.0019531 7 4.0019531 z M 6.6933594 12.998047 C 6.3399953 12.989273 6.0483275 13.123639 5.8457031 13.244141 C 5.5755374 13.40481 5.3868791 13.586087 5.2226562 13.757812 C 4.8942108 14.10126 4.6679688 14.443359 4.6679688 14.443359 A 1 1 0 0 0 4.9433594 15.832031 A 1 1 0 0 0 6 15.777344 L 6 20 L 5.5 20 A 1 1 0 0 0 4.5 21 A 1 1 0 0 0 5.5 22 L 7 22 L 8.5 22 A 1 1 0 0 0 9.5 21 A 1 1 0 0 0 8.5 20 L 8 20 L 8 14.949219 C 8 14.661969 8.0137549 14.42861 7.953125 14.107422 C 7.92281 13.946828 7.8708613 13.748175 7.7207031 13.535156 C 7.570545 13.322137 7.3050557 13.134604 7.0664062 13.060547 C 6.935986 13.020097 6.8111474 13.000972 6.6933594 12.998047 z " fill="currentColor"/>
</svg>
