<svg xmlns="http://www.w3.org/2000/svg" width="1em" height="1em" viewBox="0 0 24 24" fill="currentColor">
  <path d="M 4.5 2 C 3.1311341 2 2 3.1311341 2 4.5 L 2 6.5 C 2 7.8688659 3.1311341 9 4.5 9 L 6.5 9 C 7.8688659 9 9 7.8688659 9 6.5 L 15 6.5 C 15 6.8206227 15.0612 7.1290543 15.173828 7.4121094 L 7.4121094 15.173828 C 7.1290544 15.0612 6.8206225 15 6.5 15 L 4.5 15 C 3.1311099 15 2 16.131145 2 17.5 L 2 19.5 C 2 20.868855 3.1311099 22 4.5 22 L 6.5 22 C 7.8688901 22 9 20.868855 9 19.5 L 18.423828 19.5 L 17.4375 20.173828 A 1 1 0 0 0 17.173828 21.5625 A 1 1 0 0 0 18.5625 21.826172 L 19.951172 20.880859 C 20.488428 20.514655 20.907227 20.236428 21.263672 19.917969 C 21.590539 19.625933 21.933016 19.198078 21.988281 18.650391 A 1 1 0 0 0 22 18.5 A 1 1 0 0 0 21.988281 18.349609 C 21.933016 17.801922 21.590539 17.374067 21.263672 17.082031 C 20.907227 16.763572 20.488428 16.485345 19.951172 16.119141 L 18.5625 15.173828 A 1 1 0 0 0 17.173828 15.4375 A 1 1 0 0 0 17.4375 16.826172 L 18.423828 17.5 L 9 17.5 C 9 17.179381 8.9388006 16.870947 8.8261719 16.587891 L 16.587891 8.8261719 C 16.870947 8.9388007 17.179381 9 17.5 9 L 19.5 9 C 20.868855 9 22 7.8688901 22 6.5 L 22 4.5 C 22 3.1311099 20.868855 2 19.5 2 L 17.5 2 C 16.131145 2 15 3.1311099 15 4.5 L 9 4.5 C 9 3.1311341 7.8688659 2 6.5 2 L 4.5 2 z M 4.5 4 L 6.5 4 C 6.7879941 4 7 4.2120059 7 4.5 L 7 6.5 C 7 6.7879941 6.7879941 7 6.5 7 L 4.5 7 C 4.2120059 7 4 6.7879941 4 6.5 L 4 4.5 C 4 4.2120059 4.2120059 4 4.5 4 z M 17.5 4 L 19.5 4 C 19.787945 4 20 4.2120301 20 4.5 L 20 6.5 C 20 6.7879699 19.787945 7 19.5 7 L 17.5 7 C 17.212055 7 17 6.7879699 17 6.5 L 17 4.5 C 17 4.2120301 17.212055 4 17.5 4 z M 4.5 17 L 6.5 17 C 6.7879699 17 7 17.212055 7 17.5 L 7 19.5 C 7 19.787945 6.7879699 20 6.5 20 L 4.5 20 C 4.2120301 20 4 19.787945 4 19.5 L 4 17.5 C 4 17.212055 4.2120301 17 4.5 17 z " fill="currentColor"/>
</svg>
