<svg xmlns="http://www.w3.org/2000/svg" width="1em" height="1em" viewBox="0 0 24 24" fill="currentColor">
  <path d="M 12 4 C 10.972265 3.9999935 10.426763 4.5739983 9.7324219 5.1875 C 9.0380805 5.8010017 8.3199377 6.5748388 7.6523438 7.34375 C 6.3171561 8.8815725 5.1953125 10.40625 5.1953125 10.40625 A 1 1 0 0 0 5.40625 11.804688 A 1 1 0 0 0 6.8046875 11.59375 C 6.8046875 11.59375 7.892597 10.11843 9.1621094 8.65625 C 9.7762792 7.9488707 10.433629 7.2464487 11 6.7382812 L 11 19 A 1 1 0 0 0 12 20 A 1 1 0 0 0 13 19 L 13 6.7382812 C 13.566371 7.2464522 14.223713 7.9488703 14.837891 8.65625 C 16.107418 10.118431 17.195313 11.59375 17.195312 11.59375 A 1 1 0 0 0 18.59375 11.804688 A 1 1 0 0 0 18.804688 10.40625 C 18.804688 10.40625 17.682854 8.8815667 16.347656 7.34375 C 15.680057 6.5748416 14.961911 5.8009994 14.267578 5.1875 C 13.573246 4.5740006 13.027742 4.0000065 12 4 z " fill="currentColor"/>
</svg>
