<svg xmlns="http://www.w3.org/2000/svg" width="1em" height="1em" viewBox="0 0 24 24" fill="currentColor">
  <path d="M 5 4 A 1 1 0 0 0 4 5 A 1 1 0 0 0 5 6 L 9 6 C 11.35703 6 13.105231 6.006 14.353516 6.1738281 C 15.6018 6.341656 16.285549 6.6293104 16.828125 7.171875 C 17.370646 7.714418 17.658351 8.3981889 17.826172 9.6464844 C 17.993993 10.89478 18 12.643 18 15 L 18 19 A 1 1 0 0 0 19 20 A 1 1 0 0 0 20 19 L 20 15 C 20 12.643 20.0069 10.855714 19.808594 9.3808594 C 19.610314 7.9060049 19.164067 6.6797295 18.242188 5.7578125 C 17.320263 4.8359071 16.093996 4.3896958 14.619141 4.1914062 C 13.144285 3.9931167 11.35703 4 9 4 L 5 4 z M 5 8 A 1 1 0 0 0 4 9 A 1 1 0 0 0 5 10 L 11 10 C 11.63848 10 12.158804 10.003517 12.5625 10.023438 L 4.2929688 18.292969 A 1 1 0 0 0 4.2929688 19.707031 A 1 1 0 0 0 5.7070312 19.707031 L 13.976562 11.4375 C 13.996485 11.841212 14 12.36154 14 13 L 14 19 A 1 1 0 0 0 15 20 A 1 1 0 0 0 16 19 L 16 13 C 16 12.0572 16.006399 11.329788 15.917969 10.671875 C 15.829511 10.013962 15.603661 9.361482 15.121094 8.8789062 C 14.638554 8.396292 13.98604 8.1704865 13.328125 8.0820312 C 12.67021 7.9935758 11.94285 8 11 8 L 5 8 z " fill="currentColor"/>
</svg>
