<svg xmlns="http://www.w3.org/2000/svg" width="1em" height="1em" viewBox="0 0 24 24" fill="currentColor">
  <path d="M 19.330078 2.0019531 C 19.097083 2.008028 18.862311 2.0236818 18.628906 2.0429688 C 17.695288 2.1201158 16.694955 2.2626602 16.486328 2.265625 A 1 1 0 0 0 15.5 3.28125 A 1 1 0 0 0 16.513672 4.265625 C 17.092753 4.2573911 17.823793 4.1288883 18.572266 4.0546875 L 4.0644531 18.478516 C 4.1395667 17.762803 4.2577383 17.068627 4.265625 16.513672 A 1 1 0 0 0 3.28125 15.5 A 1 1 0 0 0 2.265625 16.486328 C 2.262665 16.694955 2.1201158 17.695288 2.0429688 18.628906 C 2.0043947 19.095715 1.9811871 19.567095 2.0175781 20.021484 C 2.0539691 20.475874 2.0746891 20.957526 2.5585938 21.441406 C 3.04248 21.925276 3.5241319 21.946033 3.9785156 21.982422 C 4.4328993 22.018812 4.9042889 21.995601 5.3710938 21.957031 C 6.3047036 21.879891 7.3050264 21.73734 7.5136719 21.734375 A 1 1 0 0 0 8.5 20.71875 A 1 1 0 0 0 7.4863281 19.734375 C 6.9078123 19.742565 6.1774051 19.871076 5.4296875 19.945312 L 19.935547 5.5234375 C 19.860425 6.2383859 19.742254 6.9319404 19.734375 7.4863281 A 1 1 0 0 0 20.71875 8.5 A 1 1 0 0 0 21.734375 7.5136719 C 21.737375 7.3050264 21.879888 6.3047037 21.957031 5.3710938 C 21.995601 4.9042889 22.018812 4.4328993 21.982422 3.9785156 C 21.946034 3.5241319 21.925276 3.0424801 21.441406 2.5585938 C 20.957526 2.0746886 20.475874 2.0539694 20.021484 2.0175781 C 19.79429 1.9993826 19.563073 1.9958783 19.330078 2.0019531 z " fill="currentColor"/>
</svg>
