<svg xmlns="http://www.w3.org/2000/svg" width="1em" height="1em" viewBox="0 0 24 24" fill="currentColor">
  <path d="M 6.0136719 1 A 1 1 0 0 0 5.3027344 1.2832031 C 5.1524793 1.4292489 4.3411194 2.0357749 3.625 2.6425781 C 3.2669403 2.9459798 2.9191028 3.2637236 2.6230469 3.6113281 C 2.3469902 3.9354511 2.0474834 4.2706636 2.0078125 4.8691406 A 1 1 0 0 0 2 5 A 1 1 0 0 0 2.0078125 5.1308594 C 2.0474834 5.7293364 2.3469902 6.0645489 2.6230469 6.3886719 C 2.9191028 6.7362764 3.2669403 7.0540202 3.625 7.3574219 C 4.3411194 7.9642251 5.1524793 8.5707511 5.3027344 8.7167969 A 1 1 0 0 0 6.7167969 8.6972656 A 1 1 0 0 0 6.6972656 7.2832031 C 6.289747 6.8871006 5.6954663 6.4665407 5.1230469 6 C 7.8643896 6.0042898 9.9630107 6.0361422 11.542969 6.2558594 C 13.332197 6.5046782 14.391712 6.9488201 15.230469 7.8164062 C 16.069271 8.6839942 16.509927 9.8021164 16.751953 11.664062 C 16.993979 13.526007 17 16.067319 17 19.480469 L 17 19.876953 C 16.533192 19.304279 16.113084 18.710444 15.716797 18.302734 A 1 1 0 0 0 15.013672 18 A 1 1 0 0 0 14.302734 18.283203 A 1 1 0 0 0 14.283203 19.697266 C 14.429214 19.847485 15.035772 20.656921 15.642578 21.373047 C 15.945981 21.73111 16.263718 22.080893 16.611328 22.376953 C 16.958938 22.673013 17.315253 23 18 23 C 18.684747 23 19.041061 22.673013 19.388672 22.376953 C 19.736282 22.080893 20.054019 21.73111 20.357422 21.373047 C 20.964228 20.656921 21.570786 19.847485 21.716797 19.697266 A 1 1 0 0 0 21.697266 18.283203 A 1 1 0 0 0 20.283203 18.302734 C 19.886917 18.710443 19.466808 19.30428 19 19.876953 L 19 19.480469 C 19 16.067319 19.0069 13.487629 18.736328 11.40625 C 18.465779 9.3248706 17.879466 7.6788534 16.667969 6.4257812 C 15.456525 5.1726975 13.841506 4.5567393 11.818359 4.2753906 C 10.031186 4.0268575 7.8762288 4.0022965 5.1230469 4 C 5.6958016 3.5331046 6.2894888 3.1131503 6.6972656 2.7167969 A 1 1 0 0 0 6.7167969 1.3027344 A 1 1 0 0 0 6.0136719 1 z " fill="currentColor"/>
</svg>
