<svg xmlns="http://www.w3.org/2000/svg" width="1em" height="1em" viewBox="0 0 24 24" fill="currentColor">
  <path d="M 7.0195312 3 A 1 1 0 0 0 6.40625 3.1953125 C 6.40625 3.1953125 5.631561 3.7651974 4.84375 4.4492188 C 4.4498445 4.7912294 4.0509965 5.1591295 3.71875 5.5351562 C 3.3865035 5.911183 3.0000105 6.1699037 3 7 C 2.9999895 7.8301111 3.3864995 8.0888174 3.71875 8.4648438 C 4.0510005 8.84087 4.4498396 9.2087756 4.84375 9.5507812 C 5.6315708 10.234792 6.40625 10.804687 6.40625 10.804688 A 1 1 0 0 0 7.8046875 10.59375 A 1 1 0 0 0 7.59375 9.1953125 C 7.59375 9.1953125 6.8684317 8.6593545 6.15625 8.0410156 C 6.1405483 8.0273829 6.1250476 8.0137084 6.109375 8 L 20 8 A 1 1 0 0 0 21 7 A 1 1 0 0 0 20 6 L 6.109375 6 C 6.1250472 5.9862917 6.1405487 5.9726172 6.15625 5.9589844 C 6.8684265 5.3406332 7.59375 4.8046875 7.59375 4.8046875 A 1 1 0 0 0 7.8046875 3.40625 A 1 1 0 0 0 7.0195312 3 z M 16.980469 13 A 1 1 0 0 0 16.849609 13.011719 A 1 1 0 0 0 16.195312 13.40625 A 1 1 0 0 0 16.40625 14.804688 C 16.40625 14.804688 17.13159 15.340631 17.84375 15.958984 C 17.859451 15.972617 17.874953 15.986292 17.890625 16 L 4 16 A 1 1 0 0 0 3 17 A 1 1 0 0 0 4 18 L 17.890625 18 C 17.874952 18.013709 17.859452 18.027383 17.84375 18.041016 C 17.131571 18.659353 16.40625 19.195313 16.40625 19.195312 A 1 1 0 0 0 16.195312 20.59375 A 1 1 0 0 0 17.59375 20.804688 C 17.59375 20.804688 18.368429 20.234794 19.15625 19.550781 C 19.550161 19.208775 19.948998 18.840875 20.28125 18.464844 C 20.594161 18.110702 20.951215 17.85217 20.992188 17.130859 A 1 1 0 0 0 21 17 C 21 16.952388 20.994647 16.913123 20.992188 16.869141 A 1 1 0 0 0 20.992188 16.867188 C 20.951216 16.145845 20.594147 15.889289 20.28125 15.535156 C 19.949014 15.159135 19.550145 14.791229 19.15625 14.449219 C 18.36846 13.765197 17.59375 13.195313 17.59375 13.195312 A 1 1 0 0 0 16.980469 13 z " fill="currentColor"/>
</svg>
