<svg xmlns="http://www.w3.org/2000/svg" width="1em" height="1em" viewBox="0 0 24 24" fill="currentColor">
  <path d="M 11.519531 5 A 1 1 0 0 0 10.90625 5.1953125 C 10.90625 5.1953125 9.3815725 6.3171561 7.84375 7.6523438 C 7.0748388 8.3199376 6.3010017 9.0380805 5.6875 9.7324219 C 5.0739983 10.426763 4.4999935 10.972265 4.5 12 C 4.5000065 13.027742 5.0740006 13.573246 5.6875 14.267578 C 6.3009994 14.961911 7.0748416 15.680057 7.84375 16.347656 C 9.3815667 17.682854 10.90625 18.804688 10.90625 18.804688 A 1 1 0 0 0 12.304688 18.59375 A 1 1 0 0 0 12.09375 17.195312 C 12.09375 17.195312 10.618431 16.107418 9.15625 14.837891 C 8.4251596 14.203127 7.6990015 13.522255 7.1875 12.943359 C 6.838243 12.548086 6.6457874 12.142211 6.5585938 12 C 6.6457874 11.857791 6.8382431 11.451918 7.1875 11.056641 C 7.6989973 10.477745 8.42516 9.7968656 9.15625 9.1621094 C 10.61843 7.892597 12.09375 6.8046875 12.09375 6.8046875 A 1 1 0 0 0 12.304688 5.40625 A 1 1 0 0 0 11.519531 5 z M 18.519531 5 A 1 1 0 0 0 17.90625 5.1953125 C 17.90625 5.1953125 16.381571 6.3171564 14.84375 7.6523438 C 14.074839 8.3199376 13.301002 9.0380809 12.6875 9.7324219 C 12.073998 10.426763 11.5 10.972269 11.5 12 C 11.5 13.027746 12.074001 13.573245 12.6875 14.267578 C 13.300999 14.961911 14.074841 15.680057 14.84375 16.347656 C 16.381568 17.682854 17.90625 18.804688 17.90625 18.804688 A 1 1 0 0 0 19.304688 18.59375 A 1 1 0 0 0 19.09375 17.195312 C 19.09375 17.195312 17.618432 16.107418 16.15625 14.837891 C 15.425159 14.203127 14.699001 13.522255 14.1875 12.943359 C 13.838242 12.548084 13.645787 12.142209 13.558594 12 C 13.645788 11.85779 13.838244 11.451917 14.1875 11.056641 C 14.698998 10.477744 15.425161 9.7968656 16.15625 9.1621094 C 17.618429 7.8925969 19.09375 6.8046875 19.09375 6.8046875 A 1 1 0 0 0 19.304688 5.40625 A 1 1 0 0 0 18.519531 5 z " fill="currentColor"/>
</svg>
