<svg xmlns="http://www.w3.org/2000/svg" width="1em" height="1em" viewBox="0 0 24 24" fill="currentColor">
  <path d="M 10.5 3 C 7.4743105 3 5 5.4742792 5 8.5 L 5 13 A 1 1 0 0 0 6 14 A 1 1 0 0 0 7 13 L 7 8.5 C 7 6.5551608 8.5552095 5 10.5 5 C 12.444864 5 14 6.5551554 14 8.5 L 14 17.890625 C 13.986291 17.874952 13.972617 17.859452 13.958984 17.84375 C 13.340647 17.131571 12.804687 16.40625 12.804688 16.40625 A 1 1 0 0 0 11.40625 16.195312 A 1 1 0 0 0 11.195312 17.59375 C 11.195312 17.59375 11.765206 18.368429 12.449219 19.15625 C 12.791225 19.550161 13.159125 19.948998 13.535156 20.28125 C 13.8893 20.594162 14.145871 20.951218 14.867188 20.992188 C 14.867841 20.992225 14.868487 20.992151 14.869141 20.992188 A 1 1 0 0 0 15 21 A 1 1 0 0 0 15.132812 20.992188 C 15.854129 20.951218 16.1107 20.594162 16.464844 20.28125 C 16.840875 19.948998 17.208775 19.550161 17.550781 19.15625 C 18.234794 18.368429 18.804688 17.59375 18.804688 17.59375 A 1 1 0 0 0 18.59375 16.195312 A 1 1 0 0 0 17.195312 16.40625 C 17.195312 16.40625 16.659353 17.131571 16.041016 17.84375 C 16.027383 17.859452 16.013709 17.874952 16 17.890625 L 16 8.5 C 16 5.4742846 13.525736 3 10.5 3 z " fill="currentColor"/>
</svg>
