<svg xmlns="http://www.w3.org/2000/svg" width="1em" height="1em" viewBox="0 0 24 24" fill="currentColor">
  <path d="M 12 1 C 11.315261 1 10.958936 1.3269892 10.611328 1.6230469 C 10.26372 1.9191045 9.9459785 2.2669394 9.6425781 2.625 C 9.0357773 3.3411212 8.429243 4.1524854 8.2832031 4.3027344 A 1 1 0 0 0 8.3027344 5.7167969 A 1 1 0 0 0 9.7167969 5.6972656 C 10.113092 5.2895483 10.533198 4.695715 11 4.1230469 L 11 19.876953 C 10.533205 19.304283 10.113131 18.710465 9.7167969 18.302734 A 1 1 0 0 0 9.0136719 18 A 1 1 0 0 0 8.3027344 18.283203 A 1 1 0 0 0 8.2832031 19.697266 C 8.4291999 19.84746 9.0357793 20.656923 9.6425781 21.373047 C 9.9459775 21.731109 10.263721 22.080892 10.611328 22.376953 C 10.958936 22.673014 11.315253 23 12 23 C 12.684747 23 13.041061 22.673013 13.388672 22.376953 C 13.736282 22.080893 14.054019 21.73111 14.357422 21.373047 C 14.964228 20.656921 15.570786 19.847485 15.716797 19.697266 A 1 1 0 0 0 15.697266 18.283203 A 1 1 0 0 0 14.283203 18.302734 C 13.886917 18.710443 13.466808 19.30428 13 19.876953 L 13 4.1230469 C 13.466814 4.69572 13.886955 5.2895692 14.283203 5.6972656 A 1 1 0 0 0 15.697266 5.7167969 A 1 1 0 0 0 15.716797 4.3027344 C 15.570741 4.1524608 14.96423 3.3411232 14.357422 2.625 C 14.054018 2.2669384 13.736283 1.9191037 13.388672 1.6230469 C 13.041061 1.3269901 12.684739 1 12 1 z " fill="currentColor"/>
</svg>
