<svg xmlns="http://www.w3.org/2000/svg" width="1em" height="1em" viewBox="0 0 24 24" fill="currentColor">
  <path d="M 8 3 C 7.1040242 3.0000085 6.7497087 3.4490043 6.2675781 3.875 C 5.7854475 4.3009957 5.3001514 4.8248456 4.8496094 5.34375 C 3.9485254 6.3815587 3.1953125 7.40625 3.1953125 7.40625 A 1 1 0 0 0 3.40625 8.8046875 A 1 1 0 0 0 4.8046875 8.59375 C 4.8046875 8.59375 5.5239615 7.6184238 6.359375 6.65625 C 6.5699802 6.4136889 6.7882916 6.1723577 7 5.9511719 L 7 20 A 1 1 0 0 0 8 21 A 1 1 0 0 0 9 20 L 9 5.9511719 C 9.2117105 6.1723574 9.430024 6.4136868 9.640625 6.65625 C 10.476021 7.6184318 11.195312 8.59375 11.195312 8.59375 A 1 1 0 0 0 12.59375 8.8046875 A 1 1 0 0 0 12.804688 7.40625 C 12.804688 7.40625 12.051459 6.3815707 11.150391 5.34375 C 10.699856 4.8248396 10.214549 4.3010004 9.7324219 3.875 C 9.2502943 3.4489996 8.8959891 2.9999915 8 3 z M 16 3 A 1 1 0 0 0 15 4 A 1 1 0 0 0 16 5 L 18.365234 5 L 16.097656 7.71875 C 15.801997 8.0735406 15.565542 8.3455097 15.365234 8.671875 C 15.265081 8.8350576 15.167095 9.0177879 15.113281 9.2714844 C 15.059471 9.5251808 15.082334 9.8662076 15.208984 10.136719 C 15.33571 10.407192 15.583141 10.642589 15.8125 10.763672 C 16.041859 10.884755 16.246066 10.925601 16.435547 10.953125 C 16.814512 11.008173 17.172966 11 17.634766 11 L 20 11 A 1 1 0 0 0 21 10 A 1 1 0 0 0 20 9 L 17.634766 9 L 19.902344 6.28125 C 20.198003 5.9264594 20.434458 5.6544903 20.634766 5.328125 C 20.734919 5.1649424 20.832905 4.9822121 20.886719 4.7285156 C 20.940529 4.4748192 20.917666 4.1337922 20.791016 3.8632812 C 20.664287 3.592808 20.416859 3.3574109 20.1875 3.2363281 C 19.958141 3.1152454 19.753934 3.074399 19.564453 3.046875 C 19.185491 2.991827 18.827034 3 18.365234 3 L 16 3 z M 18 13 C 16.354993 13 15 14.354993 15 16 L 15 20 A 1 1 0 0 0 16 21 A 1 1 0 0 0 17 20 L 17 19 L 19 19 L 19 20 A 1 1 0 0 0 20 21 A 1 1 0 0 0 21 20 L 21 16 C 21 14.354993 19.645007 13 18 13 z M 18 15 C 18.564193 15 19 15.435807 19 16 L 19 17 L 17 17 L 17 16 C 17 15.435807 17.435807 15 18 15 z " fill="currentColor"/>
</svg>
