<svg xmlns="http://www.w3.org/2000/svg" width="1em" height="1em" viewBox="0 0 24 24" fill="currentColor">
  <path d="M 8 3 C 7.1040242 3.0000085 6.7497087 3.4490043 6.2675781 3.875 C 5.7854475 4.3009957 5.3001514 4.8248456 4.8496094 5.34375 C 3.9485254 6.3815587 3.1953125 7.40625 3.1953125 7.40625 A 1 1 0 0 0 3.40625 8.8046875 A 1 1 0 0 0 4.8046875 8.59375 C 4.8046875 8.59375 5.5239615 7.6184238 6.359375 6.65625 C 6.5699802 6.4136889 6.7882916 6.1723577 7 5.9511719 L 7 20 A 1 1 0 0 0 8 21 A 1 1 0 0 0 9 20 L 9 5.9511719 C 9.2117105 6.1723574 9.430024 6.4136868 9.640625 6.65625 C 10.476021 7.6184318 11.195312 8.59375 11.195312 8.59375 A 1 1 0 0 0 12.59375 8.8046875 A 1 1 0 0 0 12.804688 7.40625 C 12.804688 7.40625 12.051459 6.3815707 11.150391 5.34375 C 10.699856 4.8248396 10.214549 4.3010004 9.7324219 3.875 C 9.2502943 3.4489996 8.8959891 2.9999915 8 3 z M 18 3 C 16.354975 3 15 4.3550085 15 6 L 15 8 C 15 9.6449915 16.354975 11 18 11 C 19.645025 11 21 9.6449915 21 8 L 21 6 C 21 4.3550085 19.645025 3 18 3 z M 18 5 C 18.564175 5 19 5.4358515 19 6 L 19 8 C 19 8.5641485 18.564175 9 18 9 C 17.435825 9 17 8.5641485 17 8 L 17 6 C 17 5.4358515 17.435825 5 18 5 z M 17.580078 13.011719 C 17.253265 13.014779 16.946039 13.1233 16.742188 13.234375 C 16.416027 13.41209 16.147887 13.624212 15.798828 13.886719 L 15.398438 14.1875 A 1 1 0 0 0 15.201172 15.587891 A 1 1 0 0 0 16.601562 15.785156 L 17 15.486328 L 17 15.488281 L 17 19 L 16 19 A 1 1 0 0 0 15 20 A 1 1 0 0 0 16 21 L 20 21 A 1 1 0 0 0 21 20 A 1 1 0 0 0 20 19 L 19 19 L 19 15.488281 C 19 15.050731 19.008898 14.70925 18.955078 14.341797 C 18.901298 13.974344 18.687115 13.400757 18.171875 13.142578 C 17.978704 13.045713 17.776166 13.009882 17.580078 13.011719 z " fill="currentColor"/>
</svg>
