<svg xmlns="http://www.w3.org/2000/svg" width="1em" height="1em" viewBox="0 0 24 24" fill="currentColor">
  <path d="M 19.511719 2.0019531 C 19.301818 2.0076449 19.091805 2.0217935 18.882812 2.0390625 C 18.046844 2.1081395 17.14807 2.2340289 16.986328 2.2363281 A 1 1 0 0 0 16 3.25 A 1 1 0 0 0 17.013672 4.2363281 C 17.453944 4.2300701 17.967239 4.1519353 18.501953 4.0878906 L 14.291016 8.3007812 A 1 1 0 0 0 14.291016 9.7148438 A 1 1 0 0 0 15.705078 9.7148438 L 19.910156 5.5097656 C 19.846366 6.0402815 19.769845 6.549155 19.763672 6.9863281 A 1 1 0 0 0 20.75 8 A 1 1 0 0 0 21.763672 7.0136719 C 21.765972 6.8520541 21.891857 5.9531452 21.960938 5.1171875 C 21.995477 4.6992087 22.017565 4.2758479 21.984375 3.8613281 C 21.951184 3.4468083 21.938098 2.9967274 21.470703 2.5292969 C 21.003295 2.061942 20.553201 2.0488234 20.138672 2.015625 C 19.931407 1.999026 19.721619 1.9962614 19.511719 2.0019531 z M 8 7 A 1 1 0 0 0 7.2929688 7.2929688 A 1 1 0 0 0 7.2929688 8.7070312 L 15.292969 16.707031 A 1 1 0 0 0 16.707031 16.707031 A 1 1 0 0 0 16.707031 15.292969 L 8.7070312 7.2929688 A 1 1 0 0 0 8 7 z M 9.0117188 13.988281 A 1 1 0 0 0 8.3046875 14.28125 L 4.0878906 18.498047 C 4.1518234 17.965101 4.2300887 17.452595 4.2363281 17.013672 A 1 1 0 0 0 3.25 16 A 1 1 0 0 0 2.2363281 16.986328 C 2.2340281 17.14807 2.1081395 18.046844 2.0390625 18.882812 C 2.0045235 19.300798 1.982426 19.724143 2.015625 20.138672 C 2.048823 20.553201 2.061942 21.003295 2.5292969 21.470703 C 2.9967274 21.938098 3.4468083 21.951186 3.8613281 21.984375 C 4.2758479 22.017565 4.6992087 21.995477 5.1171875 21.960938 C 5.9531452 21.891858 6.8520541 21.765954 7.0136719 21.763672 A 1 1 0 0 0 8 20.75 A 1 1 0 0 0 6.9863281 19.763672 C 6.5478059 19.769852 6.0361902 19.8482 5.5039062 19.912109 L 9.71875 15.695312 A 1 1 0 0 0 9.71875 14.28125 A 1 1 0 0 0 9.0117188 13.988281 z " fill="currentColor"/>
</svg>
