<svg xmlns="http://www.w3.org/2000/svg" width="1em" height="1em" viewBox="0 0 24 24" fill="currentColor">
  <path d="M 15.019531 5 A 1 1 0 0 0 14.40625 5.1953125 C 14.40625 5.1953125 12.881567 6.3171462 11.34375 7.6523438 C 10.574842 8.3199426 9.8009994 9.0380894 9.1875 9.7324219 C 8.5740006 10.426754 8.0000065 10.972258 8 12 C 7.9999935 13.027735 8.5739983 13.573237 9.1875 14.267578 C 9.8010017 14.96192 10.574839 15.680062 11.34375 16.347656 C 12.881572 17.682844 14.40625 18.804688 14.40625 18.804688 A 1 1 0 0 0 15.804688 18.59375 A 1 1 0 0 0 15.59375 17.195312 C 15.59375 17.195312 14.11843 16.107403 12.65625 14.837891 C 11.92516 14.203134 11.198997 13.522255 10.6875 12.943359 C 10.338243 12.548082 10.145787 12.142208 10.058594 12 C 10.145787 11.857789 10.338243 11.451914 10.6875 11.056641 C 11.199002 10.477745 11.92516 9.796873 12.65625 9.1621094 C 14.118431 7.892582 15.59375 6.8046875 15.59375 6.8046875 A 1 1 0 0 0 15.804688 5.40625 A 1 1 0 0 0 15.019531 5 z " fill="currentColor"/>
</svg>
