<svg xmlns="http://www.w3.org/2000/svg" width="1em" height="1em" viewBox="0 0 24 24" fill="currentColor">
  <path d="M 12.583984 5.5019531 C 10.683104 5.515828 8.921875 5.6542969 8.921875 5.6542969 A 1 1 0 0 0 8.0039062 6.7285156 A 1 1 0 0 0 9.078125 7.6464844 C 9.078125 7.6464844 10.785112 7.5151832 12.597656 7.5019531 C 13.445864 7.4957631 14.295641 7.5241779 14.994141 7.5917969 L 5.7929688 16.792969 A 1 1 0 0 0 5.7929688 18.207031 A 1 1 0 0 0 7.2070312 18.207031 L 16.408203 9.0058594 C 16.475813 9.7043551 16.504257 10.554135 16.498047 11.402344 C 16.484797 13.214889 16.353516 14.921875 16.353516 14.921875 A 1 1 0 0 0 17.271484 15.996094 A 1 1 0 0 0 18.345703 15.078125 C 18.345703 15.078125 18.484149 13.316895 18.498047 11.416016 C 18.505 10.465576 18.482615 9.4806296 18.388672 8.625 C 18.3417 8.1971852 18.278961 7.8019805 18.177734 7.4375 C 18.076508 7.0730195 17.970762 6.724683 17.623047 6.3769531 C 17.275324 6.0292514 16.926984 5.9234987 16.5625 5.8222656 C 16.198016 5.7210325 15.802818 5.6583064 15.375 5.6113281 C 14.519364 5.5173715 13.534425 5.4950157 12.583984 5.5019531 z " fill="currentColor"/>
</svg>
