<svg xmlns="http://www.w3.org/2000/svg" width="1em" height="1em" viewBox="0 0 24 24" fill="currentColor">
  <path d="M 8.9648438 7.0117188 C 8.8755225 7.0166036 8.7871263 7.027174 8.6992188 7.0429688 C 8.3475885 7.1061479 8.0100106 7.2489744 7.71875 7.4179688 C 7.1362288 7.7559577 6.5446142 8.2348222 5.7617188 8.8515625 L 5.7617188 8.8496094 L 4.7949219 9.6113281 C 4.3235276 9.9826854 3.9519321 10.267378 3.6308594 10.603516 C 3.3097866 10.939653 3 11.434099 3 12 C 3 12.565901 3.3097866 13.060347 3.6308594 13.396484 C 3.9519321 13.732622 4.3235276 14.017315 4.7949219 14.388672 L 5.7617188 15.150391 C 6.544624 15.767145 7.1362236 16.244048 7.71875 16.582031 C 8.3012764 16.920015 9.0654638 17.159376 9.7695312 16.847656 C 10.121578 16.691783 10.429327 16.39158 10.605469 16.076172 C 10.78161 15.760764 10.857872 15.442802 10.908203 15.115234 C 11.0004 14.515191 11.000599 13.848164 11 13 L 20 13 A 1 1 0 0 0 21 12 A 1 1 0 0 0 20 11 L 11 11 C 11.000603 10.151839 11.000435 9.4848067 10.908203 8.8847656 C 10.857875 8.5571999 10.781608 8.2392339 10.605469 7.9238281 C 10.42933 7.6084224 10.121567 7.3082229 9.7695312 7.1523438 C 9.5055006 7.0354424 9.2328076 6.9970643 8.9648438 7.0117188 z M 8.8964844 9.0449219 C 8.9085743 9.0807886 8.917528 9.0956519 8.9316406 9.1875 C 8.989811 9.566086 9 10.274886 9 11.238281 L 9 12 L 9 12.761719 C 9 13.725119 8.9898106 14.43391 8.9316406 14.8125 C 8.9175288 14.904342 8.908573 14.919217 8.8964844 14.955078 C 8.8724398 14.939169 8.8222385 14.909341 8.7226562 14.851562 C 8.3634427 14.643145 7.7828948 14.194871 7 13.578125 L 6.0332031 12.816406 C 5.5618274 12.445064 5.2264816 12.172987 5.0761719 12.015625 C 5.0709427 12.01015 5.0652453 12.004947 5.0605469 12 C 5.0652453 11.995053 5.0709427 11.98985 5.0761719 11.984375 C 5.2264816 11.827013 5.5618274 11.554936 6.0332031 11.183594 L 7 10.421875 C 7.7828946 9.8051353 8.3634399 9.356861 8.7226562 9.1484375 C 8.822231 9.0906625 8.8724363 9.0608366 8.8964844 9.0449219 z " fill="currentColor"/>
</svg>
