<svg xmlns="http://www.w3.org/2000/svg" width="1em" height="1em" viewBox="0 0 24 24" fill="currentColor">
  <path d="M 12.998047 1 C 12.639582 1 12.226056 0.99804563 11.832031 1.0253906 C 11.438006 1.0527356 11.116473 0.98552232 10.568359 1.3691406 C 10.263037 1.582832 10.052053 1.894115 9.9199219 2.1699219 C 9.7877909 2.4457287 9.6992799 2.7128557 9.5859375 3.0429688 C 9.3076467 3.848745 9.1861398 4.2712014 8.8476562 4.4824219 L 8.8457031 4.484375 L 8.5800781 4.6328125 L 8.578125 4.6328125 C 8.1405327 4.849776 7.5934415 4.6524872 6.6269531 4.3886719 L 6.6289062 4.390625 C 6.0616223 4.2346232 5.5539738 4.1921111 5.2324219 4.1796875 C 4.6813768 4.1584393 4.1875116 4.4610811 3.9277344 4.8925781 L 2.2832031 7.625 C 2.0249294 8.0540112 1.9862917 8.6283556 2.2617188 9.1054688 C 2.4127095 9.3670582 2.6632136 9.7617136 3.0292969 10.15625 C 3.4079175 10.566319 3.7552595 10.899841 3.96875 11.193359 C 4.1826614 11.487456 4.2714844 11.693909 4.2714844 12.003906 C 4.2714844 12.314159 4.1826244 12.520377 3.96875 12.814453 C 3.7548753 13.108529 3.4068787 13.442348 3.0273438 13.853516 C 2.6625317 14.247252 2.4123417 14.641436 2.2617188 14.902344 C 1.9863963 15.379407 2.0249191 15.953785 2.2832031 16.382812 L 3.9277344 19.115234 C 4.1875755 19.546807 4.6814334 19.847449 5.2324219 19.826172 C 5.554349 19.813802 6.0616557 19.773222 6.6289062 19.617188 L 6.6269531 19.619141 C 7.5934846 19.355261 8.1404307 19.157966 8.578125 19.375 L 8.5800781 19.375 L 8.8476562 19.525391 C 9.1868016 19.737102 9.3086137 20.158432 9.5878906 20.966797 C 9.7007899 21.295707 9.7881379 21.562823 9.9199219 21.837891 C 10.052062 22.113703 10.263029 22.425008 10.568359 22.638672 C 11.121867 23.026209 11.444418 22.953492 11.837891 22.978516 C 12.231367 23.003539 12.643274 23 12.998047 23 A 1 1 0 0 0 13.998047 22 A 1 1 0 0 0 12.998047 21 C 12.63602 21 12.252621 21.000725 11.964844 20.982422 C 11.866508 20.976169 11.772226 20.953399 11.703125 20.933594 C 11.653283 20.817903 11.578444 20.605514 11.478516 20.314453 A 1.0001 1.0001 0 0 0 11.476562 20.3125 C 11.240692 19.629777 10.995896 18.503246 9.9023438 17.824219 A 1.0001 1.0001 0 0 0 9.8613281 17.800781 L 9.5136719 17.607422 A 1.0001 1.0001 0 0 0 9.4726562 17.583984 C 8.1450059 16.922853 6.8947156 17.472947 6.1015625 17.689453 A 1.0001 1.0001 0 0 0 6.0996094 17.689453 C 5.8631839 17.754483 5.6629562 17.763543 5.4589844 17.783203 L 4.1757812 15.652344 C 4.2740253 15.504807 4.3578815 15.361865 4.4960938 15.212891 A 1.0001 1.0001 0 0 0 4.4980469 15.210938 C 4.8128419 14.869905 5.2188447 14.494984 5.5859375 13.990234 C 5.9530303 13.485485 6.2714844 12.803554 6.2714844 12.003906 C 6.2714844 11.204303 5.9530261 10.522271 5.5859375 10.017578 C 5.2188521 9.5129321 4.812754 9.1378576 4.4980469 8.796875 A 1.0001 1.0001 0 0 0 4.4960938 8.7949219 C 4.3578757 8.6459615 4.2740026 8.5029663 4.1757812 8.3554688 L 5.4589844 6.2246094 C 5.6630531 6.2442814 5.8632087 6.2533484 6.0996094 6.3183594 A 1.0001 1.0001 0 0 0 6.1015625 6.3183594 C 6.8945847 6.534824 8.1450169 7.0848954 9.4726562 6.4238281 A 1.0001 1.0001 0 0 0 9.5136719 6.4003906 L 9.8613281 6.2070312 A 1.0001 1.0001 0 0 0 9.9003906 6.1835938 C 10.994135 5.5046976 11.240672 4.3781196 11.476562 3.6953125 A 1.0001 1.0001 0 0 0 11.478516 3.6933594 C 11.578895 3.4010008 11.655238 3.187621 11.705078 3.0722656 C 11.774953 3.051996 11.870131 3.0284638 11.970703 3.0214844 C 12.257869 3.0015487 12.639712 3 12.998047 3 A 1 1 0 0 0 13.998047 2 A 1 1 0 0 0 12.998047 1 z M 20.248047 3 C 19.293383 3 18.498047 3.7953234 18.498047 4.75 C 18.498047 4.841584 18.583576 4.898239 18.597656 4.9863281 L 17.583984 6 L 15.998047 6 A 1 1 0 0 0 14.998047 7 A 1 1 0 0 0 15.998047 8 L 17.998047 8 A 1.0001 1.0001 0 0 0 18.705078 7.7070312 L 20.011719 6.4003906 C 20.099807 6.4144677 20.156465 6.5 20.248047 6.5 C 21.20271 6.5 21.998047 5.7046766 21.998047 4.75 C 21.998047 3.7953234 21.20271 3 20.248047 3 z M 12.998047 7.5 C 10.524599 7.5 8.4980469 9.5265792 8.4980469 12 C 8.4980469 14.473421 10.524609 16.5 12.998047 16.5 A 1 1 0 0 0 13.998047 15.5 A 1 1 0 0 0 12.998047 14.5 C 11.605485 14.5 10.498047 13.392579 10.498047 12 C 10.498047 10.607421 11.605495 9.5 12.998047 9.5 A 1 1 0 0 0 13.998047 8.5 A 1 1 0 0 0 12.998047 7.5 z M 20.248047 10.25 C 19.680679 10.25 19.239276 10.571686 18.917969 11 L 15.998047 11 A 1 1 0 0 0 14.998047 12 A 1 1 0 0 0 15.998047 13 L 18.917969 13 C 19.239276 13.428314 19.680679 13.75 20.248047 13.75 C 21.202727 13.75 21.998047 12.95468 21.998047 12 C 21.998047 11.04532 21.202727 10.25 20.248047 10.25 z M 15.998047 16 A 1 1 0 0 0 14.998047 17 A 1 1 0 0 0 15.998047 18 L 17.583984 18 L 18.597656 19.013672 C 18.583576 19.101762 18.498047 19.158416 18.498047 19.25 C 18.498047 20.20468 19.293367 21 20.248047 21 C 21.202727 21 21.998047 20.20468 21.998047 19.25 C 21.998047 18.29532 21.202727 17.5 20.248047 17.5 C 20.156467 17.5 20.099808 17.585529 20.011719 17.599609 L 18.705078 16.292969 A 1.0001 1.0001 0 0 0 17.998047 16 L 15.998047 16 z " fill="currentColor"/>
</svg>
