<svg xmlns="http://www.w3.org/2000/svg" width="1em" height="1em" viewBox="0 0 24 24" fill="currentColor">
  <path d="M 18.5 1.5 C 17.993167 1.5 17.442573 1.830417 17.232422 2.3632812 L 16.890625 3.2285156 C 16.770896 3.5319735 16.531824 3.7709951 16.228516 3.890625 L 15.363281 4.2324219 C 14.83047 4.4426036 14.5 4.9932067 14.5 5.5 C 14.5 6.0067933 14.83047 6.5573964 15.363281 6.7675781 L 16.228516 7.109375 C 16.531824 7.2290049 16.770896 7.4680265 16.890625 7.7714844 L 17.232422 8.6367188 C 17.442573 9.1695829 17.993167 9.5 18.5 9.5 C 19.006833 9.5 19.557427 9.1695829 19.767578 8.6367188 L 20.109375 7.7714844 C 20.229104 7.4680265 20.468176 7.2290049 20.771484 7.109375 L 21.636719 6.7675781 C 22.16953 6.5573964 22.5 6.0067933 22.5 5.5 C 22.5 4.9932067 22.16953 4.4426036 21.636719 4.2324219 L 20.771484 3.890625 C 20.468176 3.7709951 20.229104 3.5319735 20.109375 3.2285156 L 19.767578 2.3632812 C 19.557427 1.8304169 19.006833 1.5 18.5 1.5 z M 18.5 4.3476562 C 18.779285 4.8323161 19.167659 5.220745 19.652344 5.5 C 19.167659 5.779255 18.779285 6.167684 18.5 6.6523438 C 18.220715 6.1676841 17.832341 5.779255 17.347656 5.5 C 17.832341 5.220745 18.220715 4.8323161 18.5 4.3476562 z M 10.5 4.5 C 9.7623682 4.5 8.9806396 4.9582465 8.6699219 5.7460938 L 7.7597656 8.0546875 C 7.2715967 9.2924546 6.2924362 10.271637 5.0546875 10.759766 L 2.7460938 11.669922 C 1.9582657 11.980651 1.5 12.762368 1.5 13.5 C 1.5 14.237632 1.9582658 15.019349 2.7460938 15.330078 L 5.0546875 16.240234 C 6.2924541 16.72837 7.2715963 17.707504 7.7597656 18.945312 L 8.6699219 21.253906 C 8.9806543 22.041742 9.7623908 22.5 10.5 22.5 C 11.237609 22.5 12.01933 22.041733 12.330078 21.253906 L 13.240234 18.945312 C 13.72837 17.707504 14.707502 16.72837 15.945312 16.240234 L 18.253906 15.330078 C 19.041723 15.019334 19.5 14.237609 19.5 13.5 C 19.5 12.762391 19.041723 11.980666 18.253906 11.669922 L 15.945312 10.759766 C 14.70752 10.271637 13.72837 9.2924541 13.240234 8.0546875 L 12.330078 5.7460938 C 12.019345 4.9582559 11.237632 4.5 10.5 4.5 z M 10.5 6.5585938 L 11.380859 8.7890625 C 12.071924 10.541396 13.458528 11.92807 15.210938 12.619141 L 17.441406 13.5 L 15.210938 14.380859 C 13.458547 15.071923 12.071923 16.458548 11.380859 18.210938 L 10.5 20.441406 L 9.6191406 18.210938 C 8.92803 16.458547 7.5413959 15.071924 5.7890625 14.380859 L 3.5585938 13.5 L 5.7890625 12.619141 C 7.5414138 11.928069 8.9280296 10.541395 9.6191406 8.7890625 L 10.5 6.5585938 z " fill="currentColor"/>
</svg>
