<svg xmlns="http://www.w3.org/2000/svg" width="1em" height="1em" viewBox="0 0 24 24" fill="currentColor">
  <path d="M 10 2 C 8.11438 2 6.6767422 1.9918878 5.4609375 2.1757812 C 4.2451328 2.3596746 3.1866008 2.7961825 2.4238281 3.6542969 C 1.6610597 4.5124138 1.3128449 5.6166837 1.1542969 6.9433594 C 1.0883719 7.4949971 1.0509373 8.0959944 1.0292969 8.7617188 A 1 1 0 0 0 1 9 A 1 1 0 0 0 1.0175781 9.1855469 C 0.99910481 10.015619 1 10.944496 1 12 C 1 14.1213 0.99574897 15.729954 1.1542969 17.056641 C 1.3128446 18.383327 1.6610485 19.487587 2.4238281 20.345703 C 3.1866026 21.203807 4.2451346 21.640328 5.4609375 21.824219 C 6.6767404 22.008109 8.11438 22 10 22 L 14 22 C 14.684532 22 15.309441 22.001578 15.886719 21.994141 A 1 1 0 0 0 16 22 A 1 1 0 0 0 16.142578 21.990234 C 17.046311 21.973868 17.830675 21.931357 18.539062 21.824219 C 19.754873 21.640329 20.813425 21.203834 21.576172 20.345703 C 22.33897 19.487588 22.687151 18.38333 22.845703 17.056641 C 23.004255 15.729951 23 14.1213 23 12 C 23 9.87868 23.004255 8.2700376 22.845703 6.9433594 C 22.687151 5.6166812 22.338958 4.5124121 21.576172 3.6542969 C 20.813427 2.796155 19.754874 2.3596744 18.539062 2.1757812 C 17.323251 1.9918879 15.8856 2 14 2 L 10 2 z M 10 4 L 14 4 C 15.8856 4 17.277521 4.00869 18.240234 4.1542969 C 19.202948 4.2999086 19.671323 4.5225438 20.080078 4.9824219 C 20.488892 5.4423266 20.72698 6.0574938 20.861328 7.1816406 C 20.995676 8.3057874 21 9.87868 21 12 C 21 14.1213 20.9957 15.694199 20.861328 16.818359 C 20.72698 17.94252 20.48888 18.557693 20.080078 19.017578 C 19.671325 19.477447 19.20295 19.700093 18.240234 19.845703 C 17.886003 19.89928 17.473662 19.934141 17 19.957031 L 17 15 C 17 13.5858 17.0059 12.504446 16.880859 11.574219 C 16.75579 10.643992 16.457141 9.8009052 15.828125 9.171875 C 15.199101 8.5428648 14.356004 8.2442065 13.425781 8.1191406 C 12.495558 7.9940747 11.4142 8 10 8 L 3.0664062 8 C 3.0848114 7.7042531 3.108772 7.431833 3.1386719 7.1816406 C 3.2730164 6.0574913 3.5111203 5.442325 3.9199219 4.9824219 C 4.3287292 4.5225163 4.7970603 4.2999084 5.7597656 4.1542969 C 6.722471 4.0086853 8.11438 4 10 4 z M 3.0058594 10 L 9 10 L 9 19.998047 C 7.6121318 19.991817 6.5436634 19.964268 5.7597656 19.845703 C 4.7970585 19.700094 4.3287274 19.477475 3.9199219 19.017578 C 3.5111315 18.557695 3.2730167 17.942523 3.1386719 16.818359 C 3.0043271 15.694196 3 14.1213 3 12 C 3 11.269687 2.9997049 10.604377 3.0058594 10 z M 11 10.001953 C 11.91793 10.008432 12.632157 10.030868 13.158203 10.101562 C 13.861855 10.196162 14.164387 10.336267 14.414062 10.585938 C 14.663747 10.835627 14.80383 11.138144 14.898438 11.841797 C 14.993043 12.54545 15 13.5858 15 15 L 15 19.998047 C 14.683422 19.999468 14.350227 20 14 20 L 11 20 L 11 10.001953 z " fill="currentColor"/>
</svg>
