<svg xmlns="http://www.w3.org/2000/svg" width="1em" height="1em" viewBox="0 0 24 24" fill="currentColor">
  <path d="M 18.234375 1 C 17.963375 1 17.781117 0.994581 17.546875 1.03125 C 17.061755 1.10717 16.605495 1.315195 16.238281 1.6503906 C 16.058473 1.8145491 15.953094 1.9625877 15.802734 2.1601562 C 15.47986 2.5843568 15.247056 2.8250608 15.097656 3.3007812 C 14.818723 4.1904152 15.186556 5.1673858 15.919922 5.7089844 C 16.302649 5.9916183 16.632746 6.0740782 17.173828 6.2636719 L 18.1875 6.6191406 C 18.834224 6.845729 19.274157 7.0273937 19.865234 6.9960938 C 20.085093 6.9844418 20.301264 6.9469787 20.511719 6.8808594 C 21.079228 6.7025287 21.423538 6.3669173 21.916016 5.9355469 L 22.060547 5.8085938 C 22.232803 5.6576802 22.359643 5.5545107 22.501953 5.3808594 A 1.0001 1.0001 0 0 0 22.501953 5.3789062 C 22.732567 5.0974583 22.894731 4.7608373 22.962891 4.3964844 C 23.00534 4.1701482 23 4.0046256 23 3.7910156 C 23 3.3028956 23.032798 2.9574441 22.857422 2.5019531 C 22.589209 1.8057153 21.99636 1.3129396 21.300781 1.1074219 C 20.860614 0.9773885 20.512278 1 19.955078 1 L 18.234375 1 z M 18.234375 3 L 19.955078 3 C 20.512278 3 20.722989 3.0226036 20.732422 3.0253906 C 20.881191 3.0693461 20.957992 3.1546881 20.984375 3.2089844 C 20.971143 3.1862259 21 3.3453465 21 3.7910156 C 21 3.9870668 20.995658 4.0428402 20.998047 4.0332031 C 20.993664 4.0530847 20.982166 4.0782748 20.955078 4.1113281 C 20.959978 4.1053381 20.914729 4.1535211 20.742188 4.3046875 L 20.597656 4.4316406 C 20.105134 4.8630502 19.9544 4.959367 19.912109 4.9726562 C 19.864359 4.9876562 19.813509 4.997152 19.759766 5 C 19.704246 5.00294 19.496286 4.958994 18.849609 4.7324219 L 17.833984 4.3769531 C 17.292866 4.1873468 17.081295 4.0803154 17.107422 4.0996094 C 16.992025 4.0143874 16.987751 3.9729795 17.001953 3.9199219 L 17.003906 3.9199219 L 17.003906 3.9179688 L 17.005859 3.9179688 L 17.007812 3.9160156 C 17.031899 3.8901524 17.141936 3.7049168 17.394531 3.3730469 C 17.544029 3.1766117 17.587867 3.1272259 17.585938 3.1289062 C 17.641928 3.0778022 17.738789 3.0260725 17.855469 3.0078125 C 17.873427 3.0050013 17.963375 3 18.234375 3 z M 8.515625 4.0117188 C 8.3460802 4.0016661 8.1763386 4.0034749 8.0058594 4.0175781 C 7.5512481 4.0551868 7.0978973 4.1805129 6.6699219 4.4003906 L 5.0742188 5.2207031 C 3.8485961 5.8503838 2.9355302 6.9624609 2.5371094 8.2929688 L 1.21875 12.693359 C 0.59210623 14.786003 1.3362642 17.061451 3.0859375 18.345703 L 8.1191406 22.039062 C 9.6260243 23.145097 11.627134 23.307897 13.287109 22.455078 L 18.900391 19.570312 C 20.157477 18.924495 21.08506 17.771082 21.466797 16.398438 L 21.808594 15.167969 C 22.208025 13.731478 21.975446 12.190911 21.166016 10.943359 L 19.994141 9.1386719 C 18.73102 7.1918962 15.946802 6.9052034 14.330078 8.5664062 C 13.919032 8.9887705 13.691221 9.1654963 13.662109 9.2011719 L 13.662109 9.203125 L 13.662109 9.2050781 L 13.662109 9.2070312 C 13.596933 9.22711 13.533172 9.2187601 13.470703 9.1796875 L 13.470703 9.1777344 L 13.470703 9.1757812 C 13.459429 9.143711 13.279656 8.9172208 12.96875 8.3847656 L 11.474609 5.828125 C 10.835875 4.7342554 9.7024383 4.0820875 8.515625 4.0117188 z M 8.3398438 5.9941406 C 8.4918143 5.9945916 8.6427308 6.0171732 8.7871094 6.0605469 C 9.1721189 6.1762099 9.5168515 6.440002 9.7480469 6.8359375 L 11.240234 9.3945312 C 11.608753 10.025653 11.793443 10.454887 12.328125 10.822266 C 12.923042 11.230926 13.68635 11.329586 14.365234 11.080078 C 14.976869 10.855401 15.257775 10.480765 15.763672 9.9609375 C 16.529948 9.1735804 17.710127 9.2921377 18.316406 10.226562 L 19.488281 12.03125 C 19.982451 12.792899 20.128982 13.747503 19.882812 14.632812 L 19.541016 15.863281 C 19.305753 16.709236 18.737642 17.406987 17.986328 17.792969 L 12.373047 20.675781 C 11.379222 21.186363 10.210331 21.093899 9.3027344 20.427734 L 4.2695312 16.732422 C 3.2134645 15.957274 2.7474094 14.559181 3.1347656 13.265625 L 4.453125 8.8671875 C 4.6985041 8.0477553 5.2558839 7.3762793 5.9882812 7 L 7.5839844 6.1796875 C 7.8289962 6.0538096 8.0865595 5.993389 8.3398438 5.9941406 z M 7.359375 9.0117188 C 7.1593066 9.0159364 6.9557997 9.0510196 6.7636719 9.1308594 A 1.0001 1.0001 0 0 0 6.7617188 9.1308594 C 6.2495194 9.343858 5.9292766 9.7683253 5.7070312 10.175781 C 5.484786 10.583238 5.3079684 11.039096 5.0722656 11.626953 A 1 1 0 0 0 5.6269531 12.927734 A 1 1 0 0 0 6.9277344 12.373047 C 7.1634316 11.785204 7.339596 11.358855 7.4628906 11.132812 C 7.4932848 11.077089 7.5058951 11.051539 7.5097656 11.041016 C 7.6802345 11.116271 8.0096754 11.314132 8.4707031 11.601562 A 1 1 0 0 0 9.8476562 11.28125 A 1 1 0 0 0 9.5292969 9.9042969 C 9.0579077 9.6104067 8.6917936 9.3723568 8.2773438 9.1953125 C 8.0183126 9.0846598 7.6928223 9.0046894 7.359375 9.0117188 z M 16 12.75 C 15.321712 12.75 14.75 13.321712 14.75 14 C 14.75 14.678288 15.321712 15.25 16 15.25 C 16.678288 15.25 17.25 14.678288 17.25 14 C 17.25 13.321712 16.678288 12.75 16 12.75 z M 11 14.5 A 1 1 0 0 0 10.292969 14.792969 L 8.7929688 16.292969 A 1 1 0 0 0 8.7929688 17.707031 A 1 1 0 0 0 10.207031 17.707031 L 11.707031 16.207031 A 1 1 0 0 0 11.707031 14.792969 A 1 1 0 0 0 11 14.5 z " fill="currentColor"/>
</svg>
