<svg xmlns="http://www.w3.org/2000/svg" width="1em" height="1em" viewBox="0 0 24 24" fill="currentColor">
  <path d="M 12 2 C 9.0478381 2 6.4604568 3.612179 5.0742188 6.0019531 A 1 1 0 0 0 5 6 C 3.3507611 6 2.1725064 6.4132926 1.5527344 7.3105469 C 0.9329623 8.2078012 1 9.171575 1 10 C 1 12.197327 2.8027269 14 5 14 A 1 1 0 0 0 5.0742188 13.998047 C 5.5515448 14.820922 6.1704428 15.551711 6.8984375 16.15625 C 5.2305579 16.638203 4 18.183893 4 20 C 4 21.092731 4.9072936 22 6 22 L 18 22 C 19.092707 22 20 21.092707 20 20 C 20 18.183906 18.769458 16.638204 17.101562 16.15625 C 17.829556 15.551711 18.448456 14.820922 18.925781 13.998047 A 1 1 0 0 0 19 14 C 21.197307 14 23 12.197307 23 10 C 23 9.171575 23.067038 8.2078012 22.447266 7.3105469 C 22.211033 6.9685493 21.893663 6.6974756 21.5 6.4921875 L 21.5 3 A 1 1 0 0 0 20.5 2 A 1 1 0 0 0 19.5 3 L 19.5 6.0136719 C 19.338511 6.0046214 19.171811 6 19 6 A 1 1 0 0 0 18.925781 6.0019531 C 17.539543 3.612179 14.952162 2 12 2 z M 12 4 C 15.325553 4 18 6.6744469 18 10 C 18 13.325553 15.325553 16 12 16 C 8.6744469 16 6 13.325553 6 10 C 6 6.6744469 8.6744469 4 12 4 z M 12 6 C 10.692765 6 9.4914447 6.3887407 8.5722656 7.078125 C 7.6530866 7.7675093 7 8.8112795 7 10 C 7 11.188721 7.6530866 12.232491 8.5722656 12.921875 C 9.4914447 13.611259 10.692765 14 12 14 C 13.307235 14 14.508555 13.611259 15.427734 12.921875 C 16.346913 12.232491 17 11.188721 17 10 C 17 8.8112795 16.346913 7.7675093 15.427734 7.078125 C 14.508555 6.3887407 13.307235 6 12 6 z M 12 8 C 12.901904 8 13.699979 8.2813322 14.228516 8.6777344 C 14.757052 9.0741365 15 9.5318663 15 10 C 15 10.468134 14.757052 10.925863 14.228516 11.322266 C 13.699979 11.718668 12.901904 12 12 12 C 11.098096 12 10.300021 11.718668 9.7714844 11.322266 C 9.2429482 10.925863 9 10.468134 9 10 C 9 9.5318663 9.2429482 9.0741365 9.7714844 8.6777344 C 10.300021 8.2813322 11.098096 8 12 8 z M 4.2441406 8.0351562 C 4.0842195 8.6643485 4 9.3222253 4 10 C 4 10.634237 4.0742392 11.251486 4.2148438 11.84375 C 3.4961315 11.54258 3 10.83679 3 10 C 3 9.171575 3.0670377 8.6357988 3.1972656 8.4472656 C 3.2986558 8.3004814 3.5153343 8.1118119 4.2441406 8.0351562 z M 19.755859 8.0351562 C 20.484665 8.1118119 20.701344 8.3004814 20.802734 8.4472656 C 20.932962 8.6357988 21 9.171575 21 10 C 21 10.836817 20.503895 11.542592 19.785156 11.84375 C 19.925763 11.251481 20 10.634241 20 10 C 20 9.3222253 19.91578 8.6643485 19.755859 8.0351562 z M 8 18 L 12 18 L 16 18 C 17.116493 18 18 18.883507 18 20 L 6 20 C 6 18.883527 6.8835731 18 8 18 z " fill="currentColor"/>
</svg>
