<svg xmlns="http://www.w3.org/2000/svg" width="1em" height="1em" viewBox="0 0 24 24" fill="currentColor">
  <path d="M 12 1 C 6.4889992 1 2 5.4889992 2 11 L 2 19.578125 L 2 20 C 2 20.4714 1.9930799 20.844872 2.0449219 21.230469 C 2.0967639 21.616065 2.2498234 22.077938 2.5859375 22.414062 C 2.9220598 22.750186 3.3839299 22.903234 3.7695312 22.955078 C 4.1551323 23.006922 4.528595 23 5 23 L 20 23 C 21.092707 23 22 22.092707 22 21 C 22 19.408881 21.055073 18.025455 19.699219 17.382812 C 21.136124 15.649785 22 13.421304 22 11 C 22 5.4890046 17.511036 1 12 1 z M 12 3 C 13.853357 3 15.556327 3.6246018 16.910156 4.6757812 L 14.029297 7.5566406 C 13.433377 7.202793 12.738545 7 12 7 C 9.8027056 7 8 8.8027056 8 11 C 8 13.197294 9.8027056 15 12 15 C 12.738545 15 13.433377 14.797207 14.029297 14.443359 L 16.585938 17 L 5 17 C 4.6227471 17 4.3082202 16.994731 4 17.019531 L 4 11 C 4 6.5698808 7.5698808 3 12 3 z M 18.324219 6.0898438 C 19.375401 7.4436782 20 9.1466521 20 11 C 20 12.853301 19.373501 14.553062 18.320312 15.90625 L 15.443359 13.029297 C 15.797207 12.433377 16 11.738545 16 11 C 16 10.261455 15.797207 9.5666225 15.443359 8.9707031 L 18.324219 6.0898438 z M 12 9 C 12.524355 9 12.997355 9.1951698 13.351562 9.5175781 A 1 1 0 0 0 13.414062 9.5859375 A 1 1 0 0 0 13.482422 9.6484375 C 13.80483 10.002645 14 10.475645 14 11 C 14 11.524304 13.804774 11.997366 13.482422 12.351562 A 1 1 0 0 0 13.414062 12.414062 A 1 1 0 0 0 13.351562 12.482422 C 12.997355 12.804831 12.524356 13 12 13 C 10.883586 13 10 12.116414 10 11 C 10 9.8835859 10.883586 9 12 9 z M 5 19 L 17.683594 19 L 18 19 C 19.116493 19 20 19.883507 20 21 L 5 21 C 4.528595 21 4.1941826 20.994037 4.0351562 20.972656 C 4.03281 20.972341 4.0295865 20.97296 4.0273438 20.972656 C 4.0270399 20.970412 4.0276594 20.967191 4.0273438 20.964844 C 4.0059629 20.805819 4 20.471397 4 20 C 4 19.5286 4.0059631 19.194185 4.0273438 19.035156 C 4.0276594 19.032809 4.0270399 19.029588 4.0273438 19.027344 C 4.0295865 19.02704 4.03281 19.027659 4.0351562 19.027344 C 4.1941828 19.005967 4.528595 19 5 19 z " fill="currentColor"/>
</svg>
