<svg xmlns="http://www.w3.org/2000/svg" width="1em" height="1em" viewBox="0 0 24 24" fill="currentColor">
  <path d="M 9.5 2 C 6.1981382 2 3.5 4.6981382 3.5 8 L 3.5 13.5 C 3.5 18.182544 7.3174147 22 12 22 C 16.68255 22 20.5 18.18255 20.5 13.5 L 20.5 12 A 1 1 0 0 0 19.5 11 A 1 1 0 0 0 18.5 12 L 18.5 13.5 C 18.5 17.10165 15.60165 20 12 20 C 8.3983053 20 5.5 17.101656 5.5 13.5 L 5.5 8 C 5.5 5.7790218 7.2790218 4 9.5 4 C 11.720954 4 13.5 5.7790266 13.5 8 L 13.5 13.5 C 13.5 14.34025 12.84025 15 12 15 C 11.15975 15 10.5 14.34025 10.5 13.5 L 10.5 9.5 A 1 1 0 0 0 9.5 8.5 A 1 1 0 0 0 8.5 9.5 L 8.5 13.5 C 8.5 15.42115 10.07885 17 12 17 C 13.92115 17 15.5 15.42115 15.5 13.5 L 15.5 8 C 15.5 4.6981334 12.801846 2 9.5 2 z " fill="currentColor"/>
</svg>
