<svg xmlns="http://www.w3.org/2000/svg" width="1em" height="1em" viewBox="0 0 24 24" fill="currentColor">
  <path d="M 6.7480469 1.9960938 C 6.2684578 1.9958016 5.8451856 2.0328543 5.3886719 2.3378906 C 5.1703094 2.4837989 4.9837989 2.6703094 4.8378906 2.8886719 C 4.4547058 3.4621418 4.4942138 3.983191 4.5 4.6289062 C 3.5994182 4.7598003 2.783989 5.059761 2.171875 5.671875 C 1.542857 6.300893 1.2442065 7.143992 1.1191406 8.0742188 C 0.99407482 9.0044453 1 10.085785 1 11.5 L 1 15 C 1 16.4142 0.99407502 17.495558 1.1191406 18.425781 C 1.2442065 19.356004 1.5428648 20.199101 2.171875 20.828125 C 2.8008908 21.457155 3.6439898 21.75579 4.5742188 21.880859 C 5.5044479 22.005928 6.585785 22 8 22 L 16 22 C 17.4142 22 18.495556 22.0059 19.425781 21.880859 C 20.356006 21.75579 21.199103 21.457147 21.828125 20.828125 C 22.457147 20.199103 22.75579 19.356006 22.880859 18.425781 C 23.005928 17.495556 23 16.4142 23 15 L 23 11.5 C 23 10.085785 23.005928 9.0044477 22.880859 8.0742188 C 22.75579 7.1439896 22.457155 6.3008908 21.828125 5.671875 C 21.216005 5.0597685 20.400578 4.7598007 19.5 4.6289062 C 19.505779 3.9831905 19.545224 3.4621374 19.162109 2.8886719 C 19.016356 2.6706607 18.829837 2.4838835 18.611328 2.3378906 C 18.002705 1.9313457 17.4522 2 16.75 2 C 16.0478 2 15.497295 1.9313457 14.888672 2.3378906 C 14.670163 2.4838835 14.483644 2.6706607 14.337891 2.8886719 C 13.980735 3.4232811 13.990428 3.9129451 13.998047 4.5 L 10.001953 4.5 C 10.009585 3.912946 10.01933 3.4232851 9.6621094 2.8886719 C 9.5162011 2.6703094 9.3296906 2.4837989 9.1113281 2.3378906 C 8.5026431 1.9311755 7.95223 2 7.25 2 C 7.0744425 2 6.9079099 1.9961911 6.7480469 1.9960938 z M 7.25 4 C 7.6526684 4 7.8744375 4.0228896 7.9707031 4.0292969 C 7.9756354 4.1034019 7.9895838 4.2518846 7.9960938 4.5 C 7.4523858 4.4999966 6.9595211 4.4997967 6.5039062 4.5058594 C 6.5103458 4.2546194 6.5243303 4.1039177 6.5292969 4.0292969 C 6.6255625 4.0228896 6.8473316 4 7.25 4 z M 16.75 4 C 17.152797 4 17.374509 4.0229149 17.470703 4.0292969 C 17.475664 4.1038946 17.489654 4.2545452 17.496094 4.5058594 C 17.040476 4.4997967 16.547611 4.4999966 16.003906 4.5 C 16.010417 4.2518108 16.02437 4.1033792 16.029297 4.0292969 C 16.125491 4.0229149 16.347203 4 16.75 4 z M 8 6.5 L 15 6.5 L 16 6.5 C 17.4142 6.5 18.454551 6.50696 19.158203 6.6015625 C 19.861855 6.6961665 20.164388 6.8362677 20.414062 7.0859375 C 20.663732 7.3356017 20.803832 7.6381434 20.898438 8.3417969 C 20.993043 9.0454503 21 10.085785 21 11.5 L 21 15 C 21 16.4142 20.993 17.454553 20.898438 18.158203 C 20.803828 18.861853 20.66374 19.164385 20.414062 19.414062 C 20.164386 19.66374 19.861853 19.803832 19.158203 19.898438 C 18.454553 19.993043 17.4142 20 16 20 L 8 20 C 6.585785 20 5.5454503 19.993043 4.8417969 19.898438 C 4.1381434 19.803832 3.8356017 19.663732 3.5859375 19.414062 C 3.3362677 19.164388 3.1961666 18.861855 3.1015625 18.158203 C 3.0069584 17.454551 3 16.4142 3 15 L 3 11.5 C 3 10.085785 3.0069583 9.0454528 3.1015625 8.3417969 C 3.1961667 7.638141 3.3362755 7.3355995 3.5859375 7.0859375 C 3.8355995 6.8362755 4.138141 6.6961667 4.8417969 6.6015625 C 5.5454528 6.5069583 6.585785 6.5 8 6.5 z M 12.535156 8 A 1 1 0 0 0 12.275391 8.0253906 A 1 1 0 0 0 11.652344 8.4707031 L 9.1523438 12.470703 A 1.0001 1.0001 0 0 0 10 14 L 12.197266 14 L 10.652344 16.470703 A 1 1 0 0 0 10.970703 17.847656 A 1 1 0 0 0 12.347656 17.529297 L 14.847656 13.529297 A 1.0001 1.0001 0 0 0 14 12 L 11.802734 12 L 13.347656 9.5292969 A 1 1 0 0 0 13.029297 8.1523438 A 1 1 0 0 0 12.535156 8 z " fill="currentColor"/>
</svg>
