<svg xmlns="http://www.w3.org/2000/svg" width="1em" height="1em" viewBox="0 0 24 24" fill="currentColor">
  <path d="M 14 1 C 12.783333 1 11.895585 1.8632021 11.498047 2.6914062 C 11.272535 3.1612228 11.142486 3.6366779 11.072266 4.0761719 C 8.6041722 4.4876291 6.6660156 6.5101707 6.6660156 9 C 6.6660156 10.072635 6.3974349 11.255188 5.8359375 12.009766 C 4.9986266 13.135128 4.5 14.51832 4.5 16 C 4.5 19.899178 7.9112633 23 12 23 C 16.088676 23 19.5 19.899189 19.5 16 C 19.5 14.518331 19.001418 13.135141 18.164062 12.009766 C 17.602545 11.255191 17.333984 10.072635 17.333984 9 C 17.333984 6.5734709 15.493417 4.5914197 13.115234 4.1113281 C 13.16241 3.9127159 13.223858 3.7188504 13.300781 3.5585938 C 13.503243 3.1367978 13.616667 3 14 3 A 1 1 0 0 0 15 2 A 1 1 0 0 0 14 1 z M 12 6 C 13.894325 6 15.333984 7.3763367 15.333984 9 C 15.333984 10.375165 15.618711 11.940099 16.558594 13.203125 C 17.157438 14.00795 17.5 14.963269 17.5 16 C 17.5 18.728211 15.090924 21 12 21 C 8.9089967 21 6.5 18.728222 6.5 16 C 6.5 14.96328 6.8425772 14.007963 7.4414062 13.203125 L 7.4394531 13.203125 C 8.3792926 11.940102 8.6660156 10.375165 8.6660156 9 C 8.6660156 7.3763367 10.105602 6 12 6 z M 12.708984 12 C 12.629366 11.997238 12.550151 11.999478 12.470703 12.005859 C 12.15291 12.031389 11.840597 12.136671 11.564453 12.380859 C 11.012165 12.869236 11 13.470931 11 13.958984 L 11 18.041016 C 11 18.529069 11.01216 19.130764 11.564453 19.619141 C 12.116741 20.107517 12.815089 20.043193 13.408203 19.886719 C 15.376542 19.36753 16.5 17.669835 16.5 16 C 16.5 14.330165 15.376542 12.63247 13.408203 12.113281 C 13.185785 12.054601 12.94784 12.008285 12.708984 12 z M 13 14.111328 C 14.056076 14.444364 14.5 15.197267 14.5 16 C 14.5 16.802733 14.056076 17.555636 13 17.888672 L 13 14.111328 z " fill="currentColor"/>
</svg>
