<svg xmlns="http://www.w3.org/2000/svg" width="1em" height="1em" viewBox="0 0 24 24" fill="currentColor">
  <path d="M 12 1 C 10.968954 1 10.19303 1.4829389 8.9355469 2.1914062 L 7.1855469 3.1777344 C 5.8802269 3.9131344 5.033705 4.3410256 4.4960938 5.2617188 C 3.9584715 6.1824052 4 7.1308494 4 8.6308594 L 4 10.369141 C 4 11.869141 3.958517 12.817568 4.4960938 13.738281 C 4.8599542 14.361385 5.3652723 14.757957 6.0585938 15.177734 L 5.46875 18.005859 C 5.2534397 19.037061 5.0833159 19.819109 5.0214844 20.5 C 4.9596524 21.180891 4.9919314 21.899198 5.5019531 22.462891 C 5.7570089 22.744722 6.1671957 22.952017 6.5410156 22.990234 C 6.9148355 23.028454 7.2305184 22.952314 7.5273438 22.851562 C 8.1209945 22.650064 8.7026485 22.316884 9.4707031 21.896484 L 11.744141 20.652344 C 11.860943 20.588408 11.944921 20.547675 12 20.521484 C 12.055079 20.547675 12.139054 20.588408 12.255859 20.652344 L 14.529297 21.896484 C 15.297351 22.316887 15.879007 22.650065 16.472656 22.851562 C 16.769481 22.952312 17.08516 23.028453 17.458984 22.990234 C 17.832808 22.952014 18.243002 22.744755 18.498047 22.462891 C 19.008101 21.899213 19.040339 21.180897 18.978516 20.5 C 18.916692 19.819103 18.74655 19.037059 18.53125 18.005859 L 17.941406 15.177734 C 18.634733 14.757982 19.140077 14.361452 19.503906 13.738281 C 20.041515 12.817564 20 11.869141 20 10.369141 L 20 8.6308594 C 20 7.1308494 20.041561 6.1824093 19.503906 5.2617188 C 18.96634 4.340923 18.119744 3.913129 16.814453 3.1777344 L 15.064453 2.1914062 C 13.806943 1.4829407 13.031046 1 12 1 z M 12 3 C 12.344154 3 12.826494 3.2251393 14.083984 3.9335938 L 15.833984 4.9199219 C 17.139294 5.6553272 17.59691 5.9624201 17.777344 6.2714844 C 17.957889 6.5806539 18 7.1308494 18 8.6308594 L 18 10.369141 C 18 11.869141 17.95793 12.419233 17.777344 12.728516 C 17.596917 13.037554 17.139294 13.344673 15.833984 14.080078 L 14.083984 15.066406 C 12.826512 15.774891 12.344183 16 12 16 C 11.655817 16 11.175408 15.774889 9.9179688 15.066406 A 1.0001 1.0001 0 0 0 9.9160156 15.066406 L 8.1660156 14.080078 C 6.8606924 13.344678 6.4031785 13.037656 6.2226562 12.728516 C 6.0420731 12.419229 6 11.869141 6 10.369141 L 6 8.6308594 C 6 7.1308494 6.0421185 6.580658 6.2226562 6.2714844 C 6.403185 5.9623175 6.8606956 5.6553219 8.1660156 4.9199219 L 9.9160156 3.9335938 C 11.173473 3.2251409 11.655846 3 12 3 z M 14.957031 6.5019531 A 1 1 0 0 0 14.699219 6.546875 C 13.287524 6.9913094 12.136212 8.0971575 11.226562 9.0664062 C 10.769896 9.5529927 10.724666 9.6536368 10.453125 9.9960938 C 10.292652 9.8520024 10.131452 9.5632827 9.9785156 9.4726562 C 9.7540454 9.3396401 9.5451205 9.2619541 9.375 9.21875 C 9.2048795 9.1755459 9 9.1660156 9 9.1660156 A 1 1 0 0 0 8 10.166016 A 1 1 0 0 0 8.8945312 11.160156 C 8.9068953 11.165104 8.9283349 11.175217 8.9589844 11.193359 C 9.072544 11.260649 9.323738 11.447727 9.6289062 11.990234 A 1.0001 1.0001 0 0 0 11.314453 12.082031 C 11.314453 12.082031 11.874596 11.297678 12.685547 10.433594 C 13.496498 9.5695097 14.594876 8.6753606 15.300781 8.453125 A 1 1 0 0 0 15.953125 7.1992188 A 1 1 0 0 0 14.957031 6.5019531 z M 7.8847656 16.216797 L 8.9355469 16.808594 C 10.193047 17.517111 10.968983 18 12 18 C 13.031017 18 13.806926 17.517109 15.064453 16.808594 L 16.115234 16.216797 L 16.574219 18.414062 C 16.789519 19.445262 16.943426 20.209138 16.986328 20.681641 C 17.007678 20.916777 17.00661 20.839805 17 20.900391 C 16.697932 20.784443 16.204027 20.53328 15.490234 20.142578 L 13.216797 18.898438 C 12.853735 18.699704 12.536871 18.476563 12 18.476562 C 11.463129 18.476562 11.146265 18.699704 10.783203 18.898438 L 8.5097656 20.142578 C 7.7959646 20.533282 7.3020621 20.784444 7 20.900391 C 6.99339 20.839801 6.9923199 20.916781 7.0136719 20.681641 C 7.0565799 20.209132 7.2104716 19.445262 7.4257812 18.414062 L 7.8847656 16.216797 z " fill="currentColor"/>
</svg>
