<svg xmlns="http://www.w3.org/2000/svg" width="1em" height="1em" viewBox="0 0 24 24" fill="currentColor">
  <path d="M 16.775391 1.0136719 C 16.46172 1.0079785 16.145066 1.0490775 15.84375 1.1210938 C 15.040243 1.3131372 14.158141 1.6814416 12.994141 2.1542969 L 12.365234 2.4101562 C 10.82452 3.0360459 9.6479862 3.5090015 8.6953125 4.0449219 C 7.7426388 4.5808423 6.9837469 5.2285158 6.5175781 6.1171875 C 6.051405 7.0058616 5.943736 8.0001404 6.0273438 9.1113281 C 6.1109515 10.222516 6.3679088 11.500012 6.6992188 13.179688 L 7.4589844 17.037109 C 7.3783781 17.044528 7.2995567 17.053851 7.2207031 17.064453 C 6.6989566 17.134593 6.1417798 17.323101 5.7324219 17.732422 C 5.3231141 18.141789 5.1346008 18.698946 5.0644531 19.220703 C 4.9943054 19.74246 5 20.2929 5 21 L 4 21 A 1 1 0 0 0 3 22 A 1 1 0 0 0 4 23 L 6 23 L 18 23 L 20 23 A 1 1 0 0 0 21 22 A 1 1 0 0 0 20 21 L 19 21 C 19 20.2929 19.005697 19.74245 18.935547 19.220703 C 18.865407 18.698956 18.676857 18.141794 18.267578 17.732422 C 17.858203 17.323143 17.301044 17.134593 16.779297 17.064453 C 16.696356 17.053303 16.612249 17.044754 16.527344 17.037109 L 18.505859 6.8847656 C 18.753308 5.6152167 18.949775 4.6500718 18.992188 3.8105469 C 19.0346 2.971022 18.87479 2.0881257 18.220703 1.5195312 C 17.893642 1.2352635 17.499746 1.0874812 17.087891 1.0351562 C 16.984927 1.022075 16.879948 1.0155697 16.775391 1.0136719 z M 16.791016 2.984375 C 16.86784 2.9858485 16.883965 3.0082296 16.908203 3.0292969 C 16.956613 3.0713829 17.023576 3.1262819 16.994141 3.7089844 C 16.964701 4.291687 16.79042 5.232392 16.542969 6.5019531 L 14.496094 17 L 9.4902344 17 L 8.6621094 12.792969 C 8.3307993 11.113293 8.0899642 9.8710673 8.0214844 8.9609375 C 7.9530046 8.0508077 8.0383456 7.5228678 8.2890625 7.0449219 C 8.5397737 6.5669836 8.9085124 6.2187315 9.6757812 5.7871094 C 10.44305 5.3554873 11.578425 4.8895621 13.119141 4.2636719 L 13.746094 4.0078125 C 14.910093 3.5349577 15.772451 3.1945478 16.308594 3.0664062 C 16.576665 3.0023354 16.714191 2.9829015 16.791016 2.984375 z M 9 19 L 15 19 C 15.7071 19 16.216516 19.007205 16.511719 19.046875 C 16.806922 19.086555 16.823488 19.116464 16.853516 19.146484 C 16.883536 19.176514 16.913435 19.193074 16.953125 19.488281 C 16.992809 19.783488 17 20.2929 17 21 L 7 21 C 7 20.2929 7.00719 19.783474 7.046875 19.488281 C 7.086562 19.193088 7.1164524 19.176521 7.1464844 19.146484 C 7.1764664 19.116504 7.1930854 19.086565 7.4882812 19.046875 C 7.7834777 19.007192 8.292895 19 9 19 z " fill="currentColor"/>
</svg>
