<svg xmlns="http://www.w3.org/2000/svg" width="1em" height="1em" viewBox="0 0 24 24" fill="currentColor">
  <path d="M 8 2 C 7.528595 2 7.1551289 1.9930802 6.7695312 2.0449219 C 6.3839336 2.0967636 5.9220631 2.2498234 5.5859375 2.5859375 C 5.2498234 2.9220631 5.0967636 3.3839336 5.0449219 3.7695312 C 4.9930802 4.1551289 5 4.528595 5 5 C 5 5.471405 4.9930802 5.8448711 5.0449219 6.2304688 C 5.0967636 6.6160664 5.2498234 7.0779369 5.5859375 7.4140625 C 5.9220631 7.7501766 6.3839336 7.9032364 6.7695312 7.9550781 C 7.1551289 8.0069198 7.528595 8 8 8 L 8.3828125 8 L 14 19.236328 C 14.537911 20.31215 14.859351 21.05901 15.658203 21.552734 C 16.457093 22.046482 17.269856 22 18.472656 22 L 19 22 C 19.4714 22 19.844869 22.006898 20.230469 21.955078 C 20.616069 21.903238 21.07794 21.750186 21.414062 21.414062 C 21.750186 21.077941 21.903234 20.616069 21.955078 20.230469 C 22.006922 19.844867 22 19.4714 22 19 C 22 18.5286 22.006898 18.155131 21.955078 17.769531 C 21.903238 17.383931 21.750186 16.922061 21.414062 16.585938 C 21.077941 16.249816 20.616069 16.096766 20.230469 16.044922 C 20.041959 16.019582 19.824488 16.028508 19.628906 16.023438 L 14 4.7636719 C 13.462088 3.6878075 13.140657 2.9409955 12.341797 2.4472656 C 11.542907 1.9535178 10.730184 2 9.5273438 2 L 8 2 z M 8 4 L 9.5273438 4 C 10.730184 4 11.121351 4.044785 11.289062 4.1484375 C 11.456801 4.2521077 11.673049 4.5823875 12.210938 5.6582031 L 18.105469 17.447266 A 1.0001 1.0001 0 0 0 19 18 C 19.4714 18 19.805819 18.006004 19.964844 18.027344 C 19.967192 18.02766 19.970411 18.02704 19.972656 18.027344 C 19.97296 18.029589 19.97234 18.032807 19.972656 18.035156 C 19.994029 18.194177 20 18.5286 20 19 C 20 19.4714 19.993996 19.805819 19.972656 19.964844 C 19.972341 19.967191 19.97296 19.970413 19.972656 19.972656 C 19.970411 19.97296 19.967193 19.97234 19.964844 19.972656 C 19.805823 19.994033 19.4714 20 19 20 L 18.472656 20 C 17.269856 20 16.878649 19.95521 16.710938 19.851562 C 16.543191 19.747888 16.326951 19.417575 15.789062 18.341797 L 9.8945312 6.5527344 A 1.0001 1.0001 0 0 0 9 6 L 8 6 C 7.528595 6 7.1941861 5.994037 7.0351562 5.9726562 C 7.0328098 5.9723408 7.0295867 5.97296 7.0273438 5.9726562 C 7.02704 5.9704133 7.0276592 5.9671902 7.0273438 5.9648438 C 7.0059631 5.805814 7 5.471405 7 5 C 7 4.528595 7.005963 4.1941862 7.0273438 4.0351562 C 7.0276592 4.0328099 7.02704 4.0295866 7.0273438 4.0273438 C 7.0295867 4.02704 7.0328098 4.0276592 7.0351562 4.0273438 C 7.1941863 4.0059628 7.528595 4 8 4 z M 8.0214844 10 A 1.0001 1.0001 0 0 0 7.125 10.513672 L 2.2265625 19.333984 C 2.0786205 19.600343 2 19.900202 2 20.205078 C 2 21.184155 2.8158188 22 3.7949219 22 L 6.8203125 22 C 7.3660317 22 7.8219416 22.03991 8.3457031 21.751953 C 8.4064391 21.718613 8.463239 21.684363 8.515625 21.648438 A 1.0001 1.0001 0 0 0 8.5175781 21.646484 C 9.0103783 21.306614 9.1775104 20.879354 9.421875 20.390625 L 11.394531 16.447266 A 1.0001 1.0001 0 0 0 11.394531 15.552734 L 8.8945312 10.552734 A 1.0001 1.0001 0 0 0 8.0214844 10 z M 7.9550781 13.144531 L 9.3828125 16 L 7.6328125 19.498047 C 7.4878726 19.787927 7.4026208 19.926951 7.3710938 19.982422 C 7.3080236 19.985442 7.1447473 20 6.8203125 20 L 4.1445312 20 L 7.9550781 13.144531 z " fill="currentColor"/>
</svg>
