<svg xmlns="http://www.w3.org/2000/svg" width="1em" height="1em" viewBox="0 0 24 24" fill="currentColor">
  <path d="M 2 3 A 1 1 0 0 0 1 4 A 1 1 0 0 0 2 5 C 2.5641304 5 3 5.4358696 3 6 L 3 18 L 3 20 A 1 1 0 0 0 4 21 A 1 1 0 0 0 5 20 L 5 19 L 19 19 L 19 20 A 1 1 0 0 0 20 21 A 1 1 0 0 0 21 20 L 21 18 L 21 6 C 21 5.4358515 21.435825 5 22 5 A 1 1 0 0 0 23 4 A 1 1 0 0 0 22 3 C 20.354975 3 19 4.3550085 19 6 L 5 6 C 5 4.3549904 3.6450096 3 2 3 z M 5 8 L 7 8 L 7 14 L 5 14 L 5 8 z M 9 8 L 11 8 L 11 14 L 9 14 L 9 8 z M 13 8 L 15 8 L 15 14 L 13 14 L 13 8 z M 17 8 L 19 8 L 19 14 L 17 14 L 17 8 z M 5 16 L 19 16 L 19 17 L 5 17 L 5 16 z " fill="currentColor"/>
</svg>
