<svg xmlns="http://www.w3.org/2000/svg" width="1em" height="1em" viewBox="0 0 24 24" fill="currentColor">
  <path d="M 12.009766 1 C 11.690207 0.996843 11.416834 1.060015 11.185547 1.1328125 C 9.3710784 1.7037147 8.4879986 3.8162324 9.3710938 5.4921875 C 9.5412958 5.8152005 9.4822501 5.9489246 9.3789062 6.1445312 C 9.3068952 6.2808062 8.9222861 6.5981605 8.7207031 6.6621094 C 7.8888579 6.9260346 7.1321901 7.3841489 6.6074219 8.0800781 C 6.136331 8.7048223 5.8926533 9.5301585 5.9746094 10.392578 C 5.7103209 11.146965 5 13.437482 5 16.25 C 5 17.495118 5.1372323 18.628508 5.3125 19.572266 C 5.416901 20.134421 5.4954191 20.592052 5.6601562 21.050781 C 5.8248935 21.509511 6.1178894 21.967838 6.5253906 22.306641 C 6.9534708 22.662553 7.4896212 22.857222 8.0058594 22.931641 C 8.5220976 23.006059 9.0465344 23 9.7089844 23 L 14.291016 23 C 14.953466 23 15.477909 23.006101 15.994141 22.931641 C 16.510372 22.857221 17.046538 22.662545 17.474609 22.306641 C 17.882113 21.967836 18.17511 21.509511 18.339844 21.050781 C 18.504577 20.592053 18.5831 20.134418 18.6875 19.572266 C 18.862738 18.628553 19 17.495141 19 16.25 C 19 13.436293 18.289413 11.145985 18.025391 10.392578 C 18.076911 9.8359135 18.00336 9.1686798 17.667969 8.4902344 C 17.270541 7.6862999 16.464957 6.928099 15.263672 6.546875 C 14.926221 6.439816 14.62398 6.212818 14.587891 6.1445312 C 14.484549 5.9489246 14.425513 5.8152005 14.595703 5.4921875 C 15.478847 3.8162227 14.597703 1.7037133 12.783203 1.1328125 C 12.571537 1.0661787 12.314529 1.0030084 12.009766 1 z M 11.990234 3 C 12.011674 3.0002116 12.080914 3.0093096 12.181641 3.0410156 C 12.867377 3.2567748 13.147428 3.9489386 12.826172 4.5585938 C 12.344974 5.4718209 12.489094 6.4511117 12.820312 7.078125 C 13.275222 7.9388782 14.065054 8.264944 14.658203 8.453125 C 15.417518 8.694091 15.705903 9.032942 15.875 9.375 C 15.89914 9.423837 15.876501 9.4610409 15.894531 9.5117188 L 8.1582031 9.5117188 C 8.1925805 9.4480642 8.1587734 9.3465638 8.2050781 9.2851562 C 8.4192074 9.0011854 8.8048771 8.7337542 9.3261719 8.5683594 C 10.090629 8.3258482 10.742698 7.8422301 11.146484 7.078125 C 11.477743 6.4511117 11.621823 5.4718209 11.140625 4.5585938 C 10.81938 3.9489289 11.099425 3.2567734 11.785156 3.0410156 C 11.88747 3.0088127 11.961593 2.999717 11.990234 3 z M 7.7109375 11.511719 L 16.289062 11.511719 C 16.400855 11.876993 16.540859 12.384919 16.666016 13 L 15 13 A 1 1 0 0 0 14 14 A 1 1 0 0 0 15 15 L 16.949219 15 C 16.981346 15.399218 17 15.817436 17 16.25 C 17 16.504825 16.992566 16.755186 16.980469 17 L 15 17 A 1 1 0 0 0 14 18 A 1 1 0 0 0 15 19 L 16.757812 19 C 16.745691 19.070073 16.733318 19.139099 16.720703 19.207031 C 16.616304 19.769179 16.537601 20.154126 16.458984 20.373047 C 16.380364 20.591968 16.343609 20.646235 16.195312 20.769531 C 16.067584 20.875727 15.994128 20.912019 15.708984 20.953125 C 15.423841 20.994231 14.953466 21 14.291016 21 L 9.7089844 21 C 9.0465344 21 8.5761724 20.994195 8.2910156 20.953125 C 8.0058588 20.912013 7.9324073 20.875719 7.8046875 20.769531 C 7.6563888 20.646234 7.6196335 20.591967 7.5410156 20.373047 C 7.4623977 20.154126 7.3836959 19.769176 7.2792969 19.207031 C 7.1223246 18.361789 7 17.347282 7 16.25 C 7 14.161605 7.4367508 12.407604 7.7109375 11.511719 z " fill="currentColor"/>
</svg>
