<svg xmlns="http://www.w3.org/2000/svg" width="1em" height="1em" viewBox="0 0 24 24" fill="currentColor">
  <path d="M 9.2363281 5.0039062 C 8.5535575 5.0350346 7.9168363 5.3188702 7.2382812 5.7167969 C 6.4627899 6.1715701 5.5834866 6.811984 4.4199219 7.6523438 C 2.7133259 8.8848981 1.6716365 9.518325 1.2246094 10.738281 C 0.92610736 11.552827 0.92610736 12.447173 1.2246094 13.261719 C 1.6716365 14.481675 2.7133207 15.115148 4.4199219 16.347656 C 5.5834942 17.188062 6.4627912 17.828425 7.2382812 18.283203 C 8.0137713 18.737981 8.7335948 19.044479 9.53125 18.994141 C 10.54674 18.929901 11.49275 18.452421 12.144531 17.671875 C 12.657226 17.057926 12.832086 16.295877 12.917969 15.404297 C 12.922258 15.359769 12.925834 15.315038 12.929688 15.269531 C 13.353876 15.591634 13.850074 15.936114 14.419922 16.347656 C 15.583482 17.188064 16.462789 17.828425 17.238281 18.283203 C 18.013774 18.737981 18.733599 19.044481 19.53125 18.994141 C 20.54674 18.929901 21.49275 18.452421 22.144531 17.671875 C 22.657226 17.057926 22.832086 16.295877 22.917969 15.404297 C 23.003852 14.512717 23 13.42875 23 12 C 23 10.57123 23.003852 9.4872843 22.917969 8.5957031 C 22.832086 7.7041219 22.657208 6.9420763 22.144531 6.328125 C 21.492761 5.5476869 20.546812 5.0700325 19.53125 5.0058594 C 18.733551 4.9554504 18.013775 5.2620237 17.238281 5.7167969 C 16.462787 6.17157 15.583475 6.8119818 14.419922 7.6523438 C 13.850075 8.0639016 13.353876 8.4083653 12.929688 8.7304688 C 12.925834 8.6849548 12.922259 8.6402381 12.917969 8.5957031 C 12.832086 7.7041219 12.657208 6.9420763 12.144531 6.328125 C 11.492761 5.5476869 10.546812 5.0700325 9.53125 5.0058594 C 9.4315371 4.9995585 9.3338668 4.9994593 9.2363281 5.0039062 z M 9.3320312 7.0019531 C 9.3595967 7.0000938 9.3843467 7.0005691 9.40625 7.0019531 C 9.8766884 7.0316801 10.310546 7.2515531 10.609375 7.609375 C 10.718998 7.7406537 10.858042 8.0636131 10.927734 8.7871094 C 10.997426 9.5106057 11 10.57123 11 12 C 11 13.42875 10.997404 14.489396 10.927734 15.212891 C 10.858044 15.936386 10.71898 16.259374 10.609375 16.390625 C 10.31056 16.748479 9.8767601 16.968284 9.40625 16.998047 C 9.2309752 17.009108 8.8813049 16.928816 8.25 16.558594 C 7.6186951 16.188372 6.7534014 15.566956 5.5898438 14.726562 C 3.883265 13.49407 3.2192753 12.895462 3.1015625 12.574219 C 2.9655845 12.203165 2.9655845 11.796835 3.1015625 11.425781 C 3.2192753 11.104538 3.8832597 10.505983 5.5898438 9.2734375 C 6.7534091 8.4330773 7.6186965 7.8116231 8.25 7.4414062 C 8.8023906 7.1174666 9.1390734 7.0149685 9.3320312 7.0019531 z M 19.332031 7.0019531 C 19.359595 7.0000937 19.38435 7.0005692 19.40625 7.0019531 C 19.876688 7.0316801 20.310546 7.2515531 20.609375 7.609375 C 20.718998 7.7406537 20.858042 8.0636131 20.927734 8.7871094 C 20.997426 9.5106057 21 10.57123 21 12 C 21 13.42875 20.997404 14.489396 20.927734 15.212891 C 20.858044 15.936386 20.71898 16.259374 20.609375 16.390625 C 20.310556 16.748479 19.87676 16.968284 19.40625 16.998047 C 19.231001 17.009107 18.881307 16.928817 18.25 16.558594 C 17.618693 16.188372 16.753383 15.566955 15.589844 14.726562 C 13.883254 13.49407 13.219297 12.895489 13.101562 12.574219 C 13.037913 12.400501 13.004056 12.219031 13 12.037109 L 13 12 C 13 11.987616 12.999724 11.975272 13 11.962891 C 13.004056 11.780969 13.037913 11.599499 13.101562 11.425781 C 13.219297 11.104511 13.883249 10.505984 15.589844 9.2734375 C 16.753391 8.4330795 17.618694 7.8116231 18.25 7.4414062 C 18.802393 7.1174666 19.139086 7.0149692 19.332031 7.0019531 z " fill="currentColor"/>
</svg>
