<svg xmlns="http://www.w3.org/2000/svg" width="1em" height="1em" viewBox="0 0 24 24" fill="currentColor">
  <path d="M 2 3 A 1 1 0 0 0 1 4 L 1 20 A 1 1 0 0 0 2 21 A 1 1 0 0 0 3 20 L 3 4 A 1 1 0 0 0 2 3 z M 5 3 A 1 1 0 0 0 4 4 L 4 20 A 1 1 0 0 0 5 21 A 1 1 0 0 0 6 20 L 6 4 A 1 1 0 0 0 5 3 z M 10 3 C 9.528595 3 9.1551289 2.9930802 8.7695312 3.0449219 C 8.3839336 3.0967636 7.9220631 3.2498234 7.5859375 3.5859375 C 7.2498234 3.9220631 7.0967636 4.3839336 7.0449219 4.7695312 C 6.9930802 5.1551289 7 5.528595 7 6 L 7 18 C 7 18.4714 6.9930799 18.844872 7.0449219 19.230469 C 7.0967639 19.616065 7.2498234 20.077938 7.5859375 20.414062 C 7.9220598 20.750186 8.3839299 20.903234 8.7695312 20.955078 C 9.1551324 21.006922 9.528595 21 10 21 C 10.4714 21 10.844869 21.006898 11.230469 20.955078 C 11.616069 20.903238 12.07794 20.750186 12.414062 20.414062 C 12.750184 20.077941 12.903234 19.616069 12.955078 19.230469 C 13.006922 18.844867 13 18.4714 13 18 L 13 6 C 13 5.528595 13.006922 5.1551325 12.955078 4.7695312 C 12.903234 4.3839301 12.750184 3.9220598 12.414062 3.5859375 C 12.077936 3.2498234 11.616065 3.0967637 11.230469 3.0449219 C 10.844872 2.9930801 10.4714 3 10 3 z M 15 3 A 1 1 0 0 0 14 4 L 14 20 A 1 1 0 0 0 15 21 A 1 1 0 0 0 16 20 L 16 4 A 1 1 0 0 0 15 3 z M 20 3 C 19.5286 3 19.155128 2.9930799 18.769531 3.0449219 C 18.383935 3.0967639 17.922064 3.2498234 17.585938 3.5859375 C 17.249816 3.9220597 17.096766 4.38393 17.044922 4.7695312 C 16.993078 5.1551325 17 5.528595 17 6 L 17 18 C 17 18.4714 16.993102 18.844869 17.044922 19.230469 C 17.096762 19.616069 17.249815 20.07794 17.585938 20.414062 C 17.922061 20.750186 18.383931 20.903234 18.769531 20.955078 C 19.155133 21.006922 19.5286 21 20 21 C 20.4714 21 20.844869 21.006898 21.230469 20.955078 C 21.616069 20.903238 22.07794 20.750186 22.414062 20.414062 C 22.750186 20.077941 22.903234 19.616069 22.955078 19.230469 C 23.006922 18.844867 23 18.4714 23 18 L 23 6 C 23 5.528595 23.006922 5.1551325 22.955078 4.7695312 C 22.903234 4.3839301 22.750186 3.9220598 22.414062 3.5859375 C 22.077937 3.2498234 21.616065 3.0967637 21.230469 3.0449219 C 20.844872 2.9930801 20.4714 3 20 3 z M 10 5 C 10.4714 5 10.805815 5.0059597 10.964844 5.0273438 C 10.96719 5.0276592 10.970413 5.02704 10.972656 5.0273438 C 10.97296 5.0295867 10.972341 5.0328099 10.972656 5.0351562 C 10.994037 5.1941825 11 5.528595 11 6 L 11 18 C 11 18.4714 10.993996 18.805819 10.972656 18.964844 C 10.972341 18.967191 10.97296 18.970413 10.972656 18.972656 C 10.970411 18.97296 10.967193 18.97234 10.964844 18.972656 C 10.805823 18.994033 10.4714 19 10 19 C 9.528595 19 9.1941824 18.994037 9.0351562 18.972656 C 9.03281 18.972341 9.0295865 18.97296 9.0273438 18.972656 C 9.0270399 18.970412 9.0276594 18.967191 9.0273438 18.964844 C 9.0059629 18.805819 9 18.4714 9 18 L 9 6 C 9 5.528595 9.005963 5.1941861 9.0273438 5.0351562 C 9.0276592 5.0328099 9.02704 5.0295866 9.0273438 5.0273438 C 9.0295867 5.02704 9.0328099 5.0276592 9.0351562 5.0273438 C 9.1941863 5.0059628 9.528595 5 10 5 z M 20 5 C 20.4714 5 20.805815 5.0059597 20.964844 5.0273438 C 20.96719 5.0276592 20.970413 5.02704 20.972656 5.0273438 C 20.97296 5.0295867 20.972341 5.0328099 20.972656 5.0351562 C 20.994037 5.1941825 21 5.528595 21 6 L 21 18 C 21 18.4714 20.993996 18.805819 20.972656 18.964844 C 20.972341 18.967191 20.97296 18.970413 20.972656 18.972656 C 20.970411 18.97296 20.967193 18.97234 20.964844 18.972656 C 20.805823 18.994033 20.4714 19 20 19 C 19.5286 19 19.194181 18.993996 19.035156 18.972656 C 19.032809 18.972341 19.029587 18.97296 19.027344 18.972656 C 19.02704 18.970411 19.02766 18.967193 19.027344 18.964844 C 19.005967 18.805823 19 18.4714 19 18 L 19 6 C 19 5.528595 19.006004 5.1941825 19.027344 5.0351562 C 19.027659 5.0328103 19.02704 5.0295863 19.027344 5.0273438 C 19.029589 5.0270397 19.032807 5.0276596 19.035156 5.0273438 C 19.194181 5.0059628 19.5286 5 20 5 z " fill="currentColor"/>
</svg>
