<svg xmlns="http://www.w3.org/2000/svg" width="1em" height="1em" viewBox="0 0 24 24" fill="currentColor">
  <path d="M 9.1464844 2 C 7.5432544 2 6.4386198 2.0061225 5.3378906 2.7128906 C 4.3080235 3.3741547 3.8697325 4.2033718 3.4023438 5.2246094 C 2.5088599 7.1768878 2 9.5034596 2 12 C 2 14.496559 2.5088619 16.823095 3.4023438 18.775391 C 3.8697326 19.796588 4.3080558 20.625795 5.3378906 21.287109 C 6.4386171 21.993812 7.5432544 22 9.1464844 22 L 14.853516 22 C 16.456716 22 17.56134 21.9938 18.662109 21.287109 C 19.69192 20.625795 20.130256 19.796591 20.597656 18.775391 C 21.491129 16.823092 22 14.496554 22 12 C 22 9.5034653 21.491131 7.1768909 20.597656 5.2246094 C 20.130256 4.2033694 19.691952 3.3741545 18.662109 2.7128906 C 17.561338 2.0061524 16.456716 2 14.853516 2 L 9.1464844 2 z M 8.5585938 4 C 8.3638265 4.6171799 8.1944883 5.2870153 8.0507812 6 L 5.2480469 6 C 5.6901569 5.0297765 5.7331644 4.8361881 6.4179688 4.3964844 C 6.961511 4.0474808 7.4070823 4.0049569 8.5585938 4 z M 10.675781 4 L 13.324219 4 C 13.536021 4.5785382 13.729614 5.251842 13.894531 6 L 10.105469 6 C 10.270386 5.2518401 10.463974 4.5785359 10.675781 4 z M 15.441406 4 C 16.592889 4.0049508 17.038404 4.0474522 17.582031 4.3964844 C 18.26682 4.8361883 18.309835 5.0297789 18.751953 6 L 15.949219 6 C 15.80551 5.2870136 15.636169 4.617179 15.441406 4 z M 4.5214844 8 L 7.7304688 8 C 7.5788299 9.2515168 7.5 10.59596 7.5 12 C 7.5 13.40405 7.5788307 14.748491 7.7304688 16 L 4.5214844 16 C 4.1868392 14.774137 4 13.421757 4 12 C 4 10.578259 4.18684 9.2258667 4.5214844 8 z M 9.7578125 8 L 14.242188 8 C 14.405996 9.2326205 14.5 10.585604 14.5 12 C 14.5 13.414411 14.405994 14.76739 14.242188 16 L 9.7578125 16 C 9.5940098 14.76739 9.5 13.41441 9.5 12 C 9.5 10.585605 9.594008 9.2326204 9.7578125 8 z M 16.269531 8 L 19.478516 8 C 19.81316 9.2258649 20 10.578256 20 12 C 20 13.421759 19.813161 14.774139 19.478516 16 L 16.269531 16 C 16.421175 14.748491 16.5 13.40405 16.5 12 C 16.5 10.595961 16.421176 9.2515167 16.269531 8 z M 5.2480469 18 L 8.0507812 18 C 8.1944887 18.712984 8.3638265 19.38282 8.5585938 20 C 7.407082 19.995034 6.9615135 19.952478 6.4179688 19.603516 C 5.7331334 19.163744 5.6901546 18.970183 5.2480469 18 z M 10.105469 18 L 13.894531 18 C 13.729613 18.748155 13.536023 19.421457 13.324219 20 L 10.675781 20 C 10.463972 19.42146 10.270386 18.748157 10.105469 18 z M 15.949219 18 L 18.751953 18 C 18.309837 18.97018 18.266852 19.163744 17.582031 19.603516 C 17.038401 19.952516 16.59289 19.995042 15.441406 20 C 15.636169 19.382821 15.805509 18.712986 15.949219 18 z " fill="currentColor"/>
</svg>
