<svg xmlns="http://www.w3.org/2000/svg" width="1em" height="1em" viewBox="0 0 24 24" fill="currentColor">
  <path d="M 12 2 C 8.25027 2 6.1528417 1.9257667 4.4726562 3.1464844 C 3.963298 3.5165602 3.5165602 3.963298 3.1464844 4.4726562 C 1.9257667 6.1528417 2 8.25027 2 12 C 2 15.7497 1.92575 17.847174 3.1464844 19.527344 C 3.5165632 20.036742 3.9632897 20.483434 4.4726562 20.853516 C 6.152842 22.074221 8.25027 22 12 22 C 15.7497 22 17.847174 22.07424 19.527344 20.853516 C 20.03675 20.483431 20.483431 20.03675 20.853516 19.527344 C 22.074237 17.847174 22 15.7497 22 12 C 22 8.25027 22.074221 6.1528419 20.853516 4.4726562 C 20.483434 3.9632897 20.036742 3.5165632 19.527344 3.1464844 C 17.847174 1.9257505 15.7497 2 12 2 z M 12 4 C 15.7497 4 17.403132 4.074586 18.351562 4.7636719 C 18.691164 5.0103931 18.98961 5.308864 19.236328 5.6484375 C 19.925423 6.5969119 20 8.25027 20 12 C 20 15.7497 19.92541 17.403132 19.236328 18.351562 C 18.989613 18.691157 18.691156 18.989613 18.351562 19.236328 C 17.403132 19.925407 15.7497 20 12 20 C 8.25027 20 6.5969119 19.925423 5.6484375 19.236328 C 5.308864 18.98961 5.0103931 18.691164 4.7636719 18.351562 C 4.0745858 17.403132 4 15.7497 4 12 C 4 8.25027 4.0745696 6.596912 4.7636719 5.6484375 C 5.0103961 5.3088557 5.3088557 5.0103961 5.6484375 4.7636719 C 6.596912 4.0745696 8.25027 4 12 4 z M 7.0566406 6 A 1 1 0 0 0 6.9257812 6.0019531 A 1 1 0 0 0 6.2421875 6.3476562 A 1 1 0 0 0 6.3476562 7.7578125 L 7.5742188 8.8144531 C 7.6832396 8.9084203 7.702923 8.9313043 7.7792969 9 C 7.7029212 9.0686979 7.6832415 9.091576 7.5742188 9.1855469 L 6.3476562 10.242188 A 1 1 0 0 0 6.2421875 11.652344 A 1 1 0 0 0 7.6523438 11.757812 L 8.8789062 10.701172 C 9.1367247 10.478948 9.3478071 10.304024 9.5546875 10.070312 C 9.7615679 9.8366006 10 9.4492889 10 9 C 10 8.5507111 9.7615696 8.1634028 9.5546875 7.9296875 C 9.3478054 7.6959722 9.136729 7.5210505 8.8789062 7.2988281 L 7.6523438 6.2421875 A 1 1 0 0 0 7.0566406 6 z M 11 10 A 1 1 0 0 0 10 11 A 1 1 0 0 0 11 12 L 14 12 A 1 1 0 0 0 15 11 A 1 1 0 0 0 14 10 L 11 10 z " fill="currentColor"/>
</svg>
