<svg xmlns="http://www.w3.org/2000/svg" width="1em" height="1em" viewBox="0 0 24 24" fill="currentColor">
  <path d="M 9.5 1 C 7.85626 1 6.6055925 0.99580604 5.5449219 1.1230469 C 4.4842513 1.2502877 3.5625734 1.5357473 2.8222656 2.1523438 C 2.5692407 2.3630813 2.3381324 2.5991519 2.1308594 2.8554688 C 1.5246258 3.6051616 1.2459679 4.5294051 1.1210938 5.6015625 C 0.9962197 6.6737199 1 7.9431181 1 9.6113281 C 1 11.279558 0.99622005 12.548936 1.1210938 13.621094 C 1.245968 14.693252 1.5246218 15.617503 2.1308594 16.367188 C 2.3380748 16.623372 2.5692282 16.859552 2.8222656 17.070312 C 3.3798478 17.53472 4.0513755 17.820084 4.7890625 17.978516 A 1 1 0 0 0 5.9785156 17.210938 A 1 1 0 0 0 5.2109375 16.021484 C 4.6923845 15.910116 4.3772204 15.762797 4.1015625 15.533203 C 3.9495199 15.406564 3.8107714 15.264192 3.6855469 15.109375 C 3.3838245 14.73626 3.2095377 14.267382 3.1074219 13.390625 C 3.005306 12.513868 3 11.279558 3 9.6113281 C 3 7.9431181 3.005306 6.710742 3.1074219 5.8339844 C 3.2095378 4.9572268 3.3838205 4.4864084 3.6855469 4.1132812 C 3.8107139 3.958498 3.9495075 3.8160956 4.1015625 3.6894531 C 4.4676047 3.3845795 4.9235462 3.2105486 5.7832031 3.1074219 C 6.64286 3.0042952 7.85626 3 9.5 3 L 14.5 3 C 16.14375 3 17.357141 3.0043 18.216797 3.1074219 C 19.076453 3.2105486 19.532359 3.3845632 19.898438 3.6894531 C 20.050489 3.8161168 20.189317 3.958518 20.314453 4.1132812 C 20.616194 4.4864099 20.790458 4.9572309 20.892578 5.8339844 C 20.994698 6.7107379 21 7.9431181 21 9.6113281 C 21 11.279558 20.9947 12.513872 20.892578 13.390625 C 20.790458 14.267378 20.61619 14.736258 20.314453 15.109375 C 20.18926 15.264172 20.050476 15.406542 19.898438 15.533203 C 19.62263 15.762877 19.307589 15.910118 18.789062 16.021484 A 1 1 0 0 0 18.021484 17.210938 A 1 1 0 0 0 19.210938 17.978516 C 19.948611 17.820082 20.620141 17.53464 21.177734 17.070312 C 21.430696 16.859573 21.661934 16.623392 21.869141 16.367188 C 22.475404 15.617506 22.754026 14.693256 22.878906 13.621094 C 23.003786 12.548932 23 11.279558 23 9.6113281 C 23 7.9431181 23.003786 6.673724 22.878906 5.6015625 C 22.754026 4.529401 22.4754 3.6051601 21.869141 2.8554688 C 21.661876 2.599132 21.430684 2.36306 21.177734 2.1523438 C 20.437413 1.5357636 19.515747 1.2502877 18.455078 1.1230469 C 17.394409 0.99580603 16.14375 1 14.5 1 L 9.5 1 z M 10.998047 7 C 10.120787 7 9.2759064 6.9574769 8.4316406 7.3691406 C 7.5873748 7.7808043 7.0356518 8.7899211 7 9.9707031 A 1 1 0 0 0 7.9707031 11 A 1 1 0 0 0 9 10.029297 C 9.0232782 9.2583288 9.1026895 9.2664144 9.3085938 9.1660156 C 9.5144978 9.0656168 10.139317 9 10.998047 9 L 13.001953 9 C 13.860689 9 14.485501 9.065617 14.691406 9.1660156 C 14.897312 9.2664146 14.976734 9.2583327 15 10.029297 A 1 1 0 0 0 16.029297 11 A 1 1 0 0 0 17 9.9707031 C 16.964366 8.7899172 16.412629 7.7808041 15.568359 7.3691406 C 14.72409 6.9574771 13.879218 7 13.001953 7 L 10.998047 7 z M 6 12 A 1 1 0 0 0 5 13 A 1 1 0 0 0 6 14 L 6.4550781 14 L 7.5078125 22.128906 A 1 1 0 0 0 8.6289062 22.992188 A 1 1 0 0 0 9.4921875 21.871094 L 9.3789062 21 L 11 21 L 11 22 A 1 1 0 0 0 12 23 A 1 1 0 0 0 13 22 L 13 21 L 14.621094 21 L 14.507812 21.871094 A 1 1 0 0 0 15.371094 22.992188 A 1 1 0 0 0 16.492188 22.128906 L 17.544922 14 L 18 14 A 1 1 0 0 0 19 13 A 1 1 0 0 0 18 12 L 16.666016 12 L 12 12 L 7.3339844 12 L 6 12 z M 8.4707031 14 L 11 14 L 11 15.5 L 8.6660156 15.5 L 8.4707031 14 z M 13 14 L 15.529297 14 L 15.333984 15.5 L 13 15.5 L 13 14 z M 8.9257812 17.5 L 11 17.5 L 11 19 L 9.1191406 19 L 8.9257812 17.5 z M 13 17.5 L 15.074219 17.5 L 14.880859 19 L 13 19 L 13 17.5 z " fill="currentColor"/>
</svg>
