<svg xmlns="http://www.w3.org/2000/svg" width="1em" height="1em" viewBox="0 0 24 24" fill="currentColor">
  <path d="M 4.96875 1 C 4.2362277 1.0134587 3.72182 1.5028326 3.3925781 1.9902344 C 3.0587107 2.4844838 2.8244202 3.0774197 2.625 3.7753906 C 2.2261597 5.1713324 2 6.9897992 2 9 C 2 11.010206 2.2261596 12.828669 2.625 14.224609 C 2.8244202 14.92258 3.0587104 15.515517 3.3925781 16.009766 C 3.721825 16.497173 4.2362126 16.986555 4.96875 17 C 4.9790311 17.000189 4.989633 17 5 17 A 1 1 0 0 0 5.0292969 17 C 5.1493376 16.997847 5.2645607 16.982629 5.3730469 16.957031 L 8.1914062 16.554688 L 9.9589844 18.087891 L 7.2324219 21.359375 A 1 1 0 0 0 7.359375 22.767578 A 1 1 0 0 0 8.7675781 22.640625 L 11.470703 19.396484 L 15.345703 22.755859 A 1 1 0 0 0 16.755859 22.654297 A 1 1 0 0 0 16.654297 21.244141 L 12.75 17.861328 L 14.763672 15.445312 L 14.765625 15.443359 A 1 1 0 0 0 14.939453 15.234375 A 1 1 0 0 0 14.943359 15.228516 L 18.767578 10.640625 A 1 1 0 0 0 18.640625 9.2324219 A 1 1 0 0 0 17.910156 9.0039062 A 1 1 0 0 0 17.232422 9.359375 L 13.560547 13.767578 L 10.242188 14.240234 C 10.703257 12.616486 10.951485 10.937636 11.009766 9.6132812 A 1.0001 1.0001 0 0 0 11.011719 9.6015625 C 11.096323 7.0346229 10.740162 5.2636792 10.263672 3.7617188 L 15.96875 4.5761719 C 17.313657 4.768297 18.300649 5.2311265 18.955078 5.9199219 C 19.609507 6.6087173 20 7.5608945 20 9 C 20 9.8569774 19.790898 10.808878 19.390625 11.5625 C 18.990352 12.316122 18.438829 12.856561 17.691406 13.099609 A 1 1 0 0 0 17.048828 14.361328 A 1 1 0 0 0 18.308594 15.001953 C 19.626171 14.573501 20.574726 13.600506 21.158203 12.501953 C 21.74168 11.4034 22 10.165223 22 9 C 22 7.1753655 21.446096 5.6354677 20.40625 4.5410156 C 19.366404 3.4465635 17.909346 2.834421 16.251953 2.5976562 L 5.3730469 1.0429688 C 5.2644878 1.0173337 5.1513812 1.0021565 5.03125 1 A 1 1 0 0 0 5 1 C 4.9896225 1 4.9790414 0.99981092 4.96875 1 z M 5 3.2324219 C 5.1385415 3.4638389 5.3070641 3.8130053 5.453125 4.3242188 C 5.7781422 5.4617795 6 7.1442108 6 9 C 6 10.855794 5.7781421 12.538222 5.453125 13.675781 C 5.3070641 14.186994 5.1385413 14.536162 5 14.767578 C 4.8614587 14.536162 4.6929359 14.186994 4.546875 13.675781 C 4.2218579 12.538222 4 10.855794 4 9 C 4 7.1442108 4.2218578 5.4617795 4.546875 4.3242188 C 4.6929359 3.8130053 4.8614585 3.4638389 5 3.2324219 z M 7.2382812 3.3300781 L 8.0800781 3.4492188 C 8.6590975 4.8153156 9.1082949 6.5692784 9.0117188 9.5292969 C 8.944886 11.043138 8.6718799 13.027462 8.0859375 14.548828 L 7.2382812 14.669922 C 7.2862089 14.526491 7.3311352 14.378136 7.375 14.224609 C 7.7738404 12.828669 8 11.010206 8 9 C 8 6.9897992 7.7738403 5.1713324 7.375 3.7753906 C 7.331047 3.6215552 7.2863149 3.4737768 7.2382812 3.3300781 z M 11.648438 16.060547 L 11.240234 16.550781 L 10.8125 16.179688 L 11.648438 16.060547 z " fill="currentColor"/>
</svg>
