<svg xmlns="http://www.w3.org/2000/svg" width="1em" height="1em" viewBox="0 0 24 24" fill="currentColor">
  <path d="M 9 1 C 4.5935666 1 1 4.5935666 1 9 C 1 11.671697 2.3214148 14.043807 4.34375 15.498047 C 3.8492902 15.825543 3.4587317 16.295841 3.2285156 16.851562 C 2.9619852 17.495129 3 18.0681 3 19 C 3 19.9319 2.961985 20.504872 3.2285156 21.148438 C 3.5328536 21.883084 4.1168017 22.467115 4.8515625 22.771484 C 5.4951207 23.037978 6.06812 23 7 23 L 11 23 C 11.9319 23 12.504911 23.03793 13.148438 22.771484 C 13.883121 22.467115 14.467115 21.883122 14.771484 21.148438 C 14.932748 20.758947 14.981933 20.395925 14.996094 19.962891 C 17.625224 19.760996 19.45691 18.787262 20.419922 17.970703 C 21.86927 17.763613 23 16.502532 23 15 C 23 13.35499 21.64501 12 20 12 C 18.35499 12 17 13.35499 17 15 C 17 15.839433 17.351858 16.603509 17.916016 17.150391 C 17.17925 17.492717 16.187216 17.824937 14.994141 17.949219 C 14.976024 17.55477 14.921557 17.214024 14.771484 16.851562 C 14.541248 16.29582 14.15068 15.825533 13.65625 15.498047 C 15.678593 14.043808 17 11.671702 17 9 C 17 4.5935666 13.406433 1 9 1 z M 9 3 C 12.325553 3 15 5.6744469 15 9 C 15 12.325553 12.325553 15 9 15 C 5.6744469 15 3 12.325553 3 9 C 3 5.6744469 5.6744469 3 9 3 z M 9 7.5 C 8.1834095 7.5 7.5 8.1834095 7.5 9 C 7.5 9.8165905 8.1834095 10.5 9 10.5 C 9.8165905 10.5 10.5 9.8165905 10.5 9 C 10.5 8.1834095 9.8165905 7.5 9 7.5 z M 20 14 C 20.564129 14 21 14.435871 21 15 C 21 15.564129 20.564129 16 20 16 C 19.435871 16 19 15.564129 19 15 C 19 14.435871 19.435871 14 20 14 z M 7 17 L 9 17 L 11 17 C 11.9319 17 12.291137 17.038222 12.382812 17.076172 C 12.628127 17.177802 12.822198 17.371872 12.923828 17.617188 C 12.961785 17.708864 13 18.0681 13 19 C 13 19.9319 12.961788 20.291138 12.923828 20.382812 C 12.822198 20.628128 12.628127 20.822198 12.382812 20.923828 C 12.291135 20.961785 11.9319 21 11 21 L 7 21 C 6.06812 21 5.7087293 20.961735 5.6171875 20.923828 C 5.3718483 20.822198 5.1778139 20.628167 5.0761719 20.382812 C 5.0382223 20.291179 5 19.9319 5 19 C 5 18.0681 5.0382223 17.708821 5.0761719 17.617188 C 5.1778139 17.371833 5.3718483 17.177802 5.6171875 17.076172 C 5.7087293 17.038265 6.06812 17 7 17 z " fill="currentColor"/>
</svg>
