<svg xmlns="http://www.w3.org/2000/svg" width="1em" height="1em" viewBox="0 0 24 24" fill="currentColor">
  <path d="M 16.164062 3.0039062 C 15.61236 2.987717 15.122965 3.0134806 14.757812 3.03125 A 1.0001 1.0001 0 0 0 13.839844 4.2929688 L 14.693359 7.4316406 A 1 1 0 0 0 14.630859 7.5273438 L 12.234375 11.732422 L 9.0742188 7.9492188 A 1 1 0 0 0 10 7.0234375 A 1 1 0 0 0 9 6.0234375 L 7 6.0234375 L 5 6.0234375 A 1 1 0 0 0 4 7.0234375 A 1 1 0 0 0 5 8.0234375 L 6.5332031 8.0234375 L 11.177734 13.587891 L 10.726562 14.380859 C 10.047443 12.425868 8.1801529 11.013672 6 11.013672 C 3.2514344 11.013672 1 13.259481 1 16.005859 C 1 18.752238 3.2514646 20.998047 6 20.998047 C 8.4324861 20.998047 10.476347 19.239914 10.914062 16.931641 C 11.412906 16.790837 11.846229 16.458265 12.109375 15.996094 L 15.435547 10.15625 L 15.806641 11.523438 C 14.148608 12.338336 13 14.044169 13 16.005859 C 13 18.75225 15.251495 20.998047 18 20.998047 C 20.748505 20.998047 23 18.75225 23 16.005859 C 23 13.259468 20.748535 11.013672 18 11.013672 C 17.913718 11.013672 17.827435 11.015159 17.742188 11.019531 L 16.132812 5.0996094 C 16.598948 5.1127474 17.03601 5.065817 17.464844 5.171875 C 18.30555 5.3797949 18.812709 5.6738807 19.023438 6.4667969 A 1 1 0 0 0 20.248047 7.1757812 A 1 1 0 0 0 20.957031 5.953125 C 20.535461 4.3668708 19.176381 3.5349313 17.945312 3.2304688 C 17.329778 3.0782374 16.715765 3.0200955 16.164062 3.0039062 z M 6 13.013672 C 7.3169939 13.013672 8.4236001 13.840341 8.8320312 15.005859 L 6 15.005859 A 1 1 0 0 0 5 16.005859 A 1 1 0 0 0 6 17.005859 L 8.8320312 17.005859 C 8.4236071 18.171378 7.3170179 18.998047 6 18.998047 C 4.3302554 18.998047 3 17.669281 3 16.005859 C 3 14.342438 4.3302856 13.013672 6 13.013672 z M 18.289062 13.027344 C 19.820972 13.170048 21 14.439415 21 16.005859 C 21 17.669268 19.669695 18.998047 18 18.998047 C 16.330305 18.998047 15 17.669268 15 16.005859 C 15 14.953964 15.532321 14.036763 16.345703 13.503906 L 17.087891 16.232422 A 1 1 0 0 0 18.316406 16.935547 A 1 1 0 0 0 19.017578 15.708984 L 18.289062 13.027344 z " fill="currentColor"/>
</svg>
