<svg xmlns="http://www.w3.org/2000/svg" width="1em" height="1em" viewBox="0 0 24 24" fill="currentColor">
  <path d="M 7.3730469 1.0136719 C 6.8809188 1.0471893 6.3924486 1.1484992 5.921875 1.3164062 A 1.0001 1.0001 0 0 0 5.3164062 1.921875 C 4.6447924 3.8041637 5.0450305 5.9825305 6.53125 7.46875 C 7.740162 8.677662 9.4070284 9.1678135 11 8.9472656 L 11 11 L 7.5175781 11 L 3.8964844 11 C 3.6821144 11 3.5020518 10.994104 3.2617188 11.027344 C 3.0213857 11.060624 2.6558778 11.179011 2.4023438 11.441406 C 2.153005 11.69944 2.0429175 12.063262 2.015625 12.302734 C 1.988333 12.542207 2.0007744 12.721953 2.0058594 12.933594 C 2.0167624 13.386662 2.0416894 13.854045 2.1074219 14.333984 C 2.1195369 14.422434 2.1250056 14.506462 2.1660156 14.660156 C 2.2070256 14.813851 2.3256461 15.098956 2.5761719 15.294922 A 1.0001 1.0001 0 0 0 2.5761719 15.296875 C 2.8708876 15.527368 3.1744961 15.540295 3.3300781 15.539062 C 3.4856602 15.537862 3.5782697 15.522066 3.6835938 15.509766 C 4.2446811 15.444126 4.8613281 15.933265 4.8613281 16.583984 C 4.8613281 16.91985 4.7204072 17.206836 4.5 17.404297 C 4.421952 17.474177 4.3491308 17.531988 4.2460938 17.646484 C 4.1430568 17.760981 3.9573155 17.991237 3.9296875 18.355469 C 3.9058905 18.669196 4.0347393 18.948432 4.1191406 19.082031 C 4.2035416 19.21563 4.2601938 19.277205 4.3164062 19.345703 C 4.7688795 19.896753 5.2793212 20.39848 5.8359375 20.841797 C 5.8953305 20.889087 5.950559 20.939107 6.0742188 21.015625 C 6.1978786 21.092145 6.4474146 21.207452 6.7304688 21.199219 C 7.0575069 21.189719 7.282394 21.045532 7.3964844 20.962891 C 7.5105748 20.880251 7.5681074 20.823276 7.6347656 20.763672 C 7.82096 20.597145 8.0511098 20.5 8.3164062 20.5 C 8.8671104 20.5 9.337186 20.996076 9.3613281 21.548828 C 9.3652281 21.638138 9.3648186 21.718106 9.3847656 21.855469 C 9.4046666 21.992479 9.4567596 22.246555 9.6699219 22.486328 C 9.8551203 22.694195 10.106639 22.799794 10.246094 22.837891 C 10.385548 22.875991 10.459321 22.881508 10.533203 22.892578 C 11.496665 23.036611 12.503335 23.036611 13.466797 22.892578 C 13.540677 22.881508 13.614452 22.875991 13.753906 22.837891 C 13.893361 22.799791 14.14488 22.694195 14.330078 22.486328 C 14.543241 22.246555 14.595333 21.992479 14.615234 21.855469 C 14.635184 21.718106 14.634772 21.638136 14.638672 21.548828 C 14.662813 20.996058 15.132844 20.5 15.683594 20.5 C 15.948905 20.5 16.179093 20.59722 16.365234 20.763672 C 16.431884 20.823272 16.489443 20.880247 16.603516 20.962891 C 16.717589 21.045531 16.942415 21.189701 17.269531 21.199219 C 17.5523 21.207419 17.802045 21.09221 17.925781 21.015625 C 18.049517 20.939035 18.104733 20.889051 18.164062 20.841797 C 18.72041 20.398738 19.229415 19.896312 19.681641 19.345703 C 19.737991 19.277083 19.796435 19.215648 19.880859 19.082031 C 19.965279 18.948414 20.093818 18.670677 20.070312 18.357422 A 1.0001 1.0001 0 0 0 20.070312 18.355469 C 20.042488 17.991316 19.856894 17.76089 19.753906 17.646484 C 19.650919 17.532079 19.577999 17.474141 19.5 17.404297 C 19.279589 17.206842 19.138672 16.919861 19.138672 16.583984 C 19.138672 15.933286 19.755306 15.444127 20.316406 15.509766 C 20.421724 15.522066 20.514344 15.537823 20.669922 15.539062 C 20.8255 15.540263 21.128794 15.525863 21.423828 15.294922 C 21.674097 15.099022 21.792928 14.813869 21.833984 14.660156 C 21.875044 14.506443 21.880458 14.42263 21.892578 14.333984 C 21.958228 13.854179 21.983208 13.386662 21.994141 12.933594 C 21.999241 12.721945 22.011705 12.542234 21.984375 12.302734 C 21.957075 12.063235 21.84702 11.699427 21.597656 11.441406 C 21.344138 11.179044 20.978607 11.060625 20.738281 11.027344 C 20.497955 10.994062 20.317866 11 20.103516 11 L 17 11 L 13 11 L 13 10.976562 C 14.318805 11.104708 15.678092 10.67352 16.675781 9.6757812 C 17.961099 8.3903996 18.30676 6.504906 17.726562 4.8789062 A 1.0001 1.0001 0 0 0 17.121094 4.2734375 C 16.308123 3.9833437 15.428836 3.9251214 14.59375 4.0996094 C 13.963829 4.2312289 13.359447 4.4948731 12.824219 4.8925781 C 12.596011 4.0242096 12.144047 3.2065357 11.46875 2.53125 C 10.725641 1.7881412 9.809328 1.316844 8.84375 1.1152344 C 8.360961 1.0144295 7.865175 0.98015447 7.3730469 1.0136719 z M 8.1132812 3.0351562 C 8.218275 3.0362819 8.3219727 3.0449963 8.4257812 3.0664062 C 9.0261857 3.1902365 9.5928158 3.4834413 10.054688 3.9453125 C 10.835989 4.7266008 11.024569 5.8028195 10.839844 6.8398438 C 9.8028269 7.024572 8.7266096 6.8359846 7.9453125 6.0546875 C 7.164017 5.273392 6.9754296 4.1971673 7.1601562 3.1601562 C 7.4781342 3.1035127 7.7983 3.0317792 8.1132812 3.0351562 z M 15.228516 6.03125 C 15.444998 6.0320392 15.665044 6.0861936 15.884766 6.1152344 C 15.986825 6.8900139 15.842466 7.6809388 15.261719 8.2617188 C 14.680715 8.8427511 13.890372 8.9872137 13.115234 8.8847656 C 13.013176 8.1099901 13.157534 7.3190594 13.738281 6.7382812 C 14.099696 6.3768487 14.543758 6.1474906 15.013672 6.0507812 C 15.08505 6.0360915 15.156355 6.0309869 15.228516 6.03125 z M 4.0117188 13 L 6.7773438 13 C 7.4088271 15.370776 9.4606538 17.167969 12 17.167969 C 14.539325 17.167969 16.591137 15.370764 17.222656 13 L 19.988281 13 C 19.981981 13.201685 19.960803 13.392358 19.945312 13.585938 C 18.426889 13.725696 17.138672 14.950192 17.138672 16.583984 C 17.138672 17.276842 17.418964 17.882922 17.806641 18.402344 C 17.594953 18.632108 17.376756 18.855155 17.140625 19.058594 C 16.689658 18.792978 16.239335 18.5 15.683594 18.5 C 14.235659 18.5 13.212547 19.596058 12.882812 20.914062 C 12.300636 20.978403 11.699364 20.978403 11.117188 20.914062 C 10.787449 19.596051 9.7643283 18.5 8.3164062 18.5 C 7.7606683 18.5 7.310335 18.792987 6.859375 19.058594 C 6.6232367 18.85514 6.4050571 18.632109 6.1933594 18.402344 C 6.5810224 17.88293 6.8613281 17.27685 6.8613281 16.583984 C 6.8613281 14.950211 5.5730995 13.725698 4.0546875 13.585938 C 4.0392001 13.392398 4.0179951 13.201678 4.0117188 13 z M 8.78125 13 L 15.21875 13 C 14.684077 14.280756 13.446356 15.167969 12 15.167969 C 10.553618 15.167969 9.3159073 14.280749 8.78125 13 z " fill="currentColor"/>
</svg>
