<svg xmlns="http://www.w3.org/2000/svg" width="1em" height="1em" viewBox="0 0 24 24" fill="currentColor">
  <path d="M 12 1 C 11.134652 1 10.291839 1.2814894 9.5996094 1.8007812 L 2.4003906 7.2011719 A 1 1 0 0 0 2.1992188 8.5996094 A 1 1 0 0 0 3.5996094 8.8007812 L 4.2246094 8.3320312 L 5.8007812 17 L 5 17 A 1 1 0 0 0 4 18 A 1 1 0 0 0 5 19 L 11 19 L 11 22 A 1 1 0 0 0 12 23 A 1 1 0 0 0 13 22 L 13 19 L 19 19 A 1 1 0 0 0 20 18 A 1 1 0 0 0 19 17 L 18.199219 17 L 19.775391 8.3320312 L 20.400391 8.8007812 A 1 1 0 0 0 21.800781 8.5996094 A 1 1 0 0 0 21.599609 7.2011719 L 14.400391 1.8007812 C 13.708115 1.2815415 12.865348 1 12 1 z M 12 3 C 12.432852 3 12.852894 3.1406303 13.199219 3.4003906 L 17.984375 6.9902344 L 16.166016 17 L 7.8339844 17 L 6.015625 6.9902344 L 10.800781 3.4003906 C 11.146952 3.1407026 11.567148 3 12 3 z M 12 6 C 10.35499 6 9 7.3549904 9 9 C 9 10.64501 10.35499 12 12 12 C 13.64501 12 15 10.64501 15 9 C 15 7.3549904 13.64501 6 12 6 z M 12 8 C 12.564129 8 13 8.4358706 13 9 C 13 9.5641294 12.564129 10 12 10 C 11.435871 10 11 9.5641294 11 9 C 11 8.4358706 11.435871 8 12 8 z M 12 13.25 C 11.32142 13.25 10.75 13.821229 10.75 14.5 C 10.75 15.178771 11.32142 15.75 12 15.75 C 12.678288 15.75 13.25 15.178288 13.25 14.5 C 13.25 13.821712 12.678288 13.25 12 13.25 z " fill="currentColor"/>
</svg>
