<svg xmlns="http://www.w3.org/2000/svg" width="1em" height="1em" viewBox="0 0 24 24" fill="currentColor">
  <path d="M 10 2 C 8.11438 2 6.6810556 1.994573 5.4785156 2.15625 C 4.2759756 2.317927 3.240311 2.689383 2.4648438 3.4648438 C 1.7899741 4.1397191 1.3354757 4.9459245 1.1621094 5.9394531 C 0.98874303 6.9329818 1 8.11438 1 10 A 1 1 0 0 0 2 11 A 1 1 0 0 0 3 10 C 3 8.11438 3.0113332 6.9681845 3.1308594 6.2832031 C 3.2503856 5.5982218 3.3822057 5.3756109 3.8789062 4.8789062 C 4.2750189 4.482797 4.7681706 4.2679344 5.7441406 4.1367188 C 6.7201106 4.0055032 8.11438 4 10 4 L 14.982422 4 C 15.930522 4 16.295405 4.038746 16.388672 4.078125 C 16.629016 4.1795955 16.820489 4.3711335 16.921875 4.6113281 C 16.932985 4.6376361 16.933149 4.9313614 16.943359 5.0078125 C 16.627075 5.0060585 16.355206 5 16 5 L 10 5 A 1 1 0 0 0 9 6 A 1 1 0 0 0 10 7 L 16 7 C 16.7641 7 17.418753 7.0009525 17.970703 7.0175781 C 19.461818 7.0625111 20.049647 7.2215224 20.414062 7.5859375 C 20.663732 7.8356017 20.803832 8.1381434 20.898438 8.8417969 C 20.993043 9.5454504 21 10.585785 21 12 L 21 13 C 21 14.4142 20.993 15.454553 20.898438 16.158203 C 20.803828 16.861853 20.66374 17.164385 20.414062 17.414062 C 20.164386 17.66374 19.861853 17.803832 19.158203 17.898438 C 18.454553 17.993043 17.4142 18 16 18 L 11 18 A 1 1 0 0 0 10 19 A 1 1 0 0 0 11 20 L 16 20 C 17.4142 20 18.495556 20.0059 19.425781 19.880859 C 20.356006 19.75579 21.199103 19.457147 21.828125 18.828125 C 22.457147 18.199103 22.75579 17.356006 22.880859 16.425781 C 23.005928 15.495556 23 14.4142 23 13 L 23 12 C 23 10.585785 23.005928 9.5044477 22.880859 8.5742188 C 22.75579 7.6439896 22.457155 6.8008908 21.828125 6.171875 C 21.095315 5.4390646 20.078797 5.2218396 18.902344 5.1191406 C 18.886098 4.6945465 18.92587 4.2181313 18.763672 3.8339844 C 18.459858 3.114219 17.885671 2.5401576 17.166016 2.2363281 C 16.513282 1.9607276 15.930522 2 14.982422 2 L 10 2 z M 17.5 10.5 C 16.13112 10.5 15 11.63112 15 13 C 15 14.36888 16.13112 15.5 17.5 15.5 C 18.86888 15.5 20 14.36888 20 13 C 20 11.63112 18.86888 10.5 17.5 10.5 z M 5 11 A 1 1 0 0 0 4 12 L 4 12.5 L 3.125 12.5 L 2 12.5 A 1 1 0 0 0 1 13.5 A 1 1 0 0 0 2 14.5 L 2.125 14.5 L 2.125 16.5 L 2.125 18.5 L 2 18.5 A 1 1 0 0 0 1 19.5 A 1 1 0 0 0 2 20.5 L 3.125 20.5 L 4 20.5 L 4 21 A 1 1 0 0 0 5 22 A 1 1 0 0 0 6 21 L 6 20.5 L 6.875 20.5 C 8.0367822 20.5 9 19.536758 9 18.375 L 9 17.625 C 9 17.18879 8.7604106 16.839756 8.5292969 16.5 C 8.7604106 16.160244 9 15.81121 9 15.375 L 9 14.625 C 9 13.463242 8.0367822 12.5 6.875 12.5 L 6 12.5 L 6 12 A 1 1 0 0 0 5 11 z M 17.5 12.5 C 17.78792 12.5 18 12.71208 18 13 C 18 13.28792 17.78792 13.5 17.5 13.5 C 17.21208 13.5 17 13.28792 17 13 C 17 12.71208 17.21208 12.5 17.5 12.5 z M 4.125 14.5 L 5 14.5 L 6.875 14.5 C 6.9558578 14.5 7 14.544158 7 14.625 L 7 15.375 C 7 15.455842 6.9558578 15.5 6.875 15.5 L 4.125 15.5 L 4.125 14.5 z M 4.125 17.5 L 6.875 17.5 C 6.9558578 17.5 7 17.544158 7 17.625 L 7 18.375 C 7 18.455842 6.9558578 18.5 6.875 18.5 L 5 18.5 L 4.125 18.5 L 4.125 17.5 z " fill="currentColor"/>
</svg>
