<svg xmlns="http://www.w3.org/2000/svg" width="1em" height="1em" viewBox="0 0 24 24" fill="currentColor">
  <path d="M 12 1 C 8.9742792 1 6.5 3.4742792 6.5 6.5 L 6.5 8.265625 C 4.8067526 8.7522587 3.5190519 10.226193 3.2773438 12.021484 C 3.1282185 13.128975 3 14.291467 3 15.5 C 3 16.708533 3.1282186 17.871025 3.2773438 18.978516 C 3.5653736 21.117863 5.33873 22.800398 7.5136719 22.900391 C 8.9453549 22.966183 10.400997 23 12 23 C 13.599003 23 15.054655 22.966181 16.486328 22.900391 C 18.661321 22.800401 20.434604 21.117839 20.722656 18.978516 C 20.871818 17.870984 21 16.70851 21 15.5 C 21 14.29149 20.871818 13.129017 20.722656 12.021484 C 20.480929 10.226207 19.193269 8.7522584 17.5 8.265625 L 17.5 6.5 C 17.5 3.4742846 15.025736 1 12 1 z M 12 3 C 13.944864 3 15.5 4.5551554 15.5 6.5 L 15.5 8.0585938 C 14.382108 8.0191724 13.233723 8 12 8 C 10.766276 8 9.6178957 8.0191723 8.5 8.0585938 L 8.5 6.5 C 8.5 4.5551608 10.055161 3 12 3 z M 12 10 C 13.570409 10 14.993027 10.033226 16.394531 10.097656 C 17.586734 10.152466 18.578487 11.087785 18.740234 12.289062 C 18.884673 13.361526 19 14.43331 19 15.5 C 19 16.56669 18.884673 17.63847 18.740234 18.710938 C 18.578487 19.912215 17.586738 20.847535 16.394531 20.902344 C 14.993004 20.966751 13.570397 21 12 21 C 10.429603 21 9.0070058 20.966751 7.6054688 20.902344 C 6.4133506 20.847536 5.4214957 19.91219 5.2597656 18.710938 C 5.1153508 17.638428 5 16.566667 5 15.5 C 5 14.433333 5.1153508 13.361572 5.2597656 12.289062 C 5.4214958 11.087808 6.4133546 10.152463 7.6054688 10.097656 C 9.0069823 10.03323 10.429591 10 12 10 z M 12 10.5 A 1 1 0 0 0 11 11.5 L 11 11.833984 L 10.4375 11.833984 L 9.5 11.833984 A 1 1 0 0 0 8.5 12.833984 A 1 1 0 0 0 9.4375 13.771484 L 9.4375 15.5 L 9.4375 17.228516 A 1 1 0 0 0 8.5 18.166016 A 1 1 0 0 0 9.5 19.166016 L 10.4375 19.166016 L 11 19.166016 L 11 19.5 A 1 1 0 0 0 12 20.5 A 1 1 0 0 0 13 19.5 L 13 19.166016 L 13.5625 19.166016 C 14.656713 19.166016 15.5 18.224924 15.5 17.166016 L 15.5 16.5 C 15.5 16.120815 15.288677 15.811167 15.099609 15.5 C 15.288677 15.188833 15.5 14.879185 15.5 14.5 L 15.5 13.833984 C 15.5 12.775076 14.656713 11.833984 13.5625 11.833984 L 13 11.833984 L 13 11.5 A 1 1 0 0 0 12 10.5 z M 11.4375 13.833984 L 12 13.833984 L 13.5 13.833984 L 13.5 14.5 L 11.4375 14.5 L 11.4375 13.833984 z M 11.4375 16.5 L 13.5 16.5 L 13.5 17.166016 L 12 17.166016 L 11.4375 17.166016 L 11.4375 16.5 z " fill="currentColor"/>
</svg>
