<svg xmlns="http://www.w3.org/2000/svg" width="1em" height="1em" viewBox="0 0 24 24" fill="currentColor">
  <path d="M 8 1 A 1 1 0 0 0 7 2 L 7 3.234375 C 6.0006032 3.4263266 5.1354351 3.7942582 4.4648438 4.4648438 C 3.7942582 5.1354351 3.4263266 6.0006032 3.234375 7 L 2 7 A 1 1 0 0 0 1 8 A 1 1 0 0 0 2 9 L 3.0332031 9 C 3.0085839 9.6033703 3.0016544 10.26432 3 11 L 2 11 A 1 1 0 0 0 1 12 A 1 1 0 0 0 2 13 L 3 13 C 3.0016541 13.735676 3.0085838 14.396627 3.0332031 15 L 2 15 A 1 1 0 0 0 1 16 A 1 1 0 0 0 2 17 L 3.234375 17 C 3.426321 17.999406 3.7942329 18.864585 4.4648438 19.535156 C 5.1354332 20.205757 6.0006012 20.573674 7 20.765625 L 7 22 A 1 1 0 0 0 8 23 A 1 1 0 0 0 9 22 L 9 20.966797 C 9.6033704 20.991416 10.26432 20.998346 11 21 L 11 22 A 1 1 0 0 0 12 23 A 1 1 0 0 0 13 22 L 13 21 C 13.735676 20.998342 14.396627 20.991418 15 20.966797 L 15 22 A 1 1 0 0 0 16 23 A 1 1 0 0 0 17 22 L 17 20.765625 C 17.999408 20.57368 18.864588 20.205783 19.535156 19.535156 C 20.205783 18.864588 20.57368 17.999408 20.765625 17 L 22 17 A 1 1 0 0 0 23 16 A 1 1 0 0 0 22 15 L 20.966797 15 C 20.991416 14.396627 20.998346 13.735676 21 13 L 22 13 A 1 1 0 0 0 23 12 A 1 1 0 0 0 22 11 L 21 11 C 20.998346 10.26432 20.991416 9.6033704 20.966797 9 L 22 9 A 1 1 0 0 0 23 8 A 1 1 0 0 0 22 7 L 20.765625 7 C 20.573674 6.0006012 20.205757 5.1354332 19.535156 4.4648438 C 18.864585 3.7942329 17.999406 3.426321 17 3.234375 L 17 2 A 1 1 0 0 0 16 1 A 1 1 0 0 0 15 2 L 15 3.0332031 C 14.396627 3.0085836 13.735676 3.0016545 13 3 L 13 2 A 1 1 0 0 0 12 1 A 1 1 0 0 0 11 2 L 11 3 C 10.26432 3.0016544 9.6033703 3.0085839 9 3.0332031 L 9 2 A 1 1 0 0 0 8 1 z M 12 5 C 13.8856 5 15.279881 5.0055 16.255859 5.1367188 C 17.231837 5.2679345 17.725037 5.4828256 18.121094 5.8789062 C 18.517216 6.2750214 18.732063 6.7681734 18.863281 7.7441406 C 18.9945 8.7201079 19 10.11438 19 12 C 19 13.8856 18.9945 15.279884 18.863281 16.255859 C 18.732063 17.231835 18.517187 17.725034 18.121094 18.121094 C 17.725034 18.517187 17.231835 18.732063 16.255859 18.863281 C 15.279884 18.9945 13.8856 19 12 19 C 10.11438 19 8.7201079 18.9945 7.7441406 18.863281 C 6.7681734 18.732063 6.2750213 18.517216 5.8789062 18.121094 C 5.4828255 17.725037 5.2679344 17.231837 5.1367188 16.255859 C 5.0055032 15.279881 5 13.8856 5 12 C 5 10.11438 5.0055033 8.7201106 5.1367188 7.7441406 C 5.2679343 6.7681706 5.482797 6.2750189 5.8789062 5.8789062 C 6.2750189 5.482797 6.7681706 5.2679344 7.7441406 5.1367188 C 8.7201106 5.0055032 10.11438 5 12 5 z M 12 6.5 A 1 1 0 0 0 11 7.5 L 11 8 L 10.125 8 L 9 8 A 1 1 0 0 0 8 9 A 1 1 0 0 0 9 10 L 9.125 10 L 9.125 12 L 9.125 14 L 9 14 A 1 1 0 0 0 8 15 A 1 1 0 0 0 9 16 L 10.125 16 L 11 16 L 11 16.5 A 1 1 0 0 0 12 17.5 A 1 1 0 0 0 13 16.5 L 13 16 L 13.875 16 C 15.03678 16 16 15.03678 16 13.875 L 16 13.125 C 16 12.688782 15.760411 12.339755 15.529297 12 C 15.760411 11.660245 16 11.311218 16 10.875 L 16 10.125 C 16 8.9632178 15.036758 8 13.875 8 L 13 8 L 13 7.5 A 1 1 0 0 0 12 6.5 z M 11.125 10 L 12 10 L 13.875 10 C 13.95584 10 14 10.04414 14 10.125 L 14 10.875 C 14 10.95582 13.95582 11 13.875 11 L 11.125 11 L 11.125 10 z M 11.125 13 L 13.875 13 C 13.95582 13 14 13.04418 14 13.125 L 14 13.875 C 14 13.95582 13.95582 14 13.875 14 L 12 14 L 11.125 14 L 11.125 13 z " fill="currentColor"/>
</svg>
