<svg xmlns="http://www.w3.org/2000/svg" width="1em" height="1em" viewBox="0 0 24 24" fill="currentColor">
  <path d="M 10.75 1 C 5.6532101 1 1.5 5.1532101 1.5 10.25 C 1.5 13.163858 2.8865225 15.736055 5 17.431641 L 5 22 A 1 1 0 0 0 6 23 A 1 1 0 0 0 7 22 L 7 18.566406 C 7.4152415 18.754598 7.783142 19.026355 8.2285156 19.152344 A 1 1 0 0 0 9.4628906 18.460938 A 1 1 0 0 0 8.7714844 17.226562 C 7.9758114 17.00148 7.2360931 16.645188 6.5761719 16.179688 C 4.7149284 14.866812 3.5 12.707226 3.5 10.25 C 3.5 6.2340899 6.7340899 3 10.75 3 C 14.765854 3 18 6.2340972 18 10.25 A 1.0001 1.0001 0 0 0 18.167969 10.804688 L 20.039062 13.611328 L 19.052734 14.105469 A 1.0001 1.0001 0 0 0 18.505859 14.888672 L 18.302734 16.720703 C 18.257664 17.126349 17.749083 17.734395 16.978516 18.115234 C 15.777759 18.708822 14.5 19.832843 14.5 21.5 L 14.5 22 A 1 1 0 0 0 15.5 23 A 1 1 0 0 0 16.5 22 L 16.5 21.5 C 16.5 20.957957 17.085591 20.293616 17.865234 19.908203 C 19.019267 19.337843 20.131687 18.37536 20.291016 16.941406 L 20.433594 15.650391 L 21.947266 14.894531 A 1.0001 1.0001 0 0 0 22.332031 13.445312 L 19.912109 9.8144531 C 19.671076 4.9302379 15.692428 1 10.75 1 z M 10.5 5 A 1 1 0 0 0 9.5 6 L 9.5 6.3339844 L 8.9375 6.3339844 L 8 6.3339844 A 1 1 0 0 0 7 7.3339844 A 1 1 0 0 0 7.9375 8.2714844 L 7.9375 10 L 7.9375 11.728516 A 1 1 0 0 0 7 12.666016 A 1 1 0 0 0 8 13.666016 L 8.9375 13.666016 L 9.5 13.666016 L 9.5 14 A 1 1 0 0 0 10.5 15 A 1 1 0 0 0 11.5 14 L 11.5 13.666016 L 12.0625 13.666016 C 13.156713 13.666016 14 12.724924 14 11.666016 L 14 11 C 14 10.620815 13.788677 10.311167 13.599609 10 C 13.788674 9.6888329 14 9.3791842 14 9 L 14 8.3339844 C 14 7.2750773 13.156739 6.3339844 12.0625 6.3339844 L 11.5 6.3339844 L 11.5 6 A 1 1 0 0 0 10.5 5 z M 9.9375 8.3339844 L 10.5 8.3339844 L 12 8.3339844 L 12 9 L 9.9375 9 L 9.9375 8.3339844 z M 9.9375 11 L 12 11 L 12 11.666016 L 10.5 11.666016 L 9.9375 11.666016 L 9.9375 11 z " fill="currentColor"/>
</svg>
