<svg xmlns="http://www.w3.org/2000/svg" width="1em" height="1em" viewBox="0 0 24 24" fill="currentColor">
  <path d="M 12 1.5 C 8.8684736 1.5 6.3291478 3.7692509 5.7226562 6.7304688 C 3.042314 7.3309969 1 9.6479339 1 12.5 C 1 15.608472 3.3843771 18.183197 6.4257812 18.472656 A 1 1 0 0 0 7.515625 17.572266 A 1 1 0 0 0 6.6152344 16.482422 C 4.5837585 16.289081 3 14.590928 3 12.5 C 3 10.409119 4.5837845 8.7108928 6.6152344 8.5175781 C 6.7416443 8.505549 6.8698799 8.5 7 8.5 C 7.9054828 8.5 8.7311349 8.7960135 9.4003906 9.2988281 A 1 1 0 0 0 10.800781 9.1015625 A 1 1 0 0 0 10.601562 7.7011719 C 9.8047362 7.1025133 8.8255538 6.7719643 7.7910156 6.6308594 C 8.3767134 4.82872 9.9929908 3.5 12 3.5 C 14.497167 3.5 16.5 5.502862 16.5 8 C 16.5 8.1385015 16.494602 8.2750206 16.482422 8.4101562 C 16.398622 9.33946 16.034407 10.183087 15.472656 10.863281 A 1 1 0 0 0 15.605469 12.271484 A 1 1 0 0 0 17.013672 12.136719 C 17.600125 11.426613 17.969331 10.560209 18.212891 9.6425781 C 19.798647 9.9779484 21 11.308659 21 13 C 21 14.944869 19.444869 16.5 17.5 16.5 A 1 1 0 0 0 16.5 17.5 A 1 1 0 0 0 17.5 18.5 C 20.525731 18.5 23 16.025731 23 13 C 23 10.306105 21.003111 8.1520547 18.4375 7.6894531 C 18.265486 4.2625773 15.468065 1.5 12 1.5 z M 12 11.5 A 1 1 0 0 0 11 12.5 L 11 13 L 10.125 13 L 9 13 A 1 1 0 0 0 8 14 A 1 1 0 0 0 9 15 L 9.125 15 L 9.125 17 L 9.125 19 L 9 19 A 1 1 0 0 0 8 20 A 1 1 0 0 0 9 21 L 10.125 21 L 11 21 L 11 21.5 A 1 1 0 0 0 12 22.5 A 1 1 0 0 0 13 21.5 L 13 21 L 13.875 21 C 15.03678 21 16 20.03678 16 18.875 L 16 18.125 C 16 17.688782 15.760411 17.339755 15.529297 17 C 15.760411 16.660245 16 16.311218 16 15.875 L 16 15.125 C 16 13.96322 15.03678 13 13.875 13 L 13 13 L 13 12.5 A 1 1 0 0 0 12 11.5 z M 11.125 15 L 12 15 L 13.875 15 C 13.95582 15 14 15.04418 14 15.125 L 14 15.875 C 14 15.95582 13.95582 16 13.875 16 L 11.125 16 L 11.125 15 z M 11.125 18 L 13.875 18 C 13.95582 18 14 18.04418 14 18.125 L 14 18.875 C 14 18.95582 13.95582 19 13.875 19 L 12 19 L 11.125 19 L 11.125 18 z " fill="currentColor"/>
</svg>
