<svg xmlns="http://www.w3.org/2000/svg" width="1em" height="1em" viewBox="0 0 24 24" fill="currentColor">
  <path d="M 12 1 A 1 1 0 0 0 11.861328 1.0097656 C 7.8848012 1.0599653 4.4055595 3.2234929 2.5136719 6.4355469 A 1 1 0 0 0 2.4746094 6.5 A 1 1 0 0 0 2.4433594 6.5605469 C 1.5257619 8.1659075 1 10.023025 1 12 C 1 13.968887 1.5209879 15.81907 2.4316406 17.419922 A 1 1 0 0 0 2.4726562 17.5 A 1 1 0 0 0 2.5234375 17.580078 C 4.4175005 20.78294 7.8917314 22.940076 11.861328 22.990234 A 1 1 0 0 0 11.869141 22.992188 C 11.913387 22.992715 11.955631 23 12 23 C 16.028219 23 19.560095 20.820753 21.476562 17.580078 A 1 1 0 0 0 21.527344 17.5 A 1 1 0 0 0 21.568359 17.419922 C 22.478988 15.819089 23 13.968856 23 12 C 23 10.023059 22.474211 8.1658876 21.556641 6.5605469 A 1 1 0 0 0 21.525391 6.5 A 1 1 0 0 0 21.486328 6.4394531 C 19.572512 3.1880084 16.0363 1 12 1 z M 11 3.0546875 L 11 4.0625 C 8.8169074 4.3367396 6.9031935 5.4956099 5.6308594 7.1679688 L 4.7480469 6.6601562 C 6.1989054 4.6905143 8.4346577 3.3363857 11 3.0546875 z M 13 3.0546875 C 15.565324 3.336388 17.801089 4.690514 19.251953 6.6601562 L 18.369141 7.1679688 C 17.096808 5.4956109 15.183095 4.3367396 13 4.0625 L 13 3.0546875 z M 12 6 C 14.191656 6 16.099569 7.1622412 17.146484 8.90625 A 1 1 0 0 0 17.195312 9 A 1 1 0 0 0 17.253906 9.0878906 C 17.730218 9.9489879 18 10.941907 18 12 C 18 13.063315 17.72679 14.059785 17.246094 14.923828 A 1 1 0 0 0 17.197266 15 A 1 1 0 0 0 17.154297 15.082031 C 16.109012 16.83299 14.196891 18 12 18 C 9.8031086 18 7.890988 16.833001 6.8457031 15.082031 A 1 1 0 0 0 6.8027344 15 A 1 1 0 0 0 6.7539062 14.923828 C 6.2732025 14.059781 6 13.063321 6 12 C 6 10.941905 6.2697821 9.9489872 6.7460938 9.0878906 A 1 1 0 0 0 6.8046875 9 A 1 1 0 0 0 6.8535156 8.90625 C 7.9004322 7.1622387 9.8083486 6 12 6 z M 12 7 A 1 1 0 0 0 11 8 L 11 8.3339844 L 10.4375 8.3339844 L 9.5 8.3339844 A 1 1 0 0 0 8.5 9.3339844 A 1 1 0 0 0 9.4375 10.271484 L 9.4375 12 L 9.4375 13.728516 A 1 1 0 0 0 8.5 14.666016 A 1 1 0 0 0 9.5 15.666016 L 10.4375 15.666016 L 11 15.666016 L 11 16 A 1 1 0 0 0 12 17 A 1 1 0 0 0 13 16 L 13 15.666016 L 13.5625 15.666016 C 14.656713 15.666016 15.5 14.724924 15.5 13.666016 L 15.5 13 C 15.5 12.620815 15.288677 12.311167 15.099609 12 C 15.288677 11.688833 15.5 11.379185 15.5 11 L 15.5 10.333984 C 15.5 9.2750802 14.656739 8.3339844 13.5625 8.3339844 L 13 8.3339844 L 13 8 A 1 1 0 0 0 12 7 z M 3.75 8.390625 L 4.6269531 8.8984375 C 4.2229485 9.8532435 4 10.900892 4 12 C 4 13.099108 4.2229484 14.146756 4.6269531 15.101562 L 3.75 15.609375 C 3.2680085 14.505203 3 13.284834 3 12 C 3 10.71516 3.2680132 9.4947941 3.75 8.390625 z M 20.25 8.390625 C 20.73199 9.4947936 21 10.715162 21 12 C 21 13.284831 20.731996 14.505204 20.25 15.609375 L 19.373047 15.101562 C 19.777051 14.146756 20 13.099108 20 12 C 20 10.900893 19.777052 9.8532441 19.373047 8.8984375 L 20.25 8.390625 z M 11.4375 10.333984 L 12 10.333984 L 13.5 10.333984 L 13.5 11 L 11.4375 11 L 11.4375 10.333984 z M 11.4375 13 L 13.5 13 L 13.5 13.666016 L 12 13.666016 L 11.4375 13.666016 L 11.4375 13 z M 5.6308594 16.832031 C 6.9031935 18.50439 8.8169072 19.66326 11 19.9375 L 11 20.945312 C 8.4346625 20.663612 6.198905 19.30948 4.7480469 17.339844 L 5.6308594 16.832031 z M 18.369141 16.832031 L 19.251953 17.339844 C 17.801088 19.309481 15.565314 20.663609 13 20.945312 L 13 19.9375 C 15.183096 19.663261 17.096808 18.50439 18.369141 16.832031 z " fill="currentColor"/>
</svg>
