<svg xmlns="http://www.w3.org/2000/svg" width="1em" height="1em" viewBox="0 0 24 24" fill="currentColor">
  <path d="M 17 2.5 C 14.951577 2.5 13.072373 2.8949315 11.576172 3.59375 C 10.407378 4.1396491 8.7857446 4.5 7 4.5 C 6.0070999 4.5 5.0647429 4.390141 4.2226562 4.1972656 C 2.6744081 3.8426573 1 4.9244178 1 6.6132812 L 1 17.386719 C 1 18.265023 1.1363593 19.090942 1.609375 19.789062 C 2.0823907 20.487184 2.8649816 20.937492 3.7773438 21.146484 C 4.7747048 21.374979 5.8610914 21.5 7 21.5 C 9.0483815 21.5 10.927593 21.105129 12.423828 20.40625 C 13.592598 19.860327 15.214209 19.5 17 19.5 C 17.99291 19.5 18.935314 19.609828 19.777344 19.802734 C 21.3256 20.157382 23 19.075582 23 17.386719 L 23 6.6132812 C 23 5.773123 22.893193 4.9614206 22.431641 4.2519531 C 21.970088 3.5424856 21.17646 3.0719793 20.222656 2.8535156 C 19.225354 2.6250914 18.138921 2.5 17 2.5 z M 17 4.5 C 17.992879 4.5 18.935246 4.6098586 19.777344 4.8027344 C 20.40524 4.9465507 20.612837 5.1219519 20.755859 5.3417969 C 20.898882 5.5616419 21 5.9598295 21 6.6132812 L 21 17.386719 C 21 17.667656 20.5944 17.938668 20.222656 17.853516 C 19.225286 17.625022 18.13889 17.5 17 17.5 C 14.951591 17.5 13.072402 17.894873 11.576172 18.59375 C 10.407407 19.139671 8.7857585 19.5 7 19.5 C 6.0070686 19.5 5.0646751 19.390171 4.2226562 19.197266 C 3.6345883 19.062558 3.4175018 18.892123 3.265625 18.667969 C 3.1137482 18.443815 3 18.048815 3 17.386719 L 3 6.6132812 C 3 6.3324848 3.4056519 6.0613527 3.7773438 6.1464844 C 4.774637 6.374909 5.8610601 6.5 7 6.5 C 9.0483954 6.5 10.927622 6.1050709 12.423828 5.40625 C 13.592627 4.8603485 15.214223 4.5 17 4.5 z M 12 7 A 1 1 0 0 0 11 8 L 11 8.3339844 L 10.4375 8.3339844 L 9.5 8.3339844 A 1 1 0 0 0 8.5 9.3339844 A 1 1 0 0 0 9.4375 10.271484 L 9.4375 12 L 9.4375 13.728516 A 1 1 0 0 0 8.5 14.666016 A 1 1 0 0 0 9.5 15.666016 L 10.4375 15.666016 L 11 15.666016 L 11 16 A 1 1 0 0 0 12 17 A 1 1 0 0 0 13 16 L 13 15.666016 L 13.5625 15.666016 C 14.656713 15.666016 15.5 14.724924 15.5 13.666016 L 15.5 13 C 15.5 12.620815 15.288677 12.311167 15.099609 12 C 15.288677 11.688833 15.5 11.379185 15.5 11 L 15.5 10.333984 C 15.5 9.2750802 14.656739 8.3339844 13.5625 8.3339844 L 13 8.3339844 L 13 8 A 1 1 0 0 0 12 7 z M 17.939453 10.037109 A 1 1 0 0 0 17.001953 10.964844 A 1 1 0 0 0 17.929688 12.033203 C 18.246627 12.055413 18.557318 12.087379 18.857422 12.130859 A 1 1 0 0 0 19.990234 11.285156 A 1 1 0 0 0 19.142578 10.152344 C 18.792482 10.101624 18.435374 10.062694 18.070312 10.037109 A 1 1 0 0 0 17.939453 10.037109 z M 11.4375 10.333984 L 12 10.333984 L 13.5 10.333984 L 13.5 11 L 11.4375 11 L 11.4375 10.333984 z M 5.0117188 11.859375 A 1 1 0 0 0 4.0097656 12.714844 A 1 1 0 0 0 4.8574219 13.849609 C 5.2073136 13.900299 5.5642043 13.937389 5.9296875 13.962891 A 1 1 0 0 0 6.9980469 13.035156 A 1 1 0 0 0 6.0703125 11.96875 C 5.7537357 11.94666 5.4429064 11.912651 5.1425781 11.869141 A 1 1 0 0 0 5.0117188 11.859375 z M 11.4375 13 L 13.5 13 L 13.5 13.666016 L 12 13.666016 L 11.4375 13.666016 L 11.4375 13 z " fill="currentColor"/>
</svg>
