<svg xmlns="http://www.w3.org/2000/svg" width="1em" height="1em" viewBox="0 0 24 24" fill="currentColor">
  <path d="M 12 1 A 1 1 0 0 0 11.283203 1.3164062 C 11.12142 1.4163043 10.865263 1.4471163 10.734375 1.5585938 C 10.432532 1.8156737 10.164006 2.1121825 9.9082031 2.4140625 C 9.3965983 3.0178226 8.880108 3.7030359 8.7832031 3.8027344 A 1 1 0 0 0 8.8027344 5.2167969 A 1 1 0 0 0 10.216797 5.1972656 C 10.470293 4.936461 10.737927 4.5779369 11 4.2402344 L 11 6.5 A 1 1 0 0 0 12 7.5 A 1 1 0 0 0 13 6.5 L 13 4.2402344 C 13.26207 4.5779346 13.529733 4.9364726 13.783203 5.1972656 A 1 1 0 0 0 15.197266 5.2167969 A 1 1 0 0 0 15.216797 3.8027344 C 15.119882 3.7030186 14.603402 3.0178246 14.091797 2.4140625 C 13.835994 2.1121814 13.567469 1.8156738 13.265625 1.5585938 C 12.963781 1.3015138 12.649748 1 12 1 z M 12 8 C 7.8696897 8 4.5 11.369667 4.5 15.5 C 4.5 19.630248 7.8696748 23 12 23 C 16.130257 23 19.5 19.630257 19.5 15.5 C 19.5 11.369658 16.130242 8 12 8 z M 12 10 C 15.049358 10 17.5 12.450542 17.5 15.5 C 17.5 18.549343 15.049343 21 12 21 C 8.9505652 21 6.5 18.549352 6.5 15.5 C 6.5 12.450533 8.9505503 10 12 10 z M 12 10.5 A 1 1 0 0 0 11 11.5 L 11 11.833984 L 10.4375 11.833984 L 9.5 11.833984 A 1 1 0 0 0 8.5 12.833984 A 1 1 0 0 0 9.4375 13.771484 L 9.4375 15.5 L 9.4375 17.228516 A 1 1 0 0 0 8.5 18.166016 A 1 1 0 0 0 9.5 19.166016 L 10.4375 19.166016 L 11 19.166016 L 11 19.5 A 1 1 0 0 0 12 20.5 A 1 1 0 0 0 13 19.5 L 13 19.166016 L 13.5625 19.166016 C 14.656713 19.166016 15.5 18.224924 15.5 17.166016 L 15.5 16.5 C 15.5 16.120815 15.288677 15.811167 15.099609 15.5 C 15.288677 15.188833 15.5 14.879185 15.5 14.5 L 15.5 13.833984 C 15.5 12.775076 14.656713 11.833984 13.5625 11.833984 L 13 11.833984 L 13 11.5 A 1 1 0 0 0 12 10.5 z M 11.4375 13.833984 L 12 13.833984 L 13.5 13.833984 L 13.5 14.5 L 11.4375 14.5 L 11.4375 13.833984 z M 11.4375 16.5 L 13.5 16.5 L 13.5 17.166016 L 12 17.166016 L 11.4375 17.166016 L 11.4375 16.5 z " fill="currentColor"/>
</svg>
