<svg xmlns="http://www.w3.org/2000/svg" width="1em" height="1em" viewBox="0 0 24 24" fill="currentColor">
  <path d="M 12 2 C 11.417075 2 11.021071 2.2299761 10.501953 2.484375 L 6.3300781 4.5292969 C 5.4068928 4.981702 4.6976314 5.3186066 4.1269531 5.7089844 C 3.5562748 6.0993622 3 6.7122525 3 7.5 L 3 16.5 C 3 17.287751 3.5562866 17.90064 4.1269531 18.291016 C 4.6976196 18.681392 5.4069 19.018256 6.3300781 19.470703 L 10.501953 21.515625 C 11.021076 21.770036 11.417075 22 12 22 C 12.582925 22 12.978924 21.770036 13.498047 21.515625 L 17.669922 19.470703 C 18.593115 19.018256 19.302374 18.681391 19.873047 18.291016 C 20.44372 17.900641 21 17.287755 21 16.5 L 21 7.5 C 21 6.7122478 20.443732 6.0993614 19.873047 5.7089844 C 19.302362 5.3186074 18.593123 4.9817022 17.669922 4.5292969 L 13.498047 2.484375 C 12.978929 2.2299761 12.582925 2 12 2 z M 11.998047 4.0019531 L 12 4.0019531 L 12.001953 4.0019531 C 12.025013 4.0126834 12.178885 4.0645009 12.617188 4.2792969 L 16.791016 6.3242188 C 17.714215 6.7766234 18.389672 7.118237 18.742188 7.359375 C 18.837295 7.4244334 18.900762 7.4698149 18.941406 7.5 C 18.900763 7.5301851 18.837296 7.5755659 18.742188 7.640625 C 18.389672 7.881763 17.714215 8.2233766 16.791016 8.6757812 L 12.617188 10.720703 C 12.178885 10.935506 12.023062 10.987318 12 10.998047 L 11.998047 10.998047 C 11.974988 10.987318 11.821115 10.935505 11.382812 10.720703 L 7.2089844 8.6757812 C 6.2857997 8.2233763 5.6103217 7.8817622 5.2578125 7.640625 C 5.1627048 7.5755657 5.0992372 7.5301847 5.0585938 7.5 C 5.0992372 7.4698153 5.1627048 7.4244343 5.2578125 7.359375 C 5.6103217 7.1182378 6.2857997 6.7766236 7.2089844 6.3242188 L 11.382812 4.2792969 C 11.821117 4.0645011 11.974986 4.0126834 11.998047 4.0019531 z M 5 9.8066406 C 5.388029 10.011793 5.8273325 10.224334 6.3300781 10.470703 L 10.501953 12.515625 C 10.678108 12.601955 10.840085 12.685143 11 12.757812 L 11 19.533203 L 7.2089844 17.675781 C 6.2857925 17.223328 5.6103335 16.881774 5.2578125 16.640625 C 5.0901101 16.525905 5.0236213 16.472006 5 16.455078 L 5 9.8066406 z M 19 9.8066406 L 19 16.455078 C 18.976378 16.472008 18.90989 16.525905 18.742188 16.640625 C 18.389661 16.881775 17.714222 17.223328 16.791016 17.675781 L 13 19.533203 L 13 12.757812 C 13.159915 12.685143 13.321892 12.601955 13.498047 12.515625 L 17.669922 10.470703 C 18.172675 10.224334 18.611975 10.011793 19 9.8066406 z " fill="currentColor"/>
</svg>
