<svg xmlns="http://www.w3.org/2000/svg" width="1em" height="1em" viewBox="0 0 24 24" fill="currentColor">
  <path d="M 9 1 C 7.82149 1 6.9171164 0.99284996 6.1230469 1.0996094 C 5.3289773 1.2063688 4.5811884 1.4696004 4.0253906 2.0253906 C 3.4696004 2.5811884 3.2063688 3.3289773 3.0996094 4.1230469 C 2.99285 4.9171164 3 5.82149 3 7 L 3 22 A 1 1 0 0 0 4 23 A 1 1 0 0 0 5 22 L 5 7 C 5 5.82149 5.0057331 4.9581254 5.0820312 4.390625 C 5.1583295 3.8231246 5.2630134 3.6158953 5.4394531 3.4394531 C 5.6158953 3.2630134 5.8231246 3.1583294 6.390625 3.0820312 C 6.9581254 3.005733 7.82149 3 9 3 L 13 3 L 13 3.9980469 C 11.181831 3.9985123 10.002958 4.0528846 8.9609375 4.7636719 C 8.4772391 5.0935925 8.0617082 5.5166697 7.7402344 6.0078125 C 7.0568545 7.0518762 7.0226118 8.3627695 7.0214844 10.177734 A 1 1 0 0 0 7.0136719 10.535156 C 7.0141299 10.756492 7 10.884625 7 11.125 L 7 12.875 C 7 15.3328 6.929528 16.753582 7.7402344 17.992188 C 8.0617282 18.483413 8.4772057 18.906449 8.9609375 19.236328 C 9.9519549 19.912371 11.067481 19.993225 12.738281 20 C 12.395771 20.600305 11.750104 21 11 21 A 1 1 0 0 0 10 22 A 1 1 0 0 0 11 23 C 12.851941 23 14.422798 21.720025 14.871094 20.001953 C 16.762394 20.003701 17.972782 19.963744 19.039062 19.236328 C 19.522862 18.90643 19.938265 18.483306 20.259766 17.992188 C 21.070443 16.753583 21 15.3328 21 12.875 L 21 11.125 C 21 10.880647 20.985871 10.750083 20.986328 10.525391 A 1 1 0 0 0 20.978516 10.179688 C 20.977425 8.3635326 20.943383 7.0522761 20.259766 6.0078125 C 19.938285 5.5167765 19.52283 5.0936123 19.039062 4.7636719 C 17.997061 4.0528648 16.818174 3.9985078 15 3.9980469 L 15 3 L 17 3 A 1 1 0 0 0 18 2 A 1 1 0 0 0 17 1 L 9 1 z M 14 6 C 16.4076 6 17.404363 6.069653 17.912109 6.4160156 C 18.177143 6.5967752 18.40702 6.8302316 18.585938 7.1035156 C 18.854036 7.5131281 18.956375 8.2300749 18.988281 9.6835938 C 17.880559 10.054979 17.160749 10.05218 16.595703 9.9257812 C 15.929498 9.7767531 15.398213 9.4084527 14.695312 8.9648438 C 13.992411 8.5212347 13.080272 8.0154096 11.876953 8 C 11.047877 7.9893829 10.134008 8.196014 9.0546875 8.6816406 C 9.1101211 7.8739009 9.2164708 7.4053951 9.4140625 7.1035156 C 9.5928686 6.8303384 9.8228487 6.596795 10.087891 6.4160156 C 10.595695 6.0696302 11.5924 6 14 6 z M 11.851562 10 C 12.536627 10.0088 12.990567 10.254619 13.626953 10.65625 C 14.26334 11.057881 15.043149 11.629472 16.158203 11.878906 C 16.959909 12.058246 17.8936 12.046775 19 11.761719 L 19 12.875 C 19 15.3328 18.93086 16.369489 18.585938 16.896484 C 18.407039 17.169767 18.17711 17.403283 17.912109 17.583984 C 17.404364 17.930369 16.4076 18 14 18 C 11.5924 18 10.595694 17.930393 10.087891 17.583984 C 9.822882 17.403263 9.5928487 17.16966 9.4140625 16.896484 C 9.0691287 16.369491 9 15.3328 9 12.875 L 9 11.125 C 9 11.065138 8.999915 11.005455 9 10.947266 C 10.347184 10.199702 11.237319 9.992134 11.851562 10 z " fill="currentColor"/>
</svg>
