<svg xmlns="http://www.w3.org/2000/svg" width="1em" height="1em" viewBox="0 0 24 24" fill="currentColor">
  <path d="M 12.091797 1.0097656 C 10.970862 1.0097655 9.8494036 1.4222978 8.9746094 2.2441406 C 6.3594454 4.7010616 2.5 8.9168843 2.5 13.677734 C 2.5 18.308875 6.2264113 23 12.091797 23 C 15.819702 23 18.722315 21.089574 20.296875 18.523438 A 1 1 0 0 0 19.966797 17.148438 A 1 1 0 0 0 18.591797 17.476562 C 17.349357 19.501426 15.149892 21 12.091797 21 C 7.2803022 21 4.5 17.251393 4.5 13.677734 C 4.5 10.070325 7.8797072 6.0179509 10.345703 3.7011719 C 11.355735 2.7522776 12.829824 2.7522816 13.839844 3.7011719 C 15.97486 5.706986 18.8386 9.0216565 19.521484 12.208984 A 1 1 0 0 0 20.708984 12.978516 A 1 1 0 0 0 21.478516 11.791016 C 20.6254 7.8091435 17.473169 4.3713065 15.208984 2.2441406 C 14.334194 1.4222957 13.212731 1.0097657 12.091797 1.0097656 z M 15.341797 10 A 1.0001 1.0001 0 0 0 15.212891 10.001953 A 1.0001 1.0001 0 0 0 14.341797 10.669922 L 13.005859 14.492188 L 12.560547 13.642578 L 12.560547 13.640625 C 12.279224 13.103335 12.071178 12.620674 11.505859 12.287109 C 10.940024 11.953331 10.430871 12 9.8007812 12 L 9 12 A 1 1 0 0 0 8 13 A 1 1 0 0 0 9 14 L 9.8007812 14 C 10.226109 14 10.418652 14.020937 10.480469 14.023438 C 10.508712 14.073029 10.605092 14.219025 10.789062 14.570312 L 12.304688 17.464844 A 1.0001 1.0001 0 0 0 14.134766 17.330078 L 15.470703 13.507812 L 15.916016 14.359375 C 16.197804 14.897252 16.402923 15.379026 16.96875 15.712891 C 17.534585 16.046635 18.045681 16 18.675781 16 L 20 16 A 1 1 0 0 0 21 15 A 1 1 0 0 0 20 14 L 18.675781 14 C 18.250501 14 18.057934 13.979067 17.996094 13.976562 C 17.967869 13.926971 17.871535 13.780981 17.6875 13.429688 L 16.171875 10.535156 A 1.0001 1.0001 0 0 0 15.341797 10 z " fill="currentColor"/>
</svg>
