<svg xmlns="http://www.w3.org/2000/svg" width="1em" height="1em" viewBox="0 0 24 24" fill="currentColor">
  <path d="M 12 1 C 9.19108 1 7.5880049 0.92949834 6.2226562 1.8417969 C 5.6767239 2.2065852 5.2065852 2.6767237 4.8417969 3.2226562 C 4.1838076 4.2074049 4.0736515 5.4925915 4.0429688 7.0878906 A 1 1 0 0 0 4.03125 7.6132812 C 4.02831 8.0905742 4 8.4321406 4 9 L 4 11 C 4 13.8089 3.929498 15.411981 4.8417969 16.777344 C 5.2065757 17.323187 5.6767898 17.793384 6.2226562 18.158203 C 7.3864483 18.935803 8.7232501 19.000125 10.832031 19.001953 C 10.423844 20.17163 9.3167972 21 8 21 A 1 1 0 0 0 7 22 A 1 1 0 0 0 8 23 C 10.406959 23 12.431299 21.276224 12.898438 19.001953 C 15.164381 19.004252 16.564687 18.96844 17.777344 18.158203 C 18.323121 17.793393 18.793393 17.323121 19.158203 16.777344 C 20.070474 15.411982 20 13.8089 20 11 L 20 9 C 20 8.4182341 20.003311 7.8873056 20 7.4003906 A 1 1 0 0 0 20 7.3300781 C 19.985054 5.5058216 19.872265 4.2913548 19.158203 3.2226562 C 18.793384 2.6767897 18.323187 2.2065757 17.777344 1.8417969 C 16.411981 0.92949814 14.8089 1 12 1 z M 12 3 C 14.8089 3 16.013578 3.069918 16.666016 3.5058594 C 16.993572 3.7247605 17.27516 4.0063309 17.494141 4.3339844 C 17.782222 4.7651402 17.910991 5.4371909 17.964844 6.6542969 C 16.60445 7.0510566 15.685488 7.0588457 14.960938 6.9199219 C 14.117946 6.7582886 13.477385 6.3716065 12.664062 5.9316406 C 11.850739 5.4916748 10.843216 5.0145205 9.5195312 5 C 8.5474414 4.9893364 7.4440279 5.2130218 6.0996094 5.7597656 C 6.1731034 5.0820832 6.297736 4.6454624 6.5058594 4.3339844 C 6.7247511 4.0063968 7.0063968 3.7247511 7.3339844 3.5058594 C 7.9864157 3.0699179 9.19108 3 12 3 z M 9.4960938 7 C 10.375534 7.00965 10.961761 7.2841877 11.710938 7.6894531 C 12.460114 8.0947185 13.350802 8.6479436 14.585938 8.8847656 C 15.529868 9.065753 16.640177 9.0460151 18 8.7148438 C 18.000178 8.8078999 18 8.9031745 18 9 L 18 11 C 18 13.8089 17.93007 15.013577 17.494141 15.666016 C 17.27515 15.993638 16.993638 16.27515 16.666016 16.494141 C 16.013577 16.93007 14.8089 17 12 17 C 9.19108 17 7.9864165 16.93007 7.3339844 16.494141 C 7.0063309 16.27516 6.7247605 15.993572 6.5058594 15.666016 C 6.0699181 15.013578 6 13.8089 6 11 L 6 9 C 6 8.6375356 6.0009415 8.3015329 6.0039062 7.9902344 C 7.6126042 7.2212282 8.7031372 6.9913014 9.4960938 7 z M 12.019531 9 A 1.0001 1.0001 0 0 0 11.294922 9.3046875 L 9.8554688 10.791016 A 1.0001 1.0001 0 0 0 9.8496094 10.798828 C 8.702417 12.003941 8.7198315 13.916757 9.8691406 15.103516 A 1.0001 1.0001 0 0 0 9.875 15.109375 C 11.042582 16.294762 12.983501 16.276587 14.132812 15.089844 C 15.296762 13.887732 15.282021 11.964138 14.132812 10.777344 L 12.738281 9.3105469 A 1.0001 1.0001 0 0 0 12.019531 9 z M 12.007812 11.445312 L 12.689453 12.162109 A 1.0001 1.0001 0 0 0 12.697266 12.169922 C 13.094818 12.580476 13.10574 13.273848 12.697266 13.697266 C 12.300307 14.107153 11.708852 14.115847 11.302734 13.707031 C 10.909055 13.295354 10.900233 12.596448 11.298828 12.177734 L 11.291016 12.183594 L 12.007812 11.445312 z " fill="currentColor"/>
</svg>
