<svg xmlns="http://www.w3.org/2000/svg" width="1em" height="1em" viewBox="0 0 24 24" fill="currentColor">
  <path d="M 12 1 C 5.9367124 1 1 5.9367124 1 12 C 1 18.063288 5.9367124 23 12 23 C 18.063288 23 23 18.063288 23 12 C 23 5.9367124 18.063288 1 12 1 z M 12 3 C 16.982407 3 21 7.0175926 21 12 C 21 16.982407 16.982407 21 12 21 C 7.0175926 21 3 16.982407 3 12 C 3 7.0175926 7.0175926 3 12 3 z M 12.025391 6.0117188 C 11.824702 6.0139196 11.617938 6.0561123 11.423828 6.1582031 C 10.906211 6.4304405 10.697947 7.0044084 10.642578 7.3886719 C 10.587208 7.7729353 10.595703 8.1397281 10.595703 8.6113281 L 10.595703 9.8261719 L 9.6503906 9.0175781 A 1 1 0 0 0 8.2402344 9.1269531 A 1 1 0 0 0 8.3496094 10.537109 L 10.058594 12 L 8.3496094 13.462891 A 1 1 0 0 0 8.2402344 14.873047 A 1 1 0 0 0 9.6503906 14.982422 L 10.595703 14.173828 L 10.595703 15.388672 C 10.595703 15.860272 10.587208 16.227065 10.642578 16.611328 C 10.697948 16.995592 10.906242 17.569541 11.423828 17.841797 C 11.941428 18.11406 12.548581 17.953815 12.892578 17.773438 C 13.236576 17.59306 13.524879 17.371815 13.900391 17.097656 L 14.744141 16.480469 C 15.025653 16.2749 15.257671 16.11538 15.490234 15.886719 C 15.722798 15.658058 16 15.24321 16 14.771484 C 16 14.299693 15.722798 13.882958 15.490234 13.654297 C 15.257671 13.425636 15.025695 13.2661 14.744141 13.060547 L 13.292969 12 L 14.744141 10.939453 C 15.025681 10.733905 15.25766 10.574373 15.490234 10.345703 C 15.722809 10.117033 16 9.7002676 16 9.2285156 C 16 8.7567637 15.722809 8.3419471 15.490234 8.1132812 C 15.257659 7.8846152 15.025678 7.7250769 14.744141 7.5195312 L 13.900391 6.9023438 C 13.524893 6.6282355 13.236553 6.4069246 12.892578 6.2265625 C 12.677594 6.1138362 12.359872 6.0080507 12.025391 6.0117188 z M 12.599609 8.4355469 C 12.654129 8.4747859 12.660829 8.4738671 12.720703 8.5175781 L 13.566406 9.1347656 C 13.632926 9.1833286 13.633676 9.1887337 13.689453 9.2304688 C 13.634023 9.2719397 13.632413 9.2760297 13.566406 9.3242188 L 12.595703 10.03125 L 12.595703 8.6113281 C 12.595703 8.5229151 12.599009 8.5141791 12.599609 8.4355469 z M 12.595703 13.96875 L 13.566406 14.675781 C 13.632406 14.723971 13.634026 14.728061 13.689453 14.769531 C 13.633673 14.811281 13.632933 14.816654 13.566406 14.865234 L 12.720703 15.482422 C 12.660823 15.526142 12.654133 15.525213 12.599609 15.564453 C 12.599011 15.485823 12.595703 15.477083 12.595703 15.388672 L 12.595703 13.96875 z " fill="currentColor"/>
</svg>
