<svg xmlns="http://www.w3.org/2000/svg" width="1em" height="1em" viewBox="0 0 24 24" fill="currentColor">
  <path d="M 11 1 C 9.11438 1 7.6810556 0.99457301 6.4785156 1.15625 C 5.2759756 1.317927 4.240311 1.689383 3.4648438 2.4648438 C 2.6893829 3.240311 2.317927 4.2759756 2.15625 5.4785156 C 1.994573 6.6810556 2 8.11438 2 10 L 2 15 A 1 1 0 0 0 1 16 A 1 1 0 0 0 2 17 L 5.3828125 17 L 3.1054688 21.552734 A 1 1 0 0 0 3.5527344 22.894531 A 1 1 0 0 0 4.8945312 22.447266 L 7.6171875 17 L 11 17 L 11 20 A 1 1 0 0 0 12 21 A 1 1 0 0 0 13 20 L 13 17 L 16.382812 17 L 19.105469 22.447266 A 1 1 0 0 0 20.447266 22.894531 A 1 1 0 0 0 20.894531 21.552734 L 18.617188 17 L 22 17 A 1 1 0 0 0 23 16 A 1 1 0 0 0 22 15 L 22 10 C 22 8.11438 22.005432 6.6810584 21.84375 5.4785156 C 21.682068 4.2759729 21.310634 3.2403086 20.535156 2.4648438 C 19.759713 1.6893545 18.724031 1.3179268 17.521484 1.15625 C 16.318937 0.99457318 14.8856 1 13 1 L 11 1 z M 11 3 L 13 3 C 14.8856 3 16.279881 3.0054999 17.255859 3.1367188 C 18.231837 3.2679343 18.725037 3.4828254 19.121094 3.8789062 C 19.517216 4.2750212 19.732063 4.7681734 19.863281 5.7441406 C 19.9945 6.7201079 20 8.11438 20 10 L 20 15 L 12 15 L 4 15 L 4 10 C 4 8.11438 4.0055032 6.7201106 4.1367188 5.7441406 C 4.2679343 4.7681706 4.482797 4.2750188 4.8789062 3.8789062 C 5.2750189 3.482797 5.7681706 3.2679342 6.7441406 3.1367188 C 7.7201106 3.0055032 9.11438 3 11 3 z M 8 6 A 1.0001 1.0001 0 0 0 7.2929688 6.2929688 L 6.2929688 7.2929688 A 1 1 0 0 0 6.2929688 8.7070312 A 1 1 0 0 0 7 9 L 7 11 A 1 1 0 0 0 8 12 A 1 1 0 0 0 9 11 L 9 7 A 1.0001 1.0001 0 0 0 8.3828125 6.0761719 A 1.0001 1.0001 0 0 0 8 6 z M 17 6 A 1.0001 1.0001 0 0 0 16.292969 6.2929688 L 15.292969 7.2929688 A 1 1 0 0 0 15.292969 8.7070312 A 1 1 0 0 0 16 8.7070312 L 16 11 A 1 1 0 0 0 17 12 A 1 1 0 0 0 18 11 L 18 7 A 1.0001 1.0001 0 0 0 17.382812 6.0761719 A 1.0001 1.0001 0 0 0 17 6 z M 11 8 A 1 1 0 0 0 10 9 A 1 1 0 0 0 11 10 L 13 10 A 1 1 0 0 0 14 9 A 1 1 0 0 0 13 8 L 11 8 z " fill="currentColor"/>
</svg>
