<svg xmlns="http://www.w3.org/2000/svg" width="1em" height="1em" viewBox="0 0 24 24" fill="currentColor">
  <path d="M 9.3359375 0.99804688 C 8.7848423 1.0082993 8.3757302 1.2627699 7.8886719 1.5136719 L 7.5859375 1.6699219 C 7.4473576 1.7413068 7.3206746 1.8009104 7.1582031 1.9121094 C 6.9957316 2.0233083 6.7861817 2.2229337 6.6640625 2.4589844 C 6.5522315 2.6751047 6.5016216 2.9494643 6.5 3.1425781 C 6.4998504 3.1603939 6.4997789 3.178503 6.5 3.1953125 C 4.6705021 3.6642412 3.2848763 4.4428472 2.0742188 5.4667969 C 1.7011387 5.7823369 1.3176842 6.0791543 1.1269531 6.6230469 C 0.95763107 7.1058879 0.98114176 7.5011807 1.0175781 7.9589844 C 1.0540141 8.4167881 1.1400944 8.9063051 1.2636719 9.3867188 C 1.3872493 9.8671322 1.545049 10.333811 1.7578125 10.753906 C 1.970576 11.174001 2.1840509 11.608742 2.8105469 11.871094 C 3.4319138 12.131315 4.047345 11.951774 4.5488281 11.722656 C 4.743822 11.633566 4.9413731 11.529765 5.1503906 11.412109 L 5.6113281 15.552734 C 5.7053531 16.399037 5.7723117 17.052653 5.9160156 17.644531 C 6.0084092 18.025076 6.1480538 18.401091 6.3613281 18.732422 C 6.3306102 18.758611 6.3012297 18.785021 6.2714844 18.8125 C 6.122161 18.950428 6.0182964 19.074598 5.8554688 19.265625 C 5.5349337 19.641566 5.3388549 19.794203 5.1542969 20.236328 C 4.7060469 21.310221 5.3157513 22.566078 6.4179688 22.908203 C 6.8674696 23.047523 7.1146144 23 7.6152344 23 L 16.384766 23 C 16.885366 23 17.132554 23.047513 17.582031 22.908203 C 18.68426 22.566092 19.294058 21.310233 18.845703 20.236328 C 18.661424 19.795885 18.464298 19.640665 18.144531 19.265625 C 17.981753 19.074667 17.878139 18.950627 17.728516 18.8125 C 17.698768 18.785018 17.669392 18.758613 17.638672 18.732422 C 17.851951 18.401087 17.991595 18.025071 18.083984 17.644531 C 18.227681 17.052665 18.294623 16.399027 18.388672 15.552734 L 18.849609 11.412109 C 19.058628 11.529768 19.256178 11.633565 19.451172 11.722656 C 19.952648 11.951777 20.568105 12.131297 21.189453 11.871094 C 21.815946 11.608733 22.029428 11.173998 22.242188 10.753906 C 22.454949 10.333815 22.612749 9.8671318 22.736328 9.3867188 C 22.859908 8.9063057 22.945985 8.4167909 22.982422 7.9589844 C 23.018859 7.5011779 23.042385 7.1059 22.873047 6.6230469 C 22.682333 6.0788952 22.298848 5.7823084 21.925781 5.4667969 C 20.715132 4.4428464 19.329543 3.664241 17.5 3.1953125 C 17.500223 3.1785036 17.500147 3.1603902 17.5 3.1425781 C 17.498404 2.9495087 17.447868 2.6752398 17.335938 2.4589844 C 17.213795 2.2229827 17.004232 2.0232851 16.841797 1.9121094 C 16.679362 1.8009337 16.552595 1.7412978 16.414062 1.6699219 L 16.111328 1.5136719 C 15.554722 1.2269279 15.099032 0.93614381 14.417969 1.0097656 L 14.416016 1.0097656 C 13.734963 1.0847376 13.355138 1.4646884 12.869141 1.8652344 A 1.0001 1.0001 0 0 0 12.867188 1.8652344 L 12.617188 2.0742188 C 12.319111 2.3199549 12.108221 2.4852321 12 2.5546875 C 11.891779 2.4852321 11.680982 2.3199549 11.382812 2.0742188 L 11.132812 1.8652344 A 1.0001 1.0001 0 0 0 11.130859 1.8652344 C 10.644897 1.4646798 10.265034 1.0847421 9.5839844 1.0097656 L 9.5820312 1.0097656 C 9.4968957 1.0005617 9.4146654 0.99658224 9.3359375 0.99804688 z M 9.3632812 3.0273438 C 9.4242615 3.072684 9.5780394 3.1782863 9.859375 3.4101562 L 10.111328 3.6171875 C 10.411568 3.8646288 10.649068 4.0671852 10.929688 4.2460938 C 11.210306 4.4250025 11.589606 4.5878906 12 4.5878906 C 12.410394 4.5878906 12.789693 4.4250025 13.070312 4.2460938 C 13.350931 4.0671852 13.588432 3.8646288 13.888672 3.6171875 L 14.140625 3.4101562 C 14.421996 3.1782581 14.575756 3.0726746 14.636719 3.0273438 C 14.704684 3.0584367 14.87526 3.1281017 15.195312 3.2929688 L 15.449219 3.4238281 C 15.195535 5.2043707 13.760904 6.9753535 12.105469 7.4667969 C 12.037877 7.4868615 12.012337 7.4961274 12.003906 7.5 C 12.003086 7.4999119 12.001479 7.5 12 7.5 C 11.998379 7.5 11.996931 7.4998959 11.996094 7.5 L 11.994141 7.5 C 11.989846 7.4972781 11.972556 7.4899589 11.894531 7.4667969 C 10.239066 6.9753513 8.8044485 5.2043694 8.5507812 3.4238281 L 8.8046875 3.2929688 C 9.1246969 3.1281199 9.2952913 3.0584408 9.3632812 3.0273438 z M 6.9179688 5.1523438 C 7.2331215 5.9998524 7.7094731 6.7841613 8.3125 7.453125 C 7.1792985 7.9075702 6.117514 8.4872854 5.2050781 9.046875 C 4.5235081 9.4648481 4.0205494 9.7664084 3.71875 9.9042969 C 3.6732934 9.9250654 3.6345964 9.9406916 3.6035156 9.953125 C 3.5832582 9.9244302 3.5628999 9.8909159 3.5429688 9.8515625 C 3.4261743 9.6209557 3.2974157 9.2628246 3.2011719 8.8886719 C 3.1049281 8.5145192 3.0369877 8.1182717 3.0117188 7.8007812 C 2.9930743 7.5665249 3.0172894 7.359447 3.0214844 7.2949219 C 3.0484124 7.2720004 3.1328261 7.1907047 3.3652344 6.9941406 C 4.3806662 6.135309 5.4043038 5.5423659 6.9179688 5.1523438 z M 17.082031 5.1523438 C 18.595738 5.5423652 19.619331 6.1353 20.634766 6.9941406 C 20.867066 7.1906034 20.951541 7.2719365 20.978516 7.2949219 C 20.982724 7.3595425 21.006918 7.5666289 20.988281 7.8007812 C 20.963011 8.1182688 20.895071 8.5145187 20.798828 8.8886719 C 20.702588 9.2628251 20.573827 9.6209523 20.457031 9.8515625 C 20.4371 9.890917 20.416743 9.9244294 20.396484 9.953125 C 20.365404 9.9406907 20.326709 9.9250664 20.28125 9.9042969 C 19.979462 9.7664071 19.476536 9.4648535 18.794922 9.046875 C 17.882479 8.48729 16.820716 7.9075754 15.6875 7.453125 C 16.290525 6.7841614 16.766874 5.9998513 17.082031 5.1523438 z M 10.183594 8.9179688 C 10.546115 9.1091614 10.928301 9.2666526 11.326172 9.3847656 C 11.491542 9.4338566 11.742929 9.5 12 9.5 C 12.257071 9.5 12.508458 9.4338566 12.673828 9.3847656 C 13.071696 9.2666519 13.453886 9.1091625 13.816406 8.9179688 C 14.874608 9.2231683 15.973921 9.7386942 16.960938 10.291016 L 16.402344 15.332031 C 16.308294 16.178339 16.233329 16.791995 16.140625 17.173828 C 16.048185 17.554586 15.976764 17.654586 15.876953 17.744141 C 15.77666 17.833891 15.669031 17.895344 15.279297 17.945312 C 14.889563 17.995283 14.271422 18 13.419922 18 L 10.580078 18 C 9.7285932 18 9.1104407 17.995282 8.7207031 17.945312 C 8.3309656 17.895343 8.2232678 17.835788 8.1230469 17.746094 C 8.0227764 17.656338 7.9520786 17.55565 7.859375 17.173828 C 7.7666714 16.792007 7.6916809 16.178328 7.5976562 15.332031 L 7.0390625 10.291016 C 8.0260681 9.738702 9.1254128 9.223169 10.183594 8.9179688 z M 8.6152344 20 L 10.144531 20 L 13.855469 20 L 15.384766 20 C 15.639266 20 15.730975 20.003113 15.771484 20.007812 C 15.999063 20.034382 16.209262 20.131742 16.371094 20.28125 A 1.0001 1.0001 0 0 0 16.373047 20.28125 C 16.400427 20.30652 16.460027 20.37321 16.623047 20.564453 C 16.787137 20.756907 16.895379 20.903686 16.953125 20.980469 C 16.850934 20.986121 16.653556 21 16.384766 21 L 7.6152344 21 C 7.3460556 21 7.1489346 20.986112 7.046875 20.980469 C 7.1102436 20.896324 7.2197239 20.74886 7.3769531 20.564453 C 7.5399024 20.37328 7.6013296 20.306722 7.6289062 20.28125 C 7.790756 20.13173 8.0009373 20.034381 8.2285156 20.007812 C 8.2691273 20.003075 8.3607944 20 8.6152344 20 z " fill="currentColor"/>
</svg>
