<svg xmlns="http://www.w3.org/2000/svg" width="1em" height="1em" viewBox="0 0 24 24" fill="currentColor">
  <path d="M 19.255859 1 A 1 1 0 0 0 18.548828 1.2929688 L 15.042969 4.7929688 L 15.041016 4.7929688 L 15.041016 4.7910156 L 15.039062 4.7910156 L 15.037109 4.7890625 C 15.023412 4.7841292 14.98688 4.7809688 14.931641 4.7539062 C 13.650217 4.1259919 12.060211 4.3518139 11.003906 5.4082031 C 9.6745474 6.7374781 9.6745414 8.9226863 11.003906 10.251953 C 11.526101 10.774204 12.187032 11.01713 12.869141 11.130859 C 12.982878 11.812976 13.22576 12.4739 13.748047 12.996094 C 15.077287 14.325475 17.262556 14.325475 18.591797 12.996094 C 19.648249 11.939782 19.873885 10.349776 19.246094 9.0683594 C 19.219032 9.0131286 19.213922 8.9746317 19.208984 8.9609375 L 19.208984 8.9589844 L 19.207031 8.9589844 L 19.207031 8.9570312 L 22.707031 5.4511719 A 1 1 0 0 0 22.707031 4.0371094 A 1 1 0 0 0 21.292969 4.0371094 L 17.742188 7.5878906 C 17.037347 8.2927763 17.117078 9.2693841 17.449219 9.9472656 C 17.708427 10.476349 17.626682 11.133143 17.177734 11.582031 C 16.612775 12.14705 15.727069 12.14705 15.162109 11.582031 C 14.928056 11.348019 14.917252 11.035689 14.878906 10.736328 C 15.206852 10.574426 15.577006 10.522638 15.847656 10.251953 A 1 1 0 0 0 15.847656 8.8378906 A 1 1 0 0 0 14.433594 8.8378906 C 14.203348 9.0681657 13.922784 9.2001701 13.626953 9.2421875 C 13.197185 9.3031785 12.752455 9.1724125 12.417969 8.8378906 C 11.852934 8.2728976 11.852928 7.3872707 12.417969 6.8222656 C 12.866864 6.3733349 13.523758 6.2915758 14.052734 6.5507812 C 14.730656 6.8829084 15.70726 6.9627067 16.412109 6.2578125 L 19.962891 2.7070312 A 1 1 0 0 0 19.962891 1.2929688 A 1 1 0 0 0 19.255859 1 z M 8 3 A 1 1 0 0 0 7 4 L 7 6 A 1 1 0 0 0 8 7 A 1 1 0 0 0 9 6 L 9 4 A 1 1 0 0 0 8 3 z M 4 7 A 1 1 0 0 0 3 8 A 1 1 0 0 0 4 9 L 6 9 A 1 1 0 0 0 7 8 A 1 1 0 0 0 6 7 L 4 7 z M 7.8300781 10.005859 C 6.951359 10.005859 6.0728378 10.339222 5.4082031 11.003906 C 4.3518139 12.060211 4.1259918 13.650217 4.7539062 14.931641 C 4.780976 14.986894 4.7860802 15.025374 4.7910156 15.039062 L 4.7910156 15.041016 L 4.7929688 15.041016 L 4.7929688 15.042969 L 1.2929688 18.548828 A 1 1 0 0 0 1.2929688 19.962891 A 1 1 0 0 0 2.7070312 19.962891 L 6.2578125 16.412109 C 6.9627067 15.70726 6.8829084 14.730656 6.5507812 14.052734 C 6.2915757 13.523758 6.3733349 12.866864 6.8222656 12.417969 C 7.3872562 11.852936 8.2729001 11.852936 8.8378906 12.417969 C 9.0719266 12.65198 9.0827465 12.964304 9.1210938 13.263672 C 8.7931395 13.425584 8.4229972 13.477351 8.1523438 13.748047 A 1 1 0 0 0 8.1523438 15.162109 A 1 1 0 0 0 9.5664062 15.162109 C 9.7967243 14.931755 10.077174 14.799833 10.373047 14.757812 C 10.802815 14.696822 11.247544 14.827563 11.582031 15.162109 C 12.14705 15.727069 12.14705 16.612775 11.582031 17.177734 C 11.133143 17.626682 10.476349 17.708427 9.9472656 17.449219 C 9.2693841 17.117078 8.2927763 17.037347 7.5878906 17.742188 L 4.0371094 21.292969 A 1 1 0 0 0 4.0371094 22.707031 A 1 1 0 0 0 5.4511719 22.707031 L 8.9570312 19.207031 L 8.9589844 19.207031 L 8.9589844 19.208984 L 8.9609375 19.208984 L 8.9628906 19.210938 C 8.976585 19.215875 9.013129 19.219032 9.0683594 19.246094 C 10.349776 19.873885 11.939782 19.648249 12.996094 18.591797 C 14.325475 17.262556 14.325475 15.077287 12.996094 13.748047 C 12.4739 13.225764 11.812976 12.982878 11.130859 12.869141 C 11.01713 12.187032 10.774204 11.526101 10.251953 11.003906 C 9.5873185 10.339222 8.7087972 10.005859 7.8300781 10.005859 z M 18 15 A 1 1 0 0 0 17 16 A 1 1 0 0 0 18 17 L 20 17 A 1 1 0 0 0 21 16 A 1 1 0 0 0 20 15 L 18 15 z M 16 17 A 1 1 0 0 0 15 18 L 15 20 A 1 1 0 0 0 16 21 A 1 1 0 0 0 17 20 L 17 18 A 1 1 0 0 0 16 17 z " fill="currentColor"/>
</svg>
