<svg xmlns="http://www.w3.org/2000/svg" width="1em" height="1em" viewBox="0 0 24 24" fill="currentColor">
  <path d="M 5.3320312 2 C 5.1302619 2.0000346 4.9297986 2.0050286 4.7304688 2.015625 C 4.1687239 2.045485 3.7007696 2.0603027 3.2070312 2.1835938 C 2.7132928 2.3068848 2.2079609 2.5874013 1.8222656 2.9941406 C 1.4066185 3.432466 1.1710651 4.0091949 1.0820312 4.5664062 C 0.99299754 5.1236176 1 5.6884487 1 6.4023438 L 1 15.662109 C 1 16.893309 0.86681538 17.594607 1.3789062 18.394531 C 1.5489544 18.660247 1.8396222 18.950929 2.1054688 19.121094 C 2.5665091 19.416108 2.9781455 19.439477 3.46875 19.470703 C 3.9593545 19.501933 4.5529794 19.5 5.3339844 19.5 C 7.5522731 19.4969 9.6930873 20.299794 11.339844 21.75 A 1.0001 1.0001 0 0 0 11.384766 21.785156 A 1.0001 1.0001 0 0 0 11.429688 21.818359 A 1.0001 1.0001 0 0 0 11.478516 21.849609 A 1.0001 1.0001 0 0 0 11.554688 21.892578 A 1.0001 1.0001 0 0 0 11.59375 21.910156 A 1.0001 1.0001 0 0 0 11.671875 21.941406 A 1.0001 1.0001 0 0 0 11.730469 21.958984 A 1.0001 1.0001 0 0 0 11.798828 21.978516 A 1.0001 1.0001 0 0 0 11.884766 21.990234 A 1.0001 1.0001 0 0 0 11.912109 21.994141 A 1.0001 1.0001 0 0 0 12 21.996094 A 1.0001 1.0001 0 0 0 12.078125 21.994141 A 1.0001 1.0001 0 0 0 12.087891 21.994141 A 1.0001 1.0001 0 0 0 12.201172 21.978516 A 1.0001 1.0001 0 0 0 12.269531 21.958984 A 1.0001 1.0001 0 0 0 12.328125 21.941406 A 1.0001 1.0001 0 0 0 12.521484 21.849609 A 1.0001 1.0001 0 0 0 12.570312 21.818359 A 1.0001 1.0001 0 0 0 12.615234 21.785156 A 1.0001 1.0001 0 0 0 12.660156 21.75 C 14.306914 20.299792 16.447683 19.496935 18.666016 19.5 C 19.447016 19.5 20.040652 19.501903 20.53125 19.470703 C 21.021848 19.439473 21.433464 19.416173 21.894531 19.121094 C 22.160486 18.950893 22.451095 18.66017 22.621094 18.394531 C 23.133284 17.594599 23 16.893309 23 15.662109 L 23 6.4023438 C 23 5.6884488 23.006999 5.123609 22.917969 4.5664062 C 22.828942 4.0092035 22.593356 3.4324706 22.177734 2.9941406 C 21.792025 2.5874312 21.286702 2.3068849 20.792969 2.1835938 C 20.299235 2.0603025 19.831282 2.045485 19.269531 2.015625 C 19.070183 2.0050288 18.869694 2.0000346 18.667969 2 L 18.666016 2 C 16.250339 1.9970497 13.909442 2.7786871 12 4.2128906 C 10.090551 2.7786855 7.7496286 1.9970457 5.3339844 2 L 5.3320312 2 z M 5.3339844 4 C 7.4171754 3.9970875 9.3986243 4.7595129 11 6.046875 L 11 19.253906 C 9.2793072 18.213776 7.377252 17.497534 5.3339844 17.5 L 5.3320312 17.5 C 4.5523565 17.499996 3.971943 17.498599 3.5957031 17.474609 C 3.3249743 17.457377 3.1688379 17.407393 3.1464844 17.408203 L 3.1445312 17.408203 L 3.1445312 17.410156 C 3.1264264 17.400117 3.1126906 17.39781 3.1074219 17.396484 L 3.1054688 17.396484 L 3.1035156 17.396484 L 3.1035156 17.394531 L 3.1035156 17.392578 L 3.1035156 17.390625 C 3.1016116 17.383128 3.0929538 17.364703 3.0703125 17.328125 L 3.0722656 17.328125 L 3.0742188 17.330078 L 3.0761719 17.330078 L 3.078125 17.330078 L 3.078125 17.328125 L 3.0800781 17.328125 L 3.0800781 17.326172 L 3.0820312 17.324219 C 3.0990949 17.262347 3 16.720172 3 15.662109 L 3 6.4023438 C 3 5.6884488 3.0084894 5.1841636 3.0566406 4.8828125 C 3.1047919 4.5814614 3.1403446 4.5114484 3.2734375 4.3710938 C 3.4364822 4.1991531 3.4881652 4.1762389 3.6933594 4.125 C 3.8985536 4.0737611 4.2741924 4.0435319 4.8359375 4.0136719 C 5.000521 4.0049226 5.1669159 4 5.3339844 4 z M 18.666016 4 C 18.833029 4 18.999458 4.0049199 19.164062 4.0136719 C 19.725812 4.0435319 20.101449 4.0737609 20.306641 4.125 C 20.511832 4.176239 20.563473 4.1991231 20.726562 4.3710938 C 20.859641 4.5114439 20.89521 4.5814528 20.943359 4.8828125 C 20.991508 5.1841721 21 5.6884487 21 6.4023438 L 21 15.662109 C 21 16.720172 20.90285 17.264305 20.919922 17.326172 L 20.919922 17.328125 L 20.921875 17.328125 L 20.921875 17.330078 L 20.923828 17.330078 L 20.925781 17.330078 L 20.927734 17.328125 L 20.929688 17.328125 C 20.907034 17.364723 20.898392 17.385077 20.896484 17.392578 L 20.896484 17.394531 L 20.896484 17.396484 L 20.894531 17.396484 L 20.892578 17.396484 L 20.890625 17.396484 C 20.88536 17.397805 20.873568 17.400123 20.855469 17.410156 L 20.855469 17.408203 L 20.853516 17.408203 L 20.851562 17.408203 C 20.829213 17.407388 20.675013 17.457381 20.404297 17.474609 C 20.027645 17.498582 19.447016 17.5 18.666016 17.5 C 16.622721 17.497534 14.720693 18.213776 13 19.253906 L 13 6.046875 C 14.601375 4.759512 16.582786 3.9970875 18.666016 4 z M 5.3320312 6.3203125 C 5.2104507 6.3203334 5.0894438 6.3223019 4.96875 6.3261719 A 1 1 0 0 0 4 7.3574219 A 1 1 0 0 0 5.03125 8.3242188 C 5.131247 8.3210088 5.2331431 8.3203125 5.3339844 8.3203125 C 5.8405365 8.3196093 6.3444744 8.3618905 6.8378906 8.4433594 A 1 1 0 0 0 7.9863281 7.6191406 A 1 1 0 0 0 7.1621094 6.46875 C 6.5612634 6.3695437 5.9504677 6.3195651 5.3339844 6.3203125 L 5.3320312 6.3203125 z M 18.666016 6.3203125 C 18.049488 6.3195651 17.438759 6.3695491 16.837891 6.46875 A 1 1 0 0 0 16.013672 7.6191406 A 1 1 0 0 0 17.162109 8.4433594 C 17.655604 8.3618854 18.159408 8.3196093 18.666016 8.3203125 C 18.766813 8.3203125 18.86871 8.3210068 18.96875 8.3242188 A 1 1 0 0 0 20 7.3574219 A 1 1 0 0 0 19.03125 6.3261719 C 18.910539 6.3223019 18.789514 6.3203325 18.667969 6.3203125 L 18.666016 6.3203125 z M 5.3320312 10.001953 C 5.2103934 10.001974 5.0890841 10.004012 4.96875 10.007812 A 1 1 0 0 0 4 11.039062 A 1 1 0 0 0 5.03125 12.005859 C 5.1316091 12.002659 5.2332028 12.001953 5.3339844 12.001953 C 6.4750474 12.000353 7.5955705 12.211693 8.6386719 12.615234 A 1 1 0 0 0 9.9335938 12.042969 A 1 1 0 0 0 9.3613281 10.75 C 8.0889859 10.257772 6.7235869 10.00022 5.3339844 10.001953 L 5.3320312 10.001953 z M 18.666016 10.001953 C 17.276386 10.000253 15.911003 10.257768 14.638672 10.75 A 1 1 0 0 0 14.066406 12.042969 A 1 1 0 0 0 15.361328 12.615234 C 16.404401 12.211697 17.52492 12.00033 18.666016 12.001953 C 18.766753 12.001953 18.868349 12.002691 18.96875 12.005859 A 1 1 0 0 0 20 11.039062 A 1 1 0 0 0 19.03125 10.007812 C 18.910898 10.004012 18.789571 10.002053 18.667969 10.001953 L 18.666016 10.001953 z M 5.3320312 13.496094 C 5.2103934 13.496115 5.0890841 13.498153 4.96875 13.501953 A 1 1 0 0 0 4 14.533203 A 1 1 0 0 0 5.03125 15.5 C 5.1316091 15.4968 5.2332028 15.496094 5.3339844 15.496094 C 6.4750474 15.494494 7.5955705 15.705833 8.6386719 16.109375 A 1 1 0 0 0 9.9335938 15.537109 A 1 1 0 0 0 9.3613281 14.244141 C 8.0889859 13.751913 6.7235869 13.494361 5.3339844 13.496094 L 5.3320312 13.496094 z M 18.666016 13.496094 C 17.276386 13.494394 15.911003 13.751909 14.638672 14.244141 A 1 1 0 0 0 14.066406 15.537109 A 1 1 0 0 0 15.361328 16.109375 C 16.404401 15.705837 17.52492 15.494471 18.666016 15.496094 C 18.766753 15.496094 18.868349 15.496832 18.96875 15.5 A 1 1 0 0 0 20 14.533203 A 1 1 0 0 0 19.03125 13.501953 C 18.910898 13.498153 18.789571 13.496194 18.667969 13.496094 L 18.666016 13.496094 z " fill="currentColor"/>
</svg>
