<svg xmlns="http://www.w3.org/2000/svg" width="1em" height="1em" viewBox="0 0 24 24" fill="currentColor">
  <path d="M 10.5 1 C 8.7752596 1.001108 7.4472497 1.0083145 6.3222656 1.171875 C 5.1972815 1.3354355 4.2221376 1.6917704 3.4785156 2.4082031 C 2.6996878 3.1585588 2.3190711 4.173068 2.15625 5.3398438 C 1.9934289 6.5066195 2 7.8903462 2 9.7070312 L 2 17.980469 C 2 19.133419 1.989847 20.014928 2.1074219 20.779297 C 2.2249967 21.543666 2.5750043 22.345769 3.3027344 22.734375 C 3.9952849 23.104153 4.7504874 23.035553 5.3886719 22.841797 C 6.0268564 22.648041 6.6190565 22.322092 7.1875 21.962891 C 8.324387 21.244487 9.41256 20.348104 9.9257812 20.039062 C 10.698981 19.573462 10.930562 19.484375 11 19.484375 C 11.06944 19.484375 11.301019 19.573465 12.074219 20.039062 C 12.587437 20.348102 13.675608 21.244486 14.8125 21.962891 C 15.380946 22.322093 15.973135 22.648042 16.611328 22.841797 C 17.249521 23.035552 18.004708 23.104137 18.697266 22.734375 A 1.0001 1.0001 0 0 0 18.699219 22.734375 C 19.426931 22.345753 19.775012 21.543658 19.892578 20.779297 C 20.010097 20.014936 20 19.133419 20 17.980469 L 20 11.5 A 1 1 0 0 0 19 10.5 A 1 1 0 0 0 18 11.5 L 18 17.980469 C 18 19.133419 17.989702 19.98287 17.914062 20.474609 C 17.838432 20.966348 17.800947 20.946625 17.755859 20.970703 C 17.700069 21.000493 17.544144 21.034234 17.193359 20.927734 C 16.842574 20.821236 16.367976 20.581249 15.880859 20.273438 C 14.906626 19.657818 13.92545 18.819932 13.105469 18.326172 C 12.332269 17.860572 11.790962 17.484375 11 17.484375 C 10.209038 17.484375 9.6677312 17.860572 8.8945312 18.326172 C 8.0745523 18.81993 7.0933736 19.657816 6.1191406 20.273438 C 5.6320241 20.581249 5.1574174 20.821237 4.8066406 20.927734 C 4.4558639 21.034232 4.2999001 21.000473 4.2441406 20.970703 C 4.1990206 20.946613 4.1615756 20.966303 4.0859375 20.474609 C 4.0103018 19.982879 4 19.133419 4 17.980469 L 4 9.7070312 C 4 9.0827598 4.0015042 8.5146508 4.0078125 8 L 10 8 A 1 1 0 0 0 11 7 A 1 1 0 0 0 10 6 L 4.0917969 6 C 4.1047544 5.8654416 4.1198756 5.7378857 4.1367188 5.6171875 C 4.2667902 4.6850957 4.4724922 4.2279937 4.8652344 3.8496094 C 5.2402224 3.4883321 5.7098616 3.2811701 6.609375 3.1503906 C 7.5088884 3.0196111 8.7844804 3.001102 10.5 3 A 1 1 0 0 0 11.5 2 A 1 1 0 0 0 10.5 1 z M 16.5 1 C 14.026562 1 12 3.026562 12 5.5 C 12 7.973438 14.026562 10 16.5 10 C 18.973438 10 21 7.973438 21 5.5 C 21 3.026562 18.973438 1 16.5 1 z M 16.5 3 C 16.802456 3 17.002401 3.220349 17.269531 3.3164062 L 14.316406 6.2695312 C 14.220349 6.0024013 14 5.8024555 14 5.5 C 14 4.107438 15.107438 3 16.5 3 z M 18.683594 4.7304688 C 18.779651 4.9975988 19 5.1975445 19 5.5 C 19 6.892562 17.892562 8 16.5 8 C 16.197544 8 15.997599 7.779651 15.730469 7.6835938 L 18.683594 4.7304688 z " fill="currentColor"/>
</svg>
