<svg xmlns="http://www.w3.org/2000/svg" width="1em" height="1em" viewBox="0 0 24 24" fill="currentColor">
  <path d="M 10 1 C 8.585785 1 7.5044454 0.99407482 6.5742188 1.1191406 C 5.6439921 1.2442065 4.800893 1.542857 4.171875 2.171875 C 3.542857 2.800893 3.2442065 3.6439921 3.1191406 4.5742188 C 2.9940748 5.5044454 3 6.585785 3 8 L 3 20 C 3 21.645025 4.3550085 23 6 23 L 20 23 A 1 1 0 0 0 21 22 A 1 1 0 0 0 20 21 L 19.908203 21 C 19.731051 20.789056 19.5 20.431027 19.5 20 C 19.5 19.568973 19.731051 19.210944 19.908203 19 L 20 19 A 1.0001 1.0001 0 0 0 21 18 L 21 6 C 21 5.05719 21.006425 4.3297904 20.917969 3.671875 C 20.829512 3.0139596 20.603678 2.3614739 20.121094 1.8789062 C 19.63852 1.3963405 18.986036 1.1704861 18.328125 1.0820312 C 17.670214 0.99357648 16.9428 1 16 1 L 10 1 z M 10 3 L 16 3 C 16.9428 3 17.629208 3.0064601 18.060547 3.0644531 C 18.491886 3.1224461 18.603805 3.1897445 18.707031 3.2929688 C 18.810247 3.3961811 18.877553 3.5081136 18.935547 3.9394531 C 18.99354 4.3707928 19 5.05719 19 6 L 19 17 L 6 17 C 5.6116472 17 5.342015 17.27899 5 17.416016 L 5 8 C 5 6.585785 5.0069583 5.5454528 5.1015625 4.8417969 C 5.1961667 4.138141 5.3362755 3.8355995 5.5859375 3.5859375 C 5.8355995 3.3362755 6.138141 3.1961667 6.8417969 3.1015625 C 7.5454528 3.0069583 8.585785 3 10 3 z M 12 5 C 10.35499 5 9 6.3549904 9 8 C 9 8.6148657 9.1887234 9.1897521 9.5117188 9.6679688 C 8.0134064 10.534142 7 12.15436 7 14 A 1 1 0 0 0 8 15 A 1 1 0 0 0 9 14 C 9 12.331349 10.331312 11 12 11 C 13.668639 11 15 12.331361 15 14 A 1 1 0 0 0 16 15 A 1 1 0 0 0 17 14 C 17 12.154356 15.986587 10.534141 14.488281 9.6679688 C 14.811278 9.1897514 15 8.6148673 15 8 C 15 6.3549904 13.64501 5 12 5 z M 12 7 C 12.564129 7 13 7.4358706 13 8 C 13 8.5641294 12.564129 9 12 9 C 11.435871 9 11 8.5641294 11 8 C 11 7.4358706 11.435871 7 12 7 z M 6 19 L 17.652344 19 C 17.558303 19.299593 17.5 19.633692 17.5 20 C 17.5 20.366308 17.558303 20.700407 17.652344 21 L 6 21 C 5.4358515 21 5 20.564175 5 20 C 5 19.435825 5.4358515 19 6 19 z " fill="currentColor"/>
</svg>
