<svg xmlns="http://www.w3.org/2000/svg" width="1em" height="1em" viewBox="0 0 24 24" fill="currentColor">
  <path d="M 9.3535156 1 C 7.8561156 1 6.7144851 0.99372782 5.7421875 1.1171875 C 4.7698899 1.2406472 3.9040226 1.5291171 3.2441406 2.1523438 C 2.5842557 2.7755664 2.26027 3.6299013 2.1269531 4.5664062 C 1.9936363 5.5029112 2 6.585785 2 8 L 2 14 C 2 15.4142 1.99364 16.497093 2.1269531 17.433594 C 2.26027 18.370095 2.5842634 19.224427 3.2441406 19.847656 C 3.4727507 20.063572 3.7260836 20.240199 4 20.382812 L 4 22 A 1 1 0 0 0 5 23 A 1 1 0 0 0 6 22 L 6 20.912109 C 6.9158817 21.005153 7.9864265 21 9.3535156 21 L 14.646484 21 C 16.013573 21 17.084124 21.005168 18 20.912109 L 18 22 A 1 1 0 0 0 19 23 A 1 1 0 0 0 20 22 L 20 20.382812 C 20.273921 20.240199 20.527255 20.063581 20.755859 19.847656 C 21.415754 19.22443 21.739725 18.370099 21.873047 17.433594 C 22.006369 16.497089 22 15.4142 22 14 L 22 8 C 22 6.585785 22.006369 5.5029148 21.873047 4.5664062 C 21.739725 3.6298977 21.415762 2.7755629 20.755859 2.1523438 C 20.096001 1.5290995 19.230102 1.2406476 18.257812 1.1171875 C 17.285524 0.99372739 16.143884 1 14.646484 1 L 9.3535156 1 z M 9.3535156 3 L 14.646484 3 C 16.143884 3 17.248174 3.00535 18.005859 3.1015625 C 18.763545 3.1977725 19.112371 3.3500329 19.382812 3.6054688 C 19.65331 3.8609295 19.795253 4.1522355 19.894531 4.8496094 C 19.99381 5.5469833 20 6.585785 20 8 L 20 10 L 18.820312 10 L 17.980469 5.8046875 A 1 1 0 0 0 16.804688 5.0195312 A 1 1 0 0 0 16.019531 6.1953125 L 16.78125 10 L 15 10 L 15 6 A 1 1 0 0 0 14 5 A 1 1 0 0 0 13 6 L 13 10 L 12.175781 10 L 10.427734 5.6289062 A 1 1 0 0 0 9.1289062 5.0722656 A 1 1 0 0 0 8.5722656 6.3710938 L 10.023438 10 L 8 10 L 8 6 A 1 1 0 0 0 7 5 A 1 1 0 0 0 6 6 L 6 10 L 4 10 L 4 8 C 4 6.585785 4.0061931 5.5469869 4.1054688 4.8496094 C 4.2047444 4.1522318 4.3467024 3.8609261 4.6171875 3.6054688 C 4.8876656 3.3500152 5.2364433 3.1977728 5.9941406 3.1015625 C 6.751838 3.0053522 7.8561156 3 9.3535156 3 z M 4 12 L 20 12 L 20 14 C 20 15.4142 19.9938 16.45302 19.894531 17.150391 C 19.795251 17.847761 19.653319 18.139057 19.382812 18.394531 C 19.112369 18.649975 18.763542 18.802226 18.005859 18.898438 C 17.248177 18.994649 16.143884 19 14.646484 19 L 9.3535156 19 C 7.8561156 19 6.7518357 18.994701 5.9941406 18.898438 C 5.2364456 18.802225 4.8876674 18.649992 4.6171875 18.394531 C 4.3466947 18.139061 4.2047444 17.847764 4.1054688 17.150391 C 4.0061931 16.453017 4 15.4142 4 14 L 4 12 z M 11 15 A 1 1 0 0 0 10 16 A 1 1 0 0 0 11 17 L 13 17 A 1 1 0 0 0 14 16 A 1 1 0 0 0 13 15 L 11 15 z " fill="currentColor"/>
</svg>
