<svg xmlns="http://www.w3.org/2000/svg" width="1em" height="1em" viewBox="0 0 24 24" fill="currentColor">
  <path d="M 10 1 C 8.585785 1 7.5044454 0.99407482 6.5742188 1.1191406 C 5.6439921 1.2442065 4.800893 1.542857 4.171875 2.171875 C 3.542857 2.800893 3.2442065 3.6439921 3.1191406 4.5742188 C 2.9940748 5.5044454 3 6.585785 3 8 L 3 20 C 3 21.645025 4.3550085 23 6 23 L 20 23 A 1 1 0 0 0 21 22 A 1 1 0 0 0 20 21 L 19.908203 21 C 19.731051 20.789056 19.5 20.431027 19.5 20 C 19.5 19.568973 19.731051 19.210944 19.908203 19 L 20 19 A 1.0001 1.0001 0 0 0 21 18 L 21 6 C 21 5.05719 21.006425 4.3297904 20.917969 3.671875 C 20.829512 3.0139596 20.603678 2.3614739 20.121094 1.8789062 C 19.63852 1.3963405 18.986036 1.1704861 18.328125 1.0820312 C 17.670214 0.99357648 16.9428 1 16 1 L 10 1 z M 10 3 L 16 3 C 16.9428 3 17.629208 3.0064601 18.060547 3.0644531 C 18.491886 3.1224461 18.603805 3.1897445 18.707031 3.2929688 C 18.810247 3.3961811 18.877553 3.5081136 18.935547 3.9394531 C 18.99354 4.3707928 19 5.05719 19 6 L 19 11.339844 L 17.925781 10.111328 C 17.308073 9.4054794 16.41457 9 15.476562 9 C 14.577367 9 13.716525 9.3735086 13.101562 10.029297 L 6.5664062 17 L 6 17 C 5.6116472 17 5.342015 17.27899 5 17.416016 L 5 8 C 5 6.585785 5.0069583 5.5454528 5.1015625 4.8417969 C 5.1961667 4.138141 5.3362755 3.8355995 5.5859375 3.5859375 C 5.8355995 3.3362755 6.138141 3.1961667 6.8417969 3.1015625 C 7.5454528 3.0069583 8.585785 3 10 3 z M 9.5 5 C 8.131126 5 7 6.1311376 7 7.5 C 7 8.8688659 8.1311341 10 9.5 10 C 10.868855 10 12 8.8688901 12 7.5 C 12 6.1311134 10.868864 5 9.5 5 z M 9.5 7 C 9.7879365 7 10 7.2120466 10 7.5 C 10 7.7879699 9.7879445 8 9.5 8 C 9.2120059 8 9 7.7879941 9 7.5 C 9 7.2120224 9.212014 7 9.5 7 z M 15.476562 11 C 15.838954 11 16.183183 11.154983 16.421875 11.427734 L 19 14.375 L 19 17 L 9.3085938 17 L 14.560547 11.396484 C 14.798183 11.143068 15.129357 11 15.476562 11 z M 6 19 L 6.9648438 19 L 7.0351562 19 L 17.652344 19 C 17.558303 19.299593 17.5 19.633692 17.5 20 C 17.5 20.366308 17.558303 20.700407 17.652344 21 L 6 21 C 5.4358515 21 5 20.564175 5 20 C 5 19.435825 5.4358515 19 6 19 z " fill="currentColor"/>
</svg>
