<svg xmlns="http://www.w3.org/2000/svg" width="1em" height="1em" viewBox="0 0 24 24" fill="currentColor">
  <path d="M 12 1 C 9.87868 1 8.2645647 0.99161541 6.9140625 1.1933594 C 5.5635603 1.3951033 4.4116847 1.8644082 3.5742188 2.7949219 C 2.7367539 3.7254403 2.3490272 4.9304889 2.171875 6.3945312 C 1.9947228 7.8585736 2 9.642985 2 12 C 2 14.35705 1.99472 16.143372 2.171875 17.607422 C 2.3490271 19.071471 2.7367616 20.274549 3.5742188 21.205078 C 4.4116897 22.135559 5.5635651 22.604906 6.9140625 22.806641 C 8.2645599 23.008376 9.87868 23 12 23 C 14.1213 23 15.735429 23.0084 17.085938 22.806641 C 18.436446 22.604906 19.588313 22.135571 20.425781 21.205078 C 21.263227 20.274548 21.650976 19.07147 21.828125 17.607422 C 22.005274 16.143374 22 14.35705 22 12 C 22 9.642985 22.005274 7.8585721 21.828125 6.3945312 C 21.650976 4.9304904 21.263234 3.7254414 20.425781 2.7949219 C 19.588317 1.8643967 18.436452 1.3951029 17.085938 1.1933594 C 15.735424 0.99161584 14.1213 1 12 1 z M 12 3 C 13.16123 3 14.156485 3.0022517 15 3.03125 L 15 9.8261719 C 15 10.309146 14.986963 10.579943 14.970703 10.826172 C 14.886543 10.779202 14.836929 10.764692 14.738281 10.697266 C 14.292433 10.39252 13.828379 9.956887 13.339844 9.6386719 C 12.953244 9.3868719 12.605306 9.0976562 12 9.0976562 C 11.394694 9.0976562 11.046756 9.3868719 10.660156 9.6386719 C 10.171615 9.9568907 9.7075632 10.392521 9.2617188 10.697266 C 9.1630727 10.764696 9.1134502 10.779196 9.0292969 10.826172 C 9.0130424 10.579946 9 10.309146 9 9.8261719 L 9 3.03125 C 9.8435112 3.0022517 10.838765 3 12 3 z M 7 3.2050781 L 7 9.8261719 C 7 10.449717 6.9922797 10.932095 7.0585938 11.398438 C 7.1249068 11.864778 7.3442313 12.47181 7.8867188 12.785156 C 8.3995899 13.081374 8.9619294 13.019834 9.3613281 12.888672 C 9.7607269 12.75751 10.085766 12.556034 10.390625 12.347656 C 11.000343 11.930901 11.571941 11.430434 11.75 11.314453 C 11.860937 11.242198 11.943212 11.192783 12 11.160156 C 12.056788 11.192783 12.139062 11.242198 12.25 11.314453 C 12.428064 11.430438 12.999651 11.930902 13.609375 12.347656 C 13.914237 12.556033 14.239273 12.75751 14.638672 12.888672 C 15.03807 13.019833 15.600408 13.08138 16.113281 12.785156 C 16.655763 12.471797 16.875098 11.864773 16.941406 11.398438 C 17.007714 10.932101 17 10.449717 17 9.8261719 L 17 3.2050781 C 17.964144 3.3714183 18.490614 3.6340969 18.939453 4.1328125 C 19.42 4.666763 19.689446 5.3756715 19.841797 6.6347656 C 19.994148 7.8938597 20 9.642985 20 12 C 20 14.35705 19.9941 16.108086 19.841797 17.367188 C 19.689446 18.626289 19.420008 19.333219 18.939453 19.867188 C 18.458922 20.401096 17.889404 20.66376 16.789062 20.828125 C 15.688721 20.99249 14.1213 21 12 21 C 9.87868 21 8.3112651 20.99249 7.2109375 20.828125 C 6.1106099 20.66376 5.541096 20.401107 5.0605469 19.867188 C 4.579984 19.333217 4.3105561 18.626288 4.1582031 17.367188 C 4.0058502 16.108087 4 14.35705 4 12 C 4 9.642985 4.0058503 7.8938583 4.1582031 6.6347656 C 4.310556 5.375673 4.5799916 4.666764 5.0605469 4.1328125 C 5.5094023 3.6340864 6.0358689 3.3714168 7 3.2050781 z " fill="currentColor"/>
</svg>
