<svg xmlns="http://www.w3.org/2000/svg" width="1em" height="1em" viewBox="0 0 24 24" fill="currentColor">
  <path d="M 2 1 A 1 1 0 0 0 1.2929688 1.2929688 A 1 1 0 0 0 1.2929688 2.7070312 L 3.1953125 4.609375 C 2.9875256 5.857843 3 7.3476232 3 9.3554688 L 3 17.865234 C 3 19.051084 2.99068 19.957288 3.1074219 20.736328 C 3.2241663 21.515368 3.5615534 22.323703 4.2929688 22.724609 C 4.9889775 23.106086 5.7583618 23.036014 6.4003906 22.835938 C 7.0424194 22.635863 7.6353952 22.301147 8.2050781 21.931641 C 9.344444 21.192627 10.435387 20.270696 10.949219 19.953125 C 11.723992 19.474241 11.956694 19.382812 12.017578 19.382812 C 12.078458 19.382812 12.309211 19.474242 13.083984 19.953125 C 13.59782 20.270695 14.688751 21.192627 15.828125 21.931641 C 16.397812 22.301148 16.99273 22.635864 17.634766 22.835938 C 18.276801 23.036012 19.04422 23.106076 19.740234 22.724609 C 20.071304 22.543104 20.340303 22.259996 20.53125 21.945312 L 21.292969 22.707031 A 1 1 0 0 0 22.707031 22.707031 A 1 1 0 0 0 22.707031 21.292969 L 20.876953 19.462891 A 1 1 0 0 0 20.480469 19.066406 L 2.7070312 1.2929688 A 1 1 0 0 0 2 1 z M 12 1 C 9.39647 1 7.653427 0.96400652 6.203125 1.4160156 A 1 1 0 0 0 5.5449219 2.6679688 A 1 1 0 0 0 6.796875 3.3261719 C 7.729833 3.035401 9.39647 3 12 3 C 13.8856 3 15.279855 3.00588 16.259766 3.1328125 C 17.239676 3.2597406 17.742074 3.4712508 18.134766 3.8496094 C 18.527521 4.2279964 18.733207 4.6850986 18.863281 5.6171875 C 18.880125 5.7378856 18.895245 5.8654415 18.908203 6 L 11 6 A 1 1 0 0 0 10 7 A 1 1 0 0 0 11 8 L 18.992188 8 C 18.998495 8.5146509 19 9.08276 19 9.7070312 L 19 16 A 1 1 0 0 0 20 17 A 1 1 0 0 0 21 16 L 21 9.7070312 C 21 7.8903463 21.0066 6.5066224 20.84375 5.3398438 C 20.680924 4.1730652 20.300329 3.1585561 19.521484 2.4082031 C 18.742676 1.6578217 17.716193 1.3036944 16.517578 1.1484375 C 15.318964 0.9931806 13.8856 1 12 1 z M 5.0371094 6.4511719 L 18.955078 20.369141 C 18.925582 20.584142 18.889825 20.742254 18.855469 20.835938 C 18.823659 20.922682 18.81008 20.951233 18.800781 20.960938 L 18.798828 20.962891 L 18.796875 20.962891 C 18.791876 20.965191 18.786081 20.965914 18.777344 20.970703 C 18.722994 21.000173 18.576294 21.036114 18.228516 20.927734 C 17.879507 20.818975 17.406057 20.570487 16.917969 20.253906 C 15.942245 19.621038 14.958652 18.760174 14.136719 18.251953 C 13.361892 17.773037 12.818894 17.382813 12.017578 17.382812 C 11.216262 17.382812 10.673264 17.773037 9.8984375 18.251953 C 9.0762797 18.760082 8.0914035 19.620745 7.1152344 20.253906 C 6.6271498 20.570487 6.1536881 20.818975 5.8046875 20.927734 C 5.4556869 21.036493 5.3097256 21.000223 5.2558594 20.970703 C 5.2128144 20.947113 5.1628084 20.952413 5.0859375 20.439453 C 5.0090719 19.926493 5 19.051084 5 17.865234 L 5 9.3554688 C 5 8.2092763 5.004585 7.2469222 5.0371094 6.4511719 z " fill="currentColor"/>
</svg>
