<svg xmlns="http://www.w3.org/2000/svg" width="1em" height="1em" viewBox="0 0 24 24" fill="currentColor">
  <path d="M 8 3 C 6.275767 3 4.9716503 3.1338185 4.0527344 4.0527344 C 3.1338185 4.9716503 3 6.275767 3 8 L 3 10 C 3 10.564175 2.5641485 11 2 11 A 1 1 0 0 0 1 12 A 1 1 0 0 0 2 13 C 2.5641485 13 3 13.435825 3 14 L 3 16 C 3 17.724219 3.1338221 19.028347 4.0527344 19.947266 C 4.9716466 20.866184 6.275764 21 8 21 L 16 21 C 17.724222 21 19.028351 20.86618 19.947266 19.947266 C 20.86618 19.028351 21 17.724222 21 16 L 21 14 C 21 13.435807 21.435807 13 22 13 A 1 1 0 0 0 23 12 A 1 1 0 0 0 22 11 C 21.435807 11 21 10.564193 21 10 L 21 8 C 21 6.275764 20.866184 4.9716466 19.947266 4.0527344 C 19.028347 3.1338221 17.724219 3 16 3 L 8 3 z M 8 5 L 16 5 C 17.585081 5 18.279446 5.2130416 18.533203 5.4667969 C 18.78696 5.7205521 19 6.414906 19 8 L 19 10 C 19 10.765128 19.292373 11.467516 19.771484 12 C 19.292373 12.532484 19 13.234872 19 14 L 19 16 C 19 17.585078 18.786964 18.279443 18.533203 18.533203 C 18.279443 18.786964 17.585078 19 16 19 L 8 19 C 6.414906 19 5.7205521 18.78696 5.4667969 18.533203 C 5.2130416 18.279446 5 17.585081 5 16 L 5 14 C 5 13.234867 4.7076253 12.532482 4.2285156 12 C 4.707625 11.467518 5 10.765133 5 10 L 5 8 C 5 6.414903 5.2130453 5.7205485 5.4667969 5.4667969 C 5.7205485 5.2130453 6.414903 5 8 5 z M 10.599609 7 C 10.222484 7 9.9209778 6.9945436 9.5898438 7.0390625 C 9.2587095 7.0835814 8.83418 7.2205205 8.5273438 7.5273438 C 8.2205204 7.8341801 8.0835814 8.2587095 8.0390625 8.5898438 C 7.9945436 8.9209778 8 9.2224844 8 9.5996094 L 8 12 L 8 14.400391 C 8 14.777491 7.9945495 15.079019 8.0390625 15.410156 C 8.0835795 15.741293 8.220456 16.165782 8.5273438 16.472656 C 8.8341842 16.77947 9.2587141 16.916421 9.5898438 16.960938 C 9.9209727 17.005454 10.222484 17 10.599609 17 L 12.882812 17 C 14.56273 17 16 15.676813 16 14 C 16 13.218262 15.665928 12.529775 15.162109 12 C 15.665928 11.470225 16 10.781738 16 10 C 16 8.3232013 14.562746 7 12.882812 7 L 10.599609 7 z M 10.599609 9 L 12.882812 9 C 13.541878 9 14 9.4676587 14 10 C 14 10.532387 13.541894 11 12.882812 11 L 10 11 L 10 9.5996094 C 10 9.3036464 10.007195 9.1495637 10.015625 9.015625 C 10.149559 9.0071563 10.303646 9 10.599609 9 z M 10 13 L 12.882812 13 C 13.541894 13 14 13.467613 14 14 C 14 14.532387 13.541894 15 12.882812 15 L 10.599609 15 C 10.303646 15 10.149566 14.992805 10.015625 14.984375 C 10.007156 14.850431 10 14.696334 10 14.400391 L 10 13 z " fill="currentColor"/>
</svg>
