<svg xmlns="http://www.w3.org/2000/svg" width="1em" height="1em" viewBox="0 0 24 24" fill="currentColor">
  <path d="M 12 1.5 C 11.3161 1.5 10.68246 1.5008061 10.091797 1.5058594 A 1 1 0 0 0 9.0996094 2.5136719 A 1 1 0 0 0 10.109375 3.5058594 C 10.687712 3.5009121 11.3161 3.5 12 3.5 C 12.6839 3.5 13.31239 3.5009115 13.890625 3.5058594 A 1 1 0 0 0 14.900391 2.5136719 A 1 1 0 0 0 13.908203 1.5058594 C 13.317638 1.5008066 12.6839 1.5 12 1.5 z M 6.2441406 1.7558594 A 1 1 0 0 0 6.1152344 1.7714844 C 4.9533549 1.9894737 3.9504656 2.4236422 3.1816406 3.1992188 C 2.4128166 3.9747815 1.9831164 4.983254 1.7675781 6.1523438 A 1 1 0 0 0 2.5703125 7.3164062 A 1 1 0 0 0 3.734375 6.5136719 C 3.9053968 5.5860416 4.1610465 5.051799 4.6015625 4.6074219 C 5.0420775 4.1630384 5.5677745 3.9082988 6.484375 3.7363281 A 1 1 0 0 0 7.2832031 2.5683594 A 1 1 0 0 0 6.2441406 1.7558594 z M 17.755859 1.7558594 A 1 1 0 0 0 16.716797 2.5683594 A 1 1 0 0 0 17.515625 3.7363281 C 18.43219 3.9082988 18.957901 4.1630391 19.398438 4.6074219 C 19.838921 5.051817 20.094588 5.5880179 20.265625 6.515625 A 1 1 0 0 0 21.429688 7.3164062 A 1 1 0 0 0 22.232422 6.1523438 C 22.016859 4.9832509 21.587077 3.9747637 20.818359 3.1992188 C 20.049496 2.4236414 19.0466 1.9894737 17.884766 1.7714844 A 1 1 0 0 0 17.755859 1.7558594 z M 2.5136719 9.1660156 A 1 1 0 0 0 1.5058594 10.158203 C 1.5008586 10.753753 1.5 11.394184 1.5 12.083984 C 1.5 12.773584 1.5008579 13.412452 1.5058594 14.007812 A 1 1 0 0 0 2.5136719 15 A 1 1 0 0 0 3.5058594 13.992188 C 3.5009603 13.408948 3.5 12.773584 3.5 12.083984 C 3.5 11.394184 3.5009596 10.759231 3.5058594 10.175781 A 1 1 0 0 0 2.5136719 9.1660156 z M 21.486328 9.1660156 A 1 1 0 0 0 20.494141 10.175781 C 20.499041 10.759272 20.5 11.394084 20.5 12.083984 C 20.5 12.773884 20.49913 13.4088 20.494141 13.992188 A 1 1 0 0 0 21.486328 15 A 1 1 0 0 0 22.494141 14.007812 C 22.499192 13.412199 22.5 12.773884 22.5 12.083984 C 22.5 11.394084 22.499233 10.753912 22.494141 10.158203 A 1 1 0 0 0 21.486328 9.1660156 z M 2.453125 16.5 A 1 1 0 0 0 2.3222656 16.515625 A 1 1 0 0 0 1.515625 17.677734 C 1.7357672 18.890656 2.1711666 19.93104 2.9550781 20.734375 C 3.8568979 21.658553 5.0651714 22.107604 6.5097656 22.306641 C 7.9543598 22.505677 9.699955 22.5 12 22.5 C 14.30005 22.5 16.045645 22.5057 17.490234 22.306641 C 18.934824 22.107604 20.143092 21.658544 21.044922 20.734375 C 21.828801 19.93106 22.264268 18.890705 22.484375 17.677734 A 1 1 0 0 0 21.677734 16.515625 A 1 1 0 0 0 20.515625 17.322266 C 20.338732 18.297095 20.071602 18.868206 19.613281 19.337891 C 19.086011 19.878222 18.429507 20.159084 17.216797 20.326172 C 16.004086 20.49326 14.30005 20.5 12 20.5 C 9.699955 20.5 7.9959189 20.49326 6.7832031 20.326172 C 5.5704873 20.159084 4.913969 19.878213 4.3867188 19.337891 C 3.9284102 18.868226 3.6613128 18.297144 3.484375 17.322266 A 1 1 0 0 0 2.453125 16.5 z " fill="currentColor"/>
</svg>
