<svg xmlns="http://www.w3.org/2000/svg" width="1em" height="1em" viewBox="0 0 24 24" fill="currentColor">
  <path d="M 12 1.5 C 11.320981 1.5000219 10.566244 1.5009107 9.9804688 1.5058594 A 1 1 0 0 0 8.9882812 2.5136719 A 1 1 0 0 0 9.9980469 3.5058594 C 10.295234 3.503349 10.641019 3.5027964 11 3.5019531 L 11 4 A 1 1 0 0 0 12 5 A 1 1 0 0 0 13 4 L 13 3.5 C 13.3511 3.5008333 13.68848 3.5032936 13.992188 3.5058594 A 1 1 0 0 0 15 2.5136719 A 1 1 0 0 0 14.007812 1.5058594 C 13.415063 1.5008524 12.711191 1.5 12.025391 1.5 L 12 1.5 z M 17.546875 1.5 A 1 1 0 0 0 16.515625 2.3222656 A 1 1 0 0 0 17.322266 3.484375 C 18.297144 3.6613128 18.868226 3.9284102 19.337891 4.3867188 C 19.878213 4.913969 20.159084 5.5704873 20.326172 6.7832031 C 20.49326 7.9959189 20.5 9.699955 20.5 12 C 20.5 14.30005 20.4933 16.004086 20.326172 17.216797 C 20.159084 18.429507 19.878222 19.086011 19.337891 19.613281 C 18.868206 20.071602 18.297095 20.338732 17.322266 20.515625 A 1 1 0 0 0 16.515625 21.677734 A 1 1 0 0 0 17.677734 22.484375 C 18.890705 22.264268 19.93106 21.828801 20.734375 21.044922 C 21.658544 20.143092 22.107604 18.934824 22.306641 17.490234 C 22.505677 16.045645 22.5 14.30005 22.5 12 C 22.5 9.699955 22.505677 7.9543598 22.306641 6.5097656 C 22.107604 5.0651714 21.658553 3.8568979 20.734375 2.9550781 C 19.93104 2.1711666 18.890656 1.7357672 17.677734 1.515625 A 1 1 0 0 0 17.546875 1.5 z M 6.2578125 1.7519531 A 1 1 0 0 0 6.1289062 1.7675781 C 4.9654513 1.9833722 3.9608771 2.4142691 3.1894531 3.1835938 C 2.4180427 3.9529176 1.9860903 4.9559638 1.7695312 6.1171875 A 1 1 0 0 0 2.5683594 7.2832031 A 1 1 0 0 0 3.734375 6.4824219 C 3.905436 5.5651656 4.1603529 5.0396256 4.6015625 4.5996094 C 5.0427785 4.159594 5.5715025 3.9051409 6.4921875 3.734375 A 1 1 0 0 0 7.2929688 2.5683594 A 1 1 0 0 0 6.2578125 1.7519531 z M 12 8 A 1 1 0 0 0 11 9 L 11 11 L 9 11 A 1 1 0 0 0 8 12 A 1 1 0 0 0 9 13 L 11 13 L 11 15 A 1 1 0 0 0 12 16 A 1 1 0 0 0 13 15 L 13 13 L 15 13 A 1 1 0 0 0 16 12 A 1 1 0 0 0 15 11 L 13 11 L 13 9 A 1 1 0 0 0 12 8 z M 2.5136719 9.0996094 A 1 1 0 0 0 1.5058594 10.091797 C 1.5008373 10.682325 1.5 11.3161 1.5 12 C 1.5 12.6839 1.5008367 13.317577 1.5058594 13.908203 A 1 1 0 0 0 2.5136719 14.900391 A 1 1 0 0 0 3.5058594 13.890625 C 3.5034395 13.606069 3.5028092 13.309415 3.5019531 13 L 4.46875 13 A 1 1 0 0 0 5.46875 12 A 1 1 0 0 0 4.46875 11 L 3.5019531 11 C 3.5028092 10.690559 3.5034394 10.393893 3.5058594 10.109375 A 1 1 0 0 0 2.5136719 9.0996094 z M 2.6992188 16.701172 A 1 1 0 0 0 2.5683594 16.716797 A 1 1 0 0 0 1.7695312 17.882812 C 1.9860891 19.043986 2.4180247 20.047039 3.1894531 20.816406 C 3.9608555 21.58562 4.9654372 22.016603 6.1289062 22.232422 A 1 1 0 0 0 7.2929688 21.431641 A 1 1 0 0 0 6.4921875 20.265625 C 5.5715166 20.094844 5.0428001 19.840377 4.6015625 19.400391 C 4.160351 18.960358 3.9054372 18.434805 3.734375 17.517578 A 1 1 0 0 0 2.6992188 16.701172 z M 12 19 A 1 1 0 0 0 11 20 L 11 20.5 C 10.641001 20.499158 10.295192 20.496697 9.9980469 20.494141 A 1 1 0 0 0 8.9882812 21.486328 A 1 1 0 0 0 9.9804688 22.494141 C 10.56596 22.499172 11.319447 22.499978 11.998047 22.5 L 12.001953 22.5 L 12.025391 22.5 C 12.711191 22.5 13.414996 22.49924 14.007812 22.494141 A 1 1 0 0 0 15 21.486328 A 1 1 0 0 0 13.992188 20.494141 C 13.688509 20.49671 13.351119 20.499157 13 20.5 L 13 20 A 1 1 0 0 0 12 19 z " fill="currentColor"/>
</svg>
