<svg xmlns="http://www.w3.org/2000/svg" width="1em" height="1em" viewBox="0 0 24 24" fill="currentColor">
  <path d="M 18 2 C 16.35499 2 15 3.3549904 15 5 C 15 6.6450096 16.35499 8 18 8 C 19.64501 8 21 6.6450096 21 5 C 21 3.3549904 19.64501 2 18 2 z M 18 4 C 18.564129 4 19 4.4358706 19 5 C 19 5.5641294 18.564129 6 18 6 C 17.435871 6 17 5.5641294 17 5 C 17 4.4358706 17.435871 4 18 4 z M 14.957031 9.0019531 A 1 1 0 0 0 14.181641 9.4257812 C 12.164576 12.295995 11.234127 15.846661 10.580078 18.695312 C 9.888491 17.618298 9.0653927 16.622487 8.015625 15.996094 C 7.3225325 15.582527 6.5361841 15.312679 5.703125 15.341797 C 4.8700659 15.370917 4.0248629 15.724758 3.3222656 16.373047 A 1 1 0 0 0 3.265625 17.785156 A 1 1 0 0 0 4.6777344 17.84375 C 5.0837821 17.469089 5.4179225 17.354223 5.7734375 17.341797 C 6.1289525 17.329367 6.5407457 17.444682 6.9902344 17.712891 C 7.8892118 18.249308 8.8544073 19.398476 9.4570312 20.611328 C 9.5980365 20.895189 9.7009517 21.113043 9.8398438 21.333984 C 9.9092897 21.444455 9.9810118 21.561707 10.142578 21.705078 C 10.304145 21.84845 10.656413 22.042862 11.046875 21.990234 C 11.42067 21.939324 11.704402 21.677758 11.826172 21.501953 C 11.948161 21.325832 11.990782 21.19649 12.03125 21.074219 C 12.11219 20.829675 12.158865 20.598955 12.224609 20.300781 C 12.867513 17.3839 13.866835 13.351172 15.818359 10.574219 A 1 1 0 0 0 15.574219 9.1816406 A 1 1 0 0 0 14.957031 9.0019531 z " fill="currentColor"/>
</svg>
