<svg xmlns="http://www.w3.org/2000/svg" width="1em" height="1em" viewBox="0 0 24 24" fill="currentColor">
  <path d="M 4 1 C 2.3549904 1 1 2.3549904 1 4 C 1 5.2951421 1.8399128 6.4103144 3 6.8261719 L 3 9.1738281 C 1.8399128 9.5896855 1 10.704858 1 12 C 1 13.64501 2.3549904 15 4 15 C 5.2951422 15 6.4103145 14.160087 6.8261719 13 L 9.1738281 13 C 9.4773465 13.846703 10.153297 14.522654 11 14.826172 L 11 17.173828 C 9.8399126 17.589685 9 18.704857 9 20 C 9 21.64501 10.35499 23 12 23 C 13.295143 23 14.410315 22.160087 14.826172 21 L 17.173828 21 C 17.589685 22.160087 18.704857 23 20 23 C 21.64501 23 23 21.64501 23 20 C 23 18.704857 22.160087 17.589685 21 17.173828 L 21 14.826172 C 22.160087 14.410315 23 13.295143 23 12 C 23 10.35499 21.64501 9 20 9 C 18.704857 9 17.589685 9.8399126 17.173828 11 L 14.826172 11 C 14.522654 10.153297 13.846703 9.4773465 13 9.1738281 L 13 6.8261719 C 14.160087 6.4103145 15 5.2951422 15 4 C 15 2.3549904 13.64501 1 12 1 C 10.704858 1 9.5896855 1.8399128 9.1738281 3 L 6.8261719 3 C 6.4103144 1.8399128 5.2951421 1 4 1 z M 4 3 C 4.5641294 3 5 3.4358706 5 4 C 5 4.5641272 4.5641263 4.9999967 4 5 C 3.4358706 5 3 4.5641294 3 4 C 3 3.4358706 3.4358706 3 4 3 z M 12 3 C 12.564129 3 13 3.4358706 13 4 C 13 4.5641294 12.564129 5 12 5 C 11.435871 5 11 4.5641294 11 4 C 11 3.4358706 11.435871 3 12 3 z M 6.8261719 5 L 9.1738281 5 C 9.4773465 5.8467033 10.153297 6.5226535 11 6.8261719 L 11 9.1738281 C 10.153297 9.4773465 9.4773465 10.153297 9.1738281 11 L 6.8261719 11 C 6.5226535 10.153297 5.8467033 9.4773465 5 9.1738281 L 5 6.8261719 C 5.8467032 6.5226534 6.5226534 5.8467032 6.8261719 5 z M 4 11 C 4.5641294 11 5 11.435871 5 12 C 5 12.564129 4.5641294 13 4 13 C 3.4358706 13 3 12.564129 3 12 C 3 11.435871 3.4358706 11 4 11 z M 12 11 C 12.564129 11 13 11.435871 13 12 C 13 12.564129 12.564129 13 12 13 C 11.435871 13 11 12.564129 11 12 C 11 11.435871 11.435871 11 12 11 z M 20 11 C 20.564129 11 21 11.435871 21 12 C 21 12.564129 20.564129 13 20 13 C 19.435871 13 19 12.564129 19 12 C 19 11.435871 19.435871 11 20 11 z M 14.826172 13 L 17.173828 13 C 17.477346 13.846703 18.153297 14.522654 19 14.826172 L 19 17.173828 C 18.153297 17.477346 17.477346 18.153297 17.173828 19 L 14.826172 19 C 14.522654 18.153297 13.846703 17.477346 13 17.173828 L 13 14.826172 C 13.846703 14.522654 14.522654 13.846703 14.826172 13 z M 12 19 C 12.564129 19 13 19.435871 13 20 C 13 20.564129 12.564129 21 12 21 C 11.435871 21 11 20.564129 11 20 C 11 19.435871 11.435871 19 12 19 z M 20 19 C 20.564129 19 21 19.435871 21 20 C 21 20.564129 20.564129 21 20 21 C 19.435871 21 19 20.564129 19 20 C 19 19.435871 19.435871 19 20 19 z " fill="currentColor"/>
</svg>
