<svg xmlns="http://www.w3.org/2000/svg" width="1em" height="1em" viewBox="0 0 24 24" fill="currentColor">
  <path d="M 12 1 C 5.9367124 1 1 5.9367124 1 12 C 1 18.063288 5.9367124 23 12 23 C 18.063288 23 23 18.063288 23 12 C 23 5.9367124 18.063288 1 12 1 z M 12 3 C 16.982407 3 21 7.0175926 21 12 C 21 16.982407 16.982407 21 12 21 C 7.0175926 21 3 16.982407 3 12 C 3 7.0175926 7.0175926 3 12 3 z M 15 4.75 C 14.321567 4.75 13.75 5.3216244 13.75 6 C 13.75 6.6783756 14.321567 7.25 15 7.25 C 15.678433 7.25 16.25 6.6783756 16.25 6 C 16.25 5.3216244 15.678433 4.75 15 4.75 z M 18 7.75 C 17.321567 7.75 16.75 8.3216244 16.75 9 C 16.75 9.6783756 17.321567 10.25 18 10.25 C 18.678433 10.25 19.25 9.6783756 19.25 9 C 19.25 8.3216244 18.678433 7.75 18 7.75 z M 14 8.75 C 13.321567 8.75 12.75 9.3216244 12.75 10 C 12.75 10.678288 13.321712 11.25 14 11.25 C 14.678288 11.25 15.25 10.678288 15.25 10 C 15.25 9.3216244 14.678433 8.75 14 8.75 z " fill="currentColor"/>
</svg>
