<svg xmlns="http://www.w3.org/2000/svg" width="1em" height="1em" viewBox="0 0 24 24" fill="currentColor">
  <path d="M 11.244141 0.99804688 C 10.540803 1.0016867 9.8402338 1.0589738 9.1953125 1.1621094 C 6.284968 1.6275429 4.0769227 4.0282282 4.0039062 6.90625 C 3.9683882 8.305937 4.1379956 9.7073119 4.3691406 11.082031 C 4.5744857 12.303332 4.7279573 13.24078 4.9648438 14.039062 C 5.1797476 14.763265 5.4956401 15.412259 6.0039062 15.908203 L 6.0039062 18 C 6.0039062 18.336706 6.0028832 18.645185 6.0058594 18.933594 A 1 1 0 0 0 6.0039062 19 A 1 1 0 0 0 6.0078125 19.091797 C 6.0151352 19.545747 6.0348984 19.94849 6.0859375 20.328125 C 6.1743905 20.986034 6.4002534 21.638518 6.8828125 22.121094 C 7.3653835 22.603673 8.0178661 22.829512 8.6757812 22.917969 C 9.3336965 23.006425 10.061101 23 11.003906 23 L 12.003906 23 C 12.946706 23 13.674119 23.006399 14.332031 22.917969 C 14.989944 22.829509 15.642428 22.603666 16.125 22.121094 C 16.607572 21.638521 16.833418 20.986038 16.921875 20.328125 C 17.010332 19.670211 17.003906 18.9428 17.003906 18 L 17.003906 15.1875 C 17.152823 14.994753 17.311777 14.778705 17.494141 14.535156 C 18.066885 13.770208 18.900926 12.911192 19.445312 11.773438 C 20.067334 10.473508 20.178289 8.9540123 19.771484 7.6210938 C 19.450387 6.5689982 18.563402 5.7565592 17.447266 5.3867188 C 17.138004 3.2831436 15.527337 1.5322168 13.3125 1.15625 C 12.653586 1.0444146 11.947479 0.99440707 11.244141 0.99804688 z M 11.253906 3.0019531 C 11.86008 2.9987792 12.46313 3.0394785 12.978516 3.1269531 C 14.601394 3.4024354 15.684791 4.7579676 15.576172 6.2597656 C 15.502622 7.2766851 15.038477 8.5016848 14.703125 9.78125 A 1 1 0 0 0 15.416016 11.001953 A 1 1 0 0 0 16.636719 10.287109 C 16.858846 9.4395658 17.143972 8.3796171 17.351562 7.3203125 C 17.56998 7.5080443 17.732703 7.7900288 17.859375 8.2050781 C 18.098971 8.9901272 18.022404 10.112295 17.640625 10.910156 C 17.287011 11.649201 16.565587 12.439684 15.894531 13.335938 C 15.298143 14.132421 15.048704 14.436925 14.828125 14.59375 C 14.263627 14.994988 13.542167 15 12.490234 15 L 11.458984 15 C 10.189479 15 9.2540983 14.994587 8.6152344 14.917969 C 7.9763705 14.841351 7.6865267 14.721486 7.4570312 14.527344 C 7.2229143 14.329318 7.059023 14.069143 6.8808594 13.46875 C 6.7026958 12.868357 6.5471418 11.973252 6.3417969 10.751953 C 6.1213219 9.4406927 5.9734039 8.1590844 6.0039062 6.9570312 C 6.0517699 5.0704331 7.4928901 3.4592652 9.5097656 3.1367188 C 10.038434 3.0521743 10.647732 3.0051271 11.253906 3.0019531 z M 15.003906 16.730469 L 15.003906 18 C 15.003906 18.9428 14.997403 19.62921 14.939453 20.060547 C 14.881463 20.491884 14.814165 20.603804 14.710938 20.707031 C 14.60771 20.810259 14.49579 20.877553 14.064453 20.935547 C 13.633113 20.99354 12.946706 21 12.003906 21 L 11.003906 21 C 10.061101 21 9.3746993 20.99354 8.9433594 20.935547 C 8.5120194 20.877553 8.400094 20.810252 8.296875 20.707031 C 8.1936541 20.603807 8.1263513 20.491888 8.0683594 20.060547 C 8.0657171 20.040894 8.0629794 20.020712 8.0605469 20 L 10.003906 20 A 1 1 0 0 0 11.003906 19 A 1 1 0 0 0 10.003906 18 L 8.0039062 18 L 8.0039062 16.849609 C 8.1269727 16.871378 8.2520607 16.889085 8.3789062 16.904297 C 9.2192599 17.005079 10.189479 17 11.458984 17 L 12.490234 17 C 13.227324 17 14.117528 17.035892 15.003906 16.730469 z " fill="currentColor"/>
</svg>
