<svg xmlns="http://www.w3.org/2000/svg" width="1em" height="1em" viewBox="0 0 24 24" fill="currentColor">
  <path d="M 13 2 C 10.946587 2 9.2334187 3.2806689 8.4667969 5.0644531 C 8.3090816 5.0494332 8.1611062 5 8 5 C 5.2504204 5 3 7.2504204 3 10 C 3 10.241176 3.0663164 10.464208 3.0996094 10.697266 C 1.9085388 11.392724 1 12.531554 1 14 C 1 16.197327 2.8027269 18 5 18 C 6.732284 18 8.2213192 16.890579 8.7714844 15.333984 A 1 1 0 0 0 8.1621094 14.056641 A 1 1 0 0 0 6.8867188 14.666016 C 6.613224 15.439821 5.880156 16 5 16 C 3.8835731 16 3 15.116473 3 14 C 3 13.3737 3.3389935 12.893977 3.78125 12.529297 A 1 1 0 0 0 5.0351562 12.865234 A 1 1 0 0 0 5.4003906 11.5 C 5.2813787 11.29429 5.1867978 11.072375 5.1191406 10.839844 C 5.041842 10.574204 5 10.293524 5 10 C 5 8.3312996 6.3312996 7 8 7 C 8.2855433 7 8.5590768 7.0399784 8.8183594 7.1132812 C 9.5746932 7.3270855 10.213377 7.832397 10.599609 8.5 A 1 1 0 0 0 11.964844 8.8652344 A 1 1 0 0 0 12.330078 7.5 C 11.889815 6.739006 11.210707 6.179171 10.449219 5.7402344 C 10.940009 4.7600665 11.818558 4 13 4 C 14.668651 4 16 5.3313116 16 7 C 16 7.031306 15.999097 7.0632841 15.998047 7.0957031 C 15.982194 7.6089675 15.839949 8.0844416 15.599609 8.5 A 1 1 0 0 0 15.964844 9.8652344 A 1 1 0 0 0 17.330078 9.5 C 17.581324 9.0655833 17.636229 8.5360585 17.748047 8.03125 C 17.833272 8.0239975 17.912464 8 18 8 C 19.668651 8 21 9.3313116 21 11 C 21 12.668639 19.668639 14 18 14 C 17.9342 14 17.875042 13.980683 17.810547 13.976562 C 17.570864 12.556119 16.610898 11.356829 15.199219 11.070312 A 1 1 0 0 0 14.019531 11.851562 A 1 1 0 0 0 14.800781 13.029297 C 15.482944 13.167753 16 13.763919 16 14.5 C 16 14.57605 15.994905 14.648851 15.984375 14.720703 C 15.877911 15.444106 15.264333 16 14.5 16 L 14 16 C 11.250439 16 9 18.250439 9 21 A 1 1 0 0 0 10 22 A 1 1 0 0 0 11 21 C 11 19.331361 12.331361 18 14 18 L 14.5 18 C 15.870972 18 16.886258 17.08968 17.458984 15.929688 C 17.640633 15.949689 17.813766 16 18 16 C 20.749561 16 23 13.749561 23 11 C 23 8.2504084 20.749549 6 18 6 C 17.93212 6 17.870057 6.0226916 17.802734 6.0253906 C 17.332935 3.7544982 15.404527 2 13 2 z M 8.6933594 9 A 1 1 0 0 0 7.7597656 9.78125 C 7.4928519 10.972067 8.1309728 12.160323 9.2167969 12.771484 C 10.303394 13.382474 11.650168 13.309983 12.529297 12.462891 A 1 1 0 0 0 12.556641 11.048828 A 1 1 0 0 0 11.142578 11.023438 C 11.000907 11.159944 10.602408 11.257066 10.197266 11.029297 C 9.7920163 10.801402 9.6678767 10.410863 9.7109375 10.21875 A 1 1 0 0 0 8.953125 9.0234375 A 1 1 0 0 0 8.6933594 9 z " fill="currentColor"/>
</svg>
