<svg xmlns="http://www.w3.org/2000/svg" width="1em" height="1em" viewBox="0 0 24 24" fill="currentColor">
  <path d="M 21 1 C 19.208133 1 18.134013 1.9759441 17.572266 2.6484375 C 17.015287 3.3152166 15.572713 4.5159156 14.746094 5 L 9 5 C 8.51194 5 8.2329226 4.9969887 7.921875 5.0332031 C 6.7589954 5.1686039 5.6790883 5.7075819 4.8730469 6.5566406 C 4.743705 6.692879 4.6315344 6.8287815 4.5 7 C 3.1311328 7 2 8.1311328 2 9.5 C 2 10.868867 3.1311328 12 4.5 12 C 5.8688672 12 7 10.868867 7 9.5 C 7 8.8800539 6.7677408 8.3085742 6.3867188 7.8691406 C 6.8630104 7.3965106 7.4840399 7.0973458 8.1523438 7.0195312 C 8.3023561 7.0020657 8.51194 7 9 7 L 11.5 7 L 11.5 8.0839844 C 8.6703151 8.5631311 6.5 11.038672 6.5 14 L 6.5 18.285156 C 6.5 19.089856 6.4947599 19.71148 6.5605469 20.279297 C 6.6263359 20.847114 6.7871539 21.410672 7.1542969 21.871094 C 7.2944284 22.04684 7.4534641 22.205745 7.6289062 22.345703 C 8.0893229 22.712842 8.6528942 22.873671 9.2207031 22.939453 C 9.7885119 23.005235 10.410134 23 11.214844 23 L 13.785156 23 C 14.589856 23 15.211488 23.005203 15.779297 22.939453 C 16.347105 22.873673 16.910669 22.712815 17.371094 22.345703 C 17.546662 22.205668 17.705668 22.046662 17.845703 21.871094 C 18.212815 21.410669 18.373671 20.847105 18.439453 20.279297 C 18.505235 19.711491 18.5 19.089856 18.5 18.285156 L 18.5 14 C 18.5 11.03867 16.329674 8.5631322 13.5 8.0839844 L 13.5 7 L 14.746094 7 C 15.572574 7.4837781 17.015208 8.6827355 17.572266 9.3496094 C 18.13386 10.02192 19.207929 11 21 11 A 1.0001 1.0001 0 0 0 22 10 L 22 2 A 1.0001 1.0001 0 0 0 21 1 z M 20 3.1992188 L 20 8.8007812 C 19.651596 8.6453745 19.399326 8.4178108 19.107422 8.0683594 C 18.495089 7.335313 17.485875 6.6588725 16.552734 6 C 17.48584 5.3412979 18.495013 4.6647782 19.107422 3.9316406 C 19.399236 3.5822967 19.651584 3.3545282 20 3.1992188 z M 4.5 9 C 4.787987 9 5 9.212013 5 9.5 C 5 9.787987 4.787987 10 4.5 10 C 4.212013 10 4 9.787987 4 9.5 C 4 9.212013 4.212013 9 4.5 9 z M 12.5 10 C 14.375228 10 15.934706 11.26829 16.375 13 L 15 13 A 1 1 0 0 0 14 14 A 1 1 0 0 0 15 15 L 16.5 15 L 16.5 17 L 15 17 A 1 1 0 0 0 14 18 A 1 1 0 0 0 15 19 L 16.498047 19 C 16.493332 19.447691 16.48043 19.796497 16.451172 20.048828 C 16.407882 20.42252 16.350438 20.536272 16.28125 20.623047 C 16.23448 20.681677 16.18168 20.734485 16.123047 20.78125 C 16.036277 20.85044 15.92252 20.907879 15.548828 20.951172 C 15.175139 20.994465 14.589856 21 13.785156 21 L 11.214844 21 C 10.410134 21 9.8248605 20.994502 9.4511719 20.951172 C 9.0774833 20.907881 8.9636865 20.850412 8.8769531 20.78125 C 8.8182354 20.734408 8.7653585 20.681501 8.71875 20.623047 C 8.649553 20.536269 8.5921242 20.422511 8.5488281 20.048828 C 8.5055321 19.675145 8.5 19.089856 8.5 18.285156 L 8.5 14 C 8.5 11.779046 10.279027 10 12.5 10 z " fill="currentColor"/>
</svg>
