<svg xmlns="http://www.w3.org/2000/svg" width="1em" height="1em" viewBox="0 0 24 24" fill="currentColor">
  <path d="M 18.632812 1.0117188 C 17.993982 0.99418073 17.327182 1.0493669 16.652344 1.1972656 C 15.4251 1.4662304 14.179486 2.0964315 13.009766 3.09375 C 10.786122 2.7280256 8.9408897 3.2219584 7.7636719 4.2539062 C 6.6935135 5.1920059 6.2002604 6.3771376 6.0097656 7.4921875 C 5.3358364 7.6501981 4.718174 7.8985187 4.1992188 8.2773438 C 2.4785763 9.5333718 1.9557253 11.697088 2.2363281 13.738281 C 0.87843631 15.39332 0.85755382 17.777243 1.1464844 19.886719 C 1.5057696 22.509903 4.5437711 23.800414 6.7421875 22.423828 C 9.7982023 20.510167 12.971681 18.001861 16.009766 15.005859 C 19.130893 11.927831 20.89324 9.518308 22.412109 6.8632812 C 22.990553 5.8521307 23.156095 4.6796191 22.853516 3.6113281 C 22.550936 2.5430372 21.689426 1.5807462 20.447266 1.2636719 C 19.882505 1.119519 19.271643 1.0292568 18.632812 1.0117188 z M 18.582031 2.9960938 C 19.060701 3.0157212 19.520436 3.0907298 19.953125 3.2011719 C 20.533065 3.3492075 20.790942 3.6663934 20.929688 4.15625 C 21.068434 4.6461066 20.997137 5.3093444 20.675781 5.8710938 C 19.22685 8.4038672 17.625342 10.603859 14.605469 13.582031 C 11.665953 16.48083 8.5988458 18.901777 5.6816406 20.728516 C 4.6148171 21.39653 3.2978879 20.86325 3.1269531 19.615234 C 2.8803128 17.814519 3.1037783 16.128418 3.7324219 15.191406 C 4.3021882 15.301024 5.1201043 15.529635 5.9746094 16.138672 A 1 1 0 0 0 7.3691406 15.904297 A 1 1 0 0 0 7.1347656 14.509766 C 6.0374548 13.727673 5.0406055 13.41946 4.1875 13.255859 C 4.0713457 11.912687 4.4279687 10.58674 5.3789062 9.8925781 C 6.4761087 9.0916464 8.4325344 8.8440253 11.675781 10.666016 A 1 1 0 0 0 13.037109 10.283203 A 1 1 0 0 0 12.65625 8.921875 C 10.958374 7.9680428 9.4273411 7.5037664 8.0683594 7.3789062 C 8.2567398 6.8171605 8.550459 6.2237881 9.0820312 5.7578125 C 9.8994314 5.0412804 11.099901 4.574304 13.105469 5.0507812 C 13.96413 5.2547811 14.965432 5.643383 16.111328 6.2871094 A 1 1 0 0 0 17.474609 5.90625 A 1 1 0 0 0 17.091797 4.5449219 C 16.462314 4.1912991 15.935796 4.0721805 15.357422 3.8359375 C 15.941872 3.4968059 16.526124 3.2444517 17.099609 3.1210938 C 17.605758 3.0122199 18.103362 2.9764663 18.582031 2.9960938 z " fill="currentColor"/>
</svg>
