<svg xmlns="http://www.w3.org/2000/svg" width="1em" height="1em" viewBox="0 0 24 24" fill="currentColor">
  <path d="M 10.759766 5 C 9.7392544 5 8.7764804 5.3019557 7.96875 5.7519531 C 7.3294495 6.1081161 6.776515 6.5470419 6.3828125 7.0957031 C 6.0986295 7.033004 5.8029891 7 5.5 7 C 2.9493556 7 1 9.3179761 1 12 C 1 12.056057 1.0012741 12.111667 1.0058594 12.166016 C 1.0783014 14.200741 2.465164 15.930269 4.4140625 17.099609 C 6.416131 18.300852 9.0764425 19 12 19 C 14.923534 19 17.583864 18.300851 19.585938 17.099609 C 21.534841 15.93027 22.921699 14.200745 22.994141 12.166016 C 22.99421 12.164059 22.994073 12.162113 22.994141 12.160156 C 22.998406 12.107707 23 12.054036 23 12 A 1 1 0 0 0 22.990234 11.859375 C 22.941604 10.910032 22.417203 10.148436 21.689453 9.4257812 C 21.049109 8.7899196 20.185035 8.2282756 19.15625 8.0546875 C 18.371968 6.8248468 17.102316 6 15.609375 6 C 15.06056 6 14.532037 6.1163049 14.048828 6.3242188 C 13.160904 5.5008389 12.024924 5 10.759766 5 z M 10.759766 7 C 12.46492 7 14 8.6970156 14 11 A 1 1 0 0 0 15 12 A 1 1 0 0 0 16 11 C 16 9.9307307 15.750761 8.9100098 15.308594 8.0234375 C 15.406961 8.0079173 15.507148 8 15.609375 8 C 16.384189 8 17.127685 8.4906454 17.574219 9.2890625 A 1 1 0 0 0 17.71875 9.5820312 C 17.89701 9.9962271 18 10.475767 18 11 A 1 1 0 0 0 19 12 A 1 1 0 0 0 20 11 C 20 10.860188 19.994528 10.72167 19.984375 10.583984 C 20.088212 10.665467 20.18783 10.752937 20.28125 10.845703 C 20.741881 11.303109 20.971664 11.936276 20.998047 11.994141 L 20.998047 11.996094 C 20.987765 12.01581 20.932079 12.140682 20.634766 12.351562 C 20.268959 12.611021 19.620982 12.912731 18.783203 13.164062 C 17.107645 13.666722 14.680336 14 12 14 C 9.3196382 14 6.8923479 13.666722 5.2167969 13.164062 C 4.3790214 12.912731 3.7310371 12.611021 3.3652344 12.351562 C 3.0478846 12.12647 3.0054545 12.000067 3 11.994141 C 3.0031014 10.261401 4.1863695 9 5.5 9 C 6.6097566 9 7.6130594 9.8821748 7.9140625 11.21875 A 1 1 0 0 0 9.109375 11.974609 A 1 1 0 0 0 9.8652344 10.78125 C 9.6188246 9.6870912 9.0352707 8.712943 8.2304688 8.0273438 C 8.4141803 7.8480468 8.6571001 7.6564376 8.9414062 7.4980469 C 9.4799008 7.1980443 10.147576 7 10.759766 7 z M 5.2089844 15.238281 C 7.0737319 15.723293 9.4264507 16 12 16 C 14.574997 16 16.928009 15.723809 18.792969 15.238281 C 18.716363 15.28775 18.637174 15.336446 18.556641 15.384766 C 16.939414 16.355099 14.599266 17 12 17 C 9.4007075 17 7.0605783 16.355098 5.4433594 15.384766 C 5.3632773 15.336716 5.2851827 15.287467 5.2089844 15.238281 z " fill="currentColor"/>
</svg>
