<svg xmlns="http://www.w3.org/2000/svg" width="1em" height="1em" viewBox="0 0 24 24" fill="currentColor">
  <path d="M 12 2 C 10.5955 2 9.6948664 1.930641 8.8339844 2.5058594 C 8.5064319 2.7247277 8.2247277 3.0064319 8.0058594 3.3339844 C 7.5794005 3.9722302 7.5068501 4.6328722 7.4980469 5.5039062 C 6.5463638 5.5122714 5.7426546 5.5402848 5.0253906 5.6367188 C 3.9590062 5.7800909 3.0205986 6.1161133 2.3183594 6.8183594 C 1.6161098 7.5206021 1.2800907 8.4590033 1.1367188 9.5253906 C 1.0250032 10.35632 1.0036625 11.304443 1 12.462891 A 1 1 0 0 0 1 12.5 C 0.99910002 12.816932 1 13.14967 1 13.5 L 1 14 C 1 15.6499 0.99334705 16.908225 1.1367188 17.974609 C 1.2800908 19.040994 1.6161378 19.979371 2.3183594 20.681641 C 3.0206014 21.383869 3.9590094 21.719914 5.0253906 21.863281 C 6.0917719 22.006649 7.350085 22 9 22 L 15 22 C 16.6499 22 17.908228 22.0066 18.974609 21.863281 C 20.04099 21.719914 20.979368 21.383844 21.681641 20.681641 C 22.383844 19.979368 22.719914 19.04099 22.863281 17.974609 C 23.006649 16.908228 23 15.6499 23 14 L 23 13.5 C 23 13.149672 23.000903 12.816931 23 12.5 A 1 1 0 0 0 23 12.462891 C 22.996324 11.304522 22.97495 10.356276 22.863281 9.5253906 C 22.719914 8.4590065 22.383872 7.5206048 21.681641 6.8183594 C 20.979371 6.1161378 20.040994 5.7800908 18.974609 5.6367188 C 18.25735 5.5402855 17.453629 5.5122716 16.501953 5.5039062 C 16.493166 4.632873 16.420651 3.9722325 15.994141 3.3339844 C 15.775273 3.0063879 15.493607 2.7247339 15.166016 2.5058594 C 14.305141 1.9305887 13.4045 2 12 2 z M 12 4 C 13.4045 4 13.906762 4.06912 14.054688 4.1679688 C 14.163896 4.2409337 14.259099 4.336149 14.332031 4.4453125 C 14.402519 4.5507927 14.458399 4.8362209 14.484375 5.5 L 9.515625 5.5 C 9.541603 4.8362221 9.5974882 4.550795 9.6679688 4.4453125 C 9.7409405 4.336105 9.836105 4.2409405 9.9453125 4.1679688 C 10.09333 4.0690671 10.5955 4 12 4 z M 9 7.5 L 15 7.5 C 16.6499 7.5 17.867215 7.50623 18.707031 7.6191406 C 19.546847 7.7320512 19.944648 7.9095135 20.267578 8.2324219 C 20.590446 8.5552964 20.767952 8.9531479 20.880859 9.7929688 C 20.942056 10.248159 20.971814 10.814245 20.986328 11.5 L 14 11.5 L 10 11.5 L 3.0136719 11.5 C 3.0281851 10.814243 3.0579422 10.248157 3.1191406 9.7929688 C 3.2320511 8.9531509 3.4095414 8.5552992 3.7324219 8.2324219 C 4.0553026 7.909538 4.4531556 7.732051 5.2929688 7.6191406 C 6.132782 7.5062303 7.350085 7.5 9 7.5 z M 3 13.5 L 9 13.5 C 9 13.965 8.9822425 14.259503 9.0859375 14.646484 C 9.3166689 15.507693 9.9923067 16.183332 10.853516 16.414062 C 11.240497 16.517758 11.535 16.5 12 16.5 C 12.465 16.5 12.759503 16.517762 13.146484 16.414062 C 14.007693 16.183332 14.68333 15.507693 14.914062 14.646484 C 15.017758 14.259505 15 13.965 15 13.5 L 21 13.5 L 21 14 C 21 15.6499 20.9938 16.867212 20.880859 17.707031 C 20.767952 18.54685 20.590474 18.94465 20.267578 19.267578 C 19.94465 19.590474 19.54685 19.767952 18.707031 19.880859 C 17.867212 19.993767 16.6499 20 15 20 L 9 20 C 7.350085 20 6.132785 19.993767 5.2929688 19.880859 C 4.4531525 19.767952 4.0552999 19.59045 3.7324219 19.267578 C 3.4095135 18.944648 3.2320512 18.546847 3.1191406 17.707031 C 3.0062301 16.867215 3 15.6499 3 14 L 3 13.5 z M 11 13.5 L 13 13.5 C 13 13.965 12.980932 14.134488 12.982422 14.128906 C 12.935752 14.303098 12.803098 14.435753 12.628906 14.482422 C 12.63449 14.480926 12.465 14.5 12 14.5 C 11.535 14.5 11.365512 14.480932 11.371094 14.482422 C 11.196902 14.435752 11.064247 14.303098 11.017578 14.128906 C 11.019074 14.13449 11 13.965 11 13.5 z " fill="currentColor"/>
</svg>
