<svg xmlns="http://www.w3.org/2000/svg" width="1em" height="1em" viewBox="0 0 24 24" fill="currentColor">
  <path d="M 12 2 C 10.5956 2 9.6929437 1.9306207 8.8320312 2.5058594 C 8.5044787 2.7247277 8.2247277 3.0064319 8.0058594 3.3339844 C 7.5793908 3.9722322 7.506847 4.6328728 7.4980469 5.5039062 C 6.546364 5.5122717 5.7426528 5.5402859 5.0253906 5.6367188 C 3.9590085 5.7800894 3.0186492 6.1161231 2.3164062 6.8183594 C 1.6141718 7.5205938 1.2800924 8.4590072 1.1367188 9.5253906 C 0.99334518 10.591774 1 11.850049 1 13.5 L 1 14 C 1 15.649899 0.99335405 16.908238 1.1367188 17.974609 C 1.2800839 19.04098 1.6141735 19.979408 2.3164062 20.681641 C 3.0186239 21.383858 3.9590219 21.719885 5.0253906 21.863281 C 6.0917593 22.006678 7.3500999 22 9 22 L 15 22 C 16.65019 22 17.908065 22.0067 18.974609 21.863281 C 20.041154 21.719901 20.981303 21.384068 21.683594 20.681641 C 22.385898 19.979268 22.720068 19.039221 22.863281 17.972656 C 23.006495 16.906092 23.0003 15.648247 23 13.998047 L 23 13.498047 C 22.99975 11.848392 23.0068 10.591618 22.863281 9.5253906 C 22.719758 8.4591632 22.383866 7.5204549 21.681641 6.8183594 C 20.979427 6.1162689 20.04085 5.7800627 18.974609 5.6367188 C 18.257455 5.5403055 17.453645 5.5122782 16.501953 5.5039062 C 16.493129 4.6328683 16.420532 3.9722304 15.994141 3.3339844 C 15.775273 3.0063879 15.493607 2.7247339 15.166016 2.5058594 C 14.305116 1.9306866 13.4045 2 12 2 z M 12 4 C 13.4045 4 13.906586 4.069021 14.054688 4.1679688 C 14.163896 4.2409337 14.257146 4.3341958 14.330078 4.4433594 C 14.400553 4.5488499 14.457827 4.835367 14.484375 5.5 L 9.515625 5.5 C 9.5415996 4.8353653 9.5974836 4.5488466 9.6679688 4.4433594 C 9.7409405 4.3341518 9.8341518 4.2409405 9.9433594 4.1679688 C 10.091347 4.0690875 10.5956 4 12 4 z M 9 7.5 L 15 7.5 C 16.6497 7.5 17.867347 7.50625 18.707031 7.6191406 C 19.546716 7.7320267 19.944692 7.9095923 20.267578 8.2324219 C 20.590452 8.5552364 20.767833 8.9532986 20.880859 9.7929688 C 20.993886 10.632639 20.99975 11.848402 21 13.498047 L 21 14 C 21.0003 15.6502 20.9956 16.867071 20.882812 17.707031 C 20.770027 18.546992 20.592427 18.944651 20.269531 19.267578 C 19.946622 19.590551 19.54894 19.76794 18.708984 19.880859 C 17.869029 19.993779 16.65021 20 15 20 L 9 20 C 7.3501201 20 6.1327601 19.993788 5.2929688 19.880859 C 4.4531775 19.767931 4.0553041 19.59046 3.7324219 19.267578 C 3.4095546 18.944711 3.2320456 18.546835 3.1191406 17.707031 C 3.0062357 16.867227 3 15.649901 3 14 L 3 13.5 C 3 11.850051 3.0062292 10.63278 3.1191406 9.7929688 C 3.232052 8.9531571 3.4095363 8.5553075 3.7324219 8.2324219 C 4.0553088 7.9095381 4.4531559 7.73205 5.2929688 7.6191406 C 6.1327817 7.5062313 7.350085 7.5 9 7.5 z M 6 9.5 A 1 1 0 0 0 5 10.5 A 1 1 0 0 0 6 11.5 L 18 11.5 A 1 1 0 0 0 19 10.5 A 1 1 0 0 0 18 9.5 L 6 9.5 z " fill="currentColor"/>
</svg>
