<svg xmlns="http://www.w3.org/2000/svg" width="1em" height="1em" viewBox="0 0 24 24" fill="currentColor">
  <path d="M 9.5 2 C 8.55719 2 7.8297886 1.9935765 7.171875 2.0820312 C 6.5139614 2.1704859 5.8614754 2.3963288 5.3789062 2.8789062 C 4.8963288 3.3614753 4.6704861 4.0139614 4.5820312 4.671875 C 4.5676004 4.7792099 4.5547421 4.8883325 4.5449219 5 C 4.0461686 5.0012051 3.6252898 5.0100579 3.2207031 5.0644531 C 2.6989468 5.1346014 2.1417712 5.3230726 1.7324219 5.7324219 C 1.3230726 6.1417712 1.1346014 6.6989468 1.0644531 7.2207031 C 0.99430489 7.7424594 1 8.292895 1 9 L 1 16 C 1 16.7071 0.99430513 17.25754 1.0644531 17.779297 C 1.1346011 18.301054 1.3231141 18.858214 1.7324219 19.267578 C 2.1417798 19.676899 2.6989566 19.865406 3.2207031 19.935547 C 3.6734701 19.996414 4.1469493 20.000069 4.7265625 20 C 4.8558949 20.415754 5.0627596 20.804942 5.3789062 21.121094 C 5.8614739 21.603678 6.5139596 21.829512 7.171875 21.917969 C 7.8297906 22.006425 8.55719 22 9.5 22 L 14.5 22 C 15.4428 22 16.170212 22.006399 16.828125 21.917969 C 17.486038 21.829509 18.138521 21.603666 18.621094 21.121094 C 18.937245 20.804942 19.144107 20.415755 19.273438 20 C 19.853047 20.000071 20.32653 19.996422 20.779297 19.935547 C 21.301044 19.865407 21.858206 19.676857 22.267578 19.267578 C 22.676857 18.858206 22.865407 18.301044 22.935547 17.779297 C 23.005687 17.257547 23 16.7071 23 16 L 23 9 C 23 8.292895 23.005687 7.7424496 22.935547 7.2207031 C 22.865406 6.6989566 22.676899 6.1417798 22.267578 5.7324219 C 21.858214 5.3231141 21.301054 5.1346008 20.779297 5.0644531 C 20.374708 5.0100581 19.953833 5.0012052 19.455078 5 C 19.44526 4.8883326 19.432396 4.77921 19.417969 4.671875 C 19.329511 4.0139596 19.103678 3.3614738 18.621094 2.8789062 C 18.13852 2.3963404 17.486036 2.1704861 16.828125 2.0820312 C 16.170214 1.9935763 15.4428 2 14.5 2 L 9.5 2 z M 9.5 4 L 14.5 4 C 15.4428 4 16.129208 4.0064601 16.560547 4.0644531 C 16.991886 4.1224461 17.103805 4.1897446 17.207031 4.2929688 C 17.310247 4.3961812 17.377553 4.5081136 17.435547 4.9394531 C 17.49354 5.3707928 17.5 6.05719 17.5 7 L 17.5 17 C 17.5 17.9428 17.493497 18.62921 17.435547 19.060547 C 17.377557 19.491884 17.310259 19.603804 17.207031 19.707031 C 17.103804 19.810259 16.991884 19.877553 16.560547 19.935547 C 16.129207 19.99354 15.4428 20 14.5 20 L 9.5 20 C 8.55719 20 7.8707927 19.99354 7.4394531 19.935547 C 7.0081136 19.877553 6.8961812 19.810247 6.7929688 19.707031 C 6.6897445 19.603805 6.6224458 19.491886 6.5644531 19.060547 C 6.5064604 18.629208 6.5 17.9428 6.5 17 L 6.5 7 C 6.5 6.05719 6.5064604 5.3707945 6.5644531 4.9394531 C 6.6224459 4.5081117 6.6897562 4.3961797 6.7929688 4.2929688 C 6.8961796 4.1897562 7.0081117 4.1224459 7.4394531 4.0644531 C 7.8707945 4.0064604 8.55719 4 9.5 4 z M 9.5 7 A 1 1 0 0 0 8.5 8 A 1 1 0 0 0 9.5 9 L 14.5 9 A 1 1 0 0 0 15.5 8 A 1 1 0 0 0 14.5 7 L 9.5 7 z M 4.5 7.0019531 L 4.5 17 C 4.5 17.361694 4.4981237 17.691516 4.5019531 17.998047 C 4.0485854 17.994128 3.7090114 17.982788 3.4882812 17.953125 C 3.1930853 17.913445 3.1764664 17.883496 3.1464844 17.853516 C 3.1164524 17.823476 3.086562 17.806916 3.046875 17.511719 C 3.0071873 17.216522 3 16.7071 3 16 L 3 9 C 3 8.292895 3.0071883 7.7834676 3.046875 7.4882812 C 3.0865617 7.193095 3.1164937 7.1764751 3.1464844 7.1464844 C 3.1764751 7.1164937 3.1930949 7.0865617 3.4882812 7.046875 C 3.708536 7.0172626 4.0480693 7.0058931 4.5 7.0019531 z M 19.5 7.0019531 C 19.951927 7.0058935 20.291459 7.0172639 20.511719 7.046875 C 20.806912 7.086562 20.823479 7.1164524 20.853516 7.1464844 C 20.883496 7.1764664 20.913435 7.1930854 20.953125 7.4882812 C 20.992808 7.7834777 21 8.292895 21 9 L 21 16 C 21 16.7071 20.992795 17.216516 20.953125 17.511719 C 20.913445 17.806922 20.883536 17.823488 20.853516 17.853516 C 20.823486 17.883536 20.806926 17.913435 20.511719 17.953125 C 20.290981 17.982798 19.95141 17.99413 19.498047 17.998047 C 19.501876 17.691515 19.5 17.361695 19.5 17 L 19.5 7.0019531 z M 9.5 11 A 1 1 0 0 0 8.5 12 A 1 1 0 0 0 9.5 13 L 14.5 13 A 1 1 0 0 0 15.5 12 A 1 1 0 0 0 14.5 11 L 9.5 11 z M 9.5 15 A 1 1 0 0 0 8.5 16 A 1 1 0 0 0 9.5 17 L 14.5 17 A 1 1 0 0 0 15.5 16 A 1 1 0 0 0 14.5 15 L 9.5 15 z " fill="currentColor"/>
</svg>
