<svg xmlns="http://www.w3.org/2000/svg" width="1em" height="1em" viewBox="0 0 24 24" fill="currentColor">
  <path d="M 12.5 1.5 C 6.712851 1.5 2 6.212851 2 12 C 2 13.156284 2.1882683 14.273342 2.5351562 15.316406 C 2.9590081 16.590942 2.6171243 18.406765 2.2734375 19.216797 C 2.0291695 19.792585 2.10146 20.515412 2.6035156 21.017578 C 2.9322967 21.346168 3.4164543 21.530823 3.9160156 21.455078 C 5.4580091 21.221561 6.0499242 20.454942 7.5253906 21.25 C 9.0061073 22.047845 10.704179 22.5 12.5 22.5 C 18.287141 22.5 23 17.787141 23 12 C 23 11.244074 22.91995 10.505182 22.767578 9.7929688 A 1 1 0 0 0 21.580078 9.0253906 A 1 1 0 0 0 20.8125 10.210938 C 20.935728 10.786924 21 11.385326 21 12 C 21 16.706259 17.206259 20.5 12.5 20.5 C 11.039621 20.5 9.6726927 20.133837 8.4746094 19.488281 C 6.6308517 18.494768 5.1936617 19.004106 4.2929688 19.296875 C 4.7046318 18.046965 4.9989332 16.38946 4.4316406 14.683594 C 4.1513085 13.840658 4 12.940316 4 12 C 4 7.293729 7.793729 3.5 12.5 3.5 C 13.114713 3.5 13.71304 3.56423 14.289062 3.6875 A 1 1 0 0 0 15.476562 2.9199219 A 1 1 0 0 0 14.707031 1.7324219 C 13.994653 1.5799717 13.255887 1.5 12.5 1.5 z M 19.5 1.5 C 17.578854 1.5 16 3.0788434 16 5 C 16 6.9211566 17.578854 8.5 19.5 8.5 C 21.421146 8.5 23 6.9211566 23 5 C 23 3.0788434 21.421146 1.5 19.5 1.5 z M 19.5 3.5 C 20.340254 3.5 21 4.1597366 21 5 C 21 5.8402634 20.340254 6.5 19.5 6.5 C 18.659746 6.5 18 5.8402634 18 5 C 18 4.1597366 18.659746 3.5 19.5 3.5 z M 8.5 10.75 C 7.8216244 10.75 7.25 11.321567 7.25 12 C 7.25 12.678433 7.8216244 13.25 8.5 13.25 C 9.1783756 13.25 9.75 12.678433 9.75 12 C 9.75 11.321567 9.1783756 10.75 8.5 10.75 z M 12.5 10.75 C 11.82142 10.75 11.25 11.321229 11.25 12 C 11.25 12.678771 11.82142 13.25 12.5 13.25 C 13.178288 13.25 13.75 12.678288 13.75 12 C 13.75 11.321712 13.178288 10.75 12.5 10.75 z M 16.5 10.75 C 15.821712 10.75 15.25 11.321712 15.25 12 C 15.25 12.678288 15.821712 13.25 16.5 13.25 C 17.178288 13.25 17.75 12.678288 17.75 12 C 17.75 11.321712 17.178288 10.75 16.5 10.75 z " fill="currentColor"/>
</svg>
