<svg xmlns="http://www.w3.org/2000/svg" width="1em" height="1em" viewBox="0 0 24 24" fill="currentColor">
  <path d="M 16.011719 0.99804688 A 1 1 0 0 0 15.080078 1.6054688 L 14.3125 3.3984375 C 13.583086 3.1389786 12.802295 3 12 3 C 9.1782556 3 6.6339084 4.7218755 5.5859375 7.3417969 L 5.3242188 8 L 5 8 A 1 1 0 0 0 4 9 A 1 1 0 0 0 5 10 L 5.1445312 10 L 6.4902344 18.568359 C 6.6147287 19.361155 6.7066541 19.976553 6.8691406 20.535156 C 7.0316271 21.093759 7.3054237 21.639202 7.7695312 22.029297 C 8.3175185 22.489865 8.9392183 22.649731 9.6523438 22.789062 C 10.365469 22.928396 11.165504 22.996246 11.970703 23 C 12.775902 23.0038 13.580273 22.94436 14.304688 22.806641 C 15.029101 22.668921 15.673552 22.497425 16.230469 22.029297 C 16.694568 21.639203 16.968371 21.093756 17.130859 20.535156 C 17.293348 19.976556 17.385266 19.361156 17.509766 18.568359 L 18.855469 10 L 19 10 A 1 1 0 0 0 20 9 A 1 1 0 0 0 19 8 L 18.675781 8 L 18.414062 7.3417969 C 17.923899 6.1164846 17.10599 5.0880181 16.085938 4.3398438 L 16.919922 2.3945312 A 1 1 0 0 0 16.394531 1.0800781 A 1 1 0 0 0 16.011719 0.99804688 z M 12 5 C 12.526812 5 13.038705 5.0829866 13.521484 5.2402344 L 12.339844 8 L 7.4785156 8 C 8.2453069 6.1823627 10.021043 5 12 5 z M 15.269531 6.2460938 C 15.801249 6.7211375 16.232755 7.315629 16.521484 8 L 14.517578 8 L 15.269531 6.2460938 z M 7.1699219 10 L 16.830078 10 L 15.533203 18.257812 C 15.408703 19.050617 15.313424 19.624239 15.210938 19.976562 C 15.108451 20.328888 15.04116 20.415841 14.943359 20.498047 C 14.900329 20.534217 14.487527 20.736116 13.931641 20.841797 C 13.375755 20.947477 12.676811 21.003246 11.980469 21 C 11.284127 20.996754 10.585707 20.93374 10.035156 20.826172 C 9.4846053 20.718604 9.0753584 20.513779 9.0566406 20.498047 C 8.9588382 20.415841 8.891546 20.328885 8.7890625 19.976562 C 8.686579 19.62424 8.5912925 19.050617 8.4667969 18.257812 L 7.1699219 10 z M 13 11.75 C 12.321712 11.75 11.75 12.321712 11.75 13 C 11.75 13.678288 12.321712 14.25 13 14.25 C 13.678288 14.25 14.25 13.678288 14.25 13 C 14.25 12.321712 13.678288 11.75 13 11.75 z M 10 14.25 C 9.3216244 14.25 8.75 14.821567 8.75 15.5 C 8.75 16.178433 9.3216244 16.75 10 16.75 C 10.678288 16.75 11.25 16.178288 11.25 15.5 C 11.25 14.821712 10.678288 14.25 10 14.25 z M 13.5 16.75 C 12.821712 16.75 12.25 17.321712 12.25 18 C 12.25 18.678288 12.821712 19.25 13.5 19.25 C 14.178288 19.25 14.75 18.678288 14.75 18 C 14.75 17.321712 14.178288 16.75 13.5 16.75 z " fill="currentColor"/>
</svg>
