<svg xmlns="http://www.w3.org/2000/svg" width="1em" height="1em" viewBox="0 0 24 24" fill="currentColor">
  <path d="M 12 1.5 C 6.212851 1.5 1.5 6.212851 1.5 12 C 1.5 13.156284 1.6882683 14.273342 2.0351562 15.316406 C 2.4590081 16.590942 2.1171243 18.406765 1.7734375 19.216797 C 1.5291695 19.792585 1.60146 20.515412 2.1035156 21.017578 C 2.4322967 21.346168 2.9164543 21.530823 3.4160156 21.455078 C 4.9580091 21.221561 5.5499242 20.454942 7.0253906 21.25 C 8.5061073 22.047845 10.204179 22.5 12 22.5 C 17.787141 22.5 22.5 17.787141 22.5 12 C 22.5 6.2128497 17.78714 1.5 12 1.5 z M 12 3.5 C 16.70626 3.5 20.5 7.2937303 20.5 12 C 20.5 16.706259 16.706259 20.5 12 20.5 C 10.539621 20.5 9.1726927 20.133837 7.9746094 19.488281 C 6.1308517 18.494768 4.6936616 19.004106 3.7929688 19.296875 C 4.2046317 18.046965 4.4989332 16.38946 3.9316406 14.683594 C 3.6513085 13.840658 3.5 12.940316 3.5 12 C 3.5 7.293729 7.293729 3.5 12 3.5 z M 12 7 C 10.354975 7 9 8.3550085 9 10 C 9 10.667085 9.3421664 11.216116 9.7167969 11.716797 C 8.4180086 12.508693 7.5 13.875072 7.5 15.498047 A 1 1 0 0 0 8.5 16.498047 A 1 1 0 0 0 9.5 15.498047 C 9.5 14.106142 10.60641 12.999091 11.998047 12.998047 L 11.998047 13 L 12 13 L 12.001953 13 L 12.001953 12.998047 C 13.39359 12.999047 14.5 14.106142 14.5 15.498047 A 1 1 0 0 0 15.5 16.498047 A 1 1 0 0 0 16.5 15.498047 C 16.5 13.875072 15.581991 12.508693 14.283203 11.716797 C 14.65774 11.216116 15 10.667085 15 10 C 15 8.3550085 13.645025 7 12 7 z M 12 9 C 12.564175 9 13 9.4358515 13 10 C 13 10.562593 12.56577 10.995584 12.003906 10.998047 L 12 10.998047 L 11.996094 10.998047 C 11.434218 10.995584 11 10.562593 11 10 C 11 9.4358515 11.435825 9 12 9 z " fill="currentColor"/>
</svg>
