<svg xmlns="http://www.w3.org/2000/svg" width="1em" height="1em" viewBox="0 0 24 24" fill="currentColor">
  <path d="M 12 1.5 C 6.212851 1.5 1.5 6.212851 1.5 12 C 1.5 13.156284 1.6882683 14.273342 2.0351562 15.316406 C 2.4590081 16.590942 2.1171243 18.406765 1.7734375 19.216797 C 1.5291695 19.792585 1.60146 20.515412 2.1035156 21.017578 C 2.4322967 21.346168 2.9164543 21.530823 3.4160156 21.455078 C 4.9580091 21.221561 5.5499242 20.454942 7.0253906 21.25 C 8.5061073 22.047845 10.204179 22.5 12 22.5 C 17.787141 22.5 22.5 17.787141 22.5 12 C 22.5 6.2128497 17.78714 1.5 12 1.5 z M 12 3.5 C 16.70626 3.5 20.5 7.2937303 20.5 12 C 20.5 16.706259 16.706259 20.5 12 20.5 C 10.539621 20.5 9.1726927 20.133837 7.9746094 19.488281 C 6.1308517 18.494768 4.6936616 19.004106 3.7929688 19.296875 C 4.2046317 18.046965 4.4989332 16.38946 3.9316406 14.683594 C 3.6513085 13.840658 3.5 12.940316 3.5 12 C 3.5 7.293729 7.293729 3.5 12 3.5 z M 15.474609 8.6640625 A 1 1 0 0 0 15.216797 8.7050781 C 13.437971 9.2300885 12.111706 10.63645 11.154297 11.859375 C 10.649599 12.504039 10.607784 12.655793 10.341797 13.09375 C 10.094532 12.867083 9.8373648 12.45761 9.6113281 12.332031 C 9.34136 12.182046 9.097176 12.096706 8.9042969 12.050781 C 8.7114178 12.004857 8.5 11.998047 8.5 11.998047 A 1 1 0 0 0 7.5 12.998047 A 1 1 0 0 0 8.4394531 13.996094 C 8.4659944 14.002528 8.5348544 14.022403 8.6386719 14.080078 C 8.8487356 14.196783 9.2182374 14.470486 9.6425781 15.177734 A 1.0001 1.0001 0 0 0 11.386719 15.126953 C 11.386719 15.126953 11.8918 14.16251 12.728516 13.09375 C 13.565231 12.02499 14.738529 10.931377 15.783203 10.623047 A 1 1 0 0 0 16.458984 9.3808594 A 1 1 0 0 0 15.474609 8.6640625 z " fill="currentColor"/>
</svg>
