<svg xmlns="http://www.w3.org/2000/svg" width="1em" height="1em" viewBox="0 0 24 24" fill="currentColor">
  <path d="M 12 1 A 1 1 0 0 0 11 2 L 11 4 L 10.472656 4 C 9.2698765 4 8.457098 3.9535145 7.6582031 4.4472656 C 6.8593098 4.9410055 6.5379122 5.6878274 6 6.7636719 L 5.3828125 8 L 5 8 A 1 1 0 0 0 4 9 A 1 1 0 0 0 5 10 L 5.1445312 10 L 5.5625 12.664062 A 1 1 0 0 0 5.7148438 13.628906 L 6.4902344 18.568359 C 6.6147287 19.361155 6.7066541 19.976553 6.8691406 20.535156 C 7.0316271 21.093759 7.3054237 21.639202 7.7695312 22.029297 C 8.3175185 22.489865 8.9392183 22.649731 9.6523438 22.789062 C 10.365469 22.928396 11.165504 22.996246 11.970703 23 C 12.775902 23.0038 13.580273 22.94436 14.304688 22.806641 C 15.029101 22.668921 15.673552 22.497425 16.230469 22.029297 C 16.694568 21.639203 16.968371 21.093756 17.130859 20.535156 C 17.293348 19.976556 17.385266 19.361156 17.509766 18.568359 L 18.285156 13.630859 A 1 1 0 0 0 18.4375 12.660156 L 18.855469 10 L 19 10 A 1 1 0 0 0 20 9 A 1 1 0 0 0 19 8 L 18.617188 8 L 18 6.7636719 C 17.462088 5.6878075 17.140657 4.9409955 16.341797 4.4472656 C 15.542907 3.9535178 14.730144 4 13.527344 4 L 13 4 L 13 2 A 1 1 0 0 0 12 1 z M 10.472656 6 L 11 6 L 11 8 L 7.6171875 8 L 7.7890625 7.6582031 C 8.3269703 6.5823676 8.5432108 6.2520976 8.7109375 6.1484375 C 8.8786426 6.0447886 9.2698764 6 10.472656 6 z M 13 6 L 13.527344 6 C 14.730144 6 15.121352 6.044785 15.289062 6.1484375 C 15.456801 6.2521077 15.673051 6.5823875 16.210938 7.6582031 L 16.382812 8 L 13 8 L 13 6 z M 7.1699219 10 L 16.830078 10 L 16.417969 12.621094 C 16.087034 12.853457 15.763829 12.952333 15.404297 12.988281 C 14.911065 13.037601 14.336643 12.9347 13.732422 12.726562 C 12.52398 12.310287 11.376341 11.494167 10.220703 11.148438 C 9.2589874 10.860717 8.308249 11.015931 7.515625 11.273438 C 7.4688571 11.288631 7.4225931 11.304263 7.3769531 11.320312 L 7.1699219 10 z M 9.3320312 13.011719 C 9.4498355 13.01966 9.5563358 13.037483 9.6464844 13.064453 C 10.143766 13.213224 11.540468 14.086162 13.082031 14.617188 C 13.852813 14.882699 14.703934 15.066507 15.603516 14.976562 C 15.755016 14.961414 15.908061 14.937293 16.060547 14.904297 L 15.533203 18.257812 C 15.408703 19.050617 15.313424 19.624239 15.210938 19.976562 C 15.108451 20.328888 15.04116 20.415841 14.943359 20.498047 C 14.900329 20.534217 14.487527 20.736116 13.931641 20.841797 C 13.375755 20.947477 12.676811 21.003246 11.980469 21 C 11.284127 20.996754 10.585707 20.93374 10.035156 20.826172 C 9.4846053 20.718604 9.0753584 20.513779 9.0566406 20.498047 C 8.9588382 20.415841 8.891546 20.328885 8.7890625 19.976562 C 8.686579 19.62424 8.5912925 19.050617 8.4667969 18.257812 L 7.6953125 13.349609 C 7.8225443 13.288951 7.9727966 13.227767 8.1328125 13.175781 C 8.5264639 13.047893 8.9786185 12.987894 9.3320312 13.011719 z M 10.5 14.75 C 9.8217117 14.75 9.25 15.321712 9.25 16 C 9.25 16.678288 9.8217117 17.25 10.5 17.25 C 11.178288 17.25 11.75 16.678288 11.75 16 C 11.75 15.321712 11.178288 14.75 10.5 14.75 z M 13 17.25 C 12.321712 17.25 11.75 17.821712 11.75 18.5 C 11.75 19.178288 12.321712 19.75 13 19.75 C 13.678288 19.75 14.25 19.178288 14.25 18.5 C 14.25 17.821712 13.678288 17.25 13 17.25 z " fill="currentColor"/>
</svg>
