<svg xmlns="http://www.w3.org/2000/svg" width="1em" height="1em" viewBox="0 0 24 24" fill="currentColor">
  <path d="M 12.003906 1.5 C 11.440933 1.5 10.887808 1.545182 10.347656 1.6308594 A 1 1 0 0 0 9.515625 2.7734375 A 1 1 0 0 0 10.660156 3.6054688 C 11.097205 3.5361456 11.546079 3.5 12.003906 3.5 C 12.461733 3.5 12.910608 3.536146 13.347656 3.6054688 A 1 1 0 0 0 14.492188 2.7734375 A 1 1 0 0 0 13.660156 1.6308594 C 13.120005 1.5451825 12.566879 1.5 12.003906 1.5 z M 17.548828 3.3046875 A 1 1 0 0 0 16.765625 3.7167969 A 1 1 0 0 0 16.988281 5.1132812 C 17.717076 5.6417785 18.359894 6.2832793 18.888672 7.0117188 A 1 1 0 0 0 20.285156 7.234375 A 1 1 0 0 0 20.505859 5.8378906 C 19.853038 4.9385701 19.061714 4.1465035 18.162109 3.4941406 A 1 1 0 0 0 17.548828 3.3046875 z M 6.4550781 3.3066406 A 1 1 0 0 0 5.8417969 3.4980469 C 4.9425205 4.1508587 4.1504276 4.9421782 3.4980469 5.8417969 A 1 1 0 0 0 3.7207031 7.2382812 A 1 1 0 0 0 5.1171875 7.015625 C 5.6456668 6.2868637 6.2871414 5.6460157 7.015625 5.1171875 A 1 1 0 0 0 7.2382812 3.71875 A 1 1 0 0 0 6.4550781 3.3066406 z M 2.6484375 9.5 A 1 1 0 0 0 1.6347656 10.34375 C 1.5490887 10.883901 1.5039063 11.437027 1.5039062 12 C 1.5039062 12.562973 1.5490882 13.116099 1.6347656 13.65625 A 1 1 0 0 0 2.7792969 14.488281 A 1 1 0 0 0 3.609375 13.34375 C 3.5400519 12.906701 3.5039063 12.457827 3.5039062 12 C 3.5039062 11.542173 3.5400523 11.093299 3.609375 10.65625 A 1 1 0 0 0 2.7792969 9.5117188 A 1 1 0 0 0 2.6484375 9.5 z M 21.361328 9.5 A 1 1 0 0 0 21.230469 9.5117188 A 1 1 0 0 0 20.398438 10.65625 C 20.467748 11.093233 20.503906 11.542108 20.503906 12 C 20.503906 12.457892 20.467747 12.906767 20.398438 13.34375 A 1 1 0 0 0 21.230469 14.488281 A 1 1 0 0 0 22.373047 13.65625 C 22.458737 13.116033 22.503906 12.562908 22.503906 12 C 22.503906 11.437092 22.458736 10.883967 22.373047 10.34375 A 1 1 0 0 0 21.361328 9.5 z M 3.28125 16 A 1 1 0 0 0 2.2480469 16.966797 C 2.2180339 17.849961 1.9858332 18.725481 1.7773438 19.216797 C 1.5330758 19.792585 1.6053874 20.515406 2.1074219 21.017578 C 2.4361943 21.346132 2.9203605 21.530823 3.4199219 21.455078 C 4.9619154 21.221561 5.5538304 20.454942 7.0292969 21.25 A 1 1 0 0 0 8.3847656 20.84375 A 1 1 0 0 0 7.9785156 19.488281 C 6.1137391 18.483442 4.6580227 19.01478 3.7636719 19.304688 C 3.9830302 18.630409 4.2157173 17.927056 4.2460938 17.033203 A 1 1 0 0 0 3.28125 16 z M 19.671875 16.576172 A 1 1 0 0 0 19.541016 16.587891 A 1 1 0 0 0 18.888672 16.988281 C 18.359881 17.716756 17.717112 18.358133 16.988281 18.886719 A 1 1 0 0 0 16.765625 20.283203 A 1 1 0 0 0 18.162109 20.505859 C 19.061678 19.853445 19.853051 19.061434 20.505859 18.162109 A 1 1 0 0 0 20.285156 16.765625 A 1 1 0 0 0 19.671875 16.576172 z M 10.529297 20.382812 A 1 1 0 0 0 9.515625 21.224609 A 1 1 0 0 0 10.347656 22.369141 C 10.887742 22.454811 11.440868 22.5 12.003906 22.5 C 12.566945 22.5 13.120071 22.45481 13.660156 22.369141 A 1 1 0 0 0 14.492188 21.224609 A 1 1 0 0 0 13.347656 20.394531 C 12.910542 20.463865 12.461668 20.5 12.003906 20.5 C 11.546145 20.5 11.097271 20.46386 10.660156 20.394531 A 1 1 0 0 0 10.529297 20.382812 z " fill="currentColor"/>
</svg>
