<svg xmlns="http://www.w3.org/2000/svg" width="1em" height="1em" viewBox="0 0 24 24" fill="currentColor">
  <path d="M 12 1.5 C 6.212851 1.5 1.5 6.212851 1.5 12 C 1.5 13.156284 1.6882683 14.273342 2.0351562 15.316406 C 2.4590081 16.590942 2.1171243 18.406765 1.7734375 19.216797 C 1.5291695 19.792585 1.60146 20.515412 2.1035156 21.017578 C 2.4322967 21.346168 2.9164543 21.530823 3.4160156 21.455078 C 4.9580091 21.221561 5.5499242 20.454942 7.0253906 21.25 C 8.5061073 22.047845 10.204179 22.5 12 22.5 C 17.787141 22.5 22.5 17.787141 22.5 12 C 22.5 6.2128497 17.78714 1.5 12 1.5 z M 12 3.5 C 16.70626 3.5 20.5 7.2937303 20.5 12 C 20.5 16.706259 16.706259 20.5 12 20.5 C 10.539621 20.5 9.1726927 20.133837 7.9746094 19.488281 C 6.1308517 18.494768 4.6936616 19.004106 3.7929688 19.296875 C 4.2046317 18.046965 4.4989332 16.38946 3.9316406 14.683594 C 3.6513085 13.840658 3.5 12.940316 3.5 12 C 3.5 7.293729 7.293729 3.5 12 3.5 z M 12 7 C 11.576387 7 11.079822 7.3608025 10.984375 7.828125 C 10.658946 9.4204559 9.4204559 10.658946 7.828125 10.984375 C 7.3608025 11.079822 7 11.576387 7 12 C 7 12.423613 7.3608025 12.920178 7.828125 13.015625 C 9.4204559 13.341054 10.658943 14.579499 10.984375 16.171875 C 11.080229 16.640084 11.577349 17 12 17 C 12.422651 17 12.919771 16.640084 13.015625 16.171875 C 13.341057 14.579499 14.579499 13.341057 16.171875 13.015625 C 16.640084 12.919771 17 12.422651 17 12 C 17 11.577349 16.640084 11.080229 16.171875 10.984375 C 14.579499 10.658943 13.341054 9.4204559 13.015625 7.828125 C 12.920178 7.3608025 12.423613 7 12 7 z M 12 10.349609 C 12.439948 11.005834 12.99416 11.560054 13.650391 12 C 12.994159 12.439949 12.439949 12.994159 12 13.650391 C 11.560054 12.99416 11.005834 12.439948 10.349609 12 C 11.005833 11.560054 11.560054 11.005833 12 10.349609 z " fill="currentColor"/>
</svg>
