<svg xmlns="http://www.w3.org/2000/svg" width="1em" height="1em" viewBox="0 0 24 24" fill="currentColor">
  <path d="M 12 1 C 7.0467622 1 3 4.9985218 3 9.9179688 C 3 11.597275 3.471722 13.176881 4.2890625 14.519531 A 1 1 0 0 0 5.6621094 14.853516 A 1 1 0 0 0 5.9960938 13.480469 C 5.3624143 12.439519 5 11.224543 5 9.9179688 C 5 6.0904755 8.1166778 3 12 3 C 15.883345 3 19 6.0904725 19 9.9179688 C 19 11.224565 18.637641 12.439558 18.003906 13.480469 A 1 1 0 0 0 18.337891 14.853516 A 1 1 0 0 0 19.710938 14.519531 C 20.528404 13.176842 21 11.597252 21 9.9179688 C 21 4.9985249 16.953255 1 12 1 z M 12.498047 5.5019531 A 1 1 0 0 0 11.808594 5.8320312 L 10.287109 7.5273438 C 9.5895877 8.3040919 10.050985 9.6531576 11.078125 9.8398438 L 11.357422 9.890625 L 10.386719 10.753906 A 1 1 0 0 0 10.304688 12.166016 A 1 1 0 0 0 11.716797 12.246094 L 13.605469 10.564453 C 14.427203 9.8322877 14.006756 8.3394801 12.923828 8.1425781 L 12.492188 8.0644531 L 13.296875 7.1679688 A 1 1 0 0 0 13.220703 5.7558594 A 1 1 0 0 0 12.498047 5.5019531 z M 7.7597656 14.996094 C 7.6200731 15.004171 7.467845 15.032308 7.2695312 15.109375 C 6.6817566 15.337893 6.2819466 15.895484 6.2519531 16.523438 C 6.2317161 16.947087 6.3417201 17.137452 6.4335938 17.414062 C 6.6033697 17.925221 6.6982068 18.250942 6.9238281 18.607422 C 7.2180521 19.0725 7.6320641 19.443781 8.1171875 19.685547 L 8.1484375 19.841797 C 8.2898502 20.54891 8.3568866 20.997303 8.6308594 21.480469 C 8.9982061 22.128128 9.5936519 22.616449 10.300781 22.849609 C 10.828387 23.023633 11.2789 23 12 23 C 12.7211 23 13.171613 23.02363 13.699219 22.849609 C 14.406332 22.616454 15.00182 22.128267 15.369141 21.480469 C 15.643285 20.997214 15.710161 20.548906 15.851562 19.841797 L 15.882812 19.685547 C 16.367941 19.44378 16.781961 19.072497 17.076172 18.607422 C 17.30165 18.251033 17.396619 17.925225 17.566406 17.414062 C 17.658336 17.13736 17.76807 16.946562 17.748047 16.523438 C 17.718107 15.89543 17.318288 15.337838 16.730469 15.109375 C 16.333892 14.955231 16.118725 15 15.828125 15 L 8.171875 15 C 8.026615 15 7.8994581 14.988017 7.7597656 14.996094 z M 8.4121094 17 L 15.587891 17 C 15.502221 17.242716 15.412609 17.496188 15.386719 17.537109 C 15.249315 17.754311 15.036024 17.908987 14.789062 17.970703 C 14.724116 17.986919 14.525181 18 13.988281 18 L 10.011719 18 C 9.4747685 18 9.2758234 17.986907 9.2109375 17.970703 C 8.9639573 17.908984 8.7506867 17.754305 8.6132812 17.537109 C 8.5874223 17.496253 8.4977702 17.24269 8.4121094 17 z M 10.226562 20 L 13.773438 20 C 13.703472 20.305559 13.660043 20.442696 13.630859 20.494141 C 13.50838 20.710142 13.310305 20.871374 13.074219 20.949219 C 12.991825 20.976395 12.7211 21 12 21 C 11.2789 21 11.008175 20.976399 10.925781 20.949219 C 10.689711 20.871379 10.491734 20.710281 10.369141 20.494141 C 10.339934 20.442639 10.296518 20.305527 10.226562 20 z " fill="currentColor"/>
</svg>
