<svg xmlns="http://www.w3.org/2000/svg" width="1em" height="1em" viewBox="0 0 24 24" fill="currentColor">
  <path d="M 8.5 2 C 6.026562 2 4 4.026562 4 6.5 L 4 13.035156 C 3.9844777 13.037375 3.9688629 13.040475 3.953125 13.042969 C 2.4593693 13.279516 1.2795553 14.459431 1.0429688 15.953125 C 0.99291664 16.269081 1 16.5355 1 17 L 1 17.125 C 1 17.4735 0.99009512 17.692984 1.0488281 17.988281 C 1.1710898 18.602998 1.5177075 19.13551 2 19.498047 L 2 21 A 1 1 0 0 0 3 22 A 1 1 0 0 0 4 21 L 4 20 L 6 20 L 6 21 A 1 1 0 0 0 7 22 A 1 1 0 0 0 8 21 L 8 19.498047 C 8.4822925 19.13551 8.8289102 18.602998 8.9511719 17.988281 C 9.0099053 17.692986 9 17.4735 9 17.125 L 9 17 C 9 16.5355 9.0070833 16.269081 8.9570312 15.953125 C 8.7204447 14.459431 7.5406307 13.279516 6.046875 13.042969 C 6.0311371 13.040475 6.0155223 13.037375 6 13.035156 L 6 6.5 C 6 5.107438 7.107438 4 8.5 4 C 9.892562 4 11 5.107438 11 6.5 L 11 17.5 C 11 19.973438 13.026562 22 15.5 22 C 17.973438 22 20 19.973438 20 17.5 L 20 10.964844 C 20.015522 10.962626 20.031137 10.959525 20.046875 10.957031 C 21.540569 10.720445 22.720484 9.5406307 22.957031 8.046875 C 23.007112 7.7308809 23 7.4645 23 7 L 23 6.875 C 23 6.52651 23.009855 6.3069668 22.951172 6.0117188 C 22.828869 5.3970749 22.482299 4.8645251 22 4.5019531 L 22 3 A 1 1 0 0 0 21 2 A 1 1 0 0 0 20 3 L 20 4 L 18 4 L 18 3 A 1 1 0 0 0 17 2 A 1 1 0 0 0 16 3 L 16 4.5019531 C 15.517701 4.8645251 15.171131 5.3970749 15.048828 6.0117188 C 14.990145 6.3069667 15 6.52651 15 6.875 L 15 7 C 15 7.4645 14.992899 7.7308799 15.042969 8.046875 C 15.279516 9.5406307 16.459431 10.720445 17.953125 10.957031 C 17.968862 10.959524 17.984478 10.962626 18 10.964844 L 18 17.5 C 18 18.892562 16.892562 20 15.5 20 C 14.107438 20 13 18.892562 13 17.5 L 13 6.5 C 13 4.026562 10.973438 2 8.5 2 z M 17.875 6 L 20.125 6 C 20.4735 6 20.603154 6.0108546 20.597656 6.0097656 C 20.798896 6.0497906 20.950189 6.201092 20.990234 6.4023438 C 20.989152 6.3968915 21 6.52651 21 6.875 L 21 7 C 21 7.4645 20.993902 7.6616901 20.982422 7.734375 C 20.880172 8.3800793 20.380081 8.8801484 19.734375 8.9824219 C 19.661731 8.9939296 19.464496 9 19 9 C 18.5355 9 18.338269 8.9939297 18.265625 8.9824219 C 17.619919 8.8801484 17.11983 8.3800793 17.017578 7.734375 C 17.006059 7.6616901 17 7.4645 17 7 L 17 6.875 C 17 6.52651 17.010816 6.3968958 17.009766 6.4023438 C 17.049777 6.201092 17.201104 6.0497904 17.402344 6.0097656 C 17.396846 6.010859 17.5265 6 17.875 6 z M 5 15 C 5.4645 15 5.6616901 15.006098 5.734375 15.017578 C 6.3800793 15.11983 6.8801484 15.619919 6.9824219 16.265625 C 6.9939297 16.338267 7 16.5355 7 17 L 7 17.125 C 7 17.4735 6.9891454 17.603154 6.9902344 17.597656 C 6.9502094 17.798896 6.798908 17.950189 6.5976562 17.990234 C 6.6031086 17.989152 6.47349 18 6.125 18 L 3.875 18 C 3.52651 18 3.3968958 17.989152 3.4023438 17.990234 C 3.2010919 17.950189 3.0497904 17.798896 3.0097656 17.597656 C 3.010859 17.603154 3 17.4735 3 17.125 L 3 17 C 3 16.5355 3.0060701 16.338269 3.0175781 16.265625 C 3.1198517 15.619919 3.6199207 15.11983 4.265625 15.017578 C 4.3383099 15.006059 4.5355 15 5 15 z " fill="currentColor"/>
</svg>
