<svg xmlns="http://www.w3.org/2000/svg" width="1em" height="1em" viewBox="0 0 24 24" fill="currentColor">
  <path d="M 12 1.5 C 9.76083 1.5 8.0639348 1.4951478 6.6679688 1.6640625 C 5.2720027 1.8329772 4.1165643 2.2052515 3.2226562 3.0097656 C 2.328753 3.8142811 1.8781384 4.9217062 1.6855469 6.2109375 C 1.4929553 7.5001688 1.5 9.0355264 1.5 11.050781 L 1.5 12.949219 C 1.5 14.964469 1.49296 16.499824 1.6855469 17.789062 C 1.8781381 19.078302 2.3287439 20.185724 3.2226562 20.990234 C 4.1165654 21.794737 5.2720043 22.167026 6.6679688 22.335938 C 8.0639332 22.504849 9.76083 22.5 12 22.5 C 14.23915 22.5 15.93606 22.5048 17.332031 22.335938 C 18.728003 22.167026 19.883412 21.796682 20.777344 20.992188 A 1.0001 1.0001 0 0 0 20.777344 20.990234 C 21.671234 20.18572 22.121868 19.078299 22.314453 17.789062 C 22.507038 16.499874 22.5 14.964469 22.5 12.949219 L 22.5 11.050781 C 22.5 9.0355266 22.507 7.5001654 22.314453 6.2109375 C 22.121868 4.9217096 21.671225 3.8142844 20.777344 3.0097656 C 19.883413 2.2052597 18.728005 1.8329769 17.332031 1.6640625 C 15.936058 1.4951481 14.23915 1.5 12 1.5 z M 12 3.5 C 14.23915 3.5 15.90077 3.50432 17.091797 3.6484375 C 18.282824 3.7925531 18.942084 4.0484797 19.439453 4.4960938 C 19.936772 4.943695 20.182676 5.4687579 20.337891 6.5078125 C 20.493105 7.5468671 20.5 9.0355264 20.5 11.050781 L 20.5 12.949219 C 20.5 14.964469 20.4931 16.453124 20.337891 17.492188 C 20.182676 18.531253 19.936763 19.05632 19.439453 19.503906 C 18.942085 19.951512 18.282825 20.207449 17.091797 20.351562 C 15.900769 20.495676 14.23915 20.5 12 20.5 C 9.76083 20.5 8.0992211 20.495676 6.9082031 20.351562 C 5.7171851 20.207449 5.0578876 19.951504 4.5605469 19.503906 C 4.0632192 19.056317 3.8173281 18.531249 3.6621094 17.492188 C 3.5068906 16.453127 3.5 14.964469 3.5 12.949219 L 3.5 11.050781 C 3.5 9.0355264 3.5068909 7.5468637 3.6621094 6.5078125 C 3.8173278 5.4687613 4.0632101 4.9436983 4.5605469 4.4960938 C 5.0578887 4.0484879 5.7171867 3.7925528 6.9082031 3.6484375 C 8.0992196 3.5043222 9.76083 3.5 12 3.5 z M 16 5 A 1 1 0 0 0 15 6 L 15 7 L 14 7 A 1 1 0 0 0 13 8 A 1 1 0 0 0 14 9 L 15 9 L 15 10 A 1 1 0 0 0 16 11 A 1 1 0 0 0 17 10 L 17 9 L 18 9 A 1 1 0 0 0 19 8 A 1 1 0 0 0 18 7 L 17 7 L 17 6 A 1 1 0 0 0 16 5 z M 6 7 A 1 1 0 0 0 5 8 A 1 1 0 0 0 6 9 L 10 9 A 1 1 0 0 0 11 8 A 1 1 0 0 0 10 7 L 6 7 z M 6.5 13 A 1 1 0 0 0 5.7929688 13.292969 A 1 1 0 0 0 5.7929688 14.707031 L 6.8359375 15.75 L 5.7929688 16.792969 A 1 1 0 0 0 5.7929688 18.207031 A 1 1 0 0 0 7.2070312 18.207031 L 8.25 17.164062 L 9.2929688 18.207031 A 1 1 0 0 0 10.707031 18.207031 A 1 1 0 0 0 10.707031 16.792969 L 9.6640625 15.75 L 10.707031 14.707031 A 1 1 0 0 0 10.707031 13.292969 A 1 1 0 0 0 9.2929688 13.292969 L 8.25 14.335938 L 7.2070312 13.292969 A 1 1 0 0 0 6.5 13 z M 14 13.5 A 1 1 0 0 0 13 14.5 A 1 1 0 0 0 14 15.5 L 18 15.5 A 1 1 0 0 0 19 14.5 A 1 1 0 0 0 18 13.5 L 14 13.5 z M 14 16.5 A 1 1 0 0 0 13 17.5 A 1 1 0 0 0 14 18.5 L 18 18.5 A 1 1 0 0 0 19 17.5 A 1 1 0 0 0 18 16.5 L 14 16.5 z " fill="currentColor"/>
</svg>
