<svg xmlns="http://www.w3.org/2000/svg" width="1em" height="1em" viewBox="0 0 24 24" fill="currentColor">
  <path d="M 8 1 A 1 1 0 0 0 7 2 L 7 3.0976562 C 6.8212001 3.1142598 6.6475772 3.1335203 6.4785156 3.15625 C 5.2759756 3.317927 4.240311 3.689383 3.4648438 4.4648438 C 2.6893829 5.2403112 2.317927 6.2759756 2.15625 7.4785156 C 2.0619834 8.1796628 2.0246147 8.959363 2.0097656 9.8613281 A 1 1 0 0 0 2 10 A 1 1 0 0 0 2.0058594 10.111328 C 1.9989864 10.688308 2 11.313941 2 12 L 2 14 C 2 15.8856 1.99457 17.318937 2.15625 18.521484 C 2.3179268 19.724031 2.6893545 20.759713 3.4648438 21.535156 C 4.2403087 22.310634 5.2759729 22.682068 6.4785156 22.84375 C 7.6810584 23.005432 9.11438 23 11 23 L 12 23 A 1 1 0 0 0 13 22 A 1 1 0 0 0 12 21 L 11 21 C 9.11438 21 7.7201079 20.9945 6.7441406 20.863281 C 5.7681734 20.732063 5.2750213 20.517216 4.8789062 20.121094 C 4.4828255 19.725037 4.2679344 19.231837 4.1367188 18.255859 C 4.0055032 17.279881 4 15.8856 4 14 L 4 12 C 4 11.649883 4.0008042 11.316705 4.0019531 11 L 20 11 L 20 11.001953 A 1 1 0 0 0 21.001953 12 A 1 1 0 0 0 22 10.998047 C 21.999095 10.688338 21.997454 10.391902 21.994141 10.107422 A 1 1 0 0 0 22 10 A 1 1 0 0 0 21.990234 9.8652344 C 21.973615 8.8173546 21.928376 7.9348928 21.794922 7.1484375 C 21.615949 6.0937441 21.238814 5.1685012 20.535156 4.4648438 C 19.759713 3.6893545 18.724031 3.3179268 17.521484 3.15625 C 17.352423 3.1335205 17.1788 3.1142597 17 3.0976562 L 17 2 A 1 1 0 0 0 16 1 A 1 1 0 0 0 15 2 L 15 3.0078125 C 14.392582 2.9994206 13.730203 3 13 3 L 11 3 C 10.269794 3 9.6074152 2.9994208 9 3.0078125 L 9 2 A 1 1 0 0 0 8 1 z M 11 5 L 13 5 C 13.741081 5 14.40627 5.0007682 15 5.0097656 L 15 6 A 1 1 0 0 0 16 7 A 1 1 0 0 0 17 6 L 17 5.1054688 C 17.08829 5.1148178 17.173562 5.125654 17.255859 5.1367188 C 18.231837 5.2679345 18.725037 5.4828256 19.121094 5.8789062 C 19.480536 6.2383489 19.683938 6.6692034 19.822266 7.484375 C 19.892662 7.899225 19.936443 8.4021606 19.962891 9 L 4.0371094 9 C 4.0573321 8.5218992 4.0882691 8.1045052 4.1367188 7.7441406 C 4.2679343 6.7681706 4.482797 6.2750189 4.8789062 5.8789062 C 5.2750189 5.482797 5.7681706 5.2679344 6.7441406 5.1367188 C 6.8264382 5.1256542 6.91171 5.1148177 7 5.1054688 L 7 6 A 1 1 0 0 0 8 7 A 1 1 0 0 0 9 6 L 9 5.0097656 C 9.5937272 5.000768 10.258916 5 11 5 z M 14 12 A 1 1 0 0 0 13 13 L 13 14 C 13 14.4714 12.993102 14.844869 13.044922 15.230469 C 13.083152 15.514819 13.262445 15.817197 13.443359 16.103516 A 1 1 0 0 0 13.460938 16.140625 C 13.519998 16.229215 13.508288 16.336409 13.585938 16.414062 C 13.652358 16.480483 13.725152 16.543138 13.800781 16.597656 C 13.836911 16.623636 13.872311 16.615812 13.908203 16.638672 A 1 1 0 0 0 13.955078 16.689453 A 1 1 0 0 0 14.060547 16.695312 C 14.66557 17.013663 15.256076 17 16 17 L 17 17 A 1 1 0 0 0 18 16 A 1 1 0 0 0 17 15 L 16.353516 15 C 16.825673 14.687962 17.386722 14.5 18 14.5 C 19.118404 14.5 20.081099 15.103628 20.599609 16 A 1 1 0 0 0 21.964844 16.365234 A 1 1 0 0 0 22.330078 15 C 21.465388 13.505172 19.842796 12.5 18 12.5 C 16.844369 12.5 15.849847 12.969617 15 13.632812 L 15 13 A 1 1 0 0 0 14 12 z M 19 18 A 1 1 0 0 0 18 19 A 1 1 0 0 0 19 20 L 19.646484 20 C 19.174327 20.312038 18.613278 20.5 18 20.5 C 16.881596 20.5 15.918901 19.896372 15.400391 19 A 1 1 0 0 0 14.035156 18.634766 A 1 1 0 0 0 13.669922 20 C 14.534612 21.494828 16.157204 22.5 18 22.5 C 19.155631 22.5 20.150153 22.030383 21 21.367188 L 21 22 A 1 1 0 0 0 22 23 A 1 1 0 0 0 23 22 L 23 21 C 23 20.5286 23.006898 20.155131 22.955078 19.769531 C 22.903238 19.383931 22.750186 18.922061 22.414062 18.585938 C 22.347642 18.519517 22.274848 18.456862 22.199219 18.402344 C 22.152039 18.368424 22.105389 18.378249 22.058594 18.349609 A 1 1 0 0 0 22.044922 18.310547 A 1 1 0 0 0 21.998047 18.326172 C 21.372587 17.97111 20.767733 18 20 18 L 19 18 z " fill="currentColor"/>
</svg>
