<svg xmlns="http://www.w3.org/2000/svg" width="1em" height="1em" viewBox="0 0 24 24" fill="currentColor">
  <path d="M 4.9121094 2 C 3.2589251 2 1.8295295 3.4131886 2.0175781 5.1171875 C 2.9947664 13.971443 10.028562 21.005181 18.882812 21.982422 C 20.586823 22.170419 22 20.741071 22 19.087891 L 22 17.580078 C 22 16.482008 21.159909 15.664648 20.179688 15.486328 C 19.644025 15.388918 19.039113 15.218566 18.53125 15.056641 C 17.431187 14.705883 16.184649 14.948163 15.333984 15.798828 L 13.070312 18.0625 C 10.026495 16.454657 7.5453337 13.973503 5.9375 10.929688 L 8.2597656 8.6074219 C 9.0651054 7.802097 9.3370875 6.6213371 9.0175781 5.5507812 C 8.8511811 4.9932428 8.6645937 4.3226621 8.546875 3.78125 C 8.334605 2.8049949 7.5157953 2 6.4199219 2 L 4.9121094 2 z M 17.986328 3 A 1 1 0 0 0 17.283203 3.3027344 A 1 1 0 0 0 17.302734 4.7167969 C 17.7058 5.1085963 18.306679 5.5397987 18.873047 6 L 13 6 A 1 1 0 0 0 12 7 A 1 1 0 0 0 13 8 L 18.873047 8 C 18.306679 8.4602013 17.705799 8.891404 17.302734 9.2832031 A 1 1 0 0 0 17.283203 10.697266 A 1 1 0 0 0 18.697266 10.716797 C 18.847466 10.570794 19.656924 9.9642232 20.373047 9.3574219 C 20.731108 9.0540212 21.080894 8.7362756 21.376953 8.3886719 C 21.673011 8.0410691 22 7.6847562 22 7 C 22 6.3152438 21.673012 5.9589319 21.376953 5.6113281 C 21.080894 5.2637244 20.731108 4.9459788 20.373047 4.6425781 C 19.656924 4.0357768 18.847466 3.4292058 18.697266 3.2832031 A 1 1 0 0 0 17.986328 3 z M 4.9121094 4 L 6.4199219 4 L 6.421875 4 L 6.4238281 4.0019531 C 6.4507517 4.012903 6.5695688 4.1028483 6.5917969 4.2050781 C 6.7292181 4.837106 6.9272795 5.5390853 7.1015625 6.1230469 C 7.2177332 6.5122911 7.1176035 6.9214642 6.8457031 7.1933594 L 5.0449219 8.9941406 C 4.5537397 7.6882425 4.1643029 6.3340868 4.0058594 4.8984375 C 3.950248 4.3945164 4.3439736 4 4.9121094 4 z M 17.597656 16.904297 C 17.705763 16.909747 17.815594 16.92838 17.923828 16.962891 C 18.482965 17.141165 19.152529 17.331335 19.822266 17.453125 C 19.927808 17.472325 19.99243 17.557405 20 17.578125 L 20 17.580078 L 20 19.087891 C 20 19.65611 19.605553 20.051697 19.101562 19.996094 C 17.665913 19.837642 16.311758 19.446266 15.005859 18.955078 L 16.748047 17.212891 C 16.963248 16.997689 17.273336 16.887946 17.597656 16.904297 z " fill="currentColor"/>
</svg>
