<svg xmlns="http://www.w3.org/2000/svg" width="1em" height="1em" viewBox="0 0 24 24" fill="currentColor">
  <path d="M 4.9121094 2 C 3.2589251 2 1.8295295 3.4131886 2.0175781 5.1171875 C 2.9947664 13.971443 10.028562 21.005181 18.882812 21.982422 C 20.586823 22.170419 22 20.741071 22 19.087891 L 22 17.580078 C 22 16.482008 21.159909 15.664648 20.179688 15.486328 C 19.644025 15.388918 19.039113 15.218566 18.53125 15.056641 C 17.431187 14.705883 16.184649 14.948163 15.333984 15.798828 L 13.070312 18.0625 C 10.026495 16.454657 7.5453337 13.973503 5.9375 10.929688 L 8.2597656 8.6074219 C 9.0651054 7.802097 9.3370875 6.6213371 9.0175781 5.5507812 C 8.8511811 4.9932428 8.6645937 4.3226621 8.546875 3.78125 C 8.334605 2.8049949 7.5157953 2 6.4199219 2 L 4.9121094 2 z M 16.013672 3 A 1 1 0 0 0 15.302734 3.2832031 C 15.152534 3.4292058 14.343076 4.0357768 13.626953 4.6425781 C 13.268892 4.9459788 12.919106 5.2637244 12.623047 5.6113281 C 12.326988 5.9589319 12 6.3152438 12 7 C 12 7.6847562 12.326988 8.0410681 12.623047 8.3886719 C 12.919106 8.7362756 13.268892 9.0540212 13.626953 9.3574219 C 14.343076 9.9642232 15.152534 10.570794 15.302734 10.716797 A 1 1 0 0 0 16.716797 10.697266 A 1 1 0 0 0 16.697266 9.2832031 C 16.2942 8.891403 15.693321 8.4602013 15.126953 8 L 21 8 A 1 1 0 0 0 22 7 A 1 1 0 0 0 21 6 L 15.126953 6 C 15.693321 5.5397987 16.294201 5.108596 16.697266 4.7167969 A 1 1 0 0 0 16.716797 3.3027344 A 1 1 0 0 0 16.013672 3 z M 4.9121094 4 L 6.4199219 4 L 6.421875 4 L 6.4238281 4.0019531 C 6.4507517 4.012903 6.5695688 4.1028483 6.5917969 4.2050781 C 6.7292181 4.837106 6.9272795 5.5390853 7.1015625 6.1230469 C 7.2177332 6.5122911 7.1176035 6.9214642 6.8457031 7.1933594 L 5.0449219 8.9941406 C 4.5537397 7.6882425 4.1643029 6.3340868 4.0058594 4.8984375 C 3.950248 4.3945164 4.3439736 4 4.9121094 4 z M 17.597656 16.904297 C 17.705763 16.909747 17.815594 16.92838 17.923828 16.962891 C 18.482965 17.141165 19.152529 17.331335 19.822266 17.453125 C 19.927808 17.472325 19.99243 17.557405 20 17.578125 L 20 17.580078 L 20 19.087891 C 20 19.65611 19.605553 20.051697 19.101562 19.996094 C 17.665913 19.837642 16.311758 19.446266 15.005859 18.955078 L 16.748047 17.212891 C 16.963248 16.997689 17.273336 16.887946 17.597656 16.904297 z " fill="currentColor"/>
</svg>
