<svg xmlns="http://www.w3.org/2000/svg" width="1em" height="1em" viewBox="0 0 24 24" fill="currentColor">
  <path d="M 11.472656 2 C 10.269856 2 9.4570875 1.953521 8.6582031 2.4472656 C 7.8593098 2.9410055 7.5379117 3.6878385 7 4.7636719 L 6.375 6.0117188 C 4.9269797 6.0090289 3.892477 6.0198875 3 6.5351562 C 2.3919716 6.8862065 1.8862065 7.3919716 1.5351562 8 C 0.93945033 9.0317991 1 10.1308 1 12 L 1 15 C 1 16.4142 0.99407502 17.495558 1.1191406 18.425781 C 1.2442065 19.356004 1.5428648 20.199101 2.171875 20.828125 C 2.8008908 21.457155 3.6439898 21.75579 4.5742188 21.880859 C 5.5044479 22.005928 6.585785 22 8 22 L 16 22 C 17.4142 22 18.495556 22.0059 19.425781 21.880859 C 20.356006 21.75579 21.199103 21.457147 21.828125 20.828125 C 22.457147 20.199103 22.75579 19.356006 22.880859 18.425781 C 23.005928 17.495556 23 16.4142 23 15 L 23 12 C 23 10.1308 23.060518 9.031795 22.464844 8 C 22.113805 7.3919689 21.608089 6.8862106 21 6.5351562 C 20.107512 6.0199182 19.072999 6.0090323 17.625 6.0117188 L 17 4.7636719 C 16.462088 3.6878075 16.140657 2.9409955 15.341797 2.4472656 C 14.542907 1.9535178 13.730144 2 12.527344 2 L 11.472656 2 z M 11.472656 4 L 12.527344 4 C 13.730144 4 14.121352 4.044785 14.289062 4.1484375 C 14.456801 4.2521077 14.673049 4.5823875 15.210938 5.6582031 L 16.105469 7.4472656 A 1.0001 1.0001 0 0 0 17 8 C 18.8692 8 19.639401 8.059402 20 8.2675781 C 20.304111 8.4431439 20.55686 8.6959111 20.732422 9 C 20.940548 9.360505 21 10.1308 21 12 L 21 15 C 21 16.4142 20.993 17.454553 20.898438 18.158203 C 20.803828 18.861853 20.66374 19.164385 20.414062 19.414062 C 20.164386 19.66374 19.861853 19.803832 19.158203 19.898438 C 18.454553 19.993043 17.4142 20 16 20 L 8 20 C 6.585785 20 5.5454503 19.993043 4.8417969 19.898438 C 4.1381434 19.803832 3.8356017 19.663732 3.5859375 19.414062 C 3.3362677 19.164388 3.1961666 18.861855 3.1015625 18.158203 C 3.0069584 17.454551 3 16.4142 3 15 L 3 12 C 3 10.1308 3.0594441 9.3605009 3.2675781 9 C 3.4431479 8.6959084 3.6959084 8.4431479 4 8.2675781 C 4.3605116 8.0594379 5.13077 8 7 8 L 12 8 A 1 1 0 0 0 13 7 A 1 1 0 0 0 12 6 L 8.6171875 6 L 8.7890625 5.6582031 C 9.3269708 4.5823765 9.5432108 4.2520976 9.7109375 4.1484375 C 9.8786531 4.0447821 10.269856 4 11.472656 4 z M 19 8.75 C 18.321567 8.75 17.75 9.3216244 17.75 10 C 17.75 10.678288 18.321712 11.25 19 11.25 C 19.678288 11.25 20.25 10.678288 20.25 10 C 20.25 9.3216244 19.678433 8.75 19 8.75 z M 12 9.5 C 9.526562 9.5 7.5 11.526562 7.5 14 C 7.5 16.473438 9.526562 18.5 12 18.5 C 14.473438 18.5 16.5 16.473438 16.5 14 C 16.5 11.526562 14.473438 9.5 12 9.5 z M 12 11.5 C 13.392562 11.5 14.5 12.607438 14.5 14 C 14.5 15.392562 13.392562 16.5 12 16.5 C 10.607438 16.5 9.5 15.392562 9.5 14 C 9.5 12.607438 10.607438 11.5 12 11.5 z " fill="currentColor"/>
</svg>
