<svg xmlns="http://www.w3.org/2000/svg" width="1em" height="1em" viewBox="0 0 24 24" fill="currentColor">
  <path d="M 11.302734 2.5 C 10.588234 2.5 10.11908 2.4795949 9.5800781 2.6679688 C 9.2865476 2.7705573 9.0118463 2.9181491 8.7636719 3.1054688 C 8.3079189 3.4494449 8.0643445 3.850759 7.6679688 4.4453125 C 7.5664798 4.5975559 7.4431967 4.782851 7.3359375 4.9375 C 7.252342 5.05803 7.1496567 5.1848612 7.1386719 5.203125 L 7.1386719 5.2050781 C 6.9929268 5.3514754 6.8055012 5.4488207 6.6015625 5.484375 C 6.550387 5.4932951 6.4206675 5.5 6.0546875 5.5 C 5.0746175 5.5 4.5164355 5.4787719 3.9101562 5.6503906 C 2.5750602 6.0283264 1.5302704 7.0750453 1.1523438 8.4101562 C 0.98070591 9.0164497 1 9.5726448 1 10.552734 L 1 14.5 C 1 15.9142 0.99407502 16.995558 1.1191406 17.925781 C 1.2442065 18.856004 1.5428648 19.699101 2.171875 20.328125 C 2.8008922 20.957156 3.6439888 21.25579 4.5742188 21.380859 C 5.5044488 21.505928 6.58579 21.5 8 21.5 L 16 21.5 C 17.41425 21.5 18.495544 21.5059 19.425781 21.380859 C 20.356018 21.255791 21.199103 20.957147 21.828125 20.328125 C 22.457087 19.699092 22.755806 18.855994 22.880859 17.925781 C 23.005913 16.995568 23 15.9142 23 14.5 L 23 10.552734 C 23 9.5726448 23.02119 9.0164073 22.849609 8.4101562 C 22.471717 7.0750236 21.424905 6.0283316 20.089844 5.6503906 C 19.483537 5.4787728 18.927266 5.5 17.947266 5.5 C 17.581266 5.5 17.449724 5.49331 17.398438 5.484375 C 17.194466 5.4488115 17.007065 5.3515493 16.861328 5.2050781 L 16.861328 5.203125 C 16.850777 5.1853569 16.747876 5.0583368 16.664062 4.9375 C 16.556782 4.7828289 16.433653 4.5976752 16.332031 4.4453125 C 15.93571 3.8507202 15.691992 3.4494286 15.236328 3.1054688 C 14.988126 2.9181845 14.713284 2.7705404 14.419922 2.6679688 C 13.880925 2.479614 13.411766 2.5 12.697266 2.5 L 11.302734 2.5 z M 11.302734 4.5 L 12.697266 4.5 C 13.411766 4.5 13.657763 4.5209946 13.759766 4.5566406 C 13.857606 4.5908486 13.950406 4.6386966 14.033203 4.7011719 C 14.119343 4.7661919 14.27169 4.9601598 14.667969 5.5546875 C 14.769447 5.7068348 14.898565 5.898953 15.021484 6.0761719 C 15.144404 6.2533908 15.213717 6.3763238 15.396484 6.5683594 C 15.839672 7.0341334 16.421345 7.3446517 17.054688 7.4550781 C 17.344403 7.5055611 17.581266 7.5 17.947266 7.5 C 18.927266 7.5 19.349828 7.5209499 19.544922 7.5761719 C 20.214461 7.7657109 20.734321 8.2855307 20.923828 8.9550781 C 20.979048 9.1501868 21 9.5726448 21 10.552734 L 21 14.5 C 21 15.9142 20.993 16.954541 20.898438 17.658203 C 20.803838 18.361865 20.663701 18.664396 20.414062 18.914062 C 20.164386 19.16374 19.861866 19.303832 19.158203 19.398438 C 18.45454 19.493044 17.41425 19.5 16 19.5 L 8 19.5 C 6.58579 19.5 5.5454519 19.493 4.8417969 19.398438 C 4.1381418 19.303831 3.8356003 19.163731 3.5859375 18.914062 C 3.3362677 18.664388 3.1961666 18.361855 3.1015625 17.658203 C 3.0069584 16.954551 3 15.9142 3 14.5 L 3 10.552734 C 3 9.5726448 3.0209498 9.1501447 3.0761719 8.9550781 C 3.2657052 8.2855089 3.7854941 7.7657161 4.4550781 7.5761719 C 4.6501588 7.5209506 5.0746175 7.5 6.0546875 7.5 C 6.4206675 7.5 6.655588 7.5055801 6.9453125 7.4550781 C 7.5786848 7.3446572 8.1603126 7.0341027 8.6035156 6.5683594 C 8.7861779 6.3764009 8.8575429 6.2534104 8.9804688 6.0761719 C 9.1033944 5.8989334 9.2305215 5.706962 9.3320312 5.5546875 C 9.728414 4.9601232 9.882626 4.7661733 9.96875 4.7011719 C 10.051476 4.6387314 10.142405 4.5908319 10.240234 4.5566406 C 10.342173 4.5210145 10.588234 4.5 11.302734 4.5 z M 19 8.25 C 18.321275 8.25 17.75 8.8211415 17.75 9.5 C 17.75 10.178858 18.321275 10.75 19 10.75 C 19.678433 10.75 20.25 10.178376 20.25 9.5 C 20.25 8.8216244 19.678433 8.25 19 8.25 z M 10.634766 8.5 A 1.0001 1.0001 0 0 0 10.244141 8.5878906 C 8.6249961 9.3199735 7.5 10.955372 7.5 12.837891 C 7.5 15.400937 9.5990503 17.5 12.162109 17.5 C 14.044619 17.5 15.680116 16.375165 16.412109 14.755859 A 1.0001 1.0001 0 0 0 15.087891 13.433594 C 14.753011 13.585004 14.386392 13.667969 13.994141 13.667969 C 12.511873 13.667969 11.332031 12.488033 11.332031 11.005859 C 11.332031 10.613484 11.415041 10.246917 11.566406 9.9121094 A 1.0001 1.0001 0 0 0 10.634766 8.5 z M 9.6210938 12.431641 C 10.08376 13.836374 11.163605 14.916222 12.568359 15.378906 C 12.424797 15.402727 12.312995 15.5 12.162109 15.5 C 10.679969 15.5 9.5 14.320044 9.5 12.837891 C 9.5 12.687007 9.597273 12.5752 9.6210938 12.431641 z " fill="currentColor"/>
</svg>
