<svg xmlns="http://www.w3.org/2000/svg" width="1em" height="1em" viewBox="0 0 24 24" fill="currentColor">
  <path d="M 7 0.5 C 4.8027056 0.5 3 2.3027056 3 4.5 C 3 5.3424769 3.2641897 6.1263441 3.7148438 6.7734375 C 3.2708277 6.8908927 2.8723107 7.0578332 2.4960938 7.2929688 C 1.7790606 7.741117 1.3159572 8.4940061 1.1503906 9.2636719 C 0.98482408 10.033338 1 10.843805 1 11.875 L 1 13.125 C 1 14.1562 0.98482392 14.966662 1.1503906 15.736328 C 1.3159573 16.505994 1.779058 17.258888 2.4960938 17.707031 C 3.4378308 18.295617 4.5241623 18.45341 6.09375 18.492188 L 3.7929688 20.792969 A 1 1 0 0 0 3.7929688 22.207031 A 1 1 0 0 0 5.2070312 22.207031 L 8.5 18.914062 L 8.5 22.5 A 1 1 0 0 0 9.5 23.5 A 1 1 0 0 0 10.5 22.5 L 10.5 18.914062 L 13.792969 22.207031 A 1 1 0 0 0 15.207031 22.207031 A 1 1 0 0 0 15.207031 20.792969 L 12.90625 18.492188 C 14.475824 18.453399 15.562147 18.295585 16.503906 17.707031 A 1.0001 1.0001 0 0 0 16.505859 17.707031 C 17.041183 17.372448 17.434415 16.868927 17.667969 16.314453 C 18.242007 16.65077 18.739669 16.923807 19.210938 17.130859 C 19.948856 17.455065 20.731493 17.638059 21.488281 17.365234 C 22.245078 17.092407 22.735454 16.301458 22.875 15.583984 C 23.014545 14.866511 23 14.084559 23 13.068359 L 23 11.931641 C 23 10.915421 23.01454 10.133493 22.875 9.4160156 C 22.735455 8.6985386 22.245067 7.9076072 21.488281 7.6347656 C 21.109885 7.4983481 20.724645 7.4754868 20.341797 7.5273438 C 19.958949 7.5792008 19.579898 7.7070328 19.210938 7.8691406 C 18.739656 8.0762051 18.242023 8.3492222 17.667969 8.6855469 C 17.434416 8.1310691 17.041186 7.6275595 16.505859 7.2929688 A 1.0001 1.0001 0 0 0 16.503906 7.2929688 C 16.183312 7.0926062 15.84603 6.9428539 15.478516 6.8300781 C 15.808894 6.2964925 16 5.668651 16 5 C 16 3.078848 14.421152 1.5 12.5 1.5 C 11.676785 1.5 10.916629 1.7889801 10.316406 2.2714844 C 9.5954623 1.204868 8.3748709 0.5 7 0.5 z M 7 2.5 C 8.1164141 2.5 9 3.3835859 9 4.5 C 9 5.5758354 8.1797905 6.4350249 7.1210938 6.4960938 C 7.0441885 6.496235 6.9674524 6.497676 6.8925781 6.4980469 C 5.8271679 6.4437397 5 5.580542 5 4.5 C 5 3.3835859 5.8835859 2.5 7 2.5 z M 12.5 3.5 C 13.340272 3.5 14 4.1597282 14 5 C 14 5.8402718 13.340272 6.5 12.5 6.5 C 11.659728 6.5 11 5.8402718 11 5 C 11 4.1597282 11.659728 3.5 12.5 3.5 z M 9 8.5 L 10 8.5 C 13.2998 8.5 14.829013 8.603124 15.445312 8.9882812 C 15.753393 9.1808386 15.803817 9.2638333 15.894531 9.6855469 C 15.985245 10.10726 16 10.843805 16 11.875 L 16 13.125 C 16 14.1562 15.98525 14.89274 15.894531 15.314453 C 15.803821 15.736166 15.753391 15.819166 15.445312 16.011719 C 14.829012 16.396876 13.2998 16.5 10 16.5 L 9 16.5 C 5.70017 16.5 4.1708653 16.39683 3.5546875 16.011719 C 3.2465933 15.819162 3.1961846 15.736162 3.1054688 15.314453 C 3.0147528 14.892744 3 14.1562 3 13.125 L 3 11.875 C 3 10.843805 3.0147527 10.107256 3.1054688 9.6855469 C 3.1961846 9.2638377 3.2465906 9.180843 3.5546875 8.9882812 C 4.1708653 8.60317 5.70017 8.5 9 8.5 z M 20.658203 9.4980469 C 20.729673 9.4939211 20.775519 9.50495 20.810547 9.5175781 C 20.839737 9.5281025 20.855964 9.522476 20.863281 9.5214844 L 20.865234 9.5214844 L 20.865234 9.5234375 L 20.867188 9.5234375 L 20.867188 9.5253906 C 20.872556 9.5399282 20.873327 9.5974661 20.912109 9.796875 C 20.985114 10.172231 21 10.915421 21 11.931641 L 21 13.068359 C 21 14.084559 20.985109 14.827773 20.912109 15.203125 C 20.873328 15.402531 20.872562 15.46007 20.867188 15.474609 L 20.867188 15.476562 L 20.865234 15.476562 L 20.865234 15.478516 L 20.863281 15.478516 L 20.861328 15.478516 C 20.854011 15.477525 20.839723 15.471899 20.810547 15.482422 C 20.717137 15.516102 20.548158 15.534752 20.015625 15.300781 C 19.544624 15.093846 18.876143 14.70735 17.996094 14.181641 C 18.001726 13.853239 18 13.504136 18 13.125 L 18 11.875 C 18 11.495864 18.001729 11.146763 17.996094 10.818359 C 18.876144 10.292638 19.544626 9.9061584 20.015625 9.6992188 C 20.348456 9.5529848 20.539087 9.5049232 20.658203 9.4980469 z " fill="currentColor"/>
</svg>
