<svg xmlns="http://www.w3.org/2000/svg" width="1em" height="1em" viewBox="0 0 24 24" fill="currentColor">
  <path d="M 11.302734 2.5 C 10.588234 2.5 10.11908 2.4795949 9.5800781 2.6679688 C 9.2866078 2.7705513 9.0118668 2.9181336 8.7636719 3.1054688 C 8.3079379 3.4494475 8.064343 3.8507711 7.6679688 4.4453125 C 7.5664744 4.5975592 7.4431954 4.7828531 7.3359375 4.9375 C 7.2521423 5.0583179 7.1492437 5.1853372 7.1386719 5.203125 L 7.1386719 5.2050781 C 6.9929024 5.3515774 6.805568 5.4488138 6.6015625 5.484375 C 6.550387 5.4932951 6.4206675 5.5 6.0546875 5.5 C 5.0746175 5.5 4.5164497 5.4787527 3.9101562 5.6503906 C 2.575047 6.0283168 1.53027 7.075047 1.1523438 8.4101562 C 0.98070591 9.0164497 1 9.5726348 1 10.552734 L 1 14.5 C 1 15.9142 0.99407502 16.995558 1.1191406 17.925781 C 1.2442065 18.856004 1.5428648 19.699101 2.171875 20.328125 C 2.8008922 20.957156 3.6439888 21.25579 4.5742188 21.380859 C 5.5044488 21.505928 6.58579 21.5 8 21.5 L 16 21.5 C 17.41425 21.5 18.495544 21.5059 19.425781 21.380859 C 20.356018 21.255791 21.199103 20.957147 21.828125 20.328125 C 22.457087 19.699092 22.755806 18.855994 22.880859 17.925781 C 23.005913 16.995568 23 15.9142 23 14.5 L 23 10.552734 C 23 9.5726348 23.02119 9.0164073 22.849609 8.4101562 C 22.471717 7.0750253 21.424918 6.028322 20.089844 5.6503906 C 19.483523 5.4787537 18.927266 5.5 17.947266 5.5 C 17.581266 5.5 17.449724 5.49331 17.398438 5.484375 C 17.194482 5.4488192 17.007064 5.3515521 16.861328 5.2050781 L 16.861328 5.203125 C 16.850785 5.1853633 16.747873 5.0583338 16.664062 4.9375 C 16.556786 4.7828328 16.433649 4.597674 16.332031 4.4453125 C 15.935711 3.8507324 15.691973 3.449431 15.236328 3.1054688 C 14.988105 2.918169 14.713224 2.7705343 14.419922 2.6679688 C 13.880925 2.479614 13.411766 2.5 12.697266 2.5 L 11.302734 2.5 z M 11.302734 4.5 L 12.697266 4.5 C 13.411766 4.5 13.657763 4.5209946 13.759766 4.5566406 C 13.857666 4.5908746 13.950426 4.6387116 14.033203 4.7011719 C 14.119353 4.7662099 14.271689 4.9601676 14.667969 5.5546875 C 14.769451 5.706846 14.898562 5.8989491 15.021484 6.0761719 C 15.144407 6.2533946 15.213679 6.3762987 15.396484 6.5683594 C 15.839674 7.0341507 16.421329 7.3446638 17.054688 7.4550781 C 17.344403 7.5055611 17.581266 7.5 17.947266 7.5 C 18.927266 7.5 19.349842 7.5209489 19.544922 7.5761719 C 20.214448 7.7657005 20.73432 8.285529 20.923828 8.9550781 C 20.979048 9.1501868 21 9.5726348 21 10.552734 L 21 14.5 C 21 15.9142 20.993 16.954541 20.898438 17.658203 C 20.803838 18.361865 20.663701 18.664396 20.414062 18.914062 C 20.164386 19.16374 19.861866 19.303832 19.158203 19.398438 C 18.45454 19.493044 17.41425 19.5 16 19.5 L 8 19.5 C 6.58579 19.5 5.5454519 19.493 4.8417969 19.398438 C 4.1381418 19.303831 3.8356003 19.163731 3.5859375 18.914062 C 3.3362677 18.664388 3.1961666 18.361855 3.1015625 17.658203 C 3.0069584 16.954551 3 15.9142 3 14.5 L 3 10.552734 C 3 9.5726348 3.0209498 9.1501447 3.0761719 8.9550781 C 3.2657057 8.2855073 3.7855073 7.7657057 4.4550781 7.5761719 C 4.6501447 7.5209498 5.0746175 7.5 6.0546875 7.5 C 6.4206675 7.5 6.655588 7.5055801 6.9453125 7.4550781 C 7.5787011 7.3446694 8.1603104 7.03412 8.6035156 6.5683594 C 8.7861779 6.3764009 8.857544 6.2534075 8.9804688 6.0761719 C 9.1033933 5.8989363 9.2305257 5.7069508 9.3320312 5.5546875 C 9.7284169 4.9601289 9.8826039 4.7661932 9.96875 4.7011719 C 10.051455 4.6387469 10.142345 4.590858 10.240234 4.5566406 C 10.342173 4.5210145 10.588234 4.5 11.302734 4.5 z M 12 8.5 C 11.281032 8.5 10.632373 8.9575343 10.390625 9.6347656 L 8.0585938 16.164062 A 1 1 0 0 0 8.6640625 17.441406 A 1 1 0 0 0 9.9414062 16.835938 L 10.597656 15 L 13.402344 15 L 14.058594 16.835938 A 1 1 0 0 0 15.335938 17.441406 A 1 1 0 0 0 15.941406 16.164062 L 13.609375 9.6347656 C 13.367627 8.9575343 12.718929 8.5 12 8.5 z M 19 8.5 A 1 1 0 0 0 18 9.5 L 18 9.5097656 A 1 1 0 0 0 19 10.509766 A 1 1 0 0 0 20 9.5097656 L 20 9.5 A 1 1 0 0 0 19 8.5 z M 12 11.072266 L 12.689453 13 L 11.310547 13 L 12 11.072266 z " fill="currentColor"/>
</svg>
