<svg xmlns="http://www.w3.org/2000/svg" width="1em" height="1em" viewBox="0 0 24 24" fill="currentColor">
  <path d="M 11.302734 2.5 C 10.588134 2.5 10.119085 2.479569 9.5800781 2.6679688 C 9.2865476 2.7705573 9.0118463 2.9181491 8.7636719 3.1054688 C 8.3079284 3.4494377 8.0643409 3.8507493 7.6679688 4.4453125 C 7.5664798 4.5975559 7.4431967 4.782851 7.3359375 4.9375 C 7.252342 5.05803 7.1496567 5.1848612 7.1386719 5.203125 L 7.1386719 5.2050781 C 6.9929268 5.3514754 6.8055012 5.4488207 6.6015625 5.484375 C 6.550387 5.4932951 6.4206675 5.5 6.0546875 5.5 C 5.0746075 5.5 4.5164322 5.4787771 3.9101562 5.6503906 C 2.5750689 6.0283277 1.5302818 7.0750526 1.1523438 8.4101562 C 0.98072504 9.0164355 1 9.5726148 1 10.552734 L 1 14.5 C 1 15.9142 0.99407502 16.995558 1.1191406 17.925781 C 1.2442065 18.856004 1.5428648 19.699101 2.171875 20.328125 C 2.8008922 20.957156 3.6439888 21.25579 4.5742188 21.380859 C 5.5044488 21.505928 6.58579 21.5 8 21.5 L 16 21.5 C 17.4142 21.5 18.495556 21.5059 19.425781 21.380859 C 20.356006 21.25579 21.199103 20.957147 21.828125 20.328125 C 22.457147 19.699103 22.75579 18.856006 22.880859 17.925781 C 23.005928 16.995556 23 15.9142 23 14.5 L 23 10.552734 C 23 9.5726148 23.02119 9.0164073 22.849609 8.4101562 C 22.471604 7.075096 21.424905 6.0283316 20.089844 5.6503906 C 19.483579 5.4787847 18.927366 5.5 17.947266 5.5 C 17.581266 5.5 17.44949 5.4932762 17.398438 5.484375 C 17.194349 5.4487996 17.007057 5.3515486 16.861328 5.2050781 L 16.861328 5.203125 C 16.850771 5.1853511 16.747853 5.058317 16.664062 4.9375 C 16.556811 4.7828542 16.433541 4.5975823 16.332031 4.4453125 C 15.935631 3.8507525 15.691992 3.4494286 15.236328 3.1054688 C 14.98828 2.9183012 14.713545 2.7705791 14.419922 2.6679688 C 13.880911 2.4795502 13.411866 2.5 12.697266 2.5 L 11.302734 2.5 z M 11.302734 4.5 L 12.697266 4.5 C 13.411866 4.5 13.657977 4.5210586 13.759766 4.5566406 C 13.856996 4.5906196 13.948662 4.6390786 14.03125 4.7011719 C 14.11739 4.7661919 14.271569 4.9601275 14.667969 5.5546875 C 14.769459 5.7069277 14.898561 5.8989277 15.021484 6.0761719 C 15.144408 6.2534161 15.213717 6.3763238 15.396484 6.5683594 C 15.839672 7.0341334 16.421266 7.3446641 17.054688 7.4550781 C 17.344436 7.5055966 17.581266 7.5 17.947266 7.5 C 18.927366 7.5 19.349786 7.5209379 19.544922 7.5761719 C 20.214461 7.7657109 20.734234 8.2854583 20.923828 8.9550781 C 20.979048 9.1501868 21 9.5726148 21 10.552734 L 21 14.5 C 21 15.9142 20.993 16.954553 20.898438 17.658203 C 20.803828 18.361853 20.66374 18.664385 20.414062 18.914062 C 20.164386 19.16374 19.861853 19.303832 19.158203 19.398438 C 18.454553 19.493043 17.4142 19.5 16 19.5 L 8 19.5 C 6.58579 19.5 5.5454519 19.493 4.8417969 19.398438 C 4.1381418 19.303831 3.8356003 19.163731 3.5859375 18.914062 C 3.3362677 18.664388 3.1961666 18.361855 3.1015625 17.658203 C 3.0069584 16.954551 3 15.9142 3 14.5 L 3 10.552734 C 3 9.5726148 3.0209506 9.1501588 3.0761719 8.9550781 C 3.265714 8.2855017 3.7855054 7.7657148 4.4550781 7.5761719 C 4.6501821 7.5209454 5.0746075 7.5 6.0546875 7.5 C 6.4206675 7.5 6.655588 7.5055801 6.9453125 7.4550781 C 7.5786848 7.3446572 8.1603126 7.0341027 8.6035156 6.5683594 C 8.7861779 6.3764009 8.8575429 6.2534104 8.9804688 6.0761719 C 9.1033944 5.8989334 9.2305215 5.706962 9.3320312 5.5546875 C 9.7283976 4.9601329 9.8826166 4.7661805 9.96875 4.7011719 C 10.051476 4.6387314 10.142405 4.5908319 10.240234 4.5566406 C 10.342087 4.5210399 10.588134 4.5 11.302734 4.5 z M 12 7.5 C 10.631145 7.5 9.5 8.6311099 9.5 10 L 9.5 12 C 9.5 13.36888 10.63112 14.5 12 14.5 C 13.36888 14.5 14.5 13.36888 14.5 12 L 14.5 10 C 14.5 8.6311099 13.368855 7.5 12 7.5 z M 19 8.5 A 1 1 0 0 0 18 9.5 L 18 9.5097656 A 1 1 0 0 0 19 10.509766 A 1 1 0 0 0 20 9.5097656 L 20 9.5 A 1 1 0 0 0 19 8.5 z M 12 9.5 C 12.287945 9.5 12.5 9.7120301 12.5 10 L 12.5 12 C 12.5 12.28792 12.28792 12.5 12 12.5 C 11.71208 12.5 11.5 12.28792 11.5 12 L 11.5 10 C 11.5 9.7120301 11.712055 9.5 12 9.5 z M 8.4296875 13.001953 A 1 1 0 0 0 8.0527344 13.105469 A 1 1 0 0 0 7.6054688 14.447266 C 7.9870903 15.210509 8.6424742 15.786214 9.4082031 16.236328 C 9.878467 16.512761 10.453871 16.572875 11 16.705078 L 11 17.5 A 1 1 0 0 0 12 18.5 A 1 1 0 0 0 13 17.5 L 13 16.705078 C 13.546393 16.572899 14.123279 16.512881 14.59375 16.236328 C 15.359483 15.786214 16.012907 15.210513 16.394531 14.447266 A 1 1 0 0 0 15.947266 13.105469 A 1 1 0 0 0 15.183594 13.050781 A 1 1 0 0 0 14.605469 13.552734 C 14.487093 13.789487 14.090245 14.213786 13.580078 14.513672 C 13.069911 14.813558 12.459357 15 12 15 C 11.540643 15 10.932036 14.813557 10.421875 14.513672 C 9.9117139 14.213786 9.5129097 13.789491 9.3945312 13.552734 A 1 1 0 0 0 8.4296875 13.001953 z " fill="currentColor"/>
</svg>
