<svg xmlns="http://www.w3.org/2000/svg" width="1em" height="1em" viewBox="0 0 24 24" fill="currentColor">
  <path d="M 13.601562 2.5 C 12.974963 2.5 12.562398 2.484604 12.080078 2.6328125 C 11.792786 2.7210705 11.51969 2.8505083 11.271484 3.0195312 A 1.0001 1.0001 0 0 0 11.271484 3.0214844 C 10.854463 3.305539 10.61015 3.63574 10.21875 4.125 C 9.82735 4.61426 9.6809414 4.7721034 9.6015625 4.8261719 C 9.5187549 4.8825757 9.4277713 4.9256615 9.3320312 4.9550781 C 9.2402078 4.9832879 9.0249975 5 8.3984375 5 L 8 5 C 6.585785 5 5.5044454 4.9940748 4.5742188 5.1191406 C 3.6439921 5.2442065 2.800893 5.542857 2.171875 6.171875 C 1.542857 6.800893 1.2442065 7.643992 1.1191406 8.5742188 C 0.99407482 9.5044453 1 10.585785 1 12 L 1 14.5 C 1 15.9142 0.99407502 16.995558 1.1191406 17.925781 C 1.2442065 18.856004 1.5428648 19.699101 2.171875 20.328125 C 2.8008908 20.957155 3.6439898 21.25579 4.5742188 21.380859 C 5.5044479 21.505928 6.585785 21.5 8 21.5 L 16 21.5 C 17.4142 21.5 18.495556 21.5059 19.425781 21.380859 C 20.356006 21.25579 21.199103 20.957147 21.828125 20.328125 C 22.457147 19.699103 22.75579 18.856006 22.880859 17.925781 C 23.005928 16.995556 23 15.9142 23 14.5 L 23 8.2714844 C 23 6.476253 21.523752 5 19.728516 5 C 19.57148 5 19.42438 4.9293757 19.326172 4.8066406 L 18.78125 4.125 C 18.38985 3.63574 18.145537 3.3055359 17.728516 3.0214844 A 1.0001 1.0001 0 0 0 17.728516 3.0195312 C 17.48031 2.8505052 17.207214 2.7210704 16.919922 2.6328125 C 16.437602 2.4846041 16.025036 2.5 15.398438 2.5 L 13.601562 2.5 z M 13.601562 4.5 L 15.398438 4.5 C 16.025036 4.5 16.240351 4.5167499 16.332031 4.5449219 C 16.427741 4.5743239 16.518569 4.6173109 16.601562 4.6738281 C 16.680941 4.7278965 16.82735 4.88574 17.21875 5.375 L 17.763672 6.0566406 C 18.240463 6.6525055 18.965351 7 19.728516 7 C 20.442879 7 21 7.5571158 21 8.2714844 L 21 14.5 C 21 15.9142 20.993 16.954553 20.898438 17.658203 C 20.803828 18.361853 20.66374 18.664385 20.414062 18.914062 C 20.164386 19.16374 19.861853 19.303832 19.158203 19.398438 C 18.454553 19.493043 17.4142 19.5 16 19.5 L 8 19.5 C 6.585785 19.5 5.5454503 19.493 4.8417969 19.398438 C 4.1381434 19.303832 3.8356017 19.163732 3.5859375 18.914062 C 3.3362677 18.664388 3.1961666 18.361855 3.1015625 17.658203 C 3.0069584 16.954551 3 15.9142 3 14.5 L 3 12 C 3 10.585785 3.0069583 9.5454528 3.1015625 8.8417969 C 3.1961667 8.138141 3.3362755 7.8355995 3.5859375 7.5859375 C 3.8355995 7.3362755 4.138141 7.1961667 4.8417969 7.1015625 C 5.5454528 7.0069583 6.585785 7 8 7 L 8.3984375 7 C 9.0249975 7 9.4376252 7.0153577 9.9199219 6.8671875 C 10.207122 6.7789441 10.480203 6.6476518 10.728516 6.4785156 C 11.145537 6.1944641 11.38985 5.86426 11.78125 5.375 C 12.17265 4.88574 12.319058 4.7278966 12.398438 4.6738281 C 12.481431 4.6173111 12.572261 4.574324 12.667969 4.5449219 C 12.759649 4.5167503 12.974961 4.5 13.601562 4.5 z M 5 8 A 1 1 0 0 0 4 9 A 1 1 0 0 0 5 10 L 7 10 A 1 1 0 0 0 8 9 A 1 1 0 0 0 7 8 L 5 8 z M 11.5 9.25 C 10.821712 9.25 10.25 9.8217117 10.25 10.5 C 10.25 11.178288 10.821712 11.75 11.5 11.75 C 12.178288 11.75 12.75 11.178288 12.75 10.5 C 12.75 9.8217117 12.178288 9.25 11.5 9.25 z M 17.5 9.25 C 16.821712 9.25 16.25 9.8217117 16.25 10.5 C 16.25 11.178288 16.821712 11.75 17.5 11.75 C 18.178288 11.75 18.75 11.178288 18.75 10.5 C 18.75 9.8217117 18.178288 9.25 17.5 9.25 z M 10.943359 13.501953 A 1 1 0 0 0 10.451172 13.664062 A 1 1 0 0 0 10.164062 15.048828 C 11.121007 16.50493 12.70286 17.5 14.5 17.5 C 16.29714 17.5 17.878992 16.50493 18.835938 15.048828 A 1 1 0 0 0 18.548828 13.664062 A 1 1 0 0 0 17.164062 13.951172 C 16.524808 14.92387 15.56526 15.5 14.5 15.5 C 13.43474 15.5 12.475191 14.92387 11.835938 13.951172 A 1 1 0 0 0 11.203125 13.521484 A 1 1 0 0 0 10.943359 13.501953 z " fill="currentColor"/>
</svg>
