<svg xmlns="http://www.w3.org/2000/svg" width="1em" height="1em" viewBox="0 0 24 24" fill="currentColor">
  <path d="M 12 1 C 5.9367124 1 1 5.9367124 1 12 C 1 18.063288 5.9367124 23 12 23 C 18.063288 23 23 18.063288 23 12 C 23 5.9367124 18.063288 1 12 1 z M 12 3 C 15.130105 3 17.878633 4.5856425 19.490234 7 L 12 7 C 10.87695 7 9.8371738 7.3762822 9 8.0078125 L 9 3.5097656 C 9.9377394 3.1798845 10.947336 3 12 3 z M 7 4.5097656 L 7 12 C 7 13.12305 7.3762821 14.162826 8.0078125 15 L 3.5097656 15 C 3.1798845 14.062261 3 13.052664 3 12 C 3 8.8698949 4.5856425 6.1213672 7 4.5097656 z M 12 9 C 13.668699 9 15 10.331301 15 12 C 15 13.668699 13.668699 15 12 15 C 10.331301 15 9 13.668699 9 12 C 9 10.331301 10.331301 9 12 9 z M 15.992188 9 L 20.490234 9 C 20.820116 9.9377394 21 10.947336 21 12 C 21 15.130105 19.414357 17.878633 17 19.490234 L 17 12 C 17 10.87695 16.623718 9.8371738 15.992188 9 z M 15 15.992188 L 15 20.490234 C 14.062261 20.820116 13.052664 21 12 21 C 8.8698949 21 6.1213672 19.414357 4.5097656 17 L 12 17 C 13.12305 17 14.162826 16.623718 15 15.992188 z " fill="currentColor"/>
</svg>
