<svg xmlns="http://www.w3.org/2000/svg" width="1em" height="1em" viewBox="0 0 24 24" fill="currentColor">
  <path d="M 15.498047 1.5039062 C 13.186243 1.5553889 10.952041 2.7527289 9.7089844 4.8632812 L 1.9003906 18.121094 C 1.0842821 19.506607 1.5850129 21.321362 2.984375 22.113281 C 4.3836971 22.905169 6.1878252 22.436248 7.0039062 21.050781 L 7.5 20.208984 L 14.814453 7.7929688 C 15.076455 7.348066 15.658878 7.1901695 16.126953 7.4550781 C 16.59505 7.7199989 16.732818 8.2463941 16.470703 8.6914062 C 15.654614 10.076986 16.155406 11.891712 17.554688 12.683594 C 18.953988 13.475636 20.76011 13.004674 21.576172 11.619141 C 23.470346 8.4030847 22.329206 4.2491916 19.0625 2.4003906 C 18.245802 1.9381976 17.372356 1.6596419 16.490234 1.5527344 C 16.159439 1.5126441 15.828305 1.4965516 15.498047 1.5039062 z M 16.224609 3.5332031 C 16.230168 3.5332029 16.23658 3.5344713 16.242188 3.5351562 C 16.87003 3.6119063 17.494223 3.8101781 18.078125 4.140625 C 20.413619 5.462404 21.193741 8.3299441 19.853516 10.605469 C 19.591377 11.050535 19.009116 11.206364 18.541016 10.941406 C 18.072897 10.676488 17.933202 10.152052 18.195312 9.7070312 C 19.011398 8.3215032 18.510631 6.5067829 17.111328 5.7148438 C 16.978849 5.6398668 16.828031 5.7128132 16.689453 5.6601562 L 16.109375 3.5449219 C 16.148663 3.5486319 16.185701 3.5332045 16.224609 3.5332031 z M 14.105469 3.7929688 L 14.607422 5.6367188 C 14.013423 5.8688097 13.435172 6.1909457 13.089844 6.7773438 L 12.828125 7.2226562 L 12.220703 5.0019531 C 12.764862 4.4548901 13.388415 4.0296564 14.105469 3.7929688 z M 10.71875 7.0898438 L 11.412109 9.6269531 L 9.9003906 12.193359 L 9.2070312 9.65625 L 10.71875 7.0898438 z M 7.7910156 12.060547 L 8.484375 14.597656 L 6.9707031 17.166016 L 6.2773438 14.630859 L 7.7910156 12.060547 z M 4.8613281 17.033203 L 5.5546875 19.570312 L 5.28125 20.035156 C 5.0191711 20.480089 4.4368679 20.637959 3.96875 20.373047 C 3.5006921 20.108166 3.3609954 19.581605 3.6230469 19.136719 L 4.8613281 17.033203 z " fill="currentColor"/>
</svg>
