<svg xmlns="http://www.w3.org/2000/svg" width="1em" height="1em" viewBox="0 0 24 24" fill="currentColor">
  <path d="M 2 1 A 1 1 0 0 0 1.2929688 1.2929688 A 1 1 0 0 0 1.2929688 2.7070312 L 3.3222656 4.7363281 C 3.3194773 4.7393984 3.3172236 4.7430042 3.3144531 4.7460938 C 2.8512439 5.2626645 2.6877606 6.0927377 2.984375 6.7988281 C 3.5152141 8.0624942 4.395178 9.150305 5.3085938 10.074219 C 5.1507875 10.14132 4.994937 10.127962 4.8359375 10.205078 C 4.0221614 10.599766 3.2224364 11.124337 2.5820312 11.75 C 2.0512186 12.268601 1.8836858 13.092734 2.1113281 13.724609 C 2.3389704 14.356484 2.8638487 14.821911 3.5136719 15.029297 A 1.0001 1.0001 0 0 0 3.5136719 15.03125 C 4.6512133 15.394218 5.5382361 15.462165 6.3554688 15.525391 C 5.9886123 16.146152 5.7102056 16.780765 5.5410156 17.412109 C 5.3400103 18.162124 5.5890746 18.948715 6.1015625 19.435547 C 6.6140507 19.922379 7.4039274 20.130742 8.1484375 19.908203 C 9.2585649 19.576452 10.187558 18.993517 11 18.339844 L 11 22 A 1 1 0 0 0 12 23 A 1 1 0 0 0 13 22 L 13 18.339844 C 13.812459 18.993521 14.741458 19.576482 15.851562 19.908203 C 16.59608 20.130747 17.385934 19.922363 17.898438 19.435547 C 17.919448 19.41559 17.940827 19.395942 17.960938 19.375 L 21.292969 22.707031 A 1 1 0 0 0 22.707031 22.707031 A 1 1 0 0 0 22.707031 21.292969 L 18.140625 16.726562 A 1 1 0 0 0 18.111328 16.697266 L 5.7851562 4.3730469 L 2.7070312 1.2929688 A 1 1 0 0 0 2 1 z M 12 1 C 11.197081 1 10.371075 1.4791521 9.9921875 2.3007812 C 9.605138 3.1403042 9.3227387 4.0194863 9.140625 4.9238281 A 1 1 0 0 0 9.9238281 6.1015625 A 1 1 0 0 0 11.101562 5.3183594 C 11.254048 4.5611412 11.488443 3.8311357 11.808594 3.1367188 C 11.871706 2.9998577 11.924594 3 12 3 C 12.07541 3 12.128327 2.9998985 12.191406 3.1367188 C 12.80653 4.4708059 13.109375 5.933717 13.109375 7.4765625 A 1.0001 1.0001 0 0 0 14.822266 8.1777344 C 15.747904 7.2375885 17.390013 6.3773169 19.050781 6.0664062 C 19.122331 6.0530112 19.118872 6.0651887 19.138672 6.0742188 C 18.546386 7.4398205 17.023211 9.1358796 16.185547 9.703125 A 1.0001 1.0001 0 0 0 16.746094 11.53125 C 16.995416 11.53125 17.651061 11.69352 18.291016 12.003906 C 18.890507 12.294667 19.479209 12.707738 19.910156 13.105469 C 19.907931 13.106787 19.903721 13.110295 19.902344 13.111328 L 19.900391 13.113281 L 19.898438 13.115234 L 19.896484 13.117188 L 19.894531 13.119141 L 19.892578 13.119141 C 19.889757 13.120557 19.885744 13.122818 19.878906 13.125 C 19.603325 13.21291 19.336315 13.287351 19.082031 13.349609 A 1 1 0 0 0 18.349609 14.558594 A 1 1 0 0 0 19.558594 15.291016 C 19.85651 15.218076 20.166309 15.133338 20.486328 15.03125 A 1.0001 1.0001 0 0 0 20.486328 15.029297 C 21.136175 14.821923 21.661021 14.356507 21.888672 13.724609 C 22.116322 13.092712 21.948792 12.268586 21.417969 11.75 C 20.777567 11.12434 19.977833 10.599767 19.164062 10.205078 C 19.005064 10.127958 18.849212 10.141318 18.691406 10.074219 C 19.604813 9.1503605 20.484765 8.0624883 21.015625 6.7988281 C 21.319365 6.0756452 21.1392 5.2248126 20.652344 4.7089844 C 20.165488 4.1931561 19.420146 3.961344 18.681641 4.0996094 C 17.291759 4.3598076 16.043746 4.9581571 14.925781 5.6796875 C 14.763391 4.5125072 14.500317 3.3689314 14.007812 2.3007812 C 13.628991 1.4791113 12.802919 1 12 1 z M 5.0527344 6.4667969 L 16.53125 17.945312 C 16.535149 17.960887 16.535201 17.969607 16.535156 17.974609 L 16.535156 17.976562 L 16.535156 17.978516 L 16.535156 17.980469 L 16.533203 17.980469 L 16.53125 17.980469 L 16.529297 17.980469 L 16.527344 17.982422 L 16.525391 17.982422 L 16.523438 17.982422 L 16.521484 17.984375 L 16.519531 17.986328 L 16.517578 17.988281 C 16.516461 17.989825 16.513027 17.994526 16.511719 17.996094 L 16.509766 17.998047 L 16.507812 17.998047 L 16.505859 18 L 16.503906 18 L 16.501953 18.001953 C 16.490154 18.005514 16.468908 18.003694 16.423828 17.990234 C 15.044286 17.577999 13.770237 16.4997 12.712891 15.425781 A 1.0001 1.0001 0 0 0 11.287109 15.425781 C 10.229744 16.499719 8.9557564 17.577999 7.5761719 17.990234 C 7.5310719 18.003714 7.5078881 18.003557 7.4960938 18 L 7.4941406 18 L 7.4921875 17.998047 L 7.4902344 17.998047 L 7.4882812 17.996094 L 7.4863281 17.994141 C 7.4850218 17.99257 7.4815841 17.987878 7.4804688 17.986328 L 7.4785156 17.984375 L 7.4765625 17.984375 L 7.4765625 17.982422 L 7.4746094 17.982422 L 7.4726562 17.982422 L 7.4726562 17.980469 L 7.4707031 17.980469 L 7.46875 17.980469 L 7.4667969 17.980469 L 7.4648438 17.980469 L 7.4648438 17.978516 L 7.4648438 17.976562 L 7.4628906 17.974609 C 7.4626637 17.96854 7.4659948 17.956496 7.4726562 17.931641 A 1.0001 1.0001 0 0 0 7.4726562 17.929688 C 7.7054669 17.060938 8.1908049 16.146447 9.0214844 15.302734 A 1.0001 1.0001 0 0 0 8.1386719 13.615234 C 8.1386719 13.615234 6.5657621 13.905048 4.1210938 13.125 C 4.1142545 13.122825 4.1082906 13.120557 4.1054688 13.119141 L 4.1035156 13.117188 L 4.1015625 13.115234 L 4.0996094 13.113281 L 4.0976562 13.111328 L 4.0957031 13.109375 C 4.0943268 13.108342 4.0920681 13.106785 4.0898438 13.105469 C 4.520836 12.707739 5.1094866 12.294668 5.7089844 12.003906 C 6.3489457 11.69352 7.0045918 11.53125 7.2539062 11.53125 A 1.0001 1.0001 0 0 0 7.8144531 9.703125 C 7.0555286 9.1892192 5.7348631 7.7487033 5.0527344 6.4667969 z " fill="currentColor"/>
</svg>
