<svg xmlns="http://www.w3.org/2000/svg" width="1em" height="1em" viewBox="0 0 24 24" fill="currentColor">
  <path d="M 6 3.5 C 5.05719 3.5 4.3297886 3.4935765 3.671875 3.5820312 C 3.0139614 3.6704859 2.3614754 3.8963288 1.8789062 4.3789062 C 1.3963288 4.8614754 1.1751503 5.4934859 1.0839844 6.09375 C 0.99281845 6.6940141 1 7.30719 1 8 A 1.0001 1.0001 0 0 0 1.5527344 8.8945312 L 7.7617188 12 L 1.5527344 15.105469 A 1.0001 1.0001 0 0 0 1 16 C 1 16.9428 0.98774583 17.543288 1.0878906 18.117188 C 1.1880351 18.691087 1.4969297 19.239111 1.8789062 19.621094 C 2.3614738 20.103678 3.0139596 20.329512 3.671875 20.417969 C 4.32979 20.506425 5.05719 20.5 6 20.5 L 14 20.5 C 14.9428 20.5 15.670212 20.506399 16.328125 20.417969 C 16.986038 20.329509 17.638521 20.103666 18.121094 19.621094 C 18.503076 19.239111 18.811963 18.691091 18.912109 18.117188 C 18.937149 17.973717 18.920614 17.739545 18.933594 17.587891 L 21.548828 18.894531 A 1 1 0 0 0 22.890625 18.447266 A 1 1 0 0 0 22.443359 17.105469 L 12.234375 12 L 22.443359 6.8945312 A 1 1 0 0 0 22.890625 5.5527344 A 1 1 0 0 0 21.548828 5.1054688 L 18.929688 6.4140625 C 18.919396 6.3121142 18.931334 6.1946083 18.916016 6.09375 C 18.824848 5.4934841 18.603678 4.8614738 18.121094 4.3789062 C 17.63852 3.8963405 16.986036 3.6704861 16.328125 3.5820312 C 15.670214 3.4935763 14.9428 3.5 14 3.5 L 6 3.5 z M 6 5.5 L 14 5.5 C 14.9428 5.5 15.629208 5.5064601 16.060547 5.5644531 C 16.491886 5.6224461 16.603805 5.6897446 16.707031 5.7929688 C 16.810247 5.8961812 16.882218 6.0285891 16.9375 6.3925781 C 16.97189 6.6190225 16.969722 7.0325254 16.976562 7.3925781 L 9.9980469 10.880859 L 3.0234375 7.3945312 C 3.0302597 7.0335354 3.0280412 6.6194652 3.0625 6.3925781 C 3.1177816 6.0285872 3.1897561 5.8961796 3.2929688 5.7929688 C 3.3961795 5.6897562 3.5081117 5.6224459 3.9394531 5.5644531 C 4.3707945 5.5064604 5.05719 5.5 6 5.5 z M 9.9980469 13.119141 L 16.980469 16.609375 C 16.973269 17.063711 16.971766 17.599265 16.941406 17.773438 C 16.895106 18.038785 16.910846 18.003214 16.707031 18.207031 C 16.603804 18.310259 16.491884 18.377553 16.060547 18.435547 C 15.629207 18.49354 14.9428 18.5 14 18.5 L 6 18.5 C 5.05719 18.5 4.3707927 18.493497 3.9394531 18.435547 C 3.5081136 18.377557 3.3961812 18.310247 3.2929688 18.207031 C 3.0891553 18.003214 3.1048967 18.038789 3.0585938 17.773438 C 3.0281497 17.598971 3.0266673 17.063027 3.0195312 16.607422 L 9.9980469 13.119141 z " fill="currentColor"/>
</svg>
