<svg xmlns="http://www.w3.org/2000/svg" width="1em" height="1em" viewBox="0 0 24 24" fill="currentColor">
  <path d="M 8.9296875 2.0019531 A 1.0001 1.0001 0 0 0 8.5527344 2.1054688 L 4.0898438 4.3359375 C 2.8214818 4.9701118 1.9830079 6.2335304 1.8886719 7.6484375 L 1.0019531 20.933594 A 1.0001 1.0001 0 0 0 2 22 L 5 22 A 1.0001 1.0001 0 0 0 5.9570312 21.287109 L 6.3574219 19.951172 L 7.1054688 21.447266 A 1.0001 1.0001 0 0 0 8 22 L 16 22 A 1.0001 1.0001 0 0 0 16.894531 21.447266 L 17.642578 19.951172 L 18.042969 21.287109 A 1.0001 1.0001 0 0 0 19 22 L 22 22 A 1.0001 1.0001 0 0 0 22.998047 20.933594 L 22.111328 7.6484375 C 22.017028 6.2334994 21.178503 4.9701108 19.910156 4.3359375 L 15.447266 2.1054688 A 1.0001 1.0001 0 0 0 14.251953 2.3359375 C 13.788733 2.8570508 12.913632 3.1953125 12 3.1953125 C 11.086368 3.1953125 10.211267 2.8570508 9.7480469 2.3359375 A 1.0001 1.0001 0 0 0 8.9296875 2.0019531 z M 14.378906 4.5664062 C 14.322562 4.8623501 14.240366 5.1985296 14.119141 5.5449219 C 13.766122 6.5535431 13.171152 7.5230111 11.964844 7.9609375 C 11.889226 7.9131988 11.811457 7.8704466 11.732422 7.8320312 C 10.397347 7.1832334 9.8585974 5.6363343 9.6425781 4.578125 C 10.37054 4.9705086 11.174436 5.1953125 12 5.1953125 C 12.833853 5.1953125 13.645182 4.9661337 14.378906 4.5664062 z M 16.367188 4.8007812 L 19.015625 6.125 C 19.651878 6.4431267 20.069886 7.0714881 20.117188 7.78125 L 20.931641 20 L 19.744141 20 L 18.457031 15.712891 A 1 1 0 0 0 18.355469 15.484375 L 18.994141 9.0996094 A 1 1 0 0 0 18.099609 8.0058594 A 1 1 0 0 0 17.005859 8.9003906 L 16.023438 18.716797 L 15.382812 20 L 13 20 L 13 9.7539062 C 13 9.7344937 13.000539 9.7145281 13 9.6953125 C 14.662731 8.9425061 15.566512 7.460359 16.005859 6.2050781 C 16.181854 5.7022374 16.294227 5.217322 16.367188 4.8007812 z M 7.6152344 4.8105469 C 7.8562045 6.2589352 8.595854 8.5318195 10.857422 9.6308594 C 10.961773 9.6815794 10.993906 9.7439316 11 9.7539062 L 11 20 L 8.6171875 20 L 7.9765625 18.716797 L 6.9941406 8.9003906 A 1 1 0 0 0 5.9003906 8.0058594 A 1 1 0 0 0 5.0058594 9.0996094 L 5.6445312 15.484375 A 1 1 0 0 0 5.5429688 15.712891 L 4.2558594 20 L 3.0683594 20 L 3.8828125 7.78125 C 3.9301365 7.0714571 4.3481169 6.4431257 4.984375 6.125 L 7.6152344 4.8105469 z " fill="currentColor"/>
</svg>
