<svg xmlns="http://www.w3.org/2000/svg" width="1em" height="1em" viewBox="0 0 24 24" fill="currentColor">
  <path d="M 16 2.5 C 13.588339 2.5 12.030263 2.942305 10.435547 3.1933594 C 9.2352151 3.3823262 7.9728667 3.4892252 6.1152344 3.2714844 A 1 1 0 0 0 6.0644531 3.2636719 A 1 1 0 0 0 5.9804688 3.2558594 C 5.4056823 3.1847443 4.7749573 3.0827985 4.0722656 2.9433594 C 2.5272221 2.6367525 1 3.8169734 1 5.421875 L 1 15.4375 C 1 16.583595 1.7954352 17.605381 2.9296875 17.855469 C 6.5037661 18.643636 8.7135354 18.580779 10.548828 18.308594 C 12.384121 18.036409 13.751242 17.609375 16 17.609375 C 17.447771 17.609375 18.609861 17.745886 19.490234 17.912109 C 20.347194 18.073928 21.1837 17.835699 21.837891 17.359375 C 22.492081 16.883047 23 16.106303 23 15.181641 L 23 5.4277344 C 23 4.4789304 22.415404 3.5262077 21.429688 3.2207031 C 20.3971 2.9007063 18.582707 2.5 16 2.5 z M 16 4.5 C 16.552359 4.5 17.063764 4.5190007 17.533203 4.5527344 C 17.662013 5.6451328 18.161781 6.6409973 18.853516 7.4160156 C 19.435564 8.0681415 20.170812 8.5874084 21 8.8261719 L 21 12.59375 C 19.309969 12.91379 17.797887 14.028111 17.279297 15.642578 C 16.876049 15.620746 16.450047 15.609375 16 15.609375 C 13.497858 15.609375 11.919242 16.085341 10.255859 16.332031 C 9.3048888 16.473066 8.2945664 16.556767 6.9707031 16.462891 C 6.7380604 14.294582 5.1047481 12.529439 3 12.097656 L 3 8.3984375 C 4.702764 8.0523127 6.1086287 6.8492154 6.6816406 5.3300781 C 8.3351611 5.4567172 9.6091734 5.3489059 10.746094 5.1699219 C 12.487932 4.8957063 13.832561 4.5 16 4.5 z M 19.632812 4.8300781 C 20.130379 4.9291914 20.531473 5.0365064 20.835938 5.1308594 C 20.935622 5.1617548 21 5.2402183 21 5.4277344 L 21 6.6386719 C 20.772076 6.4965669 20.547887 6.3105112 20.345703 6.0839844 C 20.027397 5.7273545 19.776142 5.2880673 19.632812 4.8300781 z M 3.5488281 4.890625 C 3.5927678 4.8902882 3.6374267 4.8951352 3.6835938 4.9042969 C 3.9754341 4.9622084 4.2579068 5.0143045 4.53125 5.0605469 C 4.1746314 5.5657687 3.6218345 6.0309617 3 6.2890625 L 3 5.421875 C 3 5.1184264 3.2412507 4.8929827 3.5488281 4.890625 z M 12 7 C 10.078854 7 8.5 8.5788556 8.5 10.5 C 8.5 12.42115 10.07885 14 12 14 C 13.92115 14 15.5 12.42115 15.5 10.5 C 15.5 8.5788556 13.921146 7 12 7 z M 12 9 C 12.840254 9 13.5 9.6597644 13.5 10.5 C 13.5 11.34025 12.84025 12 12 12 C 11.15975 12 10.5 11.34025 10.5 10.5 C 10.5 9.6597644 11.159746 9 12 9 z M 3 14.164062 C 3.9266177 14.486966 4.6396827 15.248237 4.8964844 16.205078 C 4.4211311 16.12404 3.9107167 16.023927 3.359375 15.902344 C 3.1493273 15.856031 3 15.668005 3 15.4375 L 3 14.164062 z M 21 14.664062 L 21 15.181641 C 21 15.372079 20.89394 15.573918 20.660156 15.744141 C 20.426372 15.914363 20.100068 15.992347 19.861328 15.947266 C 19.709973 15.918688 19.551268 15.891614 19.386719 15.865234 C 19.722494 15.332356 20.314167 14.890459 21 14.664062 z M 16 18.5 C 13.723966 18.5 12.196482 18.944578 10.712891 19.228516 C 9.2292986 19.512453 7.744324 19.677227 5.1757812 19.21875 A 1 1 0 0 0 4.015625 20.027344 A 1 1 0 0 0 4.8242188 21.1875 C 7.6180761 21.686157 9.4854319 21.500006 11.087891 21.193359 C 12.690349 20.886631 13.981634 20.5 16 20.5 C 17.116375 20.5 18.06229 20.59103 18.837891 20.71875 A 1 1 0 0 0 19.986328 19.894531 A 1 1 0 0 0 19.162109 18.746094 C 18.28111 18.601015 17.226225 18.5 16 18.5 z " fill="currentColor"/>
</svg>
