<svg xmlns="http://www.w3.org/2000/svg" width="1em" height="1em" viewBox="0 0 24 24" fill="currentColor">
  <path d="M 8 2.5 C 7.2469638 2.5 6.5878102 2.4983142 5.9960938 2.515625 A 1 1 0 0 0 5.9433594 2.5175781 C 5.4452571 2.5332463 4.9940507 2.5626957 4.5742188 2.6191406 C 3.6439921 2.7442065 2.800893 3.042857 2.171875 3.671875 C 1.542857 4.300893 1.2442065 5.1439921 1.1191406 6.0742188 C 1.0672935 6.4598523 1.0458747 6.8932265 1.0292969 7.34375 A 1 1 0 0 0 1.0175781 7.4980469 A 1 1 0 0 0 1.0175781 7.5117188 C 1.0004619 8.1018169 1 8.7496233 1 9.5 L 1 11.5 C 1 12.250369 1.0004619 12.898181 1.0175781 13.488281 A 1 1 0 0 0 1.0175781 13.5 A 1 1 0 0 0 1.0292969 13.654297 C 1.045861 14.105632 1.0672142 14.539559 1.1191406 14.925781 C 1.2442065 15.856004 1.5428648 16.699101 2.171875 17.328125 C 2.8008908 17.957155 3.6439898 18.25579 4.5742188 18.380859 C 4.9604436 18.432787 5.3943707 18.454139 5.8457031 18.470703 A 1 1 0 0 0 6 18.482422 A 1 1 0 0 0 6.0117188 18.482422 C 6.6018166 18.499538 7.2496233 18.5 8 18.5 L 16 18.5 C 16.750369 18.5 17.398181 18.499541 17.988281 18.482422 A 1 1 0 0 0 18 18.482422 A 1 1 0 0 0 18.154297 18.470703 C 18.605631 18.454137 19.039558 18.432776 19.425781 18.380859 C 20.356006 18.25579 21.199103 17.957147 21.828125 17.328125 C 22.457147 16.699103 22.75579 15.856006 22.880859 14.925781 C 23.005928 13.995556 23 12.9142 23 11.5 L 23 9.5 C 23 8.085785 23.005928 7.0044478 22.880859 6.0742188 C 22.75579 5.1439897 22.457155 4.3008908 21.828125 3.671875 C 21.199101 3.0428648 20.356004 2.7442065 19.425781 2.6191406 C 19.005953 2.5626959 18.554743 2.5332464 18.056641 2.5175781 A 1 1 0 0 0 18.003906 2.515625 C 17.412187 2.4983142 16.753029 2.5 16 2.5 L 8 2.5 z M 8 4.5 L 16 4.5 C 16.395426 4.5 16.761828 4.5010542 17.099609 4.5039062 C 17.497442 6.4539225 19.047213 7.9959343 20.996094 8.3964844 C 20.998973 8.7352942 21 9.1031217 21 9.5 L 21 11.5 C 21 11.888834 20.998827 12.248949 20.996094 12.582031 C 19.019612 12.951121 17.451118 14.519611 17.082031 16.496094 C 16.74895 16.498823 16.388833 16.5 16 16.5 L 8 16.5 C 7.604868 16.5 7.2379604 16.498944 6.9003906 16.496094 C 6.504213 14.542782 4.9572071 12.995783 3.0039062 12.599609 C 3.0010599 12.262038 3 11.89513 3 11.5 L 3 9.5 C 3 9.1041045 3.0010455 8.7365495 3.0039062 8.3984375 C 4.9565481 8.0023881 6.5035782 6.4562848 6.9003906 4.5039062 C 7.2380703 4.501057 7.6047131 4.5 8 4.5 z M 4.796875 4.6074219 C 4.4959838 5.3821714 3.8824166 5.9945085 3.1074219 6.2949219 C 3.2019331 5.6238747 3.3417736 5.3301014 3.5859375 5.0859375 C 3.8302547 4.8416203 4.1249333 4.7019361 4.796875 4.6074219 z M 19.207031 4.6074219 C 19.876364 4.7019268 20.17018 4.8420597 20.414062 5.0859375 C 20.657362 5.3292312 20.796131 5.6230903 20.890625 6.2890625 C 20.121248 5.9857185 19.509703 5.3746071 19.207031 4.6074219 z M 12 6.5 C 9.8026731 6.5 8 8.3027269 8 10.5 C 8 12.697307 9.8026932 14.5 12 14.5 C 14.197307 14.5 16 12.697307 16 10.5 C 16 8.3027269 14.197327 6.5 12 6.5 z M 12 8.5 C 13.116473 8.5 14 9.3835731 14 10.5 C 14 11.616493 13.116493 12.5 12 12.5 C 10.883507 12.5 10 11.616493 10 10.5 C 10 9.3835731 10.883527 8.5 12 8.5 z M 20.896484 14.671875 C 20.8019 15.365394 20.662052 15.666073 20.414062 15.914062 C 20.166074 16.162051 19.865394 16.301905 19.171875 16.396484 C 19.461504 15.594099 20.094099 14.961504 20.896484 14.671875 z M 3.1074219 14.701172 C 3.8832462 15.001809 4.4981894 15.616747 4.7988281 16.392578 C 4.126319 16.298062 3.8303545 16.158484 3.5859375 15.914062 C 3.3415152 15.669634 3.2019376 15.373678 3.1074219 14.701172 z M 5 19.5 A 1 1 0 0 0 4 20.5 A 1 1 0 0 0 5 21.5 L 19 21.5 A 1 1 0 0 0 20 20.5 A 1 1 0 0 0 19 19.5 L 5 19.5 z " fill="currentColor"/>
</svg>
