<svg xmlns="http://www.w3.org/2000/svg" width="1em" height="1em" viewBox="0 0 24 24" fill="currentColor">
  <path d="M 12 1 C 8.3337712 1 5.1463821 2.8479829 3.1464844 5.6152344 L 2.9921875 4.375 A 1 1 0 0 0 1.875 3.5078125 A 1 1 0 0 0 1.0078125 4.625 L 1.5078125 8.625 A 1.0001 1.0001 0 0 0 2.7421875 9.4707031 L 6.7421875 8.4707031 A 1 1 0 0 0 7.4707031 7.2578125 A 1 1 0 0 0 6.2578125 6.5292969 L 4.6621094 6.9277344 C 6.2846804 4.5838778 8.924343 3 12 3 C 16.982356 3 21 7.0175956 21 12 C 21 16.98235 16.98235 21 12 21 C 7.0175956 21 3 16.982356 3 12 A 1 1 0 0 0 2 11 A 1 1 0 0 0 1 12 C 1 18.063244 5.9367044 23 12 23 C 18.06325 23 23 18.06325 23 12 C 23 5.9367044 18.063244 1 12 1 z M 10.5 6 A 1 1 0 0 0 9.5 7 L 9.5 7.5 L 9 7.5 A 1 1 0 0 0 8 8.5 A 1 1 0 0 0 9 9.5 L 9.5 9.5 L 9.5 12 L 9.5 14.5 L 9 14.5 A 1 1 0 0 0 8 15.5 A 1 1 0 0 0 9 16.5 L 9.5 16.5 L 9.5 17 A 1 1 0 0 0 10.5 18 A 1 1 0 0 0 11.5 17 L 11.5 16.5 L 12.5 16.5 L 12.5 17 A 1 1 0 0 0 13.5 18 A 1 1 0 0 0 14.5 17 L 14.5 16.396484 C 15.874371 16.250565 17 15.159948 17 13.75 C 17 12.883546 16.534216 12.195304 15.898438 11.689453 C 16.190765 11.252953 16.5 10.809218 16.5 10.25 C 16.5 9.0343032 15.603906 8.1706175 14.5 7.8125 L 14.5 7 A 1 1 0 0 0 13.5 6 A 1 1 0 0 0 12.5 7 L 12.5 7.5 L 11.5 7.5 L 11.5 7 A 1 1 0 0 0 10.5 6 z M 11.5 9.5 L 13.5 9.5 L 13.75 9.5 C 14.176062 9.5 14.5 9.823938 14.5 10.25 C 14.5 10.676062 14.176062 11 13.75 11 L 11.5 11 L 11.5 9.5 z M 11.5 13 L 13.75 13 L 14.25 13 C 14.676062 13 15 13.323938 15 13.75 C 15 14.176062 14.676062 14.5 14.25 14.5 L 13.5 14.5 L 11.5 14.5 L 11.5 13 z " fill="currentColor"/>
</svg>
