<svg xmlns="http://www.w3.org/2000/svg" width="1em" height="1em" viewBox="0 0 24 24" fill="currentColor">
  <path d="M 6.46875 0.99609375 C 6.3785684 0.99696743 6.2912117 1 6.2050781 1 L 5.140625 1 C 4.839715 1 4.5963126 0.99187616 4.3046875 1.0332031 C 4.0130624 1.0745301 3.578182 1.2227649 3.3027344 1.5683594 C 3.0273011 1.913954 2.9811464 2.3831391 3.0117188 2.6777344 C 3.0422907 2.9723297 3.1086548 3.2042474 3.1816406 3.4902344 L 3.7480469 5.7089844 C 3.8161998 5.9760557 3.86204 6.2065197 4.0214844 6.4824219 C 4.3767493 7.0971158 4.8511343 7.4456458 5.171875 7.7285156 C 5.4926157 8.0113855 5.6519231 8.194344 5.7207031 8.3964844 C 5.7716434 8.5462 5.7588675 8.8643775 5.6171875 9.8359375 L 3.9902344 21 L 3 21 A 1 1 0 0 0 2 22 A 1 1 0 0 0 3 23 L 21 23 A 1 1 0 0 0 22 22 A 1 1 0 0 0 21 21 L 20.009766 21 L 18.382812 9.8359375 C 18.241118 8.8644107 18.228339 8.5462505 18.279297 8.3964844 C 18.348097 8.1943156 18.507385 8.0113917 18.828125 7.7285156 C 19.148865 7.4456395 19.623264 7.0971054 19.978516 6.4824219 C 20.138066 6.2064969 20.183824 5.9761579 20.251953 5.7089844 L 20.818359 3.4902344 C 20.891359 3.2042501 20.957699 2.972359 20.988281 2.6777344 C 21.018863 2.3831098 20.972763 1.913944 20.697266 1.5683594 C 20.421842 1.2226593 19.986947 1.0745315 19.695312 1.0332031 C 19.403678 0.99187483 19.160325 1 18.859375 1 L 17.794922 1 C 17.450407 1 17.084029 0.93846968 16.611328 1.2519531 C 16.138627 1.5654366 16.050033 1.9361004 15.921875 2.25 L 15.414062 3.4941406 C 15.41327 3.4960811 15.412896 3.4980899 15.412109 3.5 C 15.405874 3.5000549 15.399088 3.5 15.392578 3.5 L 14.878906 3.5 C 14.8718 3.5 14.864123 3.5000669 14.857422 3.5 C 14.857162 3.4987394 14.857682 3.4973697 14.857422 3.4960938 L 14.675781 2.6035156 C 14.592642 2.1963151 14.472141 1.7221765 14.021484 1.3652344 C 13.570828 1.0082923 13.099128 1 12.693359 1 L 11.306641 1 C 10.900872 1 10.429172 1.0082923 9.9785156 1.3652344 C 9.5278588 1.7221765 9.4073576 2.1963151 9.3242188 2.6035156 L 9.1425781 3.4960938 C 9.1423176 3.4973694 9.1428378 3.4987397 9.1425781 3.5 C 9.1358786 3.5000669 9.1281979 3.5 9.1210938 3.5 L 8.6074219 3.5 C 8.6009122 3.5 8.5941257 3.5000549 8.5878906 3.5 C 8.5871043 3.4980899 8.5867298 3.4960811 8.5859375 3.4941406 L 8.078125 2.25 C 7.9499728 1.9361401 7.8613801 1.56548 7.3886719 1.2519531 C 7.0341407 1.016808 6.7392949 0.99347271 6.46875 0.99609375 z M 5.1210938 3 C 5.1314487 2.999982 5.130034 3 5.140625 3 L 6.2050781 3 C 6.2115877 3 6.2183743 2.9999451 6.2246094 3 C 6.2253957 3.0019101 6.2257702 3.0039189 6.2265625 3.0058594 L 6.734375 4.25 C 6.8625272 4.5638599 6.9511199 4.93452 7.4238281 5.2480469 C 7.8965364 5.5615737 8.2628877 5.5 8.6074219 5.5 L 9.1210938 5.5 C 9.5268457 5.5 9.9985762 5.49169 10.449219 5.1347656 C 10.899861 4.777838 11.018405 4.3036851 11.101562 3.8964844 L 11.285156 3.0039062 C 11.285417 3.0026305 11.284897 3.0012604 11.285156 3 C 11.291856 2.9999331 11.299536 3 11.306641 3 L 12.693359 3 C 12.700466 3 12.708142 2.9999331 12.714844 3 C 12.715103 3.0012606 12.714583 3.0026303 12.714844 3.0039062 L 12.898438 3.8964844 C 12.981578 4.3036849 13.100124 4.7778235 13.550781 5.1347656 C 14.001433 5.491707 14.473138 5.5 14.878906 5.5 L 15.392578 5.5 C 15.737141 5.5 16.103443 5.561581 16.576172 5.2480469 C 17.048901 4.9345128 17.137485 4.5638562 17.265625 4.25 L 17.773438 3.0058594 C 17.77423 3.0039189 17.774604 3.0019101 17.775391 3 C 17.781626 2.9999451 17.788412 3 17.794922 3 L 18.859375 3 C 18.869965 3 18.868576 2.999982 18.878906 3 L 18.314453 5.2148438 C 18.255221 5.4471314 18.230773 5.5067193 18.240234 5.4921875 C 18.128169 5.6778413 17.872101 5.9055098 17.505859 6.2285156 C 17.280366 6.42739 17.010955 6.6743485 16.777344 7 L 7.2226562 7 C 6.9890435 6.6743442 6.7196466 6.4273954 6.4941406 6.2285156 C 6.127925 5.9055402 5.8718455 5.6778212 5.7597656 5.4921875 C 5.7691198 5.506503 5.7447636 5.4468969 5.6855469 5.2148438 L 5.1210938 3 z M 7.7441406 9 L 16.255859 9 C 16.27925 9.3037113 16.329846 9.6288232 16.384766 10 L 15 10 A 1 1 0 0 0 14 11 A 1 1 0 0 0 15 12 L 16.675781 12 L 17.988281 21 L 15.820312 21 L 15.373047 18.765625 C 15.22954 18.04789 15.169543 17.547815 14.794922 17.03125 C 14.400906 16.488036 13.802939 16.190522 13.296875 16.083984 C 12.790811 15.977447 12.351443 16 12 16 C 11.648557 16 11.209189 15.977454 10.703125 16.083984 C 10.197061 16.190522 9.5990939 16.488036 9.2050781 17.03125 C 8.8304374 17.547841 8.7705022 18.047929 8.6269531 18.765625 L 8.1796875 21 L 6.0117188 21 L 7.0332031 14 L 9 14 A 1 1 0 0 0 10 13 A 1 1 0 0 0 9 12 L 7.3242188 12 L 7.5976562 10.125 C 7.6594768 9.7010701 7.7181578 9.3373379 7.7441406 9 z M 12 18 C 12.387357 18 12.702779 18.002696 12.884766 18.041016 C 13.066752 18.079326 13.091797 18.091246 13.175781 18.207031 C 13.185961 18.221071 13.268611 18.438585 13.412109 19.15625 L 13.78125 21 L 10.21875 21 L 10.587891 19.158203 L 10.587891 19.15625 C 10.72646 18.464182 10.809988 18.233372 10.824219 18.207031 C 10.908199 18.091245 10.933248 18.079328 11.115234 18.041016 C 11.297221 18.002754 11.612643 18 12 18 z " fill="currentColor"/>
</svg>
