<svg xmlns="http://www.w3.org/2000/svg" width="1em" height="1em" viewBox="0 0 24 24" fill="currentColor">
  <path d="M 6.6230469 2.015625 C 5.0728496 1.9081654 3.525895 2.7269332 2.7851562 4.2011719 L 1.4316406 6.8925781 C 0.44399019 8.8582142 1.2178588 11.287212 3.1679688 12.294922 L 6.9316406 14.240234 L 6.6621094 15.587891 C 6.5081781 16.357497 6.3911243 16.913947 6.2773438 17.257812 C 6.1635632 17.601678 6.091195 17.693875 5.9941406 17.773438 C 5.8970561 17.853025 5.7930876 17.907039 5.4335938 17.951172 C 5.0740999 17.995305 4.5055831 18 3.7207031 18 L 3 18 L 3 17 A 1 1 0 0 0 2 16 A 1 1 0 0 0 1 17 L 1 21 A 1 1 0 0 0 2 22 A 1 1 0 0 0 3 21 L 3 20 L 3.7207031 20 C 4.5055831 20 5.1141133 20.004697 5.6777344 19.935547 C 6.2413555 19.866357 6.8058434 19.694026 7.2617188 19.320312 C 7.7176244 18.946576 7.9993499 18.425829 8.1777344 17.886719 C 8.3561188 17.347609 8.4691181 16.750063 8.6230469 15.980469 L 8.78125 15.195312 L 12.017578 16.867188 C 13.298111 17.52881 14.746148 17.009674 15.609375 15.916016 L 17.314453 18.257812 C 17.479688 18.484898 17.69517 18.669592 17.945312 18.798828 C 18.824711 19.253206 19.936861 18.883828 20.378906 18.003906 L 22.806641 13.173828 C 23.24853 12.293999 22.898931 11.196565 22.019531 10.742188 C 21.769949 10.61324 21.492749 10.543353 21.210938 10.541016 L 21.208984 10.541016 L 18.335938 10.519531 C 18.718221 9.1673426 18.2811 7.6796364 16.992188 7.0136719 L 8.1445312 2.4414062 C 7.6569908 2.1894987 7.1397793 2.0514449 6.6230469 2.015625 z M 6.2773438 3.9941406 C 6.5944958 3.9875757 6.9196754 4.0601844 7.2265625 4.21875 L 16.074219 8.7910156 C 16.567546 9.0459115 16.765173 9.6499075 16.507812 10.162109 L 14.253906 14.648438 C 13.99657 15.160576 13.428867 15.344731 12.935547 15.089844 L 4.0859375 10.517578 C 3.1038474 10.010088 2.7123805 8.7987995 3.21875 7.7910156 L 4.5722656 5.0996094 C 4.8254498 4.5957152 5.2431027 4.2475166 5.7207031 4.0898438 C 5.8998033 4.0307164 6.0870525 3.9980796 6.2773438 3.9941406 z M 12.933594 9.3320312 C 12.811954 9.3358788 12.69142 9.3566878 12.576172 9.3945312 C 12.268219 9.4956522 11.997208 9.7123645 11.845703 10.013672 C 11.543245 10.616156 11.782773 11.376093 12.388672 11.689453 C 12.994978 12.002529 13.773435 11.743663 14.076172 11.140625 C 14.379311 10.537752 14.137585 9.777935 13.53125 9.4648438 C 13.342086 9.3675041 13.136326 9.3256186 12.933594 9.3320312 z M 17.564453 12.511719 L 20.888672 12.539062 L 18.738281 16.814453 L 16.765625 14.105469 L 17.564453 12.511719 z " fill="currentColor"/>
</svg>
