<svg xmlns="http://www.w3.org/2000/svg" width="1em" height="1em" viewBox="0 0 24 24" fill="currentColor">
  <path d="M 5 3 C 3.3549904 3 2 4.3549904 2 6 C 2 7.6450096 3.3549904 9 5 9 C 6.6450096 9 8 7.6450096 8 6 C 8 4.3549904 6.6450096 3 5 3 z M 16.017578 3 C 14.141778 3 13.039833 2.940288 12.005859 3.5351562 C 11.396289 3.8858355 10.89144 4.3900038 10.539062 4.9980469 A 1.0001 1.0001 0 0 0 10.537109 4.9980469 C 9.9392453 6.0301208 10 7.13077 10 9 L 10 15 C 10 16.8692 9.9392344 17.969866 10.537109 19.001953 C 10.889492 19.610057 11.396286 20.114176 12.005859 20.464844 C 13.039829 21.05968 14.141778 21 16.017578 21 C 17.893478 21 18.995363 21.05966 20.029297 20.464844 C 20.638815 20.114208 21.145672 19.610273 21.498047 19.001953 C 21.830084 18.428744 21.949044 17.790785 21.998047 17.068359 A 1 1 0 0 0 21.068359 16.001953 A 1 1 0 0 0 20.001953 16.931641 C 19.962353 17.515415 19.883541 17.797856 19.767578 17.998047 C 19.591553 18.301927 19.337132 18.554505 19.03125 18.730469 C 18.667984 18.939453 17.893478 19 16.017578 19 C 14.141778 19 13.367137 18.939433 13.003906 18.730469 C 12.698487 18.554771 12.445719 18.301601 12.269531 17.998047 C 12.060806 17.637734 12 16.8692 12 15 L 12 9 C 12 7.13077 12.060842 6.3621792 12.269531 6.0019531 C 12.445723 5.6984186 12.698484 5.4452373 13.003906 5.2695312 C 13.367132 5.0605592 14.141778 5 16.017578 5 C 17.893478 5 18.667988 5.060539 19.03125 5.2695312 C 19.337134 5.4455034 19.591549 5.6980929 19.767578 6.0019531 C 19.883505 6.2020675 19.962355 6.4845833 20.001953 7.0683594 A 1 1 0 0 0 21.068359 7.9980469 A 1 1 0 0 0 21.998047 6.9316406 C 21.949047 6.2092167 21.83012 5.5712725 21.498047 4.9980469 C 21.145676 4.3897871 20.638813 3.8858042 20.029297 3.5351562 C 18.995359 2.9403088 17.893478 3 16.017578 3 z M 5 5 C 5.5641294 5 6 5.4358706 6 6 C 6 6.5641294 5.5641294 7 5 7 C 4.4358706 7 4 6.5641294 4 6 C 4 5.4358706 4.4358706 5 5 5 z " fill="currentColor"/>
</svg>
