<svg xmlns="http://www.w3.org/2000/svg" width="1em" height="1em" viewBox="0 0 24 24" fill="currentColor">
  <path d="M 9.1113281 1.5 C 6.3905109 1.5619928 4.4937384 1.8175946 3.140625 3.1660156 C 1.9563721 4.3461611 1.6099033 5.9797263 1.5019531 8.1503906 A 1 1 0 0 0 2.4511719 9.1992188 A 1 1 0 0 0 3.4980469 8.25 C 3.5982167 6.2357843 3.8744472 5.2599189 4.5527344 4.5839844 C 5.327741 3.8116654 6.5445272 3.5595072 9.15625 3.5 A 1 1 0 0 0 10.134766 2.4765625 A 1 1 0 0 0 9.1113281 1.5 z M 14.888672 1.5 A 1 1 0 0 0 13.865234 2.4765625 A 1 1 0 0 0 14.84375 3.5 C 17.455503 3.559507 18.6722 3.8116359 19.447266 4.5839844 C 20.125496 5.2599128 20.401744 6.235773 20.501953 8.25 A 1 1 0 0 0 21.548828 9.1992188 A 1 1 0 0 0 22.498047 8.1503906 C 22.390056 5.9797376 22.043545 4.3461672 20.859375 3.1660156 C 19.50624 1.8176241 17.609519 1.5619928 14.888672 1.5 z M 12 7 C 9.2504204 7 7 9.2504204 7 12 C 7 14.749549 9.2504084 17 12 17 C 14.749561 17 17 14.749561 17 12 C 17 9.2504084 14.749549 7 12 7 z M 12 9 C 13.668651 9 15 10.331312 15 12 C 15 13.668639 13.668639 15 12 15 C 10.331312 15 9 13.668651 9 12 C 9 10.3313 10.3313 9 12 9 z M 2.4511719 14.800781 A 1 1 0 0 0 1.5019531 15.849609 C 1.6099035 18.020235 1.9563991 19.65379 3.140625 20.833984 C 4.4937463 22.182324 6.3905208 22.437956 9.1113281 22.5 A 1 1 0 0 0 10.134766 21.523438 A 1 1 0 0 0 9.15625 20.5 C 6.5445174 20.440444 5.3277331 20.188276 4.5527344 19.416016 C 3.8744202 18.74001 3.5982165 17.764175 3.4980469 15.75 A 1 1 0 0 0 2.4511719 14.800781 z M 21.548828 14.800781 A 1 1 0 0 0 20.501953 15.75 C 20.401744 17.764186 20.125523 18.740017 19.447266 19.416016 C 18.672208 20.188305 17.455513 20.440444 14.84375 20.5 A 1 1 0 0 0 13.865234 21.523438 A 1 1 0 0 0 14.888672 22.5 C 17.609509 22.43796 19.506232 22.182295 20.859375 20.833984 C 22.043518 19.653783 22.390056 18.020223 22.498047 15.849609 A 1 1 0 0 0 21.548828 14.800781 z " fill="currentColor"/>
</svg>
