<svg xmlns="http://www.w3.org/2000/svg" width="1em" height="1em" viewBox="0 0 24 24" fill="currentColor">
  <path d="M 4.9296875 1.0019531 A 1 1 0 0 0 4.0507812 1.6835938 A 1 1 0 0 0 4.6835938 2.9492188 C 5.1079586 3.0907889 5.5572845 3.2189023 6.0273438 3.3339844 L 6.8886719 12.382812 C 6.5158716 12.283963 6.164386 12.175901 5.8378906 12.058594 A 1 1 0 0 0 4.5585938 12.662109 A 1 1 0 0 0 5.1621094 13.941406 C 5.6605923 14.120507 6.1940349 14.279485 6.7578125 14.416016 L 5.0273438 21.771484 A 1 1 0 0 0 5.7714844 22.972656 A 1 1 0 0 0 6.9726562 22.228516 L 7.7324219 19 L 16.267578 19 L 17.027344 22.228516 A 1 1 0 0 0 18.228516 22.972656 A 1 1 0 0 0 18.972656 21.771484 L 17.242188 14.416016 C 17.805965 14.279485 18.339407 14.120507 18.837891 13.941406 A 1 1 0 0 0 19.441406 12.662109 A 1 1 0 0 0 18.162109 12.058594 C 17.835614 12.175901 17.484128 12.283963 17.111328 12.382812 L 17.972656 3.3339844 C 18.442713 3.2189033 18.892039 3.0907867 19.316406 2.9492188 A 1 1 0 0 0 19.949219 1.6835938 A 1 1 0 0 0 18.683594 1.0507812 C 16.952161 1.6283834 14.590096 2 12 2 C 9.4099038 2 7.0477875 1.6283787 5.3164062 1.0507812 A 1 1 0 0 0 4.9296875 1.0019531 z M 8.0742188 3.7285156 C 8.9999946 3.8622903 9.9807884 3.9480299 11 3.9824219 L 11 12.978516 C 10.283736 12.947342 9.5924249 12.883019 8.9375 12.791016 L 8.0742188 3.7285156 z M 15.925781 3.7285156 L 15.0625 12.791016 C 14.407576 12.883018 13.716266 12.947342 13 12.978516 L 13 3.9824219 C 14.019213 3.9480294 15.000005 3.8622916 15.925781 3.7285156 z M 8.7246094 14.783203 C 9.7145028 14.918668 10.771634 14.984257 11.863281 14.990234 A 1 1 0 0 0 11.869141 14.992188 C 11.914642 14.992426 11.95436 15 12 15 C 13.14286 15 14.242364 14.924571 15.275391 14.783203 L 15.796875 17 L 8.203125 17 L 8.7246094 14.783203 z " fill="currentColor"/>
</svg>
