<svg xmlns="http://www.w3.org/2000/svg" width="1em" height="1em" viewBox="0 0 24 24" fill="currentColor">
  <path d="M 10.607422 0.99609375 C 10.100776 0.99645026 9.5603625 1.0190038 9.015625 1.1054688 C 7.92615 1.278398 6.7251257 1.7945509 6.0273438 2.96875 C 5.2329975 4.3054344 5.4678464 5.7977469 5.7226562 8.3847656 L 6.0351562 11.566406 C 5.8466168 11.775656 5.684621 12.006971 5.5449219 12.248047 C 5.1559916 12.919215 4.9293123 13.701168 5.0175781 14.519531 C 5.0650341 14.959469 5.3048802 15.394589 5.6367188 15.650391 C 5.7531314 15.740129 5.8753131 15.810472 6 15.863281 L 6 18 L 6 22 A 1 1 0 0 0 7 23 A 1 1 0 0 0 8 22 L 8 19 L 16 19 L 16 22 A 1 1 0 0 0 17 23 A 1 1 0 0 0 18 22 L 18 18 L 18 15.863281 C 18.124687 15.810472 18.246869 15.740128 18.363281 15.650391 C 18.69512 15.394597 18.934955 14.959471 18.982422 14.519531 C 19.070732 13.701142 18.84401 12.919217 18.455078 12.248047 C 18.315379 12.006971 18.153384 11.775655 17.964844 11.566406 L 18.277344 8.3847656 C 18.532144 5.7977358 18.766897 4.3054259 17.972656 2.96875 C 17.274882 1.7945419 16.073857 1.2783981 14.984375 1.1054688 C 13.894893 0.9325396 12.826106 1.0175781 12 1.0175781 C 11.586947 1.0175781 11.114068 0.99573724 10.607422 0.99609375 z M 10.603516 3.0039062 C 11.058339 3.003028 11.533303 3.0175781 12 3.0175781 C 12.933394 3.0175781 13.902053 2.9601503 14.669922 3.0820312 C 15.43779 3.203912 15.91438 3.4188825 16.253906 3.9902344 C 16.561866 4.5085184 16.541912 5.602423 16.287109 8.1894531 L 16.054688 10.546875 C 14.825965 10.221914 13.401917 10 12 10 C 10.598084 10 9.174028 10.221914 7.9453125 10.546875 L 7.7128906 8.1894531 C 7.4580805 5.6024319 7.4381002 4.50851 7.7460938 3.9902344 C 8.0856318 3.4188735 8.5622182 3.2039116 9.3300781 3.0820312 C 9.7140081 3.021091 10.148692 3.0047845 10.603516 3.0039062 z M 12 12 C 13.393554 12 14.929574 12.276897 16.095703 12.638672 C 16.119639 12.646097 16.14754 12.659446 16.179688 12.677734 A 1 1 0 0 0 16.433594 12.876953 C 16.534174 12.976107 16.63795 13.102406 16.724609 13.251953 C 16.867478 13.498499 16.886226 13.754472 16.916016 14 L 7.0839844 14 C 7.1137809 13.754458 7.1325208 13.4985 7.2753906 13.251953 C 7.36205 13.102407 7.4658299 12.976106 7.5664062 12.876953 A 1 1 0 0 0 7.8203125 12.677734 C 7.8524584 12.659448 7.8803601 12.646097 7.9042969 12.638672 C 9.0704028 12.276899 10.606446 12 12 12 z M 8 16 L 16 16 L 16 17 L 8 17 L 8 16 z " fill="currentColor"/>
</svg>
