<svg xmlns="http://www.w3.org/2000/svg" width="1em" height="1em" viewBox="0 0 24 24" fill="currentColor">
  <path d="M 12 1 C 10.585785 1 9.5028766 0.99303331 8.5644531 1.1289062 C 7.6260296 1.2647792 6.7678521 1.5964603 6.1464844 2.265625 C 5.5251159 2.9347905 5.2402035 3.8076045 5.1171875 4.7929688 C 5.0349474 5.4517157 5.0112152 6.1875814 5.0039062 7.0585938 C 3.8286004 7.1748395 2.8652814 7.473012 2.1464844 8.2480469 C 1.5252024 8.9179339 1.2401847 9.7909268 1.1171875 10.777344 C 0.99419035 11.763761 1 12.926122 1 14.451172 L 1 15.529297 C 1 17.054347 0.994191 18.216706 1.1171875 19.203125 C 1.2401844 20.189544 1.5252264 21.062511 2.1464844 21.732422 C 2.7677658 22.402295 3.6258051 22.735026 4.5644531 22.871094 C 5.5031011 23.007161 6.585635 23 8 23 L 12.001953 23 C 13.416303 23 14.498847 23.0072 15.4375 22.871094 C 16.376153 22.735027 17.234171 22.40229 17.855469 21.732422 C 18.39871 21.146621 18.689071 20.394125 18.830078 19.566406 C 18.958555 18.812239 18.989042 17.965195 18.998047 16.923828 C 19.147687 16.909266 19.293207 16.891708 19.435547 16.871094 C 20.37397 16.735216 21.232144 16.40355 21.853516 15.734375 C 22.474918 15.065237 22.759794 14.192396 22.882812 13.207031 C 23.005833 12.221667 23 11.062083 23 9.5390625 L 23 8.4609375 C 23 6.9379375 23.0058 5.7783354 22.882812 4.7929688 C 22.759793 3.8076023 22.474897 2.9347887 21.853516 2.265625 C 21.232141 1.5964679 20.373967 1.2647794 19.435547 1.1289062 C 18.497127 0.99303324 17.4142 1 16 1 L 12 1 z M 12 3 L 16 3 C 17.4142 3 18.452982 3.00673 19.148438 3.1074219 C 19.843894 3.2081163 20.131347 3.3498403 20.388672 3.6269531 C 20.645991 3.9040594 20.801782 4.2668147 20.898438 5.0410156 C 20.995093 5.8152166 21 6.9379375 21 8.4609375 L 21 9.5390625 C 21 11.062083 20.9951 12.184789 20.898438 12.958984 C 20.801778 13.73318 20.645969 14.095984 20.388672 14.373047 C 20.131343 14.650172 19.843889 14.791881 19.148438 14.892578 C 18.452986 14.993275 17.4142 15 16 15 L 12 15 C 10.585785 15 9.5470179 14.993275 8.8515625 14.892578 C 8.1561071 14.791881 7.8686439 14.650165 7.6113281 14.373047 C 7.3540383 14.095986 7.1982162 13.733182 7.1015625 12.958984 C 7.0049088 12.184787 7 11.062083 7 9.5390625 L 7 8.4609375 C 7 8.312486 6.9998263 8.1682371 7 8.0273438 C 7.0000259 8.0063018 6.9999681 7.9876715 7 7.9667969 C 7.0019446 6.6934819 7.015738 5.7284845 7.1015625 5.0410156 C 7.1982165 4.2668124 7.3540166 3.9040577 7.6113281 3.6269531 C 7.8686404 3.3498478 8.1561035 3.2081164 8.8515625 3.1074219 C 9.5470215 3.0067274 10.585785 3 12 3 z M 5 9.0664062 L 5 9.5390625 C 5 11.062082 4.99417 12.221669 5.1171875 13.207031 C 5.2402038 14.192394 5.5250942 15.065236 6.1464844 15.734375 C 6.7678486 16.403557 7.626026 16.735216 8.5644531 16.871094 C 9.5028803 17.006972 10.585785 17 12 17 L 16 17 C 16.351788 17 16.682429 16.999488 16.996094 16.998047 C 16.984835 17.961749 16.949752 18.699933 16.859375 19.230469 C 16.757007 19.831375 16.615784 20.130248 16.390625 20.373047 C 16.133123 20.650679 15.845812 20.79177 15.150391 20.892578 C 14.454969 20.993386 13.416303 21 12.001953 21 L 8 21 C 6.585635 21 5.5469745 20.993386 4.8515625 20.892578 C 4.1561505 20.79177 3.8688167 20.650674 3.6113281 20.373047 C 3.3538061 20.095357 3.1982606 19.730584 3.1015625 18.955078 C 3.0048644 18.179572 3 17.054347 3 15.529297 L 3 14.451172 C 3 12.926122 3.00486 11.800891 3.1015625 11.025391 C 3.1982603 10.24989 3.3538301 9.8870179 3.6113281 9.609375 C 3.8836221 9.3157771 4.2523181 9.1521255 5 9.0664062 z " fill="currentColor"/>
</svg>
