<svg xmlns="http://www.w3.org/2000/svg" width="1em" height="1em" viewBox="0 0 24 24" fill="currentColor">
  <path d="M 12 1 C 5.9367124 1 1 5.9367124 1 12 C 1 18.063288 5.9367124 23 12 23 C 18.063288 23 23 18.063288 23 12 C 23 5.9367124 18.063288 1 12 1 z M 12 3 C 16.644313 3 20.450167 6.4908443 20.945312 11 L 16.898438 11 C 16.431759 8.7251388 14.407389 7 12 7 C 10.984693 7 10.037103 7.3065061 9.2460938 7.8320312 L 6.3789062 4.9648438 C 7.9176632 3.7350659 9.870207 3 12 3 z M 4.9648438 6.3789062 L 7.8320312 9.2460938 C 7.3065061 10.037103 7 10.984693 7 12 C 7 14.407389 8.7251388 16.431759 11 16.898438 L 11 20.945312 C 6.4908443 20.450167 3 16.644313 3 12 C 3 9.870207 3.7350659 7.9176632 4.9648438 6.3789062 z M 12 9 C 13.668699 9 15 10.331301 15 12 C 15 13.668699 13.668699 15 12 15 C 10.331301 15 9 13.668699 9 12 C 9 10.331301 10.331301 9 12 9 z M 16.898438 13 L 20.945312 13 C 20.486212 17.180901 17.180901 20.486212 13 20.945312 L 13 16.898438 C 14.951509 16.498093 16.498093 14.951509 16.898438 13 z " fill="currentColor"/>
</svg>
