<svg xmlns="http://www.w3.org/2000/svg" width="1em" height="1em" viewBox="0 0 24 24" fill="currentColor">
  <path d="M 3 2 A 1 1 0 0 0 2 3 L 2 13 C 2 14.8856 1.99457 16.318937 2.15625 17.521484 C 2.3179268 18.724031 2.6893545 19.759713 3.4648438 20.535156 C 4.2403087 21.310634 5.2759729 21.682068 6.4785156 21.84375 C 7.6810584 22.005432 9.11438 22 11 22 L 21 22 A 1 1 0 0 0 22 21 A 1 1 0 0 0 21 20 L 11 20 C 9.11438 20 7.7201079 19.9945 6.7441406 19.863281 C 5.7681734 19.732063 5.2750213 19.517216 4.8789062 19.121094 C 4.4828255 18.725037 4.2679344 18.231837 4.1367188 17.255859 C 4.0055032 16.279881 4 14.8856 4 13 L 4 3 A 1 1 0 0 0 3 2 z M 8 6 C 6.9072695 6 6 6.9072695 6 8 L 6 9 C 6 10.09273 6.9072695 11 8 11 L 18 11 C 19.092731 11 20 10.092706 20 9 L 20 8 C 20 6.9072936 19.092731 6 18 6 L 8 6 z M 8 8 L 14 8 L 14 9 L 8 9 L 8 8 z M 16 8 L 18 8 L 18 9 L 16 9 L 16 8 z M 8 13 C 6.9072936 13 6 13.907269 6 15 L 6 16 C 6 17.092731 6.9072936 18 8 18 L 14 18 C 15.092707 18 16 17.092707 16 16 L 16 15 C 16 13.907293 15.092707 13 14 13 L 8 13 z M 8 15 L 10 15 L 10 16 L 8 16 L 8 15 z M 12 15 L 14 15 L 14 16 L 12 16 L 12 15 z " fill="currentColor"/>
</svg>
