<svg xmlns="http://www.w3.org/2000/svg" width="1em" height="1em" viewBox="0 0 24 24" fill="currentColor">
  <path d="M 17 1 C 13.698136 1 11 3.6981361 11 7 C 11 10.301864 13.698136 13 17 13 C 20.301864 13 23 10.301864 23 7 C 23 3.6981361 20.301864 1 17 1 z M 5 3 C 2.8027056 3 1 4.8027056 1 7 C 1 9.1972944 2.8027056 11 5 11 C 7.1972944 11 9 9.1972944 9 7 C 9 4.8027056 7.1972944 3 5 3 z M 17 3 C 19.220984 3 21 4.7790164 21 7 C 21 9.2209836 19.220984 11 17 11 C 14.779016 11 13 9.2209836 13 7 C 13 4.7790164 14.779016 3 17 3 z M 5 5 C 6.1164141 5 7 5.8835859 7 7 C 7 8.1164141 6.1164141 9 5 9 C 3.8835859 9 3 8.1164141 3 7 C 3 5.8835859 3.8835859 5 5 5 z M 8 13 C 5.2504209 13 3 15.250421 3 18 C 3 20.749579 5.2504209 23 8 23 C 10.749579 23 13 20.749579 13 18 C 13 15.250421 10.749579 13 8 13 z M 8 15 C 9.6686989 15 11 16.331301 11 18 C 11 19.668699 9.6686989 21 8 21 C 6.3313011 21 5 19.668699 5 18 C 5 16.331301 6.3313011 15 8 15 z " fill="currentColor"/>
</svg>
