<svg xmlns="http://www.w3.org/2000/svg" width="1em" height="1em" viewBox="0 0 24 24" fill="currentColor">
  <path d="M 3 2 A 1 1 0 0 0 2 3 L 2 14 C 2 15.6499 1.99335 16.908225 2.1367188 17.974609 C 2.2800906 19.040994 2.6161378 19.979371 3.3183594 20.681641 C 4.0206014 21.383869 4.9590094 21.719914 6.0253906 21.863281 C 7.0917719 22.006649 8.350085 22 10 22 L 21 22 A 1 1 0 0 0 22 21 A 1 1 0 0 0 21 20 L 10 20 C 8.350085 20 7.132785 19.993767 6.2929688 19.880859 C 5.4531525 19.767952 5.0552999 19.59045 4.7324219 19.267578 C 4.4095135 18.944648 4.2320512 18.546847 4.1191406 17.707031 C 4.0062301 16.867215 4 15.6499 4 14 L 4 3 A 1 1 0 0 0 3 2 z M 6.9960938 4.9980469 A 1 1 0 0 0 5.9960938 6 A 1 1 0 0 0 6.9980469 6.9980469 C 8.6255978 6.9980377 11.185348 7.3614453 13.199219 8.7011719 C 14.869489 9.8123184 16.183279 11.606305 16.546875 14.601562 L 16.197266 14.25 A 1 1 0 0 0 14.783203 14.246094 A 1 1 0 0 0 14.779297 15.660156 L 16.662109 17.556641 C 17.235257 18.133935 18.198912 18.137991 18.777344 17.566406 L 20.699219 15.666016 A 1 1 0 0 0 20.708984 14.251953 A 1 1 0 0 0 19.294922 14.244141 L 18.556641 14.972656 C 18.222567 11.116558 16.50604 8.500259 14.306641 7.0371094 C 11.799404 5.3691709 8.9000729 4.9980361 6.9960938 4.9980469 z " fill="currentColor"/>
</svg>
