<svg xmlns="http://www.w3.org/2000/svg" width="1em" height="1em" viewBox="0 0 24 24" fill="currentColor">
  <path d="M 7 2 A 1 1 0 0 0 6 3 L 6 5.0039062 C 5.5834852 5.0197105 5.2297174 5.0718831 4.8515625 5.2285156 C 4.1168415 5.532854 3.532854 6.1168415 3.2285156 6.8515625 C 2.9619356 7.4951614 3 8.06812 3 9 L 3 15 C 3 15.9319 2.961985 16.504871 3.2285156 17.148438 C 3.5328536 17.883084 4.1168017 18.467115 4.8515625 18.771484 C 5.2296972 18.928068 5.5834724 18.980274 6 18.996094 L 6 21 A 1 1 0 0 0 7 22 A 1 1 0 0 0 8 21 L 8 18.996094 C 8.4165276 18.980274 8.7703028 18.928068 9.1484375 18.771484 C 9.8831983 18.467115 10.467146 17.883083 10.771484 17.148438 C 11.038015 16.504872 11 15.9319 11 15 L 11 9 C 11 8.06812 11.038064 7.4951614 10.771484 6.8515625 C 10.467146 6.1168415 9.8831585 5.532854 9.1484375 5.2285156 C 8.7702826 5.0718831 8.4165148 5.0197105 8 5.0039062 L 8 3 A 1 1 0 0 0 7 2 z M 17 2 A 1 1 0 0 0 16 3 L 16 10.003906 C 15.58346 10.019734 15.229683 10.071959 14.851562 10.228516 C 14.116877 10.532885 13.532885 11.116878 13.228516 11.851562 C 12.962072 12.495088 13 13.0681 13 14 L 13 15 C 13 15.9319 12.96207 16.504912 13.228516 17.148438 C 13.532885 17.883122 14.116878 18.467115 14.851562 18.771484 C 15.229683 18.928041 15.58346 18.980266 16 18.996094 L 16 21 A 1 1 0 0 0 17 22 A 1 1 0 0 0 18 21 L 18 18.996094 C 18.41654 18.980266 18.770317 18.928042 19.148438 18.771484 C 19.883122 18.467115 20.467115 17.883122 20.771484 17.148438 C 21.037928 16.504912 21 15.9319 21 15 L 21 14 C 21 13.0681 21.03793 12.495087 20.771484 11.851562 C 20.467115 11.116877 19.883122 10.532885 19.148438 10.228516 C 18.770317 10.071959 18.41654 10.019734 18 10.003906 L 18 3 A 1 1 0 0 0 17 2 z M 7 7 C 7.93188 7 8.2913114 7.0382719 8.3828125 7.0761719 C 8.6281915 7.1778135 8.8221865 7.3718085 8.9238281 7.6171875 C 8.9617281 7.7086885 9 8.06812 9 9 L 9 15 C 9 15.9319 8.9617781 16.29118 8.9238281 16.382812 C 8.8221861 16.628167 8.6281517 16.822198 8.3828125 16.923828 C 8.2912708 16.961735 7.93188 17 7 17 C 6.06812 17 5.7087293 16.961735 5.6171875 16.923828 C 5.3718483 16.822198 5.1778139 16.628167 5.0761719 16.382812 C 5.0382223 16.291179 5 15.9319 5 15 L 5 9 C 5 8.06812 5.0382719 7.7086886 5.0761719 7.6171875 C 5.1778135 7.3718085 5.3718085 7.1778135 5.6171875 7.0761719 C 5.7086886 7.0382719 6.06812 7 7 7 z M 17 12 C 17.9319 12 18.291138 12.038212 18.382812 12.076172 C 18.628128 12.177802 18.822198 12.371872 18.923828 12.617188 C 18.961785 12.708863 19 13.0681 19 14 L 19 15 C 19 15.9319 18.961778 16.291138 18.923828 16.382812 C 18.822198 16.628128 18.628129 16.822198 18.382812 16.923828 C 18.291137 16.961785 17.9319 17 17 17 C 16.0681 17 15.708861 16.961778 15.617188 16.923828 C 15.371871 16.822198 15.177802 16.628129 15.076172 16.382812 C 15.038215 16.291137 15 15.9319 15 15 L 15 14 C 15 13.0681 15.038212 12.708861 15.076172 12.617188 C 15.177802 12.371871 15.371872 12.177802 15.617188 12.076172 C 15.708863 12.038215 16.068104 12 17 12 z " fill="currentColor"/>
</svg>
