<svg xmlns="http://www.w3.org/2000/svg" width="1em" height="1em" viewBox="0 0 24 24" fill="currentColor">
  <path d="M 12 1 C 11.153772 1 10.363699 1.2919815 9.578125 1.75 C 8.7925515 2.2080185 7.9642937 2.8367064 6.8769531 3.6542969 L 4.8867188 5.1503906 C 2.8902805 6.6515493 1.6699937 7.4984126 1.1855469 8.9902344 C 0.94332635 9.7361498 0.9623122 10.513693 1.1210938 11.333984 C 1.2798755 12.154276 1.5685779 13.058934 1.9394531 14.240234 L 2.8476562 17.132812 C 3.2385821 18.378017 3.5321743 19.331925 3.890625 20.132812 C 4.2490757 20.933701 4.7079171 21.610807 5.3730469 22.09375 C 6.038201 22.576648 6.8236423 22.804102 7.703125 22.904297 C 8.5826077 23.004492 9.5938685 23 10.917969 23 L 13.082031 23 C 14.406131 23 15.417392 23.004497 16.296875 22.904297 C 17.176358 22.804102 17.961804 22.576654 18.626953 22.09375 C 19.292056 21.610812 19.750912 20.933704 20.109375 20.132812 C 20.467838 19.331923 20.761439 18.378028 21.152344 17.132812 L 22.060547 14.240234 C 22.431451 13.058922 22.720136 12.154284 22.878906 11.333984 C 23.037677 10.513685 23.056665 9.7361315 22.814453 8.9902344 C 22.330007 7.4984201 21.10968 6.6515493 19.113281 5.1503906 L 17.123047 3.6542969 C 16.0357 2.8367091 15.207437 2.2080185 14.421875 1.75 C 13.636313 1.2919815 12.846228 1 12 1 z M 11 3.2539062 L 11 8.1816406 C 10.553065 8.358715 10.119526 8.6485868 9.5898438 8.9765625 L 9.2265625 9.203125 C 8.7353386 9.5072681 8.3477218 9.7416504 8.0019531 10.015625 C 7.8871112 10.106622 7.7736256 10.20709 7.6679688 10.316406 L 3.5761719 8.828125 C 4.0299049 8.3256159 4.8079341 7.7104698 6.0878906 6.7480469 L 8.0800781 5.2519531 C 9.1674175 4.4343636 9.9692155 3.836134 10.585938 3.4765625 C 10.736581 3.3887318 10.873326 3.31462 11 3.2539062 z M 13 3.2539062 C 13.126675 3.3146204 13.263419 3.3887308 13.414062 3.4765625 C 14.030774 3.836134 14.832569 4.4343609 15.919922 5.2519531 L 17.912109 6.7480469 C 19.230517 7.7394018 20.015425 8.3621559 20.462891 8.8730469 L 16.318359 10.757812 C 16.270521 10.706683 16.221496 10.656629 16.171875 10.609375 C 15.863135 10.31536 15.513165 10.055855 15.070312 9.7207031 L 14.380859 9.1992188 C 13.864307 8.8082869 13.447687 8.4691018 13 8.2519531 L 13 3.2539062 z M 11.921875 10 C 11.929682 9.9992656 11.937119 9.9997099 11.943359 10 C 12.043019 10.0046 12.318894 10.146422 13.175781 10.794922 L 13.863281 11.314453 C 14.306129 11.649601 14.61908 11.892905 14.791016 12.056641 C 14.962951 12.220376 14.976751 12.264869 14.990234 12.308594 C 15.003704 12.352264 15.016767 12.393334 14.966797 12.623047 C 14.916827 12.852759 14.793444 13.226873 14.615234 13.75 L 14.408203 14.361328 C 14.085906 15.307319 13.950586 15.55631 13.880859 15.611328 C 13.810889 15.666558 13.528158 15.743853 12.525391 15.84375 L 11.953125 15.900391 C 11.308341 15.96464 10.84403 16.00655 10.564453 16 C 10.284876 15.99345 10.24067 15.963688 10.193359 15.931641 C 10.14611 15.899632 10.106604 15.874532 10 15.621094 C 9.893396 15.367656 9.7632994 14.92324 9.5898438 14.304688 L 9.3203125 13.341797 C 9.1652614 12.788843 9.0575839 12.39185 9.0195312 12.150391 C 8.9814783 11.908931 8.99813 11.868838 9.015625 11.824219 C 9.033085 11.779709 9.050227 11.735679 9.2441406 11.582031 C 9.4380545 11.428381 9.7880507 11.206501 10.279297 10.902344 L 10.642578 10.677734 C 11.499803 10.146949 11.804769 10.011016 11.921875 10 z M 3.0488281 10.763672 L 7.0136719 12.205078 C 7.0209203 12.29172 7.0317335 12.377252 7.0449219 12.460938 C 7.1134739 12.895928 7.2394823 13.327913 7.3945312 13.880859 L 7.6640625 14.845703 C 7.804838 15.347716 7.9166953 15.761366 8.0546875 16.138672 L 5.9921875 19.853516 C 5.9025166 19.705342 5.8122638 19.529709 5.7167969 19.316406 C 5.4378676 18.693194 5.1467834 17.7784 4.7558594 16.533203 L 3.8476562 13.640625 C 3.4767813 12.459326 3.2069753 11.590469 3.0839844 10.955078 C 3.0710644 10.888332 3.0587927 10.824663 3.0488281 10.763672 z M 20.935547 10.855469 C 20.929736 10.887946 20.922599 10.921068 20.916016 10.955078 C 20.793036 11.590461 20.52324 12.459337 20.152344 13.640625 L 19.244141 16.533203 C 18.853245 17.778388 18.56214 18.693196 18.283203 19.316406 C 18.241096 19.410484 18.200531 19.497815 18.160156 19.578125 L 15.732422 16.457031 C 15.962014 16.050513 16.10763 15.572787 16.300781 15.005859 L 16.509766 14.396484 C 16.687956 13.873411 16.831393 13.462838 16.921875 13.046875 C 16.949715 12.918888 16.97141 12.785769 16.984375 12.650391 L 20.935547 10.855469 z M 14.128906 17.650391 L 16.603516 20.832031 C 16.448897 20.8653 16.273324 20.892887 16.070312 20.916016 C 15.379252 20.994745 14.406131 21 13.082031 21 L 10.917969 21 C 9.5938685 21 8.6207548 20.994746 7.9296875 20.916016 C 7.8524444 20.907216 7.7786085 20.896869 7.7089844 20.886719 L 9.4316406 17.783203 C 9.7807263 17.931895 10.158803 17.98964 10.517578 17.998047 C 11.004111 18.009447 11.505578 17.954877 12.150391 17.890625 L 12.724609 17.833984 C 13.261678 17.780483 13.718024 17.749324 14.128906 17.650391 z " fill="currentColor"/>
</svg>
