<svg xmlns="http://www.w3.org/2000/svg" width="1em" height="1em" viewBox="0 0 24 24" fill="currentColor">
  <path d="M 3 3 A 1 1 0 0 0 2 4 L 2 14 C 2 15.4142 1.99407 16.495558 2.1191406 17.425781 C 2.2442065 18.356004 2.5428648 19.199101 3.171875 19.828125 C 3.8008908 20.457155 4.6439898 20.75579 5.5742188 20.880859 C 6.5044479 21.005928 7.585785 21 9 21 L 21 21 A 1 1 0 0 0 22 20 A 1 1 0 0 0 21 19 L 9 19 C 7.585785 19 6.5454503 18.993043 5.8417969 18.898438 C 5.1381434 18.803832 4.8356017 18.663732 4.5859375 18.414062 C 4.3362677 18.164388 4.1961666 17.861855 4.1015625 17.158203 C 4.0069584 16.454551 4 15.4142 4 14 L 4 4 A 1 1 0 0 0 3 3 z M 20 6 A 1 1 0 0 0 19.292969 6.2929688 L 15.542969 10.042969 C 14.918997 10.666941 14.662663 10.845851 14.636719 10.859375 A 1.0001 1.0001 0 0 0 14.634766 10.859375 C 14.545806 10.884485 14.454193 10.884485 14.365234 10.859375 A 1.0001 1.0001 0 0 0 14.363281 10.859375 L 14.361328 10.859375 C 14.335383 10.845852 14.081003 10.666941 13.457031 10.042969 C 12.812924 9.3988612 12.42102 8.9240153 11.679688 8.7148438 A 1.0001 1.0001 0 0 0 11.677734 8.7148438 C 11.23404 8.58973 10.76596 8.5897299 10.322266 8.7148438 A 1.0001 1.0001 0 0 0 10.320312 8.7148438 C 9.5791882 8.9240091 9.1870534 9.3988338 8.5429688 10.042969 L 5.2929688 13.292969 A 1 1 0 0 0 5.2929688 14.707031 A 1 1 0 0 0 6.7070312 14.707031 L 9.9570312 11.457031 C 10.58092 10.833093 10.837179 10.654196 10.863281 10.640625 C 10.952391 10.615495 11.047613 10.615495 11.136719 10.640625 L 11.138672 10.640625 C 11.164753 10.654148 11.419004 10.833067 12.042969 11.457031 C 12.687069 12.101131 13.078821 12.576058 13.820312 12.785156 C 14.264154 12.910445 14.735846 12.910445 15.179688 12.785156 C 15.921178 12.576058 16.312931 12.101131 16.957031 11.457031 L 20.707031 7.7070312 A 1 1 0 0 0 20.707031 6.2929688 A 1 1 0 0 0 20 6 z " fill="currentColor"/>
</svg>
