<svg xmlns="http://www.w3.org/2000/svg" width="1em" height="1em" viewBox="0 0 24 24" fill="currentColor">
  <path d="M 4 2.0019531 A 1 1 0 0 0 3.2929688 2.2949219 A 1 1 0 0 0 3.2929688 3.7089844 C 7.1608095 7.5768614 11.057104 9.5340012 13.996094 10.513672 C 15.12916 10.891363 16.132503 11.125352 16.9375 11.269531 L 16.375 11.71875 A 1 1 0 0 0 16.21875 13.125 A 1 1 0 0 0 17.625 13.28125 L 20.125 11.28125 A 1.0001 1.0001 0 0 0 20.28125 9.875 L 18.28125 7.375 A 1 1 0 0 0 17.611328 7.0058594 A 1 1 0 0 0 16.875 7.21875 A 1 1 0 0 0 16.71875 8.625 L 17.259766 9.3027344 C 16.559403 9.1741541 15.669513 8.9621047 14.628906 8.6152344 C 11.942901 7.7198924 8.3391704 5.9270949 4.7070312 2.2949219 A 1 1 0 0 0 4 2.0019531 z M 5 8 C 4.53406 8 4.1942056 7.9618757 3.734375 8.1523438 C 3.2446532 8.3551836 2.8551836 8.7446532 2.6523438 9.234375 C 2.461856 9.694253 2.5 10.0341 2.5 10.5 L 2.5 19.5 C 2.5 19.9659 2.461909 20.305799 2.6523438 20.765625 C 2.8551868 21.255295 3.2446379 21.64479 3.734375 21.847656 C 4.1941649 22.038057 4.53406 22 5 22 C 5.46594 22 5.8058351 22.038057 6.265625 21.847656 C 6.7553621 21.64479 7.1448132 21.255295 7.3476562 20.765625 C 7.5380912 20.305799 7.5 19.9659 7.5 19.5 L 7.5 10.5 C 7.5 10.0341 7.5381439 9.694253 7.3476562 9.234375 C 7.1448163 8.7446532 6.7553468 8.3551836 6.265625 8.1523438 C 5.8057944 7.9618757 5.46594 8 5 8 z M 5 10 C 5.2604904 10 5.4150297 10.011768 5.484375 10.015625 C 5.488234 10.084981 5.5 10.239531 5.5 10.5 L 5.5 19.5 C 5.5 19.76054 5.4882252 19.915057 5.484375 19.984375 C 5.415051 19.988227 5.2605349 20 5 20 C 4.7394649 20 4.5849489 19.988227 4.515625 19.984375 C 4.5117747 19.915056 4.5 19.760538 4.5 19.5 L 4.5 10.5 C 4.5 10.239531 4.511766 10.084981 4.515625 10.015625 C 4.5849704 10.011768 4.7395098 10 5 10 z M 12 11.5 C 11.5341 11.5 11.19416 11.46198 10.734375 11.652344 C 10.24469 11.855213 9.8552132 12.24469 9.6523438 12.734375 C 9.4619756 13.19416 9.5 13.5341 9.5 14 L 9.5 19.5 C 9.5 19.9659 9.4619759 20.30584 9.6523438 20.765625 C 9.8552132 21.25531 10.24469 21.644787 10.734375 21.847656 C 11.19416 22.038024 11.5341 22 12 22 C 12.4659 22 12.80584 22.03802 13.265625 21.847656 C 13.75531 21.644787 14.144787 21.25531 14.347656 20.765625 C 14.538024 20.30584 14.5 19.9659 14.5 19.5 L 14.5 14 C 14.5 13.5341 14.53802 13.19416 14.347656 12.734375 C 14.144787 12.24469 13.75531 11.855213 13.265625 11.652344 C 12.80584 11.461976 12.4659 11.5 12 11.5 z M 12 13.5 C 12.260574 13.5 12.415075 13.511779 12.484375 13.515625 C 12.488221 13.584927 12.5 13.739429 12.5 14 L 12.5 19.5 C 12.5 19.760574 12.488221 19.915075 12.484375 19.984375 C 12.415073 19.988221 12.260571 20 12 20 C 11.739426 20 11.584925 19.988221 11.515625 19.984375 C 11.511779 19.915073 11.5 19.760571 11.5 19.5 L 11.5 14 C 11.5 13.739426 11.511779 13.584925 11.515625 13.515625 C 11.584927 13.511779 11.739429 13.5 12 13.5 z M 19 14 C 18.5341 14 18.19416 13.96198 17.734375 14.152344 C 17.24469 14.355213 16.855213 14.74469 16.652344 15.234375 C 16.461976 15.69416 16.5 16.0341 16.5 16.5 L 16.5 19.5 C 16.5 19.9659 16.46198 20.30584 16.652344 20.765625 C 16.855213 21.25531 17.24469 21.644787 17.734375 21.847656 C 18.19416 22.038024 18.5341 22 19 22 C 19.4659 22 19.80584 22.03802 20.265625 21.847656 C 20.75531 21.644787 21.144787 21.25531 21.347656 20.765625 C 21.538024 20.30584 21.5 19.9659 21.5 19.5 L 21.5 16.5 C 21.5 16.0341 21.53802 15.69416 21.347656 15.234375 C 21.144787 14.74469 20.75531 14.355213 20.265625 14.152344 C 19.80584 13.961976 19.4659 14 19 14 z M 19 16 C 19.260574 16 19.415075 16.011779 19.484375 16.015625 C 19.488221 16.084927 19.5 16.239429 19.5 16.5 L 19.5 19.5 C 19.5 19.760574 19.488221 19.915075 19.484375 19.984375 C 19.415073 19.988221 19.260571 20 19 20 C 18.739426 20 18.584925 19.988221 18.515625 19.984375 C 18.511779 19.915073 18.5 19.760571 18.5 19.5 L 18.5 16.5 C 18.5 16.239426 18.511779 16.084925 18.515625 16.015625 C 18.584927 16.011779 18.739429 16 19 16 z " fill="currentColor"/>
</svg>
