<svg xmlns="http://www.w3.org/2000/svg" width="1em" height="1em" viewBox="0 0 24 24" fill="currentColor">
  <path d="M 21 2 A 1 1 0 0 0 20.292969 2.2929688 L 13.792969 8.7929688 C 13.384103 9.2018742 13.219018 9.3279743 13.222656 9.3261719 C 13.082206 9.3957949 12.917794 9.3957949 12.777344 9.3261719 C 12.780944 9.3279719 12.615897 9.2018741 12.207031 8.7929688 C 11.798102 8.3839999 11.554235 8.1012725 11.109375 7.8808594 C 10.41067 7.5345709 9.5893336 7.5346185 8.890625 7.8808594 C 8.4457807 8.101295 8.2019088 8.3840287 7.7929688 8.7929688 L 2.2929688 14.292969 A 1 1 0 0 0 2.2929688 15.707031 A 1 1 0 0 0 3.7070312 15.707031 L 9.2070312 10.207031 C 9.6159712 9.7980916 9.781048 9.6719925 9.7773438 9.6738281 C 9.9179551 9.6041491 10.082161 9.6041971 10.222656 9.6738281 C 10.218956 9.6720181 10.384098 9.7981203 10.792969 10.207031 C 11.201903 10.616006 11.445787 10.898738 11.890625 11.119141 C 12.589374 11.465518 13.410626 11.465518 14.109375 11.119141 C 14.554213 10.898738 14.798097 10.616006 15.207031 10.207031 L 21.707031 3.7070312 A 1 1 0 0 0 21.707031 2.2929688 A 1 1 0 0 0 21 2 z M 21 8 A 1 1 0 0 0 20 9 L 20 21 A 1 1 0 0 0 21 22 A 1 1 0 0 0 22 21 L 22 9 A 1 1 0 0 0 21 8 z M 9 13 A 1 1 0 0 0 8 14 L 8 21 A 1 1 0 0 0 9 22 A 1 1 0 0 0 10 21 L 10 14 A 1 1 0 0 0 9 13 z M 15 14 A 1 1 0 0 0 14 15 L 14 21 A 1 1 0 0 0 15 22 A 1 1 0 0 0 16 21 L 16 15 A 1 1 0 0 0 15 14 z M 3 18 A 1 1 0 0 0 2 19 L 2 21 A 1 1 0 0 0 3 22 A 1 1 0 0 0 4 21 L 4 19 A 1 1 0 0 0 3 18 z " fill="currentColor"/>
</svg>
