<svg xmlns="http://www.w3.org/2000/svg" width="1em" height="1em" viewBox="0 0 24 24" fill="currentColor">
  <path d="M 12 1.5 C 10.506973 1.5 9.0668073 1.5319143 7.7128906 1.5898438 C 6.4926399 1.6420488 5.547451 1.6746618 4.6914062 1.8476562 C 3.8353615 2.0206507 3.0447115 2.3841836 2.4199219 3.0136719 C 1.7990748 3.6391879 1.4403022 4.4211969 1.2734375 5.2636719 C 1.1065728 6.1061468 1.0809275 7.0281081 1.0390625 8.2148438 C 1.0130097 8.9533186 1 9.7175683 1 10.5 C 1 11.282442 1.0130095 12.046672 1.0390625 12.785156 C 1.0809275 13.971907 1.1065735 14.893853 1.2734375 15.736328 C 1.440302 16.578803 1.7990928 17.360792 2.4199219 17.986328 C 3.0447191 18.615798 3.8353511 18.979361 4.6914062 19.152344 C 5.5474615 19.325326 6.4926056 19.357956 7.7128906 19.410156 C 8.4549573 19.441906 9.2234186 19.465529 10.011719 19.480469 C 10.75273 19.494469 11.009715 19.521847 11.111328 19.560547 C 11.218704 19.601437 11.416798 19.745005 11.964844 20.214844 L 14.144531 22.083984 C 14.457748 22.352457 14.856562 22.5 15.269531 22.5 C 16.213109 22.5 17 21.713109 17 20.769531 L 17 19.349609 C 17.841119 19.309949 18.654509 19.284529 19.308594 19.152344 C 20.16465 18.979343 20.955319 18.615877 21.580078 17.986328 C 22.200937 17.360839 22.559688 16.578802 22.726562 15.736328 C 22.893438 14.893854 22.919087 13.971914 22.960938 12.785156 C 22.986957 12.046738 23 11.282476 23 10.5 C 23 9.7175337 22.986959 8.9532535 22.960938 8.2148438 C 22.919087 7.0281017 22.893436 6.106153 22.726562 5.2636719 C 22.559689 4.4211907 22.200933 3.639183 21.580078 3.0136719 C 20.955316 2.3841593 20.164642 2.020651 19.308594 1.8476562 C 18.452545 1.6746617 17.50736 1.6420489 16.287109 1.5898438 C 14.933164 1.5319143 13.493027 1.5 12 1.5 z M 12 3.5 C 13.465173 3.5 14.877117 3.5312396 16.201172 3.5878906 C 17.421421 3.6400956 18.306558 3.6842676 18.912109 3.8066406 C 19.517661 3.9290135 19.819618 4.0787476 20.160156 4.421875 C 20.504701 4.7690039 20.649273 5.0649274 20.765625 5.6523438 C 20.881977 6.2397602 20.919088 7.0984282 20.960938 8.2851562 C 20.986117 8.999726 21 9.7408863 21 10.5 C 21 11.259124 20.986117 12.000262 20.960938 12.714844 C 20.919087 13.901586 20.881977 14.760255 20.765625 15.347656 C 20.649274 15.935058 20.504697 16.231014 20.160156 16.578125 C 19.819615 16.921277 19.517653 17.070985 18.912109 17.193359 C 18.306566 17.315734 17.421422 17.359909 16.201172 17.412109 C 16.122062 17.415509 16.040485 17.418575 15.958984 17.421875 A 1.0001 1.0001 0 0 0 15 18.421875 L 15 20.181641 L 13.265625 18.695312 C 12.717671 18.225552 12.368043 17.898514 11.824219 17.691406 C 11.274632 17.482104 10.790017 17.496424 10.048828 17.482422 C 9.2760481 17.467769 8.5245615 17.44316 7.7988281 17.412109 C 6.5785432 17.359909 5.693463 17.315727 5.0878906 17.193359 C 4.4823183 17.070992 4.1804265 16.921255 3.8398438 16.578125 C 3.4952927 16.230961 3.350723 15.935081 3.234375 15.347656 C 3.118027 14.760232 3.0809275 13.901593 3.0390625 12.714844 C 3.0138553 12.000328 3 11.259158 3 10.5 C 3 9.7408517 3.0138553 8.9996612 3.0390625 8.2851562 C 3.0809275 7.0984218 3.1180272 6.2397663 3.234375 5.6523438 C 3.3507228 5.0649212 3.4953108 4.7689989 3.8398438 4.421875 C 4.1804341 4.0787232 4.4823404 3.9290137 5.0878906 3.8066406 C 5.6934408 3.6842676 6.5785788 3.6400956 7.7988281 3.5878906 C 9.1228515 3.5312401 10.534827 3.5 12 3.5 z M 8 9.25 C 7.3216244 9.25 6.75 9.8215669 6.75 10.5 C 6.75 11.178433 7.3216244 11.75 8 11.75 C 8.6783756 11.75 9.25 11.178433 9.25 10.5 C 9.25 9.8215669 8.6783756 9.25 8 9.25 z M 12 9.25 C 11.32142 9.25 10.75 9.821229 10.75 10.5 C 10.75 11.178771 11.32142 11.75 12 11.75 C 12.678288 11.75 13.25 11.178288 13.25 10.5 C 13.25 9.8217117 12.678288 9.25 12 9.25 z M 16 9.25 C 15.321712 9.25 14.75 9.8217117 14.75 10.5 C 14.75 11.178288 15.321712 11.75 16 11.75 C 16.678288 11.75 17.25 11.178288 17.25 10.5 C 17.25 9.8217117 16.678288 9.25 16 9.25 z " fill="currentColor"/>
</svg>
