<svg xmlns="http://www.w3.org/2000/svg" width="1em" height="1em" viewBox="0 0 24 24" fill="currentColor">
  <path d="M 12 1.5 C 10.506973 1.5 9.0668073 1.5319143 7.7128906 1.5898438 C 6.4926399 1.6420488 5.547451 1.6746618 4.6914062 1.8476562 C 3.8353615 2.0206507 3.0447115 2.3841836 2.4199219 3.0136719 C 1.7990748 3.6391879 1.4403022 4.4211969 1.2734375 5.2636719 C 1.1065728 6.1061468 1.0809275 7.0281081 1.0390625 8.2148438 C 1.0130097 8.9533186 1 9.7175683 1 10.5 C 1 11.282442 1.0130095 12.046672 1.0390625 12.785156 C 1.0809275 13.971907 1.1065715 14.893861 1.2734375 15.736328 C 1.4403034 16.578796 1.7990708 17.360834 2.4199219 17.986328 C 3.0447074 18.615851 3.8353556 18.979343 4.6914062 19.152344 C 5.3454863 19.284528 6.1588846 19.309948 7 19.349609 L 7 20.769531 C 7 21.713093 7.7868975 22.5 8.7304688 22.5 C 9.1434451 22.5 9.542176 22.352521 9.8554688 22.083984 L 12.035156 20.214844 C 12.583202 19.745005 12.781296 19.601439 12.888672 19.560547 C 12.990285 19.521847 13.24727 19.494469 13.988281 19.480469 C 14.77654 19.465519 15.545041 19.441906 16.287109 19.410156 C 17.507409 19.357956 18.452537 19.325326 19.308594 19.152344 C 20.16465 18.979361 20.955312 18.615819 21.580078 17.986328 C 22.200915 17.360797 22.559689 16.57881 22.726562 15.736328 C 22.893436 14.893847 22.919087 13.971914 22.960938 12.785156 C 22.986957 12.046737 23 11.282476 23 10.5 C 23 9.7175337 22.986959 8.9532535 22.960938 8.2148438 C 22.919087 7.0281017 22.893436 6.106153 22.726562 5.2636719 C 22.559689 4.4211907 22.200933 3.639183 21.580078 3.0136719 C 20.955316 2.3841593 20.164642 2.020651 19.308594 1.8476562 C 18.452545 1.6746617 17.50736 1.6420489 16.287109 1.5898438 C 14.933164 1.5319143 13.493027 1.5 12 1.5 z M 12 3.5 C 13.465173 3.5 14.877117 3.5312396 16.201172 3.5878906 C 17.421421 3.6400956 18.306558 3.6842676 18.912109 3.8066406 C 19.517661 3.9290135 19.819618 4.0787476 20.160156 4.421875 C 20.504701 4.7690039 20.649273 5.0649274 20.765625 5.6523438 C 20.881977 6.2397602 20.919088 7.0984282 20.960938 8.2851562 C 20.986117 8.999726 21 9.7408863 21 10.5 C 21 11.259124 20.986117 12.000262 20.960938 12.714844 C 20.919087 13.901586 20.881977 14.760238 20.765625 15.347656 C 20.649273 15.935075 20.504719 16.230957 20.160156 16.578125 C 19.819622 16.921234 19.517678 17.070992 18.912109 17.193359 C 18.306541 17.315726 17.421472 17.359909 16.201172 17.412109 C 15.47544 17.443159 14.723913 17.467772 13.951172 17.482422 C 13.209983 17.496422 12.725368 17.482104 12.175781 17.691406 C 11.631957 17.898514 11.282329 18.225552 10.734375 18.695312 L 9 20.181641 L 9 18.421875 A 1.0001 1.0001 0 0 0 8.0410156 17.421875 C 7.9595376 17.418575 7.8780358 17.415609 7.7988281 17.412109 C 6.5785782 17.359909 5.6934299 17.315729 5.0878906 17.193359 C 4.4823513 17.071019 4.1804383 16.921302 3.8398438 16.578125 C 3.4953147 16.231019 3.3507216 15.935064 3.234375 15.347656 C 3.1180284 14.760249 3.0809275 13.901593 3.0390625 12.714844 C 3.0138553 12.000328 3 11.259158 3 10.5 C 3 9.7408517 3.0138553 8.9996612 3.0390625 8.2851562 C 3.0809275 7.0984218 3.1180272 6.2397663 3.234375 5.6523438 C 3.3507228 5.0649212 3.4953108 4.7689989 3.8398438 4.421875 C 4.1804341 4.0787232 4.4823404 3.9290137 5.0878906 3.8066406 C 5.6934408 3.6842676 6.5785788 3.6400956 7.7988281 3.5878906 C 9.1228515 3.5312401 10.534827 3.5 12 3.5 z M 12 6.5 C 8.3333333 6.5 6.1679687 9.9453125 6.1679688 9.9453125 A 1.0001 1.0001 0 0 0 6.1738281 11.0625 C 6.1738281 11.0625 8.3658443 14.5 12 14.5 C 15.634133 14.5 17.826172 11.0625 17.826172 11.0625 A 1.0001 1.0001 0 0 0 17.832031 9.9453125 C 17.83199 9.9453125 15.666667 6.5 12 6.5 z M 12 8.5 C 13.821926 8.5 15.060838 9.8113805 15.638672 10.494141 C 15.050962 11.176264 13.786308 12.5 12 12.5 C 10.213663 12.5 8.9490281 11.176262 8.3613281 10.494141 C 8.9391615 9.8113805 10.178074 8.5 12 8.5 z M 12 9.25 C 11.321712 9.25 10.75 9.8217117 10.75 10.5 C 10.75 11.178288 11.321712 11.75 12 11.75 C 12.678288 11.75 13.25 11.178288 13.25 10.5 C 13.25 9.8217117 12.678288 9.25 12 9.25 z " fill="currentColor"/>
</svg>
