<svg xmlns="http://www.w3.org/2000/svg" width="1em" height="1em" viewBox="0 0 24 24" fill="currentColor">
  <path d="M 12 1.5 C 10.506973 1.5 9.0668073 1.5319143 7.7128906 1.5898438 C 6.4926399 1.6420488 5.547451 1.6746618 4.6914062 1.8476562 C 3.8353615 2.0206507 3.0447115 2.3841836 2.4199219 3.0136719 C 1.7990748 3.6391879 1.4403022 4.4211969 1.2734375 5.2636719 C 1.1065728 6.1061468 1.0809275 7.0281081 1.0390625 8.2148438 C 1.0130097 8.9533186 1 9.7175683 1 10.5 C 1 11.282442 1.0130095 12.046672 1.0390625 12.785156 C 1.0809275 13.971907 1.1065715 14.893861 1.2734375 15.736328 C 1.4403034 16.578796 1.7990708 17.360834 2.4199219 17.986328 C 3.0447074 18.615851 3.8353556 18.979343 4.6914062 19.152344 C 5.3454863 19.284528 6.1588846 19.309948 7 19.349609 L 7 20.769531 C 7 21.713093 7.7868975 22.5 8.7304688 22.5 C 9.1434451 22.5 9.542176 22.352521 9.8554688 22.083984 L 12.035156 20.214844 C 12.583202 19.745005 12.781296 19.601439 12.888672 19.560547 C 12.990285 19.521847 13.24727 19.494469 13.988281 19.480469 C 14.77654 19.465519 15.545041 19.441906 16.287109 19.410156 C 17.507409 19.357956 18.452537 19.325326 19.308594 19.152344 C 20.16465 18.979361 20.955312 18.615819 21.580078 17.986328 C 22.200915 17.360797 22.559689 16.57881 22.726562 15.736328 C 22.893436 14.893847 22.919087 13.971914 22.960938 12.785156 C 22.986957 12.046737 23 11.282476 23 10.5 C 23 9.7175337 22.986959 8.9532535 22.960938 8.2148438 C 22.919087 7.0281017 22.893436 6.106153 22.726562 5.2636719 C 22.559689 4.4211907 22.200933 3.639183 21.580078 3.0136719 C 20.955316 2.3841593 20.164642 2.020651 19.308594 1.8476562 C 18.452545 1.6746617 17.50736 1.6420489 16.287109 1.5898438 C 14.933164 1.5319143 13.493027 1.5 12 1.5 z M 12 3.5 C 13.465173 3.5 14.877117 3.5312396 16.201172 3.5878906 C 17.421421 3.6400956 18.306558 3.6842676 18.912109 3.8066406 C 19.517661 3.9290135 19.819618 4.0787476 20.160156 4.421875 C 20.504701 4.7690039 20.649273 5.0649274 20.765625 5.6523438 C 20.881977 6.2397602 20.919088 7.0984282 20.960938 8.2851562 C 20.986117 8.999726 21 9.7408863 21 10.5 C 21 11.259124 20.986117 12.000262 20.960938 12.714844 C 20.919087 13.901586 20.881977 14.760238 20.765625 15.347656 C 20.649273 15.935075 20.504719 16.230957 20.160156 16.578125 C 19.819622 16.921234 19.517678 17.070992 18.912109 17.193359 C 18.306541 17.315726 17.421472 17.359909 16.201172 17.412109 C 15.47544 17.443159 14.723913 17.467772 13.951172 17.482422 C 13.209983 17.496422 12.725368 17.482104 12.175781 17.691406 C 11.631957 17.898514 11.282329 18.225552 10.734375 18.695312 L 9 20.181641 L 9 18.421875 A 1.0001 1.0001 0 0 0 8.0410156 17.421875 C 7.9595376 17.418575 7.8780358 17.415609 7.7988281 17.412109 C 6.5785782 17.359909 5.6934299 17.315729 5.0878906 17.193359 C 4.4823513 17.071019 4.1804383 16.921302 3.8398438 16.578125 C 3.4953147 16.231019 3.3507216 15.935064 3.234375 15.347656 C 3.1180284 14.760249 3.0809275 13.901593 3.0390625 12.714844 C 3.0138553 12.000328 3 11.259158 3 10.5 C 3 9.7408517 3.0138553 8.9996612 3.0390625 8.2851562 C 3.0809275 7.0984218 3.1180272 6.2397663 3.234375 5.6523438 C 3.3507228 5.0649212 3.4953108 4.7689989 3.8398438 4.421875 C 4.1804341 4.0787232 4.4823404 3.9290137 5.0878906 3.8066406 C 5.6934408 3.6842676 6.5785788 3.6400956 7.7988281 3.5878906 C 9.1228515 3.5312401 10.534827 3.5 12 3.5 z M 12 5.5 C 10.875553 5.5 9.8243823 5.7521476 8.9355469 6.2070312 C 8.5746538 6.3917179 8.10172 6.6798678 7.8183594 7.1503906 C 7.4963642 7.6851154 7.5 8.2365681 7.5 8.7988281 L 7.5 10.195312 C 7.5 11.591022 8.0633055 12.72795 8.75 13.533203 C 9.4366945 14.338456 10.236742 14.848328 10.822266 15.158203 C 11.107608 15.309226 11.539329 15.5 12 15.5 C 12.460671 15.5 12.892392 15.309226 13.177734 15.158203 C 13.763258 14.848328 14.563306 14.338456 15.25 13.533203 C 15.936694 12.72795 16.5 11.591022 16.5 10.195312 L 16.5 8.7988281 C 16.5 8.2365581 16.5036 7.6851042 16.181641 7.1503906 C 15.898272 6.6799896 15.4254 6.391735 15.064453 6.2070312 C 14.175613 5.7521512 13.124447 5.5 12 5.5 z M 12 7.5 C 12.820753 7.5 13.571337 7.6899413 14.154297 7.9882812 C 14.368553 8.0979209 14.4186 8.1090105 14.435547 8.1210938 L 14.4375 8.1230469 L 14.439453 8.125 C 14.445127 8.1332847 14.44799 8.1471783 14.46875 8.1816406 C 14.49643 8.2276266 14.5 8.2365586 14.5 8.7988281 L 14.5 10.195312 C 14.5 11.073002 14.180821 11.703978 13.728516 12.234375 C 13.27621 12.764772 12.679663 13.157147 12.242188 13.388672 A 1.0001 1.0001 0 0 0 12.242188 13.390625 C 12.08173 13.475523 12.057301 13.501127 12.048828 13.505859 L 12.046875 13.505859 L 12.044922 13.505859 C 12.040599 13.504879 12.032603 13.5 12 13.5 C 11.967397 13.5 11.957448 13.504881 11.953125 13.505859 L 11.951172 13.505859 L 11.951172 13.503906 C 11.942699 13.499169 11.91827 13.475548 11.757812 13.390625 A 1.0001 1.0001 0 0 0 11.757812 13.388672 C 11.320335 13.157194 10.72379 12.764772 10.271484 12.234375 C 9.8191792 11.703978 9.5 11.073003 9.5 10.195312 L 9.5 8.7988281 C 9.5 8.2365681 9.50357 8.2276158 9.53125 8.1816406 C 9.5519811 8.1472165 9.5568288 8.1313282 9.5625 8.1230469 L 9.5644531 8.1210938 L 9.5664062 8.1191406 C 9.5833577 8.1070512 9.6314384 8.0979311 9.8457031 7.9882812 C 10.428648 7.689945 11.179247 7.5 12 7.5 z " fill="currentColor"/>
</svg>
