<svg xmlns="http://www.w3.org/2000/svg" width="1em" height="1em" viewBox="0 0 24 24" fill="currentColor">
  <path d="M 15.052734 2 A 1 1 0 0 0 14.792969 2.0292969 C 13.214996 2.4238148 12.417775 3.3041882 11.960938 4.1171875 C 10.378542 4.3932622 9.1261433 5.6858082 9.0390625 7.3183594 C 6.389714 8.3238786 4.495798 9.0738211 3.2226562 9.6953125 C 2.5368783 10.030079 2.0331591 10.312439 1.6289062 10.671875 C 1.4267798 10.851593 1.2352238 11.056692 1.1054688 11.375 C 1.0368439 11.543347 1.0050483 11.751169 1.0136719 11.958984 A 1 1 0 0 0 1.0371094 12.212891 L 2.0136719 16.519531 C 2.2628593 17.644038 2.4498643 18.507385 2.7109375 19.248047 C 2.9724064 19.989831 3.3442262 20.646048 3.9335938 21.119141 C 4.5229761 21.59224 5.2446471 21.815367 6.0253906 21.910156 C 6.8061342 22.004945 7.6915131 22 8.8457031 22 L 17.423828 22 C 18.285028 22 18.950573 22.006404 19.560547 21.927734 C 20.170521 21.849064 20.779036 21.649532 21.25 21.222656 C 21.721012 20.795812 21.979071 20.210649 22.117188 19.611328 C 22.255056 19.013092 22.314133 18.349012 22.398438 17.494141 L 22.398438 17.490234 L 22.988281 11.736328 A 1 1 0 0 0 22.992188 11.671875 C 22.995607 11.629291 22.998047 11.586063 22.998047 11.542969 A 1.0001 1.0001 0 0 0 22.998047 11.507812 C 22.962892 10.468571 22.732023 9.5015437 22.191406 8.6132812 C 21.650789 7.7250186 20.847947 6.9345338 19.720703 6.0410156 C 18.829878 5.3349103 17.702095 4.9827332 16.5625 5.0742188 C 16.022573 5.1175613 15.574672 5.1753218 15.191406 5.2949219 C 14.92932 4.9954371 14.617357 4.7379563 14.271484 4.5332031 C 14.545717 4.3184384 14.813099 4.0867716 15.277344 3.9707031 A 1 1 0 0 0 16.003906 2.7578125 A 1 1 0 0 0 15.052734 2 z M 12.535156 6 C 13.375271 6 14.035156 6.6596883 14.035156 7.5 C 14.035156 8.3403117 13.375271 9 12.535156 9 C 11.695041 9 11.035156 8.34036 11.035156 7.5 C 11.035156 6.65964 11.695041 6 12.535156 6 z M 16.957031 7.0605469 C 17.502705 7.0695805 18.040338 7.2620571 18.478516 7.609375 C 19.513972 8.4301368 20.129914 9.0731537 20.482422 9.6523438 C 20.822335 10.21084 20.952401 10.740366 20.986328 11.503906 C 20.98305 11.505318 20.978513 11.50612 20.974609 11.507812 C 20.816476 11.576403 20.381888 11.653718 19.869141 11.669922 C 19.356393 11.686122 18.764249 11.663309 18.195312 11.662109 C 17.626378 11.660909 17.104006 11.648879 16.53125 11.847656 C 16.114366 11.992299 15.824969 12.320554 15.677734 12.585938 C 15.530501 12.851309 15.47492 13.078124 15.431641 13.25 C 15.249149 13.974909 15.078563 14.506696 14.933594 14.785156 C 14.904911 14.840246 14.892261 14.841141 14.880859 14.847656 C 14.876551 14.850728 14.871417 14.855504 14.865234 14.865234 C 14.813404 14.685172 14.752686 14.466786 14.611328 13.853516 C 14.253143 12.298706 12.711996 11.549872 11.333984 11.601562 C 8.5420633 11.706251 6.1114646 11.677048 4.2832031 11.419922 C 5.394698 10.887145 7.0994073 10.197486 9.5234375 9.2734375 C 10.135346 10.303262 11.259846 11 12.535156 11 C 14.456241 11 16.035156 9.4211083 16.035156 7.5 C 16.035156 7.3835613 16.029403 7.2691755 16.017578 7.15625 C 16.176412 7.1261069 16.402564 7.0940546 16.722656 7.0683594 C 16.800657 7.0620975 16.879078 7.0592564 16.957031 7.0605469 z M 3.3828125 13.513672 C 5.6671318 13.964135 8.5157892 13.710022 11.408203 13.601562 C 12.077591 13.576453 12.558046 13.842544 12.664062 14.302734 C 12.808143 14.927815 12.772622 15.67944 13.394531 16.4375 C 13.862171 17.007546 14.580272 17.162907 15.203125 17 C 15.887938 16.820848 16.4109 16.2778 16.707031 15.708984 C 17.003162 15.140169 17.178285 14.504172 17.371094 13.738281 C 17.373594 13.728271 17.3725 13.731986 17.375 13.722656 C 17.527736 13.698186 17.77433 13.661209 18.191406 13.662109 C 18.704261 13.663209 19.319029 13.689352 19.933594 13.669922 C 20.2181 13.660932 20.503156 13.646051 20.787109 13.607422 L 20.541016 16 L 18.5625 16 A 1 1 0 0 0 17.5625 17 A 1 1 0 0 0 18.5625 18 L 20.335938 18 C 20.281663 18.502968 20.230575 18.890448 20.167969 19.162109 C 20.078709 19.549413 20.006838 19.649079 19.90625 19.740234 C 19.805714 19.831354 19.698838 19.892527 19.304688 19.943359 C 18.910538 19.994198 18.285028 20 17.423828 20 L 8.8457031 20 C 7.6915131 20 6.8447514 19.994139 6.265625 19.923828 C 5.6864986 19.853517 5.4188845 19.747848 5.1855469 19.560547 C 4.9522043 19.37324 4.7896642 19.13425 4.5957031 18.583984 C 4.5362655 18.415361 4.4781239 18.220966 4.4179688 18 L 11.050781 18 A 1 1 0 0 0 12.050781 17 A 1 1 0 0 0 11.050781 16 L 3.9453125 16 L 3.3828125 13.513672 z " fill="currentColor"/>
</svg>
