<svg xmlns="http://www.w3.org/2000/svg" width="1em" height="1em" viewBox="0 0 24 24" fill="currentColor">
  <path d="M 15.595703 2.0078125 C 15.286136 2.0177074 14.98874 2.0637253 14.710938 2.1386719 C 13.97013 2.3385295 13.356353 2.698997 12.787109 3.0351562 C 12.298697 3.3235183 12.058088 3.9599129 12.044922 4.3183594 C 12.031752 4.6768059 12.078125 4.889046 12.078125 4.9101562 C 12.078125 5.4907913 11.633486 5.9355469 11.0625 5.9355469 C 10.811021 5.9355469 10.591495 5.8494769 10.414062 5.7011719 C 9.8751531 5.2506631 9.3754027 5.3483851 8.96875 5.4238281 C 8.5620973 5.4992711 8.1588447 5.6442933 7.71875 5.8320312 C 6.8385606 6.2075072 5.8349037 6.7671351 4.8671875 7.3886719 C 3.8994713 8.0102087 2.9773928 8.6857031 2.2773438 9.3164062 C 1.9393486 9.6209199 1.654845 9.9100706 1.4238281 10.222656 A 1 1 0 0 0 1 11.039062 C 0.97894019 11.162515 0.97581517 11.29863 1 11.451172 L 1 14.542969 C 1 16.152919 0.994171 17.379039 1.1328125 18.414062 C 1.2714536 19.449088 1.5972359 20.367366 2.3007812 21.029297 A 1.0001 1.0001 0 0 0 2.3027344 21.029297 C 3.0063183 21.691186 3.9489253 21.951237 4.9667969 21.992188 C 5.9846684 22.033137 7.1601567 21.904337 8.7011719 21.744141 L 12.677734 21.330078 C 13.416033 21.253188 13.889991 20.687181 14.035156 20.111328 C 14.154506 19.63808 14.543638 19.316406 15 19.316406 C 15.385877 19.316406 15.718745 19.542777 15.890625 19.902344 C 16.148793 20.442629 16.731739 20.910794 17.480469 20.830078 C 18.521556 20.717683 19.347937 20.615932 20.082031 20.408203 C 20.816126 20.200474 21.486015 19.848872 21.978516 19.283203 C 22.529476 18.650266 22.784699 17.848828 22.894531 16.962891 C 23.004364 16.076953 23 15.052237 23 13.710938 L 23 10 A 1 1 0 0 0 22.974609 9.7773438 C 22.989283 9.6717833 22.997963 9.5643733 23 9.4570312 C 23.013306 8.7558526 22.805721 8.0344384 22.427734 7.2324219 C 21.383082 5.0159012 19.514355 3.2542986 17.205078 2.3007812 C 16.660809 2.0760402 16.111648 1.991321 15.595703 2.0078125 z M 15.667969 3.9960938 C 15.904298 3.9844328 16.142676 4.0270379 16.441406 4.1503906 C 18.29873 4.9172932 19.793193 6.3334582 20.619141 8.0859375 C 20.914154 8.7119009 21.004866 9.1635241 21 9.4199219 C 20.9951 9.6763196 20.95146 9.741408 20.832031 9.8574219 C 20.593176 10.08945 19.709409 10.381877 18.427734 10.435547 L 6.8886719 10.917969 C 5.3253622 10.983419 4.1573855 11.026281 3.4550781 10.976562 L 3.453125 10.976562 L 3.4511719 10.976562 C 3.5188939 10.910053 3.5373409 10.874672 3.6171875 10.802734 C 4.1917131 10.285128 5.0533412 9.6476626 5.9492188 9.0722656 C 6.8450963 8.4968687 7.7846641 7.97786 8.5019531 7.671875 C 8.8605976 7.5188825 9.1687651 7.4212768 9.3339844 7.390625 C 9.8235647 7.7330652 10.424812 7.9355469 11.0625 7.9355469 C 12.719114 7.9355469 14.078125 6.5669214 14.078125 4.9101562 C 14.078125 4.7337749 14.067894 4.7223765 14.058594 4.6347656 C 14.487015 4.3915113 14.898368 4.1604348 15.232422 4.0703125 C 15.384829 4.0291957 15.526171 4.0030903 15.667969 3.9960938 z M 16 6.75 C 15.321567 6.75 14.75 7.3216244 14.75 8 C 14.75 8.6783756 15.321567 9.25 16 9.25 C 16.678433 9.25 17.25 8.6783756 17.25 8 C 17.25 7.3216244 16.678433 6.75 16 6.75 z M 9.3925781 7.3847656 C 9.4055481 7.3853581 9.4155968 7.3885525 9.4199219 7.390625 L 9.421875 7.3925781 L 9.421875 7.3945312 L 9.4199219 7.3945312 L 9.4179688 7.3945312 L 9.4160156 7.3964844 L 9.4140625 7.3964844 C 9.4059567 7.3966414 9.3907633 7.3942686 9.3691406 7.3867188 C 9.3777864 7.3861388 9.3860931 7.3844694 9.3925781 7.3847656 z M 21 12.046875 L 21 13.710938 C 21 15.052238 20.994196 16.038684 20.910156 16.716797 C 20.826086 17.39491 20.695343 17.710687 20.470703 17.96875 C 20.269904 18.199381 20.042718 18.341854 19.539062 18.484375 C 19.085162 18.612817 18.360377 18.708058 17.490234 18.806641 C 16.963126 17.946155 16.072826 17.316406 15 17.316406 C 13.709437 17.316406 12.685221 18.205625 12.261719 19.363281 L 8.4941406 19.753906 C 6.9531258 19.914106 5.8167734 20.025115 5.046875 19.994141 C 4.2769766 19.963166 3.955281 19.838877 3.671875 19.572266 C 3.3884403 19.305596 3.2233383 18.955488 3.1152344 18.148438 C 3.0071304 17.341387 3 16.152919 3 14.542969 L 3 12.945312 C 3.1013048 12.956416 3.2051999 12.965061 3.3125 12.972656 C 4.2305401 13.037646 5.4073828 12.981456 6.9707031 12.916016 L 18.511719 12.433594 C 19.414628 12.395785 20.262326 12.317016 21 12.046875 z M 8.5 13.710938 C 7.1311099 13.710938 6 14.842083 6 16.210938 C 6 17.579829 7.1311904 18.710938 8.5 18.710938 C 9.8688096 18.710938 11 17.579829 11 16.210938 C 11 14.842083 9.8688901 13.710937 8.5 13.710938 z M 17 13.75 C 16.321712 13.75 15.75 14.321712 15.75 15 C 15.75 15.678288 16.321712 16.25 17 16.25 C 17.678288 16.25 18.25 15.678288 18.25 15 C 18.25 14.321712 17.678288 13.75 17 13.75 z M 8.5 15.710938 C 8.7879699 15.710938 9 15.922994 9 16.210938 C 9 16.499047 8.7880504 16.710938 8.5 16.710938 C 8.2119496 16.710938 8 16.499047 8 16.210938 C 8 15.922994 8.2120301 15.710937 8.5 15.710938 z " fill="currentColor"/>
</svg>
