<svg xmlns="http://www.w3.org/2000/svg" width="1em" height="1em" viewBox="0 0 24 24" fill="currentColor">
  <path d="M 12 2 C 10.179982 2 8.7395777 3.101238 7.8652344 4.5664062 C 7.265921 4.3132884 6.6872888 4 6 4 C 3.2504204 4 1 6.2504204 1 9 C 1 11.407364 2.725131 13.431755 5 13.898438 L 5 17.478516 L 5 19.949219 C 4.8931005 19.982375 4.7876176 20.016076 4.6835938 20.050781 A 1 1 0 0 0 4.0507812 21.316406 A 1 1 0 0 0 5.3164062 21.949219 C 7.0477619 21.371593 9.4098939 21 12 21 C 14.590106 21 16.952187 21.371588 18.683594 21.949219 A 1 1 0 0 0 19.949219 21.316406 A 1 1 0 0 0 19.316406 20.050781 C 19.212382 20.016077 19.106899 19.982375 19 19.949219 L 19 17.478516 L 19 13.898438 C 21.27485 13.431753 23 11.407372 23 9 C 23 6.2504084 20.749549 4 18 4 C 17.312721 4 16.734074 4.3132921 16.134766 4.5664062 C 15.260423 3.1012323 13.820018 2 12 2 z M 12 4 C 13.317955 4 14.423066 4.840351 14.832031 6.0058594 C 14.940863 6.3159962 15 6.6492262 15 7 C 15 7.2607359 14.9678 7.510672 14.90625 7.75 A 1 1 0 0 0 15.625 8.96875 A 1 1 0 0 0 16.841797 8.25 C 16.944646 7.850088 17 7.4298641 17 7 C 17 6.768925 16.917333 6.5615624 16.886719 6.3378906 C 17.243026 6.1876733 17.584899 6 18 6 C 19.668651 6 21 7.3313116 21 9 C 21 10.322279 20.163713 11.4319 18.986328 11.835938 A 1 1 0 0 0 18 11 A 1 1 0 0 0 17 12 L 17 13 L 17 16.123047 C 15.522618 15.721909 13.819458 15.5 12 15.5 C 10.180549 15.5 8.4773954 15.721907 7 16.123047 L 7 13 L 7 12 A 1 1 0 0 0 6 11 A 1 1 0 0 0 5.0136719 11.835938 C 3.8362657 11.431908 3 10.322296 3 9 C 3 7.3312996 4.3312996 6 6 6 C 6.6219078 6 7.1906298 6.1858373 7.6679688 6.5058594 C 8.0490358 6.761335 8.3694278 7.1020816 8.5996094 7.5 A 1 1 0 0 0 9.9648438 7.8652344 A 1 1 0 0 0 10.330078 6.5 C 10.119086 6.1352556 9.7710786 5.8884088 9.4785156 5.5898438 C 9.9917866 4.6821209 10.872391 4 12 4 z M 12 17.5 C 13.885959 17.5 15.626727 17.771238 17 18.207031 L 17 19.453125 C 15.486699 19.160326 13.7931 19 12 19 C 10.206905 19 8.5132989 19.160327 7 19.453125 L 7 18.207031 C 8.3733079 17.77123 10.11405 17.5 12 17.5 z " fill="currentColor"/>
</svg>
