<svg xmlns="http://www.w3.org/2000/svg" width="1em" height="1em" viewBox="0 0 24 24" fill="currentColor">
  <path d="M 12 1 A 1 1 0 0 0 11 2 L 11 3 L 10 3 A 1 1 0 0 0 9 4 A 1 1 0 0 0 10 5 L 11 5 L 11 7.1289062 C 9.9438784 6.3747313 8.9369047 6 8 6 C 5.0934742 6 3 8.6091403 3 11.583984 C 3 13.745523 4.1059367 15.727639 5.4726562 17.423828 C 4.5938007 17.949611 4 18.910851 4 20 C 4 20.465 3.9822135 20.759472 4.0859375 21.146484 C 4.3166751 22.007716 4.992356 22.683318 5.8535156 22.914062 C 6.2404465 23.017717 6.53501 23 7 23 L 17 23 C 17.465 23 17.759503 23.017763 18.146484 22.914062 C 19.007693 22.683332 19.683332 22.007693 19.914062 21.146484 C 20.017758 20.759505 20 20.465 20 20 C 20 18.910867 19.406194 17.949616 18.527344 17.423828 C 19.894087 15.72763 21 13.74552 21 11.583984 C 21 8.609143 18.906533 6 16 6 C 15.063095 6 14.056122 6.3747313 13 7.1289062 L 13 5 L 14 5 A 1 1 0 0 0 15 4 A 1 1 0 0 0 14 3 L 13 3 L 13 2 A 1 1 0 0 0 12 1 z M 8 8 C 8.9549 8 9.7711778 8.2351342 11.259766 9.8769531 A 1.0001 1.0001 0 0 0 12.740234 9.8769531 C 14.228822 8.2351342 15.0451 8 16 8 C 17.725067 8 19 9.4962866 19 11.583984 C 19 13.286883 17.742064 15.284798 16.203125 17 L 7.796875 17 C 6.2579716 15.284787 5 13.286872 5 11.583984 C 5 9.4962892 6.2749458 8 8 8 z M 7 19 L 17 19 C 17.564193 19 18 19.435807 18 20 C 18 20.465 17.980932 20.634488 17.982422 20.628906 C 17.935752 20.803098 17.803098 20.935753 17.628906 20.982422 C 17.63449 20.980926 17.465 21 17 21 L 7 21 C 6.53501 21 6.3656634 20.980967 6.3710938 20.982422 C 6.1969733 20.935767 6.0642405 20.803074 6.0175781 20.628906 C 6.0190822 20.634518 6 20.465 6 20 C 6 19.435825 6.4358515 19 7 19 z " fill="currentColor"/>
</svg>
