<svg xmlns="http://www.w3.org/2000/svg" width="1em" height="1em" viewBox="0 0 24 24" fill="currentColor">
  <path d="M 12 1 C 10.35499 1 9 2.3549904 9 4 C 9 4.434812 9.0940032 4.8499893 9.2636719 5.2246094 C 7.1405936 7.4518881 5 10.411688 5 13.693359 C 5 15.038332 5.4659638 16.206716 6.1757812 17.117188 C 4.9261583 17.479488 4 18.640601 4 20 C 4 20.465 3.9822135 20.759472 4.0859375 21.146484 C 4.3166751 22.007716 4.992356 22.683318 5.8535156 22.914062 C 6.2404465 23.017717 6.53501 23 7 23 L 17 23 C 17.465 23 17.759503 23.017763 18.146484 22.914062 C 19.007693 22.683332 19.683332 22.007693 19.914062 21.146484 C 20.017758 20.759505 20 20.465 20 20 C 20 18.640614 19.073849 17.47949 17.824219 17.117188 C 18.534036 16.206716 19 15.038332 19 13.693359 C 19 10.411537 16.859247 7.4498746 14.736328 5.2226562 C 14.905615 4.8483884 15 4.4342927 15 4 C 15 2.3549904 13.64501 1 12 1 z M 12 3 C 12.564129 3 13 3.4358706 13 4 C 13 4.5641294 12.564129 5 12 5 C 11.435871 5 11 4.5641294 11 4 C 11 3.4358706 11.435871 3 12 3 z M 10.646484 6.6738281 C 11.05402 6.8824219 11.5146 7 12 7 C 12.484922 7 12.944324 6.8820385 13.351562 6.6738281 C 13.917832 7.2796108 14.46865 7.9371353 14.962891 8.6230469 L 13.292969 10.292969 A 1 1 0 0 0 13.292969 11.707031 A 1 1 0 0 0 14.707031 11.707031 L 16.048828 10.365234 C 16.632498 11.482078 17 12.620967 17 13.693359 C 17 15.30736 15.870859 16.547749 14.810547 17 L 9.1894531 17 C 8.1291415 16.547749 7 15.30736 7 13.693359 C 7 11.366168 8.7313787 8.7234193 10.646484 6.6738281 z M 7 19 L 17 19 C 17.564193 19 18 19.435807 18 20 C 18 20.465 17.980932 20.634488 17.982422 20.628906 C 17.935752 20.803098 17.803098 20.935753 17.628906 20.982422 C 17.63449 20.980926 17.465 21 17 21 L 7 21 C 6.53501 21 6.3656634 20.980967 6.3710938 20.982422 C 6.1969733 20.935767 6.0642405 20.803074 6.0175781 20.628906 C 6.0190822 20.634518 6 20.465 6 20 C 6 19.435825 6.4358515 19 7 19 z " fill="currentColor"/>
</svg>
