<svg xmlns="http://www.w3.org/2000/svg" width="1em" height="1em" viewBox="0 0 24 24" fill="currentColor">
  <path d="M 11.65625 1 C 10.98405 1 10.603908 0.97601945 10.138672 1.0996094 C 9.5274012 1.2620175 9.1555547 1.5470052 8.171875 2.109375 C 7.3525975 2.5777568 6.2287997 3 5 3 A 1.0001 1.0001 0 0 0 4.1054688 4.4472656 L 4.2773438 4.7890625 C 4.6598349 5.5540371 5.2691906 6.1601197 6 6.5429688 L 6 9.5449219 C 5.2895966 10.095603 3.7245064 11 2 11 A 1.0001 1.0001 0 0 0 1.1054688 12.447266 L 1.2773438 12.789062 C 1.8240293 13.882476 2.834183 14.652849 4 14.908203 L 4 21 L 3 21 A 1 1 0 0 0 2 22 A 1 1 0 0 0 3 23 L 10 23 L 14 23 L 21 23 A 1 1 0 0 0 22 22 A 1 1 0 0 0 21 21 L 20 21 L 20 14.908203 C 21.165808 14.652846 22.175954 13.882467 22.722656 12.789062 L 22.894531 12.447266 A 1.0001 1.0001 0 0 0 22 11 C 20.275476 11 18.71042 10.09562 18 9.5449219 L 18 6.5429688 C 18.730802 6.1601178 19.340155 5.5540284 19.722656 4.7890625 A 1.0001 1.0001 0 0 0 19.724609 4.7890625 L 19.894531 4.4472656 A 1.0001 1.0001 0 0 0 19 3 C 17.771235 3 16.647408 2.5777552 15.828125 2.109375 C 14.844435 1.547011 14.472618 1.2620225 13.861328 1.0996094 C 13.396092 0.97601944 13.01595 1 12.34375 1 L 11.65625 1 z M 11.65625 3 L 12.34375 3 C 12.977402 3 13.272893 3.0201337 13.337891 3.03125 C 13.289919 3.0274742 13.89135 3.3056938 14.835938 3.8457031 C 15.462981 4.2041806 16.263668 4.5012428 17.138672 4.71875 C 16.840775 4.8904517 16.505035 5 16.146484 5 L 7.8535156 5 C 7.4949592 5 7.1592192 4.8904495 6.8613281 4.71875 C 7.736331 4.5012418 8.5370275 4.2041797 9.1640625 3.8457031 C 10.108635 3.3056912 10.710083 3.02747 10.662109 3.03125 C 10.727098 3.0201337 11.022584 3 11.65625 3 z M 8 7 L 16 7 L 16 9 L 8 9 L 8 7 z M 7.28125 11 L 16.71875 11 C 17.450016 11.6373 18.699644 12.232493 20.283203 12.607422 C 19.951535 12.842884 19.570479 13 19.146484 13 L 4.8535156 13 C 4.429514 13 4.048457 12.842881 3.7167969 12.607422 C 5.300359 12.232498 6.5499798 11.637321 7.28125 11 z M 6 15 L 18 15 L 18 21 L 15 21 L 15 19 C 15 17.354993 13.645007 16 12 16 C 10.354993 16 9 17.354993 9 19 L 9 21 L 6 21 L 6 15 z M 12 18 C 12.564193 18 13 18.435807 13 19 L 13 21 L 11 21 L 11 19 C 11 18.435807 11.435807 18 12 18 z " fill="currentColor"/>
</svg>
