<svg xmlns="http://www.w3.org/2000/svg" width="1em" height="1em" viewBox="0 0 24 24" fill="currentColor">
  <path d="M 8 1 A 1 1 0 0 0 7 2 L 7 3.234375 C 6.0006032 3.4263266 5.1354351 3.7942582 4.4648438 4.4648438 C 3.7942582 5.1354351 3.4263266 6.0006032 3.234375 7 L 2 7 A 1 1 0 0 0 1 8 A 1 1 0 0 0 2 9 L 3.0332031 9 C 3.0085839 9.6033703 3.0016544 10.26432 3 11 L 2 11 A 1 1 0 0 0 1 12 A 1 1 0 0 0 2 13 L 3 13 C 3.0016541 13.735676 3.0085838 14.396627 3.0332031 15 L 2 15 A 1 1 0 0 0 1 16 A 1 1 0 0 0 2 17 L 3.234375 17 C 3.426321 17.999406 3.7942329 18.864585 4.4648438 19.535156 C 5.1354332 20.205757 6.0006012 20.573674 7 20.765625 L 7 22 A 1 1 0 0 0 8 23 A 1 1 0 0 0 9 22 L 9 20.966797 C 9.6033704 20.991416 10.26432 20.998346 11 21 L 11 22 A 1 1 0 0 0 12 23 A 1 1 0 0 0 13 22 L 13 21 C 13.735676 20.998342 14.396627 20.991418 15 20.966797 L 15 22 A 1 1 0 0 0 16 23 A 1 1 0 0 0 17 22 L 17 20.765625 C 17.999408 20.57368 18.864588 20.205783 19.535156 19.535156 C 20.205783 18.864588 20.57368 17.999408 20.765625 17 L 22 17 A 1 1 0 0 0 23 16 A 1 1 0 0 0 22 15 L 20.966797 15 C 20.991416 14.396627 20.998346 13.735676 21 13 L 22 13 A 1 1 0 0 0 23 12 A 1 1 0 0 0 22 11 L 21 11 C 20.998346 10.26432 20.991416 9.6033704 20.966797 9 L 22 9 A 1 1 0 0 0 23 8 A 1 1 0 0 0 22 7 L 20.765625 7 C 20.573674 6.0006012 20.205757 5.1354332 19.535156 4.4648438 C 18.864585 3.7942329 17.999406 3.426321 17 3.234375 L 17 2 A 1 1 0 0 0 16 1 A 1 1 0 0 0 15 2 L 15 3.0332031 C 14.396627 3.0085836 13.735676 3.0016545 13 3 L 13 2 A 1 1 0 0 0 12 1 A 1 1 0 0 0 11 2 L 11 3 C 10.26432 3.0016544 9.6033703 3.0085839 9 3.0332031 L 9 2 A 1 1 0 0 0 8 1 z M 12 5 C 13.8856 5 15.279881 5.0055 16.255859 5.1367188 C 17.231837 5.2679345 17.725037 5.4828256 18.121094 5.8789062 C 18.517216 6.2750214 18.732063 6.7681734 18.863281 7.7441406 C 18.9945 8.7201079 19 10.11438 19 12 C 19 13.8856 18.9945 15.279884 18.863281 16.255859 C 18.732063 17.231835 18.517187 17.725034 18.121094 18.121094 C 17.725034 18.517187 17.231835 18.732063 16.255859 18.863281 C 15.279884 18.9945 13.8856 19 12 19 C 10.11438 19 8.7201079 18.9945 7.7441406 18.863281 C 6.7681734 18.732063 6.2750213 18.517216 5.8789062 18.121094 C 5.4828255 17.725037 5.2679344 17.231837 5.1367188 16.255859 C 5.0055032 15.279881 5 13.8856 5 12 C 5 10.11438 5.0055033 8.7201106 5.1367188 7.7441406 C 5.2679343 6.7681706 5.482797 6.2750189 5.8789062 5.8789062 C 6.2750189 5.482797 6.7681706 5.2679344 7.7441406 5.1367188 C 8.7201106 5.0055032 10.11438 5 12 5 z M 12 6 C 10.82149 6 9.9171164 5.99285 9.1230469 6.0996094 C 8.3289773 6.2063688 7.5811884 6.4696004 7.0253906 7.0253906 C 6.4696004 7.5811884 6.2063688 8.3289773 6.0996094 9.1230469 C 5.99285 9.9171164 6 10.82149 6 12 C 6 13.1785 5.9928504 14.082883 6.0996094 14.876953 C 6.2063685 15.671023 6.4696253 16.418791 7.0253906 16.974609 C 7.5811923 17.530381 8.3289817 17.793636 9.1230469 17.900391 C 9.9171124 18.007145 10.82149 18 12 18 C 12.7898 18 13.458625 18.000276 14.050781 17.970703 A 1.0001 1.0001 0 0 0 14.707031 17.679688 L 17.679688 14.707031 A 1.0001 1.0001 0 0 0 17.970703 14.050781 C 18.000273 13.458628 18 12.7898 18 12 C 18 10.82149 18.007145 9.917112 17.900391 9.1230469 C 17.793636 8.3289817 17.530381 7.5811923 16.974609 7.0253906 C 16.418791 6.4696253 15.671023 6.2063685 14.876953 6.0996094 C 14.082883 5.9928503 13.1785 6 12 6 z M 12 8 C 13.1785 8 14.04187 8.0057302 14.609375 8.0820312 C 15.17688 8.1583292 15.384065 8.2629884 15.560547 8.4394531 C 15.736976 8.6158914 15.841673 8.8231202 15.917969 9.390625 C 15.994264 9.9581301 16 10.82149 16 12 C 16 12.640233 15.992296 13.122679 15.978516 13.580078 L 13.580078 15.978516 C 13.122675 15.992349 12.640233 16 12 16 C 10.82149 16 9.9581298 15.994264 9.390625 15.917969 C 8.8231202 15.841673 8.6158914 15.736976 8.4394531 15.560547 C 8.2629884 15.384065 8.1583296 15.17688 8.0820312 14.609375 C 8.0057328 14.04187 8 13.1785 8 12 C 8 10.82149 8.005733 9.9581254 8.0820312 9.390625 C 8.1583293 8.8231246 8.2630134 8.6158953 8.4394531 8.4394531 C 8.6158953 8.2630134 8.8231246 8.1583293 9.390625 8.0820312 C 9.9581254 8.005733 10.82149 8 12 8 z " fill="currentColor"/>
</svg>
