<svg xmlns="http://www.w3.org/2000/svg" width="1em" height="1em" viewBox="0 0 24 24" fill="currentColor">
  <path d="M 12 1 C 5.9367124 1 1 5.9367124 1 12 C 1 18.063288 5.9367124 23 12 23 C 18.063288 23 23 18.063288 23 12 C 23 5.9367124 18.063288 1 12 1 z M 12 3 C 15.130105 3 17.878633 4.5856425 19.490234 7 L 12 7 A 1 1 0 0 0 11.851562 7.0117188 C 9.8802574 7.0708112 8.184531 8.2758882 7.4257812 9.9882812 L 5.2207031 6.0722656 C 6.868553 4.1881906 9.2915212 3 12 3 z M 3.96875 7.9238281 L 7.6621094 14.490234 A 1 1 0 0 0 7.7363281 14.605469 C 8.6179812 16.039322 10.202799 17 12 17 C 12.272316 17 12.539959 16.977993 12.800781 16.935547 L 10.683594 20.904297 C 6.3286519 20.270011 3 16.535045 3 12 C 3 10.531575 3.3489562 9.1464927 3.96875 7.9238281 z M 12 9 C 13.668699 9 15 10.331301 15 12 C 15 13.668699 13.668699 15 12 15 C 10.884462 15 9.9232839 14.402753 9.40625 13.509766 L 9.3085938 13.335938 C 9.1108048 12.934516 9 12.481472 9 12 C 9 10.331301 10.331301 9 12 9 z M 15.992188 9 L 20.490234 9 C 20.820116 9.9377394 21 10.947336 21 12 C 21 16.66989 17.470972 20.491996 12.925781 20.953125 L 16.382812 14.470703 A 1 1 0 0 0 16.474609 14.222656 C 16.81001 13.552274 17 12.79686 17 12 C 17 10.87695 16.623718 9.8371738 15.992188 9 z " fill="currentColor"/>
</svg>
