<svg xmlns="http://www.w3.org/2000/svg" width="1em" height="1em" viewBox="0 0 24 24" fill="currentColor">
  <path d="M 12 1 A 1 1 0 0 0 11 2 L 11 3 L 10 3 A 1 1 0 0 0 9 4 A 1 1 0 0 0 10 5 L 11 5 L 11 6.1953125 C 10.835914 6.2621345 10.678151 6.346049 10.529297 6.4453125 L 8.2265625 7.9804688 C 7.3546318 8.5617592 6.7471808 8.922301 6.3554688 9.6542969 C 5.9636655 10.386248 6 11.092725 6 12.140625 L 6 12.882812 L 4.7636719 13.5 C 3.6878186 14.037912 2.9409955 14.359343 2.4472656 15.158203 C 1.9523502 15.958982 2 16.772522 2 17.982422 C 2 18.930972 1.9937202 19.661961 2.0820312 20.322266 C 2.1703433 20.982571 2.3951938 21.637373 2.8789062 22.121094 C 3.3614738 22.603678 4.0139596 22.829512 4.671875 22.917969 C 5.3297907 23.006425 6.05719 23 7 23 L 17 23 C 17.9428 23 18.670212 23.006399 19.328125 22.917969 C 19.986038 22.829509 20.638521 22.603666 21.121094 22.121094 C 21.604813 21.637375 21.829654 20.982572 21.917969 20.322266 C 22.006283 19.661958 22 18.930972 22 17.982422 C 22 16.772522 22.04765 15.958982 21.552734 15.158203 C 21.05901 14.359351 20.31215 14.037911 19.236328 13.5 L 18 12.882812 L 18 12.140625 C 18 11.092725 18.03643 10.386268 17.644531 9.6542969 C 17.252845 8.9221951 16.645325 8.5617504 15.773438 7.9804688 L 13.470703 6.4453125 C 13.321849 6.346049 13.164086 6.2621345 13 6.1953125 L 13 5 L 14 5 A 1 1 0 0 0 15 4 A 1 1 0 0 0 14 3 L 13 3 L 13 2 A 1 1 0 0 0 12 1 z M 12 8 C 12.128658 8 12.254474 8.038119 12.361328 8.109375 L 14.664062 9.6445312 C 15.535975 10.22583 15.799345 10.445298 15.880859 10.597656 A 1.0001 1.0001 0 0 0 15.880859 10.599609 C 15.962362 10.751791 16 11.092725 16 12.140625 L 16 21 L 15 21 L 15 19 C 15 17.354993 13.645007 16 12 16 C 10.354993 16 9 17.354993 9 19 L 9 21 L 8 21 L 8 12.140625 C 8 11.092725 8.037644 10.749905 8.1191406 10.597656 C 8.2007286 10.445192 8.4640082 10.225821 9.3359375 9.6445312 L 11.638672 8.109375 C 11.745524 8.0381205 11.871344 8.0000012 12 8 z M 12 11 C 11.321712 11 10.75 11.571712 10.75 12.25 C 10.75 12.928288 11.321712 13.5 12 13.5 C 12.678288 13.5 13.25 12.928288 13.25 12.25 C 13.25 11.571712 12.678288 11 12 11 z M 6 15.117188 L 6 20.96875 C 5.6424821 20.96005 5.1614603 20.965347 4.9394531 20.935547 C 4.5081136 20.87755 4.3961812 20.810247 4.2929688 20.707031 C 4.1908912 20.604952 4.1225881 20.493264 4.0644531 20.058594 C 4.0063182 19.623924 4 18.930972 4 17.982422 C 4 16.772522 4.045953 16.376759 4.1484375 16.210938 C 4.2521077 16.043198 4.5823964 15.826951 5.6582031 15.289062 L 6 15.117188 z M 18 15.117188 L 18.341797 15.289062 C 19.417575 15.826951 19.747887 16.04319 19.851562 16.210938 C 19.954047 16.376759 20 16.772522 20 17.982422 C 20 18.930972 19.993697 19.623926 19.935547 20.058594 C 19.877407 20.493262 19.809112 20.60495 19.707031 20.707031 C 19.603804 20.810259 19.491884 20.877553 19.060547 20.935547 C 18.838541 20.965397 18.357514 20.9601 18 20.96875 L 18 15.117188 z M 12 18 C 12.564193 18 13 18.435807 13 19 L 13 21 L 11 21 L 11 19 C 11 18.435807 11.435807 18 12 18 z " fill="currentColor"/>
</svg>
