<svg xmlns="http://www.w3.org/2000/svg" width="1em" height="1em" viewBox="0 0 24 24" fill="currentColor">
  <path d="M 12 1 C 5.9367124 1 1 5.9367124 1 12 C 1 18.063288 5.9367124 23 12 23 C 18.063288 23 23 18.063288 23 12 C 23 5.9367124 18.063288 1 12 1 z M 12 3 C 16.982407 3 21 7.0175926 21 12 C 21 16.982407 16.982407 21 12 21 C 7.0175926 21 3 16.982407 3 12 C 3 7.0175926 7.0175926 3 12 3 z M 13.507812 7 A 1 1 0 0 0 12.798828 7.2871094 C 12.798828 7.2871094 12.026858 8.0450596 11.244141 8.9511719 C 10.852782 9.404228 10.4555 9.8929593 10.134766 10.376953 C 9.8140306 10.860947 9.5 11.262137 9.5 12 C 9.5 12.737883 9.8140334 13.137109 10.134766 13.621094 C 10.455497 14.105078 10.852784 14.595768 11.244141 15.048828 C 12.026854 15.954949 12.798828 16.712891 12.798828 16.712891 A 1 1 0 0 0 14.212891 16.701172 A 1 1 0 0 0 14.201172 15.287109 C 14.201172 15.287109 13.473146 14.572567 12.755859 13.742188 C 12.397216 13.326997 12.044503 12.882406 11.802734 12.517578 C 11.664436 12.308886 11.585374 12.100597 11.542969 12 C 11.585375 11.899411 11.664437 11.691117 11.802734 11.482422 C 12.0445 11.117594 12.397218 10.672994 12.755859 10.257812 C 13.473142 9.4274493 14.201172 8.7128906 14.201172 8.7128906 A 1 1 0 0 0 14.212891 7.2988281 A 1 1 0 0 0 13.507812 7 z " fill="currentColor"/>
</svg>
