<svg xmlns="http://www.w3.org/2000/svg" width="1em" height="1em" viewBox="0 0 24 24" fill="currentColor">
  <path d="M 12 1 C 5.9367104 1 1 5.9367104 1 12 C 1 18.063244 5.9367044 23 12 23 C 18.06325 23 23 18.06325 23 12 C 23 5.9367044 18.063244 1 12 1 z M 12 3 C 16.982356 3 21 7.0175956 21 12 C 21 16.98235 16.98235 21 12 21 C 7.0175956 21 3 16.982356 3 12 C 3 7.0175896 7.0175896 3 12 3 z M 15.990234 5.9921875 L 7.9980469 6.0097656 A 1 1 0 0 0 7 7.0117188 A 1 1 0 0 0 8.0019531 8.0097656 L 15.994141 7.9921875 A 1 1 0 0 0 16.992188 6.9902344 A 1 1 0 0 0 15.990234 5.9921875 z M 11.931641 9.0058594 A 1.0001 1.0001 0 0 0 11.835938 9.0117188 C 11.253476 9.0754277 10.948283 9.3567574 10.658203 9.6171875 C 10.368123 9.8776176 10.112847 10.172097 9.8710938 10.46875 C 9.3875875 11.062056 8.8899344 11.723544 8.8144531 11.796875 A 1 1 0 0 0 8.7949219 13.210938 A 1 1 0 0 0 10.208984 13.230469 C 10.50832 12.939662 10.761648 12.572612 11.025391 12.220703 L 11.035156 17.005859 A 1 1 0 0 0 12.037109 18.003906 A 1 1 0 0 0 13.035156 17.001953 L 13.025391 12.271484 C 13.285193 12.601369 13.548162 12.950505 13.808594 13.210938 A 1 1 0 0 0 15.222656 13.210938 A 1 1 0 0 0 15.222656 11.796875 C 15.109099 11.68332 14.5893 11.001902 14.068359 10.398438 C 13.807889 10.096704 13.533035 9.7991056 13.220703 9.5429688 C 12.942444 9.3147739 12.582522 9.1111949 12.072266 9.0644531 A 1 1 0 0 0 12.019531 9.0117188 A 1 1 0 0 0 11.982422 9.0273438 C 11.977905 9.0272385 11.971995 9.0247201 11.96875 9.0234375 C 11.967765 9.0229205 11.963801 9.020117 11.962891 9.0195312 C 11.958601 9.0163617 11.95192 9.0125874 11.947266 9.0097656 C 11.943217 9.0078119 11.937883 9.0057711 11.931641 9.0058594 z " fill="currentColor"/>
</svg>
