<svg xmlns="http://www.w3.org/2000/svg" width="1em" height="1em" viewBox="0 0 24 24" fill="currentColor">
  <path d="M 10.5 1 C 7.4742792 1 5 3.4742792 5 6.5 L 5 9.1894531 C 3.4617482 10.649902 2.5 12.716343 2.5 15 C 2.5 19.403812 6.0764921 23 10.466797 23 C 10.657608 23 10.847041 22.993899 11.035156 22.980469 A 1 1 0 0 0 11.960938 21.912109 A 1 1 0 0 0 10.892578 20.984375 C 10.752093 20.994378 10.610586 21 10.466797 21 C 7.1626415 21 4.5 18.328188 4.5 15 C 4.5 11.671812 7.1626415 9 10.466797 9 C 12.552258 9 14.304258 9.8448441 15.105469 11.447266 A 1 1 0 0 0 16.447266 11.894531 A 1 1 0 0 0 16.894531 10.552734 C 16.644648 10.052967 16.3346 9.6074347 15.976562 9.2148438 A 1 1 0 0 0 16 9 L 16 6.5 C 16 3.4742846 13.525736 1 10.5 1 z M 10.5 3 C 12.444864 3 14 4.5551554 14 6.5 L 14 7.765625 C 12.926435 7.2526031 11.704093 7 10.466797 7 C 9.2252966 7 8.0488737 7.2867416 7 7.7988281 L 7 6.5 C 7 4.5551608 8.5551608 3 10.5 3 z M 16.5 13 C 13.750439 13 11.5 15.250439 11.5 18 C 11.5 20.749561 13.750439 23 16.5 23 C 19.249561 23 21.5 20.749561 21.5 18 C 21.5 15.250439 19.249561 13 16.5 13 z M 16.5 15 C 18.168639 15 19.5 16.331361 19.5 18 C 19.5 19.668639 18.168639 21 16.5 21 C 14.831361 21 13.5 19.668639 13.5 18 C 13.5 16.331361 14.831361 15 16.5 15 z M 15.166016 17 A 1 1 0 0 0 14.166016 18 A 1 1 0 0 0 15.166016 19 L 16.5 19 L 17.833984 19 A 1 1 0 0 0 18.833984 18 A 1 1 0 0 0 17.833984 17 L 16.5 17 L 15.166016 17 z " fill="currentColor"/>
</svg>
