<svg xmlns="http://www.w3.org/2000/svg" width="1em" height="1em" viewBox="0 0 24 24" fill="currentColor">
  <path d="M 11 1 C 7.9742792 1 5.5 3.4742792 5.5 6.5 L 5.5 9.1894531 C 3.9617482 10.649902 3 12.716343 3 15 C 3 19.343911 6.5194534 23.111606 11.025391 23 A 1 1 0 0 0 12 21.974609 A 1 1 0 0 0 10.974609 21 C 7.6077066 21.083394 5 18.271089 5 15 C 5 11.671812 7.6626415 9 10.966797 9 C 13.181224 9 15.100448 10.204609 16.132812 11.998047 A 1 1 0 0 0 17.498047 12.367188 A 1 1 0 0 0 17.867188 11.001953 C 17.494307 10.35418 17.032982 9.7628168 16.5 9.2460938 L 16.5 6.5 C 16.5 3.4742846 14.025736 1 11 1 z M 11 3 C 12.944864 3 14.5 4.5551554 14.5 6.5 L 14.5 7.8300781 C 13.434134 7.2989364 12.233921 7 10.966797 7 C 9.7252966 7 8.5488737 7.2867416 7.5 7.7988281 L 7.5 6.5 C 7.5 4.5551608 9.0551608 3 11 3 z M 12 16 A 1 1 0 0 0 11 17 A 1 1 0 0 0 12 18 L 20 18 A 1 1 0 0 0 21 17 A 1 1 0 0 0 20 16 L 12 16 z " fill="currentColor"/>
</svg>
