<svg xmlns="http://www.w3.org/2000/svg" width="1em" height="1em" viewBox="0 0 24 24" fill="currentColor">
  <path d="M 12 1 C 5.9367124 1 1 5.9367124 1 12 C 1 18.063288 5.9367124 23 12 23 C 18.063288 23 23 18.063288 23 12 C 23 5.9367124 18.063288 1 12 1 z M 12 3 C 16.982407 3 21 7.0175926 21 12 C 21 16.982407 16.982407 21 12 21 C 7.0175926 21 3 16.982407 3 12 C 3 7.0175926 7.0175926 3 12 3 z M 12 6 C 11.444619 6 11.165924 6.229814 10.908203 6.421875 C 10.650482 6.613936 10.428554 6.830225 10.21875 7.046875 C 9.7991418 7.480175 9.3687684 7.9710273 9.3300781 8.0058594 A 1 1 0 0 0 9.2558594 9.4199219 A 1 1 0 0 0 10.669922 9.4941406 C 10.788543 9.387348 10.891441 9.2581917 11 9.140625 L 11 14.859375 C 10.891443 14.741809 10.788537 14.612649 10.669922 14.505859 A 1 1 0 0 0 9.2558594 14.580078 A 1 1 0 0 0 9.3300781 15.994141 C 9.3687871 16.028991 9.7991409 16.519826 10.21875 16.953125 C 10.428555 17.169775 10.650482 17.386065 10.908203 17.578125 C 11.165924 17.770184 11.444622 18 12 18 C 12.555378 18 12.834076 17.770185 13.091797 17.578125 C 13.349518 17.386065 13.571445 17.169775 13.78125 16.953125 C 14.200859 16.519826 14.631213 16.028991 14.669922 15.994141 A 1 1 0 0 0 14.744141 14.580078 A 1 1 0 0 0 13.330078 14.505859 C 13.211462 14.61265 13.108557 14.741809 13 14.859375 L 13 9.140625 C 13.108559 9.2581917 13.211457 9.3873483 13.330078 9.4941406 A 1 1 0 0 0 14.744141 9.4199219 A 1 1 0 0 0 14.669922 8.0058594 C 14.631233 7.9710276 14.200858 7.480175 13.78125 7.046875 C 13.571446 6.830225 13.349518 6.613936 13.091797 6.421875 C 12.834076 6.229814 12.555381 6 12 6 z " fill="currentColor"/>
</svg>
