<svg xmlns="http://www.w3.org/2000/svg" width="1em" height="1em" viewBox="0 0 24 24" fill="currentColor">
  <path d="M 12 1 C 5.9366924 1 1 5.9367104 1 12 C 1 18.063244 5.9366864 23 12 23 C 18.06325 23 23 18.06325 23 12 C 23 5.9367044 18.063244 1 12 1 z M 12 3 C 16.982356 3 21 7.0175956 21 12 C 21 16.98235 16.98235 21 12 21 C 7.0175736 21 3 16.982356 3 12 C 3 7.0175896 7.0175676 3 12 3 z M 12.498047 7 C 11.151886 7.0105358 9.9160156 7.1171875 9.9160156 7.1171875 A 1 1 0 0 0 9.0039062 8.1972656 A 1 1 0 0 0 10.083984 9.109375 C 10.083984 9.109375 11.262273 9.009794 12.513672 9 C 12.870028 8.9972093 13.233052 9.001892 13.568359 9.0175781 L 7.2929688 15.292969 A 1 1 0 0 0 7.2929688 16.707031 A 1 1 0 0 0 8.7070312 16.707031 L 14.982422 10.431641 C 14.998109 10.766949 15.002791 11.12997 15 11.486328 C 14.9902 12.737731 14.890625 13.916016 14.890625 13.916016 A 1 1 0 0 0 15.802734 14.996094 A 1 1 0 0 0 16.882812 14.083984 C 16.882812 14.083984 16.987501 12.84812 16.998047 11.501953 C 17.003314 10.828869 16.987275 10.12707 16.914062 9.5 C 16.84085 8.8729302 16.871817 8.3346913 16.267578 7.7304688 C 15.663355 7.1262624 15.127067 7.1591513 14.5 7.0859375 C 13.872933 7.0127237 13.171127 6.9947321 12.498047 7 z " fill="currentColor"/>
</svg>
