<svg xmlns="http://www.w3.org/2000/svg" width="1em" height="1em" viewBox="0 0 24 24" fill="currentColor">
  <path d="M 12 1 C 5.9367124 1 1 5.9367124 1 12 C 1 18.063288 5.9367124 23 12 23 C 18.063288 23 23 18.063288 23 12 C 23 5.9367124 18.063288 1 12 1 z M 12 3 C 16.982407 3 21 7.0175926 21 12 C 21 16.982407 16.982407 21 12 21 C 7.0175926 21 3 16.982407 3 12 C 3 7.0175926 7.0175926 3 12 3 z M 13.646484 7 A 1 1 0 0 0 12.933594 7.2773438 A 1 1 0 0 0 12.902344 8.6914062 L 13.001953 8.7949219 C 12.950063 8.8014019 12.866381 8.7926812 12.816406 8.8007812 C 10.366319 9.1980008 8.4539695 11.165203 8.0703125 13.644531 C 7.9938673 14.138533 8 14.621178 8 15.517578 L 8 16 A 1 1 0 0 0 9 17 A 1 1 0 0 0 10 16 L 10 15.517578 C 10 14.621178 10.007305 14.20717 10.046875 13.951172 C 10.287599 12.395527 11.44839 11.245417 12.904297 10.896484 A 1 1 0 0 0 12.933594 12.179688 A 1 1 0 0 0 14.347656 12.146484 L 15.527344 10.912109 C 16.160175 10.249548 16.160089 9.2074907 15.527344 8.5449219 L 14.347656 7.3085938 A 1 1 0 0 0 13.646484 7 z " fill="currentColor"/>
</svg>
