<svg xmlns="http://www.w3.org/2000/svg" width="1em" height="1em" viewBox="0 0 24 24" fill="currentColor">
  <path d="M 10.5 1 C 7.4742792 1 5 3.4742792 5 6.5 L 5 9.1894531 C 3.4617482 10.649902 2.5 12.716343 2.5 15 C 2.5 19.403812 6.0764921 23 10.466797 23 C 10.657608 23 10.847041 22.993899 11.035156 22.980469 A 1 1 0 0 0 11.960938 21.912109 A 1 1 0 0 0 10.892578 20.984375 C 10.752093 20.994378 10.610586 21 10.466797 21 C 7.1626415 21 4.5 18.328188 4.5 15 C 4.5 11.671812 7.1626415 9 10.466797 9 C 12.552258 9 14.304258 9.8448441 15.105469 11.447266 A 1 1 0 0 0 16.447266 11.894531 A 1 1 0 0 0 16.894531 10.552734 C 16.650083 10.063839 16.348196 9.6265496 16 9.2402344 L 16 6.5 C 16 3.4742846 13.525736 1 10.5 1 z M 10.5 3 C 12.444864 3 14 4.5551554 14 6.5 L 14 7.765625 C 12.926435 7.2526031 11.704093 7 10.466797 7 C 9.2252966 7 8.0488737 7.2867416 7 7.7988281 L 7 6.5 C 7 4.5551608 8.5551608 3 10.5 3 z M 16.5 13 C 13.750421 13 11.5 15.250421 11.5 18 C 11.5 20.749579 13.750421 23 16.5 23 C 19.249579 23 21.5 20.749579 21.5 18 C 21.5 15.250421 19.249579 13 16.5 13 z M 16.5 15 C 18.168699 15 19.5 16.331301 19.5 18 C 19.5 19.668699 18.168699 21 16.5 21 C 14.831301 21 13.5 19.668699 13.5 18 C 13.5 16.331301 14.831301 15 16.5 15 z M 17.787109 16.101562 A 1 1 0 0 0 17.294922 16.263672 C 16.55947 16.745936 16.211864 17.313121 15.888672 17.814453 C 15.773877 17.737223 15.74026 17.609544 15.601562 17.542969 A 1 1 0 0 0 14.265625 18.011719 A 1 1 0 0 0 14.734375 19.345703 C 14.720095 19.338803 15.062671 19.645715 15.142578 19.753906 C 15.144578 19.757976 15.145944 19.763339 15.146484 19.765625 C 15.146585 19.766558 15.146423 19.770603 15.146484 19.771484 C 15.14694 19.774447 15.148729 19.778402 15.152344 19.785156 C 15.211594 19.896277 15.318848 20.070022 15.568359 20.205078 C 15.81787 20.340134 16.182145 20.34368 16.390625 20.269531 C 16.807586 20.12124 16.835931 19.966302 16.892578 19.888672 C 16.949228 19.811042 16.975068 19.762018 17 19.716797 C 17.09972 19.535911 17.165231 19.387023 17.277344 19.1875 C 17.501569 18.788454 17.850086 18.291279 18.392578 17.935547 A 1 1 0 0 0 18.679688 16.550781 A 1 1 0 0 0 17.787109 16.101562 z M 16.914062 18.841797 L 16.916016 18.84375 C 17.022823 19.044048 17.006206 19.094243 17.009766 19.119141 A 1.0001 1.0001 0 0 0 16.914062 18.841797 z " fill="currentColor"/>
</svg>
