<svg xmlns="http://www.w3.org/2000/svg" width="1em" height="1em" viewBox="0 0 24 24" fill="currentColor">
  <path d="M 6.3730469 2.0097656 C 6.1672174 2.0037296 5.9603162 2.0191643 5.7539062 2.0605469 C 4.9812983 2.2154437 4.3087565 2.6658317 3.890625 3.2402344 C 3.4724935 3.8146371 3.2299564 4.4497849 2.9101562 5.2285156 C 1.1031401 9.6287002 1.9929705 14.875816 5.5585938 18.441406 C 9.1242259 22.007104 14.371315 22.896836 18.771484 21.089844 C 19.550177 20.770047 20.185363 20.527498 20.759766 20.109375 C 21.333739 19.691564 21.784282 19.017998 21.939453 18.246094 L 21.939453 18.244141 C 22.104209 17.419124 21.865643 16.573145 21.423828 15.912109 C 20.981661 15.250548 20.381047 14.668156 19.623047 13.910156 L 10.089844 4.375 C 9.3318786 3.617035 8.7494388 3.0183421 8.0878906 2.5761719 C 7.5917296 2.2445442 6.9905352 2.0278738 6.3730469 2.0097656 z M 6.3632812 3.9902344 C 6.5524095 3.9814419 6.6872899 4.0449351 6.9765625 4.2382812 C 7.1958221 4.3848316 7.4696625 4.6211972 7.8046875 4.9375 C 6.6314598 6.3717168 6.0333694 8.1227518 6.0078125 9.8808594 A 1 1 0 0 0 6 10 A 1 1 0 0 0 6.0078125 10.119141 C 6.037601 12.128594 6.8159858 14.128452 8.34375 15.65625 C 9.8715506 17.184022 11.871369 17.962411 13.880859 17.992188 A 1 1 0 0 0 14 18 A 1 1 0 0 0 14.119141 17.992188 C 15.877283 17.966656 17.628265 17.368577 19.0625 16.195312 C 19.378808 16.530342 19.615173 16.80418 19.761719 17.023438 C 20.019501 17.409126 20.044988 17.520003 19.978516 17.851562 C 19.901466 18.236033 19.846307 18.301237 19.583984 18.492188 C 19.321662 18.683139 18.790426 18.920432 18.011719 19.240234 C 14.340088 20.748042 9.9629042 20.017646 6.9726562 17.027344 C 3.9824195 14.037134 3.2519416 9.6599167 4.7597656 5.9882812 C 5.0795653 5.2095519 5.316859 4.6783354 5.5078125 4.4160156 C 5.698766 4.1536958 5.7639055 4.0985775 6.1484375 4.0214844 C 6.2313101 4.0048694 6.3002385 3.9931652 6.3632812 3.9902344 z M 9.2363281 6.3515625 L 11.884766 9 L 8.078125 9 C 8.2373974 8.0583753 8.6240106 7.1471671 9.2363281 6.3515625 z M 8.078125 11 L 11.585938 11 L 9.109375 13.476562 C 8.570365 12.72256 8.2260207 11.874494 8.078125 11 z M 15 12.115234 L 17.648438 14.763672 C 16.852838 15.375993 15.94163 15.762608 15 15.921875 L 15 12.115234 z M 13 12.414062 L 13 15.921875 C 12.125501 15.773978 11.277433 15.429625 10.523438 14.890625 L 13 12.414062 z " fill="currentColor"/>
</svg>
