<svg xmlns="http://www.w3.org/2000/svg" width="1em" height="1em" viewBox="0 0 24 24" fill="currentColor">
  <path d="M 12 1 C 5.9367104 1 1 5.9367104 1 12 C 1 18.063244 5.9367044 23 12 23 C 18.06325 23 23 18.06325 23 12 C 23 11.248034 22.92356 10.511856 22.779297 9.8007812 A 1 1 0 0 0 21.601562 9.0195312 A 1 1 0 0 0 20.820312 10.199219 C 20.938251 10.780544 21 11.382166 21 12 C 21 16.98235 16.98235 21 12 21 C 7.0175956 21 3 16.982356 3 12 C 3 7.0175896 7.0175896 3 12 3 C 12.617873 3 13.219571 3.061701 13.800781 3.1796875 A 1 1 0 0 0 14.980469 2.3984375 A 1 1 0 0 0 14.199219 1.2207031 C 13.488029 1.0763301 12.751927 1 12 1 z M 18.994141 1 A 1 1 0 0 0 17.994141 2 L 17.994141 3.9941406 L 16 3.9941406 A 1 1 0 0 0 15 4.9941406 A 1 1 0 0 0 16 5.9941406 L 17.994141 5.9941406 L 17.994141 8 A 1 1 0 0 0 18.994141 9 A 1 1 0 0 0 19.994141 8 L 19.994141 5.9941406 L 22 5.9941406 A 1 1 0 0 0 23 4.9941406 A 1 1 0 0 0 22 3.9941406 L 19.994141 3.9941406 L 19.994141 2 A 1 1 0 0 0 18.994141 1 z M 12 6 A 1 1 0 0 0 11 7 L 11 12 A 1.0001 1.0001 0 0 0 11.445312 12.832031 L 14.445312 14.832031 A 1 1 0 0 0 15.832031 14.554688 A 1 1 0 0 0 15.554688 13.167969 L 13 11.464844 L 13 7 A 1 1 0 0 0 12 6 z " fill="currentColor"/>
</svg>
