<svg xmlns="http://www.w3.org/2000/svg" width="1em" height="1em" viewBox="0 0 24 24" fill="currentColor">
  <path d="M 9.5449219 1 A 1.0001 1.0001 0 0 0 9.28125 1.0234375 L 6.7792969 1.5800781 L 6.3496094 1.6757812 C 5.0978576 1.9537758 3.8619603 2.7347872 3.3515625 4.0839844 C 2.6288394 5.9944314 2.0832583 8.8841589 2.0039062 12.980469 C 1.9993763 13.214165 1.9895273 13.409822 2.0195312 13.662109 C 2.0495352 13.914397 2.1647105 14.286749 2.4238281 14.550781 C 2.6852792 14.817209 3.0564948 14.938126 3.3085938 14.972656 C 3.5606927 15.007187 3.7573206 15 3.9941406 15 L 4.8515625 15 C 4.7050198 15.895395 4.5519573 16.829872 4.3867188 17.753906 C 4.2981998 18.248953 4.218096 18.657798 4.2148438 19.113281 C 4.2115937 19.568764 4.3233566 20.070379 4.5625 20.509766 C 4.7823927 20.913783 5.0808806 21.26111 5.4160156 21.496094 C 5.7511506 21.731077 6.0673849 21.853835 6.40625 21.996094 C 7.6566024 22.520973 9.4959063 23 12 23 C 14.504132 23 16.343432 22.520981 17.59375 21.996094 C 17.932627 21.853832 18.248858 21.731073 18.583984 21.496094 C 18.919111 21.261115 19.217585 20.913751 19.4375 20.509766 C 19.67661 20.070387 19.788401 19.568745 19.785156 19.113281 C 19.781956 18.657817 19.701776 18.248953 19.613281 17.753906 C 19.448028 16.829867 19.29498 15.895377 19.148438 15 L 20.005859 15 C 20.242659 15 20.439311 15.007196 20.691406 14.972656 C 20.943502 14.938126 21.314737 14.817193 21.576172 14.550781 C 21.835254 14.286767 21.950462 13.914421 21.980469 13.662109 C 22.010479 13.409798 22.000644 13.214204 21.996094 12.980469 C 21.916818 8.8841356 21.37108 5.9943882 20.648438 4.0839844 C 20.137995 2.7347813 18.902136 1.9537743 17.650391 1.6757812 L 17.220703 1.5800781 L 14.71875 1.0234375 A 1.0001 1.0001 0 0 0 13.607422 1.5527344 C 13.286181 2.19483 12.667467 2.5 12 2.5 C 11.332533 2.5 10.71384 2.1948482 10.392578 1.5527344 A 1.0001 1.0001 0 0 0 9.5449219 1 z M 8.9746094 3.140625 C 9.0406261 4.8304063 9.0020088 7.4011272 8.5175781 9.6210938 C 8.2286249 10.945259 7.7930715 12.079948 7.1992188 12.884766 C 7.7542936 8.7101055 7.9002047 5.5778532 7.9277344 3.3730469 L 8.9746094 3.140625 z M 15.025391 3.140625 L 16.072266 3.3730469 C 16.099794 5.5778768 16.245673 8.7100312 16.800781 12.884766 C 16.206869 12.079939 15.771343 10.945337 15.482422 9.6210938 C 14.998074 7.4011365 14.95938 4.8304535 15.025391 3.140625 z M 5.8730469 4.0234375 C 5.8250616 6.1562541 5.6432644 9.0990628 5.1171875 13 L 4.0058594 13 C 4.0835689 9.0772883 4.6223207 6.3779433 5.2226562 4.7910156 C 5.340663 4.479074 5.5749896 4.2272009 5.8730469 4.0234375 z M 18.126953 4.0234375 C 18.425031 4.2272084 18.659329 4.4790771 18.777344 4.7910156 C 19.377641 6.3779863 19.916509 9.0773075 19.994141 13 L 18.882812 13 C 18.356717 9.099066 18.174937 6.156255 18.126953 4.0234375 z M 11.001953 4.3339844 C 11.32394 4.442201 11.658156 4.5 12 4.5 C 12.341849 4.5 12.676055 4.4422031 12.998047 4.3339844 C 12.990274 6.004267 13.098462 8.0830731 13.527344 10.048828 C 14.049237 12.440879 15.078651 14.830171 17.238281 15.779297 C 17.367714 16.545757 17.513607 17.373387 17.644531 18.105469 C 17.733031 18.600522 17.783776 18.933267 17.785156 19.126953 C 17.786556 19.320639 17.776056 19.375613 17.679688 19.552734 C 17.564003 19.765249 17.523145 19.797954 17.435547 19.859375 C 17.347947 19.920795 17.157182 20.010105 16.818359 20.152344 C 15.810477 20.575456 14.250868 21 12 21 C 9.7491737 21 8.1895882 20.575465 7.1816406 20.152344 C 6.8428157 20.010102 6.6520456 19.920791 6.5644531 19.859375 C 6.4768606 19.797959 6.4359598 19.765217 6.3203125 19.552734 C 6.2239159 19.375621 6.2134609 19.32062 6.2148438 19.126953 C 6.2162266 18.933286 6.2669482 18.600522 6.3554688 18.105469 C 6.4863813 17.37339 6.632286 16.545756 6.7617188 15.779297 C 8.9212351 14.830154 9.950677 12.440866 10.472656 10.048828 C 10.901615 8.0830738 11.009751 6.0042823 11.001953 4.3339844 z " fill="currentColor"/>
</svg>
