<svg xmlns="http://www.w3.org/2000/svg" width="1em" height="1em" viewBox="0 0 24 24" fill="currentColor">
  <path d="M 12 1.5 C 8.8146774 1.5 6.3218113 3.7972882 5.7109375 6.6523438 C 3.0620868 7.233119 1.1356415 9.4722853 1.0039062 12.125 A 1.0001 1.0001 0 0 0 1.0039062 12.142578 C 0.90986405 14.946356 2.9107607 16.94512 5.15625 17.830078 A 1.0001 1.0001 0 0 0 5.1699219 17.835938 C 9.199763 19.356026 13.168601 18.21234 14.685547 15.630859 A 1.0001 1.0001 0 0 0 14.724609 15.558594 C 15.506498 13.936903 14.556402 11.815048 12.585938 11.404297 C 11.845029 11.22429 11.057305 11.358281 10.349609 11.818359 C 9.6363145 12.282078 9.055345 13.156593 8.9980469 14.25 A 1 1 0 0 0 9.9453125 15.300781 A 1 1 0 0 0 10.996094 14.353516 C 11.022744 13.844923 11.204089 13.648422 11.441406 13.494141 C 11.678723 13.339859 12.023523 13.31642 12.117188 13.339844 A 1.0001 1.0001 0 0 0 12.167969 13.351562 C 12.912602 13.497314 13.098553 14.239614 12.923828 14.654297 C 12.081889 16.014311 9.1408208 17.188019 5.890625 15.96875 L 5.890625 15.966797 L 5.8886719 15.966797 C 4.180047 15.292622 2.9463939 14.056228 3.0039062 12.216797 C 3.1038493 10.283976 4.5586711 8.6292769 6.59375 8.4453125 C 6.7216632 8.4337515 6.8508069 8.4277344 6.9824219 8.4277344 C 7.9346053 8.4277344 8.6933655 8.6519595 9.3984375 9.1953125 A 1 1 0 0 0 10.800781 9.0136719 A 1 1 0 0 0 10.619141 7.6113281 C 9.774584 6.9604838 8.7940994 6.6701923 7.7851562 6.546875 C 8.3802182 4.8485629 9.9681316 3.5 12 3.5 C 14.496169 3.5 16.5 5.5141808 16.5 7.9277344 C 16.5 8.0554825 16.494202 8.1819526 16.482422 8.3066406 L 16.482422 8.3085938 C 16.394462 9.2331744 16.154196 9.9158967 15.476562 10.705078 A 1 1 0 0 0 15.583984 12.115234 A 1 1 0 0 0 16.994141 12.007812 C 17.654767 11.238439 17.998599 10.399379 18.222656 9.5429688 C 19.790327 9.8745494 20.923333 11.162641 20.996094 12.685547 C 21.024274 13.910313 20.541887 14.756488 19.845703 15.361328 C 19.147353 15.968051 18.203462 16.268879 17.537109 16.248047 A 1 1 0 0 0 16.505859 17.216797 A 1 1 0 0 0 17.474609 18.248047 C 18.727456 18.287217 20.06885 17.815821 21.15625 16.871094 C 22.24365 15.926367 23.044565 14.443841 22.998047 12.625 A 1.0001 1.0001 0 0 0 22.998047 12.605469 C 22.886402 10.096203 20.963945 8.0320794 18.429688 7.5859375 C 18.238502 4.2293632 15.453705 1.5 12 1.5 z M 14.621094 17.5 C 14.141859 17.5 13.685646 17.653467 13.316406 17.90625 A 1.0001 1.0001 0 0 0 13.283203 17.929688 C 12.367942 18.612426 10.509538 19.57237 8.5039062 19.808594 A 1 1 0 0 0 7.6269531 20.917969 A 1 1 0 0 0 8.7363281 21.794922 C 11.179224 21.507194 13.235848 20.452289 14.447266 19.556641 L 14.460938 19.546875 C 14.513372 19.51389 14.562677 19.5 14.621094 19.5 C 14.800292 19.5 15.005859 19.670473 15.005859 20 C 15.005859 20.329527 14.800292 20.5 14.621094 20.5 C 14.583314 20.5 14.551084 20.493299 14.517578 20.480469 A 1 1 0 0 0 13.224609 21.056641 A 1 1 0 0 0 13.800781 22.347656 C 14.055875 22.445415 14.335272 22.5 14.621094 22.5 C 15.971296 22.5 17.005859 21.327273 17.005859 20 C 17.005859 18.672727 15.971296 17.5 14.621094 17.5 z M 3.9472656 19.048828 A 1 1 0 0 0 3.6914062 19.097656 A 1 1 0 0 0 3.1113281 19.597656 A 1 1 0 0 0 3.5546875 20.941406 C 4.2431624 21.287866 4.9463977 21.524958 5.6445312 21.671875 A 1 1 0 0 0 6.8300781 20.900391 A 1 1 0 0 0 6.0566406 19.714844 C 5.5183343 19.601561 4.9839432 19.420437 4.4550781 19.154297 A 1 1 0 0 0 3.9472656 19.048828 z M 19.005859 19.5 A 1 1 0 0 0 18.005859 20.5 A 1 1 0 0 0 19.005859 21.5 L 21.005859 21.5 A 1 1 0 0 0 22.005859 20.5 A 1 1 0 0 0 21.005859 19.5 L 19.005859 19.5 z " fill="currentColor"/>
</svg>
