<svg xmlns="http://www.w3.org/2000/svg" width="1em" height="1em" viewBox="0 0 24 24" fill="currentColor">
  <path d="M 2 1 A 1 1 0 0 0 1.2929688 1.2929688 A 1 1 0 0 0 1.2929688 2.7070312 L 6.0566406 7.4707031 C 5.9242064 7.8734863 5.837743 8.299631 5.75 8.7226562 C 3.0556002 9.3126256 1 11.637943 1 14.5 C 1 17.801846 3.6981334 20.5 7 20.5 L 17.5 20.5 C 17.983796 20.5 18.454789 20.436521 18.904297 20.318359 L 21.292969 22.707031 A 1 1 0 0 0 22.707031 22.707031 A 1 1 0 0 0 22.707031 21.292969 L 19.888672 18.474609 A 1 1 0 0 0 19.880859 18.466797 L 7.953125 6.5390625 A 1 1 0 0 0 7.9433594 6.5292969 L 2.7070312 1.2929688 A 1 1 0 0 0 2 1 z M 12 3.5 C 10.815604 3.5 9.6968817 3.8200005 8.7382812 4.3769531 A 1 1 0 0 0 8.3769531 5.7441406 A 1 1 0 0 0 9.7441406 6.1054688 C 10.40752 5.7200415 11.173396 5.5 12 5.5 C 14.497167 5.5 16.5 7.502862 16.5 10 C 16.5 10.138549 16.494602 10.275005 16.482422 10.410156 C 16.422052 11.079933 16.215386 11.703568 15.894531 12.255859 A 1 1 0 0 0 16.255859 13.623047 A 1 1 0 0 0 17.623047 13.261719 C 17.906343 12.77408 17.992934 12.186788 18.142578 11.628906 C 19.763861 11.937251 21 13.28368 21 15 C 21 15.67153 20.81449 16.29151 20.490234 16.822266 A 1 1 0 0 0 20.822266 18.195312 A 1 1 0 0 0 22.195312 17.863281 C 22.704857 17.029237 23 16.04487 23 15 C 23 12.306105 21.003111 10.152055 18.4375 9.6894531 C 18.265486 6.2625773 15.468065 3.5 12 3.5 z M 7 10.5 C 7.9054828 10.5 8.7311349 10.796014 9.4003906 11.298828 A 1 1 0 0 0 10.082031 11.496094 L 17.085938 18.5 L 7 18.5 C 4.7790266 18.5 3 16.720954 3 14.5 C 3 12.409072 4.5837741 10.710894 6.6152344 10.517578 C 6.7416443 10.505549 6.8698799 10.5 7 10.5 z " fill="currentColor"/>
</svg>
