<svg xmlns="http://www.w3.org/2000/svg" width="1em" height="1em" viewBox="0 0 24 24" fill="currentColor">
  <path d="M 12 2 C 8.905523 2 6.363637 4.1316848 5.7363281 6.9648438 C 3.0678242 7.5313161 1 9.7372874 1 12.496094 C 1 14.386547 1.9628748 16.068311 3.4199219 17.107422 A 1 1 0 0 0 4.8144531 16.875 A 1 1 0 0 0 4.5800781 15.480469 C 3.6082252 14.78738 3 13.712241 3 12.496094 C 3 10.563406 4.5550235 8.9514305 6.6113281 8.765625 C 6.7393246 8.7540612 6.8683139 8.7480469 7 8.7480469 C 7.9165977 8.7480469 8.75107 9.0345607 9.4199219 9.5117188 A 1 1 0 0 0 10.814453 9.2773438 A 1 1 0 0 0 10.582031 7.8828125 C 9.7909691 7.3184697 8.826168 7.0105267 7.8085938 6.875 C 8.4101734 5.2304772 10.000483 4 12 4 C 14.524434 4 16.5 5.9075185 16.5 8.2226562 C 16.5 8.3510614 16.494302 8.4782025 16.482422 8.6035156 C 16.400612 9.4649529 16.045142 10.24842 15.488281 10.888672 A 1 1 0 0 0 15.585938 12.300781 A 1 1 0 0 0 16.998047 12.203125 C 17.582759 11.530854 17.954589 10.704941 18.203125 9.8300781 C 19.809628 10.143182 21 11.408255 21 12.970703 C 21 14.382507 20.051649 15.592929 18.681641 16.052734 A 1 1 0 0 0 18.052734 17.318359 A 1 1 0 0 0 19.318359 17.947266 C 21.443951 17.233871 23 15.2799 23 12.970703 C 23 10.360683 20.980005 8.313336 18.425781 7.8769531 C 18.226201 4.5959407 15.424399 2 12 2 z M 9.1386719 12.501953 A 1 1 0 0 0 8.2441406 12.949219 L 6.4707031 15.632812 C 6.3519685 15.812439 6.247008 15.954485 6.140625 16.181641 C 6.034242 16.408796 5.9137843 16.906108 6.1386719 17.330078 C 6.3637961 17.754194 6.8505667 17.935537 7.0996094 17.972656 C 7.348649 18.009775 7.5242013 18 7.7382812 18 L 8.3769531 18 L 7.0878906 19.949219 A 1 1 0 0 0 7.3710938 21.333984 A 1 1 0 0 0 8.7558594 21.050781 L 10.529297 18.367188 C 10.648039 18.187551 10.753 18.045509 10.859375 17.818359 C 10.96575 17.591209 11.086098 17.093879 10.861328 16.669922 C 10.636157 16.245806 10.149433 16.064463 9.9003906 16.027344 C 9.6513479 15.990225 9.4757986 16 9.2617188 16 L 8.6230469 16 L 9.9121094 14.050781 A 1 1 0 0 0 9.6289062 12.666016 A 1 1 0 0 0 9.1386719 12.501953 z M 12.939453 17.501953 A 1 1 0 0 0 12.683594 17.550781 A 1 1 0 0 0 12.105469 18.052734 L 11.105469 20.052734 A 1 1 0 0 0 11.552734 21.394531 A 1 1 0 0 0 12.894531 20.947266 L 13.894531 18.947266 A 1 1 0 0 0 13.447266 17.605469 A 1 1 0 0 0 12.939453 17.501953 z M 15.939453 17.501953 A 1 1 0 0 0 15.105469 18.052734 L 14.105469 20.052734 A 1 1 0 0 0 14.552734 21.394531 A 1 1 0 0 0 15.894531 20.947266 L 16.894531 18.947266 A 1 1 0 0 0 16.447266 17.605469 A 1 1 0 0 0 15.939453 17.501953 z " fill="currentColor"/>
</svg>
