<svg xmlns="http://www.w3.org/2000/svg" width="1em" height="1em" viewBox="0 0 24 24" fill="currentColor">
  <path d="M 12 1 C 8.8684736 1 6.3291478 3.2692509 5.7226562 6.2304688 C 3.042314 6.8309969 1 9.1479339 1 12 C 1 15.301846 3.6981334 18 7 18 L 11 18 L 11 18.5 C 10.197977 18.5 9.6312628 19.057878 9.3144531 19.75 L 5 19.75 A 1 1 0 0 0 4 20.75 A 1 1 0 0 0 5 21.75 L 9.3144531 21.75 C 9.6312628 22.442122 10.197977 23 11 23 L 13 23 C 13.802023 23 14.368737 22.442122 14.685547 21.75 L 19 21.75 A 1 1 0 0 0 20 20.75 A 1 1 0 0 0 19 19.75 L 14.685547 19.75 C 14.368737 19.057878 13.802023 18.5 13 18.5 L 13 18 L 17.5 18 C 20.525731 18 23 15.525731 23 12.5 C 23 9.8061045 21.003111 7.6520547 18.4375 7.1894531 C 18.265486 3.7625773 15.468065 1 12 1 z M 12 3 C 14.497167 3 16.5 5.002862 16.5 7.5 C 16.5 7.6385015 16.494602 7.7750207 16.482422 7.9101562 C 16.398622 8.83946 16.034407 9.6830869 15.472656 10.363281 A 1 1 0 0 0 15.605469 11.771484 A 1 1 0 0 0 17.013672 11.636719 C 17.600125 10.926613 17.969331 10.060209 18.212891 9.1425781 C 19.798647 9.4779484 21 10.808659 21 12.5 C 21 14.444869 19.444869 16 17.5 16 L 12 16 L 7 16 C 4.7790266 16 3 14.220954 3 12 C 3 9.9091194 4.5837845 8.2108928 6.6152344 8.0175781 C 6.7416443 8.005549 6.8698799 8 7 8 C 7.9054828 8 8.7311349 8.2960135 9.4003906 8.7988281 A 1 1 0 0 0 10.800781 8.6015625 A 1 1 0 0 0 10.601562 7.2011719 C 9.8047362 6.6025133 8.8255538 6.2719643 7.7910156 6.1308594 C 8.3767134 4.32872 9.9929908 3 12 3 z M 11 20.5 L 12 20.5 L 13 20.5 L 13 20.75 L 13 21 L 11 21 L 11 20.75 L 11 20.5 z " fill="currentColor"/>
</svg>
