<svg xmlns="http://www.w3.org/2000/svg" width="1em" height="1em" viewBox="0 0 24 24" fill="currentColor">
  <path d="M 12 2 C 8.8945016 2 6.3510626 4.1697961 5.7304688 7.0390625 C 3.0601324 7.6159332 1 9.8516149 1 12.634766 C 1 14.974453 2.4335071 16.993202 4.4746094 17.912109 A 1 1 0 0 0 5.796875 17.410156 A 1 1 0 0 0 5.296875 16.087891 C 3.9288373 15.471998 3 14.159478 3 12.634766 C 3 10.658376 4.5618519 9.0218716 6.6113281 8.8339844 C 6.7388647 8.8222924 6.868726 8.8164063 7 8.8164062 C 7.913554 8.8164062 8.7451601 9.1057027 9.4140625 9.5898438 A 1 1 0 0 0 10.810547 9.3671875 A 1 1 0 0 0 10.585938 7.9707031 C 9.7929028 7.3967174 8.8254628 7.0802851 7.8027344 6.9433594 C 8.4000954 5.256216 9.9983424 4 12 4 C 14.516959 4 16.5 5.9334977 16.5 8.2988281 C 16.5 8.4300175 16.494402 8.5594881 16.482422 8.6875 C 16.400032 9.5676546 16.042577 10.368377 15.484375 11.019531 A 1 1 0 0 0 15.591797 12.429688 A 1 1 0 0 0 17.001953 12.320312 C 17.587386 11.637393 17.958003 10.800978 18.205078 9.9140625 C 19.806107 10.23298 21 11.517011 21 13.115234 C 21 14.418617 20.224716 15.544022 19.068359 16.097656 A 1 1 0 0 0 18.597656 17.431641 A 1 1 0 0 0 19.931641 17.902344 C 21.738684 17.037178 23 15.216252 23 13.115234 C 23 10.48297 20.986427 8.4069984 18.429688 7.9628906 C 18.237961 4.6419537 15.436537 2 12 2 z M 12.005859 11.001953 A 1.0001 1.0001 0 0 0 11.369141 11.261719 L 10.232422 12.296875 A 1.0001 1.0001 0 0 0 10.191406 12.337891 C 9.2712944 13.279182 9.2797801 14.837974 10.238281 15.769531 C 10.728138 16.245438 11.36196 16.5 12.042969 16.5 C 12.677735 16.5 13.289277 16.24382 13.726562 15.861328 A 1.0001 1.0001 0 0 0 13.765625 15.824219 C 14.73621 14.881086 14.73621 13.290789 13.765625 12.347656 L 12.763672 11.306641 A 1.0001 1.0001 0 0 0 12.005859 11.001953 z M 11.998047 13.394531 L 12.347656 13.757812 A 1.0001 1.0001 0 0 0 12.371094 13.78125 C 12.547275 13.952448 12.535982 14.195148 12.371094 14.371094 C 12.260919 14.461677 12.196661 14.5 12.042969 14.5 C 11.917378 14.5 11.719364 14.41807 11.632812 14.333984 C 11.43955 14.146156 11.450041 13.914805 11.623047 13.736328 L 11.623047 13.734375 L 11.998047 13.394531 z M 8.5058594 16.501953 A 1.0001 1.0001 0 0 0 7.8691406 16.761719 L 6.7324219 17.796875 A 1.0001 1.0001 0 0 0 6.6914062 17.837891 C 5.7712679 18.779192 5.7797614 20.337993 6.7382812 21.269531 C 7.2281437 21.7456 7.8619411 22 8.5429688 22 C 9.177714 22 9.7892577 21.743823 10.226562 21.361328 A 1.0001 1.0001 0 0 0 10.265625 21.324219 C 11.23617 20.381075 11.23617 18.7908 10.265625 17.847656 L 9.2636719 16.806641 A 1.0001 1.0001 0 0 0 8.5058594 16.501953 z M 15.505859 16.501953 A 1.0001 1.0001 0 0 0 14.869141 16.761719 L 13.732422 17.796875 A 1.0001 1.0001 0 0 0 13.691406 17.837891 C 12.771294 18.779182 12.77978 20.337974 13.738281 21.269531 C 14.228138 21.745438 14.86196 22 15.542969 22 C 16.177735 22 16.789277 21.74382 17.226562 21.361328 A 1.0001 1.0001 0 0 0 17.265625 21.324219 C 18.23621 20.381086 18.23621 18.790789 17.265625 17.847656 L 16.263672 16.806641 A 1.0001 1.0001 0 0 0 15.505859 16.501953 z M 8.4980469 18.894531 L 8.8476562 19.257812 A 1.0001 1.0001 0 0 0 8.8710938 19.28125 C 9.0472552 19.452438 9.0359629 19.695154 8.8710938 19.871094 C 8.7609095 19.961678 8.6965905 20 8.5429688 20 C 8.4172762 20 8.2191705 19.917911 8.1328125 19.833984 C 7.9395239 19.646137 7.950013 19.414795 8.1230469 19.236328 L 8.1230469 19.234375 L 8.4980469 18.894531 z M 15.498047 18.894531 L 15.847656 19.257812 A 1.0001 1.0001 0 0 0 15.871094 19.28125 C 16.047275 19.452448 16.035982 19.695148 15.871094 19.871094 C 15.760919 19.961678 15.696661 20 15.542969 20 C 15.417378 20 15.219364 19.91807 15.132812 19.833984 C 14.93955 19.646156 14.950041 19.414805 15.123047 19.236328 L 15.123047 19.234375 L 15.498047 18.894531 z " fill="currentColor"/>
</svg>
