<svg xmlns="http://www.w3.org/2000/svg" width="1em" height="1em" viewBox="0 0 24 24" fill="currentColor">
  <path d="M 12 2 C 8.8668991 2 6.3280245 4.2744831 5.7226562 7.2402344 C 3.0420342 7.8418467 1 10.160778 1 13.015625 C 1 15.910929 3.0377652 18.418723 5.8007812 18.980469 A 1 1 0 0 0 6.9804688 18.199219 A 1 1 0 0 0 6.1992188 17.019531 C 4.3977549 16.653277 3 14.965521 3 13.015625 C 3 10.920034 4.5845416 9.2189215 6.6152344 9.0253906 C 6.741561 9.0133454 6.8699211 9.0078125 7 9.0078125 C 7.9051512 9.0078125 8.729162 9.3050034 9.3984375 9.8085938 A 1 1 0 0 0 10.798828 9.609375 A 1 1 0 0 0 10.601562 8.2109375 C 9.804752 7.611385 8.8257894 7.2800274 7.7910156 7.1386719 C 8.3762701 5.3317982 9.9928477 4 12 4 C 14.496346 4 16.5 6.0052573 16.5 8.5078125 C 16.5 8.6466203 16.494602 8.7844725 16.482422 8.9199219 C 16.398562 9.8512277 16.032568 10.695637 15.470703 11.376953 A 1 1 0 0 0 15.607422 12.785156 A 1 1 0 0 0 17.013672 12.650391 C 17.600259 11.939098 17.96949 11.071379 18.212891 10.152344 C 19.798261 10.488235 21 11.820367 21 13.515625 C 21 15.344637 19.62358 16.828091 17.855469 17.005859 A 1 1 0 0 0 16.958984 18.099609 A 1 1 0 0 0 18.054688 18.994141 C 20.829976 18.715109 23 16.357213 23 13.515625 C 23 10.819151 21.003555 8.6625317 18.4375 8.1992188 C 18.266648 4.7676045 15.469606 2 12 2 z M 12 14.017578 C 11.489925 14.017578 10.978899 14.203048 10.595703 14.574219 C 9.7828542 15.361556 8.5 16.689327 8.5 18.503906 C 8.5 20.247431 9.9033836 22 12 22 C 14.096616 22 15.5 20.247431 15.5 18.503906 C 15.5 16.689327 14.217146 15.361556 13.404297 14.574219 C 13.021101 14.203048 12.510075 14.017578 12 14.017578 z M 12 15.996094 L 12.001953 15.998047 C 12.00416 16.001306 12.007274 16.005461 12.011719 16.009766 C 12.677269 16.654428 13.5 17.808086 13.5 18.503906 C 13.5 19.221782 13.009984 20 12 20 C 10.990016 20 10.5 19.221782 10.5 18.503906 C 10.5 17.808086 11.32273 16.654428 11.988281 16.009766 C 11.992726 16.005461 11.997793 15.999353 12 15.996094 z " fill="currentColor"/>
</svg>
