<svg xmlns="http://www.w3.org/2000/svg" width="1em" height="1em" viewBox="0 0 24 24" fill="currentColor">
  <path d="M 12 1 C 11.068227 1 10.096742 1.3853164 9.453125 2.1855469 C 8.8095085 2.9857774 8.5 4.10076 8.5 5.5 C 8.5 7.6568803 9.8329604 9.3249539 10.683594 10.169922 L 9.8691406 11.394531 C 8.9602137 10.56156 7.4240457 9.5 5.5 9.5 C 4.10076 9.5 2.9857774 9.8095085 2.1855469 10.453125 C 1.3853164 11.096742 1 12.068227 1 13 C 1 13.931773 1.3853164 14.903258 2.1855469 15.546875 C 2.9857774 16.190492 4.10076 16.5 5.5 16.5 C 7.5233751 16.5 9.1167736 15.326076 10.003906 14.478516 C 10.253432 14.768917 10.502866 15.07964 10.75 15.402344 C 8.6600077 18.379861 7.1054688 21.552734 7.1054688 21.552734 A 1 1 0 0 0 7.5527344 22.894531 A 1 1 0 0 0 8.8945312 22.447266 C 8.8945312 22.447266 10.264252 19.761349 12 17.158203 C 13.735747 19.761348 15.105469 22.447266 15.105469 22.447266 A 1 1 0 0 0 16.447266 22.894531 A 1 1 0 0 0 16.894531 21.552734 C 16.894531 21.552734 15.339992 18.379861 13.25 15.402344 C 13.497134 15.07964 13.746568 14.768917 13.996094 14.478516 C 14.883226 15.326076 16.476625 16.5 18.5 16.5 C 19.89924 16.5 21.014223 16.190492 21.814453 15.546875 C 22.614684 14.903258 23 13.931773 23 13 C 23 12.068227 22.614684 11.096742 21.814453 10.453125 C 21.014223 9.8095085 19.89924 9.5 18.5 9.5 C 16.575954 9.5 15.039786 10.56156 14.130859 11.394531 L 13.316406 10.169922 C 14.16704 9.3249539 15.5 7.6568804 15.5 5.5 C 15.5 4.10076 15.190492 2.9857774 14.546875 2.1855469 C 13.903258 1.3853164 12.931773 1 12 1 z M 12 3 C 12.448927 3 12.727073 3.1146836 12.988281 3.4394531 C 13.24949 3.7642226 13.5 4.39924 13.5 5.5 C 13.5 6.7940683 12.622757 7.8645971 12 8.5292969 C 11.377243 7.8645971 10.5 6.7940683 10.5 5.5 C 10.5 4.39924 10.75051 3.7642226 11.011719 3.4394531 C 11.272927 3.1146836 11.551073 3 12 3 z M 5.5 11.5 C 6.7940683 11.5 7.8645971 12.377243 8.5292969 13 C 7.8645971 13.622757 6.7940683 14.5 5.5 14.5 C 4.39924 14.5 3.7642226 14.24949 3.4394531 13.988281 C 3.1146836 13.727073 3 13.448927 3 13 C 3 12.551073 3.1146836 12.272927 3.4394531 12.011719 C 3.7642226 11.75051 4.39924 11.5 5.5 11.5 z M 18.5 11.5 C 19.60076 11.5 20.235777 11.75051 20.560547 12.011719 C 20.885316 12.272927 21 12.551073 21 13 C 21 13.448927 20.885316 13.727073 20.560547 13.988281 C 20.235777 14.24949 19.60076 14.5 18.5 14.5 C 17.205932 14.5 16.135403 13.622757 15.470703 13 C 16.135403 12.377243 17.205932 11.5 18.5 11.5 z M 12 11.802734 L 12.724609 12.890625 C 12.479772 13.161543 12.238451 13.446596 12 13.740234 C 11.761549 13.446596 11.520228 13.161543 11.275391 12.890625 L 12 11.802734 z " fill="currentColor"/>
</svg>
