<svg xmlns="http://www.w3.org/2000/svg" width="1em" height="1em" viewBox="0 0 24 24" fill="currentColor">
  <path d="M 6 2 A 1 1 0 0 0 5 3 L 5 5 A 1 1 0 0 0 6 6 A 1 1 0 0 0 7 5 L 7 3 A 1 1 0 0 0 6 2 z M 10 2 A 1 1 0 0 0 9 3 L 9 5 A 1 1 0 0 0 10 6 A 1 1 0 0 0 11 5 L 11 3 A 1 1 0 0 0 10 2 z M 14 2 A 1 1 0 0 0 13 3 L 13 5 A 1 1 0 0 0 14 6 A 1 1 0 0 0 15 5 L 15 3 A 1 1 0 0 0 14 2 z M 5 8 C 4.528595 8 4.1551289 7.9930802 3.7695312 8.0449219 C 3.3839336 8.0967636 2.9220631 8.2498234 2.5859375 8.5859375 C 2.2498194 8.9220671 2.0967634 9.3839333 2.0449219 9.7695312 C 1.9930804 10.155129 2 10.5286 2 11 L 2 14 C 2 16.8089 1.929498 18.411981 2.8417969 19.777344 C 3.2065757 20.323187 3.6767899 20.793384 4.2226562 21.158203 C 5.5880042 22.070474 7.19108 22 10 22 C 12.8089 22 14.411982 22.07047 15.777344 21.158203 C 16.323121 20.793393 16.793393 20.323121 17.158203 19.777344 C 17.516489 19.241111 17.722876 18.668212 17.841797 18 L 18 18 C 18.9319 18 19.504912 18.03793 20.148438 17.771484 C 20.883122 17.467115 21.467115 16.883122 21.771484 16.148438 C 22.037928 15.504912 22 14.9319 22 14 C 22 13.0681 22.037928 12.495087 21.771484 11.851562 C 21.467115 11.116877 20.883122 10.532885 20.148438 10.228516 C 19.504912 9.9620717 18.9319 10 18 10 L 17.980469 10 C 17.974281 9.9230765 17.965428 9.8465459 17.955078 9.7695312 C 17.903232 9.3839296 17.75019 8.9220638 17.414062 8.5859375 C 17.077937 8.2498234 16.616065 8.0967637 16.230469 8.0449219 C 15.844872 7.9930801 15.4714 8 15 8 L 5 8 z M 5 10 L 15 10 C 15.4714 10 15.805815 10.006004 15.964844 10.027344 C 15.96719 10.027659 15.970414 10.02704 15.972656 10.027344 C 15.97296 10.029588 15.972341 10.032809 15.972656 10.035156 C 15.994037 10.194185 16 10.5286 16 11 L 16 14 C 16 16.8089 15.93007 18.013577 15.494141 18.666016 C 15.27515 18.993638 14.993638 19.27515 14.666016 19.494141 C 14.013577 19.93007 12.8089 20 10 20 C 7.19108 20 5.9864165 19.93007 5.3339844 19.494141 C 5.0063309 19.27516 4.7247605 18.993572 4.5058594 18.666016 C 4.0699181 18.013578 4 16.8089 4 14 L 4 11 C 4 10.5286 4.0059597 10.194188 4.0273438 10.035156 C 4.0276594 10.032809 4.0270399 10.029588 4.0273438 10.027344 C 4.0295864 10.02704 4.0328101 10.027659 4.0351562 10.027344 C 4.1941863 10.005967 4.528595 10 5 10 z M 18 12 C 18.9319 12 19.291138 12.038212 19.382812 12.076172 C 19.628128 12.177802 19.822198 12.371872 19.923828 12.617188 C 19.961785 12.708863 20 13.0681 20 14 C 20 14.9319 19.961778 15.291137 19.923828 15.382812 C 19.822198 15.628127 19.628129 15.822198 19.382812 15.923828 C 19.291137 15.961785 18.9319 16 18 16 L 17.996094 16 C 18.00586 15.406222 18 14.745591 18 14 L 18 12 z " fill="currentColor"/>
</svg>
