<svg xmlns="http://www.w3.org/2000/svg" width="1em" height="1em" viewBox="0 0 24 24" fill="currentColor">
  <path d="M 8.5 1 C 6.6219299 1 4.922293 1.2268846 3.609375 1.6308594 C 2.952916 1.8328468 2.3909403 2.0708802 1.921875 2.4121094 C 1.4528097 2.7533385 1 3.28475 1 4 L 1 19 A 1.0001 1.0001 0 0 0 1.046875 19.300781 C 1.3521146 20.269946 2.1568194 20.876322 3.0175781 21.265625 C 3.8783369 21.654928 4.8668543 21.869039 5.8789062 21.992188 A 1 1 0 0 0 6.9921875 21.121094 A 1 1 0 0 0 6.1210938 20.007812 C 5.2413358 19.900761 4.4156081 19.702882 3.8417969 19.443359 C 3.2981926 19.197499 3.0800283 18.939864 3 18.738281 L 3 16.257812 C 3.0058567 16.260484 3.0117161 16.262974 3.0175781 16.265625 C 3.8783369 16.654928 4.8668543 16.869039 5.8789062 16.992188 A 1 1 0 0 0 6.9921875 16.121094 A 1 1 0 0 0 6.1210938 15.007812 C 5.2413358 14.90076 4.4156081 14.702882 3.8417969 14.443359 C 3.3613175 14.226049 3.1077453 13.994691 3 13.804688 L 3 11.257812 C 3.0058567 11.260484 3.0117161 11.262974 3.0175781 11.265625 C 3.8783369 11.654928 4.8668543 11.869039 5.8789062 11.992188 A 1 1 0 0 0 6.9921875 11.121094 A 1 1 0 0 0 6.1210938 10.007812 C 5.2413358 9.9007609 4.4156081 9.7028818 3.8417969 9.4433594 C 3.3613175 9.2260489 3.1077453 8.9946912 3 8.8046875 L 3 6.1582031 C 3.1932081 6.2336498 3.3963152 6.3035838 3.609375 6.3691406 C 4.922293 6.7731154 6.6219299 7 8.5 7 C 10.37807 7 12.077707 6.7731154 13.390625 6.3691406 C 13.60808 6.3022313 13.814941 6.2315577 14.011719 6.1542969 A 1 1 0 0 0 15 7 A 1 1 0 0 0 16 6 L 16 4 C 16 3.28475 15.54719 2.7533385 15.078125 2.4121094 C 14.60906 2.0708802 14.047084 1.8328468 13.390625 1.6308594 C 12.077707 1.2268846 10.37807 1 8.5 1 z M 8.5 3 C 10.211781 3 11.763115 3.2211328 12.802734 3.5410156 C 13.291139 3.691294 13.633992 3.8651328 13.833984 4 C 13.633992 4.1348672 13.291139 4.308706 12.802734 4.4589844 C 11.763115 4.7788672 10.211781 5 8.5 5 C 6.7882192 5 5.2368849 4.7788672 4.1972656 4.4589844 C 3.7088608 4.308706 3.3660075 4.1348672 3.1660156 4 C 3.3660075 3.8651328 3.7088608 3.691294 4.1972656 3.5410156 C 5.2368849 3.2211328 6.7882192 3 8.5 3 z M 15.5 8 C 13.62193 8 11.922293 8.2268846 10.609375 8.6308594 C 9.952916 8.8328468 9.3909403 9.0708802 8.921875 9.4121094 C 8.4528115 9.7533372 8.0000035 10.284754 8 11 L 8 19.800781 C 8 20.503722 8.4190423 21.063257 8.8867188 21.4375 C 9.3543952 21.811743 9.9226981 22.078911 10.583984 22.302734 C 11.906558 22.750381 13.61359 23 15.5 23 C 17.38641 23 19.093442 22.750381 20.416016 22.302734 C 21.077302 22.078911 21.645605 21.811743 22.113281 21.4375 C 22.580958 21.063257 23 20.503722 23 19.800781 L 23 11 C 23 10.28475 22.54719 9.7533385 22.078125 9.4121094 C 21.60906 9.0708802 21.047084 8.8328468 20.390625 8.6308594 C 19.077707 8.2268846 17.37807 8 15.5 8 z M 15.5 10 C 17.211781 10 18.763115 10.221133 19.802734 10.541016 C 20.291139 10.691294 20.633992 10.865133 20.833984 11 C 20.633992 11.134867 20.291139 11.308706 19.802734 11.458984 C 18.763115 11.778867 17.211781 12 15.5 12 C 13.788219 12 12.236885 11.778867 11.197266 11.458984 C 10.708861 11.308706 10.366008 11.134867 10.166016 11 C 10.366008 10.865133 10.708861 10.691294 11.197266 10.541016 C 12.236885 10.221133 13.788219 10 15.5 10 z M 10 13.158203 C 10.193208 13.23365 10.396315 13.303584 10.609375 13.369141 C 11.922293 13.773115 13.62193 14 15.5 14 C 17.37807 14 19.077707 13.773115 20.390625 13.369141 C 20.603685 13.303584 20.806792 13.23365 21 13.158203 L 21 15.390625 C 20.982372 15.406757 20.951615 15.433439 20.900391 15.470703 C 20.711627 15.608025 20.322539 15.799045 19.802734 15.958984 C 18.763126 16.278866 17.211809 16.5 15.5 16.5 C 13.788191 16.5 12.236875 16.278863 11.197266 15.958984 C 10.677461 15.799045 10.288373 15.608025 10.099609 15.470703 C 10.048386 15.433439 10.017628 15.406758 10 15.390625 L 10 13.158203 z M 10 17.658203 C 10.193208 17.733649 10.396315 17.803584 10.609375 17.869141 C 11.92229 18.273112 13.621909 18.5 15.5 18.5 C 17.378091 18.5 19.07771 18.273112 20.390625 17.869141 C 20.603685 17.803584 20.806792 17.733649 21 17.658203 L 21 19.75 C 20.986303 19.766081 20.950391 19.806859 20.865234 19.875 C 20.675083 20.027163 20.290366 20.233901 19.775391 20.408203 C 18.745439 20.756806 17.20349 21 15.5 21 C 13.79651 21 12.254561 20.756807 11.224609 20.408203 C 10.709634 20.233901 10.324917 20.027163 10.134766 19.875 C 10.049608 19.806855 10.013696 19.766079 10 19.75 L 10 17.658203 z " fill="currentColor"/>
</svg>
