<svg xmlns="http://www.w3.org/2000/svg" width="1em" height="1em" viewBox="0 0 24 24" fill="currentColor">
  <path d="M 12.027344 2 C 6.5028172 2 2 6.4873455 2 12 C 2 17.51269 6.5028225 22 12.027344 22 C 17.176281 22 21.439678 18.109542 21.994141 13.109375 A 1.0001 1.0001 0 0 0 21 12 A 1.0001 1.0001 0 0 0 21.994141 10.890625 C 21.439677 5.8905041 17.176289 2 12.027344 2 z M 12.027344 4 C 15.760994 4 18.761345 6.5754271 19.667969 10 L 17.080078 10 C 16.266531 7.9675716 14.34163 6.5 12.027344 6.5 C 8.9957018 6.5 6.5136719 8.9726241 6.5136719 12 C 6.5136719 15.027391 8.9957071 17.5 12.027344 17.5 C 14.341627 17.5 16.26653 16.032433 17.080078 14 L 19.667969 14 C 18.761345 17.424603 15.761001 20 12.027344 20 C 7.5804046 20 4 16.42851 4 12 C 4 7.5715345 7.5804099 4 12.027344 4 z M 12.027344 8.5 C 13.711276 8.5 15.101261 9.6680705 15.455078 11.222656 A 1.0001 1.0001 0 0 0 16.429688 12 A 1.0001 1.0001 0 0 0 15.455078 12.777344 C 15.10126 14.33194 13.711279 15.5 12.027344 15.5 C 10.0733 15.5 8.5136719 13.943209 8.5136719 12 C 8.5136719 10.056816 10.073306 8.5 12.027344 8.5 z " fill="currentColor"/>
</svg>
