<svg xmlns="http://www.w3.org/2000/svg" width="1em" height="1em" viewBox="0 0 24 24" fill="currentColor">
  <path d="M 12 2 C 8.6981382 2 6 4.6981382 6 8 C 6 11.301846 8.6981334 14 12 14 C 15.30185 14 18 11.30185 18 8 C 18 4.6981334 15.301846 2 12 2 z M 12 4 C 14.220954 4 16 5.7790266 16 8 C 16 10.22095 14.22095 12 12 12 C 9.7790266 12 8 10.220954 8 8 C 8 5.7790218 9.7790218 4 12 4 z M 12 4.5 A 1 1 0 0 0 11 5.5 L 11 8 A 1.0001 1.0001 0 0 0 11.683594 8.9492188 L 13.183594 9.4492188 A 1 1 0 0 0 14.449219 8.8164062 A 1 1 0 0 0 13.816406 7.5507812 L 13 7.2792969 L 13 5.5 A 1 1 0 0 0 12 4.5 z M 3 15 C 1.9072936 15 1 15.907269 1 17 L 1 17.5 C 1 18.592731 1.9072936 19.5 3 19.5 L 4 19.5 L 4 20 L 2 20 A 1 1 0 0 0 1 21 A 1 1 0 0 0 2 22 L 4 22 C 5.0927064 22 6 21.092731 6 20 L 6 19.5 C 6 18.407269 5.0927064 17.5 4 17.5 L 3 17.5 L 3 17 L 5 17 A 1 1 0 0 0 6 16 A 1 1 0 0 0 5 15 L 3 15 z M 8.5 15 C 7.4072936 15 6.5 15.907269 6.5 17 L 6.5 20 C 6.5 21.092731 7.4072936 22 8.5 22 L 9.5 22 C 10.592707 22 11.5 21.092707 11.5 20 L 11.5 17 C 11.5 15.907293 10.592707 15 9.5 15 L 8.5 15 z M 14 15 C 12.907293 15 12 15.907293 12 17 L 12 20 C 12 21.092707 12.907293 22 14 22 L 15 22 C 16.092707 22 17 21.092707 17 20 L 17 17 C 17 15.907293 16.092707 15 15 15 L 14 15 z M 22 15 A 1 1 0 0 0 21 16 L 21 17.828125 L 19.318359 15.425781 A 1.0001 1.0001 0 0 0 17.5 16 L 17.5 21 A 1 1 0 0 0 18.5 22 A 1 1 0 0 0 19.5 21 L 19.5 19.171875 L 21.181641 21.574219 A 1.0001 1.0001 0 0 0 23 21 L 23 16 A 1 1 0 0 0 22 15 z M 8.5 17 L 9.5 17 L 9.5 20 L 8.5 20 L 8.5 17 z M 14 17 L 15 17 L 15 20 L 14 20 L 14 17 z " fill="currentColor"/>
</svg>
