<svg xmlns="http://www.w3.org/2000/svg" width="1em" height="1em" viewBox="0 0 24 24" fill="currentColor">
  <path d="M 15 1 A 1 1 0 0 0 14.292969 1.2929688 A 1 1 0 0 0 14.292969 2.7070312 L 17.085938 5.5 L 14.292969 8.2929688 A 1 1 0 0 0 14.292969 9.7070312 A 1 1 0 0 0 15.707031 9.7070312 L 18.5 6.9140625 L 21.292969 9.7070312 A 1 1 0 0 0 22.707031 9.7070312 A 1 1 0 0 0 22.707031 8.2929688 L 19.914062 5.5 L 22.707031 2.7070312 A 1 1 0 0 0 22.707031 1.2929688 A 1 1 0 0 0 21.292969 1.2929688 L 18.5 4.0859375 L 15.707031 1.2929688 A 1 1 0 0 0 15 1 z M 10 2 C 8.11438 2 6.6810556 1.994573 5.4785156 2.15625 C 4.2759756 2.317927 3.240311 2.689383 2.4648438 3.4648438 C 1.689383 4.2403111 1.317927 5.2759756 1.15625 6.4785156 C 0.99457301 7.6810556 1 9.11438 1 11 L 1 11.5 C 1 13.3856 0.994573 14.818937 1.15625 16.021484 C 1.3179268 17.224031 1.6893545 18.259713 2.4648438 19.035156 C 3.1060149 19.676347 3.9937274 20.028174 4.9765625 20.257812 C 4.9359545 20.577275 4.8827685 20.89244 4.9296875 21.240234 C 4.9952645 21.726332 5.2232531 22.298934 5.71875 22.667969 A 1.0001 1.0001 0 0 0 5.7265625 22.673828 C 6.313014 23.100471 7.0639884 23.029278 7.6386719 22.84375 C 8.2133553 22.658222 8.8066084 22.359462 9.5878906 21.978516 C 10.715481 21.428617 11.763808 20.864676 12.777344 20.630859 C 13.13256 20.549929 13.499783 20.511635 14.021484 20.5 C 15.893876 20.500056 17.324642 20.5047 18.521484 20.34375 C 19.724034 20.182069 20.759716 19.810663 21.535156 19.035156 C 22.275553 18.29476 22.651886 17.312566 22.822266 16.183594 C 22.992647 15.05458 22.998847 13.724938 23 12 A 1 1 0 0 0 22 11 A 1 1 0 0 0 21 12 C 20.9989 13.715362 20.9789 14.989263 20.84375 15.884766 C 20.708605 16.780268 20.499297 17.24289 20.121094 17.621094 C 19.725034 18.017187 19.231835 18.232063 18.255859 18.363281 C 17.279884 18.4945 15.8856 18.5 14 18.5 A 1.0001 1.0001 0 0 0 13.978516 18.5 C 13.379217 18.51337 12.853815 18.56081 12.332031 18.679688 A 1.0001 1.0001 0 0 0 12.330078 18.679688 C 10.947513 18.997988 9.7757733 19.660394 8.7109375 20.179688 C 7.9296398 20.560641 7.3526216 20.833181 7.0234375 20.939453 C 6.9766699 20.954552 6.9392984 20.967116 6.9101562 20.976562 L 6.9101562 20.974609 C 6.8902503 20.827054 6.9045266 20.546157 6.9628906 20.226562 C 7.0796209 19.587374 7.3474039 18.850046 7.4804688 18.201172 A 1 1 0 0 0 6.7011719 17.019531 A 1 1 0 0 0 5.5195312 17.798828 C 5.5052423 17.868508 5.4448332 18.102543 5.4160156 18.207031 C 4.8324881 18.043638 4.1724221 17.914619 3.8789062 17.621094 C 3.4828254 17.225037 3.2679343 16.731837 3.1367188 15.755859 C 3.005503 14.779881 3 13.3856 3 11.5 L 3 11 C 3 9.11438 3.0055032 7.7201106 3.1367188 6.7441406 C 3.2679342 5.7681706 3.4827969 5.2750189 3.8789062 4.8789062 C 4.2750189 4.482797 4.7681706 4.2679344 5.7441406 4.1367188 C 6.7201106 4.0055032 8.11438 4 10 4 L 11.5 4 A 1 1 0 0 0 12.5 3 A 1 1 0 0 0 11.5 2 L 10 2 z " fill="currentColor"/>
</svg>
