<svg xmlns="http://www.w3.org/2000/svg" width="1em" height="1em" viewBox="0 0 24 24" fill="currentColor">
  <path d="M 8 2 C 6.585785 2 5.5044454 1.9940748 4.5742188 2.1191406 C 3.6439921 2.2442065 2.800893 2.542857 2.171875 3.171875 C 1.542857 3.800893 1.2442065 4.6439921 1.1191406 5.5742188 C 0.99407482 6.5044454 1 7.585785 1 9 L 1 11 C 1 12.4142 0.99407502 13.495558 1.1191406 14.425781 C 1.2442065 15.356004 1.5428648 16.199101 2.171875 16.828125 C 2.8008908 17.457155 3.6439898 17.75579 4.5742188 17.880859 C 5.5044479 18.005928 6.585785 18 8 18 L 10.5 18 L 10.5 19.5 C 10.5 19.78792 10.28792 20 10 20 L 8 20 A 1 1 0 0 0 7 21 A 1 1 0 0 0 8 22 L 10 22 L 12 22 L 14 22 L 16 22 A 1 1 0 0 0 17 21 A 1 1 0 0 0 16 20 L 14 20 C 13.71208 20 13.5 19.78792 13.5 19.5 L 13.5 18 L 16 18 C 17.4142 18 18.495556 18.0059 19.425781 17.880859 C 20.356006 17.75579 21.199103 17.457147 21.828125 16.828125 C 22.457147 16.199103 22.75579 15.356006 22.880859 14.425781 C 23.005928 13.495556 23 12.4142 23 11 L 23 9 C 23 7.585785 23.005928 6.5044478 22.880859 5.5742188 C 22.75579 4.6439897 22.457155 3.8008908 21.828125 3.171875 C 21.199101 2.5428648 20.356004 2.2442065 19.425781 2.1191406 C 18.495558 1.9940747 17.4142 2 16 2 L 8 2 z M 8 4 L 16 4 C 17.4142 4 18.454551 4.00696 19.158203 4.1015625 C 19.861855 4.1961665 20.164388 4.3362677 20.414062 4.5859375 C 20.663732 4.8356017 20.803832 5.1381434 20.898438 5.8417969 C 20.993043 6.5454503 21 7.585785 21 9 L 21 11 C 21 12.4142 20.993 13.454553 20.898438 14.158203 C 20.803828 14.861853 20.66374 15.164384 20.414062 15.414062 C 20.164386 15.66374 19.861853 15.803832 19.158203 15.898438 C 18.454553 15.993042 17.4142 16 16 16 L 8 16 C 6.585785 16 5.5454503 15.993043 4.8417969 15.898438 C 4.1381434 15.803831 3.8356017 15.663731 3.5859375 15.414062 C 3.3362677 15.164386 3.1961666 14.861855 3.1015625 14.158203 C 3.0069584 13.454551 3 12.4142 3 11 L 3 9 C 3 7.585785 3.0069583 6.5454528 3.1015625 5.8417969 C 3.1961667 5.138141 3.3362755 4.8355995 3.5859375 4.5859375 C 3.8355995 4.3362755 4.138141 4.1961667 4.8417969 4.1015625 C 5.5454528 4.0069583 6.585785 4 8 4 z M 12.929688 6.0019531 A 1.0001 1.0001 0 0 0 12.050781 6.6835938 L 10.814453 10.392578 L 10.394531 9.5527344 A 1.0001 1.0001 0 0 0 9.5 9 L 7 9 A 1 1 0 0 0 6 10 A 1 1 0 0 0 7 11 L 8.8828125 11 L 10.105469 13.447266 A 1.0001 1.0001 0 0 0 11.949219 13.316406 L 13.185547 9.6074219 L 13.605469 10.447266 A 1.0001 1.0001 0 0 0 14.5 11 L 17 11 A 1 1 0 0 0 18 10 A 1 1 0 0 0 17 9 L 15.117188 9 L 13.894531 6.5527344 A 1.0001 1.0001 0 0 0 12.929688 6.0019531 z " fill="currentColor"/>
</svg>
