<svg xmlns="http://www.w3.org/2000/svg" width="1em" height="1em" viewBox="0 0 24 24" fill="currentColor">
  <path d="M 8 2 C 6.585785 2 5.5044454 1.9940748 4.5742188 2.1191406 C 3.6439921 2.2442065 2.800893 2.542857 2.171875 3.171875 C 1.542857 3.800893 1.2442065 4.6439921 1.1191406 5.5742188 C 0.99407482 6.5044454 1 7.585785 1 9 L 1 11 C 1 12.4142 0.99407502 13.495558 1.1191406 14.425781 C 1.2442065 15.356004 1.5428648 16.199101 2.171875 16.828125 C 2.8008908 17.457155 3.6439898 17.75579 4.5742188 17.880859 C 5.5044479 18.005928 6.585785 18 8 18 L 10.5 18 L 10.5 19.5 C 10.5 19.78792 10.28792 20 10 20 L 8 20 A 1 1 0 0 0 7 21 A 1 1 0 0 0 8 22 L 10 22 L 12 22 L 14 22 L 16 22 A 1 1 0 0 0 17 21 A 1 1 0 0 0 16 20 L 14 20 C 13.71208 20 13.5 19.78792 13.5 19.5 L 13.5 18 L 16 18 C 17.4142 18 18.495556 18.0059 19.425781 17.880859 C 20.356006 17.75579 21.199103 17.457147 21.828125 16.828125 C 22.457147 16.199103 22.75579 15.356006 22.880859 14.425781 C 23.005928 13.495556 23 12.4142 23 11 L 23 9 C 23 7.585785 23.005928 6.5044478 22.880859 5.5742188 C 22.75579 4.6439897 22.457155 3.8008908 21.828125 3.171875 C 21.199101 2.5428648 20.356004 2.2442065 19.425781 2.1191406 C 18.495558 1.9940747 17.4142 2 16 2 L 8 2 z M 8 4 L 16 4 C 17.4142 4 18.454551 4.00696 19.158203 4.1015625 C 19.861855 4.1961665 20.164388 4.3362677 20.414062 4.5859375 C 20.663732 4.8356017 20.803832 5.1381434 20.898438 5.8417969 C 20.993043 6.5454503 21 7.585785 21 9 L 21 11 C 21 12.4142 20.993 13.454553 20.898438 14.158203 C 20.803828 14.861853 20.66374 15.164384 20.414062 15.414062 C 20.164386 15.66374 19.861853 15.803832 19.158203 15.898438 C 18.454553 15.993042 17.4142 16 16 16 L 8 16 C 6.585785 16 5.5454503 15.993043 4.8417969 15.898438 C 4.1381434 15.803831 3.8356017 15.663731 3.5859375 15.414062 C 3.3362677 15.164386 3.1961666 14.861855 3.1015625 14.158203 C 3.0069584 13.454551 3 12.4142 3 11 L 3 9 C 3 7.585785 3.0069583 6.5454528 3.1015625 5.8417969 C 3.1961667 5.138141 3.3362755 4.8355995 3.5859375 4.5859375 C 3.8355995 4.3362755 4.138141 4.1961667 4.8417969 4.1015625 C 5.5454528 4.0069583 6.585785 4 8 4 z M 12.929688 6.0019531 A 1 1 0 0 0 12.050781 6.6835938 L 10.050781 12.683594 A 1 1 0 0 0 10.683594 13.949219 A 1 1 0 0 0 11.949219 13.316406 L 13.949219 7.3164062 A 1 1 0 0 0 13.316406 6.0507812 A 1 1 0 0 0 12.929688 6.0019531 z M 16.056641 7 A 1 1 0 0 0 15.925781 7.0019531 A 1 1 0 0 0 15.242188 7.3476562 A 1 1 0 0 0 15.347656 8.7578125 L 16.574219 9.8144531 C 16.683247 9.9084159 16.702922 9.9313084 16.779297 10 C 16.702927 10.06868 16.683237 10.0916 16.574219 10.185547 L 15.347656 11.242188 A 1 1 0 0 0 15.242188 12.652344 A 1 1 0 0 0 16.652344 12.757812 L 17.878906 11.701172 C 18.136796 11.478937 18.347793 11.304049 18.554688 11.070312 C 18.761584 10.836574 19 10.44929 19 10 C 19 9.5507352 18.761584 9.1634143 18.554688 8.9296875 C 18.347791 8.6959607 18.136771 8.521061 17.878906 8.2988281 L 16.652344 7.2421875 A 1 1 0 0 0 16.056641 7 z M 7.9433594 7.0019531 A 1 1 0 0 0 7.3476562 7.2421875 L 6.1210938 8.2988281 C 5.8632709 8.5210505 5.6521946 8.6959722 5.4453125 8.9296875 C 5.2384304 9.1634028 5 9.5507111 5 10 C 5 10.449314 5.2384315 10.836585 5.4453125 11.070312 C 5.6521935 11.304039 5.8632458 11.478948 6.1210938 11.701172 L 7.3476562 12.757812 A 1 1 0 0 0 8.7578125 12.652344 A 1 1 0 0 0 8.6523438 11.242188 L 7.4257812 10.185547 C 7.3167712 10.091597 7.297068 10.068687 7.2207031 10 C 7.297077 9.9313043 7.3167604 9.9084203 7.4257812 9.8144531 L 8.6523438 8.7578125 A 1 1 0 0 0 8.7578125 7.3476562 A 1 1 0 0 0 7.9433594 7.0019531 z " fill="currentColor"/>
</svg>
