<svg xmlns="http://www.w3.org/2000/svg" width="1em" height="1em" viewBox="0 0 24 24" fill="currentColor">
  <path d="M 8.5019531 1.4941406 C 8.3189293 1.4957429 8.2662708 1.5460911 8.1914062 1.5703125 C 8.0915867 1.6026077 8.0126048 1.635154 7.9296875 1.671875 C 7.763853 1.745317 7.5919428 1.8327985 7.4160156 1.9257812 C 7.0641612 2.1117468 6.701738 2.3190473 6.515625 2.4257812 C 6.3259725 2.5345441 5.9594251 2.7458812 5.6191406 2.9570312 C 5.4489984 3.0626062 5.2865905 3.1666983 5.1386719 3.2734375 C 5.0647125 3.3268071 4.9945432 3.3790317 4.9160156 3.4492188 C 4.8374881 3.5194056 4.7407093 3.535795 4.59375 3.8867188 A 1.0001 1.0001 0 0 0 4.5917969 3.8867188 C 4.4325141 4.2671196 4.4847612 4.5547649 4.5234375 4.78125 C 4.5621138 5.0077351 4.6182863 5.2172081 4.6875 5.4863281 C 5.0515581 6.901834 4.1467013 8.4334693 2.7265625 8.8203125 C 2.4655853 8.8913885 2.2591911 8.9449039 2.0449219 9.0234375 C 1.8306526 9.1019711 1.5528859 9.2063315 1.3066406 9.53125 C 1.0801851 9.8295878 1.1115548 9.922978 1.0898438 10.025391 C 1.0681327 10.127803 1.0582741 10.212818 1.0488281 10.302734 C 1.0299371 10.482566 1.0205579 10.673119 1.0136719 10.871094 C 0.9999001 11.267044 1 11.685697 1 11.904297 C 1 12.122947 0.99989989 12.539586 1.0136719 12.935547 C 1.0205619 13.133527 1.0299391 13.324068 1.0488281 13.503906 C 1.0582681 13.593826 1.0681457 13.680815 1.0898438 13.783203 C 1.1115417 13.885591 1.0808037 13.977426 1.3066406 14.275391 A 1.0001 1.0001 0 0 0 1.3066406 14.277344 C 1.5529309 14.60202 1.830781 14.70475 2.0449219 14.783203 C 2.2590627 14.861653 2.4657612 14.915286 2.7265625 14.986328 C 2.7328325 14.988028 2.7407692 14.990741 2.7539062 14.994141 A 1 1 0 0 0 3.9746094 14.279297 A 1 1 0 0 0 3.2617188 13.058594 L 3.2597656 13.058594 C 3.258805 13.058244 3.2574569 13.057096 3.2558594 13.056641 A 1.0001 1.0001 0 0 0 3.2519531 13.056641 C 3.1351084 13.024811 3.1026961 13.012181 3.0195312 12.988281 C 3.0172912 12.942051 3.0134388 12.914641 3.0117188 12.865234 C 2.9997255 12.520317 3 12.122947 3 11.904297 C 3 11.685697 2.9997204 11.286356 3.0117188 10.941406 C 3.0134388 10.892006 3.0172913 10.864586 3.0195312 10.818359 C 3.1026673 10.794459 3.1351921 10.7818 3.2519531 10.75 C 5.7325767 10.074284 7.2676619 7.4870354 6.625 4.9882812 C 6.5918888 4.8595367 6.584263 4.8186771 6.5625 4.7285156 C 6.60422 4.7017826 6.62862 4.684303 6.6738281 4.65625 C 6.9709062 4.47191 7.3200881 4.2708865 7.5097656 4.1621094 C 7.6958826 4.0553732 8.0443619 3.8557239 8.3515625 3.6933594 C 8.3943845 3.6707264 8.4184735 3.6594059 8.4589844 3.6386719 C 8.5185464 3.6971409 8.5422114 3.7173759 8.6230469 3.7988281 C 10.470782 5.6606814 13.527236 5.660672 15.375 3.7988281 C 15.45584 3.7173681 15.479501 3.6971443 15.539062 3.6386719 C 15.579963 3.6595979 15.605162 3.6704914 15.648438 3.6933594 C 15.955661 3.8557292 16.302063 4.05534 16.488281 4.1621094 C 16.677908 4.2708608 17.027169 4.4719096 17.324219 4.65625 C 17.369419 4.684302 17.393829 4.7017826 17.435547 4.7285156 C 17.413797 4.8187006 17.406127 4.8595138 17.373047 4.9882812 C 16.730521 7.4873765 18.26722 10.074363 20.748047 10.75 C 20.864799 10.78179 20.897337 10.794469 20.980469 10.818359 C 20.982669 10.864589 20.986581 10.891999 20.988281 10.941406 C 21.000281 11.286366 21 11.685697 21 11.904297 C 21 12.122947 21.000282 12.520289 20.988281 12.865234 C 20.986581 12.914634 20.982669 12.942054 20.980469 12.988281 C 20.897279 13.012201 20.864929 13.024791 20.748047 13.056641 C 18.267345 13.732271 16.732277 16.319606 17.375 18.818359 C 17.40799 18.946653 17.41578 18.988138 17.4375 19.078125 C 17.39558 19.104995 17.37163 19.124134 17.326172 19.152344 C 17.029123 19.336693 16.67972 19.537857 16.490234 19.646484 C 16.30405 19.753233 15.955656 19.950914 15.648438 20.113281 C 15.605607 20.135911 15.581528 20.147229 15.541016 20.167969 C 15.481466 20.109489 15.457776 20.089279 15.376953 20.007812 C 13.243116 17.857136 9.4735604 18.229105 7.8652344 20.996094 A 1 1 0 0 0 8.2285156 22.363281 A 1 1 0 0 0 9.5957031 22.001953 C 10.571637 20.322942 12.720069 20.169292 13.957031 21.416016 C 14.1454 21.605884 14.292454 21.757783 14.464844 21.904297 C 14.637234 22.05081 14.862988 22.242178 15.265625 22.296875 C 15.647381 22.348735 15.708784 22.270571 15.808594 22.238281 C 15.908404 22.205991 15.987396 22.171491 16.070312 22.134766 C 16.236148 22.061326 16.408057 21.973838 16.583984 21.880859 C 16.93584 21.694902 17.29836 21.487511 17.484375 21.380859 C 17.674289 21.271987 18.040583 21.062738 18.380859 20.851562 C 18.550997 20.745976 18.71343 20.641895 18.861328 20.535156 C 18.935278 20.481786 19.005476 20.429548 19.083984 20.359375 C 19.162494 20.289205 19.259274 20.270795 19.40625 19.919922 A 1.0001 1.0001 0 0 0 19.408203 19.919922 C 19.567389 19.539657 19.515226 19.251889 19.476562 19.025391 C 19.437902 18.798892 19.381702 18.589414 19.3125 18.320312 C 18.948423 16.904867 19.853339 15.373098 21.273438 14.986328 C 21.534395 14.915228 21.740902 14.861698 21.955078 14.783203 C 22.169254 14.704703 22.447076 14.601979 22.693359 14.277344 C 22.919538 13.979209 22.888445 13.885612 22.910156 13.783203 C 22.931866 13.680794 22.941722 13.593826 22.951172 13.503906 C 22.970072 13.324066 22.979438 13.133524 22.986328 12.935547 C 23.000047 12.539584 23 12.122947 23 11.904297 C 23 11.685697 23.000101 11.267059 22.986328 10.871094 C 22.979428 10.673111 22.970072 10.48258 22.951172 10.302734 C 22.941772 10.212814 22.931866 10.1278 22.910156 10.025391 C 22.888452 9.9229804 22.919556 9.829408 22.693359 9.53125 C 22.447083 9.2066244 22.169286 9.101933 21.955078 9.0234375 C 21.74087 8.944942 21.534425 8.8913824 21.273438 8.8203125 C 19.852866 8.433429 18.946672 6.901613 19.310547 5.4863281 C 19.37969 5.2172063 19.435974 5.0077116 19.474609 4.78125 C 19.513245 4.5547884 19.56559 4.267157 19.40625 3.8867188 C 19.259279 3.535833 19.160546 3.5193948 19.082031 3.4492188 C 19.003517 3.3790426 18.933325 3.3268036 18.859375 3.2734375 C 18.711476 3.1667054 18.549031 3.062606 18.378906 2.9570312 C 18.038656 2.7458816 17.672096 2.5345597 17.482422 2.4257812 C 17.296341 2.3190905 16.933882 2.1117364 16.582031 1.9257812 C 16.406106 1.8328037 16.234178 1.7453121 16.068359 1.671875 C 15.98545 1.6351564 15.906445 1.6026069 15.806641 1.5703125 C 15.706831 1.5380185 15.645695 1.4597457 15.263672 1.5117188 C 14.861367 1.5664668 14.63529 1.7558714 14.462891 1.9023438 C 14.290491 2.0488162 14.143516 2.2007376 13.955078 2.390625 C 12.884242 3.4696211 11.113714 3.4695518 10.042969 2.390625 C 9.8545135 2.2007302 9.7075559 2.0488032 9.5351562 1.9023438 C 9.3627564 1.7558844 9.1368032 1.5664552 8.734375 1.5117188 C 8.6388923 1.4987267 8.5629611 1.4936065 8.5019531 1.4941406 z M 11.730469 6.40625 C 10.802657 6.4271957 10.183301 6.4277251 9.5917969 6.5371094 C 9.0040692 6.6457952 8.4435521 6.9365271 8.015625 7.3378906 C 7.223171 8.060256 6.9590158 9.0577053 6.8613281 10.046875 C 6.7631111 11.041509 6.7966184 11.738171 6.8027344 12.142578 C 6.8055413 12.328055 6.8057219 12.406708 6.8085938 12.433594 C 6.7134117 12.534218 6.4275747 12.834054 6.0917969 13.173828 C 5.6830568 13.587432 5.1575797 14.112925 4.609375 14.660156 C 3.5129656 15.754618 2.3251593 16.930952 1.78125 17.474609 A 1.0001 1.0001 0 0 0 1.7207031 17.542969 C 0.66668371 18.807301 0.89131544 20.52954 1.8339844 21.507812 C 2.7766533 22.486086 4.5369273 22.741761 5.8945312 21.664062 A 1.0001 1.0001 0 0 0 5.9804688 21.589844 L 8.4394531 19.130859 C 9.1345809 18.436034 9.7679112 17.788061 10.246094 17.308594 C 10.485185 17.06886 10.68518 16.870616 10.828125 16.736328 C 10.849759 16.716004 10.872648 16.696449 10.896484 16.677734 C 10.945816 16.665321 11.086805 16.617333 11.259766 16.615234 C 11.598071 16.611134 12.090195 16.622634 12.650391 16.589844 L 12.652344 16.589844 C 13.191645 16.566004 13.833235 16.545274 14.511719 16.34375 C 15.188205 16.142817 15.907191 15.705306 16.404297 14.974609 C 17.096028 14.029266 16.997953 13.002904 16.996094 12.123047 C 16.994794 11.461755 16.9897 10.822969 17 10.410156 C 17.0062 10.161705 17.026436 10.028904 16.972656 9.7539062 C 16.923336 9.5017191 16.706419 9.2222871 16.625 9.1289062 C 16.355312 8.8265015 16.023914 8.6935676 15.726562 8.6679688 C 15.418147 8.6414178 15.094609 8.6638888 14.740234 8.9765625 C 14.591361 9.1026285 14.537863 9.1655368 14.380859 9.3203125 C 14.214692 9.4841222 14.006442 9.6909112 13.792969 9.9042969 C 13.366023 10.331068 12.915981 10.783335 12.761719 10.9375 C 12.666709 11.03248 12.603611 11.011877 12.515625 10.960938 C 12.427635 10.909997 12.362747 10.936038 12.441406 10.669922 A 1.0001 1.0001 0 0 0 12.466797 10.564453 C 12.446942 10.67446 12.434158 10.732024 12.433594 10.748047 L 12.433594 10.75 L 12.433594 10.751953 L 12.435547 10.751953 L 12.435547 10.75 L 12.4375 10.75 L 12.439453 10.748047 C 12.45698 10.725498 12.51846 10.597693 12.652344 10.458984 C 12.891014 10.211716 13.277268 9.8436218 13.767578 9.3535156 A 1.0001 1.0001 0 0 0 13.804688 9.3164062 C 13.969853 9.1329614 14.132763 9.0066121 14.345703 8.7714844 C 14.452173 8.6539205 14.586686 8.4978909 14.681641 8.2304688 C 14.776591 7.9630465 14.768999 7.5835186 14.662109 7.3164062 C 14.586549 7.1275759 14.422053 6.8227081 14.119141 6.6289062 C 13.816184 6.4351092 13.537956 6.415825 13.333984 6.40625 C 12.926041 6.3871 12.551289 6.42626 11.779297 6.40625 A 1.0001 1.0001 0 0 0 11.730469 6.40625 z M 11.775391 8.4042969 C 11.835181 8.4056469 11.828351 8.4034217 11.884766 8.4042969 C 11.652562 8.6312622 11.387617 8.8873389 11.212891 9.0683594 C 10.927885 9.3636314 10.654312 9.5699878 10.527344 10.164062 C 10.254132 11.196943 10.736996 12.241741 11.513672 12.691406 C 12.306186 13.150241 13.430794 13.098237 14.175781 12.353516 C 14.306161 12.223218 14.663314 11.862709 14.998047 11.527344 C 14.998608 11.739817 14.995694 11.904953 14.996094 12.126953 C 14.997794 12.942176 14.797755 13.798308 14.792969 13.804688 A 1.0001 1.0001 0 0 0 14.761719 13.849609 C 14.539275 14.183121 14.309179 14.317124 13.943359 14.425781 C 13.577539 14.534439 13.086777 14.569841 12.548828 14.59375 A 1.0001 1.0001 0 0 0 12.533203 14.59375 C 12.074379 14.62074 11.636595 14.610364 11.234375 14.615234 C 10.844914 14.619934 10.5002 14.522164 9.9238281 14.917969 C 9.6963687 15.052413 9.603304 15.143717 9.4589844 15.279297 C 9.284306 15.443397 9.0754845 15.650418 8.8300781 15.896484 C 8.3392653 16.388617 7.7102628 17.030269 7.0253906 17.714844 L 4.6367188 20.103516 C 3.9649726 20.628597 3.5851496 20.444579 3.2734375 20.121094 C 2.961227 19.797091 2.8188767 19.362065 3.2539062 18.832031 C 3.805145 18.281405 4.9447383 17.151006 6.0214844 16.076172 C 6.5712797 15.527353 7.0989118 14.999774 7.5136719 14.580078 C 7.928432 14.160382 8.1865909 13.900752 8.359375 13.699219 C 8.7814886 13.206973 8.8098608 12.584499 8.8027344 12.113281 C 8.7956079 11.642064 8.7661795 11.108807 8.8515625 10.244141 C 8.9312392 9.4373469 9.0538164 9.0926808 9.3632812 8.8125 A 1.0001 1.0001 0 0 0 9.3789062 8.796875 C 9.6099565 8.5785184 9.6465851 8.5609545 9.9550781 8.5039062 C 10.263571 8.446858 10.843213 8.4253412 11.775391 8.4042969 z M 11.052734 16.548828 C 11.027894 16.56687 11.005487 16.581921 10.986328 16.595703 C 10.967405 16.605131 10.944178 16.616778 10.916016 16.630859 A 1.0001 1.0001 0 0 0 11.052734 16.548828 z " fill="currentColor"/>
</svg>
