<svg xmlns="http://www.w3.org/2000/svg" width="1em" height="1em" viewBox="0 0 24 24" fill="currentColor">
  <path d="M 15 1 C 13.354975 1 12 2.3550085 12 4 C 12 4.0091676 11.999916 4.0181944 12 4.0273438 L 6.3105469 6.0957031 C 5.758297 5.4279818 4.9251633 5 4 5 C 2.3549904 5 1 6.3549904 1 8 C 1 9.6450096 2.3549904 11 4 11 C 5.6450096 11 7 9.6450096 7 8 C 7 7.9910559 7.0000799 7.981583 7 7.9726562 L 12.689453 5.9042969 C 12.805373 6.0444184 12.93333 6.1737139 13.072266 6.2910156 L 12.058594 9 C 12.039378 8.9996288 12.019297 9 12 9 C 10.354993 9 9 10.354993 9 12 C 9 13.163816 9.6788942 14.183325 10.658203 14.679688 L 10.359375 17.070312 C 9.0178931 17.367629 8 18.574849 8 20 C 8 21.645025 9.3550085 23 11 23 C 12.645007 23 14 21.645007 14 20 C 14 19.92109 13.996353 19.843083 13.990234 19.765625 L 17.828125 18.060547 C 18.376424 18.638069 19.149244 19 20 19 C 21.645007 19 23 17.645007 23 16 C 23 14.354993 21.645007 13 20 13 C 19.197613 13 18.464623 13.322579 17.923828 13.84375 L 14.976562 12.371094 C 14.991807 12.249661 15 12.125267 15 12 C 15 11.085813 14.581902 10.261249 13.927734 9.7089844 L 14.943359 7 C 14.962083 7.0003524 14.981199 7 15 7 C 16.645025 7 18 5.6449915 18 4 C 18 2.3550085 16.645025 1 15 1 z M 15 3 C 15.564175 3 16 3.4358515 16 4 C 16 4.5641485 15.564175 5 15 5 C 14.891651 5 14.788109 4.9830971 14.691406 4.953125 A 1 1 0 0 0 14.650391 4.9375 A 1 1 0 0 0 14.623047 4.9296875 C 14.367933 4.8296934 14.167525 4.6305677 14.068359 4.375 A 1 1 0 0 0 14.060547 4.3417969 A 1 1 0 0 0 14.041016 4.2929688 C 14.014049 4.2007279 14 4.1025716 14 4 C 14 3.4358515 14.435825 3 15 3 z M 4 7 C 4.4265396 7 4.7788575 7.249836 4.9257812 7.6152344 A 1 1 0 0 0 4.9414062 7.6582031 C 4.9450884 7.6687347 4.9497809 7.6787485 4.953125 7.6894531 C 4.9835247 7.7867626 5 7.8908623 5 8 C 5 8.5641304 4.5641304 9 4 9 C 3.4358696 9 3 8.5641304 3 8 C 3 7.4358696 3.4358696 7 4 7 z M 12 11 C 12.111149 11 12.217574 11.01735 12.316406 11.048828 A 1 1 0 0 0 12.351562 11.0625 C 12.367747 11.068334 12.384641 11.07346 12.400391 11.080078 C 12.758021 11.230358 13 11.578974 13 12 C 13 12.14633 12.971237 12.284509 12.917969 12.408203 A 1 1 0 0 0 12.896484 12.447266 A 1 1 0 0 0 12.873047 12.498047 C 12.703797 12.800787 12.380948 13 12 13 C 11.966217 13 11.933187 12.999153 11.900391 12.996094 C 11.892489 12.995357 11.884792 12.993097 11.876953 12.992188 A 1 1 0 0 0 11.84375 12.988281 C 11.357418 12.916114 11 12.510817 11 12 C 11 11.435807 11.435807 11 12 11 z M 14.076172 14.15625 L 17.023438 15.630859 C 17.008247 15.752084 17 15.874956 17 16 C 17 16.078972 17.003638 16.156857 17.009766 16.234375 L 13.171875 17.939453 C 12.933692 17.68857 12.652781 17.477935 12.341797 17.320312 L 12.640625 14.929688 C 13.189158 14.808115 13.683495 14.534829 14.076172 14.15625 z M 20 15 C 20.564193 15 21 15.435807 21 16 C 21 16.564193 20.564193 17 20 17 C 19.606298 17 19.275536 16.788717 19.111328 16.46875 A 1 1 0 0 0 19.085938 16.40625 A 1 1 0 0 0 19.076172 16.394531 C 19.026459 16.274294 19 16.141109 19 16 C 19 15.849672 19.031826 15.708315 19.087891 15.582031 A 1 1 0 0 0 19.105469 15.552734 A 1 1 0 0 0 19.134766 15.488281 C 19.305949 15.193044 19.624666 15 20 15 z M 11 19 C 11.035406 19 11.07115 19.002503 11.105469 19.005859 A 1 1 0 0 0 11.125 19.007812 C 11.134194 19.008886 11.143238 19.01041 11.152344 19.011719 C 11.478468 19.058598 11.746044 19.253332 11.888672 19.53125 A 1 1 0 0 0 11.914062 19.59375 A 1 1 0 0 0 11.9375 19.642578 C 11.977843 19.752693 12 19.873516 12 20 C 12 20.564193 11.564193 21 11 21 C 10.435851 21 10 20.564175 10 20 C 10 19.435825 10.435851 19 11 19 z " fill="currentColor"/>
</svg>
