<svg xmlns="http://www.w3.org/2000/svg" width="1em" height="1em" viewBox="0 0 24 24" fill="currentColor">
  <path d="M 12 1 C 10.11438 1 8.6810556 0.99457301 7.4785156 1.15625 C 6.2759756 1.317927 5.2403111 1.689383 4.4648438 2.4648438 C 3.689383 3.240311 3.317927 4.2759756 3.15625 5.4785156 C 2.994573 6.6810556 3 8.11438 3 10 L 3 19.5 C 3 21.421146 4.5788434 23 6.5 23 L 21 23 A 1 1 0 0 0 22 22 A 1 1 0 0 0 21 21 C 20.15975 21 19.5 20.34025 19.5 19.5 C 19.5 18.65975 20.15975 18 21 18 A 1 1 0 0 0 21.130859 17.992188 A 1 1 0 0 0 22 17 A 1 1 0 0 0 21.998047 16.964844 A 1 1 0 0 0 22 16.927734 L 22 10 C 22 8.11438 22.005432 6.6810584 21.84375 5.4785156 C 21.682068 4.2759729 21.310634 3.2403086 20.535156 2.4648438 C 19.759713 1.6893545 18.724031 1.3179268 17.521484 1.15625 C 16.318937 0.99457318 14.8856 1 13 1 L 12 1 z M 12 3 L 13 3 C 14.8856 3 16.279881 3.0054999 17.255859 3.1367188 C 18.231837 3.2679343 18.725037 3.4828254 19.121094 3.8789062 C 19.517216 4.2750212 19.732063 4.7681734 19.863281 5.7441406 C 19.9945 6.7201079 20 8.11438 20 10 L 20 16 L 6.5 16 C 5.9644737 16 5.455546 16.123218 5 16.341797 L 5 10 C 5 8.11438 5.0055033 6.7201106 5.1367188 5.7441406 C 5.2679343 4.7681706 5.482797 4.2750188 5.8789062 3.8789062 C 6.2750189 3.482797 6.7681706 3.2679342 7.7441406 3.1367188 C 8.7201106 3.0055032 10.11438 3 12 3 z M 12.5 4.5 C 11.548433 4.5 10.800791 5.0372215 10.25 5.7382812 C 9.9941806 5.6670652 9.7758187 5.5078125 9.5 5.5078125 C 7.8502525 5.5078125 6.5 6.8753857 6.5 8.5253906 C 6.5 9.8675247 7.3370342 11.01185 8.5 11.451172 L 8.5 11.5 C 8.5 11.9714 8.4930799 12.344872 8.5449219 12.730469 C 8.5967639 13.116065 8.7498234 13.577936 9.0859375 13.914062 C 9.4220616 14.250174 9.8839311 14.403234 10.269531 14.455078 C 10.655132 14.506922 11.0286 14.5 11.5 14.5 L 13.5 14.5 C 13.9714 14.5 14.344869 14.506898 14.730469 14.455078 C 15.116069 14.403238 15.57794 14.250184 15.914062 13.914062 C 16.250184 13.577939 16.403234 13.116069 16.455078 12.730469 C 16.506922 12.344867 16.5 11.9714 16.5 11.5 L 16.5 11.119141 C 17.60883 10.672574 18.5 9.7834426 18.5 8.5253906 C 18.5 6.8754037 17.149763 5.5078125 15.5 5.5078125 C 15.224172 5.5078125 15.005822 5.6670625 14.75 5.7382812 C 14.199209 5.0372215 13.451567 4.5 12.5 4.5 z M 12.5 6.5 C 12.94181 6.5 13.30569 6.7820177 13.443359 7.1777344 C 13.480032 7.2832261 13.5 7.3961023 13.5 7.5175781 A 1 1 0 0 0 14.5 8.5175781 A 1 1 0 0 0 15.5 7.5175781 L 15.5 7.515625 C 15.49982 7.5148159 15.498291 7.5105594 15.498047 7.5097656 L 15.498047 7.5078125 L 15.5 7.5078125 C 16.059437 7.5078125 16.5 7.9468376 16.5 8.5253906 C 16.5 9.0719004 16.037585 9.5390625 15.5 9.5390625 A 1.0001 1.0001 0 0 0 14.5 10.539062 L 14.5 11.5 C 14.5 11.9714 14.493996 12.305819 14.472656 12.464844 C 14.47234 12.467193 14.47296 12.470411 14.472656 12.472656 C 14.470411 12.47296 14.467192 12.47234 14.464844 12.472656 C 14.305823 12.494029 13.9714 12.5 13.5 12.5 L 11.5 12.5 C 11.0286 12.5 10.694183 12.493996 10.535156 12.472656 C 10.532807 12.47234 10.529589 12.47296 10.527344 12.472656 C 10.52704 12.470411 10.52766 12.467192 10.527344 12.464844 C 10.505971 12.305819 10.5 11.9714 10.5 11.5 L 10.5 10.664062 A 1.0001 1.0001 0 0 0 9.5 9.6640625 C 8.828732 9.6640625 8.5 9.3569697 8.5 8.5253906 C 8.5 7.9468555 8.9406075 7.5078125 9.5 7.5078125 C 9.7084826 7.5078125 9.8936146 7.5701085 10.052734 7.6777344 A 1.0001 1.0001 0 0 0 11.556641 7.1777344 C 11.69431 6.7820177 12.05819 6.5 12.5 6.5 z M 6.5 18 L 17.841797 18 C 17.623218 18.455547 17.5 18.964474 17.5 19.5 C 17.5 20.035526 17.623218 20.544453 17.841797 21 L 6.5 21 C 5.6597382 21 5.0000025 20.340252 5 19.5 C 5 18.659746 5.6597366 18 6.5 18 z " fill="currentColor"/>
</svg>
