<svg xmlns="http://www.w3.org/2000/svg" width="1em" height="1em" viewBox="0 0 24 24" fill="currentColor">
  <path d="M 12.111328 1 C 6.2487457 1.0218742 1 5.8216385 1 11.994141 C 1 18.06313 5.9661624 23 12.058594 23 C 17.448824 23 21.95748 19.147589 22.923828 14.044922 C 23.001368 13.635629 23.039837 13.269095 22.953125 12.867188 C 22.866405 12.465279 22.574369 12.045632 22.246094 11.833984 C 21.589544 11.410688 21.079685 11.464024 20.482422 11.359375 C 19.900065 11.257423 19.3787 10.878528 19.185547 10.28125 C 19.067832 9.917235 18.957073 9.4917784 18.488281 9.1660156 C 18.01949 8.8402529 17.639674 8.8822554 17.277344 8.8671875 C 16.894216 8.851258 16.497345 8.61566 16.267578 8.3007812 C 16.037811 7.9859023 15.994724 7.6937147 16.109375 7.4472656 C 16.225222 7.1983606 16.4422 6.8991366 16.3125 6.3320312 C 16.1828 5.764926 15.842656 5.576657 15.621094 5.4042969 C 15.271205 5.1321323 15.001593 4.4411522 15.089844 3.7539062 C 15.157094 3.2297885 15.329786 2.781451 15.037109 2.09375 C 14.890771 1.7498995 14.561279 1.4419923 14.246094 1.2949219 C 13.930909 1.1478514 13.630357 1.0966506 13.291016 1.0605469 C 12.896097 1.0185281 12.502167 0.99854172 12.111328 1 z M 12.119141 3 C 12.437622 2.9985078 12.758893 3.0146544 13.080078 3.0488281 C 13.141848 3.0553981 13.123479 3.0565781 13.167969 3.0644531 C 13.153559 3.1131541 13.154089 3.1191231 13.105469 3.4980469 C 12.948727 4.7186606 13.336895 5.9700259 14.269531 6.8066406 C 13.924228 7.7475353 14.119859 8.7514606 14.650391 9.4785156 C 15.218899 10.257614 16.127387 10.820914 17.193359 10.865234 C 17.222039 10.866427 17.247408 10.867343 17.271484 10.869141 C 17.274356 10.877688 17.27826 10.887238 17.28125 10.896484 C 17.721097 12.256606 18.898072 13.111277 20.136719 13.328125 C 20.699719 13.426775 20.909068 13.482793 20.978516 13.482422 C 20.975716 13.547362 20.984414 13.537422 20.958984 13.671875 C 20.169729 17.839408 16.497563 21 12.058594 21 C 7.0413847 21 3 16.976551 3 11.994141 C 3 6.9631421 7.3419163 3.0223824 12.119141 3 z M 10 5 A 1 1 0 0 0 9.2929688 5.2929688 L 8.2929688 6.2929688 A 1 1 0 0 0 8.2929688 7.7070312 A 1 1 0 0 0 9.7070312 7.7070312 L 10.707031 6.7070312 A 1 1 0 0 0 10.707031 5.2929688 A 1 1 0 0 0 10 5 z M 6 8.75 C 5.3214795 8.75 4.75 9.3214795 4.75 10 C 4.75 10.678433 5.3216244 11.25 6 11.25 C 6.6783756 11.25 7.25 10.678433 7.25 10 C 7.25 9.3214795 6.6785205 8.75 6 8.75 z M 11 10.75 C 10.321712 10.75 9.75 11.321712 9.75 12 C 9.75 12.678288 10.321712 13.25 11 13.25 C 11.678288 13.25 12.25 12.678288 12.25 12 C 12.25 11.321712 11.678288 10.75 11 10.75 z M 17 13 A 1 1 0 0 0 16.292969 13.292969 L 15.292969 14.292969 A 1 1 0 0 0 15.292969 15.707031 A 1 1 0 0 0 16.707031 15.707031 L 17.707031 14.707031 A 1 1 0 0 0 17.707031 13.292969 A 1 1 0 0 0 17 13 z M 7 14 A 1 1 0 0 0 6.2929688 14.292969 A 1 1 0 0 0 6.2929688 15.707031 L 7.2929688 16.707031 A 1 1 0 0 0 8.7070312 16.707031 A 1 1 0 0 0 8.7070312 15.292969 L 7.7070312 14.292969 A 1 1 0 0 0 7 14 z M 11.998047 17 A 1 1 0 0 0 10.998047 18 A 1 1 0 0 0 11.998047 19 L 12.007812 19 A 1 1 0 0 0 13.007812 18 A 1 1 0 0 0 12.007812 17 L 11.998047 17 z " fill="currentColor"/>
</svg>
