<svg xmlns="http://www.w3.org/2000/svg" width="1em" height="1em" viewBox="0 0 24 24" fill="currentColor">
  <path d="M 4.6582031 6 C 2.6816486 6 1 7.5445374 1 9.5 L 1 14.5 C 1 16.455457 2.681644 18 4.6582031 18 C 6.0205189 18 7.2346511 17.285653 7.8671875 16.183594 A 1 1 0 0 0 7.4980469 14.818359 A 1 1 0 0 0 6.1328125 15.1875 C 5.8669889 15.650641 5.3200473 16 4.6582031 16 C 3.6980022 16 3 15.305943 3 14.5 L 3 9.5 C 3 8.6940426 3.6979977 8 4.6582031 8 C 5.320021 8 5.866985 8.3493643 6.1328125 8.8125 A 1 1 0 0 0 7.4980469 9.1816406 A 1 1 0 0 0 7.8671875 7.8164062 C 7.234655 6.7143819 6.0205453 6 4.6582031 6 z M 12 6 C 10.078854 6 8.5 7.5788434 8.5 9.5 L 8.5 14.5 C 8.5 16.42115 10.07885 18 12 18 C 13.92115 18 15.5 16.42115 15.5 14.5 L 15.5 9.5 C 15.5 7.5788434 13.921146 6 12 6 z M 19 6 C 17.219867 6 16 7.686952 16 9.5 C 16 11.313041 17.219861 13 19 13 L 20 13 C 20.429061 13 21 13.551641 21 14.5 C 21 15.448359 20.429061 16 20 16 L 19.5 16 C 18.976361 16 18.429554 15.587966 18.152344 14.794922 A 1 1 0 0 0 16.878906 14.181641 A 1 1 0 0 0 16.263672 15.455078 C 16.758062 16.869434 17.973239 18 19.5 18 L 20 18 C 21.780139 18 23 16.313041 23 14.5 C 23 12.686959 21.780139 11 20 11 L 19 11 C 18.570939 11 18 10.448359 18 9.5 C 18 8.551628 18.570933 8 19 8 L 19.5 8 C 19.981514 8 20.474138 8.3381596 20.775391 9.0195312 A 1 1 0 0 0 22.09375 9.5292969 A 1 1 0 0 0 22.603516 8.2109375 C 22.052968 6.9657091 20.904086 6 19.5 6 L 19 6 z M 12 8 C 12.840254 8 13.5 8.6597366 13.5 9.5 L 13.5 14.5 C 13.5 15.34025 12.84025 16 12 16 C 11.15975 16 10.5 15.34025 10.5 14.5 L 10.5 9.5 C 10.5 8.6597366 11.159746 8 12 8 z " fill="currentColor"/>
</svg>
