<svg xmlns="http://www.w3.org/2000/svg" width="1em" height="1em" viewBox="0 0 24 24" fill="currentColor">
  <path d="M 13.554688 1.0058594 C 12.54761 1.0058608 11.539919 1.3877955 10.777344 2.1503906 C 10.454028 2.4737201 10.195428 2.8429595 10.007812 3.2363281 C 9.8755299 3.5138691 9.2546063 3.95858 9.0136719 3.9804688 C 8.02241 4.0705248 7.0490129 4.4978751 6.2929688 5.2539062 C 4.5772923 6.9695956 4.577288 9.782366 6.2929688 11.498047 C 6.4537771 11.658851 6.6689573 11.714414 6.8476562 11.845703 C 6.0804469 13.076148 6.0119582 14.627091 6.7167969 15.869141 L 1.2929688 21.292969 A 1 1 0 0 0 1.2929688 22.707031 A 1 1 0 0 0 2.7070312 22.707031 L 8.1308594 17.283203 C 9.3636096 17.982721 10.900645 17.920366 12.126953 17.169922 C 12.257462 17.347061 12.342377 17.54751 12.501953 17.707031 C 14.2176 19.422807 17.030361 19.422764 18.746094 17.707031 C 19.701281 16.751844 19.953324 15.470611 19.845703 14.214844 C 20.578063 14.066175 21.285548 13.786806 21.849609 13.222656 C 23.366917 11.705481 23.368618 9.2245831 21.867188 7.6972656 L 21.865234 7.6972656 C 21.866048 7.6956846 21.868377 7.6911876 21.869141 7.6894531 L 21.869141 7.6875 L 21.871094 7.6875 L 21.873047 7.6875 L 21.873047 7.6855469 L 21.871094 7.6835938 L 21.871094 7.6816406 C 21.870129 7.6790048 21.87007 7.6759184 21.869141 7.6738281 C 23.368592 6.1463458 23.366227 3.6669311 21.849609 2.1503906 C 20.329241 0.62997764 17.839045 0.62784639 16.3125 2.1386719 C 15.551776 1.3864289 14.554921 1.0058579 13.554688 1.0058594 z M 13.554688 2.9941406 C 14.045735 2.9941421 14.535532 3.1839932 14.916016 3.5644531 C 15.128367 3.7768577 15.278476 4.0212987 15.371094 4.2832031 C 15.610233 4.9597537 15.464534 5.7405019 14.916016 6.2890625 A 1 1 0 0 0 14.916016 7.703125 A 1 1 0 0 0 16.330078 7.703125 C 17.273781 6.7593532 17.517477 5.4534035 17.292969 4.2246094 C 17.386469 3.9869502 17.5159 3.7595407 17.710938 3.5644531 C 18.471905 2.8035332 19.674697 2.8035834 20.435547 3.5644531 C 21.196491 4.3253572 21.196486 5.5281701 20.435547 6.2890625 C 19.988093 6.736604 19.912109 7.2266303 19.912109 7.6855469 C 19.912109 8.1444635 19.988089 8.6364429 20.435547 9.0839844 C 21.196482 9.8448726 21.196467 11.047741 20.435547 11.808594 C 20.011054 12.233153 19.450551 12.414151 18.900391 12.365234 C 18.464857 12.326554 18.047247 12.144902 17.710938 11.808594 C 17.549912 11.647567 17.425452 11.468804 17.333984 11.277344 A 1 1 0 0 0 16 10.806641 A 1 1 0 0 0 15.529297 12.138672 C 15.716829 12.531212 15.974102 12.899883 16.296875 13.222656 C 16.742164 13.667945 17.336695 13.785547 17.900391 13.972656 C 18.112805 14.77443 17.967721 15.657282 17.332031 16.292969 C 16.380564 17.244436 14.867369 17.244393 13.916016 16.292969 C 13.708678 16.085702 13.549271 15.852151 13.433594 15.603516 C 13.073105 14.829046 12.066525 14.658084 11.466797 15.257812 C 10.705817 16.018792 9.5030861 16.018757 8.7421875 15.257812 C 7.9813094 14.496961 7.9812593 13.294171 8.7421875 12.533203 C 8.7956735 12.479713 8.8521266 12.428895 8.9101562 12.382812 C 9.6673556 11.7817 10.759619 11.826091 11.466797 12.533203 A 1 1 0 0 0 12.880859 12.533203 A 1 1 0 0 0 12.880859 11.119141 C 11.647102 9.8854993 9.802256 9.7058545 8.3222656 10.470703 C 8.1090586 10.360055 7.888228 10.265176 7.7070312 10.083984 C 6.7556521 9.1326055 6.7556478 7.6193594 7.7070312 6.6679688 C 8.1262873 6.2487199 8.6512944 6.0201271 9.1953125 5.9707031 C 10.391258 5.8620519 11.325935 5.1226154 11.814453 4.0976562 C 11.90598 3.9055544 12.02991 3.7259563 12.191406 3.5644531 C 12.571831 3.1840182 13.06364 2.9941392 13.554688 2.9941406 z M 21.853516 7.6738281 C 21.858565 7.6787001 21.864483 7.6854687 21.867188 7.6875 C 21.864868 7.6890165 21.859391 7.6935485 21.853516 7.6992188 C 21.855411 7.6966021 21.857493 7.6920718 21.859375 7.6894531 L 21.861328 7.6875 L 21.859375 7.6855469 L 21.857422 7.6835938 C 21.855571 7.6806409 21.855384 7.6767827 21.853516 7.6738281 z " fill="currentColor"/>
</svg>
