<svg xmlns="http://www.w3.org/2000/svg" width="1em" height="1em" viewBox="0 0 24 24" fill="currentColor">
  <path d="M 13.205078 1.0058594 C 12.044121 0.94855732 10.911735 1.385127 10.089844 2.2070312 L 2.5097656 9.7851562 C 0.50386482 11.791094 0.50386483 15.072187 2.5097656 17.078125 L 6.9199219 21.490234 A 1.0001 1.0001 0 0 0 6.921875 21.490234 C 8.9278078 23.496068 12.208893 23.496061 14.214844 21.490234 L 21.792969 13.910156 C 22.614814 13.088311 23.05143 11.955883 22.994141 10.794922 L 22.71875 5.1914062 C 22.61484 3.0850868 20.914904 1.3852239 18.808594 1.28125 L 13.205078 1.0058594 z M 12.882812 3.0019531 C 12.956739 2.9977896 13.030713 2.9982634 13.105469 3.0019531 L 18.708984 3.2792969 C 19.805474 3.3334229 20.666613 4.1945751 20.720703 5.2910156 L 20.998047 10.894531 C 21.027557 11.49257 20.802261 12.072739 20.378906 12.496094 L 12.800781 20.074219 C 11.559132 21.315792 9.5775647 21.315785 8.3359375 20.074219 L 3.9257812 15.664062 C 2.684142 14.422399 2.6841421 12.440881 3.9257812 11.199219 L 11.503906 3.6210938 C 11.874302 3.2506924 12.365327 3.031098 12.882812 3.0019531 z M 17.75 5 C 17.071567 5 16.5 5.5716244 16.5 6.25 C 16.5 6.9283756 17.071567 7.5 17.75 7.5 C 18.428433 7.5 19 6.9283756 19 6.25 C 19 5.5716244 18.428433 5 17.75 5 z M 10.976562 8.5 A 1 1 0 0 0 9.9824219 9.5058594 L 9.9921875 11.275391 L 8.4941406 10.423828 A 1 1 0 0 0 7.1308594 10.798828 A 1 1 0 0 0 7.5058594 12.162109 L 9.0214844 13.023438 L 7.5039062 13.9375 A 1 1 0 0 0 7.1621094 15.308594 A 1 1 0 0 0 8.5332031 15.650391 L 10.009766 14.761719 L 10.019531 16.505859 A 1 1 0 0 0 11.023438 17.5 A 1 1 0 0 0 12.019531 16.494141 L 12.009766 14.724609 L 13.505859 15.576172 A 1 1 0 0 0 14.869141 15.201172 A 1 1 0 0 0 14.494141 13.837891 L 12.980469 12.976562 L 14.498047 12.0625 A 1 1 0 0 0 14.839844 10.691406 A 1 1 0 0 0 13.466797 10.349609 L 11.990234 11.236328 L 11.982422 9.4941406 A 1 1 0 0 0 10.976562 8.5 z " fill="currentColor"/>
</svg>
