<svg xmlns="http://www.w3.org/2000/svg" width="1em" height="1em" viewBox="0 0 24 24" fill="currentColor">
  <path d="M 18.154297 1 C 17.730936 1 17.3066 1.0830537 16.908203 1.2480469 C 16.218055 1.5339225 15.799041 2.0076 15.056641 2.75 L 7.2832031 10.523438 C 6.7947672 11.011912 6.434032 11.337818 6.2050781 11.890625 C 5.9760679 12.44339 6 12.928341 6 13.619141 L 6 14.472656 C 6 14.485766 6.0000336 14.49875 6 14.511719 L 4.0117188 16.5 A 1 1 0 0 0 4 16.5 A 1 1 0 0 0 3.2929688 16.792969 A 1 1 0 0 0 3 17.511719 L 1.7226562 18.789062 C 0.76752201 19.744114 0.76762205 21.322226 1.7226562 22.277344 C 2.6777695 23.232374 4.2558242 23.232374 5.2109375 22.277344 L 6.4882812 21 A 1 1 0 0 0 7.2070312 20.707031 A 1 1 0 0 0 7.5 19.988281 L 9.4882812 18 C 9.5012502 17.999966 9.5142343 18 9.5273438 18 L 10.380859 18 C 11.071659 18 11.556652 18.02384 12.109375 17.794922 C 12.662002 17.565936 12.988062 17.205297 13.476562 16.716797 L 21.25 8.9433594 C 21.992398 8.200951 22.466102 7.7819893 22.751953 7.0917969 C 23.081999 6.2949963 23.082004 5.39836 22.751953 4.6015625 C 22.466105 3.9113591 21.9924 3.4924 21.25 2.75 C 20.507516 2.0076159 20.088476 1.5339461 19.398438 1.2480469 C 19.000042 1.0830537 18.577657 1 18.154297 1 z M 18.154297 3 C 18.317141 3 18.479009 3.0320063 18.632812 3.0957031 C 18.770775 3.1528641 19.093422 3.4216466 19.835938 4.1640625 C 20.578337 4.9064625 20.847145 5.2291909 20.904297 5.3671875 C 21.031646 5.67463 21.031651 6.0187125 20.904297 6.3261719 C 20.847147 6.4641594 20.578339 6.7868853 19.835938 7.5292969 L 12.0625 15.302734 C 11.574 15.791234 11.412323 15.918852 11.34375 15.947266 C 11.275473 15.975544 11.071659 16 10.380859 16 L 9.5273438 16 C 9.1854301 16 9.047589 15.987289 9.0136719 15.986328 C 8.9891468 15.963106 8.8823797 15.87461 8.640625 15.632812 L 8.3671875 15.359375 C 8.1254546 15.117672 8.0369279 15.010903 8.0136719 14.986328 C 8.0127407 14.952485 8 14.81468 8 14.472656 L 8 13.619141 C 8 12.928341 8.0244654 12.724485 8.0527344 12.65625 C 8.0810604 12.58786 8.2087815 12.426024 8.6972656 11.9375 L 16.470703 4.1640625 C 17.213103 3.4216625 17.535776 3.1528875 17.673828 3.0957031 C 17.827632 3.0320063 17.991453 3 18.154297 3 z M 18.5 15 C 16.578848 15 15 16.578848 15 18.5 C 15 20.421152 16.578848 22 18.5 22 C 20.421152 22 22 20.421152 22 18.5 C 22 16.578848 20.421152 15 18.5 15 z M 6.7597656 16.580078 C 6.8222547 16.642513 6.8863332 16.706654 6.953125 16.773438 L 7.2265625 17.046875 C 7.2933498 17.113675 7.3574967 17.177746 7.4199219 17.240234 L 6.2871094 18.373047 L 5.6269531 17.712891 L 6.7597656 16.580078 z M 18.5 17 C 19.340272 17 20 17.659728 20 18.5 C 20 19.340272 19.340272 20 18.5 20 C 17.659728 20 17 19.340272 17 18.5 C 17 17.659728 17.659728 17 18.5 17 z M 4.2128906 19.126953 L 4.8730469 19.787109 L 3.796875 20.863281 C 3.6060883 21.054051 3.3275055 21.054051 3.1367188 20.863281 C 2.9458529 20.672399 2.945953 20.393874 3.1367188 20.203125 L 4.2128906 19.126953 z " fill="currentColor"/>
</svg>
