<svg xmlns="http://www.w3.org/2000/svg" width="1em" height="1em" viewBox="0 0 24 24" fill="currentColor">
  <path d="M 4 1 A 1 1 0 0 0 3 2 L 3 3 L 2 3 A 1 1 0 0 0 1 4 A 1 1 0 0 0 2 5 L 4 5 L 12 5 C 13.8856 5 15.279882 5.0055 16.255859 5.1367188 C 17.231836 5.2679355 17.725036 5.4828214 18.121094 5.8789062 C 18.517212 6.2750145 18.732063 6.7681734 18.863281 7.7441406 C 18.9945 8.7201079 19 10.114385 19 12 L 19 20 L 19 22 A 1 1 0 0 0 20 23 A 1 1 0 0 0 21 22 L 21 21 L 22 21 A 1 1 0 0 0 23 20 A 1 1 0 0 0 22 19 L 21 19 L 21 12 C 21 10.114385 21.005432 8.6810584 20.84375 7.4785156 C 20.682068 6.2759729 20.310638 5.2403055 19.535156 4.4648438 C 18.759714 3.6893487 17.724032 3.3179283 16.521484 3.15625 C 15.318936 2.9945717 13.8856 3 12 3 L 5 3 L 5 2 A 1 1 0 0 0 4 1 z M 4 6.5 A 1 1 0 0 0 3 7.5 L 3 14 C 3 15.4142 2.99407 16.495558 3.1191406 17.425781 C 3.2442065 18.356004 3.5428648 19.199101 4.171875 19.828125 C 4.8008908 20.457155 5.6439898 20.75579 6.5742188 20.880859 C 7.5044479 21.005928 8.585785 21 10 21 L 16.5 21 A 1 1 0 0 0 17.5 20 A 1 1 0 0 0 16.5 19 L 10 19 C 8.585785 19 7.5454503 18.993043 6.8417969 18.898438 C 6.1381434 18.803832 5.8356017 18.663732 5.5859375 18.414062 C 5.3362677 18.164388 5.1961666 17.861855 5.1015625 17.158203 C 5.0069584 16.454551 5 15.4142 5 14 L 5 7.5 A 1 1 0 0 0 4 6.5 z " fill="currentColor"/>
</svg>
