<svg xmlns="http://www.w3.org/2000/svg" width="1em" height="1em" viewBox="0 0 24 24" fill="currentColor">
  <path d="M 12 1 C 5.9367104 1 1 5.9367104 1 12 C 1 13.99964 1.5366379 15.881866 2.4726562 17.5 A 1 1 0 0 0 3.8378906 17.865234 A 1 1 0 0 0 4.203125 16.5 C 3.4374434 15.176334 3 13.64316 3 12 C 3 7.0175896 7.0175896 3 12 3 C 16.982356 3 21 7.0175956 21 12 C 21 13.643149 20.562523 15.176315 19.796875 16.5 A 1 1 0 0 0 20.162109 17.865234 A 1 1 0 0 0 21.527344 17.5 C 22.463296 15.881885 23 13.999651 23 12 C 23 5.9367044 18.063244 1 12 1 z M 8.2070312 8.5 C 7.4894362 8.5 6.8003734 8.7855641 6.2929688 9.2929688 A 1 1 0 0 0 6.2929688 10.707031 A 1 1 0 0 0 7.7070312 10.707031 C 7.8399067 10.574156 8.0191062 10.5 8.2070312 10.5 L 9.5 10.5 A 1 1 0 0 0 10.5 9.5 A 1 1 0 0 0 9.5 8.5 L 8.2070312 8.5 z M 14.5 8.5 A 1 1 0 0 0 13.5 9.5 A 1 1 0 0 0 14.5 10.5 L 15.792969 10.5 C 15.980799 10.5 16.160228 10.57427 16.292969 10.707031 A 1 1 0 0 0 17.707031 10.707031 A 1 1 0 0 0 17.707031 9.2929688 C 17.199572 8.7854462 16.510539 8.5 15.792969 8.5 L 14.5 8.5 z M 6 12 A 1 1 0 0 0 5 13 L 5 22 A 1 1 0 0 0 6 23 A 1 1 0 0 0 7 22 L 7 13 A 1 1 0 0 0 6 12 z M 18 12 A 1 1 0 0 0 17 13 L 17 22 A 1 1 0 0 0 18 23 A 1 1 0 0 0 19 22 L 19 13 A 1 1 0 0 0 18 12 z M 12 14 C 10.654073 14 9.4005857 14.448268 8.3984375 15.201172 A 1 1 0 0 0 8.2011719 16.599609 A 1 1 0 0 0 9.6015625 16.798828 C 10.270674 16.296132 11.094727 16 12 16 C 12.905273 16 13.729375 16.296151 14.398438 16.798828 A 1 1 0 0 0 15.798828 16.599609 A 1 1 0 0 0 15.601562 15.201172 C 14.599424 14.448249 13.345927 14 12 14 z M 8.4648438 20.371094 A 1 1 0 0 0 7.5625 21.019531 A 1 1 0 0 0 8.1503906 22.306641 C 9.3495042 22.754768 10.648231 23 12 23 C 13.351769 23 14.650512 22.754775 15.849609 22.306641 A 1 1 0 0 0 16.4375 21.019531 A 1 1 0 0 0 15.150391 20.433594 C 14.170888 20.79966 13.110831 21 12 21 C 10.889169 21 9.8291558 20.799666 8.8496094 20.433594 A 1 1 0 0 0 8.4648438 20.371094 z " fill="currentColor"/>
</svg>
