<svg xmlns="http://www.w3.org/2000/svg" width="1em" height="1em" viewBox="0 0 24 24" fill="currentColor">
  <path d="M 12.982422 1.0019531 C 12.218802 1.0032531 12.054664 1.327663 11.785156 1.5664062 C 11.515648 1.8051495 11.264247 2.0786046 11.03125 2.3476562 C 10.565256 2.8857595 10.181641 3.4101561 10.181641 3.4101562 A 1 1 0 0 0 10.394531 4.8085938 A 1 1 0 0 0 11.792969 4.59375 C 11.792969 4.59375 11.874776 4.4919284 11.884766 4.4785156 C 11.870696 4.5612066 11.906149 4.6317898 11.886719 4.7128906 C 11.696945 5.5029395 11.309457 6.1909965 10.335938 6.7128906 A 1.0001 1.0001 0 0 0 10.275391 6.75 C 9.8859743 6.995853 8.5401306 7.0400883 6.8535156 7.0429688 A 1.0001 1.0001 0 0 0 6.8027344 7.0449219 C 6.2151001 7.0755405 5.5914551 7.2882109 5.015625 7.7773438 C 4.4397949 8.2664767 3.9748935 9.1030252 3.9980469 10.105469 C 4.0208369 11.092439 4.4945764 11.891303 5.0566406 12.349609 C 5.6187049 12.807915 6.2060895 12.984743 6.6992188 13.03125 A 1.0001 1.0001 0 0 0 6.7949219 13.037109 L 16.904297 13.019531 A 1.0001 1.0001 0 0 0 16.919922 13.019531 C 17.144285 13.015331 17.478622 13.099341 17.673828 13.244141 C 17.869034 13.38894 18.001123 13.527793 18.001953 14.011719 C 18.002704 14.455971 17.868795 14.60858 17.652344 14.759766 C 17.435893 14.910951 17.081922 14.984382 16.837891 14.953125 A 1.0001 1.0001 0 0 0 16.835938 14.953125 C 15.360995 14.764287 13.793821 14.868765 12.462891 15.619141 C 11.167614 16.349411 10.237006 17.782801 10.060547 19.708984 C 9.997933 19.627131 9.8183594 19.408203 9.8183594 19.408203 A 1 1 0 0 0 8.4199219 19.199219 A 1 1 0 0 0 8.2109375 20.597656 C 8.2109375 20.597656 8.5966435 21.121453 9.0644531 21.658203 C 9.2983579 21.926578 9.5500017 22.199573 9.8203125 22.4375 C 9.9273623 22.53173 10.177448 22.564454 10.294922 22.660156 A 1 1 0 0 0 11.005859 22.992188 A 1 1 0 0 0 11.021484 22.998047 L 11.023438 22.998047 L 11.023438 22.996094 C 11.780962 22.992694 11.946249 22.671641 12.214844 22.433594 C 12.484329 22.194757 12.735755 21.921507 12.96875 21.652344 C 13.434739 21.114017 13.820312 20.587891 13.820312 20.587891 A 1 1 0 0 0 13.605469 19.189453 A 1 1 0 0 0 12.207031 19.404297 C 12.207031 19.404297 12.155954 19.467786 12.152344 19.472656 C 12.346649 18.400596 12.774061 17.739776 13.445312 17.361328 C 14.235231 16.915975 15.392774 16.785238 16.582031 16.9375 C 17.3217 17.03224 18.114529 16.87835 18.798828 16.400391 C 19.483127 15.922426 20.003702 15.04316 20.001953 14.007812 C 20.000153 12.976138 19.506603 12.11247 18.865234 11.636719 C 18.223865 11.160968 17.509949 11.007747 16.882812 11.019531 L 6.8769531 11.037109 C 6.7806668 11.026111 6.4978658 10.945558 6.3203125 10.800781 C 6.1396717 10.653487 6.0083068 10.502924 5.9980469 10.058594 C 5.9881402 9.6296767 6.117417 9.4648333 6.3105469 9.3007812 C 6.5018534 9.1382778 6.8157074 9.0488767 6.9023438 9.0429688 C 8.4790683 9.0447987 9.9979946 9.2621489 11.314453 8.4472656 C 12.764255 7.6533043 13.54344 6.3811238 13.832031 5.1796875 C 13.926711 4.7855361 13.812591 4.5242916 13.832031 4.1542969 C 13.953752 4.3102461 14.181641 4.5898438 14.181641 4.5898438 A 1 1 0 0 0 15.580078 4.7988281 A 1 1 0 0 0 15.791016 3.4003906 C 15.791016 3.4003906 15.403376 2.8763394 14.935547 2.3398438 C 14.701632 2.0715958 14.449992 1.7983592 14.179688 1.5605469 C 13.909382 1.3227346 13.74613 1.0006486 12.982422 1.0019531 z " fill="currentColor"/>
</svg>
