<svg xmlns="http://www.w3.org/2000/svg" width="1em" height="1em" viewBox="0 0 24 24" fill="currentColor">
  <path d="M 12 1 C 5.9367104 1 1 5.9367104 1 12 L 1 16 A 1 1 0 0 0 1.0019531 16.054688 C 1.0065725 16.385684 1.0525011 16.716507 1.140625 17.039062 C 1.4960335 18.340044 2.4363807 19.173717 2.96875 19.820312 C 3.1587278 20.051053 3.3822223 20.337687 3.7421875 20.59375 C 4.1021527 20.849813 4.637039 21.036434 5.1835938 20.992188 C 5.6554395 20.953997 5.9651065 20.784604 6.4140625 20.580078 C 6.7534698 20.425547 7.0077351 20.33009 7.2929688 20.082031 C 7.6237613 19.794361 7.8349251 19.394893 7.9199219 19.050781 C 8.0049186 18.70667 8 18.42232 8 18.195312 L 8 13.804688 C 8 13.577727 8.004921 13.293317 7.9199219 12.949219 C 7.8349228 12.605121 7.6237613 12.205639 7.2929688 11.917969 C 7.0077351 11.66991 6.7533958 11.574519 6.4140625 11.419922 A 1.0001 1.0001 0 0 0 6.4140625 11.417969 C 5.9651625 11.213569 5.6554396 11.046 5.1835938 11.007812 C 4.6103125 10.961412 4.0562805 11.171869 3.6933594 11.443359 C 3.3805056 11.677396 3.1720421 11.929366 3 12.140625 L 3 12 C 3 7.0175896 7.0175896 3 12 3 C 16.982356 3 21 7.0175956 21 12 L 21 12.132812 C 20.844209 11.917529 20.598888 11.562818 20.107422 11.287109 C 19.712306 11.065383 19.264565 10.971605 18.816406 11.007812 C 18.344549 11.046003 18.034868 11.213455 17.585938 11.417969 C 17.19668 11.595294 16.402119 11.934322 16.105469 12.8125 C 15.980932 13.181321 16 13.458987 16 13.804688 L 16 18.195312 C 16 18.541013 15.98093 18.818679 16.105469 19.1875 C 16.402119 20.065678 17.19668 20.404706 17.585938 20.582031 C 18.034869 20.786545 18.344549 20.953999 18.816406 20.992188 C 19.264565 21.028398 19.712306 20.934617 20.107422 20.712891 C 20.526284 20.47779 20.730144 20.186021 21.03125 19.820312 C 21.563699 19.173633 22.504027 18.340029 22.859375 17.039062 C 22.947567 16.716306 22.993474 16.385876 22.998047 16.054688 A 1 1 0 0 0 23 16 L 23 12 C 23 5.9367044 18.063244 1 12 1 z M 4.9609375 12.996094 C 4.9715571 12.995574 4.9890478 12.999116 5.0234375 13.001953 C 5.0065042 13.001945 5.1479427 13.039738 5.5839844 13.238281 C 5.8389931 13.354461 5.9509319 13.41834 5.9785156 13.431641 C 5.9875688 13.469608 6 13.59822 6 13.804688 L 6 18.195312 C 6 18.40186 5.9875737 18.53231 5.9785156 18.570312 C 5.9509257 18.583637 5.8389574 18.645628 5.5839844 18.761719 C 5.1351403 18.966193 4.9963918 19.000236 5.0234375 18.998047 C 4.9836972 19.001284 4.9669896 19.005129 4.9570312 19.003906 L 4.9550781 19.001953 L 4.953125 19.001953 L 4.9511719 19.001953 C 4.9423862 18.997626 4.9327027 18.986439 4.9023438 18.964844 C 4.8329518 18.915484 4.6928209 18.768788 4.5117188 18.548828 C 3.866708 17.765423 3.2164309 17.055691 3.0683594 16.513672 C 3.025429 16.356536 3.0031081 16.19677 3 16.037109 C 2.9997597 16.024767 3.0000023 16.012343 3 16 L 3 15.935547 C 3.0050219 15.784766 3.0278102 15.634749 3.0683594 15.486328 C 3.1594024 15.153066 3.5214638 14.653613 4.4648438 13.507812 C 4.6615626 13.268911 4.8110411 13.104456 4.890625 13.044922 C 4.930167 13.015339 4.9417095 13.002375 4.953125 12.998047 L 4.9550781 12.998047 C 4.9566155 12.99775 4.9591676 12.99618 4.9609375 12.996094 z M 18.976562 13 C 19.033403 12.9954 19.092422 13.01078 19.128906 13.03125 C 19.116396 13.02425 19.278193 13.195758 19.535156 13.507812 C 20.478449 14.653604 20.840593 15.15305 20.931641 15.486328 C 20.972184 15.634705 20.99497 15.784799 21 15.935547 L 21 16 C 20.999998 16.012368 21.000241 16.024742 21 16.037109 C 20.996884 16.196742 20.974566 16.356576 20.931641 16.513672 C 20.783589 17.055705 20.133233 17.765508 19.488281 18.548828 C 19.244278 18.845182 19.133433 18.952688 19.121094 18.970703 L 19.121094 18.972656 C 19.084343 18.991071 19.029627 19.004285 18.976562 19 C 19.003622 19.0022 18.864885 18.9662 18.416016 18.761719 C 18.105424 18.62023 18.03061 18.58078 18.009766 18.5625 C 18.010092 18.536877 18 18.429774 18 18.195312 L 18 13.804688 C 18 13.570185 18.010097 13.463096 18.009766 13.4375 C 18.030632 13.419213 18.105529 13.379729 18.416016 13.238281 C 18.864885 13.033795 19.003621 12.99781 18.976562 13 z M 9.4824219 20 A 1 1 0 0 0 8.78125 20.304688 A 1 1 0 0 0 8.8046875 21.71875 C 10.573922 23.427246 13.426078 23.427246 15.195312 21.71875 A 1 1 0 0 0 15.21875 20.304688 A 1 1 0 0 0 13.804688 20.28125 C 12.812522 21.239354 11.187477 21.239354 10.195312 20.28125 A 1 1 0 0 0 9.4824219 20 z " fill="currentColor"/>
</svg>
