<svg xmlns="http://www.w3.org/2000/svg" width="1em" height="1em" viewBox="0 0 24 24" fill="currentColor">
  <path d="M 12 1 C 10.511202 1 9.1614238 1.2311339 8.09375 1.6582031 C 7.5599131 1.8717377 7.0902321 2.1298985 6.7050781 2.4941406 C 6.355163 2.8250572 6.0590609 3.2911561 6.0078125 3.8339844 C 6.0077515 3.8346302 6.0078728 3.8352914 6.0078125 3.8359375 L 2.5371094 16.230469 A 1 1 0 0 0 2.5117188 16.351562 C 2.1960329 16.843 2 17.402333 2 18 C 2 18.856278 2.4015768 19.635753 2.9824219 20.246094 C 3.5632669 20.856434 4.3298763 21.341922 5.2304688 21.742188 C 7.031654 22.54272 9.3946195 23 12 23 C 14.6054 23 16.96835 22.54272 18.769531 21.742188 C 19.670122 21.341922 20.436736 20.856435 21.017578 20.246094 C 21.59842 19.635753 22 18.856275 22 18 C 22 17.402336 21.803966 16.842999 21.488281 16.351562 A 1 1 0 0 0 21.462891 16.230469 L 17.992188 3.8359375 C 17.992127 3.8352914 17.992248 3.8346302 17.992188 3.8339844 C 17.940939 3.2911546 17.644838 2.8250563 17.294922 2.4941406 C 16.909766 2.1298993 16.440088 1.8717374 15.90625 1.6582031 C 14.838575 1.2311345 13.488789 1 12 1 z M 12 3 C 13.272611 3 14.422087 3.216883 15.164062 3.5136719 C 15.535049 3.6620663 15.799046 3.8329535 15.919922 3.9472656 C 15.942662 3.9687705 15.960012 3.9862322 15.972656 4 C 15.960012 4.0137678 15.942663 4.0312293 15.919922 4.0527344 C 15.799048 4.1670469 15.535049 4.3379337 15.164062 4.4863281 C 14.422087 4.783117 13.272611 5 12 5 C 10.727378 5 9.5779087 4.7831164 8.8359375 4.4863281 C 8.4649519 4.337934 8.2009523 4.1670457 8.0800781 4.0527344 C 8.0573382 4.0312291 8.0399879 4.0137677 8.0273438 4 C 8.0399879 3.9862323 8.0573382 3.9687709 8.0800781 3.9472656 C 8.2009523 3.8329543 8.4649519 3.662066 8.8359375 3.5136719 C 9.5779087 3.2168836 10.727378 3 12 3 z M 7.4648438 6.0488281 C 7.6625655 6.1570051 7.8725484 6.2533163 8.09375 6.3417969 C 9.1614238 6.7688661 10.511202 7 12 7 C 13.488789 7 14.838575 6.7688655 15.90625 6.3417969 C 16.127452 6.2533165 16.337435 6.1570052 16.535156 6.0488281 L 18.84375 14.291016 C 18.819338 14.279948 18.794145 14.268752 18.769531 14.257812 C 16.96835 13.45728 14.6054 13 12 13 C 9.3946195 13 7.0316539 13.457281 5.2304688 14.257812 C 5.205855 14.268752 5.1806625 14.279948 5.15625 14.291016 L 7.4648438 6.0488281 z M 12 15 C 14.3652 15 16.500863 15.438745 17.957031 16.085938 C 18.685116 16.409534 19.238357 16.786051 19.568359 17.132812 C 19.898361 17.479574 20 17.751725 20 18 C 20 18.248275 19.898361 18.520426 19.568359 18.867188 C 19.238357 19.213949 18.685116 19.590467 17.957031 19.914062 C 16.500863 20.561255 14.3652 21 12 21 C 9.6348205 21 7.4991437 20.561256 6.0429688 19.914062 C 5.3148813 19.590466 4.7616456 19.21395 4.4316406 18.867188 C 4.1016357 18.520425 4 18.248272 4 18 C 4 17.751728 4.1016357 17.479575 4.4316406 17.132812 C 4.7616456 16.78605 5.3148814 16.409534 6.0429688 16.085938 C 7.4991436 15.438744 9.6348205 15 12 15 z " fill="currentColor"/>
</svg>
