<svg xmlns="http://www.w3.org/2000/svg" width="1em" height="1em" viewBox="0 0 24 24" fill="currentColor">
  <path d="M 6.75 2 C 4.1384912 2 2 4.1384912 2 6.75 C 2 9.3615088 4.1384912 11.5 6.75 11.5 C 9.3615088 11.5 11.5 9.3615088 11.5 6.75 C 11.5 4.1384912 9.3615088 2 6.75 2 z M 17.25 2 A 1 1 0 0 0 16.25 3 L 16.25 3.5410156 C 16.050252 3.6035066 15.865987 3.6732901 15.683594 3.7695312 L 15.304688 3.390625 A 1 1 0 0 0 13.890625 3.390625 A 1 1 0 0 0 13.890625 4.8046875 L 14.269531 5.1835938 C 14.173252 5.3660149 14.103532 5.5502117 14.041016 5.75 L 13.5 5.75 A 1 1 0 0 0 12.5 6.75 A 1 1 0 0 0 13.5 7.75 L 14.041016 7.75 C 14.103506 7.9497485 14.173294 8.1340175 14.269531 8.3164062 L 13.890625 8.6953125 A 1 1 0 0 0 13.890625 10.109375 A 1 1 0 0 0 15.304688 10.109375 L 15.683594 9.7304688 C 15.866017 9.8267513 16.050209 9.8964655 16.25 9.9589844 L 16.25 10.5 A 1 1 0 0 0 17.25 11.5 A 1 1 0 0 0 18.25 10.5 L 18.25 9.9589844 C 18.449791 9.8964654 18.633983 9.8267513 18.816406 9.7304688 L 19.195312 10.109375 A 1 1 0 0 0 20.609375 10.109375 A 1 1 0 0 0 20.609375 8.6953125 L 20.230469 8.3164062 C 20.326706 8.1340175 20.396494 7.9497485 20.458984 7.75 L 21 7.75 A 1 1 0 0 0 22 6.75 A 1 1 0 0 0 21 5.75 L 20.458984 5.75 C 20.396468 5.5502117 20.326748 5.3660148 20.230469 5.1835938 L 20.609375 4.8046875 A 1 1 0 0 0 20.609375 3.390625 A 1 1 0 0 0 19.195312 3.390625 L 18.816406 3.7695312 C 18.634013 3.67329 18.449748 3.6035068 18.25 3.5410156 L 18.25 3 A 1 1 0 0 0 17.25 2 z M 6.75 4 C 8.2806312 4 9.5 5.2193688 9.5 6.75 C 9.5 8.2806312 8.2806312 9.5 6.75 9.5 C 5.2193688 9.5 4 8.2806312 4 6.75 C 4 5.2193688 5.2193688 4 6.75 4 z M 17.25 5.3398438 C 17.645398 5.3398438 17.991535 5.4955176 18.248047 5.7519531 C 18.504499 6.0083814 18.660156 6.3544935 18.660156 6.75 C 18.660156 7.1454098 18.504399 7.4916129 18.248047 7.7480469 C 17.991546 8.0045714 17.645559 8.1601563 17.25 8.1601562 C 16.854441 8.1601562 16.508454 8.0045714 16.251953 7.7480469 C 15.995601 7.4916129 15.839844 7.1454098 15.839844 6.75 C 15.839844 6.3544935 15.995501 6.0083814 16.251953 5.7519531 C 16.508465 5.4955176 16.854602 5.3398438 17.25 5.3398438 z M 6.75 12.5 C 4.1385008 12.5 2 14.638469 2 17.25 C 2 19.861531 4.1385008 22 6.75 22 C 9.3614992 22 11.5 19.861531 11.5 17.25 C 11.5 14.638469 9.3614992 12.5 6.75 12.5 z M 17.25 12.5 C 14.638479 12.5 12.5 14.638479 12.5 17.25 C 12.5 19.861521 14.638479 22 17.25 22 C 19.861521 22 22 19.861521 22 17.25 C 22 14.638479 19.861521 12.5 17.25 12.5 z M 6.75 14.5 C 8.2806408 14.5 9.5 15.719331 9.5 17.25 C 9.5 18.780669 8.2806408 20 6.75 20 C 5.2193592 20 4 18.780669 4 17.25 C 4 15.719331 5.2193592 14.5 6.75 14.5 z M 17.25 14.5 C 18.780679 14.5 20 15.719321 20 17.25 C 20 18.780679 18.780679 20 17.25 20 C 15.719321 20 14.5 18.780679 14.5 17.25 C 14.5 15.719321 15.719321 14.5 17.25 14.5 z " fill="currentColor"/>
</svg>
