<svg xmlns="http://www.w3.org/2000/svg" width="1em" height="1em" viewBox="0 0 24 24" fill="currentColor">
  <path d="M 11 1 C 8.6895285 1 6.5964825 1.3397957 4.9921875 1.9414062 C 4.19004 2.2422116 3.5049837 2.6050965 2.9648438 3.0839844 C 2.4580022 3.5333499 2.0577987 4.1458156 2.0097656 4.859375 A 1 1 0 0 0 2 5 L 2 19 C 2 19.774508 2.4247019 20.437123 2.9648438 20.916016 C 3.5049856 21.394908 4.1900391 21.757791 4.9921875 22.058594 C 6.5964843 22.660199 8.689531 23 11 23 C 11.175444 23 11.349859 22.998241 11.523438 22.994141 A 1 1 0 0 0 12.5 21.970703 A 1 1 0 0 0 11.476562 20.994141 C 11.319339 20.997848 11.160356 21 11 21 C 8.892189 21 6.9844926 20.669717 5.6933594 20.185547 C 5.0477928 19.943462 4.5624706 19.658864 4.2929688 19.419922 C 4.0234669 19.18098 4 19.053942 4 19 L 4 14.619141 C 4.3062754 14.780917 4.6378041 14.925701 4.9921875 15.058594 C 5.3096837 15.177654 5.6463222 15.286818 6 15.384766 L 6 17 A 1 1 0 0 0 7 18 A 1 1 0 0 0 8 17 L 8 15.794922 C 8.9376067 15.928899 9.9461882 16 11 16 A 1 1 0 0 0 12 15 A 1 1 0 0 0 11 14 C 8.892189 14 6.9844926 13.669717 5.6933594 13.185547 C 5.0477928 12.943462 4.5624706 12.658864 4.2929688 12.419922 C 4.0234669 12.18098 4 12.053942 4 12 L 4 7.6191406 C 4.3062756 7.7809175 4.6378046 7.9257001 4.9921875 8.0585938 C 5.3096836 8.1776548 5.6463222 8.2868175 6 8.3847656 L 6 10 A 1 1 0 0 0 7 11 A 1 1 0 0 0 8 10 L 8 8.7949219 C 8.9376063 8.928898 9.9461877 9 11 9 C 13.310472 9 15.403518 8.6602043 17.007812 8.0585938 C 17.362196 7.9257001 17.693724 7.7809175 18 7.6191406 L 18 11.5 A 1 1 0 0 0 19 12.5 A 1 1 0 0 0 20 11.5 L 20 5 A 1 1 0 0 0 19.990234 4.859375 C 19.942201 4.1458156 19.541998 3.5333499 19.035156 3.0839844 C 18.495016 2.6050965 17.80996 2.2422116 17.007812 1.9414062 C 15.403518 1.3397956 13.310472 1 11 1 z M 11 3 C 13.107806 3 15.015505 3.3302773 16.306641 3.8144531 C 16.952208 4.056541 17.437527 4.3411359 17.707031 4.5800781 C 17.976535 4.8190203 18 4.9460798 18 5 C 18 5.05392 17.97653 5.1809797 17.707031 5.4199219 C 17.437527 5.6588641 16.952208 5.943459 16.306641 6.1855469 C 15.015505 6.6697227 13.107806 7 11 7 C 8.8921935 7 6.9844949 6.6697227 5.6933594 6.1855469 C 5.0477916 5.943459 4.5624728 5.6588641 4.2929688 5.4199219 C 4.0234647 5.1809797 4 5.0539202 4 5 C 4 4.9460798 4.0234647 4.8190203 4.2929688 4.5800781 C 4.5624728 4.3411359 5.0477916 4.056541 5.6933594 3.8144531 C 6.9844949 3.3302773 8.8921935 3 11 3 z M 17 13 C 14.250439 13 12 15.250439 12 18 C 12 20.749561 14.250439 23 17 23 C 19.749561 23 22 20.749561 22 18 C 22 15.250439 19.749561 13 17 13 z M 17 15 C 18.668639 15 20 16.331361 20 18 C 20 19.668639 18.668639 21 17 21 C 15.331361 21 14 19.668639 14 18 C 14 16.331361 15.331361 15 17 15 z M 17 15.666016 A 1 1 0 0 0 16 16.666016 L 16 17 L 15.666016 17 A 1 1 0 0 0 14.666016 18 A 1 1 0 0 0 15.666016 19 L 16 19 L 16 19.333984 A 1 1 0 0 0 17 20.333984 A 1 1 0 0 0 18 19.333984 L 18 19 L 18.333984 19 A 1 1 0 0 0 19.333984 18 A 1 1 0 0 0 18.333984 17 L 18 17 L 18 16.666016 A 1 1 0 0 0 17 15.666016 z " fill="currentColor"/>
</svg>
