<svg xmlns="http://www.w3.org/2000/svg" width="1em" height="1em" viewBox="0 0 24 24" fill="currentColor">
  <path d="M 11 1 C 8.6895285 1 6.5964825 1.3397957 4.9921875 1.9414062 C 4.19004 2.2422116 3.5049837 2.6050965 2.9648438 3.0839844 C 2.4580022 3.5333499 2.0577987 4.1458156 2.0097656 4.859375 A 1 1 0 0 0 2 5 L 2 19 C 2 19.774508 2.4247019 20.437123 2.9648438 20.916016 C 3.5049856 21.394908 4.1900391 21.757791 4.9921875 22.058594 C 6.5964843 22.660199 8.689531 23 11 23 A 1 1 0 0 0 12 22 A 1 1 0 0 0 11 21 C 8.892189 21 6.9844926 20.669717 5.6933594 20.185547 C 5.0477928 19.943462 4.5624706 19.658864 4.2929688 19.419922 C 4.0234669 19.18098 4 19.053942 4 19 L 4 14.617188 C 4.1997881 14.72245 4.4103176 14.82107 4.6308594 14.914062 C 6.0436901 15.50979 7.8857071 15.879905 9.953125 15.976562 A 1 1 0 0 0 10.998047 15.023438 A 1 1 0 0 0 10.046875 13.978516 C 8.1679829 13.890673 6.5087949 13.536337 5.4082031 13.072266 C 4.8579073 12.84023 4.4532627 12.576844 4.234375 12.365234 C 4.0154873 12.153625 4 12.049807 4 12 L 4 7.6191406 C 4.3062756 7.7809175 4.6378046 7.9257001 4.9921875 8.0585938 C 6.5964825 8.6602043 8.6895285 9 11 9 C 13.310472 9 15.403518 8.6602043 17.007812 8.0585938 C 17.362196 7.9257001 17.693724 7.7809175 18 7.6191406 L 18 11 A 1 1 0 0 0 19 12 A 1 1 0 0 0 20 11 L 20 5 A 1 1 0 0 0 19.990234 4.859375 C 19.942201 4.1458156 19.541998 3.5333499 19.035156 3.0839844 C 18.495016 2.6050965 17.80996 2.2422116 17.007812 1.9414062 C 15.403518 1.3397956 13.310472 1 11 1 z M 11 3 C 13.107806 3 15.015505 3.3302773 16.306641 3.8144531 C 16.952208 4.056541 17.437527 4.3411359 17.707031 4.5800781 C 17.976535 4.8190203 18 4.9460798 18 5 C 18 5.05392 17.97653 5.1809797 17.707031 5.4199219 C 17.437527 5.6588641 16.952208 5.943459 16.306641 6.1855469 C 15.015505 6.6697227 13.107806 7 11 7 C 8.8921935 7 6.9844949 6.6697227 5.6933594 6.1855469 C 5.0477916 5.943459 4.5624728 5.6588641 4.2929688 5.4199219 C 4.0234647 5.1809797 4 5.0539202 4 5 C 4 4.9460798 4.0234647 4.8190203 4.2929688 4.5800781 C 4.5624728 4.3411359 5.0477916 4.056541 5.6933594 3.8144531 C 6.9844949 3.3302773 8.8921935 3 11 3 z M 6.0292969 9.84375 A 1 1 0 0 0 5.0429688 10.554688 A 1 1 0 0 0 5.7128906 11.798828 C 6.3662471 11.995189 7.082285 12.15311 7.8496094 12.269531 A 1 1 0 0 0 8.9882812 11.431641 A 1 1 0 0 0 8.1503906 10.292969 C 7.466395 10.18919 6.8369129 10.050005 6.2871094 9.8847656 A 1 1 0 0 0 6.0292969 9.84375 z M 17 12 A 1 1 0 0 0 16 13 L 16 13.53125 C 15.290474 13.702821 14.684255 14.015899 14.158203 14.484375 L 13.541016 14.087891 A 1 1 0 0 0 12.158203 14.388672 A 1 1 0 0 0 12.458984 15.769531 L 13.082031 16.171875 C 12.922743 16.611374 12.666016 17.010309 12.666016 17.5 C 12.666016 17.989748 12.922722 18.38861 13.082031 18.828125 L 12.458984 19.230469 A 1 1 0 0 0 12.160156 20.611328 A 1 1 0 0 0 13.541016 20.912109 L 14.15625 20.517578 C 14.682413 20.98626 15.290252 21.297137 16 21.46875 L 16 22 A 1 1 0 0 0 17 23 A 1 1 0 0 0 18 22 L 18 21.46875 C 18.709748 21.297137 19.317587 20.98626 19.84375 20.517578 L 20.458984 20.912109 A 1 1 0 0 0 21.839844 20.611328 A 1 1 0 0 0 21.541016 19.230469 L 20.917969 18.828125 C 21.077278 18.38861 21.333984 17.989748 21.333984 17.5 C 21.333984 17.010309 21.077257 16.611374 20.917969 16.171875 L 21.541016 15.769531 A 1 1 0 0 0 21.841797 14.388672 A 1 1 0 0 0 20.458984 14.087891 L 19.841797 14.484375 C 19.315745 14.015899 18.709526 13.702821 18 13.53125 L 18 13 A 1 1 0 0 0 17 12 z M 17 15.285156 C 17.829416 15.285156 18.539441 15.692694 18.951172 16.287109 C 19.194626 16.638482 19.333984 17.048475 19.333984 17.5 C 19.333984 17.951424 19.194705 18.361334 18.951172 18.712891 C 18.539322 19.30731 17.829345 19.714844 17 19.714844 C 16.170655 19.714844 15.460678 19.30731 15.048828 18.712891 C 14.805295 18.361334 14.666016 17.951424 14.666016 17.5 C 14.666016 17.048475 14.805374 16.638482 15.048828 16.287109 C 15.460559 15.692694 16.170584 15.285156 17 15.285156 z M 6.0292969 16.84375 A 1 1 0 0 0 5.0429688 17.554688 A 1 1 0 0 0 5.7128906 18.798828 C 6.3662471 18.995189 7.082285 19.15311 7.8496094 19.269531 A 1 1 0 0 0 8.9882812 18.431641 A 1 1 0 0 0 8.1503906 17.292969 C 7.466395 17.18919 6.8369129 17.050005 6.2871094 16.884766 A 1 1 0 0 0 6.0292969 16.84375 z " fill="currentColor"/>
</svg>
