<svg xmlns="http://www.w3.org/2000/svg" width="1em" height="1em" viewBox="0 0 24 24" fill="currentColor">
  <path d="M 12 1 C 5.9367124 1 1 5.9367124 1 12 C 1 18.063288 5.9367124 23 12 23 C 18.063288 23 23 18.063288 23 12 C 23 5.9367124 18.063288 1 12 1 z M 12 3 C 16.982407 3 21 7.0175926 21 12 C 21 16.982407 16.982407 21 12 21 C 7.0175926 21 3 16.982407 3 12 C 3 7.0175926 7.0175926 3 12 3 z M 7 7 A 1 1 0 0 0 6.2929688 7.2929688 A 1 1 0 0 0 6.2929688 8.7070312 L 7.0859375 9.5 L 6.2929688 10.292969 A 1 1 0 0 0 6.2929688 11.707031 A 1 1 0 0 0 7.7070312 11.707031 L 8.5 10.914062 L 9.2929688 11.707031 A 1 1 0 0 0 10.707031 11.707031 A 1 1 0 0 0 10.707031 10.292969 L 9.9140625 9.5 L 10.707031 8.7070312 A 1 1 0 0 0 10.707031 7.2929688 A 1 1 0 0 0 9.2929688 7.2929688 L 8.5 8.0859375 L 7.7070312 7.2929688 A 1 1 0 0 0 7 7 z M 14 7 A 1 1 0 0 0 13.292969 7.2929688 A 1 1 0 0 0 13.292969 8.7070312 L 14.085938 9.5 L 13.292969 10.292969 A 1 1 0 0 0 13.292969 11.707031 A 1 1 0 0 0 14.707031 11.707031 L 15.5 10.914062 L 16.292969 11.707031 A 1 1 0 0 0 17.707031 11.707031 A 1 1 0 0 0 17.707031 10.292969 L 16.914062 9.5 L 17.707031 8.7070312 A 1 1 0 0 0 17.707031 7.2929688 A 1 1 0 0 0 16.292969 7.2929688 L 15.5 8.0859375 L 14.707031 7.2929688 A 1 1 0 0 0 14 7 z M 9 15 A 1 1 0 0 0 8 16 A 1 1 0 0 0 9 17 L 15 17 A 1 1 0 0 0 16 16 A 1 1 0 0 0 15 15 L 9 15 z " fill="currentColor"/>
</svg>
