<svg xmlns="http://www.w3.org/2000/svg" width="1em" height="1em" viewBox="0 0 24 24" fill="currentColor">
  <path d="M 16.371094 3.0039062 C 15.957948 3.0039062 15.438133 3.2073915 15.169922 3.6933594 C 14.944309 4.1017096 14.693521 4.8231035 14.671875 5.96875 C 14.662375 6.4692288 14.760835 6.9274946 14.912109 7.3457031 C 14.319913 6.7706671 13.751483 6.1577519 13.064453 5.6699219 C 13.043514 5.6550537 13.02579 5.6415789 13.009766 5.6308594 C 13.02196 5.6185394 13.031409 5.6053507 13.035156 5.5976562 L 13.037109 5.5957031 L 13.037109 5.59375 L 13.037109 5.5917969 L 13.035156 5.5917969 L 13.033203 5.5917969 L 13.03125 5.5917969 C 13.243259 5.4950237 13.557743 5.408742 13.720703 4.8066406 C 13.804833 4.4957972 13.694411 4.0774783 13.527344 3.8632812 C 13.360277 3.6490841 13.200427 3.5673101 13.070312 3.5078125 C 12.549848 3.2698223 12.179978 3.2979568 11.578125 3.3183594 C 10.500381 3.3548912 9.567715 3.7973796 8.9316406 4.0996094 C 8.2130275 3.9562658 7.4415713 3.9003193 7.0078125 3.9042969 L 7.0058594 3.9042969 C 4.4192755 3.9049735 2.5599459 5.1254406 1.4785156 6.6054688 C 0.3967853 8.0859078 1.4802974e-16 9.7547262 0 11 C 0 14.309998 1.3582641 16.866316 3.2050781 18.527344 C 5.0518922 20.188372 7.3455421 21 9.3730469 21 C 11.488271 21 12.983536 20.565304 13.962891 20.095703 C 14.533269 19.822206 14.594667 19.69458 14.845703 19.480469 C 14.923603 19.501799 14.970979 19.54032 15.064453 19.5625 C 15.437619 19.65103 15.917816 19.722665 16.515625 19.748047 C 17.289159 19.780857 17.883536 19.700977 18.378906 19.494141 C 18.874277 19.287305 19.352732 18.910792 19.4375 18.261719 C 19.48986 17.859619 19.306155 17.360314 19.0625 17.111328 C 18.818845 16.862342 18.604677 16.78521 18.5 16.736328 C 18.44513 16.710738 18.108071 16.577956 17.900391 16.484375 C 19.753651 14.259938 20.27607 11.902791 20.337891 10.244141 C 22.283296 9.8211179 23.308703 8.3972331 23.623047 7.5800781 C 23.792386 7.1397059 23.923013 6.656193 23.978516 6.1757812 C 24.006266 5.9355754 24.018326 5.6990893 23.978516 5.4296875 C 23.938701 5.1602867 23.859183 4.7917852 23.466797 4.4882812 C 23.090415 4.1971529 22.403836 4.1807 22.058594 4.3730469 C 21.784675 4.5256572 21.645437 4.6877071 21.544922 4.8535156 C 21.411492 4.9928149 21.34929 5.0484424 21.294922 5.078125 C 21.230042 5.113548 21.111508 5.1660156 20.724609 5.1660156 C 20.113999 5.1660156 19.695849 5.3984516 19.291016 5.6074219 C 19.179659 5.4602627 19.139939 5.2259921 19.011719 5.1132812 C 18.588365 4.7411353 18.149044 4.5516266 17.78125 4.3808594 C 17.735012 4.3593923 17.650711 4.2161692 17.623047 4.0644531 C 17.520759 3.5033113 17.043242 3.0039063 16.371094 3.0039062 z M 11.056641 5.5019531 C 11.035281 6.1347714 11.28391 6.8588853 11.90625 7.3007812 C 12.858124 7.9766651 13.571223 8.6480641 14.503906 9.6640625 C 15.370713 10.60829 16.362044 11.016438 16.775391 11.164062 A 1.0001 1.0001 0 0 0 18.027344 10.623047 C 18.155138 10.330777 18.388419 9.7990979 18.490234 9.2109375 A 1.0001 1.0001 0 0 0 18.037109 8.1933594 C 17.848988 8.0751189 17.447412 7.7462856 17.152344 7.3417969 C 16.857275 6.9373081 16.662929 6.477515 16.671875 6.0058594 C 16.672151 5.9912629 16.675966 5.9845388 16.677734 5.9804688 C 16.679011 5.9769874 16.67935 5.9714716 16.679688 5.9609375 C 16.780922 6.0317915 16.816881 6.1364527 16.939453 6.1933594 C 17.305859 6.3634822 17.55566 6.4959079 17.691406 6.6152344 C 17.827152 6.7345609 17.904171 6.8235269 17.974609 7.1582031 A 1.0001 1.0001 0 0 0 19.728516 7.5859375 C 19.728516 7.5859375 20.061613 7.1660156 20.724609 7.1660156 C 21.108739 7.1660156 21.389295 7.0428662 21.697266 6.953125 C 21.491153 7.4634032 21.03074 8.3598058 19.433594 8.421875 A 1.0001 1.0001 0 0 0 18.474609 9.4726562 C 18.535749 10.636771 18.079194 13.885153 15.648438 16.085938 A 1.0001 1.0001 0 0 0 15.513672 17.417969 C 15.621608 17.565219 15.699317 17.586994 15.78125 17.646484 C 15.71134 17.633484 15.581432 17.628534 15.525391 17.615234 C 15.348852 17.573354 15.217824 17.510674 15.210938 17.511719 L 15.210938 17.513672 C 15.214548 17.516738 15.226783 17.523867 15.248047 17.537109 A 1.0001 1.0001 0 0 0 13.960938 17.734375 C 13.960938 17.734375 13.80336 17.953567 13.099609 18.291016 C 12.395871 18.62847 11.216443 19 9.3730469 19 C 7.9005516 19 6.0077448 18.356485 4.5429688 17.039062 C 3.0781928 15.72164 2 13.776202 2 11 C 2 10.224814 2.3175054 8.8475123 3.09375 7.7851562 C 3.8699946 6.7228002 5.0129949 5.9042969 7.0078125 5.9042969 A 1.0001 1.0001 0 0 0 7.0175781 5.9042969 C 7.4246746 5.9006969 8.5764359 5.9961789 8.7421875 6.0488281 A 1.0001 1.0001 0 0 0 9.4882812 5.9921875 C 9.7836763 5.8464464 10.481954 5.6511734 11.056641 5.5019531 z M 4.8222656 8.5898438 C 4.3390282 8.5923758 3.8326523 8.6511772 3.3046875 8.7734375 A 1.0001 1.0001 0 0 0 2.5292969 9.7421875 C 2.5292969 9.7421875 2.5179609 11.248585 3.2148438 12.941406 C 3.9117268 14.634228 5.4048517 16.614148 8.2128906 17.457031 A 1 1 0 0 0 9.4570312 16.787109 A 1 1 0 0 0 8.7871094 15.541016 C 6.5952783 14.883098 5.6028875 13.487615 5.0644531 12.179688 C 4.7339594 11.376874 4.7846377 11.134813 4.7363281 10.689453 C 5.7471519 10.656053 6.571277 10.867726 7.3027344 11.416016 C 8.2695697 12.140741 9.1509991 13.332341 10.103516 14.570312 C 10.925951 15.639214 11.626877 16.328996 12.142578 16.759766 C 12.658279 17.190535 13.0625 17.398438 13.0625 17.398438 A 1 1 0 0 0 14.398438 16.935547 A 1 1 0 0 0 13.9375 15.599609 C 13.9375 15.599609 13.82148 15.555139 13.425781 15.224609 C 13.030082 14.894079 12.428065 14.314059 11.6875 13.351562 C 10.761946 12.148633 9.8189053 10.801621 8.5019531 9.8144531 C 7.843477 9.3208694 7.0723118 8.9386053 6.2011719 8.7402344 C 5.7656019 8.6410489 5.305503 8.5873117 4.8222656 8.5898438 z M 12.509766 9.5 C 12.03305 9.50573 11.705078 9.6132812 11.705078 9.6132812 A 1 1 0 0 0 11.044922 10.863281 A 1 1 0 0 0 12.294922 11.523438 C 12.294922 11.523438 12.735423 11.413168 13.080078 11.648438 C 13.850725 12.174385 14.048828 12.808594 14.048828 12.808594 A 1 1 0 0 0 15.308594 13.449219 A 1 1 0 0 0 15.951172 12.189453 C 15.951172 12.189453 15.520238 10.893665 14.208984 9.9980469 C 13.612512 9.5908814 12.986481 9.4942731 12.509766 9.5 z " fill="currentColor"/>
</svg>
