<svg xmlns="http://www.w3.org/2000/svg" width="1em" height="1em" viewBox="0 0 24 24" fill="currentColor">
  <path d="M 12 1.4980469 C 10.94715 1.4980469 10.01378 1.497262 9.1738281 1.515625 A 1 1 0 0 0 9 1.5 A 1 1 0 0 0 8.7753906 1.5253906 C 7.9927489 1.5497394 7.2930616 1.5957621 6.6542969 1.6816406 C 5.2475194 1.8707764 4.0688925 2.2963418 3.1835938 3.1816406 C 2.2982892 4.0669387 1.8727311 5.2455728 1.6835938 6.6523438 C 1.6198205 7.1266783 1.5779633 7.6351435 1.5507812 8.1855469 A 1 1 0 0 0 1.5 8.5 A 1 1 0 0 0 1.5292969 8.7382812 C 1.4988769 9.6879358 1.5 10.760449 1.5 11.998047 C 1.5 13.237167 1.4987621 14.311225 1.5292969 15.261719 A 1 1 0 0 0 1.5 15.5 A 1 1 0 0 0 1.5507812 15.816406 C 1.577968 16.365037 1.619999 16.870729 1.6835938 17.34375 C 1.8727308 18.750536 2.2982786 19.92917 3.1835938 20.814453 C 4.0688953 21.699729 5.2475224 22.125323 6.6542969 22.314453 C 7.2879895 22.399648 7.9807436 22.446209 8.7558594 22.470703 A 1 1 0 0 0 9 22.5 A 1 1 0 0 0 9.1933594 22.480469 C 10.028436 22.498407 10.954999 22.498047 12 22.498047 C 14.23915 22.498047 15.938933 22.503547 17.345703 22.314453 C 18.752473 22.125323 19.931119 21.69974 20.816406 20.814453 C 21.510074 20.120913 21.932362 19.231644 22.162109 18.21875 A 1 1 0 0 0 21.408203 17.023438 A 1 1 0 0 0 20.210938 17.777344 C 20.037485 18.54205 19.798676 19.004131 19.402344 19.400391 C 18.896431 19.906304 18.25833 20.175314 17.078125 20.333984 C 15.89792 20.492654 14.23915 20.498047 12 20.498047 C 11.273371 20.498047 10.607865 20.498378 10 20.492188 L 10 15.5 L 10 8.5 L 10 3.5039062 C 10.607865 3.4977175 11.273371 3.4980469 12 3.4980469 C 14.23915 3.4980469 15.897923 3.5034369 17.078125 3.6621094 C 18.258327 3.8207835 18.896428 4.0897726 19.402344 4.5957031 C 19.798731 4.9920542 20.037489 5.4540915 20.210938 6.21875 A 1 1 0 0 0 21.408203 6.9726562 A 1 1 0 0 0 22.162109 5.7773438 C 21.932359 4.7644823 21.510019 3.8751895 20.816406 3.1816406 C 19.931122 2.2963311 18.752476 1.8707765 17.345703 1.6816406 C 15.93893 1.4925048 14.23915 1.4980469 12 1.4980469 z M 8 3.5625 L 8 7.5 L 3.6035156 7.5 C 3.6213071 7.2950274 3.6415636 7.1017922 3.6660156 6.9199219 C 3.8246908 5.7397229 4.0917108 5.101645 4.5976562 4.5957031 C 5.1035975 4.0897619 5.7416675 3.8207836 6.921875 3.6621094 C 7.2447417 3.6187012 7.6034211 3.5859925 8 3.5625 z M 15.5 8 A 1 1 0 0 0 14.792969 8.2929688 A 1 1 0 0 0 14.792969 9.7070312 L 17.085938 12 L 14.792969 14.292969 A 1 1 0 0 0 14.792969 15.707031 A 1 1 0 0 0 16.207031 15.707031 L 18.5 13.414062 L 20.792969 15.707031 A 1 1 0 0 0 22.207031 15.707031 A 1 1 0 0 0 22.207031 14.292969 L 19.914062 12 L 22.207031 9.7070312 A 1 1 0 0 0 22.207031 8.2929688 A 1 1 0 0 0 20.792969 8.2929688 L 18.5 10.585938 L 16.207031 8.2929688 A 1 1 0 0 0 15.5 8 z M 3.5136719 9.5 L 8 9.5 L 8 14.5 L 3.5136719 14.5 C 3.5007411 13.761701 3.5 12.930169 3.5 11.998047 C 3.5 11.067582 3.5008046 10.237335 3.5136719 9.5 z M 3.6035156 16.5 L 8 16.5 L 8 20.433594 C 7.6034216 20.410102 7.2447421 20.377389 6.921875 20.333984 C 5.7416644 20.175314 5.1035947 19.906315 4.5976562 19.400391 C 4.0917214 18.894474 3.824691 18.256386 3.6660156 17.076172 C 3.641719 16.895456 3.6212327 16.70352 3.6035156 16.5 z " fill="currentColor"/>
</svg>
