<svg xmlns="http://www.w3.org/2000/svg" width="1em" height="1em" viewBox="0 0 24 24" fill="currentColor">
  <path d="M 9.5 1.5 C 7.53715 1.5 6.3854101 1.4664746 5.2636719 2.0273438 C 4.1419201 2.5882129 3.4784904 3.5293305 2.3007812 5.0996094 L 1.6992188 5.9003906 A 1.0001 1.0001 0 0 0 1.6347656 6 A 1 1 0 0 0 1.5917969 6.0878906 A 1.0001 1.0001 0 0 0 1.5722656 6.1269531 A 1 1 0 0 0 1.5585938 6.1679688 A 1.0001 1.0001 0 0 0 1.5292969 6.2578125 A 1 1 0 0 0 1.5195312 6.3066406 A 1.0001 1.0001 0 0 0 1.5078125 6.3808594 A 1 1 0 0 0 1.5019531 6.46875 A 1.0001 1.0001 0 0 0 1.5 6.5 A 1 1 0 0 0 1.5 6.5332031 L 1.5 13.5 C 1.5 15.3856 1.49457 16.818937 1.65625 18.021484 C 1.8179268 19.224031 2.1893545 20.259713 2.9648438 21.035156 C 3.7403087 21.810634 4.7759729 22.182068 5.9785156 22.34375 C 7.1810584 22.505432 8.61438 22.5 10.5 22.5 L 13.5 22.5 A 1 1 0 0 0 14.5 21.5 A 1 1 0 0 0 13.5 20.5 L 10.5 20.5 C 8.61438 20.5 7.2201079 20.4945 6.2441406 20.363281 C 5.2681734 20.232063 4.7750213 20.017216 4.3789062 19.621094 C 3.9828255 19.225037 3.7679344 18.731837 3.6367188 17.755859 C 3.505503 16.779881 3.5 15.3856 3.5 13.5 L 3.5 7.5 L 20.5 7.5 L 20.5 10.5 A 1 1 0 0 0 21.5 11.5 A 1 1 0 0 0 22.5 10.5 L 22.5 6.5332031 A 1 1 0 0 0 22.5 6.5 A 1.0001 1.0001 0 0 0 22.498047 6.46875 A 1 1 0 0 0 22.492188 6.3808594 A 1.0001 1.0001 0 0 0 22.472656 6.265625 A 1 1 0 0 0 22.470703 6.2578125 A 1.0001 1.0001 0 0 0 22.431641 6.1367188 A 1 1 0 0 0 22.423828 6.1171875 A 1.0001 1.0001 0 0 0 22.408203 6.0878906 A 1 1 0 0 0 22.365234 6 A 1.0001 1.0001 0 0 0 22.300781 5.9003906 L 21.699219 5.0996094 C 20.521511 3.5293185 19.85797 2.5882176 18.736328 2.0273438 C 17.614556 1.4664711 16.4628 1.5 14.5 1.5 L 9.5 1.5 z M 9.5 3.5 L 14.5 3.5 C 16.4628 3.5 17.274369 3.532699 17.841797 3.8164062 C 18.300828 4.0459439 18.723564 4.5024246 19.492188 5.5 L 4.5078125 5.5 C 5.2764279 4.5024195 5.6991141 4.045948 6.1582031 3.8164062 C 6.7256249 3.5326954 7.53715 3.5 9.5 3.5 z M 18 12 C 15.536702 12 13.5 13.986113 13.5 16.433594 C 13.5 17.787035 14.130364 18.986602 15.160156 19.873047 C 15.695486 20.333897 16.848642 21.547331 17.152344 22.03125 A 1.0001 1.0001 0 0 0 18.830078 22.058594 C 19.183003 21.533961 20.320391 20.320229 20.839844 19.873047 C 21.869636 18.986606 22.5 17.787035 22.5 16.433594 C 22.5 13.986113 20.463298 12 18 12 z M 18 14 C 19.402702 14 20.5 15.087675 20.5 16.433594 C 20.5 17.249153 20.255364 17.737467 19.535156 18.357422 C 19.071116 18.756901 18.53066 19.424162 17.998047 20.037109 C 17.460937 19.421904 16.913931 18.744029 16.464844 18.357422 C 15.744636 17.737467 15.5 17.249153 15.5 16.433594 C 15.5 15.087675 16.597298 14 18 14 z M 18.009766 15.25 C 17.331477 15.25 16.759766 15.821712 16.759766 16.5 C 16.759766 17.178288 17.331477 17.75 18.009766 17.75 C 18.688345 17.75 19.259766 17.178771 19.259766 16.5 C 19.259766 15.821229 18.688345 15.25 18.009766 15.25 z " fill="currentColor"/>
</svg>
