<svg xmlns="http://www.w3.org/2000/svg" width="1em" height="1em" viewBox="0 0 24 24" fill="currentColor">
  <path d="M 6.5078125 1.0195312 C 4.9737088 1.0824395 3.5410942 1.767024 2.6132812 2.9257812 C 2.1122863 3.5514786 0.97949416 5.0419327 1 7.65625 C 1.0205058 10.270567 2.0407566 14.016248 5.2714844 19.732422 C 5.7262548 20.536998 6.5837968 21 7.4960938 21 C 8.9301625 21 10.082733 19.853252 10.130859 18.474609 C 10.172769 17.274014 10.54842 15.993036 10.832031 15.716797 A 1 1 0 0 0 10.849609 14.302734 A 1 1 0 0 0 9.4355469 14.283203 C 8.3119764 15.377563 8.1819013 16.998092 8.1328125 18.404297 C 8.1222786 18.706055 7.8659852 19 7.4960938 19 C 7.2775707 19 7.0859215 18.87587 7.0136719 18.748047 C 3.8797707 13.20319 3.0164544 9.7384202 3 7.640625 C 2.9835456 5.5428298 3.658673 4.8191638 4.1738281 4.1757812 C 5.2606023 2.8184955 7.6705288 2.3404967 9.6074219 4.2597656 C 9.8653955 4.5154592 10.117305 4.7441744 10.363281 4.9472656 C 11.187268 5.6277054 11.918974 6.0478834 12.652344 6.2148438 C 13.385713 6.3818043 14.199875 6.2141871 14.707031 5.7070312 A 1 1 0 0 0 14.707031 4.2929688 A 1 1 0 0 0 13.296875 4.2929688 L 13.298828 4.2929688 L 13.300781 4.2929688 L 13.302734 4.2929688 L 13.302734 4.2949219 L 13.304688 4.2949219 L 13.304688 4.296875 L 13.302734 4.296875 L 13.300781 4.2988281 C 13.287307 4.3009005 13.237789 4.2960197 13.095703 4.2636719 C 13.026553 4.2479289 12.819825 4.0833053 12.71875 4.0410156 C 14.594456 2.4653632 16.797969 2.8916454 17.826172 4.1757812 C 18.14353 4.5721289 18.488628 4.9925479 18.738281 5.7539062 C 18.987934 6.5152646 19.132407 7.623032 18.835938 9.328125 A 1 1 0 0 0 19.650391 10.484375 A 1 1 0 0 0 20.806641 9.671875 C 21.148065 7.7082282 20.999644 6.2317035 20.638672 5.1308594 C 20.2777 4.0300152 19.695361 3.3112436 19.386719 2.9257812 C 17.534371 0.61236051 13.673993 0.19539879 11 2.8300781 C 9.665368 1.515068 8.0364989 0.95684521 6.5078125 1.0195312 z M 17.5 11 C 16.960231 11 16.556656 11.168329 15.970703 11.382812 L 14.498047 11.921875 C 13.780019 12.184685 13.285718 12.331451 12.822266 12.771484 C 12.572403 13.008709 12.371673 13.290947 12.230469 13.605469 A 1.0001 1.0001 0 0 0 12.228516 13.605469 C 11.966039 14.190501 12 14.706678 12 15.455078 L 12 15.839844 C 12 17.041744 11.98747 17.726261 12.183594 18.453125 C 12.409343 19.290074 12.836472 20.060656 13.427734 20.699219 C 13.940573 21.253153 14.529572 21.612547 15.560547 22.269531 C 16.022104 22.563604 16.321293 22.775947 16.767578 22.900391 C 17.246448 23.033779 17.753552 23.033779 18.232422 22.900391 C 18.678707 22.775947 18.977896 22.563604 19.439453 22.269531 C 20.470428 21.612547 21.059427 21.253153 21.572266 20.699219 C 22.163528 20.060656 22.590657 19.290074 22.816406 18.453125 C 23.012527 17.726261 23 17.041744 23 15.839844 L 23 15.455078 C 23 14.706678 23.03401 14.190501 22.771484 13.605469 A 1.0001 1.0001 0 0 0 22.769531 13.605469 C 22.628327 13.290947 22.427597 13.008709 22.177734 12.771484 C 21.714282 12.331451 21.219981 12.184685 20.501953 11.921875 L 19.029297 11.382812 C 18.443344 11.168329 18.039769 11 17.5 11 z M 17.5 13 C 17.57223 13 17.75575 13.0472 18.341797 13.261719 L 19.814453 13.800781 C 20.532425 14.063571 20.757634 14.179736 20.800781 14.220703 C 20.863321 14.280073 20.911517 14.350503 20.945312 14.425781 C 20.966389 14.472749 21 14.706678 21 15.455078 L 21 15.839844 C 21 17.041744 20.9874 17.558505 20.886719 17.931641 A 1.0001 1.0001 0 0 0 20.886719 17.933594 C 20.746068 18.455045 20.479207 18.936207 20.105469 19.339844 C 19.837108 19.629709 19.394306 19.926969 18.363281 20.583984 C 17.901638 20.878112 17.739628 20.960299 17.695312 20.972656 C 17.568182 21.008066 17.431818 21.008066 17.304688 20.972656 C 17.260378 20.960296 17.098362 20.878116 16.636719 20.583984 C 15.605694 19.926969 15.162892 19.629709 14.894531 19.339844 C 14.520793 18.936207 14.253932 18.455045 14.113281 17.933594 A 1.0001 1.0001 0 0 0 14.113281 17.931641 C 14.012602 17.558505 14 17.041744 14 15.839844 L 14 15.455078 C 14 14.706678 14.033607 14.472749 14.054688 14.425781 C 14.088477 14.350501 14.136678 14.280078 14.199219 14.220703 C 14.242369 14.179733 14.467575 14.063571 15.185547 13.800781 L 16.658203 13.261719 C 17.244248 13.047202 17.427769 13 17.5 13 z M 19.019531 14.5 A 1 1 0 0 0 18.888672 14.505859 A 1 1 0 0 0 18.21875 14.875 L 16.917969 16.503906 L 16.707031 16.292969 A 1 1 0 0 0 15.292969 16.292969 A 1 1 0 0 0 15.292969 17.707031 L 15.976562 18.390625 C 16.050312 18.464375 16.114088 18.537998 16.257812 18.646484 C 16.401539 18.754971 16.715286 18.916739 17.048828 18.898438 A 1.0001 1.0001 0 0 0 17.050781 18.898438 C 17.384545 18.879728 17.677781 18.686135 17.808594 18.5625 C 17.939407 18.438865 17.995327 18.356928 18.060547 18.275391 L 19.78125 16.125 A 1 1 0 0 0 19.625 14.71875 A 1 1 0 0 0 19.019531 14.5 z " fill="currentColor"/>
</svg>
