<svg xmlns="http://www.w3.org/2000/svg" width="1em" height="1em" viewBox="0 0 24 24" fill="currentColor">
  <path d="M 11 1 C 10.05719 1 9.3297886 0.99357653 8.671875 1.0820312 C 8.0139614 1.170486 7.3614755 1.3963288 6.8789062 1.8789062 C 6.3963288 2.3614754 6.1704861 3.0139614 6.0820312 3.671875 C 5.9935765 4.3297886 6 5.05719 6 6 L 6 7 L 3.8183594 7 L 3 7 L 2 7 A 1 1 0 0 0 1 8 A 1 1 0 0 0 2 9 L 2 12 C 2 13.1785 1.9928504 14.082883 2.0996094 14.876953 C 2.2063685 15.671023 2.4696253 16.418791 3.0253906 16.974609 C 3.3072274 17.256431 3.6384299 17.462202 4 17.611328 L 4 22 A 1 1 0 0 0 5 23 A 1 1 0 0 0 6 22 L 6 17.976562 C 6.3106602 17.99124 6.6416775 17.995683 7 17.998047 L 7 20 A 1 1 0 0 0 8 21 A 1 1 0 0 0 9 20 L 9 18 L 15 18 L 15 20 A 1 1 0 0 0 16 21 A 1 1 0 0 0 17 20 L 17 17.998047 C 17.358322 17.995678 17.689339 17.991241 18 17.976562 L 18 22 A 1 1 0 0 0 19 23 A 1 1 0 0 0 20 22 L 20 17.611328 C 20.361564 17.462199 20.692764 17.256416 20.974609 16.974609 C 21.530356 16.418787 21.793636 15.671019 21.900391 14.876953 C 22.007145 14.082888 22 13.1785 22 12 L 22 9 A 1 1 0 0 0 23 8 A 1 1 0 0 0 22 7 L 21 7 L 20.181641 7 L 18 7 L 18 6 C 18 5.05719 18.006425 4.3297904 17.917969 3.671875 C 17.829512 3.0139596 17.603678 2.3614739 17.121094 1.8789062 C 16.63852 1.3963405 15.986036 1.1704861 15.328125 1.0820312 C 14.670214 0.99357648 13.9428 1 13 1 L 11 1 z M 11 3 L 13 3 C 13.9428 3 14.629208 3.0064601 15.060547 3.0644531 C 15.491886 3.1224461 15.603805 3.1897445 15.707031 3.2929688 C 15.810247 3.3961811 15.877553 3.5081136 15.935547 3.9394531 C 15.99354 4.3707928 16 5.05719 16 6 L 16 7 L 8 7 L 8 6 C 8 5.05719 8.0064604 4.3707945 8.0644531 3.9394531 C 8.1224459 3.5081117 8.1897561 3.3961795 8.2929688 3.2929688 C 8.3961795 3.1897562 8.5081117 3.1224459 8.9394531 3.0644531 C 9.3707945 3.0064604 10.05719 3 11 3 z M 4 9 L 20 9 L 20 12 C 20 13.1785 19.994299 14.041866 19.917969 14.609375 C 19.841669 15.176884 19.737 15.384069 19.560547 15.560547 C 19.384068 15.737 19.176884 15.841673 18.609375 15.917969 C 18.041866 15.994265 17.1785 16 16 16 L 8 16 C 6.82149 16 5.9581298 15.994264 5.390625 15.917969 C 4.8231202 15.841673 4.6158914 15.736976 4.4394531 15.560547 C 4.2629884 15.384065 4.1583296 15.17688 4.0820312 14.609375 C 4.0057329 14.04187 4 13.1785 4 12 L 4 9 z " fill="currentColor"/>
</svg>
