<svg xmlns="http://www.w3.org/2000/svg" width="1em" height="1em" viewBox="0 0 24 24" fill="currentColor">
  <path d="M 2 3 A 1 1 0 0 0 1 4 A 1 1 0 0 0 2 5 L 2 8 L 2 20 A 1 1 0 0 0 3 21 A 1 1 0 0 0 4 20 L 4 9 L 13 9 L 13 18 C 13 18.4714 12.993102 18.844869 13.044922 19.230469 C 13.096762 19.616069 13.249815 20.07794 13.585938 20.414062 C 13.922059 20.750186 14.383931 20.903234 14.769531 20.955078 C 15.155133 21.006922 15.5286 21 16 21 L 19 21 C 19.4714 21 19.844869 21.006898 20.230469 20.955078 C 20.616069 20.903238 21.07794 20.750186 21.414062 20.414062 C 21.750186 20.077941 21.903234 19.616069 21.955078 19.230469 C 22.006922 18.844867 22 18.4714 22 18 L 22 8 L 22 5 A 1 1 0 0 0 23 4 A 1 1 0 0 0 22 3 L 21 3 L 3 3 L 2 3 z M 4 5 L 20 5 L 20 7 L 4 7 L 4 5 z M 15 9 L 20 9 L 20 11 L 15 11 L 15 9 z M 15 13 L 20 13 L 20 18 C 20 18.4714 19.993996 18.805819 19.972656 18.964844 C 19.972341 18.967191 19.97296 18.970413 19.972656 18.972656 C 19.970411 18.97296 19.967193 18.97234 19.964844 18.972656 C 19.805823 18.994033 19.4714 19 19 19 L 16 19 C 15.5286 19 15.194181 18.993996 15.035156 18.972656 C 15.032809 18.972341 15.029588 18.97296 15.027344 18.972656 C 15.02704 18.970411 15.02766 18.967193 15.027344 18.964844 C 15.005967 18.805823 15 18.4714 15 18 L 15 13 z " fill="currentColor"/>
</svg>
