<svg xmlns="http://www.w3.org/2000/svg" width="1em" height="1em" viewBox="0 0 24 24" fill="currentColor">
  <path d="M 15.824219 0.99804688 C 15.609492 0.99690437 15.366992 1.0139222 15.0625 1.1757812 C 14.656511 1.3915935 14.521877 1.6602626 14.373047 1.8808594 L 12.265625 5.0039062 C 12.101206 5.247526 11.998087 5.3724074 11.957031 5.4257812 C 11.97631 5.4244984 11.989005 5.424721 11.994141 5.4257812 L 11.996094 5.4257812 L 11.996094 5.4277344 L 11.996094 5.4296875 C 11.991718 5.4329633 11.980722 5.4389489 11.96875 5.4453125 C 11.954481 5.452897 11.944062 5.4581089 11.939453 5.4589844 L 11.9375 5.4589844 L 11.9375 5.4570312 L 11.9375 5.4550781 C 11.937808 5.4542815 11.938875 5.4522287 11.939453 5.4511719 C 11.942843 5.4458639 11.949321 5.4358052 11.957031 5.4257812 C 11.889409 5.4302809 11.729904 5.4453125 11.4375 5.4453125 L 6 5.4453125 C 5.5167658 5.4453125 4.9615852 5.4485625 4.4824219 5.9277344 C 4.0032585 6.4069018 4 6.9620742 4 7.4453125 L 4 9.8886719 C 4 10.371898 4.0032731 10.927085 4.4824219 11.40625 C 4.9615707 11.885415 5.5167537 11.888672 6 11.888672 L 7.6191406 11.888672 L 4.3417969 16.742188 C 4.1704232 16.99613 4 17.554818 4 17.861328 L 4 21 C 4 21.483222 4.00327 22.038416 4.4824219 22.517578 C 4.9615715 22.99674 5.5167537 23 6 23 L 7.96875 23 C 8.2348424 23 8.531514 23.04001 8.9375 22.824219 C 9.343486 22.608428 9.4780835 22.339743 9.6269531 22.119141 L 11.734375 18.996094 C 11.898802 18.752473 12.001917 18.627591 12.042969 18.574219 C 12.023683 18.575502 12.010997 18.575279 12.005859 18.574219 L 12.003906 18.574219 L 12.003906 18.572266 L 12.003906 18.570312 C 12.008283 18.567037 12.019275 18.561052 12.03125 18.554688 C 12.045519 18.547104 12.055938 18.54189 12.060547 18.541016 L 12.0625 18.541016 L 12.0625 18.542969 L 12.0625 18.544922 C 12.062192 18.545718 12.061124 18.547771 12.060547 18.548828 C 12.057158 18.554135 12.050677 18.564197 12.042969 18.574219 C 12.1106 18.569718 12.270114 18.554688 12.5625 18.554688 L 18 18.554688 C 18.483234 18.554688 19.038431 18.551387 19.517578 18.072266 C 19.996725 17.593118 20 17.037921 20 16.554688 L 20 14.111328 C 20 13.628094 19.996725 13.072897 19.517578 12.59375 C 19.038431 12.114603 18.483234 12.111328 18 12.111328 L 16.380859 12.111328 L 19.658203 7.2578125 C 19.829544 7.0038587 20 6.4451463 20 6.1386719 L 20 3 C 20 2.5167537 19.99674 1.9615715 19.517578 1.4824219 C 19.038416 1.0032722 18.483222 1 18 1 L 16.03125 1 C 15.964727 1 15.895794 0.99842771 15.824219 0.99804688 z M 16.03125 3 L 18 3 L 18 6.1386719 L 14.724609 10.992188 C 14.493091 11.335114 14.30415 11.599031 14.148438 11.923828 C 13.992724 12.248626 13.856628 12.82401 14.117188 13.314453 C 14.377901 13.805001 14.93083 14.013775 15.287109 14.066406 C 15.643389 14.119036 15.967109 14.111328 16.380859 14.111328 L 18 14.111328 L 18 16.554688 L 12.5625 16.554688 C 12.036123 16.554688 11.60353 16.517097 11.091797 16.789062 C 10.580063 17.061034 10.370641 17.44066 10.076172 17.876953 L 7.96875 21 L 6 21 L 6 17.861328 L 9.2753906 13.007812 C 9.5068625 12.66491 9.695851 12.400951 9.8515625 12.076172 C 10.007274 11.751393 10.14343 11.17603 9.8828125 10.685547 C 9.6220521 10.195015 9.0691701 9.9862228 8.7128906 9.9335938 C 8.3566111 9.8809645 8.0328756 9.8886719 7.6191406 9.8886719 L 6 9.8886719 L 6 7.4453125 L 11.4375 7.4453125 C 11.96389 7.4453125 12.396476 7.4829415 12.908203 7.2109375 C 13.41993 6.938934 13.629363 6.5593542 13.923828 6.1230469 L 16.03125 3 z " fill="currentColor"/>
</svg>
