<svg xmlns="http://www.w3.org/2000/svg" width="1em" height="1em" viewBox="0 0 24 24" fill="currentColor">
  <path d="M 16.46875 3 C 15.131411 3.010257 13.910156 3.1210938 13.910156 3.1210938 A 1 1 0 0 0 13.003906 4.2070312 A 1 1 0 0 0 14.089844 5.1132812 C 14.089844 5.1132812 15.248189 5.0094809 16.484375 5 C 17.102468 4.99526 17.738228 5.0164839 18.21875 5.0761719 C 18.45879 5.1059884 18.661904 5.1791517 18.779297 5.2207031 C 18.820851 5.3380971 18.894015 5.5412096 18.923828 5.78125 C 18.983508 6.2617659 19.00475 6.8975342 19 7.515625 C 18.9905 8.7518066 18.886719 9.9101562 18.886719 9.9101562 A 1 1 0 0 0 19.792969 10.996094 A 1 1 0 0 0 20.878906 10.089844 C 20.878906 10.089844 20.989724 8.8685884 21 7.53125 C 21.0051 6.8625808 20.986443 6.1630848 20.908203 5.5332031 C 20.829977 4.9033215 20.830279 4.3458886 20.242188 3.7578125 C 19.654114 3.1697464 19.096678 3.1700371 18.466797 3.0917969 C 17.836915 3.0135567 17.13742 2.9948717 16.46875 3 z M 12 9 C 10.354993 9 9 10.354993 9 12 C 9 13.645007 10.354993 15 12 15 C 13.645007 15 15 13.645007 15 12 C 15 10.354993 13.645007 9 12 9 z M 12 11 C 12.564193 11 13 11.435807 13 12 C 13 12.564193 12.564193 13 12 13 C 11.435807 13 11 12.564193 11 12 C 11 11.435807 11.435807 11 12 11 z M 4.0761719 13 A 1 1 0 0 0 3.1210938 13.910156 C 3.1210938 13.910156 3.0102748 15.13141 3 16.46875 C 2.99486 17.13742 3.0135639 17.836914 3.0917969 18.466797 C 3.1700299 19.09668 3.1697409 19.654108 3.7578125 20.242188 C 4.3458901 20.830265 4.9033184 20.82997 5.5332031 20.908203 C 6.1630878 20.986433 6.8625784 21.00513 7.53125 21 C 8.8685932 20.98972 10.089844 20.878906 10.089844 20.878906 A 1 1 0 0 0 10.996094 19.792969 A 1 1 0 0 0 9.9101562 18.886719 C 9.9101562 18.886719 8.7518118 18.990501 7.515625 19 C 6.8975315 19.004746 6.2617703 18.98351 5.78125 18.923828 C 5.5412071 18.894014 5.3380955 18.82085 5.2207031 18.779297 C 5.1791505 18.661904 5.1059856 18.458791 5.0761719 18.21875 C 5.0164901 17.73823 4.9952512 17.102467 5 16.484375 C 5.0095 15.24819 5.1132812 14.089844 5.1132812 14.089844 A 1 1 0 0 0 4.2070312 13.003906 A 1 1 0 0 0 4.0761719 13 z " fill="currentColor"/>
</svg>
