<svg xmlns="http://www.w3.org/2000/svg" width="1em" height="1em" viewBox="0 0 24 24" fill="currentColor">
  <path d="M 4 1 C 3.528595 1 3.1551288 0.99308014 2.7695312 1.0449219 C 2.3839336 1.0967636 1.9220631 1.2498234 1.5859375 1.5859375 C 1.2498234 1.9220631 1.0967636 2.3839336 1.0449219 2.7695312 C 0.99308013 3.1551288 1 3.528595 1 4 C 1 4.471405 0.99308014 4.8448711 1.0449219 5.2304688 C 1.0967636 5.6160664 1.2498234 6.0779369 1.5859375 6.4140625 C 1.9220631 6.7501766 2.3839336 6.9032364 2.7695312 6.9550781 C 3.1551288 7.0069198 3.528595 7 4 7 C 4.471405 7 4.8448711 7.0069198 5.2304688 6.9550781 C 5.6160664 6.9032364 6.0779369 6.7501766 6.4140625 6.4140625 C 6.7501766 6.0779369 6.9032364 5.6160664 6.9550781 5.2304688 C 7.0069198 4.8448711 7 4.471405 7 4 C 7 3.528595 7.0069198 3.1551288 6.9550781 2.7695312 C 6.9032364 2.3839336 6.7501766 1.9220631 6.4140625 1.5859375 C 6.0779369 1.2498234 5.6160664 1.0967636 5.2304688 1.0449219 C 4.8448711 0.99308013 4.471405 1 4 1 z M 12 1 C 11.5286 1 11.155128 0.99307988 10.769531 1.0449219 C 10.383935 1.0967636 9.9220631 1.2498234 9.5859375 1.5859375 C 9.2498152 1.9220598 9.0967658 2.38393 9.0449219 2.7695312 C 8.9930779 3.1551324 9 3.528595 9 4 C 9 4.471405 8.9930779 4.8448675 9.0449219 5.2304688 C 9.0967658 5.61607 9.2498152 6.0779402 9.5859375 6.4140625 C 9.9220631 6.7501766 10.383935 6.9032363 10.769531 6.9550781 C 11.155128 7.0069199 11.5286 7 12 7 C 12.4714 7 12.844872 7.0069201 13.230469 6.9550781 C 13.616065 6.9032361 14.077936 6.7501766 14.414062 6.4140625 C 14.750185 6.0779403 14.903234 5.6160701 14.955078 5.2304688 C 15.006922 4.8448676 15 4.471405 15 4 C 15 3.528595 15.006922 3.1551325 14.955078 2.7695312 C 14.903234 2.3839299 14.750184 1.9220598 14.414062 1.5859375 C 14.077936 1.2498234 13.616065 1.0967637 13.230469 1.0449219 C 12.844872 0.99308003 12.4714 1 12 1 z M 20 1 C 19.5286 1 19.155128 0.99307988 18.769531 1.0449219 C 18.383935 1.0967639 17.922064 1.2498234 17.585938 1.5859375 C 17.249816 1.9220597 17.096766 2.38393 17.044922 2.7695312 C 16.993078 3.1551324 17 3.528595 17 4 C 17 4.471405 16.993102 4.8448675 17.044922 5.2304688 C 17.096762 5.6160701 17.249815 6.0779402 17.585938 6.4140625 C 17.922064 6.7501766 18.383935 6.9032363 18.769531 6.9550781 C 19.15513 7.0069199 19.5286 7 20 7 C 20.4714 7 20.844872 7.0069201 21.230469 6.9550781 C 21.616065 6.9032361 22.077938 6.7501766 22.414062 6.4140625 C 22.750186 6.0779403 22.903234 5.6160701 22.955078 5.2304688 C 23.006922 4.8448676 23 4.471405 23 4 C 23 3.528595 23.006922 3.1551325 22.955078 2.7695312 C 22.903234 2.3839299 22.750186 1.9220598 22.414062 1.5859375 C 22.077937 1.2498234 21.616065 1.0967637 21.230469 1.0449219 C 20.844872 0.99308003 20.4714 1 20 1 z M 4 3 C 4.471405 3 4.805814 3.0059629 4.9648438 3.0273438 C 4.9671902 3.0276592 4.9704133 3.02704 4.9726562 3.0273438 C 4.97296 3.0295867 4.9723408 3.0328098 4.9726562 3.0351562 C 4.994037 3.194186 5 3.528595 5 4 C 5 4.471405 4.994037 4.805814 4.9726562 4.9648438 C 4.9723408 4.9671902 4.97296 4.9704133 4.9726562 4.9726562 C 4.9704133 4.97296 4.9671902 4.9723408 4.9648438 4.9726562 C 4.805814 4.994037 4.471405 5 4 5 C 3.528595 5 3.1941861 4.994037 3.0351562 4.9726562 C 3.0328098 4.9723408 3.0295867 4.97296 3.0273438 4.9726562 C 3.02704 4.9704133 3.0276592 4.9671902 3.0273438 4.9648438 C 3.0059629 4.805814 3 4.471405 3 4 C 3 3.528595 3.0059629 3.1941861 3.0273438 3.0351562 C 3.0276592 3.0328099 3.02704 3.0295867 3.0273438 3.0273438 C 3.0295867 3.02704 3.0328099 3.0276592 3.0351562 3.0273438 C 3.1941863 3.0059628 3.528595 3 4 3 z M 12 3 C 12.4714 3 12.805815 3.0059598 12.964844 3.0273438 C 12.96719 3.0276592 12.970413 3.02704 12.972656 3.0273438 C 12.97296 3.0295867 12.972341 3.0328098 12.972656 3.0351562 C 12.994037 3.1941825 13 3.528595 13 4 C 13 4.471405 12.993996 4.8058176 12.972656 4.9648438 C 12.972341 4.9671901 12.97296 4.9704134 12.972656 4.9726562 C 12.970412 4.9729601 12.967191 4.9723406 12.964844 4.9726562 C 12.805815 4.9940369 12.4714 5 12 5 C 11.5286 5 11.194185 4.9940369 11.035156 4.9726562 C 11.032809 4.9723406 11.029588 4.9729601 11.027344 4.9726562 C 11.02704 4.9704135 11.027659 4.9671899 11.027344 4.9648438 C 11.005967 4.8058172 11 4.471405 11 4 C 11 3.528595 11.005963 3.1941824 11.027344 3.0351562 C 11.027659 3.03281 11.02704 3.0295865 11.027344 3.0273438 C 11.029588 3.0270399 11.032809 3.0276594 11.035156 3.0273438 C 11.194181 3.0059629 11.5286 3 12 3 z M 20 3 C 20.4714 3 20.805815 3.0059598 20.964844 3.0273438 C 20.96719 3.0276592 20.970413 3.02704 20.972656 3.0273438 C 20.97296 3.0295867 20.972341 3.0328098 20.972656 3.0351562 C 20.994037 3.1941825 21 3.528595 21 4 C 21 4.471405 20.993996 4.8058176 20.972656 4.9648438 C 20.972341 4.9671901 20.97296 4.9704134 20.972656 4.9726562 C 20.970412 4.9729601 20.967191 4.9723406 20.964844 4.9726562 C 20.805815 4.9940369 20.4714 5 20 5 C 19.5286 5 19.194185 4.9940369 19.035156 4.9726562 C 19.032809 4.9723406 19.029588 4.9729601 19.027344 4.9726562 C 19.02704 4.9704135 19.027659 4.9671899 19.027344 4.9648438 C 19.005967 4.8058172 19 4.471405 19 4 C 19 3.528595 19.005963 3.1941824 19.027344 3.0351562 C 19.027659 3.03281 19.02704 3.0295865 19.027344 3.0273438 C 19.029588 3.0270399 19.032809 3.0276594 19.035156 3.0273438 C 19.194181 3.0059629 19.5286 3 20 3 z M 4 9 C 3.528595 9 3.1551325 8.9930779 2.7695312 9.0449219 C 2.3839299 9.0967658 1.9220598 9.2498152 1.5859375 9.5859375 C 1.2498234 9.9220631 1.0967637 10.383935 1.0449219 10.769531 C 0.99308003 11.155128 1 11.5286 1 12 C 1 12.4714 0.99307988 12.844872 1.0449219 13.230469 C 1.0967639 13.616065 1.2498234 14.077936 1.5859375 14.414062 C 1.9220598 14.750184 2.38393 14.903234 2.7695312 14.955078 C 3.1551324 15.006922 3.528595 15 4 15 C 4.471405 15 4.8448675 15.006898 5.2304688 14.955078 C 5.61607 14.903232 6.0779402 14.750184 6.4140625 14.414062 C 6.7501766 14.077936 6.9032363 13.616065 6.9550781 13.230469 C 7.0069199 12.844872 7 12.4714 7 12 C 7 11.5286 7.0069199 11.155128 6.9550781 10.769531 C 6.9032363 10.383935 6.7501766 9.9220631 6.4140625 9.5859375 C 6.0779402 9.2498152 5.61607 9.0967658 5.2304688 9.0449219 C 4.8448676 8.9930779 4.471405 9 4 9 z M 12 9 C 11.5286 9 11.155131 8.9930799 10.769531 9.0449219 C 10.383931 9.0967659 9.9220598 9.2498152 9.5859375 9.5859375 C 9.2498152 9.9220597 9.0967659 10.383931 9.0449219 10.769531 C 8.9930778 11.155131 9 11.5286 9 12 C 9 12.4714 8.9930799 12.844869 9.0449219 13.230469 C 9.0967659 13.616069 9.2498152 14.07794 9.5859375 14.414062 C 9.9220598 14.750184 10.383931 14.903234 10.769531 14.955078 C 11.155131 15.006922 11.5286 15 12 15 C 12.4714 15 12.844869 15.006898 13.230469 14.955078 C 13.616069 14.903238 14.07794 14.750184 14.414062 14.414062 C 14.750184 14.077939 14.903234 13.616069 14.955078 13.230469 C 15.006922 12.844867 15 12.4714 15 12 C 15 11.5286 15.006898 11.155131 14.955078 10.769531 C 14.903238 10.383931 14.750184 9.9220598 14.414062 9.5859375 C 14.077937 9.2498152 13.616069 9.0967659 13.230469 9.0449219 C 12.844869 8.9930778 12.4714 9 12 9 z M 20 9 C 19.5286 9 19.155131 8.9930799 18.769531 9.0449219 C 18.383931 9.0967659 17.922061 9.2498152 17.585938 9.5859375 C 17.249816 9.9220597 17.096766 10.383931 17.044922 10.769531 C 16.993078 11.155131 17 11.5286 17 12 C 17 12.4714 16.993102 12.844869 17.044922 13.230469 C 17.096762 13.616069 17.249815 14.07794 17.585938 14.414062 C 17.922061 14.750184 18.383931 14.903234 18.769531 14.955078 C 19.155133 15.006922 19.5286 15 20 15 C 20.4714 15 20.844869 15.006898 21.230469 14.955078 C 21.616069 14.903238 22.07794 14.750184 22.414062 14.414062 C 22.750186 14.077939 22.903234 13.616069 22.955078 13.230469 C 23.006922 12.844867 23 12.4714 23 12 C 23 11.5286 23.006898 11.155131 22.955078 10.769531 C 22.903238 10.383931 22.750186 9.9220598 22.414062 9.5859375 C 22.077939 9.2498152 21.616069 9.0967659 21.230469 9.0449219 C 20.844869 8.9930778 20.4714 9 20 9 z M 4 11 C 4.471405 11 4.8058176 11.006004 4.9648438 11.027344 C 4.96719 11.027659 4.9704134 11.02704 4.9726562 11.027344 C 4.9729601 11.029588 4.9723406 11.032809 4.9726562 11.035156 C 4.9940369 11.194185 5 11.5286 5 12 C 5 12.4714 4.9940369 12.805815 4.9726562 12.964844 C 4.9723408 12.96719 4.97296 12.970413 4.9726562 12.972656 C 4.9704133 12.97296 4.9671902 12.972341 4.9648438 12.972656 C 4.8058175 12.994037 4.471405 13 4 13 C 3.528595 13 3.1941824 12.994037 3.0351562 12.972656 C 3.03281 12.972341 3.0295865 12.97296 3.0273438 12.972656 C 3.0270399 12.970412 3.0276594 12.967191 3.0273438 12.964844 C 3.0059629 12.805819 3 12.4714 3 12 C 3 11.5286 3.0059631 11.194185 3.0273438 11.035156 C 3.0276594 11.032809 3.0270399 11.029588 3.0273438 11.027344 C 3.0295865 11.02704 3.0328101 11.027659 3.0351562 11.027344 C 3.1941827 11.005967 3.528595 11 4 11 z M 12 11 C 12.4714 11 12.805819 11.006004 12.964844 11.027344 C 12.967193 11.02766 12.970411 11.02704 12.972656 11.027344 C 12.97296 11.029589 12.97234 11.032807 12.972656 11.035156 C 12.994029 11.194177 13 11.5286 13 12 C 13 12.4714 12.993996 12.805819 12.972656 12.964844 C 12.972341 12.967191 12.97296 12.970412 12.972656 12.972656 C 12.970411 12.97296 12.967193 12.97234 12.964844 12.972656 C 12.805823 12.994033 12.4714 13 12 13 C 11.5286 13 11.194181 12.993996 11.035156 12.972656 C 11.032809 12.972341 11.029588 12.97296 11.027344 12.972656 C 11.02704 12.970411 11.02766 12.967193 11.027344 12.964844 C 11.005967 12.805823 11 12.4714 11 12 C 11 11.5286 11.006004 11.194181 11.027344 11.035156 C 11.027659 11.032809 11.02704 11.029588 11.027344 11.027344 C 11.029589 11.02704 11.032807 11.02766 11.035156 11.027344 C 11.194177 11.005967 11.5286 11 12 11 z M 20 11 C 20.4714 11 20.805819 11.006004 20.964844 11.027344 C 20.967192 11.02766 20.970411 11.02704 20.972656 11.027344 C 20.97296 11.029589 20.97234 11.032807 20.972656 11.035156 C 20.994029 11.194177 21 11.5286 21 12 C 21 12.4714 20.993996 12.805819 20.972656 12.964844 C 20.972341 12.967191 20.97296 12.970412 20.972656 12.972656 C 20.970411 12.97296 20.967193 12.97234 20.964844 12.972656 C 20.805823 12.994033 20.4714 13 20 13 C 19.5286 13 19.194181 12.993996 19.035156 12.972656 C 19.032809 12.972341 19.029587 12.97296 19.027344 12.972656 C 19.02704 12.970411 19.02766 12.967193 19.027344 12.964844 C 19.005967 12.805823 19 12.4714 19 12 C 19 11.5286 19.006004 11.194181 19.027344 11.035156 C 19.027659 11.032809 19.02704 11.029588 19.027344 11.027344 C 19.029589 11.02704 19.032807 11.02766 19.035156 11.027344 C 19.194177 11.005967 19.5286 11 20 11 z M 4 17 C 3.528595 17 3.1551325 16.993078 2.7695312 17.044922 C 2.3839299 17.096766 1.9220598 17.249816 1.5859375 17.585938 C 1.2498234 17.922064 1.0967637 18.383935 1.0449219 18.769531 C 0.99308003 19.155128 1 19.5286 1 20 C 1 20.4714 0.99307988 20.844872 1.0449219 21.230469 C 1.0967639 21.616065 1.2498234 22.077938 1.5859375 22.414062 C 1.9220598 22.750186 2.38393 22.903234 2.7695312 22.955078 C 3.1551324 23.006922 3.528595 23 4 23 C 4.471405 23 4.8448675 23.006898 5.2304688 22.955078 C 5.61607 22.903232 6.0779402 22.750185 6.4140625 22.414062 C 6.7501766 22.077937 6.9032363 21.616065 6.9550781 21.230469 C 7.0069199 20.844872 7 20.4714 7 20 C 7 19.5286 7.0069199 19.155128 6.9550781 18.769531 C 6.9032363 18.383935 6.7501766 17.922064 6.4140625 17.585938 C 6.0779402 17.249816 5.61607 17.096766 5.2304688 17.044922 C 4.8448676 16.993078 4.471405 17 4 17 z M 12 17 C 11.5286 17 11.155131 16.993102 10.769531 17.044922 C 10.383931 17.096762 9.9220598 17.249815 9.5859375 17.585938 C 9.2498152 17.922062 9.0967659 18.383931 9.0449219 18.769531 C 8.9930778 19.155131 9 19.5286 9 20 C 9 20.4714 8.9930799 20.844869 9.0449219 21.230469 C 9.0967659 21.616069 9.2498152 22.07794 9.5859375 22.414062 C 9.9220598 22.750186 10.383931 22.903234 10.769531 22.955078 C 11.155131 23.006922 11.5286 23 12 23 C 12.4714 23 12.844869 23.006898 13.230469 22.955078 C 13.616069 22.903238 14.07794 22.750186 14.414062 22.414062 C 14.750184 22.077941 14.903234 21.616069 14.955078 21.230469 C 15.006922 20.844867 15 20.4714 15 20 C 15 19.5286 15.006898 19.155131 14.955078 18.769531 C 14.903238 18.383931 14.750184 17.922061 14.414062 17.585938 C 14.077937 17.249816 13.616069 17.096766 13.230469 17.044922 C 12.844869 16.993078 12.4714 17 12 17 z M 20 17 C 19.5286 17 19.155131 16.993102 18.769531 17.044922 C 18.383931 17.096762 17.922061 17.249815 17.585938 17.585938 C 17.249816 17.922061 17.096766 18.383931 17.044922 18.769531 C 16.993078 19.155133 17 19.5286 17 20 C 17 20.4714 16.993102 20.844869 17.044922 21.230469 C 17.096762 21.616069 17.249815 22.07794 17.585938 22.414062 C 17.922061 22.750186 18.383931 22.903234 18.769531 22.955078 C 19.155133 23.006922 19.5286 23 20 23 C 20.4714 23 20.844869 23.006898 21.230469 22.955078 C 21.616069 22.903238 22.07794 22.750186 22.414062 22.414062 C 22.750186 22.077941 22.903234 21.616069 22.955078 21.230469 C 23.006922 20.844867 23 20.4714 23 20 C 23 19.5286 23.006898 19.155131 22.955078 18.769531 C 22.903238 18.383931 22.750186 17.922061 22.414062 17.585938 C 22.077939 17.249816 21.616069 17.096766 21.230469 17.044922 C 20.844869 16.993078 20.4714 17 20 17 z M 4 19 C 4.471405 19 4.8058176 19.006004 4.9648438 19.027344 C 4.96719 19.027659 4.9704134 19.02704 4.9726562 19.027344 C 4.9729601 19.029588 4.9723406 19.032809 4.9726562 19.035156 C 4.9940369 19.194185 5 19.5286 5 20 C 5 20.4714 4.9940369 20.805815 4.9726562 20.964844 C 4.9723408 20.96719 4.97296 20.970413 4.9726562 20.972656 C 4.9704133 20.97296 4.9671902 20.972341 4.9648438 20.972656 C 4.8058175 20.994037 4.471405 21 4 21 C 3.528595 21 3.1941824 20.994037 3.0351562 20.972656 C 3.03281 20.972341 3.0295865 20.97296 3.0273438 20.972656 C 3.0270399 20.970412 3.0276594 20.967191 3.0273438 20.964844 C 3.0059629 20.805819 3 20.4714 3 20 C 3 19.5286 3.0059631 19.194185 3.0273438 19.035156 C 3.0276594 19.032809 3.0270399 19.029588 3.0273438 19.027344 C 3.0295865 19.02704 3.03281 19.027659 3.0351562 19.027344 C 3.1941827 19.005967 3.528595 19 4 19 z M 12 19 C 12.4714 19 12.805819 19.006004 12.964844 19.027344 C 12.967193 19.02766 12.970411 19.02704 12.972656 19.027344 C 12.97296 19.029589 12.97234 19.032807 12.972656 19.035156 C 12.994029 19.194177 13 19.5286 13 20 C 13 20.4714 12.993996 20.805819 12.972656 20.964844 C 12.972341 20.967191 12.97296 20.970413 12.972656 20.972656 C 12.970411 20.97296 12.967193 20.97234 12.964844 20.972656 C 12.805823 20.994033 12.4714 21 12 21 C 11.5286 21 11.194181 20.993996 11.035156 20.972656 C 11.032809 20.972341 11.029588 20.97296 11.027344 20.972656 C 11.02704 20.970411 11.02766 20.967193 11.027344 20.964844 C 11.005967 20.805823 11 20.4714 11 20 C 11 19.5286 11.006004 19.194181 11.027344 19.035156 C 11.027659 19.032809 11.02704 19.029587 11.027344 19.027344 C 11.029589 19.02704 11.032807 19.02766 11.035156 19.027344 C 11.194177 19.005967 11.5286 19 12 19 z M 20 19 C 20.4714 19 20.805819 19.006004 20.964844 19.027344 C 20.967192 19.02766 20.970411 19.02704 20.972656 19.027344 C 20.97296 19.029589 20.97234 19.032807 20.972656 19.035156 C 20.994029 19.194177 21 19.5286 21 20 C 21 20.4714 20.993996 20.805819 20.972656 20.964844 C 20.972341 20.967191 20.97296 20.970413 20.972656 20.972656 C 20.970411 20.97296 20.967193 20.97234 20.964844 20.972656 C 20.805823 20.994033 20.4714 21 20 21 C 19.5286 21 19.194181 20.993996 19.035156 20.972656 C 19.032809 20.972341 19.029587 20.97296 19.027344 20.972656 C 19.02704 20.970411 19.02766 20.967193 19.027344 20.964844 C 19.005967 20.805823 19 20.4714 19 20 C 19 19.5286 19.006004 19.194181 19.027344 19.035156 C 19.027659 19.032809 19.02704 19.029587 19.027344 19.027344 C 19.029589 19.02704 19.032807 19.02766 19.035156 19.027344 C 19.194177 19.005967 19.5286 19 20 19 z " fill="currentColor"/>
</svg>
