<svg xmlns="http://www.w3.org/2000/svg" width="1em" height="1em" viewBox="0 0 24 24" fill="currentColor">
  <path d="M 11.769531 1.0058594 C 10.680635 1.0533165 9.702341 1.5372752 8.7363281 2.2851562 C 7.7703152 3.0330373 6.75184 4.06066 5.40625 5.40625 C 4.06066 6.75184 3.0330372 7.7703152 2.2851562 8.7363281 C 1.5372751 9.702341 1.0533165 10.680635 1.0058594 11.769531 C 0.99918637 11.922735 0.99918637 12.077265 1.0058594 12.230469 C 1.0533164 13.319365 1.5372759 14.297654 2.2851562 15.263672 C 3.0330365 16.229689 4.06066 17.24815 5.40625 18.59375 C 6.7518378 19.939298 7.7703175 20.966973 8.7363281 21.714844 C 9.7023387 22.462715 10.680633 22.946683 11.769531 22.994141 C 11.923214 23.000941 12.076786 23.000941 12.230469 22.994141 C 13.319367 22.946681 14.297657 22.462714 15.263672 21.714844 C 16.229687 20.966973 17.248152 19.939298 18.59375 18.59375 C 19.939298 17.248152 20.966973 16.229687 21.714844 15.263672 C 22.462714 14.297657 22.946683 13.319367 22.994141 12.230469 C 23.000941 12.076786 23.000941 11.923214 22.994141 11.769531 C 22.946683 10.680633 22.462715 9.7023387 21.714844 8.7363281 C 20.966973 7.7703175 19.939298 6.7518378 18.59375 5.40625 C 17.24815 4.06066 16.229689 3.0330366 15.263672 2.2851562 C 14.297654 1.5372758 13.319365 1.0533165 12.230469 1.0058594 C 12.077265 0.99918637 11.922735 0.99918637 11.769531 1.0058594 z M 11.857422 3.0039062 C 11.952622 2.9997562 12.047381 2.9997562 12.142578 3.0039062 C 12.717182 3.0289493 13.243605 3.2513528 14.039062 3.8671875 C 14.83452 4.4830222 15.834089 5.4747225 17.179688 6.8203125 C 18.52524 8.1659047 19.516984 9.1654831 20.132812 9.9609375 C 20.748642 10.756392 20.971051 11.28282 20.996094 11.857422 C 21.000294 11.952142 21.000294 12.047861 20.996094 12.142578 C 20.971054 12.71718 20.748643 13.243602 20.132812 14.039062 C 19.516983 14.834521 18.52524 15.834086 17.179688 17.179688 C 15.834086 18.52524 14.834521 19.516983 14.039062 20.132812 C 13.243602 20.748642 12.71718 20.971051 12.142578 20.996094 C 12.047858 21.000294 11.952139 21.000294 11.857422 20.996094 C 11.282821 20.971051 10.756392 20.748642 9.9609375 20.132812 C 9.1654831 19.516984 8.1659047 18.52524 6.8203125 17.179688 C 5.4747225 15.834088 4.4830222 14.83452 3.8671875 14.039062 C 3.2513528 13.243605 3.028949 12.717182 3.0039062 12.142578 C 2.9997562 12.047378 2.9997562 11.952619 3.0039062 11.857422 C 3.0289493 11.282818 3.2513535 10.75639 3.8671875 9.9609375 C 4.4830215 9.1654854 5.4747225 8.1659025 6.8203125 6.8203125 C 8.1659025 5.4747225 9.1654854 4.4830215 9.9609375 3.8671875 C 10.75639 3.2513535 11.282819 3.0289491 11.857422 3.0039062 z M 11.994141 7.0058594 A 1 1 0 0 0 10.994141 8.0058594 L 10.994141 11 L 8 11 A 1 1 0 0 0 7 12 A 1 1 0 0 0 8 13 L 10.994141 13 L 10.994141 16.005859 A 1 1 0 0 0 11.994141 17.005859 A 1 1 0 0 0 12.994141 16.005859 L 12.994141 13 L 16 13 A 1 1 0 0 0 17 12 A 1 1 0 0 0 16 11 L 12.994141 11 L 12.994141 8.0058594 A 1 1 0 0 0 11.994141 7.0058594 z " fill="currentColor"/>
</svg>
