<svg xmlns="http://www.w3.org/2000/svg" width="1em" height="1em" viewBox="0 0 24 24" fill="currentColor">
  <path d="M 12 1 C 5.9367104 1 1 5.9367104 1 12 C 1 18.063244 5.9367044 23 12 23 C 18.06325 23 23 18.06325 23 12 C 23 5.9367044 18.063244 1 12 1 z M 12 3 C 16.982356 3 21 7.0175956 21 12 C 21 16.98235 16.98235 21 12 21 C 7.0175956 21 3 16.982356 3 12 C 3 7.0175896 7.0175896 3 12 3 z M 7.0097656 9 A 1 1 0 0 0 6.3027344 9.2929688 C 6.1729425 9.4227605 5.6435495 9.832957 5.1679688 10.238281 C 4.9301784 10.440943 4.6976964 10.649666 4.4882812 10.890625 C 4.2788661 11.131584 4 11.371667 4 12 A 1 1 0 0 0 4.0078125 12.130859 C 4.0447694 12.65483 4.2936616 12.883474 4.4863281 13.105469 C 4.694723 13.345585 4.9255877 13.552525 5.1621094 13.753906 C 5.6351528 14.156669 6.1583191 14.562616 6.3027344 14.707031 A 1 1 0 0 0 7.7167969 14.707031 A 1 1 0 0 0 7.7167969 13.292969 C 7.6171419 13.193314 7.5094142 13.095835 7.3984375 13 L 9.7128906 13 C 10.102594 13.878805 10.985563 14.5 12 14.5 C 13.014437 14.5 13.897406 13.878805 14.287109 13 L 16.611328 13 C 16.499899 13.095913 16.392598 13.19334 16.292969 13.292969 A 1 1 0 0 0 16.292969 14.707031 A 1 1 0 0 0 17.707031 14.707031 C 17.836823 14.577239 18.366216 14.167043 18.841797 13.761719 C 19.079587 13.559057 19.312069 13.350334 19.521484 13.109375 C 19.7309 12.868416 20.009766 12.628333 20.009766 12 C 20.009766 11.378333 19.731833 11.134648 19.523438 10.894531 C 19.315044 10.654415 19.084178 10.447475 18.847656 10.246094 C 18.374613 9.8433307 17.851446 9.437384 17.707031 9.2929688 A 1 1 0 0 0 16.292969 9.2929688 A 1 1 0 0 0 16.292969 10.707031 C 16.392624 10.806686 16.500351 10.904165 16.611328 11 L 14.287109 11 C 13.897406 10.121195 13.014437 9.5 12 9.5 C 10.985563 9.5 10.102594 10.121195 9.7128906 11 L 7.3984375 11 C 7.5098669 10.904087 7.6171677 10.80666 7.7167969 10.707031 A 1 1 0 0 0 7.7167969 9.2929688 A 1 1 0 0 0 7.0097656 9 z M 12 11.5 C 12.28792 11.5 12.5 11.71208 12.5 12 C 12.5 12.28792 12.28792 12.5 12 12.5 C 11.71208 12.5 11.5 12.28792 11.5 12 C 11.5 11.71208 11.71208 11.5 12 11.5 z " fill="currentColor"/>
</svg>
