<svg xmlns="http://www.w3.org/2000/svg" width="1em" height="1em" viewBox="0 0 24 24" fill="currentColor">
  <path d="M 12 2 C 11.259919 2 10.586562 2.32636 9.9980469 2.7753906 C 9.4095319 3.2244213 8.8297186 3.8109314 8.0703125 4.5703125 C 7.3109229 5.3297071 6.72442 5.9095203 6.2753906 6.4980469 C 5.8263612 7.0865735 5.5 7.7599294 5.5 8.5 C 5.5 9.2400706 5.8263611 9.9134368 6.2753906 10.501953 C 6.6407306 10.980783 7.0976407 11.454717 7.6640625 12.023438 C 7.1780731 11.997918 6.6380895 12 6 12 C 5.05719 12 4.3297904 11.993601 3.671875 12.082031 C 3.0139596 12.170491 2.3614738 12.396322 1.8789062 12.878906 C 1.3963405 13.361481 1.1704861 14.013964 1.0820312 14.671875 C 0.99357648 15.329786 1 16.0572 1 17 C 1 17.9428 0.99357625 18.670214 1.0820312 19.328125 C 1.1704862 19.986036 1.3963405 20.63852 1.8789062 21.121094 C 2.3614739 21.603678 3.0139596 21.829512 3.671875 21.917969 C 4.3297906 22.006425 5.05719 22 6 22 C 6.94281 22 7.6702096 22.006399 8.328125 21.917969 C 8.9860404 21.829509 9.638526 21.603678 10.121094 21.121094 C 10.603659 20.63852 10.829514 19.986036 10.917969 19.328125 C 11.006424 18.670213 11 17.9428 11 17 C 11 16.106709 11.006255 15.40605 10.931641 14.775391 C 11.269318 14.915875 11.625878 15 12 15 C 12.374114 15 12.730677 14.915878 13.068359 14.775391 C 12.993725 15.406054 13 16.106707 13 17 C 13 17.9428 12.993601 18.670212 13.082031 19.328125 C 13.170491 19.986038 13.396334 20.638521 13.878906 21.121094 C 14.361479 21.603666 15.013962 21.829512 15.671875 21.917969 C 16.329789 22.006425 17.0572 22 18 22 C 18.9428 22 19.670212 22.006399 20.328125 21.917969 C 20.986038 21.829509 21.638521 21.603666 22.121094 21.121094 C 22.603666 20.638521 22.829512 19.986038 22.917969 19.328125 C 23.006425 18.670211 23 17.9428 23 17 C 23 16.0572 23.006399 15.329788 22.917969 14.671875 C 22.829509 14.013962 22.603666 13.361479 22.121094 12.878906 C 21.63852 12.396334 20.986038 12.170488 20.328125 12.082031 C 19.670212 11.993575 18.9428 12 18 12 C 17.361913 12 16.821931 11.997918 16.335938 12.023438 C 16.902366 11.454712 17.359262 10.980785 17.724609 10.501953 C 18.173645 9.913437 18.5 9.2400742 18.5 8.5 C 18.5 7.7599258 18.173645 7.0865733 17.724609 6.4980469 C 17.275574 5.9095204 16.689087 5.3297071 15.929688 4.5703125 C 15.170294 3.8109303 14.590466 3.224423 14.001953 2.7753906 C 13.41344 2.3263582 12.740081 2 12 2 z M 12 4 C 12.203619 4 12.3823 4.054877 12.789062 4.3652344 C 13.195825 4.675592 13.756217 5.2249772 14.515625 5.984375 C 15.275025 6.7437704 15.824401 7.304159 16.134766 7.7109375 C 16.44513 8.117716 16.5 8.2964242 16.5 8.5 C 16.5 8.7035758 16.44513 8.8822913 16.134766 9.2890625 C 15.824401 9.6958337 15.275029 10.256221 14.515625 11.015625 C 13.756225 11.775025 13.195842 12.324398 12.789062 12.634766 C 12.382281 12.945133 12.203537 13 12 13 C 11.796385 13 11.617705 12.945129 11.210938 12.634766 C 10.804169 12.324402 10.243799 11.775034 9.484375 11.015625 C 8.7249811 10.256221 8.1755949 9.6958336 7.8652344 9.2890625 C 7.5548739 8.8822914 7.5 8.7035794 7.5 8.5 C 7.5 8.2964206 7.5548738 8.1177159 7.8652344 7.7109375 C 8.175595 7.3041591 8.7249846 6.7437704 9.484375 5.984375 C 10.243799 5.2249761 10.80417 4.6755937 11.210938 4.3652344 C 11.617705 4.054875 11.796381 4 12 4 z M 12 7.25 C 11.321567 7.25 10.75 7.8216244 10.75 8.5 C 10.75 9.1783756 11.321567 9.75 12 9.75 C 12.678433 9.75 13.25 9.1783756 13.25 8.5 C 13.25 7.8216244 12.678433 7.25 12 7.25 z M 6 14 C 6.94281 14 7.6292073 14.006503 8.0605469 14.064453 C 8.4918864 14.122443 8.6038187 14.189753 8.7070312 14.292969 C 8.8102554 14.396195 8.8775542 14.508114 8.9355469 14.939453 C 8.9935396 15.370795 9 16.0572 9 17 C 9 17.9428 8.9935399 18.629208 8.9355469 19.060547 C 8.8775539 19.491886 8.8102554 19.603805 8.7070312 19.707031 C 8.6038187 19.810247 8.4918864 19.877553 8.0605469 19.935547 C 7.6292073 19.99354 6.94281 20 6 20 C 5.05719 20 4.3707927 19.99354 3.9394531 19.935547 C 3.5081136 19.877553 3.3961812 19.810247 3.2929688 19.707031 C 3.1897445 19.603805 3.1224458 19.491886 3.0644531 19.060547 C 3.0064604 18.629208 3 17.9428 3 17 C 3 16.0572 3.0064604 15.370792 3.0644531 14.939453 C 3.1224458 14.508114 3.1897445 14.396195 3.2929688 14.292969 C 3.3961811 14.189753 3.5081136 14.122447 3.9394531 14.064453 C 4.3707927 14.00646 5.05719 14 6 14 z M 18 14 C 18.9428 14 19.62921 14.006503 20.060547 14.064453 C 20.491884 14.122443 20.603804 14.189741 20.707031 14.292969 C 20.810259 14.396196 20.877553 14.508116 20.935547 14.939453 C 20.99354 15.370793 21 16.0572 21 17 C 21 17.9428 20.993497 18.62921 20.935547 19.060547 C 20.877557 19.491884 20.810259 19.603804 20.707031 19.707031 C 20.603804 19.810259 20.491884 19.877553 20.060547 19.935547 C 19.629207 19.99354 18.9428 20 18 20 C 17.0572 20 16.37079 19.99354 15.939453 19.935547 C 15.508116 19.877553 15.396196 19.810259 15.292969 19.707031 C 15.189741 19.603804 15.122447 19.491884 15.064453 19.060547 C 15.00646 18.62921 15 17.9428 15 17 C 15 16.0572 15.006503 15.37079 15.064453 14.939453 C 15.122443 14.508116 15.189741 14.396196 15.292969 14.292969 C 15.396196 14.189741 15.508116 14.122447 15.939453 14.064453 C 16.370793 14.00646 17.0572 14 18 14 z " fill="currentColor"/>
</svg>
