<svg xmlns="http://www.w3.org/2000/svg" width="1em" height="1em" viewBox="0 0 24 24" fill="currentColor">
  <path d="M 10 1 C 8.11438 1 6.6810556 0.99457301 5.4785156 1.15625 C 4.2759756 1.317927 3.240311 1.689383 2.4648438 2.4648438 C 1.689383 3.240311 1.317927 4.2759756 1.15625 5.4785156 C 0.99457301 6.6810556 1 8.11438 1 10 C 1 11.8856 0.994573 13.318937 1.15625 14.521484 C 1.3179268 15.724031 1.6893545 16.759713 2.4648438 17.535156 C 3.5347015 18.60504 5.0145674 18.884151 6.9589844 18.964844 A 1 1 0 0 0 8 18.005859 A 1 1 0 0 0 7.0410156 16.966797 C 5.2408326 16.89209 4.4254084 16.66761 3.8789062 16.121094 C 3.4828254 15.725037 3.2679343 15.231837 3.1367188 14.255859 C 3.005503 13.279881 3 11.8856 3 10 C 3 8.11438 3.0055032 6.7201106 3.1367188 5.7441406 C 3.2679342 4.7681706 3.4827969 4.2750188 3.8789062 3.8789062 C 4.2750189 3.482797 4.7681706 3.2679342 5.7441406 3.1367188 C 6.7201106 3.0055032 8.11438 3 10 3 L 14 3 C 15.8856 3 17.279881 3.0054999 18.255859 3.1367188 C 19.231837 3.2679343 19.725037 3.4828254 20.121094 3.8789062 C 20.517216 4.2750212 20.732063 4.7681734 20.863281 5.7441406 C 20.9945 6.7201079 21 8.11438 21 10 C 21 11.8856 20.9945 13.279884 20.863281 14.255859 C 20.732063 15.231835 20.517187 15.725034 20.121094 16.121094 C 19.738556 16.503632 19.269993 16.713384 18.355469 16.847656 A 1 1 0 0 0 17.509766 17.982422 A 1 1 0 0 0 18.644531 18.828125 C 19.791007 18.659797 20.786294 18.284018 21.535156 17.535156 C 22.310663 16.759716 22.682069 15.724034 22.84375 14.521484 C 23.005431 13.318935 23 11.8856 23 10 C 23 8.11438 23.005432 6.6810584 22.84375 5.4785156 C 22.682068 4.2759729 22.310634 3.2403086 21.535156 2.4648438 C 20.759713 1.6893545 19.724031 1.3179268 18.521484 1.15625 C 17.318937 0.99457318 15.8856 1 14 1 L 10 1 z M 7 6 A 1 1 0 0 0 6 7 A 1 1 0 0 0 7 8 L 17 8 A 1 1 0 0 0 18 7 A 1 1 0 0 0 17 6 L 7 6 z M 12 11 C 10.07885 11 8.5 12.57885 8.5 14.5 C 8.5 14.61612 8.5082682 14.730404 8.5195312 14.84375 C 8.6211388 18.979237 10.449342 21.511583 11.175781 22.566406 A 1.0001 1.0001 0 0 0 12.894531 22.447266 L 13.921875 20.392578 L 14.753906 20.869141 L 16.503906 21.869141 A 1.0001 1.0001 0 0 0 17.695312 20.28125 C 17.581489 20.171068 17.157925 19.466476 16.894531 18.859375 C 16.631138 18.252274 16.453125 17.726562 16.453125 17.726562 A 1 1 0 0 0 15.185547 17.099609 A 1 1 0 0 0 14.558594 18.367188 C 14.558594 18.367188 14.598712 18.468256 14.601562 18.476562 L 13.996094 18.130859 A 1.0001 1.0001 0 0 0 12.605469 18.552734 L 11.927734 19.910156 C 11.585288 19.327026 11.243372 18.66597 10.980469 17.847656 C 11.303297 17.947007 11.646237 18 12 18 C 13.92115 18 15.5 16.42115 15.5 14.5 C 15.5 12.57885 13.92115 11 12 11 z M 12 13 C 12.84025 13 13.5 13.65975 13.5 14.5 C 13.5 15.34025 12.84025 16 12 16 C 11.228593 16 10.60997 15.444424 10.513672 14.703125 C 10.512522 14.629667 10.5 14.575181 10.5 14.5 C 10.5 13.65975 11.15975 13 12 13 z " fill="currentColor"/>
</svg>
