<svg xmlns="http://www.w3.org/2000/svg" width="1em" height="1em" viewBox="0 0 24 24" fill="currentColor">
  <path d="M 7.7441406 2 C 6.8968206 2 6.2937091 1.96827 5.6484375 2.296875 C 5.0031628 2.6254905 4.6674372 3.1223417 4.125 3.8300781 L 3.9101562 4.1113281 C 3.6755454 4.4174342 3.4826712 4.6609314 3.3144531 4.9453125 C 3.146235 5.2296936 3 5.6029735 3 6 C 3 6.3970265 3.146235 6.7703064 3.3144531 7.0546875 C 3.4826712 7.3390686 3.6755454 7.5825658 3.9101562 7.8886719 L 4.125 8.1699219 C 4.6674372 8.8776583 5.0031628 9.3745095 5.6484375 9.703125 C 6.2937091 10.03173 6.8968206 10 7.7441406 10 L 11 10 L 11 14 L 11 20 L 9 20 A 1 1 0 0 0 8 21 A 1 1 0 0 0 9 22 L 12 22 L 15 22 A 1 1 0 0 0 16 21 A 1 1 0 0 0 15 20 L 13 20 L 13 15 L 16.255859 15 C 17.102385 15 17.704988 15.03082 18.349609 14.703125 C 18.994995 14.374515 19.332518 13.877698 19.875 13.169922 L 20.089844 12.888672 C 20.32446 12.582551 20.517343 12.339078 20.685547 12.054688 C 20.853751 11.770296 21 11.397022 21 11 C 21 10.602978 20.853754 10.229704 20.685547 9.9453125 C 20.51734 9.6609214 20.324462 9.4174371 20.089844 9.1113281 L 19.875 8.8300781 C 19.332521 8.1223653 18.994933 7.6254887 18.349609 7.296875 C 17.704977 6.9691414 17.102385 7 16.255859 7 L 13 7 L 13 5 L 13 4 A 1 1 0 0 0 12.943359 3.6660156 C 12.885681 3.3156771 12.751461 2.9247294 12.466797 2.6152344 C 12.151172 2.2720891 11.687474 2.1014067 11.314453 2.046875 C 10.941432 1.9923433 10.593706 2 10.160156 2 L 7.7441406 2 z M 7.7441406 4 L 10.160156 4 C 10.568254 4 10.83504 4.0070805 10.974609 4.0234375 L 10.974609 4.0253906 C 10.995346 4.1930808 11 4.528595 11 5 L 11 8 L 7.7441406 8 C 6.8968206 8 6.6529291 7.9689568 6.5566406 7.9199219 C 6.4603753 7.8708974 6.2553334 7.6608686 5.7128906 6.953125 L 5.4980469 6.671875 C 5.2634377 6.365771 5.1035013 6.1493482 5.0371094 6.0371094 C 5.0282667 6.0221603 5.0213685 6.0099146 5.015625 6 C 5.0213685 5.9900854 5.0282667 5.9778397 5.0371094 5.9628906 C 5.1035013 5.8506518 5.2634377 5.634229 5.4980469 5.328125 L 5.7128906 5.046875 C 6.2553334 4.3391314 6.4603753 4.1291026 6.5566406 4.0800781 C 6.6529291 4.0310432 6.8968206 4 7.7441406 4 z M 13 9 L 16.255859 9 C 17.103159 9 17.347259 9.0311281 17.443359 9.0800781 C 17.539639 9.1291041 17.744589 9.3391078 18.287109 10.046875 L 18.501953 10.328125 C 18.736535 10.634186 18.896498 10.850639 18.962891 10.962891 C 18.971732 10.977838 18.978632 10.990084 18.984375 11 C 18.978632 11.009916 18.971732 11.022162 18.962891 11.037109 C 18.896491 11.149369 18.736537 11.365796 18.501953 11.671875 L 18.287109 11.953125 C 17.744591 12.660949 17.539574 12.870932 17.443359 12.919922 C 17.347249 12.968871 17.103159 13 16.255859 13 L 13 13 L 13 9 z " fill="currentColor"/>
</svg>
