<svg xmlns="http://www.w3.org/2000/svg" width="1em" height="1em" viewBox="0 0 24 24" fill="currentColor">
  <path d="M 9 2 A 1 1 0 0 0 8 3 L 8 4 L 8 11 L 8 20 L 5 20 A 1 1 0 0 0 4 21 A 1 1 0 0 0 5 22 L 9 22 L 13 22 A 1 1 0 0 0 14 21 A 1 1 0 0 0 13 20 L 10 20 L 10 12 L 14.318359 12 C 15.377459 12 16.070543 12.03067 16.800781 11.683594 C 17.530813 11.336537 17.946952 10.780877 18.625 9.9550781 L 18.892578 9.6289062 C 19.185819 9.2717928 19.423129 8.9903809 19.625 8.671875 C 19.826871 8.3533691 20 7.9426557 20 7.5 C 20 7.0573443 19.826872 6.6466337 19.625 6.328125 C 19.423128 6.0096163 19.185821 5.7282048 18.892578 5.3710938 L 18.625 5.0449219 C 17.946968 4.2191731 17.53088 3.663479 16.800781 3.3164062 C 16.070548 2.9693447 15.377459 3 14.318359 3 L 10 3 A 1 1 0 0 0 9 2 z M 10 5 L 14.318359 5 C 15.377459 5 15.744639 5.029528 15.941406 5.1230469 C 16.138107 5.2165539 16.400157 5.4887819 17.078125 6.3144531 L 17.347656 6.640625 C 17.640914 6.997754 17.844144 7.2542237 17.935547 7.3984375 C 17.970332 7.4533215 17.987583 7.4840754 17.996094 7.5 C 17.987583 7.515925 17.97033 7.5466798 17.935547 7.6015625 C 17.844147 7.7457766 17.640916 8.0022383 17.347656 8.359375 L 17.078125 8.6855469 C 16.400173 9.5112282 16.138175 9.7834096 15.941406 9.8769531 C 15.744645 9.9704733 15.377459 10 14.318359 10 L 10 10 L 10 5 z " fill="currentColor"/>
</svg>
