<svg xmlns="http://www.w3.org/2000/svg" width="1em" height="1em" viewBox="0 0 24 24" fill="currentColor">
  <path d="M 5.9492188 1 C 5.0183887 1 4.2994305 0.99450825 3.6484375 1.0820312 C 2.9974445 1.1695543 2.3499469 1.3922491 1.8710938 1.8710938 C 1.392249 2.3499469 1.1695543 2.9974445 1.0820312 3.6484375 C 0.99450825 4.2994305 1 5.0183889 1 5.9492188 L 1 9.4199219 C 1 10.630572 0.97499425 11.375602 1.3007812 12.162109 C 1.6265623 12.948602 2.1712888 13.458368 3.0273438 14.314453 L 8.4589844 19.746094 C 9.4462972 20.733387 10.195728 21.491702 10.933594 22.054688 C 11.67146 22.617673 12.471829 23 13.353516 23 C 14.235203 23 15.037528 22.617675 15.775391 22.054688 C 16.513253 21.491701 17.262706 20.733388 18.25 19.746094 L 19.746094 18.25 C 20.733388 17.262706 21.491701 16.513253 22.054688 15.775391 C 22.617675 15.037528 23 14.235203 23 13.353516 C 23 12.471829 22.617673 11.67146 22.054688 10.933594 C 21.491702 10.195728 20.733387 9.4462972 19.746094 8.4589844 L 14.314453 3.0273438 C 13.458368 2.1712888 12.948602 1.6265624 12.162109 1.3007812 C 11.375602 0.97499422 10.630572 1 9.4199219 1 L 5.9492188 1 z M 5.9492188 3 L 9.4199219 3 C 10.630572 3 11.094392 3.023305 11.396484 3.1484375 C 11.698592 3.2735764 12.044275 3.5853211 12.900391 4.4414062 L 18.330078 9.8730469 C 19.317385 10.860374 20.04053 11.590365 20.464844 12.146484 C 20.889158 12.702603 21 13.008303 21 13.353516 C 21 13.698729 20.889156 14.004435 20.464844 14.560547 C 20.040531 15.116659 19.317384 15.848632 18.330078 16.835938 L 16.835938 18.330078 C 15.848633 19.317384 15.116659 20.040531 14.560547 20.464844 C 14.004435 20.889156 13.698729 21 13.353516 21 C 13.008303 21 12.702603 20.889158 12.146484 20.464844 C 11.590365 20.04053 10.860374 19.317385 9.8730469 18.330078 L 4.4414062 12.900391 C 3.5853211 12.044275 3.2735764 11.698592 3.1484375 11.396484 C 3.0233046 11.094392 3 10.630572 3 9.4199219 L 3 5.9492188 C 3 5.0183887 3.005438 4.3404402 3.0625 3.9160156 C 3.119562 3.4915911 3.185661 3.3846532 3.2851562 3.2851562 C 3.3846531 3.1856609 3.4915911 3.119562 3.9160156 3.0625 C 4.3404402 3.005438 5.0183887 3 5.9492188 3 z M 6.5 5 C 5.6834095 5 5 5.6834095 5 6.5 C 5 7.3165905 5.6834095 8 6.5 8 C 7.3165905 8 8 7.3165905 8 6.5 C 8 5.6834095 7.3165905 5 6.5 5 z M 13 8.5 A 1 1 0 0 0 12 9.5 L 12 16.5 A 1 1 0 0 0 13 17.5 A 1 1 0 0 0 14 16.5 L 14 9.5 A 1 1 0 0 0 13 8.5 z M 9.25 11.25 C 8.5716244 11.25 8 11.821567 8 12.5 C 8 13.178433 8.5716244 13.75 9.25 13.75 C 9.9283756 13.75 10.5 13.178433 10.5 12.5 C 10.5 11.821567 9.9283756 11.25 9.25 11.25 z M 16.75 11.25 C 16.071712 11.25 15.5 11.821712 15.5 12.5 C 15.5 13.178288 16.071712 13.75 16.75 13.75 C 17.428288 13.75 18 13.178288 18 12.5 C 18 11.821712 17.428288 11.25 16.75 11.25 z " fill="currentColor"/>
</svg>
