<svg xmlns="http://www.w3.org/2000/svg" width="1em" height="1em" viewBox="0 0 24 24" fill="currentColor">
  <path d="M 12 1 C 5.9367124 1 1 5.9367124 1 12 C 1 18.063288 5.9367124 23 12 23 C 18.063288 23 23 18.063288 23 12 C 23 5.9367124 18.063288 1 12 1 z M 12 3 C 16.982407 3 21 7.0175926 21 12 C 21 16.982407 16.982407 21 12 21 C 7.0175926 21 3 16.982407 3 12 C 3 7.0175926 7.0175926 3 12 3 z M 15 5.8027344 A 1 1 0 0 0 14.742188 5.8359375 A 1 1 0 0 0 14.134766 6.3027344 A 1 1 0 0 0 14.5 7.6679688 C 15.258921 8.1069752 15.893044 8.7410996 16.332031 9.5 A 1 1 0 0 0 17.697266 9.8652344 A 1 1 0 0 0 18.0625 8.5 C 17.447687 7.4371404 16.562879 6.5523336 15.5 5.9375 A 1 1 0 0 0 15 5.8027344 z M 12 9 C 10.35499 9 9 10.35499 9 12 C 9 13.64501 10.35499 15 12 15 C 13.64501 15 15 13.64501 15 12 C 15 10.35499 13.64501 9 12 9 z M 12 11 C 12.564129 11 13 11.435871 13 12 C 13 12.564129 12.564129 13 12 13 C 11.435871 13 11 12.564129 11 12 C 11 11.435871 11.435871 11 12 11 z M 6.8027344 14 A 1 1 0 0 0 6.3027344 14.134766 A 1 1 0 0 0 5.9375 15.5 C 6.5523309 16.562874 7.4371258 17.447685 8.5 18.0625 A 1 1 0 0 0 9.8652344 17.697266 A 1 1 0 0 0 9.5 16.332031 C 8.7410942 15.893046 8.1069778 15.258926 7.6679688 14.5 A 1 1 0 0 0 6.8027344 14 z " fill="currentColor"/>
</svg>
