<svg xmlns="http://www.w3.org/2000/svg" width="1em" height="1em" viewBox="0 0 24 24" fill="currentColor">
  <path d="M 12 1 C 5.9367124 1 1 5.9367124 1 12 C 1 18.063288 5.9367124 23 12 23 C 18.063288 23 23 18.063288 23 12 C 23 5.9367124 18.063288 1 12 1 z M 12 3 C 16.982407 3 21 7.0175926 21 12 C 21 16.982407 16.982407 21 12 21 C 7.0175926 21 3 16.982407 3 12 C 3 7.0175926 7.0175926 3 12 3 z M 12 6 C 10.907269 6 10 6.9072936 10 8 C 10 9.0927064 10.907269 10 12 10 C 13.092731 10 14 9.0927064 14 8 C 14 6.9072936 13.092731 6 12 6 z M 7 11 A 1 1 0 0 0 6 12 A 1 1 0 0 0 7 13 L 17 13 A 1 1 0 0 0 18 12 A 1 1 0 0 0 17 11 L 7 11 z M 12 14 C 10.907293 14 10 14.907293 10 16 C 10 17.092707 10.907293 18 12 18 C 13.092707 18 14 17.092707 14 16 C 14 14.907293 13.092707 14 12 14 z " fill="currentColor"/>
</svg>
