<svg xmlns="http://www.w3.org/2000/svg" width="1em" height="1em" viewBox="0 0 24 24" fill="currentColor">
  <path d="M 11.455078 1 C 9.8325882 1 8.5991987 0.99500499 7.5527344 1.1171875 C 6.5062701 1.23937 5.598017 1.5134548 4.8613281 2.1074219 C 4.5838098 2.331179 4.331179 2.5838098 4.1074219 2.8613281 C 3.5134548 3.598017 3.2393699 4.5062653 3.1171875 5.5527344 C 2.9950051 6.5992035 3 7.8325681 3 9.4550781 L 3 13 A 1 1 0 0 0 4 14 A 1 1 0 0 0 5 13 L 5 9.4550781 C 5 7.8325681 5.0041805 6.633989 5.1035156 5.7832031 C 5.2028507 4.9324172 5.3719595 4.4794786 5.6640625 4.1171875 C 5.7983254 3.9506658 5.9506658 3.7983254 6.1171875 3.6640625 C 6.4794786 3.3719595 6.9324224 3.2028506 7.7832031 3.1035156 C 8.6339838 3.0041806 9.8325882 3 11.455078 3 C 11.82298 3 11.841181 3.0189629 12.001953 3.0292969 C 12.001856 4.4257545 11.995153 5.5035162 12.119141 6.4257812 C 12.24421 7.3560104 12.542845 8.1991092 13.171875 8.828125 C 13.800899 9.4571352 14.643996 9.7557935 15.574219 9.8808594 C 16.493299 10.004427 17.569593 9.9981768 18.958984 9.9980469 C 18.973846 10.183132 19 10.211888 19 10.65625 L 19 13 A 1 1 0 0 0 20 14 A 1 1 0 0 0 21 13 L 21 10.65625 C 21 9.8387 21.023956 9.2893684 20.771484 8.6796875 C 20.518895 8.070123 20.113277 7.6991741 19.535156 7.1210938 L 14.798828 2.3847656 C 14.299956 1.885914 13.982089 1.5393621 13.466797 1.2929688 C 13.370621 1.2469747 13.270933 1.2075144 13.169922 1.171875 C 12.631476 0.98187736 12.160678 1 11.455078 1 z M 14.046875 4.4609375 L 17.539062 7.953125 C 16.960565 7.9405587 16.219951 7.9492793 15.841797 7.8984375 C 15.138145 7.8038334 14.835612 7.6637323 14.585938 7.4140625 C 14.336267 7.1643983 14.196168 6.8618566 14.101562 6.1582031 C 14.050719 5.7800485 14.059442 5.0394407 14.046875 4.4609375 z M 4.1738281 14.994141 C 3.9024272 14.990666 3.6130917 15.011731 3.2597656 15.228516 C 2.8337972 15.489739 2.6059235 15.968455 2.5429688 16.296875 C 2.480014 16.625295 2.5019531 16.862193 2.5019531 17 L 2.5019531 21 C 2.5019531 21.137807 2.4800137 21.374705 2.5429688 21.703125 C 2.6059238 22.031545 2.8337972 22.510261 3.2597656 22.771484 C 3.7308668 23.06053 4.0895563 23 4.4414062 23 C 6.5750015 23 8.265625 21.165533 8.265625 19 C 8.265625 16.834467 6.5750015 15 4.4414062 15 C 4.3534438 15 4.2642951 14.995299 4.1738281 14.994141 z M 12 15 C 11.55635 15 11.202422 14.993105 10.826172 15.046875 C 10.449922 15.100625 9.9873727 15.266016 9.6660156 15.607422 C 9.3447404 15.948869 9.2081329 16.398108 9.1601562 16.777344 C 9.1121795 17.156579 9.1191406 17.5286 9.1191406 18 L 9.1191406 20 C 9.1191406 20.4714 9.1121802 20.843421 9.1601562 21.222656 C 9.2081332 21.601892 9.3447404 22.051136 9.6660156 22.392578 C 9.9873727 22.733984 10.449922 22.899378 10.826172 22.953125 C 11.202422 23.006872 11.55635 23 12 23 C 12.4437 23 12.799522 23.006895 13.175781 22.953125 C 13.55204 22.899375 14.014603 22.734083 14.335938 22.392578 C 14.657302 22.051165 14.791845 21.601928 14.839844 21.222656 C 14.887844 20.843384 14.882812 20.4714 14.882812 20 L 14.882812 18 C 14.882812 17.5286 14.887814 17.156616 14.839844 16.777344 C 14.791844 16.398072 14.657302 15.948835 14.335938 15.607422 C 14.014602 15.265912 13.55204 15.100624 13.175781 15.046875 C 12.799522 14.993126 12.4437 15 12 15 z M 18.623047 15 C 17.730091 15 16.910061 15.08481 16.328125 15.734375 C 15.746189 16.383941 15.736328 17.146873 15.736328 18 L 15.736328 20 C 15.736328 20.853127 15.746228 21.616059 16.328125 22.265625 C 16.910061 22.915191 17.730091 23 18.623047 23 C 19.157759 23 19.722626 23.04384 20.363281 22.742188 C 21.003937 22.440532 21.4645 21.635342 21.5 20.824219 A 1 1 0 0 0 20.544922 19.78125 A 1 1 0 0 0 19.501953 20.736328 C 19.497416 20.839993 19.497771 20.901709 19.5 20.935547 C 19.43629 20.951161 19.101902 21 18.623047 21 C 18.086045 21 17.878394 20.936114 17.824219 20.921875 C 17.813624 20.858971 17.736328 20.587464 17.736328 20 L 17.736328 18 C 17.736328 17.412536 17.813623 17.141029 17.824219 17.078125 C 17.878394 17.063886 18.086046 17 18.623047 17 C 19.10189 17 19.436268 17.04884 19.5 17.064453 C 19.497773 17.098291 19.497413 17.160006 19.501953 17.263672 A 1 1 0 0 0 20.544922 18.21875 A 1 1 0 0 0 21.5 17.175781 C 21.4645 16.364658 21.003937 15.559468 20.363281 15.257812 C 19.722626 14.956156 19.157759 15 18.623047 15 z M 12 17 C 12.426211 17 12.713268 17.007601 12.857422 17.025391 L 12.857422 17.027344 C 12.878352 17.192697 12.882813 17.5286 12.882812 18 L 12.882812 20 C 12.882812 20.4714 12.878312 20.807303 12.857422 20.972656 L 12.857422 20.974609 C 12.713268 20.992295 12.426211 21 12 21 C 11.573876 21 11.288707 20.992399 11.144531 20.974609 L 11.144531 20.972656 C 11.123608 20.807313 11.119141 20.4714 11.119141 20 L 11.119141 18 C 11.119141 17.5286 11.123641 17.192733 11.144531 17.027344 L 11.144531 17.025391 C 11.288707 17.007662 11.573876 17 12 17 z M 4.5019531 17.027344 C 5.4566517 17.066435 6.265625 17.878929 6.265625 19 C 6.265625 20.121071 5.4566517 20.933569 4.5019531 20.972656 L 4.5019531 17.027344 z " fill="currentColor"/>
</svg>
