<svg xmlns="http://www.w3.org/2000/svg" width="1em" height="1em" viewBox="0 0 24 24" fill="currentColor">
  <path d="M 12 1 C 9.5265585 1 7.5 3.0265692 7.5 5.5 L 7.5 6.5 C 7.5 8.973438 9.5265689 11 12 11 C 14.473431 11 16.5 8.973438 16.5 6.5 L 16.5 5.5 C 16.5 3.0265692 14.473441 1 12 1 z M 12 3 C 13.392559 3 14.5 4.1074508 14.5 5.5 L 14.5 6.5 C 14.5 7.892562 13.392569 9 12 9 C 10.607431 9 9.5 7.892562 9.5 6.5 L 9.5 5.5 C 9.5 4.1074508 10.607441 3 12 3 z M 10 12 C 8.585785 12 7.5044478 11.994072 6.5742188 12.119141 C 5.6439897 12.24421 4.8008908 12.542845 4.171875 13.171875 C 3.5428648 13.800899 3.2442065 14.643996 3.1191406 15.574219 C 2.9940747 16.504442 3 17.5858 3 19 L 3 22 A 1 1 0 0 0 4 23 A 1 1 0 0 0 5 22 L 5 19 C 5 17.5858 5.00696 16.545449 5.1015625 15.841797 C 5.1961665 15.138145 5.3362677 14.835612 5.5859375 14.585938 C 5.8356017 14.336267 6.1381434 14.196167 6.8417969 14.101562 C 7.4562369 14.018952 8.4468905 14.016222 9.5996094 14.013672 L 11.292969 15.707031 A 1.0001 1.0001 0 0 0 12.707031 15.707031 L 14.400391 14.013672 C 15.553097 14.016172 16.543766 14.018973 17.158203 14.101562 C 17.861853 14.196162 18.164385 14.33626 18.414062 14.585938 C 18.66374 14.835615 18.803832 15.138147 18.898438 15.841797 C 18.993043 16.545447 19 17.5858 19 19 L 19 22 A 1 1 0 0 0 20 23 A 1 1 0 0 0 21 22 L 21 19 C 21 17.5858 21.0059 16.504444 20.880859 15.574219 C 20.75579 14.643994 20.457147 13.800897 19.828125 13.171875 C 19.199103 12.542853 18.356006 12.24421 17.425781 12.119141 C 16.495556 11.994072 15.4142 12 14 12 A 1.0001 1.0001 0 0 0 13.292969 12.292969 L 12 13.585938 L 10.707031 12.292969 A 1.0001 1.0001 0 0 0 10 12 z M 16 15 A 1 1 0 0 0 15 16 L 15 16.5 L 14.5 16.5 A 1 1 0 0 0 13.5 17.5 A 1 1 0 0 0 14.5 18.5 L 15 18.5 L 15 19 A 1 1 0 0 0 16 20 A 1 1 0 0 0 17 19 L 17 18.5 L 17.5 18.5 A 1 1 0 0 0 18.5 17.5 A 1 1 0 0 0 17.5 16.5 L 17 16.5 L 17 16 A 1 1 0 0 0 16 15 z " fill="currentColor"/>
</svg>
