<svg xmlns="http://www.w3.org/2000/svg" width="1em" height="1em" viewBox="0 0 24 24" fill="currentColor">
  <path d="M 12 1 C 9.526562 1 7.5 3.026562 7.5 5.5 L 7.5 6.5 C 7.5 8.973438 9.526562 11 12 11 C 14.473438 11 16.5 8.973438 16.5 6.5 L 16.5 5.5 C 16.5 3.026562 14.473438 1 12 1 z M 12 3 C 13.392562 3 14.5 4.107438 14.5 5.5 L 14.5 6.5 C 14.5 7.892562 13.392562 9 12 9 C 10.607438 9 9.5 7.892562 9.5 6.5 L 9.5 5.5 C 9.5 4.107438 10.607438 3 12 3 z M 8.5 12 A 1 1 0 0 0 8.3828125 12.007812 C 7.7056427 12.018919 7.114073 12.046557 6.5742188 12.119141 C 5.6439897 12.24421 4.8008908 12.542845 4.171875 13.171875 C 3.5428648 13.800899 3.2442065 14.643996 3.1191406 15.574219 C 2.9940747 16.504442 3 17.5858 3 19 L 3 22 A 1 1 0 0 0 4 23 A 1 1 0 0 0 5 22 L 5 19 C 5 17.5858 5.00696 16.545449 5.1015625 15.841797 C 5.1961665 15.138145 5.3362677 14.835612 5.5859375 14.585938 C 5.8356017 14.336267 6.1381434 14.196167 6.8417969 14.101562 C 7.0284736 14.076464 7.2498765 14.059462 7.5 14.046875 L 7.5 16.416016 C 6.3933019 16.859407 5.5 17.743336 5.5 19 L 5.5 20 A 1 1 0 0 0 6.5 21 A 1 1 0 0 0 7.5 20 L 7.5 19 C 7.5 18.435825 7.9358515 18 8.5 18 C 9.0641485 18 9.5 18.435825 9.5 19 L 9.5 20 A 1 1 0 0 0 10.5 21 A 1 1 0 0 0 11.5 20 L 11.5 19 C 11.5 17.743336 10.606698 16.859407 9.5 16.416016 L 9.5 14.013672 C 9.5330641 14.013596 9.5662689 14.013746 9.5996094 14.013672 L 11.292969 15.707031 A 1.0001 1.0001 0 0 0 12.707031 15.707031 L 14.400391 14.013672 C 14.60581 14.014117 14.806084 14.014711 15 14.015625 L 15 17.820312 C 14.548822 18.139281 14.25 18.664815 14.25 19.25 C 14.25 20.20468 15.04532 21 16 21 C 16.95468 21 17.75 20.20468 17.75 19.25 C 17.75 18.664815 17.451178 18.139281 17 17.820312 L 17 14.082031 C 17.055173 14.087762 17.107947 14.094807 17.158203 14.101562 C 17.861853 14.196162 18.164385 14.33626 18.414062 14.585938 C 18.66374 14.835615 18.803832 15.138147 18.898438 15.841797 C 18.993043 16.545447 19 17.5858 19 19 L 19 22 A 1 1 0 0 0 20 23 A 1 1 0 0 0 21 22 L 21 19 C 21 17.5858 21.0059 16.504444 20.880859 15.574219 C 20.75579 14.643994 20.457147 13.800897 19.828125 13.171875 C 19.199103 12.542853 18.356006 12.24421 17.425781 12.119141 C 17.049748 12.068583 16.648367 12.040228 16.210938 12.023438 A 1 1 0 0 0 16 12 A 1 1 0 0 0 15.847656 12.011719 C 15.296328 11.998763 14.687933 12 14 12 A 1.0001 1.0001 0 0 0 13.292969 12.292969 L 12 13.585938 L 10.707031 12.292969 A 1.0001 1.0001 0 0 0 10 12 C 9.4897238 12 9.0219835 11.999018 8.5898438 12.003906 A 1 1 0 0 0 8.5 12 z " fill="currentColor"/>
</svg>
