<svg xmlns="http://www.w3.org/2000/svg" width="1em" height="1em" viewBox="0 0 24 24" fill="currentColor">
  <path d="M 11.5 1 C 9.614415 1 8.1810431 0.99457421 6.9785156 1.15625 C 5.7759881 1.3179258 4.7403066 1.6893874 3.9648438 2.4648438 C 3.1893811 3.2402996 2.8179368 4.2759845 2.65625 5.4785156 C 2.4945632 6.6810468 2.500015 8.1143946 2.5 10 L 2.5 14.5 C 2.499985 16.143701 2.4959 17.393871 2.6210938 18.453125 C 2.7462894 19.512379 3.0267201 20.430972 3.6347656 21.171875 C 3.8426285 21.425202 4.0751026 21.657505 4.328125 21.865234 C 5.0690367 22.473246 5.9856825 22.753707 7.0449219 22.878906 C 8.1041612 23.004106 9.356295 23 11 23 A 1 1 0 0 0 12 22 A 1 1 0 0 0 11 21 C 9.356295 21 8.1423107 20.994353 7.28125 20.892578 C 6.4201893 20.790803 5.9630946 20.618248 5.5976562 20.318359 C 5.4455588 20.193489 5.3062578 20.054217 5.1816406 19.902344 C 4.8817661 19.536947 4.7091937 19.079821 4.6074219 18.21875 C 4.50565 17.357679 4.499985 16.143699 4.5 14.5 L 4.5 10 C 4.500015 8.1143954 4.5054955 6.720102 4.6367188 5.7441406 C 4.767942 4.7681793 4.9827989 4.2750102 5.3789062 3.8789062 C 5.7750134 3.4828025 6.2681831 3.267933 7.2441406 3.1367188 C 8.2200981 3.0055044 9.614415 3 11.5 3 L 12.5 3 C 14.38565 3 15.779881 3.0054999 16.755859 3.1367188 C 17.731837 3.2679343 18.224968 3.482791 18.621094 3.8789062 C 19.017174 4.2750131 19.232073 4.7681642 19.363281 5.7441406 C 19.49449 6.720117 19.5 8.11438 19.5 10 L 19.5 10.5 A 1 1 0 0 0 20.5 11.5 A 1 1 0 0 0 21.5 10.5 L 21.5 10 C 21.5 8.11438 21.5054 6.6810492 21.34375 5.4785156 C 21.182084 4.275982 20.810576 3.2403167 20.035156 2.4648438 C 19.259682 1.6893888 18.224031 1.3179268 17.021484 1.15625 C 15.818937 0.99457318 14.38565 1 12.5 1 L 11.5 1 z M 7.5 6 A 1 1 0 0 0 6.5 7 A 1 1 0 0 0 7.5 8 L 16.5 8 A 1 1 0 0 0 17.5 7 A 1 1 0 0 0 16.5 6 L 7.5 6 z M 7.5 11 A 1 1 0 0 0 6.5 12 A 1 1 0 0 0 7.5 13 L 13.5 13 A 1 1 0 0 0 14.5 12 A 1 1 0 0 0 13.5 11 L 7.5 11 z M 17.5 13 C 15.211157 13 13.5 14.944183 13.5 17 L 13.5 20.5 C 13.5 21.86888 14.63112 23 16 23 C 17.36888 23 18.5 21.86888 18.5 20.5 L 18.5 17 A 1 1 0 0 0 17.5 16 A 1 1 0 0 0 16.5 17 L 16.5 20.5 C 16.5 20.78792 16.28792 21 16 21 C 15.71208 21 15.5 20.78792 15.5 20.5 L 15.5 17 C 15.5 16.197017 16.475043 15 17.5 15 C 18.524957 15 19.5 16.197017 19.5 17 L 19.5 20 A 1 1 0 0 0 20.5 21 A 1 1 0 0 0 21.5 20 L 21.5 17 C 21.5 14.944183 19.788843 13 17.5 13 z " fill="currentColor"/>
</svg>
