<svg xmlns="http://www.w3.org/2000/svg" width="1em" height="1em" viewBox="0 0 24 24" fill="currentColor">
  <path d="M 16.994141 1.015625 C 13.690123 1.015625 10.990234 3.7132514 10.990234 7.015625 C 10.990234 10.317999 13.690113 13.015625 16.994141 13.015625 C 20.298168 13.015625 23 10.317999 23 7.015625 C 23 3.7132514 20.298158 1.015625 16.994141 1.015625 z M 10.037109 1.0214844 C 7.4611708 0.91242447 5.4872228 1.2081204 5.4550781 1.2128906 C 4.7056247 1.271073 3.6001074 1.5107108 2.6523438 2.3867188 C 1.6905794 3.2756671 1.0117078 4.7743935 1.0117188 6.9648438 C 1.0117387 10.912236 0.98563165 15.76366 1.0117188 17.744141 C 1.0117188 18.544576 1.216895 19.634733 1.8339844 20.691406 C 2.4510737 21.74808 3.6059188 22.754633 5.234375 22.849609 C 8.3841988 23.033418 13.885286 23.076484 16.582031 22.847656 C 17.122689 22.816556 17.958797 22.65045 18.839844 22.078125 C 19.723171 21.504318 20.587405 20.444181 20.765625 18.912109 C 21.072431 16.274855 21.011719 14.347292 21.011719 14.015625 A 1 1 0 0 0 20.011719 13.015625 A 1 1 0 0 0 19.011719 14.015625 C 19.011719 14.533958 19.070289 16.178343 18.779297 18.679688 C 18.669017 19.627717 18.249722 20.075772 17.75 20.400391 C 17.250278 20.725009 16.609029 20.845387 16.464844 20.853516 A 1.0001 1.0001 0 0 0 16.435547 20.855469 C 14.010808 21.063084 8.3849131 21.030527 5.3515625 20.853516 C 4.4338587 20.799992 3.9478075 20.34672 3.5605469 19.683594 C 3.1732862 19.020467 3.0117188 18.131805 3.0117188 17.744141 A 1.0001 1.0001 0 0 0 3.0117188 17.730469 C 2.9862917 15.816948 3.0117388 10.925965 3.0117188 6.9648438 C 3.0117096 5.1646021 3.4989173 4.3256872 4.0097656 3.8535156 C 4.5206139 3.381344 5.167418 3.2347277 5.6367188 3.2011719 A 1.0001 1.0001 0 0 0 5.7128906 3.1933594 C 5.7128906 3.1933594 7.5529957 2.9179148 9.953125 3.0195312 A 1 1 0 0 0 10.994141 2.0644531 A 1 1 0 0 0 10.037109 1.0214844 z M 16.994141 3.015625 C 19.218323 3.015625 21 4.7951586 21 7.015625 C 21 9.2360914 19.218313 11.015625 16.994141 11.015625 C 14.769968 11.015625 12.990234 9.2360914 12.990234 7.015625 C 12.990234 4.7951586 14.769958 3.015625 16.994141 3.015625 z M 19.033203 4.515625 A 1 1 0 0 0 18.646484 4.5722656 C 17.557427 4.9579637 16.80266 5.8204084 16.183594 6.5625 C 16.082933 6.6831651 16.103198 6.678475 16.013672 6.7929688 C 15.933166 6.6993962 15.6875 6.3085938 15.6875 6.3085938 A 1 1 0 0 0 14.273438 6.3085938 A 1 1 0 0 0 14.273438 7.7226562 C 14.273438 7.7226562 14.645565 8.0821476 15.085938 8.9628906 A 1.0001 1.0001 0 0 0 16.824219 9.0527344 C 16.824219 9.0527344 17.190766 8.4766584 17.71875 7.84375 C 18.246734 7.2108416 18.99171 6.5732863 19.314453 6.4589844 A 1 1 0 0 0 19.923828 5.1816406 A 1 1 0 0 0 19.033203 4.515625 z M 6.9804688 12.015625 A 1 1 0 0 0 5.9804688 13.015625 A 1 1 0 0 0 6.9804688 14.015625 L 10.980469 14.015625 A 1 1 0 0 0 11.980469 13.015625 A 1 1 0 0 0 10.980469 12.015625 L 6.9804688 12.015625 z M 6.9804688 16.015625 A 1 1 0 0 0 5.9804688 17.015625 A 1 1 0 0 0 6.9804688 18.015625 L 14.980469 18.015625 A 1 1 0 0 0 15.980469 17.015625 A 1 1 0 0 0 14.980469 16.015625 L 6.9804688 16.015625 z " fill="currentColor"/>
</svg>
