<svg xmlns="http://www.w3.org/2000/svg" width="1em" height="1em" viewBox="0 0 24 24" fill="currentColor">
  <path d="M 12 1 C 5.9367104 1 1 5.9367104 1 12 C 1 18.063244 5.9367044 23 12 23 C 18.06325 23 23 18.06325 23 12 C 23 5.9367044 18.063244 1 12 1 z M 12 3 C 16.982356 3 21 7.0175956 21 12 C 21 16.98235 16.98235 21 12 21 C 7.0175956 21 3 16.982356 3 12 C 3 7.0175896 7.0175896 3 12 3 z M 11.972656 5.9980469 A 1 1 0 0 0 10.972656 6.9980469 L 10.972656 7.4023438 C 9.6439494 7.7693587 8.7078961 8.4882336 8.4589844 9.2773438 C 8.2627172 9.8394819 8.183095 10.607492 8.609375 11.378906 C 9.0421406 12.162057 9.996532 12.715503 11.283203 12.806641 C 12.593898 12.899541 13.458302 13.068382 13.755859 13.224609 C 13.904638 13.302719 13.910691 13.325844 13.935547 13.378906 C 13.960407 13.431966 14.001503 13.573517 13.976562 13.873047 C 13.932752 14.398745 13.787491 14.521942 13.486328 14.683594 C 13.185166 14.845246 12.670313 14.929451 12.193359 14.914062 C 11.738268 14.899453 11.058171 14.763465 10.601562 14.533203 C 10.144953 14.302941 9.9859289 14.118576 9.9707031 13.822266 A 1 1 0 0 0 8.921875 12.875 A 1 1 0 0 0 7.9746094 13.923828 C 8.0343634 15.086717 8.8777064 15.903097 9.7011719 16.318359 C 10.132415 16.53583 10.541268 16.535768 10.972656 16.628906 L 10.972656 16.998047 A 1 1 0 0 0 11.972656 17.998047 A 1 1 0 0 0 12.972656 16.998047 L 12.972656 16.740234 C 13.45983 16.688864 13.940419 16.708984 14.431641 16.445312 C 15.207028 16.029115 15.875856 15.153863 15.96875 14.039062 C 16.01211 13.518292 15.96995 13.004869 15.748047 12.53125 C 15.526193 12.057631 15.123255 11.682936 14.685547 11.453125 C 13.81013 10.993503 12.795786 10.907649 11.425781 10.810547 C 10.567942 10.749787 10.426182 10.531053 10.359375 10.410156 C 10.292565 10.28926 10.304883 10.037347 10.345703 9.9238281 A 1.0001 1.0001 0 0 0 10.361328 9.8808594 C 10.355628 9.8994504 10.699785 9.0663822 12.160156 9.0664062 C 12.686606 9.0664162 13.036157 9.2546903 13.302734 9.5058594 C 13.569312 9.7570284 13.708832 10.113125 13.71875 10.189453 A 1 1 0 0 0 14.839844 11.052734 A 1 1 0 0 0 15.701172 9.9316406 C 15.611983 9.2453095 15.263526 8.6063946 14.673828 8.0507812 C 14.251664 7.6530177 13.646377 7.3833145 12.972656 7.2265625 L 12.972656 6.9980469 A 1 1 0 0 0 11.972656 5.9980469 z " fill="currentColor"/>
</svg>
