<svg xmlns="http://www.w3.org/2000/svg" width="1em" height="1em" viewBox="0 0 24 24" fill="currentColor">
  <path d="M 8.5722656 1 C 6.6203438 1 5.229916 1.1125433 4.2089844 2.0058594 C 3.1880528 2.8991755 3 4.2658295 3 6 L 3 21 A 1 1 0 0 0 2 22 A 1 1 0 0 0 3 23 L 21 23 A 1 1 0 0 0 22 22 A 1 1 0 0 0 21 21 L 21 6 C 21 4.2658325 20.81194 2.8991796 19.791016 2.0058594 C 18.770091 1.1125392 17.379656 1 15.427734 1 L 8.5722656 1 z M 8.5722656 3 L 15.427734 3 C 17.257913 3 18.155359 3.2323715 18.474609 3.5117188 C 18.79386 3.7910659 19 4.4248375 19 6 L 19 21 L 5 21 L 5 6 C 5 4.4248405 5.2061322 3.7910701 5.5253906 3.5117188 C 5.844649 3.2323672 6.7420875 3 8.5722656 3 z M 12 7.0039062 C 10.418809 7.0039062 9.0800781 8.2708572 9.0800781 9.8535156 L 9.0800781 11.394531 C 8.4274892 12.104839 8 13.032903 8 14.083984 C 8 16.255151 9.8237712 18.003906 12 18.003906 C 14.176229 18.003906 16 16.255151 16 14.083984 C 16 13.032903 15.572511 12.104839 14.919922 11.394531 L 14.919922 9.8535156 C 14.919922 8.2708572 13.581191 7.0039062 12 7.0039062 z M 12 9.0039062 C 12.539609 9.0039062 12.919922 9.392494 12.919922 9.8535156 L 12.919922 10.261719 C 12.615924 10.187079 12.324319 10.074219 12 10.074219 C 11.675681 10.074219 11.384076 10.187082 11.080078 10.261719 L 11.080078 9.8535156 C 11.080078 9.392494 11.460391 9.0039062 12 9.0039062 z M 12 12.074219 C 13.119695 12.074219 14 12.901389 14 14.083984 C 14 15.134618 13.116171 16.003906 12 16.003906 C 10.883829 16.003906 10 15.134618 10 14.083984 C 10 12.901389 10.880305 12.074219 12 12.074219 z " fill="currentColor"/>
</svg>
