<svg xmlns="http://www.w3.org/2000/svg" width="1em" height="1em" viewBox="0 0 24 24" fill="currentColor">
  <path d="M 12.515625 0.99804688 C 12.349764 0.99727358 12.178672 1 12 1 C 5.9367104 1 1 5.9367104 1 12 C 1 12.093398 1.0015774 12.186448 1.0039062 12.279297 A 1 1 0 0 0 1.0117188 12.507812 C 1.2781492 18.336495 6.1068886 23 12 23 C 18.06325 23 23 18.06325 23 12 C 23 11.925801 22.999344 11.851387 22.998047 11.777344 A 1 1 0 0 0 22.994141 11.619141 C 22.959139 10.459219 22.76367 9.3215476 22.396484 8.2539062 C 22.300093 7.9736348 22.187384 7.7151875 21.990234 7.46875 C 21.793085 7.2223125 21.482025 7.0107799 21.183594 6.9238281 C 20.586732 6.7499245 20.21235 6.8800532 19.794922 6.9335938 C 19.045645 7.0297062 18.165666 6.4132481 18.025391 5.7089844 C 17.980177 5.4818942 17.944208 5.2941259 17.871094 5.0761719 C 17.79798 4.8582179 17.654777 4.5632427 17.386719 4.3496094 C 16.850602 3.9223427 16.451052 4.0101917 16.007812 3.9785156 C 15.585452 3.9483339 15.115716 3.5642399 15.021484 3.171875 C 14.841714 2.4228804 14.602669 1.7377581 13.953125 1.3398438 C 13.465967 1.0414081 13.013207 1.0003668 12.515625 0.99804688 z M 12 3 C 12.536637 3 12.821966 3.0493593 12.896484 3.0546875 C 12.917649 3.1030284 12.983218 3.2513888 13.076172 3.6386719 C 13.39394 4.961807 14.541995 5.8800511 15.865234 5.9746094 C 15.972808 5.982297 16.017443 5.9796344 16.033203 5.9726562 C 16.042109 6.0086352 16.048364 6.0286078 16.0625 6.0996094 C 16.428824 7.9387657 18.207705 9.1541363 20.048828 8.9179688 C 20.401336 8.8727548 20.458545 8.8742311 20.488281 8.8613281 C 20.498901 8.8868101 20.493479 8.8683479 20.505859 8.9042969 C 20.774217 9.6845896 20.935042 10.531745 20.984375 11.410156 C 20.984412 11.410811 20.984338 11.411454 20.984375 11.412109 L 20.759766 11.710938 C 20.530537 12.017258 20.432049 12.001339 20.410156 12 C 20.388264 11.998661 20.233522 11.971885 20 11.615234 L 19.787109 11.289062 C 19.344077 10.612474 18.702434 10.093304 17.912109 10.011719 C 17.483725 9.9674962 17.064407 10.069039 16.689453 10.269531 C 15.981395 8.3657638 14.142145 7 12 7 C 9.4777892 7 7.3753447 8.8945789 7.0449219 11.330078 L 6.7597656 11.710938 C 6.5305493 12.01725 6.432059 12.001339 6.4101562 12 C 6.3882535 11.998661 6.2335296 11.971886 6 11.615234 L 5.7871094 11.289062 C 5.3440922 10.612467 4.7024367 10.093303 3.9121094 10.011719 C 3.6721192 9.9869447 3.4351329 10.007861 3.2070312 10.066406 C 4.0882079 6.0179329 7.681628 3 12 3 z M 16.023438 5.9394531 L 16.025391 5.9394531 C 16.025669 5.9406867 16.025119 5.9421669 16.025391 5.9433594 L 16.023438 5.9433594 L 16.023438 5.9414062 L 16.023438 5.9394531 z M 12 9 C 13.668651 9 15 10.331312 15 12 C 15 13.668639 13.668639 15 12 15 C 10.331312 15 9 13.668651 9 12 C 9 10.3313 10.3313 9 12 9 z M 3.6777344 11.998047 C 3.6908161 11.996764 3.6991068 11.999384 3.7050781 12 C 3.7289631 12.0025 3.8884284 12.04136 4.1132812 12.384766 L 4.328125 12.710938 C 4.7878154 13.412985 5.4679303 13.945883 6.2890625 13.996094 C 6.6549945 14.018469 7.0077255 13.937323 7.3300781 13.78125 C 8.0517143 15.658514 9.8768864 17 12 17 C 14.479699 17 16.554321 15.169094 16.9375 12.792969 L 17.398438 12.232422 C 17.613249 11.971433 17.681203 11.997535 17.705078 12 C 17.728958 12.0025 17.888414 12.04135 18.113281 12.384766 L 18.328125 12.710938 C 18.787803 13.412987 19.46793 13.945882 20.289062 13.996094 C 20.458336 14.006444 20.625259 13.99408 20.787109 13.962891 C 19.894761 17.99627 16.307669 21 12 21 C 7.2482622 21 3.3739274 17.345808 3.0253906 12.685547 L 3.3984375 12.232422 C 3.5595776 12.036664 3.6384891 12.001894 3.6777344 11.998047 z " fill="currentColor"/>
</svg>
