<svg xmlns="http://www.w3.org/2000/svg" width="1em" height="1em" viewBox="0 0 24 24" fill="currentColor">
  <path d="M 12 2 C 11.535 2 11.240528 1.9822134 10.853516 2.0859375 C 9.9922462 2.3166684 9.3166783 2.9923551 9.0859375 3.8535156 C 8.9822773 4.240446 9 4.53503 9 5 L 9 10.548828 C 8.604128 10.561288 8.148187 10.550332 7.8144531 10.607422 C 7.1997739 10.712499 6.4895599 11.021825 6.1757812 11.685547 C 6.1558152 11.727777 6.1368136 11.771247 6.1191406 11.816406 C 5.9748874 12.184624 5.9756115 12.613959 6.0722656 12.958984 C 6.1689196 13.30401 6.3325264 13.587853 6.5253906 13.869141 C 6.9111191 14.431717 7.4423562 15.005026 8.1328125 15.763672 C 8.8627303 16.565663 9.4253184 17.186226 10 17.662109 C 10.574682 18.137993 11.243171 18.492205 11.990234 18.5 A 1.0001 1.0001 0 0 0 12.009766 18.5 C 12.756829 18.4922 13.425318 18.137992 14 17.662109 C 14.574682 17.186227 15.137265 16.565659 15.867188 15.763672 C 16.557629 15.00503 17.088875 14.431709 17.474609 13.869141 C 17.667476 13.587856 17.831072 13.304007 17.927734 12.958984 C 18.024394 12.613962 18.025109 12.184634 17.880859 11.816406 A 1.0001 1.0001 0 0 0 17.880859 11.814453 C 17.863909 11.771423 17.844619 11.728653 17.824219 11.685547 C 17.510419 11.021883 16.800226 10.712499 16.185547 10.607422 C 15.851813 10.550371 15.395869 10.56129 15 10.548828 L 15 5 C 15 4.53503 15.017722 4.240446 14.914062 3.8535156 C 14.683291 2.9922391 14.007651 2.3166856 13.146484 2.0859375 C 12.759557 1.9822906 12.4649 2 12 2 z M 12 4 C 12.4649 4 12.634233 4.0190051 12.628906 4.0175781 C 12.80294 4.0642101 12.935794 4.1970704 12.982422 4.3710938 C 12.980962 4.3656435 13 4.53503 13 5 L 13 11.5 A 1.0001 1.0001 0 0 0 13.998047 12.5 C 14.868483 12.5013 15.510188 12.522048 15.849609 12.580078 C 15.87747 12.58484 15.89711 12.587259 15.910156 12.587891 C 15.891715 12.627846 15.88019 12.656656 15.824219 12.738281 C 15.581403 13.092413 15.077176 13.657357 14.386719 14.416016 C 13.660141 15.214329 13.119127 15.794402 12.724609 16.121094 C 12.335518 16.443293 12.170544 16.491002 12 16.494141 C 11.829456 16.491041 11.664481 16.443291 11.275391 16.121094 C 10.880875 15.794402 10.339854 15.214328 9.6132812 14.416016 C 8.9228175 13.657362 8.4185852 13.092405 8.1757812 12.738281 C 8.1198159 12.656658 8.1082827 12.627843 8.0898438 12.587891 C 8.1028897 12.587258 8.1225318 12.58484 8.1503906 12.580078 C 8.4898082 12.522054 9.131502 12.501339 10.001953 12.5 A 1.0001 1.0001 0 0 0 11 11.5 L 11 5 C 11 4.53503 11.019038 4.3656435 11.017578 4.3710938 C 11.064238 4.1969544 11.196963 4.0642272 11.371094 4.0175781 C 11.36548 4.0190822 11.535 4 12 4 z M 5 20 A 1 1 0 0 0 4 21 A 1 1 0 0 0 5 22 L 19 22 A 1 1 0 0 0 20 21 A 1 1 0 0 0 19 20 L 5 20 z " fill="currentColor"/>
</svg>
