<svg xmlns="http://www.w3.org/2000/svg" width="1em" height="1em" viewBox="0 0 24 24" fill="currentColor">
  <path d="M 4.4941406 1.5 A 1 1 0 0 0 3.8867188 1.7109375 C 3.6712688 1.8784661 3.1387934 2.2594694 2.6523438 2.6835938 C 2.4091189 2.8956558 2.1723897 3.1178427 1.9628906 3.3769531 C 1.7533915 3.6360636 1.5 3.9153658 1.5 4.5 C 1.5 5.0846342 1.7533915 5.3639364 1.9628906 5.6230469 C 2.1723897 5.8821573 2.4091189 6.1043441 2.6523438 6.3164062 C 3.1387935 6.7405307 3.6712689 7.1215339 3.8867188 7.2890625 A 1 1 0 0 0 5.2890625 7.1132812 A 1 1 0 0 0 5.1132812 5.7109375 C 5.045498 5.6582309 4.9296587 5.5635609 4.8457031 5.5 L 6.5 5.5 A 1 1 0 0 0 7.5 4.5 A 1 1 0 0 0 6.5 3.5 L 4.8457031 3.5 C 4.9296587 3.4364391 5.045498 3.3417691 5.1132812 3.2890625 A 1 1 0 0 0 5.2890625 1.8867188 A 1 1 0 0 0 4.4941406 1.5 z M 11.251953 1.5 C 9.7450152 1.5 8.5019531 2.7430827 8.5019531 4.25 L 8.5019531 11.826172 L 8.0175781 11.412109 C 6.8512759 10.412395 5.0553122 10.581797 4.0957031 11.78125 C 3.2941201 12.783248 3.3002326 14.222863 4.109375 15.21875 L 7.46875 19.351562 C 8.506179 20.628362 9.0916151 21.39062 10.019531 21.894531 C 10.175702 21.979371 10.335812 22.055396 10.5 22.123047 C 11.476264 22.525524 12.434878 22.5 14.080078 22.5 L 15.128906 22.5 C 16.366406 22.5 17.068603 22.51639 17.804688 22.304688 C 18.919244 21.984244 19.888379 21.286209 20.544922 20.330078 C 20.97826 19.698817 21.182905 19.029509 21.574219 17.855469 C 22.18844 16.012804 22.496094 15.163839 22.496094 13.972656 C 22.496094 12.13134 21.394128 10.750537 20.076172 9.9609375 C 19.1309 9.3946371 18.066092 9.2780015 16.146484 8.9902344 L 14.001953 8.6464844 L 14.001953 4.25 C 14.001953 2.743062 12.758891 1.5 11.251953 1.5 z M 18.005859 1.5 A 1 1 0 0 0 17.875 1.5078125 A 1 1 0 0 0 17.210938 1.8867188 A 1 1 0 0 0 17.386719 3.2890625 C 17.454502 3.3417691 17.570341 3.4364391 17.654297 3.5 L 16 3.5 A 1 1 0 0 0 15 4.5 A 1 1 0 0 0 16 5.5 L 17.654297 5.5 C 17.570337 5.563561 17.454502 5.6582309 17.386719 5.7109375 A 1 1 0 0 0 17.210938 7.1132812 A 1 1 0 0 0 18.613281 7.2890625 C 18.828731 7.1215339 19.361207 6.7405307 19.847656 6.3164062 C 20.090881 6.1043441 20.32761 5.8821573 20.537109 5.6230469 C 20.746608 5.3639364 21 5.0846342 21 4.5 C 21 3.9153658 20.746608 3.6360636 20.537109 3.3769531 C 20.32761 3.1178427 20.090881 2.8956558 19.847656 2.6835938 C 19.361207 2.2594693 18.828731 1.8784661 18.613281 1.7109375 A 1 1 0 0 0 18.005859 1.5 z M 11.251953 3.5 C 11.678015 3.5 12.001953 3.823938 12.001953 4.25 L 12.001953 9.5 A 1.0001 1.0001 0 0 0 12.84375 10.488281 L 15.832031 10.964844 A 1.0001 1.0001 0 0 0 15.839844 10.966797 C 17.76847 11.256131 18.63607 11.429674 19.046875 11.675781 C 19.972918 12.230582 20.496094 12.866773 20.496094 13.972656 C 20.496094 14.834273 20.296913 15.365121 19.677734 17.222656 C 19.286782 18.395613 19.098986 18.89903 18.894531 19.197266 C 18.500474 19.771135 17.920997 20.190457 17.251953 20.382812 C 16.904652 20.482658 16.366406 20.5 15.128906 20.5 L 14.080078 20.5 C 12.434878 20.5 11.750055 20.47476 11.261719 20.273438 C 11.163309 20.232888 11.066086 20.187477 10.972656 20.136719 C 10.508453 19.88463 10.056962 19.368598 9.0195312 18.091797 L 5.6621094 13.957031 C 5.4390717 13.682518 5.4372499 13.305498 5.6582031 13.029297 C 5.9276141 12.69255 6.3893391 12.649003 6.7167969 12.929688 L 8.8496094 14.759766 A 1.0001 1.0001 0 0 0 10.501953 14 L 10.501953 4.25 C 10.501953 3.8239173 10.825891 3.5 11.251953 3.5 z " fill="currentColor"/>
</svg>
