<svg xmlns="http://www.w3.org/2000/svg" width="1em" height="1em" viewBox="0 0 24 24" fill="currentColor">
  <path d="M 10.476562 1 C 7.9999048 1 5.9648439 3.0198768 5.9648438 5.4921875 C 5.9648438 6.9220299 6.641626 8.2041511 7.6933594 9.0273438 L 7.6933594 11.986328 C 7.2313901 11.442318 6.7276525 10.997748 6.1445312 10.839844 C 5.4849296 10.661229 4.8013964 10.803324 4.296875 11.121094 C 3.2878321 11.756627 2.7864134 12.937163 3.0683594 14.128906 C 3.1636524 14.531946 3.3555076 14.80223 3.4902344 14.990234 C 4.9330354 17.00263 5.9546839 18.140269 7.2734375 20.115234 C 7.4944122 20.446198 7.6026738 20.848348 7.5859375 21.261719 L 7.5605469 21.892578 A 1 1 0 0 0 8.5195312 22.931641 A 1 1 0 0 0 9.5585938 21.972656 L 9.5839844 21.34375 C 9.617088 20.526121 9.4018722 19.702343 8.9355469 19.003906 C 7.5502404 16.929271 6.5044134 15.761823 5.1152344 13.824219 C 5.0516886 13.735544 5.0234794 13.680756 5.015625 13.666016 L 5.015625 13.664062 L 5.015625 13.662109 L 5.015625 13.660156 L 5.0136719 13.660156 C 4.9607555 13.40643 5.1691653 12.934762 5.3632812 12.8125 C 5.4614353 12.75068 5.5028849 12.736991 5.6230469 12.769531 C 5.7432088 12.802071 5.9863394 12.925535 6.3007812 13.341797 A 1.0001 1.0001 0 0 0 6.3847656 13.439453 L 7.9785156 15.070312 A 1.0001 1.0001 0 0 0 9.6933594 14.371094 L 9.6933594 6.4589844 C 9.738688 6.1496137 9.9739412 5.9980599 10.289062 5.9804688 C 10.594057 5.9634427 10.814113 6.0135597 10.943359 6.5097656 L 10.943359 10.076172 A 1.0001 1.0001 0 0 0 12.033203 11.072266 C 12.494893 11.030376 14.574552 11.251292 16.044922 11.96875 C 16.780107 12.327479 17.376494 12.792369 17.703125 13.306641 C 18.029756 13.820912 18.1641 14.377655 17.917969 15.269531 C 17.856949 15.490457 17.801014 15.706284 17.746094 15.908203 C 17.581487 16.513368 17.08717 17.628193 16.613281 18.548828 C 16.236407 19.280819 16.136392 20.039583 16.087891 20.660156 C 16.039391 21.280729 16.005007 21.905254 16.029297 21.791016 A 1 1 0 0 0 16.800781 22.976562 A 1 1 0 0 0 17.986328 22.207031 C 18.103016 21.658193 18.042831 21.316005 18.082031 20.814453 C 18.121231 20.312901 18.2219 19.792553 18.390625 19.464844 A 1.0001 1.0001 0 0 0 18.392578 19.464844 C 18.899889 18.479279 19.423788 17.358075 19.675781 16.431641 C 19.735261 16.21296 19.790721 15.999855 19.845703 15.800781 C 20.218022 14.451658 19.995566 13.186838 19.390625 12.234375 C 18.785684 11.281912 17.875081 10.636033 16.923828 10.171875 C 15.535831 9.4946326 14.197912 9.244024 13.076172 9.1640625 C 14.107832 8.4381461 14.821158 7.2880083 14.962891 5.9746094 L 17.660156 5.9746094 L 17.349609 6.25 A 1 1 0 0 0 17.263672 7.6621094 A 1 1 0 0 0 18.673828 7.7480469 L 20.380859 6.2382812 C 20.543983 6.0940262 20.729531 5.8918281 20.853516 5.5957031 C 20.963168 5.333451 21.045332 4.9638789 20.964844 4.5957031 C 20.884354 4.2275274 20.682956 3.9532292 20.488281 3.7460938 A 1.0001 1.0001 0 0 0 20.394531 3.6601562 L 18.648438 2.21875 A 1 1 0 0 0 17.240234 2.3535156 A 1 1 0 0 0 17.375 3.7617188 L 17.632812 3.9746094 L 14.720703 3.9746094 C 14.09123 2.2440844 12.420237 1 10.476562 1 z M 10.476562 3 C 11.877749 3 12.988281 4.1062858 12.988281 5.4921875 C 12.988281 5.7013358 12.962283 5.9044427 12.914062 6.0976562 C 12.59232 4.7063932 11.314222 3.9189794 10.177734 3.9824219 C 9.2988239 4.0314856 8.4085344 4.5379716 7.9667969 5.3730469 C 8.028613 4.0436841 9.1158994 3 10.476562 3 z " fill="currentColor"/>
</svg>
