<svg xmlns="http://www.w3.org/2000/svg" width="1em" height="1em" viewBox="0 0 24 24" fill="currentColor">
  <path d="M 12.482422 1 C 10.5393 1 8.8730631 2.2518721 8.25 3.9882812 L 5.3417969 3.9882812 L 5.6777344 3.7011719 A 1 1 0 0 0 5.7871094 2.2910156 A 1 1 0 0 0 4.3769531 2.1816406 L 3.1875 3.2011719 A 1.0001 1.0001 0 0 0 3.1523438 3.234375 C 2.9210456 3.4536514 2.2612267 3.8328843 2.0292969 4.7402344 A 1 1 0 0 0 2.109375 4.8769531 A 1 1 0 0 0 1.9980469 4.9882812 A 1 1 0 0 0 2.1328125 5.1230469 A 1 1 0 0 0 2.0449219 5.2929688 C 2.3083534 6.1177814 2.9084437 6.4886483 3.1640625 6.7226562 A 1.0001 1.0001 0 0 0 3.1933594 6.7480469 L 4.3808594 7.7539062 A 1 1 0 0 0 5.7910156 7.6367188 A 1 1 0 0 0 5.6738281 6.2265625 L 5.3925781 5.9882812 L 8.015625 5.9882812 C 8.1497631 7.206912 8.7735727 8.2860366 9.6875 9.0136719 L 9.6875 11.976562 C 9.227691 11.43457 8.7276944 10.989977 8.1464844 10.832031 C 7.4870943 10.65284 6.8026749 10.794766 6.2988281 11.113281 C 5.2911346 11.750311 4.793449 12.930019 5.0742188 14.121094 C 5.1690727 14.52349 5.3595503 14.794 5.4941406 14.982422 C 6.9332211 16.997029 7.9502247 18.136108 9.265625 20.113281 C 9.4861306 20.444683 9.5967753 20.848867 9.5800781 21.263672 L 9.5546875 21.894531 A 1 1 0 0 0 10.513672 22.933594 A 1 1 0 0 0 11.552734 21.974609 L 11.578125 21.34375 C 11.611025 20.526355 11.396735 19.704858 10.931641 19.005859 C 9.5499405 16.929032 8.5067333 15.760106 7.1210938 13.820312 C 7.0542463 13.726728 7.0262646 13.66946 7.0195312 13.658203 L 7.0195312 13.65625 L 7.0175781 13.65625 C 6.9622048 13.40107 7.174067 12.924819 7.3671875 12.802734 C 7.4644685 12.741234 7.5027233 12.729549 7.6210938 12.761719 C 7.7394644 12.793889 7.9831737 12.91719 8.296875 13.333984 A 1.0001 1.0001 0 0 0 8.3789062 13.429688 L 9.9707031 15.0625 A 1.0001 1.0001 0 0 0 11.6875 14.365234 L 11.6875 6.4453125 C 11.733 6.1334507 11.967515 5.982312 12.279297 5.9648438 C 12.581111 5.9479337 12.798553 5.9977457 12.927734 6.4960938 L 12.927734 10.066406 A 1.0001 1.0001 0 0 0 14.019531 11.0625 C 14.477903 11.02078 16.551861 11.241183 18.017578 11.958984 C 18.750436 12.317885 19.343905 12.783656 19.669922 13.298828 C 19.995939 13.814 20.130508 14.371895 19.884766 15.265625 C 19.824066 15.486467 19.767721 15.702165 19.712891 15.904297 C 19.548494 16.510854 19.054714 17.629083 18.582031 18.550781 C 18.206466 19.283067 18.1089 20.039217 18.060547 20.660156 C 18.012197 21.281095 17.977973 21.906087 18.001953 21.792969 A 1 1 0 0 0 18.771484 22.978516 A 1 1 0 0 0 19.957031 22.208984 C 20.073207 21.660866 20.013614 21.318792 20.052734 20.816406 C 20.091854 20.31402 20.194746 19.791505 20.363281 19.462891 C 20.869198 18.476389 21.391374 17.354577 21.642578 16.427734 C 21.701778 16.209496 21.757755 15.996138 21.8125 15.796875 L 21.8125 15.794922 C 22.182827 14.446016 21.962246 13.181172 21.359375 12.228516 C 20.7562 11.275427 19.845739 10.626985 18.896484 10.162109 C 17.5238 9.4898687 16.201394 9.2405402 15.087891 9.1582031 C 16.232436 8.3427001 16.978516 6.9988269 16.978516 5.4941406 C 16.978516 3.0237593 14.952949 1 12.482422 1 z M 12.482422 3 C 13.872294 3 14.978516 4.104902 14.978516 5.4941406 C 14.978516 5.7054515 14.953131 5.9105306 14.904297 6.1054688 C 14.591988 4.7010765 13.307955 3.9028172 12.166016 3.9667969 C 11.311463 4.014675 10.448139 4.4960574 9.9960938 5.2910156 C 10.097633 3.9987212 11.160896 3 12.482422 3 z " fill="currentColor"/>
</svg>
