<svg xmlns="http://www.w3.org/2000/svg" width="1em" height="1em" viewBox="0 0 24 24" fill="currentColor">
  <path d="M 12.488281 1 C 10.070797 1 8.0363341 2.7365689 7.578125 5.0234375 L 4.8515625 5.0234375 L 5.171875 4.75 A 1 1 0 0 0 5.28125 3.3398438 A 1 1 0 0 0 4.5976562 2.9941406 A 1 1 0 0 0 3.8710938 3.2304688 L 2.6894531 4.2421875 A 1.0001 1.0001 0 0 0 2.6523438 4.2753906 C 2.6099341 4.3155195 2.4001786 4.447 2.1308594 4.6914062 C 1.8615402 4.9358125 1.5019531 5.4268028 1.5019531 6.0234375 A 1 1 0 0 0 1.8554688 6.7558594 C 1.9717303 6.9427612 2.0177694 7.2277588 2.1347656 7.3320312 C 2.4003647 7.5687456 2.6087771 7.6994882 2.6640625 7.75 A 1.0001 1.0001 0 0 0 2.6933594 7.7753906 L 3.875 8.7734375 A 1 1 0 0 0 5.2851562 8.65625 A 1 1 0 0 0 5.1660156 7.2460938 L 4.9023438 7.0234375 L 7.5839844 7.0234375 C 7.8282406 8.2448379 8.5038333 9.3228057 9.484375 10.044922 L 9.484375 12.970703 C 8.4148087 12.184317 6.8994728 12.236244 6.0390625 13.296875 C 5.3166584 14.18737 5.2960042 15.473945 5.9902344 16.386719 L 8.7246094 19.980469 C 9.3451335 20.796287 9.6901732 21.263686 10.177734 21.677734 C 10.873323 22.268423 11.705479 22.67929 12.599609 22.873047 C 13.225756 23.008764 13.80955 23 14.84375 23 C 16.81575 23 17.897142 23.0339 18.941406 22.638672 C 20.403501 22.085164 21.56441 20.942139 22.128906 19.492188 C 22.532871 18.454321 22.498047 17.384053 22.498047 15.439453 L 22.498047 13.226562 L 22.498047 13.052734 A 1 1 0 0 0 22.394531 12.949219 C 22.254486 11.72124 21.381055 10.678158 20.138672 10.474609 L 18.974609 10.283203 C 18.45649 9.7334581 17.753596 9.3691406 16.947266 9.3691406 L 16.236328 9.3691406 C 16.227384 9.3597917 16.218064 9.350963 16.208984 9.3417969 C 17.006661 8.454326 17.492187 7.2800337 17.492188 6 C 17.492188 3.2497445 15.239871 1 12.488281 1 z M 12.488281 3 C 14.160292 3 15.492187 4.3319755 15.492188 6 C 15.492188 6.8955893 15.104183 7.690649 14.488281 8.2382812 L 14.488281 6.5 C 14.488281 5.1304661 13.355532 4 11.986328 4 C 10.690284 4 9.6063011 5.0134383 9.4941406 6.2832031 C 9.4865061 6.1904859 9.4824219 6.0956724 9.4824219 6 C 9.4824219 4.3319816 10.816271 3 12.488281 3 z M 11.986328 6 C 12.275924 6 12.488281 6.2126739 12.488281 6.5 L 12.488281 9.4746094 L 12.488281 12.158203 A 1 1 0 0 0 13.488281 13.158203 A 1 1 0 0 0 14.488281 12.158203 L 14.488281 10.736328 C 14.732677 10.872517 15.037109 10.970471 15.037109 11.263672 L 15.037109 12.158203 A 1 1 0 0 0 16.037109 13.158203 A 1 1 0 0 0 17.037109 12.158203 L 17.037109 11.455078 C 17.432251 11.520578 17.767578 11.767569 17.767578 12.158203 L 17.767578 13.052734 A 1 1 0 0 0 18.767578 14.052734 A 1 1 0 0 0 19.767578 13.052734 L 19.767578 12.439453 L 19.814453 12.447266 C 20.224104 12.514386 20.498047 12.842239 20.498047 13.226562 L 20.498047 15.439453 C 20.498047 17.384053 20.464257 18.257245 20.265625 18.767578 C 19.908521 19.684827 19.170927 20.412286 18.232422 20.767578 C 17.706691 20.966567 16.81575 21 14.84375 21 C 13.80955 21 13.359691 20.990899 13.023438 20.917969 C 12.449167 20.793525 11.916268 20.531009 11.472656 20.154297 C 11.213418 19.934146 10.936902 19.585313 10.316406 18.769531 L 7.5820312 15.175781 C 7.4359814 14.983755 7.4393566 14.744546 7.5917969 14.556641 C 7.7973027 14.303313 8.1639149 14.282408 8.3984375 14.513672 L 9.7597656 15.945312 A 1.0001 1.0001 0 0 0 11.484375 15.255859 L 11.484375 9.5175781 A 1 1 0 0 0 11.484375 9.4824219 L 11.484375 6.5 C 11.484375 6.2126739 11.696732 6 11.986328 6 z " fill="currentColor"/>
</svg>
