<svg xmlns="http://www.w3.org/2000/svg" width="1em" height="1em" viewBox="0 0 24 24" fill="currentColor">
  <path d="M 12 1 A 1 1 0 0 0 11 2 L 11 3.1269531 C 9.2812389 3.5747695 8 5.1475739 8 7 C 8 8.031403 8.3981154 8.9756119 9.046875 9.6875 L 6.6835938 15.355469 C 5.5685648 14.599772 4.6010545 13.611539 3.8359375 12.449219 A 1 1 0 0 0 2.4492188 12.164062 A 1 1 0 0 0 2.1640625 13.550781 C 3.1435314 15.038733 4.4192739 16.298447 5.9023438 17.230469 L 4.0761719 21.615234 A 1 1 0 0 0 4.6152344 22.923828 A 1 1 0 0 0 5.9238281 22.384766 L 7.6894531 18.150391 C 8.7309061 18.577437 9.8417059 18.855018 11 18.957031 L 11 19 A 1 1 0 0 0 12 20 A 1 1 0 0 0 13 19 L 13 18.957031 C 14.158291 18.855019 15.269091 18.577436 16.310547 18.150391 L 18.076172 22.384766 A 1 1 0 0 0 19.384766 22.923828 A 1 1 0 0 0 19.923828 21.615234 L 18.097656 17.230469 C 19.580731 16.298448 20.856479 15.038739 21.835938 13.550781 A 1 1 0 0 0 21.550781 12.164062 A 1 1 0 0 0 20.164062 12.449219 C 19.398959 13.611537 18.431444 14.599771 17.316406 15.355469 L 14.953125 9.6875 C 15.601885 8.9756119 16 8.031403 16 7 C 16 5.1475739 14.718761 3.5747696 13 3.1269531 L 13 2 A 1 1 0 0 0 12 1 z M 12 5 C 13.116414 5 14 5.8835859 14 7 C 14 8.1164141 13.116414 9 12 9 C 10.883586 9 10 8.1164141 10 7 C 10 5.8835859 10.883586 5 12 5 z M 10.751953 10.798828 C 11.145371 10.929408 11.564651 11 12 11 C 12.435349 11 12.854629 10.929408 13.248047 10.798828 L 15.542969 16.306641 C 14.738979 16.634491 13.88552 16.852879 12.998047 16.947266 A 1 1 0 0 0 12 16 A 1 1 0 0 0 11.001953 16.947266 C 10.114476 16.85288 9.2610187 16.634491 8.4570312 16.306641 L 10.751953 10.798828 z " fill="currentColor"/>
</svg>
