<svg xmlns="http://www.w3.org/2000/svg" width="1em" height="1em" viewBox="0 0 24 24" fill="currentColor">
  <path d="M 9.5371094 1.0019531 A 1.0001 1.0001 0 0 0 9.1289062 1.0722656 L 6.6289062 2.0722656 A 1.0001 1.0001 0 0 0 6.2929688 3.7070312 C 6.6456796 4.0597421 6.6641043 4.1978415 6.6738281 4.4882812 C 6.6835519 4.778721 6.5798701 5.2464128 6.5058594 5.8847656 C 6.3746888 7.0161815 6.5296638 7.9764113 7.0839844 8.6777344 C 7.3483115 9.0121594 7.6602722 9.2555018 7.9980469 9.4472656 C 7.9889935 10.123376 7.9452683 10.706517 7.734375 11.261719 C 7.6892672 11.287485 7.6431471 11.314757 7.5976562 11.345703 C 6.979507 11.766446 6.843285 12.316281 6.578125 12.988281 C 5.6112288 15.438786 4.2188766 17.836312 2.3984375 19.775391 C 1.9950812 20.205011 1.9363052 20.841833 2.078125 21.283203 C 2.2199448 21.724573 2.5047008 22.067383 2.9082031 22.298828 A 1.0001 1.0001 0 0 0 2.9140625 22.302734 C 4.5330942 23.214802 6.557266 23.241977 8.1757812 22.320312 L 8.1835938 22.316406 C 8.6764773 22.044407 9.3404055 22.051327 9.8027344 22.316406 A 1.0001 1.0001 0 0 0 9.8085938 22.320312 C 10.41951 22.664443 11.144114 23 12 23 C 12.855886 23 13.580486 22.664429 14.191406 22.320312 A 1.0001 1.0001 0 0 0 14.197266 22.316406 C 14.661942 22.049983 15.330611 22.044046 15.824219 22.320312 C 17.442694 23.242009 19.466879 23.214801 21.085938 22.302734 A 1.0001 1.0001 0 0 0 21.091797 22.298828 C 21.495304 22.067387 21.780061 21.724613 21.921875 21.283203 C 22.063689 20.841793 22.004976 20.204959 21.601562 19.775391 C 19.781123 17.836321 18.388766 15.438798 17.421875 12.988281 C 17.156675 12.316281 17.020458 11.766439 16.402344 11.345703 C 16.356816 11.314735 16.310769 11.285547 16.265625 11.259766 C 16.054746 10.704577 16.011006 10.123358 16.001953 9.4472656 C 16.33973 9.2555015 16.651691 9.0121605 16.916016 8.6777344 C 17.470328 7.9764122 17.625288 7.0161742 17.494141 5.8847656 C 17.420125 5.2464182 17.316447 4.7787193 17.326172 4.4882812 C 17.335872 4.1978433 17.354322 4.0597433 17.707031 3.7070312 A 1.0001 1.0001 0 0 0 17.371094 2.0722656 L 14.871094 1.0722656 A 1.0001 1.0001 0 0 0 13.509766 1.859375 C 13.408297 2.5695187 12.85758 3.3698548 12 3.8203125 C 11.142414 3.369852 10.59168 2.5694841 10.490234 1.859375 A 1.0001 1.0001 0 0 0 9.5371094 1.0019531 z M 8.9960938 3.2773438 C 9.4763402 4.4067581 10.265838 5.4766337 11.683594 5.9492188 A 1.0001 1.0001 0 0 0 12.316406 5.9492188 C 13.734164 5.4766328 14.523657 4.4067456 15.003906 3.2773438 L 15.716797 3.5625 C 15.613395 3.8584783 15.335357 4.1475456 15.326172 4.421875 C 15.303422 5.101357 15.449975 5.6332618 15.505859 6.1152344 C 15.605209 6.9723558 15.487199 7.2609547 15.347656 7.4375 C 15.219102 7.6001479 14.909726 7.7886078 14.330078 8 L 9.6699219 8 C 9.0902719 7.7886069 8.7808988 7.6001471 8.6523438 7.4375 C 8.5128043 7.2609556 8.3947712 6.9723485 8.4941406 6.1152344 C 8.5500199 5.6332672 8.6965768 5.1013552 8.6738281 4.421875 C 8.6646437 4.1475463 8.3866041 3.8584787 8.2832031 3.5625 L 8.9960938 3.2773438 z M 9.9570312 10 L 14.042969 10 C 14.058339 10.327579 14.113779 10.65023 14.177734 11 L 9.8222656 11 C 9.8862246 10.65023 9.9416629 10.327579 9.9570312 10 z M 9.4414062 13 L 14.558594 13 C 14.958042 13 15.167264 13.020182 15.253906 13.025391 C 15.29209 13.107932 15.402061 13.314154 15.5625 13.720703 C 16.532107 16.178103 17.945808 18.57575 19.767578 20.646484 C 18.818953 21.047599 17.665393 21.069986 16.808594 20.580078 A 1.0001 1.0001 0 0 0 16.800781 20.576172 C 15.681389 19.949645 14.313048 19.943707 13.203125 20.580078 C 12.767639 20.823571 12.21823 21 12 21 C 11.78177 21 11.232348 20.823567 10.796875 20.580078 C 9.6869626 19.943716 8.3186005 19.949659 7.1992188 20.576172 A 1.0001 1.0001 0 0 0 7.1914062 20.580078 C 6.3344968 21.070019 5.1810225 21.047602 4.2324219 20.646484 C 6.054185 18.575759 7.4678784 16.178115 8.4375 13.720703 C 8.5979161 13.314157 8.707902 13.107933 8.7460938 13.025391 C 8.8327349 13.020183 9.0419577 13 9.4414062 13 z " fill="currentColor"/>
</svg>
