<svg xmlns="http://www.w3.org/2000/svg" width="1em" height="1em" viewBox="0 0 24 24" fill="currentColor">
  <path d="M 12 1 C 5.9367104 1 1 5.9367104 1 12 C 1 18.063244 5.9367044 23 12 23 C 13.413009 23 14.767737 22.731606 16.011719 22.244141 C 16.101145 22.318871 16.195939 22.392275 16.294922 22.462891 C 17.061128 23.009125 18.015876 23.135174 18.908203 22.876953 C 19.80053 22.618732 20.653439 21.859739 20.898438 20.755859 A 1.0001 1.0001 0 0 0 20.900391 20.746094 C 21.062901 19.982511 21.011565 19.247576 20.791016 18.611328 C 22.176975 16.770814 23 14.476937 23 12 C 23 5.9367044 18.063244 1 12 1 z M 12 3 C 16.982356 3 21 7.0175956 21 12 C 21 13.80665 20.471296 15.481817 19.558594 16.888672 C 19.372941 16.732752 19.177285 16.591667 18.978516 16.462891 C 18.303041 16.025271 17.565011 15.714923 16.873047 15.484375 A 1 1 0 0 0 16.599609 14.201172 A 1 1 0 0 0 15.201172 14.400391 C 14.470797 15.372836 13.315511 16 12 16 C 10.684489 16 9.5292301 15.372851 8.7988281 14.400391 A 1 1 0 0 0 7.4003906 14.201172 A 1 1 0 0 0 7.2011719 15.599609 C 8.2950099 17.055949 10.044111 18 12 18 C 12.957243 18 13.864314 17.774683 14.669922 17.373047 C 14.893234 17.92512 14.819982 18.387549 14.78125 19.052734 C 14.756625 19.475667 14.726105 19.979367 14.869141 20.533203 C 13.968845 20.835891 13.005737 21 12 21 C 7.0175956 21 3 16.982356 3 12 C 3 7.0175896 7.0175896 3 12 3 z M 8.7070312 7.5 C 7.9894362 7.5 7.3003734 7.7855641 6.7929688 8.2929688 A 1 1 0 0 0 6.7929688 9.7070312 A 1 1 0 0 0 8.2070312 9.7070312 C 8.3399066 9.5741557 8.5191061 9.5 8.7070312 9.5 L 10 9.5 A 1 1 0 0 0 11 8.5 A 1 1 0 0 0 10 7.5 L 8.7070312 7.5 z M 14 7.5 A 1 1 0 0 0 13 8.5 A 1 1 0 0 0 14 9.5 L 15.292969 9.5 C 15.480799 9.5 15.660228 9.574274 15.792969 9.7070312 A 1 1 0 0 0 17.207031 9.7070312 A 1 1 0 0 0 17.207031 8.2929688 C 16.699572 7.7854462 16.010539 7.5 15.292969 7.5 L 14 7.5 z M 16.730469 17.707031 C 17.13251 17.865968 17.567068 17.931003 17.890625 18.140625 C 18.326961 18.423313 18.642082 18.740333 18.816406 19.072266 C 18.989927 19.402668 19.063949 19.760261 18.945312 20.324219 C 18.854343 20.729418 18.661655 20.865909 18.353516 20.955078 C 18.044393 21.044528 17.643272 20.970108 17.455078 20.835938 C 17.007889 20.517156 16.894432 20.310287 16.826172 20.101562 C 16.757912 19.89284 16.751924 19.604509 16.777344 19.167969 C 16.799474 18.78783 16.797909 18.261779 16.730469 17.707031 z " fill="currentColor"/>
</svg>
