<svg xmlns="http://www.w3.org/2000/svg" width="1em" height="1em" viewBox="0 0 24 24" fill="currentColor">
  <path d="M 6 3 C 4.59987 3 3.7594801 2.9481137 2.9101562 3.3808594 C 2.2517173 3.7163636 1.7163636 4.2517174 1.3808594 4.9101562 C 0.94811363 5.7594801 1 6.59987 1 8 C 1 9.40013 0.94812788 10.240516 1.3808594 11.089844 C 1.7163766 11.748308 2.2517805 12.283655 2.9101562 12.619141 C 3.7594888 13.051923 4.59987 13 6 13 L 18 13 C 19.4001 13 20.240494 13.05191 21.089844 12.619141 C 21.748245 12.283642 22.283642 11.748245 22.619141 11.089844 C 23.051908 10.240507 23 9.40013 23 8 C 23 6.59987 23.051923 5.7594889 22.619141 4.9101562 C 22.283655 4.2517806 21.748308 3.7163766 21.089844 3.3808594 C 20.240503 2.9481211 19.4001 3 18 3 L 6 3 z M 6 5 L 18 5 C 19.4001 5 19.961382 5.051841 20.181641 5.1640625 C 20.463976 5.3079252 20.692025 5.5359351 20.835938 5.8183594 C 20.948157 6.0385868 21 6.59987 21 8 C 21 9.40013 20.94817 9.9613766 20.835938 10.181641 C 20.692038 10.464039 20.464039 10.692037 20.181641 10.835938 C 19.96139 10.948163 19.4001 11 18 11 L 6 11 C 4.59987 11 4.0385868 10.948155 3.8183594 10.835938 C 3.5359351 10.692023 3.3079252 10.463976 3.1640625 10.181641 C 3.0518339 9.9613678 3 9.40013 3 8 C 3 6.59987 3.0518482 6.0385956 3.1640625 5.8183594 C 3.3079382 5.5359982 3.5359982 5.3079382 3.8183594 5.1640625 C 4.0385956 5.0518482 4.59987 5 6 5 z M 14.019531 6 A 1 1 0 0 0 13.40625 6.1953125 A 1 1 0 0 0 13.195312 7.59375 C 13.195312 7.59375 13.579923 8.1184261 14.046875 8.65625 C 14.280351 8.9251619 14.532801 9.1989955 14.802734 9.4375 C 15.072668 9.6760045 15.235834 10 16 10 C 16.764255 10 16.927347 9.6759945 17.197266 9.4375 C 17.467184 9.1990055 17.719646 8.9251551 17.953125 8.65625 C 18.420083 8.1184398 18.804688 7.59375 18.804688 7.59375 A 1 1 0 0 0 18.59375 6.1953125 A 1 1 0 0 0 17.195312 6.40625 C 17.195312 6.40625 16.844651 6.8815702 16.443359 7.34375 C 16.287491 7.5232687 16.138017 7.6708459 16 7.8046875 C 15.861988 7.6708498 15.712502 7.5232672 15.556641 7.34375 C 15.155368 6.8815739 14.804687 6.40625 14.804688 6.40625 A 1 1 0 0 0 14.019531 6 z M 2 15 A 1 1 0 0 0 1 16 A 1 1 0 0 0 2 17 L 14 17 A 1 1 0 0 0 15 16 A 1 1 0 0 0 14 15 L 2 15 z M 2 19 A 1 1 0 0 0 1 20 A 1 1 0 0 0 2 21 L 14 21 A 1 1 0 0 0 15 20 A 1 1 0 0 0 14 19 L 2 19 z " fill="currentColor"/>
</svg>
