<svg xmlns="http://www.w3.org/2000/svg" width="1em" height="1em" viewBox="0 0 24 24" fill="currentColor">
  <path d="M 22 1 A 1 1 0 0 0 21.292969 1.2929688 L 20.496094 2.0898438 L 20.097656 1.6953125 A 1.0001 1.0001 0 0 0 20.0625 1.6621094 C 19.540691 1.1940687 18.853073 0.97538798 18.28125 1.0703125 C 17.709427 1.1652375 17.33541 1.4716797 17.097656 1.6992188 A 1.0001 1.0001 0 0 0 17.095703 1.7011719 L 16.257812 2.5058594 C 16.10242 2.4080768 15.923216 2.3202436 15.714844 2.2539062 C 14.980513 2.020125 14.000182 2.3145843 13.285156 3.0703125 C 13.122054 3.2426687 12.91069 3.4482641 12.697266 3.7207031 A 1.0001 1.0001 0 0 0 12.654297 3.7792969 C 12.190571 4.4706276 12.197213 5.3587923 12.462891 5.9199219 C 12.728568 6.4810515 13.119569 6.8074093 13.333984 7 L 14.669922 8.3359375 C 14.527409 8.4817766 14.351773 8.5988864 14.138672 8.6933594 C 11.653649 9.7950449 9.7950449 11.653649 8.6933594 14.138672 C 8.6033693 14.341661 8.4918151 14.509754 8.3554688 14.648438 L 6.9589844 13.246094 C 6.742726 12.985354 6.3680647 12.516465 5.6660156 12.292969 C 4.9316849 12.059195 3.949405 12.353655 3.234375 13.109375 C 3.0712971 13.281689 2.8599364 13.487248 2.6464844 13.759766 A 1.0001 1.0001 0 0 0 2.6035156 13.820312 C 2.1398056 14.511644 2.1464632 15.397839 2.4121094 15.958984 C 2.4615714 16.063467 2.5180319 16.071315 2.5742188 16.160156 L 1.6992188 17.037109 A 1.0001 1.0001 0 0 0 1.6992188 17.039062 C 1.4408948 17.298728 1.1463779 17.675335 1.0410156 18.244141 C 0.93565341 18.812947 1.1468232 19.549183 1.6542969 20.056641 L 2.0800781 20.505859 L 1.2929688 21.292969 A 1 1 0 0 0 1.2929688 22.707031 A 1 1 0 0 0 2.7070312 22.707031 L 3.4804688 21.933594 L 3.8847656 22.332031 A 1 1 0 0 0 3.9941406 22.376953 A 1 1 0 0 0 3.9980469 22.408203 C 4.4496789 22.76623 4.9744007 23.037473 5.5605469 22.998047 C 6.146693 22.958617 6.547901 22.654265 6.8613281 22.398438 A 1.0001 1.0001 0 0 0 6.9296875 22.337891 L 7.8789062 21.40625 C 8.0295929 21.50056 8.0915387 21.635875 8.2832031 21.701172 C 8.8677668 21.900322 9.6980825 21.795682 10.294922 21.304688 C 10.561205 21.085688 10.760563 20.868741 10.929688 20.701172 C 11.668278 19.969607 11.936897 18.975484 11.677734 18.25 C 11.434175 17.568194 10.964772 17.20974 10.703125 17.003906 L 9.7597656 16.056641 C 10.075493 15.741241 10.3358 15.368065 10.521484 14.949219 C 11.441739 12.873442 12.873442 11.441739 14.949219 10.521484 C 15.375879 10.332335 15.755171 10.065925 16.074219 9.7421875 L 17.136719 10.804688 C 17.404718 11.126042 17.774976 11.469717 18.333984 11.660156 C 18.918549 11.859302 19.7469 11.754656 20.34375 11.263672 C 20.609785 11.044779 20.811364 10.829614 20.980469 10.662109 C 21.719044 9.9305084 21.987676 8.9344726 21.728516 8.2089844 C 21.671069 8.0481701 21.600262 7.9061718 21.523438 7.7792969 L 22.291016 7.0351562 A 1.0001 1.0001 0 0 0 22.357422 6.9648438 C 22.62676 6.6475953 22.931823 6.2350524 22.978516 5.6523438 C 23.025206 5.0696353 22.768882 4.5335378 22.416016 4.0703125 A 1.0001 1.0001 0 0 0 22.345703 3.9863281 L 21.898438 3.515625 L 22.707031 2.7070312 A 1 1 0 0 0 22.707031 1.2929688 A 1 1 0 0 0 22 1 z M 18.605469 3.0488281 C 18.626685 3.0651796 18.664782 3.0969282 18.726562 3.1523438 L 19.802734 4.2148438 L 20.861328 5.328125 C 20.908515 5.4013949 20.941242 5.4635457 20.960938 5.4921875 C 20.940595 5.5196983 20.907046 5.5733589 20.861328 5.6347656 L 20.132812 6.3417969 L 19.435547 5.6425781 L 17.701172 3.8925781 L 18.480469 3.1425781 L 18.480469 3.1445312 C 18.536822 3.0906014 18.585248 3.0610658 18.605469 3.0488281 z M 15.082031 4.1367188 L 15.083984 4.1367188 L 15.085938 4.1367188 L 15.087891 4.1367188 L 15.089844 4.1386719 L 15.091797 4.1386719 L 15.09375 4.1386719 L 15.095703 4.140625 L 15.097656 4.1425781 C 15.098267 4.1433591 15.101054 4.147586 15.101562 4.1484375 C 15.102876 4.1510824 15.104234 4.1560164 15.105469 4.1582031 L 15.107422 4.1582031 L 15.107422 4.1601562 L 15.109375 4.1601562 L 15.111328 4.1621094 C 15.14244 4.1770801 15.334096 4.3204548 15.507812 4.5273438 A 1.0001 1.0001 0 0 0 15.564453 4.5898438 L 17.818359 6.8515625 L 19.40625 8.4550781 A 1.0001 1.0001 0 0 0 19.578125 8.59375 C 19.726443 8.7295701 19.827631 8.8542036 19.84375 8.8808594 L 19.84375 8.8828125 L 19.84375 8.8847656 L 19.845703 8.8847656 L 19.847656 8.8847656 L 19.847656 8.8867188 C 19.850607 8.8876287 19.857749 8.8876305 19.861328 8.8886719 L 19.863281 8.890625 L 19.865234 8.890625 L 19.865234 8.8925781 L 19.867188 8.8925781 L 19.867188 8.8945312 L 19.867188 8.8964844 L 19.869141 8.8984375 L 19.869141 8.9003906 L 19.867188 8.9023438 L 19.867188 8.9042969 C 19.860318 8.9332319 19.801385 9.0132775 19.572266 9.2402344 C 19.371571 9.4390299 19.209984 9.6070429 19.074219 9.71875 C 19.017984 9.7650093 18.999696 9.7824981 18.994141 9.7890625 L 18.994141 9.7871094 L 18.994141 9.7851562 L 18.994141 9.7832031 L 18.994141 9.78125 L 18.994141 9.7792969 L 18.992188 9.7773438 L 18.992188 9.7753906 L 18.990234 9.7734375 L 18.988281 9.7714844 L 18.986328 9.7714844 C 18.984394 9.770377 18.98126 9.7685132 18.978516 9.7675781 C 18.927278 9.7501236 18.760837 9.6312764 18.654297 9.5 A 1.0001 1.0001 0 0 0 18.583984 9.4238281 L 16.986328 7.8261719 A 1 1 0 0 0 16.316406 7.0507812 A 1 1 0 0 0 16.175781 7.015625 L 14.708984 5.5488281 A 1.0001 1.0001 0 0 0 14.669922 5.5117188 C 14.476233 5.3377491 14.311507 5.1489835 14.271484 5.0644531 C 14.260128 5.0404647 14.248842 5.0276981 14.244141 5.0195312 C 14.243766 5.0187672 14.244414 5.0144024 14.244141 5.0136719 L 14.242188 5.0117188 L 14.242188 5.0097656 L 14.244141 5.0078125 L 14.244141 5.0058594 C 14.248778 4.9930949 14.267816 4.971517 14.310547 4.9101562 C 14.417607 4.7799565 14.559975 4.6337351 14.738281 4.4453125 C 14.973153 4.1970705 15.05192 4.1401328 15.082031 4.1367188 z M 5.03125 14.175781 L 5.0332031 14.175781 L 5.0351562 14.175781 L 5.0371094 14.175781 L 5.0390625 14.177734 L 5.0410156 14.177734 L 5.0429688 14.177734 L 5.0449219 14.179688 L 5.046875 14.181641 C 5.0474855 14.182421 5.0502725 14.186649 5.0507812 14.1875 C 5.0520952 14.190145 5.0534516 14.195079 5.0546875 14.197266 L 5.0566406 14.197266 L 5.0566406 14.199219 L 5.0585938 14.199219 L 5.0605469 14.201172 C 5.0916737 14.216283 5.2833219 14.361479 5.4570312 14.568359 A 1.0001 1.0001 0 0 0 5.515625 14.630859 L 7.0078125 16.128906 A 1 1 0 0 0 7.0507812 16.316406 A 1 1 0 0 0 7.8671875 16.992188 L 9.3222656 18.453125 A 1.0001 1.0001 0 0 0 9.40625 18.527344 C 9.6247995 18.702543 9.7797535 18.894082 9.7949219 18.921875 L 9.7949219 18.923828 L 9.796875 18.923828 L 9.7988281 18.925781 L 9.8007812 18.925781 C 9.8032551 18.926378 9.8098779 18.928843 9.8125 18.929688 L 9.8144531 18.929688 L 9.8164062 18.931641 L 9.8164062 18.933594 L 9.8183594 18.933594 L 9.8183594 18.935547 L 9.8183594 18.9375 L 9.8183594 18.939453 L 9.8183594 18.941406 L 9.8183594 18.943359 L 9.8183594 18.945312 C 9.8109423 18.974796 9.750596 19.054318 9.5214844 19.28125 C 9.320808 19.480081 9.1591341 19.648165 9.0234375 19.759766 C 8.9733699 19.800954 8.9528882 19.81946 8.9453125 19.828125 L 8.9453125 19.826172 L 8.9453125 19.824219 L 8.9453125 19.822266 L 8.9453125 19.820312 L 8.9433594 19.818359 L 8.9433594 19.816406 L 8.9414062 19.816406 L 8.9394531 19.814453 L 8.9375 19.8125 L 8.9355469 19.810547 L 8.9335938 19.810547 C 8.9325721 19.81011 8.9308674 19.808996 8.9296875 19.808594 C 8.8784665 19.791144 8.7100113 19.672254 8.6035156 19.541016 A 1.0001 1.0001 0 0 0 8.5351562 19.464844 L 4.6582031 15.587891 A 1.0001 1.0001 0 0 0 4.6210938 15.550781 C 4.4274838 15.376899 4.2607195 15.188045 4.2207031 15.103516 C 4.2093438 15.07952 4.1997635 15.066741 4.1953125 15.058594 C 4.1949643 15.057832 4.1936057 15.053463 4.1933594 15.052734 L 4.1933594 15.050781 L 4.1933594 15.048828 L 4.1933594 15.046875 L 4.1933594 15.044922 C 4.1984435 15.032179 4.2189348 15.010668 4.2617188 14.949219 C 4.3686703 14.819392 4.5099693 14.67196 4.6875 14.484375 C 4.9223697 14.23614 5.0011399 14.179198 5.03125 14.175781 z M 3.8886719 17.677734 L 6.3261719 20.126953 L 5.5410156 20.898438 L 5.5273438 20.912109 C 5.4996747 20.929378 5.4550204 20.956627 5.4296875 20.976562 C 5.392107 20.953891 5.3302737 20.913176 5.2402344 20.841797 A 1 1 0 0 0 5.2167969 20.835938 L 4.1601562 19.792969 L 3.0878906 18.662109 A 1.0001 1.0001 0 0 0 3.0683594 18.642578 C 3.045766 18.619985 3.0297534 18.603121 3.0175781 18.591797 C 3.0345131 18.561894 3.0723948 18.495331 3.1152344 18.451172 L 3.1171875 18.449219 L 3.8886719 17.677734 z " fill="currentColor"/>
</svg>
