<svg xmlns="http://www.w3.org/2000/svg" width="1em" height="1em" viewBox="0 0 24 24" fill="currentColor">
  <path d="M 12 1 C 11.476658 1 10.964843 1.1548681 10.529297 1.4453125 L 6.4511719 4.1640625 A 1 1 0 0 0 6.4394531 4.171875 L 4.9453125 5.1679688 A 1 1 0 0 0 4.6679688 6.5546875 A 1 1 0 0 0 6 6.8652344 L 6 11.464844 L 3.4453125 13.167969 A 1 1 0 0 0 3.1679688 14.554688 A 1 1 0 0 0 4.5 14.865234 L 4.5 18 C 4.5 18.9428 4.4935803 19.670214 4.5820312 20.328125 C 4.6704862 20.986036 4.8963405 21.63852 5.3789062 22.121094 C 5.8614739 22.603678 6.5139596 22.829512 7.171875 22.917969 C 7.8297906 23.006425 8.55719 23 9.5 23 L 10 23 L 14 23 L 14.5 23 C 15.4428 23 16.170212 23.006399 16.828125 22.917969 C 17.486038 22.829509 18.138521 22.603666 18.621094 22.121094 C 19.103666 21.638521 19.329512 20.986038 19.417969 20.328125 C 19.506425 19.670211 19.5 18.9428 19.5 18 L 19.5 14.865234 A 1 1 0 0 0 20.832031 14.554688 A 1 1 0 0 0 20.554688 13.167969 L 18 11.464844 L 18 6.8652344 A 1 1 0 0 0 19.332031 6.5546875 A 1 1 0 0 0 19.054688 5.1679688 L 17.560547 4.171875 A 1 1 0 0 0 17.548828 4.1640625 L 13.470703 1.4453125 C 13.035157 1.1548681 12.523342 1 12 1 z M 12 3 C 12.128658 3 12.254474 3.038119 12.361328 3.109375 L 16 5.5351562 L 16 10.130859 L 13.470703 8.4453125 C 13.035157 8.1548681 12.523342 8 12 8 C 11.476658 8 10.964843 8.1548681 10.529297 8.4453125 L 8 10.130859 L 8 5.5351562 L 11.638672 3.109375 C 11.745526 3.0381194 11.871342 3 12 3 z M 12 10 C 12.128658 10 12.254474 10.03812 12.361328 10.109375 L 17.5 13.535156 L 17.5 18 C 17.5 18.9428 17.493497 19.62921 17.435547 20.060547 C 17.377557 20.491884 17.310259 20.603804 17.207031 20.707031 C 17.103804 20.810259 16.991884 20.877553 16.560547 20.935547 C 16.209524 20.982741 15.689581 20.99677 15 21 L 15 18 C 15 16.354993 13.645007 15 12 15 C 10.354993 15 9 16.354993 9 18 L 9 21 C 8.3104149 20.99677 7.790476 20.982741 7.4394531 20.935547 C 7.0081136 20.877553 6.8961812 20.810247 6.7929688 20.707031 C 6.6897445 20.603805 6.6224458 20.491886 6.5644531 20.060547 C 6.5064604 19.629208 6.5 18.9428 6.5 18 L 6.5 13.535156 L 7.5488281 12.835938 A 1 1 0 0 0 7.5605469 12.828125 L 11.638672 10.109375 C 11.745526 10.038119 11.871342 10 12 10 z M 12 17 C 12.564193 17 13 17.435807 13 18 L 13 21 L 11 21 L 11 18 C 11 17.435807 11.435807 17 12 17 z " fill="currentColor"/>
</svg>
