<svg xmlns="http://www.w3.org/2000/svg" width="1em" height="1em" viewBox="0 0 24 24" fill="currentColor">
  <path d="M 17 2 C 14.592611 2 12.568241 3.7251388 12.101562 6 L 8.8417969 6 C 8.5539524 5.1099341 7.9143665 4.3876037 7.2597656 3.8164062 C 6.8175777 3.4305579 6.3746378 3.0984089 5.7109375 3.0136719 C 5.3790873 2.9713034 4.9351171 3.0338583 4.5898438 3.3046875 C 4.2445704 3.5755167 4.0780836 3.971449 4.015625 4.328125 A 1 1 0 0 0 4.828125 5.484375 A 1 1 0 0 0 5.6835938 5.1464844 C 5.7806438 5.1980554 5.7978386 5.1935814 5.9453125 5.3222656 C 6.1485156 5.4995784 6.347243 5.7475252 6.515625 6 L 3 6 A 1 1 0 0 0 2 7 A 1 1 0 0 0 3 8 L 6.515625 8 C 6.3472431 8.2524743 6.1485152 8.5004208 5.9453125 8.6777344 C 5.7117427 8.881546 5.5016548 8.9630413 5.4882812 8.9785156 A 1 1 0 0 0 4.828125 8.515625 A 1 1 0 0 0 4.015625 9.671875 C 4.078083 10.028552 4.2445735 10.424478 4.5898438 10.695312 C 4.9351141 10.966145 5.379084 11.028695 5.7109375 10.986328 C 6.3746444 10.901588 6.8175776 10.569444 7.2597656 10.183594 C 7.9143664 9.6123927 8.5539523 8.8900644 8.8417969 8 L 12.101562 8 C 12.568241 10.274861 14.592611 12 17 12 C 19.749579 12 22 9.7495791 22 7 C 22 4.2504209 19.749579 2 17 2 z M 17 4 C 18.668699 4 20 5.3313011 20 7 C 20 8.6686989 18.668699 10 17 10 C 15.331301 10 14 8.6686989 14 7 C 14 5.3313011 15.331301 4 17 4 z M 5.5742188 9.0390625 C 5.6509658 9.0486325 5.7258836 9.0439627 5.8242188 9.1210938 C 5.9288335 9.2031549 5.9686138 9.2945488 5.9804688 9.3242188 A 1 1 0 0 0 5.5742188 9.0390625 z M 7 12 C 4.2504209 12 2 14.250421 2 17 C 2 19.749579 4.2504209 22 7 22 C 9.4073895 22 11.431759 20.274861 11.898438 18 L 15.158203 18 C 15.446047 18.890067 16.085631 19.612393 16.740234 20.183594 C 17.182424 20.569444 17.625356 20.901595 18.289062 20.986328 C 18.620916 21.028698 19.064886 20.966148 19.410156 20.695312 C 19.755426 20.424474 19.921922 20.028552 19.984375 19.671875 A 1 1 0 0 0 19.171875 18.515625 A 1 1 0 0 0 18.316406 18.853516 C 18.219356 18.801946 18.202163 18.806416 18.054688 18.677734 C 17.851484 18.500421 17.652757 18.252474 17.484375 18 L 21 18 A 1 1 0 0 0 22 17 A 1 1 0 0 0 21 16 L 17.484375 16 C 17.652757 15.747526 17.851484 15.499579 18.054688 15.322266 C 18.202163 15.193581 18.219357 15.198055 18.316406 15.146484 A 1 1 0 0 0 19.171875 15.484375 A 1 1 0 0 0 19.984375 14.328125 C 19.921925 13.971448 19.755426 13.575525 19.410156 13.304688 C 19.064886 13.033848 18.620916 12.971305 18.289062 13.013672 C 17.625356 13.098402 17.182424 13.430556 16.740234 13.816406 C 16.085631 14.387607 15.446047 15.109933 15.158203 16 L 11.898438 16 C 11.431759 13.725139 9.4073895 12 7 12 z M 7 14 C 8.6686989 14 10 15.331301 10 17 C 10 18.668699 8.6686989 20 7 20 C 5.3313011 20 4 18.668699 4 17 C 4 15.331301 5.3313011 14 7 14 z " fill="currentColor"/>
</svg>
