<svg xmlns="http://www.w3.org/2000/svg" width="1em" height="1em" viewBox="0 0 24 24" fill="currentColor">
  <path d="M 20.019531 2 A 1 1 0 0 0 19.634766 2.0683594 A 1 1 0 0 0 19.083984 2.5996094 C 19.083984 2.5996094 17.375279 6.4969078 14.337891 10.384766 C 11.300502 14.272623 7.0151515 18 2 18 A 1 1 0 0 0 1 19 A 1 1 0 0 0 2 20 C 7.9848485 20 12.699498 15.727377 15.912109 11.615234 C 19.124721 7.5030922 20.916016 3.4003906 20.916016 3.4003906 A 1 1 0 0 0 20.400391 2.0839844 A 1 1 0 0 0 20.019531 2 z M 20 16 C 18.74335 16 17.859411 16.893299 17.416016 18 L 16 18 A 1 1 0 0 0 15 19 A 1 1 0 0 0 16 20 L 17.416016 20 C 17.859411 21.106701 18.74335 22 20 22 C 21.645007 22 23 20.645007 23 19 C 23 17.354993 21.645007 16 20 16 z M 11 18 A 1 1 0 0 0 10 19 A 1 1 0 0 0 11 20 L 13 20 A 1 1 0 0 0 14 19 A 1 1 0 0 0 13 18 L 11 18 z M 20 18 C 20.564193 18 21 18.435807 21 19 C 21 19.564193 20.564193 20 20 20 C 19.435807 20 19 19.564193 19 19 C 19 18.435807 19.435807 18 20 18 z " fill="currentColor"/>
</svg>
