<svg xmlns="http://www.w3.org/2000/svg" width="1em" height="1em" viewBox="0 0 24 24" fill="currentColor">
  <path d="M 8 1 A 1.0001 1.0001 0 0 0 7 2 L 7 3 C 7 4.6450096 8.3549904 6 10 6 L 11 6 L 11 8 L 9.5 8 A 1 1 0 0 0 8.5 9 A 1 1 0 0 0 9.5 10 L 9.5 11.625 C 7.4523018 12.582805 6 14.60147 6 17 C 6 20.301846 8.6981334 23 12 23 C 15.30185 23 18 20.30185 18 17 C 18 14.601484 16.547727 12.582806 14.5 11.625 L 14.5 10 A 1 1 0 0 0 15.5 9 A 1 1 0 0 0 14.5 8 L 13 8 L 13 7 L 14 7 C 15.645025 7 17 5.6449915 17 4 L 17 3 A 1.0001 1.0001 0 0 0 16 2 L 14 2 C 13.466198 2 12.963677 2.1436117 12.527344 2.3925781 C 11.991911 1.558529 11.055264 1 10 1 L 8 1 z M 9 3 L 10 3 C 10.564175 3 11 3.4358515 11 4 L 10 4 C 9.4358696 4 9 3.5641304 9 3 z M 14 4 L 15 4 C 15 4.5641485 14.564175 5 14 5 L 13 5 C 13 4.4358515 13.435825 4 14 4 z M 11.5 10 L 12.5 10 L 12.5 12.228516 A 1.0001 1.0001 0 0 0 13.201172 13.183594 C 14.820786 13.692248 16 15.199351 16 17 C 16 19.22095 14.22095 21 12 21 C 9.7790266 21 8 19.220954 8 17 C 8 15.199366 9.1792634 13.692245 10.798828 13.183594 A 1.0001 1.0001 0 0 0 11.5 12.228516 L 11.5 10 z " fill="currentColor"/>
</svg>
