<svg xmlns="http://www.w3.org/2000/svg" width="1em" height="1em" viewBox="0 0 24 24" fill="currentColor">
  <path d="M 3 5 A 1 1 0 0 0 2 6 A 1 1 0 0 0 3 7 L 21 7 A 1 1 0 0 0 22 6 A 1 1 0 0 0 21 5 L 3 5 z M 3 9 A 1 1 0 0 0 2 10 A 1 1 0 0 0 3 11 L 10.5 11 A 1 1 0 0 0 11.5 10 A 1 1 0 0 0 10.5 9 L 3 9 z M 13.5 9 A 1 1 0 0 0 12.5 10 A 1 1 0 0 0 13.5 11 L 21 11 A 1 1 0 0 0 22 10 A 1 1 0 0 0 21 9 L 13.5 9 z M 3 13 A 1 1 0 0 0 2 14 A 1 1 0 0 0 3 15 L 7 15 A 1 1 0 0 0 8 14 A 1 1 0 0 0 7 13 L 3 13 z M 10 13 A 1 1 0 0 0 9 14 A 1 1 0 0 0 10 15 L 14 15 A 1 1 0 0 0 15 14 A 1 1 0 0 0 14 13 L 10 13 z M 17 13 A 1 1 0 0 0 16 14 A 1 1 0 0 0 17 15 L 21 15 A 1 1 0 0 0 22 14 A 1 1 0 0 0 21 13 L 17 13 z M 3 17 A 1 1 0 0 0 2 18 A 1 1 0 0 0 3 19 L 5.1171875 19 A 1 1 0 0 0 6.1171875 18 A 1 1 0 0 0 5.1171875 17 L 3 17 z M 8.2949219 17 A 1 1 0 0 0 7.2949219 18 A 1 1 0 0 0 8.2949219 19 L 10.412109 19 A 1 1 0 0 0 11.412109 18 A 1 1 0 0 0 10.412109 17 L 8.2949219 17 z M 13.587891 17 A 1 1 0 0 0 12.587891 18 A 1 1 0 0 0 13.587891 19 L 15.705078 19 A 1 1 0 0 0 16.705078 18 A 1 1 0 0 0 15.705078 17 L 13.587891 17 z M 18.882812 17 A 1 1 0 0 0 17.882812 18 A 1 1 0 0 0 18.882812 19 L 21 19 A 1 1 0 0 0 22 18 A 1 1 0 0 0 21 17 L 18.882812 17 z " fill="currentColor"/>
</svg>
