<svg xmlns="http://www.w3.org/2000/svg" width="1em" height="1em" viewBox="0 0 24 24" fill="currentColor">
  <path d="M 17.117188 1.0019531 C 16.409356 1.0125821 15.704908 1.206134 15.076172 1.5800781 C 14.512151 1.9155414 14.118895 2.3571657 13.435547 3.0996094 A 1 1 0 0 0 13 3 A 1 1 0 0 0 12.292969 3.2929688 A 1 1 0 0 0 12.138672 4.5078125 L 4.0546875 13.265625 C 2.8447156 14.576605 2.1464126 15.308959 1.7070312 16.320312 C 1.26766 17.331616 1.2063364 18.346377 1.0664062 20.142578 L 1.0390625 20.488281 C 1.0142025 20.807333 0.98719345 21.065379 1.0039062 21.365234 C 1.0206192 21.66509 1.1177468 22.0788 1.3925781 22.390625 C 1.6672942 22.702487 2.075766 22.854682 2.3730469 22.904297 C 2.6703277 22.953907 2.9250463 22.952737 3.2382812 22.960938 A 1.0001 1.0001 0 0 0 3.2402344 22.960938 L 3.5195312 22.96875 C 5.5773713 23.02255 6.7488549 23.077258 7.9316406 22.615234 C 9.1144734 22.153333 9.9456366 21.317603 11.443359 19.875 L 19.675781 11.945312 A 1 1 0 0 0 20.707031 11.707031 A 1 1 0 0 0 20.957031 10.710938 C 21.680969 10.015731 22.115157 9.6139669 22.439453 9.0449219 C 23.166096 7.7699515 23.187467 6.2078765 22.498047 4.9121094 C 22.175233 4.3051405 21.727069 3.8783745 20.958984 3.09375 C 20.1909 2.3091255 19.776532 1.8511331 19.175781 1.5175781 C 18.536287 1.1625546 17.82502 0.99132384 17.117188 1.0019531 z M 17.148438 2.9980469 C 17.510455 2.9926069 17.873272 3.0833719 18.205078 3.2675781 L 18.205078 3.265625 C 18.409327 3.37903 18.763135 3.707532 19.53125 4.4921875 C 20.299365 5.276843 20.617835 5.6341582 20.732422 5.8496094 A 1.0001 1.0001 0 0 0 20.732422 5.8515625 C 21.098802 6.5401754 21.086929 7.3778379 20.701172 8.0546875 C 20.589427 8.2507671 20.298915 8.5649277 19.628906 9.2148438 L 14.890625 4.4765625 C 15.57953 3.7325685 15.903901 3.4140681 16.097656 3.2988281 C 16.42422 3.1046022 16.78642 3.0034876 17.148438 2.9980469 z M 13.533203 5.9472656 L 18.1875 10.601562 L 10.056641 18.433594 C 8.5589234 19.876191 7.8941284 20.482868 7.2050781 20.751953 C 6.5159838 21.021129 5.6301056 21.02255 3.5722656 20.96875 L 3.2910156 20.960938 C 3.1453493 20.957138 3.115052 20.952236 3.0175781 20.947266 C 3.0228981 20.84368 3.0208481 20.803035 3.0332031 20.644531 L 3.0605469 20.296875 C 3.2004768 18.500676 3.2789069 17.720486 3.5410156 17.117188 C 3.8030944 16.513942 4.3134294 15.934067 5.5234375 14.623047 L 13.533203 5.9472656 z M 14 21 A 1 1 0 0 0 13 22 A 1 1 0 0 0 14 23 L 22 23 A 1 1 0 0 0 23 22 A 1 1 0 0 0 22 21 L 14 21 z " fill="currentColor"/>
</svg>
