<svg xmlns="http://www.w3.org/2000/svg" width="1em" height="1em" viewBox="0 0 24 24" fill="currentColor">
  <path d="M 18.886719 1 C 18.501577 1 18.116435 1.078736 17.755859 1.234375 C 17.165859 1.4890564 16.825563 1.8795449 16.238281 2.4667969 L 11.216797 7.4882812 C 9.9796015 8.7254666 9.2633318 9.4164253 8.7988281 10.398438 C 8.334315 11.380388 8.2538315 12.372077 8.0820312 14.113281 L 8.0039062 14.902344 A 1.0001 1.0001 0 0 0 9.0976562 15.996094 L 9.8867188 15.917969 C 11.627888 15.746169 12.619613 15.665659 13.601562 15.201172 C 14.583557 14.736664 15.274519 14.020403 16.511719 12.783203 L 21.533203 7.7617188 C 22.120481 7.1744708 22.510921 6.834278 22.765625 6.2441406 C 23.076922 5.5229863 23.076922 4.7035762 22.765625 3.9824219 C 22.510921 3.3922895 22.120481 3.0540448 21.533203 2.4667969 C 20.945961 1.8794847 20.607391 1.4890539 20.017578 1.234375 C 19.657003 1.078736 19.271861 1 18.886719 1 z M 18.886719 3 C 19.001602 3 19.116485 3.0236415 19.224609 3.0703125 C 19.285199 3.0964735 19.531983 3.2936315 20.119141 3.8808594 C 20.706463 4.4681514 20.903593 4.714928 20.929688 4.7753906 C 21.022987 4.9915363 21.022987 5.2350262 20.929688 5.4511719 C 20.903588 5.5116349 20.706463 5.7603642 20.119141 6.3476562 L 15.097656 11.369141 C 13.860456 12.606341 13.315652 13.126039 12.748047 13.394531 C 12.266286 13.622416 11.390858 13.717215 10.152344 13.847656 C 10.282786 12.609129 10.377572 11.733713 10.605469 11.251953 C 10.873945 10.684365 11.393655 10.139539 12.630859 8.9023438 L 17.652344 3.8808594 C 18.239662 3.2935713 18.488229 3.0964711 18.548828 3.0703125 C 18.656953 3.0236415 18.771836 3 18.886719 3 z M 3.75 14 C 2.243062 14 1 15.243062 1 16.75 C 1 18.256938 2.243062 19.5 3.75 19.5 L 13.25 19.5 C 13.676062 19.5 14 19.823938 14 20.25 C 14 20.676062 13.676062 21 13.25 21 L 11 21 A 1 1 0 0 0 10 22 A 1 1 0 0 0 11 23 L 13.25 23 C 14.756938 23 16 21.756938 16 20.25 C 16 18.743062 14.756938 17.5 13.25 17.5 L 3.75 17.5 C 3.323938 17.5 3 17.176062 3 16.75 C 3 16.323938 3.323938 16 3.75 16 L 6 16 A 1 1 0 0 0 7 15 A 1 1 0 0 0 6 14 L 3.75 14 z " fill="currentColor"/>
</svg>
