<svg xmlns="http://www.w3.org/2000/svg" width="1em" height="1em" viewBox="0 0 24 24" fill="currentColor">
  <path d="M 9 2.5 C 5.6981382 2.5 3 5.1981382 3 8.5 C 3 10.477081 3.967996 12.237494 5.453125 13.332031 C 2.8182014 14.643307 1 17.366191 1 20.5 A 1 1 0 0 0 2 21.5 A 1 1 0 0 0 3 20.5 C 3 17.17444 5.6744494 14.5 9 14.5 C 12.325562 14.5 15 17.174438 15 20.5 A 1 1 0 0 0 16 21.5 A 1 1 0 0 0 17 20.5 C 17 17.36619 15.181802 14.643306 12.546875 13.332031 C 14.032002 12.237495 15 10.477081 15 8.5 C 15 5.1981334 12.301846 2.5 9 2.5 z M 9 4.5 C 11.220954 4.5 13 6.2790266 13 8.5 C 13 10.72095 11.22095 12.5 9 12.5 C 6.7790266 12.5 5 10.720954 5 8.5 C 5 6.2790218 6.7790218 4.5 9 4.5 z M 20.314453 6.0058594 C 19.784419 6.0058566 19.254095 6.2049087 18.855469 6.6035156 A 1.0001 1.0001 0 0 0 18.84375 6.6171875 L 15.701172 9.8691406 C 15.251344 10.334957 15 10.957752 15 11.605469 L 15 13 A 1.0001 1.0001 0 0 0 16 14 L 17.394531 14 C 18.042248 14 18.665043 13.748656 19.130859 13.298828 L 22.382812 10.15625 A 1.0001 1.0001 0 0 0 22.396484 10.144531 C 23.193736 9.3472994 23.193749 8.0237892 22.396484 7.2265625 L 21.773438 6.6035156 C 21.374814 6.2049014 20.844488 6.0058622 20.314453 6.0058594 z M 20.314453 7.9921875 C 20.328676 7.9921869 20.3429 8.0011026 20.359375 8.0175781 L 20.982422 8.640625 C 21.015362 8.673558 21.015372 8.6975208 20.982422 8.7304688 L 17.742188 11.859375 C 17.648604 11.949747 17.524415 12 17.394531 12 L 17 12 L 17 11.605469 C 17 11.475585 17.05025 11.351396 17.140625 11.257812 L 20.269531 8.0175781 C 20.286006 8.0011051 20.300231 7.9921881 20.314453 7.9921875 z " fill="currentColor"/>
</svg>
