<svg xmlns="http://www.w3.org/2000/svg" width="1em" height="1em" viewBox="0 0 24 24" fill="currentColor">
  <path d="M 14 2 C 12.001212 2 10.217466 2.9847804 9.1289062 4.4960938 C 8.4421973 5.4494829 7.5411433 6.3133574 6.5839844 6.765625 C 3.8722584 8.0469443 2 10.81185 2 14 C 2 18.40644 5.5935706 22 10 22 C 12.318237 22 14.417172 21.007277 15.876953 19.425781 C 16.112609 19.170454 16.544069 19 17 19 C 19.749637 19 22 16.749531 22 14 C 22 12.940621 21.666005 11.948469 21.099609 11.138672 C 20.482671 10.256552 20 8.9694048 20 8 C 20 4.6981576 17.301926 2 14 2 z M 14 4 C 16.221074 4 18 5.7790024 18 8 C 18 9.5570952 18.629876 11.096876 19.460938 12.285156 C 19.801142 12.77156 20 13.357179 20 14 C 20 15.668669 18.668763 17 17 17 C 16.078331 17 15.104994 17.311286 14.40625 18.068359 C 13.309031 19.257063 11.749083 20 10 20 C 6.6744494 20 4 17.32556 4 14 C 4 11.59395 5.4082591 9.5339795 7.4394531 8.5742188 C 8.8264542 7.9188462 9.923362 6.8144334 10.751953 5.6640625 C 11.478614 4.6551958 12.655588 4 14 4 z M 10 10 C 7.8027056 10 6 11.802706 6 14 C 6 16.197294 7.8027056 18 10 18 C 12.197294 18 14 16.197294 14 14 C 14 11.802706 12.197294 10 10 10 z M 10 12 C 11.116414 12 12 12.883586 12 14 C 12 15.116414 11.116414 16 10 16 C 8.8835859 16 8 15.116414 8 14 C 8 12.883586 8.8835859 12 10 12 z " fill="currentColor"/>
</svg>
