<svg xmlns="http://www.w3.org/2000/svg" width="1em" height="1em" viewBox="0 0 24 24" fill="currentColor">
  <path d="M 12 1 C 9.262751 1 7.0373622 3.0673805 5.4902344 5.6054688 C 3.9431066 8.143557 3 11.261219 3 14 C 3 19.477563 7.1290552 23 12 23 C 16.870963 23 21 19.47756 21 14 C 21 11.26122 20.056891 8.1435576 18.509766 5.6054688 C 16.96264 3.0673799 14.737257 1 12 1 z M 12 3 C 13.681043 3 15.454435 4.4326202 16.802734 6.6445312 C 18.151034 8.8564425 19 11.73878 19 14 C 19 18.52244 15.965637 21 12 21 C 8.0343848 21 5 18.522437 5 14 C 5 11.738781 5.8489634 8.856443 7.1972656 6.6445312 C 8.5455678 4.4326196 10.318969 3 12 3 z " fill="currentColor"/>
</svg>
