<svg xmlns="http://www.w3.org/2000/svg" width="1em" height="1em" viewBox="0 0 24 24" fill="currentColor">
  <path d="M 12 1 A 1 1 0 0 0 11 2 L 11 3.2226562 C 10.334678 3.533962 9.8266276 4.1462174 9.6699219 4.8964844 C 9.3453554 6.4497588 8.9461842 8.1891944 8.3984375 10 L 7.5 10 A 1 1 0 0 0 6.5 11 A 1 1 0 0 0 7.5 12 L 7.7382812 12 C 7.4987881 12.664619 7.2356574 13.333067 6.9472656 14 L 6 14 A 1 1 0 0 0 5 15 A 1 1 0 0 0 5.9960938 16 C 5.0188289 17.868212 3.8026976 19.681017 2.2695312 21.316406 A 1 1 0 0 0 2.3164062 22.730469 A 1 1 0 0 0 3.7304688 22.683594 C 5.6671461 20.617788 7.1236314 18.321975 8.2421875 16 L 15.757812 16 C 16.876368 18.321974 18.33285 20.61779 20.269531 22.683594 A 1 1 0 0 0 21.683594 22.730469 A 1 1 0 0 0 21.730469 21.316406 C 20.197301 19.681019 18.98117 17.868211 18.003906 16 A 1 1 0 0 0 19 15 A 1 1 0 0 0 18 14 L 17.052734 14 C 16.764343 13.333067 16.501212 12.664619 16.261719 12 L 16.5 12 A 1 1 0 0 0 17.5 11 A 1 1 0 0 0 16.5 10 L 15.601562 10 C 15.053817 8.1891947 14.654645 6.449759 14.330078 4.8964844 C 14.173373 4.1462174 13.665322 3.533962 13 3.2226562 L 13 2 A 1 1 0 0 0 12 1 z M 12 5 C 12.185757 5 12.332346 5.1191732 12.371094 5.3046875 C 12.667312 6.7222967 13.026468 8.317293 13.509766 10 L 10.490234 10 C 10.973533 8.3172931 11.332688 6.722297 11.628906 5.3046875 C 11.667654 5.1191732 11.814243 5 12 5 z M 9.8652344 12 L 14.134766 12 C 14.359015 12.660676 14.604316 13.328986 14.875 14 L 9.125 14 C 9.3956844 13.328986 9.6409849 12.660676 9.8652344 12 z M 12 17 C 9.2094348 17 6.8848084 19.01191 6.0449219 21.701172 A 1 1 0 0 0 6.7011719 22.955078 A 1 1 0 0 0 7.9550781 22.298828 C 8.5708116 20.32729 10.173805 19 12 19 C 13.826219 19 15.429197 20.32729 16.044922 22.298828 A 1 1 0 0 0 17.298828 22.955078 A 1 1 0 0 0 17.955078 21.701172 C 17.115203 19.01191 14.790581 17 12 17 z " fill="currentColor"/>
</svg>
