<svg xmlns="http://www.w3.org/2000/svg" width="1em" height="1em" viewBox="0 0 24 24" fill="currentColor">
  <path d="M 12.025391 1 C 7.0995909 1 2.9122764 4.2324118 1.5058594 8.6992188 A 1 1 0 0 0 2.1582031 9.953125 A 1 1 0 0 0 3.4121094 9.3007812 C 4.5605324 5.653368 7.9737495 3 12.025391 3 C 16.199697 3 19.554233 5.8701901 20.59375 9.6933594 L 20.199219 9.6132812 A 1 1 0 0 0 19.019531 10.392578 A 1 1 0 0 0 19.800781 11.572266 L 21.800781 11.980469 A 1.0001 1.0001 0 0 0 22.994141 10.900391 C 22.44103 5.3425337 17.72975 1 12.025391 1 z M 12.027344 7.0507812 C 11.815305 7.0455145 11.60166 7.0741447 11.394531 7.140625 C 10.285124 7.4966723 9.1642541 8.0179253 8.234375 8.5683594 C 7.7694355 8.8435764 7.3536116 9.1248568 7.0039062 9.4140625 C 6.6542009 9.7032682 6.3579406 9.9651421 6.1445312 10.416016 C 5.9358093 10.856897 6.0107115 11.309558 6.171875 11.630859 C 6.5781174 12.439938 7.2911514 12.904488 8.1386719 13.390625 A 1 1 0 0 0 8.0019531 13.527344 L 8.0019531 15.519531 C 8.0019531 16.164178 8.3142114 16.808584 8.9042969 17.177734 C 9.866691 17.779751 10.805819 18.008871 11.974609 18.044922 A 1.0001 1.0001 0 0 0 11.978516 18.044922 C 13.095121 18.074942 14.061143 17.827577 15.097656 17.179688 C 15.687006 16.811187 16.009766 16.166595 16.009766 15.511719 L 16.009766 13.527344 A 1 1 0 0 0 15.783203 13.300781 C 15.845103 13.264351 15.951772 13.222321 16.011719 13.185547 L 16.011719 14.03125 A 1 1 0 0 0 17.011719 15.03125 A 1 1 0 0 0 18.011719 14.03125 L 18.011719 11.015625 A 1 1 0 0 0 17.957031 10.960938 C 17.948131 10.588147 17.862301 10.206752 17.603516 9.9179688 C 17.06943 9.3234315 16.32667 8.8681773 15.455078 8.40625 C 14.583486 7.9443227 13.593916 7.5141153 12.648438 7.1679688 C 12.449814 7.0952117 12.239382 7.056048 12.027344 7.0507812 z M 11.984375 9.0546875 C 12.84217 9.3698956 13.756166 9.769259 14.519531 10.173828 C 15.153878 10.51002 15.553554 10.821183 15.833984 11.0625 L 15.832031 11.064453 L 15.830078 11.066406 C 15.828914 11.067682 15.825052 11.071164 15.824219 11.072266 L 15.824219 11.074219 C 15.823616 11.074833 15.819187 11.077422 15.818359 11.078125 C 14.96775 11.696551 14.042323 12.177757 12 12.962891 C 10.969775 12.579899 9.9756652 12.141734 9.2246094 11.714844 C 8.6523419 11.389574 8.4435571 11.150596 8.2636719 10.96875 C 8.2660894 10.966675 8.2685847 10.963907 8.2695312 10.962891 L 8.2714844 10.960938 L 8.2714844 10.958984 C 8.2724837 10.957959 8.2748207 10.957171 8.2773438 10.955078 C 8.5138405 10.759494 8.8550889 10.523982 9.2519531 10.289062 C 10.039483 9.8228903 11.052543 9.355984 11.984375 9.0546875 z M 1.9335938 12.001953 A 1.0001 1.0001 0 0 0 1.0058594 13.099609 C 1.5590466 18.657438 6.2703106 23 11.974609 23 C 16.900392 23 21.087743 19.767585 22.494141 15.300781 A 1 1 0 0 0 21.841797 14.046875 A 1 1 0 0 0 20.587891 14.699219 C 19.439488 18.346615 16.026227 21 11.974609 21 C 7.8003738 21 4.4458138 18.129806 3.40625 14.306641 L 3.8007812 14.386719 A 1 1 0 0 0 4.9804688 13.607422 A 1 1 0 0 0 4.1992188 12.427734 L 2.1992188 12.019531 A 1.0001 1.0001 0 0 0 1.9335938 12.001953 z M 14.009766 14.183594 L 14.009766 15.492188 C 13.20496 15.992112 12.906099 16.069969 12.037109 16.046875 C 11.051626 16.016475 10.700743 15.924462 10.001953 15.492188 L 10.001953 14.25 C 10.450377 14.444856 10.841014 14.666742 11.3125 14.841797 C 11.76706 15.010517 12.261921 15.004842 12.707031 14.833984 C 13.351858 14.586285 13.52141 14.39904 14.009766 14.183594 z " fill="currentColor"/>
</svg>
