<svg xmlns="http://www.w3.org/2000/svg" width="1em" height="1em" viewBox="0 0 24 24" fill="currentColor">
  <path d="M 12 1.5 C 10.914345 1.5 9.923914 1.9464035 8.9589844 2.6523438 C 7.9940547 3.3582839 6.9837191 4.3347878 5.6503906 5.6132812 L 1.3085938 9.7792969 A 1 1 0 0 0 1.2773438 11.193359 A 1 1 0 0 0 2.6914062 11.222656 L 3 10.927734 L 3 13.5 C 3 15.3856 2.99457 16.820891 3.15625 18.023438 C 3.3179268 19.225984 3.6893545 20.259713 4.4648438 21.035156 C 5.1684876 21.738813 6.0937723 22.115948 7.1484375 22.294922 C 8.2031027 22.473895 9.4289819 22.495421 10.996094 22.5 C 12.091205 22.503173 13 21.592948 13 20.5 L 13 18.46875 C 13.742619 18.36175 14.422446 17.975414 14.871094 17.357422 L 15.222656 16.875 C 15.891801 15.953372 16.298138 14.878606 16.390625 13.759766 L 16.496094 12.462891 C 16.573244 11.528295 15.851305 10.86637 15.001953 10.664062 L 15.001953 9 A 1 1 0 0 0 14.001953 8 A 1 1 0 0 0 13.001953 9 L 13.001953 10.5 L 11.001953 10.5 L 11.001953 9 A 1 1 0 0 0 10.001953 8 A 1 1 0 0 0 9.0019531 9 L 9.0019531 10.666016 C 8.1543919 10.869744 7.4326533 11.529643 7.5097656 12.462891 L 7.6152344 13.759766 C 7.7076994 14.878635 8.1139824 15.953366 8.7832031 16.875 L 9.1347656 17.357422 C 9.5822501 17.973588 10.259669 18.360512 11 18.46875 L 11 20.5 C 9.4542307 20.49545 8.2990608 20.462469 7.484375 20.324219 C 6.6692377 20.185892 6.2383425 19.980537 5.8789062 19.621094 C 5.4828255 19.225037 5.2679344 18.731837 5.1367188 17.755859 C 5.0055032 16.779881 5 15.3856 5 13.5 L 5 9.0097656 L 7.0351562 7.0585938 C 8.3684879 5.7800972 9.3580197 4.8381772 10.140625 4.265625 C 10.92323 3.6930728 11.428755 3.5 12 3.5 C 12.571245 3.5 13.076761 3.6930714 13.859375 4.265625 C 14.641989 4.8381786 15.631492 5.7800969 16.964844 7.0585938 L 19 9.0097656 L 19 13.5 C 19 15.3856 18.9945 16.779884 18.863281 17.755859 C 18.732063 18.731835 18.517187 19.225034 18.121094 19.621094 C 17.574706 20.167549 16.759168 20.39209 14.958984 20.466797 A 1 1 0 0 0 14 21.507812 A 1 1 0 0 0 15.041016 22.464844 C 16.985432 22.384154 18.465344 22.105101 19.535156 21.035156 C 20.310663 20.259716 20.682069 19.225988 20.84375 18.023438 C 21.005431 16.820888 21 15.3856 21 13.5 L 21 10.927734 L 21.308594 11.222656 A 1 1 0 0 0 22.722656 11.193359 A 1 1 0 0 0 22.691406 9.7792969 L 18.349609 5.6132812 C 17.016261 4.3347882 16.005952 3.3582826 15.041016 2.6523438 C 14.07608 1.9464048 13.085655 1.5 12 1.5 z M 9.5195312 12.5 L 10.001953 12.5 L 14.001953 12.5 L 14.486328 12.5 L 14.396484 13.595703 C 14.334774 14.342262 14.064971 15.0656 13.603516 15.701172 L 13.253906 16.183594 C 13.124988 16.361167 12.867763 16.5 12.576172 16.5 L 12 16.5 L 11.429688 16.5 C 11.138096 16.5 10.881087 16.361405 10.751953 16.183594 L 10.402344 15.701172 C 9.9408443 15.065606 9.6710696 14.342234 9.609375 13.595703 L 9.5195312 12.5 z " fill="currentColor"/>
</svg>
