<svg xmlns="http://www.w3.org/2000/svg" width="1em" height="1em" viewBox="0 0 24 24" fill="currentColor">
  <path d="M 12 1 C 11.358887 1 10.84772 1.4076101 10.521484 1.796875 C 10.195249 2.1861399 9.9193895 2.6437956 9.5527344 3.2304688 L 8.2773438 5.2714844 C 8.1706193 5.330008 8.0667056 5.3952396 7.9550781 5.4628906 L 3.6835938 8.0527344 A 1 1 0 0 0 3.3066406 8.2792969 C 3.1214076 8.3941957 2.9487517 8.5202532 2.7753906 8.734375 C 2.5226323 9.0466194 2.4524492 9.3421196 2.3652344 9.6328125 L 2.0429688 10.712891 A 1 1 0 0 0 2.7128906 11.957031 A 1 1 0 0 0 3.9570312 11.287109 L 4.28125 10.208984 C 4.3124216 10.105087 4.3344664 10.038949 4.3476562 10 L 8.0566406 10 L 4.2871094 21 L 3 21 A 1 1 0 0 0 2 22 A 1 1 0 0 0 3 23 L 21 23 A 1 1 0 0 0 22 22 A 1 1 0 0 0 21 21 L 19.712891 21 L 15.943359 10 L 19.5 10 A 1 1 0 0 0 19.640625 9.9902344 C 19.643975 9.9925018 19.647407 9.9940723 19.650391 9.9960938 C 19.663406 10.034516 19.686598 10.101807 19.71875 10.208984 L 20.042969 11.287109 A 1 1 0 0 0 21.287109 11.957031 A 1 1 0 0 0 21.957031 10.712891 L 21.634766 9.6328125 C 21.547569 9.3421246 21.477272 9.0466342 21.224609 8.734375 C 20.971892 8.4223652 20.720495 8.2973481 20.429688 8.1210938 L 16.044922 5.4628906 C 15.933303 5.3952518 15.829378 5.3300048 15.722656 5.2714844 L 14.447266 3.2304688 C 14.080611 2.6437955 13.804751 2.1861399 13.478516 1.796875 C 13.15228 1.4076101 12.641113 1 12 1 z M 12 3.1640625 C 12.167859 3.376423 12.410207 3.7422457 12.751953 4.2890625 L 13.197266 5 L 10.802734 5 L 11.248047 4.2890625 C 11.589793 3.7422457 11.832141 3.376423 12 3.1640625 z M 10.197266 7 L 13.802734 7 L 13.621094 8 L 10.378906 8 L 10.197266 7 z M 8.2753906 7.609375 L 8.3457031 8 L 7.6308594 8 L 8.2753906 7.609375 z M 15.724609 7.609375 L 16.369141 8 L 15.654297 8 L 15.724609 7.609375 z M 11.255859 10 L 12.744141 10 L 12 10.515625 L 11.255859 10 z M 9.7050781 11.357422 L 10.244141 11.730469 L 9.3691406 12.335938 L 9.7050781 11.357422 z M 14.294922 11.357422 L 14.630859 12.335938 L 13.755859 11.730469 L 14.294922 11.357422 z M 12 12.947266 L 14.234375 14.494141 L 12 16.017578 L 9.765625 14.494141 L 12 12.947266 z M 8.171875 15.826172 L 10.226562 17.226562 L 6.9179688 19.482422 L 8.171875 15.826172 z M 15.828125 15.826172 L 17.082031 19.482422 L 13.773438 17.226562 L 15.828125 15.826172 z M 12 18.4375 L 15.759766 21 L 8.2402344 21 L 12 18.4375 z " fill="currentColor"/>
</svg>
