<svg xmlns="http://www.w3.org/2000/svg" width="1em" height="1em" viewBox="0 0 24 24" fill="currentColor">
  <path d="M 12 1 C 11.5286 1 11.155128 0.99307988 10.769531 1.0449219 C 10.383935 1.0967636 9.9220631 1.2498234 9.5859375 1.5859375 C 9.2498152 1.9220598 9.0967658 2.38393 9.0449219 2.7695312 C 9.0122547 3.0125009 9.0024364 3.2508487 9 3.5117188 C 6.4404563 4.4156426 4.4156426 6.4404563 3.5117188 9 C 3.2508487 9.0024364 3.0125009 9.0122547 2.7695312 9.0449219 C 2.3839299 9.0967658 1.9220598 9.2498152 1.5859375 9.5859375 C 1.2498234 9.9220631 1.0967637 10.383935 1.0449219 10.769531 C 0.99308003 11.155128 1 11.5286 1 12 C 1 12.4714 0.99307988 12.844872 1.0449219 13.230469 C 1.0967639 13.616065 1.2498234 14.077936 1.5859375 14.414062 C 1.9220598 14.750184 2.38393 14.903234 2.7695312 14.955078 C 3.0125015 14.987745 3.2508479 14.997564 3.5117188 15 C 4.4156448 17.559524 6.4404635 19.58433 9 20.488281 C 9.0024367 20.749155 9.0122556 20.987497 9.0449219 21.230469 C 9.0967659 21.616069 9.2498152 22.07794 9.5859375 22.414062 C 9.9220598 22.750186 10.383931 22.903234 10.769531 22.955078 C 11.155131 23.006922 11.5286 23 12 23 C 12.4714 23 12.844869 23.006898 13.230469 22.955078 C 13.616069 22.903238 14.07794 22.750186 14.414062 22.414062 C 14.750184 22.077941 14.903234 21.616069 14.955078 21.230469 C 14.987746 20.987496 14.997564 20.749156 15 20.488281 C 17.559519 19.584327 19.584329 17.55952 20.488281 15 C 20.749155 14.997559 20.987497 14.987731 21.230469 14.955078 C 21.616069 14.903238 22.07794 14.750184 22.414062 14.414062 C 22.750186 14.077939 22.903234 13.616069 22.955078 13.230469 C 23.006922 12.844867 23 12.4714 23 12 C 23 11.5286 23.006898 11.155131 22.955078 10.769531 C 22.903238 10.383931 22.750186 9.9220598 22.414062 9.5859375 C 22.077939 9.2498152 21.616069 9.0967659 21.230469 9.0449219 C 20.987497 9.0122543 20.749155 9.0024363 20.488281 9 C 19.58433 6.4404637 17.559524 4.4156447 15 3.5117188 C 14.997564 3.2508479 14.987745 3.0125015 14.955078 2.7695312 C 14.903234 2.3839299 14.750184 1.9220598 14.414062 1.5859375 C 14.077936 1.2498234 13.616065 1.0967637 13.230469 1.0449219 C 12.844872 0.99308003 12.4714 1 12 1 z M 12 3 C 12.4714 3 12.805815 3.0059598 12.964844 3.0273438 C 12.96719 3.0276592 12.970413 3.02704 12.972656 3.0273438 C 12.97296 3.0295867 12.972341 3.0328098 12.972656 3.0351562 C 12.994037 3.1941825 13 3.528595 13 4 C 13 4.471405 12.993996 4.8058176 12.972656 4.9648438 C 12.972341 4.9671901 12.97296 4.9704134 12.972656 4.9726562 C 12.970412 4.9729601 12.967191 4.9723406 12.964844 4.9726562 C 12.805815 4.9940369 12.4714 5 12 5 C 11.5286 5 11.194185 4.9940369 11.035156 4.9726562 C 11.032809 4.9723406 11.029588 4.9729601 11.027344 4.9726562 C 11.02704 4.9704135 11.027659 4.9671899 11.027344 4.9648438 C 11.005967 4.8058172 11 4.471405 11 4 C 11 3.528595 11.005963 3.1941824 11.027344 3.0351562 C 11.027659 3.03281 11.02704 3.0295865 11.027344 3.0273438 C 11.029588 3.0270399 11.032809 3.0276594 11.035156 3.0273438 C 11.194181 3.0059629 11.5286 3 12 3 z M 9.1269531 5.6152344 C 9.2118563 5.8973526 9.3567116 6.1848366 9.5859375 6.4140625 C 9.9220631 6.7501766 10.383935 6.9032363 10.769531 6.9550781 C 11.155128 7.0069199 11.5286 7 12 7 C 12.4714 7 12.844872 7.0069201 13.230469 6.9550781 C 13.616065 6.9032361 14.077936 6.7501766 14.414062 6.4140625 C 14.643287 6.1848374 14.788144 5.8973517 14.873047 5.6152344 C 16.428866 6.3169219 17.683065 7.571117 18.384766 9.1269531 C 18.102651 9.2118567 17.815161 9.3567146 17.585938 9.5859375 C 17.249816 9.9220597 17.096766 10.383931 17.044922 10.769531 C 16.993078 11.155131 17 11.5286 17 12 C 17 12.4714 16.993102 12.844869 17.044922 13.230469 C 17.096762 13.616069 17.249815 14.07794 17.585938 14.414062 C 17.815161 14.643285 18.102651 14.788143 18.384766 14.873047 C 17.683066 16.428867 16.428867 17.683065 14.873047 18.384766 C 14.788143 18.102653 14.643284 17.81516 14.414062 17.585938 C 14.077937 17.249816 13.616069 17.096766 13.230469 17.044922 C 12.844869 16.993078 12.4714 17 12 17 C 11.5286 17 11.155131 16.993102 10.769531 17.044922 C 10.383931 17.096762 9.9220598 17.249815 9.5859375 17.585938 C 9.3567146 17.815162 9.2118567 18.102651 9.1269531 18.384766 C 7.5711172 17.683065 6.316922 16.428866 5.6152344 14.873047 C 5.8973516 14.788143 6.1848374 14.643287 6.4140625 14.414062 C 6.7501766 14.077936 6.9032363 13.616065 6.9550781 13.230469 C 7.0069199 12.844872 7 12.4714 7 12 C 7 11.5286 7.0069199 11.155128 6.9550781 10.769531 C 6.9032363 10.383935 6.7501766 9.9220631 6.4140625 9.5859375 C 6.1848366 9.3567116 5.8973526 9.2118563 5.6152344 9.1269531 C 6.3169219 7.5711199 7.5711199 6.3169219 9.1269531 5.6152344 z M 4 11 C 4.471405 11 4.8058176 11.006004 4.9648438 11.027344 C 4.96719 11.027659 4.9704134 11.02704 4.9726562 11.027344 C 4.9729601 11.029588 4.9723406 11.032809 4.9726562 11.035156 C 4.9940369 11.194185 5 11.5286 5 12 C 5 12.4714 4.9940369 12.805815 4.9726562 12.964844 C 4.9723408 12.96719 4.97296 12.970413 4.9726562 12.972656 C 4.9704133 12.97296 4.9671902 12.972341 4.9648438 12.972656 C 4.8058175 12.994037 4.471405 13 4 13 C 3.528595 13 3.1941824 12.994037 3.0351562 12.972656 C 3.03281 12.972341 3.0295865 12.97296 3.0273438 12.972656 C 3.0270399 12.970412 3.0276594 12.967191 3.0273438 12.964844 C 3.0059629 12.805819 3 12.4714 3 12 C 3 11.5286 3.0059631 11.194185 3.0273438 11.035156 C 3.0276594 11.032809 3.0270399 11.029588 3.0273438 11.027344 C 3.0295865 11.02704 3.0328101 11.027659 3.0351562 11.027344 C 3.1941827 11.005967 3.528595 11 4 11 z M 20 11 C 20.4714 11 20.805819 11.006004 20.964844 11.027344 C 20.967192 11.02766 20.970411 11.02704 20.972656 11.027344 C 20.97296 11.029589 20.97234 11.032807 20.972656 11.035156 C 20.994029 11.194177 21 11.5286 21 12 C 21 12.4714 20.993996 12.805819 20.972656 12.964844 C 20.972341 12.967191 20.97296 12.970412 20.972656 12.972656 C 20.970411 12.97296 20.967193 12.97234 20.964844 12.972656 C 20.805823 12.994033 20.4714 13 20 13 C 19.5286 13 19.194181 12.993996 19.035156 12.972656 C 19.032809 12.972341 19.029587 12.97296 19.027344 12.972656 C 19.02704 12.970411 19.02766 12.967193 19.027344 12.964844 C 19.005967 12.805823 19 12.4714 19 12 C 19 11.5286 19.006004 11.194181 19.027344 11.035156 C 19.027659 11.032809 19.02704 11.029588 19.027344 11.027344 C 19.029589 11.02704 19.032807 11.02766 19.035156 11.027344 C 19.194177 11.005967 19.5286 11 20 11 z M 12 19 C 12.4714 19 12.805819 19.006004 12.964844 19.027344 C 12.967193 19.02766 12.970411 19.02704 12.972656 19.027344 C 12.97296 19.029589 12.97234 19.032807 12.972656 19.035156 C 12.994029 19.194177 13 19.5286 13 20 C 13 20.4714 12.993996 20.805819 12.972656 20.964844 C 12.972341 20.967191 12.97296 20.970413 12.972656 20.972656 C 12.970411 20.97296 12.967193 20.97234 12.964844 20.972656 C 12.805823 20.994033 12.4714 21 12 21 C 11.5286 21 11.194181 20.993996 11.035156 20.972656 C 11.032809 20.972341 11.029588 20.97296 11.027344 20.972656 C 11.02704 20.970411 11.02766 20.967193 11.027344 20.964844 C 11.005967 20.805823 11 20.4714 11 20 C 11 19.5286 11.006004 19.194181 11.027344 19.035156 C 11.027659 19.032809 11.02704 19.029587 11.027344 19.027344 C 11.029589 19.02704 11.032807 19.02766 11.035156 19.027344 C 11.194177 19.005967 11.5286 19 12 19 z " fill="currentColor"/>
</svg>
