<svg xmlns="http://www.w3.org/2000/svg" width="1em" height="1em" viewBox="0 0 24 24" fill="currentColor">
  <path d="M 12 1 C 5.9367124 1 1 5.9367124 1 12 C 1 18.063288 5.9367124 23 12 23 C 18.063288 23 23 18.063288 23 12 C 23 5.9367124 18.063288 1 12 1 z M 12 3 C 16.982407 3 21 7.0175926 21 12 C 21 16.982407 16.982407 21 12 21 C 7.0175926 21 3 16.982407 3 12 C 3 7.0175926 7.0175926 3 12 3 z M 12.640625 5.0214844 C 12.477949 5.0138805 12.310562 5.0328764 12.148438 5.0761719 C 11.824186 5.1627629 11.521071 5.3460498 11.324219 5.6113281 L 7.3261719 11.001953 C 6.9542376 11.503217 6.921244 12.108742 7.1113281 12.607422 C 7.3014122 13.106102 7.8266007 13.609375 8.5136719 13.609375 L 9.9726562 13.609375 L 9.9726562 17.390625 C 9.9726562 18.019371 10.327489 18.618432 10.896484 18.873047 C 11.46548 19.127662 12.282071 18.919197 12.675781 18.388672 L 16.673828 12.998047 C 17.045753 12.496796 17.07876 11.891275 16.888672 11.392578 C 16.698584 10.893881 16.173372 10.390625 15.486328 10.390625 L 14.027344 10.390625 L 14.027344 6.609375 C 14.027344 5.9806286 13.672502 5.3815987 13.103516 5.1269531 C 12.961269 5.0632917 12.803301 5.0290882 12.640625 5.0214844 z M 12.027344 8.0234375 L 12.027344 10.78125 C 12.027344 11.573294 12.616372 12.390625 13.541016 12.390625 L 14.634766 12.390625 L 11.972656 15.976562 L 11.972656 13.21875 C 11.972656 12.426706 11.383628 11.609375 10.458984 11.609375 L 9.3652344 11.609375 L 12.027344 8.0234375 z " fill="currentColor"/>
</svg>
