<svg xmlns="http://www.w3.org/2000/svg" width="1em" height="1em" viewBox="0 0 24 24" fill="currentColor">
  <path d="M 2 2 A 1 1 0 0 0 1.2929688 2.2929688 A 1 1 0 0 0 1.2929688 3.7070312 L 5.1972656 7.6113281 C 5.0851633 7.6898928 4.9789185 7.778891 4.8789062 7.8789062 C 4.3963249 8.3614795 4.1704858 9.0139599 4.0820312 9.671875 C 4.0275771 10.076899 4.0081273 10.508261 4.0019531 11 L 3 11 L 3 9 A 1 1 0 0 0 2 8 A 1 1 0 0 0 1 9 L 1 15 A 1 1 0 0 0 2 16 A 1 1 0 0 0 3 15 L 3 13 L 4 13 L 4 13.859375 C 4 14.907275 3.963665 15.613752 4.3554688 16.345703 C 4.7471742 17.077637 5.3546119 17.438218 6.2265625 18.019531 L 6.4375 18.160156 C 6.9375907 18.493503 7.2650348 18.728424 7.7363281 18.871094 C 8.2074006 19.013697 8.6098175 19 9.2109375 19 L 12 19 C 12.9428 19 13.670212 19.006399 14.328125 18.917969 C 14.890679 18.84233 15.448602 18.665589 15.900391 18.314453 L 21.292969 23.707031 A 1 1 0 0 0 22.707031 23.707031 A 1 1 0 0 0 22.707031 22.292969 L 16.53125 16.117188 A 1 1 0 0 0 16.46875 16.054688 L 7.7773438 7.3632812 A 1 1 0 0 0 7.7304688 7.3164062 L 2.7070312 2.2929688 A 1 1 0 0 0 2 2 z M 8 4 A 1 1 0 0 0 7 5 A 1 1 0 0 0 8 6 L 9.5 6 L 9.5 8 A 1 1 0 0 0 9.890625 8.7929688 A 1 1 0 0 0 10 8.8652344 A 1 1 0 0 0 10.5 9 L 13 9 C 13.9319 9 14.291179 9.0382219 14.382812 9.0761719 C 14.628167 9.1778139 14.822198 9.3718483 14.923828 9.6171875 C 14.96174 9.7087411 15 10.0681 15 11 A 1.0001 1.0001 0 0 0 16 12 L 19 12 A 1.0001 1.0001 0 0 0 20 11 L 20 9.5 C 20 9.2394649 20.011773 9.0849489 20.015625 9.015625 C 20.084944 9.0117747 20.239462 9 20.5 9 C 20.76054 9 20.915057 9.0117748 20.984375 9.015625 C 20.988227 9.084949 21 9.2394651 21 9.5 L 21 16.5 C 21 16.770538 20.987695 16.926957 20.984375 16.992188 C 20.973473 16.992978 20.960134 16.993418 20.945312 16.994141 A 1 1 0 0 0 19.994141 18.042969 A 1 1 0 0 0 21.042969 18.992188 C 21.261148 18.981478 21.507009 18.954807 21.765625 18.847656 C 22.25531 18.644787 22.644787 18.25531 22.847656 17.765625 C 23.038026 17.305881 23 16.9659 23 16.5 L 23 9.5 C 23 9.03406 23.038057 8.6941649 22.847656 8.234375 C 22.64479 7.7446379 22.255295 7.3551869 21.765625 7.1523438 C 21.305799 6.9619088 20.9659 7 20.5 7 C 20.0341 7 19.694201 6.9619089 19.234375 7.1523438 C 18.744705 7.3551869 18.35521 7.7446379 18.152344 8.234375 C 17.961943 8.6941649 18 9.03406 18 9.5 L 18 10 L 16.894531 10 C 16.873837 9.6308091 16.913946 9.1955955 16.771484 8.8515625 C 16.467115 8.1168017 15.883083 7.5328536 15.148438 7.2285156 C 14.50487 6.9619852 13.9319 7 13 7 L 11.5 7 L 11.5 6 L 14 6 A 1 1 0 0 0 15 5 A 1 1 0 0 0 14 4 L 8 4 z M 6.6894531 9.1035156 L 14.445312 16.859375 C 14.355026 16.887351 14.233572 16.912283 14.060547 16.935547 C 13.62921 16.993539 12.9428 17 12 17 L 9.2109375 17 C 8.6098175 17 8.4121938 16.986031 8.3164062 16.957031 C 8.2208392 16.928101 8.0471243 16.829547 7.546875 16.496094 L 7.3359375 16.355469 C 6.4640281 15.774182 6.2007352 15.55481 6.1191406 15.402344 C 6.0376439 15.250095 6 14.907275 6 13.859375 L 6 12 C 6 11.0572 6.0064601 10.370798 6.0644531 9.9394531 C 6.1224461 9.5081082 6.1897603 9.3961754 6.2929688 9.2929688 C 6.3717571 9.214178 6.4640254 9.1514797 6.6894531 9.1035156 z M 17 13 A 1 1 0 0 0 16 14 A 1 1 0 0 0 17 15 L 18 15 L 18 16 A 1 1 0 0 0 19 17 A 1 1 0 0 0 20 16 L 20 14 A 1.0001 1.0001 0 0 0 19 13 L 17 13 z " fill="currentColor"/>
</svg>
