<svg xmlns="http://www.w3.org/2000/svg" width="1em" height="1em" viewBox="0 0 24 24" fill="currentColor">
  <path d="M 12 2 A 1 1 0 0 0 11 3 L 11 14.765625 L 9.7519531 13.341797 A 1 1 0 0 0 8.3417969 13.248047 A 1 1 0 0 0 8.2480469 14.658203 L 9.9746094 16.630859 C 10.274609 16.973459 10.505902 17.247671 10.791016 17.496094 C 11.076129 17.744517 11.50727 18 12 18 C 12.49273 18 12.923871 17.744517 13.208984 17.496094 C 13.494098 17.247671 13.725391 16.973459 14.025391 16.630859 L 15.751953 14.658203 A 1 1 0 0 0 15.658203 13.248047 A 1 1 0 0 0 14.248047 13.341797 L 13 14.765625 L 13 3 A 1 1 0 0 0 12 2 z M 5.0566406 14.001953 A 1 1 0 0 0 4.5488281 14.107422 C 3.1364233 14.821868 2 15.869749 2 17.316406 C 2 18.155141 2.425473 18.901368 3.0117188 19.46875 C 3.5979645 20.036132 4.3609522 20.478567 5.2578125 20.845703 C 7.0515331 21.579976 9.404102 22 12 22 C 14.595917 22 16.948471 21.579977 18.742188 20.845703 C 19.639046 20.478566 20.402039 20.036132 20.988281 19.46875 C 21.574524 18.901368 22 18.155138 22 17.316406 C 22 15.869749 20.863577 14.821867 19.451172 14.107422 A 1 1 0 0 0 18.107422 14.548828 A 1 1 0 0 0 18.548828 15.892578 C 19.638023 16.443533 20 17.008264 20 17.316406 C 20 17.495024 19.92226 17.717092 19.597656 18.03125 C 19.273055 18.345408 18.716192 18.696518 17.984375 18.996094 C 16.520742 19.595245 14.374683 20 12 20 C 9.625338 20 7.4792644 19.595246 6.015625 18.996094 C 5.2838053 18.696518 4.726948 18.345409 4.4023438 18.03125 C 4.0777395 17.717091 4 17.495021 4 17.316406 C 4 17.008264 4.3619767 16.443533 5.4511719 15.892578 A 1 1 0 0 0 5.8925781 14.548828 A 1 1 0 0 0 5.3125 14.050781 A 1 1 0 0 0 5.0566406 14.001953 z " fill="currentColor"/>
</svg>
