<svg xmlns="http://www.w3.org/2000/svg" width="1em" height="1em" viewBox="0 0 24 24" fill="currentColor">
  <path d="M 6 2 A 1 1 0 0 0 5 3 L 5 8 A 1 1 0 0 0 6 9 A 1 1 0 0 0 7 8 L 7 6.5 L 9 6.5 L 9 9.1347656 C 8.8750914 9.1724122 8.7508855 9.2202227 8.6269531 9.28125 C 8.1150084 9.5333442 7.7526502 9.9569632 7.4335938 10.445312 L 4.421875 15.056641 C 4.2714846 15.286798 4.2430033 15.600298 4.1699219 15.892578 A 1 1 0 0 0 4.0625 16 A 1 1 0 0 0 4.1210938 16.058594 C 4.0954958 16.200084 4 16.320064 4 16.458984 C 4 17.670797 4.2773278 18.702199 5.0644531 19.322266 C 5.6337815 19.77076 6.2849561 19.925529 7 19.976562 L 7 21 A 1 1 0 0 0 8 22 A 1 1 0 0 0 9 21 L 9 20 L 15 20 L 15 21 A 1 1 0 0 0 16 22 A 1 1 0 0 0 17 21 L 17 19.974609 C 17.716112 19.921629 18.363857 19.764585 18.931641 19.316406 C 19.729228 18.686833 20 17.643295 20 16.408203 C 20 16.285064 19.924327 16.173322 19.904297 16.046875 A 1 1 0 0 0 19.951172 16 A 1 1 0 0 0 19.871094 15.919922 C 19.814634 15.65063 19.791214 15.366661 19.667969 15.146484 L 17.130859 10.617188 C 16.824932 10.070858 16.468758 9.5944418 15.929688 9.3105469 C 15.624121 9.1496243 15.316495 9.0708156 15 9.0332031 L 15 6.5 L 17 6.5 L 17 8 A 1 1 0 0 0 18 9 A 1 1 0 0 0 19 8 L 19 3 A 1 1 0 0 0 18 2 A 1 1 0 0 0 17 3 L 17 4.5 L 7 4.5 L 7 3 A 1 1 0 0 0 6 2 z M 3.5 3 A 1 1 0 0 0 2.5 4 L 2.5 4.5 L 2 4.5 A 1 1 0 0 0 1 5.5 A 1 1 0 0 0 2 6.5 L 2.5 6.5 L 2.5 7 A 1 1 0 0 0 3.5 8 A 1 1 0 0 0 4.5 7 L 4.5 5.5 L 4.5 4 A 1 1 0 0 0 3.5 3 z M 20.5 3 A 1 1 0 0 0 19.5 4 L 19.5 5.5 L 19.5 7 A 1 1 0 0 0 20.5 8 A 1 1 0 0 0 21.5 7 L 21.5 6.5 L 22 6.5 A 1 1 0 0 0 23 5.5 A 1 1 0 0 0 22 4.5 L 21.5 4.5 L 21.5 4 A 1 1 0 0 0 20.5 3 z M 11 6.5 L 13 6.5 L 13 9 L 11 9 L 11 6.5 z M 10.207031 11 L 14.255859 11 C 14.751886 11 14.940218 11.049618 14.998047 11.080078 C 15.055877 11.110528 15.158548 11.186281 15.386719 11.59375 L 17.294922 15 L 6.8476562 15 L 9.109375 11.539062 C 9.3443485 11.17941 9.4466208 11.108228 9.5117188 11.076172 C 9.5768166 11.044116 9.7509905 11 10.207031 11 z M 6.1269531 17 L 17.865234 17 C 17.804684 17.251233 17.774244 17.684205 17.693359 17.748047 C 17.548522 17.862374 17.053135 18 16.097656 18 L 16 18 L 8 18 L 7.8476562 18 C 6.926404 18 6.445619 17.864512 6.3027344 17.751953 C 6.2196437 17.686498 6.1865686 17.264212 6.1269531 17 z " fill="currentColor"/>
</svg>
