<svg xmlns="http://www.w3.org/2000/svg" width="1em" height="1em" viewBox="0 0 24 24" fill="currentColor">
  <path d="M 8 1 A 1 1 0 0 0 7 2 L 7 5 L 7 10.541016 C 6.513612 10.605041 6.0569998 10.762822 5.6738281 11.136719 C 5.0981748 11.69844 5 12.455587 5 13.25 C 5 13.873026 5.0502285 14.484613 5.3789062 15.001953 C 5.0620747 15.507716 5 16.11679 5 16.75 C 5 17.373026 5.0502285 17.984613 5.3789062 18.501953 C 5.0620747 19.007716 5 19.61679 5 20.25 C 5 21.009091 5.0750071 21.750518 5.6367188 22.326172 C 6.1984305 22.901826 6.9555769 23 7.75 23 L 16.25 23 C 17.009091 23 17.750518 22.92499 18.326172 22.363281 C 18.901826 21.80157 19 21.044423 19 20.25 C 19 19.626975 18.94977 19.015387 18.621094 18.498047 C 18.937924 17.992289 19 17.383217 19 16.75 C 19 16.126975 18.94977 15.515387 18.621094 14.998047 C 18.937924 14.492289 19 13.883217 19 13.25 C 19 12.490909 18.924993 11.749482 18.363281 11.173828 C 17.982308 10.783398 17.511432 10.612452 17 10.542969 L 17 5 L 17 2 A 1 1 0 0 0 16 1 A 1 1 0 0 0 15 2 L 15 4 L 9 4 L 9 2 A 1 1 0 0 0 8 1 z M 5.4941406 4 C 4.7970416 4.0044741 4.2326947 4.020681 3.6621094 4.2949219 C 2.9816314 4.6219887 2.6076781 5.13738 2.0175781 5.875 L 1.21875 6.875 A 1 1 0 0 0 1.375 8.2792969 A 1 1 0 0 0 2.78125 8.1230469 L 3.5800781 7.125 C 4.1701781 6.38738 4.3864218 6.1653894 4.5273438 6.0976562 C 4.6454784 6.0408772 4.8567784 6.0041659 5.5058594 6 A 1 1 0 0 0 6.5 4.9941406 A 1 1 0 0 0 5.4941406 4 z M 18.505859 4 A 1 1 0 0 0 17.5 4.9941406 A 1 1 0 0 0 18.494141 6 C 19.143232 6.00417 19.354658 6.0409332 19.472656 6.0976562 C 19.613607 6.1654032 19.829839 6.3874015 20.419922 7.125 L 21.21875 8.1230469 A 1 1 0 0 0 22.625 8.2792969 A 1 1 0 0 0 22.78125 6.875 L 21.982422 5.875 C 21.392305 5.1373585 21.01834 4.621975 20.337891 4.2949219 C 19.767288 4.0206251 19.202968 4.0044741 18.505859 4 z M 9 6 L 15 6 L 15 10.5 L 9 10.5 L 9 6 z M 7.75 12.5 L 8 12.5 L 16 12.5 L 16.25 12.5 C 16.706572 12.5 16.883029 12.560829 16.925781 12.574219 C 16.937476 12.616685 17 12.799527 17 13.25 C 17 13.706572 16.939171 13.883029 16.925781 13.925781 C 16.883315 13.937476 16.700473 14 16.25 14 L 7.75 14 C 7.2934282 14 7.1169712 13.939172 7.0742188 13.925781 C 7.0625234 13.883316 7 13.700473 7 13.25 C 7 12.793445 7.060825 12.61698 7.0742188 12.574219 C 7.1166926 12.56252 7.2995397 12.5 7.75 12.5 z M 7.75 16 L 16.25 16 C 16.706572 16 16.883029 16.060829 16.925781 16.074219 C 16.937476 16.116685 17 16.299527 17 16.75 C 17 17.206572 16.939171 17.383029 16.925781 17.425781 C 16.883315 17.437476 16.700473 17.5 16.25 17.5 L 7.75 17.5 C 7.2934282 17.5 7.1169712 17.439172 7.0742188 17.425781 C 7.0625235 17.383316 7 17.200473 7 16.75 C 7 16.293445 7.060825 16.11698 7.0742188 16.074219 C 7.1166926 16.06252 7.2995397 16 7.75 16 z M 7.75 19.5 L 16.25 19.5 C 16.706572 19.5 16.883029 19.560829 16.925781 19.574219 C 16.937476 19.616685 17 19.799527 17 20.25 C 17 20.706572 16.939171 20.883029 16.925781 20.925781 C 16.883315 20.937476 16.700473 21 16.25 21 L 7.75 21 C 7.2934282 21 7.1169712 20.939172 7.0742188 20.925781 C 7.0625235 20.883316 7 20.700473 7 20.25 C 7 19.793445 7.060825 19.61698 7.0742188 19.574219 C 7.1166926 19.56252 7.2995397 19.5 7.75 19.5 z " fill="currentColor"/>
</svg>
