<svg xmlns="http://www.w3.org/2000/svg" width="1em" height="1em" viewBox="0 0 24 24" fill="currentColor">
  <path d="M 10 3 C 8.11438 3 6.6810556 2.994573 5.4785156 3.15625 C 4.2759756 3.317927 3.240311 3.689383 2.4648438 4.4648438 C 1.689383 5.2403112 1.317927 6.2759756 1.15625 7.4785156 C 0.99457301 8.6810556 1 10.11438 1 12 C 1 13.8856 0.994573 15.318937 1.15625 16.521484 C 1.3179268 17.724031 1.6893545 18.759713 2.4648438 19.535156 C 3.2403087 20.310634 4.2759729 20.682068 5.4785156 20.84375 C 6.6810584 21.005432 8.11438 21 10 21 L 13 21 C 14.9628 21 16.114554 21.03354 17.236328 20.472656 C 18.357939 19.911784 19.021504 18.97071 20.199219 17.400391 C 21.065868 16.244842 21.732541 15.365679 22.214844 14.537109 C 22.697147 13.70854 23 12.88333 23 12 C 23 11.11667 22.697146 10.291459 22.214844 9.4628906 C 21.732541 8.6343227 21.065867 7.7551626 20.199219 6.5996094 C 19.021511 5.0293185 18.35797 4.0882177 17.236328 3.5273438 C 16.114556 2.9664711 14.9628 3 13 3 L 10 3 z M 10 5 L 13 5 C 14.9628 5 15.774369 5.032699 16.341797 5.3164062 C 16.909155 5.6001123 17.421918 6.2305121 18.599609 7.8007812 C 19.466261 8.956338 20.101956 9.8103736 20.486328 10.470703 C 20.870701 11.131033 21 11.55003 21 12 C 21 12.44997 20.8707 12.868966 20.486328 13.529297 C 20.101956 14.189627 19.46626 15.043668 18.599609 16.199219 C 17.421924 17.7695 16.909186 18.399866 16.341797 18.683594 C 15.774371 18.967307 14.9628 19 13 19 L 10 19 C 8.11438 19 6.7201079 18.9945 5.7441406 18.863281 C 4.7681734 18.732063 4.2750213 18.517216 3.8789062 18.121094 C 3.4828254 17.725037 3.2679343 17.231837 3.1367188 16.255859 C 3.005503 15.279881 3 13.8856 3 12 C 3 10.11438 3.0055032 8.7201106 3.1367188 7.7441406 C 3.2679342 6.7681706 3.4827969 6.2750189 3.8789062 5.8789062 C 4.2750189 5.482797 4.7681706 5.2679344 5.7441406 5.1367188 C 6.7201106 5.0055032 8.11438 5 10 5 z M 11 7 A 1 1 0 0 0 10 8 L 10 11 L 7 11 A 1 1 0 0 0 6 12 A 1 1 0 0 0 7 13 L 10 13 L 10 16 A 1 1 0 0 0 11 17 A 1 1 0 0 0 12 16 L 12 13 L 15 13 A 1 1 0 0 0 16 12 A 1 1 0 0 0 15 11 L 12 11 L 12 8 A 1 1 0 0 0 11 7 z " fill="currentColor"/>
</svg>
