<svg xmlns="http://www.w3.org/2000/svg" width="1em" height="1em" viewBox="0 0 24 24" fill="currentColor">
  <path d="M 8.2949219 1 C 7.0470869 1 6.0935626 0.99525581 5.2695312 1.0957031 C 4.4454999 1.1961505 3.6889431 1.4321021 3.1035156 1.9628906 C 2.5180873 2.4936807 2.2227574 3.2417471 2.1074219 4.0195312 C 1.9920863 4.7973154 2 5.6694112 2 6.8007812 L 2 13.199219 C 2 14.330569 1.99209 15.202679 2.1074219 15.980469 C 2.2227566 16.758258 2.5181011 17.506294 3.1035156 18.037109 C 3.6889471 18.567871 4.4455055 18.803856 5.2695312 18.904297 C 6.0935571 19.004738 7.0470869 19 8.2949219 19 L 12.705078 19 A 1 1 0 0 0 13.705078 18 A 1 1 0 0 0 12.705078 17 L 8.2949219 17 C 7.0470869 17 6.1274024 16.995202 5.5097656 16.919922 C 4.8921289 16.844642 4.6371342 16.728779 4.4472656 16.556641 C 4.2573701 16.384458 4.1644302 16.216836 4.0859375 15.6875 C 4.0074448 15.158164 4 14.330569 4 13.199219 L 4 6.8007812 C 4 5.6694113 4.0074456 4.8418233 4.0859375 4.3125 C 4.1644294 3.7831767 4.2573839 3.6155193 4.4472656 3.4433594 C 4.6371382 3.2712079 4.8921345 3.1553658 5.5097656 3.0800781 C 6.1273967 3.0047905 7.0470869 3 8.2949219 3 L 12.705078 3 C 13.952928 3 14.872611 3.0047901 15.490234 3.0800781 C 16.107858 3.1553651 16.362855 3.2712022 16.552734 3.4433594 C 16.742612 3.6155179 16.835572 3.7831752 16.914062 4.3125 C 16.992554 4.8418248 17 5.6694114 17 6.8007812 L 17 8.7558594 A 1 1 0 0 0 18 9.7558594 A 1 1 0 0 0 19 8.7558594 L 19 6.8007812 C 19 5.6694113 19.0079 4.797314 18.892578 4.0195312 C 18.777244 3.2417486 18.481907 2.4936822 17.896484 1.9628906 C 17.311063 1.4321078 16.556448 1.1961507 15.732422 1.0957031 C 14.908395 0.99525553 13.952928 1 12.705078 1 L 8.2949219 1 z M 6 5 A 1 1 0 0 0 5 6 A 1 1 0 0 0 6 7 L 15 7 A 1 1 0 0 0 16 6 A 1 1 0 0 0 15 5 L 6 5 z M 6 9 A 1 1 0 0 0 5 10 A 1 1 0 0 0 6 11 L 7 11 A 1 1 0 0 0 8 10 A 1 1 0 0 0 7 9 L 6 9 z M 10 9 A 1 1 0 0 0 9 10 A 1 1 0 0 0 10 11 L 11 11 A 1 1 0 0 0 12 10 A 1 1 0 0 0 11 9 L 10 9 z M 14 9 A 1 1 0 0 0 13 10 A 1 1 0 0 0 14 11 L 15 11 A 1 1 0 0 0 16 10 A 1 1 0 0 0 15 9 L 14 9 z M 17.994141 11 A 1 1 0 0 0 16.994141 12 L 16.994141 12.757812 C 15.633398 13.044944 14.665725 13.647654 14.375 14.464844 C 14.16773 14.992123 14.051018 15.756958 14.501953 16.519531 C 14.961411 17.296516 15.939086 17.766138 17.263672 17.810547 C 18.573245 17.854437 19.45372 18.005547 19.777344 18.160156 C 19.939156 18.237456 19.949836 18.272306 19.964844 18.300781 C 19.979854 18.329261 20.014837 18.413708 19.992188 18.654297 C 19.954657 19.052714 19.874586 19.091002 19.535156 19.242188 C 19.20737 19.388186 18.644255 19.465996 18.103516 19.505859 C 17.573718 19.487399 17.018618 19.418819 16.634766 19.267578 C 16.239152 19.111699 16.057607 18.958666 15.949219 18.632812 A 1 1 0 0 0 14.683594 18 A 1 1 0 0 0 14.050781 19.265625 C 14.367593 20.218072 15.143455 20.83066 15.900391 21.128906 C 16.280879 21.278826 16.629612 21.26573 17.001953 21.322266 L 17.001953 22 A 1 1 0 0 0 18.001953 23 A 1 1 0 0 0 19.001953 22 L 19.001953 21.345703 C 19.44672 21.288233 19.871674 21.283193 20.349609 21.070312 C 21.116354 20.728798 21.882502 19.923379 21.984375 18.841797 C 22.031375 18.342386 21.976475 17.826471 21.734375 17.367188 C 21.492308 16.907904 21.07946 16.566052 20.638672 16.355469 C 19.757096 15.934303 18.722558 15.859107 17.332031 15.8125 C 16.395717 15.781109 16.254523 15.55389 16.222656 15.5 C 16.190786 15.44611 16.200425 15.267076 16.234375 15.183594 A 1.0001 1.0001 0 0 0 16.25 15.144531 C 16.249639 15.145859 16.250148 15.149481 16.25 15.150391 L 16.25 15.152344 L 16.251953 15.152344 L 16.251953 15.150391 L 16.253906 15.150391 L 16.255859 15.148438 C 16.312269 15.093282 16.755149 14.494141 18.121094 14.494141 C 19.389142 14.494141 19.61795 14.971807 19.775391 15.371094 A 1 1 0 0 0 21.072266 15.935547 A 1 1 0 0 0 21.636719 14.636719 C 21.318716 13.830233 20.3431 13.068416 18.994141 12.755859 L 18.994141 12 A 1 1 0 0 0 17.994141 11 z M 6 13 A 1 1 0 0 0 5 14 A 1 1 0 0 0 6 15 L 7 15 A 1 1 0 0 0 8 14 A 1 1 0 0 0 7 13 L 6 13 z M 10 13 A 1 1 0 0 0 9 14 A 1 1 0 0 0 10 15 L 11 15 A 1 1 0 0 0 12 14 A 1 1 0 0 0 11 13 L 10 13 z " fill="currentColor"/>
</svg>
