<svg xmlns="http://www.w3.org/2000/svg" width="1em" height="1em" viewBox="0 0 24 24" fill="currentColor">
  <path d="M 8 1 C 6.82149 1 5.9171164 0.99284996 5.1230469 1.0996094 C 4.3289773 1.2063688 3.5811884 1.4696004 3.0253906 2.0253906 C 2.4696004 2.5811884 2.2063688 3.3289773 2.0996094 4.1230469 C 1.99285 4.9171164 2 5.82149 2 7 L 2 21 A 1 1 0 0 0 1 22 A 1 1 0 0 0 2 23 L 17 23 A 1 1 0 0 0 18 22 A 1 1 0 0 0 17 21 L 17 18.992188 C 17.225035 18.982769 17.423165 18.962984 17.628906 18.923828 C 19.356937 18.594333 20.715938 17.234277 20.947266 15.513672 C 21.137111 14.102488 20.817219 12.734259 20.59375 11.583984 C 20.830529 11.391758 21.021643 11.140022 21.140625 10.845703 L 21.785156 9.2539062 L 21.890625 9.2011719 C 22.159616 9.0681259 22.50124 8.9517982 22.773438 8.515625 C 23.045704 8.0799257 23 7.7174319 23 7.4199219 L 23 6.7265625 C 23 6.4046825 23.005503 6.1493743 22.970703 5.8632812 C 22.935931 5.5771882 22.832508 5.1549366 22.472656 4.8496094 C 22.306923 4.7092006 22.111237 4.6069304 21.902344 4.5488281 C 21.449774 4.4229349 21.048517 4.5684081 20.791016 4.6972656 C 20.533514 4.8261228 20.321519 4.9718484 20.050781 5.1503906 C 19.356215 5.6085582 18.881846 5.8900763 18.509766 6.4394531 C 18.399191 6.6027269 18.304765 6.7767116 18.228516 6.9589844 C 17.972449 7.5712191 18 8.1212456 18 8.9472656 L 18 10.580078 C 18 11.042142 18.229775 11.456754 18.578125 11.716797 C 18.799266 13.019246 19.09368 14.288412 18.964844 15.246094 C 18.852771 16.079688 18.187829 16.78128 17.255859 16.958984 C 17.197811 16.970059 17.116288 16.978124 17 16.984375 L 17 7 C 17 5.82149 17.007145 4.917112 16.900391 4.1230469 C 16.793636 3.3289817 16.530381 2.5811923 15.974609 2.0253906 C 15.418791 1.4696253 14.671023 1.2063685 13.876953 1.0996094 C 13.082883 0.99285024 12.1785 1 11 1 L 8 1 z M 8 3 L 11 3 C 12.1785 3 13.04187 3.0057302 13.609375 3.0820312 C 14.17688 3.1583292 14.384065 3.2629884 14.560547 3.4394531 C 14.736976 3.6158914 14.841673 3.8231202 14.917969 4.390625 C 14.994264 4.9581301 15 5.82149 15 7 L 15 10 L 4 10 L 4 7 C 4 5.82149 4.0057331 4.9581254 4.0820312 4.390625 C 4.1583295 3.8231246 4.2630134 3.6158953 4.4394531 3.4394531 C 4.6158953 3.2630134 4.8231246 3.1583294 5.390625 3.0820312 C 5.9581254 3.005733 6.82149 3 8 3 z M 21 6.9355469 L 21 7.4101562 L 20.556641 7.6308594 A 1.0001 1.0001 0 0 0 20.072266 8.1523438 L 20.044922 8.2226562 C 20.056982 8.0977928 20.054819 7.7768219 20.074219 7.7304688 C 20.098969 7.6713017 20.129586 7.6143331 20.166016 7.5605469 C 20.225615 7.4725525 20.530456 7.2535436 21 6.9355469 z M 4 12 L 15 12 L 15 21 L 4 21 L 4 12 z M 10.257812 13 A 1 1 0 0 0 9.5488281 13.287109 L 7.6015625 15.205078 A 1.0001 1.0001 0 0 0 7.5703125 15.238281 C 7.4515673 15.366576 7.3478802 15.461054 7.2109375 15.669922 C 7.1424665 15.774356 7.0496814 15.918953 7.0117188 16.171875 C 6.9737557 16.424797 7.0620457 16.786964 7.21875 16.998047 C 7.5325259 17.420282 7.9279913 17.459784 8.140625 17.482422 C 8.3532587 17.505062 8.5242011 17.5 8.7382812 17.5 L 8.8398438 17.5 L 8.0371094 18.285156 A 1 1 0 0 0 8.0234375 19.699219 A 1 1 0 0 0 9.4375 19.714844 L 11.394531 17.796875 A 1.0001 1.0001 0 0 0 11.429688 17.761719 C 11.54846 17.633393 11.652112 17.539034 11.789062 17.330078 C 11.857532 17.2256 11.950395 17.081093 11.988281 16.828125 C 12.026171 16.575157 11.937941 16.212937 11.78125 16.001953 C 11.467476 15.579321 11.072017 15.540217 10.859375 15.517578 C 10.646733 15.49494 10.475819 15.5 10.261719 15.5 L 10.152344 15.5 L 10.951172 14.712891 A 1 1 0 0 0 10.962891 13.298828 A 1 1 0 0 0 10.257812 13 z " fill="currentColor"/>
</svg>
