<svg xmlns="http://www.w3.org/2000/svg" width="1em" height="1em" viewBox="0 0 24 24" fill="currentColor">
  <path d="M 12 1 C 11.248073 1 10.511971 1.07633 9.8007812 1.2207031 A 1 1 0 0 0 9.0195312 2.3984375 A 1 1 0 0 0 10.199219 3.1796875 C 10.780429 3.0617005 11.382127 3 12 3 C 16.982356 3 21 7.0175956 21 12 C 21 14.146872 20.253514 16.109433 19.003906 17.654297 C 19.001222 17.459597 19 17.241462 19 17 L 19 16 A 1 1 0 0 0 18 15 A 1 1 0 0 0 17 16 L 17 17 C 17 17.7071 16.994303 18.25755 17.064453 18.779297 C 17.134593 19.301044 17.323143 19.858206 17.732422 20.267578 C 18.141794 20.676857 18.698956 20.865407 19.220703 20.935547 C 19.742453 21.005687 20.2929 21 21 21 L 22 21 A 1 1 0 0 0 23 20 A 1 1 0 0 0 22 19 L 21 19 C 20.815172 19 20.643848 18.999482 20.486328 18.998047 C 22.055859 17.096089 23 14.653519 23 12 C 23 5.9367044 18.063244 1 12 1 z M 2 3 A 1 1 0 0 0 1 4 A 1 1 0 0 0 2 5 L 3 5 C 3.1849035 5 3.3560985 5.0005174 3.5136719 5.0019531 C 1.9442662 6.9041619 1 9.3468048 1 12 C 1 18.063244 5.9367044 23 12 23 C 12.751966 23 13.488144 22.92356 14.199219 22.779297 A 1 1 0 0 0 14.980469 21.601562 A 1 1 0 0 0 13.800781 20.820312 C 13.219456 20.938251 12.617834 21 12 21 C 7.0175956 21 3 16.982356 3 12 C 3 9.8529849 3.7464552 7.8903423 4.9960938 6.3457031 C 4.9987798 6.5404455 5 6.7584697 5 7 L 5 8 A 1 1 0 0 0 6 9 A 1 1 0 0 0 7 8 L 7 7 C 7 6.292895 7.0056951 5.7424594 6.9355469 5.2207031 C 6.8653986 4.6989468 6.6769274 4.1417712 6.2675781 3.7324219 C 5.8582288 3.3230726 5.3010532 3.1346014 4.7792969 3.0644531 C 4.2575406 2.9943049 3.707105 3 3 3 L 2 3 z M 12 5 A 1 1 0 0 0 11 6 L 11 7 C 9.3549904 7 8 8.3549904 8 10 C 8 11.645025 9.3550085 13 11 13 L 11 15 L 9 15 A 1 1 0 0 0 8 16 A 1 1 0 0 0 9 17 L 11 17 L 11 18 A 1 1 0 0 0 12 19 A 1 1 0 0 0 13 18 L 13 17 C 14.645007 17 16 15.645007 16 14 C 16 12.354993 14.645007 11 13 11 L 13 9 L 15 9 A 1 1 0 0 0 16 8 A 1 1 0 0 0 15 7 L 13 7 L 13 6 A 1 1 0 0 0 12 5 z M 11 9 L 11 11 C 10.435851 11 10 10.564175 10 10 C 10 9.4358696 10.43587 9 11 9 z M 13 13 C 13.564193 13 14 13.435807 14 14 C 14 14.564193 13.564193 15 13 15 L 13 13 z " fill="currentColor"/>
</svg>
