<svg xmlns="http://www.w3.org/2000/svg" width="1em" height="1em" viewBox="0 0 24 24" fill="currentColor">
  <path d="M 5.5 1 A 1 1 0 0 0 4.5 2 L 4.5 2.5664062 C 4.0280644 2.6907014 3.5069486 2.7193976 3.1328125 3 C 2.4850805 3.4857994 2 4.2469396 2 5.125 C 2 6.0030604 2.4850805 6.7642006 3.1328125 7.25 C 3.7805445 7.7357994 4.6069787 8 5.5 8 C 5.9876887 8 6.4108782 8.1567913 6.6679688 8.3496094 C 6.9250593 8.5424275 7 8.7175304 7 8.875 C 7 9.0324696 6.9250593 9.2075725 6.6679688 9.4003906 C 6.4108782 9.5932087 5.9876887 9.75 5.5 9.75 C 4.7310577 9.75 4.1728754 9.3415656 4.046875 9.0742188 A 1 1 0 0 0 2.7167969 8.5957031 A 1 1 0 0 0 2.2382812 9.9257812 C 2.6549064 10.809775 3.5270496 11.271599 4.5 11.509766 L 4.5 12 A 1 1 0 0 0 5.5 13 A 1 1 0 0 0 6.5 12 L 6.5 11.433594 C 6.9719356 11.309298 7.4930514 11.280602 7.8671875 11 C 8.5149195 10.514201 9 9.7530604 9 8.875 C 9 7.9969396 8.5149195 7.2357994 7.8671875 6.75 C 7.2194555 6.2642006 6.3930213 6 5.5 6 C 5.0123113 6 4.5891218 5.8432087 4.3320312 5.6503906 C 4.0749407 5.4575725 4 5.2824696 4 5.125 C 4 4.9675304 4.0749407 4.7924275 4.3320312 4.5996094 C 4.5891218 4.4067913 5.0123113 4.25 5.5 4.25 C 6.268973 4.25 6.8271158 4.6583973 6.953125 4.9257812 A 1 1 0 0 0 8.2832031 5.4042969 A 1 1 0 0 0 8.7617188 4.0742188 C 8.3450999 3.1901786 7.4729518 2.7283926 6.5 2.4902344 L 6.5 2 A 1 1 0 0 0 5.5 1 z M 11 4 A 1 1 0 0 0 10 5 A 1 1 0 0 0 11 6 C 12.4142 6 13.707927 6.0029301 14.699219 6.0957031 C 15.69051 6.1884741 16.347165 6.4462887 16.449219 6.5390625 C 16.760838 6.8223465 16.820734 6.9276882 16.904297 7.40625 C 16.934747 7.5806675 16.925233 8.0788928 16.939453 8.3515625 L 16.447266 8.1054688 A 1 1 0 0 0 15.105469 8.5527344 A 1 1 0 0 0 15.552734 9.8945312 L 17.552734 10.894531 A 1.0001 1.0001 0 0 0 19 10 C 19 8.71435 19.011112 7.8420132 18.875 7.0625 C 18.738888 6.2829868 18.362002 5.5741097 17.794922 5.0585938 C 17.018275 4.3525675 16.027349 4.210445 14.884766 4.1035156 C 13.742182 3.9965863 12.4142 4 11 4 z M 18 12 A 1 1 0 0 0 17 13 L 17 13.5 L 16.125 13.5 L 15 13.5 A 1 1 0 0 0 14 14.5 A 1 1 0 0 0 15 15.5 L 15.125 15.5 L 15.125 17.5 L 15.125 19.5 L 15 19.5 A 1 1 0 0 0 14 20.5 A 1 1 0 0 0 15 21.5 L 16.125 21.5 L 17 21.5 L 17 22 A 1 1 0 0 0 18 23 A 1 1 0 0 0 19 22 L 19 21.5 L 19.875 21.5 C 21.03678 21.5 22 20.53678 22 19.375 L 22 18.625 C 22 18.188782 21.760411 17.839755 21.529297 17.5 C 21.760411 17.160245 22 16.811218 22 16.375 L 22 15.625 C 22 14.46322 21.03678 13.5 19.875 13.5 L 19 13.5 L 19 13 A 1 1 0 0 0 18 12 z M 5.0566406 14.001953 A 1.0001 1.0001 0 0 0 4 15 C 4 16.28565 3.988891 17.15799 4.125 17.9375 C 4.2611087 18.71701 4.6380087 19.425889 5.2050781 19.941406 C 5.981721 20.647445 6.9726473 20.789555 8.1152344 20.896484 C 9.2578215 21.003414 10.585785 21 12 21 A 1 1 0 0 0 13 20 A 1 1 0 0 0 12 19 C 10.585785 19 9.2920766 18.997097 8.3007812 18.904297 C 7.3094858 18.811523 6.6528184 18.5537 6.5507812 18.460938 C 6.2391707 18.177656 6.1792644 18.072315 6.0957031 17.59375 C 6.0652482 17.419331 6.0747675 16.921108 6.0605469 16.648438 L 6.5527344 16.894531 A 1 1 0 0 0 7.8945312 16.447266 A 1 1 0 0 0 7.4472656 15.105469 L 5.4472656 14.105469 A 1.0001 1.0001 0 0 0 5.0566406 14.001953 z M 17.125 15.5 L 18 15.5 L 19.875 15.5 C 19.95582 15.5 20 15.54418 20 15.625 L 20 16.375 C 20 16.45582 19.95582 16.5 19.875 16.5 L 17.125 16.5 L 17.125 15.5 z M 17.125 18.5 L 19.875 18.5 C 19.95582 18.5 20 18.54418 20 18.625 L 20 19.375 C 20 19.45582 19.95582 19.5 19.875 19.5 L 18 19.5 L 17.125 19.5 L 17.125 18.5 z " fill="currentColor"/>
</svg>
