<svg xmlns="http://www.w3.org/2000/svg" width="1em" height="1em" viewBox="0 0 24 24" fill="currentColor">
  <path d="M 12 2 C 5.8735969 2 1.2558594 7.3320312 1.2558594 7.3320312 A 1 1 0 0 0 1.3320312 8.7441406 A 1 1 0 0 0 2.7441406 8.6679688 C 2.7441404 8.667969 7.0807031 4 12 4 C 16.919241 4 21.255859 8.6679688 21.255859 8.6679688 A 1 1 0 0 0 22.667969 8.7441406 A 1 1 0 0 0 22.744141 7.3320312 C 22.744143 7.3320311 18.126359 2 12 2 z M 12 6 C 6.723703 6 3.0814925 10.447081 1.6425781 12.464844 C 1.4905509 12.678011 1.3536431 12.857411 1.2265625 13.101562 C 1.0994819 13.345712 1 13.681648 1 14 C 1 14.318352 1.099482 14.654286 1.2265625 14.898438 C 1.3536431 15.142587 1.4905509 15.321989 1.6425781 15.535156 C 3.0814925 17.552919 6.723703 22 12 22 C 17.27628 22 20.918476 17.552903 22.357422 15.535156 C 22.509433 15.321991 22.64637 15.142582 22.773438 14.898438 C 22.900505 14.654291 23 14.318342 23 14 C 23 13.681658 22.900505 13.345707 22.773438 13.101562 C 22.64637 12.857416 22.509433 12.678009 22.357422 12.464844 C 20.918476 10.447097 17.27628 6 12 6 z M 12 8 C 16.10212 8 19.437214 11.811547 20.730469 13.625 C 20.872713 13.824469 20.949089 13.944291 20.980469 14 C 20.949089 14.05571 20.872713 14.175531 20.730469 14.375 C 19.437214 16.188453 16.10212 20 12 20 C 7.897857 20 4.5627368 16.188438 3.2695312 14.375 C 3.1272745 14.175533 3.0509111 14.055705 3.0195312 14 C 3.0509112 13.9443 3.1272746 13.824467 3.2695312 13.625 C 4.5627369 11.811562 7.897857 8 12 8 z M 12 10 C 9.8026932 10 8 11.802693 8 14 C 8 16.197307 9.8026932 18 12 18 C 14.197307 18 16 16.197307 16 14 C 16 11.802693 14.197307 10 12 10 z M 12 12 C 13.116493 12 14 12.883507 14 14 C 14 15.116493 13.116493 16 12 16 C 10.883507 16 10 15.116493 10 14 C 10 12.883507 10.883507 12 12 12 z " fill="currentColor"/>
</svg>
