<svg xmlns="http://www.w3.org/2000/svg" width="1em" height="1em" viewBox="0 0 24 24" fill="currentColor">
  <path d="M 5.9570312 2 C 5.1725786 2 4.4487782 2.0591209 3.8554688 2.578125 C 3.2621592 3.0971291 3.112053 3.8078564 3.0136719 4.5742188 L 1.0644531 19.746094 C 1.030778 20.008445 0.99634749 20.223737 1 20.498047 C 1.00365 20.772356 1.088719 21.192337 1.359375 21.496094 C 1.6298473 21.799824 2.0319151 21.931134 2.3027344 21.96875 C 2.5735537 22.006366 2.7931969 22 3.0605469 22 L 10 22 A 1.0001 1.0001 0 0 0 10.080078 21.996094 A 1 1 0 0 0 10.154297 22 L 21 22 C 21.2357 22 21.432237 22.006196 21.681641 21.972656 C 21.931044 21.939136 22.297625 21.82329 22.560547 21.560547 C 22.82329 21.297625 22.939137 20.931044 22.972656 20.681641 C 23.006176 20.432233 23 20.2357 23 20 L 23 7 A 1.0001 1.0001 0 0 0 22.423828 6.09375 A 1.0001 1.0001 0 0 0 21.359375 6.2324219 L 17 9.8652344 L 17 7 A 1.0001 1.0001 0 0 0 15.412109 6.1914062 L 10.962891 9.4257812 C 10.441358 9.805132 10.260549 9.9178714 10.158203 9.9511719 C 10.080781 9.9763374 9.9397138 9.9922249 9.5957031 9.9980469 L 8.9003906 4.5742188 C 8.802015 3.8078557 8.6499501 3.0971314 8.0566406 2.578125 C 7.4633311 2.0591186 6.7414839 2 5.9570312 2 z M 5.9570312 4 C 6.5242427 4 6.7153431 4.077859 6.7382812 4.0839844 C 6.7471548 4.105398 6.8453898 4.2779371 6.9160156 4.828125 L 6.9375 5 L 4.9746094 5 L 4.9960938 4.828125 C 5.0667037 4.2780928 5.1649063 4.1054793 5.1738281 4.0839844 C 5.1967675 4.0780039 5.3892116 4 5.9570312 4 z M 4.7167969 7 L 7.1953125 7 L 8.8632812 20 L 3.0605469 20 C 3.0540869 20 3.0551871 20.000008 3.0488281 20 L 4.7167969 7 z M 15 8.9628906 L 15 9.8652344 C 15 10.327054 14.991805 10.685496 15.046875 11.064453 C 15.074395 11.253932 15.115255 11.458143 15.236328 11.6875 C 15.3574 11.916857 15.592807 12.164281 15.863281 12.291016 C 16.133803 12.417679 16.474822 12.440535 16.728516 12.386719 C 16.982209 12.332909 17.164942 12.234916 17.328125 12.134766 C 17.65449 11.934465 17.926439 11.698003 18.28125 11.402344 L 21 9.1347656 L 21 20 L 10.880859 20 L 9.8535156 11.996094 C 10.180383 11.986453 10.465305 11.95494 10.777344 11.853516 C 11.277998 11.690616 11.618957 11.422418 12.140625 11.042969 L 15 8.9628906 z M 12 14 A 1 1 0 0 0 11 15 A 1 1 0 0 0 12 16 L 14 16 A 1 1 0 0 0 15 15 A 1 1 0 0 0 14 14 L 12 14 z M 17 14 A 1 1 0 0 0 16 15 A 1 1 0 0 0 17 16 L 19 16 A 1 1 0 0 0 20 15 A 1 1 0 0 0 19 14 L 17 14 z " fill="currentColor"/>
</svg>
