<svg xmlns="http://www.w3.org/2000/svg" width="1em" height="1em" viewBox="0 0 24 24" fill="currentColor">
  <path d="M 20.083984 2 C 19.008785 2 18.055286 2.667251 17.361328 3.6523438 C 17.116727 3.989013 16.973852 4.0001066 16.978516 4 L 16.976562 4 L 16.974609 4 C 16.956588 3.9994573 16.86013 3.9796652 16.65625 3.6894531 A 1.0001 1.0001 0 0 0 16.652344 3.6835938 C 15.949794 2.7009611 14.995948 2.0371094 13.919922 2.0371094 C 12.843896 2.0371094 11.890049 2.700961 11.1875 3.6835938 A 1 1 0 0 0 11.417969 5.078125 A 1 1 0 0 0 12.8125 4.8457031 C 13.280351 4.1913357 13.662048 4.0371094 13.919922 4.0371094 C 14.177796 4.0371094 14.55754 4.1913357 15.025391 4.8457031 C 15.498113 5.5151072 16.210235 6.0186436 17.025391 6 C 17.843343 5.981293 18.515718 5.4718732 18.990234 4.8125 A 1.0001 1.0001 0 0 0 18.996094 4.8027344 C 19.455296 4.1508315 19.829583 4 20.083984 4 C 20.338385 4 20.719649 4.1542264 21.1875 4.8085938 A 1 1 0 0 0 22.582031 5.0410156 A 1 1 0 0 0 22.8125 3.6464844 C 22.109951 2.6638518 21.159183 2 20.083984 2 z M 5.5 7 A 1.0001 1.0001 0 0 0 4.5 8 C 4.5 13.515361 3.6464552 17.218469 2.3710938 20 L 2 20 A 1 1 0 0 0 1 21 A 1 1 0 0 0 2 22 L 2.9824219 22 L 3.0175781 22 L 14.982422 22 L 15.017578 22 L 21 22 A 1 1 0 0 0 22 21 A 1 1 0 0 0 21 20 L 20.304688 20 C 17.343015 16.596249 17.549958 13.9467 17.400391 11.994141 A 1.0001 1.0001 0 0 0 16.404297 11.072266 L 13.597656 11.072266 C 13.533927 10.114721 13.5 9.0929434 13.5 8 A 1.0001 1.0001 0 0 0 12.5 7 L 5.5 7 z M 6.4101562 9 L 11.589844 9 C 11.614118 10.103279 11.770875 10.95906 11.857422 11.945312 A 1 1 0 0 0 11.849609 12.072266 A 1 1 0 0 0 11.894531 12.369141 C 12.186367 15.342905 12.660983 17.974592 13.460938 20 L 4.5390625 20 C 5.6374957 17.21887 6.3079742 13.644259 6.4101562 9 z M 13.783203 13.072266 L 15.527344 13.072266 C 15.626076 14.690847 15.803575 17.161185 17.773438 20 L 15.628906 20 C 14.791057 18.172671 14.134796 15.947604 13.783203 13.072266 z " fill="currentColor"/>
</svg>
