<svg xmlns="http://www.w3.org/2000/svg" width="1em" height="1em" viewBox="0 0 24 24" fill="currentColor">
  <path d="M 11 2 C 8.87868 2 7.2683853 1.9938448 5.9296875 2.1738281 C 4.5909897 2.3538114 3.4600166 2.7626397 2.6113281 3.6113281 C 1.7626397 4.4600166 1.3538114 5.5909897 1.1738281 6.9296875 C 0.99384484 8.2683853 1 9.87868 1 12 C 1 14.1213 0.99384502 15.731605 1.1738281 17.070312 C 1.3538111 18.409022 1.7626282 19.539985 2.6113281 20.388672 C 3.460018 21.237349 4.5909914 21.646192 5.9296875 21.826172 C 7.2683836 22.006152 8.87868 22 11 22 C 13.1213 22 14.731605 22.0062 16.070312 21.826172 C 17.409021 21.646192 18.539983 21.23736 19.388672 20.388672 C 20.23736 19.539983 20.646192 18.40902 20.826172 17.070312 C 21.006152 15.731605 21 14.1213 21 12 C 21 9.87868 21.006152 8.2683836 20.826172 6.9296875 C 20.646192 5.5909914 20.237349 4.460018 19.388672 3.6113281 C 18.539985 2.7626282 17.409021 2.3538111 16.070312 2.1738281 C 14.731604 1.9938452 13.1213 2 11 2 z M 11 4 C 13.1213 4 14.692546 4.00673 15.804688 4.15625 C 16.916829 4.305772 17.505296 4.5560705 17.974609 5.0253906 C 18.443932 5.4947208 18.69423 6.0831836 18.84375 7.1953125 C 18.99327 8.3074414 19 9.87868 19 12 C 19 14.1213 18.9933 15.692545 18.84375 16.804688 C 18.69423 17.91683 18.443921 18.505298 17.974609 18.974609 C 17.505298 19.443921 16.916829 19.69423 15.804688 19.84375 C 14.692545 19.99327 13.1213 20 11 20 C 8.87868 20 7.3074414 19.99327 6.1953125 19.84375 C 5.0831836 19.69423 4.4947208 19.443932 4.0253906 18.974609 C 3.5560705 18.505296 3.305772 17.916829 3.15625 16.804688 C 3.006728 15.692546 3 14.1213 3 12 C 3 9.87868 3.0067283 8.3074397 3.15625 7.1953125 C 3.3057717 6.0831853 3.5560591 5.4947222 4.0253906 5.0253906 C 4.4947222 4.5560591 5.0831853 4.3057717 6.1953125 4.15625 C 7.3074397 4.0067283 8.87868 4 11 4 z M 8.5 6.5 C 6.4855232 6.5 5 8.2691693 5 10.25 C 5 12.32902 6.4855061 14.003127 7.8144531 15.255859 C 9.1434001 16.508591 10.462891 17.34375 10.462891 17.34375 A 1.0001 1.0001 0 0 0 11.537109 17.34375 C 11.537109 17.34375 12.8566 16.508591 14.185547 15.255859 C 15.514494 14.003127 17 12.32902 17 10.25 C 17 8.2691825 15.514495 6.5 13.5 6.5 C 12.730069 6.5 11.86941 6.900982 11 7.5859375 C 10.13059 6.900982 9.269931 6.5 8.5 6.5 z M 8.5 8.5 C 9.0147022 8.5 9.3876867 8.571915 10.273438 9.5097656 A 1.0001 1.0001 0 0 0 11.726562 9.5097656 C 12.612312 8.5719155 12.985298 8.5 13.5 8.5 C 14.380305 8.5 15 9.1932575 15 10.25 C 15 11.24448 13.985506 12.696888 12.814453 13.800781 C 11.910882 14.652533 11.36786 14.983425 11 15.232422 C 10.63214 14.983425 10.089118 14.652533 9.1855469 13.800781 C 8.0144939 12.696888 7 11.24448 7 10.25 C 7 9.1932707 7.6197368 8.5 8.5 8.5 z " fill="currentColor"/>
</svg>
