<svg xmlns="http://www.w3.org/2000/svg" width="1em" height="1em" viewBox="0 0 24 24" fill="currentColor">
  <path d="M 12 1 A 1 1 0 0 0 11 2 L 11 3 L 10 3 C 9.05719 3 8.3297886 2.9935765 7.671875 3.0820312 C 7.0139614 3.1704859 6.3614754 3.3963288 5.8789062 3.8789062 C 5.3963288 4.3614753 5.1704861 5.0139614 5.0820312 5.671875 C 4.9935765 6.3297886 5 7.05719 5 8 L 5 8.7246094 C 4.8357564 8.8080951 4.6801354 8.8930673 4.53125 8.9824219 C 3.9832765 9.3112918 3.4899125 9.7582937 3.2304688 10.363281 C 3.1860408 10.466962 3.1463107 10.573596 3.1132812 10.681641 C 2.9210364 11.310789 3.001126 11.963966 3.1933594 12.585938 C 3.3855928 13.207909 3.6861024 13.861197 4.0683594 14.712891 L 5.2773438 17.410156 A 1 1 0 0 0 6.5996094 17.912109 A 1 1 0 0 0 7.1015625 16.589844 L 6.5234375 15.302734 L 8 15.302734 A 1 1 0 0 0 9 14.302734 A 1 1 0 0 0 8 13.302734 L 5.6484375 13.302734 C 5.4337995 12.811959 5.1955923 12.285735 5.1054688 11.994141 C 4.9746222 11.570787 4.9809153 11.411177 5.0253906 11.265625 C 5.0371826 11.227055 5.0526634 11.189135 5.0683594 11.152344 C 5.1268154 11.016032 5.2045229 10.910936 5.5605469 10.697266 C 5.9165708 10.483596 6.5133706 10.218526 7.3378906 9.8613281 L 10.197266 8.6230469 C 11.283622 8.1524296 11.702846 8 12 8 C 12.297154 8 12.716422 8.1524314 13.802734 8.6230469 L 16.662109 9.8613281 C 17.486605 10.218526 18.08344 10.483597 18.439453 10.697266 C 18.795467 10.910935 18.873181 11.016025 18.931641 11.152344 C 18.947591 11.189754 18.961346 11.228484 18.972656 11.265625 A 1.0001 1.0001 0 0 0 18.974609 11.265625 C 19.019089 11.41115 19.025371 11.570796 18.894531 11.994141 C 18.804411 12.285729 18.566201 12.811955 18.351562 13.302734 L 16 13.302734 A 1 1 0 0 0 15 14.302734 A 1 1 0 0 0 16 15.302734 L 17.476562 15.302734 L 16.898438 16.589844 A 1 1 0 0 0 17.400391 17.912109 A 1 1 0 0 0 18.722656 17.410156 L 19.931641 14.712891 A 1 1 0 0 0 19.933594 14.712891 C 20.315837 13.861205 20.614407 13.207918 20.806641 12.585938 C 20.998874 11.963957 21.079035 11.310816 20.886719 10.681641 C 20.853399 10.572145 20.813659 10.466305 20.769531 10.363281 C 20.510042 9.7583006 20.016712 9.3112928 19.46875 8.9824219 C 19.319867 8.8930669 19.164246 8.8080953 19 8.7246094 L 19 8 C 19 7.05719 19.006425 6.3297904 18.917969 5.671875 C 18.829512 5.0139596 18.603678 4.3614738 18.121094 3.8789062 C 17.63852 3.3963404 16.986036 3.170486 16.328125 3.0820312 C 15.670214 2.9935763 14.9428 3 14 3 L 13 3 L 13 2 A 1 1 0 0 0 12 1 z M 10 5 L 14 5 C 14.9428 5 15.629208 5.0064601 16.060547 5.0644531 C 16.491886 5.1224461 16.603805 5.1897446 16.707031 5.2929688 C 16.810247 5.3961812 16.877553 5.5081136 16.935547 5.9394531 C 16.989982 6.3443325 16.999097 6.9746287 17 7.8300781 L 14.597656 6.7890625 C 13.511369 6.318458 12.846046 6 12 6 C 11.153954 6 10.488667 6.3184598 9.4023438 6.7890625 L 7 7.8300781 C 7.0009032 6.974629 7.010018 6.3443341 7.0644531 5.9394531 C 7.1224459 5.5081117 7.1897562 5.3961796 7.2929688 5.2929688 C 7.3961796 5.1897562 7.5081117 5.1224459 7.9394531 5.0644531 C 8.3707945 5.0064604 9.05719 5 10 5 z M 17.775391 19.001953 C 16.902674 19.041317 16.081701 19.658028 15.435547 20.646484 C 15.297311 20.848686 15.225173 20.883781 15.224609 20.884766 C 15.094677 20.839426 14.643635 20.504149 14.132812 20.087891 C 13.619926 19.669951 12.993385 19.133187 12.050781 19.066406 C 11.108177 18.999626 10.1511 19.607034 9.4394531 20.679688 A 1.0001 1.0001 0 0 0 9.4355469 20.685547 C 9.3845326 20.7638 9.3475595 20.808068 9.3242188 20.832031 C 9.3192202 20.830323 9.3130401 20.828378 9.3066406 20.826172 C 9.1349595 20.766981 8.6547017 20.424256 8.1132812 20.027344 C 7.5718606 19.630431 6.9197706 19.143446 5.9980469 19.087891 C 5.0763232 19.032341 4.1113527 19.61268 3.4355469 20.646484 C 3.2685676 20.890903 3.1594279 20.958428 3.1289062 20.976562 C 3.094717 20.957451 2.9951878 20.887762 2.8378906 20.646484 A 1 1 0 0 0 1.453125 20.355469 A 1 1 0 0 0 1.1621094 21.740234 C 1.6123866 22.430921 2.2923386 22.982422 3.1308594 22.982422 C 3.9693801 22.982422 4.6466029 22.435153 5.1054688 21.748047 A 1.0001 1.0001 0 0 0 5.109375 21.740234 C 5.5619992 21.047839 5.7130256 21.073986 5.8789062 21.083984 C 6.0447869 21.093984 6.4523956 21.290725 6.9296875 21.640625 C 7.4069794 21.990525 7.9042242 22.458369 8.6542969 22.716797 C 9.0293332 22.846011 9.5222532 22.901218 9.9921875 22.730469 C 10.4591 22.560819 10.828233 22.207692 11.105469 21.785156 L 11.111328 21.777344 C 11.609436 21.029154 11.783282 21.053649 11.908203 21.0625 C 12.033693 21.0714 12.413552 21.26547 12.869141 21.636719 C 13.324729 22.007967 13.799577 22.517149 14.587891 22.783203 C 14.982048 22.91623 15.507694 22.947393 15.976562 22.751953 C 16.445431 22.556514 16.807432 22.194334 17.105469 21.748047 A 1.0001 1.0001 0 0 0 17.109375 21.740234 C 17.608287 20.977076 17.796548 20.997076 17.863281 21 C 17.930011 21.0029 18.252005 21.154772 18.662109 21.519531 C 19.072214 21.884291 19.511007 22.388057 20.191406 22.740234 C 20.531606 22.916323 20.977258 23.052291 21.460938 22.980469 C 21.944619 22.908649 22.386265 22.632316 22.728516 22.267578 A 1 1 0 0 0 22.683594 20.855469 A 1 1 0 0 0 21.271484 20.900391 C 21.222584 20.952504 21.190484 20.980035 21.171875 20.994141 C 21.158904 20.988905 21.138854 20.980103 21.109375 20.964844 C 20.911884 20.862622 20.481043 20.461931 19.990234 20.025391 C 19.499426 19.58885 18.888755 19.043029 17.951172 19.001953 C 17.892573 18.999386 17.833572 18.999329 17.775391 19.001953 z M 21.152344 21.005859 C 21.153085 21.005433 21.1548 21.006438 21.15625 21.005859 C 21.154531 21.006859 21.153187 21.007449 21.152344 21.007812 L 21.152344 21.005859 z " fill="currentColor"/>
</svg>
