<svg xmlns="http://www.w3.org/2000/svg" width="1em" height="1em" viewBox="0 0 24 24" fill="currentColor">
  <path d="M 11.455078 1 C 9.8325882 1 8.5991987 0.99500499 7.5527344 1.1171875 C 6.5062701 1.23937 5.598017 1.5134548 4.8613281 2.1074219 C 4.5838098 2.331179 4.331179 2.5838098 4.1074219 2.8613281 C 3.5134548 3.598017 3.2393699 4.5062653 3.1171875 5.5527344 C 2.9950051 6.5992035 3 7.8325681 3 9.4550781 L 3 14 C 3 15.8856 2.99457 17.318937 3.15625 18.521484 C 3.3179268 19.724031 3.6893545 20.759713 4.4648438 21.535156 C 5.2403087 22.310634 6.2759729 22.682068 7.4785156 22.84375 C 8.6810584 23.005432 10.11438 23 12 23 A 1 1 0 0 0 13 22 A 1 1 0 0 0 12 21 C 10.11438 21 8.7201079 20.9945 7.7441406 20.863281 C 6.7681734 20.732063 6.2750213 20.517216 5.8789062 20.121094 C 5.4828255 19.725037 5.2679344 19.231837 5.1367188 18.255859 C 5.0055032 17.279881 5 15.8856 5 14 L 5 9.4550781 C 5 7.8325681 5.0041805 6.633989 5.1035156 5.7832031 C 5.2028507 4.9324172 5.3719595 4.4794786 5.6640625 4.1171875 C 5.7983254 3.9506658 5.9506658 3.7983254 6.1171875 3.6640625 C 6.4794786 3.3719595 6.9324224 3.2028506 7.7832031 3.1035156 C 8.6339838 3.0041806 9.8325882 3 11.455078 3 C 11.82298 3 11.841181 3.0189629 12.001953 3.0292969 C 12.001856 4.4257545 11.995153 5.5035162 12.119141 6.4257812 C 12.24421 7.3560104 12.542845 8.1991092 13.171875 8.828125 C 13.800899 9.4571352 14.643996 9.7557935 15.574219 9.8808594 C 16.495418 10.004712 17.572707 9.9981553 18.966797 9.9980469 C 18.971297 10.073036 18.979132 10.137258 18.982422 10.212891 C 19.000321 10.625351 19 11 19 11 A 1 1 0 0 0 20 12 A 1 1 0 0 0 21 11 C 21 11 21.000614 10.591077 20.980469 10.126953 C 20.970399 9.8948911 20.954838 9.6476798 20.929688 9.4140625 C 20.904537 9.1804452 20.905787 9.0039982 20.771484 8.6796875 C 20.518892 8.070123 20.113277 7.6991741 19.535156 7.1210938 L 14.798828 2.3847656 C 14.299956 1.885914 13.982089 1.5393621 13.466797 1.2929688 C 13.370621 1.2469747 13.270933 1.2075144 13.169922 1.171875 C 12.631476 0.98187736 12.160678 1 11.455078 1 z M 14.046875 4.4609375 L 17.539062 7.953125 C 16.960565 7.9405587 16.219951 7.9492793 15.841797 7.8984375 C 15.138145 7.8038334 14.835612 7.6637323 14.585938 7.4140625 C 14.336267 7.1643983 14.196168 6.8618566 14.101562 6.1582031 C 14.050719 5.7800485 14.059442 5.0394407 14.046875 4.4609375 z M 16.099609 13 C 15.773759 13 15.512198 12.9951 15.220703 13.03125 C 14.929208 13.06738 14.524435 13.17724 14.222656 13.496094 C 13.920955 13.814865 13.828299 14.309547 13.847656 14.613281 C 13.867016 14.917015 13.928275 15.145119 13.992188 15.421875 L 14.195312 16.292969 L 13.763672 16.916016 C 13.531078 17.251756 13.340433 17.50824 13.181641 17.839844 C 13.102241 18.005646 13.023295 18.200926 13.003906 18.462891 C 12.984516 18.724855 13.061386 19.055401 13.216797 19.292969 C 13.527404 19.768246 14.048533 19.914465 14.410156 19.960938 C 14.77178 20.007412 15.124122 20 15.576172 20 L 16 20 L 16 22 A 1 1 0 0 0 17 23 A 1 1 0 0 0 18 22 L 18 20 L 18.423828 20 C 18.875878 20 19.22822 20.007398 19.589844 19.960938 C 19.951467 19.914468 20.472596 19.768246 20.783203 19.292969 C 20.938615 19.055401 21.015482 18.724855 20.996094 18.462891 C 20.976704 18.200926 20.897754 18.005646 20.818359 17.839844 C 20.659567 17.50824 20.468922 17.251756 20.236328 16.916016 L 19.804688 16.292969 L 20.007812 15.421875 C 20.071713 15.145175 20.132961 14.919003 20.152344 14.615234 C 20.171724 14.311466 20.079204 13.814855 19.777344 13.496094 C 19.475565 13.177237 19.070792 13.067378 18.779297 13.03125 C 18.487802 12.995122 18.226241 13 17.900391 13 L 16.099609 13 z M 16.099609 15 L 17.900391 15 C 17.977831 15 17.985071 15.003306 18.050781 15.003906 L 17.845703 15.896484 C 17.802383 16.083973 17.719328 16.321668 17.792969 16.689453 C 17.866469 17.056934 18.025094 17.236478 18.138672 17.400391 L 18.550781 17.996094 C 18.492904 17.996366 18.486755 18 18.423828 18 L 17 18 L 15.576172 18 C 15.513242 18 15.507092 17.996394 15.449219 17.996094 L 15.861328 17.400391 C 15.974906 17.236478 16.133535 17.056934 16.207031 16.689453 C 16.280671 16.321668 16.197627 16.083973 16.154297 15.896484 L 15.949219 15.003906 C 16.014928 15.00329 16.022167 15 16.099609 15 z " fill="currentColor"/>
</svg>
