<svg xmlns="http://www.w3.org/2000/svg" width="1em" height="1em" viewBox="0 0 24 24" fill="currentColor">
  <path d="M 7.5 1 C 5.0325009 1 3 3.0027351 3 5.4609375 L 3 8.2304688 A 1 1 0 0 0 4 9.2304688 A 1 1 0 0 0 5 8.2304688 L 5 5.4609375 C 5 4.0956199 6.1014991 3 7.5 3 C 8.8985009 3 10 4.0956199 10 5.4609375 L 10 9.2695312 C 10 9.6789373 9.6819941 10 9.25 10 C 8.8180059 10 8.5 9.6789374 8.5 9.2695312 L 8.5 5.4609375 A 1 1 0 0 0 7.5 4.4609375 A 1 1 0 0 0 6.5 5.4609375 L 6.5 9.2695312 C 6.5 10.771845 7.7489941 12 9.25 12 C 10.751006 12 12 10.771845 12 9.2695312 L 12 5.4609375 C 12 3.0027351 9.9674991 1 7.5 1 z M 13.037109 1.0019531 A 1 1 0 0 0 12.035156 1.9980469 A 1 1 0 0 0 13.03125 3.0019531 C 14.566854 3.0068031 15.715749 3.0411861 16.525391 3.1796875 C 17.335033 3.318189 17.763034 3.5208261 18.121094 3.8789062 C 18.517216 4.2750212 18.732063 4.7681773 18.863281 5.7441406 C 18.9945 6.720104 19 8.114395 19 10 L 19 13.34375 C 19 13.788084 18.973854 13.816873 18.958984 14.001953 C 17.569593 14.001823 16.493302 13.995553 15.574219 14.119141 C 14.643994 14.24421 13.800897 14.542853 13.171875 15.171875 C 12.542853 15.800897 12.24421 16.645947 12.119141 17.576172 C 11.995143 18.498429 12.001856 19.57427 12.001953 20.970703 C 11.84118 20.981037 11.82298 21 11.455078 21 C 9.8325882 21 8.6339913 20.995812 7.7832031 20.896484 C 6.932415 20.797156 6.479476 20.628016 6.1171875 20.335938 C 5.9507816 20.201776 5.7984033 20.049416 5.6640625 19.882812 C 5.3719536 19.520507 5.2028507 19.06758 5.1035156 18.216797 C 5.0041806 17.366013 5 16.167422 5 14.544922 L 5 12 A 1 1 0 0 0 4 11 A 1 1 0 0 0 3 12 L 3 14.544922 C 3 16.167422 2.99501 17.402752 3.1171875 18.449219 C 3.2393699 19.495685 3.5134608 20.401977 4.1074219 21.138672 C 4.331101 21.416069 4.5836941 21.66874 4.8613281 21.892578 C 5.5980197 22.4865 6.5062775 22.760641 7.5527344 22.882812 C 8.5991912 23.004984 9.8325882 23 11.455078 23 C 12.160678 23 12.631488 23.02005 13.169922 22.830078 C 13.271185 22.794368 13.369181 22.752708 13.464844 22.707031 A 1.0001 1.0001 0 0 0 13.466797 22.707031 C 13.982168 22.4606 14.299975 22.114087 14.798828 21.615234 L 19.535156 16.878906 C 20.113256 16.300806 20.518878 15.92985 20.771484 15.320312 C 21.023855 14.710662 21 14.16125 21 13.34375 L 21 10 C 21 8.114395 21.005432 6.6810548 20.84375 5.4785156 C 20.682068 4.2759765 20.310634 3.2403086 19.535156 2.4648438 C 18.834116 1.7637637 17.912814 1.3865699 16.863281 1.2070312 C 15.813748 1.0274927 14.593505 1.0068659 13.037109 1.0019531 z M 17.539062 16.046875 L 14.046875 19.539062 C 14.059445 18.960566 14.050672 18.21995 14.101562 17.841797 C 14.196162 17.138147 14.336259 16.835615 14.585938 16.585938 C 14.835615 16.336261 15.138147 16.196168 15.841797 16.101562 C 16.21995 16.050722 16.960565 16.059445 17.539062 16.046875 z " fill="currentColor"/>
</svg>
