<svg xmlns="http://www.w3.org/2000/svg" width="1em" height="1em" viewBox="0 0 24 24" fill="currentColor">
  <path d="M 10.455078 1 C 8.8325882 1 7.5991987 0.99500499 6.5527344 1.1171875 C 5.5062701 1.23937 4.598017 1.5134548 3.8613281 2.1074219 C 3.5838098 2.331179 3.331179 2.5838098 3.1074219 2.8613281 C 2.5134548 3.598017 2.2393699 4.5062653 2.1171875 5.5527344 C 1.9950051 6.5992035 2 7.8325681 2 9.4550781 L 2 14 C 2 15.8856 1.99457 17.318937 2.15625 18.521484 C 2.3179268 19.724031 2.6893545 20.759713 3.4648438 21.535156 C 4.1685011 22.238814 5.0937441 22.615949 6.1484375 22.794922 C 7.2031309 22.973894 8.4308706 22.995421 9.9980469 23 A 1 1 0 0 0 11 22.001953 A 1 1 0 0 0 10.001953 21 C 8.4548295 20.995479 7.2995466 20.960593 6.484375 20.822266 C 5.6692034 20.683938 5.2383488 20.480536 4.8789062 20.121094 C 4.4828255 19.725037 4.2679344 19.231837 4.1367188 18.255859 C 4.0055032 17.279881 4 15.8856 4 14 L 4 9.4550781 C 4 7.8325681 4.0041805 6.633989 4.1035156 5.7832031 C 4.2028507 4.9324172 4.3719595 4.4794786 4.6640625 4.1171875 C 4.7983254 3.9506658 4.9506658 3.7983254 5.1171875 3.6640625 C 5.4794786 3.3719595 5.9324224 3.2028506 6.7832031 3.1035156 C 7.6339838 3.0041806 8.8325882 3 10.455078 3 C 10.82298 3 10.841181 3.0189629 11.001953 3.0292969 C 11.001856 4.4257545 10.995153 5.5035162 11.119141 6.4257812 C 11.24421 7.3560104 11.542845 8.1991092 12.171875 8.828125 C 12.800899 9.4571352 13.643996 9.7557935 14.574219 9.8808594 C 15.494359 10.00457 16.571151 9.9981663 17.962891 9.9980469 C 17.974659 10.158142 17.99967 10.165192 18 10.501953 A 1 1 0 0 0 19.001953 11.5 A 1 1 0 0 0 20 10.498047 C 19.999292 9.7751227 20.00718 9.2490233 19.771484 8.6796875 C 19.518895 8.070123 19.113277 7.6991741 18.535156 7.1210938 L 13.798828 2.3847656 C 13.299956 1.885914 12.982089 1.5393621 12.466797 1.2929688 C 12.370621 1.2469747 12.270933 1.2075144 12.169922 1.171875 C 11.631476 0.98187736 11.160678 1 10.455078 1 z M 13.046875 4.4609375 L 16.539062 7.953125 C 15.960564 7.9405587 15.219951 7.9492793 14.841797 7.8984375 C 14.138145 7.8038334 13.835612 7.6637323 13.585938 7.4140625 C 13.336267 7.1643983 13.196168 6.8618566 13.101562 6.1582031 C 13.050719 5.7800485 13.059442 5.0394407 13.046875 4.4609375 z M 17 12 C 15.794112 12 14.70075 12.17374 13.820312 12.503906 C 13.380093 12.668989 12.98812 12.868545 12.650391 13.167969 C 12.340552 13.442665 12.055343 13.858614 12.009766 14.363281 A 1 1 0 0 0 12 14.5 L 12 17.5 L 12 20.5 C 12 21.067413 12.312661 21.532607 12.650391 21.832031 C 12.98812 22.131455 13.380094 22.331011 13.820312 22.496094 C 14.700749 22.82626 15.794112 23 17 23 C 18.205888 23 19.29925 22.82626 20.179688 22.496094 C 20.619906 22.331011 21.01188 22.131455 21.349609 21.832031 C 21.687339 21.532607 22 21.067413 22 20.5 L 22 17.5 L 22 14.5 C 22 13.932587 21.687339 13.467393 21.349609 13.167969 C 21.01188 12.868545 20.619906 12.668989 20.179688 12.503906 C 19.29925 12.17374 18.205888 12 17 12 z M 17 14 C 18.003212 14 18.909275 14.162266 19.476562 14.375 C 19.599498 14.4211 19.626619 14.4542 19.712891 14.5 C 19.626621 14.5458 19.599499 14.5789 19.476562 14.625 C 18.909275 14.837734 18.003212 15 17 15 C 15.996788 15 15.090725 14.837734 14.523438 14.625 C 14.400502 14.5789 14.373381 14.5458 14.287109 14.5 C 14.373379 14.4542 14.400501 14.4211 14.523438 14.375 C 15.090725 14.162266 15.996788 14 17 14 z M 14 16.560547 C 14.84767 16.848989 15.874854 17 17 17 C 18.125146 17 19.15233 16.848989 20 16.560547 L 20 17.353516 C 19.918249 17.417531 19.73436 17.528325 19.476562 17.625 C 18.90928 17.837734 18.003212 18 17 18 C 15.996788 18 15.090724 17.837734 14.523438 17.625 C 14.265645 17.528327 14.081752 17.417531 14 17.353516 L 14 16.560547 z M 14 19.560547 C 14.84767 19.848989 15.874854 20 17 20 C 18.125146 20 19.15233 19.848989 20 19.560547 L 20 20.347656 C 19.925934 20.409494 19.748954 20.522853 19.476562 20.625 C 18.909275 20.837734 18.003212 21 17 21 C 15.996788 21 15.090724 20.837734 14.523438 20.625 C 14.251046 20.522853 14.074066 20.409494 14 20.347656 L 14 19.560547 z " fill="currentColor"/>
</svg>
