<svg xmlns="http://www.w3.org/2000/svg" width="1em" height="1em" viewBox="0 0 24 24" fill="currentColor">
  <path d="M 10.455078 1 C 8.8325882 1 7.59924 0.99494639 6.5527344 1.1171875 C 5.5062288 1.2394286 4.598002 1.5132055 3.8613281 2.1074219 C 3.5837841 2.3312872 3.3311476 2.5856893 3.1074219 2.8632812 C 2.5135062 3.6002214 2.2393602 4.5058935 2.1171875 5.5527344 C 1.9950148 6.5995752 2 7.8357694 2 9.4589844 L 2 14.005859 C 2 15.892309 1.99459 17.326333 2.15625 18.529297 C 2.3179142 19.732261 2.6894298 20.767204 3.4648438 21.542969 C 4.0890413 22.167438 4.89576 22.541148 5.7988281 22.736328 C 6.7018963 22.931509 7.7245507 22.981732 8.9863281 23 A 1 1 0 0 0 10 22.013672 A 1 1 0 0 0 9.0136719 21 C 7.7958793 20.982368 6.876185 20.92292 6.2207031 20.78125 C 5.5652213 20.63958 5.1977988 20.447937 4.8789062 20.128906 C 4.4827502 19.732571 4.2679471 19.240158 4.1367188 18.263672 C 4.0054905 17.287186 4 15.892309 4 14.005859 L 4 9.4589844 C 4 7.8357694 4.0041708 6.6363954 4.1035156 5.7851562 C 4.2028604 4.9339172 4.3719082 4.4796973 4.6640625 4.1171875 C 4.7983568 3.9505593 4.9506915 3.7983572 5.1171875 3.6640625 C 5.4794937 3.3718189 5.9324637 3.2028895 6.7832031 3.1035156 C 7.6339425 3.0041417 8.8325882 3 10.455078 3 C 10.82298 3 10.841207 3.0189609 11.001953 3.0292969 C 11.001856 4.4263716 10.995153 5.505158 11.119141 6.4277344 C 11.244197 7.3582729 11.542885 8.2008302 12.171875 8.8300781 C 12.800858 9.4593193 13.64395 9.7596394 14.574219 9.8847656 C 15.493345 10.008393 16.569593 10.002083 17.958984 10.001953 C 17.973854 10.187178 18 10.215637 18 10.660156 L 18 13.005859 A 1 1 0 0 0 19 14.005859 A 1 1 0 0 0 20 13.005859 L 20 10.660156 C 20 9.8423165 20.023888 9.2933768 19.771484 8.6835938 C 19.518964 8.0739307 19.113279 7.7013793 18.535156 7.1230469 L 13.798828 2.3847656 C 13.299949 1.8856769 12.982103 1.5394856 12.466797 1.2929688 C 12.370773 1.2470476 12.271013 1.2075578 12.169922 1.171875 C 11.631413 0.98177178 11.160678 1 10.455078 1 z M 13.046875 4.4609375 L 16.541016 7.9570312 C 15.961624 7.9444746 15.220361 7.9532626 14.841797 7.9023438 C 14.138191 7.8077051 13.835654 7.6677877 13.585938 7.4179688 C 13.336227 7.1681567 13.19618 6.8642128 13.101562 6.1601562 C 13.050686 5.7815839 13.059435 5.040126 13.046875 4.4609375 z M 16 15 C 12.51433 15 10.199219 18.402344 10.199219 18.402344 A 1.0001 1.0001 0 0 0 10.199219 19.597656 C 10.199219 19.597656 12.51433 23 16 23 C 19.48567 23 21.800781 19.597656 21.800781 19.597656 A 1.0001 1.0001 0 0 0 21.800781 18.402344 C 21.800781 18.402344 19.48567 15 16 15 z M 16 17 C 17.56824 17 18.911233 18.291211 19.583984 19 C 18.911233 19.708789 17.56824 21 16 21 C 14.43176 21 13.088767 19.708789 12.416016 19 C 13.088767 18.291211 14.43176 17 16 17 z M 15.990234 18 A 1 1 0 0 0 14.990234 19 A 1 1 0 0 0 15.990234 20 L 16 20 A 1 1 0 0 0 17 19 A 1 1 0 0 0 16 18 L 15.990234 18 z " fill="currentColor"/>
</svg>
