<svg xmlns="http://www.w3.org/2000/svg" width="1em" height="1em" viewBox="0 0 24 24" fill="currentColor">
  <path d="M 11.455078 1 C 9.8325882 1 8.5991987 0.99500499 7.5527344 1.1171875 C 6.5062701 1.23937 5.598017 1.5134548 4.8613281 2.1074219 C 4.5838098 2.331179 4.331179 2.5838098 4.1074219 2.8613281 C 3.5134548 3.598017 3.2393699 4.5062653 3.1171875 5.5527344 C 2.9950051 6.5992035 3 7.8325681 3 9.4550781 L 3 22 A 1 1 0 0 0 4 23 A 1 1 0 0 0 5 22 L 5 9.4550781 C 5 7.8325681 5.0041805 6.633989 5.1035156 5.7832031 C 5.2028507 4.9324172 5.3719595 4.4794786 5.6640625 4.1171875 C 5.7983254 3.9506658 5.9506658 3.7983254 6.1171875 3.6640625 C 6.4794786 3.3719595 6.9324224 3.2028506 7.7832031 3.1035156 C 8.6339838 3.0041806 9.8325882 3 11.455078 3 C 11.82298 3 11.841181 3.0189629 12.001953 3.0292969 C 12.001856 4.4257545 11.995153 5.5035162 12.119141 6.4257812 C 12.24421 7.3560104 12.542845 8.1991092 13.171875 8.828125 C 13.800899 9.4571352 14.643996 9.7557935 15.574219 9.8808594 C 16.493299 10.004427 17.569593 9.9981768 18.958984 9.9980469 C 18.973846 10.183132 19 10.211888 19 10.65625 L 19 14 C 19 15.8856 18.9945 17.279884 18.863281 18.255859 C 18.732063 19.231835 18.517187 19.725034 18.121094 20.121094 C 17.806242 20.43598 17.443705 20.625907 16.802734 20.767578 C 16.161764 20.909249 15.26422 20.971059 14.076172 20.990234 A 1 1 0 0 0 13.091797 22.005859 A 1 1 0 0 0 14.107422 22.990234 C 15.341873 22.970314 16.345545 22.917154 17.234375 22.720703 C 18.123205 22.524249 18.918708 22.15167 19.535156 21.535156 C 20.310663 20.759716 20.682069 19.724034 20.84375 18.521484 C 21.005431 17.318935 21 15.8856 21 14 L 21 10.65625 C 21 9.8387 21.023956 9.2893684 20.771484 8.6796875 C 20.518895 8.070123 20.113277 7.6991741 19.535156 7.1210938 L 14.798828 2.3847656 C 14.299956 1.885914 13.982089 1.5393621 13.466797 1.2929688 C 13.370621 1.2469747 13.270933 1.2075144 13.169922 1.171875 C 12.631476 0.98187736 12.160678 1 11.455078 1 z M 14.046875 4.4609375 L 17.539062 7.953125 C 16.960565 7.9405587 16.219951 7.9492793 15.841797 7.8984375 C 15.138145 7.8038334 14.835612 7.6637323 14.585938 7.4140625 C 14.336267 7.1643983 14.196168 6.8618566 14.101562 6.1582031 C 14.050719 5.7800485 14.059442 5.0394407 14.046875 4.4609375 z M 7 4.5 A 1 1 0 0 0 6 5.5 A 1 1 0 0 0 7 6.5 L 7.5 6.5 A 1 1 0 0 0 8.5 5.5 A 1 1 0 0 0 7.5 4.5 L 7 4.5 z M 9.5 6.5 A 1 1 0 0 0 8.5 7.5 A 1 1 0 0 0 9.5 8.5 L 10 8.5 A 1 1 0 0 0 11 7.5 A 1 1 0 0 0 10 6.5 L 9.5 6.5 z M 7 8.5 A 1 1 0 0 0 6 9.5 A 1 1 0 0 0 7 10.5 L 7.5 10.5 A 1 1 0 0 0 8.5 9.5 A 1 1 0 0 0 7.5 8.5 L 7 8.5 z M 9.5 10.523438 A 1 1 0 0 0 8.5 11.523438 A 1 1 0 0 0 9.5 12.523438 L 10 12.523438 A 1 1 0 0 0 11 11.523438 A 1 1 0 0 0 10 10.523438 L 9.5 10.523438 z M 7 12.5 A 1 1 0 0 0 6 13.5 A 1 1 0 0 0 7 14.5 L 7.5 14.5 A 1 1 0 0 0 8.5 13.5 A 1 1 0 0 0 7.5 12.5 L 7 12.5 z M 9 16 C 7.3550085 16 6 17.354975 6 19 L 6 22 A 1.0001 1.0001 0 0 0 7 23 L 11 23 A 1.0001 1.0001 0 0 0 12 22 L 12 19 C 12 17.354993 10.645007 16 9 16 z M 9 18 C 9.5641932 18 10 18.435807 10 19 L 10 21 L 8 21 L 8 19 C 8 18.435825 8.4358515 18 9 18 z " fill="currentColor"/>
</svg>
