<svg xmlns="http://www.w3.org/2000/svg" width="1em" height="1em" viewBox="0 0 24 24" fill="currentColor">
  <path d="M 11.955078 1 C 10.332588 1 9.09924 0.99494639 8.0527344 1.1171875 C 7.0062288 1.2394286 6.098002 1.5132055 5.3613281 2.1074219 C 5.0837841 2.3312872 4.8311476 2.5856893 4.6074219 2.8632812 C 4.0135062 3.6002214 3.7393602 4.5058935 3.6171875 5.5527344 C 3.4950148 6.5995752 3.5 7.8357694 3.5 9.4589844 L 3.5 10.003906 A 1 1 0 0 0 4.5 11.003906 A 1 1 0 0 0 5.5 10.003906 L 5.5 9.4589844 C 5.5 7.8357694 5.50417 6.6363955 5.6035156 5.7851562 C 5.7028604 4.9339172 5.8719082 4.4796973 6.1640625 4.1171875 C 6.2983568 3.9505593 6.4506915 3.7983572 6.6171875 3.6640625 C 6.9794937 3.3718189 7.4324637 3.2028895 8.2832031 3.1035156 C 9.1339425 3.0041417 10.332588 3 11.955078 3 C 12.32298 3 12.341207 3.0189609 12.501953 3.0292969 C 12.501856 4.4263716 12.495153 5.505158 12.619141 6.4277344 C 12.744197 7.3582729 13.042885 8.2008302 13.671875 8.8300781 C 14.300858 9.4593193 15.14395 9.7596394 16.074219 9.8847656 C 16.993345 10.008393 18.069593 10.002083 19.458984 10.001953 C 19.473854 10.187178 19.5 10.215637 19.5 10.660156 L 19.5 14.005859 C 19.5 15.892309 19.4945 17.287189 19.363281 18.263672 C 19.23205 19.240155 19.017262 19.732569 18.621094 20.128906 C 18.302186 20.447949 17.934764 20.639581 17.279297 20.78125 C 16.623826 20.922919 15.704136 20.982368 14.486328 21 A 1 1 0 0 0 13.5 22.013672 A 1 1 0 0 0 14.513672 23 C 15.775464 22.98173 16.798114 22.93151 17.701172 22.736328 C 18.60423 22.541147 19.410964 22.167426 20.035156 21.542969 C 20.810588 20.767206 21.182081 19.732264 21.34375 18.529297 C 21.505419 17.32633 21.5 15.892309 21.5 14.005859 L 21.5 10.660156 C 21.5 9.8423165 21.52389 9.2933767 21.271484 8.6835938 C 21.018964 8.0739308 20.613279 7.7013793 20.035156 7.1230469 L 15.298828 2.3847656 C 14.799949 1.8856769 14.482103 1.5394856 13.966797 1.2929688 C 13.870773 1.2470476 13.771013 1.2075578 13.669922 1.171875 C 13.131413 0.98177178 12.660678 1 11.955078 1 z M 14.546875 4.4609375 L 18.041016 7.9570312 C 17.461624 7.9444746 16.720361 7.9532626 16.341797 7.9023438 C 15.638191 7.8077051 15.335654 7.6677877 15.085938 7.4179688 C 14.836227 7.1681567 14.69618 6.8642128 14.601562 6.1601562 C 14.550686 5.7815839 14.559435 5.040126 14.546875 4.4609375 z M 9 12.5 C 6.5655118 12.5 4.3532221 13.55273 2.7714844 15.230469 A 1 1 0 0 0 2.8144531 16.644531 A 1 1 0 0 0 4.2285156 16.601562 C 5.4619176 15.293302 7.1387282 14.5 9 14.5 C 10.861294 14.5 12.538039 15.293284 13.771484 16.601562 A 1 1 0 0 0 15.185547 16.644531 A 1 1 0 0 0 15.228516 15.230469 C 13.64676 13.552747 11.434506 12.5 9 12.5 z M 9 16.625 C 7.6394518 16.625 6.399439 17.21525 5.5214844 18.146484 A 1 1 0 0 0 5.5644531 19.560547 A 1 1 0 0 0 6.9785156 19.519531 C 7.5081407 18.957769 8.2126682 18.625 9 18.625 C 9.7872811 18.625 10.491856 18.95777 11.021484 19.519531 A 1 1 0 0 0 12.435547 19.560547 A 1 1 0 0 0 12.478516 18.146484 C 11.600543 17.215242 10.360519 16.625 9 16.625 z M 9 20.5 C 8.3216244 20.5 7.75 21.071567 7.75 21.75 C 7.75 22.428433 8.3216244 23 9 23 C 9.6783756 23 10.25 22.428433 10.25 21.75 C 10.25 21.071567 9.6783756 20.5 9 20.5 z " fill="currentColor"/>
</svg>
