<svg xmlns="http://www.w3.org/2000/svg" width="1em" height="1em" viewBox="0 0 24 24" fill="currentColor">
  <path d="M 12 1 A 1 1 0 0 0 11 2 A 1 1 0 0 0 12 3 C 13.8856 3 15.279881 3.0054999 16.255859 3.1367188 C 17.231837 3.2679343 17.725037 3.4828254 18.121094 3.8789062 C 18.517216 4.2750212 18.732063 4.7681734 18.863281 5.7441406 C 18.9945 6.7201079 19 8.11438 19 10 L 19 13.34375 C 19 13.788084 18.973854 13.816868 18.958984 14.001953 C 17.569593 14.001823 16.493302 13.995553 15.574219 14.119141 C 14.643994 14.24421 13.800897 14.542853 13.171875 15.171875 C 12.542853 15.800897 12.24421 16.643994 12.119141 17.574219 C 11.995142 18.49648 12.001856 19.57426 12.001953 20.970703 C 11.84118 20.981037 11.82298 21 11.455078 21 C 9.8325882 21 8.6339807 20.995822 7.7832031 20.896484 C 6.9324256 20.797146 6.4794798 20.628051 6.1171875 20.335938 C 5.9506399 20.201662 5.7983112 20.049302 5.6640625 19.882812 C 5.3719536 19.520507 5.2028507 19.06758 5.1035156 18.216797 C 5.0041806 17.366013 5 16.167422 5 14.544922 L 5 10 A 1 1 0 0 0 4 9 A 1 1 0 0 0 3 10 L 3 14.544922 C 3 16.167422 2.99501 17.400799 3.1171875 18.447266 C 3.2393699 19.493732 3.5134608 20.401977 4.1074219 21.138672 C 4.3311932 21.416183 4.5838357 21.668854 4.8613281 21.892578 C 5.5980158 22.486564 6.5062669 22.760625 7.5527344 22.882812 C 8.5992018 23.005 9.8325882 23 11.455078 23 C 12.160678 23 12.631488 23.0181 13.169922 22.828125 C 13.271185 22.792415 13.369181 22.752705 13.464844 22.707031 A 1.0001 1.0001 0 0 0 13.466797 22.707031 C 13.981804 22.460608 14.299928 22.114134 14.798828 21.615234 L 19.535156 16.878906 C 20.113256 16.300806 20.518902 15.929961 20.771484 15.320312 C 21.023949 14.7106 21 14.16125 21 13.34375 L 21 10 C 21 8.11438 21.005432 6.6810584 20.84375 5.4785156 C 20.682068 4.2759729 20.310634 3.2403086 19.535156 2.4648438 C 18.759713 1.6893545 17.724031 1.3179268 16.521484 1.15625 C 15.318937 0.99457318 13.8856 1 12 1 z M 6.1835938 1.0058594 C 5.3667105 1.0058578 4.5491381 1.3141866 3.9316406 1.9316406 C 2.696703 3.1666072 2.696703 5.2005803 3.9316406 6.4355469 L 5.8632812 8.3652344 C 7.0419718 9.5440552 8.9435794 9.6035753 10.191406 8.5273438 A 1 1 0 0 0 10.294922 7.1152344 A 1 1 0 0 0 8.8847656 7.0117188 C 8.4167127 7.4154072 7.7264933 7.4003711 7.2773438 6.9511719 L 5.3476562 5.0214844 C 4.877014 4.550831 4.877014 3.8183095 5.3476562 3.3476562 C 5.818453 2.8783405 6.5513028 2.8774637 7.0214844 3.3476562 A 1 1 0 0 0 8.4355469 3.3476562 A 1 1 0 0 0 8.4355469 1.9316406 C 7.8180805 1.3141597 7.0004771 1.0058609 6.1835938 1.0058594 z M 8.9980469 3.7089844 C 8.2191564 3.68148 7.4325125 3.9345859 6.8085938 4.4726562 A 1 1 0 0 0 6.7050781 5.8847656 A 1 1 0 0 0 8.1152344 5.9882812 C 8.5832969 5.5846221 9.2734737 5.5996236 9.7226562 6.0488281 L 11.652344 7.9785156 C 12.123018 8.4492068 12.123039 9.1816158 11.652344 9.6523438 C 11.181703 10.122984 10.449132 10.122971 9.9785156 9.6523438 A 1 1 0 0 0 8.5644531 9.6523438 A 1 1 0 0 0 8.5644531 11.068359 C 9.799397 12.303332 11.8334 12.303319 13.068359 11.068359 C 14.303265 9.8333677 14.303285 7.799422 13.068359 6.5644531 L 11.136719 4.6347656 C 10.54736 4.0453779 9.7769374 3.7364887 8.9980469 3.7089844 z M 17.539062 16.046875 L 14.046875 19.539062 C 14.059445 18.960566 14.050672 18.21995 14.101562 17.841797 C 14.196162 17.138147 14.336259 16.835615 14.585938 16.585938 C 14.835615 16.336261 15.138147 16.196168 15.841797 16.101562 C 16.21995 16.050722 16.960565 16.059445 17.539062 16.046875 z " fill="currentColor"/>
</svg>
