<svg xmlns="http://www.w3.org/2000/svg" width="1em" height="1em" viewBox="0 0 24 24" fill="currentColor">
  <path d="M 11.455078 1 C 9.8325882 1 8.5991987 0.99500499 7.5527344 1.1171875 C 6.5062701 1.23937 5.598017 1.5134548 4.8613281 2.1074219 C 4.5838098 2.331179 4.331179 2.5838098 4.1074219 2.8613281 C 3.5134548 3.598017 3.2393699 4.5062653 3.1171875 5.5527344 C 2.9950051 6.5992035 3 7.8325681 3 9.4550781 L 3 14 C 3 15.8856 2.99457 17.318937 3.15625 18.521484 C 3.3179268 19.724031 3.6893545 20.759713 4.4648438 21.535156 C 5.2403087 22.310634 6.2759729 22.682068 7.4785156 22.84375 C 8.6810584 23.005432 10.11438 23 12 23 A 1 1 0 0 0 13 22 A 1 1 0 0 0 12 21 C 10.11438 21 8.7201079 20.9945 7.7441406 20.863281 C 6.7681734 20.732063 6.2750213 20.517216 5.8789062 20.121094 C 5.4828255 19.725037 5.2679344 19.231837 5.1367188 18.255859 C 5.0055032 17.279881 5 15.8856 5 14 L 5 9.4550781 C 5 7.8325681 5.0041805 6.633989 5.1035156 5.7832031 C 5.2028507 4.9324172 5.3719595 4.4794786 5.6640625 4.1171875 C 5.7983254 3.9506658 5.9506658 3.7983254 6.1171875 3.6640625 C 6.4794786 3.3719595 6.9324224 3.2028506 7.7832031 3.1035156 C 8.6339838 3.0041806 9.8325882 3 11.455078 3 C 11.82298 3 11.841181 3.0189629 12.001953 3.0292969 C 12.001856 4.4257545 11.995153 5.5035162 12.119141 6.4257812 C 12.24421 7.3560104 12.542845 8.1991092 13.171875 8.828125 C 13.800899 9.4571352 14.643996 9.7557935 15.574219 9.8808594 C 16.495418 10.004712 17.572707 9.9981553 18.966797 9.9980469 C 18.971297 10.073036 18.979132 10.137258 18.982422 10.212891 C 19.000321 10.625351 19 11 19 11 A 1 1 0 0 0 20 12 A 1 1 0 0 0 21 11 C 21 11 21.000614 10.591077 20.980469 10.126953 C 20.970399 9.8948911 20.954838 9.6476798 20.929688 9.4140625 C 20.904537 9.1804452 20.905787 9.0039982 20.771484 8.6796875 C 20.518892 8.070123 20.113277 7.6991741 19.535156 7.1210938 L 14.798828 2.3847656 C 14.299956 1.885914 13.982089 1.5393621 13.466797 1.2929688 C 13.370621 1.2469747 13.270933 1.2075144 13.169922 1.171875 C 12.631476 0.98187736 12.160678 1 11.455078 1 z M 14.046875 4.4609375 L 17.539062 7.953125 C 16.960565 7.9405587 16.219951 7.9492793 15.841797 7.8984375 C 15.138145 7.8038334 14.835612 7.6637323 14.585938 7.4140625 C 14.336267 7.1643983 14.196168 6.8618566 14.101562 6.1582031 C 14.050719 5.7800485 14.059442 5.0394407 14.046875 4.4609375 z M 19.298828 13.003906 C 19.133156 13.000135 18.969754 13.021586 18.8125 13.060547 C 18.497992 13.138467 18.205616 13.288144 17.960938 13.449219 C 17.471583 13.771369 16.990814 14.201817 16.355469 14.757812 A 1.0001 1.0001 0 0 0 16.324219 14.787109 L 16.099609 15 L 15.003906 15 C 14.532506 15 14.159038 14.993102 13.773438 15.044922 C 13.387837 15.096762 12.925966 15.249815 12.589844 15.585938 C 12.253721 15.922059 12.100672 16.383931 12.048828 16.769531 C 11.996988 17.155131 12.003906 17.5286 12.003906 18 C 12.003906 18.4714 11.997008 18.844869 12.048828 19.230469 C 12.100668 19.616069 12.253721 20.07794 12.589844 20.414062 C 12.925966 20.750186 13.387836 20.903234 13.773438 20.955078 C 14.159038 21.006924 14.532506 21 15.003906 21 L 16.099609 21 L 16.324219 21.212891 A 1.0001 1.0001 0 0 0 16.355469 21.242188 C 16.990814 21.798184 17.471582 22.228631 17.960938 22.550781 C 18.450294 22.872932 19.12743 23.146292 19.800781 22.902344 C 20.137456 22.780285 20.453813 22.506987 20.628906 22.216797 C 20.804 21.926607 20.874362 21.641352 20.919922 21.359375 C 21.011042 20.795418 21 20.19255 21 19.40625 L 21 16.59375 C 21 15.80745 21.011042 15.204578 20.919922 14.640625 C 20.874362 14.358648 20.804 14.073393 20.628906 13.783203 C 20.453813 13.493013 20.137456 13.219715 19.800781 13.097656 C 19.632443 13.036669 19.4645 13.007677 19.298828 13.003906 z M 18.953125 15.207031 C 18.982246 15.513862 19 15.926749 19 16.59375 L 19 19.40625 C 19 20.073251 18.982245 20.486138 18.953125 20.792969 C 18.673958 20.596648 18.268029 20.257582 17.703125 19.763672 L 17.691406 19.751953 L 17.189453 19.275391 A 1.0001 1.0001 0 0 0 16.5 19 L 15.003906 19 C 14.532506 19 14.198087 18.993996 14.039062 18.972656 C 14.036714 18.97234 14.033495 18.97296 14.03125 18.972656 C 14.030946 18.970411 14.031566 18.967192 14.03125 18.964844 C 14.009876 18.805823 14.003906 18.4714 14.003906 18 C 14.003906 17.5286 14.00991 17.194181 14.03125 17.035156 C 14.031566 17.032808 14.030946 17.029589 14.03125 17.027344 C 14.033495 17.02704 14.036714 17.02766 14.039062 17.027344 C 14.198083 17.005971 14.532506 17 15.003906 17 L 16.5 17 A 1.0001 1.0001 0 0 0 17.189453 16.724609 L 17.691406 16.248047 L 17.703125 16.236328 C 18.268029 15.742418 18.673958 15.403352 18.953125 15.207031 z " fill="currentColor"/>
</svg>
