<svg xmlns="http://www.w3.org/2000/svg" width="1em" height="1em" viewBox="0 0 24 24" fill="currentColor">
  <path d="M 8 1 A 1 1 0 0 0 7 2 L 7 5 L 4 5 A 1 1 0 0 0 3 6 A 1 1 0 0 0 4 7 L 7 7 L 7 10 A 1 1 0 0 0 8 11 A 1 1 0 0 0 9 10 L 9 7 L 12 7 A 1 1 0 0 0 13 6 A 1 1 0 0 0 12 5 L 9 5 L 9 2 A 1 1 0 0 0 8 1 z M 13.037109 1.0019531 A 1 1 0 0 0 12.035156 1.9980469 A 1 1 0 0 0 13.03125 3.0019531 C 14.566853 3.0067931 15.715749 3.0411871 16.525391 3.1796875 C 17.335032 3.3181878 17.763034 3.5208261 18.121094 3.8789062 C 18.517216 4.2750212 18.732063 4.7681682 18.863281 5.7441406 C 18.9945 6.7201131 19 8.11436 19 10 L 19 13.34375 C 19 13.788084 18.973854 13.816868 18.958984 14.001953 C 17.569593 14.001823 16.49329 13.995553 15.574219 14.119141 C 14.644006 14.244194 13.800908 14.542913 13.171875 15.171875 C 12.542853 15.800897 12.244209 16.645935 12.119141 17.576172 C 11.995143 18.49844 12.001856 19.574221 12.001953 20.970703 C 11.84118 20.981037 11.82298 21 11.455078 21 C 9.8325882 21 8.6339807 20.995822 7.7832031 20.896484 C 6.9324256 20.797146 6.4794798 20.628051 6.1171875 20.335938 C 5.9507816 20.201776 5.7984033 20.049416 5.6640625 19.882812 C 5.3719879 19.520583 5.2028509 19.067593 5.1035156 18.216797 C 5.0041804 17.366 5 16.167422 5 14.544922 L 5 12 A 1 1 0 0 0 4 11 A 1 1 0 0 0 3 12 L 3 14.544922 C 3 16.167422 2.99501 17.40274 3.1171875 18.449219 C 3.2393697 19.495697 3.5134265 20.402001 4.1074219 21.138672 C 4.331101 21.416069 4.5836941 21.66874 4.8613281 21.892578 C 5.5980158 22.486564 6.5062669 22.760625 7.5527344 22.882812 C 8.5992018 23.005 9.8325882 23 11.455078 23 C 12.160678 23 12.631488 23.02005 13.169922 22.830078 A 1.0001 1.0001 0 0 0 13.171875 22.830078 C 13.271445 22.794818 13.369652 22.753568 13.466797 22.707031 C 13.98201 22.460676 14.299928 22.114134 14.798828 21.615234 L 19.535156 16.878906 C 20.113317 16.300845 20.518903 15.929792 20.771484 15.320312 C 21.023949 14.7106 21 14.16125 21 13.34375 L 21 10 C 21 8.11436 21.005431 6.6810632 20.84375 5.4785156 C 20.682069 4.2759681 20.310634 3.2403086 19.535156 2.4648438 C 18.834116 1.7637637 17.912815 1.3865686 16.863281 1.2070312 C 15.813747 1.027494 14.593506 1.0068609 13.037109 1.0019531 z M 17.539062 16.046875 L 14.046875 19.539062 C 14.059445 18.960549 14.050672 18.219957 14.101562 17.841797 C 14.196172 17.138134 14.336259 16.835615 14.585938 16.585938 C 14.835603 16.336299 15.138135 16.19616 15.841797 16.101562 C 16.219956 16.050722 16.960563 16.059445 17.539062 16.046875 z " fill="currentColor"/>
</svg>
