<svg xmlns="http://www.w3.org/2000/svg" width="1em" height="1em" viewBox="0 0 24 24" fill="currentColor">
  <path d="M 11.455078 1 C 9.8325882 1 8.5991987 0.99500499 7.5527344 1.1171875 C 6.5062701 1.23937 5.598017 1.5134548 4.8613281 2.1074219 C 4.5838098 2.331179 4.331179 2.5838098 4.1074219 2.8613281 C 3.5134548 3.598017 3.2393699 4.5062653 3.1171875 5.5527344 C 2.9950051 6.5992035 3 7.8325681 3 9.4550781 L 3 14 C 3 15.8856 2.99457 17.318937 3.15625 18.521484 C 3.3179268 19.724031 3.6893545 20.759713 4.4648438 21.535156 C 5.2403087 22.310634 6.2759729 22.682068 7.4785156 22.84375 C 8.6810584 23.005432 10.11438 23 12 23 C 13.8856 23 15.318935 23.0054 16.521484 22.84375 C 17.724034 22.682069 18.759716 22.310663 19.535156 21.535156 C 20.310663 20.759716 20.682069 19.724034 20.84375 18.521484 C 21.005431 17.318935 21 15.8856 21 14 L 21 10.65625 C 21 9.8387 21.023956 9.2893684 20.771484 8.6796875 C 20.518895 8.070123 20.113277 7.6991741 19.535156 7.1210938 L 14.798828 2.3847656 C 14.299956 1.885914 13.982089 1.5393621 13.466797 1.2929688 C 13.370621 1.2469747 13.270933 1.2075144 13.169922 1.171875 C 12.631476 0.98187736 12.160678 1 11.455078 1 z M 11.455078 3 C 11.82298 3 11.841181 3.0189629 12.001953 3.0292969 C 12.001856 4.4257545 11.995153 5.5035162 12.119141 6.4257812 C 12.24421 7.3560104 12.542845 8.1991092 13.171875 8.828125 C 13.800899 9.4571352 14.643996 9.7557935 15.574219 9.8808594 C 16.493299 10.004427 17.569593 9.9981768 18.958984 9.9980469 C 18.973846 10.183132 19 10.211888 19 10.65625 L 19 14 C 19 15.8856 18.9945 17.279884 18.863281 18.255859 C 18.732063 19.231835 18.517187 19.725034 18.121094 20.121094 C 17.725034 20.517187 17.231835 20.732063 16.255859 20.863281 C 15.279884 20.9945 13.8856 21 12 21 C 10.11438 21 8.7201079 20.9945 7.7441406 20.863281 C 6.7681734 20.732063 6.2750213 20.517216 5.8789062 20.121094 C 5.4828255 19.725037 5.2679344 19.231837 5.1367188 18.255859 C 5.0055032 17.279881 5 15.8856 5 14 L 5 9.4550781 C 5 7.8325681 5.0041805 6.633989 5.1035156 5.7832031 C 5.2028507 4.9324172 5.3719595 4.4794786 5.6640625 4.1171875 C 5.7983254 3.9506658 5.9506658 3.7983254 6.1171875 3.6640625 C 6.4794786 3.3719595 6.9324224 3.2028506 7.7832031 3.1035156 C 8.6339838 3.0041806 9.8325882 3 11.455078 3 z M 14.046875 4.4609375 L 17.539062 7.953125 C 16.960565 7.9405587 16.219951 7.9492793 15.841797 7.8984375 C 15.138145 7.8038334 14.835612 7.6637323 14.585938 7.4140625 C 14.336267 7.1643983 14.196168 6.8618566 14.101562 6.1582031 C 14.050719 5.7800485 14.059442 5.0394407 14.046875 4.4609375 z M 12 11 A 1 1 0 0 0 11 12 L 11 15 A 1 1 0 0 0 12 16 A 1 1 0 0 0 13 15 L 13 12 A 1 1 0 0 0 12 11 z M 12 17.25 C 11.321712 17.25 10.75 17.821712 10.75 18.5 C 10.75 19.178288 11.321712 19.75 12 19.75 C 12.678288 19.75 13.25 19.178288 13.25 18.5 C 13.25 17.821712 12.678288 17.25 12 17.25 z " fill="currentColor"/>
</svg>
