<svg xmlns="http://www.w3.org/2000/svg" width="1em" height="1em" viewBox="0 0 24 24" fill="currentColor">
  <path d="M 13 1 C 12.929838 1 12.862347 1.0103209 12.792969 1.0136719 C 10.401208 1.0160685 8.8068505 1.0420347 7.5078125 1.4980469 C 5.2259041 2.299089 3.4044919 4.0017347 2.5390625 6.1855469 C 1.9836637 7.5870245 2.0023418 9.1678502 2.0039062 11.947266 C 2.0036867 11.9651 2 11.982117 2 12 A 1 1 0 0 0 2.0019531 12.037109 C 2.0019767 12.096027 2 12.1216 2 12.181641 L 2 14.726562 C 2 16.261211 1.99576 17.430916 2.1132812 18.429688 C 2.2307993 19.428459 2.4950446 20.303623 3.0644531 21.019531 C 3.3676251 21.400743 3.7260023 21.737031 4.1269531 22.019531 C 5.6288369 23.07765 7.465332 23 10.726562 23 L 12.5 23 A 1 1 0 0 0 13.5 22 A 1 1 0 0 0 12.5 21 L 10.726562 21 C 7.465332 21 6.0421931 20.922247 5.2792969 20.384766 C 5.0313477 20.210066 4.8134474 20.004979 4.6308594 19.775391 C 4.3525679 19.425499 4.1940163 18.999619 4.0996094 18.197266 C 4.0052024 17.394912 4 16.261212 4 14.726562 L 4 12.181641 C 4 12.120636 3.9999679 12.059671 4 12 C 4 11.994437 3.9999623 11.987975 4 11.982422 C 4.0087884 10.689698 5.0390169 9.6660156 6.3339844 9.6660156 C 6.8829608 9.6660156 7.7386417 9.830939 8.6894531 9.5761719 C 9.6081327 9.3299983 10.33 8.6081402 10.576172 7.6894531 C 10.830942 6.738645 10.666016 5.8829608 10.666016 5.3339844 C 10.666016 4.0589828 11.65942 3.0413867 12.923828 3.0019531 C 13.206245 3.0010648 13.504038 3 13.818359 3 C 15.617459 3 16.432054 3.029528 16.904297 3.1953125 C 17.798622 3.5092555 18.483596 4.1652332 18.802734 4.9707031 C 18.965385 5.3810816 19 6.1251194 19 7.8183594 L 19 9.5 A 1 1 0 0 0 20 10.5 A 1 1 0 0 0 21 9.5 L 21 7.8183594 C 21 6.1251194 21.035458 5.1763565 20.662109 4.234375 C 20.119848 2.865765 18.982081 1.8055507 17.566406 1.3085938 C 16.601849 0.96997837 15.617459 1 13.818359 1 C 13.534658 1 13.399159 1.0098185 13.138672 1.0097656 A 1 1 0 0 0 13 1 z M 9.265625 3.1425781 C 8.8844407 3.7869408 8.6660156 4.5359776 8.6660156 5.3339844 C 8.6660156 6.116588 8.7366612 6.8280431 8.6445312 7.171875 C 8.5824624 7.403508 8.4034954 7.5824652 8.171875 7.6445312 C 7.8280264 7.7366645 7.116588 7.6660156 6.3339844 7.6660156 C 5.5202933 7.6660156 4.7562988 7.8939159 4.1035156 8.2890625 C 4.1626828 7.7160322 4.2552473 7.283197 4.3984375 6.921875 C 5.0407681 5.3010272 6.4093903 4.0027835 8.1699219 3.3847656 C 8.4793878 3.2761312 8.8327703 3.1987682 9.265625 3.1425781 z M 15.046875 12.001953 A 1 1 0 0 0 14.787109 12.023438 A 1 1 0 0 0 14.023438 13.212891 C 14.26269 14.309503 15.115395 16.247583 17 17.501953 L 17 18 L 15.5 18 A 1 1 0 0 0 14.5 19 A 1 1 0 0 0 15.5 20 L 17 20 L 17 22 A 1 1 0 0 0 18 23 A 1 1 0 0 0 19 22 L 19 20 L 20.5 20 A 1 1 0 0 0 21.5 19 A 1 1 0 0 0 20.5 18 L 19 18 L 19 17.501953 C 20.884605 16.247583 21.737311 14.309503 21.976562 13.212891 A 1 1 0 0 0 21.212891 12.023438 A 1 1 0 0 0 20.023438 12.787109 C 19.904381 13.332804 19.165657 14.752478 18 15.660156 C 16.834343 14.752478 16.095619 13.332804 15.976562 12.787109 A 1 1 0 0 0 15.046875 12.001953 z " fill="currentColor"/>
</svg>
