<svg xmlns="http://www.w3.org/2000/svg" width="1em" height="1em" viewBox="0 0 24 24" fill="currentColor">
  <path d="M 11.955078 1 C 10.332588 1 9.0974107 0.99477055 8.0507812 1.1171875 C 7.0041516 1.2396045 6.0979567 1.5144109 5.3613281 2.109375 C 5.083797 2.3335175 4.8311103 2.5873139 4.6074219 2.8652344 C 4.0429441 3.5665698 3.7659804 4.4249314 3.6367188 5.4042969 C 3.5074569 6.3836623 3.5010282 7.5250325 3.5 9 A 1 1 0 0 0 4.5 10 A 1 1 0 0 0 5.5 9 C 5.5010218 7.5342275 5.5164799 6.4438352 5.6191406 5.6660156 C 5.7218013 4.8881961 5.8880934 4.4644452 6.1660156 4.1191406 C 6.3003472 3.9522411 6.4506786 3.8004932 6.6171875 3.6660156 C 6.9795389 3.3733497 7.4325877 3.2030062 8.2832031 3.1035156 C 9.1338186 3.0040251 10.332588 3 11.955078 3 C 12.32167 3 12.339342 3.0190292 12.5 3.0292969 C 12.499909 4.4294363 12.4951 5.5075854 12.619141 6.4316406 C 12.744158 7.3631132 13.043011 8.2079389 13.671875 8.8378906 C 14.300733 9.4678365 15.143808 9.7672677 16.074219 9.8925781 C 16.993485 10.016388 18.069592 10.009896 19.458984 10.009766 C 19.473964 10.195407 19.5 10.225571 19.5 10.671875 L 19.5 14.021484 C 19.5 15.910434 19.4946 17.307095 19.363281 18.285156 C 19.232011 19.263218 19.017375 19.757339 18.621094 20.154297 C 18.074485 20.701916 17.259071 20.925105 15.458984 21 A 1 1 0 0 0 14.5 22.041016 A 1 1 0 0 0 15.541016 23 C 17.48478 22.91913 18.965656 22.638917 20.035156 21.568359 C 20.810475 20.791717 21.18212 19.755045 21.34375 18.550781 C 21.50538 17.346518 21.5 15.910434 21.5 14.021484 L 21.5 10.671875 C 21.5 9.852955 21.52368 9.3034425 21.271484 8.6933594 C 21.019169 8.0833781 20.613275 7.7119009 20.035156 7.1328125 L 15.298828 2.3867188 C 14.799952 1.8869823 14.482214 1.5418253 13.966797 1.2949219 C 13.870641 1.2488626 13.771004 1.2075997 13.669922 1.171875 C 13.131224 0.98145498 12.660678 1 11.955078 1 z M 14.546875 4.4648438 L 18.042969 7.9648438 C 17.462712 7.9522855 16.720713 7.9631429 16.341797 7.9121094 C 15.638333 7.8173648 15.335778 7.6760555 15.085938 7.4257812 C 14.8361 7.175513 14.696219 6.871288 14.601562 6.1660156 C 14.550668 5.7868223 14.559436 5.0447744 14.546875 4.4648438 z M 8 11 C 7.0072538 11 6.3098932 11.515238 5.234375 12.21875 L 4.734375 12.544922 C 3.8624241 13.115236 3.2550554 13.468043 2.859375 14.193359 C 2.4636547 14.918749 2.5 15.620339 2.5 16.648438 L 2.5 17.351562 C 2.5 18.379663 2.463655 19.081251 2.859375 19.806641 C 3.2550554 20.531957 3.8624241 20.884764 4.734375 21.455078 L 5.234375 21.78125 C 6.2587208 22.451295 6.9430791 22.944248 7.8632812 22.990234 A 1 1 0 0 0 8 23 A 1 1 0 0 0 8.1308594 22.992188 C 8.132865 22.992092 8.1347154 22.990334 8.1367188 22.990234 C 9.0569204 22.944248 9.741273 22.451293 10.765625 21.78125 L 11.265625 21.455078 C 12.137533 20.884773 12.744969 20.532065 13.140625 19.806641 C 13.536439 19.081232 13.5 18.379663 13.5 17.351562 L 13.5 16.648438 C 13.5 15.620337 13.53644 14.918768 13.140625 14.193359 C 12.744969 13.467935 12.137533 13.115227 11.265625 12.544922 L 10.765625 12.21875 C 9.6901068 11.515238 8.9927462 11 8 11 z M 8 13 C 8.2183538 13 8.5963932 13.18909 9.671875 13.892578 L 10.171875 14.21875 C 10.364971 14.345052 10.528015 14.453992 10.666016 14.548828 L 8 15.882812 L 5.3339844 14.548828 C 5.4719838 14.453998 5.6350187 14.345054 5.828125 14.21875 L 6.328125 13.892578 C 7.4036068 13.18909 7.7816462 13 8 13 z M 4.5019531 16.369141 L 7 17.617188 L 7 20.535156 C 6.812522 20.419874 6.5911867 20.279496 6.328125 20.107422 L 5.828125 19.78125 C 4.9562159 19.210964 4.692854 18.991893 4.6152344 18.849609 C 4.5376547 18.707399 4.5 18.379663 4.5 17.351562 L 4.5 16.648438 C 4.5 16.548662 4.5012417 16.456194 4.5019531 16.369141 z M 11.498047 16.369141 C 11.498758 16.456194 11.5 16.548662 11.5 16.648438 L 11.5 17.351562 C 11.5 18.379663 11.46235 18.707418 11.384766 18.849609 C 11.307216 18.991785 11.043767 19.210955 10.171875 19.78125 L 9.671875 20.107422 C 9.4088126 20.279495 9.1874775 20.419875 9 20.535156 L 9 17.617188 L 11.498047 16.369141 z " fill="currentColor"/>
</svg>
