<svg xmlns="http://www.w3.org/2000/svg" width="1em" height="1em" viewBox="0 0 24 24" fill="currentColor">
  <path d="M 10.5 1 C 5.2651395 1 1 5.2651395 1 10.5 C 1 15.73486 5.2651395 20 10.5 20 C 11.564225 20 12.588541 19.822908 13.544922 19.498047 A 1 1 0 0 0 13.664062 19.486328 L 19.486328 18.521484 A 1.0001 1.0001 0 0 0 19.494141 18.519531 C 20.305592 18.378355 21 18.961437 21 19.75 C 21 20.444519 20.445555 21 19.71875 21 L 18.699219 21 A 1 1 0 0 0 17.699219 22 A 1 1 0 0 0 18.699219 23 L 19.71875 23 C 21.511545 23 23 21.540481 23 19.75 C 23 17.743486 21.137363 16.209409 19.158203 16.548828 L 19.15625 16.548828 L 17.595703 16.806641 C 19.09037 15.127318 20 12.917503 20 10.5 C 20 5.2651395 15.73486 1 10.5 1 z M 10.5 3 C 14.65398 3 18 6.3460197 18 10.5 C 18 14.65398 14.65398 18 10.5 18 C 6.3460197 18 3 14.65398 3 10.5 C 3 6.3460197 6.3460197 3 10.5 3 z M 7 6 A 1 1 0 0 0 6.2929688 6.2929688 A 1 1 0 0 0 6.2929688 7.7070312 L 7.2929688 8.7070312 A 1 1 0 0 0 8.7070312 8.7070312 A 1 1 0 0 0 8.7070312 7.2929688 L 7.7070312 6.2929688 A 1 1 0 0 0 7 6 z M 14 6 A 1 1 0 0 0 13.292969 6.2929688 L 12.292969 7.2929688 A 1 1 0 0 0 12.292969 8.7070312 A 1 1 0 0 0 13.707031 8.7070312 L 14.707031 7.7070312 A 1 1 0 0 0 14.707031 6.2929688 A 1 1 0 0 0 14 6 z M 10.5 9.5 A 1 1 0 0 0 9.5 10.5 A 1 1 0 0 0 10.5 11.5 L 10.507812 11.5 A 1 1 0 0 0 11.507812 10.5 A 1 1 0 0 0 10.507812 9.5 L 10.5 9.5 z M 8 12 A 1 1 0 0 0 7.2929688 12.292969 L 6.2929688 13.292969 A 1 1 0 0 0 6.2929688 14.707031 A 1 1 0 0 0 7.7070312 14.707031 L 8.7070312 13.707031 A 1 1 0 0 0 8.7070312 12.292969 A 1 1 0 0 0 8 12 z M 13 12 A 1 1 0 0 0 12.292969 12.292969 A 1 1 0 0 0 12.292969 13.707031 L 13.292969 14.707031 A 1 1 0 0 0 14.707031 14.707031 A 1 1 0 0 0 14.707031 13.292969 L 13.707031 12.292969 A 1 1 0 0 0 13 12 z " fill="currentColor"/>
</svg>
