<svg xmlns="http://www.w3.org/2000/svg" width="1em" height="1em" viewBox="0 0 24 24" fill="currentColor">
  <path d="M 8.5 1 C 8.24515 1 8.0844101 0.99753692 7.8828125 1.0214844 C 7.0048465 1.1257365 6.2163575 1.6129266 5.7304688 2.3515625 C 5.6189561 2.5211036 5.5495221 2.6665807 5.4355469 2.8945312 L 5.1328125 3.5 L 3 3.5 A 1 1 0 0 0 2 4.5 A 1 1 0 0 0 3 5.5 L 3 21 A 1 1 0 0 0 2 22 A 1 1 0 0 0 3 23 L 14 23 A 1 1 0 0 0 15 22 A 1 1 0 0 0 14 21 L 14 19 L 15.0625 19 C 15.5339 19 15.907904 19.006402 16.298828 18.951172 C 16.689752 18.895992 17.162904 18.73056 17.494141 18.382812 C 17.825955 18.034346 17.967191 17.57242 18.017578 17.177734 C 18.067968 16.783049 18.0625 16.391181 18.0625 15.894531 C 18.0625 15.436818 18.086888 15.229196 18.089844 15.162109 C 18.144877 15.13495 18.305174 15.041897 18.689453 14.871094 L 19.576172 14.476562 C 20.463743 14.082074 21.140682 13.830555 21.595703 13.109375 C 22.051448 12.387234 22 11.673603 22 10.658203 C 22 9.9131732 22.006185 9.3349447 21.9375 8.796875 C 21.868815 8.2588053 21.690217 7.6968307 21.285156 7.2714844 C 20.880692 6.8468525 20.312254 6.6427689 19.785156 6.5683594 C 19.258058 6.4939498 18.7071 6.5 18 6.5 L 14 6.5 L 14 5.5 A 1 1 0 0 0 15 4.5 A 1 1 0 0 0 14 3.5 L 11.867188 3.5 L 11.564453 2.8945312 C 11.450558 2.6668004 11.38156 2.5217053 11.269531 2.3515625 C 10.783669 1.6128305 9.9951496 1.125736 9.1171875 1.0214844 C 8.9155899 0.99753691 8.75485 1 8.5 1 z M 8.5 3 C 8.75485 3 8.8474169 3.0038425 8.8808594 3.0078125 A 1.0001 1.0001 0 0 0 8.8828125 3.0078125 C 9.1762904 3.0426605 9.4372713 3.2043438 9.5996094 3.4511719 C 9.6056389 3.4603291 9.6153568 3.4754897 9.6289062 3.5 L 7.3710938 3.5 C 7.3845617 3.4756512 7.394263 3.4604882 7.4003906 3.4511719 C 7.562822 3.2042478 7.8237135 3.0426604 8.1171875 3.0078125 A 1.0001 1.0001 0 0 0 8.1191406 3.0078125 C 8.1525862 3.0038399 8.24515 3 8.5 3 z M 5 5.5 L 12 5.5 L 12 7.5 L 12 18 L 12 21 L 5 21 L 5 5.5 z M 14 8.5 L 18 8.5 C 18.7071 8.5 19.216007 8.50596 19.505859 8.546875 C 19.795712 8.587793 19.801001 8.613713 19.835938 8.6503906 C 19.870178 8.6863446 19.911987 8.7284956 19.953125 9.0507812 C 19.994265 9.3730664 20 9.9131732 20 10.658203 C 20 11.673603 19.947747 11.974111 19.904297 12.042969 C 19.860117 12.112989 19.651301 12.255878 18.763672 12.650391 L 17.876953 13.042969 C 17.285272 13.30596 16.754665 13.492743 16.382812 14.082031 C 16.010137 14.672401 16.0625 15.217531 16.0625 15.894531 C 16.0625 16.391181 16.056003 16.744938 16.033203 16.923828 C 16.030973 16.941298 16.029199 16.955595 16.027344 16.96875 C 16.024901 16.969095 16.02211 16.970339 16.019531 16.970703 C 15.865829 16.992393 15.5339 17 15.0625 17 L 14 17 L 14 8.5 z " fill="currentColor"/>
</svg>
