<svg xmlns="http://www.w3.org/2000/svg" width="1em" height="1em" viewBox="0 0 24 24" fill="currentColor">
  <path d="M 3 5 A 1 1 0 0 0 2 6 A 1 1 0 0 0 3 7 L 21 7 A 1 1 0 0 0 22 6 A 1 1 0 0 0 21 5 L 3 5 z M 19.554688 10.005859 C 19.06356 10.005864 18.572114 10.191557 18.203125 10.560547 L 13.943359 14.820312 C 13.676628 15.087044 13.493926 15.427062 13.419922 15.796875 L 13.019531 17.804688 A 1.0001 1.0001 0 0 0 14.195312 18.980469 L 16.203125 18.580078 C 16.572938 18.506078 16.912956 18.323372 17.179688 18.056641 L 21.439453 13.796875 C 22.177432 13.058896 22.177271 11.831775 21.439453 11.09375 L 20.90625 10.560547 C 20.537237 10.191638 20.045816 10.005855 19.554688 10.005859 z M 6 11 A 1 1 0 0 0 5 12 A 1 1 0 0 0 6 13 L 14 13 A 1 1 0 0 0 15 12 A 1 1 0 0 0 14 11 L 6 11 z M 19.554688 12.037109 L 19.962891 12.445312 L 15.785156 16.623047 L 15.275391 16.724609 L 15.376953 16.214844 L 19.554688 12.037109 z M 9 17 A 1 1 0 0 0 8 18 A 1 1 0 0 0 9 19 L 11 19 A 1 1 0 0 0 12 18 A 1 1 0 0 0 11 17 L 9 17 z " fill="currentColor"/>
</svg>
