<svg xmlns="http://www.w3.org/2000/svg" width="1em" height="1em" viewBox="0 0 24 24" fill="currentColor">
  <path d="M 6.234375 2 C 5.41923 2 4.7884211 1.9929977 4.2070312 2.0722656 C 3.6256415 2.1515335 3.0156379 2.3650861 2.5878906 2.8359375 C 2.1601493 3.3067926 2.0089851 3.9449228 2 4.5253906 C 1.9910149 5.1058584 2.0766241 5.7139979 2.1777344 6.5 C 2.2485744 7.0507642 2.4761173 7.6341036 2.8613281 8.0917969 C 3.8395729 9.2540926 5.6654054 11.368043 8.2480469 13.300781 C 8.2497097 13.305108 8.259873 13.321244 8.2617188 13.34375 C 8.5430889 16.781336 8.8017489 19.131783 8.9394531 20.294922 C 9.0145331 20.9292 9.3718417 21.448398 9.8964844 21.753906 C 10.421127 22.059415 11.218352 22.085145 11.802734 21.671875 C 12.170454 21.41183 12.859873 21.05014 13.519531 20.572266 C 14.17919 20.094391 14.905865 19.451656 15.097656 18.427734 C 15.212141 17.816796 15.371919 16.785857 15.552734 15.107422 A 1 1 0 0 0 14.666016 14.005859 A 1 1 0 0 0 13.564453 14.892578 C 13.387868 16.531743 13.232775 17.516685 13.130859 18.060547 C 13.093849 18.258125 12.841095 18.59425 12.345703 18.953125 C 11.926106 19.257092 11.398885 19.552475 10.908203 19.873047 C 10.770563 18.700989 10.527561 16.499147 10.255859 13.179688 C 10.208446 12.600705 9.9348297 12.062271 9.4570312 11.705078 C 7.0677556 9.9187264 5.3497437 7.9419381 4.3925781 6.8046875 C 4.1783089 6.5501008 4.2093694 6.6135297 4.1621094 6.2460938 C 4.0609996 5.4600959 3.9948551 4.8890228 4 4.5566406 C 4.00514 4.2242584 4.0351614 4.2162324 4.0683594 4.1796875 C 4.1015624 4.1431385 4.1295254 4.1022695 4.4785156 4.0546875 C 4.8275063 4.0071054 5.41923 4 6.234375 4 L 17.765625 4 C 18.580775 4 19.172515 4.0071105 19.521484 4.0546875 C 19.870454 4.1022685 19.898461 4.1431605 19.931641 4.1796875 C 19.964861 4.2162455 19.99485 4.2242685 20 4.5566406 C 20.0051 4.8886322 19.93879 5.4595291 19.837891 6.2441406 C 19.811771 6.4467403 19.787386 6.5218959 19.759766 6.5820312 A 1 1 0 0 0 20.251953 7.9082031 A 1 1 0 0 0 21.578125 7.4179688 C 21.717312 7.1149047 21.783181 6.8032203 21.822266 6.5 C 21.923366 5.7139951 22.008998 5.1058708 22 4.5253906 C 21.991011 3.9455085 21.838883 3.3066401 21.412109 2.8359375 C 20.984389 2.3650648 20.374349 2.1515349 19.792969 2.0722656 C 19.211588 1.9929964 18.580775 2 17.765625 2 L 6.234375 2 z M 17.5 7 A 1 1 0 0 0 16.5 8 L 16.5 10.5 L 14 10.5 A 1 1 0 0 0 13 11.5 A 1 1 0 0 0 14 12.5 L 16.5 12.5 L 16.5 15 A 1 1 0 0 0 17.5 16 A 1 1 0 0 0 18.5 15 L 18.5 12.5 L 21 12.5 A 1 1 0 0 0 22 11.5 A 1 1 0 0 0 21 10.5 L 18.5 10.5 L 18.5 8 A 1 1 0 0 0 17.5 7 z " fill="currentColor"/>
</svg>
