<svg xmlns="http://www.w3.org/2000/svg" width="1em" height="1em" viewBox="0 0 24 24" fill="currentColor">
  <path d="M 6.234375 2 C 5.41923 2 4.7884211 1.9929977 4.2070312 2.0722656 C 3.6256415 2.1515335 3.0156379 2.3650861 2.5878906 2.8359375 C 2.1601493 3.3067926 2.0089851 3.9449228 2 4.5253906 C 1.9910149 5.1058584 2.0766241 5.7139979 2.1777344 6.5 C 2.2485744 7.0507642 2.4761173 7.6341036 2.8613281 8.0917969 C 3.8397326 9.2542824 5.6666899 11.367786 8.25 13.300781 L 8.2480469 13.300781 C 8.2497097 13.305108 8.259873 13.321244 8.2617188 13.34375 C 8.5430889 16.781336 8.8017489 19.131783 8.9394531 20.294922 C 9.0145331 20.9292 9.3718417 21.448398 9.8964844 21.753906 C 10.421127 22.059415 11.218352 22.085145 11.802734 21.671875 C 12.170454 21.41183 12.859873 21.05014 13.519531 20.572266 C 14.17919 20.094391 14.905865 19.451656 15.097656 18.427734 C 15.247689 17.627208 15.477544 16.104475 15.726562 13.351562 C 15.728642 13.328887 15.738372 13.313073 15.740234 13.308594 L 15.738281 13.308594 C 18.327275 11.373051 20.156836 9.2559629 21.136719 8.0917969 C 21.522039 7.6340789 21.751375 7.0506919 21.822266 6.5 C 21.923366 5.7139951 22.008998 5.1058708 22 4.5253906 C 21.991011 3.9455085 21.838883 3.3066401 21.412109 2.8359375 C 20.984389 2.3650648 20.374349 2.1515349 19.792969 2.0722656 C 19.211588 1.9929964 18.580775 2 17.765625 2 L 6.234375 2 z M 6.234375 4 L 17.765625 4 C 18.580775 4 19.172515 4.0071105 19.521484 4.0546875 C 19.870454 4.1022685 19.898461 4.1431605 19.931641 4.1796875 C 19.964861 4.2162455 19.99485 4.2242685 20 4.5566406 C 20.0052 4.889013 19.93899 5.4600887 19.837891 6.2460938 C 19.790581 6.6136019 19.821701 6.5501435 19.607422 6.8046875 C 18.649021 7.943332 16.927364 9.9243024 14.533203 11.712891 C 14.059323 12.06704 13.786217 12.59955 13.734375 13.171875 C 13.489393 15.880163 13.264427 17.347873 13.130859 18.060547 C 13.093849 18.258125 12.841095 18.59425 12.345703 18.953125 C 11.926106 19.257092 11.398885 19.552475 10.908203 19.873047 C 10.770563 18.700989 10.527561 16.499147 10.255859 13.179688 C 10.208448 12.600707 9.9348297 12.062271 9.4570312 11.705078 C 7.0677556 9.9187264 5.3497437 7.9419381 4.3925781 6.8046875 C 4.1783089 6.5501008 4.2093694 6.6135297 4.1621094 6.2460938 C 4.0609996 5.4600959 3.9948551 4.8890228 4 4.5566406 C 4.00514 4.2242584 4.0351614 4.2162324 4.0683594 4.1796875 C 4.1015624 4.1431385 4.1295254 4.1022695 4.4785156 4.0546875 C 4.8275063 4.0071054 5.41923 4 6.234375 4 z " fill="currentColor"/>
</svg>
