<svg xmlns="http://www.w3.org/2000/svg" width="1em" height="1em" viewBox="0 0 24 24" fill="currentColor">
  <path d="M 10.429688 0.99414062 C 9.9513573 0.99428837 9.471653 1.0306853 8.9960938 1.1054688 C 7.7279357 1.3048912 6.4871896 1.7742163 5.3671875 2.5351562 A 1 1 0 0 0 5.1015625 3.9238281 A 1 1 0 0 0 6.4902344 4.1894531 C 9.9521858 1.8373709 15.014183 3.1281805 16.832031 6.8554688 A 1 1 0 0 0 18.167969 7.3164062 A 1 1 0 0 0 18.628906 5.9804688 C 17.073364 2.7910074 13.777999 0.99310644 10.429688 0.99414062 z M 10.5 5 A 1 1 0 0 0 9.5 6 A 1 1 0 0 0 10.5 7 C 12.141629 7 13.5 8.3943337 13.5 10.199219 A 1 1 0 0 0 14.5 11.199219 A 1 1 0 0 0 15.5 10.199219 C 15.5 7.3649034 13.276571 5 10.5 5 z M 3.1835938 5.4472656 A 1 1 0 0 0 2.9277344 5.5 A 1 1 0 0 0 2.3574219 6.0097656 C 1.808473 7.1463701 1.5 8.4203475 1.5 9.7578125 L 1.5 14.210938 C 1.5 17.200332 3.0364851 19.850104 5.3671875 21.433594 A 1 1 0 0 0 6.7558594 21.167969 A 1 1 0 0 0 6.4902344 19.779297 C 4.6758368 18.546587 3.5 16.517542 3.5 14.210938 L 3.5 9.7578125 C 3.5 8.7258375 3.735952 7.7531818 4.1582031 6.8789062 A 1 1 0 0 0 3.6914062 5.5449219 A 1 1 0 0 0 3.1835938 5.4472656 z M 6.9160156 7.4003906 A 1 1 0 0 0 6.53125 7.4648438 A 1 1 0 0 0 5.9746094 7.9882812 C 5.6700879 8.6613698 5.5 9.412123 5.5 10.199219 L 5.5 13.800781 C 5.5 16.635085 7.7233994 19 10.5 19 C 10.712616 19 10.923791 18.986164 11.130859 18.958984 A 1 1 0 0 0 11.992188 17.837891 A 1 1 0 0 0 10.869141 16.976562 C 10.748609 16.992387 10.625984 17 10.5 17 C 8.8583206 17 7.5 15.605678 7.5 13.800781 L 7.5 10.199219 C 7.5 9.6979941 7.6077565 9.2305115 7.796875 8.8125 A 1 1 0 0 0 7.296875 7.4882812 A 1 1 0 0 0 6.9160156 7.4003906 z M 18.5 9.3339844 A 1 1 0 0 0 17.5 10.333984 L 17.5 11.5 A 1 1 0 0 0 18.5 12.5 A 1 1 0 0 0 19.5 11.5 L 19.5 10.333984 A 1 1 0 0 0 18.5 9.3339844 z M 10.5 9.5 A 1 1 0 0 0 9.5 10.5 L 9.5 13.5 A 1 1 0 0 0 10.5 14.5 A 1 1 0 0 0 11.5 13.5 L 11.5 10.5 A 1 1 0 0 0 10.5 9.5 z M 17.5 13 C 14.750439 13 12.5 15.250439 12.5 18 C 12.5 20.749561 14.750439 23 17.5 23 C 20.249561 23 22.5 20.749561 22.5 18 C 22.5 15.250439 20.249561 13 17.5 13 z M 17.5 15 C 19.168639 15 20.5 16.331361 20.5 18 C 20.5 19.668639 19.168639 21 17.5 21 C 15.831361 21 14.5 19.668639 14.5 18 C 14.5 16.331361 15.831361 15 17.5 15 z M 16.166016 17 A 1 1 0 0 0 15.166016 18 A 1 1 0 0 0 16.166016 19 L 18.833984 19 A 1 1 0 0 0 19.833984 18 A 1 1 0 0 0 18.833984 17 L 16.166016 17 z M 11.935547 20.849609 A 1 1 0 0 0 11.806641 20.867188 C 11.061651 21.013804 10.285281 21.043599 9.4960938 20.933594 A 1 1 0 0 0 8.3671875 21.785156 A 1 1 0 0 0 9.21875 22.914062 C 10.233083 23.055456 11.237149 23.018259 12.193359 22.830078 A 1 1 0 0 0 12.980469 21.65625 A 1 1 0 0 0 11.935547 20.849609 z " fill="currentColor"/>
</svg>
