<svg xmlns="http://www.w3.org/2000/svg" width="1em" height="1em" viewBox="0 0 24 24" fill="currentColor">
  <path d="M 17.5 1.9550781 C 16.390548 1.9550722 15.281087 2.4794954 14.666016 3.53125 C 13.326726 5.8213747 12.583295 9.0570683 12.228516 12.236328 C 11.873736 15.415588 11.916538 18.487085 12.400391 20.535156 A 1.0001 1.0001 0 0 0 13.816406 21.201172 L 14.814453 20.707031 C 14.957083 20.847505 14.947168 20.869015 15.146484 21.029297 C 15.699207 21.473774 16.471223 22 17.5 22 C 18.528777 22 19.301005 21.473842 19.853516 21.029297 C 20.052755 20.86899 20.042988 20.847527 20.185547 20.707031 L 21.183594 21.201172 A 1.0001 1.0001 0 0 0 22.599609 20.535156 C 23.08346 18.487035 23.126368 15.415609 22.771484 12.236328 C 22.416601 9.0570469 21.673629 5.8213284 20.333984 3.53125 C 19.718789 2.4796504 18.609452 1.9550841 17.5 1.9550781 z M 6.5 2 C 5.4712251 2 4.6990018 2.5261606 4.1464844 2.9707031 C 3.9472424 3.1310085 3.9570144 3.1524736 3.8144531 3.2929688 L 2.8164062 2.7988281 A 1.0001 1.0001 0 0 0 1.4003906 3.4648438 C 0.91653845 5.512959 0.87362293 8.5843945 1.2285156 11.763672 C 1.5834083 14.942949 2.326348 18.178705 3.6660156 20.46875 C 4.8963448 22.572029 8.1038513 22.572262 9.3339844 20.46875 C 10.673277 18.178638 11.416705 14.942923 11.771484 11.763672 C 12.126264 8.5844204 12.083463 5.512899 11.599609 3.4648438 A 1.0001 1.0001 0 0 0 10.183594 2.7988281 L 9.1855469 3.2929688 C 9.0429188 3.1524949 9.0528294 3.1309855 8.8535156 2.9707031 C 8.300799 2.5262244 7.5287749 2 6.5 2 z M 6.5 4 C 6.7416151 4 7.2196885 4.2237756 7.5996094 4.5292969 C 7.9795302 4.8348182 8.2265625 5.1347656 8.2265625 5.1347656 A 1.0001 1.0001 0 0 0 9.4433594 5.3964844 L 9.7871094 5.2265625 C 9.9944328 6.9151857 10.054327 9.128894 9.7851562 11.541016 C 9.4494105 14.549704 8.6821297 17.621296 7.6074219 19.458984 C 7.2209349 20.119872 5.7791889 20.119905 5.3925781 19.458984 C 4.3176127 17.62143 3.5506934 14.549698 3.2148438 11.541016 C 2.9455867 9.1288988 3.0055775 6.9152263 3.2128906 5.2265625 L 3.5566406 5.3964844 A 1.0001 1.0001 0 0 0 4.7734375 5.1347656 C 4.7734375 5.1347656 5.0207406 4.8347544 5.4003906 4.5292969 C 5.7800407 4.2238394 6.2583849 4 6.5 4 z M 17.5 4.0449219 C 17.957198 4.0449509 18.414117 4.2105852 18.607422 4.5410156 C 19.682377 6.3786172 20.449315 9.4502961 20.785156 12.458984 C 21.054406 14.871106 20.994377 17.084767 20.787109 18.773438 L 20.443359 18.603516 A 1.0001 1.0001 0 0 0 19.226562 18.865234 C 19.226562 18.865234 18.979249 19.165249 18.599609 19.470703 C 18.219923 19.776158 17.741623 20 17.5 20 C 17.258377 20 16.780318 19.776226 16.400391 19.470703 C 16.020463 19.165181 15.773437 18.865234 15.773438 18.865234 A 1.0001 1.0001 0 0 0 14.556641 18.603516 L 14.212891 18.773438 C 14.005567 17.084801 13.94567 14.871113 14.214844 12.458984 C 14.55059 9.4502872 15.317868 6.3787209 16.392578 4.5410156 C 16.585807 4.2106002 17.042802 4.0448928 17.5 4.0449219 z M 17.5 6 A 1 1 0 0 0 16.5 7 L 16.5 8 A 1 1 0 0 0 17.5 9 A 1 1 0 0 0 18.5 8 L 18.5 7 A 1 1 0 0 0 17.5 6 z M 6.5 15 A 1 1 0 0 0 5.5 16 L 5.5 17 A 1 1 0 0 0 6.5 18 A 1 1 0 0 0 7.5 17 L 7.5 16 A 1 1 0 0 0 6.5 15 z " fill="currentColor"/>
</svg>
