<svg xmlns="http://www.w3.org/2000/svg" width="1em" height="1em" viewBox="0 0 24 24" fill="currentColor">
  <path d="M 10.435547 1.5 A 1.0001 1.0001 0 0 0 9.9179688 1.6855469 C 6.1661838 4.3653932 3 9.0823669 3 13.5 C 3 18.458737 7.0412835 22.5 12 22.5 C 16.958734 22.5 21 18.458734 21 13.5 C 21 10.176692 19.33602 6.1240788 16.689453 3.609375 A 1.0001 1.0001 0 0 0 15.201172 3.734375 L 13.986328 5.3535156 L 11.289062 1.8847656 A 1.0001 1.0001 0 0 0 10.435547 1.5 z M 10.367188 3.9570312 L 13.210938 7.6132812 A 1.0001 1.0001 0 0 0 14.798828 7.5996094 L 15.962891 6.0488281 C 17.696366 8.1736222 19 11.221608 19 13.5 C 19 17.377866 15.877866 20.5 12 20.5 C 8.1221565 20.5 5 17.377863 5 13.5 C 5 10.367703 7.4411481 6.3869883 10.367188 3.9570312 z M 10.447266 8.4980469 A 1.0001 1.0001 0 0 0 9.7929688 8.7910156 C 8.7664482 9.8175258 7 11.581979 7 14 C 7 16.965687 9.1828708 19.5 12 19.5 C 14.8171 19.5 17 16.965698 17 14 C 17 13.056113 16.783114 12.16077 16.396484 11.376953 A 1.0001 1.0001 0 0 0 14.857422 11.052734 L 13.667969 12.052734 L 11.300781 8.8984375 A 1.0001 1.0001 0 0 0 10.570312 8.5 A 1.0001 1.0001 0 0 0 10.447266 8.4980469 z M 10.453125 11.103516 L 12.699219 14.099609 A 1.0001 1.0001 0 0 0 14.142578 14.265625 L 14.912109 13.617188 C 14.925857 13.752859 15 13.859426 15 14 C 15 16.004902 13.6011 17.5 12 17.5 C 10.398849 17.5 9 16.004913 9 14 C 9 12.989611 9.7032003 11.984519 10.453125 11.103516 z " fill="currentColor"/>
</svg>
