<svg xmlns="http://www.w3.org/2000/svg" width="1em" height="1em" viewBox="0 0 24 24" fill="currentColor">
  <path d="M 14 1 C 13.2523 1 12.713645 0.94045658 12.099609 1.2949219 C 11.799043 1.4684727 11.544082 1.7099734 11.355469 2 L 11 2 C 7.6981141 2 5 4.6981382 5 8 L 5 14 C 5 14.564175 4.5641485 15 4 15 A 1 1 0 0 0 3 16 A 1 1 0 0 0 4 17 C 5.6449915 17 7 15.645025 7 14 L 7 8 C 7 5.7790218 8.7789859 4 11 4 L 11 6 A 1 1 0 0 0 11 6.0078125 C 9.7874998 6.9224646 9 8.373458 9 10 L 9 18 C 9 18.9428 8.9935702 19.670212 9.0820312 20.328125 C 9.1704873 20.986038 9.3963338 21.638521 9.8789062 22.121094 C 10.361479 22.603666 11.013962 22.829512 11.671875 22.917969 C 12.329788 23.006425 13.0572 23 14 23 C 14.9428 23 15.670212 23.006399 16.328125 22.917969 C 16.986038 22.829509 17.638521 22.603666 18.121094 22.121094 C 18.603666 21.638521 18.829512 20.986038 18.917969 20.328125 C 19.006425 19.670211 19 18.9428 19 18 L 19 10 C 19 8.373458 18.2125 6.9224646 17 6.0078125 A 1 1 0 0 0 17 6 L 17 4 L 20 4 A 1 1 0 0 0 21 3 A 1 1 0 0 0 20 2 L 16.644531 2 C 16.455918 1.7099734 16.200957 1.4684727 15.900391 1.2949219 C 15.286355 0.94045658 14.7477 1 14 1 z M 14 3 C 14.630872 3 14.880403 3.0434784 14.908203 3.0371094 L 14.908203 3.0351562 L 14.910156 3.0351562 C 14.932029 3.0496833 14.950358 3.069973 14.964844 3.0917969 L 14.962891 3.0917969 L 14.962891 3.09375 C 14.956485 3.1214912 15 3.3691366 15 4 L 15 5.1015625 C 14.676648 5.0352273 14.342189 5 14 5 C 13.657811 5 13.323352 5.0352273 13 5.1015625 L 13 4 C 13 3.3691366 13.043519 3.1195385 13.037109 3.0917969 L 13.035156 3.0917969 L 13.035156 3.0898438 C 13.049643 3.0680203 13.067975 3.0496835 13.089844 3.0351562 L 13.091797 3.0351562 L 13.091797 3.0371094 L 13.09375 3.0371094 C 13.121556 3.0434788 13.369128 3 14 3 z M 14 7 C 15.668651 7 17 8.3313116 17 10 L 17 12 L 11 12 L 11 10 C 11 8.3313116 12.331349 7 14 7 z M 11 14 L 17 14 L 17 18 C 17 18.9428 16.993497 19.62921 16.935547 20.060547 C 16.877557 20.491884 16.810259 20.603804 16.707031 20.707031 C 16.603804 20.810259 16.491884 20.877553 16.060547 20.935547 C 15.629207 20.99354 14.9428 21 14 21 C 13.0572 21 12.37079 20.99354 11.939453 20.935547 C 11.508116 20.877553 11.396196 20.810259 11.292969 20.707031 C 11.189741 20.603804 11.122447 20.491884 11.064453 20.060547 C 11.00646 19.62921 11 18.9428 11 18 L 11 14 z " fill="currentColor"/>
</svg>
