<svg xmlns="http://www.w3.org/2000/svg" width="1em" height="1em" viewBox="0 0 24 24" fill="currentColor">
  <path d="M 10 2 C 8.6894324 2 7.6336608 2.0889954 6.8613281 2.8613281 C 6.2868988 3.4357575 6.0902901 4.16674 6.0273438 5.0429688 C 5.6761887 5.0619771 5.3472788 5.0895651 5.0351562 5.1289062 C 3.9755087 5.2624686 3.0496463 5.5688061 2.3417969 6.2324219 C 1.6339409 6.8960304 1.2840791 7.8063865 1.1386719 8.8203125 C 0.99326459 9.8342385 1 11.015705 1 12.5625 L 1 14.4375 C 1 15.9843 0.99326398 17.165765 1.1386719 18.179688 C 1.2840794 19.19361 1.6339266 20.103991 2.3417969 20.767578 C 3.049643 21.431218 3.9755045 21.737525 5.0351562 21.871094 C 6.094808 22.004662 7.350085 22 9 22 L 15 22 C 16.6499 22 17.905192 22.0047 18.964844 21.871094 C 20.024495 21.737525 20.950328 21.431193 21.658203 20.767578 C 22.366056 20.103988 22.715925 19.193607 22.861328 18.179688 C 23.006731 17.165768 23 15.9843 23 14.4375 L 23 12.5625 C 23 11.015705 23.006731 9.8342352 22.861328 8.8203125 C 22.715926 7.8063898 22.366042 6.8960336 21.658203 6.2324219 C 20.950325 5.5688312 20.024491 5.2624685 18.964844 5.1289062 C 18.652722 5.0895652 18.323812 5.0619771 17.972656 5.0429688 C 17.90971 4.1667399 17.713101 3.4357575 17.138672 2.8613281 C 16.366339 2.0889954 15.310568 2 14 2 L 10 2 z M 10 4 L 14 4 C 15.171432 4 15.617442 4.1682233 15.724609 4.2753906 C 15.793285 4.3440658 15.886828 4.5513002 15.945312 5 C 15.644905 4.9992255 15.330471 5 15 5 L 9 5 C 8.6695284 5 8.3550939 4.9992255 8.0546875 5 C 8.1131722 4.5513002 8.2067154 4.3440658 8.2753906 4.2753906 C 8.3825579 4.1682233 8.8285676 4 10 4 z M 9 7 L 15 7 C 16.6499 7 17.868291 7.00463 18.714844 7.1113281 C 19.561396 7.218031 19.973694 7.393937 20.291016 7.6914062 C 20.608277 7.9888445 20.77194 8.3303783 20.882812 9.1035156 C 20.993686 9.876653 21 11.015705 21 12.5625 L 21 14.4375 C 21 15.9843 20.9937 17.123354 20.882812 17.896484 C 20.77194 18.669615 20.608263 19.011184 20.291016 19.308594 C 19.97369 19.606078 19.561392 19.781965 18.714844 19.888672 C 17.868295 19.995379 16.6499 20 15 20 L 9 20 C 7.350085 20 6.1317021 19.995378 5.2851562 19.888672 C 4.4386105 19.781965 4.0262582 19.606053 3.7089844 19.308594 C 3.3917246 19.011181 3.2280624 18.669612 3.1171875 17.896484 C 3.0063126 17.123357 3 15.9843 3 14.4375 L 3 12.5625 C 3 11.015705 3.0063123 9.8766496 3.1171875 9.1035156 C 3.2280627 8.3303816 3.3917104 7.9888477 3.7089844 7.6914062 C 4.026255 7.393962 4.4386063 7.2180308 5.2851562 7.1113281 C 6.1317062 7.0046255 7.350085 7 9 7 z M 12 9.5 A 1 1 0 0 0 11 10.5 L 11 12.5 L 9 12.5 A 1 1 0 0 0 8 13.5 A 1 1 0 0 0 9 14.5 L 11 14.5 L 11 16.5 A 1 1 0 0 0 12 17.5 A 1 1 0 0 0 13 16.5 L 13 14.5 L 15 14.5 A 1 1 0 0 0 16 13.5 A 1 1 0 0 0 15 12.5 L 13 12.5 L 13 10.5 A 1 1 0 0 0 12 9.5 z " fill="currentColor"/>
</svg>
