<svg xmlns="http://www.w3.org/2000/svg" width="1em" height="1em" viewBox="0 0 24 24" fill="currentColor">
  <path d="M 12 1 C 5.9367104 1 1 5.9367104 1 12 C 1 18.063244 5.9367044 23 12 23 C 18.06325 23 23 18.06325 23 12 C 23 5.9367044 18.063244 1 12 1 z M 12 3 C 16.982356 3 21 7.0175956 21 12 C 21 16.98235 16.98235 21 12 21 C 7.0175956 21 3 16.982356 3 12 C 3 7.0175896 7.0175896 3 12 3 z M 10 6 A 1.0001 1.0001 0 0 0 9.0195312 6.8046875 L 8.0195312 11.804688 A 1.0001 1.0001 0 0 0 9.5976562 12.802734 C 9.5976562 12.802734 10.745458 12 12 12 C 13.172019 12 14 12.703958 14 14 C 14 15.296042 13.172019 16 12 16 C 11.016667 16 10.596554 15.664198 10.314453 15.341797 C 10.032352 15.019396 9.9707031 14.757812 9.9707031 14.757812 A 1 1 0 0 0 8.7578125 14.029297 A 1 1 0 0 0 8.0292969 15.242188 C 8.0292969 15.242188 8.2176476 15.980604 8.8105469 16.658203 C 9.4034462 17.335802 10.483333 18 12 18 C 14.141781 18 16 16.293758 16 14 C 16 11.706242 14.141781 10 12 10 C 11.335758 10 10.863435 10.217849 10.341797 10.386719 L 10.820312 8 L 15 8 A 1 1 0 0 0 16 7 A 1 1 0 0 0 15 6 L 10 6 z " fill="currentColor"/>
</svg>
