<svg xmlns="http://www.w3.org/2000/svg" width="1em" height="1em" viewBox="0 0 24 24" fill="currentColor">
  <path d="M 2 1 A 1 1 0 0 0 1.2929688 1.2929688 A 1 1 0 0 0 1.2929688 2.7070312 L 6.5449219 7.9589844 L 4.4277344 10.720703 C 3.9436648 11.352253 3.898254 12.144804 4.1503906 12.785156 C 4.4025272 13.425508 5.0550795 14.015625 5.8867188 14.015625 L 9.1191406 14.015625 C 9.1192191 14.019682 9.1191406 14.024226 9.1191406 14.029297 L 9.1191406 20.982422 C 9.1191406 21.809883 9.5963228 22.547829 10.292969 22.849609 C 10.989614 23.15139 11.947213 22.931899 12.460938 22.261719 L 16.099609 17.513672 L 21.292969 22.707031 A 1 1 0 0 0 22.707031 22.707031 A 1 1 0 0 0 22.707031 21.292969 L 16.705078 15.292969 L 2.7070312 1.2929688 A 1 1 0 0 0 2 1 z M 13.148438 1.0214844 C 12.999139 1.0252826 12.848188 1.0466907 12.701172 1.0859375 C 12.309129 1.190595 11.942933 1.4182845 11.693359 1.7558594 L 9.1953125 5.1328125 A 1 1 0 0 0 9.40625 6.53125 A 1 1 0 0 0 10.804688 6.3222656 L 13.005859 3.34375 L 13.005859 10.058594 C 13.005859 11.079522 13.749549 12.085938 14.869141 12.085938 L 17.984375 12.085938 C 17.988575 12.127937 17.993016 12.175768 17.978516 12.195312 L 17.083984 13.40625 A 1 1 0 0 0 17.294922 14.804688 A 1 1 0 0 0 18.693359 14.59375 L 19.587891 13.384766 C 20.058322 12.748633 20.099627 11.971612 19.857422 11.333984 C 19.615217 10.696357 18.97554 10.085938 18.136719 10.085938 L 15.005859 10.085938 C 15.0055 10.078498 15.005859 10.069466 15.005859 10.058594 L 15.005859 3.0292969 C 15.005859 2.2093251 14.555149 1.4687151 13.859375 1.15625 C 13.641946 1.0586047 13.397268 1.015154 13.148438 1.0214844 z M 7.9726562 9.3867188 L 14.673828 16.087891 L 11.119141 20.724609 L 11.119141 14.029297 C 11.119141 12.998034 10.343201 12.015625 9.234375 12.015625 L 6.0117188 12.015625 C 6.0084988 11.986245 6.002855 11.95416 6.015625 11.9375 L 7.9726562 9.3867188 z " fill="currentColor"/>
</svg>
