<svg xmlns="http://www.w3.org/2000/svg" width="1em" height="1em" viewBox="0 0 24 24" fill="currentColor">
  <path d="M 9.0039062 1.9980469 C 8.5006426 1.9965374 7.9861792 1.9977192 7.4648438 2.015625 A 1 1 0 0 0 6.5 3.0488281 A 1 1 0 0 0 7.5351562 4.0136719 C 8.0130608 3.9972577 8.4991773 3.9965564 8.9960938 3.9980469 A 1 1 0 0 0 10 3.0019531 A 1 1 0 0 0 9.0039062 1.9980469 z M 16.464844 2.0039062 C 15.779943 1.9873041 15.116472 2.0058594 14.5 2.0058594 C 13.47224 2.0058594 12.544008 2.136079 11.855469 2.8027344 C 11.166929 3.4693897 11 4.4182481 11 5.5058594 L 11 18.494141 C 11 19.581721 11.166928 20.530625 11.855469 21.197266 C 12.544009 21.863907 13.47224 21.992188 14.5 21.992188 C 15.732934 21.992188 17.155505 22.070287 18.556641 21.785156 C 19.957776 21.500023 21.388511 20.758847 22.263672 19.244141 C 23.060506 17.864979 23 16.299747 23 13.498047 L 23 10.501953 C 23 7.7003032 23.060545 6.1330298 22.263672 4.7539062 C 21.388512 3.2392082 19.957775 2.499995 18.556641 2.2148438 C 17.856074 2.0722681 17.149744 2.0205084 16.464844 2.0039062 z M 4.6699219 2.5390625 A 1 1 0 0 0 4.2949219 2.6445312 C 3.144602 3.2256387 2.2114736 4.1634224 1.6347656 5.3164062 A 1 1 0 0 0 2.0800781 6.6582031 A 1 1 0 0 0 3.421875 6.2109375 C 3.806087 5.4428014 4.4289324 4.81684 5.1953125 4.4296875 A 1 1 0 0 0 5.6386719 3.0859375 A 1 1 0 0 0 4.6699219 2.5390625 z M 14.5 4.0058594 C 15.798757 4.0058594 17.104562 3.9593964 18.158203 4.1738281 C 19.211844 4.3882594 19.96301 4.7723674 20.53125 5.7558594 C 20.940177 6.4635758 21 7.7003032 21 10.501953 L 21 13.498047 C 21 16.299747 20.94022 17.536302 20.53125 18.244141 C 19.963011 19.227634 19.211843 19.611755 18.158203 19.826172 C 17.104563 20.040589 15.798766 19.992188 14.5 19.992188 C 13.66556 19.992188 13.343956 19.852625 13.248047 19.759766 C 13.152137 19.666907 13 19.36456 13 18.494141 L 13 5.5058594 C 13 4.6354007 13.152136 4.3330965 13.248047 4.2402344 C 13.343957 4.1473722 13.66556 4.0058594 14.5 4.0058594 z M 2 8.6660156 A 1 1 0 0 0 1 9.6660156 L 1 14.333984 A 1 1 0 0 0 2 15.333984 A 1 1 0 0 0 3 14.333984 L 3 9.6660156 A 1 1 0 0 0 2 8.6660156 z M 2.4414062 17.181641 A 1 1 0 0 0 2.0644531 17.279297 A 1 1 0 0 0 1.5996094 18.615234 C 2.1732449 19.799716 3.121839 20.762878 4.2949219 21.355469 A 1 1 0 0 0 5.6386719 20.914062 A 1 1 0 0 0 5.1953125 19.570312 C 4.4137554 19.175506 3.7825551 18.533259 3.4003906 17.744141 A 1 1 0 0 0 2.828125 17.234375 A 1 1 0 0 0 2.4414062 17.181641 z M 7.5351562 19.986328 A 1 1 0 0 0 6.5 20.951172 A 1 1 0 0 0 7.4648438 21.984375 C 7.9862057 22.002325 8.5006161 22.003463 9.0039062 22.001953 A 1 1 0 0 0 10 20.998047 A 1 1 0 0 0 8.9960938 20.001953 C 8.4992039 20.003453 8.0130344 20.002785 7.5351562 19.986328 z " fill="currentColor"/>
</svg>
