<svg xmlns="http://www.w3.org/2000/svg" width="1em" height="1em" viewBox="0 0 24 24" fill="currentColor">
  <path d="M 9.6660156 1 A 1 1 0 0 0 8.6660156 2 A 1 1 0 0 0 9.6660156 3 L 14.333984 3 A 1 1 0 0 0 15.333984 2 A 1 1 0 0 0 14.333984 1 L 9.6660156 1 z M 5.7617188 1.5019531 A 1 1 0 0 0 5.3847656 1.5996094 C 4.2003383 2.1732421 3.2371324 3.1218308 2.6445312 4.2949219 A 1 1 0 0 0 3.0859375 5.6386719 A 1 1 0 0 0 4.4296875 5.1953125 C 4.8244863 4.4137836 5.4667667 3.7825579 6.2558594 3.4003906 A 1 1 0 0 0 6.7207031 2.0644531 A 1 1 0 0 0 5.7617188 1.5019531 z M 18.175781 1.5292969 A 1 1 0 0 0 17.919922 1.5800781 A 1 1 0 0 0 17.341797 2.0800781 A 1 1 0 0 0 17.789062 3.421875 C 18.557241 3.8060923 19.183203 4.4289753 19.570312 5.1953125 A 1 1 0 0 0 20.914062 5.6386719 A 1 1 0 0 0 21.355469 4.2949219 C 20.77438 3.1445791 19.836615 2.2095152 18.683594 1.6328125 A 1 1 0 0 0 18.175781 1.5292969 z M 3.0488281 6.5 A 1 1 0 0 0 2.015625 7.4648438 C 1.9977301 7.9861659 1.9965475 8.500656 1.9980469 9.0039062 A 1 1 0 0 0 3.0019531 10 A 1 1 0 0 0 3.9980469 8.9960938 C 3.9965663 8.4991638 3.9972668 8.0130742 4.0136719 7.5351562 A 1 1 0 0 0 3.0488281 6.5 z M 20.951172 6.5 A 1 1 0 0 0 19.986328 7.5351562 C 20.002778 8.0129012 20.003443 8.4990706 20.001953 8.9960938 A 1 1 0 0 0 20.998047 10 A 1 1 0 0 0 22.001953 9.0039062 C 22.003453 8.5007493 22.00233 7.986339 21.984375 7.4648438 A 1 1 0 0 0 20.951172 6.5 z M 5.5058594 11 C 4.4786596 11 3.5493594 11.12968 2.8613281 11.796875 C 2.1732969 12.46407 2.0078125 13.411797 2.0078125 14.5 C 2.0078125 15.732893 1.9296905 17.155509 2.2148438 18.556641 C 2.4999972 19.957772 3.2411748 21.388459 4.7558594 22.263672 C 6.1349829 23.060545 7.7003032 23 10.501953 23 L 13.498047 23 C 16.299747 23 17.864979 23.06051 19.244141 22.263672 C 20.758825 21.388463 21.500023 19.957764 21.785156 18.556641 C 22.07029 17.155518 21.992188 15.732934 21.992188 14.5 C 21.992188 13.472195 21.863923 12.544005 21.197266 11.855469 C 20.530608 11.166933 19.581704 11 18.494141 11 L 5.5058594 11 z M 5.5058594 13 L 18.494141 13 C 19.364577 13 19.666923 13.152158 19.759766 13.248047 C 19.852606 13.343937 19.992188 13.665505 19.992188 14.5 C 19.992188 15.798766 20.040587 17.102623 19.826172 18.15625 C 19.611755 19.209877 19.227656 19.962959 18.244141 20.53125 C 17.536302 20.940216 16.299747 21 13.498047 21 L 10.501953 21 C 7.7003032 21 6.4635758 20.940177 5.7558594 20.53125 C 4.772354 19.962963 4.3882621 19.209894 4.1738281 18.15625 C 3.9593942 17.102606 4.0078125 15.798707 4.0078125 14.5 C 4.0078125 13.628603 4.1581 13.325327 4.2539062 13.232422 C 4.3497125 13.139517 4.6722691 13 5.5058594 13 z " fill="currentColor"/>
</svg>
