<svg xmlns="http://www.w3.org/2000/svg" width="1em" height="1em" viewBox="0 0 24 24" fill="currentColor">
  <path d="M 5.5 1 A 1 1 0 0 0 4.5 2 L 4.5 4 L 4.5 15.5 C 4.5 19.630333 7.8697189 23 12 23 C 16.130324 23 19.5 19.630324 19.5 15.5 L 19.5 8 C 19.5 7.05719 19.506399 6.3297904 19.417969 5.671875 C 19.329511 5.0139596 19.103678 4.3614738 18.621094 3.8789062 C 18.13852 3.3963404 17.486036 3.170486 16.828125 3.0820312 C 16.170214 2.9935763 15.4428 3 14.5 3 L 6.5 3 L 6.5 2 A 1 1 0 0 0 5.5 1 z M 6.5 5 L 14.5 5 C 15.4428 5 16.129208 5.0064601 16.560547 5.0644531 C 16.991886 5.1224461 17.103805 5.1897446 17.207031 5.2929688 C 17.310247 5.3961812 17.377553 5.5081136 17.435547 5.9394531 C 17.49354 6.3707928 17.5 7.05719 17.5 8 L 17.5 15.5 C 17.5 18.549476 15.049476 21 12 21 C 8.9505811 21 6.5 18.549467 6.5 15.5 L 6.5 5 z M 9.9277344 6 C 9.5287544 6 9.2442574 5.9698073 8.8398438 6.1113281 C 8.2660531 6.3120999 7.8120999 6.7660531 7.6113281 7.3398438 C 7.4698073 7.7442575 7.5 8.0287544 7.5 8.4277344 L 7.5 9 C 7.5 9.4645 7.4929297 9.7309531 7.5429688 10.046875 C 7.7795542 11.540576 8.9593764 12.720482 10.453125 12.957031 C 10.742144 13.002841 10.913131 12.992084 11.189453 12.996094 C 11.465775 13.000105 11.76775 13 12 13 C 12.23225 13 12.534225 13.000096 12.810547 12.996094 C 13.086869 12.992094 13.257856 13.002891 13.546875 12.957031 C 15.040607 12.720481 16.220482 11.540614 16.457031 10.046875 C 16.507112 9.7308709 16.5 9.4645 16.5 9 L 16.5 8.4277344 C 16.5 8.0287544 16.53012 7.744199 16.388672 7.3398438 C 16.18787 6.7659113 15.733863 6.3121054 15.160156 6.1113281 C 14.755789 5.96985 14.471266 6 14.072266 6 L 9.9277344 6 z M 9.9277344 8 L 14.072266 8 C 14.294618 8 14.428281 8.0087389 14.488281 8.0117188 C 14.491263 8.0717319 14.5 8.2054038 14.5 8.4277344 L 14.5 9 C 14.5 9.4645 14.493902 9.6616901 14.482422 9.734375 C 14.381118 10.374073 13.886992 10.86993 13.25 10.978516 C 13.221406 10.976761 12.990007 10.993112 12.783203 10.996094 C 12.528677 10.999788 12.23225 11 12 11 C 11.76775 11 11.471325 10.99978 11.216797 10.996094 C 11.009993 10.993087 10.778595 10.976751 10.75 10.978516 L 10.748047 10.978516 C 10.111034 10.869922 9.6189051 10.374111 9.5175781 9.734375 C 9.5060545 9.6616169 9.5 9.4645 9.5 9 L 9.5 8.4277344 C 9.5 8.2054527 9.5087321 8.0717569 9.5117188 8.0117188 C 9.5717569 8.008732 9.7054527 8 9.9277344 8 z M 11 17 A 1 1 0 0 0 10 18 A 1 1 0 0 0 11 19 L 13 19 A 1 1 0 0 0 14 18 A 1 1 0 0 0 13 17 L 11 17 z " fill="currentColor"/>
</svg>
