<svg xmlns="http://www.w3.org/2000/svg" width="1em" height="1em" viewBox="0 0 24 24" fill="currentColor">
  <path d="M 10 1 C 9.1030983 1 8.2976251 1.0461249 7.671875 1.671875 C 7.2889559 2.0547941 7.123805 2.5046663 7.0527344 3.0019531 C 6.5392985 3.0074785 6.0911193 3.0256649 5.671875 3.0820312 C 5.0139614 3.1704859 4.3614753 3.3963288 3.8789062 3.8789062 C 3.3963287 4.3614753 3.170486 5.0139614 3.0820312 5.671875 C 2.9935764 6.3297886 3 7.05719 3 8 C 3 8.94281 2.9935802 9.6702156 3.0820312 10.328125 C 3.1704863 10.986034 3.3963445 11.638524 3.8789062 12.121094 C 4.3614738 12.603678 5.0139596 12.829512 5.671875 12.917969 C 6.3297907 13.006425 7.05719 13 8 13 L 8.3085938 13 C 8.3529284 13.071816 8.399917 13.139113 8.4472656 13.201172 C 8.678637 13.504427 8.9415518 13.757973 9.265625 14.082031 L 9.9179688 14.734375 C 10.242019 15.058425 10.495582 15.321365 10.798828 15.552734 C 10.860887 15.600084 10.928184 15.647071 11 15.691406 L 11 17 L 10 17 C 9.1031043 17 8.2976324 17.046126 7.671875 17.671875 C 7.0461176 18.297624 7 19.103085 7 20 C 7 20.896915 7.0461176 21.702376 7.671875 22.328125 C 8.2976324 22.953874 9.1031043 23 10 23 L 14 23 C 14.896909 23 15.702368 22.95388 16.328125 22.328125 C 16.71105 21.9452 16.876197 21.495335 16.947266 20.998047 C 17.460699 20.992517 17.908883 20.974319 18.328125 20.917969 C 18.986038 20.829509 19.638521 20.603666 20.121094 20.121094 C 20.603666 19.638521 20.829512 18.986038 20.917969 18.328125 C 21.006425 17.670211 21 16.9428 21 16 C 21 15.0572 21.006399 14.329788 20.917969 13.671875 C 20.829509 13.013962 20.603666 12.361479 20.121094 11.878906 C 19.63852 11.396334 18.986038 11.170488 18.328125 11.082031 C 17.670212 10.993575 16.9428 11 16 11 L 15.691406 11 C 15.647071 10.928184 15.600084 10.860887 15.552734 10.798828 C 15.321365 10.495582 15.058425 10.242019 14.734375 9.9179688 L 14.082031 9.265625 C 13.757973 8.9415518 13.504427 8.678637 13.201172 8.4472656 C 13.139113 8.399917 13.071816 8.3529284 13 8.3085938 L 13 7 L 14 7 C 14.896915 7 15.702376 6.9538824 16.328125 6.328125 C 16.953874 5.7023676 17 4.8968957 17 4 C 17 3.1031043 16.953874 2.2976324 16.328125 1.671875 C 15.702376 1.0461176 14.896915 1 14 1 L 10 1 z M 10 3 L 14 3 C 14.609268 3 14.855702 3.0805227 14.908203 3.0917969 C 14.919477 3.1442979 15 3.3907365 15 4 C 15 4.6092635 14.919477 4.8557024 14.908203 4.9082031 C 14.855702 4.9194775 14.609268 5 14 5 L 12 5 L 10 5 C 9.3907225 5 9.1442906 4.9194747 9.0917969 4.9082031 C 9.0805252 4.8557093 9 4.6092772 9 4 C 9 3.3907228 9.0805252 3.1442907 9.0917969 3.0917969 C 9.1442906 3.0805253 9.3907225 3 10 3 z M 7.0527344 5.0058594 C 7.1243851 5.5002451 7.2908354 5.9470854 7.671875 6.328125 C 8.2976251 6.9538751 9.1030983 7 10 7 L 11 7 L 11 8.3085938 C 10.928184 8.3529284 10.860887 8.399917 10.798828 8.4472656 C 10.495573 8.678637 10.242027 8.9415518 9.9179688 9.265625 L 9.265625 9.9179688 C 8.9415518 10.242027 8.678637 10.495573 8.4472656 10.798828 C 8.399917 10.860887 8.3529284 10.928184 8.3085938 11 L 8 11 C 7.05719 11 6.3707927 10.99354 5.9394531 10.935547 C 5.5081136 10.877553 5.3961812 10.810247 5.2929688 10.707031 C 5.1897404 10.603801 5.1224456 10.491882 5.0644531 10.060547 C 5.0064606 9.6292112 5 8.94281 5 8 C 5 7.05719 5.0064604 6.3707945 5.0644531 5.9394531 C 5.1224459 5.5081117 5.1897562 5.3961796 5.2929688 5.2929688 C 5.3961796 5.1897562 5.5081117 5.1224459 5.9394531 5.0644531 C 6.2101184 5.0280629 6.5808768 5.012804 7.0527344 5.0058594 z M 12 10.048828 C 12.12323 10.144458 12.349666 10.36137 12.667969 10.679688 L 13.320312 11.332031 C 13.638623 11.650342 13.855534 11.876761 13.951172 12 C 13.855532 12.123239 13.638622 12.349658 13.320312 12.667969 L 12.667969 13.320312 C 12.349658 13.638623 12.123239 13.855534 12 13.951172 C 11.876761 13.855534 11.650342 13.638623 11.332031 13.320312 L 10.679688 12.667969 C 10.36137 12.349666 10.144457 12.12323 10.048828 12 C 10.144458 11.87677 10.36137 11.650334 10.679688 11.332031 L 11.332031 10.679688 C 11.650334 10.36137 11.87677 10.144457 12 10.048828 z M 15.691406 13 L 16 13 C 16.9428 13 17.62921 13.006503 18.060547 13.064453 C 18.491884 13.122443 18.603804 13.189741 18.707031 13.292969 C 18.810259 13.396196 18.877553 13.508116 18.935547 13.939453 C 18.99354 14.370793 19 15.0572 19 16 C 19 16.9428 18.993497 17.62921 18.935547 18.060547 C 18.877557 18.491884 18.810259 18.603804 18.707031 18.707031 C 18.603804 18.810259 18.491884 18.877553 18.060547 18.935547 C 17.789883 18.971937 17.419122 18.987196 16.947266 18.994141 C 16.875616 18.499756 16.709169 18.052919 16.328125 17.671875 C 15.702368 17.046118 14.896909 17 14 17 L 13 17 L 13 15.691406 C 13.071816 15.647071 13.139113 15.600084 13.201172 15.552734 C 13.504418 15.321365 13.757981 15.058425 14.082031 14.734375 L 14.734375 14.082031 C 15.058425 13.757981 15.321365 13.504418 15.552734 13.201172 C 15.600084 13.139113 15.647071 13.071816 15.691406 13 z M 10 19 L 12 19 L 14 19 C 14.609255 19 14.855696 19.080519 14.908203 19.091797 C 14.919479 19.144303 15 19.390745 15 20 C 15 20.609255 14.919481 20.855696 14.908203 20.908203 C 14.855697 20.91948 14.609255 21 14 21 L 10 21 C 9.3907365 21 9.1442976 20.919477 9.0917969 20.908203 C 9.0805225 20.855703 9 20.609268 9 20 C 9 19.390732 9.0805225 19.144298 9.0917969 19.091797 C 9.1442976 19.080523 9.3907365 19 10 19 z " fill="currentColor"/>
</svg>
