<svg xmlns="http://www.w3.org/2000/svg" width="1em" height="1em" viewBox="0 0 24 24" fill="currentColor">
  <path d="M 15.5 1 C 13.925775 1 12.580692 2.0601122 12.146484 3.5 L 9.5 3.5 C 8.09554 3.5 7.1948867 3.4306275 6.3339844 4.0058594 C 6.0064319 4.2247277 5.7247277 4.5064319 5.5058594 4.8339844 C 5.0635024 5.4960237 5.0026972 6.1814705 4.9980469 7.1015625 C 2.7243251 7.5691356 1 9.5934232 1 12 C 1 14.406548 2.7243219 16.430857 4.9980469 16.898438 C 5.0026814 17.818501 5.0634507 18.503964 5.5058594 19.166016 C 5.7247339 19.493607 6.0063879 19.775273 6.3339844 19.994141 C 7.1948898 20.569443 8.09554 20.5 9.5 20.5 L 12.146484 20.5 C 12.580692 21.939885 13.925773 23 15.5 23 C 17.074227 23 18.419308 21.939885 18.853516 20.5 L 22 20.5 A 1 1 0 0 0 23 19.5 A 1 1 0 0 0 22 18.5 L 18.853516 18.5 C 18.419308 17.060115 17.074227 16 15.5 16 C 13.925773 16 12.580692 17.060115 12.146484 18.5 L 9.5 18.5 C 8.09554 18.5 7.593307 18.430929 7.4453125 18.332031 C 7.336149 18.259099 7.2409342 18.165849 7.1679688 18.056641 C 7.0939641 17.945894 7.0358613 17.635445 7.0117188 16.896484 C 9.2804273 16.424979 11 14.40297 11 12 C 11 9.5970013 9.280425 7.5750128 7.0117188 7.1035156 C 7.0358442 6.3645716 7.0939095 6.0541979 7.1679688 5.9433594 C 7.2409405 5.8341518 7.336105 5.7409406 7.4453125 5.6679688 C 7.5933102 5.5690807 8.09554 5.5 9.5 5.5 L 12.146484 5.5 C 12.580692 6.9398878 13.925775 8 15.5 8 C 17.074225 8 18.419308 6.9398878 18.853516 5.5 L 22 5.5 A 1 1 0 0 0 23 4.5 A 1 1 0 0 0 22 3.5 L 18.853516 3.5 C 18.419308 2.0601122 17.074225 1 15.5 1 z M 15.5 3 C 16.340254 3 17 3.6597366 17 4.5 C 17 5.3402634 16.340254 6 15.5 6 C 14.659746 6 14 5.3402634 14 4.5 C 14 3.6597366 14.659746 3 15.5 3 z M 6 9 C 7.6687004 9 9 10.3313 9 12 C 9 13.668651 7.6686884 15 6 15 C 4.3313116 15 3 13.668651 3 12 C 3 10.3313 4.3312996 9 6 9 z M 15.5 18 C 16.34025 18 17 18.65975 17 19.5 C 17 20.34025 16.34025 21 15.5 21 C 14.659752 21 14.000003 20.340248 14 19.5 C 14 18.65975 14.65975 18 15.5 18 z " fill="currentColor"/>
</svg>
