<svg xmlns="http://www.w3.org/2000/svg" width="1em" height="1em" viewBox="0 0 24 24" fill="currentColor">
  <path d="M 6.5 2 C 5.67504 2 5.037099 1.992965 4.4472656 2.0722656 C 3.8574322 2.1515663 3.2506485 2.3587352 2.8046875 2.8046875 C 2.3587352 3.2506485 2.1515663 3.8574322 2.0722656 4.4472656 C 1.992965 5.037099 2 5.67504 2 6.5 C 2 7.32496 1.9929696 7.962901 2.0722656 8.5527344 C 2.1515666 9.1425678 2.3587352 9.749351 2.8046875 10.195312 C 3.2506485 10.641265 3.8574322 10.848434 4.4472656 10.927734 C 5.0370986 11.007035 5.67504 11 6.5 11 C 7.32496 11 7.962901 11.007004 8.5527344 10.927734 C 9.1425678 10.848434 9.749351 10.641265 10.195312 10.195312 C 10.641265 9.749355 10.848434 9.1425678 10.927734 8.5527344 C 10.971841 8.2246722 10.989338 7.8817278 10.996094 7.5 L 13.113281 7.5 C 13.497724 9.1751204 14.82488 10.502276 16.5 10.886719 L 16.5 13.003906 C 16.118276 13.010668 15.775331 13.028176 15.447266 13.072266 C 14.857422 13.151576 14.25063 13.358657 13.804688 13.804688 C 13.358657 14.25063 13.151574 14.857422 13.072266 15.447266 C 13.028155 15.775329 13.010661 16.118276 13.003906 16.5 L 10.996094 16.5 C 10.989332 16.118274 10.971824 15.775327 10.927734 15.447266 C 10.848434 14.85743 10.641315 14.250637 10.195312 13.804688 C 9.7493624 13.358708 9.1425762 13.151574 8.5527344 13.072266 C 7.9628926 12.992958 7.32496 13 6.5 13 C 5.67504 13 5.0371074 12.992996 4.4472656 13.072266 C 3.8574238 13.151576 3.2506411 13.358707 2.8046875 13.804688 C 2.3586848 14.250634 2.1515663 14.85743 2.0722656 15.447266 C 1.9929649 16.037101 2 16.67505 2 17.5 C 2 18.32495 1.9929596 18.962899 2.0722656 19.552734 C 2.1515666 20.14257 2.3586848 20.749363 2.8046875 21.195312 C 3.2506411 21.641292 3.8574238 21.848426 4.4472656 21.927734 C 5.037107 22.007042 5.67504 22 6.5 22 C 7.32496 22 7.9628926 22.007004 8.5527344 21.927734 C 9.1425762 21.848424 9.7493584 21.641292 10.195312 21.195312 C 10.641315 20.749363 10.848434 20.14257 10.927734 19.552734 C 10.971841 19.224675 10.989338 18.881726 10.996094 18.5 L 13.003906 18.5 C 13.010668 18.881724 13.028176 19.224669 13.072266 19.552734 C 13.151576 20.142578 13.358657 20.74937 13.804688 21.195312 C 14.25063 21.641344 14.857422 21.848426 15.447266 21.927734 C 16.037105 22.007042 16.67505 22 17.5 22 C 18.32495 22 18.962891 22.007004 19.552734 21.927734 C 20.142578 21.848424 20.74937 21.641344 21.195312 21.195312 C 21.641344 20.74937 21.848426 20.142578 21.927734 19.552734 C 22.007042 18.962895 22 18.32495 22 17.5 C 22 16.67505 22.007004 16.037109 21.927734 15.447266 C 21.848424 14.857422 21.641344 14.25063 21.195312 13.804688 C 20.749374 13.358657 20.142578 13.151574 19.552734 13.072266 C 19.224669 13.028155 18.881724 13.010661 18.5 13.003906 L 18.5 10.886719 C 20.497025 10.428398 22 8.6300849 22 6.5 C 22 4.026562 19.973438 2 17.5 2 C 15.369915 2 13.571602 3.5029746 13.113281 5.5 L 10.996094 5.5 C 10.989338 5.1182722 10.971841 4.7753278 10.927734 4.4472656 C 10.848434 3.8574322 10.641264 3.2506485 10.195312 2.8046875 C 9.749351 2.3587352 9.1425678 2.1515663 8.5527344 2.0722656 C 7.962901 1.992965 7.32496 2 6.5 2 z M 6.5 4 C 7.32496 4 7.9238453 4.0058505 8.2871094 4.0546875 C 8.6503735 4.1035273 8.714641 4.1521423 8.78125 4.21875 C 8.8478577 4.285359 8.8964732 4.3496265 8.9453125 4.7128906 C 8.9941518 5.0761547 9 5.67504 9 6.5 C 9 7.32496 8.9941518 7.9238453 8.9453125 8.2871094 C 8.8964732 8.6503735 8.8478577 8.714641 8.78125 8.78125 C 8.714641 8.8478577 8.6503735 8.8964732 8.2871094 8.9453125 C 7.9238453 8.9941518 7.32496 9 6.5 9 C 5.67504 9 5.0761547 8.9941518 4.7128906 8.9453125 C 4.3496265 8.8964732 4.285359 8.8478577 4.21875 8.78125 C 4.1521423 8.714641 4.1035268 8.6503735 4.0546875 8.2871094 C 4.0058482 7.9238453 4 7.32496 4 6.5 C 4 5.67504 4.0058482 5.0761547 4.0546875 4.7128906 C 4.1035268 4.3496265 4.1521423 4.285359 4.21875 4.21875 C 4.285359 4.1521423 4.3496265 4.1035268 4.7128906 4.0546875 C 5.0761547 4.0058482 5.67504 4 6.5 4 z M 17.5 4 C 18.892562 4 20 5.107438 20 6.5 C 20 7.8925593 18.892558 8.9999958 17.5 9 C 16.107438 9 15 7.892562 15 6.5 C 15 5.107438 16.107438 4 17.5 4 z M 6.5 15 C 7.32496 15 7.9238537 15.005797 8.2871094 15.054688 C 8.6503651 15.103528 8.7146336 15.152128 8.78125 15.21875 A 1.0001 1.0001 0 0 0 8.78125 15.220703 C 8.847807 15.287253 8.8964732 15.349626 8.9453125 15.712891 C 8.9941518 16.076106 9 16.67505 9 17.5 C 9 18.32495 8.9941495 18.923845 8.9453125 19.287109 C 8.8964735 19.650374 8.8478075 19.712747 8.78125 19.779297 A 1.0001 1.0001 0 0 0 8.78125 19.78125 C 8.7146331 19.847823 8.6503651 19.896471 8.2871094 19.945312 C 7.9238537 19.994155 7.32496 20 6.5 20 C 5.67504 20 5.0761463 19.994155 4.7128906 19.945312 C 4.3496349 19.89647 4.2853664 19.84787 4.21875 19.78125 A 1.0001 1.0001 0 0 0 4.21875 19.779297 C 4.1521927 19.712794 4.1035268 19.650374 4.0546875 19.287109 C 4.0058482 18.923845 4 18.32495 4 17.5 C 4 16.67505 4.0058505 16.076155 4.0546875 15.712891 C 4.1035265 15.349626 4.1521925 15.287253 4.21875 15.220703 A 1.0001 1.0001 0 0 0 4.21875 15.21875 C 4.2853669 15.152177 4.3496349 15.10353 4.7128906 15.054688 C 5.0761463 15.005845 5.67504 15 6.5 15 z M 17.5 15 C 18.32495 15 18.923853 15.005797 19.287109 15.054688 C 19.650366 15.103528 19.71274 15.152178 19.779297 15.21875 A 1.0001 1.0001 0 0 0 19.78125 15.220703 C 19.84782 15.287263 19.896471 15.349634 19.945312 15.712891 C 19.994108 16.076098 20 16.67505 20 17.5 C 20 18.32495 19.994203 18.923853 19.945312 19.287109 C 19.896473 19.650366 19.847822 19.71274 19.78125 19.779297 A 1.0001 1.0001 0 0 0 19.779297 19.78125 C 19.712737 19.84782 19.650366 19.896471 19.287109 19.945312 C 18.923902 19.994108 18.32495 20 17.5 20 C 16.67505 20 16.076147 19.994203 15.712891 19.945312 C 15.349634 19.896473 15.28726 19.847822 15.220703 19.78125 A 1.0001 1.0001 0 0 0 15.21875 19.779297 C 15.152227 19.712789 15.103528 19.650366 15.054688 19.287109 C 15.005845 18.923853 15 18.32495 15 17.5 C 15 16.67505 15.005797 16.076147 15.054688 15.712891 C 15.103528 15.349634 15.152178 15.28726 15.21875 15.220703 A 1.0001 1.0001 0 0 0 15.220703 15.21875 C 15.287263 15.15218 15.349634 15.103528 15.712891 15.054688 C 16.076098 15.005893 16.67505 15 17.5 15 z " fill="currentColor"/>
</svg>
