<svg xmlns="http://www.w3.org/2000/svg" width="1em" height="1em" viewBox="0 0 24 24" fill="currentColor">
  <path d="M 6.9433594 2 C 5.1268794 2 4.0624517 1.9430732 3.0507812 2.5078125 C 2.403094 2.86936 1.869218 3.4029709 1.5078125 4.0507812 C 0.94332075 5.0625978 1 6.1283125 1 7.9453125 L 1 11.001953 C 1 13.359653 0.99312505 15.14783 1.1914062 16.623047 C 1.3896873 18.098264 1.8359285 19.325892 2.7578125 20.248047 C 3.5389059 21.02938 4.5498658 21.476845 5.7246094 21.707031 C 6.8993529 21.937217 8.2686685 21.985406 9.9921875 22 A 1 1 0 0 0 11 21.007812 A 1 1 0 0 0 10.007812 20 C 8.318211 19.985694 7.0389115 19.926279 6.109375 19.744141 C 5.1798385 19.562002 4.6316016 19.293852 4.171875 18.833984 C 3.629289 18.291239 3.3416646 17.60613 3.1738281 16.357422 C 3.0059917 15.108714 3 13.359653 3 11.001953 L 3 7.9453125 C 3 6.1283125 3.057758 5.3769742 3.2539062 5.0253906 C 3.4347006 4.701321 3.7014778 4.4347187 4.0253906 4.2539062 C 4.3767201 4.0577855 5.1268794 4 6.9433594 4 C 8.1071094 4 8.5727763 4.023846 8.8476562 4.1269531 C 9.5470645 4.3893162 9.8960007 5.049995 10.373047 6.0019531 L 8 6.0019531 A 1 1 0 0 0 7 7.0019531 A 1 1 0 0 0 8 8.0019531 L 16.75 8.0019531 C 18.8567 8.0019531 19.711245 8.0704601 20.111328 8.3378906 C 20.32977 8.4838784 20.516328 8.6723054 20.662109 8.890625 C 20.918809 9.2748969 20.999203 10.068694 21 12.003906 L 21 13.001953 A 1 1 0 0 0 22 14.001953 A 1 1 0 0 0 23 13.001953 L 23 12.001953 C 22.999197 10.053565 23.039872 8.847685 22.326172 7.7792969 C 22.034354 7.3422765 21.659415 6.9676735 21.222656 6.6757812 C 20.10954 5.931732 18.8567 6.0019531 16.75 6.0019531 L 12.619141 6.0019531 L 12.261719 5.2871094 C 11.74797 4.2593575 11.126298 2.8449162 9.5507812 2.2539062 C 8.8069412 1.9748931 8.1071094 2 6.9433594 2 z M 17 14 C 13.51433 14 11.199219 17.402344 11.199219 17.402344 A 1.0001 1.0001 0 0 0 11.199219 18.597656 C 11.199219 18.597656 13.51433 22 17 22 C 20.48567 22 22.800781 18.597656 22.800781 18.597656 A 1.0001 1.0001 0 0 0 22.800781 17.402344 C 22.800781 17.402344 20.48567 14 17 14 z M 17 16 C 18.56824 16 19.911233 17.291211 20.583984 18 C 19.911233 18.708789 18.56824 20 17 20 C 15.43176 20 14.088767 18.708789 13.416016 18 C 14.088767 17.291211 15.43176 16 17 16 z M 17 16.75 C 16.321712 16.75 15.75 17.321712 15.75 18 C 15.75 18.678288 16.321712 19.25 17 19.25 C 17.678288 19.25 18.25 18.678288 18.25 18 C 18.25 17.321712 17.678288 16.75 17 16.75 z " fill="currentColor"/>
</svg>
