<svg xmlns="http://www.w3.org/2000/svg" width="1em" height="1em" viewBox="0 0 24 24" fill="currentColor">
  <path d="M 6.9433594 2 C 5.1268894 2 4.0624279 1.9432498 3.0507812 2.5078125 C 2.4031134 2.86925 1.86925 3.4031135 1.5078125 4.0507812 C 0.94324982 5.062428 1 6.1268894 1 7.9433594 L 1 21 A 1 1 0 0 0 2 22 A 1 1 0 0 0 3 21 L 3 7.9433594 C 3 6.1268894 3.0578289 5.3767439 3.2539062 5.0253906 C 3.4346687 4.7014784 3.7014784 4.4346688 4.0253906 4.2539062 C 4.3767439 4.0578289 5.1268894 4 6.9433594 4 C 8.1071094 4 8.5727376 4.0238586 8.8476562 4.1269531 C 9.5470833 4.3892428 9.8960713 5.0484574 10.373047 6 L 8 6 A 1 1 0 0 0 7 7 A 1 1 0 0 0 8 8 L 16.75 8 C 18.8567 8 19.711053 8.070446 20.111328 8.3378906 C 20.329697 8.48379 20.516106 8.6701865 20.662109 8.8886719 C 20.918736 9.2727278 20.999203 10.06539 21 12 A 1 1 0 0 0 22 13 A 1 1 0 0 0 23 12 C 22.999197 10.05221 23.039946 8.8455478 22.326172 7.7773438 C 22.034376 7.3406891 21.659487 6.9656888 21.222656 6.6738281 C 20.109532 5.9300927 18.8567 6 16.75 6 L 12.619141 6 L 12.261719 5.2851562 C 11.747976 4.2577197 11.126236 2.8447118 9.5507812 2.2539062 C 8.8069798 1.9749806 8.1071094 2 6.9433594 2 z M 15 14 A 1 1 0 0 0 14 15 A 1 1 0 0 0 15 16 L 22 16 A 1 1 0 0 0 23 15 A 1 1 0 0 0 22 14 L 15 14 z M 8.9023438 14.003906 C 8.6115957 14.010841 8.3182178 14.027218 8.03125 14.048828 C 6.8833789 14.135258 5.8398438 14.306641 5.8398438 14.306641 A 1 1 0 0 0 5.0136719 15.453125 A 1 1 0 0 0 6.1601562 16.279297 C 6.1601562 16.279297 7.1408117 16.121339 8.1816406 16.042969 C 8.3143804 16.032969 8.4187556 16.041856 8.5507812 16.035156 L 4.2929688 20.292969 A 1 1 0 0 0 4.2929688 21.707031 A 1 1 0 0 0 5.7070312 21.707031 L 9.9648438 17.449219 C 9.9581138 17.581244 9.9670212 17.68562 9.9570312 17.818359 C 9.8786613 18.859188 9.7207031 19.839844 9.7207031 19.839844 A 1 1 0 0 0 10.546875 20.986328 A 1 1 0 0 0 11.693359 20.160156 C 11.693359 20.160156 11.864742 19.116621 11.951172 17.96875 C 11.994392 17.394814 12.018622 16.795392 11.982422 16.242188 C 11.946222 15.688983 11.999622 15.171493 11.414062 14.585938 C 10.828506 14.000381 10.311017 14.05378 9.7578125 14.017578 C 9.4812101 13.999478 9.1930918 13.996971 8.9023438 14.003906 z M 15 17 A 1 1 0 0 0 14 18 A 1 1 0 0 0 15 19 L 22 19 A 1 1 0 0 0 23 18 A 1 1 0 0 0 22 17 L 15 17 z M 15 20 A 1 1 0 0 0 14 21 A 1 1 0 0 0 15 22 L 17.5 22 A 1 1 0 0 0 18.5 21 A 1 1 0 0 0 17.5 20 L 15 20 z " fill="currentColor"/>
</svg>
