<svg xmlns="http://www.w3.org/2000/svg" width="1em" height="1em" viewBox="0 0 24 24" fill="currentColor">
  <path d="M 6.9453125 2 C 5.1283425 2 4.0625867 1.9433186 3.0507812 2.5078125 C 2.402979 2.8692209 1.869355 3.4031165 1.5078125 4.0507812 C 0.94308745 5.0624529 1 6.1268894 1 7.9433594 L 1 11 C 1 13.357 0.99305905 15.144251 1.1914062 16.619141 C 1.389754 18.09403 1.8356538 19.320326 2.7578125 20.242188 C 3.6799446 21.164093 4.9056643 21.610308 6.3808594 21.808594 C 7.8560544 22.00688 9.6442982 22 12.001953 22 L 14.003906 22 A 1 1 0 0 0 15.003906 21 A 1 1 0 0 0 14.003906 20 L 12.001953 20 C 9.6442982 20 7.897115 19.994011 6.6484375 19.826172 C 5.39976 19.658333 4.7146029 19.37072 4.171875 18.828125 C 3.6291637 18.285588 3.341698 17.601776 3.1738281 16.353516 C 3.0059582 15.105255 3 13.357 3 11 L 3 7.9433594 C 3 6.1268894 3.0577912 5.376719 3.2539062 5.0253906 C 3.4347237 4.7014754 3.7013329 4.434698 4.0253906 4.2539062 C 4.3769652 4.0577602 5.1283425 4 6.9453125 4 C 8.1093725 4 8.5745102 4.0238193 8.8496094 4.1269531 C 9.5494176 4.389309 9.8979441 5.048463 10.375 6 L 8.0019531 6 A 1 1 0 0 0 7.0019531 7 A 1 1 0 0 0 8.0019531 8 L 16.753906 8 C 18.861206 8 19.716712 8.070383 20.117188 8.3378906 C 20.33567 8.4838213 20.522043 8.6703035 20.667969 8.8886719 C 20.876388 9.2005229 20.981367 9.7466991 21 11.015625 A 1 1 0 0 0 22.015625 12 A 1 1 0 0 0 23 10.984375 C 22.980233 9.6381809 22.911612 8.6445528 22.332031 7.7773438 C 22.040157 7.3405721 21.66348 6.9656575 21.226562 6.6738281 C 20.113238 5.9301554 18.861206 6 16.753906 6 L 12.621094 6 L 12.263672 5.2851562 C 11.74983 4.2577175 11.12846 2.8446408 9.5527344 2.2539062 C 8.8088336 1.97502 8.1093725 2 6.9453125 2 z M 18.5 12 C 18.226472 12 17.952944 12.068074 17.705078 12.203125 C 17.283705 12.432607 16.37924 12.860466 15.347656 13.044922 C 14.585936 13.181118 14 13.848759 14 14.648438 L 14 16.621094 C 14 18.236368 14.812239 19.493012 15.664062 20.330078 C 16.515884 21.167144 17.425683 21.646778 17.863281 21.855469 C 18.256948 22.04324 18.743052 22.04324 19.136719 21.855469 C 19.574317 21.646778 20.484115 21.167144 21.335938 20.330078 C 22.18776 19.493012 23 18.236368 23 16.621094 L 23 14.648438 C 23 13.848759 22.414064 13.181118 21.652344 13.044922 C 20.62076 12.860466 19.716295 12.432607 19.294922 12.203125 C 19.047056 12.068074 18.773528 12 18.5 12 z M 18.5 14.017578 C 19.006009 14.286207 19.912004 14.659699 21 14.90625 L 21 16.621094 C 21 17.57722 20.540746 18.30571 19.933594 18.902344 C 19.408801 19.418045 18.861547 19.707288 18.5 19.894531 C 18.138453 19.707288 17.591199 19.418045 17.066406 18.902344 C 16.459254 18.30571 16 17.57722 16 16.621094 L 16 14.90625 C 17.087996 14.659699 17.993991 14.286207 18.5 14.017578 z " fill="currentColor"/>
</svg>
