<svg xmlns="http://www.w3.org/2000/svg" width="1em" height="1em" viewBox="0 0 24 24" fill="currentColor">
  <path d="M 6.9453125 2 C 5.1283425 2 4.0625867 1.9433186 3.0507812 2.5078125 C 2.402979 2.8692209 1.869355 3.4031165 1.5078125 4.0507812 C 0.94308745 5.0624529 1 6.1268894 1 7.9433594 L 1 11 C 1 13.357 0.99305905 15.144251 1.1914062 16.619141 C 1.389754 18.09403 1.8356538 19.320326 2.7578125 20.242188 C 3.6799446 21.164093 4.9056643 21.610308 6.3808594 21.808594 C 7.8560544 22.00688 9.6442982 22 12.001953 22 L 15.003906 22 A 1 1 0 0 0 16.003906 21 A 1 1 0 0 0 15.003906 20 L 12.001953 20 C 9.6442982 20 7.897115 19.994011 6.6484375 19.826172 C 5.39976 19.658333 4.7146029 19.37072 4.171875 18.828125 C 3.6291637 18.285588 3.341698 17.601776 3.1738281 16.353516 C 3.0059582 15.105255 3 13.357 3 11 L 3 7.9433594 C 3 6.1268894 3.0577912 5.376719 3.2539062 5.0253906 C 3.4347237 4.7014754 3.7013329 4.434698 4.0253906 4.2539062 C 4.3769652 4.0577602 5.1283425 4 6.9453125 4 C 8.1093725 4 8.5745102 4.0238193 8.8496094 4.1269531 C 9.5494176 4.389309 9.8979441 5.048463 10.375 6 L 8.0019531 6 A 1 1 0 0 0 7.0019531 7 A 1 1 0 0 0 8.0019531 8 L 16.753906 8 C 18.861206 8 19.716712 8.070383 20.117188 8.3378906 C 20.33567 8.4838213 20.522043 8.6703035 20.667969 8.8886719 C 20.876388 9.2005229 20.981367 9.7466991 21 11.015625 A 1 1 0 0 0 22.015625 12 A 1 1 0 0 0 23 10.984375 C 22.980233 9.6381809 22.911612 8.6445528 22.332031 7.7773438 C 22.040157 7.3405721 21.66348 6.9656575 21.226562 6.6738281 C 20.113238 5.9301554 18.861206 6 16.753906 6 L 12.621094 6 L 12.263672 5.2851562 C 11.74983 4.2577175 11.12846 2.8446408 9.5527344 2.2539062 C 8.8088336 1.97502 8.1093725 2 6.9453125 2 z M 19 12 C 18.315253 12 17.958939 12.326987 17.611328 12.623047 C 17.263718 12.919107 16.945981 13.26889 16.642578 13.626953 C 16.035772 14.343079 15.429214 15.152515 15.283203 15.302734 A 1 1 0 0 0 15.302734 16.716797 A 1 1 0 0 0 16.716797 16.697266 C 17.108554 16.294216 17.539801 15.693317 18 15.126953 L 18 21 A 1 1 0 0 0 19 22 A 1 1 0 0 0 20 21 L 20 15.126953 C 20.460199 15.693317 20.891447 16.294217 21.283203 16.697266 A 1 1 0 0 0 22.697266 16.716797 A 1 1 0 0 0 22.716797 15.302734 C 22.570787 15.152516 21.964228 14.343079 21.357422 13.626953 C 21.054019 13.26889 20.736282 12.919107 20.388672 12.623047 C 20.041061 12.326987 19.684747 12 19 12 z " fill="currentColor"/>
</svg>
