<svg xmlns="http://www.w3.org/2000/svg" width="1em" height="1em" viewBox="0 0 24 24" fill="currentColor">
  <path d="M 6.9433594 2 C 5.1268894 2 4.0624279 1.9432498 3.0507812 2.5078125 C 2.4031134 2.86925 1.8672969 3.4031135 1.5058594 4.0507812 C 0.94129666 5.062428 1 6.1268894 1 7.9433594 L 1 11 C 1 13.357 0.99311705 15.14428 1.1914062 16.619141 C 1.3896959 18.094001 1.8358796 19.3203 2.7578125 20.242188 C 3.6797198 21.164121 4.9060029 21.6103 6.3808594 21.808594 C 7.8557158 22.006888 9.642985 22 12 22 L 13 22 A 1 1 0 0 0 14 21 A 1 1 0 0 0 13 20 L 12 20 C 9.642985 20 7.8947654 19.994003 6.6464844 19.826172 C 5.3982033 19.658341 4.7144277 19.370692 4.171875 18.828125 C 3.6293379 18.285614 3.3416561 17.601805 3.1738281 16.353516 C 3.0060001 15.105226 3 13.357 3 11 L 3 7.9433594 C 3 6.1268894 3.0578289 5.3767439 3.2539062 5.0253906 C 3.4346687 4.7014784 3.7014784 4.4346688 4.0253906 4.2539062 C 4.3767439 4.0578289 5.1268894 4 6.9433594 4 C 8.1071094 4 8.5727376 4.0238586 8.8476562 4.1269531 C 9.5470725 4.389241 9.8960709 5.0484571 10.373047 6 L 8 6 A 1 1 0 0 0 7 7 A 1 1 0 0 0 8 8 L 16.75 8 C 18.8567 8 19.711237 8.070534 20.111328 8.3378906 C 20.329697 8.48379 20.516106 8.6701865 20.662109 8.8886719 C 20.918736 9.2727278 20.999203 10.06539 21 12 A 1 1 0 0 0 22 13 A 1 1 0 0 0 23 12 C 22.999197 10.05221 23.039946 8.8455478 22.326172 7.7773438 C 22.034376 7.3406891 21.659487 6.9656888 21.222656 6.6738281 C 20.109547 5.9300048 18.8567 6 16.75 6 L 12.617188 6 L 12.259766 5.2851562 C 11.746023 4.2577197 11.126227 2.8447136 9.5507812 2.2539062 C 8.8069798 1.9749806 8.1071094 2 6.9433594 2 z M 19.441406 12.001953 A 1.0001 1.0001 0 0 0 19.173828 12.025391 A 1.0001 1.0001 0 0 0 18.396484 13 L 18.396484 15.742188 C 18.025402 15.587321 17.622621 15.492188 17.197266 15.492188 C 15.429395 15.492188 14 16.972706 14 18.744141 C 14 20.515575 15.429395 21.996094 17.197266 21.996094 C 18.96519 21.996094 20.396484 20.515575 20.396484 18.744141 L 20.396484 16.033203 L 20.398438 16.035156 L 20.400391 16.037109 C 20.40133 16.038265 20.403439 16.041771 20.404297 16.042969 L 20.40625 16.044922 L 20.408203 16.046875 C 20.813636 16.38344 21.328807 16.699219 22 16.699219 A 1 1 0 0 0 23 15.699219 A 1 1 0 0 0 22.001953 14.699219 L 22.001953 14.697266 C 21.988972 14.690785 21.864382 14.65627 21.685547 14.507812 C 21.481164 14.338145 21.235113 14.05863 21.021484 13.763672 C 20.594227 13.173756 20.296875 12.564453 20.296875 12.564453 A 1.0001 1.0001 0 0 0 19.441406 12.001953 z M 17.197266 17.492188 C 17.857941 17.492188 18.396484 18.027775 18.396484 18.744141 C 18.396484 19.460506 17.857941 19.996094 17.197266 19.996094 C 16.536736 19.996094 16 19.460506 16 18.744141 C 16 18.027775 16.536736 17.492188 17.197266 17.492188 z " fill="currentColor"/>
</svg>
