<svg xmlns="http://www.w3.org/2000/svg" width="1em" height="1em" viewBox="0 0 24 24" fill="currentColor">
  <path d="M 2 1 A 1 1 0 0 0 1.2929688 1.2929688 A 1 1 0 0 0 1.2929688 2.7070312 L 1.9726562 3.3867188 C 1.7965645 3.5910443 1.6404152 3.8131622 1.5078125 4.0507812 C 0.94325185 5.0624243 1 6.1268794 1 7.9433594 L 1 11 C 1 13.357 0.99311705 15.144293 1.1914062 16.619141 C 1.389696 18.093989 1.8359071 19.320263 2.7578125 20.242188 C 3.679719 21.16412 4.9060028 21.6103 6.3808594 21.808594 C 7.855716 22.006888 9.642975 22 12 22 L 13.25 22 C 16.422796 22 18.324734 22.05614 19.855469 21.269531 L 21.292969 22.707031 A 1 1 0 0 0 22.707031 22.707031 A 1 1 0 0 0 22.707031 21.292969 L 20.726562 19.3125 A 1 1 0 0 0 20.689453 19.275391 L 2.7070312 1.2929688 A 1 1 0 0 0 2 1 z M 7 2 A 1 1 0 0 0 6 3 A 1 1 0 0 0 7 4 L 7.5 4 C 8.2801768 4.00488 8.6213803 4.042104 8.8476562 4.1269531 C 9.5980816 4.4083675 9.9367992 5.108024 10.472656 6.1796875 L 10.587891 6.4101562 A 1 1 0 0 0 10 6.9980469 A 1 1 0 0 0 11 7.9980469 L 16.75 7.9980469 C 18.8567 7.9980469 19.711053 8.0684929 20.111328 8.3359375 C 20.329697 8.4818368 20.516106 8.6701865 20.662109 8.8886719 C 20.92953 9.2888882 21 10.141347 21 12.248047 C 21 14.388647 20.9906 15.855039 20.824219 16.832031 A 1 1 0 0 0 21.640625 17.984375 A 1 1 0 0 0 22.794922 17.166016 C 23.01039 15.900408 23 14.388647 23 12.248047 C 23 10.141347 23.069951 8.8904674 22.326172 7.7773438 C 22.034376 7.3406891 21.659487 6.9656888 21.222656 6.6738281 C 20.109532 5.9300927 18.8567 5.9980469 16.75 5.9980469 L 12.617188 5.9980469 L 12.261719 5.2851562 C 11.747976 4.2577197 11.126236 2.8447118 9.5507812 2.2539062 C 8.9360122 2.0233807 8.3338817 2.0048695 7.5058594 2 A 1.0001 1.0001 0 0 0 7.5 2 L 7 2 z M 3.3945312 4.8085938 L 18.298828 19.712891 C 17.311456 19.962915 15.794177 20 13.25 20 L 12 20 C 9.642975 20 7.8947653 19.994003 6.6464844 19.826172 C 5.3982035 19.658341 4.7144285 19.370693 4.171875 18.828125 C 3.6293104 18.285549 3.3416559 17.601793 3.1738281 16.353516 C 3.0060003 15.105239 3 13.357 3 11 L 3 7.9433594 C 3 6.1268794 3.0578269 5.3767476 3.2539062 5.0253906 C 3.2961115 4.9497605 3.3433171 4.8775864 3.3945312 4.8085938 z " fill="currentColor"/>
</svg>
