<svg xmlns="http://www.w3.org/2000/svg" width="1em" height="1em" viewBox="0 0 24 24" fill="currentColor">
  <path d="M 11 1 C 9.9072691 1 9 1.9072936 9 3 L 8 3 C 7.292895 3 6.7424594 2.9943049 6.2207031 3.0644531 C 5.6989468 3.1346014 5.1417712 3.3230726 4.7324219 3.7324219 C 4.3230726 4.1417712 4.1346014 4.6989468 4.0644531 5.2207031 C 3.9943049 5.7424594 4 6.292895 4 7 A 1 1 0 0 0 5 8 A 1 1 0 0 0 6 7 C 6 6.292895 6.0071883 5.7834676 6.046875 5.4882812 C 6.0865617 5.193095 6.1164937 5.1764751 6.1464844 5.1464844 C 6.1764751 5.1164937 6.1930951 5.0865617 6.4882812 5.046875 C 6.7834676 5.0071883 7.292895 5 8 5 L 9 5 C 9 6.0927064 9.9072691 7 11 7 L 13 7 C 14.092731 7 15 6.0927064 15 5 L 16 5 C 16.7071 5 17.216526 5.00719 17.511719 5.046875 C 17.806912 5.086562 17.823479 5.1164524 17.853516 5.1464844 C 17.883496 5.1764664 17.913435 5.1930854 17.953125 5.4882812 C 17.992808 5.7834777 18 6.292895 18 7 A 1 1 0 0 0 19 8 A 1 1 0 0 0 20 7 C 20 6.292895 20.005687 5.7424496 19.935547 5.2207031 C 19.865406 4.6989566 19.676899 4.1417798 19.267578 3.7324219 C 18.858214 3.3231141 18.301054 3.1346008 17.779297 3.0644531 C 17.25754 2.9943054 16.7071 3 16 3 L 15 3 C 15 1.9072936 14.092731 1 13 1 L 11 1 z M 11 3 L 13 3 L 13 5 L 11 5 L 11 3 z M 4 9 C 2.9072936 9 2 9.9072691 2 11 L 2 13 C 2 14.092731 2.9072936 15 4 15 L 6 15 C 7.0927064 15 8 14.092731 8 13 L 8 11 C 8 9.9072691 7.0927064 9 6 9 L 4 9 z M 18 9 C 16.907293 9 16 9.9072932 16 11 L 16 13 C 16 14.092707 16.907293 15 18 15 L 20 15 C 21.092707 15 22 14.092707 22 13 L 22 11 C 22 9.9072932 21.092707 9 20 9 L 18 9 z M 4 11 L 6 11 L 6 13 L 4 13 L 4 11 z M 10 11 A 1 1 0 0 0 9 12 A 1 1 0 0 0 10 13 L 14 13 A 1 1 0 0 0 15 12 A 1 1 0 0 0 14 11 L 10 11 z M 18 11 L 20 11 L 20 13 L 18 13 L 18 11 z M 5 16 A 1 1 0 0 0 4 17 C 4 17.7071 3.9943101 18.25754 4.0644531 18.779297 C 4.1346011 19.301054 4.3231141 19.858214 4.7324219 20.267578 C 5.1417798 20.676899 5.6989566 20.865406 6.2207031 20.935547 C 6.7424497 21.005687 7.292895 21 8 21 L 9 21 C 9 22.092707 9.9072932 23 11 23 L 13 23 C 14.092707 23 15 22.092707 15 21 L 16 21 C 16.7071 21 17.25755 21.005697 17.779297 20.935547 C 18.301044 20.865407 18.858206 20.676857 19.267578 20.267578 C 19.676857 19.858206 19.865407 19.301044 19.935547 18.779297 C 20.005687 18.257547 20 17.7071 20 17 A 1 1 0 0 0 19 16 A 1 1 0 0 0 18 17 C 18 17.7071 17.992795 18.216516 17.953125 18.511719 C 17.913445 18.806922 17.883536 18.823488 17.853516 18.853516 C 17.823486 18.883536 17.806926 18.913435 17.511719 18.953125 C 17.216512 18.992809 16.7071 19 16 19 L 15 19 C 15 17.907293 14.092707 17 13 17 L 11 17 C 9.9072932 17 9 17.907293 9 19 L 8 19 C 7.292895 19 6.7834773 18.992795 6.4882812 18.953125 C 6.1930853 18.913445 6.1764664 18.883496 6.1464844 18.853516 C 6.1164524 18.823476 6.086562 18.806916 6.046875 18.511719 C 6.0071873 18.216522 6 17.7071 6 17 A 1 1 0 0 0 5 16 z M 11 19 L 13 19 L 13 21 L 11 21 L 11 19 z " fill="currentColor"/>
</svg>
