<svg xmlns="http://www.w3.org/2000/svg" width="1em" height="1em" viewBox="0 0 24 24" fill="currentColor">
  <path d="M 10.4375 3 C 9.8354172 3 9.1840727 3.1976087 8.6992188 3.6210938 C 8.2143647 4.0445787 7.900001 4.608475 7.6269531 5.2988281 C 7.3346199 6.0379408 7.0403816 7.6064871 6.7675781 8.7773438 L 4.9160156 8.7773438 A 1 1 0 0 0 3.9160156 9.7773438 A 1 1 0 0 0 4.9160156 10.777344 L 6.2734375 10.777344 C 6.1821155 11.213155 6.1227163 11.308257 6.0214844 11.796875 C 5.3775639 14.904888 4.9324524 16.901105 4.5117188 17.964844 C 4.3013519 18.496713 4.1057404 18.766798 3.9863281 18.871094 C 3.8669158 18.97539 3.8198228 19 3.5625 19 C 3.37716 19 3.3996604 18.996996 3.2910156 18.845703 C 3.1823708 18.69441 3.0567603 18.367272 2.9765625 18.005859 A 1 1 0 0 0 1.7832031 17.246094 A 1 1 0 0 0 1.0234375 18.439453 C 1.1318997 18.92824 1.290921 19.488615 1.6679688 20.013672 C 2.0450165 20.538729 2.75457 21 3.5625 21 C 4.1645922 21 4.815919 20.802391 5.3007812 20.378906 C 5.7856436 19.955421 6.0999949 19.391528 6.3730469 18.701172 C 6.9191507 17.32046 7.3333161 15.317312 7.9785156 12.203125 C 8.1273784 11.484606 8.1984714 11.379272 8.328125 10.777344 L 10.4375 10.777344 A 1 1 0 0 0 11.4375 9.7773438 A 1 1 0 0 0 10.4375 8.7773438 L 8.8164062 8.7773438 C 9.0281329 7.9198792 9.3012209 6.5081049 9.4882812 6.0351562 C 9.6986457 5.5032868 9.8942651 5.2331994 10.013672 5.1289062 C 10.133079 5.0246131 10.180193 5 10.4375 5 C 10.622854 5 10.600332 5.00299 10.708984 5.1542969 C 10.817637 5.3055992 10.943217 5.6327241 11.023438 5.9941406 A 1 1 0 0 0 12.216797 6.7539062 A 1 1 0 0 0 12.976562 5.5605469 C 12.868082 5.0718134 12.709079 4.5113783 12.332031 3.9863281 C 11.954984 3.461278 11.245446 3 10.4375 3 z M 12.007812 11 A 1 1 0 0 0 11.625 11.072266 A 1 1 0 0 0 11.080078 11.609375 C 9.6434943 14.994776 9.7477718 17.263202 11.080078 20.392578 A 1 1 0 0 0 12.392578 20.919922 A 1 1 0 0 0 12.919922 19.607422 C 11.681428 16.698398 11.595706 15.511224 12.919922 12.390625 A 1 1 0 0 0 12.390625 11.080078 A 1 1 0 0 0 12.007812 11 z M 20.990234 11 A 1 1 0 0 0 20.609375 11.080078 A 1 1 0 0 0 20.080078 12.390625 C 21.404294 15.511224 21.318572 16.698398 20.080078 19.607422 A 1 1 0 0 0 20.607422 20.919922 A 1 1 0 0 0 21.919922 20.392578 C 23.252228 17.263202 23.356506 14.994776 21.919922 11.609375 A 1 1 0 0 0 20.990234 11 z M 14.251953 13 A 1 1 0 0 0 13.289062 14.037109 A 1 1 0 0 0 14.326172 14.998047 C 14.680704 14.984817 14.894649 15.016493 14.947266 15.033203 C 15.043713 15.231399 15.184077 15.535394 15.339844 15.875 C 15.102378 16.170258 14.871119 16.435746 14.660156 16.630859 C 14.32474 16.941076 14.103402 17.004884 14.048828 17.001953 A 1 1 0 0 0 12.998047 17.947266 A 1 1 0 0 0 13.943359 18.998047 C 14.819686 19.045117 15.496119 18.581892 16.017578 18.099609 C 16.10086 18.022584 16.181082 17.944001 16.259766 17.863281 C 16.270575 17.885124 16.28144 17.904953 16.291016 17.923828 A 1.0001 1.0001 0 0 0 16.363281 18.044922 C 16.466301 18.192129 17.036965 18.847021 17.84375 18.974609 A 1.0001 1.0001 0 0 0 17.982422 18.988281 L 18.691406 19 A 1 1 0 0 0 19.708984 18.017578 A 1 1 0 0 0 18.726562 17 L 18.140625 16.990234 C 18.096588 16.988022 18.071441 16.985905 18.058594 16.982422 C 18.057655 16.982084 18.053555 16.980861 18.052734 16.980469 L 18.050781 16.980469 L 18.048828 16.978516 L 18.046875 16.976562 L 18.046875 16.974609 C 18.04137 16.964851 18.039312 16.947021 18.027344 16.916016 C 17.964821 16.787744 17.830532 16.49686 17.667969 16.142578 C 17.865756 15.885754 18.062445 15.634124 18.263672 15.433594 C 18.577189 15.121162 18.822594 15 19.001953 15 A 1 1 0 0 0 20.001953 14 A 1 1 0 0 0 19.001953 13 C 18.058112 13 17.346857 13.523998 16.851562 14.017578 C 16.812088 14.056916 16.774071 14.097058 16.736328 14.136719 C 16.731231 14.126273 16.725626 14.115501 16.720703 14.105469 A 1.0001 1.0001 0 0 0 16.693359 14.054688 C 16.453372 13.62829 16.008765 13.272613 15.5625 13.128906 C 15.116235 12.985199 14.700209 12.983272 14.251953 13 z " fill="currentColor"/>
</svg>
