<svg xmlns="http://www.w3.org/2000/svg" width="1em" height="1em" viewBox="0 0 24 24" fill="currentColor">
  <path d="M 16.8125 2 C 16.0724 2 15.33606 2.1743654 14.724609 2.6035156 C 14.113158 3.0326659 13.665192 3.6575228 13.283203 4.4335938 C 12.740993 5.5351798 12.289587 6.9935917 11.75 9 L 9 9 A 1 1 0 0 0 8 10 A 1 1 0 0 0 9 11 L 11.224609 11 C 11.161675 11.243472 11.097408 11.493402 11.03125 11.75 C 10.129808 15.246286 9.5114661 17.485738 8.921875 18.683594 C 8.6270794 19.282522 8.3614755 19.595166 8.1269531 19.759766 C 7.8924308 19.924365 7.6505682 20 7.1875 20 C 6.7423694 20 6.5952324 19.891954 6.4160156 19.691406 C 6.2367988 19.490858 6.0758429 19.136297 5.9648438 18.734375 A 1 1 0 0 0 4.734375 18.035156 A 1 1 0 0 0 4.0351562 19.265625 C 4.1882871 19.820103 4.4250305 20.465039 4.9257812 21.025391 C 5.426532 21.585743 6.2420506 22 7.1875 22 C 7.9276118 22 8.6639336 21.825635 9.2753906 21.396484 C 9.8868476 20.967334 10.33481 20.342478 10.716797 19.566406 C 11.480771 18.014262 12.065392 15.753714 12.96875 12.25 C 13.081184 11.81392 13.18885 11.397393 13.292969 11 L 17 11 A 1 1 0 0 0 18 10 A 1 1 0 0 0 17 9 L 13.830078 9 C 14.30353 7.2987591 14.697238 6.0902375 15.078125 5.3164062 C 15.372923 4.7174772 15.638526 4.4048341 15.873047 4.2402344 C 16.107568 4.0756346 16.34945 4 16.8125 4 C 17.257649 4 17.404771 4.1080528 17.583984 4.3085938 C 17.763198 4.5091348 17.924175 4.863714 18.035156 5.265625 A 1 1 0 0 0 19.265625 5.9648438 A 1 1 0 0 0 19.964844 4.734375 C 19.811725 4.179866 19.57498 3.5349635 19.074219 2.9746094 C 18.573457 2.4142553 17.757951 2 16.8125 2 z " fill="currentColor"/>
</svg>
