<svg xmlns="http://www.w3.org/2000/svg" width="1em" height="1em" viewBox="0 0 24 24" fill="currentColor">
  <path d="M 12 1.5 C 9.76083 1.5 8.061073 1.4944581 6.6542969 1.6835938 C 5.2475207 1.8727295 4.0688969 2.2982969 3.1835938 3.1835938 C 2.2982969 4.0688968 1.8727295 5.2475207 1.6835938 6.6542969 C 1.494458 8.061073 1.5 9.76083 1.5 12 C 1.5 14.23915 1.4944601 15.93892 1.6835938 17.345703 C 1.8727292 18.752486 2.2983047 19.931079 3.1835938 20.816406 C 4.0688995 21.70168 5.2475238 22.127276 6.6542969 22.316406 C 8.0610699 22.505536 9.76083 22.5 12 22.5 C 14.23915 22.5 15.938923 22.5055 17.345703 22.316406 C 18.752483 22.127277 19.931076 21.701673 20.816406 20.816406 C 21.701673 19.931076 22.127277 18.752483 22.316406 17.345703 C 22.505536 15.938923 22.5 14.23915 22.5 12 C 22.5 9.76083 22.5055 8.0610699 22.316406 6.6542969 C 22.127276 5.2475238 21.70168 4.0688995 20.816406 3.1835938 C 19.931079 2.2983046 18.752486 1.8727291 17.345703 1.6835938 C 15.93892 1.4944584 14.23915 1.5 12 1.5 z M 12 3.5 C 14.23915 3.5 15.897908 3.50539 17.078125 3.6640625 C 18.258342 3.8227371 18.896371 4.0917053 19.402344 4.5976562 C 19.90827 5.1036005 20.177267 5.7416656 20.335938 6.921875 C 20.494609 8.1020844 20.5 9.76083 20.5 12 C 20.5 14.23915 20.4946 15.897905 20.335938 17.078125 C 20.177267 18.258345 19.908277 18.896374 19.402344 19.402344 C 18.896374 19.908277 18.258345 20.177267 17.078125 20.335938 C 15.897905 20.494609 14.23915 20.5 12 20.5 C 9.76083 20.5 8.1020844 20.494608 6.921875 20.335938 C 5.7416656 20.177267 5.1036004 19.90827 4.5976562 19.402344 C 4.0917053 18.896371 3.8227371 18.258342 3.6640625 17.078125 C 3.5053879 15.897908 3.5 14.23915 3.5 12 C 3.5 9.76083 3.5053882 8.1020814 3.6640625 6.921875 C 3.8227368 5.7416686 4.091713 5.1036031 4.5976562 4.5976562 C 5.1036031 4.0917131 5.7416686 3.8227368 6.921875 3.6640625 C 8.1020814 3.5053882 9.76083 3.5 12 3.5 z M 14.75 6 C 14.27157 6 13.752282 6.1147753 13.322266 6.4082031 C 12.892249 6.7016309 12.592235 7.1183213 12.353516 7.5898438 C 12.121189 8.0487376 11.911079 8.9589679 11.710938 9.6113281 L 10.333984 9.6113281 A 1 1 0 0 0 9.3339844 10.611328 A 1 1 0 0 0 10.333984 11.611328 L 11.076172 11.611328 C 11.060002 11.672318 11.049753 11.681758 11.033203 11.744141 C 10.518562 13.684786 10.157364 14.921131 9.8613281 15.505859 C 9.7133103 15.798224 9.6041758 15.903019 9.5507812 15.939453 C 9.4973877 15.975887 9.4590782 16 9.25 16 C 9.1825852 16 9.1529319 15.998869 9.140625 15.996094 L 9.1386719 15.996094 L 9.1367188 15.994141 L 9.1347656 15.994141 L 9.1347656 15.992188 L 9.1328125 15.992188 L 9.1328125 15.990234 L 9.1328125 15.988281 L 9.1308594 15.986328 C 9.1291973 15.981657 9.1267798 15.975107 9.1191406 15.966797 C 9.0885836 15.933557 9.0162057 15.802913 8.9628906 15.615234 A 1 1 0 0 0 7.7265625 14.927734 A 1 1 0 0 0 7.0371094 16.162109 C 7.1347244 16.505731 7.2884887 16.930833 7.6464844 17.320312 C 8.0044801 17.709791 8.609471 18 9.25 18 C 9.7284318 18 10.247714 17.885222 10.677734 17.591797 C 11.107755 17.298371 11.407762 16.881679 11.646484 16.410156 C 12.123929 15.46711 12.450138 14.204114 12.966797 12.255859 C 13.054987 11.923295 13.08835 11.902853 13.167969 11.611328 L 14.75 11.611328 A 1 1 0 0 0 15.75 10.611328 A 1 1 0 0 0 14.75 9.6113281 L 13.791016 9.6113281 C 13.892716 9.3212247 14.050761 8.6677829 14.138672 8.4941406 C 14.28669 8.2017743 14.395826 8.09698 14.449219 8.0605469 C 14.502611 8.0241137 14.54093 8 14.75 8 C 14.817413 8 14.847068 8.0011312 14.859375 8.0039062 L 14.861328 8.0039062 L 14.863281 8.0058594 L 14.865234 8.0058594 L 14.865234 8.0078125 L 14.867188 8.0078125 L 14.867188 8.0097656 L 14.867188 8.0117188 L 14.869141 8.0136719 C 14.870803 8.018343 14.87322 8.0248922 14.880859 8.0332031 C 14.911419 8.0664471 14.983823 8.1971351 15.037109 8.3847656 A 1 1 0 0 0 16.273438 9.0722656 A 1 1 0 0 0 16.962891 7.8378906 C 16.865277 7.4941812 16.711532 7.0691635 16.353516 6.6796875 C 15.995499 6.2902115 15.390513 6 14.75 6 z " fill="currentColor"/>
</svg>
