<svg xmlns="http://www.w3.org/2000/svg" width="1em" height="1em" viewBox="0 0 24 24" fill="currentColor">
  <path d="M 12 2 C 11.0654 2 10.433701 1.9392801 9.75 2.3339844 C 9.3700486 2.553373 9.0533916 2.8699664 8.8339844 3.25 C 8.439255 3.9337052 8.5 4.56538 8.5 5.5 L 8.5 6.0859375 C 8.5 6.6159691 8.7110981 7.1251806 9.0859375 7.5 L 10.439453 8.8535156 C 10.85316 9.2673508 11.415024 9.5 12 9.5 C 12.584993 9.5 13.146944 9.2670641 13.560547 8.8535156 L 14.914062 7.5 C 15.289096 7.1251054 15.5 6.6158434 15.5 6.0859375 L 15.5 5.5 C 15.5 4.56538 15.560613 3.9336801 15.166016 3.25 C 14.946563 2.8700315 14.629918 2.553354 14.25 2.3339844 C 13.566299 1.9392801 12.9346 2 12 2 z M 12 4 C 12.905394 4 13.219986 4.0563741 13.25 4.0664062 C 13.326082 4.110337 13.389647 4.1739085 13.433594 4.25 L 13.433594 4.2519531 C 13.443615 4.2819499 13.5 4.5945869 13.5 5.5 L 13.5 6.0859375 L 12.146484 7.4394531 C 12.107288 7.4786447 12.055407 7.5 12 7.5 C 11.94478 7.5 11.892408 7.4783581 11.853516 7.4394531 L 10.5 6.0859375 L 10.5 5.5 C 10.5 4.5945869 10.556396 4.2799755 10.566406 4.25 C 10.610295 4.1739736 10.673951 4.1103177 10.75 4.0664062 L 10.751953 4.0664062 C 10.781967 4.0563743 11.094606 4 12 4 z M 5.5 8.5 C 4.56538 8.5 3.9337144 8.4392384 3.25 8.8339844 C 2.8699284 9.0534135 2.5553134 9.3700706 2.3359375 9.75 A 1.0001 1.0001 0 0 0 2.3339844 9.75 C 1.939277 10.433701 2 11.0654 2 12 C 2 12.9346 1.93928 13.566299 2.3339844 14.25 A 1.0001 1.0001 0 0 0 2.3359375 14.25 C 2.5550758 14.629513 2.8703487 14.944665 3.25 15.164062 C 3.933729 15.558884 4.56538 15.5 5.5 15.5 L 6.0859375 15.5 C 6.6160948 15.5 7.1252664 15.288716 7.5 14.914062 L 8.8535156 13.560547 C 9.2671882 13.146838 9.5 12.584976 9.5 12 C 9.5 11.415024 9.2671882 10.853162 8.8535156 10.439453 L 7.5 9.0859375 C 7.1252099 8.7111673 6.6159942 8.5 6.0859375 8.5 L 5.5 8.5 z M 17.914062 8.5 C 17.384006 8.5 16.874715 8.7113623 16.5 9.0859375 L 15.146484 10.439453 C 14.732793 10.853145 14.5 11.414983 14.5 12 C 14.5 12.585017 14.732793 13.146855 15.146484 13.560547 L 16.5 14.914062 C 16.874658 15.28852 17.383905 15.5 17.914062 15.5 L 18.5 15.5 C 19.4346 15.5 20.066282 15.55885 20.75 15.164062 C 21.129573 14.944691 21.444872 14.629466 21.664062 14.25 A 1.0001 1.0001 0 0 0 21.666016 14.25 C 22.060542 13.566324 22 12.9346 22 12 C 22 11.0654 22.06059 10.433676 21.666016 9.75 A 1.0001 1.0001 0 0 0 21.664062 9.75 C 21.444676 9.3701168 21.129975 9.0533869 20.75 8.8339844 C 20.066299 8.4392801 19.4346 8.5 18.5 8.5 L 17.914062 8.5 z M 5.5 10.5 L 6.0859375 10.5 L 7.4394531 11.853516 C 7.4785406 11.892607 7.5 11.944776 7.5 12 C 7.5 12.05522 7.4785411 12.107393 7.4394531 12.146484 L 6.0859375 13.5 L 5.5 13.5 C 4.5945869 13.5 4.2799552 13.443594 4.25 13.433594 C 4.1741553 13.389821 4.1103367 13.326082 4.0664062 13.25 L 4.0664062 13.248047 C 4.0563743 13.218033 4 12.905394 4 12 C 4 11.094606 4.0563743 10.780014 4.0664062 10.75 C 4.1103303 10.673929 4.1740116 10.610277 4.25 10.566406 L 4.2519531 10.566406 C 4.2819038 10.55641 4.5945869 10.5 5.5 10.5 z M 17.914062 10.5 L 18.5 10.5 C 19.405394 10.5 19.719986 10.55637 19.75 10.566406 C 19.82603 10.610306 19.889626 10.673883 19.933594 10.75 L 19.933594 10.751953 C 19.943636 10.781985 20 11.094606 20 12 C 20 12.905394 19.943638 13.219965 19.933594 13.25 C 19.889624 13.326128 19.825883 13.389794 19.75 13.433594 L 19.748047 13.433594 C 19.718047 13.443618 19.405394 13.5 18.5 13.5 L 17.914062 13.5 L 16.560547 12.146484 C 16.521439 12.107376 16.5 12.055183 16.5 12 C 16.5 11.94482 16.521437 11.892624 16.560547 11.853516 L 17.914062 10.5 z M 12 14.5 C 11.414983 14.5 10.853145 14.73261 10.439453 15.146484 L 9.0859375 16.5 C 8.7111074 16.87475 8.5 17.384031 8.5 17.914062 L 8.5 18.5 C 8.5 19.4347 8.441108 20.066278 8.8359375 20.75 C 9.0553569 21.129678 9.3706895 21.446914 9.75 21.666016 C 10.433676 22.060588 11.0654 22 12 22 C 12.9346 22 13.566324 22.06059 14.25 21.666016 C 14.629682 21.446699 14.946522 21.130156 15.166016 20.75 C 15.560713 20.066303 15.5 19.4347 15.5 18.5 L 15.5 17.914062 C 15.5 17.384156 15.289088 16.874825 14.914062 16.5 L 13.560547 15.146484 C 13.146959 14.732897 12.585034 14.5 12 14.5 z M 12 16.5 C 12.05537 16.5 12.107272 16.521327 12.146484 16.560547 L 13.5 17.914062 L 13.5 18.5 C 13.5 19.405491 13.443536 19.720158 13.433594 19.75 C 13.389684 19.82604 13.326318 19.88951 13.25 19.933594 L 13.248047 19.933594 C 13.218015 19.943636 12.905394 20 12 20 C 11.094606 20 10.780035 19.943636 10.75 19.933594 C 10.673715 19.889529 10.610258 19.825979 10.566406 19.75 L 10.566406 19.748047 C 10.556481 19.718226 10.5 19.405491 10.5 18.5 L 10.5 17.914062 L 11.853516 16.560547 C 11.892424 16.521621 11.944817 16.5 12 16.5 z " fill="currentColor"/>
</svg>
