<svg xmlns="http://www.w3.org/2000/svg" width="1em" height="1em" viewBox="0 0 24 24" fill="currentColor">
  <path d="M 12 1 C 10.991615 1 10.294236 1.5397237 9.21875 2.2714844 L 5.109375 5.0664062 C 3.801475 5.9563062 2.9746066 6.4767204 2.46875 7.4414062 C 1.9628805 8.4060896 2 9.3840415 2 10.988281 L 2 17.917969 C 2 18.880219 1.9941703 19.62015 2.0820312 20.287109 C 2.1698932 20.954068 2.3904824 21.611099 2.8710938 22.101562 C 3.3516731 22.592085 4.0097948 22.825428 4.6699219 22.916016 C 5.3300492 23.006603 6.05719 23 7 23 L 17 23 C 17.9428 23 18.669954 23.006596 19.330078 22.916016 C 19.990202 22.825426 20.648322 22.592074 21.128906 22.101562 C 21.609524 21.6111 21.830105 20.95407 21.917969 20.287109 C 22.005833 19.620145 22 18.880219 22 17.917969 L 22 10.988281 C 22 9.3840415 22.03715 8.4060955 21.53125 7.4414062 C 21.025384 6.4767838 20.198535 5.9563129 18.890625 5.0664062 L 14.78125 2.2714844 C 13.705764 1.5397237 13.008385 1 12 1 z M 12 3 C 12.202815 3 12.580736 3.1920488 13.65625 3.9238281 L 17.765625 6.7207031 C 19.073515 7.6105965 19.555632 7.9798832 19.759766 8.3691406 C 19.963865 8.7583315 20 9.3840415 20 10.988281 L 20 17.917969 C 20 18.880219 19.994097 19.58263 19.935547 20.027344 C 19.876957 20.472058 19.804401 20.595788 19.699219 20.703125 C 19.594003 20.810514 19.487719 20.874706 19.058594 20.933594 C 18.799504 20.969148 18.446538 20.986387 18 20.994141 L 18 17 C 18 16.663319 18.001025 16.354796 17.998047 16.066406 A 1 1 0 0 0 18 16 A 1 1 0 0 0 17.996094 15.908203 C 17.988767 15.454287 17.968993 15.05149 17.917969 14.671875 C 17.829509 14.013962 17.603666 13.361479 17.121094 12.878906 C 16.63852 12.396334 15.986038 12.170488 15.328125 12.082031 C 14.670212 11.993575 13.9428 12 13 12 L 11 12 C 10.05719 12 9.3297904 11.993601 8.671875 12.082031 C 8.0139596 12.170491 7.3614738 12.396322 6.8789062 12.878906 C 6.3963405 13.361481 6.1704861 14.013964 6.0820312 14.671875 C 6.0309894 15.051515 6.0112281 15.454248 6.0039062 15.908203 A 1 1 0 0 0 6 16 A 1 1 0 0 0 6.0019531 16.066406 C 5.9989772 16.354818 6 16.66329 6 17 L 6 20.994141 C 5.5534616 20.986387 5.2004962 20.969148 4.9414062 20.933594 C 4.5122783 20.874706 4.4059818 20.810502 4.3007812 20.703125 C 4.1956026 20.59579 4.1230382 20.47206 4.0644531 20.027344 C 4.0058681 19.582628 4 18.880219 4 17.917969 L 4 10.988281 C 4 9.3840415 4.0361439 8.7583372 4.2402344 8.3691406 C 4.4443178 7.9799466 4.926475 7.6106031 6.234375 6.7207031 L 10.34375 3.9238281 C 11.419264 3.1920488 11.797185 3 12 3 z M 12 5.75 C 11.321567 5.75 10.75 6.3216244 10.75 7 C 10.75 7.6783756 11.321567 8.25 12 8.25 C 12.678433 8.25 13.25 7.6783756 13.25 7 C 13.25 6.3216244 12.678433 5.75 12 5.75 z M 11 14 L 13 14 C 13.9428 14 14.62921 14.006503 15.060547 14.064453 C 15.491884 14.122443 15.603804 14.189741 15.707031 14.292969 C 15.810259 14.396196 15.877553 14.508116 15.935547 14.939453 C 15.938189 14.959107 15.940927 14.979287 15.943359 15 L 8.0566406 15 C 8.0590732 14.979288 8.0618108 14.959106 8.0644531 14.939453 C 8.1224461 14.508114 8.1897445 14.396195 8.2929688 14.292969 C 8.3961812 14.189753 8.5081136 14.122447 8.9394531 14.064453 C 9.3707927 14.00646 10.05719 14 11 14 z M 8 17 L 16 17 L 16 18 L 8 18 L 8 17 z M 8 20 L 16 20 L 16 21 L 8 21 L 8 20 z " fill="currentColor"/>
</svg>
