<svg xmlns="http://www.w3.org/2000/svg" width="1em" height="1em" viewBox="0 0 24 24" fill="currentColor">
  <path d="M 9.484375 3 C 8.258125 3 7.5044261 2.9760139 6.7109375 3.3046875 C 5.9174479 3.6333615 5.4022463 4.1836912 4.5351562 5.0507812 L 2.7578125 6.828125 C 2.0352425 7.550695 1.5562377 7.9937036 1.265625 8.6953125 C 0.97500696 9.3969191 1 10.048412 1 11.070312 L 1 13 C 1 14.1785 0.99285037 15.082883 1.0996094 15.876953 C 1.2063685 16.671023 1.4696253 17.418791 2.0253906 17.974609 C 2.5881579 18.537296 3.3080714 18.787599 4.1386719 18.900391 C 4.5247635 20.112165 5.6677391 21 7 21 C 8.2951422 21 9.4103145 20.160087 9.8261719 19 L 14.173828 19 C 14.589685 20.160087 15.704857 21 17 21 C 18.332262 21 19.475237 20.112167 19.861328 18.900391 C 20.691914 18.787595 21.411825 18.537279 21.974609 17.974609 C 22.530356 17.418787 22.793636 16.671019 22.900391 15.876953 C 23.007144 15.082887 23 14.1785 23 13 L 23 12 A 1.0001 1.0001 0 0 0 22.996094 11.941406 A 1.0001 1.0001 0 0 0 22.996094 11.925781 A 1 1 0 0 0 22.994141 11.916016 A 1.0001 1.0001 0 0 0 22.982422 11.818359 A 1 1 0 0 0 22.974609 11.783203 A 1.0001 1.0001 0 0 0 22.947266 11.681641 A 1.0001 1.0001 0 0 0 22.943359 11.671875 A 1 1 0 0 0 22.941406 11.667969 A 1.0001 1.0001 0 0 0 22.894531 11.554688 A 1.0001 1.0001 0 0 0 22.892578 11.550781 L 22.876953 11.517578 A 1.0001 1.0001 0 0 0 22.873047 11.509766 L 21.703125 9.1796875 C 21.059125 7.8982966 20.694085 7.065905 19.828125 6.5117188 C 18.962132 5.9575117 18.057519 6 16.699219 6 L 16 6 L 16 5 L 17 5 A 1 1 0 0 0 18 4 A 1 1 0 0 0 17 3 L 15 3 L 9.484375 3 z M 9.484375 5 L 14 5 L 14 7 L 14 8 C 14 8.94281 13.993601 9.6702137 14.082031 10.328125 C 14.170491 10.986036 14.396338 11.638525 14.878906 12.121094 C 15.361479 12.603666 16.013962 12.829512 16.671875 12.917969 C 17.329789 13.006425 18.0572 13 19 13 L 21 13 C 21 14.1785 20.994299 15.041866 20.917969 15.609375 C 20.841669 16.176884 20.737 16.384069 20.560547 16.560547 C 20.406211 16.71485 20.198411 16.823904 19.785156 16.894531 C 19.340884 15.789641 18.255344 15 17 15 C 15.704857 15 14.589685 15.839913 14.173828 17 L 9.8261719 17 C 9.4103145 15.839913 8.2951422 15 7 15 C 5.7446569 15 4.6591165 15.789641 4.2148438 16.894531 C 3.8015711 16.8239 3.5937687 16.71484 3.4394531 16.560547 C 3.2629884 16.384065 3.1583295 16.17688 3.0820312 15.609375 C 3.0057328 15.04187 3 14.1785 3 13 L 3 11.070312 C 3 10.048412 3.0232989 9.6781709 3.1132812 9.4609375 C 3.2032682 9.2436864 3.449305 8.9647575 4.171875 8.2421875 L 5.9492188 6.4648438 C 6.8163088 5.5977537 7.1674321 5.2803898 7.4765625 5.1523438 C 7.7856939 5.0242974 8.258125 5 9.484375 5 z M 11 8 A 1 1 0 0 0 10 9 L 10 12 A 1 1 0 0 0 11 13 A 1 1 0 0 0 12 12 L 12 9 A 1 1 0 0 0 11 8 z M 16 8 L 16.699219 8 C 18.057519 8 18.510593 8.0421 18.75 8.1953125 C 18.98944 8.3485463 19.272016 8.7967359 19.916016 10.078125 L 20.378906 11 L 19 11 C 18.0572 11 17.37079 10.993497 16.939453 10.935547 C 16.508116 10.877557 16.396196 10.810259 16.292969 10.707031 C 16.189737 10.603797 16.122446 10.491881 16.064453 10.060547 C 16.00646 9.629213 16 8.94281 16 8 z M 7 9 A 1 1 0 0 0 6 10 L 6 12 A 1 1 0 0 0 7 13 A 1 1 0 0 0 8 12 L 8 10 A 1 1 0 0 0 7 9 z M 7 17 C 7.5641272 17 7.9999967 17.435874 8 18 C 8 18.564129 7.5641294 19 7 19 C 6.4358706 19 6 18.564129 6 18 C 6 17.435871 6.4358706 17 7 17 z M 17 17 C 17.564129 17 18 17.435871 18 18 C 18 18.564129 17.564129 19 17 19 C 16.435871 19 16 18.564129 16 18 C 16 17.435871 16.435871 17 17 17 z " fill="currentColor"/>
</svg>
