<svg xmlns="http://www.w3.org/2000/svg" width="1em" height="1em" viewBox="0 0 24 24" fill="currentColor">
  <path d="M 12 1 C 5.9367104 1 1 5.9367104 1 12 C 1 18.063244 5.9367044 23 12 23 C 14.574182 23 16.945758 22.111135 18.822266 20.623047 A 1 1 0 0 0 18.988281 20.486328 C 21.436162 18.46678 23 15.412186 23 12 C 23 9.6155019 22.236688 7.4058438 20.941406 5.6015625 A 1 1 0 0 0 20.796875 5.4042969 C 19.942766 4.2685134 18.872602 3.3015948 17.650391 2.5664062 A 1 1 0 0 0 17.474609 2.4609375 A 1 1 0 0 0 17.460938 2.4550781 C 15.850742 1.5299751 13.985659 1 12 1 z M 11 3.0546875 L 11 4.5664062 C 8.1140222 4.952266 5.7364594 6.9843697 4.8613281 9.6933594 A 1 1 0 0 0 5.5058594 10.951172 A 1 1 0 0 0 6.765625 10.306641 C 7.3792113 8.4072694 8.9949631 6.9566109 11 6.5898438 L 11 8.1269531 C 9.2812321 8.5747656 8 10.147562 8 12 C 8 13.852438 9.2812321 15.425234 11 15.873047 L 11 17.410156 C 10.111007 17.247533 9.2998987 16.871207 8.6152344 16.335938 A 1 1 0 0 0 7.2109375 16.507812 A 1 1 0 0 0 7.3847656 17.912109 C 8.4084525 18.712426 9.6496596 19.253051 11 19.433594 L 11 20.945312 C 6.4908466 20.450161 3 16.644265 3 12 C 3 7.3556835 6.4908419 3.5498326 11 3.0546875 z M 13 3.0546875 C 13.885103 3.1518814 14.731596 3.3773067 15.519531 3.7109375 C 15.239093 3.9262649 14.893793 4.0950983 14.496094 4.2265625 C 14.025679 4.3820636 13.497603 4.4688058 13 4.5019531 L 13 3.0546875 z M 17.332031 4.7421875 C 17.799001 5.0852462 18.231196 5.4713323 18.623047 5.8964844 C 18.50217 5.9538747 18.379909 5.9987748 18.257812 6.0292969 C 17.105633 6.3173417 15.94391 6.8495789 15.164062 7.8027344 C 14.774138 8.2793121 14.48902 8.8968207 14.476562 9.5820312 C 14.464102 10.267242 14.724221 10.966267 15.199219 11.599609 C 15.973219 12.631609 16.675162 13.489441 16.955078 14.142578 C 17.234994 14.795716 17.281219 15.122438 16.699219 15.898438 C 16.235564 16.51658 15.797331 17.330619 15.849609 18.324219 C 15.876753 18.840096 16.105004 19.363401 16.498047 19.802734 C 15.448193 20.407858 14.264558 20.806448 13 20.945312 L 13 6.5078125 C 13.675711 6.4749175 14.405201 6.362292 15.123047 6.125 C 15.91921 5.8618188 16.724553 5.423731 17.332031 4.7421875 z M 19.816406 7.5273438 C 20.569453 8.8438928 21 10.370067 21 12 C 21 14.631164 19.879191 16.993274 18.087891 18.636719 C 17.836477 18.501956 17.854627 18.388362 17.845703 18.21875 C 17.832983 17.976975 18.025236 17.466966 18.300781 17.099609 C 19.218781 15.875609 19.265006 14.452331 18.794922 13.355469 C 18.324838 12.258606 17.526781 11.366437 16.800781 10.398438 C 16.525779 10.031759 16.473396 9.7933164 16.476562 9.6191406 C 16.479762 9.4449649 16.538363 9.2812398 16.710938 9.0703125 C 17.056089 8.6484579 17.894368 8.1807052 18.742188 7.96875 C 19.134681 7.8706333 19.491888 7.7166757 19.816406 7.5273438 z M 11 10.261719 L 11 13.738281 C 10.399189 13.395903 10 12.750482 10 12 C 10 11.249518 10.399189 10.604097 11 10.261719 z M 5.5546875 12 A 1 1 0 0 0 5.4238281 12.011719 A 1 1 0 0 0 4.5878906 13.152344 C 4.7146619 13.973287 4.9754539 14.752449 5.3457031 15.462891 A 1 1 0 0 0 6.6933594 15.886719 A 1 1 0 0 0 7.1191406 14.537109 C 6.8478498 14.016551 6.6573618 13.449313 6.5644531 12.847656 A 1 1 0 0 0 5.5546875 12 z " fill="currentColor"/>
</svg>
