<svg xmlns="http://www.w3.org/2000/svg" width="1em" height="1em" viewBox="0 0 24 24" fill="currentColor">
  <path d="M 6.5 1 C 3.4742785 1 1 3.4742785 1 6.5 C 1 9.0062214 2.6975773 11.134205 5 11.791016 L 5 18.275391 C 5 19.404441 4.99068 20.2633 5.09375 20.992188 C 5.145284 21.356632 5.2232628 21.697978 5.4023438 22.037109 C 5.5814248 22.376241 5.9065772 22.708275 6.2949219 22.869141 C 6.683269 23.030007 7.1491886 23.025278 7.515625 22.912109 C 7.8820614 22.798939 8.1785173 22.611883 8.4726562 22.390625 C 9.060934 21.948108 9.6606138 21.335455 10.458984 20.537109 L 12.041016 18.955078 C 12.051536 19.082757 12.065637 19.206153 12.082031 19.328125 C 12.170491 19.986038 12.396334 20.638521 12.878906 21.121094 C 13.361479 21.603666 14.013962 21.829512 14.671875 21.917969 C 15.329789 22.006425 16.0572 22 17 22 L 18 22 C 18.9428 22 19.670212 22.006399 20.328125 21.917969 C 20.986038 21.829509 21.638521 21.603666 22.121094 21.121094 C 22.603666 20.638521 22.829512 19.986038 22.917969 19.328125 C 23.006425 18.670211 23 17.9428 23 17 L 23 16 C 23 15.0572 23.006399 14.329788 22.917969 13.671875 C 22.829509 13.013962 22.603666 12.361479 22.121094 11.878906 C 21.63852 11.396334 20.986038 11.170488 20.328125 11.082031 C 20.206155 11.065633 20.082754 11.051538 19.955078 11.041016 L 20.537109 10.458984 C 21.335456 9.6606177 21.948108 9.060936 22.390625 8.4726562 C 22.611884 8.1785162 22.798939 7.8820616 22.912109 7.515625 C 23.025279 7.1491884 23.030008 6.6832698 22.869141 6.2949219 C 22.708275 5.9065772 22.376241 5.5814247 22.037109 5.4023438 C 21.697978 5.2232628 21.356632 5.145284 20.992188 5.09375 C 20.263299 4.9906819 19.404441 5 18.275391 5 L 11.791016 5 C 11.134205 2.6975773 9.0062214 1 6.5 1 z M 6.5 3 C 8.4448413 3 10 4.5551587 10 6.5 C 10 8.4448413 8.4448413 10 6.5 10 C 4.5551587 10 3 8.4448413 3 6.5 C 3 4.5551587 4.5551587 3 6.5 3 z M 11.976562 7 L 18.275391 7 C 19.404441 7 20.240502 7.0076998 20.710938 7.0742188 C 20.816275 7.0891138 20.822889 7.1003985 20.886719 7.1171875 C 20.853499 7.1740145 20.856469 7.1851196 20.792969 7.2695312 C 20.507361 7.6492159 19.9214 8.2465489 19.123047 9.0449219 L 17.072266 11.095703 A 1 1 0 0 0 16.595703 11.572266 L 12.572266 15.595703 A 1 1 0 0 0 12.095703 16.072266 L 9.0449219 19.123047 C 8.2465428 19.921401 7.6492161 20.507361 7.2695312 20.792969 C 7.1851192 20.856469 7.1740142 20.853499 7.1171875 20.886719 C 7.1003985 20.822889 7.0891148 20.81628 7.0742188 20.710938 C 7.007697 20.240502 7 19.404441 7 18.275391 L 7 11.976562 C 9.6288741 11.73699 11.73699 9.6288741 11.976562 7 z M 17.996094 13 L 18 13 C 18.9428 13 19.62921 13.006503 20.060547 13.064453 C 20.491884 13.122443 20.603804 13.189741 20.707031 13.292969 C 20.810259 13.396196 20.877553 13.508116 20.935547 13.939453 C 20.99354 14.370793 21 15.0572 21 16 L 21 17 C 21 17.9428 20.993497 18.62921 20.935547 19.060547 C 20.877557 19.491884 20.810259 19.603804 20.707031 19.707031 C 20.603804 19.810259 20.491884 19.877553 20.060547 19.935547 C 19.629207 19.99354 18.9428 20 18 20 L 17 20 C 16.0572 20 15.37079 19.993497 14.939453 19.935547 C 14.508116 19.877557 14.396196 19.810259 14.292969 19.707031 C 14.189741 19.603801 14.122447 19.491884 14.064453 19.060547 C 14.00646 18.62921 14 17.9428 14 17 L 14 16.996094 L 17.996094 13 z " fill="currentColor"/>
</svg>
