<svg xmlns="http://www.w3.org/2000/svg" width="1em" height="1em" viewBox="0 0 24 24" fill="currentColor">
  <path d="M 10 3 C 8.11438 3 6.6810556 2.994573 5.4785156 3.15625 C 4.2759756 3.317927 3.240311 3.689383 2.4648438 4.4648438 C 1.689383 5.2403112 1.317927 6.2759756 1.15625 7.4785156 C 0.99457301 8.6810556 1 10.11438 1 12 C 1 13.8856 0.994573 15.318937 1.15625 16.521484 C 1.3179268 17.724031 1.6893545 18.759713 2.4648438 19.535156 C 3.2403087 20.310634 4.2759729 20.682068 5.4785156 20.84375 C 6.6810584 21.005432 8.11438 21 10 21 L 14 21 C 15.8856 21 17.318935 21.0054 18.521484 20.84375 C 19.724034 20.682069 20.759716 20.310663 21.535156 19.535156 C 22.310663 18.759716 22.682069 17.724034 22.84375 16.521484 C 23.005431 15.318935 23 13.8856 23 12 C 23 10.11438 23.005432 8.6810584 22.84375 7.4785156 C 22.682068 6.2759729 22.310634 5.2403087 21.535156 4.4648438 C 20.759713 3.6893545 19.724031 3.3179268 18.521484 3.15625 C 17.318937 2.9945732 15.8856 3 14 3 L 10 3 z M 11 5 L 14 5 C 15.8856 5 17.279881 5.0055 18.255859 5.1367188 C 19.231837 5.2679345 19.725037 5.4828256 20.121094 5.8789062 C 20.517216 6.2750214 20.732063 6.7681734 20.863281 7.7441406 C 20.970136 8.5388927 20.993009 9.6110316 20.998047 11 L 12.414062 11 L 13.707031 9.7070312 A 1 1 0 0 0 13.707031 8.2929688 A 1 1 0 0 0 12.292969 8.2929688 L 11 9.5859375 L 11 5 z M 9 5.0019531 L 9 9.5859375 L 7.7070312 8.2929688 A 1 1 0 0 0 7 8 A 1 1 0 0 0 6.2929688 8.2929688 A 1 1 0 0 0 6.2929688 9.7070312 L 7.5859375 11 L 3.0019531 11 C 3.0069921 9.6110323 3.0298669 8.5388949 3.1367188 7.7441406 C 3.2679342 6.7681706 3.4827969 6.2750189 3.8789062 5.8789062 C 4.2750189 5.482797 4.7681706 5.2679344 5.7441406 5.1367188 C 6.5388949 5.029867 7.6110323 5.0069921 9 5.0019531 z M 3.0019531 13 L 7.5859375 13 L 6.2929688 14.292969 A 1 1 0 0 0 6.2929688 15.707031 A 1 1 0 0 0 7.7070312 15.707031 L 9 14.414062 L 9 18.998047 C 7.6110316 18.993009 6.5388927 18.970136 5.7441406 18.863281 C 4.7681734 18.732063 4.2750213 18.517216 3.8789062 18.121094 C 3.4828254 17.725037 3.2679343 17.231837 3.1367188 16.255859 C 3.0298671 15.4611 3.0069922 14.388956 3.0019531 13 z M 12.414062 13 L 20.998047 13 C 20.993008 14.388957 20.970136 15.461103 20.863281 16.255859 C 20.732063 17.231835 20.517187 17.725034 20.121094 18.121094 C 19.725034 18.517187 19.231835 18.732063 18.255859 18.863281 C 17.279884 18.9945 15.8856 19 14 19 L 11 19 L 11 14.414062 L 12.292969 15.707031 A 1 1 0 0 0 13.707031 15.707031 A 1 1 0 0 0 13.707031 14.292969 L 12.414062 13 z " fill="currentColor"/>
</svg>
