<svg xmlns="http://www.w3.org/2000/svg" width="1em" height="1em" viewBox="0 0 24 24" fill="currentColor">
  <path d="M 7.7851562 1 C 6.2584956 1 5 2.2584956 5 3.7851562 C 5 4.595645 5.2330216 5.3551187 5.6347656 6 L 5.5 6 C 4.56538 6 3.9874603 5.9483237 3.3300781 6.2519531 C 2.9619802 6.4219662 2.6348198 6.6772579 2.390625 7.015625 C 2.165869 7.3270578 2.0669849 7.6962913 2.03125 8.0117188 C 1.9955151 8.327146 2 8.626155 2 9 C 2 9.373845 1.99551 9.672858 2.03125 9.9882812 C 2.066985 10.303704 2.1659175 10.672965 2.390625 10.984375 C 2.5589249 11.217553 2.7666182 11.410875 3 11.564453 L 3 15 C 3 16.6499 2.99335 17.908225 3.1367188 18.974609 C 3.2800906 20.040994 3.6161378 20.979371 4.3183594 21.681641 C 5.0206014 22.383869 5.9590094 22.719914 7.0253906 22.863281 C 8.0917719 23.006649 9.350085 23 11 23 L 12 23 L 13 23 C 14.6499 23 15.908228 23.0066 16.974609 22.863281 C 18.04099 22.719914 18.979368 22.383844 19.681641 21.681641 C 20.383844 20.979368 20.719914 20.04099 20.863281 18.974609 C 21.006649 17.908228 21 16.6499 21 15 L 21 11.5625 C 21.233343 11.409554 21.441042 11.217687 21.609375 10.984375 C 21.834127 10.672966 21.933006 10.303722 21.96875 9.9882812 C 22.004494 9.6728401 22 9.373845 22 9 C 22 8.626155 22.004494 8.3271639 21.96875 8.0117188 C 21.933006 7.6962734 21.834175 7.3270569 21.609375 7.015625 C 21.365114 6.6770382 21.037933 6.4239015 20.669922 6.2539062 A 1.0001 1.0001 0 0 0 20.669922 6.2519531 C 20.012546 5.9483409 19.4346 6 18.5 6 L 18.365234 6 C 18.766978 5.3551195 19 4.5956462 19 3.7851562 C 19 2.2584888 17.741495 1 16.214844 1 L 15.857422 1 C 14.290325 1 12.88983 1.7522338 12 2.9140625 C 11.110175 1.7522337 9.7096928 1 8.1425781 1 L 7.7851562 1 z M 7.7851562 3 L 8.1425781 3 C 9.7323782 3 11 4.2676218 11 5.8574219 L 11 6 L 9.2148438 6 C 7.980073 6 7 5.0199176 7 3.7851562 C 7 3.3393768 7.339377 3 7.7851562 3 z M 15.857422 3 L 16.214844 3 C 16.660592 3 17 3.3393835 17 3.7851562 C 17 5.0199101 16.019914 6 14.785156 6 L 13 6 L 13 5.8574219 C 13 4.2676218 14.267672 3 15.857422 3 z M 5.5 8 L 18.5 8 C 19.4346 8 19.791254 8.0504294 19.830078 8.0683594 C 19.899283 8.1003268 19.946744 8.1385027 19.972656 8.1660156 C 19.974418 8.1789506 19.976454 8.2009331 19.980469 8.2363281 C 19.994963 8.3643459 20 8.626155 20 9 C 20 9.373845 19.994999 9.6356605 19.980469 9.7636719 C 19.976457 9.7990607 19.974413 9.8210544 19.972656 9.8339844 C 19.94673 9.8615131 19.899246 9.8996945 19.830078 9.9316406 C 19.791292 9.9495624 19.4346 10 18.5 10 L 12 10 L 5.5 10 C 4.56538 10 4.2086724 9.9495419 4.1699219 9.9316406 C 4.100719 9.8996841 4.053302 9.8615715 4.0273438 9.8339844 C 4.0255881 9.8210564 4.0235436 9.7990821 4.0195312 9.7636719 C 4.0050289 9.6356423 4 9.373845 4 9 C 4 8.626155 4.0050261 8.3643633 4.0195312 8.2363281 C 4.0235431 8.2009161 4.0255841 8.1789494 4.0273438 8.1660156 C 4.0532866 8.1384439 4.1006826 8.1003388 4.1699219 8.0683594 C 4.2086997 8.0504488 4.56538 8 5.5 8 z M 5.5 12 L 11 12 L 11 21 C 9.350085 21 8.132785 20.993767 7.2929688 20.880859 C 6.4531525 20.767952 6.0552999 20.59045 5.7324219 20.267578 C 5.4095135 19.944648 5.2320512 19.546847 5.1191406 18.707031 C 5.0062301 17.867215 5 16.6499 5 15 L 5 12.001953 C 5.1556595 12.001132 5.3213099 12 5.5 12 z M 13 12 L 18.5 12 C 18.678689 12 18.844339 12.001133 19 12.001953 L 19 15 C 19 16.6499 18.9938 17.867212 18.880859 18.707031 C 18.767952 19.54685 18.590474 19.94465 18.267578 20.267578 C 17.94465 20.590474 17.54685 20.767952 16.707031 20.880859 C 15.867212 20.993767 14.6499 21 13 21 L 13 12 z " fill="currentColor"/>
</svg>
