<svg xmlns="http://www.w3.org/2000/svg" width="1em" height="1em" viewBox="0 0 24 24" fill="currentColor">
  <path d="M 5 2 C 3.3549904 2 2 3.3549904 2 5 C 2 6.2951421 2.8399128 7.4103144 4 7.8261719 L 4 16.173828 C 2.8399128 16.589685 2 17.704858 2 19 C 2 20.64501 3.3549904 22 5 22 C 6.2951422 22 7.4103145 21.160087 7.8261719 20 L 13 20 C 14.4142 20 15.495556 20.0059 16.425781 19.880859 C 17.356006 19.75579 18.199103 19.457147 18.828125 18.828125 C 19.457147 18.199103 19.75579 17.356006 19.880859 16.425781 C 20.005928 15.495556 20 14.4142 20 13 L 20 12.240234 C 20.26207 12.577935 20.529733 12.936473 20.783203 13.197266 A 1 1 0 0 0 22.197266 13.216797 A 1 1 0 0 0 22.216797 11.802734 C 22.119877 11.703014 21.603402 11.017825 21.091797 10.414062 C 20.835995 10.112182 20.567469 9.8156737 20.265625 9.5585938 C 19.963781 9.3015136 19.649748 9 19 9 A 1 1 0 0 0 18.283203 9.3164062 C 18.12142 9.4163042 17.865264 9.4471161 17.734375 9.5585938 C 17.432531 9.8156738 17.164006 10.112181 16.908203 10.414062 C 16.396598 11.017824 15.880119 11.703018 15.783203 11.802734 A 1 1 0 0 0 15.802734 13.216797 A 1 1 0 0 0 17.216797 13.197266 C 17.470268 12.936472 17.73793 12.577935 18 12.240234 L 18 13 C 18 14.4142 17.993 15.454553 17.898438 16.158203 C 17.803828 16.861853 17.66374 17.164385 17.414062 17.414062 C 17.164386 17.66374 16.861853 17.803832 16.158203 17.898438 C 15.454553 17.993043 14.4142 18 13 18 L 7.8261719 18 C 7.5226535 17.153297 6.8467033 16.477347 6 16.173828 L 6 7.8261719 C 7.1600872 7.4103144 8 6.2951421 8 5 C 8 3.3549904 6.6450096 2 5 2 z M 19 2 C 17.35499 2 16 3.3549904 16 5 C 16 6.6450096 17.35499 8 19 8 C 20.64501 8 22 6.6450096 22 5 C 22 3.3549904 20.64501 2 19 2 z M 5 4 C 5.5641294 4 6 4.4358706 6 5 C 6 5.5641294 5.5641294 6 5 6 C 4.4358706 6 4 5.5641294 4 5 C 4 4.4358706 4.4358706 4 5 4 z M 19 4 C 19.564129 4 20 4.4358706 20 5 C 20 5.5641294 19.564129 6 19 6 C 18.435871 6 18 5.5641294 18 5 C 18 4.4358706 18.435871 4 19 4 z M 5 18 C 5.5641294 18 6 18.435871 6 19 C 6 19.564129 5.5641294 20 5 20 C 4.4358706 20 4 19.564129 4 19 C 4 18.435871 4.4358706 18 5 18 z " fill="currentColor"/>
</svg>
