<svg xmlns="http://www.w3.org/2000/svg" width="1em" height="1em" viewBox="0 0 24 24" fill="currentColor">
  <path d="M 7 3 C 5.3549904 3 4 4.3549904 4 6 C 4 7.3031238 4.8502971 8.4242589 6.0214844 8.8339844 L 6.0214844 15.166016 C 4.850305 15.57574 4 16.696867 4 18 C 4 19.645025 5.3550085 21 7 21 C 8.6449915 21 10 19.645025 10 18 C 10 16.712857 9.1704352 15.603503 8.0214844 15.181641 L 8.0214844 12.386719 C 8.6956352 12.772348 9.3915768 13.003906 10.019531 13.003906 L 14.175781 13.003906 C 14.59274 14.161973 15.706313 15 17 15 C 18.645007 15 20 13.645007 20 12 C 20 10.354993 18.645007 9 17 9 C 15.703408 9 14.586629 9.8418015 14.171875 11.003906 L 10.019531 11.003906 C 9.7377098 11.003906 9.1028107 10.840815 8.6777344 10.496094 C 8.2607737 10.157957 7.9775255 9.7252314 8.0214844 8.8847656 L 8.0214844 8.8183594 C 9.1704428 8.3964955 10 7.2871332 10 6 C 10 4.3549904 8.6450096 3 7 3 z M 7 5 C 7.5641304 5 8 5.4358696 8 6 C 8 6.5641304 7.5641304 7 7 7 C 6.4358696 7 6 6.5641304 6 6 C 6 5.4358696 6.4358696 5 7 5 z M 17 11 C 17.564193 11 18 11.435807 18 12 C 18 12.564193 17.564193 13 17 13 C 16.435807 13 16 12.564193 16 12 C 16 11.435807 16.435807 11 17 11 z M 7 17 C 7.5641485 17 8 17.435825 8 18 C 8 18.564175 7.5641485 19 7 19 C 6.4358515 19 6 18.564175 6 18 C 6 17.435825 6.4358515 17 7 17 z " fill="currentColor"/>
</svg>
