<svg xmlns="http://www.w3.org/2000/svg" width="1em" height="1em" viewBox="0 0 24 24" fill="currentColor">
  <path d="M 6.7695312 3.0078125 C 6.6752317 3.0057741 6.5818137 3.0100915 6.4882812 3.0214844 C 6.1141514 3.0670558 5.7526428 3.2192783 5.4609375 3.4667969 C 4.9169316 3.9283726 4.838119 4.3770984 4.5488281 5.0878906 L 1.0742188 13.623047 A 1 1 0 0 0 1.0585938 13.671875 A 1.0001 1.0001 0 0 0 1.0371094 13.736328 A 1 1 0 0 0 1.0234375 13.794922 A 1.0001 1.0001 0 0 0 1.0117188 13.853516 A 1 1 0 0 0 1.0058594 13.916016 A 1.0001 1.0001 0 0 0 1 13.992188 A 1 1 0 0 0 1.0019531 14.037109 A 1.0001 1.0001 0 0 0 1.0078125 14.115234 A 1 1 0 0 0 1.015625 14.166016 A 1.0001 1.0001 0 0 0 1.0351562 14.255859 A 1 1 0 0 0 1.0410156 14.273438 A 1.0001 1.0001 0 0 0 1.0703125 14.363281 A 1 1 0 0 0 1.09375 14.421875 A 1.0001 1.0001 0 0 0 1.1191406 14.470703 A 1 1 0 0 0 1.1542969 14.53125 A 1.0001 1.0001 0 0 0 1.1679688 14.554688 L 1.5878906 15.183594 C 1.8300876 15.546934 1.9058142 15.674483 1.9316406 15.740234 C 1.9512996 15.790324 1.9652095 15.840286 1.9765625 15.892578 C 1.9915629 15.961682 2 16.108422 2 16.544922 C 2 17.905822 1.933468 18.775809 2.4765625 19.621094 C 2.7091595 19.983181 3.0168908 20.290824 3.3789062 20.523438 C 4.2242054 21.066447 5.0942481 21 6.4550781 21 L 7.5 21 C 8.43188 21 9.0048793 21.03798 9.6484375 20.771484 C 10.383185 20.46712 10.967124 19.883101 11.271484 19.148438 C 11.537928 18.504912 11.5 17.9319 11.5 17 C 11.5 16.645573 11.505905 16.342584 11.498047 16.068359 A 1 1 0 0 0 11.5 16 C 11.5 15.71208 11.71208 15.5 12 15.5 C 12.28792 15.5 12.5 15.71208 12.5 16 A 1 1 0 0 0 12.501953 16.068359 C 12.494095 16.342582 12.5 16.645576 12.5 17 C 12.5 17.9319 12.46207 18.504912 12.728516 19.148438 C 13.032885 19.883122 13.616878 20.467115 14.351562 20.771484 C 14.995088 21.037928 15.5681 21 16.5 21 L 17.544922 21 C 18.905822 21 19.775813 21.06648 20.621094 20.523438 C 20.983135 20.290826 21.290825 19.983135 21.523438 19.621094 C 22.066479 18.775813 22 17.905822 22 16.544922 C 22 16.108422 22.008397 15.961736 22.023438 15.892578 C 22.034737 15.840528 22.050553 15.790636 22.070312 15.740234 L 22.068359 15.740234 C 22.094269 15.674324 22.169951 15.546982 22.412109 15.183594 L 22.832031 14.554688 A 1.0001 1.0001 0 0 0 22.845703 14.53125 A 1 1 0 0 0 22.880859 14.470703 A 1.0001 1.0001 0 0 0 22.90625 14.421875 A 1 1 0 0 0 22.929688 14.363281 A 1.0001 1.0001 0 0 0 22.962891 14.263672 A 1 1 0 0 0 22.964844 14.255859 A 1.0001 1.0001 0 0 0 22.984375 14.164062 A 1 1 0 0 0 22.992188 14.117188 A 1.0001 1.0001 0 0 0 22.998047 14.035156 A 1 1 0 0 0 23 13.992188 A 1.0001 1.0001 0 0 0 22.994141 13.917969 A 1 1 0 0 0 22.986328 13.841797 A 1.0001 1.0001 0 0 0 22.980469 13.8125 A 1 1 0 0 0 22.958984 13.720703 A 1.0001 1.0001 0 0 0 22.925781 13.623047 L 22.917969 13.603516 A 1.0001 1.0001 0 0 0 22.917969 13.601562 L 19.451172 5.0878906 C 19.161888 4.3771394 19.083202 3.9284164 18.539062 3.4667969 C 18.247359 3.2193136 17.885845 3.0670532 17.511719 3.0214844 C 17.137593 2.9759156 16.750251 3.0366514 16.40625 3.2128906 C 15.759415 3.5443794 15.594874 3.9702021 15.171875 4.59375 A 1 1 0 0 0 15.439453 5.9824219 A 1 1 0 0 0 16.828125 5.7167969 C 17.058767 5.3768038 17.20985 5.1948509 17.271484 5.1113281 C 17.316863 5.2099734 17.433861 5.4345586 17.599609 5.8417969 L 20.513672 13 L 16.5 13 C 15.5681 13 14.995087 12.96207 14.351562 13.228516 C 13.972996 13.38535 13.634422 13.616615 13.353516 13.904297 C 12.962097 13.649117 12.49671 13.5 12 13.5 C 11.503295 13.5 11.0379 13.649122 10.646484 13.904297 C 10.365588 13.616619 10.02703 13.385345 9.6484375 13.228516 C 9.0048793 12.962022 8.43188 13 7.5 13 L 3.4863281 13 L 6.4003906 5.8417969 C 6.5661533 5.4345154 6.6831522 5.2099538 6.7285156 5.1113281 C 6.7901385 5.1948351 6.941215 5.3767618 7.171875 5.7167969 A 1 1 0 0 0 8.5605469 5.9824219 A 1 1 0 0 0 8.828125 4.59375 C 8.4051464 3.9702021 8.2406985 3.5443215 7.59375 3.2128906 C 7.3357451 3.0807012 7.0524298 3.0139278 6.7695312 3.0078125 z M 3.7871094 15 L 7.5 15 C 8.43188 15 8.7912707 15.038272 8.8828125 15.076172 C 9.128165 15.177808 9.3221887 15.371851 9.4238281 15.617188 C 9.4617846 15.708863 9.5 16.0681 9.5 17 C 9.5 17.9319 9.4617851 18.291138 9.4238281 18.382812 C 9.3221888 18.628149 9.128165 18.822192 8.8828125 18.923828 C 8.7912707 18.961735 8.43188 19 7.5 19 L 6.4550781 19 C 5.0942481 19 4.6015652 18.933389 4.4589844 18.841797 C 4.3382398 18.764212 4.2357461 18.661728 4.1582031 18.541016 C 4.0666374 18.398501 4 17.905822 4 16.544922 C 4 16.108422 4.0076796 15.819046 3.9316406 15.46875 C 3.8975736 15.311842 3.8515706 15.159077 3.7929688 15.009766 L 3.7929688 15.007812 L 3.7910156 15.007812 C 3.7905121 15.007006 3.7896201 15.002738 3.7890625 15.001953 L 3.7871094 15.001953 L 3.7871094 15 z M 16.5 15 L 20.210938 15 C 20.209837 15.0027 20.208131 15.005113 20.207031 15.007812 A 1.0001 1.0001 0 0 0 20.207031 15.009766 C 20.148601 15.158764 20.102463 15.311602 20.068359 15.46875 C 19.992359 15.818959 20 16.108422 20 16.544922 C 20 17.905822 19.93336 18.398496 19.841797 18.541016 C 19.764207 18.661774 19.661774 18.764209 19.541016 18.841797 C 19.398496 18.933357 18.905822 19 17.544922 19 L 16.5 19 C 15.5681 19 15.208861 18.961778 15.117188 18.923828 C 14.871871 18.822198 14.677802 18.628129 14.576172 18.382812 C 14.538215 18.291137 14.5 17.9319 14.5 17 C 14.5 16.0681 14.538212 15.708861 14.576172 15.617188 C 14.677802 15.371871 14.871872 15.177802 15.117188 15.076172 C 15.208863 15.038215 15.5681 15 16.5 15 z " fill="currentColor"/>
</svg>
