<svg xmlns="http://www.w3.org/2000/svg" width="1em" height="1em" viewBox="0 0 24 24" fill="currentColor">
  <path d="M 12 1 C 5.9367214 1.000013 1 5.9367184 1 12 C 1 18.063236 5.9367154 22.999987 12 23 C 18.063239 22.999987 23 18.063242 23 12 A 1 1 0 0 0 22 11 L 16 11 L 9.0214844 11 C 9.1162975 8.7479992 9.5247542 6.7379201 10.099609 5.3007812 C 10.428968 4.4773852 10.816334 3.8465437 11.169922 3.4726562 C 11.523509 3.0987693 11.78549 3.0000003 12 3 A 1 1 0 0 0 13 2 A 1 1 0 0 0 12 1 z M 16 1 A 1 1 0 0 0 15.292969 1.2929688 A 1 1 0 0 0 15.292969 2.7070312 L 17.585938 5 L 15.292969 7.2929688 A 1 1 0 0 0 15.292969 8.7070312 A 1 1 0 0 0 16.707031 8.7070312 L 19 6.4140625 L 21.292969 8.7070312 A 1 1 0 0 0 22.707031 8.7070312 A 1 1 0 0 0 22.707031 7.2929688 L 20.414062 5 L 22.707031 2.7070312 A 1 1 0 0 0 22.707031 1.2929688 A 1 1 0 0 0 21.292969 1.2929688 L 19 3.5859375 L 16.707031 1.2929688 A 1 1 0 0 0 16 1 z M 8.6582031 3.6367188 C 8.5095764 3.9256891 8.371572 4.2331795 8.2421875 4.5566406 C 7.5459144 6.2973234 7.112102 8.5277382 7.0195312 11 L 3.0546875 11 C 3.4238465 7.6381646 5.6330062 4.8418113 8.6582031 3.6367188 z M 3.0546875 13 L 7.0195312 13 C 7.1121026 15.472246 7.5459156 17.702674 8.2421875 19.443359 C 8.3715704 19.766818 8.5095782 20.074314 8.6582031 20.363281 C 5.6330139 19.158177 3.4238498 16.3618 3.0546875 13 z M 9.0214844 13 L 14.978516 13 C 14.883703 15.251983 14.47525 17.262074 13.900391 18.699219 C 13.571029 19.522619 13.183667 20.153451 12.830078 20.527344 C 12.47649 20.901235 12.21449 21 12 21 C 11.785494 21 11.523511 20.901235 11.169922 20.527344 C 10.816333 20.153452 10.428968 19.522619 10.099609 18.699219 C 9.5247541 17.262075 9.116298 15.251984 9.0214844 13 z M 16.980469 13 L 20.945312 13 C 20.576146 16.361787 18.366964 19.15817 15.341797 20.363281 C 15.49042 20.074317 15.62843 19.766813 15.757812 19.443359 C 16.454088 17.702676 16.887898 15.472248 16.980469 13 z " fill="currentColor"/>
</svg>
