<svg xmlns="http://www.w3.org/2000/svg" width="1em" height="1em" viewBox="0 0 24 24" fill="currentColor">
  <path d="M 12 1 C 5.9367555 1 1 5.9367044 1 12 C 1 18.06325 5.9367495 23 12 23 C 18.063341 23 23 18.063238 23 12 C 23 8.4082148 21.270473 5.2053737 18.599609 3.1992188 A 1 1 0 0 0 17.201172 3.3984375 A 1 1 0 0 0 17.400391 4.7988281 C 19.587327 6.4414932 21 9.0485052 21 12 C 21 16.982362 16.982459 21 12 21 C 7.0176505 21 3 16.98235 3 12 C 3 7.0175956 7.0176445 3 12 3 C 12.06602 3 12.131593 3.0024863 12.197266 3.0039062 L 11.185547 4.4179688 A 1 1 0 0 0 11.417969 5.8144531 A 1 1 0 0 0 12.814453 5.5820312 L 13.917969 4.0351562 C 14.123446 3.7474438 14.297666 3.5233114 14.449219 3.2128906 C 14.600772 2.9024699 14.707392 2.3338493 14.490234 1.8867188 C 14.283217 1.4604506 13.784564 1.1790931 13.451172 1.1035156 C 13.11778 1.0279381 12.847432 1.027024 12.517578 1.0117188 C 12.34595 1.0037527 12.173485 1 12 1 z M 13.746094 8.9960938 C 13.581791 8.9984506 13.408188 9.0074748 13.21875 9.0351562 C 12.843531 9.0899854 12.361043 9.279377 12.025391 9.6523438 C 11.582351 10.138469 11.515255 10.72204 11.5 11.179688 C 11.48461 11.641357 11.515411 12.077053 11.494141 12.554688 A 1.0001 1.0001 0 0 0 11.494141 12.673828 C 11.541611 13.306717 11.500194 13.904229 11.496094 14.482422 C 11.492094 15.049146 11.472874 15.708662 12.007812 16.306641 C 12.368669 16.729521 12.889288 16.916467 13.28125 16.96875 C 13.681086 17.02208 14.013905 17.002412 14.322266 17.007812 A 1.0001 1.0001 0 0 0 14.351562 17.007812 C 14.673213 17.003912 14.978301 17.020995 15.359375 16.953125 C 15.722401 16.888475 16.157028 16.664153 16.466797 16.337891 C 16.785056 16.022279 16.887289 15.688128 16.939453 15.408203 C 16.994583 15.112335 17.006076 14.827182 17.009766 14.527344 C 17.017166 13.927668 16.982563 13.267663 17.001953 12.630859 A 1.0001 1.0001 0 0 0 17.001953 12.599609 C 17.001953 11.925551 17.0207 11.501315 17 11.099609 C 16.97938 10.697908 16.877472 10.251495 16.664062 9.8925781 C 16.338494 9.3450431 15.748047 9.1165464 15.322266 9.046875 C 14.896484 8.9772036 14.531309 8.9980469 14.220703 8.9980469 C 14.0654 8.9980469 13.910397 8.9937369 13.746094 8.9960938 z M 9.1914062 9.0078125 C 8.9276596 9.016217 8.6987321 9.1068867 8.5546875 9.1875 C 8.3242161 9.3164813 8.1828518 9.4486693 8.046875 9.5761719 C 7.7749214 9.831177 7.5391077 10.085502 7.3691406 10.220703 A 1 1 0 0 0 7.2089844 11.626953 A 1 1 0 0 0 8.5039062 11.775391 L 8.5039062 16.007812 A 1 1 0 0 0 9.5039062 17.007812 A 1 1 0 0 0 10.503906 16.007812 L 10.503906 11.232422 C 10.503906 10.950907 10.534189 10.701464 10.511719 10.361328 C 10.500501 10.19126 10.479344 9.9825688 10.357422 9.7324219 C 10.2355 9.482275 9.9687461 9.2196116 9.6933594 9.1015625 C 9.5199142 9.0272297 9.3496542 9.0027698 9.1914062 9.0078125 z M 14.220703 10.998047 C 14.555198 10.998047 14.824528 11.000051 14.966797 11.019531 C 14.979837 11.050511 14.996006 11.049521 15.003906 11.203125 C 15.015996 11.438378 15.002553 11.889616 15.001953 12.570312 C 15.001862 12.573313 15.002043 12.575125 15.001953 12.578125 C 15.001947 12.588865 15.001953 12.588749 15.001953 12.599609 C 14.981373 13.330075 15.015796 14.016087 15.009766 14.503906 C 15.007066 14.726348 14.991602 14.885102 14.976562 14.986328 C 14.891013 14.998418 14.674611 15.003742 14.357422 15.007812 C 13.980882 15.001212 13.684861 15.005018 13.544922 14.986328 C 13.542748 14.986038 13.541128 14.986602 13.539062 14.986328 C 13.529029 14.919999 13.494198 14.761063 13.496094 14.498047 C 13.499407 14.038239 13.547727 13.366833 13.494141 12.585938 C 13.516548 12.009851 13.488175 11.539666 13.498047 11.246094 C 13.501978 11.128147 13.512618 11.053849 13.519531 11.011719 C 13.631355 10.997763 13.882908 10.998047 14.220703 10.998047 z " fill="currentColor"/>
</svg>
