<svg xmlns="http://www.w3.org/2000/svg" width="1em" height="1em" viewBox="0 0 24 24" fill="currentColor">
  <path d="M 12 1 C 5.9367104 1 1 5.9367104 1 12 C 1 18.063244 5.9367044 23 12 23 C 18.06325 23 23 18.06325 23 12 C 23 8.4082148 21.270473 5.2053737 18.599609 3.1992188 A 1 1 0 0 0 17.201172 3.3984375 A 1 1 0 0 0 17.400391 4.7988281 C 19.587327 6.4414932 21 9.0485052 21 12 C 21 16.98235 16.98235 21 12 21 C 7.0175956 21 3 16.982356 3 12 C 3 7.0175896 7.0175896 3 12 3 C 12.06602 3 12.131593 3.0024863 12.197266 3.0039062 L 11.185547 4.4179688 A 1 1 0 0 0 11.417969 5.8144531 A 1 1 0 0 0 12.814453 5.5820312 L 13.917969 4.0351562 C 14.123446 3.7474438 14.297666 3.5233114 14.449219 3.2128906 C 14.600772 2.9024699 14.707392 2.3338493 14.490234 1.8867188 C 14.283217 1.4604506 13.784564 1.1790931 13.451172 1.1035156 C 13.11778 1.0279381 12.847432 1.027024 12.517578 1.0117188 C 12.34595 1.0037527 12.173485 1 12 1 z M 10.910156 9 C 10.201301 9 9.5786228 9.5101219 9.4394531 10.205078 L 9.0195312 12.304688 A 1.0001 1.0001 0 0 0 10.232422 13.472656 C 10.956465 13.30023 11.535068 13.142578 12.072266 13.142578 C 12.596947 13.142578 13 13.547647 13 14.072266 C 13 14.596884 12.596884 15 12.072266 15 C 11.651596 15 11.28442 14.977737 11.136719 14.929688 C 11.08133 14.911669 11.053506 14.915297 11.041016 14.916016 L 11.039062 14.916016 L 11.037109 14.916016 L 11.035156 14.916016 L 11.035156 14.914062 L 11.033203 14.914062 L 11.033203 14.912109 L 11.03125 14.910156 C 11.027536 14.897918 11.0271 14.864301 11.007812 14.779297 A 1 1 0 0 0 9.8105469 14.025391 A 1 1 0 0 0 9.0566406 15.220703 C 9.2399696 16.028765 9.9120328 16.634405 10.519531 16.832031 C 11.12703 17.029657 11.665535 17 12.072266 17 C 13.677847 17 15 15.677847 15 14.072266 C 15 12.466684 13.677784 11.142578 12.072266 11.142578 C 11.758411 11.142578 11.543651 11.234358 11.263672 11.277344 L 11.320312 11 L 14 11 A 1 1 0 0 0 15 10 A 1 1 0 0 0 14 9 L 10.910156 9 z " fill="currentColor"/>
</svg>
