<svg xmlns="http://www.w3.org/2000/svg" width="1em" height="1em" viewBox="0 0 24 24" fill="currentColor">
  <path d="M 12 3 C 10.4615 3 9.4846048 2.9576386 8.546875 3.5234375 C 8.4771672 3.5654954 8.408603 3.6096637 8.3417969 3.65625 C 7.4410038 4.2843321 7.0607475 5.1968169 6.3671875 6.6542969 C 6.0054152 7.4145218 5.7002596 8.0510338 5.4667969 8.6210938 A 1 1 0 0 0 6.0136719 9.9257812 A 1 1 0 0 0 7.3183594 9.3789062 C 7.5177567 8.8920261 7.8101073 8.273887 8.171875 7.5136719 C 8.865435 6.0561919 9.1785812 5.5114529 9.4863281 5.296875 C 9.517122 5.2754013 9.5481859 5.2555702 9.5800781 5.2363281 C 9.9001483 5.0432071 10.4615 5 12 5 C 13.5385 5 14.09984 5.0432 14.419922 5.2363281 C 14.451662 5.2554801 14.482722 5.275291 14.513672 5.296875 C 14.82145 5.5114642 15.134633 6.0562087 15.828125 7.5136719 C 16.189918 8.2738774 16.482291 8.892074 16.681641 9.3789062 A 1 1 0 0 0 17.986328 9.9257812 A 1 1 0 0 0 18.533203 8.6210938 C 18.299753 8.0509858 17.994619 7.4145313 17.632812 6.6542969 C 16.939304 5.1968 16.559025 4.2843208 15.658203 3.65625 C 15.591555 3.6097737 15.522982 3.5655854 15.453125 3.5234375 C 14.515407 2.9576458 13.5385 3 12 3 z M 8 11 C 6.46152 11 5.4846153 10.957569 4.546875 11.523438 C 4.476466 11.565857 4.4080418 11.610108 4.3417969 11.65625 C 3.440936 12.284335 3.0607399 13.196913 2.3671875 14.654297 C 1.8501228 15.740896 1.447627 16.566577 1.2070312 17.326172 C 0.96643568 18.085766 0.88809499 18.91066 1.2792969 19.623047 A 1.0001 1.0001 0 0 0 1.28125 19.625 C 1.307039 19.67193 1.3343962 19.71779 1.3632812 19.763672 C 1.7947613 20.448836 2.5759531 20.776336 3.3417969 20.892578 C 4.1081223 21.008846 4.9845194 21 6.1308594 21 L 9.8691406 21 C 11.015456 21 11.891877 21.0089 12.658203 20.892578 C 13.42453 20.776264 14.207361 20.449738 14.638672 19.763672 C 14.667162 19.718332 14.69336 19.671002 14.71875 19.625 A 1.0001 1.0001 0 0 0 14.720703 19.623047 C 15.111909 18.910652 15.033563 18.085762 14.792969 17.326172 C 14.55237 16.566582 14.149859 15.740891 13.632812 14.654297 C 12.93922 13.196913 12.559093 12.284323 11.658203 11.65625 C 11.592073 11.61017 11.523741 11.56597 11.453125 11.523438 C 10.51534 10.957623 9.53848 11 8 11 z M 15.998047 11 C 15.414947 11 14.931798 10.998604 14.494141 11.021484 A 1 1 0 0 0 13.548828 12.072266 A 1 1 0 0 0 14.599609 13.019531 C 14.954552 13.000995 15.414947 13 15.998047 13 C 17.536547 13 18.097933 13.04321 18.417969 13.236328 C 18.449829 13.255558 18.482732 13.275315 18.513672 13.296875 C 18.82134 13.511372 19.132548 14.056222 19.826172 15.513672 C 20.343225 16.600278 20.717939 17.403002 20.884766 17.929688 C 21.051592 18.456374 21.012236 18.575804 20.964844 18.662109 C 20.958144 18.674359 20.951059 18.686959 20.943359 18.699219 C 20.890909 18.782629 20.858379 18.83998 20.357422 18.916016 C 19.856466 18.992048 19.013537 19 17.867188 19 L 16.738281 19 A 1 1 0 0 0 15.738281 20 A 1 1 0 0 0 16.738281 21 L 17.867188 21 C 19.013538 21 19.89188 21.0089 20.658203 20.892578 C 21.424526 20.776264 22.205369 20.449659 22.636719 19.763672 C 22.665209 19.718332 22.69267 19.670592 22.71875 19.623047 C 23.109956 18.910652 23.03161 18.085762 22.791016 17.326172 C 22.550417 16.566582 22.14986 15.740891 21.632812 14.654297 C 20.939236 13.196947 20.557182 12.284353 19.65625 11.65625 C 19.58959 11.60981 19.522663 11.56541 19.453125 11.523438 C 18.515358 10.957558 17.536547 11 15.998047 11 z M 8 13 C 9.53848 13 10.099854 13.04319 10.419922 13.236328 C 10.450902 13.254988 10.482202 13.274945 10.513672 13.296875 C 10.821382 13.511402 11.134517 14.056256 11.828125 15.513672 C 12.345178 16.600278 12.719892 17.403002 12.886719 17.929688 C 13.053106 18.454985 13.014016 18.573912 12.966797 18.660156 C 12.959197 18.673956 12.953012 18.686959 12.945312 18.699219 C 12.892922 18.782549 12.858373 18.83998 12.357422 18.916016 C 11.85646 18.992051 11.015456 19 9.8691406 19 L 6.1308594 19 C 4.9845194 19 4.1435257 18.992096 3.6425781 18.916016 C 3.1416305 18.839976 3.1070957 18.782579 3.0546875 18.699219 A 1.0001 1.0001 0 0 0 3.0546875 18.697266 C 3.0476075 18.686016 3.0400111 18.674439 3.0332031 18.662109 L 3.0332031 18.660156 C 2.9859771 18.573906 2.9468992 18.45498 3.1132812 17.929688 C 3.2801031 17.403008 3.6548097 16.600272 4.171875 15.513672 C 4.8654426 14.056256 5.178649 13.51139 5.4863281 13.296875 C 5.5177031 13.275015 5.5489071 13.255108 5.5800781 13.236328 C 5.9001376 13.043293 6.46152 13 8 13 z " fill="currentColor"/>
</svg>
