<svg xmlns="http://www.w3.org/2000/svg" width="1em" height="1em" viewBox="0 0 24 24" fill="currentColor">
  <path d="M 2 2 A 1 1 0 0 0 1 3 A 1 1 0 0 0 2 4 L 3 4 L 3 8 L 3 11.228516 C 2.5522859 11.377393 2.1119038 11.624409 1.75 12.033203 C 1.3340371 12.503803 1.145652 13.104474 1.0703125 13.708984 C 0.99489754 14.314064 1 14.979744 1 15.839844 L 1 17.988281 C 1 18.441265 1.106373 18.899803 1.3867188 19.267578 C 1.6670646 19.635353 2.0752311 19.834821 2.4121094 19.917969 C 2.6919245 19.987032 2.9471915 20.010603 3.1777344 20.013672 C 3.5972178 21.167072 4.7096693 22 6 22 C 7.3016746 22 8.4211816 21.151593 8.8320312 19.982422 L 15.167969 19.982422 C 15.578818 21.151593 16.698325 22 18 22 C 19.301688 22 20.421192 21.151612 20.832031 19.982422 L 21.427734 19.982422 C 21.81008 19.982422 22.251895 19.818569 22.527344 19.535156 C 22.802792 19.251743 22.905683 18.933968 22.955078 18.677734 C 23.053868 18.165268 22.981321 17.762379 22.962891 17.552734 C 22.835819 16.107251 22.111478 14.912874 21.103516 14.146484 C 20.729892 13.862406 20.321124 13.633585 19.888672 13.457031 L 17.308594 4 L 18 4 A 1 1 0 0 0 19 3 A 1 1 0 0 0 18 2 L 2 2 z M 5 4 L 15.236328 4 L 17.693359 13.011719 C 17.642521 13.010561 17.591943 13.009766 17.541016 13.009766 L 16.541016 13.009766 L 15.287109 11.126953 L 15.707031 10.707031 A 1 1 0 0 0 15.707031 9.2929688 A 1 1 0 0 0 15 9 A 1 1 0 0 0 14.292969 9.2929688 L 12.292969 11.292969 A 1 1 0 0 0 12.292969 12.707031 A 1 1 0 0 0 13.707031 12.707031 L 13.84375 12.570312 L 14.779297 13.972656 C 14.572947 14.264434 14.402634 14.507854 14.248047 14.666016 C 14.001541 14.91822 13.893919 14.998047 13.490234 14.998047 L 11.376953 14.998047 C 10.969391 14.998047 10.77159 14.97807 10.697266 14.974609 C 10.67367 14.884679 10.529763 14.588258 10.363281 14.146484 C 9.9313507 13.000082 9.688149 12.213242 8.9335938 11.636719 C 8.4626706 11.276939 7.9638995 11.112009 7.4902344 11.041016 C 7.4639185 10.302109 7.3720887 9.5523549 7.0585938 8.8378906 C 6.7168382 8.0590195 5.9771879 7.4035822 5 7.1328125 L 5 4 z M 5 9.2441406 C 5.0913723 9.3419785 5.1526544 9.4721862 5.2265625 9.640625 C 5.3600992 9.944959 5.4361743 10.433578 5.4726562 11.013672 C 5.3266565 11.009115 5.1678663 11.003041 5 11 L 5 9.2441406 z M 4.9589844 13.005859 C 5.2433799 13.011178 5.5410851 13.021484 5.8359375 13.021484 C 6.737477 13.021484 7.4600187 13.028884 7.71875 13.226562 C 7.8711946 13.343039 8.0602584 13.705165 8.4921875 14.851562 C 8.6056065 15.152529 8.6626287 16.033239 9.5488281 16.644531 C 10.140122 17.052082 10.707153 16.998047 11.376953 16.998047 L 13.490234 16.998047 C 14.41025 16.998047 15.18779 16.565724 15.677734 16.064453 C 16.033488 15.700476 16.247073 15.351798 16.482422 15.009766 L 17.541016 15.009766 C 18.441784 15.009766 19.287141 15.277946 19.892578 15.738281 C 20.498015 16.198617 20.890775 16.819299 20.970703 17.728516 C 20.980933 17.844992 20.974916 17.883952 20.978516 17.982422 L 20.820312 17.982422 C 20.399521 16.831456 19.288578 16 18 16 C 16.711408 16 15.600469 16.831438 15.179688 17.982422 L 8.8203125 17.982422 C 8.3995314 16.831438 7.2885916 16 6 16 C 4.7113663 16 3.6004372 16.831379 3.1796875 17.982422 C 3.1031971 17.981108 3.0429044 17.978799 3 17.974609 L 3 15.839844 C 3 14.979744 3.0053605 14.352866 3.0546875 13.957031 C 3.1040195 13.561196 3.1658938 13.450212 3.2480469 13.357422 C 3.399864 13.185934 3.6793219 13.069991 4.1621094 13.023438 C 4.4035031 13.000163 4.6745889 13.000541 4.9589844 13.005859 z M 6 18 C 6.5641294 18 7 18.435871 7 19 C 7 19.564129 6.5641294 20 6 20 C 5.4358706 20 5 19.564129 5 19 C 5 18.435871 5.4358706 18 6 18 z M 18 18 C 18.517897 18 18.928497 18.36658 18.992188 18.863281 A 1 1 0 0 0 18.984375 18.982422 A 1 1 0 0 0 18.994141 19.117188 C 18.938251 19.6231 18.52421 20 18 20 C 17.435871 20 17 19.564129 17 19 C 17 18.435871 17.435871 18 18 18 z " fill="currentColor"/>
</svg>
