<svg xmlns="http://www.w3.org/2000/svg" width="1em" height="1em" viewBox="0 0 24 24" fill="currentColor">
  <path d="M 10.722656 2 C 9.8506965 2 9.2221074 1.958241 8.5605469 2.3359375 C 7.8989833 2.7136357 7.6187722 3.2805092 7.1894531 4.0234375 L 1.7480469 13.439453 C 1.3426793 14.141014 1.0092326 14.637032 1 15.365234 C 0.990768 16.093428 1.3117388 16.597394 1.6992188 17.308594 L 3.1054688 19.890625 C 3.5270772 20.664422 3.7996231 21.253265 4.4726562 21.648438 C 5.1455966 22.043741 5.79158 22 6.6875 22 L 17.3125 22 C 18.2084 22 18.854373 22.04382 19.527344 21.648438 C 20.200425 21.25328 20.472931 20.664425 20.894531 19.890625 L 22.300781 17.308594 A 1.0001 1.0001 0 0 0 22.302734 17.308594 C 22.690053 16.597457 23.009272 16.093563 23 15.365234 C 22.99073 14.637064 22.657333 14.141017 22.251953 13.439453 L 16.810547 4.0234375 C 16.381265 3.2805383 16.101047 2.7136633 15.439453 2.3359375 C 14.777962 1.9583754 14.149344 2 13.277344 2 L 10.722656 2 z M 10.722656 4 L 13.277344 4 C 14.149344 4 14.392957 4.0412676 14.447266 4.0722656 C 14.501276 4.1030996 14.648807 4.2804767 15.078125 5.0234375 L 20.265625 14 L 16.548828 14 L 10.189453 4.0058594 C 10.333871 4.0016769 10.509696 4 10.722656 4 z M 8.7050781 5.3984375 L 10.919922 8.8789062 L 5.046875 19.267578 C 4.991736 19.170634 4.9302987 19.060179 4.8613281 18.933594 L 3.4550781 16.351562 C 3.0675981 15.640361 2.9994725 15.432231 3 15.390625 C 3.0005274 15.349025 3.073103 15.143045 3.4785156 14.441406 L 8.7050781 5.3984375 z M 12.136719 10.791016 L 14.177734 14 L 10.322266 14 L 12.136719 10.791016 z M 9.1933594 16 L 15.976562 16 L 16.023438 16 L 20.732422 16 C 20.680323 16.10074 20.618127 16.217172 20.544922 16.351562 L 19.138672 18.933594 C 18.717072 19.707394 18.568591 19.891586 18.513672 19.923828 C 18.458842 19.956042 18.2084 20 17.3125 20 L 6.9316406 20 L 9.1933594 16 z " fill="currentColor"/>
</svg>
