<svg xmlns="http://www.w3.org/2000/svg" width="1em" height="1em" viewBox="0 0 24 24" fill="currentColor">
  <path d="M 12 2 C 10.457752 2 8.9388479 2.1228725 7.7929688 2.2460938 C 6.8806524 2.3442033 6.2152112 2.4267808 5.4355469 2.8183594 C 4.6936588 3.1909767 4.2814375 3.5990181 3.8359375 4.0800781 C 2.0776126 5.9787453 1 8.5069919 1 11.269531 C 1 17.198581 5.9513225 22 12 22 C 18.048632 22 23 17.198588 23 11.269531 C 23 8.5070054 21.922395 5.978753 20.164062 4.0800781 C 19.718514 3.5990728 19.306317 3.1909875 18.564453 2.8183594 C 17.784771 2.4268084 17.119435 2.3442041 16.207031 2.2460938 C 15.061188 2.1228718 13.542248 2 12 2 z M 12 4 C 13.434952 4 14.893431 4.1162168 15.992188 4.234375 C 16.147391 4.2510641 16.283039 4.2658428 16.404297 4.2792969 C 16.264364 4.3424168 16.103893 4.4054732 15.925781 4.4648438 C 14.984754 4.7785154 13.566776 5 12 5 C 10.433218 5 9.0152406 4.7785177 8.0742188 4.4648438 C 7.8961117 4.4054748 7.7356336 4.3424152 7.5957031 4.2792969 C 7.7169614 4.2658415 7.8526196 4.2510643 8.0078125 4.234375 C 9.1066133 4.1162163 10.565048 4 12 4 z M 5.4960938 5.2285156 C 5.6064186 5.3542529 5.7277316 5.4668634 5.8515625 5.5644531 C 6.2942826 5.9133559 6.826131 6.1581895 7.4414062 6.3632812 C 8.6719569 6.7734648 10.253072 7 12 7 C 13.746924 7 15.328042 6.7734647 16.558594 6.3632812 C 17.173869 6.1581896 17.705717 5.9133555 18.148438 5.5644531 C 18.272262 5.4668689 18.393586 5.3542443 18.503906 5.2285156 C 18.559756 5.2891684 18.622649 5.358899 18.697266 5.4394531 C 20.132534 6.9892783 21 9.0245776 21 11.269531 C 21 16.087675 16.996968 20 12 20 C 7.0029775 20 3 16.087681 3 11.269531 C 3 9.024591 3.8674593 6.9892859 5.3027344 5.4394531 C 5.3773421 5.3588901 5.4402471 5.289174 5.4960938 5.2285156 z " fill="currentColor"/>
</svg>
