<svg xmlns="http://www.w3.org/2000/svg" width="1em" height="1em" viewBox="0 0 24 24" fill="currentColor">
  <path d="M 12 0.5 A 1 1 0 0 0 11 1.5 L 11 2.5546875 C 6.5677494 3.0278134 3.0332258 6.5659249 2.5664062 11 L 1.5 11 A 1 1 0 0 0 0.5 12 A 1 1 0 0 0 1.5 13 L 2.5664062 13 C 3.0332267 17.434063 6.5677484 20.972185 11 21.445312 L 11 22.5 A 1 1 0 0 0 12 23.5 A 1 1 0 0 0 13 22.5 L 13 21.449219 C 17.445017 20.987755 20.993153 17.443176 21.460938 13 L 22.5 13 A 1 1 0 0 0 23.5 12 A 1 1 0 0 0 22.5 11 L 21.460938 11 C 20.993154 6.5568107 17.445016 3.0122432 13 2.5507812 L 13 1.5 A 1 1 0 0 0 12 0.5 z M 12 4.5 A 1 1 0 0 0 12.013672 4.5 C 16.115777 4.5 19.429618 7.7638878 19.511719 11.845703 A 1 1 0 0 0 19.5 12 A 1 1 0 0 0 19.511719 12.154297 C 19.429617 16.236091 16.115775 19.5 12.013672 19.5 C 7.8596614 19.5 4.5136719 16.153957 4.5136719 12 C 4.5136719 7.8506209 7.8523784 4.5074005 12 4.5 z M 12 8 C 9.8026932 8 8 9.8026731 8 12 C 8 14.197327 9.8026932 16 12 16 C 14.197239 16 16 14.197347 16 12 C 16 9.802653 14.197239 8 12 8 z M 12 10 C 13.116361 10 14 10.883547 14 12 C 14 13.116453 13.116361 14 12 14 C 10.883507 14 10 13.116473 10 12 C 10 10.883527 10.883507 10 12 10 z " fill="currentColor"/>
</svg>
