<svg xmlns="http://www.w3.org/2000/svg" width="1em" height="1em" viewBox="0 0 24 24" fill="currentColor">
  <path d="M 20.75 2 C 20.071567 2 19.5 2.5716244 19.5 3.25 C 19.5 3.9283756 20.071567 4.5 20.75 4.5 C 21.428433 4.5 22 3.9283756 22 3.25 C 22 2.5716244 21.428433 2 20.75 2 z M 4.5703125 5.0019531 C 4.035882 5.0294843 3.5103397 5.3575574 3.2109375 5.703125 C 2.9115353 6.0486926 2.7155017 6.412123 2.4570312 6.8554688 C 0.05807316 10.970333 0.62963453 16.336655 4.1464844 19.853516 C 7.6633426 23.370374 13.029679 23.941966 17.144531 21.542969 C 17.58785 21.284487 17.951298 21.088443 18.296875 20.789062 C 18.642452 20.489683 18.970516 19.964158 18.998047 19.429688 C 19.028417 18.840262 18.70349 18.288234 18.359375 17.941406 C 18.01526 17.594579 17.619446 17.317077 17.121094 16.953125 C 16.428202 16.447104 15.73595 15.894305 15.042969 15.302734 C 16.454135 13.534973 16.341795 10.927684 14.707031 9.2929688 C 13.829701 8.4155811 12.673135 7.9765641 11.515625 7.9765625 C 10.516406 7.9765611 9.5164775 8.3031491 8.6972656 8.9570312 C 8.1056885 8.2640405 7.5528915 7.571806 7.046875 6.8789062 C 6.6829245 6.3805406 6.4054299 5.9847467 6.0585938 5.640625 C 5.7117577 5.2965033 5.159704 4.9715906 4.5703125 5.0019531 z M 17.25 5.5 C 16.571567 5.5 16 6.0716244 16 6.75 C 16 7.4283756 16.571567 8 17.25 8 C 17.928433 8 18.5 7.4283756 18.5 6.75 C 18.5 6.0716244 17.928433 5.5 17.25 5.5 z M 4.6738281 7.0898438 C 4.8249407 7.2446442 5.0784638 7.5749808 5.4316406 8.0585938 C 6.8258651 9.9677363 8.509852 11.822281 10.34375 13.65625 C 12.177722 15.490121 14.032287 17.174123 15.941406 18.568359 C 16.425003 18.921535 16.755338 19.175042 16.910156 19.326172 C 16.782756 19.424802 16.541457 19.581558 16.138672 19.816406 C 12.795324 21.765609 8.4352887 21.314195 5.5605469 18.439453 C 2.6858167 15.564714 2.2344119 11.204704 4.1835938 7.8613281 C 4.418398 7.4585762 4.5752146 7.2172182 4.6738281 7.0898438 z M 11.478516 9.9648438 C 12.131933 9.9550831 12.788218 10.202247 13.292969 10.707031 C 14.190046 11.604083 14.27484 12.981133 13.546875 13.96875 C 12.950898 13.415864 12.354448 12.83879 11.757812 12.242188 C 11.161482 11.645834 10.583901 11.050774 10.03125 10.455078 C 10.463249 10.136195 10.970302 9.9724353 11.478516 9.9648438 z " fill="currentColor"/>
</svg>
