<svg xmlns="http://www.w3.org/2000/svg" width="1em" height="1em" viewBox="0 0 24 24" fill="currentColor">
  <path d="M 12 1 C 10.796815 1 9.8513577 1.5610847 8.2441406 2.4394531 L 3.5175781 5.0234375 C 2.8588344 5.3834518 2.3448987 5.653151 1.9042969 5.9902344 C 1.463695 6.3273177 1.0251107 6.8779585 1.0019531 7.5371094 C 0.97878433 8.1962631 1.3734994 8.7733357 1.7871094 9.1445312 C 2.2007194 9.5157268 2.6946266 9.8299651 3.3261719 10.244141 A 1.0001 1.0001 0 0 0 3.4082031 10.291016 L 4 10.603516 L 4 13.5 L 4 15.023438 C 4 17.477316 5.1833165 19.770606 7.1738281 21.064453 L 8.5742188 21.974609 C 10.666707 23.334848 13.333277 23.334843 15.425781 21.974609 L 16.826172 21.064453 C 18.816627 19.770604 20 17.477322 20 15.023438 L 20 13.5 L 20 10.603516 L 20.591797 10.291016 A 1.0001 1.0001 0 0 0 20.673828 10.244141 C 21.305385 9.8299563 21.799288 9.5157338 22.212891 9.1445312 C 22.626494 8.7733285 23.021215 8.196235 22.998047 7.5371094 C 22.974879 6.8779906 22.536298 6.3273228 22.095703 5.9902344 C 21.655108 5.6531459 21.141176 5.3834546 20.482422 5.0234375 L 15.753906 2.4394531 C 14.146708 1.5610839 13.203185 1 12 1 z M 12 3 C 12.525815 3 13.18772 3.3169417 14.794922 4.1953125 L 19.523438 6.7792969 C 20.182184 7.1393098 20.655577 7.4092141 20.878906 7.5800781 C 20.895544 7.5928075 20.910604 7.6051413 20.923828 7.6152344 C 20.910201 7.6275247 20.894507 7.6404951 20.876953 7.65625 C 20.66931 7.8426065 20.217555 8.1494648 19.609375 8.5488281 L 18.896484 8.9238281 C 16.867854 8.3328403 14.51403 8 12 8 C 9.485962 8 7.1321393 8.3328401 5.1035156 8.9238281 L 4.390625 8.5488281 C 3.7824438 8.1494613 3.330705 7.8426135 3.1230469 7.65625 C 3.1054924 7.6404957 3.0897999 7.6275247 3.0761719 7.6152344 C 3.0893967 7.6051409 3.104455 7.5928076 3.1210938 7.5800781 C 3.3444368 7.409209 3.8178162 7.1393126 4.4765625 6.7792969 L 9.2050781 4.1953125 C 10.812301 3.3169409 11.474185 3 12 3 z M 12 10 C 14.214443 10 16.238276 10.316025 18 10.796875 L 18 12.253906 C 16.171569 11.803983 14.175373 11.5 12 11.5 C 9.8246195 11.5 7.8284268 11.803983 6 12.253906 L 6 10.796875 C 7.7617161 10.316025 9.7855476 10 12 10 z M 12 13.5 C 14.194083 13.5 16.248839 13.775382 18 14.248047 L 18 15.023438 C 18 16.831553 17.119273 18.487768 15.736328 19.386719 L 14.335938 20.296875 C 12.88164 21.242241 11.118335 21.242236 9.6640625 20.296875 L 8.2636719 19.386719 C 6.8806835 18.487766 6 16.831558 6 15.023438 L 6 14.248047 C 7.7511526 13.775383 9.8059086 13.5 12 13.5 z " fill="currentColor"/>
</svg>
