<svg xmlns="http://www.w3.org/2000/svg" width="1em" height="1em" viewBox="0 0 24 24" fill="currentColor">
  <path d="M 18.230469 1.9921875 C 17.986166 1.996282 17.737517 2.0413216 17.488281 2.1347656 C 17.439741 2.1529676 17.426771 2.2072406 17.380859 2.2285156 A 1 1 0 0 0 17.324219 2.2148438 L 10.460938 6.3339844 A 1 1 0 0 0 10.423828 6.3554688 L 7.0664062 8.3691406 A 1 1 0 0 0 6.90625 8.4667969 L 2.3984375 11.169922 C 1.4645858 11.570973 1.053257 12.5788 1.0058594 13.521484 C 0.95697747 14.49369 1.212328 15.563124 1.7324219 16.636719 C 2.2525099 17.710313 2.9503903 18.598954 3.7421875 19.210938 C 4.5339847 19.822921 5.5147784 20.239012 6.5117188 19.865234 A 1.0001 1.0001 0 0 0 6.6757812 19.785156 L 11.167969 17.089844 C 11.403502 19.003402 10.275391 20.121094 10.275391 20.121094 A 1.0001 1.0001 0 0 0 11.431641 21.712891 L 13.228516 20.853516 L 13.728516 21.572266 A 1.0001 1.0001 0 0 0 15.359375 21.585938 C 16.526964 19.972147 16.959705 18.29105 16.998047 16.867188 C 17.030689 15.654915 16.804913 14.64276 16.488281 13.898438 L 21.675781 10.785156 A 1 1 0 0 0 21.814453 10.597656 C 22.543347 10.129066 22.951998 9.3165534 22.994141 8.4785156 C 23.043029 7.5063255 22.78768 6.4368745 22.267578 5.3632812 C 21.747485 4.2897053 21.049605 3.4010504 20.257812 2.7890625 C 19.861917 2.4830686 19.418205 2.2255031 18.949219 2.0917969 C 18.714725 2.0249437 18.474771 1.988093 18.230469 1.9921875 z M 18.238281 4.0117188 C 18.334626 4.0088294 18.619978 4.0501965 19.035156 4.3710938 C 19.520739 4.7464084 20.071543 5.416414 20.46875 6.2363281 C 20.865948 7.0562248 21.022355 7.8566813 20.996094 8.3789062 C 20.969834 8.9011311 20.845515 8.9790761 20.810547 8.9921875 C 20.775497 9.0053305 20.450427 9.0042224 19.964844 8.6289062 C 19.479261 8.25359 18.928457 7.5835872 18.53125 6.7636719 C 18.134052 5.9437752 17.977645 5.1433187 18.003906 4.6210938 C 18.029079 4.1205205 18.141211 4.0515604 18.181641 4.0332031 L 18.208984 4.015625 C 18.214873 4.014124 18.224518 4.0121315 18.238281 4.0117188 z M 16.173828 5.2382812 C 16.242218 6.017514 16.332022 6.8102133 16.732422 7.6367188 C 17.252514 8.7102935 17.950395 9.5989457 18.742188 10.210938 L 14.972656 12.474609 C 14.464231 12.17968 13.794116 11.670932 13.238281 10.972656 C 12.59471 10.164161 12.075323 9.118716 11.974609 7.7578125 L 16.173828 5.2382812 z M 10.115234 8.8730469 C 10.387269 10.22427 10.981519 11.349027 11.673828 12.21875 C 12.122156 12.781968 12.602832 13.242573 13.076172 13.611328 L 11.513672 14.548828 C 10.60316 13.918925 9.0518665 12.357032 8.5839844 9.7910156 L 10.115234 8.8730469 z M 6.7695312 10.880859 C 7.332184 13.126064 8.5275797 14.694356 9.6582031 15.662109 L 5.7910156 17.984375 C 5.7439548 17.996363 5.4393422 17.995648 4.9648438 17.628906 C 4.479251 17.25359 3.9284419 16.583577 3.53125 15.763672 C 3.1340539 14.943767 2.9776481 14.143338 3.0039062 13.621094 C 3.0301643 13.09885 3.1544737 13.020927 3.1894531 13.007812 A 1.0001 1.0001 0 0 0 3.3535156 12.929688 L 6.7695312 10.880859 z M 14.740234 14.947266 C 14.887412 15.407523 15.018059 16.071258 14.998047 16.814453 C 14.979487 17.503743 14.766161 18.279201 14.427734 19.076172 L 14.382812 19.011719 A 1.0001 1.0001 0 0 0 13.130859 18.681641 L 12.976562 18.755859 C 13.157434 17.948179 13.248451 17.04805 12.988281 15.998047 L 14.740234 14.947266 z " fill="currentColor"/>
</svg>
