<svg xmlns="http://www.w3.org/2000/svg" width="1em" height="1em" viewBox="0 0 24 24" fill="currentColor">
  <path d="M 16 1 C 14.052778 1 12.65832 2.1167944 11.933594 3.375 C 11.406113 4.2907637 11.152035 5.2683609 11.052734 6.1152344 C 10.246535 6.3134952 9.5336264 6.7574008 9 7.3632812 C 8.26512 6.5289014 7.1904717 6 6 6 C 3.8027068 6 2 7.8027068 2 10 C 2 11.90664 3.3577151 13.515726 5.1523438 13.908203 C 5.0534524 14.255981 5 14.62281 5 15 C 5 16.853176 6.2821883 18.42594 8.0019531 18.873047 C 8.000611 18.915339 8 18.957462 8 19 C 8 21.197307 9.8026932 23 12 23 C 14.197307 23 16 21.197307 16 19 C 16 18.957463 15.99939 18.915338 15.998047 18.873047 C 17.717831 18.425941 19 16.853164 19 15 C 19 14.622805 18.946552 14.255974 18.847656 13.908203 C 20.642312 13.515731 22 11.90663 22 10 C 22 7.8027269 20.197327 6 18 6 C 16.809514 6 15.734875 6.5289046 15 7.3632812 C 14.494888 6.7897771 13.82961 6.3608261 13.076172 6.1484375 C 13.170987 5.5671926 13.358932 4.908131 13.666016 4.375 C 14.141289 3.5498731 14.747222 3 16 3 A 1 1 0 0 0 17 2 A 1 1 0 0 0 16 1 z M 6 8 C 7.1164068 8 8 8.8835932 8 10 C 8 11.116473 7.1164269 12 6 12 C 4.8835731 12 4 11.116473 4 10 C 4 8.8835932 4.8835932 8 6 8 z M 12 8 C 13.116473 8 14 8.8835731 14 10 C 14 11.116493 13.116493 12 12 12 C 10.883507 12 10 11.116493 10 10 C 10 8.8835731 10.883527 8 12 8 z M 18 8 C 19.116473 8 20 8.8835731 20 10 C 20 11.116493 19.116493 12 18 12 C 16.883507 12 16 11.116493 16 10 C 16 8.8835731 16.883527 8 18 8 z M 9 12.636719 C 9.4168303 13.109987 9.9425187 13.484697 10.537109 13.720703 C 10.826452 14.067823 11 14.508494 11 15 C 11 16.116493 10.116493 17 9 17 C 7.8835731 17 7 16.116473 7 15 C 7 14.508453 7.1735565 14.067791 7.4628906 13.720703 C 8.0574787 13.484697 8.5831675 13.109987 9 12.636719 z M 15 12.636719 C 15.416829 13.109985 15.942521 13.484697 16.537109 13.720703 C 16.826453 14.067821 17 14.508493 17 15 C 17 16.116493 16.116493 17 15 17 C 13.883507 17 13 16.116493 13 15 C 13 14.508494 13.173552 14.067821 13.462891 13.720703 C 14.057481 13.484698 14.583169 13.109986 15 12.636719 z M 12 17.636719 C 12.521104 18.228378 13.213146 18.666227 13.996094 18.871094 C 13.998749 18.913556 14 18.956581 14 19 C 14 20.116493 13.116493 21 12 21 C 10.883507 21 10 20.116493 10 19 C 10 18.956581 10.001252 18.913555 10.003906 18.871094 C 10.786853 18.666227 11.478896 18.228378 12 17.636719 z " fill="currentColor"/>
</svg>
