<svg xmlns="http://www.w3.org/2000/svg" width="1em" height="1em" viewBox="0 0 24 24" fill="currentColor">
  <path d="M 12 1 C 5.9367124 1 1 5.9367124 1 12 C 1 18.063288 5.9367124 23 12 23 C 18.063288 23 23 18.063288 23 12 C 23 5.9367124 18.063288 1 12 1 z M 12 3 C 16.982407 3 21 7.0175926 21 12 C 21 16.982407 16.982407 21 12 21 C 7.0175926 21 3 16.982407 3 12 C 3 7.0175926 7.0175926 3 12 3 z M 9.9511719 7.0019531 A 1 1 0 0 0 9.2597656 7.328125 A 1 1 0 0 0 9.328125 8.7402344 L 12.660156 11.761719 C 12.769656 11.860962 12.845466 11.941042 12.896484 12 C 12.845466 12.058958 12.769656 12.139036 12.660156 12.238281 L 9.328125 15.259766 A 1 1 0 0 0 9.2597656 16.671875 A 1 1 0 0 0 10.671875 16.740234 L 14.003906 13.720703 C 14.501707 13.269528 15 12.803199 15 12 C 15 11.196801 14.501707 10.730471 14.003906 10.279297 L 10.671875 7.2597656 A 1 1 0 0 0 9.9511719 7.0019531 z " fill="currentColor"/>
</svg>
