<svg xmlns="http://www.w3.org/2000/svg" width="1em" height="1em" viewBox="0 0 24 24" fill="currentColor">
  <path d="M 6.5 2 C 5.09554 2 4.1948867 1.9306275 3.3339844 2.5058594 C 3.0064319 2.7247277 2.7247274 3.0064099 2.5058594 3.3339844 C 1.9306099 4.1948875 2 5.09554 2 6.5 C 2 7.90446 1.9306099 8.8051125 2.5058594 9.6660156 C 2.7247274 9.9935901 3.0064319 10.275272 3.3339844 10.494141 C 4.1948867 11.069373 5.09554 11 6.5 11 C 7.90447 11 8.8051133 11.069373 9.6660156 10.494141 C 9.9935681 10.275272 10.275273 9.9935901 10.494141 9.6660156 C 11.069373 8.8051133 11 7.90446 11 6.5 C 11 5.09554 11.069373 4.1948867 10.494141 3.3339844 C 10.275273 3.0064099 9.9935681 2.7247277 9.6660156 2.5058594 C 8.8051133 1.9306275 7.90447 2 6.5 2 z M 17.5 2 C 16.0955 2 15.194884 1.9306866 14.333984 2.5058594 C 14.00659 2.7247025 13.72473 3.0066078 13.505859 3.3339844 C 12.930733 4.194882 13 5.09554 13 6.5 C 13 7.90446 12.930733 8.805118 13.505859 9.6660156 C 13.72473 9.9933922 14.00659 10.275297 14.333984 10.494141 C 15.194884 11.069313 16.0955 11 17.5 11 C 18.9044 11 19.80509 11.06944 20.666016 10.494141 C 20.993607 10.275266 21.275273 9.9936121 21.494141 9.6660156 C 22.069443 8.8051102 22 7.90446 22 6.5 C 22 5.09554 22.069443 4.1948898 21.494141 3.3339844 C 21.275273 3.0063879 20.993607 2.7247339 20.666016 2.5058594 C 19.80509 1.9305547 18.9044 2 17.5 2 z M 6.5 4 C 7.90447 4 8.4066898 4.0690807 8.5546875 4.1679688 C 8.663895 4.2409405 8.7590792 4.336127 8.8320312 4.4453125 C 8.9309192 4.5933102 9 5.09554 9 6.5 C 9 7.90446 8.9309192 8.4066898 8.8320312 8.5546875 C 8.7590791 8.663873 8.663895 8.7590594 8.5546875 8.8320312 C 8.4066898 8.9309192 7.90447 9 6.5 9 C 5.09554 9 4.5933102 8.9309192 4.4453125 8.8320312 C 4.336105 8.7590594 4.2409208 8.663873 4.1679688 8.5546875 C 4.0690783 8.4066906 4 7.90446 4 6.5 C 4 5.09554 4.0690783 4.5933094 4.1679688 4.4453125 C 4.2409208 4.336127 4.336105 4.2409405 4.4453125 4.1679688 C 4.5933102 4.0690807 5.09554 4 6.5 4 z M 17.5 4 C 18.9044 4 19.406813 4.0691531 19.554688 4.1679688 C 19.663896 4.2409337 19.759099 4.336149 19.832031 4.4453125 C 19.930929 4.593307 20 5.09554 20 6.5 C 20 7.90446 19.930929 8.406693 19.832031 8.5546875 C 19.759099 8.663851 19.663896 8.7590658 19.554688 8.8320312 C 19.406813 8.9308466 18.9044 9 17.5 9 C 16.096825 9 15.593942 8.9308297 15.445312 8.8320312 L 15.443359 8.8320312 C 15.334692 8.7591452 15.240841 8.6636858 15.167969 8.5546875 C 15.069095 8.4066851 15 7.90446 15 6.5 C 15 5.09554 15.069095 4.5933149 15.167969 4.4453125 C 15.240841 4.3363142 15.334646 4.2408548 15.443359 4.1679688 C 15.59146 4.0690215 16.0955 4 17.5 4 z M 6.5 13 C 5.09554 13 4.1948898 12.930557 3.3339844 13.505859 C 3.0063879 13.724727 2.7247336 14.006371 2.5058594 14.333984 C 1.9305711 15.19486 2 16.0955 2 17.5 C 2 18.9045 1.930571 19.80514 2.5058594 20.666016 C 2.7247336 20.993629 3.0063879 21.275273 3.3339844 21.494141 C 4.1948898 22.069443 5.09554 22 6.5 22 C 7.90447 22 8.8051102 22.069443 9.6660156 21.494141 C 9.9936121 21.275273 10.275266 20.993629 10.494141 20.666016 C 11.069411 19.805141 11 18.9045 11 17.5 C 11 16.0955 11.069411 15.194859 10.494141 14.333984 C 10.275266 14.006371 9.9936121 13.724727 9.6660156 13.505859 C 8.8051102 12.930557 7.90447 13 6.5 13 z M 17.5 13 C 16.0955 13 15.194887 12.93062 14.333984 13.505859 C 14.006546 13.724702 13.724736 14.006568 13.505859 14.333984 C 12.930694 15.194855 13 16.0955 13 17.5 C 13 18.9045 12.93069 19.805145 13.505859 20.666016 C 13.724736 20.993432 14.006546 21.275298 14.333984 21.494141 C 15.194887 22.069384 16.0955 22 17.5 22 C 18.9044 22 19.805087 22.06952 20.666016 21.494141 C 20.993651 21.275267 21.275267 20.993651 21.494141 20.666016 C 22.069482 19.805137 22 18.9045 22 17.5 C 22 16.0955 22.069482 15.194863 21.494141 14.333984 C 21.275267 14.006349 20.993651 13.724733 20.666016 13.505859 C 19.805087 12.930484 18.9044 13 17.5 13 z M 6.5 15 C 7.90447 15 8.406693 15.06907 8.5546875 15.167969 C 8.663851 15.240899 8.7590854 15.336126 8.8320312 15.445312 C 8.9308805 15.593237 9 16.0955 9 17.5 C 9 18.9045 8.9308805 19.406764 8.8320312 19.554688 C 8.7590854 19.663874 8.663851 19.759099 8.5546875 19.832031 C 8.406693 19.930929 7.90447 20 6.5 20 C 5.09554 20 4.593307 19.930929 4.4453125 19.832031 C 4.336149 19.759099 4.2409145 19.663874 4.1679688 19.554688 C 4.0691171 19.406764 4 18.9045 4 17.5 C 4 16.0955 4.069117 15.593236 4.1679688 15.445312 C 4.2409145 15.336125 4.336149 15.240901 4.4453125 15.167969 C 4.593307 15.069071 5.09554 15 6.5 15 z M 17.5 15 C 18.9044 15 19.406816 15.06914 19.554688 15.167969 C 19.663853 15.240899 19.759105 15.336148 19.832031 15.445312 C 19.93089 15.593234 20 16.0955 20 17.5 C 20 18.9045 19.93089 19.406766 19.832031 19.554688 C 19.759101 19.663853 19.663853 19.759105 19.554688 19.832031 C 19.406816 19.930856 18.9044 20 17.5 20 C 16.0955 20 15.593409 19.930988 15.445312 19.832031 C 15.33615 19.759074 15.241092 19.664072 15.167969 19.554688 C 15.069134 19.406758 15 18.9045 15 17.5 C 15 16.0955 15.06913 15.593241 15.167969 15.445312 C 15.241089 15.335928 15.336151 15.240926 15.445312 15.167969 C 15.59341 15.069012 16.0955 15 17.5 15 z " fill="currentColor"/>
</svg>
