<svg xmlns="http://www.w3.org/2000/svg" width="1em" height="1em" viewBox="0 0 24 24" fill="currentColor">
  <path d="M 17 1 A 1.0001 1.0001 0 0 0 16.181641 1.4257812 L 10.091797 10.125 A 1.0001 1.0001 0 0 0 10.089844 11.267578 L 12.078125 14.140625 A 1.0001 1.0001 0 0 0 13.720703 14.144531 L 21.820312 2.5742188 A 1.0001 1.0001 0 0 0 21 1 L 17 1 z M 17.521484 3 L 19.080078 3 L 12.90625 11.820312 L 12.130859 10.701172 L 17.521484 3 z M 21.025391 4.9238281 A 1.0001 1.0001 0 0 0 20.181641 5.3496094 L 17.181641 9.6367188 A 1.0001 1.0001 0 0 0 17 10.208984 L 17 22 A 1.0001 1.0001 0 0 0 18 23 L 21 23 A 1.0001 1.0001 0 0 0 22 22 L 22 5.9238281 A 1.0001 1.0001 0 0 0 21.300781 4.9707031 A 1.0001 1.0001 0 0 0 21.025391 4.9238281 z M 3 8 A 1.0001 1.0001 0 0 0 2.1777344 9.5683594 L 11.177734 22.568359 A 1.0001 1.0001 0 0 0 12 23 L 16 23 A 1.0001 1.0001 0 0 0 16.822266 21.431641 L 7.8222656 8.4316406 A 1.0001 1.0001 0 0 0 7 8 L 3 8 z M 20 9.0957031 L 20 21 L 19 21 L 19 10.523438 L 20 9.0957031 z M 4.9082031 10 L 6.4765625 10 L 14.091797 21 L 12.523438 21 L 4.9082031 10 z M 6.1523438 16.501953 A 1.0001 1.0001 0 0 0 5.3300781 16.927734 L 2.1816406 21.425781 A 1.0001 1.0001 0 0 0 3 23 L 7 23 A 1.0001 1.0001 0 0 0 7.8203125 22.574219 L 8.9570312 20.947266 A 1.0001 1.0001 0 0 0 8.9609375 19.804688 L 6.9707031 16.931641 A 1.0001 1.0001 0 0 0 6.1523438 16.501953 z M 6.1445312 19.251953 L 6.9199219 20.371094 L 6.4804688 21 L 4.921875 21 L 6.1445312 19.251953 z " fill="currentColor"/>
</svg>
