<svg xmlns="http://www.w3.org/2000/svg" width="1em" height="1em" viewBox="0 0 24 24" fill="currentColor">
  <path d="M 19.179688 3.0078125 C 18.852598 3.0083737 18.532687 3.0254204 18.21875 3.0585938 C 16.963001 3.191287 15.815357 3.5787275 14.800781 4.1601562 C 12.77163 5.3230138 11.271534 7.1979873 10.185547 9.2441406 C 9.6857505 10.185842 9.1842325 10.960184 8.6660156 11.601562 A 1 1 0 0 0 8.5039062 11.796875 C 6.6965185 13.924326 4.6723848 14.506817 1.8242188 15.015625 A 1 1 0 0 0 1.015625 16.175781 A 1 1 0 0 0 2.1757812 16.984375 C 2.9291127 16.849797 3.6592278 16.692608 4.3652344 16.492188 A 1 1 0 0 0 4.4648438 16.5 C 5.4614824 16.535768 6.3026057 16.997827 7.0996094 17.564453 C 7.02403 17.699712 6.2640061 19 5 19 A 1 1 0 0 0 4 20 A 1 1 0 0 0 5 21 C 7.0812413 21 8.2861469 19.444444 8.7148438 18.761719 C 8.944203 18.909364 9.187921 19.042107 9.4609375 19.146484 C 10.102644 19.391816 11.06685 19.297679 11.675781 18.736328 A 1.0001 1.0001 0 0 0 11.78125 18.621094 C 12.348624 17.903828 12.441322 16.94274 12.201172 16.246094 C 12.101346 15.95651 11.968946 15.700187 11.822266 15.464844 C 13.78318 12.773934 15.808751 11 21 11 A 1 1 0 0 0 22 10 A 1 1 0 0 0 21 9 C 15.61173 9 12.705045 11.109471 10.572266 13.808594 C 10.457238 13.646401 10.364579 13.498812 10.302734 13.371094 C 10.153196 13.062274 10.141831 12.987661 10.248047 12.769531 A 1 1 0 0 0 10.25 12.763672 C 10.851405 12.037796 11.420178 11.185803 11.953125 10.181641 C 12.917138 8.3653035 14.208648 6.8035862 15.794922 5.8945312 C 17.381196 4.9854763 19.26147 4.6624195 21.712891 5.3964844 A 1 1 0 0 0 22.957031 4.7265625 A 1 1 0 0 0 22.287109 3.4804688 C 21.200555 3.1551056 20.160955 3.0061288 19.179688 3.0078125 z M 8.5859375 14.404297 C 8.8863955 14.965855 9.2749401 15.414376 9.6015625 15.822266 C 9.9590638 16.268717 10.231293 16.668532 10.310547 16.898438 C 10.371914 17.07647 10.322797 17.14223 10.236328 17.271484 L 10.236328 17.273438 L 10.236328 17.275391 L 10.236328 17.277344 L 10.236328 17.279297 L 10.236328 17.28125 L 10.234375 17.283203 L 10.232422 17.285156 L 10.230469 17.285156 L 10.228516 17.287109 L 10.226562 17.287109 L 10.224609 17.287109 C 10.215732 17.288534 10.201058 17.28701 10.175781 17.277344 C 9.9808615 17.202833 9.5559393 16.913729 9.0488281 16.523438 C 8.5629026 16.149452 7.9745123 15.687581 7.2695312 15.298828 C 7.7215402 15.039302 8.1604389 14.742656 8.5859375 14.404297 z M 10.236328 17.273438 L 10.234375 17.271484 L 10.234375 17.273438 L 10.236328 17.273438 z " fill="currentColor"/>
</svg>
