<svg xmlns="http://www.w3.org/2000/svg" width="1em" height="1em" viewBox="0 0 24 24" fill="currentColor">
  <path d="M 9.1464844 3 C 6.1262013 3 3.6630406 5.3518617 2.7910156 8.4277344 C 2.663306 8.878183 2.5465974 9.2482431 2.5097656 9.6894531 C 2.4920532 9.9016313 2.5092852 10.137376 2.5625 10.371094 C 1.6347709 10.883907 1 11.874317 1 13 C 1 14.110147 1.6165592 15.088764 2.5234375 15.607422 C 2.5022525 15.742897 2.4978982 15.873935 2.5117188 15.992188 C 2.5608568 16.412625 2.6965112 16.689963 2.8242188 17.011719 C 3.7701098 19.39477 6.2760841 21 9.1464844 21 L 14.853516 21 C 17.723882 21 20.229875 19.394773 21.175781 17.011719 C 21.303485 16.68996 21.439165 16.412662 21.488281 15.992188 C 21.502096 15.873929 21.497742 15.742895 21.476562 15.607422 C 22.383444 15.088761 23 14.110137 23 13 C 23 11.874653 22.366746 10.885991 21.439453 10.373047 C 21.492284 10.139178 21.507959 9.9017631 21.490234 9.6894531 C 21.453402 9.2482634 21.336683 8.8781797 21.208984 8.4277344 C 20.336936 5.3518602 17.873775 3 14.853516 3 L 9.1464844 3 z M 9.1464844 5 L 14.853516 5 C 16.824456 5 18.605604 6.5757503 19.285156 8.9726562 C 19.412858 9.4231109 19.487379 9.7276884 19.498047 9.8554688 C 19.502945 9.9141258 19.509056 9.9290764 19.509766 9.9335938 L 19.509766 9.9355469 L 19.507812 9.9355469 L 19.505859 9.9375 L 19.503906 9.9375 C 19.500851 9.9396855 19.496146 9.9438249 19.490234 9.9511719 C 19.47959 9.9520465 19.464267 9.9548714 19.443359 9.9589844 C 19.303196 9.9865586 18.944125 10 18.421875 10 L 6 10 L 5.578125 10 C 5.055845 10 4.6967936 9.9865564 4.5566406 9.9589844 C 4.5357789 9.9548803 4.5203299 9.9519049 4.5097656 9.9511719 C 4.5038069 9.9437339 4.4972239 9.9397201 4.4941406 9.9375 L 4.4921875 9.9355469 L 4.4902344 9.9355469 L 4.4902344 9.9335938 C 4.4909268 9.9291055 4.4970471 9.914237 4.5019531 9.8554688 C 4.5126183 9.7277034 4.5871334 9.4231076 4.7148438 8.9726562 C 5.3943787 6.5757489 7.1755075 5 9.1464844 5 z M 15 6 A 1 1 0 0 0 14.292969 6.2929688 L 13.292969 7.2929688 A 1 1 0 0 0 13.292969 8.7070312 A 1 1 0 0 0 14.707031 8.7070312 L 15.707031 7.7070312 A 1 1 0 0 0 15.707031 6.2929688 A 1 1 0 0 0 15 6 z M 9 6.75 C 8.3214795 6.75 7.75 7.3214795 7.75 8 C 7.75 8.6785205 8.3214795 9.25 9 9.25 C 9.6785205 9.25 10.25 8.6785205 10.25 8 C 10.25 7.3214795 9.6785205 6.75 9 6.75 z M 4 12 L 5.5410156 12 L 6.7226562 13.378906 C 7.0755098 13.790549 7.346456 14.1199 7.671875 14.40625 C 7.997294 14.6926 8.4716563 14.962891 9 14.962891 C 9.5283437 14.962891 10.002706 14.692602 10.328125 14.40625 C 10.653544 14.119898 10.924495 13.79055 11.277344 13.378906 L 12.458984 12 L 18.421875 12 L 20 12 C 20.564193 12 21 12.435807 21 13 C 21 13.564193 20.564193 14 20 14 L 19 14 A 1 1 0 0 0 18.955078 14.001953 C 18.788068 14.000136 18.612605 14 18.421875 14 L 14 14 A 1 1 0 0 0 13 15 A 1 1 0 0 0 14 16 L 18.421875 16 C 18.898644 16 19.207676 16.01069 19.404297 16.03125 C 19.374167 16.12048 19.378519 16.12187 19.318359 16.273438 C 18.712667 17.799384 16.974349 19 14.853516 19 L 9.1464844 19 C 7.0256046 19 5.2873295 17.79939 4.6816406 16.273438 C 4.6214802 16.121865 4.6258352 16.120483 4.5957031 16.03125 C 4.792334 16.010688 5.101329 16 5.578125 16 L 6 16 A 1 1 0 0 0 7 15 A 1 1 0 0 0 6 14 L 5.578125 14 C 5.3874403 14 5.2118871 14.000135 5.0449219 14.001953 A 1 1 0 0 0 5 14 L 4 14 C 3.4358515 14 3 13.564175 3 13 C 3 12.435825 3.4358515 12 4 12 z M 8.1738281 12 L 9.8261719 12 L 9.7597656 12.078125 C 9.4069046 12.489777 9.1482806 12.778974 9.0058594 12.904297 C 9.0038643 12.906052 9.001913 12.908475 9 12.910156 C 8.9980884 12.908477 8.9961342 12.906051 8.9941406 12.904297 C 8.8517177 12.778968 8.5931009 12.489783 8.2402344 12.078125 L 8.1738281 12 z " fill="currentColor"/>
</svg>
