<svg xmlns="http://www.w3.org/2000/svg" width="1em" height="1em" viewBox="0 0 24 24" fill="currentColor">
  <path d="M 11.007812 3.0019531 C 10.4258 2.9928888 9.8407098 3.1714194 9.3515625 3.5371094 A 1.0001 1.0001 0 0 0 9.3339844 3.5507812 L 4.7363281 7.1503906 C 4.1108556 7.6400417 2.8939937 8 2 8 A 1 1 0 0 0 1 9 A 1 1 0 0 0 2 10 C 3.3405663 10 4.8347025 9.6123983 5.96875 8.7246094 L 10.550781 5.1386719 C 10.807307 4.9468917 11.150173 4.9527921 11.400391 5.1523438 C 11.735226 5.4193575 11.759774 5.8700536 11.457031 6.171875 L 9.8320312 7.7910156 A 1.0001 1.0001 0 0 0 10.537109 9.5 L 20.5 9.5 C 20.787945 9.5 21 9.7120466 21 10 C 21 10.28792 20.78792 10.5 20.5 10.5 L 16 10.5 L 14 10.5 A 1 1 0 0 0 13 11.5 A 1 1 0 0 0 14 12.5 L 15 12.5 C 15 13.064193 14.564193 13.5 14 13.5 L 13 13.5 A 1 1 0 0 0 12 14.5 A 1 1 0 0 0 13 15.5 L 14 15.5 C 14 16.064193 13.564193 16.5 13 16.5 L 12 16.5 A 1 1 0 0 0 11 17.5 A 1 1 0 0 0 12 18.5 L 12.820312 18.5 L 12.792969 18.664062 C 12.711489 19.153016 12.302393 19.5 11.806641 19.5 L 10.333984 19.5 C 8.1606248 19.5 7.1685181 19.465558 6.5644531 19.234375 C 6.3458821 19.150753 5.6911097 18.688592 5.2617188 18.3125 C 4.6987827 17.819393 3.9651268 17.5 3.1640625 17.5 L 2 17.5 A 1 1 0 0 0 1 18.5 A 1 1 0 0 0 2 19.5 L 3.1640625 19.5 C 3.4265582 19.5 3.7082087 19.610667 3.9453125 19.818359 C 4.4405925 20.252162 5.0652586 20.802997 5.8496094 21.103516 C 6.9753377 21.534346 8.1604661 21.500029 10.332031 21.5 L 11.804688 21.5 A 1.0001 1.0001 0 0 0 11.806641 21.5 C 13.266288 21.5 14.5257 20.433987 14.765625 18.994141 L 14.822266 18.650391 C 14.872706 18.347927 14.684037 18.108992 14.591797 17.835938 C 15.388303 17.294078 16 16.526567 16 15.5 C 16 15.224622 15.806818 15.029334 15.703125 14.789062 C 16.443898 14.240457 17 13.483255 17 12.5 L 20.5 12.5 C 21.86888 12.5 23 11.36888 23 10 C 23 8.6311134 21.868855 7.5 20.5 7.5 L 12.902344 7.5 C 13.950189 6.37238 13.86025 4.5558059 12.646484 3.5878906 C 12.168993 3.2070864 11.589824 3.0110175 11.007812 3.0019531 z " fill="currentColor"/>
</svg>
