<svg xmlns="http://www.w3.org/2000/svg" width="1em" height="1em" viewBox="0 0 24 24" fill="currentColor">
  <path d="M 12 0 C 10.286413 0 8.7675925 0.96379531 7.6660156 2.3847656 C 6.7136385 3.6132769 6.0249366 5.2022316 5.6582031 7 C 5.3031329 7.0002942 4.9890196 7.0069149 4.65625 7.0644531 C 4.2299126 7.1381699 3.7151647 7.3781198 3.4042969 7.78125 C 3.1151537 8.1562202 2.9881598 8.6772434 3.0019531 9.0898438 C 3.012634 9.409342 3.0676022 9.691834 3.1347656 10.001953 A 1 1 0 0 0 3.0546875 10.175781 C 2.6600008 11.330732 1.8592075 13.112689 1.3789062 14.958984 C 0.89860501 16.80528 0.67364141 18.858762 1.8554688 20.470703 C 2.6758538 21.589681 4.0769281 21.976426 5.8242188 22.357422 C 7.5715094 22.738417 9.6830513 22.955208 11.816406 22.994141 C 13.949761 23.033071 16.095054 22.894531 17.912109 22.53125 C 19.729165 22.167968 21.26849 21.670937 22.148438 20.470703 C 23.329528 18.858261 23.102015 16.802591 22.619141 14.957031 C 22.136107 13.110859 21.333762 11.32956 20.939453 10.175781 A 1 1 0 0 0 20.865234 10.007812 C 20.933134 9.6947595 20.987273 9.4118755 20.998047 9.0898438 C 21.011847 8.6772631 20.886793 8.1562369 20.597656 7.78125 A 1.0001 1.0001 0 0 0 20.595703 7.78125 C 20.284875 7.3782035 19.770087 7.1381699 19.34375 7.0644531 C 19.010976 7.0069141 18.69688 7.000294 18.341797 7 C 17.975064 5.2022316 17.286362 3.6132769 16.333984 2.3847656 C 15.232407 0.96379531 13.713587 2.9605947e-16 12 0 z M 12 2 C 12.970413 2 13.917005 2.5323403 14.751953 3.609375 C 15.410363 4.4586862 15.958862 5.6314326 16.291016 7 L 7.7089844 7 C 8.0411375 5.6314326 8.5896366 4.4586862 9.2480469 3.609375 C 10.082995 2.5323403 11.029587 2 12 2 z M 5.96875 9 L 6.4804688 9 L 6.5195312 9 L 11 9 L 11 14.240234 C 10.784897 14.346473 10.589269 14.478954 10.408203 14.621094 C 9.9804624 14.956878 9.625021 15.372838 9.3652344 15.84375 C 9.1054477 16.314662 8.903596 16.854103 9.0390625 17.507812 C 9.174529 18.161523 9.840728 18.744703 10.537109 18.875 C 11.454042 19.046592 12.532753 19.048963 13.462891 18.875 C 14.15927 18.744702 14.825474 18.161519 14.960938 17.507812 C 15.0964 16.854107 14.894548 16.314662 14.634766 15.84375 C 14.374981 15.372838 14.019536 14.956878 13.591797 14.621094 C 13.410731 14.478953 13.215103 14.346473 13 14.240234 L 13 9 L 17.480469 9 L 17.519531 9 L 18.03125 9 C 18.519779 9 18.85741 9.0112292 18.998047 9.0351562 C 18.992747 9.1532466 18.941147 9.4353796 18.849609 9.8574219 C 18.460247 11.652286 17.512399 13.113787 15.941406 14.169922 A 1 1 0 0 0 15.669922 15.558594 A 1 1 0 0 0 17.058594 15.830078 C 18.231317 15.041689 19.155741 14.034085 19.816406 12.876953 C 20.136154 13.716469 20.457701 14.601473 20.683594 15.464844 C 21.107185 17.083822 21.128839 18.479346 20.535156 19.289062 C 20.270955 19.649428 19.133397 20.248044 17.521484 20.570312 C 15.909571 20.892581 13.873688 21.031008 11.853516 20.994141 C 9.8333429 20.957273 7.8205375 20.744798 6.25 20.402344 C 4.6794625 20.059889 3.570235 19.427485 3.46875 19.289062 C 2.8745454 18.478603 2.8933189 17.081745 3.3144531 15.462891 C 3.5395197 14.597727 3.8604011 13.709896 4.1796875 12.869141 C 4.8406168 14.02909 5.7664466 15.040163 6.9414062 15.830078 A 1 1 0 0 0 8.3300781 15.558594 A 1 1 0 0 0 8.0585938 14.169922 C 6.4876451 13.113787 5.5397808 11.652293 5.1503906 9.8574219 C 5.0588374 9.4353957 5.0072681 9.1532272 5.0019531 9.0351562 C 5.1425901 9.0112292 5.4802561 9 5.96875 9 z M 12 16.001953 C 12.019747 16.010648 12.181677 16.055401 12.357422 16.193359 C 12.556632 16.349744 12.765797 16.59648 12.882812 16.808594 C 12.923243 16.881884 12.907878 16.856724 12.923828 16.910156 C 12.364796 16.990846 11.627246 16.989876 11.076172 16.910156 C 11.092132 16.856726 11.076754 16.881876 11.117188 16.808594 C 11.234203 16.596481 11.443366 16.349744 11.642578 16.193359 C 11.818323 16.055397 11.980251 16.010647 12 16.001953 z " fill="currentColor"/>
</svg>
