<svg xmlns="http://www.w3.org/2000/svg" width="1em" height="1em" viewBox="0 0 24 24" fill="currentColor">
  <path d="M 18 2 C 15.250421 2 13 4.2504209 13 7 C 13 9.7495791 15.250421 12 18 12 C 20.749579 12 23 9.7495791 23 7 C 23 4.2504209 20.749579 2 18 2 z M 18 4 C 19.668699 4 21 5.3313011 21 7 C 21 8.6686989 19.668699 10 18 10 C 16.331301 10 15 8.6686989 15 7 C 15 5.3313011 16.331301 4 18 4 z M 4 9 C 3.53501 9 3.240446 8.9822828 2.8535156 9.0859375 C 1.992356 9.3166825 1.3166751 9.9922834 1.0859375 10.853516 C 0.98221341 11.240528 1 11.535 1 12 L 1 18 C 1 18.465 0.9822139 18.759472 1.0859375 19.146484 C 1.3166751 20.007716 1.992356 20.683318 2.8535156 20.914062 C 3.2404465 21.017717 3.53501 21 4 21 C 4.46499 21 4.759554 21.017717 5.1464844 20.914062 C 5.6353226 20.78308 6.0648728 20.508929 6.3867188 20.138672 L 12.541016 21.779297 C 13.090114 21.925692 13.656241 22 14.224609 22 C 14.831687 22 15.435976 21.91474 16.019531 21.748047 L 21.240234 20.255859 C 22.27698 19.959646 23 19.003981 23 17.925781 C 23 16.598301 21.901699 15.5 20.574219 15.5 L 16.984375 15.5 C 16.994272 15.415304 17 15.329271 17 15.242188 C 17 14.090792 16.310322 13.045405 15.251953 12.591797 L 10.525391 10.566406 C 9.6540048 10.19295 8.7155127 10 7.7675781 10 L 6.4980469 10 C 6.1671262 9.5597152 5.6944563 9.2327649 5.1464844 9.0859375 C 4.759554 8.9822828 4.46499 9 4 9 z M 4 11 C 4.46499 11 4.6343366 11.019028 4.6289062 11.017578 C 4.8030267 11.064228 4.9357595 11.196926 4.9824219 11.371094 C 4.9809178 11.36548 5 11.535 5 12 L 5 18 C 5 18.465 4.9809179 18.634518 4.9824219 18.628906 C 4.9357599 18.803074 4.8030268 18.935767 4.6289062 18.982422 C 4.6343366 18.980967 4.46499 19 4 19 C 3.53501 19 3.3656634 18.980967 3.3710938 18.982422 C 3.1969732 18.935767 3.0642405 18.803074 3.0175781 18.628906 C 3.0190822 18.634518 3 18.465 3 18 L 3 12 C 3 11.535 3.0190821 11.365482 3.0175781 11.371094 C 3.0642401 11.196926 3.1969733 11.064233 3.3710938 11.017578 C 3.3656635 11.019033 3.53501 11 4 11 z M 7 12 L 7.7675781 12 C 8.4447635 12 9.1158866 12.137553 9.7382812 12.404297 L 14.462891 14.429688 C 14.790922 14.570279 15 14.885382 15 15.242188 C 15 15.396005 14.896004 15.5 14.742188 15.5 L 14.097656 15.5 C 13.49919 15.5 12.907265 15.386327 12.351562 15.164062 L 10.871094 14.572266 A 1 1 0 0 0 9.5722656 15.128906 A 1 1 0 0 0 10.128906 16.427734 L 11.609375 17.019531 C 12.351915 17.316525 13.138989 17.478948 13.9375 17.498047 A 1 1 0 0 0 14 17.5 L 20.574219 17.5 C 20.820938 17.5 21 17.679062 21 17.925781 C 21 18.119982 20.878261 18.280597 20.691406 18.333984 L 15.470703 19.826172 C 15.065659 19.941875 14.645731 20 14.224609 20 C 13.830178 20 13.437742 19.949262 13.056641 19.847656 L 7 18.232422 L 7 18.230469 C 6.9996571 18.158185 7 18.081304 7 18 L 7 12 z " fill="currentColor"/>
</svg>
