<svg xmlns="http://www.w3.org/2000/svg" width="1em" height="1em" viewBox="0 0 24 24" fill="currentColor">
  <path d="M 9.8496094 1.0058594 C 9.2672798 1.0182039 8.6909913 1.1656058 8.2226562 1.5332031 A 1.0001 1.0001 0 0 0 8.2207031 1.5332031 C 8.1498322 1.5888294 8.0832867 1.6472257 8.0175781 1.7089844 C 7.4400215 2.2518015 7.196958 3.0071665 7.0957031 3.8144531 C 7.0498709 4.1798657 7.026158 4.5727489 7.0136719 5.0078125 C 6.6667593 5.0229459 6.2935152 5.065583 5.9042969 5.1835938 C 5.2488379 5.3823285 4.54571 5.9038067 4.2109375 6.703125 C 3.969332 7.2799897 4.0039135 7.7921309 4.0058594 8.5546875 L 4.0039062 8.5546875 L 4.0019531 8.5566406 C 2.1939049 9.7864144 1 11.845088 1 14.166016 C 1 17.943507 4.1608568 21 8 21 C 11.839135 21 15 17.943509 15 14.166016 C 15 11.845098 13.806159 9.7864155 11.998047 8.5566406 L 11.996094 8.5566406 L 11.996094 8.5546875 L 11.994141 8.5566406 L 11.994141 8.5546875 C 11.996076 7.7920553 12.030659 7.2800133 11.789062 6.703125 C 11.454299 5.9037943 10.751166 5.3823275 10.095703 5.1835938 C 9.7178913 5.0690427 9.355798 5.0260584 9.0175781 5.0097656 C 9.0291679 4.635174 9.0480304 4.3199795 9.0800781 4.0644531 C 9.1542211 3.4733273 9.2626854 3.2825885 9.3867188 3.1660156 C 9.4095097 3.1445946 9.4331392 3.1242227 9.4570312 3.1054688 C 9.5836844 3.0060587 9.686456 2.9611144 10.193359 3.0214844 C 10.700263 3.0818544 11.499085 3.2926114 12.585938 3.5917969 L 12.705078 3.625 C 13.432674 3.8252837 13.955432 3.974021 14.273438 4.1074219 C 14.591442 4.2408228 14.67371 4.31614 14.759766 4.4375 C 14.93185 4.6801859 15 5.2820138 15 6.9335938 L 15 7.0117188 C 14.788919 7.0223112 14.568201 7.0423462 14.339844 7.0820312 A 1 1 0 0 0 13.525391 8.2382812 A 1 1 0 0 0 14.681641 9.0507812 C 14.775474 9.0344742 14.882459 9.0232406 15 9.015625 A 1 1 0 0 0 16 10 A 1 1 0 0 0 17 9.0195312 C 17.210397 9.0343218 17.387364 9.0587682 17.515625 9.0976562 C 17.767239 9.1739442 17.827734 9.1958753 17.945312 9.4765625 C 17.962148 9.5167621 18 9.8085082 18 10.611328 C 18 10.91331 18.06215 11.270508 18.242188 11.574219 C 18.422228 11.877929 18.663923 12.068682 18.873047 12.210938 C 20.16605 13.090395 21 14.528167 21 16.166016 C 21 18.831722 18.788265 21 16 21 C 15.162344 21 14.381127 20.803194 13.691406 20.455078 A 1 1 0 0 0 12.347656 20.896484 A 1 1 0 0 0 12.789062 22.240234 C 13.752141 22.726319 14.846656 23 16 23 C 19.839135 23 23 19.943509 23 16.166016 C 23 13.845064 21.806044 11.786382 19.998047 10.556641 L 19.996094 10.554688 L 19.994141 10.554688 C 19.996109 9.7921227 20.032605 9.2799866 19.791016 8.703125 C 19.456189 7.9038323 18.751164 7.3823257 18.095703 7.1835938 C 17.711503 7.0671062 17.343101 7.0234582 17 7.0078125 L 17 6.9335938 C 17 5.2820137 17.067693 4.231391 16.392578 3.2792969 C 16.055034 2.8032768 15.562321 2.4798985 15.046875 2.2636719 C 14.531429 2.0474453 13.963933 1.8955988 13.236328 1.6953125 L 13.115234 1.6640625 C 12.028386 1.3648779 11.197378 1.1265842 10.429688 1.0351562 C 10.237765 1.0122993 10.043719 1.0017445 9.8496094 1.0058594 z M 7.0253906 7.0175781 A 1 1 0 0 0 8 7.796875 A 1 1 0 0 0 8.9746094 7.0175781 C 9.1957645 7.032159 9.3824198 7.057269 9.515625 7.0976562 C 9.767232 7.1739425 9.8277754 7.1959132 9.9453125 7.4765625 C 9.9621477 7.5167618 10 7.8084981 10 8.6113281 C 10 8.9133079 10.062129 9.2705046 10.242188 9.5742188 C 10.42224 9.8779327 10.663914 10.068695 10.873047 10.210938 C 12.166135 11.090422 13 12.528133 13 14.166016 C 13 16.831722 10.788265 19 8 19 C 5.2117232 19 3 16.831724 3 14.166016 C 3 12.528143 3.833905 11.090424 5.1269531 10.210938 C 5.3503742 10.058972 5.5948607 9.8564575 5.7695312 9.5527344 C 5.9442018 9.2490113 6 8.9003806 6 8.6113281 C 6 7.8084981 6.0378558 7.5167503 6.0546875 7.4765625 C 6.172235 7.1959008 6.232774 7.1739415 6.484375 7.0976562 C 6.6175774 7.0572694 6.8042337 7.0321592 7.0253906 7.0175781 z M 8 11 C 6.3549904 11 5 12.35499 5 14 C 5 15.64501 6.3549904 17 8 17 C 9.6450096 17 11 15.64501 11 14 C 11 12.35499 9.6450096 11 8 11 z M 8 13 C 8.5641294 13 9 13.435871 9 14 C 9 14.564129 8.5641294 15 8 15 C 7.4358706 15 7 14.564129 7 14 C 7 13.435871 7.4358706 13 8 13 z M 17 13.267578 A 1 1 0 0 0 16.740234 13.300781 A 1 1 0 0 0 16.132812 13.767578 A 1 1 0 0 0 16.498047 15.132812 C 16.796733 15.305452 17 15.621778 17 16 C 17 16.544314 16.589423 16.967787 16.058594 16.998047 A 1 1 0 0 0 15.117188 18.054688 A 1 1 0 0 0 16.171875 18.996094 C 17.742646 18.906553 19 17.587286 19 16 C 19 14.897222 18.397514 13.921104 17.5 13.402344 A 1 1 0 0 0 17 13.267578 z " fill="currentColor"/>
</svg>
