<svg xmlns="http://www.w3.org/2000/svg" width="1em" height="1em" viewBox="0 0 24 24" fill="currentColor">
  <path d="M 12.25 3 C 11.284699 3 10.426919 3.510679 9.9355469 4.2734375 C 9.5754475 4.0987999 9.1735233 4 8.75 4 C 7.243062 4 6 5.243062 6 6.75 L 6 9.1738281 C 5.6866151 9.0614884 5.3498663 9 5 9 C 3.3550085 9 2 10.354975 2 12 L 2 12.941406 C 2 17.380343 5.6196979 21 10.058594 21 L 13.800781 21 C 18.317706 21 22 17.317706 22 12.800781 L 22 8.75 C 22 7.243062 20.756938 6 19.25 6 C 18.964202 6 18.68787 6.0442097 18.427734 6.1269531 C 18.142013 4.9149202 17.043182 4 15.75 4 C 15.326477 4 14.924553 4.0987999 14.564453 4.2734375 C 14.073081 3.510679 13.215301 3 12.25 3 z M 12.25 5 C 12.676062 5 13 5.323938 13 5.75 L 13 8.5 A 1 1 0 0 0 13.076172 8.8828125 A 1 1 0 0 0 13.134766 9 A 1 1 0 0 0 14 9.5 A 1 1 0 0 0 14.130859 9.4921875 A 1 1 0 0 0 15 8.5 L 15 6.75 C 15 6.323938 15.323938 6 15.75 6 C 16.176062 6 16.5 6.323938 16.5 6.75 L 16.5 9.5 A 1 1 0 0 0 17.5 10.5 A 1 1 0 0 0 17.630859 10.492188 A 1 1 0 0 0 18.5 9.5 L 18.5 8.75 C 18.5 8.323938 18.823938 8 19.25 8 C 19.676062 8 20 8.323938 20 8.75 L 20 12.800781 C 20 16.236856 17.236856 19 13.800781 19 L 10.058594 19 C 6.7005692 19 4 16.299469 4 12.941406 L 4 12 C 4 11.435825 4.4358515 11 5 11 C 5.5641485 11 6 11.435825 6 12 L 6 12.941406 A 1 1 0 0 0 7 13.941406 A 1 1 0 0 0 8 12.941406 L 8 12 L 8 6.75 C 8 6.323938 8.323938 6 8.75 6 C 9.176062 6 9.5 6.323938 9.5 6.75 L 9.5 8 A 1 1 0 0 0 10.5 9 A 1 1 0 0 0 10.630859 8.9921875 A 1 1 0 0 0 11.5 8 L 11.5 6.75 L 11.5 5.75 C 11.5 5.323938 11.823938 5 12.25 5 z " fill="currentColor"/>
</svg>
