<svg xmlns="http://www.w3.org/2000/svg" width="1em" height="1em" viewBox="0 0 24 24" fill="currentColor">
  <path d="M 14.398438 3.2519531 C 13.530802 3.2464654 12.538958 3.5885213 11.583984 4.3925781 A 1.0001 1.0001 0 0 0 11.544922 4.4296875 L 9.0742188 6.7519531 L 4.0039062 6.7519531 C 2.6335175 6.7519531 1.5 7.8830625 1.5 9.2539062 C 1.5 10.624767 2.6335737 11.755859 4.0039062 11.755859 L 6.5351562 11.755859 L 6.5371094 11.835938 C 6.5579954 12.655475 6.9743326 13.332715 7.5292969 13.863281 L 7.5703125 14.837891 C 7.5919925 15.689158 7.9979213 16.417219 8.5917969 16.951172 L 8.7382812 18.138672 A 1.0001 1.0001 0 0 0 8.7382812 18.150391 C 8.9398384 19.642338 10.23865 20.76386 11.744141 20.75 L 16.933594 20.701172 C 18.347915 20.701172 19.689053 20.053915 20.71875 19.091797 C 21.748447 18.12968 22.5 16.805741 22.5 15.322266 L 22.5 10.441406 C 22.5 8.8124715 21.425669 7.0870625 19.162109 5.7460938 L 16.787109 4.1738281 C 16.358761 3.8480106 15.684099 3.389322 14.761719 3.2753906 C 14.643286 3.260762 14.522385 3.2527371 14.398438 3.2519531 z M 14.365234 5.2480469 C 14.417007 5.2497507 14.46704 5.2537645 14.515625 5.2597656 C 14.904862 5.3078436 15.275263 5.5318487 15.605469 5.7851562 A 1.0001 1.0001 0 0 0 15.662109 5.8261719 L 18.099609 7.4414062 A 1.0001 1.0001 0 0 0 18.142578 7.4667969 C 20.014018 8.5754677 20.5 9.6857416 20.5 10.441406 L 20.5 15.322266 C 20.5 16.10489 20.060844 16.969953 19.353516 17.630859 C 18.646188 18.291766 17.702773 18.701172 16.933594 18.701172 A 1.0001 1.0001 0 0 0 16.925781 18.701172 L 11.724609 18.75 C 11.210326 18.7547 10.789921 18.390455 10.720703 17.884766 L 10.720703 17.882812 L 10.707031 17.761719 L 11.578125 17.761719 A 1 1 0 0 0 12.578125 16.761719 A 1 1 0 0 0 11.578125 15.761719 L 10.574219 15.761719 C 10.017815 15.761719 9.5843778 15.339385 9.5703125 14.787109 A 1.0001 1.0001 0 0 0 9.5703125 14.771484 L 9.5703125 14.759766 L 10.544922 14.759766 A 1 1 0 0 0 11.544922 13.759766 A 1 1 0 0 0 10.544922 12.759766 L 9.5410156 12.759766 C 9.3495907 12.759766 9.1778649 12.708756 9.0273438 12.619141 C 8.7409495 12.448631 8.5463352 12.147161 8.5371094 11.785156 L 8.5371094 11.755859 L 10.515625 11.755859 A 1 1 0 0 0 11.515625 10.755859 A 1 1 0 0 0 10.515625 9.7558594 L 7.5117188 9.7558594 L 7.484375 9.7558594 L 4.0039062 9.7558594 C 3.7123389 9.7559154 3.5 9.5419453 3.5 9.2539062 C 3.5 8.9659498 3.712395 8.7519531 4.0039062 8.7519531 L 9.4375 8.7519531 L 9.46875 8.7519531 L 14.03125 8.7519531 A 1 1 0 0 0 15.03125 7.7519531 A 1 1 0 0 0 14.03125 6.7519531 L 11.994141 6.7519531 L 12.873047 5.9238281 L 12.875 5.921875 C 13.552453 5.3523447 14.002827 5.2361198 14.365234 5.2480469 z " fill="currentColor"/>
</svg>
