<svg xmlns="http://www.w3.org/2000/svg" width="1em" height="1em" viewBox="0 0 24 24" fill="currentColor">
  <path d="M 9.5 1 C 8.1311341 1 7 2.1311341 7 3.5 L 7 5.2441406 C 6.7201358 5.3525764 6.4545205 5.5103232 6.2324219 5.7324219 C 5.8230726 6.1417712 5.6346014 6.6989468 5.5644531 7.2207031 C 5.4955249 7.7333852 5.4998296 8.2734001 5.5 8.9628906 C 4.2843115 9.7445953 3.3624694 10.951994 2.9589844 12.396484 C 2.8557239 12.766092 2.8019387 13.127263 2.6992188 13.789062 L 2.3554688 16.007812 C 2.0150786 18.200713 1.7354975 19.471594 2.3261719 20.710938 C 2.6360599 21.361303 3.1156694 21.915334 3.7148438 22.316406 C 4.8558784 23.07999 6.1578844 23 8.3964844 23 L 10.603516 23 C 12.842116 23 14.144133 23.08001 15.285156 22.316406 C 15.884385 21.915325 16.363942 21.361271 16.673828 20.710938 C 17.264534 19.47159 16.984935 18.200716 16.644531 16.007812 L 16.300781 13.789062 C 16.198077 13.127213 16.144214 12.765964 16.041016 12.396484 C 15.6375 10.952017 14.715681 9.7446038 13.5 8.9628906 C 13.500171 8.2733977 13.504477 7.7333766 13.435547 7.2207031 C 13.365403 6.6989566 13.176899 6.1417798 12.767578 5.7324219 C 12.545473 5.510347 12.27986 5.3525829 12 5.2441406 L 12 4.9882812 L 13.974609 4.4609375 C 15.48662 4.0583147 16.087028 3.9433012 16.453125 4.03125 C 16.636095 4.075215 16.749791 4.1330606 16.984375 4.3339844 C 17.218959 4.5349081 17.540128 4.8809581 17.986328 5.3710938 L 18.259766 5.6738281 A 1 1 0 0 0 19.673828 5.7402344 A 1 1 0 0 0 19.740234 4.3261719 L 19.464844 4.0253906 C 19.018644 3.5352563 18.671972 3.1457644 18.285156 2.8144531 C 17.898341 2.4831419 17.437752 2.2123162 16.919922 2.0878906 C 16.40207 1.963485 15.915605 1.9732893 15.369141 2.0644531 C 14.822676 2.1556171 14.216931 2.3279883 13.460938 2.5292969 L 11.933594 2.9355469 C 11.673886 1.8338123 10.674924 1 9.5 1 z M 9.5 3 C 9.7879445 3 10 3.2120301 10 3.5 L 10 4.1796875 A 1 1 0 0 0 10 4.2558594 L 10 5 C 9.8416955 4.9994525 9.6756831 5 9.5 5 C 9.3243165 5 9.1583042 4.9994526 9 5 L 9 3.5 C 9 3.2120059 9.2120059 3 9.5 3 z M 9.5 7 C 10.2071 7 10.716526 7.00719 11.011719 7.046875 C 11.306912 7.086562 11.323479 7.1164524 11.353516 7.1464844 C 11.383496 7.1764664 11.413435 7.1930854 11.453125 7.4882812 C 11.474138 7.6445975 11.485639 7.8607667 11.492188 8.1347656 C 11.30545 8.0947363 11.116106 8.0634971 10.923828 8.0410156 C 10.541706 7.9963288 10.1755 8 9.5 8 C 8.82446 8 8.4582885 7.9963294 8.0761719 8.0410156 C 7.8838941 8.0634977 7.6945513 8.0947356 7.5078125 8.1347656 C 7.5143606 7.8607628 7.5258594 7.6445932 7.546875 7.4882812 C 7.5865617 7.193095 7.6164937 7.1764751 7.6464844 7.1464844 C 7.6764751 7.1164937 7.6930951 7.0865617 7.9882812 7.046875 C 8.2834676 7.0071883 8.792895 7 9.5 7 z M 19.431641 7.0019531 A 1.0001 1.0001 0 0 0 18.818359 7.2675781 C 18.818359 7.2675781 18.38779 7.6672325 17.957031 8.2265625 C 17.526273 8.7858925 17 9.4950502 17 10.5 C 17 11.278626 17.312814 11.99888 17.824219 12.429688 C 18.335623 12.860494 18.949267 13 19.5 13 C 20.050733 13 20.664377 12.860495 21.175781 12.429688 C 21.687186 11.998879 22 11.278626 22 10.5 C 22 9.4950502 21.473727 8.7858925 21.042969 8.2265625 C 20.61221 7.6672325 20.181641 7.2675781 20.181641 7.2675781 A 1.0001 1.0001 0 0 0 19.431641 7.0019531 z M 19.5 9.5292969 C 19.77903 9.9259215 20 10.408302 20 10.5 C 20 10.825974 19.93781 10.857348 19.886719 10.900391 C 19.835623 10.943433 19.699267 11 19.5 11 C 19.300733 11 19.164377 10.943433 19.113281 10.900391 C 19.062186 10.857348 19 10.825974 19 10.5 C 19 10.4083 19.22097 9.9259215 19.5 9.5292969 z M 9.5 10 C 10.1755 10 10.484528 10.003204 10.691406 10.027344 C 12.330071 10.218939 13.677594 11.368923 14.115234 12.935547 C 14.170234 13.132468 14.221526 13.433952 14.324219 14.095703 L 14.667969 16.314453 C 15.008368 18.507351 15.069634 19.430912 14.869141 19.851562 C 14.714626 20.175829 14.473846 20.452178 14.171875 20.654297 C 13.777699 20.918095 12.842116 21 10.603516 21 L 8.3964844 21 C 6.1578844 21 5.2223503 20.918114 4.828125 20.654297 C 4.5267491 20.452239 4.2851372 20.175347 4.1308594 19.851562 C 3.9303738 19.430907 3.9916414 18.507352 4.3320312 16.314453 L 4.6757812 14.095703 C 4.7785012 13.433903 4.8297861 13.132339 4.8847656 12.935547 C 5.3223537 11.368966 6.6699951 10.218936 8.3085938 10.027344 C 8.515477 10.00315 8.82446 10 9.5 10 z M 9.5 12.5 A 1 1 0 0 0 8.5 13.5 L 8.5 14.5 L 7.5 14.5 A 1 1 0 0 0 6.5 15.5 A 1 1 0 0 0 7.5 16.5 L 8.5 16.5 L 8.5 17.5 A 1 1 0 0 0 9.5 18.5 A 1 1 0 0 0 10.5 17.5 L 10.5 16.5 L 11.5 16.5 A 1 1 0 0 0 12.5 15.5 A 1 1 0 0 0 11.5 14.5 L 10.5 14.5 L 10.5 13.5 A 1 1 0 0 0 9.5 12.5 z " fill="currentColor"/>
</svg>
