<svg xmlns="http://www.w3.org/2000/svg" width="1em" height="1em" viewBox="0 0 24 24" fill="currentColor">
  <path d="M 12 3.5 C 10.38071 3.5 9 4.7848836 9 6.4042969 A 1 1 0 0 0 10 7.4042969 A 1 1 0 0 0 11 6.4042969 C 11 5.9197702 11.41009 5.5 12 5.5 C 12.58991 5.5 13 5.9197702 13 6.4042969 C 13 6.7357947 12.811581 7.0252496 12.498047 7.1894531 C 11.839773 7.5341422 11 8.1853472 11 9.3085938 L 11 10.603516 C 10.527467 10.703603 10.070594 10.876175 9.6386719 11.119141 L 3.6347656 14.496094 C 2.6259392 15.063484 2 16.133555 2 17.291016 C 2 19.051144 3.448895 20.5 5.2089844 20.5 L 18.791016 20.5 C 20.551122 20.5 22 19.051122 22 17.291016 C 22 16.133589 21.374097 15.063488 20.365234 14.496094 L 14.361328 11.119141 C 13.929406 10.876175 13.472533 10.703603 13 10.603516 L 13 9.3105469 L 13.001953 9.3105469 L 13.001953 9.3085938 C 13.020744 9.2905814 13.135486 9.1129436 13.425781 8.9609375 C 14.349247 8.477301 15 7.5123391 15 6.4042969 C 15 4.7848836 13.61929 3.5 12 3.5 z M 12 12.5 C 12.521075 12.5 12.921556 12.60296 13.380859 12.861328 L 19.384766 16.238281 C 19.766703 16.453087 20 16.852643 20 17.291016 C 20 17.97031 19.47031 18.5 18.791016 18.5 L 5.2089844 18.5 C 4.5297338 18.5 4 17.970288 4 17.291016 C 4 16.852676 4.2333008 16.453091 4.6152344 16.238281 L 10.619141 12.861328 C 11.078444 12.60296 11.478925 12.5 12 12.5 z " fill="currentColor"/>
</svg>
