<svg xmlns="http://www.w3.org/2000/svg" width="1em" height="1em" viewBox="0 0 24 24" fill="currentColor">
  <path d="M 10.953125 2 C 9.5195 2 8.4243871 1.995424 7.4785156 2.1054688 C 6.5326442 2.2155134 5.696388 2.4643346 4.9921875 2.9882812 C 4.2879875 3.5122274 3.8088394 4.242824 3.4316406 5.1171875 C 3.0544419 5.991551 2.7439909 7.0408732 2.3320312 8.4140625 L 1.1230469 12.441406 C 1.1003839 12.51697 1.0794854 12.585903 1.0605469 12.660156 A 1 1 0 0 0 1 13 A 1 1 0 0 0 1.0019531 13.058594 C 0.99898382 13.134157 1 13.205168 1 13.283203 C 1 15.031503 0.99423502 16.362617 1.1347656 17.484375 C 1.2752967 18.606133 1.5945326 19.575025 2.2734375 20.333984 C 2.3968523 20.471902 2.5275298 20.602763 2.6660156 20.726562 C 3.4249563 21.405496 4.3938718 21.724698 5.515625 21.865234 C 6.6373782 22.00577 7.9685019 22 9.7167969 22 L 14.283203 22 C 16.031503 22 17.362614 22.0058 18.484375 21.865234 C 19.606136 21.724699 20.575027 21.405486 21.333984 20.726562 C 21.472272 20.602918 21.602918 20.472272 21.726562 20.333984 C 22.405486 19.575027 22.724699 18.606136 22.865234 17.484375 C 23.00577 16.362614 23 15.031503 23 13.283203 C 23 13.204894 23.001042 13.13443 22.998047 13.058594 A 1 1 0 0 0 23 13 A 1 1 0 0 0 22.939453 12.658203 C 22.920703 12.584877 22.899502 12.516407 22.876953 12.441406 L 21.667969 8.4140625 C 21.256017 7.0408668 20.94557 5.9915535 20.568359 5.1171875 C 20.191148 4.2428215 19.712007 3.512223 19.007812 2.9882812 C 18.303618 2.464339 17.467351 2.2155136 16.521484 2.1054688 C 15.575618 1.9954237 14.480525 2 13.046875 2 L 10.953125 2 z M 10.953125 4 L 13.046875 4 C 14.480525 4 15.537532 4.0041299 16.291016 4.0917969 C 17.044499 4.1794589 17.455748 4.3268621 17.814453 4.59375 C 18.173159 4.8606382 18.431933 5.2116766 18.732422 5.9082031 C 19.032911 6.6047296 19.340005 7.6150968 19.751953 8.9882812 L 20.65625 12 L 3.34375 12 L 4.2480469 8.9882812 C 4.6600071 7.6150904 4.9670969 6.6047321 5.2675781 5.9082031 C 5.5680594 5.2116742 5.8268469 4.8606337 6.1855469 4.59375 C 6.5442464 4.3268666 6.9554933 4.1794597 7.7089844 4.0917969 C 8.4624754 4.0041341 9.5195 4 10.953125 4 z M 3 14 L 21 14 C 20.996984 15.390402 20.978808 16.452387 20.880859 17.234375 C 20.766698 18.145552 20.576205 18.620057 20.236328 19 C 20.162374 19.082712 20.082712 19.162374 20 19.236328 C 19.620057 19.576205 19.145639 19.766695 18.234375 19.880859 C 17.323111 19.995024 16.031503 20 14.283203 20 L 9.7167969 20 C 7.9685019 20 6.6768793 19.995023 5.765625 19.880859 C 4.8543707 19.766695 4.3799194 19.576196 4 19.236328 C 3.9174458 19.162528 3.8380171 19.083082 3.7636719 19 C 3.4238068 18.620059 3.233302 18.145642 3.1191406 17.234375 C 3.0211767 16.452401 3.0030125 15.390359 3 14 z M 14 15.75 C 13.321712 15.75 12.75 16.321712 12.75 17 C 12.75 17.678288 13.321712 18.25 14 18.25 C 14.678288 18.25 15.25 17.678288 15.25 17 C 15.25 16.321712 14.678288 15.75 14 15.75 z M 18 15.75 C 17.321712 15.75 16.75 16.321712 16.75 17 C 16.75 17.678288 17.321712 18.25 18 18.25 C 18.678288 18.25 19.25 17.678288 19.25 17 C 19.25 16.321712 18.678288 15.75 18 15.75 z " fill="currentColor"/>
</svg>
