<svg xmlns="http://www.w3.org/2000/svg" width="1em" height="1em" viewBox="0 0 24 24" fill="currentColor">
  <path d="M 12 1 C 11.104 1.0000085 10.749699 1.4490064 10.267578 1.875 C 9.785457 2.3009936 9.3001509 2.8248469 8.8496094 3.34375 C 7.9485263 4.3815562 7.1953125 5.40625 7.1953125 5.40625 A 1 1 0 0 0 7.40625 6.8046875 A 1 1 0 0 0 8.8046875 6.59375 C 8.8046875 6.59375 9.5239581 5.6184263 10.359375 4.65625 C 10.576506 4.4061738 10.782113 4.2169613 11 3.9902344 L 11 10 A 1 1 0 0 0 12 11 A 1 1 0 0 0 13 10 L 13 3.9902344 C 13.217885 4.2169614 13.423499 4.4061725 13.640625 4.65625 C 14.476026 5.6184313 15.195312 6.59375 15.195312 6.59375 A 1 1 0 0 0 16.59375 6.8046875 A 1 1 0 0 0 16.804688 5.40625 C 16.804688 5.40625 16.051465 4.3815712 15.150391 3.34375 C 14.699854 2.8248394 14.214554 2.3010006 13.732422 1.875 C 13.25029 1.4489994 12.895982 0.9999915 12 1 z M 7 13 C 5.59987 13 4.7594888 12.948077 3.9101562 13.380859 C 3.2517805 13.716345 2.7163766 14.251692 2.3808594 14.910156 C 1.9481211 15.759497 2 16.5999 2 18 C 2 19.4001 1.948121 20.240503 2.3808594 21.089844 C 2.7163766 21.748308 3.2517805 22.283655 3.9101562 22.619141 C 4.7594889 23.051923 5.59987 23 7 23 L 17 23 C 18.4001 23 19.240494 23.05192 20.089844 22.619141 C 20.748245 22.283642 21.283642 21.748245 21.619141 21.089844 C 22.051915 20.240494 22 19.4001 22 18 C 22 16.5999 22.051915 15.759506 21.619141 14.910156 C 21.283642 14.251755 20.748245 13.716358 20.089844 13.380859 C 19.240494 12.948085 18.4001 13 17 13 L 7 13 z M 7 15 L 17 15 C 18.4001 15 18.96139 15.051839 19.181641 15.164062 C 19.464039 15.307963 19.692037 15.535961 19.835938 15.818359 C 19.948164 16.03861 20 16.5999 20 18 C 20 19.4001 19.948161 19.96139 19.835938 20.181641 C 19.692038 20.464039 19.464039 20.692037 19.181641 20.835938 C 18.96139 20.948164 18.4001 21 17 21 L 7 21 C 5.59987 21 5.0385868 20.948156 4.8183594 20.835938 C 4.5359351 20.692024 4.3079252 20.463976 4.1640625 20.181641 C 4.0518408 19.961382 4 19.4001 4 18 C 4 16.5999 4.0518408 16.038618 4.1640625 15.818359 C 4.3079252 15.536024 4.5359351 15.307975 4.8183594 15.164062 C 5.0385868 15.051843 5.59987 15 7 15 z M 7 16.75 C 6.3216244 16.75 5.75 17.321567 5.75 18 C 5.75 18.678433 6.3216244 19.25 7 19.25 C 7.6783756 19.25 8.25 18.678433 8.25 18 C 8.25 17.321567 7.6783756 16.75 7 16.75 z M 11 16.75 C 10.321712 16.75 9.75 17.321712 9.75 18 C 9.75 18.678288 10.321712 19.25 11 19.25 C 11.678288 19.25 12.25 18.678288 12.25 18 C 12.25 17.321712 11.678288 16.75 11 16.75 z " fill="currentColor"/>
</svg>
