<svg xmlns="http://www.w3.org/2000/svg" width="1em" height="1em" viewBox="0 0 24 24" fill="currentColor">
  <path d="M 10.871094 4 C 9.5938685 4 8.614313 3.9941924 7.7617188 4.1035156 C 6.9091246 4.2128388 6.1292523 4.4720547 5.5175781 5.0195312 C 4.9059094 5.5670022 4.5621825 6.3150932 4.359375 7.1503906 C 4.1565675 7.985688 4.0531544 8.9571714 3.9121094 10.226562 L 3.5507812 13.478516 L 1.7226562 14.941406 C 1.2664266 15.306282 1 15.861252 1 16.445312 C 1 17.151575 1.3959779 17.838017 2.0722656 18.154297 C 4.5622675 19.319225 8.0768719 20 12 20 C 15.923138 20 19.437764 19.31923 21.927734 18.154297 C 22.603974 17.838019 23 17.151653 23 16.445312 C 23 15.861347 22.733731 15.306308 22.277344 14.941406 L 20.449219 13.476562 L 20.085938 10.226562 C 19.944936 8.9571591 19.843441 7.9857013 19.640625 7.1503906 C 19.437809 6.3150799 19.094101 5.5669926 18.482422 5.0195312 C 17.870778 4.4720302 17.090872 4.2128393 16.238281 4.1035156 C 15.38569 3.994192 14.406156 4 13.128906 4 L 10.871094 4 z M 10.871094 6 L 13.128906 6 C 14.406156 6 15.344238 6.0060596 15.982422 6.0878906 C 16.620606 6.1697216 16.905882 6.2926467 17.148438 6.5097656 C 17.391058 6.7269143 17.545457 6.9958621 17.697266 7.6210938 C 17.849074 8.2463256 17.958611 9.1778881 18.099609 10.447266 L 18.408203 13.226562 C 16.83786 13.665878 14.609562 14 12 14 C 9.3904562 14 7.1621634 13.66588 5.5917969 13.226562 L 5.9003906 10.447266 C 6.0414356 9.1778759 6.1509269 8.2463389 6.3027344 7.6210938 C 6.4545419 6.9958487 6.6089613 6.7269046 6.8515625 6.5097656 C 7.0941683 6.2926222 7.3793848 6.1697224 8.0175781 6.0878906 C 8.6557715 6.0060588 9.5938684 6 10.871094 6 z M 11 9 A 1 1 0 0 0 10 10 A 1 1 0 0 0 11 11 L 13 11 A 1 1 0 0 0 14 10 A 1 1 0 0 0 13 9 L 11 9 z M 4.7050781 15.117188 C 6.572755 15.681239 9.1341136 16 12 16 C 14.865903 16 17.427261 15.681241 19.294922 15.117188 L 20.894531 16.398438 C 18.794053 17.341348 15.598131 18 12 18 C 8.4018794 18 5.205992 17.341354 3.1054688 16.398438 L 4.7050781 15.117188 z " fill="currentColor"/>
</svg>
