<svg xmlns="http://www.w3.org/2000/svg" width="1em" height="1em" viewBox="0 0 24 24" fill="currentColor">
  <path d="M 3.5 4 A 1 1 0 0 0 2.5 5 L 2.5 12 L 2.5 19 A 1 1 0 0 0 3.5 20 A 1 1 0 0 0 4.5 19 L 4.5 13 L 12.5 13 L 12.5 19 A 1 1 0 0 0 13.5 20 A 1 1 0 0 0 14.5 19 L 14.5 12 L 14.5 5 A 1 1 0 0 0 13.5 4 A 1 1 0 0 0 12.5 5 L 12.5 11 L 4.5 11 L 4.5 5 A 1 1 0 0 0 3.5 4 z M 18.5 10 C 16.854993 10 15.5 11.354993 15.5 13 A 1 1 0 0 0 16.5 14 A 1 1 0 0 0 17.5 13 C 17.5 12.435807 17.935807 12 18.5 12 C 19.064193 12 19.5 12.435807 19.5 13 C 19.5 13.564193 19.064193 14 18.5 14 A 1.0001 1.0001 0 0 0 18.5 16 C 19.064193 16 19.5 16.435807 19.5 17 C 19.5 17.564193 19.064193 18 18.5 18 C 17.935807 18 17.5 17.564193 17.5 17 A 1 1 0 0 0 16.5 16 A 1 1 0 0 0 15.5 17 C 15.5 18.645007 16.854993 20 18.5 20 C 20.145007 20 21.5 18.645007 21.5 17 C 21.5 16.223018 21.158376 15.535362 20.666016 15 C 21.158376 14.464638 21.5 13.776982 21.5 13 C 21.5 11.354993 20.145007 10 18.5 10 z " fill="currentColor"/>
</svg>
