<svg xmlns="http://www.w3.org/2000/svg" width="1em" height="1em" viewBox="0 0 24 24" fill="currentColor">
  <path d="M 3.5 4 A 1 1 0 0 0 2.5 5 L 2.5 12 L 2.5 19 A 1 1 0 0 0 3.5 20 A 1 1 0 0 0 4.5 19 L 4.5 13 L 12.5 13 L 12.5 19 A 1 1 0 0 0 13.5 20 A 1 1 0 0 0 14.5 19 L 14.5 12 L 14.5 5 A 1 1 0 0 0 13.5 4 A 1 1 0 0 0 12.5 5 L 12.5 11 L 4.5 11 L 4.5 5 A 1 1 0 0 0 3.5 4 z M 16.5 10 A 1.0001 1.0001 0 0 0 15.5 11 L 15.5 14 A 1.0001 1.0001 0 0 0 16.5 15 L 18 15 C 18.84025 15 19.5 15.65975 19.5 16.5 L 19.5 17 C 19.5 17.564193 19.064193 18 18.5 18 C 17.935807 18 17.5 17.564193 17.5 17 L 17.5 16.5 A 1 1 0 0 0 16.5 15.5 A 1 1 0 0 0 15.5 16.5 L 15.5 17 C 15.5 18.645007 16.854993 20 18.5 20 C 20.145007 20 21.5 18.645007 21.5 17 L 21.5 16.5 C 21.5 14.57885 19.92115 13 18 13 L 17.5 13 L 17.5 12 L 20.5 12 A 1 1 0 0 0 21.5 11 A 1 1 0 0 0 20.5 10 L 16.5 10 z " fill="currentColor"/>
</svg>
