<svg xmlns="http://www.w3.org/2000/svg" width="1em" height="1em" viewBox="0 0 24 24" fill="currentColor">
  <path d="M 7 2.5 C 3.5696609 2.5 1 5.3372729 1 8.6953125 C 1 11.294776 2.5688818 13.727465 4.3925781 15.824219 C 6.2162745 17.920972 8.3628123 19.683529 9.8125 20.767578 C 11.107068 21.735709 12.892932 21.735709 14.1875 20.767578 C 14.385184 20.619804 14.595936 20.460973 14.816406 20.289062 A 1 1 0 0 0 14.990234 18.884766 A 1 1 0 0 0 13.585938 18.710938 C 13.376007 18.874629 13.17675 19.02659 12.990234 19.166016 C 12.386002 19.617885 11.613998 19.617885 11.009766 19.166016 C 9.6381729 18.140365 7.5786775 16.439045 5.9023438 14.511719 C 4.2260101 12.584392 3 10.436269 3 8.6953125 C 3 6.3157321 4.6408591 4.5 7 4.5 C 8.2777778 4.5 9.4108197 4.8248825 11.292969 6.7070312 A 1.0001 1.0001 0 0 0 12.707031 6.7070312 C 14.58918 4.8248825 15.722222 4.5 17 4.5 C 19.359094 4.5 21 6.3157414 21 8.6953125 C 21 9.7012103 20.611949 10.836761 19.9375 11.996094 A 1 1 0 0 0 20.298828 13.365234 A 1 1 0 0 0 21.666016 13.001953 C 22.454567 11.646486 23 10.197255 23 8.6953125 C 23 5.3372636 20.430306 2.5 17 2.5 C 15.480521 2.5 13.817728 3.1991331 12 4.7773438 C 10.182272 3.1991331 8.5194788 2.5 7 2.5 z M 14 15 A 1 1 0 0 0 13 16 A 1 1 0 0 0 14 17 L 21 17 A 1 1 0 0 0 22 16 A 1 1 0 0 0 21 15 L 14 15 z " fill="currentColor"/>
</svg>
