<svg xmlns="http://www.w3.org/2000/svg" width="1em" height="1em" viewBox="0 0 24 24" fill="currentColor">
  <path d="M 9.5 1 A 1 1 0 0 0 8.6347656 1.5 C 8.1295833 2.3750018 7.9375136 3.1862427 8.0195312 3.8964844 C 8.1015487 4.606726 8.4182573 5.1250018 8.6347656 5.5 C 8.851274 5.8749982 8.9679007 6.1067297 8.9941406 6.3339844 C 9.0203806 6.561239 8.9956203 6.8749991 8.6347656 7.5 A 1 1 0 0 0 9 8.8652344 A 1 1 0 0 0 10.365234 8.5 C 10.87043 7.6250009 11.062477 6.813761 10.980469 6.1035156 C 10.89846 5.3932703 10.581745 4.8750018 10.365234 4.5 C 10.148724 4.1249982 10.032103 3.893274 10.005859 3.6660156 C 9.9796164 3.4387573 10.004392 3.1249982 10.365234 2.5 A 1 1 0 0 0 10 1.1347656 A 1 1 0 0 0 9.5 1 z M 14.5 1 A 1 1 0 0 0 14.240234 1.0332031 A 1 1 0 0 0 13.634766 1.5 C 13.129569 2.3750009 12.937517 3.1862375 13.019531 3.8964844 C 13.101546 4.6067312 13.418253 5.125 13.634766 5.5 C 13.851278 5.875 13.967899 6.1067312 13.994141 6.3339844 C 14.020382 6.5612375 13.995619 6.8750009 13.634766 7.5 A 1 1 0 0 0 14 8.8652344 A 1 1 0 0 0 15.365234 8.5 C 15.870431 7.6249991 16.062483 6.8137625 15.980469 6.1035156 C 15.898454 5.3932688 15.581747 4.875 15.365234 4.5 C 15.148722 4.125 15.032101 3.8932688 15.005859 3.6660156 C 14.979618 3.4387625 15.004381 3.1249991 15.365234 2.5 A 1 1 0 0 0 15 1.1347656 A 1 1 0 0 0 14.5 1 z M 6.0332031 7 A 1 1 0 0 0 5.9023438 7.0039062 C 4.8240545 7.1106426 3.8706319 7.3983429 3.1699219 8.1035156 C 2.5415135 8.7359361 2.2440189 9.5808639 2.1191406 10.515625 C 1.9942623 11.450386 2 12.537687 2 13.960938 C 2 15.384187 1.99426 16.471494 2.1191406 17.40625 C 2.2440192 18.341006 2.5415207 19.187893 3.1699219 19.820312 C 3.6662885 20.319854 4.2977734 20.61399 5 20.777344 L 5 22 A 1 1 0 0 0 6 23 A 1 1 0 0 0 7 22 L 7 20.984375 C 7.5908289 21.001486 8.2482939 21 9 21 L 15 21 C 15.7517 21 16.409168 21.001488 17 20.984375 L 17 22 A 1 1 0 0 0 18 23 A 1 1 0 0 0 19 22 L 19 20.777344 C 19.702224 20.613989 20.333707 20.319847 20.830078 19.820312 C 21.458492 19.187894 21.755978 18.341008 21.880859 17.40625 C 22.005741 16.471492 22 15.384186 22 13.960938 C 22 12.537688 22.0057 11.450389 21.880859 10.515625 C 21.755978 9.5808614 21.458499 8.735934 20.830078 8.1035156 C 20.129386 7.3983756 19.175968 7.1106426 18.097656 7.0039062 A 1 1 0 0 0 17.003906 7.9023438 A 1 1 0 0 0 17.902344 8.9960938 C 18.774232 9.0823978 19.133001 9.2308388 19.412109 9.5117188 C 19.662389 9.7635903 19.803645 10.071701 19.898438 10.78125 C 19.993232 11.490799 20 12.537686 20 13.960938 C 20 15.384187 19.993201 16.433036 19.898438 17.142578 C 19.803648 17.85212 19.662396 18.158275 19.412109 18.410156 C 19.161824 18.662036 18.86117 18.803321 18.158203 18.898438 C 17.455237 18.993554 16.4142 19 15 19 L 9 19 C 7.585785 19 6.5447671 18.993554 5.8417969 18.898438 C 5.1388266 18.803321 4.8381621 18.662028 4.5878906 18.410156 C 4.3376118 18.158277 4.196354 17.852122 4.1015625 17.142578 C 4.006771 16.433034 4 15.384186 4 13.960938 C 4 12.537687 4.0067708 11.490801 4.1015625 10.78125 C 4.1963542 10.071699 4.337619 9.7635882 4.5878906 9.5117188 C 4.8669606 9.2308714 5.2257855 9.0823973 6.0976562 8.9960938 A 1 1 0 0 0 6.9960938 7.9023438 A 1 1 0 0 0 6.0332031 7 z M 8 11 A 1 1 0 0 0 7 12 L 7 16 A 1 1 0 0 0 8 17 A 1 1 0 0 0 9 16 L 9 12 A 1 1 0 0 0 8 11 z M 12 11 A 1 1 0 0 0 11 12 L 11 16 A 1 1 0 0 0 12 17 A 1 1 0 0 0 13 16 L 13 12 A 1 1 0 0 0 12 11 z M 16 11 A 1 1 0 0 0 15 12 L 15 16 A 1 1 0 0 0 16 17 A 1 1 0 0 0 17 16 L 17 12 A 1 1 0 0 0 16 11 z " fill="currentColor"/>
</svg>
