<svg xmlns="http://www.w3.org/2000/svg" width="1em" height="1em" viewBox="0 0 24 24" fill="currentColor">
  <path d="M 19 1 C 18.2929 1 17.74246 0.99430513 17.220703 1.0644531 C 16.698946 1.1346011 16.141786 1.3231141 15.732422 1.7324219 C 15.323101 2.1417799 15.134594 2.6989566 15.064453 3.2207031 C 15.031029 3.4693357 15.015619 3.7244855 15.007812 4 L 15 4 A 1.0001 1.0001 0 0 0 14.925781 4.0019531 C 13.567269 4.103194 12.377149 4.5391261 11.732422 5.5703125 C 11.087695 6.6014989 11 7.8746727 11 9.6523438 L 11 14.347656 C 11 16.125361 11.08769 17.398501 11.732422 18.429688 C 12.377152 19.460874 13.567275 19.89681 14.925781 19.998047 A 1.0001 1.0001 0 0 0 15 20 L 15.007812 20 C 15.015617 20.275514 15.031024 20.530665 15.064453 20.779297 C 15.134593 21.301044 15.323143 21.858206 15.732422 22.267578 C 16.141794 22.676857 16.698956 22.865407 17.220703 22.935547 C 17.742453 23.005687 18.2929 23 19 23 C 19.7071 23 20.25755 23.005697 20.779297 22.935547 C 21.301044 22.865407 21.858206 22.676857 22.267578 22.267578 C 22.676857 21.858206 22.865407 21.301044 22.935547 20.779297 C 23.005687 20.257547 23 19.7071 23 19 C 23 18.2929 23.005697 17.74245 22.935547 17.220703 C 22.865407 16.698956 22.676857 16.141794 22.267578 15.732422 C 21.858203 15.323143 21.301044 15.134593 20.779297 15.064453 C 20.25755 14.994313 19.7071 15 19 15 C 18.2929 15 17.74245 14.994303 17.220703 15.064453 C 16.698956 15.134593 16.141794 15.323143 15.732422 15.732422 C 15.323143 16.141794 15.134593 16.698956 15.064453 17.220703 C 15.031222 17.467901 15.015671 17.722403 15.007812 17.996094 C 13.971865 17.912695 13.664311 17.747524 13.427734 17.369141 C 13.185715 16.982052 13 16.019651 13 14.347656 L 13 9.6523438 C 13 7.9803846 13.185711 7.0179555 13.427734 6.6308594 C 13.664315 6.252469 13.971876 6.0873038 15.007812 6.0039062 C 15.015669 6.2775966 15.031217 6.5320999 15.064453 6.7792969 C 15.134593 7.3010434 15.323101 7.8582202 15.732422 8.2675781 C 16.141786 8.6768859 16.698946 8.8653992 17.220703 8.9355469 C 17.742463 9.0056946 18.2929 9 19 9 C 19.7071 9 20.25754 9.0056899 20.779297 8.9355469 C 21.301054 8.8653989 21.858214 8.6768859 22.267578 8.2675781 C 22.676899 7.8582201 22.865406 7.3010434 22.935547 6.7792969 C 23.005687 6.2575504 23 5.707105 23 5 C 23 4.292895 23.005687 3.7424496 22.935547 3.2207031 C 22.865406 2.6989566 22.676899 2.1417798 22.267578 1.7324219 C 21.858214 1.3231141 21.301054 1.1346008 20.779297 1.0644531 C 20.25754 0.99430544 19.7071 1 19 1 z M 19 3 C 19.7071 3 20.216526 3.00719 20.511719 3.046875 C 20.806912 3.086562 20.823479 3.1164524 20.853516 3.1464844 C 20.883496 3.1764664 20.913435 3.1930853 20.953125 3.4882812 C 20.992808 3.7834776 21 4.292895 21 5 C 21 5.707105 20.992795 6.2165229 20.953125 6.5117188 C 20.913445 6.8069147 20.883496 6.8235336 20.853516 6.8535156 C 20.823476 6.8835476 20.806916 6.913438 20.511719 6.953125 C 20.216522 6.9928127 19.7071 7 19 7 C 18.2929 7 17.783474 6.9928123 17.488281 6.953125 C 17.193088 6.9134377 17.176521 6.8835478 17.146484 6.8535156 C 17.116505 6.8235336 17.086559 6.8069148 17.046875 6.5117188 C 17.007191 6.2165228 17 5.707105 17 5 C 17 4.292895 17.007205 3.7834772 17.046875 3.4882812 C 17.086555 3.1930853 17.116504 3.1764664 17.146484 3.1464844 C 17.176524 3.1164524 17.193084 3.086562 17.488281 3.046875 C 17.783478 3.0071873 18.2929 3 19 3 z M 5.5 5 C 3.977618 5 2.75 6.2812432 2.75 7.8007812 C 2.75 8.2458854 2.855749 8.6710664 3.0429688 9.0488281 C 1.3784763 9.9631074 0.5100255 12.119336 1.3046875 14.058594 C 1.5585112 14.677957 2.1678796 15.109106 2.8554688 15.117188 L 3.375 17.292969 C 3.6084576 18.269641 4.480797 19 5.5 19 C 6.519203 19 7.3915424 18.269641 7.625 17.292969 L 8.1445312 15.117188 C 8.8321204 15.109106 9.4414888 14.677957 9.6953125 14.058594 C 10.489974 12.119336 9.6215236 9.9631074 7.9570312 9.0488281 C 8.144251 8.6710664 8.25 8.2458854 8.25 7.8007812 C 8.25 6.2812431 7.022382 5 5.5 5 z M 5.5 7 C 5.910618 7 6.25 7.3320995 6.25 7.8007812 C 6.25 8.2694631 5.910618 8.5996094 5.5 8.5996094 C 5.089382 8.5996094 4.75 8.2694632 4.75 7.8007812 C 4.75 7.3320994 5.089382 7 5.5 7 z M 4.8007812 10.599609 L 6.1992188 10.599609 C 7.4328079 10.599609 8.217804 11.864287 7.8320312 13.123047 L 7.6347656 13.123047 C 6.99461 13.123047 6.4541087 13.585322 6.3125 14.177734 L 5.6796875 16.828125 C 5.6489651 16.956653 5.570057 17 5.5 17 C 5.429943 17 5.3510349 16.956653 5.3203125 16.828125 L 4.6875 14.177734 C 4.5458913 13.585322 4.00539 13.123047 3.3652344 13.123047 L 3.1679688 13.123047 C 2.7821961 11.864287 3.5671922 10.599609 4.8007812 10.599609 z M 19 17 C 19.7071 17 20.216516 17.007205 20.511719 17.046875 C 20.806922 17.086555 20.823488 17.116464 20.853516 17.146484 C 20.883536 17.176514 20.913435 17.193074 20.953125 17.488281 C 20.992809 17.783488 21 18.2929 21 19 C 21 19.7071 20.992795 20.216516 20.953125 20.511719 C 20.913445 20.806922 20.883536 20.823488 20.853516 20.853516 C 20.823486 20.883536 20.806926 20.913435 20.511719 20.953125 C 20.216512 20.992809 19.7071 21 19 21 C 18.2929 21 17.783484 20.992795 17.488281 20.953125 C 17.193078 20.913445 17.176512 20.883536 17.146484 20.853516 C 17.116464 20.823486 17.086565 20.806926 17.046875 20.511719 C 17.007191 20.216513 17 19.707096 17 19 C 17 18.2929 17.007205 17.783484 17.046875 17.488281 C 17.086555 17.193078 17.116464 17.176512 17.146484 17.146484 C 17.176514 17.116464 17.193074 17.086565 17.488281 17.046875 C 17.783488 17.007191 18.2929 17 19 17 z " fill="currentColor"/>
</svg>
