<svg xmlns="http://www.w3.org/2000/svg" width="1em" height="1em" viewBox="0 0 24 24" fill="currentColor">
  <path d="M 13.734375 2.5 A 1 1 0 0 0 13.027344 2.7929688 L 8.7949219 7.0273438 C 8.2965519 7.5257138 8.2382931 8.2024334 8.3828125 8.8515625 L 7.9023438 9.3300781 C 7.089132 10.143335 6.9077376 11.192419 6.8066406 12.015625 C 6.7432471 12.531807 6.5320053 13.260859 5.8476562 14.136719 C 5.4465856 14.650044 5.405588 15.302078 5.5527344 15.929688 L 1.7832031 19.802734 A 1.0001 1.0001 0 0 0 2.5 21.5 L 6.5 21.5 A 1.0001 1.0001 0 0 0 7.1894531 21.224609 L 9.0644531 19.443359 C 9.6939174 19.593198 10.3481 19.554929 10.863281 19.152344 C 11.739149 18.468032 12.468244 18.256724 12.984375 18.193359 C 13.80754 18.092202 14.856666 17.910761 15.669922 17.097656 L 16.148438 16.617188 C 16.797559 16.76171 17.474275 16.703457 17.972656 16.205078 L 22.207031 11.972656 A 1 1 0 0 0 22.207031 10.556641 A 1 1 0 0 0 20.792969 10.556641 L 16.558594 14.791016 L 10.208984 8.4414062 L 14.443359 4.2070312 A 1 1 0 0 0 14.443359 2.7929688 A 1 1 0 0 0 13.734375 2.5 z M 9.5 10.5625 L 14.439453 15.5 L 14.253906 15.685547 C 13.995178 15.94301 13.419815 16.125472 12.740234 16.208984 C 11.889566 16.31342 10.784345 16.676484 9.6328125 17.576172 C 9.5691627 17.62591 9.5172109 17.622579 9.5019531 17.617188 L 9.5 17.615234 L 7.3847656 15.5 L 7.3828125 15.498047 L 7.3828125 15.496094 C 7.3774719 15.480872 7.3741071 15.430828 7.4238281 15.367188 C 8.3235791 14.215647 8.6865492 13.110384 8.7910156 12.259766 C 8.8745026 11.579955 9.0587477 11.004671 9.3164062 10.746094 L 9.3164062 10.744141 L 9.5 10.5625 z M 6.6875 17.630859 L 7.3613281 18.304688 L 6.1015625 19.5 L 4.8691406 19.5 L 6.6875 17.630859 z " fill="currentColor"/>
</svg>
