<svg xmlns="http://www.w3.org/2000/svg" width="1em" height="1em" viewBox="0 0 24 24" fill="currentColor">
  <path d="M 12 1 C 8.2815106 1 5.1972656 3.9034649 5.1972656 7.5195312 C 5.1972656 9.3829984 4.4792811 13.090178 2.28125 15.804688 C 1.9075644 16.266143 1.6135202 16.619912 1.3789062 16.994141 C 1.1442925 17.368369 0.92892424 17.858201 1.0214844 18.410156 C 1.1021084 18.891003 1.411665 19.298588 1.7128906 19.5625 C 2.0141163 19.826412 2.3360858 20.027051 2.7363281 20.287109 C 8.3115132 23.909496 15.688505 23.909498 21.263672 20.287109 C 21.663942 20.027046 21.985879 19.826421 22.287109 19.5625 C 22.58834 19.298579 22.897905 18.890988 22.978516 18.410156 C 23.071036 17.858269 22.855699 17.370335 22.621094 16.996094 C 22.386488 16.621852 22.092469 16.26616 21.71875 15.804688 C 19.520728 13.090177 18.802734 9.3829984 18.802734 7.5195312 C 18.802734 3.9034693 15.718523 1 12 1 z M 12 3 C 14.690477 3 16.802734 5.0398732 16.802734 7.5195312 C 16.802734 9.8519642 17.559085 13.847362 20.164062 17.064453 C 20.537744 17.525879 20.804537 17.863232 20.925781 18.056641 C 20.932646 18.06759 20.938799 18.076053 20.943359 18.082031 C 20.815807 18.187571 20.550052 18.364935 20.173828 18.609375 A 1.0001 1.0001 0 0 0 20.173828 18.611328 C 16.595537 20.936275 12.128361 21.562289 8.0722656 20.488281 C 8.3000613 19.600693 9.1423089 18.101127 11.691406 16.90625 C 13.524922 16.046781 14.677901 15.01274 15.302734 13.794922 C 15.927568 12.577103 16 11.292667 16 10 L 16 8 A 1 1 0 0 0 15.992188 7.8691406 C 15.9216 5.7322509 14.153074 4 12 4 C 9.8026731 4 8 5.8027269 8 8 L 8 10 C 8 12.197307 9.8026932 14 12 14 C 12.235341 14 12.466849 13.979082 12.691406 13.939453 C 12.26137 14.323644 11.67042 14.705329 10.841797 15.09375 C 7.9434981 16.452313 6.6067381 18.308089 6.1699219 19.84375 C 5.3578319 19.506633 4.5727432 19.096401 3.8261719 18.611328 C 3.4499493 18.366877 3.1841995 18.187745 3.0566406 18.082031 C 3.0612007 18.07605 3.0673544 18.067594 3.0742188 18.056641 C 3.1954761 17.863172 3.4622631 17.525896 3.8359375 17.064453 C 6.4409264 13.847362 7.1972656 9.8519641 7.1972656 7.5195312 C 7.1972656 5.0398776 9.3095694 3 12 3 z M 12 6 C 12.750456 6 13.395894 6.3992058 13.738281 7 L 10.261719 7 C 10.604106 6.3992058 11.249544 6 12 6 z M 10 9 L 14 9 L 14 10 C 14 11.116493 13.116493 12 12 12 C 10.883507 12 10 11.116493 10 10 L 10 9 z " fill="currentColor"/>
</svg>
