<svg xmlns="http://www.w3.org/2000/svg" width="1em" height="1em" viewBox="0 0 24 24" fill="currentColor">
  <path d="M 10 1 C 8.82149 1 7.9171156 0.99284988 7.1230469 1.0996094 C 6.3289782 1.2063689 5.5811847 1.4695965 5.0253906 2.0253906 C 4.4935205 2.5572608 4.2423522 3.230466 4.1210938 4.0039062 C 2.9491769 4.0724036 2 5.0626889 2 6.25 C 2 6.7350469 2.2562844 7.1301071 2.5234375 7.5 C 2.2562844 7.8698929 2 8.2649531 2 8.75 C 2 9.2350469 2.2562844 9.6301071 2.5234375 10 C 2.2562795 10.369892 2 10.76495 2 11.25 C 2 11.73505 2.2562795 12.130108 2.5234375 12.5 C 2.2562795 12.869892 2 13.26495 2 13.75 C 2 14.93732 2.9492084 15.927598 4.1210938 15.996094 C 4.2423574 16.769521 4.4935368 17.442723 5.0253906 17.974609 C 5.5811886 18.530385 6.3289825 18.793636 7.1230469 18.900391 C 7.2895208 18.922771 7.4629444 18.939641 7.640625 18.953125 L 11.105469 21.119141 C 11.225858 21.194411 11.32735 21.295788 11.40625 21.414062 L 12.167969 22.554688 A 1 1 0 0 0 13.554688 22.832031 A 1 1 0 0 0 13.832031 21.445312 L 13.070312 20.302734 C 12.834212 19.94881 12.525073 19.649554 12.164062 19.423828 L 11.474609 18.992188 C 11.991174 18.981832 12.449753 18.9578 12.876953 18.900391 C 13.67102 18.793637 14.418787 18.530356 14.974609 17.974609 C 15.530356 17.418787 15.791682 16.671019 15.898438 15.876953 C 16.005192 15.082888 16 14.1785 16 13 L 16 7 C 16 6.8511529 16.00007 6.7068375 16 6.5664062 C 16.002699 5.9151972 16.443413 5.4706303 17 5.2324219 L 17 8.0566406 C 17 9.0298521 17.317137 9.8705133 17.683594 10.603516 C 18.259227 11.754709 18 13.684847 18 15.527344 C 18 16.577758 18.431031 17.494669 18.880859 18.320312 C 19.330687 19.145957 19.831296 19.898878 20.105469 20.447266 A 1 1 0 0 0 21.447266 20.894531 A 1 1 0 0 0 21.894531 19.552734 C 21.525404 18.814422 21.026066 18.077913 20.636719 17.363281 C 20.247372 16.648649 20 15.97333 20 15.527344 C 20 13.97304 20.475823 11.715191 19.472656 9.7089844 C 19.172713 9.1090263 19 8.5999091 19 8.0566406 L 19 4.4277344 C 19 3.6505343 18.349397 3 17.572266 3 C 16.918751 3 16.304611 3.178862 15.775391 3.4902344 C 15.629006 2.9374957 15.379736 2.4305391 14.974609 2.0253906 C 14.418791 1.4696253 13.671025 1.2063684 12.876953 1.0996094 C 12.082882 0.99285028 11.178505 1 10 1 z M 10 3 C 11.178505 3 12.041869 3.0057302 12.609375 3.0820312 C 13.176881 3.1583292 13.384065 3.2629884 13.560547 3.4394531 C 13.736976 3.6158914 13.841673 3.8231202 13.917969 4.390625 C 13.994264 4.9581301 14 5.82149 14 7 L 14 13 C 14 14.1785 13.994299 15.041866 13.917969 15.609375 C 13.841669 16.176884 13.737 16.384069 13.560547 16.560547 C 13.384068 16.737 13.176885 16.841673 12.609375 16.917969 C 12.041865 16.994265 11.178505 17 10 17 C 8.82149 17 7.9581282 16.994264 7.390625 16.917969 C 6.8231218 16.841673 6.6158851 16.736972 6.4394531 16.560547 C 6.2900429 16.411128 6.1839968 16.211794 6.1132812 15.824219 C 6.9233138 15.481764 7.5 14.676111 7.5 13.75 C 7.5 13.425683 7.2771501 13.194219 7.1503906 12.914062 C 7.6455969 12.499356 8 11.93746 8 11.25 C 8 10.994623 7.8051542 10.82174 7.7246094 10.591797 C 8.4343057 10.210727 9 9.6025962 9 8.75 C 9 7.8974038 8.4343057 7.289273 7.7246094 6.9082031 C 7.8051519 6.6782601 8 6.5053754 8 6.25 C 8 5.152675 7.1905231 4.2237655 6.1425781 4.0351562 C 6.2123161 3.7375758 6.309228 3.5696782 6.4394531 3.4394531 C 6.615889 3.2630172 6.8231262 3.1583293 7.390625 3.0820312 C 7.9581238 3.0057331 8.82149 3 10 3 z M 4.25 6 L 5.75 6 C 5.899927 6 6 6.100073 6 6.25 C 6 6.399927 5.899927 6.5 5.75 6.5 L 4.25 6.5 C 4.100073 6.5 4 6.399927 4 6.25 C 4 6.100073 4.100073 6 4.25 6 z M 4.25 8.5 L 5.75 8.5 L 6.75 8.5 C 6.899927 8.5 7 8.600073 7 8.75 C 7 8.899927 6.899927 9 6.75 9 L 5.75 9 L 4.25 9 C 4.100073 9 4 8.899927 4 8.75 C 4 8.600073 4.100073 8.5 4.25 8.5 z M 4.25 11 L 5.75 11 C 5.8999656 11 6 11.100002 6 11.25 C 6 11.399998 5.8999656 11.5 5.75 11.5 L 5.25 11.5 L 4.25 11.5 C 4.1000344 11.5 4 11.399998 4 11.25 C 4 11.100002 4.1000344 11 4.25 11 z M 4.25 13.5 L 5.25 13.5 C 5.3999656 13.5 5.5 13.600002 5.5 13.75 C 5.5 13.899998 5.3999656 14 5.25 14 L 4.25 14 C 4.1000344 14 4 13.899998 4 13.75 C 4 13.600002 4.1000344 13.5 4.25 13.5 z M 10 14 A 1 1 0 0 0 9 15 A 1 1 0 0 0 10 16 L 10.009766 16 A 1 1 0 0 0 11.009766 15 A 1 1 0 0 0 10.009766 14 L 10 14 z " fill="currentColor"/>
</svg>
