<svg xmlns="http://www.w3.org/2000/svg" width="1em" height="1em" viewBox="0 0 24 24" fill="currentColor">
  <path d="M 12.25 2.75 C 11.51119 2.75 10.858944 3.0449641 10.310547 3.4667969 C 9.9740221 3.3475806 9.6252545 3.25 9.25 3.25 C 7.4669192 3.25 6 4.7169192 6 6.5 L 6 6.7285156 L 5.078125 7.6074219 C 5.04682 7.6372309 5.0153521 7.6691099 4.9863281 7.7011719 C 4.3921045 8.3575731 3.8964854 8.8985708 3.5 9.4316406 C 3.0952499 9.9758453 2.7433657 10.589846 2.59375 11.326172 C 2.512639 11.725375 2.4836478 12.13434 2.5078125 12.541016 C 2.5523955 13.291465 2.8158012 13.950067 3.140625 14.544922 C 3.4587292 15.127603 3.8731066 15.732244 4.3691406 16.462891 L 4.9335938 17.292969 C 5.5511035 18.202436 5.9499652 18.813283 6.5214844 19.357422 C 7.4415077 20.233367 8.5890933 20.835475 9.8339844 21.099609 C 10.605729 21.263391 11.338853 21.25 12.453125 21.25 C 14.440108 21.25 15.713916 21.29039 16.931641 20.867188 C 18.871575 20.193227 20.411149 18.688256 21.105469 16.761719 C 21.542798 15.548202 21.5 14.281658 21.5 12.333984 L 21.5 8 C 21.5 6.2168978 20.033058 4.75 18.25 4.75 C 18.039269 4.75 17.854297 4.832015 17.654297 4.8710938 C 17.057043 4.197373 16.212372 3.75 15.25 3.75 C 15.039269 3.75 14.854297 3.8320148 14.654297 3.8710938 C 14.057043 3.1973728 13.212372 2.75 12.25 2.75 z M 12.171875 9.2832031 C 12.377188 10.021097 12.9535 10.625 13.75 10.625 C 14.352983 10.625 14.803543 10.257527 15.119141 9.7832031 C 15.273506 10.588309 15.905053 11.25 16.75 11.25 C 17.243266 11.25 17.679537 11.028335 18 10.691406 L 18 12.333984 C 18 14.410795 17.95919 15.167214 17.8125 15.574219 C 17.481399 16.493106 16.739725 17.227541 15.78125 17.560547 C 15.349001 17.710738 14.565316 17.75 12.453125 17.75 C 11.273124 17.75 10.856452 17.738571 10.560547 17.675781 C 9.9445862 17.545132 9.3803571 17.247597 8.9335938 16.822266 C 8.7205989 16.619461 8.4830382 16.290777 7.828125 15.326172 L 7.265625 14.496094 C 6.7531362 13.741267 6.4089356 13.22985 6.2109375 12.867188 C 6.0197593 12.516999 6.0063873 12.408613 6.0019531 12.333984 C 5.996342 12.239588 6.004737 12.144072 6.0214844 12.050781 C 6.05335 12.979053 6.8150137 13.75 7.75 13.75 C 8.7046766 13.75 9.5 12.954664 9.5 12 L 9.5 9.6914062 C 9.8204635 10.028335 10.256734 10.25 10.75 10.25 C 11.401428 10.25 11.870894 9.8217782 12.171875 9.2832031 z " fill="currentColor"/>
</svg>
