<svg xmlns="http://www.w3.org/2000/svg" width="1em" height="1em" viewBox="0 0 24 24" fill="currentColor">
  <path d="M 12 1.5 C 11.176703 1.5 10.409738 1.7932655 9.6582031 2.2460938 C 8.9066681 2.6989219 8.1201241 3.3162918 7.0878906 4.1191406 L 5.0878906 5.6738281 C 3.7608094 6.7059991 2.9464631 7.3000513 2.4570312 8.3007812 C 1.9675943 9.3014933 2 10.308934 2 11.990234 L 2 14.5 C 2 16.1499 1.99335 17.408225 2.1367188 18.474609 C 2.2800906 19.540994 2.6161378 20.479371 3.3183594 21.181641 C 4.0206014 21.883869 4.9590094 22.219914 6.0253906 22.363281 C 7.0917719 22.506649 8.350085 22.5 10 22.5 L 14 22.5 C 15.6499 22.5 16.908228 22.5066 17.974609 22.363281 C 19.04099 22.219914 19.979368 21.883844 20.681641 21.181641 C 21.383844 20.479368 21.719914 19.54099 21.863281 18.474609 C 22.006649 17.408228 22 16.1499 22 14.5 L 22 11.990234 C 22 10.308934 22.03241 9.3014933 21.542969 8.3007812 C 21.053541 7.300087 20.23922 6.7060066 18.912109 5.6738281 L 16.912109 4.1191406 C 15.879862 3.316293 15.093332 2.6989211 14.341797 2.2460938 C 13.590262 1.7932663 12.823297 1.5 12 1.5 z M 12 3.5 C 12.377603 3.5 12.727679 3.6089617 13.308594 3.9589844 C 13.889509 4.309007 14.651341 4.8944132 15.683594 5.6972656 L 17.683594 7.2539062 C 19.010683 8.2860679 19.523722 8.7250216 19.746094 9.1796875 C 19.968457 9.6343355 20 10.308934 20 11.990234 L 20 14.5 C 20 16.1499 19.9938 17.367212 19.880859 18.207031 C 19.767952 19.04685 19.590474 19.44465 19.267578 19.767578 C 18.94465 20.090474 18.54685 20.267952 17.707031 20.380859 C 16.867212 20.493767 15.6499 20.5 14 20.5 L 10 20.5 C 8.350085 20.5 7.132785 20.493767 6.2929688 20.380859 C 5.4531525 20.267952 5.0552999 20.09045 4.7324219 19.767578 C 4.4095135 19.444648 4.2320512 19.046847 4.1191406 18.207031 C 4.0062301 17.367215 4 16.1499 4 14.5 L 4 11.990234 C 4 10.308934 4.031543 9.6343355 4.2539062 9.1796875 C 4.4762544 8.7250573 4.9893275 8.2860754 6.3164062 7.2539062 L 8.3164062 5.6972656 C 9.3486427 4.8944144 10.110494 4.3090061 10.691406 3.9589844 C 11.272319 3.6089626 11.622397 3.5 12 3.5 z M 15 14.5 A 1.0001 1.0001 0 0 0 14 15.5 L 14 17.5 A 1.0001 1.0001 0 0 0 15 18.5 L 17 18.5 A 1.0001 1.0001 0 0 0 18 17.5 L 18 15.5 A 1.0001 1.0001 0 0 0 17 14.5 L 15 14.5 z " fill="currentColor"/>
</svg>
