<svg xmlns="http://www.w3.org/2000/svg" width="1em" height="1em" viewBox="0 0 24 24" fill="currentColor">
  <path d="M 12 2 C 11.176703 2 10.409738 2.2932655 9.6582031 2.7460938 C 8.9066681 3.1989219 8.1201241 3.8162918 7.0878906 4.6191406 L 5.0878906 6.1738281 C 3.7608094 7.2059991 2.9464631 7.8000513 2.4570312 8.8007812 C 1.9675943 9.8014933 2 10.808934 2 12.490234 L 2 15 C 2 16.6499 1.99335 17.908225 2.1367188 18.974609 C 2.2800906 20.040994 2.6161378 20.979371 3.3183594 21.681641 C 4.0206014 22.383869 4.9590094 22.719914 6.0253906 22.863281 C 7.0917719 23.006649 8.350085 23 10 23 L 14 23 C 15.6499 23 16.908228 23.0066 17.974609 22.863281 C 19.04099 22.719914 19.979368 22.383844 20.681641 21.681641 C 21.383844 20.979368 21.719914 20.04099 21.863281 18.974609 C 22.006649 17.908228 22 16.6499 22 15 L 22 12.490234 C 22 10.808934 22.03241 9.8014933 21.542969 8.8007812 C 21.053541 7.800087 20.23922 7.2060066 18.912109 6.1738281 L 16.912109 4.6191406 C 15.879862 3.816293 15.093332 3.1989211 14.341797 2.7460938 C 13.590262 2.2932663 12.823297 2 12 2 z M 12 4 C 12.377603 4 12.727679 4.1089617 13.308594 4.4589844 C 13.889509 4.809007 14.651341 5.3944132 15.683594 6.1972656 L 17.683594 7.7539062 C 19.010683 8.7860678 19.523722 9.2250216 19.746094 9.6796875 C 19.968457 10.134335 20 10.808934 20 12.490234 L 20 15 C 20 16.6499 19.9938 17.867212 19.880859 18.707031 C 19.767952 19.54685 19.590474 19.94465 19.267578 20.267578 C 18.94465 20.590474 18.54685 20.767952 17.707031 20.880859 C 16.867212 20.993767 15.6499 21 14 21 L 10 21 C 8.350085 21 7.132785 20.993767 6.2929688 20.880859 C 5.4531525 20.767952 5.0552999 20.59045 4.7324219 20.267578 C 4.4095135 19.944648 4.2320512 19.546847 4.1191406 18.707031 C 4.0062301 17.867215 4 16.6499 4 15 L 4 12.490234 C 4 10.808934 4.031543 10.134335 4.2539062 9.6796875 C 4.4762544 9.2250573 4.9893275 8.7860754 6.3164062 7.7539062 L 8.3164062 6.1972656 C 9.3486427 5.3944144 10.110494 4.8090061 10.691406 4.4589844 C 11.272319 4.1089626 11.622397 4 12 4 z M 12 9 C 9.9553607 9 7.9711197 9.6967241 6.375 10.974609 A 1 1 0 0 0 6.21875 12.380859 A 1 1 0 0 0 7.625 12.535156 C 8.8666803 11.541042 10.409439 11 12 11 C 13.590561 11 15.13332 11.541042 16.375 12.535156 A 1 1 0 0 0 17.78125 12.380859 A 1 1 0 0 0 17.625 10.974609 C 16.02888 9.6967241 14.044639 9 12 9 z M 12.003906 12.992188 C 10.868032 12.989888 9.7650459 13.373907 8.8769531 14.082031 A 1 1 0 0 0 8.71875 15.488281 A 1 1 0 0 0 10.123047 15.646484 C 10.65616 15.221409 11.318074 14.990837 12 14.992188 C 12.681722 14.993488 13.341657 15.227114 13.873047 15.654297 A 1 1 0 0 0 15.279297 15.501953 A 1 1 0 0 0 15.126953 14.095703 C 14.241743 13.384086 13.139784 12.994436 12.003906 12.992188 z M 12 17 A 1 1 0 0 0 11 18 A 1 1 0 0 0 12 19 L 12.009766 19 A 1 1 0 0 0 13.009766 18 A 1 1 0 0 0 12.009766 17 L 12 17 z " fill="currentColor"/>
</svg>
