<svg xmlns="http://www.w3.org/2000/svg" width="1em" height="1em" viewBox="0 0 24 24" fill="currentColor">
  <path d="M 12 0.9921875 C 9.7789647 0.99218744 7.5569664 1.8758273 5.9921875 3.6464844 C 5.7196826 3.9548392 5.479022 4.2102673 5.2714844 4.5761719 C 5.0662146 4.9380782 4.954619 5.460775 5.03125 5.9179688 C 3.8061131 6.5279042 2.8831478 7.6115834 2.1875 8.5429688 C 1.6507135 9.2616639 1.2404979 9.8377254 1.0703125 10.6875 C 0.88977734 11.589022 1.0888235 12.346037 1.3691406 13.453125 L 2.6679688 18.583984 C 2.7748557 19.006116 3.0402437 19.422512 3.421875 19.667969 C 3.8035063 19.913426 4.2443279 19.975157 4.6347656 19.933594 C 4.762248 19.920022 4.8875792 19.898183 5.0097656 19.867188 C 5.0288421 20.172386 5.0843118 20.48718 5.2402344 20.808594 C 5.4557155 21.252779 5.8513112 21.597199 6.28125 21.828125 C 7.8342588 22.662201 9.9118745 23 12 23 C 14.088126 23 16.165737 22.6622 17.71875 21.828125 C 18.148718 21.597198 18.544291 21.252795 18.759766 20.808594 C 18.897678 20.524286 18.95725 20.244667 18.982422 19.972656 C 19.152821 19.995053 19.327303 20.004386 19.505859 19.998047 C 19.860498 19.985457 20.252285 19.899987 20.605469 19.65625 C 20.958653 19.412515 21.225058 19.006474 21.332031 18.583984 L 22.630859 13.453125 C 22.911151 12.346059 23.110155 11.589021 22.929688 10.6875 C 22.759432 9.8377564 22.349295 9.2616616 21.8125 8.5429688 C 21.116863 7.6115761 20.193901 6.5279013 18.96875 5.9179688 C 19.045378 5.4607837 18.933806 4.9380876 18.728516 4.5761719 C 18.520956 4.2102557 18.278418 3.9548537 18.005859 3.6464844 C 16.441085 1.8758262 14.221035 0.99218756 12 0.9921875 z M 12 3.0078125 C 13.675882 3.0078124 15.351387 3.6621213 16.507812 4.9707031 A 1.0001 1.0001 0 0 0 16.507812 4.9726562 C 16.780355 5.281007 16.948519 5.4889586 16.990234 5.5625 C 16.987749 5.5642659 16.985204 5.5662969 16.982422 5.5683594 C 16.886272 5.6396484 16.599579 5.7894374 16.169922 5.9941406 L 14.757812 6.6679688 L 14.832031 6.5546875 A 1 1 0 0 0 14.554688 5.1679688 A 1 1 0 0 0 13.167969 5.4453125 L 12 7.1972656 L 10.832031 5.4453125 A 1 1 0 0 0 9.4453125 5.1679688 A 1 1 0 0 0 9.1679688 6.5546875 L 9.2421875 6.6679688 L 7.8300781 5.9941406 C 7.4004324 5.7894403 7.1137167 5.6396413 7.0175781 5.5683594 C 7.0153129 5.5666798 7.0137867 5.565935 7.0117188 5.5644531 L 7.0117188 5.5625 C 7.0534387 5.4889446 7.2196824 5.2790583 7.4921875 4.9707031 C 8.6486186 3.6621202 10.324118 3.0078126 12 3.0078125 z M 6.4023438 7.5253906 C 6.5808916 7.617407 6.7676025 7.704016 6.9707031 7.8007812 L 10.851562 9.6503906 C 11.205355 9.8189173 11.512511 10 12 10 C 12.487489 10 12.794643 9.8189173 13.148438 9.6503906 L 17.029297 7.8007812 C 17.232397 7.7040172 17.419109 7.6174086 17.597656 7.5253906 C 18.446077 7.791023 19.485974 8.7695754 20.210938 9.7402344 C 20.747743 10.458942 20.873006 10.602222 20.96875 11.080078 C 21.05408 11.506357 20.97365 11.855756 20.693359 12.962891 L 19.417969 17.994141 C 19.311438 17.995451 19.111089 17.96033 18.880859 17.886719 L 18.878906 17.886719 L 18.658203 14.958984 C 18.579003 13.448184 18.546752 12.756531 18.630859 12.134766 A 1 1 0 0 0 17.775391 11.009766 A 1 1 0 0 0 16.650391 11.865234 C 16.532894 12.733869 16.580926 13.553653 16.660156 15.064453 A 1.0001 1.0001 0 0 0 16.662109 15.085938 L 16.998047 19.542969 C 16.994747 19.806346 16.963967 19.929291 16.960938 19.935547 L 16.960938 19.9375 L 16.960938 19.939453 L 16.958984 19.941406 L 16.958984 19.943359 C 16.953329 19.955271 16.925334 19.983779 16.771484 20.066406 C 15.711758 20.635528 13.850622 21 12 21 C 10.149378 21 8.2881968 20.63553 7.2285156 20.066406 C 7.0746747 19.983777 7.0466753 19.953319 7.0410156 19.941406 L 7.0390625 19.939453 L 7.0390625 19.9375 L 7.0390625 19.935547 C 7.0360225 19.929247 7.0053011 19.806325 7.0019531 19.542969 L 7.3378906 15.085938 A 1.0001 1.0001 0 0 0 7.3398438 15.064453 C 7.4189837 13.553653 7.467047 12.733811 7.3496094 11.865234 A 1 1 0 0 0 6.2246094 11.009766 A 1 1 0 0 0 5.3691406 12.134766 C 5.4532186 12.756589 5.4209369 13.448184 5.3417969 14.958984 L 5.1464844 17.53125 C 4.884746 17.755327 4.6745025 17.826913 4.5488281 17.865234 L 3.3066406 12.962891 C 3.0263175 11.855778 2.9458852 11.506357 3.03125 11.080078 C 3.1269446 10.602253 3.252269 10.458939 3.7890625 9.7402344 C 4.5140452 8.7695733 5.5539521 7.7910241 6.4023438 7.5253906 z M 10 16 A 1 1 0 0 0 9 17 C 9 17.555466 8.8231693 17.762741 8.2929688 18.292969 A 1 1 0 0 0 8.2929688 19.707031 A 1 1 0 0 0 9.7070312 19.707031 C 10.338771 19.075259 11 18.194134 11 17 A 1 1 0 0 0 10 16 z M 14 16 A 1 1 0 0 0 13 17 C 13 18.194111 13.661177 19.07524 14.292969 19.707031 A 1 1 0 0 0 15.707031 19.707031 A 1 1 0 0 0 15.707031 18.292969 C 15.176823 17.76276 15 17.555489 15 17 A 1 1 0 0 0 14 16 z " fill="currentColor"/>
</svg>
