<svg xmlns="http://www.w3.org/2000/svg" width="1em" height="1em" viewBox="0 0 24 24" fill="currentColor">
  <path d="M 12 1 A 1 1 0 0 0 11 2 L 11 3.0546875 C 7.3667917 3.4534103 4.3660997 5.9987615 3.3144531 9.4023438 C 3.1658082 9.8834285 3.0185354 10.289075 3.0019531 10.8125 C 2.9853711 11.335925 3.2326455 11.963145 3.6347656 12.365234 C 3.8688617 12.599358 4.1801616 12.781045 4.5019531 12.888672 C 4.4635302 15.216128 5.2891521 17.001601 6.0996094 18.080078 C 6.5205081 18.640153 7.1684477 18.959178 7.8359375 18.992188 C 8.2879147 19.942043 9.0998992 21.224332 10.351562 22.355469 C 11.274111 23.189052 12.725889 23.189052 13.648438 22.355469 C 14.900162 21.224316 15.712102 19.942056 16.164062 18.992188 C 16.831543 18.959159 17.479502 18.640111 17.900391 18.080078 C 18.710781 17.00162 19.536443 15.216126 19.498047 12.888672 C 19.819845 12.781049 20.131142 12.599372 20.365234 12.365234 C 20.7674 11.963146 21.01464 11.335941 20.998047 10.8125 C 20.981453 10.289059 20.834193 9.8834149 20.685547 9.4023438 C 19.633955 5.9987387 16.633198 3.4534083 13 3.0546875 L 13 2 A 1 1 0 0 0 12 1 z M 10.804688 5.1953125 C 10.345326 7.8369587 8.5182006 9.9978173 6.0078125 10.773438 C 5.5267119 10.922091 5.2099983 10.997244 5.1230469 11 C 5.1121927 11.00035 5.102706 11.00213 5.0976562 11.003906 L 5.0957031 11.005859 C 5.0894023 10.995378 5.0754418 10.97779 5.0488281 10.951172 C 5.0222159 10.924562 5.0046161 10.910594 4.9941406 10.904297 L 4.9960938 10.902344 L 4.9960938 10.900391 C 4.9978667 10.895339 4.999656 10.887812 5 10.876953 C 5.00276 10.789983 5.077917 10.473273 5.2265625 9.9921875 C 6.0022331 7.4817827 8.1630517 5.6546728 10.804688 5.1953125 z M 13.195312 5.1953125 C 15.836939 5.6546745 17.99782 7.4818056 18.773438 9.9921875 C 18.922093 10.473286 18.997244 10.790001 19 10.876953 C 19.00035 10.887811 19.002129 10.897293 19.003906 10.902344 L 19.005859 10.904297 C 18.99538 10.910594 18.977794 10.924557 18.951172 10.951172 C 18.924562 10.977787 18.910595 10.995383 18.904297 11.005859 L 18.902344 11.003906 L 18.900391 11.003906 C 18.89534 11.002132 18.887813 11.000345 18.876953 11 C 18.789993 10.9972 18.473304 10.92209 17.992188 10.773438 C 15.481856 9.9978167 13.654678 7.836957 13.195312 5.1953125 z M 12 8.1464844 C 12.489737 9.0996226 13.143901 9.9545878 13.923828 10.675781 C 13.575545 11.771285 12.698038 12.825464 12 13.542969 C 11.30197 12.825493 10.424462 11.771296 10.076172 10.675781 C 10.856107 9.9545837 11.510264 9.0996308 12 8.1464844 z M 8.3867188 11.912109 C 8.9368251 13.267806 9.8569583 14.372911 10.630859 15.123047 C 9.9928463 15.766039 9.0231705 16.576291 8.0605469 16.974609 C 7.9094216 17.037159 7.7952479 17.009286 7.6972656 16.878906 C 7.1081867 16.095018 6.420852 14.671873 6.5078125 12.712891 C 6.5375781 12.703567 6.5673399 12.694914 6.5976562 12.685547 C 7.2263054 12.491317 7.8247385 12.231031 8.3867188 11.912109 z M 15.613281 11.912109 C 16.175265 12.231038 16.773695 12.491313 17.402344 12.685547 C 17.432659 12.694913 17.462424 12.703567 17.492188 12.712891 C 17.579134 14.671869 16.89179 16.095 16.302734 16.878906 C 16.204704 17.009341 16.090668 17.037195 15.939453 16.974609 C 14.976823 16.576298 14.007131 15.766022 13.369141 15.123047 C 14.143006 14.372921 15.063154 13.267812 15.613281 11.912109 z M 12 16.605469 C 12.573402 17.191447 13.332406 17.839758 14.234375 18.357422 C 13.851555 19.07267 13.19008 20.074705 12.306641 20.873047 C 12.090589 21.068264 11.909411 21.068264 11.693359 20.873047 C 10.80994 20.074694 10.148454 19.072675 9.765625 18.357422 C 10.667549 17.839758 11.426599 17.191425 12 16.605469 z " fill="currentColor"/>
</svg>
