<svg xmlns="http://www.w3.org/2000/svg" width="1em" height="1em" viewBox="0 0 24 24" fill="currentColor">
  <path d="M 7.0292969 2.0019531 C 5.9324927 1.9925349 5 2.9786162 5 4.1035156 L 5 5 L 4.4101562 5 C 4.1773062 5 4.0140252 4.9950518 3.8007812 5.0273438 C 2.9595489 5.1547322 2.2609462 5.7008187 1.8125 6.421875 C 1.7039079 6.5964567 1.6291578 6.7535195 1.5 7.015625 C 1.3006873 7.4201002 1.1802452 7.6279792 1.0917969 7.9628906 C 0.93659169 8.5506018 0.97996059 9.1394323 1.1875 9.6640625 C 1.3950394 10.188693 1.7937511 10.693888 2.4277344 10.908203 C 2.8379822 11.046882 3.0449669 11 3.4042969 11 L 4.7011719 11 L 10.167969 14.564453 L 7.4160156 16.359375 C 6.9930724 16.130029 6.5107194 16 6 16 C 4.3550085 16 3 17.354975 3 19 C 3 20.645025 4.3550085 22 6 22 C 7.6449915 22 9 20.645025 9 19 C 9 18.598889 8.9191206 18.214465 8.7734375 17.863281 L 12 15.759766 L 15.226562 17.863281 C 15.080879 18.214466 15 18.59889 15 19 C 15 20.645007 16.354993 22 18 22 C 19.645007 22 21 20.645007 21 19 C 21 17.354993 19.645007 16 18 16 C 17.489279 16 17.006926 16.13003 16.583984 16.359375 L 13.832031 14.564453 L 19.298828 11 L 20.595703 11 C 20.955103 11 21.162292 11.046733 21.572266 10.908203 A 1.0001 1.0001 0 0 0 21.574219 10.908203 C 22.208178 10.693873 22.604948 10.188679 22.8125 9.6640625 C 23.020052 9.1394461 23.063428 8.5506365 22.908203 7.9628906 C 22.819694 7.6279411 22.699294 7.4200524 22.5 7.015625 C 22.370827 6.7535993 22.296086 6.5964566 22.1875 6.421875 C 21.739057 5.7007137 21.040432 5.1547319 20.199219 5.0273438 C 19.98601 4.9950601 19.822644 5 19.589844 5 L 11 5 L 11 4.6542969 C 11 3.7368045 10.42937 2.8752281 9.5078125 2.6210938 L 7.5078125 2.0703125 C 7.346691 2.0258806 7.1859832 2.0032986 7.0292969 2.0019531 z M 7 4.0039062 L 8.9667969 4.546875 L 8.9667969 4.5488281 L 8.96875 4.5507812 L 8.9707031 4.5527344 C 8.9790949 4.564607 9 4.5950296 9 4.6542969 L 9 5 L 7 5 L 7 4.1035156 C 7 4.0444558 7.0010298 4.0162817 7 4.0039062 z M 4.4101562 7 L 6 7 L 10 7 L 19.589844 7 C 19.822644 7 19.893046 7.0050394 19.898438 7.0058594 C 20.061625 7.0305714 20.286124 7.1534169 20.488281 7.4785156 C 20.521291 7.5315936 20.575851 7.6363032 20.705078 7.8984375 C 20.904384 8.3028901 20.981474 8.4986487 20.974609 8.4726562 C 21.015389 8.6270604 20.997895 8.8145657 20.953125 8.9277344 C 20.943033 8.9532453 20.932528 8.9735532 20.923828 8.9882812 C 20.854124 8.9932064 20.742321 9 20.595703 9 L 3.4042969 9 C 3.2577485 9 3.1459319 8.9932261 3.0761719 8.9882812 C 3.0674791 8.9735589 3.0569581 8.953223 3.046875 8.9277344 C 3.0021116 8.814579 2.9846058 8.627095 3.0253906 8.4726562 C 3.0185423 8.4985875 3.0955946 8.3029423 3.2949219 7.8984375 C 3.4240841 7.636323 3.4786909 7.531614 3.5117188 7.4785156 C 3.7139724 7.1533119 3.9383747 7.030571 4.1015625 7.0058594 C 4.1068986 7.0050513 4.1773063 7 4.4101562 7 z M 8.3652344 11 L 15.634766 11 L 12 13.371094 L 8.3652344 11 z M 6 18 C 6.5641485 18 7 18.435825 7 19 C 7 19.564175 6.5641485 20 6 20 C 5.4358515 20 5 19.564175 5 19 C 5 18.435825 5.4358515 18 6 18 z M 18 18 C 18.564193 18 19 18.435807 19 19 C 19 19.564193 18.564193 20 18 20 C 17.435807 20 17 19.564193 17 19 C 17 18.435807 17.435807 18 18 18 z " fill="currentColor"/>
</svg>
