<svg xmlns="http://www.w3.org/2000/svg" width="1em" height="1em" viewBox="0 0 24 24" fill="currentColor">
  <path d="M 10 1 A 1 1 0 0 0 9 2 L 9 4 L 9 6 A 1 1 0 0 0 10 7 A 1 1 0 0 0 11 6 L 11 5 L 13 5 L 13 6 A 1 1 0 0 0 14 7 A 1 1 0 0 0 15 6 L 15 4 L 15 2 A 1 1 0 0 0 14 1 A 1 1 0 0 0 13 2 L 13 3 L 11 3 L 11 2 A 1 1 0 0 0 10 1 z M 7.4433594 3.0019531 C 5.7660405 3.0984719 4.4473012 3.3830569 3.4667969 4.3085938 C 2.6954193 5.0367228 2.315494 6.0303638 2.1542969 7.1621094 C 1.9930998 8.293855 2 9.6287598 2 11.380859 L 2 21 A 1 1 0 0 0 1 22 A 1 1 0 0 0 2 23 L 9.5 23 A 1 1 0 0 0 10.5 22 L 10.5 19.5 C 10.5 18.594606 10.55637 18.280014 10.566406 18.25 C 10.610306 18.17397 10.674128 18.110199 10.75 18.066406 L 10.751953 18.066406 C 10.781949 18.056382 11.094606 18 12 18 C 12.905394 18 13.22 18.056379 13.25 18.066406 C 13.32588 18.110206 13.389794 18.174117 13.433594 18.25 L 13.433594 18.251953 C 13.443613 18.281951 13.5 18.594606 13.5 19.5 L 13.5 21.998047 L 13.5 22 A 1 1 0 0 0 14.5 23 L 22 23 A 1 1 0 0 0 23 22 A 1 1 0 0 0 22 21 L 22 11.380859 C 22 9.6287598 22.006905 8.2938579 21.845703 7.1621094 C 21.684501 6.0303608 21.304598 5.0367199 20.533203 4.3085938 C 19.552736 3.3830166 18.233979 3.0984717 16.556641 3.0019531 A 1 1 0 0 0 15.501953 3.9433594 A 1 1 0 0 0 16.443359 4.9980469 C 17.959821 5.0853079 18.674823 5.305509 19.160156 5.7636719 C 19.542062 6.1241557 19.738111 6.5508654 19.865234 7.4433594 C 19.992358 8.3358533 20 9.6287598 20 11.380859 L 20 21 L 15.5 21 L 15.5 19.5 C 15.5 18.5654 15.55885 17.933718 15.164062 17.25 C 14.944921 16.870831 14.629169 16.555075 14.25 16.335938 C 13.566282 15.941145 12.9346 16 12 16 C 11.0654 16 10.433718 15.941145 9.75 16.335938 C 9.3704151 16.555316 9.053153 16.87043 8.8339844 17.25 C 8.4392801 17.933701 8.5 18.5654 8.5 19.5 L 8.5 21 L 4 21 L 4 11.380859 C 4 9.6287598 4.0076452 8.3358563 4.1347656 7.4433594 C 4.261886 6.5508625 4.4579513 6.1241529 4.8398438 5.7636719 C 5.3252595 5.3054687 6.0401995 5.0853081 7.5566406 4.9980469 A 1 1 0 0 0 8.4980469 3.9433594 A 1 1 0 0 0 7.4433594 3.0019531 z M 7 9 A 1 1 0 0 0 6 10 A 1 1 0 0 0 7 11 L 9 11 A 1 1 0 0 0 10 10 A 1 1 0 0 0 9 9 L 7 9 z M 14 9 A 1 1 0 0 0 13 10 A 1 1 0 0 0 14 11 L 16 11 A 1 1 0 0 0 17 10 A 1 1 0 0 0 16 9 L 14 9 z M 7 13 A 1 1 0 0 0 6 14 A 1 1 0 0 0 7 15 L 9 15 A 1 1 0 0 0 10 14 A 1 1 0 0 0 9 13 L 7 13 z M 14 13 A 1 1 0 0 0 13 14 A 1 1 0 0 0 14 15 L 16 15 A 1 1 0 0 0 17 14 A 1 1 0 0 0 16 13 L 14 13 z " fill="currentColor"/>
</svg>
