<svg xmlns="http://www.w3.org/2000/svg" width="1em" height="1em" viewBox="0 0 24 24" fill="currentColor">
  <path d="M 12.5 1 C 7.2918027 1 3 5.048728 3 10.080078 C 3 12.90946 4.265852 15.253823 6.546875 17.15625 C 7.9314974 18.311042 9.7320488 20.367768 10.75 21.939453 C 11.12821 22.523235 11.746288 23 12.486328 23 C 13.226368 23 13.834902 22.537344 14.232422 21.964844 C 15.331039 20.38257 17.084549 18.297674 18.453125 17.15625 C 20.734148 15.253823 22 12.90946 22 10.080078 C 22 5.048725 17.70818 1 12.5 1 z M 12.5 3 C 16.68062 3 20 6.1856914 20 10.080078 C 20 12.354296 19.140852 13.978921 17.171875 15.621094 C 15.544851 16.97807 13.780427 19.109492 12.589844 20.824219 C 12.55098 20.880189 12.518837 20.919936 12.494141 20.947266 C 12.476281 20.92407 12.45433 20.892614 12.427734 20.851562 C 11.266882 19.059248 9.4391426 16.964702 7.828125 15.621094 C 5.859148 13.978921 5 12.354296 5 10.080078 C 5 6.1856884 8.3193573 3 12.5 3 z M 10.5 6 A 1 1 0 0 0 9.5 7 L 9.5 10 L 9.5 13 A 1 1 0 0 0 10.5 14 A 1 1 0 0 0 11.5 13 L 11.5 11 L 13.5 11 L 13.5 13 A 1 1 0 0 0 14.5 14 A 1 1 0 0 0 15.5 13 L 15.5 10 L 15.5 7 A 1 1 0 0 0 14.5 6 A 1 1 0 0 0 13.5 7 L 13.5 9 L 11.5 9 L 11.5 7 A 1 1 0 0 0 10.5 6 z " fill="currentColor"/>
</svg>
