<svg xmlns="http://www.w3.org/2000/svg" width="1em" height="1em" viewBox="0 0 24 24" fill="currentColor">
  <path d="M 12 1 C 7.1133386 1 3 4.4808386 3 8.9335938 C 3 11.831301 4.5539819 14.320838 6.3828125 16.085938 C 7.1066951 16.784594 7.8594298 17.386822 8.6152344 17.859375 C 8.3691292 18.14183 8.1859598 18.480181 8.0859375 18.853516 C 7.9822134 19.240528 8 19.535 8 20 C 8 20.465 7.9822135 20.759472 8.0859375 21.146484 C 8.3166751 22.007716 8.9923347 22.683325 9.8535156 22.914062 C 10.240498 23.017758 10.535 23 11 23 L 13 23 C 13.465 23 13.759503 23.017763 14.146484 22.914062 C 15.007693 22.683332 15.68333 22.007693 15.914062 21.146484 C 16.017758 20.759505 16 20.465 16 20 C 16 19.535 16.017762 19.240497 15.914062 18.853516 C 15.814041 18.480186 15.630872 18.141835 15.384766 17.859375 C 16.14057 17.386823 16.893305 16.784593 17.617188 16.085938 C 19.446022 14.320839 21 11.831304 21 8.9335938 C 21 4.480842 16.886679 1 12 1 z M 12 3 C 12.101979 3 12.240061 3.036219 12.46875 3.2597656 C 12.697439 3.483312 12.96849 3.885461 13.203125 4.4277344 C 13.672395 5.5122811 14 7.1359269 14 8.9335938 C 14 11.330291 13.50225 13.490055 12.914062 15.003906 C 12.619967 15.760832 12.299246 16.358917 12.044922 16.714844 C 12.024732 16.743104 12.01927 16.742508 12 16.767578 C 11.98073 16.742508 11.975268 16.743104 11.955078 16.714844 C 11.700754 16.358917 11.380032 15.760832 11.085938 15.003906 C 10.497744 13.490055 10 11.330291 10 8.9335938 C 10 7.1359269 10.327605 5.5122811 10.796875 4.4277344 C 11.03151 3.885461 11.302561 3.483312 11.53125 3.2597656 C 11.759938 3.03622 11.898021 3.0000002 12 3 z M 8.9863281 3.5742188 C 8.9776294 3.5939257 8.9695322 3.612949 8.9609375 3.6328125 C 8.3444327 5.0576383 8 6.9020904 8 8.9335938 C 8 11.603567 8.5416201 13.975699 9.2226562 15.728516 C 9.2361364 15.76321 9.2500989 15.797829 9.2636719 15.832031 C 8.7591723 15.500961 8.2452713 15.103761 7.7714844 14.646484 C 6.2156999 13.144916 5 11.102557 5 8.9335938 C 5 6.6106215 6.6011751 4.5392051 8.9863281 3.5742188 z M 15.013672 3.5742188 C 17.398833 4.5392023 19 6.6106153 19 8.9335938 C 19 11.102554 17.784306 13.144915 16.228516 14.646484 C 15.75473 15.103758 15.240827 15.500962 14.736328 15.832031 C 14.7499 15.797831 14.763864 15.763208 14.777344 15.728516 C 15.45838 13.975699 16 11.603567 16 8.9335938 C 16 6.9020904 15.655566 5.0576383 15.039062 3.6328125 C 15.030467 3.6129472 15.022371 3.5939275 15.013672 3.5742188 z M 11 19 L 12 19 L 13 19 C 13.465 19 13.634488 19.019068 13.628906 19.017578 C 13.803098 19.064248 13.935753 19.196902 13.982422 19.371094 C 13.980926 19.36551 14 19.535 14 20 C 14 20.465 13.980932 20.634488 13.982422 20.628906 C 13.935752 20.803098 13.803098 20.935753 13.628906 20.982422 C 13.63449 20.980926 13.465 21 13 21 L 11 21 C 10.535 21 10.365512 20.980932 10.371094 20.982422 C 10.196935 20.935762 10.064241 20.803074 10.017578 20.628906 C 10.019082 20.63452 10 20.465 10 20 C 10 19.535 10.019078 19.365482 10.017578 19.371094 C 10.064238 19.196926 10.196935 19.064241 10.371094 19.017578 C 10.36551 19.019074 10.535 19 11 19 z " fill="currentColor"/>
</svg>
