<svg xmlns="http://www.w3.org/2000/svg" width="1em" height="1em" viewBox="0 0 24 24" fill="currentColor">
  <path d="M 2 1 A 1 1 0 0 0 1.2929688 1.2929688 A 1 1 0 0 0 1.2929688 2.7070312 L 4.5214844 5.9355469 C 2.3563533 7.9450983 1 10.81924 1 14 C 1 16.471941 1.8202454 18.763545 3.2011719 20.601562 A 1 1 0 0 0 4.6015625 20.800781 A 1 1 0 0 0 4.7988281 19.400391 C 3.6681146 17.895408 3 16.031259 3 14 C 3 11.359737 4.13149 8.9949414 5.9355469 7.3496094 L 7.3359375 8.75 C 5.9014689 10.035644 5 11.916787 5 14 C 5 15.782912 5.6611195 17.421758 6.75 18.660156 A 1 1 0 0 0 8.1621094 18.751953 A 1 1 0 0 0 8.2519531 17.339844 C 7.4741533 16.455239 7 15.290488 7 14 C 7 12.452032 7.6835853 11.080263 8.7519531 10.166016 L 10.195312 11.609375 C 9.4708302 12.159307 9 13.029556 9 14 C 9 15.645007 10.354993 17 12 17 C 12.970444 17 13.840693 16.52917 14.390625 15.804688 L 15.712891 17.126953 C 15.655986 17.199402 15.597798 17.270827 15.537109 17.339844 A 1 1 0 0 0 15.626953 18.75 A 1 1 0 0 0 17.039062 18.660156 C 17.071374 18.62341 17.10323 18.586258 17.134766 18.548828 L 21.292969 22.707031 A 1 1 0 0 0 22.707031 22.707031 A 1 1 0 0 0 22.707031 21.292969 L 17.703125 16.289062 L 14.716797 13.302734 A 1 1 0 0 0 14.697266 13.283203 L 12.716797 11.302734 A 1 1 0 0 0 12.697266 11.283203 L 6.7167969 5.3027344 A 1 1 0 0 0 6.6972656 5.2832031 L 2.7070312 1.2929688 A 1 1 0 0 0 2 1 z M 12 3 C 10.648204 3 9.3494667 3.2452937 8.1503906 3.6933594 A 1 1 0 0 0 7.5625 4.9804688 A 1 1 0 0 0 8.8496094 5.5664062 C 9.8292133 5.2003519 10.889196 5 12 5 C 16.982356 5 21 9.0175956 21 14 C 21 15.110831 20.79966 16.170888 20.433594 17.150391 A 1 1 0 0 0 21.019531 18.4375 A 1 1 0 0 0 22.306641 17.849609 C 22.754775 16.650512 23 15.351769 23 14 C 23 7.9367044 18.063244 3 12 3 z M 12 7 A 1 1 0 0 0 11 8 A 1 1 0 0 0 12 9 C 14.773257 9 17 11.226743 17 14 A 1 1 0 0 0 18 15 A 1 1 0 0 0 19 14 C 19 10.145857 15.854143 7 12 7 z M 11.646484 13.060547 L 12.939453 14.353516 C 12.80078 14.736487 12.439059 15 12 15 C 11.435807 15 11 14.564193 11 14 C 11 13.560941 11.263513 13.19922 11.646484 13.060547 z " fill="currentColor"/>
</svg>
