<svg xmlns="http://www.w3.org/2000/svg" width="1em" height="1em" viewBox="0 0 24 24" fill="currentColor">
  <path d="M 2 1 A 1 1 0 0 0 1.2929688 1.2929688 A 1 1 0 0 0 1.2929688 2.7070312 L 10.488281 11.902344 L 6.4511719 15.005859 C 5.2214187 15.951843 4.5 17.417206 4.5 18.96875 L 4.5 20 L 4 20 A 1 1 0 0 0 3 21 A 1 1 0 0 0 4 22 L 20.585938 22 L 21.292969 22.707031 A 1 1 0 0 0 22.707031 22.707031 A 1 1 0 0 0 22.707031 21.292969 L 21.716797 20.302734 A 1 1 0 0 0 21.697266 20.283203 L 12.720703 11.306641 A 1 1 0 0 0 12.693359 11.279297 L 2.7070312 1.2929688 A 1 1 0 0 0 2 1 z M 7 2 A 1 1 0 0 0 6 3 A 1 1 0 0 0 7 4 L 17.5 4 L 17.5 5.03125 C 17.5 5.9634919 17.069033 6.8398067 16.330078 7.4082031 A 1.0001 1.0001 0 0 0 16.328125 7.4082031 L 13.650391 9.46875 A 1 1 0 0 0 13.46875 10.871094 A 1 1 0 0 0 14.871094 11.052734 L 17.548828 8.9941406 C 18.778673 8.048157 19.5 6.5827681 19.5 5.03125 L 19.5 4 L 20 4 A 1 1 0 0 0 21 3 A 1 1 0 0 0 20 2 L 18.5 2 L 7 2 z M 11.914062 13.328125 L 18.585938 20 L 6.5 20 L 6.5 18.96875 C 6.5 18.036494 6.930995 17.160214 7.6699219 16.591797 L 11.914062 13.328125 z " fill="currentColor"/>
</svg>
