<svg xmlns="http://www.w3.org/2000/svg" width="1em" height="1em" viewBox="0 0 24 24" fill="currentColor">
  <path d="M 12.964844 1 A 1 1 0 0 0 12.585938 1.0898438 L 1.5859375 6.0898438 A 1 1 0 0 0 1.0898438 7.4140625 A 1 1 0 0 0 2 8 L 2 18 C 2 18.9428 1.9935802 19.670214 2.0820312 20.328125 C 2.1704863 20.986036 2.3963405 21.63852 2.8789062 22.121094 C 3.3614738 22.603678 4.0139596 22.829512 4.671875 22.917969 C 5.3297907 23.006425 6.05719 23 7 23 L 12 23 L 16.5 23 L 17 23 C 17.9428 23 18.670212 23.006399 19.328125 22.917969 C 19.986038 22.829509 20.638521 22.603666 21.121094 22.121094 C 21.603666 21.638521 21.829512 20.986038 21.917969 20.328125 C 22.006425 19.670211 22 18.9428 22 18 L 22 13 A 1 1 0 0 0 22.894531 12.447266 A 1 1 0 0 0 22.447266 11.105469 L 19 9.3828125 L 19 7 A 1 1 0 0 0 18 6 A 1 1 0 0 0 17 7 L 17 8.3828125 L 13 6.3828125 L 13 3.0976562 L 13.414062 2.9101562 A 1 1 0 0 0 13.910156 1.5859375 A 1 1 0 0 0 12.964844 1 z M 11 4.0078125 L 11 6.9824219 A 1 1 0 0 0 11 7.0175781 L 11 21 L 7 21 C 6.05719 21 5.3707927 20.99354 4.9394531 20.935547 C 4.5081136 20.877553 4.3961812 20.810247 4.2929688 20.707031 C 4.1897445 20.603805 4.1224458 20.491886 4.0644531 20.060547 C 4.0064604 19.629208 4 18.9428 4 18 L 4 7.1894531 L 11 4.0078125 z M 13 8.6171875 L 20 12.117188 L 20 18 C 20 18.9428 19.993497 19.62921 19.935547 20.060547 C 19.877557 20.491884 19.810259 20.603804 19.707031 20.707031 C 19.603804 20.810259 19.491884 20.877553 19.060547 20.935547 C 18.709524 20.982741 18.189581 20.99677 17.5 21 L 17.5 18 A 1 1 0 0 0 16.5 17 A 1 1 0 0 0 15.5 18 L 15.5 21 L 13 21 L 13 8.6171875 z M 7 10 A 1 1 0 0 0 6 11 A 1 1 0 0 0 7 12 L 8 12 A 1 1 0 0 0 9 11 A 1 1 0 0 0 8 10 L 7 10 z M 16 13 A 1 1 0 0 0 15 14 A 1 1 0 0 0 16 15 L 17 15 A 1 1 0 0 0 18 14 A 1 1 0 0 0 17 13 L 16 13 z M 7 14 A 1 1 0 0 0 6 15 A 1 1 0 0 0 7 16 L 8 16 A 1 1 0 0 0 9 15 A 1 1 0 0 0 8 14 L 7 14 z " fill="currentColor"/>
</svg>
