<svg xmlns="http://www.w3.org/2000/svg" width="1em" height="1em" viewBox="0 0 24 24" fill="currentColor">
  <path d="M 8.2324219 2 C 7.1504719 2 6.3181159 1.993313 5.5800781 2.0996094 C 4.8420403 2.2059058 4.1140116 2.4829176 3.625 3.0664062 C 3.1359925 3.6498981 2.9878141 4.410582 3.0019531 5.1621094 C 3.0160922 5.9136368 3.1538919 6.744663 3.3261719 7.8300781 L 4.7011719 16.492188 C 4.8589185 17.486007 5.0700326 18.291436 5.6015625 18.960938 C 6.1330924 19.63044 6.8756107 20.018228 7.8183594 20.386719 L 10.710938 21.519531 C 11.414898 21.794616 11.882595 22 12.5 22 C 13.117405 22 13.585101 21.794616 14.289062 21.519531 L 17.181641 20.386719 C 18.124386 20.018227 18.866918 19.630443 19.398438 18.960938 C 19.929958 18.291434 20.141082 17.486002 20.298828 16.492188 L 21.673828 7.8300781 C 21.846128 6.744663 21.983896 5.9136389 21.998047 5.1621094 C 22.012198 4.4105799 21.864011 3.6499023 21.375 3.0664062 C 20.88598 2.482907 20.157969 2.205905 19.419922 2.0996094 C 18.681875 1.9933138 17.849528 2 16.767578 2 L 8.2324219 2 z M 8.2324219 4 L 16.767578 4 C 17.849528 4 18.642313 4.0072 19.134766 4.078125 C 19.627218 4.149049 19.736717 4.2261816 19.841797 4.3515625 C 19.946886 4.4769563 20.009624 4.6138895 20 5.125 C 19.9904 5.6361105 19.869566 6.4321632 19.697266 7.5175781 L 18.324219 16.177734 C 18.185065 17.05442 18.031237 17.465877 17.832031 17.716797 C 17.632826 17.967717 17.278133 18.203682 16.455078 18.525391 L 13.560547 19.65625 C 12.856509 19.931365 12.619395 20 12.5 20 C 12.380605 20 12.143491 19.931365 11.439453 19.65625 L 8.5449219 18.525391 C 7.7218605 18.203682 7.3671815 17.96772 7.1679688 17.716797 C 6.9687561 17.465874 6.8149346 17.054415 6.6757812 16.177734 L 5.3027344 7.5175781 C 5.1304544 6.4321632 5.0096159 5.6361126 5 5.125 C 4.9903841 4.6138874 5.0531107 4.4769606 5.1582031 4.3515625 C 5.2632915 4.226171 5.3727972 4.1490486 5.8652344 4.078125 C 6.3576716 4.0072014 7.1504719 4 8.2324219 4 z M 10.527344 7 C 10.00396 7 9.4146174 6.9915489 8.9179688 7.5253906 C 8.4213199 8.0592323 8.4741623 8.6568766 8.5214844 9.1816406 L 8.703125 11.189453 C 8.743752 11.639999 8.802294 12.163328 9.2714844 12.585938 C 9.7406748 13.008546 10.257715 13.013672 10.707031 13.013672 L 13.863281 13.013672 C 13.868043 13.013672 13.872319 13.013641 13.876953 13.013672 C 13.876814 13.014954 13.877096 13.016287 13.876953 13.017578 L 13.707031 14.552734 L 13.707031 14.554688 C 13.705166 14.55532 13.703066 14.556004 13.701172 14.556641 L 12.466797 14.970703 C 12.46415 14.971592 12.461536 14.97181 12.458984 14.972656 C 12.456427 14.971808 12.453825 14.971594 12.451172 14.970703 L 11.111328 14.521484 A 1 1 0 0 0 10.025391 13.828125 A 1 1 0 0 0 9.2167969 14.988281 C 9.2647189 15.256601 9.36052 15.58919 9.6074219 15.876953 C 9.8543237 16.164716 10.172563 16.313931 10.441406 16.404297 L 11.814453 16.867188 C 11.977584 16.921976 12.156953 17 12.458984 17 C 12.761015 17 12.940373 16.921971 13.103516 16.867188 L 14.337891 16.451172 C 14.643346 16.348548 14.992948 16.28994 15.333984 15.869141 C 15.675021 15.448341 15.660333 15.089325 15.695312 14.771484 L 15.865234 13.236328 C 15.923944 12.703808 15.989287 12.097753 15.490234 11.550781 C 14.991182 11.003809 14.395469 11.013672 13.863281 11.013672 L 10.707031 11.013672 C 10.703192 11.013672 10.699045 11.013692 10.695312 11.013672 C 10.695194 11.012388 10.695429 11.011062 10.695312 11.009766 L 10.513672 9.0039062 C 10.513555 9.0026144 10.513785 9.0012819 10.513672 9 C 10.51828 8.9999698 10.522607 9 10.527344 9 L 15.5 9 A 1 1 0 0 0 16.5 8 A 1 1 0 0 0 15.5 7 L 10.527344 7 z " fill="currentColor"/>
</svg>
