<svg xmlns="http://www.w3.org/2000/svg" width="1em" height="1em" viewBox="0 0 24 24" fill="currentColor">
  <path d="M 10.087891 1.9941406 C 9.8437605 1.9864471 9.599694 2.0104315 9.34375 2.0742188 C 8.964844 2.1686659 8.606941 2.3348775 8.2910156 2.5644531 C 7.4374539 3.1846994 7.1871104 4.077021 6.6933594 5.4335938 C 6.1996086 6.7901558 5.8190346 7.6324518 6.0742188 8.65625 C 6.1686678 9.035162 6.3349231 9.3930864 6.5644531 9.7089844 C 7.1847082 10.562558 8.0770373 10.812892 9.4335938 11.306641 C 10.790229 11.80045 11.632586 12.180809 12.65625 11.925781 C 13.035178 11.831311 13.393109 11.665044 13.708984 11.435547 C 14.562471 10.815306 14.812932 9.9249427 15.306641 8.5683594 C 15.80044 7.2117901 16.181029 6.3675977 15.925781 5.34375 C 15.831313 4.9648337 15.664934 4.6068249 15.435547 4.2910156 C 14.81529 3.4374221 13.923004 3.1890618 12.566406 2.6953125 C 11.548966 2.3250035 10.820281 2.0172213 10.087891 1.9941406 z M 9.9121094 4.0058594 C 10.154064 4.0027356 10.695776 4.1421834 11.882812 4.5742188 C 13.239415 5.0679695 13.705216 5.3110904 13.818359 5.4667969 C 13.896969 5.5750276 13.953996 5.6984413 13.986328 5.828125 C 14.032878 6.0148573 13.919578 6.5262418 13.425781 7.8828125 C 12.93209 9.2393491 12.688917 9.7052002 12.533203 9.8183594 C 12.424879 9.8970619 12.3035 9.9539994 12.173828 9.9863281 C 11.986893 10.0329 11.473771 9.9215252 10.117188 9.4277344 C 8.7606235 8.9339831 8.2947856 8.6889093 8.1816406 8.5332031 C 8.1030506 8.4250411 8.0460032 8.3035361 8.0136719 8.1738281 C 7.9671161 7.9870464 8.0804695 7.4737455 8.5742188 6.1171875 C 9.0679676 4.7606203 9.3110786 4.2947943 9.4667969 4.1816406 C 9.5749115 4.1030763 9.6964579 4.0479579 9.8261719 4.015625 C 9.8495299 4.0098036 9.8775444 4.0063056 9.9121094 4.0058594 z M 16.75 10.681641 C 16.565699 10.681641 16.381397 10.698792 16.199219 10.732422 C 15.146129 10.926612 14.532294 11.641534 13.496094 12.677734 C 12.459916 13.713912 11.744954 14.327697 11.550781 15.380859 C 11.483521 15.745169 11.483551 16.118106 11.550781 16.482422 C 11.744972 17.535512 12.459894 18.149347 13.496094 19.185547 C 14.532316 20.22177 15.146352 20.936541 16.199219 21.130859 C 16.563336 21.197929 16.936664 21.197929 17.300781 21.130859 C 18.353648 20.936541 18.967684 20.22177 20.003906 19.185547 C 21.040106 18.149347 21.755028 17.535512 21.949219 16.482422 C 22.016449 16.118106 22.016469 15.745169 21.949219 15.380859 C 21.755046 14.327697 21.040084 13.713912 20.003906 12.677734 C 18.967706 11.641534 18.353871 10.926612 17.300781 10.732422 C 17.118603 10.698792 16.934301 10.681641 16.75 10.681641 z M 16.75 12.681641 C 16.812689 12.681641 16.875379 12.687749 16.9375 12.699219 C 17.13061 12.734829 17.553644 13.055597 18.589844 14.091797 C 19.626066 15.12802 19.946794 15.550903 19.982422 15.744141 C 20.005362 15.868431 20.005392 15.994656 19.982422 16.119141 C 19.946812 16.312251 19.626044 16.735284 18.589844 17.771484 C 17.553666 18.807662 17.130833 19.128382 16.9375 19.164062 C 16.813017 19.186992 16.686983 19.186993 16.5625 19.164062 C 16.369167 19.128383 15.946334 18.807662 14.910156 17.771484 C 13.873956 16.735284 13.553188 16.312251 13.517578 16.119141 C 13.494608 15.994656 13.494638 15.868431 13.517578 15.744141 C 13.553208 15.550903 13.873934 15.12802 14.910156 14.091797 C 15.946356 13.055597 16.36939 12.734828 16.5625 12.699219 C 16.624621 12.687749 16.687311 12.681641 16.75 12.681641 z M 6.5 13 C 5.09554 13 4.194882 12.930733 3.3339844 13.505859 C 3.0066078 13.72473 2.7247025 14.004636 2.5058594 14.332031 C 1.9306866 15.19293 2 16.0955 2 17.5 C 2 18.9044 1.930555 19.80509 2.5058594 20.666016 C 2.7247339 20.993607 3.0063879 21.275273 3.3339844 21.494141 C 4.1948898 22.069443 5.09554 22 6.5 22 C 7.90446 22 8.8051102 22.069443 9.6660156 21.494141 C 9.9936121 21.275273 10.275266 20.993607 10.494141 20.666016 C 11.069445 19.80509 11 18.9044 11 17.5 C 11 16.0955 11.069313 15.19293 10.494141 14.332031 C 10.275297 14.004636 9.9933922 13.72473 9.6660156 13.505859 C 8.805118 12.930733 7.90446 13 6.5 13 z M 6.5 15 C 7.90446 15 8.4066851 15.0691 8.5546875 15.167969 C 8.6640709 15.241099 8.7590344 15.334154 8.8320312 15.443359 C 8.9309784 15.59146 9 16.0955 9 17.5 C 9 18.9044 8.9308469 19.406813 8.8320312 19.554688 C 8.7590653 19.663896 8.663851 19.757146 8.5546875 19.830078 A 1.0001 1.0001 0 0 0 8.5546875 19.832031 C 8.406693 19.930882 7.90446 20 6.5 20 C 5.09554 20 4.593307 19.930929 4.4453125 19.832031 A 1.0001 1.0001 0 0 0 4.4453125 19.830078 C 4.336149 19.757193 4.2409342 19.663896 4.1679688 19.554688 C 4.0691534 19.406813 4 18.9044 4 17.5 C 4 16.0955 4.0690215 15.59146 4.1679688 15.443359 C 4.2409656 15.334154 4.3359291 15.241098 4.4453125 15.167969 C 4.5933149 15.069095 5.09554 15 6.5 15 z " fill="currentColor"/>
</svg>
