<svg xmlns="http://www.w3.org/2000/svg" width="1em" height="1em" viewBox="0 0 24 24" fill="currentColor">
  <path d="M 12 1 C 11.5296 1 11.234772 0.9876611 10.867188 1.0722656 C 10.134977 1.2408008 9.4919657 1.6940901 9.1289062 2.3613281 C 9.0085452 2.5826346 8.945758 2.7810972 8.890625 3.0058594 C 7.838051 3.0166274 6.9716873 3.0515639 6.2011719 3.1796875 C 5.2877855 3.3315681 4.4695588 3.6476684 3.8378906 4.2460938 C 3.1308749 4.9158943 2.7837317 5.8313582 2.6386719 6.8535156 C 2.493612 7.8756731 2.5 9.069712 2.5 10.632812 L 2.5 15.369141 C 2.5 16.932241 2.49361 18.126295 2.6386719 19.148438 C 2.7837323 20.170582 3.1308933 21.086056 3.8378906 21.755859 C 4.5448991 22.42568 5.472485 22.735986 6.5332031 22.871094 C 7.5939213 23.006202 8.850085 23 10.5 23 L 13.5 23 C 15.1499 23 16.406079 23.0062 17.466797 22.871094 C 18.527515 22.735986 19.455072 22.425655 20.162109 21.755859 C 20.869089 21.086053 21.216272 20.170579 21.361328 19.148438 C 21.506384 18.126297 21.5 16.932241 21.5 15.369141 L 21.5 10.632812 C 21.5 9.069712 21.5064 7.8756698 21.361328 6.8535156 C 21.216273 5.8313615 20.869108 4.9158973 20.162109 4.2460938 C 19.530434 3.6476743 18.712217 3.3315679 17.798828 3.1796875 C 17.028277 3.0515585 16.162013 3.0166258 15.109375 3.0058594 C 15.054252 2.781867 14.991304 2.584359 14.871094 2.3632812 A 1.0001 1.0001 0 0 0 14.871094 2.3613281 C 14.508033 1.6940682 13.865009 1.2407978 13.132812 1.0722656 C 12.765226 0.98766111 12.4704 1 12 1 z M 12 3 C 12.4704 3 12.64538 3.0126894 12.683594 3.0214844 C 12.896598 3.0705124 13.046942 3.1964361 13.113281 3.3183594 C 13.111381 3.3148794 13.158021 3.4426879 13.253906 3.8574219 L 13.335938 4.2167969 C 13.417339 4.5686518 13.473855 4.8230278 13.492188 4.9570312 C 13.42333 4.9550574 13.12615 5 12.498047 5 L 11.501953 5 C 10.873861 5 10.576678 4.9550563 10.507812 4.9570312 C 10.526147 4.8230086 10.582677 4.5686463 10.664062 4.2167969 L 10.746094 3.8574219 C 10.842034 3.4426285 10.888664 3.3147821 10.886719 3.3183594 C 10.953059 3.1964374 11.103415 3.0705092 11.316406 3.0214844 C 11.354631 3.0126893 11.5296 3 12 3 z M 8.5019531 5.0136719 C 8.4978682 5.2596651 8.5315419 5.5290225 8.6503906 5.7910156 C 8.8213727 6.1679454 9.1051068 6.4745851 9.4492188 6.6835938 C 10.105437 7.0821194 10.667653 7 11.501953 7 L 12.498047 7 C 13.332347 7 13.894569 7.082102 14.550781 6.6835938 C 14.894775 6.4746109 15.178603 6.1681342 15.349609 5.7910156 L 15.347656 5.7910156 C 15.466553 5.5289975 15.50158 5.2596638 15.498047 5.0136719 C 16.320917 5.0308952 16.973721 5.0697046 17.470703 5.1523438 C 18.154689 5.2660785 18.502885 5.428005 18.787109 5.6972656 C 19.105211 5.9986321 19.26964 6.3510373 19.380859 7.1347656 C 19.492079 7.918494 19.5 9.069712 19.5 10.632812 L 19.5 15.369141 C 19.5 16.932241 19.4921 18.083479 19.380859 18.867188 C 19.26964 19.650897 19.105229 20.001341 18.787109 20.302734 C 18.468947 20.604139 18.060326 20.779026 17.214844 20.886719 C 16.369362 20.994411 15.1499 21 13.5 21 L 10.5 21 C 8.850085 21 7.6306356 20.994411 6.7851562 20.886719 C 5.9396769 20.779027 5.5310022 20.604114 5.2128906 20.302734 C 4.8947579 20.001338 4.7303627 19.650894 4.6191406 18.867188 C 4.5079186 18.083481 4.5 16.932241 4.5 15.369141 L 4.5 10.632812 C 4.5 9.069712 4.50792 7.9184907 4.6191406 7.1347656 C 4.7303633 6.3510406 4.8947764 5.9986352 5.2128906 5.6972656 C 5.4971025 5.428011 5.8453157 5.2660782 6.5292969 5.1523438 C 7.0261914 5.0697187 7.6792778 5.0308997 8.5019531 5.0136719 z M 11.994141 9 C 10.36366 9 9.046875 10.369237 9.046875 12 C 9.046875 13.630763 10.36366 15 11.994141 15 C 13.624621 15 14.941406 13.630763 14.941406 12 C 14.941406 10.369237 13.624621 9 11.994141 9 z M 11.994141 11 C 12.51446 11 12.941406 11.421563 12.941406 12 C 12.941406 12.578437 12.51446 13 11.994141 13 C 11.473821 13 11.046875 12.578437 11.046875 12 C 11.046875 11.421563 11.473821 11 11.994141 11 z M 11.996094 15.488281 C 10.435237 15.499471 8.8780967 16.123942 7.7675781 17.320312 A 1 1 0 0 0 7.8203125 18.732422 A 1 1 0 0 0 9.2324219 18.679688 C 10.638385 17.165032 13.337325 17.08483 14.755859 18.667969 A 1 1 0 0 0 16.167969 18.744141 A 1 1 0 0 0 16.244141 17.332031 C 15.120408 16.077901 13.556951 15.47709 11.996094 15.488281 z " fill="currentColor"/>
</svg>
