<svg xmlns="http://www.w3.org/2000/svg" width="1em" height="1em" viewBox="0 0 24 24" fill="currentColor">
  <path d="M 9.3339844 4.0097656 C 8.8870568 4.0080177 8.4417828 4.1806228 8.1210938 4.4179688 C 7.6935082 4.7344301 7.3662645 5.1448154 7.015625 5.65625 C 6.314346 6.6791192 5.5499207 8.1402698 4.5253906 10.078125 L 2.4511719 14 C 1.9187897 15.006954 1.5051417 15.772196 1.2460938 16.486328 C 0.98704586 17.20046 0.87809239 18.00386 1.2441406 18.707031 C 1.6101863 19.410204 2.38591 19.776362 3.1074219 19.894531 C 3.8289338 20.012701 4.6387375 20.001953 5.6953125 20.001953 L 7.7695312 20.001953 C 8.4136263 20.001953 8.9196569 20.009157 9.4160156 19.935547 C 9.9123744 19.861907 10.46243 19.651003 10.841797 19.232422 C 11.221216 18.813848 11.382715 18.275411 11.445312 17.761719 C 11.507912 17.248027 11.501953 16.696978 11.501953 15.986328 L 11.501953 12.064453 C 11.501953 9.8209982 11.506653 8.1339634 11.369141 6.8710938 C 11.300392 6.239663 11.205825 5.7102383 10.992188 5.2246094 C 10.778548 4.7389804 10.355637 4.2467119 9.7773438 4.0742188 C 9.6327703 4.0310951 9.4829602 4.0103483 9.3339844 4.0097656 z M 14.667969 4.0097656 C 14.518994 4.0103478 14.369182 4.0310975 14.224609 4.0742188 C 13.646317 4.2467271 13.223382 4.7389879 13.009766 5.2246094 C 12.796149 5.7102309 12.70155 6.2396635 12.632812 6.8710938 C 12.495335 8.1339545 12.5 9.8209982 12.5 12.064453 L 12.5 15.986328 C 12.5 16.696978 12.494001 17.248027 12.556641 17.761719 C 12.619241 18.275411 12.780737 18.813848 13.160156 19.232422 C 13.539516 19.651026 14.089577 19.861908 14.585938 19.935547 C 15.082297 20.009187 15.588322 20.001953 16.232422 20.001953 L 18.306641 20.001953 C 19.363191 20.001953 20.173022 20.012703 20.894531 19.894531 C 21.61604 19.776362 22.391771 19.410215 22.757812 18.707031 C 23.123855 18.003849 23.014953 17.200452 22.755859 16.486328 C 22.496861 15.772201 22.08313 15.006947 21.550781 14 L 19.476562 10.078125 C 18.452014 8.1402728 17.687612 6.67912 16.986328 5.65625 C 16.635686 5.144815 16.308453 4.7344303 15.880859 4.4179688 C 15.560165 4.1806226 15.114894 4.008019 14.667969 4.0097656 z M 9.1894531 6.1679688 C 9.2549021 6.3538597 9.3309281 6.6273133 9.3808594 7.0859375 C 9.4958159 8.1418254 9.5019531 9.8209982 9.5019531 12.064453 L 9.5019531 15.986328 C 9.5019531 16.696978 9.4964334 17.212173 9.4589844 17.519531 C 9.4215314 17.826889 9.3821091 17.865746 9.3613281 17.888672 C 9.3404651 17.911692 9.368888 17.920271 9.1210938 17.957031 C 8.8733025 17.993791 8.4136262 18.001953 7.7695312 18.001953 L 5.6953125 18.001953 C 4.6387375 18.001953 3.8632306 17.990922 3.4296875 17.919922 C 2.9961444 17.848916 3.0473955 17.83673 3.0195312 17.783203 C 2.9916664 17.729675 2.9521036 17.65194 3.1269531 17.169922 C 3.3018027 16.687904 3.6863722 15.942493 4.21875 14.935547 L 6.2929688 11.011719 C 7.3174987 9.0738636 8.0903271 7.6267952 8.6660156 6.7871094 C 8.8998973 6.445975 9.0600153 6.2887899 9.1894531 6.1679688 z M 14.8125 6.1679688 C 14.941939 6.2887892 15.102054 6.4459753 15.335938 6.7871094 C 15.911629 7.6267943 16.684433 9.0738607 17.708984 11.011719 L 19.783203 14.935547 C 20.315555 15.9425 20.700146 16.687895 20.875 17.169922 C 21.049854 17.651948 21.010281 17.729685 20.982422 17.783203 C 20.954562 17.836723 21.005802 17.848913 20.572266 17.919922 C 20.138725 17.990932 19.363191 18.001953 18.306641 18.001953 L 16.232422 18.001953 C 15.588322 18.001953 15.128649 17.993751 14.880859 17.957031 C 14.633069 17.920271 14.661465 17.911672 14.640625 17.888672 C 14.619845 17.865742 14.580429 17.826892 14.542969 17.519531 C 14.505519 17.212173 14.5 16.696978 14.5 15.986328 L 14.5 12.064453 C 14.5 9.8209982 14.5061 8.1418343 14.621094 7.0859375 C 14.671024 6.6273094 14.747054 6.3538664 14.8125 6.1679688 z " fill="currentColor"/>
</svg>
