<svg xmlns="http://www.w3.org/2000/svg" width="1em" height="1em" viewBox="0 0 24 24" fill="currentColor">
  <path d="M 4 1 A 1 1 0 0 0 3 2 L 3 3 L 2 3 A 1 1 0 0 0 1 4 A 1 1 0 0 0 2 5 L 3 5 L 3 14 C 3 15.4142 2.99407 16.495558 3.1191406 17.425781 C 3.2442065 18.356004 3.5428648 19.199101 4.171875 19.828125 C 4.4511032 20.10736 4.7725034 20.321636 5.125 20.484375 A 1 1 0 0 0 5.28125 20.695312 A 1 1 0 0 0 6.4941406 20.869141 C 6.5208527 20.873045 6.5473583 20.877248 6.5742188 20.880859 C 7.5044479 21.005928 8.585785 21 10 21 L 19 21 L 19 22 A 1 1 0 0 0 20 23 A 1 1 0 0 0 21 22 L 21 21 L 22 21 A 1 1 0 0 0 23 20 A 1 1 0 0 0 22 19 L 21 19 L 21 10 C 21 8.585785 21.005928 7.5044478 20.880859 6.5742188 C 20.75579 5.6439897 20.457155 4.8008908 19.828125 4.171875 C 19.199101 3.5428648 18.356004 3.2442065 17.425781 3.1191406 C 16.495558 2.9940747 15.4142 3 14 3 L 5 3 L 5 2 A 1 1 0 0 0 4 1 z M 5 5 L 14 5 C 15.4142 5 16.454551 5.00696 17.158203 5.1015625 C 17.861855 5.1961665 18.164388 5.3362677 18.414062 5.5859375 C 18.663732 5.8356017 18.803832 6.1381434 18.898438 6.8417969 C 18.993043 7.5454503 19 8.585785 19 10 L 19 13.666016 C 17.866754 13.223 16.771406 13.027765 15.728516 13.027344 C 14.232314 13.026738 12.842941 13.428047 11.601562 14.076172 C 9.4021472 15.224489 7.5835028 17.043448 5.9335938 18.666016 C 5.7939264 18.596985 5.6860985 18.514226 5.5859375 18.414062 C 5.3362677 18.164388 5.1961666 17.861855 5.1015625 17.158203 C 5.0069584 16.454551 5 15.4142 5 14 L 5 5 z M 8.5 6 C 7.1311328 6 6 7.1311328 6 8.5 C 6 9.8688672 7.1311328 11 8.5 11 C 9.8688672 11 11 9.8688672 11 8.5 C 11 7.1311328 9.8688672 6 8.5 6 z M 8.5 8 C 8.787987 8 9 8.212013 9 8.5 C 9 8.787987 8.787987 9 8.5 9 C 8.212013 9 8 8.787987 8 8.5 C 8 8.212013 8.212013 8 8.5 8 z M 15.517578 14.976562 C 16.571361 14.938264 17.707121 15.191639 19 15.851562 L 19 19 L 10 19 C 9.432469 19 8.9260742 18.999643 8.4765625 18.992188 C 9.7816233 17.749499 11.121539 16.581629 12.527344 15.847656 C 13.491987 15.344015 14.463795 15.014861 15.517578 14.976562 z " fill="currentColor"/>
</svg>
