<svg xmlns="http://www.w3.org/2000/svg" width="1em" height="1em" viewBox="0 0 24 24" fill="currentColor">
  <path d="M 12 1.5 C 9.76083 1.5 8.061073 1.4944581 6.6542969 1.6835938 C 5.2475207 1.8727295 4.0688969 2.2982969 3.1835938 3.1835938 C 2.2982969 4.0688968 1.8727295 5.2475207 1.6835938 6.6542969 C 1.494458 8.061073 1.5 9.76083 1.5 12 C 1.5 14.23915 1.4944601 15.93892 1.6835938 17.345703 C 1.8727292 18.752486 2.2983047 19.931079 3.1835938 20.816406 C 3.4802354 21.113037 3.8098681 21.358738 4.1699219 21.560547 A 1 1 0 0 0 4.3574219 21.767578 A 1 1 0 0 0 5.1601562 21.988281 C 5.6231784 22.13939 6.1225647 22.244919 6.6542969 22.316406 C 8.0610699 22.505536 9.76083 22.5 12 22.5 C 14.23915 22.5 15.938923 22.5055 17.345703 22.316406 C 18.752483 22.127277 19.931076 21.701673 20.816406 20.816406 C 21.701673 19.931076 22.127277 18.752483 22.316406 17.345703 C 22.438923 16.434404 22.421985 15.106987 22.435547 13.882812 A 1 1 0 0 0 22.457031 13.265625 C 22.459067 12.792697 22.5 12.530124 22.5 12 C 22.5 9.76083 22.5055 8.0610699 22.316406 6.6542969 C 22.127276 5.2475238 21.70168 4.0688995 20.816406 3.1835938 C 19.931079 2.2983046 18.752486 1.8727291 17.345703 1.6835938 C 15.93892 1.4944584 14.23915 1.5 12 1.5 z M 12 3.5 C 14.23915 3.5 15.897908 3.50539 17.078125 3.6640625 C 18.258342 3.8227371 18.896371 4.0917053 19.402344 4.5976562 C 19.90827 5.1036005 20.177267 5.7416656 20.335938 6.921875 C 20.491309 8.0775403 20.499718 9.6923211 20.5 11.861328 C 19.101296 11.234523 17.744488 10.994345 16.455078 11.052734 C 14.697452 11.132324 13.065764 11.767005 11.623047 12.734375 C 9.0069521 14.488518 6.8394742 17.201439 4.84375 19.621094 C 4.7575651 19.553655 4.675986 19.480671 4.5976562 19.402344 C 4.0917053 18.896371 3.8227371 18.258342 3.6640625 17.078125 C 3.5053879 15.897908 3.5 14.23915 3.5 12 C 3.5 9.76083 3.5053882 8.1020814 3.6640625 6.921875 C 3.8227368 5.7416686 4.091713 5.1036031 4.5976562 4.5976562 C 5.1036031 4.0917131 5.7416686 3.8227368 6.921875 3.6640625 C 8.1020814 3.5053882 9.76083 3.5 12 3.5 z M 7.5 5 C 6.1311328 5 5 6.1311328 5 7.5 C 5 8.8688672 6.1311328 10 7.5 10 C 8.8688672 10 10 8.8688672 10 7.5 C 10 6.1311328 8.8688672 5 7.5 5 z M 7.5 7 C 7.787987 7 8 7.212013 8 7.5 C 8 7.787987 7.787987 8 7.5 8 C 7.212013 8 7 7.787987 7 7.5 C 7 7.212013 7.212013 7 7.5 7 z M 16.808594 12.957031 C 17.931169 12.960316 19.135888 13.303113 20.492188 14.097656 C 20.478377 15.317609 20.440336 16.301553 20.335938 17.078125 C 20.177267 18.258345 19.908277 18.896374 19.402344 19.402344 C 18.896374 19.908277 18.258345 20.177267 17.078125 20.335938 C 15.897905 20.494609 14.23915 20.5 12 20.5 C 9.76083 20.5 8.1020844 20.494608 6.921875 20.335938 C 6.9011465 20.333151 6.8797712 20.330981 6.859375 20.328125 C 8.7312288 18.071964 10.675806 15.778105 12.736328 14.396484 C 14.057595 13.510549 15.365283 12.952808 16.808594 12.957031 z " fill="currentColor"/>
</svg>
