<svg xmlns="http://www.w3.org/2000/svg" width="1em" height="1em" viewBox="0 0 24 24" fill="currentColor">
  <path d="M 8 1 C 7.292895 1 6.7424594 0.99430488 6.2207031 1.0644531 C 5.6989468 1.1346014 5.1417712 1.3230726 4.7324219 1.7324219 C 4.3230726 2.1417712 4.1346014 2.6989468 4.0644531 3.2207031 C 3.9943049 3.7424594 4 4.292895 4 5 L 3 5 A 1 1 0 0 0 2 6 A 1 1 0 0 0 3 7 L 3 21 L 2 21 A 1 1 0 0 0 1 22 A 1 1 0 0 0 2 23 L 22 23 A 1 1 0 0 0 23 22 A 1 1 0 0 0 22 21 L 21 21 L 21 7 A 1 1 0 0 0 22 6 A 1 1 0 0 0 21 5 L 20 5 C 20 4.292895 20.005687 3.7424496 19.935547 3.2207031 C 19.865406 2.6989566 19.676899 2.1417798 19.267578 1.7324219 C 18.858214 1.3231141 18.301054 1.1346008 17.779297 1.0644531 C 17.25754 0.99430544 16.7071 1 16 1 L 8 1 z M 8 3 L 16 3 C 16.7071 3 17.216526 3.00719 17.511719 3.046875 C 17.806912 3.086562 17.823479 3.1164524 17.853516 3.1464844 C 17.883496 3.1764664 17.913435 3.1930853 17.953125 3.4882812 C 17.992808 3.7834776 18 4.292895 18 5 L 6 5 C 6 4.292895 6.0071883 3.7834675 6.046875 3.4882812 C 6.0865617 3.1930949 6.1164937 3.1764751 6.1464844 3.1464844 C 6.1764751 3.1164937 6.1930951 3.0865617 6.4882812 3.046875 C 6.7834676 3.0071883 7.292895 3 8 3 z M 5 7 L 19 7 L 19 9 L 17 9 A 1 1 0 0 0 16 10 A 1 1 0 0 0 17 11 L 19 11 L 19 21 L 16 21 L 16 16.273438 C 16 13.97063 14.246475 12 12 12 C 9.7535251 12 8 13.97063 8 16.273438 L 8 21 L 5 21 L 5 11 L 7 11 A 1 1 0 0 0 8 10 A 1 1 0 0 0 7 9 L 5 9 L 5 7 z M 11.5 9 A 1 1 0 0 0 10.5 10 A 1 1 0 0 0 11.5 11 L 12.5 11 A 1 1 0 0 0 13.5 10 A 1 1 0 0 0 12.5 9 L 11.5 9 z M 12 14 C 13.067325 14 14 14.961445 14 16.273438 L 14 21 L 10 21 L 10 16.273438 C 10 14.961445 10.932675 14 12 14 z " fill="currentColor"/>
</svg>
