<svg xmlns="http://www.w3.org/2000/svg" width="1em" height="1em" viewBox="0 0 24 24" fill="currentColor">
  <path d="M 17.318359 3.0019531 A 1 1 0 0 0 16.707031 3.1972656 L 5.0097656 11.865234 C 4.0754903 12.557681 3.3640989 13.074074 2.8359375 13.585938 C 2.5718568 13.841869 2.3440339 14.097903 2.1757812 14.447266 C 2.0075285 14.796628 1.9431818 15.30098 2.0976562 15.71875 C 2.2521598 16.136532 2.6125192 16.468218 2.9550781 16.634766 C 3.297637 16.801313 3.6352792 16.867515 4.0058594 16.914062 C 4.7470198 17.007159 5.6475456 17 6.8378906 17 L 21 17 A 1 1 0 0 0 22 16 A 1 1 0 0 0 21 15 L 6.8378906 15 C 5.6880587 15 4.8584329 14.989498 4.34375 14.931641 C 4.7089285 14.593779 5.3217158 14.12252 6.2011719 13.470703 L 17.896484 4.8027344 A 1 1 0 0 0 18.105469 3.4042969 A 1 1 0 0 0 17.449219 3.0117188 A 1 1 0 0 0 17.318359 3.0019531 z M 3 19 A 1 1 0 0 0 2 20 A 1 1 0 0 0 3 21 L 21 21 A 1 1 0 0 0 22 20 A 1 1 0 0 0 21 19 L 3 19 z " fill="currentColor"/>
</svg>
