<svg xmlns="http://www.w3.org/2000/svg" width="1em" height="1em" viewBox="0 0 24 24" fill="currentColor">
  <path d="M 6.6816406 3 A 1 1 0 0 0 5.8945312 3.4042969 A 1 1 0 0 0 6.1035156 4.8027344 L 17.798828 13.470703 C 18.678259 14.122522 19.291062 14.593771 19.65625 14.931641 C 19.141573 14.989498 18.311946 15 17.162109 15 L 3 15 A 1 1 0 0 0 2 16 A 1 1 0 0 0 3 17 L 17.162109 17 C 18.352459 17 19.252985 17.007202 19.994141 16.914062 C 20.364719 16.867513 20.702367 16.801309 21.044922 16.634766 C 21.387476 16.468222 21.747819 16.136501 21.902344 15.71875 C 22.056789 15.300967 21.992479 14.796609 21.824219 14.447266 C 21.655959 14.097922 21.428142 13.841863 21.164062 13.585938 C 20.635907 13.074084 19.924476 12.557678 18.990234 11.865234 L 7.2949219 3.1972656 A 1 1 0 0 0 6.6816406 3 z M 3 19 A 1 1 0 0 0 2 20 A 1 1 0 0 0 3 21 L 21 21 A 1 1 0 0 0 22 20 A 1 1 0 0 0 21 19 L 3 19 z " fill="currentColor"/>
</svg>
