<svg xmlns="http://www.w3.org/2000/svg" width="1em" height="1em" viewBox="0 0 24 24" fill="currentColor">
  <path d="M 12 1 C 8.098478 1 4.8642721 3.5445929 3.6210938 7.03125 C 3.578036 7.029013 3.5434632 7 3.5 7 C 2.1311341 7 1 8.1311341 1 9.5 C 1 10.806122 2.0543223 11.836456 3.3378906 11.933594 C 3.8301337 14.118916 5.085402 16.019253 6.8164062 17.296875 C 5.6886962 18.540391 5 20.194723 5 22 A 1 1 0 0 0 6 23 A 1 1 0 0 0 7 22 C 7 20.538377 7.6216757 19.23465 8.6152344 18.320312 C 9.6537188 18.757642 10.794959 19 12 19 C 13.205038 19 14.346281 18.757648 15.384766 18.320312 C 16.378375 19.234645 17 20.538362 17 22 A 1 1 0 0 0 18 23 A 1 1 0 0 0 19 22 C 19 20.194719 18.311359 18.540399 17.183594 17.296875 C 18.914578 16.019252 20.169844 14.1189 20.662109 11.933594 C 21.94567 11.836458 23 10.806145 23 9.5 C 23 8.1311099 21.868855 7 20.5 7 C 20.456535 7 20.421966 7.0290124 20.378906 7.03125 C 19.135729 3.5445784 15.901498 1 12 1 z M 12 3 C 12.403047 3 13 3.4989831 13 4 C 13 4.5010169 12.403047 5 12 5 C 11.744413 5 11.323433 4.8676152 11.097656 4.6992188 A 1 1 0 0 0 9.6992188 4.9023438 A 1 1 0 0 0 9.9023438 6.3007812 C 10.525767 6.7657649 11.255587 7 12 7 C 13.596953 7 15 5.7081231 15 4 C 15 3.8857062 14.994623 3.7724137 14.982422 3.6621094 C 16.894964 4.5620856 18.328696 6.3025709 18.818359 8.4042969 A 1.0001 1.0001 0 0 0 20.263672 9.0585938 C 20.333692 9.0209984 20.410848 9 20.5 9 C 20.787945 9 21 9.2120301 21 9.5 C 21 9.7879204 20.78792 10 20.5 10 C 20.43246 10 20.372147 9.9868189 20.316406 9.9648438 A 1.0001 1.0001 0 0 0 18.957031 10.785156 C 18.567081 14.283328 15.61191 17 12 17 C 8.3880337 17 5.4328746 14.283324 5.0429688 10.785156 A 1.0001 1.0001 0 0 0 3.6835938 9.9648438 C 3.6278657 9.986814 3.5675726 10 3.5 10 C 3.2120301 10 3 9.7879445 3 9.5 C 3 9.2120059 3.2120059 9 3.5 9 C 3.589086 9 3.6663495 9.0210241 3.7363281 9.0585938 A 1.0001 1.0001 0 0 0 5.1816406 8.4042969 C 5.902658 5.3096069 8.6724228 3 12 3 z M 8.25 8.75 C 7.5714795 8.75 7 9.3214795 7 10 C 7 10.678433 7.5716244 11.25 8.25 11.25 C 8.9283756 11.25 9.5 10.678433 9.5 10 C 9.5 9.3214795 8.9285205 8.75 8.25 8.75 z M 15.75 8.75 C 15.071567 8.75 14.5 9.3216244 14.5 10 C 14.5 10.678288 15.071712 11.25 15.75 11.25 C 16.428288 11.25 17 10.678288 17 10 C 17 9.3216244 16.428433 8.75 15.75 8.75 z M 11 13 A 1.0001 1.0001 0 0 0 10 14 C 10 15.092707 10.907293 16 12 16 C 13.092707 16 14 15.092707 14 14 A 1.0001 1.0001 0 0 0 13 13 L 11 13 z " fill="currentColor"/>
</svg>
