<svg xmlns="http://www.w3.org/2000/svg" width="1em" height="1em" viewBox="0 0 24 24" fill="currentColor">
  <path d="M 6.5 6 C 4.8490691 6 3.4142312 6.7018677 2.4570312 7.8125 C 1.4998313 8.9231323 1 10.409425 1 12 C 1 13.590567 1.4998324 15.076866 2.4570312 16.1875 C 3.4142299 17.298134 4.8490667 18 6.5 18 C 8.4842642 18 9.9570881 16.471357 11.056641 15.136719 C 11.626579 14.444927 11.68138 14.262121 12 13.759766 C 12.318621 14.26212 12.37342 14.444927 12.943359 15.136719 C 14.042914 16.471356 15.515741 18 17.5 18 C 19.150925 18 20.585768 17.298133 21.542969 16.1875 C 22.500169 15.076867 23 13.590569 23 12 C 23 10.409422 22.500171 8.923131 21.542969 7.8125 C 20.585767 6.701869 19.150923 6 17.5 6 C 15.515741 6 14.042914 7.528644 12.943359 8.8632812 C 12.37342 9.5550729 12.318621 9.73788 12 10.240234 C 11.68138 9.7378797 11.626579 9.5550734 11.056641 8.8632812 C 9.9570881 7.5286432 8.4842642 6 6.5 6 z M 6.5 8 C 7.2771558 8 8.553579 8.9713565 9.5136719 10.136719 C 10.276916 11.063145 10.592665 11.655477 10.792969 12 C 10.592665 12.344523 10.276916 12.936855 9.5136719 13.863281 C 8.553579 15.028643 7.2771558 16 6.5 16 C 5.3895133 16 4.5751024 15.581827 3.9726562 14.882812 C 3.37021 14.183796 3 13.170833 3 12 C 3 10.829155 3.3702111 9.8162002 3.9726562 9.1171875 C 4.5751012 8.4181748 5.3895109 8 6.5 8 z M 17.5 8 C 18.610477 8 19.424896 8.4181735 20.027344 9.1171875 C 20.629792 9.8162015 21 10.829158 21 12 C 21 13.170831 20.629793 14.183794 20.027344 14.882812 C 19.424894 15.581829 18.610475 16 17.5 16 C 16.722859 16 15.446424 15.028644 14.486328 13.863281 C 13.723082 12.936854 13.407337 12.344524 13.207031 12 C 13.407337 11.655476 13.723082 11.063146 14.486328 10.136719 C 15.446424 8.9713557 16.722859 8 17.5 8 z " fill="currentColor"/>
</svg>
