<svg xmlns="http://www.w3.org/2000/svg" width="1em" height="1em" viewBox="0 0 24 24" fill="currentColor">
  <path d="M 8 5 C 6.585785 5 5.5044454 4.9940748 4.5742188 5.1191406 C 3.6439921 5.2442065 2.800893 5.542857 2.171875 6.171875 C 1.542857 6.800893 1.2442065 7.643992 1.1191406 8.5742188 C 0.99407482 9.5044453 1 10.585785 1 12 C 1 13.4142 0.99407502 14.495558 1.1191406 15.425781 C 1.2442065 16.356004 1.5428648 17.199101 2.171875 17.828125 C 2.8008908 18.457155 3.6439898 18.75579 4.5742188 18.880859 C 5.5044479 19.005928 6.585785 19 8 19 L 16 19 C 17.4142 19 18.495556 19.0059 19.425781 18.880859 C 20.356006 18.75579 21.199103 18.457147 21.828125 17.828125 C 22.457147 17.199103 22.75579 16.356006 22.880859 15.425781 C 23.005928 14.495556 23 13.4142 23 12 C 23 10.585785 23.005928 9.5044477 22.880859 8.5742188 C 22.75579 7.6439896 22.457155 6.8008908 21.828125 6.171875 C 21.199101 5.5428648 20.356004 5.2442065 19.425781 5.1191406 C 18.495558 4.9940747 17.4142 5 16 5 L 8 5 z M 8 7 L 16 7 C 17.4142 7 18.454551 7.00696 19.158203 7.1015625 C 19.861855 7.1961665 20.164388 7.3362677 20.414062 7.5859375 C 20.663732 7.8356017 20.803832 8.1381434 20.898438 8.8417969 C 20.993043 9.5454503 21 10.585785 21 12 C 21 13.4142 20.993 14.454553 20.898438 15.158203 C 20.803828 15.861853 20.66374 16.164385 20.414062 16.414062 C 20.164386 16.66374 19.861853 16.803832 19.158203 16.898438 C 18.454553 16.993043 17.4142 17 16 17 L 8 17 C 6.585785 17 5.5454503 16.993043 4.8417969 16.898438 C 4.1381434 16.803832 3.8356017 16.663732 3.5859375 16.414062 C 3.3362677 16.164388 3.1961666 15.861855 3.1015625 15.158203 C 3.0069584 14.454551 3 13.4142 3 12 C 3 10.585785 3.0069583 9.5454528 3.1015625 8.8417969 C 3.1961667 8.138141 3.3362755 7.8355995 3.5859375 7.5859375 C 3.8355995 7.3362755 4.138141 7.1961667 4.8417969 7.1015625 C 5.5454528 7.0069583 6.585785 7 8 7 z M 6 8 A 1 1 0 0 0 5 9 A 1 1 0 0 0 6 10 L 6 14 A 1 1 0 0 0 5 15 A 1 1 0 0 0 6 16 L 7 16 L 8 16 A 1 1 0 0 0 9 15 A 1 1 0 0 0 8 14 L 8 9 A 1.0001 1.0001 0 0 0 7 8 L 6 8 z M 11 8 A 1 1 0 0 0 10 9 A 1 1 0 0 0 11 10 L 13 10 L 13 11 L 12 11 C 10.907293 11 10 11.907293 10 13 L 10 14 C 10 15.092707 10.907293 16 12 16 L 14 16 A 1 1 0 0 0 15 15 A 1 1 0 0 0 14 14 L 12 14 L 12 13 L 13 13 C 14.092707 13 15 12.092707 15 11 L 15 10 C 15 8.9072936 14.092731 8 13 8 L 11 8 z " fill="currentColor"/>
</svg>
