<svg xmlns="http://www.w3.org/2000/svg" width="1em" height="1em" viewBox="0 0 24 24" fill="currentColor">
  <path d="M 3 2 A 1 1 0 0 0 2 3 A 1 1 0 0 0 3 4 L 19 4 A 1 1 0 0 0 20 3 A 1 1 0 0 0 19 2 L 3 2 z M 8 6 C 6.82149 6 5.9171164 5.99285 5.1230469 6.0996094 C 4.3289773 6.2063688 3.5811884 6.4696004 3.0253906 7.0253906 C 2.4696004 7.5811884 2.2063688 8.3289773 2.0996094 9.1230469 C 1.99285 9.9171164 2 10.82149 2 12 C 2 13.1785 1.9928504 14.082883 2.0996094 14.876953 C 2.2063685 15.671023 2.4696253 16.418791 3.0253906 16.974609 C 3.5811923 17.530381 4.3289817 17.793636 5.1230469 17.900391 C 5.9171124 18.007145 6.82149 18 8 18 L 16 18 C 17.1785 18 18.082887 18.007101 18.876953 17.900391 C 19.671019 17.793636 20.418787 17.530356 20.974609 16.974609 C 21.530356 16.418787 21.793636 15.671019 21.900391 14.876953 C 22.007145 14.082888 22 13.1785 22 12 C 22 10.82149 22.007145 9.917112 21.900391 9.1230469 C 21.793636 8.3289817 21.530381 7.5811923 20.974609 7.0253906 C 20.418791 6.4696253 19.671023 6.2063685 18.876953 6.0996094 C 18.082883 5.9928503 17.1785 6 16 6 L 8 6 z M 8 8 L 16 8 C 17.1785 8 18.04187 8.0057302 18.609375 8.0820312 C 19.17688 8.1583292 19.384065 8.2629884 19.560547 8.4394531 C 19.736976 8.6158914 19.841673 8.8231202 19.917969 9.390625 C 19.994264 9.9581301 20 10.82149 20 12 C 20 13.1785 19.994299 14.041866 19.917969 14.609375 C 19.841669 15.176884 19.737 15.384069 19.560547 15.560547 C 19.384068 15.737 19.176884 15.841673 18.609375 15.917969 C 18.041866 15.994265 17.1785 16 16 16 L 8 16 C 6.82149 16 5.9581298 15.994264 5.390625 15.917969 C 4.8231202 15.841673 4.6158914 15.736976 4.4394531 15.560547 C 4.2629884 15.384065 4.1583296 15.17688 4.0820312 14.609375 C 4.0057329 14.04187 4 13.1785 4 12 C 4 10.82149 4.0057331 9.9581254 4.0820312 9.390625 C 4.1583295 8.8231246 4.2630134 8.6158953 4.4394531 8.4394531 C 4.6158953 8.2630134 4.8231246 8.1583293 5.390625 8.0820312 C 5.9581254 8.005733 6.82149 8 8 8 z M 3 20 A 1 1 0 0 0 2 21 A 1 1 0 0 0 3 22 L 12 22 A 1 1 0 0 0 13 21 A 1 1 0 0 0 12 20 L 3 20 z " fill="currentColor"/>
</svg>
