<svg xmlns="http://www.w3.org/2000/svg" width="1em" height="1em" viewBox="0 0 24 24" fill="currentColor">
  <path d="M 12 2 C 9.87868 2 8.2683853 1.9938448 6.9296875 2.1738281 C 5.5909897 2.3538114 4.4600166 2.7626397 3.6113281 3.6113281 C 2.7626397 4.4600166 2.3538114 5.5909897 2.1738281 6.9296875 C 1.9938448 8.2683853 2 9.87868 2 12 C 2 14.1213 1.99385 15.731605 2.1738281 17.070312 C 2.3538111 18.409022 2.7626282 19.539985 3.6113281 20.388672 C 4.460018 21.237349 5.5909914 21.646192 6.9296875 21.826172 C 8.2683836 22.006152 9.87868 22 12 22 C 14.1213 22 15.731605 22.0062 17.070312 21.826172 C 18.409021 21.646192 19.539983 21.23736 20.388672 20.388672 C 21.23736 19.539983 21.646192 18.40902 21.826172 17.070312 C 22.006152 15.731605 22 14.1213 22 12 C 22 9.87868 22.006152 8.2683836 21.826172 6.9296875 C 21.646192 5.5909914 21.237349 4.460018 20.388672 3.6113281 C 19.539985 2.7626282 18.409021 2.3538111 17.070312 2.1738281 C 15.731604 1.9938452 14.1213 2 12 2 z M 12 4 C 14.1213 4 15.692546 4.00673 16.804688 4.15625 C 17.916829 4.305772 18.505296 4.5560705 18.974609 5.0253906 C 19.443932 5.4947208 19.69423 6.0831836 19.84375 7.1953125 C 19.99327 8.3074414 20 9.87868 20 12 C 20 14.1213 19.9933 15.692545 19.84375 16.804688 C 19.69423 17.91683 19.443921 18.505298 18.974609 18.974609 C 18.505298 19.443921 17.91683 19.69423 16.804688 19.84375 C 15.692545 19.99327 14.1213 20 12 20 C 9.87868 20 8.3074414 19.99327 7.1953125 19.84375 C 6.0831836 19.69423 5.4947208 19.443932 5.0253906 18.974609 C 4.5560705 18.505296 4.305772 17.916829 4.15625 16.804688 C 4.006728 15.692546 4 14.1213 4 12 C 4 9.87868 4.0067283 8.3074397 4.15625 7.1953125 C 4.3057717 6.0831853 4.5560591 5.4947222 5.0253906 5.0253906 C 5.4947222 4.5560591 6.0831853 4.3057717 7.1953125 4.15625 C 8.3074397 4.0067283 9.87868 4 12 4 z M 17.25 5.5 C 16.571567 5.5 16 6.0716244 16 6.75 C 16 7.4283465 16.571615 8 17.25 8 C 17.928676 8 18.5 7.4288293 18.5 6.75 C 18.5 6.0711415 17.928725 5.5 17.25 5.5 z M 12 7 C 9.2504204 7 7 9.2504204 7 12 C 7 14.749549 9.2504084 17 12 17 C 14.749561 17 17 14.749561 17 12 C 17 9.2504084 14.749549 7 12 7 z M 12 9 C 13.668651 9 15 10.331312 15 12 C 15 13.668639 13.668639 15 12 15 C 10.331312 15 9 13.668651 9 12 C 9 10.3313 10.3313 9 12 9 z " fill="currentColor"/>
</svg>
