<svg xmlns="http://www.w3.org/2000/svg" width="1em" height="1em" viewBox="0 0 24 24" fill="currentColor">
  <path d="M 8.8046875 1.1855469 C 8.2984467 1.1895975 8.0349258 1.4306641 7.7148438 1.6113281 L 6.3398438 2.3867188 C 5.9649155 2.5983521 5.564522 2.6963715 5.2871094 3.3203125 C 5.1157847 3.7055889 5.1669792 3.9817474 5.1992188 4.2070312 C 5.2314584 4.4323151 5.2821645 4.6466278 5.34375 4.921875 C 5.5984771 6.0603457 4.8653597 7.2883598 3.6992188 7.6386719 C 3.4362328 7.7176721 3.2296402 7.7774224 3.0195312 7.859375 C 2.8094222 7.9413276 2.54318 8.0379751 2.296875 8.3691406 C 1.8917735 8.9138135 2 9.3130944 2 9.7402344 L 2 11.259766 C 2 11.686284 1.8935387 12.085236 2.296875 12.628906 C 2.5431344 12.960194 2.809383 13.058648 3.0195312 13.140625 C 3.2296794 13.222605 3.4362287 13.282328 3.6992188 13.361328 C 4.8649677 13.711637 5.5967364 14.939427 5.3417969 16.078125 C 5.2801829 16.353322 5.2295349 16.567685 5.1972656 16.792969 C 5.1649966 17.018252 5.1139823 17.294515 5.2851562 17.679688 C 5.5626548 18.303605 5.9629893 18.399661 6.3378906 18.611328 A 1.0001 1.0001 0 0 0 6.3378906 18.613281 L 7.7128906 19.388672 C 8.0787974 19.595204 8.3704876 19.880468 9.0351562 19.800781 C 9.4386821 19.752401 9.6559203 19.574261 9.8300781 19.435547 C 10.004236 19.296833 10.156789 19.150998 10.353516 18.966797 C 11.262499 18.115714 12.739469 18.115665 13.648438 18.966797 C 13.845156 19.150917 13.997768 19.296885 14.171875 19.435547 C 14.345982 19.574209 14.56322 19.752382 14.966797 19.800781 C 15.630436 19.880321 15.921941 19.595139 16.287109 19.388672 L 17.664062 18.611328 C 18.039005 18.399661 18.43757 18.302116 18.714844 17.677734 C 18.885081 17.293514 18.836927 17.017772 18.804688 16.792969 C 18.772378 16.567674 18.721797 16.353297 18.660156 16.078125 C 18.405039 14.939313 19.135496 13.711488 20.300781 13.361328 C 20.563751 13.282268 20.770409 13.222608 20.980469 13.140625 C 21.190529 13.058645 21.456834 12.961906 21.703125 12.630859 C 22.108451 12.086006 22 11.686866 22 11.259766 L 22 9.7402344 C 22 9.3131144 22.108257 8.9138131 21.703125 8.3691406 C 21.456815 8.0379685 21.190555 7.9413354 20.980469 7.859375 C 20.770383 7.7774146 20.563723 7.7176894 20.300781 7.6386719 C 19.135036 7.2883946 18.403271 6.060521 18.658203 4.921875 C 18.719803 4.6466594 18.770475 4.4322733 18.802734 4.2070312 C 18.834994 3.9817892 18.885964 3.7055225 18.714844 3.3203125 C 18.437349 2.6965684 18.03697 2.6002998 17.662109 2.3886719 L 16.287109 1.6113281 C 15.921303 1.4048347 15.629754 1.1195195 14.964844 1.1992188 C 14.561268 1.2475687 14.346044 1.4257839 14.171875 1.5644531 C 13.997706 1.7031223 13.845239 1.8490166 13.648438 2.0332031 A 1.0001 1.0001 0 0 0 13.646484 2.0332031 C 12.738174 2.8834009 11.261873 2.8834532 10.353516 2.0332031 C 10.156793 1.8490151 10.004248 1.7031402 9.8300781 1.5644531 C 9.6559078 1.4257661 9.4406278 1.2475774 9.0371094 1.1992188 C 8.9539962 1.1892577 8.8770076 1.1849682 8.8046875 1.1855469 z M 15.255859 3.2734375 L 15.257812 3.2753906 L 15.259766 3.2753906 L 15.259766 3.2773438 L 15.257812 3.2773438 L 15.255859 3.2773438 C 15.254519 3.2774989 15.253856 3.2772359 15.251953 3.2773438 C 15.253446 3.2760066 15.254347 3.2747928 15.255859 3.2734375 z M 8.7441406 3.2753906 C 8.7458189 3.2768957 8.7483448 3.2778156 8.75 3.2792969 C 8.7478462 3.2791708 8.7437387 3.2794575 8.7421875 3.2792969 L 8.7402344 3.2792969 L 8.7402344 3.2773438 L 8.7421875 3.2773438 L 8.7441406 3.2753906 z M 8.7734375 3.3007812 C 8.8330643 3.3537034 8.8842065 3.3985479 8.9863281 3.4941406 C 10.66981 5.0699306 13.330182 5.0699229 15.013672 3.4941406 C 15.115406 3.3989282 15.165632 3.3535032 15.224609 3.3007812 C 15.234519 3.3119027 15.258271 3.3284159 15.302734 3.3535156 L 16.679688 4.1289062 C 16.728842 4.1566567 16.756547 4.1676949 16.771484 4.1699219 C 16.75474 4.2563052 16.740907 4.3349949 16.707031 4.4863281 C 16.216015 6.684377 17.567155 8.9058393 19.726562 9.5546875 C 19.86423 9.5960584 19.930237 9.6191263 20.007812 9.6445312 C 20.002755 9.6587022 20 9.6868167 20 9.7402344 L 20 11.259766 C 20 11.313182 20.002754 11.341299 20.007812 11.355469 C 19.930236 11.380877 19.864214 11.40393 19.726562 11.445312 C 17.566648 12.094352 16.216501 14.317237 16.708984 16.515625 C 16.742723 16.666215 16.756739 16.742407 16.773438 16.828125 C 16.758236 16.830333 16.729848 16.842763 16.679688 16.871094 L 15.304688 17.646484 C 15.260157 17.671622 15.237605 17.688451 15.228516 17.699219 C 15.168889 17.646291 15.117758 17.601451 15.015625 17.505859 C 13.331393 15.928792 10.670525 15.928943 8.9863281 17.505859 C 8.8846388 17.601075 8.8343579 17.646504 8.7753906 17.699219 C 8.7654804 17.688098 8.7417333 17.671583 8.6972656 17.646484 L 7.3203125 16.871094 C 7.2711815 16.843355 7.2434614 16.832318 7.2285156 16.830078 C 7.2452694 16.744068 7.2591607 16.666626 7.2929688 16.515625 C 7.7852246 14.316924 6.4334685 12.094403 4.2734375 11.445312 C 4.1357596 11.403954 4.0697524 11.38087 3.9921875 11.355469 C 3.9972468 11.341301 4 11.313185 4 11.259766 L 4 9.7402344 C 4 9.6868193 3.9972445 9.658703 3.9921875 9.6445312 C 4.0697556 9.619129 4.1357636 9.5960444 4.2734375 9.5546875 C 6.4336965 8.9057396 7.7869347 6.6853174 7.2949219 4.4863281 C 7.2611887 4.3355631 7.2455521 4.2578138 7.2285156 4.171875 C 7.2440878 4.1692035 7.272743 4.1568592 7.3222656 4.1289062 L 8.6972656 3.3535156 C 8.7417991 3.3283794 8.7643479 3.3115495 8.7734375 3.3007812 z M 7.2226562 4.1289062 L 7.2246094 4.1289062 L 7.2246094 4.1308594 L 7.2246094 4.1328125 C 7.2241127 4.1339646 7.2234637 4.1351397 7.2226562 4.1367188 C 7.2222706 4.1347848 7.2210929 4.1328112 7.2207031 4.1308594 L 7.2226562 4.1289062 z M 16.775391 4.1289062 L 16.777344 4.1289062 L 16.779297 4.1308594 C 16.778867 4.1330116 16.777767 4.1345881 16.777344 4.1367188 C 16.776433 4.1349318 16.775975 4.1321756 16.775391 4.1308594 L 16.775391 4.1289062 z M 12 6.5 C 9.8026731 6.5 8 8.3027269 8 10.5 C 8 12.697307 9.8026932 14.5 12 14.5 C 14.197307 14.5 16 12.697307 16 10.5 C 16 8.3027269 14.197327 6.5 12 6.5 z M 12 8.5 C 13.116473 8.5 14 9.3835731 14 10.5 C 14 11.616493 13.116493 12.5 12 12.5 C 10.883507 12.5 10 11.616493 10 10.5 C 10 9.3835731 10.883527 8.5 12 8.5 z M 3.9589844 9.6542969 C 3.9579061 9.6559511 3.9559112 9.6590215 3.9550781 9.6601562 L 3.953125 9.6601562 L 3.953125 9.6582031 L 3.953125 9.65625 C 3.9551414 9.655596 3.956995 9.6549434 3.9589844 9.6542969 z M 20.041016 9.6542969 C 20.043003 9.6549428 20.044861 9.6555966 20.046875 9.65625 L 20.046875 9.6582031 L 20.046875 9.6601562 L 20.044922 9.6601562 L 20.042969 9.6582031 C 20.042136 9.6570689 20.042093 9.6559504 20.041016 9.6542969 z M 3.953125 11.339844 L 3.9550781 11.339844 L 3.9570312 11.341797 C 3.9578644 11.342932 3.957906 11.344049 3.9589844 11.345703 C 3.9569958 11.345057 3.9551406 11.344404 3.953125 11.34375 L 3.953125 11.341797 L 3.953125 11.339844 z M 20.044922 11.339844 L 20.046875 11.339844 L 20.046875 11.341797 L 20.046875 11.34375 C 20.044861 11.344404 20.043002 11.345057 20.041016 11.345703 C 20.042093 11.34405 20.04409 11.340978 20.044922 11.339844 z M 7.2226562 16.863281 C 7.2235679 16.865067 7.224024 16.867826 7.2246094 16.869141 L 7.2246094 16.871094 L 7.2226562 16.871094 L 7.2207031 16.869141 C 7.2211317 16.866998 7.2222343 16.865402 7.2226562 16.863281 z M 16.779297 16.863281 C 16.779712 16.865367 16.780828 16.867033 16.78125 16.869141 L 16.779297 16.871094 L 16.777344 16.871094 L 16.777344 16.869141 L 16.777344 16.867188 C 16.777881 16.865934 16.778445 16.864986 16.779297 16.863281 z M 2 17 A 1 1 0 0 0 1 18 C 1 18.93 0.98192335 19.457437 1.1367188 20.035156 C 1.5061792 21.413907 2.5859962 22.49382 3.9648438 22.863281 C 4.5425283 23.018037 5.07003 23 6 23 L 18 23 C 18.93 23 19.457467 23.01804 20.035156 22.863281 C 21.413936 22.493813 22.493813 21.413936 22.863281 20.035156 C 23.018038 19.457467 23 18.93 23 18 A 1 1 0 0 0 22 17 A 1 1 0 0 0 21 18 C 21 18.93 20.981281 19.332267 20.931641 19.517578 C 20.746309 20.209198 20.209198 20.746309 19.517578 20.931641 C 19.332268 20.981284 18.93 21 18 21 L 6 21 C 5.07003 21 4.6677373 20.981285 4.4824219 20.931641 C 3.7907294 20.746302 3.2536989 20.209227 3.0683594 19.517578 C 3.0187149 19.332298 3 18.93 3 18 A 1 1 0 0 0 2 17 z M 15.251953 17.720703 C 15.254104 17.720829 15.258217 17.720542 15.259766 17.720703 L 15.261719 17.720703 L 15.261719 17.722656 L 15.259766 17.722656 L 15.257812 17.724609 C 15.256134 17.723104 15.253609 17.722185 15.251953 17.720703 z M 8.7402344 17.722656 L 8.7421875 17.722656 L 8.7441406 17.722656 C 8.745481 17.722501 8.7461439 17.722764 8.7480469 17.722656 C 8.7465527 17.723995 8.7456541 17.725205 8.7441406 17.726562 L 8.7421875 17.724609 L 8.7402344 17.724609 L 8.7402344 17.722656 z " fill="currentColor"/>
</svg>
