<svg xmlns="http://www.w3.org/2000/svg" width="1em" height="1em" viewBox="0 0 24 24" fill="currentColor">
  <path d="M 12 1 C 5.9367104 1 1 5.9367104 1 12 C 1 14.471941 1.8202454 16.763545 3.2011719 18.601562 A 1 1 0 0 0 4.6015625 18.800781 A 1 1 0 0 0 4.7988281 17.400391 C 3.6681146 15.895408 3 14.031259 3 12 C 3 7.0175896 7.0175896 3 12 3 C 16.982356 3 21 7.0175956 21 12 C 21 14.031253 20.331872 15.895401 19.201172 17.400391 A 1 1 0 0 0 19.398438 18.800781 A 1 1 0 0 0 20.798828 18.601562 C 22.179728 16.763552 23 14.471947 23 12 C 23 5.9367044 18.063244 1 12 1 z M 12 5 C 8.1458504 5 5 8.1458504 5 12 C 5 13.787328 5.6756946 15.428625 6.7832031 16.666016 A 1 1 0 0 0 8.1953125 16.746094 A 1 1 0 0 0 8.2734375 15.333984 C 7.480786 14.448373 7 13.286072 7 12 C 7 9.2267296 9.2267296 7 12 7 C 14.773259 7 17 9.2267316 17 12 C 17 13.286076 16.519227 14.44838 15.726562 15.333984 A 1 1 0 0 0 15.804688 16.746094 A 1 1 0 0 0 17.216797 16.666016 C 18.324328 15.428622 19 13.787324 19 12 C 19 8.1458484 15.854141 5 12 5 z M 12 9 C 10.35499 9 9 10.35499 9 12 C 9 13.141048 9.6511537 14.141891 10.599609 14.648438 L 8.859375 18.429688 C 8.5355869 19.132834 8.2775998 19.673044 8.1210938 20.21875 C 7.9645876 20.764456 7.9374205 21.473159 8.3105469 22.025391 C 8.3283269 22.051711 8.3463124 22.078046 8.3652344 22.103516 C 8.7617589 22.637753 9.3957204 22.852066 9.9707031 22.929688 C 10.545687 23.007306 11.17805 23 12 23 C 12.82195 23 13.454312 23.007297 14.029297 22.929688 C 14.604282 22.852068 15.238216 22.637699 15.634766 22.103516 A 1.0001 1.0001 0 0 0 15.634766 22.101562 C 15.653266 22.076583 15.672023 22.051151 15.689453 22.025391 C 16.062609 21.473164 16.035416 20.764464 15.878906 20.21875 C 15.722396 19.673036 15.464423 19.132834 15.140625 18.429688 L 13.400391 14.648438 C 14.348844 14.14189 15 13.141046 15 12 C 15 10.35499 13.64501 9 12 9 z M 12 11 C 12.564129 11 13 11.435871 13 12 C 13 12.564129 12.564129 13 12 13 C 11.435871 13 11 12.564129 11 12 C 11 11.435871 11.435871 11 12 11 z M 12 16.390625 L 13.324219 19.267578 C 13.648021 19.970732 13.875491 20.485221 13.957031 20.769531 C 13.975115 20.832586 13.987532 20.876432 13.996094 20.90625 C 13.954006 20.916416 13.881578 20.931082 13.761719 20.947266 C 13.423174 20.992974 12.82195 21 12 21 C 11.17805 21 10.576814 20.992996 10.238281 20.947266 C 10.118425 20.931086 10.045999 20.916423 10.003906 20.90625 C 10.012468 20.876431 10.024887 20.832579 10.042969 20.769531 C 10.124509 20.485212 10.351989 19.970732 10.675781 19.267578 L 12 16.390625 z " fill="currentColor"/>
</svg>
