<svg xmlns="http://www.w3.org/2000/svg" width="1em" height="1em" viewBox="0 0 24 24" fill="currentColor">
  <path d="M 8.1367188 1.5019531 C 5.9590436 1.6098765 4.3224956 1.9548609 3.1386719 3.1386719 C 1.9548609 4.3224956 1.6098765 5.9590436 1.5019531 8.1367188 A 1 1 0 0 0 2.4511719 9.1855469 A 1 1 0 0 0 3.4980469 8.2363281 C 3.5982435 6.2145632 3.8759585 5.2334238 4.5546875 4.5546875 C 5.2334238 3.8759585 6.2145632 3.5982435 8.2363281 3.4980469 A 1 1 0 0 0 9.1855469 2.4511719 A 1 1 0 0 0 8.1367188 1.5019531 z M 15.863281 1.5019531 A 1 1 0 0 0 14.814453 2.4511719 A 1 1 0 0 0 15.763672 3.4980469 C 17.784292 3.5981877 18.76661 3.8767923 19.445312 4.5546875 C 20.123984 5.2334177 20.401717 6.2145519 20.501953 8.2363281 A 1 1 0 0 0 21.548828 9.1855469 A 1 1 0 0 0 22.498047 8.1367188 C 22.390083 5.9590549 22.045056 4.3225017 20.861328 3.1386719 C 19.677471 1.954853 18.040936 1.6098765 15.863281 1.5019531 z M 12 5 C 8.4852305 5 5.5602654 7.6162222 5.0722656 11 L 2.5 11 A 1 1 0 0 0 1.5 12 A 1 1 0 0 0 2.5 13 L 6 13 L 18 13 L 21.5 13 A 1 1 0 0 0 22.5 12 A 1 1 0 0 0 21.5 11 L 18.927734 11 C 18.757058 9.811925 18.288298 8.715739 17.599609 7.7988281 A 1.0001 1.0001 0 0 0 16.199219 7.5996094 C 15.864219 7.8513032 15.45514 8 15 8 C 13.883527 8 13 7.1164269 13 6 A 1.0001 1.0001 0 0 0 12 5 z M 11.234375 7.1523438 C 11.739682 8.7832682 13.210323 10 15 10 C 15.485431 10 15.867379 9.7266122 16.300781 9.5664062 C 16.554573 10.012823 16.759811 10.489739 16.880859 11 L 7.1015625 11 C 7.5182749 8.9871754 9.1734175 7.4794738 11.234375 7.1523438 z M 6.8027344 14 A 1 1 0 0 0 6.3027344 14.134766 A 1 1 0 0 0 5.9375 15.5 C 7.1480155 17.592612 9.4169463 19 12 19 C 14.583012 19 16.852003 17.59264 18.0625 15.5 A 1 1 0 0 0 17.697266 14.134766 A 1 1 0 0 0 16.332031 14.5 C 15.467728 15.99416 13.858588 17 12 17 C 10.141354 17 8.5323133 15.994188 7.6679688 14.5 A 1 1 0 0 0 6.8027344 14 z M 2.4511719 14.814453 A 1 1 0 0 0 1.5019531 15.863281 C 1.6098765 18.040936 1.954853 19.677471 3.1386719 20.861328 C 4.3225017 22.045056 5.9590646 22.390083 8.1367188 22.498047 A 1 1 0 0 0 9.1855469 21.548828 A 1 1 0 0 0 8.2363281 20.501953 C 6.2145622 20.401717 5.2334177 20.123984 4.5546875 19.445312 C 3.8767923 18.76661 3.5981877 17.784292 3.4980469 15.763672 A 1 1 0 0 0 2.4511719 14.814453 z M 21.548828 14.814453 A 1 1 0 0 0 20.501953 15.763672 C 20.401717 17.785429 20.123977 18.768529 19.445312 19.447266 C 18.766638 20.124644 17.783675 20.401804 15.763672 20.501953 A 1 1 0 0 0 14.814453 21.548828 A 1 1 0 0 0 15.863281 22.498047 C 18.040924 22.390083 19.677465 22.045064 20.861328 20.861328 C 22.045064 19.677465 22.390083 18.040924 22.498047 15.863281 A 1 1 0 0 0 21.548828 14.814453 z " fill="currentColor"/>
</svg>
