<svg xmlns="http://www.w3.org/2000/svg" width="1em" height="1em" viewBox="0 0 24 24" fill="currentColor">
  <path d="M 15.5 1 A 1 1 0 0 0 14.5 2 A 1 1 0 0 0 15.5 3 C 15.51962 3 15.58025 2.99231 15.623047 3.1152344 L 15.623047 3.1171875 C 15.634265 3.1752973 15.460218 3.5045313 15.439453 3.6542969 C 15.093505 3.493272 14.874203 3.2032459 14.449219 3.1269531 C 13.453627 2.9482256 12.180793 3.1433021 11.269531 4.1152344 A 1 1 0 0 0 11.316406 5.5292969 A 1 1 0 0 0 12.730469 5.484375 C 13.131807 5.056317 13.565745 5.0005656 14.095703 5.0957031 C 14.154584 5.1062733 14.214697 5.119802 14.273438 5.1367188 C 11.849827 7.5604433 11.139423 11.315543 11.019531 14.091797 C 7.6069545 13.539723 4.6400428 15.628628 3.1152344 18.535156 A 1 1 0 0 0 3.5351562 19.884766 A 1 1 0 0 0 4.8847656 19.464844 C 5.8026366 17.715236 7.2208737 16.454875 8.9121094 16.099609 C 8.1841575 16.790921 7.5709546 17.623357 7.1054688 18.552734 A 1 1 0 0 0 7.5527344 19.894531 A 1 1 0 0 0 8.8945312 19.447266 C 9.9491695 17.341599 11.854537 16 14 16 C 16.145463 16 18.050774 17.341576 19.105469 19.447266 A 1 1 0 0 0 20.447266 19.894531 A 1 1 0 0 0 20.894531 18.552734 C 19.553826 15.876024 16.982137 14 14 14 C 13.671098 14 13.347114 14.022209 13.029297 14.066406 C 13.174834 11.685515 13.880495 8.5817035 15.564453 6.703125 C 15.578119 6.7873042 15.588133 6.8728919 15.59375 6.9570312 C 15.63501 7.5750076 15.4735 8.1124372 15.292969 8.2929688 A 1 1 0 0 0 15.292969 9.7070312 A 1 1 0 0 0 16.707031 9.7070312 C 17.392971 9.021092 17.544759 8.1418241 17.554688 7.3105469 C 17.83897 7.7165379 18.047389 8.1892302 17.986328 8.9160156 A 1 1 0 0 0 18.898438 9.9960938 A 1 1 0 0 0 19.978516 9.0839844 C 20.117102 7.4345013 19.394142 6.1416243 18.556641 5.3535156 C 18.079769 4.9047677 17.702251 4.8202628 17.263672 4.6054688 C 17.583344 3.8374662 17.733504 3.0940436 17.511719 2.4570312 C 17.197891 1.5556545 16.355483 1 15.5 1 z M 6.0820312 19.974609 C 5.3724069 19.96308 4.6583325 20.187575 4.0644531 20.650391 C 3.6136199 21.001822 3.0107485 20.96875 2 20.96875 A 1 1 0 0 0 1 21.96875 A 1 1 0 0 0 2 22.96875 C 2.8887515 22.96875 4.164102 23.108484 5.2929688 22.228516 C 5.6529901 21.947948 6.4454115 21.964471 6.78125 22.248047 C 7.4271706 22.793458 8.2295241 22.992255 9.0058594 22.992188 C 9.7821947 22.992121 10.564892 22.794518 11.210938 22.291016 C 11.65819 21.942454 12.38246 21.911334 12.78125 22.248047 C 14.124268 23.381888 16.022019 23.219251 17.292969 22.228516 C 17.653011 21.947935 18.445405 21.964465 18.78125 22.248047 C 19.890006 23.184189 21.210957 22.96875 22 22.96875 A 1 1 0 0 0 23 21.96875 A 1 1 0 0 0 22 20.96875 C 21.028443 20.96875 20.395909 20.99396 20.072266 20.720703 C 18.921111 19.748686 17.252211 19.72477 16.064453 20.650391 C 15.579203 21.028655 14.497448 21.079664 14.072266 20.720703 C 12.859856 19.697017 11.143969 19.809646 9.9824219 20.714844 C 9.799326 20.857542 9.4027758 20.992154 9.0039062 20.992188 C 8.6050365 20.992221 8.2371051 20.859892 8.0722656 20.720703 C 7.4966849 20.234692 6.7916557 19.986139 6.0820312 19.974609 z " fill="currentColor"/>
</svg>
