<svg xmlns="http://www.w3.org/2000/svg" width="1em" height="1em" viewBox="0 0 24 24" fill="currentColor">
  <path d="M 10.009766 1 C 8.7796384 1 7.87732 1.0228781 7.03125 1.1035156 A 1 1 0 0 0 7.0039062 1.0761719 A 1 1 0 0 0 6.9746094 1.1054688 C 6.8631998 1.1165845 6.687215 1.1047592 6.5800781 1.1191406 C 5.6487271 1.2441597 4.8036872 1.5430036 4.1738281 2.171875 C 3.5439655 2.8007428 3.2444271 3.6438225 3.1191406 4.5742188 C 2.9938541 5.504615 3 6.585785 3 8 L 3 10 A 1 1 0 0 0 4 11 A 1 1 0 0 0 5 10 L 5 8 C 5 6.585785 5.0068315 5.5452831 5.1015625 4.8417969 C 5.1962935 4.1383106 5.3357301 3.8357497 5.5859375 3.5859375 C 5.6689132 3.5030919 5.8964929 3.4869615 6.0039062 3.4257812 L 6.0039062 16 C 6.0039062 17.4142 5.9977662 18.49539 6.1230469 19.425781 C 6.2483319 20.356172 6.5478857 21.19925 7.1777344 21.828125 C 7.8075925 22.457003 8.6526365 22.755837 9.5839844 22.880859 C 10.515332 23.005882 11.597222 23 13.013672 23 C 14.430122 23 15.512015 23.0059 16.443359 22.880859 C 17.374704 22.755837 18.219744 22.456989 18.849609 21.828125 C 19.479482 21.199254 19.779006 20.356177 19.904297 19.425781 C 20.029588 18.495385 20.023438 17.4142 20.023438 16 L 20.023438 7.25 C 20.023438 6.4225774 20.080317 6.2590017 20.574219 5.6015625 A 1.0001 1.0001 0 0 0 20.574219 5.5996094 C 20.723504 5.400839 21.18201 4.9193065 21.544922 4.3261719 C 21.726378 4.0296046 21.898508 3.6921173 21.970703 3.2675781 C 22.042899 2.843039 21.970666 2.2984456 21.673828 1.8671875 C 21.299895 1.3237439 20.681076 1.1316957 20.148438 1.0625 C 19.615799 0.99330425 19.033338 1 18.273438 1 L 10.009766 1 z M 10.009766 3 L 18.273438 3 C 19.033338 3 19.588713 3.0056999 19.890625 3.0449219 C 19.916493 3.0482823 19.934226 3.050522 19.947266 3.0507812 C 19.927506 3.109273 19.903845 3.175405 19.837891 3.2832031 C 19.631999 3.6197005 19.268724 4.0087879 18.974609 4.4003906 C 18.381622 5.1902477 18.073752 6.0267323 18.029297 7 L 16 7 A 1 1 0 0 0 15 8 A 1 1 0 0 0 16 9 L 18.023438 9 L 18.023438 10.333984 L 16 10.333984 A 1 1 0 0 0 15 11.333984 A 1 1 0 0 0 16 12.333984 L 18.023438 12.333984 L 18.023438 13.666016 L 16 13.666016 A 1 1 0 0 0 15 14.666016 A 1 1 0 0 0 16 15.666016 L 18.023438 15.666016 L 18.023438 16 C 18.023438 16.356942 18.023656 16.690079 18.021484 17 L 16 17 A 1 1 0 0 0 15 18 A 1 1 0 0 0 16 19 L 17.941406 19 C 17.935434 19.054512 17.92874 19.107242 17.921875 19.158203 C 17.827145 19.861682 17.687727 20.164234 17.4375 20.414062 C 17.187266 20.663899 16.88284 20.803786 16.177734 20.898438 C 15.472629 20.99309 14.430122 21 13.013672 21 C 11.597222 21 10.554719 20.99309 9.8496094 20.898438 C 9.1444997 20.803786 8.8420087 20.663885 8.5917969 20.414062 C 8.3415856 20.164238 8.2001988 19.861687 8.1054688 19.158203 C 8.0107386 18.454719 8.0039062 17.4142 8.0039062 16 L 8.0039062 3.0644531 C 8.6105835 3.0384858 9.1117986 3 10.009766 3 z " fill="currentColor"/>
</svg>
