<svg xmlns="http://www.w3.org/2000/svg" width="1em" height="1em" viewBox="0 0 24 24" fill="currentColor">
  <path d="M 17.525391 1 A 1 1 0 0 0 17.394531 1.0136719 C 16.825768 1.1084479 16.131983 1.3663711 15.539062 1.9804688 C 14.946141 2.5945665 14.56689 3.6295175 14.798828 4.7890625 C 14.952184 5.5557453 14.909559 6.0849932 14.830078 6.4121094 C 14.770468 6.6574465 14.659162 6.8012406 14.65625 6.8164062 L 14.658203 6.8164062 L 14.660156 6.8144531 C 14.665724 6.8108828 14.677132 6.8022596 14.695312 6.7871094 A 1 1 0 0 0 14.568359 8.1953125 A 1 1 0 0 0 15.976562 8.3242188 C 16.389215 7.9803372 16.615944 7.5329594 16.773438 6.8847656 C 16.930933 6.2365718 16.963965 5.4075816 16.761719 4.3964844 C 16.638056 3.7782494 16.77681 3.577981 16.976562 3.3710938 C 17.176316 3.1642064 17.55052 3.0150122 17.722656 2.9863281 A 1 1 0 0 0 18.544922 1.8359375 A 1 1 0 0 0 17.525391 1 z M 13.044922 1.0019531 A 1 1 0 0 0 12.916016 1.0195312 C 12.311803 1.1403657 11.602932 1.4754777 11.033203 2.1835938 C 10.463474 2.8917097 10.131588 3.9791427 10.347656 5.2753906 C 10.510492 6.2522799 10.458104 6.7887954 10.390625 7.0429688 C 10.323145 7.2971421 10.305175 7.2827203 10.183594 7.4042969 A 1 1 0 0 0 10.183594 8.8183594 A 1 1 0 0 0 11.597656 8.8183594 C 11.772375 8.6436459 12.154724 8.1950622 12.324219 7.5566406 C 12.493713 6.918219 12.51503 6.1037063 12.322266 4.9472656 C 12.182734 4.1101835 12.368876 3.714569 12.591797 3.4375 C 12.814718 3.160431 13.172007 3.0077843 13.308594 2.9804688 A 1 1 0 0 0 14.09375 1.8046875 A 1 1 0 0 0 13.044922 1.0019531 z M 8.1308594 5.4453125 A 1 1 0 0 0 8 5.4511719 C 6.4720848 5.6203602 5.1525811 5.9118194 4.1308594 6.3339844 C 3.6199985 6.5450669 3.1784224 6.7833157 2.8085938 7.1171875 C 2.438765 7.4510593 2.109375 7.9484057 2.109375 8.5488281 C 2.109375 9.3264098 2.622548 9.8846836 3.15625 10.25 C 3.3490345 10.38196 3.6379197 10.450388 3.8613281 10.558594 C 3.5129482 10.920098 3.2207031 11.361362 3.2207031 11.925781 C 3.2207031 12.895539 3.9302106 13.535317 4.6816406 13.957031 C 4.9873518 14.128601 5.4515001 14.201893 5.8183594 14.333984 C 5.644985 14.632914 5.4433594 14.919264 5.4433594 15.304688 C 5.4433594 15.440228 5.4573532 15.572018 5.484375 15.699219 C 4.4030183 15.932438 3.5109309 16.236335 2.7910156 16.625 C 1.7867805 17.167162 1 18.000418 1 19.070312 C 1 19.935984 1.5705828 20.585533 2.2167969 21.033203 C 2.863011 21.480873 3.677756 21.817147 4.6484375 22.101562 C 6.5898004 22.670395 9.1594009 23 12 23 C 14.840575 23 17.410194 22.670395 19.351562 22.101562 C 20.322247 21.817148 21.136986 21.480872 21.783203 21.033203 C 22.429421 20.585534 23 19.935989 23 19.070312 A 1 1 0 0 0 22 18.070312 A 1 1 0 0 0 21 19.056641 L 20.998047 19.056641 L 20.996094 19.058594 C 20.983785 19.07676 20.92541 19.194094 20.644531 19.388672 C 20.278686 19.642112 19.628028 19.935819 18.789062 20.181641 C 17.111131 20.673284 14.682225 21 12 21 C 9.3177491 21 6.8888621 20.673284 5.2109375 20.181641 C 4.3719752 19.935819 3.7213092 19.642111 3.3554688 19.388672 C 3.0638292 19.186636 3.0112767 19.067624 3.0019531 19.056641 L 3 19.056641 C 3.0078752 18.964714 3.1019524 18.729358 3.7402344 18.384766 C 4.3843321 18.037033 5.474566 17.692589 6.9472656 17.462891 C 7.1792086 17.596462 7.4282616 17.714814 7.6933594 17.822266 C 8.8628273 18.296282 10.354373 18.554688 11.998047 18.554688 C 12.844595 18.554688 13.652121 18.484977 14.394531 18.353516 A 1 1 0 0 0 15.205078 17.193359 A 1 1 0 0 0 14.046875 16.382812 C 13.428285 16.492351 12.731698 16.554688 11.998047 16.554688 C 10.573431 16.554688 9.2865671 16.309733 8.4453125 15.96875 C 8.0246852 15.798258 7.7200432 15.602469 7.5703125 15.458984 C 7.4787781 15.371268 7.4525232 15.324425 7.4453125 15.306641 L 7.4472656 15.306641 L 7.4492188 15.306641 L 7.4511719 15.306641 C 7.4912161 15.290018 7.7008471 15.095638 7.9394531 14.921875 C 8.8554277 15.06726 9.8247826 15.177734 10.886719 15.177734 C 12.67877 15.177734 14.315642 14.957179 15.621094 14.5625 A 1 1 0 0 0 16.289062 13.314453 A 1 1 0 0 0 15.042969 12.646484 C 13.989421 12.965005 12.509468 13.177734 10.886719 13.177734 C 9.7740254 13.177734 8.7310435 13.080164 7.84375 12.914062 C 6.8920706 12.735895 6.1157488 12.468576 5.6601562 12.212891 C 5.4244492 12.080608 5.314407 11.975381 5.2636719 11.921875 C 5.2868454 11.898744 5.3209835 11.868515 5.3691406 11.830078 C 5.5679509 11.671396 5.9634869 11.460342 6.4941406 11.28125 A 1 1 0 0 0 6.5058594 11.271484 C 7.8348281 11.53614 9.1987983 11.800781 10.886719 11.800781 C 13.142297 11.800781 15.180525 11.540776 16.726562 11.083984 A 1 1 0 0 0 17.402344 9.8417969 A 1 1 0 0 0 16.160156 9.1660156 C 14.882793 9.5434244 12.98374 9.8007811 10.886719 9.8007812 C 8.8171513 9.8007812 6.9430065 9.5493977 5.6660156 9.1796875 C 5.0275202 8.9948324 4.538608 8.7730958 4.2851562 8.5996094 C 4.2503712 8.5757992 4.2292825 8.5650506 4.2167969 8.5605469 C 4.3420589 8.4600381 4.5615943 8.3192068 4.8945312 8.1816406 C 5.6418696 7.8728481 6.8229252 7.5920617 8.21875 7.4375 A 1 1 0 0 0 9.1035156 6.3339844 A 1 1 0 0 0 8.1308594 5.4453125 z M 19.462891 7.6777344 C 19.151692 7.6898609 18.831492 7.736336 18.507812 7.8203125 A 1 1 0 0 0 17.791016 9.0390625 A 1 1 0 0 0 19.009766 9.7558594 C 19.822696 9.5449503 20.240445 9.7030824 20.529297 9.9609375 C 20.818149 10.218793 21.023735 10.691261 20.996094 11.34375 C 20.940814 12.648727 19.912142 14.523322 17.212891 15.503906 A 1 1 0 0 0 16.615234 16.785156 A 1 1 0 0 0 17.896484 17.382812 C 21.219033 16.175798 22.898848 13.677169 22.994141 11.427734 C 23.041787 10.303017 22.682742 9.2020188 21.861328 8.46875 C 21.450621 8.1021156 20.937273 7.8567623 20.363281 7.7441406 C 20.076286 7.6878298 19.774089 7.6656078 19.462891 7.6777344 z " fill="currentColor"/>
</svg>
