<svg xmlns="http://www.w3.org/2000/svg" width="1em" height="1em" viewBox="0 0 24 24" fill="currentColor">
  <path d="M 11.369141 1 C 10.586441 1 9.9786006 0.99589302 9.4160156 1.0625 C 8.8534307 1.129107 8.2967191 1.2913389 7.8320312 1.6386719 C 6.9702146 2.2828441 6.6838759 3.1987686 6.2519531 4.5566406 C 5.9165619 4.5784108 5.5988993 4.6090129 5.296875 4.6503906 C 4.1460186 4.8080597 3.1451413 5.1766474 2.4003906 5.9355469 C 1.6556434 6.6944496 1.3023436 7.700691 1.1484375 8.8671875 C 0.99453141 10.033684 1 11.42332 1 13.25 C 1 15.0767 0.994532 16.466307 1.1484375 17.632812 C 1.3023433 18.799318 1.6556535 19.807487 2.4003906 20.566406 C 3.1451465 21.325271 4.1460244 21.691949 5.296875 21.849609 C 6.4477256 22.007269 7.8128437 22 9.6054688 22 L 11.005859 22 A 1 1 0 0 0 12.005859 21 A 1 1 0 0 0 11.005859 20 L 9.6054688 20 C 7.8128436 20 6.4885812 19.993253 5.5683594 19.867188 C 4.6481375 19.741122 4.1971691 19.540098 3.828125 19.164062 C 3.4590721 18.787982 3.2554011 18.315039 3.1308594 17.371094 C 3.0063177 16.427149 3 15.0767 3 13.25 C 3 11.42332 3.006318 10.07284 3.1308594 9.1289062 C 3.2554008 8.1849726 3.4590822 7.7119947 3.828125 7.3359375 C 4.1971743 6.959877 4.6481433 6.7588835 5.5683594 6.6328125 C 6.4885755 6.5067415 7.8128437 6.5 9.6054688 6.5 L 13.408203 6.5 C 15.200803 6.5 16.52508 6.50674 17.445312 6.6328125 C 18.365545 6.758884 18.816506 6.9598855 19.185547 7.3359375 C 19.75339 7.9146017 19.955465 8.8640139 20 11.021484 A 1 1 0 0 0 21.021484 12 A 1 1 0 0 0 22 10.978516 C 21.953335 8.7178261 21.759238 7.1033427 20.613281 5.9355469 C 19.868522 5.1766389 18.867665 4.8080591 17.716797 4.6503906 C 17.409998 4.6083593 17.087385 4.5784908 16.746094 4.5566406 C 16.314613 3.1993327 16.029629 2.2826729 15.167969 1.6386719 C 14.703288 1.2913207 14.146568 1.1291072 13.583984 1.0625 C 13.0214 0.99589279 12.413559 1 11.630859 1 L 11.369141 1 z M 11.369141 3 L 11.630859 3 C 12.413559 3 12.98024 3.0053301 13.347656 3.0488281 C 13.715072 3.0923281 13.846184 3.1491087 13.970703 3.2421875 C 14.156076 3.3807337 14.332822 3.7091343 14.615234 4.5019531 C 14.234945 4.5004683 13.833839 4.5 13.408203 4.5 L 9.6054688 4.5 C 9.1747235 4.5 8.769102 4.5004042 8.3847656 4.5019531 C 8.6671988 3.7090925 8.8439461 3.3807295 9.0292969 3.2421875 C 9.153849 3.1490904 9.2829706 3.0923286 9.6503906 3.0488281 C 10.017811 3.0053276 10.586441 3 11.369141 3 z M 17.525391 13 C 15.037258 13 13 15.039318 13 17.527344 C 13 20.015442 15.037258 22.052734 17.525391 22.052734 C 18.403234 22.052734 19.178879 21.732652 19.875 21.294922 L 21.292969 22.708984 A 1 1 0 0 0 22.708984 22.705078 A 1 1 0 0 0 22.705078 21.291016 L 21.291016 19.880859 C 21.731055 19.183449 22.052734 18.407734 22.052734 17.527344 C 22.052728 15.039278 20.013451 13 17.525391 13 z M 17.525391 15 C 18.932531 15 20.052734 16.120204 20.052734 17.527344 C 20.052734 18.228739 19.771525 18.857094 19.318359 19.3125 A 1 1 0 0 0 19.308594 19.316406 A 1 1 0 0 0 19.306641 19.322266 C 18.851486 19.773627 18.225138 20.052734 17.525391 20.052734 C 16.118205 20.0527 15 18.934646 15 17.527344 C 15 16.12017 16.118123 15 17.525391 15 z " fill="currentColor"/>
</svg>
