<svg xmlns="http://www.w3.org/2000/svg" width="1em" height="1em" viewBox="0 0 24 24" fill="currentColor">
  <path d="M 11.369141 1 C 10.586441 1 9.9786006 0.99589302 9.4160156 1.0625 C 8.8534307 1.129107 8.2967191 1.2913389 7.8320312 1.6386719 C 6.9702146 2.2828441 6.6838759 3.1987686 6.2519531 4.5566406 C 5.9165619 4.5784108 5.5988993 4.6090129 5.296875 4.6503906 C 4.1460186 4.8080597 3.1451413 5.1766474 2.4003906 5.9355469 C 1.6556434 6.6944496 1.3023436 7.700691 1.1484375 8.8671875 C 0.99453141 10.033684 1 11.42332 1 13.25 C 1 15.0767 0.994532 16.466307 1.1484375 17.632812 C 1.3023433 18.799318 1.6556535 19.807487 2.4003906 20.566406 C 3.1451465 21.325271 4.1460244 21.691949 5.296875 21.849609 C 6.4477256 22.007269 7.8128437 22 9.6054688 22 L 11.005859 22 A 1 1 0 0 0 12.005859 21 A 1 1 0 0 0 11.005859 20 L 9.6054688 20 C 7.8128436 20 6.4885812 19.993253 5.5683594 19.867188 C 4.6481375 19.741122 4.1971691 19.540098 3.828125 19.164062 C 3.4590721 18.787982 3.2554011 18.315039 3.1308594 17.371094 C 3.0063177 16.427149 3 15.0767 3 13.25 C 3 11.42332 3.006318 10.07284 3.1308594 9.1289062 C 3.2554008 8.1849726 3.4590822 7.7119947 3.828125 7.3359375 C 4.1971743 6.959877 4.6481433 6.7588835 5.5683594 6.6328125 C 6.4885755 6.5067415 7.8128437 6.5 9.6054688 6.5 L 13.408203 6.5 C 15.200803 6.5 16.52508 6.50674 17.445312 6.6328125 C 18.365545 6.758884 18.816506 6.9598855 19.185547 7.3359375 C 19.554819 7.7122546 19.758368 8.1859025 19.882812 9.1308594 A 1 1 0 0 0 21.005859 9.9921875 A 1 1 0 0 0 21.865234 8.8691406 C 21.711479 7.7016175 21.358409 6.6948898 20.613281 5.9355469 C 19.868522 5.1766389 18.867665 4.8080591 17.716797 4.6503906 C 17.409998 4.6083593 17.087385 4.5784908 16.746094 4.5566406 C 16.314613 3.1993327 16.029629 2.2826729 15.167969 1.6386719 C 14.703288 1.2913207 14.146568 1.1291072 13.583984 1.0625 C 13.0214 0.99589279 12.413559 1 11.630859 1 L 11.369141 1 z M 11.369141 3 L 11.630859 3 C 12.413559 3 12.98024 3.0053301 13.347656 3.0488281 C 13.715072 3.0923281 13.846184 3.1491087 13.970703 3.2421875 C 14.156076 3.3807337 14.332822 3.7091343 14.615234 4.5019531 C 14.234945 4.5004683 13.833839 4.5 13.408203 4.5 L 9.6054688 4.5 C 9.1747235 4.5 8.769102 4.5004042 8.3847656 4.5019531 C 8.6671988 3.7090925 8.8439461 3.3807295 9.0292969 3.2421875 C 9.153849 3.1490904 9.2829706 3.0923286 9.6503906 3.0488281 C 10.017811 3.0053276 10.586441 3 11.369141 3 z M 20.5 12 C 19.13112 12 18 13.13112 18 14.5 C 18 14.54236 18.025224 14.57715 18.027344 14.619141 L 16.037109 15.613281 C 15.604074 15.25887 15.097048 15 14.5 15 C 13.13112 15 12 16.13112 12 17.5 C 12 18.86888 13.13112 20 14.5 20 C 15.097048 20 15.60407 19.74113 16.037109 19.386719 L 18.027344 20.380859 C 18.025219 20.422845 18 20.457638 18 20.5 C 18 21.86888 19.13112 23 20.5 23 C 21.86888 23 23 21.86888 23 20.5 C 23 19.13112 21.86888 18 20.5 18 C 19.902952 18 19.39593 18.25887 18.962891 18.613281 L 16.972656 17.619141 C 16.974781 17.577155 17 17.542362 17 17.5 C 17 17.45764 16.974776 17.42284 16.972656 17.380859 L 18.962891 16.386719 C 19.395926 16.74113 19.902952 17 20.5 17 C 21.86888 17 23 15.86888 23 14.5 C 23 13.13112 21.86888 12 20.5 12 z M 20.5 14 C 20.78792 14 21 14.21208 21 14.5 C 21 14.78792 20.78792 15 20.5 15 C 20.295974 15 20.134091 14.885072 20.052734 14.722656 C 20.01933 14.656013 20 14.583931 20 14.5 C 20 14.21208 20.21208 14 20.5 14 z M 14.5 17 C 14.704026 17 14.865909 17.114928 14.947266 17.277344 C 14.98067 17.343987 15 17.416069 15 17.5 C 15 17.58393 14.980666 17.656013 14.947266 17.722656 C 14.865905 17.885072 14.704026 18 14.5 18 C 14.21208 18 14 17.78792 14 17.5 C 14 17.21208 14.21208 17 14.5 17 z M 20.5 20 C 20.78792 20 21 20.21208 21 20.5 C 21 20.78792 20.78792 21 20.5 21 C 20.21208 21 20 20.78792 20 20.5 C 20 20.41607 20.019334 20.343987 20.052734 20.277344 C 20.134095 20.114928 20.295974 20 20.5 20 z " fill="currentColor"/>
</svg>
