<svg xmlns="http://www.w3.org/2000/svg" width="1em" height="1em" viewBox="0 0 24 24" fill="currentColor">
  <path d="M 7.8925781 1 C 7.4085731 1 7.0267968 0.99384283 6.6367188 1.0449219 C 6.2466408 1.0960009 5.7858157 1.2426323 5.4433594 1.5761719 C 5.1009118 1.9097144 4.9403414 2.3771665 4.8867188 2.765625 C 4.8330962 3.1540835 4.8398438 3.528595 4.8398438 4 L 4.8398438 4.9082031 L 2.2011719 19.474609 C 2.1025409 20.018962 2.0171133 20.443863 2.0019531 20.886719 C 1.9867931 21.329574 2.0871221 21.885977 2.4394531 22.294922 C 2.7916975 22.70388 3.3130509 22.884209 3.7539062 22.945312 C 4.1947615 23.006417 4.6395013 23 5.2070312 23 L 6.3769531 23 C 6.7424081 23 7.0356477 23.0037 7.3457031 22.96875 C 7.6557586 22.93377 8.0197638 22.837048 8.328125 22.615234 C 8.6364935 22.393424 8.8465529 22.073041 8.9746094 21.789062 C 9.1026658 21.505085 9.1854931 21.228874 9.2929688 20.888672 L 10.990234 15.513672 C 11.39163 14.242935 11.697625 13.299528 11.941406 12.775391 C 11.969386 12.715231 11.97419 12.723751 12 12.675781 C 12.02582 12.723751 12.030614 12.715231 12.058594 12.775391 C 12.302375 13.299528 12.60837 14.242935 13.009766 15.513672 L 14.707031 20.888672 C 14.814488 21.228893 14.897339 21.50508 15.025391 21.789062 C 15.153442 22.073045 15.363537 22.393422 15.671875 22.615234 A 1.0001 1.0001 0 0 0 15.671875 22.617188 C 15.980198 22.838908 16.344248 22.93377 16.654297 22.96875 C 16.964353 23.003683 17.257597 23 17.623047 23 L 18.792969 23 C 19.360469 23 19.805237 23.006403 20.246094 22.945312 C 20.686951 22.884213 21.208294 22.703956 21.560547 22.294922 C 21.912945 21.885966 22.013212 21.329569 21.998047 20.886719 C 21.982887 20.443868 21.897423 20.018933 21.798828 19.474609 L 19.160156 4.9082031 L 19.160156 4 C 19.160156 3.528595 19.166951 3.1541126 19.113281 2.765625 C 19.059635 2.3771374 18.899152 1.9096875 18.556641 1.5761719 C 18.214187 1.2426131 17.753358 1.0960014 17.363281 1.0449219 C 16.973205 0.99384236 16.591422 1 16.107422 1 L 7.8925781 1 z M 7.8925781 3 L 16.107422 3 C 16.591422 3 16.934417 3.0051998 17.103516 3.0273438 C 17.113768 3.0286863 17.122297 3.0300679 17.130859 3.03125 C 17.131216 3.0338209 17.132437 3.0363464 17.132812 3.0390625 C 17.154378 3.1952019 17.160156 3.528595 17.160156 4 L 12.041016 4 L 11.958984 4 L 6.8398438 4 C 6.8398438 3.528595 6.8456335 3.1952315 6.8671875 3.0390625 C 6.8675624 3.0363467 6.8687843 3.0338207 6.8691406 3.03125 C 6.8777052 3.0300677 6.8862292 3.0286867 6.8964844 3.0273438 C 7.0655885 3.0052006 7.4085731 3 7.8925781 3 z M 6.6757812 6 L 10.046875 6 L 9.1875 7.1933594 A 1 1 0 0 0 9.4160156 8.5898438 A 1 1 0 0 0 10.8125 8.3613281 L 11.923828 6.8164062 L 14.142578 10.513672 A 1 1 0 0 0 15.513672 10.857422 A 1 1 0 0 0 15.857422 9.4863281 L 13.765625 6 L 17.324219 6 L 19.832031 19.830078 C 19.930631 20.374455 19.993465 20.766207 20 20.957031 C 20.000042 20.958264 19.999959 20.959729 20 20.960938 C 19.990939 20.962237 19.981273 20.963379 19.970703 20.964844 C 19.767088 20.993068 19.360469 21 18.792969 21 L 17.623047 21 C 17.257597 21 17.002283 20.996302 16.878906 20.982422 C 16.869397 20.981349 16.861073 20.979444 16.853516 20.978516 C 16.851733 20.974599 16.849676 20.971274 16.847656 20.966797 C 16.800256 20.86168 16.722678 20.627288 16.615234 20.287109 L 14.916016 14.912109 C 14.514621 13.641313 14.218338 12.678228 13.871094 11.931641 C 13.697472 11.558347 13.514128 11.228792 13.224609 10.935547 C 12.935091 10.642302 12.468862 10.400391 12 10.400391 C 11.531138 10.400391 11.064909 10.642302 10.775391 10.935547 C 10.485872 11.228792 10.302528 11.558347 10.128906 11.931641 C 9.7816625 12.678228 9.4853885 13.641346 9.0839844 14.912109 L 7.3847656 20.287109 C 7.2772913 20.627307 7.1997473 20.861675 7.1523438 20.966797 C 7.1503234 20.971277 7.148268 20.974597 7.1464844 20.978516 C 7.1389287 20.979443 7.1305986 20.981352 7.1210938 20.982422 C 6.9977148 20.996377 6.7424081 21 6.3769531 21 L 5.2070312 21 C 4.6395013 21 4.232909 20.993104 4.0292969 20.964844 C 4.0187274 20.963379 4.0090606 20.962237 4 20.960938 C 4.0000412 20.959729 3.9999578 20.958264 4 20.957031 C 4.00653 20.766212 4.0693391 20.374425 4.1679688 19.830078 L 6.6757812 6 z " fill="currentColor"/>
</svg>
