<svg xmlns="http://www.w3.org/2000/svg" width="1em" height="1em" viewBox="0 0 24 24" fill="currentColor">
  <path d="M 8 1 C 5.8027068 1 4 2.8027068 4 5 C 4 6.852425 5.2812396 8.4252301 7 8.8730469 L 7 15.023438 C 6.5320337 15.056152 6.1269606 15.132337 5.7109375 15.304688 C 4.9180635 15.633387 4.4017606 16.184167 3.5351562 17.050781 L 2.9140625 17.671875 C 2.8789165 17.707015 2.8569201 17.729723 2.8300781 17.757812 A 1.0001 1.0001 0 0 0 2.828125 17.757812 C 2.3134636 18.29766 2.017767 19.012048 2 19.757812 C 1.9990335 19.798172 2 19.829502 2 19.878906 C 2 19.991506 1.9998308 20.057378 2.0039062 20.142578 C 2.0771263 21.678422 3.3215895 22.922859 4.8574219 22.996094 C 4.9429957 23.000226 5.0084437 23 5.1210938 23 L 18.878906 23 C 18.990678 23 19.057789 23.000136 19.142578 22.996094 C 20.677782 22.922894 21.921923 21.679495 21.996094 20.144531 L 21.996094 20.142578 C 22.000094 20.057788 22 19.990678 22 19.878906 C 22 19.830286 22.000987 19.798116 22 19.757812 L 22 19.755859 C 21.98186 19.010677 21.686094 18.297196 21.171875 17.757812 C 21.144075 17.728652 21.120838 17.706775 21.085938 17.671875 L 20.464844 17.050781 C 19.598217 16.184155 19.081906 15.633381 18.289062 15.304688 C 17.495565 14.975946 16.741925 15 15.515625 15 L 9 15 L 9 8.8730469 C 10.71876 8.4252301 12 6.852425 12 5 C 12 2.8027068 10.197293 1 8 1 z M 8 3 C 9.1164068 3 10 3.8835932 10 5 C 10 6.1164047 9.1164038 6.9999966 8 7 C 6.8835932 7 6 6.1164068 6 5 C 6 3.8835932 6.8835932 3 8 3 z M 14 12 A 1 1 0 0 0 13 13 A 1 1 0 0 0 14 14 L 17 14 A 1 1 0 0 0 18 13 A 1 1 0 0 0 17 12 L 14 12 z M 8.484375 17 L 15.515625 17 C 16.741925 17 17.214335 17.02428 17.523438 17.152344 C 17.832459 17.280313 18.183681 17.597744 19.050781 18.464844 L 19.671875 19.085938 C 19.706775 19.120838 19.719619 19.133432 19.724609 19.138672 C 19.896561 19.319039 19.994094 19.555746 20 19.804688 A 1.0001 1.0001 0 0 0 20 19.806641 C 20.000161 19.813041 20 19.829496 20 19.878906 C 20 19.991506 19.998547 20.03757 19.998047 20.046875 C 19.973077 20.570437 19.570437 20.973081 19.046875 20.998047 C 19.037575 20.998497 18.991505 21 18.878906 21 L 5.1210938 21 C 5.0084437 21 4.962744 20.998547 4.953125 20.998047 C 4.4295774 20.973036 4.0269132 20.570431 4.0019531 20.046875 C 4.0014848 20.037075 4 19.991506 4 19.878906 C 4 19.829506 3.9998265 19.811938 4 19.804688 C 4.00593 19.555653 4.103452 19.319025 4.2753906 19.138672 C 4.2814306 19.132372 4.293452 19.120597 4.328125 19.085938 L 4.9492188 18.464844 C 5.816321 17.597732 6.1675528 17.280306 6.4765625 17.152344 C 6.7856702 17.024285 7.258125 17 8.484375 17 z " fill="currentColor"/>
</svg>
