<svg xmlns="http://www.w3.org/2000/svg" width="1em" height="1em" viewBox="0 0 24 24" fill="currentColor">
  <path d="M 12 1.5 C 9.76083 1.5 8.061073 1.4944581 6.6542969 1.6835938 C 5.2475207 1.8727295 4.0688969 2.2982969 3.1835938 3.1835938 C 2.2982969 4.0688968 1.8727295 5.2475207 1.6835938 6.6542969 C 1.494458 8.061073 1.5 9.76083 1.5 12 C 1.5 14.23915 1.4944601 15.93892 1.6835938 17.345703 C 1.8727292 18.752486 2.2983047 19.931079 3.1835938 20.816406 C 4.0688995 21.70168 5.2475238 22.127276 6.6542969 22.316406 C 8.0610699 22.505536 9.76083 22.5 12 22.5 C 14.23915 22.5 15.938923 22.5055 17.345703 22.316406 C 18.752483 22.127277 19.931076 21.701673 20.816406 20.816406 C 21.701673 19.931076 22.127277 18.752483 22.316406 17.345703 C 22.505536 15.938923 22.5 14.23915 22.5 12 C 22.5 9.76083 22.5055 8.0610699 22.316406 6.6542969 C 22.127276 5.2475238 21.70168 4.0688995 20.816406 3.1835938 C 19.931079 2.2983046 18.752486 1.8727291 17.345703 1.6835938 C 15.93892 1.4944584 14.23915 1.5 12 1.5 z M 12 3.5 C 14.23915 3.5 15.897908 3.50539 17.078125 3.6640625 C 18.258342 3.8227371 18.896371 4.0917053 19.402344 4.5976562 C 19.90827 5.1036005 20.177267 5.7416656 20.335938 6.921875 C 20.494609 8.1020844 20.5 9.76083 20.5 12 C 20.5 14.23915 20.4946 15.897905 20.335938 17.078125 C 20.177267 18.258345 19.908277 18.896374 19.402344 19.402344 C 18.896374 19.908277 18.258345 20.177267 17.078125 20.335938 C 15.897905 20.494609 14.23915 20.5 12 20.5 C 9.76083 20.5 8.1020844 20.494608 6.921875 20.335938 C 5.7416656 20.177267 5.1036004 19.90827 4.5976562 19.402344 C 4.0917053 18.896371 3.8227371 18.258342 3.6640625 17.078125 C 3.5053879 15.897908 3.5 14.23915 3.5 12 C 3.5 9.76083 3.5053882 8.1020814 3.6640625 6.921875 C 3.8227368 5.7416686 4.091713 5.1036031 4.5976562 4.5976562 C 5.1036031 4.0917131 5.7416686 3.8227368 6.921875 3.6640625 C 8.1020814 3.5053882 9.76083 3.5 12 3.5 z M 8 11 A 1 1 0 0 0 7 12 L 7 16.5 C 7 16.787945 6.7879699 17 6.5 17 C 6.2120301 17 6 16.787945 6 16.5 L 6 16 A 1 1 0 0 0 5 15 A 1 1 0 0 0 4 16 L 4 16.5 C 4 17.868855 5.1311099 19 6.5 19 C 7.8688901 19 9 17.868855 9 16.5 L 9 12 A 1 1 0 0 0 8 11 z M 11.699219 11 C 10.496003 11 9.5 11.996003 9.5 13.199219 L 9.5 13.800781 C 9.5 15.003997 10.496003 16 11.699219 16 L 12.300781 16 C 12.422965 16 12.5 16.077035 12.5 16.199219 L 12.5 16.800781 C 12.5 16.922965 12.422965 17 12.300781 17 L 10.5 17 A 1 1 0 0 0 9.5 18 A 1 1 0 0 0 10.5 19 L 12.300781 19 C 13.503997 19 14.5 18.003997 14.5 16.800781 L 14.5 16.199219 C 14.5 14.996003 13.503997 14 12.300781 14 L 11.699219 14 C 11.577035 14 11.5 13.922965 11.5 13.800781 L 11.5 13.199219 C 11.5 13.077035 11.577035 13 11.699219 13 L 13.5 13 A 1 1 0 0 0 14.5 12.003906 A 1 1 0 0 0 14.636719 12.503906 L 16.09375 15 L 14.636719 17.496094 A 1 1 0 0 0 14.996094 18.863281 A 1 1 0 0 0 16.363281 18.503906 L 17.25 16.984375 L 18.136719 18.503906 A 1 1 0 0 0 19.503906 18.863281 A 1 1 0 0 0 19.863281 17.496094 L 18.40625 15 L 19.863281 12.503906 A 1 1 0 0 0 19.503906 11.136719 A 1 1 0 0 0 18.136719 11.496094 L 17.25 13.015625 L 16.363281 11.496094 A 1 1 0 0 0 15.753906 11.033203 A 1 1 0 0 0 14.996094 11.136719 A 1 1 0 0 0 14.5 12 A 1 1 0 0 0 13.5 11 L 11.699219 11 z " fill="currentColor"/>
</svg>
