<svg xmlns="http://www.w3.org/2000/svg" width="1em" height="1em" viewBox="0 0 24 24" fill="currentColor">
  <path d="M 12 1 C 9.2171244 1 6.6643005 2.0389895 4.7265625 3.7480469 C 4.6838805 3.785692 4.6573243 3.8386591 4.6152344 3.8769531 A 1 1 0 0 0 4.5957031 3.8886719 A 1 1 0 0 0 4.5917969 3.9042969 C 3.2094211 5.1702724 2.1587643 6.781122 1.5644531 8.6074219 A 1 1 0 0 0 1.5488281 8.6425781 C 1.5296645 8.70219 1.4888747 8.7504933 1.4707031 8.8105469 C 1.1649094 9.8211007 1 10.892599 1 12 C 1 16.112461 3.2651804 19.711012 6.6191406 21.595703 C 6.6350476 21.604603 6.6539659 21.608327 6.6699219 21.617188 A 1 1 0 0 0 6.6992188 21.626953 C 8.272999 22.495168 10.079609 23 12 23 C 16.606491 23 20.565825 20.159365 22.199219 16.126953 C 22.245909 16.011683 22.228624 15.871098 22.271484 15.753906 C 22.70276 14.57455 23 13.325102 23 12 C 23 11.740746 22.990349 11.48347 22.972656 11.228516 C 22.903511 10.230589 22.701135 9.2674629 22.382812 8.359375 C 20.879153 4.0702671 16.789939 1 12 1 z M 12 3 C 15.207764 3 17.945572 4.7151559 19.539062 7.2304688 C 18.984719 6.9340525 18.486826 6.5303796 17.837891 6.0703125 C 16.585892 5.1826997 14.752367 4.3620588 11.783203 5.0234375 C 9.6094006 5.507652 8.3079647 5.0373152 7.3125 4.4804688 C 8.6932809 3.6161589 10.245761 3 12 3 z M 5.6132812 5.7539062 C 6.8072416 6.56081 8.8979558 7.7158343 12.216797 6.9765625 C 14.747633 6.4128212 15.604089 6.9372345 16.681641 7.7011719 C 17.59899 8.3515326 18.832128 9.2021087 20.589844 9.4804688 C 20.706439 9.877897 20.782635 10.290485 20.84375 10.708984 C 18.799692 11.791916 17.264632 12.172243 15.740234 11.933594 C 14.046306 11.668404 12.156766 10.684208 9.5039062 9.1367188 C 7.5678613 8.0073578 5.7364561 7.8356021 4.0429688 7.96875 C 4.4597872 7.1487177 4.9759603 6.4057169 5.6132812 5.7539062 z M 4.8339844 9.7773438 C 5.0135717 9.7730689 5.197997 9.7793104 5.3867188 9.7988281 C 6.3537481 9.8988393 7.3929653 10.219789 8.4960938 10.863281 C 11.178134 12.427792 13.239669 13.566996 15.431641 13.910156 C 17.13538 14.176882 18.910106 13.723375 20.832031 12.865234 C 20.763731 13.548606 20.661466 14.2189 20.449219 14.847656 C 17.083444 14.945006 14.054589 15.595118 10.945312 17.667969 C 9.5929408 18.569527 8.3437714 19.125448 7.2089844 19.560547 C 4.6977614 17.964726 3 15.204143 3 12 C 3 11.303692 3.1460372 10.65088 3.2949219 10.001953 C 3.7931995 9.8953114 4.2952223 9.7901684 4.8339844 9.7773438 z M 8 12.5 C 7.2450419 12.5 6.5435737 12.720732 5.9863281 13.138672 C 5.4290825 13.556611 5 14.225495 5 15 C 5 15.774505 5.4290825 16.443389 5.9863281 16.861328 C 6.5435737 17.279268 7.2450419 17.5 8 17.5 C 8.7549581 17.5 9.4564262 17.279268 10.013672 16.861328 C 10.570917 16.443389 11 15.774505 11 15 C 11 14.225495 10.570917 13.556611 10.013672 13.138672 C 9.4564262 12.720732 8.7549581 12.5 8 12.5 z M 8 14.5 C 8.3496119 14.5 8.6478412 14.615274 8.8144531 14.740234 C 8.981065 14.865195 9 14.946105 9 15 C 9 15.053895 8.981065 15.134805 8.8144531 15.259766 C 8.6478412 15.384726 8.3496119 15.5 8 15.5 C 7.6503881 15.5 7.3521588 15.384726 7.1855469 15.259766 C 7.018935 15.134805 7 15.053895 7 15 C 7 14.946105 7.018935 14.865195 7.1855469 14.740234 C 7.3521588 14.615274 7.6503881 14.5 8 14.5 z M 19.414062 16.957031 C 17.80126 19.365517 15.12576 21 12 21 C 11.127182 21 10.295642 20.855577 9.5 20.625 C 10.349487 20.217137 11.137296 19.94361 12.054688 19.332031 C 14.509185 17.695699 16.820043 17.155927 19.414062 16.957031 z " fill="currentColor"/>
</svg>
