<svg xmlns="http://www.w3.org/2000/svg" width="1em" height="1em" viewBox="0 0 24 24" fill="currentColor">
  <path d="M 12 1 C 10.631145 1 9.5 2.1311099 9.5 3.5 C 9.5 3.857788 9.5782019 4.1984631 9.7167969 4.5078125 C 9.0365328 4.7986735 8.3927849 5.2256022 7.8222656 5.7871094 C 7.0013969 6.5949986 6.0331604 7 5.0488281 7 L 4 7 A 1 1 0 0 0 3 8 A 1 1 0 0 0 3.8847656 8.9941406 L 2.2988281 12.166016 C 1.925384 12.309287 1.543968 12.577241 1.3183594 12.927734 C 1.0642275 13.322469 0.95067035 13.891988 1.0371094 14.324219 C 1.1235484 14.75645 1.2916599 15.048517 1.4570312 15.380859 C 2.2177377 16.909343 3.7350107 18 5.5 18 C 7.2649823 18 8.7822699 16.909357 9.5429688 15.380859 C 9.708346 15.048515 9.8764487 14.756452 9.9628906 14.324219 C 10.049333 13.891985 9.9357726 13.322469 9.6816406 12.927734 C 9.4560313 12.57724 9.0746172 12.309286 8.7011719 12.166016 L 6.9492188 8.6640625 C 7.7827856 8.3631583 8.5588942 7.8680796 9.2246094 7.2128906 C 9.7774963 6.6687373 10.380109 6.30235 11 6.1132812 L 11 21 L 9 21 A 1 1 0 0 0 8 22 A 1 1 0 0 0 9 23 L 12 23 L 15 23 A 1 1 0 0 0 16 22 A 1 1 0 0 0 15 21 L 13 21 L 13 6.1132812 C 13.619891 6.30235 14.222504 6.6687372 14.775391 7.2128906 C 15.441104 7.8680781 16.21721 8.3631571 17.050781 8.6640625 L 15.298828 12.166016 C 14.925383 12.309291 14.543968 12.577253 14.318359 12.927734 C 14.064205 13.322478 13.950675 13.891997 14.037109 14.324219 C 14.123549 14.75644 14.291695 15.048536 14.457031 15.380859 C 15.217786 16.909315 16.735025 18 18.5 18 C 20.264975 18 21.782214 16.90932 22.542969 15.380859 C 22.708305 15.048536 22.876456 14.75644 22.962891 14.324219 C 23.049321 13.891997 22.935791 13.322478 22.681641 12.927734 C 22.456031 12.577251 22.074618 12.30929 21.701172 12.166016 L 20.115234 8.9941406 A 1 1 0 0 0 21 8 A 1 1 0 0 0 20 7 L 18.951172 7 C 17.966791 7 16.998613 6.5950081 16.177734 5.7871094 C 15.607215 5.2256023 14.963467 4.7986735 14.283203 4.5078125 C 14.421798 4.1984631 14.5 3.857788 14.5 3.5 C 14.5 2.1311099 13.368855 1 12 1 z M 12 3 C 12.287945 3 12.5 3.2120301 12.5 3.5 C 12.5 3.7879688 12.287943 3.9999984 12 4 C 11.712055 4 11.5 3.7879699 11.5 3.5 C 11.5 3.2120301 11.712055 3 12 3 z M 5.5 10.236328 L 6.3828125 12 L 4.6171875 12 L 5.5 10.236328 z M 18.5 10.236328 L 19.382812 12 L 17.617188 12 L 18.5 10.236328 z M 3.9589844 14 L 7.0410156 14 C 7.5162677 14 7.8197203 14.014669 7.9550781 14.037109 C 7.9285341 14.107429 7.8861461 14.220559 7.7519531 14.490234 C 7.2869719 15.424536 6.4444377 16 5.5 16 C 4.5555493 16 3.7130404 15.424546 3.2480469 14.490234 C 3.1138575 14.220557 3.0714655 14.107435 3.0449219 14.037109 C 3.1802797 14.014671 3.4837323 14 3.9589844 14 z M 16.958984 14 L 20.041016 14 C 20.516291 14 20.819718 14.014669 20.955078 14.037109 C 20.928528 14.107449 20.886128 14.220541 20.751953 14.490234 C 20.286908 15.424573 19.444425 16 18.5 16 C 17.555575 16 16.713092 15.424574 16.248047 14.490234 C 16.11387 14.220541 16.071468 14.107445 16.044922 14.037109 C 16.180282 14.014671 16.483709 14 16.958984 14 z " fill="currentColor"/>
</svg>
