<svg xmlns="http://www.w3.org/2000/svg" width="1em" height="1em" viewBox="0 0 24 24" fill="currentColor">
  <path d="M 12 2 C 8.25027 2 6.1528417 1.9257667 4.4726562 3.1464844 C 3.963298 3.5165602 3.5165602 3.963298 3.1464844 4.4726562 C 1.9257667 6.1528417 2 8.25027 2 12 C 2 15.7497 1.92575 17.847174 3.1464844 19.527344 C 3.5165632 20.036742 3.9632897 20.483434 4.4726562 20.853516 C 6.152842 22.074221 8.25027 22 12 22 C 15.7497 22 17.847174 22.07424 19.527344 20.853516 C 20.03675 20.483431 20.483431 20.03675 20.853516 19.527344 C 22.074237 17.847174 22 15.7497 22 12 C 22 8.25027 22.074221 6.1528419 20.853516 4.4726562 C 20.483434 3.9632897 20.036742 3.5165632 19.527344 3.1464844 C 17.847174 1.9257505 15.7497 2 12 2 z M 12 4 C 15.7497 4 17.403132 4.074586 18.351562 4.7636719 C 18.691164 5.0103931 18.98961 5.308864 19.236328 5.6484375 C 19.925423 6.5969119 20 8.25027 20 12 C 20 15.7497 19.92541 17.403132 19.236328 18.351562 C 18.989613 18.691157 18.691156 18.989613 18.351562 19.236328 C 17.403132 19.925407 15.7497 20 12 20 C 8.25027 20 6.5969119 19.925423 5.6484375 19.236328 C 5.308864 18.98961 5.0103931 18.691164 4.7636719 18.351562 C 4.0745858 17.403132 4 15.7497 4 12 C 4 8.25027 4.0745696 6.596912 4.7636719 5.6484375 C 5.0103961 5.3088557 5.3088557 5.0103961 5.6484375 4.7636719 C 6.596912 4.0745696 8.25027 4 12 4 z M 7 6 A 1 1 0 0 0 6 7 L 6 14 A 1 1 0 0 0 7 15 A 1 1 0 0 0 8 14 L 8 7 A 1 1 0 0 0 7 6 z M 12 6 A 1 1 0 0 0 11 7 L 11 11 A 1 1 0 0 0 12 12 A 1 1 0 0 0 13 11 L 13 7 A 1 1 0 0 0 12 6 z M 17 6 A 1 1 0 0 0 16 7 L 16 17 A 1 1 0 0 0 17 18 A 1 1 0 0 0 18 17 L 18 7 A 1 1 0 0 0 17 6 z " fill="currentColor"/>
</svg>
