<svg xmlns="http://www.w3.org/2000/svg" width="1em" height="1em" viewBox="0 0 24 24" fill="currentColor">
  <path d="M 4.3378906 1.0058594 C 4.1213389 1.0051891 3.9179686 1.0424994 3.7480469 1.0976562 C 3.4082035 1.2079699 3.1580828 1.371904 2.953125 1.5214844 C 2.3099587 1.9908659 1.8351761 2.4629139 1.3984375 3.1347656 C 1.1007905 3.5926458 0.79073261 4.3331958 1.1679688 5.1191406 C 1.6463234 6.1157809 2.6306125 6.4955586 3.5117188 6.671875 C 4.1539757 6.8003958 4.7392538 6.7230283 5.3183594 6.6601562 L 6.5371094 7.8925781 C 3.384467 11.506664 1.5503228 16.313759 2.0371094 21.027344 A 1.0001 1.0001 0 0 0 2.9296875 21.919922 C 7.62183 22.402115 12.406989 20.601575 16.021484 17.494141 L 17.308594 18.796875 C 17.318754 20.989562 17.921414 22.38803 18.996094 22.859375 C 19.439519 23.053808 19.912174 23.012854 20.251953 22.902344 C 20.591732 22.791833 20.843923 22.628277 21.048828 22.478516 C 21.691635 22.008714 22.165233 21.535453 22.601562 20.863281 C 22.89876 20.405267 23.207757 19.664633 22.830078 18.878906 C 22.35106 17.882599 21.367543 17.50388 20.486328 17.328125 C 19.84399 17.200013 19.258741 17.278567 18.679688 17.341797 L 17.466797 16.113281 C 20.721706 12.659282 22.650894 7.9681373 21.804688 3.0117188 A 1.0001 1.0001 0 0 0 20.986328 2.1953125 C 19.655727 1.969245 18.346056 1.9405145 17.072266 2.0839844 C 13.623616 2.4724136 10.451246 4.1143487 7.9277344 6.4570312 L 6.6914062 5.2050781 C 6.6826392 3.0124133 6.0802521 1.614608 5.0058594 1.1425781 C 4.7841755 1.0451806 4.5544424 1.0065297 4.3378906 1.0058594 z M 4.2597656 3.0625 C 4.362211 3.137901 4.5707176 3.6623217 4.6679688 4.7109375 C 4.3909379 4.7115952 4.169534 4.7640135 3.9042969 4.7109375 C 3.4419591 4.6184201 3.1423091 4.4346991 3.0234375 4.3183594 C 3.0323309 4.2981424 3.046442 4.2673382 3.0742188 4.2246094 C 3.4108601 3.7067411 3.5875057 3.5352103 4.1308594 3.1386719 C 4.1915054 3.0944119 4.2161584 3.0862717 4.2597656 3.0625 z M 17.914062 4.03125 C 18.553496 4.0176212 19.204854 4.078613 19.855469 4.1445312 C 20.255994 8.0794393 18.73768 11.815464 16.060547 14.689453 L 14.642578 13.255859 L 15.177734 12.722656 C 16.252785 11.650401 16.25276 9.8789178 15.177734 8.8066406 C 14.640287 8.2704894 13.929902 8.0019531 13.21875 8.0019531 C 12.507598 8.0019531 11.79526 8.2704894 11.257812 8.8066406 L 10.75 9.3144531 L 9.3339844 7.8808594 C 11.571038 5.8159741 14.320187 4.4065796 17.279297 4.0722656 C 17.489434 4.0485249 17.700918 4.0357929 17.914062 4.03125 z M 16.958984 5.9960938 A 1 1 0 0 0 15.958984 6.9960938 A 1 1 0 0 0 16.958984 7.9960938 L 16.96875 7.9960938 A 1 1 0 0 0 17.96875 6.9960938 A 1 1 0 0 0 16.96875 5.9960938 L 16.958984 5.9960938 z M 7.9472656 9.3222656 L 9.3339844 10.724609 L 8.7890625 11.269531 C 7.7141143 12.341809 7.7141143 14.113269 8.7890625 15.185547 C 9.8639385 16.257939 11.634108 16.257939 12.708984 15.185547 L 13.228516 14.667969 L 14.611328 16.066406 C 11.630375 18.570596 7.7743393 20.017625 4.0507812 19.908203 C 3.940673 16.171939 5.4075866 12.303201 7.9472656 9.3222656 z M 13.21875 9.9902344 C 13.414761 9.9902344 13.610772 10.068178 13.765625 10.222656 C 14.0754 10.531639 14.075375 10.997696 13.765625 11.306641 L 13.238281 11.832031 L 12.15625 10.736328 L 12.671875 10.222656 C 12.826728 10.068178 13.022739 9.9902344 13.21875 9.9902344 z M 10.740234 12.148438 L 11.822266 13.244141 L 11.296875 13.769531 C 10.987151 14.078539 10.510896 14.078539 10.201172 13.769531 C 9.89148 13.460609 9.89148 12.994469 10.201172 12.685547 L 10.740234 12.148438 z M 6.9589844 15.996094 A 1 1 0 0 0 5.9589844 16.996094 A 1 1 0 0 0 6.9589844 17.996094 L 6.96875 17.996094 A 1 1 0 0 0 7.96875 16.996094 A 1 1 0 0 0 6.96875 15.996094 L 6.9589844 15.996094 z M 19.902344 19.265625 C 19.964722 19.268177 20.027352 19.27582 20.09375 19.289062 C 20.556123 19.381281 20.855711 19.565212 20.974609 19.681641 C 20.965723 19.701875 20.951575 19.732633 20.923828 19.775391 C 20.587558 20.293419 20.412334 20.466283 19.869141 20.863281 C 19.808331 20.907721 19.783861 20.915663 19.740234 20.939453 C 19.638455 20.865043 19.428215 20.339816 19.330078 19.289062 C 19.538067 19.288398 19.715209 19.257968 19.902344 19.265625 z " fill="currentColor"/>
</svg>
