<svg xmlns="http://www.w3.org/2000/svg" width="1em" height="1em" viewBox="0 0 24 24" fill="currentColor">
  <path d="M 13 1 A 1 1 0 0 0 12 2 L 12 2.0488281 C 10.678429 2.1793353 9.4467828 2.5816246 8.4355469 3.3378906 C 7.5506865 3.999645 6.8690548 4.9381145 6.4785156 6.09375 L 4.6152344 6.5175781 C 3.8629438 6.6892033 3.2749986 6.8168706 2.734375 7.0292969 C 2.1937514 7.2417231 1.6575837 7.6087452 1.3457031 8.1503906 C 1.0338304 8.6920225 0.97067952 9.3092656 1.0117188 9.9179688 C 1.0527581 10.526672 1.1810524 11.185318 1.3417969 12.041016 L 1.7890625 14.416016 C 2.0273951 15.684651 2.5160012 16.660244 3.2050781 17.373047 C 3.7637799 17.950985 4.4118434 18.343903 5.0976562 18.681641 C 5.0295509 19.389481 4.9755306 19.9586 5.0097656 20.507812 C 5.0470826 21.106472 5.2561764 21.763735 5.7304688 22.214844 C 6.2048248 22.665924 6.8261134 22.853462 7.4550781 22.929688 C 8.0840428 23.005914 8.7899662 23 9.7070312 23 L 16.292969 23 C 17.210019 23 17.915952 23.005897 18.544922 22.929688 C 19.173892 22.853458 19.795164 22.665927 20.269531 22.214844 C 20.743839 21.763729 20.952925 21.106468 20.990234 20.507812 C 21.027544 19.909157 20.958965 19.286016 20.882812 18.486328 L 20.322266 12.59375 C 21.66506 11.704924 22.595287 10.185415 22.927734 8.4257812 C 23.043488 7.8130819 23.098151 7.1511659 22.613281 6.5878906 C 22.128411 6.0246153 21.496851 6 20.978516 6 L 19.488281 6 C 19.093078 4.8871131 18.425385 3.9817491 17.564453 3.3378906 C 16.553214 2.5816234 15.321572 2.1793348 14 2.0488281 L 14 2 A 1 1 0 0 0 13 1 z M 13 4 C 14.383634 4 15.549397 4.3278583 16.367188 4.9394531 C 16.747941 5.224204 17.068449 5.5682109 17.316406 6 L 8.6835938 6 C 8.9315474 5.568211 9.2520585 5.224205 9.6328125 4.9394531 C 10.450602 4.3278581 11.616375 4.0000013 13 4 z M 8.125 8 L 17.875 8 L 18.892578 18.675781 C 18.968728 19.475493 19.014607 20.054419 18.994141 20.382812 C 18.973671 20.711208 18.952121 20.70714 18.890625 20.765625 C 18.829115 20.823925 18.725458 20.892366 18.304688 20.943359 C 17.882632 20.994509 17.210019 21 16.292969 21 L 9.7070312 21 C 8.7899661 21 8.1173578 20.994508 7.6953125 20.943359 C 7.2732672 20.89221 7.170809 20.824045 7.109375 20.765625 C 7.047877 20.707135 7.02633 20.711205 7.0058594 20.382812 C 6.9853894 20.054423 7.0312614 19.475483 7.1074219 18.675781 L 8.125 8 z M 19.884766 8 L 20.970703 8 C 20.967866 8.0172277 20.964573 8.0354462 20.960938 8.0546875 C 20.811137 8.8475792 20.495412 9.5420065 20.083984 10.087891 L 19.884766 8 z M 6.0917969 8.2324219 L 5.3046875 16.507812 C 5.0456945 16.343551 4.8268644 16.173053 4.6425781 15.982422 C 4.2371401 15.563024 3.9391536 15.030987 3.7539062 14.044922 L 3.3085938 11.671875 C 3.1478483 10.816172 3.0352657 10.192348 3.0078125 9.7851562 C 2.9803593 9.3779642 3.0209777 9.2476856 3.078125 9.1484375 C 3.1352644 9.049203 3.1609172 9.0100463 3.4648438 8.890625 C 3.7687701 8.7712037 4.3082574 8.6403749 5.0605469 8.46875 L 6.0917969 8.2324219 z M 14 11 A 1 1 0 0 0 13 12 C 13 13.277778 12.792969 13.292969 12.292969 13.792969 C 11.792969 14.292969 11 15.277778 11 17 A 1 1 0 0 0 12 18 A 1 1 0 0 0 13 17 C 13 15.722222 13.207031 15.707031 13.707031 15.207031 C 14.207031 14.707031 15 13.722222 15 12 A 1 1 0 0 0 14 11 z " fill="currentColor"/>
</svg>
