<svg xmlns="http://www.w3.org/2000/svg" width="1em" height="1em" viewBox="0 0 24 24" fill="currentColor">
  <path d="M 12 3 C 11.522071 3 11.079151 3.2349223 10.783203 3.4804688 C 10.487255 3.7260151 10.2513 3.9978716 9.9492188 4.3320312 L 8.4628906 5.9765625 C 8.0611769 6.420986 7.7442226 6.7642438 7.4824219 7.1386719 C 7.2206212 7.5130999 7 7.9824848 7 8.5 C 7 9.0175152 7.2206162 9.4869002 7.4824219 9.8613281 C 7.7442275 10.235756 8.0611694 10.579025 8.4628906 11.023438 L 9.9492188 12.667969 C 10.251292 13.002089 10.487264 13.273996 10.783203 13.519531 C 11.079142 13.765066 11.522055 14 12 14 C 12.477945 14 12.920858 13.765066 13.216797 13.519531 C 13.512736 13.273996 13.748708 13.002089 14.050781 12.667969 L 15.537109 11.023438 C 15.938868 10.579018 16.255764 10.235764 16.517578 9.8613281 C 16.779393 9.4868922 17 9.0175024 17 8.5 C 17 7.9824976 16.77939 7.5131088 16.517578 7.1386719 C 16.255766 6.764235 15.938866 6.4209945 15.537109 5.9765625 L 14.050781 4.3320312 C 13.7487 3.9978775 13.512744 3.7260127 13.216797 3.4804688 C 12.920849 3.2349247 12.477929 3 12 3 z M 12 5.0800781 C 12.115414 5.1840534 12.292419 5.3707508 12.566406 5.6738281 L 14.052734 7.3164062 C 14.454478 7.7608244 14.738993 8.0850555 14.878906 8.2851562 C 14.983842 8.4352317 14.998735 8.4801985 15 8.4941406 L 15 8.4960938 L 15 8.4980469 L 15 8.5 L 15 8.5019531 L 15 8.5039062 L 15 8.5058594 C 14.998735 8.5198035 14.983842 8.5647734 14.878906 8.7148438 C 14.738996 8.9149377 14.454476 9.2391928 14.052734 9.6835938 L 12.566406 11.326172 C 12.292412 11.629234 12.115421 11.815942 12 11.919922 C 11.884579 11.815942 11.707588 11.629234 11.433594 11.326172 L 9.9472656 9.6835938 C 9.5455469 9.239185 9.261008 8.9149457 9.1210938 8.7148438 C 9.016158 8.5647672 9.0012652 8.5197994 9 8.5058594 L 9 8.5039062 L 9 8.5019531 L 9 8.5 L 9 8.4980469 L 9 8.4960938 L 9 8.4941406 C 9.0012646 8.4802024 9.0161561 8.4352383 9.1210938 8.2851562 C 9.2610105 8.0850468 9.5455493 7.7608327 9.9472656 7.3164062 L 11.433594 5.6738281 C 11.70758 5.3707471 11.884587 5.1840537 12 5.0800781 z M 12 15 A 1 1 0 0 0 11 16 L 11 19 L 3 19 A 1 1 0 0 0 2 20 A 1 1 0 0 0 3 21 L 12 21 L 21 21 A 1 1 0 0 0 22 20 A 1 1 0 0 0 21 19 L 13 19 L 13 16 A 1 1 0 0 0 12 15 z " fill="currentColor"/>
</svg>
