<svg xmlns="http://www.w3.org/2000/svg" width="1em" height="1em" viewBox="0 0 24 24" fill="currentColor">
  <path d="M 20 2 A 1 1 0 0 0 19 3 L 19 11 L 16 11 A 1 1 0 0 0 15 12 A 1 1 0 0 0 16 13 L 19 13 L 19 21 A 1 1 0 0 0 20 22 A 1 1 0 0 0 21 21 L 21 12 L 21 3 A 1 1 0 0 0 20 2 z M 8.5 7 C 7.9824848 7 7.5130999 7.2206212 7.1386719 7.4824219 C 6.7642438 7.7442226 6.420986 8.0611769 5.9765625 8.4628906 L 4.3320312 9.9492188 C 3.9978775 10.2513 3.7260127 10.487256 3.4804688 10.783203 C 3.2349247 11.079151 3 11.522071 3 12 C 3 12.477929 3.2349247 12.920849 3.4804688 13.216797 C 3.7260126 13.512744 3.9978775 13.7487 4.3320312 14.050781 L 5.9765625 15.537109 C 6.4209945 15.938866 6.764235 16.255766 7.1386719 16.517578 C 7.5131088 16.77939 7.9824976 17 8.5 17 C 9.0175024 17 9.4868922 16.779393 9.8613281 16.517578 C 10.235764 16.255764 10.579018 15.938868 11.023438 15.537109 L 12.667969 14.050781 C 13.002089 13.748708 13.273996 13.512736 13.519531 13.216797 C 13.765066 12.920858 14 12.477945 14 12 C 14 11.522055 13.765066 11.079142 13.519531 10.783203 C 13.273996 10.487264 13.002089 10.251292 12.667969 9.9492188 L 11.023438 8.4628906 C 10.579026 8.0611751 10.235755 7.7442253 9.8613281 7.4824219 C 9.486901 7.2206184 9.0175152 7 8.5 7 z M 8.4882812 9 C 8.4899062 8.9996515 8.4929791 9.0001054 8.4941406 9 L 8.4960938 9 L 8.4980469 9 L 8.5 9 L 8.5019531 9 L 8.5039062 9 L 8.5058594 9 C 8.5197985 9.0012653 8.5647666 9.0161584 8.7148438 9.1210938 C 8.9149465 9.2610077 9.2391843 9.5455512 9.6835938 9.9472656 L 11.326172 11.433594 C 11.629234 11.707588 11.815942 11.884579 11.919922 12 C 11.815942 12.115421 11.629234 12.292412 11.326172 12.566406 L 9.6835938 14.052734 C 9.2391928 14.454476 8.9149377 14.738996 8.7148438 14.878906 C 8.5647732 14.983839 8.5198031 14.998734 8.5058594 15 L 8.5039062 15 L 8.5019531 15 L 8.5 15 L 8.4980469 15 L 8.4960938 15 L 8.4941406 15 C 8.4801985 14.998735 8.4352317 14.983842 8.2851562 14.878906 C 8.0850555 14.738993 7.7608243 14.454478 7.3164062 14.052734 L 5.6738281 12.566406 C 5.3707508 12.292419 5.1840534 12.115414 5.0800781 12 C 5.1840534 11.884586 5.3707508 11.707581 5.6738281 11.433594 L 7.3164062 9.9472656 C 7.7608327 9.5455493 8.0850468 9.2610105 8.2851562 9.1210938 C 8.4227315 9.0249009 8.4704065 9.0038333 8.4882812 9 z " fill="currentColor"/>
</svg>
