<svg xmlns="http://www.w3.org/2000/svg" width="1em" height="1em" viewBox="0 0 24 24" fill="currentColor">
  <path d="M 3 3 A 1 1 0 0 0 2 4 A 1 1 0 0 0 3 5 L 11 5 L 11 8 A 1 1 0 0 0 12 9 A 1 1 0 0 0 13 8 L 13 5 L 21 5 A 1 1 0 0 0 22 4 A 1 1 0 0 0 21 3 L 12 3 L 3 3 z M 12 10 C 11.522055 10 11.079142 10.234934 10.783203 10.480469 C 10.487264 10.726004 10.251292 10.997911 9.9492188 11.332031 L 8.4628906 12.976562 C 8.0611763 13.420961 7.7442303 13.764241 7.4824219 14.138672 C 7.2206134 14.513103 7 14.982485 7 15.5 C 7 16.017515 7.2206113 16.486896 7.4824219 16.861328 C 7.7442325 17.23576 8.0611706 17.579037 8.4628906 18.023438 L 9.9492188 19.667969 C 10.251292 20.002089 10.487264 20.273996 10.783203 20.519531 C 11.079142 20.765066 11.522055 21 12 21 C 12.477945 21 12.920858 20.765066 13.216797 20.519531 C 13.512736 20.273996 13.748708 20.002089 14.050781 19.667969 L 15.537109 18.023438 C 15.938866 17.57903 16.255759 17.235768 16.517578 16.861328 C 16.779398 16.486888 17 16.017503 17 15.5 C 17 14.982497 16.779398 14.513112 16.517578 14.138672 C 16.255759 13.764232 15.938866 13.420969 15.537109 12.976562 L 14.050781 11.332031 C 13.748708 10.997911 13.512736 10.726004 13.216797 10.480469 C 12.920858 10.234934 12.477945 10 12 10 z M 12 12.080078 C 12.115421 12.184058 12.292412 12.370766 12.566406 12.673828 L 14.052734 14.316406 C 14.454477 14.760799 14.739001 15.085071 14.878906 15.285156 C 14.983836 15.43522 14.998733 15.480189 15 15.494141 L 15 15.496094 L 15 15.498047 L 15 15.5 L 15 15.501953 L 15 15.503906 L 15 15.505859 C 14.998732 15.519811 14.983834 15.564781 14.878906 15.714844 C 14.739001 15.914929 14.454477 16.239201 14.052734 16.683594 L 12.566406 18.326172 C 12.292412 18.629234 12.115421 18.815942 12 18.919922 C 11.884579 18.815942 11.707588 18.629234 11.433594 18.326172 L 9.9472656 16.683594 C 9.5455456 16.239194 9.261003 15.914937 9.1210938 15.714844 C 9.0161617 15.564774 9.0012664 15.519807 9 15.505859 L 9 15.503906 L 9 15.501953 L 9 15.5 L 9 15.498047 L 9 15.496094 L 9 15.494141 C 9.0012665 15.480191 9.0161621 15.435227 9.1210938 15.285156 C 9.2610027 15.085062 9.5455499 14.760807 9.9472656 14.316406 L 11.433594 12.673828 C 11.707588 12.370766 11.884579 12.184058 12 12.080078 z " fill="currentColor"/>
</svg>
