<svg xmlns="http://www.w3.org/2000/svg" width="1em" height="1em" viewBox="0 0 24 24" fill="currentColor">
  <path d="M 4.78125 1 C 3.2573128 1 2 2.2573128 2 3.78125 C 2 4.0086266 2.0288524 4.2345326 2.0839844 4.4550781 L 2.7714844 7.2128906 C 2.9533744 7.9404506 3.0908535 8.5056004 3.2851562 9.015625 C 3.4794588 9.5256496 3.7674119 10.015887 4.2148438 10.365234 C 4.4537128 10.551739 4.7206169 10.684428 5 10.777344 L 5 19.585938 C 5 19.994637 4.975941 20.33968 5.1523438 20.765625 C 5.3287759 21.19164 5.5898804 21.418035 5.8789062 21.707031 C 6.2122469 22.040392 6.4719214 22.308918 6.78125 22.544922 C 7.0905786 22.780925 7.5246736 23 8 23 C 8.4753264 23 8.9094214 22.780925 9.21875 22.544922 C 9.5280786 22.308918 9.7877529 22.040392 10.121094 21.707031 C 10.41012 21.418035 10.671224 21.19164 10.847656 20.765625 C 11.024059 20.33968 11 19.994638 11 19.585938 L 11 19 A 1.0001 1.0001 0 0 0 10.707031 18.292969 L 9.9140625 17.5 L 10.707031 16.707031 A 1.0001 1.0001 0 0 0 11 16 L 11 10.777344 C 11.279381 10.684421 11.546285 10.551713 11.785156 10.365234 C 12.232573 10.015886 12.52054 9.5256435 12.714844 9.015625 C 12.909147 8.5056065 13.046616 7.9404506 13.228516 7.2128906 L 13.53125 6.0019531 C 15.020552 6.0134926 15.675601 6.0803005 16 6.2675781 C 16.304111 6.4431439 16.55686 6.6959111 16.732422 7 C 16.898675 7.2879758 16.970193 7.837858 16.992188 9 C 16.289907 9.0139515 15.726694 9.0939372 15.173828 9.4726562 C 14.89857 9.6611911 14.661191 9.8985704 14.472656 10.173828 C 13.928922 10.967589 14 11.7824 14 13 L 14 16 L 14 19 C 14 20.2176 13.92892 21.032411 14.472656 21.826172 C 14.661191 22.10143 14.89857 22.338809 15.173828 22.527344 C 15.967589 23.071078 16.7824 23 18 23 C 19.2176 23 20.032411 23.07108 20.826172 22.527344 C 21.10143 22.338809 21.338809 22.10143 21.527344 21.826172 C 22.071078 21.032411 22 20.2176 22 19 L 22 16 L 22 13 C 22 11.7824 22.07108 10.967589 21.527344 10.173828 C 21.338809 9.8985704 21.10143 9.6611911 20.826172 9.4726562 C 20.271644 9.0927989 19.707185 9.0135946 19.001953 9 C 18.999276 7.7099618 18.945631 6.832795 18.464844 6 C 18.113805 5.3919689 17.608089 4.8862105 17 4.5351562 C 16.165188 4.0532151 15.287312 4.0004892 13.992188 3.9980469 C 13.997982 3.9259246 14 3.8538319 14 3.78125 C 14 2.2572992 12.742687 1 11.21875 1 L 4.78125 1 z M 4.78125 3 L 11.21875 3 C 11.661813 3 12 3.3382008 12 3.78125 C 12 3.84489 11.992103 3.9085359 11.976562 3.9707031 L 11.287109 6.7285156 C 11.105209 7.4560756 10.968925 7.9812485 10.845703 8.3046875 C 10.722482 8.6281265 10.649769 8.7148207 10.554688 8.7890625 C 10.459528 8.8633515 10.35733 8.9139834 10.013672 8.9550781 C 9.6700167 8.9961728 9.1269081 9 8.3769531 9 L 7.6230469 9 C 6.8730919 9 6.3299876 8.9961728 5.9863281 8.9550781 C 5.6426686 8.9139835 5.5403993 8.8633046 5.4453125 8.7890625 C 5.3502244 8.7148194 5.2775142 8.6281204 5.1542969 8.3046875 C 5.0310795 7.9812546 4.8947806 7.4560756 4.7128906 6.7285156 L 4.0234375 3.9707031 C 4.00795 3.9087486 4 3.8450734 4 3.78125 C 4 3.3381872 4.3381872 3 4.78125 3 z M 7 5 A 1 1 0 0 0 6 6 A 1 1 0 0 0 7 7 L 9 7 A 1 1 0 0 0 10 6 A 1 1 0 0 0 9 5 L 7 5 z M 7 11 C 7.1952078 11.001142 7.4017811 11 7.6230469 11 L 8.3769531 11 C 8.5982187 11 8.8047921 11.001138 9 11 L 9 15.585938 L 7.7929688 16.792969 A 1.0001 1.0001 0 0 0 7.7929688 18.207031 L 9 19.414062 L 9 19.585938 C 9 19.828537 8.9921009 19.949981 8.9902344 19.996094 C 8.9589359 20.030041 8.8786909 20.121351 8.7070312 20.292969 C 8.3737118 20.626308 8.1334182 20.857757 8.0058594 20.955078 C 8.0038597 20.956604 8.0019079 20.957532 8 20.958984 C 7.9980929 20.957532 7.9961394 20.956603 7.9941406 20.955078 C 7.8665824 20.857755 7.6262882 20.626308 7.2929688 20.292969 C 7.1213098 20.121328 7.0410642 20.030033 7.0097656 19.996094 C 7.0078994 19.949977 7 19.828522 7 19.585938 L 7 11 z M 18 11 C 19.2176 11 19.620475 11.07178 19.695312 11.123047 C 19.766652 11.171917 19.828088 11.233345 19.876953 11.304688 C 19.928219 11.379525 20 11.7824 20 13 L 20 15 L 16 15 L 16 13 C 16 11.7824 16.07178 11.379525 16.123047 11.304688 C 16.171907 11.233348 16.233345 11.171912 16.304688 11.123047 C 16.379526 11.071781 16.782405 11 18 11 z M 16 17 L 20 17 L 20 19 C 20 20.2176 19.92822 20.620475 19.876953 20.695312 C 19.828093 20.766652 19.766655 20.828088 19.695312 20.876953 C 19.620475 20.928219 19.2176 21 18 21 C 16.7824 21 16.379526 20.92822 16.304688 20.876953 C 16.233348 20.828093 16.171912 20.766655 16.123047 20.695312 C 16.071781 20.620475 16 20.2176 16 19 L 16 17 z " fill="currentColor"/>
</svg>
