<svg xmlns="http://www.w3.org/2000/svg" width="1em" height="1em" viewBox="0 0 24 24" fill="currentColor">
  <path d="M 12 1.5 C 9.76083 1.5 8.061073 1.4944581 6.6542969 1.6835938 C 5.2475207 1.8727295 4.0688969 2.2982969 3.1835938 3.1835938 C 2.2982969 4.0688968 1.8727295 5.2475207 1.6835938 6.6542969 C 1.494458 8.061073 1.5 9.76083 1.5 12 C 1.5 14.23915 1.4944601 15.93892 1.6835938 17.345703 C 1.8727292 18.752486 2.2983047 19.931079 3.1835938 20.816406 C 4.0688995 21.70168 5.2475238 22.127276 6.6542969 22.316406 C 8.0610699 22.505536 9.76083 22.5 12 22.5 C 14.23915 22.5 15.938923 22.5055 17.345703 22.316406 C 18.752483 22.127277 19.931076 21.701673 20.816406 20.816406 C 21.701673 19.931076 22.127277 18.752483 22.316406 17.345703 C 22.505536 15.938923 22.5 14.23915 22.5 12 C 22.5 9.76083 22.5055 8.0610699 22.316406 6.6542969 C 22.127276 5.2475238 21.70168 4.0688995 20.816406 3.1835938 C 19.931079 2.2983046 18.752486 1.8727291 17.345703 1.6835938 C 15.93892 1.4944584 14.23915 1.5 12 1.5 z M 12 3.5 C 14.23915 3.5 15.897908 3.50539 17.078125 3.6640625 C 18.258342 3.8227371 18.896371 4.0917053 19.402344 4.5976562 C 19.90827 5.1036005 20.177267 5.7416656 20.335938 6.921875 C 20.494609 8.1020844 20.5 9.76083 20.5 12 C 20.5 14.23915 20.4946 15.897905 20.335938 17.078125 C 20.177267 18.258345 19.908277 18.896374 19.402344 19.402344 C 18.896374 19.908277 18.258345 20.177267 17.078125 20.335938 C 15.897905 20.494609 14.23915 20.5 12 20.5 C 9.76083 20.5 8.1020844 20.494608 6.921875 20.335938 C 5.7416656 20.177267 5.1036004 19.90827 4.5976562 19.402344 C 4.0917053 18.896371 3.8227371 18.258342 3.6640625 17.078125 C 3.5053879 15.897908 3.5 14.23915 3.5 12 C 3.5 9.76083 3.5053882 8.1020814 3.6640625 6.921875 C 3.8227368 5.7416686 4.091713 5.1036031 4.5976562 4.5976562 C 5.1036031 4.0917131 5.7416686 3.8227368 6.921875 3.6640625 C 8.1020814 3.5053882 9.76083 3.5 12 3.5 z M 8.875 5 C 7.3206189 5 6 6.2436886 6 7.8007812 L 6 16.199219 C 6 17.756307 7.3206125 19 8.875 19 C 10.37808 19 11.6102 17.81477 11.693359 16.330078 L 12.78125 17.822266 C 13.697985 19.078995 15.467534 19.37119 16.757812 18.503906 C 18.048122 17.636602 18.385487 15.834858 17.46875 14.578125 L 15.587891 12 L 17.46875 9.421875 C 18.385462 8.1651311 18.048112 6.3633917 16.757812 5.4960938 C 15.46753 4.6288072 13.697973 4.9209752 12.78125 6.1777344 L 11.693359 7.6699219 C 11.6102 6.1852259 10.378074 5 8.875 5 z M 8.875 7 C 9.3917639 7 9.75 7.3696875 9.75 7.8007812 L 9.75 10.658203 A 1.0001 1.0001 0 0 0 11.558594 11.248047 L 14.396484 7.3574219 C 14.667761 6.9855211 15.236261 6.8831367 15.642578 7.15625 C 16.048878 7.429352 16.124804 7.8722245 15.853516 8.2441406 L 13.542969 11.410156 A 1.0001 1.0001 0 0 0 13.542969 12.589844 L 15.853516 15.755859 C 16.124778 16.127727 16.048869 16.570654 15.642578 16.84375 C 15.236256 17.116866 14.667749 17.014449 14.396484 16.642578 L 11.558594 12.751953 A 1.0001 1.0001 0 0 0 9.75 13.341797 L 9.75 16.199219 C 9.75 16.630297 9.3917575 17 8.875 17 C 8.3582275 17 8 16.63033 8 16.199219 L 8 7.8007812 C 8 7.369654 8.3582211 7 8.875 7 z " fill="currentColor"/>
</svg>
