<svg xmlns="http://www.w3.org/2000/svg" width="1em" height="1em" viewBox="0 0 24 24" fill="currentColor">
  <path d="M 12 1 C 5.9367124 1 1 5.9367124 1 12 C 1 18.063288 5.9367124 23 12 23 C 18.063288 23 23 18.063288 23 12 C 23 5.9367201 18.063278 1.0000125 12 1 z M 12 3 C 12.14645 3 12.286936 3.0204791 12.431641 3.0273438 C 13.742689 3.1838666 14.5 4.0335388 14.5 4.7109375 C 14.5 5.0090406 14.40301 5.4132616 14.246094 5.6445312 C 14.089182 5.875801 13.968556 6 13.5 6 C 13.336871 6 13.230343 5.9503842 13.123047 5.8652344 C 13.015751 5.7800845 12.930643 5.6361784 12.927734 5.6289062 A 1 1 0 0 0 11.628906 5.0722656 A 1 1 0 0 0 11.072266 6.3710938 C 11.227157 6.7582917 11.48238 7.115408 11.880859 7.4316406 C 12.279339 7.7478733 12.844029 8 13.5 8 C 14.559644 8 15.439353 7.4470933 15.900391 6.7675781 C 16.361429 6.0880629 16.5 5.3460744 16.5 4.7109375 C 16.5 4.5271291 16.484744 4.346735 16.455078 4.171875 C 19.17303 5.7180689 21 8.6400161 21 12 C 21 16.982407 16.982407 21 12 21 C 7.0175926 21 3 16.982407 3 12 C 3 7.0175926 7.0175926 3 12 3 z M 8.375 9 C 7.7309915 9 7.3736916 9.455736 7.2148438 9.7734375 C 7.0559959 10.091139 7 10.407788 7 10.75 C 7 11.092212 7.0559959 11.40886 7.2148438 11.726562 C 7.3736916 12.044263 7.7309915 12.5 8.375 12.5 C 9.0190085 12.5 9.3763083 12.044263 9.5351562 11.726562 C 9.6940041 11.40886 9.75 11.092212 9.75 10.75 C 9.75 10.407788 9.6940041 10.091139 9.5351562 9.7734375 C 9.3763083 9.455736 9.0190085 9 8.375 9 z M 15.625 9 C 14.98097 9 14.623692 9.4557407 14.464844 9.7734375 C 14.305995 10.091134 14.25 10.40778 14.25 10.75 C 14.25 11.09222 14.30599 11.408865 14.464844 11.726562 C 14.623692 12.044258 14.98097 12.5 15.625 12.5 C 16.26903 12.5 16.626308 12.044258 16.785156 11.726562 C 16.944005 11.408865 17 11.09222 17 10.75 C 17 10.40778 16.944005 10.091134 16.785156 9.7734375 C 16.626308 9.4557407 16.26903 9 15.625 9 z M 8.0097656 15.001953 A 1 1 0 0 0 7.4003906 15.201172 A 1 1 0 0 0 7.2011719 16.599609 C 8.2950099 18.055949 10.044111 19 12 19 C 13.955889 19 15.705003 18.055964 16.798828 16.599609 A 1 1 0 0 0 16.599609 15.201172 A 1 1 0 0 0 15.201172 15.400391 C 14.470797 16.372836 13.315511 17 12 17 C 10.684489 17 9.5292301 16.372851 8.7988281 15.400391 A 1 1 0 0 0 8.0097656 15.001953 z " fill="currentColor"/>
</svg>
