<svg xmlns="http://www.w3.org/2000/svg" width="1em" height="1em" viewBox="0 0 24 24" fill="currentColor">
  <path d="M 20 2.5 C 18.907269 2.5 18 3.4072936 18 4.5 L 18 5.5 A 1.0001 1.0001 0 0 0 19 6.5 L 20 6.5 C 21.092731 6.5 22 5.5927064 22 4.5 C 22 3.4072936 21.092731 2.5 20 2.5 z M 3 5 A 1.0001 1.0001 0 0 0 2 6 L 2 20.5 A 1.0001 1.0001 0 0 0 3 21.5 L 5.5 21.5 A 1.0001 1.0001 0 0 0 6.5 20.5 L 6.5 17.414062 L 7.8320312 16.082031 L 13.203125 20.349609 C 14.140311 21.094281 15.302954 21.5 16.5 21.5 A 1.0001 1.0001 0 0 0 17.5 20.5 L 17.5 17.5 A 1.0001 1.0001 0 0 0 16.5 16.5 C 16.075385 16.5 15.662483 16.357449 15.328125 16.095703 L 11.115234 12.798828 L 17.207031 6.7070312 A 1.0001 1.0001 0 0 0 16.5 5 L 13 5 A 1.0001 1.0001 0 0 0 12.292969 5.2929688 L 6.5 11.085938 L 6.5 6 A 1.0001 1.0001 0 0 0 5.5 5 L 3 5 z M 4 7 L 4.5 7 L 4.5 13.5 A 1.0001 1.0001 0 0 0 6.2070312 14.207031 L 13.414062 7 L 14.085938 7 L 8.9042969 12.181641 A 1.0001 1.0001 0 0 0 8.9941406 13.677734 L 14.095703 17.671875 C 14.496465 17.985604 15.016766 18.01915 15.5 18.15625 L 15.5 19.150391 C 15.143152 19.029297 14.746532 19.020995 14.447266 18.783203 L 8.3769531 13.960938 A 1.0001 1.0001 0 0 0 7.0488281 14.037109 L 4.7929688 16.292969 A 1.0001 1.0001 0 0 0 4.5 17 L 4.5 19.5 L 4 19.5 L 4 7 z " fill="currentColor"/>
</svg>
