<svg xmlns="http://www.w3.org/2000/svg" width="1em" height="1em" viewBox="0 0 24 24" fill="currentColor">
  <path d="M 15.236328 1 A 1.0001 1.0001 0 0 0 14.570312 1.3007812 C 14.500352 1.3724983 14.375418 1.4433843 14.091797 1.5410156 C 13.808176 1.6386466 13.387746 1.7458395 12.931641 2.0273438 C 12.475535 2.308848 12.023172 2.7955633 11.753906 3.453125 C 11.722306 3.5303 11.734691 3.6703903 11.707031 3.7519531 C 10.722903 2.6151304 9.4550781 2.0625 9.4550781 2.0625 A 1 1 0 0 0 8.171875 2.6542969 A 1 1 0 0 0 8.7636719 3.9375 C 8.7636719 3.9375 9.9440957 4.402134 10.511719 5.40625 C 10.010268 5.2538511 9.5269636 5.0776789 8.9277344 5.0234375 C 8.0433471 4.943384 7.0324299 5.0299246 6.1875 5.6699219 C 5.3425701 6.3099192 4.859375 7.4485514 4.859375 8.9082031 C 4.859375 11.613271 5.5908612 13.603674 6.5351562 14.929688 C 6.5519784 14.95331 6.5690784 14.976748 6.5859375 15 L 4.890625 15 C 4.1674597 15 3.4964291 15.307034 3.0566406 15.738281 C 2.3217465 16.458836 2.137367 17.384923 2.0527344 18.128906 C 1.9560244 18.97906 1.9929504 19.830278 2.2402344 20.708984 C 2.3957882 21.261831 2.663317 21.797998 3.0976562 22.236328 C 3.5319954 22.674658 4.174187 23 4.8867188 23 L 19.449219 23 L 21 23 A 1 1 0 0 0 22 22 A 1 1 0 0 0 21 21 L 19.945312 21 C 19.462514 20.474445 19.0614 19.863181 19.011719 19.199219 C 18.961098 18.522696 19.222454 17.787168 19.90625 17 L 21 17 A 1 1 0 0 0 22 16 A 1 1 0 0 0 21 15 L 17.048828 15 C 17.065687 14.976748 17.082787 14.95331 17.099609 14.929688 C 18.043904 13.60367 18.775391 11.613267 18.775391 8.9082031 C 18.775391 7.4485575 18.294137 6.3099223 17.449219 5.6699219 C 16.988635 5.3210434 16.479147 5.1544666 15.966797 5.0722656 C 16.298174 4.6619842 16.568692 4.1608858 16.603516 3.6015625 C 16.642502 2.9753781 16.492287 2.3426689 16.216797 1.6367188 A 1.0001 1.0001 0 0 0 15.484375 1.0195312 A 1.0001 1.0001 0 0 0 15.236328 1 z M 14.603516 3.4863281 C 14.590315 3.6772813 14.560803 3.7435671 14.433594 3.8789062 C 14.343784 3.9744523 13.823353 4.163523 13.595703 4.2890625 C 13.600516 4.2763829 13.601891 4.2336933 13.605469 4.2148438 C 13.605768 4.2137303 13.605119 4.2117828 13.605469 4.2109375 C 13.7325 3.9007195 13.82884 3.8252582 13.982422 3.7304688 C 14.107956 3.6529892 14.34351 3.5756923 14.603516 3.4863281 z M 8.3203125 7.0019531 C 8.4543034 6.9973764 8.5967549 7.0019303 8.7480469 7.015625 C 9.9583824 7.1251829 11.359375 7.8105469 11.359375 7.8105469 A 1.0001 1.0001 0 0 0 12.275391 7.8105469 C 12.275391 7.8105469 13.676418 7.125181 14.886719 7.015625 C 15.491869 6.960847 15.968009 7.057469 16.240234 7.2636719 C 16.51246 7.4698749 16.775391 7.8416438 16.775391 8.9082031 C 16.775391 11.25555 16.152058 12.812746 15.470703 13.769531 C 14.842579 14.651568 14.033418 14.954368 13.980469 14.996094 L 13.978516 14.996094 L 13.978516 14.998047 L 13.978516 15 C 13.752773 14.99907 13.702262 14.948395 13.427734 14.722656 C 13.150611 14.494781 12.638754 13.992188 11.818359 13.992188 C 10.997968 13.992188 10.484371 14.449813 10.15625 14.697266 C 9.8486366 14.929252 9.710024 14.99302 9.6601562 15 L 9.65625 15 L 9.65625 14.998047 L 9.65625 14.996094 L 9.6542969 14.996094 L 9.6542969 14.994141 C 9.6014182 14.952415 8.7921912 14.651572 8.1640625 13.769531 C 7.4827026 12.812741 6.859375 11.255546 6.859375 8.9082031 C 6.859375 7.8416449 7.122295 7.469879 7.3945312 7.2636719 C 7.5987085 7.1090165 7.9183399 7.0156832 8.3203125 7.0019531 z M 4.890625 17 L 9.6503906 17 L 13.984375 17 L 17.541016 17 C 17.170877 17.782612 16.959998 18.578118 17.017578 19.347656 C 17.061958 19.940811 17.256086 20.484968 17.496094 21 L 4.8867188 21 C 4.7340705 21 4.6522071 20.96202 4.5195312 20.828125 C 4.3868554 20.69423 4.2456018 20.448869 4.1660156 20.166016 C 3.9916792 19.546522 3.9658858 19.015915 4.0410156 18.355469 C 4.104903 17.793852 4.2550455 17.36406 4.4570312 17.166016 C 4.5867028 17.038863 4.6386303 17 4.890625 17 z " fill="currentColor"/>
</svg>
