<svg xmlns="http://www.w3.org/2000/svg" width="1em" height="1em" viewBox="0 0 24 24" fill="currentColor">
  <path d="M 4 4.5 C 3.528595 4.5 3.1551288 4.4930802 2.7695312 4.5449219 C 2.3839336 4.5967636 1.9220631 4.7498234 1.5859375 5.0859375 C 1.2498234 5.4220631 1.0967636 5.8839336 1.0449219 6.2695312 C 0.99308013 6.6551289 1 7.028595 1 7.5 L 1 14.5 C 1 15.4428 0.99357625 16.170214 1.0820312 16.828125 C 1.1704862 17.486036 1.3963405 18.13852 1.8789062 18.621094 C 2.3614739 19.103678 3.0139596 19.329512 3.671875 19.417969 C 4.3297906 19.506425 5.05719 19.5 6 19.5 L 13 19.5 C 13.9319 19.5 14.504911 19.53793 15.148438 19.271484 C 15.883121 18.967115 16.467115 18.383122 16.771484 17.648438 C 16.913922 17.304415 16.873835 16.86919 16.894531 16.5 L 17 16.5 C 20.30185 16.5 23 13.80185 23 10.5 C 23 7.1981334 20.301846 4.5 17 4.5 L 4 4.5 z M 4 6.5 L 17 6.5 C 19.220954 6.5 21 8.2790266 21 10.5 C 21 12.72095 19.22095 14.5 17 14.5 L 16 14.5 A 1.0001 1.0001 0 0 0 15 15.5 C 15 16.4319 14.961788 16.791138 14.923828 16.882812 C 14.822198 17.128128 14.628127 17.322198 14.382812 17.423828 C 14.291135 17.461785 13.9319 17.5 13 17.5 L 6 17.5 C 5.05719 17.5 4.3707927 17.49354 3.9394531 17.435547 C 3.5081136 17.377553 3.3961812 17.310247 3.2929688 17.207031 C 3.1897445 17.103805 3.1224458 16.991886 3.0644531 16.560547 C 3.0064604 16.129208 3 15.4428 3 14.5 L 3 7.5 C 3 7.028595 3.0059629 6.6941861 3.0273438 6.5351562 C 3.0276592 6.5328099 3.02704 6.5295866 3.0273438 6.5273438 C 3.0295867 6.52704 3.0328099 6.5276592 3.0351562 6.5273438 C 3.1941863 6.5059628 3.528595 6.5 4 6.5 z M 16 7 A 1.0001 1.0001 0 0 0 15 8 L 15 13 A 1.0001 1.0001 0 0 0 16 14 L 17 14 C 18.92115 14 20.5 12.42115 20.5 10.5 C 20.5 8.5788434 18.921146 7 17 7 L 16 7 z M 7 7.5117188 C 6.2245555 7.5117189 5.4482934 7.8086277 4.8691406 8.4023438 C 3.7108337 9.5897473 3.7108554 11.511793 4.8691406 12.699219 L 8.2832031 16.199219 A 1.0001 1.0001 0 0 0 9.7167969 16.199219 L 13.130859 12.699219 C 14.289208 11.511804 14.289229 9.5897359 13.130859 8.4023438 C 12.008133 7.2513259 10.168039 7.2673293 9 8.3476562 C 8.4344799 7.8246216 7.7278241 7.5117187 7 7.5117188 z M 17 9 C 17.840254 9 18.5 9.6597366 18.5 10.5 C 18.5 11.34025 17.84025 12 17 12 L 17 9 z M 7 9.4882812 C 7.2482455 9.4882812 7.4973315 9.5918642 7.6992188 9.7988281 L 8.2851562 10.398438 A 1.0001 1.0001 0 0 0 9.7148438 10.398438 L 10.300781 9.7988281 C 10.704501 9.3849404 11.295511 9.3849476 11.699219 9.7988281 C 12.103049 10.212776 12.103071 10.886796 11.699219 11.300781 L 9 14.066406 L 6.3007812 11.300781 C 5.8969664 10.886807 5.8969882 10.212765 6.3007812 9.7988281 C 6.5026686 9.5918642 6.7517545 9.4882812 7 9.4882812 z " fill="currentColor"/>
</svg>
