<svg xmlns="http://www.w3.org/2000/svg" width="1em" height="1em" viewBox="0 0 24 24" fill="currentColor">
  <path d="M 12 1 A 1 1 0 0 0 11 2 L 11 2.6132812 C 9.1613414 3.0352567 7.7409744 4.5930711 7.5273438 6.5 L 7.5 6.5 A 1 1 0 0 0 6.5 7.5 A 1 1 0 0 0 7.5 8.5 L 7.5 9 C 7.5 11.473438 9.526562 13.5 12 13.5 C 14.473438 13.5 16.5 11.473438 16.5 9 L 16.5 8.5 A 1 1 0 0 0 17.5 7.5 A 1 1 0 0 0 16.5 6.5 L 16.472656 6.5 C 16.259026 4.5930711 14.838659 3.0352567 13 2.6132812 L 13 2 A 1 1 0 0 0 12 1 z M 12 4.5 C 13.221059 4.5 14.222926 5.3514583 14.451172 6.5 L 9.5488281 6.5 C 9.7770737 5.3514608 10.778945 4.5000037 12 4.5 z M 9.5 8.5 L 14.5 8.5 L 14.5 9 C 14.5 10.392562 13.392562 11.5 12 11.5 C 10.607438 11.5 9.5 10.392562 9.5 9 L 9.5 8.5 z M 8 14 C 7.05719 14 6.3297904 13.993601 5.671875 14.082031 C 5.0139596 14.170491 4.3614738 14.396322 3.8789062 14.878906 C 3.3963405 15.361481 3.170486 16.013964 3.0820312 16.671875 C 2.9935763 17.329786 3 18.0572 3 19 L 3 22 A 1 1 0 0 0 4 23 A 1 1 0 0 0 5 22 L 5 19 C 5 18.0572 5.0064601 17.370792 5.0644531 16.939453 C 5.1224461 16.508114 5.1897446 16.396195 5.2929688 16.292969 C 5.3961813 16.189753 5.5081136 16.122447 5.9394531 16.064453 C 6.1998877 16.029438 6.5533039 16.013223 7 16.005859 L 7 22 A 1 1 0 0 0 8 23 A 1 1 0 0 0 9 22 L 9 16 L 9.5859375 16 L 11.292969 17.707031 A 1.0001 1.0001 0 0 0 12.707031 17.707031 L 14.414062 16 L 15 16 L 15 22 A 1 1 0 0 0 16 23 A 1 1 0 0 0 17 22 L 17 16.005859 C 17.446696 16.01323 17.800115 16.029464 18.060547 16.064453 C 18.491884 16.122443 18.603804 16.189741 18.707031 16.292969 C 18.810259 16.396196 18.877553 16.508116 18.935547 16.939453 C 18.99354 17.370793 19 18.0572 19 19 L 19 22 A 1 1 0 0 0 20 23 A 1 1 0 0 0 21 22 L 21 19 C 21 18.0572 21.006399 17.329788 20.917969 16.671875 C 20.829509 16.013962 20.603666 15.361479 20.121094 14.878906 C 19.63852 14.396334 18.986038 14.170488 18.328125 14.082031 C 17.670212 13.993575 16.9428 14 16 14 L 14 14 A 1.0001 1.0001 0 0 0 13.292969 14.292969 L 12 15.585938 L 10.707031 14.292969 A 1.0001 1.0001 0 0 0 10 14 L 8 14 z " fill="currentColor"/>
</svg>
