<svg xmlns="http://www.w3.org/2000/svg" width="1em" height="1em" viewBox="0 0 24 24" fill="currentColor">
  <path d="M 12 1 A 1 1 0 0 0 11 2 L 11 6.0722656 C 7.942954 6.513145 5.513145 8.942954 5.0722656 12 L 5 12 A 1 1 0 0 0 4 13 A 1 1 0 0 0 5 14 L 8.1269531 14 C 8.5747656 15.718768 10.147562 17 12 17 C 13.852438 17 15.425234 15.718768 15.873047 14 L 19 14 A 1 1 0 0 0 20 13 A 1 1 0 0 0 19 12 L 18.927734 12 C 18.486854 8.9429533 16.057041 6.5131455 13 6.0722656 L 13 2 A 1 1 0 0 0 12 1 z M 12 8 C 14.41786 8 16.325302 9.7283175 16.798828 12 L 7.2011719 12 C 7.6746955 9.7283165 9.58213 8 12 8 z M 10.261719 14 L 13.738281 14 C 13.395903 14.600811 12.750482 15 12 15 C 11.249518 15 10.604097 14.600811 10.261719 14 z M 9.0097656 18 A 1 1 0 0 0 8.4003906 18.199219 L 6.4003906 19.699219 A 1 1 0 0 0 6.1992188 21.099609 A 1 1 0 0 0 7.5996094 21.300781 L 9.5996094 19.800781 A 1 1 0 0 0 9.8007812 18.400391 A 1 1 0 0 0 9.140625 18.009766 A 1 1 0 0 0 9.0097656 18 z M 14.990234 18 A 1 1 0 0 0 14.859375 18.009766 A 1 1 0 0 0 14.199219 18.400391 A 1 1 0 0 0 14.400391 19.800781 L 16.400391 21.300781 A 1 1 0 0 0 17.800781 21.099609 A 1 1 0 0 0 17.599609 19.699219 L 15.599609 18.199219 A 1 1 0 0 0 14.990234 18 z M 12 19 A 1 1 0 0 0 11 20 L 11 22 A 1 1 0 0 0 12 23 A 1 1 0 0 0 13 22 L 13 20 A 1 1 0 0 0 12 19 z " fill="currentColor"/>
</svg>
