<svg xmlns="http://www.w3.org/2000/svg" width="1em" height="1em" viewBox="0 0 24 24" fill="currentColor">
  <path d="M 12 1 C 10.3652 1 9.4186559 0.97336885 8.4589844 1.3632812 C 7.9782819 1.5585984 7.5302196 1.8277847 7.1328125 2.1621094 C 6.3397238 2.8293453 5.9181538 3.6816808 5.1445312 5.1347656 L 4.34375 6.6367188 C 3.6435007 7.9519674 3.1034402 8.9483746 2.78125 9.8515625 C 2.4590598 10.75475 2.3621609 11.727768 2.8417969 12.537109 C 3.321439 13.346461 4.2258459 13.725689 5.1699219 13.867188 C 6.1139978 14.008684 7.23903 14 8.71875 14 L 11 14 L 11 18.021484 C 10.836468 18.037125 10.67813 18.063189 10.509766 18.109375 C 10.104148 18.220542 9.7267963 18.414264 9.40625 18.689453 C 9.0435862 19.000628 8.8649159 19.334308 8.5957031 19.789062 C 8.435033 20.060537 8.3055162 20.274576 8.1933594 20.513672 C 8.0812025 20.752768 7.9580003 21.066893 8.0117188 21.466797 C 8.0883118 22.036885 8.4566884 22.50123 8.9199219 22.755859 C 9.5419831 23.097692 9.9807585 23 10.699219 23 L 13.300781 23 C 14.019081 23 14.458118 23.0977 15.080078 22.755859 C 15.543635 22.501341 15.911666 22.038877 15.988281 21.46875 C 16.042021 21.06888 15.918741 20.752735 15.806641 20.513672 C 15.694538 20.274609 15.564897 20.062416 15.404297 19.791016 C 15.135186 19.336097 14.958237 19.000644 14.595703 18.689453 C 14.27525 18.414321 13.896304 18.220584 13.490234 18.109375 C 13.321856 18.063167 13.163524 18.037124 13 18.021484 L 13 14 L 15.28125 14 C 16.761 14 17.886 14.008699 18.830078 13.867188 C 19.774157 13.725689 20.678553 13.346446 21.158203 12.537109 C 21.63786 11.727762 21.540948 10.754747 21.21875 9.8515625 C 20.896546 8.9483778 20.356497 7.9519674 19.65625 6.6367188 L 18.855469 5.1347656 C 18.081869 3.6816965 17.660386 2.8293578 16.867188 2.1621094 C 16.469822 1.8278089 16.021787 1.5586113 15.541016 1.3632812 C 14.581346 0.97335306 13.6348 1 12 1 z M 12 3 C 13.6348 3 14.323532 3.027645 14.789062 3.2167969 C 15.07529 3.3330869 15.340491 3.4934398 15.578125 3.6933594 C 15.965127 4.0189109 16.316243 4.621148 17.089844 6.0742188 L 17.890625 7.5761719 C 18.590878 8.8914333 19.102114 9.8679892 19.335938 10.523438 C 19.569761 11.178885 19.534843 11.351373 19.4375 11.515625 C 19.34015 11.679889 19.215053 11.78677 18.535156 11.888672 C 17.85526 11.990574 16.761 12 15.28125 12 L 8.71875 12 C 7.23903 12 6.1447378 11.990574 5.4648438 11.888672 C 4.7849498 11.78677 4.6598379 11.679874 4.5625 11.515625 C 4.465156 11.351366 4.4302477 11.178885 4.6640625 10.523438 C 4.8978773 9.8679899 5.4091243 8.8914233 6.109375 7.5761719 L 6.9101562 6.0742188 C 7.6837737 4.6211436 8.0349037 4.0189235 8.421875 3.6933594 C 8.6594879 3.493464 8.9246999 3.3330998 9.2109375 3.2167969 C 9.6765259 3.0276293 10.3652 3 12 3 z M 11.943359 20 L 12 20 L 12.056641 20 C 12.658641 20 12.878735 20.014549 12.960938 20.037109 A 1.0001 1.0001 0 0 0 12.962891 20.037109 C 13.099421 20.074499 13.213222 20.138563 13.292969 20.207031 C 13.324439 20.234041 13.414505 20.353713 13.683594 20.808594 C 13.739784 20.903544 13.749764 20.927097 13.792969 21.001953 C 13.683736 21.008179 13.733825 21 13.300781 21 L 10.699219 21 C 10.266079 21 10.316305 21.008153 10.207031 21.001953 C 10.250261 20.927063 10.260181 20.903593 10.316406 20.808594 C 10.585673 20.353748 10.675535 20.234056 10.707031 20.207031 A 1.0001 1.0001 0 0 0 10.708984 20.207031 C 10.788434 20.138821 10.902479 20.074542 11.039062 20.037109 C 11.121441 20.014451 11.341459 20 11.943359 20 z " fill="currentColor"/>
</svg>
