<svg xmlns="http://www.w3.org/2000/svg" width="1em" height="1em" viewBox="0 0 24 24" fill="currentColor">
  <path d="M 12 1 A 1 1 0 0 0 11 2 L 11 3 L 10.994141 3 C 8.5624562 3 6.3605769 4.3763691 5.3320312 6.5 L 5 6.5 A 1.0001 1.0001 0 0 0 4.2929688 8.2070312 L 5 8.9140625 L 5 17.085938 L 4.2929688 17.792969 A 1.0001 1.0001 0 0 0 5 19.5 L 5.3320312 19.5 C 6.360574 21.623651 8.5624542 23 10.994141 23 L 13.005859 23 C 15.437511 23 17.639436 21.623674 18.667969 19.5 L 19 19.5 A 1.0001 1.0001 0 0 0 19.707031 17.792969 L 19 17.085938 L 19 8.9140625 L 19.707031 8.2070312 A 1.0001 1.0001 0 0 0 19 6.5 L 18.667969 6.5 C 17.639435 4.3763476 15.437517 3 13.005859 3 L 13 3 L 13 2 A 1 1 0 0 0 12 1 z M 10.994141 5 L 12 5 L 13.005859 5 C 14.256559 5 15.261395 5.6431829 16.050781 6.5 L 7.9492188 6.5 C 8.738596 5.6431789 9.743409 5 10.994141 5 z M 7 8.5 L 17 8.5 L 17 17.5 L 7 17.5 L 7 8.5 z M 1.9394531 9.5019531 A 1 1 0 0 0 1.1054688 10.052734 A 1 1 0 0 0 1.5527344 11.394531 L 2.5527344 11.894531 A 1 1 0 0 0 3.8945312 11.447266 A 1 1 0 0 0 3.4472656 10.105469 L 2.4472656 9.6054688 A 1 1 0 0 0 1.9394531 9.5019531 z M 21.929688 9.5019531 A 1 1 0 0 0 21.552734 9.6054688 L 20.552734 10.105469 A 1 1 0 0 0 20.105469 11.447266 A 1 1 0 0 0 21.447266 11.894531 L 22.447266 11.394531 A 1 1 0 0 0 22.894531 10.052734 A 1 1 0 0 0 21.929688 9.5019531 z M 12 11 A 1 1 0 0 0 11 12 L 11 14 A 1 1 0 0 0 12 15 A 1 1 0 0 0 13 14 L 13 12 A 1 1 0 0 0 12 11 z M 2.9296875 14.001953 A 1 1 0 0 0 2.5527344 14.105469 L 1.5527344 14.605469 A 1 1 0 0 0 1.1054688 15.947266 A 1 1 0 0 0 2.4472656 16.394531 L 3.4472656 15.894531 A 1 1 0 0 0 3.8945312 14.552734 A 1 1 0 0 0 2.9296875 14.001953 z M 20.939453 14.001953 A 1 1 0 0 0 20.105469 14.552734 A 1 1 0 0 0 20.552734 15.894531 L 21.552734 16.394531 A 1 1 0 0 0 22.894531 15.947266 A 1 1 0 0 0 22.447266 14.605469 L 21.447266 14.105469 A 1 1 0 0 0 20.939453 14.001953 z M 7.9492188 19.5 L 16.050781 19.5 C 15.261397 20.356816 14.256565 21 13.005859 21 L 10.994141 21 C 9.7433951 21 8.7385909 20.35682 7.9492188 19.5 z " fill="currentColor"/>
</svg>
