<svg xmlns="http://www.w3.org/2000/svg" width="1em" height="1em" viewBox="0 0 24 24" fill="currentColor">
  <path d="M 8.5 2.5 C 7.32149 2.5 6.4171176 2.49285 5.6230469 2.5996094 C 4.8289761 2.7063687 4.0811863 2.9695949 3.5253906 3.5253906 C 2.9696004 4.0811884 2.7063688 4.8289773 2.5996094 5.6230469 C 2.49285 6.4171164 2.5 7.32149 2.5 8.5 L 2.5 16.226562 L 0.6953125 19.265625 A 1.0001 1.0001 0 0 0 0.66601562 19.318359 C 0.16765707 20.285632 0.95163836 21.5 2.015625 21.5 L 21.984375 21.5 C 23.048393 21.5 23.832474 20.285657 23.333984 19.318359 A 1.0001 1.0001 0 0 0 23.304688 19.265625 L 21.5 16.226562 L 21.5 8.5 C 21.5 7.32149 21.507201 6.4171267 21.400391 5.6230469 C 21.293621 4.8289671 21.030444 4.0811794 20.474609 3.5253906 C 19.918828 2.9695865 19.171015 2.7063693 18.376953 2.5996094 C 17.582891 2.4928494 16.6785 2.5 15.5 2.5 L 8.5 2.5 z M 8.5 4.5 L 15.5 4.5 C 16.6785 4.5 17.541887 4.5057302 18.109375 4.5820312 C 18.676863 4.6583293 18.884128 4.7630273 19.060547 4.9394531 C 19.237013 5.1159044 19.341665 5.3231348 19.417969 5.890625 C 19.494273 6.4581154 19.5 7.32149 19.5 8.5 L 19.5 15.5 L 4.5 15.5 L 4.5 8.5 C 4.5 7.32149 4.5057331 6.4581254 4.5820312 5.890625 C 4.6583295 5.3231246 4.7630134 5.1158953 4.9394531 4.9394531 C 5.1158874 4.7630188 5.3231232 4.6583294 5.890625 4.5820312 C 6.4581268 4.5057331 7.32149 4.5 8.5 4.5 z M 15.457031 7.0019531 A 1 1 0 0 0 15.199219 7.046875 C 13.787477 7.4913032 12.636202 8.5971527 11.726562 9.5664062 C 11.296057 10.025124 11.26629 10.107594 10.998047 10.443359 C 10.432738 9.8680769 9.921875 9.4941406 9.921875 9.4941406 A 1 1 0 0 0 8.59375 9.9765625 A 1 1 0 0 0 9.0761719 11.306641 C 9.0761719 11.306641 9.6072782 11.517244 10.119141 12.472656 A 1.0001 1.0001 0 0 0 11.814453 12.582031 C 11.814453 12.582031 12.374612 11.797673 13.185547 10.933594 C 13.996481 10.069515 15.094823 9.1753668 15.800781 8.953125 A 1 1 0 0 0 16.453125 7.6992188 A 1 1 0 0 0 15.457031 7.0019531 z M 4.0683594 17.5 L 19.929688 17.5 L 21.117188 19.5 L 2.8808594 19.5 L 4.0683594 17.5 z " fill="currentColor"/>
</svg>
