<svg xmlns="http://www.w3.org/2000/svg" width="1em" height="1em" viewBox="0 0 24 24" fill="currentColor">
  <path d="M 12 2 C 9.0494208 2 6.3608785 2.8266813 4.3554688 4.2304688 C 2.350059 5.6342562 1 7.6809762 1 10 C 1 11.44334 1.5774675 12.769295 2.4550781 13.908203 C 2.2931841 14.275521 2 14.575868 2 15 C 2 16.305957 2.9518452 17.229199 4.1269531 17.636719 C 4.2669137 18.415689 4.5672024 19.109951 4.9765625 19.609375 C 5.4992067 20.247007 6.0762452 20.656312 6.5527344 20.894531 A 1 1 0 0 0 7.8945312 20.447266 A 1 1 0 0 0 7.4472656 19.105469 C 7.2570848 19.010388 6.8341258 18.72084 6.5234375 18.341797 C 6.3289355 18.104502 6.2848635 17.792194 6.1953125 17.501953 C 6.5039055 17.35167 6.8836299 17.345288 7.1230469 17.103516 C 7.9924152 17.417612 8.8824861 17.710814 9.859375 17.849609 A 1 1 0 0 0 10.990234 17 A 1 1 0 0 0 10.140625 15.869141 C 9.3282643 15.753721 8.6048499 15.508505 7.8925781 15.257812 C 7.9023818 15.160054 8 15.100147 8 15 C 8 13.354975 6.6449915 12 5 12 C 4.5658571 12 4.2569813 12.297618 3.8828125 12.466797 C 3.3443204 11.692692 3 10.874736 3 10 C 3 8.4530338 3.8880753 6.9988556 5.5019531 5.8691406 C 7.1158309 4.7394256 9.4277292 4 12 4 C 14.572244 4 16.884162 4.7394243 18.498047 5.8691406 C 20.111932 6.998857 21 8.4530381 21 10 C 21 10.271753 20.973462 10.537095 20.919922 10.798828 A 1 1 0 0 0 21.699219 11.980469 A 1 1 0 0 0 22.878906 11.201172 C 22.958976 10.809705 23 10.407247 23 10 C 23 7.6809719 21.649946 5.6342549 19.644531 4.2304688 C 17.639117 2.8266826 14.950556 2 12 2 z M 13.791016 11 C 13.706449 10.9999 13.619775 11.003588 13.53125 11.013672 C 13.177149 11.054001 12.777177 11.222823 12.5 11.5 C 12.222823 11.777177 12.054001 12.177149 12.013672 12.53125 C 11.973342 12.885351 12.022376 13.202808 12.097656 13.523438 C 12.248258 14.164694 12.526358 14.854765 12.882812 15.765625 L 14.064453 18.783203 C 14.4049 19.653195 14.655757 20.315849 14.953125 20.855469 C 15.101809 21.125278 15.260601 21.372823 15.519531 21.601562 C 15.778462 21.830302 16.201433 22.019875 16.609375 21.998047 C 17.019372 21.976177 17.421652 21.740224 17.654297 21.484375 C 17.886941 21.228526 18.017393 20.965113 18.136719 20.679688 C 18.37537 20.108836 18.557089 19.417713 18.804688 18.509766 C 18.892553 18.187673 18.950984 18.031891 18.970703 17.970703 C 19.031898 17.950978 19.18769 17.892537 19.509766 17.804688 C 20.417713 17.557088 21.108837 17.37537 21.679688 17.136719 C 21.965114 17.017393 22.228526 16.886941 22.484375 16.654297 C 22.740224 16.421652 22.97618 16.019372 22.998047 15.609375 C 23.019877 15.201433 22.830303 14.778462 22.601562 14.519531 C 22.372823 14.260601 22.125278 14.101809 21.855469 13.953125 C 21.315849 13.655757 20.653195 13.4049 19.783203 13.064453 L 16.765625 11.882812 C 15.854765 11.526357 15.164693 11.248258 14.523438 11.097656 C 14.282966 11.041181 14.044717 11.000299 13.791016 11 z M 14.041016 13.041016 C 14.055756 13.044116 14.050516 13.041204 14.066406 13.044922 C 14.451425 13.135342 15.12627 13.389648 16.037109 13.746094 L 19.054688 14.925781 C 19.659886 15.162608 19.975972 15.310411 20.330078 15.46875 C 19.95739 15.589782 19.619366 15.701837 18.984375 15.875 C 18.443715 16.022489 17.975673 16.106127 17.541016 16.541016 C 17.106127 16.975673 17.022489 17.443715 16.875 17.984375 C 16.701837 18.619366 16.589782 18.95739 16.46875 19.330078 C 16.310411 18.975972 16.162608 18.659886 15.925781 18.054688 L 14.746094 15.037109 C 14.389648 14.12627 14.135345 13.451425 14.044922 13.066406 C 14.041223 13.050549 14.044125 13.055746 14.041016 13.041016 z M 5 14 C 5.5641485 14 6 14.435825 6 15 C 6 15.564175 5.5641485 16 5 16 C 4.4358515 16 4 15.564175 4 15 C 4 14.435825 4.4358515 14 5 14 z " fill="currentColor"/>
</svg>
