<svg xmlns="http://www.w3.org/2000/svg" width="1em" height="1em" viewBox="0 0 24 24" fill="currentColor">
  <path d="M 12 1 C 5.9367104 1 1 5.9367104 1 12 C 1 18.063244 5.9367044 23 12 23 C 18.06325 23 23 18.06325 23 12 C 23 5.9367044 18.063244 1 12 1 z M 12 3 C 14.674116 3 17.070494 4.1573301 18.716797 6 L 5.2832031 6 C 6.9294982 4.1573294 9.3258535 3 12 3 z M 3.9316406 7.9980469 A 1 1 0 0 0 4 8 L 20 8 A 1 1 0 0 0 20.068359 7.9980469 C 20.524957 8.9196252 20.827927 9.9310161 20.945312 11 L 3.0546875 11 C 3.1720714 9.9310155 3.4750474 8.9196251 3.9316406 7.9980469 z M 3.0546875 13 L 20.945312 13 C 20.827925 14.06898 20.524962 15.080373 20.068359 16.001953 A 1 1 0 0 0 20 16 L 4 16 A 1 1 0 0 0 3.9316406 16.001953 C 3.475042 15.080373 3.1720733 14.068981 3.0546875 13 z M 5.2832031 18 L 18.716797 18 C 17.070493 19.842663 14.674102 21 12 21 C 9.3258673 21 6.9294985 19.842664 5.2832031 18 z " fill="currentColor"/>
</svg>
