<svg xmlns="http://www.w3.org/2000/svg" width="1em" height="1em" viewBox="0 0 24 24" fill="currentColor">
  <path d="M 12 1 C 5.9367104 1 1 5.9367104 1 12 C 1 14.954664 2.1724552 17.642366 4.0761719 19.621094 A 1 1 0 0 0 4.3183594 20.730469 A 1 1 0 0 0 5.4980469 20.865234 C 7.32097 22.206049 9.5697806 23 12 23 C 17.178283 23 21.53583 19.39843 22.697266 14.570312 A 1 1 0 0 0 22.777344 14.482422 A 1 1 0 0 0 22.90625 13.433594 C 22.967589 12.964534 23 12.485459 23 12 C 23 5.9367044 18.063244 1 12 1 z M 12 3 C 14.141664 3 16.10575 3.7421708 17.648438 4.984375 L 8.4902344 14.794922 A 1 1 0 0 0 7.9101562 14.671875 A 1 1 0 0 0 7.2324219 15.027344 A 1 1 0 0 0 7.1640625 16.216797 L 5.390625 18.117188 C 3.9060215 16.51331 3 14.365578 3 12 C 3 7.0175896 7.0175896 3 12 3 z M 19.056641 6.4042969 C 20.227171 7.8799247 20.942627 9.7327968 20.996094 11.755859 L 17.044922 8.5585938 L 19.056641 6.4042969 z M 15.677734 10.025391 L 20.748047 14.126953 C 20.48763 15.207456 20.033794 16.211719 19.423828 17.099609 L 13.675781 12.169922 L 15.677734 10.025391 z M 12.308594 13.632812 L 18.113281 18.613281 C 17.285976 19.37828 16.315867 19.988065 15.244141 20.400391 L 15.242188 20.400391 L 10.039062 16.064453 L 12.308594 13.632812 z M 8.671875 17.529297 L 12.794922 20.964844 C 12.533163 20.987585 12.267808 21 12 21 C 10.105587 21 8.3499917 20.419612 6.9023438 19.425781 L 8.671875 17.529297 z " fill="currentColor"/>
</svg>
