<svg xmlns="http://www.w3.org/2000/svg" width="1em" height="1em" viewBox="0 0 24 24" fill="currentColor">
  <path d="M 12 1.5 C 9.76083 1.5 8.061073 1.4944581 6.6542969 1.6835938 C 5.2475207 1.8727295 4.0688969 2.2982969 3.1835938 3.1835938 C 2.298294 4.0688933 1.8727295 5.2475195 1.6835938 6.6542969 C 1.6199097 7.1279743 1.5779657 7.6340764 1.5507812 8.1835938 A 1 1 0 0 0 1.5 8.5 A 1 1 0 0 0 1.5292969 8.7382812 C 1.4988195 9.6883567 1.5 10.761643 1.5 12 C 1.5 13.238348 1.4988191 14.311639 1.5292969 15.261719 A 1 1 0 0 0 1.5 15.5 A 1 1 0 0 0 1.5507812 15.816406 C 1.5779657 16.365921 1.6199108 16.872027 1.6835938 17.345703 C 1.8727292 18.752486 2.2983047 19.931079 3.1835938 20.816406 C 4.068896 21.701683 5.2475226 22.127276 6.6542969 22.316406 C 8.0610711 22.505536 9.76083 22.5 12 22.5 C 14.23915 22.5 15.938923 22.5055 17.345703 22.316406 C 18.752483 22.127277 19.931076 21.701673 20.816406 20.816406 C 21.701673 19.931076 22.127277 18.752483 22.316406 17.345703 C 22.380088 16.87203 22.422034 16.365919 22.449219 15.816406 A 1 1 0 0 0 22.5 15.5 A 1 1 0 0 0 22.470703 15.261719 C 22.501181 14.311641 22.5 13.238345 22.5 12 C 22.5 10.761671 22.501183 9.6883414 22.470703 8.7382812 A 1 1 0 0 0 22.5 8.5 A 1 1 0 0 0 22.449219 8.1835938 C 22.422034 7.634101 22.380074 7.1279544 22.316406 6.6542969 C 22.127276 5.2475238 21.70168 4.0688995 20.816406 3.1835938 C 19.931079 2.2983046 18.752486 1.8727291 17.345703 1.6835938 C 15.93892 1.4944584 14.23915 1.5 12 1.5 z M 12 3.5 C 14.23915 3.5 15.897908 3.50539 17.078125 3.6640625 C 18.258342 3.8227371 18.896371 4.0917053 19.402344 4.5976562 C 19.90827 5.1036005 20.177267 5.7416656 20.335938 6.921875 C 20.360311 7.1031685 20.380761 7.2957537 20.398438 7.5 L 3.6015625 7.5 C 3.6192387 7.2957536 3.6396883 7.1031684 3.6640625 6.921875 C 3.8227368 5.7416673 4.0917159 5.1035966 4.5976562 4.5976562 C 5.1036031 4.0917131 5.7416686 3.8227368 6.921875 3.6640625 C 8.1020814 3.5053882 9.76083 3.5 12 3.5 z M 3.5136719 9.5 L 20.486328 9.5 C 20.498833 10.237818 20.5 11.068708 20.5 12 C 20.5 12.931289 20.498834 13.762179 20.486328 14.5 L 3.5136719 14.5 C 3.5011672 13.762179 3.5 12.931288 3.5 12 C 3.5 11.068708 3.5011674 10.237818 3.5136719 9.5 z M 3.6015625 16.5 L 20.398438 16.5 C 20.380762 16.704246 20.36031 16.896831 20.335938 17.078125 C 20.177267 18.258345 19.908277 18.896374 19.402344 19.402344 C 18.896374 19.908277 18.258345 20.177267 17.078125 20.335938 C 15.897905 20.494609 14.23915 20.5 12 20.5 C 9.76083 20.5 8.1020857 20.494608 6.921875 20.335938 C 5.7416643 20.177267 5.103594 19.908267 4.5976562 19.402344 C 4.0917053 18.896371 3.8227371 18.258342 3.6640625 17.078125 C 3.6396884 16.896831 3.6192387 16.704246 3.6015625 16.5 z " fill="currentColor"/>
</svg>
