<svg xmlns="http://www.w3.org/2000/svg" width="1em" height="1em" viewBox="0 0 24 24" fill="currentColor">
  <path d="M 12 1.5 C 9.76083 1.5 8.0610742 1.4944581 6.6542969 1.6835938 C 5.2475195 1.8727295 4.0688933 2.298294 3.1835938 3.1835938 C 2.2982969 4.0688968 1.8727295 5.2475207 1.6835938 6.6542969 C 1.598063 7.2904679 1.5517668 7.9868335 1.5273438 8.765625 A 1 1 0 0 0 1.5 9 A 1 1 0 0 0 1.5175781 9.1835938 C 1.4994339 10.021056 1.5 10.951168 1.5 12 C 1.5 14.23915 1.4944601 15.93892 1.6835938 17.345703 C 1.8727292 18.752486 2.2983047 19.931079 3.1835938 20.816406 C 4.0688995 21.70168 5.2475238 22.127276 6.6542969 22.316406 C 8.0610699 22.505536 9.76083 22.5 12 22.5 C 14.23915 22.5 15.938923 22.5055 17.345703 22.316406 C 18.752483 22.127277 19.931076 21.701673 20.816406 20.816406 C 21.701673 19.931076 22.127277 18.752483 22.316406 17.345703 C 22.505536 15.938923 22.5 14.23915 22.5 12 C 22.5 10.951198 22.50057 10.021038 22.482422 9.1835938 A 1 1 0 0 0 22.5 9 A 1 1 0 0 0 22.472656 8.765625 C 22.448229 7.986866 22.401915 7.2904451 22.316406 6.6542969 C 22.127276 5.2475226 21.701683 4.0688961 20.816406 3.1835938 C 19.931079 2.2983046 18.752486 1.8727291 17.345703 1.6835938 C 15.93892 1.4944584 14.23915 1.5 12 1.5 z M 12 3.5 C 14.23915 3.5 15.897908 3.50539 17.078125 3.6640625 C 18.258342 3.8227371 18.896371 4.0917053 19.402344 4.5976562 C 19.908267 5.1035939 20.177267 5.7416643 20.335938 6.921875 C 20.379345 7.2447417 20.412054 7.6034213 20.435547 8 L 3.5644531 8 C 3.5879456 7.6034208 3.6206544 7.244741 3.6640625 6.921875 C 3.8227368 5.7416686 4.091713 5.1036031 4.5976562 4.5976562 C 5.1035967 4.0917159 5.7416673 3.8227368 6.921875 3.6640625 C 8.1020827 3.5053882 9.76083 3.5 12 3.5 z M 3.5058594 10 L 20.494141 10 C 20.50033 10.607866 20.5 11.273372 20.5 12 C 20.5 14.23915 20.4946 15.897905 20.335938 17.078125 C 20.177267 18.258345 19.908277 18.896374 19.402344 19.402344 C 18.896374 19.908277 18.258345 20.177267 17.078125 20.335938 C 15.897905 20.494609 14.23915 20.5 12 20.5 C 9.76083 20.5 8.1020844 20.494608 6.921875 20.335938 C 5.7416656 20.177267 5.1036004 19.90827 4.5976562 19.402344 C 4.0917053 18.896371 3.8227371 18.258342 3.6640625 17.078125 C 3.5053879 15.897908 3.5 14.23915 3.5 12 C 3.5 11.273372 3.4996706 10.607866 3.5058594 10 z " fill="currentColor"/>
</svg>
