<svg xmlns="http://www.w3.org/2000/svg" width="1em" height="1em" viewBox="0 0 24 24" fill="currentColor">
  <path d="M 4.0371094 2 A 1 1 0 0 0 3.5371094 2.1367188 A 1 1 0 0 0 3.1777344 3.5039062 L 3.7578125 4.5 L 3 4.5 A 1 1 0 0 0 2 5.5 A 1 1 0 0 0 3 6.5 L 3.7578125 6.5 L 3.1777344 7.4960938 A 1 1 0 0 0 3.5371094 8.8632812 A 1 1 0 0 0 4.90625 8.5039062 L 5.5 7.4863281 L 6.09375 8.5039062 A 1 1 0 0 0 7.4628906 8.8632812 A 1 1 0 0 0 7.8222656 7.4960938 L 7.2421875 6.5 L 8 6.5 A 1 1 0 0 0 9 5.5 A 1 1 0 0 0 8 4.5 L 7.2421875 4.5 L 7.8222656 3.5039062 A 1 1 0 0 0 7.4628906 2.1367188 A 1 1 0 0 0 6.703125 2.0332031 A 1 1 0 0 0 6.09375 2.4960938 L 5.5 3.5136719 L 4.90625 2.4960938 A 1 1 0 0 0 4.0371094 2 z M 12 4.5 A 1 1 0 0 0 11 5.5 A 1 1 0 0 0 12 6.5 L 21 6.5 A 1 1 0 0 0 22 5.5 A 1 1 0 0 0 21 4.5 L 12 4.5 z M 12 11 A 1 1 0 0 0 11 12 A 1 1 0 0 0 12 13 L 21 13 A 1 1 0 0 0 22 12 A 1 1 0 0 0 21 11 L 12 11 z M 4.0371094 15 A 1 1 0 0 0 3.5371094 15.136719 A 1 1 0 0 0 3.1777344 16.503906 L 3.7578125 17.5 L 3 17.5 A 1 1 0 0 0 2 18.5 A 1 1 0 0 0 3 19.5 L 3.7578125 19.5 L 3.1777344 20.496094 A 1 1 0 0 0 3.5371094 21.863281 A 1 1 0 0 0 4.90625 21.503906 L 5.5 20.486328 L 6.09375 21.503906 A 1 1 0 0 0 7.4628906 21.863281 A 1 1 0 0 0 7.8222656 20.496094 L 7.2421875 19.5 L 8 19.5 A 1 1 0 0 0 9 18.5 A 1 1 0 0 0 8 17.5 L 7.2421875 17.5 L 7.8222656 16.503906 A 1 1 0 0 0 7.4628906 15.136719 A 1 1 0 0 0 6.703125 15.033203 A 1 1 0 0 0 6.09375 15.496094 L 5.5 16.513672 L 4.90625 15.496094 A 1 1 0 0 0 4.0371094 15 z M 12 17.5 A 1 1 0 0 0 11 18.5 A 1 1 0 0 0 12 19.5 L 21 19.5 A 1 1 0 0 0 22 18.5 A 1 1 0 0 0 21 17.5 L 12 17.5 z " fill="currentColor"/>
</svg>
