<svg xmlns="http://www.w3.org/2000/svg" width="1em" height="1em" viewBox="0 0 24 24" fill="currentColor">
  <path d="M 18.779297 1.0078125 C 18.60986 1.0143034 18.444814 1.0411056 18.292969 1.0859375 C 17.888049 1.2054893 17.550948 1.4144281 17.212891 1.6660156 C 16.536775 2.1691907 15.830272 2.8846372 14.888672 3.8203125 L 4.0117188 14.626953 C 3.0174176 15.614959 2.2585205 16.358008 1.7246094 17.060547 C 1.4576538 17.411816 1.2392282 17.758204 1.1074219 18.167969 C 0.97561549 18.577733 0.96223844 19.080214 1.1289062 19.511719 C 1.2955724 19.943218 1.6493116 20.311449 2.0292969 20.519531 C 2.4092821 20.727614 2.8052467 20.820025 3.2363281 20.882812 C 4.0984913 21.008388 5.1416631 21 6.5175781 21 L 8 21 A 1 1 0 0 0 9 20 A 1 1 0 0 0 8 19 L 6.5175781 19 C 5.1416631 19 4.1211603 18.991097 3.5253906 18.904297 C 3.2415278 18.862957 3.0804173 18.801885 3.015625 18.769531 C 3.042512 18.690441 3.1313795 18.514949 3.3164062 18.271484 C 3.6947677 17.773623 4.4275863 17.034869 5.421875 16.046875 L 16.298828 5.2382812 C 17.240428 4.3026067 17.944994 3.6142586 18.408203 3.2695312 C 18.604544 3.1234117 18.71788 3.0747348 18.791016 3.0449219 C 18.825126 3.1260299 18.873976 3.267469 18.910156 3.53125 C 18.991835 4.1266899 19 5.130735 19 6.484375 L 19 8 A 1 1 0 0 0 20 9 A 1 1 0 0 0 21 8 L 21 6.484375 C 21 5.130735 21.008624 4.1057433 20.892578 3.2597656 C 20.834555 2.8367768 20.746694 2.4496749 20.556641 2.0761719 C 20.366587 1.7026688 20.030769 1.3426532 19.615234 1.1582031 C 19.355529 1.04292 19.061692 0.99699429 18.779297 1.0078125 z M 22 10 C 21.5286 10 21.155131 9.9930819 20.769531 10.044922 C 20.383931 10.096762 19.922061 10.249815 19.585938 10.585938 C 19.249816 10.922059 19.096766 11.383931 19.044922 11.769531 C 18.993078 12.155133 19 12.5286 19 13 L 19 14 C 18.0572 14 17.329788 13.993601 16.671875 14.082031 C 16.013962 14.170491 15.361479 14.396334 14.878906 14.878906 C 14.396334 15.361479 14.170488 16.013962 14.082031 16.671875 C 13.993575 17.329789 14 18.0572 14 19 L 11 19 A 1 1 0 0 0 10.869141 19.007812 A 1 1 0 0 0 10 20 L 10 22 A 1 1 0 0 0 11 23 A 1 1 0 0 0 12 22 L 12 21 L 15 21 L 17.394531 21 C 18.008681 21 18.490688 21.007396 18.962891 20.941406 C 19.435093 20.875456 19.961212 20.688163 20.337891 20.296875 C 20.714594 19.905562 20.881517 19.384068 20.943359 18.90625 C 21.005202 18.428428 21 17.930969 21 17.292969 L 21 15 L 21 13 C 21 12.5286 21.006004 12.194181 21.027344 12.035156 C 21.027659 12.032809 21.02704 12.029588 21.027344 12.027344 C 21.029589 12.02704 21.032807 12.02766 21.035156 12.027344 C 21.194177 12.005967 21.5286 12 22 12 A 1 1 0 0 0 23 11 A 1 1 0 0 0 22 10 z M 19 16 L 19 17.292969 C 19 17.930969 18.994498 18.391109 18.960938 18.650391 C 18.93367 18.861056 18.909929 18.899208 18.900391 18.908203 L 18.900391 18.910156 L 18.898438 18.910156 L 18.898438 18.912109 L 18.898438 18.914062 L 18.896484 18.914062 L 18.896484 18.916016 L 18.894531 18.917969 L 18.892578 18.917969 L 18.890625 18.919922 C 18.877163 18.927751 18.833872 18.940219 18.685547 18.960938 C 18.448221 18.994086 18.008681 19 17.394531 19 L 16 19 C 16 18.0572 16.006503 17.37079 16.064453 16.939453 C 16.122443 16.508116 16.189741 16.396196 16.292969 16.292969 C 16.396196 16.189741 16.508116 16.122447 16.939453 16.064453 C 17.370793 16.00646 18.0572 16 19 16 z " fill="currentColor"/>
</svg>
