<svg xmlns="http://www.w3.org/2000/svg" width="1em" height="1em" viewBox="0 0 24 24" fill="currentColor">
  <path d="M 5 2 A 1 1 0 0 0 4 3 L 4 21 A 1 1 0 0 0 5 22 A 1 1 0 0 0 6 21 L 6 3 A 1 1 0 0 0 5 2 z M 9 5 A 1 1 0 0 0 8 6 A 1 1 0 0 0 9 7 L 17 7 A 1 1 0 0 0 18 6 A 1 1 0 0 0 17 5 L 9 5 z M 9 11 A 1 1 0 0 0 8 12 A 1 1 0 0 0 9 13 L 19 13 A 1 1 0 0 0 20 12 A 1 1 0 0 0 19 11 L 9 11 z M 9 17 A 1 1 0 0 0 8 18 A 1 1 0 0 0 9 19 L 17 19 A 1 1 0 0 0 18 18 A 1 1 0 0 0 17 17 L 9 17 z " fill="currentColor"/>
</svg>
