<svg xmlns="http://www.w3.org/2000/svg" width="1em" height="1em" viewBox="0 0 24 24" fill="currentColor">
  <path d="M 3.6699219 2 C 3.3906995 2.0084163 3.0806408 2.0991549 2.84375 2.2578125 C 2.3022724 2.6204536 2.1232087 3.2275468 2.0585938 3.7324219 C 1.9939787 4.2372969 2 4.785615 2 5.5 C 2 6.214385 1.9939788 6.7627031 2.0585938 7.2675781 C 2.1232087 7.7724532 2.3022724 8.3795464 2.84375 8.7421875 C 3.1144823 8.9235105 3.4803776 9.0154538 3.7871094 8.9980469 C 4.0938412 8.9806399 4.3411654 8.8903234 4.5664062 8.7871094 C 5.016888 8.5806812 5.4236961 8.2946952 5.9570312 7.9375 C 6.490366 7.5803052 6.9107074 7.3102878 7.2773438 6.9726562 C 7.6439802 6.6350248 8 6.0996979 8 5.5 C 8 4.9003021 7.6439802 4.3649753 7.2773438 4.0273438 C 6.9107074 3.6897123 6.490366 3.4196948 5.9570312 3.0625 C 5.423696 2.7053048 5.016888 2.4193188 4.5664062 2.2128906 C 4.3411655 2.1096766 4.0938412 2.0193601 3.7871094 2.0019531 C 3.7487679 1.9997773 3.7098108 1.9987977 3.6699219 2 z M 4.0351562 4.21875 C 4.2480175 4.3426372 4.4550255 4.4623125 4.84375 4.7226562 C 5.3770853 5.0798514 5.7551789 5.3445383 5.921875 5.4980469 L 5.9238281 5.5 L 5.921875 5.5019531 C 5.7551789 5.6554617 5.3770853 5.9201486 4.84375 6.2773438 C 4.4550255 6.5376875 4.2480176 6.6573628 4.0351562 6.78125 C 4.0122604 6.4842313 4 6.1046979 4 5.5 C 4 4.8953021 4.0122603 4.5157687 4.0351562 4.21875 z M 11 4.5 A 1 1 0 0 0 10 5.5 A 1 1 0 0 0 11 6.5 L 21 6.5 A 1 1 0 0 0 22 5.5 A 1 1 0 0 0 21 4.5 L 11 4.5 z M 11 11 A 1 1 0 0 0 10 12 A 1 1 0 0 0 11 13 L 21 13 A 1 1 0 0 0 22 12 A 1 1 0 0 0 21 11 L 11 11 z M 3.6699219 15 C 3.3907219 15.008422 3.0806458 15.09921 2.84375 15.257812 C 2.3022795 15.620461 2.123208 16.227541 2.0585938 16.732422 C 1.9939793 17.237302 2 17.7856 2 18.5 C 2 19.2144 1.9939798 19.762698 2.0585938 20.267578 C 2.1232078 20.772459 2.3022795 21.379538 2.84375 21.742188 C 3.1144881 21.923448 3.4804224 22.015466 3.7871094 21.998047 C 4.0937964 21.980627 4.3411705 21.890315 4.5664062 21.787109 C 5.0168777 21.580698 5.4236789 21.294712 5.9570312 20.9375 C 6.4903669 20.5803 6.9107076 20.310294 7.2773438 19.972656 C 7.6439799 19.635018 8 19.099697 8 18.5 C 8 17.900303 7.6439799 17.364982 7.2773438 17.027344 C 6.9107076 16.689706 6.4903669 16.4197 5.9570312 16.0625 C 5.4236789 15.705288 5.016878 15.419302 4.5664062 15.212891 C 4.3411704 15.109685 4.0937964 15.019372 3.7871094 15.001953 C 3.7487735 14.999776 3.7098076 14.998797 3.6699219 15 z M 4.0351562 17.21875 C 4.2480151 17.342628 4.4550379 17.462317 4.84375 17.722656 C 5.3770844 18.079856 5.7551786 18.344535 5.921875 18.498047 L 5.9238281 18.5 L 5.921875 18.501953 C 5.7551786 18.655418 5.3770844 18.920144 4.84375 19.277344 C 4.4550379 19.537683 4.248015 19.657372 4.0351562 19.78125 C 4.0122601 19.484223 4 19.104711 4 18.5 C 4 17.895289 4.0122601 17.515777 4.0351562 17.21875 z M 11 17.5 A 1 1 0 0 0 10 18.5 A 1 1 0 0 0 11 19.5 L 21 19.5 A 1 1 0 0 0 22 18.5 A 1 1 0 0 0 21 17.5 L 11 17.5 z " fill="currentColor"/>
</svg>
