<svg xmlns="http://www.w3.org/2000/svg" width="1em" height="1em" viewBox="0 0 24 24" fill="currentColor">
  <path d="M 11 1 C 9.11438 1 7.6810556 0.99457301 6.4785156 1.15625 C 5.2759756 1.317927 4.240311 1.689383 3.4648438 2.4648438 C 2.6893829 3.240311 2.317927 4.2759756 2.15625 5.4785156 C 1.994573 6.6810556 2 8.11438 2 10 L 2 14 C 2 15.8856 1.99457 17.318937 2.15625 18.521484 C 2.3179268 19.724031 2.6893545 20.759713 3.4648438 21.535156 C 4.2403087 22.310634 5.2759729 22.682068 6.4785156 22.84375 C 7.6810584 23.005432 9.11438 23 11 23 L 13 23 C 14.8856 23 16.318935 23.0054 17.521484 22.84375 C 18.724034 22.682069 19.759716 22.310663 20.535156 21.535156 C 21.310663 20.759716 21.682069 19.724034 21.84375 18.521484 C 22.005431 17.318935 22 15.8856 22 14 L 22 10 C 22 8.11438 22.005432 6.6810584 21.84375 5.4785156 C 21.682068 4.2759729 21.310634 3.2403086 20.535156 2.4648438 C 19.759713 1.6893545 18.724031 1.3179268 17.521484 1.15625 C 16.318937 0.99457318 14.8856 1 13 1 L 11 1 z M 11 3 L 13 3 C 14.8856 3 16.279881 3.0054999 17.255859 3.1367188 C 18.231837 3.2679343 18.725037 3.4828254 19.121094 3.8789062 C 19.517216 4.2750212 19.732063 4.7681734 19.863281 5.7441406 C 19.9945 6.7201079 20 8.11438 20 10 L 20 14 C 20 15.8856 19.9945 17.279884 19.863281 18.255859 C 19.732063 19.231835 19.517187 19.725034 19.121094 20.121094 C 18.725034 20.517187 18.231835 20.732063 17.255859 20.863281 C 16.279884 20.9945 14.8856 21 13 21 L 11 21 C 9.11438 21 7.7201079 20.9945 6.7441406 20.863281 C 5.7681734 20.732063 5.2750213 20.517216 4.8789062 20.121094 C 4.4828255 19.725037 4.2679344 19.231837 4.1367188 18.255859 C 4.0055032 17.279881 4 15.8856 4 14 L 4 10 C 4 8.11438 4.0055032 6.7201106 4.1367188 5.7441406 C 4.2679343 4.7681706 4.482797 4.2750188 4.8789062 3.8789062 C 5.2750189 3.482797 5.7681706 3.2679342 6.7441406 3.1367188 C 7.7201106 3.0055032 9.11438 3 11 3 z M 11.427734 5 A 1 1 0 0 0 10.720703 5.2929688 L 10.404297 5.6113281 L 8.5 7.515625 L 8.1816406 7.8320312 A 1 1 0 0 0 8.1816406 9.2460938 A 1 1 0 0 0 8.9921875 9.4960938 C 9.2109173 9.7708582 9.5231782 10.11087 9.96875 10.617188 L 7.2929688 13.292969 A 1 1 0 0 0 7.2929688 14.707031 A 1 1 0 0 0 8.7070312 14.707031 L 11.382812 12.03125 C 11.889128 12.476827 12.229143 12.789074 12.503906 13.007812 A 1 1 0 0 0 12.753906 13.818359 A 1 1 0 0 0 14.167969 13.818359 L 14.484375 13.5 L 16.388672 11.595703 L 16.707031 11.279297 A 1 1 0 0 0 16.707031 9.8652344 A 1 1 0 0 0 16.115234 9.8652344 C 15.842951 9.5179487 15.206653 8.6813075 14.263672 7.7382812 A 1.0001 1.0001 0 0 0 14.261719 7.7382812 C 13.429691 6.9062539 12.844758 6.4696967 12.384766 6.1035156 A 1 1 0 0 0 12.134766 5.2929688 A 1 1 0 0 0 11.427734 5 z M 11.158203 7.6835938 L 11.160156 7.6835938 C 11.612454 8.0470196 12.140239 8.4449666 12.847656 9.1523438 C 13.554992 9.8597131 13.952995 10.387548 14.316406 10.839844 L 14.316406 10.841797 L 13.730469 11.427734 L 13.728516 11.427734 C 13.276213 11.06429 12.748448 10.66635 12.041016 9.9589844 C 11.333663 9.2515781 10.935693 8.7237826 10.572266 8.2714844 L 10.572266 8.2695312 L 11.158203 7.6835938 z M 8 17 A 1 1 0 0 0 7 18 A 1 1 0 0 0 8 19 L 16 19 A 1 1 0 0 0 17 18 A 1 1 0 0 0 16 17 L 8 17 z " fill="currentColor"/>
</svg>
