<svg xmlns="http://www.w3.org/2000/svg" width="1em" height="1em" viewBox="0 0 24 24" fill="currentColor">
  <path d="M 9.9511719 1.0019531 A 1 1 0 0 0 9.2441406 1.2949219 L 8.625 1.9160156 L 4.9121094 5.6386719 L 4.2929688 6.2578125 A 1 1 0 0 0 4.2929688 7.671875 A 1 1 0 0 0 5.4414062 7.671875 C 5.7492921 8.0752482 6.3207691 8.8460198 7.1308594 9.7832031 L 1.9648438 14.195312 C 0.75640128 15.226945 0.68044211 17.105747 1.8027344 18.230469 C 2.9250043 19.355339 4.8089059 19.278939 5.8378906 18.068359 L 10.236328 12.892578 C 11.115255 13.652891 11.836602 14.190286 12.259766 14.515625 A 1 1 0 0 0 12.341797 15.738281 A 1 1 0 0 0 13.755859 15.736328 L 14.375 15.115234 L 16.224609 13.261719 L 18.089844 11.392578 L 18.707031 10.773438 A 1 1 0 0 0 18.707031 9.359375 A 1 1 0 0 0 17.490234 9.2792969 C 16.982558 8.616147 15.958885 7.2260709 14.375 5.6386719 C 12.755775 4.0158545 11.276427 2.9177441 10.660156 2.4453125 A 1 1 0 0 0 10.658203 1.2929688 A 1 1 0 0 0 9.9511719 1.0019531 z M 9.3867188 3.984375 C 9.964324 4.4291291 11.455865 5.5443275 12.958984 7.0507812 C 14.463527 8.5586615 15.579324 10.057966 16.021484 10.634766 L 13.613281 13.046875 C 13.035684 12.602127 11.544157 11.486985 10.041016 9.9804688 C 8.5365244 8.4727051 7.4207487 6.9753493 6.9785156 6.3984375 L 8.1835938 5.1894531 L 9.3867188 3.984375 z M 21.966797 9.0195312 A 1 1 0 0 0 21.365234 9.2460938 L 19.365234 10.884766 A 1 1 0 0 0 19.226562 12.292969 A 1 1 0 0 0 20.634766 12.431641 L 22.634766 10.792969 A 1 1 0 0 0 22.773438 9.3847656 A 1 1 0 0 0 21.966797 9.0195312 z M 8.4882812 11.253906 C 8.5334515 11.299783 8.5789775 11.346455 8.625 11.392578 C 8.6726367 11.440322 8.7203085 11.488426 8.7675781 11.535156 L 4.3125 16.773438 C 4.0197448 17.117858 3.5377401 17.138089 3.21875 16.818359 C 2.8997622 16.498681 2.9204944 16.00781 3.2636719 15.714844 L 8.4882812 11.253906 z M 19.976562 13.9375 A 1 1 0 0 0 19.123047 14.458984 A 1 1 0 0 0 19.519531 15.816406 L 21.519531 16.910156 A 1 1 0 0 0 22.876953 16.511719 A 1 1 0 0 0 22.480469 15.154297 L 20.480469 14.060547 A 1 1 0 0 0 19.976562 13.9375 z M 15.087891 18.017578 C 13.794407 18.087688 12.855241 18.849875 12.333984 19.613281 C 11.953804 20.170073 11.798499 20.595505 11.619141 20.998047 L 11.001953 20.998047 A 1 1 0 0 0 10.001953 21.998047 A 1 1 0 0 0 11.001953 22.998047 L 21 22.998047 A 1 1 0 0 0 22 21.998047 A 1 1 0 0 0 21 20.998047 L 20.416016 20.998047 C 20.236381 20.595298 20.081748 20.169985 19.701172 19.613281 C 19.179371 18.849996 18.238777 18.087685 16.945312 18.017578 C 16.328913 17.984088 15.704378 17.984088 15.087891 18.017578 z M 15.195312 20.013672 C 15.738425 19.984162 16.294891 19.984162 16.837891 20.013672 C 17.496426 20.049362 17.737854 20.285344 18.048828 20.740234 C 18.094738 20.807394 18.137058 20.922953 18.179688 20.998047 L 13.853516 20.998047 C 13.896096 20.922927 13.938506 20.807405 13.984375 20.740234 C 14.294893 20.285466 14.536795 20.049364 15.195312 20.013672 z " fill="currentColor"/>
</svg>
