<svg xmlns="http://www.w3.org/2000/svg" width="1em" height="1em" viewBox="0 0 24 24" fill="currentColor">
  <path d="M 11 1 C 9.11438 1 7.6810556 0.99457301 6.4785156 1.15625 C 5.2759756 1.317927 4.240311 1.689383 3.4648438 2.4648438 C 2.6893829 3.240311 2.317927 4.2759756 2.15625 5.4785156 C 1.994573 6.6810556 2 8.11438 2 10 L 2 14 C 2 15.8856 1.99457 17.318937 2.15625 18.521484 C 2.3179268 19.724031 2.6893545 20.759713 3.4648438 21.535156 C 4.2403087 22.310634 5.2759729 22.682068 6.4785156 22.84375 C 7.6810584 23.005432 9.11438 23 11 23 L 13 23 C 14.8856 23 16.318935 23.0054 17.521484 22.84375 C 18.724034 22.682069 19.759716 22.310663 20.535156 21.535156 C 21.310663 20.759716 21.682069 19.724034 21.84375 18.521484 C 22.005431 17.318935 22 15.8856 22 14 L 22 10 C 22 8.11438 22.005432 6.6810584 21.84375 5.4785156 C 21.682068 4.2759729 21.310634 3.2403086 20.535156 2.4648438 C 19.759713 1.6893545 18.724031 1.3179268 17.521484 1.15625 C 16.318937 0.99457318 14.8856 1 13 1 L 11 1 z M 11 3 L 13 3 C 14.8856 3 16.279881 3.0054999 17.255859 3.1367188 C 18.231837 3.2679343 18.725037 3.4828254 19.121094 3.8789062 C 19.517216 4.2750212 19.732063 4.7681734 19.863281 5.7441406 C 19.9945 6.7201079 20 8.11438 20 10 L 20 14 C 20 15.8856 19.9945 17.279884 19.863281 18.255859 C 19.732063 19.231835 19.517187 19.725034 19.121094 20.121094 C 18.725034 20.517187 18.231835 20.732063 17.255859 20.863281 C 16.279884 20.9945 14.8856 21 13 21 L 11 21 C 9.11438 21 7.7201079 20.9945 6.7441406 20.863281 C 5.7681734 20.732063 5.2750213 20.517216 4.8789062 20.121094 C 4.4828255 19.725037 4.2679344 19.231837 4.1367188 18.255859 C 4.0055032 17.279881 4 15.8856 4 14 L 4 10 C 4 8.11438 4.0055032 6.7201106 4.1367188 5.7441406 C 4.2679343 4.7681706 4.482797 4.2750188 4.8789062 3.8789062 C 5.2750189 3.482797 5.7681706 3.2679342 6.7441406 3.1367188 C 7.7201106 3.0055032 9.11438 3 11 3 z M 7.0488281 5.9765625 A 1 1 0 0 0 6.0488281 6.9765625 A 1 1 0 0 0 6.8691406 7.796875 C 6.5685822 8.1245301 6.2590497 8.4199213 5.984375 8.8828125 C 5.5760137 9.5709969 5.2512232 10.559464 5.7167969 11.507812 C 6.0319597 12.149824 6.4952506 12.590389 6.9570312 12.810547 C 7.418812 13.030704 7.8599484 13.035156 8.015625 13.035156 C 8.1712974 13.035156 8.6093368 13.031856 9.078125 12.816406 C 9.5469132 12.600938 10.033563 12.159581 10.353516 11.507812 C 10.823257 10.550992 10.477165 9.5586213 10.058594 8.8730469 C 9.824903 8.4902874 9.5768299 8.2666115 9.3183594 7.9765625 L 11.015625 7.9765625 L 11.015625 13.449219 A 1 1 0 0 0 10.482422 13.982422 A 1 1 0 0 0 11.482422 14.982422 L 12.015625 14.982422 L 12.541016 14.982422 A 1 1 0 0 0 13.541016 13.982422 A 1 1 0 0 0 13.015625 13.457031 L 13.015625 7.9765625 L 14.689453 7.9765625 C 14.432032 8.269565 14.180389 8.496535 13.951172 8.8828125 C 13.542806 9.5709923 13.218043 10.559456 13.683594 11.507812 C 13.998762 12.149823 14.462056 12.59039 14.923828 12.810547 C 15.3856 13.030704 15.826762 13.035156 15.982422 13.035156 C 16.138124 13.035156 16.57612 13.031856 17.044922 12.816406 C 17.513724 12.60094 18.000355 12.159578 18.320312 11.507812 C 18.790018 10.550994 18.443956 9.5586195 18.025391 8.8730469 C 17.744855 8.4135556 17.437768 8.1212296 17.136719 7.796875 A 1 1 0 0 0 17.957031 6.9765625 A 1 1 0 0 0 16.957031 5.9765625 L 12.015625 5.9765625 L 7.0488281 5.9765625 z M 8.0214844 9.5214844 C 8.129401 9.6575271 8.2725959 9.7866769 8.3515625 9.9160156 C 8.6028984 10.327676 8.612839 10.512482 8.5566406 10.626953 C 8.4095028 10.926685 8.3110575 10.969243 8.2441406 11 C 8.1772236 11.03076 8.1300826 11.035156 8.015625 11.035156 C 7.9011616 11.035156 7.8730361 11.031959 7.8183594 11.005859 C 7.7636826 10.979791 7.663646 10.936441 7.5117188 10.626953 C 7.4513624 10.504011 7.4623519 10.313347 7.7050781 9.9042969 C 7.7798617 9.778269 7.9189033 9.6540279 8.0214844 9.5214844 z M 15.988281 9.5214844 C 16.096196 9.6575269 16.239393 9.7866764 16.318359 9.9160156 C 16.569694 10.327678 16.579632 10.512481 16.523438 10.626953 C 16.376296 10.926687 16.277862 10.969241 16.210938 11 C 16.144018 11.03076 16.09692 11.035156 15.982422 11.035156 C 15.867982 11.035156 15.839834 11.031959 15.785156 11.005859 C 15.730476 10.979789 15.630447 10.936439 15.478516 10.626953 C 15.418166 10.504018 15.429136 10.313352 15.671875 9.9042969 C 15.746665 9.7782676 15.885699 9.6540298 15.988281 9.5214844 z M 8 17 A 1 1 0 0 0 7 18 A 1 1 0 0 0 8 19 L 16 19 A 1 1 0 0 0 17 18 A 1 1 0 0 0 16 17 L 8 17 z " fill="currentColor"/>
</svg>
