<svg xmlns="http://www.w3.org/2000/svg" width="1em" height="1em" viewBox="0 0 24 24" fill="currentColor">
  <path d="M 2 1 A 1 1 0 0 0 1 2 L 1 22 A 1 1 0 0 0 2 23 A 1 1 0 0 0 3 22 L 3 2 A 1 1 0 0 0 2 1 z M 22 1 A 1 1 0 0 0 21 2 L 21 22 A 1 1 0 0 0 22 23 A 1 1 0 0 0 23 22 L 23 2 A 1 1 0 0 0 22 1 z M 11.955078 5 C 11.12984 4.99381 10.7627 5.4795238 10.455078 5.8652344 C 10.147456 6.250945 9.9134381 6.6803203 9.7363281 7.0898438 A 1.0001 1.0001 0 0 0 9.7089844 7.1582031 L 6.0546875 17.671875 A 1 1 0 0 0 6.671875 18.945312 A 1 1 0 0 0 7.9453125 18.328125 L 9.453125 13.986328 L 14.582031 13.933594 C 15.318301 16.118649 16.050781 18.314453 16.050781 18.314453 A 1 1 0 0 0 17.314453 18.949219 A 1 1 0 0 0 17.949219 17.685547 C 17.949219 17.685547 17.140758 15.249581 16.283203 12.714844 C 15.854426 11.447471 15.413049 10.155376 15.052734 9.1269531 C 14.872577 8.6127418 14.713503 8.1645847 14.583984 7.8144531 C 14.454466 7.4643215 14.384526 7.2620509 14.269531 7.0351562 C 14.072124 6.6456586 13.872295 6.2236657 13.542969 5.8203125 C 13.213643 5.4169593 12.638088 5.0051256 11.955078 5 z M 12.015625 7.1210938 C 12.132822 7.2728602 12.297297 7.5645292 12.486328 7.9375 C 12.470008 7.905301 12.586429 8.176505 12.708984 8.5078125 C 12.83154 8.83912 12.988053 9.2811138 13.166016 9.7890625 C 13.380657 10.401699 13.649735 11.19397 13.904297 11.939453 L 10.150391 11.980469 L 11.580078 7.8671875 C 11.693472 7.6091626 11.868188 7.3076239 12.015625 7.1210938 z " fill="currentColor"/>
</svg>
