<svg xmlns="http://www.w3.org/2000/svg" width="1em" height="1em" viewBox="0 0 24 24" fill="currentColor">
  <path d="M 10.75 1 C 8.864385 1 7.4310503 0.99457436 6.2285156 1.15625 C 5.0259809 1.3179256 3.9903066 1.6893874 3.2148438 2.4648438 C 2.4393811 3.2402996 2.0679368 4.2759845 1.90625 5.4785156 C 1.7445632 6.6810468 1.750015 8.1143946 1.75 10 L 1.75 14 C 1.749985 15.8856 1.74459 17.318952 1.90625 18.521484 C 2.0679143 19.724017 2.4394111 20.759677 3.2148438 21.535156 C 3.9903096 22.310576 5.0259667 22.682056 6.2285156 22.84375 C 7.4310646 23.005444 8.8643812 23 10.75 23 A 1 1 0 0 0 11.75 22 A 1 1 0 0 0 10.75 21 C 8.8643988 21 7.4701292 20.994512 6.4941406 20.863281 C 5.5181521 20.73205 5.0250104 20.517174 4.6289062 20.121094 C 4.2328089 19.724973 4.0198775 19.231827 3.8886719 18.255859 C 3.7574662 17.279892 3.749985 15.8856 3.75 14 L 3.75 10 C 3.750015 8.1143954 3.7574486 6.720102 3.8886719 5.7441406 C 4.0198951 4.7681793 4.2327989 4.2750102 4.6289062 3.8789062 C 5.0250134 3.4828025 5.5181753 3.267933 6.4941406 3.1367188 C 7.4701059 3.0055043 8.864385 3 10.75 3 L 11.75 3 C 13.6356 3 15.029894 3.0054999 16.005859 3.1367188 C 16.981824 3.2679341 17.474968 3.482791 17.871094 3.8789062 C 18.267216 4.2750212 18.482063 4.7681734 18.613281 5.7441406 C 18.7445 6.7201079 18.75 8.11438 18.75 10 L 18.75 11 A 1 1 0 0 0 19.75 12 A 1 1 0 0 0 20.75 11 L 20.75 10 C 20.75 8.11438 20.7574 6.6810584 20.595703 5.4785156 C 20.434022 4.2759729 20.060634 3.2403086 19.285156 2.4648438 C 18.509682 1.6893888 17.475973 1.3179271 16.273438 1.15625 C 15.070902 0.99457294 13.6356 1 11.75 1 L 10.75 1 z M 7.25 6 A 1 1 0 0 0 6.25 7 A 1 1 0 0 0 7.25 8 L 15.25 8 A 1 1 0 0 0 16.25 7 A 1 1 0 0 0 15.25 6 L 7.25 6 z M 7.25 11 A 1 1 0 0 0 6.25 12 A 1 1 0 0 0 7.25 13 L 15.25 13 A 1 1 0 0 0 16.25 12 A 1 1 0 0 0 15.25 11 L 7.25 11 z M 19.662109 13.001953 C 19.357573 13.001953 19.053038 13.070482 18.773438 13.208984 C 18.40233 13.393026 18.226211 13.60582 17.953125 13.878906 L 13.128906 18.703125 C 12.839588 18.992444 12.578981 19.219959 12.402344 19.646484 C 12.225712 20.07267 12.25 20.416772 12.25 20.826172 L 12.25 22 A 1.0001 1.0001 0 0 0 13.25 23 L 14.423828 23 C 14.833228 23 15.177284 23.02417 15.603516 22.847656 A 1.0001 1.0001 0 0 0 15.605469 22.847656 C 16.031463 22.671103 16.257416 22.410453 16.546875 22.121094 L 21.371094 17.296875 C 21.644094 17.023875 21.856894 16.847832 22.041016 16.476562 A 1.0001 1.0001 0 0 0 22.042969 16.476562 C 22.320172 15.917366 22.320172 15.258416 22.042969 14.699219 C 21.858879 14.327761 21.644094 14.151906 21.371094 13.878906 C 21.098037 13.605949 20.922239 13.393074 20.550781 13.208984 C 20.271181 13.070482 19.966645 13.001953 19.662109 13.001953 z M 19.662109 15.015625 C 19.705227 15.054371 19.80357 15.139565 19.957031 15.292969 C 20.110432 15.44637 20.19563 15.544758 20.234375 15.587891 C 20.195621 15.631031 20.110416 15.729426 19.957031 15.882812 L 15.132812 20.707031 C 14.960513 20.879272 14.868173 20.95916 14.833984 20.990234 C 14.788996 20.991917 14.668582 21 14.423828 21 L 14.25 21 L 14.25 20.826172 C 14.25 20.583525 14.257892 20.462126 14.259766 20.416016 C 14.291114 20.382134 14.371868 20.290241 14.544922 20.117188 L 19.367188 15.292969 C 19.5206 15.139556 19.619004 15.054359 19.662109 15.015625 z " fill="currentColor"/>
</svg>
