<svg xmlns="http://www.w3.org/2000/svg" width="1em" height="1em" viewBox="0 0 24 24" fill="currentColor">
  <path d="M 10.5 1 C 8.6144 1 7.1810489 0.99457436 5.9785156 1.15625 C 4.7759823 1.3179256 3.7403076 1.6893864 2.9648438 2.4648438 C 2.1893801 3.2403007 1.8179353 4.2759854 1.65625 5.4785156 C 1.4945647 6.6810459 1.50002 8.1143959 1.5 10 L 1.5 14 C 1.499985 15.88565 1.49458 17.318936 1.65625 18.521484 C 1.8179173 19.724032 2.1893868 20.759679 2.9648438 21.535156 C 3.7403107 22.310636 4.7759613 22.682069 5.9785156 22.84375 C 7.1810699 23.005431 8.61435 23 10.5 23 L 14 23 A 1 1 0 0 0 15 22 A 1 1 0 0 0 14 21 L 10.5 21 C 8.61435 21 7.2201213 20.9945 6.2441406 20.863281 C 5.2681599 20.732062 4.7750193 20.517214 4.3789062 20.121094 C 3.9827932 19.724971 3.7679264 19.231836 3.6367188 18.255859 C 3.5055109 17.279882 3.499985 15.88565 3.5 14 L 3.5 10 C 3.50002 8.1143941 3.5054999 6.7201029 3.6367188 5.7441406 C 3.7679409 4.7681784 3.9827999 4.2750092 4.3789062 3.8789062 C 4.7750123 3.4828035 5.2681764 3.267933 6.2441406 3.1367188 C 7.2201048 3.0055043 8.6144 3 10.5 3 L 11.5 3 C 13.3856 3 14.779881 3.0054999 15.755859 3.1367188 C 16.731837 3.2679343 17.225037 3.4828254 17.621094 3.8789062 C 18.017216 4.2750212 18.232063 4.7681734 18.363281 5.7441406 C 18.4945 6.7201079 18.5 8.11438 18.5 10 L 18.5 11 A 1 1 0 0 0 19.5 12 A 1 1 0 0 0 20.5 11 L 20.5 10 C 20.5 8.11438 20.5054 6.6810584 20.34375 5.4785156 C 20.182068 4.2759729 19.810634 3.2403086 19.035156 2.4648438 C 18.259713 1.6893545 17.224031 1.3179268 16.021484 1.15625 C 14.818937 0.99457318 13.3856 1 11.5 1 L 10.5 1 z M 7 6 A 1 1 0 0 0 6 7 A 1 1 0 0 0 7 8 L 15 8 A 1 1 0 0 0 16 7 A 1 1 0 0 0 15 6 L 7 6 z M 7 11 A 1 1 0 0 0 6 12 A 1 1 0 0 0 7 13 L 12.5 13 A 1 1 0 0 0 13.5 12 A 1 1 0 0 0 12.5 11 L 7 11 z M 17.599609 13 C 17.273759 13 17.012198 12.9951 16.720703 13.03125 C 16.429208 13.06738 16.024435 13.17724 15.722656 13.496094 C 15.420955 13.814865 15.328299 14.309547 15.347656 14.613281 C 15.367016 14.917015 15.428275 15.145119 15.492188 15.421875 L 15.695312 16.292969 L 15.263672 16.916016 C 15.031078 17.251756 14.840433 17.50824 14.681641 17.839844 C 14.602241 18.005646 14.523295 18.200926 14.503906 18.462891 C 14.484516 18.724855 14.561386 19.055401 14.716797 19.292969 C 15.027404 19.768246 15.548533 19.914465 15.910156 19.960938 C 16.27178 20.007412 16.624122 20 17.076172 20 L 17.5 20 L 17.5 22 A 1 1 0 0 0 18.5 23 A 1 1 0 0 0 19.5 22 L 19.5 20 L 19.923828 20 C 20.375878 20 20.72822 20.007398 21.089844 19.960938 C 21.451467 19.914468 21.972596 19.768246 22.283203 19.292969 C 22.438615 19.055401 22.515482 18.724855 22.496094 18.462891 C 22.476704 18.200926 22.397754 18.005646 22.318359 17.839844 C 22.159567 17.50824 21.968922 17.251756 21.736328 16.916016 L 21.304688 16.292969 L 21.507812 15.421875 C 21.571713 15.145175 21.632961 14.919003 21.652344 14.615234 C 21.671724 14.311466 21.579204 13.814855 21.277344 13.496094 C 20.975565 13.177237 20.570792 13.067378 20.279297 13.03125 C 19.987802 12.995122 19.726241 13 19.400391 13 L 17.599609 13 z M 17.599609 15 L 19.400391 15 C 19.477831 15 19.485071 15.003306 19.550781 15.003906 L 19.345703 15.896484 C 19.302383 16.083973 19.219328 16.321668 19.292969 16.689453 C 19.366469 17.056934 19.525094 17.236478 19.638672 17.400391 L 20.050781 17.996094 C 19.992904 17.996366 19.986755 18 19.923828 18 L 18.5 18 L 17.076172 18 C 17.013242 18 17.007092 17.996394 16.949219 17.996094 L 17.361328 17.400391 C 17.474906 17.236478 17.633535 17.056934 17.707031 16.689453 C 17.780671 16.321668 17.697627 16.083973 17.654297 15.896484 L 17.449219 15.003906 C 17.514928 15.00329 17.522167 15 17.599609 15 z M 7 16 A 1 1 0 0 0 6 17 A 1 1 0 0 0 7 18 L 11 18 A 1 1 0 0 0 12 17 A 1 1 0 0 0 11 16 L 7 16 z " fill="currentColor"/>
</svg>
