<svg xmlns="http://www.w3.org/2000/svg" width="1em" height="1em" viewBox="0 0 24 24" fill="currentColor">
  <path d="M 10.5 1 C 8.614415 1 7.1810431 0.99457421 5.9785156 1.15625 C 4.7759881 1.3179258 3.7403066 1.6893874 2.9648438 2.4648438 C 2.1893742 3.2402998 1.8179355 4.2759839 1.65625 5.4785156 C 1.4945645 6.6810474 1.500015 8.1143954 1.5 10 L 1.5 14 C 1.499985 15.88565 1.49458 17.318935 1.65625 18.521484 C 1.8179188 19.724033 2.189381 20.75968 2.9648438 21.535156 C 3.7403064 22.310639 4.7759659 22.682069 5.9785156 22.84375 C 7.1810653 23.005431 8.614365 23 10.5 23 L 12 23 A 1 1 0 0 0 13 22 A 1 1 0 0 0 12 21 L 10.5 21 C 8.614365 21 7.2201159 20.9945 6.2441406 20.863281 C 5.2681653 20.732063 4.7750135 20.517211 4.3789062 20.121094 C 3.982789 19.72497 3.7679274 19.231835 3.6367188 18.255859 C 3.50551 17.279883 3.499985 15.88565 3.5 14 L 3.5 10 C 3.500015 8.1143946 3.5054966 6.7201014 3.6367188 5.7441406 C 3.7679407 4.7681799 3.9827957 4.2750101 4.3789062 3.8789062 C 4.7750134 3.4828025 5.2681831 3.267933 6.2441406 3.1367188 C 7.2200981 3.0055044 8.614415 3 10.5 3 L 11.5 3 C 13.38565 3 14.779881 3.0054999 15.755859 3.1367188 C 16.731837 3.2679343 17.224968 3.482791 17.621094 3.8789062 C 18.017174 4.2750131 18.232073 4.7681642 18.363281 5.7441406 C 18.49449 6.720117 18.5 8.11438 18.5 10 L 18.5 11 A 1 1 0 0 0 19.5 12 A 1 1 0 0 0 20.5 11 L 20.5 10 C 20.5 8.11438 20.5054 6.6810492 20.34375 5.4785156 C 20.182084 4.275982 19.810576 3.2403167 19.035156 2.4648438 C 18.259682 1.6893888 17.224031 1.3179268 16.021484 1.15625 C 14.818937 0.99457318 13.38565 1 11.5 1 L 10.5 1 z M 7 6 A 1 1 0 0 0 6 7 A 1 1 0 0 0 7 8 L 15 8 A 1 1 0 0 0 16 7 A 1 1 0 0 0 15 6 L 7 6 z M 7 11 A 1 1 0 0 0 6 12 A 1 1 0 0 0 7 13 L 11.5 13 A 1 1 0 0 0 12.5 12 A 1 1 0 0 0 11.5 11 L 7 11 z M 17.5 12 A 1 1 0 0 0 16.5 13 L 16.5 13.433594 C 15.748468 13.627895 15.050605 13.95606 14.521484 14.5 L 14.023438 14.193359 A 1 1 0 0 0 12.648438 14.523438 A 1 1 0 0 0 12.976562 15.898438 L 13.550781 16.25 C 13.426023 16.652843 13.300781 17.058197 13.300781 17.5 C 13.300781 17.941803 13.426023 18.347157 13.550781 18.75 L 12.976562 19.101562 A 1 1 0 0 0 12.648438 20.478516 A 1 1 0 0 0 14.023438 20.806641 L 14.521484 20.5 C 15.050605 21.04394 15.748468 21.372105 16.5 21.566406 L 16.5 22 A 1 1 0 0 0 17.5 23 A 1 1 0 0 0 18.5 22 L 18.5 21.566406 C 19.251532 21.372105 19.949395 21.04394 20.478516 20.5 L 20.976562 20.806641 A 1 1 0 0 0 22.351562 20.478516 A 1 1 0 0 0 22.023438 19.101562 L 21.449219 18.75 C 21.573977 18.347157 21.699219 17.941803 21.699219 17.5 C 21.699219 17.058197 21.573977 16.652843 21.449219 16.25 L 22.023438 15.898438 A 1 1 0 0 0 22.351562 14.523438 A 1 1 0 0 0 20.976562 14.193359 L 20.478516 14.5 C 19.949395 13.95606 19.251532 13.627895 18.5 13.433594 L 18.5 13 A 1 1 0 0 0 17.5 12 z M 17.5 15.226562 C 18.714592 15.226562 19.699219 16.220928 19.699219 17.5 C 19.699219 18.779072 18.714592 19.773438 17.5 19.773438 C 16.285408 19.773438 15.300781 18.779072 15.300781 17.5 C 15.300781 16.220928 16.285408 15.226562 17.5 15.226562 z " fill="currentColor"/>
</svg>
