<svg xmlns="http://www.w3.org/2000/svg" width="1em" height="1em" viewBox="0 0 24 24" fill="currentColor">
  <path d="M 12 1 C 10.959419 1 10.219288 1.5393156 9.4472656 2.1152344 C 8.6752432 2.6911532 7.9920128 3.2185627 7.6621094 4.1386719 C 7.3036253 5.138477 7.6050358 6.1133022 7.9980469 6.84375 C 8.0264497 6.8965392 8.0544984 6.9486269 8.0839844 7 L 8 7 A 1 1 0 0 0 7 8 A 1 1 0 0 0 8 9 L 8.3046875 9 L 7.765625 12.027344 A 1 1 0 0 0 7 13 A 1 1 0 0 0 7.4433594 13.830078 L 6.8320312 17.255859 A 1 1 0 0 0 6.5 18 A 1 1 0 0 0 6.6152344 18.466797 L 6.1621094 21 L 5 21 A 1 1 0 0 0 4 22 A 1 1 0 0 0 5 23 L 19 23 A 1 1 0 0 0 20 22 A 1 1 0 0 0 19 21 L 17.837891 21 L 17.384766 18.466797 A 1 1 0 0 0 17.5 18 A 1 1 0 0 0 17.167969 17.255859 L 16.556641 13.830078 A 1 1 0 0 0 17 13 A 1 1 0 0 0 16.234375 12.027344 L 15.695312 9 L 16 9 A 1 1 0 0 0 17 8 A 1 1 0 0 0 16 7 L 15.916016 7 C 15.945503 6.9486267 15.973549 6.896539 16.001953 6.84375 C 16.394982 6.1133108 16.696382 5.1384986 16.337891 4.1386719 C 16.007938 3.2186656 15.324755 2.6911501 14.552734 2.1152344 C 13.780713 1.5393187 13.040581 1 12 1 z M 11.998047 3.0019531 L 12 3.0019531 L 12.001953 3.0019531 C 12.047782 3.0314395 12.791531 3.2966041 13.357422 3.71875 C 13.911519 4.1320974 14.398864 4.7718831 14.453125 4.8183594 L 14.455078 4.8183594 C 14.55582 5.1033495 14.495749 5.421619 14.240234 5.8964844 C 14.051316 6.2475868 13.768585 6.6241294 13.482422 7 L 10.517578 7 C 10.231413 6.6241357 9.9486676 6.2475763 9.7597656 5.8964844 C 9.5042731 5.4216276 9.4441723 5.1033707 9.5449219 4.8183594 L 9.546875 4.8183594 L 9.5488281 4.8164062 C 9.6030698 4.7699965 10.088488 4.1320945 10.642578 3.71875 C 11.208464 3.296607 11.952219 3.0314398 11.998047 3.0019531 z M 2.9824219 6 A 1 1 0 0 0 2.0292969 6.7578125 A 1 1 0 0 0 2.7578125 7.9707031 L 4.7578125 8.4707031 A 1 1 0 0 0 5.9707031 7.7421875 A 1 1 0 0 0 5.2421875 6.5292969 L 3.2421875 6.0292969 A 1 1 0 0 0 2.9824219 6 z M 21.017578 6 A 1 1 0 0 0 20.757812 6.0292969 L 18.757812 6.5292969 A 1 1 0 0 0 18.029297 7.7421875 A 1 1 0 0 0 19.242188 8.4707031 L 21.242188 7.9707031 A 1 1 0 0 0 21.970703 6.7578125 A 1 1 0 0 0 21.017578 6 z M 10.337891 9 L 13.662109 9 L 14.199219 12 L 9.8007812 12 L 10.337891 9 z M 5.0175781 9.5 A 1 1 0 0 0 4.7578125 9.5292969 L 2.7578125 10.029297 A 1 1 0 0 0 2.0292969 11.242188 A 1 1 0 0 0 3.2421875 11.970703 L 5.2421875 11.470703 A 1 1 0 0 0 5.9707031 10.257812 A 1 1 0 0 0 5.0175781 9.5 z M 18.982422 9.5 A 1 1 0 0 0 18.029297 10.257812 A 1 1 0 0 0 18.757812 11.470703 L 20.757812 11.970703 A 1 1 0 0 0 21.970703 11.242188 A 1 1 0 0 0 21.242188 10.029297 L 19.242188 9.5292969 A 1 1 0 0 0 18.982422 9.5 z M 9.4453125 14 L 14.554688 14 L 15.091797 17 L 8.9082031 17 L 9.4453125 14 z M 8.5507812 19 L 15.449219 19 L 15.806641 21 L 8.1933594 21 L 8.5507812 19 z " fill="currentColor"/>
</svg>
