<svg xmlns="http://www.w3.org/2000/svg" width="1em" height="1em" viewBox="0 0 24 24" fill="currentColor">
  <path d="M 3 6 A 1 1 0 0 0 2 7 A 1 1 0 0 0 3 8 L 5.0859375 8 L 8.7558594 11.669922 C 8.2809703 12.327579 8 13.132936 8 14 C 8 16.197294 9.8027056 18 12 18 C 14.197294 18 16 16.197294 16 14 C 16 11.802706 14.197294 10 12 10 C 11.392487 10 10.814301 10.136966 10.296875 10.382812 L 6.2070312 6.2929688 A 1.0001 1.0001 0 0 0 5.5 6 L 3 6 z M 12 12 C 13.116414 12 14 12.883586 14 14 C 14 15.116414 13.116414 16 12 16 C 10.883586 16 10 15.116414 10 14 C 10 12.883586 10.883586 12 12 12 z M 12 12.990234 A 1 1 0 0 0 11 13.990234 L 11 14 A 1 1 0 0 0 12 15 A 1 1 0 0 0 13 14 L 13 13.990234 A 1 1 0 0 0 12 12.990234 z M 21 12.990234 A 1 1 0 0 0 20 13.990234 L 20 14 A 1 1 0 0 0 21 15 A 1 1 0 0 0 22 14 L 22 13.990234 A 1 1 0 0 0 21 12.990234 z M 3 13 A 1 1 0 0 0 2 14 L 2 14.009766 A 1 1 0 0 0 3 15.009766 A 1 1 0 0 0 4 14.009766 L 4 14 A 1 1 0 0 0 3 13 z M 18 13 A 1 1 0 0 0 17 14 L 17 14.009766 A 1 1 0 0 0 18 15.009766 A 1 1 0 0 0 19 14.009766 L 19 14 A 1 1 0 0 0 18 13 z M 6 13.009766 A 1 1 0 0 0 5 14.009766 L 5 14.019531 A 1 1 0 0 0 6 15.019531 A 1 1 0 0 0 7 14.019531 L 7 14.009766 A 1 1 0 0 0 6 13.009766 z " fill="currentColor"/>
</svg>
