<svg xmlns="http://www.w3.org/2000/svg" width="1em" height="1em" viewBox="0 0 24 24" fill="currentColor">
  <path d="M 11.150391 2 A 1 1 0 0 0 11.019531 2.0039062 C 5.9567329 2.5066926 1.9980469 6.7915944 1.9980469 11.978516 C 1.9980469 17.503026 6.4978778 22.001953 12.021484 22.001953 C 17.207423 22.001953 21.491489 18.042227 21.994141 12.978516 A 1 1 0 0 0 21.097656 11.884766 A 1 1 0 0 0 20.003906 12.78125 C 19.601158 16.838539 16.192346 20.001953 12.021484 20.001953 C 7.5790117 20.001953 3.9980469 16.422406 3.9980469 11.978516 C 3.9980469 7.806176 7.1608753 4.394981 11.216797 3.9921875 A 1 1 0 0 0 12.113281 2.8984375 A 1 1 0 0 0 11.150391 2 z M 16.017578 2.0566406 A 1 1 0 0 0 15.03125 3.0703125 A 1 1 0 0 0 16.044922 4.0546875 C 16.396138 4.0496875 17.384022 4.0370974 18.322266 4.0839844 C 18.403286 4.0880344 18.45934 4.1004448 18.539062 4.1054688 L 10.339844 12.353516 A 1 1 0 0 0 10.34375 13.769531 A 1 1 0 0 0 11.757812 13.763672 L 19.947266 5.5273438 C 19.951966 5.6028417 19.962977 5.655801 19.966797 5.7324219 C 20.013617 6.6721244 20.001084 7.6599822 19.996094 8.0117188 A 1 1 0 0 0 20.980469 9.0273438 A 1 1 0 0 0 21.996094 8.0410156 C 22.001094 7.6881422 22.015994 6.65942 21.964844 5.6328125 C 21.939264 5.1195088 21.898034 4.6065882 21.822266 4.1484375 C 21.746496 3.6902868 21.791346 3.3135176 21.265625 2.7871094 L 21.263672 2.7871094 L 21.263672 2.7851562 L 21.261719 2.7851562 C 20.738459 2.2637207 20.36072 2.3042098 19.904297 2.2285156 C 19.446519 2.1525967 18.936519 2.1135111 18.423828 2.0878906 C 17.398447 2.0366496 16.369962 2.0516276 16.017578 2.0566406 z " fill="currentColor"/>
</svg>
