<svg xmlns="http://www.w3.org/2000/svg" width="1em" height="1em" viewBox="0 0 24 24" fill="currentColor">
  <path d="M 11 4 A 1 1 0 0 0 10 5 A 1 1 0 0 0 11 6 L 21 6 A 1 1 0 0 0 22 5 A 1 1 0 0 0 21 4 L 11 4 z M 7.0195312 7 A 1 1 0 0 0 6.40625 7.1953125 C 6.40625 7.1953125 5.3815712 7.9485352 4.34375 8.8496094 C 3.8248394 9.3001464 3.3010006 9.7854461 2.875 10.267578 C 2.4489994 10.74971 1.9999915 11.104018 2 12 C 2.0000085 12.896 2.4490064 13.250301 2.875 13.732422 C 3.3009936 14.214543 3.8248469 14.699849 4.34375 15.150391 C 5.3815562 16.051474 6.40625 16.804688 6.40625 16.804688 A 1 1 0 0 0 7.8046875 16.59375 A 1 1 0 0 0 7.59375 15.195312 C 7.59375 15.195312 6.6184263 14.476042 5.65625 13.640625 C 5.1751618 13.222917 4.6990017 12.774894 4.375 12.408203 C 4.2454636 12.261599 4.1599652 12.107998 4.1035156 12 C 4.1599644 11.892011 4.2454622 11.738404 4.375 11.591797 C 4.6989985 11.225107 5.1751593 10.777075 5.65625 10.359375 C 6.6184313 9.5239741 7.59375 8.8046875 7.59375 8.8046875 A 1 1 0 0 0 7.8046875 7.40625 A 1 1 0 0 0 7.0195312 7 z M 11 11 A 1 1 0 0 0 10 12 A 1 1 0 0 0 11 13 L 21 13 A 1 1 0 0 0 22 12 A 1 1 0 0 0 21 11 L 11 11 z M 11 18 A 1 1 0 0 0 10 19 A 1 1 0 0 0 11 20 L 21 20 A 1 1 0 0 0 22 19 A 1 1 0 0 0 21 18 L 11 18 z " fill="currentColor"/>
</svg>
