<svg xmlns="http://www.w3.org/2000/svg" width="1em" height="1em" viewBox="0 0 24 24" fill="currentColor">
  <path d="M 4 2 A 1 1 0 0 0 3 3 A 1 1 0 0 0 4 4 L 20 4 A 1 1 0 0 0 21 3 A 1 1 0 0 0 20 2 L 4 2 z M 4 8 A 1 1 0 0 0 3 9 A 1 1 0 0 0 4 10 L 20 10 A 1 1 0 0 0 21 9 A 1 1 0 0 0 20 8 L 4 8 z M 16.5 12 A 1 1 0 0 0 15.5 13 L 15.5 13.392578 C 14.928658 13.548056 14.438708 13.799369 14.001953 14.173828 L 13.546875 13.876953 A 1 1 0 0 0 12.162109 14.167969 A 1 1 0 0 0 12.453125 15.550781 L 12.933594 15.865234 C 12.807339 16.244572 12.583984 16.582019 12.583984 17 C 12.583984 17.418041 12.807318 17.755414 12.933594 18.134766 L 12.453125 18.449219 A 1 1 0 0 0 12.164062 19.832031 A 1 1 0 0 0 13.546875 20.123047 L 14.001953 19.824219 C 14.438775 20.199081 14.928398 20.451726 15.5 20.607422 L 15.5 21 A 1 1 0 0 0 16.5 22 A 1 1 0 0 0 17.5 21 L 17.5 20.607422 C 18.071602 20.451726 18.561225 20.199081 18.998047 19.824219 L 19.453125 20.123047 A 1 1 0 0 0 20.835938 19.832031 A 1 1 0 0 0 20.546875 18.449219 L 20.066406 18.134766 C 20.192682 17.755414 20.416016 17.418041 20.416016 17 C 20.416016 16.582019 20.192661 16.244572 20.066406 15.865234 L 20.546875 15.550781 A 1 1 0 0 0 20.837891 14.167969 A 1 1 0 0 0 19.453125 13.876953 L 18.998047 14.173828 C 18.561292 13.799369 18.071342 13.548056 17.5 13.392578 L 17.5 13 A 1 1 0 0 0 16.5 12 z M 4 14 A 1 1 0 0 0 3 15 A 1 1 0 0 0 4 16 L 9 16 A 1 1 0 0 0 10 15 A 1 1 0 0 0 9 14 L 4 14 z M 16.5 15.142578 C 17.179658 15.142578 17.76153 15.479845 18.101562 15.978516 C 18.302616 16.273303 18.416016 16.61858 18.416016 17 C 18.416016 17.381307 18.302706 17.726501 18.101562 18.021484 C 17.761409 18.520172 17.179591 18.857422 16.5 18.857422 C 15.820409 18.857422 15.238591 18.520172 14.898438 18.021484 C 14.697294 17.726501 14.583984 17.381307 14.583984 17 C 14.583984 16.61858 14.697383 16.273303 14.898438 15.978516 C 15.23847 15.479845 15.820342 15.142578 16.5 15.142578 z " fill="currentColor"/>
</svg>
