<svg xmlns="http://www.w3.org/2000/svg" width="1em" height="1em" viewBox="0 0 24 24" fill="currentColor">
  <path d="M 3 4 A 1 1 0 0 0 2 5 A 1 1 0 0 0 3 6 L 17 6 A 1 1 0 0 0 18 5 A 1 1 0 0 0 17 4 L 3 4 z M 16.009766 8.5039062 A 1 1 0 0 0 15.302734 8.796875 A 1 1 0 0 0 15.300781 10.210938 L 17.087891 12 L 15.292969 13.796875 A 1 1 0 0 0 15.292969 15.210938 A 1 1 0 0 0 16.707031 15.210938 L 18.5 13.416016 L 20.292969 15.210938 A 1 1 0 0 0 21.707031 15.210938 A 1 1 0 0 0 21.707031 13.796875 L 19.912109 12 L 21.699219 10.210938 A 1 1 0 0 0 21.697266 8.796875 A 1 1 0 0 0 20.283203 8.796875 L 18.5 10.583984 L 16.716797 8.796875 A 1 1 0 0 0 16.009766 8.5039062 z M 3 11 A 1 1 0 0 0 2 12 A 1 1 0 0 0 3 13 L 12 13 A 1 1 0 0 0 13 12 A 1 1 0 0 0 12 11 L 3 11 z M 3 18 A 1 1 0 0 0 2 19 A 1 1 0 0 0 3 20 L 17 20 A 1 1 0 0 0 18 19 A 1 1 0 0 0 17 18 L 3 18 z " fill="currentColor"/>
</svg>
