<svg xmlns="http://www.w3.org/2000/svg" width="1em" height="1em" viewBox="0 0 24 24" fill="currentColor">
  <path d="M 11 4 A 1 1 0 0 0 10 5 A 1 1 0 0 0 11 6 L 21 6 A 1 1 0 0 0 22 5 A 1 1 0 0 0 21 4 L 11 4 z M 2.9804688 7 A 1 1 0 0 0 2.8496094 7.0117188 A 1 1 0 0 0 2.1953125 7.40625 A 1 1 0 0 0 2.40625 8.8046875 C 2.40625 8.8046875 3.3815687 9.5239741 4.34375 10.359375 C 4.8248407 10.777075 5.3010015 11.225107 5.625 11.591797 C 5.7545378 11.738403 5.8400356 11.892011 5.8964844 12 C 5.8400348 12.107997 5.7545365 12.261599 5.625 12.408203 C 5.3009983 12.774894 4.8248382 13.222917 4.34375 13.640625 C 3.3815737 14.476042 2.40625 15.195312 2.40625 15.195312 A 1 1 0 0 0 2.1953125 16.59375 A 1 1 0 0 0 3.59375 16.804688 C 3.59375 16.804688 4.6184438 16.051474 5.65625 15.150391 C 6.1751531 14.699849 6.6990064 14.214543 7.125 13.732422 C 7.5509936 13.250301 7.9999915 12.896 8 12 C 8.0000085 11.104018 7.5510006 10.74971 7.125 10.267578 C 6.6989994 9.7854461 6.1751606 9.3001464 5.65625 8.8496094 C 4.6184288 7.9485352 3.59375 7.1953125 3.59375 7.1953125 A 1 1 0 0 0 2.9804688 7 z M 11 11 A 1 1 0 0 0 10 12 A 1 1 0 0 0 11 13 L 21 13 A 1 1 0 0 0 22 12 A 1 1 0 0 0 21 11 L 11 11 z M 11 18 A 1 1 0 0 0 10 19 A 1 1 0 0 0 11 20 L 21 20 A 1 1 0 0 0 22 19 A 1 1 0 0 0 21 18 L 11 18 z " fill="currentColor"/>
</svg>
