<svg xmlns="http://www.w3.org/2000/svg" width="1em" height="1em" viewBox="0 0 24 24" fill="currentColor">
  <path d="M 19.767578 4.0058594 C 19.540067 3.9954855 19.30999 3.996984 19.078125 4.0078125 C 17.396528 4.0863457 15.584808 4.6865737 14.060547 5.3730469 C 12.919574 4.6986473 11.635181 4.0117188 10 4.0117188 C 5.0370661 4.0117189 1 8.0851862 1 13.074219 C 1 14.586981 1.1609634 16.425704 1.9726562 18.054688 C 2.7449909 19.604781 4.495961 20.212357 6.0585938 19.931641 C 8.5067552 19.491782 10.662204 18.44148 12.353516 17.232422 C 13.856939 16.157678 14.920024 14.992175 15.589844 13.875 C 17.138699 13.663929 18.778875 13.010432 20.171875 11.9375 C 21.722146 10.743434 23 9.0553349 23 7.0273438 C 23 5.9698399 22.475982 5.0177891 21.693359 4.5390625 C 21.106393 4.1800176 20.45011 4.0369809 19.767578 4.0058594 z M 19.171875 6.0058594 C 19.869413 5.9732834 20.401763 6.0920564 20.650391 6.2441406 C 20.899018 6.3962252 21 6.4935076 21 7.0273438 C 21 8.1819927 20.193226 9.3968465 18.951172 10.353516 C 17.709117 11.310184 16.07679 11.937355 14.939453 12.005859 C 13.44854 12.095719 11.407197 11.56591 9.5859375 10.248047 A 1 1 0 0 0 8.1894531 10.470703 A 1 1 0 0 0 8.4140625 11.867188 C 9.9785739 12.999268 11.628838 13.517279 13.214844 13.759766 C 12.692615 14.35898 12.039438 14.997845 11.189453 15.605469 C 9.7084851 16.66416 7.8058367 17.585449 5.7050781 17.962891 C 4.868511 18.113174 4.0830441 17.807017 3.7617188 17.162109 C 3.1813115 15.997293 3 14.427456 3 13.074219 C 3 9.1576908 6.1263739 6.0117189 10 6.0117188 C 11.241211 6.0117188 12.331298 6.626843 13.574219 7.3789062 C 14.81714 8.1309695 16.210222 9.0351562 18 9.0351562 A 1 1 0 0 0 19 8.0351562 A 1 1 0 0 0 18 7.0351562 C 17.566558 7.0351562 17.136356 6.8803628 16.701172 6.7167969 C 17.572107 6.4519966 18.443794 6.0398619 19.171875 6.0058594 z " fill="currentColor"/>
</svg>
