<svg xmlns="http://www.w3.org/2000/svg" width="1em" height="1em" viewBox="0 0 24 24" fill="currentColor">
  <path d="M 12 1 C 7.3781387 1 3.5 4.8754433 3.5 9.5859375 C 3.5 11.98122 4.5066047 14.018258 5.890625 15.660156 C 7.2746453 17.302055 9.0363225 18.592363 10.693359 19.638672 A 1.0001 1.0001 0 0 0 10.728516 19.660156 C 11.114959 19.882605 11.553635 20 12 20 C 12.446365 20 12.885038 19.882601 13.271484 19.660156 A 1.0001 1.0001 0 0 0 13.302734 19.640625 C 14.967161 18.601769 16.730144 17.308572 18.113281 15.662109 C 19.496419 14.015646 20.5 11.974394 20.5 9.5859375 C 20.5 4.8754433 16.621861 1 12 1 z M 12 3 C 15.495739 3 18.5 5.9786917 18.5 9.5859375 C 18.5 11.422581 17.755069 12.978637 16.582031 14.375 C 15.414214 15.765148 13.820917 16.954756 12.261719 17.929688 C 12.180261 17.974159 12.091281 18 12 18 C 11.909354 18 11.821241 17.97355 11.740234 17.929688 C 10.180432 16.942975 8.587797 15.756574 7.4199219 14.371094 C 6.2462547 12.978742 5.5 11.430355 5.5 9.5859375 C 5.5 5.9786917 8.5042613 3 12 3 z M 12 5.5 C 9.8026731 5.5 8 7.3027269 8 9.5 C 8 11.697307 9.8026932 13.5 12 13.5 C 14.197307 13.5 16 11.697307 16 9.5 C 16 7.3027269 14.197327 5.5 12 5.5 z M 12 7.5 C 13.116473 7.5 14 8.3835731 14 9.5 C 14 10.616493 13.116493 11.5 12 11.5 C 10.883507 11.5 10 10.616493 10 9.5 C 10 8.3835731 10.883527 7.5 12 7.5 z M 6 19 A 1 1 0 0 0 5 20 C 5 20.681469 5.4088402 21.215547 5.8515625 21.564453 C 6.2942848 21.91336 6.8261302 22.158191 7.4414062 22.363281 C 8.6719584 22.773461 10.253075 23 12 23 C 13.746921 23 15.328041 22.773461 16.558594 22.363281 C 17.17387 22.158191 17.705715 21.913359 18.148438 21.564453 C 18.591161 21.215547 19 20.68147 19 20 A 1 1 0 0 0 18 19 A 1 1 0 0 0 17.003906 19.910156 C 16.989674 19.924217 16.961719 19.951547 16.910156 19.992188 C 16.745645 20.121838 16.396292 20.308009 15.925781 20.464844 C 14.984755 20.778501 13.566779 21 12 21 C 10.433215 21 9.0152391 20.778514 8.0742188 20.464844 C 7.6037085 20.308009 7.2543543 20.121837 7.0898438 19.992188 C 7.0382769 19.951548 7.0103259 19.924214 6.9960938 19.910156 A 1 1 0 0 0 6 19 z " fill="currentColor"/>
</svg>
