<svg xmlns="http://www.w3.org/2000/svg" width="1em" height="1em" viewBox="0 0 24 24" fill="currentColor">
  <path d="M 12 1 C 10.078854 1 8.5 2.5788434 8.5 4.5 C 8.5 5.1993889 8.7095306 5.8533465 9.0683594 6.4023438 C 6.6307553 7.4722427 5.2894853 10.491232 6.4023438 13.207031 C 6.7057879 13.947722 7.430919 14.460937 8.2460938 14.460938 L 8.5625 14.460938 L 9.3828125 17.888672 C 9.672868 19.102232 10.74745 20 12 20 C 13.25255 20 14.327131 19.102232 14.617188 17.888672 L 15.4375 14.460938 L 15.753906 14.460938 C 16.569081 14.460937 17.2942 13.947657 17.597656 13.207031 C 18.710497 10.491228 17.369225 7.4722446 14.931641 6.4023438 C 15.290471 5.8533457 15.5 5.1993905 15.5 4.5 C 15.5 2.5788434 13.921146 1 12 1 z M 12 3 C 12.840254 3 13.5 3.6597366 13.5 4.5 C 13.5 5.3402634 12.840254 6 12 6 C 11.159746 6 10.5 5.3402634 10.5 4.5 C 10.5 3.6597366 11.159746 3 12 3 z M 11.001953 8 L 12 8 L 12.998047 8 C 15.155007 8 16.628086 10.301551 15.748047 12.449219 C 15.745832 12.454625 15.743414 12.458386 15.742188 12.460938 L 15.050781 12.460938 C 14.339138 12.460938 13.737069 12.974147 13.578125 13.638672 L 12.671875 17.423828 C 12.584489 17.789267 12.30345 18 12 18 C 11.69655 18 11.41547 17.789268 11.328125 17.423828 L 10.421875 13.638672 C 10.263029 12.974211 9.6608117 12.460937 8.9492188 12.460938 L 8.2578125 12.460938 C 8.2565849 12.45839 8.2541695 12.454629 8.2519531 12.449219 C 7.3718941 10.301542 8.8449433 8 11.001953 8 z M 5.7832031 15 A 1 1 0 0 0 5.2832031 15.130859 C 4.0033591 15.859176 3 16.933038 3 18.316406 C 3 19.118468 3.3649857 19.851338 3.8925781 20.425781 C 4.4201705 21.000224 5.1141549 21.456302 5.9257812 21.830078 C 7.549034 22.577631 9.6664149 23 12 23 C 14.333595 23 16.450968 22.577631 18.074219 21.830078 C 18.885844 21.456302 19.579831 21.000225 20.107422 20.425781 C 20.635013 19.851338 21 19.118466 21 18.316406 C 21 16.933008 19.99661 15.859172 18.716797 15.130859 A 1 1 0 0 0 17.353516 15.505859 A 1 1 0 0 0 17.728516 16.869141 C 18.672302 17.406228 19 17.945205 19 18.316406 C 19 18.531696 18.91682 18.767121 18.634766 19.074219 C 18.352716 19.381316 17.874368 19.718783 17.238281 20.011719 C 15.966107 20.597591 14.084705 21 12 21 C 9.9153051 21 8.0338961 20.597591 6.7617188 20.011719 C 6.1256302 19.718782 5.6472857 19.381316 5.3652344 19.074219 C 5.083183 18.767121 5 18.531695 5 18.316406 C 5 17.945174 5.3276884 17.406224 6.2714844 16.869141 A 1 1 0 0 0 6.6464844 15.505859 A 1 1 0 0 0 5.7832031 15 z " fill="currentColor"/>
</svg>
