<svg xmlns="http://www.w3.org/2000/svg" width="1em" height="1em" viewBox="0 0 24 24" fill="currentColor">
  <path d="M 12 1 C 6.5774186 1 2 5.4703085 2 10.925781 C 2 13.700671 3.186783 16.055861 4.828125 17.964844 C 6.469467 19.873827 8.5675456 21.382152 10.546875 22.607422 A 1.0001 1.0001 0 0 0 10.582031 22.626953 C 11.015038 22.871433 11.503103 23 12 23 C 12.496897 23 12.984958 22.871432 13.417969 22.626953 A 1.0001 1.0001 0 0 0 13.449219 22.609375 C 15.436473 21.393327 17.535459 19.881101 19.175781 17.966797 C 20.816103 16.052495 22 13.69256 22 10.925781 C 22 5.470314 17.422617 1 12 1 z M 12 3 C 16.318583 3 20 6.595609 20 10.925781 C 20 13.129702 19.085306 15.000545 17.658203 16.666016 C 16.236672 18.324984 14.307813 19.735201 12.425781 20.888672 C 12.295926 20.960034 12.14972 21 12 21 C 11.850923 21 11.705616 20.959441 11.576172 20.888672 C 9.6941224 19.721777 7.7654959 18.315688 6.34375 16.662109 C 4.915867 15.001392 4 13.138791 4 10.925781 C 4 6.5956145 7.6814614 3 12 3 z M 10.058594 6.0273438 C 9.555647 6.0632029 9.0246943 6.215591 8.5019531 6.5273438 C 7.4110873 7.1778958 6.8431473 8.5153375 7.0390625 9.9355469 C 7.2349777 11.355756 8.1629856 12.857764 9.9511719 14.144531 C 10.260426 14.367084 10.519528 14.560888 10.849609 14.726562 C 11.179691 14.892235 11.593508 15 12 15 C 12.406492 15 12.820309 14.892235 13.150391 14.726562 C 13.480472 14.560889 13.739574 14.367084 14.048828 14.144531 C 15.837008 12.857764 16.76502 11.355759 16.960938 9.9355469 C 17.156857 8.515335 16.588939 7.1778887 15.498047 6.5273438 C 14.179475 5.7409579 12.845323 6.0057792 12 6.5449219 C 11.601504 6.2907634 11.122002 6.0723824 10.550781 6.0292969 C 10.390656 6.0172191 10.226243 6.0153907 10.058594 6.0273438 z M 10.339844 7.9804688 C 10.371192 7.9805944 10.402093 7.9814601 10.431641 7.984375 C 10.668019 8.007694 10.847744 8.1143598 10.996094 8.2226562 C 11.111398 8.3068442 11.2013 8.3759487 11.316406 8.4492188 C 11.431513 8.5224888 11.552236 8.6679687 12 8.6679688 C 12.447764 8.6679688 12.568487 8.5224888 12.683594 8.4492188 C 12.7987 8.3759487 12.888602 8.3068439 13.003906 8.2226562 C 13.300605 8.0060633 13.721418 7.7980616 14.472656 8.2460938 C 14.789564 8.4350789 15.085125 8.9034587 14.980469 9.6621094 C 14.875813 10.42076 14.33978 11.471651 12.880859 12.521484 C 12.571613 12.744031 12.365221 12.882602 12.251953 12.939453 C 12.138685 12.996305 12.130008 13 12 13 C 11.869992 13 11.861315 12.996303 11.748047 12.939453 C 11.634779 12.882603 11.428387 12.744031 11.119141 12.521484 C 9.6602165 11.471655 9.1241859 10.420762 9.0195312 9.6621094 C 8.9148764 8.9034563 9.2104595 8.4350717 9.5273438 8.2460938 C 9.8560216 8.0500765 10.120407 7.9795889 10.339844 7.9804688 z " fill="currentColor"/>
</svg>
