<svg xmlns="http://www.w3.org/2000/svg" width="1em" height="1em" viewBox="0 0 24 24" fill="currentColor">
  <path d="M 12 1 C 8.8384093 1 5.8625069 2.9112758 4.6113281 5.9199219 C 3.4777538 8.6457352 4.103616 11.148038 5.3828125 13.136719 C 6.662009 15.125399 8.5292545 16.74039 10.046875 18.210938 A 1.0001 1.0001 0 0 0 10.048828 18.214844 C 10.572605 18.719262 11.272772 19 12 19 C 12.727183 19 13.427348 18.719255 13.951172 18.214844 A 1.0001 1.0001 0 0 0 13.951172 18.212891 C 15.47443 16.74557 17.343225 15.129682 18.621094 13.138672 C 19.898963 11.147662 20.523022 8.6428829 19.390625 5.9199219 C 18.139439 2.9113442 15.161542 1 12 1 z M 12 3 C 14.348858 3 16.611355 4.4473247 17.542969 6.6875 C 18.426571 8.812209 17.994181 10.412211 16.9375 12.058594 C 15.880819 13.704977 14.137395 15.258258 12.564453 16.773438 C 12.413677 16.918626 12.211017 17 12 17 C 11.789713 17 11.590022 16.91944 11.439453 16.775391 L 11.4375 16.773438 C 9.8670757 15.251839 8.1218917 13.698615 7.0644531 12.054688 C 6.0065746 10.410075 5.5720855 8.8154566 6.4570312 6.6875 C 7.3886324 4.4473261 9.6510707 3 12 3 z M 12 5.5 C 10.078854 5.5 8.5 7.0788434 8.5 9 C 8.5 10.92115 10.07885 12.5 12 12.5 C 13.92115 12.5 15.5 10.92115 15.5 9 C 15.5 7.0788434 13.921146 5.5 12 5.5 z M 12 7.5 C 12.840254 7.5 13.5 8.1597366 13.5 9 C 13.5 9.8402495 12.84025 10.5 12 10.5 C 11.15975 10.5 10.5 9.8402495 10.5 9 C 10.5 8.1597366 11.159746 7.5 12 7.5 z M 5.734375 16.001953 A 1 1 0 0 0 5.6054688 16.015625 A 1 1 0 0 0 4.9589844 16.425781 C 4.2568469 17.426986 3.7194721 18.205983 3.3691406 18.951172 C 3.0188091 19.696361 2.8508047 20.558104 3.2070312 21.322266 C 3.2691072 21.455486 3.3418603 21.583347 3.4238281 21.705078 C 3.9340053 22.462787 4.8095553 22.762851 5.7402344 22.884766 C 6.6709134 23.00668 7.7983431 23 9.2832031 23 L 14.71875 23 C 16.2036 23 17.329084 23.0067 18.259766 22.884766 C 19.190447 22.762851 20.06601 22.462818 20.576172 21.705078 C 20.657742 21.583798 20.730866 21.455343 20.792969 21.322266 C 21.149148 20.558089 20.9812 19.696348 20.630859 18.951172 C 20.280519 18.205996 19.74314 17.426983 19.041016 16.425781 A 1 1 0 0 0 17.648438 16.181641 A 1 1 0 0 0 17.404297 17.574219 C 18.096672 18.561517 18.589756 19.306232 18.822266 19.800781 C 19.054775 20.295331 19.021589 20.38834 18.980469 20.476562 C 18.962769 20.514482 18.942399 20.551572 18.917969 20.587891 C 18.853631 20.683451 18.697819 20.810933 18 20.902344 C 17.302181 20.993754 16.2036 21 14.71875 21 L 9.2832031 21 C 7.7983431 21 6.697816 20.993754 6 20.902344 C 5.302184 20.810933 5.146394 20.683481 5.0820312 20.587891 C 5.0578793 20.552021 5.0371353 20.514342 5.0195312 20.476562 C 4.9783982 20.388323 4.9452412 20.295317 5.1777344 19.800781 C 5.4102279 19.306245 5.9033206 18.561514 6.5957031 17.574219 A 1 1 0 0 0 6.3515625 16.181641 A 1 1 0 0 0 5.734375 16.001953 z " fill="currentColor"/>
</svg>
