<svg xmlns="http://www.w3.org/2000/svg" width="1em" height="1em" viewBox="0 0 24 24" fill="currentColor">
  <path d="M 12 1 C 5.9367104 1 1 5.9367104 1 12 C 1 18.063244 5.9367044 23 12 23 C 18.06325 23 23 18.06325 23 12 C 23 5.9367044 18.063244 1 12 1 z M 12 3 C 16.982356 3 21 7.0175956 21 12 C 21 16.98235 16.98235 21 12 21 C 7.0175956 21 3 16.982356 3 12 C 3 7.0175896 7.0175896 3 12 3 z M 12 8 C 10.354975 8 9 9.3550085 9 11 C 9 12.25665 9.8932993 13.140589 11 13.583984 L 11 16 A 1 1 0 0 0 12 17 A 1 1 0 0 0 13 16 L 13 13.583984 C 14.106701 13.140589 15 12.25665 15 11 C 15 9.3550085 13.645025 8 12 8 z M 12 10 C 12.564175 10 13 10.435851 13 11 C 13 11.564193 12.564193 12 12 12 C 11.435807 12 11 11.564193 11 11 C 11 10.435851 11.435825 10 12 10 z " fill="currentColor"/>
</svg>
