<svg xmlns="http://www.w3.org/2000/svg" width="1em" height="1em" viewBox="0 0 24 24" fill="currentColor">
  <path d="M 10 1 C 8.11438 1 6.6767422 0.99188785 5.4609375 1.1757812 C 4.2451328 1.3596747 3.1866008 1.7961825 2.4238281 2.6542969 C 1.6610597 3.5124138 1.3128449 4.6166837 1.1542969 5.9433594 C 1.1297098 6.1490957 1.1091767 6.3618725 1.0917969 6.5820312 A 1 1 0 0 0 1 7 A 1 1 0 0 0 1.046875 7.3027344 C 0.99788873 8.3455074 1 9.5537379 1 11 C 1 13.1213 0.99574897 14.729954 1.1542969 16.056641 C 1.3128446 17.383327 1.6610485 18.487587 2.4238281 19.345703 C 3.0885146 20.09346 3.9777841 20.520938 5 20.740234 L 5 22 A 1 1 0 0 0 6 23 A 1 1 0 0 0 7 22 L 7 20.962891 C 7.867698 21.002184 8.850626 21 10 21 L 14 21 C 15.149366 21 16.132296 21.002185 17 20.962891 L 17 22 A 1 1 0 0 0 18 23 A 1 1 0 0 0 19 22 L 19 20.740234 C 20.022225 20.520943 20.911509 20.093485 21.576172 19.345703 C 22.33897 18.487588 22.687151 17.38333 22.845703 16.056641 C 23.004255 14.729951 23 13.1213 23 11 C 23 9.5537353 23.002112 8.3455087 22.953125 7.3027344 A 1 1 0 0 0 23 7 A 1 1 0 0 0 22.908203 6.5820312 C 22.890823 6.3618715 22.870291 6.1490968 22.845703 5.9433594 C 22.687151 4.6166812 22.338958 3.5124121 21.576172 2.6542969 C 20.813427 1.796155 19.754874 1.3596745 18.539062 1.1757812 C 17.323251 0.99188807 15.8856 1 14 1 L 10 1 z M 10 3 L 14 3 C 15.8856 3 17.277521 3.00869 18.240234 3.1542969 C 19.202948 3.2999086 19.671323 3.5225438 20.080078 3.9824219 C 20.466316 4.4169291 20.699944 4.990024 20.837891 6 L 12 6 L 3.1621094 6 C 3.3000548 4.9900218 3.5336956 4.4169276 3.9199219 3.9824219 C 4.3287292 3.5225163 4.7970603 3.2999084 5.7597656 3.1542969 C 6.722471 3.0086853 8.11438 3 10 3 z M 3.0234375 8 L 11 8 L 11 19 L 10 19 C 8.11438 19 6.7224728 18.991313 5.7597656 18.845703 C 4.7970585 18.700094 4.3287274 18.477475 3.9199219 18.017578 C 3.5111315 17.557695 3.2730167 16.942523 3.1386719 15.818359 C 3.0043271 14.694196 3 13.1213 3 11 C 3 9.8419695 3.0004108 8.8473754 3.0234375 8 z M 13 8 L 20.976562 8 C 20.999589 8.8473755 21 9.84197 21 11 C 21 13.1213 20.9957 14.694199 20.861328 15.818359 C 20.72698 16.94252 20.48888 17.557693 20.080078 18.017578 C 19.671325 18.477447 19.20295 18.700093 18.240234 18.845703 C 17.277519 18.991313 15.8856 19 14 19 L 13 19 L 13 8 z M 9 12 A 1 1 0 0 0 8 13 L 8 14 A 1 1 0 0 0 9 15 A 1 1 0 0 0 10 14 L 10 13 A 1 1 0 0 0 9 12 z M 15 12 A 1 1 0 0 0 14 13 L 14 14 A 1 1 0 0 0 15 15 A 1 1 0 0 0 16 14 L 16 13 A 1 1 0 0 0 15 12 z " fill="currentColor"/>
</svg>
