<svg xmlns="http://www.w3.org/2000/svg" width="1em" height="1em" viewBox="0 0 24 24" fill="currentColor">
  <path d="M 10 1 C 8.11438 1 6.6791025 0.99457301 5.4765625 1.15625 C 4.2740225 1.317927 3.238358 1.689383 2.4628906 2.4648438 C 1.6874299 3.240311 1.3159739 4.2759756 1.1542969 5.4785156 C 0.99261985 6.6810556 1 8.11438 1 10 C 1 11.8856 0.99261998 13.318937 1.1542969 14.521484 C 1.3159737 15.724031 1.6874014 16.759713 2.4628906 17.535156 C 3.2383556 18.310634 4.2740198 18.682068 5.4765625 18.84375 C 6.6791052 19.005432 8.11438 19 10 19 L 11 19 L 11 21 L 8 21 A 1 1 0 0 0 7 22 A 1 1 0 0 0 8 23 L 16 23 A 1 1 0 0 0 17 22 A 1 1 0 0 0 16 21 L 13 21 L 13 19 L 14 19 C 15.8856 19 17.318935 19.0054 18.521484 18.84375 C 19.724034 18.682069 20.759716 18.310663 21.535156 17.535156 C 22.399846 16.670467 22.754589 15.500312 22.892578 14.097656 A 1 1 0 0 0 21.996094 13.003906 A 1 1 0 0 0 20.902344 13.902344 C 20.784533 15.099888 20.562804 15.679383 20.121094 16.121094 C 19.725034 16.517187 19.231835 16.732063 18.255859 16.863281 C 17.279884 16.9945 15.8856 17 14 17 L 10 17 C 8.11438 17 6.7201079 16.9945 5.7441406 16.863281 C 4.7681734 16.732063 4.2750213 16.517216 3.8789062 16.121094 C 3.4828254 15.725037 3.2679343 15.231837 3.1367188 14.255859 C 3.005503 13.279881 3 11.8856 3 10 C 3 8.11438 3.0055032 6.7201106 3.1367188 5.7441406 C 3.2679342 4.7681706 3.4827969 4.2750188 3.8789062 3.8789062 C 4.2750189 3.482797 4.7681706 3.2679342 5.7441406 3.1367188 C 6.7201106 3.0055032 8.11438 3 10 3 L 13 3 A 1 1 0 0 0 14 2 A 1 1 0 0 0 13 1 L 10 1 z M 18.669922 1.0097656 C 17.655133 0.94950397 16.562637 1.479558 16.025391 2.5292969 C 15.676696 3.1863805 15.751092 3.7856008 15.75 4.1191406 C 15.749271 4.3455353 15.749809 4.5079339 15.75 4.765625 C 15.455777 4.8944142 15.068174 4.9128437 14.867188 5.1074219 C 14.438416 5.5225189 14.227946 5.988605 14.126953 6.3925781 C 13.997997 6.908403 14.006284 7.3931627 14 8.0058594 C 13.9937 8.6185561 14.008804 9.236419 14.052734 9.6757812 A 1.0001 1.0001 0 0 0 14.082031 9.8339844 C 14.411274 11.068602 15.423205 11.772952 16.277344 11.947266 A 1.0001 1.0001 0 0 0 16.388672 11.964844 C 16.793287 12.000814 17.444337 12.000443 18.169922 12.001953 C 18.887576 12.003453 19.611076 11.998147 19.9375 11.998047 C 20.547119 12.009477 21.186499 11.901237 21.744141 11.533203 C 22.301783 11.165166 22.702841 10.554907 22.900391 9.84375 A 1.0001 1.0001 0 0 0 22.923828 9.7402344 C 22.993815 9.3202917 22.996075 8.8448239 23 8.2011719 C 23.0039 7.5575199 23.02234 6.9741097 22.876953 6.3925781 A 1.0001 1.0001 0 0 0 22.855469 6.3222656 C 22.561469 5.4347294 21.921313 4.973968 21.251953 4.6933594 C 21.250353 4.4525646 21.2486 4.3224566 21.25 4.1308594 C 21.2527 3.7714449 21.296571 3.3670771 21.101562 2.828125 C 20.712854 1.7235132 19.689343 1.0703024 18.669922 1.0097656 z M 18.439453 3.0058594 C 18.476231 3.0041034 18.512927 3.0036115 18.550781 3.0058594 C 18.853615 3.0238424 19.100338 3.1594474 19.216797 3.4921875 A 1.0001 1.0001 0 0 0 19.21875 3.4980469 L 19.216797 3.4980469 L 19.216797 3.5 C 19.211367 3.5309618 19.252145 3.8297055 19.25 4.1152344 C 19.249285 4.2112644 19.251753 4.2621562 19.251953 4.3769531 L 17.75 4.3769531 C 17.750088 4.2730293 17.749722 4.2112714 17.75 4.125 C 17.7515 3.6672134 17.765106 3.5057969 17.785156 3.46875 A 1.0001 1.0001 0 0 0 17.798828 3.4414062 C 17.953379 3.1338669 18.182007 3.0181515 18.439453 3.0058594 z M 16.75 6.3769531 L 20.255859 6.3769531 C 20.515167 6.3769531 20.746817 6.3989011 20.9375 6.9355469 C 20.9465 7.0086419 21.00342 7.6284283 21 8.1894531 C 20.9966 8.7430357 20.948412 9.3231948 20.951172 9.34375 C 20.854362 9.6588989 20.752445 9.79077 20.642578 9.8632812 C 20.52522 9.9407363 20.32499 10.004617 19.974609 9.9980469 A 1.0001 1.0001 0 0 0 19.957031 9.9980469 C 19.61794 9.9980469 18.888244 10.003433 18.173828 10.001953 C 17.502764 10.000553 16.858031 9.9862544 16.662109 9.9746094 C 16.363327 9.9134069 16.184071 9.8411876 16.039062 9.3417969 C 16.014988 9.0343663 15.994815 8.5309399 16 8.0253906 C 16.0057 7.4680873 16.075356 6.8430815 16.066406 6.8789062 C 16.085416 6.8028793 16.161736 6.6398248 16.259766 6.5449219 C 16.357796 6.4500189 16.450741 6.3769531 16.75 6.3769531 z M 11 14 A 1 1 0 0 0 10 15 A 1 1 0 0 0 11 16 L 13 16 A 1 1 0 0 0 14 15 A 1 1 0 0 0 13 14 L 11 14 z " fill="currentColor"/>
</svg>
