<svg xmlns="http://www.w3.org/2000/svg" width="1em" height="1em" viewBox="0 0 24 24" fill="currentColor">
  <path d="M 10.269531 1.0175781 C 9.4485263 1.0500793 8.7426079 1.2542162 8.2128906 1.46875 A 1.0001 1.0001 0 0 0 8.0976562 1.5234375 C 6.5661721 2.3857709 5.6728209 3.4868439 5.2851562 4.6757812 C 4.8974917 5.8647186 4.9595241 7.0374704 4.984375 8.2167969 A 1 1 0 0 0 5.0664062 8.2949219 C 4.6722116 8.3568804 4.358265 8.3129467 3.9199219 8.5058594 C 3.0157127 8.9037974 2.092462 9.6942073 1.5585938 10.958984 A 1.0001 1.0001 0 0 0 1.5292969 11.035156 C 0.8333348 13.151102 0.85629837 16.63019 1.2421875 18.734375 C 1.3469313 19.950956 2.0528746 21.632475 3.9238281 22.492188 C 5.3545069 23.227715 6.9463765 22.913158 7.9003906 22.996094 A 1 1 0 0 0 8.984375 22.085938 A 1 1 0 0 0 8.0742188 21.003906 C 6.7322152 20.887242 5.2860586 20.958684 4.8222656 20.714844 A 1.0001 1.0001 0 0 0 4.7695312 20.6875 C 3.5752626 20.148687 3.2799099 19.220059 3.2265625 18.544922 A 1.0001 1.0001 0 0 0 3.2128906 18.4375 C 2.9116271 16.846722 2.9851272 13.107242 3.4238281 11.714844 C 3.7645029 10.930692 4.2183522 10.561551 4.7265625 10.337891 C 5.2429158 10.110646 5.824403 10.060071 6.234375 10.070312 A 1.0001 1.0001 0 0 0 6.2792969 10.072266 C 7.8555694 10.042736 8.7545677 9.9960938 10.691406 9.9960938 C 12.618291 9.9960938 14.326172 10.070312 14.326172 10.070312 A 1.0001 1.0001 0 0 0 14.392578 10.070312 C 16.203446 10.028733 16.852353 10.928975 17.101562 11.4375 A 1 1 0 0 0 18.439453 11.894531 A 1 1 0 0 0 18.898438 10.556641 C 18.491996 9.7272413 17.53837 8.6986464 15.992188 8.2734375 C 15.982287 8.1137996 16.015059 7.5194053 16.011719 6.8574219 C 16.008319 6.1853965 15.970499 5.4065195 15.681641 4.6425781 A 1.0001 1.0001 0 0 0 15.628906 4.5273438 C 15.633545 4.5359054 15.636802 4.5383845 15.638672 4.5410156 C 15.631722 4.5169427 15.576489 4.3869079 15.513672 4.2402344 C 15.428855 4.0421822 15.302555 3.7812378 15.115234 3.4941406 C 14.740592 2.9199463 14.117871 2.2476777 13.111328 1.6386719 A 1.0001 1.0001 0 0 0 13.017578 1.5898438 C 12.025354 1.1233899 11.090536 0.98507702 10.269531 1.0175781 z M 10.330078 2.9902344 C 10.841214 2.9670744 11.434459 3.0768684 12.121094 3.390625 C 12.841355 3.8394454 13.229747 4.2634914 13.441406 4.5878906 C 13.550848 4.755626 13.620211 4.8995409 13.675781 5.0292969 C 13.72485 5.1438713 13.739712 5.222015 13.826172 5.3945312 C 13.951397 5.7582176 14.00895 6.3184569 14.011719 6.8671875 C 14.013919 7.300656 14.000143 7.6794556 14.001953 8.0644531 C 13.674859 8.0511531 12.450545 7.9960937 10.691406 7.9960938 C 9.0551056 7.9960938 8.1472314 8.0311357 6.9921875 8.0585938 C 6.9694729 6.9299573 6.9571052 5.997488 7.1855469 5.296875 C 7.4186665 4.5819152 7.8594132 3.9791242 9.0234375 3.3085938 C 9.4066501 3.1564306 9.8287441 3.01295 10.330078 2.9902344 z M 15.638672 4.5429688 L 15.638672 4.5449219 L 15.640625 4.5449219 L 15.640625 4.5429688 L 15.638672 4.5429688 z M 19.484375 12.990234 C 19.31055 12.995908 19.147555 13.024629 19.003906 13.074219 C 18.429311 13.272583 18.098557 13.626243 17.978516 13.728516 A 1.0001 1.0001 0 0 0 17.933594 13.769531 L 16.521484 15.126953 A 1 1 0 0 0 16.521484 15.130859 A 1 1 0 0 0 16.517578 15.132812 L 16.494141 15.15625 L 14.748047 16.859375 C 14.299721 16.624505 13.792114 16.492188 13.255859 16.492188 C 11.480814 16.492188 10 17.944073 10 19.734375 C 10 21.524733 11.487934 22.964844 13.255859 22.964844 C 15.023841 22.964844 16.5 21.519107 16.5 19.734375 C 16.5 19.213049 16.374061 18.720521 16.152344 18.283203 L 17.220703 17.240234 L 18.132812 18.115234 A 1 1 0 0 0 19.546875 18.085938 A 1 1 0 0 0 19.517578 16.671875 L 18.658203 15.847656 L 19.285156 15.244141 C 19.443617 15.110183 19.574138 15.016051 19.630859 14.980469 C 19.643092 14.994069 19.659832 15.010383 19.681641 15.03125 A 1.0001 1.0001 0 0 0 19.685547 15.035156 L 21.3125 16.574219 A 1 1 0 0 0 22.726562 16.535156 A 1 1 0 0 0 22.6875 15.121094 L 21.064453 13.585938 C 20.768094 13.302381 20.396321 13.125035 20.027344 13.042969 C 19.842855 13.001934 19.6582 12.984561 19.484375 12.990234 z M 13.255859 18.492188 C 13.952557 18.492188 14.5 19.03105 14.5 19.734375 C 14.5 20.437843 13.959677 20.964844 13.255859 20.964844 C 12.552184 20.964844 12 20.432217 12 19.734375 C 12 19.036677 12.559305 18.492188 13.255859 18.492188 z " fill="currentColor"/>
</svg>
