<svg xmlns="http://www.w3.org/2000/svg" width="1em" height="1em" viewBox="0 0 24 24" fill="currentColor">
  <path d="M 10 1 C 9.53565 1 9.27904 0.99545784 8.9960938 1.0273438 C 6.9152919 1.2617768 5.2617763 2.9152965 5.0273438 4.9960938 C 4.9954766 5.2790017 5 5.53565 5 6 A 1 1 0 0 0 6 7 A 1 1 0 0 0 7 6 C 7 5.53565 7.0034922 5.3284152 7.015625 5.2207031 C 7.1468324 4.0561204 8.0561249 3.1468319 9.2207031 3.015625 C 9.3283769 3.003491 9.53565 3 10 3 L 13 3 C 14.6499 3 15.86723 3.00623 16.707031 3.1191406 C 17.546833 3.2320496 17.944708 3.4095453 18.267578 3.7324219 C 18.590491 4.0553091 18.767942 4.4531643 18.880859 5.2929688 C 18.993776 6.1327732 19 7.35009 19 9 L 19 15 C 19 16.6499 18.9938 17.867199 18.880859 18.707031 C 18.767951 19.546863 18.590435 19.944721 18.267578 20.267578 C 17.94465 20.590474 17.54685 20.767952 16.707031 20.880859 C 15.867212 20.993767 14.6499 21 13 21 L 10 21 C 9.53564 21 9.328419 20.996508 9.2207031 20.984375 C 8.0561573 20.853186 7.1468333 19.943895 7.015625 18.779297 C 7.0034903 18.671573 7 18.4644 7 18 A 1 1 0 0 0 6 17 A 1 1 0 0 0 5 18 C 5 18.4644 4.9954797 18.72103 5.0273438 19.003906 C 5.2617755 21.084708 6.9152595 22.738245 8.9960938 22.972656 C 9.2789975 23.004523 9.53564 23 10 23 L 13 23 C 14.6499 23 15.908228 23.0066 16.974609 22.863281 C 18.04099 22.719914 18.979368 22.383844 19.681641 21.681641 C 20.383884 20.979398 20.719914 20.041002 20.863281 18.974609 C 21.006648 17.908216 21 16.6499 21 15 L 21 9 C 21 7.35009 21.006664 6.0917812 20.863281 5.0253906 C 20.719898 3.9590001 20.383928 3.0205921 19.681641 2.3183594 C 18.979411 1.616116 18.040983 1.2800897 16.974609 1.1367188 C 15.908236 0.9933478 14.6499 1 13 1 L 10 1 z M 11.292969 6.4628906 C 11.118408 6.4680864 10.941985 6.5005204 10.765625 6.5683594 C 10.722585 6.5848844 10.682105 6.6028057 10.642578 6.6210938 A 1.0001 1.0001 0 0 0 10.640625 6.6210938 C 10.299988 6.7792612 10.013182 7.0783405 9.8535156 7.3808594 C 9.6938491 7.6833783 9.626809 7.983221 9.5820312 8.2910156 C 9.5329812 8.6281757 9.544925 9.0969387 9.5371094 9.5019531 L 5.5 9.5019531 C 5.03406 9.5019531 4.6941649 9.461943 4.234375 9.6523438 C 3.7446379 9.8552099 3.3551869 10.246658 3.1523438 10.736328 C 2.9619578 11.196035 3 11.535953 3 12.001953 C 3 12.467853 2.961909 12.805799 3.1523438 13.265625 C 3.3551868 13.755295 3.7446379 14.146743 4.234375 14.349609 C 4.6941649 14.54001 5.03406 14.501953 5.5 14.501953 L 9.5390625 14.501953 C 9.5480625 14.885375 9.5367225 15.331042 9.5859375 15.654297 C 9.6318955 15.956175 9.7011289 16.249531 9.8613281 16.546875 C 10.021527 16.844219 10.305488 17.137406 10.640625 17.292969 C 10.682755 17.312599 10.723215 17.330063 10.763672 17.345703 A 1.0001 1.0001 0 0 0 10.765625 17.345703 C 11.471064 17.616998 12.188618 17.323633 12.712891 16.970703 C 13.237163 16.617772 13.761631 16.138978 14.457031 15.517578 C 15.19232 14.860485 15.763525 14.353961 16.207031 13.828125 C 16.65049 13.302293 16.992493 12.673204 17 11.966797 A 1.0001 1.0001 0 0 0 17 11.947266 C 16.9925 11.240858 16.650545 10.611764 16.207031 10.085938 C 15.763518 9.5601091 15.192325 9.053527 14.457031 8.3964844 C 13.761632 7.7750698 13.237171 7.2962984 12.712891 6.9433594 C 12.450751 6.7668899 12.139465 6.6049796 11.806641 6.5214844 C 11.640228 6.4797374 11.46753 6.4576949 11.292969 6.4628906 z M 11.566406 8.5566406 C 11.568399 8.5578837 11.571045 8.5596436 11.572266 8.5605469 L 11.574219 8.5625 L 11.574219 8.5644531 L 11.572266 8.5644531 L 11.570312 8.5644531 C 11.568486 8.5645445 11.566378 8.566216 11.564453 8.5664062 L 11.564453 8.5644531 L 11.564453 8.5625 C 11.564842 8.561113 11.565969 8.5591732 11.566406 8.5566406 z M 11.560547 8.5742188 C 11.565092 8.5795035 11.575922 8.5882471 11.595703 8.6015625 C 11.911723 8.8143035 12.4296 9.2672564 13.125 9.8886719 C 13.856606 10.542419 14.385523 11.028555 14.677734 11.375 C 14.965011 11.715595 14.991889 11.837264 14.994141 11.957031 C 14.991841 12.076799 14.965021 12.198447 14.677734 12.539062 C 14.385515 12.885526 13.856612 13.371584 13.125 14.025391 C 12.4296 14.646791 11.911731 15.099756 11.595703 15.3125 C 11.576636 15.325336 11.566035 15.334183 11.560547 15.339844 C 11.51101 14.998922 11.500099 14.360718 11.5 13.5 A 1.0001 1.0001 0 0 0 10.5 12.501953 L 5.5 12.501953 C 5.2394649 12.501953 5.0849489 12.49018 5.015625 12.486328 C 5.0117747 12.417009 5 12.262491 5 12.001953 C 5 11.740557 5.0119403 11.586261 5.015625 11.517578 C 5.0848287 11.513741 5.2391545 11.501953 5.5 11.501953 L 10.5 11.501953 A 1.0001 1.0001 0 0 0 11.5 10.501953 C 11.5 9.5983751 11.509097 8.9319157 11.560547 8.578125 C 11.560742 8.5767778 11.560361 8.5752387 11.560547 8.5742188 z M 11.5625 15.351562 C 11.564426 15.351732 11.568531 15.351471 11.570312 15.351562 L 11.572266 15.351562 L 11.572266 15.353516 L 11.570312 15.355469 L 11.568359 15.355469 C 11.567478 15.356121 11.565741 15.356592 11.564453 15.357422 L 11.5625 15.355469 L 11.5625 15.353516 L 11.5625 15.351562 z " fill="currentColor"/>
</svg>
