<svg xmlns="http://www.w3.org/2000/svg" width="1em" height="1em" viewBox="0 0 24 24" fill="currentColor">
  <path d="M 12 1 C 7.6545226 1 3.8850657 3.5280791 2.1015625 7.1992188 A 1 1 0 0 0 2.5625 8.5351562 A 1 1 0 0 0 3.9003906 8.0722656 C 5.3583674 5.0711853 8.4291774 3 12 3 C 16.982465 3 21 7.0175835 21 12 C 21 16.982362 16.982459 21 12 21 C 8.429169 21 5.3583698 18.928901 3.9003906 15.927734 A 1 1 0 0 0 2.5625 15.464844 A 1 1 0 0 0 2.0996094 16.800781 C 3.8831102 20.472015 7.654531 23 12 23 C 18.063341 23 23 18.063238 23 12 C 23 5.9367165 18.063335 1 12 1 z M 10.980469 7 A 1 1 0 0 0 10.195312 7.40625 A 1 1 0 0 0 10.40625 8.8046875 C 10.40625 8.8046875 11.381565 9.5239581 12.34375 10.359375 C 12.593828 10.576506 12.783037 10.782113 13.009766 11 L 2 11 A 1 1 0 0 0 1 12 A 1 1 0 0 0 2 13 L 13.009766 13 C 12.783039 13.217885 12.593827 13.423499 12.34375 13.640625 C 11.38157 14.476026 10.40625 15.195311 10.40625 15.195312 A 1 1 0 0 0 10.195312 16.59375 A 1 1 0 0 0 11.59375 16.804688 C 11.59375 16.804688 12.61843 16.051465 13.65625 15.150391 C 14.17516 14.699854 14.698999 14.214553 15.125 13.732422 C 15.551001 13.25029 16 12.895976 16 12 C 16 11.103989 15.550997 10.7497 15.125 10.267578 C 14.699003 9.7854565 14.175158 9.3001509 13.65625 8.8496094 C 12.618435 7.9485262 11.59375 7.1953125 11.59375 7.1953125 A 1 1 0 0 0 10.980469 7 z " fill="currentColor"/>
</svg>
