<svg xmlns="http://www.w3.org/2000/svg" width="1em" height="1em" viewBox="0 0 24 24" fill="currentColor">
  <path d="M 14.486328 1.5 C 13.311228 1.5 12.413783 1.4959004 11.630859 1.5839844 C 10.847935 1.6720717 10.135116 1.8741979 9.5449219 2.3261719 C 9.2671168 2.5389105 9.0179062 2.7871209 8.8046875 3.0644531 C 8.2034017 3.846536 8.049476 4.797374 8 5.9570312 A 1 1 0 0 0 8.9570312 7 A 1 1 0 0 0 10 6.0429688 C 10.04382 5.015786 10.167591 4.5733002 10.390625 4.2832031 C 10.497266 4.1444954 10.620691 4.0205639 10.759766 3.9140625 C 10.979072 3.7461165 11.258965 3.6372056 11.853516 3.5703125 C 12.448067 3.5034194 13.311228 3.5 14.486328 3.5 L 14.988281 3.5 C 16.405281 3.5 17.448834 3.5069 18.154297 3.6015625 C 18.85976 3.6962235 19.163655 3.8360507 19.414062 4.0859375 C 19.664395 4.3357767 19.803677 4.6383506 19.898438 5.3417969 C 19.993199 6.0452431 20 7.0858 20 8.5 L 20 15.5 C 20 16.9142 19.993201 17.954761 19.898438 18.658203 C 19.803677 19.361645 19.664407 19.664201 19.414062 19.914062 C 19.163726 20.163916 18.85977 20.303773 18.154297 20.398438 C 17.448824 20.493102 16.405281 20.5 14.988281 20.5 L 14.486328 20.5 C 13.311228 20.5 12.44807 20.496598 11.853516 20.429688 C 11.258962 20.362797 10.979071 20.253878 10.759766 20.085938 C 10.620751 19.979482 10.497282 19.85552 10.390625 19.716797 C 10.167504 19.426569 10.043816 18.984504 10 17.957031 A 1 1 0 0 0 8.9570312 17 A 1 1 0 0 0 8 18.042969 C 8.049464 19.202896 8.2033688 20.153375 8.8046875 20.935547 C 9.0178706 21.212824 9.2670967 21.46108 9.5449219 21.673828 C 10.135116 22.125788 10.847938 22.327932 11.630859 22.416016 C 12.41378 22.504096 13.311228 22.5 14.486328 22.5 L 14.988281 22.5 C 16.405281 22.5 17.488295 22.5059 18.419922 22.380859 C 19.351549 22.255849 20.196108 21.956972 20.826172 21.328125 C 21.456227 20.699286 21.75552 19.856214 21.880859 18.925781 C 22.006198 17.995353 22 16.9142 22 15.5 L 22 8.5 C 22 7.0858 22.006198 6.0046551 21.880859 5.0742188 C 21.75552 4.1437826 21.456241 3.2987527 20.826172 2.6699219 C 20.196079 2.0411387 19.351534 1.744147 18.419922 1.6191406 C 17.48831 1.4941343 16.405281 1.5 14.988281 1.5 L 14.486328 1.5 z M 12.480469 7.5 A 1 1 0 0 0 12.349609 7.5117188 A 1 1 0 0 0 11.695312 7.90625 A 1 1 0 0 0 11.90625 9.3046875 C 11.90625 9.3046875 12.756568 9.9332816 13.59375 10.660156 C 13.727143 10.775973 13.819136 10.882139 13.947266 11 L 3 11 A 1 1 0 0 0 2 12 A 1 1 0 0 0 3 13 L 13.949219 13 C 13.820527 13.118415 13.727776 13.22543 13.59375 13.341797 C 12.756568 14.068674 11.90625 14.695312 11.90625 14.695312 A 1 1 0 0 0 11.695312 16.09375 A 1 1 0 0 0 13.09375 16.304688 C 13.09375 16.304688 13.993432 15.644109 14.90625 14.851562 C 15.362659 14.455288 15.824001 14.026732 16.203125 13.597656 C 16.582249 13.16858 17 12.863052 17 12 C 17 11.136948 16.582249 10.831419 16.203125 10.402344 C 15.824001 9.9732682 15.362659 9.54471 14.90625 9.1484375 C 13.993432 8.3558925 13.09375 7.6953125 13.09375 7.6953125 A 1 1 0 0 0 12.480469 7.5 z " fill="currentColor"/>
</svg>
