<svg xmlns="http://www.w3.org/2000/svg" width="1em" height="1em" viewBox="0 0 24 24" fill="currentColor">
  <path d="M 8.5117188 1.5 C 7.0947287 1.5 6.011698 1.4941345 5.0800781 1.6191406 C 4.1484582 1.7441468 3.3038977 2.0410976 2.6738281 2.6699219 C 2.0437619 3.29875 1.7444867 4.1437824 1.6191406 5.0742188 C 1.4937946 6.0046551 1.500005 7.0857982 1.5 8.5 L 1.5 15.5 C 1.499995 16.914199 1.4938 17.995346 1.6191406 18.925781 C 1.7444786 19.856217 2.0437595 20.699287 2.6738281 21.328125 C 3.3038958 21.956969 4.1484489 22.255849 5.0800781 22.380859 C 6.0117073 22.50587 7.0947137 22.5 8.5117188 22.5 L 9.0136719 22.5 C 10.188767 22.5 11.086221 22.504096 11.869141 22.416016 C 12.65206 22.327936 13.364884 22.125788 13.955078 21.673828 C 14.232787 21.461149 14.482053 21.212958 14.695312 20.935547 C 15.29658 20.153398 15.450577 19.202936 15.5 18.042969 A 1 1 0 0 0 14.542969 17 A 1 1 0 0 0 13.5 17.957031 C 13.45622 18.984464 13.332507 19.426542 13.109375 19.716797 C 13.002835 19.855386 12.879325 19.979417 12.740234 20.085938 C 12.520929 20.253878 12.241037 20.362797 11.646484 20.429688 C 11.051932 20.496579 10.188767 20.5 9.0136719 20.5 L 8.5117188 20.5 C 7.0947136 20.5 6.0511789 20.493102 5.3457031 20.398438 C 4.6402273 20.303773 4.3362798 20.163919 4.0859375 19.914062 C 3.8355862 19.6642 3.6963221 19.361643 3.6015625 18.658203 C 3.5068029 17.954764 3.499995 16.914201 3.5 15.5 L 3.5 8.5 C 3.500005 7.0858018 3.5068 6.045243 3.6015625 5.3417969 C 3.696329 4.6383508 3.8356037 4.3357794 4.0859375 4.0859375 C 4.336278 3.8360918 4.6402305 3.6962239 5.3457031 3.6015625 C 6.0511757 3.5069011 7.0947287 3.5 8.5117188 3.5 L 9.0136719 3.5 C 10.188742 3.5 11.051941 3.5034205 11.646484 3.5703125 C 12.241028 3.6372055 12.520928 3.7461165 12.740234 3.9140625 C 12.879228 4.0204708 13.002724 4.1444569 13.109375 4.2832031 C 13.332446 4.5733194 13.456225 5.0158302 13.5 6.0429688 A 1 1 0 0 0 14.542969 7 A 1 1 0 0 0 15.5 5.9570312 C 15.450575 4.7973299 15.296641 3.8465168 14.695312 3.0644531 C 14.482162 2.7871593 14.233085 2.5390036 13.955078 2.3261719 C 13.364884 1.8741979 12.652057 1.6720715 11.869141 1.5839844 C 11.086224 1.4958973 10.188742 1.5 9.0136719 1.5 L 8.5117188 1.5 z M 17.980469 7.5 A 1 1 0 0 0 17.849609 7.5117188 A 1 1 0 0 0 17.195312 7.90625 A 1 1 0 0 0 17.40625 9.3046875 C 17.40625 9.3046875 18.256568 9.933279 19.09375 10.660156 C 19.227143 10.775974 19.319136 10.882139 19.447266 11 L 8.5 11 A 1 1 0 0 0 7.5 12 A 1 1 0 0 0 8.5 13 L 19.447266 13 C 19.319136 13.117861 19.227143 13.224026 19.09375 13.339844 C 18.256568 14.066721 17.40625 14.695312 17.40625 14.695312 A 1 1 0 0 0 17.195312 16.09375 A 1 1 0 0 0 18.59375 16.304688 C 18.59375 16.304688 19.493432 15.644109 20.40625 14.851562 C 20.862659 14.455288 21.324001 14.026732 21.703125 13.597656 C 22.082249 13.16858 22.5 12.863052 22.5 12 C 22.5 11.136948 22.082249 10.83142 21.703125 10.402344 C 21.324001 9.9732674 20.862659 9.5447113 20.40625 9.1484375 C 19.493432 8.35589 18.59375 7.6953125 18.59375 7.6953125 A 1 1 0 0 0 17.980469 7.5 z " fill="currentColor"/>
</svg>
