<svg xmlns="http://www.w3.org/2000/svg" width="1em" height="1em" viewBox="0 0 24 24" fill="currentColor">
  <path d="M 7 2 C 6.07003 2 5.5425591 1.9819244 4.9648438 2.1367188 C 3.5860237 2.5061727 2.5061823 3.5860381 2.1367188 4.9648438 C 1.9819243 5.542559 2 6.07003 2 7 L 2 17 C 2 17.93 1.9819229 18.457437 2.1367188 19.035156 C 2.5061791 20.413907 3.5859962 21.49382 4.9648438 21.863281 C 5.5425283 22.018037 6.07003 22 7 22 A 1 1 0 0 0 8 21 A 1 1 0 0 0 7 20 C 6.07003 20 5.6677373 19.981285 5.4824219 19.931641 C 4.7907294 19.746302 4.2536989 19.209227 4.0683594 18.517578 C 4.0187149 18.332298 4 17.93 4 17 L 4 7 C 4 6.07003 4.0187137 5.6677066 4.0683594 5.4824219 C 4.2537159 4.7906875 4.7907019 4.2537053 5.4824219 4.0683594 C 5.6677066 4.0187137 6.07003 4 7 4 A 1 1 0 0 0 8 3 A 1 1 0 0 0 7 2 z M 16.480469 6.5 A 1 1 0 0 0 16.349609 6.5117188 A 1 1 0 0 0 15.695312 6.90625 A 1 1 0 0 0 15.90625 8.3046875 C 15.90625 8.3046875 17.006571 9.1166218 18.09375 10.060547 C 18.458999 10.377668 18.758926 10.688455 19.070312 11 L 8 11 A 1 1 0 0 0 7 12 A 1 1 0 0 0 8 13 L 19.070312 13 C 18.758931 13.311547 18.458992 13.622327 18.09375 13.939453 C 17.006592 14.883393 15.90625 15.695312 15.90625 15.695312 A 1 1 0 0 0 15.695312 17.09375 A 1 1 0 0 0 17.09375 17.304688 C 17.09375 17.304688 18.243458 16.458829 19.40625 15.449219 C 19.987646 14.944414 20.574012 14.400412 21.046875 13.865234 C 21.519738 13.330057 22 12.92892 22 12 C 22 11.071094 21.519752 10.669952 21.046875 10.134766 C 20.573998 9.5995789 19.987661 9.0555811 19.40625 8.5507812 C 18.243429 7.5411812 17.09375 6.6953125 17.09375 6.6953125 A 1 1 0 0 0 16.480469 6.5 z " fill="currentColor"/>
</svg>
