<svg xmlns="http://www.w3.org/2000/svg" width="1em" height="1em" viewBox="0 0 24 24" fill="currentColor">
  <path d="M 11 1 C 9.35009 1 8.0917716 0.99334812 7.0253906 1.1367188 C 5.9590097 1.2800894 5.0206025 1.6161231 4.3183594 2.3183594 C 3.6161274 3.0205982 3.2800936 3.9590087 3.1367188 5.0253906 C 2.9933439 6.0917725 3 7.350088 3 9 L 3 15 C 3 16.6499 2.99335 17.908213 3.1367188 18.974609 C 3.2800904 20.041005 3.6160985 20.9794 4.3183594 21.681641 C 5.0206014 22.383869 5.9590094 22.719914 7.0253906 22.863281 C 8.0917719 23.006649 9.350085 23 11 23 L 14 23 C 14.4644 23 14.721018 23.004496 15.003906 22.972656 C 17.084669 22.73824 18.738246 21.084745 18.972656 19.003906 C 19.004522 18.721026 19 18.4644 19 18 A 1 1 0 0 0 18 17 A 1 1 0 0 0 17 18 C 17 18.4644 16.996505 18.671573 16.984375 18.779297 C 16.853185 19.943858 15.943735 20.853191 14.779297 20.984375 C 14.67139 20.996525 14.4644 21 14 21 L 11 21 C 9.350085 21 8.132785 20.993767 7.2929688 20.880859 C 6.4531525 20.767952 6.0552999 20.59045 5.7324219 20.267578 C 5.4095527 19.944718 5.2320515 19.54686 5.1191406 18.707031 C 5.0062298 17.867202 5 16.6499 5 15 L 5 9 C 5 7.350092 5.0062279 6.132782 5.1191406 5.2929688 C 5.2320533 4.4531556 5.4095438 4.0553031 5.7324219 3.7324219 C 6.0553088 3.4095381 6.4531573 3.2320499 7.2929688 3.1191406 C 8.1327804 3.0062313 9.35009 3 11 3 L 14 3 C 14.4644 3 14.671424 3.00347 14.779297 3.015625 C 15.943767 3.146827 16.853186 4.0561569 16.984375 5.2207031 C 16.996508 5.3284152 17 5.53565 17 6 A 1 1 0 0 0 18 7 A 1 1 0 0 0 19 6 C 19 5.53565 19.004523 5.2790017 18.972656 4.9960938 C 18.738245 2.91526 17.084636 1.2617818 15.003906 1.0273438 C 14.720979 0.99547471 14.4644 1 14 1 L 11 1 z M 15.292969 6.4628906 C 15.118408 6.4680864 14.941985 6.5005204 14.765625 6.5683594 C 14.722585 6.5848844 14.682105 6.6028057 14.642578 6.6210938 A 1.0001 1.0001 0 0 0 14.640625 6.6210938 C 14.299941 6.779261 14.013182 7.0783405 13.853516 7.3808594 C 13.693849 7.6833783 13.626809 7.983221 13.582031 8.2910156 C 13.532981 8.6281757 13.544919 9.0969387 13.537109 9.5019531 L 9.5 9.5019531 C 9.03406 9.5019531 8.6941649 9.4619431 8.234375 9.6523438 C 7.7446379 9.8552102 7.3551869 10.246658 7.1523438 10.736328 C 6.9619579 11.196035 7 11.535953 7 12.001953 C 7 12.467853 6.961909 12.805799 7.1523438 13.265625 C 7.355187 13.755295 7.7446379 14.146743 8.234375 14.349609 C 8.6941649 14.54001 9.03406 14.501953 9.5 14.501953 L 13.539062 14.501953 C 13.548063 14.885375 13.536768 15.331042 13.585938 15.654297 C 13.631897 15.956175 13.701129 16.249531 13.861328 16.546875 C 14.021527 16.844219 14.305488 17.137406 14.640625 17.292969 C 14.682755 17.312599 14.723215 17.330063 14.763672 17.345703 A 1.0001 1.0001 0 0 0 14.765625 17.345703 C 15.471064 17.616998 16.188618 17.323633 16.712891 16.970703 C 17.237163 16.617772 17.761631 16.138978 18.457031 15.517578 C 19.19232 14.860485 19.763525 14.353961 20.207031 13.828125 C 20.650495 13.302293 20.992493 12.673204 21 11.966797 A 1.0001 1.0001 0 0 0 21 11.947266 C 20.9925 11.240858 20.650545 10.611764 20.207031 10.085938 C 19.763518 9.5601091 19.192325 9.053527 18.457031 8.3964844 C 17.761632 7.7750698 17.237171 7.2962984 16.712891 6.9433594 C 16.450751 6.7668899 16.139465 6.6049796 15.806641 6.5214844 C 15.640228 6.4797374 15.46753 6.4576949 15.292969 6.4628906 z M 15.566406 8.5566406 C 15.568399 8.5578837 15.571045 8.5596436 15.572266 8.5605469 L 15.574219 8.5625 L 15.574219 8.5644531 L 15.572266 8.5644531 L 15.570312 8.5644531 C 15.568486 8.5645445 15.566378 8.566216 15.564453 8.5664062 L 15.564453 8.5644531 L 15.564453 8.5625 C 15.564842 8.561113 15.565969 8.5591732 15.566406 8.5566406 z M 15.560547 8.5742188 C 15.565092 8.5795035 15.575922 8.5882471 15.595703 8.6015625 C 15.911723 8.8143035 16.4296 9.2672564 17.125 9.8886719 C 17.856606 10.542419 18.385523 11.028555 18.677734 11.375 C 18.965011 11.715595 18.991889 11.837264 18.994141 11.957031 C 18.991841 12.076799 18.965021 12.198447 18.677734 12.539062 C 18.385515 12.885526 17.856612 13.371584 17.125 14.025391 C 16.4296 14.646791 15.911731 15.099756 15.595703 15.3125 C 15.576636 15.325336 15.566035 15.334183 15.560547 15.339844 C 15.51101 14.998922 15.500099 14.360718 15.5 13.5 A 1.0001 1.0001 0 0 0 14.5 12.501953 L 9.5 12.501953 C 9.2394649 12.501953 9.0849489 12.49018 9.015625 12.486328 C 9.0117747 12.417009 9 12.262491 9 12.001953 C 9 11.740557 9.0119403 11.586261 9.015625 11.517578 C 9.0848287 11.513741 9.2391545 11.501953 9.5 11.501953 L 14.5 11.501953 A 1.0001 1.0001 0 0 0 15.5 10.501953 C 15.5 9.5983751 15.509097 8.9319157 15.560547 8.578125 C 15.560742 8.5767778 15.560361 8.5752387 15.560547 8.5742188 z M 15.5625 15.351562 C 15.564426 15.351732 15.568531 15.351471 15.570312 15.351562 L 15.572266 15.351562 L 15.572266 15.353516 L 15.570312 15.355469 L 15.568359 15.355469 C 15.567478 15.356121 15.565741 15.356592 15.564453 15.357422 L 15.5625 15.355469 L 15.5625 15.353516 L 15.5625 15.351562 z " fill="currentColor"/>
</svg>
