<svg xmlns="http://www.w3.org/2000/svg" width="1em" height="1em" viewBox="0 0 24 24" fill="currentColor">
  <path d="M 12 1 C 5.9367104 1 1 5.9367104 1 12 C 1 18.063244 5.9367044 23 12 23 C 14.724337 23 17.228534 22.004718 19.150391 20.359375 A 1 1 0 0 0 19.259766 18.949219 A 1 1 0 0 0 17.849609 18.839844 C 16.275466 20.187501 14.238663 21 12 21 C 7.0175956 21 3 16.982356 3 12 C 3 7.0175896 7.0175896 3 12 3 C 14.238663 3 16.275467 3.8124905 17.849609 5.1601562 A 1 1 0 0 0 19.259766 5.0507812 A 1 1 0 0 0 19.150391 3.640625 C 17.228533 1.9952708 14.724337 1 12 1 z M 17.980469 7 A 1 1 0 0 0 17.849609 7.0117188 A 1 1 0 0 0 17.195312 7.40625 A 1 1 0 0 0 17.40625 8.8046875 C 17.40625 8.8046875 18.381565 9.5239581 19.34375 10.359375 C 19.593828 10.576506 19.783037 10.782113 20.009766 11 L 9 11 A 1 1 0 0 0 8 12 A 1 1 0 0 0 9 13 L 20.009766 13 C 19.783039 13.217885 19.593827 13.423499 19.34375 13.640625 C 18.38157 14.476026 17.40625 15.195311 17.40625 15.195312 A 1 1 0 0 0 17.195312 16.59375 A 1 1 0 0 0 18.59375 16.804688 C 18.59375 16.804688 19.61843 16.051465 20.65625 15.150391 C 21.17516 14.699854 21.698999 14.214553 22.125 13.732422 C 22.551001 13.25029 23 12.895976 23 12 C 23 11.103989 22.550997 10.7497 22.125 10.267578 C 21.699003 9.7854565 21.175158 9.3001509 20.65625 8.8496094 C 19.618435 7.9485262 18.59375 7.1953125 18.59375 7.1953125 A 1 1 0 0 0 17.980469 7 z " fill="currentColor"/>
</svg>
