<svg xmlns="http://www.w3.org/2000/svg" width="1em" height="1em" viewBox="0 0 24 24" fill="currentColor">
  <path d="M 12 1 C 8.1953515 1 5.0871841 4.0672241 5.0078125 7.8535156 A 1 1 0 0 0 5.0019531 7.9628906 C 5.0018866 7.9754151 5 7.9874604 5 8 C 5 8.0072497 5.0019309 8.0142397 5.0019531 8.0214844 C 5.0127156 11.526571 7.6232024 14.440741 11 14.927734 L 11 22 A 1 1 0 0 0 12 23 A 1 1 0 0 0 13 22 L 13 14.927734 C 16.383777 14.439734 19 11.514769 19 8 C 19 7.9835114 18.998162 7.9676344 18.998047 7.9511719 A 1 1 0 0 0 18.990234 7.8183594 C 18.892237 4.0484021 15.792768 1 12 1 z M 12 3 C 14.393506 3 16.379765 4.6593555 16.878906 6.8964844 C 16.007448 6.985176 15.327245 7.3149937 14.867188 7.5859375 C 14.532564 7.7830081 14.294002 7.923888 14.158203 7.9707031 C 14.022404 8.0175182 14.011277 8.0274831 13.835938 7.9648438 C 13.41 7.8126788 13.121003 7.468154 12.685547 6.9023438 C 12.250091 6.3365335 11.668378 5.5496233 10.619141 5.1796875 C 10.130712 5.0074744 9.6251273 4.961263 9.1230469 5.0097656 C 8.6562213 5.0548626 8.1925568 5.1825482 7.7460938 5.3632812 C 8.6252953 3.9422896 10.196749 3 12 3 z M 9.4980469 7.0058594 C 9.6812041 7.0037234 9.8373088 7.0255711 9.953125 7.0664062 C 10.379088 7.2165906 10.666894 7.5582596 11.101562 8.1230469 C 11.536231 8.6878341 12.117098 9.4755843 13.164062 9.8496094 C 13.738722 10.054905 14.352596 10.019201 14.810547 9.8613281 C 15.268498 9.7034548 15.592434 9.4796069 15.882812 9.3085938 C 16.246385 9.0944735 16.525592 8.9240773 16.925781 8.8710938 C 16.517085 11.225579 14.476232 13 12 13 C 9.3240323 13 7.1565854 10.926029 7.0078125 8.2890625 C 7.3820002 7.8432994 7.9024144 7.4675852 8.4277344 7.2441406 C 8.8134089 7.0800941 9.1927848 7.0094193 9.4980469 7.0058594 z " fill="currentColor"/>
</svg>
