<svg xmlns="http://www.w3.org/2000/svg" width="1em" height="1em" viewBox="0 0 24 24" fill="currentColor">
  <path d="M 9 1 A 1 1 0 0 0 8 2 A 1 1 0 0 0 9 3 L 9 7.0234375 C 8.6896789 7.0380991 8.3996699 7.0624185 8.1230469 7.0996094 C 7.3289773 7.2063688 6.5811884 7.4696004 6.0253906 8.0253906 C 5.4695972 8.5811917 5.2063686 9.3289755 5.0996094 10.123047 C 4.9928501 10.917118 5 11.8215 5 13 L 5 15.5 C 5 16.6785 4.9928504 17.582883 5.0996094 18.376953 C 5.2063685 19.171023 5.4696253 19.918791 6.0253906 20.474609 C 6.4328737 20.882071 6.9435499 21.132692 7.5 21.279297 L 7.5 22 A 1.0001 1.0001 0 0 0 8.5 23 L 9 23 A 1.0001 1.0001 0 0 0 10 22 L 10 21.498047 C 10.311218 21.5001 10.643034 21.5 11 21.5 L 13 21.5 C 13.356965 21.5 13.688781 21.500104 14 21.498047 L 14 22 A 1.0001 1.0001 0 0 0 15 23 L 15.5 23 A 1.0001 1.0001 0 0 0 16.5 22 L 16.5 21.279297 C 17.056444 21.132686 17.567112 20.882051 17.974609 20.474609 C 18.530356 19.918787 18.793636 19.171019 18.900391 18.376953 C 19.007145 17.582888 19 16.6785 19 15.5 L 19 13 C 19 11.8215 19.007101 10.917114 18.900391 10.123047 C 18.793637 9.3289799 18.530384 8.5811955 17.974609 8.0253906 C 17.418791 7.4696253 16.671023 7.2063685 15.876953 7.0996094 C 15.600331 7.0624188 15.310321 7.0380991 15 7.0234375 L 15 3 A 1 1 0 0 0 16 2 A 1 1 0 0 0 15 1 L 9 1 z M 11 3 L 13 3 L 13 7 L 11 7 L 11 3 z M 11 9 L 13 9 C 14.1785 9 15.04187 9.0057302 15.609375 9.0820312 C 16.17688 9.1583292 16.384065 9.2629884 16.560547 9.4394531 C 16.736972 9.6158882 16.841673 9.8231169 16.917969 10.390625 C 16.994264 10.958133 17 11.8215 17 13 L 17 15.5 C 17 16.6785 16.994299 17.541866 16.917969 18.109375 C 16.841669 18.676884 16.737 18.884069 16.560547 19.060547 C 16.384068 19.237 16.176884 19.341673 15.609375 19.417969 C 15.041866 19.494265 14.1785 19.5 13 19.5 L 11 19.5 C 9.82149 19.5 8.9581298 19.494299 8.390625 19.417969 C 7.8231202 19.341672 7.6158914 19.236976 7.4394531 19.060547 C 7.2629884 18.884065 7.1583296 18.67688 7.0820312 18.109375 C 7.0057329 17.54187 7 16.6785 7 15.5 L 7 13 C 7 11.8215 7.005733 10.958129 7.0820312 10.390625 C 7.1583295 9.8231213 7.2630166 9.6158921 7.4394531 9.4394531 C 7.6158953 9.2630134 7.8231246 9.1583293 8.390625 9.0820312 C 8.9581254 9.005733 9.82149 9 11 9 z M 10 10 A 1 1 0 0 0 9 11 L 9 17.5 A 1 1 0 0 0 10 18.5 A 1 1 0 0 0 11 17.5 L 11 11 A 1 1 0 0 0 10 10 z M 14 10 A 1 1 0 0 0 13 11 L 13 17.5 A 1 1 0 0 0 14 18.5 A 1 1 0 0 0 15 17.5 L 15 11 A 1 1 0 0 0 14 10 z " fill="currentColor"/>
</svg>
