<svg xmlns="http://www.w3.org/2000/svg" width="1em" height="1em" viewBox="0 0 24 24" fill="currentColor">
  <path d="M 9.0742188 1.0371094 C 7.4999737 1.0766594 6.2934556 1.1004603 5.2441406 1.2832031 C 4.1948256 1.465946 3.2622831 1.8560475 2.5371094 2.5839844 C 1.8161533 3.3076812 1.4251744 4.2304804 1.2460938 5.2617188 C 1.0670133 6.2929571 1.0502681 7.4711423 1.0175781 9.0039062 C 0.99625692 10.003754 0.99625712 10.996279 1.0175781 11.996094 C 1.0502631 13.528895 1.0670122 14.707042 1.2460938 15.738281 C 1.425176 16.769521 1.8161762 17.692297 2.5371094 18.416016 C 3.2622867 19.143937 4.1948309 19.534075 5.2441406 19.716797 C 6.2934504 19.899519 7.499974 19.923341 9.0742188 19.962891 C 9.8838801 19.983261 10.69027 19.994517 11.496094 19.998047 A 1 1 0 0 0 12.5 19.003906 A 1 1 0 0 0 11.505859 17.998047 C 10.713883 17.994577 9.9208585 17.982917 9.125 17.962891 C 7.5507447 17.92334 6.3956109 17.8887 5.5878906 17.748047 C 4.7801704 17.607394 4.3610208 17.411385 3.9550781 17.003906 C 3.5448813 16.592125 3.3531847 16.179917 3.2167969 15.394531 C 3.080409 14.609146 3.04831 13.487877 3.015625 11.955078 C 2.994906 10.983493 2.994906 10.016514 3.015625 9.0449219 C 3.048315 7.5121558 3.0804099 6.3908555 3.2167969 5.6054688 C 3.3531838 4.8200821 3.5449042 4.4078269 3.9550781 3.9960938 C 4.3610344 3.5885906 4.7801756 3.3926203 5.5878906 3.2519531 C 6.3956056 3.111286 7.550755 3.0766594 9.125 3.0371094 C 11.048912 2.9887754 12.953024 2.9887654 14.876953 3.0371094 C 16.451204 3.0766644 17.606348 3.1112854 18.414062 3.2519531 C 19.221778 3.3926206 19.640874 3.5885746 20.046875 3.9960938 C 20.457038 4.407827 20.648777 4.8200854 20.785156 5.6054688 C 20.921535 6.3908521 20.951725 7.5121623 20.984375 9.0449219 C 20.991275 9.3657409 20.99763 9.6874734 21 10.007812 A 1 1 0 0 0 22.005859 11 A 1 1 0 0 0 23 9.9921875 C 22.9976 9.6634756 22.991505 9.3338321 22.984375 9.0039062 L 22.984375 9.0019531 C 22.951762 7.4703468 22.934837 6.2924242 22.755859 5.2617188 C 22.576788 4.2304771 22.185781 3.3076811 21.464844 2.5839844 C 20.739645 1.8560735 19.807123 1.4659457 18.757812 1.2832031 C 17.708502 1.1004606 16.501984 1.0766644 14.927734 1.0371094 C 12.970663 0.98793297 11.031267 0.98794308 9.0742188 1.0371094 z M 7.0117188 6 A 1 1 0 0 0 6.7519531 6.03125 A 1 1 0 0 0 6.140625 6.4902344 A 1 1 0 0 0 6.4921875 7.8613281 L 9.4335938 9.5996094 C 10.341431 10.136363 11.118204 10.5 12 10.5 C 12.881796 10.5 13.660513 10.136362 14.568359 9.5996094 L 17.509766 7.8613281 A 1 1 0 0 0 17.861328 6.4902344 A 1 1 0 0 0 16.492188 6.1386719 L 13.550781 7.8789062 C 12.743428 8.3562435 12.318599 8.5 12 8.5 C 11.681401 8.5 11.258514 8.3562429 10.451172 7.8789062 L 7.5097656 6.1386719 A 1 1 0 0 0 7.0117188 6 z M 17.972656 10.996094 C 16.42835 10.996094 15.160156 12.274387 15.160156 13.818359 L 15.160156 15.296875 C 15.160156 16.840847 16.42835 18.119141 17.972656 18.119141 C 19.516963 18.119141 20.785156 16.840847 20.785156 15.296875 L 20.785156 13.818359 C 20.785156 12.274387 19.516963 10.996094 17.972656 10.996094 z M 17.972656 12.996094 C 18.43115 12.996094 18.785156 13.350332 18.785156 13.818359 L 18.785156 15.296875 C 18.785156 15.764903 18.43115 16.119141 17.972656 16.119141 C 17.514163 16.119141 17.160156 15.764903 17.160156 15.296875 L 17.160156 13.818359 C 17.160156 13.350332 17.514163 12.996094 17.972656 12.996094 z M 14.480469 16.96875 A 1 1 0 0 0 13.980469 17.107422 A 1 1 0 0 0 13.625 18.474609 C 14.249033 19.537495 15.485062 20.360208 16.994141 20.691406 L 16.994141 22 A 1 1 0 0 0 17.994141 23 A 1 1 0 0 0 18.994141 22 L 18.994141 20.6875 C 20.494898 20.352742 21.727254 19.534812 22.349609 18.474609 A 1 1 0 0 0 21.994141 17.107422 A 1 1 0 0 0 20.625 17.462891 C 20.175719 18.228256 19.263369 18.974609 17.984375 18.974609 C 16.705257 18.974609 15.800169 18.230308 15.349609 17.462891 A 1 1 0 0 0 14.480469 16.96875 z " fill="currentColor"/>
</svg>
