<svg xmlns="http://www.w3.org/2000/svg" width="1em" height="1em" viewBox="0 0 24 24" fill="currentColor">
  <path d="M 9.0742188 2.0371094 C 7.4999737 2.0766594 6.2934556 2.1004603 5.2441406 2.2832031 C 4.1948256 2.465946 3.2622831 2.8560475 2.5371094 3.5839844 C 1.8161533 4.3076812 1.4251742 5.230478 1.2460938 6.2617188 C 1.0670133 7.2929595 1.048315 8.4711326 1.015625 10.003906 C 0.9943037 11.003735 0.994304 11.996279 1.015625 12.996094 C 1.04831 14.528895 1.067012 15.707042 1.2460938 16.738281 C 1.425176 17.769521 1.8161762 18.692297 2.5371094 19.416016 C 3.2622867 20.143937 4.1948309 20.534075 5.2441406 20.716797 C 6.2934504 20.899519 7.499974 20.923341 9.0742188 20.962891 C 10.384092 20.995811 11.199219 21.007474 12.507812 20.996094 A 1 1 0 0 0 13.5 19.986328 A 1 1 0 0 0 12.492188 18.996094 C 11.20178 19.007314 10.423514 18.995569 9.1230469 18.962891 C 7.5487916 18.923337 6.3956109 18.8887 5.5878906 18.748047 C 4.7801704 18.607394 4.3590677 18.411385 3.953125 18.003906 C 3.5429282 17.592125 3.3531847 17.179917 3.2167969 16.394531 C 3.080409 15.609146 3.04831 14.487877 3.015625 12.955078 C 2.994906 11.983493 2.994906 11.016493 3.015625 10.044922 C 3.048315 8.5121457 3.0804098 7.390858 3.2167969 6.6054688 C 3.3531839 5.8200795 3.5429511 5.4078269 3.953125 4.9960938 C 4.3590813 4.5885907 4.7801756 4.3926203 5.5878906 4.2519531 C 6.3956056 4.111286 7.5488019 4.0766594 9.1230469 4.0371094 C 11.046959 3.9887754 12.953024 3.9887654 14.876953 4.0371094 C 16.451204 4.0766644 17.604395 4.1112854 18.412109 4.2519531 C 19.219824 4.3926206 19.640874 4.5885746 20.046875 4.9960938 C 20.457038 5.4078272 20.646824 5.8200841 20.783203 6.6054688 C 20.919582 7.3908534 20.951725 8.5121572 20.984375 10.044922 C 20.998505 10.706274 21.002807 10.839808 20.998047 11.492188 A 1 1 0 0 0 21.990234 12.5 A 1 1 0 0 0 22.998047 11.507812 C 23.002847 10.843592 22.998444 10.662554 22.984375 10.003906 C 22.951723 8.471131 22.932977 7.2929616 22.753906 6.2617188 C 22.574835 5.2304759 22.183827 4.3076811 21.462891 3.5839844 C 20.737692 2.8560735 19.80517 2.4659457 18.755859 2.2832031 C 17.706549 2.1004606 16.500031 2.0766644 14.925781 2.0371094 C 12.96871 1.9879334 11.031267 1.9879434 9.0742188 2.0371094 z M 16.988281 6.9980469 A 1 1 0 0 0 16.490234 7.1386719 L 13.548828 8.8789062 C 12.741475 9.3562341 12.318604 9.5 12 9.5 C 11.681396 9.5 11.258515 9.3562335 10.451172 8.8789062 L 7.5097656 7.1386719 A 1 1 0 0 0 6.7519531 7.03125 A 1 1 0 0 0 6.1386719 7.4902344 A 1 1 0 0 0 6.4902344 8.8613281 L 9.4335938 10.599609 C 10.341431 11.136352 11.118209 11.5 12 11.5 C 12.881791 11.5 13.65856 11.136351 14.566406 10.599609 L 17.509766 8.8613281 A 1 1 0 0 0 17.861328 7.4902344 A 1 1 0 0 0 16.988281 6.9980469 z M 18.5 13 C 17.279689 13 16.162065 13.490958 15.351562 14.285156 L 15.351562 14.287109 L 15.349609 14.287109 L 15.349609 14.289062 L 15.349609 14.291016 L 15.347656 14.291016 L 15.347656 14.292969 L 15.345703 14.292969 A 1 1 0 0 0 15.34375 14.292969 A 1 1 0 0 0 15.339844 14.302734 C 14.516366 15.11741 14 16.254465 14 17.5 C 14 19.973438 16.026562 22 18.5 22 C 19.748057 22 20.888096 21.48274 21.703125 20.65625 A 1 1 0 0 0 21.707031 20.65625 A 1 1 0 0 0 21.707031 20.654297 L 21.708984 20.652344 L 21.710938 20.650391 L 21.712891 20.650391 L 21.714844 20.648438 C 22.509061 19.838021 23 18.720311 23 17.5 C 23 15.026562 20.973438 13 18.5 13 z M 18.5 15 C 19.892562 15 21 16.107438 21 17.5 C 21 17.788442 20.787465 17.978996 20.699219 18.234375 L 17.765625 15.300781 C 18.021004 15.212535 18.211558 15 18.5 15 z M 16.335938 16.699219 L 19.300781 19.664062 C 19.024766 19.769429 18.816401 20 18.5 20 C 17.107438 20 16 18.892562 16 17.5 C 16 17.183599 16.230572 16.975234 16.335938 16.699219 z " fill="currentColor"/>
</svg>
