<svg xmlns="http://www.w3.org/2000/svg" width="1em" height="1em" viewBox="0 0 24 24" fill="currentColor">
  <path d="M 9.0449219 1.5371094 C 7.4770164 1.5768144 6.2749687 1.5995031 5.2285156 1.7832031 C 4.1820626 1.9669031 3.2515427 2.3610115 2.5292969 3.0917969 C 2.2533917 3.3709618 2.0252867 3.6790119 1.8398438 4.0117188 A 1 1 0 0 0 1.734375 4.0351562 A 1 1 0 0 0 1.1308594 4.5058594 A 1 1 0 0 0 1.2617188 5.6757812 C 1.2553536 5.7097767 1.250039 5.7431064 1.2441406 5.7773438 C 1.0660187 6.8112568 1.048185 7.9924722 1.015625 9.53125 C 0.9943884 10.534888 0.9943886 11.531551 1.015625 12.535156 C 1.04818 14.073956 1.066017 15.255151 1.2441406 16.289062 C 1.422264 17.322975 1.8112791 18.248038 2.5292969 18.974609 C 3.2515457 19.705346 4.182071 20.099522 5.2285156 20.283203 C 6.2749603 20.466885 7.4770119 20.489597 9.0449219 20.529297 C 10.019684 20.554007 10.988926 20.566406 11.958984 20.566406 A 1 1 0 0 0 12.958984 19.566406 A 1 1 0 0 0 11.958984 18.566406 C 11.005843 18.566406 10.053681 18.553587 9.0957031 18.529297 C 7.5277931 18.489597 6.3773242 18.453467 5.5742188 18.3125 C 4.7711134 18.171532 4.3554831 17.977422 3.9511719 17.568359 C 3.5426096 17.15493 3.3509177 16.739057 3.2148438 15.949219 C 3.0787696 15.159381 3.04818 14.032941 3.015625 12.494141 C 2.994981 11.518546 2.994982 10.547868 3.015625 9.5722656 C 3.0398531 8.4272481 3.0625894 7.510621 3.1289062 6.7910156 L 8.4199219 9.7949219 C 9.7380836 10.543245 10.825915 11 12 11 C 13.174085 11 14.261912 10.543245 15.580078 9.7949219 L 20.794922 6.8339844 C 20.858262 7.546966 20.880595 8.4500684 20.904297 9.5722656 C 20.914647 10.059876 20.919922 10.546931 20.919922 11.033203 A 1 1 0 0 0 21.919922 12.033203 A 1 1 0 0 0 22.919922 11.033203 C 22.919922 10.532876 22.914927 10.03306 22.904297 9.53125 C 22.871797 7.9924592 22.853892 6.8112591 22.675781 5.7773438 C 22.673768 5.7656587 22.671989 5.7538446 22.669922 5.7421875 A 1 1 0 0 0 22.869141 4.5058594 A 1 1 0 0 0 22.074219 4.0039062 C 21.889707 3.6746742 21.663993 3.3684139 21.390625 3.0917969 C 20.668334 2.3610568 19.737857 1.9669027 18.691406 1.7832031 C 17.644956 1.5995035 16.44295 1.5768194 14.875 1.5371094 C 12.925598 1.4877364 10.994301 1.4877464 9.0449219 1.5371094 z M 9.0957031 3.5371094 C 11.011684 3.4885924 12.908221 3.4885824 14.824219 3.5371094 C 16.392168 3.5768194 17.542604 3.6129264 18.345703 3.7539062 C 19.148802 3.8948865 19.564341 4.0889069 19.96875 4.4980469 C 20.079039 4.6096465 20.173998 4.7205598 20.255859 4.8398438 L 14.59375 8.0546875 C 13.386216 8.7402044 12.650063 9 12 9 C 11.349937 9 10.613778 8.7402041 9.40625 8.0546875 L 3.6875 4.8085938 C 3.7639996 4.701406 3.85096 4.5994427 3.9511719 4.4980469 C 4.355496 4.0889422 4.7711218 3.8948861 5.5742188 3.7539062 C 6.3773158 3.6129263 7.5277986 3.5768144 9.0957031 3.5371094 z M 17.484375 12.591797 A 1 1 0 0 0 16.767578 12.863281 L 14.470703 15.017578 A 1.0001 1.0001 0 0 0 14.447266 15.039062 C 13.872455 15.614465 13.868149 16.571701 14.4375 17.152344 A 1.0001 1.0001 0 0 0 14.462891 17.175781 L 16.761719 19.365234 A 1 1 0 0 0 18.175781 19.330078 A 1 1 0 0 0 18.140625 17.916016 L 17.363281 17.175781 C 18.511251 17.259341 19.440559 17.461154 19.761719 17.691406 C 20.47523 18.202993 20.644452 18.46725 20.78125 18.955078 C 20.918048 19.442906 20.943025 20.265473 21.001953 21.546875 A 1 1 0 0 0 22.046875 22.5 A 1 1 0 0 0 23 21.455078 C 22.942828 20.21188 22.958583 19.31111 22.707031 18.414062 C 22.455479 17.517015 21.85537 16.73292 20.925781 16.066406 C 20.070816 15.453448 18.757865 15.213668 17.234375 15.167969 L 18.136719 14.322266 A 1 1 0 0 0 18.181641 12.908203 A 1 1 0 0 0 17.484375 12.591797 z " fill="currentColor"/>
</svg>
