<svg xmlns="http://www.w3.org/2000/svg" width="1em" height="1em" viewBox="0 0 24 24" fill="currentColor">
  <path d="M 9.0742188 1.5371094 C 7.4999737 1.5766594 6.2934556 1.6004603 5.2441406 1.7832031 C 4.1948256 1.965946 3.2622831 2.3560475 2.5371094 3.0839844 C 2.2569964 3.3651622 2.0272584 3.6757472 1.8398438 4.0117188 A 1 1 0 0 0 1.734375 4.0351562 A 1 1 0 0 0 1.1308594 4.5058594 A 1 1 0 0 0 1.2617188 5.6738281 C 1.2562961 5.7028994 1.2511728 5.732471 1.2460938 5.7617188 C 1.0670133 6.7929571 1.048315 7.9711423 1.015625 9.5039062 C 0.9943037 10.503754 0.994304 11.496279 1.015625 12.496094 C 1.04831 14.028895 1.067012 15.207042 1.2460938 16.238281 C 1.425176 17.269521 1.8161762 18.192297 2.5371094 18.916016 C 3.2622867 19.643937 4.1948309 20.034075 5.2441406 20.216797 C 6.2934504 20.399519 7.499974 20.423341 9.0742188 20.462891 C 10.069446 20.487918 11.994141 20.5 11.994141 20.5 A 1 1 0 0 0 13 19.505859 A 1 1 0 0 0 12.005859 18.5 C 12.005859 18.5 10.068359 18.486661 9.1230469 18.462891 C 7.5487916 18.423341 6.3956109 18.3887 5.5878906 18.248047 C 4.7801704 18.107394 4.3590677 17.911385 3.953125 17.503906 C 3.5429282 17.092125 3.3531847 16.679917 3.2167969 15.894531 C 3.080409 15.109146 3.04831 13.987877 3.015625 12.455078 C 2.994906 11.483493 2.994906 10.516514 3.015625 9.5449219 C 3.0397765 8.4125064 3.0631071 7.5047154 3.1289062 6.7910156 L 8.4199219 9.7949219 C 9.738079 10.543251 10.825914 11 12 11 C 13.174086 11 14.261912 10.54325 15.580078 9.7949219 L 20.871094 6.7910156 C 20.936901 7.5047166 20.960253 8.4125108 20.984375 9.5449219 C 20.994726 10.030743 21 10.51579 21 11 A 1 1 0 0 0 22 12 A 1 1 0 0 0 23 11 C 23 10.50141 22.995005 10.003705 22.984375 9.5039062 C 22.95173 7.9711357 22.932977 6.7929604 22.753906 5.7617188 C 22.748827 5.7324709 22.743704 5.7028994 22.738281 5.6738281 A 1 1 0 0 0 22.869141 4.5058594 A 1 1 0 0 0 22.162109 4.0136719 C 21.97459 3.6773089 21.74328 3.3654479 21.462891 3.0839844 C 20.737692 2.3560735 19.80517 1.9659457 18.755859 1.7832031 C 17.706549 1.6004606 16.500031 1.5766644 14.925781 1.5371094 C 12.96871 1.4879334 11.031267 1.4879434 9.0742188 1.5371094 z M 9.1230469 3.5371094 C 11.046959 3.4887754 12.953024 3.4887654 14.876953 3.5371094 C 16.451204 3.5766644 17.604395 3.6112854 18.412109 3.7519531 C 19.219824 3.8926206 19.640874 4.0885746 20.046875 4.4960938 C 20.148436 4.598044 20.23738 4.7009224 20.314453 4.8085938 L 14.59375 8.0546875 C 13.386217 8.7402091 12.650059 9 12 9 C 11.349941 9 10.613773 8.7402085 9.40625 8.0546875 L 3.6855469 4.8085938 C 3.7626195 4.700923 3.8515612 4.5980437 3.953125 4.4960938 C 4.3590813 4.0885907 4.7801756 3.8926203 5.5878906 3.7519531 C 6.3956056 3.611286 7.5488019 3.5766594 9.1230469 3.5371094 z M 18.435547 12.501953 A 1.0001 1.0001 0 0 0 17.945312 12.667969 C 17.945312 12.667969 16.666667 13.5 15 13.5 A 1.0001 1.0001 0 0 0 14 14.5 L 14 17 C 14 19.083333 15.095754 20.534777 16.132812 21.349609 C 17.169873 22.164442 18.224609 22.460938 18.224609 22.460938 A 1.0001 1.0001 0 0 0 18.775391 22.460938 C 18.775391 22.460938 19.830129 22.164442 20.867188 21.349609 C 21.904248 20.534777 23 19.083333 23 17 L 23 14.5 A 1.0001 1.0001 0 0 0 22 13.5 C 20.333333 13.5 19.054688 12.667969 19.054688 12.667969 A 1.0001 1.0001 0 0 0 18.435547 12.501953 z M 18.5 14.613281 C 18.948721 14.863894 19.773381 15.103298 21 15.298828 L 21 17 C 21 18.416667 20.345753 19.215223 19.632812 19.775391 C 19.059103 20.226162 18.6974 20.32231 18.5 20.390625 C 18.3026 20.32231 17.940897 20.226162 17.367188 19.775391 C 16.654248 19.215223 16 18.416667 16 17 L 16 15.298828 C 17.226619 15.103298 18.051279 14.863894 18.5 14.613281 z " fill="currentColor"/>
</svg>
