<svg xmlns="http://www.w3.org/2000/svg" width="1em" height="1em" viewBox="0 0 24 24" fill="currentColor">
  <path d="M 12 1 C 8.3831328 1 5.3487024 3.5840233 4.6503906 7 L 4.5 7 A 1 1 0 0 0 3.5 8 A 1 1 0 0 0 4.5 9 L 4.5 18.441406 C 4.3686212 18.52608 4.2474186 18.623218 4.1386719 18.732422 C 3.6508213 19.222325 3.4498862 19.798082 3.2636719 20.376953 C 3.1670699 20.677211 3.080554 20.918252 3.0292969 21.216797 C 2.9780399 21.515341 2.9868909 21.988188 3.2480469 22.363281 C 3.5091947 22.738337 3.9732662 22.917015 4.2753906 22.962891 C 4.577515 23.008766 4.8251994 23 5.1308594 23 L 18.869141 23 C 19.174891 23 19.422466 23.008801 19.724609 22.962891 C 20.026753 22.917021 20.490807 22.738464 20.751953 22.363281 C 21.013101 21.988175 21.022038 21.515415 20.970703 21.216797 C 20.919373 20.918179 20.833028 20.677253 20.736328 20.376953 C 20.550031 19.798218 20.349142 19.222245 19.861328 18.732422 C 19.752588 18.623234 19.631384 18.526076 19.5 18.441406 L 19.5 9 A 1 1 0 0 0 20.5 8 A 1 1 0 0 0 19.5 7 L 19.349609 7 C 18.651304 3.5840291 15.616904 1 12 1 z M 12 3 C 14.528941 3 16.645879 4.6853829 17.294922 7 L 6.7050781 7 C 7.3541343 4.6853877 9.4711079 3 12 3 z M 6.5 9 L 17.5 9 L 17.5 18 L 6.5 18 L 6.5 9 z M 10.5 10 A 1 1 0 0 0 9.5 11 A 1 1 0 0 0 10.5 12 L 13.5 12 A 1 1 0 0 0 14.5 11 A 1 1 0 0 0 13.5 10 L 10.5 10 z M 6.1484375 20 L 17.851562 20 C 18.308139 20 18.362602 20.06148 18.445312 20.144531 C 18.528022 20.227581 18.673881 20.49287 18.833984 20.990234 C 18.834384 20.991509 18.835805 20.995334 18.835938 20.996094 C 18.836078 20.996853 18.835523 20.998725 18.835938 21 L 5.1640625 21 L 5.1640625 20.998047 L 5.1640625 20.996094 L 5.1660156 20.994141 C 5.1661489 20.993373 5.1656088 20.991509 5.1660156 20.990234 C 5.3260344 20.492805 5.4720131 20.227553 5.5546875 20.144531 C 5.6373619 20.061509 5.6917535 20 6.1484375 20 z " fill="currentColor"/>
</svg>
