<svg xmlns="http://www.w3.org/2000/svg" width="1em" height="1em" viewBox="0 0 24 24" fill="currentColor">
  <path d="M 9.0742188 2.5371094 C 7.4999737 2.5766594 6.2934556 2.6004603 5.2441406 2.7832031 C 4.1948256 2.965946 3.2622831 3.3560475 2.5371094 4.0839844 C 2.2565764 4.3655838 2.0254576 4.6771226 1.8378906 5.0136719 A 1 1 0 0 0 1.7324219 5.0371094 A 1 1 0 0 0 1.1308594 5.5078125 A 1 1 0 0 0 1.2617188 6.671875 C 1.256197 6.7014422 1.25126 6.7319688 1.2460938 6.7617188 C 1.0670133 7.7929595 1.048315 8.9711326 1.015625 10.503906 C 0.9943037 11.503735 0.994304 12.496279 1.015625 13.496094 C 1.04831 15.028895 1.067012 16.207042 1.2460938 17.238281 C 1.425176 18.269521 1.8161762 19.192297 2.5371094 19.916016 C 3.2622867 20.643937 4.1948309 21.034075 5.2441406 21.216797 C 6.2934504 21.399519 7.499974 21.423341 9.0742188 21.462891 C 11.031274 21.512111 12.968697 21.512111 14.925781 21.462891 C 16.500026 21.423341 17.706553 21.399521 18.755859 21.216797 C 19.805166 21.034075 20.737684 20.643915 21.462891 19.916016 C 22.183806 19.192296 22.574835 18.269523 22.753906 17.238281 C 22.932977 16.20704 22.951725 15.028899 22.984375 13.496094 C 23.005775 12.496218 23.005775 11.503782 22.984375 10.503906 C 22.951725 8.971131 22.932977 7.7929616 22.753906 6.7617188 C 22.74874 6.7319686 22.743803 6.7014424 22.738281 6.671875 A 1 1 0 0 0 22.869141 5.5078125 A 1 1 0 0 0 22.162109 5.015625 C 21.974438 4.6786843 21.7437 4.3658693 21.462891 4.0839844 C 20.737692 3.3560735 19.80517 2.9659457 18.755859 2.7832031 C 17.706549 2.6004606 16.500031 2.5766644 14.925781 2.5371094 C 12.96871 2.4879334 11.031267 2.4879434 9.0742188 2.5371094 z M 9.1230469 4.5371094 C 11.046959 4.4887754 12.953024 4.4887654 14.876953 4.5371094 C 16.451204 4.5766644 17.604395 4.6112854 18.412109 4.7519531 C 19.219824 4.8926206 19.640874 5.0885746 20.046875 5.4960938 C 20.14834 5.597947 20.23548 5.6990827 20.3125 5.8066406 L 14.59375 9.046875 C 13.372005 9.7391123 12.640807 10 12 10 C 11.359193 10 10.627984 9.7391118 9.40625 9.046875 L 3.6875 5.8066406 C 3.7645202 5.6990834 3.8516578 5.5979467 3.953125 5.4960938 C 4.3590813 5.0885907 4.7801756 4.8926203 5.5878906 4.7519531 C 6.3956056 4.611286 7.548802 4.5766594 9.1230469 4.5371094 z M 3.1289062 7.7890625 L 8.4199219 10.787109 C 9.7467677 11.538903 10.828112 12 12 12 C 13.171888 12 14.253223 11.538902 15.580078 10.787109 L 20.871094 7.7890625 C 20.93708 8.5031495 20.960224 9.4111587 20.984375 10.544922 C 21.005175 11.516446 21.005175 12.483554 20.984375 13.455078 C 20.951725 14.987872 20.919585 16.109148 20.783203 16.894531 C 20.646824 17.679915 20.45706 18.092126 20.046875 18.503906 C 19.640881 18.911407 19.219828 19.107394 18.412109 19.248047 C 17.604391 19.3887 16.451208 19.42334 14.876953 19.462891 C 12.953038 19.511271 11.046932 19.511271 9.1230469 19.462891 C 7.5487917 19.42334 6.3956109 19.3887 5.5878906 19.248047 C 4.7801704 19.107394 4.3590677 18.911385 3.953125 18.503906 C 3.5429282 18.092125 3.3531847 17.679917 3.2167969 16.894531 C 3.080409 16.109146 3.04831 14.987877 3.015625 13.455078 C 2.994906 12.483493 2.994906 11.516493 3.015625 10.544922 C 3.0398053 9.4111509 3.0629287 8.5031471 3.1289062 7.7890625 z " fill="currentColor"/>
</svg>
