<svg xmlns="http://www.w3.org/2000/svg" width="1em" height="1em" viewBox="0 0 24 24" fill="currentColor">
  <path d="M 15 2 C 11.145859 2 8 5.1458484 8 9 C 8 10.567963 8.5212433 12.018117 9.3984375 13.1875 L 4.0488281 18.537109 C 4.0229685 18.118401 4 17.703313 4 17 L 4 15 A 1 1 0 0 0 3 14 A 1 1 0 0 0 2 15 L 2 17 C 2 17.9428 1.9935802 18.670214 2.0820312 19.328125 C 2.1704863 19.986036 2.3963405 20.63852 2.8789062 21.121094 C 3.3614738 21.603678 4.0139596 21.829512 4.671875 21.917969 C 5.3297907 22.006425 6.05719 22 7 22 L 9 22 A 1 1 0 0 0 10 21 A 1 1 0 0 0 9 20 L 7 20 C 6.2966799 20 5.8816021 19.977032 5.4628906 19.951172 L 10.8125 14.601562 C 11.981883 15.478757 13.432037 16 15 16 C 18.854143 16 22 12.854143 22 9 C 22 5.1458484 18.854141 2 15 2 z M 15 4 C 17.773259 4 20 6.2267316 20 9 C 20 11.773257 17.773257 14 15 14 C 12.226743 14 10 11.773257 10 9 C 10 6.2267316 12.226741 4 15 4 z " fill="currentColor"/>
</svg>
