<svg xmlns="http://www.w3.org/2000/svg" width="1em" height="1em" viewBox="0 0 24 24" fill="currentColor">
  <path d="M 11.492188 1.5 C 9.7729215 1.5 8.2181814 2.0402299 7.1347656 3.1699219 C 6.0513498 4.2996138 5.5 5.9395844 5.5 7.9160156 C 5.5 11.423007 6.8108878 13.420932 8.5 14.896484 L 8.5 15.755859 L 5.4960938 16.660156 A 1.0001 1.0001 0 0 0 5.4921875 16.662109 C 3.7697256 17.189244 2.4817837 18.574739 2.0546875 20.265625 C 1.9043355 20.860921 2.1060865 21.491009 2.4746094 21.886719 C 2.8431365 22.282381 3.3558344 22.5 3.90625 22.5 L 20.09375 22.5 C 20.644165 22.5 21.156882 22.2824 21.525391 21.886719 C 21.893899 21.491037 22.09555 20.860905 21.945312 20.265625 C 21.51819 18.574732 20.230252 17.189245 18.507812 16.662109 A 1.0001 1.0001 0 0 0 18.503906 16.660156 L 15.5 15.757812 L 15.5 14.896484 C 17.189079 13.420938 18.5 11.423014 18.5 7.9160156 C 18.5 6.6954054 18.42155 5.4589131 17.859375 4.3769531 C 17.358945 3.4138255 16.291103 2.7672741 14.984375 2.6171875 C 14.832687 2.4777759 14.714089 2.3300324 14.275391 2.1074219 C 13.651791 1.7909862 12.722654 1.5 11.492188 1.5 z M 11.492188 3.5 C 12.412721 3.5 13.00739 3.7090138 13.369141 3.8925781 C 13.730891 4.0761425 13.792969 4.1660156 13.792969 4.1660156 A 1.0001 1.0001 0 0 0 14.539062 4.5 C 15.532867 4.5 15.800008 4.7522881 16.083984 5.2988281 C 16.36796 5.8453681 16.5 6.8170058 16.5 7.9160156 C 16.5 11.272337 15.533018 12.483804 13.882812 13.775391 A 1.0001 1.0001 0 0 0 13.5 14.5625 L 13.5 16.5 A 1.0001 1.0001 0 0 0 14.212891 17.457031 L 17.927734 18.576172 C 18.878428 18.868628 19.546254 19.612435 19.865234 20.5 L 4.1347656 20.5 C 4.4542157 19.611077 5.1233145 18.865827 6.0761719 18.574219 L 9.7871094 17.457031 A 1.0001 1.0001 0 0 0 10.5 16.5 L 10.5 14.5625 A 1.0001 1.0001 0 0 0 10.117188 13.775391 C 8.4669503 12.483809 7.5 11.272344 7.5 7.9160156 C 7.5 6.3025968 7.9247808 5.2359381 8.578125 4.5546875 C 9.2314692 3.8734369 10.173893 3.5 11.492188 3.5 z " fill="currentColor"/>
</svg>
