<svg xmlns="http://www.w3.org/2000/svg" width="1em" height="1em" viewBox="0 0 24 24" fill="currentColor">
  <path d="M 12 1 C 10.354975 1 9 2.3550085 9 4 C 9 5.6449915 10.354975 7 12 7 C 13.645025 7 15 5.6449915 15 4 C 15 2.3550085 13.645025 1 12 1 z M 12 3 C 12.564175 3 13 3.4358515 13 4 C 13 4.5641485 12.564175 5 12 5 C 11.435825 5 11 4.5641485 11 4 C 11 3.4358515 11.435825 3 12 3 z M 12 7.5 C 11.0572 7.5 10.32979 7.4935803 9.671875 7.5820312 C 9.0139599 7.6704861 8.3614795 7.8963247 7.8789062 8.3789062 C 7.3963249 8.8614794 7.1704858 9.5139599 7.0820312 10.171875 C 6.9935767 10.82979 7 11.5572 7 12.5 L 7 14 C 7 14.4714 6.9930799 14.844872 7.0449219 15.230469 C 7.0967639 15.616065 7.2498234 16.077938 7.5859375 16.414062 C 7.9220598 16.750186 8.3839299 16.903234 8.7695312 16.955078 C 8.8417483 16.964778 8.9279085 16.956891 9 16.962891 L 9 20 C 9 20.4714 8.9930799 20.844869 9.0449219 21.230469 C 9.0967659 21.616069 9.2498152 22.07794 9.5859375 22.414062 C 9.9220598 22.750186 10.383931 22.903234 10.769531 22.955078 C 11.155131 23.006922 11.5286 23 12 23 C 12.4714 23 12.844869 23.006898 13.230469 22.955078 C 13.616069 22.903238 14.07794 22.750186 14.414062 22.414062 C 14.750184 22.077941 14.903234 21.616069 14.955078 21.230469 C 15.006922 20.844867 15 20.4714 15 20 L 15 16.962891 C 15.07209 16.956791 15.158252 16.964778 15.230469 16.955078 C 15.616069 16.903238 16.077941 16.750186 16.414062 16.414062 C 16.750186 16.077941 16.903234 15.616069 16.955078 15.230469 C 17.006922 14.844856 17 14.4714 17 14 L 17 12.5 C 17 11.5572 17.006399 10.829792 16.917969 10.171875 C 16.829511 9.5139581 16.603682 8.8614777 16.121094 8.3789062 C 15.63852 7.8963404 14.986036 7.6704861 14.328125 7.5820312 C 13.670214 7.4935764 12.9428 7.5 12 7.5 z M 12 9.5 C 12.9428 9.5 13.629208 9.5064601 14.060547 9.5644531 C 14.491886 9.6224461 14.603805 9.6897445 14.707031 9.7929688 C 14.810243 9.8961771 14.877553 10.00811 14.935547 10.439453 C 14.993541 10.870796 15 11.5572 15 12.5 L 15 14 C 15 14.4714 14.993996 14.805819 14.972656 14.964844 C 14.972341 14.967191 14.97296 14.970412 14.972656 14.972656 C 14.970411 14.97296 14.967193 14.97234 14.964844 14.972656 C 14.805823 14.994033 14.4714 15 14 15 A 1.0001 1.0001 0 0 0 13 16 L 13 20 C 13 20.4714 12.993996 20.805819 12.972656 20.964844 C 12.972341 20.967191 12.97296 20.970413 12.972656 20.972656 C 12.970411 20.97296 12.967193 20.97234 12.964844 20.972656 C 12.805823 20.994033 12.4714 21 12 21 C 11.5286 21 11.194181 20.993996 11.035156 20.972656 C 11.032809 20.972341 11.029588 20.97296 11.027344 20.972656 C 11.02704 20.970411 11.02766 20.967193 11.027344 20.964844 C 11.005967 20.805823 11 20.4714 11 20 L 11 16 A 1.0001 1.0001 0 0 0 10 15 C 9.528595 15 9.1941824 14.994037 9.0351562 14.972656 C 9.03281 14.972341 9.0295865 14.97296 9.0273438 14.972656 C 9.0270399 14.970412 9.0276594 14.967191 9.0273438 14.964844 C 9.0059629 14.805819 9 14.4714 9 14 L 9 12.5 C 9 11.5572 9.0064601 10.870798 9.0644531 10.439453 C 9.1224462 10.008108 9.1897602 9.8961754 9.2929688 9.7929688 C 9.3961754 9.6897601 9.5081082 9.6224461 9.9394531 9.5644531 C 10.370798 9.5064602 11.0572 9.5 12 9.5 z " fill="currentColor"/>
</svg>
