<svg xmlns="http://www.w3.org/2000/svg" width="1em" height="1em" viewBox="0 0 24 24" fill="currentColor">
  <path d="M 12 1.5 C 7.0390152 1.5 3.000213 5.5593541 3 10.535156 C 3 13.335472 4.184136 15.660705 6.3378906 17.558594 C 7.3517524 18.45201 9.0966039 20.224659 10.265625 21.6875 C 10.710479 22.244284 11.369555 22.5 12 22.5 C 12.630445 22.5 13.289521 22.244284 13.734375 21.6875 C 14.903319 20.224695 16.648255 18.452045 17.662109 17.558594 C 19.815864 15.660705 21 13.335472 21 10.535156 C 20.999776 5.5593628 16.96102 1.5 12 1.5 z M 12 3.5 C 15.87538 3.5 18.999824 6.6354102 19 10.535156 C 19 12.810041 18.184136 14.431682 16.337891 16.058594 C 15.201145 17.060342 13.450131 18.837905 12.171875 20.4375 C 12.150929 20.463716 12.090155 20.5 12 20.5 C 11.90985 20.5 11.849071 20.46372 11.828125 20.4375 C 10.549846 18.837941 8.7989476 17.060377 7.6621094 16.058594 C 5.815864 14.431682 5 12.810041 5 10.535156 C 5.000167 6.6354188 8.1246648 3.5 12 3.5 z M 9.5175781 7 A 1 1 0 0 0 8.8105469 7.2929688 A 1 1 0 0 0 8.8085938 8.7070312 L 10.595703 10.496094 L 8.8007812 12.292969 A 1 1 0 0 0 8.8027344 13.707031 A 1 1 0 0 0 10.216797 13.707031 L 12.007812 11.912109 L 13.800781 13.707031 A 1 1 0 0 0 15.214844 13.707031 A 1 1 0 0 0 15.216797 12.292969 L 13.421875 10.496094 L 15.207031 8.7070312 A 1 1 0 0 0 15.207031 7.2929688 A 1 1 0 0 0 13.792969 7.2929688 L 12.007812 9.0800781 L 10.224609 7.2929688 A 1 1 0 0 0 9.5175781 7 z " fill="currentColor"/>
</svg>
