<svg xmlns="http://www.w3.org/2000/svg" width="1em" height="1em" viewBox="0 0 24 24" fill="currentColor">
  <path d="M 11.5 1.5 C 6.5388813 1.5 2.5 5.5592238 2.5 10.535156 C 2.5 13.335472 3.6841782 15.660742 5.8378906 17.558594 C 6.8515954 18.451872 8.5965798 20.224557 9.765625 21.6875 C 10.65644 22.802262 12.34356 22.802262 13.234375 21.6875 A 1 1 0 0 0 13.078125 20.28125 A 1 1 0 0 0 11.671875 20.439453 L 11.669922 20.441406 L 11.667969 20.443359 C 11.61717 20.488219 11.380881 20.486266 11.330078 20.441406 L 11.328125 20.439453 C 10.04999 18.839996 8.2991046 17.060516 7.1621094 16.058594 C 5.3158218 14.431645 4.5 12.810041 4.5 10.535156 C 4.5 6.6353292 7.6245587 3.5 11.5 3.5 C 15.375464 3.5 18.5 6.6353261 18.5 10.535156 C 18.5 10.992346 18.46303 11.422619 18.392578 11.830078 A 1 1 0 0 0 19.208984 12.986328 A 1 1 0 0 0 20.363281 12.169922 C 20.454428 11.642781 20.5 11.097967 20.5 10.535156 C 20.5 5.5592268 16.461136 1.5 11.5 1.5 z M 11.5 6.5 C 9.3027068 6.5 7.5 8.3027068 7.5 10.5 C 7.5 12.697327 9.3027269 14.5 11.5 14.5 C 13.697307 14.5 15.5 12.697307 15.5 10.5 C 15.5 8.3027269 13.697327 6.5 11.5 6.5 z M 11.5 8.5 C 12.616473 8.5 13.5 9.3835731 13.5 10.5 C 13.5 11.616493 12.616493 12.5 11.5 12.5 C 10.383573 12.5 9.5 11.616473 9.5 10.5 C 9.5 9.3835932 10.383593 8.5 11.5 8.5 z M 20.5 14.5 A 1 1 0 0 0 19.792969 14.792969 L 16.5 18.085938 L 15.207031 16.792969 A 1 1 0 0 0 13.792969 16.792969 A 1 1 0 0 0 13.792969 18.207031 L 15.792969 20.207031 A 1.0001 1.0001 0 0 0 17.207031 20.207031 L 21.207031 16.207031 A 1 1 0 0 0 21.207031 14.792969 A 1 1 0 0 0 20.5 14.5 z " fill="currentColor"/>
</svg>
