<svg xmlns="http://www.w3.org/2000/svg" width="1em" height="1em" viewBox="0 0 24 24" fill="currentColor">
  <path d="M 8 1 A 1 1 0 0 0 7.9804688 1.0019531 C 6.9064711 1.0370162 6.0953216 1.5544128 4.75 2.3398438 L 3.5214844 3.0566406 C 2.5332913 3.6335624 1.8454456 3.9906814 1.4023438 4.7734375 C 0.95926117 5.5562049 1 6.3292469 1 7.4980469 L 1 15.714844 C 1 16.482694 0.995812 17.071736 1.046875 17.59375 C 1.097938 18.115764 1.2087196 18.630479 1.5625 19.072266 C 1.9384725 19.541592 2.470478 19.863975 3.0644531 19.970703 C 3.6266249 20.071632 4.1354091 19.909783 4.6074219 19.695312 C 5.0794346 19.480837 5.5754037 19.185697 6.2246094 18.806641 C 7.1254133 18.280783 7.7146088 17.939317 8.3691406 18.029297 C 8.9266603 18.105877 9.6741729 18.568198 10.552734 19.007812 A 1 1 0 0 0 11.894531 18.560547 A 1 1 0 0 0 11.447266 17.21875 C 10.817125 16.903441 10.030708 16.344138 9 16.113281 L 9 3.2539062 C 9.3437518 3.3993294 9.7888262 3.6138923 10.392578 3.9160156 L 13.724609 5.5820312 C 13.821053 5.6302962 13.912404 5.6745884 14 5.7148438 L 14 9.5 A 1 1 0 0 0 15 10.5 A 1 1 0 0 0 16 9.5 L 16 6.1035156 L 18 6.1035156 C 18.9428 6.1035156 19.628365 6.1087357 20.056641 6.1679688 C 20.484917 6.2271978 20.59127 6.2933155 20.697266 6.4023438 C 20.803261 6.5113737 20.876738 6.6399151 20.935547 7.0898438 C 20.994356 7.5397725 21 8.2469869 21 9.2167969 L 21 10 A 1 1 0 0 0 22 11 A 1 1 0 0 0 23 10 L 23 9.2167969 C 23 8.2469869 23.00561 7.500597 22.917969 6.8300781 C 22.830327 6.1595593 22.610664 5.5013527 22.130859 5.0078125 C 21.651055 4.5142808 20.993005 4.2789107 20.332031 4.1875 C 19.671057 4.0960893 18.9428 4.1035156 18 4.1035156 L 15.921875 4.1035156 C 15.703056 4.1035156 15.56097 4.1098977 15.460938 4.1132812 A 1 1 0 0 0 15.009766 4 C 14.922564 3.9525492 14.802106 3.8864866 14.619141 3.7949219 L 11.287109 2.1269531 C 9.9195484 1.4426121 9.0835143 0.98202762 8.0351562 1 A 1 1 0 0 0 8 1 z M 7 3.3691406 L 7 16.197266 C 6.3074966 16.414711 5.7191826 16.785663 5.2148438 17.080078 C 4.5656595 17.459122 4.0890566 17.73425 3.7792969 17.875 C 3.5324137 17.98718 3.4296065 17.997513 3.4140625 18 L 3.4121094 18 C 3.303384 17.979076 3.202938 17.920539 3.125 17.824219 L 3.125 17.822266 C 3.1201956 17.811092 3.0672978 17.709016 3.0371094 17.400391 C 3.0026069 17.04768 3 16.482694 3 15.714844 L 3 7.4980469 C 3 6.3292469 3.0423808 5.9348251 3.1425781 5.7578125 C 3.2427763 5.5808086 3.54111 5.3601213 4.5292969 4.7832031 L 5.7578125 4.0664062 C 6.2812577 3.7608064 6.6818619 3.5334888 7 3.3691406 z M 17.5 11 C 15.333738 11 13.292341 12.266465 12.423828 14.296875 C 11.645189 16.117281 12.087766 17.865882 12.953125 19.173828 C 13.818484 20.481774 15.04006 21.502295 16.005859 22.412109 A 1.0001 1.0001 0 0 0 16.007812 22.414062 C 16.413363 22.793796 16.947516 23 17.5 23 C 18.052484 23 18.58659 22.793843 18.992188 22.414062 C 19.962305 21.50555 21.184341 20.483353 22.048828 19.173828 C 22.913315 17.864303 23.354107 16.115539 22.576172 14.296875 C 21.707659 12.266465 19.666262 11 17.5 11 z M 17.5 13 C 18.876138 13 20.203595 13.833994 20.738281 15.083984 C 21.256346 16.29512 21.017148 17.108416 20.380859 18.072266 C 19.744571 19.036116 18.645383 19.997538 17.625 20.953125 C 17.596997 20.979346 17.550716 21 17.5 21 C 17.45024 21 17.40509 20.980578 17.376953 20.955078 L 17.375 20.953125 C 16.35584 19.993149 15.257693 19.0325 14.621094 18.070312 C 13.984053 17.107459 13.742758 16.297278 14.261719 15.083984 C 14.796405 13.833994 16.123862 13 17.5 13 z M 17.5 15.25 C 16.821712 15.25 16.25 15.821712 16.25 16.5 C 16.25 17.178288 16.821712 17.75 17.5 17.75 C 18.178288 17.75 18.75 17.178288 18.75 16.5 C 18.75 15.821712 18.178288 15.25 17.5 15.25 z " fill="currentColor"/>
</svg>
