<svg xmlns="http://www.w3.org/2000/svg" width="1em" height="1em" viewBox="0 0 24 24" fill="currentColor">
  <path d="M 12 1.5 C 9.76083 1.5 8.061073 1.4944581 6.6542969 1.6835938 C 5.2475207 1.8727295 4.0688969 2.2982969 3.1835938 3.1835938 C 2.2982969 4.0688968 1.8727295 5.2475207 1.6835938 6.6542969 C 1.494458 8.061073 1.5 9.76083 1.5 12 C 1.5 14.23915 1.4944601 15.93892 1.6835938 17.345703 C 1.8727292 18.752486 2.2983047 19.931079 3.1835938 20.816406 C 4.0688995 21.70168 5.2475238 22.127276 6.6542969 22.316406 C 8.0610699 22.505536 9.76083 22.5 12 22.5 C 14.23915 22.5 15.938923 22.5055 17.345703 22.316406 C 18.752483 22.127277 19.931076 21.701673 20.816406 20.816406 C 21.701673 19.931076 22.127277 18.752483 22.316406 17.345703 C 22.505536 15.938923 22.5 14.23915 22.5 12 C 22.5 9.76083 22.5055 8.0610699 22.316406 6.6542969 C 22.127276 5.2475238 21.70168 4.0688995 20.816406 3.1835938 C 19.931079 2.2983046 18.752486 1.8727291 17.345703 1.6835938 C 15.93892 1.4944584 14.23915 1.5 12 1.5 z M 12 3.5 C 14.23915 3.5 15.897908 3.50539 17.078125 3.6640625 C 18.258342 3.8227371 18.896371 4.0917053 19.402344 4.5976562 C 19.90827 5.1036005 20.177267 5.7416656 20.335938 6.921875 C 20.494609 8.1020844 20.5 9.76083 20.5 12 C 20.5 14.23915 20.4946 15.897905 20.335938 17.078125 C 20.177267 18.258345 19.908277 18.896374 19.402344 19.402344 C 18.896374 19.908277 18.258345 20.177267 17.078125 20.335938 C 16.981332 20.348951 16.88063 20.360061 16.777344 20.371094 A 1 1 0 0 0 16.707031 20.292969 L 3.7070312 7.2929688 A 1 1 0 0 0 3.6289062 7.2226562 C 3.6399392 7.1193701 3.6510491 7.0186675 3.6640625 6.921875 C 3.8227368 5.7416686 4.091713 5.1036031 4.5976562 4.5976562 C 5.1036031 4.0917131 5.7416686 3.8227368 6.921875 3.6640625 C 8.1020814 3.5053882 9.76083 3.5 12 3.5 z M 14.5 5 C 12.167599 5 10.25 6.9038698 10.25 9.2324219 C 10.25 10.518445 10.843716 11.666317 11.810547 12.509766 C 12.302196 12.938821 13.376429 14.084902 13.650391 14.527344 A 1.0001 1.0001 0 0 0 15.333984 14.552734 C 15.654856 14.069227 16.713603 12.925034 17.189453 12.509766 C 18.156284 11.666317 18.75 10.518445 18.75 9.2324219 C 18.75 6.9038698 16.832401 5 14.5 5 z M 14.5 7 C 15.757399 7 16.75 7.990694 16.75 9.2324219 C 16.75 9.987839 16.531416 10.427602 15.873047 11.001953 C 15.456038 11.365871 14.979096 11.971583 14.498047 12.525391 C 14.012865 11.970926 13.530012 11.353697 13.126953 11.001953 C 12.468584 10.427602 12.25 9.987839 12.25 9.2324219 C 12.25 7.990694 13.242601 7 14.5 7 z M 14.5 8 C 13.821567 8 13.25 8.5716244 13.25 9.25 C 13.25 9.9283756 13.821567 10.5 14.5 10.5 C 15.178433 10.5 15.75 9.9283756 15.75 9.25 C 15.75 8.5716244 15.178433 8 14.5 8 z M 3.5078125 9.921875 L 8.0859375 14.5 L 4.0273438 18.558594 C 3.8625915 18.176748 3.7481062 17.70324 3.6640625 17.078125 C 3.5053879 15.897908 3.5 14.23915 3.5 12 C 3.5 11.242026 3.5008409 10.550784 3.5078125 9.921875 z M 9.5 15.914062 L 14.078125 20.492188 C 13.449215 20.49916 12.757972 20.5 12 20.5 C 9.76083 20.5 8.1020844 20.494608 6.921875 20.335938 C 6.2967709 20.251897 5.8232538 20.137409 5.4414062 19.972656 L 9.5 15.914062 z " fill="currentColor"/>
</svg>
