<svg xmlns="http://www.w3.org/2000/svg" width="1em" height="1em" viewBox="0 0 24 24" fill="currentColor">
  <path d="M 4 3 C 3.3185278 3 2.7844497 3.4088424 2.4355469 3.8515625 C 2.0866441 4.2942826 1.8418105 4.8261311 1.6367188 5.4414062 C 1.2265352 6.6719568 1 8.2530717 1 10 C 1 11.846278 1.1479112 13.742391 2.0996094 15.439453 C 2.1034672 15.446323 2.1073066 15.452195 2.1113281 15.458984 A 1 1 0 0 0 2.1425781 15.515625 C 4.1204553 18.806435 7.8056219 21 12 21 C 16.194405 21 19.87953 18.806424 21.857422 15.515625 A 1 1 0 0 0 21.888672 15.460938 C 21.892725 15.45409 21.896504 15.446383 21.900391 15.439453 C 22.852045 13.742407 23 11.846293 23 10 C 23 8.2530748 22.773461 6.6719584 22.363281 5.4414062 C 22.158191 4.8261302 21.91336 4.2942848 21.564453 3.8515625 C 21.215547 3.4088402 20.681469 3 20 3 C 19.318531 3 18.784453 3.4088402 18.435547 3.8515625 C 18.08664 4.2942848 17.841809 4.8261302 17.636719 5.4414062 C 17.42091 6.0888396 17.256329 6.8338291 17.148438 7.6484375 C 15.685236 7.2297512 13.917936 7 12 7 C 10.082072 7 8.3147656 7.2297509 6.8515625 7.6484375 C 6.7436711 6.8338292 6.5790921 6.0888388 6.3632812 5.4414062 C 6.1581895 4.826131 5.9133559 4.2942826 5.5644531 3.8515625 C 5.2155503 3.4088424 4.6814722 3 4 3 z M 4 5.1054688 C 4.129328 5.2731132 4.3105155 5.6112341 4.4648438 6.0742188 C 4.7785177 7.0152407 5 8.4332183 5 10 C 5 11.441144 4.5971559 12.46634 4.1308594 13.119141 C 3.8897453 13.456693 3.7656006 13.436903 3.5488281 13.574219 C 3.1803234 12.525908 3 11.352684 3 10 C 3 8.4332183 3.2214822 7.0152408 3.5351562 6.0742188 C 3.6894844 5.611234 3.870672 5.2731132 4 5.1054688 z M 20 5.1054688 C 20.129327 5.2731112 20.310517 5.6112348 20.464844 6.0742188 C 20.778514 7.0152392 21 8.4332152 21 10 C 21 11.352672 20.819678 12.525898 20.451172 13.574219 C 20.234398 13.436903 20.110255 13.456693 19.869141 13.119141 C 19.402843 12.46634 19 11.441144 19 10 C 19 8.4332152 19.221486 7.0152391 19.535156 6.0742188 C 19.689483 5.6112348 19.870673 5.2731112 20 5.1054688 z M 12 9 C 13.94762 9 15.724855 9.2811165 17.001953 9.6972656 C 17.000426 9.7978021 17 9.8983032 17 10 C 17 11.815956 17.513057 13.263225 18.240234 14.28125 C 18.600009 14.784923 18.99965 15.197401 19.4375 15.492188 C 17.725972 17.618328 15.039859 19 12 19 C 8.9601717 19 6.2740222 17.61832 4.5625 15.492188 C 5.0003511 15.197401 5.3999909 14.784924 5.7597656 14.28125 C 6.4869416 13.263226 7 11.815956 7 10 C 7 9.8983028 6.9995739 9.7978025 6.9980469 9.6972656 C 8.27514 9.2811185 10.052391 9 12 9 z M 12 10 C 10.837539 10 9.716691 10.195132 8.6738281 10.554688 A 1 1 0 0 0 8.0546875 11.826172 A 1 1 0 0 0 9.3261719 12.445312 C 10.162789 12.156866 11.060861 12 12 12 C 12.939139 12 13.837271 12.156875 14.673828 12.445312 A 1 1 0 0 0 15.945312 11.826172 A 1 1 0 0 0 15.326172 10.554688 C 14.283329 10.195125 13.162461 10 12 10 z M 7.9726562 14 A 1 1 0 0 0 7.7148438 14.041016 A 1 1 0 0 0 7.1210938 14.525391 A 1 1 0 0 0 7.5253906 15.878906 C 8.8465113 16.592971 10.376359 17 12 17 C 13.623641 17 15.153484 16.592968 16.474609 15.878906 A 1 1 0 0 0 16.878906 14.525391 A 1 1 0 0 0 15.525391 14.121094 C 14.493116 14.679032 13.290559 15 12 15 C 10.709441 15 9.5068687 14.679029 8.4746094 14.121094 A 1 1 0 0 0 7.9726562 14 z " fill="currentColor"/>
</svg>
