<svg xmlns="http://www.w3.org/2000/svg" width="1em" height="1em" viewBox="0 0 24 24" fill="currentColor">
  <path d="M 12 1 C 9.842347 1 7.8089852 1.2691229 6.0136719 1.75 C 3.4099151 2.4474127 2 4.9891812 2 7.5234375 L 2 14.496094 C 2 18.828327 4.3433237 21.173341 6.5996094 22.160156 C 8.8208755 23.131655 10.952603 22.99467 11.019531 22.990234 C 13.770579 22.983434 15.552734 21.833984 15.552734 21.833984 A 1.0001 1.0001 0 0 0 16 21 L 16 20 A 1.0001 1.0001 0 0 0 14.6875 19.050781 C 14.6875 19.050781 13.368187 19.494141 11 19.494141 C 9.8109585 19.494141 9.115208 19.245729 8.703125 18.964844 C 8.291042 18.683959 8.1061884 18.357653 7.9960938 17.970703 C 7.9050521 17.650718 7.9872138 17.567658 8.0039062 17.275391 C 9.5361413 17.702023 11.193558 17.996094 13 17.996094 C 15.111995 17.996094 17.092496 17.67439 18.810547 17.101562 C 20.91934 16.398374 22 14.289451 22 12.230469 L 22 7.5234375 C 22 4.989182 20.590118 2.4474084 17.986328 1.75 C 16.191053 1.2691191 14.157653 1 12 1 z M 12 3 C 13.991147 3 15.859625 3.2506215 17.46875 3.6816406 C 19.06816 4.1100322 20 5.706393 20 7.5234375 L 20 12.230469 C 20 13.613487 19.334142 14.817514 18.177734 15.203125 C 16.685986 15.700499 14.907805 15.996094 13 15.996094 C 10.912897 15.996094 8.9793279 15.642826 7.4082031 15.058594 A 1.0001 1.0001 0 0 0 6.1035156 15.703125 C 6.1035156 15.703125 5.6544405 17.044132 6.0742188 18.519531 C 6.211085 19.000576 6.5085919 19.48304 6.8925781 19.933594 C 5.3699971 19.112997 4 17.765996 4 14.496094 L 4 7.5234375 C 4 5.7064138 4.9318868 4.1100279 6.53125 3.6816406 C 8.1404367 3.2506178 10.008853 3 12 3 z M 9.5 4.5 C 7.5788482 4.5 6 6.0788482 6 8 L 6 13.5 A 1 1 0 0 0 7 14.5 A 1 1 0 0 0 8 13.5 L 8 8 C 8 7.1597318 8.6597318 6.5 9.5 6.5 C 10.340254 6.5 11 7.1597366 11 8 L 11 11.5 A 1 1 0 0 0 12 12.5 A 1 1 0 0 0 13 11.5 L 13 8 C 13 7.1597366 13.659746 6.5 14.5 6.5 C 15.340254 6.5 16 7.1597366 16 8 L 16 13.5 A 1 1 0 0 0 17 14.5 A 1 1 0 0 0 18 13.5 L 18 8 C 18 6.0788434 16.421146 4.5 14.5 4.5 C 13.520835 4.5 12.63761 4.9157053 12 5.5722656 C 11.36239 4.9157053 10.479165 4.5 9.5 4.5 z " fill="currentColor"/>
</svg>
