<svg xmlns="http://www.w3.org/2000/svg" width="1em" height="1em" viewBox="0 0 24 24" fill="currentColor">
  <path d="M 12 1.5 C 9.76083 1.5 8.061073 1.4944581 6.6542969 1.6835938 C 5.2475207 1.8727295 4.0688969 2.2982969 3.1835938 3.1835938 C 2.2982969 4.0688968 1.8727295 5.2475207 1.6835938 6.6542969 C 1.5588494 7.582135 1.5186766 8.6371873 1.5058594 9.890625 A 1 1 0 0 0 1.5 10 A 1 1 0 0 0 1.5039062 10.091797 C 1.4992264 10.682391 1.5 11.315678 1.5 12 C 1.5 13.048825 1.4994335 13.978941 1.5175781 14.816406 A 1 1 0 0 0 1.5 15 A 1 1 0 0 0 1.5273438 15.234375 C 1.5517671 16.013162 1.5980644 16.709533 1.6835938 17.345703 C 1.8727292 18.752486 2.2983047 19.931079 3.1835938 20.816406 C 4.0688995 21.70168 5.2475238 22.127276 6.6542969 22.316406 C 8.0610699 22.505536 9.76083 22.5 12 22.5 C 13.048796 22.5 13.978959 22.50057 14.816406 22.482422 A 1 1 0 0 0 15 22.5 A 1 1 0 0 0 15.234375 22.472656 C 16.013132 22.448229 16.709555 22.401915 17.345703 22.316406 C 18.752483 22.127277 19.931076 21.701673 20.816406 20.816406 C 21.701673 19.931076 22.127277 18.752483 22.316406 17.345703 C 22.401934 16.709536 22.448232 16.01316 22.472656 15.234375 A 1 1 0 0 0 22.5 15 A 1 1 0 0 0 22.482422 14.816406 C 22.500567 13.978943 22.5 13.048822 22.5 12 C 22.5 9.76083 22.5055 8.0610699 22.316406 6.6542969 C 22.127276 5.2475238 21.70168 4.0688995 20.816406 3.1835938 C 19.931079 2.2983046 18.752486 1.8727291 17.345703 1.6835938 C 16.417864 1.5588501 15.362806 1.5186768 14.109375 1.5058594 A 1 1 0 0 0 14 1.5 A 1 1 0 0 0 13.908203 1.5039062 C 13.317608 1.4992262 12.684319 1.5 12 1.5 z M 12 3.5 C 12.347158 3.5 12.680365 3.4991897 13 3.5 L 13 7 C 13 7.94281 12.993601 8.6702103 13.082031 9.328125 C 13.170491 9.9860397 13.396317 10.63853 13.878906 11.121094 C 14.361479 11.603666 15.013962 11.829512 15.671875 11.917969 C 16.329789 12.006425 17.0572 12 18 12 A 1 1 0 0 0 19 11 A 1 1 0 0 0 18 10 C 17.0572 10 16.37079 9.9935403 15.939453 9.9355469 C 15.508116 9.8775534 15.396196 9.8102589 15.292969 9.7070312 C 15.189758 9.6038253 15.122446 9.4918847 15.064453 9.0605469 C 15.00646 8.6292091 15 7.94281 15 7 L 15 3.5234375 C 15.814208 3.5450741 16.502988 3.586739 17.078125 3.6640625 C 18.258342 3.8227371 18.896371 4.0917053 19.402344 4.5976562 C 19.90827 5.1036005 20.177267 5.7416656 20.335938 6.921875 C 20.494609 8.1020844 20.5 9.76083 20.5 12 C 20.5 12.726626 20.500331 13.392132 20.494141 14 L 15 14 L 10 14 A 1 1 0 0 0 9 15 A 1 1 0 0 0 10 16 L 14 16 L 14 20.494141 C 13.392132 20.50033 12.726626 20.5 12 20.5 C 9.76083 20.5 8.1020844 20.494608 6.921875 20.335938 C 5.7416656 20.177267 5.1036004 19.90827 4.5976562 19.402344 C 4.0917053 18.896371 3.8227371 18.258342 3.6640625 17.078125 C 3.6206546 16.755258 3.5879456 16.396578 3.5644531 16 L 6 16 A 1 1 0 0 0 7 15 A 1 1 0 0 0 6 14 L 3.5058594 14 C 3.4996705 13.392132 3.5 12.726625 3.5 12 C 3.5 11.652842 3.4991898 11.319635 3.5 11 L 5 11 C 5.94281 11 6.6702114 11.006399 7.328125 10.917969 C 7.9860386 10.829519 8.6385246 10.603671 9.1210938 10.121094 C 9.6036712 9.6385233 9.8295139 8.9860386 9.9179688 8.328125 C 10.006424 7.6702114 10 6.94281 10 6 A 1 1 0 0 0 9 5 A 1 1 0 0 0 8 6 C 8 6.94281 7.9935396 7.6292055 7.9355469 8.0605469 C 7.8775541 8.4918883 7.8102438 8.6038204 7.7070312 8.7070312 C 7.6038204 8.8102437 7.4918883 8.8775541 7.0605469 8.9355469 C 6.6292055 8.9935396 5.94281 9 5 9 L 3.5234375 9 C 3.5450738 8.1857882 3.5867378 7.49701 3.6640625 6.921875 C 3.8227368 5.7416686 4.091713 5.1036031 4.5976562 4.5976562 C 5.1036031 4.0917131 5.7416686 3.8227368 6.921875 3.6640625 C 8.1020814 3.5053882 9.76083 3.5 12 3.5 z M 16 16 L 20.435547 16 C 20.412055 16.396578 20.379342 16.755258 20.335938 17.078125 C 20.177267 18.258345 19.908277 18.896374 19.402344 19.402344 C 18.896374 19.908277 18.258345 20.177267 17.078125 20.335938 C 16.755258 20.379344 16.396578 20.412054 16 20.435547 L 16 16 z " fill="currentColor"/>
</svg>
