<svg xmlns="http://www.w3.org/2000/svg" width="1em" height="1em" viewBox="0 0 24 24" fill="currentColor">
  <path d="M 12 1 C 5.9466063 1 1.0180278 5.9209901 1.0019531 11.970703 C 1.0019269 11.980591 1 11.990106 1 12 C 1 12.034283 1.0055444 12.067352 1.0058594 12.101562 C 1.0612493 18.117778 5.9709957 23 12 23 C 18.029005 23 22.938751 18.117778 22.994141 12.101562 C 22.994456 12.067352 23 12.034283 23 12 C 23 11.990106 22.998073 11.980591 22.998047 11.970703 C 22.981972 5.9209901 18.053394 1 12 1 z M 12 3 C 16.735116 3 20.598836 6.6286746 20.970703 11.265625 L 17.447266 12.322266 C 17.208166 11.887149 16.848724 11.538152 16.455078 11.333984 C 15.928892 11.061073 15.386905 11 14.882812 11 L 9.1171875 11 C 8.6125198 11 8.0695255 11.06253 7.5429688 11.335938 C 7.1495381 11.540218 6.791141 11.887931 6.5527344 12.322266 L 3.0292969 11.265625 C 3.4011644 6.6286746 7.2648833 3 12 3 z M 8.7070312 7.5 C 7.9894362 7.5 7.3003734 7.7855641 6.7929688 8.2929688 A 1 1 0 0 0 6.7929688 9.7070312 A 1 1 0 0 0 8.2070312 9.7070312 C 8.3399066 9.5741557 8.5191061 9.5 8.7070312 9.5 L 10 9.5 A 1 1 0 0 0 11 8.5 A 1 1 0 0 0 10 7.5 L 8.7070312 7.5 z M 14 7.5 A 1 1 0 0 0 13 8.5 A 1 1 0 0 0 14 9.5 L 15.292969 9.5 C 15.480799 9.5 15.660228 9.574274 15.792969 9.7070312 A 1 1 0 0 0 17.207031 9.7070312 A 1 1 0 0 0 17.207031 8.2929688 C 16.699572 7.7854462 16.010539 7.5 15.292969 7.5 L 14 7.5 z M 9.1171875 13 L 14.882812 13 C 15.197418 13 15.428267 13.05394 15.535156 13.109375 C 15.642045 13.164815 15.669965 13.174795 15.730469 13.373047 C 16.063933 14.465859 16.063933 16.534141 15.730469 17.626953 C 15.669969 17.825204 15.642049 17.835186 15.535156 17.890625 C 15.428267 17.946064 15.197418 18 14.882812 18 L 9.1171875 18 C 8.8027522 18 8.5736755 17.946037 8.4667969 17.890625 C 8.3599183 17.835213 8.3299901 17.824978 8.2695312 17.626953 C 7.9360617 16.53476 7.9348191 14.466882 8.2675781 13.373047 C 8.3281108 13.174075 8.3579604 13.164872 8.4648438 13.109375 C 8.5717269 13.053878 8.8020852 13 9.1171875 13 z M 3.1035156 13.375 L 6.0546875 14.259766 C 5.9729451 14.942962 5.9596911 15.656727 6.015625 16.349609 L 3.9589844 16.054688 C 3.5419957 15.226824 3.2483635 14.326373 3.1035156 13.375 z M 20.896484 13.375 C 20.751637 14.326373 20.458004 15.226824 20.041016 16.054688 L 17.986328 16.349609 C 18.042151 15.656694 18.029255 14.94301 17.947266 14.259766 L 20.896484 13.375 z M 5.5703125 18.306641 L 6.4355469 18.429688 C 6.6625612 18.979379 7.0791808 19.424549 7.5449219 19.666016 C 8.0710315 19.938779 8.6133328 20 9.1171875 20 L 14.882812 20 C 15.386905 20 15.928892 19.93893 16.455078 19.666016 C 16.920975 19.424374 17.339111 18.979532 17.566406 18.429688 L 18.429688 18.306641 C 16.797899 19.970519 14.52289 21 12 21 C 9.4771098 21 7.2021012 19.970519 5.5703125 18.306641 z " fill="currentColor"/>
</svg>
