<svg xmlns="http://www.w3.org/2000/svg" width="1em" height="1em" viewBox="0 0 24 24" fill="currentColor">
  <path d="M 9.0683594 1 C 8.6077094 1 8.2412595 0.99433384 7.859375 1.046875 C 7.4774905 1.0994162 7.0160809 1.2555015 6.6855469 1.59375 C 6.3045917 1.9835988 6.2103251 2.3692132 6.1230469 2.765625 C 6.0357686 3.1620368 6 3.5794643 6 4 C 6 4.4205357 6.0357686 4.8379632 6.1230469 5.234375 C 6.2103251 5.6307868 6.3045917 6.0164012 6.6855469 6.40625 C 6.8575892 6.5823077 7.0660105 6.7084337 7.2792969 6.796875 C 7.3253649 6.8928702 7.3508528 6.9532372 7.3671875 6.9980469 C 7.5714511 7.5583118 7.5140815 8.1786645 7.2128906 8.6933594 C 7.1676515 8.7706671 7.078701 8.8944276 6.8574219 9.1894531 L 6.4550781 9.7265625 C 6.005022 10.326644 5.7396812 10.671563 5.5214844 11.111328 C 5.3156039 11.526363 5.1682907 11.968169 5.0839844 12.423828 C 4.9946711 12.906577 5 13.341697 5 14.091797 L 5 16 C 5 17.4142 4.99407 18.495558 5.1191406 19.425781 C 5.2442065 20.356004 5.5428648 21.199101 6.171875 21.828125 C 6.8008908 22.457155 7.6439896 22.75579 8.5742188 22.880859 C 9.5044477 23.005928 10.585785 23 12 23 C 13.4142 23 14.495556 23.0059 15.425781 22.880859 C 16.356006 22.75579 17.199103 22.457147 17.828125 21.828125 C 18.457147 21.199103 18.75579 20.356006 18.880859 19.425781 C 19.005928 18.495556 19 17.4142 19 16 L 19 14.091797 C 19 13.341697 19.005396 12.906627 18.916016 12.423828 C 18.831746 11.968079 18.684314 11.5263 18.478516 11.111328 C 18.260263 10.671478 17.994863 10.326584 17.544922 9.7265625 L 17.140625 9.1894531 L 17.142578 9.1894531 C 16.921251 8.8943061 16.832272 8.7705283 16.787109 8.6933594 C 16.485922 8.1787049 16.42856 7.5583718 16.632812 6.9980469 C 16.649183 6.9531747 16.674646 6.8928434 16.720703 6.796875 C 16.933988 6.7084327 17.142426 6.5822979 17.314453 6.40625 C 17.695398 6.0163968 17.789679 5.6307838 17.876953 5.234375 C 17.964227 4.8379662 18 4.4205334 18 4 C 18 3.5794666 17.964227 3.1620338 17.876953 2.765625 C 17.789679 2.3692162 17.695398 1.9836032 17.314453 1.59375 C 16.983941 1.2555125 16.522503 1.099418 16.140625 1.046875 C 15.758747 0.99433199 15.392291 1 14.931641 1 L 9.0683594 1 z M 9.0683594 3 L 14.931641 3 C 15.392291 3 15.71689 3.0066598 15.867188 3.0273438 L 15.869141 3.0273438 C 15.887236 3.0700087 15.908929 3.1276502 15.923828 3.1953125 C 15.969979 3.4049332 16 3.7035234 16 4 C 16 4.2964766 15.969978 4.5950663 15.923828 4.8046875 C 15.908932 4.8723492 15.887236 4.9299912 15.869141 4.9726562 L 15.867188 4.9726562 C 15.716888 4.9933355 15.392291 5 14.931641 5 L 9.0683594 5 C 8.6077094 5 8.2831305 4.9933402 8.1328125 4.9726562 L 8.1308594 4.9726562 C 8.1127636 4.9299913 8.0910697 4.8723494 8.0761719 4.8046875 C 8.0300205 4.5950698 8 4.2964743 8 4 C 8 3.7035257 8.0300201 3.4049307 8.0761719 3.1953125 C 8.091069 3.1276505 8.1127638 3.0700086 8.1308594 3.0273438 L 8.1328125 3.0273438 C 8.2831305 3.0066624 8.6077094 3 9.0683594 3 z M 9.4296875 7 L 14.570312 7 C 14.410892 7.9229307 14.58011 8.882178 15.060547 9.703125 C 15.188384 9.9215561 15.319896 10.093739 15.541016 10.388672 L 15.945312 10.927734 C 16.394165 11.526327 16.579685 11.782718 16.6875 12 C 16.811101 12.249229 16.898692 12.513859 16.949219 12.787109 C 16.993456 13.026111 17 13.341697 17 14.091797 L 17 16 C 17 17.4142 16.993 18.454553 16.898438 19.158203 C 16.803828 19.861853 16.66374 20.164385 16.414062 20.414062 C 16.164386 20.66374 15.861853 20.803832 15.158203 20.898438 C 14.454553 20.993043 13.4142 21 12 21 C 10.585785 21 9.5454503 20.993043 8.8417969 20.898438 C 8.1381434 20.803832 7.8356017 20.663732 7.5859375 20.414062 C 7.3362677 20.164388 7.1961666 19.861855 7.1015625 19.158203 C 7.0069584 18.454551 7 17.4142 7 16 L 7 14.091797 C 7 13.341697 7.0065503 13.02616 7.0507812 12.787109 C 7.1013553 12.513768 7.1889005 12.249165 7.3125 12 C 7.4204831 11.782365 7.6046036 11.527853 8.0546875 10.927734 L 8.4589844 10.388672 C 8.6802852 10.093617 8.8117122 9.9214173 8.9394531 9.703125 C 9.4198434 8.8822024 9.5891241 7.9229633 9.4296875 7 z M 12 12 A 1 1 0 0 0 11 13 L 11 14.5 L 9.5 14.5 A 1 1 0 0 0 8.5 15.5 A 1 1 0 0 0 9.5 16.5 L 11 16.5 L 11 18 A 1 1 0 0 0 12 19 A 1 1 0 0 0 13 18 L 13 16.5 L 14.5 16.5 A 1 1 0 0 0 15.5 15.5 A 1 1 0 0 0 14.5 14.5 L 13 14.5 L 13 13 A 1 1 0 0 0 12 12 z " fill="currentColor"/>
</svg>
