<svg xmlns="http://www.w3.org/2000/svg" width="1em" height="1em" viewBox="0 0 24 24" fill="currentColor">
  <path d="M 13.126953 1.0058594 C 12.837385 0.99906725 12.545863 1.0132471 12.255859 1.0488281 C 11.482517 1.143711 10.714781 1.3920122 10 1.8046875 C 7.1409149 3.455389 6.153975 7.1409046 7.8046875 10 C 9.4554051 12.859036 13.140865 13.846032 16 12.195312 C 18.859029 10.544608 19.846044 6.859106 18.195312 4 C 17.112031 2.1237213 15.15393 1.0534043 13.126953 1.0058594 z M 12.964844 2.9980469 C 14.019306 2.9979642 15.02401 3.4582297 15.791016 4.234375 L 9.2109375 8.0332031 C 8.7414895 6.3210736 9.3848163 4.4696406 11 3.5371094 C 11.480769 3.2595397 11.994208 3.0923953 12.509766 3.0273438 C 12.661853 3.0081538 12.814206 2.9980587 12.964844 2.9980469 z M 16.789062 5.9667969 C 17.258501 7.6789234 16.615146 9.530361 15 10.462891 C 13.384642 11.395516 11.457001 11.028497 10.208984 9.765625 L 16.789062 5.9667969 z M 4 13 A 1 1 0 0 0 3 14 A 1 1 0 0 0 4 15 L 6.3945312 15 C 6.5384179 15 6.6804595 15.0327 6.8066406 15.09375 L 8.8476562 16.082031 C 9.2478399 16.275666 9.6866729 16.375 10.130859 16.375 L 11.173828 16.375 C 11.320753 16.375 11.308878 16.551176 11.423828 16.607422 L 10.126953 16.964844 C 9.9052963 17.026114 9.6644163 17.00472 9.4609375 16.90625 L 7.2773438 15.849609 A 1 1 0 0 0 5.9414062 16.314453 A 1 1 0 0 0 6.40625 17.650391 L 8.5898438 18.707031 C 9.2343649 19.018955 9.9701534 19.083308 10.660156 18.892578 L 13.199219 18.191406 C 13.623999 18.074375 13.954572 17.692544 13.996094 17.238281 L 17.886719 16.044922 A 1.0001 1.0001 0 0 0 17.890625 16.042969 C 18.295086 15.916941 18.71709 16.054869 18.986328 16.427734 C 19.01255 16.464044 18.996722 16.511391 18.980469 16.525391 L 18.978516 16.527344 L 11.462891 20.865234 C 11.218829 21.006055 10.943181 21.037176 10.679688 20.958984 L 4.2851562 19.060547 A 1 1 0 0 0 3.0410156 19.736328 A 1 1 0 0 0 3.7148438 20.978516 L 10.111328 22.876953 C 10.899233 23.110762 11.750953 23.006482 12.462891 22.595703 L 19.978516 18.259766 C 21.034909 17.650157 21.315519 16.240215 20.607422 15.257812 C 19.85666 14.218079 18.518861 13.753393 17.294922 14.134766 L 13.324219 15.355469 C 12.800961 14.755078 12.023762 14.375 11.173828 14.375 L 10.130859 14.375 C 9.9867466 14.375 9.8447463 14.34221 9.71875 14.28125 L 7.6777344 13.292969 C 7.2777355 13.099423 6.8389448 13 6.3945312 13 L 4 13 z " fill="currentColor"/>
</svg>
