<svg xmlns="http://www.w3.org/2000/svg" width="1em" height="1em" viewBox="0 0 24 24" fill="currentColor">
  <path d="M 14.115234 1 C 13.751393 1.0047553 13.390298 1.0832817 13.029297 1.1933594 C 12.451695 1.3694836 11.822594 1.6369479 10.998047 1.9824219 L 3.6425781 5.0664062 A 1.0001 1.0001 0 0 0 3.6191406 5.0761719 L 3.6132812 5.078125 A 1 1 0 0 0 3.6054688 5.0820312 A 1.0001 1.0001 0 0 0 3.4960938 5.1367188 A 1.0001 1.0001 0 0 0 3.3886719 5.2089844 A 1 1 0 0 0 3.3847656 5.2128906 A 1.0001 1.0001 0 0 0 3.2949219 5.2910156 A 1 1 0 0 0 3.2617188 5.328125 A 1.0001 1.0001 0 0 0 3.2050781 5.3945312 A 1.0001 1.0001 0 0 0 3.1328125 5.5039062 A 1.0001 1.0001 0 0 0 3.0761719 5.6171875 A 1 1 0 0 0 3.0625 5.65625 A 1.0001 1.0001 0 0 0 3.0097656 5.8671875 A 1 1 0 0 0 3.0019531 5.9824219 A 1.0001 1.0001 0 0 0 3 6 A 1 1 0 0 0 3 6.0039062 L 3 18 C 3 18.9428 2.9935802 19.670214 3.0820312 20.328125 C 3.1704863 20.986036 3.3963405 21.63852 3.8789062 22.121094 C 4.3614738 22.603678 5.0139596 22.829512 5.671875 22.917969 C 6.3297907 23.006425 7.05719 23 8 23 L 16 23 C 16.9428 23 17.670212 23.006399 18.328125 22.917969 C 18.986038 22.829509 19.638521 22.603666 20.121094 22.121094 C 20.603666 21.638521 20.829512 20.986038 20.917969 20.328125 C 21.006425 19.670211 21 18.9428 21 18 L 21 10 C 21 9.05719 21.006425 8.3297912 20.917969 7.671875 C 20.829512 7.0139588 20.603673 6.3614772 20.121094 5.8789062 C 19.638518 5.3963472 18.986034 5.1704843 18.328125 5.0820312 C 17.922367 5.0274788 17.490902 5.0080939 16.998047 5.0019531 C 16.993214 4.5567578 16.979248 4.1688964 16.943359 3.8105469 C 16.883011 3.2079603 16.749722 2.6390052 16.380859 2.15625 C 15.978747 1.6301202 15.413053 1.2514632 14.773438 1.0800781 C 14.553143 1.0210445 14.333539 0.99714681 14.115234 1 z M 14.130859 3 C 14.191199 2.9980579 14.229891 3.0047598 14.255859 3.0117188 C 14.468044 3.0685738 14.655928 3.1943434 14.791016 3.3710938 C 14.836256 3.4302987 14.909948 3.5786372 14.953125 4.0097656 C 14.978306 4.2611989 14.990671 4.5907742 14.996094 5 L 8.9746094 5 L 11.771484 3.828125 C 12.596037 3.4826489 13.202183 3.2327751 13.613281 3.1074219 C 13.870218 3.0290761 14.030293 3.0032369 14.130859 3 z M 5 7 L 16 7 C 16.9428 7 17.629206 7.0064601 18.060547 7.0644531 C 18.491888 7.1224451 18.603807 7.1897479 18.707031 7.2929688 C 18.810252 7.3961878 18.877553 7.5061587 18.935547 7.9375 C 18.99354 8.3688414 19 9.05719 19 10 L 19 18 C 19 18.9428 18.993497 19.62921 18.935547 20.060547 C 18.877557 20.491884 18.810259 20.603804 18.707031 20.707031 C 18.603804 20.810259 18.491884 20.877553 18.060547 20.935547 C 17.629207 20.99354 16.9428 21 16 21 L 8 21 C 7.05719 21 6.3707927 20.99354 5.9394531 20.935547 C 5.5081136 20.877553 5.3961812 20.810247 5.2929688 20.707031 C 5.1897445 20.603805 5.1224458 20.491886 5.0644531 20.060547 C 5.0064604 19.629208 5 18.9428 5 18 L 5 7 z M 12 9 A 1 1 0 0 0 11 10 L 11 10.203125 C 9.6210532 10.571921 8.5719207 11.621053 8.203125 13 L 8 13 A 1 1 0 0 0 7 14 A 1 1 0 0 0 8 15 L 9 15 L 15 15 L 16 15 A 1 1 0 0 0 17 14 A 1 1 0 0 0 16 13 L 15.796875 13 C 15.428079 11.621053 14.378947 10.571921 13 10.203125 L 13 10 A 1 1 0 0 0 12 9 z M 12 12 C 12.722842 12 13.238848 12.43588 13.589844 13 L 10.410156 13 C 10.761152 12.43588 11.277158 12 12 12 z M 8 17 A 1 1 0 0 0 7 18 A 1 1 0 0 0 8 19 L 16 19 A 1 1 0 0 0 17 18 A 1 1 0 0 0 16 17 L 8 17 z " fill="currentColor"/>
</svg>
