<svg xmlns="http://www.w3.org/2000/svg" width="1em" height="1em" viewBox="0 0 24 24" fill="currentColor">
  <path d="M 18.435547 1.0019531 A 1.0001 1.0001 0 0 0 17.945312 1.1679688 C 17.945312 1.1679688 16.666667 2 15 2 A 1.0001 1.0001 0 0 0 14 3 L 14 5.5 C 14 7.5833333 15.095753 9.0347771 16.132812 9.8496094 C 17.169873 10.664442 18.224609 10.960937 18.224609 10.960938 A 1.0001 1.0001 0 0 0 18.775391 10.960938 C 18.775391 10.960938 19.830129 10.664442 20.867188 9.8496094 C 21.904248 9.0347771 23 7.5833333 23 5.5 L 23 3 A 1.0001 1.0001 0 0 0 22 2 C 20.333333 2 19.054688 1.1679688 19.054688 1.1679688 A 1.0001 1.0001 0 0 0 18.435547 1.0019531 z M 11.484375 2.0039062 C 10.905917 2.0125263 10.330923 2.0345556 9.7636719 2.0722656 C 5.0807131 2.3835591 1.3485625 6.1776356 1.0429688 10.90625 C 0.98645375 11.780785 0.98645375 12.680152 1.0429688 13.554688 C 1.1578802 15.332672 1.9159237 16.898054 2.765625 18.183594 C 2.9531701 18.563928 2.8273377 19.251772 2.4160156 20.03125 C 2.2406108 20.363609 2.0955959 20.622678 1.9824219 20.939453 C 1.8692479 21.256228 1.788764 21.790193 2.0527344 22.240234 C 2.2851457 22.636608 2.7650742 22.871894 3.0839844 22.933594 C 3.4028945 22.995294 3.6600508 22.990397 3.9746094 22.998047 C 5.4185965 23.033207 6.5369888 22.58369 7.3417969 21.990234 C 7.4698263 21.895802 7.5415285 21.846134 7.5722656 21.820312 C 7.6688939 21.857542 7.7874009 21.904308 7.9628906 21.976562 C 8.5412459 22.214744 9.1630863 22.34875 9.7636719 22.388672 C 11.233799 22.486322 12.763205 22.486532 14.236328 22.388672 C 18.919265 22.077334 22.651405 18.283319 22.957031 13.554688 C 22.990431 13.037705 23.004027 12.51225 22.998047 11.988281 A 1 1 0 0 0 21.986328 11 A 1 1 0 0 0 20.998047 12.011719 C 21.003447 12.48595 20.990947 12.961362 20.960938 13.425781 C 20.718165 17.18195 17.786578 20.147716 14.103516 20.392578 C 12.722439 20.484318 11.274757 20.484128 9.8964844 20.392578 C 9.5161899 20.3673 9.0670341 20.267972 8.7246094 20.126953 C 8.468556 20.021531 8.273243 19.939589 8.0839844 19.873047 C 7.8952002 19.806671 7.7307112 19.708122 7.3242188 19.757812 L 7.3222656 19.757812 C 6.6138576 19.845523 6.5316236 20.100596 6.1542969 20.378906 C 5.6686633 20.737006 5.0857491 20.932716 4.1914062 20.949219 C 4.7406201 19.904241 5.2280838 18.502554 4.5039062 17.191406 A 1.0001 1.0001 0 0 0 4.4609375 17.121094 C 3.7135243 15.998692 3.1225482 14.717527 3.0390625 13.425781 C 2.9882775 12.639916 2.9882775 11.821021 3.0390625 11.035156 C 3.2818061 7.2790089 6.2134232 4.3131859 9.8964844 4.0683594 C 10.428234 4.0330094 10.970683 4.0120265 11.515625 4.0039062 A 1 1 0 0 0 12.5 2.9882812 A 1 1 0 0 0 11.484375 2.0039062 z M 18.5 3.1132812 C 18.948721 3.363894 19.773381 3.6032977 21 3.7988281 L 21 5.5 C 21 6.9166667 20.345753 7.7152229 19.632812 8.2753906 C 19.059103 8.7261622 18.6974 8.8223103 18.5 8.890625 C 18.3026 8.8223103 17.940897 8.7261622 17.367188 8.2753906 C 16.654248 7.7152229 16 6.9166667 16 5.5 L 16 3.7988281 C 17.226619 3.6032977 18.051279 3.363894 18.5 3.1132812 z M 8.5 9 A 1 1 0 0 0 7.5 10 A 1 1 0 0 0 8.5 11 L 11 11 A 1 1 0 0 0 12 10 A 1 1 0 0 0 11 9 L 8.5 9 z M 8.5 14 A 1 1 0 0 0 7.5 15 A 1 1 0 0 0 8.5 16 L 15.5 16 A 1 1 0 0 0 16.5 15 A 1 1 0 0 0 15.5 14 L 8.5 14 z " fill="currentColor"/>
</svg>
