<svg xmlns="http://www.w3.org/2000/svg" width="1em" height="1em" viewBox="0 0 24 24" fill="currentColor">
  <path d="M 16.058594 1.0273438 C 15.555645 1.0632021 15.024689 1.2155884 14.501953 1.5273438 C 13.411065 2.177886 12.843144 3.5153373 13.039062 4.9355469 C 13.234981 6.3557565 14.162996 7.8577453 15.951172 9.1445312 C 16.260412 9.3670538 16.51954 9.5608913 16.849609 9.7265625 C 17.179679 9.8922337 17.59349 10 18 10 C 18.40651 10 18.820321 9.8922337 19.150391 9.7265625 C 19.48046 9.5608913 19.739588 9.3670538 20.048828 9.1445312 C 21.837004 7.8577453 22.765019 6.3557565 22.960938 4.9355469 C 23.156856 3.5153373 22.588935 2.177886 21.498047 1.5273438 C 20.179475 0.74095798 18.845323 1.0057792 18 1.5449219 C 17.601504 1.2907633 17.122001 1.0723822 16.550781 1.0292969 C 16.390656 1.0172192 16.226243 1.015391 16.058594 1.0273438 z M 10.984375 2.0039062 C 10.397077 2.0126563 10.290862 2.0372196 9.7636719 2.0722656 C 5.0807131 2.3835591 1.3485625 6.1776356 1.0429688 10.90625 C 0.98645375 11.780785 0.98645375 12.680152 1.0429688 13.554688 C 1.1578802 15.332672 1.9159237 16.898054 2.765625 18.183594 C 2.9531701 18.563928 2.8273377 19.251772 2.4160156 20.03125 C 2.2406108 20.363609 2.0955959 20.622678 1.9824219 20.939453 C 1.8692479 21.256228 1.788764 21.790193 2.0527344 22.240234 C 2.2851457 22.636608 2.7650742 22.871894 3.0839844 22.933594 C 3.4028945 22.995294 3.6600508 22.990397 3.9746094 22.998047 C 5.4185965 23.033207 6.5369888 22.58369 7.3417969 21.990234 C 7.4698263 21.895802 7.5415285 21.846134 7.5722656 21.820312 C 7.6688939 21.857542 7.7874009 21.904308 7.9628906 21.976562 C 8.5412459 22.214744 9.1630863 22.34875 9.7636719 22.388672 C 11.233799 22.486322 12.763205 22.486532 14.236328 22.388672 C 18.919265 22.077334 22.651405 18.283319 22.957031 13.554688 C 23.001591 12.864797 23.011968 12.159414 22.986328 11.462891 C 22.979428 11.276863 22.968941 11.090937 22.957031 10.90625 A 1 1 0 0 0 21.894531 9.9726562 A 1 1 0 0 0 20.960938 11.035156 C 20.971628 11.201069 20.980058 11.368537 20.986328 11.537109 C 21.009478 12.165986 21.000978 12.805872 20.960938 13.425781 C 20.718165 17.18195 17.786578 20.147716 14.103516 20.392578 C 12.722439 20.484318 11.274757 20.484128 9.8964844 20.392578 C 9.5161906 20.3673 9.0670341 20.267972 8.7246094 20.126953 C 8.468556 20.021531 8.273243 19.939589 8.0839844 19.873047 C 7.8952002 19.806671 7.7307112 19.708122 7.3242188 19.757812 L 7.3222656 19.757812 C 6.6138576 19.845523 6.5316236 20.100596 6.1542969 20.378906 C 5.6686633 20.737006 5.0857491 20.932716 4.1914062 20.949219 C 4.7406201 19.904241 5.2280838 18.502554 4.5039062 17.191406 A 1.0001 1.0001 0 0 0 4.4609375 17.121094 C 3.7135243 15.998692 3.1225482 14.717527 3.0390625 13.425781 C 2.9882775 12.639916 2.9882775 11.821021 3.0390625 11.035156 C 3.2818061 7.2790089 6.2134232 4.3131859 9.8964844 4.0683594 C 10.468295 4.0303462 10.479523 4.0118949 11.015625 4.0039062 A 1 1 0 0 0 12 2.9882812 A 1 1 0 0 0 10.984375 2.0039062 z M 16.339844 2.9804688 C 16.371192 2.9805944 16.402094 2.9814601 16.431641 2.984375 C 16.668016 3.007694 16.847744 3.1143598 16.996094 3.2226562 C 17.111398 3.3068443 17.2013 3.3759486 17.316406 3.4492188 C 17.431513 3.5224887 17.552236 3.6679687 18 3.6679688 C 18.447764 3.6679687 18.568487 3.5224887 18.683594 3.4492188 C 18.7987 3.3759488 18.888602 3.3068439 19.003906 3.2226562 C 19.300605 3.0060633 19.721418 2.7980616 20.472656 3.2460938 C 20.789568 3.4350816 21.085125 3.9034615 20.980469 4.6621094 C 20.875813 5.4207573 20.339784 6.4716302 18.880859 7.5214844 C 18.571599 7.7440218 18.365234 7.8825943 18.251953 7.9394531 C 18.138672 7.9963124 18.12999 8 18 8 C 17.87001 8 17.861328 7.9963119 17.748047 7.9394531 C 17.634766 7.8825943 17.428401 7.7440218 17.119141 7.5214844 C 15.660216 6.4716302 15.124187 5.4207573 15.019531 4.6621094 C 14.914875 3.9034615 15.210432 3.4350815 15.527344 3.2460938 C 15.85601 3.0500795 16.120407 2.9795894 16.339844 2.9804688 z M 8.5 9 A 1 1 0 0 0 7.5 10 A 1 1 0 0 0 8.5 11 L 12 11 A 1 1 0 0 0 13 10 A 1 1 0 0 0 12 9 L 8.5 9 z M 8.5 14 A 1 1 0 0 0 7.5 15 A 1 1 0 0 0 8.5 16 L 15.5 16 A 1 1 0 0 0 16.5 15 A 1 1 0 0 0 15.5 14 L 8.5 14 z " fill="currentColor"/>
</svg>
