<svg xmlns="http://www.w3.org/2000/svg" width="1em" height="1em" viewBox="0 0 24 24" fill="currentColor">
  <path d="M 18.986328 1 A 1 1 0 0 0 18.283203 1.3027344 A 1 1 0 0 0 18.302734 2.7167969 C 18.7058 3.108596 19.306679 3.5397987 19.873047 4 L 15 4 A 1 1 0 0 0 14 5 A 1 1 0 0 0 15 6 L 19.873047 6 C 19.306679 6.4602013 18.705799 6.891404 18.302734 7.2832031 A 1 1 0 0 0 18.283203 8.6972656 A 1 1 0 0 0 19.697266 8.7167969 C 19.847466 8.5707942 20.656924 7.9642232 21.373047 7.3574219 C 21.731108 7.0540212 22.080894 6.7362756 22.376953 6.3886719 C 22.673011 6.0410684 23 5.6847562 23 5 C 23 4.3152438 22.673012 3.9589319 22.376953 3.6113281 C 22.080894 3.2637244 21.731108 2.9459788 21.373047 2.6425781 C 20.656924 2.0357768 19.847466 1.4292058 19.697266 1.2832031 A 1 1 0 0 0 18.986328 1 z M 12 2 C 7.8956774 2 5.0683206 3.0757926 3.3183594 4.9550781 C 1.5683982 6.8343637 1 9.3716905 1 12 C 1 14.183 1.3842128 16.28952 2.5253906 18.033203 C 3.5580701 19.670817 2.8967566 20.865367 2.4433594 21.169922 A 1.0001 1.0001 0 0 0 3 23 C 4.8276683 23 6.1514019 22.397151 6.9863281 21.78125 C 7.2765652 21.567124 7.6103806 21.491656 7.859375 21.552734 C 9.0616146 21.847522 10.433939 22 12 22 C 15.754704 22 18.559144 20.917018 20.386719 19.066406 C 22.214293 17.215794 23 14.677577 23 12 C 23 11.277977 22.962781 10.565641 22.873047 9.8710938 A 1 1 0 0 0 21.753906 9.0078125 A 1 1 0 0 0 20.888672 10.128906 C 20.965138 10.720759 21 11.347223 21 12 C 21 14.293023 20.352116 16.255372 18.962891 17.662109 C 17.573665 19.068847 15.378096 20 12 20 C 10.564261 20 9.3506779 19.858188 8.3359375 19.609375 C 7.4018919 19.380253 6.488851 19.662801 5.7988281 20.171875 C 5.5818269 20.331951 5.2703195 20.481928 4.9414062 20.621094 C 5.1769068 19.526668 5.0203351 18.241041 4.2167969 16.966797 A 1.0001 1.0001 0 0 0 4.2070312 16.949219 C 3.3546991 15.654546 3 13.951997 3 12 C 3 9.6577495 3.4980087 7.6964338 4.78125 6.3183594 C 6.0644913 4.9402849 8.2371326 4 12 4 A 1 1 0 0 0 13 3 A 1 1 0 0 0 12 2 z M 8 10.75 C 7.3216244 10.75 6.75 11.321567 6.75 12 C 6.75 12.678433 7.3216244 13.25 8 13.25 C 8.6783756 13.25 9.25 12.678433 9.25 12 C 9.25 11.321567 8.6783756 10.75 8 10.75 z M 12 10.75 C 11.32142 10.75 10.75 11.321229 10.75 12 C 10.75 12.678771 11.32142 13.25 12 13.25 C 12.678288 13.25 13.25 12.678288 13.25 12 C 13.25 11.321712 12.678288 10.75 12 10.75 z M 16 10.75 C 15.321712 10.75 14.75 11.321712 14.75 12 C 14.75 12.678288 15.321712 13.25 16 13.25 C 16.678288 13.25 17.25 12.678288 17.25 12 C 17.25 11.321712 16.678288 10.75 16 10.75 z " fill="currentColor"/>
</svg>
