<svg xmlns="http://www.w3.org/2000/svg" width="1em" height="1em" viewBox="0 0 24 24" fill="currentColor">
  <path d="M 16 1 A 1 1 0 0 0 15.292969 1.2929688 A 1 1 0 0 0 15.292969 2.7070312 L 17.585938 5 L 15.292969 7.2929688 A 1 1 0 0 0 15.292969 8.7070312 A 1 1 0 0 0 16.707031 8.7070312 L 19 6.4140625 L 21.292969 8.7070312 A 1 1 0 0 0 22.707031 8.7070312 A 1 1 0 0 0 22.707031 7.2929688 L 20.414062 5 L 22.707031 2.7070312 A 1 1 0 0 0 22.707031 1.2929688 A 1 1 0 0 0 21.292969 1.2929688 L 19 3.5859375 L 16.707031 1.2929688 A 1 1 0 0 0 16 1 z M 12.515625 2.0039062 C 11.593791 1.990178 10.66722 2.0141611 9.7636719 2.0742188 C 5.0807115 2.3855122 1.3485633 6.1776894 1.0429688 10.90625 C 0.98645345 11.78079 0.98645345 12.680147 1.0429688 13.554688 C 1.1578805 15.332677 1.9159 16.898122 2.765625 18.183594 C 2.9531601 18.56393 2.8273327 19.251782 2.4160156 20.03125 C 2.2406156 20.36365 2.095588 20.62268 1.9824219 20.939453 C 1.8692557 21.256226 1.788764 21.790193 2.0527344 22.240234 C 2.2851972 22.63653 2.7651094 22.871878 3.0839844 22.933594 C 3.4028594 22.995314 3.6599978 22.990397 3.9746094 22.998047 C 5.4186501 23.033207 6.537041 22.583651 7.3417969 21.990234 C 7.4698484 21.89582 7.5415142 21.846136 7.5722656 21.820312 C 7.6688886 21.857533 7.7874902 21.904315 7.9628906 21.976562 C 8.5413604 22.214792 9.1632214 22.348759 9.7636719 22.388672 C 11.233847 22.486432 12.763157 22.486632 14.236328 22.388672 C 18.919296 22.077444 22.651403 18.283228 22.957031 13.554688 C 23.001591 12.864797 23.011968 12.159414 22.986328 11.462891 A 1 1 0 0 0 21.949219 10.5 A 1 1 0 0 0 20.986328 11.537109 C 21.009478 12.165986 21.000978 12.805872 20.960938 13.425781 C 20.718166 17.18184 17.786547 20.147806 14.103516 20.392578 C 12.722486 20.484418 11.274709 20.484218 9.8964844 20.392578 C 9.5160539 20.367291 9.0669196 20.267925 8.7246094 20.126953 C 8.4684788 20.021449 8.273243 19.939589 8.0839844 19.873047 C 7.8947258 19.806505 7.7323188 19.707648 7.3242188 19.757812 C 6.612743 19.845264 6.5319776 20.100435 6.1542969 20.378906 C 5.6686152 20.737042 5.0857077 20.932707 4.1914062 20.949219 C 4.74062 19.904241 5.2280839 18.502554 4.5039062 17.191406 A 1.0001 1.0001 0 0 0 4.4609375 17.121094 C 3.7135461 15.998817 3.1225482 14.717527 3.0390625 13.425781 C 2.9882775 12.639921 2.9882775 11.821016 3.0390625 11.035156 C 3.2818083 7.2790751 6.2134247 4.3131858 9.8964844 4.0683594 C 10.743536 4.012057 11.616009 3.9909744 12.484375 4.0039062 A 1 1 0 0 0 13.5 3.0195312 A 1 1 0 0 0 12.515625 2.0039062 z M 8.5 9 A 1 1 0 0 0 7.5 10 A 1 1 0 0 0 8.5 11 L 12 11 A 1 1 0 0 0 13 10 A 1 1 0 0 0 12 9 L 8.5 9 z M 8.5 14 A 1 1 0 0 0 7.5 15 A 1 1 0 0 0 8.5 16 L 15.5 16 A 1 1 0 0 0 16.5 15 A 1 1 0 0 0 15.5 14 L 8.5 14 z " fill="currentColor"/>
</svg>
