<svg xmlns="http://www.w3.org/2000/svg" width="1em" height="1em" viewBox="0 0 24 24" fill="currentColor">
  <path d="M 19 1 A 1 1 0 0 0 18 2 L 18 6.8769531 C 17.538677 6.309516 17.109311 5.7065884 16.716797 5.3027344 A 1 1 0 0 0 15.302734 5.2832031 A 1 1 0 0 0 15.28125 6.6972656 C 15.427304 6.8475395 16.03577 7.6588768 16.642578 8.375 C 16.945982 8.7330616 17.263717 9.0808963 17.611328 9.3769531 C 17.958935 9.6730096 18.315261 10 19 10 C 19.684739 10 20.041068 9.673012 20.388672 9.3769531 C 20.736276 9.0808942 21.052074 8.7330591 21.355469 8.375 C 21.962259 7.6588817 22.570778 6.8474772 22.716797 6.6972656 A 1 1 0 0 0 22.695312 5.2832031 A 1 1 0 0 0 21.28125 5.3027344 C 20.88944 5.705796 20.460153 6.3067192 20 6.8730469 L 20 2 A 1 1 0 0 0 19 1 z M 12 2 C 7.8956726 2 5.0663714 3.075793 3.3164062 4.9550781 C 1.566441 6.8343632 1 9.3716898 1 12 C 1 14.190403 1.3849405 16.303654 2.5351562 18.050781 C 3.5519005 19.679272 2.893172 20.866466 2.4414062 21.169922 A 1.0001 1.0001 0 0 0 3 23 C 4.8276683 23 6.1494451 22.397154 6.984375 21.78125 C 7.2745957 21.567131 7.6103806 21.491656 7.859375 21.552734 C 9.0616173 21.847522 10.433939 22 12 22 C 15.754704 22 18.557191 20.917018 20.384766 19.066406 C 22.21234 17.215794 23 14.677577 23 12 A 1 1 0 0 0 22 11 A 1 1 0 0 0 21 12 C 21 14.293023 20.352116 16.255372 18.962891 17.662109 C 17.573665 19.068847 15.378096 20 12 20 C 10.564261 20 9.3506752 19.858187 8.3359375 19.609375 C 7.4018919 19.380253 6.4868943 19.662794 5.796875 20.171875 C 5.5795663 20.332177 5.2690186 20.4818 4.9394531 20.621094 C 5.1749906 19.526646 5.0203606 18.241081 4.2167969 16.966797 A 1.0001 1.0001 0 0 0 4.2050781 16.949219 C 3.3527341 15.654548 3 13.951997 3 12 C 3 9.6577502 3.4980051 7.6964343 4.78125 6.3183594 C 6.0644949 4.9402845 8.2371274 4 12 4 C 12.330405 4 12.648196 4.0059903 12.955078 4.0195312 A 1 1 0 0 0 13.998047 3.0664062 A 1 1 0 0 0 13.042969 2.0214844 C 12.705251 2.0065842 12.358395 2 12 2 z M 8 10.75 C 7.3216244 10.75 6.75 11.321567 6.75 12 C 6.75 12.678433 7.3216244 13.25 8 13.25 C 8.6783756 13.25 9.25 12.678433 9.25 12 C 9.25 11.321567 8.6783756 10.75 8 10.75 z M 11.998047 10.75 C 11.319467 10.75 10.748047 11.321229 10.748047 12 C 10.748047 12.678771 11.319467 13.25 11.998047 13.25 C 12.676335 13.25 13.248047 12.678288 13.248047 12 C 13.248047 11.321712 12.676335 10.75 11.998047 10.75 z M 16 10.75 C 15.321712 10.75 14.75 11.321712 14.75 12 C 14.75 12.678288 15.321712 13.25 16 13.25 C 16.678288 13.25 17.25 12.678288 17.25 12 C 17.25 11.321712 16.678288 10.75 16 10.75 z " fill="currentColor"/>
</svg>
