<svg xmlns="http://www.w3.org/2000/svg" width="1em" height="1em" viewBox="0 0 24 24" fill="currentColor">
  <path d="M 10.458984 1 C 8.3871048 1 6.814318 0.9930519 5.5097656 1.1699219 C 4.2052133 1.3467918 3.0974783 1.7514118 2.2890625 2.5996094 C 1.4806474 3.4478063 1.1351951 4.573723 1.0371094 5.8730469 C 0.93902357 7.1723707 1.0445894 8.7195471 1.1738281 10.757812 L 1.3535156 13.59375 C 1.4129256 14.530649 1.4350646 15.04717 1.5800781 15.585938 C 2.086005 17.465581 3.6324199 18.893878 5.5527344 19.271484 C 6.1015583 19.379426 6.6238519 19.369141 7.5761719 19.369141 C 7.7816986 19.369141 7.8720351 19.377601 7.8710938 19.375 C 7.8722034 19.375452 7.8760066 19.376475 7.8769531 19.376953 L 7.8789062 19.378906 L 7.8808594 19.380859 C 7.8808621 19.40557 7.8867187 19.494666 7.8867188 19.660156 L 7.8867188 20.550781 C 7.8867188 20.971531 7.8773386 21.302028 7.9316406 21.664062 C 7.9859376 22.026097 8.202075 22.582802 8.6933594 22.841797 C 9.1844613 23.100875 9.7563685 22.970741 10.087891 22.816406 C 10.419412 22.66207 10.693652 22.471682 11.048828 22.238281 L 15.277344 19.458984 C 15.363995 19.402083 15.399842 19.380467 15.408203 19.375 C 15.40978 19.37426 15.411497 19.373286 15.412109 19.373047 C 15.41374 19.372583 15.414296 19.373384 15.416016 19.373047 C 15.420669 19.373007 15.46421 19.369141 15.578125 19.369141 C 17.324125 19.369141 18.292909 19.400941 19.251953 19.044922 C 20.532333 18.569547 21.572188 17.608278 22.136719 16.371094 C 22.560621 15.442226 22.59032 14.48125 22.699219 12.763672 L 22.826172 10.757812 C 22.95542 8.71953 23.060979 7.1723697 22.962891 5.8730469 C 22.864802 4.5737241 22.519327 3.4478056 21.710938 2.5996094 C 20.902539 1.7514023 19.794787 1.3467919 18.490234 1.1699219 C 17.185681 0.99305178 15.612916 1 13.541016 1 L 10.458984 1 z M 10.458984 3 L 13.541016 3 C 15.612916 3 17.147859 3.0066199 18.222656 3.1523438 C 19.297453 3.2980637 19.840317 3.5383158 20.261719 3.9804688 C 20.683131 4.4226325 20.888613 4.9619128 20.96875 6.0234375 C 21.04889 7.0849622 20.95935 8.594551 20.830078 10.632812 L 20.703125 12.636719 C 20.594224 14.35434 20.514657 15.110883 20.318359 15.541016 C 19.97649 16.290231 19.344261 16.877497 18.556641 17.169922 C 18.100885 17.339107 17.324125 17.369141 15.578125 17.369141 C 15.429425 17.369141 15.309928 17.365542 15.144531 17.388672 C 14.938941 17.417342 14.738482 17.477642 14.550781 17.566406 C 14.3993 17.638006 14.301377 17.705913 14.177734 17.787109 L 9.9511719 20.566406 C 9.9196499 20.587116 9.9186289 20.585949 9.8886719 20.605469 C 9.8885924 20.578379 9.8867188 20.578971 9.8867188 20.550781 L 9.8867188 19.660156 C 9.8867188 19.411856 9.898955 19.240199 9.84375 18.978516 C 9.6769889 18.188228 9.0478711 17.573907 8.2617188 17.412109 L 8.2597656 17.412109 C 8.0012809 17.359219 7.8273171 17.369141 7.5761719 17.369141 C 6.6238519 17.369141 6.1949892 17.358854 5.9394531 17.308594 C 4.7535444 17.075405 3.8180118 16.204362 3.5117188 15.066406 C 3.4464122 14.823774 3.4090195 14.403698 3.3496094 13.466797 L 3.1699219 10.632812 C 3.0406819 8.5945469 2.9511157 7.0849611 3.03125 6.0234375 C 3.1113843 4.9619139 3.3168562 4.4226317 3.7382812 3.9804688 C 4.1597055 3.5383064 4.7025461 3.2980637 5.7773438 3.1523438 C 6.8521414 3.0066236 8.3871048 3 10.458984 3 z M 12.929688 6.0019531 A 1 1 0 0 0 12.050781 6.6835938 L 10.050781 12.683594 A 1 1 0 0 0 10.683594 13.949219 A 1 1 0 0 0 11.949219 13.316406 L 13.949219 7.3164062 A 1 1 0 0 0 13.316406 6.0507812 A 1 1 0 0 0 12.929688 6.0019531 z M 16.056641 7 A 1 1 0 0 0 15.925781 7.0019531 A 1 1 0 0 0 15.242188 7.3476562 A 1 1 0 0 0 15.347656 8.7578125 L 16.574219 9.8144531 C 16.683247 9.9084159 16.702922 9.9313084 16.779297 10 C 16.702927 10.06868 16.683237 10.0916 16.574219 10.185547 L 15.347656 11.242188 A 1 1 0 0 0 15.242188 12.652344 A 1 1 0 0 0 16.652344 12.757812 L 17.878906 11.701172 C 18.136796 11.478937 18.347793 11.304049 18.554688 11.070312 C 18.761584 10.836574 19 10.44929 19 10 C 19 9.5507352 18.761584 9.1634143 18.554688 8.9296875 C 18.347791 8.6959607 18.136771 8.521061 17.878906 8.2988281 L 16.652344 7.2421875 A 1 1 0 0 0 16.056641 7 z M 7.9433594 7.0019531 A 1 1 0 0 0 7.3476562 7.2421875 L 6.1210938 8.2988281 C 5.8632709 8.5210505 5.6521946 8.6959722 5.4453125 8.9296875 C 5.2384304 9.1634028 5 9.5507111 5 10 C 5 10.449314 5.2384315 10.836585 5.4453125 11.070312 C 5.6521935 11.304039 5.8632458 11.478948 6.1210938 11.701172 L 7.3476562 12.757812 A 1 1 0 0 0 8.7578125 12.652344 A 1 1 0 0 0 8.6523438 11.242188 L 7.4257812 10.185547 C 7.3167712 10.091597 7.297068 10.068687 7.2207031 10 C 7.297077 9.9313043 7.3167604 9.9084203 7.4257812 9.8144531 L 8.6523438 8.7578125 A 1 1 0 0 0 8.7578125 7.3476562 A 1 1 0 0 0 7.9433594 7.0019531 z " fill="currentColor"/>
</svg>
