<svg xmlns="http://www.w3.org/2000/svg" width="1em" height="1em" viewBox="0 0 24 24" fill="currentColor">
  <path d="M 9.3867188 1.0703125 C 4.9072564 1.3666619 1.3337306 4.9787263 1.0410156 9.4863281 C 0.98705292 10.317367 0.98705302 11.172858 1.0410156 12.003906 C 1.1514325 13.704181 1.8805991 15.196894 2.6933594 16.419922 C 2.8517272 16.758192 2.7375969 17.384983 2.3535156 18.109375 C 2.1865516 18.424273 2.0476401 18.669753 1.9375 18.976562 C 1.8275273 19.282906 1.7493735 19.812151 2.0097656 20.255859 C 2.2397629 20.646165 2.7135654 20.875847 3.0234375 20.935547 C 3.3333096 20.995247 3.5794234 20.990797 3.8789062 20.998047 C 5.2621529 21.031567 6.3385271 20.600398 7.1113281 20.033203 C 7.2241532 19.950426 7.2665493 19.912727 7.2753906 19.896484 L 7.2753906 19.894531 L 7.2753906 19.892578 L 7.2753906 19.890625 L 7.2753906 19.888672 C 7.3178828 19.89609 7.3525248 19.902074 7.4160156 19.927734 A 1 1 0 0 0 8.71875 19.375 A 1 1 0 0 0 8.1660156 18.072266 C 7.8256857 17.934711 7.7168036 17.744432 7.0625 17.824219 L 7.0605469 17.824219 C 6.3599205 17.910239 6.2886655 18.158502 5.9296875 18.421875 A 1.0001 1.0001 0 0 0 5.9277344 18.421875 C 5.4906747 18.742653 4.9411076 18.898243 4.1621094 18.929688 C 4.6690761 17.942312 5.106585 16.648233 4.4238281 15.417969 A 1.0001 1.0001 0 0 0 4.3808594 15.345703 C 3.67243 14.286931 3.1156384 13.082292 3.0371094 11.873047 C 2.9889324 11.131095 2.9889324 10.357175 3.0371094 9.6152344 C 3.2663744 6.0847162 6.0352535 3.2949637 9.5195312 3.0644531 C 10.829467 2.9777991 12.206867 2.9776151 13.519531 3.0644531 C 16.988944 3.2939871 19.750122 6.0614614 20 9.5703125 A 1 1 0 0 0 21.068359 10.498047 A 1 1 0 0 0 21.994141 9.4296875 C 21.675019 4.9484986 18.112725 1.3654026 13.652344 1.0703125 C 12.248008 0.9774103 10.788143 0.9776065 9.3867188 1.0703125 z M 14.632812 10.042969 C 11.640389 10.234928 9.2236258 12.587085 9.0253906 15.546875 A 1.0001 1.0001 0 0 0 9.0253906 15.548828 C 8.9901736 16.075385 8.9901736 16.614068 9.0253906 17.140625 C 9.2236258 20.100415 11.640365 22.452689 14.632812 22.644531 C 15.532975 22.702351 16.466869 22.702161 17.365234 22.644531 C 17.765965 22.618921 18.17061 22.536651 18.5625 22.380859 C 18.59266 22.368879 18.596357 22.367942 18.623047 22.357422 C 19.159814 22.727602 19.906982 23.019549 20.824219 22.998047 C 21.012924 22.993647 21.1755 23.000748 21.419922 22.955078 C 21.66397 22.909498 22.092942 22.712234 22.304688 22.365234 C 22.54901 21.963332 22.472504 21.471382 22.384766 21.234375 C 22.297026 20.997368 22.202913 20.842854 22.097656 20.650391 C 21.895336 20.280406 21.883358 20.051534 21.888672 20.001953 C 22.414279 19.227412 22.899062 18.266916 22.974609 17.140625 C 23.009769 16.614139 23.009769 16.075314 22.974609 15.548828 A 1.0001 1.0001 0 0 0 22.974609 15.546875 C 22.776374 12.587085 20.35961 10.234928 17.367188 10.042969 C 16.46831 9.9853227 15.533539 9.9852198 14.632812 10.042969 z M 14.761719 12.039062 C 15.573591 11.987013 16.42816 11.987113 17.238281 12.039062 C 19.265459 12.169102 20.847751 13.72923 20.978516 15.681641 C 21.007516 16.115914 21.007426 16.571524 20.978516 17.005859 C 20.936116 17.637969 20.624489 18.314337 20.201172 18.927734 A 1.0001 1.0001 0 0 0 20.15625 18.998047 C 19.79179 19.634649 19.871572 20.243904 20.044922 20.798828 C 19.962352 20.757578 19.808723 20.768591 19.730469 20.712891 C 19.503756 20.55161 19.490435 20.359279 18.851562 20.283203 C 18.480704 20.239043 18.358965 20.322947 18.228516 20.367188 C 18.098066 20.411438 17.977843 20.460447 17.824219 20.521484 C 17.663709 20.585294 17.425951 20.636446 17.238281 20.648438 C 16.42824 20.700478 15.573512 20.700578 14.761719 20.648438 C 12.734566 20.51848 11.152249 18.960224 11.021484 17.007812 C 10.992404 16.572969 10.992404 16.116484 11.021484 15.681641 C 11.152249 13.72923 12.734541 12.169103 14.761719 12.039062 z " fill="currentColor"/>
</svg>
