<svg xmlns="http://www.w3.org/2000/svg" width="1em" height="1em" viewBox="0 0 24 24" fill="currentColor">
  <path d="M 19 1 C 18.315261 1 17.958939 1.3269901 17.611328 1.6230469 C 17.263717 1.9191037 16.945982 2.2669384 16.642578 2.625 C 16.03577 3.3411232 15.429257 4.1524605 15.283203 4.3027344 A 1 1 0 0 0 15.302734 5.7167969 A 1 1 0 0 0 16.716797 5.6972656 C 17.108516 5.2942298 17.539799 4.6933143 18 4.1269531 L 18 9 A 1 1 0 0 0 19 10 A 1 1 0 0 0 20 9 L 20 4.1269531 C 20.460201 4.6933143 20.891485 5.2942301 21.283203 5.6972656 A 1 1 0 0 0 22.697266 5.7167969 A 1 1 0 0 0 22.716797 4.3027344 C 22.570744 4.1524608 21.96423 3.3411232 21.357422 2.625 C 21.054018 2.2669384 20.736283 1.9191037 20.388672 1.6230469 C 20.041061 1.3269901 19.684739 1 19 1 z M 12 2 C 7.8956774 2 5.0683206 3.0757926 3.3183594 4.9550781 C 1.5683982 6.8343637 1 9.3716905 1 12 C 1 14.183 1.3842128 16.28952 2.5253906 18.033203 C 3.5580701 19.670817 2.8967566 20.865367 2.4433594 21.169922 A 1.0001 1.0001 0 0 0 3 23 C 4.8276683 23 6.1514019 22.397151 6.9863281 21.78125 C 7.2765652 21.567124 7.6103806 21.491656 7.859375 21.552734 C 9.0616146 21.847522 10.433939 22 12 22 C 15.754704 22 18.559144 20.917018 20.386719 19.066406 C 22.214293 17.215794 23 14.677577 23 12 A 1 1 0 0 0 22 11 A 1 1 0 0 0 21 12 C 21 14.293023 20.352116 16.255372 18.962891 17.662109 C 17.573665 19.068847 15.378096 20 12 20 C 10.564261 20 9.3506779 19.858188 8.3359375 19.609375 C 7.4018919 19.380253 6.488851 19.662801 5.7988281 20.171875 C 5.5818269 20.331951 5.2703195 20.481928 4.9414062 20.621094 C 5.1769068 19.526668 5.0203351 18.241041 4.2167969 16.966797 A 1.0001 1.0001 0 0 0 4.2070312 16.949219 C 3.3546991 15.654546 3 13.951997 3 12 C 3 9.6577495 3.4980087 7.6964338 4.78125 6.3183594 C 6.0644913 4.9402849 8.2371326 4 12 4 C 12.330509 4 12.648186 4.0059903 12.955078 4.0195312 A 1 1 0 0 0 14 3.0664062 A 1 1 0 0 0 13.044922 2.0214844 C 12.707214 2.0065846 12.358491 2 12 2 z M 8 10.75 C 7.3216244 10.75 6.75 11.321567 6.75 12 C 6.75 12.678433 7.3216244 13.25 8 13.25 C 8.6783756 13.25 9.25 12.678433 9.25 12 C 9.25 11.321567 8.6783756 10.75 8 10.75 z M 12 10.75 C 11.32142 10.75 10.75 11.321229 10.75 12 C 10.75 12.678771 11.32142 13.25 12 13.25 C 12.678288 13.25 13.25 12.678288 13.25 12 C 13.25 11.321712 12.678288 10.75 12 10.75 z M 16 10.75 C 15.321712 10.75 14.75 11.321712 14.75 12 C 14.75 12.678288 15.321712 13.25 16 13.25 C 16.678288 13.25 17.25 12.678288 17.25 12 C 17.25 11.321712 16.678288 10.75 16 10.75 z " fill="currentColor"/>
</svg>
