<svg xmlns="http://www.w3.org/2000/svg" width="1em" height="1em" viewBox="0 0 24 24" fill="currentColor">
  <path d="M 20.349609 1.0058594 C 19.803426 1.0058529 19.257721 1.2107382 18.845703 1.6210938 A 1.0001 1.0001 0 0 0 18.84375 1.6210938 L 15.078125 5.3769531 C 14.720261 5.7333355 14.479812 6.1891975 14.386719 6.6855469 L 14.390625 6.6601562 L 14.03125 8.3359375 C 13.828641 9.2778029 14.730353 10.171462 15.667969 9.96875 L 17.332031 9.609375 C 17.828242 9.517077 18.286701 9.2764359 18.644531 8.9199219 A 1.0001 1.0001 0 0 0 18.648438 8.9140625 L 22.375 5.1484375 C 23.199011 4.3277332 23.199024 2.9613235 22.375 2.140625 L 21.853516 1.6210938 C 21.441528 1.2106658 20.895793 1.0058658 20.349609 1.0058594 z M 12 2 C 7.8956774 2 5.0683206 3.0757955 3.3183594 4.9550781 C 1.5683982 6.8343608 1 9.3716999 1 12 C 1 14.183093 1.3842236 16.289536 2.5253906 18.033203 C 3.5580621 19.670805 2.896618 20.865506 2.4433594 21.169922 A 1.0001 1.0001 0 0 0 3 23 C 4.8276683 23 6.1514019 22.397151 6.9863281 21.78125 C 7.276668 21.567107 7.6104838 21.491681 7.859375 21.552734 C 9.0617281 21.847658 10.433984 22 12 22 C 15.754704 22 18.559144 20.917018 20.386719 19.066406 C 22.214293 17.215794 23 14.677577 23 12 C 23 10.895117 22.913388 9.8149026 22.683594 8.7832031 A 1 1 0 0 0 21.490234 8.0234375 A 1 1 0 0 0 20.730469 9.2167969 C 20.918674 10.061777 21 11.001083 21 12 C 21 14.293023 20.352116 16.255372 18.962891 17.662109 C 17.573665 19.068847 15.378096 20 12 20 C 10.564216 20 9.3505644 19.860205 8.3359375 19.611328 C 7.4017887 19.382181 6.4887483 19.663018 5.7988281 20.171875 C 5.5818269 20.331951 5.2703195 20.481928 4.9414062 20.621094 C 5.1769082 19.526653 5.0203394 18.241048 4.2167969 16.966797 A 1.0001 1.0001 0 0 0 4.2070312 16.951172 C 3.354688 15.656486 3 13.952103 3 12 C 3 9.6577601 3.4980087 7.6964317 4.78125 6.3183594 C 6.0644913 4.940287 8.2371326 4 12 4 C 12.684999 4 13.319207 4.0293435 13.904297 4.0859375 A 1 1 0 0 0 14.996094 3.1875 A 1 1 0 0 0 14.095703 2.0957031 C 13.439993 2.0322776 12.743001 2 12 2 z M 20.349609 2.9941406 C 20.381473 2.9936684 20.412394 3.0082059 20.441406 3.0371094 A 1.0001 1.0001 0 0 0 20.441406 3.0390625 L 20.962891 3.5566406 C 21.021071 3.6145816 21.021081 3.6725129 20.962891 3.7304688 A 1.0001 1.0001 0 0 0 20.958984 3.7363281 L 17.228516 7.5058594 L 17.226562 7.5078125 C 17.155532 7.5766065 17.065621 7.6241962 16.966797 7.6425781 A 1.0001 1.0001 0 0 0 16.9375 7.6484375 L 16.189453 7.8105469 L 16.345703 7.0800781 A 1.0001 1.0001 0 0 0 16.351562 7.0546875 C 16.370072 6.9560165 16.418302 6.8646064 16.490234 6.7929688 L 20.255859 3.0390625 C 20.284939 3.010098 20.317746 2.9946129 20.349609 2.9941406 z M 8 10.75 C 7.3211415 10.75 6.75 11.321275 6.75 12 C 6.75 12.678433 7.3216244 13.25 8 13.25 C 8.6783756 13.25 9.25 12.678433 9.25 12 C 9.25 11.321275 8.6788585 10.75 8 10.75 z M 12 10.75 C 11.320937 10.75 10.75 11.320937 10.75 12 C 10.75 12.678771 11.32142 13.25 12 13.25 C 12.678288 13.25 13.25 12.678288 13.25 12 C 13.25 11.32142 12.678771 10.75 12 10.75 z " fill="currentColor"/>
</svg>
