<svg xmlns="http://www.w3.org/2000/svg" width="1em" height="1em" viewBox="0 0 24 24" fill="currentColor">
  <path d="M 18 1 C 16.354975 1 15 2.3550085 15 4 C 15 5.6155976 16.306993 6.9508215 17.912109 6.9980469 C 16.931869 7.0127962 15.954411 7.2749726 15.083984 7.7851562 C 14.842343 7.9267899 14.194606 8.2160045 13.646484 8.7441406 C 13.372423 9.0082087 13.071269 9.3797433 13.009766 9.9335938 C 12.948266 10.487444 13.233718 11.065161 13.632812 11.439453 C 14.220064 11.990189 15.03486 12.5 16.041016 12.5 L 19.958984 12.5 C 20.96514 12.5 21.779935 11.990189 22.367188 11.439453 C 22.766282 11.065161 23.051738 10.487444 22.990234 9.9335938 C 22.928731 9.3797432 22.627577 9.0082087 22.353516 8.7441406 C 21.805394 8.2160045 21.157657 7.9267899 20.916016 7.7851562 C 20.045589 7.2749726 19.068131 7.0127962 18.087891 6.9980469 C 19.693007 6.9508215 21 5.6155976 21 4 C 21 2.3550085 19.645025 1 18 1 z M 11.503906 2 C 10.924258 2.00861 10.347629 2.0325975 9.7792969 2.0703125 C 5.088802 2.3815357 1.349226 6.1739777 1.0429688 10.904297 C 0.98633245 11.779021 0.98633345 12.679873 1.0429688 13.554688 C 1.1581506 15.333639 1.917977 16.899722 2.7695312 18.185547 C 2.9569223 18.565707 2.8298877 19.25019 2.4179688 20.029297 C 2.242208 20.361758 2.0978117 20.622495 1.984375 20.939453 C 1.8709383 21.256411 1.7900566 21.791947 2.0546875 22.242188 C 2.2876049 22.638665 2.7669119 22.87195 3.0859375 22.933594 C 3.4049631 22.995234 3.6632692 22.990397 3.9785156 22.998047 C 5.4246647 23.033197 6.5454145 22.583605 7.3515625 21.990234 C 7.4809583 21.894989 7.553627 21.844412 7.5839844 21.818359 C 7.6810805 21.855857 7.8003282 21.904121 7.9765625 21.976562 C 8.5559334 22.214807 9.1780839 22.348788 9.7792969 22.388672 C 11.252207 22.486412 12.785832 22.486622 14.261719 22.388672 C 18.761953 22.090141 22.435378 18.595521 22.992188 14.123047 A 1 1 0 0 0 22.123047 13.007812 A 1 1 0 0 0 21.007812 13.876953 C 20.568423 17.406279 17.672472 20.157509 14.128906 20.392578 C 12.744993 20.484428 11.293239 20.484228 9.9121094 20.392578 C 9.5304831 20.367263 9.0795973 20.268109 8.7363281 20.126953 C 8.4796797 20.02145 8.2832393 19.939536 8.09375 19.873047 C 7.9042607 19.806558 7.7415344 19.707818 7.3339844 19.757812 C 6.6233513 19.844987 6.5445022 20.100309 6.1660156 20.378906 C 5.6785618 20.7377 5.0922221 20.933201 4.1933594 20.949219 C 4.7437583 19.903993 5.2316362 18.501012 4.5058594 17.189453 A 1.0001 1.0001 0 0 0 4.4628906 17.119141 C 3.7139793 15.996561 3.122689 14.715417 3.0390625 13.423828 C 2.9881775 12.637842 2.9881785 11.819079 3.0390625 11.033203 C 3.2822454 7.2771023 6.2197242 4.3094499 9.9121094 4.0644531 C 10.44053 4.0293863 10.978021 4.0082717 11.519531 4 L 12.521484 4 A 1 1 0 0 0 13.521484 3 A 1 1 0 0 0 12.521484 2 L 11.519531 2 A 1.0001 1.0001 0 0 0 11.503906 2 z M 18 3 C 18.564175 3 19 3.4358515 19 4 C 19 4.5641485 18.564175 5 18 5 C 17.435825 5 17 4.5641485 17 4 C 17 3.4358515 17.435825 3 18 3 z M 8.5 9 A 1 1 0 0 0 7.5 10 A 1 1 0 0 0 8.5 11 L 10.5 11 A 1 1 0 0 0 11.5 10 A 1 1 0 0 0 10.5 9 L 8.5 9 z M 18 9.0019531 C 18.663136 9.0019531 19.326239 9.1729011 19.904297 9.5117188 C 20.231683 9.7036104 20.574242 9.9113292 20.800781 10.082031 C 20.512124 10.314475 20.256032 10.5 19.958984 10.5 L 16.041016 10.5 C 15.743968 10.5 15.487876 10.314475 15.199219 10.082031 C 15.425758 9.9113292 15.768317 9.7036104 16.095703 9.5117188 C 16.673761 9.1729011 17.336864 9.0019531 18 9.0019531 z M 8.5 14 A 1 1 0 0 0 7.5 15 A 1 1 0 0 0 8.5 16 L 15.5 16 A 1 1 0 0 0 16.5 15 A 1 1 0 0 0 15.5 14 L 8.5 14 z " fill="currentColor"/>
</svg>
