<svg xmlns="http://www.w3.org/2000/svg" width="1em" height="1em" viewBox="0 0 24 24" fill="currentColor">
  <path d="M 22.052734 1 A 1 1 0 0 0 21.666016 1.0566406 C 19.871107 1.6923441 18.366429 3.3047871 17.173828 4.734375 C 16.453352 5.5980196 16.306318 5.8718797 15.955078 6.3828125 C 15.692844 6.0840829 15.426358 5.5824156 15.179688 5.4179688 C 14.906848 5.2360764 14.653398 5.1292074 14.447266 5.0703125 C 14.241133 5.0114176 14 5 14 5 A 1 1 0 0 0 13 6 A 1 1 0 0 0 13.908203 6.9960938 C 13.932133 7.0042619 13.986461 7.0261284 14.070312 7.0820312 C 14.274636 7.2182467 14.665097 7.5665226 15.105469 8.4472656 A 1.0001 1.0001 0 0 0 16.84375 8.5371094 C 16.84375 8.5371094 17.607461 7.3360371 18.708984 6.015625 C 19.810508 4.6952129 21.305393 3.3076559 22.333984 2.9433594 A 1 1 0 0 0 22.943359 1.6660156 A 1 1 0 0 0 22.052734 1 z M 11.484375 2.0039062 C 10.905893 2.0125163 10.330911 2.0345566 9.7636719 2.0722656 C 5.0807131 2.3835591 1.3485625 6.1776356 1.0429688 10.90625 C 0.98645375 11.780785 0.98645375 12.680152 1.0429688 13.554688 C 1.1578802 15.332672 1.9159237 16.898054 2.765625 18.183594 C 2.9531701 18.563928 2.8273377 19.251772 2.4160156 20.03125 C 2.2406108 20.363609 2.0955959 20.622678 1.9824219 20.939453 C 1.8692479 21.256228 1.788764 21.790193 2.0527344 22.240234 C 2.2851457 22.636608 2.7650742 22.871894 3.0839844 22.933594 C 3.4028945 22.995294 3.6600508 22.990397 3.9746094 22.998047 C 5.4185965 23.033207 6.5369888 22.58369 7.3417969 21.990234 C 7.4698263 21.895802 7.5415285 21.846134 7.5722656 21.820312 C 7.6688939 21.857542 7.7874009 21.904308 7.9628906 21.976562 C 8.5412459 22.214744 9.1630863 22.34875 9.7636719 22.388672 C 11.233799 22.486322 12.763205 22.486532 14.236328 22.388672 C 18.919265 22.077334 22.651405 18.283319 22.957031 13.554688 C 23.013491 12.680193 23.013491 11.780744 22.957031 10.90625 C 22.894618 9.9411724 22.691613 9.0126517 22.365234 8.1464844 A 1 1 0 0 0 21.076172 7.5644531 A 1 1 0 0 0 20.492188 8.8535156 C 20.74981 9.5372083 20.911352 10.268434 20.960938 11.035156 C 21.011678 11.821062 21.011678 12.639875 20.960938 13.425781 C 20.718165 17.18195 17.786578 20.147716 14.103516 20.392578 C 12.722439 20.484318 11.274757 20.484128 9.8964844 20.392578 C 9.5161899 20.3673 9.0670341 20.267972 8.7246094 20.126953 C 8.468556 20.021531 8.273243 19.939589 8.0839844 19.873047 C 7.8952002 19.806671 7.7307112 19.708122 7.3242188 19.757812 L 7.3222656 19.757812 C 6.6138576 19.845523 6.5316236 20.100596 6.1542969 20.378906 C 5.6686633 20.737006 5.0857491 20.932716 4.1914062 20.949219 C 4.7406201 19.904241 5.2280838 18.502554 4.5039062 17.191406 A 1.0001 1.0001 0 0 0 4.4609375 17.121094 C 3.7135243 15.998692 3.1225482 14.717527 3.0390625 13.425781 C 2.9882775 12.639916 2.9882775 11.821021 3.0390625 11.035156 C 3.2818061 7.2790089 6.2134232 4.3131859 9.8964844 4.0683594 C 10.428246 4.0330086 10.970707 4.0120165 11.515625 4.0039062 A 1 1 0 0 0 12.5 2.9882812 A 1 1 0 0 0 11.484375 2.0039062 z M 8.5 9 A 1 1 0 0 0 7.5 10 A 1 1 0 0 0 8.5 11 L 12 11 A 1 1 0 0 0 13 10 A 1 1 0 0 0 12 9 L 8.5 9 z M 8.5 14 A 1 1 0 0 0 7.5 15 A 1 1 0 0 0 8.5 16 L 15.5 16 A 1 1 0 0 0 16.5 15 A 1 1 0 0 0 15.5 14 L 8.5 14 z " fill="currentColor"/>
</svg>
