<svg xmlns="http://www.w3.org/2000/svg" width="1em" height="1em" viewBox="0 0 24 24" fill="currentColor">
  <path d="M 11.455078 2 C 9.2865744 2 7.7022576 2.1477195 6.4785156 3.0859375 C 5.2547737 4.0241555 4.7163586 5.5369056 4.2910156 7.7011719 L 4.1347656 8.5019531 A 1 1 0 0 0 4.0097656 9.1367188 L 3.7382812 10.517578 C 3.360911 12.437729 3.0668262 13.895346 3.0097656 15.142578 C 2.9527056 16.38981 3.1818299 17.526482 3.9335938 18.390625 C 4.1330754 18.619945 4.3571667 18.815851 4.6015625 18.984375 L 3.2929688 20.292969 A 1 1 0 0 0 3.2929688 21.707031 A 1 1 0 0 0 4.7070312 21.707031 L 6.6484375 19.765625 C 6.7864787 19.790831 6.9272778 19.81275 7.0703125 19.832031 C 8.3589661 20.005745 9.929395 20 12 20 C 14.0706 20 15.641039 20.0057 16.929688 19.832031 C 17.072722 19.81275 17.213521 19.790831 17.351562 19.765625 L 19.292969 21.707031 A 1 1 0 0 0 20.707031 21.707031 A 1 1 0 0 0 20.707031 20.292969 L 19.398438 18.984375 C 19.642833 18.815851 19.866928 18.619947 20.066406 18.390625 C 20.818215 17.526486 21.047288 16.389813 20.990234 15.142578 C 20.933184 13.895343 20.639068 12.437725 20.261719 10.517578 L 19.990234 9.1328125 A 1 1 0 0 0 19.865234 8.5019531 L 19.708984 7.7011719 C 19.283641 5.5369011 18.745234 4.0241511 17.521484 3.0859375 C 16.297735 2.1477239 14.713406 2 12.544922 2 L 11.455078 2 z M 11.455078 4 L 12.544922 4 C 14.600438 4 15.699087 4.2095318 16.304688 4.6738281 C 16.910289 5.1381245 17.350238 6.0736614 17.746094 8.0878906 L 17.875 8.7402344 C 14.829483 11.751908 9.621881 11.772932 6.1347656 8.6953125 L 6.2539062 8.0878906 C 6.6497633 6.0736569 7.0897245 5.1381201 7.6953125 4.6738281 C 8.3009005 4.2095361 9.3995421 4 11.455078 4 z M 5.7011719 10.902344 C 9.5421452 13.655692 14.72826 13.708186 18.316406 10.994141 C 18.684234 12.86744 18.947673 14.261252 18.992188 15.234375 C 19.037437 16.22349 18.905127 16.677564 18.556641 17.078125 C 18.210419 17.476144 17.71911 17.709076 16.662109 17.851562 C 15.605109 17.994049 14.0706 18 12 18 C 9.929395 18 8.394897 17.994049 7.3378906 17.851562 C 6.2808843 17.709076 5.7895972 17.476152 5.4433594 17.078125 C 5.0948933 16.677568 4.9625606 16.223493 5.0078125 15.234375 C 5.0530635 14.245276 5.3238133 12.822437 5.7011719 10.902344 z M 9 13.75 C 8.3216244 13.75 7.75 14.321567 7.75 15 C 7.75 15.678433 8.3216244 16.25 9 16.25 C 9.6783756 16.25 10.25 15.678433 10.25 15 C 10.25 14.321567 9.6783756 13.75 9 13.75 z M 15 13.75 C 14.321712 13.75 13.75 14.321712 13.75 15 C 13.75 15.678288 14.321712 16.25 15 16.25 C 15.678288 16.25 16.25 15.678288 16.25 15 C 16.25 14.321712 15.678288 13.75 15 13.75 z " fill="currentColor"/>
</svg>
