<svg xmlns="http://www.w3.org/2000/svg" width="1em" height="1em" viewBox="0 0 24 24" fill="currentColor">
  <path d="M 12 1 C 8.6981382 1 6 3.6981382 6 7 L 6 11 C 6 14.301846 8.6981334 17 12 17 C 15.30185 17 18 14.30185 18 11 L 18 7 C 18 3.6981334 15.301846 1 12 1 z M 12 3 C 13.875234 3 15.43471 4.2682771 15.875 6 L 14 6 A 1 1 0 0 0 13 7 A 1 1 0 0 0 14 8 L 16 8 L 16 10 L 14 10 A 1 1 0 0 0 13 11 A 1 1 0 0 0 14 12 L 15.875 12 C 15.434706 13.73171 13.875228 15 12 15 C 9.7790266 15 8 13.220954 8 11 L 8 7 C 8 4.7790218 9.7790218 3 12 3 z M 4 10 A 1 1 0 0 0 3 11 C 3 15.604313 6.5322967 19.275288 11 19.796875 L 11 21 L 9 21 A 1 1 0 0 0 8 22 A 1 1 0 0 0 9 23 L 12 23 L 15 23 A 1 1 0 0 0 16 22 A 1 1 0 0 0 15 21 L 13 21 L 13 19.796875 C 17.467715 19.275287 21 15.60431 21 11 A 1 1 0 0 0 20 10 A 1 1 0 0 0 19 11 C 19 14.877866 15.877866 18 12 18 C 8.1221565 18 5 14.877863 5 11 A 1 1 0 0 0 4 10 z " fill="currentColor"/>
</svg>
