<svg xmlns="http://www.w3.org/2000/svg" width="1em" height="1em" viewBox="0 0 24 24" fill="currentColor">
  <path d="M 12 1 A 1 1 0 0 0 11.869141 1.0078125 C 9.2713303 1.0270304 6.8549638 1.5999163 4.8457031 2.5996094 C 3.9177231 3.0613294 3.1613975 3.4797157 2.5996094 4.3867188 C 1.997851 5.3582453 2 6.3423869 2 7.7480469 L 2 11 L 2 11.236328 C 2 14.344438 3.2636543 16.81323 4.8476562 18.619141 C 6.4316582 20.425052 8.3261969 21.607844 9.7148438 22.322266 C 10.448559 22.699774 11.100341 23 12 23 C 12.899659 23 13.551524 22.699782 14.285156 22.322266 C 15.673829 21.607844 17.568322 20.425052 19.152344 18.619141 C 20.736366 16.81323 22 14.344441 22 11.236328 L 22 11 L 22 7.7480469 C 22 6.3423969 22.0021 5.3582515 21.400391 4.3867188 C 20.838589 3.479701 20.082292 3.0613268 19.154297 2.5996094 C 17.145067 1.5999105 14.728662 1.0270302 12.130859 1.0078125 A 1 1 0 0 0 12 1 z M 11 3.03125 L 11 10 L 4 10 L 4 7.7480469 C 4 6.3423869 4.0013865 5.9196666 4.2988281 5.4394531 C 4.63622 4.8947362 4.8083481 4.852345 5.7363281 4.390625 C 7.2278138 3.6485472 9.0335584 3.1568261 11 3.03125 z M 13 3.03125 C 14.966446 3.1568273 16.772228 3.6485523 18.263672 4.390625 C 19.191677 4.8523476 19.363774 4.8947309 19.701172 5.4394531 C 19.998618 5.9196805 20 6.3423969 20 7.7480469 L 20 10 L 13 10 L 13 3.03125 z M 4.03125 12 L 11 12 L 11 20.736328 C 10.896823 20.683241 10.776717 20.619968 10.630859 20.544922 C 9.3888565 19.905944 7.696398 18.832067 6.3515625 17.298828 C 5.1429516 15.920898 4.2083773 14.203154 4.03125 12 z M 13 12 L 19.96875 12 C 19.791625 14.203152 18.857064 15.920898 17.648438 17.298828 C 16.303586 18.832067 14.611168 19.905944 13.369141 20.544922 C 13.223285 20.619977 13.103179 20.683237 13 20.736328 L 13 12 z " fill="currentColor"/>
</svg>
