<svg xmlns="http://www.w3.org/2000/svg" width="1em" height="1em" viewBox="0 0 24 24" fill="currentColor">
  <path d="M 6.4863281 1.0019531 C 5.1174657 1.0019531 3.9863281 2.1330792 3.9863281 3.5019531 L 3.9863281 4.5429688 L 1.84375 6.7636719 C 1.3043874 7.322646 1.0019531 8.0689551 1.0019531 8.8457031 L 1.0019531 19.998047 C 1.0019531 21.643015 2.3569013 22.998047 4.0019531 22.998047 L 8.0019531 22.998047 L 8.0097656 22.998047 L 10.970703 22.998047 A 1 1 0 0 0 11.970703 21.998047 A 1 1 0 0 0 10.970703 20.998047 L 9.0097656 20.998047 L 9.0097656 9.0390625 L 17.025391 9.0390625 L 17.025391 10.082031 A 1 1 0 0 0 18.025391 11.082031 A 1 1 0 0 0 19.025391 10.082031 L 19.025391 8.0390625 A 1 1 0 0 0 18.972656 7.9863281 A 1 1 0 0 0 18.802734 7.4101562 L 16.517578 4.5859375 L 16.537109 3.5527344 C 16.565187 2.1651049 15.426984 1.0019531 14.039062 1.0019531 L 6.4863281 1.0019531 z M 6.4863281 3.0019531 L 14.039062 3.0019531 C 14.331741 3.0019531 14.544985 3.2190282 14.539062 3.5117188 L 14.517578 4.5449219 C 14.507978 5.0165946 14.665964 5.4769806 14.962891 5.84375 L 15.929688 7.0390625 L 8.3535156 7.0390625 C 8.2855008 6.9506044 8.2461434 6.8446874 8.1679688 6.7636719 L 5.9863281 4.5019531 L 5.9863281 3.5019531 C 5.9863281 3.2139671 6.1983506 3.0019531 6.4863281 3.0019531 z M 5.0078125 6.3652344 L 6.7304688 8.1523438 C 6.8129808 8.2378537 6.8787211 8.3347696 6.9257812 8.4414062 A 1 1 0 0 0 6.9257812 8.4433594 C 6.9814492 8.5694869 7.0097656 8.7051827 7.0097656 8.8457031 L 7.0097656 20.998047 L 4.0019531 20.998047 C 3.4378649 20.998047 3.0019531 20.562079 3.0019531 19.998047 L 3.0019531 8.8457031 C 3.0019531 8.5863112 3.1031057 8.3389895 3.2832031 8.1523438 L 5.0078125 6.3652344 z M 17.931641 11.996094 C 17.473288 11.984744 17.035946 12.090034 16.599609 12.257812 C 15.726936 12.593366 14.842175 13.199008 14.021484 14.019531 C 13.200734 14.840002 12.593485 15.725127 12.257812 16.597656 C 12.089975 17.033921 11.984741 17.471331 11.996094 17.929688 C 12.001494 18.146318 12.176087 18.346629 12.253906 18.568359 A 1 1 0 0 0 12.248047 18.574219 C 12.248047 19.566074 12.634681 20.558808 13.429688 21.353516 C 15.610475 23.533697 19.174681 23.533697 21.355469 21.353516 C 23.536271 19.173319 23.536271 15.607931 21.355469 13.427734 C 20.560548 12.632963 19.567947 12.248047 18.576172 12.248047 A 1 1 0 0 0 18.568359 12.251953 C 18.347318 12.174643 18.147577 12.001442 17.931641 11.996094 z M 17.8125 14.011719 C 17.8069 14.11854 17.78875 14.278192 17.701172 14.505859 C 17.501239 15.02558 17.040758 15.736411 16.390625 16.386719 C 16.210207 16.566959 16.026814 16.733359 15.84375 16.882812 A 1 1 0 0 0 15.841797 16.882812 C 15.270977 17.34889 14.695637 17.654046 14.304688 17.767578 C 14.122126 17.820593 14.035773 17.83036 14.001953 17.833984 C 14.005804 17.729942 14.035442 17.549186 14.125 17.316406 C 14.325078 16.796335 14.784697 16.084223 15.435547 15.433594 C 16.086357 14.782917 16.798033 14.323119 17.318359 14.123047 C 17.546133 14.035467 17.705538 14.017333 17.8125 14.011719 z M 19.664062 14.720703 C 19.760043 14.777013 19.886303 14.786703 19.941406 14.841797 C 21.357804 16.257801 21.357804 18.523449 19.941406 19.939453 C 18.524994 21.355471 16.260162 21.355471 14.84375 19.939453 C 14.79645 19.892173 14.78875 19.779699 14.740234 19.701172 C 14.779154 19.691132 14.823164 19.69857 14.861328 19.6875 C 15.225998 19.5816 15.582911 19.281097 15.945312 19.080078 C 16.253414 19.662658 16.716466 20.242091 17.537109 20.652344 A 1 1 0 0 0 18.878906 20.205078 A 1 1 0 0 0 18.431641 18.863281 C 17.831011 18.563015 17.670638 18.302104 17.583984 18 C 17.656334 17.93207 17.731483 17.873916 17.802734 17.802734 C 18.62348 16.982212 19.230754 16.095173 19.566406 15.222656 C 19.629716 15.058089 19.621593 14.886478 19.664062 14.720703 z " fill="currentColor"/>
</svg>
