<svg xmlns="http://www.w3.org/2000/svg" width="1em" height="1em" viewBox="0 0 24 24" fill="currentColor">
  <path d="M 9.2734375 1 C 7.8742969 1 6.6367187 2.081997 6.6367188 3.5 C 6.6367188 4.2194001 6.9605539 4.841995 7.4570312 5.2910156 C 6.4119711 7.2882274 5.5594978 9.2076783 5.1933594 11.410156 A 1 1 0 0 0 5.0683594 12.359375 C 5.023734 12.817421 5 13.289708 5 13.777344 L 5 18 C 5 19.730542 5.1673107 21.075555 6.1523438 21.978516 C 7.1373769 22.881476 8.4944327 23 10.363281 23 L 13.636719 23 C 15.505544 23 16.86262 22.881471 17.847656 21.978516 C 18.832693 21.075561 19 19.730547 19 18 L 19 16 L 19 13.777344 C 19 10.505293 17.922815 7.9730968 16.519531 5.3007812 C 17.026805 4.850805 17.363281 4.2284822 17.363281 3.5 C 17.363281 2.0820211 16.125684 1 14.726562 1 L 9.2734375 1 z M 9.2734375 3 L 14.726562 3 C 15.13484 3 15.363281 3.2611189 15.363281 3.5 C 15.363281 3.7388811 15.13484 4 14.726562 4 A 1 1 0 0 0 13.726562 5 A 1 1 0 0 0 14.576172 5.8496094 C 16.030627 8.5614048 17 10.773192 17 13.777344 L 17 14.289062 C 16.91519 14.20872 16.825925 14.118858 16.732422 14.019531 C 16.13618 13.386215 15.247044 13.011872 14.310547 13.162109 L 13.265625 13.330078 C 12.88512 13.391118 12.502783 13.253918 12.261719 12.990234 L 11.435547 12.089844 C 10.736081 11.324681 9.7001995 11.097192 8.7695312 11.302734 A 1.0001 1.0001 0 0 0 8.7675781 11.302734 C 8.4300135 11.377344 7.8854984 11.428255 7.4277344 11.402344 C 7.3555283 11.398257 7.2849799 11.390837 7.21875 11.380859 C 7.5757907 9.4928956 8.3470717 7.8182186 9.3671875 5.90625 A 1 1 0 0 0 10.273438 5 A 1 1 0 0 0 9.2734375 4 C 8.8650981 4 8.6367188 3.738857 8.6367188 3.5 C 8.6367188 3.261143 8.8650981 3 9.2734375 3 z M 9.4296875 13.232422 C 9.6543317 13.237466 9.853136 13.321528 9.9609375 13.439453 L 10.785156 14.339844 C 11.492692 15.113762 12.546136 15.470852 13.582031 15.304688 L 14.626953 15.136719 C 14.838656 15.102759 15.090032 15.193739 15.275391 15.390625 C 15.940767 16.097445 16.529248 16.500741 17 16.726562 L 17 18 C 17 19.578753 16.790332 20.234186 16.496094 20.503906 C 16.201855 20.773626 15.377994 21 13.636719 21 L 10.363281 21 C 8.6219803 21 7.7981356 20.773621 7.5039062 20.503906 C 7.2096769 20.234192 7 19.578758 7 18 L 7 13.777344 C 7 13.642524 7.0020655 13.508733 7.0058594 13.376953 C 7.1089102 13.385647 7.2117637 13.392625 7.3144531 13.398438 C 7.9829291 13.436277 8.6445134 13.378458 9.1992188 13.255859 C 9.2776167 13.238544 9.3548061 13.23074 9.4296875 13.232422 z " fill="currentColor"/>
</svg>
