<svg xmlns="http://www.w3.org/2000/svg" width="1em" height="1em" viewBox="0 0 24 24" fill="currentColor">
  <path d="M 6.4863281 1.0019531 C 5.1174622 1.0019531 3.9863281 2.1330872 3.9863281 3.5019531 L 3.9863281 4.5410156 L 1.8417969 6.7636719 C 1.3023267 7.3226632 1 8.0688478 1 8.8457031 L 1 19.998047 C 1 21.643021 2.3549482 22.998047 4 22.998047 L 8.0019531 22.998047 L 11.941406 22.998047 A 1 1 0 0 0 12.941406 21.998047 A 1 1 0 0 0 11.941406 20.998047 L 9.0019531 20.998047 L 9.0019531 9.0390625 L 17.025391 9.0390625 L 17.025391 10.482422 A 1 1 0 0 0 18.025391 11.482422 A 1 1 0 0 0 19.025391 10.482422 L 19.025391 8.0390625 A 1 1 0 0 0 18.763672 7.7773438 A 1 1 0 0 0 18.802734 7.4101562 L 16.517578 4.5859375 L 16.539062 3.5527344 C 16.56714 2.1651047 15.426991 1.0019531 14.039062 1.0019531 L 6.4863281 1.0019531 z M 6.4863281 3.0019531 L 14.039062 3.0019531 C 14.331732 3.0019531 14.544985 3.2190284 14.539062 3.5117188 L 14.517578 4.5449219 C 14.507978 5.0168765 14.66611 5.4771207 14.962891 5.84375 L 15.931641 7.0390625 L 8.4238281 7.0390625 L 5.9863281 4.5410156 L 5.9863281 3.5019531 C 5.9863281 3.213959 6.198334 3.0019531 6.4863281 3.0019531 z M 4.9882812 6.3828125 L 7.0019531 8.4453125 L 7.0019531 20.998047 L 4 20.998047 C 3.4359118 20.998047 3 20.562073 3 19.998047 L 3 8.8457031 C 3 8.5862984 3.1011002 8.3390124 3.28125 8.1523438 L 4.9882812 6.3828125 z M 15.988281 11.992188 C 15.614835 11.978994 15.24664 12.001202 14.892578 12.064453 C 14.184455 12.190952 13.532751 12.485053 13.009766 13.007812 C 11.963803 14.053322 11.830971 15.612536 12.130859 17.111328 C 12.430748 18.61012 13.198822 20.148559 14.394531 21.34375 C 15.573813 22.522464 16.891897 23.076424 18.148438 22.984375 C 19.404978 22.892325 20.476148 22.214802 21.347656 21.34375 A 1 1 0 0 0 21.347656 21.341797 C 22.218579 20.470886 22.898159 19.402345 22.990234 18.146484 C 23.082344 16.890091 22.526884 15.571295 21.347656 14.392578 C 20.151897 13.197394 18.614466 12.428614 17.115234 12.128906 C 16.740427 12.053979 16.361728 12.005381 15.988281 11.992188 z M 16.052734 14.019531 C 16.260483 14.022294 16.482763 14.041889 16.722656 14.089844 C 17.81975 14.309161 19.052153 14.925624 19.933594 15.806641 C 20.831366 16.704024 21.038901 17.389493 20.994141 18 C 20.970561 18.321624 20.631403 18.673949 20.435547 19.015625 L 15.46875 14.052734 C 15.65177 14.030839 15.844986 14.016769 16.052734 14.019531 z M 14.054688 15.466797 L 19.019531 20.429688 C 18.677507 20.625615 18.324059 20.966638 18.001953 20.990234 C 17.390719 21.035014 16.706412 20.825121 15.808594 19.927734 C 14.927203 19.046726 14.311159 17.817036 14.091797 16.720703 C 13.995867 16.241249 14.010917 15.832499 14.054688 15.466797 z " fill="currentColor"/>
</svg>
