<svg xmlns="http://www.w3.org/2000/svg" width="1em" height="1em" viewBox="0 0 24 24" fill="currentColor">
  <path d="M 7.5566406 0.99414062 C 7.1532159 0.99650326 6.7441953 1.0218151 6.3320312 1.0761719 A 1.0001 1.0001 0 0 0 5.890625 2.8886719 C 7.6258434 4.1024769 8.8016706 5.0399622 10.921875 6.9199219 C 10.600022 7.5866309 10.589709 8.3759866 11.132812 8.9277344 L 13.876953 11.714844 C 14.415657 12.262034 15.207968 12.252504 15.873047 11.935547 C 15.953137 12.037259 16.010669 12.114797 16.091797 12.208984 A 1 1 0 0 0 17.501953 12.314453 A 1 1 0 0 0 17.607422 10.904297 C 17.572332 10.863557 17.478626 10.743244 17.427734 10.677734 L 18.267578 9.8242188 C 18.547266 10.381769 18.818489 10.82825 19.054688 11.501953 A 1 1 0 0 0 20.328125 12.115234 A 1 1 0 0 0 20.941406 10.841797 C 20.576022 9.7996221 20.139856 9.0139819 19.755859 8.3125 L 19.804688 8.2636719 C 20.488914 7.5687307 20.483014 6.435052 19.800781 5.7421875 L 17.056641 2.9550781 C 16.374468 2.2622749 15.21548 2.2562299 14.53125 2.9511719 L 14.484375 2.9980469 C 12.937282 2.1300445 10.380613 0.97760216 7.5566406 0.99414062 z M 9.5898438 3.2929688 C 10.988435 3.5960053 12.05432 4.054227 12.992188 4.515625 L 12.164062 5.3554688 C 11.104948 4.4202989 10.335802 3.8670921 9.5898438 3.2929688 z M 15.792969 4.5214844 L 18.238281 7.0039062 L 15.142578 10.148438 L 12.697266 7.6640625 L 15.792969 4.5214844 z M 10.347656 9.4179688 A 1 1 0 0 0 9.6425781 9.7167969 L 2.7011719 16.765625 C 1.7520822 17.729601 1.7751134 19.299334 2.7207031 20.259766 C 3.666307 21.220228 5.2540124 21.241341 6.203125 20.277344 L 13.144531 13.228516 A 1 1 0 0 0 13.132812 11.814453 A 1 1 0 0 0 11.71875 11.826172 L 4.7792969 18.875 C 4.6024694 19.054601 4.3476605 19.059806 4.1464844 18.855469 C 3.9452743 18.651101 3.9501028 18.349546 4.1269531 18.169922 L 11.068359 11.119141 A 1 1 0 0 0 11.056641 9.7050781 A 1 1 0 0 0 10.347656 9.4179688 z M 18.505859 13 A 1 1 0 0 0 17.505859 14 L 17.505859 14.333984 L 16.945312 14.333984 L 16.007812 14.333984 A 1 1 0 0 0 15.007812 15.333984 A 1 1 0 0 0 15.945312 16.271484 L 15.945312 18 L 15.945312 19.728516 A 1 1 0 0 0 15.007812 20.666016 A 1 1 0 0 0 16.007812 21.666016 L 16.945312 21.666016 L 17.505859 21.666016 L 17.505859 22 A 1 1 0 0 0 18.505859 23 A 1 1 0 0 0 19.505859 22 L 19.505859 21.666016 L 20.066406 21.666016 C 21.1607 21.666016 22.001953 20.724321 22.001953 19.666016 L 22.001953 19 C 22.001953 18.621031 21.790423 18.311177 21.601562 18 C 21.790423 17.688823 22.001953 17.378969 22.001953 17 L 22.001953 16.333984 C 22.001953 15.275679 21.1607 14.333984 20.066406 14.333984 L 19.505859 14.333984 L 19.505859 14 A 1 1 0 0 0 18.505859 13 z M 17.945312 16.333984 L 18.505859 16.333984 L 20.001953 16.333984 L 20.001953 17 L 17.945312 17 L 17.945312 16.333984 z M 17.945312 19 L 20.001953 19 L 20.001953 19.666016 L 18.505859 19.666016 L 17.945312 19.666016 L 17.945312 19 z " fill="currentColor"/>
</svg>
