<svg xmlns="http://www.w3.org/2000/svg" width="1em" height="1em" viewBox="0 0 24 24" fill="currentColor">
  <path d="M 11.998047 1 C 10.348112 1 9.0917798 0.99334675 8.0253906 1.1367188 C 6.9590015 1.2800908 6.0186455 1.6161133 5.3164062 2.3183594 C 4.6890022 2.9457635 4.3488415 3.7722028 4.1875 4.6914062 C 4.0261585 5.6106098 4.0052456 6.6622963 4 7.9960938 A 1 1 0 0 0 4.9960938 9 A 1 1 0 0 0 6 8.0039062 C 6.0051544 6.6933136 6.0391696 5.7152735 6.1582031 5.0371094 C 6.2772366 4.3589453 6.4419928 4.0208978 6.7304688 3.7324219 C 7.0533496 3.409538 7.4511973 3.2320511 8.2910156 3.1191406 C 9.130834 3.0062302 10.348112 3 11.998047 3 C 13.647947 3 14.865278 3.00623 15.705078 3.1191406 C 16.544879 3.2320506 16.942754 3.4095412 17.265625 3.7324219 C 17.554108 4.0208981 17.720811 4.3589473 17.839844 5.0371094 C 17.958877 5.7152715 17.992893 6.6933124 17.998047 8.0039062 A 1 1 0 0 0 19.001953 9 A 1 1 0 0 0 19.998047 7.9960938 C 19.992801 6.6622975 19.971889 5.6106116 19.810547 4.6914062 C 19.649205 3.7722009 19.309058 2.9457632 18.681641 2.3183594 C 17.979412 1.61611 17.039031 1.2800913 15.972656 1.1367188 C 14.906282 0.99334626 13.647947 1 11.998047 1 z M 12.929688 8.0019531 A 1 1 0 0 0 12.050781 8.6835938 L 10.050781 14.683594 A 1 1 0 0 0 10.683594 15.949219 A 1 1 0 0 0 11.949219 15.316406 L 13.949219 9.3164062 A 1 1 0 0 0 13.316406 8.0507812 A 1 1 0 0 0 12.929688 8.0019531 z M 16.056641 9 A 1 1 0 0 0 15.925781 9.0019531 A 1 1 0 0 0 15.242188 9.3476562 A 1 1 0 0 0 15.347656 10.757812 L 16.574219 11.814453 C 16.683237 11.908393 16.702931 11.931317 16.779297 12 C 16.702927 12.06868 16.683237 12.0916 16.574219 12.185547 L 15.347656 13.242188 A 1 1 0 0 0 15.242188 14.652344 A 1 1 0 0 0 16.652344 14.757812 L 17.878906 13.701172 C 18.136796 13.478937 18.347793 13.304049 18.554688 13.070312 C 18.761584 12.836574 19 12.44929 19 12 C 19 11.55071 18.761584 11.163424 18.554688 10.929688 C 18.347792 10.695949 18.136796 10.521063 17.878906 10.298828 L 16.652344 9.2421875 A 1 1 0 0 0 16.056641 9 z M 7.9433594 9.0019531 A 1 1 0 0 0 7.3476562 9.2421875 L 6.1210938 10.298828 C 5.8632457 10.521052 5.6521935 10.69596 5.4453125 10.929688 C 5.2384315 11.163413 5 11.550686 5 12 C 5 12.449314 5.2384315 12.836585 5.4453125 13.070312 C 5.6521935 13.304039 5.8632458 13.478948 6.1210938 13.701172 L 7.3476562 14.757812 A 1 1 0 0 0 8.7578125 14.652344 A 1 1 0 0 0 8.6523438 13.242188 L 7.4257812 12.185547 C 7.3167712 12.091597 7.297068 12.068687 7.2207031 12 C 7.2970681 11.93131 7.3167712 11.9084 7.4257812 11.814453 L 8.6523438 10.757812 A 1 1 0 0 0 8.7578125 9.3476562 A 1 1 0 0 0 7.9433594 9.0019531 z M 4.9960938 15 A 1 1 0 0 0 4 16.003906 C 4.00525 17.337709 4.026159 18.389387 4.1875 19.308594 C 4.3488412 20.2278 4.689008 21.054229 5.3164062 21.681641 C 6.0186484 22.383869 6.9590046 22.719914 8.0253906 22.863281 C 9.0917766 23.006649 10.348112 23 11.998047 23 C 13.647947 23 14.906285 23.0066 15.972656 22.863281 C 17.039028 22.719913 17.979409 22.383872 18.681641 21.681641 C 19.309052 21.054229 19.649205 20.227802 19.810547 19.308594 C 19.971888 18.389385 19.992801 17.337707 19.998047 16.003906 A 1 1 0 0 0 19.001953 15 A 1 1 0 0 0 17.998047 15.996094 C 17.992847 17.306693 17.958877 18.284724 17.839844 18.962891 C 17.72081 19.641057 17.554113 19.97909 17.265625 20.267578 C 16.942757 20.590447 16.544882 20.767952 15.705078 20.880859 C 14.865275 20.993766 13.647947 21 11.998047 21 C 10.348112 21 9.1308371 20.993767 8.2910156 20.880859 C 7.4511941 20.767952 7.0533467 20.59045 6.7304688 20.267578 C 6.441987 19.97909 6.2772369 19.641059 6.1582031 18.962891 C 6.0391694 18.284722 6.0051544 17.306691 6 15.996094 A 1 1 0 0 0 4.9960938 15 z M 11 18 A 1 1 0 0 0 10 19 A 1 1 0 0 0 11 20 L 13 20 A 1 1 0 0 0 14 19 A 1 1 0 0 0 13 18 L 11 18 z " fill="currentColor"/>
</svg>
