<svg xmlns="http://www.w3.org/2000/svg" width="1em" height="1em" viewBox="0 0 24 24" fill="currentColor">
  <path d="M 12 1 C 10.350085 1 9.091775 0.99334664 8.0253906 1.1367188 C 6.9590062 1.2800909 6.0205986 1.6161133 5.3183594 2.3183594 C 4.6161133 3.0205986 4.280091 3.9590062 4.1367188 5.0253906 C 3.9933466 6.091775 4 7.350085 4 9 L 4 15 C 4 16.6499 3.99335 17.908225 4.1367188 18.974609 C 4.2800908 20.040994 4.6161378 20.979371 5.3183594 21.681641 C 6.0206014 22.383869 6.9590094 22.719914 8.0253906 22.863281 C 9.0917719 23.006649 10.350085 23 12 23 C 13.6499 23 14.908228 23.0066 15.974609 22.863281 C 17.04099 22.719914 17.979368 22.383844 18.681641 21.681641 C 19.383844 20.979368 19.719914 20.04099 19.863281 18.974609 C 20.006649 17.908228 20 16.6499 20 15 L 20 9 C 20 7.350085 20.006649 6.0917719 19.863281 5.0253906 C 19.719914 3.9590094 19.383869 3.0206014 18.681641 2.3183594 C 17.979371 1.6161378 17.040994 1.2800907 15.974609 1.1367188 C 14.908225 0.99334685 13.6499 1 12 1 z M 12 3 C 13.6499 3 14.867215 3.00623 15.707031 3.1191406 C 16.546847 3.2320512 16.944648 3.4095135 17.267578 3.7324219 C 17.59045 4.0552999 17.767952 4.4531525 17.880859 5.2929688 C 17.993767 6.132785 18 7.350085 18 9 L 18 15 C 18 16.6499 17.9938 17.867212 17.880859 18.707031 C 17.767952 19.54685 17.590474 19.94465 17.267578 20.267578 C 16.94465 20.590474 16.54685 20.767952 15.707031 20.880859 C 14.867212 20.993767 13.6499 21 12 21 C 10.350085 21 9.1327849 20.993767 8.2929688 20.880859 C 7.4531524 20.767952 7.0552999 20.59045 6.7324219 20.267578 C 6.4095135 19.944648 6.2320512 19.546847 6.1191406 18.707031 C 6.0062301 17.867215 6 16.6499 6 15 L 6 9 C 6 7.350085 6.0062303 6.132782 6.1191406 5.2929688 C 6.232051 4.4531556 6.409538 4.0553026 6.7324219 3.7324219 C 7.0553026 3.409538 7.4531556 3.232051 8.2929688 3.1191406 C 9.1327818 3.0062303 10.350085 3 12 3 z M 12 5.5 C 9.6675993 5.5 7.75 7.4038698 7.75 9.7324219 C 7.75 11.018477 8.3438526 12.166332 9.3105469 13.009766 C 9.8022046 13.438791 10.876429 14.584902 11.150391 15.027344 A 1.0001 1.0001 0 0 0 12.833984 15.052734 C 13.154856 14.569227 14.213603 13.425034 14.689453 13.009766 C 15.656284 12.166317 16.25 11.018445 16.25 9.7324219 C 16.25 7.4038698 14.332401 5.5 12 5.5 z M 12 7.5 C 13.257399 7.5 14.25 8.490694 14.25 9.7324219 C 14.25 10.487839 14.031416 10.927602 13.373047 11.501953 C 12.956038 11.865871 12.479096 12.471583 11.998047 13.025391 C 11.512859 12.470924 11.030069 11.853716 10.626953 11.501953 C 9.9686475 10.927586 9.75 10.487806 9.75 9.7324219 C 9.75 8.490694 10.742601 7.5 12 7.5 z M 12 8.5 C 11.321567 8.5 10.75 9.0716244 10.75 9.75 C 10.75 10.428376 11.321567 11 12 11 C 12.678433 11 13.25 10.428376 13.25 9.75 C 13.25 9.0716244 12.678433 8.5 12 8.5 z M 12 17.75 C 11.321712 17.75 10.75 18.321712 10.75 19 C 10.75 19.678288 11.321712 20.25 12 20.25 C 12.678288 20.25 13.25 19.678288 13.25 19 C 13.25 18.321712 12.678288 17.75 12 17.75 z " fill="currentColor"/>
</svg>
