<svg xmlns="http://www.w3.org/2000/svg" width="1em" height="1em" viewBox="0 0 24 24" fill="currentColor">
  <path d="M 9.0371094 1 C 6.8855203 1 4.9060489 2.2172226 3.4453125 3.8984375 C 1.9845761 5.5796524 1 7.7711762 1 10.009766 C 1 12.091139 1.9746911 13.697083 3.3730469 14.628906 C 4.4493808 15.346143 5.7279532 15.721942 7.0527344 15.894531 C 7.0180246 16.187372 7 16.481496 7 16.777344 C 7 19.39295 8.6369955 21.153563 10.638672 21.931641 A 1 1 0 0 0 11.931641 21.361328 A 1 1 0 0 0 11.361328 20.068359 C 9.8601645 19.484837 9 18.651337 9 16.777344 C 9 16.367992 9.0526632 15.946578 9.1503906 15.523438 A 1 1 0 0 0 9.296875 15.046875 A 1 1 0 0 0 9.296875 14.986328 C 9.6226332 13.968799 10.19868 12.970148 10.933594 12.144531 C 12.102577 10.831273 13.632743 10 15 10 C 16.367257 10 17.897423 10.831273 19.066406 12.144531 C 20.23539 13.45779 21 15.208618 21 16.777344 C 21 18.651331 20.137865 19.484837 18.636719 20.068359 A 1 1 0 0 0 18.068359 21.363281 A 1 1 0 0 0 19.363281 21.931641 C 21.364935 21.153563 23 19.392956 23 16.777344 C 23 14.58777 22.01461 12.45017 20.558594 10.814453 C 19.544383 9.6750704 18.280942 8.7566786 16.886719 8.3046875 C 16.493904 6.4912598 15.526344 4.7952158 14.244141 3.4765625 C 12.831704 2.023974 11.003782 1 9.0371094 1 z M 9.0371094 3 C 10.286957 3 11.678353 3.7067148 12.810547 4.8710938 C 13.660011 5.7447067 14.34476 6.8579349 14.730469 8.0058594 C 12.701363 8.0998024 10.836057 9.247676 9.4414062 10.814453 C 8.630606 11.725322 7.9651888 12.791105 7.5351562 13.935547 C 6.3340801 13.796354 5.2496682 13.476114 4.4824219 12.964844 C 3.5458527 12.340742 3 11.527692 3 10.009766 C 3 8.3771842 3.7766095 6.5653269 4.9550781 5.2089844 C 6.1335467 3.8526418 7.6697584 3 9.0371094 3 z M 7.5 4 A 1 1 0 0 0 6.7929688 4.2929688 L 5.7929688 5.2929688 A 1 1 0 0 0 5.7929688 6.7070312 A 1 1 0 0 0 7.2070312 6.7070312 L 8.2070312 5.7070312 A 1 1 0 0 0 8.2070312 4.2929688 A 1 1 0 0 0 7.5 4 z M 10.5 4 A 1 1 0 0 0 9.7929688 4.2929688 A 1 1 0 0 0 9.7929688 5.7070312 L 10.792969 6.7070312 A 1 1 0 0 0 12.207031 6.7070312 A 1 1 0 0 0 12.207031 5.2929688 L 11.207031 4.2929688 A 1 1 0 0 0 10.5 4 z M 15 11 C 13.629 11 12.410128 11.72107 11.513672 12.697266 C 10.617216 13.673461 10 14.947493 10 16.308594 C 10 17.167078 10.333939 17.938949 10.835938 18.484375 C 11.337936 19.029801 11.970946 19.370053 12.613281 19.595703 C 12.704279 19.627658 12.732839 19.676525 12.738281 19.6875 L 12.738281 20.71875 C 12.738281 21.967145 13.771018 23 15.019531 23 C 16.268021 23 17.302734 21.96724 17.302734 20.71875 L 17.302734 19.6875 L 17.304688 19.685547 C 17.310022 19.674583 17.336322 19.62693 17.429688 19.59375 C 18.0685 19.366613 18.695227 19.022376 19.1875 18.474609 C 19.679773 17.926842 20 17.159137 20 16.308594 C 20 14.947493 19.382784 13.673461 18.486328 12.697266 C 17.589872 11.72107 16.371 11 15 11 z M 15 13 C 15.629 13 16.410128 13.391599 17.013672 14.048828 C 17.617216 14.706057 18 15.587995 18 16.308594 C 18 16.706451 17.897049 16.920714 17.701172 17.138672 C 17.505295 17.35663 17.178153 17.560222 16.759766 17.708984 C 15.966071 17.991062 15.302734 18.731397 15.302734 19.6875 L 15.302734 20.71875 C 15.302734 20.88626 15.187042 21 15.019531 21 C 14.851845 21 14.738281 20.886355 14.738281 20.71875 L 14.738281 19.6875 C 14.738281 18.731676 14.072994 17.989066 13.275391 17.708984 C 12.848826 17.559134 12.509767 17.351558 12.306641 17.130859 C 12.103514 16.91016 12 16.69991 12 16.308594 C 12 15.587995 12.382784 14.706057 12.986328 14.048828 C 13.589872 13.391599 14.371 13 15 13 z " fill="currentColor"/>
</svg>
