<svg xmlns="http://www.w3.org/2000/svg" width="1em" height="1em" viewBox="0 0 24 24" fill="currentColor">
  <path d="M 8 5 C 4.1458504 5 1 8.1458504 1 12 L 1 18 A 1.0001 1.0001 0 0 0 2 19 L 6 19 A 1.0001 1.0001 0 0 0 7 18 L 7 12 C 7 11.435825 7.4358515 11 8 11 C 8.5641485 11 9 11.435825 9 12 L 9 18 A 1.0001 1.0001 0 0 0 10 19 L 14 19 A 1.0001 1.0001 0 0 0 15 18 L 15 12 C 15 11.435807 15.435807 11 16 11 C 16.564193 11 17 11.435807 17 12 L 17 18 A 1.0001 1.0001 0 0 0 18 19 L 22 19 A 1.0001 1.0001 0 0 0 23 18 L 23 12 C 23 8.1458484 19.854141 5 16 5 C 14.492329 5 13.145275 5.5599225 12 6.375 C 10.854727 5.5599233 9.5076783 5 8 5 z M 8 7 C 9.2860837 7 10.448373 7.4807839 11.333984 8.2734375 A 1.0001 1.0001 0 0 0 12.666016 8.2734375 C 13.551625 7.480786 14.713928 7 16 7 C 18.773259 7 21 9.2267316 21 12 L 21 17 L 19 17 L 19 12 C 19 10.354993 17.645007 9 16 9 C 14.354993 9 13 10.354993 13 12 L 13 17 L 11 17 L 11 12 C 11 10.354975 9.6449915 9 8 9 C 6.3550085 9 5 10.354975 5 12 L 5 17 L 3 17 L 3 12 C 3 9.2267296 5.2267296 7 8 7 z " fill="currentColor"/>
</svg>
