<svg xmlns="http://www.w3.org/2000/svg" width="1em" height="1em" viewBox="0 0 24 24" fill="currentColor">
  <path d="M 8 3 C 7.2496233 3 6.6018169 3.0004619 6.0117188 3.0175781 A 1 1 0 0 0 6 3.0175781 A 1 1 0 0 0 5.8457031 3.0292969 C 5.3943706 3.045861 4.9604426 3.0672141 4.5742188 3.1191406 C 3.6439921 3.2442065 2.800893 3.542857 2.171875 4.171875 C 1.542857 4.800893 1.2442065 5.6439921 1.1191406 6.5742188 C 1.0672141 6.9604426 1.045861 7.3943706 1.0292969 7.8457031 A 1 1 0 0 0 1.0175781 8 A 1 1 0 0 0 1.0175781 8.0117188 C 1.0004619 8.6018169 1 9.2496233 1 10 L 1 12 C 1 12.750369 1.0004619 13.398181 1.0175781 13.988281 A 1 1 0 0 0 1.0175781 14 A 1 1 0 0 0 1.0292969 14.154297 C 1.045861 14.605632 1.0672142 15.039559 1.1191406 15.425781 C 1.2442065 16.356004 1.5428648 17.199101 2.171875 17.828125 C 2.8008908 18.457155 3.6439898 18.75579 4.5742188 18.880859 C 4.9604436 18.932787 5.3943707 18.954139 5.8457031 18.970703 A 1 1 0 0 0 6 18.982422 A 1 1 0 0 0 6.0117188 18.982422 C 6.6018166 18.999538 7.2496233 19 8 19 L 12 19 A 1 1 0 0 0 13 18 A 1 1 0 0 0 12 17 L 8 17 C 7.6048686 17 7.23796 16.99894 6.9003906 16.996094 C 6.5042154 15.042779 4.9572095 13.495784 3.0039062 13.099609 C 3.0010599 12.762038 3 12.39513 3 12 L 3 10 C 3 9.6048679 3.00106 9.2379603 3.0039062 8.9003906 C 4.9572073 8.5042133 6.5042132 6.9572087 6.9003906 5.0039062 C 7.2379603 5.00106 7.6048679 5 8 5 L 16 5 C 16.39527 5 16.761939 5.0010571 17.099609 5.0039062 C 17.496806 6.9548486 19.046553 8.4977582 20.996094 8.8984375 C 20.998959 9.2367052 21 9.6038855 21 10 L 21 11 A 1 1 0 0 0 22 12 A 1 1 0 0 0 23 11 L 23 10 C 23 8.585785 23.005928 7.5044478 22.880859 6.5742188 C 22.75579 5.6439897 22.457155 4.8008908 21.828125 4.171875 C 21.199101 3.5428648 20.356004 3.2442065 19.425781 3.1191406 C 19.039559 3.0672141 18.605632 3.045861 18.154297 3.0292969 A 1 1 0 0 0 18 3.0175781 A 1 1 0 0 0 17.988281 3.0175781 C 17.398181 3.0004619 16.750369 3 16 3 L 8 3 z M 4.7988281 5.1074219 C 4.4981873 5.8832401 3.8832406 6.4981872 3.1074219 6.7988281 C 3.201938 6.1263209 3.3415234 5.8303516 3.5859375 5.5859375 C 3.8303516 5.3415234 4.126321 5.201938 4.7988281 5.1074219 z M 19.205078 5.1074219 C 19.874985 5.2019288 20.170081 5.341961 20.414062 5.5859375 C 20.657613 5.8294827 20.796126 6.1235837 20.890625 6.7910156 C 20.120422 6.487437 19.507504 5.8756718 19.205078 5.1074219 z M 12 7 C 9.8026731 7 8 8.8027269 8 11 C 8 13.197307 9.8026932 15 12 15 C 14.197307 15 16 13.197307 16 11 C 16 8.8027269 14.197327 7 12 7 z M 12 9 C 13.116473 9 14 9.8835731 14 11 C 14 12.116493 13.116493 13 12 13 C 10.883507 13 10 12.116493 10 11 C 10 9.8835731 10.883527 9 12 9 z M 19 13 C 17.354993 13 16 14.354993 16 16 L 16 16.283203 C 15.8516 16.361554 15.710178 16.461697 15.585938 16.585938 C 15.249814 16.922061 15.096766 17.383931 15.044922 17.769531 C 14.993078 18.155133 15 18.5286 15 19 C 15 19.4714 14.993102 19.844869 15.044922 20.230469 C 15.096762 20.616069 15.249815 21.07794 15.585938 21.414062 C 15.922059 21.750186 16.383931 21.903234 16.769531 21.955078 C 17.155133 22.006922 17.5286 22 18 22 L 20 22 C 20.4714 22 20.844869 22.006898 21.230469 21.955078 C 21.616069 21.903238 22.07794 21.750186 22.414062 21.414062 C 22.750186 21.077941 22.903234 20.616069 22.955078 20.230469 C 23.006922 19.844867 23 19.4714 23 19 C 23 18.5286 23.006898 18.155131 22.955078 17.769531 C 22.903238 17.383931 22.750186 16.922061 22.414062 16.585938 C 22.289821 16.461697 22.1484 16.361553 22 16.283203 L 22 16 C 22 14.354993 20.645007 13 19 13 z M 19 15 C 19.564193 15 20 15.435807 20 16 L 18 16 C 18 15.435807 18.435807 15 19 15 z M 3.1074219 15.201172 C 3.8832462 15.501809 4.4981894 16.116747 4.7988281 16.892578 C 4.126319 16.798062 3.8303545 16.658485 3.5859375 16.414062 C 3.3415152 16.169635 3.2019376 15.873678 3.1074219 15.201172 z M 18 18 L 20 18 C 20.4714 18 20.805819 18.006004 20.964844 18.027344 C 20.967192 18.02766 20.970411 18.02704 20.972656 18.027344 C 20.97296 18.029589 20.97234 18.032807 20.972656 18.035156 C 20.994029 18.194177 21 18.5286 21 19 C 21 19.4714 20.993996 19.805819 20.972656 19.964844 C 20.972341 19.967191 20.97296 19.970413 20.972656 19.972656 C 20.970411 19.97296 20.967193 19.97234 20.964844 19.972656 C 20.805823 19.994033 20.4714 20 20 20 L 18 20 C 17.5286 20 17.194181 19.993996 17.035156 19.972656 C 17.032809 19.972341 17.029587 19.97296 17.027344 19.972656 C 17.02704 19.970411 17.02766 19.967193 17.027344 19.964844 C 17.005967 19.805823 17 19.4714 17 19 C 17 18.5286 17.006004 18.194181 17.027344 18.035156 C 17.027659 18.032809 17.02704 18.029587 17.027344 18.027344 C 17.029589 18.02704 17.032807 18.02766 17.035156 18.027344 C 17.194177 18.005967 17.5286 18 18 18 z " fill="currentColor"/>
</svg>
