<svg xmlns="http://www.w3.org/2000/svg" width="1em" height="1em" viewBox="0 0 24 24" fill="currentColor">
  <path d="M 8 2.5 C 7.2496233 2.5 6.6018169 2.5004619 6.0117188 2.5175781 A 1 1 0 0 0 6 2.5175781 A 1 1 0 0 0 5.8457031 2.5292969 C 5.3943706 2.545861 4.9604426 2.5672141 4.5742188 2.6191406 C 3.6439921 2.7442065 2.800893 3.042857 2.171875 3.671875 C 1.542857 4.300893 1.2442065 5.1439921 1.1191406 6.0742188 C 1.0672141 6.4604426 1.045861 6.8943706 1.0292969 7.3457031 A 1 1 0 0 0 1.0175781 7.5 A 1 1 0 0 0 1.0175781 7.5117188 C 1.0004619 8.1018169 1 8.7496233 1 9.5 L 1 11.5 C 1 12.250369 1.0004619 12.898181 1.0175781 13.488281 A 1 1 0 0 0 1.0175781 13.5 A 1 1 0 0 0 1.0292969 13.654297 C 1.045861 14.105632 1.0672142 14.539559 1.1191406 14.925781 C 1.2442065 15.856004 1.5428648 16.699101 2.171875 17.328125 C 2.8008908 17.957155 3.6439898 18.25579 4.5742188 18.380859 C 4.9604436 18.432787 5.3943707 18.454139 5.8457031 18.470703 A 1 1 0 0 0 6 18.482422 A 1 1 0 0 0 6.0117188 18.482422 C 6.6018166 18.499538 7.2496233 18.5 8 18.5 L 13 18.5 A 1 1 0 0 0 14 17.5 A 1 1 0 0 0 13 16.5 L 8 16.5 C 7.604868 16.5 7.2379604 16.498944 6.9003906 16.496094 C 6.504213 14.542782 4.9572071 12.995783 3.0039062 12.599609 C 3.0010599 12.262038 3 11.89513 3 11.5 L 3 9.5 C 3 9.104868 3.00106 8.7379602 3.0039062 8.4003906 C 4.957209 8.0042136 6.5042136 6.457209 6.9003906 4.5039062 C 7.2379602 4.50106 7.604868 4.5 8 4.5 L 16 4.5 C 16.39527 4.5 16.761939 4.5010571 17.099609 4.5039062 C 17.496805 6.4548524 19.046554 7.9977589 20.996094 8.3984375 C 20.998959 8.7367052 21 9.1038855 21 9.5 L 21 10 A 1 1 0 0 0 22 11 A 1 1 0 0 0 23 10 L 23 9.5 C 23 8.085785 23.005928 7.0044478 22.880859 6.0742188 C 22.75579 5.1439897 22.457155 4.3008908 21.828125 3.671875 C 21.199101 3.0428648 20.356004 2.7442065 19.425781 2.6191406 C 19.039559 2.5672141 18.605632 2.545861 18.154297 2.5292969 A 1 1 0 0 0 18 2.5175781 A 1 1 0 0 0 17.988281 2.5175781 C 17.398181 2.5004619 16.750369 2.5 16 2.5 L 8 2.5 z M 4.7988281 4.6074219 C 4.498187 5.3832396 3.8832396 5.998187 3.1074219 6.2988281 C 3.201938 5.6263213 3.3415235 5.3303515 3.5859375 5.0859375 C 3.8303515 4.8415235 4.1263213 4.701938 4.7988281 4.6074219 z M 19.205078 4.6074219 C 19.874987 4.7019288 20.170081 4.8419607 20.414062 5.0859375 C 20.657614 5.3294829 20.796126 5.6235822 20.890625 6.2910156 C 20.120419 5.9874385 19.507503 5.3756765 19.205078 4.6074219 z M 12 6.5 C 9.8026731 6.5 8 8.3027269 8 10.5 C 8 12.697307 9.8026932 14.5 12 14.5 C 14.197307 14.5 16 12.697307 16 10.5 C 16 8.3027269 14.197327 6.5 12 6.5 z M 12 8.5 C 13.116473 8.5 14 9.3835731 14 10.5 C 14 11.616493 13.116493 12.5 12 12.5 C 10.883507 12.5 10 11.616493 10 10.5 C 10 9.3835731 10.883527 8.5 12 8.5 z M 20.509766 11.5 A 1 1 0 0 0 19.900391 11.699219 A 1 1 0 0 0 19.699219 13.099609 L 20 13.5 L 17 13.5 C 15.907293 13.5 15 14.407293 15 15.5 A 1 1 0 0 0 16 16.5 A 1 1 0 0 0 17 15.5 L 22 15.5 A 1.0001 1.0001 0 0 0 22.800781 13.900391 L 21.300781 11.900391 A 1 1 0 0 0 20.640625 11.509766 A 1 1 0 0 0 20.509766 11.5 z M 3.1074219 14.701172 C 3.8832462 15.001809 4.4981894 15.616747 4.7988281 16.392578 C 4.126319 16.298062 3.8303545 16.158484 3.5859375 15.914062 C 3.3415152 15.669634 3.2019376 15.373678 3.1074219 14.701172 z M 22 16.5 A 1 1 0 0 0 21 17.5 L 16 17.5 A 1.0001 1.0001 0 0 0 15.199219 19.099609 L 16.699219 21.099609 A 1 1 0 0 0 18.099609 21.300781 A 1 1 0 0 0 18.300781 19.900391 L 18 19.5 L 21 19.5 C 22.092707 19.5 23 18.592707 23 17.5 A 1 1 0 0 0 22 16.5 z " fill="currentColor"/>
</svg>
