<svg xmlns="http://www.w3.org/2000/svg" width="1em" height="1em" viewBox="0 0 24 24" fill="currentColor">
  <path d="M 3 2 A 1 1 0 0 0 2.2929688 2.2929688 A 1 1 0 0 0 2.2929688 3.7070312 L 3.109375 4.5234375 C 2.7633697 4.6845093 2.4483502 4.8953998 2.171875 5.171875 C 1.542857 5.800893 1.2442065 6.6439921 1.1191406 7.5742188 C 1.0672141 7.9604426 1.045861 8.3943706 1.0292969 8.8457031 A 1 1 0 0 0 1.0175781 9 A 1 1 0 0 0 1.0175781 9.0117188 C 1.0004619 9.6018169 1 10.249623 1 11 L 1 13 C 1 13.750369 1.0004619 14.398181 1.0175781 14.988281 A 1 1 0 0 0 1.0175781 15 A 1 1 0 0 0 1.0292969 15.154297 C 1.045861 15.605632 1.0672142 16.039559 1.1191406 16.425781 C 1.2442065 17.356004 1.5428648 18.199101 2.171875 18.828125 C 2.8008908 19.457155 3.6439898 19.75579 4.5742188 19.880859 C 4.9604436 19.932787 5.3943707 19.954139 5.8457031 19.970703 A 1 1 0 0 0 6 19.982422 A 1 1 0 0 0 6.0117188 19.982422 C 6.6018166 19.999538 7.2496233 20 8 20 L 16 20 C 16.99145 20 17.82035 20.001964 18.546875 19.960938 L 20.292969 21.707031 A 1 1 0 0 0 21.707031 21.707031 A 1 1 0 0 0 21.707031 20.292969 L 3.7070312 2.2929688 A 1 1 0 0 0 3 2 z M 9 4 A 1 1 0 0 0 8 5 A 1 1 0 0 0 9 6 L 16 6 C 16.39527 6 16.761939 6.0010571 17.099609 6.0039062 C 17.496805 7.9548524 19.046554 9.4977589 20.996094 9.8984375 C 20.998959 10.236705 21 10.603886 21 11 L 21 13 C 21 13.389965 20.997198 13.749772 20.992188 14.082031 C 20.30686 14.209529 19.669667 14.480524 19.117188 14.861328 A 1 1 0 0 0 18.861328 16.251953 A 1 1 0 0 0 20.251953 16.507812 C 20.445748 16.374237 20.655731 16.264901 20.878906 16.181641 C 20.825705 16.592149 20.751574 16.888964 20.650391 17.087891 A 1 1 0 0 0 21.087891 18.431641 A 1 1 0 0 0 22.431641 17.994141 C 23.074792 16.729697 23 15.278 23 13 L 23 11 C 23 9.585785 23.005928 8.5044478 22.880859 7.5742188 C 22.75579 6.6439897 22.457155 5.8008908 21.828125 5.171875 C 21.199101 4.5428648 20.356004 4.2442065 19.425781 4.1191406 C 19.039559 4.0672141 18.605632 4.045861 18.154297 4.0292969 A 1 1 0 0 0 18 4.0175781 A 1 1 0 0 0 17.988281 4.0175781 C 17.398181 4.0004619 16.750369 4 16 4 L 9 4 z M 19.205078 6.1074219 C 19.874987 6.2019288 20.170081 6.3419607 20.414062 6.5859375 C 20.657614 6.8294829 20.796126 7.1235822 20.890625 7.7910156 C 20.120419 7.4874385 19.507503 6.8756765 19.205078 6.1074219 z M 4.7050781 6.1191406 L 4.765625 6.1796875 C 4.4545885 6.9164472 3.856576 7.5039524 3.1074219 7.796875 C 3.2019332 7.1258202 3.3417723 6.8301027 3.5859375 6.5859375 C 3.8180295 6.3538455 4.1109187 6.2098611 4.7050781 6.1191406 z M 6.2421875 7.65625 L 8.5546875 9.96875 C 8.2026178 10.565555 8 11.262067 8 12 C 8 14.197239 9.802653 16 12 16 C 12.737939 16 13.434446 15.797384 14.03125 15.445312 L 16.585938 18 C 16.398394 18.000375 16.202838 18 16 18 L 8 18 C 7.6048686 18 7.23796 17.99894 6.9003906 17.996094 C 6.5042154 16.042779 4.9572095 14.495784 3.0039062 14.099609 C 3.0010599 13.762038 3 13.39513 3 13 L 3 11 C 3 10.605103 3.0010644 10.239746 3.0039062 9.9023438 C 4.3639075 9.6281021 5.5272021 8.7972249 6.2421875 7.65625 z M 10.066406 11.480469 L 12.519531 13.933594 C 12.354877 13.97741 12.180497 14 12 14 C 10.883547 14 10 13.116361 10 12 C 10 11.819497 10.022591 11.64512 10.066406 11.480469 z M 3.1074219 16.201172 C 3.8832462 16.501809 4.4981894 17.116747 4.7988281 17.892578 C 4.126319 17.798062 3.8303545 17.658485 3.5859375 17.414062 C 3.3415152 17.169635 3.2019376 16.873678 3.1074219 16.201172 z " fill="currentColor"/>
</svg>
