<svg xmlns="http://www.w3.org/2000/svg" width="1em" height="1em" viewBox="0 0 24 24" fill="currentColor">
  <path d="M 21.488281 1.4921875 A 1 1 0 0 0 20.78125 1.7851562 L 17.564453 5.0039062 L 17.488281 2.9765625 A 1 1 0 0 0 16.449219 2.015625 A 1 1 0 0 0 15.488281 3.0527344 L 15.607422 6.1445312 L 15.607422 6.1054688 C 15.607422 6.6688355 15.797336 7.2583669 16.208984 7.6777344 C 16.620632 8.0971019 17.189121 8.3023785 17.761719 8.34375 A 1.0001 1.0001 0 0 0 17.787109 8.3457031 L 20.912109 8.4921875 A 1 1 0 0 0 21.957031 7.5390625 A 1 1 0 0 0 21.005859 6.4941406 L 18.998047 6.4003906 L 22.195312 3.1992188 A 1 1 0 0 0 22.195312 1.7851562 A 1 1 0 0 0 21.488281 1.4921875 z M 12 1.5078125 C 9.76083 1.5078125 8.0610738 1.5003125 6.6542969 1.6894531 C 5.24752 1.8785903 4.0688962 2.3061038 3.1835938 3.1914062 C 2.2982949 4.0767049 1.8727295 5.2553319 1.6835938 6.6621094 C 1.494458 8.0688869 1.5 9.768632 1.5 12.007812 C 1.5 14.246963 1.4944601 15.944779 1.6835938 17.351562 C 1.8727292 18.758347 2.2983047 19.936938 3.1835938 20.822266 C 4.0688995 21.70754 5.2475238 22.135089 6.6542969 22.324219 C 8.0610699 22.513349 9.76083 22.507814 12 22.507812 C 14.23915 22.507812 15.938923 22.513312 17.345703 22.324219 C 18.752483 22.135089 19.931076 21.707532 20.816406 20.822266 C 21.701673 19.936936 22.127277 18.758344 22.316406 17.351562 C 22.505536 15.944782 22.5 14.246963 22.5 12.007812 L 22.5 11.007812 A 1 1 0 0 0 21.5 10.007812 A 1 1 0 0 0 20.5 11.007812 L 20.5 12.007812 C 20.5 14.246962 20.4946 15.905719 20.335938 17.085938 C 20.177267 18.266157 19.908277 18.902233 19.402344 19.408203 C 18.896374 19.914137 18.258345 20.183126 17.078125 20.341797 C 15.897905 20.500467 14.23915 20.507812 12 20.507812 C 9.76083 20.507812 8.1020844 20.500512 6.921875 20.341797 C 5.7416656 20.183127 5.1036004 19.914129 4.5976562 19.408203 C 4.0917053 18.90223 3.8227371 18.266154 3.6640625 17.085938 C 3.5053879 15.905721 3.5 14.246961 3.5 12.007812 C 3.5 9.768632 3.5053882 8.1079419 3.6640625 6.9277344 C 3.8227368 5.7475269 4.091715 5.1114101 4.5976562 4.6054688 C 5.1036038 4.0995212 5.7416694 3.8305503 6.921875 3.671875 C 8.1020806 3.5131997 9.76083 3.5078125 12 3.5078125 L 13 3.5078125 A 1 1 0 0 0 14 2.5078125 A 1 1 0 0 0 13 1.5078125 L 12 1.5078125 z M 12.001953 7.0078125 A 1 1 0 0 0 11.001953 8.0078125 L 11.001953 8.3242188 C 10.659694 8.4318285 10.26886 8.4360467 9.9882812 8.6464844 C 9.4310294 9.0644309 9.0019531 9.7333158 9.0019531 10.507812 C 9.0019531 11.282305 9.4310358 11.949244 9.9882812 12.367188 C 10.545527 12.78513 11.246985 13.007812 12.001953 13.007812 C 12.351517 13.007812 12.649777 13.121124 12.816406 13.246094 C 12.983035 13.371064 13.001953 13.453946 13.001953 13.507812 C 13.001953 13.561682 12.983033 13.642608 12.816406 13.767578 C 12.649777 13.892548 12.351517 14.007811 12.001953 14.007812 C 11.450569 14.007812 11.076854 13.701741 11.019531 13.580078 A 1 1 0 0 0 9.6894531 13.101562 A 1 1 0 0 0 9.2109375 14.433594 C 9.554386 15.16253 10.238812 15.547283 11.001953 15.769531 L 11.001953 16.007812 A 1 1 0 0 0 12.001953 17.007812 A 1 1 0 0 0 13.001953 16.007812 L 13.001953 15.689453 C 13.344094 15.581842 13.735128 15.577558 14.015625 15.367188 C 14.572871 14.949257 15.001953 14.282345 15.001953 13.507812 C 15.001953 12.733279 14.572871 12.064414 14.015625 11.646484 C 13.458379 11.228555 12.756889 11.007813 12.001953 11.007812 C 11.652321 11.007812 11.354105 10.892534 11.1875 10.767578 C 11.020895 10.642622 11.001953 10.561719 11.001953 10.507812 C 11.001953 10.453862 11.020903 10.371045 11.1875 10.246094 C 11.354098 10.121143 11.652312 10.007812 12.001953 10.007812 C 12.5532 10.007812 12.927044 10.311909 12.984375 10.433594 A 1 1 0 0 0 14.314453 10.912109 A 1 1 0 0 0 14.792969 9.5800781 C 14.449565 8.8512122 13.76495 8.4683806 13.001953 8.2460938 L 13.001953 8.0078125 A 1 1 0 0 0 12.001953 7.0078125 z " fill="currentColor"/>
</svg>
