<svg xmlns="http://www.w3.org/2000/svg" width="1em" height="1em" viewBox="0 0 24 24" fill="currentColor">
  <path d="M 3 2 A 1 1 0 0 0 2.2929688 2.2929688 A 1 1 0 0 0 2.2929688 3.7089844 L 3.0371094 4.453125 C 1.9108876 4.6969747 1 5.6826508 1 6.921875 L 1 16.939453 C 1 18.085538 1.7954276 19.107337 2.9296875 19.357422 C 6.5037281 20.14559 8.7135218 20.082732 10.548828 19.810547 C 12.384135 19.538362 13.751242 19.111328 16 19.111328 C 16.645127 19.111328 17.233375 19.137164 17.765625 19.181641 L 20.292969 21.708984 A 1 1 0 0 0 21.707031 21.708984 A 1 1 0 0 0 21.707031 20.292969 L 18.90625 17.494141 L 10.976562 9.5625 A 1 1 0 0 0 10.939453 9.5234375 L 6.4335938 5.0214844 L 3.7070312 2.2929688 A 1 1 0 0 0 3 2 z M 16 4.0019531 C 13.212353 4.0019531 11.589747 4.5820319 9.6777344 4.7988281 A 1 1 0 0 0 8.796875 5.9042969 A 1 1 0 0 0 9.9042969 6.7851562 C 12.065084 6.5401524 13.494647 6.0019531 16 6.0019531 C 18.376095 6.0019531 19.983341 6.3685855 20.835938 6.6328125 C 20.935598 6.6636987 21 6.7402183 21 6.9277344 L 21 16.683594 C 21 16.807493 20.96082 16.921694 20.863281 17.048828 A 1 1 0 0 0 21.048828 18.451172 A 1 1 0 0 0 22.449219 18.265625 C 22.778084 17.836959 23 17.285494 23 16.683594 L 23 6.9277344 C 23 5.9789304 22.415427 5.0281502 21.429688 4.7226562 C 20.397084 4.4026433 18.582705 4.0019531 16 4.0019531 z M 3.5488281 6.3925781 C 3.5927684 6.392295 3.6374255 6.3970886 3.6835938 6.40625 C 4.2440934 6.5174732 4.7667931 6.6057185 5.2597656 6.6757812 L 8.9199219 10.335938 C 8.6520206 10.832466 8.5 11.401571 8.5 12 C 8.5 13.92116 10.07885 15.5 12 15.5 C 12.598791 15.5 13.165968 15.346301 13.662109 15.078125 L 15.697266 17.113281 C 13.368249 17.149334 11.851246 17.595428 10.255859 17.832031 C 8.5924612 18.078721 6.7500544 18.152029 3.359375 17.404297 C 3.1493149 17.357982 3 17.169968 3 16.939453 L 3 6.921875 C 3 6.618412 3.2412462 6.3945601 3.5488281 6.3925781 z M 18.5 10.490234 A 1 1 0 0 0 17.5 11.490234 L 17.5 11.5 A 1 1 0 0 0 18.5 12.5 A 1 1 0 0 0 19.5 11.5 L 19.5 11.490234 A 1 1 0 0 0 18.5 10.490234 z M 5.5 11.490234 A 1 1 0 0 0 4.5 12.490234 L 4.5 12.5 A 1 1 0 0 0 5.5 13.5 A 1 1 0 0 0 6.5 12.5 L 6.5 12.490234 A 1 1 0 0 0 5.5 11.490234 z M 10.501953 11.917969 L 12.082031 13.498047 C 12.054979 13.499461 12.027513 13.5 12 13.5 C 11.15975 13.5 10.5 12.84024 10.5 12 C 10.5 11.972485 10.50054 11.945021 10.501953 11.917969 z " fill="currentColor"/>
</svg>
