<svg xmlns="http://www.w3.org/2000/svg" width="1em" height="1em" viewBox="0 0 24 24" fill="currentColor">
  <path d="M 16 3 C 13.588339 3 12.030263 3.442305 10.435547 3.6933594 C 9.2352151 3.8823262 7.9728667 3.9892252 6.1152344 3.7714844 A 1 1 0 0 0 6.0644531 3.7636719 A 1 1 0 0 0 5.9804688 3.7558594 C 5.4056823 3.6847443 4.7749573 3.5827985 4.0722656 3.4433594 C 2.5272221 3.1367525 1 4.3169734 1 5.921875 L 1 15.9375 C 1 17.083595 1.7954352 18.105381 2.9296875 18.355469 C 8.3133355 19.542726 10.593163 18.768311 13.160156 18.349609 A 1 1 0 0 0 13.986328 17.201172 A 1 1 0 0 0 12.839844 16.375 C 10.857199 16.698358 9.4729159 17.149354 6.9726562 16.966797 C 6.7417705 14.796457 5.1061854 13.029734 3 12.597656 L 3 8.8984375 C 4.702764 8.5523127 6.1086287 7.3492154 6.6816406 5.8300781 C 8.3351611 5.9567172 9.6091734 5.8489059 10.746094 5.6699219 C 12.487932 5.3957063 13.832561 5 16 5 C 16.552359 5 17.063764 5.0190007 17.533203 5.0527344 C 17.662013 6.1451328 18.161781 7.1409973 18.853516 7.9160156 C 19.435564 8.5681415 20.170812 9.0874084 21 9.3261719 L 21 13 A 1 1 0 0 0 22 14 A 1 1 0 0 0 23 13 L 23 5.9277344 C 23 4.9789304 22.415404 4.0262077 21.429688 3.7207031 C 20.3971 3.4007063 18.582707 3 16 3 z M 19.632812 5.3300781 C 20.130379 5.4291914 20.531473 5.5365064 20.835938 5.6308594 C 20.935622 5.6617548 21 5.7402183 21 5.9277344 L 21 7.1386719 C 20.772076 6.9965669 20.547887 6.8105112 20.345703 6.5839844 C 20.027397 6.2273545 19.776142 5.7880673 19.632812 5.3300781 z M 3.5488281 5.390625 C 3.5927678 5.3902882 3.6374267 5.3951352 3.6835938 5.4042969 C 3.9754341 5.4622084 4.2579068 5.5143045 4.53125 5.5605469 C 4.1746314 6.0657687 3.6218345 6.5309617 3 6.7890625 L 3 5.921875 C 3 5.6184264 3.2412507 5.3929827 3.5488281 5.390625 z M 12 7.5 C 10.078854 7.5 8.5 9.0788531 8.5 11 C 8.5 12.921141 10.07885 14.5 12 14.5 C 13.92115 14.5 15.5 12.92115 15.5 11 C 15.5 9.0788434 13.921146 7.5 12 7.5 z M 12 9.5 C 12.840254 9.5 13.5 10.159737 13.5 11 C 13.5 11.84025 12.84025 12.5 12 12.5 C 11.15975 12.5 10.5 11.840259 10.5 11 C 10.5 10.159727 11.159746 9.5 12 9.5 z M 19 13 A 1 1 0 0 0 18 14 L 18 16 L 16 16 A 1 1 0 0 0 15 17 A 1 1 0 0 0 16 18 L 18 18 L 18 20 A 1 1 0 0 0 19 21 A 1 1 0 0 0 20 20 L 20 18 L 22 18 A 1 1 0 0 0 23 17 A 1 1 0 0 0 22 16 L 20 16 L 20 14 A 1 1 0 0 0 19 13 z M 3 14.664062 C 3.9269092 14.987067 4.6398891 15.747813 4.8964844 16.705078 C 4.4209519 16.623488 3.9106949 16.523926 3.359375 16.402344 C 3.1493273 16.356031 3 16.168005 3 15.9375 L 3 14.664062 z " fill="currentColor"/>
</svg>
