<svg xmlns="http://www.w3.org/2000/svg" width="1em" height="1em" viewBox="0 0 24 24" fill="currentColor">
  <path d="M 8 4 C 6.585785 4 5.5044454 3.9940748 4.5742188 4.1191406 C 3.6439921 4.2442065 2.800893 4.542857 2.171875 5.171875 C 1.542857 5.800893 1.2442065 6.6439921 1.1191406 7.5742188 C 0.99407482 8.5044454 1 9.585785 1 11 L 1 13 C 1 14.4142 0.99407502 15.495558 1.1191406 16.425781 C 1.2442065 17.356004 1.5428648 18.199101 2.171875 18.828125 C 2.8008908 19.457155 3.6439898 19.75579 4.5742188 19.880859 C 5.5044479 20.005928 6.585785 20 8 20 L 16 20 C 17.4142 20 18.495556 20.0059 19.425781 19.880859 C 20.356006 19.75579 21.199103 19.457147 21.828125 18.828125 C 22.457147 18.199103 22.75579 17.356006 22.880859 16.425781 C 23.005928 15.495556 23 14.4142 23 13 L 23 11 C 23 9.585785 23.005928 8.5044478 22.880859 7.5742188 C 22.75579 6.6439897 22.457155 5.8008908 21.828125 5.171875 C 21.199101 4.5428648 20.356004 4.2442065 19.425781 4.1191406 C 18.495558 3.9940747 17.4142 4 16 4 L 8 4 z M 8 6 L 16 6 C 17.4142 6 18.454551 6.00696 19.158203 6.1015625 C 19.861855 6.1961665 20.164388 6.3362677 20.414062 6.5859375 C 20.663732 6.8356017 20.803832 7.1381434 20.898438 7.8417969 C 20.993043 8.5454503 21 9.585785 21 11 L 21 13 C 21 14.4142 20.993 15.454553 20.898438 16.158203 C 20.803828 16.861853 20.66374 17.164385 20.414062 17.414062 C 20.164386 17.66374 19.861853 17.803832 19.158203 17.898438 C 18.454553 17.993043 17.4142 18 16 18 L 8 18 C 6.585785 18 5.5454503 17.993043 4.8417969 17.898438 C 4.1381434 17.803832 3.8356017 17.663732 3.5859375 17.414062 C 3.3362677 17.164388 3.1961666 16.861855 3.1015625 16.158203 C 3.0069584 15.454551 3 14.4142 3 13 L 3 11 C 3 9.585785 3.0069583 8.5454528 3.1015625 7.8417969 C 3.1961667 7.138141 3.3362755 6.8355995 3.5859375 6.5859375 C 3.8355995 6.3362755 4.138141 6.1961667 4.8417969 6.1015625 C 5.5454528 6.0069583 6.585785 6 8 6 z M 12 8 C 9.8026932 8 8 9.8026932 8 12 C 8 14.197307 9.8026932 16 12 16 C 14.197307 16 16 14.197307 16 12 C 16 9.8026932 14.197307 8 12 8 z M 12 10 C 13.116493 10 14 10.883507 14 12 C 14 13.116493 13.116493 14 12 14 C 10.883507 14 10 13.116493 10 12 C 10 10.883507 10.883507 10 12 10 z M 5.25 10.75 C 4.5716244 10.75 4 11.321567 4 12 C 4 12.678433 4.5716244 13.25 5.25 13.25 C 5.9283756 13.25 6.5 12.678433 6.5 12 C 6.5 11.321567 5.9283756 10.75 5.25 10.75 z M 18.75 10.75 C 18.071712 10.75 17.5 11.321712 17.5 12 C 17.5 12.678288 18.071712 13.25 18.75 13.25 C 19.428288 13.25 20 12.678288 20 12 C 20 11.321712 19.428288 10.75 18.75 10.75 z " fill="currentColor"/>
</svg>
