<svg xmlns="http://www.w3.org/2000/svg" width="1em" height="1em" viewBox="0 0 24 24" fill="currentColor">
  <path d="M 7.1328125 1 A 1.0001 1.0001 0 0 0 6.1425781 2.1230469 C 6.2460342 2.9638248 5.8604762 3.8218651 5.0859375 4.2734375 C 4.3113909 4.7250146 3.3941668 4.6335287 2.7304688 4.1269531 A 1.0001 1.0001 0 0 0 1.1542969 4.6777344 C 0.84472133 5.9112554 0.99529513 7.2702274 1.6738281 8.4570312 C 2.0976077 9.1982516 2.6828891 9.7935466 3.359375 10.220703 C 1.9324878 11.278302 1 12.932616 1 14.833984 C 1 16.487921 1.6541976 18.109693 2.8066406 19.220703 A 1 1 0 0 0 4.2207031 19.193359 A 1 1 0 0 0 4.1933594 17.779297 C 3.4944427 17.105503 3 15.931248 3 14.833984 C 3 12.938191 4.359374 11.363665 6.1894531 10.998047 C 6.4399523 10.99088 6.6918168 10.963699 6.9414062 10.917969 C 6.9609277 10.917711 6.9804103 10.917969 7 10.917969 C 7.9091305 10.917969 8.737188 11.210743 9.40625 11.705078 A 1 1 0 0 0 10.804688 11.494141 A 1 1 0 0 0 10.595703 10.095703 C 9.8006668 9.5082918 8.825918 9.1861566 7.796875 9.046875 C 8.3875287 7.2963805 9.9948414 6 12 6 C 14.506108 6 16.5 7.9704177 16.5 10.408203 C 16.5 10.542789 16.494402 10.677223 16.482422 10.808594 L 16.482422 10.810547 C 16.398912 11.716991 16.036354 12.542344 15.476562 13.208984 A 1 1 0 0 0 15.599609 14.617188 A 1 1 0 0 0 17.007812 14.494141 C 17.593827 13.796272 17.963868 12.942825 18.208984 12.039062 C 19.801952 12.366628 21 13.676377 21 15.326172 C 21 16.230986 20.603301 17.243067 20.064453 17.810547 A 1 1 0 0 0 20.101562 19.224609 A 1 1 0 0 0 21.515625 19.189453 C 22.478576 18.175337 23 16.755958 23 15.326172 C 23 12.660081 20.995434 10.541975 18.433594 10.087891 C 18.253546 6.708285 15.454384 4 12 4 C 11.570598 4 11.151989 4.0427708 10.748047 4.1230469 C 10.653615 3.8730681 10.538613 3.6270165 10.402344 3.3886719 C 9.7238099 2.2018794 8.6288891 1.386819 7.4101562 1.0390625 A 1.0001 1.0001 0 0 0 7.1328125 1 z M 7.8222656 3.7167969 C 8.1046854 3.9468429 8.4713281 4.0403402 8.6660156 4.3808594 C 8.7479383 4.5241471 8.8166985 4.6698139 8.8730469 4.8183594 C 7.3234008 5.6953366 6.1813345 7.2049833 5.7617188 8.9882812 C 4.8180918 8.9018125 3.9277387 8.370132 3.4101562 7.4648438 C 3.2124055 7.1189634 3.3148921 6.7429173 3.2597656 6.3730469 C 4.21015 6.5596728 5.1944426 6.5251296 6.0917969 6.0019531 C 6.9899135 5.4783321 7.5095403 4.637014 7.8222656 3.7167969 z M 9.4003906 16.037109 C 8.7977592 16.037109 8.1946392 16.230364 7.7070312 16.615234 L 7.3808594 16.873047 A 1 1 0 0 0 7.2148438 18.277344 A 1 1 0 0 0 8.6191406 18.443359 L 8.9453125 18.185547 C 9.3214166 17.888687 9.4774253 17.888693 9.8535156 18.185547 L 10.107422 18.384766 C 11.082625 19.15445 12.516984 19.15445 13.492188 18.384766 L 13.746094 18.185547 C 14.122291 17.888631 14.2781 17.888631 14.654297 18.185547 L 14.90625 18.384766 C 15.12642 18.558592 15.367614 18.702576 15.623047 18.806641 A 1 1 0 0 0 16.925781 18.257812 A 1 1 0 0 0 16.376953 16.953125 C 16.308383 16.925195 16.231314 16.881425 16.146484 16.814453 L 15.892578 16.615234 C 14.917375 15.84555 13.483016 15.84555 12.507812 16.615234 L 12.253906 16.814453 C 11.877709 17.111369 11.7219 17.111369 11.345703 16.814453 L 11.09375 16.615234 C 10.606145 16.230361 10.003022 16.03711 9.4003906 16.037109 z M 3.4882812 20.029297 C 2.8747077 20.029297 2.2618031 20.219046 1.7519531 20.597656 A 1.0001 1.0001 0 0 0 1.75 20.597656 L 1.4042969 20.855469 A 1 1 0 0 0 1.1972656 22.253906 A 1 1 0 0 0 2.5957031 22.460938 L 2.9433594 22.203125 C 3.3599793 21.893746 3.6165832 21.893746 4.0332031 22.203125 L 4.3027344 22.402344 C 5.3224344 23.159565 6.7556906 23.159565 7.7753906 22.402344 L 8.0449219 22.203125 C 8.4615244 21.893755 8.7181631 21.893755 9.1347656 22.203125 L 9.4042969 22.402344 A 1 1 0 0 0 10.802734 22.195312 A 1 1 0 0 0 10.595703 20.796875 L 10.326172 20.597656 C 9.3064743 19.840426 7.8732131 19.840426 6.8535156 20.597656 L 6.5839844 20.796875 C 6.1673644 21.106254 5.9107606 21.106254 5.4941406 20.796875 L 5.2246094 20.597656 C 4.7147594 20.219046 4.1018546 20.029297 3.4882812 20.029297 z M 15.410156 20.029297 C 14.796594 20.0293 14.183682 20.219064 13.673828 20.597656 L 13.404297 20.796875 A 1 1 0 0 0 13.197266 22.195312 A 1 1 0 0 0 14.595703 22.402344 L 14.865234 22.203125 C 15.28191 21.893722 15.538542 21.893782 15.955078 22.203125 L 16.224609 22.402344 C 17.244334 23.159541 18.677602 23.159601 19.697266 22.402344 L 19.966797 22.203125 C 20.383333 21.893782 20.639965 21.893722 21.056641 22.203125 L 21.404297 22.460938 A 1 1 0 0 0 22.802734 22.253906 A 1 1 0 0 0 22.595703 20.855469 L 22.25 20.597656 A 1.0001 1.0001 0 0 0 22.248047 20.597656 C 21.228323 19.840459 19.795054 19.840399 18.775391 20.597656 L 18.505859 20.796875 C 18.089323 21.106218 17.832691 21.106278 17.416016 20.796875 L 17.146484 20.597656 C 16.636656 20.21903 16.023726 20.029301 15.410156 20.029297 z " fill="currentColor"/>
</svg>
