<svg xmlns="http://www.w3.org/2000/svg" width="1em" height="1em" viewBox="0 0 24 24" fill="currentColor">
  <path d="M 12 1 C 5.9367104 1 1 5.9367104 1 12 C 1 18.063244 5.9367044 23 12 23 C 18.06325 23 23 18.06325 23 12 C 23 10.37234 22.644905 8.8223777 22.007812 7.4296875 C 20.908725 5.0270134 18.972959 3.0912617 16.570312 1.9921875 C 15.177691 1.3551187 13.627669 1 12 1 z M 12 3 C 12.886106 3 13.670355 3.2997445 14.476562 3.5371094 C 14.183815 4.1351731 14 4.7936198 14 5.5 C 14 7.973438 16.026562 10 18.5 10 C 19.20641 10 19.864827 9.8161974 20.462891 9.5234375 C 20.700259 10.329652 21 11.113888 21 12 C 21 16.98235 16.98235 21 12 21 C 7.0175956 21 3 16.982356 3 12 C 3 7.0175896 7.0175896 3 12 3 z M 16.511719 4.3496094 C 17.813561 5.1216228 18.87837 6.1864376 19.650391 7.4882812 C 19.283324 7.7020107 18.960488 8 18.5 8 C 17.107438 8 16 6.892562 16 5.5 C 16 5.0395394 16.297992 4.7166917 16.511719 4.3496094 z M 10.005859 6.75 C 9.3274558 6.75 8.7558594 7.3214795 8.7558594 8 C 8.7558594 8.6785205 9.3274558 9.25 10.005859 9.25 C 10.684584 9.25 11.255859 8.6788585 11.255859 8 C 11.255859 7.3211415 10.684584 6.75 10.005859 6.75 z M 7.0058594 12.75 C 6.3274837 12.75 5.7558594 13.321567 5.7558594 14 C 5.7558594 14.678433 6.3274837 15.25 7.0058594 15.25 C 7.684235 15.25 8.2558594 14.678433 8.2558594 14 C 8.2558594 13.321567 7.684235 12.75 7.0058594 12.75 z M 14 13 C 12.354993 13 11 14.354993 11 16 C 11 17.645007 12.354993 19 14 19 C 15.645007 19 17 17.645007 17 16 C 17 14.354993 15.645007 13 14 13 z M 14 15 C 14.564193 15 15 15.435807 15 16 C 15 16.564193 14.564193 17 14 17 C 13.435807 17 13 16.564193 13 16 C 13 15.435807 13.435807 15 14 15 z " fill="currentColor"/>
</svg>
