<svg xmlns="http://www.w3.org/2000/svg" width="1em" height="1em" viewBox="0 0 24 24" fill="currentColor">
  <path d="M 7.1328125 1 A 1.0001 1.0001 0 0 0 6.1425781 2.1230469 C 6.2460342 2.9638248 5.8604762 3.8218651 5.0859375 4.2734375 C 4.3113909 4.7250146 3.3941668 4.6335287 2.7304688 4.1269531 A 1.0001 1.0001 0 0 0 1.1542969 4.6777344 C 0.84472133 5.9112554 0.99529513 7.2702274 1.6738281 8.4570312 C 2.1090768 9.2183118 2.7142061 9.8245057 3.4140625 10.253906 C 1.9547808 11.322127 1 13.015462 1 14.958984 C 1 16.90955 1.9369014 18.677403 3.3925781 19.792969 A 1 1 0 0 0 4.7929688 19.607422 A 1 1 0 0 0 4.6074219 18.207031 C 3.6341986 17.461197 3 16.266619 3 14.958984 C 3 12.880739 4.5817873 11.190774 6.6152344 10.998047 C 6.7417276 10.98605 6.8697562 10.980469 7 10.980469 C 7.9063533 10.980469 8.7331117 11.274684 9.4023438 11.775391 A 1 1 0 0 0 10.800781 11.574219 A 1 1 0 0 0 10.599609 10.175781 C 9.8098508 9.5848987 8.8420474 9.2578738 7.8183594 9.1152344 A 1 1 0 0 0 7.796875 9.0976562 C 8.3874589 7.3151219 9.9985046 6 12 6 C 14.499361 6 16.5 7.9958745 16.5 10.478516 C 16.5 10.615464 16.494402 10.750914 16.482422 10.884766 L 16.482422 10.886719 C 16.429492 11.468259 16.263962 12.016379 16.009766 12.511719 A 1 1 0 0 0 16.443359 13.857422 A 1 1 0 0 0 17.789062 13.423828 C 17.994643 13.023224 18.050838 12.553174 18.169922 12.109375 C 19.77897 12.426653 21 13.760867 21 15.457031 C 21 16.681758 20.449582 17.496305 19.443359 18.169922 A 1 1 0 0 0 19.169922 19.556641 A 1 1 0 0 0 20.556641 19.830078 C 21.968818 18.884695 23 17.356704 23 15.457031 C 23 12.769852 21.000428 10.62636 18.435547 10.166016 C 18.261743 6.7505784 15.464826 4 12 4 C 11.570647 4 11.151775 4.042057 10.748047 4.1230469 C 10.653538 3.8726882 10.538813 3.627366 10.402344 3.3886719 C 9.7238099 2.2018794 8.6288891 1.386819 7.4101562 1.0390625 A 1.0001 1.0001 0 0 0 7.1328125 1 z M 7.8222656 3.7167969 C 8.1046854 3.9468429 8.4713281 4.0403402 8.6660156 4.3808594 C 8.7491669 4.5262961 8.8181823 4.6753303 8.875 4.8261719 C 7.3370086 5.7043576 6.2007999 7.2093185 5.7714844 8.9882812 C 4.8239758 8.9047963 3.9296519 8.3734783 3.4101562 7.4648438 C 3.2124055 7.1189634 3.3148921 6.7429173 3.2597656 6.3730469 C 4.21015 6.5596728 5.1944426 6.5251296 6.0917969 6.0019531 C 6.9899135 5.4783321 7.5095403 4.637014 7.8222656 3.7167969 z M 7.9433594 15.001953 A 1 1 0 0 0 7.6875 15.050781 A 1 1 0 0 0 7.109375 15.552734 L 6.109375 17.552734 A 1 1 0 0 0 6.5566406 18.894531 A 1 1 0 0 0 7.8984375 18.447266 L 8.8984375 16.447266 A 1 1 0 0 0 8.4511719 15.105469 A 1 1 0 0 0 7.9433594 15.001953 z M 12.443359 15.001953 A 1 1 0 0 0 12.1875 15.050781 A 1 1 0 0 0 11.609375 15.552734 L 10.609375 17.552734 A 1 1 0 0 0 11.056641 18.894531 A 1 1 0 0 0 12.398438 18.447266 L 13.398438 16.447266 A 1 1 0 0 0 12.951172 15.105469 A 1 1 0 0 0 12.443359 15.001953 z M 16.943359 15.001953 A 1 1 0 0 0 16.109375 15.552734 L 15.109375 17.552734 A 1 1 0 0 0 15.556641 18.894531 A 1 1 0 0 0 16.898438 18.447266 L 17.898438 16.447266 A 1 1 0 0 0 17.451172 15.105469 A 1 1 0 0 0 16.943359 15.001953 z M 8.9433594 19.001953 A 1 1 0 0 0 8.6875 19.050781 A 1 1 0 0 0 8.109375 19.552734 L 7.109375 21.552734 A 1 1 0 0 0 7.5566406 22.894531 A 1 1 0 0 0 8.8984375 22.447266 L 9.8984375 20.447266 A 1 1 0 0 0 9.4511719 19.105469 A 1 1 0 0 0 8.9433594 19.001953 z M 13.443359 19.001953 A 1 1 0 0 0 13.1875 19.050781 A 1 1 0 0 0 12.609375 19.552734 L 11.609375 21.552734 A 1 1 0 0 0 12.056641 22.894531 A 1 1 0 0 0 13.398438 22.447266 L 14.398438 20.447266 A 1 1 0 0 0 13.951172 19.105469 A 1 1 0 0 0 13.443359 19.001953 z " fill="currentColor"/>
</svg>
