<svg xmlns="http://www.w3.org/2000/svg" width="1em" height="1em" viewBox="0 0 24 24" fill="currentColor">
  <path d="M 7.1328125 1 A 1.0001 1.0001 0 0 0 6.1425781 2.1230469 C 6.2460342 2.9638248 5.8604762 3.8218651 5.0859375 4.2734375 C 4.3113909 4.7250146 3.3941668 4.6335287 2.7304688 4.1269531 A 1.0001 1.0001 0 0 0 1.1542969 4.6777344 C 0.84472133 5.9112554 0.99529513 7.2702274 1.6738281 8.4570312 C 2.1199325 9.2372993 2.7446717 9.8541132 3.4667969 10.285156 C 1.9767595 11.362204 1 13.091015 1 15.074219 C 1 17.764722 2.7594911 20.063927 5.1992188 20.835938 A 1 1 0 0 0 6.453125 20.183594 A 1 1 0 0 0 5.8007812 18.927734 C 4.1834089 18.415945 3 16.894916 3 15.074219 C 3 12.960122 4.5874657 11.251068 6.6152344 11.056641 C 6.7413943 11.044571 6.8699623 11.037109 7 11.037109 C 7.9038781 11.037109 8.7271697 11.335102 9.3964844 11.841797 A 1 1 0 0 0 10.796875 11.648438 A 1 1 0 0 0 10.603516 10.248047 C 9.8300876 9.6625345 8.8848704 9.3306627 7.8828125 9.1816406 A 1 1 0 0 0 7.8085938 9.1074219 C 8.4088996 7.3139465 10.01537 6 12 6 C 14.493118 6 16.5 8.0171332 16.5 10.541016 C 16.5 10.680321 16.494502 10.81917 16.482422 10.955078 L 16.482422 10.957031 C 16.421582 11.632485 16.10335 12.272307 15.660156 12.957031 A 1 1 0 0 0 15.957031 14.339844 A 1 1 0 0 0 17.339844 14.042969 C 17.67012 13.532699 17.849331 12.822005 18.072266 12.160156 C 19.726543 12.442498 21 13.816805 21 15.578125 C 21 17.273483 19.830257 18.670406 18.277344 19.025391 A 1 1 0 0 0 17.525391 20.222656 A 1 1 0 0 0 18.722656 20.974609 C 21.177743 20.413394 23 18.197967 23 15.578125 C 23 12.871927 21.006263 10.703204 18.439453 10.236328 C 18.271686 6.787393 15.474679 4 12 4 C 11.57066 4 11.1535 4.0433463 10.75 4.125 C 10.655419 3.8742881 10.538999 3.6276908 10.402344 3.3886719 C 9.7238099 2.2018794 8.6288891 1.386819 7.4101562 1.0390625 A 1.0001 1.0001 0 0 0 7.1328125 1 z M 7.8222656 3.7167969 C 8.1046854 3.9468429 8.4713281 4.0403402 8.6660156 4.3808594 C 8.7503386 4.5283454 8.8196979 4.6789986 8.8769531 4.8320312 C 7.3502638 5.7113351 6.2209558 7.215267 5.7832031 8.9902344 C 4.8314028 8.9100845 3.9317707 8.377184 3.4101562 7.4648438 C 3.2124055 7.1189634 3.3148921 6.7429173 3.2597656 6.3730469 C 4.21015 6.5596728 5.1944426 6.5251296 6.0917969 6.0019531 C 6.9899135 5.4783321 7.5095403 4.637014 7.8222656 3.7167969 z M 12 15 A 1 1 0 0 0 11 16 L 11 17.234375 L 10.013672 16.642578 A 1 1 0 0 0 8.6425781 16.986328 A 1 1 0 0 0 8.9863281 18.357422 L 10.056641 19 L 8.9863281 19.642578 A 1 1 0 0 0 8.6425781 21.013672 A 1 1 0 0 0 10.013672 21.357422 L 11 20.765625 L 11 22 A 1 1 0 0 0 12 23 A 1 1 0 0 0 13 22 L 13 20.765625 L 13.986328 21.357422 A 1 1 0 0 0 15.357422 21.013672 A 1 1 0 0 0 15.013672 19.642578 L 13.943359 19 L 15.013672 18.357422 A 1 1 0 0 0 15.357422 16.986328 A 1 1 0 0 0 13.986328 16.642578 L 13 17.234375 L 13 16 A 1 1 0 0 0 12 15 z " fill="currentColor"/>
</svg>
