<svg xmlns="http://www.w3.org/2000/svg" width="1em" height="1em" viewBox="0 0 24 24" fill="currentColor">
  <path d="M 13.830078 2.0058594 C 13.540484 2.0157832 13.250225 2.0388925 12.960938 2.0761719 C 11.803786 2.2252894 10.657799 2.595987 9.5859375 3.203125 C 6.4842697 4.959961 4.8089853 8.2536521 5.0175781 11.5625 A 1 1 0 0 0 6.078125 12.498047 A 1 1 0 0 0 7.0136719 11.4375 C 6.8523847 8.8790479 8.1304398 6.3253434 10.570312 4.9433594 C 11.82218 4.2342593 13.186562 4.0624186 14.527344 4.1347656 C 13.631272 6.1670798 13.651563 8.5633963 14.861328 10.619141 C 16.088068 12.703618 18.218489 13.906115 20.482422 14.132812 C 20.081682 14.911031 19.586518 15.644713 18.894531 16.242188 A 1 1 0 0 0 18.791016 17.654297 A 1 1 0 0 0 20.201172 17.757812 C 21.549186 16.59391 22.490122 15.087749 22.960938 13.453125 A 1.0001 1.0001 0 0 0 21.878906 12.183594 C 19.808364 12.436006 17.691876 11.482727 16.585938 9.6035156 C 15.479986 7.7241803 15.699477 5.4795792 16.949219 3.8574219 A 1.0001 1.0001 0 0 0 16.398438 2.2753906 C 15.564069 2.0679283 14.698859 1.976088 13.830078 2.0058594 z M 11 11 C 9.3550085 11 8 12.354975 8 14 A 1 1 0 0 0 9 15 A 1 1 0 0 0 10 14 C 10 13.435825 10.435851 13 11 13 C 11.564193 13 12 13.435807 12 14 C 12 14.186059 11.95223 14.353001 11.867188 14.5 C 11.61438 14.937042 10.033471 15.898876 8.15625 16.066406 C 6.2790293 16.233936 4.2019508 15.787888 2.7070312 14.292969 A 1 1 0 0 0 1.2929688 14.292969 A 1 1 0 0 0 1.2929688 15.707031 C 3.2980492 17.712112 6.0092301 18.266064 8.3339844 18.058594 C 10.658739 17.851124 12.693563 17.062958 13.597656 15.5 C 13.853015 15.058599 14 14.542541 14 14 C 14 12.354993 12.645007 11 11 11 z M 14.5 17 C 14.014128 17 13.551904 17.140898 13.166016 17.384766 A 1.0001 1.0001 0 0 0 13.132812 17.408203 C 12.129233 18.099195 10.101415 19.066496 7.8925781 19.306641 A 1 1 0 0 0 7.0058594 20.408203 A 1 1 0 0 0 8.1074219 21.294922 C 10.719272 21.010961 12.934095 19.963864 14.234375 19.076172 L 14.251953 19.066406 C 14.324805 19.023988 14.404955 19 14.5 19 C 14.78792 19 15 19.21208 15 19.5 C 15 19.78792 14.78792 20 14.5 20 C 14.43917 20 14.385335 19.990796 14.333984 19.972656 A 1 1 0 0 0 13.056641 20.582031 A 1 1 0 0 0 13.666016 21.857422 C 13.927465 21.949861 14.21023 22 14.5 22 C 15.86888 22 17 20.86888 17 19.5 C 17 18.13112 15.86888 17 14.5 17 z M 21.005859 18.455078 A 1 1 0 0 0 20.623047 18.529297 C 19.662018 18.920684 18.948401 19 19 19 A 1 1 0 0 0 18 20 A 1 1 0 0 0 19 21 C 19.567799 21 20.249382 20.840072 21.376953 20.380859 A 1 1 0 0 0 21.925781 19.078125 A 1 1 0 0 0 21.005859 18.455078 z M 3.0429688 18.548828 A 1 1 0 0 0 2.65625 18.609375 A 1 1 0 0 0 2.09375 19.126953 A 1 1 0 0 0 2.578125 20.455078 C 3.3146174 20.797189 4.064376 21.031216 4.8085938 21.175781 A 1 1 0 0 0 5.9824219 20.384766 A 1 1 0 0 0 5.1914062 19.212891 C 4.5961241 19.097256 4.0041826 18.911115 3.421875 18.640625 A 1 1 0 0 0 3.0429688 18.548828 z " fill="currentColor"/>
</svg>
