<svg xmlns="http://www.w3.org/2000/svg" width="1em" height="1em" viewBox="0 0 24 24" fill="currentColor">
  <path d="M 12 2 C 10.631145 2 9.5 3.1311099 9.5 4.5 C 9.5 5.8688901 10.631145 7 12 7 C 13.368855 7 14.5 5.8688901 14.5 4.5 C 14.5 3.1311099 13.368855 2 12 2 z M 12 4 C 12.287945 4 12.5 4.2120301 12.5 4.5 C 12.5 4.7879699 12.287945 5 12 5 C 11.712055 5 11.5 4.7879699 11.5 4.5 C 11.5 4.2120301 11.712055 4 12 4 z M 12 9.5 C 10.63112 9.5 9.5 10.63112 9.5 12 C 9.5 13.36888 10.63112 14.5 12 14.5 C 13.36888 14.5 14.5 13.36888 14.5 12 C 14.5 10.63112 13.36888 9.5 12 9.5 z M 12 11.5 C 12.28792 11.5 12.5 11.71208 12.5 12 C 12.5 12.28792 12.28792 12.5 12 12.5 C 11.71208 12.5 11.5 12.28792 11.5 12 C 11.5 11.71208 11.71208 11.5 12 11.5 z M 12 17 C 10.63112 17 9.5 18.13112 9.5 19.5 C 9.5 20.86888 10.63112 22 12 22 C 13.36888 22 14.5 20.86888 14.5 19.5 C 14.5 18.13112 13.36888 17 12 17 z M 12 19 C 12.28792 19 12.5 19.21208 12.5 19.5 C 12.5 19.78792 12.28792 20 12 20 C 11.71208 20 11.5 19.78792 11.5 19.5 C 11.5 19.21208 11.71208 19 12 19 z " fill="currentColor"/>
</svg>
