<svg xmlns="http://www.w3.org/2000/svg" width="1em" height="1em" viewBox="0 0 24 24" fill="currentColor">
  <path d="M 6.2089844 2.0019531 A 1 1 0 0 0 5.5214844 2.3359375 L 5.0019531 2.921875 C 4.3580682 3.6483999 3.8612167 4.1974288 3.4980469 4.7421875 C 3.134877 5.2869462 2.8428312 6.0111415 3.1054688 6.7265625 C 3.2367803 7.0842753 3.524332 7.4131497 3.8339844 7.5976562 C 4.1436367 7.7821628 4.45344 7.8600338 4.7675781 7.9101562 C 5.3958544 8.0104011 6.0933114 8 7.0039062 8 L 20 8 A 1 1 0 0 0 21 7 A 1 1 0 0 0 20 6 L 7.0039062 6 C 6.1049821 6 5.4406562 5.9897911 5.0976562 5.9375 C 5.1071438 5.9295862 5.1252581 5.9068401 5.1621094 5.8515625 C 5.386169 5.5154658 5.8541618 4.9765251 6.4980469 4.25 L 7.0175781 3.6640625 A 1 1 0 0 0 6.9316406 2.2519531 A 1 1 0 0 0 6.2089844 2.0019531 z M 5.0839844 5.9316406 L 5.0859375 5.9316406 L 5.0859375 5.9335938 L 5.0878906 5.9355469 C 5.0868532 5.9353831 5.0850157 5.9357114 5.0839844 5.9355469 L 5.0839844 5.9335938 L 5.0839844 5.9316406 z M 4 11 A 1 1 0 0 0 3 12 A 1 1 0 0 0 4 13 L 20 13 A 1 1 0 0 0 21 12 A 1 1 0 0 0 20 11 L 4 11 z M 4 16 A 1 1 0 0 0 3 17 A 1 1 0 0 0 4 18 L 16.996094 18 C 17.895057 18 18.559351 18.010209 18.902344 18.0625 C 18.892853 18.070422 18.874729 18.093181 18.837891 18.148438 C 18.613841 18.484527 18.145846 19.023509 17.501953 19.75 L 16.982422 20.335938 A 1 1 0 0 0 17.068359 21.748047 A 1 1 0 0 0 18.478516 21.664062 L 18.998047 21.078125 C 19.641954 20.351616 20.138777 19.802599 20.501953 19.257812 C 20.865129 18.713027 21.157269 17.988867 20.894531 17.273438 C 20.763172 16.915724 20.475668 16.584893 20.166016 16.400391 C 19.856364 16.215889 19.546558 16.139964 19.232422 16.089844 C 18.604149 15.989603 17.906694 16 16.996094 16 L 4 16 z M 18.912109 18.064453 C 18.91313 18.064614 18.915001 18.064291 18.916016 18.064453 L 18.916016 18.066406 L 18.916016 18.068359 L 18.914062 18.068359 L 18.914062 18.066406 L 18.912109 18.064453 z " fill="currentColor"/>
</svg>
