<svg xmlns="http://www.w3.org/2000/svg" width="1em" height="1em" viewBox="0 0 24 24" fill="currentColor">
  <path d="M 12 1 C 5.9367104 1 1 5.9367104 1 12 C 1 18.063244 5.9367044 23 12 23 C 18.06325 23 23 18.06325 23 12 C 23 5.9367044 18.063244 1 12 1 z M 12 3 C 16.982356 3 21 7.0175956 21 12 C 21 16.98235 16.98235 21 12 21 C 7.0175956 21 3 16.982356 3 12 C 3 7.0175896 7.0175896 3 12 3 z M 12 5.5 C 11.183371 5.5 10.5 6.1833129 10.5 7 C 10.5 7.8166871 11.183371 8.5 12 8.5 C 12.816629 8.5 13.5 7.8166871 13.5 7 C 13.5 6.1833129 12.816629 5.5 12 5.5 z M 12 10.5 C 11.183275 10.5 10.5 11.183275 10.5 12 C 10.5 12.816725 11.183275 13.5 12 13.5 C 12.816725 13.5 13.5 12.816725 13.5 12 C 13.5 11.183275 12.816725 10.5 12 10.5 z M 12 15.5 C 11.183275 15.5 10.5 16.183275 10.5 17 C 10.5 17.816725 11.183275 18.5 12 18.5 C 12.816725 18.5 13.5 17.816725 13.5 17 C 13.5 16.183275 12.816725 15.5 12 15.5 z " fill="currentColor"/>
</svg>
