<svg xmlns="http://www.w3.org/2000/svg" width="1em" height="1em" viewBox="0 0 24 24" fill="currentColor">
  <path d="M 11.5 4 C 10.683371 4 10 4.6833129 10 5.5 L 10 6.5 C 10 7.3166775 10.683395 8 11.5 8 L 12.5 8 C 13.316605 8 14 7.3166775 14 6.5 L 14 5.5 C 14 4.6833129 13.316629 4 12.5 4 L 11.5 4 z M 11.5 10 C 10.683275 10 10 10.683275 10 11.5 L 10 12.5 C 10 13.316725 10.683275 14 11.5 14 L 12.5 14 C 13.316725 14 14 13.316725 14 12.5 L 14 11.5 C 14 10.683275 13.316725 10 12.5 10 L 11.5 10 z M 11.5 16 C 10.683275 16 10 16.683275 10 17.5 L 10 18.5 C 10 19.316725 10.683275 20 11.5 20 L 12.5 20 C 13.316725 20 14 19.316725 14 18.5 L 14 17.5 C 14 16.683275 13.316725 16 12.5 16 L 11.5 16 z " fill="currentColor"/>
</svg>
