<svg xmlns="http://www.w3.org/2000/svg" width="1em" height="1em" viewBox="0 0 24 24" fill="currentColor">
  <path d="M 5.5 4 C 4.6834191 4 4 4.6834095 4 5.5 L 4 6.5 C 4 7.3165809 4.6834336 8 5.5 8 L 6.5 8 C 7.3165664 8 8 7.3165809 8 6.5 L 8 5.5 C 8 4.6834336 7.3165905 4 6.5 4 L 5.5 4 z M 11.5 4 C 10.683371 4 10 4.6833129 10 5.5 L 10 6.5 C 10 7.3166775 10.683395 8 11.5 8 L 12.5 8 C 13.316605 8 14 7.3166775 14 6.5 L 14 5.5 C 14 4.6833129 13.316629 4 12.5 4 L 11.5 4 z M 17.5 4 C 16.683371 4 16 4.6833129 16 5.5 L 16 6.5 C 16 7.3166775 16.683395 8 17.5 8 L 18.5 8 C 19.316605 8 20 7.3166775 20 6.5 L 20 5.5 C 20 4.6833129 19.316629 4 18.5 4 L 17.5 4 z M 5.5 10 C 4.6833225 10 4 10.683371 4 11.5 L 4 12.5 C 4 13.316629 4.6833129 14 5.5 14 L 6.5 14 C 7.3166871 14 8 13.316629 8 12.5 L 8 11.5 C 8 10.683395 7.3166871 10 6.5 10 L 5.5 10 z M 11.5 10 C 10.683275 10 10 10.683275 10 11.5 L 10 12.5 C 10 13.316725 10.683275 14 11.5 14 L 12.5 14 C 13.316725 14 14 13.316725 14 12.5 L 14 11.5 C 14 10.683275 13.316725 10 12.5 10 L 11.5 10 z M 17.5 10 C 16.683275 10 16 10.683275 16 11.5 L 16 12.5 C 16 13.316725 16.683275 14 17.5 14 L 18.5 14 C 19.316725 14 20 13.316725 20 12.5 L 20 11.5 C 20 10.683275 19.316725 10 18.5 10 L 17.5 10 z M 5.5 16 C 4.6833225 16 4 16.683371 4 17.5 L 4 18.5 C 4 19.316629 4.6833129 20 5.5 20 L 6.5 20 C 7.3166871 20 8 19.316629 8 18.5 L 8 17.5 C 8 16.683395 7.3166871 16 6.5 16 L 5.5 16 z M 11.5 16 C 10.683275 16 10 16.683275 10 17.5 L 10 18.5 C 10 19.316725 10.683275 20 11.5 20 L 12.5 20 C 13.316725 20 14 19.316725 14 18.5 L 14 17.5 C 14 16.683275 13.316725 16 12.5 16 L 11.5 16 z M 17.5 16 C 16.683275 16 16 16.683275 16 17.5 L 16 18.5 C 16 19.316725 16.683275 20 17.5 20 L 18.5 20 C 19.316725 20 20 19.316725 20 18.5 L 20 17.5 C 20 16.683275 19.316725 16 18.5 16 L 17.5 16 z " fill="currentColor"/>
</svg>
