<svg xmlns="http://www.w3.org/2000/svg" width="1em" height="1em" viewBox="0 0 24 24" fill="currentColor">
  <path d="M 19 1 A 1.0001 1.0001 0 0 0 18.166016 1.4492188 C 18.053952 1.6187296 17.272649 2.1917341 16.638672 3.0136719 C 16.321683 3.4246407 16.028148 3.9722547 16.001953 4.6328125 C 15.980409 5.1761872 16.152399 5.738566 16.484375 6.2714844 L 16.103516 13.123047 C 15.995122 13.097822 15.886291 13.078837 15.779297 13.064453 C 15.25755 12.994313 14.7071 13 14 13 L 14 11.794922 C 14.709917 10.772107 15.033882 9.7574314 14.996094 8.8046875 C 14.954401 7.7535105 14.489662 6.8621404 13.931641 6.1386719 C 12.815598 4.6917348 11.276626 3.6187522 10.833984 2.9492188 A 1.0001 1.0001 0 0 0 10 2.5 A 1.0001 1.0001 0 0 0 9.1660156 2.9492188 C 8.7234312 3.6187157 7.1843981 4.6917382 6.0683594 6.1386719 C 5.51034 6.8621387 5.0456038 7.7535109 5.0039062 8.8046875 C 4.9661134 9.7574309 5.290083 10.772106 6 11.794922 L 6 13 C 5.292895 13 4.7424496 12.994303 4.2207031 13.064453 C 3.6989566 13.134593 3.1417798 13.323101 2.7324219 13.732422 C 2.3231141 14.141789 2.1346008 14.698946 2.0644531 15.220703 C 1.9943054 15.74246 2 16.2929 2 17 L 2 22 A 1.0001 1.0001 0 0 0 3 23 L 17 23 L 21 23 A 1.0001 1.0001 0 0 0 22 21.96875 L 21.509766 6.28125 C 21.845924 5.7453041 22.019732 5.1796568 21.998047 4.6328125 C 21.971852 3.9722547 21.678317 3.4246407 21.361328 3.0136719 C 20.727351 2.1917341 19.946048 1.6187295 19.833984 1.4492188 A 1.0001 1.0001 0 0 0 19 1 z M 19 3.421875 C 19.281474 3.6734987 19.619781 4.0295194 19.779297 4.2363281 C 19.944383 4.4503593 19.995214 4.5902453 20 4.7109375 C 20.002044 4.7624746 19.895564 4.9151972 19.869141 5 L 18.130859 5 C 18.104436 4.9151972 17.997956 4.7624746 18 4.7109375 C 18.004786 4.5902453 18.055617 4.4503593 18.220703 4.2363281 C 18.380219 4.0295194 18.718526 3.6734987 19 3.421875 z M 10 4.9179688 C 10.820159 5.7702399 11.748247 6.5842013 12.347656 7.3613281 C 12.753777 7.8878596 12.977766 8.3714895 12.998047 8.8828125 C 13.014396 9.2950228 12.734236 9.8713223 12.341797 10.5 L 10 10.5 L 7.6582031 10.5 C 7.2657665 9.8713235 6.9856018 9.2950232 7.0019531 8.8828125 C 7.022236 8.3714891 7.2462219 7.8878613 7.6523438 7.3613281 C 8.2517537 6.5841988 9.1798599 5.7702515 10 4.9179688 z M 18.445312 7 L 19.53125 7 L 19.96875 21 L 18 21 L 18 17 C 18 16.336462 18.004615 15.811738 17.947266 15.318359 A 1 1 0 0 0 17.998047 15.054688 L 18.445312 7 z M 8 12.5 L 10 12.5 L 12 12.5 L 12 13 L 8 13 L 8 12.5 z M 6 15 L 14 15 C 14.7071 15 15.216516 15.007205 15.511719 15.046875 C 15.806922 15.086565 15.823488 15.116464 15.853516 15.146484 C 15.883536 15.176514 15.913435 15.193074 15.953125 15.488281 C 15.992809 15.783488 16 16.2929 16 17 L 16 21 L 13 21 C 13 20.0218 13.01735 19.430658 12.810547 18.783203 C 12.684965 18.389928 12.499148 18.018243 12.259766 17.681641 C 11.865884 17.127821 11.382231 16.786135 10.599609 16.199219 A 1.0001 1.0001 0 0 0 9.4003906 16.199219 C 8.6177688 16.786135 8.134102 17.12778 7.7402344 17.681641 C 7.5008609 18.018212 7.3150599 18.38989 7.1894531 18.783203 C 6.982687 19.430638 7 20.0218 7 21 L 4 21 L 4 17 C 4 16.2929 4.00719 15.783474 4.046875 15.488281 C 4.086562 15.193088 4.1164524 15.176521 4.1464844 15.146484 C 4.1764664 15.116504 4.1930854 15.086565 4.4882812 15.046875 C 4.7834777 15.007192 5.292895 15 6 15 z M 10 18.308594 C 10.199652 18.475614 10.553093 18.735365 10.628906 18.841797 C 10.748524 19.009994 10.841478 19.1939 10.904297 19.390625 A 1.0001 1.0001 0 0 0 10.904297 19.392578 C 10.981895 19.635476 11 20.0218 11 21 L 9 21 C 9 20.0218 9.0181091 19.635543 9.0957031 19.392578 C 9.1585161 19.195891 9.2514472 19.010026 9.3710938 18.841797 C 9.44681 18.735324 9.8003207 18.475674 10 18.308594 z " fill="currentColor"/>
</svg>
