<svg xmlns="http://www.w3.org/2000/svg" width="1em" height="1em" viewBox="0 0 24 24" fill="currentColor">
  <path d="M 16.722656 4 A 1 1 0 0 0 16.464844 4.0371094 A 1 1 0 0 0 15.863281 4.5078125 A 1 1 0 0 0 16.242188 5.8710938 C 17.019125 6.3099009 17.40043 6.7959744 17.953125 7.2695312 C 17.937495 7.2740113 17.925826 7.2727838 17.910156 7.2773438 C 17.660378 7.3500452 17.477133 7.3890332 17.384766 7.4101562 C 17.279412 7.3770895 17.016253 7.309083 16.679688 7.1875 C 14.216645 6.2978252 11.862617 7.288034 10.410156 8.28125 C 10.097519 8.4950443 9.8793618 8.6105808 9.7988281 8.6601562 C 9.7221323 8.6466951 9.5613722 8.6214098 9.3027344 8.5605469 L 2.8828125 7.0507812 C 2.3614941 6.9281009 1.7075436 7.1474882 1.3886719 7.5273438 C 1.0698001 7.9071993 0.98871539 8.3227706 1.0019531 8.7167969 C 1.0358422 9.7251992 1.5761598 10.650354 2.4375 11.175781 C 2.8871557 11.450033 3.3277356 11.680752 3.7304688 11.908203 C 3.876569 11.990783 4.0103987 12.090633 4.2949219 12.154297 C 4.635952 12.230127 4.7653259 12.181926 4.9765625 12.166016 C 6.4371111 12.056269 8.1412214 13.552213 8.53125 15.234375 C 8.591082 15.492432 8.6350872 15.697707 8.7070312 15.916016 C 8.7789753 16.134324 8.8846328 16.423725 9.1992188 16.673828 C 9.4732561 16.891508 9.7818625 16.957286 10 16.980469 C 10.218137 17.003651 10.399994 17 10.621094 17 L 13.5 17 C 13.7194 17 13.898556 17.003399 14.115234 16.980469 C 14.331913 16.957579 14.638667 16.893069 14.912109 16.677734 C 15.22832 16.428394 15.332924 16.142498 15.40625 15.925781 C 15.47971 15.708671 15.527201 15.503011 15.589844 15.244141 C 15.990824 13.587361 17.77934 12.216797 19.78125 12.216797 C 20.432099 12.216797 21.042808 12.357982 21.583984 12.605469 A 1.0001 1.0001 0 0 0 22.998047 11.646484 C 22.944846 10.545973 22.414599 8.9462298 21.007812 7.234375 C 20.12605 6.161308 18.894207 5.071881 17.224609 4.1289062 A 1 1 0 0 0 16.722656 4 z M 14.783203 8.8496094 C 15.188947 8.8559504 15.598111 8.9231931 16 9.0683594 C 16.557113 9.2696141 16.757029 9.4183126 17.300781 9.4355469 C 17.774328 9.4505559 18.003537 9.3326693 18.46875 9.1972656 C 18.943899 9.0589728 19.339253 9.0194038 19.742188 8.9667969 C 20.095804 9.4688734 20.42704 9.9724954 20.607422 10.396484 C 20.323135 10.357724 20.075799 10.216797 19.78125 10.216797 C 16.89276 10.216797 14.293904 12.098417 13.646484 14.773438 C 13.619004 14.887019 13.608751 14.916911 13.587891 14.998047 C 13.547239 14.99838 13.547698 15 13.5 15 L 10.621094 15 C 10.573714 15 10.573693 14.998447 10.533203 14.998047 C 10.513663 14.918817 10.503946 14.892889 10.478516 14.783203 C 9.8771039 12.189365 7.5551033 9.9668215 4.8261719 10.171875 C 4.7901567 10.174588 4.7581742 10.17516 4.7304688 10.175781 C 4.7255229 10.173044 4.7201513 10.170968 4.7148438 10.167969 A 1.0001 1.0001 0 0 0 4.7128906 10.167969 C 4.2738625 9.9200608 3.8542199 9.6978979 3.4785156 9.46875 C 3.3870201 9.4129367 3.3937638 9.2878626 3.3261719 9.2089844 L 8.84375 10.507812 C 9.3260573 10.621308 9.6693658 10.745049 10.1875 10.648438 C 10.781027 10.537781 11.030994 10.279078 11.539062 9.9316406 C 12.382166 9.3551126 13.565972 8.8305862 14.783203 8.8496094 z M 4.5 13 C 2.578848 13 1 14.578848 1 16.5 C 1 18.421152 2.578848 20 4.5 20 C 6.421152 20 8 18.421152 8 16.5 C 8 14.578848 6.421152 13 4.5 13 z M 19.5 13 C 17.578848 13 16 14.578848 16 16.5 C 16 18.421152 17.578848 20 19.5 20 C 21.421152 20 23 18.421152 23 16.5 C 23 14.578848 21.421152 13 19.5 13 z M 4.5 15 C 5.3402718 15 6 15.659728 6 16.5 C 6 17.340272 5.3402718 18 4.5 18 C 3.6597282 18 3 17.340272 3 16.5 C 3 15.659728 3.6597282 15 4.5 15 z M 19.5 15 C 20.340272 15 21 15.659728 21 16.5 C 21 17.340272 20.340272 18 19.5 18 C 18.659728 18 18 17.340272 18 16.5 C 18 15.659728 18.659728 15 19.5 15 z " fill="currentColor"/>
</svg>
