<svg xmlns="http://www.w3.org/2000/svg" width="1em" height="1em" viewBox="0 0 24 24" fill="currentColor">
  <path d="M 11 3 A 1 1 0 0 0 10 4 A 1 1 0 0 0 11 5 C 11.8162 5 12.097169 5.0267866 12.210938 5.0722656 C 12.301258 5.1083736 12.384994 5.1564466 12.460938 5.2167969 C 12.556847 5.2929929 12.719966 5.5237121 13.125 6.2324219 L 13.277344 6.5 L 11.863281 6.5 C 11.407913 6.5 10.966428 6.6560461 10.611328 6.9414062 L 8.7832031 8.4101562 C 8.6055067 8.5529117 8.3842066 8.6289062 8.15625 8.6289062 L 6.4296875 8.6289062 L 4 8.6289062 A 1 1 0 0 0 3 9.6289062 A 1 1 0 0 0 4 10.628906 L 5.9882812 10.628906 L 8.1738281 13.029297 L 7.1640625 14.240234 C 6.5201331 13.483161 5.5628338 13 4.5 13 C 2.578848 13 1 14.578848 1 16.5 C 1 18.421152 2.578848 20 4.5 20 C 6.421152 20 8 18.421152 8 16.5 C 8 16.454782 7.9997801 16.408104 7.9980469 16.363281 L 9.96875 14 L 11.40625 14 C 12.136366 14 12.812439 13.597728 13.162109 12.957031 L 15.019531 9.5507812 L 15.804688 10.925781 C 14.121686 11.991145 13 13.87029 13 16 C 13 16.850227 13.178567 17.664675 13.5 18.400391 A 1 1 0 0 0 14.816406 18.916016 A 1 1 0 0 0 15.332031 17.599609 C 15.118264 17.110325 15 16.571973 15 16 C 15 13.77905 16.77905 12 19 12 C 19.275541 12 19.542728 12.027678 19.800781 12.080078 A 1 1 0 0 0 20.980469 11.298828 A 1 1 0 0 0 20.199219 10.119141 C 19.811072 10.040332 19.409459 10 19 10 C 18.542838 10 18.096425 10.052502 17.667969 10.150391 L 17.666016 10.150391 L 14.861328 5.2402344 C 14.456362 4.5316442 14.211965 4.0530746 13.705078 3.6503906 C 13.476622 3.4688414 13.223805 3.3230555 12.953125 3.2148438 C 12.352094 2.9745824 11.8162 3 11 3 z M 11.863281 8.5 L 13.316406 8.5 L 11.40625 12 L 9.9433594 12 L 8.5625 10.486328 C 9.0871225 10.408658 9.6177278 10.304099 10.035156 9.96875 L 11.863281 8.5 z M 19.5 13 C 17.578848 13 16 14.578848 16 16.5 C 16 18.421152 17.578848 20 19.5 20 C 21.421152 20 23 18.421152 23 16.5 C 23 14.578848 21.421152 13 19.5 13 z M 4.5 15 C 5.3402718 15 6 15.659728 6 16.5 C 6 17.340272 5.3402718 18 4.5 18 C 3.6597282 18 3 17.340272 3 16.5 C 3 15.659728 3.6597282 15 4.5 15 z M 19.5 15 C 20.340272 15 21 15.659728 21 16.5 C 21 17.340272 20.340272 18 19.5 18 C 18.659728 18 18 17.340272 18 16.5 C 18 15.659728 18.659728 15 19.5 15 z " fill="currentColor"/>
</svg>
