<svg xmlns="http://www.w3.org/2000/svg" width="1em" height="1em" viewBox="0 0 24 24" fill="currentColor">
  <path d="M 4.9648438 1 A 1 1 0 0 0 4.2675781 1.3183594 C 3.0910904 2.5806165 2.2804832 4.1346815 2.0117188 5.8457031 A 1 1 0 0 0 2.8457031 6.9882812 A 1 1 0 0 0 3.9882812 6.1542969 C 4.1903967 4.8675785 4.7995296 3.6825435 5.7324219 2.6816406 A 1 1 0 0 0 5.6816406 1.2675781 A 1 1 0 0 0 4.9648438 1 z M 13.5 1 C 10.249415 1 7.9398741 2.3351181 6.6503906 4.4140625 C 5.3609071 6.4930069 5 9.1639102 5 12 C 5 14.83607 5.3609083 17.506989 6.6503906 19.585938 C 7.939873 21.664886 10.249412 23 13.5 23 C 16.750556 23 19.060119 21.664883 20.349609 19.585938 C 21.6391 17.506992 22 14.836075 22 12 C 22 9.1639157 21.639101 6.4930059 20.349609 4.4140625 C 19.060118 2.3351191 16.750554 1 13.5 1 z M 12.5 3.0449219 L 12.5 5.0625 C 12.414992 5.0845044 12.327123 5.1139325 12.234375 5.1523438 C 11.744705 5.3551869 11.35521 5.7446379 11.152344 6.234375 C 10.961943 6.6941649 11 7.03406 11 7.5 L 11 9.5 C 11 9.96594 10.96199 10.305887 11.152344 10.765625 C 11.355213 11.25531 11.74469 11.644787 12.234375 11.847656 C 12.69416 12.038024 13.0341 12 13.5 12 C 13.9659 12 14.30584 12.03802 14.765625 11.847656 C 15.25531 11.644787 15.644787 11.25531 15.847656 10.765625 C 16.038005 10.305887 16 9.96594 16 9.5 L 16 7.5 C 16 7.03406 16.038057 6.6941649 15.847656 6.234375 C 15.64479 5.7446379 15.255295 5.3551869 14.765625 5.1523438 C 14.672877 5.1139325 14.585008 5.0845044 14.5 5.0625 L 14.5 3.0449219 C 16.612916 3.2473934 17.813726 4.1198625 18.650391 5.46875 C 19.610899 7.0173016 20 9.3460643 20 12 C 20 14.653925 19.6109 16.982695 18.650391 18.53125 C 17.689881 20.079805 16.249444 21 13.5 21 C 10.750518 21 9.3101095 20.079802 8.3496094 18.53125 C 7.3891092 16.982698 7 14.65393 7 12 C 7 9.3460498 7.3891104 7.0172956 8.3496094 5.46875 C 9.186267 4.1198652 10.387057 3.2473924 12.5 3.0449219 z M 13.5 7 C 13.76054 7 13.915057 7.0117748 13.984375 7.015625 C 13.988227 7.084949 14 7.2394651 14 7.5 L 14 9.5 C 14 9.7606047 13.988219 9.9150893 13.984375 9.984375 C 13.915077 9.9882206 13.760581 10 13.5 10 C 13.239416 10 13.084922 9.9882205 13.015625 9.984375 C 13.011781 9.9150886 13 9.7606035 13 9.5 L 13 7.5 C 13 7.2394649 13.011773 7.0849489 13.015625 7.015625 C 13.084943 7.0117747 13.239465 7.0000002 13.5 7 z " fill="currentColor"/>
</svg>
