<svg xmlns="http://www.w3.org/2000/svg" width="1em" height="1em" viewBox="0 0 24 24" fill="currentColor">
  <path d="M 6 1 A 1 1 0 0 0 5 2 C 5 2.6118624 5.164863 3.1937039 5.5175781 3.6269531 C 5.8702932 4.0602024 6.352589 4.2854689 6.7851562 4.3945312 C 7.6502908 4.6126559 8.4545652 4.5 9.0058594 4.5 C 9.9648417 4.5 10.483008 4.635143 10.648438 4.7578125 C 10.726224 4.8154933 10.801605 4.8952409 10.863281 5.0605469 C 8.6165719 5.3111985 6.9648389 6.3154364 5.9707031 7.7949219 C 4.8158312 9.513617 4.5 11.705326 4.5 14 C 4.5 16.29466 4.8158323 18.48638 5.9707031 20.205078 C 7.125574 21.923776 9.1686906 23 12 23 C 14.831282 23 16.874419 21.923773 18.029297 20.205078 C 19.184174 18.486383 19.5 16.294664 19.5 14 C 19.5 11.705331 19.184175 9.5136157 18.029297 7.7949219 C 17.001182 6.2648768 15.269708 5.2447374 12.904297 5.0390625 C 12.755089 4.2478303 12.426397 3.5853351 11.839844 3.1503906 C 11.03539 2.5538677 10.087907 2.5 9.0058594 2.5 C 8.2949736 2.5 7.5979961 2.5383691 7.2753906 2.4570312 C 7.1140879 2.4163622 7.0821605 2.3802335 7.0683594 2.3632812 C 7.0545582 2.3463289 7 2.2892126 7 2 A 1 1 0 0 0 6 1 z M 11.96875 7 A 1 1 0 0 0 12.03125 7 C 14.378794 7.0065399 15.577615 7.7322047 16.369141 8.9101562 C 17.164263 10.09346 17.5 11.902659 17.5 14 C 17.5 16.097336 17.164263 17.906539 16.369141 19.089844 C 15.574018 20.273149 14.368718 21 12 21 C 9.6312494 21 8.4259735 20.273146 7.6308594 19.089844 C 6.8357452 17.906542 6.5 16.09734 6.5 14 C 6.5 11.902644 6.8357463 10.093454 7.6308594 8.9101562 C 8.4225113 7.7320096 9.6203791 7.0062952 11.96875 7 z M 12 8 A 1 1 0 0 0 11 9 L 11 11 A 1 1 0 0 0 12 12 A 1 1 0 0 0 13 11 L 13 9 A 1 1 0 0 0 12 8 z " fill="currentColor"/>
</svg>
