<svg xmlns="http://www.w3.org/2000/svg" width="1em" height="1em" viewBox="0 0 24 24" fill="currentColor">
  <path d="M 6 1 A 1 1 0 0 0 5 2 C 5 2.6118624 5.164863 3.1937039 5.5175781 3.6269531 C 5.8702932 4.0602024 6.352589 4.2854689 6.7851562 4.3945312 C 7.6502908 4.6126559 8.4545652 4.5 9.0058594 4.5 C 9.9648417 4.5 10.483008 4.635143 10.648438 4.7578125 C 10.726224 4.8154933 10.801605 4.8952409 10.863281 5.0605469 C 8.6165719 5.3111985 6.9648389 6.3154364 5.9707031 7.7949219 C 4.8158312 9.513617 4.5 11.705326 4.5 14 C 4.5 16.29466 4.8158323 18.48638 5.9707031 20.205078 C 7.125574 21.923776 9.1686906 23 12 23 C 14.831282 23 16.874419 21.923773 18.029297 20.205078 C 19.184174 18.486383 19.5 16.294664 19.5 14 C 19.5 11.705331 19.184175 9.5136157 18.029297 7.7949219 C 17.001182 6.2648768 15.269708 5.2447374 12.904297 5.0390625 C 12.755089 4.2478303 12.426397 3.5853351 11.839844 3.1503906 C 11.03539 2.5538677 10.087907 2.5 9.0058594 2.5 C 8.2949736 2.5 7.5979961 2.5383691 7.2753906 2.4570312 C 7.1140879 2.4163622 7.0821605 2.3802335 7.0683594 2.3632812 C 7.0545582 2.3463289 7 2.2892126 7 2 A 1 1 0 0 0 6 1 z M 11 7.0488281 L 11 8.0625 C 10.914992 8.0845044 10.827123 8.1139325 10.734375 8.1523438 C 10.244705 8.3551868 9.8552099 8.7446379 9.6523438 9.234375 C 9.4619229 9.6942123 9.5 10.0341 9.5 10.5 L 9.5 11.5 C 9.5 11.9659 9.4619759 12.30584 9.6523438 12.765625 C 9.8552132 13.25531 10.24469 13.644787 10.734375 13.847656 C 11.19416 14.038024 11.5341 14 12 14 C 12.4659 14 12.80584 14.03802 13.265625 13.847656 C 13.75531 13.644787 14.144787 13.25531 14.347656 12.765625 C 14.538024 12.30584 14.5 11.9659 14.5 11.5 L 14.5 10.5 C 14.5 10.0341 14.53808 9.6942123 14.347656 9.234375 C 14.14479 8.7446379 13.755295 8.3551868 13.265625 8.1523438 C 13.172877 8.1139325 13.085008 8.0845044 13 8.0625 L 13 7.0488281 C 14.72485 7.2305738 15.694598 7.9062991 16.369141 8.9101562 C 17.164263 10.09346 17.5 11.902659 17.5 14 C 17.5 16.097336 17.164263 17.906539 16.369141 19.089844 C 15.574018 20.273149 14.368718 21 12 21 C 9.6312494 21 8.4259735 20.273146 7.6308594 19.089844 C 6.8357452 17.906542 6.5 16.09734 6.5 14 C 6.5 11.902644 6.8357463 10.093454 7.6308594 8.9101562 C 8.305396 7.9063022 9.2751276 7.2305733 11 7.0488281 z M 12 10 C 12.26053 10 12.415054 10.011775 12.484375 10.015625 C 12.488229 10.084962 12.5 10.239492 12.5 10.5 L 12.5 11.5 C 12.5 11.760574 12.488221 11.915075 12.484375 11.984375 C 12.415073 11.988221 12.260571 12 12 12 C 11.739426 12 11.584925 11.988221 11.515625 11.984375 C 11.511779 11.915073 11.5 11.760571 11.5 11.5 L 11.5 10.5 C 11.5 10.239492 11.511771 10.084962 11.515625 10.015625 C 11.584948 10.011775 11.739472 10 12 10 z " fill="currentColor"/>
</svg>
