<svg xmlns="http://www.w3.org/2000/svg" width="1em" height="1em" viewBox="0 0 24 24" fill="currentColor">
  <path d="M 12 1 C 8.7494146 1 6.4398741 2.3351181 5.1503906 4.4140625 C 3.8609071 6.4930069 3.5 9.1639102 3.5 12 C 3.5 14.83607 3.8609083 17.506989 5.1503906 19.585938 C 6.439873 21.664886 8.7494124 23 12 23 C 15.250556 23 17.560119 21.664883 18.849609 19.585938 C 20.1391 17.506992 20.5 14.836075 20.5 12 C 20.5 9.1639157 20.139101 6.4930059 18.849609 4.4140625 C 17.560118 2.3351191 15.250554 1 12 1 z M 12 3 C 14.749446 3 16.189882 3.9201984 17.150391 5.46875 C 18.110899 7.0173016 18.5 9.3460643 18.5 12 C 18.5 14.653925 18.1109 16.982695 17.150391 18.53125 C 16.189881 20.079805 14.749444 21 12 21 C 9.2505176 21 7.8101095 20.079802 6.8496094 18.53125 C 5.8891092 16.982698 5.5 14.65393 5.5 12 C 5.5 9.3460498 5.8891104 7.0172956 6.8496094 5.46875 C 7.8101084 3.9202044 9.2505154 3 12 3 z M 11.955078 5.0273438 C 11.601195 5.0339066 11.305667 5.1584484 11.105469 5.2929688 C 10.861522 5.4568857 10.679499 5.636539 10.492188 5.8320312 C 10.117563 6.2230158 9.7378245 6.6867397 9.2773438 7.1640625 A 1 1 0 0 0 9.3027344 8.578125 A 1 1 0 0 0 10.714844 8.5527344 C 10.809685 8.4544239 10.900861 8.3579867 10.988281 8.2636719 L 10.988281 10.730469 C 10.901489 10.638821 10.809764 10.543081 10.712891 10.443359 A 1 1 0 0 0 10.009766 10.140625 A 1 1 0 0 0 9.2988281 10.423828 A 1 1 0 0 0 9.2792969 11.837891 C 9.8703043 12.446276 10.244036 12.886563 10.570312 13.230469 C 10.73345 13.402421 10.881428 13.554239 11.089844 13.701172 C 11.278898 13.834455 11.574122 13.94688 11.890625 13.96875 C 12.313591 14.00263 12.66573 13.860769 12.894531 13.707031 C 13.138482 13.543114 13.320501 13.361508 13.507812 13.166016 C 13.882435 12.775031 14.264133 12.311308 14.724609 11.833984 A 1 1 0 0 0 14.699219 10.421875 A 1 1 0 0 0 13.285156 10.447266 C 13.181806 10.554397 13.08281 10.659427 12.988281 10.761719 L 12.988281 8.2421875 C 13.081944 8.3412083 13.181457 8.4459271 13.287109 8.5546875 A 1 1 0 0 0 14.701172 8.5761719 A 1 1 0 0 0 14.720703 7.1621094 C 14.129705 6.5537245 13.755961 6.1134372 13.429688 5.7695312 C 13.26655 5.5975784 13.118568 5.4438083 12.910156 5.296875 C 12.721118 5.1636008 12.425847 5.0531411 12.109375 5.03125 C 12.056505 5.0270162 12.005633 5.0264062 11.955078 5.0273438 z " fill="currentColor"/>
</svg>
