<svg xmlns="http://www.w3.org/2000/svg" width="1em" height="1em" viewBox="0 0 24 24" fill="currentColor">
  <path d="M 12 1 A 1 1 0 0 0 11.859375 1.0097656 C 10.929422 1.0172902 10.020014 1.0872142 9.1425781 1.1953125 C 6.2217754 1.5551761 3.9719817 3.9620812 3.7441406 6.8320312 C 3.6117402 8.4995041 3.5 10.226033 3.5 12 C 3.5 13.773967 3.61174 15.500534 3.7441406 17.167969 C 3.9719826 20.037895 6.2218002 22.444743 9.1425781 22.804688 C 10.065319 22.918285 11.019188 23 12 23 C 12.980718 23 13.934663 22.91829 14.857422 22.804688 C 17.778245 22.444745 20.027972 20.037856 20.255859 17.167969 C 20.388279 15.500553 20.5 13.773994 20.5 12 C 20.5 10.226006 20.388278 8.4994845 20.255859 6.8320312 C 20.027973 3.9621201 17.77827 1.5551743 14.857422 1.1953125 C 13.979969 1.0872144 13.070504 1.0172902 12.140625 1.0097656 A 1 1 0 0 0 12 1 z M 11 3.03125 L 11 10 L 5.5449219 10 C 5.5883767 8.9885443 5.6593246 7.9846278 5.7382812 6.9902344 C 5.8901603 5.0771244 7.4258214 3.423237 9.3867188 3.1816406 C 9.9247874 3.1153516 10.462792 3.0626098 11 3.03125 z M 13 3.03125 C 13.537192 3.0626101 14.075216 3.1153534 14.613281 3.1816406 C 15.375827 3.2755897 16.074796 3.5838477 16.652344 4.0371094 L 13 8.296875 L 13 3.03125 z M 17.912109 5.640625 C 18.103347 6.063431 18.224272 6.5186497 18.261719 6.9902344 C 18.340688 7.9846341 18.411627 8.9885522 18.455078 10 L 14.173828 10 L 17.912109 5.640625 z M 5.5 12 L 11.980469 12 L 12 12 A 1 1 0 0 0 12.019531 12 L 18.5 12 C 18.5 13.690006 18.3925 15.362981 18.261719 17.009766 C 18.109806 18.922879 16.574258 20.576702 14.613281 20.818359 C 13.74084 20.925762 12.868682 21 12 21 C 11.131212 21 10.259138 20.925762 9.3867188 20.818359 C 7.4257965 20.576704 5.8901593 18.92284 5.7382812 17.009766 C 5.6075219 15.363001 5.5 13.690033 5.5 12 z " fill="currentColor"/>
</svg>
