<svg xmlns="http://www.w3.org/2000/svg" width="1em" height="1em" viewBox="0 0 24 24" fill="currentColor">
  <path d="M 4.9648438 1 A 1 1 0 0 0 4.2675781 1.3183594 C 3.0910904 2.5806165 2.2804832 4.1346815 2.0117188 5.8457031 A 1 1 0 0 0 2.8457031 6.9882812 A 1 1 0 0 0 3.9882812 6.1542969 C 4.1903967 4.8675785 4.7995296 3.6825435 5.7324219 2.6816406 A 1 1 0 0 0 5.6816406 1.2675781 A 1 1 0 0 0 4.9648438 1 z M 13.5 1 A 1 1 0 0 0 13.359375 1.0097656 C 12.429424 1.0172902 11.520031 1.0872144 10.642578 1.1953125 C 7.7217922 1.555177 5.4719817 3.9620812 5.2441406 6.8320312 C 5.1117402 8.4995041 5 10.226033 5 12 C 5 13.773967 5.11174 15.500534 5.2441406 17.167969 C 5.4719826 20.037895 7.7218171 22.444742 10.642578 22.804688 C 11.565337 22.918285 12.519188 23 13.5 23 C 14.480718 23 15.434663 22.91829 16.357422 22.804688 C 19.278245 22.444745 21.527972 20.037856 21.755859 17.167969 C 21.888279 15.500553 22 13.773994 22 12 C 22 10.226006 21.888278 8.4994845 21.755859 6.8320312 C 21.527973 3.9621201 19.27827 1.5551743 16.357422 1.1953125 C 15.479969 1.0872144 14.570504 1.0172902 13.640625 1.0097656 A 1 1 0 0 0 13.5 1 z M 12.5 3.03125 L 12.5 5.0625 C 12.414992 5.0845044 12.327123 5.1139325 12.234375 5.1523438 C 11.744705 5.3551869 11.35521 5.7446379 11.152344 6.234375 C 10.961943 6.6941649 11 7.03406 11 7.5 L 11 8.5 C 11 8.96594 10.96194 9.3058351 11.152344 9.765625 C 11.35521 10.255362 11.744705 10.644813 12.234375 10.847656 C 12.327123 10.886067 12.414992 10.915496 12.5 10.9375 L 12.5 12 A 1 1 0 0 0 13.5 13 A 1 1 0 0 0 14.5 12 L 14.5 10.9375 C 14.585008 10.915496 14.672877 10.886067 14.765625 10.847656 C 15.255295 10.644813 15.64479 10.255362 15.847656 9.765625 C 16.038057 9.3058351 16 8.96594 16 8.5 L 16 7.5 C 16 7.03406 16.038057 6.6941649 15.847656 6.234375 C 15.64479 5.7446379 15.255295 5.3551869 14.765625 5.1523438 C 14.672877 5.1139325 14.585008 5.0845044 14.5 5.0625 L 14.5 3.03125 C 15.037192 3.0626101 15.575216 3.1153534 16.113281 3.1816406 C 18.074233 3.4232389 19.609805 5.0770855 19.761719 6.9902344 C 19.8925 8.6370613 20 10.309994 20 12 C 20 13.690006 19.8925 15.362981 19.761719 17.009766 C 19.609806 18.922879 18.074258 20.576702 16.113281 20.818359 C 15.24084 20.925762 14.368682 21 13.5 21 C 12.631212 21 11.75916 20.925762 10.886719 20.818359 C 8.9258197 20.576705 7.3901593 18.92284 7.2382812 17.009766 C 7.1075219 15.363001 7 13.690033 7 12 C 7 10.309967 7.1075217 8.6370415 7.2382812 6.9902344 C 7.3901603 5.0771244 8.9258444 3.4232362 10.886719 3.1816406 C 11.424799 3.1153517 11.962799 3.0626098 12.5 3.03125 z M 13.5 7 C 13.76054 7 13.915057 7.0117748 13.984375 7.015625 C 13.988227 7.084949 14 7.2394651 14 7.5 L 14 8.5 C 14 8.7605351 13.988227 8.9150511 13.984375 8.984375 C 13.915056 8.9882253 13.760538 9 13.5 9 C 13.23946 9 13.084943 8.9882252 13.015625 8.984375 C 13.011773 8.915051 13 8.7605349 13 8.5 L 13 7.5 C 13 7.2394649 13.011773 7.0849489 13.015625 7.015625 C 13.084943 7.0117747 13.239465 7.0000002 13.5 7 z " fill="currentColor"/>
</svg>
