<svg xmlns="http://www.w3.org/2000/svg" width="1em" height="1em" viewBox="0 0 24 24" fill="currentColor">
  <path d="M 12 1 A 1 1 0 0 0 11.869141 1.0078125 C 8.075615 1.0788772 5 4.1900851 5 8 C 5 8.6747608 5.0959669 9.3294582 5.2753906 9.9492188 C 5.6577335 11.269853 5.7823218 12.946045 5.4667969 14.173828 C 5.3455718 14.64559 5.2350684 15.103894 5.0957031 15.544922 C 5.0358093 15.734518 4.9955802 15.950135 5.0019531 16.189453 C 5.1023152 19.959143 8.2091339 23 12 23 C 15.790866 23 18.897708 19.959142 18.998047 16.189453 C 19.004547 15.950015 18.964297 15.734734 18.904297 15.544922 C 18.764922 15.10372 18.654394 14.645458 18.533203 14.173828 C 18.217723 12.945994 18.342274 11.269829 18.724609 9.9492188 C 18.904164 9.3293303 19 8.6747149 19 8 C 19 4.1900831 15.924377 1.0788771 12.130859 1.0078125 A 1 1 0 0 0 12 1 z M 11 3.0996094 L 11 4.0625 C 10.914992 4.0845044 10.827123 4.1139325 10.734375 4.1523438 C 10.244705 4.3551869 9.8552099 4.7446379 9.6523438 5.234375 C 9.4619425 5.6941649 9.5 6.03406 9.5 6.5 L 9.5 7.5 C 9.5 7.96594 9.4619425 8.3058351 9.6523438 8.765625 C 9.8552099 9.2553621 10.244705 9.644813 10.734375 9.8476562 C 10.827123 9.8860674 10.914992 9.9154956 11 9.9375 L 11 11 A 1 1 0 0 0 12 12 A 1 1 0 0 0 13 11 L 13 9.9375 C 13.085008 9.9154957 13.172877 9.8860672 13.265625 9.8476562 C 13.755295 9.644813 14.14479 9.2553621 14.347656 8.765625 C 14.538057 8.3058351 14.5 7.96594 14.5 7.5 L 14.5 6.5 C 14.5 6.03406 14.538057 5.6941649 14.347656 5.234375 C 14.14479 4.7446379 13.755295 4.3551869 13.265625 4.1523438 C 13.172877 4.1139325 13.085008 4.0845044 13 4.0625 L 13 3.0996094 C 15.28964 3.5594862 17 5.5694706 17 8 C 17 8.4855651 16.93058 8.9512065 16.802734 9.3925781 A 1.0001 1.0001 0 0 0 16.802734 9.3945312 C 16.33487 11.010561 16.150383 12.938709 16.595703 14.671875 C 16.710428 15.118341 16.829326 15.614045 16.996094 16.142578 L 16.996094 16.144531 L 16.996094 16.146484 C 16.918705 18.848942 14.724252 21 12 21 C 9.2757482 21 7.0813113 18.848932 7.0039062 16.146484 C 7.171441 15.616313 7.2893219 15.119313 7.4042969 14.671875 C 7.849712 12.938658 7.6651228 11.010537 7.1972656 9.3945312 C 7.0694493 8.9530316 7 8.4855192 7 8 C 7 5.5694677 8.7103533 3.5594846 11 3.0996094 z M 12 6 C 12.26054 6 12.415057 6.0117748 12.484375 6.015625 C 12.488227 6.084949 12.5 6.2394651 12.5 6.5 L 12.5 7.5 C 12.5 7.7605351 12.488227 7.9150511 12.484375 7.984375 C 12.415056 7.9882253 12.260538 8 12 8 C 11.73946 8 11.584943 7.9882252 11.515625 7.984375 C 11.511773 7.915051 11.5 7.7605349 11.5 7.5 L 11.5 6.5 C 11.5 6.2394649 11.511773 6.0849489 11.515625 6.015625 C 11.584944 6.0117747 11.739462 6 12 6 z " fill="currentColor"/>
</svg>
