<svg xmlns="http://www.w3.org/2000/svg" width="1em" height="1em" viewBox="0 0 24 24" fill="currentColor">
  <path d="M 20.5 1.5 A 1 1 0 0 0 19.792969 1.7929688 L 15.042969 6.5429688 A 1 1 0 0 0 15.027344 6.5585938 L 6.5585938 15.027344 A 1 1 0 0 0 6.5429688 15.042969 L 1.7929688 19.792969 A 1 1 0 0 0 1.7929688 21.207031 A 1 1 0 0 0 3.2070312 21.207031 L 6.8828125 17.53125 C 7.4074812 18.867485 7.834764 19.916308 8.28125 20.726562 C 8.5487827 21.212065 8.8218382 21.621646 9.1992188 21.955078 C 9.5765991 22.28851 10.123053 22.527055 10.666016 22.498047 C 11.210986 22.468937 11.730767 22.170263 12.070312 21.796875 C 12.409857 21.423487 12.636572 20.986865 12.851562 20.472656 C 13.281543 19.44424 13.649283 18.071704 14.144531 16.255859 C 14.439424 15.174487 14.575475 14.830809 14.703125 14.703125 C 14.830809 14.575475 15.174487 14.439424 16.255859 14.144531 C 18.071704 13.649283 19.44424 13.281543 20.472656 12.851562 C 20.986865 12.636572 21.423487 12.409856 21.796875 12.070312 C 22.170263 11.730768 22.468934 11.210986 22.498047 10.666016 C 22.527055 10.123053 22.28851 9.5765992 21.955078 9.1992188 C 21.621646 8.8218382 21.212065 8.5487827 20.726562 8.28125 C 19.916308 7.834764 18.867485 7.4074812 17.53125 6.8828125 L 21.207031 3.2070312 A 1 1 0 0 0 21.207031 1.7929688 A 1 1 0 0 0 20.5 1.5 z M 5.0761719 2.5 C 4.9424777 2.499702 4.8089989 2.5063118 4.6757812 2.5214844 C 4.1429108 2.5821745 3.5996075 2.8144591 3.2070312 3.2070312 C 2.8144591 3.5996074 2.5821745 4.1429108 2.5214844 4.6757812 C 2.4607942 5.2086517 2.5324155 5.7392199 2.6679688 6.3164062 C 2.9390749 7.470779 3.4863791 8.8462394 4.1992188 10.667969 L 4.9199219 12.511719 A 1 1 0 0 0 6.2167969 13.080078 A 1 1 0 0 0 6.7832031 11.783203 L 6.0605469 9.9375 C 5.3477065 8.1157691 4.8261656 6.7575222 4.6152344 5.859375 C 4.5097687 5.4103014 4.4870598 5.0845559 4.5078125 4.9023438 C 4.5285655 4.7201318 4.5520606 4.6901275 4.6210938 4.6210938 C 4.6901278 4.5520607 4.7201318 4.5285647 4.9023438 4.5078125 C 5.0845559 4.4870595 5.4103014 4.5097725 5.859375 4.6152344 C 6.7575222 4.8261656 8.1157691 5.3477065 9.9375 6.0605469 L 11.783203 6.7832031 A 1 1 0 0 0 13.080078 6.2167969 A 1 1 0 0 0 12.511719 4.9199219 L 10.667969 4.1992188 C 8.8462394 3.4863791 7.4707791 2.939075 6.3164062 2.6679688 C 5.8835165 2.5663039 5.4772545 2.5008939 5.0761719 2.5 z M 15.986328 8.4277344 C 17.719254 9.1058807 19.009177 9.6185202 19.761719 10.033203 C 20.139005 10.241104 20.371692 10.426849 20.457031 10.523438 C 20.469946 10.538054 20.480632 10.54832 20.488281 10.556641 C 20.479376 10.564262 20.46681 10.575623 20.451172 10.589844 C 20.354362 10.677884 20.102114 10.840178 19.701172 11.007812 C 18.899288 11.34308 17.546324 11.719592 15.730469 12.214844 C 14.649041 12.509751 13.911177 12.667113 13.289062 13.289062 C 12.667112 13.911178 12.509751 14.649041 12.214844 15.730469 C 11.719592 17.546324 11.343081 18.899288 11.007812 19.701172 C 10.840177 20.102114 10.677881 20.35436 10.589844 20.451172 C 10.575623 20.466809 10.564263 20.479377 10.556641 20.488281 C 10.548319 20.480633 10.538053 20.469945 10.523438 20.457031 C 10.426847 20.371691 10.241104 20.139005 10.033203 19.761719 C 9.6185252 19.009172 9.1058807 17.719254 8.4277344 15.986328 L 15.986328 8.4277344 z " fill="currentColor"/>
</svg>
