<svg xmlns="http://www.w3.org/2000/svg" width="1em" height="1em" viewBox="0 0 24 24" fill="currentColor">
  <path d="M 12 1 C 11.019246 1 10.065435 1.0816184 9.1425781 1.1953125 C 6.2217754 1.5551761 3.9719817 3.9620812 3.7441406 6.8320312 C 3.6117402 8.4995041 3.5 10.226033 3.5 12 C 3.5 13.773967 3.61174 15.500534 3.7441406 17.167969 C 3.9719826 20.037895 6.2218002 22.444743 9.1425781 22.804688 C 10.065319 22.918285 11.019188 23 12 23 C 12.980718 23 13.934663 22.91829 14.857422 22.804688 C 17.778245 22.444745 20.027972 20.037856 20.255859 17.167969 C 20.388279 15.500553 20.5 13.773994 20.5 12 C 20.5 10.226006 20.388278 8.4994845 20.255859 6.8320312 C 20.027973 3.9621201 17.77827 1.5551743 14.857422 1.1953125 C 13.934547 1.0816187 12.98066 1 12 1 z M 12 3 C 12.86874 3 13.740956 3.074174 14.613281 3.1816406 C 16.574233 3.4232389 18.109805 5.0770855 18.261719 6.9902344 C 18.340688 7.9846341 18.411627 8.9885522 18.455078 10 L 5.5449219 10 C 5.5883767 8.9885443 5.6593246 7.9846278 5.7382812 6.9902344 C 5.8901603 5.0771244 7.4258214 3.423237 9.3867188 3.1816406 C 10.259021 3.0741747 11.131154 3 12 3 z M 12 4.5 A 1 1 0 0 0 11 5.5 L 11 7.5 A 1 1 0 0 0 12 8.5 A 1 1 0 0 0 13 7.5 L 13 5.5 A 1 1 0 0 0 12 4.5 z M 5.5 12 L 18.5 12 C 18.5 13.690006 18.3925 15.362981 18.261719 17.009766 C 18.109806 18.922879 16.574258 20.576702 14.613281 20.818359 C 13.74084 20.925762 12.868682 21 12 21 C 11.131212 21 10.259138 20.925762 9.3867188 20.818359 C 7.4257965 20.576704 5.8901593 18.92284 5.7382812 17.009766 C 5.6075219 15.363001 5.5 13.690033 5.5 12 z " fill="currentColor"/>
</svg>
