<svg xmlns="http://www.w3.org/2000/svg" width="1em" height="1em" viewBox="0 0 24 24" fill="currentColor">
  <path d="M 12 1 A 1 1 0 0 0 11 2 L 11 4.0429688 C 8.4911835 4.2653075 6.6664505 5.3337985 5.5742188 6.9375 C 4.3417619 8.7470912 4 11.066732 4 13.5 C 4 15.933249 4.3417633 18.252905 5.5742188 20.0625 C 6.8066742 21.872095 8.9717879 23 12 23 C 15.028185 23 17.193319 21.872092 18.425781 20.0625 C 19.658244 18.252908 20 15.933254 20 13.5 C 20 11.066737 19.658244 8.7470902 18.425781 6.9375 C 17.333545 5.333801 15.508798 4.2653091 13 4.0429688 L 13 2 A 1 1 0 0 0 12 1 z M 11 6.0449219 L 11 7.0625 C 10.914992 7.0845044 10.827123 7.1139325 10.734375 7.1523438 C 10.244705 7.3551869 9.8552099 7.7446379 9.6523438 8.234375 C 9.4619425 8.6941649 9.5 9.03406 9.5 9.5 L 9.5 10.5 C 9.5 10.9659 9.4619759 11.30584 9.6523438 11.765625 C 9.8552132 12.25531 10.24469 12.644787 10.734375 12.847656 C 11.19416 13.038024 11.5341 13 12 13 C 12.4659 13 12.80584 13.03802 13.265625 12.847656 C 13.75531 12.644787 14.144787 12.25531 14.347656 11.765625 C 14.538024 11.30584 14.5 10.9659 14.5 10.5 L 14.5 9.5 C 14.5 9.03406 14.538057 8.6941649 14.347656 8.234375 C 14.14479 7.7446379 13.755295 7.3551869 13.265625 7.1523438 C 13.172877 7.1139325 13.085008 7.0845044 13 7.0625 L 13 6.0449219 C 14.932631 6.2282143 16.02613 6.9652501 16.773438 8.0625 C 17.640975 9.3362798 18 11.266743 18 13.5 C 18 15.733246 17.640975 17.663717 16.773438 18.9375 C 15.9059 20.211283 14.571815 21 12 21 C 9.4281521 21 8.094092 20.21128 7.2265625 18.9375 C 6.359033 17.66372 6 15.733251 6 13.5 C 6 11.266728 6.3590344 9.3362738 7.2265625 8.0625 C 7.9738635 6.9652533 9.0673464 6.2282137 11 6.0449219 z M 12 9 C 12.26054 9 12.415057 9.0117748 12.484375 9.015625 C 12.488227 9.084949 12.5 9.2394651 12.5 9.5 L 12.5 10.5 C 12.5 10.760574 12.488221 10.915075 12.484375 10.984375 C 12.415073 10.988221 12.260571 11 12 11 C 11.739426 11 11.584925 10.988221 11.515625 10.984375 C 11.511779 10.915073 11.5 10.760571 11.5 10.5 L 11.5 9.5 C 11.5 9.2394649 11.511773 9.0849489 11.515625 9.015625 C 11.584944 9.0117747 11.739462 9 12 9 z " fill="currentColor"/>
</svg>
