<svg xmlns="http://www.w3.org/2000/svg" width="1em" height="1em" viewBox="0 0 24 24" fill="currentColor">
  <path d="M 9.234375 3.0019531 C 7.7002892 3.0581702 6.2553753 3.7688294 5.3730469 5.0351562 C 4.6430863 6.0827715 3.9025034 7.1826812 3.2226562 8.3652344 C 2.5427983 9.5477956 1.9641867 10.741836 1.4257812 11.900391 C 0.43447185 14.033663 1.2090071 16.650334 3.2109375 18.132812 C 3.8351659 18.594918 4.4937745 19.050473 5.2050781 19.462891 C 5.9164919 19.875485 6.6389641 20.221381 7.3496094 20.533203 C 9.6300228 21.533576 12.282446 20.894361 13.626953 18.964844 C 14.356935 17.917242 15.097426 16.817327 15.777344 15.634766 C 16.457162 14.452198 17.035839 13.258296 17.574219 12.099609 C 18.565468 9.9663836 17.791151 7.3496427 15.789062 5.8671875 C 15.481556 5.6394753 15.166224 5.4134281 14.839844 5.1933594 C 14.958741 5.067887 15.032211 5.0356996 15.111328 5.0136719 C 15.227853 4.9812249 15.329573 4.974673 15.708984 5.1367188 C 16.088396 5.2987645 16.662368 5.633768 17.445312 6.1035156 L 19.521484 7.3496094 C 20.68162 8.0456234 22.220465 7.6097382 22.875 6.4316406 A 1 1 0 0 0 22.486328 5.0703125 A 1 1 0 0 0 21.125 5.4589844 C 20.985135 5.7107268 20.764692 5.7642716 20.548828 5.6347656 L 18.472656 4.3886719 C 17.689702 3.9189195 17.089529 3.5511642 16.494141 3.296875 C 15.898752 3.0425858 15.224994 2.9066777 14.574219 3.0878906 C 13.963177 3.2580172 13.480498 3.6722292 13.101562 4.15625 C 12.61706 3.9039974 12.131229 3.6777622 11.650391 3.4667969 C 11.080305 3.2166949 10.486848 3.0682468 9.8964844 3.0175781 C 9.675098 2.9985774 9.4535301 2.9939221 9.234375 3.0019531 z M 9.4570312 5.0019531 C 9.9145255 5.0035224 10.388489 5.0973869 10.847656 5.2988281 C 11.253475 5.4768785 11.653771 5.6618367 12.044922 5.8613281 C 11.980772 5.9767556 11.914374 6.0971042 11.845703 6.2207031 L 11.423828 6.9765625 C 11.305532 6.9348715 11.177694 6.902348 11.029297 6.8828125 C 10.503791 6.8136376 9.9712566 6.9566459 9.5507812 7.2792969 C 9.15597 7.5822607 9.0181417 7.8952813 8.7851562 8.2988281 L 8.2851562 9.1660156 C 8.0522082 9.5695176 7.8501393 9.8444499 7.7851562 10.337891 C 7.7160072 10.86335 7.8589532 11.395909 8.1816406 11.816406 C 8.4846007 12.211213 8.7976457 12.347075 9.2011719 12.580078 C 9.6046685 12.813053 9.8792638 13.015225 10.373047 13.080078 C 10.898362 13.149188 11.430965 13.008388 11.851562 12.685547 C 12.246225 12.382671 12.382216 12.069547 12.615234 11.666016 L 13.115234 10.798828 C 13.348242 10.395336 13.55234 10.12071 13.617188 9.6269531 C 13.686313 9.1016144 13.543557 8.5690677 13.220703 8.1484375 C 13.189341 8.1075706 13.158624 8.0689181 13.126953 8.0332031 L 13.59375 7.1914062 C 13.653167 7.0844632 13.710186 6.9820257 13.765625 6.8828125 C 14.046974 7.0733726 14.324806 7.2711145 14.599609 7.4746094 C 15.89112 8.4309142 16.308716 10.076438 15.759766 11.257812 C 15.230945 12.395926 14.67695 13.535839 14.042969 14.638672 C 13.408887 15.741511 12.703347 16.793267 11.986328 17.822266 C 11.242635 18.889548 9.6218104 19.345799 8.1523438 18.701172 C 7.4841889 18.407994 6.8317906 18.093627 6.2089844 17.732422 C 5.586048 17.37124 4.9873222 16.959886 4.4003906 16.525391 C 3.108981 15.56907 2.6912838 13.923515 3.2402344 12.742188 C 3.7691089 11.604141 4.3230291 10.464127 4.9570312 9.3613281 C 5.591044 8.2585013 6.2966925 7.2067193 7.0136719 6.1777344 C 7.3854916 5.6440949 7.9765742 5.2627767 8.6582031 5.0957031 C 8.913814 5.0330506 9.1825347 5.0010116 9.4570312 5.0019531 z M 10.773438 8.8867188 C 10.835528 8.9180305 10.975412 8.9849181 11.201172 9.1152344 C 11.427725 9.2460398 11.555356 9.3333644 11.613281 9.3710938 C 11.58214 9.4322904 11.515638 9.572197 11.384766 9.7988281 L 10.884766 10.666016 C 10.754474 10.89136 10.666687 11.018492 10.628906 11.076172 C 10.567872 11.045098 10.428217 10.978748 10.201172 10.847656 C 9.9757148 10.717473 9.8473938 10.629837 9.7890625 10.591797 C 9.8206015 10.530044 9.8880446 10.390675 10.017578 10.166016 L 10.017578 10.164062 L 10.517578 9.2988281 C 10.648011 9.0729092 10.735518 8.9448838 10.773438 8.8867188 z " fill="currentColor"/>
</svg>
