<svg xmlns="http://www.w3.org/2000/svg" width="1em" height="1em" viewBox="0 0 24 24" fill="currentColor">
  <path d="M 12 1 A 1 1 0 0 0 11.859375 1.0097656 C 10.929422 1.0172902 10.020014 1.0872142 9.1425781 1.1953125 C 6.2217754 1.5551761 3.9719817 3.9620812 3.7441406 6.8320312 C 3.6117402 8.4995041 3.5 10.226033 3.5 12 C 3.5 13.773967 3.61174 15.500534 3.7441406 17.167969 C 3.9719826 20.037895 6.2218002 22.444743 9.1425781 22.804688 C 10.065319 22.918285 11.019188 23 12 23 C 12.980718 23 13.934663 22.91829 14.857422 22.804688 C 17.778245 22.444745 20.027972 20.037856 20.255859 17.167969 C 20.388279 15.500553 20.5 13.773994 20.5 12 C 20.5 10.226006 20.388278 8.4994845 20.255859 6.8320312 C 20.027973 3.9621201 17.77827 1.5551743 14.857422 1.1953125 C 13.979969 1.0872144 13.070504 1.0172902 12.140625 1.0097656 A 1 1 0 0 0 12 1 z M 11 3.03125 L 11 5.0625 C 10.914992 5.0845044 10.827123 5.1139325 10.734375 5.1523438 C 10.244705 5.3551869 9.8552099 5.7446379 9.6523438 6.234375 C 9.4619425 6.6941649 9.5 7.03406 9.5 7.5 L 9.5 8.5 C 9.5 8.96594 9.4619429 9.3058351 9.6523438 9.765625 C 9.85521 10.255362 10.244705 10.644813 10.734375 10.847656 C 10.827123 10.886067 10.914992 10.915496 11 10.9375 L 11 12 A 1 1 0 0 0 12 13 A 1 1 0 0 0 13 12 L 13 10.9375 C 13.085008 10.915496 13.172877 10.886067 13.265625 10.847656 C 13.755295 10.644813 14.14479 10.255362 14.347656 9.765625 C 14.538057 9.3058351 14.5 8.96594 14.5 8.5 L 14.5 7.5 C 14.5 7.03406 14.538057 6.6941649 14.347656 6.234375 C 14.14479 5.7446379 13.755295 5.3551869 13.265625 5.1523438 C 13.172877 5.1139325 13.085008 5.0845044 13 5.0625 L 13 3.03125 C 13.537192 3.0626101 14.075216 3.1153534 14.613281 3.1816406 C 16.574233 3.4232389 18.109805 5.0770855 18.261719 6.9902344 C 18.3925 8.6370613 18.5 10.309994 18.5 12 C 18.5 13.690006 18.3925 15.362981 18.261719 17.009766 C 18.109806 18.922879 16.574258 20.576702 14.613281 20.818359 C 13.74084 20.925762 12.868682 21 12 21 C 11.131212 21 10.259138 20.925762 9.3867188 20.818359 C 7.4257965 20.576704 5.8901593 18.92284 5.7382812 17.009766 C 5.6075219 15.363001 5.5 13.690033 5.5 12 C 5.5 10.309967 5.6075217 8.6370415 5.7382812 6.9902344 C 5.8901603 5.0771244 7.4258214 3.423237 9.3867188 3.1816406 C 9.9247874 3.1153516 10.462792 3.0626098 11 3.03125 z M 12 7 C 12.26054 7 12.415057 7.0117748 12.484375 7.015625 C 12.488227 7.084949 12.5 7.2394651 12.5 7.5 L 12.5 8.5 C 12.5 8.7605351 12.488227 8.9150511 12.484375 8.984375 C 12.415056 8.9882253 12.260538 9 12 9 C 11.73946 9 11.584943 8.9882252 11.515625 8.984375 C 11.511773 8.915051 11.5 8.7605349 11.5 8.5 L 11.5 7.5 C 11.5 7.2394649 11.511773 7.0849489 11.515625 7.015625 C 11.584944 7.0117747 11.739462 7 12 7 z " fill="currentColor"/>
</svg>
