<svg xmlns="http://www.w3.org/2000/svg" width="1em" height="1em" viewBox="0 0 24 24" fill="currentColor">
  <path d="M 4.5644531 1 A 1 1 0 0 0 4.3085938 1.0488281 A 1 1 0 0 0 3.6679688 2.3105469 L 4.0488281 3.4785156 A 1 1 0 0 0 5.3105469 4.1171875 A 1 1 0 0 0 5.9511719 2.8574219 L 5.5703125 1.6894531 A 1 1 0 0 0 4.5644531 1 z M 13.5 1 C 10.249415 1 7.9398741 2.3351181 6.6503906 4.4140625 C 5.3609071 6.4930069 5 9.1639102 5 12 C 5 14.83607 5.3609083 17.506989 6.6503906 19.585938 C 7.939873 21.664886 10.249412 23 13.5 23 C 16.750556 23 19.060119 21.664883 20.349609 19.585938 C 21.6391 17.506992 22 14.836075 22 12 C 22 9.1639157 21.639101 6.4930059 20.349609 4.4140625 C 19.060118 2.3351191 16.750554 1 13.5 1 z M 12.5 3.0449219 L 12.5 4.5625 C 12.414992 4.5845044 12.327123 4.6139325 12.234375 4.6523438 C 11.744705 4.8551869 11.35521 5.2446379 11.152344 5.734375 C 10.961943 6.1941649 11 6.53406 11 7 L 11 7.5 C 11 7.96594 10.96194 8.3058351 11.152344 8.765625 C 11.35521 9.2553621 11.744705 9.644813 12.234375 9.8476562 C 12.327123 9.8860674 12.414992 9.9154956 12.5 9.9375 L 12.5 11 L 7.0195312 11 C 7.1088226 8.7639346 7.5117821 6.8195205 8.3496094 5.46875 C 9.186267 4.1198652 10.387057 3.2473924 12.5 3.0449219 z M 14.5 3.0449219 C 16.612916 3.2473934 17.813726 4.1198625 18.650391 5.46875 C 19.488225 6.8195248 19.891179 8.7639444 19.980469 11 L 14.5 11 L 14.5 9.9375 C 14.585008 9.9154957 14.672877 9.8860672 14.765625 9.8476562 C 15.255295 9.644813 15.64479 9.2553621 15.847656 8.765625 C 16.038057 8.3058351 16 7.96594 16 7.5 L 16 7 C 16 6.53406 16.038057 6.1941649 15.847656 5.734375 C 15.64479 5.2446379 15.255295 4.8551869 14.765625 4.6523438 C 14.672877 4.6139325 14.585008 4.5845044 14.5 4.5625 L 14.5 3.0449219 z M 4.0234375 4.5664062 A 1 1 0 0 0 3.640625 4.6464844 L 2.6132812 5.078125 A 1 1 0 0 0 2.078125 6.3867188 A 1 1 0 0 0 3.3867188 6.921875 L 4.4160156 6.4902344 A 1 1 0 0 0 4.9511719 5.1796875 A 1 1 0 0 0 4.40625 4.640625 A 1 1 0 0 0 4.0234375 4.5664062 z M 13.5 6.5 C 13.76054 6.5 13.915057 6.5117748 13.984375 6.515625 C 13.988227 6.584949 14 6.7394651 14 7 L 14 7.5 C 14 7.7605351 13.988227 7.9150511 13.984375 7.984375 C 13.915056 7.9882253 13.760538 8 13.5 8 C 13.23946 8 13.084943 7.9882252 13.015625 7.984375 C 13.011773 7.915051 13 7.7605349 13 7.5 L 13 7 C 13 6.7394649 13.011773 6.5849489 13.015625 6.515625 C 13.084943 6.5117747 13.239465 6.5000002 13.5 6.5 z M 7.0195312 13 L 19.980469 13 C 19.891179 15.236049 19.488226 17.180473 18.650391 18.53125 C 17.689881 20.079805 16.249444 21 13.5 21 C 10.750518 21 9.3101095 20.079802 8.3496094 18.53125 C 7.5117819 17.180475 7.1088228 15.236052 7.0195312 13 z " fill="currentColor"/>
</svg>
