<svg xmlns="http://www.w3.org/2000/svg" width="1em" height="1em" viewBox="0 0 24 24" fill="currentColor">
  <path d="M 20.9999 3.0002009 C 20.9999 3.5410469 20.754969 4.0434309 20.46279 4.4220759 C 20.170612 4.8007209 19.822779 5.131581 19.384665 5.5587946 L 17.736228 7.207232 A 1 1 0 0 1 16.322165 7.207232 A 1 1 0 0 1 16.322165 5.7931695 L 17.978415 4.1369195 A 1.0001 1.0001 0 0 1 17.988181 4.1271539 C 18.048468 4.0683969 18.055943 4.0545488 18.111228 4.0002008 L 9.9998998 4.0002004 A 1 1 0 0 1 8.9998999 3.0002004 A 1 1 0 0 1 9.9998999 2.0002004 L 18.111228 2.0002008 C 18.055596 1.9455008 18.048889 1.9305005 17.988181 1.8712945 A 1.0001 1.0001 0 0 1 17.978416 1.863482 L 16.322166 0.20723196 A 1 1 0 0 1 16.322166 -1.2068305 A 1 1 0 0 1 17.736228 -1.2068305 L 19.384666 0.43965397 L 19.392478 0.4494196 C 19.825689 0.87170162 20.172936 1.2007398 20.462791 1.5763728 C 20.754969 1.9550178 20.9999 2.4593509 20.9999 3.0002009 z M 6.9998999 3.0002003 C 6.9998999 5.1974947 5.1971941 7.0002001 2.9998997 7.0002001 C 0.80260533 7.0002001 -1.0001001 5.1974944 -1.0001001 3.0002 C -1.0001001 0.8029056 0.80260568 -0.99979987 2.9999 -0.99979987 C 5.1971944 -0.99979987 6.9998999 0.80290595 6.9998999 3.0002003 z M 4.9998999 3.0002002 C 4.9998999 1.8837861 4.1163141 1.0002001 2.9999 1.0002001 C 1.8834859 1.0002001 0.99989987 1.8837859 0.99989987 3.0002 C 0.99989987 4.1166141 1.8834857 5.0002001 2.9998998 5.0002001 C 4.1163139 5.0002001 4.9998999 4.1166143 4.9998999 3.0002002 z " fill="currentColor"/>
</svg>
