<svg xmlns="http://www.w3.org/2000/svg" width="1em" height="1em" viewBox="0 0 24 24" fill="currentColor">
  <path d="M 12.5 2 A 1 1 0 0 0 11.5 3 L 11.5 8.4121094 A 1 1 0 0 0 11.5 8.4765625 L 11.5 13.007812 C 10.662824 12.376276 9.6230456 12 8.5 12 C 5.7504084 12 3.5 14.250451 3.5 17 C 3.5 19.749549 5.7504084 22 8.5 22 C 11.249561 22 13.5 19.749561 13.5 17 L 13.5 8.8125 C 13.673239 8.6548611 13.87023 8.5853375 14.158203 8.5507812 C 14.552494 8.5034672 15.104351 8.5831983 15.693359 8.7871094 C 16.871377 9.1949324 18.177403 10.091466 18.792969 10.707031 A 1.0001 1.0001 0 0 0 20.5 10 C 20.5 5.5935706 16.90644 2 12.5 2 z M 13.5 4.0820312 C 15.573212 4.4285153 17.271062 5.8361529 18.042969 7.7285156 C 17.503237 7.4190333 16.953017 7.1080101 16.347656 6.8984375 C 15.568615 6.6287378 14.749594 6.4648939 13.919922 6.5644531 C 13.780084 6.5812335 13.639594 6.6071343 13.5 6.6425781 L 13.5 4.0820312 z M 8.5 14 C 10.168639 14 11.5 15.331361 11.5 17 C 11.5 18.668639 10.168639 20 8.5 20 C 6.8313116 20 5.5 18.668651 5.5 17 C 5.5 15.331349 6.8313116 14 8.5 14 z " fill="currentColor"/>
</svg>
