<svg xmlns="http://www.w3.org/2000/svg" width="1em" height="1em" viewBox="0 0 24 24" fill="currentColor">
  <path d="M 20.771484 1.1972656 C 20.57862 1.2071745 20.41429 1.2569856 20.314453 1.2988281 C 20.11478 1.3825131 19.995435 1.4599683 19.847656 1.546875 C 18.515071 2.330293 15.762763 3.5915569 11.914062 3.9199219 C 11.423512 3.9617769 11.038837 3.9895085 10.662109 4.0664062 C 10.285381 4.143304 9.8518412 4.2989199 9.5273438 4.6523438 C 9.2148027 4.9926279 9.0868562 5.4315245 9.0410156 5.8027344 C 8.995175 6.1739443 9 6.538275 9 7 L 9 10 L 9 14.763672 C 8.2835887 14.281446 7.4229018 14 6.5 14 C 4.0265633 14 2 16.026563 2 18.5 C 2 20.973437 4.0265633 23 6.5 23 C 8.9734367 23 11 20.973437 11 18.5 L 11 10.978516 C 15.061382 10.797958 18.181865 9.5533563 20 8.6601562 L 20 12.541016 C 19.410485 12.197483 18.72683 12 18 12 C 15.802706 12 14 13.802706 14 16 C 14 18.197294 15.802706 20 18 20 C 20.153042 20 21.921598 18.267768 21.992188 16.130859 A 1 1 0 0 0 22 16 L 22 2.765625 C 22 2.59844 22.008302 2.4609392 21.978516 2.2460938 C 21.948729 2.0312482 21.808776 1.5737201 21.396484 1.3378906 C 21.185748 1.21735 20.964349 1.1873567 20.771484 1.1972656 z M 20 3.6582031 L 20 6.4101562 C 18.500663 7.228158 15.43452 8.769291 11 8.9765625 L 11 7 C 11 6.538275 11.005401 6.2091101 11.025391 6.046875 C 11.025992 6.0420073 11.026773 6.0376667 11.027344 6.0332031 C 11.037954 6.0308655 11.049513 6.0280415 11.0625 6.0253906 C 11.242197 5.9887106 11.593435 5.9539646 12.083984 5.9121094 C 15.750286 5.5993071 18.318445 4.5378062 20 3.6582031 z M 18 14 C 19.116414 14 20 14.883586 20 16 C 20 17.116414 19.116414 18 18 18 C 16.883586 18 16 17.116414 16 16 C 16 14.883586 16.883586 14 18 14 z M 6.5 16 C 7.8925565 16 9 17.107443 9 18.5 C 9 19.892557 7.8925565 21 6.5 21 C 5.1074435 21 4 19.892557 4 18.5 C 4 17.107443 5.1074435 16 6.5 16 z " fill="currentColor"/>
</svg>
