<svg xmlns="http://www.w3.org/2000/svg" width="1em" height="1em" viewBox="0 0 24 24" fill="currentColor">
  <path d="M 11.919922 1 C 11.007884 1.0270805 10.682437 1.5251505 10.263672 1.9863281 C 9.8449065 2.4475057 9.4466261 3.0097038 9.09375 3.5839844 C 8.7408739 4.1582649 8.4405528 4.7357276 8.2382812 5.2539062 C 8.1371453 5.5129956 8.0563355 5.7488392 8.0175781 6.0292969 C 7.9981995 6.1695257 7.9850138 6.3225215 8.0234375 6.53125 C 8.0618612 6.7399785 8.1807811 7.0514077 8.4726562 7.265625 A 1.0001 1.0001 0 0 0 8.4765625 7.2675781 C 8.9757199 7.6312967 9.5085466 7.7605627 10.105469 7.8632812 C 10.702391 7.9659998 11.358131 8.00754 12.013672 8 C 12.669213 7.99246 13.321982 7.934655 13.914062 7.8222656 C 14.506142 7.7098759 15.027622 7.5752222 15.515625 7.2285156 A 1.0001 1.0001 0 0 0 15.558594 7.1972656 C 15.837709 6.9763067 15.94591 6.6722246 15.980469 6.4648438 C 16.015029 6.2574629 15.999906 6.1038368 15.978516 5.9628906 C 15.935816 5.6809984 15.851931 5.4419338 15.746094 5.1816406 C 15.534465 4.6610543 15.221226 4.0853492 14.855469 3.5136719 C 14.489711 2.9419945 14.077333 2.3854713 13.642578 1.9316406 C 13.207823 1.47781 12.843285 0.97259419 11.919922 1 z M 11.90625 3.1035156 C 11.98619 3.1478166 12.082322 3.1924276 12.199219 3.3144531 C 12.49727 3.6255825 12.857805 4.1039592 13.169922 4.5917969 C 13.444339 5.0207101 13.656234 5.4358547 13.806641 5.7734375 C 13.691072 5.8083365 13.685376 5.8300199 13.541016 5.8574219 C 13.097366 5.9416363 12.542308 5.99365 11.990234 6 C 11.438161 6.00635 10.884598 5.9662177 10.445312 5.890625 C 10.302163 5.865992 10.30061 5.8454989 10.1875 5.8125 C 10.332049 5.4758534 10.534016 5.0618216 10.798828 4.6308594 C 11.101373 4.1384887 11.451557 3.6542476 11.744141 3.3320312 C 11.870203 3.1932009 11.907406 3.145224 11.914062 3.125 L 11.914062 3.1230469 L 11.914062 3.1210938 C 11.914023 3.1203799 11.914196 3.1178366 11.914062 3.1171875 L 11.912109 3.1152344 C 11.910456 3.1118078 11.908279 3.1080095 11.90625 3.1035156 z M 6.2558594 7.9980469 C 6.1735025 7.9989627 6.0994113 8.0078888 6.0292969 8.0175781 C 5.7488392 8.0563355 5.5129957 8.1371454 5.2539062 8.2382812 C 4.7357276 8.4405528 4.1582649 8.7408739 3.5839844 9.09375 C 3.0097038 9.4466261 2.449459 9.8449065 1.9882812 10.263672 C 1.5271036 10.682437 1.0270805 11.007884 1 11.919922 C 0.9725942 12.843285 1.4778097 13.207823 1.9316406 13.642578 C 2.3854715 14.077333 2.9419938 14.489711 3.5136719 14.855469 C 4.08535 15.221227 4.6610527 15.534419 5.1816406 15.746094 C 5.4419346 15.851931 5.6809979 15.935821 5.9628906 15.978516 C 6.103837 15.999866 6.2574642 16.014979 6.4648438 15.980469 C 6.6722234 15.945909 6.9763052 15.837703 7.1972656 15.558594 A 1.0001 1.0001 0 0 0 7.2285156 15.515625 C 7.5752174 15.027622 7.7098776 14.506142 7.8222656 13.914062 C 7.9346537 13.321936 7.9924606 12.669213 8 12.013672 C 8.0075394 11.358131 7.966 10.702391 7.8632812 10.105469 C 7.7605625 9.5085467 7.6312936 8.9757237 7.2675781 8.4765625 A 1.0001 1.0001 0 0 0 7.265625 8.4726562 C 7.0514046 8.1807849 6.7419316 8.0618612 6.5332031 8.0234375 C 6.4288389 8.0042257 6.3382163 7.9971311 6.2558594 7.9980469 z M 17.744141 7.9980469 C 17.661783 7.9971311 17.571156 8.0042265 17.466797 8.0234375 C 17.258079 8.0618585 16.948602 8.1808176 16.734375 8.4726562 A 1.0001 1.0001 0 0 0 16.732422 8.4765625 C 16.368819 8.975714 16.239424 9.5105133 16.136719 10.107422 C 16.034014 10.70433 15.992461 11.358145 16 12.013672 C 16.0075 12.669198 16.06536 13.321995 16.177734 13.914062 C 16.290112 14.50613 16.424809 15.027626 16.771484 15.515625 A 1.0001 1.0001 0 0 0 16.800781 15.558594 C 17.021698 15.837713 17.32776 15.945889 17.535156 15.980469 C 17.742553 16.015049 17.896152 15.999906 18.037109 15.978516 C 18.319024 15.935826 18.558058 15.85193 18.818359 15.746094 C 19.338963 15.53442 19.914643 15.221235 20.486328 14.855469 C 21.058013 14.489703 21.614529 14.077344 22.068359 13.642578 C 22.522187 13.207858 23.02746 12.843316 23 11.919922 C 22.972929 11.007884 22.472895 10.682433 22.011719 10.263672 C 21.550542 9.8449105 20.990297 9.4466191 20.416016 9.09375 C 19.841734 8.7408809 19.26428 8.4405466 18.746094 8.2382812 C 18.487 8.1371484 18.251163 8.0563312 17.970703 8.0175781 C 17.900588 8.0078901 17.826499 7.9989626 17.744141 7.9980469 z M 12 9 C 10.35499 9 9 10.35499 9 12 C 9 13.64501 10.35499 15 12 15 C 13.64501 15 15 13.64501 15 12 C 15 10.35499 13.64501 9 12 9 z M 5.8125 10.1875 C 5.845499 10.30061 5.865992 10.302163 5.890625 10.445312 C 5.966218 10.884598 6.0063494 11.43816 6 11.990234 C 5.99365 12.542309 5.941635 13.097367 5.8574219 13.541016 C 5.8300199 13.685377 5.8083365 13.691072 5.7734375 13.806641 C 5.4358534 13.656234 5.0207106 13.444339 4.5917969 13.169922 C 4.1039587 12.857805 3.6255826 12.49727 3.3144531 12.199219 C 3.1924276 12.082322 3.1478163 11.986189 3.1035156 11.90625 C 3.1080094 11.908279 3.1137608 11.912409 3.1171875 11.914062 C 3.1178367 11.914196 3.122333 11.914023 3.1230469 11.914062 L 3.125 11.914062 L 3.1269531 11.912109 C 3.1471777 11.905452 3.1932027 11.870202 3.3320312 11.744141 C 3.6542476 11.451557 4.1384887 11.101373 4.6308594 10.798828 C 5.0618216 10.534016 5.4758534 10.332049 5.8125 10.1875 z M 18.1875 10.1875 C 18.52422 10.332026 18.937926 10.533867 19.369141 10.798828 C 19.861509 11.101365 20.345758 11.451564 20.667969 11.744141 C 20.806796 11.8702 20.854775 11.907404 20.875 11.914062 L 20.876953 11.914062 L 20.878906 11.914062 C 20.87962 11.914023 20.882163 11.914196 20.882812 11.914062 L 20.884766 11.912109 C 20.888192 11.910456 20.891991 11.90828 20.896484 11.90625 C 20.852184 11.98619 20.807574 12.082321 20.685547 12.199219 C 20.374421 12.497274 19.896043 12.8578 19.408203 13.169922 C 18.979288 13.444343 18.564142 13.656239 18.226562 13.806641 C 18.191662 13.691073 18.169978 13.685375 18.142578 13.541016 C 18.058368 13.097372 18.006349 12.542303 18 11.990234 C 17.9937 11.438166 18.03379 10.884604 18.109375 10.445312 C 18.134005 10.302162 18.1545 10.300613 18.1875 10.1875 z M 12 11 C 12.564129 11 13 11.435871 13 12 C 13 12.564129 12.564129 13 12 13 C 11.435871 13 11 12.564129 11 12 C 11 11.435871 11.435871 11 12 11 z M 12.013672 16 C 11.358133 15.9925 10.702392 16.03401 10.105469 16.136719 C 9.5085457 16.239431 8.9757296 16.368702 8.4765625 16.732422 A 1.0001 1.0001 0 0 0 8.4726562 16.734375 C 8.1808156 16.948603 8.0618573 17.258077 8.0234375 17.466797 C 7.9850175 17.675517 7.9982001 17.82852 8.0175781 17.96875 C 8.0563341 18.24921 8.1371452 18.487001 8.2382812 18.746094 C 8.4405531 19.26428 8.7408733 19.841735 9.09375 20.416016 C 9.4466267 20.990297 9.8449052 21.550544 10.263672 22.011719 C 10.682438 22.472894 11.007884 22.972929 11.919922 23 C 12.843268 23.02737 13.207826 22.522191 13.642578 22.068359 C 14.07733 21.614528 14.489711 21.058004 14.855469 20.486328 C 15.221226 19.914653 15.534419 19.338944 15.746094 18.818359 C 15.851931 18.558067 15.93582 18.319002 15.978516 18.037109 C 15.999866 17.896163 16.014979 17.742537 15.980469 17.535156 C 15.945909 17.327775 15.837708 17.021739 15.558594 16.800781 A 1.0001 1.0001 0 0 0 15.515625 16.769531 C 15.027587 16.42281 14.506137 16.290121 13.914062 16.177734 C 13.321987 16.065348 12.669211 16.007545 12.013672 16 z M 11.990234 18 C 12.54231 18.0064 13.097361 18.05836 13.541016 18.142578 C 13.685378 18.169978 13.691069 18.191672 13.806641 18.226562 C 13.656234 18.564144 13.44434 18.97929 13.169922 19.408203 C 12.857804 19.89604 12.497273 20.374413 12.199219 20.685547 C 12.082321 20.807574 11.986193 20.852179 11.90625 20.896484 C 11.908279 20.89199 11.912409 20.88624 11.914062 20.882812 C 11.914196 20.882163 11.914023 20.877667 11.914062 20.876953 L 11.914062 20.875 L 11.912109 20.873047 C 11.905452 20.85282 11.870203 20.806791 11.744141 20.667969 C 11.451558 20.345756 11.101373 19.86151 10.798828 19.369141 C 10.533493 18.937327 10.330034 18.522433 10.185547 18.185547 C 10.299183 18.152307 10.301172 18.132232 10.445312 18.107422 C 10.8846 18.031843 11.438158 17.993645 11.990234 18 z " fill="currentColor"/>
</svg>
