<svg xmlns="http://www.w3.org/2000/svg" width="1em" height="1em" viewBox="0 0 24 24" fill="currentColor">
  <path d="M 3 2 A 1 1 0 0 0 2.2929688 2.2929688 A 1 1 0 0 0 2.2929688 3.7070312 L 5.8476562 7.2617188 C 4.970728 7.6302063 4.2509249 7.9574195 3.6660156 8.2929688 C 3.2314148 8.5422893 2.864491 8.7940889 2.5585938 9.1289062 C 2.2526964 9.4637234 2.0085803 9.9354428 2 10.441406 C 1.99646 10.651276 2.0193154 10.862374 2.0683594 11.066406 C 2.1956936 11.596011 2.5768048 12.019164 2.984375 12.283203 C 3.3919452 12.547243 3.8489702 12.71412 4.3867188 12.867188 C 5.462216 13.173322 6.8856898 13.405754 8.7753906 13.720703 C 9.6867544 13.872597 9.9311627 13.964312 9.9648438 13.994141 C 9.9797068 14.007311 9.9926844 14.020296 10.005859 14.035156 C 10.035449 14.068556 10.127392 14.31308 10.279297 15.224609 C 10.594247 17.114212 10.826664 18.537815 11.132812 19.613281 C 11.285885 20.151014 11.452773 20.60807 11.716797 21.015625 C 11.980821 21.42318 12.403996 21.804289 12.933594 21.931641 A 1.0001 1.0001 0 0 0 12.935547 21.931641 C 13.139515 21.980631 13.348676 22.00351 13.558594 22 C 14.064568 21.9914 14.536277 21.747309 14.871094 21.441406 C 15.20591 21.135504 15.457717 20.768585 15.707031 20.333984 C 16.042565 19.749087 16.3698 19.029248 16.738281 18.152344 L 20.292969 21.707031 A 1 1 0 0 0 21.707031 21.707031 A 1 1 0 0 0 21.707031 20.292969 L 17.107422 15.693359 A 1 1 0 0 0 17.074219 15.660156 L 8.3398438 6.9257812 A 1 1 0 0 0 8.3066406 6.8925781 L 3.7070312 2.2929688 A 1 1 0 0 0 3 2 z M 19.800781 2 C 19.470583 2.0045347 19.145175 2.0621277 18.804688 2.1464844 C 17.896722 2.3714356 16.848484 2.8043104 15.460938 3.3652344 L 10.800781 5.2480469 A 1 1 0 0 0 10.248047 6.5507812 A 1 1 0 0 0 11.550781 7.1035156 L 16.210938 5.21875 C 17.598491 4.657824 18.631547 4.2498244 19.285156 4.0878906 C 19.611961 4.0069236 19.83547 3.9942593 19.929688 4.0039062 C 19.972281 4.0082686 19.981204 4.009631 19.984375 4.0097656 L 19.984375 4.0117188 L 19.986328 4.0117188 L 19.986328 4.0136719 L 19.988281 4.0136719 L 19.988281 4.015625 L 19.990234 4.015625 C 19.990378 4.0187992 19.991718 4.0277161 19.996094 4.0703125 C 20.005694 4.1645395 19.993089 4.3880307 19.912109 4.7148438 C 19.750167 5.3684699 19.342198 6.4015177 18.78125 7.7890625 L 16.896484 12.449219 A 1 1 0 0 0 17.449219 13.751953 A 1 1 0 0 0 18.751953 13.199219 L 20.634766 8.5390625 C 21.195718 7.1515073 21.628558 6.1032815 21.853516 5.1953125 C 21.965957 4.7413229 22.032233 4.3156449 21.986328 3.8671875 C 21.940423 3.4187301 21.739337 2.9385855 21.400391 2.5996094 C 21.061422 2.2606555 20.581279 2.0595906 20.132812 2.0136719 C 20.020696 2.0021921 19.910847 1.9984884 19.800781 2 z M 7.3789062 8.7929688 L 10.703125 12.117188 C 10.246641 11.913673 9.7338329 11.852774 9.1054688 11.748047 C 7.2157595 11.433096 5.8053467 11.191499 4.9335938 10.943359 C 4.4977173 10.819289 4.2018617 10.689426 4.0722656 10.605469 C 4.0394988 10.584241 4.0183401 10.569163 4.0058594 10.560547 C 4.0033795 10.545573 4.0029859 10.530755 4.0019531 10.515625 C 4.0094756 10.507297 4.019514 10.495628 4.0351562 10.478516 C 4.1170672 10.388856 4.3280114 10.219008 4.6621094 10.027344 C 5.2375692 9.697175 6.1585404 9.2943169 7.3789062 8.7929688 z M 11.882812 13.296875 L 15.207031 16.621094 C 14.705697 17.841421 14.302773 18.762436 13.972656 19.337891 C 13.780996 19.67199 13.611137 19.882934 13.521484 19.964844 C 13.504382 19.98047 13.492708 19.990525 13.484375 19.998047 C 13.469253 19.997003 13.454433 19.996613 13.439453 19.994141 C 13.430831 19.981654 13.41573 19.96046 13.394531 19.927734 C 13.310571 19.798127 13.180717 19.502273 13.056641 19.066406 C 12.808488 18.194672 12.566903 16.784128 12.251953 14.894531 C 12.147251 14.266252 12.086266 13.753259 11.882812 13.296875 z " fill="currentColor"/>
</svg>
