<svg xmlns="http://www.w3.org/2000/svg" width="1em" height="1em" viewBox="0 0 24 24" fill="currentColor">
  <path d="M 12 1 C 5.9367104 1 1 5.9367104 1 12 C 1 18.063244 5.9367044 23 12 23 C 18.06325 23 23 18.06325 23 12 C 23 5.9367044 18.063244 1 12 1 z M 12 3 C 16.982356 3 21 7.0175956 21 12 C 21 16.98235 16.98235 21 12 21 C 7.0175956 21 3 16.982356 3 12 C 3 7.0175896 7.0175896 3 12 3 z M 11 6 C 9.3549904 6 8 7.3549904 8 9 L 8 10 C 8 11.645025 9.3550085 13 11 13 L 13 13 C 13.349867 13 13.686616 12.938511 14 12.826172 L 14 15 C 14 15.564193 13.564193 16 13 16 L 11 16 C 10.435851 16 10 15.564175 10 15 A 1 1 0 0 0 9 14 A 1 1 0 0 0 8 15 C 8 16.645025 9.3550085 18 11 18 L 13 18 C 14.645007 18 16 16.645007 16 15 L 16 9.5 L 16 9 C 16 7.3550085 14.645025 6 13 6 L 11 6 z M 11 8 L 13 8 C 13.564175 8 14 8.4358515 14 9 L 14 10 C 14 10.564193 13.564193 11 13 11 L 11 11 C 10.435851 11 10 10.564175 10 10 L 10 9 C 10 8.4358696 10.43587 8 11 8 z " fill="currentColor"/>
</svg>
