<svg xmlns="http://www.w3.org/2000/svg" width="1em" height="1em" viewBox="0 0 24 24" fill="currentColor">
  <path d="M 12 1 C 8.2815106 1 5.1972656 3.9034649 5.1972656 7.5195312 C 5.1972656 9.3829984 4.4792811 13.090178 2.28125 15.804688 C 1.9075644 16.266143 1.6135202 16.619912 1.3789062 16.994141 C 1.1442925 17.368369 0.92892424 17.858201 1.0214844 18.410156 C 1.1021084 18.891003 1.411665 19.298588 1.7128906 19.5625 C 2.0141163 19.826412 2.3360858 20.027051 2.7363281 20.287109 C 8.3115132 23.909496 15.688505 23.909498 21.263672 20.287109 C 21.663942 20.027046 21.985879 19.826421 22.287109 19.5625 C 22.58834 19.298579 22.897905 18.890988 22.978516 18.410156 C 23.071036 17.858269 22.855699 17.370335 22.621094 16.996094 C 22.386488 16.621852 22.092469 16.26616 21.71875 15.804688 C 19.520728 13.090177 18.802734 9.3829984 18.802734 7.5195312 C 18.802734 3.9034693 15.718523 1 12 1 z M 12 3 C 14.690477 3 16.802734 5.0398732 16.802734 7.5195312 C 16.802734 9.8519642 17.559085 13.847362 20.164062 17.064453 C 20.537744 17.525879 20.804537 17.863232 20.925781 18.056641 C 20.932646 18.06759 20.938799 18.076053 20.943359 18.082031 C 20.815807 18.187571 20.550052 18.364935 20.173828 18.609375 A 1.0001 1.0001 0 0 0 20.173828 18.611328 C 15.278595 21.79194 8.7214268 21.791941 3.8261719 18.611328 C 3.4499493 18.366877 3.1841995 18.187745 3.0566406 18.082031 C 3.0612007 18.07605 3.0673544 18.067594 3.0742188 18.056641 C 3.1954761 17.863172 3.4622631 17.525896 3.8359375 17.064453 C 6.4409264 13.847362 7.1972656 9.8519641 7.1972656 7.5195312 C 7.1972656 5.0398776 9.3095694 3 12 3 z M 12 4 C 9.8074773 4 8 5.7852588 8 7.9726562 L 8 11 L 8 14.910156 C 8 15.476598 7.982503 16.143967 8.2011719 16.851562 C 8.4198408 17.559159 8.9861359 18.301296 9.8554688 18.658203 C 10.513471 18.928278 11.244808 19 12 19 C 12.755192 19 13.486529 18.92828 14.144531 18.658203 C 15.013841 18.301292 15.580153 17.559151 15.798828 16.851562 C 16.017503 16.143974 16 15.476613 16 14.910156 L 16 11 L 16 7.9726562 C 16 5.7852588 14.192523 4 12 4 z M 12 6 C 12.758661 6 13.406562 6.4009326 13.746094 7 L 10.253906 7 C 10.593438 6.4009326 11.241339 6 12 6 z M 10 9 L 14 9 L 14 10 L 10 10 L 10 9 z M 10 12 L 14 12 L 14 14.910156 C 14 15.4739 13.9798 15.966857 13.888672 16.261719 C 13.797552 16.55658 13.745456 16.660505 13.384766 16.808594 C 13.177368 16.893719 12.577508 17 12 17 C 11.422492 17 10.822632 16.893719 10.615234 16.808594 C 10.254517 16.6605 10.202447 16.556572 10.111328 16.261719 C 10.02021 15.966866 10 15.473914 10 14.910156 L 10 12 z " fill="currentColor"/>
</svg>
