<svg xmlns="http://www.w3.org/2000/svg" width="1em" height="1em" viewBox="0 0 24 24" fill="currentColor">
  <path d="M 4 0.99804688 C 2.8889783 0.99804688 1.8761325 1.4901446 1.4355469 2.3183594 C 0.99496122 3.1465742 1 4.0174306 1 4.9941406 C 1 5.9708555 0.9949616 6.8436589 1.4355469 7.671875 C 1.8761321 8.5000911 2.8889783 8.9921875 4 8.9921875 L 4.4980469 8.9921875 L 4.4980469 12.488281 L 4.4980469 13.986328 C 4.4980469 15.399128 4.4921269 16.478715 4.6171875 17.408203 C 4.7422449 18.337691 5.040954 19.182037 5.6699219 19.810547 C 6.2606554 20.400879 7.0488414 20.703442 7.90625 20.837891 C 8.5272846 20.935273 9.210713 20.96472 10.017578 20.974609 C 10.023823 21.053233 10.032384 21.132288 10.042969 21.210938 C 10.094839 21.596373 10.247772 22.05671 10.583984 22.392578 C 10.920073 22.728552 11.3821 22.881785 11.767578 22.933594 C 12.153056 22.985404 12.526747 22.978516 12.998047 22.978516 C 13.469297 22.978516 13.843035 22.985414 14.228516 22.933594 C 14.613996 22.881784 15.074027 22.728593 15.410156 22.392578 C 15.746286 22.056678 15.89932 21.594384 15.951172 21.208984 C 16.003022 20.823585 15.996094 20.451419 15.996094 19.980469 C 15.996094 19.509569 16.002992 19.135402 15.951172 18.75 C 15.899322 18.364598 15.746327 17.9043 15.410156 17.568359 C 15.073995 17.232427 14.61396 17.079128 14.228516 17.027344 C 13.843072 16.975564 13.469297 16.982422 12.998047 16.982422 C 12.526747 16.982422 12.15302 16.975524 11.767578 17.027344 C 11.382136 17.079134 10.920106 17.232468 10.583984 17.568359 C 10.247732 17.904268 10.094841 18.364562 10.042969 18.75 C 10.032926 18.82462 10.025641 18.8981 10.019531 18.972656 C 9.259198 18.960636 8.6604985 18.931211 8.2148438 18.861328 C 7.5928948 18.763802 7.3183109 18.628699 7.0839844 18.394531 C 6.8345123 18.145241 6.694162 17.843387 6.5996094 17.140625 C 6.5050568 16.437863 6.4980469 15.399128 6.4980469 13.986328 L 6.4980469 13.488281 L 10.017578 13.488281 C 10.02377 13.565227 10.032608 13.641763 10.042969 13.71875 C 10.094839 14.104188 10.247732 14.564482 10.583984 14.900391 C 10.920106 15.236282 11.382136 15.38962 11.767578 15.441406 C 12.15302 15.493196 12.526747 15.486328 12.998047 15.486328 C 13.469297 15.486328 13.843072 15.493226 14.228516 15.441406 C 14.61396 15.389626 15.073995 15.236323 15.410156 14.900391 C 15.746327 14.56445 15.899322 14.104152 15.951172 13.71875 C 16.003022 13.333348 15.996094 12.959181 15.996094 12.488281 C 15.996094 12.017331 16.002992 11.643213 15.951172 11.257812 C 15.899322 10.87241 15.746189 10.41209 15.410156 10.076172 C 15.073995 9.7402398 14.61396 9.5869405 14.228516 9.5351562 C 13.843072 9.4833719 13.469297 9.4902344 12.998047 9.4902344 C 12.526747 9.4902344 12.15302 9.4833743 11.767578 9.5351562 C 11.382136 9.5869422 10.920106 9.74028 10.583984 10.076172 C 10.247869 10.412058 10.094841 10.872374 10.042969 11.257812 C 10.032608 11.334801 10.02377 11.411337 10.017578 11.488281 L 6.4980469 11.488281 L 6.4980469 8.9921875 L 6.9980469 8.9921875 C 8.1090685 8.9921875 9.1219183 8.500092 9.5625 7.671875 C 10.003082 6.843658 9.9980469 5.9708537 9.9980469 4.9941406 C 9.9980469 4.0174324 10.003082 3.1465751 9.5625 2.3183594 C 9.1219179 1.4901437 8.1090685 0.99804687 6.9980469 0.99804688 L 4 0.99804688 z M 4 2.9980469 L 6.9980469 2.9980469 C 7.7017152 2.9980469 7.6914146 3.0595659 7.796875 3.2578125 C 7.9023354 3.4560593 7.9980469 4.0826589 7.9980469 4.9941406 C 7.9980469 5.9056276 7.9023359 6.5341739 7.796875 6.7324219 C 7.6914142 6.9306699 7.701715 6.9921875 6.9980469 6.9921875 L 4 6.9921875 C 3.2963317 6.9921875 3.3066341 6.9306705 3.2011719 6.7324219 C 3.0957096 6.534173 3 5.9056258 3 4.9941406 C 3 4.0826606 3.09571 3.4560602 3.2011719 3.2578125 C 3.3066337 3.0595648 3.2963317 2.9980469 4 2.9980469 z M 17.955078 10.976562 A 1 1 0 0 0 17.013672 11.900391 A 1 1 0 0 0 17.935547 12.974609 C 18.501959 13.017549 18.675746 13.186603 18.8125 13.367188 C 18.949254 13.547771 19.005574 13.82258 19.007812 13.894531 L 19.007812 19.705078 L 18.734375 19.398438 A 1 1 0 0 0 17.322266 19.320312 A 1 1 0 0 0 17.244141 20.732422 L 18.646484 22.300781 A 1.0001 1.0001 0 0 0 18.693359 22.349609 C 18.961509 22.610107 19.245504 22.892729 19.78125 22.982422 C 19.8448 22.993062 19.88001 22.921565 19.943359 22.921875 A 1 1 0 0 0 20.007812 22.986328 A 1 1 0 0 0 20.146484 22.847656 C 20.528893 22.781446 20.939337 22.692226 21.150391 22.478516 A 1.0001 1.0001 0 0 0 21.173828 22.453125 L 22.736328 20.755859 A 1 1 0 0 0 22.677734 19.341797 A 1 1 0 0 0 21.263672 19.400391 L 21.007812 19.677734 L 21.007812 13.863281 A 1.0001 1.0001 0 0 0 21.007812 13.832031 C 20.993253 13.363983 20.8606 12.757548 20.408203 12.160156 C 19.955807 11.562765 19.140526 11.058472 18.085938 10.978516 A 1 1 0 0 0 17.955078 10.976562 z M 12.998047 11.490234 C 13.469297 11.490234 13.801906 11.496238 13.960938 11.517578 C 13.963282 11.517893 13.966508 11.517275 13.96875 11.517578 C 13.969053 11.519824 13.968434 11.523041 13.96875 11.525391 C 13.9901 11.684089 13.996094 12.017331 13.996094 12.488281 C 13.996094 12.959181 13.99009 13.292474 13.96875 13.451172 C 13.968434 13.453521 13.969054 13.456739 13.96875 13.458984 C 13.966508 13.459288 13.963282 13.458669 13.960938 13.458984 C 13.801906 13.480354 13.469297 13.486328 12.998047 13.486328 C 12.526747 13.486328 12.192211 13.480324 12.033203 13.458984 C 12.030855 13.458669 12.027635 13.459288 12.025391 13.458984 C 12.025086 13.456739 12.025707 13.453521 12.025391 13.451172 C 12.004041 13.29251 11.998047 12.959181 11.998047 12.488281 C 11.998047 12.017331 12.004051 11.684052 12.025391 11.525391 C 12.025707 11.523042 12.025086 11.519823 12.025391 11.517578 C 12.027635 11.517274 12.030855 11.517894 12.033203 11.517578 C 12.192211 11.496218 12.526747 11.490234 12.998047 11.490234 z M 12.998047 18.982422 C 13.469297 18.982422 13.801906 18.988426 13.960938 19.009766 C 13.963282 19.010081 13.966508 19.009462 13.96875 19.009766 C 13.969054 19.012011 13.968434 19.015228 13.96875 19.017578 C 13.9901 19.176276 13.996094 19.509569 13.996094 19.980469 C 13.996094 20.451419 13.99009 20.784684 13.96875 20.943359 C 13.968434 20.945709 13.969054 20.948926 13.96875 20.951172 C 13.966508 20.951475 13.963282 20.950857 13.960938 20.951172 C 13.801942 20.972542 13.469297 20.978516 12.998047 20.978516 C 12.526747 20.978516 12.192175 20.972512 12.033203 20.951172 C 12.030855 20.950856 12.027635 20.951476 12.025391 20.951172 C 12.025086 20.948927 12.025707 20.945708 12.025391 20.943359 C 12.004041 20.78472 11.998047 20.451419 11.998047 19.980469 C 11.998047 19.509569 12.004051 19.17624 12.025391 19.017578 C 12.025707 19.015229 12.025086 19.012011 12.025391 19.009766 C 12.027635 19.009462 12.030855 19.010081 12.033203 19.009766 C 12.192211 18.988406 12.526747 18.982422 12.998047 18.982422 z " fill="currentColor"/>
</svg>
