<svg xmlns="http://www.w3.org/2000/svg" width="1em" height="1em" viewBox="0 0 24 24" fill="currentColor">
  <path d="M 4.2851562 1 C 3.0695571 1 2.0201345 1.4314139 1.5097656 2.2714844 C 0.99939679 3.1115548 1 4.0177177 1 5 C 1 5.9822823 0.99939678 6.8884452 1.5097656 7.7285156 C 2.0201345 8.5685861 3.0695571 9 4.2851562 9 L 5 9 L 5 11.5 L 5 13.5 C 5 14.9142 4.99407 15.995558 5.1191406 16.925781 C 5.2442065 17.856004 5.5428648 18.699101 6.171875 19.328125 C 6.8008908 19.957155 7.6439896 20.25579 8.5742188 20.380859 C 9.5044477 20.505928 10.585785 20.5 12 20.5 L 12.011719 20.5 C 12.019375 20.67195 12.031656 20.836765 12.052734 21 C 12.110744 21.449387 12.26946 21.949761 12.630859 22.326172 C 12.9922 22.702628 13.5008 22.883063 13.945312 22.945312 C 14.389829 23.007563 14.834691 23 15.400391 23 L 16.599609 23 C 17.165309 23 17.610176 23.007603 18.054688 22.945312 C 18.499201 22.883063 19.0078 22.702628 19.369141 22.326172 C 19.73054 21.949763 19.889261 21.449387 19.947266 21 C 20.005271 20.550613 20 20.08925 20 19.5 C 20 18.91075 20.005296 18.449387 19.947266 18 C 19.889266 17.550613 19.73054 17.050239 19.369141 16.673828 C 19.007796 16.297372 18.4992 16.116938 18.054688 16.054688 C 17.610176 15.992437 17.165309 16 16.599609 16 L 15.400391 16 C 14.834691 16 14.389824 15.992398 13.945312 16.054688 C 13.500799 16.116936 12.9922 16.297372 12.630859 16.673828 C 12.26946 17.050239 12.110739 17.550613 12.052734 18 C 12.031665 18.163235 12.019376 18.32805 12.011719 18.5 L 12 18.5 C 10.585785 18.5 9.5454503 18.493 8.8417969 18.398438 C 8.1381434 18.303832 7.8356017 18.163732 7.5859375 17.914062 C 7.3362677 17.664388 7.1961666 17.361855 7.1015625 16.658203 C 7.0069584 15.954551 7 14.9142 7 13.5 L 7 12.5 L 11.5 12.5 A 1 1 0 0 0 12.5 11.5 A 1 1 0 0 0 11.5 10.5 L 7 10.5 L 7 9 L 7.7148438 9 C 8.9304429 9 9.9798659 8.5685861 10.490234 7.7285156 C 11.000603 6.8884452 11 5.9822823 11 5 C 11 4.0177177 11.000603 3.1115548 10.490234 2.2714844 C 9.9798659 1.4314139 8.9304429 1 7.7148438 1 L 4.2851562 1 z M 4.2851562 3 L 7.7148438 3 C 8.5737546 3 8.6673914 3.1231348 8.78125 3.3105469 C 8.8951086 3.4979589 9 4.0922123 9 5 C 9 5.9077877 8.8951086 6.5020411 8.78125 6.6894531 C 8.6673914 6.8768652 8.5737546 7 7.7148438 7 L 4.2851562 7 C 3.4262454 7 3.3326086 6.8768652 3.21875 6.6894531 C 3.1048914 6.5020411 3 5.9077877 3 5 C 3 4.0922123 3.1048914 3.4979589 3.21875 3.3105469 C 3.3326086 3.1231348 3.4262454 3 4.2851562 3 z M 20.074219 4.0058594 C 19.47987 4.0058594 18.886247 4.2288223 18.4375 4.6757812 L 15.208984 7.890625 C 14.815997 8.2821535 14.549919 8.7827357 14.447266 9.328125 L 14.447266 9.3300781 L 14.033203 11.259766 C 13.821224 12.246042 14.761838 13.179136 15.744141 12.966797 L 17.71875 12.541016 L 17.691406 12.544922 C 18.237373 12.443376 18.739181 12.181124 19.132812 11.789062 A 1.0001 1.0001 0 0 0 19.140625 11.78125 L 22.320312 8.5546875 C 23.217681 7.6607212 23.217817 6.1751788 22.320312 5.28125 L 21.710938 4.6757812 C 21.262192 4.2288223 20.668567 4.0058594 20.074219 4.0058594 z M 20.044922 5.9960938 C 20.135066 5.98687 20.226697 6.0199601 20.300781 6.09375 L 20.908203 6.6992188 C 21.039899 6.8303899 21.039836 7.0075382 20.908203 7.1386719 A 1.0001 1.0001 0 0 0 20.902344 7.1445312 L 17.722656 10.371094 C 17.614889 10.478431 17.475052 10.552024 17.324219 10.580078 A 1.0001 1.0001 0 0 0 17.296875 10.585938 L 16.171875 10.828125 L 16.408203 9.7246094 A 1.0001 1.0001 0 0 0 16.414062 9.6992188 C 16.441842 9.5510799 16.513302 9.4140366 16.621094 9.3066406 L 19.847656 6.09375 C 19.905278 6.0363579 19.97481 6.0032678 20.044922 5.9960938 z M 15.400391 18 L 16.599609 18 C 17.165309 18 17.568307 18.005896 17.777344 18.035156 C 17.870085 18.048142 17.912518 18.056441 17.929688 18.060547 C 17.935955 18.077571 17.948205 18.127127 17.964844 18.255859 C 17.994714 18.487267 18 18.91075 18 19.5 C 18 20.08925 17.994704 20.512727 17.964844 20.744141 C 17.948226 20.872881 17.935961 20.922432 17.929688 20.939453 C 17.912539 20.94356 17.87013 20.951865 17.777344 20.964844 C 17.568311 20.994116 17.165309 21 16.599609 21 L 15.400391 21 C 14.834691 21 14.431693 20.994104 14.222656 20.964844 C 14.129915 20.951858 14.087482 20.943559 14.070312 20.939453 C 14.064045 20.922429 14.051795 20.872873 14.035156 20.744141 C 14.005286 20.512733 14 20.08925 14 19.5 C 14 18.91075 14.005296 18.487273 14.035156 18.255859 C 14.051774 18.127119 14.064039 18.077568 14.070312 18.060547 C 14.087461 18.05644 14.12987 18.048135 14.222656 18.035156 C 14.431689 18.005884 14.834691 18 15.400391 18 z " fill="currentColor"/>
</svg>
