<svg xmlns="http://www.w3.org/2000/svg" width="1em" height="1em" viewBox="0 0 24 24" fill="currentColor">
  <path d="M 8.5 2 A 1 1 0 0 0 7.5 3 C 7.5 4.8788886 6.081874 9.7923585 4.9042969 11.558594 C 4.0514786 12.837669 3.2470906 14.491045 3.0449219 16.189453 C 2.9438375 17.038657 2.9987109 17.916717 3.3515625 18.730469 C 3.7044138 19.54422 4.3750325 20.257517 5.3027344 20.705078 C 6.4149345 21.24161 7.5376878 20.955669 8.3066406 20.630859 C 8.5688262 20.520111 8.8047884 20.396001 9.0019531 20.28125 C 9.228648 20.573643 9.4839265 20.86431 9.7871094 21.128906 C 10.340459 21.61183 11.108333 22 12 22 C 12.891667 22 13.659541 21.61183 14.212891 21.128906 C 14.516074 20.86431 14.771352 20.573644 14.998047 20.28125 C 15.195212 20.396002 15.431175 20.52011 15.693359 20.630859 C 16.462305 20.95567 17.585064 21.241603 18.697266 20.705078 C 19.624972 20.257518 20.295583 19.54422 20.648438 18.730469 C 21.001293 17.916718 21.05616 17.038657 20.955078 16.189453 C 20.752915 14.491043 19.94851 12.837668 19.095703 11.558594 C 17.918178 9.7924745 16.5 4.8778717 16.5 3 A 1 1 0 0 0 15.5 2 A 1 1 0 0 0 14.5 3 C 14.5 5.6783083 15.815966 10.244688 17.431641 12.667969 C 18.151934 13.748295 18.825813 15.22494 18.96875 16.425781 C 19.04022 17.026202 18.98511 17.540026 18.814453 17.933594 C 18.643796 18.327161 18.379369 18.638357 17.828125 18.904297 C 17.480127 19.072171 16.96966 18.999007 16.472656 18.789062 C 16.363354 18.742892 16.261383 18.69363 16.167969 18.644531 C 16.264225 18.520848 16.355129 18.412332 16.441406 18.324219 C 16.706071 18.053923 16.833333 18 17 18 A 1 1 0 0 0 18 17 A 1 1 0 0 0 17 16 C 16.166667 16 15.481429 16.446077 15.011719 16.925781 C 14.542008 17.405485 14.199017 17.945251 13.863281 18.433594 C 13.527546 18.921936 13.20251 19.354017 12.896484 19.621094 C 12.590459 19.88817 12.358333 20 12 20 C 11.641667 20 11.409541 19.88817 11.103516 19.621094 C 10.79749 19.354017 10.472454 18.921936 10.136719 18.433594 C 9.8009831 17.945251 9.4579914 17.405485 8.9882812 16.925781 C 8.5185709 16.446077 7.8333333 16 7 16 A 1 1 0 0 0 6 17 A 1 1 0 0 0 7 18 C 7.1666667 18 7.293929 18.05392 7.5585938 18.324219 C 7.6448716 18.412332 7.7357749 18.520847 7.8320312 18.644531 C 7.7386168 18.69363 7.6366478 18.742892 7.5273438 18.789062 C 7.0303267 18.999004 6.5198549 19.072165 6.171875 18.904297 C 5.6206369 18.638358 5.3562018 18.327161 5.1855469 17.933594 C 5.0148919 17.540026 4.9597794 17.026202 5.03125 16.425781 C 5.1741913 15.224939 5.8480577 13.748293 6.5683594 12.667969 C 8.1839223 10.244804 9.5 5.6790314 9.5 3 A 1 1 0 0 0 8.5 2 z " fill="currentColor"/>
</svg>
