<svg xmlns="http://www.w3.org/2000/svg" width="1em" height="1em" viewBox="0 0 24 24" fill="currentColor">
  <path d="M 7.5 1 A 1 1 0 0 0 6.5 2 L 6.5 2.7265625 C 5.6507885 2.9037431 4.9027871 3.2339259 4.3183594 3.8183594 C 3.6161133 4.5205986 3.2800908 5.4590062 3.1367188 6.5253906 C 2.9933466 7.591775 3 8.850085 3 10.5 L 3 15 C 3 16.6499 2.99335 17.908225 3.1367188 18.974609 C 3.2800906 20.040994 3.6161378 20.979371 4.3183594 21.681641 C 5.0206014 22.383869 5.9590094 22.719914 7.0253906 22.863281 C 8.0917719 23.006649 9.350085 23 11 23 L 14 23 A 1.0001 1.0001 0 0 0 14.263672 22.964844 A 1 1 0 0 0 14.371094 22.927734 A 1.0001 1.0001 0 0 0 14.388672 22.921875 A 1 1 0 0 0 14.5 22.865234 A 1.0001 1.0001 0 0 0 14.507812 22.861328 A 1 1 0 0 0 14.615234 22.787109 A 1.0001 1.0001 0 0 0 14.619141 22.785156 A 1 1 0 0 0 14.716797 22.697266 L 20.697266 16.716797 A 1 1 0 0 0 20.707031 16.707031 A 1.0001 1.0001 0 0 0 20.785156 16.619141 A 1 1 0 0 0 20.792969 16.609375 A 1.0001 1.0001 0 0 0 20.861328 16.507812 A 1 1 0 0 0 20.865234 16.5 A 1.0001 1.0001 0 0 0 20.921875 16.388672 A 1 1 0 0 0 20.923828 16.382812 A 1.0001 1.0001 0 0 0 20.927734 16.371094 A 1 1 0 0 0 20.964844 16.263672 A 1.0001 1.0001 0 0 0 21 16 L 21 10.5 C 21 8.850085 21.006649 7.5917719 20.863281 6.5253906 C 20.719914 5.4590094 20.383869 4.5206014 19.681641 3.8183594 C 19.097188 3.2339468 18.349204 2.9037483 17.5 2.7265625 L 17.5 2 A 1 1 0 0 0 16.5 1 A 1 1 0 0 0 15.5 2 L 15.5 2.5234375 C 14.771196 2.4978895 13.950589 2.5 13 2.5 L 13 2 A 1 1 0 0 0 12 1 A 1 1 0 0 0 11 2 L 11 2.5 C 10.049404 2.5 9.2288005 2.4978897 8.5 2.5234375 L 8.5 2 A 1 1 0 0 0 7.5 1 z M 11 4.5 L 11 5 A 1 1 0 0 0 12 6 A 1 1 0 0 0 13 5 L 13 4.5 C 13.983007 4.5 14.812457 4.5016761 15.5 4.5273438 L 15.5 5 A 1 1 0 0 0 16.5 6 A 1 1 0 0 0 17.5 5 L 17.5 4.7832031 C 17.841427 4.8906342 18.068701 5.0335579 18.267578 5.2324219 C 18.59045 5.5552999 18.767952 5.9531526 18.880859 6.7929688 C 18.993767 7.6327851 19 8.850085 19 10.5 L 19 15.001953 C 18.055165 15.006145 17.272154 15.025324 16.574219 15.119141 C 15.643994 15.24421 14.800897 15.542853 14.171875 16.171875 C 13.542853 16.800897 13.24421 17.643994 13.119141 18.574219 C 13.025303 19.272154 13.006138 20.055165 13.001953 21 L 11 21 C 9.350085 21 8.132785 20.993767 7.2929688 20.880859 C 6.4531525 20.767952 6.0552999 20.59045 5.7324219 20.267578 C 5.4095135 19.944648 5.2320512 19.546847 5.1191406 18.707031 C 5.0062301 17.867215 5 16.6499 5 15 L 5 10.5 C 5 8.850085 5.0062303 7.632782 5.1191406 6.7929688 C 5.232051 5.9531556 5.409538 5.5553026 5.7324219 5.2324219 C 5.9312712 5.0335706 6.1585562 4.8906396 6.5 4.7832031 L 6.5 5 A 1 1 0 0 0 7.5 6 A 1 1 0 0 0 8.5 5 L 8.5 4.5273438 C 9.1875397 4.5016763 10.016987 4.5 11 4.5 z M 8 9 A 1 1 0 0 0 7 10 A 1 1 0 0 0 8 11 L 16 11 A 1 1 0 0 0 17 10 A 1 1 0 0 0 16 9 L 8 9 z M 8 13 A 1 1 0 0 0 7 14 A 1 1 0 0 0 8 15 L 11.5 15 A 1 1 0 0 0 12.5 14 A 1 1 0 0 0 11.5 13 L 8 13 z M 17.546875 17.039062 L 15.039062 19.546875 C 15.053757 19.282386 15.073892 19.047696 15.101562 18.841797 C 15.196162 18.138147 15.33626 17.835615 15.585938 17.585938 C 15.835615 17.336261 16.138147 17.196168 16.841797 17.101562 C 17.047701 17.073879 17.282378 17.053758 17.546875 17.039062 z " fill="currentColor"/>
</svg>
