<svg xmlns="http://www.w3.org/2000/svg" width="1em" height="1em" viewBox="0 0 24 24" fill="currentColor">
  <path d="M 17.5 1 C 15.026562 1 13 3.026562 13 5.5 C 13 7.973438 15.026562 10 17.5 10 C 19.973438 10 22 7.973438 22 5.5 C 22 3.026562 19.973438 1 17.5 1 z M 11.5 2 C 7.0935689 2 3.5 5.5935689 3.5 10 L 3.5 17.5 L 3 17.5 A 1 1 0 0 0 2 18.5 A 1 1 0 0 0 3 19.5 L 10 19.5 L 11.5 19.5 L 13 19.5 L 20 19.5 A 1 1 0 0 0 21 18.5 A 1 1 0 0 0 20 17.5 L 19.5 17.5 L 19.5 12 A 1 1 0 0 0 18.5 11 A 1 1 0 0 0 17.5 12 L 17.5 17.5 L 5.5 17.5 L 5.5 10 C 5.5 6.6744511 8.1744511 4 11.5 4 A 1 1 0 0 0 12.5 3 A 1 1 0 0 0 11.5 2 z M 13 19.5 A 1 1 0 0 0 12.25 20.25 A 1 1 0 0 0 11.5 19.5 A 1 1 0 0 0 10.75 20.25 A 1 1 0 0 0 10 19.5 A 1 1 0 0 0 9 20.5 C 9 21.86888 10.13112 23 11.5 23 C 12.86888 23 14 21.86888 14 20.5 A 1 1 0 0 0 13 19.5 z M 17.5 3 C 18.892562 3 20 4.107438 20 5.5 C 20 5.8024555 19.779651 6.0024012 19.683594 6.2695312 L 16.730469 3.3164062 C 16.997599 3.2203489 17.197544 3 17.5 3 z M 15.316406 4.7304688 L 18.269531 7.6835938 C 18.002401 7.7796511 17.802456 8 17.5 8 C 16.107438 8 15 6.892562 15 5.5 C 15 5.1975445 15.220349 4.9975988 15.316406 4.7304688 z " fill="currentColor"/>
</svg>
