<svg xmlns="http://www.w3.org/2000/svg" width="1em" height="1em" viewBox="0 0 24 24" fill="currentColor">
  <path d="M 3 2 A 1 1 0 0 0 2 3 L 2 5.5722656 L 2 9 A 1 1 0 0 0 3 10 A 1 1 0 0 0 4 9 L 4 5.5722656 C 4 4.6775347 4.6751731 4 5.5 4 C 6.3248269 4 7 4.6775347 7 5.5722656 L 7 9 A 1 1 0 0 0 8 10 A 1 1 0 0 0 9 9 L 9 5.5722656 C 9 3.6266766 7.4365931 2 5.5 2 C 4.7970249 2 4.1805123 2.2668226 3.6328125 2.6328125 A 1 1 0 0 0 3 2 z M 13.613281 6 C 12.958518 6 12.355189 5.99609 11.751953 6.3789062 C 11.148717 6.7617177 10.866062 7.4145786 10.689453 8.1210938 L 8.3691406 17.398438 C 8.0943155 18.497539 7.8822335 19.310703 7.7050781 19.742188 C 7.6887231 19.782028 7.687263 19.770164 7.671875 19.802734 C 7.639464 19.761484 7.6360002 19.769901 7.5976562 19.712891 C 7.3264476 19.309606 6.9440931 18.546166 6.4394531 17.509766 L 5.8691406 16.337891 C 5.651775 15.891489 5.485549 15.53253 5.25 15.189453 C 5.014451 14.846376 4.6271054 14.482361 4.1445312 14.349609 C 3.4829001 14.167562 2.8896972 14.355109 2.4550781 14.560547 C 2.0204591 14.765976 1.6790689 15.014897 1.4550781 15.160156 A 1 1 0 0 0 1.1601562 16.544922 A 1 1 0 0 0 2.5449219 16.839844 C 2.8293311 16.655403 3.0964028 16.469436 3.3085938 16.369141 C 3.4419996 16.306084 3.5286699 16.286872 3.5742188 16.28125 C 3.5812965 16.291918 3.5899577 16.305363 3.6015625 16.322266 C 3.6932535 16.455813 3.8529482 16.766492 4.0703125 17.212891 L 4.6425781 18.384766 C 5.1472181 19.421166 5.5216063 20.211657 5.9375 20.830078 C 6.1454468 21.139289 6.3651203 21.41574 6.6777344 21.644531 C 6.9903485 21.873323 7.4391934 22.028464 7.8652344 21.994141 C 8.2912699 21.959881 8.7177847 21.728868 8.9863281 21.443359 C 9.2548715 21.15785 9.4146227 20.843099 9.5546875 20.501953 C 9.8348171 19.819662 10.033769 18.983865 10.308594 17.884766 L 12.628906 8.6074219 C 12.740671 8.1603118 12.813525 8.0764248 12.824219 8.0664062 L 12.826172 8.0664062 C 12.833086 8.0672979 13.056362 8 13.613281 8 L 22 8 A 1 1 0 0 0 23 7 A 1 1 0 0 0 22 6 L 13.613281 6 z " fill="currentColor"/>
</svg>
