<svg xmlns="http://www.w3.org/2000/svg" width="1em" height="1em" viewBox="0 0 24 24" fill="currentColor">
  <path d="M 13.796875 1 C 12.887838 1 12.056398 1.5248617 11.65625 2.3378906 L 10.908203 3.8574219 C 10.644402 2.8120101 9.8412847 1.953125 8.71875 1.953125 C 7.3930839 1.953125 6.3125 3.0598845 6.3125 4.3808594 L 6.3125 5.9335938 C 6.1625933 5.9035218 6.0645711 5.7617187 5.90625 5.7617188 C 4.5805839 5.7617188 3.5 6.8704313 3.5 8.1914062 L 3.5 13.310547 C 3.5 14.794034 3.840447 16.255841 4.4941406 17.583984 L 4.7851562 18.177734 C 5.1728755 18.965478 5.375 19.834697 5.375 20.716797 L 5.375 22 A 1 1 0 0 0 6.375 23 A 1 1 0 0 0 7.375 22 L 7.375 20.716797 C 7.375 19.529096 7.103599 18.356625 6.5800781 17.292969 L 6.2871094 16.701172 C 5.769203 15.648915 5.5 14.48846 5.5 13.310547 L 5.5 8.1914062 C 5.5 7.9344211 5.6786161 7.7617187 5.90625 7.7617188 C 6.1338839 7.7617188 6.3125 7.9344211 6.3125 8.1914062 L 6.3125 11.523438 A 1 1 0 0 0 7.3125 12.523438 A 1 1 0 0 0 8.3125 11.523438 L 8.3125 8.1914062 L 8.3125 4.3808594 C 8.3125 4.1238743 8.4911161 3.953125 8.71875 3.953125 C 8.9463839 3.953125 9.125 4.1238743 9.125 4.3808594 L 9.125 7.4824219 L 8.7792969 8.1816406 A 1 1 0 0 0 9.2363281 9.5214844 A 1 1 0 0 0 10.574219 9.0644531 L 11.021484 8.15625 L 13.451172 3.2226562 C 13.521823 3.0791051 13.653112 3 13.796875 3 C 14.098116 3 14.278903 3.2634398 14.154297 3.5722656 L 12.017578 8.5566406 A 1.0001 1.0001 0 0 0 13.453125 9.8066406 C 13.453125 9.8066406 13.423045 9.8142102 13.576172 9.7695312 C 13.7293 9.7248542 14.000034 9.6679688 14.404297 9.6679688 C 16.333823 9.6679688 17.945671 10.919604 18.492188 12.626953 C 18.502279 12.658476 18.50912 12.675218 18.509766 12.685547 C 18.509738 12.686347 18.507923 12.690654 18.507812 12.691406 L 18.507812 12.693359 L 18.507812 12.695312 L 18.505859 12.697266 C 18.499301 12.70697 18.483371 12.717844 18.455078 12.748047 C 18.390408 12.817087 18.225345 12.90625 18.037109 12.90625 C 17.761884 12.90625 17.345928 12.662697 16.966797 12.246094 C 16.704584 11.957949 16.364191 11.675442 15.949219 11.449219 C 14.036982 10.262289 11.480469 11.694862 11.480469 13.90625 C 11.480469 16.129227 14.065104 17.572311 15.980469 16.351562 C 16.118162 16.263542 16.253601 16.157337 16.396484 16.025391 C 17.080017 15.394381 17.714931 14.90625 18.029297 14.90625 C 18.20914 14.90625 18.367128 14.991909 18.425781 15.054688 C 18.451441 15.082154 18.467193 15.089874 18.472656 15.095703 L 18.472656 15.097656 L 18.472656 15.099609 L 18.472656 15.101562 L 18.472656 15.103516 C 18.471655 15.110398 18.466279 15.122037 18.457031 15.150391 C 18.126081 16.164985 17.392424 17.030322 16.480469 17.5625 C 16.017829 17.83252 15.425917 18.133591 14.882812 18.597656 C 14.339707 19.061722 13.814188 19.799307 13.8125 20.71875 C 13.811695 21.136667 13.8125 21.568633 13.8125 22 A 1 1 0 0 0 14.8125 23 A 1 1 0 0 0 15.8125 22 C 15.8125 21.566167 15.811705 21.13534 15.8125 20.722656 C 15.812912 20.498399 15.8853 20.374025 16.183594 20.119141 C 16.48189 19.864256 16.974821 19.590696 17.488281 19.291016 C 18.807126 18.521394 19.863373 17.28609 20.357422 15.771484 C 20.572969 15.110617 20.373552 14.434394 20.013672 13.927734 C 20.40259 13.414655 20.617133 12.704959 20.396484 12.015625 C 19.603378 9.5379143 17.287833 7.7642096 14.564453 7.6933594 L 16.001953 4.3417969 A 1.0001 1.0001 0 0 0 16.009766 4.3222656 C 16.634772 2.7732712 15.472034 1 13.796875 1 z M 14.419922 13.005859 C 14.582585 13.004215 14.748788 13.047372 14.904297 13.146484 A 1.0001 1.0001 0 0 0 14.978516 13.189453 C 15.17212 13.291095 15.344355 13.433637 15.488281 13.591797 C 15.576341 13.688557 15.715258 13.771829 15.816406 13.869141 C 15.540485 14.112081 15.245616 14.367762 15.041016 14.556641 C 14.980096 14.612891 14.922404 14.654441 14.904297 14.666016 C 14.282261 15.062467 13.480469 14.559673 13.480469 13.90625 C 13.480469 13.579616 13.68068 13.290538 13.958984 13.132812 C 14.098137 13.053949 14.257259 13.007504 14.419922 13.005859 z " fill="currentColor"/>
</svg>
