<svg xmlns="http://www.w3.org/2000/svg" width="1em" height="1em" viewBox="0 0 24 24" fill="currentColor">
  <path d="M 20.753906 1.0019531 A 1.0001 1.0001 0 0 0 20.494141 1.0546875 A 1.0001 1.0001 0 0 0 19.824219 2.0878906 C 19.915009 3.1142407 19.748819 3.2557455 19.466797 3.421875 C 19.184779 3.5880045 18.452929 3.6892453 17.509766 3.6542969 C 16.566602 3.6193479 15.445561 3.4944009 14.314453 3.5390625 C 13.183345 3.5837245 11.984617 3.7989975 11.017578 4.6054688 C 10.227876 5.2641032 9.689622 6.0849967 9.3691406 6.9453125 L 8.7167969 6.2929688 A 1.0001 1.0001 0 0 0 7.6484375 6.0683594 A 1.0001 1.0001 0 0 0 7.0117188 6.953125 C 7.0117188 6.953125 6.9676188 7.8860631 7.0507812 9.0019531 A 1 1 0 0 0 7 9 A 1 1 0 0 0 6.2929688 9.2929688 A 1 1 0 0 0 6.2929688 10.707031 L 7.1933594 11.607422 L 1.4433594 19.388672 C 0.78129209 20.284473 0.87640544 21.548263 1.6640625 22.335938 C 2.4517133 23.123428 3.7154721 23.218775 4.6113281 22.556641 L 12.392578 16.806641 L 13.292969 17.707031 A 1 1 0 0 0 14.707031 17.707031 A 1 1 0 0 0 14.998047 16.949219 C 16.11379 17.032694 17.044922 16.988281 17.044922 16.988281 A 1.0001 1.0001 0 0 0 17.707031 15.283203 L 17.365234 14.941406 C 18.638834 14.786194 19.666023 14.288471 20.416016 13.671875 C 21.620193 12.681877 22.141842 11.533648 22.330078 10.878906 A 1.0001 1.0001 0 0 0 20.728516 9.8339844 C 20.420057 10.091212 19.906375 10.158136 19.539062 10.060547 C 19.385876 10.019847 19.306696 9.9598122 19.255859 9.9199219 C 19.2788 9.8696159 19.3821 9.6881354 19.830078 9.3671875 C 20.3161 9.0189833 21.021475 8.6135558 21.669922 8.0097656 C 22.318369 7.4059754 22.921529 6.5215639 22.992188 5.3828125 C 23.062848 4.2440611 22.644315 2.9721699 21.660156 1.4550781 A 1.0001 1.0001 0 0 0 20.753906 1.0019531 z M 20.894531 4.6503906 C 20.932291 4.8593132 21.005676 5.1053449 20.996094 5.2597656 C 20.962324 5.8040914 20.734231 6.1467783 20.306641 6.5449219 C 19.87905 6.9430654 19.264953 7.313087 18.666016 7.7421875 C 18.067078 8.171288 17.350855 8.7228788 17.222656 9.7089844 C 17.145336 10.303892 17.392073 10.895067 17.75 11.271484 C 18.107927 11.647902 18.553272 11.868705 19.025391 11.994141 C 19.090231 12.011371 19.165897 11.990206 19.232422 12.003906 C 19.181442 12.051276 19.199111 12.082076 19.144531 12.126953 C 18.359705 12.772188 17.234134 13.269177 15.283203 12.859375 L 11.021484 8.5976562 C 11.116621 7.7292228 11.528554 6.7830556 12.298828 6.140625 C 12.758339 5.7574112 13.471561 5.5755059 14.394531 5.5390625 C 15.317502 5.5026195 16.389748 5.6135925 17.435547 5.6523438 C 18.481346 5.6910957 19.533237 5.7036717 20.482422 5.1445312 C 20.665197 5.0368631 20.745547 4.8041329 20.894531 4.6503906 z M 9.2167969 9.6210938 L 14.375 14.779297 C 13.779176 14.657593 13.111844 14.510377 12.820312 14.40625 L 9.59375 11.179688 C 9.4885268 10.887536 9.3382335 10.219059 9.2167969 9.6210938 z M 8.625 13.039062 L 10.960938 15.375 L 3.421875 20.947266 C 3.310571 21.029526 3.1760542 21.019785 3.078125 20.921875 C 2.980202 20.823945 2.970402 20.689524 3.0527344 20.578125 L 8.625 13.039062 z " fill="currentColor"/>
</svg>
