<svg xmlns="http://www.w3.org/2000/svg" width="1em" height="1em" viewBox="0 0 24 24" fill="currentColor">
  <path d="M 10.5 2 C 8.62071 2 7.1954918 1.9955249 6.0097656 2.1210938 C 4.8240394 2.2466625 3.8309526 2.5184507 3.0117188 3.125 C 2.7655924 3.3072276 2.5371828 3.5086939 2.328125 3.7285156 C 1.6299111 4.4627213 1.2876507 5.4152061 1.140625 6.4960938 C 0.99359928 7.5769814 1 8.841805 1 10.5 C 1 12.1582 0.993599 13.423015 1.140625 14.503906 C 1.2876505 15.584798 1.6299184 16.537267 2.328125 17.271484 C 2.5370669 17.49111 2.7655618 17.692725 3.0117188 17.875 C 3.8309532 18.481524 4.8240431 18.753343 6.0097656 18.878906 C 7.1954881 19.004469 8.62071 19 10.5 19 L 13.5 19 C 15.3793 19 16.804515 19.0045 17.990234 18.878906 C 19.175954 18.753343 20.169071 18.48154 20.988281 17.875 C 21.234469 17.69272 21.462923 17.491107 21.671875 17.271484 C 22.370082 16.537267 22.712349 15.584798 22.859375 14.503906 C 23.006401 13.423015 23 12.1582 23 10.5 C 23 8.841805 23.006401 7.5769814 22.859375 6.4960938 C 22.712349 5.4152061 22.370089 4.4627213 21.671875 3.7285156 C 21.462807 3.5086965 21.234439 3.3072325 20.988281 3.125 C 20.169071 2.5184346 19.175958 2.2466626 17.990234 2.1210938 C 16.804511 1.9955247 15.3793 2 13.5 2 L 10.5 2 z M 10.5 4 L 13.5 4 C 15.3793 4 16.77207 4.00466 17.779297 4.1113281 C 18.786523 4.2179941 19.361485 4.4100473 19.796875 4.7324219 C 19.952118 4.8473494 20.094924 4.973121 20.222656 5.1074219 C 20.577242 5.4802862 20.760779 5.9115476 20.876953 6.765625 C 20.993127 7.6197024 21 8.841805 21 10.5 C 21 12.1582 20.9931 13.380292 20.876953 14.234375 C 20.760779 15.088458 20.57725 15.519696 20.222656 15.892578 C 20.094808 16.026955 19.952087 16.152658 19.796875 16.267578 C 19.361486 16.589938 18.786527 16.78201 17.779297 16.888672 C 16.772067 16.995334 15.3793 17 13.5 17 L 10.5 17 C 8.62071 17 7.2279381 16.995334 6.2207031 16.888672 C 5.2134681 16.78201 4.6385605 16.589955 4.203125 16.267578 C 4.0479218 16.152653 3.9051817 16.026953 3.7773438 15.892578 C 3.4227503 15.519696 3.2392214 15.088458 3.1230469 14.234375 C 3.0068724 13.380292 3 12.1582 3 10.5 C 3 8.841805 3.0068726 7.6197024 3.1230469 6.765625 C 3.2392212 5.9115476 3.4227576 5.4802862 3.7773438 5.1074219 C 3.9050658 4.9731236 4.0478912 4.8473543 4.203125 4.7324219 C 4.638561 4.4100312 5.2134718 4.2179943 6.2207031 4.1113281 C 7.2279344 4.004662 8.62071 4 10.5 4 z M 10 6.5 C 9.06812 6.5 8.4951614 6.4619356 7.8515625 6.7285156 C 7.1168415 7.032854 6.532854 7.6168415 6.2285156 8.3515625 C 5.9619356 8.9951614 6 9.56812 6 10.5 C 6 11.4319 5.961985 12.004871 6.2285156 12.648438 C 6.5328536 13.383083 7.1168017 13.967115 7.8515625 14.271484 C 8.4951207 14.537978 9.06812 14.5 10 14.5 L 10.5 14.5 A 1 1 0 0 0 11.5 13.5 A 1 1 0 0 0 10.5 12.5 L 10 12.5 C 9.06812 12.5 8.7087293 12.461735 8.6171875 12.423828 C 8.3718483 12.322198 8.1778139 12.128166 8.0761719 11.882812 C 8.0382223 11.791178 8 11.4319 8 10.5 C 8 9.56812 8.0382719 9.2086886 8.0761719 9.1171875 C 8.1778135 8.8718085 8.3718085 8.6778135 8.6171875 8.5761719 C 8.7086886 8.5382719 9.06812 8.5 10 8.5 L 10.5 8.5 A 1 1 0 0 0 11.5 7.5 A 1 1 0 0 0 10.5 6.5 L 10 6.5 z M 16.5 6.5 C 15.5681 6.5 14.995128 6.461985 14.351562 6.7285156 C 13.616917 7.0328536 13.032885 7.6168017 12.728516 8.3515625 C 12.462022 8.9951207 12.5 9.56812 12.5 10.5 C 12.5 11.4319 12.46207 12.004911 12.728516 12.648438 C 13.032885 13.383121 13.616878 13.967115 14.351562 14.271484 C 14.995088 14.537928 15.5681 14.5 16.5 14.5 L 17 14.5 A 1 1 0 0 0 18 13.5 A 1 1 0 0 0 17 12.5 L 16.5 12.5 C 15.5681 12.5 15.208861 12.461788 15.117188 12.423828 C 14.871871 12.322198 14.677802 12.128127 14.576172 11.882812 C 14.538215 11.791135 14.5 11.4319 14.5 10.5 C 14.5 9.56812 14.538272 9.2087293 14.576172 9.1171875 C 14.677802 8.8718483 14.871833 8.6778139 15.117188 8.5761719 C 15.208823 8.5382223 15.5681 8.5 16.5 8.5 L 17 8.5 A 1 1 0 0 0 18 7.5 A 1 1 0 0 0 17 6.5 L 16.5 6.5 z M 2 20 A 1 1 0 0 0 1 21 A 1 1 0 0 0 2 22 L 22 22 A 1 1 0 0 0 23 21 A 1 1 0 0 0 22 20 L 2 20 z " fill="currentColor"/>
</svg>
