<svg xmlns="http://www.w3.org/2000/svg" width="1em" height="1em" viewBox="0 0 24 24" fill="currentColor">
  <path d="M 14.5 1 A 1 1 0 0 0 13.5 2 A 1 1 0 0 0 14.5 3 C 15.6785 3 16.54187 3.0057302 17.109375 3.0820312 C 17.67688 3.1583292 17.884065 3.2629884 18.060547 3.4394531 C 18.236976 3.6158914 18.341673 3.8231202 18.417969 4.390625 C 18.451609 4.6408263 18.443188 5.1740253 18.455078 5.5410156 L 17.707031 4.7929688 A 1 1 0 0 0 16.292969 4.7929688 A 1 1 0 0 0 16.292969 6.2070312 L 18.792969 8.7070312 A 1.0001 1.0001 0 0 0 20.207031 8.7070312 L 22.707031 6.2070312 A 1 1 0 0 0 22.707031 4.7929688 A 1 1 0 0 0 21.292969 4.7929688 L 20.453125 5.6328125 C 20.442125 5.1318027 20.456421 4.5397603 20.400391 4.1230469 C 20.293632 3.3289817 20.030381 2.5811923 19.474609 2.0253906 C 18.918791 1.4696253 18.171023 1.2063685 17.376953 1.0996094 C 16.582883 0.99285024 15.6785 1 14.5 1 z M 7 3 C 5.82149 3 4.9171164 2.99285 4.1230469 3.0996094 C 3.3289773 3.2063688 2.5811884 3.4696004 2.0253906 4.0253906 C 1.4696004 4.5811884 1.2063688 5.3289773 1.0996094 6.1230469 C 0.99284995 6.9171164 1 7.82149 1 9 L 1 17 C 1 18.1785 0.99285037 19.082883 1.0996094 19.876953 C 1.2063685 20.671023 1.4696253 21.418791 2.0253906 21.974609 C 2.5811923 22.530381 3.3289817 22.793636 4.1230469 22.900391 C 4.9171124 23.007145 5.82149 23 7 23 C 8.17851 23 9.0828889 23.007101 9.8769531 22.900391 C 10.671017 22.793636 11.41879 22.530353 11.974609 21.974609 C 12.530356 21.418787 12.793636 20.671019 12.900391 19.876953 C 13.007145 19.082888 13 18.1785 13 17 L 13 9 C 13 7.82149 13.007145 6.917112 12.900391 6.1230469 C 12.793636 5.3289817 12.530381 4.5811923 11.974609 4.0253906 C 11.418794 3.4696285 10.671022 3.2063686 9.8769531 3.0996094 C 9.0828845 2.9928501 8.17851 3 7 3 z M 7 5 C 8.17851 5 9.0418736 5.0057302 9.609375 5.0820312 C 10.176876 5.1583293 10.384062 5.2629852 10.560547 5.4394531 C 10.736976 5.6158914 10.841673 5.8231202 10.917969 6.390625 C 10.994264 6.95813 11 7.82149 11 9 L 11 17 C 11 18.1785 10.994299 19.041866 10.917969 19.609375 C 10.841669 20.176884 10.737 20.384069 10.560547 20.560547 C 10.384066 20.737004 10.176881 20.841673 9.609375 20.917969 C 9.0418682 20.994264 8.17851 21 7 21 C 5.82149 21 4.9581298 20.994264 4.390625 20.917969 C 3.8231202 20.841673 3.6158914 20.736976 3.4394531 20.560547 C 3.2629884 20.384065 3.1583295 20.17688 3.0820312 19.609375 C 3.0057328 19.04187 3 18.1785 3 17 L 3 9 C 3 7.82149 3.0057331 6.9581254 3.0820312 6.390625 C 3.1583293 5.8231246 3.2630134 5.6158953 3.4394531 5.4394531 C 3.6158953 5.2630134 3.8231246 5.1583294 4.390625 5.0820312 C 4.9581254 5.0057331 5.82149 5 7 5 z M 15 11 A 1 1 0 0 0 14 12 A 1 1 0 0 0 15 13 C 16.1785 13 17.041866 13.005701 17.609375 13.082031 C 18.176884 13.158331 18.384069 13.263 18.560547 13.439453 C 18.737 13.615931 18.841673 13.823116 18.917969 14.390625 C 18.994265 14.958135 19 15.8215 19 17 C 19 18.1785 18.994299 19.041866 18.917969 19.609375 C 18.841669 20.176884 18.737 20.384069 18.560547 20.560547 C 18.384068 20.737 18.176884 20.841673 17.609375 20.917969 C 17.041866 20.994265 16.1785 21 15 21 A 1 1 0 0 0 14 22 A 1 1 0 0 0 15 23 C 16.1785 23 17.082887 23.007101 17.876953 22.900391 C 18.671019 22.793636 19.418787 22.530356 19.974609 21.974609 C 20.530356 21.418787 20.793636 20.671019 20.900391 19.876953 C 21.007145 19.082888 21 18.1785 21 17 C 21 15.8215 21.007101 14.917113 20.900391 14.123047 C 20.793636 13.328981 20.530356 12.581213 19.974609 12.025391 C 19.418787 11.469644 18.671019 11.206364 17.876953 11.099609 C 17.082888 10.992855 16.1785 11 15 11 z " fill="currentColor"/>
</svg>
