<svg xmlns="http://www.w3.org/2000/svg" width="1em" height="1em" viewBox="0 0 24 24" fill="currentColor">
  <path d="M 10 1 A 1 1 0 0 0 9.2929688 1.2929688 A 1 1 0 0 0 9.2929688 2.7070312 L 10.585938 4 L 9.2929688 5.2929688 A 1 1 0 0 0 9.2929688 6.7070312 A 1 1 0 0 0 10.707031 6.7070312 L 12 5.4140625 L 13.292969 6.7070312 A 1 1 0 0 0 14.707031 6.7070312 A 1 1 0 0 0 14.707031 5.2929688 L 13.414062 4 L 14.707031 2.7070312 A 1 1 0 0 0 14.707031 1.2929688 A 1 1 0 0 0 13.292969 1.2929688 L 12 2.5859375 L 10.707031 1.2929688 A 1 1 0 0 0 10 1 z M 6.9433594 4.0019531 A 1 1 0 0 0 6.5664062 4.0996094 L 4.9707031 4.8691406 C 4.1691293 5.2558801 3.5527483 5.5433912 3.0429688 5.8867188 C 2.788079 6.0583825 2.5497176 6.2464069 2.3476562 6.5175781 C 2.1455947 6.7887493 2 7.1717231 2 7.5429688 L 2 17.175781 C 2 17.755643 2.2354933 18.325695 2.5917969 18.759766 C 2.9481005 19.193837 3.4029356 19.529005 3.9453125 19.853516 C 5.0300663 20.502536 6.5035702 21.114142 8.4492188 21.933594 C 10.012501 22.592099 10.913569 23 12 23 C 13.086431 23 13.987472 22.592098 15.550781 21.933594 C 17.496436 21.114142 18.969942 20.502538 20.054688 19.853516 C 20.597061 19.529005 21.051904 19.193838 21.408203 18.759766 C 21.764502 18.325693 22 17.755638 22 17.175781 L 22 7.5429688 C 22 7.1717149 21.854407 6.7887474 21.652344 6.5175781 C 21.450281 6.2464088 21.21192 6.0583823 20.957031 5.8867188 C 20.447254 5.5433919 19.830844 5.2558742 19.029297 4.8691406 L 17.433594 4.0996094 A 1 1 0 0 0 16.099609 4.5664062 A 1 1 0 0 0 16.566406 5.9003906 L 18.160156 6.6699219 C 18.959128 7.0554129 19.541238 7.3464665 19.833984 7.5429688 C 19.541098 7.7394697 18.958747 8.0287504 18.160156 8.4140625 L 15.240234 9.8242188 C 13.437354 10.694109 12.670707 11.029297 12 11.029297 C 11.329293 11.029297 10.562624 10.694108 8.7597656 9.8242188 L 5.8398438 8.4140625 C 5.0412323 8.0287523 4.4588965 7.7394665 4.1660156 7.5429688 C 4.4587575 7.3464697 5.040849 7.055417 5.8398438 6.6699219 L 7.4335938 5.9003906 A 1 1 0 0 0 7.9003906 4.5664062 A 1 1 0 0 0 6.9433594 4.0019531 z M 4 9.703125 C 4.3196469 9.8673884 4.5671895 10.020158 4.9707031 10.214844 L 7.890625 11.625 C 9.2071037 12.260209 10.111852 12.626225 11 12.826172 L 11 20.671875 C 10.531113 20.543235 10.224579 20.511064 9.2246094 20.089844 C 7.2789679 19.270395 5.833545 18.653751 4.9726562 18.138672 C 4.5422119 17.881132 4.2687786 17.650691 4.1386719 17.492188 C 4.0085652 17.333685 4 17.28517 4 17.175781 L 4 9.703125 z M 20 9.703125 L 20 17.175781 C 20 17.285175 19.9914 17.333685 19.861328 17.492188 C 19.731224 17.65069 19.457783 17.881133 19.027344 18.138672 C 18.166465 18.65375 16.721036 19.270396 14.775391 20.089844 C 13.7754 20.511064 13.46889 20.543234 13 20.671875 L 13 12.826172 C 13.888148 12.626225 14.792883 12.260208 16.109375 11.625 L 19.029297 10.214844 C 19.432796 10.020159 19.680359 9.8673875 20 9.703125 z M 5.9375 12.029297 A 1 1 0 0 0 5.1054688 12.580078 A 1 1 0 0 0 5.5546875 13.921875 L 7.5546875 14.917969 A 1 1 0 0 0 8.8945312 14.46875 A 1 1 0 0 0 8.4453125 13.128906 L 6.4453125 12.130859 A 1 1 0 0 0 5.9375 12.029297 z " fill="currentColor"/>
</svg>
