<svg xmlns="http://www.w3.org/2000/svg" width="1em" height="1em" viewBox="0 0 24 24" fill="currentColor">
  <path d="M 12 1 C 10.730407 1 9.6935115 1.53579 7.890625 2.4082031 L 4.96875 3.8222656 C 4.1671754 4.2101404 3.5508141 4.4994016 3.0410156 4.84375 C 2.5312171 5.1880984 2 5.7578851 2 6.5 C 2 6.5953097 2.0090373 6.6878314 2.0253906 6.7773438 A 1 1 0 0 0 2 7 L 2 17.162109 C 2 17.74229 2.2357568 18.313032 2.5917969 18.748047 C 2.947837 19.183062 3.4029051 19.52022 3.9453125 19.845703 C 5.0301273 20.49667 6.5016205 21.109741 8.4472656 21.931641 C 10.010514 22.591932 10.912754 23 12 23 A 1.0001 1.0001 0 0 0 13 22 L 13 11.886719 C 13.887301 11.685775 14.794669 11.227981 16.109375 10.591797 L 19.03125 9.1777344 C 19.388658 9.0047823 19.709254 8.8504912 20 8.703125 L 20 12 A 1 1 0 0 0 21 13 A 1 1 0 0 0 22 12 L 22 7 A 1 1 0 0 0 21.974609 6.7773438 C 21.990962 6.6878311 22 6.5953108 22 6.5 C 22 5.7578688 21.46878 5.1880952 20.958984 4.84375 C 20.449189 4.4994048 19.832796 4.2101385 19.03125 3.8222656 L 16.109375 2.4082031 C 14.306466 1.5357787 13.269587 1 12 1 z M 12 3 C 12.610585 3 13.300249 3.2799268 14.783203 3.9902344 L 6.9433594 7.9101562 L 5.8398438 7.3769531 C 5.0382684 6.9890779 4.4519302 6.6970816 4.1601562 6.5 C 4.4519302 6.3029184 5.0382685 6.0109221 5.8398438 5.6230469 L 8.7617188 4.2089844 C 10.564592 3.3365775 11.330193 3 12 3 z M 17.056641 5.0898438 L 18.160156 5.6230469 C 18.961711 6.010924 19.548064 6.3029152 19.839844 6.5 C 19.548064 6.6970848 18.961711 6.989076 18.160156 7.3769531 L 15.238281 8.7910156 C 13.43539 9.6634312 12.669813 10 12 10 C 11.389416 10 10.699735 9.7200718 9.2167969 9.0097656 L 17.056641 5.0898438 z M 4 8.703125 C 4.2907408 8.8504889 4.6113333 9.0047836 4.96875 9.1777344 L 7.890625 10.591797 C 9.2053192 11.227982 10.112694 11.685776 11 11.886719 L 11 20.671875 C 10.531394 20.542876 10.226314 20.510169 9.2265625 20.087891 C 7.2809176 19.265991 5.835437 18.647418 4.9746094 18.130859 C 4.5441955 17.87258 4.2690421 17.639757 4.1386719 17.480469 C 4.0083016 17.321181 4 17.273179 4 17.162109 L 4 8.703125 z M 5.9394531 11.001953 A 1 1 0 0 0 5.6835938 11.050781 A 1 1 0 0 0 5.1054688 11.552734 A 1 1 0 0 0 5.5527344 12.894531 L 7.5527344 13.894531 A 1 1 0 0 0 8.8945312 13.447266 A 1 1 0 0 0 8.4472656 12.105469 L 6.4472656 11.105469 A 1 1 0 0 0 5.9394531 11.001953 z M 22.007812 14 A 1 1 0 0 0 21.625 14.072266 C 19.973296 14.740809 18.684877 16.354567 17.640625 17.785156 C 17.086034 18.544927 17.015679 18.723939 16.703125 19.234375 C 16.517478 19.015205 16.33359 18.59317 16.152344 18.455078 C 15.90307 18.265155 15.663496 18.14622 15.460938 18.080078 C 15.258378 18.013937 15 18 15 18 A 1 1 0 0 0 14 19 A 1 1 0 0 0 14.857422 19.990234 C 14.874325 19.998765 14.901812 20.014744 14.941406 20.044922 C 15.099109 20.165076 15.445546 20.512532 15.833984 21.400391 A 1.0001 1.0001 0 0 0 17.625 21.486328 C 17.625 21.486328 18.292762 20.284254 19.255859 18.964844 C 20.218957 17.645433 21.556104 16.259191 22.375 15.927734 A 1 1 0 0 0 22.927734 14.625 A 1 1 0 0 0 22.007812 14 z " fill="currentColor"/>
</svg>
