<svg xmlns="http://www.w3.org/2000/svg" width="1em" height="1em" viewBox="0 0 24 24" fill="currentColor">
  <path d="M 11 1 C 9.7304066 1 8.6935356 1.5357928 6.890625 2.4082031 L 3.96875 3.8222656 C 3.1671754 4.2101404 2.5508141 4.4994016 2.0410156 4.84375 C 1.5312171 5.1880984 1 5.7578851 1 6.5 C 1 6.5953097 1.0090373 6.6878314 1.0253906 6.7773438 A 1 1 0 0 0 1 7 L 1 17.162109 C 1 17.74229 1.2357568 18.313032 1.5917969 18.748047 C 1.947837 19.183062 2.4029051 19.52022 2.9453125 19.845703 C 4.0301273 20.49667 5.5016205 21.109741 7.4472656 21.931641 C 9.0105061 22.591932 9.9127541 23 11 23 C 11.8195 23 12.496663 22.739407 13.392578 22.357422 A 1 1 0 0 0 13.919922 21.044922 A 1 1 0 0 0 12.607422 20.517578 C 12.280994 20.656755 12.207271 20.625041 12 20.699219 L 12 11.886719 C 12.887301 11.685775 13.794669 11.227981 15.109375 10.591797 L 18.03125 9.1777344 C 18.388658 9.0047823 18.709254 8.8504912 19 8.703125 L 19 12 A 1 1 0 0 0 20 13 A 1 1 0 0 0 21 12 L 21 7 A 1 1 0 0 0 20.974609 6.7773438 C 20.990962 6.6878311 21 6.5953108 21 6.5 C 21 5.7578688 20.46878 5.1880952 19.958984 4.84375 C 19.449189 4.4994048 18.832796 4.2101385 18.03125 3.8222656 L 15.109375 2.4082031 C 13.306466 1.5357787 12.269587 1 11 1 z M 11 3 C 11.610585 3 12.30025 3.279927 13.783203 3.9902344 L 5.9433594 7.9101562 L 4.8398438 7.3769531 C 4.0382684 6.9890779 3.4519302 6.6970816 3.1601562 6.5 C 3.4519301 6.3029184 4.0382684 6.0109221 4.8398438 5.6230469 L 7.7617188 4.2089844 C 9.5646282 3.3365747 10.330193 3 11 3 z M 16.056641 5.0898438 L 17.160156 5.6230469 C 17.961711 6.010924 18.548064 6.3029152 18.839844 6.5 C 18.548064 6.6970848 17.961711 6.989076 17.160156 7.3769531 L 14.238281 8.7910156 C 12.43539 9.6634312 11.669813 10 11 10 C 10.389415 10 9.6997608 9.7200753 8.2167969 9.0097656 L 16.056641 5.0898438 z M 3 8.703125 C 3.2907408 8.8504889 3.6113333 9.0047836 3.96875 9.1777344 L 6.890625 10.591797 C 8.2053349 11.227979 9.1127006 11.685775 10 11.886719 L 10 20.671875 C 9.5313917 20.542876 9.2263058 20.510169 8.2265625 20.087891 C 6.2809176 19.265991 4.835437 18.647418 3.9746094 18.130859 C 3.5441955 17.87258 3.2690421 17.639757 3.1386719 17.480469 C 3.0083016 17.321181 3 17.273179 3 17.162109 L 3 8.703125 z M 4.9394531 11.001953 A 1 1 0 0 0 4.6835938 11.050781 A 1 1 0 0 0 4.1054688 11.552734 A 1 1 0 0 0 4.5527344 12.894531 L 6.5527344 13.894531 A 1 1 0 0 0 7.8945312 13.447266 A 1 1 0 0 0 7.4472656 12.105469 L 5.4472656 11.105469 A 1 1 0 0 0 4.9394531 11.001953 z M 16 14 A 1 1 0 0 0 15.292969 14.292969 A 1 1 0 0 0 15.292969 15.707031 L 17.585938 18 L 15.292969 20.292969 A 1 1 0 0 0 15.292969 21.707031 A 1 1 0 0 0 16.707031 21.707031 L 19 19.414062 L 21.292969 21.707031 A 1 1 0 0 0 22.707031 21.707031 A 1 1 0 0 0 22.707031 20.292969 L 20.414062 18 L 22.707031 15.707031 A 1 1 0 0 0 22.707031 14.292969 A 1 1 0 0 0 21.292969 14.292969 L 19 16.585938 L 16.707031 14.292969 A 1 1 0 0 0 16 14 z " fill="currentColor"/>
</svg>
