<svg xmlns="http://www.w3.org/2000/svg" width="1em" height="1em" viewBox="0 0 24 24" fill="currentColor">
  <path d="M 7 1 A 1 1 0 0 0 6 2 L 6 3 L 6 4 A 1 1 0 0 0 7 5 A 1 1 0 0 0 8 4 L 20 4 A 1 1 0 0 0 21 5 A 1 1 0 0 0 22 4 L 22 3 L 22 2 A 1 1 0 0 0 21 1 A 1 1 0 0 0 20 2 L 8 2 A 1 1 0 0 0 7 1 z M 14 5 C 13.549654 5 13.241348 5.1443398 12.855469 5.2949219 L 8.1875 7.1152344 C 7.6702826 7.3170734 7.270805 7.465122 6.9003906 7.671875 C 6.7151834 7.7752515 6.5277381 7.8926766 6.34375 8.1035156 C 6.1863779 8.2838544 6.0488289 8.5659005 6.0117188 8.8535156 A 1 1 0 0 0 6.0078125 8.8691406 C 6.0028004 8.9124779 6 8.9568515 6 9 L 6 19 C 6 19.334989 6.1597698 19.685655 6.34375 19.896484 C 6.5277302 20.107314 6.7151788 20.224744 6.9003906 20.328125 C 7.2708144 20.534887 7.6702539 20.682955 8.1875 20.884766 L 12.855469 22.705078 C 13.241341 22.855667 13.549621 23 14 23 C 14.450379 23 14.758677 22.855699 15.144531 22.705078 L 19.8125 20.884766 C 20.329781 20.682953 20.729177 20.534889 21.099609 20.328125 C 21.284825 20.224743 21.472269 20.107317 21.65625 19.896484 C 21.840231 19.685652 22 19.334979 22 19 L 22 9 C 22 8.6650396 21.840239 8.3143583 21.65625 8.1035156 C 21.472261 7.892673 21.284821 7.7752528 21.099609 7.671875 C 20.729187 7.4651194 20.329752 7.3170753 19.8125 7.1152344 L 15.144531 5.2949219 C 14.75867 5.1443079 14.450346 5 14 5 z M 3 6 A 1 1 0 0 0 2 7 A 1 1 0 0 0 3 8 L 3 20 A 1 1 0 0 0 2 21 A 1 1 0 0 0 3 22 L 4 22 L 5 22 A 1 1 0 0 0 6 21 A 1 1 0 0 0 5 20 L 5 8 A 1 1 0 0 0 6 7 A 1 1 0 0 0 5 6 L 4 6 L 3 6 z M 14 7.0058594 C 14.035086 7.0184813 14.154728 7.0554539 14.417969 7.1582031 L 15.119141 7.4316406 L 10.220703 9.53125 L 8.9160156 9.0214844 C 8.8907768 9.0116352 8.8897899 9.0096249 8.8652344 9 C 8.8897894 8.99038 8.8907766 8.9883646 8.9160156 8.9785156 L 13.582031 7.1582031 C 13.845347 7.0554496 13.96493 7.01848 14 7.0058594 z M 17.779297 8.46875 L 19.083984 8.9785156 C 19.109224 8.9883656 19.110216 8.990376 19.134766 9 C 19.110206 9.00962 19.109224 9.0116354 19.083984 9.0214844 L 14.417969 10.841797 C 14.154769 10.944539 14.035108 10.981516 14 10.994141 C 13.964916 10.981517 13.845321 10.944542 13.582031 10.841797 L 12.880859 10.568359 L 17.779297 8.46875 z M 8 10.8125 C 8.0607959 10.836132 8.1232392 10.859688 8.1875 10.884766 L 9.5 11.396484 L 9.5 13 A 1 1 0 0 0 10.5 14 A 1 1 0 0 0 11.5 13 L 11.5 12.175781 L 12.855469 12.705078 C 12.904759 12.724314 12.952784 12.742975 13 12.761719 L 13 20.615234 L 8.9160156 19.021484 C 8.4609179 18.843922 8.1764555 18.722041 8 18.634766 L 8 10.8125 z M 20 10.8125 L 20 18.634766 C 19.823545 18.722036 19.539104 18.843924 19.083984 19.021484 L 15 20.615234 L 15 12.761719 C 15.047217 12.742972 15.095241 12.724319 15.144531 12.705078 L 19.8125 10.884766 C 19.876762 10.85969 19.939205 10.836131 20 10.8125 z " fill="currentColor"/>
</svg>
