<svg xmlns="http://www.w3.org/2000/svg" width="1em" height="1em" viewBox="0 0 24 24" fill="currentColor">
  <path d="M 12 1 C 7.0412804 1 3 5.0412804 3 10 L 3 20.400391 C 3 21.8245 4.1755454 23 5.5996094 23 C 7.0236733 23 8.1992187 21.8245 8.1992188 20.400391 L 8.1992188 19.599609 C 8.1992188 19.256319 8.4575251 19 8.8007812 19 C 9.1440373 19 9.4003906 19.256319 9.4003906 19.599609 L 9.4003906 20.400391 C 9.4003906 21.82447 10.575921 23 12 23 C 13.424079 23 14.599609 21.82447 14.599609 20.400391 L 14.599609 19.599609 C 14.599609 19.256289 14.855898 19 15.199219 19 C 15.542539 19 15.800781 19.256289 15.800781 19.599609 L 15.800781 20.400391 C 15.800781 21.82447 16.976311 23 18.400391 23 C 19.82447 23 21 21.82447 21 20.400391 L 21 10 C 21 5.0412835 16.958737 1 12 1 z M 12 3 C 15.877863 3 19 6.1221565 19 10 L 19 20.400391 C 19 20.743711 18.743711 21 18.400391 21 C 18.05707 21 17.800781 20.743711 17.800781 20.400391 L 17.800781 19.599609 C 17.800781 18.17553 16.623298 17 15.199219 17 C 13.775139 17 12.599609 18.17553 12.599609 19.599609 L 12.599609 20.400391 C 12.599609 20.743711 12.343321 21 12 21 C 11.656679 21 11.400391 20.743711 11.400391 20.400391 L 11.400391 19.599609 C 11.400391 18.1755 10.224845 17 8.8007812 17 C 7.3767172 17 6.1992188 18.1755 6.1992188 19.599609 L 6.1992188 20.400391 C 6.1992188 20.743681 5.9428654 21 5.5996094 21 C 5.2563533 21 5 20.743681 5 20.400391 L 5 10 C 5 6.1221596 8.1221596 3 12 3 z M 9 9 A 1 1 0 0 0 8 10 A 1 1 0 0 0 9 11 L 9.0097656 11 A 1 1 0 0 0 10.009766 10 A 1 1 0 0 0 9.0097656 9 L 9 9 z M 14.990234 9 A 1 1 0 0 0 13.990234 10 A 1 1 0 0 0 14.990234 11 L 15 11 A 1 1 0 0 0 16 10 A 1 1 0 0 0 15 9 L 14.990234 9 z " fill="currentColor"/>
</svg>
