<svg xmlns="http://www.w3.org/2000/svg" width="1em" height="1em" viewBox="0 0 24 24" fill="currentColor">
  <path d="M 7 1 C 6.25579 1 5.8143333 0.97753291 5.2988281 1.1289062 C 4.2551622 1.435355 3.4353549 2.2551622 3.1289062 3.2988281 C 2.9775328 3.8143333 3 4.25579 3 5 C 3 5.74421 2.9775328 6.1856667 3.1289062 6.7011719 C 3.4353548 7.7448378 4.2551622 8.564645 5.2988281 8.8710938 C 5.8143333 9.022467 6.25579 9 7 9 L 14 9 C 14.7442 9 15.185667 9.0224669 15.701172 8.8710938 C 16.744867 8.5646536 17.564675 7.7448845 17.871094 6.7011719 C 17.939338 6.4687143 17.972717 6.2505878 17.988281 6.0136719 C 18.294884 6.0280868 18.426715 6.0507618 18.457031 6.0644531 C 18.754032 6.1985756 18.806401 6.2966997 18.894531 6.6113281 C 18.982661 6.9259566 19 7.4339746 19 8.0039062 C 19 8.9603361 18.977189 9.3519762 18.917969 9.5351562 C 18.816676 9.8485191 18.523536 10.16207 17.958984 10.472656 C 17.394433 10.783242 16.612165 11.048094 15.810547 11.275391 C 15.219047 11.443091 14.748965 11.569434 14.302734 11.763672 C 13.856504 11.957909 13.420791 12.257354 13.107422 12.671875 C 12.791654 13.089594 12.623302 13.596422 12.558594 14.083984 C 12.517184 14.395993 12.505518 14.711274 12.501953 15.0625 C 12.416566 15.084537 12.327562 15.113762 12.234375 15.152344 C 11.74469 15.355213 11.355213 15.74469 11.152344 16.234375 C 10.961976 16.69416 11 17.0341 11 17.5 L 11 20.5 C 11 20.9659 10.96198 21.30584 11.152344 21.765625 C 11.355213 22.25531 11.74469 22.644787 12.234375 22.847656 C 12.69416 23.038024 13.0341 23 13.5 23 C 13.9659 23 14.30584 23.03802 14.765625 22.847656 C 15.25531 22.644787 15.644787 22.25531 15.847656 21.765625 C 16.038024 21.30584 16 20.9659 16 20.5 L 16 17.5 C 16 17.0341 16.03802 16.69416 15.847656 16.234375 C 15.644787 15.74469 15.25531 15.355213 14.765625 15.152344 C 14.674111 15.114454 14.587863 15.086348 14.503906 15.064453 C 14.508462 14.756426 14.518275 14.517033 14.541016 14.345703 C 14.577436 14.071315 14.614396 13.996287 14.703125 13.878906 C 14.794355 13.758227 14.855143 13.704919 15.101562 13.597656 C 15.347981 13.490394 15.763969 13.366919 16.355469 13.199219 C 17.208951 12.957216 18.111651 12.672303 18.921875 12.226562 C 19.732099 11.780821 20.504759 11.132638 20.822266 10.150391 C 21.023838 9.5269103 21 8.9603362 21 8.0039062 C 21 7.4323977 21.015957 6.7707272 20.820312 6.0722656 C 20.624668 5.373804 20.111996 4.6162719 19.279297 4.2402344 C 18.853953 4.0481417 18.463045 4.0052112 17.988281 3.9980469 C 17.973083 3.7559103 17.940622 3.5356618 17.871094 3.2988281 C 17.564675 2.2551155 16.744867 1.4353464 15.701172 1.1289062 C 15.185667 0.97753291 14.7442 1 14 1 L 7 1 z M 7 3 L 14 3 C 14.7442 3 15.047177 3.0219621 15.138672 3.0488281 C 15.531777 3.164248 15.835791 3.4683207 15.951172 3.8613281 C 15.978043 3.9528593 16 4.25579 16 5 C 16 5.74421 15.978042 6.0471408 15.951172 6.1386719 C 15.835791 6.5316793 15.531777 6.835752 15.138672 6.9511719 C 15.047179 6.9780385 14.7442 7 14 7 L 7 7 C 6.25579 7 5.9528229 6.9780385 5.8613281 6.9511719 C 5.4682741 6.8357605 5.1642395 6.5317259 5.0488281 6.1386719 C 5.0219615 6.0471771 5 5.74421 5 5 C 5 4.25579 5.0219615 3.9528229 5.0488281 3.8613281 C 5.1642395 3.4682741 5.4682741 3.1642395 5.8613281 3.0488281 C 5.9528229 3.0219615 6.25579 3 7 3 z M 13.5 17 C 13.760574 17 13.915075 17.011779 13.984375 17.015625 C 13.988221 17.084927 14 17.239429 14 17.5 L 14 20.5 C 14 20.760574 13.988221 20.915075 13.984375 20.984375 C 13.915073 20.988221 13.760571 21 13.5 21 C 13.239426 21 13.084925 20.988221 13.015625 20.984375 C 13.011779 20.915073 13 20.760571 13 20.5 L 13 17.5 C 13 17.239426 13.011779 17.084925 13.015625 17.015625 C 13.084927 17.011779 13.239432 17 13.5 17 z " fill="currentColor"/>
</svg>
