<svg xmlns="http://www.w3.org/2000/svg" width="1em" height="1em" viewBox="0 0 24 24" fill="currentColor">
  <path d="M 12 1 C 5.9367104 1 1 5.9367104 1 12 C 1 18.063244 5.9367044 23 12 23 C 12.374792 23 12.936309 23.06263 13.585938 22.880859 C 13.910751 22.789979 14.286972 22.612241 14.574219 22.267578 C 14.861465 21.922916 15 21.452012 15 21 C 15 20.044202 14.511768 19.363139 14.197266 18.896484 A 1.0001 1.0001 0 0 0 14.197266 18.894531 C 13.967062 18.553077 13.819862 18.30323 13.773438 18.126953 C 13.727007 17.950676 13.707138 17.822016 13.894531 17.447266 C 14.128496 16.979371 14.266912 16.898628 14.630859 16.792969 C 14.994807 16.687309 15.630572 16.666016 16.482422 16.666016 C 17.334322 16.666016 18.394805 16.668216 19.640625 16.490234 C 20.881141 16.313043 21.868126 15.737915 22.392578 14.871094 C 22.917031 14.00432 23 13.023892 23 12 C 23 5.9367044 18.063244 1 12 1 z M 12 3 C 16.982356 3 21 7.0175956 21 12 C 21 12.884508 20.881938 13.504883 20.681641 13.835938 C 20.481343 14.166991 20.219859 14.386857 19.359375 14.509766 C 18.271995 14.665146 17.334322 14.666016 16.482422 14.666016 C 15.630572 14.666016 14.856468 14.645376 14.072266 14.873047 C 13.288063 15.100713 12.538204 15.687329 12.105469 16.552734 C 11.745161 17.273284 11.680145 18.030346 11.839844 18.636719 C 11.999543 19.243092 12.308866 19.672227 12.539062 20.013672 C 12.840117 20.460375 12.968322 20.706195 12.980469 20.957031 C 12.814864 20.989787 12.437307 21 12 21 C 7.0175956 21 3 16.982356 3 12 C 3 7.0175896 7.0175896 3 12 3 z M 9.5 6 C 8.1311328 6 7 7.1311328 7 8.5 C 7 9.8688672 8.1311328 11 9.5 11 C 10.868867 11 12 9.8688672 12 8.5 C 12 7.1311328 10.868867 6 9.5 6 z M 16.5 7 C 15.131133 7 14 8.1311328 14 9.5 C 14 10.868867 15.131133 12 16.5 12 C 17.868867 12 19 10.868867 19 9.5 C 19 8.1311328 17.868867 7 16.5 7 z M 9.5 8 C 9.787987 8 10 8.212013 10 8.5 C 10 8.787987 9.787987 9 9.5 9 C 9.212013 9 9 8.787987 9 8.5 C 9 8.212013 9.212013 8 9.5 8 z M 16.5 9 C 16.787987 9 17 9.212013 17 9.5 C 17 9.787987 16.787987 10 16.5 10 C 16.212013 10 16 9.787987 16 9.5 C 16 9.212013 16.212013 9 16.5 9 z M 7 13.75 C 6.3216244 13.75 5.75 14.321567 5.75 15 C 5.75 15.678433 6.3216244 16.25 7 16.25 C 7.6783756 16.25 8.25 15.678433 8.25 15 C 8.25 14.321567 7.6783756 13.75 7 13.75 z " fill="currentColor"/>
</svg>
