<svg xmlns="http://www.w3.org/2000/svg" width="1em" height="1em" viewBox="0 0 24 24" fill="currentColor">
  <path d="M 12 2 C 9.87868 2 8.2683853 1.9938448 6.9296875 2.1738281 C 5.5909897 2.3538114 4.4600166 2.7626397 3.6113281 3.6113281 C 2.7626397 4.4600166 2.3538114 5.5909897 2.1738281 6.9296875 C 1.9938448 8.2683853 2 9.87868 2 12 C 2 14.1213 1.99385 15.731605 2.1738281 17.070312 C 2.3538111 18.409022 2.7626282 19.539985 3.6113281 20.388672 C 4.460018 21.237349 5.5909914 21.646192 6.9296875 21.826172 C 8.2683836 22.006152 9.87868 22 12 22 C 14.1213 22 15.731605 22.0062 17.070312 21.826172 C 18.409021 21.646192 19.539983 21.23736 20.388672 20.388672 C 21.23736 19.539983 21.646192 18.40902 21.826172 17.070312 C 22.006152 15.731605 22 14.1213 22 12 C 22 9.87868 22.006152 8.2683836 21.826172 6.9296875 C 21.646192 5.5909914 21.237349 4.460018 20.388672 3.6113281 C 19.539985 2.7626282 18.409021 2.3538111 17.070312 2.1738281 C 15.731604 1.9938452 14.1213 2 12 2 z M 12 4 C 14.1213 4 15.692546 4.00673 16.804688 4.15625 C 17.916829 4.305772 18.505296 4.5560705 18.974609 5.0253906 C 19.443932 5.4947208 19.69423 6.0831836 19.84375 7.1953125 C 19.99327 8.3074414 20 9.87868 20 12 C 20 13.159348 19.998884 14.154399 19.972656 15 L 4.0273438 15 C 4.0011127 14.154399 4 13.159348 4 12 C 4 9.87868 4.0067283 8.3074397 4.15625 7.1953125 C 4.3057717 6.0831853 4.5560591 5.4947222 5.0253906 5.0253906 C 5.4947222 4.5560591 6.0831853 4.3057717 7.1953125 4.15625 C 8.3074397 4.0067283 9.87868 4 12 4 z M 9.0195312 7.5 A 1 1 0 0 0 8.40625 7.6953125 A 1 1 0 0 0 8.1953125 9.09375 C 8.1953125 9.09375 8.765198 9.8684347 9.4492188 10.65625 C 9.7912291 11.050158 10.159136 11.449003 10.535156 11.78125 C 10.911176 12.113497 11.169864 12.5 12 12.5 C 12.830085 12.5 13.088812 12.113504 13.464844 11.78125 C 13.840875 11.448996 14.208775 11.050163 14.550781 10.65625 C 15.234794 9.8684239 15.804687 9.09375 15.804688 9.09375 A 1 1 0 0 0 15.59375 7.6953125 A 1 1 0 0 0 14.849609 7.5117188 A 1 1 0 0 0 14.195312 7.90625 C 14.195312 7.90625 13.659353 8.6315661 13.041016 9.34375 C 12.731847 9.6998419 12.401212 10.051 12.140625 10.28125 C 12.08556 10.329904 12.05229 10.33387 12 10.363281 C 11.947707 10.33387 11.91444 10.329905 11.859375 10.28125 C 11.598786 10.050997 11.268162 9.6998423 10.958984 9.34375 C 10.34063 8.6315653 9.8046875 7.90625 9.8046875 7.90625 A 1 1 0 0 0 9.0195312 7.5 z M 4.1835938 17 L 19.816406 17 C 19.664079 17.987274 19.415659 18.533561 18.974609 18.974609 C 18.505298 19.443921 17.91683 19.69423 16.804688 19.84375 C 15.692545 19.99327 14.1213 20 12 20 C 9.87868 20 8.3074414 19.99327 7.1953125 19.84375 C 6.0831836 19.69423 5.4947208 19.443932 5.0253906 18.974609 C 4.5843333 18.533559 4.3359212 17.987273 4.1835938 17 z " fill="currentColor"/>
</svg>
