<svg xmlns="http://www.w3.org/2000/svg" width="1em" height="1em" viewBox="0 0 24 24" fill="currentColor">
  <path d="M 3 2 A 1 1 0 0 0 2 3 C 2 7.3042816 3.0351614 11.214206 4.7792969 14.121094 C 6.5234323 17.027982 9.0643549 19 12 19 C 14.935661 19 17.476572 17.027983 19.220703 14.121094 C 20.964834 11.214205 22 7.30428 22 3 A 1 1 0 0 0 21 2 A 1 1 0 0 0 20 3 C 20 6.98002 19.019079 10.569761 17.505859 13.091797 C 15.99264 15.613833 14.034939 17 12 17 C 9.9650851 17 8.0073652 15.613834 6.4941406 13.091797 C 4.9809161 10.56976 4 6.9800184 4 3 A 1 1 0 0 0 3 2 z M 3 20 A 1 1 0 0 0 2 21 A 1 1 0 0 0 3 22 L 4.0585938 22 A 1 1 0 0 0 5.0585938 21 A 1 1 0 0 0 4.0585938 20 L 3 20 z M 7.234375 20 A 1 1 0 0 0 6.234375 21 A 1 1 0 0 0 7.234375 22 L 8.2949219 22 A 1 1 0 0 0 9.2949219 21 A 1 1 0 0 0 8.2949219 20 L 7.234375 20 z M 11.470703 20 A 1 1 0 0 0 10.470703 21 A 1 1 0 0 0 11.470703 22 L 12.529297 22 A 1 1 0 0 0 13.529297 21 A 1 1 0 0 0 12.529297 20 L 11.470703 20 z M 15.705078 20 A 1 1 0 0 0 14.705078 21 A 1 1 0 0 0 15.705078 22 L 16.765625 22 A 1 1 0 0 0 17.765625 21 A 1 1 0 0 0 16.765625 20 L 15.705078 20 z M 19.941406 20 A 1 1 0 0 0 18.941406 21 A 1 1 0 0 0 19.941406 22 L 21 22 A 1 1 0 0 0 22 21 A 1 1 0 0 0 21 20 L 19.941406 20 z " fill="currentColor"/>
</svg>
