<svg xmlns="http://www.w3.org/2000/svg" width="1em" height="1em" viewBox="0 0 24 24" fill="currentColor">
  <path d="M 6.5 2 C 4.0265633 2 2 4.0265633 2 6.5 C 2 8.9734367 4.0265633 11 6.5 11 C 8.9734367 11 11 8.9734367 11 6.5 C 11 4.0265633 8.9734367 2 6.5 2 z M 15 3 A 1 1 0 0 0 14 4 A 1 1 0 0 0 15 5 L 21 5 A 1 1 0 0 0 22 4 A 1 1 0 0 0 21 3 L 15 3 z M 6.5 4 C 7.8925565 4 9 5.1074435 9 6.5 C 9 7.8925565 7.8925565 9 6.5 9 C 5.1074435 9 4 7.8925565 4 6.5 C 4 5.1074435 5.1074435 4 6.5 4 z M 15 8 A 1 1 0 0 0 14 9 A 1 1 0 0 0 15 10 L 21 10 A 1 1 0 0 0 22 9 A 1 1 0 0 0 21 8 L 15 8 z M 6.5 13 C 4.0265633 13 2 15.026563 2 17.5 C 2 19.973437 4.0265633 22 6.5 22 C 8.9734367 22 11 19.973437 11 17.5 C 11 15.026563 8.9734367 13 6.5 13 z M 15 14 A 1 1 0 0 0 14 15 A 1 1 0 0 0 15 16 L 21 16 A 1 1 0 0 0 22 15 A 1 1 0 0 0 21 14 L 15 14 z M 6.5 15 C 7.8925565 15 9 16.107443 9 17.5 C 9 18.892557 7.8925565 20 6.5 20 C 5.1074435 20 4 18.892557 4 17.5 C 4 16.107443 5.1074435 15 6.5 15 z M 15 19 A 1 1 0 0 0 14 20 A 1 1 0 0 0 15 21 L 21 21 A 1 1 0 0 0 22 20 A 1 1 0 0 0 21 19 L 15 19 z " fill="currentColor"/>
</svg>
