<svg xmlns="http://www.w3.org/2000/svg" width="1em" height="1em" viewBox="0 0 24 24" fill="currentColor">
  <path d="M 12 1 C 5.9367124 1 1 5.9367124 1 12 C 1 18.063288 5.9367124 23 12 23 C 18.063288 23 23 18.063288 23 12 C 23 5.9367124 18.063288 1 12 1 z M 12 3 C 16.982407 3 21 7.0175926 21 12 C 21 16.982407 16.982407 21 12 21 C 7.0175926 21 3 16.982407 3 12 C 3 7.0175926 7.0175926 3 12 3 z M 10.400391 6 C 10.028091 6 9.7636103 5.9739426 9.3828125 6.0976562 C 8.7748438 6.2952066 8.2952065 6.7748438 8.0976562 7.3828125 C 7.9739263 7.7636598 8 8.0281306 8 8.4003906 L 8 13 L 8 18 A 1 1 0 0 0 9 19 A 1 1 0 0 0 10 18 L 10 14 L 13 14 C 15.197307 14 17 12.197307 17 10 C 17 7.8027269 15.197327 6 13 6 L 10.400391 6 z M 10.400391 8 L 13 8 C 14.116473 8 15 8.8835731 15 10 C 15 11.116493 14.116493 12 13 12 L 10 12 L 10 8.4003906 C 10 8.1923675 10.007154 8.0660474 10.009766 8.0097656 C 10.066035 8.0071554 10.192344 8 10.400391 8 z " fill="currentColor"/>
</svg>
