<svg xmlns="http://www.w3.org/2000/svg" width="1em" height="1em" viewBox="0 0 24 24" fill="currentColor">
  <path d="M 8.5019531 1 C 7.0930981 1 6.0188951 0.99482451 5.0976562 1.1015625 C 4.1764174 1.2083005 3.3611166 1.4514564 2.6953125 1.9824219 C 2.4317736 2.1925819 2.1925819 2.4317736 1.9824219 2.6953125 C 1.4514564 3.3611166 1.2083005 4.1764174 1.1015625 5.0976562 C 0.99482451 6.0188951 1 7.0930981 1 8.5019531 C 1 9.9108181 0.994824 10.986968 1.1015625 11.908203 C 1.2083005 12.829438 1.4514827 13.644727 1.9824219 14.310547 C 2.1926681 14.574207 2.4319527 14.813381 2.6953125 15.023438 C 3.7661258 15.877368 5.1001834 15.97591 6.9902344 16 A 1 1 0 0 0 8.0019531 15.013672 A 1 1 0 0 0 7.015625 14 C 5.202436 13.97689 4.411233 13.835605 3.9414062 13.460938 C 3.794786 13.343992 3.6616157 13.210793 3.5449219 13.064453 C 3.311931 12.772273 3.1721351 12.404832 3.0878906 11.677734 C 3.0036462 10.950637 3 9.9108181 3 8.5019531 C 3 7.0930981 3.0036461 6.0552262 3.0878906 5.328125 C 3.1721351 4.6010238 3.3119574 4.233532 3.5449219 3.9414062 C 3.6617018 3.7949651 3.7949651 3.6617018 3.9414062 3.5449219 C 4.233532 3.3119574 4.6010238 3.1721351 5.328125 3.0878906 C 6.0552262 3.0036461 7.0930981 3 8.5019531 3 C 9.9108181 3 10.950637 3.0036496 11.677734 3.0878906 C 12.404832 3.1721356 12.772273 3.311931 13.064453 3.5449219 C 13.210793 3.6616157 13.343993 3.7947861 13.460938 3.9414062 C 13.835606 4.4112326 13.97689 5.202436 14 7.015625 A 1 1 0 0 0 15.013672 8.0019531 A 1 1 0 0 0 16 6.9902344 C 15.97591 5.1001834 15.877368 3.7661258 15.023438 2.6953125 C 14.813382 2.4319527 14.574207 2.1926681 14.310547 1.9824219 C 13.644727 1.4514827 12.829438 1.2083005 11.908203 1.1015625 C 10.986968 0.99482447 9.9108181 1 8.5019531 1 z M 17.007812 8 A 1 1 0 0 0 15.996094 8.9863281 A 1 1 0 0 0 16.982422 10 C 18.795677 10.02307 19.586833 10.164393 20.056641 10.539062 A 1.0001 1.0001 0 0 0 20.056641 10.541016 C 20.203043 10.657759 20.336227 10.788978 20.453125 10.935547 C 20.686106 11.227726 20.823962 11.595168 20.908203 12.322266 C 20.992443 13.049363 20.998047 14.089197 20.998047 15.498047 C 20.998047 16.906897 20.992443 17.944765 20.908203 18.671875 C 20.823963 19.398985 20.686067 19.766494 20.453125 20.058594 C 20.336168 20.205237 20.203005 20.338344 20.056641 20.455078 C 19.764462 20.688059 19.397019 20.827868 18.669922 20.912109 C 17.942825 20.996304 16.904944 21 15.496094 21 C 14.087244 21 13.047422 20.996399 12.320312 20.912109 C 11.593201 20.827869 11.225693 20.68802 10.933594 20.455078 C 10.787118 20.338255 10.653911 20.205061 10.537109 20.058594 C 10.162447 19.588787 10.021118 18.797528 9.9980469 16.984375 A 1 1 0 0 0 8.984375 15.998047 A 1 1 0 0 0 7.9980469 17.009766 C 8.0220959 18.899812 8.1206719 20.233895 8.9746094 21.304688 C 9.1847674 21.568221 9.4239755 21.807401 9.6875 22.017578 C 10.353301 22.548537 11.168604 22.791705 12.089844 22.898438 C 13.011083 23.005171 14.087244 23 15.496094 23 C 16.904944 23 17.979163 23.0052 18.900391 22.898438 C 19.821618 22.791705 20.636913 22.548497 21.302734 22.017578 C 21.56637 21.807312 21.805582 21.568044 22.015625 21.304688 C 22.546583 20.638887 22.789751 19.823583 22.896484 18.902344 C 23.003218 17.981104 22.998047 16.906897 22.998047 15.498047 C 22.998047 14.089197 23.003247 13.013025 22.896484 12.091797 C 22.789751 11.170569 22.546544 10.355274 22.015625 9.6894531 C 21.805523 9.426022 21.566332 9.1867591 21.302734 8.9765625 C 20.231942 8.1226111 18.897958 8.0240492 17.007812 8 z M 12.945312 8.0292969 C 11.618175 8.0944594 10.548664 8.2898 9.6875 8.9765625 C 9.4240139 9.1866702 9.1848267 9.4258456 8.9746094 9.6894531 C 8.2878428 10.550622 8.0925165 11.620138 8.0273438 12.947266 A 1 1 0 0 0 8.9765625 13.994141 A 1 1 0 0 0 10.025391 13.044922 C 10.083561 11.860449 10.235796 11.313378 10.537109 10.935547 C 10.653852 10.789154 10.78708 10.657848 10.933594 10.541016 A 1.0001 1.0001 0 0 0 10.933594 10.539062 C 11.31143 10.237744 11.858505 10.085501 13.042969 10.027344 A 1 1 0 0 0 13.992188 8.9785156 A 1 1 0 0 0 12.945312 8.0292969 z M 15.021484 10.005859 A 1 1 0 0 0 13.972656 10.955078 C 13.914456 12.139577 13.76227 12.686644 13.460938 13.064453 C 13.344079 13.210972 13.210972 13.344079 13.064453 13.460938 C 12.686644 13.76227 12.139577 13.914459 10.955078 13.972656 A 1 1 0 0 0 10.005859 15.021484 A 1 1 0 0 0 11.052734 15.970703 C 12.379835 15.905503 13.449356 15.710304 14.310547 15.023438 C 14.574028 14.813296 14.813295 14.574028 15.023438 14.310547 C 15.710304 13.449356 15.9055 12.379835 15.970703 11.052734 A 1 1 0 0 0 15.021484 10.005859 z " fill="currentColor"/>
</svg>
