<svg xmlns="http://www.w3.org/2000/svg" width="1em" height="1em" viewBox="0 0 24 24" fill="currentColor">
  <path d="M 8.5 1 C 7.091765 1 6.01853 0.99486706 5.0976562 1.1015625 C 4.1767826 1.2082579 3.3589521 1.4516285 2.6933594 1.9824219 C 2.4299132 2.1925103 2.1925103 2.4299132 1.9824219 2.6933594 C 1.4516285 3.3589521 1.2082579 4.1767826 1.1015625 5.0976562 C 0.99486706 6.0185299 1 7.091765 1 8.5 C 1 9.90825 0.994867 10.981474 1.1015625 11.902344 C 1.2082581 12.823214 1.4516288 13.641055 1.9824219 14.306641 C 2.1925103 14.570087 2.4299132 14.80749 2.6933594 15.017578 C 3.3589517 15.548378 4.1767815 15.791741 5.0976562 15.898438 C 5.886909 15.989888 6.8853943 15.985428 8.0136719 15.986328 C 8.0145738 17.114615 8.0101215 18.113095 8.1015625 18.902344 C 8.2082581 19.823214 8.4516288 20.641055 8.9824219 21.306641 C 9.1925227 21.570102 9.4299256 21.8075 9.6933594 22.017578 C 10.358944 22.548378 11.174832 22.79174 12.095703 22.898438 C 13.016574 23.005135 14.09175 23 15.5 23 C 16.90825 23 17.983426 23.0051 18.904297 22.898438 C 19.825168 22.79174 20.641056 22.548378 21.306641 22.017578 C 21.570087 21.80749 21.80749 21.570087 22.017578 21.306641 C 22.548378 20.641056 22.79174 19.825168 22.898438 18.904297 C 23.005135 17.983426 23 16.90825 23 15.5 C 23 14.09175 23.005135 13.016574 22.898438 12.095703 C 22.79174 11.174832 22.548378 10.358944 22.017578 9.6933594 C 21.8075 9.4299256 21.570102 9.1925227 21.306641 8.9824219 C 20.641055 8.4516288 19.823214 8.2082581 18.902344 8.1015625 C 18.113095 8.010117 17.114615 8.0145738 15.986328 8.0136719 C 15.985426 6.8853943 15.989883 5.8869089 15.898438 5.0976562 C 15.79174 4.1767815 15.548378 3.3589517 15.017578 2.6933594 C 14.80749 2.4299132 14.570087 2.1925103 14.306641 1.9824219 C 13.641055 1.4516288 12.823214 1.2082581 11.902344 1.1015625 C 10.981474 0.99486685 9.90825 1 8.5 1 z M 8.5 3 C 9.90825 3 10.947098 3.0036896 11.673828 3.0878906 C 12.400558 3.1720926 12.766679 3.3121249 13.058594 3.5449219 C 13.204948 3.6616335 13.338367 3.7950525 13.455078 3.9414062 C 13.687878 4.2333238 13.827906 4.5994368 13.912109 5.3261719 C 13.996312 6.0529066 14 7.091765 14 8.5 C 14 9.3166871 14.683371 10 15.5 10 C 16.90825 10 17.947098 10.003701 18.673828 10.087891 C 19.400558 10.172091 19.766679 10.312125 20.058594 10.544922 C 20.204932 10.661621 20.338357 10.79504 20.455078 10.941406 C 20.687878 11.233321 20.827907 11.599443 20.912109 12.326172 C 20.996312 13.052902 21 14.09175 21 15.5 C 21 16.90825 20.996299 17.947099 20.912109 18.673828 C 20.827909 19.400557 20.687878 19.766679 20.455078 20.058594 C 20.338367 20.204948 20.204948 20.338367 20.058594 20.455078 C 19.766679 20.687878 19.400557 20.827907 18.673828 20.912109 C 17.947098 20.996312 16.90825 21 15.5 21 C 14.09175 21 13.052901 20.996299 12.326172 20.912109 C 11.599443 20.827909 11.233321 20.687878 10.941406 20.455078 C 10.79504 20.338356 10.661621 20.204932 10.544922 20.058594 C 10.312125 19.766679 10.172092 19.400558 10.087891 18.673828 C 10.003689 17.947098 10 16.90825 10 15.5 C 10 14.683371 9.3166871 14 8.5 14 C 7.091765 14 6.052907 13.996312 5.3261719 13.912109 C 4.5994368 13.827906 4.2333238 13.687878 3.9414062 13.455078 C 3.7950525 13.338367 3.6616335 13.204948 3.5449219 13.058594 C 3.3121249 12.766679 3.1720925 12.400558 3.0878906 11.673828 C 3.0036888 10.947098 3 9.90825 3 8.5 C 3 7.091765 3.0036886 6.0529082 3.0878906 5.3261719 C 3.1720927 4.5994355 3.3121252 4.2333235 3.5449219 3.9414062 C 3.6616335 3.7950525 3.7950525 3.6616335 3.9414062 3.5449219 C 4.2333235 3.3121252 4.5994355 3.1720927 5.3261719 3.0878906 C 6.0529082 3.0036886 7.091765 3 8.5 3 z " fill="currentColor"/>
</svg>
