<svg xmlns="http://www.w3.org/2000/svg" width="1em" height="1em" viewBox="0 0 24 24" fill="currentColor">
  <path d="M 12 1.5 C 9.76083 1.5 8.061073 1.4944581 6.6542969 1.6835938 C 5.2475207 1.8727295 4.0688969 2.2982969 3.1835938 3.1835938 C 2.2982969 4.0688968 1.8727295 5.2475207 1.6835938 6.6542969 C 1.494458 8.061073 1.5 9.76083 1.5 12 C 1.5 14.23915 1.4944601 15.93892 1.6835938 17.345703 C 1.8727292 18.752486 2.2983047 19.931079 3.1835938 20.816406 C 4.0688995 21.70168 5.2475238 22.127276 6.6542969 22.316406 C 8.0610699 22.505536 9.76083 22.5 12 22.5 C 14.23915 22.5 15.938923 22.5055 17.345703 22.316406 C 18.752483 22.127277 19.931076 21.701673 20.816406 20.816406 C 21.701673 19.931076 22.127277 18.752483 22.316406 17.345703 C 22.505536 15.938923 22.5 14.23915 22.5 12 C 22.5 9.76083 22.5055 8.0610699 22.316406 6.6542969 C 22.127276 5.2475238 21.70168 4.0688995 20.816406 3.1835938 C 19.931079 2.2983046 18.752486 1.8727291 17.345703 1.6835938 C 15.93892 1.4944584 14.23915 1.5 12 1.5 z M 12 3.5 C 14.23915 3.5 15.897908 3.50539 17.078125 3.6640625 C 18.258342 3.8227371 18.896371 4.0917053 19.402344 4.5976562 C 19.90827 5.1036005 20.177267 5.7416656 20.335938 6.921875 C 20.494609 8.1020844 20.5 9.76083 20.5 12 C 20.5 14.23915 20.4946 15.897905 20.335938 17.078125 C 20.177267 18.258345 19.908277 18.896374 19.402344 19.402344 C 18.896374 19.908277 18.258345 20.177267 17.078125 20.335938 C 15.897905 20.494609 14.23915 20.5 12 20.5 C 9.76083 20.5 8.1020844 20.494608 6.921875 20.335938 C 5.7416656 20.177267 5.1036004 19.90827 4.5976562 19.402344 C 4.0917053 18.896371 3.8227371 18.258342 3.6640625 17.078125 C 3.5053879 15.897908 3.5 14.23915 3.5 12 C 3.5 9.76083 3.5053882 8.1020814 3.6640625 6.921875 C 3.8227368 5.7416686 4.091713 5.1036031 4.5976562 4.5976562 C 5.1036031 4.0917131 5.7416686 3.8227368 6.921875 3.6640625 C 8.1020814 3.5053882 9.76083 3.5 12 3.5 z M 12 5 C 8.7637084 5 6 7.3511012 6 10.392578 C 6 11.632546 6.4730828 12.782553 7.2402344 13.679688 A 1 1 0 0 0 8.6503906 13.789062 A 1 1 0 0 0 8.7597656 12.380859 C 8.2710972 11.809393 8 11.13101 8 10.392578 C 8 8.5812153 9.7134516 7 12 7 C 14.286525 7 16 8.5812207 16 10.392578 C 16 11.866437 14.174214 13.381053 12 12.693359 L 12 9.9042969 A 1 1 0 0 0 11 8.9042969 A 1 1 0 0 0 10 9.9042969 L 10 13.462891 L 10 15.845703 C 10 16.336103 9.9959695 16.689878 9.9765625 16.880859 C 9.9704101 16.941395 9.9631633 16.979557 9.9589844 17 C 9.9269495 17.031124 9.9135604 17.013201 9.8046875 16.988281 C 9.6557061 16.954189 9.4186254 16.795203 9.3183594 16.652344 A 1 1 0 0 0 7.9257812 16.408203 A 1 1 0 0 0 7.6816406 17.802734 C 8.0813746 18.372275 8.6568273 18.777169 9.3574219 18.9375 C 10.058016 19.097831 10.974433 18.9026 11.539062 18.230469 C 11.844245 17.867157 11.929507 17.450903 11.966797 17.083984 C 12.004087 16.717066 12 16.336103 12 15.845703 L 12 14.675781 C 15.096777 15.272025 18 13.203996 18 10.392578 C 18 7.3510957 15.236275 5 12 5 z " fill="currentColor"/>
</svg>
