<svg xmlns="http://www.w3.org/2000/svg" width="1em" height="1em" viewBox="0 0 24 24" fill="currentColor">
  <path d="M 19.064453 1.0019531 C 18.570343 1.0093831 18.078368 1.1435758 17.640625 1.4042969 C 17.208472 1.6617326 16.956893 1.9699183 16.509766 2.4550781 L 10.9375 8.5 C 9.6364536 9.9116099 9.1699989 11.220392 9.0253906 13.078125 C 9.0105026 13.269846 8.9913202 13.432477 9.0039062 13.658203 C 9.0164923 13.883929 9.0975723 14.244983 9.3359375 14.515625 C 9.5740364 14.78643 9.9325392 14.915405 10.158203 14.953125 C 10.383867 14.990845 10.544515 14.989191 10.732422 14.994141 C 12.906892 15.051061 14.351723 14.564431 15.945312 13.027344 L 21.585938 7.5859375 C 22.060137 7.1285375 22.363415 6.8672715 22.611328 6.4316406 C 23.115133 5.5463178 23.130229 4.4621066 22.652344 3.5625 C 22.417243 3.1200886 22.123032 2.8503996 21.662109 2.3789062 C 21.201264 1.9073995 20.939752 1.6058411 20.5 1.3613281 C 20.054705 1.1137297 19.558563 0.99452495 19.064453 1.0019531 z M 19.09375 2.9980469 C 19.241355 2.9956982 19.389939 3.0329735 19.527344 3.109375 C 19.570594 3.133422 19.771667 3.3039773 20.232422 3.7753906 C 20.693299 4.2468373 20.859219 4.4482514 20.886719 4.5 C 21.042234 4.7927534 21.03664 5.1539251 20.873047 5.4414062 C 20.844357 5.4918153 20.673419 5.6871313 20.199219 6.1445312 L 14.556641 11.587891 C 13.254113 12.844236 12.717181 12.993865 11.066406 12.970703 C 11.195231 11.556963 11.381029 10.969933 12.408203 9.8554688 L 17.980469 3.8105469 C 18.427541 3.3254467 18.621216 3.1485711 18.664062 3.1230469 C 18.79952 3.042368 18.946145 3.0003955 19.09375 2.9980469 z M 6 10 C 4.275764 10 2.9716466 10.133816 2.0527344 11.052734 C 1.1338221 11.971653 1 13.275781 1 15 L 1 18 C 1 19.724219 1.1338221 21.028347 2.0527344 21.947266 C 2.9716466 22.866184 4.275764 23 6 23 L 18 23 C 19.724222 23 21.028351 22.86618 21.947266 21.947266 C 22.86618 21.028351 23 19.724222 23 18 L 23 15 C 23 13.847972 22.93837 12.939445 22.630859 12.132812 C 22.323351 11.326178 21.659862 10.667216 20.851562 10.363281 A 1 1 0 0 0 19.564453 10.947266 A 1 1 0 0 0 20.148438 12.234375 C 20.53184 12.378541 20.617152 12.464533 20.761719 12.84375 C 20.906286 13.222967 21 13.940928 21 15 L 21 18 C 21 19.585078 20.786964 20.279443 20.533203 20.533203 C 20.279443 20.786964 19.585078 21 18 21 L 6 21 C 4.414906 21 3.7205521 20.78696 3.4667969 20.533203 C 3.2130416 20.279446 3 19.585081 3 18 L 3 15 C 3 13.414919 3.2130416 12.720554 3.4667969 12.466797 C 3.7205521 12.21304 4.414906 12 6 12 L 7 12 A 1 1 0 0 0 8 11 A 1 1 0 0 0 7 10 L 6 10 z M 12 17 A 1 1 0 0 0 11 18 A 1 1 0 0 0 12 19 L 18 19 A 1 1 0 0 0 19 18 A 1 1 0 0 0 18 17 L 12 17 z " fill="currentColor"/>
</svg>
