<svg xmlns="http://www.w3.org/2000/svg" width="1em" height="1em" viewBox="0 0 24 24" fill="currentColor">
  <path d="M 2 3.5 A 1 1 0 0 0 1 4.5 A 1 1 0 0 0 2 5.5 L 8.7578125 5.5 C 9.2886308 5.5 9.7965555 5.7106113 10.171875 6.0859375 L 11.585938 7.5 L 9.9140625 7.5 L 9.2070312 6.7929688 A 1 1 0 0 0 8.5 6.5 A 1 1 0 0 0 7.7929688 6.7929688 A 1 1 0 0 0 7.7929688 8.2070312 L 8.7832031 9.1972656 A 1 1 0 0 0 8.8027344 9.2167969 L 9.7929688 10.207031 C 9.9631433 10.377206 9.9631433 10.622794 9.7929688 10.792969 C 9.6228337 10.96311 9.3771796 10.96312 9.2070312 10.792969 L 7.7070312 9.2929688 A 1.0001 1.0001 0 0 0 6.2929688 9.2929688 C 5.7789198 9.8070236 4.9839586 9.863929 4.4023438 9.4277344 L 4.0996094 9.1992188 A 1 1 0 0 0 2.6992188 9.4003906 A 1 1 0 0 0 2.9003906 10.800781 L 3.203125 11.027344 C 3.4558079 11.216849 3.7234604 11.354169 4 11.447266 L 4 12.5 L 2 12.5 A 1 1 0 0 0 1 13.5 A 1 1 0 0 0 2 14.5 L 4 14.5 L 4 15.5 C 4 16.4428 3.9935803 17.170214 4.0820312 17.828125 C 4.1704862 18.486036 4.3963405 19.13852 4.8789062 19.621094 C 5.3614739 20.103678 6.0139596 20.329512 6.671875 20.417969 C 7.3297906 20.506425 8.05719 20.5 9 20.5 L 18 20.5 C 18.9428 20.5 19.670212 20.506399 20.328125 20.417969 C 20.986038 20.329509 21.638521 20.103666 22.121094 19.621094 C 22.603666 19.138521 22.829512 18.486038 22.917969 17.828125 C 23.006425 17.170211 23 16.4428 23 15.5 L 23 12.5 C 23 11.5572 23.006399 10.829792 22.917969 10.171875 C 22.829511 9.5139581 22.603682 8.8614777 22.121094 8.3789062 C 21.63852 7.8963404 20.986036 7.6704861 20.328125 7.5820312 C 19.670214 7.4935764 18.9428 7.5 18 7.5 L 14.414062 7.5 L 11.585938 4.671875 C 10.836056 3.9219812 9.8182942 3.5 8.7578125 3.5 L 2 3.5 z M 11.695312 9.5 L 18 9.5 C 18.9428 9.5 19.629208 9.5064601 20.060547 9.5644531 C 20.491886 9.6224461 20.603805 9.6897445 20.707031 9.7929688 C 20.810243 9.8961771 20.877553 10.00811 20.935547 10.439453 C 20.993541 10.870796 21 11.5572 21 12.5 L 21 15.5 C 21 16.4428 20.993497 17.12921 20.935547 17.560547 C 20.877557 17.991884 20.810259 18.103804 20.707031 18.207031 C 20.603804 18.310259 20.491884 18.377553 20.060547 18.435547 C 19.629207 18.49354 18.9428 18.5 18 18.5 L 9 18.5 C 8.05719 18.5 7.3707927 18.49354 6.9394531 18.435547 C 6.5081136 18.377553 6.3961812 18.310247 6.2929688 18.207031 C 6.1897445 18.103805 6.1224458 17.991886 6.0644531 17.560547 C 6.0064604 17.129208 6 16.4428 6 15.5 L 6 11.439453 C 6.2502364 11.365083 6.4964013 11.266762 6.734375 11.148438 L 7.7929688 12.207031 C 8.7274003 13.14148 10.272606 13.14149 11.207031 12.207031 C 11.931905 11.482158 12.095069 10.389728 11.695312 9.5 z M 13.5 11.25 C 11.993062 11.25 10.75 12.493062 10.75 14 C 10.75 15.506938 11.993062 16.75 13.5 16.75 C 15.006938 16.75 16.25 15.506938 16.25 14 C 16.25 12.493062 15.006938 11.25 13.5 11.25 z M 13.5 13.25 C 13.926062 13.25 14.25 13.573938 14.25 14 C 14.25 14.426062 13.926062 14.75 13.5 14.75 C 13.073938 14.75 12.75 14.426062 12.75 14 C 12.75 13.573938 13.073938 13.25 13.5 13.25 z " fill="currentColor"/>
</svg>
