<svg xmlns="http://www.w3.org/2000/svg" width="1em" height="1em" viewBox="0 0 24 24" fill="currentColor">
  <path d="M 9.6230469 1 C 8.5092269 1 7.7901372 0.95244451 7.0410156 1.3535156 C 6.6639906 1.5553704 6.3357098 1.8358615 6.0761719 2.1757812 C 5.5607474 2.8508095 5.4897502 3.5675874 5.3066406 4.671875 L 3.1777344 17.507812 C 3.0881094 18.048312 3.0124383 18.471996 3.0019531 18.908203 C 2.9914681 19.34441 3.0871001 19.884449 3.4296875 20.291016 C 3.7723536 20.697561 4.291047 20.883744 4.7226562 20.945312 C 5.1542656 21.006883 5.5817731 21 6.1269531 21 L 6.5292969 21 C 6.6980996 21 6.8538191 21.000111 7.0019531 20.998047 C 7.0058086 22.071432 7.9062525 23 9.0117188 23 L 11.001953 23 C 11.972887 23 12.822293 22.292588 12.984375 21.330078 L 13.714844 17.001953 L 13.714844 17 C 13.715569 16.999737 13.717902 17 13.726562 17 L 15.529297 17 C 18.568367 17 21.218452 14.901602 21.880859 11.953125 C 22.323378 9.983848 21.493169 8.0579677 19.994141 6.9550781 C 20.099704 3.7914214 17.553764 1 14.263672 1 L 9.6230469 1 z M 9.6230469 3 L 14.263672 3 C 16.679988 3 18.441723 5.2166559 17.904297 7.59375 C 17.319579 10.179346 15.047321 12 12.416016 12 L 11.253906 12 C 10.992506 12 10.833712 11.996201 10.632812 12.019531 C 9.4099485 12.161395 8.3951852 13.047148 8.0839844 14.238281 C 8.0329544 14.433591 8.0154784 14.593398 7.9785156 14.853516 L 7.5097656 18.142578 C 7.4515866 18.551973 7.4054709 18.837486 7.3691406 18.970703 C 7.3686247 18.972595 7.3676834 18.97475 7.3671875 18.976562 L 7.3652344 18.976562 C 7.2303476 18.993686 6.9407019 19 6.5292969 19 L 6.1269531 19 C 5.5817731 19 5.1939401 18.993597 5.0058594 18.966797 C 5.0037872 18.966501 5.0020035 18.967084 5 18.966797 C 5.0000803 18.963289 4.9999106 18.958796 5 18.955078 C 5.00463 18.76236 5.0627181 18.374486 5.1523438 17.833984 L 7.2792969 4.9980469 C 7.4624073 3.8937545 7.5763801 3.5060635 7.6660156 3.3886719 C 7.7524777 3.2754316 7.8617732 3.1838727 7.9863281 3.1171875 C 8.1143265 3.0486586 8.5092269 3 9.6230469 3 z M 19.476562 9.2402344 C 19.923522 9.8705915 20.118095 10.677182 19.929688 11.515625 C 19.472296 13.551548 17.652427 15 15.529297 15 L 13.726562 15 C 12.755498 15 11.904469 15.707606 11.742188 16.669922 L 11.013672 20.998047 L 11.013672 21 C 11.012984 21.000263 11.010763 21 11.001953 21 L 9.0117188 21 C 9.0067808 20.999993 9.0028328 20.999467 9 21 L 9.2128906 19.755859 C 9.2134386 19.754464 9.2142989 19.753348 9.2148438 19.751953 C 9.2485446 19.665657 9.2764379 19.580148 9.2988281 19.498047 C 9.3908101 19.160764 9.4320536 18.833234 9.4902344 18.423828 L 9.9570312 15.134766 C 9.9939882 14.874683 10.012401 14.771431 10.019531 14.744141 C 10.12489 14.340874 10.456965 14.052996 10.863281 14.005859 C 10.889784 14.00278 10.992506 14 11.253906 14 L 12.416016 14 C 15.548937 14 18.320857 12.076126 19.476562 9.2402344 z " fill="currentColor"/>
</svg>
