<svg xmlns="http://www.w3.org/2000/svg" width="1em" height="1em" viewBox="0 0 24 24" fill="currentColor">
  <path d="M 12 1 C 10.585785 1 9.5044453 0.99407482 8.5742188 1.1191406 C 7.643992 1.2442065 6.800893 1.542857 6.171875 2.171875 C 5.542857 2.800893 5.2442065 3.6439921 5.1191406 4.5742188 C 4.9940748 5.5044454 5 6.585785 5 8 L 5 16 C 5 17.4142 4.99407 18.495558 5.1191406 19.425781 C 5.2442065 20.356004 5.5428648 21.199101 6.171875 21.828125 C 6.8008908 22.457155 7.6439896 22.75579 8.5742188 22.880859 C 9.5044477 23.005928 10.585785 23 12 23 C 13.4142 23 14.495556 23.0059 15.425781 22.880859 C 16.356006 22.75579 17.199103 22.457147 17.828125 21.828125 C 18.457147 21.199103 18.75579 20.356006 18.880859 19.425781 C 19.005928 18.495556 19 17.4142 19 16 L 19 8 C 19 6.585785 19.005928 5.5044478 18.880859 4.5742188 C 18.75579 3.6439897 18.457155 2.8008908 17.828125 2.171875 C 17.199101 1.5428648 16.356004 1.2442065 15.425781 1.1191406 C 14.495558 0.99407476 13.4142 1 12 1 z M 12 3 C 13.4142 3 14.454551 3.00696 15.158203 3.1015625 C 15.861855 3.1961665 16.164388 3.3362677 16.414062 3.5859375 C 16.663732 3.8356017 16.803832 4.1381434 16.898438 4.8417969 C 16.993043 5.5454503 17 6.585785 17 8 L 17 16 C 17 17.4142 16.993 18.454553 16.898438 19.158203 C 16.803828 19.861853 16.66374 20.164385 16.414062 20.414062 C 16.164386 20.66374 15.861853 20.803832 15.158203 20.898438 C 14.454553 20.993043 13.4142 21 12 21 C 10.585785 21 9.5454503 20.993043 8.8417969 20.898438 C 8.1381434 20.803832 7.8356017 20.663732 7.5859375 20.414062 C 7.3362677 20.164388 7.1961666 19.861855 7.1015625 19.158203 C 7.0069584 18.454551 7 17.4142 7 16 L 7 8 C 7 6.585785 7.0069583 5.5454528 7.1015625 4.8417969 C 7.1961667 4.138141 7.3362755 3.8355995 7.5859375 3.5859375 C 7.8355995 3.3362755 8.138141 3.1961667 8.8417969 3.1015625 C 9.5454528 3.0069583 10.585785 3 12 3 z M 10 5 A 1 1 0 0 0 9 6 A 1 1 0 0 0 10 7 L 14 7 A 1 1 0 0 0 15 6 A 1 1 0 0 0 14 5 L 10 5 z M 10 9 A 1 1 0 0 0 9 10 A 1 1 0 0 0 10 11 L 14 11 A 1 1 0 0 0 15 10 A 1 1 0 0 0 14 9 L 10 9 z M 12 16.75 C 11.321712 16.75 10.75 17.321712 10.75 18 C 10.75 18.678288 11.321712 19.25 12 19.25 C 12.678288 19.25 13.25 18.678288 13.25 18 C 13.25 17.321712 12.678288 16.75 12 16.75 z " fill="currentColor"/>
</svg>
