<svg xmlns="http://www.w3.org/2000/svg" width="1em" height="1em" viewBox="0 0 24 24" fill="currentColor">
  <path d="M 5.9960938 1.0058594 C 5.7934436 0.99637953 5.5834929 1.0231268 5.375 1.1054688 C 5.097015 1.2152559 4.8260432 1.4451801 4.671875 1.6914062 C 4.5177068 1.9376324 4.45536 2.1755294 4.4179688 2.3925781 C 4.3431868 2.8266756 4.3554688 3.2350925 4.3554688 3.7578125 L 4.3554688 5.1464844 L 2.5683594 3.9140625 A 1 1 0 0 0 1.1777344 4.1679688 A 1 1 0 0 0 1.4316406 5.5585938 L 3.5214844 7 L 1.4316406 8.4414062 A 1 1 0 0 0 1.1777344 9.8320312 A 1 1 0 0 0 2.5683594 10.085938 L 4.3554688 8.8535156 L 4.3554688 10.242188 C 4.3554688 10.764938 4.3431857 11.17332 4.4179688 11.607422 C 4.4553607 11.824473 4.5176917 12.062359 4.671875 12.308594 C 4.8260583 12.554828 5.0969992 12.784767 5.375 12.894531 L 5.375 12.892578 C 5.9310162 13.112257 6.5022473 12.938408 6.8964844 12.734375 C 7.2907215 12.530344 7.6565917 12.264274 8.1328125 11.929688 L 8.7089844 11.525391 C 8.9981141 11.32223 9.2319243 11.166735 9.4667969 10.947266 C 9.7016695 10.727796 10.002661 10.322318 10 9.8261719 C 9.9973578 9.3300641 9.6938248 8.9282234 9.4570312 8.7109375 C 9.2202376 8.4936516 8.9846371 8.3396187 8.6933594 8.1386719 L 7.0429688 7 L 8.6933594 5.8613281 C 8.9846371 5.6603813 9.2202376 5.5063484 9.4570312 5.2890625 C 9.6938247 5.0717766 9.9973578 4.6699359 10 4.1738281 C 10.002661 3.6777083 9.7016742 3.2721957 9.4667969 3.0527344 C 9.2319195 2.833273 8.9980967 2.6777625 8.7089844 2.4746094 L 8.1328125 2.0703125 C 7.6565735 1.7356782 7.2907224 1.4696578 6.8964844 1.265625 C 6.6500856 1.1381045 6.333844 1.0216591 5.9960938 1.0058594 z M 6.3710938 3.3027344 C 6.5571485 3.4234497 6.6926 3.5014317 6.9824219 3.7050781 L 7.5585938 4.1113281 C 7.5956968 4.1374001 7.5948722 4.1379044 7.6289062 4.1621094 C 7.5936753 4.1867194 7.5951516 4.1882758 7.5566406 4.2148438 L 6.3554688 5.0429688 L 6.3554688 3.7578125 C 6.3554688 3.525824 6.3665648 3.4679484 6.3710938 3.3027344 z M 20.017578 5.0058594 C 19.252219 5.0058594 18.486377 5.2948951 17.908203 5.8730469 L 16.507812 7.2753906 L 8.2734375 15.509766 C 7.2281533 16.55505 6.6292295 17.136085 6.1835938 17.933594 C 5.7379535 18.731088 5.5572414 19.546385 5.2148438 20.984375 L 5.0273438 21.767578 A 1.0001 1.0001 0 0 0 6.2324219 22.972656 L 7.015625 22.785156 C 8.4537155 22.442756 9.2689352 22.262034 10.066406 21.816406 C 10.86387 21.37079 11.444934 20.771863 12.490234 19.726562 L 20.724609 11.492188 L 22.126953 10.091797 C 23.283185 8.9354599 23.283185 7.0293838 22.126953 5.8730469 C 21.548779 5.2948951 20.782938 5.0058594 20.017578 5.0058594 z M 20.017578 6.9941406 C 20.266919 6.9941406 20.516865 7.0910916 20.712891 7.2871094 C 21.104858 7.6791125 21.104858 8.2857313 20.712891 8.6777344 L 20.017578 9.3710938 L 18.628906 7.9824219 L 19.322266 7.2871094 C 19.518291 7.0910911 19.768238 6.9941406 20.017578 6.9941406 z M 6.3554688 8.9570312 L 7.5566406 9.7851562 C 7.5951516 9.8117242 7.5936743 9.8132816 7.6289062 9.8378906 C 7.5948743 9.8620946 7.5956947 9.8626029 7.5585938 9.8886719 L 6.9824219 10.294922 C 6.6925889 10.498555 6.5571556 10.576549 6.3710938 10.697266 C 6.3665638 10.532044 6.3554687 10.474188 6.3554688 10.242188 L 6.3554688 8.9570312 z M 17.214844 9.3964844 L 18.603516 10.785156 L 11.076172 18.3125 C 10.030872 19.3578 9.5681534 19.804128 9.0917969 20.070312 C 8.778868 20.245178 8.0530126 20.410815 7.4238281 20.576172 C 7.5891892 19.946986 7.7548313 19.221117 7.9296875 18.908203 C 8.1958318 18.431912 8.6421842 17.969144 9.6875 16.923828 L 17.214844 9.3964844 z " fill="currentColor"/>
</svg>
