<svg xmlns="http://www.w3.org/2000/svg" width="1em" height="1em" viewBox="0 0 24 24" fill="currentColor">
  <path d="M 7.5 1 C 5.0654994 1 2.853216 2.0527366 1.2714844 3.7304688 A 1 1 0 0 0 1.3144531 5.1445312 A 1 1 0 0 0 2.7285156 5.1015625 C 3.9619237 3.7932949 5.6387406 3 7.5 3 C 9.3612594 3 11.038037 3.7932807 12.271484 5.1015625 A 1 1 0 0 0 13.685547 5.1445312 A 1 1 0 0 0 13.728516 3.7304688 C 12.146762 2.0527502 9.9345006 1 7.5 1 z M 20.017578 5.0058594 C 19.252219 5.0058594 18.486377 5.2948951 17.908203 5.8730469 L 16.507812 7.2753906 L 8.2734375 15.509766 C 7.2281533 16.55505 6.6292295 17.136085 6.1835938 17.933594 C 5.7379535 18.731088 5.5572414 19.546385 5.2148438 20.984375 L 5.0273438 21.767578 A 1.0001 1.0001 0 0 0 6.2324219 22.972656 L 7.015625 22.785156 C 8.4537155 22.442756 9.2689352 22.262034 10.066406 21.816406 C 10.86387 21.37079 11.444934 20.771863 12.490234 19.726562 L 20.724609 11.492188 L 22.126953 10.091797 C 23.283185 8.9354599 23.283185 7.0293838 22.126953 5.8730469 C 21.548779 5.2948951 20.782938 5.0058594 20.017578 5.0058594 z M 7.5 5.125 C 6.1394456 5.125 4.8994359 5.7152537 4.0214844 6.6464844 A 1 1 0 0 0 4.0644531 8.0605469 A 1 1 0 0 0 5.4785156 8.0195312 C 6.0081438 7.4577623 6.7126744 7.125 7.5 7.125 C 8.2873256 7.125 8.9918559 7.4577618 9.5214844 8.0195312 A 1 1 0 0 0 10.935547 8.0605469 A 1 1 0 0 0 10.978516 6.6464844 C 10.100563 5.7152533 8.8605544 5.125 7.5 5.125 z M 20.017578 6.9941406 C 20.266919 6.9941406 20.516865 7.0910916 20.712891 7.2871094 C 21.104858 7.6791125 21.104858 8.2857313 20.712891 8.6777344 L 20.017578 9.3710938 L 18.628906 7.9824219 L 19.322266 7.2871094 C 19.518291 7.0910911 19.768238 6.9941406 20.017578 6.9941406 z M 7.5 9 C 6.8216244 9 6.25 9.5715669 6.25 10.25 C 6.25 10.928433 6.8216244 11.5 7.5 11.5 C 8.1783756 11.5 8.75 10.928433 8.75 10.25 C 8.75 9.5715669 8.1783756 9 7.5 9 z M 17.214844 9.3964844 L 18.603516 10.785156 L 11.076172 18.3125 C 10.030872 19.3578 9.5681534 19.804128 9.0917969 20.070312 C 8.778868 20.245178 8.0530126 20.410815 7.4238281 20.576172 C 7.5891892 19.946986 7.7548313 19.221117 7.9296875 18.908203 C 8.1958318 18.431912 8.6421842 17.969144 9.6875 16.923828 L 17.214844 9.3964844 z " fill="currentColor"/>
</svg>
