<svg xmlns="http://www.w3.org/2000/svg" width="1em" height="1em" viewBox="0 0 24 24" fill="currentColor">
  <path d="M 12 1 C 10.950344 1 9.9783128 1.3832402 8.9941406 2.0058594 C 8.0099684 2.6284785 6.9590661 3.4958225 5.5742188 4.6308594 L 5.3183594 4.8417969 C 3.0328194 6.7150369 1.677755 7.754557 1.1777344 9.4589844 C 0.67770199 11.163421 1.2610764 12.762726 2.1796875 15.548828 L 2.3613281 16.103516 C 2.8518224 17.591164 3.221727 18.726349 3.65625 19.664062 C 4.090773 20.601778 4.6243361 21.369341 5.390625 21.917969 C 6.9391588 23.026768 8.82548 22.957031 12 22.957031 C 13.784739 22.957031 16.502463 23.42648 18.609375 21.917969 C 19.375706 21.369339 19.909241 20.60178 20.34375 19.664062 C 20.778259 18.726346 21.148176 17.591154 21.638672 16.103516 L 21.820312 15.548828 C 22.738914 12.762725 23.322228 11.163404 22.822266 9.4589844 C 22.322186 7.7546218 20.967252 6.7150459 18.681641 4.8417969 L 18.425781 4.6308594 C 17.040929 3.4958223 15.990035 2.6284781 15.005859 2.0058594 C 14.021684 1.3832406 13.049656 1 12 1 z M 12 3 C 12.587444 3 13.125573 3.1848519 13.935547 3.6972656 C 14.745521 4.2096794 15.773356 5.0427015 17.158203 6.1777344 L 17.414062 6.3886719 C 19.699652 8.2619028 20.630223 9.0959996 20.902344 10.023438 C 21.174381 10.950838 20.840474 12.137732 19.921875 14.923828 L 19.738281 15.476562 C 19.247778 16.964224 18.882863 18.061186 18.529297 18.824219 C 18.175731 19.587252 17.867528 19.989299 17.443359 20.292969 C 16.249071 21.148058 14.015861 20.957031 12 20.957031 C 8.82548 20.957031 7.3890068 20.888971 6.5566406 20.292969 C 6.1324895 19.989296 5.8242826 19.587254 5.4707031 18.824219 C 5.1171237 18.061183 4.7522145 16.964214 4.2617188 15.476562 L 4.078125 14.923828 C 3.1595158 12.13773 2.8255886 10.950821 3.0976562 10.023438 C 3.3697156 9.0960644 4.3003975 8.2619119 6.5859375 6.3886719 L 6.8417969 6.1777344 C 8.2266395 5.0427013 9.2544829 4.209679 10.064453 3.6972656 C 10.874423 3.1848523 11.412556 3 12 3 z " fill="currentColor"/>
</svg>
