<svg xmlns="http://www.w3.org/2000/svg" width="1em" height="1em" viewBox="0 0 24 24" fill="currentColor">
  <path d="M 11.867188 1 C 10.619528 1 9.6658683 0.99367535 8.8476562 1.0996094 C 8.0294441 1.2055434 7.2599029 1.4633738 6.71875 2.0605469 C 5.9287504 2.9323364 5.9311384 4.0645841 6.0683594 4.9746094 C 6.1964885 5.8243389 6.4560921 6.6150828 6.578125 7.1152344 C 6.5678041 8.6765834 6.3402819 9.3097773 5.6308594 10.111328 C 5.1789057 10.622015 4.8297818 11.010903 4.5507812 11.396484 C 4.2717808 11.782066 4.0270725 12.210647 4.0019531 12.746094 C 3.9790041 13.235065 4.1519458 13.685652 4.3671875 14.060547 C 4.5824292 14.435441 4.8511036 14.790591 5.1894531 15.248047 L 9.4101562 20.953125 C 9.8149004 21.500317 10.121915 21.93096 10.488281 22.296875 C 10.825325 22.633504 11.311105 22.942396 11.857422 22.990234 A 1 1 0 0 0 12 23 A 1 1 0 0 0 12.142578 22.990234 C 12.688891 22.942397 13.17465 22.633513 13.511719 22.296875 C 13.878111 21.93095 14.185132 21.500341 14.589844 20.953125 L 18.810547 15.248047 C 19.148842 14.790604 19.417603 14.435367 19.632812 14.060547 C 19.848022 13.685727 20.020917 13.234985 19.998047 12.746094 C 19.973007 12.210642 19.730136 11.782126 19.451172 11.396484 C 19.172208 11.010842 18.821086 10.622123 18.369141 10.111328 C 17.659791 9.3095192 17.432199 8.6764472 17.421875 7.1152344 C 17.543904 6.6150858 17.803522 5.8243358 17.931641 4.9746094 C 18.06885 4.0645823 18.071264 2.9323265 17.28125 2.0605469 C 16.740108 1.463341 15.970559 1.2055433 15.152344 1.0996094 C 14.334128 0.99367546 13.380462 1 12.132812 1 L 11.867188 1 z M 11.867188 3 L 12.132812 3 C 13.380463 3 14.299247 3.0069104 14.894531 3.0839844 C 15.489816 3.1610554 15.67667 3.2694828 15.798828 3.4042969 C 15.980614 3.6048972 16.054644 4.0154234 15.955078 4.6757812 C 15.892223 5.09264 15.767152 5.5473389 15.644531 6 L 8.3554688 6 C 8.2328488 5.5473393 8.107779 5.0926389 8.0449219 4.6757812 C 7.9453479 4.0154241 8.0193915 3.6048973 8.2011719 3.4042969 C 8.323369 3.2694499 8.5101883 3.1610554 9.1054688 3.0839844 C 9.7007492 3.0069134 10.619527 3 11.867188 3 z M 8.4414062 8 L 15.558594 8 C 15.702349 9.3625882 16.058816 10.517394 16.871094 11.435547 C 17.323048 11.946352 17.651417 12.323329 17.830078 12.570312 C 17.964454 12.756074 17.99452 12.842733 18 12.853516 C 17.995666 12.875214 17.975718 12.929857 17.898438 13.064453 C 17.781047 13.268908 17.54143 13.601137 17.203125 14.058594 L 13 19.740234 L 13 15.169922 C 13.367124 15.050803 13.775841 15.032594 14.083984 14.810547 A 1 1 0 0 0 14.310547 13.416016 A 1 1 0 0 0 12.916016 13.189453 C 12.625704 13.398651 12.32434 13.5 12 13.5 C 11.67566 13.5 11.374296 13.398651 11.083984 13.189453 A 1 1 0 0 0 10.339844 13.013672 A 1 1 0 0 0 9.6894531 13.416016 A 1 1 0 0 0 9.9160156 14.810547 C 10.224159 15.032594 10.632876 15.050803 11 15.169922 L 11 19.740234 L 6.796875 14.058594 C 6.4585345 13.60115 6.2189483 13.268909 6.1015625 13.064453 C 6.0242583 12.92981 6.0043258 12.875198 6 12.853516 C 6.0054797 12.842705 6.0355478 12.756019 6.1699219 12.570312 C 6.3486063 12.323369 6.67693 11.94626 7.1289062 11.435547 C 7.9414758 10.517454 8.2977275 9.3625256 8.4414062 8 z " fill="currentColor"/>
</svg>
