<svg xmlns="http://www.w3.org/2000/svg" width="1em" height="1em" viewBox="0 0 24 24" fill="currentColor">
  <path d="M 20 3 A 1 1 0 0 0 19.292969 3.2929688 L 3.2929688 19.292969 A 1 1 0 0 0 3.2929688 20.707031 A 1 1 0 0 0 4.7070312 20.707031 L 20.707031 4.7070312 A 1 1 0 0 0 20.707031 3.2929688 A 1 1 0 0 0 20 3 z M 6.5 3.0058594 C 5.6021769 3.0058594 4.7046211 3.3461601 4.0253906 4.0253906 C 2.6669296 5.3838516 2.6669296 7.6161484 4.0253906 8.9746094 C 5.3838516 10.33307 7.6161484 10.33307 8.9746094 8.9746094 C 10.33307 7.6161484 10.33307 5.3838516 8.9746094 4.0253906 C 8.2953789 3.3461601 7.3978231 3.0058594 6.5 3.0058594 z M 6.5 4.9941406 C 6.8817919 4.9941406 7.2634674 5.1423736 7.5605469 5.4394531 C 8.1547059 6.0336121 8.1547059 6.9663879 7.5605469 7.5605469 C 6.9663879 8.1547059 6.0336121 8.1547059 5.4394531 7.5605469 C 4.8452941 6.9663879 4.8452941 6.0336121 5.4394531 5.4394531 C 5.7365326 5.1423736 6.1182081 4.9941406 6.5 4.9941406 z M 17.5 14.005859 C 16.602165 14.005859 15.704628 14.346154 15.025391 15.025391 C 13.666916 16.383865 13.666916 18.616135 15.025391 19.974609 C 16.383865 21.333084 18.616135 21.333084 19.974609 19.974609 C 21.333084 18.616135 21.333084 16.383865 19.974609 15.025391 C 19.295372 14.346154 18.397835 14.005859 17.5 14.005859 z M 17.5 15.994141 C 17.881815 15.994141 18.263484 16.14239 18.560547 16.439453 C 19.154673 17.033579 19.154673 17.966421 18.560547 18.560547 C 17.966421 19.154673 17.033579 19.154673 16.439453 18.560547 C 15.845327 17.966421 15.845327 17.033579 16.439453 16.439453 C 16.736516 16.14239 17.118185 15.994141 17.5 15.994141 z " fill="currentColor"/>
</svg>
