<svg xmlns="http://www.w3.org/2000/svg" width="1em" height="1em" viewBox="0 0 24 24" fill="currentColor">
  <path d="M 12 1 C 7.0358319 1 3 5.0821684 3 10.080078 C 3 12.893132 4.1824942 15.228445 6.3359375 17.136719 C 7.6343133 18.287261 9.3302747 20.343283 10.289062 21.916016 C 10.643985 22.49817 11.238858 23 11.986328 23 C 12.733799 23 13.319631 22.513236 13.693359 21.941406 C 14.727554 20.358867 16.381452 18.273299 17.664062 17.136719 C 19.817507 15.228445 21 12.893132 21 10.080078 C 21 5.0821714 16.964186 1 12 1 z M 12 3 C 15.872414 3 19 6.1522451 19 10.080078 C 19 12.370625 18.182494 14.004299 16.335938 15.640625 C 14.799148 17.002445 13.139937 19.133196 12.019531 20.847656 C 12.01225 20.858798 12.004745 20.869151 11.998047 20.878906 C 11.997241 20.877591 11.996909 20.876338 11.996094 20.875 C 10.904047 19.083733 9.1851067 16.988483 7.6640625 15.640625 C 5.8175058 14.004299 5 12.370625 5 10.080078 C 5 6.1522481 8.1276081 3 12 3 z M 12 5 C 11.79837 5 11.598563 5.0117472 11.402344 5.0351562 A 1.0001 1.0001 0 0 0 10.712891 6.6171875 C 10.89397 6.8654851 11 7.1651991 11 7.5 C 11 8.3402634 10.340254 9 9.5 9 C 9.1651991 9 8.8654755 8.8939755 8.6171875 8.7128906 A 1.0001 1.0001 0 0 0 7.0351562 9.4023438 C 7.0117468 9.5985555 7 9.7983402 7 10 C 7 12.749549 9.2504084 15 12 15 C 14.749561 15 17 12.749561 17 10 C 17 7.2504084 14.749549 5 12 5 z M 12.966797 7.3984375 C 14.097505 7.8266494 15 8.7109552 15 10 C 15 11.668639 13.668639 13 12 13 C 10.710955 13 9.8266494 12.097505 9.3984375 10.966797 C 9.4359451 10.968002 9.4622502 11 9.5 11 C 11.421146 11 13 9.4211566 13 7.5 C 13 7.4622504 12.967997 7.4359444 12.966797 7.3984375 z " fill="currentColor"/>
</svg>
