<svg xmlns="http://www.w3.org/2000/svg" width="1em" height="1em" viewBox="0 0 24 24" fill="currentColor">
  <path d="M 8 1 C 6.585785 1 5.5044454 0.99407482 4.5742188 1.1191406 C 3.6439921 1.2442065 2.800893 1.542857 2.171875 2.171875 C 1.542857 2.800893 1.2442065 3.6439921 1.1191406 4.5742188 C 0.99407482 5.5044454 1 6.585785 1 8 L 1 10 A 1 1 0 0 0 2 11 A 1 1 0 0 0 3 10 L 3 8 C 3 6.585785 3.0069583 5.5454528 3.1015625 4.8417969 C 3.1961667 4.138141 3.3362755 3.8355995 3.5859375 3.5859375 C 3.8355995 3.3362755 4.138141 3.1961667 4.8417969 3.1015625 C 5.5454528 3.0069583 6.585785 3 8 3 C 9.4142 3 10.454551 3.00696 11.158203 3.1015625 C 11.861855 3.1961665 12.164387 3.3362677 12.414062 3.5859375 C 12.663732 3.8356017 12.803832 4.1381434 12.898438 4.8417969 C 12.993042 5.5454503 13 6.585785 13 8 L 13 22 A 1.0001 1.0001 0 0 0 14 23 L 18 23 C 18.9428 23 19.670212 23.006399 20.328125 22.917969 C 20.986038 22.829509 21.638521 22.603666 22.121094 22.121094 C 22.603666 21.638521 22.829512 20.986038 22.917969 20.328125 C 23.006425 19.670211 23 18.9428 23 18 L 23 12 C 23 11.0572 23.006399 10.329792 22.917969 9.671875 C 22.829511 9.0139581 22.603682 8.3614778 22.121094 7.8789062 C 21.63852 7.3963405 20.986036 7.1704861 20.328125 7.0820312 C 19.670214 6.9935764 18.9428 7 18 7 L 14.964844 7 C 14.959146 6.1254576 14.96942 5.2329064 14.880859 4.5742188 C 14.75579 3.6439897 14.457155 2.8008908 13.828125 2.171875 C 13.199101 1.5428648 12.356004 1.2442065 11.425781 1.1191406 C 10.495558 0.99407476 9.4142 1 8 1 z M 5.5 5 A 1 1 0 0 0 4.5 6 A 1 1 0 0 0 5.5 7 L 6.5 7 A 1 1 0 0 0 7.5 6 A 1 1 0 0 0 6.5 5 L 5.5 5 z M 9.5 5 A 1 1 0 0 0 8.5 6 A 1 1 0 0 0 9.5 7 L 10.5 7 A 1 1 0 0 0 11.5 6 A 1 1 0 0 0 10.5 5 L 9.5 5 z M 5.5 8 A 1 1 0 0 0 4.5 9 A 1 1 0 0 0 5.5 10 L 6.5 10 A 1 1 0 0 0 7.5 9 A 1 1 0 0 0 6.5 8 L 5.5 8 z M 9.5 8 A 1 1 0 0 0 8.5 9 A 1 1 0 0 0 9.5 10 L 10.5 10 A 1 1 0 0 0 11.5 9 A 1 1 0 0 0 10.5 8 L 9.5 8 z M 15 9 L 18 9 C 18.9428 9 19.629208 9.0064601 20.060547 9.0644531 C 20.491886 9.1224461 20.603805 9.1897445 20.707031 9.2929688 C 20.810243 9.3961771 20.877553 9.5081101 20.935547 9.9394531 C 20.993541 10.370796 21 11.0572 21 12 L 21 18 C 21 18.9428 20.993497 19.62921 20.935547 20.060547 C 20.877557 20.491884 20.810259 20.603804 20.707031 20.707031 C 20.603804 20.810259 20.491884 20.877553 20.060547 20.935547 C 19.629207 20.99354 18.9428 21 18 21 L 15 21 L 15 9 z M 17.5 10 A 1 1 0 0 0 16.5 11 A 1 1 0 0 0 17.5 12 L 18.5 12 A 1 1 0 0 0 19.5 11 A 1 1 0 0 0 18.5 10 L 17.5 10 z M 6.0253906 10.957031 C 4.3808421 10.957031 3.0253906 12.310525 3.0253906 13.955078 C 3.0253906 15.599683 4.3808421 16.953125 6.0253906 16.953125 C 7.6699443 16.953125 9.0253906 15.599677 9.0253906 13.955078 C 9.0253906 12.310531 7.6699443 10.957031 6.0253906 10.957031 z M 6.0253906 12.957031 C 6.589917 12.957031 7.0253906 13.392226 7.0253906 13.955078 C 7.0253906 14.51808 6.589917 14.953125 6.0253906 14.953125 C 5.4608792 14.953125 5.0253906 14.518074 5.0253906 13.955078 C 5.0253906 13.392232 5.4608792 12.957031 6.0253906 12.957031 z M 17.5 14 A 1 1 0 0 0 16.5 15 A 1 1 0 0 0 17.5 16 L 18.5 16 A 1 1 0 0 0 19.5 15 A 1 1 0 0 0 18.5 14 L 17.5 14 z M 6.0253906 16.972656 C 4.4739062 16.971156 2.4902565 17.728036 1.2304688 19.666016 C 1.0034789 20.015308 0.90308166 20.567204 1.1738281 21.046875 C 1.3761113 21.404992 1.6589611 21.754828 2.0234375 22.103516 C 2.3883234 22.452595 2.7665596 22.837017 3.5097656 22.916016 C 4.3258129 23.002726 5.9715054 22.99972 6.0214844 23 A 1.0001 1.0001 0 0 0 6.03125 23 C 6.084769 22.999697 7.6799409 23.002196 8.4902344 22.916016 C 9.2334404 22.837016 9.6116766 22.452595 9.9765625 22.103516 C 10.341448 21.754437 10.625795 21.403461 10.828125 21.044922 C 11.098688 20.565344 10.996523 20.015368 10.769531 19.666016 C 9.5172166 17.739532 7.5736464 16.974311 6.0253906 16.972656 z M 6.0234375 18.972656 C 6.8117587 18.973499 7.9121705 19.433991 8.7617188 20.455078 C 8.6929588 20.535888 8.6705128 20.586635 8.5957031 20.658203 C 8.437577 20.809479 8.2440851 20.894361 8.21875 20.921875 L 8.21875 20.923828 L 8.21875 20.925781 L 8.21875 20.927734 L 8.2207031 20.927734 L 8.2207031 20.929688 C 7.7077624 20.976296 6.0961263 20.999529 6.03125 21 C 5.9766887 20.999691 4.2917255 20.976063 3.7792969 20.929688 L 3.78125 20.927734 L 3.78125 20.925781 L 3.7832031 20.925781 L 3.7832031 20.923828 L 3.78125 20.923828 L 3.78125 20.921875 L 3.7792969 20.919922 C 3.7545292 20.892408 3.5643758 20.809479 3.40625 20.658203 C 3.332225 20.587383 3.310364 20.537031 3.2421875 20.457031 C 4.0964296 19.441027 5.2377403 18.971881 6.0234375 18.972656 z " fill="currentColor"/>
</svg>
