<svg xmlns="http://www.w3.org/2000/svg" width="1em" height="1em" viewBox="0 0 24 24" fill="currentColor">
  <path d="M 12 1.5 C 9.885135 1.5 8.2800075 1.494122 6.9453125 1.65625 C 5.6106175 1.818378 4.4935702 2.1773202 3.6035156 2.9375 C 3.3644918 3.1416387 3.1416387 3.3644918 2.9375 3.6035156 C 2.1773202 4.4935702 1.818378 5.6106175 1.65625 6.9453125 C 1.494122 8.2800075 1.5 9.885135 1.5 12 C 1.5 14.11485 1.49412 15.719994 1.65625 17.054688 C 1.8183781 18.389381 2.1773099 19.506443 2.9375 20.396484 C 3.1416562 20.635553 3.3644751 20.858359 3.6035156 21.0625 C 4.4935689 21.822698 5.6106151 22.181618 6.9453125 22.34375 C 8.2800099 22.505882 9.885135 22.5 12 22.5 C 14.11485 22.5 15.719991 22.5059 17.054688 22.34375 C 18.389384 22.181618 19.506444 21.822708 20.396484 21.0625 C 20.635569 20.858342 20.858342 20.635569 21.0625 20.396484 C 21.822708 19.506444 22.181618 18.389384 22.34375 17.054688 C 22.505882 15.719991 22.5 14.11485 22.5 12 C 22.5 9.885135 22.505882 8.2800099 22.34375 6.9453125 C 22.181618 5.6106151 21.822698 4.4935689 21.0625 3.6035156 C 20.858359 3.3644751 20.635553 3.1416562 20.396484 2.9375 C 19.506443 2.1773099 18.389381 1.8183781 17.054688 1.65625 C 15.719994 1.4941219 14.11485 1.5 12 1.5 z M 12 3.5 C 14.11485 3.5 15.681669 3.50521 16.8125 3.6425781 C 17.943331 3.7799426 18.585097 4.0212045 19.097656 4.4589844 C 19.256988 4.5950482 19.404957 4.7430243 19.541016 4.9023438 C 19.978818 5.4149304 20.220054 6.0566699 20.357422 7.1875 C 20.494789 8.3183301 20.5 9.885135 20.5 12 C 20.5 14.11485 20.4948 15.681671 20.357422 16.8125 C 20.220054 17.943329 19.978808 18.585096 19.541016 19.097656 C 19.404974 19.256971 19.256971 19.404974 19.097656 19.541016 C 18.585096 19.978808 17.943329 20.220054 16.8125 20.357422 C 15.681671 20.494789 14.11485 20.5 12 20.5 C 9.885135 20.5 8.3183301 20.494789 7.1875 20.357422 C 6.0566699 20.220054 5.4149305 19.978818 4.9023438 19.541016 C 4.7430243 19.404957 4.5950482 19.256988 4.4589844 19.097656 C 4.0212045 18.585097 3.7799426 17.943331 3.6425781 16.8125 C 3.5052137 15.681669 3.5 14.11485 3.5 12 C 3.5 9.885135 3.5052137 8.3183325 3.6425781 7.1875 C 3.7799426 6.0566675 4.0211942 5.4149292 4.4589844 4.9023438 C 4.5950657 4.7430077 4.7430076 4.5950657 4.9023438 4.4589844 C 5.4149293 4.0211942 6.0566675 3.7799426 7.1875 3.6425781 C 8.3183325 3.5052137 9.885135 3.5 12 3.5 z M 9 7 A 1.0001 1.0001 0 0 0 8 8 L 8 16 A 1.0001 1.0001 0 0 0 9 17 L 13 17 A 1.0001 1.0001 0 0 0 14 16 L 14 13.898438 C 15.677539 13.644004 17 12.24428 17 10.5 C 17 8.5788434 15.421146 7 13.5 7 L 9 7 z M 10 9 L 13.5 9 C 14.340254 9 15 9.6597366 15 10.5 C 15 11.34025 14.34025 12 13.5 12 L 13 12 A 1.0001 1.0001 0 0 0 12 13 L 12 15 L 10 15 L 10 9 z " fill="currentColor"/>
</svg>
