<svg xmlns="http://www.w3.org/2000/svg" width="1em" height="1em" viewBox="0 0 24 24" fill="currentColor">
  <path d="M 8.5 1 A 1.0001 1.0001 0 0 0 8.453125 1.0039062 C 7.5526457 1.0048533 6.779869 1.0113023 6.1230469 1.0996094 C 5.3289773 1.2063688 4.5811884 1.4696004 4.0253906 2.0253906 C 3.4696004 2.5811884 3.2063688 3.3289773 3.0996094 4.1230469 C 2.99285 4.9171164 3 5.82149 3 7 L 3 17 C 3 18.1785 2.9928504 19.082883 3.0996094 19.876953 C 3.2063685 20.671023 3.4696253 21.418791 4.0253906 21.974609 C 4.5811923 22.530381 5.3289817 22.793636 6.1230469 22.900391 C 6.9171124 23.007145 7.82149 23 9 23 L 12 23 C 13.1785 23 14.082887 23.007101 14.876953 22.900391 C 15.671019 22.793636 16.418787 22.530356 16.974609 21.974609 C 17.445534 21.503684 17.714754 20.882996 17.841797 20.234375 C 17.968839 19.585754 17.990653 18.877997 17.998047 18.007812 A 1 1 0 0 0 17.005859 17 A 1 1 0 0 0 15.998047 17.992188 C 15.990947 18.828504 15.957937 19.446106 15.878906 19.849609 C 15.799876 20.253113 15.710022 20.411072 15.560547 20.560547 C 15.384069 20.737 15.176884 20.841673 14.609375 20.917969 C 14.041866 20.994265 13.1785 21 12 21 L 9 21 C 7.82149 21 6.9581298 20.994264 6.390625 20.917969 C 5.8231202 20.841673 5.6158914 20.736976 5.4394531 20.560547 C 5.2629884 20.384065 5.1583296 20.17688 5.0820312 19.609375 C 5.0057329 19.04187 5 18.1785 5 17 L 5 7 C 5 5.82149 5.0057331 4.9581254 5.0820312 4.390625 C 5.1583295 3.8231246 5.2630134 3.6158953 5.4394531 3.4394531 C 5.6158953 3.2630134 5.8231246 3.1583294 6.390625 3.0820312 C 6.760816 3.0322605 7.2574307 3.011619 7.8847656 3.0039062 L 8.1054688 3.4472656 A 1.0001 1.0001 0 0 0 9 4 L 12 4 A 1.0001 1.0001 0 0 0 12.894531 3.4472656 L 13.115234 3.0039062 C 13.742566 3.0116184 14.239182 3.0322588 14.609375 3.0820312 C 15.17688 3.1583292 15.384065 3.2629884 15.560547 3.4394531 C 15.710026 3.5889346 15.799873 3.7468774 15.878906 4.1503906 C 15.957936 4.5539039 15.990941 5.1714666 15.998047 6.0078125 A 1 1 0 0 0 17.005859 7 A 1 1 0 0 0 17.998047 5.9921875 C 17.990653 5.1219734 17.968839 4.4142543 17.841797 3.765625 C 17.714755 3.1169957 17.44553 2.4963191 16.974609 2.0253906 C 16.418791 1.4696253 15.671023 1.2063685 14.876953 1.0996094 C 14.220131 1.0113026 13.447351 1.0048533 12.546875 1.0039062 A 1.0001 1.0001 0 0 0 12.5 1 L 12 1 L 9 1 L 8.5 1 z M 17 7.5 C 15.631145 7.5 14.5 8.6311099 14.5 10 L 14.5 10.708984 C 13.673737 10.954965 13 11.600992 13 12.5 L 13 14.5 C 13 15.592707 13.907293 16.5 15 16.5 L 19 16.5 C 20.092707 16.5 21 15.592707 21 14.5 L 21 12.5 C 21 11.600992 20.326263 10.954965 19.5 10.708984 L 19.5 10 C 19.5 8.6311099 18.368855 7.5 17 7.5 z M 17 9.5 C 17.287945 9.5 17.5 9.7120301 17.5 10 L 17.5 10.5 L 16.5 10.5 L 16.5 10 C 16.5 9.7120301 16.712055 9.5 17 9.5 z M 15 12.5 L 19 12.5 L 19 14.5 L 15 14.5 L 15 12.5 z " fill="currentColor"/>
</svg>
