<svg xmlns="http://www.w3.org/2000/svg" width="1em" height="1em" viewBox="0 0 24 24" fill="currentColor">
  <path d="M 10 1 A 1.0001 1.0001 0 0 0 9.953125 1.0039062 C 9.0526457 1.0048533 8.279869 1.0113023 7.6230469 1.0996094 C 6.8289773 1.2063688 6.0811884 1.4696004 5.5253906 2.0253906 C 4.9696004 2.5811884 4.7063688 3.3289773 4.5996094 4.1230469 C 4.49285 4.9171164 4.5 5.82149 4.5 7 L 4.5 17 C 4.5 18.1785 4.4928504 19.082883 4.5996094 19.876953 C 4.7063685 20.671023 4.9696253 21.418791 5.5253906 21.974609 C 6.0811923 22.530381 6.8289817 22.793636 7.6230469 22.900391 C 8.4171124 23.007145 9.32149 23 10.5 23 L 13.5 23 C 14.6785 23 15.582887 23.007101 16.376953 22.900391 C 17.171019 22.793636 17.918787 22.530356 18.474609 21.974609 C 19.030356 21.418787 19.293636 20.671019 19.400391 19.876953 C 19.507145 19.082888 19.5 18.1785 19.5 17 L 19.5 7 C 19.5 5.82149 19.507101 4.917112 19.400391 4.1230469 C 19.293637 3.3289817 19.030381 2.5811923 18.474609 2.0253906 C 17.918791 1.4696253 17.171023 1.2063685 16.376953 1.0996094 C 15.720131 1.0113026 14.947351 1.0048533 14.046875 1.0039062 A 1.0001 1.0001 0 0 0 14 1 L 10 1 z M 9.3847656 3.0039062 L 9.6054688 3.4472656 A 1.0001 1.0001 0 0 0 10.5 4 L 13.5 4 A 1.0001 1.0001 0 0 0 14.394531 3.4472656 L 14.615234 3.0039062 C 15.242566 3.0116184 15.739182 3.0322588 16.109375 3.0820312 C 16.67688 3.1583292 16.884065 3.2629884 17.060547 3.4394531 C 17.236976 3.6158914 17.341673 3.8231202 17.417969 4.390625 C 17.494264 4.9581301 17.5 5.82149 17.5 7 L 17.5 17 C 17.5 18.1785 17.494299 19.041866 17.417969 19.609375 C 17.341669 20.176884 17.237 20.384069 17.060547 20.560547 C 16.884068 20.737 16.676884 20.841673 16.109375 20.917969 C 15.541866 20.994265 14.6785 21 13.5 21 L 10.5 21 C 9.32149 21 8.4581298 20.994264 7.890625 20.917969 C 7.3231202 20.841673 7.1158914 20.736976 6.9394531 20.560547 C 6.7629884 20.384065 6.6583296 20.17688 6.5820312 19.609375 C 6.5057329 19.04187 6.5 18.1785 6.5 17 L 6.5 7 C 6.5 5.82149 6.5057331 4.9581254 6.5820312 4.390625 C 6.6583295 3.8231246 6.7630134 3.6158953 6.9394531 3.4394531 C 7.1158953 3.2630134 7.3231246 3.1583294 7.890625 3.0820312 C 8.260816 3.0322605 8.7574307 3.011619 9.3847656 3.0039062 z M 12 7.5 A 1 1 0 0 0 11 8.5 L 11 13.386719 C 10.98579 13.370479 10.973114 13.36002 10.958984 13.34375 C 10.34063 12.631565 9.8046875 11.90625 9.8046875 11.90625 A 1 1 0 0 0 8.40625 11.695312 A 1 1 0 0 0 8.1953125 13.09375 C 8.1953125 13.09375 8.765198 13.868435 9.4492188 14.65625 C 9.7912291 15.050158 10.159136 15.449003 10.535156 15.78125 C 10.911176 16.113497 11.169864 16.5 12 16.5 C 12.830081 16.5 13.088812 16.113502 13.464844 15.78125 C 13.840875 15.448998 14.208775 15.050161 14.550781 14.65625 C 15.234794 13.868429 15.804687 13.09375 15.804688 13.09375 A 1 1 0 0 0 15.59375 11.695312 A 1 1 0 0 0 14.195312 11.90625 C 14.195312 11.90625 13.659353 12.631571 13.041016 13.34375 C 13.026886 13.36002 13.01422 13.370479 13 13.386719 L 13 8.5 A 1 1 0 0 0 12 7.5 z " fill="currentColor"/>
</svg>
