<svg xmlns="http://www.w3.org/2000/svg" width="1em" height="1em" viewBox="0 0 24 24" fill="currentColor">
  <path d="M 11.994141 3.5 A 1 1 0 0 0 10.994141 4.5 L 10.994141 10.501953 L 1.9980469 10.501953 A 1.0001 1.0001 0 0 0 0.99804688 11.501953 L 0.99804688 16.212891 C 0.99804686 17.016527 1.4672689 17.324625 1.8105469 17.589844 C 2.1538249 17.855063 2.5285099 18.058309 2.8847656 18.226562 C 3.2504383 18.399233 3.6265563 18.46869 3.9785156 18.478516 L 4.1582031 18.484375 C 4.5692265 19.653168 5.6885848 20.5 6.9902344 20.5 C 8.2857571 20.5 9.4021258 19.660265 9.8183594 18.5 L 14.171875 18.5 C 14.587593 19.660267 15.702523 20.5 16.998047 20.5 C 18.294621 20.5 19.412691 19.659775 19.828125 18.498047 C 20.169023 18.492085 20.474178 18.474305 20.775391 18.427734 C 21.299743 18.346714 21.862117 18.108963 22.248047 17.693359 C 22.279767 17.659189 22.310021 17.624939 22.337891 17.591797 A 1.0001 1.0001 0 0 0 22.337891 17.589844 C 22.718554 17.135315 22.876526 16.572865 22.941406 16.007812 C 22.992577 15.562162 23.000807 15.079971 23.001953 14.5 A 1 1 0 0 0 23.001953 14.486328 C 23.002224 14.335033 23.001953 14.177422 23.001953 14.011719 C 23.001953 12.786719 23.035393 12.027131 22.667969 11.236328 C 22.290568 10.423792 21.64753 9.9739432 20.693359 9.2832031 C 19.854895 8.6762576 19.297421 8.0413546 18.707031 7.0644531 C 17.794615 5.5546654 17.293887 4.6372467 16.3125 4.0507812 C 15.66739 3.6652615 15.00331 3.5483654 14.166016 3.5136719 A 1 1 0 0 0 13.886719 3.5058594 C 13.524773 3.4979776 13.131264 3.5 12.693359 3.5 L 11.994141 3.5 z M 12.994141 5.5 C 13.060492 5.5002397 13.124942 5.5015133 13.1875 5.5019531 L 13.763672 8.1894531 C 13.969956 9.1515417 14.065166 10.093911 14.570312 10.984375 C 15.075458 11.874839 16.164307 12.5 17.529297 12.5 L 20.955078 12.5 C 20.981351 12.726905 20.994855 13.043208 21 13.5 A 1 1 0 0 0 20.001953 14.5 A 1 1 0 0 0 20.978516 15.5 C 20.972462 15.604006 20.964541 15.696886 20.955078 15.779297 C 20.912508 16.150045 20.853824 16.247969 20.804688 16.306641 C 20.796388 16.316441 20.789733 16.324991 20.783203 16.332031 C 20.716533 16.403831 20.732993 16.410341 20.46875 16.451172 C 20.322827 16.473692 20.107855 16.485487 19.824219 16.492188 C 19.406003 15.335564 18.29095 14.5 16.998047 14.5 C 15.702523 14.5 14.587593 15.339733 14.171875 16.5 L 12.994141 16.5 L 12.994141 5.5 z M 15.291016 5.7695312 C 15.676616 6.0028313 16.0875 6.5961492 16.996094 8.0996094 C 17.567622 9.0453022 18.20571 9.8270458 19.005859 10.5 L 17.529297 10.5 C 16.606187 10.5 16.517773 10.366785 16.308594 9.9980469 C 16.099415 9.6293088 15.944019 8.8110527 15.720703 7.7695312 L 15.291016 5.7695312 z M 2.9980469 12.501953 L 10.994141 12.501953 L 10.994141 16.5 L 9.8183594 16.5 C 9.4021258 15.339735 8.2857571 14.5 6.9902344 14.5 C 5.7005973 14.5 4.5900664 15.332285 4.1699219 16.484375 L 4.0351562 16.480469 C 3.9071156 16.476894 3.8067486 16.450299 3.7382812 16.417969 C 3.4724569 16.292424 3.1917001 16.130268 3.0332031 16.007812 C 3.0194508 15.997187 3.0078202 15.986541 2.9980469 15.976562 L 2.9980469 12.501953 z M 2.953125 15.902344 L 2.9550781 15.902344 L 2.9570312 15.904297 L 2.9570312 15.90625 C 2.9610786 15.912453 2.9686766 15.924607 2.9746094 15.947266 C 2.9609029 15.928365 2.9543902 15.911742 2.953125 15.904297 L 2.953125 15.902344 z M 6.9902344 16.5 C 7.5556187 16.5 7.9921875 16.936223 7.9921875 17.5 C 7.9921875 18.063777 7.5556187 18.5 6.9902344 18.5 C 6.4248649 18.5 5.9902344 18.063771 5.9902344 17.5 C 5.9902344 16.936229 6.4248649 16.5 6.9902344 16.5 z M 16.998047 16.5 C 17.563431 16.5 18 16.936229 18 17.5 C 18 18.063771 17.563431 18.5 16.998047 18.5 C 16.432663 18.5 15.998047 18.063771 15.998047 17.5 C 15.998047 16.936229 16.432663 16.5 16.998047 16.5 z " fill="currentColor"/>
</svg>
