<svg xmlns="http://www.w3.org/2000/svg" width="1em" height="1em" viewBox="0 0 24 24" fill="currentColor">
  <path d="M 12 1 C 5.9367124 1 1 5.9367124 1 12 C 1 18.063288 5.9367124 23 12 23 C 18.063288 23 23 18.063288 23 12 C 23 5.9367124 18.063288 1 12 1 z M 12 3 C 16.982407 3 21 7.0175926 21 12 C 21 16.644313 17.509155 20.450167 13 20.945312 L 13 17.916016 C 15.829683 17.436871 18 14.961344 18 12 C 18 8.6981361 15.301864 6 12 6 C 9.0386563 6 6.5631286 8.1703169 6.0839844 11 L 3.0546875 11 C 3.5498331 6.4908443 7.3556865 3 12 3 z M 12 8 C 14.220984 8 16 9.7790164 16 12 C 16 14.220984 14.220984 16 12 16 C 9.7790164 16 8 14.220984 8 12 C 8 9.7790164 9.7790164 8 12 8 z M 3.0546875 13 L 6.0839844 13 C 6.5080326 15.504302 8.4956976 17.491967 11 17.916016 L 11 20.945312 C 6.8190991 20.486212 3.5137879 17.180901 3.0546875 13 z " fill="currentColor"/>
</svg>
