<svg xmlns="http://www.w3.org/2000/svg" width="1em" height="1em" viewBox="0 0 24 24" fill="currentColor">
  <path d="M 12.462891 2.0019531 C 11.972124 2.002381 11.427387 2.1577568 11.009766 2.4707031 C 10.496943 2.8549331 10.194232 3.477342 10.091797 4.0527344 C 9.9893616 4.6281267 10 5.2129681 10 5.9550781 L 10 10.505859 C 10 11.769159 9.9761609 12.540712 10.310547 13.349609 C 10.645031 14.15854 11.205963 14.684073 12.09375 15.568359 L 15.292969 18.755859 C 15.814519 19.275309 16.21732 19.692342 16.697266 20.023438 C 17.177211 20.354533 17.839562 20.572615 18.472656 20.46875 C 19.06155 20.37223 19.614098 20.013855 19.953125 19.591797 C 20.292152 19.169739 20.506017 18.717045 20.783203 18.169922 C 21.248916 17.250792 21.588547 16.266269 21.789062 15.242188 C 22.212271 13.079961 21.994743 10.838541 21.164062 8.8007812 C 20.333386 6.7630938 18.926237 5.0192551 17.117188 3.7910156 C 16.229571 3.1883739 15.26586 2.7236976 14.255859 2.40625 C 13.677305 2.2243888 13.208738 2.0615757 12.669922 2.0117188 C 12.60257 2.0054866 12.533 2.001892 12.462891 2.0019531 z M 12.335938 3.9921875 C 12.363033 3.9891575 12.400296 3.9961262 12.484375 4.0039062 C 12.676559 4.0216892 13.077704 4.1325944 13.65625 4.3144531 C 14.48065 4.5735655 15.267957 4.9522742 15.994141 5.4453125 C 17.474091 6.450113 18.629377 7.8809081 19.3125 9.5566406 C 19.995621 11.232421 20.174563 13.077447 19.826172 14.857422 C 19.661089 15.700539 19.382687 16.510355 19 17.265625 C 18.722786 17.812802 18.519654 18.182124 18.394531 18.337891 C 18.269408 18.493657 18.309501 18.470016 18.150391 18.496094 C 18.035585 18.514924 18.062591 18.534654 17.833984 18.376953 C 17.60538 18.219248 17.226628 17.857341 16.705078 17.337891 L 13.505859 14.152344 C 12.618046 13.26803 12.292119 12.909807 12.158203 12.585938 C 12.024389 12.262234 12 11.769159 12 10.505859 L 12 5.9550781 C 12 5.2129681 12.010527 4.6832839 12.060547 4.4023438 C 12.110567 4.1214036 12.112007 4.1449257 12.208984 4.0722656 C 12.283469 4.0164504 12.3011 3.9960832 12.335938 3.9921875 z M 8.2460938 4.5 A 1 1 0 0 0 7.8613281 4.5625 C 4.4356751 5.8374088 2 9.1426287 2 13 C 2 17.958737 6.0412835 22 11 22 C 12.190664 22 13.332004 21.7679 14.375 21.345703 A 1 1 0 0 0 14.927734 20.042969 A 1 1 0 0 0 13.625 19.492188 C 12.815196 19.81999 11.931136 20 11 20 C 7.1221565 20 4 16.877863 4 13 C 4 9.9834313 5.8992068 7.4272312 8.5585938 6.4375 A 1 1 0 0 0 9.1464844 5.1503906 A 1 1 0 0 0 8.2460938 4.5 z " fill="currentColor"/>
</svg>
