<svg xmlns="http://www.w3.org/2000/svg" width="1em" height="1em" viewBox="0 0 24 24" fill="currentColor">
  <path d="M 12 1 C 5.9367124 1 1 5.9367124 1 12 C 1 13.976329 1.5243648 15.832499 2.4414062 17.4375 A 1 1 0 0 0 2.4746094 17.5 A 1 1 0 0 0 2.5136719 17.560547 C 4.4274669 20.81204 7.9636346 23 12 23 C 16.036364 23 19.572533 20.812038 21.486328 17.560547 A 1 1 0 0 0 21.525391 17.5 A 1 1 0 0 0 21.558594 17.4375 C 22.475634 15.8325 23 13.976328 23 12 C 23 5.9367124 18.063288 1 12 1 z M 11 3.0546875 L 11 6.0839844 C 8.1703169 6.5631286 6 9.0386563 6 12 C 6 12.734841 6.1327625 13.439848 6.3769531 14.091797 L 3.7480469 15.609375 C 3.2663823 14.505513 3 13.284386 3 12 C 3 7.3556865 6.4908443 3.5498331 11 3.0546875 z M 13 3.0546875 C 17.509155 3.5498332 21 7.3556865 21 12 C 21 13.284386 20.733618 14.505513 20.251953 15.609375 L 17.623047 14.091797 C 17.867238 13.439848 18 12.734841 18 12 C 18 9.0386563 15.829683 6.5631286 13 6.0839844 L 13 3.0546875 z M 12 8 C 14.220984 8 16 9.7790164 16 12 C 16 12.699509 15.82289 13.355728 15.511719 13.925781 A 1 1 0 0 0 15.464844 14 A 1 1 0 0 0 15.423828 14.080078 C 14.724856 15.234462 13.457481 16 12 16 C 10.542519 16 9.2751443 15.234461 8.5761719 14.080078 A 1 1 0 0 0 8.5351562 14 A 1 1 0 0 0 8.4882812 13.927734 C 8.1764244 13.357211 8 12.700335 8 12 C 8 9.7790164 9.7790164 8 12 8 z M 7.3808594 15.820312 C 8.4834 17.149857 10.146837 18 12 18 C 13.853163 18 15.5166 17.149857 16.619141 15.820312 L 19.251953 17.341797 C 17.615445 19.563437 14.980308 21 12 21 C 9.0196915 21 6.3845552 19.563437 4.7480469 17.341797 L 7.3808594 15.820312 z " fill="currentColor"/>
</svg>
