<svg xmlns="http://www.w3.org/2000/svg" width="1em" height="1em" viewBox="0 0 24 24" fill="currentColor">
  <path d="M 10.291016 2 C 10.020016 2 9.8596911 1.9961095 9.65625 2.0195312 C 8.2765108 2.1783273 7.1783284 3.2765167 7.0195312 4.65625 C 6.9961129 4.8596791 7 5.0200056 7 5.2910156 C 7 5.3780656 6.9979194 5.4449429 7.0058594 5.5429688 C 7.0576024 6.1823574 7.4161268 6.7615283 7.9648438 7.09375 C 8.0487877 7.144548 8.1076562 7.171992 8.1855469 7.2109375 L 8.4472656 7.3417969 C 8.6788182 7.4575731 8.8013161 7.5310631 8.8535156 7.5605469 C 8.844923 7.6201488 8.828018 7.7622171 8.7773438 8.015625 L 8.1796875 11 C 7.8231777 11.00167 7.5439575 11.016053 7.2246094 11.101562 A 1.0001 1.0001 0 0 0 7.2226562 11.101562 C 6.1889949 11.378629 5.3785416 12.188909 5.1015625 13.222656 C 4.9808131 13.67323 5 14.046016 5 14.666016 C 5 14.976016 4.9816464 15.194089 5.0683594 15.517578 C 5.2528744 16.206192 5.7935559 16.747192 6.4824219 16.931641 C 6.8059125 17.018383 7.0239944 17 7.3339844 17 L 11 17 L 11 21 A 1 1 0 0 0 12 22 A 1 1 0 0 0 13 21 L 13 17 L 16.666016 17 C 16.976016 17 17.193951 17.018471 17.517578 16.931641 C 18.206426 16.747203 18.747203 16.206426 18.931641 15.517578 C 19.018467 15.193952 19 14.976016 19 14.666016 C 19 14.046016 19.01907 13.675068 18.898438 13.224609 A 1.0001 1.0001 0 0 0 18.898438 13.222656 C 18.621374 12.188982 17.811018 11.378626 16.777344 11.101562 A 1.0001 1.0001 0 0 0 16.775391 11.101562 C 16.456065 11.016073 16.176821 11.001663 15.820312 11 L 15.222656 8.015625 C 15.17198 7.7623753 15.155073 7.6202082 15.146484 7.5605469 C 15.198806 7.530962 15.321409 7.4574653 15.552734 7.3417969 L 15.814453 7.2109375 C 15.891163 7.1725515 15.95158 7.1442625 16.035156 7.09375 L 16.037109 7.0917969 C 16.584032 6.7596336 16.941991 6.1826122 16.994141 5.5449219 L 16.994141 5.5429688 C 17.001979 5.4454858 17 5.3773964 17 5.2910156 C 17 5.0200056 17.003836 4.8595481 16.980469 4.65625 C 16.821643 3.2765242 15.723465 2.1783314 14.34375 2.0195312 C 14.140337 1.9961208 13.979984 2 13.708984 2 L 10.291016 2 z M 10.291016 4 L 13.708984 4 C 13.979984 4 14.090647 4.0030294 14.115234 4.0058594 C 14.58232 4.0596194 14.940367 4.4176315 14.994141 4.8847656 C 14.996941 4.9094076 15 5.0200056 15 5.2910156 C 15 5.3419119 15.000126 5.3697582 15 5.3808594 L 15 5.3828125 C 14.9895 5.3879537 14.963938 5.3998507 14.919922 5.421875 L 14.658203 5.5527344 C 14.254856 5.7544178 13.924732 5.8815312 13.605469 6.2578125 C 13.389089 6.5124646 13.240032 6.817998 13.171875 7.1445312 C 13.071053 7.627127 13.173179 7.9658435 13.261719 8.4082031 L 14.019531 12.195312 A 1.0001 1.0001 0 0 0 15 13 L 15.333984 13 C 15.953984 13 16.201624 13.017633 16.259766 13.033203 C 16.605796 13.126493 16.873989 13.395938 16.966797 13.742188 C 16.982347 13.801008 17 14.047322 17 14.666016 C 17 14.83938 16.994065 14.944898 16.992188 14.992188 C 16.944897 14.994065 16.839379 15 16.666016 15 L 12 15 L 7.3339844 15 C 7.1604571 15.000002 7.0550083 14.99405 7.0078125 14.992188 C 7.0059441 14.944955 7 14.839487 7 14.666016 C 7 14.046016 7.0176521 13.800213 7.0332031 13.742188 A 1.0001 1.0001 0 0 0 7.0332031 13.740234 C 7.1259559 13.394107 7.3942299 13.126488 7.7402344 13.033203 C 7.7984477 13.017616 8.0460356 13 8.6660156 13 L 9 13 A 1.0001 1.0001 0 0 0 9.9804688 12.195312 L 10.738281 8.4082031 C 10.82673 7.9659217 10.928878 7.6271425 10.828125 7.1445312 C 10.759909 6.81781 10.610514 6.5122088 10.394531 6.2578125 C 10.075449 5.8820006 9.7452228 5.7544473 9.3417969 5.5527344 L 9.0800781 5.421875 C 9.0353196 5.3994957 9.0100584 5.3877087 9 5.3828125 C 8.9998777 5.3711064 9 5.3416659 9 5.2910156 C 9 5.0200056 9.0030394 4.9092765 9.0058594 4.8847656 C 9.0596216 4.417639 9.4176248 4.0596233 9.8847656 4.0058594 C 9.9092445 4.0030412 10.020016 4 10.291016 4 z " fill="currentColor"/>
</svg>
