<svg xmlns="http://www.w3.org/2000/svg" width="1em" height="1em" viewBox="0 0 24 24" fill="currentColor">
  <path d="M 12 1 C 9.2504209 1 7 3.2504209 7 6 C 7 8.4073895 8.7251388 10.431759 11 10.898438 L 11 18 A 1 1 0 0 0 12 19 A 1 1 0 0 0 13 18 L 13 10.898438 C 15.274861 10.431759 17 8.4073895 17 6 C 17 3.2504209 14.749579 1 12 1 z M 12 3 C 13.668699 3 15 4.3313011 15 6 C 15 7.6686989 13.668699 9 12 9 C 10.331301 9 9 7.6686989 9 6 C 9 4.3313011 10.331301 3 12 3 z M 5.0566406 15.001953 A 1 1 0 0 0 4.5488281 15.107422 C 3.1363854 15.821888 2 16.869784 2 18.316406 C 2 19.155141 2.425473 19.901368 3.0117188 20.46875 C 3.5979645 21.036132 4.3609522 21.478567 5.2578125 21.845703 C 7.0515331 22.579976 9.404102 23 12 23 C 14.595917 23 16.948471 22.579977 18.742188 21.845703 C 19.639046 21.478566 20.402039 21.036132 20.988281 20.46875 C 21.574524 19.901368 22 19.155138 22 18.316406 C 22 16.869784 20.863615 15.821887 19.451172 15.107422 A 1 1 0 0 0 18.107422 15.548828 A 1 1 0 0 0 18.548828 16.892578 C 19.637985 17.443513 20 18.008429 20 18.316406 C 20 18.495024 19.92226 18.717092 19.597656 19.03125 C 19.273055 19.345408 18.716192 19.696518 17.984375 19.996094 C 16.520742 20.595245 14.374683 21 12 21 C 9.625338 21 7.4792644 20.595246 6.015625 19.996094 C 5.2838053 19.696518 4.726948 19.345409 4.4023438 19.03125 C 4.0777395 18.717091 4 18.495021 4 18.316406 C 4 18.008429 4.3620146 17.443513 5.4511719 16.892578 A 1 1 0 0 0 5.8925781 15.548828 A 1 1 0 0 0 5.3125 15.050781 A 1 1 0 0 0 5.0566406 15.001953 z " fill="currentColor"/>
</svg>
