<svg xmlns="http://www.w3.org/2000/svg" width="1em" height="1em" viewBox="0 0 24 24" fill="currentColor">
  <path d="M 12 1 C 5.9367124 1 1 5.9367124 1 12 C 1 18.063288 5.9367124 23 12 23 C 18.063288 23 23 18.063288 23 12 C 23 5.9367124 18.063288 1 12 1 z M 12 3 C 16.982407 3 21 7.0175926 21 12 C 21 16.982407 16.982407 21 12 21 C 11.039059 21 10.113356 20.851207 9.2460938 20.574219 L 10.367188 17.773438 C 10.887536 17.920391 11.435403 18 12 18 C 15.30185 18 18 15.30185 18 12 C 18 8.6981334 15.301846 6 12 6 C 8.6981382 6 6 8.6981382 6 12 C 6 13.089156 6.292029 14.117421 6.8027344 15 A 1 1 0 0 0 8.1699219 15.365234 A 1 1 0 0 0 8.5351562 14 C 8.1947816 13.411779 8 12.732444 8 12 C 8 9.7790218 9.7790218 8 12 8 C 14.220954 8 16 9.7790266 16 12 C 16 14.22095 14.22095 16 12 16 C 11.694836 16 11.399042 15.96635 11.115234 15.902344 L 12.927734 11.371094 A 1 1 0 0 0 12.371094 10.072266 A 1 1 0 0 0 11.072266 10.628906 L 7.421875 19.755859 C 4.7722435 18.192185 3 15.308819 3 12 C 3 7.0175926 7.0175926 3 12 3 z " fill="currentColor"/>
</svg>
