<svg xmlns="http://www.w3.org/2000/svg" width="1em" height="1em" viewBox="0 0 24 24" fill="currentColor">
  <path d="M 10.605469 2 C 8.1109436 2 6.2248936 1.9902971 4.7324219 2.2207031 C 3.2399501 2.4511091 1.9814146 3.0295122 1.3691406 4.2148438 C 0.75687421 5.4001814 0.98511672 6.7607115 1.6152344 8.1757812 C 1.7300466 8.4336177 1.8582437 8.6979897 2 8.9726562 A 1 1 0 0 0 2 9 A 1 1 0 0 0 2.4804688 9.8535156 C 3.0628986 10.876883 3.796226 12.035675 4.6601562 13.40625 L 6.9042969 16.966797 C 7.8638033 18.488999 8.5846209 19.647911 9.3203125 20.507812 C 10.056004 21.367714 10.944359 22 12 22 C 13.055641 22 13.943998 21.36771 14.679688 20.507812 C 15.415377 19.647915 16.136155 18.488994 17.095703 16.966797 L 17.890625 15.705078 A 1 1 0 0 0 17.892578 15.703125 A 1 1 0 0 0 18.121094 15.337891 A 1 1 0 0 0 18.123047 15.335938 L 19.339844 13.40625 C 20.203792 12.035673 20.937107 10.876883 21.519531 9.8535156 A 1 1 0 0 0 22 9 A 1 1 0 0 0 22 8.9726562 C 22.141756 8.6979892 22.269952 8.4336181 22.384766 8.1757812 C 23.014888 6.7607123 23.243113 5.4001769 22.630859 4.2148438 C 22.018597 3.0294864 20.760064 2.4511101 19.267578 2.2207031 C 17.775093 1.9902962 15.889031 2 13.394531 2 L 10.605469 2 z M 10.605469 4 L 13.394531 4 C 15.889031 4 17.744676 4.0092 18.962891 4.1972656 C 20.181105 4.3853312 20.601178 4.6442799 20.853516 5.1328125 C 21.105862 5.6213594 21.081394 6.1848402 20.556641 7.3632812 C 20.467874 7.5626247 20.36605 7.774691 20.25 8 L 3.75 8 C 3.6339495 7.7746912 3.5321252 7.5626248 3.4433594 7.3632812 C 2.9186095 6.1848384 2.8941308 5.6213648 3.1464844 5.1328125 C 3.3988404 4.644264 3.8189111 4.3853296 5.0371094 4.1972656 C 6.2553076 4.0092016 8.1109435 4 10.605469 4 z M 4.8945312 10 L 19.105469 10 C 18.681775 10.69715 18.193691 11.474847 17.648438 12.339844 L 16.601562 14 L 7.3984375 14 L 6.3515625 12.339844 C 5.8063186 11.474846 5.3182263 10.697149 4.8945312 10 z M 8.6582031 16 L 15.341797 16 C 14.413622 17.471693 13.714361 18.561212 13.160156 19.208984 C 12.593521 19.871287 12.315559 20 12 20 C 11.684441 20 11.406475 19.871282 10.839844 19.208984 C 10.285644 18.561216 9.5863353 17.471688 8.6582031 16 z " fill="currentColor"/>
</svg>
