<svg xmlns="http://www.w3.org/2000/svg" width="1em" height="1em" viewBox="0 0 24 24" fill="currentColor">
  <path d="M 10.585938 1.0996094 C 10.510479 1.1030959 10.434355 1.1095622 10.357422 1.1210938 C 7.5537384 1.5413206 5.095504 3.0211595 3.4042969 5.1367188 C 3.0151175 5.6235482 2.8756518 6.206736 2.9375 6.7675781 C 2.4205903 6.9933316 1.9854679 7.4024613 1.7578125 7.9824219 C 1.2689732 9.2277778 1 10.584871 1 12 C 1 13.415018 1.2690407 14.772341 1.7578125 16.017578 C 1.9854398 16.597558 2.4206374 17.007947 2.9375 17.234375 C 2.8762353 17.794566 3.0156729 18.377051 3.4042969 18.863281 C 5.0955122 20.978881 7.5536088 22.458647 10.357422 22.878906 C 10.972892 22.971147 11.545937 22.798934 12 22.464844 C 12.454053 22.798907 13.02713 22.971152 13.642578 22.878906 C 16.446311 22.458649 18.904507 20.979008 20.595703 18.863281 C 20.984354 18.377092 21.123739 17.794533 21.0625 17.234375 C 21.579341 17.007911 22.014592 16.597555 22.242188 16.017578 C 22.731014 14.772232 23 13.415002 23 12 C 23 10.584907 22.73114 9.2278645 22.242188 7.9824219 C 22.014564 7.4025491 21.57929 6.9916787 21.0625 6.765625 C 21.124007 6.2051832 20.984639 5.6231774 20.595703 5.1367188 C 18.90452 3.0211944 16.446223 1.5413215 13.642578 1.1210938 C 13.027128 1.0288551 12.454055 1.2010917 12 1.5351562 C 11.602695 1.2428367 11.11415 1.0752035 10.585938 1.0996094 z M 10.691406 3.0957031 C 10.873328 3.0878767 11 3.2330615 11 3.5 L 11 4.1347656 C 8.8280399 4.4123852 6.9530955 5.5349209 5.6855469 7.1972656 L 5.1386719 6.8828125 L 5.1367188 6.8828125 C 4.8910205 6.7402983 4.8395845 6.5438973 4.9667969 6.3847656 C 6.3518297 4.6522049 8.3611002 3.4433225 10.654297 3.0996094 C 10.666895 3.0977211 10.679278 3.0962249 10.691406 3.0957031 z M 13.273438 3.0957031 C 13.296683 3.0940536 13.320483 3.0958296 13.345703 3.0996094 C 15.638858 3.4433216 17.648187 4.6522299 19.033203 6.3847656 C 19.160423 6.543886 19.108997 6.7402807 18.863281 6.8828125 C 18.862789 6.8830979 18.861822 6.8825276 18.861328 6.8828125 L 18.314453 7.1972656 C 17.047062 5.5351922 15.171554 4.4125885 13 4.1347656 L 13 3.5 C 13 3.250787 13.110722 3.1072495 13.273438 3.0957031 z M 11 6.2714844 L 11 10.267578 L 7.53125 8.265625 C 8.4131113 7.2143428 9.5900251 6.5246186 11 6.2714844 z M 13 6.2714844 C 14.409466 6.5245282 15.586928 7.2129555 16.46875 8.2636719 L 13 10.267578 L 13 6.2714844 z M 20.115234 8.5332031 C 20.239612 8.5299975 20.334483 8.5947444 20.380859 8.7128906 A 1.0001 1.0001 0 0 0 20.380859 8.7148438 C 20.780307 9.7323044 21 10.837093 21 12 C 21 13.162798 20.780233 14.269655 20.380859 15.287109 C 20.306749 15.475967 20.109761 15.529058 19.863281 15.386719 L 19.861328 15.384766 L 19.316406 15.070312 C 19.717864 14.115613 20 13.096446 20 12 C 20 10.903481 19.717906 9.8863673 19.316406 8.9316406 L 19.861328 8.6152344 C 19.8618 8.6149621 19.86281 8.615507 19.863281 8.6152344 C 19.955739 8.5618507 20.040608 8.5351265 20.115234 8.5332031 z M 3.8476562 8.5351562 C 3.9303751 8.5276316 4.0288127 8.5529359 4.1367188 8.6152344 L 4.1386719 8.6152344 L 4.6816406 8.9296875 C 4.2797254 9.8848279 4 10.902831 4 12 C 4 13.096742 4.2799854 14.117421 4.6816406 15.072266 L 4.1386719 15.384766 L 4.1367188 15.386719 C 4.1287149 15.391352 4.1212181 15.395669 4.1132812 15.400391 C 3.8780556 15.525634 3.6908958 15.469938 3.6191406 15.287109 C 3.2198124 14.269746 3 13.162782 3 12 C 3 10.837129 3.2197399 9.7323478 3.6191406 8.7148438 C 3.6608796 8.6085122 3.7413035 8.5448309 3.8476562 8.5351562 z M 6.5351562 10 L 10 12 L 8.5839844 12.818359 L 6.5351562 14 C 6.297438 13.354961 6 12.731292 6 12 C 6 11.268205 6.2971266 10.645388 6.5351562 10 z M 17.464844 10 C 17.702877 10.645387 18 11.268195 18 12 C 18 12.73132 17.702548 13.354979 17.464844 14 L 14 12 L 17.464844 10 z M 11 13.734375 L 11 17.728516 C 9.5913531 17.47561 8.4147752 16.785953 7.5332031 15.736328 L 11 13.734375 z M 13 13.734375 L 16.46875 15.734375 C 15.586986 16.785156 14.409564 17.475442 13 17.728516 L 13 13.734375 z M 5.6855469 16.802734 C 6.9530668 18.465281 8.8278838 19.587584 11 19.865234 L 11 20.5 C 11 20.784701 10.855862 20.930606 10.654297 20.900391 C 8.3609898 20.55665 6.3498884 19.347835 4.9648438 17.615234 C 4.8456838 17.466147 4.8846971 17.284172 5.0917969 17.144531 C 5.1066487 17.136383 5.1220092 17.127632 5.1367188 17.119141 L 5.6855469 16.802734 z M 18.314453 16.802734 L 18.863281 17.119141 C 18.878001 17.127641 18.893341 17.136375 18.908203 17.144531 C 19.115193 17.284155 19.154201 17.466315 19.035156 17.615234 C 17.650152 19.347908 15.638971 20.556648 13.345703 20.900391 C 13.143946 20.930631 13 20.784782 13 20.5 L 13 19.865234 C 15.172083 19.587585 17.046944 18.46521 18.314453 16.802734 z " fill="currentColor"/>
</svg>
