<svg xmlns="http://www.w3.org/2000/svg" width="1em" height="1em" viewBox="0 0 24 24" fill="currentColor">
  <path d="M 18.878906 2 C 18.051464 2 17.256971 2.3289373 16.671875 2.9140625 L 12.150391 7.4355469 C 11.765696 7.2409084 11.370436 7.0733008 10.96875 6.9316406 A 1 1 0 0 0 9.6933594 7.5429688 A 1 1 0 0 0 10.304688 8.8183594 C 11.097468 9.0979447 11.852685 9.5059145 12.542969 10.042969 L 11.476562 11.109375 C 10.441331 10.373597 9.2205294 10.00586 8 10.005859 C 6.4623673 10.005859 4.9251929 10.590383 3.7578125 11.757812 C 1.4230295 14.09256 1.4230295 17.90744 3.7578125 20.242188 C 6.0925732 22.577044 9.9074533 22.577054 12.242188 20.242188 C 14.336278 18.148203 14.552835 14.862974 12.890625 12.523438 L 13.958984 11.455078 C 14.50112 12.148903 14.911989 12.90919 15.193359 13.707031 A 1 1 0 0 0 16.46875 14.318359 A 1 1 0 0 0 17.080078 13.042969 C 16.936508 12.635868 16.76634 12.235316 16.568359 11.845703 L 21.085938 7.328125 C 21.670993 6.7430403 22 5.9485409 22 5.1210938 C 22 3.4091093 20.590935 2 18.878906 2 z M 18.878906 4 C 19.510077 4 20 4.4899382 20 5.1210938 C 20 5.4188668 19.88242 5.7035072 19.671875 5.9140625 L 19 6.5859375 L 17.414062 5 L 18.085938 4.328125 C 18.296442 4.1176102 18.581148 4 18.878906 4 z M 16 6.4140625 L 17.585938 8 L 15.458984 10.126953 C 15.228932 9.8397037 14.980656 9.5626603 14.714844 9.296875 C 14.445041 9.0270582 14.162992 8.7759468 13.871094 8.5429688 L 16 6.4140625 z M 8 11.994141 C 9.0215798 11.99414 10.042902 12.386608 10.828125 13.171875 C 12.398665 14.742335 12.398665 17.257665 10.828125 18.828125 C 9.2576787 20.39866 6.7423543 20.398669 5.171875 18.828125 C 3.601398 17.257672 3.601398 14.742328 5.171875 13.171875 C 5.9571146 12.386603 6.9784202 11.994141 8 11.994141 z M 8 14.75 C 7.3216244 14.75 6.75 15.321567 6.75 16 C 6.75 16.678433 7.3216244 17.25 8 17.25 C 8.6783756 17.25 9.25 16.678433 9.25 16 C 9.25 15.321567 8.6783756 14.75 8 14.75 z " fill="currentColor"/>
</svg>
