<svg xmlns="http://www.w3.org/2000/svg" width="1em" height="1em" viewBox="0 0 24 24" fill="currentColor">
  <path d="M 18.90625 2.5 C 18.086132 2.5 17.29866 2.826443 16.71875 3.40625 L 14.125 6 L 6.5546875 6 C 5.6836018 6 4.8289815 6.2373818 4.0820312 6.6855469 C 2.7687473 7.4735331 2.9086891 9.5490334 4.3164062 10.152344 L 8.2753906 11.849609 L 7.2617188 12.863281 L 5.6386719 12.863281 C 5.2644219 12.863281 5.0151006 12.856783 4.7109375 12.914062 C 4.5478478 12.944862 4.3867636 12.989113 4.2304688 13.046875 C 3.9401022 13.154319 3.7290516 13.288006 3.4082031 13.480469 C 3.1202388 13.65323 2.8925364 13.784796 2.6699219 13.951172 C 2.4473074 14.117548 2.1464064 14.361229 2.0371094 14.837891 C 1.9555324 15.19343 2.0071414 15.566838 2.1816406 15.886719 C 2.4159716 16.316077 2.771942 16.468518 3.03125 16.568359 C 3.290558 16.668199 3.5451994 16.733922 3.8691406 16.822266 L 6.8613281 17.638672 L 7.6777344 20.630859 C 7.7660894 20.954877 7.8317713 21.20943 7.9316406 21.46875 C 8.0315096 21.72807 8.1842218 22.082099 8.6132812 22.316406 C 8.9335061 22.491267 9.3065507 22.544566 9.6621094 22.462891 C 10.139054 22.353647 10.382483 22.050731 10.548828 21.828125 C 10.715174 21.605519 10.84677 21.379732 11.019531 21.091797 C 11.211968 20.771002 11.345656 20.560035 11.453125 20.269531 C 11.510945 20.113118 11.555147 19.952174 11.585938 19.789062 C 11.643178 19.484907 11.636719 19.235528 11.636719 18.861328 L 11.636719 17.238281 L 12.650391 16.224609 L 14.347656 20.183594 C 14.950895 21.591282 17.026527 21.731245 17.814453 20.417969 C 18.262683 19.671004 18.5 18.816398 18.5 17.945312 L 18.5 10.375 L 21.09375 7.78125 C 21.673589 7.2013662 22 6.4138761 22 5.59375 C 22 3.8970011 20.602927 2.5 18.90625 2.5 z M 18.90625 4.5 C 19.521973 4.5 20 4.9779389 20 5.59375 C 20 5.8841639 19.885048 6.1618113 19.679688 6.3671875 L 9.9296875 16.117188 A 1.0001 1.0001 0 0 0 9.6367188 16.824219 L 9.6367188 18.861328 C 9.6367188 19.235528 9.6320588 19.359724 9.6210938 19.417969 C 9.6108837 19.472059 9.5949469 19.525386 9.5761719 19.576172 C 9.5704619 19.591592 9.513732 19.683695 9.5 19.710938 L 8.640625 16.560547 A 1.0001 1.0001 0 0 0 7.9394531 15.859375 L 4.7890625 15 C 4.8163225 14.98626 4.908388 14.929538 4.9238281 14.923828 C 4.9747931 14.904988 5.0280011 14.889106 5.0820312 14.878906 C 5.1403083 14.867936 5.2644219 14.863281 5.6386719 14.863281 L 7.6757812 14.863281 A 1.0001 1.0001 0 0 0 8.3828125 14.570312 L 18.132812 4.8203125 C 18.338302 4.6148595 18.615768 4.5 18.90625 4.5 z M 6.5546875 8 L 12.125 8 L 9.7988281 10.326172 L 5.2304688 8.3671875 C 5.6398545 8.145871 6.0879784 8 6.5546875 8 z M 16.5 12.375 L 16.5 17.945312 C 16.5 18.412022 16.354154 18.860152 16.132812 19.269531 L 14.173828 14.701172 L 16.5 12.375 z " fill="currentColor"/>
</svg>
