<svg xmlns="http://www.w3.org/2000/svg" width="1em" height="1em" viewBox="0 0 24 24" fill="currentColor">
  <path d="M 12.052734 1.0078125 C 11.744121 1.0026666 11.438959 1.059585 11.164062 1.1425781 C 10.614267 1.3085644 10.053933 1.5735214 9.3242188 1.9101562 L 4.8242188 3.9863281 C 4.2190632 4.2655061 3.7193742 4.4382889 3.3378906 5.0078125 C 2.9563976 5.5773274 3 6.1276931 3 6.7519531 L 3 21 L 2 21 A 1 1 0 0 0 1 22 A 1 1 0 0 0 2 23 L 22 23 A 1 1 0 0 0 23 22 A 1 1 0 0 0 22 21 L 21 21 L 21 11.236328 C 21 10.935628 21.004303 10.688984 20.970703 10.410156 C 20.937081 10.131328 20.838832 9.7882423 20.636719 9.5078125 C 20.232266 8.9470781 19.730998 8.7962961 19.103516 8.5273438 L 14 6.3398438 L 14 4.6757812 C 14 3.9230412 14.009302 3.3402385 13.919922 2.7851562 C 13.83058 2.2300738 13.536014 1.5720292 12.960938 1.2441406 C 12.673413 1.0801686 12.361348 1.0129584 12.052734 1.0078125 z M 11.929688 3.0058594 C 11.933242 3.0302907 11.938799 3.0610994 11.945312 3.1015625 C 11.989369 3.3752805 12 3.9230413 12 4.6757812 L 12 6.9511719 A 1 1 0 0 0 12 7.0507812 L 12 21 L 5 21 L 5 6.7519531 C 5 6.3678644 5.0154932 6.1916408 5.0175781 6.1289062 C 5.0825642 6.0947387 5.2649897 5.9859388 5.6621094 5.8027344 L 10.162109 3.7265625 C 10.891825 3.3899273 11.428898 3.1512243 11.742188 3.0566406 C 11.830608 3.0299459 11.890011 3.0151068 11.929688 3.0058594 z M 7.5 8 A 1 1 0 0 0 6.5 9 A 1 1 0 0 0 7.5 10 L 9.5 10 A 1 1 0 0 0 10.5 9 A 1 1 0 0 0 9.5 8 L 7.5 8 z M 14 8.5175781 L 18.316406 10.367188 C 18.791102 10.570651 18.95804 10.673844 18.988281 10.679688 C 18.996573 10.772698 19 10.960555 19 11.236328 L 19 21 L 14 21 L 14 8.5175781 z M 7.5 12 A 1 1 0 0 0 6.5 13 A 1 1 0 0 0 7.5 14 L 9.5 14 A 1 1 0 0 0 10.5 13 A 1 1 0 0 0 9.5 12 L 7.5 12 z M 7.5 16 A 1 1 0 0 0 6.5 17 A 1 1 0 0 0 7.5 18 L 9.5 18 A 1 1 0 0 0 10.5 17 A 1 1 0 0 0 9.5 16 L 7.5 16 z " fill="currentColor"/>
</svg>
