<svg xmlns="http://www.w3.org/2000/svg" width="1em" height="1em" viewBox="0 0 24 24" fill="currentColor">
  <path d="M 12 1 C 5.9367124 1 1 5.9367124 1 12 C 1 18.063288 5.9367124 23 12 23 C 18.063288 23 23 18.063288 23 12 C 23 5.9367124 18.063288 1 12 1 z M 12 3 C 16.982407 3 21 7.0175926 21 12 C 21 16.982407 16.982407 21 12 21 C 7.0175926 21 3 16.982407 3 12 C 3 7.0175926 7.0175926 3 12 3 z M 12 6.5 A 1 1 0 0 0 11 7.5 L 11 9.6816406 L 8.5 9.6816406 A 1 1 0 0 0 7.5 10.681641 A 1 1 0 0 0 8.5 11.681641 L 11 11.681641 L 11 13.863281 A 1 1 0 0 0 12 14.863281 A 1 1 0 0 0 13 13.863281 L 13 11.681641 L 15.5 11.681641 A 1 1 0 0 0 16.5 10.681641 A 1 1 0 0 0 15.5 9.6816406 L 13 9.6816406 L 13 7.5 A 1 1 0 0 0 12 6.5 z M 8.5 15.5 A 1 1 0 0 0 7.5 16.5 A 1 1 0 0 0 8.5 17.5 L 15.5 17.5 A 1 1 0 0 0 16.5 16.5 A 1 1 0 0 0 15.5 15.5 L 8.5 15.5 z " fill="currentColor"/>
</svg>
