<svg xmlns="http://www.w3.org/2000/svg" width="1em" height="1em" viewBox="0 0 24 24" fill="currentColor">
  <path d="M 9 1 C 7.3708646 1 5.9400456 2.1167707 5.5449219 3.6972656 L 5.1953125 5.0917969 C 4.9529576 5.1468047 4.7218291 5.232001 4.4863281 5.3652344 C 3.7838759 5.7626552 3.2831443 6.4359673 3.0800781 7.2167969 C 2.8611228 8.058706 3.0740781 8.7653262 3.3320312 9.9804688 C 3.6337905 11.401985 3.7764772 12.218142 4.2597656 12.982422 C 4.7443235 13.748574 5.4470647 14.348921 6.2773438 14.689453 C 6.9813562 14.978139 7.6674058 14.999967 8.6914062 15 L 9.0488281 17.564453 C 8.845197 17.539708 8.7052354 17.462699 8.28125 17.636719 C 8.0009088 17.751755 7.7559661 17.933532 7.5625 18.158203 C 7.2884689 18.476367 7.2067123 18.756674 7.0683594 19.113281 C 6.9719205 19.361868 6.7287686 19.807865 6.5859375 20.376953 C 6.4431064 20.946041 6.472818 21.835704 7.0722656 22.441406 C 7.4100453 22.782675 7.8609958 22.912894 8.2304688 22.958984 C 8.5999415 23.005075 8.9634181 23 9.4238281 23 L 14.576172 23 C 15.036572 23 15.398096 23.005104 15.767578 22.958984 C 16.13706 22.912894 16.589916 22.782741 16.927734 22.441406 C 17.527193 21.835692 17.556915 20.946036 17.414062 20.376953 C 17.271211 19.80787 17.02807 19.361844 16.931641 19.113281 C 16.793311 18.756605 16.711364 18.476286 16.4375 18.158203 C 16.244077 17.933629 15.999182 17.751757 15.71875 17.636719 C 15.29474 17.462664 15.154796 17.539703 14.951172 17.564453 L 15.308594 15 C 16.332542 14.999972 17.018641 14.978162 17.722656 14.689453 C 18.553031 14.348924 19.255721 13.748606 19.740234 12.982422 C 20.223513 12.218157 20.36617 11.401975 20.667969 9.9804688 C 20.925863 8.7653449 21.138988 8.0587952 20.919922 7.2167969 C 20.716902 6.4359737 20.216183 5.7626627 19.513672 5.3652344 C 19.278177 5.2320172 19.047044 5.1468037 18.804688 5.0917969 L 18.455078 3.6972656 C 18.059927 2.1167729 16.629129 1 15 1 A 1 1 0 0 0 14 2 A 1 1 0 0 0 15 3 C 15.721671 3 16.340576 3.4834465 16.515625 4.1835938 L 16.71875 5 L 7.28125 5 L 7.484375 4.1835938 C 7.6594113 3.4834487 8.2783154 3 9 3 A 1 1 0 0 0 10 2 A 1 1 0 0 0 9 1 z M 7.1582031 7 L 16.841797 7 C 18.016897 7 18.463562 7.068283 18.529297 7.1054688 C 18.739985 7.2246605 18.912395 7.4438663 18.984375 7.7207031 C 19.016305 7.8434448 18.968846 8.35123 18.710938 9.5664062 C 18.409137 10.98792 18.252149 11.592528 18.048828 11.914062 C 17.778542 12.341478 17.397115 12.661772 16.962891 12.839844 C 16.725227 12.937306 16.345666 12.979574 15.587891 12.994141 L 15.707031 12.138672 A 1 1 0 0 0 14.853516 11.009766 A 1 1 0 0 0 13.724609 11.861328 L 12.949219 17.435547 C 12.904219 17.758433 12.804389 18.035252 12.974609 18.515625 C 13.104557 18.882383 13.433417 19.230094 13.755859 19.375 C 14.078301 19.519906 14.345167 19.525165 14.544922 19.525391 C 14.737933 19.525608 14.874815 19.534215 14.941406 19.533203 C 14.963755 19.584736 15.004917 19.679318 15.066406 19.837891 C 15.231377 20.263128 15.415936 20.62954 15.474609 20.863281 C 15.493589 20.938897 15.499595 20.967574 15.5 20.976562 L 15.5 20.978516 L 15.498047 20.978516 L 15.496094 20.976562 L 15.494141 20.974609 C 15.333174 20.992727 15.023264 21 14.576172 21 L 9.4238281 21 C 8.9767262 21 8.6668033 20.992699 8.5058594 20.974609 L 8.5039062 20.976562 L 8.5019531 20.978516 L 8.5 20.978516 L 8.5 20.976562 C 8.5004059 20.967575 8.5064131 20.938895 8.5253906 20.863281 C 8.5840546 20.629544 8.7686326 20.263104 8.9335938 19.837891 C 8.9951157 19.679316 9.0362433 19.584743 9.0585938 19.533203 C 9.1251827 19.534219 9.2620843 19.525608 9.4550781 19.525391 C 9.6548333 19.525165 9.9216942 19.519891 10.244141 19.375 C 10.566587 19.230087 10.895456 18.882382 11.025391 18.515625 C 11.195611 18.035252 11.095781 17.758433 11.050781 17.435547 L 10.275391 11.861328 A 1 1 0 0 0 9.1464844 11.009766 A 1 1 0 0 0 8.2929688 12.138672 L 8.4121094 12.994141 C 7.654326 12.979581 7.2748436 12.937328 7.0371094 12.839844 C 6.6029485 12.661776 6.221514 12.34151 5.9511719 11.914062 C 5.7478603 11.592541 5.5908233 10.98793 5.2890625 9.5664062 C 5.031113 8.3512687 4.9836804 7.843534 5.015625 7.7207031 C 5.0876188 7.4438727 5.2600153 7.2246679 5.4707031 7.1054688 C 5.536331 7.0683402 5.9831031 7 7.1582031 7 z " fill="currentColor"/>
</svg>
