<svg xmlns="http://www.w3.org/2000/svg" width="1em" height="1em" viewBox="0 0 24 24" fill="currentColor">
  <path d="M 19.490234 1 A 1 1 0 0 0 18.787109 1.3027344 A 1 1 0 0 0 18.806641 2.7167969 C 19.067702 2.9706916 19.425661 3.2375242 19.763672 3.5 L 16.005859 3.5 A 1 1 0 0 0 15.005859 4.5 A 1 1 0 0 0 16.005859 5.5 L 19.763672 5.5 C 19.425661 5.7624758 19.0677 6.0293084 18.806641 6.2832031 A 1 1 0 0 0 18.787109 7.6972656 A 1 1 0 0 0 20.201172 7.7167969 C 20.300752 7.6199479 20.986425 7.1034105 21.589844 6.5917969 C 21.891551 6.3359904 22.188376 6.0674826 22.445312 5.765625 C 22.70225 5.4637674 23.001953 5.1494492 23.001953 4.5 C 23.001953 3.8505508 22.70225 3.5362326 22.445312 3.234375 C 22.188375 2.9325174 21.891553 2.6640099 21.589844 2.4082031 C 20.986425 1.8965895 20.300754 1.3800522 20.201172 1.2832031 A 1 1 0 0 0 19.490234 1 z M 11.070312 4.9921875 C 10.783215 4.9896062 10.507609 5.0369884 10.263672 5.1132812 C 9.7757966 5.2658669 9.3762568 5.5162015 9.0371094 5.7695312 L 4.1386719 9.4296875 C 3.7932132 9.6877205 3.374542 9.8261719 2.9453125 9.8261719 L 1.9980469 9.8261719 A 1 1 0 0 0 0.99804688 10.826172 A 1 1 0 0 0 1.9980469 11.826172 L 2.9453125 11.826172 C 3.806303 11.826172 4.644003 11.546617 5.3339844 11.03125 A 1.0001 1.0001 0 0 0 5.3359375 11.03125 L 10.234375 7.3710938 C 10.460358 7.2022936 10.695546 7.0733337 10.861328 7.0214844 C 11.02711 6.9696354 11.085622 6.9782445 11.154297 7.0078125 C 11.436645 7.1293943 11.594495 7.3197216 11.626953 7.4960938 C 11.659343 7.6721135 11.639613 8.0302937 11.005859 8.6601562 L 11.003906 8.6621094 L 9.3164062 10.240234 A 1.0001 1.0001 0 0 0 10 11.970703 L 20.388672 11.970703 C 20.631115 11.977403 20.710324 12.039643 20.806641 12.15625 C 20.902961 12.272854 20.98112 12.479489 20.984375 12.697266 C 20.987675 12.915043 20.918165 13.120786 20.822266 13.242188 C 20.727176 13.362569 20.629135 13.437737 20.353516 13.457031 L 14.478516 13.457031 A 1.0001 1.0001 0 0 0 13.488281 14.585938 C 13.508531 14.742921 13.499941 15.445203 13.371094 16.224609 C 13.242249 17.004016 13.006389 17.913138 12.65625 18.712891 C 12.306111 19.512643 11.840217 20.188734 11.326172 20.572266 C 10.812127 20.955798 10.285986 21.120047 9.4335938 20.923828 C 9.2213224 20.874978 9.0064446 20.826705 8.7949219 20.779297 C 8.0396493 20.610014 6.3911342 19.977326 5.640625 19.451172 C 4.2985808 18.510193 2.9261306 18.818359 1.9980469 18.818359 A 1 1 0 0 0 0.99804688 19.818359 A 1 1 0 0 0 1.9980469 20.818359 C 3.2302831 20.818359 3.8423717 20.63227 4.4921875 21.087891 C 5.6550583 21.903136 7.2762944 22.488151 8.3574219 22.730469 C 8.5661992 22.777259 8.7788394 22.825299 8.9863281 22.873047 C 10.342691 23.185278 11.603549 22.858707 12.521484 22.173828 C 13.43942 21.488951 14.049406 20.51806 14.488281 19.515625 C 14.927156 18.51319 15.192741 17.464259 15.34375 16.550781 C 15.41812 16.100872 15.38354 15.820974 15.40625 15.457031 L 20.416016 15.457031 A 1.0001 1.0001 0 0 0 20.480469 15.455078 C 21.271009 15.403178 21.968503 15.01733 22.392578 14.480469 C 22.816653 13.943608 22.993783 13.297392 22.984375 12.667969 C 22.974975 12.038546 22.779596 11.403371 22.349609 10.882812 C 21.919622 10.362253 21.221866 9.9921684 20.443359 9.9707031 A 1.0001 1.0001 0 0 0 20.416016 9.9707031 L 12.488281 9.9707031 C 13.348936 9.0708307 13.764106 8.0604641 13.59375 7.1347656 C 13.416658 6.1724653 12.710665 5.5014432 11.945312 5.171875 C 11.656 5.0473138 11.35741 4.9947688 11.070312 4.9921875 z " fill="currentColor"/>
</svg>
