<svg xmlns="http://www.w3.org/2000/svg" width="1em" height="1em" viewBox="0 0 24 24" fill="currentColor">
  <path d="M 4.5136719 1 A 1 1 0 0 0 3.8027344 1.2832031 C 3.703048 1.3800962 3.017825 1.8966057 2.4140625 2.4082031 C 2.1121813 2.6640019 1.8156766 2.9325289 1.5585938 3.234375 C 1.3015111 3.5362211 1 3.8502651 1 4.5 C 1 5.1497349 1.3015111 5.4637789 1.5585938 5.765625 C 1.8156765 6.0674711 2.1121813 6.3359981 2.4140625 6.5917969 C 3.017825 7.1033943 3.703048 7.6199038 3.8027344 7.7167969 A 1 1 0 0 0 5.2167969 7.6972656 A 1 1 0 0 0 5.1972656 6.2832031 C 4.9364535 6.0296991 4.5779364 5.7620667 4.2402344 5.5 L 8 5.5 A 1 1 0 0 0 9 4.5 A 1 1 0 0 0 8 3.5 L 4.2402344 3.5 C 4.5779364 3.2379333 4.9364535 2.9703009 5.1972656 2.7167969 A 1 1 0 0 0 5.2167969 1.3027344 A 1 1 0 0 0 4.5136719 1 z M 12.992188 4.5019531 C 12.410175 4.5110174 11.831007 4.7070864 11.353516 5.0878906 C 10.13975 6.0558059 10.049811 7.87238 11.097656 9 L 3.5 9 C 2.1311099 9 1 10.131145 1 11.5 C 1 12.868855 2.1311099 14 3.5 14 L 7 14 C 7 14.983265 7.5561009 15.740462 8.296875 16.289062 C 8.1931823 16.529335 8 16.724619 8 17 C 8 18.026578 8.6116499 18.794081 9.4082031 19.335938 C 9.3159631 19.608991 9.1272945 19.847927 9.1777344 20.150391 L 9.234375 20.494141 C 9.4742992 21.933987 10.733712 23 12.193359 23 A 1.0001 1.0001 0 0 0 12.195312 23 L 13.666016 23 C 15.838476 23 17.022684 23.03396 18.148438 22.603516 C 18.933635 22.303142 19.559072 21.752465 20.054688 21.318359 C 20.291719 21.11068 20.573412 21 20.835938 21 L 22 21 A 1 1 0 0 0 23 20 A 1 1 0 0 0 22 19 L 20.835938 19 C 20.034864 19 19.301204 19.319379 18.738281 19.8125 C 18.308897 20.188594 17.654151 20.650749 17.435547 20.734375 A 1.0001 1.0001 0 0 0 17.433594 20.734375 C 16.829633 20.965547 15.839416 21 13.666016 21 L 12.193359 21 C 11.697607 21 11.288507 20.653016 11.207031 20.164062 L 11.179688 20 L 12 20 A 1 1 0 0 0 13 19 A 1 1 0 0 0 12 18 L 11 18 C 10.435851 18 10 17.564175 10 17 L 11 17 A 1 1 0 0 0 12 16 A 1 1 0 0 0 11 15 L 10 15 C 9.4358515 15 9 14.564175 9 14 L 10 14 A 1 1 0 0 0 11 13 A 1 1 0 0 0 10 12 L 8 12 L 3.5 12 C 3.2120301 12 3 11.787945 3 11.5 C 3 11.212055 3.2120301 11 3.5 11 L 13.462891 11 A 1.0001 1.0001 0 0 0 14.167969 9.2910156 L 12.542969 7.671875 C 12.240226 7.3700536 12.264774 6.9193576 12.599609 6.6523438 C 12.849827 6.4527923 13.192709 6.4469 13.449219 6.6386719 L 18.03125 10.224609 C 19.165324 11.112391 20.659424 11.5 22 11.5 A 1 1 0 0 0 23 10.5 A 1 1 0 0 0 22 9.5 C 21.105976 9.5 19.889198 9.1400688 19.263672 8.6503906 L 14.666016 5.0507812 A 1.0001 1.0001 0 0 0 14.648438 5.0371094 C 14.159294 4.6714155 13.574199 4.4928889 12.992188 4.5019531 z " fill="currentColor"/>
</svg>
