<svg xmlns="http://www.w3.org/2000/svg" width="1em" height="1em" viewBox="0 0 24 24" fill="currentColor">
  <path d="M 4.5136719 1 A 1 1 0 0 0 3.8027344 1.2832031 C 3.703048 1.3800962 3.017825 1.8966057 2.4140625 2.4082031 C 2.1121813 2.6640019 1.8156766 2.9325289 1.5585938 3.234375 C 1.3015111 3.5362211 1 3.8502651 1 4.5 C 1 5.1497349 1.3015111 5.4637789 1.5585938 5.765625 C 1.8156765 6.0674711 2.1121813 6.3359981 2.4140625 6.5917969 C 3.017825 7.1033943 3.703048 7.6199038 3.8027344 7.7167969 A 1 1 0 0 0 5.2167969 7.6972656 A 1 1 0 0 0 5.1972656 6.2832031 C 4.9364535 6.0296991 4.5779364 5.7620667 4.2402344 5.5 L 8 5.5 A 1 1 0 0 0 9 4.5 A 1 1 0 0 0 8 3.5 L 4.2402344 3.5 C 4.5779364 3.2379333 4.9364535 2.9703009 5.1972656 2.7167969 A 1 1 0 0 0 5.2167969 1.3027344 A 1 1 0 0 0 4.5136719 1 z M 14.296875 6.5039062 C 13.966278 6.5069652 13.624554 6.5604168 13.28125 6.6796875 C 12.151926 7.0720473 11.298051 7.9903504 10.539062 8.8105469 C 9.970574 9.4248789 9.7452145 9.7329438 9.5371094 10 L 3.75 10 C 2.243062 10 1 11.243062 1 12.75 C 1 14.256938 2.243062 15.5 3.75 15.5 L 8.6269531 15.5 C 8.7043511 17.426682 9.1784986 19.963098 11.257812 22.029297 C 12.273874 23.038937 13.699711 23.104076 14.929688 22.919922 C 16.159662 22.735767 17.313788 22.287014 18.121094 21.900391 C 19.079338 21.441542 19.978748 20.892578 20.382812 20.892578 L 22 20.892578 A 1 1 0 0 0 23 19.892578 A 1 1 0 0 0 22 18.892578 L 20.382812 18.892578 C 18.935678 18.892578 17.897168 19.789552 17.257812 20.095703 C 16.58842 20.41628 15.559115 20.804964 14.634766 20.943359 C 13.710417 21.081755 13.010754 20.953889 12.666016 20.611328 C 10.808291 18.76532 10.431175 16.048757 10.498047 14.544922 A 1.0001 1.0001 0 0 0 9.5 13.5 L 3.75 13.5 C 3.323938 13.5 3 13.176062 3 12.75 C 3 12.323938 3.323938 12 3.75 12 L 10 12 L 14 12 A 1 1 0 0 0 15 11 A 1 1 0 0 0 14 10 L 12.210938 10 C 12.861792 9.3428896 13.665489 8.6628638 13.9375 8.5683594 C 14.305023 8.4406746 14.60918 8.4832866 15.052734 8.6660156 C 15.496289 8.8487449 16.01169 9.1889237 16.572266 9.5292969 C 16.829078 9.6852249 17.595369 10.295365 18.378906 10.84375 C 19.162444 11.392135 19.901459 12 21.005859 12 L 22 12 A 1 1 0 0 0 23 11 A 1 1 0 0 0 22 10 L 21.005859 10 C 21.03696 10 20.225503 9.6950754 19.525391 9.2050781 C 18.825278 8.7150809 18.173616 8.1617145 17.611328 7.8203125 C 17.114104 7.5184057 16.527099 7.109992 15.814453 6.8164062 C 15.45813 6.6696134 15.053266 6.5549982 14.623047 6.5175781 C 14.515492 6.5082231 14.407074 6.5028866 14.296875 6.5039062 z " fill="currentColor"/>
</svg>
