<svg xmlns="http://www.w3.org/2000/svg" width="1em" height="1em" viewBox="0 0 24 24" fill="currentColor">
  <path d="M 4.5136719 1 A 1 1 0 0 0 3.8027344 1.2832031 C 3.703048 1.3800962 3.017825 1.8966057 2.4140625 2.4082031 C 2.1121813 2.6640019 1.8156766 2.9325289 1.5585938 3.234375 C 1.3015111 3.5362211 1 3.8502651 1 4.5 C 1 5.1497349 1.3015111 5.4637789 1.5585938 5.765625 C 1.8156765 6.0674711 2.1121813 6.3359981 2.4140625 6.5917969 C 3.017825 7.1033943 3.703048 7.6199038 3.8027344 7.7167969 A 1 1 0 0 0 5.2167969 7.6972656 A 1 1 0 0 0 5.1972656 6.2832031 C 4.9364535 6.0296991 4.5779364 5.7620667 4.2402344 5.5 L 8 5.5 A 1 1 0 0 0 9 4.5 A 1 1 0 0 0 8 3.5 L 4.2402344 3.5 C 4.5779364 3.2379333 4.9364535 2.9703009 5.1972656 2.7167969 A 1 1 0 0 0 5.2167969 1.3027344 A 1 1 0 0 0 4.5136719 1 z M 14.001953 4.0019531 C 13.392044 3.9996431 12.782247 4.1988198 12.28125 4.5996094 C 11.081797 5.5592184 10.912387 7.3551886 11.912109 8.5214844 L 12.326172 9.0058594 L 4.75 9.0058594 C 3.243062 9.0058594 2 10.248921 2 11.755859 C 2 13.262797 3.243062 14.505859 4.75 14.505859 L 9.1464844 14.505859 L 9.4882812 16.640625 L 9.4882812 16.642578 L 9.4902344 16.642578 L 9.4902344 16.644531 L 9.4902344 16.650391 C 9.7779725 18.570004 9.8946366 19.634806 10.460938 20.580078 C 11.25054 21.898001 12.63134 23 14.472656 23 C 15.663839 23 16.512804 22.692347 18.355469 22.078125 C 19.529509 21.686812 20.198817 21.482167 20.830078 21.048828 C 21.786209 20.392285 22.484243 19.42315 22.804688 18.308594 C 23.016395 17.572508 23 16.870311 23 15.632812 L 23 14.583984 C 23 12.938784 23.02552 11.98017 22.623047 11.003906 C 22.555397 10.839718 22.479374 10.679607 22.394531 10.523438 C 21.890616 9.5954602 21.128353 9.0100684 19.851562 7.9726562 L 15.71875 4.6132812 C 15.220805 4.2087008 14.611863 4.0042631 14.001953 4.0019531 z M 13.994141 5.9980469 C 14.157235 5.9987641 14.319777 6.0544942 14.457031 6.1660156 L 18.591797 9.5234375 C 19.868607 10.560865 20.384634 11.012339 20.636719 11.476562 C 20.687479 11.569992 20.732889 11.667213 20.773438 11.765625 C 20.974761 12.253957 21 12.938784 21 14.583984 L 21 15.632812 C 21 16.870311 20.9827 17.408545 20.882812 17.755859 C 20.690458 18.424903 20.271135 19.00438 19.697266 19.398438 C 19.39903 19.602892 18.895613 19.790688 17.722656 20.181641 C 15.865121 20.800819 15.334273 21 14.472656 21 C 13.366773 21 12.730582 20.476825 12.175781 19.550781 C 11.929674 19.139977 11.7561 18.272372 11.466797 16.34375 A 1.0001 1.0001 0 0 0 11.464844 16.335938 L 10.988281 13.347656 A 1.0001 1.0001 0 0 0 10 12.505859 L 4.75 12.505859 C 4.323938 12.505859 4 12.181921 4 11.755859 C 4 11.329797 4.323938 11.005859 4.75 11.005859 L 14.5 11.005859 A 1.0001 1.0001 0 0 0 15.259766 9.3535156 L 13.429688 7.2207031 C 13.14901 6.8932589 13.19255 6.4315203 13.529297 6.1621094 C 13.6674 6.0516289 13.831047 5.9973296 13.994141 5.9980469 z " fill="currentColor"/>
</svg>
