<svg xmlns="http://www.w3.org/2000/svg" width="1em" height="1em" viewBox="0 0 24 24" fill="currentColor">
  <path d="M 6 4 A 1 1 0 0 0 5.7890625 4.0234375 C 5.351636 4.0402279 4.9502524 4.0685842 4.5742188 4.1191406 C 3.6439921 4.2442065 2.800893 4.542857 2.171875 5.171875 C 1.542857 5.800893 1.2442065 6.6439921 1.1191406 7.5742188 C 1.0685842 7.9502524 1.0402279 8.351636 1.0234375 8.7890625 A 1 1 0 0 0 1 9 A 1 1 0 0 0 1.0117188 9.1523438 C 0.99876299 9.703667 1 10.312064 1 11 L 1 13 C 1 13.687931 0.99876287 14.29633 1.0117188 14.847656 A 1 1 0 0 0 1 15 A 1 1 0 0 0 1.0234375 15.210938 C 1.0402279 15.648364 1.0685844 16.04975 1.1191406 16.425781 C 1.2442065 17.356004 1.5428648 18.199101 2.171875 18.828125 C 2.8008908 19.457155 3.6439898 19.75579 4.5742188 19.880859 C 4.9502548 19.931417 5.3516341 19.959772 5.7890625 19.976562 A 1 1 0 0 0 6 20 A 1 1 0 0 0 6.1523438 19.988281 C 6.7036684 20.001237 7.312061 20 8 20 L 16 20 C 16.687909 20 17.296344 20.001239 17.847656 19.988281 A 1 1 0 0 0 18 20 A 1 1 0 0 0 18.210938 19.976562 C 18.64834 19.95977 19.049767 19.931403 19.425781 19.880859 C 20.356006 19.75579 21.199103 19.457147 21.828125 18.828125 C 22.457147 18.199103 22.75579 17.356006 22.880859 16.425781 C 22.931417 16.049748 22.959772 15.648367 22.976562 15.210938 A 1 1 0 0 0 23 15 A 1 1 0 0 0 22.988281 14.847656 C 23.001237 14.296328 23 13.687933 23 13 L 23 11 C 23 10.312061 23.001237 9.7036684 22.988281 9.1523438 A 1 1 0 0 0 23 9 A 1 1 0 0 0 22.976562 8.7890625 C 22.959772 8.3516341 22.931417 7.9502548 22.880859 7.5742188 C 22.75579 6.6439897 22.457155 5.8008908 21.828125 5.171875 C 21.199101 4.5428648 20.356004 4.2442065 19.425781 4.1191406 C 19.04975 4.0685843 18.648365 4.0402279 18.210938 4.0234375 A 1 1 0 0 0 18 4 A 1 1 0 0 0 17.847656 4.0117188 C 17.29633 3.9987629 16.687931 4 16 4 L 8 4 C 7.3120636 4 6.703667 3.998763 6.1523438 4.0117188 A 1 1 0 0 0 6 4 z M 8 6 L 16 6 C 16.396397 6 16.763092 6.0010358 17.101562 6.0039062 C 17.502779 7.9526692 19.04735 9.4972226 20.996094 9.8984375 C 20.998964 10.236907 21 10.603601 21 11 L 21 13 C 21 13.396398 20.998968 13.763091 20.996094 14.101562 C 19.04735 14.502783 17.50278 16.047349 17.101562 17.996094 C 16.763091 17.998964 16.396397 18 16 18 L 8 18 C 7.6036012 18 7.236907 17.998964 6.8984375 17.996094 C 6.4972226 16.04735 4.9526694 14.502779 3.0039062 14.101562 C 3.001036 13.763092 3 13.396397 3 13 L 3 11 C 3 10.603602 3.001036 10.236907 3.0039062 9.8984375 C 4.9526657 9.4972238 6.4972238 7.9526657 6.8984375 6.0039062 C 7.2369065 6.001036 7.6036016 6 8 6 z M 4.7929688 6.109375 C 4.4904289 6.8800141 3.8800141 7.4904289 3.109375 7.7929688 C 3.203877 7.1246522 3.3422426 6.8296324 3.5859375 6.5859375 C 3.8296324 6.3422426 4.1246522 6.203877 4.7929688 6.109375 z M 19.207031 6.109375 C 19.875337 6.2038765 20.170356 6.3422361 20.414062 6.5859375 C 20.657764 6.8296333 20.796123 7.1246619 20.890625 7.7929688 C 20.120004 7.4904247 19.509577 6.8800023 19.207031 6.109375 z M 16 8.75 C 15.321567 8.75 14.75 9.3216244 14.75 10 C 14.75 10.678288 15.321712 11.25 16 11.25 C 16.678288 11.25 17.25 10.678288 17.25 10 C 17.25 9.3216244 16.678433 8.75 16 8.75 z M 6 10.75 C 5.3216244 10.75 4.75 11.321567 4.75 12 C 4.75 12.678433 5.3216244 13.25 6 13.25 C 6.6783756 13.25 7.25 12.678433 7.25 12 C 7.25 11.321567 6.6783756 10.75 6 10.75 z M 13 10.75 C 12.321712 10.75 11.75 11.321712 11.75 12 C 11.75 12.678288 12.321712 13.25 13 13.25 C 13.678288 13.25 14.25 12.678288 14.25 12 C 14.25 11.321712 13.678288 10.75 13 10.75 z M 16 12.75 C 15.321712 12.75 14.75 13.321712 14.75 14 C 14.75 14.678288 15.321712 15.25 16 15.25 C 16.678288 15.25 17.25 14.678288 17.25 14 C 17.25 13.321712 16.678288 12.75 16 12.75 z M 3.109375 16.207031 C 3.8800023 16.509577 4.4904247 17.120004 4.7929688 17.890625 C 4.1246619 17.796123 3.8296333 17.657764 3.5859375 17.414062 C 3.3422361 17.170356 3.2038765 16.875337 3.109375 16.207031 z M 20.890625 16.207031 C 20.796119 16.875328 20.657771 17.170355 20.414062 17.414062 C 20.170355 17.657771 19.875328 17.796123 19.207031 17.890625 C 19.509581 17.120016 20.120016 16.509581 20.890625 16.207031 z " fill="currentColor"/>
</svg>
