<svg xmlns="http://www.w3.org/2000/svg" width="1em" height="1em" viewBox="0 0 24 24" fill="currentColor">
  <path d="M 8.1132812 3.0351562 C 7.1707973 3.0365694 6.1520373 3.2997679 5.125 3.9042969 A 1.0001 1.0001 0 0 0 5.0800781 3.9316406 C 4.1254149 4.5624576 3.2445457 5.7084456 2.8261719 7.2304688 C 2.407798 8.7524921 2.5492877 10.667331 3.7851562 12.496094 C 3.8440142 12.583184 3.9243927 12.638121 3.9863281 12.720703 L 2 12.720703 A 1 1 0 0 0 1 13.720703 A 1 1 0 0 0 2 14.720703 L 5.0097656 14.720703 C 4.7339526 15.336354 4.5188217 15.90941 4.0703125 16.609375 C 3.3718266 17.699466 2.4773022 18.684819 1.6542969 19.089844 A 1.0001 1.0001 0 0 0 2.0957031 20.986328 L 10.980469 20.986328 C 11.011829 20.986328 11.629291 21.052512 12.318359 20.914062 C 13.007428 20.775614 13.84911 20.415776 14.673828 19.662109 A 1 1 0 0 0 14.738281 18.25 A 1 1 0 0 0 13.326172 18.185547 C 12.75569 18.70688 12.293385 18.878873 11.923828 18.953125 C 11.554272 19.027375 11.357806 18.986328 10.980469 18.986328 L 4.7597656 18.986328 C 5.1108676 18.562833 5.4661552 18.138531 5.7539062 17.689453 C 6.4674566 16.575852 6.9129805 15.534177 7.2285156 14.720703 L 9.5878906 14.720703 A 1.0001 1.0001 0 0 0 9.5878906 12.720703 C 8.1724614 12.720703 7.2790078 12.647713 6.7324219 12.464844 C 6.185836 12.281975 5.8965482 12.047546 5.4433594 11.376953 C 4.5160079 10.004715 4.4718507 8.7929749 4.7558594 7.7597656 C 5.0375494 6.7349915 5.7367985 5.9126331 6.171875 5.6191406 C 7.9315676 4.597758 9.0253872 4.9133848 9.9335938 5.6835938 C 10.848631 6.4595958 11.433594 7.8993952 11.433594 8.9082031 A 1 1 0 0 0 12.433594 9.9082031 A 1 1 0 0 0 13.433594 8.9082031 C 13.433594 7.2354011 12.681571 5.3904737 11.228516 4.1582031 C 10.501988 3.5420678 9.5625971 3.1326179 8.5117188 3.0507812 C 8.3803589 3.0405517 8.2479218 3.0349544 8.1132812 3.0351562 z M 19.486328 9.5 A 1 1 0 0 0 18.783203 9.8027344 A 1 1 0 0 0 18.802734 11.216797 C 19.063528 11.470267 19.422065 11.73793 19.759766 12 L 14.5 12 A 1 1 0 0 0 13.5 13 A 1 1 0 0 0 14.5 14 L 19.759766 14 C 19.422065 14.26207 19.063527 14.529733 18.802734 14.783203 A 1 1 0 0 0 18.783203 16.197266 A 1 1 0 0 0 20.197266 16.216797 C 20.296986 16.119877 20.982175 15.603402 21.585938 15.091797 C 21.887819 14.835994 22.184326 14.567469 22.441406 14.265625 C 22.698485 13.963782 23 13.649748 23 13 C 23 12.350252 22.698486 12.036219 22.441406 11.734375 C 22.184326 11.432531 21.88782 11.164006 21.585938 10.908203 C 20.982176 10.396598 20.296982 9.8801192 20.197266 9.7832031 A 1 1 0 0 0 19.486328 9.5 z " fill="currentColor"/>
</svg>
