<svg xmlns="http://www.w3.org/2000/svg" width="1em" height="1em" viewBox="0 0 24 24" fill="currentColor">
  <path d="M 10.455078 1 C 8.8325882 1 7.5991987 0.99500499 6.5527344 1.1171875 C 5.5062701 1.23937 4.598017 1.5134548 3.8613281 2.1074219 C 3.5838098 2.331179 3.331179 2.5838098 3.1074219 2.8613281 C 2.5134548 3.598017 2.2393699 4.5062653 2.1171875 5.5527344 C 1.9950051 6.5992035 2 7.8325681 2 9.4550781 L 2 14 C 2 15.8856 1.99457 17.318937 2.15625 18.521484 C 2.3179268 19.724031 2.6893545 20.759713 3.4648438 21.535156 C 4.2403087 22.310634 5.2759729 22.682068 6.4785156 22.84375 C 7.6810584 23.005432 9.11438 23 11 23 L 19 23 A 1 1 0 0 0 20 22 A 1 1 0 0 0 19 21 L 11 21 C 9.11438 21 7.7201079 20.9945 6.7441406 20.863281 C 5.7681734 20.732063 5.2750213 20.517216 4.8789062 20.121094 C 4.4828255 19.725037 4.2679344 19.231837 4.1367188 18.255859 C 4.0055032 17.279881 4 15.8856 4 14 L 4 9.4550781 C 4 7.8325681 4.0041805 6.633989 4.1035156 5.7832031 C 4.2028507 4.9324172 4.3719595 4.4794786 4.6640625 4.1171875 C 4.7983254 3.9506658 4.9506658 3.7983254 5.1171875 3.6640625 C 5.4794786 3.3719595 5.9324224 3.2028506 6.7832031 3.1035156 C 7.6339838 3.0041806 8.8325882 3 10.455078 3 C 10.82298 3 10.841181 3.0189629 11.001953 3.0292969 C 11.001856 4.4257545 10.995153 5.5035162 11.119141 6.4257812 C 11.24421 7.3560104 11.542845 8.1991092 12.171875 8.828125 C 12.800899 9.4571352 13.643996 9.7557935 14.574219 9.8808594 C 15.491181 10.004142 16.566471 9.9981967 17.951172 9.9980469 C 17.974543 10.284412 18 10.473151 18 11 A 1 1 0 0 0 19 12 A 1 1 0 0 0 20 11 C 20 10.1825 20.108135 9.4926483 19.771484 8.6796875 C 19.518895 8.070123 19.113277 7.6991741 18.535156 7.1210938 L 13.798828 2.3847656 C 13.299956 1.885914 12.982089 1.5393621 12.466797 1.2929688 C 12.370621 1.2469747 12.270933 1.2075144 12.169922 1.171875 C 11.631476 0.98187736 11.160678 1 10.455078 1 z M 13.046875 4.4609375 L 16.539062 7.953125 C 15.960564 7.9405587 15.219951 7.9492793 14.841797 7.8984375 C 14.138145 7.8038334 13.835612 7.6637323 13.585938 7.4140625 C 13.336267 7.1643983 13.196168 6.8618566 13.101562 6.1582031 C 13.050719 5.7800485 13.059442 5.0394407 13.046875 4.4609375 z M 7 13 A 1.0001 1.0001 0 0 0 6 14 L 6 17 L 6 19 A 1 1 0 0 0 7 20 A 1 1 0 0 0 8 19 L 8 18 L 8.5 18 C 9.8688901 18 11 16.868855 11 15.5 C 11 14.131145 9.8688901 13 8.5 13 L 7 13 z M 11 15.5 L 11 17 L 11 19 A 1 1 0 0 0 12 20 A 1 1 0 0 0 13 19 L 13 18 L 13.5 18 C 14.86888 18 16 16.86888 16 15.5 C 16 14.13112 14.86888 13 13.5 13 L 12 13 A 1.0001 1.0001 0 0 0 11 14 L 11 15.5 z M 17 13 A 1 1 0 0 0 16 14 A 1 1 0 0 0 17 15 L 18 15 L 18 19 A 1 1 0 0 0 19 20 A 1 1 0 0 0 20 19 L 20 15 L 21 15 A 1 1 0 0 0 22 14 A 1 1 0 0 0 21 13 L 19 13 L 17 13 z M 8 15 L 8.5 15 C 8.7879699 15 9 15.212055 9 15.5 C 9 15.787945 8.7879699 16 8.5 16 L 8 16 L 8 15 z M 13 15 L 13.5 15 C 13.78792 15 14 15.21208 14 15.5 C 14 15.78792 13.78792 16 13.5 16 L 13 16 L 13 15 z " fill="currentColor"/>
</svg>
