<svg xmlns="http://www.w3.org/2000/svg" width="1em" height="1em" viewBox="0 0 24 24" fill="currentColor">
  <path d="M 6 1 A 1 1 0 0 0 5 2 L 5 3.5078125 C 4.9056874 3.5738335 4.8159753 3.6488685 4.7324219 3.7324219 C 4.3230726 4.1417712 4.1346014 4.6989468 4.0644531 5.2207031 C 3.9943049 5.7424594 4 6.292895 4 7 L 4 17 C 4 17.7071 3.9943101 18.25754 4.0644531 18.779297 C 4.1346011 19.301054 4.3231141 19.858214 4.7324219 20.267578 C 4.8159758 20.351124 4.9056878 20.426169 5 20.492188 L 5 22 A 1 1 0 0 0 6 23 A 1 1 0 0 0 7 22 L 7 20.992188 C 7.3026428 21.000763 7.6298581 21 8 21 L 9 21 L 9 22 A 1 1 0 0 0 10 23 A 1 1 0 0 0 11 22 L 11 21 L 13 21 L 13 22 A 1 1 0 0 0 14 23 A 1 1 0 0 0 15 22 L 15 21 L 16 21 C 16.37014 21 16.697356 21.000761 17 20.992188 L 17 22 A 1 1 0 0 0 18 23 A 1 1 0 0 0 19 22 L 19 20.492188 C 19.094311 20.426172 19.184023 20.351114 19.267578 20.267578 C 19.676857 19.858206 19.865407 19.301044 19.935547 18.779297 C 20.005687 18.257547 20 17.7071 20 17 L 20 7 C 20 6.292895 20.005687 5.7424496 19.935547 5.2207031 C 19.865406 4.6989566 19.676899 4.1417798 19.267578 3.7324219 C 19.184023 3.6488786 19.094311 3.57383 19 3.5078125 L 19 2 A 1 1 0 0 0 18 1 A 1 1 0 0 0 17 2 L 17 3.0078125 C 16.697356 2.9992379 16.370142 3 16 3 L 15 3 L 15 2 A 1 1 0 0 0 14 1 A 1 1 0 0 0 13 2 L 13 3 L 11 3 L 11 2 A 1 1 0 0 0 10 1 A 1 1 0 0 0 9 2 L 9 3 L 8 3 C 7.6298566 3 7.3026427 2.999238 7 3.0078125 L 7 2 A 1 1 0 0 0 6 1 z M 8 5 L 16 5 C 16.7071 5 17.216526 5.00719 17.511719 5.046875 C 17.806912 5.086562 17.823479 5.1164524 17.853516 5.1464844 C 17.883496 5.1764664 17.913435 5.1930854 17.953125 5.4882812 C 17.992808 5.7834777 18 6.292895 18 7 L 18 17 C 18 17.7071 17.992795 18.216516 17.953125 18.511719 C 17.913445 18.806922 17.883536 18.823488 17.853516 18.853516 C 17.823486 18.883536 17.806926 18.913435 17.511719 18.953125 C 17.216512 18.992809 16.7071 19 16 19 L 8 19 C 7.292895 19 6.7834773 18.992795 6.4882812 18.953125 C 6.1930853 18.913445 6.1764664 18.883496 6.1464844 18.853516 C 6.1164524 18.823476 6.086562 18.806916 6.046875 18.511719 C 6.0071873 18.216522 6 17.7071 6 17 L 6 7 C 6 6.292895 6.0071883 5.7834676 6.046875 5.4882812 C 6.0865617 5.193095 6.1164937 5.1764751 6.1464844 5.1464844 C 6.1764751 5.1164937 6.1930951 5.0865617 6.4882812 5.046875 C 6.7834676 5.0071883 7.292895 5 8 5 z M 11.998047 6 C 11.562691 6.0000565 11.362772 6.1530504 11.171875 6.2675781 C 10.980978 6.3821059 10.796367 6.5119932 10.558594 6.6777344 C 9.9668856 7.0902347 9.1450125 7.5505612 8.546875 8.3867188 C 7.9487375 9.2228762 7.8134452 10.550406 8.5136719 11.806641 C 8.6443565 12.041081 8.7204052 12.207085 8.7480469 12.259766 C 8.7501184 12.307303 8.7539062 12.405386 8.7539062 12.568359 L 8.7539062 15.978516 C 8.7539062 16.219516 8.748356 16.417839 8.78125 16.667969 C 8.814143 16.918099 8.9250151 17.282319 9.1855469 17.548828 C 9.4463033 17.815317 9.8184946 17.938049 10.070312 17.972656 C 10.322132 18.007264 10.518206 18 10.753906 18 L 13.246094 18 C 13.481744 18 13.677872 18.007296 13.929688 17.972656 C 14.18105 17.938096 14.551888 17.81439 14.8125 17.548828 C 15.073289 17.282339 15.185777 16.919958 15.21875 16.669922 C 15.25172 16.419886 15.245994 16.219416 15.246094 15.978516 L 15.246094 12.568359 C 15.246148 12.406676 15.24988 12.307676 15.251953 12.259766 C 15.279652 12.208574 15.356696 12.042923 15.488281 11.806641 C 16.188172 10.549877 16.049963 9.2207752 15.451172 8.3847656 C 14.85234 7.548752 14.029424 7.0882834 13.4375 6.6757812 C 13.199667 6.5100633 13.017158 6.3820938 12.826172 6.2675781 C 12.635186 6.1530624 12.433311 5.9999436 11.998047 6 z M 11.998047 8.1191406 C 12.089067 8.1801656 12.153362 8.2197224 12.294922 8.3183594 C 12.957397 8.7800273 13.579287 9.2060883 13.826172 9.5507812 C 14.073057 9.8954741 14.182246 10.040288 13.740234 10.833984 C 13.540015 11.193519 13.411054 11.357975 13.3125 11.738281 C 13.23192 12.049245 13.246194 12.266095 13.246094 12.566406 L 13.246094 15.978516 C 13.246089 15.990556 13.246128 15.98832 13.246094 16 L 10.753906 16 C 10.753877 15.98836 10.753906 15.990596 10.753906 15.978516 L 10.753906 12.568359 C 10.753906 12.267759 10.770263 12.050033 10.689453 11.738281 C 10.590753 11.357409 10.460405 11.193919 10.259766 10.833984 C 9.8173949 10.040349 9.9275257 9.8931431 10.173828 9.5488281 C 10.420131 9.2045132 11.041073 8.779899 11.703125 8.3183594 C 11.844401 8.2198822 11.907104 8.1801478 11.998047 8.1191406 z " fill="currentColor"/>
</svg>
