<svg xmlns="http://www.w3.org/2000/svg" width="1em" height="1em" viewBox="0 0 24 24" fill="currentColor">
  <path d="M 4 2 A 1 1 0 0 0 3 3 L 3 5 A 1 1 0 0 0 4 6 A 1 1 0 0 0 5 5 L 5 3 A 1 1 0 0 0 4 2 z M 11.5 2 A 1 1 0 0 0 10.5 3 L 10.5 11.998047 C 10.252123 12.004547 10.015679 12.035873 9.734375 12.152344 C 9.2446608 12.355217 8.8551868 12.744705 8.6523438 13.234375 C 8.4619087 13.694201 8.5 14.0341 8.5 14.5 C 8.5 14.9659 8.4619089 15.305799 8.6523438 15.765625 C 8.8551869 16.255295 9.2446608 16.644783 9.734375 16.847656 C 10.19416 17.038024 10.5341 17 11 17 L 12 17 C 12.4659 17 12.80584 17.03802 13.265625 16.847656 C 13.75531 16.644787 14.144787 16.25531 14.347656 15.765625 C 14.538024 15.30584 14.5 14.9659 14.5 14.5 C 14.5 14.0341 14.53802 13.69416 14.347656 13.234375 C 14.144787 12.74469 13.75531 12.355213 13.265625 12.152344 C 12.984321 12.035873 12.747877 12.004547 12.5 11.998047 L 12.5 3 A 1 1 0 0 0 11.5 2 z M 19 2 A 1 1 0 0 0 18 3 L 18 7 A 1 1 0 0 0 19 8 A 1 1 0 0 0 20 7 L 20 3 A 1 1 0 0 0 19 2 z M 3.5 7 C 3.03406 7 2.6942056 6.9618758 2.234375 7.1523438 C 1.7446532 7.3551838 1.3551838 7.7446532 1.1523438 8.234375 C 0.9618758 8.6942056 1 9.03406 1 9.5 C 1 9.96594 0.9619285 10.305847 1.1523438 10.765625 C 1.355187 11.255295 1.7446379 11.64479 2.234375 11.847656 C 2.5156884 11.964149 2.7521209 11.99546 3 12.001953 L 3 21 A 1 1 0 0 0 4 22 A 1 1 0 0 0 5 21 L 5 12.001953 C 5.2478791 11.995461 5.4843116 11.964151 5.765625 11.847656 C 6.2553621 11.64479 6.6448132 11.255295 6.8476562 10.765625 C 7.0380717 10.305847 7 9.96594 7 9.5 C 7 9.03406 7.0381242 8.6942056 6.8476562 8.234375 C 6.6448163 7.7446532 6.2553468 7.3551838 5.765625 7.1523438 C 5.3057944 6.9618758 4.96594 7 4.5 7 L 3.5 7 z M 3.5 9 L 4.5 9 C 4.7605002 9 4.9150335 9.0117685 4.984375 9.015625 C 4.9882315 9.0849665 5 9.2394998 5 9.5 C 5 9.7605701 4.9882229 9.9150719 4.984375 9.984375 C 4.9150549 9.9882267 4.7605448 10 4.5 10 L 3.5 10 C 3.2394553 10 3.0849452 9.9882267 3.015625 9.984375 C 3.0117771 9.9150719 3 9.76057 3 9.5 C 3 9.2394997 3.0117685 9.0849665 3.015625 9.015625 C 3.0849666 9.0117685 3.2395 9 3.5 9 z M 18.5 9 C 18.0341 9 17.69416 8.9619756 17.234375 9.1523438 C 16.74469 9.3552131 16.355213 9.7446901 16.152344 10.234375 C 15.961976 10.69416 16 11.0341 16 11.5 C 16 11.9659 15.96198 12.30584 16.152344 12.765625 C 16.355213 13.25531 16.74469 13.644787 17.234375 13.847656 C 17.515679 13.964127 17.752123 13.995453 18 14.001953 L 18 21 A 1 1 0 0 0 19 22 A 1 1 0 0 0 20 21 L 20 14.001953 C 20.247877 13.995452 20.484321 13.964124 20.765625 13.847656 C 21.25531 13.644787 21.644787 13.25531 21.847656 12.765625 C 22.038024 12.30584 22 11.9659 22 11.5 C 22 11.0341 22.038024 10.69416 21.847656 10.234375 C 21.644787 9.7446901 21.25531 9.3552132 20.765625 9.1523438 C 20.30584 8.9619756 19.9659 9 19.5 9 L 18.5 9 z M 18.5 11 L 19.5 11 C 19.760574 11 19.915075 11.011779 19.984375 11.015625 C 19.988221 11.084927 20 11.239429 20 11.5 C 20 11.760574 19.988221 11.915075 19.984375 11.984375 C 19.915073 11.988221 19.760571 12 19.5 12 L 18.5 12 C 18.239426 12 18.084925 11.988221 18.015625 11.984375 C 18.011779 11.915073 18 11.760571 18 11.5 C 18 11.239426 18.011779 11.084925 18.015625 11.015625 C 18.084927 11.011779 18.239429 11 18.5 11 z M 11 14 L 11.5 14 L 12 14 C 12.260574 14 12.415075 14.011779 12.484375 14.015625 C 12.488221 14.084927 12.5 14.239429 12.5 14.5 C 12.5 14.760574 12.488221 14.915075 12.484375 14.984375 C 12.415073 14.988221 12.260571 15 12 15 L 11 15 C 10.739435 15 10.584929 14.988222 10.515625 14.984375 C 10.511776 14.915061 10.5 14.760551 10.5 14.5 C 10.5 14.239447 10.511776 14.084938 10.515625 14.015625 C 10.584931 14.011778 10.739438 14 11 14 z M 11.5 18 A 1 1 0 0 0 10.5 19 L 10.5 21 A 1 1 0 0 0 11.5 22 A 1 1 0 0 0 12.5 21 L 12.5 19 A 1 1 0 0 0 11.5 18 z " fill="currentColor"/>
</svg>
