<svg xmlns="http://www.w3.org/2000/svg" width="1em" height="1em" viewBox="0 0 24 24" fill="currentColor">
  <path d="M 14.5 1 C 14.0341 1 13.694201 0.96190887 13.234375 1.1523438 C 12.744705 1.355187 12.35521 1.7446379 12.152344 2.234375 C 12.035851 2.5156884 12.00454 2.7521209 11.998047 3 L 3 3 A 1 1 0 0 0 2 4 A 1 1 0 0 0 3 5 L 11.998047 5 C 12.004539 5.2478791 12.035849 5.4843116 12.152344 5.765625 C 12.35521 6.2553621 12.744705 6.6448132 13.234375 6.8476562 C 13.694201 7.0380912 14.0341 7 14.5 7 C 14.9659 7 15.305799 7.0380913 15.765625 6.8476562 C 16.255295 6.6448132 16.64479 6.2553621 16.847656 5.765625 C 17.038057 5.3058351 17 4.96594 17 4.5 L 17 3.5 C 17 3.03406 17.038057 2.6941649 16.847656 2.234375 C 16.64479 1.7446379 16.255295 1.355187 15.765625 1.1523438 C 15.305799 0.96190887 14.9659 1 14.5 1 z M 14.5 3 C 14.76054 3 14.915057 3.0117748 14.984375 3.015625 C 14.988227 3.084949 15 3.2394651 15 3.5 L 15 4.5 C 15 4.7605351 14.988227 4.9150511 14.984375 4.984375 C 14.915056 4.9882253 14.760538 5 14.5 5 C 14.23946 5 14.084943 4.9882252 14.015625 4.984375 C 14.011773 4.915051 14 4.7605349 14 4.5 L 14 3.5 C 14 3.2394649 14.011773 3.0849489 14.015625 3.015625 C 14.084944 3.0117747 14.239462 3 14.5 3 z M 19 3 A 1 1 0 0 0 18 4 A 1 1 0 0 0 19 5 L 21 5 A 1 1 0 0 0 22 4 A 1 1 0 0 0 21 3 L 19 3 z M 9.5 8.5 C 9.03406 8.5 8.6942056 8.4618758 8.234375 8.6523438 C 7.7446532 8.8551836 7.3551907 9.2446761 7.1523438 9.734375 C 6.9619088 10.194201 7 10.5341 7 11 L 7 12 C 7 12.4659 6.961909 12.805799 7.1523438 13.265625 C 7.355187 13.755295 7.7446379 14.14479 8.234375 14.347656 C 8.6941649 14.538057 9.03406 14.5 9.5 14.5 C 9.96594 14.5 10.305887 14.53801 10.765625 14.347656 C 11.25531 14.144787 11.644787 13.75531 11.847656 13.265625 C 11.964127 12.984321 11.995453 12.747877 12.001953 12.5 L 21 12.5 A 1 1 0 0 0 22 11.5 A 1 1 0 0 0 21 10.5 L 12.001953 10.5 C 11.995453 10.252123 11.964127 10.015679 11.847656 9.734375 C 11.644783 9.2446608 11.255295 8.8551868 10.765625 8.6523438 C 10.305847 8.4619283 9.96594 8.5 9.5 8.5 z M 3 10.5 A 1 1 0 0 0 2 11.5 A 1 1 0 0 0 3 12.5 L 5 12.5 A 1 1 0 0 0 6 11.5 A 1 1 0 0 0 5 10.5 L 3 10.5 z M 9.5 10.5 C 9.7605847 10.5 9.9150775 10.511777 9.984375 10.515625 C 9.9882213 10.584929 10 10.739434 10 11 L 10 11.5 L 10 12 C 10 12.260584 9.9882205 12.415078 9.984375 12.484375 C 9.9150886 12.488219 9.7606035 12.5 9.5 12.5 C 9.2394649 12.5 9.0849489 12.488227 9.015625 12.484375 C 9.0117747 12.415056 9 12.260538 9 12 L 9 11 C 9 10.739474 9.0117741 10.584948 9.015625 10.515625 C 9.084961 10.511769 9.2394855 10.5 9.5 10.5 z M 12.5 16 C 12.0341 16 11.69416 15.96198 11.234375 16.152344 C 10.74469 16.355213 10.355213 16.74469 10.152344 17.234375 C 10.035873 17.515679 10.004547 17.752123 9.9980469 18 L 3 18 A 1 1 0 0 0 2 19 A 1 1 0 0 0 3 20 L 9.9980469 20 C 10.004547 20.247877 10.035873 20.484321 10.152344 20.765625 C 10.355213 21.25531 10.74469 21.644787 11.234375 21.847656 C 11.69416 22.038024 12.0341 22 12.5 22 C 12.9659 22 13.30584 22.03802 13.765625 21.847656 C 14.25531 21.644787 14.644787 21.25531 14.847656 20.765625 C 15.038024 20.30584 15 19.9659 15 19.5 L 15 18.5 C 15 18.0341 15.03802 17.69416 14.847656 17.234375 C 14.644787 16.74469 14.25531 16.355213 13.765625 16.152344 C 13.30584 15.961976 12.9659 16 12.5 16 z M 12.5 18 C 12.760574 18 12.915075 18.011779 12.984375 18.015625 C 12.988221 18.084927 13 18.239429 13 18.5 L 13 19.5 C 13 19.760574 12.988221 19.915075 12.984375 19.984375 C 12.915073 19.988221 12.760571 20 12.5 20 C 12.239426 20 12.084925 19.988221 12.015625 19.984375 C 12.011779 19.915073 12 19.760571 12 19.5 L 12 18.5 C 12 18.239426 12.011779 18.084925 12.015625 18.015625 C 12.084927 18.011779 12.239429 18 12.5 18 z M 17 18 A 1 1 0 0 0 16 19 A 1 1 0 0 0 17 20 L 21 20 A 1 1 0 0 0 22 19 A 1 1 0 0 0 21 18 L 17 18 z " fill="currentColor"/>
</svg>
