<svg xmlns="http://www.w3.org/2000/svg" width="1em" height="1em" viewBox="0 0 24 24" fill="currentColor">
  <path d="M 12 2 C 10.354975 2 9 3.3550085 9 5 C 9 6.5703874 10.234131 7.8769473 11.777344 7.9921875 C 10.006675 8.0674951 8.2666209 8.8929621 7.1835938 10.421875 A 1 1 0 0 0 7.421875 11.816406 A 1 1 0 0 0 7.9042969 11.996094 C 6.782908 11.991196 6.0006026 12.023994 5.2578125 12.537109 C 4.7738923 12.871817 4.397035 13.340758 4.1777344 13.886719 C 3.7659695 14.911919 4.0771774 15.831658 4.4355469 17.347656 C 4.7125474 18.519413 4.8772039 19.326549 5.2480469 20 L 3 20 A 1 1 0 0 0 2 21 A 1 1 0 0 0 3 22 L 21 22 A 1 1 0 0 0 22 21 A 1 1 0 0 0 21 20 L 18.751953 20 C 19.122782 19.326543 19.287424 18.519403 19.564453 17.347656 C 19.922863 15.831616 20.233921 14.911821 19.822266 13.886719 C 19.602983 13.340915 19.226212 12.871857 18.742188 12.537109 C 17.998373 12.023284 17.213636 11.991084 16.089844 11.996094 A 1 1 0 0 0 16.566406 11.824219 A 1 1 0 0 0 16.824219 10.433594 C 15.73286 8.8457285 14.00379 8.0481453 12.25 7.9902344 C 13.77992 7.8611825 15 6.5607312 15 5 C 15 3.3550085 13.645025 2 12 2 z M 12 4 C 12.564175 4 13 4.4358515 13 5 C 13 5.5641485 12.564175 6 12 6 C 11.435825 6 11 5.5641485 11 5 C 11 4.4358515 11.435825 4 12 4 z M 11.978516 10.015625 C 13.206335 9.9966602 14.440279 10.496293 15.175781 11.566406 A 1 1 0 0 0 15.919922 11.996094 C 15.723276 11.997387 15.517376 12 15.298828 12 L 8.7011719 12 C 8.4843811 12 8.2792101 11.997383 8.0839844 11.996094 A 1 1 0 0 0 8.8164062 11.578125 C 9.5290021 10.572151 10.750696 10.03459 11.978516 10.015625 z M 8.7011719 14 L 15.298828 14 C 16.869228 14 17.472687 14.08978 17.605469 14.181641 C 17.768645 14.294493 17.89408 14.451816 17.966797 14.632812 C 18.024347 14.77611 17.975597 15.372712 17.617188 16.888672 C 17.264084 18.382188 17.082698 18.97376 16.847656 19.259766 C 16.662523 19.485076 16.4308 19.668977 16.166016 19.796875 C 15.828406 19.960004 15.199544 20 13.652344 20 L 10.347656 20 C 8.8004565 20 8.1716104 19.960009 7.8339844 19.796875 C 7.5692076 19.668961 7.3373895 19.484993 7.1523438 19.259766 C 6.9172794 18.973752 6.7358723 18.382171 6.3828125 16.888672 C 6.024442 15.37267 5.975688 14.776012 6.0332031 14.632812 C 6.1058425 14.451973 6.2313116 14.294533 6.3945312 14.181641 C 6.5273381 14.089766 7.1306919 14 8.7011719 14 z M 11 15 A 1 1 0 0 0 10 16 A 1 1 0 0 0 11 17 L 13 17 A 1 1 0 0 0 14 16 A 1 1 0 0 0 13 15 L 11 15 z " fill="currentColor"/>
</svg>
