<svg xmlns="http://www.w3.org/2000/svg" width="1em" height="1em" viewBox="0 0 24 24" fill="currentColor">
  <path d="M 8.5 1 C 7.085785 1 6.0044454 0.99407482 5.0742188 1.1191406 C 4.1439921 1.2442065 3.300893 1.542857 2.671875 2.171875 C 2.042857 2.800893 1.7442065 3.6439921 1.6191406 4.5742188 C 1.4940748 5.5044454 1.5 6.585785 1.5 8 L 1.5 11 C 1.5 12.4142 1.49407 13.495558 1.6191406 14.425781 C 1.7442065 15.356004 2.0428648 16.199101 2.671875 16.828125 C 3.3008908 17.457155 4.1439898 17.75579 5.0742188 17.880859 C 6.0044479 18.005928 7.085785 18 8.5 18 L 11 18 L 11 19.501953 C 10.512473 19.510167 10.111237 19.549724 9.6796875 19.728516 C 9.0697597 19.981062 8.6991453 20.386762 8.1210938 20.964844 L 7.7929688 21.292969 A 1 1 0 0 0 7.7929688 22.707031 A 1 1 0 0 0 9.2070312 22.707031 L 9.5351562 22.378906 C 10.113245 21.800788 10.320079 21.628025 10.445312 21.576172 C 10.528378 21.541757 10.673871 21.518909 11 21.507812 L 11 22 A 1 1 0 0 0 12 23 A 1 1 0 0 0 13 22 L 13 21.507812 C 13.326065 21.518909 13.471568 21.541759 13.554688 21.576172 C 13.680148 21.628162 13.886744 21.800806 14.464844 22.378906 L 14.792969 22.707031 A 1 1 0 0 0 16.207031 22.707031 A 1 1 0 0 0 16.207031 21.292969 L 15.878906 20.964844 C 15.300806 20.386744 14.92985 19.981122 14.320312 19.728516 C 13.888834 19.549869 13.487529 19.510213 13 19.501953 L 13 18 L 15.5 18 C 16.9142 18 17.995556 18.0059 18.925781 17.880859 C 19.856006 17.75579 20.699103 17.457147 21.328125 16.828125 C 21.957147 16.199103 22.25579 15.356006 22.380859 14.425781 C 22.505928 13.495556 22.5 12.4142 22.5 11 L 22.5 8 C 22.5 6.585785 22.5059 5.5044479 22.380859 4.5742188 C 22.25579 3.6439898 21.957155 2.8008908 21.328125 2.171875 C 20.699101 1.5428648 19.856004 1.2442065 18.925781 1.1191406 C 17.995558 0.99407476 16.9142 1 15.5 1 L 8.5 1 z M 8.5 3 L 15.5 3 C 16.9142 3 17.954551 3.00696 18.658203 3.1015625 C 19.361855 3.1961665 19.664388 3.3362677 19.914062 3.5859375 C 20.163732 3.8356017 20.303832 4.1381434 20.398438 4.8417969 C 20.493043 5.5454503 20.5 6.585785 20.5 8 L 20.5 11 C 20.5 12.4142 20.493 13.454553 20.398438 14.158203 C 20.303828 14.861853 20.16374 15.164384 19.914062 15.414062 C 19.664386 15.66374 19.361853 15.803832 18.658203 15.898438 C 17.954553 15.993042 16.9142 16 15.5 16 L 8.5 16 C 7.085785 16 6.0454503 15.993043 5.3417969 15.898438 C 4.6381434 15.803831 4.3356017 15.663731 4.0859375 15.414062 C 3.8362677 15.164386 3.6961666 14.861855 3.6015625 14.158203 C 3.5069584 13.454551 3.5 12.4142 3.5 11 L 3.5 8 C 3.5 6.585785 3.5069583 5.5454528 3.6015625 4.8417969 C 3.6961667 4.138141 3.8362755 3.8355995 4.0859375 3.5859375 C 4.3355995 3.3362755 4.638141 3.1961667 5.3417969 3.1015625 C 6.0454528 3.0069583 7.085785 3 8.5 3 z " fill="currentColor"/>
</svg>
