<svg xmlns="http://www.w3.org/2000/svg" width="1em" height="1em" viewBox="0 0 24 24" fill="currentColor">
  <path d="M 3 1 C 2.7643 1 2.5678042 0.99380617 2.3183594 1.0273438 C 2.0689145 1.0608814 1.70236 1.1765283 1.4394531 1.4394531 C 1.1765283 1.70236 1.0608815 2.0689145 1.0273438 2.3183594 C 0.99380617 2.5678042 1 2.7643 1 3 L 1 3.5 C 1 3.7357 0.99380617 3.9321958 1.0273438 4.1816406 C 1.0608814 4.4310855 1.1765283 4.79764 1.4394531 5.0605469 C 1.6037786 5.2248835 1.8085956 5.3313079 2 5.3964844 L 2 10 C 2 11.4142 1.99407 12.495558 2.1191406 13.425781 C 2.2442065 14.356004 2.5428648 15.199101 3.171875 15.828125 C 3.8008908 16.457155 4.6439898 16.75579 5.5742188 16.880859 C 6.5044479 17.005928 7.585785 17 9 17 L 11 17 L 11 18.212891 C 10.121199 18.602599 9.5 19.485575 9.5 20.5 C 9.5 21.868867 10.631133 23 12 23 C 13.368867 23 14.5 21.868867 14.5 20.5 C 14.5 19.485575 13.878801 18.602599 13 18.212891 L 13 17 L 15 17 C 16.4142 17 17.495556 17.0059 18.425781 16.880859 C 19.356006 16.75579 20.199103 16.457147 20.828125 15.828125 C 21.457147 15.199103 21.75579 14.356006 21.880859 13.425781 C 22.005928 12.495556 22 11.4142 22 10 L 22 5.3964844 C 22.191409 5.3312823 22.396231 5.2248064 22.560547 5.0605469 C 22.823414 4.7976079 22.939135 4.4310488 22.972656 4.1816406 C 23.006178 3.9322324 23 3.7357 23 3.5 L 23 3 C 23 2.7643 23.006178 2.5677676 22.972656 2.3183594 C 22.939135 2.0689512 22.823414 1.7023923 22.560547 1.4394531 C 22.297657 1.1766529 21.931081 1.0608796 21.681641 1.0273438 C 21.4322 0.99380804 21.2357 1 21 1 L 3 1 z M 3 3 L 21 3 L 21 3.5 L 3 3.5 L 3 3 z M 4 5.5 L 20 5.5 L 20 10 C 20 11.4142 19.993 12.454553 19.898438 13.158203 C 19.803828 13.861853 19.66374 14.164384 19.414062 14.414062 C 19.164386 14.66374 18.861853 14.803832 18.158203 14.898438 C 17.454553 14.993042 16.4142 15 15 15 L 9 15 C 7.585785 15 6.5454503 14.993043 5.8417969 14.898438 C 5.1381434 14.803831 4.8356017 14.663731 4.5859375 14.414062 C 4.3362677 14.164386 4.1961666 13.861855 4.1015625 13.158203 C 4.0069584 12.454551 4 11.4142 4 10 L 4 5.5 z M 12 20 C 12.287987 20 12.5 20.212013 12.5 20.5 C 12.5 20.787987 12.287987 21 12 21 C 11.712013 21 11.5 20.787987 11.5 20.5 C 11.5 20.212013 11.712013 20 12 20 z " fill="currentColor"/>
</svg>
