<svg xmlns="http://www.w3.org/2000/svg" width="1em" height="1em" viewBox="0 0 24 24" fill="currentColor">
  <path d="M 4 3 A 1 1 0 0 0 3 4 L 3 20 A 1 1 0 0 0 4 21 A 1 1 0 0 0 5 20 L 5 4 A 1 1 0 0 0 4 3 z M 17.574219 4.0039062 C 17.337691 3.9951772 17.100722 4.0144981 16.861328 4.0585938 C 16.382541 4.1467851 15.897342 4.3311032 15.40625 4.5683594 C 14.424066 5.0428717 13.312097 5.7644557 11.839844 6.7109375 C 10.486217 7.5811737 9.4553478 8.2372328 8.6660156 8.890625 C 7.8766835 9.5440172 7.2765316 10.260214 7.0859375 11.167969 C 6.970852 11.71614 6.970852 12.28386 7.0859375 12.832031 C 7.2765312 13.739785 7.8766797 14.455981 8.6660156 15.109375 C 9.4553515 15.762769 10.486212 16.418859 11.839844 17.289062 C 13.312096 18.235564 14.424061 18.95712 15.40625 19.431641 C 16.388439 19.906161 17.343572 20.165674 18.28125 19.878906 C 18.834339 19.709789 19.341375 19.414123 19.763672 19.015625 C 20.47615 18.343704 20.752251 17.396614 20.878906 16.285156 C 21.005562 15.173699 21 13.8059 21 12 C 21 10.19408 21.005562 8.8262976 20.878906 7.7148438 C 20.752251 6.60339 20.476102 5.6563208 19.763672 4.984375 C 19.34146 4.5860659 18.834426 4.2902376 18.28125 4.1210938 C 18.046833 4.0494144 17.810747 4.0126353 17.574219 4.0039062 z M 17.478516 6 C 17.561999 6.0019087 17.633557 6.0137225 17.697266 6.0332031 C 17.95189 6.1110591 18.188236 6.2485222 18.390625 6.4394531 C 18.600495 6.6373973 18.786705 7.0294675 18.890625 7.9414062 C 18.994545 8.853345 19 10.19408 19 12 C 19 13.8059 18.9945 15.146651 18.890625 16.058594 C 18.786705 16.970536 18.6024 17.362668 18.392578 17.560547 A 1.0001 1.0001 0 0 0 18.390625 17.560547 C 18.188322 17.751449 17.951976 17.888914 17.697266 17.966797 C 17.442443 18.044727 17.065554 18.011667 16.277344 17.630859 C 15.48918 17.250055 14.394123 16.55392 12.921875 15.607422 C 11.568257 14.737226 10.567347 14.088116 9.9394531 13.568359 C 9.311559 13.048603 9.1067649 12.723769 9.0429688 12.419922 C 8.9849337 12.143493 8.9849337 11.856507 9.0429688 11.580078 C 9.1067647 11.276233 9.3115553 10.951401 9.9394531 10.431641 C 10.567351 9.9118799 11.568252 9.2628119 12.921875 8.3925781 C 14.394122 7.4461 15.489128 6.7499433 16.277344 6.3691406 C 16.868506 6.0835387 17.228065 5.994274 17.478516 6 z " fill="currentColor"/>
</svg>
