<svg xmlns="http://www.w3.org/2000/svg" width="1em" height="1em" viewBox="0 0 24 24" fill="currentColor">
  <path d="M 11.5 1.5 C 9.37868 1.5 7.7683853 1.4938448 6.4296875 1.6738281 C 5.0909897 1.8538114 3.9600166 2.2626397 3.1113281 3.1113281 C 2.2626397 3.9600166 1.8538114 5.0909897 1.6738281 6.4296875 C 1.4938448 7.7683853 1.5 9.37868 1.5 11.5 C 1.5 13.6213 1.49385 15.231605 1.6738281 16.570312 C 1.8538111 17.909022 2.2626282 19.039985 3.1113281 19.888672 C 3.960018 20.737349 5.0909914 21.146192 6.4296875 21.326172 C 7.7683836 21.506152 9.37868 21.5 11.5 21.5 A 1 1 0 0 0 12.5 20.5 A 1 1 0 0 0 11.5 19.5 C 9.37868 19.5 7.8074414 19.49327 6.6953125 19.34375 C 5.5831836 19.19423 4.9947208 18.943932 4.5253906 18.474609 C 4.0560705 18.005296 3.805772 17.416829 3.65625 16.304688 C 3.506728 15.192546 3.5 13.6213 3.5 11.5 C 3.5 10.340647 3.5011131 9.345597 3.5273438 8.5 L 19.472656 8.5 C 19.498887 9.345597 19.5 10.340647 19.5 11.5 A 1 1 0 0 0 20.5 12.5 A 1 1 0 0 0 21.5 11.5 C 21.5 9.37868 21.5062 7.7683836 21.326172 6.4296875 C 21.146192 5.0909914 20.737349 3.960018 19.888672 3.1113281 C 19.039985 2.2626282 17.909021 1.8538111 16.570312 1.6738281 C 15.231604 1.4938452 13.6213 1.5 11.5 1.5 z M 11.5 3.5 C 13.6213 3.5 15.192546 3.50673 16.304688 3.65625 C 17.416829 3.805772 18.005296 4.0560705 18.474609 4.5253906 C 18.915669 4.9664572 19.164081 5.5127397 19.316406 6.5 L 3.6835938 6.5 C 3.8359198 5.5127412 4.0843229 4.9664584 4.5253906 4.5253906 C 4.9947222 4.0560591 5.5831853 3.8057717 6.6953125 3.65625 C 7.8074397 3.5067283 9.37868 3.5 11.5 3.5 z M 6.5 11 A 1 1 0 0 0 5.5 12 A 1 1 0 0 0 6.5 13 L 7.5 13 A 1 1 0 0 0 8.5 12 A 1 1 0 0 0 7.5 11 L 6.5 11 z M 11.5 11 A 1 1 0 0 0 10.5 12 A 1 1 0 0 0 11.5 13 L 16.5 13 A 1 1 0 0 0 17.5 12 A 1 1 0 0 0 16.5 11 L 11.5 11 z M 18.494141 14.5 A 1 1 0 0 0 17.494141 15.5 L 17.494141 17.494141 L 15.5 17.494141 A 1 1 0 0 0 14.5 18.494141 A 1 1 0 0 0 15.5 19.494141 L 17.494141 19.494141 L 17.494141 21.5 A 1 1 0 0 0 18.494141 22.5 A 1 1 0 0 0 19.494141 21.5 L 19.494141 19.494141 L 21.5 19.494141 A 1 1 0 0 0 22.5 18.494141 A 1 1 0 0 0 21.5 17.494141 L 19.494141 17.494141 L 19.494141 15.5 A 1 1 0 0 0 18.494141 14.5 z M 6.5 15 A 1 1 0 0 0 5.5 16 A 1 1 0 0 0 6.5 17 L 7.5 17 A 1 1 0 0 0 8.5 16 A 1 1 0 0 0 7.5 15 L 6.5 15 z M 11.5 15 A 1 1 0 0 0 10.5 16 A 1 1 0 0 0 11.5 17 L 12.5 17 A 1 1 0 0 0 13.5 16 A 1 1 0 0 0 12.5 15 L 11.5 15 z " fill="currentColor"/>
</svg>
