<svg xmlns="http://www.w3.org/2000/svg" width="1em" height="1em" viewBox="0 0 24 24" fill="currentColor">
  <path d="M 9.4296875 1.0019531 A 1 1 0 0 0 9.0527344 1.1054688 A 1 1 0 0 0 8.6054688 2.4472656 C 9.053096 3.3425345 9.8706921 3.9994325 10.841797 4.2421875 L 11 4.28125 L 11 5.0703125 C 10.0389 5.2273163 9.1784681 5.8097549 8.7207031 6.6523438 C 8.572022 6.9260049 8.5068157 7.1406213 8.3339844 7.609375 C 7.6992447 9.3308903 6.8068797 10.686683 6.0136719 12.042969 C 5.220464 13.399254 4.5019531 14.803473 4.5019531 16.509766 C 4.5019531 18.457092 5.3915201 20.142756 6.7734375 21.269531 C 8.0776092 22.332915 9.8034023 22.910745 11.671875 22.974609 C 11.778184 22.99047 11.885971 22.999912 11.998047 23 L 12 23 L 12.001953 23 L 12.003906 23 C 12.111208 22.999785 12.216308 22.991274 12.318359 22.976562 C 14.192023 22.915122 15.923178 22.335541 17.230469 21.269531 C 18.612372 20.14268 19.501953 18.457097 19.501953 16.509766 C 19.501953 14.803479 18.783437 13.399211 17.990234 12.042969 C 17.197031 10.686726 16.304674 9.3307972 15.669922 7.609375 C 15.497079 7.1404375 15.433312 6.925348 15.285156 6.6523438 A 1.0001 1.0001 0 0 0 15.283203 6.6523438 C 14.824726 5.8086168 13.962842 5.2243248 13 5.0683594 L 13 4.28125 L 13.158203 4.2421875 C 14.129319 3.9994302 14.946878 3.3424448 15.394531 2.4472656 A 1 1 0 0 0 14.947266 1.1054688 A 1 1 0 0 0 14.183594 1.0507812 A 1 1 0 0 0 13.605469 1.5527344 C 13.418322 1.9269752 13.077759 2.199319 12.671875 2.3007812 L 12 2.46875 L 11.328125 2.3007812 C 10.92223 2.1993162 10.581604 1.9268855 10.394531 1.5527344 A 1 1 0 0 0 9.4296875 1.0019531 z M 12 7 A 1 1 0 0 0 12.001953 7 C 12.223584 7.0000072 12.445253 7.0128579 12.636719 7.0371094 C 13.20052 7.1085104 13.29327 7.1767018 13.527344 7.6074219 C 13.515539 7.5856757 13.574817 7.7262293 13.679688 8 L 10.324219 8 C 10.429215 7.7259931 10.488658 7.585159 10.476562 7.6074219 C 10.710494 7.1768314 10.803581 7.1085612 11.367188 7.0371094 C 11.558144 7.0129033 11.779049 7.000067 12 7 z M 9.4765625 10 L 14.527344 10 C 15.109314 11.175897 15.74418 12.164492 16.263672 13.052734 C 17.015669 14.338522 17.501953 15.367452 17.501953 16.509766 C 17.501953 17.870635 16.937444 18.929204 15.966797 19.720703 C 15.638708 19.988238 15.261087 20.22108 14.84375 20.412109 C 15.027191 19.91985 15.164579 19.395198 15.269531 18.857422 C 15.459084 17.886151 15.533793 16.876318 15.490234 15.953125 C 15.446676 15.029932 15.322129 14.207492 14.914062 13.5 A 1 1 0 0 0 14.308594 13.035156 A 1 1 0 0 0 13.548828 13.132812 A 1 1 0 0 0 13.181641 14.5 C 13.286273 14.681408 13.457108 15.303399 13.492188 16.046875 C 13.527268 16.790351 13.464038 17.668106 13.306641 18.474609 C 13.149244 19.281113 12.888775 20.020642 12.607422 20.470703 C 12.32755 20.918394 12.145784 20.999162 12.001953 21 L 12 21 C 11.990697 20.999997 11.981947 20.998083 11.972656 20.998047 C 11.832427 20.987461 11.657658 20.891893 11.394531 20.470703 C 11.113496 20.020848 10.852241 19.283067 10.695312 18.476562 C 10.538383 17.67006 10.476423 16.79055 10.511719 16.046875 C 10.547019 15.3032 10.717621 14.679896 10.822266 14.498047 A 1 1 0 0 0 10.453125 13.132812 A 1 1 0 0 0 9.0878906 13.501953 C 8.6810204 14.209004 8.5574786 15.030132 8.5136719 15.953125 C 8.4698649 16.876118 8.5434319 17.886151 8.7324219 18.857422 C 8.8369868 19.394811 8.9748487 19.918226 9.1582031 20.410156 C 8.7418402 20.219336 8.3645569 19.987694 8.0371094 19.720703 C 7.0664768 18.929278 6.5019531 17.87064 6.5019531 16.509766 C 6.5019531 15.367458 6.9882247 14.338576 7.7402344 13.052734 C 8.2597394 12.164446 8.8945913 11.175902 9.4765625 10 z " fill="currentColor"/>
</svg>
