<svg xmlns="http://www.w3.org/2000/svg" width="1em" height="1em" viewBox="0 0 24 24" fill="currentColor">
  <path d="M 9.3984375 1 C 8.4661535 1 7.6494197 1.5482695 7.3125 2.1933594 C 6.9755803 2.8384493 6.9683421 3.4716726 7.0195312 3.9765625 A 1 1 0 0 0 8.1152344 4.8691406 A 1 1 0 0 0 9.0097656 3.7734375 C 8.9849147 3.5283274 9.0311447 3.2240507 9.0859375 3.1191406 C 9.1400172 3.0155959 9.0589983 3.0003784 9.3886719 3 C 9.3873676 3.0001487 9.3857701 3.0017285 9.3847656 3.0019531 L 9.3828125 3.0019531 L 9.3808594 3.0019531 L 9.3808594 3.0039062 L 9.3808594 3.0058594 L 9.3808594 3.0078125 L 9.3828125 3.0078125 L 9.3828125 3.0097656 L 9.3847656 3.0117188 C 9.4373621 3.0540669 9.8806987 3.2179662 10.375 3.5839844 C 10.470755 3.6548885 10.570873 3.7302701 10.673828 3.8105469 C 9.3132476 5.0069063 7.8081962 6 7 6 L 4.828125 6 C 3.4578137 6 2.438589 7.3983286 2.8769531 8.7011719 C 3.1079279 9.3876054 2.9149605 10.277816 2.4882812 11.341797 C 2.061602 12.405778 1.4317117 13.547005 1.1601562 14.792969 C 0.43925725 18.100737 2.242173 21.652104 5.6816406 22.371094 C 9.7044023 23.212016 14.293173 23.213286 18.316406 22.373047 C 21.758188 21.654188 23.558251 18.100465 22.839844 14.791016 C 22.569516 13.545401 21.942121 12.403481 21.515625 11.339844 C 21.089129 10.276207 20.893731 9.3828247 21.121094 8.6953125 C 21.552262 7.391434 20.533157 6 19.164062 6 L 18 6 C 16.941646 6 15.27131 4.9546755 13.755859 3.7382812 C 13.831427 3.673765 13.905646 3.6126898 13.976562 3.5546875 C 14.388577 3.2177034 14.776197 3.0666408 14.814453 3.0175781 L 14.814453 3.015625 L 14.814453 3.0136719 L 14.816406 3.0136719 L 14.816406 3.0117188 L 14.814453 3.0117188 L 14.814453 3.0097656 L 14.814453 3.0078125 L 14.8125 3.0078125 L 14.810547 3.0058594 C 14.802589 3.0016441 14.784891 3 14.755859 3 C 14.852375 3 14.89054 2.9940117 14.902344 2.9941406 L 14.904297 2.9941406 L 14.904297 2.9960938 L 14.904297 2.9980469 C 14.903316 3.0058142 14.892098 3.0266094 14.916016 3.078125 C 14.970686 3.1958749 15.013594 3.5259863 14.990234 3.7851562 A 1 1 0 0 0 15.896484 4.8710938 A 1 1 0 0 0 16.982422 3.9648438 C 17.02666 3.4740136 17.024001 2.8666251 16.730469 2.234375 C 16.436936 1.6021249 15.653881 1 14.755859 1 C 13.813907 1 13.327842 1.5016521 12.708984 2.0078125 C 12.536644 2.1487691 12.360204 2.2983649 12.181641 2.4550781 C 11.971637 2.2875684 11.766316 2.12799 11.564453 1.9785156 C 10.884214 1.4748149 10.319515 1 9.3984375 1 z M 12.246094 5.0898438 C 12.323524 5.1527966 12.401657 5.2158868 12.480469 5.2792969 C 12.776093 5.517149 13.080259 5.7608675 13.392578 6 L 11.208984 6 C 11.503089 5.7500446 11.789647 5.4953496 12.068359 5.2480469 C 12.128014 5.1951146 12.187289 5.1424646 12.246094 5.0898438 z M 4.828125 8 L 7 8 L 18 8 L 19.164062 8 C 19.195307 8 19.216631 8.0039446 19.226562 8.0097656 L 19.228516 8.0097656 L 19.228516 8.0117188 L 19.230469 8.0136719 L 19.232422 8.015625 L 19.232422 8.0175781 C 19.232621 8.0183702 19.232305 8.0225796 19.232422 8.0234375 C 19.232842 8.0336251 19.229339 8.048161 19.222656 8.0683594 C 19.119114 8.3814545 19.059281 8.6924998 19.033203 9 L 4.96875 9 C 4.9417404 8.6904534 4.8794047 8.3774239 4.7734375 8.0625 C 4.7669077 8.043093 4.7635764 8.0268733 4.7636719 8.0175781 L 4.7636719 8.015625 L 4.7636719 8.0136719 L 4.7636719 8.0117188 L 4.765625 8.0097656 L 4.7675781 8.0078125 L 4.7695312 8.0078125 L 4.7714844 8.0058594 L 4.7734375 8.0058594 C 4.7832074 8.0018199 4.8002142 8 4.828125 8 z M 4.7285156 11 L 19.275391 11 C 19.384974 11.374468 19.519046 11.736939 19.658203 12.083984 C 20.139833 13.28512 20.708746 14.394812 20.886719 15.214844 C 21.401312 17.585394 20.196469 19.935722 17.90625 20.414062 C 14.185483 21.191177 9.8100622 21.191741 6.0898438 20.414062 C 3.8012555 19.935654 2.5992734 17.586182 3.1152344 15.21875 C 3.2938289 14.399314 3.8632698 13.288948 4.3457031 12.085938 C 4.4850631 11.738425 4.6190327 11.375252 4.7285156 11 z " fill="currentColor"/>
</svg>
