<svg xmlns="http://www.w3.org/2000/svg" width="1em" height="1em" viewBox="0 0 24 24" fill="currentColor">
  <path d="M 12 2 C 10.944359 2 10.056005 2.6322875 9.3203125 3.4921875 C 8.58462 4.3520875 7.863808 5.5110063 6.9042969 7.0332031 L 6.109375 8.2949219 L 6.1074219 8.296875 A 1 1 0 0 0 5.8789062 8.6621094 A 1 1 0 0 0 5.8769531 8.6640625 L 4.6601562 10.59375 C 3.7962274 11.964322 3.0628983 13.123118 2.4804688 14.146484 A 1 1 0 0 0 2 15 A 1 1 0 0 0 2 15.027344 C 1.8582437 15.30201 1.7300466 15.566383 1.6152344 15.824219 C 0.98511636 17.239282 0.75687729 18.599817 1.3691406 19.785156 C 1.9814117 20.970496 3.2399486 21.548888 4.7324219 21.779297 C 6.2248952 22.009706 8.1109435 22 10.605469 22 L 13.394531 22 C 15.889031 22 17.775092 22.0097 19.267578 21.779297 C 20.760064 21.548888 22.018598 20.970518 22.630859 19.785156 C 23.243108 18.599819 23.014888 17.239283 22.384766 15.824219 C 22.269952 15.566383 22.141756 15.30201 22 15.027344 A 1 1 0 0 0 22 15 A 1 1 0 0 0 21.519531 14.146484 C 20.937107 13.123117 20.20379 11.964325 19.339844 10.59375 L 17.095703 7.0332031 C 16.136155 5.5110112 15.415377 4.3520815 14.679688 3.4921875 C 13.943998 2.6322935 13.055638 2 12 2 z M 12 4 C 12.315562 4 12.593521 4.1287171 13.160156 4.7910156 C 13.71436 5.4387842 14.413622 6.5283112 15.341797 8 L 8.6582031 8 C 9.5863397 6.5283157 10.285642 5.4387832 10.839844 4.7910156 C 11.406476 4.1287181 11.684441 4 12 4 z M 7.3984375 10 L 16.601562 10 L 17.648438 11.660156 C 18.193691 12.525152 18.681775 13.30285 19.105469 14 L 4.8945312 14 C 5.3182261 13.30285 5.8063188 12.525153 6.3515625 11.660156 L 7.3984375 10 z M 3.75 16 L 20.25 16 C 20.36605 16.225309 20.467874 16.437376 20.556641 16.636719 C 21.081393 17.815154 21.105867 18.378625 20.853516 18.867188 C 20.601177 19.355726 20.181104 19.614668 18.962891 19.802734 C 17.744677 19.990801 15.889031 20 13.394531 20 L 10.605469 20 C 8.1109436 20 6.2553061 19.9908 5.0371094 19.802734 C 3.8189127 19.614668 3.3988433 19.355747 3.1464844 18.867188 C 2.8941277 18.378626 2.9186099 17.815155 3.4433594 16.636719 C 3.5321255 16.437375 3.6339491 16.225309 3.75 16 z " fill="currentColor"/>
</svg>
