<svg xmlns="http://www.w3.org/2000/svg" width="1em" height="1em" viewBox="0 0 24 24" fill="currentColor">
  <path d="M 12 2 C 11.0572 2 10.32979 1.9935767 9.671875 2.0820312 C 9.0139599 2.1704857 8.3614795 2.3963247 7.8789062 2.8789062 C 7.3963288 3.3614753 7.1704861 4.0139614 7.0820312 4.671875 C 6.9935765 5.3297886 7 6.05719 7 7 L 7 8 L 6.4980469 8 C 5.0935769 8 4.1929312 7.9306177 3.3320312 8.5058594 C 3.0044905 8.7247198 2.722786 9.0063924 2.5039062 9.3339844 C 1.9286746 10.194869 1.9980469 11.0955 1.9980469 12.5 C 1.9980469 13.9045 1.9286359 14.805141 2.5039062 15.666016 C 2.7227922 15.993647 3.0044464 16.275281 3.3320312 16.494141 C 4.1929343 17.069453 5.0935769 17 6.4980469 17 L 7 17 C 7 17.9428 6.9935803 18.670214 7.0820312 19.328125 C 7.1704862 19.986036 7.3963406 20.63852 7.8789062 21.121094 C 8.3614778 21.603682 9.0139581 21.829512 9.671875 21.917969 C 10.329792 22.006425 11.0572 22 12 22 C 12.9428 22 13.670212 22.006399 14.328125 21.917969 C 14.986038 21.829509 15.638521 21.603666 16.121094 21.121094 C 16.603666 20.638521 16.829512 19.986038 16.917969 19.328125 C 17.006425 18.670211 17 17.9428 17 17 L 17 16 L 17.498047 16 C 18.902547 16 19.80316 16.06938 20.664062 15.494141 C 20.991698 15.275267 21.273315 14.993651 21.492188 14.666016 C 22.067353 13.805145 21.998047 12.9045 21.998047 11.5 C 21.998047 10.0955 22.067297 9.1948617 21.492188 8.3339844 C 21.27332 8.0063879 20.991654 7.7247339 20.664062 7.5058594 C 19.803164 6.9306866 18.902547 7 17.498047 7 L 17 7 C 17 6.05719 17.006425 5.3297904 16.917969 4.671875 C 16.829512 4.0139596 16.603678 3.3614738 16.121094 2.8789062 C 15.63852 2.3963404 14.986036 2.1704861 14.328125 2.0820312 C 13.670214 1.9935763 12.9428 2 12 2 z M 12 4 C 12.9428 4 13.629208 4.0064601 14.060547 4.0644531 C 14.491886 4.1224461 14.603805 4.1897446 14.707031 4.2929688 C 14.810247 4.3961812 14.877553 4.5081136 14.935547 4.9394531 C 14.99354 5.3707928 15 6.05719 15 7 L 15 8 L 15 10 C 15 10.4714 14.993996 10.805819 14.972656 10.964844 C 14.972341 10.967191 14.97296 10.970412 14.972656 10.972656 C 14.970411 10.97296 14.967193 10.97234 14.964844 10.972656 C 14.805823 10.994033 14.4714 11 14 11 L 10 11 C 9.528595 11 9.1551324 10.993078 8.7695312 11.044922 C 8.3839299 11.096766 7.9220598 11.249815 7.5859375 11.585938 C 7.2498234 11.922062 7.0967637 12.383935 7.0449219 12.769531 C 6.9930801 13.155128 7 13.5286 7 14 L 7 15 L 6.4980469 15 C 5.0935769 15 4.5913363 14.930919 4.4433594 14.832031 C 4.3341841 14.759091 4.2389497 14.663855 4.1660156 14.554688 C 4.0671663 14.406762 3.9980469 13.9045 3.9980469 12.5 C 3.9980469 11.0955 4.0671269 10.593308 4.1660156 10.445312 C 4.2389556 10.336144 4.3341401 10.240948 4.4433594 10.167969 C 4.5913394 10.06909 5.0935769 10 6.4980469 10 L 8 10 L 12 10 A 1 1 0 0 0 13 9 A 1 1 0 0 0 12 8 L 9 8 L 9 7 C 9 6.05719 9.0064604 5.3707945 9.0644531 4.9394531 C 9.1224459 4.5081117 9.1897561 4.3961797 9.2929688 4.2929688 C 9.3961754 4.1897602 9.5081082 4.1224461 9.9394531 4.0644531 C 10.370798 4.0064602 11.0572 4 12 4 z M 11 4.75 C 10.321567 4.75 9.75 5.3216244 9.75 6 C 9.75 6.6783756 10.321567 7.25 11 7.25 C 11.678433 7.25 12.25 6.6783756 12.25 6 C 12.25 5.3216244 11.678433 4.75 11 4.75 z M 17 9 L 17.498047 9 C 18.902547 9 19.404634 9.0690209 19.552734 9.1679688 C 19.661943 9.2409337 19.757146 9.336149 19.830078 9.4453125 C 19.928968 9.5933352 19.998047 10.0955 19.998047 11.5 C 19.998047 12.9045 19.928917 13.406757 19.830078 13.554688 C 19.757148 13.663851 19.661899 13.759105 19.552734 13.832031 C 19.404637 13.930988 18.902547 14 17.498047 14 L 16 14 L 12 14 A 1 1 0 0 0 11 15 A 1 1 0 0 0 12 16 L 15 16 L 15 17 C 15 17.9428 14.993497 18.62921 14.935547 19.060547 C 14.877557 19.491884 14.810259 19.603804 14.707031 19.707031 C 14.603804 19.810259 14.491884 19.877553 14.060547 19.935547 C 13.629207 19.99354 12.9428 20 12 20 C 11.0572 20 10.370796 19.993541 9.9394531 19.935547 C 9.5081101 19.877553 9.3961771 19.810243 9.2929688 19.707031 C 9.1897444 19.603805 9.1224458 19.491886 9.0644531 19.060547 C 9.0064604 18.629208 9 17.9428 9 17 L 9 16 L 9 14 C 9 13.5286 9.0059598 13.194185 9.0273438 13.035156 C 9.0276594 13.032809 9.0270399 13.029588 9.0273438 13.027344 C 9.0295864 13.02704 9.0328101 13.027659 9.0351562 13.027344 C 9.1941827 13.005967 9.528595 13 10 13 L 14 13 C 14.4714 13 14.844869 13.006898 15.230469 12.955078 C 15.616069 12.903238 16.077941 12.750184 16.414062 12.414062 C 16.750186 12.077939 16.903234 11.616069 16.955078 11.230469 C 17.006922 10.844867 17 10.4714 17 10 L 17 9 z M 13 16.75 C 12.321712 16.75 11.75 17.321712 11.75 18 C 11.75 18.678288 12.321712 19.25 13 19.25 C 13.678288 19.25 14.25 18.678288 14.25 18 C 14.25 17.321712 13.678288 16.75 13 16.75 z " fill="currentColor"/>
</svg>
