<svg xmlns="http://www.w3.org/2000/svg" width="1em" height="1em" viewBox="0 0 24 24" fill="currentColor">
  <path d="M 6 2 C 5.292895 2 4.7424594 1.9943049 4.2207031 2.0644531 C 3.6989468 2.1346014 3.1417712 2.3230726 2.7324219 2.7324219 C 2.3230726 3.1417712 2.1346014 3.6989468 2.0644531 4.2207031 C 1.9943049 4.7424594 2 5.292895 2 6 C 2 6.707105 1.9943049 7.2575406 2.0644531 7.7792969 C 2.1346014 8.3010532 2.3230726 8.8582288 2.7324219 9.2675781 C 3.1417712 9.6769274 3.6989468 9.8653986 4.2207031 9.9355469 C 4.7424594 10.005695 5.292895 10 6 10 C 6.707105 10 7.2575406 10.005695 7.7792969 9.9355469 C 8.3010532 9.8653986 8.8582288 9.6769274 9.2675781 9.2675781 C 9.6769274 8.8582288 9.8653986 8.3010532 9.9355469 7.7792969 C 10.005695 7.2575406 10 6.707105 10 6 C 10 5.292895 10.005695 4.7424594 9.9355469 4.2207031 C 9.8653986 3.6989468 9.6769274 3.1417712 9.2675781 2.7324219 C 8.8582288 2.3230726 8.3010532 2.1346014 7.7792969 2.0644531 C 7.2575406 1.9943049 6.707105 2 6 2 z M 12 2 A 1 1 0 0 0 11 3 L 11 8 A 1 1 0 0 0 12 9 A 1 1 0 0 0 13 8 L 13 3 A 1 1 0 0 0 12 2 z M 18 2 C 17.2929 2 16.74246 1.9943101 16.220703 2.0644531 C 15.698946 2.1346011 15.141786 2.3231141 14.732422 2.7324219 C 14.323101 3.1417799 14.134594 3.6989566 14.064453 4.2207031 C 13.994313 4.7424496 14 5.292895 14 6 C 14 6.707105 13.994303 7.2575504 14.064453 7.7792969 C 14.134593 8.3010434 14.323101 8.8582202 14.732422 9.2675781 C 15.141786 9.6768859 15.698946 9.8653992 16.220703 9.9355469 C 16.742463 10.005695 17.2929 10 18 10 C 18.7071 10 19.25754 10.0057 19.779297 9.9355469 C 20.301054 9.8653989 20.858214 9.6768859 21.267578 9.2675781 C 21.676899 8.8582201 21.865406 8.3010434 21.935547 7.7792969 C 22.005687 7.2575504 22 6.707105 22 6 C 22 5.292895 22.005687 4.7424496 21.935547 4.2207031 C 21.865406 3.6989566 21.676899 3.1417798 21.267578 2.7324219 C 20.858214 2.3231141 20.301054 2.1346008 19.779297 2.0644531 C 19.25754 1.9943054 18.7071 2 18 2 z M 6 4 C 6.707105 4 7.2165326 4.00719 7.5117188 4.046875 C 7.8069051 4.086562 7.8235249 4.1164944 7.8535156 4.1464844 C 7.8835066 4.1764754 7.913439 4.1930954 7.953125 4.4882812 C 7.9928121 4.783468 8 5.292895 8 6 C 8 6.707105 7.9928117 7.2165326 7.953125 7.5117188 C 7.9134383 7.8069051 7.8835063 7.8235249 7.8535156 7.8535156 C 7.8235249 7.8835063 7.806905 7.9134383 7.5117188 7.953125 C 7.2165325 7.9928117 6.707105 8 6 8 C 5.292895 8 4.7834676 7.9928117 4.4882812 7.953125 C 4.193095 7.9134383 4.1764751 7.8835063 4.1464844 7.8535156 C 4.1164937 7.8235249 4.0865617 7.806905 4.046875 7.5117188 C 4.0071883 7.2165325 4 6.707105 4 6 C 4 5.292895 4.0071883 4.7834676 4.046875 4.4882812 C 4.0865617 4.193095 4.1164937 4.1764751 4.1464844 4.1464844 C 4.1764751 4.1164937 4.1930951 4.0865617 4.4882812 4.046875 C 4.7834676 4.0071883 5.292895 4 6 4 z M 18 4 C 18.7071 4 19.216526 4.00719 19.511719 4.046875 C 19.806912 4.086562 19.823479 4.1164524 19.853516 4.1464844 C 19.883496 4.1764664 19.913435 4.1930854 19.953125 4.4882812 C 19.992808 4.7834777 20 5.292895 20 6 C 20 6.707105 19.992795 7.2165229 19.953125 7.5117188 C 19.913445 7.8069147 19.883496 7.8235336 19.853516 7.8535156 C 19.823476 7.8835476 19.806916 7.913438 19.511719 7.953125 C 19.216522 7.9928127 18.7071 8 18 8 C 17.2929 8 16.783474 7.9928123 16.488281 7.953125 C 16.193088 7.9134377 16.176521 7.8835478 16.146484 7.8535156 C 16.116505 7.8235336 16.086559 7.8069148 16.046875 7.5117188 C 16.007191 7.2165228 16 6.707105 16 6 C 16 5.292895 16.007205 4.7834773 16.046875 4.4882812 C 16.086555 4.1930853 16.116504 4.1764664 16.146484 4.1464844 C 16.176524 4.1164524 16.193084 4.086562 16.488281 4.046875 C 16.783478 4.0071873 17.2929 4 18 4 z M 3 11 A 1 1 0 0 0 2 12 A 1 1 0 0 0 3 13 L 9 13 A 1 1 0 0 0 10 12 A 1 1 0 0 0 9 11 L 3 11 z M 15 11 C 14.2929 11 13.74245 10.994303 13.220703 11.064453 C 12.698956 11.134593 12.141794 11.323143 11.732422 11.732422 C 11.323143 12.141794 11.134593 12.698956 11.064453 13.220703 C 10.994313 13.742453 11 14.2929 11 15 A 1 1 0 0 0 12 16 A 1 1 0 0 0 13 15 C 13 14.2929 13.007205 13.783484 13.046875 13.488281 C 13.086565 13.193078 13.116464 13.176512 13.146484 13.146484 C 13.176514 13.116464 13.193074 13.086565 13.488281 13.046875 C 13.783488 13.007191 14.2929 13 15 13 L 21 13 A 1 1 0 0 0 22 12 A 1 1 0 0 0 21 11 L 15 11 z M 6 14 C 5.292895 14 4.7424496 13.994303 4.2207031 14.064453 C 3.6989566 14.134593 3.1417798 14.323101 2.7324219 14.732422 C 2.3231141 15.141789 2.1346008 15.698946 2.0644531 16.220703 C 1.9943054 16.74246 2 17.2929 2 18 C 2 18.7071 1.9943101 19.25754 2.0644531 19.779297 C 2.1346011 20.301054 2.3231141 20.858214 2.7324219 21.267578 C 3.1417798 21.676899 3.6989566 21.865406 4.2207031 21.935547 C 4.7424497 22.005687 5.292895 22 6 22 C 6.707105 22 7.2575504 22.005697 7.7792969 21.935547 C 8.3010434 21.865407 8.8582202 21.676899 9.2675781 21.267578 C 9.6768859 20.858211 9.8653992 20.301054 9.9355469 19.779297 C 10.005695 19.25754 10 18.7071 10 18 C 10 17.2929 10.005695 16.74246 9.9355469 16.220703 C 9.8653992 15.698946 9.6768859 15.141786 9.2675781 14.732422 C 8.8582202 14.323101 8.3010434 14.134594 7.7792969 14.064453 C 7.2575504 13.994313 6.707105 14 6 14 z M 15 14 A 1 1 0 0 0 14 15 L 14 16.5 C 14 16.951905 14.05514 17.363653 14.226562 17.75 C 14.397982 18.136347 14.713219 18.47435 15.056641 18.666016 C 15.743484 19.049347 16.377161 19 17 19 A 1 1 0 0 0 18 20 A 1 1 0 0 0 19 19 C 19 17.907293 18.092707 17 17 17 C 16.41971 17 16.077052 16.929835 16.052734 16.921875 C 16.037667 16.884371 16 16.760461 16 16.5 L 16 15 A 1 1 0 0 0 15 14 z M 18 14 A 1 1 0 0 0 17 15 A 1 1 0 0 0 18 16 C 18.7071 16 19.216687 16.007105 19.511719 16.046875 C 19.806751 16.086605 19.823337 16.116264 19.853516 16.146484 C 19.883566 16.176574 19.913395 16.192334 19.953125 16.488281 C 19.992851 16.784227 20 17.295806 20 18.003906 C 20 18.712056 19.992895 19.223589 19.953125 19.519531 C 19.913395 19.815473 19.883656 19.831139 19.853516 19.861328 C 19.809436 19.905468 19.684966 19.978481 18.970703 20 A 1 1 0 0 0 18 21.029297 A 1 1 0 0 0 19.029297 22 C 19.868434 21.97472 20.670258 21.873455 21.267578 21.275391 C 21.676737 20.86558 21.865449 20.307339 21.935547 19.785156 C 22.005647 19.262973 22 18.712056 22 18.003906 C 22 17.295806 22.005597 16.744839 21.935547 16.222656 C 21.865447 15.700473 21.676828 15.142231 21.267578 14.732422 C 20.858357 14.322642 20.301215 14.134728 19.779297 14.064453 C 19.257379 13.994178 18.7071 14 18 14 z M 6 16 C 6.707105 16 7.2165229 16.007205 7.5117188 16.046875 C 7.8069147 16.086555 7.8235336 16.116504 7.8535156 16.146484 C 7.8835476 16.176524 7.913438 16.193084 7.953125 16.488281 C 7.9928127 16.783478 8 17.2929 8 18 C 8 18.7071 7.99281 19.216526 7.953125 19.511719 C 7.913438 19.806912 7.8835476 19.823479 7.8535156 19.853516 C 7.8235336 19.883496 7.8069147 19.913435 7.5117188 19.953125 C 7.2165225 19.992808 6.707105 20 6 20 C 5.292895 20 4.7834773 19.992809 4.4882812 19.953125 C 4.1930853 19.913441 4.1764664 19.883495 4.1464844 19.853516 C 4.1164522 19.823479 4.0865623 19.806912 4.046875 19.511719 C 4.0071877 19.216526 4 18.7071 4 18 C 4 17.2929 4.00719 16.783474 4.046875 16.488281 C 4.086562 16.193088 4.1164524 16.176521 4.1464844 16.146484 C 4.1764664 16.116504 4.1930854 16.086565 4.4882812 16.046875 C 4.7834777 16.007192 5.292895 16 6 16 z M 12 16.769531 A 1 1 0 0 0 11 17.769531 L 11 20.539062 A 1 1 0 0 0 12 21.539062 A 1 1 0 0 0 13 20.539062 L 13 17.769531 A 1 1 0 0 0 12 16.769531 z M 15 20 A 1 1 0 0 0 14 21 A 1 1 0 0 0 15 22 L 16 22 A 1 1 0 0 0 17 21 A 1 1 0 0 0 16 20 L 15 20 z " fill="currentColor"/>
</svg>
