<svg xmlns="http://www.w3.org/2000/svg" width="1em" height="1em" viewBox="0 0 24 24" fill="currentColor">
  <path d="M 19.984375 0.99804688 C 17.784241 1.0073049 15.532006 1.612081 13.693359 3.03125 C 11.374679 4.8209357 9.8499184 7.9107936 10.013672 12.308594 C 9.354119 13.478367 8.7006774 14.897844 8.0605469 16.658203 A 1 1 0 0 0 8.6582031 17.939453 A 1 1 0 0 0 9.9394531 17.341797 C 10.424489 16.007949 10.8956 14.908084 11.361328 13.982422 C 14.1956 13.772336 16.531612 12.840376 18.505859 11.414062 C 18.938441 11.101489 19.297075 10.854705 19.625 10.511719 C 19.952925 10.168732 20.224622 9.6663786 20.285156 9.1445312 C 20.37105 8.4037159 20.051377 7.8138833 19.716797 7.3632812 C 20.510326 7.0795554 21.236433 6.7175803 21.792969 6.1367188 C 22.714073 5.1753547 23.094844 3.7796889 22.978516 2.0957031 A 1.0001 1.0001 0 0 0 22.150391 1.1796875 C 21.446087 1.0587922 20.717753 0.99496086 19.984375 0.99804688 z M 10.548828 2 C 8.614769 2.0034842 7.1152483 2.0217001 5.8496094 2.2265625 C 4.5839704 2.4314249 3.5039673 2.8632266 2.6835938 3.6835938 C 1.7982773 4.5689164 1.3727345 5.7474868 1.1835938 7.1542969 C 0.99445301 8.561107 1 10.260775 1 12.5 C 1 14.73925 0.99445305 16.438893 1.1835938 17.845703 C 1.3727346 19.252514 1.7982819 20.431082 2.6835938 21.316406 C 3.568915 22.201734 4.7474792 22.627263 6.1542969 22.816406 C 7.5611145 23.00555 9.26075 23 11.5 23 C 13.7392 23 15.438881 23.0055 16.845703 22.816406 C 18.252525 22.627263 19.431075 22.201738 20.316406 21.316406 C 21.136768 20.496044 21.568577 19.416028 21.773438 18.150391 C 21.978299 16.884754 21.996536 15.385245 22 13.451172 A 1 1 0 0 0 21.001953 12.449219 A 1 1 0 0 0 20 13.447266 C 19.9966 15.365593 19.96529 16.801665 19.798828 17.830078 C 19.632365 18.858491 19.371182 19.433506 18.902344 19.902344 C 18.396375 20.408312 17.760331 20.677256 16.580078 20.835938 C 15.399825 20.99462 13.7392 21 11.5 21 C 9.26075 21 7.6021198 20.994619 6.421875 20.835938 C 5.2416302 20.677256 4.603625 20.408316 4.0976562 19.902344 C 3.591688 19.396368 3.3227417 18.758365 3.1640625 17.578125 C 3.0053833 16.397885 3 14.73925 3 12.5 C 3 10.260775 3.0053833 8.6001618 3.1640625 7.4199219 C 3.3227417 6.239682 3.5916926 5.6036236 4.0976562 5.0976562 C 4.5665027 4.6288134 5.1415008 4.367637 6.1699219 4.2011719 C 7.1983429 4.0347067 8.634414 4.0034558 10.552734 4 A 1 1 0 0 0 11.550781 2.9980469 A 1 1 0 0 0 10.548828 2 z M 19.322266 3.1308594 C 19.854361 3.1028997 20.390739 3.1139281 20.919922 3.1582031 C 20.849342 3.8631501 20.681602 4.4053642 20.347656 4.7539062 C 19.875335 5.2468721 19.018934 5.6214169 17.705078 5.8652344 A 1.0001 1.0001 0 0 0 17.166016 7.5390625 C 17.4969 7.8847754 17.842775 8.1849564 18.058594 8.4492188 C 18.274412 8.7134811 18.306491 8.8479716 18.298828 8.9140625 C 18.285458 9.0292851 18.302929 9.0000474 18.179688 9.1289062 C 18.056487 9.257765 17.766602 9.4803707 17.333984 9.7929688 C 16.01069 10.748996 14.496215 11.352909 12.742188 11.679688 C 13.678282 10.390697 14.618898 9.5864867 15.625 8.7792969 A 1 1 0 0 0 15.779297 7.375 A 1 1 0 0 0 15.109375 7.0058594 A 1 1 0 0 0 14.375 7.2207031 C 13.690753 7.7696706 12.995939 8.3690692 12.298828 9.125 C 12.718029 7.0269135 13.672829 5.5747941 14.916016 4.6152344 C 16.163944 3.6520139 17.725979 3.2147383 19.322266 3.1308594 z " fill="currentColor"/>
</svg>
