<svg xmlns="http://www.w3.org/2000/svg" width="1em" height="1em" viewBox="0 0 24 24" fill="currentColor">
  <path d="M 12 1 C 10.738918 1 9.8525096 1.8989071 9.4121094 3.0117188 C 7.4978721 3.0088237 6.2247419 3.0114218 5.1425781 3.5898438 C 4.2705279 4.055972 3.555972 4.7705279 3.0898438 5.6425781 C 2.4449421 6.849118 2.5 8.16537 2.5 10.5 L 2.5 14 C 2.5 15.8856 2.49457 17.318937 2.65625 18.521484 C 2.8179268 19.724031 3.1893545 20.759713 3.9648438 21.535156 C 4.7403087 22.310634 5.7759729 22.682068 6.9785156 22.84375 C 8.1810584 23.005432 9.61438 23 11.5 23 L 12.5 23 C 14.3856 23 15.818935 23.0054 17.021484 22.84375 C 18.224034 22.682069 19.259716 22.310663 20.035156 21.535156 C 20.810663 20.759716 21.182069 19.724034 21.34375 18.521484 C 21.505431 17.318935 21.5 15.8856 21.5 14 L 21.5 10.5 C 21.5 8.16537 21.555043 6.8491157 20.910156 5.6425781 C 20.444042 4.7704612 19.729443 4.0559629 18.857422 3.5898438 C 17.775235 3.0114489 16.502105 3.0088263 14.587891 3.0117188 C 14.14749 1.8989071 13.261082 1 12 1 z M 12 3 C 12.564175 3 13 3.4358515 13 4 A 1.0001 1.0001 0 0 0 14 5 C 16.3346 5 17.353229 5.053767 17.914062 5.3535156 C 18.437442 5.6332764 18.866798 6.0626344 19.146484 6.5859375 C 19.446198 7.1466799 19.5 8.16537 19.5 10.5 L 19.5 14 C 19.5 15.8856 19.4945 17.279884 19.363281 18.255859 C 19.232063 19.231835 19.017187 19.725034 18.621094 20.121094 C 18.225034 20.517187 17.731835 20.732063 16.755859 20.863281 C 15.779884 20.9945 14.3856 21 12.5 21 L 11.5 21 C 9.61438 21 8.2201079 20.9945 7.2441406 20.863281 C 6.2681734 20.732063 5.7750213 20.517216 5.3789062 20.121094 C 4.9828255 19.725037 4.7679344 19.231837 4.6367188 18.255859 C 4.5055032 17.279881 4.5 15.8856 4.5 14 L 4.5 10.5 C 4.5 8.16537 4.5537972 7.1466777 4.8535156 6.5859375 C 5.1332673 6.0625677 5.5625677 5.6332673 6.0859375 5.3535156 C 6.6466777 5.0537972 7.66537 5 10 5 A 1.0001 1.0001 0 0 0 11 4 C 11 3.4358515 11.435825 3 12 3 z M 17.552734 8 A 1 1 0 0 0 17.166016 8.0566406 C 16.076959 8.4423387 15.322191 9.3047834 14.703125 10.046875 C 14.551929 10.228117 14.572188 10.228217 14.447266 10.392578 C 14.419116 10.371758 14.395348 10.311739 14.367188 10.292969 C 14.188099 10.173576 14.012773 10.097957 13.861328 10.054688 C 13.709885 10.011419 13.5 10 13.5 10 A 1 1 0 0 0 12.5 11 A 1 1 0 0 0 13.283203 11.976562 C 13.334061 12.01991 13.453508 12.143346 13.605469 12.447266 A 1.0001 1.0001 0 0 0 15.34375 12.537109 C 15.34375 12.537109 15.710298 11.961033 16.238281 11.328125 C 16.766265 10.695217 17.511241 10.057661 17.833984 9.9433594 A 1 1 0 0 0 18.443359 8.6660156 A 1 1 0 0 0 17.552734 8 z M 6.5 9 A 1 1 0 0 0 5.5 10 A 1 1 0 0 0 6.5 11 L 10.5 11 A 1 1 0 0 0 11.5 10 A 1 1 0 0 0 10.5 9 L 6.5 9 z M 17.552734 14 A 1 1 0 0 0 17.166016 14.056641 C 16.076959 14.442339 15.322191 15.304783 14.703125 16.046875 C 14.551929 16.228117 14.572188 16.228217 14.447266 16.392578 C 14.419116 16.371768 14.395348 16.311739 14.367188 16.292969 C 14.188099 16.173576 14.012773 16.097958 13.861328 16.054688 C 13.709885 16.011419 13.5 16 13.5 16 A 1 1 0 0 0 12.5 17 A 1 1 0 0 0 13.283203 17.976562 C 13.334061 18.01991 13.453508 18.143346 13.605469 18.447266 A 1.0001 1.0001 0 0 0 15.34375 18.537109 C 15.34375 18.537109 15.710298 17.961033 16.238281 17.328125 C 16.766265 16.695217 17.511241 16.057661 17.833984 15.943359 A 1 1 0 0 0 18.443359 14.666016 A 1 1 0 0 0 17.552734 14 z M 6.5 15 A 1 1 0 0 0 5.5 16 A 1 1 0 0 0 6.5 17 L 10.5 17 A 1 1 0 0 0 11.5 16 A 1 1 0 0 0 10.5 15 L 6.5 15 z " fill="currentColor"/>
</svg>
