<svg xmlns="http://www.w3.org/2000/svg" width="1em" height="1em" viewBox="0 0 24 24" fill="currentColor">
  <path d="M 14.011719 1 A 1 1 0 0 0 13.400391 1.1992188 L 9.6660156 4 C 8.1881856 4.0017634 7.0094859 4.0170439 5.9960938 4.1386719 C 4.7989445 4.2823544 3.780508 4.6026813 2.9648438 5.2871094 C 2.7195686 5.492919 2.492919 5.7195688 2.2871094 5.9648438 C 1.6026813 6.780508 1.2823544 7.7989444 1.1386719 8.9960938 C 0.99498931 10.193243 1 11.62071 1 13.5 C 1 15.3793 0.99498898 16.80676 1.1386719 18.003906 C 1.2823546 19.201053 1.602665 20.219518 2.2871094 21.035156 C 2.4929251 21.280463 2.7195709 21.507071 2.9648438 21.712891 C 3.780508 22.397319 4.7989445 22.717646 5.9960938 22.861328 C 7.193243 23.005011 8.62071 23 10.5 23 L 13.5 23 C 15.3793 23 16.80676 23.005 18.003906 22.861328 C 19.201053 22.717645 20.219518 22.397335 21.035156 21.712891 C 21.280461 21.507065 21.507065 21.280461 21.712891 21.035156 C 22.397335 20.219518 22.717645 19.201053 22.861328 18.003906 C 23.005011 16.80676 23 15.3793 23 13.5 C 23 11.62071 23.005011 10.193243 22.861328 8.9960938 C 22.717646 7.7989444 22.397319 6.780508 21.712891 5.9648438 C 21.507071 5.7195709 21.280463 5.4929251 21.035156 5.2871094 C 20.219518 4.602665 19.201053 4.2823546 18.003906 4.1386719 C 16.80676 3.9949892 15.3793 4 13.5 4 L 13 4 L 14.599609 2.8007812 A 1 1 0 0 0 14.800781 1.4003906 A 1 1 0 0 0 14.011719 1 z M 9.9746094 6 C 10.145112 5.9998059 10.320678 6 10.5 6 L 13.5 6 C 15.3793 6 16.769822 6.00548 17.765625 6.125 C 18.761428 6.2445173 19.311038 6.4500038 19.75 6.8183594 C 19.906093 6.9493237 20.050661 7.0939129 20.181641 7.25 C 20.550013 7.6890057 20.755483 8.2385668 20.875 9.234375 C 20.994517 10.230183 21 11.62071 21 13.5 C 21 15.3793 20.9945 16.769822 20.875 17.765625 C 20.755483 18.761428 20.549996 19.311038 20.181641 19.75 C 20.050667 19.906095 19.906095 20.050667 19.75 20.181641 C 19.311038 20.549996 18.761428 20.755483 17.765625 20.875 C 16.769822 20.994517 15.3793 21 13.5 21 L 10.5 21 C 8.62071 21 7.2301832 20.994517 6.234375 20.875 C 5.2385668 20.755483 4.6890057 20.550013 4.25 20.181641 C 4.0939129 20.050661 3.9493237 19.906093 3.8183594 19.75 C 3.4500038 19.311038 3.2445173 18.761428 3.125 17.765625 C 3.0054827 16.769822 3 15.3793 3 13.5 C 3 11.62071 3.0054825 10.230183 3.125 9.234375 C 3.2445175 8.2385668 3.4499874 7.6890057 3.8183594 7.25 C 3.9493298 7.0939151 4.0939151 6.9493298 4.25 6.8183594 C 4.6890057 6.4499874 5.2385668 6.2445175 6.234375 6.125 C 7.1351633 6.0168869 8.3582417 6.0018405 9.9746094 6 z M 14.5 9 C 12.026563 9 10 11.026563 10 13.5 C 10 15.973437 12.026563 18 14.5 18 C 16.973437 18 19 15.973437 19 13.5 C 19 11.026563 16.973437 9 14.5 9 z M 6 11 A 1 1 0 0 0 5 12 A 1 1 0 0 0 6 13 L 7 13 A 1 1 0 0 0 8 12 A 1 1 0 0 0 7 11 L 6 11 z M 14.5 11 C 15.892557 11 17 12.107443 17 13.5 C 17 14.892557 15.892557 16 14.5 16 C 13.107443 16 12 14.892557 12 13.5 C 12 12.107443 13.107443 11 14.5 11 z M 6 14 A 1 1 0 0 0 5 15 A 1 1 0 0 0 6 16 L 7 16 A 1 1 0 0 0 8 15 A 1 1 0 0 0 7 14 L 6 14 z " fill="currentColor"/>
</svg>
