<svg xmlns="http://www.w3.org/2000/svg" width="1em" height="1em" viewBox="0 0 24 24" fill="currentColor">
  <path d="M 6.5 2.0078125 C 5.8992628 2.0078125 5.2992784 2.2232374 4.8320312 2.6542969 C 3.7219981 3.6783406 2 5.4108969 2 7.671875 C 2 9.8512854 3.8079471 12 6.5 12 C 9.1920529 12 11 9.8512854 11 7.671875 C 11 5.4108969 9.2780018 3.6783406 8.1679688 2.6542969 C 7.7007215 2.2232374 7.1007372 2.0078125 6.5 2.0078125 z M 17.5 2.0078125 C 16.899261 2.0078125 16.299293 2.2232621 15.832031 2.6542969 C 14.722002 3.6783466 13 5.4109128 13 7.671875 C 13 9.8512936 14.807962 12 17.5 12 C 20.192038 12 22 9.8512936 22 7.671875 C 22 5.4109128 20.277998 3.6783466 19.167969 2.6542969 C 18.700707 2.2232621 18.100739 2.0078125 17.5 2.0078125 z M 6.5 3.9921875 C 6.6088486 3.9921875 6.7176971 4.0355864 6.8125 4.1230469 C 7.7722869 5.0084832 9 6.5855131 9 7.671875 C 9 8.7743646 8.1571871 10 6.5 10 C 4.8428129 10 4 8.7743646 4 7.671875 C 4 6.5855131 5.2277131 5.0084832 6.1875 4.1230469 C 6.2823028 4.0355864 6.3911514 3.9921875 6.5 3.9921875 z M 17.5 3.9921875 C 17.608831 3.9921875 17.717662 4.0355616 17.8125 4.1230469 C 18.772271 5.0084772 20 6.5854972 20 7.671875 C 20 8.7743564 19.157162 10 17.5 10 C 15.842838 10 15 8.7743564 15 7.671875 C 15 6.5854972 16.227729 5.0084772 17.1875 4.1230469 C 17.282338 4.0355616 17.391169 3.9921875 17.5 3.9921875 z M 12 12.007812 C 11.39927 12.007812 10.799296 12.223276 10.332031 12.654297 C 9.2220527 13.678297 7.5 15.410877 7.5 17.671875 C 7.5 19.851319 9.3079563 22 12 22 C 14.692028 22 16.5 19.851327 16.5 17.671875 C 16.5 15.410893 14.778011 13.678316 13.667969 12.654297 C 13.200704 12.223276 12.60073 12.007812 12 12.007812 z M 12 13.992188 C 12.108832 13.992188 12.217664 14.035567 12.3125 14.123047 C 13.272257 15.008427 14.5 16.585457 14.5 17.671875 C 14.5 18.774423 13.657172 20 12 20 C 10.342804 20 9.5 18.774431 9.5 17.671875 C 9.5 16.585473 10.727759 15.008447 11.6875 14.123047 C 11.782336 14.035567 11.891168 13.992188 12 13.992188 z " fill="currentColor"/>
</svg>
