<svg xmlns="http://www.w3.org/2000/svg" width="1em" height="1em" viewBox="0 0 24 24" fill="currentColor">
  <path d="M 12 1.0117188 C 10.886028 1.0117192 9.772809 1.4250898 8.90625 2.2480469 C 6.3186575 4.7054124 2.5 8.9230696 2.5 13.677734 C 2.5 18.303207 6.1861253 23 12 23 C 17.813857 23 21.5 18.30321 21.5 13.677734 C 21.5 8.923068 17.681296 4.705407 15.09375 2.2480469 C 14.227178 1.4250959 13.113972 1.0117185 12 1.0117188 z M 12 2.9882812 C 12.60942 2.9882815 13.218369 3.2239266 13.716797 3.6972656 C 16.155851 6.0136055 19.5 10.064141 19.5 13.677734 C 19.5 17.257058 16.748543 21 12 21 C 7.2514347 21 4.5 17.257062 4.5 13.677734 C 4.5 10.06414 7.8441157 6.0136001 10.283203 3.6972656 C 10.781614 3.2239327 11.39058 2.9882809 12 2.9882812 z " fill="currentColor"/>
</svg>
