<svg xmlns="http://www.w3.org/2000/svg" width="1em" height="1em" viewBox="0 0 24 24" fill="currentColor">
  <path d="M 8.5 3.0214844 C 7.5788201 3.0214846 6.6573037 3.370695 5.9550781 4.0683594 C 3.9603682 6.0501066 1 9.4491319 1 13.341797 C 1 17.123696 3.9041779 21 8.5 21 C 13.095839 21 16 17.123692 16 13.341797 C 16 9.4491219 13.039542 6.0500897 11.044922 4.0683594 C 10.342692 3.3706976 9.4211799 3.0214842 8.5 3.0214844 z M 15.5 3.0214844 C 14.57881 3.0214844 13.657303 3.3706819 12.955078 4.0683594 A 1 1 0 0 0 12.951172 5.4824219 A 1 1 0 0 0 14.365234 5.4863281 C 15.048384 4.807603 15.951616 4.807603 16.634766 5.4863281 C 18.483939 7.323554 21 10.539872 21 13.341797 C 21 16.123702 18.981361 19 15.5 19 A 1 1 0 0 0 14.5 20 A 1 1 0 0 0 15.5 21 C 20.095839 21 23 17.123692 23 13.341797 C 23 9.4491219 20.039542 6.0500897 18.044922 4.0683594 C 17.342697 3.3706819 16.42119 3.0214844 15.5 3.0214844 z M 8.5 4.9785156 C 8.8966976 4.9785158 9.2931654 5.1469499 9.6347656 5.4863281 C 11.483945 7.3235578 14 10.539872 14 13.341797 C 14 16.123702 11.981361 19 8.5 19 C 5.0186621 19 3 16.123698 3 13.341797 C 3 10.539862 5.5160043 7.3235409 7.3652344 5.4863281 C 7.7068288 5.1469525 8.1033024 4.9785154 8.5 4.9785156 z " fill="currentColor"/>
</svg>
