<svg xmlns="http://www.w3.org/2000/svg" width="1em" height="1em" viewBox="0 0 24 24" fill="currentColor">
  <path d="M 10 3 C 5.0412804 3 1 7.0412804 1 12 L 1 15 A 1 1 0 0 0 2 16 A 1 1 0 0 0 3 15 L 3 12 C 3 8.1221596 6.1221596 5 10 5 C 12.946731 5 15.550947 6.8292254 16.572266 9.3730469 A 1 1 0 0 0 17.873047 9.9277344 A 1 1 0 0 0 18.427734 8.6269531 C 17.094853 5.3071146 13.768069 3 10 3 z M 10 6 C 6.6981382 6 4 8.6981382 4 12 L 4 15 A 1 1 0 0 0 5 16 A 1 1 0 0 0 6 15 L 6 12 C 6 9.7790218 7.7790218 8 10 8 C 11.488495 8 12.98393 8.8582898 13.630859 9.9941406 A 1 1 0 0 0 14.994141 10.369141 A 1 1 0 0 0 15.369141 9.0058594 C 14.31367 7.1527102 12.212905 6 10 6 z M 10 9 C 8.3550085 9 7 10.354975 7 12 L 7 15 A 1 1 0 0 0 8 16 A 1 1 0 0 0 9 15 L 9 12 C 9 11.435825 9.4358515 11 10 11 C 10.475914 11 10.932471 11.366186 11.03125 11.75 A 1 1 0 0 0 12.25 12.46875 A 1 1 0 0 0 12.96875 11.25 C 12.623529 9.9086144 11.387886 9 10 9 z M 16.5 11 C 14.681963 11 13.179954 12.225529 12.695312 13.880859 C 11.161736 14.334484 10 15.674733 10 17.333984 C 10 19.36409 11.707146 21 13.75 21 L 19.525391 21 C 21.416347 21 23 19.482434 23 17.599609 C 23 16.026894 21.874324 14.766363 20.408203 14.375 C 20.116171 12.475869 18.494813 11 16.5 11 z M 16.5 13 C 17.646648 13 18.525391 13.870919 18.525391 14.933594 C 18.525391 14.992344 18.522878 15.049691 18.517578 15.107422 C 18.480948 15.501158 18.322482 15.858467 18.072266 16.152344 A 1 1 0 0 0 18.185547 17.560547 A 1 1 0 0 0 19.595703 17.449219 C 19.840822 17.161329 19.884626 16.751858 20.039062 16.400391 C 20.579559 16.61118 21 17.018856 21 17.599609 C 21 18.367785 20.368234 19 19.525391 19 L 13.75 19 C 12.755254 19 12 18.249479 12 17.333984 C 12 16.472301 12.673259 15.757309 13.578125 15.673828 C 13.634515 15.668628 13.691712 15.666016 13.75 15.666016 C 14.155591 15.666016 14.517683 15.794457 14.810547 16.007812 A 1 1 0 0 0 16.208984 15.789062 A 1 1 0 0 0 15.988281 14.392578 C 15.672219 14.162309 15.240568 14.149676 14.859375 14.025391 C 15.204882 13.453863 15.736497 13 16.5 13 z " fill="currentColor"/>
</svg>
