<svg xmlns="http://www.w3.org/2000/svg" width="1em" height="1em" viewBox="0 0 24 24" fill="currentColor">
  <path d="M 11.998047 1 C 11.236097 1 10.696691 1.5522082 10.408203 2.1308594 A 1.0001 1.0001 0 0 0 10.408203 2.1328125 L 9.7519531 3.453125 L 8.59375 3.6484375 C 7.964318 3.7542107 7.2933449 4.1199973 7.0703125 4.8242188 C 6.8472801 5.5284403 7.1801852 6.2096844 7.6289062 6.6621094 L 8.5371094 7.578125 L 8.28125 8.7011719 C 8.1251451 9.3813577 8.1493238 10.209182 8.8339844 10.712891 C 9.1763146 10.964745 9.60552 11.02889 9.9589844 10.984375 C 10.312449 10.939855 10.620528 10.810009 10.919922 10.630859 L 12 9.9863281 L 13.078125 10.630859 A 1.0001 1.0001 0 0 0 13.080078 10.630859 C 13.379419 10.809144 13.686339 10.939333 14.039062 10.984375 C 14.391784 11.029415 14.822487 10.965415 15.166016 10.712891 C 15.509544 10.460362 15.697822 10.071304 15.761719 9.7226562 C 15.825619 9.3740087 15.794497 9.0430503 15.716797 8.703125 A 1.0001 1.0001 0 0 0 15.716797 8.7011719 L 15.460938 7.578125 L 16.367188 6.6640625 L 16.369141 6.6621094 C 16.819949 6.20966 17.152127 5.5261858 16.927734 4.8222656 C 16.703033 4.1173777 16.033462 3.7541671 15.404297 3.6484375 L 14.242188 3.453125 L 13.587891 2.1347656 C 13.301814 1.5549106 12.759997 1 11.998047 1 z M 11.998047 3.4296875 L 12.496094 4.4335938 C 12.787497 5.033398 13.147097 5.2970814 13.796875 5.40625 L 14.652344 5.5507812 L 13.957031 6.2519531 A 1.0001 1.0001 0 0 0 13.957031 6.2539062 C 13.465151 6.7500928 13.333383 7.2339392 13.482422 7.9042969 A 1.0001 1.0001 0 0 0 13.484375 7.9101562 L 13.652344 8.6445312 L 12.908203 8.1992188 C 12.277019 7.8221153 11.723639 7.8281205 11.097656 8.1953125 A 1.0001 1.0001 0 0 0 11.089844 8.1992188 L 10.345703 8.6445312 L 10.513672 7.9101562 A 1.0001 1.0001 0 0 0 10.515625 7.9042969 C 10.664552 7.2339688 10.53313 6.7481397 10.041016 6.2519531 L 9.3457031 5.5507812 L 10.201172 5.40625 A 1.0001 1.0001 0 0 0 10.203125 5.40625 C 10.8539 5.2948508 11.206525 5.0336434 11.498047 4.4335938 L 11.496094 4.4414062 L 11.998047 3.4296875 z M 12 12 C 11.2929 12 10.74245 11.994303 10.220703 12.064453 C 9.6989561 12.134593 9.1417825 12.323099 8.7324219 12.732422 C 8.3729084 13.091987 8.1839445 13.56583 8.0957031 14.029297 C 7.7563783 13.994861 7.4162708 14 7 14 L 6.5 14 C 5.792895 14 5.2424496 13.994303 4.7207031 14.064453 C 4.1989566 14.134593 3.6417798 14.323101 3.2324219 14.732422 C 2.8231141 15.141789 2.6346008 15.698946 2.5644531 16.220703 C 2.4943054 16.74246 2.5 17.2929 2.5 18 L 2.5 21 L 2 21 A 1 1 0 0 0 1 22 A 1 1 0 0 0 2 23 L 22 23 A 1 1 0 0 0 23 22 A 1 1 0 0 0 22 21 L 21.5 21 L 21.5 20 C 21.5 19.2929 21.505697 18.74245 21.435547 18.220703 C 21.365407 17.698956 21.176857 17.141794 20.767578 16.732422 C 20.358203 16.323143 19.801044 16.134593 19.279297 16.064453 C 18.75755 15.994313 18.2071 16 17.5 16 L 17 16 C 16.622751 16 16.308221 15.994737 16 16.019531 L 16 16 C 16 15.2929 16.005697 14.74245 15.935547 14.220703 C 15.865407 13.698956 15.676857 13.141794 15.267578 12.732422 C 14.858203 12.323143 14.301044 12.134593 13.779297 12.064453 C 13.25755 11.994313 12.7071 12 12 12 z M 12 14 C 12.7071 14 13.216516 14.007205 13.511719 14.046875 C 13.806922 14.086565 13.823488 14.116464 13.853516 14.146484 C 13.883536 14.176514 13.913435 14.193074 13.953125 14.488281 C 13.992809 14.783488 14 15.2929 14 16 L 14 18.578125 C 13.999308 18.711052 14 18.850976 14 19 L 14 21 L 10 21 L 10 17 L 10 16 C 10 15.2929 10.007205 14.783474 10.046875 14.488281 C 10.086565 14.193088 10.116454 14.176521 10.146484 14.146484 C 10.176464 14.116504 10.193084 14.086565 10.488281 14.046875 C 10.783483 14.007191 11.2929 14 12 14 z M 6.5 16 L 7 16 C 7.471405 16 7.8058176 16.006004 7.9648438 16.027344 C 7.96719 16.027659 7.9704134 16.02704 7.9726562 16.027344 C 7.9729601 16.029588 7.9723406 16.032809 7.9726562 16.035156 C 7.9940369 16.194185 8 16.5286 8 17 L 8 21 L 4.5 21 L 4.5 18 C 4.5 17.2929 4.50719 16.783474 4.546875 16.488281 C 4.586562 16.193088 4.6164524 16.176521 4.6464844 16.146484 C 4.6764664 16.116504 4.6930854 16.086565 4.9882812 16.046875 C 5.2834777 16.007192 5.792895 16 6.5 16 z M 17 18 L 17.5 18 C 18.2071 18 18.716516 18.007205 19.011719 18.046875 C 19.306922 18.086555 19.323488 18.116464 19.353516 18.146484 C 19.383536 18.176514 19.413435 18.193074 19.453125 18.488281 C 19.492809 18.783488 19.5 19.2929 19.5 20 L 19.5 21 L 16 21 L 16 19 C 16 18.5286 16.006004 18.194181 16.027344 18.035156 C 16.027659 18.032809 16.02704 18.029587 16.027344 18.027344 C 16.029589 18.02704 16.032807 18.02766 16.035156 18.027344 C 16.194177 18.005967 16.5286 18 17 18 z " fill="currentColor"/>
</svg>
