<svg xmlns="http://www.w3.org/2000/svg" width="1em" height="1em" viewBox="0 0 24 24" fill="currentColor">
  <path d="M 12 1 C 10.585785 1 9.5044453 0.99407482 8.5742188 1.1191406 C 7.643992 1.2442065 6.800893 1.542857 6.171875 2.171875 C 5.542857 2.800893 5.2442065 3.6439921 5.1191406 4.5742188 C 5.0977467 4.7333449 5.0808194 4.8975265 5.0664062 5.0664062 C 4.8975265 5.0808194 4.7333449 5.0977467 4.5742188 5.1191406 C 3.6439921 5.2442065 2.800893 5.542857 2.171875 6.171875 C 1.542857 6.800893 1.2442065 7.643992 1.1191406 8.5742188 C 0.99407482 9.5044453 1 10.585785 1 12 C 1 13.4142 0.99407502 14.495558 1.1191406 15.425781 C 1.2442065 16.356004 1.5428648 17.199101 2.171875 17.828125 C 2.8008908 18.457155 3.6439898 18.75579 4.5742188 18.880859 C 4.7333445 18.902254 4.8975272 18.91918 5.0664062 18.933594 C 5.0808197 19.102474 5.0977459 19.266656 5.1191406 19.425781 C 5.2442065 20.356004 5.5428648 21.199101 6.171875 21.828125 C 6.8008908 22.457155 7.6439896 22.75579 8.5742188 22.880859 C 9.5044477 23.005928 10.585785 23 12 23 C 13.4142 23 14.495556 23.0059 15.425781 22.880859 C 16.356006 22.75579 17.199103 22.457147 17.828125 21.828125 C 18.457147 21.199103 18.75579 20.356006 18.880859 19.425781 C 18.902254 19.266653 18.91918 19.102477 18.933594 18.933594 C 19.102473 18.919182 19.266656 18.902249 19.425781 18.880859 C 20.356006 18.75579 21.199103 18.457147 21.828125 17.828125 C 22.457147 17.199103 22.75579 16.356006 22.880859 15.425781 C 23.005928 14.495556 23 13.4142 23 12 C 23 10.585785 23.005928 9.5044477 22.880859 8.5742188 C 22.75579 7.6439896 22.457155 6.8008908 21.828125 6.171875 C 21.199101 5.5428648 20.356004 5.2442065 19.425781 5.1191406 C 19.266656 5.0977467 19.102474 5.0808194 18.933594 5.0664062 C 18.91918 4.8975266 18.902254 4.733345 18.880859 4.5742188 C 18.75579 3.6439897 18.457155 2.8008908 17.828125 2.171875 C 17.199101 1.5428648 16.356004 1.2442065 15.425781 1.1191406 C 14.495558 0.99407476 13.4142 1 12 1 z M 12 3 C 13.4142 3 14.454551 3.00696 15.158203 3.1015625 C 15.861855 3.1961665 16.164388 3.3362677 16.414062 3.5859375 C 16.663732 3.8356017 16.803832 4.1381434 16.898438 4.8417969 C 16.905319 4.8929783 16.911984 4.9452417 16.917969 5 C 16.627934 4.9989926 16.322498 5 16 5 L 8 5 C 7.6775011 5 7.3720648 4.9989926 7.0820312 5 C 7.0880161 4.9452418 7.0946813 4.8929783 7.1015625 4.8417969 C 7.1961667 4.138141 7.3362755 3.8355995 7.5859375 3.5859375 C 7.8355995 3.3362755 8.138141 3.1961667 8.8417969 3.1015625 C 9.5454528 3.0069583 10.585785 3 12 3 z M 8 7 L 16 7 C 16.35595 7 16.688872 6.9997848 16.998047 7.0019531 C 17.000215 7.3111266 17 7.6440486 17 8 L 17 16 C 17 16.35595 17.000218 16.688872 16.998047 16.998047 C 16.688874 17.000215 16.355948 17 16 17 L 8 17 C 7.6440485 17 7.3111267 17.000215 7.0019531 16.998047 C 6.9997849 16.688872 7 16.35595 7 16 L 7 8 C 7 7.6440484 6.9997849 7.3111266 7.0019531 7.0019531 C 7.3111266 6.9997849 7.6440484 7 8 7 z M 5 7.0820312 C 4.9989926 7.3720648 5 7.6775011 5 8 L 5 16 C 5 16.322498 4.9989929 16.627934 5 16.917969 C 4.9452419 16.911984 4.8929781 16.905319 4.8417969 16.898438 C 4.1381434 16.803832 3.8356017 16.663732 3.5859375 16.414062 C 3.3362677 16.164388 3.1961666 15.861855 3.1015625 15.158203 C 3.0069584 14.454551 3 13.4142 3 12 C 3 10.585785 3.0069583 9.5454528 3.1015625 8.8417969 C 3.1961667 8.138141 3.3362755 7.8355995 3.5859375 7.5859375 C 3.8355995 7.3362755 4.138141 7.1961667 4.8417969 7.1015625 C 4.8929783 7.0946813 4.9452418 7.0880161 5 7.0820312 z M 19 7.0820312 C 19.054758 7.088016 19.107022 7.0946814 19.158203 7.1015625 C 19.861855 7.1961665 20.164388 7.3362677 20.414062 7.5859375 C 20.663732 7.8356017 20.803832 8.1381434 20.898438 8.8417969 C 20.993043 9.5454503 21 10.585785 21 12 C 21 13.4142 20.993 14.454553 20.898438 15.158203 C 20.803828 15.861853 20.66374 16.164385 20.414062 16.414062 C 20.164386 16.66374 19.861853 16.803832 19.158203 16.898438 C 19.107022 16.905319 19.054758 16.911984 19 16.917969 C 19.001007 16.627934 19 16.322498 19 16 L 19 8 C 19 7.6775011 19.001007 7.3720646 19 7.0820312 z M 7.0820312 19 C 7.3720647 19.001007 7.677501 19 8 19 L 16 19 C 16.322495 19 16.627936 19.001009 16.917969 19 C 16.911986 19.054759 16.905316 19.107021 16.898438 19.158203 C 16.803828 19.861853 16.66374 20.164385 16.414062 20.414062 C 16.164386 20.66374 15.861853 20.803832 15.158203 20.898438 C 14.454553 20.993043 13.4142 21 12 21 C 10.585785 21 9.5454503 20.993043 8.8417969 20.898438 C 8.1381434 20.803832 7.8356017 20.663732 7.5859375 20.414062 C 7.3362677 20.164388 7.1961666 19.861855 7.1015625 19.158203 C 7.0946813 19.107022 7.0880161 19.054758 7.0820312 19 z " fill="currentColor"/>
</svg>
