<svg xmlns="http://www.w3.org/2000/svg" width="1em" height="1em" viewBox="0 0 24 24" fill="currentColor">
  <path d="M 11.455078 1 C 9.8325882 1 8.5991987 0.99500499 7.5527344 1.1171875 C 6.5062701 1.23937 5.598017 1.5134548 4.8613281 2.1074219 C 4.5838098 2.331179 4.331179 2.5838098 4.1074219 2.8613281 C 3.5134548 3.598017 3.2393699 4.5062653 3.1171875 5.5527344 C 2.9950051 6.5992035 3 7.8325681 3 9.4550781 L 3 13 A 1 1 0 0 0 4 14 A 1 1 0 0 0 5 13 L 5 9.4550781 C 5 7.8325681 5.0041805 6.633989 5.1035156 5.7832031 C 5.2028507 4.9324172 5.3719595 4.4794786 5.6640625 4.1171875 C 5.7983254 3.9506658 5.9506658 3.7983254 6.1171875 3.6640625 C 6.4794786 3.3719595 6.9324224 3.2028506 7.7832031 3.1035156 C 8.6339838 3.0041806 9.8325882 3 11.455078 3 C 11.82298 3 11.841181 3.0189629 12.001953 3.0292969 C 12.001856 4.4257545 11.995153 5.5035162 12.119141 6.4257812 C 12.24421 7.3560104 12.542845 8.1991092 13.171875 8.828125 C 13.800899 9.4571352 14.643996 9.7557935 15.574219 9.8808594 C 16.493299 10.004427 17.569593 9.9981768 18.958984 9.9980469 C 18.973846 10.183132 19 10.211888 19 10.65625 L 19 13 A 1 1 0 0 0 20 14 A 1 1 0 0 0 21 13 L 21 10.65625 C 21 9.8387 21.023956 9.2893684 20.771484 8.6796875 C 20.518895 8.070123 20.113277 7.6991741 19.535156 7.1210938 L 14.798828 2.3847656 C 14.299956 1.885914 13.982089 1.5393621 13.466797 1.2929688 C 13.370621 1.2469747 13.270933 1.2075144 13.169922 1.171875 C 12.631476 0.98187736 12.160678 1 11.455078 1 z M 14.046875 4.4609375 L 17.539062 7.953125 C 16.960565 7.9405587 16.219951 7.9492793 15.841797 7.8984375 C 15.138145 7.8038334 14.835612 7.6637323 14.585938 7.4140625 C 14.336267 7.1643983 14.196168 6.8618566 14.101562 6.1582031 C 14.050719 5.7800485 14.059442 5.0394407 14.046875 4.4609375 z M 4 15 A 1.0001 1.0001 0 0 0 3 16 L 3 19.5 L 3 22 A 1 1 0 0 0 4 23 A 1 1 0 0 0 5 22 L 5 20.5 L 5.6328125 20.5 L 6.6054688 22.447266 A 1 1 0 0 0 7.9472656 22.894531 A 1 1 0 0 0 8.3945312 21.552734 L 7.5878906 19.941406 C 8.3796083 19.456003 9 18.737249 9 17.75 C 9 16.243062 7.756938 15 6.25 15 L 4 15 z M 11.75 15 A 1.0001 1.0001 0 0 0 10.814453 15.648438 L 8.5644531 21.648438 A 1 1 0 0 0 9.1484375 22.935547 A 1 1 0 0 0 10.435547 22.351562 L 10.941406 21 L 12.558594 21 L 13.064453 22.351562 A 1 1 0 0 0 14.351562 22.935547 A 1 1 0 0 0 14.935547 21.648438 L 12.685547 15.648438 A 1.0001 1.0001 0 0 0 11.75 15 z M 16 15 A 1 1 0 0 0 15 16 L 15 22 A 1.0001 1.0001 0 0 0 16.707031 22.707031 L 18 21.414062 L 19.292969 22.707031 A 1.0001 1.0001 0 0 0 21 22 L 21 16 A 1 1 0 0 0 20 15 A 1 1 0 0 0 19 16 L 19 19.585938 L 18.707031 19.292969 A 1.0001 1.0001 0 0 0 17.292969 19.292969 L 17 19.585938 L 17 16 A 1 1 0 0 0 16 15 z M 5 17 L 6.25 17 C 6.676062 17 7 17.323938 7 17.75 C 7 18.176062 6.676062 18.5 6.25 18.5 L 5 18.5 L 5 17 z M 11.75 18.845703 L 11.808594 19 L 11.691406 19 L 11.75 18.845703 z " fill="currentColor"/>
</svg>
