<svg xmlns="http://www.w3.org/2000/svg" width="1em" height="1em" viewBox="0 0 24 24" fill="currentColor">
  <path d="M 7.9511719 2.0058594 C 7.8413799 2.0012277 7.7321006 2.0020149 7.6230469 2.0078125 C 7.1868319 2.0310031 6.7605444 2.1406144 6.3691406 2.3632812 C 5.5863324 2.8086168 5.1193172 3.6096129 4.9101562 4.4746094 C 4.7009953 5.3396059 4.7056798 6.3124619 4.8613281 7.3769531 C 4.8949722 7.6070478 4.9363321 7.8415901 4.984375 8.0800781 C 4.8388997 8.1324167 4.6959682 8.1864566 4.5566406 8.2421875 C 3.5703904 8.6366865 2.7377775 9.1132778 2.0996094 9.7167969 C 1.4614413 10.320316 1 11.10994 1 12 C 1 12.890056 1.4614425 13.679688 2.0996094 14.283203 C 2.7377762 14.886719 3.5703911 15.36331 4.5566406 15.757812 C 4.6959682 15.813544 4.8388996 15.867583 4.984375 15.919922 C 4.936332 16.15841 4.8949723 16.392953 4.8613281 16.623047 C 4.7056797 17.687535 4.7009948 18.660397 4.9101562 19.525391 C 5.1193178 20.390384 5.5863301 21.19139 6.3691406 21.636719 C 7.1519447 22.082086 8.0754911 22.078203 8.9335938 21.826172 C 9.7916962 21.574141 10.640198 21.085502 11.496094 20.421875 C 11.66388 20.29178 11.831942 20.155465 12 20.011719 C 12.168059 20.155465 12.336119 20.29178 12.503906 20.421875 C 13.359807 21.085502 14.208299 21.574141 15.066406 21.826172 C 15.924513 22.078203 16.848052 22.082086 17.630859 21.636719 C 18.41367 21.19139 18.880683 20.390384 19.089844 19.525391 C 19.299004 18.660397 19.29432 17.687535 19.138672 16.623047 C 19.105027 16.392953 19.063668 16.15841 19.015625 15.919922 C 19.1611 15.867583 19.304032 15.813544 19.443359 15.757812 C 20.429609 15.363311 21.262221 14.886718 21.900391 14.283203 C 22.53856 13.679689 23 12.89006 23 12 C 23 11.109936 22.538562 10.320315 21.900391 9.7167969 C 21.262219 9.1132788 20.429609 8.6366862 19.443359 8.2421875 C 19.304032 8.1864567 19.161101 8.1324167 19.015625 8.0800781 C 19.063668 7.8415901 19.105027 7.6070479 19.138672 7.3769531 C 19.294322 6.3124619 19.299005 5.3396062 19.089844 4.4746094 C 18.880686 3.6096125 18.413668 2.8086171 17.630859 2.3632812 C 17.239454 2.1406146 16.813169 2.031003 16.376953 2.0078125 C 15.940737 1.9846225 15.495456 2.0478095 15.066406 2.1738281 C 14.208306 2.4258647 13.359807 2.9145003 12.503906 3.578125 C 12.336119 3.7082191 12.168058 3.8445358 12 3.9882812 C 11.831942 3.8445357 11.66388 3.7082191 11.496094 3.578125 C 10.640198 2.9145005 9.7916891 2.4258654 8.9335938 2.1738281 C 8.6118079 2.0793142 8.2805478 2.0197545 7.9511719 2.0058594 z M 7.7460938 3.9980469 C 7.9103396 3.9914663 8.1143991 4.0183544 8.3710938 4.09375 C 8.884483 4.2445412 9.5537066 4.603622 10.271484 5.1601562 C 10.365856 5.2333278 10.460746 5.3089611 10.556641 5.3886719 C 10.06094 5.9278834 9.5734935 6.522 9.0996094 7.1621094 C 8.3351372 7.2499596 7.6034584 7.3711557 6.9140625 7.5253906 C 6.8857282 7.3758866 6.8607073 7.2305781 6.8398438 7.0878906 C 6.7099334 6.1994231 6.7309775 5.4520757 6.8535156 4.9453125 C 6.9760538 4.4385493 7.1574301 4.2153368 7.3574219 4.1015625 C 7.4574156 4.0446767 7.5818479 4.0046275 7.7460938 3.9980469 z M 16.253906 3.9980469 C 16.418151 4.0046272 16.542584 4.0446777 16.642578 4.1015625 C 16.84257 4.2153367 17.023947 4.4385497 17.146484 4.9453125 C 17.269022 5.4520753 17.29007 6.1994231 17.160156 7.0878906 C 17.139292 7.2305819 17.11425 7.3758824 17.085938 7.5253906 C 16.396528 7.3711519 15.664875 7.2499613 14.900391 7.1621094 C 14.42651 6.522006 13.939054 5.9278798 13.443359 5.3886719 C 13.539245 5.3089555 13.634138 5.2333325 13.728516 5.1601562 C 14.446298 4.6036222 15.115511 4.2445419 15.628906 4.09375 C 15.885604 4.0183541 16.089661 3.9914666 16.253906 3.9980469 z M 12 6.78125 C 12.065668 6.8531619 12.131578 6.9256995 12.197266 7 C 12.131619 6.9995229 12.065934 7 12 7 C 11.934324 7 11.868125 6.9995266 11.802734 7 C 11.868378 6.925702 11.934374 6.8531597 12 6.78125 z M 12 9 C 12.616559 9 13.219878 9.0235443 13.802734 9.0683594 C 14.109964 9.5170221 14.409243 9.9889062 14.697266 10.480469 C 14.995153 10.988867 15.268335 11.497295 15.515625 12 C 15.268334 12.502706 14.995154 13.011132 14.697266 13.519531 C 14.409241 14.011095 14.109966 14.482976 13.802734 14.931641 C 13.219881 14.976455 12.616556 15 12 15 C 11.38408 15 10.781506 14.976364 10.199219 14.931641 C 9.892093 14.482935 9.5927374 14.011145 9.3046875 13.519531 C 9.0068002 13.011133 8.7337643 12.502705 8.4863281 12 C 8.7337644 11.497294 9.0068001 10.988868 9.3046875 10.480469 C 9.5927362 9.9888547 9.8920942 9.5170647 10.199219 9.0683594 C 10.781507 9.0236355 11.384078 9 12 9 z M 7.6035156 9.4277344 C 7.5952823 9.4417291 7.5863418 9.4566795 7.578125 9.4707031 C 7.5477124 9.5226077 7.5182317 9.5750574 7.4882812 9.6269531 C 7.4694932 9.5729062 7.4497229 9.5184827 7.4316406 9.4648438 C 7.4880911 9.4525674 7.5462851 9.4395872 7.6035156 9.4277344 z M 16.396484 9.4277344 C 16.453932 9.4396321 16.511698 9.4525193 16.568359 9.4648438 C 16.550224 9.5187086 16.532518 9.572677 16.513672 9.6269531 C 16.483565 9.5747824 16.452449 9.5228828 16.421875 9.4707031 C 16.413659 9.4566805 16.404717 9.4417281 16.396484 9.4277344 z M 5.5039062 10.021484 C 5.7173158 10.666439 5.9760944 11.327883 6.2753906 12 C 5.9760948 12.672117 5.7173156 13.333561 5.5039062 13.978516 C 5.434744 13.952555 5.3675066 13.927081 5.3007812 13.900391 C 4.4773821 13.57103 3.8465453 13.183666 3.4726562 12.830078 C 3.0987672 12.476491 3 12.214494 3 12 C 3 11.78549 3.0987684 11.52351 3.4726562 11.169922 C 3.846544 10.816334 4.4773827 10.428968 5.3007812 10.099609 C 5.3675063 10.072919 5.4347444 10.047444 5.5039062 10.021484 z M 18.496094 10.021484 C 18.565256 10.047444 18.632494 10.072919 18.699219 10.099609 C 19.522619 10.428968 20.153452 10.816333 20.527344 11.169922 C 20.901235 11.523511 21 11.785494 21 12 C 21 12.21449 20.90124 12.476489 20.527344 12.830078 C 20.153451 13.183667 19.522619 13.571029 18.699219 13.900391 C 18.632493 13.927081 18.565256 13.952556 18.496094 13.978516 C 18.282685 13.333561 18.023905 12.672117 17.724609 12 C 18.023905 11.327883 18.282685 10.666439 18.496094 10.021484 z M 12 10.5 C 11.18337 10.5 10.5 11.183516 10.5 12 C 10.5 12.816484 11.18337 13.5 12 13.5 C 12.816725 13.5 13.5 12.816725 13.5 12 C 13.5 11.183275 12.816725 10.5 12 10.5 z M 7.4882812 14.373047 C 7.5182314 14.424942 7.5477127 14.477393 7.578125 14.529297 C 7.5863423 14.543321 7.5952818 14.55827 7.6035156 14.572266 C 7.5462849 14.560413 7.4880913 14.547433 7.4316406 14.535156 C 7.4497228 14.481518 7.4694934 14.427094 7.4882812 14.373047 z M 16.513672 14.373047 C 16.532518 14.427324 16.550224 14.481291 16.568359 14.535156 C 16.511697 14.547481 16.453933 14.560368 16.396484 14.572266 C 16.404718 14.558271 16.413658 14.54332 16.421875 14.529297 C 16.452449 14.477116 16.483565 14.425218 16.513672 14.373047 z M 6.9140625 16.474609 C 7.60346 16.628845 8.335135 16.750041 9.0996094 16.837891 C 9.5734917 17.477997 10.060942 18.072118 10.556641 18.611328 C 10.460745 18.69104 10.365857 18.766671 10.271484 18.839844 C 9.5537072 19.396379 8.8844759 19.755466 8.3710938 19.90625 C 7.8577116 20.057034 7.5574128 20.012208 7.3574219 19.898438 C 7.1574344 19.784657 6.9760531 19.561445 6.8535156 19.054688 C 6.7309781 18.54793 6.7099334 17.800573 6.8398438 16.912109 C 6.8607072 16.769423 6.8857283 16.624113 6.9140625 16.474609 z M 17.085938 16.474609 C 17.114249 16.624116 17.139292 16.76942 17.160156 16.912109 C 17.290068 17.800573 17.269019 18.547932 17.146484 19.054688 C 17.023948 19.561445 16.842567 19.784668 16.642578 19.898438 C 16.442585 20.012221 16.142295 20.057048 15.628906 19.90625 C 15.115518 19.755465 14.446297 19.396379 13.728516 18.839844 C 13.634138 18.766669 13.539244 18.691043 13.443359 18.611328 C 13.93905 18.072123 14.426513 17.477989 14.900391 16.837891 C 15.664879 16.750039 16.396525 16.628849 17.085938 16.474609 z M 11.802734 17 C 11.868123 17.000473 11.934326 17 12 17 C 12.065931 17 12.131622 17.000477 12.197266 17 C 12.131581 17.074298 12.065665 17.146841 12 17.21875 C 11.934377 17.146843 11.868376 17.074295 11.802734 17 z " fill="currentColor"/>
</svg>
