<svg xmlns="http://www.w3.org/2000/svg" width="1em" height="1em" viewBox="0 0 24 24" fill="currentColor">
  <path d="M 12.289062 1 C 11.319337 1.0034864 10.545687 1.6551267 9.9648438 2.453125 C 9.3840008 3.2511233 8.837898 4.3037279 8.1074219 5.6875 L 7.1152344 7.5664062 A 1 1 0 0 0 7.5332031 8.9179688 A 1 1 0 0 0 8.8847656 8.5 L 9.8769531 6.6230469 C 10.607427 5.239279 11.154937 4.2156754 11.582031 3.6289062 C 12.009126 3.0421369 12.1568 3.0005036 12.296875 3 C 12.43695 2.9994951 12.582968 3.041445 13.013672 3.625 C 13.444375 4.2085548 13.999029 5.2250315 14.738281 6.6035156 L 14.982422 7.0605469 A 1.0001 1.0001 0 0 0 14.984375 7.0605469 C 15.443068 7.9158189 15.774452 8.5495 15.914062 8.9257812 C 15.929095 8.9662969 15.939287 8.9862844 15.945312 8.9941406 C 15.585439 8.9631146 14.92092 8.8151143 14.027344 8.6035156 L 13.945312 8.5839844 A 1 1 0 0 0 12.742188 9.3261719 A 1 1 0 0 0 13.484375 10.529297 L 13.566406 10.548828 C 14.468854 10.762528 15.15589 10.934626 15.792969 10.986328 C 16.111508 11.012178 16.428744 11.012289 16.771484 10.912109 C 17.114225 10.811926 17.476713 10.569921 17.695312 10.253906 C 18.132441 9.6218352 18.016129 8.8424625 17.789062 8.2304688 C 17.561935 7.618477 17.204801 6.9705324 16.746094 6.1152344 L 16.501953 5.6582031 C 15.762705 4.2797273 15.209018 3.2314252 14.623047 2.4375 C 14.037075 1.6435748 13.258787 0.99650487 12.289062 1 z M 15.957031 8.9863281 L 15.958984 8.9863281 L 15.960938 8.9882812 L 15.960938 8.9902344 C 15.961438 8.9914388 15.962264 8.9922183 15.962891 8.9941406 L 15.960938 8.9941406 L 15.958984 8.9941406 L 15.957031 8.9941406 L 15.955078 8.9941406 C 15.955749 8.9926426 15.956523 8.9897601 15.957031 8.9882812 L 15.957031 8.9863281 z M 6.4511719 10 C 5.7861255 10.01828 5.2426937 10.461448 4.9042969 10.900391 C 4.5659001 11.339334 4.287586 11.854533 3.9179688 12.517578 L 2.4902344 15.080078 C 1.9394003 16.068186 1.5116812 16.818068 1.2441406 17.529297 C 0.97660011 18.240526 0.87864648 19.084669 1.2949219 19.779297 C 1.7111974 20.473909 2.4940026 20.78765 3.25 20.898438 C 4.0059974 21.009225 4.8784994 21 6.0214844 21 L 11 21 A 1 1 0 0 0 12 20 A 1 1 0 0 0 11 19 L 6.0214844 19 C 4.8784994 19 4.0360976 18.990799 3.5390625 18.917969 C 3.0420274 18.845129 3.0336704 18.791841 3.0097656 18.751953 C 2.9858716 18.712083 2.9419926 18.694923 3.1152344 18.234375 C 3.2884763 17.773829 3.6874554 17.040827 4.2382812 16.052734 L 5.6660156 13.492188 C 6.0356382 12.829133 6.3124255 12.351154 6.4882812 12.123047 C 6.4960851 12.112924 6.5029167 12.102607 6.5097656 12.09375 C 6.5169404 12.102014 6.5250689 12.111681 6.5332031 12.121094 C 6.7218599 12.339394 7.0251461 12.803612 7.4316406 13.445312 L 8.1328125 14.550781 A 1 1 0 0 0 9.5136719 14.861328 A 1 1 0 0 0 9.8242188 13.482422 L 9.1210938 12.375 C 8.7145982 11.733299 8.4093458 11.233878 8.046875 10.814453 C 7.6844042 10.395028 7.1161799 9.981723 6.4511719 10 z M 21.308594 10.998047 C 21.201248 11.000912 21.099953 11.009625 20.990234 11.015625 C 19.032423 11.12322 16.760158 11.611885 15.126953 12.988281 C 14.310351 13.676479 13.66802 14.627854 13.451172 15.791016 C 13.259262 16.820413 13.452572 17.996102 13.9375 19.263672 C 13.562573 20.02085 13.237255 20.843277 13.025391 21.779297 A 1 1 0 0 0 13.779297 22.974609 A 1 1 0 0 0 14.974609 22.220703 C 15.123712 21.561969 15.461737 21.136086 15.710938 20.587891 C 16.728845 20.884982 17.693555 21.022401 18.537109 20.833984 C 19.688347 20.576844 20.600739 19.873241 21.240234 19.011719 C 22.519225 17.288675 22.909968 14.953946 22.990234 12.994141 C 22.999334 12.772638 23.014835 12.581775 22.984375 12.320312 C 22.953955 12.058848 22.817368 11.673185 22.5625 11.421875 C 22.309338 11.172088 21.921796 11.038841 21.660156 11.011719 C 21.529337 10.998159 21.41594 10.995182 21.308594 10.998047 z M 20.972656 13.035156 C 20.887006 14.733729 20.461582 16.706434 19.634766 17.820312 C 19.211624 18.390366 18.736985 18.738931 18.101562 18.880859 C 17.770045 18.954909 17.165858 18.718987 16.695312 18.642578 C 17.303162 17.866154 17.961883 17.225361 18.554688 16.830078 A 1 1 0 0 0 18.832031 15.443359 A 1 1 0 0 0 17.445312 15.166016 C 16.824371 15.58006 16.188379 16.291792 15.566406 16.990234 C 15.559206 16.744719 15.37999 16.359967 15.417969 16.15625 C 15.544374 15.478218 15.880006 14.969305 16.416016 14.517578 C 17.461583 13.636418 19.324595 13.145155 20.972656 13.035156 z " fill="currentColor"/>
</svg>
