<svg xmlns="http://www.w3.org/2000/svg" width="1em" height="1em" viewBox="0 0 24 24" fill="currentColor">
  <path d="M 9 1.5 C 4.5898079 1.5 1 5.1192142 1 9.5488281 C 1 12.552662 2.6264902 15.250221 5.078125 16.646484 L 3.9980469 18.724609 C 3.9979716 18.723877 3.9941406 18.695312 3.9941406 18.695312 A 1 1 0 0 0 2.9003906 17.798828 A 1 1 0 0 0 2.0058594 18.892578 C 2.0058594 18.892578 2.0671174 19.522039 2.1953125 20.205078 C 2.2594095 20.546598 2.3369157 20.903558 2.4511719 21.242188 C 2.5652891 21.580406 2.5758079 21.947256 3.2070312 22.314453 L 3.2070312 22.316406 A 1 1 0 0 0 3.2070312 22.318359 L 3.2089844 22.320312 C 3.2098835 22.320723 3.2140386 22.322004 3.2148438 22.322266 L 3.2167969 22.322266 L 3.21875 22.322266 L 3.2207031 22.322266 C 3.2218463 22.322051 3.2254823 22.320628 3.2265625 22.320312 L 3.2285156 22.320312 L 3.2304688 22.320312 L 3.2324219 22.320312 L 3.234375 22.320312 C 3.2351618 22.320542 3.2393567 22.321893 3.2402344 22.322266 A 1 1 0 0 0 3.2460938 22.339844 A 1 1 0 0 0 3.2910156 22.326172 C 3.8482531 22.606966 4.1881525 22.50113 4.515625 22.435547 C 4.8655632 22.365464 5.2124056 22.255713 5.5390625 22.140625 C 6.1923762 21.910449 6.765625 21.650391 6.765625 21.650391 A 1 1 0 0 0 7.2636719 20.326172 A 1 1 0 0 0 5.9394531 19.828125 C 5.9394531 19.828125 5.6952557 19.924685 5.6113281 19.960938 L 9.21875 13.017578 L 9.2207031 13.015625 C 9.779745 12.032185 9.9990412 11.728527 10.160156 11.634766 C 10.321562 11.540837 10.692525 11.5 11.828125 11.5 L 19.652344 11.5 C 19.599254 11.53937 19.416016 11.6875 19.416016 11.6875 A 1 1 0 0 0 19.1875 13.083984 A 1 1 0 0 0 20.583984 13.3125 C 20.583984 13.3125 21.111443 12.933711 21.652344 12.46875 C 21.922794 12.236269 22.198319 11.983779 22.439453 11.708984 C 22.680587 11.43419 23 11.235314 23 10.5 C 23 9.7646702 22.680586 9.5658075 22.439453 9.2910156 C 22.198321 9.0162237 21.922793 8.7637312 21.652344 8.53125 C 21.111445 8.0662876 20.583984 7.6875 20.583984 7.6875 A 1 1 0 0 0 19.1875 7.9160156 A 1 1 0 0 0 19.416016 9.3125 C 19.416016 9.3125 19.599255 9.4606339 19.652344 9.5 L 17 9.5 C 16.973736 5.0926502 13.393985 1.5 9 1.5 z M 9 3.5 C 12.305674 3.5 14.974173 6.1665426 15 9.5 L 11.828125 9.5 C 10.692525 9.5 9.9256314 9.457379 9.1542969 9.90625 C 8.382954 10.355136 8.0415129 11.042007 7.4804688 12.029297 A 1.0001 1.0001 0 0 0 7.4628906 12.0625 L 6.0039062 14.869141 C 4.2250588 13.820813 3 11.796711 3 9.5488281 C 3 6.192622 5.6782121 3.5 9 3.5 z " fill="currentColor"/>
</svg>
