<svg xmlns="http://www.w3.org/2000/svg" width="1em" height="1em" viewBox="0 0 24 24" fill="currentColor">
  <path d="M 12 2 C 6.4889916 2 2 6.4889916 2 12 C 2 17.511035 6.4889957 22 12 22 C 16.34476 22 20.057806 19.220974 21.431641 15.333984 A 1 1 0 0 0 20.820312 14.056641 A 1 1 0 0 0 19.544922 14.666016 C 18.447756 17.770226 15.49264 20 12 20 C 7.5698643 20 4 16.430165 4 12 C 4 7.5698684 7.5698684 4 12 4 C 14.965248 4 17.543087 5.6054171 18.925781 7.9902344 C 18.670197 7.9973298 18.360595 8 18 8 L 15 8 A 1 1 0 0 0 14 9 A 1 1 0 0 0 15 10 L 18 10 C 18.7071 10 19.25754 10.0057 19.779297 9.9355469 C 20.301054 9.8653989 20.858214 9.6768859 21.267578 9.2675781 C 21.676899 8.8582201 21.865406 8.3010434 21.935547 7.7792969 C 22.005687 7.2575504 22 6.707105 22 6 L 22 3 A 1 1 0 0 0 21 2 A 1 1 0 0 0 20 3 L 20 6 C 18.173599 3.570246 15.264879 2 12 2 z " fill="currentColor"/>
</svg>
