<svg xmlns="http://www.w3.org/2000/svg" width="1em" height="1em" viewBox="0 0 24 24" fill="currentColor">
  <path d="M 12 1 C 5.9367104 1 1 5.9367104 1 12 C 1 18.063244 5.9367044 23 12 23 C 18.06325 23 23 18.06325 23 12 C 23 5.9367044 18.063244 1 12 1 z M 12 3 C 16.982356 3 21 7.0175956 21 12 C 21 16.98235 16.98235 21 12 21 C 7.0175956 21 3 16.982356 3 12 C 3 7.0175896 7.0175896 3 12 3 z M 11 7 C 9.9072691 7 9 7.9072936 9 9 L 9 12.5 L 9 16 A 1 1 0 0 0 10 17 A 1 1 0 0 0 11 16 L 11 13.5 L 12.339844 13.5 L 13.580078 16.394531 A 1 1 0 0 0 14.894531 16.919922 A 1 1 0 0 0 15.419922 15.605469 L 14.318359 13.033203 C 15.301929 12.47184 16 11.45414 16 10.25 C 16 8.4668978 14.533058 7 12.75 7 L 11 7 z M 11 9 L 12.75 9 C 13.452142 9 14 9.5478222 14 10.25 C 14 10.95212 13.45212 11.5 12.75 11.5 L 11 11.5 L 11 9 z " fill="currentColor"/>
</svg>
