<svg xmlns="http://www.w3.org/2000/svg" width="1em" height="1em" viewBox="0 0 24 24" fill="currentColor">
  <path d="M 13.921875 1.0019531 C 12.471525 1.0019531 11.363671 0.9965191 10.416016 1.125 C 9.4683595 1.253481 8.6102676 1.5602034 7.9863281 2.2148438 C 7.3623863 2.8694865 7.0986958 3.7462106 7.0273438 4.6914062 C 6.9559917 5.636602 7.0325739 6.7255687 7.1230469 8.1523438 L 7.2480469 10.136719 C 7.2896369 10.792514 7.3025559 11.170233 7.4160156 11.591797 C 7.8001066 13.01883 8.975318 14.100706 10.429688 14.386719 C 10.824243 14.464229 11.213945 14.455938 11.789062 14.455078 C 11.799722 14.548208 11.820312 14.686969 11.820312 14.988281 C 11.820312 15.282781 11.811409 15.517035 11.855469 15.810547 C 11.899489 16.104059 12.094823 16.620059 12.544922 16.857422 C 12.994902 17.094723 13.521129 16.970434 13.789062 16.845703 C 14.056995 16.720974 14.249429 16.583251 14.498047 16.419922 A 1.0001 1.0001 0 0 0 14.5 16.419922 L 17.458984 14.474609 C 17.469268 14.467849 17.475113 14.462558 17.478516 14.458984 C 17.48358 14.459959 17.491867 14.460938 17.503906 14.460938 C 18.726106 14.460938 19.434831 14.492028 20.181641 14.214844 C 21.284859 13.805227 22.009491 12.96543 22.349609 12.095703 C 22.689727 11.225976 22.738948 10.3449 22.789062 9.5546875 L 22.876953 8.1523438 C 22.967403 6.7255744 23.04401 5.6365987 22.972656 4.6914062 C 22.901261 3.7462128 22.637624 2.8694896 22.013672 2.2148438 C 21.389731 1.5602095 20.531637 1.2534811 19.583984 1.125 C 18.636332 0.99651886 17.528475 1.0019531 16.078125 1.0019531 L 13.921875 1.0019531 z M 13.921875 3.0019531 L 16.078125 3.0019531 C 17.528475 3.0019531 18.596556 3.0081331 19.314453 3.1054688 C 20.032351 3.2027998 20.329447 3.3470873 20.566406 3.5957031 C 20.803354 3.8443072 20.925116 4.1343993 20.978516 4.8417969 C 21.031916 5.5491945 20.973213 6.5986099 20.882812 8.0253906 L 20.792969 9.4296875 C 20.743989 10.202065 20.67126 10.894292 20.486328 11.367188 C 20.301396 11.840082 20.097056 12.11236 19.484375 12.339844 C 19.240785 12.430254 18.726106 12.460937 17.503906 12.460938 C 17.128281 12.460938 16.681358 12.591017 16.359375 12.802734 L 13.759766 14.511719 C 13.756666 14.221168 13.790686 13.953196 13.640625 13.572266 C 13.527533 13.285179 13.307707 12.964488 12.982422 12.753906 C 12.657137 12.543325 12.274166 12.460938 11.904297 12.460938 C 11.23879 12.460938 10.951706 12.450238 10.816406 12.423828 L 10.814453 12.423828 C 10.095381 12.281719 9.5319719 11.755109 9.3476562 11.070312 C 9.3138961 10.944876 9.2857309 10.665571 9.2441406 10.009766 L 9.1171875 8.0253906 C 9.0267175 6.5986157 8.9680838 5.5491912 9.0214844 4.8417969 C 9.0748849 4.1344025 9.1966456 3.8443103 9.4335938 3.5957031 C 9.6705442 3.3470935 9.967645 3.2028002 10.685547 3.1054688 C 11.403449 3.0081372 12.471525 3.0019531 13.921875 3.0019531 z M 14.935547 4.0039062 A 1.0001 1.0001 0 0 0 14.566406 4.1015625 C 14.566406 4.1015625 13.559123 4.5480113 12.777344 5.3964844 C 12.386454 5.820724 11.992939 6.4076943 12 7.1816406 C 12.0051 7.7388826 12.318576 8.2535021 12.744141 8.7167969 L 12.275391 10.78125 A 1 1 0 0 0 13.029297 11.976562 A 1 1 0 0 0 14.226562 11.222656 L 14.632812 9.4316406 L 15.435547 9.4316406 L 16.029297 11.304688 A 1 1 0 0 0 17.285156 11.955078 A 1 1 0 0 0 17.935547 10.699219 L 17.292969 8.6777344 C 17.696767 8.2231199 17.995307 7.7211184 18 7.1796875 C 18.00671 6.4056309 17.611823 5.8206396 17.220703 5.3964844 C 16.438463 4.548174 15.431641 4.0996094 15.431641 4.0996094 A 1.0001 1.0001 0 0 0 14.935547 4.0039062 z M 5.0722656 5 A 1 1 0 0 0 4.9414062 5.0019531 C 3.8097329 5.0856993 2.8164886 5.3376619 2.0957031 6.0703125 C 1.5029439 6.6728275 1.2252943 7.477134 1.109375 8.3535156 C 0.99345569 9.2298972 1 10.242406 1 11.566406 L 1 16.380859 C 1 17.704909 0.993456 18.717364 1.109375 19.59375 C 1.2252945 20.470136 1.5029328 21.274456 2.0957031 21.876953 C 2.6884587 22.479501 3.491862 22.768157 4.359375 22.886719 C 5.226888 23.005281 6.2247588 22.998047 7.5273438 22.998047 C 8.8299438 22.998047 9.8258418 23.005247 10.693359 22.886719 C 11.560877 22.768157 12.364284 22.479514 12.957031 21.876953 C 13.665263 21.157003 13.912576 20.181576 13.998047 19.064453 A 1 1 0 0 0 13.076172 17.992188 A 1 1 0 0 0 12.001953 18.912109 C 11.930623 19.844387 11.790018 20.21156 11.53125 20.474609 C 11.314697 20.694748 11.061235 20.817184 10.423828 20.904297 C 9.7864212 20.991407 8.8299438 20.998047 7.5273438 20.998047 C 6.2247588 20.998047 5.2663082 20.991447 4.6289062 20.904297 C 3.9915043 20.817184 3.7380588 20.694762 3.5214844 20.474609 C 3.3049347 20.254506 3.1782074 19.985321 3.0917969 19.332031 C 3.0053863 18.678742 3 17.704909 3 16.380859 L 3 11.566406 C 3 10.242406 3.0053899 9.2685228 3.0917969 8.6152344 C 3.1782075 7.961946 3.3049236 7.6927814 3.5214844 7.4726562 C 3.7848189 7.2049869 4.1423239 7.0660677 5.0878906 6.9960938 A 1 1 0 0 0 6.0117188 5.9238281 A 1 1 0 0 0 5.0722656 5 z M 15 6.2148438 C 15.263906 6.3727222 15.494424 6.4747908 15.75 6.7519531 C 15.951668 6.9706542 16.000256 7.1345476 16 7.1640625 L 16 7.1660156 L 15.998047 7.1679688 C 15.979848 7.1992758 15.832881 7.3380453 15.753906 7.4316406 L 14.246094 7.4316406 C 14.166627 7.3376337 14.01815 7.1956042 14 7.1640625 L 14 7.1621094 C 13.99973 7.1324842 14.046612 6.9705728 14.248047 6.7519531 C 14.503767 6.474417 14.736331 6.3725948 15 6.2148438 z M 7.5 17.751953 C 6.8216244 17.751953 6.25 18.32352 6.25 19.001953 C 6.25 19.680678 6.8211415 20.251953 7.5 20.251953 C 8.1788585 20.251953 8.75 19.680678 8.75 19.001953 C 8.75 18.32352 8.1783756 17.751953 7.5 17.751953 z " fill="currentColor"/>
</svg>
