<svg xmlns="http://www.w3.org/2000/svg" width="1em" height="1em" viewBox="0 0 24 24" fill="currentColor">
  <path d="M 11.5 1 C 9.850085 1 8.591775 0.99334664 7.5253906 1.1367188 C 6.4590062 1.2800909 5.5205986 1.6161133 4.8183594 2.3183594 C 4.1161133 3.0205986 3.7800908 3.9590062 3.6367188 5.0253906 C 3.4933466 6.091775 3.5 7.350085 3.5 9 L 3.5 15 C 3.5 16.6499 3.49335 17.908225 3.6367188 18.974609 C 3.7800906 20.040994 4.1161378 20.979371 4.8183594 21.681641 C 5.5206014 22.383869 6.4590094 22.719914 7.5253906 22.863281 C 8.5917719 23.006649 9.850085 23 11.5 23 L 12.5 23 C 14.1499 23 15.408228 23.0066 16.474609 22.863281 C 17.54099 22.719914 18.479368 22.383844 19.181641 21.681641 C 19.883844 20.979368 20.219914 20.04099 20.363281 18.974609 C 20.506649 17.908228 20.5 16.6499 20.5 15 L 20.5 9 C 20.5 7.350085 20.5066 6.0917719 20.363281 5.0253906 C 20.219914 3.9590094 19.883869 3.0206014 19.181641 2.3183594 C 18.479371 1.6161378 17.540994 1.2800907 16.474609 1.1367188 C 15.408225 0.99334685 14.1499 1 12.5 1 L 11.5 1 z M 11.5 3 L 12.5 3 C 14.1499 3 15.367215 3.00623 16.207031 3.1191406 C 17.046847 3.2320512 17.444648 3.4095135 17.767578 3.7324219 C 18.09045 4.0552999 18.267952 4.4531525 18.380859 5.2929688 C 18.493767 6.132785 18.5 7.350085 18.5 9 L 18.5 15 C 18.5 16.6499 18.4938 17.867212 18.380859 18.707031 C 18.267952 19.54685 18.090474 19.94465 17.767578 20.267578 C 17.44465 20.590474 17.04685 20.767952 16.207031 20.880859 C 15.367212 20.993767 14.1499 21 12.5 21 L 11.5 21 C 9.850085 21 8.632785 20.993767 7.7929688 20.880859 C 6.9531525 20.767952 6.5552999 20.59045 6.2324219 20.267578 C 5.9095135 19.944648 5.7320512 19.546847 5.6191406 18.707031 C 5.5062301 17.867215 5.5 16.6499 5.5 15 L 5.5 9 C 5.5 7.350085 5.5062303 6.132782 5.6191406 5.2929688 C 5.732051 4.4531556 5.909538 4.0553026 6.2324219 3.7324219 C 6.5553026 3.409538 6.9531557 3.232051 7.7929688 3.1191406 C 8.6327819 3.0062303 9.850085 3 11.5 3 z M 12 4 C 9.8026731 4 8 5.8027269 8 8 C 8 10.197273 9.8026731 12 12 12 C 14.197327 12 16 10.197273 16 8 C 16 5.8027269 14.197327 4 12 4 z M 12 6 C 13.116473 6 14 6.8835731 14 8 C 14 9.1164269 13.116473 10 12 10 C 10.883527 10 10 9.1164269 10 8 C 10 6.8835731 10.883527 6 12 6 z M 8 14 A 1 1 0 0 0 7 15 A 1 1 0 0 0 8 16 L 10 16 A 1 1 0 0 0 11 15 A 1 1 0 0 0 10 14 L 8 14 z M 14 14 A 1 1 0 0 0 13 15 A 1 1 0 0 0 14 16 L 16 16 A 1 1 0 0 0 17 15 A 1 1 0 0 0 16 14 L 14 14 z M 8 17 A 1 1 0 0 0 7 18 A 1 1 0 0 0 8 19 L 10 19 A 1 1 0 0 0 11 18 A 1 1 0 0 0 10 17 L 8 17 z M 14 17 A 1 1 0 0 0 13 18 A 1 1 0 0 0 14 19 L 16 19 A 1 1 0 0 0 17 18 A 1 1 0 0 0 16 17 L 14 17 z " fill="currentColor"/>
</svg>
