<svg xmlns="http://www.w3.org/2000/svg" width="1em" height="1em" viewBox="0 0 24 24" fill="currentColor">
  <path d="M 13.939453 1.0019531 A 1 1 0 0 0 13.019531 1.8007812 A 1 1 0 0 0 13.800781 2.9804688 C 16.740157 3.5810538 19.106674 5.6141242 20.34375 8.2851562 L 19.914062 8.0898438 A 1 1 0 0 0 18.589844 8.5859375 A 1 1 0 0 0 19.085938 9.9101562 L 20.976562 10.769531 A 1.0001 1.0001 0 0 0 21.017578 10.787109 C 21.172157 10.849339 21.298577 10.910479 21.525391 10.962891 C 21.751821 11.015211 22.276299 11.009971 22.617188 10.703125 C 22.949717 10.40267 23.016532 9.8873601 22.990234 9.65625 C 22.963937 9.4251399 22.91671 9.2955631 22.873047 9.1386719 C 21.733657 5.0425688 18.387338 1.8752647 14.199219 1.0195312 A 1 1 0 0 0 13.939453 1.0019531 z M 9.7558594 1.0039062 C 9.7190709 1.0039475 9.6851301 1.0064778 9.65625 1.0097656 C 9.4252095 1.0360682 9.2955156 1.0833235 9.1386719 1.1269531 C 5.0425835 2.2663935 1.8752646 5.6126512 1.0195312 9.8007812 A 1 1 0 0 0 1.8007812 10.980469 A 1 1 0 0 0 2.9804688 10.199219 C 3.5810539 7.2598341 5.6141157 4.8933517 8.2851562 3.65625 L 8.0898438 4.0859375 A 1 1 0 0 0 8.5859375 5.4101562 A 1 1 0 0 0 9.9101562 4.9140625 L 10.769531 3.0234375 A 1.0001 1.0001 0 0 0 10.787109 2.9824219 C 10.849339 2.8278699 10.910472 2.7014506 10.962891 2.4746094 C 11.015221 2.2481516 11.009651 1.7236277 10.703125 1.3828125 C 10.440154 1.0918286 10.013379 1.0036174 9.7558594 1.0039062 z M 12.566406 6.0175781 C 12.414297 6.0098993 12.257514 6.0254296 12.105469 6.0644531 C 11.801378 6.1425001 11.514671 6.3116583 11.322266 6.5585938 L 7.8242188 11.050781 C 7.4604532 11.51779 7.4237526 12.106527 7.6132812 12.580078 C 7.80281 13.05363 8.3119758 13.507812 8.9492188 13.507812 L 10.101562 13.507812 L 10.101562 16.492188 C 10.101562 17.09153 10.463779 17.658201 11 17.886719 C 11.536221 18.115237 12.292956 17.935279 12.677734 17.441406 L 16.175781 12.949219 C 16.539541 12.482199 16.576246 11.89346 16.386719 11.419922 C 16.197192 10.946383 15.686084 10.492188 15.048828 10.492188 L 13.898438 10.492188 L 13.898438 7.5078125 C 13.898438 6.9084738 13.53619 6.3418275 13 6.1132812 C 12.865952 6.0561447 12.718516 6.0252569 12.566406 6.0175781 z M 11.898438 9.0742188 L 11.898438 10.984375 C 11.898438 11.74321 12.48905 12.492187 13.347656 12.492188 L 13.996094 12.492188 L 12.101562 14.925781 L 12.101562 13.015625 C 12.101562 12.25679 11.51095 11.507813 10.652344 11.507812 L 10.003906 11.507812 L 11.898438 9.0742188 z M 21.939453 13.001953 A 1 1 0 0 0 21.019531 13.800781 C 20.41893 16.740161 18.385877 19.106673 15.714844 20.34375 L 15.910156 19.914062 A 1 1 0 0 0 15.414062 18.589844 A 1 1 0 0 0 14.089844 19.085938 L 13.230469 20.976562 A 1.0001 1.0001 0 0 0 13.212891 21.017578 C 13.150721 21.172092 13.089509 21.298654 13.037109 21.525391 C 12.984799 21.751744 12.989989 22.276219 13.296875 22.617188 C 13.597277 22.949586 14.112637 23.016534 14.34375 22.990234 C 14.574863 22.963934 14.704444 22.916704 14.861328 22.873047 C 18.957431 21.733657 22.124714 18.387335 22.980469 14.199219 A 1 1 0 0 0 22.199219 13.019531 A 1 1 0 0 0 21.939453 13.001953 z M 2.2558594 13.011719 C 1.9962399 13.005195 1.6364961 13.065796 1.3808594 13.296875 C 1.0484419 13.597359 0.98346088 14.112707 1.0097656 14.34375 C 1.0360706 14.574793 1.0833266 14.704491 1.1269531 14.861328 C 2.2663935 18.957417 5.6126549 22.124714 9.8007812 22.980469 A 1 1 0 0 0 10.980469 22.199219 A 1 1 0 0 0 10.199219 21.019531 C 7.2598309 20.418924 4.893352 18.385885 3.65625 15.714844 L 4.0859375 15.910156 A 1 1 0 0 0 5.4101562 15.414062 A 1 1 0 0 0 4.9140625 14.089844 L 3.0234375 13.230469 A 1.0001 1.0001 0 0 0 2.9824219 13.212891 C 2.8279349 13.150726 2.7013735 13.089517 2.4746094 13.037109 C 2.4179183 13.024007 2.3423992 13.013893 2.2558594 13.011719 z " fill="currentColor"/>
</svg>
