<svg xmlns="http://www.w3.org/2000/svg" width="1em" height="1em" viewBox="0 0 24 24" fill="currentColor">
  <path d="M 10 2 C 9.5356 2 9.2753228 1.9960894 8.9785156 2.0351562 C 7.1883624 2.2708318 5.7708319 3.6883624 5.5351562 5.4785156 C 5.4960895 5.7753228 5.5 6.0356 5.5 6.5 L 5.5 7.7734375 C 5.1742006 7.3723194 4.8046875 6.90625 4.8046875 6.90625 A 1 1 0 0 0 3.40625 6.6953125 A 1 1 0 0 0 3.1953125 8.09375 C 3.1953125 8.09375 3.672556 8.7434368 4.2480469 9.40625 C 4.5357923 9.7376566 4.8469444 10.074003 5.1699219 10.359375 C 5.4928994 10.644747 5.702842 11 6.5 11 C 7.2971727 11.000012 7.5071029 10.644751 7.8300781 10.359375 C 8.1530533 10.073999 8.4642125 9.7376605 8.7519531 9.40625 C 9.3274343 8.743429 9.8046875 8.09375 9.8046875 8.09375 A 1 1 0 0 0 9.59375 6.6953125 A 1 1 0 0 0 8.1953125 6.90625 C 8.1953125 6.90625 7.8257925 7.3723156 7.5 7.7734375 L 7.5 6.5 C 7.5 6.0356 7.5053249 5.8313741 7.5175781 5.7382812 C 7.6363625 4.8360144 8.3360143 4.1363625 9.2382812 4.0175781 C 9.331374 4.0053249 9.5356 4 10 4 A 1 1 0 0 0 11 3 A 1 1 0 0 0 10 2 z M 15.5 2.0019531 A 1 1 0 0 0 15.240234 2.0214844 C 14.901095 2.0917654 14.560738 2.2168249 14.259766 2.4179688 C 13.92615 2.6408745 13.640986 2.9259985 13.417969 3.2597656 C 13.217081 3.5605571 13.091786 3.9010455 13.021484 4.2402344 A 1 1 0 0 0 13.796875 5.4238281 A 1 1 0 0 0 14.978516 4.6464844 C 15.010816 4.4906533 15.042766 4.4269624 15.080078 4.3710938 C 15.157058 4.2558809 15.255709 4.1571723 15.371094 4.0800781 C 15.426724 4.0429021 15.490624 4.0108151 15.646484 3.9785156 A 1 1 0 0 0 16.423828 2.796875 A 1 1 0 0 0 15.5 2.0019531 z M 19.5 2.0019531 A 1 1 0 0 0 18.576172 2.796875 A 1 1 0 0 0 19.353516 3.9785156 C 19.509376 4.0108146 19.573279 4.0429016 19.628906 4.0800781 C 19.744291 4.1571721 19.842939 4.2558809 19.919922 4.3710938 C 19.957232 4.4269628 19.989182 4.4906533 20.021484 4.6464844 A 1 1 0 0 0 21.203125 5.4238281 A 1 1 0 0 0 21.978516 4.2402344 C 21.908214 3.9010455 21.782919 3.5605571 21.582031 3.2597656 C 21.359014 2.9259985 21.07385 2.6408745 20.740234 2.4179688 C 20.439262 2.2168249 20.098905 2.0917651 19.759766 2.0214844 A 1 1 0 0 0 19.5 2.0019531 z M 14.056641 7.5566406 A 1 1 0 0 0 13.796875 7.5761719 A 1 1 0 0 0 13.021484 8.7597656 C 13.091784 9.0989545 13.217081 9.4394429 13.417969 9.7402344 C 13.640986 10.074002 13.92615 10.359125 14.259766 10.582031 C 14.560738 10.783175 14.901095 10.908235 15.240234 10.978516 A 1 1 0 0 0 16.423828 10.203125 A 1 1 0 0 0 15.646484 9.0214844 C 15.490624 8.9891851 15.426721 8.9570982 15.371094 8.9199219 C 15.255709 8.8428277 15.157061 8.744119 15.080078 8.6289062 C 15.042766 8.5730376 15.010814 8.5093467 14.978516 8.3535156 A 1 1 0 0 0 14.056641 7.5566406 z M 20.943359 7.5566406 A 1 1 0 0 0 20.021484 8.3535156 C 19.989184 8.5093467 19.957234 8.5730376 19.919922 8.6289062 C 19.842942 8.7441191 19.744291 8.8428277 19.628906 8.9199219 C 19.573276 8.9570979 19.509376 8.9891849 19.353516 9.0214844 A 1 1 0 0 0 18.576172 10.203125 A 1 1 0 0 0 19.759766 10.978516 C 20.098905 10.908236 20.439262 10.783175 20.740234 10.582031 C 21.07385 10.359125 21.359014 10.074002 21.582031 9.7402344 C 21.782919 9.4394429 21.908214 9.0989545 21.978516 8.7597656 A 1 1 0 0 0 21.203125 7.5761719 A 1 1 0 0 0 20.943359 7.5566406 z M 12.341797 12.998047 A 1 1 0 0 0 11.337891 13.994141 A 1 1 0 0 0 12.332031 14.998047 C 13.389476 15.002647 13.76335 15.079667 13.892578 15.166016 C 14.001742 15.238946 14.095043 15.334195 14.167969 15.443359 C 14.266799 15.59123 14.337891 16.093647 14.337891 17.498047 C 14.337891 18.902547 14.266921 19.406591 14.167969 19.554688 C 14.095039 19.663853 14.001742 19.757152 13.892578 19.830078 C 13.76335 19.916428 13.389476 19.99344 12.332031 19.998047 A 1 1 0 0 0 11.337891 21.001953 A 1 1 0 0 0 12.341797 21.998047 C 13.442152 21.993247 14.251934 21.994647 15.003906 21.492188 C 15.331156 21.273573 15.613268 20.993156 15.832031 20.666016 L 15.832031 20.664062 C 16.406093 19.803656 16.337891 18.901656 16.337891 17.498047 C 16.337891 16.093647 16.407411 15.19296 15.832031 14.332031 C 15.613157 14.004395 15.331542 13.72278 15.003906 13.503906 C 14.251934 13.001454 13.442152 13.00284 12.341797 12.998047 z M 6.5 13 C 5.09554 13 4.1948898 12.930557 3.3339844 13.505859 C 3.0063879 13.724727 2.7247339 14.006393 2.5058594 14.333984 C 1.9305887 15.194859 2 16.0955 2 17.5 C 2 18.9045 1.930589 19.805141 2.5058594 20.666016 C 2.7247339 20.993607 3.0063879 21.275273 3.3339844 21.494141 C 4.1948898 22.069443 5.09554 22 6.5 22 C 7.90446 22 8.8051102 22.069443 9.6660156 21.494141 C 9.9936121 21.275273 10.275266 20.993607 10.494141 20.666016 C 11.069411 19.805141 11 18.9045 11 17.5 C 11 16.0955 11.069411 15.194859 10.494141 14.333984 C 10.275266 14.006393 9.9936121 13.724727 9.6660156 13.505859 C 8.8051102 12.930557 7.90446 13 6.5 13 z M 18.003906 13.001953 A 1 1 0 0 0 17 13.996094 A 1 1 0 0 0 17.996094 15.001953 C 19.0536 15.006553 19.425566 15.081663 19.554688 15.167969 C 19.663853 15.240899 19.759105 15.336148 19.832031 15.445312 C 19.93089 15.593234 20 16.0955 20 17.5 C 20 18.9045 19.93089 19.408719 19.832031 19.556641 C 19.759101 19.665805 19.663853 19.759105 19.554688 19.832031 C 19.425565 19.918337 19.0536 19.995393 17.996094 20 A 1 1 0 0 0 17 21.003906 A 1 1 0 0 0 18.003906 22 C 19.1042 21.9952 19.913938 21.9968 20.666016 21.494141 C 20.993265 21.275525 21.275378 20.995109 21.494141 20.667969 L 21.494141 20.666016 C 22.0683 19.805679 22 18.903609 22 17.5 C 22 16.0955 22.06948 15.194863 21.494141 14.333984 C 21.275267 14.006349 20.993651 13.724733 20.666016 13.505859 C 19.913938 13.003165 19.1042 13.006746 18.003906 13.001953 z M 6.5 15 C 7.90446 15 8.406693 15.06907 8.5546875 15.167969 C 8.663851 15.240899 8.7590658 15.336104 8.8320312 15.445312 C 8.9308805 15.593237 9 16.0955 9 17.5 C 9 18.9045 8.9308805 19.406764 8.8320312 19.554688 C 8.7590657 19.663896 8.663851 19.759099 8.5546875 19.832031 C 8.406693 19.930929 7.90446 20 6.5 20 C 5.09554 20 4.593307 19.930929 4.4453125 19.832031 C 4.336149 19.759099 4.2409342 19.663896 4.1679688 19.554688 C 4.0691195 19.406764 4 18.9045 4 17.5 C 4 16.0955 4.0691195 15.593236 4.1679688 15.445312 C 4.2409342 15.336104 4.336149 15.240901 4.4453125 15.167969 C 4.593307 15.069071 5.09554 15 6.5 15 z " fill="currentColor"/>
</svg>
