<svg xmlns="http://www.w3.org/2000/svg" width="1em" height="1em" viewBox="0 0 24 24" fill="currentColor">
  <path d="M 12.035156 1 C 10.969456 1 10.260955 0.9604596 9.5253906 1.3515625 C 9.3790387 1.4293879 9.2409074 1.5182376 9.109375 1.6191406 C 8.448375 2.1262387 8.1900674 2.7861482 7.7480469 3.7558594 L 7.4101562 4.5 L 3 4.5 A 1 1 0 0 0 2 5.5 A 1 1 0 0 0 3 6.5 L 3.5585938 6.5 L 4.1054688 15.597656 C 4.2603091 18.16816 4.2901537 19.636717 5.1582031 20.886719 C 5.5546685 21.457703 6.0653744 21.940349 6.6582031 22.302734 C 7.446151 22.784257 8.3449585 22.939559 9.4472656 22.998047 A 1 1 0 0 0 10.498047 22.052734 A 1 1 0 0 0 9.5527344 21.001953 C 8.5819015 20.950441 8.077664 20.825781 7.7011719 20.595703 C 7.3455006 20.378288 7.0389559 20.08911 6.8007812 19.746094 C 6.3852307 19.147696 6.2583554 18.047058 6.1035156 15.476562 L 5.5625 6.5 L 18.414062 6.5 L 18.003906 11.416016 A 1 1 0 0 0 18.916016 12.496094 A 1 1 0 0 0 19.996094 11.583984 L 20.419922 6.5 L 21 6.5 A 1 1 0 0 0 22 5.5 A 1 1 0 0 0 21 4.5 L 16.681641 4.5 L 16.273438 3.65625 C 15.819926 2.7207553 15.553627 2.0829328 14.900391 1.5957031 C 14.770034 1.4984093 14.632417 1.4126432 14.488281 1.3378906 C 13.764852 0.96256257 13.074756 1 12.035156 1 z M 12.035156 3 C 13.074756 3 13.423636 3.039209 13.566406 3.1132812 C 13.614466 3.1382082 13.660086 3.1651396 13.703125 3.1972656 A 1.0001 1.0001 0 0 0 13.703125 3.1992188 C 13.829443 3.293439 14.023473 3.6091907 14.457031 4.5 L 9.6152344 4.5 C 10.00051 3.6659936 10.203978 3.300774 10.326172 3.2070312 C 10.370022 3.1733942 10.416032 3.1431425 10.464844 3.1171875 C 10.609919 3.0400506 10.969456 3 12.035156 3 z M 15.802734 13.005859 C 15.638981 13.012654 15.477156 13.02813 15.316406 13.050781 C 13.965803 13.241095 12.764445 14.00098 11.964844 15.111328 L 11.791016 14.886719 A 1 1 0 0 0 10.386719 14.708984 A 1 1 0 0 0 10.208984 16.113281 L 11.345703 17.578125 A 1.0001 1.0001 0 0 0 13.101562 17.224609 C 13.533387 15.612877 15.16366 14.671616 16.775391 15.103516 C 17.600532 15.324626 18.243592 15.859588 18.625 16.548828 A 1 1 0 0 0 19.984375 16.939453 A 1 1 0 0 0 20.375 15.580078 C 19.741408 14.435118 18.65438 13.536164 17.294922 13.171875 C 16.796946 13.038431 16.293996 12.985475 15.802734 13.005859 z M 19.802734 18.039062 A 1.0001 1.0001 0 0 0 19.666016 18.056641 A 1.0001 1.0001 0 0 0 18.898438 18.777344 C 18.466521 20.389139 16.834521 21.330353 15.222656 20.898438 C 14.416765 20.682482 13.786961 20.168157 13.402344 19.501953 A 1 1 0 0 0 12.035156 19.134766 A 1 1 0 0 0 11.669922 20.501953 C 12.308904 21.608749 13.377169 22.474235 14.705078 22.830078 C 16.76492 23.382034 18.855251 22.527506 20.035156 20.886719 L 20.210938 21.113281 A 1 1 0 0 0 21.613281 21.289062 A 1 1 0 0 0 21.789062 19.886719 L 20.654297 18.423828 A 1.0001 1.0001 0 0 0 19.802734 18.039062 z " fill="currentColor"/>
</svg>
