<svg xmlns="http://www.w3.org/2000/svg" width="1em" height="1em" viewBox="0 0 24 24" fill="currentColor">
  <path d="M 6 2 C 5.05719 2 4.3299377 1.9935616 3.6679688 2.0859375 C 3.0059996 2.1783134 2.3441118 2.417012 1.8652344 2.9140625 C 1.3863519 3.4111098 1.1694199 4.0714486 1.0820312 4.7460938 C 0.99464264 5.4207389 1 6.1737637 1 7.1523438 C 1 8.1309289 0.99464225 8.8839502 1.0820312 9.5585938 C 1.1694202 10.233237 1.3863491 10.89163 1.8652344 11.388672 C 2.0632293 11.594205 2.2985029 11.766282 2.5488281 11.892578 A 1 1 0 0 0 3.8925781 11.451172 A 1 1 0 0 0 3.4511719 10.107422 C 3.3879373 10.075518 3.3508257 10.04782 3.3066406 10.001953 C 3.1997359 9.8909953 3.1235118 9.7567152 3.0644531 9.3007812 C 3.0053945 8.8448472 3 8.1309287 3 7.1523438 C 3 6.1737637 3.0053943 5.4578905 3.0644531 5.0019531 C 3.123512 4.5460157 3.1997331 4.4136971 3.3066406 4.3027344 C 3.4135432 4.1917749 3.5160735 4.1260328 3.9433594 4.0664062 C 4.3706453 4.0067797 5.05719 4 6 4 L 18 4 C 18.9428 4 19.629357 4.0067803 20.056641 4.0664062 C 20.483924 4.1260332 20.586442 4.1917633 20.693359 4.3027344 C 20.80027 4.4136986 20.876487 4.5460175 20.935547 5.0019531 C 20.994606 5.4578889 21 6.1737639 21 7.1523438 C 21 8.1309287 20.994597 8.8448491 20.935547 9.3007812 C 20.876487 9.7567134 20.800267 9.8909938 20.693359 10.001953 C 20.649069 10.047923 20.611999 10.075553 20.548828 10.107422 A 1 1 0 0 0 20.107422 11.451172 A 1 1 0 0 0 21.451172 11.892578 C 21.701597 11.766246 21.936855 11.5941 22.134766 11.388672 C 22.613658 10.891631 22.830578 10.233239 22.917969 9.5585938 C 23.005359 8.8839483 23 8.1309289 23 7.1523438 C 23 6.1737637 23.005399 5.4207406 22.917969 4.7460938 C 22.830577 4.0714469 22.613655 3.4111083 22.134766 2.9140625 C 21.655883 2.4170236 20.993998 2.1783135 20.332031 2.0859375 C 19.670065 1.9935615 18.9428 2 18 2 L 6 2 z M 5 6 A 1 1 0 0 0 4 7 A 1 1 0 0 0 5 8 L 6.7167969 8 C 5.051991 9.4678218 4 11.614826 4 14 C 4 18.406433 7.5935666 22 12 22 C 16.406433 22 20 18.406433 20 14 C 20 11.614826 18.948009 9.4678218 17.283203 8 L 19 8 A 1 1 0 0 0 20 7 A 1 1 0 0 0 19 6 L 12 6 L 5 6 z M 12 8 C 15.325553 8 18 10.674447 18 14 C 18 17.325553 15.325553 20 12 20 C 8.6744469 20 6 17.325553 6 14 C 6 10.674447 8.6744469 8 12 8 z M 12 9 A 1 1 0 0 0 11 10 L 11 10.314453 C 10.657815 10.421931 10.266913 10.426488 9.9863281 10.636719 C 9.4290624 11.054254 9 11.723606 9 12.498047 C 9 13.272488 9.4290624 13.939886 9.9863281 14.357422 C 10.543594 14.774957 11.245244 14.996094 12 14.996094 C 12.349813 14.996094 12.647858 15.109541 12.814453 15.234375 C 12.981048 15.359209 13 15.440982 13 15.494141 C 13 15.547201 12.98105 15.629073 12.814453 15.753906 C 12.647852 15.878739 12.349813 15.992188 12 15.992188 L 11.998047 15.992188 C 11.448015 15.991188 11.074578 15.689168 11.017578 15.568359 A 1 1 0 0 0 9.6875 15.089844 A 1 1 0 0 0 9.2089844 16.419922 C 9.552801 17.148623 10.238793 17.532027 11.001953 17.753906 L 11.001953 18.001953 A 1 1 0 0 0 12.005859 19 A 1 1 0 0 0 13.001953 17.998047 L 13.001953 17.673828 C 13.343237 17.566342 13.733742 17.563265 14.013672 17.353516 C 14.570921 16.935974 15 16.268575 15 15.494141 C 15 14.719699 14.570927 14.052332 14.013672 13.634766 C 13.456417 13.217199 12.754787 12.996094 12 12.996094 C 11.650156 12.996094 11.352131 12.880674 11.185547 12.755859 C 11.018963 12.631045 11 12.551206 11 12.498047 C 11 12.444887 11.01896 12.363096 11.185547 12.238281 C 11.352131 12.113467 11.650156 11.998047 12 11.998047 C 12.551553 11.998047 12.925326 12.302817 12.982422 12.423828 A 1 1 0 0 0 14.3125 12.902344 A 1 1 0 0 0 14.791016 11.572266 C 14.4475 10.844202 13.762285 10.460414 13 10.238281 L 13 10 A 1 1 0 0 0 12 9 z " fill="currentColor"/>
</svg>
