<svg xmlns="http://www.w3.org/2000/svg" width="1em" height="1em" viewBox="0 0 24 24" fill="currentColor">
  <path d="M 17.939453 1.0019531 A 1 1 0 0 0 17.105469 1.5527344 L 15.210938 5.3417969 C 14.836352 5.1910359 14.426529 5.1041755 13.992188 5.0976562 C 13.387628 3.8408531 12.246019 3 11 3 C 9.7539807 3 8.6123523 3.8408474 8.0078125 5.0976562 C 5.9604792 5.132769 4.4167154 6.9527445 4.6855469 8.984375 C 3.7394908 9.4120176 2.9477475 10.134574 2.6386719 11.097656 C 2.2494123 11.186062 1.887645 11.353998 1.5625 11.675781 C 1.2329935 12.001881 1.0512086 12.469732 1.0117188 12.902344 C 0.97222895 13.334956 1.0344707 13.75558 1.1503906 14.222656 C 1.5516034 15.839257 2.385335 16.945247 3.2851562 17.785156 C 4.1126721 18.557575 4.9601224 19.159799 5.7460938 19.90625 C 5.6456881 20.102802 5.4204259 20.354083 5.4199219 20.998047 C 5.4193006 21.781982 5.9885028 22.523241 6.5566406 22.767578 C 7.1247785 23.011915 7.6283872 23 8.0136719 23 L 13.986328 23 C 14.371599 23 14.875226 23.01191 15.443359 22.767578 C 16.011492 22.523246 16.580666 21.781985 16.580078 20.998047 C 16.579558 20.3533 16.351756 20.103353 16.248047 19.912109 C 17.035652 19.16295 17.885212 18.55954 18.714844 17.785156 C 19.614677 16.945246 20.448428 15.839269 20.849609 14.222656 C 20.965523 13.755581 21.027772 13.33495 20.988281 12.902344 C 20.948791 12.469738 20.766997 12.001882 20.4375 11.675781 C 20.116094 11.357687 19.759191 11.188833 19.375 11.099609 C 19.15777 10.349463 18.674896 9.7326189 18.058594 9.2910156 L 22.767578 3.640625 A 1 1 0 0 0 22.640625 2.2324219 A 1 1 0 0 0 21.910156 2.0039062 A 1 1 0 0 0 21.232422 2.359375 L 17.119141 7.2949219 C 17.029357 7.0598098 16.914138 6.8369583 16.777344 6.6289062 A 1 1 0 0 0 16.894531 6.4472656 L 18.894531 2.4472656 A 1 1 0 0 0 18.447266 1.1054688 A 1 1 0 0 0 17.939453 1.0019531 z M 11 5 C 11.70818 5 12.321596 5.3163454 12.476562 6.1914062 A 1.0001 1.0001 0 0 0 13.677734 6.9941406 C 14.694683 6.7691743 15.393909 7.7203877 15.3125 8.6660156 C 15.072815 8.7128206 14.832356 8.6740856 14.597656 8.7773438 A 1 1 0 0 0 14.083984 10.095703 A 1 1 0 0 0 15.402344 10.607422 C 16.003345 10.343017 16.690134 10.541006 17.109375 11 L 4.8671875 11 C 5.1071368 10.72202 5.4461447 10.535817 5.828125 10.492188 A 1.0001 1.0001 0 0 0 6.6289062 9.09375 C 6.1381431 7.9841582 7.2032774 6.7465953 8.3222656 6.9941406 C 8.675541 7.0722931 8.9860399 7.2767998 9.1992188 7.5625 A 1 1 0 0 0 10.597656 7.7675781 A 1 1 0 0 0 10.800781 6.3671875 C 10.558994 6.0431461 10.134763 5.9407819 9.796875 5.7167969 C 10.069199 5.2680618 10.473816 5 11 5 z M 3.9121094 13 L 18.087891 13 C 18.70062 13 18.965839 13.108524 18.996094 13.103516 C 19.002092 13.201279 18.9884 13.419076 18.908203 13.742188 C 18.603985 14.968075 18.086201 15.634726 17.349609 16.322266 C 16.613018 17.009805 15.626328 17.671068 14.621094 18.681641 C 14.330721 18.973632 14.173555 19.428801 14.179688 19.775391 C 14.185787 20.12198 14.283461 20.366593 14.363281 20.558594 C 14.451823 20.771572 14.497921 20.902198 14.523438 20.947266 C 14.416297 20.970547 14.236888 21 13.986328 21 L 8.0136719 21 C 7.7613204 21 7.5793523 20.970593 7.4726562 20.947266 C 7.4981974 20.900953 7.5451203 20.761655 7.6328125 20.542969 C 7.7094985 20.351731 7.8020921 20.113338 7.8105469 19.775391 C 7.8189969 19.437443 7.6741996 18.978571 7.3789062 18.681641 C 6.373676 17.671068 5.3869744 17.009806 4.6503906 16.322266 C 3.9138069 15.634725 3.3960441 14.968086 3.0917969 13.742188 C 3.0116068 13.419077 2.9979458 13.201272 3.0039062 13.103516 C 3.0341767 13.108511 3.2993728 13 3.9121094 13 z " fill="currentColor"/>
</svg>
