<svg xmlns="http://www.w3.org/2000/svg" width="1em" height="1em" viewBox="0 0 24 24" fill="currentColor">
  <path d="M 12 2 C 11.436999 2 10.874327 2.098764 10.337891 2.296875 C 8.6578335 2.9173648 7.7389122 4.5289492 5.8945312 7.3378906 L 5.1640625 8.4511719 A 1 1 0 0 0 5.4511719 9.8359375 A 1 1 0 0 0 6.8359375 9.5488281 L 7.5664062 8.4355469 C 9.4107854 5.6266083 10.337907 4.4298983 11.03125 4.1738281 C 11.658578 3.94215 12.341422 3.94215 12.96875 4.1738281 C 13.662093 4.4298983 14.589193 5.6266164 16.433594 8.4355469 L 17.164062 9.5488281 A 1 1 0 0 0 18.548828 9.8359375 A 1 1 0 0 0 18.835938 8.4511719 L 18.105469 7.3378906 C 16.261069 4.5289611 15.342166 2.9173648 13.662109 2.296875 C 13.125673 2.098764 12.563001 2 12 2 z M 11.429688 6.0019531 A 1 1 0 0 0 11.052734 6.1054688 A 1 1 0 0 0 10.605469 7.4472656 C 10.986776 8.2097211 11.929628 9 13.5 9 A 1 1 0 0 0 14.5 8 A 1 1 0 0 0 13.5 7 C 12.774076 7 12.433794 6.5827388 12.392578 6.5429688 L 12.390625 6.5429688 A 1 1 0 0 0 11.816406 6.0507812 A 1 1 0 0 0 11.429688 6.0019531 z M 4.3164062 10 A 1.0001 1.0001 0 0 0 3.4257812 10.470703 C 1.8110141 13.058359 2.0066227 15.688827 2.0175781 15.828125 C 1.9301251 17.978748 2.9528852 20.023815 4.7402344 21.150391 C 6.2754109 22.118028 8.25145 22 12 22 C 15.7485 22 17.724577 22.118027 19.259766 21.150391 C 21.04711 20.023818 22.069922 17.978772 21.982422 15.828125 C 21.993382 15.688827 22.188976 13.058361 20.574219 10.470703 A 1.0001 1.0001 0 0 0 18.898438 10.4375 C 18.305582 11.310688 16.831874 12.853647 15.1875 14.078125 C 13.645963 15.226026 11.953079 16.007844 10.785156 16.095703 C 9.6229748 15.177263 8.4225168 14.180575 7.4277344 13.222656 C 6.3350429 12.170457 5.4737026 11.144336 5.1640625 10.542969 A 1.0001 1.0001 0 0 0 4.3164062 10 z M 10 10 A 1 1 0 0 0 9.2929688 10.292969 L 8.7929688 10.792969 A 1 1 0 0 0 8.7929688 12.207031 A 1 1 0 0 0 10.207031 12.207031 L 10.707031 11.707031 A 1 1 0 0 0 10.707031 10.292969 A 1 1 0 0 0 10 10 z M 14.5 10.25 C 13.821712 10.25 13.25 10.821712 13.25 11.5 C 13.25 12.178288 13.821712 12.75 14.5 12.75 C 15.178288 12.75 15.75 12.178288 15.75 11.5 C 15.75 10.821712 15.178288 10.25 14.5 10.25 z M 19.326172 12.773438 C 19.899694 14.33895 19.994141 15.753906 19.994141 15.753906 A 1.0001 1.0001 0 0 0 19.992188 15.882812 C 20.056438 17.240733 19.405851 18.467199 18.398438 19.230469 C 16.420832 19.117601 14.686193 18.443509 13.099609 17.542969 C 14.236523 17.080698 15.347664 16.451006 16.380859 15.681641 C 17.662986 14.726909 18.477096 13.737751 19.326172 12.773438 z M 4.6132812 12.941406 C 5.086043 13.511668 5.4153369 14.061569 6.0410156 14.664062 C 7.2055191 15.785412 8.5739584 16.935681 9.8867188 17.957031 C 10.894917 18.741408 12.079124 19.397736 13.320312 19.964844 C 12.830087 19.971258 12.582264 20 12 20 C 8.25145 20 6.4770441 19.881547 5.8066406 19.458984 C 4.6462103 18.727559 3.938321 17.352108 4.0078125 15.882812 A 1.0001 1.0001 0 0 0 4.0058594 15.753906 C 4.0058594 15.753906 4.1082665 14.43084 4.6132812 12.941406 z " fill="currentColor"/>
</svg>
