<svg xmlns="http://www.w3.org/2000/svg" width="1em" height="1em" viewBox="0 0 24 24" fill="currentColor">
  <path d="M 12 1 C 5.9367195 1 1 5.9367092 1 12 C 1 18.063244 5.9367044 23 12 23 C 18.06325 23 23 18.06325 23 12 C 23 5.9367044 18.063244 1 12 1 z M 12 3 C 16.982356 3 21 7.0175956 21 12 C 21 16.98235 16.98235 21 12 21 C 7.0175956 21 3 16.982356 3 12 C 3 7.0175908 7.0176005 3 12 3 z M 12 5.5 C 9.8026771 5.5 8 7.3027202 8 9.5 C 8 9.6145977 8.047091 9.7155702 8.0566406 9.828125 C 6.573582 10.415611 5.5 11.817894 5.5 13.5 C 5.5 15.697327 7.3027269 17.5 9.5 17.5 C 10.477389 17.5 11.302155 17.0622 12 16.474609 C 12.697845 17.0622 13.522611 17.5 14.5 17.5 C 16.697307 17.5 18.5 15.697307 18.5 13.5 C 18.5 11.81788 17.426389 10.415609 15.943359 9.828125 C 15.95291 9.7155727 16 9.6146067 16 9.5 C 16 7.3027202 14.197323 5.5 12 5.5 z M 12 7.5 C 13.116477 7.5 14 8.3835598 14 9.5 C 14 9.7405662 13.958819 9.9667315 13.882812 10.177734 A 1.0001 1.0001 0 0 0 14.716797 11.511719 C 15.72148 11.619344 16.5 12.457135 16.5 13.5 C 16.5 14.616493 15.616493 15.5 14.5 15.5 C 13.796893 15.5 13.190707 15.144851 12.832031 14.605469 A 1.0001 1.0001 0 0 0 11.167969 14.605469 C 10.809293 15.144851 10.203107 15.5 9.5 15.5 C 8.3835731 15.5 7.5 14.616473 7.5 13.5 C 7.5 12.457118 8.2784191 11.619349 9.2832031 11.511719 A 1.0001 1.0001 0 0 0 10.117188 10.177734 C 10.041189 9.9668602 10 9.7406036 10 9.5 C 10 8.3835598 10.883523 7.5 12 7.5 z " fill="currentColor"/>
</svg>
