<svg xmlns="http://www.w3.org/2000/svg" width="1em" height="1em" viewBox="0 0 24 24" fill="currentColor">
  <path d="M 12 1 C 5.9366948 1 1 5.9366948 1 12 C 1 18.063152 5.9366743 23 12 23 C 18.063353 23 23 18.063148 23 12 C 23 5.9366984 18.063332 1 12 1 z M 12 3 C 16.982468 3 21 7.0175616 21 12 C 21 16.982252 16.982447 21 12 21 C 7.0175857 21 3 16.982248 3 12 C 3 7.0175652 7.0175652 3 12 3 z M 8 7.5 A 1 1 0 0 0 7 8.5 L 7 12.5 L 6 12.5 A 1 1 0 0 0 5 11.5 A 1 1 0 0 0 4 12.5 C 4 13.592731 4.9072936 14.5 6 14.5 L 7 14.5 C 8.0927064 14.5 9 13.592731 9 12.5 L 9 8.5 A 1 1 0 0 0 8 7.5 z M 11 7.5 A 1 1 0 0 0 10 8.5 L 10 12.5 C 10 13.592707 10.907293 14.5 12 14.5 L 13 14.5 C 14.092707 14.5 15 13.592707 15 12.5 A 1 1 0 0 0 14 11.5 A 1 1 0 0 0 13 12.5 L 12 12.5 L 12 8.5 A 1 1 0 0 0 11 7.5 z M 19 9.5 A 1 1 0 0 0 18 10.5 L 18 11.5 C 18 12.616493 17.116493 13.5 16 13.5 A 1 1 0 0 0 15 14.5 A 1 1 0 0 0 16 15.5 C 18.197307 15.5 20 13.697307 20 11.5 L 20 10.5 A 1 1 0 0 0 19 9.5 z M 11.099609 15 C 10.503347 15 10 15.503347 10 16.099609 C 10 16.695872 10.503347 17.199219 11.099609 17.199219 C 11.695872 17.199219 12.199219 16.695872 12.199219 16.099609 C 12.199219 15.503347 11.695872 15 11.099609 15 z M 13.898438 15 C 13.302174 15 12.798828 15.503347 12.798828 16.099609 C 12.798828 16.695872 13.302174 17.199219 13.898438 17.199219 C 14.493821 17.199219 14.998047 16.694664 14.998047 16.099609 C 14.998047 15.504554 14.493822 15 13.898438 15 z M 10.925781 15.273438 A 1 1 0 0 0 10.273438 15.925781 C 10.351397 15.592805 10.592805 15.351393 10.925781 15.273438 z M 13.724609 15.273438 A 1 1 0 0 0 13.072266 15.925781 C 13.150396 15.593248 13.392028 15.351584 13.724609 15.273438 z M 11.361328 15.310547 C 11.619968 15.402277 11.796631 15.57938 11.888672 15.837891 A 1 1 0 0 0 11.361328 15.310547 z M 14.160156 15.310547 C 14.418796 15.402277 14.595459 15.57938 14.6875 15.837891 A 1 1 0 0 0 14.160156 15.310547 z M 10.273438 16.273438 A 1 1 0 0 0 10.925781 16.925781 C 10.592737 16.847721 10.351225 16.606572 10.273438 16.273438 z M 13.072266 16.273438 A 1 1 0 0 0 13.724609 16.925781 C 13.39196 16.847531 13.150224 16.606127 13.072266 16.273438 z M 11.890625 16.359375 C 11.798925 16.620072 11.620072 16.798924 11.359375 16.890625 A 1 1 0 0 0 11.890625 16.359375 z M 14.689453 16.359375 C 14.597753 16.620072 14.4189 16.798924 14.158203 16.890625 A 1 1 0 0 0 14.689453 16.359375 z " fill="currentColor"/>
</svg>
