<svg xmlns="http://www.w3.org/2000/svg" width="1em" height="1em" viewBox="0 0 24 24" fill="currentColor">
  <path d="M 12 1 C 10.11438 1 8.6810556 0.99457301 7.4785156 1.15625 C 6.2759756 1.317927 5.2403111 1.689383 4.4648438 2.4648438 C 3.6893796 3.2403078 3.317927 4.2759744 3.15625 5.4785156 C 2.994573 6.6810568 3 8.11438 3 10 L 3 14 C 3 15.8856 2.99457 17.318937 3.15625 18.521484 C 3.3179268 19.724031 3.6893545 20.759713 4.4648438 21.535156 C 5.2403087 22.310634 6.2759729 22.682068 7.4785156 22.84375 C 8.6810584 23.005432 10.11438 23 12 23 C 13.8856 23 15.318935 23.0054 16.521484 22.84375 C 17.724034 22.682069 18.759716 22.310663 19.535156 21.535156 C 20.310663 20.759716 20.682069 19.724034 20.84375 18.521484 C 21.005431 17.318935 21 15.8856 21 14 L 21 10 C 21 8.11438 21.005431 6.6810596 20.84375 5.4785156 C 20.682069 4.2759717 20.310638 3.2403054 19.535156 2.4648438 C 18.759713 1.6893545 17.724031 1.3159737 16.521484 1.1542969 C 15.318937 0.99262003 13.8856 1 12 1 z M 12 3 C 13.8856 3 15.279881 3.0054999 16.255859 3.1367188 C 17.231837 3.2679343 17.725037 3.4828254 18.121094 3.8789062 C 18.517212 4.2750145 18.732063 4.7681721 18.863281 5.7441406 C 18.9945 6.7201092 19 8.11438 19 10 L 19 14 C 19 15.8856 18.9945 17.279884 18.863281 18.255859 C 18.732063 19.231835 18.517187 19.725034 18.121094 20.121094 C 17.725034 20.517187 17.231835 20.732063 16.255859 20.863281 C 15.279884 20.9945 13.8856 21 12 21 C 10.11438 21 8.7201079 20.9945 7.7441406 20.863281 C 6.7681734 20.732063 6.2750213 20.517216 5.8789062 20.121094 C 5.4828255 19.725037 5.2679344 19.231837 5.1367188 18.255859 C 5.0055032 17.279881 5 15.8856 5 14 L 5 10 C 5 8.11438 5.0055033 6.7201119 5.1367188 5.7441406 C 5.2679343 4.7681693 5.4828004 4.275012 5.8789062 3.8789062 C 6.2750189 3.482797 6.7681706 3.2679342 7.7441406 3.1367188 C 8.7201106 3.0055032 10.11438 3 12 3 z M 12 4.5 A 1 1 0 0 0 11 5.5 L 11 7.5 A 1 1 0 0 0 12 8.5 A 1 1 0 0 0 13 7.5 L 13 5.5 A 1 1 0 0 0 12 4.5 z M 12 10 A 1 1 0 0 0 11 11 L 11 13 A 1 1 0 0 0 12 14 A 1 1 0 0 0 13 13 L 13 11 A 1 1 0 0 0 12 10 z M 12 15.5 A 1 1 0 0 0 11 16.5 L 11 18.5 A 1 1 0 0 0 12 19.5 A 1 1 0 0 0 13 18.5 L 13 16.5 A 1 1 0 0 0 12 15.5 z " fill="currentColor"/>
</svg>
