<svg xmlns="http://www.w3.org/2000/svg" width="1em" height="1em" viewBox="0 0 24 24" fill="currentColor">
  <path d="M 12 1 C 10.631133 1 9.5 2.1311328 9.5 3.5 C 9.5 4.514425 10.121199 5.3974015 11 5.7871094 L 11 7.0546875 C 6.5092458 7.5544362 3 11.379188 3 16 L 3 18.181641 C 3 18.294687 3.0020726 18.361287 3.0019531 18.460938 A 1 1 0 0 0 3 18.5 A 1 1 0 0 0 3.0039062 18.550781 C 3.0040233 19.069032 3.0081839 19.465205 3.0917969 19.849609 C 3.4241489 21.377449 4.6225587 22.575921 6.1503906 22.908203 C 6.6288834 23.012352 7.0578894 23 7.8183594 23 L 16.181641 23 C 16.942141 23 17.371133 23.012343 17.849609 22.908203 C 19.377476 22.575925 20.575925 21.377476 20.908203 19.849609 C 20.99188 19.465142 20.995994 19.069013 20.996094 18.550781 A 1 1 0 0 0 21 18.5 A 1 1 0 0 0 20.998047 18.460938 C 20.997925 18.36129 21 18.294687 21 18.181641 L 21 16 C 21 11.37919 17.490768 7.5544351 13 7.0546875 L 13 5.7871094 C 13.878801 5.3974015 14.5 4.514425 14.5 3.5 C 14.5 2.1311328 13.368867 1 12 1 z M 12 3 C 12.287987 3 12.5 3.212013 12.5 3.5 C 12.5 3.7879859 12.287985 3.9999984 12 4 C 11.712013 4 11.5 3.787987 11.5 3.5 C 11.5 3.212013 11.712013 3 12 3 z M 12 9 C 15.877866 9 19 12.122134 19 16 L 19 17.5 L 15.902344 17.5 C 15.672399 17.5 15.459604 17.386672 15.332031 17.195312 C 14.834804 16.449472 13.993912 16 13.097656 16 L 10.902344 16 C 10.006088 16 9.1651907 16.449408 8.6679688 17.195312 C 8.5404234 17.386649 8.3276642 17.5 8.0976562 17.5 L 5 17.5 L 5 16 C 5 12.122137 8.1221565 9 12 9 z M 9 12 A 1 1 0 0 0 8 13 L 8 14 A 1 1 0 0 0 9 15 A 1 1 0 0 0 10 14 L 10 13 A 1 1 0 0 0 9 12 z M 15 12 A 1 1 0 0 0 14 13 L 14 14 A 1 1 0 0 0 15 15 A 1 1 0 0 0 16 14 L 16 13 A 1 1 0 0 0 15 12 z M 10.902344 18 L 13.097656 18 C 13.327601 18 13.540396 18.113328 13.667969 18.304688 C 14.165196 19.050528 15.006088 19.5 15.902344 19.5 L 18.9375 19.5 C 18.749369 20.231497 18.168391 20.793577 17.425781 20.955078 C 17.273856 20.988143 16.942141 21 16.181641 21 L 7.8183594 21 C 7.0578894 21 6.7260659 20.988129 6.5742188 20.955078 C 5.831653 20.79358 5.2506717 20.231521 5.0625 19.5 L 8.0976562 19.5 C 8.9939282 19.5 9.8348368 19.050551 10.332031 18.304688 C 10.459549 18.113392 10.672399 18 10.902344 18 z " fill="currentColor"/>
</svg>
