<svg xmlns="http://www.w3.org/2000/svg" width="1em" height="1em" viewBox="0 0 24 24" fill="currentColor">
  <path d="M 12 1 A 1 1 0 0 0 11 2 L 11 3 L 8.8457031 3 C 7.5905031 3 6.8456188 2.9570157 6.0644531 3.3085938 C 5.2848263 3.6594705 4.6594706 4.2848263 4.3085938 5.0644531 C 3.9570157 5.8456188 4 6.5905031 4 7.8457031 C 4 9.8540331 3.957731 10.977915 4.4414062 12.052734 C 4.9426061 13.166262 5.8337123 14.057247 6.9472656 14.558594 C 4.5676195 16.180655 3 18.912304 3 22 A 1 1 0 0 0 4 23 A 1 1 0 0 0 5 22 C 5 18.122137 8.1221565 15 12 15 C 15.877866 15 19 18.122134 19 22 A 1 1 0 0 0 20 23 A 1 1 0 0 0 21 22 C 21 18.912304 19.432382 16.180655 17.052734 14.558594 C 18.166212 14.057247 19.057412 13.166306 19.558594 12.052734 C 20.042269 10.977915 20 9.8540331 20 7.8457031 C 20 6.5913733 20.042288 5.8450619 19.691406 5.0644531 L 19.691406 5.0625 C 19.340453 4.2835514 18.71484 3.6592829 17.935547 3.3085938 C 17.154393 2.9569708 16.409597 3 15.154297 3 L 13 3 L 13 2 A 1 1 0 0 0 12 1 z M 8.8457031 5 L 12 5 L 15.154297 5 C 16.409597 5 16.917788 5.043935 17.115234 5.1328125 C 17.449707 5.2833282 17.716632 5.5502398 17.867188 5.8847656 C 17.956115 6.0823072 18 6.5905031 18 7.8457031 C 18 9.8540331 17.95745 10.739088 17.736328 11.230469 C 17.435416 11.899062 16.899062 12.435416 16.230469 12.736328 C 15.739082 12.957455 14.854003 13 12.845703 13 L 12 13 L 11.154297 13 C 9.1460168 13 8.2607418 12.957404 7.7695312 12.736328 C 7.1008926 12.435416 6.5646267 11.899107 6.2636719 11.230469 C 6.0425474 10.739088 6 9.8540331 6 7.8457031 C 6 6.5905031 6.0438905 6.08234 6.1328125 5.8847656 C 6.2833356 5.5503124 6.5503124 5.2833356 6.8847656 5.1328125 C 7.08234 5.0438905 7.5905031 5 8.8457031 5 z M 9.25 7 C 8.5714795 7 8 7.5714795 8 8.25 C 8 8.9285205 8.5714795 9.5 9.25 9.5 C 9.9285205 9.5 10.5 8.9285205 10.5 8.25 C 10.5 7.5714795 9.9285205 7 9.25 7 z M 14.75 7 C 14.071567 7 13.5 7.5716244 13.5 8.25 C 13.5 8.9283756 14.071567 9.5 14.75 9.5 C 15.428433 9.5 16 8.9283756 16 8.25 C 16 7.5716244 15.428433 7 14.75 7 z " fill="currentColor"/>
</svg>
