<svg xmlns="http://www.w3.org/2000/svg" width="1em" height="1em" viewBox="0 0 24 24" fill="currentColor">
  <path d="M 3.9394531 1.0019531 A 1 1 0 0 0 3.6835938 1.0507812 A 1 1 0 0 0 3.0507812 2.3164062 L 6.6347656 13.068359 A 1 1 0 0 0 6 14 A 1 1 0 0 0 6.6347656 14.931641 L 5.5195312 18.275391 C 5.2633472 18.004738 5.0274155 17.718348 4.8125 17.417969 A 1 1 0 0 0 3.4179688 17.1875 A 1 1 0 0 0 3.1875 18.582031 C 5.1050038 21.262052 8.347233 23 12 23 C 15.652803 23 18.895033 21.262062 20.8125 18.582031 A 1 1 0 0 0 20.582031 17.1875 A 1 1 0 0 0 19.835938 17.013672 A 1 1 0 0 0 19.1875 17.417969 C 18.972587 17.718351 18.736653 18.004735 18.480469 18.275391 L 17.388672 15 L 18 15 A 1 1 0 0 0 19 14 A 1 1 0 0 0 18 13 L 16 13 L 16 9 L 16.5 9 C 16.787945 9 17 9.2120301 17 9.5 A 1 1 0 0 0 18 10.5 A 1 1 0 0 0 19 9.5 C 19 8.1311099 17.868855 7 16.5 7 L 6.7207031 7 L 4.9492188 1.6835938 A 1 1 0 0 0 3.9394531 1.0019531 z M 7.3867188 9 L 10 9 L 10 13 L 8.7207031 13 L 7.3867188 9 z M 12 9 L 14 9 L 14 13 L 12 13 L 12 9 z M 8.7207031 15 L 15.279297 15 L 16.822266 19.630859 C 15.450201 20.492167 13.79264 21 12 21 C 10.207374 21 8.5498093 20.492177 7.1777344 19.630859 L 8.7207031 15 z " fill="currentColor"/>
</svg>
