<svg xmlns="http://www.w3.org/2000/svg" width="1em" height="1em" viewBox="0 0 24 24" fill="currentColor">
  <path d="M 10.222656 1.9902344 C 9.2884356 1.9976568 8.1853072 2.2164472 6.9863281 2.6074219 C 5.3876894 3.1287214 3.6839282 3.9856484 2.4511719 5.3535156 A 1.0001 1.0001 0 0 0 2.2148438 6.2246094 C 2.425693 7.2552387 2.4720121 8.426594 2.2460938 9.3417969 A 1 1 0 0 0 2.1679688 9.4453125 A 1 1 0 0 0 2 10.023438 C 1.9859877 10.050813 1.9718625 10.07714 1.9570312 10.103516 C 1.5220513 10.877091 0.90800737 12.245687 1.0117188 13.916016 C 1.0336687 14.269562 1.0428647 14.624324 1.1835938 15.039062 C 1.3243232 15.4538 1.6024655 15.844282 1.9648438 16.185547 C 2.0872834 16.300832 2.2199629 16.403725 2.359375 16.494141 C 1.5431932 17.032826 1 17.958374 1 19 C 1 20.64501 2.3549904 22 4 22 C 5.2951422 22 6.4103145 21.160087 6.8261719 20 L 9.1738281 20 C 9.5896854 21.160087 10.704857 22 12 22 C 13.295143 22 14.410315 21.160087 14.826172 20 L 17.173828 20 C 17.589685 21.160087 18.704857 22 20 22 C 21.64501 22 23 20.64501 23 19 C 23 17.964823 22.46401 17.044004 21.65625 16.503906 C 21.892834 16.358844 22.105551 16.183543 22.289062 15.978516 C 22.883512 15.314367 23.112564 14.376343 22.941406 13.466797 C 22.761731 12.511973 22.02682 11.895597 21.277344 11.498047 C 20.527868 11.100497 19.668172 10.841409 18.791016 10.599609 C 17.036702 10.116009 15.177554 9.6130748 14.570312 9.1113281 C 13.832741 8.5019104 13.155076 7.3026328 12.701172 6.0683594 C 12.247268 4.834086 11.994134 3.5648735 11.923828 2.9316406 A 1.0001 1.0001 0 0 0 11.097656 2.0546875 C 10.826384 2.0087239 10.534063 1.9877602 10.222656 1.9902344 z M 10.173828 4.1171875 C 10.243362 4.5027591 10.309391 4.8921664 10.402344 5.3105469 L 9.6835938 5.5507812 A 1 1 0 0 0 9.0507812 6.8164062 A 1 1 0 0 0 10.316406 7.4492188 L 11.001953 7.2207031 C 11.102311 7.470624 11.211102 7.7213612 11.328125 7.96875 L 11.052734 8.1054688 A 1 1 0 0 0 10.605469 9.4472656 A 1 1 0 0 0 11.947266 9.8945312 L 12.363281 9.6855469 C 12.639511 10.039275 12.949136 10.366978 13.296875 10.654297 C 14.637733 11.76221 16.589829 12.067004 18.259766 12.527344 C 19.094734 12.757514 19.851063 13.006358 20.339844 13.265625 C 20.828624 13.524892 20.953789 13.714911 20.976562 13.835938 C 21.049602 14.224091 20.964932 14.460908 20.798828 14.646484 C 20.632727 14.832061 20.333731 15 19.789062 15 L 6.9453125 15 C 6.7078338 12.850462 5.7125985 10.952489 4.2304688 9.6816406 C 4.4707044 8.6059099 4.3946806 7.4870188 4.2324219 6.4628906 C 5.1198757 5.6065083 6.3621171 4.9138935 7.6074219 4.5078125 C 8.719085 4.1453106 9.5753664 4.1184916 10.173828 4.1171875 z M 3.4121094 11.673828 C 4.1832867 12.53127 4.7378161 13.687047 4.9277344 15 C 4.3643716 14.999801 3.9842678 14.989487 3.7714844 14.949219 C 3.5565879 14.908551 3.5036451 14.886423 3.3359375 14.728516 C 3.1243404 14.528966 3.1032905 14.470648 3.078125 14.396484 C 3.052867 14.322048 3.0297627 14.146522 3.0078125 13.792969 C 2.9590647 13.00786 3.169847 12.251145 3.4121094 11.673828 z M 6.2285156 17 L 9.7714844 17 C 9.5114548 17.288997 9.3071645 17.628041 9.1738281 18 L 6.8261719 18 C 6.6928354 17.628041 6.4885452 17.288997 6.2285156 17 z M 14.228516 17 L 17.771484 17 C 17.511455 17.288997 17.307165 17.628041 17.173828 18 L 14.826172 18 C 14.692835 17.628041 14.488545 17.288997 14.228516 17 z M 4 18 C 4.5641294 18 5 18.435871 5 19 C 5 19.564129 4.5641294 20 4 20 C 3.4358706 20 3 19.564129 3 19 C 3 18.435871 3.4358706 18 4 18 z M 12 18 C 12.564129 18 13 18.435871 13 19 C 13 19.564129 12.564129 20 12 20 C 11.435873 20 11.000003 19.564126 11 19 C 11 18.435871 11.435871 18 12 18 z M 20 18 C 20.564129 18 21 18.435871 21 19 C 21 19.564129 20.564129 20 20 20 C 19.435873 20 19.000003 19.564126 19 19 C 19 18.435871 19.435871 18 20 18 z " fill="currentColor"/>
</svg>
