<svg xmlns="http://www.w3.org/2000/svg" width="1em" height="1em" viewBox="0 0 24 24" fill="currentColor">
  <path d="M 15.470703 1.0019531 A 1 1 0 0 0 15.339844 1.0097656 A 1 1 0 0 0 14.472656 2.1269531 C 14.483286 2.2116631 14.471662 2.5295417 14.476562 2.75 C 13.805629 2.2155802 12.985101 1.7456766 12.039062 1.4160156 C 10.152698 0.75868521 7.7248834 0.78633142 5.453125 2.3769531 C 4.4170437 3.1023862 3.7782586 3.7299203 3.3554688 4.28125 C 2.9326788 4.8325797 2.7318401 5.3071701 2.6171875 5.5214844 A 1 1 0 0 0 3.0253906 6.875 A 1 1 0 0 0 4.3789062 6.4648438 C 4.5720937 6.1037281 4.6632238 5.8608046 4.9414062 5.4980469 C 5.2195889 5.1352891 5.6909738 4.6531919 6.6015625 4.015625 C 8.3581641 2.7857017 9.9750828 2.8148242 11.380859 3.3046875 C 11.983346 3.5146326 12.497123 3.8568873 12.960938 4.1992188 C 12.81097 4.187454 12.592698 4.1853918 12.5 4.1738281 A 1 1 0 0 0 11.382812 5.0429688 A 1 1 0 0 0 12.251953 6.1582031 C 12.622178 6.2043871 13.233113 6.2565276 13.865234 6.2441406 C 14.181295 6.2379506 14.499865 6.217013 14.816406 6.15625 C 15.015315 6.118068 15.241979 5.9659925 15.460938 5.8535156 A 1 1 0 0 0 15.636719 5.8300781 A 1 1 0 0 0 15.654297 5.7617188 C 15.720157 5.7131868 15.773638 5.7417731 15.841797 5.6738281 C 16.227535 5.2893143 16.268526 4.969401 16.341797 4.6445312 C 16.415067 4.3196616 16.452996 3.9818389 16.476562 3.6425781 C 16.523692 2.9640566 16.513231 2.3246304 16.457031 1.8769531 A 1 1 0 0 0 15.470703 1.0019531 z M 19.103516 5.0019531 C 18.728259 5.0107983 18.350982 5.1103353 18.005859 5.3085938 L 12.292969 8.5917969 C 12.473462 7.2730655 11.650314 5.9739067 10.300781 5.7714844 C 9.1804895 5.6034605 8.075732 6.2128217 7.6269531 7.2539062 A 1.0001 1.0001 0 0 0 7.6171875 7.2753906 L 5.6796875 12.060547 C 5.4306315 12.675656 4.6678214 13.48075 4.0019531 13.863281 A 1 1 0 0 0 3.6347656 15.228516 A 1 1 0 0 0 5 15.597656 C 6.0521917 14.993188 7.0408835 14.026438 7.5332031 12.810547 L 9.4628906 8.046875 C 9.5536716 7.8362796 9.7708384 7.7130908 10.003906 7.7480469 C 10.318226 7.7951929 10.488748 8.0602486 10.408203 8.3574219 L 9.8789062 10.314453 A 1.0001 1.0001 0 0 0 11.341797 11.443359 L 19.001953 7.0429688 C 19.171562 6.9455358 19.361103 6.9968047 19.457031 7.1621094 C 19.552881 7.3273153 19.505471 7.5061233 19.335938 7.6035156 L 15.873047 9.59375 L 14.339844 10.474609 A 1 1 0 0 0 13.970703 11.839844 A 1 1 0 0 0 15.335938 12.208984 L 15.912109 11.876953 C 16.016907 12.211571 15.998669 12.581799 15.671875 12.769531 A 1 1 0 0 0 15.669922 12.769531 L 14.902344 13.212891 A 1 1 0 0 0 14.533203 14.578125 A 1 1 0 0 0 15.898438 14.945312 L 16.476562 14.613281 C 16.58152 14.948048 16.561152 15.320063 16.234375 15.507812 L 15.464844 15.949219 A 1 1 0 0 0 15.095703 17.314453 A 1 1 0 0 0 16.460938 17.683594 L 16.980469 17.386719 L 16.984375 17.398438 A 1.0001 1.0001 0 0 0 16.984375 17.400391 C 17.118439 17.756486 16.981375 18.13768 16.646484 18.330078 L 15.515625 18.980469 C 13.84464 19.94046 13.074494 20.342438 12.537109 20.427734 C 12.364034 20.455174 11.65652 20.395964 11.164062 20.298828 C 10.489415 20.165676 9.7570219 20.248458 9.1152344 20.617188 L 8.2207031 21.130859 A 1 1 0 0 0 7.8515625 22.496094 A 1 1 0 0 0 9.2167969 22.865234 L 10.111328 22.351562 C 10.287241 22.250494 10.525791 22.212068 10.777344 22.261719 C 11.355685 22.375788 12.082437 22.526253 12.851562 22.404297 C 13.938377 22.231793 14.840704 21.674852 16.511719 20.714844 L 17.642578 20.064453 A 1.0001 1.0001 0 0 0 17.644531 20.064453 C 18.813072 19.393051 19.330405 17.956818 18.855469 16.695312 L 18.748047 16.408203 C 18.658067 16.169163 18.413736 16.086673 18.242188 15.917969 C 18.598737 15.129873 18.708603 14.256171 18.246094 13.458984 C 18.135205 13.267913 17.915426 13.221189 17.753906 13.085938 C 18.044307 12.362073 18.075749 11.583676 17.699219 10.851562 L 20.333984 9.3378906 C 21.438447 8.703423 21.827056 7.2605972 21.1875 6.1582031 C 20.867664 5.6070555 20.347082 5.2361029 19.769531 5.0820312 C 19.55295 5.0242544 19.32867 4.996646 19.103516 5.0019531 z " fill="currentColor"/>
</svg>
