<svg xmlns="http://www.w3.org/2000/svg" width="1em" height="1em" viewBox="0 0 24 24" fill="currentColor">
  <path d="M 15 1 A 1.0001 1.0001 0 0 0 14.142578 2.5136719 L 15.193359 4.2636719 A 1 1 0 0 0 16.564453 4.6074219 A 1 1 0 0 0 16.873047 3.375 C 19.261922 4.1647927 21 6.3352187 21 9 A 1 1 0 0 0 22 10 A 1 1 0 0 0 23 9 C 23 4.5908096 19.40919 1 15 1 z M 7 4 A 1 1 0 0 0 6 5 L 6 6 L 5 6 A 1 1 0 0 0 4 7 A 1 1 0 0 0 5 8 L 6 8 L 6 12 C 6 13.1785 5.9928504 14.082883 6.0996094 14.876953 C 6.2063685 15.671023 6.4696253 16.418791 7.0253906 16.974609 C 7.5811923 17.530381 8.3289817 17.793636 9.1230469 17.900391 C 9.9171124 18.007145 10.82149 18 12 18 L 16 18 L 16 19 A 1 1 0 0 0 17 20 A 1 1 0 0 0 18 19 L 18 18 L 19 18 A 1 1 0 0 0 20 17 A 1 1 0 0 0 19 16 L 18 16 L 18 12 C 18 10.82149 18.007101 9.917112 17.900391 9.1230469 C 17.793637 8.3289817 17.530381 7.5811923 16.974609 7.0253906 C 16.418791 6.4696253 15.671023 6.2063685 14.876953 6.0996094 C 14.082883 5.9928503 13.1785 6 12 6 L 8 6 L 8 5 A 1 1 0 0 0 7 4 z M 8 8 L 12 8 C 13.1785 8 14.04187 8.0057302 14.609375 8.0820312 C 15.17688 8.1583292 15.384065 8.2629884 15.560547 8.4394531 C 15.736976 8.6158914 15.841673 8.8231202 15.917969 9.390625 C 15.994264 9.9581301 16 10.82149 16 12 L 16 16 L 12 16 C 10.82149 16 9.9581298 15.994264 9.390625 15.917969 C 8.8231202 15.841673 8.6158914 15.736976 8.4394531 15.560547 C 8.2629884 15.384065 8.1583296 15.17688 8.0820312 14.609375 C 8.0057328 14.04187 8 13.1785 8 12 L 8 8 z M 2 14 A 1 1 0 0 0 1 15 C 1 19.40919 4.5908096 23 9 23 A 1.0001 1.0001 0 0 0 9.8574219 21.486328 L 8.8066406 19.736328 A 1 1 0 0 0 7.4355469 19.392578 A 1 1 0 0 0 7.1269531 20.625 C 4.7380779 19.835207 3 17.664781 3 15 A 1 1 0 0 0 2 14 z " fill="currentColor"/>
</svg>
