<svg xmlns="http://www.w3.org/2000/svg" width="1em" height="1em" viewBox="0 0 24 24" fill="currentColor">
  <path d="M 9.0292969 1.0019531 A 1 1 0 0 0 8.0429688 1.8769531 C 7.9867817 2.324595 7.9763155 2.9640596 8.0234375 3.6425781 C 8.0469985 3.9818374 8.0849385 4.3196616 8.1582031 4.6445312 C 8.2314681 4.9694011 8.2724649 5.2893048 8.6582031 5.6738281 C 8.7263641 5.7417761 8.7798448 5.7131847 8.8457031 5.7617188 A 1 1 0 0 0 8.8632812 5.8300781 A 1 1 0 0 0 9.0390625 5.8535156 C 9.2580242 5.965995 9.4846828 6.118068 9.6835938 6.15625 C 10.000138 6.217012 10.3187 6.2379476 10.634766 6.2441406 C 11.266897 6.2565266 11.877819 6.2043871 12.248047 6.1582031 A 1 1 0 0 0 13.117188 5.0429688 A 1 1 0 0 0 12 4.1738281 C 11.9073 4.1853921 11.689031 4.1874537 11.539062 4.1992188 C 12.002881 3.8568866 12.516649 3.5146331 13.119141 3.3046875 C 14.524929 2.8148232 16.141816 2.7856986 17.898438 4.015625 C 18.808993 4.6531913 19.280401 5.1352767 19.558594 5.4980469 C 19.836787 5.8608171 19.927857 6.103706 20.121094 6.4648438 A 1 1 0 0 0 21.474609 6.875 A 1 1 0 0 0 21.882812 5.5214844 C 21.768149 5.3071921 21.567313 4.8325673 21.144531 4.28125 C 20.721749 3.7299327 20.08292 3.1023869 19.046875 2.3769531 C 16.775098 0.78633357 14.347308 0.758686 12.460938 1.4160156 C 11.514893 1.7456762 10.694382 2.2155815 10.023438 2.75 C 10.028337 2.5295382 10.016744 2.2116791 10.027344 2.1269531 A 1 1 0 0 0 9.1601562 1.0097656 A 1 1 0 0 0 9.0292969 1.0019531 z M 4.4121094 5.0019531 C 4.260298 5.0003749 4.1081715 5.0140416 3.9589844 5.0410156 C 3.3622358 5.1489118 2.8054326 5.4819145 2.4335938 6.0097656 C 1.6899198 7.0654625 1.9413655 8.5593319 3.0039062 9.2988281 L 4.8984375 10.617188 C 4.8006865 10.713788 4.6459513 10.714378 4.5644531 10.830078 C 4.0694273 11.532808 4.1595212 12.35989 4.4921875 13.099609 C 4.2321886 13.262087 3.9162249 13.320325 3.7304688 13.583984 C 3.2349946 14.287367 3.3245447 15.115352 3.6582031 15.855469 C 3.3976146 16.018069 3.0806159 16.075675 2.8945312 16.339844 C 2.1508725 17.395553 2.4022387 18.889452 3.4648438 19.628906 L 3.8359375 19.888672 A 1.0001 1.0001 0 0 0 3.8554688 19.900391 L 7.1503906 22.080078 C 9.3342958 23.525269 12.250285 23.23434 14.103516 21.384766 L 15.638672 19.851562 C 16.367372 19.124263 16.785219 18.719121 17.130859 18.179688 C 17.624086 17.410221 17.918149 16.530035 17.986328 15.619141 C 18.034038 14.98038 17.942568 14.404887 17.796875 13.386719 L 17.15625 8.9003906 C 16.993506 7.7637074 16.070611 6.8726073 14.929688 6.7460938 C 13.44851 6.5818635 12.121094 7.767117 12.121094 9.2578125 A 1.0001 1.0001 0 0 0 12.121094 9.2695312 L 12.128906 9.8769531 L 5.7226562 5.4199219 C 5.3242035 5.1426108 4.8675434 5.0066879 4.4121094 5.0019531 z M 4.34375 6.9941406 C 4.4243744 6.9875434 4.5071559 7.0097952 4.5800781 7.0605469 L 12 12.224609 A 1.0001 1.0001 0 0 0 12.009766 12.230469 L 12.589844 12.625 A 1.0001 1.0001 0 0 0 14.152344 11.785156 L 14.121094 9.2578125 C 14.121094 8.928308 14.377361 8.6976052 14.708984 8.734375 C 14.95506 8.761662 15.141125 8.9415369 15.175781 9.1835938 L 15.818359 13.669922 C 15.964064 14.688154 16.01748 15.132064 15.992188 15.470703 C 15.948768 16.050809 15.761439 16.609477 15.447266 17.099609 C 15.263906 17.385776 14.955262 17.708247 14.226562 18.435547 L 12.689453 19.96875 C 11.501083 21.154776 9.655061 21.339318 8.2539062 20.412109 L 4.96875 18.240234 L 4.6074219 17.988281 C 4.4408069 17.872336 4.4020156 17.670925 4.5292969 17.490234 C 4.6565765 17.309546 4.8762977 17.274614 5.0429688 17.390625 L 5.4140625 17.648438 A 1 1 0 0 0 6.8046875 17.400391 A 1 1 0 0 0 6.5566406 16.007812 L 6.1855469 15.75 C 6.0838912 15.67924 5.9560089 15.730154 5.8476562 15.677734 A 1 1 0 0 0 5.8144531 15.490234 L 5.4433594 15.232422 C 5.2766277 15.116368 5.2379531 14.917019 5.3652344 14.736328 C 5.4924712 14.55573 5.7103015 14.520748 5.8769531 14.636719 L 6.2480469 14.894531 A 1 1 0 0 0 7.640625 14.644531 A 1 1 0 0 0 7.390625 13.251953 L 7.0195312 12.994141 L 6.2792969 12.478516 C 6.1125011 12.362417 6.0738613 12.161197 6.2011719 11.980469 C 6.3284557 11.799775 6.5462154 11.764845 6.7128906 11.880859 L 7.8261719 12.65625 A 1 1 0 0 0 9.2167969 12.40625 A 1 1 0 0 0 8.96875 11.013672 L 7.8554688 10.240234 L 4.1464844 7.6582031 C 3.979805 7.5421993 3.9410933 7.3408194 4.0683594 7.1601562 C 4.1399444 7.0585363 4.2400901 7.0026227 4.34375 6.9941406 z " fill="currentColor"/>
</svg>
