<svg xmlns="http://www.w3.org/2000/svg" width="1em" height="1em" viewBox="0 0 24 24" fill="currentColor">
  <path d="M 12 1 C 10.537444 1 9.36112 1.849713 7.9824219 3.140625 A 1 1 0 0 0 7.9375 4.5527344 A 1 1 0 0 0 9.3496094 4.5996094 C 10.633571 3.3974014 11.309356 3 12 3 C 12.480061 3 12.907106 3.1663843 13.605469 3.6992188 C 14.303831 4.232053 15.197991 5.1159701 16.402344 6.3203125 L 17.679688 7.5976562 C 18.884038 8.8019959 19.767956 9.696175 20.300781 10.394531 C 20.833606 11.092888 21 11.51993 21 12 C 21 12.48007 20.833607 12.907109 20.300781 13.605469 C 19.767956 14.303828 18.884038 15.197994 17.679688 16.402344 L 16.402344 17.679688 C 15.197994 18.884038 14.303828 19.767956 13.605469 20.300781 C 12.907109 20.833607 12.48007 21 12 21 C 11.51993 21 11.092888 20.833606 10.394531 20.300781 C 9.696175 19.767956 8.8019959 18.884037 7.5976562 17.679688 L 6.3203125 16.402344 C 5.1159701 15.197991 4.232053 14.303831 3.6992188 13.605469 C 3.1663843 12.907106 3 12.480061 3 12 C 3 11.416404 3.6359525 10.378917 5.03125 8.9101562 C 5.38442 8.5383861 5.6615456 8.2575095 5.8964844 7.9296875 C 6.0139538 7.7657765 6.1300196 7.5845337 6.2050781 7.3261719 C 6.2801366 7.06781 6.280817 6.702917 6.1542969 6.4082031 C 6.0289165 6.1161667 5.7656874 5.8645982 5.5273438 5.7402344 C 5.2890002 5.6158706 5.0796858 5.5747937 4.8808594 5.546875 C 4.4832066 5.4910376 4.0924625 5.5 3.5859375 5.5 L 2.5 5.5 A 1 1 0 0 0 1.5 6.5 A 1 1 0 0 0 2.5 7.5 L 3.5859375 7.5 C 3.5966245 7.5 3.5968589 7.4999926 3.6074219 7.5 C 3.5935599 7.514631 3.5942721 7.516308 3.5800781 7.53125 C 2.1108162 9.0778696 1 10.365996 1 12 C 1 13.016539 1.4359163 13.940199 2.1074219 14.820312 C 2.7789275 15.700425 3.7019124 16.612059 4.90625 17.816406 L 6.1835938 19.09375 C 7.3879342 20.2981 8.299574 21.221078 9.1796875 21.892578 C 10.059801 22.564078 10.98347 23 12 23 C 13.01653 23 13.940196 22.564077 14.820312 21.892578 C 15.700427 21.221079 16.612056 20.2981 17.816406 19.09375 L 19.09375 17.816406 C 20.2981 16.612056 21.221079 15.700427 21.892578 14.820312 C 22.564077 13.940196 23 13.01653 23 12 C 23 10.98347 22.564078 10.059801 21.892578 9.1796875 C 21.221078 8.299574 20.2981 7.3879343 19.09375 6.1835938 L 17.816406 4.90625 C 16.612059 3.7019124 15.700424 2.7789275 14.820312 2.1074219 C 13.9402 1.4359163 13.016539 1 12 1 z " fill="currentColor"/>
</svg>
