<svg xmlns="http://www.w3.org/2000/svg" width="1em" height="1em" viewBox="0 0 24 24" fill="currentColor">
  <path d="M 12 1 C 5.9367104 1 1 5.9367104 1 12 C 1 18.063244 5.9367044 23 12 23 C 18.06325 23 23 18.06325 23 12 A 1 1 0 0 0 22 11 A 1 1 0 0 0 21 12 C 21 16.98235 16.98235 21 12 21 C 7.0175956 21 3 16.982356 3 12 C 3 7.0175896 7.0175896 3 12 3 C 14.670894 3 17.058021 4.1567847 18.707031 5.9980469 C 18.707646 5.9987331 18.70837 5.9993136 18.708984 6 C 19.073125 6.4110619 19.68437 6.5330987 20.142578 6.3671875 C 20.610854 6.197631 21.009766 5.6964942 21.009766 5.1328125 L 21.009766 2 A 1 1 0 0 0 20.009766 1 A 1 1 0 0 0 19.009766 2 L 19.009766 3.7910156 C 17.087416 2.1505066 14.719628 1 12 1 z " fill="currentColor"/>
</svg>
