<svg xmlns="http://www.w3.org/2000/svg" width="1em" height="1em" viewBox="0 0 24 24" fill="currentColor">
  <path d="M 15 1 A 1 1 0 0 0 14.292969 1.2929688 A 1 1 0 0 0 14.292969 2.7070312 L 16.585938 5 L 14.292969 7.2929688 A 1 1 0 0 0 14.292969 8.7070312 A 1 1 0 0 0 15.707031 8.7070312 L 18 6.4140625 L 20.292969 8.7070312 A 1 1 0 0 0 21.707031 8.7070312 A 1 1 0 0 0 21.707031 7.2929688 L 19.414062 5 L 21.707031 2.7070312 A 1 1 0 0 0 21.707031 1.2929688 A 1 1 0 0 0 20.292969 1.2929688 L 18 3.5859375 L 15.707031 1.2929688 A 1 1 0 0 0 15 1 z M 8.5 4 C 6.026562 4 4 6.026562 4 8.5 C 4 10.973438 6.026562 13 8.5 13 L 15.5 13 C 16.892562 13 18 14.107438 18 15.5 C 18 16.892562 16.892562 18 15.5 18 L 12 18 A 1 1 0 0 0 11 19 A 1 1 0 0 0 12 20 L 15.5 20 C 17.973438 20 20 17.973438 20 15.5 C 20 13.026562 17.973438 11 15.5 11 L 8.5 11 C 7.107438 11 6 9.892562 6 8.5 C 6 7.107438 7.107438 6 8.5 6 L 12 6 A 1 1 0 0 0 13 5 A 1 1 0 0 0 12 4 L 8.5 4 z M 6 15 C 3.8027056 15 2 16.802706 2 19 C 2 21.197294 3.8027056 23 6 23 C 8.1972944 23 10 21.197294 10 19 C 10 16.802706 8.1972944 15 6 15 z M 6 17 C 7.1164141 17 8 17.883586 8 19 C 8 20.116414 7.1164141 21 6 21 C 4.8835859 21 4 20.116414 4 19 C 4 17.883586 4.8835859 17 6 17 z " fill="currentColor"/>
</svg>
