<svg xmlns="http://www.w3.org/2000/svg" width="1em" height="1em" viewBox="0 0 24 24" fill="currentColor">
  <path d="M 20.287109 1 A 1 1 0 0 0 19.576172 1.2851562 A 1 1 0 0 0 19.560547 2.6992188 C 21.481739 4.660442 21.481739 7.8395579 19.560547 9.8007812 A 1 1 0 0 0 19.576172 11.214844 A 1 1 0 0 0 20.990234 11.199219 C 23.667642 8.4660219 23.667642 4.033978 20.990234 1.3007812 A 1 1 0 0 0 20.287109 1 z M 17.509766 3.8339844 A 1 1 0 0 0 16.800781 4.1191406 A 1 1 0 0 0 16.785156 5.5332031 C 17.173464 5.9296224 17.173464 6.5703776 16.785156 6.9667969 A 1 1 0 0 0 16.800781 8.3808594 A 1 1 0 0 0 18.214844 8.3671875 C 19.359336 7.1987867 19.359336 5.3012133 18.214844 4.1328125 A 1 1 0 0 0 17.509766 3.8339844 z M 14 5.5 A 1 1 0 0 0 13 6.5 L 13 13 L 6 13 C 5.05719 13 4.3297904 12.993601 3.671875 13.082031 C 3.0139596 13.170491 2.3614738 13.396322 1.8789062 13.878906 C 1.3963405 14.361481 1.1704861 15.013964 1.0820312 15.671875 C 0.99357648 16.329786 1 17.0572 1 18 C 1 18.9428 0.99357625 19.670214 1.0820312 20.328125 C 1.1704862 20.986036 1.3963405 21.63852 1.8789062 22.121094 C 2.3614739 22.603678 3.0139596 22.829512 3.671875 22.917969 C 4.3297906 23.006425 5.05719 23 6 23 L 18 23 C 18.9428 23 19.670212 23.006399 20.328125 22.917969 C 20.986038 22.829509 21.638521 22.603666 22.121094 22.121094 C 22.603666 21.638521 22.829512 20.986038 22.917969 20.328125 C 23.006425 19.670211 23 18.9428 23 18 C 23 17.0572 23.006399 16.329788 22.917969 15.671875 C 22.829509 15.013962 22.603666 14.361479 22.121094 13.878906 C 21.63852 13.396334 20.986038 13.170488 20.328125 13.082031 C 19.670212 12.993575 18.9428 13 18 13 L 15 13 L 15 6.5 A 1 1 0 0 0 14 5.5 z M 6 15 L 18 15 C 18.9428 15 19.62921 15.006503 20.060547 15.064453 C 20.491884 15.122443 20.603804 15.189741 20.707031 15.292969 C 20.810259 15.396196 20.877553 15.508116 20.935547 15.939453 C 20.99354 16.370793 21 17.0572 21 18 C 21 18.9428 20.993497 19.62921 20.935547 20.060547 C 20.877557 20.491884 20.810259 20.603804 20.707031 20.707031 C 20.603804 20.810259 20.491884 20.877553 20.060547 20.935547 C 19.629207 20.99354 18.9428 21 18 21 L 6 21 C 5.05719 21 4.3707927 20.99354 3.9394531 20.935547 C 3.5081136 20.877553 3.3961812 20.810247 3.2929688 20.707031 C 3.1897445 20.603805 3.1224458 20.491886 3.0644531 20.060547 C 3.0064604 19.629208 3 18.9428 3 18 C 3 17.0572 3.0064604 16.370792 3.0644531 15.939453 C 3.1224458 15.508114 3.1897445 15.396195 3.2929688 15.292969 C 3.3961811 15.189753 3.5081136 15.122447 3.9394531 15.064453 C 4.3707927 15.00646 5.05719 15 6 15 z M 6 16.75 C 5.3216244 16.75 4.75 17.321567 4.75 18 C 4.75 18.678433 5.3216244 19.25 6 19.25 C 6.6783756 19.25 7.25 18.678433 7.25 18 C 7.25 17.321567 6.6783756 16.75 6 16.75 z M 10 16.75 C 9.3216244 16.75 8.75 17.321567 8.75 18 C 8.75 18.678433 9.3216244 19.25 10 19.25 C 10.678288 19.25 11.25 18.678288 11.25 18 C 11.25 17.321712 10.678288 16.75 10 16.75 z M 14 16.75 C 13.321712 16.75 12.75 17.321712 12.75 18 C 12.75 18.678288 13.321712 19.25 14 19.25 C 14.678288 19.25 15.25 18.678288 15.25 18 C 15.25 17.321712 14.678288 16.75 14 16.75 z " fill="currentColor"/>
</svg>
