<svg xmlns="http://www.w3.org/2000/svg" width="1em" height="1em" viewBox="0 0 24 24" fill="currentColor">
  <path d="M 15 1 A 1 1 0 0 0 14.292969 1.2929688 A 1 1 0 0 0 14.292969 2.7070312 L 16.585938 5 L 14.292969 7.2929688 A 1 1 0 0 0 14.292969 8.7070312 A 1 1 0 0 0 15.707031 8.7070312 L 18 6.4140625 L 20.292969 8.7070312 A 1 1 0 0 0 21.707031 8.7070312 A 1 1 0 0 0 21.707031 7.2929688 L 19.414062 5 L 21.707031 2.7070312 A 1 1 0 0 0 21.707031 1.2929688 A 1 1 0 0 0 20.292969 1.2929688 L 18 3.5859375 L 15.707031 1.2929688 A 1 1 0 0 0 15 1 z M 6.9375 3 C 5.35748 3 4.4080701 2.9314247 3.4902344 3.4765625 C 3.137257 3.686211 2.8262734 3.9595988 2.5800781 4.2871094 C 2.2565678 4.7174867 2.1129747 5.2348257 2.0546875 5.7441406 C 1.9964003 6.2534555 2 6.79777 2 7.5 C 2 8.20223 1.9964005 8.7465472 2.0546875 9.2558594 C 2.1129755 9.7651715 2.2565475 10.28252 2.5800781 10.712891 C 2.8262817 11.040442 3.1372159 11.313792 3.4902344 11.523438 C 4.4080796 12.068644 5.35748 12 6.9375 12 L 17.0625 12 C 18.6425 12 19.591925 12.068639 20.509766 11.523438 A 1 1 0 0 0 20.859375 10.152344 A 1 1 0 0 0 19.490234 9.8027344 C 19.273075 9.9317292 18.6425 10 17.0625 10 L 6.9375 10 C 5.35748 10 4.7269209 9.9317265 4.5097656 9.8027344 C 4.3714241 9.7205786 4.2598508 9.6190141 4.1777344 9.5097656 C 4.122075 9.4357259 4.0775255 9.3483172 4.0410156 9.0292969 C 4.0045057 8.7102765 4 8.20223 4 7.5 C 4 6.79777 4.0045053 6.2897307 4.0410156 5.9707031 C 4.0775259 5.6516755 4.1220547 5.564307 4.1777344 5.4902344 C 4.2598591 5.3809849 4.371383 5.2794571 4.5097656 5.1972656 C 4.7269299 5.0682834 5.35748 5 6.9375 5 L 12.0625 5 A 1 1 0 0 0 13.0625 4 A 1 1 0 0 0 12.0625 3 L 6.9375 3 z M 6.9375 14 C 5.35748 14 4.4080791 13.931354 3.4902344 14.476562 C 3.1372159 14.686206 2.8262817 14.959558 2.5800781 15.287109 C 2.2565481 15.71747 2.1129754 16.23483 2.0546875 16.744141 C 1.9963996 17.253451 2 17.79775 2 18.5 C 2 19.20225 1.9964005 19.746549 2.0546875 20.255859 C 2.1129755 20.76517 2.2565481 21.28253 2.5800781 21.712891 C 2.8262817 22.040442 3.1372159 22.313794 3.4902344 22.523438 C 4.4080796 23.068645 5.35748 23 6.9375 23 L 17.0625 23 C 18.6425 23 19.591925 23.06864 20.509766 22.523438 C 20.862758 22.313827 21.173645 22.038706 21.419922 21.710938 C 21.742651 21.280887 21.887092 20.764568 21.945312 20.255859 C 22.003602 19.746546 22 19.20225 22 18.5 C 22 17.79775 22.003603 17.253454 21.945312 16.744141 C 21.887093 16.235432 21.742651 15.719114 21.419922 15.289062 C 21.173645 14.961294 20.862758 14.686174 20.509766 14.476562 C 19.591927 13.931357 18.6425 14 17.0625 14 L 6.9375 14 z M 6.9375 16 L 17.0625 16 C 18.6425 16 19.273075 16.06827 19.490234 16.197266 C 19.628642 16.279456 19.740342 16.381203 19.822266 16.490234 C 19.877926 16.564274 19.922474 16.651691 19.958984 16.970703 C 19.995495 17.289715 20 17.79775 20 18.5 C 20 19.20225 19.995504 19.710285 19.958984 20.029297 C 19.922474 20.348309 19.877924 20.435726 19.822266 20.509766 C 19.740346 20.618797 19.628642 20.720546 19.490234 20.802734 C 19.273079 20.931729 18.6425 21 17.0625 21 L 6.9375 21 C 5.35748 21 4.7269209 20.931727 4.5097656 20.802734 C 4.3714241 20.720579 4.2598508 20.619014 4.1777344 20.509766 C 4.1220744 20.435727 4.0775252 20.348311 4.0410156 20.029297 C 4.0045061 19.710282 4 19.20225 4 18.5 C 4 17.79775 4.0045096 17.289718 4.0410156 16.970703 C 4.0775256 16.651689 4.1220746 16.564273 4.1777344 16.490234 C 4.2598504 16.380986 4.3714241 16.279421 4.5097656 16.197266 C 4.7269205 16.068273 5.35748 16 6.9375 16 z " fill="currentColor"/>
</svg>
