<svg xmlns="http://www.w3.org/2000/svg" width="1em" height="1em" viewBox="0 0 24 24" fill="currentColor">
  <path d="M 8.5019531 2 C 6.3920625 2 4.630315 3.345904 3.9003906 5.2089844 L 1.6445312 6.0664062 A 1.0001 1.0001 0 0 0 1.0195312 7.1875 C 1.2736889 8.5245388 2.5751174 9.7722494 4.6230469 9.9375 C 4.7900592 10.156337 5.0107641 10.315711 5.2109375 10.503906 C 3.654959 11.69347 2.5019531 13.397411 2.5019531 15.5 C 2.5019531 19.077122 5.418393 22 8.9921875 22 L 13.001953 22 C 15.903468 22 18.33962 21.350812 20.113281 20.138672 C 21.869537 18.938426 22.93405 17.111988 22.955078 15.056641 C 22.968938 14.936494 23.462614 10.546598 19.708984 6.7929688 A 1.0001 1.0001 0 0 0 18.001953 7.5 C 18.001953 8.0347829 17.864899 8.4516476 17.701172 8.6738281 C 17.537444 8.8960086 17.396972 9 16.978516 9 L 13.0625 9 C 13.332673 8.3843819 13.501953 7.7115168 13.501953 7 C 13.501953 4.2504385 11.251563 2 8.5019531 2 z M 8.5019531 4 C 10.170703 4 11.501953 5.3312815 11.501953 7 C 11.501953 7.9024524 11.108421 8.6992613 10.484375 9.25 A 1.0001 1.0001 0 0 0 11.146484 11 L 16.978516 11 C 17.938359 11 18.809453 10.54397 19.3125 9.8613281 C 19.35496 9.8037021 19.333064 9.721788 19.371094 9.6621094 C 21.205411 12.366926 20.978516 14.869141 20.978516 14.869141 A 1.0001 1.0001 0 0 0 20.970703 15 C 20.970703 16.419638 20.320114 17.573469 18.984375 18.486328 C 17.648636 19.399188 15.600438 20 13.001953 20 L 8.9921875 20 C 6.501082 20 4.5019531 17.998078 4.5019531 15.5 C 4.5019531 13.699389 5.5482902 12.160454 7.0585938 11.4375 A 1.0001 1.0001 0 0 0 7.0957031 9.6523438 C 6.7124719 9.4487333 6.4381179 9.1067222 6.1757812 8.7636719 C 6.4981796 7.9461296 6.5589354 7.0457924 6.0390625 6.2890625 L 5.7988281 5.9394531 C 6.2393835 4.8366465 7.2300596 4 8.5019531 4 z M 8.25 5 C 7.5714795 5 7 5.5714795 7 6.25 C 7 6.9285205 7.5714795 7.5 8.25 7.5 C 8.9285205 7.5 9.5 6.9285205 9.5 6.25 C 9.5 5.5714795 8.9285205 5 8.25 5 z M 4.2480469 7.2128906 L 4.390625 7.4199219 C 4.4814576 7.5521384 4.3620893 7.6904262 4.3554688 7.8378906 C 3.9781909 7.7594062 3.5669037 7.6998959 3.3925781 7.5390625 L 4.2480469 7.2128906 z M 11.001953 12 C 9.0808088 12 7.5019531 13.578854 7.5019531 15.5 C 7.5019531 17.421146 9.0808088 19 11.001953 19 L 12.501953 19 C 14.027656 19 15.42959 18.14269 16.537109 17.035156 C 17.644629 15.927623 18.501953 14.525657 18.501953 13 A 1.0001 1.0001 0 0 0 17.501953 12 L 11.001953 12 z M 11.001953 14 L 16.203125 14 C 15.967484 14.544926 15.627745 15.11639 15.123047 15.621094 C 14.282866 16.461285 13.18545 17 12.501953 17 L 11.001953 17 C 10.161718 17 9.5019531 16.340254 9.5019531 15.5 C 9.5019531 14.659746 10.161718 14 11.001953 14 z " fill="currentColor"/>
</svg>
