<svg xmlns="http://www.w3.org/2000/svg" width="1em" height="1em" viewBox="0 0 24 24" fill="currentColor">
  <path d="M 6 2 A 1 1 0 0 0 5 3 A 1 1 0 0 0 6 4 L 9 4 C 10.875234 4 12.43471 5.2682771 12.875 7 L 6 7 A 1 1 0 0 0 5 8 A 1 1 0 0 0 6 9 L 12.875 9 C 12.434706 10.73171 10.875228 12 9 12 L 6 12 A 1.0001 1.0001 0 0 0 5.3359375 13.748047 L 14.335938 21.748047 A 1 1 0 0 0 15.748047 21.664062 A 1 1 0 0 0 15.664062 20.251953 L 8.6308594 14 L 9 14 C 11.96133 14 14.436868 11.829674 14.916016 9 L 18 9 A 1 1 0 0 0 19 8 A 1 1 0 0 0 18 7 L 14.916016 7 C 14.722992 5.8600659 14.205169 4.8271389 13.462891 4 L 18 4 A 1 1 0 0 0 19 3 A 1 1 0 0 0 18 2 L 9 2 L 6 2 z " fill="currentColor"/>
</svg>
