<svg xmlns="http://www.w3.org/2000/svg" width="1em" height="1em" viewBox="0 0 24 24" fill="currentColor">
  <path d="M 12 1 C 5.9367104 1 1 5.9367104 1 12 C 1 18.063244 5.9367044 23 12 23 C 18.06325 23 23 18.06325 23 12 C 23 5.9367044 18.063244 1 12 1 z M 12 3 C 16.982356 3 21 7.0175956 21 12 C 21 16.98235 16.98235 21 12 21 C 7.0175956 21 3 16.982356 3 12 C 3 7.0175896 7.0175896 3 12 3 z M 8 6 A 1 1 0 0 0 7 7 A 1 1 0 0 0 8 8 L 11 8 C 11.750456 8 12.395894 8.3992058 12.738281 9 L 8 9 A 1 1 0 0 0 7 10 A 1 1 0 0 0 8 11 L 12.738281 11 C 12.395903 11.600811 11.750482 12 11 12 L 8 12 A 1.0001 1.0001 0 0 0 7.359375 13.767578 L 13.359375 18.767578 A 1 1 0 0 0 14.767578 18.640625 A 1 1 0 0 0 14.640625 17.232422 L 10.761719 14 L 11 14 C 12.852438 14 14.425234 12.718768 14.873047 11 L 16 11 A 1 1 0 0 0 17 10 A 1 1 0 0 0 16 9 L 14.873047 9 C 14.78071 8.6455998 14.639516 8.3098008 14.458984 8 L 16 8 A 1 1 0 0 0 17 7 A 1 1 0 0 0 16 6 L 11 6 L 8 6 z " fill="currentColor"/>
</svg>
