<svg xmlns="http://www.w3.org/2000/svg" width="1em" height="1em" viewBox="0 0 24 24" fill="currentColor">
  <path d="M 12 1 C 5.9367104 1 1 5.9367104 1 12 C 1 18.063244 5.9367044 23 12 23 C 18.06325 23 23 18.06325 23 12 C 23 5.9367044 18.063244 1 12 1 z M 11 3.0546875 L 11 3.5 A 1 1 0 0 0 12 4.5 A 1 1 0 0 0 13 3.5 L 13 3.0546875 C 17.180863 3.5137919 20.486207 6.8191043 20.945312 11 L 20.5 11 A 1 1 0 0 0 19.5 12 A 1 1 0 0 0 20.5 13 L 20.945312 13 C 20.486202 17.180856 17.180856 20.486202 13 20.945312 L 13 20.5 A 1 1 0 0 0 12 19.5 A 1 1 0 0 0 11 20.5 L 11 20.945312 C 6.8191043 20.486207 3.5137919 17.180863 3.0546875 13 L 3.5 13 A 1 1 0 0 0 4.5 12 A 1 1 0 0 0 3.5 11 L 3.0546875 11 C 3.5137873 6.8190967 6.8190967 3.5137873 11 3.0546875 z M 16.308594 6.5 C 16.171996 6.5040388 16.069718 6.5295076 15.984375 6.5527344 C 15.756793 6.6146724 15.614106 6.6854654 15.431641 6.7636719 L 11.798828 8.3203125 C 10.777831 8.7579014 10.134737 9.0097497 9.5722656 9.5722656 C 9.0097497 10.134737 8.7579014 10.777831 8.3203125 11.798828 L 6.7636719 15.431641 C 6.6854649 15.614106 6.6146725 15.756793 6.5527344 15.984375 C 6.5217654 16.098166 6.4865852 16.24133 6.5039062 16.457031 C 6.5212272 16.672732 6.6363693 16.976299 6.8300781 17.169922 C 7.0237354 17.363471 7.3292944 17.478815 7.5449219 17.496094 C 7.7605494 17.513374 7.901853 17.478236 8.015625 17.447266 C 8.243169 17.385326 8.3858929 17.314529 8.5683594 17.236328 L 12.201172 15.679688 C 13.222172 15.242088 13.865272 14.990197 14.427734 14.427734 C 14.990197 13.865272 15.242087 13.222172 15.679688 12.201172 L 17.236328 8.5683594 C 17.314528 8.3858929 17.385328 8.243169 17.447266 8.015625 C 17.478236 7.901853 17.513374 7.7605494 17.496094 7.5449219 C 17.478813 7.3292964 17.363471 7.0237354 17.169922 6.8300781 C 16.976299 6.6363693 16.672732 6.5212274 16.457031 6.5039062 C 16.403106 6.499576 16.354126 6.4986537 16.308594 6.5 z M 14.783203 9.2167969 L 13.841797 11.414062 C 13.659452 11.839458 13.610553 11.846489 13.496094 12.082031 L 11.917969 10.503906 C 12.153505 10.389451 12.16054 10.340544 12.585938 10.158203 L 14.783203 9.2167969 z M 10.503906 11.917969 L 12.082031 13.496094 C 11.845946 13.610817 11.839005 13.65883 11.412109 13.841797 L 9.2167969 14.783203 L 10.158203 12.587891 L 10.158203 12.585938 C 10.340544 12.16054 10.389451 12.153505 10.503906 11.917969 z " fill="currentColor"/>
</svg>
