<svg xmlns="http://www.w3.org/2000/svg" width="1em" height="1em" viewBox="0 0 24 24" fill="currentColor">
  <path d="M 13 1 C 12.0572 1 11.329787 0.99357659 10.671875 1.0820312 C 10.013963 1.170486 9.3614835 1.3963455 8.8789062 1.8789062 C 8.3963287 2.3614754 8.1704859 3.0139614 8.0820312 3.671875 C 7.9935764 4.3297886 8 5.05719 8 6 L 8 8 C 8 8.94281 7.9935802 9.6702156 8.0820312 10.328125 C 8.1704862 10.986034 8.3963446 11.638524 8.8789062 12.121094 C 9.3614819 12.603661 10.013962 12.829512 10.671875 12.917969 C 11.329788 13.006425 12.0572 13 13 13 L 15 13 C 15.9428 13 16.670212 13.006399 17.328125 12.917969 C 17.986038 12.829509 18.638521 12.603666 19.121094 12.121094 C 19.603662 11.638525 19.829512 10.986036 19.917969 10.328125 C 20.006426 9.6702127 20 8.94281 20 8 L 20 6 C 20 5.05719 20.006425 4.3297904 19.917969 3.671875 C 19.829512 3.0139596 19.603678 2.3614739 19.121094 1.8789062 C 18.63852 1.3963405 17.986036 1.1704861 17.328125 1.0820312 C 16.670214 0.99357648 15.9428 1 15 1 L 13 1 z M 13 3 L 15 3 C 15.9428 3 16.629208 3.0064601 17.060547 3.0644531 C 17.491886 3.1224461 17.603805 3.1897445 17.707031 3.2929688 C 17.810247 3.3961811 17.877553 3.5081136 17.935547 3.9394531 C 17.99354 4.3707928 18 5.05719 18 6 L 18 8 C 18 8.94281 17.993497 9.629213 17.935547 10.060547 C 17.877557 10.491881 17.810263 10.6038 17.707031 10.707031 C 17.603804 10.810259 17.491884 10.877553 17.060547 10.935547 C 16.629207 10.99354 15.9428 11 15 11 L 13 11 C 12.0572 11 11.370792 10.993497 10.939453 10.935547 C 10.508114 10.877557 10.396203 10.810264 10.292969 10.707031 C 10.18974 10.603798 10.122446 10.491882 10.064453 10.060547 C 10.006461 9.6292112 10 8.94281 10 8 L 10 6 C 10 5.05719 10.006503 4.3707945 10.064453 3.9394531 C 10.122443 3.5081117 10.189756 3.3961795 10.292969 3.2929688 C 10.396204 3.1897395 10.508112 3.1224459 10.939453 3.0644531 C 11.370794 3.0064603 12.0572 3 13 3 z M 13 4 A 1 1 0 0 0 12 5 A 1 1 0 0 0 13 6 L 15 6 A 1 1 0 0 0 16 5 A 1 1 0 0 0 15 4 L 13 4 z M 4 13 A 1 1 0 0 0 3 14 A 1 1 0 0 0 4 15 L 6.3945312 15 C 6.5384179 15 6.6804595 15.0327 6.8066406 15.09375 L 8.8476562 16.082031 C 9.2478399 16.275666 9.6866729 16.375 10.130859 16.375 L 11.173828 16.375 C 11.320753 16.375 11.308878 16.551176 11.423828 16.607422 L 10.126953 16.964844 C 9.9052963 17.026114 9.6644163 17.00472 9.4609375 16.90625 L 7.2773438 15.849609 A 1 1 0 0 0 5.9414062 16.314453 A 1 1 0 0 0 6.40625 17.650391 L 8.5898438 18.707031 C 9.2343649 19.018955 9.9701534 19.083308 10.660156 18.892578 L 13.199219 18.191406 C 13.623999 18.074375 13.954572 17.692544 13.996094 17.238281 L 17.886719 16.044922 A 1.0001 1.0001 0 0 0 17.890625 16.042969 C 18.295086 15.916941 18.71709 16.054869 18.986328 16.427734 C 19.01255 16.464044 18.996722 16.511391 18.980469 16.525391 L 18.978516 16.527344 L 11.462891 20.865234 C 11.218829 21.006055 10.943181 21.037176 10.679688 20.958984 L 4.2851562 19.060547 A 1 1 0 0 0 3.0410156 19.736328 A 1 1 0 0 0 3.7148438 20.978516 L 10.111328 22.876953 C 10.899233 23.110762 11.750953 23.006482 12.462891 22.595703 L 19.978516 18.259766 C 21.034909 17.650157 21.315519 16.240215 20.607422 15.257812 C 19.85666 14.218079 18.518861 13.753393 17.294922 14.134766 L 13.324219 15.355469 C 12.800961 14.755078 12.023762 14.375 11.173828 14.375 L 10.130859 14.375 C 9.9867466 14.375 9.8447463 14.34221 9.71875 14.28125 L 7.6777344 13.292969 C 7.2777355 13.099423 6.8389448 13 6.3945312 13 L 4 13 z " fill="currentColor"/>
</svg>
