<svg xmlns="http://www.w3.org/2000/svg" width="1em" height="1em" viewBox="0 0 24 24" fill="currentColor">
  <path d="M 11.927734 1 C 10.625557 1 9.5136719 2.0495599 9.5136719 3.3632812 L 9.5136719 3.8945312 C 9.3620466 3.8646661 9.2585763 3.7265625 9.0996094 3.7265625 C 7.7974156 3.7265625 6.6855469 4.7781199 6.6855469 6.0917969 L 6.6855469 11.292969 L 5.3339844 9.8574219 C 4.6572346 9.0581905 3.5380667 8.7990272 2.5742188 9.1972656 C 1.7115818 9.5536713 1.2113002 10.349043 1.0566406 11.136719 C 0.90198108 11.924395 1.0418116 12.779199 1.5761719 13.470703 C 2.6303902 14.835127 3.767575 16.786007 4.6816406 18.507812 C 6.1092187 21.197038 8.9256208 23 12.072266 23 A 1 1 0 0 0 13.072266 22 A 1 1 0 0 0 12.072266 21 C 9.6927896 21 7.5393607 19.623887 6.4492188 17.570312 C 5.5080845 15.797518 4.3468248 13.78447 3.1582031 12.246094 C 3.0371939 12.089498 2.9676658 11.785633 3.0195312 11.521484 C 3.0713962 11.257335 3.1921975 11.107069 3.3378906 11.046875 C 3.5064426 10.977235 3.7061635 11.029425 3.8085938 11.150391 A 1.0001 1.0001 0 0 0 3.8417969 11.189453 L 6.1328125 13.626953 C 6.5599095 14.081408 7.2236491 14.187883 7.7304688 14 C 8.2372885 13.812117 8.6855469 13.273371 8.6855469 12.638672 L 8.6855469 6.0917969 C 8.6855469 5.8992338 8.8395031 5.7265625 9.0996094 5.7265625 C 9.3597156 5.7265625 9.5136719 5.8991896 9.5136719 6.0917969 L 9.5136719 9.5 A 1 1 0 0 0 10.513672 10.5 A 1 1 0 0 0 11.513672 9.5 L 11.513672 6.0917969 L 11.513672 3.3632812 C 11.513672 3.1707624 11.667711 3 11.927734 3 C 12.187924 3 12.341797 3.1706739 12.341797 3.3632812 L 12.341797 5.1816406 L 12.341797 9.5 A 1 1 0 0 0 13.341797 10.5 A 1 1 0 0 0 14.341797 9.5 L 14.341797 5.1816406 C 14.341797 4.9891219 14.495836 4.8183594 14.755859 4.8183594 C 15.016049 4.8183594 15.171875 4.9890333 15.171875 5.1816406 L 15.171875 7.9082031 L 15.171875 9.5 A 1 1 0 0 0 16.171875 10.5 A 1 1 0 0 0 17.171875 9.5 L 17.171875 7.9082031 C 17.171875 7.7157018 17.325923 7.5449219 17.585938 7.5449219 C 17.84612 7.5449219 18 7.7156133 18 7.9082031 L 18 9.5 A 1 1 0 0 0 19 10.5 A 1 1 0 0 0 20 9.5 L 20 7.9082031 C 20 6.594573 18.888156 5.5449219 17.585938 5.5449219 C 17.426973 5.5449219 17.323501 5.6830276 17.171875 5.7128906 L 17.171875 5.1816406 C 17.171875 3.8680079 16.05807 2.8183594 14.755859 2.8183594 C 14.544248 2.8183594 14.402699 2.9908895 14.205078 3.0429688 C 14.02039 1.906993 13.105462 1 11.927734 1 z M 17.5 11 C 16.960231 11 16.556656 11.168329 15.970703 11.382812 L 14.498047 11.921875 C 13.780019 12.184685 13.285718 12.331451 12.822266 12.771484 C 12.572403 13.008709 12.371673 13.290947 12.230469 13.605469 A 1.0001 1.0001 0 0 0 12.228516 13.605469 C 11.966039 14.190501 12 14.706678 12 15.455078 L 12 15.839844 C 12 17.041744 11.98747 17.726261 12.183594 18.453125 C 12.409343 19.290074 12.836472 20.060656 13.427734 20.699219 C 13.940573 21.253153 14.529572 21.612547 15.560547 22.269531 C 16.022104 22.563604 16.321293 22.775947 16.767578 22.900391 C 17.246448 23.033779 17.753552 23.033779 18.232422 22.900391 C 18.678707 22.775947 18.977896 22.563604 19.439453 22.269531 C 20.470428 21.612547 21.059427 21.253153 21.572266 20.699219 C 22.163528 20.060656 22.590657 19.290074 22.816406 18.453125 C 23.012527 17.726261 23 17.041744 23 15.839844 L 23 15.455078 C 23 14.706678 23.03401 14.190501 22.771484 13.605469 A 1.0001 1.0001 0 0 0 22.769531 13.605469 C 22.628327 13.290947 22.427597 13.008709 22.177734 12.771484 C 21.714282 12.331451 21.219981 12.184685 20.501953 11.921875 L 19.029297 11.382812 C 18.443344 11.168329 18.039769 11 17.5 11 z M 17.5 13 C 17.57223 13 17.75575 13.0472 18.341797 13.261719 L 19.814453 13.800781 C 20.532425 14.063571 20.757634 14.179736 20.800781 14.220703 C 20.863321 14.280073 20.911517 14.350503 20.945312 14.425781 C 20.966389 14.472749 21 14.706678 21 15.455078 L 21 15.839844 C 21 17.041744 20.9874 17.558505 20.886719 17.931641 A 1.0001 1.0001 0 0 0 20.886719 17.933594 C 20.746068 18.455045 20.479207 18.936207 20.105469 19.339844 C 19.837108 19.629709 19.394306 19.926969 18.363281 20.583984 C 17.901638 20.878112 17.739628 20.960299 17.695312 20.972656 C 17.568182 21.008066 17.431818 21.008066 17.304688 20.972656 C 17.260378 20.960296 17.098362 20.878116 16.636719 20.583984 C 15.605694 19.926969 15.162892 19.629709 14.894531 19.339844 C 14.520793 18.936207 14.253932 18.455045 14.113281 17.933594 A 1.0001 1.0001 0 0 0 14.113281 17.931641 C 14.012602 17.558505 14 17.041744 14 15.839844 L 14 15.455078 C 14 14.706678 14.033607 14.472749 14.054688 14.425781 C 14.088477 14.350501 14.136678 14.280078 14.199219 14.220703 C 14.242369 14.179733 14.467575 14.063571 15.185547 13.800781 L 16.658203 13.261719 C 17.244248 13.047202 17.427769 13 17.5 13 z M 19.019531 14.5 A 1 1 0 0 0 18.888672 14.505859 A 1 1 0 0 0 18.21875 14.875 L 16.916016 16.5 L 16.707031 16.292969 A 1 1 0 0 0 15.292969 16.292969 A 1 1 0 0 0 15.292969 17.707031 L 15.501953 17.917969 C 15.686303 18.102319 15.834967 18.258987 16.050781 18.421875 C 16.266595 18.584763 16.640069 18.772275 17.041016 18.75 C 17.442109 18.7279 17.793779 18.500215 17.990234 18.314453 C 18.186689 18.128691 18.315706 17.955502 18.478516 17.751953 L 19.78125 16.125 A 1 1 0 0 0 19.625 14.71875 A 1 1 0 0 0 19.019531 14.5 z " fill="currentColor"/>
</svg>
