<svg xmlns="http://www.w3.org/2000/svg" width="1em" height="1em" viewBox="0 0 24 24" fill="currentColor">
  <path d="M 10.5625 1.5019531 A 1.0001 1.0001 0 0 0 9.9550781 1.6894531 C 8.5529823 2.7021749 7.9018082 4.6392072 7.6953125 6.7851562 C 5.7075591 6.3520955 3.6912309 6.3638831 2.296875 7.4003906 A 1.0001 1.0001 0 0 0 2.0058594 8.6621094 L 2.5058594 9.6289062 L 1.5527344 10.105469 A 1.0001 1.0001 0 0 0 1.046875 11.302734 C 1.5322745 12.836853 2.9403491 14.026899 4.6757812 14.869141 C 3.6692224 16.624596 3.1436081 18.498282 3.6699219 20.09375 A 1.0001 1.0001 0 0 0 4.7890625 20.767578 L 5.8554688 20.583984 L 6.0097656 21.644531 A 1.0001 1.0001 0 0 0 6.9980469 22.5 C 8.7995026 22.504937 10.582252 21.358624 12 19.646484 C 13.41775 21.358625 15.200504 22.504937 17.001953 22.5 A 1.0001 1.0001 0 0 0 17.990234 21.644531 L 18.144531 20.583984 L 19.210938 20.767578 A 1.0001 1.0001 0 0 0 20.330078 20.09375 C 20.856374 18.498266 20.330775 16.624584 19.324219 14.869141 C 21.059687 14.026898 22.467754 12.836867 22.953125 11.302734 A 1.0001 1.0001 0 0 0 22.447266 10.105469 L 21.494141 9.6289062 L 21.994141 8.6621094 A 1.0001 1.0001 0 0 0 21.703125 7.4003906 C 20.308915 6.3640089 18.294175 6.3522659 16.306641 6.7851562 C 16.104102 4.6366143 15.444431 2.700273 14.044922 1.6894531 A 1.0001 1.0001 0 0 0 12.744141 1.8027344 L 12 2.5664062 L 11.255859 1.8027344 A 1.0001 1.0001 0 0 0 10.5625 1.5019531 z M 10.650391 4.0449219 L 11.283203 4.6972656 A 1.0001 1.0001 0 0 0 12.716797 4.6972656 L 13.351562 4.0449219 C 13.944487 4.8858346 14.498279 6.20388 14.490234 7.9003906 A 1.0001 1.0001 0 0 0 15.804688 8.8535156 C 17.254836 8.3742251 18.697332 8.4937741 19.677734 8.7890625 L 19.251953 9.609375 A 1.0001 1.0001 0 0 0 19.693359 10.962891 L 20.546875 11.390625 C 19.999941 12.197831 19.097882 13.043151 17.708984 13.525391 A 1.0001 1.0001 0 0 0 17.230469 15.058594 C 18.13718 16.29948 18.416707 17.593493 18.408203 18.599609 L 17.470703 18.439453 A 1.0001 1.0001 0 0 0 16.3125 19.28125 L 16.175781 20.224609 C 15.212772 19.936874 14.092174 19.301248 13.185547 18.060547 C 13.064106 17.894276 12.952044 17.728164 12.851562 17.564453 A 1.0001 1.0001 0 0 0 11.148438 17.564453 C 11.047954 17.728164 10.935894 17.894276 10.814453 18.060547 C 9.9078254 19.30125 8.7872307 19.936875 7.8242188 20.224609 L 7.6875 19.28125 A 1.0001 1.0001 0 0 0 6.5292969 18.439453 L 5.5917969 18.599609 C 5.5832669 17.593491 5.862814 16.299469 6.7695312 15.058594 A 1.0001 1.0001 0 0 0 6.2910156 13.525391 C 4.9021642 13.043152 4.0000766 12.19784 3.453125 11.390625 L 4.3066406 10.962891 A 1.0001 1.0001 0 0 0 4.7480469 9.609375 L 4.3222656 8.7890625 C 5.3026699 8.4937805 6.7451582 8.3742257 8.1953125 8.8535156 A 1.0001 1.0001 0 0 0 9.5097656 7.9042969 C 9.5097656 6.2030551 10.060326 4.8853394 10.650391 4.0449219 z M 12 9.5 C 10.354993 9.5 9 10.854993 9 12.5 C 9 14.145007 10.354993 15.5 12 15.5 C 13.645007 15.5 15 14.145007 15 12.5 C 15 10.854993 13.645007 9.5 12 9.5 z M 12 11.5 C 12.564193 11.5 13 11.935807 13 12.5 C 13 13.064193 12.564193 13.5 12 13.5 C 11.435807 13.5 11 13.064193 11 12.5 C 11 11.935807 11.435807 11.5 12 11.5 z " fill="currentColor"/>
</svg>
