<svg xmlns="http://www.w3.org/2000/svg" width="1em" height="1em" viewBox="0 0 24 24" fill="currentColor">
  <path d="M 9.9042969 1.0078125 C 9.6782645 0.9948864 9.4556404 0.99448385 9.2382812 1.0097656 C 8.3688441 1.0708928 7.5789874 1.3682783 6.9609375 1.9863281 C 3.5587552 5.3885201 3.0797641 10.632405 5.6132812 14.505859 L 3.9316406 16.916016 C 3.2322635 17.917962 2.6896565 18.673913 2.3398438 19.404297 C 2.1649372 19.769489 2.0305997 20.139516 2.0039062 20.560547 C 1.9772123 20.981577 2.0981323 21.454253 2.3457031 21.814453 C 2.8408464 22.534855 3.6714208 22.790569 4.5410156 22.898438 C 5.4106105 23.006307 6.4635425 23 7.8515625 23 L 12.148438 23 C 13.536437 23 14.589396 23.0063 15.458984 22.898438 C 16.328572 22.790568 17.159147 22.534837 17.654297 21.814453 C 18.105359 21.158145 18.03303 20.268853 17.748047 19.599609 C 17.589644 19.227622 17.380324 18.859565 17.125 18.460938 C 18.546244 17.979565 19.881727 17.171008 21.013672 16.039062 C 22.24978 14.802955 22.206682 12.882274 21.546875 11.001953 C 20.887068 9.1216341 19.567174 7.1062788 17.730469 5.2695312 C 15.893708 3.4327814 13.878378 2.1129268 11.998047 1.453125 C 11.292922 1.2056993 10.582394 1.0465908 9.9042969 1.0078125 z M 9.4570312 3.0078125 C 9.9536179 2.9819505 10.583132 3.0756875 11.335938 3.3398438 C 12.841546 3.8681569 14.663267 5.0304636 16.316406 6.6835938 C 17.969501 8.3367263 19.131838 10.158459 19.660156 11.664062 C 20.188474 13.169666 20.040405 14.184208 19.599609 14.625 C 19.158813 15.065796 18.146222 15.211902 16.640625 14.683594 C 15.364543 14.235824 13.870886 13.249697 12.435547 11.978516 L 14.707031 9.7070312 A 1 1 0 0 0 14.707031 8.2929688 A 1 1 0 0 0 13.292969 8.2929688 L 11.021484 10.564453 C 9.7502923 9.1290711 8.7641865 7.6354666 8.3164062 6.359375 C 7.7880886 4.8537671 7.9342234 3.8411698 8.375 3.4003906 C 8.5953901 3.1800005 8.9604445 3.0336747 9.4570312 3.0078125 z M 6.4160156 6.9414062 C 6.4253356 6.9687412 6.4201055 6.9941644 6.4296875 7.0214844 C 7.0894949 8.901814 8.4073755 10.919095 10.244141 12.755859 C 12.080855 14.592626 14.098187 15.910517 15.978516 16.570312 C 16.005836 16.579912 16.031254 16.574614 16.058594 16.583984 C 13.3865 17.344644 10.440393 16.799743 8.3203125 14.679688 C 6.2002263 12.559569 5.6553264 9.6134665 6.4160156 6.9414062 z M 6.9277344 16.115234 C 9.1491099 18.322755 12.144734 19.252696 15.029297 18.927734 C 15.46983 19.576735 15.775843 20.073936 15.908203 20.384766 C 15.995274 20.58924 16.022524 20.650581 16.025391 20.667969 L 16.025391 20.669922 L 16.023438 20.671875 L 16.021484 20.671875 L 16.021484 20.673828 C 16.020511 20.673968 16.016826 20.673715 16.015625 20.673828 L 16.013672 20.673828 L 16.011719 20.673828 L 16.011719 20.675781 L 16.009766 20.675781 L 16.007812 20.677734 L 16.005859 20.677734 L 16.005859 20.679688 C 15.983509 20.712208 15.860678 20.833707 15.212891 20.914062 C 14.5651 20.994418 13.536437 21 12.148438 21 L 7.8515625 21 C 6.4635425 21 5.4349045 20.994402 4.7871094 20.914062 C 4.1456222 20.834492 4.0260472 20.717451 4.0019531 20.683594 C 4.0050931 20.640744 4.0355081 20.497163 4.1445312 20.269531 C 4.3647335 19.809765 4.8709296 19.062501 5.5703125 18.060547 L 6.9277344 16.115234 z " fill="currentColor"/>
</svg>
