<svg xmlns="http://www.w3.org/2000/svg" width="1em" height="1em" viewBox="0 0 24 24" fill="currentColor">
  <path d="M 20.441406 0.99804688 C 20.020758 1.0001264 19.583215 1.0705106 19.150391 1.1816406 C 18.112006 1.448252 16.965267 1.9758036 15.720703 2.7167969 C 14.569367 2.2545653 13.31306 2 12 2 C 6.4890006 2 2 6.4889547 2 12 C 2 13.313137 2.2544858 14.569272 2.7167969 15.720703 C 1.970378 16.97431 1.4403833 18.127303 1.1757812 19.171875 C 0.88537936 20.318298 0.88122444 21.497869 1.6933594 22.308594 C 2.407899 23.021904 3.435452 23.098012 4.421875 22.914062 C 5.408298 22.730114 6.4853785 22.284485 7.6660156 21.634766 C 7.8675339 21.523868 8.0722218 21.406151 8.2792969 21.283203 C 9.4303274 21.744975 10.687626 22 12 22 C 17.511044 22 22 17.510942 22 12 C 22 10.687102 21.745317 9.4287462 21.283203 8.2773438 C 21.407056 8.0686993 21.525081 7.8631525 21.636719 7.6601562 C 22.285869 6.4797751 22.730843 5.4041494 22.914062 4.4179688 C 23.097282 3.4317882 23.021201 2.4027374 22.306641 1.6894531 C 21.898372 1.281871 21.398424 1.0820069 20.855469 1.0195312 C 20.71973 1.0039124 20.581622 0.9973537 20.441406 0.99804688 z M 20.392578 3.0019531 C 20.704398 2.9960039 20.854867 3.0658719 20.894531 3.1054688 C 20.950121 3.1609597 21.0703 3.4010037 20.949219 4.0527344 C 20.828135 4.704465 20.468278 5.6362369 19.884766 6.6972656 C 18.717741 8.8193231 16.677683 11.480133 14.082031 14.076172 C 11.486342 16.672219 8.8239876 18.714601 6.7011719 19.882812 C 5.639764 20.466918 4.7091564 20.825584 4.0566406 20.947266 C 3.4041249 21.068948 3.161054 20.950061 3.1054688 20.894531 C 3.0422838 20.831451 2.9038707 20.490766 3.1132812 19.664062 C 3.2430629 19.151722 3.4941776 18.516073 3.8554688 17.800781 C 4.1784306 18.253713 4.5377437 18.678364 4.9296875 19.070312 A 1 1 0 0 0 6.34375 19.070312 A 1 1 0 0 0 6.34375 17.65625 C 4.8948995 16.207382 4 14.214971 4 12 C 4 7.5698253 7.5698794 4 12 4 C 14.215084 4 16.207383 4.894901 17.65625 6.34375 A 1 1 0 0 0 19.070312 6.34375 A 1 1 0 0 0 19.070312 4.9296875 C 18.678028 4.5374082 18.25219 4.176691 17.798828 3.8535156 C 18.506431 3.4962496 19.136749 3.2480653 19.646484 3.1171875 C 19.959863 3.0367257 20.205486 3.0055227 20.392578 3.0019531 z M 19.849609 10.443359 C 19.9485 10.945906 20 11.466756 20 12 C 20 16.430058 16.430156 20 12 20 C 11.467162 20 10.947584 19.948379 10.445312 19.849609 C 12.075511 18.665289 13.796757 17.189805 15.496094 15.490234 C 17.193611 13.792464 18.666936 12.071973 19.849609 10.443359 z " fill="currentColor"/>
</svg>
