<svg xmlns="http://www.w3.org/2000/svg" width="1em" height="1em" viewBox="0 0 24 24" fill="currentColor">
  <path d="M 19.841797 2 C 19.29924 2.0033121 18.758245 2.134613 18.177734 2.3457031 C 17.134829 2.7249329 15.923891 3.4595223 14.646484 4.3359375 C 13.805441 4.0449342 12.937 3.8007813 12 3.8007812 C 7.4831098 3.8007812 3.8007813 7.4831098 3.8007812 12 C 3.8007812 12.937 4.0449342 13.805441 4.3359375 14.646484 C 3.4595223 15.923891 2.7249329 17.134829 2.3457031 18.177734 C 2.134613 18.758245 2.0033121 19.29924 2 19.841797 C 1.99669 20.384354 2.1501067 20.982127 2.5839844 21.416016 C 3.0178873 21.84987 3.6156567 22.003323 4.1582031 22 C 4.7007495 21.9967 5.2417556 21.865389 5.8222656 21.654297 C 6.8667292 21.274495 8.0797515 20.540534 9.359375 19.662109 C 10.199066 19.951783 11.06536 20.199219 12 20.199219 C 16.516925 20.199219 20.199219 16.516925 20.199219 12 C 20.199219 11.06536 19.951783 10.199066 19.662109 9.359375 C 20.540534 8.0797515 21.274495 6.8667292 21.654297 5.8222656 C 21.865389 5.2417556 21.996677 4.7007495 22 4.1582031 C 22.003323 3.6156567 21.84987 3.0178873 21.416016 2.5839844 C 20.982127 2.1501067 20.384354 1.9966879 19.841797 2 z M 19.853516 4 C 19.923514 3.9995717 19.966768 4.0039228 19.992188 4.0078125 C 19.996079 4.0332356 20.000429 4.0764891 20 4.1464844 C 19.9988 4.3442567 19.93373 4.6978569 19.773438 5.1386719 C 19.452849 6.0203019 18.773961 7.2413916 17.810547 8.59375 C 16.716902 10.129064 15.258518 11.846951 13.552734 13.552734 C 11.846951 15.258518 10.129064 16.716902 8.59375 17.810547 C 7.2413916 18.773961 6.0203019 19.452848 5.1386719 19.773438 C 4.6978569 19.933732 4.3442567 19.998789 4.1464844 20 C 4.0764823 20.000425 4.0332346 19.996077 4.0078125 19.992188 C 4.0039247 19.96676 3.999574 19.923467 4 19.853516 C 4.00121 19.655754 4.06627 19.302142 4.2265625 18.861328 C 4.4276733 18.308261 4.9918615 17.462131 5.4570312 16.693359 C 5.7171687 17.055493 5.8870501 17.484692 6.2011719 17.798828 A 1 1 0 0 0 7.6152344 17.798828 A 1 1 0 0 0 7.6152344 16.384766 C 6.4921132 15.261543 5.8007812 13.717976 5.8007812 12 C 5.8007812 8.5639902 8.5639902 5.8007814 12 5.8007812 C 13.717976 5.8007812 15.26159 6.4921101 16.384766 7.6152344 A 1 1 0 0 0 17.798828 7.6152344 A 1 1 0 0 0 17.798828 6.2011719 C 17.484692 5.8870501 17.055493 5.7171687 16.693359 5.4570312 C 17.462131 4.9918615 18.308261 4.4276733 18.861328 4.2265625 C 19.302142 4.0662702 19.655754 4.0012073 19.853516 4 z M 18.068359 11.353516 C 18.092619 11.576599 18.199219 11.769826 18.199219 12 C 18.199219 15.436075 15.436075 18.199219 12 18.199219 C 11.769826 18.199219 11.576599 18.092623 11.353516 18.068359 C 12.545497 17.113366 13.736359 16.201141 14.96875 14.96875 C 16.201141 13.736359 17.113366 12.545497 18.068359 11.353516 z " fill="currentColor"/>
</svg>
