<svg xmlns="http://www.w3.org/2000/svg" width="1em" height="1em" viewBox="0 0 24 24" fill="currentColor">
  <path d="M 10 2 A 1 1 0 0 0 9 3 L 9 12.898438 L 4.7421875 14.033203 A 1 1 0 0 0 4.0332031 15.257812 A 1 1 0 0 0 5.2578125 15.966797 L 8.9921875 14.970703 C 8.9839567 15.386548 8.9672206 15.730363 8.9355469 16.007812 C 8.8755209 16.533593 8.7833912 16.785335 8.6230469 17.007812 C 8.462715 17.230241 8.2532455 17.395942 7.7734375 17.619141 C 7.2936295 17.842339 6.5720565 18.087969 5.5820312 18.417969 L 3.6835938 19.050781 A 1 1 0 0 0 3.0507812 20.316406 A 1 1 0 0 0 4.3164062 20.949219 L 6.2128906 20.316406 C 7.2029154 19.986406 7.965398 19.736795 8.6171875 19.433594 C 9.268977 19.130392 9.8381921 18.738953 10.244141 18.175781 C 10.650066 17.612559 10.840333 16.94862 10.921875 16.234375 C 10.982436 15.703905 10.996961 15.1255 11 14.435547 L 13.021484 13.896484 C 13.037113 14.266845 13.063563 14.607869 13.111328 14.929688 C 13.229825 15.728267 13.543253 16.511425 14.201172 16.998047 C 14.859082 17.484745 15.693939 17.560395 16.501953 17.453125 C 17.309967 17.345855 18.203253 17.086761 19.373047 16.757812 L 20.271484 16.505859 A 1 1 0 0 0 20.962891 15.271484 A 1 1 0 0 0 19.728516 14.580078 L 18.832031 14.832031 C 17.662225 15.160983 16.799117 15.396248 16.238281 15.470703 C 15.677445 15.545163 15.528915 15.490972 15.390625 15.388672 C 15.252344 15.286393 15.168444 15.177637 15.087891 14.634766 C 15.041452 14.321804 15.02016 13.898771 15.009766 13.367188 L 20.257812 11.966797 A 1 1 0 0 0 20.966797 10.742188 A 1 1 0 0 0 19.742188 10.033203 L 15 11.296875 L 15 3 A 1 1 0 0 0 14 2 A 1 1 0 0 0 13 3 L 13 11.832031 L 11 12.365234 L 11 3 A 1 1 0 0 0 10 2 z M 20.017578 18.5 A 1 1 0 0 0 19.757812 18.529297 L 13.757812 20.029297 A 1 1 0 0 0 13.029297 21.242188 A 1 1 0 0 0 14.242188 21.970703 L 20.242188 20.470703 A 1 1 0 0 0 20.970703 19.257812 A 1 1 0 0 0 20.017578 18.5 z " fill="currentColor"/>
</svg>
