<svg xmlns="http://www.w3.org/2000/svg" width="1em" height="1em" viewBox="0 0 24 24" fill="currentColor">
  <path d="M 1.9804688 2 A 1 1 0 0 0 1.375 2.21875 A 1 1 0 0 0 1.21875 3.625 L 2.3359375 5.0234375 L 1.6699219 5.2558594 A 1 1 0 0 0 1.0566406 6.5292969 A 1 1 0 0 0 2.3300781 7.1445312 L 2.9824219 6.9160156 C 2.9906936 8.0704991 3.4884124 9.1851241 4.53125 9.8320312 C 6.755403 11.211792 9.3035104 12 12 12 C 14.69648 12 17.244576 11.211791 19.46875 9.8320312 C 20.511576 9.185114 21.009305 8.0704955 21.017578 6.9160156 L 21.669922 7.1445312 A 1 1 0 0 0 22.943359 6.5292969 A 1 1 0 0 0 22.330078 5.2558594 L 21.664062 5.0234375 L 22.78125 3.625 A 1 1 0 0 0 22.625 2.21875 A 1 1 0 0 0 21.888672 2.0058594 A 1 1 0 0 0 21.21875 2.375 L 19.886719 4.0390625 C 18.760665 2.9227937 17.004808 2.7299216 15.634766 3.4335938 C 14.510749 4.0109139 13.288905 4.3261719 12 4.3261719 C 10.711095 4.3261719 9.489272 4.0109156 8.3652344 3.4335938 C 7.9488647 3.219739 7.4962886 3.0885505 7.0371094 3.0410156 C 5.985397 2.932141 4.8969852 3.2619077 4.1132812 4.0390625 L 2.78125 2.375 A 1 1 0 0 0 1.9804688 2 z M 17.486328 4.9765625 C 17.990913 4.9910188 18.447794 5.2588039 18.751953 5.8300781 C 19.194682 6.6616665 18.951962 7.7983848 18.416016 8.1308594 C 16.481389 9.3309994 14.30832 10 12 10 C 9.6916696 10 7.5185914 9.330999 5.5839844 8.1308594 C 5.0479955 7.7983675 4.805293 6.6616584 5.2480469 5.8300781 C 5.491371 5.3730616 5.8318695 5.1115292 6.2167969 5.0175781 C 6.6017243 4.9236271 7.0307212 4.9969399 7.4511719 5.2128906 C 7.5999709 5.2893159 7.7500591 5.3625068 7.9023438 5.4316406 L 7.5371094 6.7285156 A 1 1 0 0 0 8.2285156 7.9628906 A 1 1 0 0 0 9.4628906 7.2714844 L 9.7988281 6.0761719 C 10.192019 6.1669291 10.593528 6.2335387 11 6.2753906 L 11 7.5 A 1 1 0 0 0 12 8.5 A 1 1 0 0 0 13 7.5 L 13 6.2753906 C 13.406472 6.233539 13.807981 6.1669283 14.201172 6.0761719 L 14.537109 7.2714844 A 1 1 0 0 0 15.771484 7.9628906 A 1 1 0 0 0 16.462891 6.7285156 L 16.097656 5.4316406 C 16.249941 5.3625062 16.40003 5.2893168 16.548828 5.2128906 C 16.864169 5.0509274 17.183577 4.9678887 17.486328 4.9765625 z M 2.0332031 12 A 1 1 0 0 0 1.4179688 12.185547 A 1 1 0 0 0 1.1855469 13.582031 L 2.2695312 15.097656 L 1.7480469 15.232422 A 1 1 0 0 0 1.03125 16.451172 A 1 1 0 0 0 2.2519531 17.167969 L 2.6054688 17.076172 C 2.6001587 18.236342 3.080121 19.373102 4.1777344 19.978516 C 6.516739 21.268596 9.1820583 22 12 22 C 14.817858 22 17.483311 21.268607 19.822266 19.978516 C 20.919905 19.373103 21.399855 18.236355 21.394531 17.076172 L 21.748047 17.167969 A 1 1 0 0 0 22.96875 16.451172 A 1 1 0 0 0 22.251953 15.232422 L 21.720703 15.09375 L 22.810547 13.585938 A 1 1 0 0 0 22.585938 12.189453 A 1 1 0 0 0 21.841797 12.011719 A 1 1 0 0 0 21.189453 12.414062 L 19.951172 14.126953 C 18.791113 13.297274 17.203779 13.223744 15.910156 13.814453 C 15.522168 13.9917 15.121755 14.143682 14.710938 14.267578 C 13.848985 14.527601 12.941282 14.667969 12 14.667969 C 11.058608 14.667969 10.15098 14.527599 9.2890625 14.267578 C 8.8782611 14.143679 8.4778263 13.991698 8.0898438 13.814453 C 6.792952 13.222283 5.2018151 13.299201 4.0410156 14.134766 L 2.8144531 12.417969 A 1 1 0 0 0 2.0332031 12 z M 6.1953125 15.414062 C 6.5423814 15.400851 6.9084336 15.475582 7.2578125 15.634766 C 7.4161521 15.707096 7.5862072 15.755085 7.7480469 15.820312 L 7.5507812 16.417969 A 1 1 0 0 0 8.1855469 17.681641 A 1 1 0 0 0 9.4492188 17.046875 L 9.6875 16.328125 C 10.117831 16.418485 10.554769 16.481325 11 16.521484 L 11 17.265625 A 1 1 0 0 0 12 18.265625 A 1 1 0 0 0 13 17.265625 L 13 16.521484 C 13.445215 16.481324 13.882166 16.41848 14.3125 16.328125 L 14.550781 17.048828 A 1 1 0 0 0 15.814453 17.681641 A 1 1 0 0 0 16.449219 16.417969 L 16.251953 15.820312 C 16.413229 15.755313 16.582436 15.706824 16.740234 15.634766 C 17.672926 15.208869 18.724266 15.396899 19.212891 16.212891 C 19.657464 16.955273 19.46985 17.887696 18.855469 18.226562 C 16.798224 19.361272 14.472742 20 12 20 C 9.5271617 20 7.2018666 19.361285 5.1445312 18.226562 C 4.5301785 17.887702 4.3425533 16.955266 4.7871094 16.212891 C 5.0314352 15.804883 5.4151103 15.552844 5.8554688 15.457031 C 5.9654077 15.433111 6.0796229 15.418466 6.1953125 15.414062 z " fill="currentColor"/>
</svg>
