<svg xmlns="http://www.w3.org/2000/svg" width="1em" height="1em" viewBox="0 0 24 24" fill="currentColor">
  <path d="M 14 1 C 9.593562 1 6 4.593562 6 9 C 6 10.223681 6.2756172 11.389922 6.7695312 12.429688 A 1 1 0 0 0 8.1035156 12.902344 A 1 1 0 0 0 8.5761719 11.570312 C 8.2062059 10.791476 8 9.9235193 8 9 C 8 5.674438 10.674438 3 14 3 C 17.32556 3 20 5.6744494 20 9 C 20 10.279293 19.603956 11.455532 18.925781 12.427734 A 1 1 0 0 0 19.173828 13.820312 A 1 1 0 0 0 20.566406 13.572266 C 21.470032 12.276868 22 10.695107 22 9 C 22 4.5935706 18.40644 1 14 1 z M 14.019531 4.0039062 C 13.806558 4.0114132 13.588542 4.0404663 13.367188 4.0917969 C 11.54113 4.5152742 10.64321 6.413238 11.236328 8 L 11 8 A 1 1 0 0 0 10 9 A 1 1 0 0 0 11 10 L 11.746094 10 C 11.721774 10.260944 11.727164 10.497784 11.486328 10.908203 C 11.405498 11.045964 11.336078 11.155197 11.257812 11.333984 C 11.179543 11.512772 11.026618 11.918512 11.263672 12.375 C 11.486956 12.805048 11.955504 12.952175 12.158203 12.980469 C 12.360861 13.008762 12.480347 13 12.623047 13 L 16 13 A 1 1 0 0 0 17 12 A 1 1 0 0 0 16 11 L 13.445312 11 C 13.559155 10.661219 13.680443 10.326469 13.701172 10 L 15 10 A 1 1 0 0 0 16 9 A 1 1 0 0 0 15 8 L 13.296875 8 C 13.208194 7.8273008 13.188518 7.6032584 13.089844 7.4433594 C 12.882397 7.1071799 13.124399 6.1999976 13.818359 6.0390625 C 14.634923 5.8497071 14.978287 6.3504213 15.017578 6.5585938 A 1 1 0 0 0 16.185547 7.3554688 A 1 1 0 0 0 16.982422 6.1875 C 16.743452 4.9213859 15.510341 3.9513576 14.019531 4.0039062 z M 3 13 A 1 1 0 0 0 2 14 A 1 1 0 0 0 3 15 L 5.3945312 15 C 5.5384179 15 5.6804595 15.0327 5.8066406 15.09375 L 7.8476562 16.082031 C 8.24784 16.275666 8.6866725 16.375 9.1308594 16.375 L 10.173828 16.375 C 10.320753 16.375 10.308878 16.551176 10.423828 16.607422 L 9.1269531 16.964844 C 8.9053499 17.026104 8.6644163 17.00472 8.4609375 16.90625 L 6.2773438 15.849609 A 1 1 0 0 0 4.9414062 16.314453 A 1 1 0 0 0 5.40625 17.650391 L 7.5898438 18.707031 C 8.234365 19.018955 8.9701594 19.083319 9.6601562 18.892578 L 12.199219 18.191406 C 12.599618 18.081092 12.834574 17.687246 12.904297 17.267578 L 16.886719 16.044922 A 1.0001 1.0001 0 0 0 16.890625 16.042969 C 17.295086 15.916941 17.71709 16.054869 17.986328 16.427734 C 18.01255 16.464044 17.996722 16.511391 17.980469 16.525391 L 17.978516 16.527344 L 10.462891 20.865234 C 10.218808 21.006067 9.9433343 21.037209 9.6796875 20.958984 L 3.2851562 19.060547 A 1 1 0 0 0 2.0410156 19.736328 A 1 1 0 0 0 2.7148438 20.978516 L 9.1113281 22.876953 C 9.8992414 23.110729 10.750974 23.00647 11.462891 22.595703 L 18.978516 18.259766 C 20.034909 17.650157 20.315519 16.240215 19.607422 15.257812 C 18.85666 14.218079 17.518861 13.753393 16.294922 14.134766 L 12.246094 15.378906 C 11.723113 14.788266 11.015936 14.375 10.173828 14.375 L 9.1308594 14.375 C 8.9867462 14.375 8.8447463 14.34221 8.71875 14.28125 L 6.6777344 13.292969 C 6.2777355 13.099423 5.8389448 13 5.3945312 13 L 3 13 z " fill="currentColor"/>
</svg>
