<svg xmlns="http://www.w3.org/2000/svg" width="1em" height="1em" viewBox="0 0 24 24" fill="currentColor">
  <path d="M 6.5 1.5 C 6.03563 1.5 5.7790449 1.4954589 5.4960938 1.5273438 C 3.4153226 1.7617892 1.7617892 3.4153226 1.5273438 5.4960938 C 1.4954589 5.7790449 1.5 6.03563 1.5 6.5 A 1 1 0 0 0 2.5 7.5 A 1 1 0 0 0 3.5 6.5 C 3.5 6.03563 3.5034899 5.8283919 3.515625 5.7207031 C 3.6468397 4.5561343 4.5561343 3.6468397 5.7207031 3.515625 C 5.8283919 3.5034899 6.03563 3.5 6.5 3.5 A 1 1 0 0 0 7.5 2.5 A 1 1 0 0 0 6.5 1.5 z M 17.5 1.5 A 1 1 0 0 0 16.5 2.5 A 1 1 0 0 0 17.5 3.5 C 17.9644 3.5 18.171649 3.50349 18.279297 3.515625 C 19.443783 3.646836 20.353187 4.556183 20.484375 5.7207031 C 20.496509 5.8284302 20.5 6.03563 20.5 6.5 A 1 1 0 0 0 21.5 7.5 A 1 1 0 0 0 22.5 6.5 C 22.5 6.03563 22.504496 5.7790066 22.472656 5.4960938 C 22.23824 3.4152739 20.58462 1.7617928 18.503906 1.5273438 C 18.220954 1.4954554 17.9644 1.5 17.5 1.5 z M 12 5 C 10.585785 5 9.5044453 4.9940748 8.5742188 5.1191406 C 7.643992 5.2442065 6.800893 5.542857 6.171875 6.171875 C 5.542857 6.800893 5.2442065 7.643992 5.1191406 8.5742188 C 4.9940748 9.5044453 5 10.585785 5 12 C 5 13.4142 4.99407 14.495558 5.1191406 15.425781 C 5.2442065 16.356004 5.5428648 17.199101 6.171875 17.828125 C 6.8008908 18.457155 7.6439896 18.75579 8.5742188 18.880859 C 9.5044477 19.005928 10.585785 19 12 19 C 13.4142 19 14.495556 19.0059 15.425781 18.880859 C 16.356006 18.75579 17.199103 18.457147 17.828125 17.828125 C 18.457147 17.199103 18.75579 16.356006 18.880859 15.425781 C 19.005928 14.495556 19 13.4142 19 12 C 19 10.585785 19.005928 9.5044477 18.880859 8.5742188 C 18.75579 7.6439896 18.457155 6.8008908 17.828125 6.171875 C 17.199101 5.5428648 16.356004 5.2442065 15.425781 5.1191406 C 14.495558 4.9940747 13.4142 5 12 5 z M 12 7 C 13.4142 7 14.454551 7.00696 15.158203 7.1015625 C 15.861855 7.1961665 16.164388 7.3362677 16.414062 7.5859375 C 16.663732 7.8356017 16.803832 8.1381434 16.898438 8.8417969 C 16.993043 9.5454503 17 10.585785 17 12 C 17 12.051001 17.000022 12.102314 17 12.152344 L 16.404297 11.419922 C 15.922265 10.827967 15.211148 10.53125 14.5 10.53125 C 13.788852 10.53125 13.077735 10.827967 12.595703 11.419922 L 11.1875 13.148438 C 11.018476 13.356017 10.875244 13.361055 10.699219 13.171875 C 9.7980974 12.203561 8.2019025 12.203561 7.3007812 13.171875 L 7.0078125 13.486328 C 7.000908 13.046286 7 12.55158 7 12 C 7 10.585785 7.0069583 9.5454528 7.1015625 8.8417969 C 7.1961667 8.138141 7.3362755 7.8355995 7.5859375 7.5859375 C 7.8355995 7.3362755 8.138141 7.1961667 8.8417969 7.1015625 C 9.5454528 7.0069583 10.585785 7 12 7 z M 10.25 8.5 C 9.5715669 8.5 9 9.0716244 9 9.75 C 9 10.428376 9.5715669 11 10.25 11 C 10.928433 11 11.5 10.428376 11.5 9.75 C 11.5 9.0716244 10.928433 8.5 10.25 8.5 z M 14.5 12.46875 C 14.618924 12.46875 14.737848 12.539596 14.853516 12.681641 L 16.894531 15.1875 C 16.799979 15.869782 16.660159 16.167967 16.414062 16.414062 C 16.164386 16.66374 15.861853 16.803832 15.158203 16.898438 C 14.454553 16.993043 13.4142 17 12 17 C 10.585785 17 9.5454503 16.993043 8.8417969 16.898438 C 8.1381434 16.803832 7.8356017 16.663732 7.5859375 16.414062 C 7.4868121 16.314935 7.4045302 16.207899 7.3359375 16.070312 L 8.765625 14.533203 C 8.9322838 14.354117 9.0677162 14.354117 9.234375 14.533203 C 10.17675 15.546021 11.865705 15.48373 12.738281 14.412109 L 14.146484 12.681641 C 14.262152 12.539596 14.381076 12.46875 14.5 12.46875 z M 2.5 16.5 A 1 1 0 0 0 1.5 17.5 C 1.5 17.9644 1.4954598 18.220954 1.5273438 18.503906 C 1.7617927 20.58462 3.4152739 22.238244 5.4960938 22.472656 C 5.7790063 22.504522 6.03563 22.5 6.5 22.5 A 1 1 0 0 0 7.5 21.5 A 1 1 0 0 0 6.5 20.5 C 6.03563 20.5 5.8284302 20.496505 5.7207031 20.484375 C 4.556183 20.353192 3.646836 19.443783 3.515625 18.279297 C 3.5034933 18.171649 3.5 17.9644 3.5 17.5 A 1 1 0 0 0 2.5 16.5 z M 21.5 16.5 A 1 1 0 0 0 20.5 17.5 C 20.5 17.9644 20.496505 18.171611 20.484375 18.279297 C 20.353191 19.443735 19.443735 20.353191 18.279297 20.484375 C 18.171616 20.496505 17.9644 20.5 17.5 20.5 A 1 1 0 0 0 16.5 21.5 A 1 1 0 0 0 17.5 22.5 C 17.9644 22.5 18.220992 22.504496 18.503906 22.472656 C 20.584669 22.23824 22.23824 20.584669 22.472656 18.503906 C 22.504526 18.220988 22.5 17.9644 22.5 17.5 A 1 1 0 0 0 21.5 16.5 z " fill="currentColor"/>
</svg>
