<svg xmlns="http://www.w3.org/2000/svg" width="1em" height="1em" viewBox="0 0 24 24" fill="currentColor">
  <path d="M 7.9394531 1.5019531 C 5.8635026 1.6201438 4.2801251 1.9815809 3.1308594 3.1308594 C 1.9815583 4.2801604 1.6201331 5.863414 1.5019531 7.9394531 A 1 1 0 0 0 2.4433594 8.9941406 A 1 1 0 0 0 3.4980469 8.0527344 C 3.6068069 6.1421735 3.8855829 5.2042608 4.5449219 4.5449219 C 5.2042362 3.8856003 6.1422649 3.6068162 8.0527344 3.4980469 A 1 1 0 0 0 8.9941406 2.4433594 A 1 1 0 0 0 7.9394531 1.5019531 z M 16.060547 1.5019531 A 1 1 0 0 0 15.005859 2.4433594 A 1 1 0 0 0 15.947266 3.4980469 C 17.857725 3.6068161 18.795752 3.8855953 19.455078 4.5449219 C 20.114394 5.2042521 20.393163 6.142157 20.501953 8.0527344 A 1 1 0 0 0 21.556641 8.9941406 A 1 1 0 0 0 22.498047 7.9394531 C 22.379837 5.8634305 22.018425 4.2801691 20.869141 3.1308594 C 19.719867 1.9815859 18.136488 1.6201439 16.060547 1.5019531 z M 5 11 A 1 1 0 0 0 4 12 A 1 1 0 0 0 5 13 L 19 13 A 1 1 0 0 0 20 12 A 1 1 0 0 0 19 11 L 5 11 z M 2.4433594 15.005859 A 1 1 0 0 0 1.5019531 16.060547 C 1.6201331 18.136585 1.9815353 19.719842 3.1308594 20.869141 C 4.2801665 22.018422 5.86344 22.379837 7.9394531 22.498047 A 1 1 0 0 0 8.9941406 21.556641 A 1 1 0 0 0 8.0527344 20.501953 C 6.1421675 20.393163 5.2042547 20.114396 4.5449219 19.455078 C 3.8856059 18.795777 3.6068069 17.857827 3.4980469 15.947266 A 1 1 0 0 0 2.4433594 15.005859 z M 21.556641 15.005859 A 1 1 0 0 0 20.501953 15.947266 C 20.393163 17.857844 20.114371 18.795785 19.455078 19.455078 C 18.795785 20.114371 17.857844 20.393163 15.947266 20.501953 A 1 1 0 0 0 15.005859 21.556641 A 1 1 0 0 0 16.060547 22.498047 C 18.136569 22.379837 19.719833 22.018448 20.869141 20.869141 C 22.018448 19.719833 22.379837 18.136569 22.498047 16.060547 A 1 1 0 0 0 21.556641 15.005859 z " fill="currentColor"/>
</svg>
