<svg xmlns="http://www.w3.org/2000/svg" width="1em" height="1em" viewBox="0 0 24 24" fill="currentColor">
  <path d="M 12 1 C 10.11438 1 8.6810556 0.99457301 7.4785156 1.15625 C 6.2759756 1.317927 5.2403111 1.689383 4.4648438 2.4648438 C 3.689383 3.240311 3.317927 4.2759756 3.15625 5.4785156 C 3.0098298 6.5675772 3.0004638 7.8463541 3 9.4785156 L 3 8 A 1 1 0 0 0 2 7 A 1 1 0 0 0 1 8 L 1 10 A 1 1 0 0 0 2 11 A 1 1 0 0 0 3 10 L 3 13 C 3 14.4142 2.99407 15.495558 3.1191406 16.425781 C 3.2442065 17.356004 3.5428648 18.199101 4.171875 18.828125 C 4.5473142 19.203573 4.9990208 19.461378 5.5 19.634766 L 5.5 22 A 1 1 0 0 0 6.5 23 A 1 1 0 0 0 7.5 22 L 7.5 19.964844 C 8.215728 20.003514 9.0294788 20 10 20 L 14 20 C 14.970512 20 15.784268 20.003513 16.5 19.964844 L 16.5 22 A 1 1 0 0 0 17.5 23 A 1 1 0 0 0 18.5 22 L 18.5 19.634766 C 19.000977 19.461376 19.452683 19.203567 19.828125 18.828125 C 20.457147 18.199103 20.75579 17.356006 20.880859 16.425781 C 21.005928 15.495556 21 14.4142 21 13 L 21 10 A 1 1 0 0 0 22 11 A 1 1 0 0 0 23 10 L 23 8 A 1 1 0 0 0 22 7 A 1 1 0 0 0 21 8 L 21 9.4785156 C 20.999535 7.8465579 20.990162 6.567485 20.84375 5.4785156 C 20.682068 4.2759729 20.310634 3.2403086 19.535156 2.4648438 C 18.759713 1.6893545 17.724031 1.3179268 16.521484 1.15625 C 15.318937 0.99457318 13.8856 1 12 1 z M 12 3 C 13.8856 3 15.279881 3.0054999 16.255859 3.1367188 C 17.231837 3.2679343 17.725037 3.4828254 18.121094 3.8789062 C 18.160379 3.918191 18.19856 3.9584301 18.234375 4 L 12 4 L 5.765625 4 C 5.8014391 3.9584301 5.8396219 3.9181909 5.8789062 3.8789062 C 6.2750189 3.482797 6.7681706 3.2679342 7.7441406 3.1367188 C 8.7201106 3.0055032 10.11438 3 12 3 z M 5.1054688 6 L 11 6 L 11 12 L 5 12 L 5 10 C 5 8.2733827 5.0039485 6.9587447 5.1054688 6 z M 13 6 L 18.894531 6 C 18.996054 6.9587429 19 8.2733831 19 10 L 19 12 L 13 12 L 13 6 z M 5.0019531 14 L 12 14 L 18.998047 14 C 18.991568 14.91793 18.969132 15.632158 18.898438 16.158203 C 18.803828 16.861853 18.66374 17.164385 18.414062 17.414062 C 18.164386 17.66374 17.861853 17.803832 17.158203 17.898438 C 16.454553 17.993043 15.4142 18 14 18 L 10 18 C 8.585785 18 7.5454503 17.993043 6.8417969 17.898438 C 6.1381434 17.803832 5.8356017 17.663732 5.5859375 17.414062 C 5.3362677 17.164388 5.1961666 16.861855 5.1015625 16.158203 C 5.030837 15.632157 5.0084222 14.91793 5.0019531 14 z M 7 15 A 1 1 0 0 0 6 16 A 1 1 0 0 0 7 17 L 8 17 A 1 1 0 0 0 9 16 A 1 1 0 0 0 8 15 L 7 15 z M 16 15 A 1 1 0 0 0 15 16 A 1 1 0 0 0 16 17 L 17 17 A 1 1 0 0 0 18 16 A 1 1 0 0 0 17 15 L 16 15 z " fill="currentColor"/>
</svg>
