<svg xmlns="http://www.w3.org/2000/svg" width="1em" height="1em" viewBox="0 0 24 24" fill="currentColor">
  <path d="M 12 1.5 C 10.651938 1.5 9.6683931 2.2660877 8.0234375 3.4296875 L 3.421875 6.6835938 A 1 1 0 0 0 3.1835938 8.078125 A 1 1 0 0 0 4.578125 8.3164062 L 5 8.0175781 L 5 10.882812 L 3.7636719 11.5 C 2.6878186 12.037912 1.9409955 12.359343 1.4472656 13.158203 C 0.9535178 13.957093 1 14.769856 1 15.972656 L 1 17.5 C 1 18.4428 0.99357625 19.170214 1.0820312 19.828125 C 1.1704862 20.486036 1.3963405 21.13852 1.8789062 21.621094 C 2.3614739 22.103678 3.0139596 22.329512 3.671875 22.417969 C 4.3297906 22.506425 5.05719 22.5 6 22.5 L 10 22.5 L 14 22.5 L 18 22.5 C 18.9428 22.5 19.670212 22.506399 20.328125 22.417969 C 20.986038 22.329509 21.638521 22.103666 22.121094 21.621094 C 22.603666 21.138521 22.829512 20.486038 22.917969 19.828125 C 23.006425 19.170211 23 18.4428 23 17.5 L 23 15.972656 C 23 14.769856 23.04648 13.957093 22.552734 13.158203 C 22.05901 12.359351 21.31215 12.037911 20.236328 11.5 L 19 10.882812 L 19 8.0175781 L 19.421875 8.3164062 A 1 1 0 0 0 20.816406 8.078125 A 1 1 0 0 0 20.578125 6.6835938 L 15.976562 3.4296875 C 14.331578 2.2660893 13.348062 1.5 12 1.5 z M 12 3.5 C 12.515538 3.5 13.177249 3.8988782 14.822266 5.0625 L 17 6.6035156 L 17 20.5 L 15 20.5 L 15 17.5 C 15 15.854993 13.645007 14.5 12 14.5 C 10.354993 14.5 9 15.854993 9 17.5 L 9 20.5 L 7 20.5 L 7 6.6035156 L 9.1777344 5.0625 C 10.822719 3.8988798 11.484462 3.5 12 3.5 z M 12 6.5 C 10.354975 6.5 9 7.8550085 9 9.5 C 9 11.145007 10.354993 12.5 12 12.5 C 13.645007 12.5 15 11.145007 15 9.5 C 15 7.8550085 13.645025 6.5 12 6.5 z M 12 8.5 C 12.564175 8.5 13 8.9358515 13 9.5 C 13 10.064193 12.564193 10.5 12 10.5 C 11.435807 10.5 11 10.064193 11 9.5 C 11 8.9358515 11.435825 8.5 12 8.5 z M 5 13.117188 L 5 20.46875 C 4.6424821 20.46005 4.1614603 20.465347 3.9394531 20.435547 C 3.5081136 20.37755 3.3961812 20.310247 3.2929688 20.207031 C 3.1897445 20.103805 3.1224458 19.991886 3.0644531 19.560547 C 3.0064604 19.129208 3 18.4428 3 17.5 L 3 15.972656 C 3 14.769856 3.044785 14.378647 3.1484375 14.210938 C 3.2521077 14.043197 3.5823964 13.826951 4.6582031 13.289062 L 5 13.117188 z M 19 13.117188 L 19.341797 13.289062 C 20.417575 13.826951 20.747887 14.04319 20.851562 14.210938 C 20.955215 14.378647 21 14.769856 21 15.972656 L 21 17.5 C 21 18.4428 20.993497 19.12921 20.935547 19.560547 C 20.877557 19.991884 20.810259 20.103804 20.707031 20.207031 C 20.603804 20.310259 20.491884 20.377553 20.060547 20.435547 C 19.838541 20.465397 19.357514 20.4601 19 20.46875 L 19 13.117188 z M 12 16.5 C 12.564193 16.5 13 16.935807 13 17.5 L 13 20.5 L 11 20.5 L 11 17.5 C 11 16.935807 11.435807 16.5 12 16.5 z " fill="currentColor"/>
</svg>
