<svg xmlns="http://www.w3.org/2000/svg" width="1em" height="1em" viewBox="0 0 24 24" fill="currentColor">
  <path d="M 18 2 C 15.802673 2 14 3.8027269 14 6 C 14 6.4712965 14.0824 6.9246061 14.234375 7.3457031 L 2.3242188 18.263672 A 1 1 0 0 0 2.2636719 19.675781 A 1 1 0 0 0 3.6757812 19.736328 L 10.796875 13.210938 L 14.236328 16.650391 C 14.083427 17.072625 14 17.527196 14 18 C 14 20.197307 15.802693 22 18 22 C 20.197307 22 22 20.197307 22 18 C 22 15.802693 20.197307 14 18 14 C 17.005952 14 16.09278 14.369053 15.390625 14.976562 L 12.271484 11.857422 L 15.376953 9.0117188 C 16.080997 9.6266753 16.999136 10 18 10 C 20.197327 10 22 8.1972731 22 6 C 22 3.8027269 20.197327 2 18 2 z M 18 4 C 19.116473 4 20 4.8835731 20 6 C 20 7.1164269 19.116473 8 18 8 C 16.883527 8 16 7.1164269 16 6 C 16 4.8835731 16.883527 4 18 4 z M 2.953125 4.0019531 A 1 1 0 0 0 2.2597656 4.328125 A 1 1 0 0 0 2.328125 5.7402344 L 7.828125 10.740234 A 1 1 0 0 0 9.2402344 10.671875 A 1 1 0 0 0 9.171875 9.2597656 L 3.671875 4.2597656 A 1 1 0 0 0 2.953125 4.0019531 z M 18 16 C 19.116493 16 20 16.883507 20 18 C 20 19.116493 19.116493 20 18 20 C 16.883507 20 16 19.116493 16 18 C 16 16.883507 16.883507 16 18 16 z " fill="currentColor"/>
</svg>
