<svg xmlns="http://www.w3.org/2000/svg" width="1em" height="1em" viewBox="0 0 24 24" fill="currentColor">
  <path d="M 9 3 C 7.350085 3 6.091775 2.9933466 5.0253906 3.1367188 C 3.9590062 3.2800908 3.0205986 3.6161133 2.3183594 4.3183594 C 1.6161133 5.0205986 1.2800909 5.9590062 1.1367188 7.0253906 C 0.99334664 8.091775 1 9.350085 1 11 L 1 13 C 1 14.6499 0.99334705 15.908225 1.1367188 16.974609 C 1.2800908 18.040994 1.6161378 18.979371 2.3183594 19.681641 C 3.0206014 20.383869 3.9590094 20.719914 5.0253906 20.863281 C 6.0917719 21.006649 7.350085 21 9 21 L 15 21 C 16.6499 21 17.908228 21.0066 18.974609 20.863281 C 20.04099 20.719914 20.979368 20.383844 21.681641 19.681641 C 22.383844 18.979368 22.719914 18.04099 22.863281 16.974609 C 23.006649 15.908228 23 14.6499 23 13 L 23 11 C 23 9.350085 23.006649 8.0917719 22.863281 7.0253906 C 22.719914 5.9590094 22.383869 5.0206014 21.681641 4.3183594 C 20.979371 3.6161378 20.040994 3.2800906 18.974609 3.1367188 C 17.908225 2.9933467 16.6499 3 15 3 L 9 3 z M 9 5 L 15 5 C 16.6499 5 17.867215 5.00623 18.707031 5.1191406 C 19.546847 5.2320512 19.944648 5.4095135 20.267578 5.7324219 C 20.550378 6.0152273 20.72191 6.3555519 20.835938 7 L 11.5 7 A 1.0001 1.0001 0 0 0 10.667969 8.5546875 L 11.667969 10.054688 A 1.0001 1.0001 0 0 0 12.5 10.5 L 21 10.5 C 21.000247 10.662044 21 10.82869 21 11 L 21 13 C 21 14.6499 20.9938 15.867212 20.880859 16.707031 C 20.767952 17.54685 20.590474 17.94465 20.267578 18.267578 C 19.94465 18.590474 19.54685 18.767952 18.707031 18.880859 C 17.867212 18.993767 16.6499 19 15 19 L 9 19 C 7.350085 19 6.132785 18.993767 5.2929688 18.880859 C 4.4531525 18.767952 4.0552999 18.59045 3.7324219 18.267578 C 3.4095135 17.944648 3.2320512 17.546847 3.1191406 16.707031 C 3.0062301 15.867215 3 14.6499 3 13 L 3 11 C 3 9.350085 3.0062303 8.1327819 3.1191406 7.2929688 C 3.232051 6.4531556 3.409538 6.0553026 3.7324219 5.7324219 C 4.0553026 5.409538 4.4531556 5.232051 5.2929688 5.1191406 C 6.132782 5.0062303 7.350085 5 9 5 z M 7.5 8 C 5.5788373 8 4 9.5788592 4 11.5 C 4 13.421141 5.5788373 15 7.5 15 C 9.4211627 15 11 13.421141 11 11.5 C 11 9.5788592 9.4211627 8 7.5 8 z M 7.5 10 C 8.3402773 10 9 10.659741 9 11.5 C 9 12.340259 8.3402773 13 7.5 13 C 6.6597227 13 6 12.340259 6 11.5 C 6 10.659741 6.6597227 10 7.5 10 z " fill="currentColor"/>
</svg>
