<svg xmlns="http://www.w3.org/2000/svg" width="1em" height="1em" viewBox="0 0 24 24" fill="currentColor">
  <path d="M 12 1 C 11.157604 1 10.569973 1.3525803 9.3710938 1.8847656 C 8.5270776 2.2594338 7.4693882 2.6703517 6.2753906 3.0097656 C 4.4479915 3.5292254 3.3527102 3.6923697 2.6054688 4.6816406 C 2.255307 5.14521 2.1166412 5.6972354 2.0566406 6.2636719 C 1.9966401 6.8301083 2 7.46125 2 8.28125 L 2 11.183594 C 2 14.296199 3.4156073 16.799579 5.1132812 18.638672 C 6.8109554 20.477765 8.7972978 21.702548 10.126953 22.404297 C 10.734033 22.724686 11.289017 23 12 23 C 12.710983 23 13.265967 22.724686 13.873047 22.404297 C 15.202683 21.70255 17.189041 20.477764 18.886719 18.638672 C 20.584396 16.79958 22 14.296201 22 11.183594 L 22 8.28125 C 22 7.46125 22.003399 6.8301062 21.943359 6.2636719 C 21.883359 5.6972376 21.744685 5.1452104 21.394531 4.6816406 C 20.647301 3.6923608 19.552009 3.5292256 17.724609 3.0097656 C 16.530624 2.6703619 15.472888 2.2594273 14.628906 1.8847656 C 13.430017 1.3525808 12.842396 1 12 1 z M 12 3 C 12.0056 3 12.617495 3.1806955 13.816406 3.7128906 C 14.731024 4.118909 15.87472 4.5631975 17.177734 4.9335938 C 19.005134 5.4530538 19.737858 5.8079517 19.798828 5.8886719 C 19.852778 5.9600919 19.914052 6.0872912 19.955078 6.4746094 C 19.996104 6.8619276 20 7.46125 20 8.28125 L 20 11.183594 C 20 13.696187 18.884491 15.692567 17.417969 17.28125 C 15.951446 18.869933 14.141017 20.000612 12.939453 20.634766 C 12.332333 20.955176 12.279817 21 12 21 C 11.720183 21 11.667667 20.955176 11.060547 20.634766 C 9.8589722 20.000614 8.0485497 18.869932 6.5820312 17.28125 C 5.1155129 15.692568 4 13.696188 4 11.183594 L 4 8.28125 C 4 7.46125 4.0038899 6.8619254 4.0449219 6.4746094 C 4.0859487 6.0872933 4.1472236 5.9600925 4.2011719 5.8886719 C 4.2621503 5.8079428 4.9948647 5.453054 6.8222656 4.9335938 C 8.1252881 4.5631877 9.2689695 4.1189024 10.183594 3.7128906 C 11.382494 3.1806959 11.994396 3 12 3 z M 12 5.5 C 8.6981382 5.5 6 8.1981382 6 11.5 C 6 14.801846 8.6981334 17.5 12 17.5 C 15.30185 17.5 18 14.80185 18 11.5 C 18 8.1981334 15.301846 5.5 12 5.5 z M 12 7.5 C 14.220954 7.5 16 9.2790266 16 11.5 C 16 13.72095 14.22095 15.5 12 15.5 C 9.7790266 15.5 8 13.720954 8 11.5 C 8 9.2790218 9.7790218 7.5 12 7.5 z M 14.052734 9 A 1 1 0 0 0 13.666016 9.0566406 C 12.576959 9.4423387 11.822191 10.304783 11.203125 11.046875 C 11.051929 11.228117 11.072188 11.228217 10.947266 11.392578 C 10.919116 11.371758 10.895348 11.311739 10.867188 11.292969 C 10.688099 11.173576 10.512773 11.097957 10.361328 11.054688 C 10.209885 11.011419 10 11 10 11 A 1 1 0 0 0 9 12 A 1 1 0 0 0 9.7832031 12.976562 C 9.8340616 13.01991 9.9535075 13.143344 10.105469 13.447266 A 1.0001 1.0001 0 0 0 11.84375 13.537109 C 11.84375 13.537109 12.210298 12.961033 12.738281 12.328125 C 13.266265 11.695217 14.011241 11.057661 14.333984 10.943359 A 1 1 0 0 0 14.943359 9.6660156 A 1 1 0 0 0 14.052734 9 z " fill="currentColor"/>
</svg>
