<svg xmlns="http://www.w3.org/2000/svg" width="1em" height="1em" viewBox="0 0 24 24" fill="currentColor">
  <path d="M 12 1 C 9.3514678 1 6.8893069 1.5828292 4.8457031 2.5996094 C 3.9177231 3.0613294 3.1613975 3.4797157 2.5996094 4.3867188 C 1.997851 5.3582453 2 6.3423869 2 7.7480469 L 2 11.236328 C 2 14.344439 3.2636533 16.81323 4.8476562 18.619141 C 6.4316594 20.425051 8.3262031 21.607844 9.7148438 22.322266 C 10.448559 22.699774 11.100341 23 12 23 C 12.899659 23 13.551524 22.699782 14.285156 22.322266 C 15.673829 21.607844 17.568322 20.425052 19.152344 18.619141 C 20.736366 16.81323 22 14.344441 22 11.236328 L 22 7.7480469 C 22 6.3423969 22.0021 5.3582515 21.400391 4.3867188 C 20.838589 3.479701 20.082292 3.0613268 19.154297 2.5996094 C 17.110726 1.5828239 14.648532 1 12 1 z M 12 3 C 14.353268 3 16.522643 3.5243705 18.263672 4.390625 C 19.191677 4.8523476 19.363774 4.8947309 19.701172 5.4394531 C 19.998618 5.9196805 20 6.3423969 20 7.7480469 L 20 11.236328 C 20 13.811615 18.993291 15.765589 17.648438 17.298828 C 16.303586 18.832067 14.611168 19.905944 13.369141 20.544922 C 12.635573 20.922405 12.553341 21 12 21 C 11.446659 21 11.364544 20.922414 10.630859 20.544922 C 9.3888604 19.905944 7.6963994 18.832067 6.3515625 17.298828 C 5.0067256 15.765589 4 13.811617 4 11.236328 L 4 7.7480469 C 4 6.3423869 4.0013865 5.9196666 4.2988281 5.4394531 C 4.63622 4.8947362 4.8083481 4.852345 5.7363281 4.390625 C 7.4774043 3.5243652 9.6467322 3 12 3 z M 8 9.75 C 7.3216244 9.75 6.75 10.321567 6.75 11 C 6.75 11.678433 7.3216244 12.25 8 12.25 C 8.6783756 12.25 9.25 11.678433 9.25 11 C 9.25 10.321567 8.6783756 9.75 8 9.75 z M 12 9.75 C 11.321712 9.75 10.75 10.321712 10.75 11 C 10.75 11.678288 11.321712 12.25 12 12.25 C 12.678288 12.25 13.25 11.678288 13.25 11 C 13.25 10.321712 12.678288 9.75 12 9.75 z M 16 9.75 C 15.321712 9.75 14.75 10.321712 14.75 11 C 14.75 11.678288 15.321712 12.25 16 12.25 C 16.678288 12.25 17.25 11.678288 17.25 11 C 17.25 10.321712 16.678288 9.75 16 9.75 z " fill="currentColor"/>
</svg>
