<svg xmlns="http://www.w3.org/2000/svg" width="1em" height="1em" viewBox="0 0 24 24" fill="currentColor">
  <path d="M 18.791016 4.0019531 A 1 1 0 0 0 18.53125 4.0253906 L 17.109375 4.3417969 L 17.09375 4.3457031 L 15.685547 4.6601562 A 1 1 0 0 0 14.927734 5.8535156 A 1 1 0 0 0 16.121094 6.6113281 L 16.582031 6.5078125 L 16.775391 7.3144531 L 6.3925781 9.6328125 L 6.2011719 8.8261719 L 6.6328125 8.7304688 A 1 1 0 0 0 7.3925781 7.5351562 A 1 1 0 0 0 6.1972656 6.7773438 L 4.7753906 7.0957031 L 4.7597656 7.0996094 L 3.3515625 7.4140625 A 1 1 0 0 0 2.59375 8.6074219 A 1 1 0 0 0 3.7871094 9.3652344 L 4.2480469 9.2617188 L 4.4414062 10.068359 L 2.3476562 10.535156 C 1.442861 10.737066 0.82672218 11.668031 1.046875 12.589844 C 1.4484355 14.271532 3.1746113 15.299146 4.8652344 14.921875 L 9.5 13.886719 L 9.5 16 L 8 16 A 1 1 0 0 0 7 17 A 1 1 0 0 0 8 18 L 16 18 A 1 1 0 0 0 17 17 A 1 1 0 0 0 16 16 L 14.5 16 L 14.5 12.771484 L 20.519531 11.427734 C 22.210223 11.050448 23.317605 9.3614073 22.916016 7.6796875 C 22.695792 6.7581445 21.754248 6.2043292 20.849609 6.40625 L 18.728516 6.8789062 L 18.535156 6.0742188 L 18.96875 5.9765625 A 1 1 0 0 0 19.726562 4.7832031 A 1 1 0 0 0 18.791016 4.0019531 z M 20.919922 8.4394531 C 20.894882 8.9165051 20.632744 9.3541039 20.083984 9.4765625 L 4.4277344 12.970703 C 3.8887901 13.090971 3.4459059 12.806063 3.1933594 12.396484 L 5.8828125 11.796875 L 18.216797 9.0429688 L 20.919922 8.4394531 z M 12.5 13.216797 L 12.5 16 L 11.5 16 L 11.5 13.441406 L 12.5 13.216797 z " fill="currentColor"/>
</svg>
