<svg xmlns="http://www.w3.org/2000/svg" width="1em" height="1em" viewBox="0 0 24 24" fill="currentColor">
  <path d="M 6.3085938 2 C 6.2413868 2.002311 6.167327 2.0092441 6.0761719 2.0253906 C 5.5253033 2.1229902 5.0774403 2.4869537 4.8339844 2.953125 C 4.7553266 3.1037424 4.7247168 3.2097544 4.6777344 3.34375 L 2.984375 8.1699219 L 1.0566406 13.669922 A 1 1 0 0 0 1.6699219 14.943359 A 1 1 0 0 0 2.9433594 14.330078 L 4.6386719 9.5 L 8.3613281 9.5 L 10.056641 14.330078 A 1 1 0 0 0 11.330078 14.943359 A 1 1 0 0 0 11.943359 13.669922 L 10.015625 8.1699219 L 8.3222656 3.34375 C 8.2752832 3.2097544 8.2446734 3.1037424 8.1660156 2.953125 C 7.9225597 2.4869537 7.4746967 2.1229902 6.9238281 2.0253906 C 6.7415179 1.9930976 6.62769 2 6.5 2 C 6.436155 2 6.3758007 1.997689 6.3085938 2 z M 17 2 C 16.5286 2 16.155128 1.9930799 15.769531 2.0449219 C 15.383935 2.0967639 14.922063 2.2498234 14.585938 2.5859375 C 14.249814 2.9220597 14.096766 3.38393 14.044922 3.7695312 C 13.993078 4.1551324 14 4.528595 14 5 L 14 8.5 L 14 12 C 14 12.4714 13.993102 12.844869 14.044922 13.230469 C 14.096762 13.616069 14.249815 14.07794 14.585938 14.414062 C 14.922059 14.750184 15.383931 14.903234 15.769531 14.955078 C 16.155133 15.006922 16.5286 15 17 15 L 19.25 15 C 21.309227 15 23 13.309227 23 11.25 C 23 9.8827464 22.218943 8.7295541 21.115234 8.0742188 C 21.640407 7.428544 22 6.6402444 22 5.75 C 22 3.6907862 20.309235 2 18.25 2 L 17 2 z M 17 4 L 18.25 4 C 19.228365 4 20 4.7716538 20 5.75 C 20 6.7283462 19.228365 7.5 18.25 7.5 L 16 7.5 L 16 5 C 16 4.528595 16.006004 4.1941826 16.027344 4.0351562 C 16.027659 4.0328103 16.02704 4.0295863 16.027344 4.0273438 C 16.029589 4.0270397 16.032807 4.0276596 16.035156 4.0273438 C 16.194181 4.0059628 16.5286 4 17 4 z M 6.5 4.1894531 L 7.6601562 7.5 L 5.3398438 7.5 L 6.5 4.1894531 z M 16 9.5 L 18.25 9.5 L 19.25 9.5 C 20.228365 9.5 21 10.271654 21 11.25 C 21 12.228373 20.228373 13 19.25 13 L 17 13 C 16.5286 13 16.194181 12.993996 16.035156 12.972656 C 16.032809 12.972341 16.029587 12.97296 16.027344 12.972656 C 16.02704 12.970411 16.02766 12.967193 16.027344 12.964844 C 16.005967 12.805823 16 12.4714 16 12 L 16 9.5 z M 6 16 C 4.7433613 16 3.8594145 16.893296 3.4160156 18 L 2 18 A 1 1 0 0 0 1 19 A 1 1 0 0 0 2 20 L 3.4160156 20 C 3.8594145 21.106704 4.7433613 22 6 22 C 7.2566387 22 8.1405855 21.106704 8.5839844 20 L 15.416016 20 C 15.859411 21.106701 16.74335 22 18 22 C 19.25665 22 20.140589 21.106701 20.583984 20 L 22 20 A 1 1 0 0 0 23 19 A 1 1 0 0 0 22 18 L 20.583984 18 C 20.140589 16.893299 19.25665 16 18 16 C 16.74335 16 15.859411 16.893299 15.416016 18 L 8.5839844 18 C 8.1405855 16.893296 7.2566387 16 6 16 z M 6 18 C 6.5641485 18 7 18.435825 7 19 C 7 19.564175 6.5641485 20 6 20 C 5.4358515 20 5 19.564175 5 19 C 5 18.435825 5.4358515 18 6 18 z M 18 18 C 18.564193 18 19 18.435807 19 19 C 19 19.564193 18.564193 20 18 20 C 17.435807 20 17 19.564193 17 19 C 17 18.435807 17.435807 18 18 18 z " fill="currentColor"/>
</svg>
