<svg xmlns="http://www.w3.org/2000/svg" width="1em" height="1em" viewBox="0 0 24 24" fill="currentColor">
  <path d="M 5 1 A 1 1 0 0 0 4 2 L 4 4 L 2 4 A 1 1 0 0 0 1 5 A 1 1 0 0 0 2 6 L 4 6 L 4 8 A 1 1 0 0 0 5 9 A 1 1 0 0 0 6 8 L 6 6 L 8 6 A 1 1 0 0 0 9 5 A 1 1 0 0 0 8 4 L 6 4 L 6 2 A 1 1 0 0 0 5 1 z M 20 2 C 19.5286 2 19.155128 1.9930799 18.769531 2.0449219 C 18.383935 2.0967639 17.922064 2.2498234 17.585938 2.5859375 C 17.249816 2.9220597 17.096766 3.38393 17.044922 3.7695312 C 17.034567 3.846546 17.025721 3.9230766 17.019531 4 L 12 4 A 1 1 0 0 0 11 5 A 1 1 0 0 0 12 6 L 17.019531 6 C 17.025719 6.0769234 17.034572 6.153454 17.044922 6.2304688 C 17.096762 6.6160701 17.249815 7.0779402 17.585938 7.4140625 C 17.922064 7.7501766 18.383935 7.9032363 18.769531 7.9550781 C 18.846546 7.9654324 18.923076 7.9742793 19 7.9804688 L 19 17.019531 C 18.923076 17.025719 18.846546 17.034572 18.769531 17.044922 C 18.383931 17.096762 17.922061 17.249815 17.585938 17.585938 C 17.249816 17.922061 17.096766 18.383931 17.044922 18.769531 C 17.034567 18.846547 17.025721 18.923076 17.019531 19 L 7.9804688 19 C 7.9742793 18.923076 7.9654324 18.846546 7.9550781 18.769531 C 7.9032363 18.383935 7.7501766 17.922064 7.4140625 17.585938 C 7.0779402 17.249816 6.61607 17.096766 6.2304688 17.044922 C 6.153454 17.034567 6.0769234 17.025721 6 17.019531 L 6 12 A 1 1 0 0 0 5 11 A 1 1 0 0 0 4 12 L 4 17.019531 C 3.9230766 17.025721 3.846546 17.034567 3.7695312 17.044922 C 3.3839299 17.096766 2.9220598 17.249816 2.5859375 17.585938 C 2.2498234 17.922064 2.0967637 18.383935 2.0449219 18.769531 C 1.9930801 19.155128 2 19.5286 2 20 C 2 20.4714 1.9930799 20.844872 2.0449219 21.230469 C 2.0967639 21.616065 2.2498234 22.077938 2.5859375 22.414062 C 2.9220598 22.750186 3.3839299 22.903234 3.7695312 22.955078 C 4.1551323 23.006922 4.528595 23 5 23 C 5.471405 23 5.8448675 23.006898 6.2304688 22.955078 C 6.61607 22.903232 7.0779402 22.750185 7.4140625 22.414062 C 7.7501766 22.077937 7.9032363 21.616065 7.9550781 21.230469 C 7.9654324 21.153454 7.9742793 21.076924 7.9804688 21 L 17.019531 21 C 17.025719 21.076924 17.034572 21.153454 17.044922 21.230469 C 17.096762 21.616069 17.249815 22.07794 17.585938 22.414062 C 17.922061 22.750186 18.383931 22.903234 18.769531 22.955078 C 19.155133 23.006922 19.5286 23 20 23 C 20.4714 23 20.844869 23.006898 21.230469 22.955078 C 21.616069 22.903238 22.07794 22.750186 22.414062 22.414062 C 22.750186 22.077941 22.903234 21.616069 22.955078 21.230469 C 23.006922 20.844867 23 20.4714 23 20 C 23 19.5286 23.006898 19.155131 22.955078 18.769531 C 22.903238 18.383931 22.750186 17.922061 22.414062 17.585938 C 22.077939 17.249816 21.616069 17.096766 21.230469 17.044922 C 21.153454 17.034567 21.076924 17.025721 21 17.019531 L 21 7.9804688 C 21.076924 7.9742793 21.153454 7.9654324 21.230469 7.9550781 C 21.616065 7.9032361 22.077938 7.7501766 22.414062 7.4140625 C 22.750186 7.0779403 22.903234 6.6160701 22.955078 6.2304688 C 23.006922 5.8448676 23 5.471405 23 5 C 23 4.528595 23.006922 4.1551325 22.955078 3.7695312 C 22.903234 3.3839299 22.750186 2.9220598 22.414062 2.5859375 C 22.077937 2.2498234 21.616065 2.0967637 21.230469 2.0449219 C 20.844872 1.9930801 20.4714 2 20 2 z M 20 4 C 20.4714 4 20.805815 4.0059597 20.964844 4.0273438 C 20.96719 4.0276592 20.970413 4.02704 20.972656 4.0273438 C 20.97296 4.0295867 20.972341 4.0328099 20.972656 4.0351562 C 20.994037 4.1941825 21 4.528595 21 5 C 21 5.471405 20.993996 5.8058176 20.972656 5.9648438 C 20.972341 5.9671901 20.97296 5.9704134 20.972656 5.9726562 C 20.970412 5.9729601 20.967191 5.9723406 20.964844 5.9726562 C 20.805815 5.9940369 20.471397 6 20 6 C 19.5286 6 19.194185 5.994037 19.035156 5.9726562 C 19.032809 5.9723406 19.029588 5.9729601 19.027344 5.9726562 C 19.02704 5.9704135 19.027659 5.9671899 19.027344 5.9648438 C 19.005967 5.8058172 19 5.471405 19 5 C 19 4.528595 19.005963 4.1941826 19.027344 4.0351562 C 19.027659 4.0328101 19.02704 4.0295865 19.027344 4.0273438 C 19.029588 4.0270399 19.032809 4.0276594 19.035156 4.0273438 C 19.194181 4.0059628 19.5286 4 20 4 z M 5 19 C 5.471405 19 5.8058176 19.006004 5.9648438 19.027344 C 5.96719 19.027659 5.9704134 19.02704 5.9726562 19.027344 C 5.9729601 19.029588 5.9723406 19.032809 5.9726562 19.035156 C 5.9940369 19.194185 6 19.5286 6 20 C 6 20.4714 5.994037 20.805815 5.9726562 20.964844 C 5.9723408 20.96719 5.97296 20.970413 5.9726562 20.972656 C 5.9704133 20.97296 5.9671902 20.972341 5.9648438 20.972656 C 5.8058175 20.994037 5.471405 21 5 21 C 4.528595 21 4.1941826 20.994037 4.0351562 20.972656 C 4.03281 20.972341 4.0295865 20.97296 4.0273438 20.972656 C 4.0270399 20.970412 4.0276594 20.967191 4.0273438 20.964844 C 4.0059628 20.805819 4 20.4714 4 20 C 4 19.5286 4.0059631 19.194185 4.0273438 19.035156 C 4.0276594 19.032809 4.0270399 19.029588 4.0273438 19.027344 C 4.0295865 19.02704 4.03281 19.027659 4.0351562 19.027344 C 4.1941828 19.005967 4.528595 19 5 19 z M 20 19 C 20.4714 19 20.805819 19.006004 20.964844 19.027344 C 20.967192 19.02766 20.970411 19.02704 20.972656 19.027344 C 20.97296 19.029589 20.97234 19.032807 20.972656 19.035156 C 20.994029 19.194177 21 19.5286 21 20 C 21 20.4714 20.993996 20.805819 20.972656 20.964844 C 20.972341 20.967191 20.97296 20.970413 20.972656 20.972656 C 20.970411 20.97296 20.967193 20.97234 20.964844 20.972656 C 20.805823 20.994033 20.4714 21 20 21 C 19.5286 21 19.194181 20.993996 19.035156 20.972656 C 19.032809 20.972341 19.029587 20.97296 19.027344 20.972656 C 19.02704 20.970411 19.02766 20.967193 19.027344 20.964844 C 19.005967 20.805823 19 20.471397 19 20 C 19 19.5286 19.006004 19.194181 19.027344 19.035156 C 19.027659 19.032809 19.02704 19.029587 19.027344 19.027344 C 19.029589 19.02704 19.032807 19.02766 19.035156 19.027344 C 19.194177 19.005967 19.5286 19 20 19 z " fill="currentColor"/>
</svg>
