<svg xmlns="http://www.w3.org/2000/svg" width="1em" height="1em" viewBox="0 0 24 24" fill="currentColor">
  <path d="M 14.5 1.4980469 C 13.131145 1.4980469 12 2.6291568 12 3.9980469 C 12 5.3669335 13.131136 6.4980469 14.5 6.4980469 C 15.868864 6.4980469 17 5.3669335 17 3.9980469 C 17 2.6291568 15.868855 1.4980469 14.5 1.4980469 z M 14.5 3.4980469 C 14.787945 3.4980469 15 3.7100769 15 3.9980469 C 15 4.2860003 14.787936 4.4980469 14.5 4.4980469 C 14.212064 4.4980469 14 4.2860003 14 3.9980469 C 14 3.7100769 14.212055 3.4980469 14.5 3.4980469 z M 14.353516 6.9980469 C 12.840549 6.9980469 11.453993 7.8557518 10.777344 9.2089844 L 9.1054688 12.550781 A 1 1 0 0 0 9.5527344 13.892578 A 1 1 0 0 0 10.894531 13.445312 L 12 11.232422 L 12 13.089844 C 12 13.879454 12.233771 14.651572 12.671875 15.308594 L 13.542969 16.615234 L 11.123047 21.017578 A 1.0001 1.0001 0 0 0 12.751953 22.158203 L 15.298828 19.248047 L 17.167969 22.052734 A 1.0001 1.0001 0 0 0 18.966797 21.240234 L 17 13.867188 L 17 10.550781 L 17.667969 11.552734 A 1.0001 1.0001 0 0 0 17.900391 11.798828 L 19.900391 13.298828 A 1 1 0 0 0 21.300781 13.097656 A 1 1 0 0 0 21.099609 11.697266 L 19.236328 10.300781 L 18.222656 8.7792969 C 17.481438 7.6674695 16.230732 6.9980469 14.894531 6.9980469 L 14.353516 6.9980469 z M 14.353516 8.9980469 L 14.894531 8.9980469 C 14.937011 8.9980469 14.957951 9.0520335 15 9.0546875 L 15 13.867188 C 15 14.041543 15.023739 14.215271 15.068359 14.382812 L 15.474609 15.90625 L 14.335938 14.199219 C 14.11684 13.87064 14 13.484834 14 13.089844 L 14 9.0976562 C 14.122402 9.0743942 14.225822 8.9980473 14.353516 8.9980469 z M 9.0273438 13.998047 A 1 1 0 0 0 8.7675781 14.025391 A 1 1 0 0 0 8.1484375 14.474609 L 7.6679688 15.255859 L 6.9335938 14.796875 C 6.0191663 14.225634 4.7848176 14.516941 4.2167969 15.431641 L 2.7988281 17.712891 C 2.2405027 18.611977 2.4981339 19.818867 3.3789062 20.408203 L 4.171875 20.9375 L 4.1484375 20.974609 A 1 1 0 0 0 4.4765625 22.349609 A 1 1 0 0 0 5.8515625 22.021484 L 9.8515625 15.521484 A 1 1 0 0 0 9.5234375 14.146484 A 1 1 0 0 0 9.0273438 13.998047 z M 5.9003906 16.509766 L 6.6191406 16.958984 L 5.2207031 19.234375 L 4.5058594 18.755859 L 5.9003906 16.509766 z " fill="currentColor"/>
</svg>
