<svg xmlns="http://www.w3.org/2000/svg" width="1em" height="1em" viewBox="0 0 24 24" fill="currentColor">
  <path d="M 8.5 1 A 1.0001 1.0001 0 0 0 8.453125 1.0039062 C 7.5535158 1.0048679 6.7814269 1.0113731 6.125 1.0996094 C 5.3308156 1.2063628 4.5812789 1.4696162 4.0253906 2.0253906 C 3.469506 2.581169 3.2063936 3.3289553 3.0996094 4.1230469 C 2.9928252 4.9171384 3 5.82149 3 7 L 3 17 C 3 18.1785 2.9928304 19.082861 3.0996094 19.876953 C 3.2063933 20.671045 3.4695309 21.41881 4.0253906 21.974609 C 4.5812832 22.530365 5.33082 22.793642 6.125 22.900391 C 6.91918 23.007139 7.8232081 23 9.0019531 23 L 12.001953 23 C 13.180703 23 14.084733 23.007101 14.878906 22.900391 C 15.673079 22.793642 16.420672 22.530349 16.976562 21.974609 C 17.447578 21.50367 17.716672 20.881096 17.84375 20.232422 C 17.970828 19.583749 17.992606 18.878046 18 18.007812 A 1 1 0 0 0 17.007812 17 A 1 1 0 0 0 16 17.992188 C 15.9929 18.828554 15.95991 19.446108 15.880859 19.849609 C 15.801809 20.25311 15.712085 20.410986 15.5625 20.560547 C 15.385992 20.737007 15.17898 20.841668 14.611328 20.917969 C 14.043676 20.99427 13.180703 21 12.001953 21 L 9.0019531 21 C 7.8232081 21 6.9582875 20.99427 6.390625 20.917969 C 5.8229625 20.841667 5.6159409 20.736991 5.4394531 20.560547 C 5.2629329 20.384046 5.1583423 20.176858 5.0820312 19.609375 C 5.0057202 19.041892 5 18.1785 5 17 L 5 7 C 5 5.82149 5.0057205 4.9581035 5.0820312 4.390625 C 5.158342 3.8231465 5.2629578 3.6159147 5.4394531 3.4394531 C 5.6159448 3.2629976 5.8229669 3.1583353 6.390625 3.0820312 C 6.7606565 3.0322919 7.2575219 3.0116293 7.8847656 3.0039062 L 8.1054688 3.4472656 A 1.0001 1.0001 0 0 0 9 4 L 12 4 A 1.0001 1.0001 0 0 0 12.894531 3.4472656 L 13.115234 3.0039062 C 13.743485 3.0116008 14.240645 3.0322055 14.611328 3.0820312 C 15.178976 3.1583352 15.385988 3.2629818 15.5625 3.4394531 C 15.712047 3.5889547 15.801814 3.7469118 15.880859 4.1503906 C 15.959905 4.5538698 15.992894 5.1714666 16 6.0078125 A 1 1 0 0 0 17.007812 7 A 1 1 0 0 0 18 5.9921875 C 17.992606 5.1219734 17.97083 4.4142886 17.84375 3.765625 C 17.71667 3.1169614 17.447615 2.496299 16.976562 2.0253906 C 16.420675 1.469632 15.673083 1.2063633 14.878906 1.0996094 C 14.221505 1.011241 13.448334 1.0048411 12.546875 1.0039062 A 1.0001 1.0001 0 0 0 12.5 1 L 8.5 1 z M 17.025391 8 A 1 1 0 0 0 16.222656 8.3710938 A 1 1 0 0 0 16.371094 9.7773438 C 16.371094 9.7773438 17.142168 10.491246 17.763672 11.033203 L 12 11.033203 A 1 1 0 0 0 11 12.033203 A 1 1 0 0 0 12 13.033203 L 17.689453 13.033203 C 17.108947 13.537047 16.371094 14.222656 16.371094 14.222656 A 1 1 0 0 0 16.222656 15.628906 A 1 1 0 0 0 17.628906 15.777344 C 17.628906 15.777344 19.623716 14.202737 20.576172 13.101562 C 20.815134 12.825382 20.981486 12.457804 20.998047 12.068359 C 21.016497 11.633668 20.844099 11.20816 20.578125 10.900391 A 1.0001 1.0001 0 0 0 20.578125 10.898438 C 19.625644 9.7968781 17.628906 8.2226562 17.628906 8.2226562 A 1 1 0 0 0 17.025391 8 z " fill="currentColor"/>
</svg>
