<svg xmlns="http://www.w3.org/2000/svg" width="1em" height="1em" viewBox="0 0 24 24" fill="currentColor">
  <path d="M 5.5 2 C 5.03534 2 4.7577059 1.9902386 4.4140625 2.0585938 C 3.2268023 2.2947498 2.2947498 3.2268023 2.0585938 4.4140625 C 1.9902385 4.7577059 2 5.03534 2 5.5 C 2 5.96466 1.9902386 6.2422941 2.0585938 6.5859375 C 2.2947498 7.7731977 3.2268023 8.70525 4.4140625 8.9414062 C 4.7577059 9.0097613 5.03534 9 5.5 9 L 18.5 9 C 18.9647 9 19.242307 9.0097602 19.585938 8.9414062 C 20.773211 8.7052536 21.707216 7.7732068 21.943359 6.5859375 C 22.01164 6.2423982 22 5.96466 22 5.5 C 22 5.03534 22.01164 4.7576018 21.943359 4.4140625 C 21.707216 3.2267932 20.773211 2.2947465 19.585938 2.0585938 C 19.242307 1.9902411 18.9647 2 18.5 2 L 5.5 2 z M 5.5 4 L 18.5 4 C 18.9647 4 19.152544 4.0110243 19.195312 4.0195312 C 19.594839 4.0989983 19.901012 4.4051968 19.980469 4.8046875 C 19.988988 4.8475484 20 5.03534 20 5.5 C 20 5.96466 19.988989 6.1524518 19.980469 6.1953125 C 19.901009 6.5948032 19.59484 6.9010016 19.195312 6.9804688 C 19.152543 6.9889762 18.9647 7 18.5 7 L 5.5 7 C 5.03534 7 4.8474441 6.9889736 4.8046875 6.9804688 C 4.4051877 6.9010049 4.0989952 6.5948123 4.0195312 6.1953125 C 4.0110265 6.1525559 4 5.96466 4 5.5 C 4 5.03534 4.0110264 4.8474441 4.0195312 4.8046875 C 4.0989951 4.4051877 4.4051877 4.0989952 4.8046875 4.0195312 C 4.8474441 4.0110265 5.03534 4 5.5 4 z M 6 4.3984375 C 5.4043632 4.3984375 4.9003906 4.9024101 4.9003906 5.4980469 C 4.9003906 6.0936837 5.4043632 6.5976562 6 6.5976562 C 6.5956368 6.5976562 7.0996094 6.0936837 7.0996094 5.4980469 C 7.0996094 4.9024101 6.5956368 4.3984375 6 4.3984375 z M 9 4.3984375 C 8.4043632 4.3984375 7.9003906 4.9024101 7.9003906 5.4980469 C 7.9003906 6.0936837 8.4043632 6.5976562 9 6.5976562 C 9.5956368 6.5976562 10.099609 6.0936837 10.099609 5.4980469 C 10.099609 4.9024101 9.5956368 4.3984375 9 4.3984375 z M 5.8261719 4.671875 A 1 1 0 0 0 5.1738281 5.3242188 C 5.2518934 4.9914941 5.4934471 4.7499403 5.8261719 4.671875 z M 8.8261719 4.671875 A 1 1 0 0 0 8.1738281 5.3242188 C 8.2518934 4.9914941 8.4934471 4.7499403 8.8261719 4.671875 z M 6.2617188 4.7089844 C 6.5202371 4.8008294 6.6969068 4.9779381 6.7890625 5.2363281 A 1 1 0 0 0 6.2617188 4.7089844 z M 9.2617188 4.7089844 C 9.5202371 4.8008294 9.6969068 4.9779381 9.7890625 5.2363281 A 1 1 0 0 0 9.2617188 4.7089844 z M 5.1738281 5.671875 A 1 1 0 0 0 5.8261719 6.3242188 C 5.4933785 6.2460496 5.251724 6.004756 5.1738281 5.671875 z M 8.1738281 5.671875 A 1 1 0 0 0 8.8261719 6.3242188 C 8.4933785 6.2460496 8.251724 6.004756 8.1738281 5.671875 z M 6.7910156 5.7578125 C 6.6992 6.0183866 6.5203392 6.1972469 6.2597656 6.2890625 A 1 1 0 0 0 6.7910156 5.7578125 z M 9.7910156 5.7578125 C 9.6992 6.0183866 9.5203392 6.1972469 9.2597656 6.2890625 A 1 1 0 0 0 9.7910156 5.7578125 z M 5.5 10 C 5.03534 10 4.7576018 9.9883591 4.4140625 10.056641 C 3.2267932 10.292784 2.2947465 11.226788 2.0585938 12.414062 C 1.9902411 12.757692 2 13.0353 2 13.5 C 2 13.9647 1.9902398 14.242306 2.0585938 14.585938 C 2.2947466 15.77321 3.2267932 16.707216 4.4140625 16.943359 C 4.7576016 17.01164 5.03534 17 5.5 17 L 18.5 17 C 18.9647 17 19.242411 17.011639 19.585938 16.943359 C 20.77322 16.707219 21.70722 15.77322 21.943359 14.585938 C 22.011638 14.242411 22 13.9647 22 13.5 C 22 13.0353 22.011638 12.757588 21.943359 12.414062 C 21.70722 11.226779 20.77322 10.29278 19.585938 10.056641 C 19.242411 9.9883617 18.9647 10 18.5 10 L 5.5 10 z M 5.5 12 L 18.5 12 C 18.9647 12 19.152439 12.011011 19.195312 12.019531 C 19.594831 12.098991 19.901008 12.405169 19.980469 12.804688 C 19.98899 12.847562 20 13.0353 20 13.5 C 20 13.9647 19.988989 14.152438 19.980469 14.195312 C 19.901009 14.594829 19.594831 14.901008 19.195312 14.980469 C 19.152439 14.98899 18.9647 15 18.5 15 L 5.5 15 C 5.03534 15 4.8475482 14.988988 4.8046875 14.980469 C 4.4051968 14.901012 4.0989984 14.594839 4.0195312 14.195312 C 4.0110238 14.152542 4 13.9647 4 13.5 C 4 13.0353 4.0110243 12.847456 4.0195312 12.804688 C 4.0989983 12.40516 4.4051968 12.098988 4.8046875 12.019531 C 4.8475484 12.011012 5.03534 12 5.5 12 z M 6 12.398438 C 5.4040011 12.398438 4.9003906 12.902146 4.9003906 13.498047 C 4.9003906 14.09307 5.4052082 14.597656 6 14.597656 C 6.5947918 14.597656 7.0996094 14.09307 7.0996094 13.498047 C 7.0996094 12.902146 6.5959989 12.398436 6 12.398438 z M 9 12.398438 C 8.4040011 12.398438 7.9003906 12.902146 7.9003906 13.498047 C 7.9003906 14.09307 8.4052082 14.597656 9 14.597656 C 9.5947918 14.597656 10.099609 14.09307 10.099609 13.498047 C 10.099609 12.902146 9.5959989 12.398436 9 12.398438 z M 5.8261719 12.671875 A 1 1 0 0 0 5.1738281 13.324219 C 5.2520272 12.99177 5.4937568 12.75006 5.8261719 12.671875 z M 8.8261719 12.671875 A 1 1 0 0 0 8.1738281 13.324219 C 8.2520272 12.99177 8.4937568 12.75006 8.8261719 12.671875 z M 6.2617188 12.708984 C 6.5200804 12.800956 6.696767 12.978075 6.7890625 13.236328 A 1 1 0 0 0 6.2617188 12.708984 z M 9.2617188 12.708984 C 9.5200803 12.800956 9.696767 12.978075 9.7890625 13.236328 A 1 1 0 0 0 9.2617188 12.708984 z M 5.1738281 13.671875 A 1 1 0 0 0 5.8261719 14.324219 C 5.4932471 14.2461 5.2516677 14.004873 5.1738281 13.671875 z M 8.1738281 13.671875 A 1 1 0 0 0 8.8261719 14.324219 C 8.4932471 14.2461 8.2516677 14.004873 8.1738281 13.671875 z M 6.7910156 13.757812 C 6.6992606 14.018444 6.5204045 14.1973 6.2597656 14.289062 A 1 1 0 0 0 6.7910156 13.757812 z M 9.7910156 13.757812 C 9.6992606 14.018444 9.5204045 14.1973 9.2597656 14.289062 A 1 1 0 0 0 9.7910156 13.757812 z M 12 18 A 1 1 0 0 0 11 19 L 11 20 L 5 20 A 1 1 0 0 0 4 21 A 1 1 0 0 0 5 22 L 12 22 L 19 22 A 1 1 0 0 0 20 21 A 1 1 0 0 0 19 20 L 13 20 L 13 19 A 1 1 0 0 0 12 18 z " fill="currentColor"/>
</svg>
