<svg xmlns="http://www.w3.org/2000/svg" width="1em" height="1em" viewBox="0 0 24 24" fill="currentColor">
  <path d="M 5 3 C 4.06812 3 3.4951614 2.9619356 2.8515625 3.2285156 C 2.1168415 3.532854 1.532854 4.1168415 1.2285156 4.8515625 C 0.96193563 5.4951614 1 6.06812 1 7 C 1 7.93188 0.96193562 8.5048386 1.2285156 9.1484375 C 1.532854 9.8831585 2.1168415 10.467146 2.8515625 10.771484 C 3.4951614 11.038064 4.06812 11 5 11 L 19 11 C 19.9319 11 20.504872 11.03801 21.148438 10.771484 C 21.883084 10.467146 22.467115 9.8831983 22.771484 9.1484375 C 23.037978 8.5048793 23 7.93188 23 7 C 23 6.06812 23.037978 5.4951207 22.771484 4.8515625 C 22.467115 4.1168017 21.883083 3.5328536 21.148438 3.2285156 C 20.504872 2.9619852 19.9319 3 19 3 L 5 3 z M 5 5 L 19 5 C 19.9319 5 20.291179 5.0382219 20.382812 5.0761719 C 20.628167 5.1778139 20.822198 5.3718483 20.923828 5.6171875 C 20.961735 5.7087292 21 6.06812 21 7 C 21 7.93188 20.961735 8.2912707 20.923828 8.3828125 C 20.822198 8.6281517 20.628167 8.8221861 20.382812 8.9238281 C 20.291179 8.9617777 19.9319 9 19 9 L 5 9 C 4.06812 9 3.7086886 8.9617281 3.6171875 8.9238281 C 3.3718085 8.8221865 3.1778135 8.6281915 3.0761719 8.3828125 C 3.0382719 8.2913114 3 7.93188 3 7 C 3 6.06812 3.0382719 5.7086886 3.0761719 5.6171875 C 3.1778135 5.3718085 3.3718085 5.1778135 3.6171875 5.0761719 C 3.7086886 5.0382719 4.06812 5 5 5 z M 6 5.75 C 5.3214795 5.75 4.75 6.3214795 4.75 7 C 4.75 7.6785205 5.3214795 8.25 6 8.25 C 6.6785205 8.25 7.25 7.6785205 7.25 7 C 7.25 6.3214795 6.6785205 5.75 6 5.75 z M 10 5.75 C 9.3214795 5.75 8.75 6.3214795 8.75 7 C 8.75 7.6785205 9.3214795 8.25 10 8.25 C 10.678433 8.25 11.25 7.6783756 11.25 7 C 11.25 6.3216244 10.678433 5.75 10 5.75 z M 5 13 C 4.06812 13 3.4951207 12.962022 2.8515625 13.228516 C 2.1168017 13.532885 1.5328536 14.116917 1.2285156 14.851562 C 0.96198526 15.495128 1 16.0681 1 17 C 1 17.9319 0.96198523 18.504872 1.2285156 19.148438 C 1.5328536 19.883084 2.1168017 20.467115 2.8515625 20.771484 C 3.4951207 21.037978 4.06812 21 5 21 L 19 21 C 19.9319 21 20.504912 21.03793 21.148438 20.771484 C 21.883122 20.467115 22.467115 19.883122 22.771484 19.148438 C 23.037928 18.504912 23 17.9319 23 17 C 23 16.0681 23.037928 15.495088 22.771484 14.851562 C 22.467115 14.116877 21.883122 13.532885 21.148438 13.228516 C 20.504912 12.962072 19.9319 13 19 13 L 5 13 z M 5 15 L 19 15 C 19.9319 15 20.291138 15.038212 20.382812 15.076172 C 20.628128 15.177802 20.822198 15.371872 20.923828 15.617188 C 20.961785 15.708863 21 16.0681 21 17 C 21 17.9319 20.961778 18.291138 20.923828 18.382812 C 20.822198 18.628128 20.628129 18.822198 20.382812 18.923828 C 20.291137 18.961785 19.9319 19 19 19 L 5 19 C 4.06812 19 3.7087293 18.961735 3.6171875 18.923828 C 3.3718483 18.822198 3.1778139 18.628167 3.0761719 18.382812 C 3.0382223 18.291179 3 17.9319 3 17 C 3 16.0681 3.0382223 15.708821 3.0761719 15.617188 C 3.1778139 15.371833 3.3718483 15.177802 3.6171875 15.076172 C 3.7087293 15.038265 4.06812 15 5 15 z M 6 15.75 C 5.3216244 15.75 4.75 16.321567 4.75 17 C 4.75 17.678433 5.3216244 18.25 6 18.25 C 6.6783756 18.25 7.25 17.678433 7.25 17 C 7.25 16.321567 6.6783756 15.75 6 15.75 z M 10 15.75 C 9.3216244 15.75 8.75 16.321567 8.75 17 C 8.75 17.678433 9.3216244 18.25 10 18.25 C 10.678288 18.25 11.25 17.678288 11.25 17 C 11.25 16.321712 10.678288 15.75 10 15.75 z " fill="currentColor"/>
</svg>
