<svg xmlns="http://www.w3.org/2000/svg" width="1em" height="1em" viewBox="0 0 24 24" fill="currentColor">
  <path d="M 8.6113281 1.6894531 C 8.3270515 1.6783076 8.0843827 1.761163 7.9140625 1.8359375 C 7.7194108 1.9213945 7.5689325 2.0115175 7.3828125 2.1171875 L 5.6582031 3.0957031 C 5.4685498 3.2033822 5.3114154 3.2877763 5.1367188 3.4121094 C 4.9620222 3.5364424 4.7303483 3.7363798 4.5957031 4.0546875 C 4.4344011 4.4359802 4.4865001 4.7255529 4.5253906 4.9511719 C 4.5642811 5.1767908 4.6202629 5.385878 4.6894531 5.6523438 C 5.0507267 7.043741 4.1532844 8.5533376 2.7285156 8.9375 C 2.4675369 9.0078577 2.2625547 9.0611489 2.0488281 9.1386719 C 1.8351015 9.2161948 1.5567198 9.3168987 1.3085938 9.640625 C 1.0996934 9.9134033 1.0395052 10.214909 1.0175781 10.427734 C 0.99565104 10.64056 1 10.816753 1 11.033203 L 1 12.966797 C 1 13.183247 0.99564813 13.361388 1.0175781 13.574219 C 1.0395081 13.787049 1.0994721 14.086511 1.3085938 14.359375 C 1.5566414 14.683302 1.835036 14.783763 2.0488281 14.861328 C 2.2626202 14.938888 2.4675327 14.992142 2.7285156 15.0625 C 4.152853 15.446631 5.0509551 16.956115 4.6894531 18.347656 C 4.6202411 18.614096 4.5623529 18.823216 4.5234375 19.048828 C 4.4845225 19.27444 4.432565 19.562161 4.59375 19.943359 C 4.7283498 20.261634 4.9600115 20.463513 5.1347656 20.587891 C 5.3095198 20.712269 5.4665545 20.79663 5.65625 20.904297 L 7.3808594 21.882812 C 7.5669599 21.988446 7.7174765 22.078615 7.9121094 22.164062 C 8.1067422 22.249513 8.3968657 22.344285 8.734375 22.298828 C 9.1339471 22.245008 9.3587422 22.057257 9.53125 21.912109 C 9.7037578 21.766962 9.8506768 21.617659 10.039062 21.429688 C 11.108598 20.362416 12.893262 20.362403 13.962891 21.429688 C 14.151306 21.617753 14.298133 21.766923 14.470703 21.912109 C 14.643273 22.057295 14.868235 22.245057 15.267578 22.298828 C 15.60518 22.344308 15.895208 22.249509 16.089844 22.164062 C 16.284479 22.078612 16.43499 21.988466 16.621094 21.882812 L 18.345703 20.904297 C 18.535432 20.79663 18.690427 20.712299 18.865234 20.587891 C 19.040042 20.463482 19.27366 20.261981 19.408203 19.943359 C 19.569403 19.562187 19.517444 19.274478 19.478516 19.048828 C 19.439586 18.823178 19.381756 18.614127 19.3125 18.347656 C 18.950767 16.955962 19.847484 15.446668 21.271484 15.0625 C 21.532455 14.99214 21.737369 14.938897 21.951172 14.861328 C 22.164974 14.783758 22.443306 14.683591 22.691406 14.359375 C 22.900565 14.086515 22.960486 13.787066 22.982422 13.574219 C 23.004361 13.361372 23 13.183247 23 12.966797 L 23 11.033203 C 23 10.816753 23.004402 10.640581 22.982422 10.427734 C 22.960488 10.214887 22.900565 9.9134849 22.691406 9.640625 C 22.443422 9.3168741 22.164948 9.2162411 21.951172 9.1386719 C 21.737396 9.0611027 21.532465 9.0078683 21.271484 8.9375 C 19.84712 8.5533729 18.949012 7.0439283 19.310547 5.6523438 C 19.379746 5.3859052 19.437661 5.1767891 19.476562 4.9511719 C 19.515465 4.7255546 19.567512 4.4378866 19.40625 4.0566406 C 19.271663 3.7384564 19.039962 3.5384314 18.865234 3.4140625 C 18.690506 3.2896936 18.533477 3.2034085 18.34375 3.0957031 L 16.619141 2.1171875 C 16.433041 2.0115175 16.282526 1.9213986 16.087891 1.8359375 C 15.893255 1.7504764 15.603142 1.655698 15.265625 1.7011719 C 14.866262 1.754946 14.641287 1.9427793 14.46875 2.0878906 C 14.296213 2.233002 14.149403 2.3823468 13.960938 2.5703125 C 12.892202 3.6365215 11.109843 3.636591 10.041016 2.5703125 C 9.8525602 2.3823075 9.7057426 2.2330107 9.5332031 2.0878906 C 9.3606637 1.9427706 9.1356787 1.7549844 8.7363281 1.7011719 C 8.694144 1.6954897 8.6519391 1.6910453 8.6113281 1.6894531 z M 8.4492188 3.8125 C 8.5119847 3.873264 8.5403107 3.897944 8.6289062 3.9863281 C 10.478599 5.8316096 13.523383 5.8316191 15.373047 3.9863281 C 15.461427 3.8981841 15.490045 3.8751436 15.552734 3.8144531 C 15.588144 3.8341741 15.589289 3.8318647 15.630859 3.8554688 L 17.355469 4.8359375 C 17.400819 4.8616815 17.401663 4.8628716 17.439453 4.8847656 C 17.417483 4.9752066 17.40909 5.0191038 17.375 5.1503906 C 16.729734 7.6340861 18.273564 10.201288 20.75 10.869141 C 20.874636 10.902741 20.911903 10.916756 20.998047 10.941406 C 20.998399 10.983296 21 10.983573 21 11.033203 L 21 12.966797 C 21 13.016187 20.998447 13.016864 20.998047 13.058594 C 20.911897 13.083244 20.874641 13.097259 20.75 13.130859 C 18.273801 13.798891 16.731486 16.368257 17.376953 18.851562 C 17.410953 18.98238 17.419456 19.024967 17.441406 19.115234 C 17.403616 19.137124 17.402762 19.138322 17.357422 19.164062 L 15.632812 20.144531 C 15.590803 20.168381 15.590398 20.16762 15.554688 20.1875 C 15.491948 20.12674 15.463568 20.10207 15.375 20.013672 C 13.524429 18.167157 10.477397 18.167145 8.6269531 20.013672 C 8.5383621 20.102072 8.5100308 20.126719 8.4472656 20.1875 C 8.4115446 20.16761 8.4111606 20.168381 8.3691406 20.144531 L 6.6445312 19.164062 C 6.5991921 19.138329 6.5983356 19.137121 6.5605469 19.115234 C 6.582495 19.02495 6.5910141 18.982395 6.625 18.851562 C 7.270218 16.367904 5.7264227 13.798728 3.25 13.130859 C 3.12536 13.097258 3.0881034 13.083242 3.0019531 13.058594 C 3.0016039 13.016866 3 13.016183 3 12.966797 L 3 11.033203 C 3 10.983813 3.0016031 10.983136 3.0019531 10.941406 C 3.088114 10.916759 3.1253628 10.902742 3.25 10.869141 C 5.7266312 10.201363 7.2719196 7.6343934 6.6269531 5.1503906 C 6.5928604 5.0190926 6.5844694 4.9752181 6.5625 4.8847656 C 6.600296 4.8628696 6.6011404 4.8616825 6.6464844 4.8359375 L 8.3710938 3.8554688 C 8.4131049 3.8316167 8.4135069 3.8323844 8.4492188 3.8125 z M 12 7.5 C 9.526562 7.5 7.5 9.526562 7.5 12 C 7.5 14.473438 9.526562 16.5 12 16.5 C 14.473438 16.5 16.5 14.473438 16.5 12 C 16.5 9.526562 14.473438 7.5 12 7.5 z M 12 9.5 C 13.392562 9.5 14.5 10.607438 14.5 12 C 14.5 13.392562 13.392562 14.5 12 14.5 C 10.607438 14.5 9.5 13.392562 9.5 12 C 9.5 10.607438 10.607438 9.5 12 9.5 z " fill="currentColor"/>
</svg>
