<svg xmlns="http://www.w3.org/2000/svg" width="1em" height="1em" viewBox="0 0 24 24" fill="currentColor">
  <path d="M 12 1 C 5.9367104 1 1 5.9367104 1 12 C 1 13.561369 1.3269759 15.052269 1.9160156 16.400391 A 1 1 0 0 0 3.2324219 16.916016 A 1 1 0 0 0 3.7480469 15.599609 C 3.2666866 14.497931 3 13.283031 3 12 C 3 7.0175896 7.0175896 3 12 3 C 14.458804 3 16.676213 3.9797152 18.300781 5.5722656 A 1.0001 1.0001 0 0 0 20 4.859375 L 20 2 A 1 1 0 0 0 19 1 A 1 1 0 0 0 18 2 L 18 3.0175781 C 16.249655 1.8451582 14.25962 1 12 1 z M 11.671875 5 C 11.467125 5 11.293804 4.9961604 11.076172 5.0214844 C 10.85854 5.0468104 10.557938 5.1248297 10.310547 5.3066406 C 10.063315 5.4883507 9.9010803 5.7469607 9.8105469 5.9453125 C 9.7203909 6.1428375 9.6698421 6.310849 9.6054688 6.5078125 L 9.4199219 7.0683594 C 9.4045289 7.1074754 9.3806585 7.1379931 9.3515625 7.1582031 L 9.2265625 7.2304688 C 9.1931565 7.2469637 9.1595197 7.2514 9.125 7.2441406 L 8.4511719 7.0507812 L 8.4492188 7.0507812 C 8.2382456 6.9898451 8.0608697 6.933451 7.8320312 6.8964844 C 7.6025111 6.8594076 7.2713359 6.8572128 6.96875 6.9824219 C 6.6661682 7.1076292 6.4359274 7.3405848 6.2988281 7.5273438 C 6.1617289 7.7141027 6.072964 7.8798715 5.9628906 8.0742188 L 5.671875 8.5878906 C 5.5686926 8.7700699 5.4785219 8.9211157 5.3925781 9.1230469 C 5.3066343 9.3249781 5.2265028 9.6205211 5.2578125 9.9238281 C 5.289148 10.227155 5.4288501 10.499657 5.5546875 10.679688 C 5.6805249 10.859716 5.799366 10.99018 5.9375 11.146484 L 6.4980469 11.785156 L 6.4960938 11.785156 L 6.4960938 11.787109 L 6.4941406 11.787109 L 6.4941406 11.789062 C 6.4935316 11.81456 6.5488281 11.949497 6.5488281 12 C 6.5488281 12.050816 6.4935787 12.185459 6.4941406 12.210938 L 6.4941406 12.212891 L 6.4960938 12.212891 L 6.4960938 12.214844 L 6.4980469 12.214844 L 5.9355469 12.855469 C 5.7981916 13.010785 5.6799791 13.141084 5.5546875 13.320312 C 5.4288228 13.50036 5.289146 13.772848 5.2578125 14.076172 C 5.2265145 14.379459 5.3066275 14.674995 5.3925781 14.876953 C 5.4785291 15.078911 5.568692 15.229945 5.671875 15.412109 L 5.9628906 15.925781 C 6.0729582 16.120118 6.1617388 16.285895 6.2988281 16.472656 C 6.4359175 16.659418 6.6661038 16.892344 6.96875 17.017578 C 7.2713979 17.142813 7.6025255 17.140605 7.8320312 17.103516 C 8.0608555 17.066536 8.2382707 17.010146 8.4492188 16.949219 L 9.125 16.755859 C 9.159301 16.748659 9.192992 16.752961 9.2265625 16.769531 L 9.3515625 16.841797 C 9.3812225 16.862397 9.406522 16.892894 9.421875 16.933594 L 9.6054688 17.492188 C 9.6698428 17.689148 9.7203762 17.857151 9.8105469 18.054688 C 9.9009229 18.252676 10.06399 18.509766 10.310547 18.691406 C 10.557934 18.873295 10.858499 18.953174 11.076172 18.978516 C 11.293845 19.003852 11.467125 19 11.671875 19 L 12.328125 19 C 12.532875 19 12.706155 19.003896 12.923828 18.978516 C 13.141501 18.953176 13.442066 18.873295 13.689453 18.691406 C 13.93601 18.509766 14.099077 18.252676 14.189453 18.054688 C 14.279623 17.85715 14.330157 17.689148 14.394531 17.492188 L 14.578125 16.933594 C 14.593475 16.892894 14.618778 16.862397 14.648438 16.841797 L 14.773438 16.769531 C 14.807058 16.752931 14.840718 16.748649 14.875 16.755859 L 15.548828 16.949219 C 15.760593 17.010359 15.938462 17.066422 16.167969 17.103516 C 16.397476 17.140606 16.728622 17.142798 17.03125 17.017578 C 17.333887 16.892355 17.564079 16.659371 17.701172 16.472656 C 17.838265 16.285942 17.927028 16.122002 18.037109 15.927734 A 1.0001 1.0001 0 0 0 18.167969 15.433594 L 18.167969 15.697266 L 18.328125 15.412109 C 18.431335 15.229942 18.521438 15.078982 18.607422 14.876953 C 18.693402 14.674924 18.773626 14.379594 18.742188 14.076172 C 18.710898 13.772832 18.571198 13.500397 18.445312 13.320312 C 18.320002 13.141046 18.201844 13.010803 18.064453 12.855469 L 18.0625 12.853516 L 17.501953 12.214844 L 17.503906 12.214844 L 17.503906 12.212891 L 17.505859 12.212891 L 17.505859 12.210938 C 17.506486 12.185584 17.451172 12.05096 17.451172 12 C 17.451172 11.94948 17.506459 11.814568 17.505859 11.789062 L 17.505859 11.787109 L 17.503906 11.787109 L 17.503906 11.785156 L 17.501953 11.785156 L 18.0625 11.146484 L 18.064453 11.144531 C 18.201826 10.989168 18.320029 10.858934 18.445312 10.679688 C 18.571169 10.499621 18.710898 10.227172 18.742188 9.9238281 C 18.773637 9.6203694 18.693397 9.3250415 18.607422 9.1230469 C 18.521442 8.9210522 18.431324 8.7700639 18.328125 8.5878906 L 18.037109 8.0742188 C 17.927043 7.8798404 17.838294 7.7141276 17.701172 7.5273438 C 17.56405 7.34056 17.333817 7.1076162 17.03125 6.9824219 C 16.728541 6.8571017 16.397486 6.8594102 16.167969 6.8964844 C 15.938451 6.9335586 15.760641 6.9896275 15.548828 7.0507812 L 14.875 7.2441406 C 14.84039 7.2514206 14.806959 7.2470307 14.773438 7.2304688 L 14.648438 7.1582031 C 14.619347 7.1379891 14.595468 7.1074784 14.580078 7.0683594 L 14.578125 7.0683594 L 14.578125 7.0664062 L 14.394531 6.5078125 C 14.330161 6.310849 14.279609 6.1428375 14.189453 5.9453125 C 14.098923 5.7469607 13.936685 5.4883507 13.689453 5.3066406 C 13.442062 5.1248297 13.14146 5.04681 12.923828 5.0214844 C 12.706196 4.9961588 12.532875 5 12.328125 5 L 11.671875 5 z M 11.671875 7 L 12.328125 7 C 12.396005 7 12.398265 7.0011931 12.449219 7.0019531 C 12.467209 7.0541521 12.470651 7.0590161 12.494141 7.1308594 A 1.0001 1.0001 0 0 0 12.496094 7.1328125 L 12.693359 7.7324219 A 1.0001 1.0001 0 0 0 12.707031 7.7714844 C 12.871438 8.2073797 13.168734 8.5824999 13.560547 8.8378906 A 1.0001 1.0001 0 0 0 13.601562 8.8613281 L 13.798828 8.9785156 A 1.0001 1.0001 0 0 0 13.841797 9.0019531 C 14.299757 9.2412975 14.832237 9.3095568 15.335938 9.1914062 A 1.0001 1.0001 0 0 0 15.382812 9.1796875 L 16.101562 8.9726562 A 1.0001 1.0001 0 0 0 16.103516 8.9726562 C 16.171666 8.9529802 16.174416 8.9536611 16.226562 8.9394531 C 16.255523 8.9887931 16.259255 8.992157 16.296875 9.0585938 L 16.587891 9.5722656 C 16.629501 9.6457206 16.632066 9.6553106 16.660156 9.7070312 C 16.622526 9.7511602 16.619203 9.7583673 16.564453 9.8203125 A 1.0001 1.0001 0 0 0 16.5625 9.8222656 L 15.953125 10.515625 A 1.0001 1.0001 0 0 0 15.916016 10.5625 C 15.562842 11.017395 15.451172 11.465577 15.451172 12 C 15.451172 12.534244 15.562498 12.982468 15.916016 13.4375 A 1.0001 1.0001 0 0 0 15.953125 13.484375 L 16.5625 14.177734 A 1.0001 1.0001 0 0 0 16.564453 14.179688 C 16.619203 14.241608 16.622536 14.248858 16.660156 14.292969 C 16.632076 14.344679 16.629501 14.354299 16.587891 14.427734 L 16.296875 14.941406 C 16.259225 15.007846 16.255542 15.011196 16.226562 15.060547 C 16.174412 15.046337 16.171682 15.047024 16.103516 15.027344 A 1.0001 1.0001 0 0 0 16.101562 15.027344 L 15.382812 14.820312 A 1.0001 1.0001 0 0 0 15.335938 14.808594 C 14.831843 14.690258 14.29966 14.758734 13.841797 14.998047 A 1.0001 1.0001 0 0 0 13.798828 15.021484 L 13.601562 15.138672 A 1.0001 1.0001 0 0 0 13.560547 15.162109 C 13.168382 15.417628 12.87135 15.792944 12.707031 16.228516 A 1.0001 1.0001 0 0 0 12.693359 16.267578 L 12.496094 16.867188 A 1.0001 1.0001 0 0 0 12.494141 16.869141 C 12.470651 16.940981 12.467199 16.945851 12.449219 16.998047 C 12.398269 16.998812 12.395999 17 12.328125 17 L 11.671875 17 C 11.603995 17 11.601735 16.998847 11.550781 16.998047 C 11.532791 16.945847 11.529349 16.940977 11.505859 16.869141 A 1.0001 1.0001 0 0 0 11.503906 16.867188 L 11.306641 16.267578 A 1.0001 1.0001 0 0 0 11.292969 16.228516 C 11.128693 15.792909 10.831545 15.417628 10.439453 15.162109 A 1.0001 1.0001 0 0 0 10.398438 15.138672 L 10.201172 15.021484 A 1.0001 1.0001 0 0 0 10.158203 14.998047 C 9.7003181 14.758712 9.1681583 14.690261 8.6640625 14.808594 A 1.0001 1.0001 0 0 0 8.6171875 14.820312 L 7.8984375 15.027344 A 1.0001 1.0001 0 0 0 7.8964844 15.027344 C 7.8283114 15.047024 7.8255974 15.046337 7.7734375 15.060547 C 7.7444685 15.011187 7.740761 15.007857 7.703125 14.941406 L 7.4121094 14.427734 C 7.3705114 14.354294 7.3679247 14.344684 7.3398438 14.292969 C 7.3774688 14.248859 7.3808039 14.241608 7.4355469 14.179688 A 1.0001 1.0001 0 0 0 7.4375 14.177734 L 8.046875 13.484375 A 1.0001 1.0001 0 0 0 8.0839844 13.4375 C 8.4371754 12.982674 8.5488281 12.534422 8.5488281 12 C 8.5488281 11.465555 8.437176 11.017388 8.0839844 10.5625 A 1.0001 1.0001 0 0 0 8.046875 10.515625 L 7.4375 9.8222656 A 1.0001 1.0001 0 0 0 7.4355469 9.8203125 C 7.3807933 9.7583569 7.3774788 9.7511684 7.3398438 9.7070312 C 7.3679288 9.6553073 7.3705072 9.6457185 7.4121094 9.5722656 L 7.703125 9.0585938 C 7.740759 8.9921458 7.7444725 8.9888048 7.7734375 8.9394531 C 7.8255865 8.9536631 7.8283215 8.9529783 7.8964844 8.9726562 A 1.0001 1.0001 0 0 0 7.8984375 8.9726562 L 8.6171875 9.1796875 A 1.0001 1.0001 0 0 0 8.6640625 9.1914062 C 9.1678036 9.3095832 9.7001768 9.241371 10.158203 9.0019531 A 1.0001 1.0001 0 0 0 10.201172 8.9785156 L 10.398438 8.8613281 A 1.0001 1.0001 0 0 0 10.439453 8.8378906 C 10.831339 8.5825002 11.128562 8.2073797 11.292969 7.7714844 A 1.0001 1.0001 0 0 0 11.306641 7.7324219 L 11.503906 7.1328125 A 1.0001 1.0001 0 0 0 11.505859 7.1308594 C 11.529349 7.0590164 11.532801 7.0541524 11.550781 7.0019531 C 11.601695 7.0011844 11.603998 7 11.671875 7 z M 21.148438 7 A 1 1 0 0 0 20.767578 7.0839844 A 1 1 0 0 0 20.251953 8.4003906 C 20.73332 9.5021019 21 10.716974 21 12 C 21 16.98235 16.98235 21 12 21 C 9.541246 21 7.3237126 20.020301 5.6992188 18.427734 A 1.0001 1.0001 0 0 0 4 19.140625 L 4 22 A 1 1 0 0 0 5 23 A 1 1 0 0 0 6 22 L 6 20.982422 C 7.7503586 22.154868 9.7404175 23 12 23 C 18.06325 23 23 18.06325 23 12 C 23 10.438626 22.673018 8.9477381 22.083984 7.5996094 A 1 1 0 0 0 21.533203 7.0683594 A 1 1 0 0 0 21.148438 7 z M 12 9.25 C 10.493062 9.25 9.25 10.493062 9.25 12 C 9.25 13.506938 10.493062 14.75 12 14.75 C 13.506938 14.75 14.75 13.506938 14.75 12 C 14.75 10.493062 13.506938 9.25 12 9.25 z M 12 11.25 C 12.426058 11.25 12.75 11.573942 12.75 12 C 12.75 12.426058 12.426058 12.75 12 12.75 C 11.573942 12.75 11.25 12.426058 11.25 12 C 11.25 11.573942 11.573942 11.25 12 11.25 z " fill="currentColor"/>
</svg>
