<svg xmlns="http://www.w3.org/2000/svg" width="1em" height="1em" viewBox="0 0 24 24" fill="currentColor">
  <path d="M 12 1 C 5.9367104 1 1 5.9367104 1 12 C 1 18.063244 5.9367044 23 12 23 C 18.06325 23 23 18.06325 23 12 C 23 5.9367044 18.063244 1 12 1 z M 12 3 C 16.982356 3 21 7.0175956 21 12 C 21 16.98235 16.98235 21 12 21 C 7.0175956 21 3 16.982356 3 12 C 3 7.0175896 7.0175896 3 12 3 z M 9 6 A 1 1 0 0 0 8 7 A 1 1 0 0 0 9 8 L 13.703125 8 L 10.078125 16.611328 A 1 1 0 0 0 10.611328 17.921875 A 1 1 0 0 0 11.921875 17.388672 L 15.888672 7.9648438 C 15.961714 7.7912417 16 7.6049192 16 7.4160156 C 16 6.6459547 15.354109 6 14.583984 6 L 9 6 z " fill="currentColor"/>
</svg>
