<svg xmlns="http://www.w3.org/2000/svg" width="1em" height="1em" viewBox="0 0 24 24" fill="currentColor">
  <path d="M 12 2 C 11.358741 2 10.823883 2.4081404 10.490234 2.8085938 C 10.156586 3.209047 9.88167 3.6781069 9.515625 4.2773438 L 8.1777344 6.4667969 C 7.7710986 7.1325431 7.4508521 7.6414347 7.2304688 8.1582031 C 7.0100855 8.6749716 6.8839803 9.3723236 7.2070312 9.96875 C 7.5300848 10.565181 8.1994818 10.842004 8.7519531 10.925781 C 9.3044244 11.009559 9.8948598 11 10.662109 11 L 13.337891 11 C 14.105141 11 14.695578 11.009601 15.248047 10.925781 C 15.800515 10.842001 16.469875 10.565104 16.792969 9.96875 C 17.115982 9.3723291 16.989916 8.6749716 16.769531 8.1582031 C 16.549148 7.6414347 16.228921 7.1325501 15.822266 6.4667969 L 14.484375 4.2773438 C 14.11833 3.6781069 13.843414 3.2090471 13.509766 2.8085938 C 13.176117 2.4081404 12.641259 2 12 2 z M 12 4.1308594 C 12.167045 4.3379986 12.423575 4.73922 12.777344 5.3183594 L 14.115234 7.5097656 C 14.521879 8.1755024 14.812095 8.6656697 14.929688 8.9414062 C 14.930436 8.9431659 14.933068 8.9442438 14.933594 8.9453125 L 14.933594 8.9433594 L 14.933594 8.9414062 L 14.935547 8.9414062 L 14.935547 8.9433594 C 14.935915 8.9441038 14.936975 8.9460155 14.9375 8.9472656 C 14.936418 8.9474255 14.934683 8.9471067 14.933594 8.9472656 C 14.646931 8.9888832 14.095489 9 13.337891 9 L 10.662109 9 C 9.9045145 9 9.3530819 8.9888834 9.0664062 8.9472656 C 9.0653163 8.9471066 9.0635823 8.9474256 9.0625 8.9472656 C 9.0630257 8.9460157 9.0640845 8.9441037 9.0644531 8.9433594 L 9.0644531 8.9414062 L 9.0664062 8.9414062 L 9.0664062 8.9433594 L 9.0664062 8.9453125 L 9.0683594 8.9453125 C 9.0688863 8.9442438 9.0695625 8.943166 9.0703125 8.9414062 C 9.1879068 8.6656704 9.4781314 8.1755094 9.8847656 7.5097656 L 11.222656 5.3183594 C 11.576425 4.73922 11.832955 4.3379986 12 4.1308594 z M 6.5 13 C 5.09554 13 4.1948898 12.930557 3.3339844 13.505859 C 3.0063879 13.724727 2.7247339 14.006393 2.5058594 14.333984 C 1.9305887 15.194859 2 16.0955 2 17.5 C 2 18.9045 1.930589 19.805141 2.5058594 20.666016 C 2.7247339 20.993607 3.0063879 21.275273 3.3339844 21.494141 C 4.1948898 22.069443 5.09554 22 6.5 22 C 7.90446 22 8.8051102 22.069443 9.6660156 21.494141 C 9.9936121 21.275273 10.275266 20.993607 10.494141 20.666016 C 11.069411 19.805141 11 18.9045 11 17.5 C 11 16.0955 11.069411 15.194859 10.494141 14.333984 C 10.275266 14.006393 9.9936121 13.724727 9.6660156 13.505859 C 8.8051102 12.930557 7.90446 13 6.5 13 z M 17.5 13 C 15.026563 13 13 15.026563 13 17.5 C 13 19.973437 15.026563 22 17.5 22 C 19.973437 22 22 19.973437 22 17.5 C 22 15.026563 19.973437 13 17.5 13 z M 6.5 15 C 7.90446 15 8.406693 15.06907 8.5546875 15.167969 C 8.663851 15.240899 8.7590658 15.336104 8.8320312 15.445312 C 8.9308805 15.593237 9 16.0955 9 17.5 C 9 18.9045 8.9308805 19.406764 8.8320312 19.554688 C 8.7590657 19.663896 8.663851 19.759099 8.5546875 19.832031 C 8.406693 19.930929 7.90446 20 6.5 20 C 5.09554 20 4.593307 19.930929 4.4453125 19.832031 C 4.336149 19.759099 4.2409342 19.663896 4.1679688 19.554688 C 4.0691195 19.406764 4 18.9045 4 17.5 C 4 16.0955 4.0691195 15.593236 4.1679688 15.445312 C 4.2409342 15.336104 4.336149 15.240901 4.4453125 15.167969 C 4.593307 15.069071 5.09554 15 6.5 15 z M 17.5 15 C 18.892557 15 20 16.107443 20 17.5 C 20 18.892557 18.892557 20 17.5 20 C 16.107443 20 15 18.892557 15 17.5 C 15 16.107443 16.107443 15 17.5 15 z " fill="currentColor"/>
</svg>
