<svg xmlns="http://www.w3.org/2000/svg" width="1em" height="1em" viewBox="0 0 24 24" fill="currentColor">
  <path d="M 11.529297 1 C 9.7546018 1 8.4029459 0.99266849 7.2578125 1.15625 C 6.1126791 1.3198315 5.1098348 1.7055633 4.375 2.4863281 C 3.6401633 3.2670946 3.2978497 4.2901263 3.1464844 5.4863281 C 2.995119 6.6825299 3 8.11438 3 10 L 3 19 A 1 1 0 0 0 3.0078125 19.130859 C 3.0784023 21.267798 4.8469788 23 7 23 L 17 23 C 19.153054 23 20.921599 21.26778 20.992188 19.130859 A 1 1 0 0 0 21 19 L 21 10 C 21 8.11438 21.0049 6.6825336 20.853516 5.4863281 C 20.702144 4.2901227 20.359861 3.2670917 19.625 2.4863281 C 18.890187 1.7055508 17.887317 1.3198318 16.742188 1.15625 C 15.597058 0.99266821 14.245403 1 12.470703 1 L 11.529297 1 z M 11.529297 3 L 12.470703 3 C 14.245403 3 15.555718 3.0074099 16.460938 3.1367188 C 17.366159 3.2660295 17.802135 3.4666292 18.169922 3.8574219 C 18.537761 4.2482383 18.744837 4.7540236 18.869141 5.7363281 C 18.993444 6.7186327 19 8.11438 19 10 L 19 15.541016 C 18.410486 15.197487 17.726832 15 17 15 L 7 15 C 6.2731729 15 5.5895169 15.197483 5 15.541016 L 5 10 C 5 8.11438 5.0065597 6.7186363 5.1308594 5.7363281 C 5.255159 4.7540199 5.4622548 4.2482354 5.8300781 3.8574219 C 6.1978934 3.4666167 6.6338359 3.2660297 7.5390625 3.1367188 C 8.4442891 3.0074078 9.7546018 3 11.529297 3 z M 9.5 5 C 8.5453395 5 7.75 5.7953395 7.75 6.75 C 7.75 7.7046605 8.5453395 8.5 9.5 8.5 C 10.45466 8.5 11.25 7.7046605 11.25 6.75 C 11.25 5.7953395 10.45466 5 9.5 5 z M 14.5 5 C 13.545336 5 12.75 5.7953234 12.75 6.75 C 12.75 7.7046766 13.545336 8.5 14.5 8.5 C 15.454664 8.5 16.25 7.7046766 16.25 6.75 C 16.25 5.7953234 15.454664 5 14.5 5 z M 9 9 C 7.3550085 9 6 10.354975 6 12 A 1.0001 1.0001 0 0 0 7 13 L 12 13 A 1.0001 1.0001 0 0 0 13 12 C 13 10.354993 11.645007 9 10 9 L 9 9 z M 14.5 9 A 1.0001 1.0001 0 0 0 13.5 10 L 13.5 11 L 13.5 12 A 1.0001 1.0001 0 0 0 14.5 13 L 17 13 A 1.0001 1.0001 0 0 0 18 12 C 18 10.354993 16.645007 9 15 9 L 14.5 9 z M 7 17 L 17 17 C 18.116493 17 19 17.883507 19 19 C 19 20.116493 18.116493 21 17 21 L 7 21 C 5.8835752 21 5.0000034 20.11647 5 19 C 5 17.883527 5.8835731 17 7 17 z M 7.25 17.75 C 6.5716244 17.75 6 18.321567 6 19 C 6 19.678433 6.5716244 20.25 7.25 20.25 C 7.9283756 20.25 8.5 19.678433 8.5 19 C 8.5 18.321567 7.9283756 17.75 7.25 17.75 z M 10.75 17.75 C 10.071712 17.75 9.5 18.321712 9.5 19 C 9.5 19.678288 10.071712 20.25 10.75 20.25 C 11.428288 20.25 12 19.678288 12 19 C 12 18.321712 11.428288 17.75 10.75 17.75 z " fill="currentColor"/>
</svg>
