<svg xmlns="http://www.w3.org/2000/svg" width="1em" height="1em" viewBox="0 0 24 24" fill="currentColor">
  <path d="M 12 1 C 11.248073 1 10.511971 1.07633 9.8007812 1.2207031 A 1 1 0 0 0 9.0195312 2.3984375 A 1 1 0 0 0 10.199219 3.1796875 C 10.780429 3.0617005 11.382127 3 12 3 C 16.983268 3 21 7.0181786 21 12 C 21 16.981799 16.983265 21 12 21 C 11.382166 21 10.780544 20.93825 10.199219 20.820312 A 1 1 0 0 0 9.0195312 21.601562 A 1 1 0 0 0 9.8007812 22.779297 C 10.511856 22.923559 11.248034 23 12 23 C 18.064135 23 23 18.062601 23 12 C 23 5.9373814 18.064132 1 12 1 z M 6.4394531 2.6484375 A 1 1 0 0 0 5.9492188 2.8125 C 4.7028494 3.6348231 3.6348231 4.7028494 2.8125 5.9492188 A 1 1 0 0 0 3.0957031 7.3339844 A 1 1 0 0 0 4.4824219 7.0507812 C 5.1554388 6.0307106 6.0307106 5.1554388 7.0507812 4.4824219 A 1 1 0 0 0 7.3339844 3.0957031 A 1 1 0 0 0 6.4394531 2.6484375 z M 12 6.5 C 9.4049023 6.5 7.25 8.571117 7.25 11.136719 C 7.25 12.557236 7.9150994 13.806677 9.0078125 14.736328 C 9.5869437 15.22895 10.822555 16.509618 11.15625 17.035156 A 1.0001 1.0001 0 0 0 12.826172 17.0625 C 13.211332 16.496734 14.429006 15.215389 14.992188 14.736328 C 16.084914 13.80667 16.75 12.557207 16.75 11.136719 C 16.75 8.571127 14.59515 6.5 12 6.5 z M 12 8.5 C 13.54705 8.5 14.75 9.6857901 14.75 11.136719 C 14.75 12.01303 14.477585 12.547353 13.695312 13.212891 C 13.184805 13.647146 12.580618 14.376683 11.998047 15.046875 C 11.410462 14.372252 10.799673 13.633936 10.304688 13.212891 C 9.5224001 12.547342 9.25 12.013001 9.25 11.136719 C 9.25 9.6858001 10.453038 8.5 12 8.5 z M 2.1386719 9.0019531 A 1 1 0 0 0 1.2207031 9.8007812 C 1.0763301 10.511971 1 11.248073 1 12 C 1 12.751927 1.07633 13.488029 1.2207031 14.199219 A 1 1 0 0 0 2.3984375 14.980469 A 1 1 0 0 0 3.1796875 13.800781 C 3.0617005 13.219571 3 12.617873 3 12 C 3 11.382127 3.0617005 10.780429 3.1796875 10.199219 A 1 1 0 0 0 2.3984375 9.0195312 A 1 1 0 0 0 2.1386719 9.0019531 z M 12.009766 9.75 C 11.331477 9.75 10.759766 10.321712 10.759766 11 C 10.759766 11.678288 11.331477 12.25 12.009766 12.25 C 12.688054 12.25 13.259766 11.678288 13.259766 11 C 13.259766 10.321712 12.688054 9.75 12.009766 9.75 z M 3.5878906 16.501953 A 1 1 0 0 0 3.0957031 16.666016 A 1 1 0 0 0 2.8125 18.050781 C 3.6348205 19.297125 4.7028589 20.36515 5.9492188 21.1875 A 1 1 0 0 0 7.3339844 20.904297 A 1 1 0 0 0 7.0507812 19.517578 C 6.0307011 18.844528 5.1554414 17.969275 4.4824219 16.949219 A 1 1 0 0 0 3.5878906 16.501953 z " fill="currentColor"/>
</svg>
