<svg xmlns="http://www.w3.org/2000/svg" width="1em" height="1em" viewBox="0 0 24 24" fill="currentColor">
  <path d="M 12 1 C 10.016513 1 8.1898367 1.5956377 6.5800781 2.5175781 C 6.1121957 2.2186558 5.5910129 2 5 2 C 3.3549904 2 2 3.3549904 2 5 C 2 5.8760426 2.3811549 6.6767588 2.9863281 7.2246094 C 3.5175298 7.7054963 4.2310358 8 5 8 C 6.6450096 8 8 6.6450096 8 5 C 8 4.6882267 7.7751958 4.4685356 7.6855469 4.1835938 C 8.9744083 3.4698683 10.417805 3 12 3 C 12.617873 3 13.219571 3.061701 13.800781 3.1796875 A 1 1 0 0 0 14.980469 2.3984375 A 1 1 0 0 0 14.199219 1.2207031 C 13.488029 1.0763301 12.751927 1 12 1 z M 19 2 C 18.123973 2 17.323262 2.3810497 16.775391 2.9863281 C 16.294584 3.517491 16 4.2309841 16 5 C 16 6.6449915 17.354975 8 19 8 C 19.313318 8 19.521725 7.7550136 19.806641 7.6640625 C 20.527555 8.9578414 21 10.40925 21 12 C 21 12.617834 20.93825 13.219456 20.820312 13.800781 A 1 1 0 0 0 21.601562 14.980469 A 1 1 0 0 0 22.779297 14.199219 C 22.923559 13.488144 23 12.751966 23 12 C 23 9.9534705 22.385104 8.0617639 21.408203 6.4179688 C 21.672169 5.9720986 22 5.5509343 22 5 C 22 3.3550085 20.645025 2 19 2 z M 5 4 C 5.3004174 4 5.5581165 4.126753 5.7421875 4.3300781 C 5.9037606 4.5085564 6 4.7362842 6 5 C 6 5.5641304 5.5641304 6 5 6 C 4.7362842 6 4.5085564 5.9037606 4.3300781 5.7421875 C 4.1267713 5.5581381 4 5.3004174 4 5 C 4 4.4358696 4.4358696 4 5 4 z M 19 4 C 19.564175 4 20 4.4358515 20 5 C 20 5.5641485 19.564175 6 19 6 C 18.435825 6 18 5.5641485 18 5 C 18 4.7363359 18.09622 4.5085953 18.257812 4.3300781 C 18.441741 4.1268766 18.699627 4 19 4 z M 11.994141 8 C 10.274737 8 8.6732116 8.6402116 7.3691406 9.7011719 A 1 1 0 0 0 7.2246094 11.109375 A 1 1 0 0 0 8.6308594 11.253906 C 9.6244484 10.445546 10.766144 10 11.994141 10 C 13.225955 10 14.371542 10.448569 15.367188 11.261719 A 1 1 0 0 0 16.775391 11.119141 A 1 1 0 0 0 16.632812 9.7128906 C 15.326457 8.6459803 13.718926 8 11.994141 8 z M 2.1386719 9.0019531 A 1 1 0 0 0 1.2207031 9.8007812 C 1.0763301 10.511971 1 11.248073 1 12 C 1 13.983511 1.5956406 15.810165 2.5175781 17.419922 C 2.2186365 17.887821 2 18.408997 2 19 C 2 20.645025 3.3550085 22 5 22 C 5.8759859 22 6.6767296 21.618951 7.2246094 21.013672 C 7.7055852 20.482432 8 19.768944 8 19 C 8 17.354975 6.6449915 16 5 16 C 4.6882057 16 4.4685312 16.224798 4.1835938 16.314453 C 3.4698657 15.025588 3 13.582224 3 12 C 3 11.382127 3.0617005 10.780429 3.1796875 10.199219 A 1 1 0 0 0 2.3984375 9.0195312 A 1 1 0 0 0 2.1386719 9.0019531 z M 11.994141 11.361328 C 11.019804 11.361328 10.095775 11.650486 9.2988281 12.144531 A 1 1 0 0 0 8.9746094 13.521484 A 1 1 0 0 0 10.351562 13.84375 C 10.861876 13.527395 11.409677 13.361328 11.994141 13.361328 C 12.581517 13.361328 13.132095 13.528136 13.644531 13.847656 A 1 1 0 0 0 15.023438 13.529297 A 1 1 0 0 0 14.703125 12.152344 C 13.903361 11.653664 12.973364 11.361328 11.994141 11.361328 z M 12 15 A 1 1 0 0 0 11 16 A 1 1 0 0 0 12 17 L 12.005859 17 A 1 1 0 0 0 13.005859 16 A 1 1 0 0 0 12.005859 15 L 12 15 z M 19 16 C 17.354993 16 16 17.354993 16 19 C 16 19.311786 16.224802 19.531466 16.314453 19.816406 C 15.02559 20.530139 13.582224 21 12 21 C 11.382166 21 10.780544 20.93825 10.199219 20.820312 A 1 1 0 0 0 9.0195312 21.601562 A 1 1 0 0 0 9.8007812 22.779297 C 10.511856 22.923559 11.248034 23 12 23 C 13.983511 23 15.810163 22.404368 17.419922 21.482422 C 17.887849 21.781384 18.409036 22 19 22 C 20.645007 22 22 20.645007 22 19 C 22 18.124029 21.619074 17.323292 21.013672 16.775391 C 20.482471 16.294495 19.768995 16 19 16 z M 5 18 C 5.5641485 18 6 18.435825 6 19 C 6 19.263656 5.903672 19.491562 5.7421875 19.669922 C 5.5581472 19.873243 5.3004741 20 5 20 C 4.4358515 20 4 19.564175 4 19 C 4 18.699627 4.1268766 18.441741 4.3300781 18.257812 C 4.5085953 18.09622 4.7363359 18 5 18 z M 19 18 C 19.263605 18 19.491523 18.09631 19.669922 18.257812 C 19.87312 18.441712 20 18.699571 20 19 C 20 19.564193 19.564193 20 19 20 C 18.699571 20 18.441712 19.87312 18.257812 19.669922 C 18.096308 19.491523 18 19.263605 18 19 C 18 18.435807 18.435807 18 19 18 z " fill="currentColor"/>
</svg>
