<svg xmlns="http://www.w3.org/2000/svg" width="1em" height="1em" viewBox="0 0 24 24" fill="currentColor">
  <path d="M 12.076172 2.0019531 C 11.587538 1.9812177 11.1066 2.1741085 10.75 2.4824219 C 9.3461754 3.6961854 7.2226564 6.3710938 7.2226562 6.3710938 A 1 1 0 0 0 7.3710938 7.7773438 A 1 1 0 0 0 8.7773438 7.6289062 C 8.7773438 7.6289062 10.033999 6.2301409 11.033203 5.1308594 L 11.033203 15 A 1 1 0 0 0 12.033203 16 A 1 1 0 0 0 13.033203 15 L 13.033203 5.2050781 C 14.006054 6.2822749 15.222656 7.6289062 15.222656 7.6289062 A 1 1 0 0 0 16.628906 7.7773438 A 1 1 0 0 0 16.777344 6.3710938 C 16.777344 6.3710938 14.653149 3.6961235 13.25 2.4824219 C 12.930581 2.2062882 12.514302 2.020537 12.076172 2.0019531 z M 8 10 C 6.59987 10 5.7594889 9.9480778 4.9101562 10.380859 C 4.2517806 10.716345 3.7163766 11.251692 3.3808594 11.910156 C 2.9481211 12.759497 3 13.5999 3 15 L 3 16 C 3 17.1785 2.9928504 18.082883 3.0996094 18.876953 C 3.2063685 19.671023 3.4696253 20.418791 4.0253906 20.974609 C 4.5811923 21.530381 5.3289817 21.793636 6.1230469 21.900391 C 6.9171124 22.007145 7.82149 22 9 22 L 15 22 C 16.1785 22 17.082887 22.007101 17.876953 21.900391 C 18.671019 21.793636 19.418787 21.530356 19.974609 20.974609 C 20.530356 20.418787 20.793636 19.671019 20.900391 18.876953 C 21.007145 18.082888 21 17.1785 21 16 L 21 15 C 21 13.5999 21.05192 12.759506 20.619141 11.910156 C 20.283642 11.251755 19.748245 10.716358 19.089844 10.380859 C 18.240494 9.9480852 17.4001 10 16 10 A 1 1 0 0 0 15 11 A 1 1 0 0 0 16 12 C 17.4001 12 17.96139 12.051839 18.181641 12.164062 C 18.464039 12.307963 18.692037 12.535961 18.835938 12.818359 C 18.948164 13.03861 19 13.5999 19 15 L 19 16 C 19 17.1785 18.994299 18.041866 18.917969 18.609375 C 18.841669 19.176884 18.737 19.384069 18.560547 19.560547 C 18.384068 19.737 18.176884 19.841673 17.609375 19.917969 C 17.041866 19.994265 16.1785 20 15 20 L 9 20 C 7.82149 20 6.9581298 19.994264 6.390625 19.917969 C 5.8231202 19.841673 5.6158914 19.736976 5.4394531 19.560547 C 5.2629884 19.384065 5.1583296 19.17688 5.0820312 18.609375 C 5.0057329 18.04187 5 17.1785 5 16 L 5 15 C 5 13.5999 5.0518408 13.038618 5.1640625 12.818359 C 5.3079252 12.536024 5.5359351 12.307975 5.8183594 12.164062 C 6.0385868 12.051843 6.59987 12 8 12 A 1 1 0 0 0 9 11 A 1 1 0 0 0 8 10 z " fill="currentColor"/>
</svg>
