<svg xmlns="http://www.w3.org/2000/svg" width="1em" height="1em" viewBox="0 0 24 24" fill="currentColor">
  <path d="M 13 1 C 11.355026 1 10 2.3549482 10 4 L 10 6.0957031 C 9.8226548 6.083451 9.682822 6 9.5 6 C 5.5238527 6 2 9.0555556 2 14 C 2 15.908331 2.700641 18.125158 4.3222656 19.914062 C 5.9438902 21.702968 8.5096769 23 12 23 C 17.645153 23 22 17.511031 22 12 C 22 9.2464739 20.915935 6.5590856 19.28125 4.5117188 C 17.646565 2.4643519 15.41912 1 13 1 z M 13 3 C 14.58088 3 16.353435 4.0497724 17.71875 5.7597656 C 19.084065 7.4697588 20 9.7829661 20 12 C 20 16.430169 16.296047 21 12 21 C 8.9903231 21 7.0561098 19.952982 5.8027344 18.570312 C 4.549359 17.187644 4 15.405369 4 14 C 4 9.9444444 6.4762473 8 9.5 8 C 11.011876 8 12.085996 8.5128383 12.832031 9.3085938 C 13.578067 10.104349 14 11.222233 14 12.5 C 14 13.25 13.696794 14.171123 13.115234 14.849609 C 12.533674 15.528096 11.722222 16 10.5 16 C 9.5325733 16 8.9933465 15.641556 8.59375 15.142578 C 8.1941535 14.6436 8 13.948914 8 13.5 C 8 12.659746 8.6597366 12 9.5 12 C 9.9978 12 10.42674 12.236214 10.701172 12.601562 A 1 1 0 0 0 12.101562 12.798828 A 1 1 0 0 0 12.298828 11.398438 C 11.66106 10.549384 10.6381 10 9.5 10 C 7.5788434 10 6 11.578854 6 13.5 C 6 14.431786 6.3058215 15.486731 7.03125 16.392578 C 7.7566785 17.298425 8.9674267 18 10.5 18 C 12.277778 18 13.716326 17.221904 14.634766 16.150391 C 15.553206 15.078877 16 13.75 16 12.5 C 16 10.777767 15.420018 9.145651 14.291016 7.9414062 C 13.681125 7.2908694 12.891827 6.8137737 12 6.4785156 L 12 4 C 12 3.4359118 12.435974 3 13 3 z " fill="currentColor"/>
</svg>
