<svg xmlns="http://www.w3.org/2000/svg" width="1em" height="1em" viewBox="0 0 24 24" fill="currentColor">
  <path d="M 12 1 C 9.3515055 1 6.8893069 1.5828292 4.8457031 2.5996094 C 3.9177231 3.0613294 3.1613975 3.4797157 2.5996094 4.3867188 C 1.997851 5.3582453 2 6.3423869 2 7.7480469 L 2 11.236328 C 2 14.344438 3.2636455 16.813229 4.8476562 18.619141 C 6.431667 20.425052 8.3261628 21.607842 9.7148438 22.322266 C 10.448476 22.699782 11.100341 23 12 23 C 12.899659 23 13.551441 22.699774 14.285156 22.322266 C 15.673834 21.607841 17.568347 20.425053 19.152344 18.619141 C 20.73634 16.813228 22 14.344436 22 11.236328 L 22 7.7480469 C 22 6.3423969 22.0021 5.3582515 21.400391 4.3867188 C 20.838589 3.479701 20.082179 3.0613204 19.154297 2.5996094 C 17.110644 1.5828371 14.648532 1 12 1 z M 12 3 C 14.353268 3 16.522524 3.5243573 18.263672 4.390625 C 19.19159 4.8523539 19.361821 4.8947309 19.699219 5.4394531 C 19.996665 5.9196805 20 6.3423969 20 7.7480469 L 20 11.236328 C 20 13.811621 18.993266 15.765591 17.648438 17.298828 C 16.30361 18.832066 14.611163 19.905946 13.369141 20.544922 C 12.635456 20.922414 12.553341 21 12 21 C 11.446659 21 11.364427 20.922405 10.630859 20.544922 C 9.3888306 19.905945 7.6964043 18.832066 6.3515625 17.298828 C 5.0067207 15.76559 4 13.811618 4 11.236328 L 4 7.7480469 C 4 6.3423869 4.0013865 5.9196666 4.2988281 5.4394531 C 4.63622 4.8947362 4.8083481 4.852345 5.7363281 4.390625 C 7.4774043 3.5243652 9.6467745 3 12 3 z M 12 6 C 10.355026 6 9 7.3549723 9 9 C 9 10.256678 9.893319 11.140598 11 11.583984 L 11 13.5 L 11 15 C 11 16.092827 11.907295 17 13 17 L 14 17 A 1 1 0 0 0 15 16 A 1 1 0 0 0 14 15 L 13 15 L 13 14.5 L 13.5 14.5 A 1 1 0 0 0 14.5 13.5 A 1 1 0 0 0 13.5 12.5 L 13 12.5 L 13 11.583984 C 14.106701 11.140589 15 10.25665 15 9 C 15 7.3550085 13.645025 6 12 6 z M 12 8 C 12.564175 8 13 8.4358515 13 9 C 13 9.5641932 12.564193 10 12 10 C 11.435956 10 11 9.564157 11 9 C 11 8.4358877 11.435974 8 12 8 z " fill="currentColor"/>
</svg>
