<svg xmlns="http://www.w3.org/2000/svg" width="1em" height="1em" viewBox="0 0 24 24" fill="currentColor">
  <path d="M 12 1 C 11.157604 1 10.569973 1.3525803 9.3710938 1.8847656 C 8.5270718 2.2594364 7.4693789 2.6703639 6.2753906 3.0097656 C 4.4479883 3.5292263 3.3527107 3.6943407 2.6054688 4.6835938 C 2.255314 5.1471624 2.1166412 5.6972366 2.0566406 6.2636719 C 1.9966401 6.8301072 2 7.46125 2 8.28125 L 2 11.183594 C 2 14.296154 3.4156079 16.799593 5.1132812 18.638672 C 6.8109548 20.477751 8.7972978 21.702548 10.126953 22.404297 C 10.734033 22.724686 11.289017 23 12 23 C 12.710983 23 13.265967 22.724686 13.873047 22.404297 C 15.202683 21.70255 17.189042 20.47775 18.886719 18.638672 C 20.584396 16.799594 22 14.296156 22 11.183594 L 22 8.28125 C 22 7.46125 22.003399 6.830105 21.943359 6.2636719 C 21.883359 5.6972387 21.744678 5.1471629 21.394531 4.6835938 C 20.6473 3.6943317 19.552013 3.5292265 17.724609 3.0097656 C 16.530624 2.6703619 15.472888 2.2594273 14.628906 1.8847656 C 13.430018 1.3525808 12.842396 1 12 1 z M 12 3 C 12.0056 3 12.617495 3.1806955 13.816406 3.7128906 C 14.731024 4.118909 15.87472 4.5631975 17.177734 4.9335938 C 19.005131 5.4530528 19.737858 5.8079539 19.798828 5.8886719 C 19.852778 5.9601029 19.914052 6.0872925 19.955078 6.4746094 C 19.996104 6.8619262 20 7.46125 20 8.28125 L 20 11.183594 C 20 13.696131 18.884492 15.692578 17.417969 17.28125 C 15.951446 18.869922 14.141017 20.000612 12.939453 20.634766 C 12.332333 20.955176 12.279817 21 12 21 C 11.720183 21 11.667667 20.955176 11.060547 20.634766 C 9.8589722 20.000614 8.0485503 18.869921 6.5820312 17.28125 C 5.1155123 15.692579 4 13.696133 4 11.183594 L 4 8.28125 C 4 7.46125 4.0038899 6.8619241 4.0449219 6.4746094 C 4.0859487 6.0872947 4.1472165 5.9601032 4.2011719 5.8886719 C 4.2621498 5.8079449 4.9948679 5.4530531 6.8222656 4.9335938 C 8.1252974 4.5631955 9.2689753 4.1188999 10.183594 3.7128906 C 11.382494 3.1806959 11.994396 3 12 3 z M 12 6 C 11.556675 6 11.290796 6.1657465 11.03125 6.2929688 L 8.9453125 7.3144531 C 8.4837142 7.5406547 8.1211319 7.7089063 7.78125 7.9414062 C 7.4413681 8.1739062 7 8.6413611 7 9.25 L 7 13.75 C 7 14.358655 7.4413716 14.826103 7.78125 15.058594 C 8.1211284 15.291085 8.4837238 15.459348 8.9453125 15.685547 L 11.03125 16.707031 C 11.290796 16.834254 11.556675 17 12 17 C 12.443325 17 12.709204 16.834254 12.96875 16.707031 L 15.054688 15.685547 C 15.516286 15.459347 15.878868 15.291085 16.21875 15.058594 C 16.558632 14.826103 17 14.358655 17 13.75 L 17 9.25 C 17 8.6413518 16.558635 8.1739045 16.21875 7.9414062 C 15.878865 7.708908 15.516289 7.5406544 15.054688 7.3144531 L 12.96875 6.2929688 C 12.709204 6.1657464 12.443325 6 12 6 z M 12 8.046875 C 12.024948 8.0582328 12.054166 8.0713596 12.087891 8.0878906 A 1.0001 1.0001 0 0 0 12.087891 8.0898438 L 14.175781 9.1113281 C 14.30895 9.1765851 14.329944 9.1946341 14.439453 9.25 C 14.329946 9.305361 14.308949 9.323421 14.175781 9.3886719 L 12.087891 10.412109 C 12.054163 10.428642 12.024949 10.441766 12 10.453125 C 11.975052 10.441767 11.945833 10.42864 11.912109 10.412109 L 9.8242188 9.3886719 C 9.6910523 9.3234208 9.6700528 9.3053613 9.5605469 9.25 C 9.6700539 9.1946339 9.6910517 9.1765853 9.8242188 9.1113281 L 11.912109 8.0898438 A 1.0001 1.0001 0 0 0 11.912109 8.0878906 C 11.945836 8.0713583 11.975051 8.0582335 12 8.046875 z M 9 11.212891 L 11 12.191406 L 11 14.464844 L 9.8242188 13.888672 C 9.4079245 13.684669 9.1460906 13.545521 9 13.455078 L 9 11.212891 z M 15 11.212891 L 15 13.455078 C 14.853908 13.545518 14.592083 13.684669 14.175781 13.888672 L 13 14.464844 L 13 12.191406 L 15 11.212891 z " fill="currentColor"/>
</svg>
