<svg xmlns="http://www.w3.org/2000/svg" width="1em" height="1em" viewBox="0 0 24 24" fill="currentColor">
  <path d="M 8.5507812 1 C 7.1935611 1 6.3049339 0.94887376 5.4492188 1.4921875 C 4.5935089 2.0354979 4.2798144 2.8673826 3.7578125 4.0605469 L 3.0839844 5.5996094 A 1 1 0 0 0 3.0742188 5.6269531 A 1.0001 1.0001 0 0 0 3.0449219 5.7050781 A 1 1 0 0 0 3.0351562 5.7441406 A 1.0001 1.0001 0 0 0 3.015625 5.8339844 A 1 1 0 0 0 3.0097656 5.8613281 A 1.0001 1.0001 0 0 0 3.0019531 5.9511719 A 1 1 0 0 0 3 5.9902344 A 1.0001 1.0001 0 0 0 3 6 L 3 9.8769531 C 3 11.320028 2.99343 12.422445 3.1230469 13.371094 C 3.2033365 13.95871 3.3516781 14.512407 3.6074219 15 L 3 15 A 1 1 0 0 0 2 16 A 1 1 0 0 0 3 17 L 18 17 C 19.116493 17 20 17.883507 20 19 C 20 20.116493 19.116493 21 18 21 L 3 21 A 1 1 0 0 0 2 22 A 1 1 0 0 0 3 23 L 18 23 C 20.197307 23 22 21.197307 22 19 C 22 16.931456 20.403265 15.211922 18.382812 15.017578 C 18.644466 14.52556 18.79566 13.966068 18.876953 13.371094 C 19.00657 12.422448 19 11.320028 19 9.8769531 L 19 6 A 1.0001 1.0001 0 0 0 19 5.9902344 A 1 1 0 0 0 18.998047 5.9511719 A 1.0001 1.0001 0 0 0 18.988281 5.8496094 A 1 1 0 0 0 18.984375 5.8339844 A 1.0001 1.0001 0 0 0 18.964844 5.7441406 A 1 1 0 0 0 18.955078 5.7050781 A 1.0001 1.0001 0 0 0 18.916016 5.5996094 L 18.242188 4.0605469 C 17.720188 2.8673869 17.40645 2.0355128 16.550781 1.4921875 C 15.695053 0.9489271 14.806419 1 13.449219 1 L 8.5507812 1 z M 8.5507812 3 L 13.449219 3 C 14.806419 3 15.276044 3.051148 15.478516 3.1796875 C 15.680847 3.3081622 15.888156 3.6701212 16.410156 4.8632812 L 16.470703 5 L 5.5292969 5 L 5.5898438 4.8632812 C 6.1118419 3.6701255 6.3191142 3.3081771 6.5214844 3.1796875 C 6.7238493 3.0512012 7.1935612 3 8.5507812 3 z M 5 7 L 17 7 L 17 9.8769531 C 17 11.320028 16.9927 12.382971 16.894531 13.101562 C 16.796351 13.820153 16.651134 14.130447 16.386719 14.390625 C 16.122304 14.650803 15.796185 14.799168 15.060547 14.896484 C 14.324909 14.993801 13.243944 15 11.777344 15 L 10.222656 15 C 8.7560765 15 7.6750876 14.993801 6.9394531 14.896484 C 6.2038187 14.799168 5.8777157 14.650814 5.6132812 14.390625 C 5.3488583 14.130445 5.203654 13.820152 5.1054688 13.101562 C 5.0072835 12.382972 5 11.320028 5 9.8769531 L 5 7 z M 9.5 8 A 1 1 0 0 0 8.5 9 A 1 1 0 0 0 9.5 10 L 12.5 10 A 1 1 0 0 0 13.5 9 A 1 1 0 0 0 12.5 8 L 9.5 8 z M 5 17.75 C 4.3216244 17.75 3.75 18.321567 3.75 19 C 3.75 19.678433 4.3216244 20.25 5 20.25 C 5.6783756 20.25 6.25 19.678433 6.25 19 C 6.25 18.321567 5.6783756 17.75 5 17.75 z M 11 17.75 C 10.321712 17.75 9.75 18.321712 9.75 19 C 9.75 19.678288 10.321712 20.25 11 20.25 C 11.678288 20.25 12.25 19.678288 12.25 19 C 12.25 18.321712 11.678288 17.75 11 17.75 z M 17 17.75 C 16.321712 17.75 15.75 18.321712 15.75 19 C 15.75 19.678288 16.321712 20.25 17 20.25 C 17.678288 20.25 18.25 19.678288 18.25 19 C 18.25 18.321712 17.678288 17.75 17 17.75 z " fill="currentColor"/>
</svg>
