<svg xmlns="http://www.w3.org/2000/svg" width="1em" height="1em" viewBox="0 0 24 24" fill="currentColor">
  <path d="M 18 1 C 15.245 1 13 3.2745478 13 6.0410156 C 13 7.578193 13.682502 8.9212323 14.835938 9.9433594 C 15.429474 10.469291 16.270825 11.487151 16.716797 12.21875 C 16.948808 12.599271 17.397239 13 17.994141 13 C 18.591042 13 19.02366 12.61434 19.265625 12.244141 C 19.761124 11.485897 20.586282 10.455329 21.164062 9.9433594 C 22.317497 8.9212323 23 7.578193 23 6.0410156 C 23 3.2745478 20.755 1 18 1 z M 18 3 C 19.6632 3 21 4.3446634 21 6.0410156 C 21 7.0556983 20.682503 7.6951196 19.835938 8.4453125 C 19.154636 9.0490131 18.541806 9.889967 17.998047 10.660156 C 17.45008 9.8697308 16.825808 9.0316834 16.164062 8.4453125 C 15.317497 7.6951196 15 7.0556983 15 6.0410156 C 15 4.3446634 16.3368 3 18 3 z M 18 4.75 C 17.321567 4.75 16.75 5.3216244 16.75 6 C 16.75 6.6783756 17.321567 7.25 18 7.25 C 18.678433 7.25 19.25 6.6783756 19.25 6 C 19.25 5.3216244 18.678433 4.75 18 4.75 z M 6 11 C 5.05719 11 4.3297904 10.993601 3.671875 11.082031 C 3.0139596 11.170491 2.3614738 11.396322 1.8789062 11.878906 C 1.3963405 12.361481 1.1704861 13.013964 1.0820312 13.671875 C 0.99357648 14.329786 1 15.0572 1 16 L 1 18 C 1 18.9428 0.99357625 19.670214 1.0820312 20.328125 C 1.1704862 20.986036 1.3963405 21.63852 1.8789062 22.121094 C 2.3614739 22.603678 3.0139596 22.829512 3.671875 22.917969 C 4.3297906 23.006425 5.05719 23 6 23 L 8 23 C 8.94281 23 9.6702137 23.006399 10.328125 22.917969 C 10.986036 22.829509 11.638525 22.603662 12.121094 22.121094 C 12.603666 21.638521 12.829512 20.986038 12.917969 20.328125 C 13.006425 19.670211 13 18.9428 13 18 L 13 16 C 13 15.0572 13.006399 14.329788 12.917969 13.671875 C 12.829509 13.013962 12.603666 12.361479 12.121094 11.878906 C 11.638524 11.396338 10.986036 11.170488 10.328125 11.082031 C 9.6702137 10.993574 8.94281 11 8 11 L 6 11 z M 6 13 L 8 13 C 8.94281 13 9.629213 13.006503 10.060547 13.064453 C 10.491881 13.122443 10.6038 13.189737 10.707031 13.292969 C 10.810259 13.396196 10.877553 13.508116 10.935547 13.939453 C 10.99354 14.370793 11 15.0572 11 16 L 11 18 C 11 18.9428 10.993497 19.62921 10.935547 20.060547 C 10.877557 20.491884 10.810259 20.603804 10.707031 20.707031 C 10.6038 20.810263 10.491881 20.877554 10.060547 20.935547 C 9.62921 20.99354 8.94281 21 8 21 L 6 21 C 5.05719 21 4.3707927 20.99354 3.9394531 20.935547 C 3.5081136 20.877553 3.3961812 20.810247 3.2929688 20.707031 C 3.1897445 20.603805 3.1224458 20.491886 3.0644531 20.060547 C 3.0064604 19.629208 3 18.9428 3 18 L 3 16 C 3 15.0572 3.0064601 14.370792 3.0644531 13.939453 C 3.1224461 13.508114 3.1897445 13.396195 3.2929688 13.292969 C 3.3961813 13.189753 3.5081136 13.122447 3.9394531 13.064453 C 4.3707927 13.00646 5.05719 13 6 13 z M 6 14 A 1 1 0 0 0 5 15 A 1 1 0 0 0 6 16 L 8 16 A 1 1 0 0 0 9 15 A 1 1 0 0 0 8 14 L 6 14 z M 18 14 A 1 1 0 0 0 17 15 L 17 18 C 17 18.9428 16.995996 19.634764 16.947266 20.087891 C 16.898526 20.541017 16.820832 20.700516 16.75 20.789062 C 16.68233 20.873632 16.68941 20.884232 16.427734 20.933594 C 16.166053 20.982953 15.682059 20.999455 15 21 A 1 1 0 0 0 14 22 A 1 1 0 0 0 15 23 C 15.694041 22.999445 16.250705 23.0018 16.798828 22.898438 C 17.346951 22.795047 17.932666 22.513791 18.3125 22.039062 C 18.710268 21.541811 18.867131 20.936905 18.935547 20.300781 C 19.003963 19.664658 19 18.9428 19 18 L 19 15 A 1 1 0 0 0 18 14 z " fill="currentColor"/>
</svg>
