<svg xmlns="http://www.w3.org/2000/svg" width="1em" height="1em" viewBox="0 0 24 24" fill="currentColor">
  <path d="M 9.015625 2 A 1 1 0 0 0 8.1425781 2.4863281 L 5.4335938 7 L 2.5 7 L 1.5 7 A 1 1 0 0 0 0.5 8 A 1 1 0 0 0 1.5 9 L 1.6523438 9 L 2.6777344 15.150391 C 2.8772746 16.347642 3.0251826 17.266742 3.2597656 18.054688 C 3.4943487 18.842634 3.8540681 19.543562 4.4550781 20.052734 C 5.0561161 20.561865 5.8072603 20.80245 6.6230469 20.904297 C 7.4388334 21.006144 8.3682762 21 9.5820312 21 L 12 21 A 1 1 0 0 0 13 20 A 1 1 0 0 0 12 19 L 9.5820312 19 C 8.3682761 19 7.4788722 18.993847 6.8710938 18.917969 C 6.2633154 18.842091 5.9862389 18.72716 5.7480469 18.525391 C 5.5098169 18.323563 5.3505483 18.071404 5.1757812 17.484375 C 5.0010143 16.897346 4.8499304 16.019515 4.6503906 14.822266 L 3.6796875 9 L 5.984375 9 L 20.320312 9 L 19.847656 11.835938 A 1 1 0 0 0 20.667969 12.986328 A 1 1 0 0 0 21.820312 12.164062 L 22.347656 9 L 22.5 9 A 1 1 0 0 0 23.5 8 A 1 1 0 0 0 22.5 7 L 21.5 7 L 18.566406 7 L 15.857422 2.4863281 A 1 1 0 0 0 14.486328 2.1425781 A 1 1 0 0 0 14.142578 3.5136719 L 16.234375 7 L 7.765625 7 L 9.8574219 3.5136719 A 1 1 0 0 0 9.5136719 2.1425781 A 1 1 0 0 0 9.015625 2 z M 8 11 A 1 1 0 0 0 7 12 L 7 16 A 1 1 0 0 0 8 17 A 1 1 0 0 0 9 16 L 9 12 A 1 1 0 0 0 8 11 z M 12 11 A 1 1 0 0 0 11 12 L 11 16 A 1 1 0 0 0 12 17 A 1 1 0 0 0 13 16 L 13 12 A 1 1 0 0 0 12 11 z M 22.052734 14 A 1 1 0 0 0 21.666016 14.056641 C 19.836087 14.704747 18.551009 16.375825 17.603516 17.828125 C 17.123744 18.56351 17.095962 18.719084 16.833984 19.232422 C 16.613539 18.999812 16.38788 18.556764 16.179688 18.417969 C 15.906849 18.236076 15.653398 18.129207 15.447266 18.070312 C 15.241133 18.011418 15 18 15 18 A 1 1 0 0 0 14 19 A 1 1 0 0 0 14.908203 19.996094 C 14.932119 20.004252 14.986429 20.026114 15.070312 20.082031 C 15.274636 20.218247 15.665097 20.566523 16.105469 21.447266 A 1.0001 1.0001 0 0 0 17.916016 21.398438 C 17.916016 21.398438 18.432666 20.219575 19.279297 18.921875 C 20.125928 17.624175 21.340413 16.295253 22.333984 15.943359 A 1 1 0 0 0 22.943359 14.666016 A 1 1 0 0 0 22.052734 14 z " fill="currentColor"/>
</svg>
