<svg xmlns="http://www.w3.org/2000/svg" width="1em" height="1em" viewBox="0 0 24 24" fill="currentColor">
  <path d="M 11 1 C 9.3471005 1 8.1007795 2.2697029 7.2851562 3.8378906 C 6.9453885 4.4911575 6.6658052 5.2204425 6.4550781 6 C 5.7669043 6.0012186 5.1971774 6.0114058 4.671875 6.0820312 C 4.0139614 6.1704861 3.3614753 6.3963289 2.8789062 6.8789062 C 2.3963287 7.3614754 2.170486 8.0139614 2.0820312 8.671875 C 1.9935764 9.3297886 2 10.05719 2 11 L 2 15 C 2 16.6499 1.99335 17.908225 2.1367188 18.974609 C 2.2800906 20.040994 2.6161378 20.979371 3.3183594 21.681641 C 4.0206014 22.383869 4.9590094 22.719914 6.0253906 22.863281 C 7.0917719 23.006649 8.350085 23 10 23 L 11.5 23 A 1 1 0 0 0 12.5 22 A 1 1 0 0 0 11.5 21 L 10 21 C 8.350085 21 7.132785 20.993767 6.2929688 20.880859 C 5.4531525 20.767952 5.0552999 20.59045 4.7324219 20.267578 C 4.4095135 19.944648 4.2320512 19.546847 4.1191406 18.707031 C 4.0062301 17.867215 4 16.6499 4 15 L 4 11 C 4 10.05719 4.0064604 9.3707945 4.0644531 8.9394531 C 4.1224459 8.5081117 4.1897562 8.3961795 4.2929688 8.2929688 C 4.3961796 8.1897561 4.5081117 8.1224459 4.9394531 8.0644531 C 5.2153714 8.0273566 5.5950756 8.0106277 6.0800781 8.0039062 C 6.0268894 8.4942608 6 8.9951237 6 9.5 A 1 1 0 0 0 7 10.5 A 1 1 0 0 0 8 9.5 C 8 8.9934139 8.0355134 8.4896023 8.0996094 8 L 13.900391 8 C 13.964486 8.4896026 14 8.9934142 14 9.5 A 1 1 0 0 0 15 10.5 A 1 1 0 0 0 16 9.5 C 16 8.9951234 15.97311 8.4942606 15.919922 8.0039062 C 16.404923 8.0106276 16.784631 8.0273566 17.060547 8.0644531 C 17.491886 8.1224461 17.603805 8.1897445 17.707031 8.2929688 C 17.810247 8.3961812 17.877553 8.5081136 17.935547 8.9394531 C 17.99354 9.3707928 18 10.05719 18 11 L 18 13.5 A 1 1 0 0 0 19 14.5 A 1 1 0 0 0 20 13.5 L 20 11 C 20 10.05719 20.006399 9.3297904 19.917969 8.671875 C 19.829511 8.0139596 19.603678 7.3614738 19.121094 6.8789062 C 18.63852 6.3963405 17.986036 6.1704861 17.328125 6.0820312 C 16.802826 6.0114059 16.233091 6.0012186 15.544922 6 C 15.334195 5.2204422 15.054614 4.4911573 14.714844 3.8378906 C 13.899216 2.2697047 12.652889 1 11 1 z M 11 3 C 11.556211 3 12.309309 3.5464021 12.941406 4.7617188 C 13.133159 5.130396 13.305381 5.5477615 13.453125 6 L 8.546875 6 C 8.6946191 5.5477613 8.8668428 5.1303958 9.0585938 4.7617188 C 9.6906855 3.546404 10.44376 3 11 3 z M 21.052734 15 A 1 1 0 0 0 20.666016 15.056641 C 18.836087 15.704747 17.551009 17.375825 16.603516 18.828125 C 16.123744 19.56351 16.095962 19.719084 15.833984 20.232422 C 15.613539 19.999812 15.387879 19.556764 15.179688 19.417969 C 14.906849 19.236076 14.653398 19.129208 14.447266 19.070312 C 14.241133 19.011419 14 19 14 19 A 1 1 0 0 0 13 20 A 1 1 0 0 0 13.908203 20.996094 C 13.932119 21.004252 13.986429 21.026114 14.070312 21.082031 C 14.274636 21.218247 14.665097 21.566523 15.105469 22.447266 A 1.0001 1.0001 0 0 0 16.916016 22.398438 C 16.916016 22.398438 17.432666 21.219575 18.279297 19.921875 C 19.125928 18.624175 20.340413 17.295253 21.333984 16.943359 A 1 1 0 0 0 21.943359 15.666016 A 1 1 0 0 0 21.052734 15 z " fill="currentColor"/>
</svg>
