<svg xmlns="http://www.w3.org/2000/svg" width="1em" height="1em" viewBox="0 0 24 24" fill="currentColor">
  <path d="M 12 1 C 8.8664664 1 6.277395 3.4300495 6.0214844 6.5 L 5.0898438 6.5 C 4.5517888 6.5 4.1279792 6.4926345 3.6933594 6.5585938 C 3.2587396 6.624553 2.7288275 6.833242 2.3984375 7.2539062 C 2.0680533 7.6745603 1.9872528 8.2084187 2.0019531 8.6523438 C 2.0166531 9.0962688 2.0968211 9.5369258 2.1914062 10.101562 L 3.3554688 17.042969 C 3.5605288 18.26712 3.7117965 19.204513 3.9433594 20.001953 C 4.1749223 20.799393 4.5180431 21.500739 5.1015625 22.021484 C 5.6729403 22.531471 6.3992407 22.794304 7.1777344 22.900391 C 7.9562281 23.006477 8.833505 23 10 23 L 12 23 A 1 1 0 0 0 13 22 A 1 1 0 0 0 12 21 L 10 21 C 8.833505 21 8.0004202 20.993082 7.4492188 20.917969 C 6.8980174 20.842856 6.6742659 20.74411 6.4335938 20.529297 C 6.2050532 20.325342 6.0397934 20.051219 5.8632812 19.443359 C 5.7877057 19.183098 5.7159968 18.869562 5.6425781 18.5 L 10.5 18.5 A 1 1 0 0 0 11.5 17.5 A 1 1 0 0 0 10.5 16.5 L 5.2910156 16.5 L 4.1640625 9.7695312 C 4.0694777 9.2048973 4.0070672 8.799355 4 8.5859375 C 3.9993582 8.5665553 3.9983241 8.5501514 3.9980469 8.5351562 C 4.1762422 8.5089407 4.5563358 8.5 5.0898438 8.5 L 18.910156 8.5 C 19.443659 8.5 19.823756 8.5089429 20.001953 8.5351562 C 20.001676 8.5501513 20.000642 8.5665553 20 8.5859375 C 19.9929 8.7993396 19.93054 9.2048959 19.835938 9.7695312 L 19.574219 11.333984 A 1 1 0 0 0 20.394531 12.486328 A 1 1 0 0 0 21.546875 11.666016 L 21.808594 10.101562 C 21.903195 9.5369277 21.983341 9.0962842 21.998047 8.6523438 C 22.012753 8.2084032 21.931991 7.6745587 21.601562 7.2539062 C 21.271179 6.8331781 20.741263 6.624553 20.306641 6.5585938 C 19.872018 6.4926346 19.448206 6.5 18.910156 6.5 L 17.978516 6.5 C 17.722604 3.4300455 15.133519 1 12 1 z M 12 3 C 14.051519 3 15.725202 4.5179389 15.96875 6.5 L 8.03125 6.5 C 8.2747944 4.5179353 9.9484586 3 12 3 z M 17.435547 13.001953 A 1.0001 1.0001 0 0 0 16.945312 13.167969 C 16.945312 13.167969 15.666667 14 14 14 A 1.0001 1.0001 0 0 0 13 15 L 13 17.5 C 13 19.583333 14.095752 21.034777 15.132812 21.849609 C 16.169871 22.664442 17.224609 22.960938 17.224609 22.960938 A 1.0001 1.0001 0 0 0 17.775391 22.960938 C 17.775391 22.960938 18.830129 22.664442 19.867188 21.849609 C 20.904248 21.034777 22 19.583333 22 17.5 L 22 15 A 1.0001 1.0001 0 0 0 21 14 C 19.333333 14 18.054688 13.167969 18.054688 13.167969 A 1.0001 1.0001 0 0 0 17.435547 13.001953 z M 17.5 15.113281 C 17.948721 15.363894 18.773381 15.603298 20 15.798828 L 20 17.5 C 20 18.916667 19.345753 19.715223 18.632812 20.275391 C 18.059103 20.726162 17.6974 20.82231 17.5 20.890625 C 17.3026 20.82231 16.940897 20.726162 16.367188 20.275391 C 15.654247 19.715223 15 18.916667 15 17.5 L 15 15.798828 C 16.226619 15.603298 17.051279 15.363894 17.5 15.113281 z " fill="currentColor"/>
</svg>
