<svg xmlns="http://www.w3.org/2000/svg" width="1em" height="1em" viewBox="0 0 24 24" fill="currentColor">
  <path d="M 9.015625 2 A 1 1 0 0 0 8.1425781 2.4863281 L 5.4335938 7 L 2.5 7 L 1.5 7 A 1 1 0 0 0 0.5 8 A 1 1 0 0 0 1.5 9 L 1.6523438 9 L 2.6777344 15.150391 C 2.8772746 16.347642 3.0251844 17.266743 3.2597656 18.054688 C 3.4943469 18.842634 3.854074 19.543561 4.4550781 20.052734 C 5.0561195 20.561862 5.8072594 20.80245 6.6230469 20.904297 C 7.4388343 21.006144 8.3682762 21 9.5820312 21 L 14 21 A 1 1 0 0 0 15 20 A 1 1 0 0 0 14 19 L 9.5820312 19 C 8.3682761 19 7.4788738 18.993847 6.8710938 18.917969 C 6.2633138 18.842091 5.9862455 18.727163 5.7480469 18.525391 C 5.509821 18.323564 5.3505476 18.071405 5.1757812 17.484375 C 5.001015 16.897345 4.8499304 16.019515 4.6503906 14.822266 L 3.6796875 9 L 5.984375 9 L 20.320312 9 L 19.763672 12.335938 A 1 1 0 0 0 20.585938 13.486328 A 1 1 0 0 0 21.736328 12.664062 L 22.347656 9 L 22.5 9 A 1 1 0 0 0 23.5 8 A 1 1 0 0 0 22.5 7 L 21.5 7 L 18.566406 7 L 15.857422 2.4863281 A 1 1 0 0 0 14.486328 2.1425781 A 1 1 0 0 0 14.142578 3.5136719 L 16.234375 7 L 7.765625 7 L 9.8574219 3.5136719 A 1 1 0 0 0 9.5136719 2.1425781 A 1 1 0 0 0 9.015625 2 z M 8 11 A 1 1 0 0 0 7 12 L 7 16 A 1 1 0 0 0 8 17 A 1 1 0 0 0 9 16 L 9 12 A 1 1 0 0 0 8 11 z M 12 11 A 1 1 0 0 0 11 12 L 11 16 A 1 1 0 0 0 12 17 A 1 1 0 0 0 13 16 L 13 12 A 1 1 0 0 0 12 11 z M 19 14 A 1 1 0 0 0 18 15 L 18 17 L 16 17 A 1 1 0 0 0 15 18 A 1 1 0 0 0 16 19 L 18 19 L 18 21 A 1 1 0 0 0 19 22 A 1 1 0 0 0 20 21 L 20 19 L 22 19 A 1 1 0 0 0 23 18 A 1 1 0 0 0 22 17 L 20 17 L 20 15 A 1 1 0 0 0 19 14 z " fill="currentColor"/>
</svg>
