<svg xmlns="http://www.w3.org/2000/svg" width="1em" height="1em" viewBox="0 0 24 24" fill="currentColor">
  <path d="M 12 1 C 8.8664664 1 6.277395 3.4300495 6.0214844 6.5 L 5.0898438 6.5 C 4.5517888 6.5 4.1279792 6.4926345 3.6933594 6.5585938 C 3.2587396 6.624553 2.7288275 6.833242 2.3984375 7.2539062 C 2.0680533 7.6745603 1.9872528 8.2084187 2.0019531 8.6523438 C 2.0166531 9.0962688 2.0968211 9.5369258 2.1914062 10.101562 L 3.3554688 17.042969 C 3.5605288 18.26712 3.7117965 19.204513 3.9433594 20.001953 C 4.1749223 20.799393 4.5180431 21.500739 5.1015625 22.021484 C 5.6729403 22.531471 6.3992407 22.794304 7.1777344 22.900391 C 7.9562281 23.006477 8.833505 23 10 23 A 1 1 0 0 0 11 22 A 1 1 0 0 0 10 21 C 8.833505 21 8.0004202 20.993082 7.4492188 20.917969 C 6.8980174 20.842856 6.6742659 20.74411 6.4335938 20.529297 C 6.2050532 20.325342 6.0397934 20.051219 5.8632812 19.443359 C 5.7877057 19.183098 5.7159968 18.869562 5.6425781 18.5 L 9.5 18.5 A 1 1 0 0 0 10.5 17.5 A 1 1 0 0 0 9.5 16.5 L 5.2910156 16.5 L 4.1640625 9.7695312 C 4.0694777 9.2048973 4.0070672 8.799355 4 8.5859375 C 3.9993582 8.5665553 3.9983241 8.5501514 3.9980469 8.5351562 C 4.1762422 8.5089407 4.5563358 8.5 5.0898438 8.5 L 18.910156 8.5 C 19.443659 8.5 19.823756 8.5089429 20.001953 8.5351562 C 20.001676 8.5501513 20.000642 8.5665553 20 8.5859375 C 19.9929 8.7993396 19.93054 9.2048959 19.835938 9.7695312 L 19.574219 11.333984 A 1 1 0 0 0 20.394531 12.486328 A 1 1 0 0 0 21.546875 11.666016 L 21.808594 10.101562 C 21.903195 9.5369277 21.983341 9.0962842 21.998047 8.6523438 C 22.012753 8.2084032 21.931991 7.6745587 21.601562 7.2539062 C 21.271179 6.8331781 20.741263 6.624553 20.306641 6.5585938 C 19.872018 6.4926346 19.448206 6.5 18.910156 6.5 L 17.978516 6.5 C 17.722604 3.4300455 15.133519 1 12 1 z M 12 3 C 14.051519 3 15.725202 4.5179389 15.96875 6.5 L 8.03125 6.5 C 8.2747944 4.5179353 9.9484586 3 12 3 z M 14.326172 13.029297 C 13.77712 13.069199 13.196481 13.238591 12.623047 13.585938 C 11.442974 14.300895 10.829623 15.76108 11.042969 17.332031 C 11.256314 18.902983 12.270679 20.589441 14.261719 22.044922 C 14.609631 22.299281 14.897406 22.516444 15.255859 22.699219 C 15.614313 22.881994 16.057792 23 16.5 23 C 16.942208 23 17.385687 22.881994 17.744141 22.699219 C 18.102594 22.516444 18.390369 22.299281 18.738281 22.044922 C 20.729321 20.589441 21.743686 18.902983 21.957031 17.332031 C 22.170377 15.76108 21.557026 14.300896 20.376953 13.585938 C 18.904323 12.693914 17.412645 13.00742 16.5 13.625 C 16.061193 13.328063 15.509859 13.081028 14.863281 13.03125 C 14.688732 13.017812 14.509189 13.015996 14.326172 13.029297 z M 14.632812 14.978516 C 14.670931 14.978694 14.708106 14.98086 14.744141 14.984375 C 15.032418 15.012495 15.255929 15.141216 15.439453 15.277344 C 15.569178 15.373524 15.669507 15.451431 15.792969 15.53125 C 15.916431 15.61107 16.041579 15.763672 16.5 15.763672 C 16.958421 15.763672 17.083569 15.611069 17.207031 15.53125 C 17.330493 15.45143 17.430822 15.373525 17.560547 15.277344 C 17.927596 15.005088 18.455402 14.761139 19.339844 15.296875 C 19.74347 15.541416 20.099439 16.143327 19.974609 17.0625 C 19.84978 17.981673 19.218601 19.21477 17.556641 20.429688 C 17.208753 20.684029 16.974306 20.846419 16.833984 20.917969 C 16.693663 20.98952 16.661292 21 16.5 21 C 16.338708 21 16.306337 20.989519 16.166016 20.917969 C 16.025694 20.846419 15.791247 20.684029 15.443359 20.429688 C 13.781399 19.214769 13.15022 17.981673 13.025391 17.0625 C 12.900561 16.143327 13.25653 15.541416 13.660156 15.296875 C 14.0471 15.06249 14.365983 14.977264 14.632812 14.978516 z " fill="currentColor"/>
</svg>
