<svg xmlns="http://www.w3.org/2000/svg" width="1em" height="1em" viewBox="0 0 24 24" fill="currentColor">
  <path d="M 11 1 C 9.3471005 1 8.1007795 2.2697029 7.2851562 3.8378906 C 6.9453885 4.4911575 6.6658052 5.2204425 6.4550781 6 C 5.7669043 6.0012186 5.1971774 6.0114058 4.671875 6.0820312 C 4.0139614 6.1704861 3.3614753 6.3963289 2.8789062 6.8789062 C 2.3963287 7.3614754 2.170486 8.0139614 2.0820312 8.671875 C 1.9935764 9.3297886 2 10.05719 2 11 L 2 15 C 2 16.6499 1.99335 17.908225 2.1367188 18.974609 C 2.2800906 20.040994 2.6161378 20.979371 3.3183594 21.681641 C 4.0206014 22.383869 4.9590094 22.719914 6.0253906 22.863281 C 7.0917719 23.006649 8.350085 23 10 23 L 13.5 23 A 1 1 0 0 0 14.5 22 A 1 1 0 0 0 13.5 21 L 10 21 C 8.350085 21 7.132785 20.993767 6.2929688 20.880859 C 5.4531525 20.767952 5.0552999 20.59045 4.7324219 20.267578 C 4.4095135 19.944648 4.2320512 19.546847 4.1191406 18.707031 C 4.0062301 17.867215 4 16.6499 4 15 L 4 11 C 4 10.05719 4.0064604 9.3707945 4.0644531 8.9394531 C 4.1224459 8.5081117 4.1897562 8.3961795 4.2929688 8.2929688 C 4.3961796 8.1897561 4.5081117 8.1224459 4.9394531 8.0644531 C 5.2153714 8.0273566 5.5950756 8.0106277 6.0800781 8.0039062 C 6.0268894 8.4942608 6 8.9951237 6 9.5 A 1 1 0 0 0 7 10.5 A 1 1 0 0 0 8 9.5 C 8 8.9934139 8.0355134 8.4896023 8.0996094 8 L 13.900391 8 C 13.964486 8.4896026 14 8.9934142 14 9.5 A 1 1 0 0 0 15 10.5 A 1 1 0 0 0 16 9.5 C 16 8.9951234 15.97311 8.4942606 15.919922 8.0039062 C 16.404923 8.0106276 16.784631 8.0273566 17.060547 8.0644531 C 17.491886 8.1224461 17.603805 8.1897445 17.707031 8.2929688 C 17.810247 8.3961812 17.877553 8.5081136 17.935547 8.9394531 C 17.99354 9.3707928 18 10.05719 18 11 L 18 12 A 1 1 0 0 0 19 13 A 1 1 0 0 0 20 12 L 20 11 C 20 10.05719 20.006399 9.3297904 19.917969 8.671875 C 19.829511 8.0139596 19.603678 7.3614738 19.121094 6.8789062 C 18.63852 6.3963405 17.986036 6.1704861 17.328125 6.0820312 C 16.802826 6.0114059 16.233091 6.0012186 15.544922 6 C 15.334195 5.2204422 15.054614 4.4911573 14.714844 3.8378906 C 13.899216 2.2697047 12.652889 1 11 1 z M 11 3 C 11.556211 3 12.309309 3.5464021 12.941406 4.7617188 C 13.133159 5.130396 13.305381 5.5477615 13.453125 6 L 8.546875 6 C 8.6946191 5.5477613 8.8668428 5.1303958 9.0585938 4.7617188 C 9.6906855 3.546404 10.44376 3 11 3 z M 18 14 C 17.01141 14 16.085753 14.226562 15.300781 14.636719 C 14.99152 14.798298 14.544757 15.078162 14.289062 15.511719 C 13.995648 16.009093 14 16.519819 14 17.011719 L 14 18.232422 C 14 20.729062 15.889998 22.127387 16.916016 22.681641 C 17.160423 22.813636 17.575857 23 18 23 C 18.424143 23 18.839577 22.813636 19.083984 22.681641 C 20.110002 22.127387 22 20.729062 22 18.232422 L 22 17.011719 C 22 16.519719 22.0044 16.009093 21.710938 15.511719 C 21.455243 15.078162 21.00848 14.798298 20.699219 14.636719 C 19.914247 14.226562 18.98859 14 18 14 z M 18 16 C 18.67861 16 19.296809 16.161113 19.773438 16.410156 C 19.921527 16.487529 19.966527 16.501165 19.978516 16.501953 L 19.978516 16.503906 L 19.978516 16.505859 C 19.979353 16.51003 19.982366 16.517313 19.988281 16.527344 C 19.994668 16.53817 20 16.519719 20 17.011719 L 20 18.232422 C 20 19.714182 18.860595 20.528728 18.132812 20.921875 C 18.050978 20.966356 18.017347 20.98903 18.005859 21 C 18.004155 20.999863 18.002349 21 18 21 C 17.997206 21 17.996032 20.999809 17.994141 21 L 17.992188 21 C 17.980057 20.988777 17.94738 20.965463 17.867188 20.921875 L 17.865234 20.921875 C 17.137452 20.528507 16 19.713433 16 18.232422 L 16 17.011719 C 16 16.519819 16.005299 16.53817 16.011719 16.527344 C 16.018578 16.515712 16.021123 16.507906 16.021484 16.503906 L 16.021484 16.501953 C 16.034619 16.500656 16.081558 16.485915 16.226562 16.410156 C 16.703191 16.161113 17.32139 16 18 16 z " fill="currentColor"/>
</svg>
