<svg xmlns="http://www.w3.org/2000/svg" width="1em" height="1em" viewBox="0 0 24 24" fill="currentColor">
  <path d="M 9.015625 2.5 A 1 1 0 0 0 8.1425781 2.9863281 L 5.4335938 7.5 L 1.5 7.5 A 1 1 0 0 0 0.5 8.5 A 1 1 0 0 0 1.5 9.5 L 1.6523438 9.5 L 2.6777344 15.650391 C 2.8772746 16.847642 3.0251826 17.766742 3.2597656 18.554688 C 3.4943487 19.342634 3.8540681 20.043562 4.4550781 20.552734 C 5.0561161 21.061865 5.8072603 21.30245 6.6230469 21.404297 C 7.4388334 21.506144 8.3682762 21.5 9.5820312 21.5 L 14.417969 21.5 C 15.631769 21.5 16.561171 21.506097 17.376953 21.404297 C 18.192735 21.302449 18.943903 21.061867 19.544922 20.552734 C 20.145973 20.043563 20.50565 19.342638 20.740234 18.554688 C 20.974819 17.766738 21.122717 16.847635 21.322266 15.650391 L 22.347656 9.5 L 22.5 9.5 A 1 1 0 0 0 23.5 8.5 A 1 1 0 0 0 22.5 7.5 L 18.566406 7.5 L 15.857422 2.9863281 A 1 1 0 0 0 14.486328 2.6425781 A 1 1 0 0 0 14.142578 4.0136719 L 16.234375 7.5 L 7.765625 7.5 L 9.8574219 4.0136719 A 1 1 0 0 0 9.5136719 2.6425781 A 1 1 0 0 0 9.015625 2.5 z M 3.6796875 9.5 L 5.984375 9.5 L 20.320312 9.5 L 19.349609 15.322266 C 19.150058 16.519521 18.998984 17.397351 18.824219 17.984375 C 18.649453 18.571399 18.490202 18.823562 18.251953 19.025391 C 18.013772 19.227158 17.736674 19.342091 17.128906 19.417969 C 16.521138 19.493846 15.631769 19.5 14.417969 19.5 L 9.5820312 19.5 C 8.3682761 19.5 7.4788723 19.493799 6.8710938 19.417969 C 6.2633153 19.34209 5.9862389 19.22716 5.7480469 19.025391 C 5.5098169 18.823563 5.3505483 18.571404 5.1757812 17.984375 C 5.0010143 17.397346 4.8499304 16.519515 4.6503906 15.322266 L 3.6796875 9.5 z M 8 11.5 A 1 1 0 0 0 7 12.5 L 7 16.5 A 1 1 0 0 0 8 17.5 A 1 1 0 0 0 9 16.5 L 9 12.5 A 1 1 0 0 0 8 11.5 z M 12 11.5 A 1 1 0 0 0 11 12.5 L 11 16.5 A 1 1 0 0 0 12 17.5 A 1 1 0 0 0 13 16.5 L 13 12.5 A 1 1 0 0 0 12 11.5 z M 16 11.5 A 1 1 0 0 0 15 12.5 L 15 16.5 A 1 1 0 0 0 16 17.5 A 1 1 0 0 0 17 16.5 L 17 12.5 A 1 1 0 0 0 16 11.5 z " fill="currentColor"/>
</svg>
