<svg xmlns="http://www.w3.org/2000/svg" width="1em" height="1em" viewBox="0 0 24 24" fill="currentColor">
  <path d="M 12 1.5 C 9.76083 1.5 8.061073 1.4944581 6.6542969 1.6835938 C 5.2475207 1.8727295 4.0688969 2.2982969 3.1835938 3.1835938 C 2.2982969 4.0688968 1.8727295 5.2475207 1.6835938 6.6542969 C 1.494458 8.061073 1.5 9.76083 1.5 12 C 1.5 14.23915 1.4944601 15.93892 1.6835938 17.345703 C 1.8727292 18.752486 2.2983047 19.931079 3.1835938 20.816406 C 4.0688995 21.70168 5.2475238 22.127276 6.6542969 22.316406 C 8.0610699 22.505536 9.76083 22.5 12 22.5 C 14.23915 22.5 15.938923 22.5055 17.345703 22.316406 C 18.752483 22.127277 19.931076 21.701673 20.816406 20.816406 C 21.701673 19.931076 22.127277 18.752483 22.316406 17.345703 C 22.505536 15.938923 22.5 14.23915 22.5 12 C 22.5 9.76083 22.5055 8.0610699 22.316406 6.6542969 C 22.127276 5.2475238 21.70168 4.0688995 20.816406 3.1835938 C 19.931079 2.2983046 18.752486 1.8727291 17.345703 1.6835938 C 15.93892 1.4944584 14.23915 1.5 12 1.5 z M 12 3.5 C 14.23915 3.5 15.897908 3.50539 17.078125 3.6640625 C 18.258342 3.8227371 18.896371 4.0917053 19.402344 4.5976562 C 19.90827 5.1036005 20.177267 5.7416656 20.335938 6.921875 C 20.494609 8.1020844 20.5 9.76083 20.5 12 C 20.5 14.23915 20.4946 15.897905 20.335938 17.078125 C 20.177267 18.258345 19.908277 18.896374 19.402344 19.402344 C 18.896374 19.908277 18.258345 20.177267 17.078125 20.335938 C 15.897905 20.494609 14.23915 20.5 12 20.5 C 9.76083 20.5 8.1020844 20.494608 6.921875 20.335938 C 5.7416656 20.177267 5.1036004 19.90827 4.5976562 19.402344 C 4.0917053 18.896371 3.8227371 18.258342 3.6640625 17.078125 C 3.5053879 15.897908 3.5 14.23915 3.5 12 C 3.5 9.76083 3.5053882 8.1020814 3.6640625 6.921875 C 3.8227368 5.7416686 4.091713 5.1036031 4.5976562 4.5976562 C 5.1036031 4.0917131 5.7416686 3.8227368 6.921875 3.6640625 C 8.1020814 3.5053882 9.76083 3.5 12 3.5 z M 16.445312 5.5019531 A 1 1 0 0 0 15.849609 5.7402344 A 1 1 0 0 0 15.740234 7.1503906 L 15.857422 7.2871094 C 14.998317 7.2849094 14.319579 7.2560264 13.677734 7.578125 C 12.952545 7.941966 12.579361 8.5223932 11.998047 9.3398438 A 1 1 0 0 0 12.232422 10.734375 A 1 1 0 0 0 13.626953 10.5 C 14.208239 9.6825905 14.415008 9.4451134 14.574219 9.3652344 A 1.0001 1.0001 0 0 0 14.576172 9.3652344 C 14.735114 9.2854487 15.092725 9.25 16.140625 9.25 L 18 9.25 A 1.0001 1.0001 0 0 0 18.759766 7.5996094 L 17.259766 5.8496094 A 1 1 0 0 0 16.576172 5.5039062 A 1 1 0 0 0 16.445312 5.5019531 z M 6 7.25 A 1 1 0 0 0 5 8.25 A 1 1 0 0 0 6 9.25 L 6.5253906 9.25 C 7.5733206 9.25 7.9326214 9.285371 8.0917969 9.3652344 C 8.2509626 9.4450944 8.4577845 9.6825728 9.0390625 10.5 L 11.998047 14.660156 C 12.579374 15.477694 12.952478 16.058099 13.677734 16.421875 C 14.319597 16.74404 14.998309 16.715089 15.857422 16.712891 L 15.740234 16.849609 A 1 1 0 0 0 15.849609 18.259766 A 1 1 0 0 0 17.259766 18.150391 L 18.759766 16.400391 A 1.0001 1.0001 0 0 0 18 14.75 L 16.140625 14.75 C 15.092725 14.75 14.73514 14.71456 14.576172 14.634766 A 1.0001 1.0001 0 0 0 14.574219 14.634766 C 14.415122 14.554942 14.208226 14.317462 13.626953 13.5 L 10.669922 9.3398438 C 10.08864 8.5224108 9.7134754 7.941985 8.9882812 7.578125 C 8.2630766 7.2142681 7.5733206 7.25 6.5253906 7.25 L 6 7.25 z M 9.8183594 13.080078 A 1 1 0 0 0 9.0390625 13.5 C 8.4577968 14.31748 8.2509045 14.554958 8.0917969 14.634766 C 7.9326606 14.714625 7.5733206 14.75 6.5253906 14.75 L 6 14.75 A 1 1 0 0 0 5 15.75 A 1 1 0 0 0 6 16.75 L 6.5253906 16.75 C 7.5733206 16.75 8.2630574 16.78581 8.9882812 16.421875 C 9.7135536 16.058082 10.088628 15.477676 10.669922 14.660156 A 1 1 0 0 0 10.433594 13.265625 A 1 1 0 0 0 9.8183594 13.080078 z " fill="currentColor"/>
</svg>
