<svg xmlns="http://www.w3.org/2000/svg" width="1em" height="1em" viewBox="0 0 24 24" fill="currentColor">
  <path d="M 19.599609 3 A 1 1 0 0 0 18.880859 3.2636719 A 1 1 0 0 0 18.822266 4.6777344 L 19.103516 4.9824219 C 18.039379 4.9370574 16.812482 4.90828 15.607422 5.609375 C 14.623645 6.1818166 14.045755 7.0849555 13.1875 8.4746094 A 1 1 0 0 0 13.513672 9.8515625 A 1 1 0 0 0 14.890625 9.5253906 C 15.73057 8.1653845 16.155459 7.604289 16.613281 7.3378906 C 17.377372 6.8933486 18.687445 7 20.064453 7 C 20.348003 7 20.572958 7.0094698 20.863281 6.9648438 C 21.008443 6.9425288 21.182749 6.9083907 21.390625 6.7890625 C 21.598501 6.6697344 21.822917 6.4263265 21.919922 6.171875 A 1.0001 1.0001 0 0 0 21.919922 6.1699219 C 22.113711 5.6608465 21.882512 5.1565528 21.71875 4.9199219 C 21.554993 4.6832875 21.391908 4.5167845 21.191406 4.2988281 L 20.292969 3.3222656 A 1 1 0 0 0 19.599609 3 z M 3 5 A 1 1 0 0 0 2 6 A 1 1 0 0 0 3 7 L 4.5800781 7 C 6.5079881 7 7.2664872 7.037265 7.7832031 7.3378906 C 8.2999081 7.6385132 8.7821751 8.3420713 9.8515625 10.085938 L 12.841797 14.960938 C 13.911201 16.704845 14.49714 17.744655 15.607422 18.390625 C 16.812492 19.091756 18.039383 19.062951 19.103516 19.017578 L 18.822266 19.322266 A 1 1 0 0 0 18.880859 20.736328 A 1 1 0 0 0 20.292969 20.677734 L 21.191406 19.701172 C 21.39188 19.4832 21.555008 19.316682 21.71875 19.080078 C 21.882492 18.843474 22.113699 18.33912 21.919922 17.830078 A 1.0001 1.0001 0 0 0 21.919922 17.828125 C 21.822922 17.573678 21.598503 17.330273 21.390625 17.210938 C 21.18275 17.091645 21.008447 17.057473 20.863281 17.035156 C 20.572951 16.990523 20.348003 17 20.064453 17 C 18.68743 17 17.37736 17.106664 16.613281 16.662109 C 16.096564 16.361479 15.616271 15.657954 14.546875 13.914062 L 11.556641 9.0390625 C 10.487248 7.2951882 9.8993576 6.2553525 8.7890625 5.609375 C 7.6787584 4.9634002 6.5079881 5 4.5800781 5 L 3 5 z M 10.388672 14 A 1 1 0 0 0 10.128906 14.027344 A 1 1 0 0 0 9.5078125 14.474609 C 8.6677874 15.83462 8.2410319 16.39575 7.7832031 16.662109 C 7.2664872 16.962735 6.5079881 17 4.5800781 17 L 3 17 A 1 1 0 0 0 2 18 A 1 1 0 0 0 3 19 L 4.5800781 19 C 6.5079881 19 7.6787584 19.0366 8.7890625 18.390625 C 9.7729937 17.818185 10.35069 16.91498 11.208984 15.525391 A 1 1 0 0 0 10.882812 14.148438 A 1 1 0 0 0 10.388672 14 z " fill="currentColor"/>
</svg>
