<svg xmlns="http://www.w3.org/2000/svg" width="1em" height="1em" viewBox="0 0 24 24" fill="currentColor">
  <path d="M 11 2 C 7.25027 2 5.1528416 1.9257667 3.4726562 3.1464844 C 2.9632979 3.5165602 2.5165602 3.963298 2.1464844 4.4726562 C 0.92576664 6.1528417 1 8.25027 1 12 C 1 15.7497 0.92575047 17.847174 2.1464844 19.527344 C 2.5165632 20.036742 2.9632896 20.483434 3.4726562 20.853516 C 5.1528418 22.074221 7.25027 22 11 22 L 13 22 C 16.7497 22 18.847174 22.07424 20.527344 20.853516 C 21.03675 20.483431 21.483431 20.03675 21.853516 19.527344 C 23.074237 17.847174 23 15.7497 23 12 C 23 8.25027 23.074221 6.1528419 21.853516 4.4726562 C 21.483434 3.9632897 21.036742 3.5165632 20.527344 3.1464844 C 18.847174 1.9257505 16.7497 2 13 2 L 11 2 z M 11 4 L 13 4 C 13.170981 4 13.337604 3.9996386 13.5 4 L 13.5 20 C 13.337604 20.000361 13.170981 20 13 20 L 11 20 C 7.25027 20 5.5969119 19.925423 4.6484375 19.236328 C 4.308864 18.98961 4.0103931 18.691164 3.7636719 18.351562 C 3.0745858 17.403132 3 15.7497 3 12 C 3 8.25027 3.0745696 6.596912 3.7636719 5.6484375 C 4.0103961 5.3088557 4.3088557 5.0103961 4.6484375 4.7636719 C 5.596912 4.0745696 7.25027 4 11 4 z M 15.5 4.0234375 C 17.55326 4.0784395 18.646963 4.2517421 19.351562 4.7636719 C 19.691164 5.0103931 19.98961 5.308864 20.236328 5.6484375 C 20.925423 6.5969119 21 8.25027 21 12 C 21 15.7497 20.92541 17.403132 20.236328 18.351562 C 19.989613 18.691157 19.691156 18.989613 19.351562 19.236328 C 18.646963 19.748253 17.55326 19.921559 15.5 19.976562 L 15.5 4.0234375 z M 17.5 6 A 1 1 0 0 0 16.5 7 A 1 1 0 0 0 17.5 8 L 19 8 A 1 1 0 0 0 20 7 A 1 1 0 0 0 19 6 L 17.5 6 z M 7.9257812 9.0019531 A 1 1 0 0 0 7.2421875 9.3476562 A 1 1 0 0 0 7.3476562 10.757812 L 8.5742188 11.814453 C 8.6832288 11.908403 8.702932 11.931313 8.7792969 12 C 8.7029319 12.06869 8.6832289 12.0916 8.5742188 12.185547 L 7.3476562 13.242188 A 1 1 0 0 0 7.2421875 14.652344 A 1 1 0 0 0 8.6523438 14.757812 L 9.8789062 13.701172 C 10.136754 13.478948 10.347805 13.304038 10.554688 13.070312 C 10.761568 12.836585 11 12.449314 11 12 C 11 11.550686 10.761569 11.163413 10.554688 10.929688 C 10.347805 10.69596 10.136754 10.521052 9.8789062 10.298828 L 8.6523438 9.2421875 A 1 1 0 0 0 7.9257812 9.0019531 z M 17.5 10 A 1 1 0 0 0 16.5 11 A 1 1 0 0 0 17.5 12 L 19 12 A 1 1 0 0 0 20 11 A 1 1 0 0 0 19 10 L 17.5 10 z " fill="currentColor"/>
</svg>
