<svg xmlns="http://www.w3.org/2000/svg" width="1em" height="1em" viewBox="0 0 24 24" fill="currentColor">
  <path d="M 9.5 2 A 1 1 0 0 0 9.3007812 2.0214844 C 8.0594442 2.0235233 6.9224555 2.0172651 6.046875 2.1210938 C 4.9831439 2.2472336 4.0614689 2.5316423 3.3007812 3.1308594 C 2.775993 3.5442582 2.3247843 4.0525372 1.9648438 4.6308594 C 0.92807472 6.2965922 1 8.31087 1 12 C 1 15.6891 0.92806005 17.703422 1.9648438 19.369141 C 2.3248078 19.94756 2.7760989 20.45574 3.3007812 20.869141 C 4.06147 21.468332 4.9831481 21.752772 6.046875 21.878906 C 6.922452 21.98273 8.0594433 21.976475 9.3007812 21.978516 A 1 1 0 0 0 9.5 22 A 1 1 0 0 0 9.6464844 21.988281 C 9.787031 21.988298 9.8533631 22 10 22 L 14 22 C 15.6396 22 16.887446 22.005 17.951172 21.878906 C 19.014898 21.752772 19.938513 21.46832 20.699219 20.869141 C 21.223907 20.455735 21.675186 19.947532 22.035156 19.369141 C 23.071914 17.703424 23 15.6891 23 12 C 23 8.31087 23.071899 6.2965908 22.035156 4.6308594 C 21.675209 4.0525656 21.224013 3.5442629 20.699219 3.1308594 C 19.938514 2.5316545 19.014902 2.2472335 17.951172 2.1210938 C 16.887442 1.9949538 15.6396 2 14 2 L 10 2 C 9.8533631 2 9.787031 2.011702 9.6464844 2.0117188 A 1 1 0 0 0 9.5 2 z M 10.5 4 L 14 4 C 15.6396 4 16.850352 4.00468 17.716797 4.1074219 C 18.583242 4.2101671 19.061296 4.3848368 19.462891 4.7011719 C 19.798097 4.9652284 20.095637 5.2982938 20.337891 5.6875 C 20.928748 6.6368286 21 8.31087 21 12 C 21 15.6891 20.92873 17.363217 20.337891 18.3125 C 20.095661 18.701709 19.798202 19.034634 19.462891 19.298828 C 19.061297 19.615148 18.583246 19.789837 17.716797 19.892578 C 16.850348 19.995319 15.6396 20 14 20 L 10.5 20 L 10.5 4 z M 8.5 4.0058594 L 8.5 19.994141 C 7.5913693 19.985141 6.8607902 19.961067 6.2832031 19.892578 C 5.4167551 19.789837 4.9386705 19.615136 4.5371094 19.298828 C 4.2017917 19.034629 3.9043054 18.70168 3.6621094 18.3125 C 3.0712531 17.363218 3 15.6891 3 12 C 3 8.31087 3.0712385 6.6368272 3.6621094 5.6875 C 3.9043288 5.2983221 4.2018976 4.965233 4.5371094 4.7011719 C 4.9386717 4.3848489 5.4167592 4.210167 6.2832031 4.1074219 C 6.8607877 4.0389305 7.591368 4.0148576 8.5 4.0058594 z M 5 6 A 1 1 0 0 0 4 7 A 1 1 0 0 0 5 8 L 6 8 A 1 1 0 0 0 7 7 A 1 1 0 0 0 6 6 L 5 6 z M 5 9 A 1 1 0 0 0 4 10 A 1 1 0 0 0 5 11 L 6 11 A 1 1 0 0 0 7 10 A 1 1 0 0 0 6 9 L 5 9 z " fill="currentColor"/>
</svg>
