<svg xmlns="http://www.w3.org/2000/svg" width="1em" height="1em" viewBox="0 0 24 24" fill="currentColor">
  <path d="M 13.125 2.0039062 C 12.981823 2.0095363 12.787522 2.0244704 12.46875 2.0839844 C 12.118 2.1494571 11.868475 2.2335029 11.541016 2.3457031 C 9.4977206 3.0457446 8.5203243 3.3420383 7.484375 4.0957031 C 5.9759018 5.1931314 4.0545146 6.9246025 3.4042969 9.0058594 C 2.9808213 10.361361 3 11.767231 3 14.394531 L 3 21 A 1 1 0 0 0 4 22 A 1 1 0 0 0 5 21 L 5 14.394531 C 5 11.767231 5.018496 10.542641 5.3125 9.6015625 C 5.6839822 8.4124994 7.3708095 6.6509024 8.6601562 5.7128906 C 9.4151068 5.1636555 10.128888 4.9442398 12.189453 4.2382812 C 12.516794 4.1261215 12.594287 4.0958888 12.835938 4.0507812 C 13.109566 3.9996952 13.059902 4.0095373 13.203125 4.0039062 C 13.500447 3.9922183 13.865727 4.008876 14.236328 4.09375 C 14.483816 4.15043 14.792983 4.2638028 15.449219 4.5117188 L 17.355469 5.2949219 C 17.604794 5.3973899 17.71877 5.6533603 17.630859 5.9082031 C 17.536889 6.1806029 17.268022 6.307519 16.998047 6.2070312 A 1 1 0 0 0 16.960938 6.2246094 A 1 1 0 0 0 16.943359 6.1894531 L 16.03125 5.90625 A 1.0001 1.0001 0 0 0 16.029297 5.90625 C 15.270967 5.6741697 14.480395 5.4840609 13.648438 5.5859375 C 12.822354 5.6870911 11.961602 6.0691846 11.150391 6.4199219 C 10.33918 6.7706591 9.6660156 7.1035156 9.6660156 7.1035156 A 1 1 0 0 0 9.2128906 8.4433594 A 1 1 0 0 0 10.552734 8.8964844 C 10.552734 8.8964844 11.185395 8.5835746 11.943359 8.2558594 C 12.701323 7.9281441 13.672762 7.599182 13.892578 7.5722656 C 14.220816 7.5320716 14.799328 7.6220816 15.441406 7.8183594 L 16.298828 8.0820312 L 16.310547 8.0859375 L 18.6875 8.9707031 C 18.936158 9.0632651 19.04596 9.2859665 18.984375 9.5175781 C 18.915155 9.7779068 18.648361 9.9338473 18.361328 9.8496094 L 16.21875 9.2226562 C 16.216249 9.2216885 16.21344 9.2216658 16.210938 9.2207031 L 16.166016 9.2070312 C 14.931551 8.7485106 13.490458 8.8889153 12.205078 9.4160156 C 10.889278 9.9555902 9.6171875 11.087068 9.6171875 12.724609 C 9.6171875 15.150282 12.338782 16.65016 14.470703 15.589844 C 15.343506 15.155736 16.157697 14.72427 16.857422 14.550781 C 17.557146 14.377292 18.076636 14.388797 18.759766 14.841797 C 18.809376 14.874697 18.811801 14.890721 18.837891 14.925781 L 16.179688 16.662109 A 1.0001 1.0001 0 0 0 16.095703 16.724609 C 15.813231 16.954452 14.565544 17.593211 13.839844 17.855469 A 1.0001 1.0001 0 0 0 13.818359 17.863281 C 13.818359 17.863281 11.554078 18.592465 11.027344 20.763672 A 1 1 0 0 0 11.763672 21.972656 A 1 1 0 0 0 12.972656 21.236328 C 13.172596 20.412179 14.525858 19.736066 14.541016 19.728516 C 15.420123 19.409473 16.516202 18.925855 17.273438 18.337891 L 17.275391 18.335938 C 17.284295 18.329015 17.295879 18.323358 17.304688 18.316406 L 20.107422 16.488281 A 1.0001 1.0001 0 0 0 20.191406 16.425781 C 20.754534 15.967507 21.002295 15.167886 20.859375 14.552734 C 20.716455 13.937583 20.335507 13.487665 19.865234 13.175781 C 18.713564 12.412081 17.437001 12.346064 16.375 12.609375 C 15.312999 12.872686 14.400375 13.390836 13.580078 13.798828 C 12.765599 14.203912 11.617188 13.575737 11.617188 12.724609 C 11.617188 12.127051 12.090266 11.623465 12.962891 11.265625 C 13.835516 10.907785 14.988755 10.886068 15.515625 11.095703 A 1.0001 1.0001 0 0 0 15.603516 11.125 L 17.796875 11.769531 C 19.129042 12.160493 20.560185 11.376901 20.917969 10.03125 C 21.241984 8.8127026 20.562907 7.5342611 19.384766 7.0957031 L 19.125 7 C 19.237921 6.830086 19.452191 6.7614108 19.521484 6.5605469 C 19.948573 5.3224697 19.326509 3.9431244 18.115234 3.4453125 L 16.203125 2.6601562 A 1.0001 1.0001 0 0 0 16.177734 2.6484375 C 15.496653 2.3909949 15.116143 2.2440413 14.681641 2.1445312 C 14.096641 2.0105495 13.560278 1.9867945 13.125 2.0039062 z " fill="currentColor"/>
</svg>
