<svg xmlns="http://www.w3.org/2000/svg" width="1em" height="1em" viewBox="0 0 24 24" fill="currentColor">
  <path d="M 12.859375 1 C 10.57117 1 8.833844 0.99390191 7.3984375 1.1816406 C 5.963031 1.3693794 4.7683298 1.7890508 3.8535156 2.6640625 C 3.7892458 2.7255364 3.7255364 2.7892458 3.6640625 2.8535156 C 2.7890508 3.7683298 2.3693794 4.963031 2.1816406 6.3984375 C 1.9939019 7.833844 2 9.57117 2 11.859375 L 2 13 C 2 16.7497 1.92575 18.847174 3.1464844 20.527344 C 3.5165632 21.036742 3.9632897 21.483434 4.4726562 21.853516 C 6.152842 23.074221 8.25027 23 12 23 C 15.7497 23 17.847174 23.07424 19.527344 21.853516 C 20.03675 21.483431 20.483431 21.03675 20.853516 20.527344 C 22.074237 18.847174 22 16.7497 22 13 L 22 9.8105469 C 22 8.4286269 22.030334 7.5786544 21.623047 6.7089844 C 21.215649 5.8393848 20.542067 5.3182827 19.480469 4.4335938 L 17.285156 2.6035156 C 16.482837 1.9348994 16.002661 1.5095423 15.3125 1.2519531 C 14.604372 0.98766875 13.946286 1 12.859375 1 z M 12.859375 3 C 13.941664 3 14.32681 3.020037 14.613281 3.1269531 C 14.88092 3.2268441 15.203579 3.4700881 16.005859 4.1386719 L 18.201172 5.96875 C 19.262773 6.8534412 19.651345 7.2168202 19.810547 7.5566406 C 19.96966 7.8963906 20 8.4286269 20 9.8105469 L 20 13 C 20 16.7497 19.92541 18.403132 19.236328 19.351562 C 18.989613 19.691157 18.691156 19.989613 18.351562 20.236328 C 17.403132 20.925407 15.7497 21 12 21 C 8.25027 21 6.5969119 20.925423 5.6484375 20.236328 C 5.308864 19.98961 5.0103931 19.691164 4.7636719 19.351562 C 4.0745858 18.403132 4 16.7497 4 13 L 4 11.859375 C 4 9.57117 4.0051162 7.8734691 4.1640625 6.6582031 C 4.3230088 5.4429371 4.5976467 4.7693808 5.109375 4.234375 C 5.150361 4.191525 5.191525 4.150361 5.234375 4.109375 C 5.7693808 3.5976467 6.4429371 3.3230088 7.6582031 3.1640625 C 8.8734691 3.0051162 10.57117 3 12.859375 3 z M 9.453125 13.001953 A 1 1 0 0 0 8.8554688 13.236328 L 7.7421875 14.175781 C 7.4462114 14.425782 7.2074929 14.619752 6.9804688 14.871094 C 6.7534446 15.122435 6.5 15.52712 6.5 16 C 6.5 16.47288 6.7534446 16.877565 6.9804688 17.128906 C 7.2074929 17.380248 7.4462114 17.574218 7.7421875 17.824219 L 8.8554688 18.763672 A 1 1 0 0 0 10.263672 18.644531 A 1 1 0 0 0 10.144531 17.236328 L 9.0332031 16.296875 C 8.8602418 16.15078 8.8027763 16.091951 8.7011719 16 C 8.8027763 15.908049 8.8602418 15.84922 9.0332031 15.703125 L 10.144531 14.763672 A 1 1 0 0 0 10.263672 13.355469 A 1 1 0 0 0 9.453125 13.001953 z M 14.546875 13.001953 A 1 1 0 0 0 13.736328 13.355469 A 1 1 0 0 0 13.855469 14.763672 L 14.966797 15.703125 C 15.13975 15.849225 15.197221 15.908044 15.298828 16 C 15.197221 16.09196 15.13975 16.150775 14.966797 16.296875 L 13.855469 17.236328 A 1 1 0 0 0 13.736328 18.644531 A 1 1 0 0 0 15.144531 18.763672 L 16.257812 17.824219 C 16.553753 17.574228 16.792516 17.380236 17.019531 17.128906 C 17.246547 16.877577 17.5 16.472912 17.5 16 C 17.5 15.527088 17.246547 15.122423 17.019531 14.871094 C 16.792516 14.619764 16.553752 14.425772 16.257812 14.175781 L 15.144531 13.236328 A 1 1 0 0 0 14.546875 13.001953 z " fill="currentColor"/>
</svg>
