<svg xmlns="http://www.w3.org/2000/svg" width="1em" height="1em" viewBox="0 0 24 24" fill="currentColor">
  <path d="M 7.8222656 2 C 6.4612132 2 5.3528572 2.8256054 4.6054688 3.8730469 C 3.8580803 4.9204883 3.3573681 6.2301838 2.9804688 7.609375 C 2.6732323 8.7336477 2.4532233 9.9020848 2.3007812 11 L 2 11 A 1 1 0 0 0 1 12 A 1 1 0 0 0 2 13 L 2.0859375 13 C 2.0256409 13.777871 2 14.460982 2 14.988281 A 1 1 0 0 0 3 15.988281 A 1 1 0 0 0 4 14.988281 C 4 14.493729 4.0297829 13.800235 4.0976562 13 L 5 13 A 1 1 0 0 0 6 12 A 1 1 0 0 0 5 11 L 4.328125 11 C 4.4677797 10.049415 4.6578563 9.0599622 4.9101562 8.1367188 C 5.2502331 6.8922724 5.7110094 5.7666836 6.234375 5.0332031 C 6.7577406 4.2997227 7.2285931 4 7.8222656 4 C 8.0385827 4 8.2245061 4.06556 8.5136719 4.3554688 C 8.8028376 4.645378 9.1364173 5.1644114 9.4472656 5.8808594 C 10.02729 7.2177085 10.529957 9.2163069 10.927734 11.626953 A 1 1 0 0 0 10 11 L 8 11 A 1 1 0 0 0 7 12 A 1 1 0 0 0 8 13 L 10 13 A 1 1 0 0 0 10.998047 12.064453 C 11.002651 12.093853 11.007145 12.12283 11.011719 12.152344 C 11.435501 14.886473 11.969573 17.19394 12.716797 18.916016 C 13.090409 19.777053 13.514759 20.4997 14.070312 21.056641 C 14.625866 21.613581 15.37144 22 16.177734 22 C 17.538771 22 18.647147 21.174379 19.394531 20.126953 C 20.141916 19.079527 20.642632 17.769804 21.019531 16.390625 C 21.326771 15.266349 21.546776 14.097915 21.699219 13 L 22 13 A 1 1 0 0 0 23 12 A 1 1 0 0 0 22 11 L 21.914062 11 C 21.974357 10.222146 22 9.5390385 22 9.0117188 A 1 1 0 0 0 21 8.0117188 A 1 1 0 0 0 20 9.0117188 C 20 9.5062978 19.970214 10.199786 19.902344 11 L 19 11 A 1 1 0 0 0 18 12 A 1 1 0 0 0 19 13 L 19.671875 13 C 19.53222 13.950585 19.342147 14.940035 19.089844 15.863281 C 18.749768 17.107714 18.288984 18.233332 17.765625 18.966797 C 17.242266 19.700262 16.771398 20 16.177734 20 C 15.961378 20 15.775506 19.93443 15.486328 19.644531 C 15.19715 19.354631 14.861644 18.835566 14.550781 18.119141 C 13.970724 16.782323 13.469848 14.783705 13.072266 12.373047 A 1 1 0 0 0 14 13 L 16 13 A 1 1 0 0 0 17 12 A 1 1 0 0 0 16 11 L 14 11 A 1 1 0 0 0 13.001953 11.935547 C 12.997349 11.906148 12.992856 11.877168 12.988281 11.847656 C 12.56455 9.113498 12.030384 6.8060983 11.283203 5.0839844 C 10.909613 4.2229274 10.485219 3.500319 9.9296875 2.9433594 C 9.3741561 2.3863998 8.6285636 2 7.8222656 2 z " fill="currentColor"/>
</svg>
