<svg xmlns="http://www.w3.org/2000/svg" width="1em" height="1em" viewBox="0 0 24 24" fill="currentColor">
  <path d="M 4 6 C 2.219879 6 1 7.6869376 1 9.5 C 1 11.313056 2.219873 13 4 13 L 5 13 C 5.429013 13 6 13.551656 6 14.5 C 6 15.448344 5.429013 16 5 16 L 4.5 16 C 3.9764202 16 3.4295278 15.587934 3.1523438 14.794922 A 1 1 0 0 0 1.8789062 14.181641 A 1 1 0 0 0 1.2636719 15.455078 C 1.7580478 16.869466 2.9732598 18 4.5 18 L 5 18 C 6.780127 18 8 16.313056 8 14.5 C 8 12.686944 6.780127 11 5 11 L 4 11 C 3.570987 11 3 10.448344 3 9.5 C 3 8.5516424 3.570981 8 4 8 L 4.5 8 C 4.9815145 8 5.474161 8.3381785 5.7753906 9.0195312 A 1 1 0 0 0 7.09375 9.5292969 A 1 1 0 0 0 7.6035156 8.2109375 C 7.0529852 6.9656902 5.9040855 6 4.5 6 L 4 6 z M 10 6 A 1 1 0 0 0 9 7 A 1 1 0 0 0 10 8 L 11 8 L 11 16 L 10 16 A 1 1 0 0 0 9 17 A 1 1 0 0 0 10 18 L 12 18 L 14 18 A 1 1 0 0 0 15 17 A 1 1 0 0 0 14 16 L 13 16 L 13 8 L 14 8 A 1 1 0 0 0 15 7 A 1 1 0 0 0 14 6 L 12 6 L 10 6 z M 16.980469 6 A 1.0001 1.0001 0 0 0 16 7 L 16 17 A 1 1 0 0 0 17 18 A 1 1 0 0 0 18 17 L 18 11.236328 L 21.105469 17.447266 A 1.0001 1.0001 0 0 0 23 17 L 23 7 A 1 1 0 0 0 22 6 A 1 1 0 0 0 21 7 L 21 12.763672 L 17.894531 6.5527344 A 1.0001 1.0001 0 0 0 16.980469 6 z " fill="currentColor"/>
</svg>
