<svg xmlns="http://www.w3.org/2000/svg" width="1em" height="1em" viewBox="0 0 24 24" fill="currentColor">
  <path d="M 13.5 1 C 12.131145 1 11 2.1311099 11 3.5 L 11 8 L 10 8 C 10 7.528595 10.00692 7.1551289 9.9550781 6.7695312 C 9.9032364 6.3839336 9.7501766 5.9220631 9.4140625 5.5859375 C 9.0779369 5.2498234 8.6160664 5.0967636 8.2304688 5.0449219 C 7.844871 4.9930802 7.471405 5 7 5 A 1 1 0 0 0 6 6 A 1 1 0 0 0 7 7 C 7.471405 7 7.805814 7.005963 7.9648438 7.0273438 C 7.9671902 7.0276592 7.9704133 7.02704 7.9726562 7.0273438 C 7.97296 7.0295867 7.9723408 7.0328098 7.9726562 7.0351562 C 7.994037 7.1941861 8 7.528595 8 8 L 5.9609375 8 C 5.4711275 8 5.0767647 7.99 4.6523438 8.0625 C 4.2279228 8.1349972 3.7150072 8.3698925 3.4023438 8.7695312 C 3.1133768 9.1388718 2.9812217 9.6711708 3.0039062 10.082031 C 3.0265906 10.492892 3.1254039 10.826109 3.2285156 11.228516 C 3.8964345 13.835158 5.7086414 15.98363 8.0957031 17.121094 L 8.6582031 20.210938 C 8.9506758 21.819411 10.365026 23 12 23 C 13.634974 23 15.049297 21.819403 15.341797 20.210938 L 15.904297 17.121094 C 18.291353 15.983626 20.103539 13.835147 20.771484 11.228516 C 20.874585 10.826113 20.97341 10.492879 20.996094 10.082031 C 21.018777 9.6711842 20.886608 9.1388764 20.597656 8.7695312 C 20.285005 8.3698812 19.772084 8.1349971 19.347656 8.0625 C 18.923228 7.9900029 18.528913 8 18.039062 8 L 16 8 L 16 7 A 1 1 0 0 0 15 6 A 1 1 0 0 0 14 7 L 14 8 L 13 8 L 13 3.5 C 13 3.2120301 13.212055 3 13.5 3 C 13.787945 3 14 3.2120301 14 3.5 A 1 1 0 0 0 15 4.5 A 1 1 0 0 0 16 3.5 C 16 2.1311099 14.868855 1 13.5 1 z M 5.9609375 10 L 18.039062 10 C 18.5171 10 18.839405 10.010373 18.986328 10.033203 C 18.974118 10.141215 18.928628 10.363047 18.833984 10.732422 C 18.059438 13.75506 15.305403 16 12 16 C 8.6946414 16 5.9405218 13.755036 5.1660156 10.732422 C 5.0713689 10.363051 5.0258816 10.141204 5.0136719 10.033203 C 5.1605915 10.010372 5.4829401 10 5.9609375 10 z M 10.259766 17.833984 C 10.823298 17.943364 11.405019 18 12 18 C 12.594983 18 13.176704 17.943364 13.740234 17.833984 L 13.373047 19.853516 C 13.251146 20.52385 12.681426 21 12 21 C 11.318574 21 10.74884 20.523843 10.626953 19.853516 L 10.259766 17.833984 z " fill="currentColor"/>
</svg>
