<svg xmlns="http://www.w3.org/2000/svg" width="1em" height="1em" viewBox="0 0 24 24" fill="currentColor">
  <path d="M 12 1 C 6.122558 1 1.3172279 5.642191 1.0273438 11.449219 C 1.0106401 11.630767 1 11.814258 1 12 C 1.0000003 12.185741 1.0106399 12.369234 1.0273438 12.550781 C 1.3172279 18.357809 6.122558 23 12 23 C 17.925531 23 22.761211 18.281783 22.978516 12.408203 C 22.99077 12.273467 23 12.13775 23 12 C 23 11.86225 22.99077 11.726533 22.978516 11.591797 C 22.761211 5.718217 17.925531 1 12 1 z M 12 3 C 15.435407 3 18.412385 4.9091416 19.929688 7.7285156 C 19.486555 7.5797667 19.012852 7.5 18.521484 7.5 C 17.059894 7.5 15.895724 8.4412934 14.859375 9.3046875 A 1 1 0 0 0 14.732422 10.712891 A 1 1 0 0 0 16.140625 10.839844 C 17.053476 10.079338 18.192275 9.5 18.521484 9.5 C 19.803847 9.5 20.844849 10.458005 20.982422 11.716797 C 20.985385 11.812086 21 11.903972 21 12 C 21 12.096028 20.985385 12.187914 20.982422 12.283203 C 20.844849 13.541995 19.803847 14.5 18.521484 14.5 C 17.560403 14.5 16.795647 14.116914 15.992188 13.417969 C 15.188728 12.719023 14.407247 11.706143 13.595703 10.642578 C 12.784159 9.5790132 11.942406 8.4633274 10.898438 7.5683594 C 9.8544673 6.6733913 8.550804 6 7 6 C 6.2947205 6 5.6161064 6.1238145 4.9863281 6.3496094 C 6.6340408 4.3053056 9.1608132 3 12 3 z M 7 8 C 7.994146 8 8.7805822 8.3891087 9.5957031 9.0878906 C 10.410824 9.7866726 11.195941 10.795987 12.005859 11.857422 C 12.815778 12.918857 13.651082 14.030977 14.679688 14.925781 C 15.708293 15.820586 16.991666 16.5 18.521484 16.5 C 19.012852 16.5 19.486555 16.420233 19.929688 16.271484 C 18.412385 19.090858 15.435407 21 12 21 C 9.1608126 21 6.6340408 19.694695 4.9863281 17.650391 C 5.6161064 17.876186 6.2947198 18 7 18 C 8.1252082 18 9.1278692 17.47951 10.046875 16.84375 C 10.965881 16.20799 11.80547 15.418058 12.501953 14.691406 A 1 1 0 0 0 12.472656 13.277344 A 1 1 0 0 0 11.058594 13.308594 C 10.42068 13.974142 9.6543673 14.683029 8.9082031 15.199219 C 8.162039 15.715409 7.4407118 16 7 16 C 4.7790291 16 3.000004 14.22095 3 12 C 3 9.7790218 4.7790218 8 7 8 z " fill="currentColor"/>
</svg>
