<svg xmlns="http://www.w3.org/2000/svg" width="1em" height="1em" viewBox="0 0 24 24" fill="currentColor">
  <path d="M 12 1 C 7.7521394 1 4.0564061 3.4230562 2.2246094 6.9589844 A 1 1 0 0 0 2.0390625 7.3144531 A 1 1 0 0 0 2.0253906 7.3632812 C 1.3671129 8.7730619 1 10.344797 1 12 C 1 14.434648 1.7953708 16.68703 3.140625 18.511719 A 1 1 0 0 0 3.2695312 18.683594 C 5.2822593 21.306176 8.4478633 23 12 23 C 18.063288 23 23 18.063288 23 12 C 23 5.9367124 18.063288 1 12 1 z M 12 3 C 13.60076 3 15.102006 3.4144079 16.402344 4.1425781 C 13.449768 4.4783249 11.400182 5.3402991 9.6953125 6.0136719 C 7.8911782 6.7262513 6.5577128 7.2338574 4.5625 6.921875 C 6.1810048 4.5519739 8.9041535 3 12 3 z M 18.71875 6.0019531 C 19.494417 6.8705628 20.103021 7.8900893 20.496094 9.0136719 C 17.154781 9.2075346 14.48729 11.297629 11.966797 13.201172 C 11.127002 13.835407 10.303783 14.449042 9.4804688 14.992188 C 8.3743632 14.135349 7.2707734 13.276142 6.1757812 12.568359 C 6.1447075 12.548274 6.1131019 12.527691 6.0820312 12.507812 C 8.6237082 11.859917 10.528876 10.664502 12.099609 9.4863281 C 14.315048 7.8245758 15.873404 6.3377217 17.830078 6.0292969 C 18.116407 6.0148315 18.412538 6.0054776 18.71875 6.0019531 z M 11.433594 7.4785156 C 11.257257 7.6162418 11.079807 7.7521421 10.900391 7.8867188 C 8.9042 9.3840178 6.6796483 10.746022 3.0585938 10.96875 C 3.1455262 10.202012 3.3274832 9.4647255 3.59375 8.7695312 C 6.3738401 9.3474644 8.4234604 8.6673999 10.429688 7.875 C 10.760848 7.7442016 11.093496 7.6113047 11.433594 7.4785156 z M 20.945312 11 C 20.981341 11.328178 21 11.661988 21 12 C 21 14.77782 19.751777 17.255315 17.783203 18.904297 A 1 1 0 0 0 17.767578 18.908203 C 16.756356 19.150348 15.617712 18.906103 14.333984 18.283203 C 13.322231 17.792277 12.250995 17.074999 11.167969 16.277344 C 11.854533 15.796504 12.519603 15.291441 13.171875 14.798828 C 15.804705 12.810445 18.232506 11.023672 20.945312 11 z M 3.0800781 13.216797 C 3.675206 13.424483 4.3589669 13.775621 5.0898438 14.248047 C 5.8845852 14.761753 6.7315348 15.400372 7.6113281 16.078125 C 6.6017922 16.571061 5.5728634 16.903192 4.4960938 16.982422 C 3.7614774 15.87603 3.2652459 14.596778 3.0800781 13.216797 z M 9.3671875 17.429688 C 10.684433 18.428307 12.047498 19.396199 13.460938 20.082031 C 13.863993 20.277603 14.275015 20.451695 14.691406 20.59375 C 13.842155 20.858178 12.938016 21 12 21 C 9.7188335 21 7.6403285 20.156984 6.0566406 18.765625 C 7.2354395 18.497308 8.3305926 18.019022 9.3671875 17.429688 z " fill="currentColor"/>
</svg>
