<svg xmlns="http://www.w3.org/2000/svg" width="1em" height="1em" viewBox="0 0 24 24" fill="currentColor">
  <path d="M 9 1 C 7.3549904 1 6 2.3549904 6 4 C 6 4.9316531 6.4355537 5.7701238 7.1113281 6.3222656 L 4.0117188 15 C 4.0081275 14.999987 4.003594 15 4 15 C 2.3549904 15 1 16.35499 1 18 C 1 19.64501 2.3549904 21 4 21 C 5.1638367 21 6.1833342 20.321132 6.6796875 19.341797 L 17.070312 20.640625 C 17.367554 21.982217 18.574789 23 20 23 C 21.64501 23 23 21.64501 23 20 C 23 18.624478 22.053416 17.450841 20.78125 17.103516 L 20.214844 9.7402344 C 21.262079 9.269909 22 8.2135237 22 7 C 22 5.3549904 20.64501 4 19 4 C 18.014333 4 17.132305 4.4866194 16.583984 5.2304688 L 11.996094 3.8554688 C 11.996062 3.8548175 11.996126 3.8541668 11.996094 3.8535156 C 11.918054 2.2757639 10.595588 1 9 1 z M 9 3 C 9.5641294 3 10 3.4358706 10 4 C 10 4.0896594 9.9895353 4.1758677 9.96875 4.2578125 A 1 1 0 0 0 9.9589844 4.2871094 C 9.9549387 4.3012453 9.9518933 4.3162316 9.9472656 4.3300781 C 9.8150494 4.7256836 9.4479247 5 9 5 C 8.8933493 5 8.7907164 4.9841567 8.6953125 4.9550781 C 8.6846184 4.9518186 8.6745863 4.9469552 8.6640625 4.9433594 A 1 1 0 0 0 8.6191406 4.9277344 C 8.2510106 4.7820348 8 4.4284866 8 4 C 8 3.4358706 8.4358706 3 9 3 z M 11.416016 5.7695312 L 16.003906 7.1445312 C 16.067727 8.4576383 16.992459 9.5620729 18.220703 9.8964844 L 18.787109 17.259766 C 18.154337 17.543425 17.632969 18.041444 17.320312 18.658203 L 6.9296875 17.359375 C 6.9295513 17.35876 6.9298241 17.358036 6.9296875 17.357422 C 6.7810989 16.68907 6.4073481 16.101012 5.8925781 15.679688 L 8.9921875 7 C 8.9951112 7.0000086 8.9970745 7 9 7 C 9.9858791 7 10.867721 6.5136511 11.416016 5.7695312 z M 19 6 C 19.564129 6 20 6.4358706 20 7 C 20 7.5641294 19.564129 8 19 8 C 18.435871 8 18 7.5641294 18 7 C 18 6.9173054 18.009581 6.8379323 18.027344 6.7617188 A 1 1 0 0 0 18.042969 6.7128906 A 1 1 0 0 0 18.058594 6.6503906 C 18.196105 6.265066 18.559319 6 19 6 z M 4 17 C 4.1024546 17 4.2008179 17.014105 4.2929688 17.041016 A 1 1 0 0 0 4.3378906 17.058594 A 1 1 0 0 0 4.3925781 17.076172 C 4.75364 17.224996 5 17.576559 5 18 C 5 18.564129 4.5641294 19 4 19 C 3.4358706 19 3 18.564129 3 18 C 3 17.435871 3.4358706 17 4 17 z M 19.957031 19 C 19.97158 18.999411 19.985271 19 20 19 C 20.564129 19 21 19.435871 21 20 C 21 20.564129 20.564129 21 20 21 C 19.435871 21 19 20.564129 19 20 C 19 19.966173 19.000838 19.933229 19.003906 19.900391 C 19.004644 19.892497 19.006902 19.884785 19.007812 19.876953 A 1 1 0 0 0 19.011719 19.84375 C 19.078417 19.394644 19.429113 19.055037 19.884766 19.005859 A 1 1 0 0 0 19.923828 19.003906 A 1 1 0 0 0 19.957031 19 z " fill="currentColor"/>
</svg>
