<svg xmlns="http://www.w3.org/2000/svg" width="1em" height="1em" viewBox="0 0 24 24" fill="currentColor">
  <path d="M 18.5 2 C 17.131283 2 16 3.1314318 16 4.5 C 16 5.8685577 17.131259 7 18.5 7 C 19.868706 7 20.998047 5.8685577 20.998047 4.5 C 20.998047 3.1314318 19.868682 2 18.5 2 z M 5.9335938 2.5019531 A 1 1 0 0 0 5.8046875 2.5195312 A 1 1 0 0 0 5.1679688 2.9453125 A 1 1 0 0 0 5.4453125 4.3320312 L 11.923828 8.6503906 L 14.746094 10.53125 A 1.0001 1.0001 0 0 0 16.007812 10.40625 L 16.318359 10.095703 L 16.511719 11.322266 A 1.0001 1.0001 0 0 0 16.945312 11.998047 L 20.445312 14.332031 A 1 1 0 0 0 21.832031 14.054688 A 1 1 0 0 0 21.554688 12.667969 L 18.419922 10.578125 L 17.988281 7.84375 A 1 1 0 0 0 17.957031 7.8203125 A 1 1 0 0 0 17.832031 7.59375 A 1 1 0 0 0 17.707031 7.2929688 A 1 1 0 0 0 17.666016 7.2929688 A 1 1 0 0 0 17.625 7.21875 L 16.119141 6.0136719 C 15.168809 5.2535061 13.789318 5.2952281 12.884766 6.109375 L 12.884766 6.1074219 L 12.386719 6.5566406 L 6.5546875 2.6679688 A 1 1 0 0 0 5.9335938 2.5019531 z M 18.5 4 C 18.787118 4 18.998047 4.2117082 18.998047 4.5 C 18.998047 4.7882423 18.787094 5 18.5 5 C 18.212741 5 18 4.7882423 18 4.5 C 18 4.2117082 18.212717 4 18.5 4 z M 14.542969 7.4628906 C 14.656625 7.4593877 14.770806 7.4975147 14.869141 7.5761719 L 15.501953 8.0839844 L 15.171875 8.4140625 L 14.105469 7.7011719 L 14.222656 7.5957031 C 14.31618 7.5115266 14.429312 7.4663936 14.542969 7.4628906 z M 10.619141 8.5859375 A 1 1 0 0 0 10.361328 8.6230469 A 1 1 0 0 0 9.7597656 9.0957031 C 9.136283 10.201312 9.4463707 11.664713 10.552734 12.402344 L 11.917969 13.314453 L 14.279297 15 L 12.023438 16.611328 L 3.5410156 11.158203 A 1 1 0 0 0 2.1582031 11.458984 A 1 1 0 0 0 2.4589844 12.841797 L 16.458984 21.841797 A 1.0001 1.0001 0 0 0 17.195312 21.980469 L 19.695312 21.480469 A 1 1 0 0 0 20.480469 20.304688 A 1 1 0 0 0 19.304688 19.519531 L 17.201172 19.939453 L 13.835938 17.775391 L 15.441406 16.626953 C 16.533588 15.846795 16.533588 14.153205 15.441406 13.373047 L 14.041016 12.373047 L 14.207031 12.207031 A 1 1 0 0 0 14.207031 10.792969 A 1 1 0 0 0 12.792969 10.792969 L 12.373047 11.212891 L 11.662109 10.738281 C 11.420673 10.577312 11.381436 10.291836 11.501953 10.078125 A 1 1 0 0 0 11.121094 8.7167969 A 1 1 0 0 0 10.619141 8.5859375 z " fill="currentColor"/>
</svg>
