<svg xmlns="http://www.w3.org/2000/svg" width="1em" height="1em" viewBox="0 0 24 24" fill="currentColor">
  <path d="M 8.75 1 C 7.243062 1 6 2.243062 6 3.75 C 6 5.256938 7.243062 6.5 8.75 6.5 L 3.75 6.5 C 2.243062 6.5 1 7.743062 1 9.25 C 1 10.756938 2.243062 12 3.75 12 L 9.25 12 C 10.756938 12 12 10.756938 12 9.25 C 12 7.743062 10.756938 6.5 9.25 6.5 L 10.5 6.5 A 1.0001 1.0001 0 0 0 11.5 5.5 L 11.5 3.75 C 11.5 2.243062 10.256938 1 8.75 1 z M 12 9.25 C 12 10.756938 13.243062 12 14.75 12 C 16.256938 12 17.5 10.756938 17.5 9.25 L 17.5 10.5 A 1.0001 1.0001 0 0 0 18.5 11.5 L 20.25 11.5 C 21.756938 11.5 23 10.256938 23 8.75 C 23 7.243062 21.756938 6 20.25 6 C 18.743062 6 17.5 7.243062 17.5 8.75 L 17.5 3.75 C 17.5 2.243062 16.256938 1 14.75 1 C 13.243062 1 12 2.243062 12 3.75 L 12 9.25 z M 14.75 12 C 13.243062 12 12 13.243062 12 14.75 C 12 16.256938 13.243062 17.5 14.75 17.5 L 13.5 17.5 A 1.0001 1.0001 0 0 0 12.5 18.5 L 12.5 20.25 C 12.5 21.756938 13.743062 23 15.25 23 C 16.756938 23 18 21.756938 18 20.25 C 18 18.743062 16.756938 17.5 15.25 17.5 L 20.25 17.5 C 21.756938 17.5 23 16.256938 23 14.75 C 23 13.243062 21.756938 12 20.25 12 L 14.75 12 z M 12 14.75 C 12 13.243062 10.756938 12 9.25 12 C 7.743062 12 6.5 13.243062 6.5 14.75 L 6.5 13.5 A 1.0001 1.0001 0 0 0 5.5 12.5 L 3.75 12.5 C 2.243062 12.5 1 13.743062 1 15.25 C 1 16.756938 2.243062 18 3.75 18 C 5.256938 18 6.5 16.756938 6.5 15.25 L 6.5 20.25 C 6.5 21.756938 7.743062 23 9.25 23 C 10.756938 23 12 21.756938 12 20.25 L 12 14.75 z M 8.75 3 C 9.176062 3 9.5 3.323938 9.5 3.75 L 9.5 4.5 L 8.75 4.5 C 8.323938 4.5 8 4.176062 8 3.75 C 8 3.323938 8.323938 3 8.75 3 z M 14.75 3 C 15.176062 3 15.5 3.323938 15.5 3.75 L 15.5 9.25 C 15.5 9.676062 15.176062 10 14.75 10 C 14.323938 10 14 9.676062 14 9.25 L 14 3.75 C 14 3.323938 14.323938 3 14.75 3 z M 20.25 8 C 20.676062 8 21 8.323938 21 8.75 C 21 9.176062 20.676062 9.5 20.25 9.5 L 19.5 9.5 L 19.5 8.75 C 19.5 8.323938 19.823938 8 20.25 8 z M 3.75 8.5 L 9.25 8.5 C 9.676062 8.5 10 8.823938 10 9.25 C 10 9.676062 9.676062 10 9.25 10 L 3.75 10 C 3.323938 10 3 9.676062 3 9.25 C 3 8.823938 3.323938 8.5 3.75 8.5 z M 9.25 14 C 9.676062 14 10 14.323938 10 14.75 L 10 20.25 C 10 20.676062 9.676062 21 9.25 21 C 8.823938 21 8.5 20.676062 8.5 20.25 L 8.5 14.75 C 8.5 14.323938 8.823938 14 9.25 14 z M 14.75 14 L 20.25 14 C 20.676062 14 21 14.323938 21 14.75 C 21 15.176062 20.676062 15.5 20.25 15.5 L 14.75 15.5 C 14.323938 15.5 14 15.176062 14 14.75 C 14 14.323938 14.323938 14 14.75 14 z M 3.75 14.5 L 4.5 14.5 L 4.5 15.25 C 4.5 15.676062 4.176062 16 3.75 16 C 3.323938 16 3 15.676062 3 15.25 C 3 14.823938 3.323938 14.5 3.75 14.5 z M 14.5 19.5 L 15.25 19.5 C 15.676062 19.5 16 19.823938 16 20.25 C 16 20.676062 15.676062 21 15.25 21 C 14.823938 21 14.5 20.676062 14.5 20.25 L 14.5 19.5 z " fill="currentColor"/>
</svg>
