<svg xmlns="http://www.w3.org/2000/svg" width="1em" height="1em" viewBox="0 0 24 24" fill="currentColor">
  <path d="M 12 1 C 5.9367104 1 1 5.9367104 1 12 C 1 18.063244 5.9367044 23 12 23 C 18.06325 23 23 18.06325 23 12 C 23 11.248034 22.92356 10.511856 22.779297 9.8007812 A 1 1 0 0 0 21.601562 9.0195312 A 1 1 0 0 0 20.820312 10.199219 C 20.938251 10.780544 21 11.382166 21 12 C 21 16.98235 16.98235 21 12 21 C 7.0175956 21 3 16.982356 3 12 C 3 7.0175896 7.0175896 3 12 3 C 12.304473 3 12.60426 3.0155159 12.900391 3.0449219 A 1 1 0 0 0 13.994141 2.1484375 A 1 1 0 0 0 13.099609 1.0546875 C 12.73794 1.0187733 12.370527 1 12 1 z M 17 1 A 1 1 0 0 0 16 2 A 1 1 0 0 0 17 3 L 19.183594 3 L 17.234375 5.21875 C 17.023437 5.4587716 16.849444 5.6437223 16.683594 5.8964844 C 16.517743 6.1492465 16.300064 6.6736335 16.509766 7.1816406 C 16.6146 7.4355902 16.843485 7.6721655 17.052734 7.7890625 C 17.261983 7.9059595 17.438626 7.9400153 17.589844 7.9628906 C 17.892279 8.0086412 18.137216 8 18.447266 8 L 21 8 A 1 1 0 0 0 22 7 A 1 1 0 0 0 21 6 L 19.210938 6 L 21.160156 3.78125 C 21.371094 3.5412284 21.545087 3.3562777 21.710938 3.1035156 C 21.876788 2.8507535 22.094468 2.3263665 21.884766 1.8183594 C 21.779932 1.5644098 21.551046 1.3278345 21.341797 1.2109375 C 21.132548 1.0940405 20.955906 1.0599847 20.804688 1.0371094 C 20.502252 0.99135872 20.257316 1 19.947266 1 L 17 1 z M 7.5 9.5 A 1 1 0 0 0 6.7929688 9.7929688 A 1 1 0 0 0 6.7929688 11.207031 C 7.300339 11.714338 7.9893774 12 8.7070312 12 L 10 12 A 1 1 0 0 0 11 11 A 1 1 0 0 0 10 10 L 8.7070312 10 C 8.519165 10 8.339941 9.925862 8.2070312 9.7929688 A 1 1 0 0 0 7.5 9.5 z M 16.5 9.5 A 1 1 0 0 0 15.792969 9.7929688 C 15.660194 9.9257439 15.48074 10 15.292969 10 L 14 10 A 1 1 0 0 0 13 11 A 1 1 0 0 0 14 12 L 15.292969 12 C 16.010598 12 16.699606 11.714456 17.207031 11.207031 A 1 1 0 0 0 17.207031 9.7929688 A 1 1 0 0 0 16.5 9.5 z M 12 13 C 10.35499 13 9 14.35499 9 16 C 9 17.64501 10.35499 19 12 19 C 13.64501 19 15 17.64501 15 16 C 15 14.35499 13.64501 13 12 13 z M 12 15 C 12.564129 15 13 15.435871 13 16 C 13 16.564129 12.564129 17 12 17 C 11.435871 17 11 16.564129 11 16 C 11 15.435871 11.435871 15 12 15 z " fill="currentColor"/>
</svg>
