<svg xmlns="http://www.w3.org/2000/svg" width="1em" height="1em" viewBox="0 0 24 24" fill="currentColor">
  <path d="M 7.5 1 A 1.0001 1.0001 0 0 0 7.453125 1.0039062 C 6.5526457 1.0048533 5.779869 1.0113023 5.1230469 1.0996094 C 4.3289773 1.2063688 3.5811884 1.4696004 3.0253906 2.0253906 C 2.4696004 2.5811884 2.2063688 3.3289773 2.0996094 4.1230469 C 1.99285 4.9171164 2 5.82149 2 7 L 2 17 C 2 18.1785 1.9928504 19.082883 2.0996094 19.876953 C 2.2063685 20.671023 2.4696253 21.418791 3.0253906 21.974609 C 3.5811923 22.530381 4.3289817 22.793636 5.1230469 22.900391 C 5.9171124 23.007145 6.82149 23 8 23 L 11 23 C 12.1785 23 13.082887 23.007101 13.876953 22.900391 C 14.671019 22.793636 15.418787 22.530356 15.974609 21.974609 C 16.530356 21.418787 16.793636 20.671019 16.900391 19.876953 C 17.007145 19.082888 17 18.1785 17 17 A 1 1 0 0 0 16 16 A 1 1 0 0 0 15 17 C 15 18.1785 14.994299 19.041866 14.917969 19.609375 C 14.841669 20.176884 14.737 20.384069 14.560547 20.560547 C 14.384068 20.737 14.176884 20.841673 13.609375 20.917969 C 13.041866 20.994265 12.1785 21 11 21 L 8 21 C 6.82149 21 5.9581298 20.994264 5.390625 20.917969 C 4.8231202 20.841673 4.6158914 20.736976 4.4394531 20.560547 C 4.2629884 20.384065 4.1583296 20.17688 4.0820312 19.609375 C 4.0057329 19.04187 4 18.1785 4 17 L 4 7 C 4 5.82149 4.0057331 4.9581254 4.0820312 4.390625 C 4.1583295 3.8231246 4.2630134 3.6158953 4.4394531 3.4394531 C 4.6158953 3.2630134 4.8231246 3.1583294 5.390625 3.0820312 C 5.760816 3.0322605 6.2574307 3.011619 6.8847656 3.0039062 L 7.1054688 3.4472656 A 1.0001 1.0001 0 0 0 8 4 L 11 4 A 1.0001 1.0001 0 0 0 11.894531 3.4472656 L 12.115234 3.0039062 C 12.742566 3.0116184 13.239182 3.0322588 13.609375 3.0820312 C 14.17688 3.1583292 14.384065 3.2629884 14.560547 3.4394531 C 14.736976 3.6158914 14.841673 3.8231202 14.917969 4.390625 C 14.994264 4.9581301 15 5.82149 15 7 A 1 1 0 0 0 16 8 A 1 1 0 0 0 17 7 C 17 5.82149 17.007145 4.917112 16.900391 4.1230469 C 16.793636 3.3289817 16.530381 2.5811923 15.974609 2.0253906 C 15.418791 1.4696253 14.671023 1.2063685 13.876953 1.0996094 C 13.220131 1.0113026 12.447351 1.0048533 11.546875 1.0039062 A 1.0001 1.0001 0 0 0 11.5 1 L 11 1 L 8 1 L 7.5 1 z M 19.025391 6.4921875 A 1 1 0 0 0 18.324219 6.8007812 A 1 1 0 0 0 18.357422 8.2148438 C 19.379527 9.1910457 20 10.517742 20 11.992188 C 20 13.466515 19.379534 14.793278 18.357422 15.769531 A 1 1 0 0 0 18.324219 17.183594 A 1 1 0 0 0 19.738281 17.214844 C 21.127766 15.887697 22 14.032458 22 11.992188 C 22 9.9518311 21.127779 8.0966293 19.738281 6.7695312 A 1 1 0 0 0 19.025391 6.4921875 z M 16.978516 8.7421875 A 1 1 0 0 0 16.277344 9.0507812 A 1 1 0 0 0 16.308594 10.464844 C 16.727797 10.865211 16.976563 11.396481 16.976562 11.992188 C 16.976562 12.587893 16.72779 13.119178 16.308594 13.519531 A 1 1 0 0 0 16.277344 14.933594 A 1 1 0 0 0 17.691406 14.964844 C 18.47801 14.213597 18.976562 13.15388 18.976562 11.992188 C 18.976562 10.830493 18.478003 9.7707837 17.691406 9.0195312 A 1 1 0 0 0 16.978516 8.7421875 z " fill="currentColor"/>
</svg>
