<svg xmlns="http://www.w3.org/2000/svg" width="1em" height="1em" viewBox="0 0 24 24" fill="currentColor">
  <path d="M 10 1 A 1.0001 1.0001 0 0 0 9.953125 1.0039062 C 9.0517575 1.0048512 8.2782762 1.0112894 7.6210938 1.0996094 C 6.8267933 1.2063569 6.0794163 1.469632 5.5234375 2.0253906 C 5.0523625 2.4962759 4.7833655 3.1169432 4.65625 3.765625 C 4.5291345 4.4143068 4.5073788 5.1219526 4.5 5.9921875 A 1 1 0 0 0 5.4921875 7 A 1 1 0 0 0 6.5 6.0078125 C 6.5070912 5.1714874 6.5400786 4.5538514 6.6191406 4.1503906 C 6.6982027 3.7469299 6.787915 3.5889779 6.9375 3.4394531 C 7.1140412 3.2629818 7.3208548 3.1583412 7.8886719 3.0820312 C 8.2592021 3.032235 8.7566114 3.0116106 9.3847656 3.0039062 L 9.6054688 3.4472656 A 1.0001 1.0001 0 0 0 10.5 4 L 13.5 4 A 1.0001 1.0001 0 0 0 14.394531 3.4472656 L 14.615234 3.0039062 C 15.24339 3.0116103 15.740794 3.0322342 16.111328 3.0820312 C 16.679149 3.1583412 16.885973 3.2629912 17.0625 3.4394531 C 17.212066 3.5889737 17.301796 3.7469162 17.380859 4.1503906 C 17.459919 4.5538651 17.492894 5.1714861 17.5 6.0078125 A 1 1 0 0 0 18.507812 7 A 1 1 0 0 0 19.5 5.9921875 C 19.492606 5.1219539 19.470861 4.4142931 19.34375 3.765625 C 19.216639 3.1169569 18.947596 2.49628 18.476562 2.0253906 C 17.92059 1.4696226 17.173211 1.2063568 16.378906 1.0996094 C 15.721721 1.0112894 14.948247 1.0048512 14.046875 1.0039062 A 1.0001 1.0001 0 0 0 14 1 L 13.5 1 L 10.5 1 L 10 1 z M 4.4394531 7.5019531 A 1 1 0 0 0 3.5546875 8.1738281 A 1 1 0 0 0 4.1738281 9.4453125 C 4.1738281 9.4453125 4.5 9.5357745 4.5 9.8125 C 4.5 9.950863 4.476563 9.968187 4.2265625 10.273438 C 3.9765625 10.578686 3.5 11.171863 3.5 12 C 3.5 12.828137 3.9765625 13.421312 4.2265625 13.726562 C 4.4765625 14.031812 4.5 14.049137 4.5 14.1875 C 4.5 14.464226 4.1738281 14.554687 4.1738281 14.554688 A 1 1 0 0 0 3.5546875 15.826172 A 1 1 0 0 0 4.8261719 16.445312 C 4.8261719 16.445312 6.5 15.843774 6.5 14.1875 C 6.5 13.359363 6.0234375 12.766186 5.7734375 12.460938 C 5.5234375 12.155686 5.5 12.138363 5.5 12 C 5.5 11.861637 5.5234375 11.844312 5.7734375 11.539062 C 6.0234375 11.233812 6.5 10.640637 6.5 9.8125 C 6.5 8.1562259 4.8261719 7.5546875 4.8261719 7.5546875 A 1 1 0 0 0 4.4394531 7.5019531 z M 19.429688 7.5019531 A 1 1 0 0 0 19.173828 7.5546875 C 19.173828 7.5546875 17.5 8.1562259 17.5 9.8125 C 17.5 10.640637 17.976562 11.233812 18.226562 11.539062 C 18.476562 11.844312 18.5 11.861637 18.5 12 C 18.5 12.138363 18.47656 12.155687 18.226562 12.460938 C 17.976562 12.766186 17.5 13.359363 17.5 14.1875 C 17.5 15.843774 19.173828 16.445312 19.173828 16.445312 A 1 1 0 0 0 20.445312 15.826172 A 1 1 0 0 0 19.826172 14.554688 C 19.826172 14.554688 19.5 14.464228 19.5 14.1875 C 19.5 14.049137 19.52344 14.031812 19.773438 13.726562 C 20.023438 13.421312 20.5 12.828137 20.5 12 C 20.5 11.171863 20.023438 10.578686 19.773438 10.273438 C 19.523438 9.968187 19.5 9.950863 19.5 9.8125 C 19.5 9.5357741 19.826172 9.4453125 19.826172 9.4453125 A 1 1 0 0 0 20.445312 8.1738281 A 1 1 0 0 0 19.429688 7.5019531 z M 5.4921875 17 A 1 1 0 0 0 4.5 18.007812 C 4.50738 18.878068 4.529135 19.585689 4.65625 20.234375 C 4.7833654 20.883061 5.0523583 21.503728 5.5234375 21.974609 C 6.0794202 22.530349 6.8267977 22.793648 7.6210938 22.900391 C 8.4153899 23.007133 9.321015 23 10.5 23 L 13.5 23 C 14.679 23 15.584606 23.007101 16.378906 22.900391 C 17.173206 22.793648 17.920586 22.530359 18.476562 21.974609 C 18.947601 21.503723 19.216638 20.883035 19.34375 20.234375 C 19.470862 19.585715 19.492606 18.878017 19.5 18.007812 A 1 1 0 0 0 18.507812 17 A 1 1 0 0 0 17.5 17.992188 C 17.4929 18.828484 17.45992 19.446145 17.380859 19.849609 C 17.301799 20.253074 17.212062 20.411033 17.0625 20.560547 C 16.885977 20.736998 16.679153 20.841661 16.111328 20.917969 C 15.543503 20.994276 14.679 21 13.5 21 L 10.5 21 C 9.321015 21 8.4564933 20.994276 7.8886719 20.917969 C 7.3208505 20.841661 7.1140373 20.737007 6.9375 20.560547 C 6.7879192 20.411029 6.6982027 20.253073 6.6191406 19.849609 C 6.5400785 19.446145 6.5070912 18.828533 6.5 17.992188 A 1 1 0 0 0 5.4921875 17 z " fill="currentColor"/>
</svg>
