<svg xmlns="http://www.w3.org/2000/svg" width="1em" height="1em" viewBox="0 0 24 24" fill="currentColor">
  <path d="M 10 1 C 8.350085 1 7.091775 0.99334664 6.0253906 1.1367188 C 4.9590062 1.2800909 4.0205986 1.6161133 3.3183594 2.3183594 C 2.6161133 3.0205986 2.2800908 3.9590062 2.1367188 5.0253906 C 1.9933465 6.091775 2 7.350085 2 9 L 2 15 C 2 16.6499 1.99335 17.908225 2.1367188 18.974609 C 2.2800906 20.040994 2.6161378 20.979371 3.3183594 21.681641 C 4.0206014 22.383869 4.9590094 22.719914 6.0253906 22.863281 C 7.0917719 23.006649 8.350085 23 10 23 C 11.6499 23 12.908228 23.0066 13.974609 22.863281 C 15.04099 22.719914 15.979368 22.383844 16.681641 21.681641 C 17.383844 20.979368 17.719914 20.04099 17.863281 18.974609 C 18.006649 17.908228 18 16.6499 18 15 A 1.0001 1.0001 0 0 0 18 14.994141 L 17.994141 14 L 18 14 C 18.9319 14 19.504912 14.03793 20.148438 13.771484 C 20.883122 13.467115 21.467115 12.883121 21.771484 12.148438 C 22.037928 11.504912 22 10.9319 22 10 C 22 9.06812 22.037978 8.4951207 21.771484 7.8515625 C 21.467115 7.1168017 20.883083 6.5328536 20.148438 6.2285156 C 19.504872 5.9619852 18.9319 6 18 6 L 17.953125 6 C 17.8629 4.4260846 17.58826 3.2250484 16.681641 2.3183594 C 15.979371 1.6161378 15.040994 1.2800907 13.974609 1.1367188 C 12.908225 0.99334685 11.6499 1 10 1 z M 10 3 C 11.6499 3 12.867215 3.00623 13.707031 3.1191406 C 14.546847 3.2320512 14.944648 3.4095135 15.267578 3.7324219 C 15.670213 4.1350876 15.865604 4.7486599 15.947266 6 L 10 6 C 9.06812 6 8.4951614 5.9619356 7.8515625 6.2285156 C 7.1168415 6.532854 6.532854 7.1168415 6.2285156 7.8515625 C 5.9619356 8.4951614 6 9.06812 6 10 C 6 10.9319 5.961985 11.504871 6.2285156 12.148438 C 6.5328536 12.883083 7.1168017 13.467115 7.8515625 13.771484 C 8.1956018 13.913949 8.6308086 13.873837 9 13.894531 L 9 15 A 1.0001 1.0001 0 0 0 10.554688 15.832031 L 13.302734 14 L 15.994141 14 L 16 15.005859 C 15.99998 16.651791 15.9936 17.868538 15.880859 18.707031 C 15.767952 19.54685 15.590474 19.94465 15.267578 20.267578 C 14.94465 20.590474 14.54685 20.767952 13.707031 20.880859 C 12.867211 20.993767 11.6499 21 10 21 C 8.350085 21 7.132785 20.993767 6.2929688 20.880859 C 5.4531525 20.767952 5.0552999 20.59045 4.7324219 20.267578 C 4.4095135 19.944648 4.2320512 19.546847 4.1191406 18.707031 C 4.0062301 17.867215 4 16.6499 4 15 L 4 9 C 4 7.350085 4.0062303 6.132782 4.1191406 5.2929688 C 4.232051 4.4531556 4.409538 4.0553026 4.7324219 3.7324219 C 5.0553026 3.409538 5.4531556 3.232051 6.2929688 3.1191406 C 7.132782 3.0062303 8.350085 3 10 3 z M 10 8 L 18 8 C 18.9319 8 19.291179 8.0382219 19.382812 8.0761719 C 19.628167 8.1778139 19.822198 8.3718483 19.923828 8.6171875 C 19.961735 8.7087292 20 9.06812 20 10 C 20 10.9319 19.961778 11.291137 19.923828 11.382812 C 19.822198 11.628127 19.628129 11.822198 19.382812 11.923828 C 19.291137 11.961785 18.9319 12 18 12 L 13 12 A 1.0001 1.0001 0 0 0 12.445312 12.167969 L 11 13.130859 L 11 13 A 1.0001 1.0001 0 0 0 10 12 C 9.06812 12 8.7087293 11.961735 8.6171875 11.923828 C 8.3718483 11.822198 8.1778139 11.628166 8.0761719 11.382812 C 8.0382223 11.291178 8 10.9319 8 10 C 8 9.06812 8.0382719 8.7086886 8.0761719 8.6171875 C 8.1778135 8.3718085 8.3718085 8.1778135 8.6171875 8.0761719 C 8.7086886 8.0382719 9.06812 8 10 8 z M 10.5 8.75 C 9.8215669 8.75 9.25 9.3215369 9.25 10 C 9.25 10.678288 9.8217117 11.25 10.5 11.25 C 11.178288 11.25 11.75 10.678288 11.75 10 C 11.75 9.3215369 11.178433 8.75 10.5 8.75 z M 14 8.75 C 13.321567 8.75 12.75 9.3216244 12.75 10 C 12.75 10.678288 13.321712 11.25 14 11.25 C 14.678288 11.25 15.25 10.678288 15.25 10 C 15.25 9.3216244 14.678433 8.75 14 8.75 z M 17.5 8.75 C 16.821567 8.75 16.25 9.3216244 16.25 10 C 16.25 10.678288 16.821712 11.25 17.5 11.25 C 18.178288 11.25 18.75 10.678288 18.75 10 C 18.75 9.3216244 18.178433 8.75 17.5 8.75 z M 10 17.75 C 9.3216244 17.75 8.75 18.321567 8.75 19 C 8.75 19.678433 9.3216244 20.25 10 20.25 C 10.678288 20.25 11.25 19.678288 11.25 19 C 11.25 18.321712 10.678288 17.75 10 17.75 z " fill="currentColor"/>
</svg>
