<svg xmlns="http://www.w3.org/2000/svg" width="1em" height="1em" viewBox="0 0 24 24" fill="currentColor">
  <path d="M 11.765625 1 C 10.42883 1 9.4074818 0.99238179 8.5253906 1.1171875 C 7.6432995 1.2419932 6.8199676 1.5541655 6.2539062 2.2089844 C 5.6878436 2.8637972 5.4984037 3.7207143 5.5 4.6132812 C 5.5016 5.5058482 5.6527469 6.5199561 5.8417969 7.8476562 L 5.8632812 8.0039062 C 4.2803105 8.0761607 3 9.4005978 3 11 C 3 11.881301 3.4518499 12.613139 4.0644531 13.164062 L 4.4003906 14.931641 C 4.5481454 15.70994 4.6571898 16.314284 4.8320312 16.859375 C 5.0068728 17.404466 5.2846991 17.93169 5.7421875 18.310547 C 6.0443168 18.560697 6.3963563 18.723015 6.7636719 18.824219 L 6.0292969 21.757812 A 1 1 0 0 0 6.7578125 22.970703 A 1 1 0 0 0 7.9707031 22.242188 L 8.78125 19 C 8.9496226 19.000434 9.1261546 19 9.3125 19 L 14.6875 19 C 14.873847 19 15.050377 19.000431 15.21875 19 L 16.029297 22.242188 A 1 1 0 0 0 17.242188 22.970703 A 1 1 0 0 0 17.970703 21.757812 L 17.236328 18.824219 C 17.603642 18.723013 17.95568 18.560691 18.257812 18.310547 C 18.715319 17.931682 18.993142 17.404466 19.167969 16.859375 C 19.342795 16.314284 19.451861 15.70993 19.599609 14.931641 L 19.935547 13.164062 C 20.54815 12.613137 21 11.881301 21 11 C 21 9.400615 19.719703 8.076161 18.136719 8.0039062 L 18.158203 7.8476562 C 18.347254 6.51995 18.498409 5.505843 18.5 4.6132812 C 18.501591 3.7207196 18.31211 2.8637965 17.746094 2.2089844 A 1.0001 1.0001 0 0 0 17.746094 2.2070312 C 17.180017 1.5522263 16.356703 1.241993 15.474609 1.1171875 C 14.592516 0.99238204 13.571175 1 12.234375 1 L 11.765625 1 z M 11.765625 3 L 12.234375 3 C 13.571175 3 14.554305 3.0069603 15.195312 3.0976562 C 15.836318 3.1883503 16.053299 3.3084268 16.232422 3.515625 C 16.411505 3.7228029 16.501159 3.9587342 16.5 4.609375 C 16.4988 5.2600158 16.366783 6.2387126 16.177734 7.5664062 L 15.994141 8.8535156 C 15.783442 9.0631401 15.616221 9.2893526 15.494141 9.5019531 C 15.101235 10.18619 15.011949 10.849857 15.011719 10.851562 L 15.011719 10.853516 C 14.99429 10.928122 14.978529 11.00458 14.962891 11.082031 C 14.073104 10.706141 13.064847 10.5 12 10.5 C 10.935156 10.5 9.9268934 10.706143 9.0371094 11.082031 C 9.0214688 11.004566 9.0057118 10.928134 8.9882812 10.853516 L 8.9882812 10.851562 C 8.9880507 10.849904 8.8987638 10.186193 8.5058594 9.5019531 C 8.3837789 9.2893509 8.2165585 9.0631408 8.0058594 8.8535156 L 7.8222656 7.5664062 C 7.6332156 6.2387064 7.5011637 5.2600106 7.5 4.609375 C 7.4988363 3.9587394 7.5884808 3.7228021 7.7675781 3.515625 C 7.9466769 3.3084438 8.1636861 3.1883505 8.8046875 3.0976562 C 9.4456889 3.0069619 10.42883 3 11.765625 3 z M 6 10 C 6.4601215 10 6.590673 10.183165 6.7714844 10.498047 C 6.9522957 10.812929 7.0117188 11.146484 7.0117188 11.146484 A 1.0001 1.0001 0 0 0 7.0292969 11.242188 C 7.1118319 11.572342 7.2117087 12.398624 7.3847656 13.214844 C 7.5578225 14.031064 7.7195446 14.927179 8.5507812 15.576172 C 8.8625809 15.819616 9.2439193 15.928468 9.5644531 15.966797 C 9.8849872 16.00513 10.1875 16 10.5625 16 L 13.4375 16 C 13.8125 16 14.115011 16.005097 14.435547 15.966797 C 14.756083 15.928467 15.137401 15.819693 15.449219 15.576172 C 16.280473 14.927189 16.442172 14.031066 16.615234 13.214844 C 16.788297 12.398622 16.888166 11.572337 16.970703 11.242188 A 1.0001 1.0001 0 0 0 16.988281 11.146484 C 16.988281 11.146484 17.047701 10.812932 17.228516 10.498047 C 17.409328 10.183155 17.539893 10 18 10 C 18.564175 10 19 10.435851 19 11 C 19 11.378104 18.798608 11.694455 18.5 11.867188 A 1.0001 1.0001 0 0 0 18.017578 12.544922 L 17.634766 14.558594 C 17.487014 15.336904 17.37532 15.901891 17.263672 16.25 C 17.152023 16.598109 17.079916 16.688796 16.982422 16.769531 C 16.884952 16.850231 16.780793 16.904448 16.417969 16.949219 C 16.055145 16.99399 15.4797 17 14.6875 17 L 9.3125 17 C 8.520305 17 7.9448504 16.993989 7.5820312 16.949219 C 7.2192122 16.904448 7.1150377 16.850224 7.0175781 16.769531 C 6.9200765 16.688788 6.8479866 16.598109 6.7363281 16.25 C 6.6246697 15.901891 6.5129896 15.336895 6.3652344 14.558594 L 5.9824219 12.544922 A 1.0001 1.0001 0 0 0 5.5 11.867188 C 5.201392 11.694456 5 11.378104 5 11 C 5 10.43587 5.4358696 10 6 10 z M 12 12.5 C 12.97761 12.5 13.872253 12.737943 14.580078 13.115234 C 14.449839 13.556347 14.277224 13.887552 14.230469 13.976562 C 14.221265 13.977728 14.21047 13.97889 14.197266 13.980469 C 14.074998 13.995041 13.8125 14 13.4375 14 L 10.5625 14 C 10.1875 14 9.925003 13.99509 9.8027344 13.980469 C 9.7895275 13.978889 9.7787339 13.977727 9.7695312 13.976562 C 9.7227798 13.887556 9.5501597 13.556327 9.4199219 13.115234 C 10.127731 12.737954 11.022399 12.5 12 12.5 z " fill="currentColor"/>
</svg>
