<svg xmlns="http://www.w3.org/2000/svg" width="1em" height="1em" viewBox="0 0 24 24" fill="currentColor">
  <path d="M 2 1 A 1 1 0 0 0 1 2 A 1 1 0 0 0 2 3 C 5.0027054 3 7.8158921 3.7758586 10.261719 5.1386719 A 1 1 0 0 0 11.623047 4.7519531 A 1 1 0 0 0 11.234375 3.3925781 C 8.5002615 1.8691314 5.3479546 1 2 1 z M 22 3 C 12.967901 3 5.3913281 9.3151349 3.4707031 17.779297 A 1 1 0 0 0 4.2246094 18.974609 A 1 1 0 0 0 5.4199219 18.220703 C 7.1371369 10.652965 13.899299 5 22 5 A 1 1 0 0 0 23 4 A 1 1 0 0 0 22 3 z M 2 5 A 1 1 0 0 0 1 6 A 1 1 0 0 0 2 7 C 3.7356176 7 5.387509 7.338138 6.8984375 7.953125 A 1 1 0 0 0 8.2011719 7.4042969 A 1 1 0 0 0 7.6523438 6.1015625 C 5.9073122 5.3912895 3.9964824 5 2 5 z M 21.998047 7 C 15.212666 7 9.464135 11.515479 7.6191406 17.714844 A 1 1 0 0 0 8.2929688 18.958984 A 1 1 0 0 0 9.5371094 18.285156 C 11.134275 12.918521 16.099228 9 21.998047 9 A 1 1 0 0 0 22.998047 8 A 1 1 0 0 0 21.998047 7 z M 2 9 A 1 1 0 0 0 1 10 A 1 1 0 0 0 2 11 C 2.7922118 11 3.5573891 11.101789 4.2871094 11.292969 A 1 1 0 0 0 5.5078125 10.580078 A 1 1 0 0 0 4.7949219 9.359375 C 3.9016821 9.1253547 2.9640882 9 2 9 z M 19 10 C 17.63112 10 16.5 11.13112 16.5 12.5 L 16.5 15.248047 C 16.5 15.4776 16.489793 15.622598 16.486328 15.689453 C 16.465685 15.724163 16.437499 15.768505 16.402344 15.816406 C 16.285918 15.975052 16.099649 16.216722 15.847656 16.539062 C 15.317664 17.217042 15 18.076758 15 19 C 15 21.197307 16.802693 23 19 23 C 21.197307 23 23 21.197307 23 19 C 23 18.076758 22.68234 17.217042 22.152344 16.539062 C 21.900351 16.216722 21.714082 15.975052 21.597656 15.816406 C 21.5625 15.768501 21.534315 15.724164 21.513672 15.689453 C 21.510207 15.622594 21.5 15.47759 21.5 15.248047 L 21.5 12.5 C 21.500004 11.13112 20.36888 10 19 10 z M 19 12 C 19.28792 12 19.5 12.21208 19.5 12.5 L 19.5 15.248047 C 19.5 15.663047 19.46712 15.940597 19.609375 16.353516 C 19.723036 16.683655 19.835176 16.796696 19.984375 17 C 20.133574 17.203304 20.326117 17.447171 20.578125 17.769531 C 20.843929 18.109552 21 18.530842 21 19 C 21 20.116493 20.116493 21 19 21 C 17.883507 21 17 20.116493 17 19 C 17 18.530842 17.156071 18.109552 17.421875 17.769531 C 17.673883 17.447171 17.866426 17.203304 18.015625 17 C 18.164824 16.796696 18.276964 16.683655 18.390625 16.353516 C 18.532876 15.940597 18.5 15.663047 18.5 15.248047 L 18.5 12.5 C 18.5 12.21208 18.71208 12 19 12 z M 13.990234 14.998047 A 1 1 0 0 0 13.201172 15.398438 C 12.69252 16.07554 12.259595 16.813404 11.916016 17.599609 A 1 1 0 0 0 12.431641 18.916016 A 1 1 0 0 0 13.748047 18.400391 C 14.028867 17.757796 14.38228 17.154106 14.798828 16.599609 A 1 1 0 0 0 14.601562 15.199219 A 1 1 0 0 0 13.990234 14.998047 z " fill="currentColor"/>
</svg>
