<svg xmlns="http://www.w3.org/2000/svg" width="1em" height="1em" viewBox="0 0 24 24" fill="currentColor">
  <path d="M 12 1 C 10.852523 1 9.7436788 1.1764717 8.7011719 1.5039062 A 1 1 0 0 0 8.046875 2.7578125 A 1 1 0 0 0 9.2988281 3.4121094 C 10.150401 3.144644 11.057077 3 12 3 C 16.982356 3 21 7.0175956 21 12 C 21 13.507092 20.630478 14.921213 19.978516 16.166016 C 19.671004 16.058333 19.342199 16 19 16 C 17.35499 16 16 17.35499 16 19 C 16 20.64501 17.35499 22 19 22 C 20.64501 22 22 20.64501 22 19 C 22 18.432416 21.839421 17.900099 21.560547 17.445312 C 22.476553 15.839363 23 13.976601 23 12 C 23 5.9367044 18.063244 1 12 1 z M 5 2 C 3.3549904 2 2 3.3549904 2 5 C 2 5.56731 2.1608269 6.1000446 2.4394531 6.5546875 C 1.5234245 8.1605074 1 10.023382 1 12 C 1 18.063244 5.9367044 23 12 23 C 13.147509 23 14.256401 22.823462 15.298828 22.496094 A 1 1 0 0 0 15.953125 21.242188 A 1 1 0 0 0 14.701172 20.587891 C 13.849599 20.855322 12.942891 21 12 21 C 7.0175956 21 3 16.982356 3 12 C 3 10.492666 3.3675209 9.078948 4.0195312 7.8339844 C 4.3270874 7.9417021 4.6577438 8 5 8 C 6.6450096 8 8 6.6450096 8 5 C 8 3.3549904 6.6450096 2 5 2 z M 5 4 C 5.5641294 4 6 4.4358706 6 5 C 6 5.5641294 5.5641294 6 5 6 C 4.4358706 6 4 5.5641294 4 5 C 4 4.4358706 4.4358706 4 5 4 z M 12 6 C 8.6981382 6 6 8.6981382 6 12 C 6 12.247805 6.0138415 12.493602 6.0429688 12.734375 C 5.4053079 13.286371 5 14.09927 5 15 C 5 16.64501 6.3549904 18 8 18 C 9.6450096 18 11 16.64501 11 15 C 11 13.35499 9.6450096 12 8 12 C 8 9.7790218 9.7790218 8 12 8 C 14.220954 8 16 9.7790266 16 12 C 16 14.22095 14.22095 16 12 16 A 1 1 0 0 0 11 17 A 1 1 0 0 0 12 18 C 15.30185 18 18 15.30185 18 12 C 18 8.6981334 15.301846 6 12 6 z M 12 10.75 C 11.321712 10.75 10.75 11.321712 10.75 12 C 10.75 12.678288 11.321712 13.25 12 13.25 C 12.678288 13.25 13.25 12.678288 13.25 12 C 13.25 11.321712 12.678288 10.75 12 10.75 z M 8 14 C 8.5641294 14 9 14.435871 9 15 C 9 15.564129 8.5641294 16 8 16 C 7.4358706 16 7 15.564129 7 15 C 7 14.435871 7.4358706 14 8 14 z M 19 18 C 19.564129 18 20 18.435871 20 19 C 20 19.564129 19.564129 20 19 20 C 18.435871 20 18 19.564129 18 19 C 18 18.435871 18.435871 18 19 18 z " fill="currentColor"/>
</svg>
