<svg xmlns="http://www.w3.org/2000/svg" width="1em" height="1em" viewBox="0 0 24 24" fill="currentColor">
  <path d="M 12 1 C 10.016513 1 8.1898367 1.5956377 6.5800781 2.5175781 C 6.1121957 2.2186558 5.5910129 2 5 2 C 3.3549904 2 2 3.3549904 2 5 C 2 5.5910129 2.2186558 6.1121957 2.5175781 6.5800781 C 1.5956377 8.1898367 1 10.016513 1 12 C 1 18.063244 5.9367044 23 12 23 C 13.983511 23 15.810163 22.404368 17.419922 21.482422 C 17.887849 21.781384 18.409036 22 19 22 C 20.645007 22 22 20.645007 22 19 C 22 18.449061 21.672171 18.027901 21.408203 17.582031 C 22.385106 15.938232 23 14.046513 23 12 C 23 5.9367044 18.063244 1 12 1 z M 12 3 C 16.982356 3 21 7.0175956 21 12 C 21 13.590731 20.527554 15.042157 19.806641 16.335938 C 19.521726 16.244987 19.313314 16 19 16 C 17.354993 16 16 17.354993 16 19 C 16 19.311786 16.224802 19.531466 16.314453 19.816406 C 15.02559 20.530139 13.582224 21 12 21 C 7.0175956 21 3 16.982356 3 12 C 3 10.417805 3.4698683 8.9744083 4.1835938 7.6855469 C 4.4685356 7.7751958 4.6882267 8 5 8 C 6.6450096 8 8 6.6450096 8 5 C 8 4.6882267 7.7751958 4.4685356 7.6855469 4.1835938 C 8.9744083 3.4698683 10.417805 3 12 3 z M 5 4 C 5.3004174 4 5.5581165 4.126753 5.7421875 4.3300781 C 5.9037606 4.5085564 6 4.7362842 6 5 C 6 5.5641304 5.5641304 6 5 6 C 4.7362842 6 4.5085564 5.9037606 4.3300781 5.7421875 C 4.126753 5.5581165 4 5.3004174 4 5 C 4 4.4358696 4.4358696 4 5 4 z M 12 6 C 11.666019 6 11.353749 6.1503565 11.173828 6.2773438 C 10.993907 6.404331 10.880741 6.5164881 10.744141 6.6425781 L 10.330078 7.0234375 L 9.7539062 6.9453125 C 9.5656817 6.9199126 9.4059448 6.8924189 9.1875 6.890625 C 8.9690552 6.8888311 8.6296345 6.9387193 8.3496094 7.1328125 C 8.0695791 7.3269029 7.8962944 7.6453525 7.8261719 7.8574219 C 7.7560489 8.0694912 7.7340179 8.2256666 7.7011719 8.4042969 L 7.609375 8.90625 L 7.1191406 9.1542969 C 6.9511786 9.2392656 6.8070154 9.3077667 6.625 9.4316406 C 6.4429846 9.5555145 6.1820371 9.7990192 6.0683594 10.132812 C 5.9547141 10.466575 6.0140166 10.830295 6.0878906 11.041016 C 6.1617646 11.251736 6.2407415 11.389799 6.3242188 11.552734 L 6.5546875 12 L 6.3242188 12.447266 C 6.2407417 12.610201 6.1617645 12.748264 6.0878906 12.958984 C 6.0140166 13.169705 5.9547139 13.533425 6.0683594 13.867188 C 6.1820371 14.20098 6.4429846 14.444485 6.625 14.568359 C 6.8070154 14.692233 6.9511786 14.760734 7.1191406 14.845703 L 7.609375 15.09375 L 7.7011719 15.595703 C 7.7340189 15.774366 7.7560479 15.9305 7.8261719 16.142578 C 7.8962959 16.354656 8.0696315 16.673113 8.3496094 16.867188 C 8.6296345 17.061281 8.9690552 17.111169 9.1875 17.109375 C 9.4059448 17.107575 9.5656817 17.080087 9.7539062 17.054688 L 10.330078 16.976562 L 10.744141 17.357422 C 10.880741 17.483522 10.993907 17.595659 11.173828 17.722656 C 11.353749 17.849661 11.665999 18 12 18 C 12.334001 18 12.646251 17.849654 12.826172 17.722656 C 13.006093 17.595659 13.119259 17.483522 13.255859 17.357422 L 13.669922 16.976562 L 14.246094 17.054688 C 14.434294 17.080088 14.594055 17.107575 14.8125 17.109375 C 15.030945 17.111175 15.370427 17.061165 15.650391 16.867188 C 15.930294 16.673109 16.103695 16.354628 16.173828 16.142578 C 16.243958 15.930528 16.265968 15.774406 16.298828 15.595703 L 16.390625 15.09375 L 16.880859 14.845703 C 17.048862 14.760723 17.192978 14.692231 17.375 14.568359 C 17.557022 14.444488 17.817936 14.200865 17.931641 13.867188 C 18.045158 13.533414 17.985959 13.169606 17.912109 12.958984 C 17.838259 12.748363 17.759203 12.610161 17.675781 12.447266 L 17.445312 12 L 17.675781 11.552734 C 17.759201 11.389839 17.838262 11.251637 17.912109 11.041016 C 17.985959 10.830394 18.04516 10.466584 17.931641 10.132812 C 17.817938 9.7991335 17.557022 9.5555119 17.375 9.4316406 C 17.192978 9.3077693 17.048862 9.2392737 16.880859 9.1542969 L 16.390625 8.90625 L 16.298828 8.4042969 C 16.26597 8.2256267 16.24396 8.0694634 16.173828 7.8574219 C 16.103696 7.6453803 15.930346 7.3269082 15.650391 7.1328125 C 15.370427 6.938833 15.030945 6.888831 14.8125 6.890625 C 14.594055 6.892415 14.434294 6.9199125 14.246094 6.9453125 L 13.669922 7.0234375 L 13.255859 6.6425781 C 13.119259 6.5164881 13.006093 6.404331 12.826172 6.2773438 C 12.646251 6.1503565 12.333981 6 12 6 z M 12 8.2050781 L 12.365234 8.5429688 C 12.508649 8.6752703 12.683977 8.8752495 13.054688 8.9902344 C 13.42528 9.1050576 13.673527 9.0403279 13.871094 9.0136719 L 14.365234 8.9472656 L 14.443359 9.375 C 14.477819 9.5622922 14.498919 9.8362583 14.740234 10.154297 C 14.983544 10.473915 15.228219 10.561223 15.404297 10.650391 L 15.791016 10.845703 L 15.611328 11.195312 C 15.52348 11.366591 15.369141 11.58987 15.369141 12 C 15.369141 12.41013 15.523485 12.633408 15.611328 12.804688 L 15.791016 13.154297 L 15.404297 13.349609 C 15.227964 13.438879 14.983348 13.524476 14.740234 13.84375 C 14.497253 14.162851 14.477885 14.437362 14.443359 14.625 L 14.365234 15.052734 L 13.873047 14.986328 L 13.871094 14.986328 C 13.673553 14.959498 13.424357 14.895026 13.054688 15.009766 C 12.683535 15.124685 12.508649 15.32471 12.365234 15.457031 L 12 15.794922 L 11.634766 15.457031 C 11.491351 15.32471 11.316465 15.124685 10.945312 15.009766 C 10.575643 14.895027 10.326447 14.959498 10.128906 14.986328 L 10.126953 14.986328 L 9.6347656 15.052734 L 9.5566406 14.625 C 9.5221663 14.437531 9.5030537 14.163141 9.2597656 13.84375 C 9.0168529 13.524852 8.7722718 13.438945 8.5957031 13.349609 L 8.2089844 13.154297 L 8.3886719 12.804688 C 8.47637 12.633573 8.6308594 12.410348 8.6308594 12 C 8.6308594 11.589652 8.47637 11.366425 8.3886719 11.195312 L 8.2089844 10.845703 L 8.5957031 10.650391 C 8.7720166 10.561154 9.0166565 10.475492 9.2597656 10.15625 C 9.5028929 9.8370271 9.5221601 9.5625331 9.5566406 9.375 L 9.6347656 8.9472656 L 10.128906 9.0136719 C 10.326473 9.0403279 10.574718 9.1050574 10.945312 8.9902344 C 11.316021 8.8752495 11.491351 8.6752702 11.634766 8.5429688 L 12 8.2050781 z M 19 18 C 19.564193 18 20 18.435807 20 19 C 20 19.564193 19.564193 20 19 20 C 18.699571 20 18.441712 19.87312 18.257812 19.669922 C 18.096308 19.491523 18 19.263605 18 19 C 18 18.435807 18.435807 18 19 18 z " fill="currentColor"/>
</svg>
