<svg xmlns="http://www.w3.org/2000/svg" width="1em" height="1em" viewBox="0 0 24 24" fill="currentColor">
  <path d="M 7.2207031 1.4980469 C 6.4784749 1.50596 5.8863088 1.5723922 5.3085938 1.9707031 C 4.9234443 2.2362388 4.6528844 2.624739 4.4726562 3.0078125 C 4.2924282 3.390886 4.1642984 3.7943834 3.9960938 4.3046875 L 1.6894531 11.304688 C 1.3966931 12.192887 1.1611632 12.874669 1.0527344 13.529297 C 0.94430554 14.183925 1.0082204 14.944416 1.4570312 15.511719 C 1.9058812 16.078977 2.5990767 16.321821 3.2753906 16.414062 C 3.9517046 16.506306 4.7154425 16.5 5.7109375 16.5 L 6.5 16.5 L 11.5 16.5 L 13.982422 16.5 C 15.126322 16.5 15.921147 16.5603 16.691406 16.029297 C 17.076575 15.763769 17.34711 15.375265 17.527344 14.992188 C 17.707577 14.609108 17.835706 14.205612 18.003906 13.695312 L 20.310547 6.6953125 C 20.603294 5.8071305 20.838825 5.1253091 20.947266 4.4707031 C 21.055706 3.8160972 20.991804 3.0555818 20.542969 2.4882812 C 20.094097 1.921042 19.40093 1.6781878 18.724609 1.5859375 C 18.048289 1.4936872 17.284512 1.5 16.289062 1.5 L 15.5 1.5 L 10.5 1.5 L 8.0175781 1.5 C 7.7316006 1.5 7.4681125 1.4954092 7.2207031 1.4980469 z M 8.0175781 3.5 L 9.1464844 3.5 L 8.3769531 6 L 5.5429688 6 L 5.8945312 4.9316406 C 6.0627366 4.4213347 6.1868806 4.0599565 6.28125 3.859375 C 6.3756194 3.6587935 6.4029288 3.6450618 6.4433594 3.6171875 C 6.5242326 3.5614287 6.8736681 3.5 8.0175781 3.5 z M 11.238281 3.5 L 14.146484 3.5 L 13.376953 6 L 10.46875 6 L 11.238281 3.5 z M 16.238281 3.5 L 16.289062 3.5 C 17.284512 3.5 18.015474 3.5064402 18.455078 3.5664062 C 18.894682 3.6263683 18.941682 3.6869048 18.974609 3.7285156 C 19.007469 3.7700546 19.036616 3.7587376 18.972656 4.1445312 C 18.910397 4.5203588 18.716231 5.1467617 18.435547 6 L 15.46875 6 L 16.238281 3.5 z M 21.927734 5.0019531 A 1 1 0 0 0 21.050781 5.6855469 L 18.007812 14.898438 C 17.786067 15.570026 17.622358 16.052949 17.484375 16.345703 C 17.346392 16.638457 17.272299 16.716518 17.164062 16.791016 C 16.947492 16.940014 16.416503 17 14.908203 17 L 4 17 A 1 1 0 0 0 3 18 A 1 1 0 0 0 4 19 L 10 19 L 10 20.5 L 9 20.5 A 1 1 0 0 0 8 21.5 A 1 1 0 0 0 9 22.5 L 11 22.5 L 13 22.5 A 1 1 0 0 0 14 21.5 A 1 1 0 0 0 13 20.5 L 12 20.5 L 12 19 L 14.908203 19 C 16.416503 19 17.392999 19.0607 18.298828 18.4375 C 18.751692 18.125798 19.068902 17.674614 19.292969 17.199219 C 19.517036 16.723823 19.68645 16.198954 19.908203 15.527344 L 22.949219 6.3144531 A 1 1 0 0 0 22.314453 5.0507812 A 1 1 0 0 0 21.927734 5.0019531 z M 4.8828125 8 L 7.7617188 8 L 7.1464844 10 L 4.2246094 10 L 4.8828125 8 z M 9.8535156 8 L 12.761719 8 L 12.146484 10 L 9.2382812 10 L 9.8535156 8 z M 14.853516 8 L 17.775391 8 L 17.117188 10 L 14.238281 10 L 14.853516 8 z M 3.5644531 12 L 6.53125 12 L 5.7617188 14.5 L 5.7109375 14.5 C 4.7154425 14.5 3.9845304 14.493604 3.5449219 14.433594 C 3.1053133 14.373634 3.0582607 14.313026 3.0253906 14.271484 C 2.9924816 14.229884 2.9634457 14.241264 3.0273438 13.855469 C 3.0895938 13.479639 3.2837634 12.853238 3.5644531 12 z M 8.6230469 12 L 11.53125 12 L 10.761719 14.5 L 7.8535156 14.5 L 8.6230469 12 z M 13.623047 12 L 16.457031 12 L 16.105469 13.068359 C 15.937269 13.578659 15.813116 13.940054 15.71875 14.140625 C 15.62438 14.341196 15.597072 14.35494 15.556641 14.382812 C 15.475747 14.438612 15.126322 14.5 13.982422 14.5 L 12.853516 14.5 L 13.623047 12 z " fill="currentColor"/>
</svg>
