<svg xmlns="http://www.w3.org/2000/svg" width="1em" height="1em" viewBox="0 0 24 24" fill="currentColor">
  <path d="M 6.5 2 C 5.27489 2 4.5227099 1.9489688 3.7402344 2.3476562 C 3.1405865 2.6531982 2.6531982 3.1405865 2.3476562 3.7402344 C 1.9489687 4.5227099 2 5.27489 2 6.5 C 2 7.72511 1.9489688 8.4772901 2.3476562 9.2597656 C 2.6531982 9.8594135 3.1405865 10.346802 3.7402344 10.652344 C 4.5227099 11.051031 5.27489 11 6.5 11 C 7.72511 11 8.4772901 11.051031 9.2597656 10.652344 C 9.8594135 10.346802 10.346802 9.8594135 10.652344 9.2597656 C 11.051031 8.4772901 11 7.72511 11 6.5 C 11 5.27489 11.051031 4.5227099 10.652344 3.7402344 C 10.346802 3.1405865 9.8594135 2.6531982 9.2597656 2.3476562 C 8.4772901 1.9489687 7.72511 2 6.5 2 z M 6.5 4 C 7.72511 4 8.198178 4.0507537 8.3515625 4.1289062 C 8.5751346 4.2428242 8.7571757 4.4248654 8.8710938 4.6484375 C 8.9492462 4.801822 9 5.27489 9 6.5 C 9 7.72511 8.9492462 8.198178 8.8710938 8.3515625 C 8.7571758 8.5751346 8.5751346 8.7571757 8.3515625 8.8710938 C 8.198178 8.9492462 7.72511 9 6.5 9 C 5.27489 9 4.801822 8.9492462 4.6484375 8.8710938 C 4.4248654 8.7571758 4.2428242 8.5751346 4.1289062 8.3515625 C 4.0507537 8.198178 4 7.72511 4 6.5 C 4 5.27489 4.0507537 4.801822 4.1289062 4.6484375 C 4.2428242 4.4248654 4.4248654 4.2428242 4.6484375 4.1289062 C 4.801822 4.0507537 5.27489 4 6.5 4 z M 13.933594 5.5039062 A 1 1 0 0 0 13.248047 5.8417969 A 1 1 0 0 0 13.341797 7.2519531 L 13.925781 7.7636719 C 15.606672 9.2344039 16.31322 9.8894823 16.642578 10.615234 C 16.971834 11.340879 17 12.303609 17 14.537109 L 17 16.982422 L 15.726562 15.638672 A 1 1 0 0 0 14.3125 15.601562 A 1 1 0 0 0 14.273438 17.013672 L 15.683594 18.501953 C 16.058601 18.897611 16.347646 19.212006 16.683594 19.482422 C 17.01954 19.752839 17.484024 20 18 20 C 18.515976 20 18.980458 19.752838 19.316406 19.482422 C 19.652354 19.212006 19.941399 18.897611 20.316406 18.501953 L 21.726562 17.013672 A 1 1 0 0 0 21.6875 15.601562 A 1 1 0 0 0 20.273438 15.638672 L 19 16.982422 L 19 14.537109 C 19 12.303609 19.02724 11.032818 18.462891 9.7890625 C 17.898449 8.545295 16.92505 7.7305136 15.244141 6.2597656 L 14.658203 5.7480469 A 1 1 0 0 0 13.933594 5.5039062 z M 6.5 13 C 5.27489 13 4.5226998 12.949007 3.7402344 13.347656 C 3.1404732 13.653212 2.6531811 14.140635 2.3476562 14.740234 C 1.9489338 15.522728 2 16.2749 2 17.5 C 2 18.7251 1.948934 19.477272 2.3476562 20.259766 C 2.6531811 20.859365 3.1404732 21.346788 3.7402344 21.652344 C 4.5226998 22.050993 5.27489 22 6.5 22 C 7.72511 22 8.4773002 22.050993 9.2597656 21.652344 C 9.8595268 21.346788 10.346819 20.859365 10.652344 20.259766 C 11.051066 19.477272 11 18.7251 11 17.5 C 11 16.2749 11.051066 15.522728 10.652344 14.740234 C 10.346819 14.140635 9.8595268 13.653212 9.2597656 13.347656 C 8.4773002 12.949007 7.72511 13 6.5 13 z M 6.5 15 C 7.72511 15 8.1981679 15.05076 8.3515625 15.128906 C 8.5750213 15.24275 8.7571586 15.424836 8.8710938 15.648438 C 8.9492113 15.801743 9 16.2749 9 17.5 C 9 18.7251 8.9492113 19.198256 8.8710938 19.351562 C 8.7571586 19.575163 8.5750213 19.75725 8.3515625 19.871094 C 8.1981679 19.949245 7.72511 20 6.5 20 C 5.27489 20 4.8018321 19.949245 4.6484375 19.871094 C 4.4249787 19.75725 4.2428413 19.575163 4.1289062 19.351562 C 4.0507886 19.198256 4 18.7251 4 17.5 C 4 16.2749 4.0507886 15.801744 4.1289062 15.648438 C 4.2428413 15.424836 4.4249787 15.24275 4.6484375 15.128906 C 4.8018321 15.050755 5.27489 15 6.5 15 z " fill="currentColor"/>
</svg>
