<svg xmlns="http://www.w3.org/2000/svg" width="1em" height="1em" viewBox="0 0 24 24" fill="currentColor">
  <path d="M 18.5 2 A 1 1 0 0 0 17.783203 2.3164062 C 17.62142 2.4163043 17.365264 2.4471161 17.234375 2.5585938 C 16.932531 2.8156737 16.664006 3.1121814 16.408203 3.4140625 C 15.896598 4.0178246 15.380119 4.7030183 15.283203 4.8027344 A 1 1 0 0 0 15.302734 6.2167969 A 1 1 0 0 0 16.716797 6.1972656 C 16.970268 5.9364723 17.23793 5.5779346 17.5 5.2402344 L 17.5 15 A 1 1 0 0 0 18.5 16 A 1 1 0 0 0 19.5 15 L 19.5 5.2402344 C 19.76207 5.5779346 20.029733 5.9364726 20.283203 6.1972656 A 1 1 0 0 0 21.697266 6.2167969 A 1 1 0 0 0 21.716797 4.8027344 C 21.619882 4.7030186 21.103402 4.0178246 20.591797 3.4140625 C 20.335994 3.1121814 20.067469 2.8156738 19.765625 2.5585938 C 19.463781 2.3015136 19.149748 2 18.5 2 z M 3 8 A 1 1 0 0 0 2 9 A 1 1 0 0 0 3 10 L 10 10 A 1 1 0 0 0 11 9 A 1 1 0 0 0 10 8 L 3 8 z M 3 14 A 1 1 0 0 0 2 15 A 1 1 0 0 0 3 16 L 14 16 A 1 1 0 0 0 15 15 A 1 1 0 0 0 14 14 L 3 14 z M 3 20 A 1 1 0 0 0 2 21 A 1 1 0 0 0 3 22 L 19 22 A 1 1 0 0 0 20 21 A 1 1 0 0 0 19 20 L 3 20 z " fill="currentColor"/>
</svg>
