<svg xmlns="http://www.w3.org/2000/svg" width="1em" height="1em" viewBox="0 0 24 24" fill="currentColor">
  <path d="M 12 1 C 5.9367124 1 1 5.9367124 1 12 C 1 18.063288 5.9367124 23 12 23 C 18.063288 23 23 18.063288 23 12 C 23 5.9367124 18.063288 1 12 1 z M 12 3 C 16.982407 3 21 7.0175926 21 12 C 21 16.982407 16.982407 21 12 21 C 7.0175926 21 3 16.982407 3 12 C 3 7.0175926 7.0175926 3 12 3 z M 12.929688 8.0019531 A 1 1 0 0 0 12.050781 8.6835938 L 10.050781 14.683594 A 1 1 0 0 0 10.683594 15.949219 A 1 1 0 0 0 11.949219 15.316406 L 13.949219 9.3164062 A 1 1 0 0 0 13.316406 8.0507812 A 1 1 0 0 0 12.929688 8.0019531 z M 16.056641 9 A 1 1 0 0 0 15.925781 9.0019531 A 1 1 0 0 0 15.242188 9.3476562 A 1 1 0 0 0 15.347656 10.757812 L 16.574219 11.814453 C 16.683237 11.908393 16.702931 11.931317 16.779297 12 C 16.702927 12.06868 16.683237 12.0916 16.574219 12.185547 L 15.347656 13.242188 A 1 1 0 0 0 15.242188 14.652344 A 1 1 0 0 0 16.652344 14.757812 L 17.878906 13.701172 C 18.136796 13.478937 18.347793 13.304049 18.554688 13.070312 C 18.761584 12.836574 19 12.44929 19 12 C 19 11.55071 18.761584 11.163424 18.554688 10.929688 C 18.347792 10.695949 18.136796 10.521063 17.878906 10.298828 L 16.652344 9.2421875 A 1 1 0 0 0 16.056641 9 z M 7.9433594 9.0019531 A 1 1 0 0 0 7.3476562 9.2421875 L 6.1210938 10.298828 C 5.8632457 10.521052 5.6521935 10.69596 5.4453125 10.929688 C 5.2384315 11.163413 5 11.550686 5 12 C 5 12.449314 5.2384315 12.836585 5.4453125 13.070312 C 5.6521935 13.304039 5.8632458 13.478948 6.1210938 13.701172 L 7.3476562 14.757812 A 1 1 0 0 0 8.7578125 14.652344 A 1 1 0 0 0 8.6523438 13.242188 L 7.4257812 12.185547 C 7.3167712 12.091597 7.297068 12.068687 7.2207031 12 C 7.2970681 11.93131 7.3167712 11.9084 7.4257812 11.814453 L 8.6523438 10.757812 A 1 1 0 0 0 8.7578125 9.3476562 A 1 1 0 0 0 7.9433594 9.0019531 z " fill="currentColor"/>
</svg>
