<svg xmlns="http://www.w3.org/2000/svg" width="1em" height="1em" viewBox="0 0 24 24" fill="currentColor">
  <path d="M 14.541016 3 A 1 1 0 0 0 13.544922 3.7011719 L 8.5449219 19.701172 A 1 1 0 0 0 9.2011719 20.955078 A 1 1 0 0 0 10.455078 20.298828 L 15.455078 4.2988281 A 1 1 0 0 0 14.798828 3.0449219 A 1 1 0 0 0 14.541016 3 z M 6.9980469 7 A 1 1 0 0 0 6.2910156 7.2949219 L 4.4511719 9.1445312 C 4.0644434 9.5334397 3.7564851 9.8358737 3.4941406 10.181641 C 3.2317962 10.527407 3 10.991616 3 11.5 C 3 12.008384 3.2317939 12.472593 3.4941406 12.818359 C 3.7564873 13.164125 4.0644419 13.466569 4.4511719 13.855469 L 6.2910156 15.705078 A 1 1 0 0 0 7.7050781 15.708984 A 1 1 0 0 0 7.7089844 14.294922 L 5.8691406 12.445312 C 5.4824106 12.056412 5.2103208 11.773309 5.0859375 11.609375 C 5.0425453 11.552185 5.0181637 11.518523 5.0058594 11.5 C 5.0181639 11.481477 5.0425461 11.447813 5.0859375 11.390625 C 5.2103231 11.226686 5.4824091 10.943598 5.8691406 10.554688 L 7.7089844 8.7050781 A 1 1 0 0 0 7.7050781 7.2910156 A 1 1 0 0 0 6.9980469 7 z M 17.001953 7 A 1 1 0 0 0 16.294922 7.2910156 A 1 1 0 0 0 16.291016 8.7050781 L 18.130859 10.554688 C 18.517603 10.94359 18.789686 11.226695 18.914062 11.390625 C 18.957455 11.447819 18.981838 11.481481 18.994141 11.5 C 18.981837 11.518518 18.95746 11.552179 18.914062 11.609375 C 18.789687 11.773301 18.517602 12.056419 18.130859 12.445312 L 16.291016 14.294922 A 1 1 0 0 0 16.294922 15.708984 A 1 1 0 0 0 17.708984 15.705078 L 19.548828 13.855469 C 19.935586 13.466561 20.24351 13.164134 20.505859 12.818359 C 20.768217 12.472579 21 12.008363 21 11.5 C 21 10.991637 20.768207 10.527415 20.505859 10.181641 C 20.243512 9.8358654 19.935584 9.5334474 19.548828 9.1445312 L 17.708984 7.2949219 A 1 1 0 0 0 17.001953 7 z " fill="currentColor"/>
</svg>
