<svg xmlns="http://www.w3.org/2000/svg" width="1em" height="1em" viewBox="0 0 24 24" fill="currentColor">
  <path d="M 12.542969 3 C 12.245139 2.9948858 11.949905 3.0183768 11.662109 3.0664062 C 10.022645 3.3400119 8.6057059 4.4503742 8.1015625 6.0566406 C 4.952894 6.4632639 2.4482358 8.9782221 2.0546875 12.130859 C 1.6353943 12.295616 1.2569777 12.605483 1.1074219 13 C 0.88089496 13.597561 1.018635 14.083381 1.171875 14.503906 C 1.3251151 14.924432 1.5454039 15.302984 1.7949219 15.634766 C 2.0444399 15.966548 2.2747993 16.250508 2.7226562 16.474609 L 5.0820312 17.65625 C 5.2483343 17.739479 5.3167094 17.77919 5.3300781 17.785156 C 5.5694118 18.002395 5.7932062 18.411698 6.0976562 18.953125 C 6.4063424 19.502085 6.8397009 20.206139 7.6582031 20.644531 C 8.389879 21.036518 9.0954882 21 10.142578 21 L 13.857422 21 C 14.904522 21 15.61014 21.03653 16.341797 20.644531 C 17.160298 20.206143 17.593641 19.502082 17.902344 18.953125 C 18.206552 18.412162 18.432755 18.002546 18.671875 17.785156 C 18.684654 17.779582 18.750639 17.739993 18.917969 17.65625 L 21.277344 16.474609 C 21.725207 16.250514 21.955553 15.966548 22.205078 15.634766 C 22.454603 15.302983 22.67488 14.924432 22.828125 14.503906 C 22.98137 14.08338 23.119102 13.597564 22.892578 13 C 22.741896 12.602506 22.360579 12.29075 21.9375 12.126953 C 21.560683 9.5537192 19.543358 7.4974328 16.992188 7.078125 C 16.890716 5.1875337 15.440557 3.519324 13.441406 3.1015625 C 13.141224 3.0388336 12.840798 3.0051142 12.542969 3 z M 12.613281 5.0039062 C 12.752246 5.0118393 12.891996 5.0310388 13.033203 5.0605469 C 14.183105 5.3008412 14.918024 6.1392553 14.996094 7.0898438 C 14.447793 7.1862313 13.923863 7.3579248 13.4375 7.59375 C 12.54 6.8553313 11.457655 6.3344153 10.271484 6.1152344 C 10.747075 5.4034071 11.640529 4.9483746 12.613281 5.0039062 z M 9 8 C 11.430522 8 13.440513 9.7103548 13.900391 12 L 11.992188 12 C 11.885899 10.380386 10.630792 9 9 9 C 7.3692212 9 6.1141014 10.380373 6.0078125 12 L 4.0996094 12 C 4.5594847 9.7103536 6.5694678 8 9 8 z M 16.029297 9 C 17.888238 9 19.439556 10.266495 19.876953 12 L 15.927734 12 C 15.77925 10.970413 15.405204 10.011169 14.857422 9.1757812 C 15.226577 9.060973 15.619737 9 16.029297 9 z M 9 11 C 9.451674 11 9.8966371 11.386683 9.984375 12 L 8.015625 12 C 8.1033716 11.386694 8.5483685 11 9 11 z M 3.1523438 14 L 10 14 A 1 1 0 0 0 11 15 A 1 1 0 0 0 12 14 L 20.847656 14 C 20.775656 14.147377 20.70329 14.301572 20.605469 14.431641 C 20.501507 14.569874 20.368868 14.675899 20.353516 14.697266 L 20.351562 14.697266 L 20.351562 14.699219 L 18.021484 15.869141 C 17.785585 15.98719 17.583254 16.075904 17.355469 16.277344 C 16.720616 16.838227 16.428503 17.495463 16.160156 17.972656 C 15.891809 18.449849 15.689535 18.724947 15.398438 18.880859 A 1.0001 1.0001 0 0 0 15.398438 18.882812 C 15.246494 18.964171 14.904522 19 13.857422 19 L 10.142578 19 C 9.0954882 19 8.7535267 18.962272 8.6015625 18.880859 C 8.3104748 18.724952 8.1081728 18.449846 7.8398438 17.972656 C 7.5715148 17.495466 7.2793737 16.838237 6.6445312 16.277344 C 6.4168859 16.076172 6.2143946 15.98719 5.9785156 15.869141 L 3.6484375 14.699219 L 3.6484375 14.697266 L 3.6464844 14.697266 L 3.6464844 14.695312 C 3.6311323 14.673946 3.4984904 14.569872 3.3945312 14.431641 C 3.2967119 14.301571 3.2243375 14.147377 3.1523438 14 z " fill="currentColor"/>
</svg>
