<svg xmlns="http://www.w3.org/2000/svg" width="1em" height="1em" viewBox="0 0 24 24" fill="currentColor">
  <path d="M 12 1 C 10.12071 1 8.693243 0.99498931 7.4960938 1.1386719 C 6.2989445 1.2823544 5.280508 1.6026813 4.4648438 2.2871094 C 4.2195687 2.492919 3.992919 2.7195686 3.7871094 2.9648438 C 3.1026813 3.780508 2.7823544 4.7989445 2.6386719 5.9960938 C 2.4949893 7.193243 2.5 8.62071 2.5 10.5 L 2.5 13.5 C 2.5 15.3793 2.49499 16.80676 2.6386719 18.003906 C 2.7823546 19.201053 3.102665 20.219518 3.7871094 21.035156 C 3.9929251 21.280463 4.2195709 21.507071 4.4648438 21.712891 C 5.280508 22.397319 6.2989445 22.717646 7.4960938 22.861328 C 8.6932431 23.005011 10.12071 23 12 23 C 13.8793 23 15.30676 23.005 16.503906 22.861328 C 17.701053 22.717645 18.719518 22.397335 19.535156 21.712891 C 19.780461 21.507065 20.007065 21.280461 20.212891 21.035156 C 20.897335 20.219518 21.217645 19.201053 21.361328 18.003906 C 21.505011 16.80676 21.5 15.3793 21.5 13.5 L 21.5 10.5 C 21.5 8.62071 21.505 7.193243 21.361328 5.9960938 C 21.217646 4.7989445 20.897319 3.780508 20.212891 2.9648438 C 20.007071 2.7195708 19.780463 2.4929251 19.535156 2.2871094 C 18.719518 1.602665 17.701053 1.2823546 16.503906 1.1386719 C 15.30676 0.99498913 13.8793 1 12 1 z M 12 3 C 13.8793 3 15.269822 3.00548 16.265625 3.125 C 17.261428 3.2445173 17.811038 3.4500038 18.25 3.8183594 C 18.406093 3.9493237 18.550661 4.0939129 18.681641 4.25 C 19.050013 4.6890057 19.255483 5.2385668 19.375 6.234375 C 19.494517 7.2301832 19.5 8.62071 19.5 10.5 L 19.5 13.5 C 19.5 15.3793 19.4945 16.769822 19.375 17.765625 C 19.255483 18.761428 19.049996 19.311038 18.681641 19.75 C 18.550667 19.906095 18.406095 20.050667 18.25 20.181641 C 17.811038 20.549996 17.261428 20.755483 16.265625 20.875 C 15.269822 20.994517 13.8793 21 12 21 C 10.12071 21 8.7301832 20.994517 7.734375 20.875 C 6.7385668 20.755483 6.1890057 20.550013 5.75 20.181641 C 5.5939129 20.050661 5.4493237 19.906093 5.3183594 19.75 C 4.9500038 19.311038 4.7445173 18.761428 4.625 17.765625 C 4.5054827 16.769822 4.5 15.3793 4.5 13.5 L 4.5 10.5 C 4.5 8.62071 4.5054825 7.2301832 4.625 6.234375 C 4.7445175 5.2385668 4.9499874 4.6890057 5.3183594 4.25 C 5.4493298 4.0939151 5.5939151 3.9493298 5.75 3.8183594 C 6.1890057 3.4499874 6.7385668 3.2445175 7.734375 3.125 C 8.7301832 3.0054825 10.12071 3 12 3 z M 12 4.5 C 10.631145 4.5 9.5 5.6311099 9.5 7 C 9.5 8.3688901 10.631145 9.5 12 9.5 C 13.368855 9.5 14.5 8.3688901 14.5 7 C 14.5 5.6311099 13.368855 4.5 12 4.5 z M 12 6.5 C 12.287945 6.5 12.5 6.7120301 12.5 7 C 12.5 7.2879699 12.287945 7.5 12 7.5 C 11.712055 7.5 11.5 7.2879699 11.5 7 C 11.5 6.7120301 11.712055 6.5 12 6.5 z M 12 10.5 C 9.526562 10.5 7.5 12.526562 7.5 15 C 7.5 17.473438 9.526562 19.5 12 19.5 C 14.473438 19.5 16.5 17.473438 16.5 15 C 16.5 12.526562 14.473438 10.5 12 10.5 z M 12 12.5 C 13.392562 12.5 14.5 13.607438 14.5 15 C 14.5 16.392562 13.392562 17.5 12 17.5 C 10.607438 17.5 9.5 16.392562 9.5 15 C 9.5 13.607438 10.607438 12.5 12 12.5 z " fill="currentColor"/>
</svg>
