<svg xmlns="http://www.w3.org/2000/svg" width="1em" height="1em" viewBox="0 0 24 24" fill="currentColor">
  <path d="M 6.5996094 2 C 5.7510794 2 5.0956373 1.9930865 4.4921875 2.0742188 C 3.8887377 2.1553509 3.2735934 2.3670316 2.8203125 2.8203125 C 2.3670316 3.2735934 2.1553509 3.8887377 2.0742188 4.4921875 C 1.9930864 5.0956373 2 5.7510794 2 6.5996094 L 2 8.5 A 1 1 0 0 0 3 9.5 A 1 1 0 0 0 4 8.5 L 4 6.5996094 C 4 6.0696187 4.0209602 5.7962991 4.0351562 5.4492188 L 8.9492188 10.363281 C 10.105359 11.519421 10.567284 12.0168 10.771484 12.509766 C 10.975668 13.00269 11 13.679453 11 15.314453 L 11 21 A 1 1 0 0 0 12 22 A 1 1 0 0 0 13 21 L 13 15.314453 C 13 13.679453 13.02396 12.721416 12.619141 11.744141 C 12.214341 10.766906 11.519421 10.105359 10.363281 8.9492188 L 5.4492188 4.0351562 C 5.7962991 4.0209601 6.0696187 4 6.5996094 4 L 8.5 4 A 1 1 0 0 0 9.5 3 A 1 1 0 0 0 8.5 2 L 6.5996094 2 z M 15.5 2 A 1 1 0 0 0 14.5 3 A 1 1 0 0 0 15.5 4 L 17.400391 4 C 17.930394 4 18.203698 4.0209603 18.550781 4.0351562 L 13.792969 8.7929688 A 1 1 0 0 0 13.792969 10.207031 A 1 1 0 0 0 15.207031 10.207031 L 19.964844 5.4492188 C 19.97904 5.7962996 20 6.0696187 20 6.5996094 L 20 8.5 A 1 1 0 0 0 21 9.5 A 1 1 0 0 0 22 8.5 L 22 6.5996094 C 22 5.7510794 22.006901 5.0956353 21.925781 4.4921875 C 21.844652 3.8887397 21.632962 3.2735952 21.179688 2.8203125 C 20.726414 2.3670307 20.111262 2.1553511 19.507812 2.0742188 C 18.904363 1.9930862 18.248941 2 17.400391 2 L 15.5 2 z " fill="currentColor"/>
</svg>
