<svg xmlns="http://www.w3.org/2000/svg" width="1em" height="1em" viewBox="0 0 24 24" fill="currentColor">
  <path d="M 12 1.5 C 9.885135 1.5 8.2800075 1.494122 6.9453125 1.65625 C 5.6106175 1.818378 4.4935702 2.1773202 3.6035156 2.9375 C 3.3644918 3.1416387 3.1416387 3.3644918 2.9375 3.6035156 C 2.1773202 4.4935702 1.818378 5.6106175 1.65625 6.9453125 C 1.494122 8.2800075 1.5 9.885135 1.5 12 C 1.5 14.11485 1.49412 15.719994 1.65625 17.054688 C 1.8183781 18.389381 2.1773099 19.506443 2.9375 20.396484 C 3.1416562 20.635553 3.3644751 20.858359 3.6035156 21.0625 C 4.4935689 21.822698 5.6106151 22.181618 6.9453125 22.34375 C 8.2800099 22.505882 9.885135 22.5 12 22.5 C 14.11485 22.5 15.719991 22.5059 17.054688 22.34375 C 18.389384 22.181618 19.506444 21.822708 20.396484 21.0625 C 20.635569 20.858342 20.858342 20.635569 21.0625 20.396484 C 21.822708 19.506444 22.181618 18.389384 22.34375 17.054688 C 22.505882 15.719991 22.5 14.11485 22.5 12 C 22.5 9.885135 22.505882 8.2800099 22.34375 6.9453125 C 22.181618 5.6106151 21.822698 4.4935689 21.0625 3.6035156 C 20.858359 3.3644751 20.635553 3.1416562 20.396484 2.9375 C 19.506443 2.1773099 18.389381 1.8183781 17.054688 1.65625 C 15.719994 1.4941219 14.11485 1.5 12 1.5 z M 12 3.5 C 14.11485 3.5 15.681669 3.50521 16.8125 3.6425781 C 17.943331 3.7799426 18.585097 4.0212045 19.097656 4.4589844 C 19.256988 4.5950482 19.404957 4.7430243 19.541016 4.9023438 C 19.978818 5.4149304 20.220054 6.0566699 20.357422 7.1875 C 20.494789 8.3183301 20.5 9.885135 20.5 12 C 20.5 14.11485 20.4948 15.681671 20.357422 16.8125 C 20.220054 17.943329 19.978808 18.585096 19.541016 19.097656 C 19.404974 19.256971 19.256971 19.404974 19.097656 19.541016 C 18.585096 19.978808 17.943329 20.220054 16.8125 20.357422 C 15.681671 20.494789 14.11485 20.5 12 20.5 C 9.885135 20.5 8.3183301 20.494789 7.1875 20.357422 C 6.0566699 20.220054 5.4149305 19.978818 4.9023438 19.541016 C 4.7430243 19.404957 4.5950482 19.256988 4.4589844 19.097656 C 4.0212045 18.585097 3.7799426 17.943331 3.6425781 16.8125 C 3.5052137 15.681669 3.5 14.11485 3.5 12 C 3.5 9.885135 3.5052137 8.3183325 3.6425781 7.1875 C 3.7799426 6.0566675 4.0211942 5.4149292 4.4589844 4.9023438 C 4.5950657 4.7430077 4.7430076 4.5950657 4.9023438 4.4589844 C 5.4149293 4.0211942 6.0566675 3.7799426 7.1875 3.6425781 C 8.3183325 3.5052137 9.885135 3.5 12 3.5 z M 12.498047 7 C 11.151879 7.0105358 9.9160156 7.1171875 9.9160156 7.1171875 A 1 1 0 0 0 9.0039062 8.1972656 A 1 1 0 0 0 10.083984 9.109375 C 10.083984 9.109375 11.262265 9.009794 12.513672 9 C 12.870028 8.9972093 13.233053 9.0018921 13.568359 9.0175781 L 7.2929688 15.292969 A 1 1 0 0 0 7.2929688 16.707031 A 1 1 0 0 0 8.7070312 16.707031 L 14.982422 10.431641 C 14.998109 10.766949 15.002791 11.12997 15 11.486328 C 14.9902 12.737731 14.890625 13.916016 14.890625 13.916016 A 1 1 0 0 0 15.802734 14.996094 A 1 1 0 0 0 16.882812 14.083984 C 16.882812 14.083984 16.989454 12.84812 17 11.501953 C 17.005267 10.828869 16.987275 10.12707 16.914062 9.5 C 16.84085 8.8729302 16.87377 8.3346913 16.269531 7.7304688 C 15.665303 7.1261743 15.127062 7.1591516 14.5 7.0859375 C 13.872938 7.0127234 13.171131 6.9947321 12.498047 7 z " fill="currentColor"/>
</svg>
