<svg xmlns="http://www.w3.org/2000/svg" width="1em" height="1em" viewBox="0 0 24 24" fill="currentColor">
  <path d="M 11 1 C 7.9742792 1 5.5 3.4742792 5.5 6.5 L 5.5 8.265625 C 3.8067526 8.7522587 2.5190519 10.226193 2.2773438 12.021484 C 2.1282302 13.128963 2 14.291461 2 15.5 C 2 16.708539 2.1282303 17.871037 2.2773438 18.978516 C 2.5653736 21.117863 4.33873 22.800398 6.5136719 22.900391 C 7.9453549 22.966183 9.4009966 23 11 23 C 11.169884 23 11.337569 22.998847 11.503906 22.998047 A 1 1 0 0 0 12.5 21.994141 A 1 1 0 0 0 11.496094 20.998047 C 11.332231 20.998742 11.166716 21 11 21 C 9.4296034 21 8.0070058 20.966751 6.6054688 20.902344 C 5.4133506 20.847536 4.4214957 19.91219 4.2597656 18.710938 C 4.115359 17.638417 4 16.566661 4 15.5 C 4 14.433339 4.115359 13.361582 4.2597656 12.289062 C 4.4214958 11.087808 5.4133546 10.152463 6.6054688 10.097656 C 8.0069823 10.03323 9.4295908 10 11 10 C 12.570409 10 13.993027 10.033226 15.394531 10.097656 C 16.423858 10.144976 17.217114 10.818332 17.552734 11.818359 A 1 1 0 0 0 18.818359 12.447266 A 1 1 0 0 0 19.447266 11.181641 C 18.985529 9.8058318 17.901044 8.6863548 16.5 8.2695312 L 16.5 6.5 C 16.5 3.4742846 14.025736 1 11 1 z M 11 3 C 12.944864 3 14.5 4.5551554 14.5 6.5 L 14.5 8.0585938 C 13.382108 8.0191724 12.233723 8 11 8 C 9.7662759 8 8.6178957 8.0191723 7.5 8.0585938 L 7.5 6.5 C 7.5 4.5551608 9.0551608 3 11 3 z M 17 13.005859 C 15.718306 13.005859 14.436963 13.492724 13.464844 14.464844 C 11.520605 16.409083 11.520605 19.590917 13.464844 21.535156 C 15.409083 23.479395 18.590917 23.479395 20.535156 21.535156 C 22.479395 19.590917 22.479395 16.409083 20.535156 14.464844 C 19.563037 13.492724 18.281694 13.005859 17 13.005859 z M 17 14.994141 C 17.765656 14.994141 18.531113 15.288926 19.121094 15.878906 C 20.301055 17.058867 20.301055 18.941133 19.121094 20.121094 C 17.941133 21.301055 16.058867 21.301055 14.878906 20.121094 C 13.698945 18.941133 13.698945 17.058867 14.878906 15.878906 C 15.468887 15.288926 16.234344 14.994141 17 14.994141 z M 16.056641 16.056641 A 1 1 0 0 0 15.349609 16.349609 A 1 1 0 0 0 15.349609 17.763672 L 15.585938 18 L 15.349609 18.236328 A 1 1 0 0 0 15.349609 19.650391 A 1 1 0 0 0 16.763672 19.650391 L 17 19.414062 L 17.236328 19.650391 A 1 1 0 0 0 18.650391 19.650391 A 1 1 0 0 0 18.650391 18.236328 L 18.414062 18 L 18.650391 17.763672 A 1 1 0 0 0 18.650391 16.349609 A 1 1 0 0 0 17.236328 16.349609 L 17 16.585938 L 16.763672 16.349609 A 1 1 0 0 0 16.056641 16.056641 z " fill="currentColor"/>
</svg>
