<svg xmlns="http://www.w3.org/2000/svg" width="1em" height="1em" viewBox="0 0 24 24" fill="currentColor">
  <path d="M 10.800781 1.0175781 C 9.9797727 1.0500794 9.2738483 1.2542085 8.7441406 1.46875 A 1.0001 1.0001 0 0 0 8.6289062 1.5234375 C 7.0974221 2.3857709 6.2040709 3.4868439 5.8164062 4.6757812 C 5.4287417 5.8647186 5.4907741 7.0374704 5.515625 8.2167969 A 1 1 0 0 0 5.5195312 8.2753906 C 4.3405179 8.613264 3.0865872 9.467349 2.5078125 11.087891 A 1.0001 1.0001 0 0 0 2.5 11.111328 C 1.8014844 13.235156 1.8798592 16.665696 2.2617188 18.75 C 2.3645808 19.97453 3.0858626 21.653328 4.9433594 22.521484 C 5.5111648 22.842755 5.9113351 22.830952 6.4882812 22.882812 C 7.0871065 22.936643 7.7814678 22.961879 8.46875 22.974609 C 9.1560322 22.987339 9.8351565 22.986328 10.378906 22.986328 C 10.922656 22.986328 11.391336 22.993594 11.423828 22.996094 A 1 1 0 0 0 12.498047 22.076172 A 1 1 0 0 0 11.576172 21.001953 C 11.283664 20.979453 10.922656 20.986328 10.378906 20.986328 C 9.8351564 20.986328 9.1685772 20.986883 8.5058594 20.974609 C 7.8431416 20.962339 7.1816436 20.936795 6.6679688 20.890625 C 6.2770622 20.85549 5.9107333 20.737919 5.859375 20.744141 L 5.8574219 20.744141 L 5.8574219 20.746094 L 5.8554688 20.746094 L 5.8554688 20.748047 L 5.8554688 20.75 L 5.8554688 20.751953 L 5.8574219 20.751953 C 5.862887 20.759237 5.879373 20.772389 5.9101562 20.791016 A 1.0001 1.0001 0 0 0 5.8105469 20.738281 C 4.620847 20.20153 4.3002747 19.231281 4.2480469 18.570312 A 1.0001 1.0001 0 0 0 4.2324219 18.462891 C 3.9255719 16.84266 3.9568292 13.116231 4.3984375 11.753906 C 4.8650667 10.46463 6.0754451 10.099609 6.7246094 10.099609 A 1.0001 1.0001 0 0 0 6.7734375 10.097656 C 8.2896998 10.023086 9.2486413 9.9960938 11.191406 9.9960938 C 13.108553 9.9960938 15.021484 10.097656 15.021484 10.097656 A 1.0001 1.0001 0 0 0 15.128906 10.097656 C 15.808772 10.060606 16.33444 10.295245 16.757812 10.646484 C 17.181186 10.997723 17.464737 11.49534 17.535156 11.757812 A 1 1 0 0 0 18.759766 12.464844 A 1 1 0 0 0 19.466797 11.240234 C 19.262216 10.477753 18.780534 9.725803 18.035156 9.1074219 C 17.618651 8.7618804 17.108155 8.4678577 16.525391 8.2871094 C 16.515641 8.1259398 16.546281 7.5179831 16.542969 6.8574219 C 16.539569 6.1853818 16.501829 5.4065605 16.212891 4.6425781 A 1.0001 1.0001 0 0 0 16.160156 4.5273438 C 16.164795 4.5359054 16.168052 4.5383845 16.169922 4.5410156 C 16.162972 4.5169427 16.107739 4.3869079 16.044922 4.2402344 C 15.960106 4.0421822 15.833805 3.7812378 15.646484 3.4941406 C 15.271842 2.9199463 14.649121 2.2476777 13.642578 1.6386719 A 1.0001 1.0001 0 0 0 13.550781 1.5898438 C 12.558554 1.1233887 11.62179 0.98507686 10.800781 1.0175781 z M 10.882812 3.0019531 C 11.390484 2.9831851 11.972294 3.079878 12.652344 3.390625 C 13.372605 3.8394454 13.760997 4.2634914 13.972656 4.5878906 C 14.082098 4.755626 14.151461 4.8975879 14.207031 5.0273438 C 14.256086 5.1418869 14.271025 5.2217566 14.357422 5.3945312 C 14.482712 5.75818 14.540211 6.3183648 14.542969 6.8671875 C 14.545151 7.297661 14.515911 7.6901276 14.517578 8.0722656 C 13.78649 8.041036 12.497006 7.9960938 11.191406 7.9960938 C 9.6065281 7.9960938 8.6364303 8.0151069 7.5136719 8.0625 C 7.4903059 6.9187514 7.486168 6.0041959 7.7167969 5.296875 C 7.9499165 4.5819152 8.3906632 3.9791242 9.5546875 3.3085938 C 9.9416103 3.1549501 10.375141 3.0207212 10.882812 3.0019531 z M 16.169922 4.5429688 L 16.169922 4.5449219 L 16.171875 4.5449219 L 16.171875 4.5429688 L 16.169922 4.5429688 z M 17 13 C 14.250439 13 12 15.250439 12 18 C 12 20.749561 14.250439 23 17 23 C 19.749637 23 22 20.749531 22 18 C 22 15.250469 19.749637 13 17 13 z M 17 15 C 18.668763 15 20 16.331331 20 18 C 20 19.668669 18.668763 21 17 21 C 15.331361 21 14 19.668639 14 18 C 14 16.331361 15.331361 15 17 15 z M 18.289062 16.101562 A 1 1 0 0 0 17.796875 16.263672 C 17.061423 16.745936 16.713817 17.313121 16.390625 17.814453 C 16.275901 17.737293 16.242108 17.609493 16.103516 17.542969 A 1 1 0 0 0 14.769531 18.011719 A 1 1 0 0 0 15.238281 19.345703 C 15.224001 19.338803 15.564625 19.647669 15.644531 19.755859 C 15.645494 19.757801 15.647875 19.762243 15.648438 19.763672 C 15.64872 19.764742 15.648314 19.768667 15.648438 19.769531 C 15.648523 19.770343 15.650222 19.774478 15.650391 19.775391 C 15.651137 19.777725 15.65201 19.780884 15.654297 19.785156 C 15.713547 19.896277 15.820802 20.070022 16.070312 20.205078 C 16.319824 20.340134 16.684098 20.34368 16.892578 20.269531 C 17.309539 20.12124 17.337884 19.966302 17.394531 19.888672 C 17.451181 19.811042 17.477021 19.762018 17.501953 19.716797 C 17.601673 19.535911 17.667184 19.387023 17.779297 19.1875 C 18.003522 18.788454 18.352039 18.291279 18.894531 17.935547 A 1 1 0 0 0 19.181641 16.550781 A 1 1 0 0 0 18.289062 16.101562 z M 17.416016 18.84375 L 17.417969 18.845703 C 17.524776 19.046001 17.508159 19.094243 17.511719 19.119141 A 1.0001 1.0001 0 0 0 17.416016 18.84375 z " fill="currentColor"/>
</svg>
