<svg xmlns="http://www.w3.org/2000/svg" width="1em" height="1em" viewBox="0 0 24 24" fill="currentColor">
  <path d="M 12 1.5 C 9.76083 1.5 8.061073 1.4944581 6.6542969 1.6835938 C 5.2475207 1.8727295 4.0688969 2.2982969 3.1835938 3.1835938 C 2.2982969 4.0688968 1.8727295 5.2475207 1.6835938 6.6542969 C 1.494458 8.061073 1.5 9.76083 1.5 12 C 1.5 14.23915 1.4944601 15.93892 1.6835938 17.345703 C 1.8727292 18.752486 2.2983047 19.931079 3.1835938 20.816406 C 4.0688995 21.70168 5.2475238 22.127276 6.6542969 22.316406 C 8.0610699 22.505536 9.76083 22.5 12 22.5 C 14.23915 22.5 15.938923 22.5055 17.345703 22.316406 C 18.752483 22.127277 19.931076 21.701673 20.816406 20.816406 C 21.701673 19.931076 22.127277 18.752483 22.316406 17.345703 C 22.505536 15.938923 22.5 14.23915 22.5 12 C 22.5 9.76083 22.5055 8.0610699 22.316406 6.6542969 C 22.127276 5.2475238 21.70168 4.0688995 20.816406 3.1835938 C 19.931079 2.2983046 18.752486 1.8727291 17.345703 1.6835938 C 15.93892 1.4944584 14.23915 1.5 12 1.5 z M 12 3.5 C 14.23915 3.5 15.897908 3.50539 17.078125 3.6640625 C 18.258342 3.8227371 18.896371 4.0917053 19.402344 4.5976562 C 19.90827 5.1036005 20.177267 5.7416656 20.335938 6.921875 C 20.494609 8.1020844 20.5 9.76083 20.5 12 C 20.5 14.23915 20.4946 15.897905 20.335938 17.078125 C 20.177267 18.258345 19.908277 18.896374 19.402344 19.402344 C 18.896374 19.908277 18.258345 20.177267 17.078125 20.335938 C 15.897905 20.494609 14.23915 20.5 12 20.5 C 9.76083 20.5 8.1020844 20.494608 6.921875 20.335938 C 5.7416656 20.177267 5.1036004 19.90827 4.5976562 19.402344 C 4.0917053 18.896371 3.8227371 18.258342 3.6640625 17.078125 C 3.5053879 15.897908 3.5 14.23915 3.5 12 C 3.5 9.76083 3.5053882 8.1020814 3.6640625 6.921875 C 3.8227368 5.7416686 4.091713 5.1036031 4.5976562 4.5976562 C 5.1036031 4.0917131 5.7416686 3.8227368 6.921875 3.6640625 C 8.1020814 3.5053882 9.76083 3.5 12 3.5 z M 11.519531 7.5 A 1 1 0 0 0 10.90625 7.6953125 C 10.90625 7.6953125 10.006555 8.3558801 9.09375 9.1484375 C 8.6373473 9.5447162 8.1759938 9.9732645 7.796875 10.402344 C 7.4177562 10.831423 7.0000094 11.136962 7 12 C 6.9999906 12.863051 7.4177551 13.168579 7.796875 13.597656 C 8.1759949 14.026733 8.6373454 14.455288 9.09375 14.851562 C 10.006559 15.644111 10.90625 16.304688 10.90625 16.304688 A 1 1 0 0 0 12.304688 16.09375 A 1 1 0 0 0 12.09375 14.695312 C 12.09375 14.695312 11.243423 14.068674 10.40625 13.341797 C 10.272225 13.22543 10.179472 13.118414 10.050781 13 L 16 13 A 1 1 0 0 0 17 12 A 1 1 0 0 0 16 11 L 10.052734 11 C 10.180862 10.882137 10.272859 10.775975 10.40625 10.660156 C 11.243422 9.9332688 12.09375 9.3046875 12.09375 9.3046875 A 1 1 0 0 0 12.304688 7.90625 A 1 1 0 0 0 11.650391 7.5117188 A 1 1 0 0 0 11.519531 7.5 z " fill="currentColor"/>
</svg>
