<svg xmlns="http://www.w3.org/2000/svg" width="1em" height="1em" viewBox="0 0 24 24" fill="currentColor">
  <path d="M 12 1.5 C 9.76083 1.5 8.061073 1.4944581 6.6542969 1.6835938 C 5.2475207 1.8727295 4.0688969 2.2982969 3.1835938 3.1835938 C 2.2982969 4.0688968 1.8727295 5.2475207 1.6835938 6.6542969 C 1.494458 8.061073 1.5 9.76083 1.5 12 C 1.5 14.23915 1.4944601 15.93892 1.6835938 17.345703 C 1.8727292 18.752486 2.2983047 19.931079 3.1835938 20.816406 C 4.0688995 21.70168 5.2475238 22.127276 6.6542969 22.316406 C 8.0610699 22.505536 9.76083 22.5 12 22.5 C 14.23915 22.5 15.938923 22.5055 17.345703 22.316406 C 18.752483 22.127277 19.931076 21.701673 20.816406 20.816406 C 21.701673 19.931076 22.127277 18.752483 22.316406 17.345703 C 22.505536 15.938923 22.5 14.23915 22.5 12 C 22.5 9.76083 22.5055 8.0610699 22.316406 6.6542969 C 22.127276 5.2475238 21.70168 4.0688995 20.816406 3.1835938 C 19.931079 2.2983046 18.752486 1.8727291 17.345703 1.6835938 C 15.93892 1.4944584 14.23915 1.5 12 1.5 z M 12 3.5 C 14.23915 3.5 15.897908 3.50539 17.078125 3.6640625 C 18.258342 3.8227371 18.896371 4.0917053 19.402344 4.5976562 C 19.90827 5.1036005 20.177267 5.7416656 20.335938 6.921875 C 20.494609 8.1020844 20.5 9.76083 20.5 12 C 20.5 14.23915 20.4946 15.897905 20.335938 17.078125 C 20.177267 18.258345 19.908277 18.896374 19.402344 19.402344 C 18.896374 19.908277 18.258345 20.177267 17.078125 20.335938 C 15.897905 20.494609 14.23915 20.5 12 20.5 C 9.76083 20.5 8.1020844 20.494608 6.921875 20.335938 C 5.7416656 20.177267 5.1036004 19.90827 4.5976562 19.402344 C 4.0917053 18.896371 3.8227371 18.258342 3.6640625 17.078125 C 3.5053879 15.897908 3.5 14.23915 3.5 12 C 3.5 9.76083 3.5053882 8.1020814 3.6640625 6.921875 C 3.8227368 5.7416686 4.091713 5.1036031 4.5976562 4.5976562 C 5.1036031 4.0917131 5.7416686 3.8227368 6.921875 3.6640625 C 8.1020814 3.5053882 9.76083 3.5 12 3.5 z M 9.9765625 6.0019531 A 1 1 0 0 0 9.4804688 6.1464844 C 9.4804688 6.1464844 8.9347215 6.4759022 8.3730469 6.9277344 C 8.0922096 7.1536504 7.8012846 7.4102993 7.5449219 7.7167969 C 7.2885592 8.0232945 7 8.3783163 7 9 C 7 9.6216837 7.2885592 9.9767056 7.5449219 10.283203 C 7.8012846 10.589701 8.0922096 10.84635 8.3730469 11.072266 C 8.9347215 11.524098 9.4804688 11.853516 9.4804688 11.853516 A 1 1 0 0 0 10.853516 11.519531 A 1 1 0 0 0 10.519531 10.146484 C 10.519531 10.146484 10.355512 10.02743 10.3125 10 L 16 10 A 1 1 0 0 0 17 9 A 1 1 0 0 0 16 8 L 10.3125 8 C 10.35551 7.97257 10.519531 7.8535156 10.519531 7.8535156 A 1 1 0 0 0 10.853516 6.4804688 A 1 1 0 0 0 9.9765625 6.0019531 z M 14.023438 12 A 1 1 0 0 0 13.763672 12.027344 A 1 1 0 0 0 13.146484 12.480469 A 1 1 0 0 0 13.480469 13.853516 C 13.480469 13.853516 13.644487 13.972569 13.6875 14 L 8 14 A 1 1 0 0 0 7 15 A 1 1 0 0 0 8 16 L 13.6875 16 C 13.64449 16.02743 13.480469 16.146484 13.480469 16.146484 A 1 1 0 0 0 13.146484 17.519531 A 1 1 0 0 0 14.519531 17.853516 C 14.519531 17.853516 15.065284 17.524101 15.626953 17.072266 C 15.907788 16.846348 16.198719 16.589694 16.455078 16.283203 C 16.711438 15.976712 17 15.621698 17 15 C 17 14.378302 16.711438 14.023288 16.455078 13.716797 C 16.198719 13.410306 15.907788 13.153652 15.626953 12.927734 C 15.065284 12.475899 14.519531 12.146484 14.519531 12.146484 A 1 1 0 0 0 14.023438 12 z " fill="currentColor"/>
</svg>
