<svg xmlns="http://www.w3.org/2000/svg" width="1em" height="1em" viewBox="0 0 24 24" fill="currentColor">
  <path d="M 12 1.5 C 9.76083 1.5 8.061073 1.4944581 6.6542969 1.6835938 C 5.2475207 1.8727295 4.0688969 2.2982969 3.1835938 3.1835938 C 2.2982969 4.0688968 1.8727295 5.2475207 1.6835938 6.6542969 C 1.494458 8.061073 1.5 9.76083 1.5 12 C 1.5 14.23915 1.4944601 15.93892 1.6835938 17.345703 C 1.8727292 18.752486 2.2983047 19.931079 3.1835938 20.816406 C 4.0688995 21.70168 5.2475238 22.127276 6.6542969 22.316406 C 8.0610699 22.505536 9.76083 22.5 12 22.5 C 14.23915 22.5 15.938923 22.5055 17.345703 22.316406 C 18.752483 22.127277 19.931076 21.701673 20.816406 20.816406 C 21.701673 19.931076 22.127277 18.752483 22.316406 17.345703 C 22.505536 15.938923 22.5 14.23915 22.5 12 C 22.5 9.76083 22.5055 8.0610699 22.316406 6.6542969 C 22.127276 5.2475238 21.70168 4.0688995 20.816406 3.1835938 C 19.931079 2.2983046 18.752486 1.8727291 17.345703 1.6835938 C 15.93892 1.4944584 14.23915 1.5 12 1.5 z M 12 3.5 C 14.23915 3.5 15.897908 3.50539 17.078125 3.6640625 C 18.258342 3.8227371 18.896371 4.0917053 19.402344 4.5976562 C 19.90827 5.1036005 20.177267 5.7416656 20.335938 6.921875 C 20.494609 8.1020844 20.5 9.76083 20.5 12 C 20.5 14.23915 20.4946 15.897905 20.335938 17.078125 C 20.177267 18.258345 19.908277 18.896374 19.402344 19.402344 C 18.896374 19.908277 18.258345 20.177267 17.078125 20.335938 C 15.897905 20.494609 14.23915 20.5 12 20.5 C 9.76083 20.5 8.1020844 20.494608 6.921875 20.335938 C 5.7416656 20.177267 5.1036004 19.90827 4.5976562 19.402344 C 4.0917053 18.896371 3.8227371 18.258342 3.6640625 17.078125 C 3.5053879 15.897908 3.5 14.23915 3.5 12 C 3.5 9.76083 3.5053882 8.1020814 3.6640625 6.921875 C 3.8227368 5.7416686 4.091713 5.1036031 4.5976562 4.5976562 C 5.1036031 4.0917131 5.7416686 3.8227368 6.921875 3.6640625 C 8.1020814 3.5053882 9.76083 3.5 12 3.5 z M 14.119141 5.9960938 A 1 1 0 0 0 13.521484 6.234375 A 1 1 0 0 0 13.412109 7.6445312 C 13.627472 7.8962426 13.850744 8.0872354 14.083984 8.3046875 C 12.217825 8.4757723 10.580558 8.8972296 9.2148438 10.185547 C 7.3038729 11.988364 6.8873589 14.190473 7.0292969 17.054688 A 1 1 0 0 0 8.078125 18.003906 A 1 1 0 0 0 9.0273438 16.955078 C 8.8949416 14.283292 9.1092214 13.035607 10.587891 11.640625 C 11.536114 10.746139 12.57389 10.428228 13.839844 10.275391 C 13.688696 10.426314 13.551519 10.53933 13.412109 10.703125 A 1 1 0 0 0 13.527344 12.113281 A 1 1 0 0 0 14.935547 12 C 15.187072 11.704477 15.68968 11.260568 16.128906 10.814453 C 16.34852 10.591396 16.556712 10.372738 16.738281 10.078125 C 16.862371 9.8767782 16.947149 9.5412167 16.933594 9.1738281 A 1 1 0 0 0 16.970703 9.1386719 A 1 1 0 0 0 16.902344 8.9648438 C 16.879574 8.8585757 16.913409 8.7649678 16.855469 8.6542969 A 1 1 0 0 0 16.751953 8.5683594 C 16.689208 8.4389071 16.718989 8.212671 16.654297 8.1191406 C 16.470625 7.853592 16.264965 7.6436144 16.050781 7.4335938 C 15.622415 7.0135524 15.145804 6.594059 14.931641 6.34375 A 1 1 0 0 0 14.25 5.9980469 A 1 1 0 0 0 14.119141 5.9960938 z " fill="currentColor"/>
</svg>
