<svg xmlns="http://www.w3.org/2000/svg" width="1em" height="1em" viewBox="0 0 24 24" fill="currentColor">
  <path d="M 12 1.5 C 9.76083 1.5 8.061073 1.4944581 6.6542969 1.6835938 C 5.2475207 1.8727295 4.0688969 2.2982969 3.1835938 3.1835938 C 2.2982969 4.0688968 1.8727295 5.2475207 1.6835938 6.6542969 C 1.494458 8.061073 1.5 9.76083 1.5 12 C 1.5 14.23915 1.4944601 15.93892 1.6835938 17.345703 C 1.8727292 18.752486 2.2983047 19.931079 3.1835938 20.816406 C 4.0688995 21.70168 5.2475238 22.127276 6.6542969 22.316406 C 8.0610699 22.505536 9.76083 22.5 12 22.5 C 14.23915 22.5 15.938923 22.5055 17.345703 22.316406 C 18.752483 22.127277 19.931076 21.701673 20.816406 20.816406 C 21.701673 19.931076 22.127277 18.752483 22.316406 17.345703 C 22.505536 15.938923 22.5 14.23915 22.5 12 C 22.5 9.76083 22.5055 8.0610699 22.316406 6.6542969 C 22.127276 5.2475238 21.70168 4.0688995 20.816406 3.1835938 C 19.931079 2.2983046 18.752486 1.8727291 17.345703 1.6835938 C 15.93892 1.4944584 14.23915 1.5 12 1.5 z M 12 3.5 C 14.23915 3.5 15.897908 3.50539 17.078125 3.6640625 C 18.258342 3.8227371 18.896371 4.0917053 19.402344 4.5976562 C 19.90827 5.1036005 20.177267 5.7416656 20.335938 6.921875 C 20.494609 8.1020844 20.5 9.76083 20.5 12 C 20.5 14.23915 20.4946 15.897905 20.335938 17.078125 C 20.177267 18.258345 19.908277 18.896374 19.402344 19.402344 C 18.896374 19.908277 18.258345 20.177267 17.078125 20.335938 C 15.897905 20.494609 14.23915 20.5 12 20.5 C 9.76083 20.5 8.1020844 20.494608 6.921875 20.335938 C 5.7416656 20.177267 5.1036004 19.90827 4.5976562 19.402344 C 4.0917053 18.896371 3.8227371 18.258342 3.6640625 17.078125 C 3.5053879 15.897908 3.5 14.23915 3.5 12 C 3.5 9.76083 3.5053882 8.1020814 3.6640625 6.921875 C 3.8227368 5.7416686 4.091713 5.1036031 4.5976562 4.5976562 C 5.1036031 4.0917131 5.7416686 3.8227368 6.921875 3.6640625 C 8.1020814 3.5053882 9.76083 3.5 12 3.5 z M 9.9589844 6 A 1 1 0 0 0 9.2636719 6.3222656 A 1 1 0 0 0 9.3222656 7.7363281 C 9.3222656 7.7363281 10.297835 8.6353706 11.263672 9.6835938 C 11.746591 10.207705 12.225827 10.769469 12.558594 11.240234 C 12.789563 11.566987 12.913161 11.891236 12.966797 12 C 12.913161 12.108764 12.789563 12.433013 12.558594 12.759766 C 12.225827 13.230531 11.746591 13.792295 11.263672 14.316406 C 10.297835 15.364629 9.3222656 16.263672 9.3222656 16.263672 A 1 1 0 0 0 9.2636719 17.677734 A 1 1 0 0 0 10.677734 17.736328 C 10.677734 17.736328 11.702165 16.794252 12.736328 15.671875 C 13.253409 15.110687 13.774173 14.504322 14.191406 13.914062 C 14.60864 13.323806 15 12.83537 15 12 C 15 11.16463 14.608639 10.676196 14.191406 10.085938 C 13.774173 9.4956775 13.253409 8.8893134 12.736328 8.328125 C 11.702165 7.2057482 10.677734 6.2636719 10.677734 6.2636719 A 1 1 0 0 0 9.9589844 6 z " fill="currentColor"/>
</svg>
