<svg xmlns="http://www.w3.org/2000/svg" width="1em" height="1em" viewBox="0 0 24 24" fill="currentColor">
  <path d="M 12 1.5 C 9.76083 1.5 8.061073 1.4944581 6.6542969 1.6835938 C 5.2475207 1.8727295 4.0688969 2.2982969 3.1835938 3.1835938 C 2.2982969 4.0688968 1.8727295 5.2475207 1.6835938 6.6542969 C 1.494458 8.061073 1.5 9.76083 1.5 12 C 1.5 14.23915 1.4944601 15.93892 1.6835938 17.345703 C 1.8727292 18.752486 2.2983047 19.931079 3.1835938 20.816406 C 4.0688995 21.70168 5.2475238 22.127276 6.6542969 22.316406 C 8.0610699 22.505536 9.76083 22.5 12 22.5 C 14.23915 22.5 15.938923 22.5055 17.345703 22.316406 C 18.752483 22.127277 19.931076 21.701673 20.816406 20.816406 C 21.701673 19.931076 22.127277 18.752483 22.316406 17.345703 C 22.505536 15.938923 22.5 14.23915 22.5 12 C 22.5 9.76083 22.5055 8.0610699 22.316406 6.6542969 C 22.127276 5.2475238 21.70168 4.0688995 20.816406 3.1835938 C 19.931079 2.2983046 18.752486 1.8727291 17.345703 1.6835938 C 15.93892 1.4944584 14.23915 1.5 12 1.5 z M 12 3.5 C 14.23915 3.5 15.897908 3.50539 17.078125 3.6640625 C 18.258342 3.8227371 18.896371 4.0917053 19.402344 4.5976562 C 19.90827 5.1036005 20.177267 5.7416656 20.335938 6.921875 C 20.494609 8.1020844 20.5 9.76083 20.5 12 C 20.5 14.23915 20.4946 15.897905 20.335938 17.078125 C 20.177267 18.258345 19.908277 18.896374 19.402344 19.402344 C 18.896374 19.908277 18.258345 20.177267 17.078125 20.335938 C 15.897905 20.494609 14.23915 20.5 12 20.5 C 9.76083 20.5 8.1020844 20.494608 6.921875 20.335938 C 5.7416656 20.177267 5.1036004 19.90827 4.5976562 19.402344 C 4.0917053 18.896371 3.8227371 18.258342 3.6640625 17.078125 C 3.5053879 15.897908 3.5 14.23915 3.5 12 C 3.5 9.76083 3.5053882 8.1020814 3.6640625 6.921875 C 3.8227368 5.7416686 4.091713 5.1036031 4.5976562 4.5976562 C 5.1036031 4.0917131 5.7416686 3.8227368 6.921875 3.6640625 C 8.1020814 3.5053882 9.76083 3.5 12 3.5 z M 17 6 A 1 1 0 0 0 16.292969 6.2929688 L 13.523438 9.0625 C 13.499638 8.5487088 13.503906 8.0390625 13.503906 8.0390625 A 1 1 0 0 0 12.542969 7 A 1 1 0 0 0 11.503906 7.9609375 C 11.503906 7.9609375 11.47875 8.6161689 11.53125 9.3632812 C 11.5575 9.7368374 11.60043 10.137205 11.691406 10.529297 C 11.782376 10.921388 11.871559 11.320778 12.275391 11.724609 C 12.679232 12.128451 13.078607 12.217633 13.470703 12.308594 C 13.862799 12.399554 14.263161 12.442512 14.636719 12.46875 C 15.383834 12.52123 16.039063 12.494141 16.039062 12.494141 A 1 1 0 0 0 17 11.457031 A 1 1 0 0 0 15.960938 10.496094 C 15.960938 10.496094 15.451289 10.500393 14.9375 10.476562 L 17.707031 7.7070312 A 1 1 0 0 0 17.707031 6.2929688 A 1 1 0 0 0 17 6 z M 8.3789062 11.5 C 8.1217094 11.500212 7.9570312 11.507812 7.9570312 11.507812 A 1 1 0 0 0 6.9980469 12.546875 A 1 1 0 0 0 8.0351562 13.507812 C 8.0351562 13.507812 8.544807 13.503514 9.0585938 13.527344 L 6.2929688 16.292969 A 1 1 0 0 0 6.2929688 17.707031 A 1 1 0 0 0 7.7070312 17.707031 L 10.472656 14.941406 C 10.496436 15.455195 10.492188 15.964844 10.492188 15.964844 A 1 1 0 0 0 11.453125 17.001953 A 1 1 0 0 0 12.492188 16.042969 C 12.492188 16.042969 12.517314 15.38774 12.464844 14.640625 C 12.438604 14.267067 12.395644 13.866706 12.304688 13.474609 C 12.213727 13.082513 12.124545 12.683139 11.720703 12.279297 C 11.316862 11.875456 10.917486 11.786272 10.525391 11.695312 C 10.133295 11.604352 9.7329315 11.559441 9.359375 11.533203 C 8.9858185 11.506963 8.6361031 11.499788 8.3789062 11.5 z " fill="currentColor"/>
</svg>
