<svg xmlns="http://www.w3.org/2000/svg" width="1em" height="1em" viewBox="0 0 24 24" fill="currentColor">
  <path d="M 11 1 C 7.9742792 1 5.5 3.4742792 5.5 6.5 L 5.5 8.28125 C 3.8126912 8.781032 2.5257656 10.236607 2.28125 12.019531 C 2.1293205 13.127319 2 14.290143 2 15.5 C 2 16.709857 2.1293205 17.872681 2.28125 18.980469 C 2.5757768 21.128058 4.382736 22.801213 6.5800781 22.900391 C 8.0347546 22.966019 9.3717778 23 11 23 A 1 1 0 0 0 12 22 A 1 1 0 0 0 11 21 C 9.3998622 21 8.1031386 20.966916 6.671875 20.902344 C 5.4395171 20.846721 4.427285 19.901996 4.2636719 18.708984 C 4.1166214 17.636772 4 16.565343 4 15.5 C 4 14.434657 4.1166214 13.363228 4.2636719 12.291016 C 4.4272851 11.098004 5.439521 10.153279 6.671875 10.097656 C 8.1000227 10.033205 9.5483171 10 11.148438 10 C 12.748608 10 14.198775 10.033206 15.626953 10.097656 C 16.820775 10.151536 17.806965 11.041193 18.015625 12.179688 A 1 1 0 0 0 19.179688 12.984375 A 1 1 0 0 0 19.984375 11.820312 C 19.655505 10.025918 18.266707 8.5977842 16.5 8.203125 L 16.5 6.5 C 16.5 3.4742846 14.025736 1 11 1 z M 11 3 C 12.944864 3 14.5 4.5551554 14.5 6.5 L 14.5 8.0527344 C 13.428548 8.0180151 12.326699 8 11.148438 8 C 9.8611201 8 8.6649422 8.0211314 7.5 8.0625 L 7.5 6.5 C 7.5 4.5551608 9.0551608 3 11 3 z M 13 16 A 1 1 0 0 0 12 17 A 1 1 0 0 0 13 18 L 21 18 A 1 1 0 0 0 22 17 A 1 1 0 0 0 21 16 L 13 16 z " fill="currentColor"/>
</svg>
