<svg xmlns="http://www.w3.org/2000/svg" width="1em" height="1em" viewBox="0 0 24 24" fill="currentColor">
  <path d="M 11.990234 2 C 11.476949 2.00523 10.834527 2.1198082 10.121094 2.4121094 C 9.4076601 2.7044106 8.6321546 3.1862664 8.0644531 3.9804688 C 7.2999644 5.0499698 7.0598649 6.1413408 7.0253906 6.9121094 C 7.0069677 7.323924 7.0368657 7.7549218 7.1484375 8.1894531 C 7.3292779 8.893698 7.7554381 9.8702629 8.6289062 11.085938 A 1.0001 1.0001 0 0 0 8.6289062 11.087891 C 8.7447712 11.249128 8.8016749 11.351044 8.8144531 11.386719 C 8.9895966 11.875876 9.0187285 13.011719 8.671875 15 L 7.6660156 15 C 7.0460356 15 6.6504536 14.97378 6.1640625 15.136719 C 5.0677248 15.503976 4.3358792 16.494687 4.0898438 17.642578 C 3.9867821 18.123331 4 18.559084 4 19.333984 C 4 19.721484 3.9876276 19.961334 4.0566406 20.283203 C 4.2102178 20.999686 4.6725804 21.654593 5.4238281 21.90625 C 5.7830414 22.026581 6.0239944 22 6.3339844 22 L 17.666016 22 C 17.976016 22 18.216796 22.0267 18.576172 21.90625 C 19.327398 21.654608 19.78986 20.999866 19.943359 20.283203 C 20.012459 19.961209 20 19.721484 20 19.333984 C 20 18.559084 20.013116 18.123227 19.910156 17.642578 C 19.664035 16.494741 18.932291 15.50397 17.835938 15.136719 C 17.349517 14.97375 16.953984 15 16.333984 15 L 15.330078 15 C 14.990792 13.023363 15.043564 11.897798 15.226562 11.386719 C 15.239303 11.351149 15.299253 11.247913 15.414062 11.087891 L 15.414062 11.085938 C 16.286654 9.8711597 16.711904 8.8935016 16.892578 8.1894531 C 17.004153 7.7549613 17.036044 7.3240447 17.017578 6.9121094 C 16.98314 6.1413363 16.741025 5.0499674 15.976562 3.9804688 C 15.404393 3.1800437 14.617186 2.701121 13.894531 2.4101562 C 13.171877 2.1191913 12.522874 2.0052236 12.009766 2 A 1.0001 1.0001 0 0 0 11.990234 2 z M 12 4.0019531 C 12.178551 4.0048931 12.677991 4.0762081 13.148438 4.265625 C 13.622858 4.4566427 14.071679 4.7557262 14.349609 5.1445312 C 14.850347 5.8450726 15.000369 6.5711001 15.019531 7 C 15.030661 7.2483847 15.009831 7.4876512 14.957031 7.6933594 C 14.857401 8.0815943 14.542124 8.8719044 13.789062 9.9199219 C 13.658549 10.101603 13.473545 10.35063 13.34375 10.712891 C 13.204611 11.10148 13.117958 11.524156 13.080078 12 L 10.955078 12 C 10.922045 11.528037 10.83787 11.105584 10.697266 10.712891 C 10.567484 10.350518 10.382568 10.101685 10.251953 9.9199219 C 9.4989413 8.871896 9.1856771 8.0817745 9.0859375 7.6933594 C 9.0331293 7.4876907 9.0123204 7.2485054 9.0234375 7 C 9.0426233 6.5710486 9.1906548 5.8450702 9.6914062 5.1445312 C 9.9737747 4.7495036 10.415942 4.4533532 10.878906 4.2636719 C 11.337902 4.0756166 11.821874 4.0049029 12 4.0019531 z M 10.859375 14 L 13.152344 14 C 13.189851 14.313797 13.237808 14.646355 13.296875 15 L 10.707031 15 C 10.76825 14.646266 10.818704 14.313775 10.859375 14 z M 7.6660156 17 L 16.333984 17 C 16.953984 17 17.177039 17.025773 17.199219 17.033203 C 17.483265 17.128353 17.831195 17.484737 17.955078 18.0625 L 17.953125 18.0625 C 17.986408 18.217654 18 18.559084 18 19.333984 C 18 19.721484 17.987381 19.867475 17.988281 19.863281 C 17.974025 19.929843 17.951314 19.969686 17.935547 19.992188 C 17.885096 19.994791 17.796195 20 17.666016 20 L 6.3339844 20 C 6.2037104 20 6.1148461 19.994772 6.0644531 19.992188 C 6.0486861 19.969684 6.0259868 19.929846 6.0117188 19.863281 C 6.0125914 19.867317 6 19.721484 6 19.333984 C 6 18.559084 6.0136366 18.217547 6.046875 18.0625 C 6.1706995 17.484791 6.5167591 17.128346 6.8007812 17.033203 C 6.8230701 17.025737 7.0460356 17 7.6660156 17 z " fill="currentColor"/>
</svg>
