<svg xmlns="http://www.w3.org/2000/svg" width="1em" height="1em" viewBox="0 0 24 24" fill="currentColor">
  <path d="M 12 1 C 10.648204 1 9.3494667 1.2452937 8.1503906 1.6933594 A 1 1 0 0 0 7.5625 2.9804688 A 1 1 0 0 0 8.8496094 3.5664062 C 9.8292133 3.2003518 10.889196 3 12 3 C 13.110804 3 14.170845 3.2003602 15.150391 3.5664062 A 1 1 0 0 0 16.4375 2.9804688 A 1 1 0 0 0 15.849609 1.6933594 C 14.650555 1.2452854 13.351796 1 12 1 z M 6.9980469 4 C 6.2989637 4 5.8224996 4.5039303 5.5820312 4.9863281 A 1.0001 1.0001 0 0 0 5.5820312 4.9882812 L 5.1445312 5.8652344 L 4.4042969 5.9902344 C 3.8768523 6.0788689 3.2684905 6.3987307 3.0644531 7.0429688 C 2.8604158 7.6872068 3.1691982 8.2930457 3.5449219 8.671875 L 4.1289062 9.2617188 L 3.9667969 9.9707031 C 3.8386889 10.528921 3.8441339 11.26908 4.4765625 11.734375 C 4.7927768 11.967023 5.1898923 12.025628 5.5019531 11.986328 C 5.814014 11.947028 6.0724624 11.834633 6.3183594 11.6875 L 7 11.28125 L 7.6816406 11.6875 C 7.9272399 11.833771 8.1867692 11.946584 8.4980469 11.986328 C 8.8093246 12.026068 9.2040177 11.969698 9.5214844 11.736328 C 9.838951 11.502958 10.010075 11.145204 10.066406 10.837891 C 10.122736 10.530577 10.09495 10.249396 10.03125 9.9707031 L 9.8691406 9.2617188 L 10.451172 8.6738281 L 10.453125 8.671875 C 10.830577 8.2928945 11.13886 7.684868 10.933594 7.0410156 C 10.728002 6.396142 10.122879 6.0788235 9.5957031 5.9902344 A 1.0001 1.0001 0 0 0 9.59375 5.9902344 L 8.8496094 5.8652344 L 8.4160156 4.9902344 C 8.1774492 4.5066365 7.69713 4 6.9980469 4 z M 16.998047 4 C 16.298957 4 15.822515 4.503967 15.582031 4.9863281 A 1.0001 1.0001 0 0 0 15.582031 4.9882812 L 15.144531 5.8652344 L 14.404297 5.9902344 C 13.876862 6.0788704 13.268472 6.3987176 13.064453 7.0429688 C 12.860434 7.68722 13.169163 8.2930534 13.544922 8.671875 L 14.128906 9.2617188 L 13.966797 9.9707031 C 13.838677 10.528938 13.844137 11.269097 14.476562 11.734375 C 14.792775 11.967014 15.18989 12.025629 15.501953 11.986328 C 15.814016 11.947028 16.072463 11.834639 16.318359 11.6875 L 17 11.28125 L 17.681641 11.6875 C 17.92724 11.833778 18.186767 11.946584 18.498047 11.986328 C 18.809326 12.026068 19.204018 11.969688 19.521484 11.736328 C 19.83895 11.502968 20.01007 11.145216 20.066406 10.837891 C 20.122746 10.530566 20.09496 10.249406 20.03125 9.9707031 L 19.869141 9.2617188 L 20.451172 8.6738281 L 20.453125 8.671875 C 20.830611 8.2929077 21.138836 7.684893 20.933594 7.0410156 C 20.728026 6.396117 20.122875 6.0788258 19.595703 5.9902344 A 1.0001 1.0001 0 0 0 19.59375 5.9902344 L 18.849609 5.8652344 L 18.416016 4.9902344 C 18.17749 4.5066694 17.697136 4 16.998047 4 z M 6.9980469 6.6347656 L 7.1464844 6.9355469 L 7.1484375 6.9375 C 7.4155248 7.485843 7.7120231 7.7008648 8.3066406 7.8007812 L 8.4746094 7.828125 L 8.2910156 8.0136719 C 7.8438093 8.4645697 7.7371901 8.867501 7.8691406 9.4726562 L 7.8085938 9.4355469 C 7.231307 9.0905789 6.7683694 9.0965524 6.1972656 9.4316406 A 1.0001 1.0001 0 0 0 6.1894531 9.4355469 L 6.1289062 9.4726562 C 6.2608939 8.8674675 6.1561893 8.4645683 5.7089844 8.0136719 L 5.5253906 7.828125 L 5.6914062 7.8007812 A 1.0001 1.0001 0 0 0 5.6953125 7.8007812 C 6.2919731 7.6986225 6.580601 7.4858243 6.8476562 6.9375 L 6.8496094 6.9355469 L 6.9980469 6.6347656 z M 16.998047 6.6347656 L 17.146484 6.9355469 L 17.146484 6.9375 L 17.148438 6.9375 C 17.415564 7.4858449 17.712043 7.7008742 18.306641 7.8007812 L 18.474609 7.828125 L 18.291016 8.0136719 C 17.843748 8.4645516 17.737142 8.8674329 17.869141 9.4726562 L 17.808594 9.4355469 C 17.231437 9.0906779 16.768222 9.0966831 16.197266 9.4316406 A 1.0001 1.0001 0 0 0 16.189453 9.4355469 L 16.128906 9.4726562 C 16.260412 8.8681124 16.156389 8.4647339 15.708984 8.0136719 L 15.525391 7.828125 L 15.691406 7.8007812 A 1.0001 1.0001 0 0 0 15.695312 7.8007812 C 16.291956 7.69864 16.580563 7.4858263 16.847656 6.9375 L 16.849609 6.9355469 L 16.998047 6.6347656 z M 2 11 A 1 1 0 0 0 1 12 C 1 18.063244 5.9367044 23 12 23 C 18.06325 23 23 18.06325 23 12 A 1 1 0 0 0 22 11 A 1 1 0 0 0 21 12 C 21 16.98235 16.98235 21 12 21 C 7.0175956 21 3 16.982356 3 12 A 1 1 0 0 0 2 11 z M 8.0097656 14.001953 A 1 1 0 0 0 7.4003906 14.201172 A 1 1 0 0 0 7.2011719 15.599609 C 8.2950099 17.055949 10.044111 18 12 18 C 13.955889 18 15.705003 17.055964 16.798828 15.599609 A 1 1 0 0 0 16.599609 14.201172 A 1 1 0 0 0 15.201172 14.400391 C 14.470797 15.372836 13.315511 16 12 16 C 10.684489 16 9.5292301 15.372851 8.7988281 14.400391 A 1 1 0 0 0 8.0097656 14.001953 z " fill="currentColor"/>
</svg>
