<svg xmlns="http://www.w3.org/2000/svg" width="1em" height="1em" viewBox="0 0 24 24" fill="currentColor">
  <path d="M 11.998047 1 C 10.86095 1.0031531 9.9449261 1.8464219 9.375 3.0019531 L 7.6171875 6.5488281 A 1.0001 1.0001 0 0 0 7.6132812 6.5566406 C 7.5687933 6.6482275 7.0339187 7.0466105 6.9277344 7.0644531 L 3.7382812 7.5996094 C 2.4971789 7.8081735 1.4488188 8.4469405 1.109375 9.5117188 C 0.76993124 10.576497 1.253733 11.705601 2.1464844 12.599609 L 2.1425781 12.597656 L 4.6230469 15.097656 C 4.7188324 15.194272 4.9099477 15.851564 4.8769531 16 L 4.1679688 19.089844 C 4.0062809 19.797246 3.9609349 20.440451 4.0703125 21.037109 C 4.1796899 21.633767 4.4747199 22.208731 4.9746094 22.576172 C 5.4744989 22.943613 6.1114755 23.051412 6.7128906 22.974609 C 7.3143057 22.897809 7.9133484 22.659412 8.5351562 22.289062 L 11.525391 20.503906 C 11.587841 20.466576 11.791937 20.401936 12.001953 20.402344 A 1.0001 1.0001 0 0 0 13.003906 19.402344 L 13 2.0039062 A 1 1 0 0 0 13.003906 2 A 1 1 0 0 0 12.998047 1.9941406 A 1.0001 1.0001 0 0 0 12.007812 1.0039062 A 1 1 0 0 0 12.003906 1 L 12 1 A 1.0001 1.0001 0 0 0 11.998047 1 z M 11 4.2265625 L 11.003906 18.658203 C 10.836856 18.715233 10.660618 18.691103 10.5 18.787109 L 7.5097656 20.570312 C 7.0576846 20.83926 6.6881288 20.963175 6.4609375 20.992188 C 6.233382 21.021248 6.1795061 20.980504 6.1582031 20.964844 C 6.1369001 20.949184 6.0792781 20.905814 6.0371094 20.675781 C 5.9949414 20.445752 5.9989055 20.052654 6.1171875 19.535156 L 6.828125 16.441406 A 1.0001 1.0001 0 0 0 6.828125 16.433594 C 7.0551165 15.412415 6.7870869 14.439684 6.0429688 13.689453 L 3.5625 11.1875 A 1.0001 1.0001 0 0 0 3.5605469 11.185547 C 2.9834652 10.607703 2.9726113 10.254068 3.015625 10.119141 C 3.0586387 9.9842133 3.2696816 9.7064815 4.0683594 9.5722656 L 7.2578125 9.0371094 C 8.2315282 8.873492 8.976641 8.3260831 9.4121094 7.4296875 L 11 4.2265625 z M 14.931641 4.984375 A 1 1 0 0 0 14.556641 5.0859375 A 1 1 0 0 0 14.103516 6.4257812 L 14.601562 7.4296875 C 15.037038 8.3260255 15.773444 8.8712402 16.742188 9.0371094 A 1.0001 1.0001 0 0 0 16.746094 9.0371094 L 19.935547 9.5722656 C 20.733972 9.7064377 20.941438 9.9816133 20.984375 10.117188 C 21.027315 10.252761 21.014565 10.609595 20.441406 11.1875 L 17.960938 13.689453 C 17.216916 14.439677 16.948771 15.412399 17.175781 16.433594 A 1.0001 1.0001 0 0 0 17.177734 16.441406 L 17.886719 19.535156 A 1.0001 1.0001 0 0 0 17.886719 19.537109 C 18.12259 20.56471 17.888517 20.926536 17.841797 20.960938 C 17.818417 20.978137 17.763277 21.018714 17.537109 20.990234 C 17.31094 20.961754 16.945624 20.841253 16.496094 20.572266 A 1.0001 1.0001 0 0 0 16.494141 20.570312 L 15.511719 19.984375 A 1 1 0 0 0 14.140625 20.332031 A 1 1 0 0 0 14.488281 21.703125 L 15.46875 22.289062 L 15.46875 22.287109 C 16.08912 22.658322 16.687182 22.898809 17.289062 22.974609 C 17.890943 23.050409 18.528274 22.939429 19.027344 22.572266 C 20.024996 21.838301 20.159459 20.50118 19.835938 19.089844 L 19.835938 19.087891 L 19.126953 15.998047 C 19.094923 15.847901 19.285273 15.194039 19.380859 15.097656 L 21.861328 12.597656 C 22.747973 11.703662 23.229592 10.577803 22.892578 9.5136719 C 22.555565 8.4495406 21.508953 7.8082173 20.267578 7.5996094 A 1.0001 1.0001 0 0 0 20.265625 7.5996094 L 17.078125 7.0644531 L 17.076172 7.0644531 C 16.981146 7.045166 16.444689 6.6478192 16.400391 6.5566406 A 1.0001 1.0001 0 0 0 16.398438 6.5488281 L 15.896484 5.5371094 A 1 1 0 0 0 15.318359 5.0332031 A 1 1 0 0 0 14.931641 4.984375 z " fill="currentColor"/>
</svg>
