<svg xmlns="http://www.w3.org/2000/svg" width="1em" height="1em" viewBox="0 0 24 24" fill="currentColor">
  <path d="M 2 1 A 1 1 0 0 0 1.2929688 1.2929688 A 1 1 0 0 0 1.2929688 2.7070312 L 5.8339844 7.2480469 L 3.734375 7.5996094 C 2.4924283 7.8081611 1.4447608 8.4492993 1.1074219 9.5136719 C 0.77008288 10.578044 1.2533717 11.703716 2.140625 12.597656 L 4.6210938 15.097656 C 4.7170548 15.194337 4.9079596 15.851824 4.875 16 L 4.1660156 19.087891 C 3.8416655 20.500099 3.9780404 21.838199 4.9765625 22.572266 C 5.4758235 22.939299 6.1128098 23.05037 6.7148438 22.974609 C 7.3168777 22.898849 7.9144297 22.658248 8.5351562 22.287109 L 8.5351562 22.289062 L 11.521484 20.507812 C 11.667621 20.423813 12.35767 20.429416 12.482422 20.503906 L 15.474609 22.289062 A 1.0001 1.0001 0 0 0 15.476562 22.289062 C 16.09874 22.659339 16.6953 22.897848 17.296875 22.974609 C 17.89845 23.051369 18.537022 22.943489 19.037109 22.576172 C 19.464388 22.262335 19.740871 21.796023 19.880859 21.294922 L 21.292969 22.707031 A 1 1 0 0 0 22.707031 22.707031 A 1 1 0 0 0 22.707031 21.292969 L 2.7070312 1.2929688 A 1 1 0 0 0 2 1 z M 12.007812 1 C 10.868779 1 9.9507916 1.841798 9.375 2.9980469 A 1.0001 1.0001 0 0 0 9.375 3 L 8.6035156 4.5566406 A 1 1 0 0 0 9.0566406 5.8964844 A 1 1 0 0 0 10.396484 5.4433594 L 11.166016 3.890625 L 11.166016 3.8886719 C 11.548584 3.121739 11.89098 3 12.007812 3 C 12.12478 3 12.461323 3.1186003 12.839844 3.8867188 A 1.0001 1.0001 0 0 0 12.839844 3.8886719 L 14.597656 7.4375 L 14.595703 7.4296875 C 15.030579 8.3259084 15.772509 8.8733471 16.746094 9.0371094 A 1.0001 1.0001 0 0 0 16.748047 9.0371094 L 19.933594 9.5722656 C 20.730964 9.706405 20.941299 9.983864 20.984375 10.119141 C 21.027455 10.254417 21.015855 10.607734 20.439453 11.185547 L 17.800781 13.787109 A 1 1 0 0 0 17.791016 15.203125 A 1 1 0 0 0 19.205078 15.212891 L 21.849609 12.603516 A 1.0001 1.0001 0 0 0 21.855469 12.599609 C 22.747369 11.705522 23.229574 10.576148 22.890625 9.5117188 C 22.551671 8.4472496 21.505855 7.80825 20.265625 7.5996094 A 1.0001 1.0001 0 0 0 20.263672 7.5996094 L 17.078125 7.0644531 C 16.97291 7.0467554 16.439056 6.6483997 16.394531 6.5566406 A 1.0001 1.0001 0 0 0 16.390625 6.5488281 L 14.632812 3.0019531 L 14.632812 3 C 14.06238 1.8433128 13.146357 1 12.007812 1 z M 7.5527344 8.9667969 L 17.826172 19.240234 L 17.894531 19.535156 C 18.012897 20.052597 18.016778 20.445886 17.974609 20.675781 C 17.932439 20.905676 17.874989 20.94907 17.853516 20.964844 C 17.832036 20.980614 17.778776 21.021287 17.550781 20.992188 C 17.32311 20.963093 16.952482 20.839285 16.5 20.570312 L 16.498047 20.570312 L 13.507812 18.787109 C 12.552217 18.216547 11.464203 18.222537 10.507812 18.783203 A 1.0001 1.0001 0 0 0 10.501953 18.787109 L 7.5097656 20.570312 A 1.0001 1.0001 0 0 0 7.5097656 20.572266 C 7.0598472 20.841277 6.6914351 20.96172 6.4648438 20.990234 C 6.2382525 21.018744 6.1837115 20.978257 6.1601562 20.960938 C 6.1130463 20.926308 5.8792447 20.564601 6.1152344 19.537109 L 6.8261719 16.441406 A 1.0001 1.0001 0 0 0 6.828125 16.435547 C 7.0554157 15.414121 6.7855546 14.43762 6.0410156 13.6875 L 3.5585938 11.1875 C 2.9849571 10.60954 2.972734 10.252517 3.015625 10.117188 C 3.0584532 9.9820553 3.2680671 9.7067024 4.0644531 9.5722656 L 7.2578125 9.0371094 A 1.0001 1.0001 0 0 0 7.2617188 9.0371094 C 7.363156 9.0197423 7.4592174 8.9956044 7.5527344 8.9667969 z " fill="currentColor"/>
</svg>
