<svg xmlns="http://www.w3.org/2000/svg" width="1em" height="1em" viewBox="0 0 24 24" fill="currentColor">
  <path d="M 10 1 C 9.53406 1 9.1942056 0.9618758 8.734375 1.1523438 C 8.2446532 1.3551837 7.8551838 1.7446532 7.6523438 2.234375 C 7.4618758 2.6942056 7.5 3.03406 7.5 3.5 L 7.5 4.0019531 C 6.5551604 4.0061385 5.7721565 4.0253053 5.0742188 4.1191406 C 4.1439921 4.2442065 3.300893 4.542857 2.671875 5.171875 C 2.042857 5.800893 1.7442065 6.6439921 1.6191406 7.5742188 C 1.526973 8.259752 1.5066376 9.0267984 1.5019531 9.9492188 A 1 1 0 0 0 1.5 10 L 1.5 10.464844 C 1.4999001 10.637625 1.5 10.816395 1.5 11 L 1.5 16 C 1.5 17.4142 1.49407 18.495558 1.6191406 19.425781 C 1.7442065 20.356004 2.0428648 21.199101 2.671875 21.828125 C 3.3008908 22.457155 4.1439898 22.75579 5.0742188 22.880859 C 6.0044479 23.005928 7.085785 23 8.5 23 L 11.576172 23 C 12.990372 23 14.071716 23.0059 15.001953 22.880859 C 15.93219 22.755791 16.7753 22.457193 17.404297 21.828125 C 17.902347 21.330075 18.19055 20.705926 18.353516 20 L 21.5 20 A 1.0001 1.0001 0 0 0 21.5 18 C 21.5 18 21.43991 18.008601 21.191406 17.925781 C 20.942897 17.842946 20.58918 17.675118 20.207031 17.292969 C 19.442734 16.528671 18.5 14.833333 18.5 11 C 18.5 9.585785 18.505928 8.5044478 18.380859 7.5742188 C 18.25579 6.6439897 17.957155 5.8008908 17.328125 5.171875 C 16.699101 4.5428648 15.856004 4.2442065 14.925781 4.1191406 C 14.227848 4.0253054 13.444836 4.0061386 12.5 4.0019531 L 12.5 3.5 C 12.5 3.03406 12.538057 2.6941649 12.347656 2.234375 C 12.14479 1.7446379 11.755295 1.355187 11.265625 1.1523438 C 10.805799 0.96190887 10.4659 1 10 1 z M 10 3 C 10.26054 3 10.415057 3.0117748 10.484375 3.015625 C 10.488227 3.084949 10.5 3.2394651 10.5 3.5 L 10.5 5 L 10.5 6.5 C 10.5 6.7605351 10.488227 6.9150511 10.484375 6.984375 C 10.415056 6.9882253 10.260538 7 10 7 C 9.7394997 7 9.5849665 6.9882315 9.515625 6.984375 C 9.5117685 6.9150334 9.5 6.7605 9.5 6.5 L 9.5 5 L 9.5 3.5 C 9.5 3.2394997 9.5117685 3.0849665 9.515625 3.015625 C 9.5849666 3.0117685 9.7395 3 10 3 z M 7.5 6.0019531 L 7.5 6.5 C 7.5 6.96594 7.4618761 7.3057944 7.6523438 7.765625 C 7.8551838 8.2553468 8.2446532 8.6448163 8.734375 8.8476562 C 9.1942056 9.0381241 9.53406 9 10 9 C 10.4659 9 10.805799 9.0380911 11.265625 8.8476562 C 11.755295 8.644813 12.14479 8.2553621 12.347656 7.765625 C 12.538057 7.3058351 12.5 6.96594 12.5 6.5 L 12.5 6.0019531 C 13.41793 6.0084225 14.132157 6.0308382 14.658203 6.1015625 C 15.361855 6.1961665 15.664387 6.3362677 15.914062 6.5859375 C 16.163731 6.8356017 16.303833 7.1381434 16.398438 7.8417969 C 16.493043 8.5454503 16.5 9.585785 16.5 11 C 16.5 14.631508 17.354514 16.67227 18.378906 18 L 7.2382812 18 C 6.9103212 18 6.9294096 18.014287 6.6269531 17.935547 C 6.2836931 17.846089 6.4305921 17.899974 6.3125 17.833984 C 5.4349718 17.343681 3.5 15.892611 3.5 11 C 3.5 9.585785 3.5069583 8.5454528 3.6015625 7.8417969 C 3.6961667 7.138141 3.8362755 6.8355995 4.0859375 6.5859375 C 4.3355995 6.3362755 4.638141 6.1961667 5.3417969 6.1015625 C 5.8678474 6.0308367 6.5820665 6.0084221 7.5 6.0019531 z M 3.5195312 17.974609 C 4.1496027 18.779809 4.8151595 19.288011 5.3378906 19.580078 C 5.4563786 19.646288 5.7226469 19.766748 6.1230469 19.871094 C 6.5642504 19.985954 6.9103214 20 7.2382812 20 L 16.271484 20 C 16.196156 20.171668 16.1045 20.299797 15.990234 20.414062 C 15.740631 20.663694 15.438038 20.803832 14.734375 20.898438 C 14.030712 20.993045 12.990372 21 11.576172 21 L 8.5 21 C 7.085785 21 6.0454503 20.993043 5.3417969 20.898438 C 4.6381434 20.803832 4.3356017 20.663732 4.0859375 20.414062 C 3.8362677 20.164388 3.6961666 19.861855 3.6015625 19.158203 C 3.5581897 18.835603 3.5338348 18.442332 3.5195312 17.974609 z " fill="currentColor"/>
</svg>
