<svg xmlns="http://www.w3.org/2000/svg" width="1em" height="1em" viewBox="0 0 24 24" fill="currentColor">
  <path d="M 11 2 C 9.11438 2 7.6810556 1.994573 6.4785156 2.15625 C 5.2759756 2.317927 4.240311 2.689383 3.4648438 3.4648438 C 2.6893829 4.2403111 2.317927 5.2759756 2.15625 6.4785156 C 1.994573 7.6810556 2 9.11438 2 11 L 2 13 C 2 14.8856 1.99457 16.318937 2.15625 17.521484 C 2.3179268 18.724031 2.6893545 19.759713 3.4648438 20.535156 C 4.2403087 21.310634 5.2759729 21.682068 6.4785156 21.84375 C 7.6810584 22.005432 9.11438 22 11 22 L 12.34375 22 C 13.16125 22 13.7106 22.024 14.320312 21.771484 C 14.92996 21.518902 15.300806 21.113256 15.878906 20.535156 L 20.535156 15.878906 C 21.113256 15.300806 21.518902 14.92996 21.771484 14.320312 C 22.023996 13.7106 22 13.16125 22 12.34375 L 22 11 C 22 9.11438 22.005432 7.6810584 21.84375 6.4785156 C 21.682068 5.2759729 21.310634 4.2403086 20.535156 3.4648438 C 19.759713 2.6893544 18.724031 2.3179268 17.521484 2.15625 C 16.318937 1.9945732 14.8856 2 13 2 L 11 2 z M 11 4 L 13 4 C 14.8856 4 16.279881 4.0055 17.255859 4.1367188 C 18.231837 4.2679345 18.725037 4.4828256 19.121094 4.8789062 C 19.517216 5.2750214 19.732063 5.7681734 19.863281 6.7441406 C 19.9945 7.7201079 20 9.11438 20 11 L 20 12.34375 C 20 12.620003 19.997861 12.833525 19.992188 13 C 18.582127 12.999977 17.502591 12.994349 16.574219 13.119141 C 15.643994 13.24421 14.800897 13.542853 14.171875 14.171875 C 13.542853 14.800897 13.24421 15.643994 13.119141 16.574219 C 12.994321 17.502591 12.999977 18.582127 13 19.992188 C 12.833525 19.997862 12.620003 20 12.34375 20 L 11 20 C 9.11438 20 7.7201079 19.9945 6.7441406 19.863281 C 5.7681734 19.732063 5.2750213 19.517216 4.8789062 19.121094 C 4.4828255 18.725037 4.2679344 18.231837 4.1367188 17.255859 C 4.0055032 16.279881 4 14.8856 4 13 L 4 11 C 4 9.11438 4.0055032 7.7201106 4.1367188 6.7441406 C 4.2679343 5.7681706 4.482797 5.2750189 4.8789062 4.8789062 C 5.2750189 4.482797 5.7681706 4.2679344 6.7441406 4.1367188 C 7.7201106 4.0055032 9.11438 4 11 4 z M 18.578125 15.007812 L 15.007812 18.578125 C 15.01805 17.859638 15.042069 17.28449 15.101562 16.841797 C 15.196162 16.138147 15.33626 15.835615 15.585938 15.585938 C 15.835615 15.33626 16.138147 15.196167 16.841797 15.101562 C 17.284492 15.042042 17.859633 15.018041 18.578125 15.007812 z " fill="currentColor"/>
</svg>
