<svg xmlns="http://www.w3.org/2000/svg" width="1em" height="1em" viewBox="0 0 24 24" fill="currentColor">
  <path d="M 11 2 C 9.11438 2 7.6810556 1.994573 6.4785156 2.15625 C 5.2759756 2.317927 4.240311 2.689383 3.4648438 3.4648438 C 2.6893829 4.2403111 2.317927 5.2759756 2.15625 6.4785156 C 1.994573 7.6810556 2 9.11438 2 11 L 2 13 C 2 14.8856 1.99457 16.318937 2.15625 17.521484 C 2.3179268 18.724031 2.6893545 19.759713 3.4648438 20.535156 C 4.2403087 21.310634 5.2759729 21.682068 6.4785156 21.84375 C 7.6810584 22.005432 9.11438 22 11 22 L 13 22 C 14.8856 22 16.318935 22.0054 17.521484 21.84375 C 18.724034 21.682069 19.759716 21.310663 20.535156 20.535156 C 21.310663 19.759716 21.682069 18.724034 21.84375 17.521484 C 22.005431 16.318935 22 14.8856 22 13 L 22 11.314453 C 22 9.6794432 22.023962 8.7214032 21.619141 7.7441406 C 21.214346 6.766945 20.519391 6.1053489 19.363281 4.9492188 L 19.050781 4.6367188 C 17.894671 3.4805686 17.233132 2.785648 16.255859 2.3808594 C 15.278589 1.9760584 14.320547 2 12.685547 2 L 11 2 z M 11 4 L 12.685547 4 C 13.215406 4 13.644782 4.0032674 14 4.0136719 C 14.000813 4.9417737 14.009204 5.6878606 14.083984 6.3515625 C 14.172114 7.1333071 14.373968 7.8461866 14.826172 8.4355469 C 15.039 8.7129171 15.287139 8.9610432 15.564453 9.1738281 C 16.153809 9.6260691 16.866672 9.8278849 17.648438 9.9160156 C 18.312163 9.9908385 19.058205 9.9991965 19.986328 10 C 19.996744 10.355035 20 10.784358 20 11.314453 L 20 13 C 20 14.8856 19.9945 16.279884 19.863281 17.255859 C 19.732063 18.231835 19.517187 18.725034 19.121094 19.121094 C 18.725034 19.517187 18.231835 19.732063 17.255859 19.863281 C 16.279884 19.9945 14.8856 20 13 20 L 11 20 C 9.11438 20 7.7201079 19.9945 6.7441406 19.863281 C 5.7681734 19.732063 5.2750213 19.517216 4.8789062 19.121094 C 4.4828255 18.725037 4.2679344 18.231837 4.1367188 17.255859 C 4.0055032 16.279881 4 14.8856 4 13 L 4 11 C 4 9.11438 4.0055032 7.7201106 4.1367188 6.7441406 C 4.2679343 5.7681706 4.482797 5.2750189 4.8789062 4.8789062 C 5.2750189 4.482797 5.7681706 4.2679344 6.7441406 4.1367188 C 7.7201106 4.0055032 9.11438 4 11 4 z M 16.003906 4.5292969 C 16.383587 4.8118118 16.861002 5.2750382 17.636719 6.0507812 L 17.949219 6.3632812 C 18.723946 7.1380222 19.186126 7.6160707 19.46875 7.9960938 C 18.803297 7.9904238 18.276548 7.9751737 17.873047 7.9296875 C 17.280014 7.8628335 17.001747 7.7536365 16.783203 7.5859375 C 16.644517 7.4795219 16.520435 7.3554267 16.414062 7.2167969 C 16.246366 6.9982372 16.137163 6.7199735 16.070312 6.1269531 C 16.024803 5.7232423 16.009568 5.1952617 16.003906 4.5292969 z M 8.25 11 C 7.5716244 11 7 11.571567 7 12.25 C 7 12.928433 7.5716244 13.5 8.25 13.5 C 8.9283756 13.5 9.5 12.928433 9.5 12.25 C 9.5 11.571567 8.9283756 11 8.25 11 z M 15.75 11 C 15.071712 11 14.5 11.571712 14.5 12.25 C 14.5 12.92858 15.071229 13.5 15.75 13.5 C 16.428771 13.5 17 12.92858 17 12.25 C 17 11.571712 16.428288 11 15.75 11 z M 9.4550781 15.001953 A 1 1 0 0 0 8.7617188 15.326172 A 1 1 0 0 0 8.8261719 16.738281 C 9.6754744 17.51429 10.790295 18 12 18 C 13.209705 18 14.324526 17.514287 15.173828 16.738281 A 1 1 0 0 0 15.238281 15.326172 A 1 1 0 0 0 13.826172 15.261719 C 13.305877 15.73711 12.682095 16 12 16 C 11.317905 16 10.694126 15.737113 10.173828 15.261719 A 1 1 0 0 0 9.4550781 15.001953 z " fill="currentColor"/>
</svg>
