<svg xmlns="http://www.w3.org/2000/svg" width="1em" height="1em" viewBox="0 0 24 24" fill="currentColor">
  <path d="M 18.054688 1.4960938 C 17.954288 1.4926859 17.855273 1.4946383 17.759766 1.5 L 6.1464844 1.5292969 C 5.0423375 1.4890652 4.1321436 1.9518354 3.6289062 2.5722656 C 3.1172667 3.2030545 2.9667969 3.8794006 2.9667969 4.4335938 C 2.9667969 4.9328288 2.9790649 5.4365057 1.9921875 6.921875 C 1.4278849 7.7712184 1.07407 8.4211318 1.0117188 9.171875 C 0.94936765 9.9226182 1.2405339 10.549304 1.5605469 11.140625 C 1.6855429 11.371603 1.8351361 11.572552 2 11.748047 L 2 15.494141 C 2 16.910391 1.99412 17.99061 2.1191406 18.921875 C 2.2441629 19.85314 2.5430043 20.69831 3.171875 21.328125 C 3.8007503 21.957945 4.6438311 22.257537 5.5742188 22.382812 C 6.5046066 22.508088 7.585785 22.501953 9 22.501953 L 15 22.501953 C 16.4142 22.501953 17.495397 22.508053 18.425781 22.382812 C 19.356165 22.257538 20.199243 21.957937 20.828125 21.328125 C 21.457008 20.698312 21.755834 19.853142 21.880859 18.921875 C 22.005885 17.990608 22 16.910391 22 15.494141 L 22 11.708984 C 22.023472 11.687525 22.046258 11.667171 22.068359 11.646484 C 23.076588 10.702954 23.452504 8.7428533 22.085938 6.9921875 C 21.422278 6.1420661 21.186545 5.4368789 21.097656 4.625 C 21.03828 4.0821775 21.029248 3.196327 20.294922 2.4824219 C 19.567367 1.7752416 18.757481 1.5199489 18.054688 1.4960938 z M 17.861328 3.4980469 C 17.907578 3.4950069 18.598279 3.6223642 18.900391 3.9160156 C 18.949261 3.9635306 19.046952 4.2730725 19.109375 4.84375 C 19.230886 5.9535911 19.635071 7.1046455 20.507812 8.2226562 C 21.192317 9.0995509 21.064312 9.6809143 20.861328 9.9960938 A 1 1 0 0 0 20.044922 10.689453 C 19.922431 10.763538 19.794906 10.829673 19.666016 10.880859 C 19.27243 11.037164 18.912036 11.08414 18.447266 10.892578 C 17.86951 10.654467 17.599846 10.426583 17.414062 10.152344 C 17.228279 9.8781045 17.101752 9.488925 17.033203 8.8574219 A 1.0001 1.0001 0 0 0 15.064453 8.7402344 C 14.899389 9.4543681 13.920944 10.595911 13.048828 10.837891 C 12.574373 10.969522 11.659419 11.044565 10.873047 10.775391 C 10.086674 10.506215 9.3760912 9.9927653 8.9414062 8.65625 A 1.0001 1.0001 0 0 0 6.9902344 8.9648438 C 6.9902344 9.3350921 6.8084865 9.9202503 6.4570312 10.332031 C 6.1104391 10.738115 5.6521004 11.00502 4.9121094 10.996094 C 4.6954746 10.971457 4.3305633 10.896783 4.0117188 10.75 C 3.9963543 10.742927 3.9817953 10.735821 3.9667969 10.728516 A 1 1 0 0 0 3.2265625 10.011719 C 3.0275572 9.6276062 2.9918199 9.4834168 3.0039062 9.3378906 C 3.017675 9.1721063 3.1571957 8.7814204 3.6582031 8.0273438 C 4.8019459 6.3058729 4.9667969 5.1047387 4.9667969 4.4335938 C 4.9667969 4.3334769 5.0378609 4.0117024 5.1835938 3.8320312 C 5.3293268 3.65236 5.4886191 3.4960083 6.0976562 3.5273438 A 1.0001 1.0001 0 0 0 6.1523438 3.5292969 L 17.798828 3.5 A 1.0001 1.0001 0 0 0 17.861328 3.4980469 z M 8.2128906 11.230469 C 8.8167142 11.909549 9.5023758 12.420748 10.224609 12.667969 C 11.51029 13.108057 12.738139 13.00029 13.583984 12.765625 C 14.490114 12.514208 15.254873 11.996326 15.849609 11.34375 C 16.288476 11.947062 16.903459 12.419865 17.685547 12.742188 C 18.500411 13.078047 19.318348 13.060017 20 12.875 L 20 15.494141 C 20 16.910391 19.9931 17.951242 19.898438 18.65625 C 19.803787 19.361258 19.663881 19.665829 19.414062 19.916016 C 19.164244 20.166203 18.861694 20.305666 18.158203 20.400391 C 17.454712 20.495115 16.4142 20.501953 15 20.501953 L 9 20.501953 C 7.585785 20.501953 6.5452917 20.495153 5.8417969 20.400391 C 5.1383021 20.305666 4.8357422 20.166196 4.5859375 19.916016 C 4.3361282 19.665831 4.1962102 19.36126 4.1015625 18.65625 C 4.0069148 17.95124 4 16.910391 4 15.494141 L 4 12.863281 C 4.2807872 12.937555 4.5436838 12.980538 4.7773438 13.001953 A 1.0001 1.0001 0 0 0 4.8457031 13.005859 C 6.1871738 13.036329 7.2940033 12.432866 7.9785156 11.630859 C 8.0842087 11.507024 8.1240797 11.361016 8.2128906 11.230469 z M 7 16.974609 A 1 1 0 0 0 6 17.974609 A 1 1 0 0 0 7 18.974609 L 11 18.974609 A 1 1 0 0 0 12 17.974609 A 1 1 0 0 0 11 16.974609 L 7 16.974609 z " fill="currentColor"/>
</svg>
