<svg xmlns="http://www.w3.org/2000/svg" width="1em" height="1em" viewBox="0 0 24 24" fill="currentColor">
  <path d="M 8.046875 2 C 6.553015 1.9998 5.6330446 1.9666461 4.7128906 2.4335938 C 3.7927539 2.9005542 3.276372 3.6613764 2.3945312 4.8671875 L 2.0078125 5.3984375 A 1.0001 1.0001 0 0 0 1.9941406 5.4160156 C 1.6003906 5.9793732 1.2292182 6.6419041 1.0703125 7.4101562 C 0.91140682 8.1784084 1.0370401 9.1421946 1.6894531 9.8417969 C 1.9255164 10.094932 2.1987269 10.312995 2.5 10.490234 L 2.5 15 C 2.5 16.4142 2.49407 17.495558 2.6191406 18.425781 C 2.7442065 19.356004 3.0428648 20.199101 3.671875 20.828125 C 4.3008908 21.457155 5.1439898 21.75579 6.0742188 21.880859 C 7.0044479 22.005928 8.085785 22 9.5 22 L 14.5 22 C 15.9142 22 16.995556 22.0059 17.925781 21.880859 C 18.856006 21.75579 19.699103 21.457147 20.328125 20.828125 C 20.957147 20.199103 21.25579 19.356006 21.380859 18.425781 C 21.505928 17.495556 21.5 16.4142 21.5 15 L 21.5 10.492188 C 21.801269 10.31495 22.07448 10.096879 22.310547 9.84375 C 22.962978 9.1441533 23.088604 8.1803664 22.929688 7.4121094 C 22.770772 6.6438523 22.399625 5.9813303 22.005859 5.4179688 A 1.0001 1.0001 0 0 0 21.992188 5.4003906 L 21.605469 4.8691406 C 20.723866 3.6637095 20.206899 2.902485 19.287109 2.4355469 C 18.367292 1.9685803 17.44848 2.0021431 15.955078 2.0019531 L 8.046875 2 z M 8.0449219 4 L 15.955078 4.0019531 C 17.448476 4.0021431 18.02283 4.0359971 18.382812 4.21875 C 18.742824 4.4015119 19.108635 4.8433992 19.990234 6.0488281 L 20.365234 6.5625 C 20.660368 6.9847486 20.898243 7.4661084 20.970703 7.8164062 C 21.043163 8.1667043 21.022573 8.2949954 20.849609 8.4804688 C 20.557211 8.7940011 20.122686 9.0019531 19.621094 9.0019531 C 18.688968 9.0019531 18 8.3160947 18 7.5019531 A 1.0001 1.0001 0 0 0 16 7.5019531 C 15.999997 8.3422196 15.341152 9 14.5 9 C 13.659746 9 13 8.3402634 13 7.5 A 1.0001 1.0001 0 0 0 11 7.5 C 11 8.3402634 10.340254 9 9.5 9 C 8.6597318 9 8 8.3402682 8 7.5 A 1.0001 1.0001 0 0 0 7 6.5136719 A 1.0001 1.0001 0 0 0 6 7.5 C 6 8.3141126 5.3109557 9 4.3789062 9 C 3.877211 9 3.4427749 8.7920455 3.1503906 8.4785156 C 2.9774236 8.2930379 2.9568401 8.164756 3.0292969 7.8144531 C 3.1017537 7.4641503 3.3396457 6.9827894 3.6347656 6.5605469 L 4.0097656 6.0488281 C 4.8916048 4.8430192 5.2570242 4.3995763 5.6171875 4.2167969 C 5.9773535 4.0340245 6.5510619 3.9998 8.0449219 4 z M 6.9824219 9.9003906 C 7.6215064 10.570636 8.5092136 11 9.5 11 C 10.479165 11 11.36239 10.584295 12 9.9277344 C 12.63761 10.584295 13.520835 11 14.5 11 C 15.489778 11 16.378435 10.571468 17.017578 9.9023438 C 17.656166 10.547846 18.531187 10.96758 19.5 11 L 19.5 15 C 19.5 16.4142 19.493 17.454553 19.398438 18.158203 C 19.303828 18.861853 19.16374 19.164385 18.914062 19.414062 C 18.664386 19.66374 18.361853 19.803832 17.658203 19.898438 C 16.954553 19.993043 15.9142 20 14.5 20 L 9.5 20 C 8.085785 20 7.0454503 19.993043 6.3417969 19.898438 C 5.6381434 19.803832 5.3356017 19.663732 5.0859375 19.414062 C 4.8362677 19.164388 4.6961666 18.861855 4.6015625 18.158203 C 4.5069584 17.454551 4.5 16.4142 4.5 15 L 4.5 10.998047 C 5.4687938 10.965626 6.3438283 10.545887 6.9824219 9.9003906 z M 8 17 A 1 1 0 0 0 7 18 A 1 1 0 0 0 8 19 L 16 19 A 1 1 0 0 0 17 18 A 1 1 0 0 0 16 17 L 8 17 z " fill="currentColor"/>
</svg>
