<svg xmlns="http://www.w3.org/2000/svg" width="1em" height="1em" viewBox="0 0 24 24" fill="currentColor">
  <path d="M 16.994141 1 C 13.687331 1 10.986328 3.7057924 10.986328 7.015625 C 10.986328 10.32545 13.687319 13.033203 16.994141 13.033203 C 20.300882 13.033203 23 10.32545 23 7.015625 C 23 3.7057924 20.30087 1 16.994141 1 z M 16.994141 3 C 19.218012 3 21 4.7847376 21 7.015625 C 21 9.2465004 19.218 11.033203 16.994141 11.033203 C 14.770162 11.033203 12.986328 9.2465004 12.986328 7.015625 C 12.986328 4.7847376 14.77015 3 16.994141 3 z M 19.023438 4.5 A 1 1 0 0 0 18.636719 4.5566406 C 17.547662 4.9423387 16.792894 5.8047834 16.173828 6.546875 C 16.022633 6.7281172 16.042891 6.7282167 15.917969 6.8925781 C 15.889818 6.8717629 15.866051 6.8117423 15.837891 6.7929688 C 15.658802 6.6735764 15.483476 6.5979574 15.332031 6.5546875 C 15.180587 6.5114176 14.970703 6.5 14.970703 6.5 A 1 1 0 0 0 13.970703 7.5 A 1 1 0 0 0 14.753906 8.4765625 C 14.804763 8.519907 14.924209 8.6433407 15.076172 8.9472656 A 1.0001 1.0001 0 0 0 16.814453 9.0371094 C 16.814453 9.0371094 17.181001 8.4610334 17.708984 7.828125 C 18.236968 7.1952166 18.981946 6.5576613 19.304688 6.4433594 A 1 1 0 0 0 19.914062 5.1660156 A 1 1 0 0 0 19.023438 4.5 z M 5.171875 4.9492188 C 3.8443899 4.9171075 2.6423733 5.7670241 2.2363281 7.03125 L 1.140625 10.447266 C 0.95008883 11.040498 0.90658566 11.793213 1.3066406 12.472656 C 1.464422 12.740576 1.7301634 13.013887 1.96875 13.287109 L 1.8867188 19.488281 A 1.0001 1.0001 0 0 0 1.8867188 19.501953 C 1.8867185 21.424095 3.4695458 23 5.3925781 23 L 16.519531 23 C 18.394071 23 19.954732 21.501229 20.023438 19.628906 A 1.0001 1.0001 0 0 0 20.023438 19.585938 L 19.996094 15.035156 A 1 1 0 0 0 18.988281 14.042969 A 1 1 0 0 0 17.996094 15.048828 L 18.023438 19.5625 C 17.990229 20.373934 17.34014 21 16.519531 21 L 5.3925781 21 C 4.5469305 21 3.8867188 20.339813 3.8867188 19.501953 L 3.9511719 14.714844 C 3.9666529 14.720644 3.9746264 14.732641 3.9902344 14.738281 C 5.1802907 15.16795 6.7246147 15.022282 8.3789062 14.21875 L 8.3808594 14.21875 L 8.3808594 14.220703 L 8.3808594 14.222656 L 8.3828125 14.222656 C 9.4583687 14.948008 11.065864 15.204792 12.867188 14.460938 A 1 1 0 0 0 13.410156 13.15625 A 1 1 0 0 0 12.103516 12.613281 C 10.784119 13.158126 10.068754 12.946704 9.5019531 12.564453 C 8.9351519 12.182204 8.5377547 11.479324 8.4023438 11.039062 A 1 1 0 0 0 7.1523438 10.376953 A 1 1 0 0 0 6.4902344 11.626953 C 6.5875984 11.943513 6.7797015 12.298786 6.9785156 12.648438 C 6.0321581 12.995734 5.2454926 13.065231 4.6699219 12.857422 C 3.905146 12.581307 3.3263517 11.958127 3.03125 11.457031 C 3.0005217 11.403969 2.9762161 11.274462 3.0449219 11.060547 L 4.140625 7.6425781 C 4.2772599 7.217164 4.671252 6.93829 5.1230469 6.9492188 A 1.0001 1.0001 0 0 0 5.1308594 6.9492188 L 8.9648438 7.0136719 A 1 1 0 0 0 9.9804688 6.0292969 A 1 1 0 0 0 8.9980469 5.0136719 L 5.171875 4.9492188 z " fill="currentColor"/>
</svg>
