<svg xmlns="http://www.w3.org/2000/svg" width="1em" height="1em" viewBox="0 0 24 24" fill="currentColor">
  <path d="M 18.050781 0.99804688 C 17.950345 0.99467224 17.851423 0.99657208 17.755859 1.0019531 L 6.1445312 1.03125 C 5.0400324 0.99094387 4.1300345 1.455184 3.6269531 2.0761719 C 3.1154928 2.7075025 2.9628906 3.3831856 2.9628906 3.9375 C 2.9628906 4.4375492 2.9752607 4.9423677 1.9882812 6.4296875 C 1.4240199 7.2799965 1.0701054 7.9306884 1.0078125 8.6816406 C 0.9455196 9.4325929 1.2386124 10.060362 1.5585938 10.652344 C 1.6841588 10.884651 1.8344135 11.087302 2 11.263672 L 2 14.994141 C 2 16.410091 1.99411 17.490783 2.1191406 18.421875 C 2.2441703 19.352967 2.5429931 20.198441 3.171875 20.828125 C 3.8007828 21.457763 4.6458208 21.755632 5.5761719 21.880859 C 6.506523 22.006087 7.585785 22 9 22 L 11 22 A 1 1 0 0 0 12 21 A 1 1 0 0 0 11 20 L 9 20 C 7.585785 20 6.5453283 19.995088 5.8417969 19.900391 C 5.1382655 19.805693 4.8357097 19.664125 4.5859375 19.414062 C 4.3361394 19.163946 4.1962028 18.861033 4.1015625 18.15625 C 4.0069222 17.451467 4 16.410091 4 14.994141 L 4 12.376953 C 4.2801062 12.450689 4.5424443 12.494276 4.7753906 12.515625 A 1.0001 1.0001 0 0 0 4.84375 12.519531 C 6.1855747 12.550071 7.2902439 11.945382 7.9746094 11.142578 C 8.0804356 11.018437 8.1220466 10.873055 8.2109375 10.742188 C 8.8145428 11.421553 9.500578 11.934172 10.222656 12.181641 C 11.508538 12.622335 12.734074 12.514262 13.580078 12.279297 C 14.485838 12.027708 15.253162 11.510087 15.847656 10.857422 C 16.286348 11.460208 16.900389 11.933491 17.681641 12.255859 L 17.681641 12.253906 C 18.665262 12.659866 19.652843 12.54925 20.400391 12.251953 C 21.147938 11.954703 21.70143 11.500222 22.066406 11.158203 C 23.074383 10.213796 23.448329 8.2524409 22.082031 6.5 C 21.418265 5.6486648 21.182677 4.9440724 21.09375 4.1308594 C 21.034383 3.5874579 21.02538 2.6989786 20.291016 1.984375 C 19.563538 1.2764185 18.753835 1.0216693 18.050781 0.99804688 z M 17.857422 3 C 17.903032 2.997 18.59422 3.1238159 18.896484 3.4179688 C 18.945524 3.4656847 19.043036 3.7761978 19.105469 4.3476562 C 19.226941 5.4584832 19.633226 6.611244 20.505859 7.7304688 C 21.367361 8.8354479 20.93909 9.472622 20.697266 9.6992188 C 20.437442 9.9426996 20.055562 10.238081 19.662109 10.394531 C 19.268657 10.550981 18.909892 10.59799 18.445312 10.40625 C 17.867634 10.16788 17.598052 9.9408194 17.412109 9.6660156 C 17.226167 9.3912118 17.099821 8.9996831 17.03125 8.3671875 A 1.0001 1.0001 0 0 0 15.0625 8.25 C 14.897204 8.9660171 13.916558 10.109451 13.044922 10.351562 C 12.570626 10.483294 11.655309 10.558495 10.869141 10.289062 C 10.082972 10.019628 9.3743207 9.5046902 8.9394531 8.1660156 A 1.0001 1.0001 0 0 0 6.9882812 8.4746094 C 6.9882812 8.8459741 6.8047221 9.4332574 6.453125 9.8457031 C 6.1063982 10.252436 5.6497819 10.518707 4.9101562 10.509766 C 4.693744 10.485143 4.3285349 10.410601 4.0097656 10.263672 C 3.6743233 10.109058 3.4249033 9.8982879 3.3183594 9.7011719 C 3.0376108 9.1817733 2.9881261 9.014344 3.0019531 8.8476562 C 3.0157802 8.6809684 3.1552014 8.2902073 3.65625 7.5351562 C 4.799891 5.811756 4.9628906 4.6092508 4.9628906 3.9375 C 4.9628906 3.8367144 5.0337756 3.5140937 5.1796875 3.3339844 C 5.3255996 3.153875 5.4869782 2.9998922 6.0957031 3.03125 A 1.0001 1.0001 0 0 0 6.1484375 3.03125 L 17.794922 3.0019531 A 1.0001 1.0001 0 0 0 17.857422 3 z M 17.5 13 A 1 1 0 0 0 16.5 14 L 16.5 14.601562 C 15.99165 14.75679 15.559597 14.989055 15.171875 15.335938 L 14.535156 14.933594 A 1 1 0 0 0 13.15625 15.242188 A 1 1 0 0 0 13.464844 16.621094 L 14.142578 17.052734 C 14.05304 17.372145 13.875 17.65442 13.875 18 C 13.875 18.34558 14.05304 18.627855 14.142578 18.947266 L 13.464844 19.378906 A 1 1 0 0 0 13.15625 20.757812 A 1 1 0 0 0 14.535156 21.066406 L 15.171875 20.664062 C 15.559597 21.010945 15.99165 21.243209 16.5 21.398438 L 16.5 22 A 1 1 0 0 0 17.5 23 A 1 1 0 0 0 18.5 22 L 18.5 21.398438 C 19.00835 21.243209 19.440403 21.010945 19.828125 20.664062 L 20.464844 21.066406 A 1 1 0 0 0 21.84375 20.757812 A 1 1 0 0 0 21.535156 19.378906 L 20.857422 18.947266 C 20.94696 18.627855 21.125 18.34558 21.125 18 C 21.125 17.65442 20.94696 17.372145 20.857422 17.052734 L 21.535156 16.621094 A 1 1 0 0 0 21.84375 15.242188 A 1 1 0 0 0 20.464844 14.933594 L 19.828125 15.335938 C 19.440403 14.989055 19.00835 14.756791 18.5 14.601562 L 18.5 14 A 1 1 0 0 0 17.5 13 z M 17.5 16.333984 C 18.083244 16.333984 18.58447 16.640031 18.875 17.111328 C 19.033237 17.36804 19.125 17.668396 19.125 18 C 19.125 18.331604 19.03324 18.63196 18.875 18.888672 C 18.58447 19.359969 18.083244 19.666016 17.5 19.666016 C 16.916756 19.666016 16.41553 19.359969 16.125 18.888672 C 15.966763 18.63196 15.875 18.331604 15.875 18 C 15.875 17.668396 15.96676 17.36804 16.125 17.111328 C 16.41553 16.640031 16.916756 16.333984 17.5 16.333984 z " fill="currentColor"/>
</svg>
