<svg xmlns="http://www.w3.org/2000/svg" width="1em" height="1em" viewBox="0 0 24 24" fill="currentColor">
  <path d="M 12 1 C 5.9367104 1 1 5.9367104 1 12 C 1 18.063244 5.9367044 23 12 23 C 18.06325 23 23 18.06325 23 12 C 23 5.9367044 18.063244 1 12 1 z M 12 3 C 16.982356 3 21 7.0175956 21 12 C 21 16.98235 16.98235 21 12 21 C 7.0175956 21 3 16.982356 3 12 C 3 7.0175896 7.0175896 3 12 3 z M 12 9 C 9.3948858 9 6.9257034 9.3721351 4.7109375 10.042969 A 1 1 0 0 0 4.0429688 11.289062 A 1 1 0 0 0 5.2890625 11.957031 C 7.3048566 11.346465 9.5857742 11 12 11 C 14.414257 11 16.695117 11.346462 18.710938 11.957031 A 1 1 0 0 0 19.957031 11.289062 A 1 1 0 0 0 19.289062 10.042969 C 17.074283 9.3721374 14.605143 9 12 9 z M 12 12 C 11.183275 12 10.5 12.683275 10.5 13.5 C 10.5 14.316725 11.183275 15 12 15 C 12.816725 15 13.5 14.316725 13.5 13.5 C 13.5 12.683275 12.816725 12 12 12 z M 4.9355469 13.001953 A 1 1 0 0 0 4.0195312 13.804688 A 1 1 0 0 0 4.8046875 14.980469 C 6.902398 15.400011 8.5999891 17.097603 9.0195312 19.195312 A 1 1 0 0 0 10.195312 19.980469 A 1 1 0 0 0 10.980469 18.804688 C 10.400011 15.902398 8.097602 13.599989 5.1953125 13.019531 A 1 1 0 0 0 4.9355469 13.001953 z M 18.933594 13.001953 A 1 1 0 0 0 18.804688 13.019531 C 15.902399 13.599989 13.599989 15.902399 13.019531 18.804688 A 1 1 0 0 0 13.804688 19.980469 A 1 1 0 0 0 14.980469 19.195312 C 15.400011 17.097603 17.097603 15.400011 19.195312 14.980469 A 1 1 0 0 0 19.980469 13.804688 A 1 1 0 0 0 18.933594 13.001953 z " fill="currentColor"/>
</svg>
