<svg xmlns="http://www.w3.org/2000/svg" width="1em" height="1em" viewBox="0 0 24 24" fill="currentColor">
  <path d="M 11 2 C 9.585785 2 8.5044454 1.9940748 7.5742188 2.1191406 C 6.6439921 2.2442065 5.800893 2.542857 5.171875 3.171875 C 4.542857 3.800893 4.2442065 4.6439921 4.1191406 5.5742188 C 3.9940748 6.5044454 4 7.585785 4 9 L 4 17 A 1 1 0 0 0 5 18 A 1 1 0 0 0 6 17 L 6 9 C 6 7.585785 6.0069583 6.5454528 6.1015625 5.8417969 C 6.1961667 5.138141 6.3362755 4.8355995 6.5859375 4.5859375 C 6.8355995 4.3362755 7.138141 4.1961667 7.8417969 4.1015625 C 8.5454528 4.0069583 9.585785 4 11 4 L 13 4 C 14.4142 4 15.454551 4.00696 16.158203 4.1015625 C 16.861855 4.1961665 17.164388 4.3362677 17.414062 4.5859375 C 17.663732 4.8356017 17.803832 5.1381434 17.898438 5.8417969 C 17.993043 6.5454503 18 7.585785 18 9 L 18 17 A 1 1 0 0 0 19 18 A 1 1 0 0 0 20 17 L 20 9 C 20 7.585785 20.005928 6.5044478 19.880859 5.5742188 C 19.75579 4.6439897 19.457155 3.8008908 18.828125 3.171875 C 18.199101 2.5428648 17.356004 2.2442065 16.425781 2.1191406 C 15.495558 1.9940747 14.4142 2 13 2 L 11 2 z M 3 20 A 1 1 0 0 0 2 21 A 1 1 0 0 0 3 22 L 21 22 A 1 1 0 0 0 22 21 A 1 1 0 0 0 21 20 L 3 20 z " fill="currentColor"/>
</svg>
