<svg xmlns="http://www.w3.org/2000/svg" width="1em" height="1em" viewBox="0 0 24 24" fill="currentColor">
  <path d="M 12.820312 1.0058594 C 12.704331 1.0116773 12.58646 1.0289869 12.470703 1.0605469 C 12.007703 1.1868227 11.646955 1.5178192 11.410156 1.8300781 C 11.173358 2.1423371 10.991859 2.4727419 10.755859 2.8886719 C 10.519844 3.3046282 10.328478 3.6324952 10.181641 3.9960938 C 10.034803 4.3596923 9.9377032 4.8337211 10.058594 5.2929688 C 10.17952 5.7523649 10.500527 6.1194121 10.808594 6.3613281 C 11.027101 6.5329163 11.25395 6.6755059 11.513672 6.8300781 L 6.5039062 10.410156 C 6.0604861 10.150133 5.5464691 10 5 10 C 3.3550085 10 2 11.354975 2 13 C 2 14.645025 3.3550085 16 5 16 C 5.1558017 16 5.3092901 15.988249 5.4589844 15.964844 L 9.0546875 21 L 7 21 A 1 1 0 0 0 6 22 A 1 1 0 0 0 7 23 L 10.945312 23 L 11.054688 23 L 14 23 A 1 1 0 0 0 15 22 A 1 1 0 0 0 14 21 L 11.515625 21 L 7.2285156 14.998047 C 7.7068212 14.465748 8 13.76441 8 13 C 8 12.628145 7.9308618 12.271319 7.8046875 11.941406 L 12.611328 8.5078125 C 12.763686 9.4723559 13.140238 10.394505 13.722656 11.189453 A 1.0001 1.0001 0 0 0 13.722656 11.191406 C 13.951188 11.503232 14.136933 11.786698 14.470703 12.064453 C 14.804473 12.342208 15.35333 12.527414 15.824219 12.494141 C 16.350796 12.456921 16.872253 12.134221 17.169922 11.787109 C 17.46759 11.439998 17.658711 11.078808 17.90625 10.642578 L 18.037109 10.410156 C 19.367606 10.868974 20.882097 10.492576 21.601562 9.2246094 C 22.326189 7.9473342 21.892867 6.4364328 20.820312 5.5039062 L 20.958984 5.2597656 C 21.206541 4.8234888 21.418759 4.4743262 21.564453 4.0410156 C 21.710147 3.6077051 21.72309 3.0041523 21.496094 2.53125 C 21.292656 2.1072477 20.868861 1.7207515 20.462891 1.5644531 C 20.05692 1.4081548 19.717595 1.3853044 19.337891 1.3398438 C 18.315488 1.2174232 17.284488 1.3682448 16.34375 1.7597656 C 15.882132 1.9518874 15.544218 2.0402626 15.425781 2.0839844 C 15.331908 2.0305289 15.126088 1.9274947 14.867188 1.7753906 C 14.458473 1.5352474 14.138562 1.3385689 13.777344 1.1875 C 13.50643 1.0741983 13.168258 0.98840568 12.820312 1.0058594 z M 13.005859 3.0332031 C 13.153792 3.0952198 13.447499 3.2602944 13.855469 3.5 C 14.067288 3.6244436 14.501318 4.0660264 15.328125 4.1230469 C 16.068345 4.1741309 16.379566 3.9108349 17.113281 3.6054688 C 17.743144 3.3433295 18.426812 3.2456125 19.099609 3.3261719 C 19.432056 3.3659739 19.592719 3.3980536 19.664062 3.4160156 C 19.619022 3.545543 19.464932 3.843026 19.220703 4.2734375 L 18.701172 5.1875 A 1 1 0 0 0 18.701172 5.1894531 L 18.695312 5.1992188 L 16.699219 8.7167969 L 16.691406 8.7285156 L 16.166016 9.65625 C 15.932052 10.068557 15.771595 10.328018 15.681641 10.441406 C 15.623181 10.377856 15.526725 10.268137 15.335938 10.007812 C 14.927613 9.4504475 14.665072 8.7910564 14.572266 8.0976562 C 14.465266 7.2983656 14.530513 6.8947133 14.126953 6.2832031 C 13.674024 5.5968851 13.077024 5.4291139 12.865234 5.3046875 C 12.45652 5.0645442 12.170477 4.8891915 12.042969 4.7890625 C 12.035849 4.7834718 12.02941 4.7781621 12.023438 4.7734375 C 12.026933 4.7646463 12.030764 4.7550174 12.035156 4.7441406 C 12.097446 4.5899042 12.260109 4.2928568 12.496094 3.8769531 C 12.732094 3.4610231 12.90458 3.1680879 13.003906 3.0371094 C 13.004824 3.0358995 13.004966 3.0343794 13.005859 3.0332031 z M 19.828125 7.2558594 C 19.987526 7.5614865 20.048112 7.9090491 19.861328 8.2382812 C 19.670626 8.5743681 19.348826 8.6874573 19.013672 8.6894531 L 19.828125 7.2558594 z M 4.9980469 12 A 1 1 0 0 0 5.1855469 12.582031 A 1 1 0 0 0 6 13.001953 C 5.9992485 13.56542 5.5636616 14 5 14 C 4.4358515 14 4 13.564175 4 13 C 4 12.436312 4.4346068 12.000751 4.9980469 12 z " fill="currentColor"/>
</svg>
