<svg xmlns="http://www.w3.org/2000/svg" width="1em" height="1em" viewBox="0 0 24 24" fill="currentColor">
  <path d="M 10 2.5 C 8.11438 2.5 6.6779589 2.4932802 5.46875 2.6660156 C 4.2595411 2.838751 3.2126568 3.2412178 2.4433594 4.0585938 C 1.6740641 4.8759679 1.3142759 5.9466575 1.1542969 7.2109375 C 0.99431787 8.4752175 1 9.99653 1 12 C 1 14.00345 0.99431798 15.52478 1.1542969 16.789062 C 1.3142757 18.053345 1.6740637 19.124025 2.4433594 19.941406 C 3.2126568 20.758782 4.2595411 21.161249 5.46875 21.333984 C 6.6779589 21.50672 8.11438 21.5 10 21.5 L 14 21.5 C 15.8856 21.5 17.322034 21.5067 18.53125 21.333984 C 19.740466 21.161249 20.787369 20.75881 21.556641 19.941406 C 22.325954 19.124027 22.68572 18.053348 22.845703 16.789062 C 23.005686 15.524777 23 14.00345 23 12 C 23 9.99653 23.005687 8.4752202 22.845703 7.2109375 C 22.68572 5.9466548 22.325954 4.8759658 21.556641 4.0585938 C 20.787369 3.2411897 19.740466 2.8387508 18.53125 2.6660156 C 17.322034 2.4932804 15.8856 2.5 14 2.5 L 10 2.5 z M 10 4.5 L 14 4.5 C 15.8856 4.5 17.278738 4.50802 18.248047 4.6464844 C 19.217356 4.7849492 19.697381 5.0022916 20.099609 5.4296875 C 20.501896 5.8571054 20.728412 6.4125058 20.861328 7.4628906 C 20.994245 8.5132755 21 9.99653 21 12 C 21 14.00345 20.9942 15.48672 20.861328 16.537109 C 20.728411 17.587499 20.501896 18.142892 20.099609 18.570312 C 19.697381 18.997709 19.217356 19.215051 18.248047 19.353516 C 17.278738 19.49198 15.8856 19.5 14 19.5 L 10 19.5 C 8.11438 19.5 6.7212542 19.49198 5.7519531 19.353516 C 4.782652 19.215051 4.3026732 18.997736 3.9003906 18.570312 C 3.4981163 18.142894 3.2715855 17.587501 3.1386719 16.537109 C 3.0057582 15.486717 3 14.00345 3 12 C 3 9.99653 3.0057584 8.5132781 3.1386719 7.4628906 C 3.2715854 6.4125032 3.4981159 5.8571034 3.9003906 5.4296875 C 4.3026732 5.0022635 4.782652 4.784949 5.7519531 4.6464844 C 6.7212542 4.5080198 8.11438 4.5 10 4.5 z M 8.4980469 7.5 C 6.9911133 7.5 5.7480469 8.7430639 5.7480469 10.25 C 5.7480469 11.645251 6.8568936 12.713276 8.2109375 12.878906 C 6.6740201 12.968586 5.16427 13.618777 4.2011719 14.898438 A 1 1 0 0 0 4.3984375 16.298828 A 1 1 0 0 0 5.7988281 16.101562 C 6.9695397 14.546048 9.9830161 14.432526 11.193359 16.089844 A 1 1 0 0 0 12.589844 16.306641 A 1 1 0 0 0 12.806641 14.910156 C 11.830523 13.573563 10.319181 12.947687 8.7871094 12.878906 C 10.140393 12.712548 11.248047 11.644682 11.248047 10.25 C 11.248047 8.7430846 10.004985 7.5 8.4980469 7.5 z M 15 8.5 A 1 1 0 0 0 14 9.5 A 1 1 0 0 0 15 10.5 L 19 10.5 A 1 1 0 0 0 20 9.5 A 1 1 0 0 0 19 8.5 L 15 8.5 z M 8.4980469 9.5 C 8.9241089 9.5 9.2480469 9.8239554 9.2480469 10.25 C 9.2480469 10.676076 8.9241089 11 8.4980469 11 C 8.0720005 11 7.7480469 10.676055 7.7480469 10.25 C 7.7480469 9.8239761 8.0720005 9.5 8.4980469 9.5 z M 15 12.5 A 1 1 0 0 0 14 13.5 A 1 1 0 0 0 15 14.5 L 17 14.5 A 1 1 0 0 0 18 13.5 A 1 1 0 0 0 17 12.5 L 15 12.5 z " fill="currentColor"/>
</svg>
