<svg xmlns="http://www.w3.org/2000/svg" width="1em" height="1em" viewBox="0 0 24 24" fill="currentColor">
  <path d="M 11 1 C 9.11438 1 7.6810556 0.99457301 6.4785156 1.15625 C 5.2759756 1.317927 4.240311 1.689383 3.4648438 2.4648438 C 2.6893829 3.240311 2.317927 4.2759756 2.15625 5.4785156 C 1.994573 6.6810556 2 8.11438 2 10 L 2 14 C 2 15.8856 1.99457 17.318937 2.15625 18.521484 C 2.3179268 19.724031 2.6893545 20.759713 3.4648438 21.535156 C 4.2403087 22.310634 5.2759729 22.682068 6.4785156 22.84375 C 7.6810584 23.005432 9.11438 23 11 23 L 13 23 C 14.8856 23 16.318935 23.0054 17.521484 22.84375 C 18.724034 22.682069 19.759716 22.310663 20.535156 21.535156 C 21.310663 20.759716 21.682069 19.724034 21.84375 18.521484 C 22.005431 17.318935 22 15.8856 22 14 L 22 10 C 22 8.11438 22.005432 6.6810584 21.84375 5.4785156 C 21.682068 4.2759729 21.310634 3.2403086 20.535156 2.4648438 C 19.759713 1.6893545 18.724031 1.3179268 17.521484 1.15625 C 16.318937 0.99457318 14.8856 1 13 1 L 11 1 z M 11 3 L 13 3 C 14.8856 3 16.279881 3.0054999 17.255859 3.1367188 C 17.600548 3.1830605 17.885711 3.2390356 18.126953 3.3105469 L 17.326172 4.5898438 C 16.751773 5.5088924 16.533171 5.7884275 16.376953 5.875 C 16.220873 5.9615187 15.867003 6 14.783203 6 L 9.2167969 6 C 8.1330069 6 7.7792249 5.9615634 7.6230469 5.875 C 7.4668658 5.7884384 7.2482245 5.508888 6.6738281 4.5898438 L 5.8730469 3.3105469 C 6.1142861 3.2390364 6.3994461 3.1830616 6.7441406 3.1367188 C 7.7201106 3.0055032 9.11438 3 11 3 z M 4.3730469 4.6855469 L 4.9765625 5.6503906 C 5.5509661 6.5694464 5.9057779 7.2081885 6.6542969 7.6230469 C 7.4028188 8.0379235 8.1330069 8 9.2167969 8 L 14.783203 8 C 15.867003 8 16.597183 8.037968 17.345703 7.6230469 C 18.094285 7.2081994 18.449037 6.569442 19.023438 5.6503906 L 19.626953 4.6855469 C 19.728794 4.9643707 19.804224 5.3048849 19.863281 5.7441406 C 19.9945 6.7201079 20 8.11438 20 10 L 20 14 C 20 15.8856 19.9945 17.279884 19.863281 18.255859 C 19.732063 19.231835 19.517187 19.725034 19.121094 20.121094 C 18.725034 20.517187 18.231835 20.732063 17.255859 20.863281 C 16.279884 20.9945 14.8856 21 13 21 L 11 21 C 9.11438 21 7.7201079 20.9945 6.7441406 20.863281 C 5.7681734 20.732063 5.2750213 20.517216 4.8789062 20.121094 C 4.4828255 19.725037 4.2679344 19.231837 4.1367188 18.255859 C 4.0055032 17.279881 4 15.8856 4 14 L 4 10 C 4 8.11438 4.0055032 6.7201106 4.1367188 5.7441406 C 4.1957749 5.3048862 4.2712053 4.9643699 4.3730469 4.6855469 z M 11.857422 9 A 1 1 0 0 0 11.150391 9.2929688 L 10.792969 9.6503906 L 8.6503906 11.792969 L 8.2929688 12.150391 A 1 1 0 0 0 8.2929688 13.564453 A 1 1 0 0 0 9.1582031 13.792969 C 9.413831 14.11508 9.8135937 14.558812 10.384766 15.201172 L 7.2929688 18.292969 A 1 1 0 0 0 7.2929688 19.707031 A 1 1 0 0 0 8.7070312 19.707031 L 11.798828 16.615234 C 12.545463 17.279135 13.172587 17.834835 13.435547 18.041016 A 1 1 0 0 0 13.435547 18.707031 A 1 1 0 0 0 14.849609 18.707031 L 15.207031 18.349609 L 17.349609 16.207031 L 17.707031 15.849609 A 1 1 0 0 0 17.707031 14.435547 A 1 1 0 0 0 17.041016 14.435547 C 16.739634 14.051168 16.014511 13.100449 14.957031 12.042969 C 14.00059 11.086527 13.287955 10.551036 12.792969 10.158203 A 1 1 0 0 0 12.564453 9.2929688 A 1 1 0 0 0 11.857422 9 z M 11.548828 11.722656 C 12.032474 12.109301 12.704632 12.618694 13.542969 13.457031 C 14.381306 14.295368 14.890699 14.967526 15.277344 15.451172 L 14.451172 16.277344 C 13.967526 15.890699 13.295368 15.381306 12.457031 14.542969 C 11.6187 13.704638 11.109289 13.032473 10.722656 12.548828 L 11.548828 11.722656 z " fill="currentColor"/>
</svg>
