<svg xmlns="http://www.w3.org/2000/svg" width="1em" height="1em" viewBox="0 0 24 24" fill="currentColor">
  <path d="M 7.9980469 1 A 1 1 0 0 0 7.953125 1.0039062 A 1.0001 1.0001 0 0 0 7.8828125 1.0078125 A 1 1 0 0 0 7.8242188 1.0175781 A 1.0001 1.0001 0 0 0 7.7597656 1.03125 A 1 1 0 0 0 7.6660156 1.0585938 A 1.0001 1.0001 0 0 0 7.6328125 1.0703125 A 1 1 0 0 0 7.5507812 1.1074219 A 1.0001 1.0001 0 0 0 7.5019531 1.1328125 A 1 1 0 0 0 7.4453125 1.1699219 A 1.0001 1.0001 0 0 0 7.3867188 1.2089844 A 1 1 0 0 0 7.3242188 1.2636719 A 1.0001 1.0001 0 0 0 7.2910156 1.2929688 A 1 1 0 0 0 7.28125 1.3027344 L 5.5683594 3.015625 C 4.1445255 3.0856657 3.0139481 3.3141769 2.1738281 4.1542969 C 1.5448088 4.7833162 1.2461595 5.6264131 1.1210938 6.5566406 C 0.99602803 7.4868682 1.0019531 8.5682119 1.0019531 9.9824219 L 0.99804688 16 C 0.99804686 17.41425 0.99212188 18.495547 1.1171875 19.425781 C 1.2422531 20.356016 1.5409117 21.199101 2.1699219 21.828125 C 2.7989485 22.457094 3.6420488 22.755806 4.5722656 22.880859 C 5.5024825 23.005913 6.5838319 23 7.9980469 23 L 8.9804688 23 L 15.015625 23 L 15.998047 23 C 17.412247 23 18.49165 23.0059 19.421875 22.880859 C 20.3521 22.755807 21.197165 22.457132 21.826172 21.828125 C 22.455194 21.199103 22.753838 20.356018 22.878906 19.425781 C 23.003975 18.495544 22.998047 17.41425 22.998047 16 L 23.001953 9.9824219 C 23.001953 8.5682119 23.007853 7.4868706 22.882812 6.5566406 C 22.75775 5.6264107 22.45911 4.783314 21.830078 4.1542969 C 20.987969 3.3121878 19.856152 3.0850791 18.427734 3.015625 L 16.714844 1.3027344 A 1 1 0 0 0 16.705078 1.2929688 A 1.0001 1.0001 0 0 0 16.617188 1.2148438 A 1 1 0 0 0 16.599609 1.2011719 A 1.0001 1.0001 0 0 0 16.505859 1.1386719 A 1 1 0 0 0 16.494141 1.1328125 A 1.0001 1.0001 0 0 0 16.449219 1.109375 A 1 1 0 0 0 16.353516 1.0664062 A 1.0001 1.0001 0 0 0 16.345703 1.0644531 A 1 1 0 0 0 16.236328 1.0292969 A 1.0001 1.0001 0 0 0 16.173828 1.0175781 A 1 1 0 0 0 16.109375 1.0078125 A 1.0001 1.0001 0 0 0 16.044922 1.0039062 A 1 1 0 0 0 15.998047 1 L 7.9980469 1 z M 10.080078 3 L 13.916016 3 L 11.998047 5.3984375 L 10.080078 3 z M 7.9140625 3.4980469 L 10.716797 7 C 10.235189 7.6266838 9.7420207 8.2830086 9.4375 8.5957031 C 9.2273104 8.8115346 9.0601025 8.9348596 8.9804688 8.9765625 C 8.9598554 8.9873573 8.9465872 8.9941065 8.9394531 8.9980469 C 8.8995559 8.9905685 8.830531 8.9544995 8.609375 8.5097656 C 8.3622933 8.0128964 8.0659312 7.1365325 7.6757812 5.9453125 L 7.1367188 4.2753906 L 7.9140625 3.4980469 z M 16.082031 3.4980469 L 16.857422 4.2734375 L 16.318359 5.9492188 C 15.929073 7.1375607 15.633411 8.0136721 15.386719 8.5097656 C 15.165574 8.9544843 15.096517 8.9905712 15.056641 8.9980469 C 15.049509 8.9941057 15.036237 8.9873564 15.015625 8.9765625 C 14.935977 8.9348561 14.768786 8.8115326 14.558594 8.5957031 C 14.254069 8.2830115 13.760905 7.6266824 13.279297 7 L 16.082031 3.4980469 z M 18.714844 5.0371094 C 19.675278 5.1107385 20.119199 5.2715433 20.416016 5.5683594 C 20.665684 5.8180222 20.807738 6.1205637 20.902344 6.8242188 C 20.996954 7.5278738 21.001953 8.5682119 21.001953 9.9824219 L 20.998047 16 C 20.998047 17.41425 20.991047 18.45454 20.896484 19.158203 C 20.801874 19.861866 20.661787 20.164385 20.412109 20.414062 C 20.162517 20.663656 19.859925 20.80384 19.15625 20.898438 C 18.452575 20.993035 17.412247 21 15.998047 21 L 15.859375 21 L 14.533203 12.166016 L 15.119141 10.994141 C 15.208538 10.992082 15.297846 10.984241 15.386719 10.96875 C 16.233721 10.821089 16.813269 10.133325 17.177734 9.4003906 C 17.5422 8.6674566 17.830507 7.7595674 18.220703 6.5683594 A 1.0001 1.0001 0 0 0 18.222656 6.5625 L 18.714844 5.0371094 z M 5.28125 5.0390625 L 5.7734375 6.5625 A 1.0001 1.0001 0 0 0 5.7753906 6.5683594 C 6.1655406 7.7595794 6.453881 8.6674424 6.8183594 9.4003906 C 7.1828377 10.133339 7.762371 10.821095 8.609375 10.96875 C 8.6982488 10.984243 8.7875544 10.992081 8.8769531 10.994141 L 9.4609375 12.162109 L 8.1347656 21 L 7.9980469 21 C 6.5838319 21 5.5435094 20.993035 4.8398438 20.898438 C 4.1361782 20.803841 3.8336378 20.663693 3.5839844 20.414062 C 3.3343145 20.164388 3.1922606 19.861869 3.0976562 19.158203 C 3.0030518 18.454538 2.9980469 17.41425 2.9980469 16 L 3.0019531 9.9824219 C 3.0019531 8.5682119 3.0089131 7.5278762 3.1035156 6.8242188 C 3.1981161 6.1205614 3.3382299 5.8180201 3.5878906 5.5683594 C 3.8835876 5.2726624 4.3276894 5.1130661 5.28125 5.0390625 z M 11.998047 8.6484375 C 12.399569 9.168796 12.760831 9.6162982 13.125 9.9902344 C 13.182402 10.049176 13.240533 10.10639 13.298828 10.162109 L 12.878906 11 L 11.115234 11 L 10.697266 10.162109 C 10.755225 10.10658 10.811948 10.048962 10.869141 9.9902344 C 11.2333 9.6163004 11.595951 9.1687975 11.998047 8.6484375 z M 11.359375 13 L 12.634766 13 L 13.835938 21 L 10.158203 21 L 11.359375 13 z " fill="currentColor"/>
</svg>
