<svg xmlns="http://www.w3.org/2000/svg" width="1em" height="1em" viewBox="0 0 24 24" fill="currentColor">
  <path d="M 9.9921875 4.0019531 C 9.7610994 3.9961886 9.5347581 4.0001021 9.3144531 4.0136719 C 7.5520136 4.1222297 6.1170415 4.8576385 5.3359375 6.03125 C 4.7711709 6.8798095 4.2672745 8.1519405 4.640625 9.7226562 C 4.9214072 10.90393 5.8098728 12.34439 7.1035156 14.009766 C 6.8181397 14.011666 6.5294712 14.005566 6.2675781 14.041016 C 5.9567166 14.083108 5.5966831 14.190668 5.2929688 14.40625 C 5.1046274 14.313794 4.8103325 14.154141 4.5039062 13.935547 C 3.9904473 13.569263 3.5208051 13 2.4960938 13 C 2.2205192 13 1.8752061 13.015005 1.5039062 13.224609 C 1.1326065 13.434214 0.87256178 13.826388 0.75195312 14.179688 C 0.51073581 14.886285 0.51266601 15.642493 0.5 16.988281 C 0.493634 17.66505 0.595758 18.351123 0.99609375 18.960938 C 1.3964295 19.570752 2.1763852 20 3 20 A 1 1 0 0 0 4 19 A 1 1 0 0 0 3 18 C 2.7176148 18 2.7436354 17.978541 2.6679688 17.863281 C 2.5923019 17.748021 2.4959763 17.435544 2.5 17.007812 C 2.5107865 15.861693 2.5807215 15.339624 2.6269531 15.095703 L 2.6289062 15.097656 L 2.6308594 15.099609 C 2.6639075 15.152712 2.9228016 15.265556 3.3417969 15.564453 C 3.6743748 15.801702 4.0380515 16.103213 4.5039062 16.298828 C 4.4976165 16.512963 4.5 16.738293 4.5 16.992188 C 4.5 17.462988 4.4931999 17.837509 4.5449219 18.222656 C 4.5966439 18.607804 4.7485671 19.068214 5.0839844 19.404297 A 1.0001 1.0001 0 0 0 5.0859375 19.40625 C 5.4220085 19.741667 5.8820708 19.893116 6.2675781 19.945312 C 6.6530854 19.997512 7.0267413 19.992188 7.4980469 19.992188 L 9.5 19.992188 C 10.238194 20.032684 11.210662 19.940194 12.148438 19.449219 C 12.515852 19.256858 12.82778 18.905892 13.126953 18.552734 C 13.671673 19.433094 14.620137 19.992189 15.660156 19.992188 L 19 19.992188 A 1.0001 1.0001 0 0 0 19.904297 18.962891 C 21.888272 18.880802 23.5 17.254528 23.5 15.251953 C 23.5 13.412596 22.123092 11.937894 20.365234 11.634766 C 20.061012 9.8217543 18.810801 7.5294832 15.542969 5.7109375 C 13.485541 4.5659841 11.609804 4.0423051 9.9921875 4.0019531 z M 9.9414062 6.0019531 C 11.166287 6.0345296 12.739327 6.4400453 14.570312 7.4589844 C 17.568859 9.1276731 18.241206 10.940718 18.363281 12.089844 C 18.121883 12.278052 17.899836 12.466298 17.580078 12.642578 C 17.017738 12.952591 16.399448 13.151233 15.689453 13.013672 A 1.0001 1.0001 0 0 0 14.572266 14.365234 L 15.572266 16.865234 A 1.0001 1.0001 0 0 0 16.257812 17.462891 C 16.240742 17.458591 16.668285 17.709936 17.029297 17.992188 L 15.660156 17.992188 C 15.299523 17.992188 14.971586 17.80071 14.792969 17.488281 L 13.863281 15.863281 L 12.357422 13.230469 C 12.079326 12.744106 12.21412 12.252592 12.667969 12.074219 C 13.496855 11.748449 14.44364 11.496094 15.056641 11.496094 A 1 1 0 0 0 16.056641 10.496094 A 1 1 0 0 0 15.056641 9.4960938 C 13.977241 9.4960938 12.889261 9.8380603 11.935547 10.212891 C 10.336595 10.841317 9.8067427 12.796972 10.623047 14.224609 L 11.951172 16.546875 C 11.897232 17.165564 11.658611 17.448466 11.220703 17.677734 C 10.729625 17.93484 9.986095 18.02206 9.5664062 17.994141 A 1.0001 1.0001 0 0 0 9.5 17.992188 L 7.4980469 17.992188 C 7.0277325 17.992188 6.6962846 17.984491 6.5371094 17.962891 C 6.5340403 17.962475 6.5301981 17.961314 6.5273438 17.960938 C 6.5270605 17.958787 6.5276487 17.957349 6.5273438 17.955078 C 6.5060114 17.796237 6.5 17.462988 6.5 16.992188 C 6.5 16.521389 6.5060098 16.188164 6.5273438 16.029297 C 6.5276483 16.027029 6.5270587 16.025589 6.5273438 16.023438 C 6.5302 16.023059 6.5340433 16.0219 6.5371094 16.021484 C 6.6962846 15.999934 7.0277325 15.994141 7.4980469 15.994141 L 9.1308594 15.994141 A 1.0001 1.0001 0 0 0 9.875 14.326172 C 7.7096629 11.916176 6.829797 10.285702 6.5859375 9.2597656 C 6.342078 8.2338288 6.5772166 7.7758555 7 7.140625 C 7.365296 6.5917665 8.1536395 6.0888453 9.4375 6.0097656 C 9.5979825 5.9998806 9.7664233 5.9972993 9.9414062 6.0019531 z M 19.794922 13.525391 C 20.748329 13.548061 21.5 14.2938 21.5 15.251953 C 21.5 16.224767 20.732156 16.992188 19.757812 16.992188 L 18.785156 16.992188 C 18.683624 16.886703 18.633548 16.717335 18.529297 16.621094 C 18.142903 16.264387 17.736391 16.093478 17.333984 15.886719 L 16.958984 14.949219 C 17.560653 14.834778 18.105027 14.637041 18.544922 14.394531 C 19.222733 14.02086 19.61081 13.678064 19.794922 13.525391 z " fill="currentColor"/>
</svg>
