<svg xmlns="http://www.w3.org/2000/svg" width="1em" height="1em" viewBox="0 0 24 24" fill="currentColor">
  <path d="M 6.2949219 1.5 A 1 1 0 0 0 6.1640625 1.5058594 C 4.659572 1.6723982 3.3992957 2.1153889 2.5039062 3.1230469 C 1.7009038 4.0267355 1.3326712 5.1902211 1.1640625 6.6015625 C 0.99545384 8.0129039 1 9.732055 1 12 C 1 14.26795 0.995454 15.987095 1.1640625 17.398438 C 1.3326711 18.80978 1.7009239 19.973236 2.5039062 20.876953 C 3.3993022 21.884593 4.659578 22.327613 6.1640625 22.494141 A 1 1 0 0 0 7.2695312 21.609375 A 1 1 0 0 0 6.3847656 20.505859 C 5.1102501 20.364787 4.5007839 20.112388 4 19.548828 C 3.5508624 19.043346 3.2948121 18.369039 3.1503906 17.160156 C 3.0059692 15.951273 3 14.26795 3 12 C 3 9.732055 3.0059693 8.0487248 3.1503906 6.8398438 C 3.294812 5.6309628 3.5508823 4.9566032 4 4.4511719 C 4.5007904 3.8875898 5.1102561 3.6352218 6.3847656 3.4941406 A 1 1 0 0 0 7.2695312 2.390625 A 1 1 0 0 0 6.2949219 1.5 z M 17.705078 1.5 A 1 1 0 0 0 16.730469 2.390625 A 1 1 0 0 0 17.615234 3.4941406 C 18.889744 3.6352218 19.499197 3.8875841 20 4.4511719 C 20.44911 4.9566022 20.70519 5.6309612 20.849609 6.8398438 C 20.994029 8.0487265 21 9.732055 21 12 C 21 14.26795 20.994 15.951272 20.849609 17.160156 C 20.70519 18.369041 20.44913 19.043347 20 19.548828 C 19.499204 20.112394 18.88975 20.364787 17.615234 20.505859 A 1 1 0 0 0 16.730469 21.609375 A 1 1 0 0 0 17.835938 22.494141 C 19.340422 22.327613 20.60069 21.884587 21.496094 20.876953 C 22.299064 19.973235 22.667333 18.809779 22.835938 17.398438 C 23.004544 15.987097 23 14.26795 23 12 C 23 9.732055 23.004544 8.0129024 22.835938 6.6015625 C 22.667332 5.1902226 22.299084 4.0267366 21.496094 3.1230469 C 20.600696 2.1153947 19.340428 1.6723982 17.835938 1.5058594 A 1 1 0 0 0 17.705078 1.5 z M 13.763672 6.9980469 C 13.590717 6.9950491 13.442328 7.0019531 13.324219 7.0019531 L 10.798828 7.0019531 C 10.244918 7.0019531 9.8210636 6.9939134 9.4003906 7.0527344 C 9.1900541 7.0821462 8.970843 7.1240969 8.7207031 7.2578125 C 8.4705632 7.3915281 8.19472 7.6714797 8.0800781 7.9882812 C 7.9654455 8.3050838 7.9976917 8.6905929 8.0996094 8.9511719 C 8.2015271 9.2117508 8.3371159 9.3863704 8.4765625 9.546875 C 8.7554558 9.8678843 9.0833281 10.145154 9.5039062 10.513672 L 9.5039062 10.511719 L 11.193359 11.994141 L 11.195312 11.996094 L 11.197266 11.996094 L 11.197266 11.998047 L 11.199219 12 L 11.197266 12.001953 L 11.195312 12.003906 L 11.193359 12.005859 L 9.5039062 13.486328 A 1.0001 1.0001 0 0 0 9.5039062 13.488281 C 9.0833375 13.856826 8.7554438 14.13213 8.4765625 14.453125 C 8.3371219 14.613623 8.2015308 14.788254 8.0996094 15.048828 C 7.997688 15.309402 7.9654315 15.694907 8.0800781 16.011719 C 8.194733 16.328527 8.4705683 16.608487 8.7207031 16.742188 C 8.970838 16.875888 9.1900597 16.917858 9.4003906 16.947266 C 9.8210525 17.006086 10.244918 16.998047 10.798828 16.998047 L 13.324219 16.998047 C 13.560388 16.998047 13.914753 17.026783 14.353516 16.945312 C 14.792278 16.863833 15.373556 16.585686 15.701172 16.052734 A 1.0001 1.0001 0 0 0 15.703125 16.052734 C 16.024831 15.528831 15.998242 15.047851 16 14.501953 A 1 1 0 0 0 15.003906 13.498047 A 1 1 0 0 0 14 14.496094 C 13.999179 14.757976 13.98366 14.909418 13.976562 14.982422 C 13.865666 14.999887 13.62672 14.998047 13.324219 14.998047 L 10.816406 14.998047 L 10.818359 14.996094 L 10.818359 14.994141 L 10.820312 14.994141 L 10.822266 14.992188 L 12.511719 13.511719 C 12.713019 13.335374 12.884552 13.195353 13.064453 12.986328 C 13.244355 12.777304 13.457031 12.406748 13.457031 12 C 13.457031 11.593252 13.244355 11.222696 13.064453 11.013672 C 12.884552 10.804647 12.713019 10.664626 12.511719 10.488281 L 10.822266 9.0078125 L 10.820312 9.0058594 L 10.818359 9.0039062 L 10.816406 9.0019531 L 13.324219 9.0019531 C 13.626637 9.0019531 13.865622 9.000113 13.976562 9.0175781 C 13.983652 9.0905752 13.999133 9.2420041 14 9.5039062 A 1 1 0 0 0 15.003906 10.501953 A 1 1 0 0 0 16 9.4980469 C 15.9982 8.9520906 16.02486 8.4710867 15.703125 7.9472656 A 1.0001 1.0001 0 0 0 15.701172 7.9472656 C 15.373581 7.4143672 14.792251 7.1361744 14.353516 7.0546875 C 14.134148 7.0139441 13.936627 7.0010446 13.763672 6.9980469 z " fill="currentColor"/>
</svg>
