<svg xmlns="http://www.w3.org/2000/svg" width="1em" height="1em" viewBox="0 0 24 24" fill="currentColor">
  <path d="M 9.1992188 2 C 7.9067537 2 6.9283956 1.9929055 6.1230469 2.1015625 C 5.7203725 2.155891 5.35083 2.2348765 4.9882812 2.421875 C 4.6257325 2.6088735 4.2685237 2.9584641 4.109375 3.3828125 C 3.9502298 3.8071612 3.9908033 4.3121663 4.1445312 4.6914062 C 4.2982593 5.0706463 4.5260522 5.3671996 4.796875 5.6679688 C 5.3385205 6.2695071 6.0870444 6.8930013 7.0683594 7.7226562 L 11.011719 11.054688 C 11.481224 11.451641 11.813288 11.743946 11.966797 11.916016 C 12.000288 11.953556 12.024701 11.980802 12.041016 12 C 12.024701 12.019198 12.000287 12.046447 11.966797 12.083984 C 11.813288 12.256054 11.481224 12.548358 11.011719 12.945312 L 7.0683594 16.277344 C 6.0870478 17.106991 5.3385223 17.730504 4.796875 18.332031 C 4.5260514 18.632795 4.2982614 18.929352 4.1445312 19.308594 C 3.9908013 19.687835 3.9502355 20.192843 4.109375 20.617188 C 4.2685217 21.041536 4.6257318 21.391123 4.9882812 21.578125 C 5.3508309 21.765127 5.7203717 21.844109 6.1230469 21.898438 C 6.928397 22.007105 7.9067538 22 9.1992188 22 L 15.089844 22 C 16.614244 22 17.554988 22.06623 18.458984 21.505859 C 18.876213 21.247356 19.230662 20.897795 19.494141 20.484375 C 20.065998 19.586513 20 18.646078 20 17.142578 A 1 1 0 0 0 19 16.142578 A 1 1 0 0 0 18 17.142578 C 18 18.646078 17.93398 19.210218 17.806641 19.410156 C 17.70532 19.569137 17.569421 19.703591 17.40625 19.804688 C 17.197447 19.93412 16.614244 20 15.089844 20 L 9.1992188 20 C 7.9067538 20 6.9466272 19.992999 6.390625 19.917969 C 6.2495065 19.898929 6.2263656 19.881445 6.1445312 19.859375 C 6.1910882 19.792405 6.1932042 19.769875 6.2832031 19.669922 C 6.6539858 19.258149 7.3780565 18.63434 8.359375 17.804688 L 12.302734 14.472656 C 12.772229 14.075711 13.142943 13.770271 13.458984 13.416016 C 13.775026 13.061755 14.064453 12.561238 14.064453 12 C 14.064453 11.438762 13.775026 10.93824 13.458984 10.583984 C 13.142943 10.229729 12.772229 9.9242891 12.302734 9.5273438 L 8.359375 6.1953125 C 7.3780599 5.3656575 6.6539876 4.7418623 6.2832031 4.3300781 C 6.193204 4.2301273 6.1910896 4.2075973 6.1445312 4.140625 C 6.2263661 4.1185475 6.2495061 4.101071 6.390625 4.0820312 C 6.9466288 4.0070157 7.9067538 4 9.1992188 4 L 15.089844 4 C 16.614244 4 17.197442 4.065888 17.40625 4.1953125 C 17.569479 4.2964669 17.705316 4.4308513 17.806641 4.5898438 C 17.933955 4.7897222 18 5.3538519 18 6.8574219 A 1 1 0 0 0 19 7.8574219 A 1 1 0 0 0 20 6.8574219 C 20 5.3538519 20.066027 4.4134665 19.494141 3.515625 C 19.230666 3.1021975 18.876156 2.7526662 18.458984 2.4941406 C 17.554993 1.9338251 16.614244 2 15.089844 2 L 9.1992188 2 z " fill="currentColor"/>
</svg>
