<svg xmlns="http://www.w3.org/2000/svg" width="1em" height="1em" viewBox="0 0 24 24" fill="currentColor">
  <path d="M 6.3632812 1 A 1 1 0 0 0 6.1035156 1.0351562 A 1 1 0 0 0 5.4023438 2.2617188 L 5.4472656 2.4316406 C 4.5874911 2.8233826 3.8671661 3.366972 3.2871094 4.0644531 L 2.9589844 3.8769531 A 1 1 0 0 0 1.5957031 4.2519531 A 1 1 0 0 0 1.96875 5.6152344 L 2.2792969 5.7929688 C 1.9625064 6.6294403 1.845762 7.5084706 1.9296875 8.4316406 L 1.7441406 8.4804688 A 1 1 0 0 0 1.0332031 9.7011719 A 1 1 0 0 0 2.2558594 10.414062 L 2.4492188 10.363281 C 2.5209654 10.5172 2.5853061 10.675268 2.6523438 10.832031 C 1.631708 11.867782 1 13.267562 1 14.833984 C 1 16.768307 1.9495489 18.496218 3.40625 19.572266 A 1 1 0 0 0 4.8046875 19.363281 A 1 1 0 0 0 4.59375 17.964844 C 3.6215511 17.246692 3 16.117262 3 14.833984 C 3 13.620497 3.5564323 12.537942 4.4375 11.820312 A 1 1 0 0 0 4.4863281 11.785156 A 1 1 0 0 0 4.5332031 11.746094 C 5.1159955 11.300409 5.8307699 11.008787 6.6132812 10.935547 C 6.7402332 10.923667 6.8693853 10.917969 7 10.917969 C 7.9091305 10.917969 8.737188 11.210743 9.40625 11.705078 A 1 1 0 0 0 10.804688 11.494141 A 1 1 0 0 0 10.595703 10.095703 C 9.8006668 9.5082918 8.825918 9.1861566 7.796875 9.046875 C 8.3875287 7.2963805 9.9948414 6 12 6 C 14.506108 6 16.5 7.9704177 16.5 10.408203 C 16.5 10.542789 16.494402 10.677223 16.482422 10.808594 L 16.482422 10.810547 C 16.398912 11.716991 16.036354 12.542344 15.476562 13.208984 A 1 1 0 0 0 15.599609 14.617188 A 1 1 0 0 0 17.007812 14.494141 C 17.593827 13.796272 17.963868 12.942825 18.208984 12.039062 C 19.801952 12.366628 21 13.676377 21 15.326172 C 21 16.819837 20.032626 18.081718 18.671875 18.554688 A 1 1 0 0 0 18.054688 19.828125 A 1 1 0 0 0 19.328125 20.445312 C 21.462974 19.703283 23 17.686307 23 15.326172 C 23 12.660081 20.995434 10.541975 18.433594 10.087891 C 18.267366 6.9676942 15.86889 4.4196434 12.783203 4.046875 A 1 1 0 0 0 12.773438 4.0351562 C 12.512361 3.7167242 12.09156 3.6111035 11.775391 3.3535156 L 12.003906 2.9628906 A 1 1 0 0 0 11.646484 1.59375 A 1 1 0 0 0 10.277344 1.953125 L 10.121094 2.2207031 C 9.2509611 1.8950157 8.3297324 1.7725803 7.3671875 1.8652344 L 7.3320312 1.7382812 A 1 1 0 0 0 6.3632812 1 z M 8.1230469 3.7734375 C 8.8045196 3.7981697 9.4594125 3.9868404 10.035156 4.3085938 C 7.8530829 5.0152401 6.2039523 6.8681982 5.7265625 9.1445312 C 5.1936444 9.2619887 4.6849499 9.4470726 4.2128906 9.6894531 C 4.0935093 9.4519995 3.9965089 9.1987126 3.9238281 8.9316406 C 3.6261343 7.8377283 3.8030793 6.7353359 4.3320312 5.8300781 A 1 1 0 0 0 4.3457031 5.8183594 A 1 1 0 0 0 4.34375 5.8105469 C 4.8767168 4.9102777 5.7598695 4.2073397 6.8789062 3.9121094 C 7.2962742 3.8019978 7.7141632 3.7585982 8.1230469 3.7734375 z M 9.1386719 14.001953 A 1 1 0 0 0 8.2441406 14.449219 L 6.4707031 17.132812 C 6.3519685 17.312439 6.2470016 17.454525 6.140625 17.681641 C 6.0342484 17.908756 5.9135418 18.405957 6.1386719 18.830078 C 6.363614 19.254157 6.8504771 19.433544 7.0996094 19.470703 C 7.3487416 19.507863 7.5242012 19.5 7.7382812 19.5 L 8.3769531 19.5 L 7.0878906 21.449219 A 1 1 0 0 0 7.3710938 22.833984 A 1 1 0 0 0 8.7558594 22.550781 L 10.529297 19.867188 C 10.648039 19.687551 10.753 19.545509 10.859375 19.318359 C 10.96575 19.091209 11.086098 18.593879 10.861328 18.169922 C 10.636154 17.745803 10.149433 17.564463 9.9003906 17.527344 C 9.6513479 17.490225 9.4757987 17.5 9.2617188 17.5 L 8.6230469 17.5 L 9.9121094 15.550781 A 1 1 0 0 0 9.6289062 14.166016 A 1 1 0 0 0 9.1386719 14.001953 z M 12.939453 19.001953 A 1 1 0 0 0 12.683594 19.050781 A 1 1 0 0 0 12.105469 19.552734 L 11.105469 21.552734 A 1 1 0 0 0 11.552734 22.894531 A 1 1 0 0 0 12.894531 22.447266 L 13.894531 20.447266 A 1 1 0 0 0 13.447266 19.105469 A 1 1 0 0 0 12.939453 19.001953 z M 15.939453 19.001953 A 1 1 0 0 0 15.105469 19.552734 L 14.105469 21.552734 A 1 1 0 0 0 14.552734 22.894531 A 1 1 0 0 0 15.894531 22.447266 L 16.894531 20.447266 A 1 1 0 0 0 16.447266 19.105469 A 1 1 0 0 0 15.939453 19.001953 z " fill="currentColor"/>
</svg>
