<svg xmlns="http://www.w3.org/2000/svg" width="1em" height="1em" viewBox="0 0 24 24" fill="currentColor">
  <path d="M 6.3632812 1 A 1 1 0 0 0 6.1035156 1.0351562 A 1 1 0 0 0 5.4023438 2.2617188 L 5.4472656 2.4316406 C 4.5874911 2.8233826 3.8671661 3.366972 3.2871094 4.0644531 L 2.9589844 3.8769531 A 1 1 0 0 0 1.5957031 4.2519531 A 1 1 0 0 0 1.96875 5.6152344 L 2.2792969 5.7929688 C 1.9625064 6.6294403 1.845762 7.5084706 1.9296875 8.4316406 L 1.7441406 8.4804688 A 1 1 0 0 0 1.0332031 9.7011719 A 1 1 0 0 0 2.2558594 10.414062 L 2.4492188 10.363281 C 2.5325621 10.542078 2.6066374 10.726962 2.6855469 10.908203 C 1.6448246 11.963321 1 13.397225 1 15 C 1 17.892408 3.0389637 20.394423 5.8007812 20.955078 A 1 1 0 0 0 6.9804688 20.173828 A 1 1 0 0 0 6.1992188 18.996094 C 4.3965564 18.630149 3 16.945592 3 15 C 3 12.909072 4.5837585 11.210919 6.6152344 11.017578 C 6.741811 11.005549 6.8699623 11 7 11 C 7.9054769 11 8.7311287 11.296017 9.4003906 11.798828 A 1 1 0 0 0 10.800781 11.601562 A 1 1 0 0 0 10.601562 10.201172 C 9.8047412 9.6025265 8.8255551 9.2719669 7.7910156 9.1308594 C 8.3767134 7.32872 9.9929908 6 12 6 C 14.497167 6 16.5 8.002862 16.5 10.5 C 16.5 10.638549 16.494602 10.775005 16.482422 10.910156 C 16.398622 11.839404 16.034407 12.683087 15.472656 13.363281 A 1 1 0 0 0 15.605469 14.771484 A 1 1 0 0 0 17.013672 14.636719 C 17.600127 13.926613 17.969331 13.06019 18.212891 12.142578 C 19.798645 12.477948 21 13.808659 21 15.5 C 21 17.326885 19.64982 18.822264 17.896484 19.005859 A 1 1 0 0 0 17.005859 20.103516 A 1 1 0 0 0 18.103516 20.994141 C 20.87498 20.703936 23 18.323315 23 15.5 C 23 12.806105 21.003111 10.652055 18.4375 10.189453 C 18.278649 7.0248072 15.880533 4.4259691 12.783203 4.046875 A 1 1 0 0 0 12.773438 4.0351562 C 12.512361 3.7167242 12.09156 3.6111035 11.775391 3.3535156 L 12.003906 2.9628906 A 1 1 0 0 0 11.646484 1.59375 A 1 1 0 0 0 10.277344 1.953125 L 10.121094 2.2207031 C 9.2509611 1.8950157 8.3297324 1.7725803 7.3671875 1.8652344 L 7.3320312 1.7382812 A 1 1 0 0 0 6.3632812 1 z M 8.125 3.7734375 C 8.8075658 3.7985437 9.4627732 3.9875341 10.039062 4.3105469 C 7.8470774 5.028195 6.19619 6.9184227 5.7226562 9.2304688 C 5.2049975 9.3464537 4.7119006 9.5262021 4.2519531 9.7617188 C 4.1152921 9.5031935 4.0040227 9.226323 3.9238281 8.9316406 C 3.6261343 7.8377283 3.8030793 6.7353359 4.3320312 5.8300781 A 1 1 0 0 0 4.3457031 5.8183594 A 1 1 0 0 0 4.34375 5.8105469 C 4.8767168 4.9102777 5.7598695 4.2073397 6.8789062 3.9121094 C 7.2969774 3.8018123 7.7154605 3.7583738 8.125 3.7734375 z M 12.638672 14.001953 A 1 1 0 0 0 11.744141 14.449219 L 9.9707031 17.132812 C 9.8519471 17.312472 9.7469918 17.454462 9.640625 17.681641 C 9.5342582 17.90882 9.4135193 18.406087 9.6386719 18.830078 C 9.8635266 19.254396 10.350465 19.433542 10.599609 19.470703 C 10.848753 19.507863 11.024181 19.5 11.238281 19.5 L 11.876953 19.5 L 10.587891 21.449219 A 1 1 0 0 0 10.871094 22.833984 A 1 1 0 0 0 12.255859 22.550781 L 14.029297 19.867188 C 14.148053 19.687528 14.253002 19.545578 14.359375 19.318359 C 14.465748 19.09114 14.586188 18.593762 14.361328 18.169922 C 14.136241 17.745564 13.649445 17.564465 13.400391 17.527344 C 13.151336 17.490223 12.975819 17.5 12.761719 17.5 L 12.123047 17.5 L 13.412109 15.550781 A 1 1 0 0 0 13.128906 14.166016 A 1 1 0 0 0 12.638672 14.001953 z " fill="currentColor"/>
</svg>
