<svg xmlns="http://www.w3.org/2000/svg" width="1em" height="1em" viewBox="0 0 24 24" fill="currentColor">
  <path d="M 6.3632812 1 A 1 1 0 0 0 6.1035156 1.0351562 A 1 1 0 0 0 5.4023438 2.2617188 L 5.4472656 2.4316406 C 4.5874911 2.8233826 3.8671661 3.366972 3.2871094 4.0644531 L 2.9589844 3.8769531 A 1 1 0 0 0 1.5957031 4.2519531 A 1 1 0 0 0 1.96875 5.6152344 L 2.2792969 5.7929688 C 1.9625064 6.6294403 1.845762 7.5084706 1.9296875 8.4316406 L 1.7441406 8.4804688 A 1 1 0 0 0 1.0332031 9.7011719 A 1 1 0 0 0 2.2558594 10.414062 L 2.4492188 10.363281 C 2.533797 10.544728 2.6092306 10.732206 2.6894531 10.916016 C 1.6466311 11.972524 1 13.409443 1 15.015625 C 1 17.230783 2.3054638 18.892316 4.0019531 19.867188 A 1 1 0 0 0 5.3671875 19.498047 A 1 1 0 0 0 4.9980469 18.132812 C 3.7055362 17.390085 3 16.507467 3 15.015625 C 3 12.920034 4.5845105 11.21898 6.6152344 11.025391 C 6.741811 11.013362 6.8699623 11.007811 7 11.007812 C 7.7322531 11.007812 8.4099594 11.202237 8.9980469 11.542969 A 1 1 0 0 0 10.365234 11.179688 A 1 1 0 0 0 10.001953 9.8125 C 9.3455292 9.4321752 8.5523896 9.3229765 7.7695312 9.2148438 C 8.3317295 7.368829 9.9649868 6 12 6 C 14.496346 6 16.5 8.0053039 16.5 10.507812 C 16.5 10.646714 16.494602 10.784535 16.482422 10.919922 C 16.415032 11.668213 16.1658 12.359716 15.779297 12.957031 A 1 1 0 0 0 16.076172 14.339844 A 1 1 0 0 0 17.458984 14.042969 C 17.820935 13.483598 17.939515 12.793472 18.117188 12.132812 C 19.750962 12.431474 21 13.786227 21 15.515625 C 21 16.829529 20.308748 17.482687 19.056641 18.103516 A 1 1 0 0 0 18.603516 19.443359 A 1 1 0 0 0 19.943359 19.896484 C 21.542652 19.103513 23 17.658321 23 15.515625 C 23 12.819151 21.003554 10.66253 18.4375 10.199219 C 18.279717 7.0301297 15.881826 4.4265326 12.783203 4.046875 A 1 1 0 0 0 12.773438 4.0351562 C 12.512361 3.7167242 12.09156 3.6111035 11.775391 3.3535156 L 12.003906 2.9628906 A 1 1 0 0 0 11.646484 1.59375 A 1 1 0 0 0 10.277344 1.953125 L 10.121094 2.2207031 C 9.2509611 1.8950157 8.3297324 1.7725803 7.3671875 1.8652344 L 7.3320312 1.7382812 A 1 1 0 0 0 6.3632812 1 z M 8.1269531 3.7734375 C 8.8096366 3.7985841 9.4646678 3.9873984 10.041016 4.3105469 C 7.8478174 5.0294546 6.1954036 6.9242165 5.7226562 9.2402344 C 5.2066188 9.3560601 4.7145559 9.534855 4.2558594 9.7695312 C 4.1171872 9.5086613 4.0048739 9.2294506 3.9238281 8.9316406 C 3.6261343 7.8377283 3.8030793 6.7353359 4.3320312 5.8300781 A 1 1 0 0 0 4.3457031 5.8183594 A 1 1 0 0 0 4.34375 5.8105469 C 4.8767168 4.9102777 5.7598695 4.2073397 6.8789062 3.9121094 C 7.297053 3.8017923 7.7173431 3.7583496 8.1269531 3.7734375 z M 12.005859 12.001953 A 1.0001 1.0001 0 0 0 11.369141 12.261719 L 10.232422 13.296875 A 1.0001 1.0001 0 0 0 10.191406 13.337891 C 9.2712944 14.279182 9.2797801 15.837974 10.238281 16.769531 C 10.728138 17.245438 11.36196 17.5 12.042969 17.5 C 12.677735 17.5 13.289277 17.24382 13.726562 16.861328 A 1.0001 1.0001 0 0 0 13.765625 16.824219 C 14.73621 15.881086 14.73621 14.290789 13.765625 13.347656 L 12.763672 12.306641 A 1.0001 1.0001 0 0 0 12.005859 12.001953 z M 11.998047 14.394531 L 12.347656 14.757812 A 1.0001 1.0001 0 0 0 12.371094 14.78125 C 12.547275 14.952448 12.535982 15.195148 12.371094 15.371094 C 12.260919 15.461677 12.196661 15.5 12.042969 15.5 C 11.917378 15.5 11.719364 15.41807 11.632812 15.333984 C 11.43955 15.146156 11.450041 14.914805 11.623047 14.736328 L 11.623047 14.734375 L 11.998047 14.394531 z M 8.5058594 17.501953 A 1.0001 1.0001 0 0 0 7.8691406 17.761719 L 6.7324219 18.796875 A 1.0001 1.0001 0 0 0 6.6914062 18.837891 C 5.7712679 19.779192 5.7797614 21.337993 6.7382812 22.269531 C 7.2281437 22.7456 7.8619411 23 8.5429688 23 C 9.177714 23 9.7892577 22.743823 10.226562 22.361328 A 1.0001 1.0001 0 0 0 10.265625 22.324219 C 11.23617 21.381075 11.23617 19.7908 10.265625 18.847656 L 9.2636719 17.806641 A 1.0001 1.0001 0 0 0 8.5058594 17.501953 z M 15.505859 17.501953 A 1.0001 1.0001 0 0 0 14.869141 17.761719 L 13.732422 18.796875 A 1.0001 1.0001 0 0 0 13.691406 18.837891 C 12.771294 19.779182 12.77978 21.337974 13.738281 22.269531 C 14.228138 22.745438 14.86196 23 15.542969 23 C 16.177735 23 16.789277 22.74382 17.226562 22.361328 A 1.0001 1.0001 0 0 0 17.265625 22.324219 C 18.23621 21.381086 18.23621 19.790789 17.265625 18.847656 L 16.263672 17.806641 A 1.0001 1.0001 0 0 0 15.505859 17.501953 z M 8.4980469 19.894531 L 8.8476562 20.257812 A 1.0001 1.0001 0 0 0 8.8710938 20.28125 C 9.0472552 20.452438 9.0359629 20.695154 8.8710938 20.871094 C 8.7609095 20.961678 8.6965905 21 8.5429688 21 C 8.4172762 21 8.2191705 20.917911 8.1328125 20.833984 C 7.9395239 20.646137 7.950013 20.414795 8.1230469 20.236328 L 8.1230469 20.234375 L 8.4980469 19.894531 z M 15.498047 19.894531 L 15.847656 20.257812 A 1.0001 1.0001 0 0 0 15.871094 20.28125 C 16.047275 20.452448 16.035982 20.695148 15.871094 20.871094 C 15.760919 20.961678 15.696661 21 15.542969 21 C 15.417378 21 15.219364 20.91807 15.132812 20.833984 C 14.93955 20.646156 14.950041 20.414805 15.123047 20.236328 L 15.123047 20.234375 L 15.498047 19.894531 z " fill="currentColor"/>
</svg>
