<svg xmlns="http://www.w3.org/2000/svg" width="1em" height="1em" viewBox="0 0 24 24" fill="currentColor">
  <path d="M 5.84375 1 C 3.1785769 1 1 3.1887429 1 5.8574219 C 1 7.1822504 1.5333551 8.3925657 2.3984375 9.2714844 C 1.5268117 10.296396 1 11.616122 1 13.074219 C 1 15.351794 2.2603828 17.351005 4.1269531 18.376953 A 1 1 0 0 0 5.484375 17.982422 A 1 1 0 0 0 5.0898438 16.623047 C 3.847854 15.940395 3 14.615444 3 13.074219 C 3 10.960122 4.5874709 9.2510515 6.6152344 9.0566406 C 6.741436 9.0445434 6.8701271 9.0371094 7 9.0371094 C 7.9038366 9.0371094 8.7271242 9.3351315 9.3964844 9.8417969 A 1 1 0 0 0 10.796875 9.6484375 A 1 1 0 0 0 10.603516 8.2480469 C 9.8055507 7.6440358 8.824648 7.3097169 7.7871094 7.1679688 C 8.3706166 5.3424248 9.9923023 4 12 4 C 14.493118 4 16.5 6.0171219 16.5 8.5410156 C 16.5 8.6803558 16.494502 8.819105 16.482422 8.9550781 L 16.482422 8.9570312 C 16.398032 9.8955297 16.030829 10.74792 15.46875 11.433594 A 1 1 0 0 0 15.609375 12.839844 A 1 1 0 0 0 17.015625 12.701172 C 17.602294 11.985507 17.97198 11.113414 18.214844 10.189453 C 19.797208 10.528486 21 11.868211 21 13.578125 C 21 14.976861 20.248298 16.00684 19.052734 16.605469 A 1 1 0 0 0 18.605469 17.947266 A 1 1 0 0 0 19.947266 18.394531 C 21.715102 17.50936 23 15.739589 23 13.578125 C 23 10.871927 21.006258 8.7031965 18.439453 8.2363281 C 18.271686 4.7873852 15.474679 2 12 2 C 11.070198 2 10.192217 2.201931 9.4023438 2.5625 C 8.5163788 1.6026898 7.2450731 1 5.84375 1 z M 5.84375 3 C 6.5614964 3 7.209467 3.2618208 7.7070312 3.6972656 C 6.7112096 4.6259945 6.0035626 5.8722594 5.7207031 7.2695312 C 5.0840658 7.4133075 4.4829835 7.6540979 3.9375 7.9765625 C 3.3615173 7.4553353 3 6.7053221 3 5.8574219 C 3 4.2660009 4.2630831 3 5.84375 3 z M 12.001953 13.5 A 1 1 0 0 0 11.001953 14.5 L 11.001953 16 A 1 1 0 0 0 12.001953 17 A 1 1 0 0 0 13.001953 16 L 13.001953 14.5 A 1 1 0 0 0 12.001953 13.5 z M 9 16.5 A 1 1 0 0 0 8 17.5 L 8 19 A 1 1 0 0 0 9 20 A 1 1 0 0 0 10 19 L 10 17.5 A 1 1 0 0 0 9 16.5 z M 15 16.5 A 1 1 0 0 0 14 17.5 L 14 19 A 1 1 0 0 0 15 20 A 1 1 0 0 0 16 19 L 16 17.5 A 1 1 0 0 0 15 16.5 z M 6.5 19.5 A 1 1 0 0 0 5.5 20.5 L 5.5 22 A 1 1 0 0 0 6.5 23 A 1 1 0 0 0 7.5 22 L 7.5 20.5 A 1 1 0 0 0 6.5 19.5 z M 12 19.5 A 1 1 0 0 0 11 20.5 L 11 22 A 1 1 0 0 0 12 23 A 1 1 0 0 0 13 22 L 13 20.5 A 1 1 0 0 0 12 19.5 z M 17.5 19.5 A 1 1 0 0 0 16.5 20.5 L 16.5 22 A 1 1 0 0 0 17.5 23 A 1 1 0 0 0 18.5 22 L 18.5 20.5 A 1 1 0 0 0 17.5 19.5 z " fill="currentColor"/>
</svg>
