<svg xmlns="http://www.w3.org/2000/svg" width="1em" height="1em" viewBox="0 0 24 24" fill="currentColor">
  <path d="M 6.171875 1 A 1 1 0 0 0 5.9121094 1.0351562 A 1 1 0 0 0 5.2128906 2.265625 L 5.2285156 2.3222656 C 4.5043696 2.663255 3.8946363 3.1197428 3.390625 3.7011719 L 3.15625 3.5703125 A 1 1 0 0 0 1.7949219 3.9511719 A 1 1 0 0 0 2.1757812 5.3125 L 2.3769531 5.4257812 C 2.1218377 6.1289643 2.0258932 6.8589197 2.0820312 7.6289062 L 1.9960938 7.6523438 A 1 1 0 0 0 1.2792969 8.8710938 A 1 1 0 0 0 2.5 9.5878906 L 2.6054688 9.5605469 C 2.7061667 9.7653195 2.7888297 9.9820872 2.8867188 10.1875 C 2.1762692 11.07651 1.7567055 12.175478 1.7441406 13.369141 A 1.0001 1.0001 0 0 0 1.7460938 13.4375 C 1.8313607 14.894144 2.429206 16.030169 3.1914062 16.804688 C 3.9536065 17.579207 4.8470146 18.021663 5.5605469 18.322266 A 1.0001 1.0001 0 0 0 5.5820312 18.330078 C 9.3150848 19.796635 13.264948 18.901474 14.847656 16.369141 A 1.0001 1.0001 0 0 0 14.917969 16.238281 C 15.646894 14.556147 14.50485 12.72908 12.820312 12.414062 C 12.138628 12.251347 11.429134 12.346733 10.728516 12.748047 C 10.018125 13.154958 9.3816316 14.009308 9.3515625 15.091797 A 1 1 0 0 0 10.324219 16.119141 A 1 1 0 0 0 11.351562 15.148438 C 11.363492 14.718925 11.495547 14.61251 11.722656 14.482422 C 11.949766 14.352333 12.33559 14.342198 12.365234 14.349609 A 1.0001 1.0001 0 0 0 12.443359 14.367188 C 12.869037 14.438137 13.21386 14.935809 13.074219 15.380859 C 12.189497 16.649834 9.2493552 17.615102 6.3242188 16.470703 C 5.7215345 16.215836 5.0876979 15.880458 4.6171875 15.402344 C 4.1523325 14.929976 3.8200517 14.338573 3.7519531 13.369141 C 3.7822976 11.60846 5.087373 10.122312 7.1542969 9.9355469 C 7.2638549 9.9256469 7.4326035 9.9185298 7.5625 9.9179688 L 7.5644531 9.9179688 C 8.474092 9.9358248 9.2011175 10.239536 9.796875 10.636719 A 1 1 0 0 0 11.183594 10.359375 A 1 1 0 0 0 10.90625 8.9726562 C 10.232929 8.5237633 9.3420724 8.199857 8.34375 8.0488281 C 8.9091527 6.5742136 10.377826 5.5 12.308594 5.5 C 14.591168 5.5 16.465712 7.2587673 16.484375 9.34375 L 16.484375 9.3457031 C 16.484163 9.4549699 16.47758 9.5628904 16.46875 9.6699219 C 16.312835 10.654775 16.134877 11.077992 15.5 11.839844 A 1 1 0 0 0 15.626953 13.248047 A 1 1 0 0 0 17.037109 13.121094 C 17.605547 12.438969 17.93251 11.717863 18.171875 10.941406 C 19.734055 11.245343 20.747829 12.460292 20.75 13.796875 C 20.73867 14.877857 20.248358 15.575505 19.566406 16.082031 C 18.882955 16.589672 17.967408 16.806231 17.539062 16.775391 A 1 1 0 0 0 16.470703 17.699219 A 1 1 0 0 0 17.396484 18.769531 C 18.46814 18.846691 19.682217 18.48786 20.759766 17.6875 C 21.837314 16.88714 22.737188 15.543532 22.751953 13.808594 A 1.0001 1.0001 0 0 0 22.751953 13.800781 C 22.751953 11.430142 20.910575 9.4278317 18.408203 8.9921875 C 18.184976 5.9106449 15.50196 3.5 12.308594 3.5 C 12.12571 3.5 11.944205 3.5070123 11.765625 3.5214844 C 11.575495 3.4012132 11.358786 3.3160308 11.183594 3.1699219 L 11.333984 2.9160156 A 1 1 0 0 0 10.984375 1.546875 A 1 1 0 0 0 9.6132812 1.8964844 L 9.5234375 2.046875 C 8.790465 1.7873282 7.9919238 1.845376 7.1875 1.9023438 L 7.1425781 1.734375 A 1 1 0 0 0 6.171875 1 z M 7.7617188 3.6855469 C 8.3636202 3.7085727 8.9408285 3.8760148 9.4472656 4.1582031 C 7.8484104 4.9489808 6.67087 6.389741 6.2792969 8.1347656 C 5.5893408 8.282205 4.9492801 8.5386906 4.3808594 8.8828125 C 4.2525239 8.6490463 4.1500598 8.3970653 4.0761719 8.1289062 C 3.8151906 7.1817304 3.9702477 6.2275144 4.4394531 5.4453125 A 1 1 0 0 0 4.4492188 5.4433594 A 1 1 0 0 0 4.4511719 5.4335938 C 4.917025 4.6652369 5.683771 4.0615678 6.6621094 3.8066406 C 7.0309732 3.7105263 7.4005779 3.6717314 7.7617188 3.6855469 z M 14.863281 18 C 14.384046 18 13.929786 18.153467 13.560547 18.40625 A 1.0001 1.0001 0 0 0 13.527344 18.429688 C 12.612083 19.112426 10.751683 20.072371 8.7460938 20.308594 A 1 1 0 0 0 7.8710938 21.417969 A 1 1 0 0 0 8.9804688 22.294922 C 11.423328 22.007193 13.478067 20.952289 14.689453 20.056641 L 14.703125 20.046875 C 14.755561 20.013889 14.804864 20 14.863281 20 C 15.042479 20 15.248047 20.170473 15.248047 20.5 C 15.248047 20.829527 15.042479 21 14.863281 21 C 14.825501 21 14.793271 20.993299 14.759766 20.980469 A 1 1 0 0 0 13.46875 21.556641 A 1 1 0 0 0 14.044922 22.847656 C 14.300016 22.945415 14.57746 23 14.863281 23 C 16.213483 23 17.248047 21.827273 17.248047 20.5 C 17.248047 19.172727 16.213483 18 14.863281 18 z M 4.1894531 19.548828 A 1 1 0 0 0 3.9335938 19.597656 A 1 1 0 0 0 3.3554688 20.097656 A 1 1 0 0 0 3.7988281 21.441406 C 4.487303 21.787866 5.1905382 22.024958 5.8886719 22.171875 A 1 1 0 0 0 7.0722656 21.400391 A 1 1 0 0 0 6.3007812 20.214844 C 5.7624749 20.101561 5.2261307 19.920437 4.6972656 19.654297 A 1 1 0 0 0 4.1894531 19.548828 z M 19.248047 20 A 1 1 0 0 0 18.248047 21 A 1 1 0 0 0 19.248047 22 L 21.248047 22 A 1 1 0 0 0 22.248047 21 A 1 1 0 0 0 21.248047 20 L 19.248047 20 z " fill="currentColor"/>
</svg>
