<svg xmlns="http://www.w3.org/2000/svg" width="1em" height="1em" viewBox="0 0 24 24" fill="currentColor">
  <path d="M 12 2 C 11.321567 2 10.75 2.5716244 10.75 3.25 C 10.75 3.9283756 11.321567 4.5 12 4.5 C 12.678433 4.5 13.25 3.9283756 13.25 3.25 C 13.25 2.5716244 12.678433 2 12 2 z M 5.8125 4.5683594 C 5.4905041 4.5683594 5.1695775 4.6897975 4.9296875 4.9296875 C 4.4499074 5.4094676 4.4499074 6.2174856 4.9296875 6.6972656 C 5.4094676 7.1770457 6.2174856 7.1770457 6.6972656 6.6972656 C 7.1770457 6.2174856 7.1770457 5.4094676 6.6972656 4.9296875 C 6.4573756 4.6897975 6.1344959 4.5683594 5.8125 4.5683594 z M 18.1875 4.5683594 C 17.865529 4.5683422 17.542603 4.6880377 17.302734 4.9277344 A 1.0001 1.0001 0 0 0 17.302734 4.9296875 C 16.823043 5.4095263 16.823043 6.2174269 17.302734 6.6972656 C 17.782472 7.176659 18.59048 7.177246 19.070312 6.6972656 C 19.550005 6.2174269 19.550005 5.4095263 19.070312 4.9296875 C 18.830396 4.6897004 18.509471 4.5683765 18.1875 4.5683594 z M 12 6 C 8.6981222 6 6 8.6981382 6 12 C 6 15.301846 8.6981173 18 12 18 C 15.30185 18 18 15.30185 18 12 C 18 8.6981334 15.301846 6 12 6 z M 12 8 C 14.220954 8 16 9.7790266 16 12 C 16 14.22095 14.22095 16 12 16 C 9.7790027 16 8 14.220954 8 12 C 8 9.7790218 9.7789978 8 12 8 z M 3.25 10.75 C 2.5716244 10.75 2 11.321567 2 12 C 2 12.678433 2.5716244 13.25 3.25 13.25 C 3.9283756 13.25 4.5 12.678433 4.5 12 C 4.5 11.321567 3.9283756 10.75 3.25 10.75 z M 20.75 10.75 C 20.071712 10.75 19.5 11.321712 19.5 12 C 19.5 12.678288 20.071712 13.25 20.75 13.25 C 21.428288 13.25 22 12.678288 22 12 C 22 11.321712 21.428288 10.75 20.75 10.75 z M 5.8125 16.943359 C 5.4903467 16.943359 5.1675679 17.062729 4.9277344 17.302734 C 4.447754 17.782567 4.447754 18.59048 4.9277344 19.070312 C 5.4075973 19.550028 6.2154496 19.550028 6.6953125 19.070312 C 7.1752929 18.590481 7.1752929 17.782567 6.6953125 17.302734 C 6.4554789 17.062729 6.1346533 16.943359 5.8125 16.943359 z M 18.1875 16.943359 C 17.865545 16.943359 17.54268 17.062789 17.302734 17.302734 C 16.822547 17.78243 16.823134 18.590712 17.302734 19.070312 C 17.782626 19.550204 18.590421 19.550204 19.070312 19.070312 C 19.549618 18.590518 19.550204 17.782626 19.070312 17.302734 C 18.830367 17.062789 18.509455 16.943359 18.1875 16.943359 z M 12 19.5 C 11.321712 19.5 10.75 20.071712 10.75 20.75 C 10.75 21.428288 11.321712 22 12 22 C 12.678288 22 13.25 21.428288 13.25 20.75 C 13.25 20.071712 12.678288 19.5 12 19.5 z " fill="currentColor"/>
</svg>
