<svg xmlns="http://www.w3.org/2000/svg" width="1em" height="1em" viewBox="0 0 24 24" fill="currentColor">
  <path d="M 12 3 A 1 1 0 0 0 11.283203 3.3164062 C 11.12142 3.4163053 10.865263 3.4471158 10.734375 3.5585938 C 10.432533 3.8156744 10.164003 4.1121823 9.9082031 4.4140625 C 9.3966035 5.0178228 8.8801033 5.7030408 8.7832031 5.8027344 A 1 1 0 0 0 8.8027344 7.2167969 A 1 1 0 0 0 10.216797 7.1972656 C 10.470296 6.9364579 10.737929 6.5779371 11 6.2402344 L 11 10 A 1 1 0 0 0 12 11 A 1 1 0 0 0 13 10 L 13 6.2402344 C 13.26207 6.5779346 13.529733 6.9364726 13.783203 7.1972656 A 1 1 0 0 0 15.197266 7.2167969 A 1 1 0 0 0 15.216797 5.8027344 C 15.119882 5.7030186 14.603402 5.0178246 14.091797 4.4140625 C 13.835994 4.1121814 13.567469 3.8156738 13.265625 3.5585938 C 12.963781 3.3015136 12.649748 3 12 3 z M 5.6367188 9.6347656 A 1 1 0 0 0 4.9296875 9.9277344 A 1 1 0 0 0 4.9296875 11.341797 L 6.34375 12.757812 A 1 1 0 0 0 7.7578125 12.757812 A 1 1 0 0 0 7.7578125 11.341797 L 6.34375 9.9277344 A 1 1 0 0 0 5.6367188 9.6347656 z M 18.363281 9.6347656 A 1 1 0 0 0 17.65625 9.9277344 L 16.242188 11.34375 A 1 1 0 0 0 16.242188 12.757812 A 1 1 0 0 0 17.65625 12.757812 L 19.070312 11.34375 A 1 1 0 0 0 19.070312 9.9277344 A 1 1 0 0 0 18.363281 9.6347656 z M 12 12 C 9.2504084 12 7 14.250451 7 17 A 1 1 0 0 0 8 18 A 1 1 0 0 0 9 17 C 9 15.331349 10.331312 14 12 14 C 13.668639 14 15 15.331361 15 17 A 1 1 0 0 0 16 18 A 1 1 0 0 0 17 17 C 17 14.250439 14.749561 12 12 12 z M 3 16 A 1 1 0 0 0 2 17 A 1 1 0 0 0 3 18 L 5 18 A 1 1 0 0 0 6 17 A 1 1 0 0 0 5 16 L 3 16 z M 19 16 A 1 1 0 0 0 18 17 A 1 1 0 0 0 19 18 L 21 18 A 1 1 0 0 0 22 17 A 1 1 0 0 0 21 16 L 19 16 z M 3 19 A 1 1 0 0 0 2 20 A 1 1 0 0 0 3 21 L 21 21 A 1 1 0 0 0 22 20 A 1 1 0 0 0 21 19 L 3 19 z " fill="currentColor"/>
</svg>
