<svg xmlns="http://www.w3.org/2000/svg" width="1em" height="1em" viewBox="0 0 24 24" fill="currentColor">
  <path d="M 12 1 C 5.9367104 1 1 5.9367104 1 12 C 1 12.247945 1.0095741 12.5 1.0292969 12.755859 A 1 1 0 0 0 1 12.966797 A 1 1 0 0 0 1.1074219 13.449219 C 1.4175636 15.555732 2.4205709 17.724387 4.3671875 18.796875 C 4.6677503 19.838096 5.197272 20.864114 6.1660156 21.621094 C 7.5732815 22.720697 9.7624625 22.999405 11.996094 23 C 14.229725 23.000595 16.420428 22.722626 17.830078 21.621094 C 18.79506 20.86707 19.331471 19.84329 19.634766 18.796875 C 21.579966 17.72395 22.582569 15.554967 22.892578 13.449219 A 1 1 0 0 0 23 12.966797 A 1 1 0 0 0 22.970703 12.755859 C 22.990428 12.499986 23 12.247959 23 12 C 23 5.9367044 18.063244 1 12 1 z M 11.568359 3.0253906 C 9.571998 3.2434028 8 4.9488326 8 7 C 8 9.1972944 9.8027056 11 12 11 C 14.197294 11 16 9.1972944 16 7 C 16 4.9488349 14.427999 3.2434059 12.431641 3.0253906 C 15.215862 3.1572581 17.667017 4.5307241 19.224609 6.6230469 C 18.818163 6.9628313 18.503693 7.4047408 18.302734 7.8886719 C 17.937119 8.7691173 17.899334 9.8032713 18.203125 10.826172 C 18.612792 12.205433 19.561031 13.331993 20.759766 13.785156 C 20.565461 14.528954 20.25898 15.250096 19.867188 15.845703 C 19.740648 15.558385 19.541 15.354751 19.369141 15.207031 C 17.586614 13.674876 15.021915 13.001581 12.382812 13 C 9.7430747 12.9984 6.9996287 13.679734 4.828125 15.123047 C 4.6074233 15.269755 4.3429184 15.471559 4.1679688 15.816406 C 4.1598341 15.832441 4.1519568 15.849132 4.1445312 15.865234 C 3.7468605 15.266176 3.4365894 14.536616 3.2402344 13.785156 C 4.4396604 13.332171 5.3894032 12.20565 5.7988281 10.826172 C 6.1023807 9.8033863 6.0625769 8.7709835 5.6972656 7.890625 C 5.4962907 7.4062982 5.1819206 6.9634898 4.7753906 6.6230469 C 6.3329747 4.5307414 8.784124 3.1572567 11.568359 3.0253906 z M 12 5 C 13.116414 5 14 5.8835859 14 7 C 14 8.1164141 13.116414 9 12 9 C 10.883586 9 10 8.1164141 10 7 C 10 5.8835859 10.883586 5 12 5 z M 3.734375 8.4238281 C 3.7766717 8.4926609 3.8158022 8.5700717 3.8515625 8.65625 C 4.0181612 9.057734 4.0645768 9.6387975 3.8808594 10.257812 C 3.7083946 10.838899 3.3743941 11.292944 3.0097656 11.591797 C 3.0594762 10.469352 3.3124539 9.4013449 3.734375 8.4238281 z M 20.265625 8.4238281 C 20.687364 9.4009879 20.940419 10.469812 20.990234 11.591797 C 20.62549 11.292902 20.291518 10.838172 20.119141 10.257812 C 19.935333 9.6389125 19.981749 9.0576471 20.148438 8.65625 C 20.184185 8.5701662 20.223264 8.4926035 20.265625 8.4238281 z M 12.380859 15 C 14.623153 15.0013 16.704029 15.627739 17.972656 16.673828 C 17.84804 18.011841 17.460061 19.372577 16.599609 20.044922 C 16.015505 20.50139 13.984043 21.00053 11.996094 21 C 10.008145 20.99947 7.9773785 20.498818 7.3964844 20.044922 C 6.5460006 19.380351 6.1776144 18.072643 6.0332031 16.746094 C 7.7815867 15.614876 10.131796 14.998653 12.380859 15 z M 9 16.75 C 8.3216244 16.75 7.75 17.321567 7.75 18 C 7.75 18.678433 8.3216244 19.25 9 19.25 C 9.6783756 19.25 10.25 18.678433 10.25 18 C 10.25 17.321567 9.6783756 16.75 9 16.75 z M 15 16.75 C 14.321712 16.75 13.75 17.321712 13.75 18 C 13.75 18.678288 14.321712 19.25 15 19.25 C 15.678288 19.25 16.25 18.678288 16.25 18 C 16.25 17.321712 15.678288 16.75 15 16.75 z " fill="currentColor"/>
</svg>
