<svg xmlns="http://www.w3.org/2000/svg" width="1em" height="1em" viewBox="0 0 24 24" fill="currentColor">
  <path d="M 12 1 C 6.7652695 1 3.2640617 4.5001709 2.0996094 8.6308594 C 1.9237267 9.254803 1.9914187 9.8916674 2.2148438 10.445312 A 1.0001 1.0001 0 0 0 2.2285156 10.478516 L 2.5507812 11.201172 C 2.0939225 11.398765 1.7125513 11.724735 1.4707031 12.099609 C 1.0735504 12.715212 0.95859383 13.413637 1.0117188 14.080078 C 1.1080728 15.288742 1.4079067 16.471142 2.1328125 17.421875 C 2.7452966 18.225164 3.7469034 18.707053 4.9003906 18.865234 C 6.3715291 21.422277 8.9497129 22.89624 11.964844 23 A 1.0001 1.0001 0 0 0 12.035156 23 C 15.050253 22.896239 17.62843 21.422266 19.099609 18.865234 C 20.25309 18.707052 21.254709 18.22516 21.867188 17.421875 C 22.592088 16.471147 22.891889 15.288728 22.988281 14.080078 C 23.041351 13.413659 22.926441 12.715194 22.529297 12.099609 C 22.287268 11.724453 21.905991 11.398726 21.449219 11.201172 L 21.771484 10.478516 A 1.0001 1.0001 0 0 0 21.785156 10.445312 C 22.008631 9.8916146 22.076168 9.2547147 21.900391 8.6308594 C 20.735896 4.5001758 17.234703 1 12 1 z M 12 3 C 16.369697 3 19.003904 5.7305517 19.974609 9.1738281 C 20.016629 9.3229728 20.007007 9.50568 19.929688 9.6972656 L 19.195312 11.347656 C 18.697311 11.635529 18.303447 12.080486 18.076172 12.597656 A 1.0001 1.0001 0 0 0 18.042969 12.683594 L 17.544922 14.183594 A 1 1 0 0 0 18.177734 15.449219 A 1 1 0 0 0 19.441406 14.816406 L 19.914062 13.398438 C 20.021237 13.16088 20.22958 12.99954 20.490234 13 C 20.739014 13.000445 20.75665 13.0395 20.849609 13.183594 C 20.942569 13.327684 21.017466 13.627041 20.994141 13.919922 C 20.917031 14.886772 20.66074 15.703587 20.275391 16.208984 C 19.890041 16.714381 19.42866 17 18.492188 17 A 1.0001 1.0001 0 0 0 17.597656 17.556641 C 16.50368 19.763237 14.580967 20.890318 12 20.990234 C 9.4189898 20.890318 7.4962705 19.763225 6.4023438 17.556641 A 1.0001 1.0001 0 0 0 5.5078125 17 C 4.5713288 17 4.1099561 16.714377 3.7246094 16.208984 C 3.3392627 15.703592 3.0829351 14.886758 3.0058594 13.919922 C 2.9825143 13.627063 3.0574433 13.327666 3.1503906 13.183594 C 3.2433379 13.039522 3.2609312 13.000446 3.5097656 13 C 3.7704042 12.99954 3.9787437 13.160854 4.0859375 13.398438 L 4.5585938 14.816406 A 1 1 0 0 0 5.8222656 15.449219 A 1 1 0 0 0 6.4550781 14.183594 L 5.9570312 12.683594 A 1.0001 1.0001 0 0 0 5.9238281 12.597656 C 5.6963118 12.079959 5.3028896 11.63551 4.8046875 11.347656 L 4.0703125 9.6972656 C 3.9929774 9.5056302 3.9833733 9.3228845 4.0253906 9.1738281 C 4.9960583 5.7305566 7.6302705 3 12 3 z M 12 4 C 11.027782 3.9999976 10.042121 4.3186841 9.2734375 5.0019531 C 8.5568056 5.6389541 8.070535 6.606917 8.0078125 7.7480469 C 7.0701289 8.1136356 6.1931954 8.6045927 5.4003906 9.1992188 A 1 1 0 0 0 5.1992188 10.599609 A 1 1 0 0 0 6.5996094 10.800781 C 8.1090489 9.668659 9.9719302 9 12 9 C 14.028048 9 15.890994 9.668671 17.400391 10.800781 A 1 1 0 0 0 18.800781 10.599609 A 1 1 0 0 0 18.599609 9.1992188 C 17.806813 8.6045883 16.929873 8.1136346 15.992188 7.7480469 C 15.929484 6.6069237 15.443182 5.6389594 14.726562 5.0019531 C 13.95789 4.3186776 12.972218 4.0000024 12 4 z M 12 6 C 12.527769 6.0000013 13.042125 6.1813202 13.398438 6.4980469 C 13.59364 6.671563 13.754855 6.881284 13.861328 7.1582031 C 13.255531 7.0546054 12.634004 7 12 7 C 11.365993 7 10.744466 7.0546053 10.138672 7.1582031 C 10.245141 6.8812843 10.406351 6.6715662 10.601562 6.4980469 C 10.957888 6.1813156 11.472231 5.9999987 12 6 z M 9 11.75 C 8.3216244 11.75 7.75 12.321567 7.75 13 C 7.75 13.678433 8.3216244 14.25 9 14.25 C 9.6783756 14.25 10.25 13.678433 10.25 13 C 10.25 12.321567 9.6783756 11.75 9 11.75 z M 15 11.75 C 14.321712 11.75 13.75 12.321712 13.75 13 C 13.75 13.678288 14.321712 14.25 15 14.25 C 15.678288 14.25 16.25 13.678288 16.25 13 C 16.25 12.321712 15.678288 11.75 15 11.75 z M 8.9277344 16.001953 A 1 1 0 0 0 8.2441406 16.345703 A 1 1 0 0 0 8.3457031 17.755859 C 8.8447096 18.187602 9.4575685 18.409345 10.216797 18.482422 C 10.771581 18.535822 11.40017 18.390202 12 18.097656 C 12.599827 18.390199 13.228422 18.535821 13.783203 18.482422 C 14.542428 18.409342 15.155305 18.187555 15.654297 17.755859 A 1 1 0 0 0 15.755859 16.345703 A 1 1 0 0 0 14.345703 16.244141 C 14.344203 16.245441 13.957222 16.457015 13.591797 16.492188 C 13.226371 16.527358 12.905632 16.461597 12.654297 16.244141 A 1.0001 1.0001 0 0 0 11.345703 16.244141 C 11.094373 16.461597 10.773635 16.527361 10.408203 16.492188 C 10.042771 16.457017 9.6557504 16.245398 9.6542969 16.244141 A 1 1 0 0 0 8.9277344 16.001953 z " fill="currentColor"/>
</svg>
