<svg xmlns="http://www.w3.org/2000/svg" width="1em" height="1em" viewBox="0 0 24 24" fill="currentColor">
  <path d="M 12.039062 3 C 8.0347859 3 5.3030955 4.3161703 3.6113281 6.2128906 C 1.9195608 8.1096109 1.2778137 10.47972 1.0449219 12.519531 C 0.99252208 12.978487 0.97084547 13.352646 1.0449219 13.75 C 1.1189979 14.147354 1.4050304 14.686301 1.90625 14.892578 C 2.3404959 15.071293 2.7029634 15.012103 3.0097656 14.921875 C 3.0228043 15.552025 3.0525661 16.108951 3.1171875 16.619141 C 3.2405801 17.593371 3.5274323 18.459837 4.1503906 19.121094 C 4.9223175 19.940503 6.0359853 20.266151 7.3808594 20.548828 C 8.7257334 20.831505 10.304864 20.980887 11.896484 20.998047 C 13.488105 21.015207 15.085116 20.899907 16.46875 20.625 C 17.852384 20.350089 19.039034 19.981502 19.849609 19.121094 C 20.47258 18.459839 20.759417 17.593373 20.882812 16.619141 C 20.947509 16.108351 20.977218 15.550984 20.990234 14.919922 C 21.296038 15.010657 21.657175 15.070109 22.089844 14.892578 C 22.591434 14.686766 22.877755 14.150355 22.953125 13.753906 C 23.028495 13.357458 23.009074 12.982025 22.958984 12.523438 C 22.73629 10.48642 22.114589 8.1163267 20.439453 6.2167969 C 20.024206 5.7459254 19.54545 5.309992 18.998047 4.921875 A 1 1 0 0 0 18.820312 4.4277344 A 1 1 0 0 0 18.175781 4.015625 A 1 1 0 0 0 17.570312 4.0957031 C 16.382953 3.5409463 14.965823 3.1688324 13.294922 3.0449219 A 1 1 0 0 0 12.886719 3.0058594 C 12.856754 3.0091653 12.826617 3.0120308 12.796875 3.015625 C 12.549461 3.0048837 12.297067 3 12.039062 3 z M 12.886719 5.0214844 C 14.087037 5.0834646 15.096196 5.2778639 15.949219 5.5722656 C 14.656467 7.2011247 14.186931 9.2283801 14.048828 10.841797 C 13.406804 10.791175 12.737563 10.765625 12.039062 10.765625 C 10.5898 10.765625 9.258329 10.877349 8.0390625 11.085938 C 8.1328193 10.043536 8.3953481 8.7944832 8.9609375 7.734375 C 9.6807401 6.3852186 10.780849 5.3148034 12.886719 5.0214844 z M 7.9667969 5.6269531 C 7.6672987 5.9981638 7.411569 6.3912908 7.1972656 6.7929688 C 6.3213065 8.434816 6.0506578 10.206674 6.0039062 11.550781 C 5.4509331 11.711268 4.9262387 11.894767 4.4296875 12.097656 A 1 1 0 0 0 4 12 A 1 1 0 0 0 3.0332031 12.746094 L 3.03125 12.746094 C 3.2363382 10.949752 3.8027811 9.0034735 5.1054688 7.5429688 C 5.8042693 6.7595105 6.7171666 6.0841079 7.9667969 5.6269531 z M 17.794922 6.5078125 C 18.233809 6.8191656 18.611302 7.1669533 18.939453 7.5390625 C 20.224817 8.9966077 20.774056 10.941147 20.970703 12.740234 L 20.970703 12.742188 C 20.968953 12.741324 20.966546 12.741065 20.964844 12.740234 A 1 1 0 0 0 20 12 A 1 1 0 0 0 19.580078 12.091797 C 18.530596 11.659227 17.35486 11.319801 16.042969 11.091797 C 16.175538 9.6316349 16.642713 7.7813712 17.794922 6.5078125 z M 12.039062 12.765625 C 12.939993 12.765625 13.779671 12.811392 14.5625 12.898438 A 1 1 0 0 0 15 13 A 1 1 0 0 0 15.197266 12.980469 C 16.667985 13.193451 17.924799 13.554769 18.998047 14.017578 C 18.992333 15.015156 18.971505 15.792163 18.898438 16.369141 C 18.802157 17.129283 18.648307 17.478555 18.392578 17.75 C 18.159703 17.997192 17.273538 18.42655 16.078125 18.664062 C 14.882712 18.901577 13.396468 19.013987 11.917969 18.998047 C 10.43947 18.982107 8.9628091 18.838095 7.7910156 18.591797 C 6.6192222 18.345499 5.754185 17.905791 5.6074219 17.75 C 5.3517002 17.478557 5.1978399 17.129286 5.1015625 16.369141 C 5.0286756 15.793672 5.007727 15.019206 5.0019531 14.025391 C 6.8017789 13.25662 9.1188615 12.765625 12.039062 12.765625 z " fill="currentColor"/>
</svg>
