<svg xmlns="http://www.w3.org/2000/svg" width="1em" height="1em" viewBox="0 0 24 24" fill="currentColor">
  <path d="M 3.5117188 3.2226562 C 2.1712199 3.1824515 1 4.2834721 1 5.65625 C 1 6.829663 1.852446 7.8457878 3.0078125 8.0507812 L 6.2597656 8.6289062 C 6.5071216 8.6727959 6.6329088 8.705634 6.6835938 8.7167969 C 6.7046941 8.7642111 6.762531 8.8812673 6.8554688 9.1152344 L 7.2792969 10.183594 L 4.2480469 12.326172 A 1.0001 1.0001 0 0 0 5.0703125 14.113281 C 5.2513216 14.067531 6.0597358 13.966322 6.9199219 14.013672 C 7.7801079 14.061022 8.7437413 14.244876 9.4609375 14.607422 A 1.0001 1.0001 0 0 0 9.4628906 14.607422 C 10.508472 15.135933 11.180384 15.668321 11.978516 16.144531 C 12.776651 16.620742 13.740822 17 15 17 A 1.0001 1.0001 0 0 0 15.90625 15.576172 L 11.623047 6.4375 C 11.283647 5.71312 11.082711 5.2249269 10.619141 4.7871094 C 10.446232 4.6238164 10.255259 4.4812845 10.048828 4.3632812 C 9.4952268 4.0468538 8.9694825 3.9952006 8.1777344 3.8808594 L 3.78125 3.2460938 C 3.6906705 3.2330108 3.6010853 3.2253366 3.5117188 3.2226562 z M 3.4453125 5.2207031 C 3.4622469 5.2214757 3.478632 5.2240404 3.4960938 5.2265625 L 7.890625 5.8613281 C 8.6823568 5.9756669 8.949862 6.0385769 9.0566406 6.0996094 C 9.12549 6.1389662 9.1884618 6.1858074 9.2460938 6.2402344 C 9.3355031 6.3246768 9.4731 6.5607763 9.8125 7.2851562 L 13.183594 14.478516 C 13.128764 14.447316 13.061318 14.461984 13.003906 14.427734 C 12.365448 14.046793 11.57856 13.436554 10.363281 12.822266 C 9.5461298 12.409192 8.6947499 12.324402 7.8671875 12.21875 L 8.4355469 11.816406 C 8.5897475 11.707377 8.7231582 11.619087 8.8808594 11.476562 C 9.0385606 11.334036 9.2394686 11.089595 9.328125 10.791016 C 9.4167843 10.492427 9.3805296 10.180138 9.3261719 9.9746094 C 9.2718141 9.7690806 9.2084115 9.6208567 9.1386719 9.4453125 L 8.7148438 8.3769531 C 8.556191 7.9775464 8.4520989 7.6391936 8.1152344 7.2988281 C 8.0153597 7.1979339 7.9040867 7.1068375 7.7851562 7.0292969 C 7.3839434 6.7677119 7.0324973 6.73328 6.609375 6.6582031 L 3.3574219 6.0820312 C 3.1438884 6.0441446 3 5.873117 3 5.65625 C 3 5.3916091 3.1912959 5.2091142 3.4453125 5.2207031 z M 19 6 C 16.802706 6 15 7.8027056 15 10 C 15 12.197294 16.802706 14 19 14 C 21.197294 14 23 12.197294 23 10 C 23 7.8027056 21.197294 6 19 6 z M 19 8 C 20.116414 8 21 8.8835859 21 10 C 21 11.116414 20.116414 12 19 12 C 17.883586 12 17 11.116414 17 10 C 17 8.8835859 17.883586 8 19 8 z M 5.1074219 15 C 4.3613577 14.988143 3.6358213 15.101991 2.96875 15.425781 C 2.0793216 15.857504 1.3693869 16.700192 1.0410156 17.798828 A 1 1 0 0 0 1.7128906 19.042969 A 1 1 0 0 0 2.9589844 18.371094 C 3.1583931 17.703929 3.4340634 17.422521 3.8417969 17.224609 C 4.2495303 17.026698 4.8626709 16.949279 5.6328125 17.037109 C 7.1730956 17.212769 9.2290856 18.044818 11.044922 18.974609 C 12.955641 19.952986 14.907967 20.794595 16.808594 20.96875 C 18.70922 21.142905 20.656451 20.476038 21.841797 18.623047 A 1 1 0 0 0 21.539062 17.242188 A 1 1 0 0 0 20.158203 17.544922 C 19.343549 18.818431 18.406733 19.106357 16.990234 18.976562 C 15.573736 18.846768 13.775859 18.125683 11.955078 17.193359 C 10.039414 16.212451 7.8723269 15.280346 5.859375 15.050781 C 5.607756 15.022086 5.3561099 15.003952 5.1074219 15 z " fill="currentColor"/>
</svg>
