<svg xmlns="http://www.w3.org/2000/svg" width="1em" height="1em" viewBox="0 0 24 24" fill="currentColor">
  <path d="M 19.486328 1 A 1 1 0 0 0 18.783203 1.3027344 A 1 1 0 0 0 18.802734 2.7167969 C 19.063547 2.9703009 19.422064 3.2379333 19.759766 3.5 L 15.5 3.5 A 1 1 0 0 0 14.5 4.5 A 1 1 0 0 0 15.5 5.5 L 19.759766 5.5 C 19.422064 5.7620667 19.063546 6.0296991 18.802734 6.2832031 A 1 1 0 0 0 18.783203 7.6972656 A 1 1 0 0 0 20.197266 7.7167969 C 20.296956 7.6199039 20.982175 7.1033943 21.585938 6.5917969 C 21.887819 6.3359984 22.184323 6.0674711 22.441406 5.765625 C 22.698489 5.4637789 23 5.1497349 23 4.5 C 23 3.8502651 22.698489 3.5362211 22.441406 3.234375 C 22.184323 2.9325289 21.88782 2.6640019 21.585938 2.4082031 C 20.982176 1.8966057 20.296952 1.3800962 20.197266 1.2832031 A 1 1 0 0 0 19.486328 1 z M 10.181641 2.0019531 C 9.019892 2.0366328 7.982651 2.8801665 7.7714844 4.0644531 L 6.21875 12.767578 L 5.6035156 12.138672 A 1.0001 1.0001 0 0 0 5.5957031 12.130859 C 4.4727845 11.007867 2.5819028 11.111587 1.5898438 12.351562 C 0.82597602 13.306396 0.80532494 14.670237 1.5390625 15.648438 L 4.5527344 19.667969 C 5.2366086 20.579774 5.6114646 21.094505 6.1367188 21.546875 C 6.8900556 22.195585 7.7927707 22.647871 8.7636719 22.861328 C 9.4407624 23.010181 10.07895 23 11.21875 23 L 13.621094 23 C 16.469462 23 18.936393 20.983045 19.501953 18.191406 L 20.369141 13.908203 A 1.0001 1.0001 0 0 0 20.373047 13.884766 L 20.460938 13.392578 C 20.702343 12.039054 19.769783 10.72993 18.417969 10.494141 C 18.045151 10.429151 17.730809 10.630201 17.384766 10.724609 C 17.098111 9.8799356 16.536623 9.1506377 15.605469 8.9882812 C 15.233292 8.9233871 14.919744 9.1247794 14.574219 9.21875 C 14.28756 8.3740959 13.726048 7.6448074 12.794922 7.4824219 C 12.598988 7.4482581 12.44337 7.5917328 12.251953 7.6035156 L 12.728516 4.9355469 C 12.96991 3.5820132 12.037396 2.2728227 10.685547 2.0371094 C 10.516568 2.0076411 10.347605 1.9969989 10.181641 2.0019531 z M 10.232422 3.9980469 C 10.267984 3.9975019 10.304543 4.0013158 10.341797 4.0078125 C 10.639948 4.0597995 10.809371 4.3077911 10.759766 4.5859375 L 9.8808594 9.5097656 L 9.6171875 10.986328 A 1 1 0 0 0 10.425781 12.146484 A 1 1 0 0 0 11.585938 11.337891 L 11.849609 9.859375 C 11.899229 9.5811487 12.153012 9.4011368 12.451172 9.453125 C 12.74919 9.505098 12.918747 9.751149 12.869141 10.029297 L 12.693359 11.015625 L 12.605469 11.507812 A 1 1 0 0 0 13.414062 12.667969 A 1 1 0 0 0 14.574219 11.859375 L 14.662109 11.365234 C 14.711719 11.087064 14.965535 10.907 15.263672 10.958984 C 15.561649 11.010944 15.729307 11.256907 15.679688 11.535156 L 15.591797 12.029297 A 1 1 0 0 0 15.650391 12.294922 C 15.623081 12.385532 15.520894 12.426227 15.503906 12.521484 L 15.416016 13.013672 A 1 1 0 0 0 16.226562 14.173828 A 1 1 0 0 0 17.386719 13.363281 L 17.474609 12.871094 C 17.524239 12.592784 17.776171 12.412887 18.074219 12.464844 C 18.372404 12.516854 18.541783 12.76294 18.492188 13.041016 L 18.40625 13.523438 L 17.541016 17.794922 C 17.161982 19.665883 15.530125 21 13.621094 21 L 11.21875 21 C 10.07895 21 9.5770288 20.990597 9.1933594 20.90625 C 8.5459205 20.763907 7.9436496 20.46374 7.4414062 20.03125 C 7.1436605 19.77482 6.8362095 19.378591 6.1523438 18.466797 L 3.1386719 14.449219 C 2.9463494 14.192819 2.9520514 13.851928 3.1523438 13.601562 C 3.4203848 13.266538 3.8782367 13.2415 4.1816406 13.544922 L 6.1386719 15.548828 A 1.0001 1.0001 0 0 0 7.8359375 15.039062 L 7.9824219 14.275391 A 1.0001 1.0001 0 0 0 7.984375 14.263672 L 9.7402344 4.4160156 C 9.7836402 4.1725823 9.9834838 4.001862 10.232422 3.9980469 z " fill="currentColor"/>
</svg>
