<svg xmlns="http://www.w3.org/2000/svg" width="1em" height="1em" viewBox="0 0 24 24" fill="currentColor">
  <path d="M 17.013672 1 A 1 1 0 0 0 16.302734 1.2832031 C 16.203044 1.3800961 15.517824 1.8966057 14.914062 2.4082031 C 14.61218 2.6640019 14.315677 2.9325289 14.058594 3.234375 C 13.801511 3.5362211 13.5 3.8502651 13.5 4.5 A 1 1 0 0 0 13.816406 5.2167969 C 13.916306 5.3785839 13.947115 5.6347356 14.058594 5.765625 C 14.315677 6.0674711 14.61218 6.3359981 14.914062 6.5917969 C 15.517824 7.1033943 16.203048 7.6199038 16.302734 7.7167969 A 1 1 0 0 0 17.716797 7.6972656 A 1 1 0 0 0 17.697266 6.2832031 C 17.436453 6.0296988 17.077936 5.7620667 16.740234 5.5 L 20.5 5.5 A 1 1 0 0 0 21.5 4.5 A 1 1 0 0 0 20.5 3.5 L 16.740234 3.5 C 17.077936 3.2379333 17.436454 2.9703009 17.697266 2.7167969 A 1 1 0 0 0 17.716797 1.3027344 A 1 1 0 0 0 17.013672 1 z M 8.1660156 2 C 6.6590776 2 5.4160156 3.243062 5.4160156 4.75 L 5.4160156 10.625 L 4.4765625 11.697266 C 3.5236248 12.786286 2.9231391 13.419738 2.6542969 14.359375 C 2.5432832 14.747423 2.4924867 15.149279 2.5019531 15.552734 C 2.5248771 16.529832 2.9465854 17.295535 3.59375 18.589844 C 4.391803 20.18595 4.8245194 21.121885 5.6855469 21.839844 C 6.0482158 22.142203 6.4522135 22.392835 6.8847656 22.582031 C 7.9119884 23.031057 8.9440352 23 10.728516 23 L 12.132812 23 C 13.370313 23 14.072508 23.01639 14.808594 22.804688 C 15.92315 22.484244 16.892285 21.786209 17.548828 20.830078 C 17.982167 20.198817 18.186812 19.529509 18.578125 18.355469 C 19.192347 16.512804 19.5 15.663839 19.5 14.472656 C 19.5 12.63134 18.398035 11.250536 17.080078 10.460938 C 16.13392 9.8941061 15.069511 9.7785652 13.146484 9.4902344 L 13.140625 9.4882812 L 10.916016 9.1425781 L 10.916016 4.75 C 10.916057 3.2430551 9.6729492 2 8.1660156 2 z M 8.1660156 4 C 8.592062 4 8.9160156 4.3239449 8.9160156 4.75 L 8.9160156 10 A 1.0001 1.0001 0 0 0 9.7617188 10.988281 L 12.839844 11.464844 A 1.0001 1.0001 0 0 0 12.84375 11.466797 C 14.772372 11.7561 15.639977 11.929674 16.050781 12.175781 C 16.976825 12.730582 17.5 13.366773 17.5 14.472656 C 17.5 15.334273 17.300819 15.865121 16.681641 17.722656 C 16.290688 18.895613 16.102892 19.39903 15.898438 19.697266 C 15.50438 20.271135 14.924903 20.690457 14.255859 20.882812 C 13.908551 20.982658 13.370311 21 12.132812 21 L 10.728516 21 C 8.9451728 21 8.1925512 20.968437 7.6875 20.748047 L 7.6855469 20.748047 C 7.4263951 20.634525 7.1840001 20.485771 6.9667969 20.304688 C 6.5434044 19.951646 6.1789064 19.291407 5.3808594 17.695312 C 4.733704 16.401022 4.5085563 15.870562 4.5 15.505859 C 4.49527 15.304114 4.5206859 15.104108 4.5761719 14.910156 C 4.6361139 14.70065 5.1021421 14.174278 5.4160156 13.777344 L 5.4160156 14.5 A 1 1 0 0 0 6.4160156 15.5 A 1 1 0 0 0 7.4160156 14.5 L 7.4160156 11 L 7.4160156 4.75 C 7.4160156 4.323938 7.7399537 4 8.1660156 4 z " fill="currentColor"/>
</svg>
