<svg xmlns="http://www.w3.org/2000/svg" width="1em" height="1em" viewBox="0 0 24 24" fill="currentColor">
  <path d="M 9.6738281 1 C 9.0444347 1.0094118 8.410908 1.2064021 7.890625 1.6367188 C 7.370342 2.0670355 6.9999363 2.7644969 6.9785156 3.5429688 A 1.0001 1.0001 0 0 0 6.9785156 3.5703125 L 6.9785156 11.501953 C 6.0797026 10.642163 5.0715265 10.226031 4.1464844 10.396484 C 3.1840999 10.573819 2.5127943 11.28134 2.1835938 12.046875 C 1.934787 12.625518 1.972597 13.240597 2.125 13.728516 C 2.2774032 14.216434 2.528128 14.615754 2.78125 14.955078 L 6.4375 19.857422 C 6.6953891 20.203089 6.8339844 20.620825 6.8339844 21.050781 L 6.8339844 22 A 1 1 0 0 0 7.8339844 23 A 1 1 0 0 0 8.8339844 22 L 8.8339844 21.050781 C 8.8339844 20.189738 8.5560465 19.352442 8.0410156 18.662109 L 4.3828125 13.757812 C 4.2140945 13.531636 4.0850949 13.298944 4.0332031 13.132812 C 3.9813111 12.966681 3.9898382 12.906948 4.0195312 12.837891 C 4.1411707 12.555026 4.3323019 12.395622 4.5078125 12.363281 C 4.6829717 12.331001 5.0404909 12.352171 5.6699219 12.986328 L 5.671875 12.988281 L 7.2480469 14.675781 A 1.0001 1.0001 0 0 0 8.9785156 13.994141 L 8.9785156 3.5976562 C 8.9852081 3.354553 9.0476342 3.2740301 9.1640625 3.1777344 C 9.2804908 3.0814386 9.4878616 3.0032482 9.7050781 3 C 9.9222947 2.99675 10.126828 3.066233 10.248047 3.1621094 C 10.368252 3.2571844 10.443578 3.3565584 10.462891 3.6328125 L 10.462891 9.5097656 A 1.0001 1.0001 0 0 0 11.591797 10.501953 C 11.748258 10.481743 12.44976 10.490243 13.228516 10.619141 C 14.007271 10.748041 14.917718 10.983693 15.716797 11.333984 C 16.515875 11.684276 17.188912 12.151552 17.572266 12.666016 C 17.955619 13.180479 18.12001 13.705256 17.923828 14.558594 C 17.874968 14.77105 17.826678 14.985805 17.779297 15.197266 C 17.610137 15.953221 16.979064 17.604341 16.453125 18.355469 C 15.513005 19.698151 15.820312 21.071063 15.820312 22 A 1 1 0 0 0 16.820312 23 A 1 1 0 0 0 17.820312 22 C 17.820312 20.767337 17.636317 20.154424 18.091797 19.503906 C 18.906458 18.340434 19.490382 16.71641 19.732422 15.634766 C 19.779242 15.425826 19.825312 15.215356 19.873047 15.007812 C 20.184965 13.651051 19.860117 12.389093 19.175781 11.470703 C 18.491441 10.552313 17.521428 9.941154 16.519531 9.5019531 C 15.517635 9.0627523 14.469629 8.7976026 13.556641 8.6464844 C 13.106972 8.5720554 12.826662 8.6067124 12.462891 8.5839844 L 12.462891 3.5703125 A 1.0001 1.0001 0 0 0 12.460938 3.5058594 C 12.409152 2.7153299 12.024868 2.0181559 11.488281 1.59375 C 10.951694 1.1693441 10.303222 0.9905882 9.6738281 1 z M 18.5 1 A 1 1 0 0 0 17.5 2 L 17.5 5.7597656 C 17.23793 5.4220654 16.970267 5.0635274 16.716797 4.8027344 A 1 1 0 0 0 15.302734 4.7832031 A 1 1 0 0 0 15.283203 6.1972656 C 15.380123 6.2969816 15.896598 6.9821754 16.408203 7.5859375 C 16.664006 7.8878186 16.932531 8.1843262 17.234375 8.4414062 C 17.536218 8.698486 17.850252 9 18.5 9 A 1 1 0 0 0 19.216797 8.6835938 C 19.37858 8.5836958 19.634736 8.5528837 19.765625 8.4414062 C 20.067469 8.1843262 20.335994 7.8878186 20.591797 7.5859375 C 21.103402 6.9821754 21.619881 6.2969817 21.716797 6.1972656 A 1 1 0 0 0 21.697266 4.7832031 A 1 1 0 0 0 20.283203 4.8027344 C 20.029732 5.0635277 19.76207 5.4220654 19.5 5.7597656 L 19.5 2 A 1 1 0 0 0 18.5 1 z " fill="currentColor"/>
</svg>
