<svg xmlns="http://www.w3.org/2000/svg" width="1em" height="1em" viewBox="0 0 24 24" fill="currentColor">
  <path d="M 17.513672 1 A 1 1 0 0 0 16.802734 1.2832031 C 16.703044 1.3800961 16.017825 1.8966057 15.414062 2.4082031 C 15.11218 2.6640019 14.815677 2.9325289 14.558594 3.234375 C 14.301511 3.5362211 14 3.8502651 14 4.5 A 1 1 0 0 0 14.316406 5.2167969 C 14.416306 5.3785839 14.447115 5.6347356 14.558594 5.765625 C 14.815677 6.0674711 15.11218 6.3359981 15.414062 6.5917969 C 16.017825 7.1033943 16.703048 7.6199038 16.802734 7.7167969 A 1 1 0 0 0 18.216797 7.6972656 A 1 1 0 0 0 18.197266 6.2832031 C 17.936453 6.0296988 17.577936 5.7620667 17.240234 5.5 L 21 5.5 A 1 1 0 0 0 22 4.5 A 1 1 0 0 0 21 3.5 L 17.240234 3.5 C 17.577936 3.2379333 17.936454 2.9703009 18.197266 2.7167969 A 1 1 0 0 0 18.216797 1.3027344 A 1 1 0 0 0 17.513672 1 z M 9.7558594 2 C 8.2489214 2 7.0058594 3.243062 7.0058594 4.75 L 7.0058594 12.326172 L 6.5214844 11.912109 C 5.3551886 10.912387 3.5592184 11.081797 2.5996094 12.28125 C 1.7980303 13.283243 1.8041202 14.72286 2.6132812 15.71875 L 5.9726562 19.851562 C 7.0100783 21.128366 7.5955131 21.890623 8.5234375 22.394531 C 8.6794877 22.479291 8.8395615 22.555347 9.0039062 22.623047 C 9.9801604 23.025531 10.938784 23 12.583984 23 L 13.632812 23 C 14.870313 23 15.572508 23.01639 16.308594 22.804688 C 17.42315 22.484244 18.392285 21.786209 19.048828 20.830078 C 19.482167 20.198817 19.686812 19.529509 20.078125 18.355469 C 20.692347 16.512804 21 15.663839 21 14.472656 C 21 12.63134 19.898035 11.250536 18.580078 10.460938 C 17.634806 9.8946366 16.570004 9.7779725 14.650391 9.4902344 L 12.505859 9.1464844 L 12.505859 4.75 C 12.505859 3.243062 11.26278 2 9.7558594 2 z M 9.7558594 4 C 10.181859 4 10.505859 4.323938 10.505859 4.75 L 10.505859 10 A 1.0001 1.0001 0 0 0 11.347656 10.988281 L 14.335938 11.464844 A 1.0001 1.0001 0 0 0 14.34375 11.466797 C 16.272372 11.7561 17.139977 11.929674 17.550781 12.175781 C 18.476837 12.730535 19 13.366773 19 14.472656 C 19 15.334273 18.800819 15.865121 18.181641 17.722656 C 17.790688 18.895613 17.602893 19.39903 17.398438 19.697266 C 17.00438 20.271135 16.424903 20.690458 15.755859 20.882812 C 15.408545 20.982706 14.870312 21 13.632812 21 L 12.583984 21 C 10.938784 21 10.253931 20.97475 9.765625 20.773438 C 9.66731 20.732937 9.5701523 20.687557 9.4765625 20.636719 C 9.0123469 20.384627 8.5608555 19.868594 7.5234375 18.591797 L 4.1660156 14.457031 C 3.9429765 14.182522 3.9411484 13.805503 4.1621094 13.529297 C 4.4315203 13.19255 4.8932589 13.149009 5.2207031 13.429688 L 7.3535156 15.259766 A 1.0001 1.0001 0 0 0 9.0058594 14.5 L 9.0058594 4.75 C 9.0058594 4.323938 9.3297974 4 9.7558594 4 z " fill="currentColor"/>
</svg>
