<svg xmlns="http://www.w3.org/2000/svg" width="1em" height="1em" viewBox="0 0 24 24" fill="currentColor">
  <path d="M 21.542969 1.5 A 1.0001 1.0001 0 0 0 21.275391 1.5253906 L 17.492188 2.3984375 C 16.928396 2.5285384 16.419898 2.8343981 16.041016 3.2714844 L 7.171875 13.357422 L 6.6933594 12.878906 C 6.1310125 12.316529 5.3675172 12 4.5722656 12 L 4 12 A 1 1 0 0 0 3 13 A 1 1 0 0 0 4 14 L 4.5722656 14 C 4.837894 14 5.0914837 14.105146 5.2792969 14.292969 L 6.7851562 15.800781 L 4.9101562 17.675781 C 4.6183377 17.563056 4.3095622 17.505859 4 17.505859 C 3.3581345 17.505859 2.7164033 17.748515 2.2324219 18.232422 C 1.264474 19.200386 1.264474 20.799614 2.2324219 21.767578 C 3.2003848 22.735392 4.7996152 22.735392 5.7675781 21.767578 C 6.4849143 21.05023 6.6701034 19.98672 6.3242188 19.089844 L 8.1992188 17.214844 L 9.7070312 18.720703 C 9.8948764 18.908548 10 19.162166 10 19.427734 L 10 20 A 1 1 0 0 0 11 21 A 1 1 0 0 0 12 20 L 12 19.427734 C 12 18.632503 11.683449 17.868995 11.121094 17.306641 L 10.642578 16.828125 L 20.728516 7.9589844 C 21.165671 7.5800793 21.47148 7.0716445 21.601562 6.5078125 L 22.474609 2.7246094 A 1.0001 1.0001 0 0 0 21.542969 1.5 z M 20.166016 3.8339844 L 19.652344 6.0585938 C 19.617424 6.2099417 19.535413 6.3454707 19.417969 6.4472656 A 1.0001 1.0001 0 0 0 19.412109 6.453125 L 9.2246094 15.410156 L 8.5898438 14.775391 L 17.546875 4.5878906 A 1.0001 1.0001 0 0 0 17.552734 4.5820312 C 17.654652 4.4644575 17.789998 4.3825955 17.941406 4.3476562 L 20.166016 3.8339844 z M 4 19.494141 C 4.1258535 19.494141 4.2517071 19.544692 4.3535156 19.646484 C 4.5571477 19.85012 4.5571477 20.14988 4.3535156 20.353516 C 4.1498985 20.557101 3.8501015 20.557101 3.6464844 20.353516 C 3.4428523 20.14988 3.4428523 19.85012 3.6464844 19.646484 C 3.7482929 19.544692 3.8741465 19.494141 4 19.494141 z " fill="currentColor"/>
</svg>
