<svg xmlns="http://www.w3.org/2000/svg" width="1em" height="1em" viewBox="0 0 24 24" fill="currentColor">
  <path d="M 11.46875 1 C 10.93575 1 10.521364 0.94352427 9.9941406 1.2285156 C 9.4454008 1.5251652 9.2744103 1.943946 9.0234375 2.3867188 C 8.9454319 2.5243479 8.8571375 2.6744157 8.7597656 2.8339844 C 8.1591809 3.8182038 7.7054729 4.557922 7.4003906 5.1621094 C 7.2478495 5.4642031 7.1285951 5.7283828 7.0546875 6.0351562 C 6.9807795 6.3419298 6.9328061 6.7930549 7.2304688 7.2226562 C 7.4994844 7.6108852 7.8484339 7.7366666 8.1347656 7.8164062 C 8.4210973 7.8961463 8.7038883 7.930957 9.0351562 7.9550781 C 9.5583224 7.9931722 10.198463 7.9991853 11 8 L 11 11 L 3 11 A 1 1 0 0 0 2 12 A 1 1 0 0 0 3 13 L 3 22 A 1 1 0 0 0 4 23 A 1 1 0 0 0 5 22 L 5 18 L 19 18 L 19 22 A 1 1 0 0 0 20 23 A 1 1 0 0 0 21 22 L 21 13 A 1 1 0 0 0 22 12 A 1 1 0 0 0 21 11 L 13 11 L 13 8 C 13.801536 7.9991853 14.441681 7.993172 14.964844 7.9550781 C 15.29611 7.9309571 15.578906 7.8980961 15.865234 7.8183594 C 16.151563 7.7386224 16.500507 7.6127541 16.769531 7.2246094 A 1.0001 1.0001 0 0 0 16.769531 7.2226562 C 17.067172 6.7930333 17.019224 6.3419159 16.945312 6.0351562 C 16.871401 5.7283935 16.752147 5.4641981 16.599609 5.1621094 C 16.294535 4.5579319 15.840781 3.8181991 15.240234 2.8339844 C 15.142971 2.6747162 15.054595 2.5244308 14.976562 2.3867188 C 14.725561 1.9439658 14.554599 1.5251652 14.005859 1.2285156 C 13.478636 0.94352428 13.06425 1 12.53125 1 L 11.46875 1 z M 11.46875 3 L 12.53125 3 C 12.774264 3 12.930957 3.0111201 13.017578 3.0175781 C 13.05903 3.0797514 13.133439 3.1915573 13.236328 3.3730469 C 13.324098 3.5279347 13.423467 3.6972613 13.533203 3.8769531 C 14.105347 4.8146199 14.510614 5.4921521 14.753906 5.9609375 C 14.226164 5.9963362 13.422154 6 12.324219 6 L 12 6 L 11.675781 6 C 10.577841 6 9.7738403 5.9963359 9.2460938 5.9609375 C 9.4893843 5.492161 9.894622 4.8146154 10.466797 3.8769531 C 10.576265 3.6975618 10.675837 3.5280177 10.763672 3.3730469 C 10.866544 3.191558 10.940968 3.079751 10.982422 3.0175781 C 11.06904 3.0111204 11.225719 3 11.46875 3 z M 5 13 L 12 13 L 19 13 L 19 16 L 5 16 L 5 13 z M 11 13.5 A 1 1 0 0 0 10 14.5 A 1 1 0 0 0 11 15.5 L 13 15.5 A 1 1 0 0 0 14 14.5 A 1 1 0 0 0 13 13.5 L 11 13.5 z " fill="currentColor"/>
</svg>
