<svg xmlns="http://www.w3.org/2000/svg" width="1em" height="1em" viewBox="0 0 24 24" fill="currentColor">
  <path d="M 9.5 1 C 8.085785 1 7.0044454 0.99407482 6.0742188 1.1191406 C 5.1439921 1.2442065 4.300893 1.542857 3.671875 2.171875 C 3.042857 2.800893 2.7442065 3.6439921 2.6191406 4.5742188 C 2.4940748 5.5044454 2.5 6.585785 2.5 8 L 2.5 16 C 2.5 17.4142 2.49407 18.495558 2.6191406 19.425781 C 2.7442065 20.356004 3.0428648 21.199101 3.671875 21.828125 C 4.3008908 22.457155 5.1439898 22.75579 6.0742188 22.880859 C 7.0044479 23.005928 8.085785 23 9.5 23 L 14.5 23 C 15.9142 23 16.995556 23.0059 17.925781 22.880859 C 18.856006 22.75579 19.699103 22.457147 20.328125 21.828125 C 20.957147 21.199103 21.25579 20.356006 21.380859 19.425781 C 21.505928 18.495556 21.5 17.4142 21.5 16 L 21.5 8 C 21.5 6.585785 21.5059 5.5044479 21.380859 4.5742188 C 21.25579 3.6439898 20.957155 2.8008908 20.328125 2.171875 C 19.699101 1.5428648 18.856004 1.2442065 17.925781 1.1191406 C 16.995558 0.99407476 15.9142 1 14.5 1 L 9.5 1 z M 9.5 3 L 14.5 3 C 15.9142 3 16.954551 3.00696 17.658203 3.1015625 C 18.361855 3.1961665 18.664388 3.3362677 18.914062 3.5859375 C 19.163732 3.8356017 19.303832 4.1381434 19.398438 4.8417969 C 19.493043 5.5454503 19.5 6.585785 19.5 8 L 19.5 16 C 19.5 17.4142 19.493 18.454553 19.398438 19.158203 C 19.303828 19.861853 19.16374 20.164385 18.914062 20.414062 C 18.664386 20.66374 18.361853 20.803832 17.658203 20.898438 C 16.954553 20.993043 15.9142 21 14.5 21 L 9.5 21 C 8.085785 21 7.0454503 20.993043 6.3417969 20.898438 C 5.6381434 20.803832 5.3356017 20.663732 5.0859375 20.414062 C 4.8362677 20.164388 4.6961666 19.861855 4.6015625 19.158203 C 4.5069584 18.454551 4.5 17.4142 4.5 16 L 4.5 8 C 4.5 6.585785 4.5069583 5.5454528 4.6015625 4.8417969 C 4.6961667 4.138141 4.8362755 3.8355995 5.0859375 3.5859375 C 5.3355995 3.3362755 5.638141 3.1961667 6.3417969 3.1015625 C 7.0454528 3.0069583 8.085785 3 9.5 3 z M 10 3.5 A 1 1 0 0 0 9 4.5 A 1 1 0 0 0 10 5.5 L 14 5.5 A 1 1 0 0 0 15 4.5 A 1 1 0 0 0 14 3.5 L 10 3.5 z M 12 17.75 C 11.321712 17.75 10.75 18.321712 10.75 19 C 10.75 19.678288 11.321712 20.25 12 20.25 C 12.678288 20.25 13.25 19.678288 13.25 19 C 13.25 18.321712 12.678288 17.75 12 17.75 z " fill="currentColor"/>
</svg>
