<svg xmlns="http://www.w3.org/2000/svg" width="1em" height="1em" viewBox="0 0 24 24" fill="currentColor">
  <path d="M 8 1 C 5.6538615 1 3.6570477 2.5881808 3.0957031 4.7597656 C 3.0266871 5.0267557 2.9810086 5.2873613 3.0078125 5.5917969 C 3.0346164 5.8962325 3.1738435 6.2674216 3.4296875 6.5195312 C 3.9413756 7.0237508 4.477681 7 4.953125 7 L 7 7 L 7 9 L 6.4453125 9 C 5.3977475 9 4.594337 8.9944529 3.8867188 9.0800781 C 3.1791003 9.1657033 2.5061421 9.3704423 1.9824219 9.8417969 C 1.4587113 10.31315 1.1918421 10.988489 1.0917969 11.658203 C 0.9917516 12.327918 1 13.0572 1 14 L 1 16 C 1 16.9428 0.99175188 17.672082 1.0917969 18.341797 C 1.1918421 19.011511 1.4587113 19.68685 1.9824219 20.158203 C 2.5061421 20.629558 3.1791004 20.834297 3.8867188 20.919922 C 3.924203 20.924458 3.9619561 20.929555 4 20.933594 L 4 22 A 1 1 0 0 0 5 23 A 1 1 0 0 0 6 22 L 6 21 C 6.1435048 21.000066 6.2917866 21 6.4453125 21 L 17.554688 21 C 17.708213 21 17.856495 21.000068 18 21 L 18 22 A 1 1 0 0 0 19 23 A 1 1 0 0 0 20 22 L 20 20.933594 C 20.038044 20.929557 20.075797 20.924455 20.113281 20.919922 C 20.820897 20.834292 21.493874 20.629601 22.017578 20.158203 C 22.541307 19.686855 22.808152 19.011517 22.908203 18.341797 C 23.008254 17.672079 23 16.9428 23 16 L 23 14 C 23 13.0572 23.008303 12.327923 22.908203 11.658203 C 22.808155 10.988483 22.541307 10.313145 22.017578 9.8417969 C 21.493874 9.3703991 20.820897 9.1657036 20.113281 9.0800781 C 19.405665 8.9944526 18.602237 9 17.554688 9 L 9 9 L 9 7 L 10 7 L 10 7.5 A 1 1 0 0 0 11 8.5 A 1 1 0 0 0 12 7.5 L 12 6.8886719 C 12.190598 6.818612 12.382119 6.7049656 12.570312 6.5195312 C 12.826161 6.2674344 12.965373 5.8962421 12.992188 5.5917969 C 13.018997 5.2873516 12.973317 5.0267633 12.904297 4.7597656 C 12.342941 2.5881888 10.346138 1 8 1 z M 8 3 C 9.3297911 3 10.36737 3.865648 10.796875 5 L 5.203125 5 C 5.6326239 3.8656538 6.6702089 3 8 3 z M 6.4453125 11 L 11 11 L 11 19 L 6.4453125 19 C 5.3977475 19 4.6296173 18.994419 4.1269531 18.933594 C 3.624289 18.872769 3.4474723 18.78632 3.3203125 18.671875 C 3.1931531 18.557428 3.1329848 18.46641 3.0703125 18.046875 C 3.0076402 17.62734 3 16.9428 3 16 L 3 14 C 3 13.0572 3.0076405 12.37266 3.0703125 11.953125 C 3.1329845 11.53359 3.1931531 11.442572 3.3203125 11.328125 C 3.4474728 11.21368 3.624289 11.127231 4.1269531 11.066406 C 4.6296173 11.005581 5.3977475 11 6.4453125 11 z M 13 11 L 17.554688 11 C 18.602238 11 19.370388 11.005596 19.873047 11.066406 C 20.375706 11.127226 20.552591 11.213723 20.679688 11.328125 C 20.80686 11.442577 20.867013 11.533595 20.929688 11.953125 C 20.992362 12.372651 21 13.0572 21 14 L 21 16 C 21 16.9428 20.992398 17.627345 20.929688 18.046875 C 20.867017 18.466405 20.80686 18.557423 20.679688 18.671875 C 20.552591 18.786277 20.375706 18.872769 19.873047 18.933594 C 19.370385 18.994418 18.602237 19 17.554688 19 L 13 19 L 13 11 z M 7 14 A 1 1 0 0 0 6 15 A 1 1 0 0 0 7 16 L 8 16 A 1 1 0 0 0 9 15 A 1 1 0 0 0 8 14 L 7 14 z M 16 14 A 1 1 0 0 0 15 15 A 1 1 0 0 0 16 16 L 17 16 A 1 1 0 0 0 18 15 A 1 1 0 0 0 17 14 L 16 14 z " fill="currentColor"/>
</svg>
