<svg xmlns="http://www.w3.org/2000/svg" width="1em" height="1em" viewBox="0 0 24 24" fill="currentColor">
  <path d="M 14 2 A 1 1 0 0 0 13 3 L 13 4.5 A 1 1 0 0 0 14 5.5 A 1 1 0 0 0 15 4.5 L 15 3 A 1 1 0 0 0 14 2 z M 2 3 A 1 1 0 0 0 1 4 A 1 1 0 0 0 2 5 L 4 5 C 4.3569531 5 4.690087 4.9997689 5 5.0019531 L 5 7 L 2 7 A 1 1 0 0 0 1 8 A 1 1 0 0 0 2 9 L 5 9 L 5 11 L 2 11 A 1 1 0 0 0 1 12 A 1 1 0 0 0 2 13 L 5 13 L 5 15 L 2 15 A 1 1 0 0 0 1 16 A 1 1 0 0 0 2 17 L 5 17 L 5 18.998047 C 4.6900869 19.000231 4.356953 19 4 19 L 2 19 A 1 1 0 0 0 1 20 A 1 1 0 0 0 2 21 L 4 21 C 4.687915 21 5.2963468 21.001239 5.8476562 20.988281 A 1 1 0 0 0 6 21 A 1 1 0 0 0 6.2109375 20.976562 C 6.6483395 20.95977 7.0497647 20.931403 7.4257812 20.880859 C 8.3560104 20.75579 9.1991092 20.457155 9.828125 19.828125 C 10.457135 19.199101 10.755793 18.356004 10.880859 17.425781 C 10.931416 17.04975 10.959772 16.648364 10.976562 16.210938 A 1 1 0 0 0 11 16 A 1 1 0 0 0 10.988281 15.847656 C 11.001237 15.29633 11 14.68793 11 14 L 11 10 C 11 9.3120639 11.001237 8.7036668 10.988281 8.1523438 A 1 1 0 0 0 11 8 A 1 1 0 0 0 10.976562 7.7890625 C 10.959772 7.3516363 10.931416 6.9502521 10.880859 6.5742188 C 10.755794 5.6439921 10.457143 4.800893 9.828125 4.171875 C 9.199107 3.542857 8.3560079 3.2442065 7.4257812 3.1191406 C 7.0497477 3.0685842 6.648364 3.0402279 6.2109375 3.0234375 A 1 1 0 0 0 6 3 A 1 1 0 0 0 5.8476562 3.0117188 C 5.296333 2.998763 4.6879364 3 4 3 L 2 3 z M 21.970703 3 C 20.354886 3.0487949 19.087808 3.2363741 18.169922 4.15625 C 17.541099 4.7864257 17.244145 5.6326828 17.119141 6.5644531 C 17.068246 6.9438162 17.03822 7.3472894 17.021484 7.7890625 A 1 1 0 0 0 17 8 A 1 1 0 0 0 17.011719 8.1503906 C 16.998918 8.7008788 17 9.3093638 17 9.9960938 L 17 14.003906 C 17 14.690673 16.99892 15.299105 17.011719 15.849609 A 1 1 0 0 0 17 16 A 1 1 0 0 0 17.021484 16.208984 C 17.038218 16.65079 17.068228 17.056155 17.119141 17.435547 C 17.244145 18.367326 17.541099 19.213568 18.169922 19.84375 C 19.087814 20.763646 20.354891 20.951216 21.970703 21 A 1 1 0 0 0 23 20.029297 A 1 1 0 0 0 22.029297 19 C 20.538309 18.954984 19.950646 18.795191 19.585938 18.429688 C 19.33606 18.17927 19.196233 17.875593 19.101562 17.169922 C 19.094236 17.115308 19.088344 17.058673 19.082031 17 L 22 17 A 1 1 0 0 0 23 16 A 1 1 0 0 0 22 15 L 19.001953 15 C 18.999812 14.69111 19 14.359272 19 14.003906 L 19 13 L 22 13 A 1 1 0 0 0 23 12 A 1 1 0 0 0 22 11 L 19 11 L 19 9.9960938 C 19 9.6407296 18.999811 9.3088918 19.001953 9 L 22 9 A 1 1 0 0 0 23 8 A 1 1 0 0 0 22 7 L 19.082031 7 C 19.088344 6.941327 19.094236 6.884692 19.101562 6.8300781 C 19.196233 6.1244185 19.336061 5.8207268 19.585938 5.5703125 C 19.950651 5.2048084 20.538314 5.0450251 22.029297 5 A 1 1 0 0 0 23 3.9707031 A 1 1 0 0 0 21.970703 3 z M 7 5.0820312 C 7.0545099 5.0879942 7.1072396 5.0947107 7.1582031 5.1015625 C 7.861859 5.1961665 8.1644005 5.3362755 8.4140625 5.5859375 C 8.6637245 5.8355995 8.8038333 6.138141 8.8984375 6.8417969 C 8.9052894 6.8927604 8.9120057 6.9454901 8.9179688 7 L 7 7 L 7 5.0820312 z M 14 7.5 A 1 1 0 0 0 13 8.5 L 13 10 A 1 1 0 0 0 14 11 A 1 1 0 0 0 15 10 L 15 8.5 A 1 1 0 0 0 14 7.5 z M 7 9 L 8.9980469 9 C 9.0002309 9.309913 9 9.6430469 9 10 L 9 11 L 7 11 L 7 9 z M 7 13 L 9 13 L 9 14 C 9 14.356952 9.0002311 14.690086 8.9980469 15 L 7 15 L 7 13 z M 14 13 A 1 1 0 0 0 13 14 L 13 15.5 A 1 1 0 0 0 14 16.5 A 1 1 0 0 0 15 15.5 L 15 14 A 1 1 0 0 0 14 13 z M 7 17 L 8.9179688 17 C 8.9120058 17.05451 8.9052893 17.10724 8.8984375 17.158203 C 8.8038335 17.861855 8.6637323 18.164388 8.4140625 18.414062 C 8.1643983 18.663732 7.8618566 18.803832 7.1582031 18.898438 C 7.1072396 18.90529 7.0545099 18.912006 7 18.917969 L 7 17 z M 14 18.5 A 1 1 0 0 0 13 19.5 L 13 21 A 1 1 0 0 0 14 22 A 1 1 0 0 0 15 21 L 15 19.5 A 1 1 0 0 0 14 18.5 z " fill="currentColor"/>
</svg>
