<svg xmlns="http://www.w3.org/2000/svg" width="1em" height="1em" viewBox="0 0 24 24" fill="currentColor">
  <path d="M 2 3 A 1 1 0 0 0 1 4 A 1 1 0 0 0 2 5 L 3.3320312 5 L 1.0117188 19.845703 A 1 1 0 0 0 1.8457031 20.988281 A 1 1 0 0 0 2.9882812 20.154297 L 4.5742188 10 L 19.425781 10 L 21.011719 20.154297 A 1 1 0 0 0 22.154297 20.988281 A 1 1 0 0 0 22.988281 19.845703 L 20.667969 5 L 22 5 A 1 1 0 0 0 23 4 A 1 1 0 0 0 22 3 L 2 3 z M 5.3554688 5 L 18.644531 5 L 19.113281 8 L 4.8867188 8 L 5.3554688 5 z " fill="currentColor"/>
</svg>
