<svg xmlns="http://www.w3.org/2000/svg" width="1em" height="1em" viewBox="0 0 24 24" fill="currentColor">
  <path d="M 12 1.5 C 9.76083 1.5 8.061073 1.4944581 6.6542969 1.6835938 C 5.2475207 1.8727295 4.0688969 2.2982969 3.1835938 3.1835938 C 2.2982969 4.0688968 1.8727295 5.2475207 1.6835938 6.6542969 C 1.598063 7.2904679 1.5517668 7.9868335 1.5273438 8.765625 A 1 1 0 0 0 1.5 9 A 1 1 0 0 0 1.5175781 9.1835938 C 1.4994339 10.021056 1.5 10.951168 1.5 12 C 1.5 12.337025 1.4995683 12.661183 1.5 12.974609 A 1 1 0 0 0 1.5 13 C 1.5020488 14.38671 1.5154649 15.550906 1.5996094 16.564453 A 1 1 0 0 0 1.5 17 A 1 1 0 0 0 1.7265625 17.632812 C 1.9339995 18.913032 2.3593354 19.992113 3.1835938 20.816406 C 4.0688995 21.70168 5.2475238 22.127276 6.6542969 22.316406 C 8.0610699 22.505536 9.76083 22.5 12 22.5 C 14.23915 22.5 15.938923 22.5055 17.345703 22.316406 C 18.752483 22.127277 19.931076 21.701673 20.816406 20.816406 C 21.640644 19.99211 22.066002 18.91303 22.273438 17.632812 A 1 1 0 0 0 22.5 17 A 1 1 0 0 0 22.400391 16.564453 C 22.484534 15.550908 22.497951 14.386709 22.5 13 A 1 1 0 0 0 22.5 12.974609 C 22.500432 12.661186 22.5 12.337022 22.5 12 C 22.5 10.951198 22.50057 10.021038 22.482422 9.1835938 A 1 1 0 0 0 22.5 9 A 1 1 0 0 0 22.472656 8.765625 C 22.448229 7.9868656 22.401915 7.2904447 22.316406 6.6542969 C 22.127276 5.2475238 21.70168 4.0688995 20.816406 3.1835938 C 19.931079 2.2983046 18.752486 1.8727291 17.345703 1.6835938 C 15.93892 1.4944584 14.23915 1.5 12 1.5 z M 12 3.5 C 14.23915 3.5 15.897908 3.50539 17.078125 3.6640625 C 18.258342 3.8227371 18.896371 4.0917053 19.402344 4.5976562 C 19.90827 5.1036005 20.177267 5.7416656 20.335938 6.921875 C 20.379345 7.2447415 20.412054 7.6034212 20.435547 8 L 12 8 L 3.5644531 8 C 3.5879456 7.6034208 3.6206544 7.244741 3.6640625 6.921875 C 3.8227368 5.7416686 4.091713 5.1036031 4.5976562 4.5976562 C 5.1036031 4.0917131 5.7416686 3.8227368 6.921875 3.6640625 C 8.1020814 3.5053882 9.76083 3.5 12 3.5 z M 3.5058594 10 L 11 10 L 11 12 L 3.5 12 C 3.5 11.273372 3.4996706 10.607866 3.5058594 10 z M 13 10 L 20.494141 10 C 20.50033 10.607866 20.5 11.273372 20.5 12 L 13 12 L 13 10 z M 3.5058594 14 L 11 14 L 11 16 L 3.5644531 16 C 3.5299378 15.417344 3.5135247 14.752882 3.5058594 14 z M 13 14 L 20.494141 14 C 20.486474 14.752882 20.470062 15.417344 20.435547 16 L 13 16 L 13 14 z M 3.8378906 18 L 11 18 L 11 20.5 C 9.2579924 20.495584 7.919106 20.470008 6.921875 20.335938 C 5.7416656 20.177267 5.1036004 19.90827 4.5976562 19.402344 C 4.2425453 19.047217 4.0033203 18.627038 3.8378906 18 z M 13 18 L 20.162109 18 C 19.996676 18.62704 19.757442 19.047219 19.402344 19.402344 C 18.896374 19.908277 18.258345 20.177267 17.078125 20.335938 C 16.080886 20.470008 14.741994 20.495584 13 20.5 L 13 18 z " fill="currentColor"/>
</svg>
