<svg xmlns="http://www.w3.org/2000/svg" width="1em" height="1em" viewBox="0 0 24 24" fill="currentColor">
  <path d="M 11.173828 2 C 9.0117432 2 7.3699802 1.9943989 6.0097656 2.1738281 C 4.6495511 2.3532573 3.5056868 2.7566753 2.6425781 3.6035156 C 1.7794741 4.4503577 1.3614557 5.5850272 1.1777344 6.9257812 C 0.99401303 8.2665353 1 9.87868 1 12 C 1 14.1213 0.99401298 15.733454 1.1777344 17.074219 C 1.3614553 18.414984 1.7794626 19.549644 2.6425781 20.396484 C 3.5056881 21.243313 4.6495527 21.646746 6.0097656 21.826172 C 7.3699786 22.005598 9.0117432 22 11.173828 22 L 13.210938 22 C 15.372986 22 17.014803 22.0056 18.375 21.826172 C 19.735197 21.646745 20.877104 21.243295 21.740234 20.396484 C 22.329122 19.818648 22.726076 19.091038 22.960938 18.277344 A 1 1 0 0 0 22.277344 17.039062 A 1 1 0 0 0 21.039062 17.722656 C 20.876126 18.287162 20.667557 18.647187 20.339844 18.96875 C 19.859574 19.439939 19.250959 19.693677 18.113281 19.84375 C 16.975604 19.993823 15.372987 20 13.210938 20 L 11.173828 20 C 9.6988281 20 8.4842362 19.996743 7.5 19.947266 L 7.5 4.0527344 C 8.484236 4.0032574 9.6988285 4 11.173828 4 L 13.210938 4 C 15.372987 4 16.975605 4.00617 18.113281 4.15625 C 19.250957 4.3063255 19.859573 4.5600523 20.339844 5.03125 C 20.667544 5.3527933 20.876126 5.7128644 21.039062 6.2773438 A 1 1 0 0 0 22.277344 6.9609375 A 1 1 0 0 0 22.960938 5.7226562 C 22.726075 4.9089957 22.329135 4.1813523 21.740234 3.6035156 C 20.877106 2.7566934 19.735199 2.3532576 18.375 2.1738281 C 17.014801 1.9943987 15.372986 2 13.210938 2 L 11.173828 2 z M 5.5 4.2929688 L 5.5 19.707031 C 4.8319857 19.550311 4.4012061 19.32023 4.0429688 18.96875 C 3.5627543 18.49759 3.3103147 17.912819 3.1582031 16.802734 C 3.0060916 15.692649 3 14.1213 3 12 C 3 9.87868 3.0060919 8.3073366 3.1582031 7.1972656 C 3.3103143 6.0871947 3.5627429 5.5024279 4.0429688 5.03125 C 4.401207 4.679764 4.8319868 4.4496875 5.5 4.2929688 z M 17 8 C 14.771525 8 12.742691 8.9260122 11.285156 10.414062 A 1 1 0 0 0 11.300781 11.828125 A 1 1 0 0 0 12.714844 11.814453 C 13.816504 10.689721 15.323275 10 17 10 C 18.676725 10 20.183491 10.689723 21.285156 11.814453 A 1 1 0 0 0 22.699219 11.828125 A 1 1 0 0 0 22.714844 10.414062 C 21.257304 8.9260142 19.228475 8 17 8 z M 17 11.609375 C 15.747829 11.609375 14.602893 12.131933 13.785156 12.966797 A 1 1 0 0 0 13.800781 14.380859 A 1 1 0 0 0 15.214844 14.367188 C 15.676702 13.89565 16.299571 13.609375 17 13.609375 C 17.700429 13.609375 18.323293 13.895651 18.785156 14.367188 A 1 1 0 0 0 20.199219 14.380859 A 1 1 0 0 0 20.214844 12.966797 C 19.397102 12.131934 18.252171 11.609375 17 11.609375 z M 17 14.800781 C 16.403737 14.800781 15.900391 15.304128 15.900391 15.900391 C 15.900391 16.496653 16.403737 17 17 17 C 17.596263 17 18.099609 16.496653 18.099609 15.900391 C 18.099609 15.304128 17.596263 14.800781 17 14.800781 z M 16.828125 15.072266 A 1 1 0 0 0 16.171875 15.728516 C 16.249165 15.393278 16.492888 15.149559 16.828125 15.072266 z M 17.259766 15.109375 C 17.520463 15.201075 17.699315 15.379928 17.791016 15.640625 A 1 1 0 0 0 17.259766 15.109375 z M 16.173828 16.074219 A 1 1 0 0 0 16.826172 16.726562 C 16.493039 16.648772 16.251889 16.407263 16.173828 16.074219 z M 17.789062 16.162109 C 17.697022 16.42062 17.520358 16.597723 17.261719 16.689453 A 1 1 0 0 0 17.789062 16.162109 z " fill="currentColor"/>
</svg>
