<svg xmlns="http://www.w3.org/2000/svg" width="1em" height="1em" viewBox="0 0 24 24" fill="currentColor">
  <path d="M 15.671875 1 C 15.011716 1.0014129 14.345644 1.0661359 13.691406 1.1816406 C 11.074456 1.6436597 8.5425341 2.9049476 6.8398438 4.6054688 C 6.0835844 5.36076 5.6073556 6.261659 5.3671875 7.2265625 A 1 1 0 0 0 5.2929688 7.2929688 A 1 1 0 0 0 5.1816406 8.5742188 C 5.1350441 9.9293746 5.4795631 11.336524 6.1074219 12.599609 C 6.3619853 13.111678 6.4426887 13.391638 6.4277344 13.455078 C 6.326247 13.885624 5.7192019 14.660835 4.8339844 15.376953 C 3.9487669 16.093071 2.8511308 16.776618 1.9550781 17.339844 C -1.3270026 19.40269 4.5638594 25.310981 6.6386719 22.019531 C 7.2026193 21.12488 7.8863196 20.03022 8.6035156 19.146484 C 9.3207116 18.262749 10.096336 17.656446 10.529297 17.554688 C 10.594707 17.539317 10.877406 17.620707 11.390625 17.875 C 12.649329 18.49902 14.050396 18.841741 15.400391 18.798828 A 1 1 0 0 0 16.707031 18.707031 A 1 1 0 0 0 16.794922 18.607422 C 17.75033 18.365345 18.64129 17.890881 19.390625 17.142578 C 21.093716 15.441954 22.356042 12.911191 22.818359 10.296875 C 23.280677 7.6825594 22.919031 4.8870414 21.013672 2.984375 C 19.583527 1.5562591 17.652351 0.99576141 15.671875 1 z M 15.65625 3 C 16.17967 2.9979356 16.683633 3.0448743 17.160156 3.1445312 C 18.113204 3.3438451 18.952189 3.7538894 19.599609 4.4003906 C 20.89225 5.6912043 21.238692 7.7490343 20.849609 9.9492188 C 20.460527 12.149403 19.313425 14.393585 17.978516 15.726562 C 17.466207 16.238165 16.82968 16.56091 16.125 16.710938 L 7.2695312 7.8554688 C 7.4205172 7.1576019 7.7430345 6.5277985 8.2519531 6.0195312 C 9.5869928 4.6861925 11.835504 3.5394258 14.039062 3.1503906 C 14.589951 3.0531319 15.13283 3.0020644 15.65625 3 z M 7.5898438 11.003906 L 12.970703 16.384766 C 12.738612 16.296936 12.507036 16.195904 12.277344 16.082031 C 11.814163 15.852528 11.067859 15.373396 10.072266 15.607422 C 8.7998963 15.906464 7.8810702 16.861676 7.0507812 17.884766 C 6.2204923 18.907855 5.5042151 20.066477 4.9453125 20.953125 C 4.579985 21.532675 2.5944779 19.300357 3.0195312 19.033203 C 3.9073885 18.475129 5.0671569 17.760548 6.0917969 16.931641 C 7.1164369 16.102734 8.0731543 15.186316 8.3730469 13.914062 C 8.6077725 12.918301 8.1283741 12.171515 7.8984375 11.708984 C 7.7824834 11.475716 7.678866 11.239588 7.5898438 11.003906 z " fill="currentColor"/>
</svg>
