<svg xmlns="http://www.w3.org/2000/svg" width="1em" height="1em" viewBox="0 0 24 24" fill="currentColor">
  <path d="M 3.9707031 1 A 1 1 0 0 0 3 2.0292969 C 3.0487948 3.6451633 3.2363852 4.9122028 4.15625 5.8300781 C 4.7864278 6.4588891 5.6326852 6.7558577 6.5644531 6.8808594 C 6.9438136 6.9317526 7.3472914 6.9617795 7.7890625 6.9785156 A 1 1 0 0 0 8 7 A 1 1 0 0 0 8.1503906 6.9882812 C 8.7008774 7.0010826 9.3093666 7 9.9960938 7 L 14.003906 7 C 14.690639 7 15.299127 7.0010826 15.849609 6.9882812 A 1 1 0 0 0 16 7 A 1 1 0 0 0 16.210938 6.9785156 C 16.652705 6.9617795 17.056183 6.9317521 17.435547 6.8808594 C 18.367323 6.7558581 19.213566 6.4588885 19.84375 5.8300781 C 20.763635 4.9121966 20.951216 3.6451573 21 2.0292969 A 1 1 0 0 0 20.029297 1 A 1 1 0 0 0 19 1.9707031 C 18.954984 3.4617427 18.795202 4.049344 18.429688 4.4140625 C 18.179272 4.6639321 17.875595 4.8037688 17.169922 4.8984375 C 17.115308 4.9057642 17.058673 4.911656 17 4.9179688 L 17 2 A 1 1 0 0 0 16 1 A 1 1 0 0 0 15 2 L 15 4.9980469 C 14.69111 5.0001886 14.359273 5 14.003906 5 L 13 5 L 13 2 A 1 1 0 0 0 12 1 A 1 1 0 0 0 11 2 L 11 5 L 9.9960938 5 C 9.6407295 5 9.3088917 5.0001887 9 4.9980469 L 9 2 A 1 1 0 0 0 8 1 A 1 1 0 0 0 7 2 L 7 4.9179688 C 6.941327 4.911656 6.8846921 4.9057642 6.8300781 4.8984375 C 6.124416 4.8037692 5.8207247 4.6639316 5.5703125 4.4140625 C 5.2047973 4.0493379 5.0450252 3.4617367 5 1.9707031 A 1 1 0 0 0 3.9707031 1 z M 3 9 A 1 1 0 0 0 2 10 A 1 1 0 0 0 3 11 L 4.5 11 A 1 1 0 0 0 5.5 10 A 1 1 0 0 0 4.5 9 L 3 9 z M 8.5 9 A 1 1 0 0 0 7.5 10 A 1 1 0 0 0 8.5 11 L 10 11 A 1 1 0 0 0 11 10 A 1 1 0 0 0 10 9 L 8.5 9 z M 14 9 A 1 1 0 0 0 13 10 A 1 1 0 0 0 14 11 L 15.5 11 A 1 1 0 0 0 16.5 10 A 1 1 0 0 0 15.5 9 L 14 9 z M 19.5 9 A 1 1 0 0 0 18.5 10 A 1 1 0 0 0 19.5 11 L 21 11 A 1 1 0 0 0 22 10 A 1 1 0 0 0 21 9 L 19.5 9 z M 8 13 A 1 1 0 0 0 7.7890625 13.023438 C 7.3516341 13.040228 6.9502548 13.068583 6.5742188 13.119141 C 5.6439897 13.24421 4.8008908 13.542845 4.171875 14.171875 C 3.5428648 14.800899 3.2442065 15.643996 3.1191406 16.574219 C 3.0685843 16.95025 3.0402279 17.351635 3.0234375 17.789062 A 1 1 0 0 0 3 18 A 1 1 0 0 0 3.0117188 18.152344 C 2.9987629 18.70367 3 19.312069 3 20 L 3 22 A 1 1 0 0 0 4 23 A 1 1 0 0 0 5 22 L 5 20 C 5 19.643048 4.9997689 19.309914 5.0019531 19 L 7 19 L 7 22 A 1 1 0 0 0 8 23 A 1 1 0 0 0 9 22 L 9 19 L 11 19 L 11 22 A 1 1 0 0 0 12 23 A 1 1 0 0 0 13 22 L 13 19 L 15 19 L 15 22 A 1 1 0 0 0 16 23 A 1 1 0 0 0 17 22 L 17 19 L 18.998047 19 C 19.000231 19.309914 19 19.643049 19 20 L 19 22 A 1 1 0 0 0 20 23 A 1 1 0 0 0 21 22 L 21 20 C 21 19.312091 21.001239 18.703656 20.988281 18.152344 A 1 1 0 0 0 21 18 A 1 1 0 0 0 20.976562 17.789062 C 20.95977 17.35166 20.931403 16.950233 20.880859 16.574219 C 20.75579 15.643994 20.457147 14.800897 19.828125 14.171875 C 19.199103 13.542853 18.356006 13.24421 17.425781 13.119141 C 17.049748 13.068583 16.648367 13.040228 16.210938 13.023438 A 1 1 0 0 0 16 13 A 1 1 0 0 0 15.847656 13.011719 C 15.296328 12.998763 14.687933 13 14 13 L 10 13 C 9.312061 13 8.7036684 12.998763 8.1523438 13.011719 A 1 1 0 0 0 8 13 z M 10 15 L 11 15 L 11 17 L 9 17 L 9 15.001953 C 9.3099131 14.999769 9.643047 15 10 15 z M 13 15 L 14 15 C 14.356951 15 14.690086 14.999766 15 15.001953 L 15 17 L 13 17 L 13 15 z M 7 15.082031 L 7 17 L 5.0820312 17 C 5.0879942 16.94549 5.0947107 16.89276 5.1015625 16.841797 C 5.1961665 16.138145 5.3362677 15.835613 5.5859375 15.585938 C 5.8356017 15.336267 6.1381434 15.196167 6.8417969 15.101562 C 6.8927604 15.09471 6.9454901 15.087994 7 15.082031 z M 17 15.082031 C 17.05451 15.087992 17.10724 15.094714 17.158203 15.101562 C 17.861853 15.196162 18.164385 15.33626 18.414062 15.585938 C 18.66374 15.835615 18.803832 16.138147 18.898438 16.841797 C 18.90529 16.89276 18.912006 16.94549 18.917969 17 L 17 17 L 17 15.082031 z " fill="currentColor"/>
</svg>
