<svg xmlns="http://www.w3.org/2000/svg" width="1em" height="1em" viewBox="0 0 24 24" fill="currentColor">
  <path d="M 7.4101562 0 A 1 1 0 0 0 7.3046875 0.001953125 C 6.9281734 -0.012979696 6.5615984 0.082371633 6.2480469 0.26171875 L 3.6621094 1.7421875 C 2.8886502 2.1846244 2.4839375 3.1197083 2.7402344 3.9980469 C 3.3819041 6.1970802 4.1464834 8.4597679 3.4082031 9.9746094 C 3.1963787 10.409211 2.885042 10.841408 2.5820312 11.394531 C 2.2790204 11.947654 2 12.652056 2 13.496094 C 2 15.04756 2.7962922 16.423355 4 17.234375 L 4 22 A 1 1 0 0 0 5 23 A 1 1 0 0 0 6 22 L 6 17.972656 C 6.1642439 17.991073 6.3310781 18 6.5 18 A 1 1 0 0 0 7.5 17 A 1 1 0 0 0 6.5 16 C 5.1080705 16 4 14.891107 4 13.496094 C 4 13.064832 4.1145633 12.759571 4.3359375 12.355469 C 4.5573117 11.951367 4.9005557 11.48036 5.2070312 10.851562 C 6.4508078 8.2995172 5.2750278 5.5323197 4.6699219 3.4707031 L 6.0351562 2.6894531 C 6.0328848 2.7159538 6.0293942 2.7429528 6.0273438 2.7695312 A 1 1 0 0 0 6.0078125 3.1152344 C 6.0026559 3.2429593 6 3.3707464 6 3.5 C 6 5.502787 6.6171761 7.3339701 7.671875 8.7050781 C 8.7265739 10.076186 10.268003 11 12 11 C 13.731989 11 15.273424 10.076185 16.328125 8.7050781 C 17.382826 7.3339712 18 5.5027888 18 3.5 C 18 3.3707427 17.997343 3.242963 17.992188 3.1152344 A 1 1 0 0 0 17.972656 2.7695312 C 17.970605 2.7429429 17.967116 2.7159637 17.964844 2.6894531 L 19.330078 3.4707031 C 18.72493 5.5323337 17.54918 8.2995173 18.792969 10.851562 C 19.099442 11.480355 19.442694 11.951368 19.664062 12.355469 C 19.885433 12.75957 20 13.064827 20 13.496094 C 20 14.891121 18.891917 16 17.5 16 A 1 1 0 0 0 16.5 17 A 1 1 0 0 0 17.5 18 C 17.668922 18 17.835756 17.991074 18 17.972656 L 18 22 A 1 1 0 0 0 19 23 A 1 1 0 0 0 20 22 L 20 17.234375 C 21.203706 16.423352 22 15.047551 22 13.496094 C 22 12.652061 21.720974 11.947655 21.417969 11.394531 C 21.114963 10.841407 20.803624 10.409216 20.591797 9.9746094 C 19.853509 8.4597678 20.618059 6.1970661 21.259766 3.9980469 C 21.516052 3.1196732 21.111362 2.1845975 20.337891 1.7421875 L 17.751953 0.26171875 C 17.438495 0.08246765 17.071839 -0.012975821 16.695312 0.001953125 A 1 1 0 0 0 16.376953 0.02734375 C 14.943766 0.17176829 13.316715 0.68790178 12 1.8164062 C 10.683293 0.68790456 9.056221 0.17176915 7.6230469 0.02734375 A 1 1 0 0 0 7.4101562 0 z M 8.1328125 2.1015625 C 9.3540648 2.2924612 10.507547 2.7210379 11.21875 3.6113281 A 1.0001 1.0001 0 0 0 12.78125 3.6113281 C 13.492454 2.721037 14.645922 2.2924608 15.867188 2.1015625 C 15.882068 2.1786074 15.895734 2.2575349 15.908203 2.3359375 C 14.187415 3.1377194 13 4.8910663 13 6.9082031 C 13 7.5327093 13.113624 8.1342253 13.322266 8.6894531 C 12.903256 8.8938483 12.459141 9 12 9 C 11.540859 9 11.096739 8.8938437 10.677734 8.6894531 C 10.88638 8.1342159 11 7.5327058 11 6.9082031 C 11 4.8910633 9.8125629 3.1377219 8.0917969 2.3359375 C 8.1042665 2.2575334 8.1179315 2.1786096 8.1328125 2.1015625 z M 8.1054688 4.7441406 C 8.6569296 5.2925665 9 6.0559387 9 6.9082031 C 9 6.975689 8.9983649 7.0431597 8.9941406 7.109375 C 8.5747277 6.4504374 8.25956 5.6416188 8.1054688 4.7441406 z M 15.894531 4.7441406 C 15.740442 5.6416261 15.425276 6.4504322 15.005859 7.109375 C 15.001635 7.0431594 15 6.975689 15 6.9082031 C 15 6.0559238 15.343063 5.2925655 15.894531 4.7441406 z M 12.083984 14.791016 C 11.310861 14.777106 10.508527 14.944059 9.6054688 15.332031 A 1 1 0 0 0 9.0820312 16.644531 A 1 1 0 0 0 10.394531 17.167969 C 11.910414 16.516714 12.230845 16.593252 13.613281 17.171875 A 1 1 0 0 0 14.921875 16.636719 A 1 1 0 0 0 14.386719 15.328125 C 13.601437 14.999439 12.857108 14.804922 12.083984 14.791016 z " fill="currentColor"/>
</svg>
