<svg xmlns="http://www.w3.org/2000/svg" width="1em" height="1em" viewBox="0 0 24 24" fill="currentColor">
  <path d="M 10.316406 1 C 7.5668344 1 5.3164062 3.2504204 5.3164062 6 A 1 1 0 0 0 6.3164062 7 A 1 1 0 0 0 7.3164062 6 C 7.3164062 4.3312996 8.6477186 3 10.316406 3 C 11.985057 3 13.316406 4.3313116 13.316406 6 A 1 1 0 0 0 14.316406 7 A 1 1 0 0 0 15.316406 6 C 15.316406 3.2504084 13.065956 1 10.316406 1 z M 10.357422 3.5 C 8.903767 3.5 7.7109375 4.7056719 7.7109375 6.1582031 L 7.7109375 12.710938 L 7.3554688 12.404297 C 6.2338644 11.436571 4.4977105 11.602068 3.5761719 12.761719 C 2.8061885 13.730459 2.8106756 15.11714 3.5878906 16.080078 L 6.75 19.996094 C 7.7264 21.205694 8.2804988 21.93287 9.1679688 22.417969 C 9.3165633 22.499169 9.4682851 22.571701 9.625 22.636719 C 10.559069 23.024333 11.473084 23 13.021484 23 L 14.007812 23 C 15.172512 23 15.837778 23.01667 16.542969 22.8125 C 17.606323 22.504793 18.529575 21.83565 19.154297 20.919922 C 19.568324 20.313013 19.762571 19.672613 20.130859 18.560547 C 20.708802 16.815168 21 16.005259 21 14.869141 C 21 13.107811 19.94755 11.778574 18.695312 11.023438 C 17.787321 10.475915 16.781876 10.3698 14.966797 10.095703 L 14.976562 10.095703 L 13.003906 9.7792969 L 13.003906 6.1582031 C 13.003906 4.705675 11.811041 3.5 10.357422 3.5 z M 10.357422 5.5 C 10.723003 5.5 11.003906 5.7794712 11.003906 6.1582031 L 11.003906 10.630859 A 1.0001 1.0001 0 0 0 11.845703 11.619141 L 14.658203 12.070312 A 1.0001 1.0001 0 0 0 14.667969 12.072266 C 16.483089 12.346369 17.291501 12.51285 17.662109 12.736328 C 18.521838 13.254744 19 13.83847 19 14.869141 C 19 15.677822 18.815279 16.173373 18.232422 17.933594 C 17.864798 19.043555 17.688356 19.517773 17.501953 19.791016 C 17.137875 20.324688 16.601773 20.714485 15.986328 20.892578 C 15.671919 20.983608 15.172512 21 14.007812 21 L 13.021484 21 C 11.473084 21 10.83691 20.9754 10.392578 20.791016 C 10.301988 20.753436 10.213318 20.709306 10.126953 20.662109 C 9.7041631 20.431008 9.2810875 19.949834 8.3046875 18.740234 L 5.1445312 14.824219 C 4.9502863 14.583557 4.9482322 14.247919 5.140625 14.005859 A 1.0001 1.0001 0 0 0 5.1425781 14.005859 C 5.3777595 13.709911 5.7645524 13.672694 6.0488281 13.917969 L 8.0566406 15.652344 A 1.0001 1.0001 0 0 0 9.7109375 14.894531 L 9.7109375 6.1582031 C 9.7109375 5.7794944 9.9917366 5.5 10.357422 5.5 z " fill="currentColor"/>
</svg>
