<svg xmlns="http://www.w3.org/2000/svg" width="1em" height="1em" viewBox="0 0 24 24" fill="currentColor">
  <path d="M 9.2832031 1.4980469 C 7.9262856 1.4980469 6.78125 2.6032982 6.78125 3.9785156 L 6.78125 9.0722656 C 6.215426 9.6002482 5.6378193 10.155442 5.171875 10.648438 C 4.8914791 10.945111 4.6457335 11.21724 4.4472656 11.453125 C 4.2688395 11.665189 4.1469506 11.81629 4.0136719 12.0625 C 3.5340673 12.800498 3.2037668 13.5433 3.2578125 14.353516 C 3.31273 15.1768 3.68073 15.877023 4.1972656 16.740234 C 4.6344037 17.47077 5.1360506 18.221711 5.5390625 18.806641 C 5.7405684 19.099105 5.9165222 19.349155 6.0488281 19.533203 C 6.1149811 19.625223 6.1701749 19.70009 6.2128906 19.757812 C 6.2556066 19.815532 6.2278376 19.795242 6.3378906 19.919922 C 6.9645868 20.630079 6.999195 20.798064 8.0058594 21.537109 A 1.0001 1.0001 0 0 0 8.0273438 21.552734 C 9.2481718 22.399945 11.270442 22.756892 15.582031 22.328125 A 1.0001 1.0001 0 0 0 15.634766 22.320312 C 17.621883 22.013375 18.980167 20.924506 19.742188 19.726562 C 20.50421 18.52862 20.735994 17.274193 20.724609 16.357422 L 20.724609 12.847656 C 20.777867 12.06716 20.746314 11.416151 20.583984 10.833984 C 20.417825 10.238097 20.079033 9.7136563 19.632812 9.3652344 C 18.841323 8.7472155 17.933388 8.6447824 16.964844 8.5273438 C 16.511858 8.0275093 15.939223 7.6786575 15.373047 7.5390625 C 14.911772 7.4253316 14.448475 7.4691579 13.984375 7.5996094 C 13.588493 7.1371011 13.113562 6.7819801 12.591797 6.6210938 C 12.32431 6.5386141 12.03451 6.5915622 11.748047 6.5898438 L 11.748047 3.9785156 C 11.748047 2.633541 10.64011 1.4980469 9.2832031 1.4980469 z M 9.2832031 3.4980469 C 9.565616 3.4980469 9.7480469 3.6843103 9.7480469 3.9785156 L 9.7480469 7.9746094 L 9.7480469 10.498047 A 1 1 0 0 0 10.748047 11.498047 A 1 1 0 0 0 11.748047 10.498047 L 11.748047 8.5097656 C 11.801737 8.4978556 11.804397 8.4716861 12.003906 8.5332031 C 12.317652 8.6299471 12.632932 8.8638463 12.75 9.3730469 A 1 1 0 0 0 12.751953 9.375 C 12.752676 9.37817 12.754106 9.3856536 12.753906 9.3847656 L 12.751953 9.3847656 L 12.751953 9.3867188 C 12.752295 9.3876086 12.755458 9.3915863 12.755859 9.3925781 L 12.755859 9.3945312 L 12.755859 9.3964844 A 1 1 0 0 0 12.755859 9.3984375 L 12.755859 9.4003906 C 12.758259 9.4176816 12.759766 9.4491716 12.759766 9.4941406 L 12.759766 10.494141 A 1 1 0 0 0 13.759766 11.494141 A 1 1 0 0 0 14.759766 10.494141 L 14.759766 9.4941406 C 14.759766 9.4889106 14.757913 9.4818545 14.757812 9.4765625 C 14.819242 9.4786925 14.821283 9.4643609 14.894531 9.4824219 C 15.322358 9.5879059 15.702406 9.8297273 15.738281 10.402344 L 15.738281 11.490234 A 1 1 0 0 0 16.738281 12.490234 A 1 1 0 0 0 17.738281 11.490234 L 17.738281 10.785156 C 17.909534 10.839086 18.328968 10.884116 18.402344 10.941406 C 18.515974 11.030136 18.584165 11.10557 18.658203 11.371094 C 18.732243 11.636617 18.774994 12.091972 18.726562 12.757812 A 1.0001 1.0001 0 0 0 18.724609 12.830078 L 18.724609 16.369141 A 1.0001 1.0001 0 0 0 18.724609 16.380859 C 18.731009 16.897488 18.558966 17.859587 18.054688 18.652344 C 17.552457 19.441882 16.781677 20.111294 15.34375 20.337891 C 11.26783 20.737684 9.691193 20.265141 9.1757812 19.910156 C 8.2738091 19.246899 8.5443915 19.396293 7.8378906 18.595703 C 7.9314816 18.70173 7.8551695 18.615459 7.8203125 18.568359 C 7.7854555 18.521259 7.7357995 18.451441 7.6738281 18.365234 C 7.5499448 18.192819 7.3791434 17.95286 7.1855469 17.671875 C 6.7983538 17.109905 6.3157344 16.384155 5.9140625 15.712891 C 5.4430182 14.925702 5.2707839 14.473719 5.2539062 14.220703 C 5.2370282 13.967687 5.3036462 13.722151 5.6972656 13.123047 A 1.0001 1.0001 0 0 0 5.7578125 13.017578 C 5.7491091 13.035186 5.7449811 13.045192 5.7441406 13.048828 L 5.7460938 13.048828 C 5.762517 13.031619 5.857503 12.884065 5.9785156 12.740234 C 6.1398662 12.548465 6.3656803 12.297926 6.6269531 12.021484 C 6.6710411 11.974834 6.735186 11.91916 6.78125 11.871094 L 6.78125 13.957031 A 1 1 0 0 0 7.78125 14.957031 A 1 1 0 0 0 8.78125 13.957031 L 8.78125 9.4941406 L 8.78125 3.9785156 C 8.78125 3.714553 9.0007407 3.4980469 9.2832031 3.4980469 z " fill="currentColor"/>
</svg>
