<svg xmlns="http://www.w3.org/2000/svg" width="1em" height="1em" viewBox="0 0 24 24" fill="currentColor">
  <path d="M 9 4 C 6.9318951 4 5.0522469 4.4064945 3.6035156 5.1308594 C 2.1547843 5.8552243 1 6.9930603 1 8.5 C 1 8.6070325 1.0062354 8.7131137 1.0175781 8.8164062 A 1 1 0 0 0 1 9 L 1 15.666016 C 1 17.153943 2.1760819 18.237683 3.6210938 18.925781 C 5.0661056 19.613879 6.9383273 20 9 20 L 10 20 L 14 20 L 18 20 L 20 20 C 20.4714 20 20.844869 20.006898 21.230469 19.955078 C 21.616069 19.903238 22.07794 19.750186 22.414062 19.414062 C 22.750186 19.077941 22.903234 18.616069 22.955078 18.230469 C 23.006922 17.844867 23 17.4714 23 17 L 23 14 C 23 13.5286 23.006898 13.155131 22.955078 12.769531 C 22.903238 12.383931 22.750186 11.922059 22.414062 11.585938 C 22.077939 11.249814 21.616069 11.096766 21.230469 11.044922 C 20.844869 10.993078 20.4714 11 20 11 L 15.724609 11 C 16.490472 10.337951 17 9.5002918 17 8.5 C 17 6.993062 15.845215 5.8552246 14.396484 5.1308594 C 12.947754 4.4064942 11.06811 4 9 4 z M 9 6 C 10.79789 6 12.417184 6.3775371 13.501953 6.9199219 C 14.586723 7.4623067 15 8.073938 15 8.5 C 15 8.926062 14.586723 9.5376934 13.501953 10.080078 C 12.622656 10.519727 11.392149 10.851191 10 10.960938 L 10 9.9785156 C 10 9.4814206 10.0102 9.0827486 9.9355469 8.6523438 C 9.8608938 8.2219388 9.6172062 7.7001275 9.2089844 7.3886719 C 8.8357526 7.1039028 8.2970674 6.9742808 7.8828125 7.0058594 C 7.4685576 7.0374379 7.1401338 7.1463356 6.7460938 7.2597656 C 6.0385971 7.4634308 5.4136112 7.7571965 4.9101562 8.1855469 C 4.4472526 8.5793954 4.0662028 9.1417441 4.0078125 9.8027344 C 3.2863499 9.3379375 3 8.854613 3 8.5 C 3 8.0739397 3.4132757 7.462307 4.4980469 6.9199219 C 5.5828181 6.3775368 7.2021149 6 9 6 z M 7.9648438 9.0195312 C 7.9882011 9.1685372 8 9.4942262 8 9.9785156 L 8 10.796875 C 7.5111092 10.70923 6.9365431 10.674043 6.6230469 10.515625 C 6.0988371 10.250728 6.0053173 10.014108 6 9.9785156 C 6 9.962726 6.0010837 9.884209 6.2070312 9.7089844 C 6.4129789 9.5337598 6.7980947 9.3257854 7.2988281 9.1816406 C 7.6551892 9.079057 7.861982 9.0345857 7.9648438 9.0195312 z M 3 11.53125 C 3.193407 11.652222 3.3954292 11.765097 3.6035156 11.869141 C 4.8346526 12.484709 6.3870705 12.853009 8.0917969 12.955078 C 8.3865809 12.984839 8.689719 13 9 13 L 20 13 C 20.4714 13 20.805819 13.006004 20.964844 13.027344 C 20.967192 13.02766 20.970411 13.02704 20.972656 13.027344 C 20.97296 13.029589 20.97234 13.032807 20.972656 13.035156 C 20.994029 13.194177 21 13.5286 21 14 L 21 17 C 21 17.4714 20.993996 17.805819 20.972656 17.964844 C 20.972341 17.967191 20.97296 17.970413 20.972656 17.972656 C 20.970411 17.97296 20.967193 17.97234 20.964844 17.972656 C 20.805823 17.994033 20.4714 18 20 18 L 19 18 L 19 17 A 1 1 0 0 0 18 16 A 1 1 0 0 0 17 17 L 17 18 L 15 18 L 15 17 A 1 1 0 0 0 14 16 A 1 1 0 0 0 13 17 L 13 18 L 11 18 L 11 17 A 1 1 0 0 0 10 16 A 1 1 0 0 0 9 17 L 9 18 C 8.2995343 18 7.6258341 17.946429 7 17.849609 L 7 16.5 A 1 1 0 0 0 6 15.5 A 1 1 0 0 0 5 16.5 L 5 17.341797 C 4.815734 17.272427 4.6421628 17.198091 4.4804688 17.121094 C 3.3919781 16.602767 3 16.018988 3 15.666016 L 3 11.53125 z " fill="currentColor"/>
</svg>
