<svg xmlns="http://www.w3.org/2000/svg" width="1em" height="1em" viewBox="0 0 24 24" fill="currentColor">
  <path d="M 9.4960938 1 C 8.4669509 1 7.5721444 1.6400091 7.1914062 2.5390625 C 5.9408122 2.6316743 4.9337643 2.8884894 4.1679688 3.6542969 C 3.5389494 4.2833162 3.2402988 5.1283643 3.1152344 6.0585938 C 2.99017 6.9888232 2.9960886 8.0682063 2.9960938 9.4824219 L 2.9960938 16 C 2.9960986 17.414199 2.9901638 18.495559 3.1152344 19.425781 C 3.2403016 20.356003 3.5389586 21.199101 4.1679688 21.828125 C 4.7969954 22.457094 5.6400968 22.755806 6.5703125 22.880859 C 7.5005282 23.005913 8.5818837 23 9.9960938 23 L 13.996094 23 C 15.410294 23 16.491662 23.0059 17.421875 22.880859 C 18.352088 22.755806 19.195186 22.457087 19.824219 21.828125 C 20.453241 21.199103 20.751884 20.356018 20.876953 19.425781 C 21.002022 18.495544 20.996094 17.41425 20.996094 16 L 20.996094 9.4824219 C 20.996094 8.0682269 21.001994 6.988814 20.876953 6.0585938 C 20.751884 5.1283736 20.453246 4.28331 19.824219 3.6542969 C 19.058419 2.8885097 18.051433 2.6316824 16.800781 2.5390625 C 16.420044 1.6400016 15.525235 1 14.496094 1 L 9.4960938 1 z M 9.4960938 3 L 14.496094 3 C 14.773996 3 14.981988 3.1980499 14.996094 3.4707031 C 14.996299 3.4746694 14.995971 3.4784242 14.996094 3.4824219 A 1 1 0 0 0 14.996094 3.5 C 14.996094 3.5060952 14.996282 3.5115523 14.996094 3.5175781 C 14.987367 3.7962465 14.777943 4 14.496094 4 L 9.4960938 4 C 9.2142117 4 9.0048197 3.7962606 8.9960938 3.5175781 C 8.9959051 3.5115517 8.9960937 3.5060958 8.9960938 3.5 A 1 1 0 0 0 8.9960938 3.4824219 C 8.9962168 3.478424 8.9958886 3.4746696 8.9960938 3.4707031 C 9.0101971 3.1980367 9.2181595 3 9.4960938 3 z M 7.2265625 4.5410156 C 7.6254893 5.3975914 8.497875 6 9.4960938 6 L 14.496094 6 C 15.494311 6 16.366699 5.3975982 16.765625 4.5410156 C 17.686774 4.6166041 18.119276 4.7774837 18.410156 5.0683594 C 18.659829 5.3180262 18.799926 5.6205765 18.894531 6.3242188 C 18.989141 7.0278611 18.996094 8.0682269 18.996094 9.4824219 L 18.996094 16 C 18.996094 17.41425 18.989094 18.45454 18.894531 19.158203 C 18.799921 19.861866 18.659834 20.164385 18.410156 20.414062 C 18.160489 20.663701 17.857959 20.803842 17.154297 20.898438 C 16.450635 20.993035 15.410294 21 13.996094 21 L 9.9960938 21 C 8.5818836 21 7.541555 20.993035 6.8378906 20.898438 C 6.1342263 20.803841 5.8316846 20.663693 5.5820312 20.414062 C 5.3323614 20.164388 5.1922615 19.861856 5.0976562 19.158203 C 5.003051 18.45455 4.9960988 17.414201 4.9960938 16 L 4.9960938 9.4824219 C 4.9960888 8.0682075 5.0030533 7.0278768 5.0976562 6.3242188 C 5.1922593 5.6205608 5.3323706 5.3180201 5.5820312 5.0683594 C 5.8728715 4.7775145 6.3054626 4.6166104 7.2265625 4.5410156 z M 7.9960938 10 A 1 1 0 0 0 6.9960938 11 A 1 1 0 0 0 7.9960938 12 L 15.996094 12 A 1 1 0 0 0 16.996094 11 A 1 1 0 0 0 15.996094 10 L 7.9960938 10 z M 7.9960938 14 A 1 1 0 0 0 6.9960938 15 A 1 1 0 0 0 7.9960938 16 L 11.423828 16 A 1 1 0 0 0 12.423828 15 A 1 1 0 0 0 11.423828 14 L 7.9960938 14 z " fill="currentColor"/>
</svg>
