<svg xmlns="http://www.w3.org/2000/svg" width="1em" height="1em" viewBox="0 0 24 24" fill="currentColor">
  <path d="M 12 1 C 10.719666 1 9.7686831 1.6852774 8.1816406 2.7285156 L 1.7460938 6.9589844 C 1.2790557 7.2659763 1 7.7883864 1 8.34375 C 1 9.2402061 1.7439012 10 2.6484375 10 L 4 10 L 4 18.101562 C 3.9533951 18.117198 3.9059359 18.135598 3.8574219 18.15625 C 3.4324578 18.337162 3.2127144 18.59975 2.9316406 18.888672 L 2.2441406 19.595703 C 1.890761 19.958963 1.6106377 20.233899 1.3730469 20.558594 C 1.2542515 20.720941 1.1376292 20.899693 1.0605469 21.15625 C 0.98346448 21.412807 0.97977615 21.771932 1.0976562 22.064453 C 1.2154949 22.356941 1.4729863 22.617796 1.7128906 22.748047 C 1.9527949 22.878298 2.1662059 22.922236 2.3652344 22.951172 C 2.7632916 23.009044 3.1487025 23 3.6484375 23 L 11 23 A 1 1 0 0 0 12 22 A 1 1 0 0 0 11 21 L 3.6679688 21 C 3.6727188 20.9951 3.6729444 20.995234 3.6777344 20.990234 L 4.3652344 20.283203 C 4.5207439 20.123368 4.6099706 20.044161 4.6464844 20.009766 C 4.6952636 20.007661 4.8084241 20 5.0234375 20 L 11 20 A 1 1 0 0 0 12 19 A 1 1 0 0 0 11 18 L 10 18 L 10 10 L 14 10 L 14 12 A 1 1 0 0 0 15 13 A 1 1 0 0 0 16 12 L 16 10 L 18 10 L 18 12 A 1 1 0 0 0 19 13 A 1 1 0 0 0 20 12 L 20 10 L 21.351562 10 C 22.256099 10 23 9.2401693 23 8.34375 C 23 7.7883564 22.720829 7.2660005 22.253906 6.9589844 L 15.818359 2.7285156 C 14.231344 1.6852758 13.280334 1 12 1 z M 12 3 C 12.498266 3 13.133718 3.3571704 14.720703 4.4003906 L 20.197266 8 L 3.8027344 8 L 9.2792969 4.4003906 C 10.866314 3.3571688 11.501734 3 12 3 z M 12 4.5 C 11.321567 4.5 10.75 5.0716244 10.75 5.75 C 10.75 6.4283756 11.321567 7 12 7 C 12.678433 7 13.25 6.4283756 13.25 5.75 C 13.25 5.0716244 12.678433 4.5 12 4.5 z M 6 10 L 8 10 L 8 18 L 6 18 L 6 10 z M 15.25 15 C 14.571712 15 14 15.571712 14 16.25 C 14 16.928288 14.571712 17.5 15.25 17.5 C 15.928288 17.5 16.5 16.928288 16.5 16.25 C 16.5 15.571712 15.928288 15 15.25 15 z M 21 15 A 1 1 0 0 0 20.292969 15.292969 L 14.292969 21.292969 A 1 1 0 0 0 14.292969 22.707031 A 1 1 0 0 0 15.707031 22.707031 L 21.707031 16.707031 A 1 1 0 0 0 21.707031 15.292969 A 1 1 0 0 0 21 15 z M 20.75 20.5 C 20.071712 20.5 19.5 21.071712 19.5 21.75 C 19.5 22.428288 20.071712 23 20.75 23 C 21.428288 23 22 22.428288 22 21.75 C 22 21.071712 21.428288 20.5 20.75 20.5 z " fill="currentColor"/>
</svg>
