<svg xmlns="http://www.w3.org/2000/svg" width="1em" height="1em" viewBox="0 0 24 24" fill="currentColor">
  <path d="M 17.5625 1.0058594 C 17.137302 1.0158723 16.709199 1.1277618 16.318359 1.3535156 C 15.563431 1.7895629 15.105342 2.5552257 15.019531 3.3691406 L 6.5175781 8.3945312 C 5.0647219 9.2532463 4.5748945 11.148418 5.4042969 12.619141 L 5.5546875 12.886719 L 3.1328125 14.257812 L 2.8808594 13.789062 A 1 1 0 0 0 1.5253906 13.384766 A 1 1 0 0 0 1.1191406 14.740234 L 1.8574219 16.107422 L 2.5957031 17.474609 A 1 1 0 0 0 3.9511719 17.880859 A 1 1 0 0 0 4.3554688 16.525391 L 4.0820312 16.019531 L 6.5449219 14.623047 C 7.4242227 15.95248 9.2265675 16.399967 10.617188 15.578125 L 11.816406 14.869141 L 8.125 21.513672 A 1 1 0 0 0 8.5136719 22.875 A 1 1 0 0 0 9.875 22.486328 L 14 15.060547 L 18.125 22.486328 A 1 1 0 0 0 19.486328 22.875 A 1 1 0 0 0 19.875 21.513672 L 15.103516 12.925781 L 19.007812 10.619141 C 19.804331 11.092795 20.830208 11.138327 21.681641 10.646484 C 22.932334 9.9240678 23.368321 8.295834 22.646484 7.0449219 L 19.919922 2.3183594 C 19.558989 1.6928787 18.97019 1.2709577 18.316406 1.0957031 C 18.071238 1.0299827 17.817619 0.99985165 17.5625 1.0058594 z M 17.623047 2.9960938 C 17.847606 2.9874953 18.062557 3.1018389 18.1875 3.3183594 L 20.914062 8.0449219 C 21.095827 8.3599097 20.996142 8.7323995 20.681641 8.9140625 C 20.367151 9.0957319 19.994244 8.9965955 19.8125 8.6816406 L 17.085938 3.9550781 C 16.904183 3.6401091 17.003867 3.2675877 17.318359 3.0859375 C 17.416645 3.0291664 17.520974 3.0000021 17.623047 2.9960938 z M 15.585938 5.359375 L 17.720703 9.0566406 L 9.5996094 13.857422 C 9.0879866 14.159786 8.4785695 13.997364 8.1738281 13.457031 L 7.1464844 11.636719 C 6.8416867 11.096242 7.0235525 10.419572 7.5351562 10.117188 L 15.585938 5.359375 z " fill="currentColor"/>
</svg>
