<svg xmlns="http://www.w3.org/2000/svg" width="1em" height="1em" viewBox="0 0 24 24" fill="currentColor">
  <path d="M 12 1.9980469 C 10.203673 1.9980469 8.4072931 2.2447698 6.6855469 2.7363281 C 5.2788359 3.1379605 4.2160576 3.6584026 3.28125 4.265625 C 1.5572607 5.3854956 0.83628121 7.3869009 1.03125 9.2578125 C 1.091146 9.8325315 1.3993935 10.393051 1.8847656 10.705078 C 2.3701377 11.017106 2.9683577 11.065136 3.4980469 10.917969 C 3.9569874 10.790429 4.4278458 10.662807 4.9042969 10.521484 C 5.6634399 10.296313 6.3157263 9.9886283 6.765625 9.4179688 C 7.2155237 8.8473091 7.3612539 8.1822428 7.4628906 7.4335938 L 7.8496094 4.5742188 C 10.558827 3.9087314 13.441139 3.9087302 16.150391 4.5742188 L 16.537109 7.4335938 C 16.638719 8.1822408 16.784476 8.8472927 17.234375 9.4179688 C 17.684274 9.9886446 18.336535 10.296314 19.095703 10.521484 C 19.572148 10.662815 20.043051 10.790434 20.501953 10.917969 C 21.03164 11.065123 21.629856 11.017119 22.115234 10.705078 C 22.600127 10.393346 22.908438 9.8338614 22.96875 9.2597656 L 22.96875 9.2578125 C 23.163098 7.3874078 22.442168 5.3851003 20.71875 4.265625 C 19.783991 3.6583711 18.721117 3.1379594 17.314453 2.7363281 C 15.592689 2.2447707 13.796327 1.9980469 12 1.9980469 z M 5.7285156 5.3359375 L 5.4804688 7.1640625 C 5.3948555 7.7946834 5.2875538 8.062687 5.1953125 8.1796875 C 5.1030712 8.296688 4.9242445 8.4309697 4.3359375 8.6054688 C 3.9137026 8.7307105 3.476603 8.8477841 3.0332031 8.9707031 C 2.933739 7.7684761 3.3717601 6.5925075 4.3710938 5.9433594 C 4.7502483 5.6970722 5.2956689 5.5390913 5.7285156 5.3359375 z M 18.271484 5.3359375 C 18.70432 5.5390889 19.249814 5.6970871 19.628906 5.9433594 C 20.628277 6.5925173 21.0663 7.7685172 20.966797 8.9707031 C 20.523396 8.8477797 20.086247 8.7307035 19.664062 8.6054688 C 19.075731 8.4309688 18.896914 8.2966715 18.804688 8.1796875 C 18.712462 8.0627035 18.605122 7.7946855 18.519531 7.1640625 L 18.271484 5.3359375 z M 11.976562 8.0019531 C 11.19969 8.0198476 10.426704 8.1975728 9.7578125 8.609375 C 9.0889209 9.0211772 8.5 9.7847957 8.5 10.710938 C 8.5 11.009526 8.4487725 11.075473 8.4453125 11.080078 C 8.4418525 11.084678 8.4212475 11.128098 8.1835938 11.191406 C 7.4392102 11.389624 6.7543561 11.712201 6.1152344 12.166016 L 4.1621094 13.552734 C 3.2737396 14.183608 2.6711964 14.597333 2.3125 15.351562 C 1.9664734 16.079237 2 16.767631 2 17.832031 C 2 18.788881 1.9949697 19.524773 2.0742188 20.181641 C 2.1534707 20.838509 2.3458127 21.473872 2.7832031 21.974609 C 3.4020017 22.682982 4.2413676 22.859093 4.9765625 22.943359 C 5.7117574 23.027629 6.4231841 22.996094 6.9082031 22.996094 L 17.091797 22.996094 C 17.589425 22.996094 18.308683 23.017034 19.042969 22.927734 C 19.777255 22.838444 20.600488 22.680088 21.216797 21.974609 C 21.654187 21.473872 21.846529 20.838509 21.925781 20.181641 C 22.005033 19.524778 22 18.788881 22 17.832031 C 22 16.767631 22.03345 16.079214 21.6875 15.351562 C 21.328757 14.597499 20.726323 14.183624 19.837891 13.552734 L 17.884766 12.166016 C 17.2507 11.715697 16.566763 11.391174 15.816406 11.191406 C 15.578734 11.128098 15.558147 11.084684 15.554688 11.080078 C 15.551227 11.075473 15.5 11.009522 15.5 10.710938 C 15.5 9.7642336 14.924607 8.9534039 14.234375 8.5390625 C 13.544143 8.1247211 12.753433 7.9840587 11.976562 8.0019531 z M 12.023438 10 C 12.496566 9.989102 12.955857 10.105473 13.203125 10.253906 C 13.450393 10.402339 13.5 10.46011 13.5 10.710938 C 13.5 11.265752 13.611614 11.826134 13.955078 12.283203 C 14.298542 12.740273 14.808707 12.993408 15.302734 13.125 C 15.836977 13.267232 16.267429 13.470794 16.726562 13.796875 L 18.679688 15.183594 C 19.558855 15.807904 19.780602 16.000202 19.880859 16.210938 C 19.966508 16.391086 20 16.767631 20 17.832031 C 20 18.788881 19.994203 19.488049 19.939453 19.941406 C 19.884753 20.394763 19.809347 20.545541 19.710938 20.658203 C 19.678248 20.695623 19.333374 20.876876 18.802734 20.941406 C 18.272095 21.005936 17.630469 20.996094 17.091797 20.996094 L 6.9082031 20.996094 C 6.3568622 20.996094 5.7242826 21.014818 5.203125 20.955078 C 4.6819674 20.895346 4.353554 20.73203 4.2890625 20.658203 C 4.190653 20.545541 4.115245 20.394763 4.0605469 19.941406 C 4.0058488 19.488049 4 18.788881 4 17.832031 C 4 16.767631 4.033487 16.391063 4.1191406 16.210938 C 4.2192843 16.000366 4.4411618 15.80792 5.3203125 15.183594 L 7.2734375 13.796875 C 7.7361958 13.468289 8.1670692 13.266183 8.6972656 13.125 C 9.191282 12.993405 9.70147 12.740273 10.044922 12.283203 C 10.388374 11.826134 10.5 11.265749 10.5 10.710938 C 10.5 10.554718 10.536079 10.477868 10.804688 10.3125 C 11.073296 10.147132 11.550308 10.010898 12.023438 10 z M 12 14 C 10.354993 14 9 15.354993 9 17 C 9 18.645007 10.354993 20 12 20 C 13.645007 20 15 18.645007 15 17 C 15 15.354993 13.645007 14 12 14 z M 12 16 C 12.564193 16 13 16.435807 13 17 C 13 17.564193 12.564193 18 12 18 C 11.435807 18 11 17.564193 11 17 C 11 16.435807 11.435807 16 12 16 z " fill="currentColor"/>
</svg>
