<svg xmlns="http://www.w3.org/2000/svg" width="1em" height="1em" viewBox="0 0 24 24" fill="currentColor">
  <path d="M 12 1 C 11.388735 1 11.043853 1.2963609 10.712891 1.5742188 C 10.381929 1.8520767 10.037218 2.2015886 9.5820312 2.65625 C 8.1289388 4.1077437 6.1103641 5.5961112 4.1757812 6.5019531 C 3.3274256 6.8991912 2.6207084 7.5812454 2.2089844 8.5390625 C 2.0211582 8.9760028 1.8628339 9.5004863 2.1328125 10.103516 C 2.4027911 10.706545 3.122604 11 3.6933594 11 L 11 11 L 11 14 L 9 14 A 1 1 0 0 0 8 15 A 1 1 0 0 0 9 16 L 11 16 L 11 21 A 1 1 0 0 0 10 22 A 1 1 0 0 0 11 23 L 13 23 A 1 1 0 0 0 14 22 A 1 1 0 0 0 13 21 L 13 16 L 15 16 A 1 1 0 0 0 16 15 A 1 1 0 0 0 15 14 L 13 14 L 13 11 L 20.306641 11 C 20.877382 11 21.597225 10.706545 21.867188 10.103516 C 22.137151 9.5004862 21.978886 8.9760241 21.791016 8.5390625 C 21.379316 7.5812752 20.672693 6.8991896 19.824219 6.5019531 C 17.889693 5.5961117 15.8711 4.1077539 14.417969 2.65625 C 13.962782 2.2015886 13.618071 1.8520768 13.287109 1.5742188 C 12.956147 1.2963608 12.611265 1 12 1 z M 12 3.1074219 C 12.210613 3.2842414 12.548693 3.617577 13.003906 4.0722656 C 14.623175 5.6897218 16.769935 7.2801614 18.974609 8.3125 C 19.352416 8.4893803 19.469471 8.75028 19.636719 9 L 4.3632812 9 C 4.5305479 8.7502746 4.6476123 8.4893927 5.0253906 8.3125 C 7.2301278 7.2801619 9.3768459 5.6897319 10.996094 4.0722656 C 11.451307 3.617577 11.789387 3.2842414 12 3.1074219 z M 2.9335938 13.001953 A 1 1 0 0 0 2.8046875 13.019531 A 1 1 0 0 0 2.0195312 14.195312 L 2.9667969 18.933594 L 2.0507812 21.683594 A 1 1 0 0 0 2.6835938 22.949219 A 1 1 0 0 0 3.9492188 22.316406 L 4.7207031 20 L 6.6523438 20 L 7.0136719 22.164062 A 1 1 0 0 0 8.1640625 22.986328 A 1 1 0 0 0 8.9863281 21.835938 L 8.625 19.671875 C 8.5561437 19.258749 8.4644435 18.776383 8.0136719 18.394531 C 7.5629003 18.012679 7.0711536 18 6.6523438 18 L 4.8203125 18 L 3.9804688 13.804688 A 1 1 0 0 0 2.9335938 13.001953 z M 20.935547 13.001953 A 1 1 0 0 0 20.019531 13.804688 L 19.179688 18 L 17.347656 18 C 16.928875 18 16.437096 18.01271 15.986328 18.394531 C 15.53556 18.77635 15.443852 19.258705 15.375 19.671875 L 15.013672 21.835938 A 1 1 0 0 0 15.835938 22.986328 A 1 1 0 0 0 16.986328 22.164062 L 17.347656 20 L 19.279297 20 L 20.050781 22.316406 A 1 1 0 0 0 21.316406 22.949219 A 1 1 0 0 0 21.949219 21.683594 L 21.033203 18.933594 L 21.980469 14.195312 A 1 1 0 0 0 21.195312 13.019531 A 1 1 0 0 0 20.935547 13.001953 z " fill="currentColor"/>
</svg>
