<svg xmlns="http://www.w3.org/2000/svg" width="1em" height="1em" viewBox="0 0 24 24" fill="currentColor">
  <path d="M 13.5 1 C 12.269428 1 11.696166 1.703498 11.404297 2.1464844 C 11.057534 2.1745464 10.738903 2.1373844 10.052734 2.4804688 C 9.257207 2.8782326 8.4127247 3.7278564 8.1132812 5 L 6 5 A 1 1 0 0 0 5 6 A 1 1 0 0 0 5.7773438 6.9746094 L 5.7773438 7.9882812 C 5.7773438 9.3866314 5.7658967 9.9902092 5.6269531 10.488281 C 5.4880125 10.986342 5.1773165 11.532913 4.4433594 12.765625 L 3.4472656 14.4375 C 2.5121208 16.008 1.7956905 17.192536 1.3710938 18.255859 C 0.94649708 19.319183 0.83361609 20.464476 1.4335938 21.375 A 1.0001 1.0001 0 0 0 1.4375 21.378906 L 1.4492188 21.396484 A 1.0001 1.0001 0 0 0 1.4511719 21.400391 C 2.0593531 22.305353 3.1089339 22.685209 4.3144531 22.845703 C 5.5199715 23.006208 7.01969 23 9 23 C 10.9803 23 12.480029 23.0062 13.685547 22.845703 C 14.891064 22.685209 15.940632 22.30534 16.548828 21.400391 A 1.0001 1.0001 0 0 0 16.550781 21.398438 L 16.5625 21.378906 A 1.0001 1.0001 0 0 0 16.566406 21.375 C 17.166389 20.464468 17.053517 19.319179 16.628906 18.255859 C 16.204253 17.192579 15.487882 16.007997 14.552734 14.4375 L 13.558594 12.765625 A 1.0001 1.0001 0 0 0 13.556641 12.765625 C 12.978487 11.794595 12.66212 11.249537 12.486328 10.818359 C 13.12192 11.343457 13.866419 11.681754 14.654297 11.830078 C 15.079782 13.647265 16.740622 15 18.736328 15 C 21.03551 15 23 13.244825 23 11 C 23 9.97039 22.68471 8.9594665 21.986328 8.2011719 C 21.462737 7.6326626 20.693411 7.3184363 19.845703 7.1582031 C 19.525076 5.2563636 18.196286 3.6133213 16.242188 3.1972656 C 16.113234 2.5906505 15.89187 2.0400719 15.480469 1.6738281 C 14.890563 1.1486736 14.15229 1 13.5 1 z M 13.5 3 C 13.84771 3 14.050346 3.0789057 14.150391 3.1679688 C 14.250435 3.2570317 14.380859 3.4185032 14.380859 4 A 1.0001 1.0001 0 0 0 15.380859 5 C 16.872058 5 18 6.5 18 8 A 1.0001 1.0001 0 0 0 19 9 C 19.776142 9 20.212054 9.2291478 20.513672 9.5566406 C 20.81529 9.8841335 21 10.37276 21 11 C 21 12.068975 20.041946 13 18.736328 13 C 17.43071 13 16.472656 12.068975 16.472656 11 A 1.0001 1.0001 0 0 0 15.341797 10.007812 C 15.045577 10.046826 14.228707 9.7493447 13.582031 9.1152344 C 12.935355 8.481124 12.5 7.6062667 12.5 7 A 1 1 0 0 0 12.492188 6.8710938 A 1 1 0 0 0 13 6 A 1 1 0 0 0 12 5 L 10.167969 5 C 10.34096 4.6074612 10.629525 4.4284018 10.947266 4.2695312 C 11.458752 4.0137882 12 4 12 4 A 1.0001 1.0001 0 0 0 12.894531 3.4472656 C 12.894531 3.4472656 13.166667 3 13.5 3 z M 7.7773438 7 L 9 7 L 10.222656 7 L 10.222656 7.9882812 C 10.222656 9.3866314 10.211786 10.181092 10.447266 11.025391 C 10.618148 11.638087 10.887217 12.167376 11.302734 12.882812 C 11.229771 12.911825 11.148825 12.938032 11.060547 12.955078 C 10.62505 13.039168 10.039788 13.023428 9.3964844 12.746094 C 8.7106444 12.450446 7.946123 12.183611 7.1816406 12.0625 C 7.1706079 12.060752 7.1595082 12.058352 7.1484375 12.056641 C 7.3222132 11.706617 7.453982 11.381342 7.5527344 11.027344 C 7.7882706 10.183016 7.7773438 9.3866313 7.7773438 7.9882812 L 7.7773438 7 z M 6.5390625 14.009766 C 6.6333 14.010524 6.7434262 14.017194 6.8691406 14.037109 C 7.3719983 14.116769 8.0242387 14.331479 8.6054688 14.582031 C 9.6288148 15.0232 10.625713 15.077053 11.439453 14.919922 C 11.77366 14.855387 12.080254 14.77485 12.355469 14.654297 L 12.833984 15.458984 C 13.769136 17.029488 14.45272 18.199792 14.771484 18.998047 C 15.090248 19.796302 15.063701 20.01967 14.896484 20.273438 L 14.888672 20.283203 C 14.718468 20.536454 14.391257 20.734225 13.421875 20.863281 C 12.452481 20.992304 10.9803 21 9 21 C 7.01969 21 5.5475083 20.992338 4.578125 20.863281 C 3.6087417 20.734225 3.2815169 20.536441 3.1113281 20.283203 L 3.1035156 20.273438 C 2.9362933 20.019662 2.9097648 19.796299 3.2285156 18.998047 C 3.5472664 18.199795 4.2308704 17.029485 5.1660156 15.458984 L 5.9257812 14.183594 A 1 1 0 0 0 6.1503906 14.039062 L 6.1503906 14.041016 L 6.1503906 14.042969 L 6.1523438 14.042969 L 6.1542969 14.042969 L 6.15625 14.042969 C 6.1833649 14.043646 6.3152484 14.007965 6.5390625 14.009766 z " fill="currentColor"/>
</svg>
