<svg xmlns="http://www.w3.org/2000/svg" width="1em" height="1em" viewBox="0 0 24 24" fill="currentColor">
  <path d="M 14.5 1.5 A 1 1 0 0 0 13.792969 1.7929688 A 1 1 0 0 0 13.792969 3.2070312 L 14.085938 3.5 L 5.8027344 11.783203 A 1 1 0 0 0 5.7832031 11.802734 L 2.828125 14.757812 C 1.9777858 15.608099 1.5 16.762318 1.5 17.964844 C 1.5 20.457889 3.5421 22.5 6.0351562 22.5 C 7.2376816 22.5 8.3918898 22.022121 9.2421875 21.171875 L 17.197266 13.216797 A 1 1 0 0 0 17.216797 13.197266 L 20.5 9.9140625 L 20.792969 10.207031 A 1 1 0 0 0 22.207031 10.207031 A 1 1 0 0 0 22.207031 8.7929688 L 15.207031 1.7929688 A 1 1 0 0 0 14.5 1.5 z M 15.5 4.9140625 L 19.085938 8.5 L 16.085938 11.5 L 8.9140625 11.5 L 15.5 4.9140625 z M 6.9140625 13.5 L 14.085938 13.5 L 7.828125 19.757812 C 7.3523427 20.233566 6.7080111 20.5 6.0351562 20.5 C 4.6229726 20.5 3.5 19.376999 3.5 17.964844 C 3.5 17.291969 3.7664467 16.647587 4.2421875 16.171875 L 6.9140625 13.5 z " fill="currentColor"/>
</svg>
