<svg xmlns="http://www.w3.org/2000/svg" width="1em" height="1em" viewBox="0 0 24 24" fill="currentColor">
  <path d="M 12 1.5 C 9.76083 1.5 8.061073 1.4944581 6.6542969 1.6835938 C 5.2475207 1.8727295 4.0688969 2.2982969 3.1835938 3.1835938 C 2.2982969 4.0688968 1.8727295 5.2475207 1.6835938 6.6542969 C 1.494458 8.061073 1.5 9.76083 1.5 12 C 1.5 14.23915 1.4944601 15.93892 1.6835938 17.345703 C 1.8727292 18.752486 2.2983047 19.931079 3.1835938 20.816406 C 4.0688995 21.70168 5.2475238 22.127276 6.6542969 22.316406 C 8.0610699 22.505536 9.76083 22.5 12 22.5 C 14.23915 22.5 15.938923 22.5055 17.345703 22.316406 C 18.752483 22.127277 19.931076 21.701673 20.816406 20.816406 C 21.701673 19.931076 22.127277 18.752483 22.316406 17.345703 C 22.505536 15.938923 22.5 14.23915 22.5 12 C 22.5 9.76083 22.5055 8.0610699 22.316406 6.6542969 C 22.127276 5.2475238 21.70168 4.0688995 20.816406 3.1835938 C 19.931079 2.2983046 18.752486 1.8727291 17.345703 1.6835938 C 15.93892 1.4944584 14.23915 1.5 12 1.5 z M 12 3.5 C 14.23915 3.5 15.897908 3.50539 17.078125 3.6640625 C 18.258342 3.8227371 18.896371 4.0917053 19.402344 4.5976562 C 19.90827 5.1036005 20.177267 5.7416656 20.335938 6.921875 C 20.494609 8.1020844 20.5 9.76083 20.5 12 C 20.5 14.23915 20.4946 15.897905 20.335938 17.078125 C 20.177267 18.258345 19.908277 18.896374 19.402344 19.402344 C 18.896374 19.908277 18.258345 20.177267 17.078125 20.335938 C 15.897905 20.494609 14.23915 20.5 12 20.5 C 9.76083 20.5 8.1020844 20.494608 6.921875 20.335938 C 5.7416656 20.177267 5.1036004 19.90827 4.5976562 19.402344 C 4.0917053 18.896371 3.8227371 18.258342 3.6640625 17.078125 C 3.5053879 15.897908 3.5 14.23915 3.5 12 C 3.5 9.76083 3.5053882 8.1020814 3.6640625 6.921875 C 3.8227368 5.7416686 4.091713 5.1036031 4.5976562 4.5976562 C 5.1036031 4.0917131 5.7416686 3.8227368 6.921875 3.6640625 C 8.1020814 3.5053882 9.76083 3.5 12 3.5 z M 11.974609 6 C 9.9014872 6.0491714 8.5342566 6.1222197 7.4492188 6.6347656 C 6.9066998 6.8910386 6.425132 7.3302311 6.1855469 7.8847656 C 5.9459618 8.4393001 5.9338096 9.0218286 6.0058594 9.6191406 A 1 1 0 0 0 7.1191406 10.492188 A 1 1 0 0 0 7.9921875 9.3808594 C 7.9439175 8.9806864 7.9842774 8.7638424 8.0214844 8.6777344 C 8.0586874 8.5916264 8.0776504 8.5506064 8.3046875 8.4433594 C 8.6335462 8.2880143 9.8465352 8.2051945 10.998047 8.1230469 L 10.998047 16 L 9.9980469 16 A 1 1 0 0 0 8.9980469 17 A 1 1 0 0 0 9.9980469 18 L 11.998047 18 L 13.998047 18 A 1 1 0 0 0 14.998047 17 A 1 1 0 0 0 13.998047 16 L 12.998047 16 L 12.998047 8.1289062 C 14.171355 8.2180203 15.397967 8.3105405 15.738281 8.4746094 C 15.971988 8.5872817 15.989201 8.6345441 16.017578 8.703125 C 16.045958 8.771706 16.079382 8.9580364 16.013672 9.3242188 A 1 1 0 0 0 16.822266 10.484375 A 1 1 0 0 0 17.982422 9.6757812 C 18.087347 9.0911085 18.098079 8.5021919 17.865234 7.9394531 C 17.632389 7.3767144 17.150953 6.9358696 16.607422 6.6738281 C 15.52036 6.1497452 14.122937 6.051212 12.023438 6 A 1 1 0 0 0 12.005859 6.0078125 A 1 1 0 0 0 11.998047 6 A 1 1 0 0 0 11.986328 6.0117188 A 1 1 0 0 0 11.974609 6 z " fill="currentColor"/>
</svg>
