<svg xmlns="http://www.w3.org/2000/svg" width="1em" height="1em" viewBox="0 0 24 24" fill="currentColor">
  <path d="M 12 2 C 8.5038749 2 5.5 4.4517396 5.5 7.6660156 C 5.5 8.2253137 5.561553 8.7626554 5.7050781 9.2714844 A 1 1 0 0 0 6.9375 9.9628906 A 1 1 0 0 0 7.6289062 8.7285156 C 7.5455515 8.4330046 7.5 8.0789575 7.5 7.6660156 C 7.5 5.7256316 9.4209851 4 12 4 C 14.579049 4 16.5 5.7256239 16.5 7.6660156 A 1 1 0 0 0 17.5 8.6660156 A 1 1 0 0 0 18.5 7.6660156 C 18.5 4.4517474 15.496151 2 12 2 z M 4 11 A 1 1 0 0 0 3 12 A 1 1 0 0 0 4 13 L 14.765625 13 C 15.567124 13.244487 16.070543 13.595008 16.416016 14.072266 C 16.779367 14.574222 17 15.281112 17 16.333984 C 17 17.73206 16.519255 18.509777 15.673828 19.09375 C 14.828401 19.677723 13.52273 20 12 20 C 10.553312 20 9.2623022 19.536912 8.3710938 18.84375 C 7.4798851 18.150588 7 17.275268 7 16.333984 A 1 1 0 0 0 6 15.333984 A 1 1 0 0 0 5 16.333984 C 5 17.9701 5.8622142 19.426037 7.1425781 20.421875 C 8.422942 21.417713 10.132978 22 12 22 C 13.79097 22 15.484399 21.656262 16.810547 20.740234 C 18.136695 19.824207 19 18.269309 19 16.333984 C 19 15.041759 18.725479 13.906113 18.107422 13 L 20 13 A 1 1 0 0 0 21 12 A 1 1 0 0 0 20 11 L 14.919922 11 L 4 11 z " fill="currentColor"/>
</svg>
