<svg xmlns="http://www.w3.org/2000/svg" width="1em" height="1em" viewBox="0 0 24 24" fill="currentColor">
  <path d="M 12 1.5 C 9.76083 1.5 8.061073 1.4944581 6.6542969 1.6835938 C 5.2475207 1.8727295 4.0688969 2.2982969 3.1835938 3.1835938 C 2.2982969 4.0688968 1.8727295 5.2475207 1.6835938 6.6542969 C 1.494458 8.061073 1.5 9.76083 1.5 12 C 1.5 14.23915 1.4944601 15.93892 1.6835938 17.345703 C 1.8727292 18.752486 2.2983047 19.931079 3.1835938 20.816406 C 4.0688995 21.70168 5.2475238 22.127276 6.6542969 22.316406 C 8.0610699 22.505536 9.76083 22.5 12 22.5 C 14.23915 22.5 15.938923 22.5055 17.345703 22.316406 C 18.752483 22.127277 19.931076 21.701673 20.816406 20.816406 C 21.701673 19.931076 22.127277 18.752483 22.316406 17.345703 C 22.505536 15.938923 22.5 14.23915 22.5 12 C 22.5 9.76083 22.5055 8.0610699 22.316406 6.6542969 C 22.127276 5.2475238 21.70168 4.0688995 20.816406 3.1835938 C 19.931079 2.2983046 18.752486 1.8727291 17.345703 1.6835938 C 15.93892 1.4944584 14.23915 1.5 12 1.5 z M 12 3.5 C 14.23915 3.5 15.897908 3.50539 17.078125 3.6640625 C 18.258342 3.8227371 18.896371 4.0917053 19.402344 4.5976562 C 19.90827 5.1036005 20.177267 5.7416656 20.335938 6.921875 C 20.494609 8.1020844 20.5 9.76083 20.5 12 C 20.5 14.23915 20.4946 15.897905 20.335938 17.078125 C 20.177267 18.258345 19.908277 18.896374 19.402344 19.402344 C 18.896374 19.908277 18.258345 20.177267 17.078125 20.335938 C 15.897905 20.494609 14.23915 20.5 12 20.5 C 9.76083 20.5 8.1020844 20.494608 6.921875 20.335938 C 5.7416656 20.177267 5.1036004 19.90827 4.5976562 19.402344 C 4.0917053 18.896371 3.8227371 18.258342 3.6640625 17.078125 C 3.5053879 15.897908 3.5 14.23915 3.5 12 C 3.5 9.76083 3.5053882 8.1020814 3.6640625 6.921875 C 3.8227368 5.7416686 4.091713 5.1036031 4.5976562 4.5976562 C 5.1036031 4.0917131 5.7416686 3.8227368 6.921875 3.6640625 C 8.1020814 3.5053882 9.76083 3.5 12 3.5 z M 10 7 C 9.3533788 7 8.7503803 7.1693363 8.2519531 7.5097656 C 7.753526 7.8501949 7.3261719 8.4313548 7.3261719 9.1425781 C 7.3261719 9.7491815 7.2988259 10.069991 7.2480469 10.207031 C 7.1972679 10.344072 7.1289375 10.464027 6.6816406 10.769531 C 6.3104737 11.023095 5.9999956 11.481414 6 12 C 6.0000044 12.518586 6.310469 12.976909 6.6816406 13.230469 C 7.1289325 13.535973 7.1972686 13.655932 7.2480469 13.792969 C 7.2988249 13.930006 7.3261719 14.250839 7.3261719 14.857422 C 7.3261719 15.568644 7.7535282 16.149792 8.2519531 16.490234 C 8.7503781 16.830677 9.353368 17 10 17 A 1 1 0 0 0 11 16 A 1 1 0 0 0 10 15 C 9.722512 15 9.4880394 14.91305 9.3808594 14.839844 C 9.3532848 14.821009 9.336222 14.806797 9.3261719 14.798828 C 9.3272479 14.208366 9.3410368 13.682637 9.125 13.099609 C 8.9638168 12.664618 8.5570032 12.336778 8.1738281 12 C 8.557007 11.663221 8.9638162 11.335385 9.125 10.900391 C 9.3410391 10.317355 9.327248 9.7916517 9.3261719 9.2011719 C 9.3362217 9.1932024 9.3532844 9.1789902 9.3808594 9.1601562 C 9.4880377 9.0869531 9.7225012 9 10 9 A 1 1 0 0 0 11 8 A 1 1 0 0 0 10 7 z M 14 7 A 1 1 0 0 0 13 8 A 1 1 0 0 0 14 9 C 14.277485 9 14.511947 9.0869449 14.619141 9.1601562 C 14.646716 9.1789896 14.663777 9.1931995 14.673828 9.2011719 C 14.672752 9.7916474 14.658965 10.317353 14.875 10.900391 C 15.036185 11.335388 15.442987 11.663221 15.826172 12 C 15.442987 12.336778 15.036186 12.664616 14.875 13.099609 C 14.658959 13.682642 14.672752 14.208369 14.673828 14.798828 C 14.663776 14.8068 14.646715 14.821013 14.619141 14.839844 C 14.511945 14.913062 14.277474 15 14 15 A 1 1 0 0 0 13 16 A 1 1 0 0 0 14 17 C 14.646626 17 15.249618 16.830668 15.748047 16.490234 C 16.246476 16.1498 16.673828 15.56867 16.673828 14.857422 C 16.673828 14.250836 16.701173 13.930001 16.751953 13.792969 C 16.802733 13.655937 16.871054 13.535973 17.318359 13.230469 C 17.689512 12.976896 18 12.518558 18 12 C 18 11.481442 17.689517 11.023104 17.318359 10.769531 C 16.871054 10.464027 16.802731 10.344068 16.751953 10.207031 C 16.701173 10.069995 16.673828 9.7491842 16.673828 9.1425781 C 16.673828 8.4313284 16.246478 7.8501866 15.748047 7.5097656 C 15.24962 7.1693446 14.646615 7 14 7 z " fill="currentColor"/>
</svg>
