<svg xmlns="http://www.w3.org/2000/svg" width="1em" height="1em" viewBox="0 0 24 24" fill="currentColor">
  <path d="M 12.25 1.4980469 C 10.980127 1.4980469 10.003391 2.5087258 9.8554688 3.7421875 C 9.6309555 3.6766095 9.4681388 3.4824219 9.2246094 3.4824219 C 7.8559493 3.4824219 6.7627414 4.6472136 6.765625 5.984375 L 6.765625 9.0449219 C 6.0001929 9.7158427 4.6453552 10.928646 3.7714844 12.320312 C 3.3241767 13.03268 3.1882763 13.842023 3.2792969 14.564453 C 3.3703169 15.286884 3.6517076 15.931153 3.9824219 16.517578 C 4.6438503 17.690428 5.5389208 18.707985 5.9335938 19.375 C 7.3916072 21.839 9.8051085 22.301632 9.8417969 22.308594 C 10.811788 22.520244 11.64065 22.518357 12.679688 22.480469 C 13.405313 22.454069 15.01801 22.685693 16.804688 22.095703 A 1.0001 1.0001 0 0 0 16.847656 22.080078 C 16.847656 22.080078 18.492318 21.537698 19.470703 20.130859 C 20.865152 18.429899 20.746094 16.44358 20.746094 15.144531 L 20.746094 11.482422 A 1.0001 1.0001 0 0 0 20.740234 11.375 C 20.600786 10.098683 19.704643 9.2247083 18.84375 8.8828125 C 18.42422 8.7161999 18.125453 8.7951268 17.751953 8.7636719 L 17.751953 5.9882812 L 17.751953 5.9863281 C 17.753853 4.6159261 16.622544 3.4824219 15.251953 3.4824219 C 15.014141 3.4824219 14.857457 3.6747037 14.638672 3.7382812 C 14.488129 2.5077811 13.518111 1.4980469 12.25 1.4980469 z M 12.25 3.4980469 C 12.53892 3.4980469 12.750626 3.7111511 12.75 4 A 1.0001 1.0001 0 0 0 12.75 4.0019531 L 12.75 5.9824219 L 12.75 10.474609 A 1 1 0 0 0 13.75 11.474609 A 1 1 0 0 0 14.75 10.474609 L 14.75 5.9824219 C 14.75 5.6940985 14.963589 5.4824219 15.251953 5.4824219 C 15.540716 5.4824219 15.752579 5.6955261 15.751953 5.984375 A 1.0001 1.0001 0 0 0 15.751953 5.9863281 L 15.751953 11.478516 A 1 1 0 0 0 16.751953 12.478516 A 1 1 0 0 0 17.751953 11.478516 L 17.751953 10.705078 C 17.885505 10.727758 17.992742 10.697378 18.105469 10.742188 C 18.486236 10.893406 18.680772 11.016933 18.746094 11.583984 L 18.746094 15.144531 C 18.746094 16.556086 18.817494 17.81855 17.917969 18.892578 A 1.0001 1.0001 0 0 0 17.853516 18.976562 C 17.432163 19.603534 16.182849 20.18397 16.154297 20.197266 C 14.871181 20.613582 13.699379 20.442688 12.607422 20.482422 C 11.586085 20.519702 11.0012 20.520632 10.248047 20.353516 A 1.0001 1.0001 0 0 0 10.201172 20.34375 C 10.201172 20.34375 8.7026338 20.127127 7.6542969 18.355469 C 7.0823018 17.388825 6.2352659 16.440656 5.7246094 15.535156 C 5.4692811 15.082406 5.3070794 14.658979 5.2636719 14.314453 C 5.2202643 13.969927 5.2596516 13.711548 5.4648438 13.384766 C 5.7731929 12.89371 6.2635384 12.520989 6.765625 12 L 6.765625 13.990234 A 1 1 0 0 0 7.765625 14.990234 A 1 1 0 0 0 8.765625 13.990234 L 8.765625 5.9824219 A 1.0001 1.0001 0 0 0 8.765625 5.9804688 C 8.7649286 5.657527 8.9331695 5.4824219 9.2246094 5.4824219 C 9.5103341 5.4824219 9.7480469 5.7174709 9.7480469 5.9863281 L 9.7480469 10.482422 A 1 1 0 0 0 10.748047 11.482422 A 1 1 0 0 0 11.748047 10.482422 L 11.748047 5.9863281 L 11.748047 3.9980469 C 11.748047 3.7096265 11.961636 3.4980469 12.25 3.4980469 z " fill="currentColor"/>
</svg>
