<svg xmlns="http://www.w3.org/2000/svg" width="1em" height="1em" viewBox="0 0 24 24" fill="currentColor">
  <path d="M 12 1 C 11.381814 1 10.842557 1.3817739 10.507812 1.765625 C 10.173068 2.1494761 9.9038746 2.5908124 9.546875 3.1542969 L 9.0332031 3.9648438 C 8.6809879 4.5207691 8.4004986 4.945126 8.2011719 5.40625 C 8.0018452 5.867374 7.8965718 6.5787336 8.2480469 7.125 C 8.5995321 7.6712618 9.2150737 7.8714777 9.7226562 7.9394531 C 10.107953 7.991052 10.515494 7.9990675 11 8 L 11 13.527344 L 6.5898438 17.136719 C 6.4295791 16.858328 6.2761863 16.611628 6.109375 16.386719 C 5.8048436 15.976123 5.3211785 15.526348 4.6621094 15.501953 C 4.0031487 15.477563 3.4539076 15.937739 3.1582031 16.345703 C 2.8624986 16.753668 2.6337281 17.217841 2.3261719 17.814453 L 1.8789062 18.681641 C 1.5671769 19.28633 1.3179298 19.752126 1.1523438 20.236328 C 0.98675777 20.72053 0.91599731 21.365947 1.2148438 21.908203 C 1.5137685 22.450507 2.1243801 22.739144 2.6230469 22.833984 C 3.1217137 22.928824 3.633258 22.933524 4.2890625 22.953125 L 5.2304688 22.980469 C 5.8774989 22.999769 6.377704 23.026778 6.875 22.960938 C 7.372296 22.895097 8.0331492 22.611167 8.3222656 22.041016 C 8.6113208 21.470861 8.4905 20.84513 8.3046875 20.367188 C 8.1308573 19.920066 7.8834576 19.477548 7.5722656 18.914062 L 12 15.291016 L 16.427734 18.914062 C 16.116517 19.477553 15.869145 19.920041 15.695312 20.367188 C 15.509496 20.845157 15.388616 21.470881 15.677734 22.041016 C 15.966808 22.611182 16.627707 22.895093 17.125 22.960938 C 17.622293 23.026788 18.122482 22.999769 18.769531 22.980469 L 19.710938 22.953125 C 20.366764 22.933525 20.878287 22.928825 21.376953 22.833984 C 21.87562 22.739144 22.486221 22.450462 22.785156 21.908203 C 23.084013 21.36597 23.013236 20.720546 22.847656 20.236328 C 22.682076 19.75211 22.432844 19.28634 22.121094 18.681641 L 21.673828 17.814453 C 21.366233 17.217863 21.137481 16.753649 20.841797 16.345703 C 20.546113 15.937757 19.996857 15.477562 19.337891 15.501953 C 18.67882 15.526353 18.195178 15.976117 17.890625 16.386719 C 17.723803 16.611631 17.570418 16.858332 17.410156 17.136719 L 13 13.527344 L 13 8 C 13.484506 7.9990679 13.892047 7.9910532 14.277344 7.9394531 C 14.784927 7.8714782 15.400447 7.6712127 15.751953 7.125 C 16.103375 6.5787147 15.998148 5.8673584 15.798828 5.40625 C 15.599508 4.9451416 15.318997 4.5207682 14.966797 3.9648438 L 14.453125 3.1542969 C 14.096125 2.5908124 13.826932 2.1494761 13.492188 1.765625 C 13.157443 1.3817739 12.618186 1 12 1 z M 12 3.1035156 C 12.157808 3.2883557 12.413925 3.6745263 12.763672 4.2265625 L 13.277344 5.0351562 C 13.558108 5.4783238 13.705281 5.7383149 13.824219 5.9628906 C 13.534798 5.9883958 13.134712 6 12.513672 6 L 11.486328 6 C 10.865288 6 10.465199 5.9883956 10.175781 5.9628906 C 10.294718 5.7383227 10.441881 5.4783232 10.722656 5.0351562 L 11.236328 4.2265625 C 11.586075 3.6745263 11.842192 3.2883557 12 3.1035156 z M 4.6269531 17.789062 C 4.7864983 18.031658 4.975592 18.344176 5.2617188 18.863281 L 5.7558594 19.759766 C 6.0688511 20.327573 6.2698328 20.713876 6.3828125 20.978516 C 6.1386205 20.992646 5.8234805 20.998372 5.2890625 20.982422 L 4.3476562 20.953125 C 3.7183537 20.934315 3.283149 20.912147 3.0507812 20.873047 C 3.1336812 20.633746 3.3469957 20.199497 3.65625 19.599609 L 4.1035156 18.730469 C 4.3425619 18.266755 4.4898287 18.014424 4.6269531 17.789062 z M 19.373047 17.789062 C 19.510184 18.01444 19.657391 18.266739 19.896484 18.730469 L 20.34375 19.599609 C 20.653014 20.199487 20.86633 20.633762 20.949219 20.873047 C 20.716853 20.912137 20.281665 20.934315 19.652344 20.953125 L 18.710938 20.982422 C 18.176503 20.998362 17.861371 20.992636 17.617188 20.978516 C 17.730158 20.713897 17.931126 20.327565 18.244141 19.759766 L 18.738281 18.863281 C 19.024378 18.344192 19.213501 18.031648 19.373047 17.789062 z " fill="currentColor"/>
</svg>
