<svg xmlns="http://www.w3.org/2000/svg" width="1em" height="1em" viewBox="0 0 24 24" fill="currentColor">
  <path d="M 12.244141 0.99804688 C 11.12704 0.99804688 10.328639 1.8285499 10.013672 2.8496094 C 9.7462209 2.7507133 9.5416894 2.5273438 9.2421875 2.5273438 C 7.8714391 2.5273437 6.7392116 3.6602568 6.7421875 5.03125 L 6.75 8.6230469 C 5.973763 9.3218756 4.6741263 10.516474 3.7617188 11.908203 C 3.3107445 12.596095 3.1877073 13.398317 3.2851562 14.109375 C 3.3826051 14.820433 3.6658664 15.458803 4 16.044922 C 4.6682673 17.21716 5.5891729 18.230703 6.0429688 18.845703 A 1.0001 1.0001 0 0 0 6.0800781 18.894531 C 6.8341186 19.795992 7.1020913 20.17291 7.1816406 20.396484 C 7.2611896 20.620059 7.2617188 20.986655 7.2617188 21.994141 A 1 1 0 0 0 8.2617188 22.994141 A 1 1 0 0 0 9.2617188 21.994141 C 9.2617188 21.020727 9.3133488 20.424135 9.0644531 19.724609 C 8.8199473 19.037419 8.3899985 18.539395 7.6523438 17.658203 L 7.6503906 17.65625 C 7.648883 17.654449 7.6479945 17.652195 7.6464844 17.650391 C 7.0752282 16.877346 6.2481066 15.952421 5.7363281 15.054688 C 5.4796968 14.604518 5.3139142 14.175992 5.2675781 13.837891 C 5.2212421 13.499789 5.2592861 13.272765 5.4355469 13.003906 C 5.786059 12.469257 6.2459408 12.107318 6.7558594 11.560547 L 6.7597656 13.482422 A 1 1 0 0 0 7.7617188 14.480469 A 1 1 0 0 0 8.7597656 13.476562 L 8.7421875 5.0273438 C 8.7415634 4.7398171 8.9528359 4.5273438 9.2421875 4.5273438 C 9.5310663 4.5273438 9.7421875 4.7383564 9.7421875 5.0253906 L 9.7421875 10.005859 A 1 1 0 0 0 10.742188 11.005859 A 1 1 0 0 0 11.742188 10.005859 L 11.742188 5.0253906 L 11.742188 3.4980469 C 11.742188 3.2109486 11.955262 2.9980469 12.244141 2.9980469 C 12.533583 2.9980469 12.744765 3.2105201 12.744141 3.4980469 A 1.0001 1.0001 0 0 0 12.744141 3.5 L 12.744141 5.4804688 L 12.744141 11.009766 A 1 1 0 0 0 13.744141 12.009766 A 1 1 0 0 0 14.744141 11.009766 L 14.744141 5.4804688 C 14.744141 5.1934511 14.955262 4.9804689 15.244141 4.9804688 C 15.533418 4.9804688 15.746718 5.1929419 15.746094 5.4804688 A 1.0001 1.0001 0 0 0 15.746094 5.4824219 L 15.746094 10.144531 L 15.746094 11.998047 A 1 1 0 0 0 16.746094 12.998047 A 1 1 0 0 0 17.746094 11.998047 L 17.746094 11.224609 C 17.877688 11.247259 17.984092 11.217309 18.095703 11.261719 C 18.476371 11.413109 18.675995 11.541881 18.748047 12.113281 L 18.748047 15.683594 C 18.748047 16.930454 18.649017 17.616803 17.373047 19.083984 A 1.0001 1.0001 0 0 0 17.333984 19.134766 C 16.595442 20.102294 16.685547 21.14719 16.685547 22.001953 A 1 1 0 0 0 17.685547 23.001953 A 1 1 0 0 0 18.685547 22.001953 C 18.685547 21.051645 18.633423 20.737115 18.916016 20.359375 C 18.919221 20.355656 18.920634 20.351374 18.923828 20.347656 C 20.391221 18.640039 20.748047 17.141913 20.748047 15.683594 L 20.748047 12.001953 A 1.0001 1.0001 0 0 0 20.740234 11.882812 C 20.587304 10.61021 19.693451 9.7441504 18.833984 9.4023438 C 18.41591 9.236077 18.11839 9.314843 17.746094 9.2832031 L 17.746094 5.484375 L 17.746094 5.4824219 C 17.747994 4.1122984 16.614218 2.9804688 15.244141 2.9804688 C 15.006839 2.9804688 14.851216 3.1730263 14.632812 3.2363281 C 14.482076 2.0063361 13.511672 0.99804687 12.244141 0.99804688 z " fill="currentColor"/>
</svg>
