<svg xmlns="http://www.w3.org/2000/svg" width="1em" height="1em" viewBox="0 0 24 24" fill="currentColor">
  <path d="M 13.904297 2.5 C 13.451491 2.5139183 12.999915 2.6782782 12.634766 2.9960938 C 12.512039 3.1027552 12.45219 3.1774173 12.349609 3.2910156 L 8.2578125 7.8203125 C 7.3222415 8.8562928 6.7389209 9.4738031 6.3847656 10.294922 C 5.717323 9.7957388 4.8912276 9.5 4 9.5 C 2.3550085 9.5 1 10.854975 1 12.5 L 1 18.5 C 1 20.145025 2.3550085 21.5 4 21.5 C 5.1863515 21.5 6.2575062 20.973925 6.9921875 20.144531 C 7.0546427 20.217888 7.1211022 20.289298 7.1914062 20.357422 C 7.82803 20.974233 8.6717472 21.262882 9.6074219 21.384766 C 10.543097 21.506649 11.635003 21.5 13.064453 21.5 L 13.576172 21.5 C 15.934953 21.5 17.303443 21.54442 18.564453 20.822266 C 18.679616 20.756316 18.793347 20.685695 18.902344 20.611328 C 20.104321 19.790874 20.637023 18.539218 21.611328 16.441406 C 22.142181 15.298401 22.554016 14.429498 22.796875 13.634766 C 23.039734 12.840033 23.107166 11.992343 22.705078 11.261719 C 22.624267 11.114922 22.532312 10.974887 22.427734 10.84375 C 21.909682 10.194435 21.114991 9.9209173 20.28125 9.8105469 C 19.447509 9.7001764 18.468644 9.7070312 17.183594 9.7070312 L 16.779297 9.7070312 C 16.359089 9.7070312 16.103851 9.6796568 15.982422 9.6699219 C 16.008167 9.5579897 16.054666 9.3288491 16.167969 8.9628906 L 16.433594 8.1015625 C 16.503758 7.8751944 16.545236 7.7452973 16.582031 7.5957031 C 16.886866 6.3556844 16.684237 5.0443558 16.021484 3.9492188 C 15.942012 3.8181031 15.862451 3.7044266 15.728516 3.5097656 L 15.726562 3.5078125 C 15.641255 3.3835834 15.589859 3.3010967 15.482422 3.1796875 C 15.115418 2.7652401 14.613187 2.5367478 14.097656 2.5039062 C 14.033141 2.4997964 13.968983 2.4980117 13.904297 2.5 z M 13.960938 4.5 C 13.967105 4.4990214 13.97567 4.5008282 13.980469 4.5019531 C 13.991734 4.5179652 14.026255 4.5642772 14.080078 4.6425781 C 14.215274 4.8390816 14.272427 4.9234362 14.310547 4.9863281 C 14.702595 5.634151 14.81899 6.3935794 14.640625 7.1191406 C 14.623425 7.1890866 14.593474 7.2838137 14.523438 7.5097656 L 14.257812 8.3710938 C 14.039613 9.0758625 13.791344 9.5599975 14.011719 10.291016 C 14.150529 10.751196 14.454343 11.141094 14.857422 11.394531 C 15.493132 11.794193 16.019897 11.707031 16.779297 11.707031 L 17.183594 11.707031 C 18.468644 11.707031 19.416497 11.713129 20.019531 11.792969 C 20.622565 11.872799 20.774334 11.980312 20.863281 12.091797 C 20.896891 12.134087 20.927405 12.179826 20.953125 12.226562 C 21.017945 12.344337 21.05405 12.490414 20.882812 13.050781 C 20.711572 13.611149 20.327722 14.456615 19.796875 15.599609 C 18.822581 17.697398 18.38046 18.544639 17.773438 18.958984 C 17.707438 19.004014 17.641503 19.046284 17.572266 19.085938 A 1.0001 1.0001 0 0 0 17.570312 19.085938 C 16.927175 19.454614 15.935972 19.5 13.576172 19.5 L 13.064453 19.5 C 11.635003 19.5 10.582983 19.493601 9.8671875 19.400391 C 9.1513921 19.30715 8.8355006 19.165564 8.5839844 18.921875 C 8.3324447 18.678135 8.1963848 18.394298 8.1015625 17.710938 C 8.0067402 17.027577 8 16.008047 8 14.623047 L 8 13.650391 C 8 12.194691 8.0218289 11.59941 8.1914062 11.162109 C 8.3609734 10.724834 8.7528475 10.257629 9.7421875 9.1621094 L 13.833984 4.6308594 C 13.898363 4.5595663 13.937613 4.5184344 13.951172 4.5039062 L 13.953125 4.5019531 C 13.95532 4.5011124 13.958471 4.5003914 13.960938 4.5 z M 4 11.5 C 5.1105787 11.5 5.9908094 12.374243 6 13.482422 C 6.0000484 13.488257 6 13.494152 6 13.5 C 6.0000346 13.549487 6 13.599473 6 13.650391 L 6 14.623047 C 6 14.805391 5.9998939 14.982818 6 15.154297 L 6 17.5 C 6 18.616473 5.1164269 19.5 4 19.5 C 3.4358515 19.5 3 19.064175 3 18.5 L 3 12.5 C 3 11.935825 3.4358515 11.5 4 11.5 z " fill="currentColor"/>
</svg>
