<svg xmlns="http://www.w3.org/2000/svg" width="1em" height="1em" viewBox="0 0 24 24" fill="currentColor">
  <path d="M 12 1 C 5.9367104 1 1 5.9367104 1 12 C 1 18.063244 5.9367044 23 12 23 C 18.06325 23 23 18.06325 23 12 C 23 5.9367044 18.063244 1 12 1 z M 12 3 C 16.982356 3 21 7.0175956 21 12 C 21 16.98235 16.98235 21 12 21 C 7.0175956 21 3 16.982356 3 12 C 3 7.0175896 7.0175896 3 12 3 z M 12.09375 4.9960938 C 11.723387 5.0078515 11.353887 5.1407684 11.048828 5.3984375 C 10.940714 5.4896545 10.898478 5.5436675 10.830078 5.6171875 L 8.1015625 8.5488281 C 7.4420075 9.2576927 7.0094704 9.6893433 6.7441406 10.353516 C 6.4787557 11.017633 6.5 11.626459 6.5 12.568359 L 6.5 13.197266 C 6.5 14.093416 6.4928104 14.78805 6.5839844 15.425781 C 6.6751574 16.063513 6.9151512 16.710047 7.40625 17.171875 C 7.8973291 17.63376 8.5418432 17.838747 9.1992188 17.921875 C 9.8565946 18.005003 10.589994 18 11.542969 18 L 11.884766 18 C 13.457866 18 14.423697 18.04527 15.365234 17.521484 A 1.0001 1.0001 0 0 0 15.365234 17.519531 C 15.448934 17.472911 15.531371 17.424081 15.611328 17.371094 C 16.511216 16.774899 16.887601 15.890621 17.537109 14.533203 C 17.891011 13.793649 18.1719 13.228131 18.347656 12.669922 C 18.523226 12.112307 18.585561 11.424945 18.255859 10.841797 L 18.255859 10.839844 C 18.191917 10.727324 18.117804 10.619851 18.035156 10.519531 C 17.613031 10.005908 16.98559 9.8083675 16.394531 9.7324219 C 15.803473 9.6564762 15.145761 9.6621094 14.289062 9.6621094 L 14.019531 9.6621094 C 13.97695 9.6621094 13.955403 9.6637498 13.947266 9.6660156 L 13.947266 9.6679688 L 13.945312 9.6679688 L 13.945312 9.6699219 L 13.943359 9.6699219 L 13.943359 9.671875 L 13.943359 9.6738281 L 13.941406 9.6757812 L 13.939453 9.6757812 C 13.934708 9.6760061 13.925298 9.6750789 13.910156 9.6738281 C 13.912202 9.6663441 13.913103 9.6619507 13.914062 9.6601562 L 13.916016 9.6601562 C 13.916312 9.6609144 13.917688 9.6630228 13.917969 9.6640625 L 13.917969 9.6660156 L 13.919922 9.6660156 L 13.919922 9.6640625 L 13.921875 9.6640625 C 13.923346 9.6613154 13.924869 9.6554926 13.927734 9.6464844 L 14.105469 9.0898438 C 14.152259 8.9432187 14.180719 8.8537122 14.208984 8.7421875 C 14.436879 7.842605 14.284764 6.8864072 13.792969 6.0976562 A 1.0001 1.0001 0 0 0 13.792969 6.0957031 C 13.731737 5.9975612 13.675922 5.9219193 13.585938 5.7949219 C 13.52801 5.7131706 13.490697 5.6525689 13.396484 5.5488281 C 13.087251 5.2092122 12.674181 5.0242534 12.251953 4.9980469 C 12.199175 4.994771 12.146659 4.9944141 12.09375 4.9960938 z M 12.101562 7.1855469 C 12.298428 7.5173251 12.363089 7.8884044 12.271484 8.25 C 12.263784 8.280515 12.245819 8.336367 12.199219 8.4824219 L 12.021484 9.0390625 C 11.876008 9.4950192 11.657417 9.8606767 11.857422 10.503906 C 11.977363 10.890532 12.23787 11.210067 12.572266 11.414062 C 13.122385 11.74979 13.513231 11.662109 14.019531 11.662109 L 14.289062 11.662109 C 15.145762 11.662109 15.771881 11.669707 16.138672 11.716797 C 16.390841 11.749199 16.470625 11.782432 16.490234 11.792969 L 16.492188 11.791016 C 16.493136 11.792168 16.493244 11.793746 16.494141 11.794922 L 16.496094 11.794922 L 16.496094 11.796875 C 16.500319 11.802671 16.504318 11.808385 16.507812 11.814453 C 16.504024 11.837937 16.490444 11.906414 16.439453 12.068359 C 16.339135 12.386975 16.088273 12.930376 15.734375 13.669922 C 15.084884 15.027304 14.811972 15.500319 14.505859 15.703125 C 14.469019 15.727535 14.431679 15.751658 14.392578 15.773438 C 14.064259 15.956051 13.457866 16 11.884766 16 L 11.542969 16 C 10.589994 16 9.8947889 15.993597 9.4511719 15.9375 C 9.0075548 15.881403 8.8783645 15.809859 8.7773438 15.714844 C 8.6763525 15.619872 8.6213023 15.540222 8.5644531 15.142578 C 8.507604 14.744935 8.5 14.093416 8.5 13.197266 L 8.5 12.568359 C 8.5 11.626459 8.522487 11.293586 8.6015625 11.095703 C 8.6806725 10.897675 8.9068412 10.619032 9.5664062 9.9101562 L 12.101562 7.1855469 z " fill="currentColor"/>
</svg>
