<svg xmlns="http://www.w3.org/2000/svg" width="1em" height="1em" viewBox="0 0 24 24" fill="currentColor">
  <path d="M 9.9921875 2.5 C 8.3465525 2.5 7.094881 2.4948139 6.0332031 2.6132812 C 4.9715252 2.7317485 4.0589073 2.9942446 3.2949219 3.5605469 C 2.7679552 3.9511716 2.3124888 4.4341667 1.9472656 4.9863281 C 1.2685491 6.0124602 1.0715771 7.2320993 1.0019531 8.8359375 C 0.96467566 9.6942966 1.6756983 10.34375 2.4648438 10.34375 C 3.278503 10.34375 3.9746094 11.04352 3.9746094 12 C 3.9746094 12.95648 3.2785271 13.65625 2.4648438 13.65625 C 1.6756179 13.65625 0.96468546 14.305765 1.0019531 15.164062 C 1.0715771 16.767921 1.2685859 17.987531 1.9472656 19.013672 C 2.3124639 19.565699 2.767921 20.048815 3.2949219 20.439453 C 4.058907 21.005768 4.971522 21.268248 6.0332031 21.386719 C 7.0948843 21.505189 8.3465475 21.5 9.9921875 21.5 L 14.007812 21.5 C 15.653412 21.5 16.905114 21.5052 17.966797 21.386719 C 19.02848 21.268249 19.943047 21.005778 20.707031 20.439453 C 21.234126 20.048773 21.689535 19.565631 22.054688 19.013672 C 22.733491 17.98739 22.930408 16.768119 23 15.164062 A 1.0001 1.0001 0 0 0 23 15.121094 L 23 8.8789062 A 1.0001 1.0001 0 0 0 23 8.8359375 C 22.930408 7.2318018 22.733518 6.0125723 22.054688 4.9863281 C 21.689509 4.4342344 21.234091 3.9512137 20.707031 3.5605469 C 19.943046 2.9942353 19.028478 2.7317484 17.966797 2.6132812 C 16.905116 2.4948141 15.653411 2.5 14.007812 2.5 L 9.9921875 2.5 z M 9.9921875 4.5 L 14.007812 4.5 C 15.653412 4.5 16.870499 4.50386 17.746094 4.6015625 C 18.621688 4.6992655 19.11311 4.8696003 19.515625 5.1679688 C 19.851765 5.417122 20.147497 5.7281775 20.386719 6.0898438 C 20.758489 6.6518796 20.935792 7.4418509 21 8.921875 L 21 15.078125 C 20.93579 16.558067 20.758515 17.348038 20.386719 17.910156 C 20.147472 18.271797 19.851731 18.582911 19.515625 18.832031 C 19.11311 19.130407 18.621686 19.300733 17.746094 19.398438 C 16.870502 19.496142 15.653413 19.5 14.007812 19.5 L 9.9921875 19.5 C 8.3465475 19.5 7.1314482 19.4961 6.2558594 19.398438 C 5.3802705 19.300733 4.8869099 19.130416 4.484375 18.832031 C 4.1482359 18.582869 3.8544361 18.271729 3.6152344 17.910156 C 3.301674 17.436063 3.1817262 16.596961 3.0957031 15.521484 C 4.7330674 15.196602 5.9746094 13.75067 5.9746094 12 C 5.9746094 10.24933 4.7330797 8.803407 3.0957031 8.4785156 C 3.1817301 7.4030351 3.301705 6.5638598 3.6152344 6.0898438 C 3.8544112 5.7282452 4.1482017 5.417164 4.484375 5.1679688 C 4.8869096 4.869591 5.3802698 4.6992652 6.2558594 4.6015625 C 7.131449 4.5038598 8.3465525 4.5 9.9921875 4.5 z M 13 11 A 1 1 0 0 0 12 12 A 1 1 0 0 0 13 13 L 17 13 A 1 1 0 0 0 18 12 A 1 1 0 0 0 17 11 L 13 11 z M 9 15 A 1 1 0 0 0 8 16 A 1 1 0 0 0 9 17 L 17 17 A 1 1 0 0 0 18 16 A 1 1 0 0 0 17 15 L 9 15 z " fill="currentColor"/>
</svg>
