<svg xmlns="http://www.w3.org/2000/svg" width="1em" height="1em" viewBox="0 0 24 24" fill="currentColor">
  <path d="M 19.40625 3.0117188 C 18.560708 2.983743 17.70377 3.2463272 17 3.8300781 C 13.700584 6.5667723 11.114833 9.2198884 8.6796875 12.017578 L 7.5703125 10.761719 C 5.9523947 8.9297677 2.9788579 9.137842 1.6289062 11.175781 C 0.67749001 12.612099 0.8193301 14.523326 1.9726562 15.802734 L 4.0371094 18.091797 C 4.8089729 18.94799 5.3949173 19.608832 5.9824219 20.111328 C 6.5699264 20.613824 7.2448452 20.993114 8.0136719 21 C 8.8037352 21.0072 9.4863457 20.615934 10.105469 20.097656 C 10.724592 19.579379 11.36314 18.889135 12.205078 17.988281 C 15.153001 14.834118 18.020804 12.676811 21.697266 9.5605469 C 23.191799 8.2936378 23.420728 6.0592773 22.255859 4.4960938 C 21.637693 3.6665723 20.7263 3.1673078 19.767578 3.0410156 C 19.647738 3.0252291 19.527042 3.0157153 19.40625 3.0117188 z M 19.359375 4.9921875 C 19.4134 4.9940251 19.467897 4.9985221 19.521484 5.0058594 C 19.950187 5.0645574 20.35871 5.2973777 20.652344 5.6914062 C 21.203275 6.4307228 21.096964 7.4479853 20.404297 8.0351562 C 16.772959 11.113172 13.822418 13.32941 10.744141 16.623047 C 9.9022087 17.523893 9.2767402 18.184005 8.8222656 18.564453 C 8.367791 18.944901 8.1678267 19.001238 8.03125 19 C 7.8734367 18.998586 7.6972754 18.945673 7.28125 18.589844 C 6.8652246 18.234015 6.2933609 17.610113 5.5214844 16.753906 L 3.4589844 14.462891 C 2.9123506 13.856499 2.8449313 12.961579 3.296875 12.279297 C 3.9523035 11.289836 5.2883234 11.196335 6.0722656 12.083984 L 7.3886719 13.574219 C 7.5185134 13.721209 7.6035357 13.859764 7.8769531 14.027344 C 8.3656841 14.326822 9.0006923 14.324144 9.4863281 14.019531 C 9.7604524 13.847541 9.8431099 13.70842 9.9726562 13.558594 C 12.417086 10.731281 14.975102 8.1065589 18.275391 5.3691406 C 18.597732 5.1017703 18.9812 4.9793244 19.359375 4.9921875 z " fill="currentColor"/>
</svg>
