<svg xmlns="http://www.w3.org/2000/svg" width="1em" height="1em" viewBox="0 0 24 24" fill="currentColor">
  <path d="M 12 1.5 C 9.76083 1.5 8.061073 1.4944581 6.6542969 1.6835938 C 5.2475207 1.8727295 4.0688969 2.2982969 3.1835938 3.1835938 C 2.2982969 4.0688968 1.8727295 5.2475207 1.6835938 6.6542969 C 1.494458 8.061073 1.5 9.76083 1.5 12 C 1.5 14.23915 1.4944601 15.93892 1.6835938 17.345703 C 1.8727292 18.752486 2.2983047 19.931079 3.1835938 20.816406 C 4.0688995 21.70168 5.2475238 22.127276 6.6542969 22.316406 C 8.0610699 22.505536 9.76083 22.5 12 22.5 C 14.23915 22.5 15.938923 22.5055 17.345703 22.316406 C 18.752483 22.127277 19.931076 21.701673 20.816406 20.816406 C 21.701673 19.931076 22.127277 18.752483 22.316406 17.345703 C 22.505536 15.938923 22.5 14.23915 22.5 12 C 22.5 9.76083 22.5055 8.0610699 22.316406 6.6542969 C 22.127276 5.2475238 21.70168 4.0688995 20.816406 3.1835938 C 19.931079 2.2983046 18.752486 1.8727291 17.345703 1.6835938 C 15.93892 1.4944584 14.23915 1.5 12 1.5 z M 12 3.5 C 14.23915 3.5 15.897908 3.50539 17.078125 3.6640625 C 18.258342 3.8227371 18.896371 4.0917053 19.402344 4.5976562 C 19.90827 5.1036005 20.177267 5.7416656 20.335938 6.921875 C 20.494609 8.1020844 20.5 9.76083 20.5 12 C 20.5 14.23915 20.4946 15.897905 20.335938 17.078125 C 20.177267 18.258345 19.908277 18.896374 19.402344 19.402344 C 18.896374 19.908277 18.258345 20.177267 17.078125 20.335938 C 15.897905 20.494609 14.23915 20.5 12 20.5 C 9.76083 20.5 8.1020844 20.494608 6.921875 20.335938 C 5.7416656 20.177267 5.1036004 19.90827 4.5976562 19.402344 C 4.0917053 18.896371 3.8227371 18.258342 3.6640625 17.078125 C 3.5053879 15.897908 3.5 14.23915 3.5 12 C 3.5 9.76083 3.5053882 8.1020814 3.6640625 6.921875 C 3.8227368 5.7416686 4.091713 5.1036031 4.5976562 4.5976562 C 5.1036031 4.0917131 5.7416686 3.8227368 6.921875 3.6640625 C 8.1020814 3.5053882 9.76083 3.5 12 3.5 z M 13.398438 4.984375 A 1.0001 1.0001 0 0 0 12.482422 5.8496094 C 12.476122 5.8971264 12.50383 5.9446204 12.5 5.9921875 L 12.474609 5.9902344 L 12.550781 14.626953 C 12.256561 15.565417 11.988494 16.093739 11.822266 16.304688 C 11.646341 16.527942 11.595885 16.523311 11.294922 16.705078 C 10.583725 17.134619 9.9985784 17.114162 9.4453125 16.947266 C 8.8972517 16.781937 8.412244 16.398763 8.265625 16.240234 C 8.0869995 16.029691 7.7716144 15.528751 7.6308594 14.978516 C 7.4886247 14.422497 7.4882044 13.849911 7.8105469 13.253906 C 8.1410226 12.642821 8.6034558 12.334943 9.1074219 12.154297 C 9.611388 11.973651 10.166387 11.965527 10.396484 11.998047 A 1 1 0 0 0 11.525391 11.146484 A 1 1 0 0 0 10.675781 10.017578 C 10.085829 9.9341981 9.2964195 9.9634575 8.4316406 10.273438 C 7.5668617 10.583415 6.6368556 11.21902 6.0507812 12.302734 C 5.4565639 13.40143 5.4587491 14.557478 5.6933594 15.474609 C 5.9279697 16.39174 6.3569688 17.094891 6.7558594 17.558594 A 1.0001 1.0001 0 0 0 6.7734375 17.580078 C 7.2013224 18.051305 7.8937184 18.567675 8.8671875 18.861328 C 9.8406566 19.154982 11.120182 19.147528 12.328125 18.417969 C 12.502861 18.312436 12.985203 18.057987 13.392578 17.541016 C 13.799953 17.024044 14.15296 16.293037 14.509766 15.101562 A 1.0001 1.0001 0 0 0 14.552734 14.806641 L 14.505859 9.4140625 C 15.267914 9.9488015 16.175715 10.394754 17.390625 10.501953 A 1 1 0 0 0 18.474609 9.59375 A 1 1 0 0 0 17.566406 8.5097656 C 16.272205 8.3955702 15.505123 7.8890934 15.033203 7.3496094 C 14.570982 6.8212125 14.477381 6.189949 14.476562 6.1386719 L 14.474609 5.9726562 A 1.0001 1.0001 0 0 0 13.535156 4.984375 A 1.0001 1.0001 0 0 0 13.398438 4.984375 z " fill="currentColor"/>
</svg>
