<svg xmlns="http://www.w3.org/2000/svg" width="1em" height="1em" viewBox="0 0 24 24" fill="currentColor">
  <path d="M 10 1 A 1 1 0 0 0 9 2 A 1 1 0 0 0 10 3 L 15 3 A 1 1 0 0 0 16 2 A 1 1 0 0 0 15 1 L 10 1 z M 12.5 4 C 7.2651398 4 3 8.2651398 3 13.5 A 1 1 0 0 0 4 14.5 A 1 1 0 0 0 5 13.5 C 5 9.3460202 8.3460202 6 12.5 6 C 14.57698 6 16.44437 6.8389008 17.802734 8.1972656 C 19.161099 9.5556304 20 11.423023 20 13.5 C 20 17.653955 16.653955 21 12.5 21 L 3 21 A 1 1 0 0 0 2 22 A 1 1 0 0 0 3 23 L 12.5 23 C 17.734845 23 22 18.734845 22 13.5 C 22 11.248326 21.101038 9.2573607 19.787109 7.6269531 L 20.707031 6.7070312 A 1 1 0 0 0 20.707031 5.2929688 A 1 1 0 0 0 19.292969 5.2929688 L 18.373047 6.2128906 C 16.742641 4.8989642 14.751671 4 12.5 4 z M 16 9 A 1 1 0 0 0 15.292969 9.2929688 L 11.792969 12.792969 A 1 1 0 0 0 11.792969 14.207031 A 1 1 0 0 0 13.207031 14.207031 L 16.707031 10.707031 A 1 1 0 0 0 16.707031 9.2929688 A 1 1 0 0 0 16 9 z M 3 15 A 1 1 0 0 0 2 16 A 1 1 0 0 0 3 17 L 6 17 A 1 1 0 0 0 7 16 A 1 1 0 0 0 6 15 L 3 15 z M 3 18 A 1 1 0 0 0 2 19 A 1 1 0 0 0 3 20 L 8 20 A 1 1 0 0 0 9 19 A 1 1 0 0 0 8 18 L 3 18 z " fill="currentColor"/>
</svg>
