<svg xmlns="http://www.w3.org/2000/svg" width="1em" height="1em" viewBox="0 0 24 24" fill="currentColor">
  <path d="M 12 1 C 5.9367104 1 1 5.9367104 1 12 C 1 18.063244 5.9367044 23 12 23 C 12.380272 23 12.755947 22.981199 13.126953 22.943359 A 1 1 0 0 0 14.021484 21.845703 A 1 1 0 0 0 12.923828 20.953125 C 12.620234 20.984086 12.312528 21 12 21 C 7.0175956 21 3 16.982356 3 12 C 3 7.0175896 7.0175896 3 12 3 C 16.982356 3 21 7.0175956 21 12 C 21 12.617834 20.93825 13.219456 20.820312 13.800781 A 1 1 0 0 0 21.601562 14.980469 A 1 1 0 0 0 22.779297 14.199219 C 22.923559 13.488144 23 12.751966 23 12 C 23 5.9367044 18.063244 1 12 1 z M 12 7 A 1 1 0 0 0 11 8 L 11 12 A 1.0001 1.0001 0 0 0 11.292969 12.707031 L 12.792969 14.207031 A 1 1 0 0 0 14.207031 14.207031 A 1 1 0 0 0 14.207031 12.792969 L 13 11.585938 L 13 8 A 1 1 0 0 0 12 7 z M 16.486328 14.001953 C 16.209856 14.008336 15.86861 14.09661 15.611328 14.306641 C 15.164606 14.671432 14.986258 15.271342 15.001953 15.716797 C 15.017643 16.162252 15.148176 16.525217 15.291016 16.855469 C 15.576695 17.515973 15.985791 18.127318 16.050781 18.253906 C 16.139062 18.425838 16.152474 18.48619 16.154297 18.498047 L 16.154297 18.5 L 16.154297 18.501953 C 16.152402 18.514467 16.138716 18.574828 16.050781 18.746094 C 15.985791 18.872682 15.576695 19.484027 15.291016 20.144531 C 15.148176 20.474783 15.017648 20.837748 15.001953 21.283203 C 14.986253 21.728658 15.164606 22.328568 15.611328 22.693359 C 15.905364 22.933395 16.307937 23.014698 16.599609 22.996094 C 16.891282 22.977484 17.117427 22.900584 17.345703 22.810547 C 17.802255 22.630472 18.277905 22.366641 18.90625 22.027344 L 20.021484 21.425781 C 20.839698 20.983974 21.471941 20.653386 21.992188 20.257812 C 22.512434 19.862239 23 19.238768 23 18.5 C 23 17.761232 22.512434 17.137761 21.992188 16.742188 C 21.471941 16.346614 20.839698 16.016026 20.021484 15.574219 L 18.90625 14.972656 C 18.277905 14.633359 17.802255 14.369528 17.345703 14.189453 C 17.117427 14.099413 16.891282 14.022511 16.599609 14.003906 C 16.56315 14.001581 16.525824 14.001041 16.486328 14.001953 z M 17.318359 16.408203 C 17.537769 16.521149 17.656938 16.571431 17.955078 16.732422 L 19.070312 17.333984 C 19.8885 17.775777 20.483297 18.107433 20.78125 18.333984 C 20.908939 18.431074 20.967115 18.478684 20.992188 18.5 C 20.967116 18.521315 20.90894 18.568922 20.78125 18.666016 C 20.483297 18.892567 19.888499 19.224223 19.070312 19.666016 L 17.955078 20.267578 C 17.656938 20.428569 17.537769 20.478851 17.318359 20.591797 C 17.487256 20.283073 17.6709 19.970205 17.830078 19.660156 C 18.007851 19.313951 18.155626 18.928037 18.154297 18.492188 C 18.152997 18.056339 18.003595 17.677777 17.830078 17.339844 C 17.6709 17.029795 17.487256 16.716927 17.318359 16.408203 z " fill="currentColor"/>
</svg>
