<svg xmlns="http://www.w3.org/2000/svg" width="1em" height="1em" viewBox="0 0 24 24" fill="currentColor">
  <path d="M 12 1 C 5.9367104 1 1 5.9367104 1 12 A 1 1 0 0 0 2 13 A 1 1 0 0 0 3 12 C 3 7.0175896 7.0175896 3 12 3 C 16.982356 3 21 7.0175956 21 12 C 21 16.98235 16.98235 21 12 21 A 1 1 0 0 0 11 22 A 1 1 0 0 0 12 23 C 18.06325 23 23 18.06325 23 12 C 23 5.9367044 18.063244 1 12 1 z M 12 9.5 C 11.019262 9.5 10.326079 10.167322 9.9179688 11 L 6 11 A 1 1 0 0 0 5 12 A 1 1 0 0 0 6 13 L 9.9179688 13 C 10.164563 13.503133 10.496867 13.835437 11 14.082031 L 11 16 A 1 1 0 0 0 12 17 A 1 1 0 0 0 13 16 L 13 14.082031 C 13.832678 13.673921 14.5 12.980738 14.5 12 C 14.5 10.63112 13.36888 9.5 12 9.5 z M 12 11.5 C 12.28792 11.5 12.5 11.71208 12.5 12 C 12.5 12.28792 12.28792 12.5 12 12.5 C 11.71208 12.5 11.5 12.28792 11.5 12 C 11.5 11.71208 11.71208 11.5 12 11.5 z M 1.9394531 14.001953 A 1 1 0 0 0 1.6835938 14.050781 A 1 1 0 0 0 1.0507812 15.316406 C 1.2062659 15.781869 1.3902444 16.235778 1.5976562 16.673828 A 1 1 0 0 0 2.9277344 17.148438 A 1 1 0 0 0 3.4042969 15.816406 C 3.2309287 15.450256 3.0792741 15.072931 2.9492188 14.683594 A 1 1 0 0 0 1.9394531 14.001953 z M 4.0683594 17.748047 A 1 1 0 0 0 3.4726562 17.988281 A 1 1 0 0 0 3.3671875 19.398438 C 3.7117293 19.798883 4.0813757 20.176197 4.4746094 20.527344 A 1 1 0 0 0 5.8867188 20.447266 A 1 1 0 0 0 5.8066406 19.035156 C 5.4791342 18.742705 5.1704907 18.428105 4.8828125 18.09375 A 1 1 0 0 0 4.0683594 17.748047 z M 7.7480469 20.482422 A 1 1 0 0 0 7.3613281 20.539062 A 1 1 0 0 0 6.7929688 21.052734 A 1 1 0 0 0 7.2675781 22.384766 C 7.727691 22.603773 8.2031855 22.793203 8.6933594 22.951172 A 1 1 0 0 0 9.9511719 22.306641 A 1 1 0 0 0 9.3066406 21.048828 C 8.9012945 20.918197 8.5080402 20.761471 8.1269531 20.580078 A 1 1 0 0 0 7.7480469 20.482422 z " fill="currentColor"/>
</svg>
