<svg xmlns="http://www.w3.org/2000/svg" width="1em" height="1em" viewBox="0 0 24 24" fill="currentColor">
  <path d="M 12 1 C 5.9367104 1 1 5.9367104 1 12 C 1 18.063244 5.9367044 23 12 23 C 18.06325 23 23 18.06325 23 12 A 1 1 0 0 0 22 11 A 1 1 0 0 0 21 12 C 21 16.98235 16.98235 21 12 21 C 7.0175956 21 3 16.982356 3 12 C 3 7.0175896 7.0175896 3 12 3 A 1 1 0 0 0 13 2 A 1 1 0 0 0 12 1 z M 15.025391 1 A 1 1 0 0 0 14.041016 1.7167969 A 1 1 0 0 0 14.716797 2.9589844 C 15.145217 3.0856619 15.567951 3.2491024 15.980469 3.4472656 A 1 1 0 0 0 17.314453 2.9804688 A 1 1 0 0 0 16.845703 1.6445312 C 16.341021 1.4020945 15.818983 1.1994381 15.283203 1.0410156 A 1 1 0 0 0 15.025391 1 z M 18.785156 3.171875 A 1 1 0 0 0 18.097656 3.5078125 A 1 1 0 0 0 18.185547 4.9199219 C 18.343966 5.0597801 18.498541 5.2055179 18.648438 5.3554688 C 18.798061 5.5051473 18.942047 5.6596503 19.082031 5.8183594 A 1 1 0 0 0 20.494141 5.90625 A 1 1 0 0 0 20.582031 4.4941406 C 20.414616 4.3043289 20.241676 4.1206477 20.0625 3.9414062 C 19.883596 3.762437 19.699746 3.5876437 19.509766 3.4199219 A 1 1 0 0 0 18.785156 3.171875 z M 12 5 A 1 1 0 0 0 11 6 L 11 12 A 1.0001 1.0001 0 0 0 12 13 L 16 13 A 1 1 0 0 0 17 12 A 1 1 0 0 0 16 11 L 13 11 L 13 6 A 1 1 0 0 0 12 5 z M 21.378906 6.5566406 A 1 1 0 0 0 21.001953 6.6542969 A 1 1 0 0 0 20.537109 7.9902344 C 20.74157 8.4118975 20.91115 8.8446546 21.041016 9.2832031 A 1 1 0 0 0 22.283203 9.9589844 A 1 1 0 0 0 22.958984 8.7167969 C 22.79665 8.1686054 22.58783 7.6345975 22.337891 7.1191406 A 1 1 0 0 0 21.378906 6.5566406 z " fill="currentColor"/>
</svg>
