<svg xmlns="http://www.w3.org/2000/svg" width="1em" height="1em" viewBox="0 0 24 24" fill="currentColor">
  <path d="M 12 1 C 5.9367124 1 1 5.9367124 1 12 C 1 18.063288 5.9367124 23 12 23 C 18.063288 23 23 18.063288 23 12 C 23 5.9367124 18.063288 1 12 1 z M 12 3 C 16.982407 3 21 7.0175926 21 12 C 21 16.982407 16.982407 21 12 21 C 7.0175926 21 3 16.982407 3 12 C 3 7.0175926 7.0175926 3 12 3 z M 7.9902344 7 A 1 1 0 0 0 7.859375 7.0097656 A 1 1 0 0 0 7.1992188 7.4003906 A 1 1 0 0 0 7.4003906 8.8007812 C 7.6863062 9.0152128 7.9510452 9.1734975 8.1230469 9.3183594 C 8.2280952 9.4068322 8.2729965 9.4689207 8.2910156 9.4941406 C 8.2812859 9.5105151 8.2669773 9.5361672 8.2441406 9.5722656 C 8.1506589 9.7200393 7.9345844 9.988185 7.625 10.361328 A 1 1 0 0 0 7.7558594 11.769531 A 1 1 0 0 0 9.1640625 11.638672 C 9.4736581 11.265515 9.7232236 10.973161 9.9335938 10.640625 C 10.143964 10.308089 10.323961 9.8679558 10.298828 9.3984375 C 10.295068 9.3282578 10.288058 9.2589564 10.277344 9.1894531 C 10.173019 8.5127057 9.752737 8.075635 9.4101562 7.7871094 C 9.0675754 7.4985837 8.7368638 7.3021572 8.5996094 7.1992188 A 1 1 0 0 0 7.9902344 7 z M 16.009766 7 A 1 1 0 0 0 15.400391 7.1992188 C 15.263111 7.302172 14.932429 7.4985778 14.589844 7.7871094 C 14.247604 8.0753502 13.82747 8.511901 13.722656 9.1875 C 13.711626 9.258395 13.704912 9.3289734 13.701172 9.3984375 C 13.676082 9.8679404 13.856054 10.308112 14.066406 10.640625 C 14.276758 10.973138 14.52639 11.265525 14.835938 11.638672 A 1 1 0 0 0 16.244141 11.769531 A 1 1 0 0 0 16.375 10.361328 C 16.065447 9.9881748 15.849357 9.7200625 15.755859 9.5722656 C 15.733039 9.5361924 15.718716 9.5105156 15.708984 9.4941406 C 15.726984 9.4689369 15.771845 9.4068606 15.876953 9.3183594 C 16.048943 9.1735059 16.313689 9.015208 16.599609 8.8007812 A 1 1 0 0 0 16.800781 7.4003906 A 1 1 0 0 0 16.140625 7.0097656 A 1 1 0 0 0 16.009766 7 z M 12 12.5 C 9.945933 12.5 8.1472148 13.6721 7.359375 15.40625 C 7.2341303 15.68191 7.1125252 15.907058 7.0371094 16.259766 C 6.9616934 16.612473 7.0727324 17.234926 7.3867188 17.564453 C 7.7532976 17.949328 8.3485543 18.027107 8.7089844 17.982422 C 9.0694145 17.937732 9.3703525 17.841313 9.7519531 17.730469 C 10.416137 17.537602 11.237953 17.371094 12 17.371094 C 12.762047 17.371094 13.583904 17.537606 14.248047 17.730469 C 14.629672 17.841312 14.930586 17.937738 15.291016 17.982422 C 15.651445 18.027102 16.246711 17.949302 16.613281 17.564453 C 16.927314 17.234907 17.038337 16.612468 16.962891 16.259766 C 16.887444 15.907063 16.765869 15.681888 16.640625 15.40625 C 15.852834 13.672068 14.054067 12.5 12 12.5 z M 12 14.5 C 13.036021 14.5 13.837116 15.041137 14.384766 15.742188 C 13.671481 15.556805 12.885127 15.371094 12 15.371094 C 11.114873 15.371094 10.328531 15.556807 9.6152344 15.742188 C 10.162911 15.041121 10.963979 14.5 12 14.5 z " fill="currentColor"/>
</svg>
