<svg xmlns="http://www.w3.org/2000/svg" width="1em" height="1em" viewBox="0 0 24 24" fill="currentColor">
  <path d="M 7.953125 1 C 7.4315715 1.0079807 6.88172 1.0416882 6.328125 1.1484375 C 5.2209351 1.361936 4.0260066 1.9708134 3.3789062 3.2246094 C 2.7838959 4.377482 2.9820122 5.5725456 3.1953125 7.6054688 L 3.5644531 11.109375 C 3.6789211 12.200311 4.6343574 13 5.7109375 13 A 1 1 0 0 0 6.7109375 12 A 1 1 0 0 0 5.7109375 11 C 5.5973976 11 5.5566864 10.940008 5.5527344 10.902344 L 5.1855469 7.3964844 C 4.9722472 5.3635676 4.9577602 4.5271655 5.15625 4.1425781 C 5.4958596 3.4845641 5.9496481 3.2569971 6.7050781 3.1113281 C 7.4605082 2.9656592 8.4435122 3.0097656 9.40625 3.0097656 L 14.59375 3.0097656 C 15.556502 3.0097656 16.53949 2.9656586 17.294922 3.1113281 C 18.050354 3.2569971 18.504145 3.4845659 18.84375 4.1425781 C 19.042232 4.5271996 19.027754 5.3635805 18.814453 7.3964844 L 18.447266 10.902344 C 18.443309 10.940054 18.402675 11 18.289062 11 A 1 1 0 0 0 17.289062 12 A 1 1 0 0 0 18.289062 13 C 19.365651 13 20.321103 12.200264 20.435547 11.109375 L 20.804688 7.6054688 C 21.017989 5.5725327 21.216011 4.3774479 20.621094 3.2246094 C 19.973999 1.9708116 18.779068 1.361936 17.671875 1.1484375 C 16.564682 0.93493902 15.470398 1.0097656 14.59375 1.0097656 L 9.40625 1.0097656 C 8.9679339 1.0097656 8.4746785 0.99201934 7.953125 1 z M 12 4 C 9.115309 4 7 6.8062276 7 10 C 7 11.102826 7.2429049 12.143244 7.6835938 13.042969 C 6.7864609 13.226879 6 13.979799 6 15 C 6 16.806137 6.7577207 18.598022 8.0292969 19.841797 C 8.2399006 20.047793 8.3234325 20.165974 8.3652344 20.220703 C 8.3244564 20.260853 8.2293914 20.337803 8.0761719 20.513672 C 7.6653656 20.984972 7.6283927 21.782401 7.9238281 22.255859 C 8.2192636 22.729318 8.709524 23 9.2773438 23 L 14.722656 23 C 15.290466 23 15.780742 22.729339 16.076172 22.255859 C 16.371315 21.78284 16.333497 20.987084 15.923828 20.515625 L 15.923828 20.513672 C 15.77134 20.338832 15.675355 20.260676 15.634766 20.220703 C 15.676566 20.165983 15.760099 20.047786 15.970703 19.841797 C 17.24235 18.598058 18 16.80612 18 15 C 18 13.980182 17.213085 13.227258 16.316406 13.042969 C 16.756613 12.143196 17 11.102922 17 10 C 17 6.8062179 14.884663 4 12 4 z M 12 6 C 13.533537 6 15 7.6709421 15 10 C 15 11.214189 14.579492 12.285461 13.972656 13 L 10.025391 13 C 9.418907 12.285466 9 11.214198 9 10 C 9 7.6709324 10.466411 6 12 6 z M 8.1074219 15 L 15.892578 15 C 15.988675 15 15.999104 15.004684 16 15.001953 C 15.999215 16.216221 15.417847 17.585054 14.572266 18.412109 C 14.302391 18.676071 13.937068 18.983312 13.707031 19.556641 C 13.540709 19.97117 13.643161 20.511278 13.863281 21 L 10.136719 21 C 10.356824 20.511273 10.459294 19.97116 10.292969 19.556641 C 10.062927 18.983326 9.6975903 18.676062 9.4277344 18.412109 C 8.5821815 17.585044 8.0007843 16.216205 8 15.001953 C 8.0009039 15.004661 8.0113728 15 8.1074219 15 z " fill="currentColor"/>
</svg>
