<svg xmlns="http://www.w3.org/2000/svg" width="1em" height="1em" viewBox="0 0 24 24" fill="currentColor">
  <path d="M 9.1542969 1.0019531 C 7.8361154 1.0019531 6.5996094 2.0254264 6.5996094 3.4277344 L 6.5996094 8.5332031 C 6.0306932 9.0437188 5.4454503 9.573327 4.9667969 10.037109 C 4.6781481 10.31679 4.4244607 10.573172 4.2167969 10.798828 C 4.0222483 11.010233 3.883981 11.149836 3.7285156 11.439453 C 3.21454 12.227741 2.9040851 13.144859 3.0332031 14.113281 C 3.165504 15.105576 3.6708183 16.061781 4.4941406 17.166016 C 5.0021546 17.847383 5.5488419 18.523481 5.9804688 19.042969 C 6.1962823 19.302713 6.3841094 19.521949 6.5234375 19.683594 C 6.5931015 19.764414 6.6503365 19.831998 6.6953125 19.882812 C 6.7402885 19.933633 6.7231025 19.922032 6.8261719 20.021484 C 7.0320056 20.220168 7.0853048 20.383839 7.1171875 20.708984 C 7.1490705 21.03413 7.1035156 21.477191 7.1035156 21.998047 A 1 1 0 0 0 8.1035156 22.998047 A 1 1 0 0 0 9.1035156 21.998047 C 9.1035156 21.642203 9.1672409 21.123751 9.1074219 20.513672 C 9.0475999 19.903593 8.8098299 19.158301 8.2148438 18.583984 C 8.2998038 18.665964 8.2299024 18.597921 8.1933594 18.556641 C 8.1568154 18.515351 8.1023984 18.454653 8.0371094 18.378906 C 7.9065272 18.22741 7.7275028 18.015931 7.5195312 17.765625 C 7.1035881 17.265013 6.5738822 16.609435 6.0976562 15.970703 C 5.3772787 15.004537 5.0781866 14.31884 5.015625 13.849609 C 4.953063 13.380379 5.050208 13.041436 5.4199219 12.490234 A 1.0001 1.0001 0 0 0 5.4707031 12.400391 C 5.4643567 12.413371 5.4605287 12.425064 5.4589844 12.429688 L 5.4589844 12.431641 L 5.4609375 12.431641 L 5.4609375 12.429688 C 5.4778164 12.414259 5.5697613 12.28028 5.6875 12.152344 C 5.8526084 11.97293 6.087635 11.735954 6.359375 11.472656 C 6.427858 11.406296 6.5266273 11.321514 6.5996094 11.251953 L 6.5996094 13.544922 A 1 1 0 0 0 7.5996094 14.544922 A 1 1 0 0 0 8.5996094 13.544922 L 8.5996094 8.9707031 L 8.5996094 3.4277344 C 8.5996094 3.1867623 8.7947383 3.0019531 9.1542969 3.0019531 C 9.5138554 3.0019531 9.6660156 3.1513778 9.6660156 3.4277344 A 1.0001 1.0001 0 0 0 9.6660156 3.4394531 L 9.734375 8.5 L 9.734375 8.5136719 L 9.734375 11.029297 A 1 1 0 0 0 10.734375 12.029297 A 1 1 0 0 0 11.734375 11.029297 L 11.734375 9.1289062 C 12.033453 9.0667962 12.607083 9.0642443 12.804688 9.90625 A 1 1 0 0 0 12.806641 9.9101562 L 12.806641 9.9121094 A 1.0001 1.0001 0 0 0 12.808594 9.9179688 C 12.809342 9.9218387 12.809747 9.9258285 12.810547 9.9296875 L 12.810547 9.9316406 A 1 1 0 0 0 12.810547 9.9335938 C 12.812747 9.9499737 12.814453 9.9781214 12.814453 10.021484 L 12.814453 11.025391 A 1 1 0 0 0 13.814453 12.025391 A 1 1 0 0 0 14.814453 11.025391 L 14.814453 10.021484 C 14.814453 10.018584 14.81446 10.014619 14.814453 10.011719 C 14.898833 10.001319 14.980184 9.981926 15.113281 10.015625 C 15.492643 10.111695 15.823293 10.3125 15.863281 10.933594 L 15.863281 12.025391 A 1 1 0 0 0 16.863281 13.025391 A 1 1 0 0 0 17.863281 12.025391 L 17.863281 11.273438 C 17.985034 11.295158 18.135793 11.247317 18.203125 11.279297 A 1.0001 1.0001 0 0 0 18.302734 11.320312 C 18.628642 11.43358 18.765118 11.595106 18.863281 11.769531 C 18.937401 11.901238 18.95869 12.081781 18.96875 12.109375 L 18.970703 12.109375 L 18.970703 12.111328 L 18.972656 12.111328 L 18.972656 12.109375 C 18.97355 12.106265 18.975739 12.100524 18.976562 12.091797 A 1.0001 1.0001 0 0 0 18.972656 12.15625 C 18.972656 12.947545 19.019714 14.083159 18.990234 15.160156 C 18.960754 16.237154 18.785952 17.288895 18.646484 17.564453 A 1.0001 1.0001 0 0 0 18.628906 17.599609 C 18.394971 18.107796 18.081618 18.432348 17.703125 18.890625 C 17.324632 19.348902 16.872178 20.030051 16.84375 20.921875 A 1.0001 1.0001 0 0 0 16.84375 20.955078 L 16.84375 21.994141 A 1 1 0 0 0 17.84375 22.994141 A 1 1 0 0 0 18.84375 21.994141 L 18.84375 20.986328 C 18.85442 20.651552 18.94146 20.53291 19.246094 20.164062 C 19.54665 19.800151 20.050507 19.271611 20.431641 18.458984 C 20.911761 17.504103 20.956336 16.381792 20.988281 15.214844 C 21.019627 14.069738 20.97462 12.914959 20.972656 12.203125 C 20.973375 12.191894 20.972096 12.181114 20.972656 12.169922 C 20.995317 11.717576 20.890226 11.295045 20.605469 10.789062 C 20.31206 10.267868 19.76418 9.7351198 18.984375 9.453125 C 18.602512 9.2807226 17.956176 9.2157161 17.244141 9.3378906 C 16.806651 8.7169366 16.242869 8.2375847 15.605469 8.0761719 C 15.087914 7.9451081 14.558744 7.9560834 14.048828 8.1308594 C 13.433946 7.4048553 12.572764 7.0796459 11.716797 7.1113281 L 11.666016 3.4277344 C 11.666016 2.060811 10.472479 1.0019531 9.1542969 1.0019531 z " fill="currentColor"/>
</svg>
