<svg xmlns="http://www.w3.org/2000/svg" width="1em" height="1em" viewBox="0 0 24 24" fill="currentColor">
  <path d="M 10.744141 1 C 9.2406045 1 8 2.2405395 8 3.7441406 L 8 11.490234 L 7.6738281 11.146484 C 6.695044 10.08525 4.9924907 9.9670435 3.9023438 10.947266 C 2.9356347 11.816534 2.8241379 13.231773 3.4707031 14.330078 A 1 1 0 0 0 3.4433594 14.476562 C 3.7104973 14.861287 4.0539493 15.294421 4.3828125 15.71875 C 4.5420889 15.924263 4.655 16.083 4.8378906 16.320312 A 1 1 0 0 0 4.8398438 16.324219 L 5.3125 16.949219 L 5.7773438 17.564453 L 5.7773438 17.566406 C 5.8557688 17.672782 5.9364295 17.782293 6.0195312 17.896484 C 6.6286846 18.733766 7.1478671 19.347421 7.4570312 19.818359 C 7.7661955 20.289298 7.8643278 20.548105 7.8515625 20.914062 A 1.0001 1.0001 0 0 0 7.8496094 20.96875 L 7.8691406 22.019531 A 1 1 0 0 0 8.8886719 23 A 1 1 0 0 0 9.8691406 21.980469 L 9.8496094 20.984375 C 9.8797941 20.119032 9.5491469 19.36084 9.1289062 18.720703 C 8.9688489 18.476894 8.7449187 18.201172 8.5605469 17.958984 A 1 1 0 0 0 8.5507812 17.919922 L 7.4355469 16.443359 L 7.3886719 16.380859 A 1 1 0 0 0 7.3886719 16.378906 C 7.0315267 15.894258 6.7171339 15.482246 6.4375 15.119141 L 6.4316406 15.111328 L 6.421875 15.099609 L 5.1445312 13.40625 C 4.9131693 13.099575 4.9525603 12.690515 5.2382812 12.433594 C 5.5512143 12.152216 5.9026691 12.176187 6.203125 12.501953 A 1.0001 1.0001 0 0 0 6.2128906 12.509766 L 8.2734375 14.689453 A 1.0001 1.0001 0 0 0 10 14.003906 L 10 3.7441406 C 10 3.3218417 10.321096 3 10.744141 3 C 11.167357 3 11.488281 3.321821 11.488281 3.7441406 L 11.488281 9.4941406 A 1.0001 1.0001 0 0 0 12.574219 10.490234 C 13.606103 10.400784 16.503263 11.003157 17.658203 11.857422 C 18.338366 12.360482 18.709431 12.658695 18.880859 13.109375 C 19.052288 13.560055 19.099685 14.395185 18.583984 16.066406 C 18.454283 16.486709 18.150077 17.122566 17.859375 17.681641 C 17.568673 18.240715 17.323235 18.587312 17.154297 19.113281 C 17.097867 19.288973 16.990916 19.587197 16.9375 20.023438 C 16.88408 20.45968 16.868051 21.035508 16.894531 22.015625 A 1 1 0 0 0 17.919922 22.988281 A 1 1 0 0 0 18.892578 21.960938 C 18.867368 21.027856 18.889575 20.531237 18.921875 20.267578 C 18.954155 20.003919 18.978325 19.974517 19.058594 19.724609 C 19.026354 19.824978 19.328542 19.192441 19.634766 18.603516 C 19.940989 18.01459 20.285442 17.332548 20.494141 16.65625 C 21.073238 14.779571 21.1571 13.463558 20.751953 12.398438 C 20.346806 11.333316 19.527793 10.75304 18.847656 10.25 C 17.301992 9.1067311 15.211029 8.6676516 13.488281 8.5996094 L 13.488281 3.7441406 C 13.488281 2.2405603 12.247725 1 10.744141 1 z " fill="currentColor"/>
</svg>
