<svg xmlns="http://www.w3.org/2000/svg" width="1em" height="1em" viewBox="0 0 24 24" fill="currentColor">
  <path d="M 12 2 C 6.4889992 2 2 6.4889992 2 12 L 2 13 A 1 1 0 0 0 3 14 A 1 1 0 0 0 4 13 L 4 12 C 4 7.5698808 7.5698808 4 12 4 C 16.430164 4 20 7.5698754 20 12 L 20 13 A 1 1 0 0 0 21 14 A 1 1 0 0 0 22 13 L 22 12 C 22 6.4890046 17.511036 2 12 2 z M 12 5 C 8.4219914 5 5.5 7.9219914 5.5 11.5 L 5.5 21 A 1 1 0 0 0 6.5 22 A 1 1 0 0 0 7.5 21 L 7.5 11.5 C 7.5 9.0028686 9.5028686 7 12 7 C 14.497167 7 16.5 9.002862 16.5 11.5 L 16.5 21 A 1 1 0 0 0 17.5 22 A 1 1 0 0 0 18.5 21 L 18.5 11.5 C 18.5 7.921998 15.578033 5 12 5 z M 12 8 C 10.07885 8 8.5 9.5788495 8.5 11.5 L 8.5 12.75 C 8.5 13.980763 9.5192369 15 10.75 15 L 13.25 15 C 14.480763 15 15.5 13.980763 15.5 12.75 L 15.5 11.5 C 15.5 9.5788495 13.92115 8 12 8 z M 12 10 C 12.84025 10 13.5 10.65975 13.5 11.5 L 13.5 12.75 C 13.5 12.900037 13.40004 13 13.25 13 L 10.75 13 C 10.599963 13 10.5 12.900037 10.5 12.75 L 10.5 11.5 C 10.5 10.65975 11.15975 10 12 10 z " fill="currentColor"/>
</svg>
