<svg xmlns="http://www.w3.org/2000/svg" width="1em" height="1em" viewBox="0 0 24 24" fill="currentColor">
  <path d="M 10.021484 0.99804688 C 9.9478908 0.99755203 9.8750549 1.0004705 9.8027344 1.0058594 C 9.22417 1.0489707 8.6686351 1.2640607 8.21875 1.6640625 C 7.7688649 2.0640643 7.4388603 2.6976046 7.4570312 3.3964844 C 7.4865842 4.5331496 7.4736033 8.1737423 7.4726562 11.025391 L 7.3261719 10.875 A 1.0001 1.0001 0 0 0 7.3066406 10.857422 C 7.0161828 10.578342 6.6342706 10.260528 6.0976562 10.085938 C 4.777626 9.656309 3.4969282 10.265877 2.9453125 11.150391 C 2.3936968 12.034905 2.2525296 13.125679 2.8945312 14.042969 C 3.9042926 15.485622 4.9646166 16.5143 5.4296875 17.107422 C 6.0911968 17.950963 6.6132971 18.430691 6.9589844 18.871094 C 7.3046716 19.311496 7.5477514 19.73465 7.7988281 20.728516 L 7.9511719 21.373047 L 7.9921875 22.0625 A 1 1 0 0 0 9.0527344 23 A 1 1 0 0 0 9.9882812 21.939453 L 9.9414062 21.166016 A 1.0001 1.0001 0 0 0 9.9160156 21 L 9.7421875 20.255859 A 1.0001 1.0001 0 0 0 9.7382812 20.238281 C 9.4372717 19.046749 9.0186634 18.255191 8.5332031 17.636719 C 8.0477429 17.018246 7.5706969 16.595805 7.0039062 15.873047 C 6.3599371 15.051769 5.4181618 14.158878 4.5332031 12.894531 L 4.5351562 12.894531 L 4.5351562 12.892578 C 4.5374845 12.85612 4.4891572 12.454995 4.6425781 12.208984 C 4.8062274 11.946573 4.878236 11.790956 5.4785156 11.986328 C 5.5812013 12.019738 5.7358725 12.12011 5.921875 12.298828 L 7.765625 14.169922 A 1.0001 1.0001 0 0 0 9.4785156 13.462891 C 9.4633786 10.949457 9.5002492 5.0079575 9.4570312 3.3457031 C 9.4546412 3.2536231 9.4669811 3.2309738 9.5488281 3.1582031 C 9.6306734 3.0854324 9.7963875 3.0115337 9.9511719 3 C 10.105956 2.988466 10.221414 3.0279721 10.287109 3.0800781 C 10.351349 3.1310251 10.426439 3.2109268 10.453125 3.5117188 L 10.453125 9.0371094 L 10.453125 9.9746094 A 1 1 0 0 0 11.453125 10.974609 A 1 1 0 0 0 12.453125 9.9746094 L 12.453125 9.5390625 C 12.680417 9.3676421 12.936429 9.1964818 13.044922 9.2128906 C 13.192707 9.2352426 13.344076 9.2208905 13.435547 9.9257812 C 13.465657 10.158218 13.470321 10.460619 13.431641 10.833984 A 1 1 0 0 0 14.324219 11.931641 A 1 1 0 0 0 15.421875 11.041016 C 15.459245 10.680386 15.437412 10.368175 15.419922 10.052734 L 15.421875 10.052734 L 15.421875 10.050781 L 15.423828 10.048828 L 15.423828 10.046875 C 15.426784 10.041514 15.431466 10.031329 15.435547 10.025391 L 15.4375 10.023438 L 15.439453 10.023438 L 15.439453 10.021484 L 15.441406 10.021484 C 15.474126 10.007314 15.579652 9.9857785 15.728516 10.023438 C 16.025825 10.098552 16.394812 10.383911 16.505859 10.814453 L 16.503906 10.814453 L 16.503906 10.816406 L 16.501953 10.818359 L 16.501953 10.820312 C 16.483626 10.879606 16.424897 11.372347 16.476562 12.042969 A 1 1 0 0 0 17.550781 12.964844 A 1 1 0 0 0 18.470703 11.890625 C 18.460663 11.760349 18.436334 11.397482 18.458984 11.173828 C 18.577937 11.175228 18.695701 11.166027 18.828125 11.216797 C 19.221781 11.367863 19.598775 11.572962 19.488281 12.75 A 1.0001 1.0001 0 0 0 19.482422 12.830078 L 19.447266 15.535156 A 1.0001 1.0001 0 0 0 19.447266 15.548828 C 19.447266 17.065045 19.325527 17.434694 18.830078 18.072266 C 18.679497 18.266079 18.34704 18.571279 18.037109 19.023438 C 17.775294 19.405583 17.614902 19.832534 17.544922 20.267578 C 17.457222 20.812399 17.456326 21.417894 17.478516 22.005859 A 1 1 0 0 0 18.515625 22.96875 A 1 1 0 0 0 19.476562 21.931641 C 19.457162 21.417606 19.473461 20.872317 19.519531 20.585938 C 19.545551 20.424183 19.607711 20.270751 19.6875 20.154297 C 19.81557 19.967456 20.107937 19.689768 20.410156 19.300781 C 21.141107 18.360153 21.447266 17.242811 21.447266 15.548828 L 21.482422 12.90625 L 21.482422 12.900391 C 21.483693 12.885554 21.481302 12.872191 21.482422 12.857422 C 21.618526 11.062219 20.640799 9.7709026 19.542969 9.3496094 C 18.985772 9.1357848 18.429521 9.09175 17.914062 9.1875 C 17.879513 9.19392 17.843892 9.2189415 17.808594 9.2265625 C 17.376976 8.6777291 16.846779 8.24316 16.216797 8.0839844 C 15.755443 7.9674156 15.254184 8.0036813 14.773438 8.1777344 C 14.394709 7.6838966 13.912378 7.3220335 13.345703 7.2363281 C 13.032862 7.1890132 12.748132 7.3051796 12.453125 7.3691406 L 12.453125 3.4433594 A 1.0001 1.0001 0 0 0 12.451172 3.3652344 C 12.391576 2.6023801 12.04789 1.9249887 11.529297 1.5136719 C 11.075528 1.1537697 10.53664 1.0015108 10.021484 0.99804688 z " fill="currentColor"/>
</svg>
