<svg xmlns="http://www.w3.org/2000/svg" width="1em" height="1em" viewBox="0 0 24 24" fill="currentColor">
  <path d="M 6.1757812 1.0019531 C 5.4270813 1.0019531 4.848304 0.99598113 4.3085938 1.0644531 C 3.7688835 1.1329248 3.2066598 1.3096248 2.7792969 1.7128906 C 2.3519426 2.1161662 2.1435554 2.685112 2.0683594 3.2128906 C 1.9931633 3.7406692 2 4.293505 2 5 C 2 5.706495 1.9931604 6.2573782 2.0683594 6.7851562 C 2.1435554 7.3129343 2.3519363 7.8818839 2.7792969 8.2851562 C 3.2066598 8.688422 3.7688835 8.8651221 4.3085938 8.9335938 C 4.8483041 9.0020657 5.4270813 8.9960938 6.1757812 8.9960938 L 7 8.9960938 A 1 1 0 0 0 8 7.9960938 A 1 1 0 0 0 7 6.9960938 L 6.1757812 6.9960938 C 5.4270813 6.9960938 4.8858341 6.9904837 4.5605469 6.9492188 C 4.2352596 6.9079504 4.1901708 6.8657723 4.1523438 6.8300781 C 4.1145243 6.7943904 4.0899269 6.7904126 4.0488281 6.5019531 C 4.0077293 6.2134937 4 5.706495 4 5 C 4 4.293505 4.0077292 3.7845551 4.0488281 3.4960938 C 4.0899271 3.2076323 4.1145181 3.2036631 4.1523438 3.1679688 C 4.1901708 3.1322745 4.2352596 3.0900965 4.5605469 3.0488281 C 4.8858341 3.0075598 5.4270814 3.0019531 6.1757812 3.0019531 L 17.824219 3.0019531 C 18.572919 3.0019531 19.114164 3.0075631 19.439453 3.0488281 C 19.764742 3.0900961 19.809822 3.1322681 19.847656 3.1679688 C 19.885486 3.2036678 19.910076 3.2076368 19.951172 3.4960938 C 19.992272 3.7845502 20 4.293505 20 5 C 20 5.706495 19.992302 6.2134985 19.951172 6.5019531 C 19.910072 6.7904077 19.885482 6.7943857 19.847656 6.8300781 C 19.809826 6.8657781 19.764746 6.9079501 19.439453 6.9492188 C 19.114164 6.9904867 18.572919 6.9960937 17.824219 6.9960938 L 16.5 6.9960938 A 1 1 0 0 0 15.5 7.9960938 A 1 1 0 0 0 16.5 8.9960938 L 17.824219 8.9960938 C 18.572919 8.9960938 19.151695 9.0020637 19.691406 8.9335938 C 20.231117 8.8651218 20.793338 8.6884158 21.220703 8.2851562 C 21.648077 7.8818886 21.856441 7.3129391 21.931641 6.7851562 C 22.006841 6.2573734 22 5.706495 22 5 C 22 4.293505 22.006801 3.7406741 21.931641 3.2128906 C 21.856441 2.6851072 21.648071 2.1161615 21.220703 1.7128906 C 20.793338 1.3096311 20.231117 1.1329247 19.691406 1.0644531 C 19.151695 0.99598162 18.572919 1.0019531 17.824219 1.0019531 L 6.1757812 1.0019531 z M 11.34375 4.0214844 C 9.8773684 4.0214844 8.5976561 5.138299 8.5976562 6.6347656 L 8.5976562 12.222656 L 8.296875 11.966797 C 7.3687297 11.071104 6.0013554 11.182246 5.0761719 11.792969 C 4.7330043 12.019599 4.455922 12.334001 4.2773438 12.708984 C 3.8389757 13.629511 3.9918667 14.759816 4.6464844 15.568359 L 5.7539062 16.998047 L 5.7734375 17.021484 L 6.5996094 18.089844 L 6.6074219 18.099609 L 6.609375 18.101562 L 6.6113281 18.103516 C 6.6135881 18.106416 6.6180838 18.111414 6.6210938 18.115234 L 6.6308594 18.128906 L 6.6328125 18.130859 A 1.0001 1.0001 0 0 0 6.6367188 18.136719 C 6.6387738 18.139319 6.6429762 18.143206 6.6445312 18.144531 L 6.6464844 18.146484 L 6.6464844 18.148438 L 6.6484375 18.150391 C 6.6514675 18.154191 6.6557731 18.159089 6.6582031 18.162109 L 6.6738281 18.181641 L 6.6738281 18.183594 L 6.6757812 18.183594 C 7.2466482 18.909437 7.7793501 19.501295 8.1074219 19.964844 C 8.4452589 20.44219 8.5457644 20.724787 8.5292969 20.988281 A 1.0001 1.0001 0 0 0 8.5273438 21.050781 L 8.5273438 21.998047 A 1 1 0 0 0 9.5273438 22.998047 A 1 1 0 0 0 10.527344 21.998047 L 10.527344 21.078125 C 10.571241 20.194407 10.186964 19.439799 9.7402344 18.808594 C 9.6147628 18.631309 9.4537516 18.451606 9.3164062 18.279297 A 1 1 0 0 0 9.3027344 18.236328 L 8.2363281 16.933594 C 8.2284981 16.923394 8.2264583 16.920856 8.2226562 16.916016 L 8.2226562 16.914062 L 8.2207031 16.914062 L 8.2207031 16.912109 L 8.21875 16.912109 C 8.2181846 16.911224 8.2166882 16.908869 8.2128906 16.904297 L 8.2128906 16.902344 L 8.2109375 16.902344 L 8.2109375 16.900391 L 8.2089844 16.900391 L 8.2089844 16.898438 L 8.2070312 16.898438 L 8.2070312 16.896484 L 8.2050781 16.896484 L 8.2050781 16.894531 L 8.1953125 16.882812 L 8.1953125 16.880859 L 8.1933594 16.880859 L 8.1914062 16.878906 L 8.1914062 16.876953 L 8.1914062 16.875 L 8.1894531 16.875 L 8.1894531 16.873047 L 8.1875 16.871094 L 8.1855469 16.871094 L 8.1855469 16.869141 L 8.1835938 16.869141 L 8.1796875 16.863281 C 8.1784625 16.861731 8.1766375 16.858734 8.1757812 16.857422 C 7.873806 16.473792 7.61631 16.117187 7.3339844 15.773438 L 7.3339844 15.771484 L 7.3144531 15.748047 L 6.2128906 14.326172 A 1.0001 1.0001 0 0 0 6.1992188 14.310547 C 5.9706962 14.028344 5.9617525 13.825033 6.0839844 13.568359 C 6.1029464 13.528539 6.1375024 13.489459 6.1777344 13.462891 C 6.4714395 13.269013 6.778819 13.27546 6.9140625 13.412109 A 1.0001 1.0001 0 0 0 6.9785156 13.470703 L 8.9492188 15.148438 A 1.0001 1.0001 0 0 0 10.597656 14.386719 L 10.597656 6.6347656 C 10.597656 6.4060322 10.958132 6.0214844 11.34375 6.0214844 C 11.729368 6.0214844 12.09375 6.410082 12.09375 6.6347656 L 12.09375 10.724609 A 1.0001 1.0001 0 0 0 13.173828 11.720703 C 14.372178 11.625223 16.760164 12.191784 17.902344 13.066406 C 18.543184 13.557151 18.827791 13.790806 18.939453 14.111328 C 19.051115 14.43185 19.07122 15.13775 18.574219 16.638672 C 18.446939 17.023134 18.179985 17.584431 17.925781 18.080078 C 17.671578 18.575725 17.461226 18.897123 17.306641 19.345703 C 17.256561 19.490723 17.140507 19.77986 17.082031 20.191406 C 17.023431 20.60384 17.003617 21.134165 17.029297 22.019531 A 1 1 0 0 0 18.058594 22.990234 A 1 1 0 0 0 19.029297 21.962891 C 19.005277 21.134457 19.0307 20.696797 19.0625 20.472656 C 19.09435 20.248515 19.11567 20.232682 19.197266 19.996094 C 19.174076 20.063374 19.437332 19.516193 19.705078 18.994141 C 19.972824 18.472088 20.274736 17.865416 20.472656 17.267578 C 21.028055 15.5903 21.170963 14.439181 20.828125 13.455078 C 20.485286 12.470975 19.739101 11.953271 19.119141 11.478516 C 17.676726 10.373989 15.775902 9.9234775 14.09375 9.8398438 L 14.09375 6.6347656 C 14.09375 5.1342492 12.810132 4.0214844 11.34375 4.0214844 z " fill="currentColor"/>
</svg>
