<svg xmlns="http://www.w3.org/2000/svg" width="1em" height="1em" viewBox="0 0 24 24" fill="currentColor">
  <path d="M 2 3 A 1 1 0 0 0 1 4 L 1 5 C 1 5.93188 0.96193562 6.5048386 1.2285156 7.1484375 C 1.532854 7.8831585 2.1168415 8.467146 2.8515625 8.7714844 C 3.4951614 9.0380644 4.06812 9 5 9 L 7 9 L 7 12 C 7 12.9428 6.9935803 13.670214 7.0820312 14.328125 C 7.1704862 14.986036 7.3963406 15.63852 7.8789062 16.121094 C 8.3614778 16.603682 9.0139581 16.829512 9.671875 16.917969 C 10.329792 17.006425 11.0572 17 12 17 L 15 17 C 15.393083 17 15.642 16.971927 15.970703 16.966797 C 15.962303 17.339892 15.966307 17.831584 15.935547 18.060547 C 15.877557 18.491884 15.810259 18.603804 15.707031 18.707031 C 15.603804 18.810259 15.491884 18.877553 15.060547 18.935547 C 14.629214 18.993537 13.9428 19 13 19 L 9 19 C 8.05719 19 7.3707927 18.99354 6.9394531 18.935547 C 6.5081136 18.877553 6.3961812 18.810247 6.2929688 18.707031 C 6.1897445 18.603805 6.1224458 18.491886 6.0644531 18.060547 C 6.0064604 17.629208 6 16.9428 6 16 L 6 11 A 1 1 0 0 0 5 10 A 1 1 0 0 0 4 11 L 4 16 C 4 16.9428 3.9935803 17.670214 4.0820312 18.328125 C 4.1704862 18.986036 4.3963405 19.63852 4.8789062 20.121094 C 5.3614739 20.603678 6.0139596 20.829512 6.671875 20.917969 C 7.3297906 21.006425 8.05719 21 9 21 L 13 21 C 13.9428 21 14.670212 21.006399 15.328125 20.917969 C 15.986038 20.829509 16.638521 20.603666 17.121094 20.121094 C 17.603666 19.638521 17.829512 18.986038 17.917969 18.328125 C 17.982529 17.84793 17.975616 17.239772 17.978516 16.628906 C 18.381637 16.499108 18.813572 16.428615 19.121094 16.121094 C 19.603666 15.638521 19.829512 14.986038 19.917969 14.328125 C 20.006422 13.670211 20 12.9428 20 12 L 20 9 L 20 8.9960938 C 20.416527 8.9802812 20.770296 8.9280902 21.148438 8.7714844 C 21.883084 8.4671464 22.467115 7.8831983 22.771484 7.1484375 C 23.037978 6.5048793 23 5.93188 23 5 L 23 4 A 1 1 0 0 0 22 3 A 1 1 0 0 0 21 4 L 21 5 C 21 5.93188 20.961738 6.2912707 20.923828 6.3828125 C 20.822198 6.6281517 20.628168 6.8221861 20.382812 6.9238281 C 20.333335 6.9443187 20.206666 6.9639257 19.953125 6.9785156 C 19.943667 6.8740031 19.931512 6.7726062 19.917969 6.671875 C 19.829512 6.0139596 19.603678 5.3614738 19.121094 4.8789062 C 18.63852 4.3963405 17.986036 4.1704861 17.328125 4.0820312 C 16.670214 3.9935764 15.9428 4 15 4 L 6.5 4 C 5.1311341 4 4 5.1311341 4 6.5 L 4 6.9765625 C 3.7779268 6.9622103 3.6633944 6.9429671 3.6171875 6.9238281 C 3.3718085 6.8221865 3.1778135 6.6281915 3.0761719 6.3828125 C 3.0382719 6.2913114 3 5.93188 3 5 L 3 4 A 1 1 0 0 0 2 3 z M 6.5 6 C 6.7879941 6 7 6.2120059 7 6.5 L 7 7 L 6 7 L 6 6.5 C 6 6.2120059 6.2120059 6 6.5 6 z M 8.7910156 6 L 15 6 C 15.9428 6 16.629208 6.0064601 17.060547 6.0644531 C 17.491886 6.1224461 17.603805 6.1897446 17.707031 6.2929688 C 17.810247 6.3961812 17.877553 6.5081136 17.935547 6.9394531 C 17.99354 7.3707928 18 8.05719 18 9 L 18 12 C 18 12.9428 17.993497 13.62921 17.935547 14.060547 C 17.877557 14.491884 17.810259 14.603804 17.707031 14.707031 C 17.603804 14.810259 17.491884 14.877553 17.060547 14.935547 C 16.629207 14.99354 15.9428 15 15 15 L 12 15 C 11.0572 15 10.370796 14.993497 9.9394531 14.935547 C 9.5081101 14.87755 9.3961771 14.810243 9.2929688 14.707031 C 9.1897444 14.603805 9.1224458 14.491886 9.0644531 14.060547 C 9.0064604 13.629208 9 12.9428 9 12 L 9 8 L 9 6.5 C 9 6.3059311 8.8339407 6.1819664 8.7910156 6 z " fill="currentColor"/>
</svg>
