<svg xmlns="http://www.w3.org/2000/svg" width="1em" height="1em" viewBox="0 0 24 24" fill="currentColor">
  <path d="M 3 2 A 1 1 0 0 0 2 3 A 1 1 0 0 0 3 4 L 3 8.7519531 C 2.4295076 9.0096471 1.8926042 9.3280171 1.3984375 9.6992188 A 1 1 0 0 0 1.2011719 11.099609 A 1 1 0 0 0 2.6015625 11.298828 C 3.6885523 10.482318 5.031884 10 6.5 10 C 10.10165 10 13 12.89835 13 16.5 C 13 16.5835 12.999207 16.665644 12.996094 16.748047 A 1.0001 1.0001 0 0 0 12.996094 16.75 C 12.984744 17.052324 12.970094 17.29118 12.990234 17.560547 C 13.010414 17.829914 13.077854 18.218401 13.388672 18.541016 C 13.675984 18.839236 14.057134 18.940349 14.318359 18.972656 C 14.579619 19.004917 14.801619 19 15.074219 19 L 15.126953 19 C 15.57477 20.718761 17.147574 22 19 22 C 21.197294 22 23 20.197294 23 18 C 23 16.993188 22.621501 16.068941 22 15.363281 C 22.000236 14.231829 22.001505 13.352655 21.90625 12.578125 C 21.80722 11.772738 21.574291 11.033314 21.078125 10.435547 C 20.582892 9.8387459 19.899274 9.4718794 19.128906 9.2265625 C 19.086338 9.2130071 19.043378 9.2005714 19 9.1875 L 19 8 C 19 7.4358515 19.435825 7 20 7 A 1 1 0 0 0 21 6 A 1 1 0 0 0 20 5 C 18.354975 5 17 6.3550085 17 8 L 17 8.7324219 C 16.77437 8.6896034 16.537848 8.6462526 16.289062 8.5996094 L 13.785156 8.1308594 L 12.773438 4 L 13 4 A 1 1 0 0 0 14 3 A 1 1 0 0 0 13 2 L 7 2 L 3 2 z M 5 4 L 6 4 L 6 8.0136719 C 5.6612322 8.0334001 5.3274777 8.0744266 5 8.1328125 L 5 4 z M 8 4 L 10.714844 4 L 11.859375 8.6757812 A 1.0001 1.0001 0 0 0 11.873047 8.7246094 C 11.956944 9.004169 12 9.2958592 12 9.5878906 L 12 10.027344 C 10.878409 9.0725986 9.5070616 8.4028835 8 8.1328125 L 8 4 z M 14 10.205078 L 15.921875 10.564453 C 17.083837 10.782302 17.936884 10.948001 18.509766 11.128906 A 1 1 0 0 0 18 12 A 1 1 0 0 0 19 13 L 19.941406 13 C 19.97049 13.310206 19.984683 13.683275 19.992188 14.125 C 19.674501 14.042903 19.342136 14 19 14 C 17.147574 14 15.57477 15.281239 15.126953 17 L 15.074219 17 C 15.030349 17 15.031447 16.998347 14.992188 16.998047 C 14.994087 16.925557 14.990741 16.913617 14.994141 16.824219 C 14.998173 16.716469 15 16.6085 15 16.5 C 15 15.057877 14.637931 13.697628 14 12.505859 A 1 1 0 0 0 14 12.5 L 14 10.205078 z M 6.5 11 C 3.4742785 11 1 13.474279 1 16.5 C 1 19.525721 3.4742785 22 6.5 22 C 9.5257215 22 12 19.525721 12 16.5 C 12 13.474279 9.5257215 11 6.5 11 z M 6.5 13 C 8.4448413 13 10 14.555159 10 16.5 C 10 18.444841 8.4448413 20 6.5 20 C 4.5551587 20 3 18.444841 3 16.5 C 3 14.555159 4.5551587 13 6.5 13 z M 19 16 C 20.116414 16 21 16.883586 21 18 C 21 19.116414 20.116414 20 19 20 C 17.883586 20 17 19.116414 17 18 C 17 16.883586 17.883586 16 19 16 z " fill="currentColor"/>
</svg>
