<svg xmlns="http://www.w3.org/2000/svg" width="1em" height="1em" viewBox="0 0 24 24" fill="currentColor">
  <path d="M 12 1 C 5.9367104 1 1 5.9367104 1 12 C 1 18.063244 5.9367044 23 12 23 C 18.06325 23 23 18.06325 23 12 C 23 5.9367044 18.063244 1 12 1 z M 12 3 C 16.982356 3 21 7.0175956 21 12 C 21 16.98235 16.98235 21 12 21 C 7.0175956 21 3 16.982356 3 12 C 3 7.0175896 7.0175896 3 12 3 z M 13.085938 8.4433594 C 12.978393 8.4486811 12.848435 8.4721255 12.6875 8.5234375 A 1.0001 1.0001 0 0 0 11.992188 9.4746094 A 1 1 0 0 0 10.994141 8.4765625 L 8.5097656 8.4765625 L 5.9941406 8.4765625 A 1 1 0 0 0 4.9941406 9.4765625 A 1 1 0 0 0 5.9941406 10.476562 L 7.5097656 10.476562 L 7.5097656 15.496094 A 1 1 0 0 0 8.5097656 16.496094 A 1 1 0 0 0 9.5097656 15.496094 L 9.5097656 10.476562 L 10.994141 10.476562 A 1 1 0 0 0 11.990234 9.4804688 L 11.990234 15.486328 A 1 1 0 0 0 12.990234 16.486328 A 1 1 0 0 0 13.990234 15.486328 L 13.990234 11.445312 C 14.372252 11.794218 14.804687 12.195312 14.804688 12.195312 A 1.0001 1.0001 0 0 0 16.197266 12.195312 C 16.197266 12.195312 16.627721 11.794806 17.007812 11.447266 L 17.007812 15.486328 A 1 1 0 0 0 18.007812 16.486328 A 1 1 0 0 0 19.007812 15.486328 L 19.007812 9.4765625 A 1.0001 1.0001 0 0 0 18.3125 8.5234375 C 17.669061 8.3183271 17.513588 8.5545935 17.34375 8.6425781 C 17.173912 8.7305631 17.035268 8.8274082 16.886719 8.9355469 C 16.589621 9.1518243 16.2734 9.4180389 15.96875 9.6855469 C 15.723637 9.9007763 15.695025 9.9359052 15.5 10.117188 C 15.304913 9.9360143 15.276331 9.9005698 15.03125 9.6855469 C 14.726363 9.4180535 14.410521 9.1517794 14.113281 8.9355469 C 13.964662 8.8274306 13.824125 8.7305158 13.654297 8.6425781 C 13.526926 8.5766249 13.408572 8.4273943 13.085938 8.4433594 z " fill="currentColor"/>
</svg>
