<svg xmlns="http://www.w3.org/2000/svg" width="1em" height="1em" viewBox="0 0 24 24" fill="currentColor">
  <path d="M 12 1 C 10.1308 1 9.0317991 0.93945033 8 1.5351562 C 7.391974 1.8862051 6.8862064 2.3919749 6.5351562 3 C 5.9144395 3.0006821 5.4100767 3.007206 4.9609375 3.0566406 C 4.4046714 3.1178663 3.7845361 3.2432516 3.3730469 3.8222656 C 3.1405472 4.1494103 3.0128267 4.5356718 3 4.9335938 C 2.9774727 5.6324546 3.3667783 6.1062372 3.7597656 6.5136719 C 4.1527529 6.9211066 4.655149 7.3366811 5.3125 7.8886719 L 6 8.4648438 L 6 10.003906 C 5.6131244 10.009235 5.2736476 10.022219 4.9609375 10.056641 C 4.4046642 10.117872 3.7845162 10.243236 3.3730469 10.822266 C 3.140346 11.149573 3.0128277 11.535682 3 11.933594 C 2.977471 12.632467 3.3667826 13.10624 3.7597656 13.513672 C 4.1527487 13.921104 4.655149 14.336671 5.3125 14.888672 L 6.3574219 15.765625 A 1 1 0 0 0 6.4433594 15.830078 C 6.4721183 15.887001 6.5025923 15.943593 6.5351562 16 C 6.8862105 16.608089 7.3919689 17.113805 8 17.464844 C 8.8329283 17.945708 9.7096555 17.999292 11 18.001953 L 11 22 A 1 1 0 0 0 12 23 A 1 1 0 0 0 13 22 L 13 18.001953 C 14.290344 17.999284 15.16707 17.945678 16 17.464844 C 16.608091 17.113801 17.113801 16.608091 17.464844 16 C 17.497391 15.943619 17.527894 15.886975 17.556641 15.830078 A 1 1 0 0 0 17.642578 15.765625 L 18.6875 14.888672 C 19.344845 14.336676 19.84724 13.921103 20.240234 13.513672 C 20.633229 13.106241 21.022587 12.632533 21 11.933594 C 20.987125 11.536041 20.859866 11.149787 20.626953 10.822266 C 20.215461 10.243325 19.595333 10.117872 19.039062 10.056641 C 18.726356 10.022219 18.386875 10.009235 18 10.003906 L 18 8.4648438 L 18.6875 7.8886719 C 19.344845 7.3366859 19.847236 6.9211056 20.240234 6.5136719 C 20.633233 6.1062382 21.022585 5.6325202 21 4.9335938 C 20.987126 4.5360304 20.859665 4.1496241 20.626953 3.8222656 C 20.215441 3.2433405 19.595326 3.1178661 19.039062 3.0566406 C 18.589927 3.0072062 18.085554 3.0006822 17.464844 3 C 17.113805 2.3919689 16.608089 1.8862105 16 1.5351562 C 14.968199 0.93949201 13.8692 1 12 1 z M 12 3 C 13.8692 3 14.639401 3.059402 15 3.2675781 C 15.304111 3.4431439 15.55686 3.6959111 15.732422 4 C 15.940554 4.3605158 16 5.13077 16 7 L 16 12 C 16 13.8692 15.94059 14.639397 15.732422 15 C 15.556864 15.304109 15.304109 15.556864 15 15.732422 C 14.639397 15.94059 13.8692 16 12 16 C 10.1308 16 9.360505 15.940548 9 15.732422 C 8.6959111 15.55686 8.4431439 15.304111 8.2675781 15 C 8.0594024 14.639401 8 13.8692 8 12 L 8 11 L 8 7 C 8 5.13077 8.0594379 4.3605116 8.2675781 4 C 8.4431479 3.6959084 8.6959084 3.4431479 9 3.2675781 C 9.3605009 3.0594441 10.1308 3 12 3 z M 12 4 C 10.631145 4 9.5 5.1311099 9.5 6.5 C 9.5 7.8688901 10.631145 9 12 9 C 13.368855 9 14.5 7.8688901 14.5 6.5 C 14.5 5.1311099 13.368855 4 12 4 z M 6.0214844 5.0058594 C 6.0069287 5.2675571 5.9997822 5.5468625 5.9980469 5.8496094 C 5.642578 5.5457422 5.3722317 5.3043733 5.1992188 5.125 C 5.1732984 5.0981267 5.1506765 5.0733491 5.1308594 5.0507812 C 5.1462153 5.0487574 5.162446 5.0468196 5.1796875 5.0449219 C 5.379645 5.0229134 5.6633131 5.0116717 6.0214844 5.0058594 z M 17.978516 5.0058594 C 18.33669 5.0116717 18.620355 5.0229133 18.820312 5.0449219 C 18.837551 5.0468193 18.853787 5.0487581 18.869141 5.0507812 C 18.849324 5.0733493 18.826701 5.0981281 18.800781 5.125 C 18.627763 5.3043737 18.357419 5.5457431 18.001953 5.8496094 C 18.000216 5.5468649 17.993073 5.2675554 17.978516 5.0058594 z M 12 6 C 12.287945 6 12.5 6.2120301 12.5 6.5 C 12.5 6.7879699 12.287945 7 12 7 C 11.712055 7 11.5 6.7879699 11.5 6.5 C 11.5 6.2120301 11.712055 6 12 6 z M 12 10 C 10.63112 10 9.5 11.13112 9.5 12.5 C 9.5 13.86888 10.63112 15 12 15 C 13.36888 15 14.5 13.86888 14.5 12.5 C 14.5 11.13112 13.36888 10 12 10 z M 12 12 C 12.28792 12 12.5 12.21208 12.5 12.5 C 12.5 12.78792 12.28792 13 12 13 C 11.71208 13 11.5 12.78792 11.5 12.5 C 11.5 12.21208 11.71208 12 12 12 z M 6 12.005859 C 5.9999793 12.305792 5.9981806 12.586458 5.9980469 12.849609 C 5.6429091 12.546013 5.3721254 12.304264 5.1992188 12.125 C 5.173299 12.098127 5.1506762 12.073349 5.1308594 12.050781 C 5.1462148 12.048757 5.1624465 12.04682 5.1796875 12.044922 C 5.3757612 12.023339 5.6516426 12.011775 6 12.005859 z M 18 12.005859 C 18.348356 12.01177 18.62424 12.023325 18.820312 12.044922 C 18.837568 12.046821 18.853774 12.048756 18.869141 12.050781 C 18.849314 12.073364 18.82672 12.098108 18.800781 12.125 C 18.627869 12.304264 18.357087 12.546015 18.001953 12.849609 C 18.001821 12.586441 18.000021 12.305813 18 12.005859 z " fill="currentColor"/>
</svg>
