<svg xmlns="http://www.w3.org/2000/svg" width="1em" height="1em" viewBox="0 0 24 24" fill="currentColor">
  <path d="M 8 1 C 5.66111 1 4.3075553 0.93413981 3.1054688 1.6894531 C 2.5330672 2.0491165 2.0491165 2.5330673 1.6894531 3.1054688 C 0.93413982 4.3075553 1 5.66111 1 8 A 1 1 0 0 0 2 9 A 1 1 0 0 0 3 8 C 3 5.66111 3.0652058 4.6753952 3.3828125 4.1699219 C 3.5826492 3.8518833 3.8518833 3.5826492 4.1699219 3.3828125 C 4.6753952 3.0652058 5.66111 3 8 3 L 16 3 C 18.3389 3 19.324593 3.065206 19.830078 3.3828125 C 20.148071 3.5826296 20.417245 3.8517711 20.617188 4.1699219 C 20.934762 4.6754011 21 5.66111 21 8 A 1 1 0 0 0 22 9 A 1 1 0 0 0 23 8 C 23 5.66111 23.065772 4.3075494 22.310547 3.1054688 C 21.95089 2.5331795 21.466938 2.049136 20.894531 1.6894531 C 19.692416 0.93413961 18.3389 1 16 1 L 8 1 z M 12 5 A 1 1 0 0 0 11.283203 5.3164062 C 11.121419 5.4163062 10.865261 5.4471152 10.734375 5.5585938 C 10.432536 5.8156763 10.163998 6.1121821 9.9082031 6.4140625 C 9.3966138 7.0178233 8.8800938 7.7030505 8.7832031 7.8027344 A 1 1 0 0 0 8.8027344 9.2167969 A 1 1 0 0 0 10.216797 9.1972656 C 10.470302 8.9364517 10.737935 8.5779373 11 8.2402344 L 11 13 L 6 13 C 4.59987 13 3.7594888 12.948077 2.9101562 13.380859 C 2.2516802 13.716397 1.7163506 14.251743 1.3808594 14.910156 C 0.94804965 15.759479 1 16.5999 1 18 C 1 19.4002 0.94814398 20.240548 1.3808594 21.089844 C 1.7163506 21.748257 2.2516803 22.283603 2.9101562 22.619141 C 3.7594447 23.051741 4.59987 23 6 23 L 18 23 C 19.4002 23 20.23863 23.05171 21.087891 22.619141 A 1.0001 1.0001 0 0 0 21.089844 22.619141 C 21.748294 22.283616 22.283616 21.748294 22.619141 21.089844 A 1.0001 1.0001 0 0 0 22.619141 21.087891 C 23.051664 20.238677 23 19.4002 23 18 C 23 16.5999 23.051805 15.759443 22.619141 14.910156 C 22.283616 14.251706 21.748294 13.716384 21.089844 13.380859 C 20.240539 12.948108 19.4002 13 18 13 L 13 13 L 13 8.2402344 C 13.262057 8.5779325 13.529718 8.936457 13.783203 9.1972656 A 1 1 0 0 0 15.197266 9.2167969 A 1 1 0 0 0 15.216797 7.8027344 C 15.119905 7.7030429 14.603395 7.0178318 14.091797 6.4140625 C 13.835998 6.1121778 13.567483 5.8156804 13.265625 5.5585938 C 12.963767 5.3015071 12.649705 5 12 5 z M 6 15 L 18 15 C 19.4002 15 19.961346 15.051809 20.181641 15.164062 C 20.46399 15.307937 20.692063 15.53601 20.835938 15.818359 C 20.948074 16.038472 21 16.5999 21 18 C 21 19.4002 20.94817 19.961301 20.835938 20.181641 C 20.692062 20.46399 20.46399 20.692063 20.181641 20.835938 C 19.961301 20.948168 19.4002 21 18 21 L 6 21 C 4.59987 21 4.0386308 20.948137 3.8183594 20.835938 C 3.5360353 20.692075 3.3079513 20.464027 3.1640625 20.181641 C 3.0518179 19.961337 3 19.4002 3 18 C 3 16.5999 3.0519122 16.038437 3.1640625 15.818359 C 3.3079513 15.535973 3.5360353 15.307924 3.8183594 15.164062 C 4.0385868 15.051843 4.59987 15 6 15 z " fill="currentColor"/>
</svg>
