<svg xmlns="http://www.w3.org/2000/svg" width="1em" height="1em" viewBox="0 0 24 24" fill="currentColor">
  <path d="M 15.863281 3.5 C 14.795625 3.50224 13.579577 3.7146439 11.986328 3.9804688 L 9.7851562 4.3476562 C 8.6555654 4.5361214 7.7840563 4.6756701 7.0234375 4.9101562 C 6.2628187 5.1446425 5.5777808 5.5178066 5.078125 6.1191406 C 4.9767465 6.241159 4.8810706 6.3689643 4.7929688 6.5019531 C 4.0416586 7.6360811 3.996677 8.9348583 3.9980469 11 L 2 11 A 1 1 0 0 0 1 12 A 1 1 0 0 0 2 13 L 3.9980469 13 C 3.9966794 15.065112 4.041671 16.363902 4.7929688 17.498047 C 4.8811358 17.631135 4.9767849 17.758913 5.078125 17.880859 C 5.5777711 18.482224 6.2628086 18.855341 7.0234375 19.089844 C 7.7840664 19.324347 8.6555643 19.463893 9.7851562 19.652344 L 11.986328 20.019531 C 13.579582 20.285382 14.79563 20.497751 15.863281 20.5 C 16.930933 20.5022 17.950491 20.220969 18.677734 19.484375 C 19.404971 18.747717 19.721459 17.7507 19.863281 16.576172 C 19.981431 15.597692 19.997891 14.444517 20 13 L 22 13 A 1 1 0 0 0 23 12 A 1 1 0 0 0 22 11 L 20 11 C 19.99789 9.5554863 19.981428 8.4023013 19.863281 7.4238281 C 19.721459 6.2493069 19.404976 5.2522735 18.677734 4.515625 C 17.950499 3.7789824 16.930937 3.4977616 15.863281 3.5 z M 15.867188 5.5 C 16.651356 5.49836 16.946742 5.6087845 17.253906 5.9199219 C 17.561065 6.2310534 17.760175 6.6969487 17.876953 7.6640625 C 17.974168 8.4691099 17.993861 9.569564 17.998047 11 L 6.0039062 11 C 6.0246666 9.0363391 6.1248169 8.1148071 6.4609375 7.6074219 C 6.5098356 7.5336107 6.562666 7.4640591 6.6171875 7.3984375 C 6.8314017 7.1406315 7.0658427 6.9910319 7.6132812 6.8222656 C 8.16072 6.6534993 8.9856455 6.5087774 10.115234 6.3203125 L 12.316406 5.953125 C 13.909658 5.6872998 15.083019 5.5016441 15.867188 5.5 z M 6.0039062 13 L 17.998047 13 C 17.993855 14.430439 17.974136 15.530883 17.876953 16.335938 C 17.760175 17.303061 17.56107 17.768936 17.253906 18.080078 C 16.946749 18.391184 16.651361 18.501651 15.867188 18.5 C 15.083013 18.4983 13.909652 18.312724 12.316406 18.046875 L 10.115234 17.679688 C 8.9856567 17.491239 8.1607074 17.346507 7.6132812 17.177734 C 7.0658551 17.008962 6.8314114 16.859398 6.6171875 16.601562 A 1.0001 1.0001 0 0 0 6.6152344 16.601562 C 6.5606714 16.535909 6.50977 16.46629 6.4609375 16.392578 C 6.1248072 15.885162 6.0246647 14.963627 6.0039062 13 z " fill="currentColor"/>
</svg>
