<svg xmlns="http://www.w3.org/2000/svg" width="1em" height="1em" viewBox="0 0 24 24" fill="currentColor">
  <path d="M 21.982422 2 A 1 1 0 0 0 21.029297 2.7578125 C 20.875937 3.3712111 20.693551 3.5762543 20.431641 3.734375 C 20.16973 3.8924957 19.707673 4 19 4 A 1.0001 1.0001 0 0 0 18.050781 4.6835938 L 16.244141 10.103516 C 15.905723 10.168327 15.566622 10.266915 15.230469 10.400391 L 6.65625 13.804688 L 5.3652344 9.9316406 A 1 1 0 0 0 6 9 A 1 1 0 0 0 5 8 L 2 8 A 1 1 0 0 0 1 9 A 1 1 0 0 0 2 10 L 3.2792969 10 L 4.7929688 14.544922 L 2.4726562 15.466797 C 1.5791984 15.821573 1 16.69584 1 17.652344 C 1 18.925754 2.0396537 20 3.3203125 20 L 4.3828125 20 L 4.1054688 20.552734 A 1 1 0 0 0 4.5527344 21.894531 A 1 1 0 0 0 5.8945312 21.447266 L 6.6171875 20 L 17 20 L 17 21 A 1 1 0 0 0 18 22 A 1 1 0 0 0 19 21 L 19 19.998047 C 21.220248 19.925975 23 18.053605 23 15.802734 C 23 12.907529 20.90518 10.623362 18.349609 10.113281 L 19.779297 5.8261719 C 20.361575 5.7646059 20.959555 5.7534979 21.466797 5.4472656 C 22.208211 4.9996588 22.729763 4.2058789 22.970703 3.2421875 A 1 1 0 0 0 22.242188 2.0292969 A 1 1 0 0 0 21.982422 2 z M 17.341797 11.994141 C 17.491956 11.994258 17.640494 12.002951 17.787109 12.021484 C 19.546496 12.243884 21 13.764216 21 15.802734 C 21 17.039755 20.045132 18 18.867188 18 L 18 18 L 3.3203125 18 C 3.1434313 18 3 17.867133 3 17.652344 C 3 17.497448 3.0899953 17.374196 3.2109375 17.326172 L 15.96875 12.259766 C 16.427653 12.077548 16.891319 11.993789 17.341797 11.994141 z M 18 14 A 1 1 0 0 0 17 15 A 1 1 0 0 0 18 16 L 18.009766 16 A 1 1 0 0 0 19.009766 15 A 1 1 0 0 0 18.009766 14 L 18 14 z " fill="currentColor"/>
</svg>
