<svg xmlns="http://www.w3.org/2000/svg" width="1em" height="1em" viewBox="0 0 24 24" fill="currentColor">
  <path d="M 6.3964844 1.5 C 4.305868 1.5 2.8386355 2.4742227 2.1972656 3.6484375 C 1.8969533 4.1982462 2.0017359 4.9355484 2.328125 5.3652344 C 2.6545141 5.7949203 3.1148436 6.028644 3.6230469 6.0957031 C 4.1993272 6.1717474 4.8919738 6.285201 5.6386719 6.4355469 C 5.3520955 6.6188425 5.0666077 6.8294087 4.7871094 7.0683594 C 3.5456752 8.129695 2.5 9.8352259 2.5 12.089844 C 2.5 12.919777 2.6101631 13.64698 2.7910156 14.267578 C 2.9991783 14.981827 3.7882428 15.56563 4.5 15.492188 C 5.2117572 15.418743 5.7421589 14.943097 6.03125 14.324219 C 6.9597216 12.336298 8.3293196 10.579763 11.828125 9.296875 C 11.884503 9.3388341 11.942588 9.3830671 12.001953 9.4296875 A 1 1 0 0 0 12.001953 9.4414062 C 11.836467 12.254073 11.510747 16.320297 10.042969 21.212891 A 1 1 0 0 0 10.712891 22.457031 A 1 1 0 0 0 11.957031 21.787109 C 13.203529 17.632118 13.661016 14.033145 13.878906 11.298828 C 14.680504 12.291237 15.418173 13.521197 15.767578 14.886719 C 15.952174 15.608042 16.436551 16.174547 17.119141 16.40625 C 17.80173 16.637953 18.774618 16.304196 19.169922 15.585938 C 19.629761 14.750372 20 13.682894 20 12.455078 C 20 10.431191 19.077124 8.8530754 17.886719 7.8417969 C 18.534497 7.8929051 19.130752 7.9923279 19.646484 8.1054688 C 20.277715 8.2439607 20.914178 8.1078788 21.400391 7.6953125 C 21.886604 7.2827457 22.141629 6.452366 21.871094 5.7773438 C 21.260132 4.2526933 19.580304 2.5 16.615234 2.5 C 14.498122 2.5 12.975545 3.4341491 12.119141 4.59375 C 12.068726 4.6620133 12.020977 4.7316994 11.974609 4.8007812 C 11.728938 4.3833582 11.436956 3.9711738 11.091797 3.5839844 C 10.050825 2.4162506 8.4598221 1.5 6.3964844 1.5 z M 6.3964844 3.5 C 7.8989366 3.5 8.8557356 4.0837494 9.5976562 4.9160156 C 9.7943725 5.1366865 9.819957 5.415164 9.9785156 5.6660156 C 7.9605085 4.9448669 5.9519562 4.435031 4.3691406 4.2070312 C 4.7496902 3.8426343 5.3135564 3.5 6.3964844 3.5 z M 16.615234 4.5 C 18.531775 4.5 19.278796 5.3007368 19.722656 6.1230469 C 18.103296 5.7995576 15.898136 5.6200175 13.550781 6.3203125 C 13.642181 6.1271667 13.600101 5.9551321 13.728516 5.78125 C 14.256862 5.0658509 15.039746 4.5 16.615234 4.5 z M 8.5 7.5 C 9.2334438 7.5 9.7159768 7.6916845 10.123047 7.9179688 C 7.2256303 9.2398863 5.6137693 11.050937 4.6113281 12.939453 C 4.5707147 12.659313 4.5 12.433492 4.5 12.089844 C 4.5 10.431541 5.2043248 9.343275 6.0878906 8.5878906 C 6.9714565 7.8325063 8.1226622 7.5 8.5 7.5 z M 14.541016 8.5410156 C 14.765386 8.5440884 14.999005 8.568071 15.242188 8.6328125 C 16.306545 8.9161641 18 10.287281 18 12.455078 C 18 13.062744 17.776372 13.55666 17.572266 14.050781 C 16.822708 11.510172 15.304638 9.7988307 13.892578 8.5761719 C 14.101525 8.5557804 14.316645 8.5379429 14.541016 8.5410156 z M 9.5292969 11.501953 A 1 1 0 0 0 8.5429688 12.212891 C 8.0809325 13.753042 6.4792209 17.860388 4.1992188 20.900391 A 1 1 0 0 0 4.4003906 22.300781 A 1 1 0 0 0 5.8007812 22.099609 C 8.3207793 18.739612 9.9190676 14.580358 10.457031 12.787109 A 1 1 0 0 0 9.7871094 11.542969 A 1 1 0 0 0 9.5292969 11.501953 z " fill="currentColor"/>
</svg>
