<svg xmlns="http://www.w3.org/2000/svg" width="1em" height="1em" viewBox="0 0 24 24" fill="currentColor">
  <path d="M 12 1 C 8.7526563 1 6.4827308 3.4568598 6.1367188 6.3808594 C 3.7524421 7.1772943 2 9.3597124 2 12 C 2 15.301846 4.6981334 18 8 18 L 9 18 A 1 1 0 0 0 10 17 A 1 1 0 0 0 9 16 L 8 16 C 5.7790266 16 4 14.220954 4 12 C 4 10.054184 5.3754938 8.4498931 7.1992188 8.0800781 A 1.0001 1.0001 0 0 0 8 7.0996094 C 8 4.8207986 9.5196444 3 12 3 C 14.480356 3 15.998047 4.8207913 15.998047 7.0996094 A 1.0001 1.0001 0 0 0 16.800781 8.0800781 C 18.624594 8.449898 20 10.05417 20 12 C 20 14.22095 18.22095 16 16 16 L 15 16 A 1 1 0 0 0 14 17 A 1 1 0 0 0 15 18 L 16 18 C 19.30185 18 22 15.30185 22 12 C 22 9.3588319 20.246913 7.1746217 17.861328 6.3789062 C 17.514462 3.4558222 15.246587 1 12 1 z M 12 8 A 1 1 0 0 0 11 9 L 11 10.585938 L 10.207031 9.7929688 A 1 1 0 0 0 9.5 9.5 A 1 1 0 0 0 8.7929688 9.7929688 A 1 1 0 0 0 8.7929688 11.207031 L 11 13.414062 L 11 21 L 10 21 A 1 1 0 0 0 9 22 A 1 1 0 0 0 10 23 L 12 23 L 14 23 A 1 1 0 0 0 15 22 A 1 1 0 0 0 14 21 L 13 21 L 13 15.414062 L 15.207031 13.207031 A 1 1 0 0 0 15.207031 11.792969 A 1 1 0 0 0 14.5 11.5 A 1 1 0 0 0 13.792969 11.792969 L 13 12.585938 L 13 9 A 1 1 0 0 0 12 8 z " fill="currentColor"/>
</svg>
