<svg xmlns="http://www.w3.org/2000/svg" width="1em" height="1em" viewBox="0 0 24 24" fill="currentColor">
  <path d="M 12 1.5 C 9.76083 1.5 8.061073 1.4944581 6.6542969 1.6835938 C 5.2475207 1.8727295 4.0688969 2.2982969 3.1835938 3.1835938 C 2.2982969 4.0688968 1.8727295 5.2475207 1.6835938 6.6542969 C 1.494458 8.061073 1.5 9.76083 1.5 12 C 1.5 14.23915 1.4944601 15.93892 1.6835938 17.345703 C 1.8727292 18.752486 2.2983047 19.931079 3.1835938 20.816406 C 4.0688995 21.70168 5.2475238 22.127276 6.6542969 22.316406 C 8.0610699 22.505536 9.76083 22.5 12 22.5 C 14.23915 22.5 15.938923 22.5055 17.345703 22.316406 C 18.752483 22.127277 19.931076 21.701673 20.816406 20.816406 C 21.701673 19.931076 22.127277 18.752483 22.316406 17.345703 C 22.505536 15.938923 22.5 14.23915 22.5 12 C 22.5 9.76083 22.5055 8.0610699 22.316406 6.6542969 C 22.127276 5.2475238 21.70168 4.0688995 20.816406 3.1835938 C 19.931079 2.2983046 18.752486 1.8727291 17.345703 1.6835938 C 15.93892 1.4944584 14.23915 1.5 12 1.5 z M 12 3.5 C 14.23915 3.5 15.897908 3.50539 17.078125 3.6640625 C 18.258342 3.8227371 18.896371 4.0917053 19.402344 4.5976562 C 19.90827 5.1036005 20.177267 5.7416656 20.335938 6.921875 C 20.494609 8.1020844 20.5 9.76083 20.5 12 C 20.5 14.23915 20.4946 15.897905 20.335938 17.078125 C 20.177267 18.258345 19.908277 18.896374 19.402344 19.402344 C 18.896374 19.908277 18.258345 20.177267 17.078125 20.335938 C 15.897905 20.494609 14.23915 20.5 12 20.5 C 9.76083 20.5 8.1020844 20.494608 6.921875 20.335938 C 5.7416656 20.177267 5.1036004 19.90827 4.5976562 19.402344 C 4.0917053 18.896371 3.8227371 18.258342 3.6640625 17.078125 C 3.5053879 15.897908 3.5 14.23915 3.5 12 C 3.5 9.76083 3.5053882 8.1020814 3.6640625 6.921875 C 3.8227368 5.7416686 4.091713 5.1036031 4.5976562 4.5976562 C 5.1036031 4.0917131 5.7416686 3.8227368 6.921875 3.6640625 C 8.1020814 3.5053882 9.76083 3.5 12 3.5 z M 8 5 C 7.528595 5 7.1551289 4.9930802 6.7695312 5.0449219 C 6.3839336 5.0967636 5.9220631 5.2498234 5.5859375 5.5859375 C 5.2498234 5.9220631 5.0967636 6.3839336 5.0449219 6.7695312 C 4.9930802 7.1551289 5 7.528595 5 8 L 5 15 C 5 15.4714 4.9930799 15.844872 5.0449219 16.230469 C 5.0967639 16.616065 5.2498234 17.077938 5.5859375 17.414062 C 5.9220598 17.750186 6.38393 17.903234 6.7695312 17.955078 C 7.1551324 18.006922 7.528595 18 8 18 L 8.5 18 C 8.971405 18 9.3448677 18.006898 9.7304688 17.955078 C 10.11607 17.903238 10.577942 17.750196 10.914062 17.414062 C 11.250184 17.077941 11.403234 16.616069 11.455078 16.230469 C 11.506922 15.844867 11.5 15.4714 11.5 15 L 11.5 8 C 11.5 7.528595 11.506898 7.1551325 11.455078 6.7695312 C 11.403232 6.3839301 11.250184 5.9220598 10.914062 5.5859375 C 10.577939 5.2498137 10.116066 5.0967638 9.7304688 5.0449219 C 9.3448714 4.99308 8.971405 5 8.5 5 L 8 5 z M 15.5 5 C 15.0286 5 14.655128 4.9930799 14.269531 5.0449219 C 13.883935 5.0967639 13.422063 5.2498234 13.085938 5.5859375 C 12.749814 5.9220597 12.596766 6.38393 12.544922 6.7695312 C 12.493078 7.1551325 12.5 7.528595 12.5 8 L 12.5 10 C 12.5 10.4714 12.493102 10.844869 12.544922 11.230469 C 12.596762 11.616069 12.749815 12.07794 13.085938 12.414062 C 13.422059 12.750184 13.883931 12.903234 14.269531 12.955078 C 14.655133 13.006922 15.0286 13 15.5 13 L 16 13 C 16.4714 13 16.844869 13.006898 17.230469 12.955078 C 17.616069 12.903238 18.07794 12.750184 18.414062 12.414062 C 18.750186 12.077939 18.903234 11.616069 18.955078 11.230469 C 19.006922 10.844867 19 10.4714 19 10 L 19 8 C 19 7.528595 19.006922 7.1551325 18.955078 6.7695312 C 18.903234 6.3839301 18.750185 5.9220598 18.414062 5.5859375 C 18.077937 5.2498234 17.616065 5.0967637 17.230469 5.0449219 C 16.844872 4.9930801 16.4714 5 16 5 L 15.5 5 z M 8 7 L 8.5 7 C 8.971405 7 9.3058161 7.0059597 9.4648438 7.0273438 C 9.4671902 7.0276592 9.4704133 7.02704 9.4726562 7.0273438 C 9.47296 7.0295867 9.4723408 7.0328099 9.4726562 7.0351562 C 9.4940372 7.1941825 9.5 7.528595 9.5 8 L 9.5 15 C 9.5 15.4714 9.4940402 15.805819 9.4726562 15.964844 C 9.4723408 15.96719 9.47296 15.970413 9.4726562 15.972656 C 9.4704134 15.97296 9.4671901 15.972341 9.4648438 15.972656 C 9.3058197 15.994037 8.971405 16 8.5 16 L 8 16 C 7.528595 16 7.1941825 15.994037 7.0351562 15.972656 C 7.03281 15.972341 7.0295865 15.97296 7.0273438 15.972656 C 7.0270399 15.970412 7.0276594 15.967191 7.0273438 15.964844 C 7.0059628 15.805819 7 15.4714 7 15 L 7 8 C 7 7.528595 7.005963 7.1941861 7.0273438 7.0351562 C 7.0276592 7.0328099 7.02704 7.0295866 7.0273438 7.0273438 C 7.0295867 7.02704 7.0328098 7.0276592 7.0351562 7.0273438 C 7.1941863 7.0059628 7.528595 7 8 7 z M 15.5 7 L 16 7 C 16.4714 7 16.805815 7.0059597 16.964844 7.0273438 C 16.96719 7.0276592 16.970413 7.02704 16.972656 7.0273438 C 16.97296 7.0295867 16.972341 7.0328099 16.972656 7.0351562 C 16.994037 7.1941825 17 7.528595 17 8 L 17 10 C 17 10.4714 16.993996 10.805819 16.972656 10.964844 C 16.972341 10.967191 16.97296 10.970412 16.972656 10.972656 C 16.970411 10.97296 16.967193 10.97234 16.964844 10.972656 C 16.805823 10.994033 16.4714 11 16 11 L 15.5 11 C 15.0286 11 14.694181 10.993996 14.535156 10.972656 C 14.532809 10.972341 14.529588 10.97296 14.527344 10.972656 C 14.52704 10.970411 14.52766 10.967193 14.527344 10.964844 C 14.505967 10.805823 14.5 10.4714 14.5 10 L 14.5 8 C 14.5 7.528595 14.506004 7.1941825 14.527344 7.0351562 C 14.527659 7.0328103 14.52704 7.0295863 14.527344 7.0273438 C 14.529589 7.0270397 14.532807 7.0276596 14.535156 7.0273438 C 14.694181 7.0059628 15.0286 7 15.5 7 z " fill="currentColor"/>
</svg>
