<svg xmlns="http://www.w3.org/2000/svg" width="1em" height="1em" viewBox="0 0 24 24" fill="currentColor">
  <path d="M 12 1 C 10.928795 1 10.037791 1.6666629 9.328125 2.5605469 C 8.6184586 3.4544308 7.9385004 4.6568343 7.03125 6.234375 L 6.6660156 6.8671875 A 1 1 0 0 0 7.0351562 8.2324219 A 1 1 0 0 0 8.4003906 7.8652344 L 8.7636719 7.2304688 C 9.6709215 5.6529294 10.351768 4.4883435 10.894531 3.8046875 C 11.437295 3.1210315 11.690505 3 12 3 C 12.309495 3 12.562697 3.1210315 13.105469 3.8046875 C 13.648241 4.4883435 14.32908 5.6529323 15.236328 7.2304688 L 15.599609 7.8652344 A 1 1 0 0 0 16.964844 8.2324219 A 1 1 0 0 0 17.333984 6.8671875 L 16.96875 6.234375 C 16.061498 4.6568316 15.381553 3.4544309 14.671875 2.5605469 C 13.962197 1.6666628 13.071205 1 12 1 z M 4.3398438 8 A 1 1 0 0 0 3.4746094 8.5 A 1 1 0 0 0 3.8398438 9.8652344 L 7.3046875 11.865234 A 1 1 0 0 0 8.6699219 11.5 A 1 1 0 0 0 8.3046875 10.134766 L 4.8398438 8.1347656 A 1 1 0 0 0 4.3398438 8 z M 19.660156 8 A 1 1 0 0 0 19.160156 8.1347656 L 15.695312 10.134766 A 1 1 0 0 0 15.330078 11.5 A 1 1 0 0 0 16.695312 11.865234 L 20.160156 9.8652344 A 1 1 0 0 0 20.525391 8.5 A 1 1 0 0 0 19.660156 8 z M 19.496094 11.630859 A 1 1 0 0 0 18.996094 11.765625 A 1 1 0 0 0 18.628906 13.130859 L 18.992188 13.763672 C 19.854986 15.26392 20.486223 16.379598 20.783203 17.142578 C 21.080183 17.905559 21.051227 18.134888 20.912109 18.363281 C 20.772998 18.591666 20.543665 18.749663 19.697266 18.871094 C 18.850867 18.992524 17.532459 19 15.755859 19 L 15 19 A 1 1 0 0 0 14 20 A 1 1 0 0 0 15 21 L 15.755859 21 C 17.532459 21 18.880093 21.0075 19.980469 20.849609 C 21.080845 20.691741 22.079706 20.291159 22.621094 19.402344 C 23.162476 18.513537 23.04218 17.434563 22.646484 16.417969 C 22.250789 15.401374 21.589365 14.265877 20.726562 12.765625 L 20.363281 12.134766 A 1 1 0 0 0 19.755859 11.666016 A 1 1 0 0 0 19.496094 11.630859 z M 4.5019531 11.632812 A 1 1 0 0 0 3.6367188 12.134766 L 3.2734375 12.765625 C 2.4106363 14.265877 1.74921 15.401373 1.3535156 16.417969 C 0.95782127 17.434564 0.83751656 18.513539 1.3789062 19.402344 C 1.920291 20.29114 2.9191687 20.69174 4.0195312 20.849609 C 5.1198938 21.007479 6.4675306 21 8.2441406 21 L 9 21 A 1 1 0 0 0 10 20 A 1 1 0 0 0 9 19 L 8.2441406 19 C 6.4675306 19 5.1491144 18.992524 4.3027344 18.871094 C 3.4563544 18.749663 3.2270159 18.591685 3.0878906 18.363281 C 2.9487704 18.134886 2.9198188 17.905558 3.2167969 17.142578 C 3.513775 16.379599 4.1450137 15.26392 5.0078125 13.763672 L 5.3710938 13.130859 A 1 1 0 0 0 5.0039062 11.765625 A 1 1 0 0 0 4.5019531 11.632812 z M 12 17 A 1 1 0 0 0 11 18 L 11 22 A 1 1 0 0 0 12 23 A 1 1 0 0 0 13 22 L 13 18 A 1 1 0 0 0 12 17 z " fill="currentColor"/>
</svg>
