<svg xmlns="http://www.w3.org/2000/svg" width="1em" height="1em" viewBox="0 0 24 24" fill="currentColor">
  <path d="M 15.833984 2.5195312 C 11.761144 2.5986245 9.0270103 3.8329099 7.2695312 5.3125 C 4.9262258 7.2852868 4.3580095 9.5715254 4.2871094 9.890625 L 4.2832031 9.9101562 L 4.2792969 9.9277344 C 3.9622629 11.099028 3.9349231 12.329515 4.1972656 13.519531 C 4.4596173 14.709475 5.0031806 15.824663 5.7832031 16.775391 L 6.25 17.349609 L 3.2421875 19.314453 A 1.0001 1.0001 0 0 0 3.6328125 21.140625 C 10.307991 22.201377 14.386301 20.666375 16.730469 18.691406 C 19.074637 16.716437 19.64434 14.424245 19.714844 14.107422 L 19.720703 14.087891 L 19.724609 14.070312 C 20.041723 12.899022 20.068908 11.668433 19.806641 10.478516 C 19.54456 9.2900847 19.001182 8.1766118 18.222656 7.2265625 L 17.753906 6.6484375 L 20.757812 4.6835938 A 1.0001 1.0001 0 0 0 20.367188 2.859375 C 18.698451 2.5957871 17.191598 2.4931668 15.833984 2.5195312 z M 15.878906 4.5097656 C 16.269072 4.5039056 16.785731 4.5946027 17.208984 4.6132812 L 15.732422 5.578125 A 1.0001 1.0001 0 0 0 15.501953 7.0449219 L 16.669922 8.4863281 A 1.0001 1.0001 0 0 0 16.673828 8.4902344 C 17.257195 9.2013135 17.65988 10.030029 17.853516 10.908203 C 18.04705 11.786286 18.025458 12.690117 17.792969 13.548828 A 1.0001 1.0001 0 0 0 17.789062 13.566406 L 17.777344 13.613281 A 1.0001 1.0001 0 0 0 17.771484 13.640625 L 17.763672 13.673828 C 17.754772 13.713808 17.319501 15.581454 15.443359 17.162109 C 13.886416 18.473839 11.198939 19.587404 6.7871094 19.388672 L 8.2714844 18.419922 A 1.0001 1.0001 0 0 0 8.5 16.953125 L 7.3339844 15.511719 A 1.0001 1.0001 0 0 0 7.3300781 15.507812 C 6.7466843 14.796734 6.343979 13.9679 6.1503906 13.089844 C 5.9567928 12.21166 5.9765584 11.307925 6.2089844 10.449219 A 1.0001 1.0001 0 0 0 6.2128906 10.433594 L 6.2246094 10.386719 A 1.0001 1.0001 0 0 0 6.2324219 10.359375 L 6.2402344 10.324219 C 6.2484853 10.287088 6.6831967 8.4206601 8.5585938 6.8417969 C 9.9651416 5.6576495 12.204045 4.5649837 15.878906 4.5097656 z M 12 8 C 9.8027056 8 8 9.8027056 8 12 C 8 14.197294 9.8027056 16 12 16 C 14.197294 16 16 14.197294 16 12 C 16 9.8027056 14.197294 8 12 8 z M 12 10 C 13.116414 10 14 10.883586 14 12 C 14 13.116414 13.116414 14 12 14 C 10.883586 14 10 13.116414 10 12 C 10 10.883586 10.883586 10 12 10 z " fill="currentColor"/>
</svg>
