<svg xmlns="http://www.w3.org/2000/svg" width="1em" height="1em" viewBox="0 0 24 24" fill="currentColor">
  <path d="M 8 2 C 7.05719 2 6.3293839 1.9939644 5.671875 2.0820312 C 5.0143661 2.1700981 4.3637854 2.3938877 3.8808594 2.875 C 3.3979307 3.3561068 3.1705984 4.007797 3.0820312 4.6640625 C 2.9934641 5.320328 3 6.04512 3 6.984375 L 3 13.560547 C 3 13.930747 2.9931004 14.150866 3.0371094 14.427734 C 3.2403012 15.705796 4.2530517 16.712277 5.53125 16.914062 C 5.6803602 16.937562 5.8509886 16.930454 6 16.933594 L 6 18.091797 C 6 18.682847 5.9921102 19.135126 6.0507812 19.570312 C 6.0801162 19.787906 6.1208763 20.010179 6.2539062 20.265625 C 6.3869362 20.521071 6.6725126 20.809967 7.0039062 20.925781 C 7.3353152 21.041604 7.7390905 20.993113 8.0019531 20.876953 C 8.2648157 20.760792 8.4346691 20.614302 8.59375 20.462891 C 8.9119118 20.160068 9.1899267 19.801388 9.5605469 19.339844 L 11.480469 16.951172 L 15.34375 16.951172 C 16.16125 16.951172 16.709095 16.976102 17.318359 16.724609 C 17.927852 16.473252 18.298894 16.068047 18.876953 15.492188 L 19.533203 14.837891 C 20.111345 14.261954 20.518305 13.891798 20.771484 13.283203 C 21.024514 12.674402 21 12.1269 21 11.3125 L 21 6.984375 C 21 6.04512 21.006538 5.3203299 20.917969 4.6640625 C 20.8294 4.0077951 20.602076 3.3561052 20.119141 2.875 C 19.63621 2.3938995 18.985631 2.1700981 18.328125 2.0820312 C 17.670619 1.9939643 16.9428 2 16 2 L 8 2 z M 8 4 L 16 4 C 16.9428 4 17.630756 4.0066201 18.0625 4.0644531 C 18.494244 4.1222811 18.606115 4.1904894 18.708984 4.2929688 C 18.811849 4.3954436 18.877666 4.5027605 18.935547 4.9316406 C 18.993428 5.3605209 19 6.04512 19 6.984375 L 19 11.3125 C 19 12.1269 18.975198 12.392026 18.923828 12.515625 C 18.872408 12.63923 18.701106 12.846016 18.123047 13.421875 L 17.466797 14.076172 C 16.888656 14.652113 16.680396 14.823158 16.554688 14.875 C 16.428953 14.9269 16.16125 14.951172 15.34375 14.951172 L 11.480469 14.951172 C 11.244369 14.951172 10.963891 14.919402 10.591797 15.097656 C 10.218981 15.275896 10.067297 15.515674 9.9199219 15.699219 L 8.0019531 18.087891 L 8 18.089844 L 8 16.548828 C 8 16.456328 8.0060898 16.375822 7.9804688 16.214844 L 7.9824219 16.214844 C 7.8809303 15.576147 7.3705063 15.069251 6.734375 14.96875 A 1.0001 1.0001 0 0 0 6.7324219 14.96875 C 6.5730078 14.94373 6.4932906 14.951172 6.4003906 14.951172 C 6.0287906 14.951172 5.8782027 14.944873 5.84375 14.939453 C 5.4103852 14.871042 5.079627 14.540419 5.0117188 14.113281 C 5.0064846 14.08035 5 13.930747 5 13.560547 L 5 6.984375 C 5 6.04512 5.0065728 5.3605226 5.0644531 4.9316406 C 5.1223335 4.5027587 5.1881543 4.395442 5.2910156 4.2929688 C 5.3938696 4.190501 5.5057539 4.1222813 5.9375 4.0644531 C 6.3692461 4.006625 7.05719 4 8 4 z M 12 6 A 1 1 0 0 0 11 7 L 11 11 A 1 1 0 0 0 12 12 A 1 1 0 0 0 13 11 L 13 7 A 1 1 0 0 0 12 6 z M 16 6 A 1 1 0 0 0 15 7 L 15 11 A 1 1 0 0 0 16 12 A 1 1 0 0 0 17 11 L 17 7 A 1 1 0 0 0 16 6 z " fill="currentColor"/>
</svg>
