<svg xmlns="http://www.w3.org/2000/svg" width="1em" height="1em" viewBox="0 0 24 24" fill="currentColor">
  <path d="M 12.726562 1 C 11.631185 1 10.870825 1.818864 10.552734 2.8144531 C 10.29683 2.7208525 10.105899 2.5 9.8183594 2.5 C 8.457722 2.5 7.3632813 3.6475265 7.3632812 5 L 7.3632812 11.085938 C 6.2571987 10.085156 4.4938336 10.16854 3.5683594 11.365234 A 1.0001 1.0001 0 0 0 3.5664062 11.365234 C 2.8266895 12.321786 2.8079328 13.655868 3.5175781 14.634766 A 1.0001 1.0001 0 0 0 3.53125 14.654297 L 7.0214844 19.251953 C 7.4955456 19.876416 7.8476564 21.09921 7.8476562 22 A 1 1 0 0 0 8.8476562 23 A 1 1 0 0 0 9.8476562 22 C 9.8476562 20.66619 9.4748767 19.177907 8.6132812 18.042969 L 5.1367188 13.460938 C 4.951204 13.205035 4.9581073 12.836539 5.1503906 12.587891 C 5.4077308 12.255134 5.7873753 12.234487 6.0742188 12.53125 L 7.6445312 14.158203 A 1.0001 1.0001 0 0 0 9.3632812 13.462891 L 9.3632812 5 C 9.3632812 4.6956135 9.5723768 4.5 9.8183594 4.5 C 10.064257 4.5 10.273438 4.6956135 10.273438 5 L 10.273438 10 A 1 1 0 0 0 11.273438 11 A 1 1 0 0 0 12.273438 10 L 12.273438 5 L 12.273438 3.5 C 12.273438 3.1956298 12.480435 3 12.726562 3 C 12.97252 3 13.181641 3.1956298 13.181641 3.5 L 13.181641 10 L 13.181641 11 A 1.0001 1.0001 0 0 0 15.181641 11 L 15.181641 10.011719 C 15.680226 10.029569 16.091797 10.432267 16.091797 11 L 16.091797 12 A 1 1 0 0 0 17.091797 13 A 1 1 0 0 0 18.091797 12 L 18.091797 11.1875 L 18.210938 11.207031 C 18.656964 11.283683 19 11.683015 19 12.193359 L 19 13.666016 C 19 15.839316 18.96625 16.834181 18.740234 17.443359 C 18.657144 17.667273 18.210179 18.318897 17.845703 18.748047 C 17.366334 19.312484 17.060547 20.043188 17.060547 20.835938 L 17.060547 22 A 1 1 0 0 0 18.060547 23 A 1 1 0 0 0 19.060547 22 L 19.060547 20.835938 C 19.060547 20.565288 19.170863 20.278732 19.371094 20.042969 C 19.792218 19.547119 20.325921 18.920311 20.615234 18.140625 C 21.031222 17.019403 21 15.839316 21 13.666016 L 21 12.195312 A 1.0001 1.0001 0 0 0 21 12.193359 C 21 10.74835 19.973001 9.481077 18.548828 9.2363281 L 18.216797 9.1796875 C 17.926205 9.1297756 17.702845 9.3175014 17.441406 9.4023438 C 16.919055 8.6189859 16.179828 8.0234407 15.181641 8.0117188 L 15.181641 3.5 C 15.181641 2.1475302 14.087204 1 12.726562 1 z " fill="currentColor"/>
</svg>
