<svg xmlns="http://www.w3.org/2000/svg" width="1em" height="1em" viewBox="0 0 24 24" fill="currentColor">
  <path d="M 12 1 C 5.9367124 1 1 5.9367124 1 12 C 1 18.063288 5.9367124 23 12 23 C 18.063288 23 23 18.063288 23 12 C 23 5.9367124 18.063288 1 12 1 z M 12 3 C 16.982407 3 21 7.0175926 21 12 C 21 16.982407 16.982407 21 12 21 C 7.0175926 21 3 16.982407 3 12 C 3 7.0175926 7.0175926 3 12 3 z M 7.0488281 7 A 1 1 0 0 0 6.6621094 7.0585938 A 1 1 0 0 0 6.0585938 8.3378906 C 6.4104339 9.3163722 7.3562069 10 8.4394531 10 C 9.5226956 10 10.468471 9.3163722 10.820312 8.3378906 A 1 1 0 0 0 10.216797 7.0585938 A 1 1 0 0 0 8.9375 7.6621094 C 8.8703602 7.8488278 8.6851106 8 8.4394531 8 C 8.1937793 8 8.0085461 7.8488278 7.9414062 7.6621094 A 1 1 0 0 0 7.0488281 7 z M 14.169922 7 A 1 1 0 0 0 13.783203 7.0585938 A 1 1 0 0 0 13.179688 8.3378906 C 13.531515 9.3162921 14.477286 10 15.560547 10 C 16.643771 10 17.589544 9.3163875 17.941406 8.3378906 A 1 1 0 0 0 17.337891 7.0585938 A 1 1 0 0 0 16.058594 7.6621094 C 15.991456 7.8488125 15.806123 8 15.560547 8 C 15.314808 8 15.129672 7.8489079 15.0625 7.6621094 A 1 1 0 0 0 14.169922 7 z M 15.011719 13.001953 A 1 1 0 0 0 14.628906 13.072266 L 9.6289062 15.072266 A 1 1 0 0 0 9.0722656 16.371094 A 1 1 0 0 0 10.371094 16.927734 L 15.371094 14.927734 A 1 1 0 0 0 15.927734 13.628906 A 1 1 0 0 0 15.011719 13.001953 z " fill="currentColor"/>
</svg>
