<svg xmlns="http://www.w3.org/2000/svg" width="1em" height="1em" viewBox="0 0 24 24" fill="currentColor">
  <path d="M 9 2 C 7.52786 2 6.6215317 1.9665779 5.7109375 2.421875 C 4.8003433 2.8771721 4.2836714 3.6230702 3.4003906 4.8007812 L 2.1992188 6.4003906 A 1.0001 1.0001 0 0 0 2.1601562 6.4609375 A 1.0001 1.0001 0 0 0 2.1308594 6.5058594 A 1.0001 1.0001 0 0 0 2.0976562 6.5742188 A 1.0001 1.0001 0 0 0 2.0742188 6.6230469 A 1.0001 1.0001 0 0 0 2.0566406 6.6757812 A 1.0001 1.0001 0 0 0 2.0058594 6.890625 A 1.0001 1.0001 0 0 0 2.0039062 6.921875 A 1.0001 1.0001 0 0 0 2 7 L 2 13 C 2 14.8856 1.99457 16.318937 2.15625 17.521484 C 2.3179268 18.724031 2.6893545 19.759713 3.4648438 20.535156 C 4.2403087 21.310634 5.2759729 21.682068 6.4785156 21.84375 C 7.6810584 22.005432 9.11438 22 11 22 L 13 22 C 14.8856 22 16.318935 22.0054 17.521484 21.84375 C 18.724034 21.682069 19.759716 21.310663 20.535156 20.535156 C 21.310663 19.759716 21.682069 18.724034 21.84375 17.521484 C 22.005431 16.318935 22 14.8856 22 13 L 22 7 A 1.0001 1.0001 0 0 0 21.943359 6.6757812 A 1.0001 1.0001 0 0 0 21.902344 6.5742188 A 1.0001 1.0001 0 0 0 21.869141 6.5058594 A 1.0001 1.0001 0 0 0 21.839844 6.4609375 A 1.0001 1.0001 0 0 0 21.792969 6.390625 L 20.599609 4.8007812 C 19.716319 3.6230847 19.199737 2.8771691 18.289062 2.421875 C 17.378469 1.9665494 16.4721 2 15 2 L 9 2 z M 9 4 L 15 4 C 16.4721 4 17.038325 4.032823 17.394531 4.2109375 C 17.750857 4.3890834 18.11669 4.8222766 19 6 L 5 6 C 5.8832792 4.8222911 6.2491829 4.3890804 6.6054688 4.2109375 C 6.9617546 4.0327946 7.52786 4 9 4 z M 4 8 L 20 8 L 20 13 C 20 14.8856 19.9945 16.279884 19.863281 17.255859 C 19.732063 18.231835 19.517187 18.725034 19.121094 19.121094 C 18.725034 19.517187 18.231835 19.732063 17.255859 19.863281 C 16.279884 19.9945 14.8856 20 13 20 L 11 20 C 9.11438 20 7.7201079 19.9945 6.7441406 19.863281 C 5.7681734 19.732063 5.2750213 19.517216 4.8789062 19.121094 C 4.4828255 18.725037 4.2679344 18.231837 4.1367188 17.255859 C 4.0055032 16.279881 4 14.8856 4 13 L 4 8 z M 12 9.5 C 11.315253 9.5 10.958936 9.8269859 10.611328 10.123047 C 10.263721 10.419108 9.9459775 10.768891 9.6425781 11.126953 C 9.0357793 11.843077 8.4291999 12.65254 8.2832031 12.802734 A 1 1 0 0 0 8.3027344 14.216797 A 1 1 0 0 0 9.7167969 14.197266 C 10.108601 13.794195 10.539804 13.193319 11 12.626953 L 11 17.5 A 1 1 0 0 0 12 18.5 A 1 1 0 0 0 13 17.5 L 13 12.626953 C 13.460199 13.193317 13.891447 13.794217 14.283203 14.197266 A 1 1 0 0 0 15.697266 14.216797 A 1 1 0 0 0 15.716797 12.802734 C 15.570787 12.652516 14.964228 11.843079 14.357422 11.126953 C 14.054019 10.76889 13.736282 10.419107 13.388672 10.123047 C 13.041061 9.8269867 12.684747 9.5 12 9.5 z " fill="currentColor"/>
</svg>
