<svg xmlns="http://www.w3.org/2000/svg" width="1em" height="1em" viewBox="0 0 24 24" fill="currentColor">
  <path d="M 12.25 1 C 6.1867104 1 1.25 5.9367104 1.25 12 C 1.25 18.063244 6.1867044 23 12.25 23 C 18.31325 23 23.25 18.06325 23.25 12 C 23.25 5.9367044 18.313244 1 12.25 1 z M 12.25 3 C 17.232356 3 21.25 7.0175956 21.25 12 C 21.25 14.12977 20.514943 16.082332 19.285156 17.621094 L 6.6289062 4.9648438 C 8.167663 3.7350664 10.120206 3 12.25 3 z M 5.2148438 6.3789062 L 17.871094 19.035156 C 16.332332 20.264943 14.37977 21 12.25 21 C 7.2675956 21 3.25 16.982356 3.25 12 C 3.25 9.8702058 3.9850664 7.917663 5.2148438 6.3789062 z " fill="currentColor"/>
</svg>
