<svg xmlns="http://www.w3.org/2000/svg" width="1em" height="1em" viewBox="0 0 24 24" fill="currentColor">
  <path d="M 7.0039062 2.9980469 A 1 1 0 0 0 6.3945312 3.203125 L 5.2421875 4.0800781 C 4.2934526 4.800823 3.562193 5.3465207 3 5.9160156 C 2.4699713 6.4529286 2.0560281 7.1113785 2.0097656 7.8632812 A 1 1 0 0 0 2 8 A 1 1 0 0 0 2.0097656 8.1367188 C 2.0560282 8.8886214 2.4699725 9.5470703 3 10.083984 C 3.5621917 10.653481 4.2934535 11.199168 5.2421875 11.919922 L 6.3945312 12.796875 A 1 1 0 0 0 7.796875 12.605469 A 1 1 0 0 0 7.6054688 11.203125 L 6.4511719 10.328125 C 5.7388803 9.7869963 5.1717937 9.3499421 4.7695312 9 L 15 9 C 17.773257 9 20 11.226743 20 14 C 20 16.773257 17.773257 19 15 19 L 11 19 A 1 1 0 0 0 10 20 A 1 1 0 0 0 11 21 L 15 21 C 18.854143 21 22 17.854143 22 14 C 22 10.145857 18.854143 7 15 7 L 4.7695312 7 C 5.1717937 6.6500558 5.7388809 6.2129958 6.4511719 5.671875 L 7.6054688 4.796875 A 1 1 0 0 0 7.796875 3.3945312 A 1 1 0 0 0 7.0039062 2.9980469 z " fill="currentColor"/>
</svg>
