<svg xmlns="http://www.w3.org/2000/svg" width="1em" height="1em" viewBox="0 0 24 24" fill="currentColor">
  <path d="M 7.5 2 C 6.56936 2 6.0248003 1.9747007 5.4179688 2.171875 C 4.3533306 2.517788 3.517788 3.3533306 3.171875 4.4179688 C 2.9747007 5.0248003 3 5.56936 3 6.5 C 3 7.43064 2.9747007 7.9751996 3.171875 8.5820312 C 3.517788 9.6466693 4.3533307 10.482212 5.4179688 10.828125 C 6.0248003 11.025299 6.56936 11 7.5 11 L 10.5 11 C 11.4306 11 11.975156 11.02535 12.582031 10.828125 C 13.646672 10.482211 14.482204 9.6466525 14.828125 8.5820312 C 15.025381 7.9751459 15 7.43064 15 6.5 C 15 5.56936 15.025381 5.0248541 14.828125 4.4179688 C 14.482204 3.3533475 13.646672 2.5177888 12.582031 2.171875 C 11.975156 1.9746446 11.4306 2 10.5 2 L 7.5 2 z M 7.5 4 L 10.5 4 C 11.4306 4 11.816766 4.0267288 11.962891 4.0742188 C 12.42045 4.2228851 12.777103 4.5795306 12.925781 5.0371094 C 12.973325 5.1833838 13 5.56936 13 6.5 C 13 7.43064 12.973325 7.8166159 12.925781 7.9628906 C 12.777103 8.4204694 12.42045 8.777115 11.962891 8.9257812 C 11.816766 8.9732708 11.4306 9 10.5 9 L 7.5 9 C 6.56936 9 6.1834378 8.9733268 6.0371094 8.9257812 C 5.5795476 8.7771141 5.2228859 8.4204524 5.0742188 7.9628906 C 5.0266731 7.8165622 5 7.43064 5 6.5 C 5 5.56936 5.0266732 5.1834378 5.0742188 5.0371094 C 5.2228858 4.5795476 5.5795476 4.2228859 6.0371094 4.0742188 C 6.1834378 4.0266731 6.56936 4 7.5 4 z M 13.5 13 C 12.5694 13 12.024897 12.97456 11.417969 13.171875 C 10.353345 13.517797 9.5177973 14.353345 9.171875 15.417969 C 8.9745627 16.024897 9 16.5694 9 17.5 C 9 18.4306 8.974563 18.975103 9.171875 19.582031 C 9.5177973 20.646655 10.353345 21.482203 11.417969 21.828125 C 12.024897 22.025437 12.5694 22 13.5 22 L 16.5 22 C 17.4306 22 17.975103 22.02544 18.582031 21.828125 C 19.646655 21.482203 20.482203 20.646655 20.828125 19.582031 C 21.025437 18.975103 21 18.4306 21 17.5 C 21 16.5694 21.025437 16.024897 20.828125 15.417969 C 20.482203 14.353345 19.646655 13.517797 18.582031 13.171875 C 17.975103 12.974563 17.4306 13 16.5 13 L 13.5 13 z M 13.5 15 L 16.5 15 C 17.4306 15 17.816819 15.026729 17.962891 15.074219 C 18.420467 15.222896 18.777104 15.579533 18.925781 16.037109 C 18.973269 16.18318 19 16.5694 19 17.5 C 19 18.4306 18.973271 18.816819 18.925781 18.962891 C 18.777104 19.420467 18.420467 19.777104 17.962891 19.925781 C 17.81682 19.973269 17.4306 20 16.5 20 L 13.5 20 C 12.5694 20 12.183181 19.973271 12.037109 19.925781 C 11.579533 19.777104 11.222896 19.420467 11.074219 18.962891 C 11.026731 18.81682 11 18.4306 11 17.5 C 11 16.5694 11.026729 16.183181 11.074219 16.037109 C 11.222896 15.579533 11.579533 15.222896 12.037109 15.074219 C 12.18318 15.026731 12.5694 15 13.5 15 z " fill="currentColor"/>
</svg>
