<svg xmlns="http://www.w3.org/2000/svg" width="1em" height="1em" viewBox="0 0 24 24" fill="currentColor">
  <path d="M 12 1 C 5.9367124 1 1 5.9367124 1 12 C 1 18.063288 5.9367124 23 12 23 C 18.063288 23 23 18.063288 23 12 C 23 5.9367124 18.063288 1 12 1 z M 12 3 C 16.982407 3 21 7.0175926 21 12 C 21 16.982407 16.982407 21 12 21 C 7.0175926 21 3 16.982407 3 12 C 3 7.0175926 7.0175926 3 12 3 z M 7.2011719 7.0019531 C 7.0213443 7.005099 6.9101562 7.015625 6.9101562 7.015625 A 1 1 0 0 0 6.0039062 8.1015625 A 1 1 0 0 0 7.0898438 9.0058594 C 7.0898438 9.0058594 7.3495027 8.9834352 7.7011719 9.0195312 C 7.8183206 9.0315553 7.8784092 9.081533 7.9921875 9.109375 C 7.7438073 10.071217 8.5425004 11 9.4765625 11 C 9.9749423 11 10.454344 10.77591 10.748047 10.355469 C 11.04175 9.9350274 11.071065 9.2512907 10.763672 8.7851562 C 10.544212 8.4523591 10.244478 8.0630238 9.8183594 7.7246094 C 9.1714078 7.2108174 8.4539577 7.0876672 7.9042969 7.03125 C 7.6294664 7.0030414 7.3809994 6.9988072 7.2011719 7.0019531 z M 14.201172 7.0019531 C 14.021344 7.005099 13.910156 7.015625 13.910156 7.015625 A 1 1 0 0 0 13.003906 8.1015625 A 1 1 0 0 0 14.089844 9.0058594 C 14.089844 9.0058594 14.349505 8.9834352 14.701172 9.0195312 C 14.81832 9.0315553 14.878405 9.081533 14.992188 9.109375 C 14.745433 10.070438 15.543139 11 16.476562 11 C 16.97493 11 17.454342 10.775929 17.748047 10.355469 C 18.041751 9.9350078 18.071018 9.2512726 17.763672 8.7851562 C 17.544188 8.4523118 17.244444 8.063008 16.818359 7.7246094 C 16.171399 7.2108493 15.453955 7.0876672 14.904297 7.03125 C 14.629468 7.0030414 14.381 6.9988072 14.201172 7.0019531 z M 12 15 C 10.654073 15 9.4005857 15.448268 8.3984375 16.201172 A 1 1 0 0 0 8.2011719 17.599609 A 1 1 0 0 0 9.6015625 17.798828 C 10.270674 17.296132 11.094727 17 12 17 C 12.905273 17 13.729375 17.296151 14.398438 17.798828 A 1 1 0 0 0 15.798828 17.599609 A 1 1 0 0 0 15.601562 16.201172 C 14.599424 15.448249 13.345927 15 12 15 z " fill="currentColor"/>
</svg>
