<svg xmlns="http://www.w3.org/2000/svg" width="1em" height="1em" viewBox="0 0 24 24" fill="currentColor">
  <path d="M 9.5 1.5 C 7.53715 1.5 6.3854101 1.4664746 5.2636719 2.0273438 C 4.1419201 2.5882129 3.4784904 3.5293305 2.3007812 5.0996094 L 1.6992188 5.9003906 A 1.0001 1.0001 0 0 0 1.6347656 6 A 1 1 0 0 0 1.5917969 6.0878906 A 1.0001 1.0001 0 0 0 1.5722656 6.1269531 A 1 1 0 0 0 1.5585938 6.1679688 A 1.0001 1.0001 0 0 0 1.5292969 6.2578125 A 1 1 0 0 0 1.5195312 6.3066406 A 1.0001 1.0001 0 0 0 1.5078125 6.3808594 A 1 1 0 0 0 1.5019531 6.46875 A 1.0001 1.0001 0 0 0 1.5 6.5 A 1 1 0 0 0 1.5 6.5332031 L 1.5 13.5 C 1.5 15.3856 1.49457 16.818937 1.65625 18.021484 C 1.8179268 19.224031 2.1893545 20.259713 2.9648438 21.035156 C 3.7403096 21.810635 4.7759671 22.182069 5.9785156 22.34375 C 7.1810641 22.505431 8.614365 22.5 10.5 22.5 L 13.5 22.5 C 15.3856 22.5 16.818947 22.5054 18.021484 22.34375 C 19.224022 22.182068 20.259684 21.810629 21.035156 21.035156 C 21.810663 20.259716 22.184022 19.224034 22.345703 18.021484 C 22.507384 16.818935 22.5 15.3856 22.5 13.5 L 22.5 6.5332031 A 1 1 0 0 0 22.5 6.5 A 1.0001 1.0001 0 0 0 22.498047 6.46875 A 1 1 0 0 0 22.492188 6.3808594 A 1.0001 1.0001 0 0 0 22.472656 6.265625 A 1 1 0 0 0 22.470703 6.2578125 A 1.0001 1.0001 0 0 0 22.431641 6.1367188 A 1 1 0 0 0 22.423828 6.1171875 A 1.0001 1.0001 0 0 0 22.408203 6.0878906 A 1 1 0 0 0 22.365234 6 A 1.0001 1.0001 0 0 0 22.300781 5.9003906 L 21.699219 5.0996094 C 20.521511 3.5293185 19.858076 2.5882046 18.736328 2.0273438 C 17.614585 1.4664852 16.4628 1.5 14.5 1.5 L 9.5 1.5 z M 9.5 3.5 L 14.5 3.5 C 16.4628 3.5 17.27434 3.532685 17.841797 3.8164062 C 18.300904 4.0459544 18.723586 4.5024283 19.492188 5.5 L 4.5078125 5.5 C 5.2764279 4.5024195 5.6991141 4.045948 6.1582031 3.8164062 C 6.7256249 3.5326954 7.53715 3.5 9.5 3.5 z M 3.5 7.5 L 20.5 7.5 L 20.5 13.5 C 20.5 15.3856 20.4945 16.779884 20.363281 17.755859 C 20.232063 18.731835 20.017187 19.225034 19.621094 19.621094 C 19.224966 20.017221 18.731822 20.232063 17.755859 20.363281 C 16.779897 20.4945 15.3856 20.5 13.5 20.5 L 10.5 20.5 C 8.614365 20.5 7.2201146 20.4945 6.2441406 20.363281 C 5.2681666 20.232063 4.7750203 20.017215 4.3789062 19.621094 C 3.9828255 19.225037 3.7679344 18.731837 3.6367188 17.755859 C 3.505503 16.779881 3.5 15.3856 3.5 13.5 L 3.5 7.5 z M 12 9.5 C 11.169864 9.5 10.911172 9.8865018 10.535156 10.21875 C 10.159141 10.550998 9.7912217 10.949842 9.4492188 11.34375 C 8.7652128 12.131566 8.1953125 12.90625 8.1953125 12.90625 A 1 1 0 0 0 8.40625 14.304688 A 1 1 0 0 0 9.8046875 14.09375 C 9.8046875 14.09375 10.340645 13.368434 10.958984 12.65625 C 10.973114 12.63998 10.98578 12.629521 11 12.613281 L 11 17.5 A 1 1 0 0 0 12 18.5 A 1 1 0 0 0 13 17.5 L 13 12.613281 C 13.01421 12.629521 13.026886 12.63998 13.041016 12.65625 C 13.659379 13.368431 14.195313 14.09375 14.195312 14.09375 A 1 1 0 0 0 15.59375 14.304688 A 1 1 0 0 0 15.804688 12.90625 C 15.804688 12.90625 15.234818 12.131569 14.550781 11.34375 C 14.208763 10.94984 13.840884 10.550999 13.464844 10.21875 C 13.088796 9.8864997 12.830081 9.5 12 9.5 z " fill="currentColor"/>
</svg>
