<svg xmlns="http://www.w3.org/2000/svg" width="1em" height="1em" viewBox="0 0 24 24" fill="currentColor">
  <path d="M 12 1 C 5.9367104 1 1 5.9367104 1 12 C 1 18.063244 5.9367044 23 12 23 C 18.06325 23 23 18.06325 23 12 C 23 5.9367044 18.063244 1 12 1 z M 12 3 C 16.982356 3 21 7.0175956 21 12 C 21 16.98235 16.98235 21 12 21 C 7.0175956 21 3 16.982356 3 12 C 3 7.0175896 7.0175896 3 12 3 z M 12 6 C 11.136941 5.9999906 10.831421 6.417751 10.402344 6.796875 C 9.9732665 7.175999 9.5447114 7.6373403 9.1484375 8.09375 C 8.3558897 9.0065694 7.6953125 9.90625 7.6953125 9.90625 A 1 1 0 0 0 7.90625 11.304688 A 1 1 0 0 0 9.3046875 11.09375 C 9.3046875 11.09375 9.9332793 10.243433 10.660156 9.40625 C 10.775974 9.2728569 10.882139 9.1808638 11 9.0527344 L 11 14 A 1 1 0 0 0 12 15 A 1 1 0 0 0 13 14 L 13 9.0527344 C 13.117861 9.1808637 13.224026 9.2728572 13.339844 9.40625 C 14.066722 10.243431 14.695312 11.09375 14.695312 11.09375 A 1 1 0 0 0 16.09375 11.304688 A 1 1 0 0 0 16.304688 9.90625 C 16.304688 9.90625 15.644109 9.0065661 14.851562 8.09375 C 14.455288 7.6373419 14.026732 7.1759988 13.597656 6.796875 C 13.168581 6.4177512 12.863045 6.0000094 12 6 z M 8.5 16 A 1 1 0 0 0 7.5 17 A 1 1 0 0 0 8.5 18 L 15.5 18 A 1 1 0 0 0 16.5 17 A 1 1 0 0 0 15.5 16 L 8.5 16 z " fill="currentColor"/>
</svg>
