<svg xmlns="http://www.w3.org/2000/svg" width="1em" height="1em" viewBox="0 0 24 24" fill="currentColor">
  <path d="M 10 1 C 8.59554 1 7.6948867 0.93062744 6.8339844 1.5058594 C 6.5064319 1.7247277 6.2247277 2.0064319 6.0058594 2.3339844 C 5.4306275 3.1948867 5.5 4.09554 5.5 5.5 L 5.5 6.9316406 C 5.2749387 7.0477367 5.0655078 7.1945788 4.8808594 7.3789062 C 4.3976073 7.8613101 4.1706652 8.5137747 4.0820312 9.171875 C 3.9933973 9.8299753 4 10.55719 4 11.5 L 4 17 C 4 17.9293 3.9886891 18.439474 4.0957031 18.976562 C 4.490494 20.95776 6.0484309 22.510612 8.03125 22.904297 C 8.5686099 23.011055 9.0787852 23 10.009766 23 C 10.940666 23 11.448977 23.011067 11.986328 22.904297 C 12.870824 22.728667 13.673182 22.321619 14.322266 21.75 A 1 1 0 0 0 14.412109 20.339844 A 1 1 0 0 0 13 20.25 C 12.610084 20.593381 12.131361 20.835433 11.597656 20.941406 C 11.361007 20.98843 10.940666 21 10.009766 21 C 9.0787852 21 8.6567021 20.988448 8.4199219 20.941406 C 7.223661 20.703891 6.296163 19.778142 6.0585938 18.585938 C 6.0116283 18.350226 6 17.9293 6 17 L 6 11.5 C 6 10.55719 6.0063846 9.8706078 6.0644531 9.4394531 C 6.1225217 9.0082985 6.1894108 8.8963449 6.2929688 8.7929688 C 6.3965299 8.6895875 6.5089235 8.6224977 6.9414062 8.5644531 C 7.373889 8.5064086 8.0633525 8.5 9.0078125 8.5 L 11.009766 8.5 C 11.954216 8.5 12.643681 8.5064101 13.076172 8.5644531 C 13.508663 8.6224981 13.621063 8.6896005 13.724609 8.7929688 C 13.867504 8.9356093 13.964103 9.1771374 14 10.041016 A 1 1 0 0 0 15.041016 11 A 1 1 0 0 0 16 9.9589844 C 15.958097 8.9505622 15.803424 8.0444258 15.136719 7.3789062 C 14.94727 7.1897837 14.731736 7.0393495 14.5 6.921875 L 14.5 5.5 C 14.5 4.09554 14.569443 3.1948898 13.994141 2.3339844 C 13.775273 2.0063879 13.493607 1.7247339 13.166016 1.5058594 C 12.305141 0.93058863 11.4045 1 10 1 z M 10 3 C 11.4045 3 11.906762 3.069119 12.054688 3.1679688 C 12.163896 3.2409337 12.259099 3.336149 12.332031 3.4453125 C 12.430929 3.593307 12.5 4.09554 12.5 5.5 L 12.5 6.5136719 C 12.059344 6.4967644 11.572867 6.5 11.009766 6.5 L 9.0078125 6.5 C 8.437209 6.5 7.9452897 6.4979714 7.5 6.515625 L 7.5 5.5 C 7.5 4.09554 7.5690807 3.5933102 7.6679688 3.4453125 C 7.7409405 3.336105 7.836105 3.2409405 7.9453125 3.1679688 C 8.0933102 3.0690807 8.59554 3 10 3 z M 9.5 3.5 A 1 1 0 0 0 8.5 4.5 A 1 1 0 0 0 9.5 5.5 L 10.5 5.5 A 1 1 0 0 0 11.5 4.5 A 1 1 0 0 0 10.5 3.5 L 9.5 3.5 z M 19.052734 11 A 1 1 0 0 0 18.666016 11.056641 C 16.871107 11.692344 15.366429 13.304787 14.173828 14.734375 C 13.453352 15.59802 13.306318 15.871881 12.955078 16.382812 C 12.692844 16.084083 12.426358 15.582416 12.179688 15.417969 C 11.906849 15.236076 11.653398 15.129207 11.447266 15.070312 C 11.241133 15.011418 11 15 11 15 A 1 1 0 0 0 10 16 A 1 1 0 0 0 10.908203 16.996094 C 10.932119 17.004252 10.986429 17.026114 11.070312 17.082031 C 11.274636 17.218247 11.665097 17.566523 12.105469 18.447266 A 1.0001 1.0001 0 0 0 13.84375 18.537109 C 13.84375 18.537109 14.607461 17.336037 15.708984 16.015625 C 16.810508 14.695213 18.305393 13.307656 19.333984 12.943359 A 1 1 0 0 0 19.943359 11.666016 A 1 1 0 0 0 19.052734 11 z " fill="currentColor"/>
</svg>
