<svg xmlns="http://www.w3.org/2000/svg" width="1em" height="1em" viewBox="0 0 24 24" fill="currentColor">
  <path d="M 10.005859 1 C 8.5998698 1 7.6973681 0.93090134 6.8359375 1.5058594 C 6.5081272 1.7246495 6.2269201 2.006433 6.0078125 2.3339844 C 5.4319124 3.1949162 5.5019531 4.09554 5.5019531 5.5 L 5.5019531 6.9296875 C 5.2753519 7.0460948 5.064535 7.1934802 4.8789062 7.3789062 C 4.3958989 7.8613701 4.1706001 8.5138413 4.0820312 9.171875 C 3.9934624 9.8299087 4 10.557185 4 11.5 L 4 17 C 4 17.9293 3.9887751 18.439561 4.0957031 18.976562 C 4.4900814 20.956941 6.0461603 22.509947 8.0273438 22.904297 C 8.4582997 22.989987 8.879414 22.99756 9.5019531 23 A 1 1 0 0 0 10.505859 22.003906 A 1 1 0 0 0 9.5097656 21 C 8.9107648 20.997646 8.6075927 20.981065 8.4179688 20.943359 C 7.2229525 20.705939 6.2960585 19.778372 6.0585938 18.585938 C 6.0116415 18.350139 6 17.9293 6 17 L 6 11.5 C 6 10.557185 6.006412 9.8706769 6.0644531 9.4394531 C 6.1224942 9.0082294 6.1895362 8.8962848 6.2929688 8.7929688 C 6.3964009 8.6896495 6.5093452 8.6224785 6.9414062 8.5644531 C 7.3734673 8.5064277 8.0600563 8.5 9.0039062 8.5 L 11.005859 8.5 C 11.949709 8.5 12.638241 8.5064301 13.070312 8.5644531 C 13.502384 8.6224791 13.615348 8.6896741 13.71875 8.7929688 C 13.822203 8.8962946 13.88922 9.0082404 13.947266 9.4394531 C 14.005306 9.8706659 14.011719 10.557185 14.011719 11.5 A 1 1 0 0 0 15.011719 12.5 A 1 1 0 0 0 16.011719 11.5 C 16.011719 10.557185 16.018218 9.8299197 15.929688 9.171875 C 15.841109 8.5138304 15.613907 7.8613604 15.130859 7.3789062 C 14.945764 7.1940032 14.735625 7.045938 14.509766 6.9296875 L 14.509766 5.5 C 14.509766 4.09554 14.579916 3.1949208 14.003906 2.3339844 C 13.784801 2.006257 13.503729 1.7246713 13.175781 1.5058594 C 12.31438 0.93080693 11.411959 1 10.005859 1 z M 10.005859 3 C 11.411959 3 11.916055 3.070854 12.064453 3.1699219 C 12.173905 3.2429499 12.268902 3.3362799 12.341797 3.4453125 C 12.440791 3.5932761 12.509766 4.09554 12.509766 5.5 L 12.509766 6.515625 C 12.065582 6.4980836 11.574994 6.5 11.005859 6.5 L 9.0039062 6.5 C 8.4356068 6.5 7.9456214 6.4981676 7.5019531 6.515625 L 7.5019531 5.5 C 7.5019531 4.09554 7.5709421 3.5932807 7.6699219 3.4453125 C 7.7429743 3.3361039 7.8378159 3.2429718 7.9472656 3.1699219 C 8.095835 3.0707599 8.5998698 3 10.005859 3 z M 9.5 3.5 A 1 1 0 0 0 8.5 4.5 A 1 1 0 0 0 9.5 5.5 L 10.5 5.5 A 1 1 0 0 0 11.5 4.5 A 1 1 0 0 0 10.5 3.5 L 9.5 3.5 z M 15.011719 13.033203 C 12.269559 13.033203 10.023437 15.276623 10.023438 18.017578 C 10.023438 20.758533 12.269589 23 15.011719 23 C 17.753848 23 19.998047 20.758503 19.998047 18.017578 C 19.998047 15.276654 17.753879 13.033203 15.011719 13.033203 z M 15.011719 15.033203 C 16.674159 15.033203 17.998047 16.358703 17.998047 18.017578 C 17.998047 19.676454 16.674189 21 15.011719 21 C 13.349248 21 12.023438 19.676423 12.023438 18.017578 C 12.023438 16.358733 13.349279 15.033203 15.011719 15.033203 z M 16.408203 16.076172 A 1 1 0 0 0 15.904297 16.195312 C 15.173695 16.590159 14.73198 17.189923 14.371094 17.712891 C 14.171353 17.592992 13.935547 17.46875 13.935547 17.46875 A 1 1 0 0 0 12.685547 18.134766 A 1 1 0 0 0 13.263672 19.351562 L 13.265625 19.353516 C 13.268648 19.356616 13.274244 19.36172 13.28125 19.367188 C 13.34953 19.420478 13.506537 19.562136 13.71875 19.873047 A 1.0001 1.0001 0 0 0 15.451172 19.730469 C 15.451172 19.730469 15.611928 19.384407 15.892578 18.964844 C 16.173228 18.545281 16.587158 18.100084 16.855469 17.955078 A 1 1 0 0 0 17.259766 16.599609 A 1 1 0 0 0 16.666016 16.117188 A 1 1 0 0 0 16.408203 16.076172 z " fill="currentColor"/>
</svg>
