<svg xmlns="http://www.w3.org/2000/svg" width="1em" height="1em" viewBox="0 0 24 24" fill="currentColor">
  <path d="M 7.5 3.5 C 5.026562 3.5 3 5.526562 3 8 C 3 9.2675899 3.5328863 10.418043 4.3847656 11.238281 C 2.3843568 12.251339 1 14.209809 1 16.5 A 1 1 0 0 0 2 17.5 A 1 1 0 0 0 3 16.5 C 3 14.333088 4.9537438 12.5 7.5 12.5 C 7.5859745 12.5 7.6709291 12.497002 7.7558594 12.492188 C 7.9925418 13.159185 8.3840207 13.756136 8.8847656 14.238281 C 6.8843568 15.251339 5.5 17.209809 5.5 19.5 A 1 1 0 0 0 6.5 20.5 A 1 1 0 0 0 7.5 19.5 C 7.5 17.333088 9.4537438 15.5 12 15.5 C 14.546291 15.5 16.5 17.333081 16.5 19.5 A 1 1 0 0 0 17.5 20.5 A 1 1 0 0 0 18.5 19.5 C 18.5 17.20981 17.115648 15.251339 15.115234 14.238281 C 15.615979 13.756135 16.007459 13.159185 16.244141 12.492188 C 16.329071 12.497004 16.414026 12.5 16.5 12.5 C 19.046291 12.5 21 14.333081 21 16.5 A 1 1 0 0 0 22 17.5 A 1 1 0 0 0 23 16.5 C 23 14.20981 21.615648 12.251339 19.615234 11.238281 C 20.467112 10.418044 21 9.2675885 21 8 C 21 5.526562 18.973438 3.5 16.5 3.5 C 14.547826 3.5 12.872329 4.7575336 12.253906 6.5078125 C 12.169835 6.5030683 12.085197 6.5 12 6.5 C 11.914804 6.5 11.830165 6.5030683 11.746094 6.5078125 C 11.127673 4.7575376 9.4521857 3.5 7.5 3.5 z M 7.5 5.5 C 8.5606959 5.5 9.4552706 6.146692 9.8222656 7.0664062 C 8.5790803 7.7598764 7.6925479 9.0257948 7.5273438 10.5 C 7.5180707 10.500101 7.5093063 10.5 7.5 10.5 C 6.107438 10.5 5 9.392562 5 8 C 5 6.607438 6.107438 5.5 7.5 5.5 z M 16.5 5.5 C 17.892562 5.5 19 6.607438 19 8 C 19 9.392562 17.892562 10.5 16.5 10.5 C 16.490693 10.5 16.481929 10.500101 16.472656 10.5 C 16.307452 9.0257956 15.420919 7.7598767 14.177734 7.0664062 C 14.544735 6.1466945 15.439325 5.5 16.5 5.5 z M 12 8.5 C 12.238744 8.5 12.469661 8.532793 12.6875 8.59375 A 1 1 0 0 0 12.773438 8.6191406 C 13.78123 8.9408106 14.5 9.8779499 14.5 11 C 14.5 11.078614 14.497145 11.155774 14.490234 11.232422 A 1 1 0 0 0 14.486328 11.271484 C 14.353324 12.533839 13.300793 13.5 12 13.5 C 10.607438 13.5 9.5 12.392562 9.5 11 C 9.5 9.607438 10.607438 8.5 12 8.5 z " fill="currentColor"/>
</svg>
