<svg xmlns="http://www.w3.org/2000/svg" width="1em" height="1em" viewBox="0 0 24 24" fill="currentColor">
  <path d="M 9 1.5 C 5.6981382 1.5 3 4.1981382 3 7.5 C 3 9.4770805 3.967996 11.237494 5.453125 12.332031 C 2.8182014 13.643307 1 16.366191 1 19.5 A 1 1 0 0 0 2 20.5 A 1 1 0 0 0 3 19.5 C 3 16.17444 5.6744494 13.5 9 13.5 C 12.325562 13.5 15 16.174438 15 19.5 A 1 1 0 0 0 16 20.5 A 1 1 0 0 0 17 19.5 C 17 16.36619 15.181802 13.643306 12.546875 12.332031 C 14.032002 11.237495 15 9.4770807 15 7.5 C 15 4.1981334 12.301846 1.5 9 1.5 z M 9 3.5 C 11.220954 3.5 13 5.2790266 13 7.5 C 13 9.7209495 11.22095 11.5 9 11.5 C 6.7790266 11.5 5 9.7209543 5 7.5 C 5 5.2790218 6.7790218 3.5 9 3.5 z M 19 6.5 A 1 1 0 0 0 18 7.5 L 18 8.2714844 C 17.676513 8.3909683 17.401434 8.5409009 17.140625 8.7578125 L 16.503906 8.3867188 A 1 1 0 0 0 15.136719 8.7460938 A 1 1 0 0 0 15.496094 10.113281 L 16.138672 10.488281 C 16.105949 10.665641 16 10.814624 16 11 C 16 11.185092 16.10604 11.334555 16.138672 11.511719 L 15.496094 11.886719 A 1 1 0 0 0 15.136719 13.253906 A 1 1 0 0 0 16.503906 13.613281 L 17.140625 13.242188 C 17.401427 13.459097 17.676515 13.609026 18 13.728516 L 18 14.5 A 1 1 0 0 0 19 15.5 A 1 1 0 0 0 20 14.5 L 20 13.728516 C 20.323485 13.609026 20.598573 13.459097 20.859375 13.242188 L 21.496094 13.613281 A 1 1 0 0 0 22.863281 13.253906 A 1 1 0 0 0 22.503906 11.886719 L 21.861328 11.511719 C 21.893965 11.334563 22 11.185092 22 11 C 22 10.814908 21.89396 10.665445 21.861328 10.488281 L 22.503906 10.113281 A 1 1 0 0 0 22.863281 8.7460938 A 1 1 0 0 0 21.496094 8.3867188 L 20.859375 8.7578125 C 20.598567 8.5409017 20.323486 8.3909691 20 8.2714844 L 20 7.5 A 1 1 0 0 0 19 6.5 z M 19 10 C 19.375745 10 19.689805 10.20048 19.863281 10.496094 L 19.865234 10.496094 A 1 1 0 0 0 19.865234 10.498047 C 19.950947 10.645207 20 10.812804 20 11 C 20 11.187876 19.95171 11.356035 19.865234 11.503906 A 1 1 0 0 0 19.863281 11.503906 C 19.689847 11.799512 19.375709 12 19 12 C 18.624291 12 18.3102 11.799512 18.136719 11.503906 A 1 1 0 0 0 18.134766 11.503906 C 18.048481 11.35633 18 11.187876 18 11 C 18 10.812985 18.04891 10.6455 18.134766 10.498047 L 18.134766 10.496094 L 18.136719 10.496094 C 18.310148 10.200523 18.624245 10 19 10 z " fill="currentColor"/>
</svg>
