<svg xmlns="http://www.w3.org/2000/svg" width="1em" height="1em" viewBox="0 0 24 24" fill="currentColor">
  <path d="M 15 2 C 12.551197 2 10.497924 3.784264 10.078125 6.1171875 C 9.7305107 6.039972 9.3699513 6 9 6 C 6.2504204 6 4 8.2504204 4 11 C 4 12.5159 4.6832129 13.879836 5.7578125 14.798828 C 3.5270774 15.971745 2 18.313999 2 21 A 1 1 0 0 0 3 22 A 1 1 0 0 0 4 21 C 4 18.226741 6.2267316 16 9 16 C 11.773257 16 14 18.226743 14 21 A 1 1 0 0 0 15 22 A 1 1 0 0 0 16 21 C 16 18.313996 14.472923 15.971744 12.242188 14.798828 C 13.103355 14.062363 13.713399 13.040061 13.921875 11.882812 C 14.228356 11.950261 14.545815 11.983728 14.869141 11.992188 A 1 1 0 0 0 15 12 C 17.773257 12 20 14.226743 20 17 A 1 1 0 0 0 21 18 A 1 1 0 0 0 22 17 C 22 14.313998 20.472921 11.971745 18.242188 10.798828 C 19.316782 9.8798432 20 8.5159157 20 7 C 20 4.2504084 17.749549 2 15 2 z M 15 4 C 16.668651 4 18 5.3313116 18 7 C 18 8.6686884 16.668651 10 15 10 C 14.587775 10 14.199736 9.9178049 13.845703 9.7695312 C 13.560358 8.6525862 12.89639 7.6840171 12 7.0078125 C 11.999995 7.005489 12 7.0023249 12 7 C 12 5.3313116 13.331349 4 15 4 z M 9 8 C 9.5304666 8 10.026677 8.1339381 10.457031 8.3710938 A 1 1 0 0 0 10.609375 8.4609375 C 11.448502 8.9901963 12 9.9251284 12 11 C 12 12.668639 10.668639 14 9 14 C 7.3313116 14 6 12.668651 6 11 C 6 9.3312996 7.3312996 8 9 8 z " fill="currentColor"/>
</svg>
