<svg xmlns="http://www.w3.org/2000/svg" width="1em" height="1em" viewBox="0 0 24 24" fill="currentColor">
  <path d="M 12 1 C 5.9367104 1 1 5.9367104 1 12 C 1 15.552084 2.6938586 18.71773 5.3164062 20.730469 A 1 1 0 0 0 5.4882812 20.859375 C 7.3129565 22.204601 9.5653831 23 12 23 C 14.434567 23 16.687054 22.204568 18.511719 20.859375 A 1 1 0 0 0 18.683594 20.730469 C 21.30609 18.717728 23 15.552043 23 12 C 23 11.248034 22.92356 10.511856 22.779297 9.8007812 A 1 1 0 0 0 21.601562 9.0195312 A 1 1 0 0 0 20.820312 10.199219 C 20.938251 10.780544 21 11.382166 21 12 C 21 14.311785 20.135895 16.416382 18.710938 18.007812 C 18.153857 16.140816 16.833626 14.595874 15.117188 13.736328 C 15.967735 12.916234 16.5 11.766457 16.5 10.5 C 16.5 8.026562 14.473438 6 12 6 C 9.526562 6 7.5 8.026562 7.5 10.5 C 7.5 11.766457 8.032266 12.916234 8.8828125 13.736328 C 7.166367 14.595877 5.8461394 16.140809 5.2890625 18.007812 C 3.8641038 16.416381 3 14.311795 3 12 C 3 7.0175896 7.0175896 3 12 3 C 12.617873 3 13.219571 3.061701 13.800781 3.1796875 A 1 1 0 0 0 14.980469 2.3984375 A 1 1 0 0 0 14.199219 1.2207031 C 13.488029 1.0763301 12.751927 1 12 1 z M 19.5 1 C 17.578854 1 16 2.5788434 16 4.5 C 16 6.4211566 17.578854 8 19.5 8 C 21.421146 8 23 6.4211566 23 4.5 C 23 2.5788434 21.421146 1 19.5 1 z M 19.5 3 C 20.340254 3 21 3.6597366 21 4.5 C 21 5.3402634 20.340254 6 19.5 6 C 18.659746 6 18 5.3402634 18 4.5 C 18 3.6597366 18.659746 3 19.5 3 z M 12 8 C 13.392562 8 14.5 9.107438 14.5 10.5 C 14.5 11.892562 13.392562 13 12 13 C 10.607438 13 9.5 11.892562 9.5 10.5 C 9.5 9.107438 10.607438 8 12 8 z M 12 15 C 14.606755 15 16.730929 16.966481 16.976562 19.505859 C 15.552523 20.449919 13.842055 21 12 21 C 10.157935 21 8.4474716 20.449909 7.0234375 19.505859 C 7.2690625 16.966471 9.3932283 15 12 15 z " fill="currentColor"/>
</svg>
