<svg xmlns="http://www.w3.org/2000/svg" width="1em" height="1em" viewBox="0 0 24 24" fill="currentColor">
  <path d="M 9.5019531 2 C 6.2000914 2 3.5019531 4.6981382 3.5019531 8 C 3.5019531 9.9771064 4.4699572 11.737504 5.9550781 12.832031 C 3.3201583 14.143308 1.5019531 16.866193 1.5019531 20 A 1 1 0 0 0 2.5019531 21 A 1 1 0 0 0 3.5019531 20 C 3.5019531 16.67444 6.1764025 14 9.5019531 14 C 10.781303 14 11.957334 14.395999 12.929688 15.074219 A 1 1 0 0 0 14.322266 14.826172 A 1 1 0 0 0 14.074219 13.433594 C 13.750904 13.20808 13.40902 13.006621 13.052734 12.830078 C 14.535581 11.735339 15.501953 9.9753262 15.501953 8 C 15.501953 4.6981334 12.803839 2 9.5019531 2 z M 9.5019531 4 C 11.722967 4 13.501953 5.7790266 13.501953 8 C 13.501953 10.221033 11.722987 12 9.5019531 12 C 7.2809556 12 5.5019531 10.221038 5.5019531 8 C 5.5019531 5.7790218 7.2809749 4 9.5019531 4 z M 17.990234 11.5 C 16.481965 11.5 15.238281 12.743796 15.238281 14.251953 L 15.238281 15.337891 C 14.275605 15.783736 13.501953 16.571777 13.501953 17.693359 L 13.501953 19.197266 C 13.501953 20.733661 14.770381 22 16.306641 22 L 19.693359 22 C 21.229665 22 22.498047 20.733661 22.498047 19.197266 L 22.498047 17.693359 C 22.498047 16.564238 21.71523 15.771714 20.742188 15.330078 L 20.742188 14.251953 C 20.742188 12.743796 19.498504 11.5 17.990234 11.5 z M 17.990234 13.5 C 18.417565 13.5 18.742188 13.82471 18.742188 14.251953 L 18.742188 14.892578 L 17.238281 14.892578 L 17.238281 14.251953 C 17.238281 13.82471 17.562904 13.5 17.990234 13.5 z M 16.306641 16.892578 L 19.693359 16.892578 C 20.150854 16.892578 20.498047 17.2398 20.498047 17.693359 L 20.498047 19.197266 C 20.498047 19.650671 20.150854 20 19.693359 20 L 16.306641 20 C 15.8493 20 15.501953 19.650671 15.501953 19.197266 L 15.501953 17.693359 C 15.501953 17.2398 15.8493 16.892578 16.306641 16.892578 z " fill="currentColor"/>
</svg>
