<svg xmlns="http://www.w3.org/2000/svg" width="1em" height="1em" viewBox="0 0 24 24" fill="currentColor">
  <path d="M 10 1 C 6.6981382 1 4 3.6981382 4 7 C 4 8.9770881 4.9679983 10.737497 6.453125 11.832031 C 3.8182028 13.143307 2 15.866192 2 19 A 1 1 0 0 0 3 20 A 1 1 0 0 0 4 19 C 4 15.67444 6.6744494 13 10 13 C 10.923513 13 11.791453 13.206229 12.570312 13.576172 A 1 1 0 0 0 13.902344 13.103516 A 1 1 0 0 0 13.544922 11.833984 C 15.03145 10.739584 16 8.9781895 16 7 C 16 3.6981334 13.301846 1 10 1 z M 10 3 C 12.220954 3 14 4.7790266 14 7 C 14 9.2209734 12.220954 11 10 11 C 7.7790218 11 6 9.2209782 6 7 C 6 4.7790218 7.7790218 3 10 3 z M 18 12 A 1 1 0 0 0 17 13 L 17 13.5 L 16.5 13.5 C 15.13112 13.5 14 14.63112 14 16 C 14 17.36888 15.13112 18.5 16.5 18.5 L 17 18.5 L 17 19.5 L 15 19.5 A 1 1 0 0 0 14 20.5 A 1 1 0 0 0 15 21.5 L 17 21.5 L 17 22 A 1 1 0 0 0 18 23 A 1 1 0 0 0 19 22 L 19 21.5 L 19.5 21.5 C 20.86888 21.5 22 20.36888 22 19 C 22 17.63112 20.86888 16.5 19.5 16.5 L 19 16.5 L 19 15.5 L 21 15.5 A 1 1 0 0 0 22 14.5 A 1 1 0 0 0 21 13.5 L 19 13.5 L 19 13 A 1 1 0 0 0 18 12 z M 16.5 15.5 L 17 15.5 L 17 16.5 L 16.5 16.5 C 16.21208 16.5 16 16.28792 16 16 C 16 15.71208 16.21208 15.5 16.5 15.5 z M 19 18.5 L 19.5 18.5 C 19.78792 18.5 20 18.71208 20 19 C 20 19.28792 19.78792 19.5 19.5 19.5 L 19 19.5 L 19 18.5 z " fill="currentColor"/>
</svg>
