<svg xmlns="http://www.w3.org/2000/svg" width="1em" height="1em" viewBox="0 0 24 24" fill="currentColor">
  <path d="M 10 2.5 C 6.6981382 2.5 4 5.1981382 4 8.5 C 4 10.477081 4.967996 12.237494 6.453125 13.332031 C 3.8182014 14.643307 2 17.366191 2 20.5 A 1 1 0 0 0 3 21.5 A 1 1 0 0 0 4 20.5 C 4 17.17444 6.6744494 14.5 10 14.5 C 11.279293 14.5 12.455532 14.896044 13.427734 15.574219 A 1 1 0 0 0 14.820312 15.326172 A 1 1 0 0 0 14.572266 13.933594 C 14.24896 13.708067 13.907072 13.506625 13.550781 13.330078 C 15.033622 12.235327 16 10.475287 16 8.5 C 16 5.1981334 13.301846 2.5 10 2.5 z M 10 4.5 C 12.220954 4.5 14 6.2790266 14 8.5 C 14 10.72095 12.22095 12.5 10 12.5 C 7.7790266 12.5 6 10.720954 6 8.5 C 6 6.2790218 7.7790218 4.5 10 4.5 z M 14 18 A 1 1 0 0 0 13 19 A 1 1 0 0 0 14 20 L 21 20 A 1 1 0 0 0 22 19 A 1 1 0 0 0 21 18 L 14 18 z " fill="currentColor"/>
</svg>
