<svg xmlns="http://www.w3.org/2000/svg" width="1em" height="1em" viewBox="0 0 24 24" fill="currentColor">
  <path d="M 9.5 2 C 6.1981382 2 3.5 4.6981382 3.5 8 C 3.5 9.9770805 4.467996 11.737494 5.953125 12.832031 C 3.3182014 14.143307 1.5 16.866191 1.5 20 A 1 1 0 0 0 2.5 21 A 1 1 0 0 0 3.5 20 C 3.5 16.67444 6.1744494 14 9.5 14 C 10.423513 14 11.291453 14.206229 12.070312 14.576172 A 1 1 0 0 0 13.402344 14.103516 A 1 1 0 0 0 13.044922 12.833984 C 14.531453 11.739581 15.5 9.9781813 15.5 8 C 15.5 4.6981334 12.801846 2 9.5 2 z M 9.5 4 C 11.720954 4 13.5 5.7790266 13.5 8 C 13.5 10.22095 11.72095 12 9.5 12 C 7.2790266 12 5.5 10.220954 5.5 8 C 5.5 5.7790218 7.2790218 4 9.5 4 z M 18 13 C 15.526562 13 13.5 15.026562 13.5 17.5 C 13.5 19.973438 15.526562 22 18 22 C 20.473438 22 22.5 19.973438 22.5 17.5 C 22.5 15.026562 20.473438 13 18 13 z M 18 15 C 19.392562 15 20.5 16.107438 20.5 17.5 C 20.5 17.802456 20.279651 18.002401 20.183594 18.269531 L 17.230469 15.316406 C 17.497599 15.220349 17.697544 15 18 15 z M 15.816406 16.730469 L 18.769531 19.683594 C 18.502401 19.779651 18.302456 20 18 20 C 16.607438 20 15.5 18.892562 15.5 17.5 C 15.5 17.197544 15.720349 16.997599 15.816406 16.730469 z " fill="currentColor"/>
</svg>
