<svg xmlns="http://www.w3.org/2000/svg" width="1em" height="1em" viewBox="0 0 24 24" fill="currentColor">
  <path d="M 12 3 C 9.5265633 3 7.5 5.0265633 7.5 7.5 C 7.5 9.9734367 9.5265633 12 12 12 C 14.473437 12 16.5 9.9734367 16.5 7.5 C 16.5 5.0265633 14.473437 3 12 3 z M 12 5 C 13.392557 5 14.5 6.1074435 14.5 7.5 C 14.5 8.8925565 13.392557 10 12 10 C 10.607443 10 9.5 8.8925565 9.5 7.5 C 9.5 6.1074435 10.607443 5 12 5 z M 12 13 C 10.084822 13 8.2954198 13.391118 6.7753906 14.083984 C 5.2170031 14.794379 4.5 16.428277 4.5 17.970703 L 4.5 20 A 1 1 0 0 0 5.5 21 A 1 1 0 0 0 6.5 20 L 6.5 17.970703 C 6.5 17.028529 6.9010832 16.224502 7.6035156 15.904297 C 8.8411264 15.340163 10.359378 15 12 15 C 13.640622 15 15.158899 15.340167 16.396484 15.904297 C 17.098912 16.224503 17.5 17.028545 17.5 17.970703 L 17.5 20 A 1 1 0 0 0 18.5 21 A 1 1 0 0 0 19.5 20 L 19.5 17.970703 C 19.5 16.428261 18.782982 14.794378 17.224609 14.083984 C 15.704595 13.391115 13.915178 13 12 13 z " fill="currentColor"/>
</svg>
