<svg xmlns="http://www.w3.org/2000/svg" width="1em" height="1em" viewBox="0 0 24 24" fill="currentColor">
  <path d="M 8 3 C 5.8027068 3 4 4.8027068 4 7 C 4 8.6220413 4.9733828 10.032622 6.375 10.65625 A 1 1 0 0 0 7.6953125 10.148438 A 1 1 0 0 0 7.1875 8.828125 C 6.4896172 8.5176129 6 7.8241387 6 7 C 6 5.8835932 6.8835932 5 8 5 A 1 1 0 0 0 9 4 A 1 1 0 0 0 8 3 z M 16 3 A 1 1 0 0 0 15 4 A 1 1 0 0 0 16 5 C 17.116473 5 18 5.8835731 18 7 C 18 7.8241551 17.510427 8.5176079 16.8125 8.828125 A 1 1 0 0 0 16.304688 10.148438 A 1 1 0 0 0 17.625 10.65625 C 19.026673 10.032627 20 8.6220249 20 7 C 20 4.8027269 18.197327 3 16 3 z M 12 4 C 9.8026731 4 8 5.8027269 8 8 C 8 10.197273 9.8026731 12 12 12 C 14.197327 12 16 10.197273 16 8 C 16 5.8027269 14.197327 4 12 4 z M 12 6 C 13.116473 6 14 6.8835731 14 8 C 14 9.1164269 13.116473 10 12 10 C 10.883527 10 10 9.1164269 10 8 C 10 6.8835731 10.883527 6 12 6 z M 6.2851562 12 C 3.3777793 12 1 14.377808 1 17.285156 C 1 18.77238 2.2276355 20 3.7148438 20 A 1 1 0 0 0 4.7148438 19 A 1 1 0 0 0 3.7148438 18 C 3.308492 18 3 17.691532 3 17.285156 C 3 15.458704 4.4586732 14 6.2851562 14 A 1 1 0 0 0 7.2851562 13 A 1 1 0 0 0 6.2851562 12 z M 17.714844 12 A 1 1 0 0 0 16.714844 13 A 1 1 0 0 0 17.714844 14 C 19.54129 14 21 15.45871 21 17.285156 C 21 17.691539 20.691539 18 20.285156 18 A 1 1 0 0 0 19.285156 19 A 1 1 0 0 0 20.285156 20 C 21.772373 20 23 18.772373 23 17.285156 C 23 14.377802 20.622198 12 17.714844 12 z M 10.285156 13 C 7.3777719 13 5 15.377808 5 18.285156 C 5 19.77238 6.2276398 21 7.7148438 21 L 16.285156 21 C 17.772373 21 19 19.772373 19 18.285156 C 19 15.377802 16.622198 13 13.714844 13 L 10.285156 13 z M 10.285156 15 L 13.714844 15 C 15.54129 15 17 16.45871 17 18.285156 C 17 18.691539 16.691539 19 16.285156 19 L 7.7148438 19 C 7.3085077 19 7 18.691532 7 18.285156 C 7 16.458704 8.4586611 15 10.285156 15 z " fill="currentColor"/>
</svg>
