<svg xmlns="http://www.w3.org/2000/svg" width="1em" height="1em" viewBox="0 0 24 24" fill="currentColor">
  <path d="M 12 2 C 11.053061 2 10.456101 2.6876252 10.125 3.2167969 C 9.7938987 3.7459685 9.5885763 4.2882938 9.4785156 4.5019531 C 9.2584492 4.9290747 9.1316032 5.0323769 9.1210938 5.0429688 C 9.104721 5.0439594 8.9436444 5.0642101 8.4804688 4.9160156 C 8.2265472 4.8347706 7.6553499 4.574006 6.9941406 4.4433594 C 6.663536 4.3780361 6.2910635 4.3390881 5.875 4.4277344 C 5.4589365 4.5163806 4.9987022 4.780995 4.7089844 5.1894531 C 4.1952987 5.9136678 4.3435254 6.6724742 4.4882812 7.2285156 C 4.6330373 7.784557 4.850612 8.2760619 4.9160156 8.4804688 C 5.062272 8.937586 5.0450401 9.1017448 5.0449219 9.1171875 L 5.0449219 9.1191406 C 5.0327634 9.1327384 4.9309973 9.2574696 4.5019531 9.4785156 C 4.2883192 9.5885703 3.7459395 9.7958781 3.2167969 10.126953 C 2.6876542 10.458028 2.0001076 11.053098 2 12 C 1.9998817 12.946986 2.6876229 13.541934 3.2167969 13.873047 C 3.7459709 14.20416 4.2883401 14.411418 4.5019531 14.521484 C 4.9345733 14.744373 5.0341358 14.871006 5.0449219 14.882812 C 5.0450379 14.898262 5.0622645 15.062436 4.9160156 15.519531 C 4.8426766 15.748719 4.6028576 16.27774 4.4628906 16.886719 C 4.3229236 17.495698 4.260031 18.405586 4.9316406 19.074219 C 5.6021624 19.741866 6.5076173 19.675318 7.1152344 19.535156 C 7.7228514 19.394995 8.2519054 19.157126 8.4804688 19.083984 C 8.9436508 18.935796 9.104723 18.956042 9.1210938 18.957031 L 9.1230469 18.957031 C 9.1353904 18.969067 9.2602728 19.074453 9.4785156 19.498047 C 9.5885763 19.711706 9.7938987 20.254031 10.125 20.783203 C 10.456101 21.312375 11.053061 22 12 22 C 12.946947 22 13.541968 21.312365 13.873047 20.783203 C 14.204126 20.254041 14.411424 19.711706 14.521484 19.498047 C 14.739756 19.074434 14.864612 18.969061 14.876953 18.957031 L 14.878906 18.957031 L 14.880859 18.957031 C 14.900283 18.955631 15.061555 18.937457 15.519531 19.083984 C 15.748093 19.157124 16.27716 19.394994 16.884766 19.535156 C 17.492371 19.675319 18.397868 19.741911 19.068359 19.074219 C 19.73999 18.405597 19.675124 17.495701 19.535156 16.886719 C 19.395189 16.277736 19.157315 15.748701 19.083984 15.519531 C 18.939456 15.067827 18.954571 14.903514 18.955078 14.884766 L 18.955078 14.882812 L 18.955078 14.880859 C 18.967248 14.867235 19.069051 14.742506 19.498047 14.521484 C 19.711625 14.411431 20.254028 14.204156 20.783203 13.873047 C 21.312378 13.541937 22.000108 12.946996 22 12 C 21.999892 11.053072 21.31235 10.458023 20.783203 10.126953 C 20.254057 9.7958838 19.711609 9.5885438 19.498047 9.4785156 C 19.069039 9.2574882 18.967254 9.1327644 18.955078 9.1191406 L 18.955078 9.1171875 L 18.955078 9.1152344 C 18.954582 9.0965045 18.939442 8.9322118 19.083984 8.4804688 C 19.149374 8.2760866 19.365005 7.7845581 19.509766 7.2285156 C 19.654526 6.6724732 19.804725 5.9136686 19.291016 5.1894531 C 19.001301 4.7809854 18.541064 4.5163808 18.125 4.4277344 C 17.708936 4.3390879 17.336464 4.3780358 17.005859 4.4433594 C 16.34465 4.5740066 15.773429 4.834769 15.519531 4.9160156 C 15.056319 5.0642218 14.895266 5.0439601 14.878906 5.0429688 C 14.86841 5.0323882 14.741592 4.9291155 14.521484 4.5019531 C 14.411424 4.2882938 14.204126 3.7459587 13.873047 3.2167969 C 13.541968 2.6876351 12.946947 2 12 2 z M 12 4.0332031 C 12.031361 4.0678764 12.090628 4.1381131 12.177734 4.2773438 C 12.36258 4.572782 12.532048 5.0100282 12.742188 5.4179688 C 13.05857 6.0319728 13.427312 6.6001828 14.099609 6.8847656 C 14.771907 7.1693484 15.4483 7.0380744 16.128906 6.8203125 C 16.590108 6.6727291 17.052412 6.4734628 17.392578 6.40625 C 17.514188 6.3822214 17.583859 6.3820294 17.630859 6.3847656 C 17.625916 6.4148491 17.628114 6.5176745 17.574219 6.7246094 C 17.485829 7.0641219 17.309795 7.4644459 17.179688 7.8710938 C 16.969192 8.5289721 16.827388 9.1905701 17.101562 9.8671875 C 17.375743 10.543805 17.946796 10.930535 18.582031 11.257812 C 18.989969 11.467984 19.427203 11.63741 19.722656 11.822266 C 19.861885 11.909374 19.93212 11.968642 19.966797 12 C 19.932125 12.031356 19.861888 12.090632 19.722656 12.177734 C 19.427206 12.3626 18.990053 12.533894 18.582031 12.744141 C 17.9468 13.071415 17.375746 13.456195 17.101562 14.132812 C 16.827379 14.809428 16.969187 15.47103 17.179688 16.128906 C 17.319658 16.566336 17.50788 16.99632 17.585938 17.335938 C 17.622559 17.495269 17.630385 17.586369 17.632812 17.632812 C 17.585968 17.630579 17.494208 17.622885 17.333984 17.585938 C 16.99439 17.507597 16.565644 17.319446 16.128906 17.179688 C 15.448298 16.961937 14.771902 16.830633 14.099609 17.115234 C 13.427316 17.399833 13.058568 17.968013 12.742188 18.582031 C 12.532047 18.989972 12.36258 19.427218 12.177734 19.722656 C 12.090622 19.861884 12.03136 19.932124 12 19.966797 C 11.968655 19.932124 11.909377 19.861889 11.822266 19.722656 C 11.637417 19.427228 11.465999 18.989972 11.255859 18.582031 C 10.939504 17.968007 10.572686 17.39984 9.9003906 17.115234 C 9.2280951 16.830629 8.5517016 16.961939 7.8710938 17.179688 C 7.4343571 17.319447 7.0056211 17.5076 6.6660156 17.585938 C 6.5045536 17.623183 6.4136961 17.630633 6.3671875 17.632812 C 6.3691535 17.586392 6.3754681 17.495358 6.4121094 17.335938 C 6.4901674 16.996317 6.680342 16.566318 6.8203125 16.128906 C 7.0307968 15.471047 7.1725919 14.809438 6.8984375 14.132812 C 6.6242835 13.456191 6.0532075 13.071419 5.4179688 12.744141 C 5.0099518 12.533907 4.5727848 12.362597 4.2773438 12.177734 C 4.1381095 12.090613 4.0678745 12.031349 4.0332031 12 C 4.0678784 11.968645 4.1381168 11.90937 4.2773438 11.822266 C 4.5727811 11.637416 5.0100428 11.467958 5.4179688 11.257812 C 6.0532118 10.930532 6.6242867 10.543815 6.8984375 9.8671875 C 7.1725883 9.1905602 7.0307973 8.5289542 6.8203125 7.8710938 C 6.6902061 7.4644705 6.5122147 7.064123 6.4238281 6.7246094 C 6.3699338 6.5175884 6.372147 6.4148019 6.3671875 6.3847656 C 6.4138215 6.3819733 6.4832369 6.3820961 6.6054688 6.40625 C 6.9456394 6.473463 7.4098353 6.6727276 7.8710938 6.8203125 C 8.5516998 7.0380745 9.2280906 7.169355 9.9003906 6.8847656 C 10.572691 6.6001768 10.939502 6.0319789 11.255859 5.4179688 C 11.465999 5.0100282 11.637417 4.5727721 11.822266 4.2773438 C 11.909382 4.1381125 11.968656 4.0678762 12 4.0332031 z " fill="currentColor"/>
</svg>
