<svg xmlns="http://www.w3.org/2000/svg" width="1em" height="1em" viewBox="0 0 24 24" fill="currentColor">
  <path d="M 8 1 C 6.585785 1 5.5044454 0.99407482 4.5742188 1.1191406 C 3.6439921 1.2442065 2.800893 1.542857 2.171875 2.171875 C 1.542857 2.800893 1.2442065 3.6439921 1.1191406 4.5742188 C 0.99407482 5.5044454 1 6.585785 1 8 L 1 16 C 1 17.4142 0.99407502 18.495558 1.1191406 19.425781 C 1.2442065 20.356004 1.5428648 21.199101 2.171875 21.828125 C 2.8008908 22.457155 3.6439898 22.75579 4.5742188 22.880859 C 5.5044479 23.005928 6.585785 23 8 23 A 1 1 0 0 0 9 22 A 1 1 0 0 0 8 21 C 6.585785 21 5.5454503 20.993043 4.8417969 20.898438 C 4.1381434 20.803832 3.8356017 20.663732 3.5859375 20.414062 C 3.3362677 20.164388 3.1961666 19.861855 3.1015625 19.158203 C 3.0069584 18.454551 3 17.4142 3 16 L 3 8 C 3 6.585785 3.0069583 5.5454528 3.1015625 4.8417969 C 3.1961667 4.138141 3.3362755 3.8355995 3.5859375 3.5859375 C 3.8355995 3.3362755 4.138141 3.1961667 4.8417969 3.1015625 C 5.5454528 3.0069583 6.585785 3 8 3 L 11 3 C 12.4142 3 13.454551 3.00696 14.158203 3.1015625 C 14.861855 3.1961665 15.164387 3.3362677 15.414062 3.5859375 C 15.663732 3.8356017 15.803832 4.1381434 15.898438 4.8417969 C 15.993042 5.5454503 16 6.585785 16 8 L 16 9 A 1 1 0 0 0 17 10 A 1 1 0 0 0 18 9 L 18 8 C 18 6.585785 18.005928 5.5044478 17.880859 4.5742188 C 17.75579 3.6439897 17.457155 2.8008908 16.828125 2.171875 C 16.199101 1.5428648 15.356004 1.2442065 14.425781 1.1191406 C 13.495558 0.99407476 12.4142 1 11 1 L 8 1 z M 12.03125 5 A 1 1 0 0 0 11.646484 5.0644531 C 10.364671 5.5486979 9.4358983 6.6628566 8.6757812 7.6347656 C 8.3947806 7.9940615 8.4031899 8.0255342 8.2011719 8.3203125 C 8.1222199 8.2486301 8.0494779 8.0735956 7.9707031 8.0175781 C 7.7679841 7.8734227 7.5684152 7.7822713 7.3984375 7.7304688 C 7.2284598 7.6786663 7 7.6660156 7 7.6660156 A 1 1 0 0 0 6 8.6660156 A 1 1 0 0 0 6.8105469 9.6484375 C 6.8738589 9.6934595 7.0856212 9.8731549 7.34375 10.423828 A 1.0001 1.0001 0 0 0 9.109375 10.511719 C 9.109375 10.511719 9.5762922 9.7266578 10.25 8.8652344 C 10.923708 8.0038109 11.870629 7.1179721 12.353516 6.9355469 A 1 1 0 0 0 12.935547 5.6464844 A 1 1 0 0 0 12.03125 5 z M 16.5 11 C 14.57885 11 13 12.57885 13 14.5 C 13 14.723818 13.02186 14.944767 13.0625 15.158203 C 13.245434 16.119327 13.639531 16.79748 13.742188 17.310547 L 13.835938 17.775391 L 12.287109 18.189453 C 10.956709 18.485098 10 19.678101 10 21.041016 C 10 22.111643 10.888357 23 11.958984 23 L 12.5 23 L 20.496094 23 L 21.041016 23 C 22.111643 23 23 22.111643 23 21.041016 C 23 19.678101 22.043291 18.485098 20.712891 18.189453 L 19.164062 17.775391 L 19.257812 17.310547 C 19.360468 16.79748 19.756519 16.119327 19.939453 15.158203 C 19.980173 14.944352 20 14.723404 20 14.5 C 20 12.57885 18.42115 11 16.5 11 z M 6 13 A 1 1 0 0 0 5 14 A 1 1 0 0 0 6 15 L 10 15 A 1 1 0 0 0 11 14 A 1 1 0 0 0 10 13 L 6 13 z M 16.5 13 C 17.34025 13 18 13.65975 18 14.5 C 18 14.5982 17.991899 14.692454 17.974609 14.783203 C 17.877939 15.291079 17.48762 15.964636 17.296875 16.917969 L 17.179688 17.5 L 15.820312 17.5 L 15.703125 16.917969 C 15.51238 15.964636 15.12401 15.291079 15.027344 14.783203 C 15.009985 14.692039 15 14.597782 15 14.5 C 15 13.65975 15.65975 13 16.5 13 z M 6 16 A 1 1 0 0 0 5 17 A 1 1 0 0 0 6 18 L 10 18 A 1 1 0 0 0 11 17 A 1 1 0 0 0 10 16 L 6 16 z M 15.132812 19.5 L 17.867188 19.5 L 20.238281 20.132812 A 1.0001 1.0001 0 0 0 20.279297 20.142578 C 20.686161 20.232988 20.941421 20.589699 20.966797 21 L 20.496094 21 L 12.5 21 L 12.033203 21 C 12.058583 20.589699 12.313839 20.232992 12.720703 20.142578 A 1.0001 1.0001 0 0 0 12.761719 20.132812 L 15.132812 19.5 z " fill="currentColor"/>
</svg>
