<svg xmlns="http://www.w3.org/2000/svg" width="1em" height="1em" viewBox="0 0 24 24" fill="currentColor">
  <path d="M 2.9296875 3.0019531 A 1 1 0 0 0 2.5527344 3.1054688 A 1 1 0 0 0 2.1054688 4.4472656 L 6.1054688 12.447266 A 1.0001 1.0001 0 0 0 7.8945312 12.447266 L 11.894531 4.4472656 A 1 1 0 0 0 11.447266 3.1054688 A 1 1 0 0 0 10.683594 3.0507812 A 1 1 0 0 0 10.105469 3.5527344 L 7 9.7636719 L 3.8945312 3.5527344 A 1 1 0 0 0 2.9296875 3.0019531 z M 16.035156 3.0019531 A 1 1 0 0 0 15.152344 3.4707031 L 5.1523438 19.470703 A 1 1 0 0 0 5.4707031 20.847656 A 1 1 0 0 0 6.8476562 20.529297 L 16.847656 4.5292969 A 1 1 0 0 0 16.529297 3.1523438 A 1 1 0 0 0 16.035156 3.0019531 z M 15 11 C 13.907293 11 13 11.907293 13 13 L 13 15 C 13 16.092707 13.907293 17 15 17 L 18 17 L 18 19 L 15 19 L 15 18.5 A 1 1 0 0 0 14 17.5 A 1 1 0 0 0 13 18.5 L 13 19 C 13 20.092707 13.907293 21 15 21 L 18 21 C 19.092707 21 20 20.092707 20 19 L 20 17 C 20 15.907293 19.092707 15 18 15 L 15 15 L 15 13 L 18 13 L 18 13.5 A 1 1 0 0 0 19 14.5 A 1 1 0 0 0 20 13.5 L 20 13 C 20 11.907293 19.092707 11 18 11 L 15 11 z " fill="currentColor"/>
</svg>
