<svg xmlns="http://www.w3.org/2000/svg" width="1em" height="1em" viewBox="0 0 24 24" fill="currentColor">
  <path d="M 12 2 C 11.104 2.0000085 10.749699 2.4490064 10.267578 2.875 C 9.785457 3.3009936 9.3001509 3.8248469 8.8496094 4.34375 C 7.9485263 5.3815562 7.1953125 6.40625 7.1953125 6.40625 A 1 1 0 0 0 7.40625 7.8046875 A 1 1 0 0 0 8.8046875 7.59375 C 8.8046875 7.59375 9.5239581 6.6184263 10.359375 5.65625 C 10.777083 5.1751618 11.225106 4.6990017 11.591797 4.375 C 11.738401 4.2454636 11.892002 4.1599652 12 4.1035156 C 12.107989 4.1599644 12.261596 4.2454622 12.408203 4.375 C 12.774893 4.6989985 13.222925 5.1751593 13.640625 5.65625 C 14.476026 6.6184313 15.195312 7.59375 15.195312 7.59375 A 1 1 0 0 0 16.59375 7.8046875 A 1 1 0 0 0 16.804688 6.40625 C 16.804688 6.40625 16.051465 5.3815712 15.150391 4.34375 C 14.699854 3.8248394 14.214554 3.3010006 13.732422 2.875 C 13.25029 2.4489994 12.895982 1.9999915 12 2 z M 12 9 C 10.354993 9 9 10.354993 9 12 C 9 13.644956 10.354933 15 12 15 C 13.645067 15 15 13.644956 15 12 C 15 10.354993 13.645007 9 12 9 z M 12 11 C 12.564193 11 13 11.435807 13 12 C 13 12.564044 12.564133 13 12 13 C 11.435867 13 11 12.564044 11 12 C 11 11.435807 11.435807 11 12 11 z M 8.0195312 16 A 1 1 0 0 0 7.40625 16.195312 A 1 1 0 0 0 7.1953125 17.59375 C 7.1953125 17.59375 7.9485355 18.61843 8.8496094 19.65625 C 9.3001463 20.17516 9.7854467 20.698999 10.267578 21.125 C 10.74971 21.551001 11.104024 22 12 22 C 12.896011 22 13.2503 21.550997 13.732422 21.125 C 14.214544 20.699003 14.699849 20.175158 15.150391 19.65625 C 16.051474 18.618435 16.804688 17.59375 16.804688 17.59375 A 1 1 0 0 0 16.59375 16.195312 A 1 1 0 0 0 15.195312 16.40625 C 15.195312 16.40625 14.476042 17.381565 13.640625 18.34375 C 13.222917 18.824842 12.774894 19.300997 12.408203 19.625 C 12.261599 19.754537 12.107999 19.840035 12 19.896484 C 11.892012 19.840035 11.738403 19.754537 11.591797 19.625 C 11.225106 19.301001 10.777076 18.82484 10.359375 18.34375 C 9.5239739 17.38157 8.8046875 16.40625 8.8046875 16.40625 A 1 1 0 0 0 8.0195312 16 z " fill="currentColor"/>
</svg>
