<svg xmlns="http://www.w3.org/2000/svg" width="1em" height="1em" viewBox="0 0 24 24" fill="currentColor">
  <path d="M 12 1.5 C 8.9166667 1.5 6.4301406 1.8533198 4.6289062 3.2792969 C 2.827672 4.705274 2 7.0961538 2 10.5 C 2 12.906886 2.3862248 14.774038 3.2773438 16.203125 C 4.024729 17.401707 5.179953 18.150866 6.5 18.658203 L 6.5 21.146484 C 6.5 21.881888 7.1181091 22.5 7.8535156 22.5 C 8.2135097 22.5 8.5589445 22.356343 8.8125 22.101562 L 11.408203 19.490234 C 11.60462 19.493692 11.798022 19.5 12 19.5 C 15.083333 19.5 17.569859 19.14668 19.371094 17.720703 C 21.172328 16.294726 22 13.903846 22 10.5 C 22 7.0961538 21.172328 4.705274 19.371094 3.2792969 C 17.569859 1.8533198 15.083333 1.5 12 1.5 z M 12 3.5 C 14.916667 3.5 16.930141 3.8966802 18.128906 4.8457031 C 19.327672 5.794726 20 7.4038462 20 10.5 C 20 13.596154 19.327672 15.205274 18.128906 16.154297 C 16.930141 17.10332 14.916667 17.5 12 17.5 C 11.666421 17.5 11.34452 17.494505 11.033203 17.484375 A 1.0001 1.0001 0 0 0 10.291016 17.779297 L 8.5 19.580078 L 8.5 18.025391 A 1.0001 1.0001 0 0 0 7.7675781 17.0625 C 6.43448 16.692076 5.5815373 16.120994 4.9726562 15.144531 C 4.3637752 14.168069 4 12.689314 4 10.5 C 4 7.4038462 4.6723281 5.794726 5.8710938 4.8457031 C 7.0698595 3.8966802 9.0833333 3.5 12 3.5 z M 13 5 A 1 1 0 0 0 12 6 A 1 1 0 0 0 13 7 C 14.668651 7 16 8.3313116 16 10 A 1 1 0 0 0 17 11 A 1 1 0 0 0 18 10 C 18 7.2504084 15.749549 5 13 5 z M 8.8359375 5.5019531 A 1.0001 1.0001 0 0 0 8.15625 5.7929688 L 7.5507812 6.3984375 C 7.0755835 6.8736352 6.8632368 7.6082312 7.0957031 8.2910156 C 7.2539846 8.7559023 7.5269847 9.4606207 7.9570312 10.25 C 8.3885253 11.042066 8.9791891 11.920584 9.7792969 12.720703 C 10.579424 13.520831 11.457875 14.111504 12.25 14.542969 C 13.039393 14.973122 13.744168 15.246024 14.208984 15.404297 C 14.89158 15.636527 15.626273 15.424507 16.101562 14.949219 L 16.707031 14.34375 A 1.0001 1.0001 0 0 0 16.554688 12.804688 L 14.921875 11.714844 C 14.348391 11.332626 13.567497 11.411019 13.080078 11.898438 L 12.623047 12.355469 C 12.136709 12.045462 11.638583 11.751864 11.193359 11.306641 C 10.748136 10.861411 10.454566 10.363297 10.144531 9.8769531 L 10.601562 9.4199219 C 11.088843 8.9325466 11.167425 8.1516224 10.785156 7.578125 L 9.6953125 5.9453125 A 1.0001 1.0001 0 0 0 8.9628906 5.5058594 A 1.0001 1.0001 0 0 0 8.8359375 5.5019531 z M 13 8 A 1 1 0 0 0 12 9 A 1 1 0 0 0 13 10 A 1 1 0 0 0 14 11 A 1 1 0 0 0 15 10 C 15 8.9072936 14.092731 8 13 8 z " fill="currentColor"/>
</svg>
