<svg xmlns="http://www.w3.org/2000/svg" width="1em" height="1em" viewBox="0 0 24 24" fill="currentColor">
  <path d="M 8.0410156 1.5 C 6.3234777 1.5 5.0042131 3.101522 5.3085938 4.7910156 L 6.28125 10.193359 L 5.4238281 11.201172 C 4.4885607 12.300281 3.8972332 12.942416 3.640625 13.884766 C 3.5389472 14.258205 3.4933993 14.644267 3.5019531 15.03125 C 3.5235351 16.00772 3.9399912 16.772539 4.5820312 18.068359 C 5.381277 19.681451 5.8165946 20.628459 6.6835938 21.351562 C 7.0336802 21.643532 7.4202159 21.884715 7.8359375 22.070312 C 8.8662936 22.530347 9.9042264 22.5 11.691406 22.5 L 13.150391 22.5 C 14.395991 22.5 15.102581 22.51807 15.845703 22.298828 C 16.938013 21.97669 17.887103 21.28636 18.533203 20.345703 C 18.972446 19.706334 19.178376 19.026453 19.572266 17.833984 L 19.980469 16.595703 C 20.222356 15.863342 20.359739 15.473691 20.431641 15.041016 C 20.836402 12.605977 19.402022 10.21891 17.0625 9.4570312 C 16.898705 9.4036586 16.624106 9.3716432 16.441406 9.3339844 L 17.359375 4.8222656 C 17.703317 3.1317987 16.390085 1.5 14.664062 1.5 C 13.436179 1.5 12.353782 2.3291824 12.019531 3.5097656 L 11.363281 5.8300781 L 10.710938 3.5273438 C 10.373597 2.3358644 9.2800824 1.5 8.0410156 1.5 z M 8.0410156 3.5 C 8.3880888 3.5 8.6886887 3.7246449 8.7871094 4.0722656 L 10.400391 9.7714844 A 1.0001 1.0001 0 0 0 12.324219 9.7714844 L 13.943359 4.0546875 C 14.038709 3.7179107 14.328145 3.5 14.664062 3.5 C 15.155439 3.5 15.502449 3.9222151 15.400391 4.4238281 L 14.001953 11.300781 A 1 1 0 0 0 14.78125 12.480469 A 1 1 0 0 0 15.960938 11.699219 L 16.044922 11.285156 C 16.139932 11.305576 16.389856 11.341935 16.443359 11.359375 C 17.846438 11.816296 18.704823 13.233929 18.458984 14.712891 C 18.428684 14.895215 18.323944 15.236311 18.082031 15.96875 L 17.673828 17.205078 C 17.279918 18.39761 17.092122 18.911059 16.884766 19.212891 C 16.496866 19.777634 15.929187 20.189197 15.279297 20.380859 C 14.933023 20.483019 14.395991 20.5 13.150391 20.5 L 11.691406 20.5 C 9.9042265 20.5 9.1539677 20.468106 8.6523438 20.244141 C 8.4046053 20.133538 8.1720443 19.988885 7.9628906 19.814453 C 7.5388644 19.460408 7.1738198 18.793872 6.375 17.181641 C 5.73298 15.885861 5.5081584 15.355458 5.5 14.986328 C 5.49569 14.791512 5.5191905 14.597917 5.5703125 14.410156 C 5.6530775 14.106218 6.0886299 13.565929 6.7480469 12.775391 L 6.9101562 13.677734 A 1 1 0 0 0 8.0703125 14.484375 A 1 1 0 0 0 8.8789062 13.322266 L 7.2773438 4.4355469 C 7.1852444 3.9243405 7.5420936 3.5 8.0410156 3.5 z " fill="currentColor"/>
</svg>
