<svg xmlns="http://www.w3.org/2000/svg" width="1em" height="1em" viewBox="0 0 24 24" fill="currentColor">
  <path d="M 6.8125 1.0019531 C 6.6359371 1.0028535 6.4554121 1.0237958 6.2734375 1.0683594 C 5.0302713 1.3727982 4.1191023 2.6762671 4.3359375 4.078125 A 1.0001 1.0001 0 0 0 4.3378906 4.0957031 L 5.3242188 9.8125 C 4.6278086 10.523821 3.7676201 11.382342 3.3359375 12.347656 C 3.2241978 12.597432 3.1367877 12.856079 3.0742188 13.121094 C 2.8982721 13.866418 3.0531927 14.659409 3.4179688 15.4375 C 3.782745 16.215591 4.3517343 17.047469 5.15625 18.107422 A 1.0001 1.0001 0 0 0 5.1914062 18.152344 C 5.4981745 18.511974 5.9294141 19.032061 6.2832031 19.478516 C 6.4600976 19.701743 6.6181907 19.906934 6.7265625 20.056641 C 6.7643185 20.108801 6.7840746 20.140241 6.8066406 20.173828 C 6.8293356 20.206078 7.0627379 20.349494 6.9921875 21.953125 A 1 1 0 0 0 7.9472656 22.996094 A 1 1 0 0 0 8.9902344 22.041016 C 9.0738277 20.140923 8.7239422 19.560055 8.7167969 19.537109 L 8.7167969 19.535156 C 8.6396411 19.27839 8.586982 19.24226 8.53125 19.154297 C 8.4752868 19.065969 8.4147114 18.980095 8.3457031 18.884766 C 8.2076865 18.694107 8.0371686 18.473013 7.8496094 18.236328 C 7.4864413 17.778038 7.06835 17.274845 6.7480469 16.898438 L 6.7402344 16.886719 C 5.976706 15.879744 5.4782876 15.122624 5.2285156 14.589844 C 4.9774643 14.054335 4.9677611 13.809607 5.0214844 13.582031 C 5.0551954 13.439246 5.1026894 13.296886 5.1621094 13.164062 C 5.2204874 13.033518 5.5734618 12.673642 5.7714844 12.410156 L 5.9921875 13.689453 A 1 1 0 0 0 7.1484375 14.505859 A 1 1 0 0 0 7.9628906 13.349609 L 7.3691406 9.9003906 L 6.3085938 3.7558594 L 6.3125 3.7714844 C 6.2251752 3.2069223 6.3728462 3.1021268 6.75 3.0097656 C 6.841902 2.9872596 6.9743938 3.0122955 7.1054688 3.1015625 C 7.2283516 3.1852513 7.2988749 3.3181163 7.3085938 3.34375 L 7.3085938 3.3457031 A 1.0001 1.0001 0 0 0 7.3242188 3.4277344 L 9.0195312 10.308594 A 1.0001 1.0001 0 0 0 10.960938 10.308594 L 12.607422 3.6035156 A 1.0001 1.0001 0 0 0 12.623047 3.5273438 C 12.694317 3.0965871 13.009644 3.0255232 13.328125 3.1035156 C 13.542423 3.1559986 13.590617 3.2122705 13.626953 3.2695312 C 13.663293 3.3267923 13.719152 3.4530006 13.669922 3.7714844 L 12.496094 10.382812 A 1 1 0 0 0 13.304688 11.541016 A 1 1 0 0 0 14.464844 10.732422 L 14.753906 9.109375 C 14.903411 9.070021 15.006336 9.0122981 15.1875 9.0488281 C 15.487369 9.1092951 15.746761 9.2337241 15.976562 9.8183594 C 15.983863 9.8452294 16.002613 9.93808 16.001953 9.9316406 C 16.024663 10.155057 16.025901 10.3978 16.019531 10.587891 C 16.016331 10.682931 16.012033 10.764948 16.007812 10.830078 C 16.003612 10.895208 15.998047 10.871328 15.998047 11.029297 A 1 1 0 0 0 16.998047 12.029297 A 1 1 0 0 0 17.998047 11.029297 C 17.998047 11.060088 17.997883 11.074958 17.998047 11.080078 C 17.998779 11.066548 18.000881 11.00516 18.003906 10.958984 C 18.004729 10.946324 18.004959 10.922423 18.005859 10.908203 C 18.388332 11.238914 18.812447 11.824318 18.919922 12.830078 A 1.0001 1.0001 0 0 0 18.931641 12.904297 C 19.124491 13.953515 18.786184 15.877068 18.642578 16.314453 C 18.519052 16.690752 18.234123 17.295819 17.962891 17.796875 C 17.827274 18.047403 17.693061 18.277786 17.587891 18.449219 C 17.511114 18.574367 17.421799 18.6939 17.408203 18.716797 L 17.408203 18.71875 L 17.410156 18.71875 A 1.0001 1.0001 0 0 0 17.376953 18.761719 C 16.363538 20.135111 16.435547 21.556023 16.435547 21.982422 A 1 1 0 0 0 17.435547 22.982422 A 1 1 0 0 0 18.435547 21.982422 C 18.435547 21.35002 18.338984 20.844236 18.960938 19.984375 C 18.971978 19.971438 18.976201 19.961555 18.986328 19.949219 C 19.115057 19.792414 19.180752 19.677059 19.292969 19.494141 C 19.420951 19.285523 19.568607 19.030972 19.720703 18.75 C 20.024896 18.188056 20.344695 17.541501 20.542969 16.9375 C 20.830106 16.062958 21.197328 14.26776 20.898438 12.582031 C 20.716852 10.983555 19.961607 9.8168081 19.085938 9.1699219 C 18.644358 8.8437116 18.177914 8.6328127 17.660156 8.5878906 C 17.612736 8.5837806 17.554281 8.6148084 17.503906 8.6152344 C 17.008523 7.8072218 16.312483 7.2367406 15.583984 7.0898438 C 15.41641 7.0560538 15.273118 7.0933144 15.113281 7.0839844 L 15.642578 4.0996094 A 1.0001 1.0001 0 0 0 15.646484 4.078125 C 15.749185 3.4133934 15.661796 2.7415574 15.316406 2.1972656 C 14.971017 1.6529739 14.398536 1.306073 13.802734 1.1601562 C 12.503267 0.84193091 10.960979 1.6222877 10.666016 3.1269531 C 10.663283 3.1408946 10.658767 3.153903 10.65625 3.1679688 L 9.9882812 5.8847656 L 9.2773438 2.9980469 C 9.276178 2.9913752 9.2746594 2.9851568 9.2734375 2.9785156 L 9.265625 2.9492188 C 9.1363449 2.2966769 8.7386069 1.791999 8.2324219 1.4472656 C 7.8367856 1.1778207 7.3421887 0.99925194 6.8125 1.0019531 z " fill="currentColor"/>
</svg>
