<svg xmlns="http://www.w3.org/2000/svg" width="1em" height="1em" viewBox="0 0 24 24" fill="currentColor">
  <path d="M 9 3 C 7.350085 3 6.091775 2.9933466 5.0253906 3.1367188 C 3.9590062 3.2800908 3.0205986 3.6161133 2.3183594 4.3183594 C 1.6161133 5.0205986 1.2800909 5.9590062 1.1367188 7.0253906 C 0.99334664 8.091775 1 9.350085 1 11 L 1 13 C 1 14.6499 0.99334705 15.908225 1.1367188 16.974609 C 1.2800908 18.040994 1.6161378 18.979371 2.3183594 19.681641 C 3.0206014 20.383869 3.9590094 20.719914 5.0253906 20.863281 C 6.0917719 21.006649 7.350085 21 9 21 L 10 21 C 11.6499 21 12.908228 21.0066 13.974609 20.863281 C 15.04099 20.719914 15.979368 20.383844 16.681641 19.681641 C 17.361201 19.002013 17.698664 18.102022 17.849609 17.078125 C 18.298416 17.431885 18.702997 17.727604 19.095703 17.964844 C 19.471009 18.191572 19.841109 18.372997 20.265625 18.457031 C 20.690141 18.541061 21.1842 18.494011 21.59375 18.291016 C 22.41281 17.884954 22.76043 16.998136 22.884766 16.119141 C 23.009098 15.240186 23 14.17855 23 12.78125 L 23 11.21875 C 23 9.821475 23.009101 8.7598597 22.884766 7.8808594 C 22.76043 7.001859 22.412852 6.1150285 21.59375 5.7089844 C 21.184196 5.5059608 20.690153 5.4589376 20.265625 5.5429688 C 19.841097 5.627 19.471008 5.8084274 19.095703 6.0351562 C 18.702999 6.2723962 18.298417 6.5681109 17.849609 6.921875 C 17.698664 5.8979866 17.361219 4.9979514 16.681641 4.3183594 C 15.979371 3.6161378 15.040994 3.2800906 13.974609 3.1367188 C 12.908225 2.9933467 11.6499 3 10 3 L 9 3 z M 9 5 L 10 5 C 11.6499 5 12.867215 5.00623 13.707031 5.1191406 C 14.546847 5.2320512 14.944648 5.4095135 15.267578 5.7324219 C 15.59045 6.0552999 15.767952 6.4531526 15.880859 7.2929688 C 15.993767 8.1327851 16 9.350085 16 11 L 16 13 C 16 14.6499 15.9938 15.867212 15.880859 16.707031 C 15.767952 17.54685 15.590474 17.94465 15.267578 18.267578 C 14.94465 18.590474 14.54685 18.767952 13.707031 18.880859 C 12.867212 18.993767 11.6499 19 10 19 L 9 19 C 7.350085 19 6.132785 18.993767 5.2929688 18.880859 C 4.4531525 18.767952 4.0552999 18.59045 3.7324219 18.267578 C 3.4095135 17.944648 3.2320512 17.546847 3.1191406 16.707031 C 3.0062301 15.867215 3 14.6499 3 13 L 3 11 C 3 9.350085 3.0062303 8.1327819 3.1191406 7.2929688 C 3.232051 6.4531556 3.409538 6.0553026 3.7324219 5.7324219 C 4.0553026 5.409538 4.4531556 5.232051 5.2929688 5.1191406 C 6.132782 5.0062303 7.350085 5 9 5 z M 11.5 7 C 10.131133 7 9 8.1311328 9 9.5 C 9 10.868867 10.131133 12 11.5 12 C 12.868867 12 14 10.868867 14 9.5 C 14 8.1311328 12.868867 7 11.5 7 z M 20.701172 7.4941406 L 20.701172 7.4960938 L 20.701172 7.4980469 L 20.703125 7.4980469 L 20.703125 7.5 L 20.705078 7.5 C 20.736178 7.515416 20.816083 7.538472 20.904297 8.1621094 C 20.992512 8.7857471 21 9.821475 21 11.21875 L 21 12.78125 C 21 14.17855 20.992497 15.214261 20.904297 15.837891 C 20.816087 16.46152 20.736218 16.484562 20.705078 16.5 L 20.703125 16.5 L 20.703125 16.501953 L 20.701172 16.501953 L 20.701172 16.503906 L 20.701172 16.505859 C 20.696476 16.504335 20.683952 16.500028 20.654297 16.494141 C 20.575217 16.478491 20.388825 16.410931 20.128906 16.253906 C 19.648104 15.963445 18.937253 15.393804 17.996094 14.619141 C 18.001432 14.123081 18 13.585869 18 13 L 18 11 C 18 10.414114 18.001432 9.876927 17.996094 9.3808594 C 18.937256 8.6062166 19.648104 8.0365559 20.128906 7.7460938 C 20.388826 7.5890714 20.575231 7.5215097 20.654297 7.5058594 C 20.683948 7.4999906 20.696474 7.4956604 20.701172 7.4941406 z M 11.5 9 C 11.787987 9 12 9.212013 12 9.5 C 12 9.787987 11.787987 10 11.5 10 C 11.212013 10 11 9.787987 11 9.5 C 11 9.212013 11.212013 9 11.5 9 z " fill="currentColor"/>
</svg>
