<svg xmlns="http://www.w3.org/2000/svg" width="1em" height="1em" viewBox="0 0 24 24" fill="currentColor">
  <path d="M 2.0019531 1 A 1 1 0 0 0 1.2949219 1.2929688 A 1 1 0 0 0 1.2949219 2.7070312 L 2.6289062 4.0429688 C 2.5205074 4.1283765 2.4167165 4.2198816 2.3183594 4.3183594 C 1.6168688 5.0207201 1.2818483 5.959131 1.1386719 7.0253906 C 0.99549537 8.0916502 1.0019531 9.350055 1.0019531 11 L 1.0019531 13 C 1.0019531 14.6499 0.99549508 15.906415 1.1386719 16.972656 C 1.281849 18.038898 1.6168628 18.979294 2.3183594 19.681641 C 3.0198439 20.384043 3.9580919 20.719862 5.0234375 20.863281 C 6.0887831 21.006701 7.3462706 21 8.9941406 21 L 9.9921875 21 C 11.640037 21 12.895589 21.0067 13.960938 20.863281 C 15.026286 20.719862 15.966466 20.384034 16.667969 19.681641 C 16.940444 19.408842 17.158184 19.099863 17.330078 18.761719 L 21.269531 22.707031 A 1 1 0 0 0 22.683594 22.707031 A 1 1 0 0 0 22.685547 21.292969 L 5.0351562 3.6210938 A 1 1 0 0 0 4.9824219 3.5703125 L 2.7089844 1.2929688 A 1 1 0 0 0 2.0019531 1 z M 8.234375 3 A 1 1 0 0 0 7.2363281 4.0019531 A 1 1 0 0 0 8.2382812 5 C 8.4786692 4.9994832 8.7299675 5 8.9921875 5 L 9.9902344 5 C 11.638119 5 12.854857 5.00627 13.693359 5.1191406 C 14.531862 5.2320142 14.927669 5.409672 15.25 5.7324219 C 15.572342 6.0551797 15.750499 6.453014 15.863281 7.2929688 C 15.976064 8.1329237 15.982422 9.350075 15.982422 11 L 15.982422 12.757812 A 1 1 0 0 0 16.982422 13.757812 A 1 1 0 0 0 17.982422 12.757812 L 17.982422 11 C 17.982422 10.489203 17.942873 10.211057 17.939453 9.7695312 L 19.859375 8.359375 L 19.861328 8.3574219 C 20.452616 7.9612639 20.690551 8.0037709 20.714844 8.0097656 L 20.716797 8.0097656 L 20.71875 8.0117188 L 20.71875 8.0136719 L 20.720703 8.0136719 L 20.720703 8.015625 C 20.721523 8.0170603 20.723814 8.0201911 20.724609 8.0214844 L 20.726562 8.0234375 C 21.014496 8.8736183 20.974984 11.374136 20.974609 14.511719 C 20.922959 15.447392 20.824692 15.944938 20.767578 16.107422 C 20.755628 16.141417 20.752181 16.161249 20.751953 16.171875 C 20.742729 16.175765 20.725995 16.185655 20.703125 16.203125 A 1 1 0 0 0 20.701172 16.205078 C 20.699028 16.206731 20.697595 16.207184 20.695312 16.208984 A 1 1 0 0 0 20.517578 17.605469 A 1 1 0 0 0 21.919922 17.789062 L 21.921875 17.787109 A 1.0001 1.0001 0 0 0 21.933594 17.779297 C 22.074314 17.668321 22.477703 17.273878 22.654297 16.771484 C 22.83089 16.269091 22.91906 15.643865 22.974609 14.59375 A 1.0001 1.0001 0 0 0 22.976562 14.541016 C 22.976562 11.42305 23.219164 9.0383972 22.611328 7.3164062 A 1.0001 1.0001 0 0 0 22.576172 7.2324219 C 22.373672 6.7911406 21.929399 6.2499906 21.193359 6.0683594 C 20.457319 5.8867281 19.620342 6.1105182 18.744141 6.6992188 A 1.0001 1.0001 0 0 0 18.710938 6.7226562 L 17.857422 7.3496094 C 17.847622 7.2599744 17.857383 7.1123723 17.845703 7.0253906 C 17.702533 5.9591435 17.367473 5.0207215 16.666016 4.3183594 C 15.964547 3.6159792 15.026277 3.2801276 13.960938 3.1367188 C 12.895596 2.9933097 11.638119 3 9.9902344 3 L 8.9921875 3 C 8.7299675 3 8.477747 2.9994768 8.234375 3 z M 4.0605469 5.4746094 L 15.777344 17.208984 C 15.664082 17.721969 15.502177 18.017059 15.251953 18.267578 C 14.929556 18.590384 14.53186 18.767979 13.693359 18.880859 C 12.854858 18.99374 11.640037 19 9.9921875 19 L 8.9941406 19 C 7.3462706 19 6.12951 18.99374 5.2910156 18.880859 C 4.4525212 18.767979 4.0547973 18.590376 3.7324219 18.267578 C 3.4100585 17.944824 3.2338816 17.546965 3.1210938 16.707031 C 3.0083057 15.867098 3.0019531 14.6499 3.0019531 13 L 3.0019531 11 C 3.0019531 9.350055 3.0083031 8.1329242 3.1210938 7.2929688 C 3.2338822 6.4530135 3.4100524 6.0532381 3.7324219 5.7304688 C 3.8324673 5.6303006 3.9376764 5.5465137 4.0605469 5.4746094 z " fill="currentColor"/>
</svg>
