<svg xmlns="http://www.w3.org/2000/svg" width="1em" height="1em" viewBox="0 0 24 24" fill="currentColor">
  <path d="M 12.746094 3.0078125 C 12.500267 3.0016981 12.255226 3.0360698 12.035156 3.1054688 C 11.595018 3.2442665 11.22198 3.4818777 10.839844 3.7753906 C 10.075571 4.3624165 9.2569644 5.2102649 8.1679688 6.3222656 C 7.1214431 7.3908735 7.0047212 7.4277344 5.5058594 7.4277344 C 4.1023894 7.4277344 3.1949788 7.3598274 2.3339844 7.9472656 C 1.5408435 8.4884038 1.1878906 9.3459736 1.0722656 10.078125 C 0.95664072 10.810276 1.0078125 11.488159 1.0078125 12 C 1.0078125 12.511841 0.95664073 13.189728 1.0722656 13.921875 C 1.1878906 14.654022 1.5408758 15.511565 2.3339844 16.052734 C 3.1949773 16.640121 4.1023894 16.572266 5.5058594 16.572266 C 7.0046963 16.572266 7.1214309 16.609146 8.1679688 17.677734 C 9.2569645 18.78974 10.075567 19.637584 10.839844 20.224609 C 11.221982 20.518122 11.595011 20.755738 12.035156 20.894531 C 12.475301 21.033324 13.01222 21.035208 13.464844 20.84375 C 13.917455 20.652296 14.286579 20.270247 14.498047 19.861328 C 14.709515 19.452408 14.808396 19.018075 14.875 18.537109 C 15.008209 17.575178 15 16.387053 15 14.814453 L 15 9.1855469 C 15 7.6129469 15.0082 6.4248188 14.875 5.4628906 C 14.808395 4.9819265 14.709519 4.5475901 14.498047 4.1386719 C 14.286574 3.7297537 13.917465 3.3476883 13.464844 3.15625 C 13.238531 3.0605274 12.99192 3.0139269 12.746094 3.0078125 z M 12.6875 4.9960938 L 12.689453 4.9960938 C 12.691514 5.0003503 12.698113 5.0149139 12.720703 5.0585938 C 12.769473 5.1528957 12.845473 5.3820722 12.894531 5.7363281 C 12.992643 6.4448398 13 7.6129469 13 9.1855469 L 13 14.814453 C 13 16.387053 12.9926 17.555154 12.894531 18.263672 C 12.845471 18.617931 12.769476 18.847094 12.720703 18.941406 C 12.698125 18.985068 12.691517 18.999642 12.689453 19.003906 L 12.6875 19.003906 L 12.6875 19.001953 L 12.685547 19.001953 L 12.683594 19.001953 C 12.676761 18.999011 12.665336 18.995353 12.636719 18.986328 C 12.544359 18.957198 12.334687 18.852234 12.056641 18.638672 C 11.500553 18.21155 10.68664 17.391291 9.5976562 16.279297 C 8.388334 15.04449 7.2166425 14.572266 5.5058594 14.572266 C 4.1023894 14.572266 3.6081246 14.500806 3.4609375 14.400391 C 3.2087603 14.227805 3.1155884 14.032107 3.0488281 13.609375 C 2.9819381 13.185822 3.0078125 12.606159 3.0078125 12 C 3.0078125 11.393841 2.9819381 10.814181 3.0488281 10.390625 C 3.1157181 9.9670689 3.2076783 9.7724012 3.4609375 9.5996094 C 3.6081231 9.4991877 4.1023894 9.4277344 5.5058594 9.4277344 C 7.2166175 9.4277344 8.3883218 8.9555553 9.5976562 7.7207031 C 10.686641 6.6087139 11.500544 5.7884572 12.056641 5.3613281 C 12.334689 5.1477636 12.544348 5.0428009 12.636719 5.0136719 C 12.662437 5.0055617 12.677933 5.0011417 12.685547 4.9980469 L 12.6875 4.9980469 L 12.6875 4.9960938 z M 18 9 A 1 1 0 0 0 17.292969 9.2929688 A 1 1 0 0 0 17.292969 10.707031 L 18.585938 12 L 17.292969 13.292969 A 1 1 0 0 0 17.292969 14.707031 A 1 1 0 0 0 18.707031 14.707031 L 20 13.414062 L 21.292969 14.707031 A 1 1 0 0 0 22.707031 14.707031 A 1 1 0 0 0 22.707031 13.292969 L 21.414062 12 L 22.707031 10.707031 A 1 1 0 0 0 22.707031 9.2929688 A 1 1 0 0 0 21.292969 9.2929688 L 20 10.585938 L 18.707031 9.2929688 A 1 1 0 0 0 18 9 z " fill="currentColor"/>
</svg>
