<svg xmlns="http://www.w3.org/2000/svg" width="1em" height="1em" viewBox="0 0 24 24" fill="currentColor">
  <path d="M 3.5 2 C 2.1311341 2 1 3.1311341 1 4.5 C 1 5.8688624 2.131126 7 3.5 7 C 3.8144826 7 4.0319934 6.7706783 4.3105469 6.6621094 L 5.8476562 7.984375 L 4.2402344 9.3085938 C 3.982215 9.2172577 3.7871973 9 3.5 9 C 2.1311582 9 1 10.13111 1 11.5 C 1 12.868855 2.1311099 14 3.5 14 C 4.8688901 14 6 12.868855 6 11.5 C 6 11.196812 5.775099 10.988906 5.6738281 10.71875 L 7.3964844 9.2988281 L 10.359375 11.767578 A 1 1 0 0 0 11.767578 11.640625 A 1 1 0 0 0 11.640625 10.232422 L 8.9628906 8 L 11.640625 5.7675781 A 1 1 0 0 0 11.767578 4.359375 A 1 1 0 0 0 10.359375 4.2324219 L 7.4101562 6.6894531 L 5.6992188 5.21875 C 5.7856474 4.9670473 6 4.7790239 6 4.5 C 6 3.1311341 4.8688659 2 3.5 2 z M 3.5 4 C 3.7879941 4 4 4.2120059 4 4.5 C 4 4.7879776 3.787986 5 3.5 5 C 3.212014 5 3 4.7879776 3 4.5 C 3 4.2120059 3.2120059 4 3.5 4 z M 13.923828 6 A 1 1 0 0 0 12.923828 7 A 1 1 0 0 0 13.923828 8 L 16.076172 8 A 1 1 0 0 0 17.076172 7 A 1 1 0 0 0 16.076172 6 L 13.923828 6 z M 19.861328 6.2714844 A 1 1 0 0 0 18.884766 6.9980469 A 1 1 0 0 0 19.574219 8.2324219 C 19.946204 8.3377912 20.152374 8.4589782 20.345703 8.6523438 C 20.539142 8.8457651 20.662235 9.0537875 20.767578 9.4257812 A 1 1 0 0 0 22.001953 10.115234 A 1 1 0 0 0 22.691406 8.8808594 C 22.516549 8.2633931 22.214079 7.6906 21.761719 7.2382812 C 21.309448 6.7859267 20.736556 6.4834844 20.119141 6.3085938 A 1 1 0 0 0 19.861328 6.2714844 z M 3.5 11 C 3.7880182 11 4 11.21189 4 11.5 C 4 11.787945 3.7879699 12 3.5 12 C 3.2120301 12 3 11.787945 3 11.5 C 3 11.21189 3.2119818 11 3.5 11 z M 22 11.923828 A 1 1 0 0 0 21 12.923828 L 21 15.076172 A 1 1 0 0 0 22 16.076172 A 1 1 0 0 0 23 15.076172 L 23 12.923828 A 1 1 0 0 0 22 11.923828 z M 8 13 A 1 1 0 0 0 7 14 L 7 15.076172 A 1 1 0 0 0 8 16.076172 A 1 1 0 0 0 9 15.076172 L 9 14 A 1 1 0 0 0 8 13 z M 8.2558594 17.847656 A 1 1 0 0 0 7.9980469 17.884766 A 1 1 0 0 0 7.3085938 19.119141 C 7.483481 19.736544 7.7860276 20.309409 8.2382812 20.761719 C 8.6905893 21.214083 9.2634542 21.516545 9.8808594 21.691406 A 1 1 0 0 0 11.115234 21.001953 A 1 1 0 0 0 10.425781 19.767578 C 10.053846 19.662239 9.8477087 19.539139 9.6542969 19.345703 C 9.4608305 19.152213 9.3377946 18.946216 9.2324219 18.574219 A 1 1 0 0 0 8.2558594 17.847656 z M 21.744141 17.847656 A 1 1 0 0 0 20.767578 18.574219 C 20.662238 18.946181 20.539182 19.152224 20.345703 19.345703 A 1.0001 1.0001 0 0 0 20.345703 19.347656 C 20.152392 19.541027 19.946181 19.662238 19.574219 19.767578 A 1 1 0 0 0 18.884766 21.001953 A 1 1 0 0 0 20.119141 21.691406 C 20.736578 21.516547 21.30943 21.212195 21.761719 20.759766 C 22.213365 20.307636 22.516704 19.736022 22.691406 19.119141 A 1 1 0 0 0 22.001953 17.884766 A 1 1 0 0 0 21.744141 17.847656 z M 13.923828 20 A 1 1 0 0 0 12.923828 21 A 1 1 0 0 0 13.923828 22 L 16.076172 22 A 1 1 0 0 0 17.076172 21 A 1 1 0 0 0 16.076172 20 L 13.923828 20 z " fill="currentColor"/>
</svg>
