<svg xmlns="http://www.w3.org/2000/svg" width="1em" height="1em" viewBox="0 0 24 24" fill="currentColor">
  <path d="M 8.828125 4 C 7.674435 4 7.0060255 3.9864908 6.2871094 4.1914062 C 5.9180225 4.2966239 5.5619627 4.4442593 5.2265625 4.6308594 C 4.5733087 4.9943116 4.1087486 5.4771889 3.2929688 6.2929688 C 2.4771886 7.1087488 1.9943116 7.5733087 1.6308594 8.2265625 C 1.4442593 8.5619627 1.2966239 8.9180225 1.1914062 9.2871094 C 0.9864944 10.006013 1 10.674425 1 11.828125 L 1 12.716797 L 1 13 C 0.99920342 13.314343 1 13.631049 1 14 C 1 15.8692 0.93949201 16.968199 1.5351562 18 C 1.8862105 18.608089 2.3919689 19.113805 3 19.464844 C 4.0317842 20.060511 5.13077 20 7 20 L 7.3945312 20 C 8.0814514 20 8.4942663 20.008397 8.9628906 19.904297 C 9.5365926 19.776932 10.074059 19.525033 10.539062 19.166016 C 10.91889 18.87273 11.177444 18.549237 11.617188 18.021484 C 11.8092 17.791057 11.93983 17.65893 12 17.595703 C 12.060173 17.658931 12.190805 17.791061 12.382812 18.021484 C 12.822555 18.549237 13.081052 18.87272 13.460938 19.166016 C 13.925911 19.52501 14.463364 19.776931 15.037109 19.904297 C 15.505746 20.008438 15.918569 20 16.605469 20 L 17 20 C 18.8692 20 19.968203 20.06048 21 19.464844 C 21.608091 19.113801 22.113801 18.608091 22.464844 18 C 23.060476 16.968203 23 15.8692 23 14 C 23 13.631194 23.000796 13.314238 23 13 C 22.999775 12.911007 23.000856 12.801969 23 12.716797 L 23 11.828125 C 23 10.674425 23.01347 10.005995 22.808594 9.2871094 C 22.703357 8.9180451 22.555773 8.5619749 22.369141 8.2265625 C 22.005727 7.5732332 21.522836 7.1087431 20.707031 6.2929688 C 19.891231 5.4771887 19.42662 4.9943092 18.773438 4.6308594 C 18.437962 4.4442037 18.081945 4.2966112 17.712891 4.1914062 C 16.994007 3.986481 16.325575 4 15.171875 4 L 8.828125 4 z M 8.828125 6 L 15.171875 6 C 16.325575 6 16.809899 6.01372 17.166016 6.1152344 C 17.387561 6.1783894 17.599656 6.267002 17.800781 6.3789062 C 18.124399 6.5589765 18.477169 6.8912514 19.292969 7.7070312 C 19.43266 7.8467179 19.558872 7.973268 19.671875 8.0878906 C 18.955962 7.978981 18.114553 8 17 8 L 7 8 C 5.8855454 8 5.0439846 7.9790222 4.328125 8.0878906 C 4.4410724 7.9732291 4.5674238 7.8466387 4.7070312 7.7070312 C 5.5228112 6.8912512 5.8755726 6.558974 6.1992188 6.3789062 C 6.4004585 6.2669464 6.6124913 6.1783767 6.8339844 6.1152344 C 7.1901683 6.0137099 7.674435 6 8.828125 6 z M 7 10 L 17 10 C 18.8692 10 19.639401 10.0594 20 10.267578 C 20.304149 10.443166 20.556874 10.695908 20.732422 11 C 20.94059 11.360603 21 12.1308 21 14 C 21 15.8692 20.94059 16.639397 20.732422 17 C 20.556864 17.304109 20.304109 17.556864 20 17.732422 C 19.639397 17.94059 18.8692 18 17 18 L 16.605469 18 C 15.918569 18 15.644666 17.991795 15.470703 17.953125 C 15.184048 17.889495 14.916221 17.76359 14.683594 17.583984 C 14.542279 17.47488 14.359578 17.269835 13.919922 16.742188 C 13.569497 16.321659 13.365365 15.994058 12.849609 15.751953 C 12.311951 15.499701 11.688049 15.499701 11.150391 15.751953 C 10.634635 15.994058 10.430503 16.321659 10.080078 16.742188 C 9.640422 17.26983 9.4577178 17.47487 9.3164062 17.583984 C 9.0838084 17.763567 8.8159349 17.88949 8.5292969 17.953125 C 8.3552012 17.991806 8.0814513 18 7.3945312 18 L 7 18 C 5.13077 18 4.3605158 17.940554 4 17.732422 C 3.6959111 17.55686 3.4431439 17.304111 3.2675781 17 C 3.0594024 16.639401 3 15.8692 3 14 C 3 12.1308 3.0594024 11.360599 3.2675781 11 C 3.4431344 10.695905 3.6958704 10.44317 4 10.267578 C 4.3605116 10.059438 5.13077 10 7 10 z M 5 11 A 1 1 0 0 0 4 12 A 1 1 0 0 0 5 13 L 7 13 A 1 1 0 0 0 8 12 A 1 1 0 0 0 7 11 L 5 11 z " fill="currentColor"/>
</svg>
