<svg xmlns="http://www.w3.org/2000/svg" width="1em" height="1em" viewBox="0 0 24 24" fill="currentColor">
  <path d="M 13.390625 1.5 C 12.975525 1.5 12.564479 1.599293 12.195312 1.7890625 L 3.3046875 6.359375 C 2.5466536 6.749097 2.0589425 7.5148365 2.0097656 8.359375 A 1.0001 1.0001 0 0 0 2 8.4863281 C 1.9999808 8.4902491 2 8.4941231 2 8.4980469 A 1 1 0 0 0 2 8.5 L 2 15.5 C 2 16.9142 1.99407 17.995558 2.1191406 18.925781 C 2.2442065 19.856004 2.5428648 20.699101 3.171875 21.328125 C 3.8008908 21.957155 4.6439898 22.25579 5.5742188 22.380859 C 6.5044479 22.505928 7.585785 22.5 9 22.5 L 15 22.5 C 16.4142 22.5 17.495556 22.5059 18.425781 22.380859 C 19.356006 22.25579 20.199103 21.957147 20.828125 21.328125 C 21.457147 20.699103 21.75579 19.856006 21.880859 18.925781 C 22.005928 17.995556 22 16.9142 22 15.5 L 22 14.5 C 22 13.0858 22.0059 12.004446 21.880859 11.074219 C 21.75579 10.143992 21.457141 9.3009052 20.828125 8.671875 C 20.199101 8.0428648 19.356004 7.7442065 18.425781 7.6191406 C 17.727848 7.5253054 16.944836 7.5061386 16 7.5019531 L 16 4.109375 C 16 2.6795593 14.820395 1.5 13.390625 1.5 z M 13.390625 3.5 C 13.739455 3.5 14 3.7605107 14 4.109375 L 14 7.5 L 5.4609375 7.5 L 13.111328 3.5683594 C 13.197761 3.5239286 13.293525 3.5 13.390625 3.5 z M 4 9.5 L 15 9.5 C 16.4142 9.5 17.454551 9.50696 18.158203 9.6015625 C 18.861855 9.6961665 19.164388 9.8362672 19.414062 10.085938 C 19.663747 10.335627 19.803832 10.638144 19.898438 11.341797 C 19.993044 12.04545 20 13.0858 20 14.5 L 20 15.5 C 20 16.9142 19.993 17.954553 19.898438 18.658203 C 19.803828 19.361853 19.66374 19.664385 19.414062 19.914062 C 19.164386 20.16374 18.861853 20.303832 18.158203 20.398438 C 17.454553 20.493043 16.4142 20.5 15 20.5 L 9 20.5 C 7.585785 20.5 6.5454503 20.493 5.8417969 20.398438 C 5.1381434 20.303832 4.8356017 20.163732 4.5859375 19.914062 C 4.3362677 19.664388 4.1961666 19.361855 4.1015625 18.658203 C 4.0069584 17.954551 4 16.9142 4 15.5 L 4 9.5 z M 17.5 13.5 C 16.683275 13.5 16 14.183275 16 15 C 16 15.816725 16.683275 16.5 17.5 16.5 C 18.316725 16.5 19 15.816725 19 15 C 19 14.183275 18.316725 13.5 17.5 13.5 z " fill="currentColor"/>
</svg>
