<svg xmlns="http://www.w3.org/2000/svg" width="1em" height="1em" viewBox="0 0 24 24" fill="currentColor">
  <path d="M 12 1 C 10.788053 1 9.8727011 1.613427 8.3496094 2.5449219 L 5.3496094 4.3789062 C 3.9466323 5.2369645 3.0622776 5.7324045 2.5117188 6.7148438 C 1.9611707 7.6972892 2 8.7099386 2 10.355469 L 2 15.996094 C 2 17.411444 1.9941 18.491087 2.1191406 19.421875 C 2.244183 20.352663 2.542944 21.198679 3.171875 21.828125 C 3.8008152 22.457581 4.6439044 22.755679 5.5742188 22.880859 C 5.9503852 22.931475 6.3515082 22.95978 6.7890625 22.976562 A 1.0001 1.0001 0 0 0 7 23 L 8.4570312 23 L 15.541016 23 L 17 23 A 1.0001 1.0001 0 0 0 17.210938 22.976562 C 17.648455 22.959777 18.049645 22.931455 18.425781 22.880859 C 19.356092 22.755679 20.199178 22.457573 20.828125 21.828125 C 21.457068 21.198681 21.755814 20.352666 21.880859 19.421875 C 22.005905 18.491084 22 17.411444 22 15.996094 L 22 10.355469 C 22 8.7099385 22.038814 7.697287 21.488281 6.7148438 C 20.937737 5.7323787 20.053388 5.2369644 18.650391 4.3789062 L 15.650391 2.5449219 C 14.127299 1.613427 13.211947 1 12 1 z M 12 3 C 12.476253 3 13.084314 3.3184949 14.607422 4.25 L 17.607422 6.0859375 C 19.010425 6.9439993 19.527885 7.3054914 19.744141 7.6914062 C 19.960408 8.077343 20 8.7099386 20 10.355469 L 20 15.996094 C 20 17.411444 19.9931 18.451866 19.898438 19.15625 C 19.803808 19.860634 19.663819 20.164108 19.414062 20.414062 C 19.16431 20.664016 18.861767 20.803769 18.158203 20.898438 C 18.107241 20.905295 18.054511 20.912002 18 20.917969 L 18 14 C 18 13.0572 18.006399 12.329788 17.917969 11.671875 C 17.829511 11.013962 17.603666 10.361479 17.121094 9.8789062 C 16.638521 9.3963338 15.986038 9.1704877 15.328125 9.0820312 C 14.670212 8.9935746 13.9428 9 13 9 L 11 9 C 10.05719 9 9.3297904 8.9935746 8.671875 9.0820312 C 8.0139596 9.1704877 7.3614738 9.3963221 6.8789062 9.8789062 C 6.3963405 10.36148 6.1704861 11.013964 6.0820312 11.671875 C 5.9935766 12.329785 6 13.057203 6 14 L 6 20.917969 C 5.9454889 20.912002 5.8927592 20.905295 5.8417969 20.898438 C 5.1382289 20.803769 4.8356773 20.664008 4.5859375 20.414062 C 4.3361885 20.164109 4.1961901 19.860637 4.1015625 19.15625 C 4.0069349 18.451863 4 17.411444 4 15.996094 L 4 10.355469 C 4 8.7099385 4.0395874 8.0773408 4.2558594 7.6914062 C 4.4721405 7.3054656 4.9895952 6.9439993 6.3925781 6.0859375 L 9.3925781 4.25 C 10.915686 3.3184949 11.523747 3 12 3 z M 11 11 L 13 11 C 13.9428 11 14.62921 11.006503 15.060547 11.064453 C 15.491884 11.122443 15.603804 11.189741 15.707031 11.292969 C 15.810259 11.396196 15.877553 11.508116 15.935547 11.939453 C 15.970562 12.199887 15.986777 12.553304 15.994141 13 L 8.0058594 13 C 8.0132226 12.553305 8.0294382 12.199887 8.0644531 11.939453 C 8.1224461 11.508114 8.1897445 11.396195 8.2929688 11.292969 C 8.3961812 11.189753 8.5081136 11.122447 8.9394531 11.064453 C 9.3707927 11.00646 10.05719 11 11 11 z M 8 15 L 16 15 L 16 17 L 8 17 L 8 15 z M 8 19 L 16 19 L 16 20.998047 C 15.690082 21.000226 15.356947 21 15 21 L 9 21 C 8.6430517 21 8.3099164 21.000226 8 20.998047 L 8 19 z " fill="currentColor"/>
</svg>
