<svg xmlns="http://www.w3.org/2000/svg" width="1em" height="1em" viewBox="0 0 24 24" fill="currentColor">
  <path d="M 11 1 C 9.11438 1 7.6810556 0.99457301 6.4785156 1.15625 C 5.2759756 1.317927 4.240311 1.689383 3.4648438 2.4648438 C 2.6893829 3.240311 2.317927 4.2759756 2.15625 5.4785156 C 1.994573 6.6810556 2 8.11438 2 10 L 2 14 C 2 15.8856 1.99457 17.318937 2.15625 18.521484 C 2.3179268 19.724031 2.6893545 20.759713 3.4648438 21.535156 C 4.2403087 22.310634 5.2759729 22.682068 6.4785156 22.84375 C 7.6810584 23.005432 9.11438 23 11 23 L 13 23 C 14.8856 23 16.318935 23.0054 17.521484 22.84375 C 18.724034 22.682069 19.759716 22.310663 20.535156 21.535156 C 21.310663 20.759716 21.682069 19.724034 21.84375 18.521484 C 22.005431 17.318935 22 15.8856 22 14 L 22 10 C 22 8.11438 22.005432 6.6810584 21.84375 5.4785156 C 21.682068 4.2759729 21.310634 3.2403086 20.535156 2.4648438 C 19.759713 1.6893545 18.724031 1.3179268 17.521484 1.15625 C 16.318937 0.99457318 14.8856 1 13 1 L 11 1 z M 11 3 L 13 3 C 14.8856 3 16.279881 3.0054999 17.255859 3.1367188 C 18.231837 3.2679343 18.725037 3.4828254 19.121094 3.8789062 C 19.517216 4.2750212 19.732063 4.7681734 19.863281 5.7441406 C 19.9945 6.7201079 20 8.11438 20 10 L 20 14 C 20 15.8856 19.9945 17.279884 19.863281 18.255859 C 19.732063 19.231835 19.517187 19.725034 19.121094 20.121094 C 18.725034 20.517187 18.231835 20.732063 17.255859 20.863281 C 16.279884 20.9945 14.8856 21 13 21 L 11 21 C 9.11438 21 7.7201079 20.9945 6.7441406 20.863281 C 5.7681734 20.732063 5.2750213 20.517216 4.8789062 20.121094 C 4.4828255 19.725037 4.2679344 19.231837 4.1367188 18.255859 C 4.0055032 17.279881 4 15.8856 4 14 L 4 10 C 4 8.11438 4.0055032 6.7201106 4.1367188 5.7441406 C 4.2679343 4.7681706 4.482797 4.2750188 4.8789062 3.8789062 C 5.2750189 3.482797 5.7681706 3.2679342 6.7441406 3.1367188 C 7.7201106 3.0055032 9.11438 3 11 3 z M 7 4.75 C 6.3214795 4.75 5.75 5.3214795 5.75 6 C 5.75 6.6785205 6.3214795 7.25 7 7.25 C 7.6785205 7.25 8.25 6.6785205 8.25 6 C 8.25 5.3214795 7.6785205 4.75 7 4.75 z M 12 7 C 8.6981334 7 6 9.6981543 6 13 C 6 16.301846 8.6981334 19 12 19 C 15.30185 19 18 16.30185 18 13 A 1 1 0 0 0 18 12.958984 C 17.978075 9.6755738 15.288358 7 12 7 z M 12 9 C 14.055626 9 15.732417 10.523842 15.970703 12.511719 C 15.433621 12.860092 14.955545 13 14.5 13 C 13.933338 13 13.331386 12.783833 12.625 12.21875 C 11.664684 11.450532 10.59999 11 9.5 11 C 9.1475394 11 8.7980197 11.046624 8.4550781 11.134766 C 9.121933 9.8620871 10.454274 9 12 9 z M 9.5 13 C 10.066667 13 10.668616 13.216168 11.375 13.78125 C 12.335314 14.549467 13.400012 15 14.5 15 C 14.852459 15 15.201982 14.953376 15.544922 14.865234 C 14.878061 16.137912 13.545709 17 12 17 C 9.9443514 17 8.2675787 15.476162 8.0292969 13.488281 C 8.5663694 13.139913 9.044453 13 9.5 13 z " fill="currentColor"/>
</svg>
