<svg xmlns="http://www.w3.org/2000/svg" width="1em" height="1em" viewBox="0 0 24 24" fill="currentColor">
  <path d="M 12 1 C 11.517944 1 11.080546 1.2270625 10.771484 1.46875 C 10.462423 1.7104375 10.202457 1.9844999 9.8691406 2.3261719 A 1.0001 1.0001 0 0 0 9.8066406 2.3984375 L 9.25 3.0917969 C 8.7386848 3.7285833 8.4150115 4.1128779 8.1835938 4.6464844 C 7.9521623 5.180103 7.8928332 5.675939 7.7773438 6.484375 L 6.0898438 18.300781 C 5.9651901 18.349608 5.8416644 18.40687 5.71875 18.472656 C 4.794552 18.967304 4.2897949 19.759639 3.4648438 21 L 3 21 A 1 1 0 0 0 2 22 A 1 1 0 0 0 3 23 L 21 23 A 1 1 0 0 0 22 22 A 1 1 0 0 0 21 21 L 20.535156 21 C 19.710224 19.759627 19.205458 18.967296 18.28125 18.472656 C 18.158336 18.406872 18.03481 18.349607 17.910156 18.300781 L 16.222656 6.484375 C 16.107151 5.6759067 16.047615 5.1799219 15.816406 4.6464844 C 15.584951 4.1128252 15.261283 3.728556 14.75 3.0917969 L 14.193359 2.3984375 A 1.0001 1.0001 0 0 0 14.130859 2.3261719 C 13.797519 1.9845271 13.537548 1.710428 13.228516 1.46875 C 12.919484 1.227072 12.482056 1 12 1 z M 12 3.0488281 C 12.123093 3.1456241 12.359394 3.3777848 12.669922 3.6953125 L 13.191406 4.3457031 C 13.420211 4.6306592 13.583609 4.8386516 13.703125 5 L 10.296875 5 C 10.416392 4.8386522 10.579781 4.6306639 10.808594 4.3457031 L 11.330078 3.6953125 C 11.640537 3.377811 11.876912 3.1456149 12 3.0488281 z M 9.7246094 7 L 14.275391 7 L 15.847656 18.001953 C 15.525651 17.997792 15.17533 18 14.789062 18 L 13 18 L 13 13 A 1 1 0 0 0 12 12 A 1 1 0 0 0 11 13 L 11 18 L 9.2109375 18 C 8.8246708 18 8.4743495 17.997794 8.1523438 18.001953 L 9.7246094 7 z M 9.2109375 20 L 12 20 L 14.789062 20 C 16.360961 20 16.964324 20.03639 17.337891 20.236328 C 17.558883 20.354604 17.77772 20.571701 18.099609 21 L 5.9003906 21 C 6.2222856 20.571694 6.4411328 20.354599 6.6621094 20.236328 C 7.0356256 20.036415 7.6390475 20 9.2109375 20 z " fill="currentColor"/>
</svg>
