<svg xmlns="http://www.w3.org/2000/svg" width="1em" height="1em" viewBox="0 0 24 24" fill="currentColor">
  <path d="M 20 2 A 1 1 0 0 0 19 3 L 19 5 A 1 1 0 0 0 20 6 A 1 1 0 0 0 21 5 L 21 3 A 1 1 0 0 0 20 2 z M 16 4 A 1 1 0 0 0 15 5 L 15 11 A 1 1 0 0 0 16 12 A 1 1 0 0 0 17 11 L 17 5 A 1 1 0 0 0 16 4 z M 8 8 A 1 1 0 0 0 7 9 L 7 14 A 1 1 0 0 0 8 15 A 1 1 0 0 0 9 14 L 9 9 A 1 1 0 0 0 8 8 z M 12 8 A 1 1 0 0 0 11 9 L 11 11 A 1 1 0 0 0 12 12 A 1 1 0 0 0 13 11 L 13 9 A 1 1 0 0 0 12 8 z M 4 14 A 1 1 0 0 0 3 15 L 3 18 A 1 1 0 0 0 4 19 A 1 1 0 0 0 5 18 L 5 15 A 1 1 0 0 0 4 14 z M 2 20 A 1 1 0 0 0 1 21 A 1 1 0 0 0 2 22 L 22 22 A 1 1 0 0 0 23 21 A 1 1 0 0 0 22 20 L 2 20 z " fill="currentColor"/>
</svg>
