<svg xmlns="http://www.w3.org/2000/svg" width="1em" height="1em" viewBox="0 0 24 24" fill="currentColor">
  <path d="M 12 2.5 C 9.2504204 2.5 7 4.7504204 7 7.5 C 7 8.9989439 7.7755682 10.233942 8.828125 11.152344 L 6.9667969 14.5 C 5.8891027 14.518303 5 15.418451 5 16.5 C 5 17.592731 5.9072936 18.5 7 18.5 C 8.0927064 18.5 9 17.592731 9 16.5 C 9 16.128074 8.894642 15.777057 8.7128906 15.476562 L 10.931641 11.482422 A 1.0001 1.0001 0 0 0 10.542969 10.123047 C 9.6231909 9.6109223 9 8.6360612 9 7.5 C 9 5.8312996 10.3313 4.5 12 4.5 C 13.668651 4.5 15 5.8313116 15 7.5 A 1 1 0 0 0 16 8.5 A 1 1 0 0 0 17 7.5 C 17 4.7504084 14.749549 2.5 12 2.5 z M 12 5.5 C 10.907269 5.5 10 6.4072936 10 7.5 C 10 8.5814555 10.889173 9.4815845 11.966797 9.5 L 14.183594 13.488281 A 1.0001 1.0001 0 0 0 15.542969 13.876953 C 15.974098 13.636954 16.467452 13.5 17 13.5 C 18.668639 13.5 20 14.831361 20 16.5 C 20 18.168639 18.668639 19.5 17 19.5 C 16.285555 19.5 15.639428 19.254136 15.125 18.841797 A 1 1 0 0 0 13.71875 18.998047 A 1 1 0 0 0 13.875 20.402344 C 14.730172 21.087805 15.822645 21.5 17 21.5 C 19.749561 21.5 22 19.249561 22 16.5 C 22 13.750439 19.749561 11.5 17 11.5 C 16.48431 11.5 16.04293 11.722827 15.572266 11.869141 L 13.712891 8.5234375 C 13.894569 8.2229849 14 7.87184 14 7.5 C 14 6.4072936 13.092731 5.5 12 5.5 z M 5.078125 12 A 1 1 0 0 0 4.5761719 12.125 C 3.0384924 12.978301 2 14.625567 2 16.5 C 2 19.249549 4.2504084 21.5 7 21.5 C 9.395526 21.5 11.317234 19.758202 11.796875 17.5 L 15.273438 17.5 C 15.622633 18.094868 16.269823 18.5 17 18.5 C 18.092707 18.5 19 17.592707 19 16.5 C 19 15.407293 18.092707 14.5 17 14.5 C 16.269823 14.5 15.622633 14.905132 15.273438 15.5 L 11 15.5 A 1.0001 1.0001 0 0 0 10 16.5 C 10 18.168651 8.6686884 19.5 7 19.5 C 5.3313116 19.5 4 18.168651 4 16.5 C 4 15.362433 4.6251345 14.386499 5.546875 13.875 A 1 1 0 0 0 5.9355469 12.515625 A 1 1 0 0 0 5.078125 12 z " fill="currentColor"/>
</svg>
