<svg xmlns="http://www.w3.org/2000/svg" width="1em" height="1em" viewBox="0 0 24 24" fill="currentColor">
  <path d="M 3 2 A 1 1 0 0 0 2.2929688 2.2929688 A 1 1 0 0 0 2.2929688 3.7070312 L 8.9746094 10.388672 L 6.9667969 14 C 5.8891963 14.018415 5 14.91852 5 16 C 5 17.092731 5.9072936 18 7 18 C 8.0927064 18 9 17.092731 9 16 C 9 15.628074 8.894642 15.277057 8.7128906 14.976562 L 10.445312 11.859375 L 13.585938 15 L 11 15 A 1.0001 1.0001 0 0 0 10 16 C 10 17.668651 8.6686884 19 7 19 C 5.3313116 19 4 17.668651 4 16 C 4 14.862433 4.6251345 13.886499 5.546875 13.375 A 1 1 0 0 0 5.9355469 12.015625 A 1 1 0 0 0 4.5761719 11.625 C 3.0384924 12.478301 2 14.125567 2 16 C 2 18.749549 4.2504084 21 7 21 C 9.395526 21 11.317234 19.258202 11.796875 17 L 15.585938 17 L 17.539062 18.953125 C 17.364997 18.984519 17.184367 19 17 19 C 16.285555 19 15.639428 18.754136 15.125 18.341797 A 1 1 0 0 0 13.71875 18.498047 A 1 1 0 0 0 13.875 19.902344 C 14.730172 20.587805 15.822645 21 17 21 C 17.75359 21 18.473119 20.832122 19.117188 20.53125 L 20.292969 21.707031 A 1 1 0 0 0 21.707031 21.707031 A 1 1 0 0 0 21.707031 20.292969 L 20.015625 18.601562 A 1 1 0 0 0 19.966797 18.552734 L 16.716797 15.302734 A 1 1 0 0 0 16.697266 15.283203 L 3.7070312 2.2929688 A 1 1 0 0 0 3 2 z M 12 2 C 10.307304 2 8.7974513 2.848752 7.8945312 4.1445312 A 1 1 0 0 0 8.1445312 5.5371094 A 1 1 0 0 0 9.5371094 5.2871094 C 10.079609 4.5085686 10.972696 4 12 4 C 13.668651 4 15 5.3313116 15 7 A 1 1 0 0 0 16 8 A 1 1 0 0 0 17 7 C 17 4.2504084 14.749549 2 12 2 z M 12 5 C 10.907269 5 10 5.9072936 10 7 C 10 8.0927064 10.907269 9 12 9 C 13.092731 9 14 8.0927064 14 7 C 14 5.9072936 13.092731 5 12 5 z M 17 11 C 16.615488 11 16.238564 11.04397 15.876953 11.126953 A 1 1 0 0 0 15.126953 12.324219 A 1 1 0 0 0 16.324219 13.076172 C 16.540408 13.026558 16.766512 13 17 13 C 18.668639 13 20 14.331361 20 16 C 20 16.233488 19.973438 16.459592 19.923828 16.675781 A 1 1 0 0 0 20.675781 17.873047 A 1 1 0 0 0 21.873047 17.123047 C 21.956031 16.761436 22 16.384512 22 16 C 22 13.250439 19.749561 11 17 11 z " fill="currentColor"/>
</svg>
