<svg xmlns="http://www.w3.org/2000/svg" width="1em" height="1em" viewBox="0 0 24 24" fill="currentColor">
  <path d="M 10 1 C 8.11438 1 6.6810556 0.99457301 5.4785156 1.15625 C 4.2759756 1.317927 3.240311 1.689383 2.4648438 2.4648438 C 1.689383 3.240311 1.317927 4.2759756 1.15625 5.4785156 C 0.99457301 6.6810556 1 8.11438 1 10 L 1 12 C 1 13.8856 0.994573 15.318937 1.15625 16.521484 C 1.3179268 17.724031 1.6893545 18.759713 2.4648438 19.535156 C 3.2403087 20.310634 4.2759729 20.682068 5.4785156 20.84375 C 6.6810584 21.005432 8.11438 21 10 21 A 1 1 0 0 0 11 20 A 1 1 0 0 0 10 19 C 8.11438 19 6.7201079 18.9945 5.7441406 18.863281 C 4.7681734 18.732063 4.2750213 18.517216 3.8789062 18.121094 C 3.4828254 17.725037 3.2679343 17.231837 3.1367188 16.255859 C 3.005503 15.279881 3 13.8856 3 12 L 3 10 C 3 9.2589157 3.000768 8.5937272 3.0097656 8 L 18.990234 8 C 18.999232 8.5937274 19 9.258916 19 10 A 1 1 0 0 0 20 11 A 1 1 0 0 0 21 10 C 21 8.11438 21.005432 6.6810584 20.84375 5.4785156 C 20.682068 4.2759729 20.310634 3.2403086 19.535156 2.4648438 C 18.759713 1.6893545 17.724031 1.3179268 16.521484 1.15625 C 15.318937 0.99457318 13.8856 1 12 1 L 10 1 z M 10 3 L 12 3 C 13.8856 3 15.279881 3.0054999 16.255859 3.1367188 C 17.231837 3.2679343 17.725037 3.4828254 18.121094 3.8789062 C 18.517216 4.2750212 18.732063 4.7681734 18.863281 5.7441406 C 18.874346 5.8264381 18.885182 5.91171 18.894531 6 L 3.1054688 6 C 3.1148177 5.91171 3.1256541 5.8264382 3.1367188 5.7441406 C 3.2679342 4.7681706 3.4827969 4.2750188 3.8789062 3.8789062 C 4.2750189 3.482797 4.7681706 3.2679342 5.7441406 3.1367188 C 6.7201106 3.0055032 8.11438 3 10 3 z M 17.5 12 C 14.474269 12 12 14.474269 12 17.5 C 12 20.525731 14.474269 23 17.5 23 C 20.525731 23 23 20.525731 23 17.5 C 23 14.474269 20.525731 12 17.5 12 z M 17.5 14 C 19.444869 14 21 15.555131 21 17.5 C 21 19.444869 19.444869 21 17.5 21 C 15.555131 21 14 19.444869 14 17.5 C 14 15.555131 15.555131 14 17.5 14 z M 19.302734 15.5 A 1 1 0 0 0 18.916016 15.556641 C 17.890818 15.919722 17.195181 16.680214 16.689453 17.314453 C 16.673863 17.334013 16.679283 17.332133 16.664062 17.351562 C 16.647533 17.339842 16.633717 17.303989 16.617188 17.292969 C 16.438094 17.173572 16.262773 17.097957 16.111328 17.054688 C 15.959883 17.011418 15.75 17 15.75 17 A 1 1 0 0 0 14.75 18 A 1 1 0 0 0 15.533203 18.976562 C 15.584061 19.01991 15.703508 19.143346 15.855469 19.447266 A 1.0001 1.0001 0 0 0 17.628906 19.478516 C 17.628906 19.478516 17.860631 19.051308 18.251953 18.560547 C 18.643275 18.069786 19.197382 17.580278 19.583984 17.443359 A 1 1 0 0 0 20.193359 16.166016 A 1 1 0 0 0 19.302734 15.5 z " fill="currentColor"/>
</svg>
