<svg xmlns="http://www.w3.org/2000/svg" width="1em" height="1em" viewBox="0 0 24 24" fill="currentColor">
  <path d="M 10.650391 1 C 9.6596552 1 8.9002209 0.99510023 8.2304688 1.0742188 C 7.5607165 1.1533373 6.9148204 1.3418508 6.4140625 1.7988281 C 6.1798444 2.0125763 5.9805039 2.2611866 5.8242188 2.5371094 C 5.5509673 3.0195112 5.4790164 3.5596117 5.5078125 4.1015625 C 4.5752834 4.2377502 3.7899671 4.5253717 3.171875 5.1445312 C 2.5430202 5.7744667 2.2441557 6.6193373 2.1191406 7.5507812 C 1.9941255 8.4822254 2 9.5638336 2 10.980469 L 2 15.990234 C 2 17.406884 1.99413 18.488482 2.1191406 19.419922 C 2.2441559 20.351362 2.5430288 21.196238 3.171875 21.826172 C 3.8007287 22.456113 4.6438067 22.755552 5.5742188 22.880859 C 6.504631 23.006167 7.585785 23 9 23 L 15 23 C 16.4142 23 17.495373 23.0062 18.425781 22.880859 C 19.35619 22.755552 20.199265 22.456106 20.828125 21.826172 C 21.456983 21.19624 21.755841 20.351364 21.880859 19.419922 C 22.005878 18.488479 22 17.406884 22 15.990234 L 22 10.980469 C 22 9.5638336 22.005878 8.4822277 21.880859 7.5507812 C 21.755841 6.6193348 21.456992 5.7744645 20.828125 5.1445312 C 20.210036 4.5254053 19.424725 4.2377612 18.492188 4.1015625 C 18.520965 3.5596033 18.448978 3.0194914 18.175781 2.5371094 C 18.01958 2.2614146 17.820324 2.0126894 17.585938 1.7988281 C 17.085182 1.3418689 16.439281 1.1533376 15.769531 1.0742188 C 15.099782 0.99510004 14.340359 1 13.349609 1 L 10.650391 1 z M 10.650391 3 L 13.349609 3 C 14.340359 3 15.066856 3.0052299 15.535156 3.0605469 C 16.003457 3.1158679 16.147783 3.196543 16.236328 3.2773438 C 16.315738 3.3498027 16.383748 3.4320123 16.435547 3.5234375 C 16.491447 3.6221315 16.532449 3.7617756 16.474609 4.2128906 C 16.461141 4.3179337 16.441169 4.4354005 16.416016 4.5664062 A 1 1 0 0 0 16.318359 4.9550781 A 1 1 0 0 0 16.318359 5.0292969 C 16.237185 5.383943 16.13067 5.8047574 16.005859 6.2929688 C 15.622649 7.7917292 15.430753 8.3320087 15.193359 8.5605469 C 15.109059 8.6417239 15.015966 8.7145415 14.914062 8.7753906 C 14.653837 8.9307971 14.140404 8.9880798 12.888672 8.9980469 L 13.449219 7.3164062 A 1 1 0 0 0 12.816406 6.0507812 A 1 1 0 0 0 11.550781 6.6835938 L 10.78125 8.9941406 C 9.7669721 8.9766557 9.3218992 8.9163084 9.0859375 8.7753906 C 8.9839976 8.7145124 8.8909644 8.6417316 8.8066406 8.5605469 C 8.5692425 8.3319864 8.3772817 7.7916929 7.9941406 6.2929688 C 7.8693306 5.8047404 7.7628153 5.3839448 7.6816406 5.0292969 A 1 1 0 0 0 7.6816406 4.9550781 A 1 1 0 0 0 7.5839844 4.5664062 C 7.5588283 4.4353944 7.5388624 4.3179383 7.5253906 4.2128906 C 7.4675378 3.7617766 7.5085643 3.6221045 7.5644531 3.5234375 C 7.616108 3.4322403 7.68415 3.3499156 7.7636719 3.2773438 C 7.8521939 3.196561 7.9965383 3.1158683 8.4648438 3.0605469 C 8.933149 3.0052254 9.6596552 3 10.650391 3 z M 5.8730469 6.0644531 C 5.929961 6.2909103 5.9912214 6.5312044 6.0566406 6.7871094 C 6.4397796 8.2858253 6.630847 9.2441337 7.4179688 10.001953 C 7.6124851 10.189228 7.8285268 10.353625 8.0605469 10.492188 C 8.9799676 11.041271 9.939254 11.001766 11.464844 11 C 11.489369 10.999972 11.512289 11.000006 11.537109 11 C 11.543285 10.999998 11.550446 11 11.556641 11 L 12.443359 11 C 14.023059 11 15.001591 11.05227 15.939453 10.492188 C 16.17155 10.353597 16.387535 10.189236 16.582031 10.001953 C 17.369238 9.2441114 17.56017 8.2857889 17.943359 6.7871094 C 18.008782 6.5312006 18.070037 6.2909105 18.126953 6.0644531 C 18.814896 6.1507132 19.162684 6.3048399 19.414062 6.5566406 C 19.663896 6.8068973 19.803781 7.1111677 19.898438 7.8164062 C 19.993094 8.5216449 20 9.5638335 20 10.980469 L 20 15.990234 C 20 17.406884 19.9931 18.449064 19.898438 19.154297 C 19.803777 19.859529 19.663905 20.163794 19.414062 20.414062 C 19.164223 20.66433 18.86167 20.803695 18.158203 20.898438 C 17.454736 20.99318 16.4142 21 15 21 L 9 21 C 7.585785 21 6.5452673 20.99318 5.8417969 20.898438 C 5.1383265 20.803695 4.8357638 20.664321 4.5859375 20.414062 C 4.3361037 20.163797 4.1962172 19.859532 4.1015625 19.154297 C 4.0069078 18.449062 4 17.406884 4 15.990234 L 4 10.980469 C 4 9.5638336 4.0069076 8.5216473 4.1015625 7.8164062 C 4.1962174 7.1111653 4.3361123 6.8068952 4.5859375 6.5566406 C 4.8372687 6.3048754 5.1850758 6.1507248 5.8730469 6.0644531 z M 10 17 A 1 1 0 0 0 9 18 A 1 1 0 0 0 10 19 L 14 19 A 1 1 0 0 0 15 18 A 1 1 0 0 0 14 17 L 10 17 z " fill="currentColor"/>
</svg>
