<svg xmlns="http://www.w3.org/2000/svg" width="1em" height="1em" viewBox="0 0 24 24" fill="currentColor">
  <path d="M 5.3125 1 C 4.96818 1 4.696251 0.99415877 4.4042969 1.0273438 C 4.1123427 1.0605288 3.7023749 1.1476345 3.3808594 1.5019531 C 3.2322242 1.6657455 3.1190209 1.8638945 3.0546875 2.0800781 C 2.9146622 2.5508134 3.0776825 2.9725457 3.2167969 3.2324219 C 3.3559112 3.4922981 3.5121271 3.7039053 3.703125 3.9746094 C 4.1932545 4.6692986 4.4997031 5.1445861 5.0703125 5.5058594 C 5.2409155 5.6138785 5.4211767 5.7056965 5.609375 5.7792969 C 6.2374735 6.024946 6.8039 6 7.6875 6 L 9 6 L 9 7.5859375 C 6.0726847 8.7767026 4 11.653496 4 15 L 4 18.888672 C 4 20.20077 4.2458795 21.304615 5.0273438 22.056641 C 5.808808 22.808667 6.8886529 23 8.1113281 23 L 15.888672 23 C 17.200775 23 18.304618 22.754121 19.056641 21.972656 C 19.808663 21.191192 20 20.111329 20 18.888672 L 20 15 C 20 11.653496 17.927319 8.7767022 15 7.5859375 L 15 6 L 16.3125 6 C 17.1961 6 17.762526 6.024915 18.390625 5.7792969 C 18.578787 5.7056939 18.759128 5.6138508 18.929688 5.5058594 C 19.50048 5.144559 19.806717 4.6692296 20.296875 3.9746094 C 20.487815 3.7039238 20.644116 3.4922579 20.783203 3.2324219 C 20.92229 2.9725859 21.085254 2.5508151 20.945312 2.0800781 C 20.880865 1.8630959 20.767498 1.665472 20.619141 1.5019531 C 20.297633 1.1476651 19.887653 1.0605294 19.595703 1.0273438 C 19.303754 0.99415822 19.0318 1 18.6875 1 L 5.3125 1 z M 5.4804688 3 L 18.519531 3 C 18.200061 3.4400404 17.966816 3.7496345 17.861328 3.8164062 C 17.799688 3.8554353 17.732147 3.8886196 17.662109 3.9160156 C 17.512609 3.9744781 17.1961 4 16.3125 4 L 14 4 L 10 4 L 7.6875 4 C 6.8039 4 6.4872921 3.9744465 6.3378906 3.9160156 C 6.2678289 3.888616 6.2002689 3.8554071 6.1386719 3.8164062 C 6.0331488 3.7495957 5.7998878 3.4400147 5.4804688 3 z M 11 6 L 13 6 L 13 7.0625 C 12.672306 7.0213353 12.338552 7 12 7 C 11.661448 7 11.327694 7.0213351 11 7.0625 L 11 6 z M 12 9 C 15.325562 9 18 11.674438 18 15 L 18 18.888672 C 18 19.890915 17.824887 20.368077 17.615234 20.585938 C 17.405582 20.803798 16.952069 21 15.888672 21 L 8.1113281 21 C 7.1090633 21 6.6319183 20.824883 6.4140625 20.615234 C 6.1962067 20.405585 6 19.952073 6 18.888672 L 6 15 C 6 11.67444 8.6744494 9 12 9 z M 12 10 C 9.2504084 10 7 12.250451 7 15 A 1 1 0 0 0 8 16 A 1 1 0 0 0 9 15 C 9 13.331349 10.331312 12 12 12 C 13.668639 12 15 13.331361 15 15 A 1 1 0 0 0 16 16 A 1 1 0 0 0 17 15 C 17 12.250439 14.749561 10 12 10 z M 12.939453 14.001953 A 1 1 0 0 0 12.683594 14.050781 A 1 1 0 0 0 12.105469 14.552734 L 11.105469 16.552734 A 1 1 0 0 0 11.552734 17.894531 A 1 1 0 0 0 12.894531 17.447266 L 13.894531 15.447266 A 1 1 0 0 0 13.447266 14.105469 A 1 1 0 0 0 12.939453 14.001953 z " fill="currentColor"/>
</svg>
