<svg xmlns="http://www.w3.org/2000/svg" width="1em" height="1em" viewBox="0 0 24 24" fill="currentColor">
  <path d="M 12.001953 1 A 1.0001 1.0001 0 0 0 11.273438 1.3164062 C 11.273438 1.3164062 8.9023437 3.7315945 8.9023438 7 C 8.9023438 8.3744833 9.3422371 9.5394433 9.828125 10.496094 C 9.0956751 10.237703 8.326138 9.8815331 7.7167969 9.2597656 C 6.7733463 8.2970654 6.4086703 7.0893259 6.2167969 6.1230469 C 6.6423378 6.1926275 6.7429446 6.1382478 7.3339844 6.3652344 A 1 1 0 0 0 8.625 5.7890625 A 1 1 0 0 0 8.0507812 4.4980469 C 6.4551906 3.8852665 5.0234375 3.8574219 5.0234375 3.8574219 A 1.0001 1.0001 0 0 0 4.0019531 4.8789062 C 4.0019531 4.8789062 3.9920831 8.3163526 6.2871094 10.658203 C 8.5821288 13.000025 11.980469 13 11.980469 13 A 1 1 0 0 0 11.986328 12.994141 A 1.0001 1.0001 0 0 0 12.017578 12.994141 A 1 1 0 0 0 12.023438 13 C 12.023438 13 15.421777 13.000025 17.716797 10.658203 C 20.011821 8.3163526 20.001953 4.8789062 20.001953 4.8789062 A 1.0001 1.0001 0 0 0 18.980469 3.8574219 C 18.980469 3.8574219 17.548707 3.8852609 15.953125 4.4980469 A 1 1 0 0 0 15.378906 5.7890625 A 1 1 0 0 0 16.669922 6.3652344 C 17.260947 6.1382504 17.361559 6.1926276 17.787109 6.1230469 C 17.595236 7.0893259 17.23056 8.2970654 16.287109 9.2597656 C 15.677768 9.8815331 14.908231 10.237703 14.175781 10.496094 C 14.661669 9.5394433 15.101562 8.3744833 15.101562 7 C 15.101562 3.7315945 12.730469 1.3164062 12.730469 1.3164062 A 1.0001 1.0001 0 0 0 12.001953 1 z M 12.001953 3.7304688 C 12.529359 4.5402771 13.101562 5.6444307 13.101562 7 C 13.101562 8.3555693 12.529359 9.4597231 12.001953 10.269531 C 11.474547 9.4597231 10.902344 8.3555693 10.902344 7 C 10.902344 5.6444307 11.474547 4.540277 12.001953 3.7304688 z M 5.7167969 13 C 5.0330011 12.992954 4.4083507 13.070311 4 13.070312 A 1 1 0 0 0 3 14.070312 A 1 1 0 0 0 4 15.070312 C 4.6061493 15.070312 5.1970214 14.99484 5.6972656 15 C 6.1975098 15.0052 6.5481612 15.09442 6.7285156 15.226562 L 8.4902344 16.517578 C 9.5071633 17.262737 10.642487 17.01449 11.332031 16.90625 C 11.539838 16.87362 11.719311 17.014703 11.847656 17.230469 C 11.736971 17.283049 11.657845 17.327359 11.529297 17.382812 C 11.006172 17.608494 10.543671 17.76643 10.201172 17.927734 C 9.9369917 18.052171 9.6740479 18.028535 9.421875 17.84375 L 7.4335938 16.386719 A 1 1 0 0 0 6.0351562 16.601562 A 1 1 0 0 0 6.2519531 18 L 8.2382812 19.457031 C 9.051094 20.052651 10.140284 20.165296 11.052734 19.736328 C 11.009834 19.756528 11.734091 19.472494 12.322266 19.21875 C 12.616353 19.091878 12.904035 18.959963 13.164062 18.8125 C 13.294075 18.73877 13.416159 18.665903 13.556641 18.546875 C 13.697122 18.427847 14 18.284303 14 17.65625 C 14 17.650867 14.000031 17.646003 14 17.640625 L 17.425781 16.056641 C 17.788889 15.93266 18.172269 16.018671 18.457031 16.316406 L 18.726562 16.599609 L 11.380859 20.867188 C 11.141912 21.005951 10.874167 21.035755 10.617188 20.958984 L 4.2871094 19.068359 A 1 1 0 0 0 3.0410156 19.740234 A 1 1 0 0 0 3.7128906 20.984375 L 10.044922 22.876953 C 10.828941 23.11118 11.677313 23.00654 12.384766 22.595703 L 20.240234 18.035156 C 21.101056 17.535165 21.252633 16.346071 20.572266 15.634766 L 19.902344 14.933594 C 19.49895 14.511823 18.989902 14.224528 18.443359 14.089844 C 17.896817 13.95516 17.31263 13.974018 16.761719 14.166016 A 1.0001 1.0001 0 0 0 16.671875 14.201172 L 13.279297 15.769531 C 12.725746 15.149498 11.907643 14.790557 11.021484 14.929688 C 10.249629 15.050847 9.9664792 15.118737 9.6738281 14.904297 L 7.9101562 13.613281 C 7.2022907 13.094627 6.4005927 13.007046 5.7167969 13 z " fill="currentColor"/>
</svg>
