<svg xmlns="http://www.w3.org/2000/svg" width="1em" height="1em" viewBox="0 0 24 24" fill="currentColor">
  <path d="M 18.78125 2.0019531 C 17.542755 2.0178802 15.979553 2.3505982 14.707031 3.6230469 C 14.262747 4.0673021 14.061083 4.5640645 13.818359 5.0507812 C 13.414474 4.5313462 12.981237 4.0293084 12.605469 3.7363281 C 11.762665 3.0791655 10.551828 3.079267 9.7089844 3.7363281 C 8.7625476 4.4743363 7.4033903 5.9499638 7.3515625 8.1269531 C 6.5969859 7.8431709 5.7530831 7.8346416 5.0976562 8.3457031 C 4.1330503 9.0978317 2.7089844 10.595003 2.7089844 12.841797 C 2.7089844 15.453112 4.2769564 16.714246 5.2363281 17.349609 L 2.2929688 20.292969 A 1 1 0 0 0 2.2929688 21.707031 A 1 1 0 0 0 3.7070312 21.707031 L 6.6503906 18.763672 C 7.2858034 19.722959 8.5468726 21.291016 11.158203 21.291016 C 13.40492 21.291016 14.902064 19.866949 15.654297 18.902344 C 16.165572 18.246876 16.156951 17.403117 15.873047 16.648438 C 18.050061 16.596647 19.52756 15.237452 20.265625 14.291016 C 20.923052 13.448178 20.922951 12.237409 20.265625 11.394531 C 19.972644 11.01888 19.470603 10.58546 18.951172 10.181641 C 19.437412 9.9390007 19.933108 9.7367764 20.376953 9.2929688 C 22.073539 7.5963829 22.100069 5.382897 21.931641 4.1113281 C 21.792051 3.0566842 20.943195 2.2080275 19.888672 2.0683594 C 19.570767 2.0262464 19.194082 1.9966441 18.78125 2.0019531 z M 18.828125 4 C 19.116791 3.9979188 19.386855 4.0192342 19.625 4.0507812 C 19.818677 4.0764333 19.923608 4.1795508 19.949219 4.3730469 A 1.0001 1.0001 0 0 0 19.949219 4.375 C 20.075391 5.3275512 20.044109 6.7976921 18.962891 7.8789062 C 17.608045 9.2336406 15.911069 8.9356526 15.222656 8.7773438 C 15.064315 8.0890085 14.766254 6.3918597 16.121094 5.0371094 C 16.932072 4.226178 17.962126 4.0062435 18.828125 4 z M 11.158203 5.2246094 C 11.230059 5.2246221 11.301955 5.2540213 11.376953 5.3125 C 12.086661 5.8658468 12.994141 6.840637 12.994141 8.2324219 C 12.994141 9.977973 11.736836 10.885373 11.158203 11.253906 C 10.579592 10.885376 9.3203125 9.9779919 9.3203125 8.2324219 C 9.3203125 6.840637 10.229801 5.8658696 10.939453 5.3125 C 11.014532 5.2539706 11.086347 5.2245967 11.158203 5.2246094 z M 6.546875 9.8359375 C 6.6187523 9.8359362 6.6906255 9.8653494 6.765625 9.9238281 C 7.475305 10.477199 8.3847656 11.449991 8.3847656 12.841797 C 8.3847656 14.587923 7.1251145 15.497052 6.546875 15.865234 C 5.9686355 15.497052 4.7089844 14.587923 4.7089844 12.841797 C 4.7089844 11.449991 5.618451 10.47718 6.328125 9.9238281 C 6.4031165 9.8653544 6.4749977 9.8359388 6.546875 9.8359375 z M 15.767578 11.005859 C 17.159424 11.005859 18.134056 11.915391 18.6875 12.625 C 18.804574 12.775122 18.804473 12.912538 18.6875 13.0625 C 18.134079 13.772164 17.159424 14.679687 15.767578 14.679688 C 14.022232 14.679688 13.114939 13.422667 12.746094 12.84375 C 13.114644 12.265155 14.021771 11.005859 15.767578 11.005859 z M 11.158203 15.615234 C 12.550086 15.615234 13.524758 16.52478 14.078125 17.234375 C 14.195058 17.384286 14.195058 17.521964 14.078125 17.671875 C 13.524758 18.38147 12.550086 19.291016 11.158203 19.291016 C 9.4124762 19.291016 8.5033198 18.031699 8.1347656 17.453125 C 8.5033234 16.874529 9.4124951 15.615234 11.158203 15.615234 z " fill="currentColor"/>
</svg>
