<svg xmlns="http://www.w3.org/2000/svg" width="1em" height="1em" viewBox="0 0 24 24" fill="currentColor">
  <path d="M 17.5 0.99804688 C 17.316182 0.99832982 17.130466 1.0072527 16.945312 1.0234375 C 15.287126 1.1683845 13.59742 1.9455145 12.271484 3.2714844 C 9.886537 5.6564014 9.2779719 9.2175851 10.927734 11.658203 L 7.4003906 15.185547 C 7.0980666 15.065875 6.7766108 15.005859 6.4550781 15.005859 C 5.8018514 15.005859 5.1488294 15.253457 4.65625 15.746094 L 1.7460938 18.65625 C 0.76088829 19.641406 0.76088829 21.26875 1.7460938 22.253906 C 2.7312526 23.239179 4.3585913 23.239179 5.34375 22.253906 L 8.2539062 19.34375 C 8.9888534 18.60884 9.1760231 17.516076 8.8144531 16.599609 L 12.341797 13.072266 C 14.782409 14.722046 18.343648 14.113485 20.728516 11.728516 C 23.238927 9.2181678 23.780898 5.4051388 21.792969 2.9667969 C 21.714497 2.8093158 21.609578 2.6603593 21.474609 2.5253906 C 21.339684 2.3904654 21.19063 2.2854937 21.033203 2.2070312 C 20.026642 1.3861357 18.786726 0.99606624 17.5 0.99804688 z M 17.306641 3.0039062 C 16.354151 3.5868812 15.349472 4.3927155 14.371094 5.3710938 C 13.392494 6.3496977 12.586914 7.3539578 12.003906 8.3066406 C 12.051092 7.0873745 12.602169 5.7689102 13.685547 4.6855469 C 14.693011 3.6780567 15.905444 3.1313999 17.050781 3.0214844 C 17.136526 3.0132556 17.221758 3.0072371 17.306641 3.0039062 z M 19.992188 4.0078125 C 19.966648 4.2186099 19.851355 4.5961229 19.628906 5.0410156 C 19.182248 5.9343215 18.329704 7.0999787 17.214844 8.2148438 C 16.099981 9.3296874 14.934308 10.182253 14.041016 10.628906 C 13.596129 10.851353 13.218604 10.96665 13.007812 10.992188 C 13.033352 10.781393 13.148645 10.403875 13.371094 9.9589844 C 13.817751 9.0656836 14.670295 7.9000222 15.785156 6.7851562 C 16.900017 5.6702952 18.065694 4.8177455 18.958984 4.3710938 C 19.403869 4.1486481 19.781398 4.0333485 19.992188 4.0078125 z M 20.996094 6.6933594 C 20.948909 7.9126324 20.39783 9.2311039 19.314453 10.314453 C 18.231141 11.397812 16.912639 11.948902 15.693359 11.996094 C 16.646033 11.413084 17.650318 10.607478 18.628906 9.6289062 C 19.607506 8.6503022 20.413087 7.6460424 20.996094 6.6933594 z M 6.4550781 16.994141 C 6.5922356 16.994141 6.7293931 17.049693 6.8398438 17.160156 C 7.0606982 17.381 7.0606983 17.708844 6.8398438 17.929688 L 3.9296875 20.839844 C 3.7087862 21.060771 3.3810574 21.060771 3.1601562 20.839844 C 2.9393017 20.619 2.9393017 20.291156 3.1601562 20.070312 L 6.0703125 17.160156 C 6.1807632 17.049693 6.3179206 16.994141 6.4550781 16.994141 z " fill="currentColor"/>
</svg>
