<svg xmlns="http://www.w3.org/2000/svg" width="1em" height="1em" viewBox="0 0 24 24" fill="currentColor">
  <path d="M 12 2 C 8.8953593 2 5.9881821 2.9362338 3.53125 4.5507812 C 2.9002082 4.9654574 2.387731 5.2893683 1.9433594 5.7207031 C 1.4989877 6.152038 1.1524765 6.747549 1.0410156 7.4101562 C 0.92374269 8.1073224 1.0943448 8.8111075 1.4042969 9.4140625 C 1.5957203 9.7864421 1.831439 10.14518 2.1113281 10.539062 A 1 1 0 0 0 2.1894531 11.585938 A 1 1 0 0 0 3.1679688 11.986328 L 4.203125 13.398438 A 1 1 0 0 0 4.1503906 14.525391 A 1 1 0 0 0 5.3339844 14.941406 L 5.3359375 14.941406 L 7.0351562 17.259766 A 1 1 0 0 0 7.1152344 17.464844 A 1 1 0 0 0 7.4609375 17.839844 A 1 1 0 0 0 7.4628906 17.841797 L 8.0175781 18.599609 C 8.7486202 19.596605 9.3006136 20.362852 9.8769531 20.951172 C 10.453293 21.539492 11.170466 22 12 22 C 12.829534 22 13.546706 21.539491 14.123047 20.951172 C 14.699387 20.362853 15.251375 19.596605 15.982422 18.599609 L 16.537109 17.841797 A 1 1 0 0 0 16.539062 17.839844 A 1 1 0 0 0 16.884766 17.464844 A 1 1 0 0 0 16.964844 17.259766 L 18.664062 14.941406 A 1 1 0 0 0 18.666016 14.941406 A 1 1 0 0 0 19.849609 14.525391 A 1 1 0 0 0 19.796875 13.398438 L 20.832031 11.986328 A 1 1 0 0 0 21.810547 11.585938 A 1 1 0 0 0 21.888672 10.539062 C 22.168561 10.14518 22.404281 9.786441 22.595703 9.4140625 C 22.905653 8.8111082 23.076257 8.1073224 22.958984 7.4101562 C 22.847525 6.7475592 22.50101 6.152042 22.056641 5.7207031 C 21.612271 5.2893643 21.099806 4.9654601 20.46875 4.5507812 C 18.011793 2.9362385 15.104641 2 12 2 z M 12 4 C 14.703759 4 17.221451 4.8100591 19.371094 6.2226562 C 20.002138 6.6373274 20.437633 6.9364588 20.664062 7.15625 C 20.890494 7.3760412 20.938687 7.4589746 20.986328 7.7421875 C 21.028158 7.9908415 21.008338 8.1304368 20.818359 8.5 C 20.705941 8.7186909 20.526801 8.9945599 20.287109 9.3359375 C 17.689091 7.7893893 14.844013 7.015625 12 7.015625 C 9.1559869 7.015625 6.3109067 7.7893892 3.7128906 9.3359375 C 3.4732001 8.9945598 3.2940595 8.7186904 3.1816406 8.5 C 2.9916652 8.1304375 2.9718448 7.9908415 3.0136719 7.7421875 C 3.061311 7.4589848 3.1094992 7.3760452 3.3359375 7.15625 C 3.5623758 6.9364548 3.997868 6.6373302 4.6289062 6.2226562 C 6.7785141 4.8100637 9.2962407 4 12 4 z M 12 8.984375 C 14.424599 8.9843751 16.848996 9.6421379 19.105469 10.958984 L 18.076172 12.363281 C 16.148979 11.455989 14.074228 11.001953 12 11.001953 C 9.9257708 11.001953 7.8510257 11.455988 5.9238281 12.363281 L 4.8945312 10.958984 C 7.151001 9.6421384 9.5754011 8.9843749 12 8.984375 z M 12 12.996094 C 13.655096 12.996093 15.31097 13.334017 16.869141 14.009766 L 15.615234 15.71875 C 14.451685 15.242343 13.22601 15.003906 12 15.003906 C 10.773991 15.003906 9.5483145 15.242343 8.3847656 15.71875 L 7.1308594 14.009766 C 8.6890383 13.334015 10.344904 12.996094 12 12.996094 z M 12 16.996094 C 12.803746 16.996094 13.607844 17.128449 14.388672 17.392578 L 14.369141 17.417969 C 13.638087 18.414973 13.093719 19.144054 12.693359 19.552734 C 12.293 19.961415 12.153166 20 12 20 C 11.846834 20 11.706999 19.961415 11.306641 19.552734 C 10.906283 19.144054 10.361907 18.414973 9.6308594 17.417969 L 9.6113281 17.392578 C 10.392156 17.128449 11.196254 16.996094 12 16.996094 z " fill="currentColor"/>
</svg>
