<svg xmlns="http://www.w3.org/2000/svg" width="1em" height="1em" viewBox="0 0 24 24" fill="currentColor">
  <path d="M 12 3.5 C 8.0646281 3.5 4.2672364 4.9506418 1.3339844 7.5742188 A 1 1 0 0 0 1.2539062 8.9863281 A 1 1 0 0 0 2.6660156 9.0644531 C 5.2329834 6.7684901 8.5560519 5.5 12 5.5 C 15.443991 5.5 18.767025 6.7684891 21.333984 9.0644531 A 1 1 0 0 0 22.746094 8.9863281 A 1 1 0 0 0 22.666016 7.5742188 C 19.732777 4.9506428 15.935409 3.5 12 3.5 z M 12 8.5 C 9.121076 8.5 6.3567418 9.6292548 4.3007812 11.644531 A 1 1 0 0 0 4.2851562 13.058594 A 1 1 0 0 0 5.6992188 13.072266 C 7.3818382 11.422944 9.643864 10.5 12 10.5 C 14.356103 10.5 16.618153 11.422943 18.300781 13.072266 A 1 1 0 0 0 19.714844 13.058594 A 1 1 0 0 0 19.699219 11.644531 C 17.643252 9.6292526 14.878897 8.5 12 8.5 z M 12 13.5 C 10.429841 13.5 8.9221021 14.115646 7.8007812 15.214844 A 1 1 0 0 0 7.7851562 16.628906 A 1 1 0 0 0 9.1992188 16.642578 C 9.9471778 15.909378 10.952559 15.5 12 15.5 C 13.047441 15.5 14.052882 15.909403 14.800781 16.642578 A 1 1 0 0 0 16.214844 16.628906 A 1 1 0 0 0 16.199219 15.214844 C 15.077923 14.115616 13.570159 13.5 12 13.5 z M 12 18 C 11.321712 18 10.75 18.571712 10.75 19.25 C 10.75 19.928288 11.321712 20.5 12 20.5 C 12.678288 20.5 13.25 19.928288 13.25 19.25 C 13.25 18.571712 12.678288 18 12 18 z " fill="currentColor"/>
</svg>
