<svg xmlns="http://www.w3.org/2000/svg" width="1em" height="1em" viewBox="0 0 24 24" fill="currentColor">
  <path d="M 12 1 C 11.5844 1 11.255806 0.99478513 10.917969 1.0332031 C 10.580132 1.0716221 10.182921 1.1769211 9.8535156 1.4414062 C 9.6881275 1.5741768 9.5434431 1.7322492 9.4277344 1.9101562 C 9.1982001 2.2638592 9.1354571 2.670334 9.1308594 3.0097656 C 9.126254 3.3497592 9.161777 3.6763284 9.203125 4.0898438 L 9.3554688 5.6074219 C 9.4113628 6.1656831 9.4063547 6.6013781 9.7363281 7.1015625 C 9.9223564 7.3834854 10.175708 7.6144961 10.474609 7.7714844 C 10.658216 7.8678943 10.830252 7.9256024 11 7.9589844 L 11 8.7128906 C 10.121195 9.1025943 9.5 9.9855636 9.5 11 C 9.5 11.094641 9.5051066 11.189177 9.515625 11.28125 L 8.8652344 11.65625 C 8.7515065 11.526422 8.6165826 11.405573 8.4414062 11.294922 C 8.1559891 11.114562 7.8291861 11.008474 7.4921875 10.988281 C 6.8940381 10.952561 6.5192447 11.175449 6.0078125 11.40625 L 4.6191406 12.033203 C 4.240353 12.204145 3.9386156 12.335794 3.6464844 12.509766 C 3.3543531 12.683737 3.033253 12.941764 2.8417969 13.318359 C 2.7456269 13.507496 2.6807358 13.710333 2.6484375 13.919922 C 2.5841015 14.337424 2.6944285 14.733138 2.8300781 15.044922 C 2.9657276 15.356706 3.1340027 15.640102 3.3417969 16 C 3.5496019 16.359959 3.7099053 16.64654 3.9121094 16.919922 C 4.1143135 17.193304 4.4030983 17.485672 4.796875 17.638672 C 4.9941973 17.715342 5.201697 17.760252 5.4140625 17.771484 C 5.8359074 17.793944 6.2189054 17.646454 6.515625 17.480469 C 6.8123446 17.314484 7.0766198 17.119494 7.4140625 16.876953 L 8.6523438 15.986328 C 9.1079828 15.6588 9.4896663 15.445963 9.7578125 14.910156 C 9.9089574 14.608106 9.9802879 14.272923 9.9667969 13.935547 C 9.9584934 13.727834 9.9213425 13.550741 9.8652344 13.386719 L 10.519531 13.007812 C 10.667948 13.117927 10.829547 13.211522 11 13.287109 L 11 21 L 6 21 A 1 1 0 0 0 5 22 A 1 1 0 0 0 6 23 L 12 23 L 18 23 A 1 1 0 0 0 19 22 A 1 1 0 0 0 18 21 L 13 21 L 13 13.287109 C 13.170453 13.211522 13.332052 13.117927 13.480469 13.007812 L 14.132812 13.384766 C 14.077159 13.548253 14.04153 13.72627 14.033203 13.933594 A 1.0001 1.0001 0 0 0 14.033203 13.935547 C 14.019803 14.272827 14.091263 14.606355 14.242188 14.908203 A 1.0001 1.0001 0 0 0 14.242188 14.910156 C 14.510366 15.446028 14.892095 15.658856 15.347656 15.986328 L 16.585938 16.875 C 16.923423 17.117626 17.187601 17.31448 17.484375 17.480469 C 17.781149 17.646458 18.164191 17.793934 18.585938 17.771484 C 18.798281 17.760244 19.005953 17.715224 19.203125 17.638672 C 19.596904 17.485676 19.885683 17.193306 20.087891 16.919922 C 20.290098 16.646538 20.450398 16.359959 20.658203 16 C 20.866003 15.6401 21.03427 15.356716 21.169922 15.044922 C 21.305574 14.733128 21.415926 14.337437 21.351562 13.919922 A 1.0001 1.0001 0 0 0 21.351562 13.917969 C 21.319222 13.708728 21.252342 13.507339 21.15625 13.318359 C 20.964795 12.941816 20.645624 12.683747 20.353516 12.509766 C 20.061408 12.335785 19.759676 12.204161 19.380859 12.033203 L 17.992188 11.40625 C 17.48071 11.17546 17.105953 10.952568 16.507812 10.988281 A 1.0001 1.0001 0 0 0 16.505859 10.988281 C 16.168885 11.008481 15.844011 11.112684 15.558594 11.292969 A 1.0001 1.0001 0 0 0 15.556641 11.292969 C 15.38144 11.403772 15.24634 11.524243 15.132812 11.654297 L 14.484375 11.279297 C 14.494839 11.187457 14.5 11.094394 14.5 11 C 14.5 9.9855636 13.878805 9.1025943 13 8.7128906 L 13 7.9589844 C 13.169748 7.9256024 13.341784 7.8678942 13.525391 7.7714844 C 13.824292 7.6144961 14.077644 7.3834854 14.263672 7.1015625 C 14.593645 6.6013781 14.588637 6.1656831 14.644531 5.6074219 L 14.796875 4.0898438 C 14.838225 3.6763332 14.873741 3.3497584 14.869141 3.0097656 C 14.864539 2.6703348 14.8018 2.2638591 14.572266 1.9101562 C 14.456557 1.7322491 14.311873 1.5741767 14.146484 1.4414062 C 13.817079 1.1769211 13.419868 1.0716217 13.082031 1.0332031 C 12.744194 0.9947846 12.4156 1 12 1 z M 6.9765625 2.5 A 1 1 0 0 0 6.359375 2.6777344 C 4.0400441 4.2830456 2.4236202 6.8500238 2.0605469 9.8066406 C 2.0348396 10.01602 2.014887 10.226581 2.0019531 10.439453 A 1 1 0 0 0 2.9394531 11.498047 A 1 1 0 0 0 3.9980469 10.560547 C 4.008493 10.388619 4.0242091 10.217529 4.0449219 10.048828 C 4.3375086 7.666205 5.6391847 5.6075144 7.4960938 4.3222656 A 1 1 0 0 0 7.75 2.9316406 A 1 1 0 0 0 7.1074219 2.515625 A 1 1 0 0 0 6.9765625 2.5 z M 17.023438 2.5019531 A 1 1 0 0 0 16.25 2.9316406 A 1 1 0 0 0 16.503906 4.3222656 C 18.360881 5.6075108 19.662425 7.6661729 19.955078 10.048828 C 19.975768 10.217425 19.991493 10.388447 20.001953 10.560547 A 1 1 0 0 0 21.060547 11.498047 A 1 1 0 0 0 21.998047 10.439453 C 21.985117 10.226753 21.965153 10.016124 21.939453 9.8066406 C 21.576307 6.850056 19.96005 4.2830492 17.640625 2.6777344 A 1 1 0 0 0 17.023438 2.5019531 z M 12 3 C 12.4156 3 12.709131 3.0048404 12.855469 3.0214844 C 12.860866 3.0220981 12.866227 3.0228544 12.871094 3.0234375 C 12.871181 3.0278393 12.871029 3.0322897 12.871094 3.0371094 C 12.873094 3.1843666 12.847991 3.4770755 12.806641 3.890625 L 12.654297 5.4082031 C 12.622441 5.7263689 12.588326 5.9019492 12.576172 5.9785156 C 12.49861 5.9831385 12.31999 6 12 6 C 11.680004 6 11.501388 5.9831381 11.423828 5.9785156 C 11.411673 5.9019491 11.377549 5.7263688 11.345703 5.4082031 L 11.193359 3.890625 C 11.152007 3.4770703 11.126912 3.1843683 11.128906 3.0371094 C 11.128972 3.0322897 11.128819 3.0278393 11.128906 3.0234375 C 11.133774 3.0228543 11.139133 3.0220983 11.144531 3.0214844 C 11.290871 3.0048433 11.5844 3 12 3 z M 12 10.5 C 12.28792 10.5 12.5 10.71208 12.5 11 C 12.5 11.076029 12.486052 11.146041 12.458984 11.208984 A 1 1 0 0 0 12.433594 11.25 A 1 1 0 0 0 12.40625 11.302734 C 12.317384 11.424676 12.171693 11.5 12 11.5 C 11.828307 11.5 11.682616 11.424676 11.59375 11.302734 A 1 1 0 0 0 11.566406 11.25 A 1 1 0 0 0 11.541016 11.210938 C 11.513878 11.147929 11.5 11.076133 11.5 11 C 11.5 10.71208 11.71208 10.5 12 10.5 z M 16.634766 13.009766 C 16.706787 13.037196 16.876179 13.096854 17.167969 13.228516 L 18.558594 13.855469 C 18.937377 14.026411 19.203536 14.151193 19.330078 14.226562 C 19.33403 14.228916 19.338183 14.230242 19.341797 14.232422 C 19.340061 14.236464 19.33786 14.241674 19.335938 14.246094 C 19.277188 14.381166 19.135534 14.6401 18.927734 15 C 18.719939 15.359941 18.568036 15.612078 18.480469 15.730469 C 18.477772 15.734115 18.475151 15.736902 18.472656 15.740234 C 18.468894 15.738157 18.465039 15.736669 18.460938 15.734375 C 18.332411 15.662485 18.089367 15.494527 17.751953 15.251953 L 16.513672 14.361328 C 16.254316 14.174894 16.118689 14.056997 16.058594 14.007812 C 16.09133 13.942815 16.161215 13.793631 16.302734 13.544922 A 1 1 0 0 0 16.330078 13.5 A 1 1 0 0 0 16.363281 13.439453 C 16.503607 13.200965 16.594924 13.069474 16.634766 13.009766 z M 7.3652344 13.011719 C 7.4059343 13.072879 7.5007688 13.205668 7.6445312 13.451172 A 1 1 0 0 0 7.6699219 13.5 A 1 1 0 0 0 7.6992188 13.546875 C 7.8411768 13.796076 7.908887 13.944326 7.9414062 14.009766 C 7.881452 14.058818 7.7460955 14.17655 7.4863281 14.363281 L 6.2480469 15.251953 C 5.9105796 15.494512 5.6676204 15.664413 5.5390625 15.736328 C 5.5353457 15.738407 5.5327377 15.740286 5.5292969 15.742188 C 5.5264968 15.738443 5.5225963 15.734613 5.5195312 15.730469 C 5.4319626 15.612076 5.2800606 15.359941 5.0722656 15 C 4.8644698 14.640098 4.7228156 14.383088 4.6640625 14.248047 C 4.6621336 14.243613 4.6599444 14.238433 4.6582031 14.234375 C 4.6618223 14.232196 4.6659641 14.230873 4.6699219 14.228516 C 4.7964556 14.153166 5.0625838 14.02838 5.4414062 13.857422 L 6.8320312 13.230469 C 7.1237727 13.098815 7.2931961 13.039694 7.3652344 13.011719 z " fill="currentColor"/>
</svg>
