<svg xmlns="http://www.w3.org/2000/svg" width="1em" height="1em" viewBox="0 0 24 24" fill="currentColor">
  <path d="M 6 1.0117188 C 5.0125462 1.0117188 4.0241194 1.3908604 3.2832031 2.1503906 A 1.0001 1.0001 0 0 0 3.2832031 3.546875 L 8.5019531 8.8964844 C 8.5009201 8.9311234 8.5 8.965128 8.5 9 C 8.5 9.034872 8.5009201 9.0688766 8.5019531 9.1035156 L 3.2832031 14.453125 A 1.0001 1.0001 0 0 0 3.2832031 15.849609 C 4.7650213 17.368762 7.2349787 17.368762 8.7167969 15.849609 L 11.982422 12.5 C 11.988094 12.500028 11.994321 12.5 12 12.5 C 12.005679 12.5 12.011906 12.500028 12.017578 12.5 L 15.283203 15.849609 A 1.0001 1.0001 0 0 0 15.285156 15.849609 C 16.767005 17.368618 19.232995 17.368618 20.714844 15.849609 A 1.0001 1.0001 0 0 0 20.716797 14.453125 L 15.498047 9.1035156 C 15.49908 9.0688784 15.5 9.0348701 15.5 9 C 15.5 8.965128 15.49908 8.9311234 15.498047 8.8964844 L 20.716797 3.546875 A 1.0001 1.0001 0 0 0 20.714844 2.1503906 C 19.973969 1.3908756 18.987447 1.01172 18 1.0117188 C 17.012553 1.0117177 16.026079 1.3908677 15.285156 2.1503906 L 12.017578 5.5 C 12.011847 5.4999719 12.005737 5.5 12 5.5 C 11.994321 5.5 11.988095 5.4999724 11.982422 5.5 L 8.7167969 2.1503906 C 7.9758806 1.3908604 6.9874538 1.0117188 6 1.0117188 z M 6 2.9882812 C 6.4602612 2.9882812 6.9195494 3.1740852 7.2832031 3.546875 L 9.8886719 6.2167969 C 9.6590595 6.3918671 9.4501207 6.5932321 9.2695312 6.8183594 L 5.671875 3.1308594 C 5.7879196 3.106498 5.8823416 2.9882812 6 2.9882812 z M 18 2.9882812 C 18.117506 2.9882815 18.212226 3.1065589 18.328125 3.1308594 L 14.730469 6.8183594 C 14.549879 6.5932322 14.34094 6.3918671 14.111328 6.2167969 L 16.716797 3.546875 C 17.080474 3.1740679 17.539747 2.9882798 18 2.9882812 z M 12 7.5 C 12.117954 7.5 12.23033 7.5182925 12.339844 7.5429688 C 12.384169 7.5532406 12.429925 7.5600876 12.472656 7.5742188 L 12.474609 7.5761719 C 12.984384 7.7457354 13.373178 8.1826299 13.474609 8.71875 A 1.0001 1.0001 0 0 0 13.476562 8.7246094 C 13.492472 8.8135987 13.5 8.9057974 13.5 9 C 13.5 9.093985 13.4924 9.1865928 13.476562 9.2753906 A 1.0001 1.0001 0 0 0 13.474609 9.28125 C 13.373126 9.8173727 12.982414 10.256242 12.472656 10.425781 C 12.399662 10.449917 12.323537 10.467802 12.246094 10.480469 C 12.166278 10.493145 12.083891 10.5 12 10.5 C 11.916109 10.5 11.833722 10.493145 11.753906 10.480469 C 11.676471 10.467811 11.59838 10.447961 11.525391 10.423828 C 11.015667 10.254311 10.626891 9.8173203 10.525391 9.28125 A 1.0001 1.0001 0 0 0 10.523438 9.2753906 C 10.5076 9.1865928 10.5 9.093985 10.5 9 C 10.5 8.9036233 10.508755 8.8096537 10.525391 8.71875 C 10.626857 8.1826779 11.017575 7.7437754 11.527344 7.5742188 C 11.60034 7.5500802 11.676461 7.5321994 11.753906 7.5195312 A 1.0001 1.0001 0 0 0 11.767578 7.5175781 C 11.843013 7.506305 11.920972 7.5 12 7.5 z M 9.2695312 11.181641 C 9.4501206 11.406768 9.6590597 11.608133 9.8886719 11.783203 L 7.2832031 14.453125 C 6.8265781 14.921255 6.2418495 14.988811 5.671875 14.869141 L 9.2695312 11.181641 z M 14.730469 11.181641 L 18.328125 14.869141 C 17.758843 14.988496 17.173166 14.920021 16.716797 14.453125 L 14.111328 11.783203 C 14.34094 11.608133 14.549879 11.406768 14.730469 11.181641 z M 10.544922 15 A 1 1 0 0 0 9.5585938 15.875 L 9.2382812 18.394531 C 9.012968 19.988092 8.7747471 20.907273 9.2421875 21.892578 C 9.4767299 22.386904 10.029372 22.790019 10.503906 22.904297 C 10.978436 23.018575 11.387459 23 11.880859 23 L 12.119141 23 C 12.612541 23 13.02156 23.018567 13.496094 22.904297 C 13.970628 22.790019 14.52327 22.386904 14.757812 21.892578 C 15.2252 20.9073 14.987039 19.9881 14.761719 18.394531 L 14.759766 18.380859 L 14.441406 15.875 A 1 1 0 0 0 13.324219 15.007812 A 1 1 0 0 0 12.458984 16.125 L 12.777344 18.646484 A 1.0001 1.0001 0 0 0 12.779297 18.660156 C 12.998601 20.216438 12.98249 20.848164 12.945312 20.964844 C 12.829863 20.982706 12.567967 21 12.119141 21 L 11.880859 21 C 11.432033 21 11.170088 20.982704 11.054688 20.964844 C 11.017518 20.848188 11.001398 20.216446 11.220703 18.660156 A 1.0001 1.0001 0 0 0 11.222656 18.646484 L 11.541016 16.125 A 1 1 0 0 0 10.675781 15.007812 A 1 1 0 0 0 10.544922 15 z " fill="currentColor"/>
</svg>
