<svg xmlns="http://www.w3.org/2000/svg" width="1em" height="1em" viewBox="0 0 24 24" fill="currentColor">
  <path d="M 7 1 A 1.0001 1.0001 0 0 0 6.125 2.4863281 L 8.2597656 6.3261719 L 4.2929688 10.292969 A 1.0001 1.0001 0 0 0 5 12 L 12 12 A 1 1 0 0 0 13 11 A 1 1 0 0 0 12 10 L 7.4140625 10 L 10.207031 7.2070312 A 1.0001 1.0001 0 0 0 10.375 6.0136719 L 8.7011719 3 L 17.523438 3 L 10.072266 21.628906 A 1 1 0 0 0 10.628906 22.927734 A 1 1 0 0 0 11.927734 22.371094 L 19.927734 2.3710938 A 1.0001 1.0001 0 0 0 19 1 L 7 1 z " fill="currentColor"/>
</svg>
