<svg xmlns="http://www.w3.org/2000/svg" width="1em" height="1em" viewBox="0 0 24 24" fill="currentColor">
  <path d="M 12 1 C 10.354975 1 9 2.3550085 9 4 C 9 5.6449915 10.354975 7 12 7 C 13.645025 7 15 5.6449915 15 4 C 15 2.3550085 13.645025 1 12 1 z M 12 3 C 12.564175 3 13 3.4358515 13 4 C 13 4.5641485 12.564175 5 12 5 C 11.435825 5 11 4.5641485 11 4 C 11 3.4358515 11.435825 3 12 3 z M 12 7.5 C 10.684988 7.5002458 9.4619594 8.1949633 8.8261719 9.3378906 L 7.0253906 12.574219 C 6.6601178 13.230865 6.3700544 13.732853 6.1777344 14.25 C 5.9854144 14.767147 5.9047555 15.477546 6.2597656 16.044922 C 6.6147863 16.612314 7.262503 16.851007 7.8144531 16.929688 C 8.1542408 16.978124 8.594685 16.967766 9 16.972656 L 9 20 C 9 20.4714 8.9930799 20.844869 9.0449219 21.230469 C 9.0967659 21.616069 9.2498152 22.07794 9.5859375 22.414062 C 9.9220598 22.750186 10.383931 22.903234 10.769531 22.955078 C 11.155131 23.006922 11.5286 23 12 23 C 12.4714 23 12.844869 23.006898 13.230469 22.955078 C 13.616069 22.903238 14.07794 22.750186 14.414062 22.414062 C 14.750184 22.077941 14.903234 21.616069 14.955078 21.230469 C 15.006922 20.844867 15 20.4714 15 20 L 15 16.972656 C 15.405311 16.967756 15.845761 16.978158 16.185547 16.929688 C 16.737494 16.851008 17.385204 16.612292 17.740234 16.044922 C 18.095359 15.477518 18.01458 14.767148 17.822266 14.25 C 17.629953 13.732852 17.339857 13.230865 16.974609 12.574219 L 15.173828 9.3378906 C 14.537864 8.194447 13.315557 7.4997542 12 7.5 z M 12 9.5 C 12.610843 9.4998858 13.157298 9.8243104 13.427734 10.310547 L 15.226562 13.544922 C 15.590773 14.199704 15.849612 14.681963 15.947266 14.943359 C 15.93421 14.945303 15.919348 14.947073 15.904297 14.949219 C 15.60409 14.992019 15.035966 14.9999 14.259766 15 L 14.001953 15 A 1.0001 1.0001 0 0 0 13 16 L 13 20 C 13 20.4714 12.993996 20.805819 12.972656 20.964844 C 12.972341 20.967191 12.97296 20.970413 12.972656 20.972656 C 12.970411 20.97296 12.967193 20.97234 12.964844 20.972656 C 12.805823 20.994033 12.4714 21 12 21 C 11.5286 21 11.196134 20.993996 11.037109 20.972656 C 11.034064 20.972247 11.030216 20.971093 11.027344 20.970703 C 11.027051 20.968544 11.027647 20.967099 11.027344 20.964844 C 11.005967 20.805823 11 20.4714 11 20 L 11 16 A 1.0001 1.0001 0 0 0 9.9980469 15 L 9.7402344 15 L 9.7363281 15 C 8.9629508 14.999863 8.3951956 14.991899 8.0957031 14.949219 C 8.0806506 14.947073 8.0657914 14.945304 8.0527344 14.943359 C 8.1503834 14.681988 8.4092023 14.199703 8.7734375 13.544922 L 10.574219 10.310547 C 10.844611 9.8244741 11.389412 9.5001142 12 9.5 z " fill="currentColor"/>
</svg>
