<svg xmlns="http://www.w3.org/2000/svg" width="1em" height="1em" viewBox="0 0 24 24" fill="currentColor">
  <path d="M 11.369141 1 C 10.586461 1 9.9785948 0.99589281 9.4160156 1.0625 C 8.8534364 1.1291072 8.2967192 1.2913447 7.8320312 1.6386719 C 6.9702109 2.282847 6.6838806 3.1987734 6.2519531 4.5566406 C 5.9165612 4.5784108 5.5988999 4.6090128 5.296875 4.6503906 C 4.1460186 4.8080597 3.1451413 5.1746943 2.4003906 5.9335938 C 1.6556444 6.6924955 1.3023436 7.7006896 1.1484375 8.8671875 C 0.99453141 10.033685 1 11.423305 1 13.25 C 1 15.0767 0.994531 16.466317 1.1484375 17.632812 C 1.302263 18.798696 1.6564293 19.805713 2.4003906 20.564453 C 3.1451378 21.323376 4.1460148 21.691934 5.296875 21.849609 C 6.4477352 22.007284 7.8128437 22 9.6054688 22 L 11.005859 22 A 1 1 0 0 0 12.005859 21 A 1 1 0 0 0 11.005859 20 L 9.6054688 20 C 7.8128437 20 6.4885716 19.993263 5.5683594 19.867188 C 4.6481471 19.741113 4.1971778 19.54014 3.828125 19.164062 C 3.4590974 18.788041 3.2554006 18.315023 3.1308594 17.371094 C 3.0063182 16.427164 3 15.0767 3 13.25 C 3 11.423305 3.006318 10.072841 3.1308594 9.1289062 C 3.2554008 8.1849716 3.4590812 7.7119958 3.828125 7.3359375 C 4.1971743 6.959877 4.6481433 6.7588835 5.5683594 6.6328125 C 6.4885755 6.5067415 7.8128437 6.5 9.6054688 6.5 L 13.408203 6.5 C 15.200803 6.5 16.52508 6.50674 17.445312 6.6328125 C 18.365545 6.758884 18.816506 6.9598855 19.185547 7.3359375 C 19.75339 7.9146017 19.955465 8.8639935 20 11.021484 A 1 1 0 0 0 21.021484 12 A 1 1 0 0 0 22 10.978516 C 21.953335 8.7178065 21.759238 7.1013896 20.613281 5.9335938 C 19.868522 5.1746858 18.867665 4.8080591 17.716797 4.6503906 C 17.41058 4.608439 17.088617 4.5784814 16.748047 4.5566406 C 16.316221 3.1992821 16.029541 2.2827162 15.167969 1.6386719 C 14.703286 1.2913785 14.146557 1.1291076 13.583984 1.0625 C 13.021412 0.99589236 12.413559 1 11.630859 1 L 11.369141 1 z M 11.369141 3 L 11.630859 3 C 12.413559 3 12.982207 3.0053301 13.349609 3.0488281 C 13.717012 3.0923281 13.846085 3.1490509 13.970703 3.2421875 C 14.156018 3.3807149 14.332787 3.7091173 14.615234 4.5019531 C 14.23496 4.5004685 13.833819 4.5 13.408203 4.5 L 9.6054688 4.5 C 9.1747253 4.5 8.7691007 4.5004042 8.3847656 4.5019531 C 8.6672019 3.709089 8.8439491 3.3807273 9.0292969 3.2421875 C 9.1538589 3.1490847 9.2829773 3.0923284 9.6503906 3.0488281 C 10.017804 3.0053278 10.586461 3 11.369141 3 z M 17.5 12 C 14.474269 12 12 14.474269 12 17.5 C 12 20.525731 14.474269 23 17.5 23 C 20.525731 23 23 20.525731 23 17.5 C 23 14.474269 20.525731 12 17.5 12 z M 17.5 14 C 19.444869 14 21 15.555131 21 17.5 C 21 19.444869 19.444869 21 17.5 21 C 15.555131 21 14 19.444869 14 17.5 C 14 15.555131 15.555131 14 17.5 14 z M 17.5 14.5 A 1 1 0 0 0 16.5 15.5 L 16.5 17.568359 L 16.1875 17.273438 A 1 1 0 0 0 14.773438 17.3125 A 1 1 0 0 0 14.8125 18.726562 L 15.398438 19.28125 C 15.731777 19.596541 15.993099 19.85075 16.302734 20.074219 C 16.612372 20.297691 17.039158 20.5 17.5 20.5 C 17.960842 20.5 18.38763 20.297688 18.697266 20.074219 C 19.006901 19.85075 19.268223 19.596541 19.601562 19.28125 L 20.1875 18.726562 A 1 1 0 0 0 20.226562 17.3125 A 1 1 0 0 0 18.8125 17.273438 L 18.5 17.568359 L 18.5 15.5 A 1 1 0 0 0 17.5 14.5 z " fill="currentColor"/>
</svg>
