<svg xmlns="http://www.w3.org/2000/svg" width="1em" height="1em" viewBox="0 0 24 24" fill="currentColor">
  <path d="M 11.5 2 C 10.131145 2 9 3.1311099 9 4.5 C 9 5.8688901 10.131145 7 11.5 7 C 12.868855 7 14 5.8688901 14 4.5 C 14 3.1311099 12.868855 2 11.5 2 z M 11.5 4 C 11.787945 4 12 4.2120301 12 4.5 C 12 4.7879699 11.787945 5 11.5 5 C 11.212055 5 11 4.7879699 11 4.5 C 11 4.2120301 11.212055 4 11.5 4 z M 8.9003906 7.0078125 C 8.8159324 7.0128856 8.7323909 7.0238011 8.6503906 7.0410156 C 8.360073 7.1019647 8.0531296 7.2482649 7.8398438 7.4179688 C 7.6265579 7.5876727 7.4943625 7.7481236 7.3476562 7.9121094 C 6.0807543 9.3282705 5.4879081 11.214226 5.1777344 12.71875 C 5.0911982 13.138506 5.008692 13.482979 5 13.890625 C 4.99131 14.298271 5.1278164 14.816288 5.4238281 15.181641 C 5.7360023 15.566941 6.2371597 15.794787 6.6523438 15.865234 C 7.0675279 15.935684 7.4515062 15.925781 7.9257812 15.925781 L 8.9335938 15.925781 L 10.167969 15.925781 C 10.805819 15.925781 11.265117 15.933077 11.494141 15.966797 C 11.50121 15.967839 11.507235 15.969744 11.513672 15.970703 C 11.512227 15.978943 11.511413 15.986793 11.509766 15.996094 C 11.468906 16.226804 11.330608 16.667337 11.128906 17.275391 L 9.9980469 20.685547 A 1 1 0 0 0 10.632812 21.949219 A 1 1 0 0 0 11.896484 21.314453 L 13.027344 17.90625 C 13.229042 17.298204 13.393075 16.82619 13.478516 16.34375 C 13.563956 15.86131 13.540686 15.245197 13.195312 14.763672 C 12.849911 14.282057 12.269383 14.059634 11.785156 13.988281 C 11.340122 13.922701 10.864811 13.930961 10.298828 13.931641 C 10.666776 12.733901 11.276373 11.381285 12.142578 10.404297 L 12.181641 10.421875 C 13.101967 10.842237 13.705654 11.156362 14.507812 11.119141 A 1.0001 1.0001 0 0 0 14.509766 11.119141 C 15.311997 11.081761 15.884005 10.712973 16.761719 10.208984 L 18.498047 9.2128906 A 1 1 0 0 0 18.867188 7.8476562 A 1 1 0 0 0 17.501953 7.4785156 L 15.765625 8.4746094 C 14.887939 8.9785812 14.583784 9.113276 14.416016 9.1210938 C 14.248374 9.1288738 13.931993 9.0238538 13.011719 8.6035156 L 12.228516 8.2460938 L 10.367188 7.3945312 C 10.109018 7.2766113 9.8930796 7.1720588 9.6171875 7.0898438 C 9.4102684 7.0281825 9.1537652 6.9925931 8.9003906 7.0078125 z M 9.0605469 9.0117188 C 9.1280149 9.0330737 9.286989 9.1006008 9.5371094 9.2148438 L 10.181641 9.5097656 C 9.0402048 10.986907 8.4941944 12.649999 8.1953125 13.925781 L 7.9257812 13.925781 C 7.4603879 13.925781 7.145131 13.914518 7.0058594 13.892578 C 7.0121494 13.775857 7.0543425 13.520671 7.1367188 13.121094 C 7.4061452 11.814218 7.9787327 10.206473 8.8378906 9.2460938 C 8.9694229 9.0990691 9.0345073 9.0357633 9.0605469 9.0117188 z " fill="currentColor"/>
</svg>
