<svg xmlns="http://www.w3.org/2000/svg" width="1em" height="1em" viewBox="0 0 24 24" fill="currentColor">
  <path d="M 7.4941406 1.9980469 C 6.1251042 1.9980469 4.9921875 3.1288671 4.9921875 4.4980469 C 4.9921875 5.8672266 6.1251042 6.9980469 7.4941406 6.9980469 C 8.8631701 6.9980469 9.9941406 5.8672347 9.9941406 4.4980469 C 9.9941406 3.1288591 8.8631701 1.9980469 7.4941406 1.9980469 z M 7.4941406 3.9980469 C 7.7829111 3.9980469 7.9941406 4.2103747 7.9941406 4.4980469 C 7.9941406 4.7857191 7.7829111 4.9980469 7.4941406 4.9980469 C 7.2053371 4.9980469 6.9921875 4.7857271 6.9921875 4.4980469 C 6.9921875 4.2103666 7.2053371 3.9980469 7.4941406 3.9980469 z M 15.884766 4.9980469 C 15.426818 4.9937151 14.964522 5.0987087 14.539062 5.3183594 A 1 1 0 0 0 14.109375 6.6660156 A 1 1 0 0 0 15.457031 7.0957031 C 15.805272 6.9159181 16.229252 6.9889137 16.492188 7.2675781 C 16.502887 7.2789241 16.559117 7.3467681 16.695312 7.5253906 L 16.693359 7.5253906 L 17.720703 8.8730469 C 18.262091 9.5835274 19.107247 9.9980469 20 9.9980469 A 1 1 0 0 0 21 8.9980469 A 1 1 0 0 0 20 7.9980469 C 19.725153 7.9980469 19.471712 7.8710489 19.3125 7.6621094 L 18.285156 6.3144531 A 1.0001 1.0001 0 0 0 18.285156 6.3125 C 18.148951 6.1338597 18.068969 6.0255784 17.947266 5.8964844 A 1.0001 1.0001 0 0 0 17.947266 5.8945312 C 17.509033 5.4300803 16.94026 5.1403472 16.339844 5.0390625 C 16.18974 5.0137413 16.037415 4.9994908 15.884766 4.9980469 z M 12.964844 5.9765625 A 1 1 0 0 0 12.583984 6.0664062 L 9.7167969 7.375 L 7.9296875 7.2617188 L 7.90625 7.2597656 L 5.6660156 7.0683594 C 4.9726778 7.0091026 4.2964265 7.3159439 3.8847656 7.8769531 L 3.8085938 7.9824219 A 1.0001 1.0001 0 0 0 3.6777344 8.2226562 L 2.0625 12.527344 A 1.0001 1.0001 0 0 0 1.9980469 12.876953 L 1.9980469 12.896484 C 1.9980469 13.504958 2.2780387 14.081936 2.7539062 14.460938 L 4.5371094 15.880859 L 5.359375 16.642578 L 5.359375 21.003906 A 1 1 0 0 0 6.359375 22.003906 A 1 1 0 0 0 7.359375 21.003906 L 7.359375 16.365234 A 1.0001 1.0001 0 0 0 7.2324219 15.878906 L 7.046875 15.544922 A 1.0001 1.0001 0 0 0 6.8515625 15.296875 L 6.3671875 14.849609 L 7.5976562 11.667969 C 7.7165737 11.81188 7.8437522 11.960845 7.9785156 12.109375 C 8.4761412 12.657834 9.1542497 13.256878 10.117188 13.396484 C 10.362241 13.432124 10.559041 13.427734 10.869141 13.427734 A 1 1 0 0 0 11.869141 12.427734 A 1 1 0 0 0 10.869141 11.427734 C 10.559041 11.427734 10.446644 11.422136 10.404297 11.416016 C 10.127066 11.375824 9.8312395 11.173754 9.4609375 10.765625 C 9.1478929 10.420602 8.8303468 9.9653477 8.4277344 9.5253906 L 8.5136719 9.3027344 L 9.8417969 9.3867188 A 1.0001 1.0001 0 0 0 10.320312 9.296875 L 13.414062 7.8867188 A 1 1 0 0 0 13.908203 6.5625 A 1 1 0 0 0 13.349609 6.0390625 A 1 1 0 0 0 12.964844 5.9765625 z M 5.5 9.0605469 L 6.4316406 9.140625 L 4.7480469 13.492188 L 4.0449219 12.931641 L 5.5 9.0605469 z M 13.185547 11.566406 A 1 1 0 0 0 12.265625 12.363281 A 1 1 0 0 0 13.044922 13.542969 C 14.258211 13.791248 15.371287 14.42809 16.208984 15.375 L 16.888672 16.142578 C 17.93192 17.321711 19.429328 17.998047 21.001953 17.998047 A 1 1 0 0 0 22.001953 16.998047 A 1 1 0 0 0 21.001953 15.998047 C 20.002178 15.998047 19.050517 15.568873 18.384766 14.816406 L 17.707031 14.050781 C 16.581128 12.778091 15.081022 11.918705 13.445312 11.583984 A 1 1 0 0 0 13.185547 11.566406 z " fill="currentColor"/>
</svg>
