<svg xmlns="http://www.w3.org/2000/svg" width="1em" height="1em" viewBox="0 0 24 24" fill="currentColor">
  <path d="M 12.080078 1 C 11.468733 0.99031717 10.905522 1.2554647 10.447266 1.59375 C 9.9890089 1.9320353 9.5590653 2.3588303 8.9980469 2.9023438 C 8.4370374 3.4458581 7.997161 3.8612882 7.6445312 4.3085938 C 7.2919016 4.7558993 7.0096832 5.3085769 7 5.9199219 C 6.9903167 6.5312633 7.2554655 7.0925323 7.59375 7.5507812 C 7.7847123 7.8094638 8.0034128 8.0602201 8.2558594 8.3300781 L 6.1621094 10.423828 C 5.6666405 10.15362 5.0998544 10 4.5 10 C 2.5788434 10 1 11.578854 1 13.5 C 1 15.421146 2.5788434 17 4.5 17 C 6.4211566 17 8 15.421146 8 13.5 C 8 12.900147 7.8463802 12.33336 7.5761719 11.837891 L 9.6503906 9.7636719 C 9.8751977 9.9846624 10.087534 10.181193 10.308594 10.355469 C 10.517631 10.520265 10.749691 10.669792 11 10.783203 L 11 16.007812 C 10.810263 16.014992 10.629295 16.028539 10.449219 16.052734 C 10.009145 16.111904 9.5099334 16.279056 9.1445312 16.644531 C 8.7791695 17.009928 8.6119002 17.509166 8.5527344 17.949219 C 8.4935685 18.389272 8.5 18.834691 8.5 19.400391 L 8.5 19.599609 C 8.5 20.165309 8.4935704 20.608764 8.5527344 21.048828 C 8.6118994 21.488892 8.7790551 21.990065 9.1445312 22.355469 C 9.5099334 22.720944 10.009145 22.888095 10.449219 22.947266 C 10.889293 23.006436 11.334691 23 11.900391 23 L 12.099609 23 C 12.665309 23 13.110708 23.006396 13.550781 22.947266 C 13.990854 22.888096 14.490074 22.720968 14.855469 22.355469 C 15.220968 21.990074 15.388094 21.490854 15.447266 21.050781 C 15.506437 20.610704 15.5 20.165309 15.5 19.599609 L 15.5 19.400391 C 15.5 18.834691 15.506396 18.389281 15.447266 17.949219 C 15.388096 17.509157 15.220853 17.009916 14.855469 16.644531 C 14.49007 16.279032 13.990854 16.111906 13.550781 16.052734 C 13.370705 16.028522 13.189737 16.01499 13 16.007812 L 13 10.744141 C 13.196847 10.64886 13.382071 10.532235 13.552734 10.40625 C 13.811288 10.215384 14.060918 9.9964255 14.330078 9.7441406 L 16.423828 11.837891 C 16.15362 12.33336 16 12.900147 16 13.5 C 16 15.42115 17.57885 17 19.5 17 C 21.42115 17 23 15.42115 23 13.5 C 23 11.57885 21.42115 10 19.5 10 C 18.900147 10 18.33336 10.15362 17.837891 10.423828 L 15.763672 8.3496094 C 15.984855 8.124139 16.181056 7.9106925 16.355469 7.6894531 C 16.70811 7.2421323 16.990379 6.6894922 17 6.078125 C 17.00971 5.4667761 16.744526 4.9055219 16.40625 4.4472656 C 16.067974 3.9890094 15.641156 3.5590569 15.097656 2.9980469 C 14.554112 2.4370424 14.138696 1.9971513 13.691406 1.6445312 C 13.244116 1.2919112 12.691415 1.0096841 12.080078 1 z M 12.019531 3 C 12.028905 2.9996688 12.037506 2.9998516 12.046875 3 C 12.121735 3.00119 12.18534 3.0037399 12.453125 3.2148438 C 12.72091 3.4259511 13.118554 3.8296095 13.662109 4.390625 C 14.205609 4.951635 14.594376 5.3623976 14.796875 5.6367188 C 14.999371 5.91104 15.00119 5.9719539 15 6.046875 C 14.9988 6.121768 14.9962 6.1853683 14.785156 6.453125 C 14.574073 6.7208817 14.17042 7.118599 13.609375 7.6621094 C 13.048378 8.2056217 12.637605 8.5943671 12.363281 8.796875 C 12.088958 8.9993829 12.028101 9.0011842 11.953125 9 C 11.878267 8.9988142 11.814655 8.9943109 11.546875 8.7832031 C 11.279095 8.5720953 10.88143 8.1703899 10.337891 7.609375 C 9.7943758 7.0483656 9.4056355 6.6376073 9.203125 6.3632812 C 9.0006145 6.0889552 8.9988133 6.0280436 9 5.953125 C 9.0011868 5.8782 9.0037458 5.8146495 9.2148438 5.546875 C 9.4259415 5.2791005 9.8296144 4.8814062 10.390625 4.3378906 C 10.951647 3.7943741 11.36239 3.4056347 11.636719 3.203125 C 11.876756 3.025929 11.953915 3.0023184 12.019531 3 z M 4.5 12 C 5.3402634 12 6 12.659746 6 13.5 C 6 14.340254 5.3402634 15 4.5 15 C 3.6597366 15 3 14.340254 3 13.5 C 3 12.659746 3.6597366 12 4.5 12 z M 19.5 12 C 20.34025 12 21 12.65975 21 13.5 C 21 14.34025 20.34025 15 19.5 15 C 18.65975 15 18 14.34025 18 13.5 C 18 12.65975 18.65975 12 19.5 12 z M 11.900391 18 L 12 18 L 12.099609 18 C 12.665309 18 13.069726 18.006496 13.283203 18.035156 C 13.374301 18.047403 13.419221 18.055785 13.439453 18.060547 C 13.444195 18.080752 13.452574 18.125664 13.464844 18.216797 C 13.493544 18.43026 13.5 18.834691 13.5 19.400391 L 13.5 19.599609 C 13.5 20.165309 13.493504 20.569726 13.464844 20.783203 C 13.452603 20.874255 13.444216 20.919207 13.439453 20.939453 C 13.41922 20.944212 13.374293 20.95258 13.283203 20.964844 C 13.069726 20.993539 12.665309 21 12.099609 21 L 11.900391 21 C 11.334691 21 10.93028 20.993504 10.716797 20.964844 C 10.625741 20.952602 10.580789 20.944212 10.560547 20.939453 C 10.555786 20.91922 10.54742 20.8743 10.535156 20.783203 C 10.506456 20.569723 10.5 20.165309 10.5 19.599609 L 10.5 19.400391 C 10.5 18.834691 10.506496 18.430269 10.535156 18.216797 C 10.547404 18.125696 10.5558 18.080764 10.560547 18.060547 C 10.580763 18.055792 10.62566 18.047426 10.716797 18.035156 C 10.930274 18.006454 11.334691 18 11.900391 18 z " fill="currentColor"/>
</svg>
