<svg xmlns="http://www.w3.org/2000/svg" width="1em" height="1em" viewBox="0 0 24 24" fill="currentColor">
  <path d="M 2.0078125 1 A 1 1 0 0 0 1.0078125 2 L 1.0078125 5.5 L 1.0078125 12 C 1.0078125 12.506155 0.95656705 13.171998 1.0742188 13.894531 C 1.1918708 14.617064 1.5500198 15.466204 2.3398438 15.994141 C 3.0933821 16.497924 3.878083 16.507421 5.0039062 16.501953 C 5.0244996 16.950128 5.0976914 17.340697 5.3339844 17.75 C 5.5531201 18.129513 5.8703302 18.444664 6.25 18.664062 C 6.9337219 19.05888 7.56538 19 8.5 19 L 11.5 19 C 12.4346 19 13.066282 19.05886 13.75 18.664062 C 14.129169 18.444926 14.444924 18.129169 14.664062 17.75 C 14.900733 17.340123 14.975071 16.948947 14.996094 16.5 L 15.285156 16.5 C 15.349529 16.613765 15.42042 16.719782 15.494141 16.816406 C 15.756843 17.160726 16.066375 17.460906 16.453125 17.847656 L 16.652344 18.046875 C 17.039094 18.433625 17.339274 18.743157 17.683594 19.005859 C 17.780218 19.07958 17.886235 19.150471 18 19.214844 L 18 19.427734 C 18 20.226434 17.95546 20.763726 18.251953 21.376953 C 18.582603 22.06122 19.187751 22.559492 19.900391 22.8125 C 20.519041 23.032184 21.0681 23 22 23 A 1 1 0 0 0 23 22 A 1 1 0 0 0 22 21 C 21.0681 21 20.686662 20.969054 20.570312 20.927734 C 20.302753 20.832744 20.128084 20.661793 20.052734 20.505859 L 20.052734 20.503906 C 20.042745 20.4725 20 20.201475 20 19.427734 L 20 19.214844 C 20.113765 19.150471 20.219782 19.07958 20.316406 19.005859 C 20.660726 18.743157 20.960906 18.433625 21.347656 18.046875 L 21.546875 17.847656 C 21.933625 17.460906 22.243157 17.160726 22.505859 16.816406 C 22.768561 16.472086 23 16.008506 23 15.5 C 23 14.991494 22.768561 14.527914 22.505859 14.183594 C 22.243157 13.839274 21.933625 13.539094 21.546875 13.152344 L 21.347656 12.953125 C 20.960906 12.566375 20.660726 12.256843 20.316406 11.994141 C 20.219782 11.92042 20.113765 11.849529 20 11.785156 L 20 9.5 C 20 8.55719 20.006373 7.8297355 19.917969 7.171875 C 19.829565 6.5140145 19.603479 5.8615224 19.121094 5.3789062 C 18.638702 4.8962753 17.985847 4.6704992 17.328125 4.5820312 C 16.670403 4.4935633 15.944353 4.5 15.001953 4.5 L 14.996094 4.5 C 14.975076 4.0510519 14.90075 3.6598814 14.664062 3.25 C 14.444663 2.8703302 14.129513 2.5531201 13.75 2.3339844 C 13.066299 1.9392801 12.4346 2 11.5 2 L 8.5 2 C 7.56538 2 6.9337052 1.939255 6.25 2.3339844 C 5.8699854 2.5533806 5.5533806 2.8699854 5.3339844 3.25 C 5.097349 3.6598728 5.0243779 4.0510467 5.0039062 4.5 L 3.0078125 4.5 L 3.0078125 2 A 1 1 0 0 0 2.0078125 1 z M 8.5 4 L 11.5 4 C 12.405394 4 12.719986 4.0563741 12.75 4.0664062 C 12.826082 4.110337 12.889821 4.1741528 12.933594 4.25 L 12.933594 4.2519531 C 12.943597 4.2819144 13 4.5945869 13 5.5 C 13 6.4054131 12.943597 6.7200387 12.933594 6.75 C 12.889821 6.8258472 12.826082 6.8896633 12.75 6.9335938 L 12.748047 6.9335938 C 12.718033 6.9436258 12.405394 7 11.5 7 L 8.5 7 C 7.5945869 7 7.2799755 6.9436044 7.25 6.9335938 C 7.1739546 6.88969 7.11031 6.8260454 7.0664062 6.75 L 7.0664062 6.7480469 C 7.0568925 6.7199091 7.0041127 6.4307941 7 5.6054688 A 1 1 0 0 0 7.0058594 5.5 A 1 1 0 0 0 7 5.3945312 C 7.0041127 4.5692059 7.0568925 4.2781378 7.0664062 4.25 C 7.11031 4.1739546 7.1739546 4.11031 7.25 4.0664062 L 7.2519531 4.0664062 C 7.2819286 4.0563956 7.5945869 4 8.5 4 z M 3.0078125 6.5 L 5.0039062 6.5 C 5.0243779 6.9489533 5.097349 7.3401272 5.3339844 7.75 C 5.5533806 8.1300146 5.8699854 8.4466194 6.25 8.6660156 C 6.9337052 9.060745 7.56538 9 8.5 9 L 11.5 9 C 12.4346 9 13.066299 9.06072 13.75 8.6660156 C 14.129513 8.4468799 14.444663 8.1296698 14.664062 7.75 C 14.90075 7.3401186 14.975076 6.9489481 14.996094 6.5 L 15.001953 6.5 C 15.944353 6.5 16.631447 6.5064701 17.0625 6.5644531 C 17.493553 6.6224331 17.603923 6.6898098 17.707031 6.7929688 C 17.810146 6.8961327 17.877576 7.0080586 17.935547 7.4394531 C 17.993518 7.8708477 18 8.55719 18 9.5 L 18 11.785156 C 17.886235 11.849529 17.780218 11.92042 17.683594 11.994141 C 17.339274 12.256843 17.039094 12.566375 16.652344 12.953125 L 16.453125 13.152344 C 16.066375 13.539094 15.756843 13.839274 15.494141 14.183594 C 15.42042 14.280218 15.349529 14.386235 15.285156 14.5 L 14.996094 14.5 C 14.975071 14.051053 14.900733 13.659877 14.664062 13.25 C 14.444924 12.870831 14.129169 12.555074 13.75 12.335938 C 13.066282 11.941145 12.4346 12 11.5 12 L 8.5 12 C 7.56538 12 6.9337219 11.941119 6.25 12.335938 C 5.8703302 12.555335 5.5531201 12.870487 5.3339844 13.25 C 5.0979633 13.658832 5.0245967 14.048567 5.0039062 14.496094 C 3.9773634 14.481059 3.5797693 14.418004 3.4511719 14.332031 C 3.2012358 14.164968 3.1154661 13.983461 3.0488281 13.574219 C 2.9821901 13.164977 3.0078125 12.597545 3.0078125 12 L 3.0078125 6.5 z M 19 13.509766 C 19.018729 13.522748 19.051025 13.545887 19.103516 13.585938 C 19.266071 13.70996 19.546844 13.980438 19.933594 14.367188 L 20.132812 14.566406 C 20.519562 14.953156 20.790041 15.233929 20.914062 15.396484 C 20.95411 15.448973 20.977252 15.481271 20.990234 15.5 C 20.977252 15.518729 20.954112 15.551022 20.914062 15.603516 C 20.79004 15.766071 20.519562 16.046844 20.132812 16.433594 L 19.933594 16.632812 C 19.546844 17.019562 19.266071 17.290041 19.103516 17.414062 C 19.051027 17.45411 19.018729 17.477252 19 17.490234 C 18.981271 17.477252 18.948978 17.454112 18.896484 17.414062 C 18.733929 17.29004 18.453156 17.019563 18.066406 16.632812 L 17.867188 16.433594 C 17.480438 16.046844 17.20996 15.766071 17.085938 15.603516 C 17.04589 15.551026 17.022748 15.518729 17.009766 15.5 C 17.022748 15.481271 17.045888 15.448979 17.085938 15.396484 C 17.209961 15.233929 17.480438 14.953156 17.867188 14.566406 L 18.066406 14.367188 C 18.453156 13.980436 18.733929 13.709959 18.896484 13.585938 C 18.948976 13.545888 18.981272 13.522748 19 13.509766 z M 8.5 14 L 11.5 14 C 12.405394 14 12.72 14.056379 12.75 14.066406 C 12.82588 14.110206 12.889794 14.174117 12.933594 14.25 L 12.933594 14.251953 C 12.943613 14.281951 13 14.594606 13 15.5 C 13 16.405394 12.943621 16.72 12.933594 16.75 C 12.889794 16.82588 12.825883 16.889794 12.75 16.933594 L 12.748047 16.933594 C 12.718047 16.943615 12.405394 17 11.5 17 L 8.5 17 C 7.5945869 17 7.2799613 16.943597 7.25 16.933594 C 7.1741528 16.889821 7.1103368 16.826082 7.0664062 16.75 L 7.0664062 16.748047 C 7.0563743 16.718033 7 16.405394 7 15.5 C 7 14.594606 7.0563743 14.280014 7.0664062 14.25 C 7.1103368 14.173918 7.1741528 14.110179 7.25 14.066406 L 7.2519531 14.066406 C 7.2819144 14.056403 7.5945869 14 8.5 14 z " fill="currentColor"/>
</svg>
