<svg xmlns="http://www.w3.org/2000/svg" width="1em" height="1em" viewBox="0 0 24 24" fill="currentColor">
  <path d="M 14.5 2 C 13.131145 2 12 3.1311099 12 4.5 C 12 5.8688901 13.131145 7 14.5 7 C 15.868855 7 17 5.8688901 17 4.5 C 17 3.1311099 15.868855 2 14.5 2 z M 14.5 4 C 14.787945 4 15 4.2120301 15 4.5 C 15 4.7879699 14.787945 5 14.5 5 C 14.212055 5 14 4.7879699 14 4.5 C 14 4.2120301 14.212055 4 14.5 4 z M 10.458984 6.0039062 C 9.6536147 6.046615 9.0890484 6.4296241 8.2265625 6.9472656 L 7.3046875 7.5 C 6.8966178 7.7449138 6.6187637 7.9023557 6.3378906 8.1777344 C 6.0570519 8.4530629 5.8935256 8.727927 5.6328125 9.1386719 L 4.15625 11.464844 A 1 1 0 0 0 4.4648438 12.84375 A 1 1 0 0 0 5.84375 12.535156 L 7.3203125 10.210938 C 7.5810194 9.8002019 7.67866 9.6639202 7.7382812 9.6054688 C 7.7978682 9.5470473 7.9258941 9.4597698 8.3339844 9.2148438 L 9.2558594 8.6621094 C 9.5493143 8.4859855 9.7779814 8.3536971 9.9570312 8.2558594 L 7.1191406 13.525391 A 1 1 0 0 0 7.1484375 13.621094 A 1 1 0 0 0 7.0410156 13.958984 A 1 1 0 0 0 7 14 A 1 1 0 0 0 7.0664062 14.066406 A 1 1 0 0 0 7.1855469 14.582031 L 8.6328125 16.607422 C 8.9366041 17.032704 8.871966 17.597123 8.4785156 17.941406 L 5.8417969 20.248047 A 1 1 0 0 0 5.7480469 21.658203 A 1 1 0 0 0 7.1582031 21.751953 L 9.7949219 19.445312 C 10.949291 18.435196 11.151334 16.69343 10.259766 15.445312 L 9.9414062 15 L 11.5 15 L 13 15 C 13.3156 15 13.611421 15.147911 13.800781 15.400391 L 16.199219 18.599609 A 1 1 0 0 0 17.599609 18.800781 A 1 1 0 0 0 17.800781 17.400391 L 15.400391 14.199219 C 14.910599 13.546163 14.161064 13.187607 13.361328 13.085938 L 14.962891 10.796875 C 15.185095 11.17616 15.384847 11.470664 15.695312 11.742188 C 15.970094 11.982472 16.285909 12.171115 16.628906 12.296875 C 17.176214 12.497651 17.652394 12.474609 18.371094 12.474609 L 19 12.474609 A 1 1 0 0 0 20 11.474609 A 1 1 0 0 0 19 10.474609 L 18.371094 10.474609 C 17.652394 10.474609 17.409699 10.452189 17.316406 10.417969 C 17.207203 10.377929 17.104937 10.317844 17.011719 10.236328 C 16.927701 10.162849 16.776064 9.9402637 16.40625 9.2929688 C 16.196116 8.9250494 16.06479 8.6822483 15.841797 8.4257812 C 15.699886 8.2626582 15.540979 8.114043 15.367188 7.984375 L 15.367188 7.9863281 C 15.094245 7.7825688 14.841937 7.6722807 14.46875 7.4980469 L 12.773438 6.7070312 C 11.86564 6.2832826 11.264324 5.9611733 10.458984 6.0039062 z M 12.056641 8.578125 L 13.578125 9.2890625 L 10.980469 13 L 9.6757812 13 L 12.056641 8.578125 z " fill="currentColor"/>
</svg>
