<svg xmlns="http://www.w3.org/2000/svg" width="1em" height="1em" viewBox="0 0 24 24" fill="currentColor">
  <path d="M 5.5 1 C 3.5788482 1 2 2.5788482 2 4.5 C 2 6.4211518 3.5788482 8 5.5 8 C 6.8438208 8 8.0198171 7.2272701 8.6054688 6.1054688 L 13.738281 9.5273438 L 8.7128906 13.117188 C 8.1729646 11.875769 6.9313505 11 5.5 11 C 3.5788434 11 2 12.578854 2 14.5 C 2 16.421146 3.5788434 18 5.5 18 C 6.9428589 18 8.1917452 17.108846 8.7246094 15.851562 L 15.046875 20.066406 C 15.320443 21.722116 16.771383 23 18.5 23 C 20.42115 23 22 21.42115 22 19.5 C 22 17.57885 20.42115 16 18.5 16 C 17.156181 16 15.980183 16.77273 15.394531 17.894531 L 10.261719 14.472656 L 15.287109 10.882812 C 15.827036 12.124233 17.068654 13 18.5 13 C 20.42115 13 22 11.42115 22 9.5 C 22 7.5788434 20.421146 6 18.5 6 C 17.057148 6 15.808257 6.8911514 15.275391 8.1484375 L 8.953125 3.9335938 C 8.6795575 2.2778836 7.2286186 1 5.5 1 z M 5.5 3 C 6.3402682 3 7 3.6597318 7 4.5 C 7 5.3402682 6.3402682 6 5.5 6 C 4.6597318 6 4 5.3402682 4 4.5 C 4 3.6597318 4.6597318 3 5.5 3 z M 18.5 8 C 19.340254 8 20 8.6597366 20 9.5 C 20 10.34025 19.34025 11 18.5 11 C 17.65975 11 17 10.34025 17 9.5 C 17 8.6597366 17.659746 8 18.5 8 z M 5.5 13 C 6.3402634 13 7 13.659746 7 14.5 C 7 15.340254 6.3402634 16 5.5 16 C 4.6597366 16 4 15.340254 4 14.5 C 4 13.659746 4.6597366 13 5.5 13 z M 18.5 18 C 19.34025 18 20 18.65975 20 19.5 C 20 20.34025 19.34025 21 18.5 21 C 17.65975 21 17 20.34025 17 19.5 C 17 18.65975 17.65975 18 18.5 18 z " fill="currentColor"/>
</svg>
