<svg xmlns="http://www.w3.org/2000/svg" width="1em" height="1em" viewBox="0 0 24 24" fill="currentColor">
  <path d="M 6 1 C 5.292895 1 4.7424594 0.99430488 4.2207031 1.0644531 C 3.6989468 1.1346014 3.1417712 1.3230726 2.7324219 1.7324219 C 2.3230726 2.1417712 2.1346014 2.6989468 2.0644531 3.2207031 C 1.9943049 3.7424594 2 4.292895 2 5 C 2 5.707105 1.9943049 6.2575406 2.0644531 6.7792969 C 2.1346014 7.3010532 2.3230726 7.8582288 2.7324219 8.2675781 C 3.1417712 8.6769274 3.6989468 8.8653986 4.2207031 8.9355469 C 4.4693392 8.9689751 4.724488 8.9843817 5 8.9921875 L 5 12 L 5 15.007812 C 4.7244855 15.015617 4.4693357 15.031024 4.2207031 15.064453 C 3.6989566 15.134593 3.1417798 15.323101 2.7324219 15.732422 C 2.3231141 16.141789 2.1346008 16.698946 2.0644531 17.220703 C 1.9943054 17.74246 2 18.2929 2 19 C 2 19.7071 1.9943101 20.25754 2.0644531 20.779297 C 2.1346011 21.301054 2.3231141 21.858214 2.7324219 22.267578 C 3.1417798 22.676899 3.6989566 22.865406 4.2207031 22.935547 C 4.7424497 23.005687 5.292895 23 6 23 C 6.707105 23 7.2575504 23.005697 7.7792969 22.935547 C 8.3010434 22.865407 8.8582202 22.676899 9.2675781 22.267578 C 9.6768859 21.858211 9.8653992 21.301054 9.9355469 20.779297 C 10.005695 20.25754 10 19.7071 10 19 C 10 18.2929 10.005695 17.74246 9.9355469 17.220703 C 9.8653992 16.698946 9.6768859 16.141786 9.2675781 15.732422 C 8.8582202 15.323101 8.3010434 15.134594 7.7792969 15.064453 C 7.5306643 15.031029 7.2755145 15.015619 7 15.007812 L 7 13 L 14 13 C 14.9428 13 15.670212 13.006399 16.328125 12.917969 C 16.986038 12.829509 17.638521 12.603666 18.121094 12.121094 C 18.603662 11.638525 18.829512 10.986036 18.917969 10.328125 C 18.972681 9.9211974 18.99196 9.4868102 18.998047 8.9921875 C 19.274638 8.9844119 19.529813 8.9690865 19.779297 8.9355469 C 20.301054 8.8653989 20.858214 8.6768859 21.267578 8.2675781 C 21.676899 7.8582201 21.865406 7.3010434 21.935547 6.7792969 C 22.005687 6.2575504 22 5.707105 22 5 C 22 4.292895 22.005687 3.7424496 21.935547 3.2207031 C 21.865406 2.6989566 21.676899 2.1417798 21.267578 1.7324219 C 20.858214 1.3231141 20.301054 1.1346008 19.779297 1.0644531 C 19.25754 0.99430544 18.7071 1 18 1 C 17.2929 1 16.74246 0.99430513 16.220703 1.0644531 C 15.698946 1.1346011 15.141786 1.3231141 14.732422 1.7324219 C 14.323101 2.1417799 14.134594 2.6989566 14.064453 3.2207031 C 13.994313 3.7424496 14 4.292895 14 5 C 14 5.707105 13.994303 6.2575504 14.064453 6.7792969 C 14.134593 7.3010434 14.323101 7.8582202 14.732422 8.2675781 C 15.141786 8.6768859 15.698946 8.8653992 16.220703 8.9355469 C 16.467613 8.9687425 16.720823 8.9843195 16.994141 8.9921875 C 16.986826 9.442279 16.970723 9.798722 16.935547 10.060547 C 16.877557 10.491881 16.810263 10.6038 16.707031 10.707031 C 16.603804 10.810259 16.491884 10.877553 16.060547 10.935547 C 15.629207 10.99354 14.9428 11 14 11 L 7 11 L 7 8.9921875 C 7.275512 8.9843817 7.5306608 8.9689751 7.7792969 8.9355469 C 8.3010532 8.8653986 8.8582288 8.6769274 9.2675781 8.2675781 C 9.6769274 7.8582288 9.8653986 7.3010532 9.9355469 6.7792969 C 10.005695 6.2575406 10 5.707105 10 5 C 10 4.292895 10.005695 3.7424594 9.9355469 3.2207031 C 9.8653986 2.6989468 9.6769274 2.1417712 9.2675781 1.7324219 C 8.8582288 1.3230726 8.3010532 1.1346014 7.7792969 1.0644531 C 7.2575406 0.99430489 6.707105 1 6 1 z M 6 3 C 6.707105 3 7.2165326 3.00719 7.5117188 3.046875 C 7.8069051 3.086562 7.8235249 3.1164944 7.8535156 3.1464844 C 7.8835066 3.1764754 7.913439 3.1930953 7.953125 3.4882812 C 7.9928121 3.7834679 8 4.292895 8 5 C 8 5.707105 7.9928117 6.2165326 7.953125 6.5117188 C 7.9134383 6.8069051 7.8835063 6.8235249 7.8535156 6.8535156 C 7.8235249 6.8835063 7.806905 6.9134383 7.5117188 6.953125 C 7.2165325 6.9928117 6.707105 7 6 7 C 5.292895 7 4.7834676 6.9928117 4.4882812 6.953125 C 4.193095 6.9134383 4.1764751 6.8835063 4.1464844 6.8535156 C 4.1164937 6.8235249 4.0865617 6.806905 4.046875 6.5117188 C 4.0071883 6.2165325 4 5.707105 4 5 C 4 4.292895 4.0071883 3.7834675 4.046875 3.4882812 C 4.0865617 3.1930949 4.1164937 3.1764751 4.1464844 3.1464844 C 4.1764751 3.1164937 4.1930951 3.0865617 4.4882812 3.046875 C 4.7834676 3.0071883 5.292895 3 6 3 z M 18 3 C 18.7071 3 19.216526 3.00719 19.511719 3.046875 C 19.806912 3.086562 19.823479 3.1164524 19.853516 3.1464844 C 19.883496 3.1764664 19.913435 3.1930853 19.953125 3.4882812 C 19.992808 3.7834776 20 4.292895 20 5 C 20 5.707105 19.992795 6.2165229 19.953125 6.5117188 C 19.913445 6.8069147 19.883496 6.8235336 19.853516 6.8535156 C 19.823476 6.8835476 19.806916 6.913438 19.511719 6.953125 C 19.216522 6.9928127 18.7071 7 18 7 C 17.2929 7 16.783474 6.9928123 16.488281 6.953125 C 16.193088 6.9134377 16.176521 6.8835478 16.146484 6.8535156 C 16.116505 6.8235336 16.086559 6.8069148 16.046875 6.5117188 C 16.007191 6.2165228 16 5.707105 16 5 C 16 4.292895 16.007205 3.7834772 16.046875 3.4882812 C 16.086555 3.1930853 16.116504 3.1764664 16.146484 3.1464844 C 16.176524 3.1164524 16.193084 3.086562 16.488281 3.046875 C 16.783478 3.0071873 17.2929 3 18 3 z M 6 17 C 6.707105 17 7.2165229 17.007205 7.5117188 17.046875 C 7.8069147 17.086555 7.8235336 17.116504 7.8535156 17.146484 C 7.8835476 17.176524 7.913438 17.193084 7.953125 17.488281 C 7.9928127 17.783478 8 18.2929 8 19 C 8 19.7071 7.99281 20.216526 7.953125 20.511719 C 7.913438 20.806912 7.8835476 20.823479 7.8535156 20.853516 C 7.8235336 20.883496 7.8069147 20.913435 7.5117188 20.953125 C 7.2165225 20.992808 6.707105 21 6 21 C 5.292895 21 4.7834773 20.992809 4.4882812 20.953125 C 4.1930853 20.913441 4.1764664 20.883495 4.1464844 20.853516 C 4.1164522 20.823479 4.0865623 20.806912 4.046875 20.511719 C 4.0071877 20.216526 4 19.7071 4 19 C 4 18.2929 4.00719 17.783474 4.046875 17.488281 C 4.086562 17.193088 4.1164524 17.176521 4.1464844 17.146484 C 4.1764664 17.116504 4.1930854 17.086565 4.4882812 17.046875 C 4.7834777 17.007192 5.292895 17 6 17 z " fill="currentColor"/>
</svg>
