<svg xmlns="http://www.w3.org/2000/svg" width="1em" height="1em" viewBox="0 0 24 24" fill="currentColor">
  <path d="M 12 1 C 5.9367124 1 1 5.9367124 1 12 C 1 18.063288 5.9367124 23 12 23 C 18.063288 23 23 18.063288 23 12 C 23 5.9367124 18.063288 1 12 1 z M 12 3 C 16.982407 3 21 7.0175926 21 12 C 21 16.982407 16.982407 21 12 21 C 7.0175926 21 3 16.982407 3 12 C 3 7.0175926 7.0175926 3 12 3 z M 8.375 7 C 7.7310076 7 7.3736944 7.4557336 7.2148438 7.7734375 C 7.0559932 8.0911414 7 8.4077864 7 8.75 C 7 9.0922136 7.0559933 9.4088586 7.2148438 9.7265625 C 7.3736944 10.044266 7.7310076 10.5 8.375 10.5 C 9.0189924 10.5 9.3763056 10.044266 9.5351562 9.7265625 C 9.6940067 9.4088586 9.75 9.0922136 9.75 8.75 C 9.75 8.4077864 9.6940067 8.0911414 9.5351562 7.7734375 C 9.3763056 7.4557336 9.0189924 7 8.375 7 z M 15.625 7 C 14.980986 7 14.623695 7.4537852 14.464844 7.7714844 C 14.305993 8.0891836 14.25 8.4077784 14.25 8.75 C 14.25 9.0922216 14.30599 9.4108164 14.464844 9.7285156 C 14.623695 10.046215 14.980986 10.5 15.625 10.5 C 16.269014 10.5 16.626305 10.046215 16.785156 9.7285156 C 16.944007 9.4108164 17 9.0922216 17 8.75 C 17 8.4077784 16.944007 8.0891836 16.785156 7.7714844 C 16.626305 7.4537852 16.269014 7 15.625 7 z M 9.4882812 14.029297 C 8.8747097 14.029296 8.2618031 14.219046 7.7519531 14.597656 A 1.0001 1.0001 0 0 0 7.75 14.597656 L 7.4042969 14.855469 A 1 1 0 0 0 7.1972656 16.253906 A 1 1 0 0 0 8.5957031 16.460938 L 8.9433594 16.203125 C 9.3599793 15.893746 9.6166529 15.893776 10.033203 16.203125 L 10.302734 16.402344 C 11.322398 17.159601 12.755666 17.159541 13.775391 16.402344 L 14.044922 16.203125 C 14.461458 15.893782 14.71809 15.893722 15.134766 16.203125 L 15.404297 16.402344 A 1 1 0 0 0 16.802734 16.195312 A 1 1 0 0 0 16.595703 14.796875 L 16.326172 14.597656 C 15.306448 13.840459 13.873179 13.840399 12.853516 14.597656 L 12.583984 14.796875 C 12.167309 15.106278 11.910677 15.106218 11.494141 14.796875 L 11.224609 14.597656 C 10.714775 14.219031 10.101853 14.029298 9.4882812 14.029297 z " fill="currentColor"/>
</svg>
