<svg xmlns="http://www.w3.org/2000/svg" width="1em" height="1em" viewBox="0 0 24 24" fill="currentColor">
  <path d="M 2 4.5 A 1.0001 1.0001 0 0 0 1.1054688 5.9472656 L 7.6054688 18.947266 A 1.0001 1.0001 0 0 0 9.3945312 18.947266 L 12.894531 11.947266 L 15.617188 6.5 L 20.382812 6.5 L 15.5 16.263672 L 14.394531 14.052734 A 1 1 0 0 0 13.052734 13.605469 A 1 1 0 0 0 12.605469 14.947266 L 14.605469 18.947266 A 1.0001 1.0001 0 0 0 16.394531 18.947266 L 22.894531 5.9472656 A 1.0001 1.0001 0 0 0 22 4.5 L 15 4.5 A 1.0001 1.0001 0 0 0 14.105469 5.0527344 L 11.105469 11.052734 L 8.5 16.263672 L 3.6171875 6.5 L 8.3828125 6.5 L 9.6054688 8.9472656 A 1 1 0 0 0 10.947266 9.3945312 A 1 1 0 0 0 11.394531 8.0527344 L 9.8945312 5.0527344 A 1.0001 1.0001 0 0 0 9 4.5 L 2 4.5 z " fill="currentColor"/>
</svg>
