<svg xmlns="http://www.w3.org/2000/svg" width="1em" height="1em" viewBox="0 0 24 24" fill="currentColor">
  <path d="M 19 5 A 1 1 0 0 0 18 6 A 1 1 0 0 0 19 7 L 19.585938 7 L 19.292969 7.2929688 A 1.0001 1.0001 0 0 0 20 9 L 20.5 9 C 20.787945 9 21 9.2120301 21 9.5 C 21 9.7879204 20.78792 10 20.5 10 C 20.272971 10 19.981987 9.7753127 19.943359 9.6660156 A 1 1 0 0 0 18.666016 9.0566406 A 1 1 0 0 0 18.056641 10.333984 C 18.429813 11.389887 19.420829 12 20.5 12 C 21.86888 12 23 10.86888 23 9.5 C 23 8.655003 22.501491 8.0181195 21.849609 7.5644531 L 22.707031 6.7070312 A 1.0001 1.0001 0 0 0 22 5 L 19 5 z M 2 7 A 1.0001 1.0001 0 0 0 1.1425781 8.5136719 L 7.1425781 18.513672 A 1.0001 1.0001 0 0 0 8.8417969 18.541016 L 12.5 12.849609 L 16.158203 18.541016 A 1.0001 1.0001 0 0 0 17.869141 18.496094 L 19.869141 14.996094 A 1.0001 1.0001 0 0 0 19.851562 13.976562 L 15.851562 7.4765625 A 1.0001 1.0001 0 0 0 15 7 L 10 7 A 1.0001 1.0001 0 0 0 9.1679688 7.4453125 L 8 9.1972656 L 6.8320312 7.4453125 A 1.0001 1.0001 0 0 0 6 7 L 2 7 z M 3.765625 9 L 5.4648438 9 L 7.1679688 11.554688 A 1.0001 1.0001 0 0 0 8.8320312 11.554688 L 10.535156 9 L 14.441406 9 L 17.837891 14.519531 L 16.949219 16.072266 L 13.341797 10.458984 A 1.0001 1.0001 0 0 0 11.658203 10.458984 L 8.0292969 16.105469 L 3.765625 9 z " fill="currentColor"/>
</svg>
