<svg xmlns="http://www.w3.org/2000/svg" width="1em" height="1em" viewBox="0 0 24 24" fill="currentColor">
  <path d="M 16.033203 1 A 1.0001 1.0001 0 0 0 15.310547 1.3046875 L 12.427734 4.2792969 A 1.0001 1.0001 0 0 0 12.421875 4.2851562 C 10.500974 6.3029276 10.532273 9.5261014 12.455078 11.511719 A 1.0001 1.0001 0 0 0 12.460938 11.517578 C 14.415582 13.501778 17.624028 13.470104 19.546875 11.484375 C 21.498005 9.469629 21.469802 6.2376152 19.546875 4.2519531 L 19.554688 4.2578125 L 16.753906 1.3105469 A 1.0001 1.0001 0 0 0 16.033203 1 z M 16.019531 3.4453125 L 18.103516 5.6367188 A 1.0001 1.0001 0 0 0 18.111328 5.6425781 C 19.283001 6.852476 19.308198 8.8559028 18.111328 10.091797 C 16.940884 11.300519 15.08411 11.323149 13.890625 10.115234 C 12.722189 8.9050152 12.698462 6.8958289 13.871094 5.6640625 L 16.019531 3.4453125 z M 4 13 A 1 1 0 0 0 3 14 A 1 1 0 0 0 4 15 L 6.3945312 15 C 6.5384179 15 6.6804595 15.0327 6.8066406 15.09375 L 8.8476562 16.082031 C 9.2478399 16.275666 9.6866729 16.375 10.130859 16.375 L 11.173828 16.375 C 11.320753 16.375 11.308878 16.551176 11.423828 16.607422 L 10.126953 16.964844 C 9.9052963 17.026114 9.6644163 17.00472 9.4609375 16.90625 L 7.2773438 15.849609 A 1 1 0 0 0 5.9414062 16.314453 A 1 1 0 0 0 6.40625 17.650391 L 8.5898438 18.707031 C 9.2343649 19.018955 9.9701534 19.083308 10.660156 18.892578 L 13.199219 18.191406 C 13.599618 18.081092 13.834574 17.687246 13.904297 17.267578 L 17.886719 16.044922 A 1.0001 1.0001 0 0 0 17.890625 16.042969 C 18.295086 15.916941 18.71709 16.054869 18.986328 16.427734 C 19.01255 16.464044 18.996722 16.511391 18.980469 16.525391 L 18.978516 16.527344 L 11.462891 20.865234 C 11.218829 21.006055 10.943181 21.037176 10.679688 20.958984 L 4.2851562 19.060547 A 1 1 0 0 0 3.0410156 19.736328 A 1 1 0 0 0 3.7148438 20.978516 L 10.111328 22.876953 C 10.899233 23.110762 11.750953 23.006482 12.462891 22.595703 L 19.978516 18.259766 C 21.034909 17.650157 21.315519 16.240215 20.607422 15.257812 C 19.85666 14.218079 18.518861 13.753393 17.294922 14.134766 L 13.246094 15.378906 C 12.723113 14.788266 12.015936 14.375 11.173828 14.375 L 10.130859 14.375 C 9.9867466 14.375 9.8447463 14.34221 9.71875 14.28125 L 7.6777344 13.292969 C 7.2777355 13.099423 6.8389448 13 6.3945312 13 L 4 13 z " fill="currentColor"/>
</svg>
