<svg xmlns="http://www.w3.org/2000/svg" width="1em" height="1em" viewBox="0 0 24 24" fill="currentColor">
  <path d="M 17.484375 0.99804688 C 17.049585 1.0008815 16.656417 1.0379771 16.232422 1.2890625 C 15.667186 1.623656 15.462439 2.1046704 15.181641 2.6425781 L 9.4726562 13.580078 C 9.2281007 14.048693 8.9828073 14.431697 9 15.025391 C 9.01729 15.618924 9.2852241 15.986479 9.5566406 16.441406 L 12.576172 21.503906 C 12.869536 21.995546 13.08888 22.435873 13.632812 22.738281 C 14.176774 23.040581 14.656847 23 15.248047 23 L 17.34375 23 C 17.7657 23 18.095125 23.007501 18.451172 22.957031 C 18.807219 22.906541 19.350857 22.718846 19.626953 22.234375 C 19.903032 21.749935 19.775075 21.156448 19.621094 20.830078 C 19.467153 20.503708 19.280875 20.24233 19.052734 19.902344 L 16.03125 15.400391 C 15.85607 15.139378 15.776226 14.995525 15.740234 14.935547 C 15.769312 14.873422 15.832344 14.721967 15.976562 14.445312 L 15.976562 14.443359 L 21.474609 3.9101562 C 21.64391 3.5858443 21.786807 3.3327585 21.896484 3.0117188 C 22.006162 2.6906788 22.06339 2.1295836 21.783203 1.6953125 C 21.502979 1.2610011 20.999767 1.0865327 20.666016 1.0390625 C 20.332265 0.99159226 20.032797 1 19.654297 1 L 17.935547 1 C 17.778597 1 17.629305 0.99710199 17.484375 0.99804688 z M 17.935547 3 L 19.654297 3 C 19.674547 3 19.673749 3.0019131 19.693359 3.0019531 L 14.203125 13.519531 C 13.943662 14.01676 13.681792 14.421754 13.716797 15.046875 A 1.0001 1.0001 0 0 0 13.716797 15.048828 C 13.752037 15.673923 14.057185 16.047912 14.371094 16.515625 L 17.378906 20.998047 C 17.361417 20.998029 17.361677 21 17.34375 21 L 15.248047 21 C 14.850083 21 14.669132 20.981136 14.611328 20.978516 C 14.58174 20.933427 14.48381 20.80029 14.292969 20.480469 L 11.273438 15.417969 A 1.0001 1.0001 0 0 0 11.273438 15.416016 C 11.122524 15.163111 11.054016 15.024553 11.023438 14.966797 C 11.050545 14.907596 11.110671 14.765277 11.246094 14.505859 L 16.955078 3.5683594 C 17.136911 3.2200334 17.232922 3.0736826 17.261719 3.0234375 C 17.324102 3.0206525 17.515608 3 17.935547 3 z M 5.8476562 4.9980469 C 5.7072933 4.9969093 5.5631075 5 5.4140625 5 L 4.2773438 5 C 3.9178988 5 3.6322084 4.9916627 3.3027344 5.0410156 C 2.9732603 5.0903686 2.4657305 5.2830238 2.2011719 5.7148438 C 1.9366117 6.1466547 1.9930599 6.6796551 2.0957031 6.9960938 C 2.1983463 7.3125324 2.3333911 7.5663109 2.4941406 7.890625 L 3.8125 10.548828 C 3.944536 10.815207 3.9976517 10.950597 4.0195312 11 C 3.9976517 11.049401 3.9445358 11.184788 3.8125 11.451172 L 2.4941406 14.109375 C 2.3333906 14.433675 2.1983495 14.687456 2.0957031 15.003906 C 1.9930567 15.320357 1.9366991 15.853379 2.2011719 16.285156 C 2.4657592 16.716968 2.9732759 16.90964 3.3027344 16.958984 C 3.6321929 17.008329 3.9178988 17 4.2773438 17 L 5.4140625 17 C 6.0102425 17 6.5205948 17.04547 7.0761719 16.699219 C 7.6317015 16.352752 7.8154222 15.875769 8.0820312 15.337891 L 9.5703125 12.337891 C 9.7878518 11.899012 10 11.54323 10 11 C 10 10.45677 9.7878518 10.100988 9.5703125 9.6621094 L 8.0820312 6.6621094 C 7.8154122 6.1242016 7.6317696 5.6471747 7.0761719 5.3007812 C 6.6594764 5.0409989 6.268745 5.0014596 5.8476562 4.9980469 z M 4.2851562 7 L 5.4140625 7 C 5.7640665 7 5.9378007 7.0161631 6.0058594 7.0195312 C 6.0402409 7.0801822 6.1334617 7.2309564 6.2910156 7.5488281 L 7.7773438 10.548828 C 7.9093798 10.815207 7.9624955 10.950597 7.984375 11 C 7.9624954 11.049401 7.9093796 11.184788 7.7773438 11.451172 L 6.2910156 14.451172 C 6.1334375 14.769082 6.0402243 14.919834 6.0058594 14.980469 C 5.9378174 14.983832 5.764104 15 5.4140625 15 L 4.2851562 15 C 4.2861662 14.998 4.2860935 14.998194 4.2871094 14.996094 L 5.6035156 12.337891 C 5.8210422 11.899018 6.0351562 11.54323 6.0351562 11 C 6.0351562 10.45677 5.8210549 10.100988 5.6035156 9.6621094 L 4.2871094 7.0039062 C 4.2860903 7.0018503 4.2861709 7.0020485 4.2851562 7 z " fill="currentColor"/>
</svg>
