<svg xmlns="http://www.w3.org/2000/svg" width="1em" height="1em" viewBox="0 0 24 24" fill="currentColor">
  <path d="M 20.999999 13.000001 C 20.999999 16.306704 18.306702 19.000001 14.999999 19.000001 L 4.9999992 19 C 1.6932964 19 -1.0000006 16.306703 -1.0000006 13 L -1.0000002 5 C -1.0000002 1.6932972 1.6932972 -0.99999978 5 -0.99999978 L 15 -0.99999934 C 18.306703 -0.99999934 21 1.6932981 21 5.0000009 L 20.999999 13.000001 z M 18.999999 13.000001 L 19 5.0000008 C 19 2.7667036 17.233297 1.0000007 15 1.0000007 L 5 1.0000002 C 2.7667028 1.0000002 0.99999978 2.7667028 0.99999978 5 L 0.99999943 13 C 0.99999943 15.233297 2.7667021 17 4.9999993 17 L 14.999999 17.000001 C 17.233296 17.000001 18.999999 15.233298 18.999999 13.000001 z M 18 9.0000008 A 1 1 0 0 1 17 10.000001 L 15.314453 10.000001 C 15.06577 10.203679 15 10.380379 15 10.500001 C 15 10.648584 15.102027 10.885335 15.529296 11.152344 A 1 1 0 0 1 15.847656 12.529298 A 1 1 0 0 1 14.470703 12.847657 C 13.660792 12.341526 12.999999 11.519398 13 10.500001 C 13 10.325641 13.021 10.15921 13.060546 10.000001 L 12.46875 10.000001 C 12.174265 10.419959 12 10.934475 11.999999 11.500001 C 11.999999 12.212084 12.275796 12.843258 12.720703 13.306641 A 1 1 0 0 1 12.693359 14.720704 A 1 1 0 0 1 11.279296 14.69336 C 10.487003 13.868163 9.9999994 12.734557 9.9999995 11.5 C 9.9999995 10.965911 10.111229 10.466164 10.296875 10 L 8.7109371 10 C 8.7548471 10.510701 8.8311767 10.996329 8.9355464 11.445313 C 9.2799473 12.927525 8.2098125 14.5 6.5957025 14.5 C 5.7447375 14.5 4.8848841 14.020218 4.5585932 13.142578 C 4.4233402 12.778925 4.3061218 12.394046 4.2089839 11.992188 C 4.1311739 11.669972 3.9363675 11.418012 3.6718745 11.298828 L 3.4355464 11.19336 C 2.5760584 10.805924 1.9999996 9.9493911 1.9999996 9.0000001 C 1.9999996 8.0506091 2.5760586 7.1940757 3.4355466 6.8066408 L 3.6718747 6.701172 C 3.9364027 6.581972 4.1311801 6.3300307 4.2089841 6.0078127 C 4.3061241 5.6059637 4.4233695 5.2210891 4.5585935 4.8574221 C 4.8849156 3.9798571 5.744669 3.5000003 6.595703 3.5000003 C 8.209827 3.5000004 9.2799547 5.0724779 8.9355466 6.5546879 C 8.8311788 7.0036723 8.7548478 7.4892995 8.7109372 8.0000004 L 10.296875 8.0000005 C 10.11123 7.5338365 9.9999997 7.0340901 9.9999997 6.5000004 C 9.9999998 5.2654584 10.487006 4.1318481 11.279297 3.3066411 A 1 1 0 0 1 12.693359 3.2792974 A 1 1 0 0 1 13 3.9804693 A 1 1 0 0 1 12.720703 4.6933599 C 12.275794 5.1567529 12 5.7879425 12 6.5000005 C 12 7.0655262 12.174265 7.5800425 12.46875 8.0000005 L 13.060547 8.0000006 C 13.021 7.8407906 13 7.6743603 13 7.5000006 C 13 6.4806006 13.660843 5.6584823 14.470703 5.1523444 A 1 1 0 0 1 15.847656 5.4707038 A 1 1 0 0 1 15.529297 6.8476569 C 15.101976 7.1147189 15 7.3514007 15 7.5000007 C 15 7.6196224 15.065771 7.7963224 15.314453 8.0000007 L 17 8.0000007 A 1 1 0 0 1 18 9.0000008 z M 6.9999995 12 C 7.0002728 11.965258 6.9960306 11.929838 6.9882807 11.896485 C 6.7807058 11.003503 6.6679683 10.026662 6.6679684 9.0000003 C 6.6679684 7.9733383 6.7807059 6.9964969 6.988281 6.1035159 C 7.050271 5.8367259 6.8407789 5.5000003 6.5957029 5.5000003 C 6.4907326 5.5000003 6.4439112 5.5406206 6.4335935 5.5527347 L 6.4335935 5.5546878 C 6.3280175 5.8386208 6.2339586 6.1489649 6.1542966 6.4785159 C 5.9463016 7.3398989 5.3696581 8.1280377 4.4921871 8.5234377 L 4.255859 8.6308596 C 4.083347 8.7086216 3.9999996 8.8511912 3.9999996 9.0000002 C 3.9999996 9.1488092 4.083347 9.2913758 4.255859 9.3691408 L 4.4921871 9.4765627 C 5.3696941 9.8719797 5.9463014 10.66012 6.1542964 11.521485 C 6.2339584 11.851046 6.3280452 12.161526 6.4335932 12.445313 L 6.4335932 12.447266 L 6.4355463 12.449219 C 6.4458666 12.461371 6.490672 12.5 6.5957026 12.5 C 6.8101572 12.5 6.9980862 12.243198 6.9999995 12 z " fill="currentColor"/>
</svg>
