<svg xmlns="http://www.w3.org/2000/svg" width="1em" height="1em" viewBox="0 0 24 24" fill="currentColor">
  <path d="M 11.455078 1 C 9.8325882 1 8.5991987 0.99500499 7.5527344 1.1171875 C 6.5062701 1.23937 5.598017 1.5134548 4.8613281 2.1074219 C 4.5838098 2.331179 4.331179 2.5838098 4.1074219 2.8613281 C 3.5134548 3.598017 3.2393699 4.5062653 3.1171875 5.5527344 C 2.9950051 6.5992035 3 7.8325681 3 9.4550781 L 3 13 A 1 1 0 0 0 4 14 A 1 1 0 0 0 5 13 L 5 9.4550781 C 5 7.8325681 5.0041805 6.633989 5.1035156 5.7832031 C 5.2028507 4.9324172 5.3719595 4.4794786 5.6640625 4.1171875 C 5.7983254 3.9506658 5.9506658 3.7983254 6.1171875 3.6640625 C 6.4794786 3.3719595 6.9324224 3.2028506 7.7832031 3.1035156 C 8.6339838 3.0041806 9.8325882 3 11.455078 3 C 11.82298 3 11.841181 3.0189629 12.001953 3.0292969 C 12.001856 4.4257545 11.995153 5.5035162 12.119141 6.4257812 C 12.24421 7.3560104 12.542845 8.1991092 13.171875 8.828125 C 13.800899 9.4571352 14.643996 9.7557935 15.574219 9.8808594 C 16.493299 10.004427 17.569593 9.9981768 18.958984 9.9980469 C 18.973846 10.183132 19 10.211888 19 10.65625 L 19 13 A 1 1 0 0 0 20 14 A 1 1 0 0 0 21 13 L 21 10.65625 C 21 9.8387 21.023956 9.2893684 20.771484 8.6796875 C 20.518895 8.070123 20.113277 7.6991741 19.535156 7.1210938 L 14.798828 2.3847656 C 14.299956 1.885914 13.982089 1.5393621 13.466797 1.2929688 C 13.370621 1.2469747 13.270933 1.2075144 13.169922 1.171875 C 12.631476 0.98187736 12.160678 1 11.455078 1 z M 14.046875 4.4609375 L 17.539062 7.953125 C 16.960565 7.9405587 16.219951 7.9492793 15.841797 7.8984375 C 15.138145 7.8038334 14.835612 7.6637323 14.585938 7.4140625 C 14.336267 7.1643983 14.196168 6.8618566 14.101562 6.1582031 C 14.050719 5.7800485 14.059442 5.0394407 14.046875 4.4609375 z M 11.5 15 C 10.407293 15 9.5 15.907293 9.5 17 L 9.5 18 C 9.5 19.092707 10.407293 20 11.5 20 L 13 20 L 13 21 L 10.5 21 A 1 1 0 0 0 9.5 22 A 1 1 0 0 0 10.5 23 L 13 23 C 14.092707 23 15 22.092707 15 21 L 15 20 C 15 18.907293 14.092707 18 13 18 L 11.5 18 L 11.5 17 L 14 17 A 1 1 0 0 0 15 16 A 1 1 0 0 0 14 15 L 11.5 15 z M 16.5 15 A 1 1 0 0 0 15.5 16 L 15.5 20 C 15.5 20.4714 15.493102 20.844869 15.544922 21.230469 C 15.596762 21.616069 15.749816 22.07794 16.085938 22.414062 C 16.422082 22.750322 16.883921 22.903235 17.269531 22.955078 C 17.655144 23.006921 18.0286 23 18.5 23 L 20 23 A 1 1 0 0 0 21 22 A 1 1 0 0 0 20 21 L 18.5 21 C 18.0286 21 17.694196 20.993996 17.535156 20.972656 C 17.532809 20.972341 17.529587 20.97296 17.527344 20.972656 C 17.52704 20.970411 17.52766 20.967193 17.527344 20.964844 C 17.505967 20.805823 17.5 20.4714 17.5 20 L 17.5 16 A 1 1 0 0 0 16.5 15 z M 3.9355469 15.001953 A 1 1 0 0 0 3.4453125 15.167969 A 1 1 0 0 0 3.1679688 16.554688 L 4.7988281 19 L 3.1679688 21.445312 A 1 1 0 0 0 3.4453125 22.832031 A 1 1 0 0 0 4.8320312 22.554688 L 6 20.802734 L 7.1679688 22.554688 A 1 1 0 0 0 8.5546875 22.832031 A 1 1 0 0 0 8.8320312 21.445312 L 7.2011719 19 L 8.8320312 16.554688 A 1 1 0 0 0 8.5546875 15.167969 A 1 1 0 0 0 7.1679688 15.445312 L 6 17.197266 L 4.8320312 15.445312 A 1 1 0 0 0 3.9355469 15.001953 z " fill="currentColor"/>
</svg>
