<svg xmlns="http://www.w3.org/2000/svg" width="1em" height="1em" viewBox="0 0 24 24" fill="currentColor">
  <path d="M 5 2.5 A 1 1 0 0 0 4 3.5 A 1 1 0 0 0 5 4.5 C 6.61762 4.5 7.2615291 4.536532 7.6601562 4.7363281 C 7.9309568 4.87205 8.1840145 5.0647623 8.4042969 5.3105469 C 8.7381083 5.683023 9.0227828 6.4033948 9.6035156 8.0957031 L 10.908203 11.898438 C 9.7791641 13.886465 8.6575976 15.812023 7.515625 17.210938 C 6.2988322 18.701508 5.1468431 19.5 4 19.5 A 1 1 0 0 0 3 20.5 A 1 1 0 0 0 4 21.5 C 6.0368069 21.5 7.6811552 20.173493 9.0664062 18.476562 C 10.033454 17.291931 10.916641 15.881313 11.771484 14.414062 L 12.505859 16.552734 C 13.086563 18.245045 13.382606 19.216632 14.107422 20.025391 C 14.488544 20.45062 14.939887 20.800218 15.443359 21.052734 C 16.408408 21.53632 17.3824 21.5 19 21.5 A 1 1 0 0 0 20 20.5 A 1 1 0 0 0 19 19.5 C 17.3824 19.5 16.738595 19.46349 16.339844 19.263672 C 16.068917 19.127788 15.815981 18.935224 15.595703 18.689453 C 15.261919 18.317012 14.977181 17.596586 14.396484 15.904297 L 13.091797 12.101562 C 14.220836 10.113535 15.342402 8.1879774 16.484375 6.7890625 C 17.701168 5.298493 18.853157 4.5 20 4.5 A 1 1 0 0 0 21 3.5 A 1 1 0 0 0 20 2.5 C 17.963193 2.5 16.318845 3.826507 14.933594 5.5234375 C 13.966546 6.7080698 13.083359 8.1186866 12.228516 9.5859375 L 11.494141 7.4472656 C 10.913413 5.754974 10.617407 4.7833933 9.8925781 3.9746094 C 9.5115005 3.549414 9.0604402 3.1997638 8.5566406 2.9472656 C 7.5916079 2.4635816 6.61762 2.5 5 2.5 z " fill="currentColor"/>
</svg>
