<svg xmlns="http://www.w3.org/2000/svg" width="1em" height="1em" viewBox="0 0 24 24" fill="currentColor">
  <path d="M 2.0273438 2.5 A 1 1 0 0 0 1.7675781 2.5273438 A 1 1 0 0 0 1.0273438 3.7324219 C 1.4432443 5.4781562 3.0512411 8.8025526 6.5 10.740234 L 6.5 12.5 L 5 12.5 A 1 1 0 0 0 4 13.5 A 1 1 0 0 0 5 14.5 L 6.5 14.5 L 6.5 16.5 L 5 16.5 A 1 1 0 0 0 4 17.5 A 1 1 0 0 0 5 18.5 L 6.5 18.5 L 6.5 20.5 A 1 1 0 0 0 7.5 21.5 A 1 1 0 0 0 8.5 20.5 L 8.5 18.5 L 10 18.5 A 1 1 0 0 0 11 17.5 A 1 1 0 0 0 10 16.5 L 8.5 16.5 L 8.5 14.5 L 10 14.5 A 1 1 0 0 0 11 13.5 A 1 1 0 0 0 10 12.5 L 8.5 12.5 L 8.5 10.740234 C 11.948757 8.8025495 13.556731 5.4781154 13.972656 3.7324219 A 1 1 0 0 0 13.232422 2.5273438 A 1 1 0 0 0 12.027344 3.2675781 C 11.750016 4.4315601 10.317129 7.4298015 7.5 9.0195312 C 4.6828663 7.4297985 3.2499513 4.4315191 2.9726562 3.2675781 A 1 1 0 0 0 2.0273438 2.5 z M 19.486328 9.5 A 1 1 0 0 0 18.783203 9.8027344 A 1 1 0 0 0 18.802734 11.216797 C 19.063528 11.470267 19.422065 11.73793 19.759766 12 L 14.5 12 A 1 1 0 0 0 13.5 13 A 1 1 0 0 0 14.5 14 L 19.759766 14 C 19.422065 14.26207 19.063527 14.529733 18.802734 14.783203 A 1 1 0 0 0 18.783203 16.197266 A 1 1 0 0 0 20.197266 16.216797 C 20.296986 16.119877 20.982175 15.603402 21.585938 15.091797 C 21.887819 14.835994 22.184326 14.567469 22.441406 14.265625 C 22.698485 13.963782 23 13.649748 23 13 C 23 12.350252 22.698486 12.036219 22.441406 11.734375 C 22.184326 11.432531 21.88782 11.164006 21.585938 10.908203 C 20.982176 10.396598 20.296982 9.8801192 20.197266 9.7832031 A 1 1 0 0 0 19.486328 9.5 z " fill="currentColor"/>
</svg>
