<svg xmlns="http://www.w3.org/2000/svg" width="1em" height="1em" viewBox="0 0 24 24" fill="currentColor">
  <path d="M 12 1 C 8.2128398 1 4.8644537 2.9261242 2.8847656 5.8496094 A 1 1 0 0 0 2.8710938 5.8671875 A 1 1 0 0 0 2.7675781 6.0273438 C 1.9843556 7.2337765 1.430854 8.604068 1.1699219 10.072266 C 1.1652533 10.098535 1.160731 10.124058 1.15625 10.150391 C 1.0538901 10.751905 1 11.369874 1 12 C 1 13.668242 1.3729373 15.251598 2.0410156 16.669922 A 1 1 0 0 0 2.125 16.84375 C 3.9199109 20.486863 7.6733343 23 12 23 C 18.06325 23 23 18.06325 23 12 C 23 11.316063 22.9268 10.6498 22.806641 10 A 1 1 0 0 0 22.773438 9.7890625 C 22.317743 7.567598 21.19253 5.585865 19.615234 4.0703125 A 1 1 0 0 0 19.453125 3.9179688 C 18.25576 2.8130625 16.812104 1.969669 15.216797 1.4804688 A 1 1 0 0 0 15.066406 1.4355469 C 15.063852 1.4348038 15.061148 1.434335 15.058594 1.4335938 A 1 1 0 0 0 15.054688 1.4335938 C 14.084161 1.1523484 13.059685 1 12 1 z M 12 3 C 12.548508 3 13.084419 3.0492663 13.605469 3.1425781 C 12.745199 5.3971139 10.568213 7 8 7 C 6.9344642 7 5.9403231 6.7259037 5.0761719 6.2421875 C 6.7250819 4.2598231 9.2109502 3 12 3 z M 15.527344 3.7128906 C 16.340075 4.0579446 17.091119 4.5199191 17.759766 5.0761719 C 16.824003 9.0451497 13.266625 12 9 12 C 6.8041321 12 4.8008735 11.217616 3.2402344 9.9160156 C 3.4060076 9.212501 3.6550514 8.5424124 3.9746094 7.9140625 C 5.1582377 8.6040311 6.5362407 9 8 9 C 11.456329 9 14.414159 6.7970083 15.527344 3.7128906 z M 19.333984 6.7734375 C 19.99988 7.7077626 20.491514 8.7752435 20.761719 9.9296875 C 18.741814 14.111578 14.46606 17 9.5 17 C 7.4205722 17 5.4663704 16.494864 3.7441406 15.599609 C 3.2927581 14.561933 3.0307342 13.420241 3.0019531 12.220703 C 4.7282543 13.344763 6.7919854 14 9 14 C 13.740203 14 17.792246 10.990824 19.333984 6.7734375 z M 20.878906 13.486328 C 20.173586 17.75782 16.475982 21 12 21 C 9.5867999 21 7.400777 20.057645 5.7871094 18.519531 C 6.973476 18.833027 8.2179871 19 9.5 19 C 14.107627 19 18.221428 16.845805 20.878906 13.486328 z " fill="currentColor"/>
</svg>
