<svg xmlns="http://www.w3.org/2000/svg" width="1em" height="1em" viewBox="0 0 24 24" fill="currentColor">
  <path d="M 13.400391 4.3183594 C 12.855191 4.3183594 12.407769 4.3165794 11.914062 4.5019531 C 11.468034 4.6694913 11.138709 4.9398328 10.851562 5.1972656 C 9.7285191 6.2038958 8.4604314 7.8840352 8.046875 10.177734 C 7.8460633 11.291414 8.3445357 12.349085 9.1074219 13.001953 C 9.870308 13.654822 10.881945 14 11.949219 14 L 16.050781 14 C 17.118055 14 18.129687 13.65482 18.892578 13.001953 C 19.655469 12.349087 20.153937 11.291418 19.953125 10.177734 C 19.539598 7.8840104 18.271468 6.2038846 17.148438 5.1972656 C 16.86129 4.9398328 16.531965 4.6694913 16.085938 4.5019531 C 15.59223 4.3165794 15.144809 4.3183594 14.599609 4.3183594 L 13.400391 4.3183594 z M 13.400391 6.3183594 L 14.599609 6.3183594 C 15.144809 6.3183594 15.24212 6.3202199 15.382812 6.3730469 C 15.570984 6.4437289 15.527401 6.4301529 15.814453 6.6875 C 16.665023 7.4499011 17.668702 8.7822476 17.984375 10.533203 C 18.054865 10.924119 17.934685 11.188988 17.591797 11.482422 C 17.248913 11.775855 16.666308 12 16.050781 12 L 11.949219 12 C 11.333692 12 10.751082 11.775853 10.408203 11.482422 C 10.065324 11.18899 9.9451367 10.924123 10.015625 10.533203 C 10.331329 8.7822228 11.33499 7.4498898 12.185547 6.6875 C 12.472599 6.4301528 12.429015 6.4437287 12.617188 6.3730469 C 12.757879 6.3202209 12.855191 6.3183599 13.400391 6.3183594 z M 4 13 A 1 1 0 0 0 3 14 A 1 1 0 0 0 4 15 L 6.3945312 15 C 6.5384179 15 6.6804595 15.0327 6.8066406 15.09375 L 8.8476562 16.082031 C 9.2478399 16.275666 9.6866729 16.375 10.130859 16.375 L 11.173828 16.375 C 11.320753 16.375 11.308878 16.551176 11.423828 16.607422 L 10.126953 16.964844 C 9.9052963 17.026114 9.6644163 17.00472 9.4609375 16.90625 L 7.2773438 15.849609 A 1 1 0 0 0 5.9414062 16.314453 A 1 1 0 0 0 6.40625 17.650391 L 8.5898438 18.707031 C 9.2343649 19.018955 9.9701534 19.083308 10.660156 18.892578 L 13.199219 18.191406 C 13.599618 18.081092 13.834574 17.687246 13.904297 17.267578 L 17.886719 16.044922 A 1.0001 1.0001 0 0 0 17.890625 16.042969 C 18.295086 15.916941 18.71709 16.054869 18.986328 16.427734 C 19.01255 16.464044 18.996722 16.511391 18.980469 16.525391 L 18.978516 16.527344 L 11.462891 20.865234 C 11.218829 21.006055 10.943181 21.037176 10.679688 20.958984 L 4.2851562 19.060547 A 1 1 0 0 0 3.0410156 19.736328 A 1 1 0 0 0 3.7148438 20.978516 L 10.111328 22.876953 C 10.899233 23.110762 11.750953 23.006482 12.462891 22.595703 L 19.978516 18.259766 C 21.034909 17.650157 21.315519 16.240215 20.607422 15.257812 C 19.85666 14.218079 18.518861 13.753393 17.294922 14.134766 L 13.246094 15.378906 C 12.723113 14.788266 12.015936 14.375 11.173828 14.375 L 10.130859 14.375 C 9.9867466 14.375 9.8447463 14.34221 9.71875 14.28125 L 7.6777344 13.292969 C 7.2777355 13.099423 6.8389448 13 6.3945312 13 L 4 13 z " fill="currentColor"/>
</svg>
