<svg xmlns="http://www.w3.org/2000/svg" width="1em" height="1em" viewBox="0 0 24 24" fill="currentColor">
  <path d="M 12 1 C 5.9367104 1 1 5.9367104 1 12 C 1 18.063244 5.9367044 23 12 23 C 18.06325 23 23 18.06325 23 12 C 23 5.9367044 18.063244 1 12 1 z M 12 3 C 16.982356 3 21 7.0175956 21 12 C 21 16.98235 16.98235 21 12 21 C 7.0175956 21 3 16.982356 3 12 C 3 7.0175896 7.0175896 3 12 3 z M 12 6 C 9.8026731 6 8 7.8027269 8 10 L 8 14 C 8 16.197307 9.8026932 18 12 18 C 14.197307 18 16 16.197307 16 14 L 16 10 C 16 7.8027269 14.197327 6 12 6 z M 12 8 C 13.116473 8 14 8.8835731 14 10 L 14 14 C 14 15.116493 13.116493 16 12 16 C 10.883507 16 10 15.116493 10 14 L 10 10 C 10 8.8835731 10.883527 8 12 8 z " fill="currentColor"/>
</svg>
