<svg xmlns="http://www.w3.org/2000/svg" width="1em" height="1em" viewBox="0 0 24 24" fill="currentColor">
  <path d="M 6.5 2 C 4.026562 2 2 4.026562 2 6.5 A 1 1 0 0 0 3 7.5 A 1 1 0 0 0 4 6.5 C 4 5.107438 5.107438 4 6.5 4 A 1 1 0 0 0 7.5 3 A 1 1 0 0 0 6.5 2 z M 10 2 A 1 1 0 0 0 9 3 A 1 1 0 0 0 10 4 L 14 4 A 1 1 0 0 0 15 3 A 1 1 0 0 0 14 2 L 10 2 z M 17.5 2 A 1 1 0 0 0 16.5 3 A 1 1 0 0 0 17.5 4 C 18.892562 4 20 5.107438 20 6.5 A 1 1 0 0 0 21 7.5 A 1 1 0 0 0 22 6.5 C 22 4.026562 19.973438 2 17.5 2 z M 14.5 8 C 10.921973 8 8 10.921973 8 14.5 C 8 18.078027 10.921973 21 14.5 21 C 15.92375 21 17.174814 20.444655 18.248047 19.662109 L 20.292969 21.707031 A 1 1 0 0 0 21.707031 21.707031 A 1 1 0 0 0 21.707031 20.292969 L 19.662109 18.246094 C 20.444075 17.173097 21 15.923169 21 14.5 C 21 10.921973 18.078027 8 14.5 8 z M 3 9 A 1 1 0 0 0 2 10 L 2 14 A 1 1 0 0 0 3 15 A 1 1 0 0 0 4 14 L 4 10 A 1 1 0 0 0 3 9 z M 14.5 10 C 16.997173 10 19 12.002827 19 14.5 C 19 16.997173 16.997173 19 14.5 19 C 12.002827 19 10 16.997173 10 14.5 C 10 12.002827 12.002827 10 14.5 10 z M 12.5 13.5 A 1 1 0 0 0 11.5 14.5 A 1 1 0 0 0 12.5 15.5 L 16.5 15.5 A 1 1 0 0 0 17.5 14.5 A 1 1 0 0 0 16.5 13.5 L 12.5 13.5 z M 3 16.5 A 1 1 0 0 0 2 17.5 C 2 19.973438 4.026562 22 6.5 22 A 1 1 0 0 0 7.5 21 A 1 1 0 0 0 6.5 20 C 5.107438 20 4 18.892562 4 17.5 A 1 1 0 0 0 3 16.5 z " fill="currentColor"/>
</svg>
