<svg xmlns="http://www.w3.org/2000/svg" width="1em" height="1em" viewBox="0 0 24 24" fill="currentColor">
  <path d="M 12 1 C 5.9367104 1 1 5.9367104 1 12 C 1 18.063244 5.9367044 23 12 23 C 18.06325 23 23 18.06325 23 12 C 23 5.9367044 18.063244 1 12 1 z M 12 3 C 16.982356 3 21 7.0175956 21 12 C 21 16.98235 16.98235 21 12 21 C 7.0175956 21 3 16.982356 3 12 C 3 7.0175896 7.0175896 3 12 3 z M 7.5 8 C 7.2643 8 7.0678042 7.993806 6.8183594 8.0273438 C 6.5689145 8.0608813 6.20236 8.1765283 5.9394531 8.4394531 C 5.6765283 8.70236 5.5608814 9.0689145 5.5273438 9.3183594 C 5.4938061 9.5678042 5.5 9.7643 5.5 10 L 5.5 11 C 5.5 11.9428 5.4935803 12.670214 5.5820312 13.328125 C 5.6704862 13.986036 5.8963406 14.63852 6.3789062 15.121094 C 6.8614739 15.603678 7.5139596 15.829512 8.171875 15.917969 C 8.8297906 16.006425 9.55719 16 10.5 16 L 12 16 C 12.2357 16 12.432237 16.006196 12.681641 15.972656 C 12.931044 15.939136 13.297625 15.82329 13.560547 15.560547 C 13.82329 15.297625 13.939137 14.931044 13.972656 14.681641 C 14.006176 14.432233 14 14.2357 14 14 L 14 13 C 14 12.915552 13.99997 12.83305 14 12.751953 C 14.006318 12.949085 14.034198 13.155738 14.138672 13.400391 C 14.303661 13.786754 14.531986 13.967807 14.755859 14.183594 L 15.105469 14.521484 C 15.467936 14.871051 15.741452 15.147537 16.066406 15.382812 C 16.228883 15.50045 16.410638 15.61601 16.667969 15.691406 C 16.9253 15.766806 17.285149 15.768588 17.576172 15.648438 C 17.867137 15.528215 18.123584 15.2702 18.251953 15.03125 C 18.380322 14.7923 18.42253 14.58131 18.451172 14.382812 C 18.508455 13.985817 18.5 13.598859 18.5 13.099609 L 18.5 10.900391 C 18.5 10.401146 18.508502 10.014188 18.451172 9.6171875 C 18.422532 9.4186873 18.380338 9.2077152 18.251953 8.96875 C 18.123569 8.7297848 17.867198 8.4717534 17.576172 8.3515625 C 17.285137 8.2313682 16.925322 8.2331959 16.667969 8.3085938 C 16.410616 8.3839917 16.228882 8.4995495 16.066406 8.6171875 C 15.741454 8.8524635 15.467924 9.128981 15.105469 9.4785156 L 14.755859 9.8164062 C 14.531986 10.032193 14.303661 10.213246 14.138672 10.599609 C 13.973428 10.986567 14 11.279013 14 11.587891 L 14 12.412109 C 14 12.421951 14.000047 12.431594 14 12.441406 C 13.998667 11.75922 13.988117 11.193772 13.917969 10.671875 C 13.829511 10.013962 13.603661 9.361482 13.121094 8.8789062 C 12.63852 8.3963405 11.986036 8.170486 11.328125 8.0820312 C 10.670214 7.9935763 9.9428 8 9 8 L 7.5 8 z M 7.5 10 L 9 10 C 9.9428 10 10.629208 10.006503 11.060547 10.064453 C 11.491886 10.122443 11.603805 10.189744 11.707031 10.292969 C 11.810264 10.396203 11.877553 10.508114 11.935547 10.939453 C 11.99354 11.370795 12 12.0572 12 13 L 12 14 L 10.5 14 C 9.55719 14 8.8707927 13.99354 8.4394531 13.935547 C 8.0081136 13.877553 7.8961812 13.810247 7.7929688 13.707031 C 7.6897445 13.603805 7.6224458 13.491886 7.5644531 13.060547 C 7.5064604 12.629208 7.5 11.9428 7.5 11 L 7.5 10 z M 16.5 10.912109 L 16.5 13.087891 C 16.497 13.084991 16.497141 13.084931 16.494141 13.082031 L 16.144531 12.744141 C 16.08039 12.682284 16.034485 12.634292 16.003906 12.601562 C 16.001671 12.55819 16 12.496638 16 12.412109 L 16 11.587891 C 16 11.503366 16.001672 11.44181 16.003906 11.398438 C 16.034492 11.365701 16.080365 11.317741 16.144531 11.255859 L 16.494141 10.917969 C 16.497126 10.915083 16.497046 10.914967 16.5 10.912109 z " fill="currentColor"/>
</svg>
