<svg xmlns="http://www.w3.org/2000/svg" width="1em" height="1em" viewBox="0 0 24 24" fill="currentColor">
  <path d="M 4 5 C 3.528595 5 3.1551288 4.9930802 2.7695312 5.0449219 C 2.3839336 5.0967636 1.9220631 5.2498234 1.5859375 5.5859375 C 1.2498234 5.9220631 1.0967636 6.3839336 1.0449219 6.7695312 C 0.99308013 7.1551289 1 7.528595 1 8 L 1 10 C 1 11.8856 0.994573 13.318937 1.15625 14.521484 C 1.3179268 15.724031 1.6893545 16.759713 2.4648438 17.535156 C 3.2403087 18.310634 4.2759729 18.682068 5.4785156 18.84375 C 6.6810584 19.005432 8.11438 19 10 19 L 13 19 C 13.4714 19 13.844869 19.006898 14.230469 18.955078 C 14.616069 18.903238 15.07794 18.750186 15.414062 18.414062 C 15.750184 18.077941 15.903234 17.616069 15.955078 17.230469 C 16.006922 16.844867 16 16.4714 16 16 L 16 14 C 16 13.755312 16.000195 13.519003 16 13.289062 C 16.004637 13.685104 16.035018 14.026312 16.197266 14.40625 C 16.419496 14.92664 16.759084 15.218326 17.205078 15.648438 L 17.90625 16.324219 C 18.63115 17.023319 19.176236 17.560834 19.720703 17.955078 C 19.992936 18.1522 20.269474 18.322527 20.615234 18.423828 C 20.960994 18.525129 21.401908 18.524883 21.769531 18.373047 C 22.137192 18.221255 22.451562 17.907061 22.623047 17.587891 C 22.794531 17.26872 22.866271 16.952314 22.914062 16.621094 C 23.009646 15.958653 23 15.199672 23 14.201172 L 23 9.7988281 C 23 8.8003581 23.009603 8.041341 22.914062 7.3789062 C 22.866274 7.047689 22.794519 6.7312734 22.623047 6.4121094 C 22.451575 6.0929454 22.137158 5.7787791 21.769531 5.6269531 C 21.401908 5.4751284 20.960988 5.4748694 20.615234 5.5761719 C 20.269481 5.6774743 19.992935 5.8478016 19.720703 6.0449219 C 19.176239 6.4391625 18.63115 6.9766858 17.90625 7.6757812 L 17.205078 8.3515625 C 16.759085 8.7816971 16.419492 9.0733686 16.197266 9.59375 C 15.975039 10.114131 16 10.563322 16 11.177734 L 16 12.822266 C 16 12.886782 16.000235 12.94862 16 13.009766 C 15.996909 11.597603 15.975872 10.461399 15.84375 9.4785156 C 15.682069 8.2759689 15.310638 7.2403127 14.535156 6.4648438 C 13.759713 5.6893546 12.724031 5.3179268 11.521484 5.15625 C 10.318937 4.9945732 8.8856 5 7 5 L 4 5 z M 4 7 L 7 7 C 8.8856 7 10.279881 7.0055 11.255859 7.1367188 C 12.231837 7.2679345 12.725037 7.4828256 13.121094 7.8789062 C 13.517212 8.2750173 13.732063 8.7681674 13.863281 9.7441406 C 13.9945 10.720114 14 12.1144 14 14 L 14 16 C 14 16.4714 13.993996 16.805819 13.972656 16.964844 C 13.972341 16.967191 13.97296 16.970413 13.972656 16.972656 C 13.970411 16.97296 13.967193 16.97234 13.964844 16.972656 C 13.805823 16.994033 13.4714 17 13 17 L 10 17 C 8.11438 17 6.7201079 16.9945 5.7441406 16.863281 C 4.7681734 16.732063 4.2750213 16.517216 3.8789062 16.121094 C 3.4828254 15.725037 3.2679343 15.231837 3.1367188 14.255859 C 3.005503 13.279881 3 11.8856 3 10 L 3 8 C 3 7.528595 3.0059629 7.1941861 3.0273438 7.0351562 C 3.0276592 7.0328099 3.02704 7.0295866 3.0273438 7.0273438 C 3.0295867 7.02704 3.0328099 7.0276592 3.0351562 7.0273438 C 3.1941863 7.0059628 3.528595 7 4 7 z M 20.929688 7.6445312 C 20.931587 7.6563893 20.931794 7.6514515 20.933594 7.6640625 C 20.991218 8.0633731 21 8.8003581 21 9.7988281 L 21 14.201172 C 21 15.199672 20.991204 15.936627 20.933594 16.335938 C 20.931794 16.348557 20.931588 16.343639 20.929688 16.355469 C 20.920397 16.349189 20.914078 16.347174 20.910156 16.345703 C 20.906859 16.344247 20.90217 16.341461 20.894531 16.335938 C 20.560898 16.094356 20.017869 15.583866 19.292969 14.884766 L 18.59375 14.208984 C 18.152445 13.783395 18.042804 13.634429 18.037109 13.621094 C 18.031415 13.607758 18 13.430038 18 12.822266 L 18 11.177734 C 18 10.569977 18.031409 10.39225 18.037109 10.378906 C 18.042809 10.365566 18.152443 10.216631 18.59375 9.7910156 L 19.292969 9.1152344 C 20.017868 8.4161398 20.560896 7.9056444 20.894531 7.6640625 C 20.902169 7.6585325 20.908813 7.6557524 20.912109 7.6542969 C 20.916029 7.6528278 20.920395 7.6508095 20.929688 7.6445312 z " fill="currentColor"/>
</svg>
