<svg xmlns="http://www.w3.org/2000/svg" width="1em" height="1em" viewBox="0 0 24 24" fill="currentColor">
  <path d="M 4 3 A 1 1 0 0 0 3 4 A 1 1 0 0 0 4 5 L 8.796875 5 L 3.2480469 11.341797 A 1.0001 1.0001 0 0 0 4 13 L 11 13 A 1 1 0 0 0 12 12 A 1 1 0 0 0 11 11 L 6.203125 11 L 11.751953 4.6582031 A 1.0001 1.0001 0 0 0 11 3 L 4 3 z M 14 8 A 1 1 0 0 0 13 9 A 1 1 0 0 0 14 10 L 17.585938 10 L 13.292969 14.292969 A 1.0001 1.0001 0 0 0 14 16 L 20 16 A 1 1 0 0 0 21 15 A 1 1 0 0 0 20 14 L 16.414062 14 L 20.707031 9.7070312 A 1.0001 1.0001 0 0 0 20 8 L 14 8 z M 6 15 A 1 1 0 0 0 5 16 A 1 1 0 0 0 6 17 L 7.5859375 17 L 5.2929688 19.292969 A 1.0001 1.0001 0 0 0 6 21 L 10 21 A 1 1 0 0 0 11 20 A 1 1 0 0 0 10 19 L 8.4140625 19 L 10.707031 16.707031 A 1.0001 1.0001 0 0 0 10 15 L 6 15 z " fill="currentColor"/>
</svg>
