<svg xmlns="http://www.w3.org/2000/svg" width="1em" height="1em" viewBox="0 0 24 24" fill="currentColor">
  <path d="M 12 1 C 5.936709 1 1 5.9367135 1 12 C 1 18.063287 5.936709 23 12 23 L 12.25 23 C 14.453173 23 15.771123 20.362148 14.449219 18.599609 L 14.150391 18.199219 C 13.741799 17.65443 14.069015 17 14.75 17 L 17 17 C 20.301864 17 23 14.301864 23 11 C 23 5.4289482 18.009244 1 12 1 z M 12 3 C 17.036451 3 21 6.6299263 21 11 C 21 13.220984 19.220984 15 17 15 L 14.75 15 C 12.546827 15 11.228877 17.637852 12.550781 19.400391 L 12.849609 19.800781 C 13.258201 20.34557 12.930985 21 12.25 21 L 12 21 C 7.0175885 21 3 16.982408 3 12 C 3 7.0175918 7.0175885 3 12 3 z M 13.5 5 C 12.683418 5 12 5.6834175 12 6.5 C 12 7.3165825 12.683418 8 13.5 8 C 14.316582 8 15 7.3165825 15 6.5 C 15 5.6834175 14.316582 5 13.5 5 z M 8.5 6 C 7.6834175 6 7 6.6834175 7 7.5 C 7 8.3165825 7.6834175 9 8.5 9 C 9.3165825 9 10 8.3165825 10 7.5 C 10 6.6834175 9.3165825 6 8.5 6 z M 17.5 9 C 16.683418 9 16 9.6834175 16 10.5 C 16 11.316582 16.683418 12 17.5 12 C 18.316582 12 19 11.316582 19 10.5 C 19 9.6834175 18.316582 9 17.5 9 z M 6.5 11 C 5.6834175 11 5 11.683418 5 12.5 C 5 13.316582 5.6834175 14 6.5 14 C 7.3165825 14 8 13.316582 8 12.5 C 8 11.683418 7.3165825 11 6.5 11 z " fill="currentColor"/>
</svg>
